<svg xmlns="http://www.w3.org/2000/svg" width="943.863" height="132.643" viewBox="0 0 943.863 132.643"><g transform="translate(-314.756 -1294.693)"><g transform="translate(2805 441.682)"><circle cx="5" cy="5" r="5" transform="translate(-2367.408 868.184)" fill="#2e6cb9"/></g><g transform="translate(2805 442.682)"><path d="M-2327.452,875.271c-.006-4.7,4.49-8.524,10.044-8.532s10.06,3.8,10.067,8.5Zm4.287-15.623a5.746,5.746,0,0,1,5.8-5.691,5.746,5.746,0,0,1,5.69,5.675,5.746,5.746,0,0,1-5.8,5.691A5.746,5.746,0,0,1-2323.165,859.648Z" fill="#2e3e5a"/><path d="M-2352.7,875.308c-.007-4.7,4.489-8.525,10.043-8.533s10.061,3.8,10.067,8.5Zm4.286-15.623a5.746,5.746,0,0,1,5.8-5.691,5.746,5.746,0,0,1,5.69,5.674,5.745,5.745,0,0,1-5.8,5.691A5.745,5.745,0,0,1-2348.418,859.685Z" fill="#2e3e5a"/></g><g transform="translate(2805 442.682)"><path d="M-2276.946,875.2c-.007-4.7,4.489-8.524,10.043-8.532s10.061,3.8,10.068,8.5Zm4.286-15.622a5.746,5.746,0,0,1,5.8-5.691,5.746,5.746,0,0,1,5.691,5.674,5.747,5.747,0,0,1-5.8,5.691A5.746,5.746,0,0,1-2272.66,859.575Z" fill="#6c97ce"/><path d="M-2302.2,875.234c-.007-4.7,4.49-8.524,10.043-8.532s10.061,3.8,10.068,8.5Zm4.286-15.622a5.746,5.746,0,0,1,5.8-5.691,5.746,5.746,0,0,1,5.691,5.674,5.747,5.747,0,0,1-5.8,5.691A5.747,5.747,0,0,1-2297.913,859.612Z" fill="#6c97ce"/><path d="M-2251.693,875.16c-.007-4.7,4.489-8.524,10.043-8.532s10.061,3.8,10.068,8.5Zm4.286-15.622a5.746,5.746,0,0,1,5.8-5.691,5.746,5.746,0,0,1,5.691,5.674,5.747,5.747,0,0,1-5.8,5.691A5.746,5.746,0,0,1-2247.407,859.538Z" fill="#6c97ce"/><path d="M-2150.682,875.013c-.007-4.7,4.489-8.524,10.043-8.532s10.061,3.8,10.068,8.5Zm4.286-15.623a5.746,5.746,0,0,1,5.8-5.69,5.746,5.746,0,0,1,5.691,5.674,5.747,5.747,0,0,1-5.8,5.691A5.747,5.747,0,0,1-2146.4,859.39Z" fill="#6c97ce"/><path d="M-2175.935,875.05c-.006-4.7,4.49-8.524,10.044-8.533s10.06,3.8,10.067,8.5Zm4.286-15.623a5.748,5.748,0,0,1,5.8-5.691,5.746,5.746,0,0,1,5.69,5.675,5.745,5.745,0,0,1-5.8,5.69A5.747,5.747,0,0,1-2171.649,859.427Z" fill="#6c97ce"/><path d="M-2201.187,875.086c-.007-4.7,4.489-8.524,10.043-8.532s10.061,3.8,10.067,8.5Zm4.286-15.622a5.746,5.746,0,0,1,5.8-5.691,5.746,5.746,0,0,1,5.69,5.674,5.745,5.745,0,0,1-5.8,5.691A5.745,5.745,0,0,1-2196.9,859.464Z" fill="#6c97ce"/><path d="M-2226.44,875.123c-.007-4.7,4.489-8.524,10.043-8.532s10.061,3.8,10.068,8.5Zm4.286-15.622a5.746,5.746,0,0,1,5.8-5.691,5.746,5.746,0,0,1,5.691,5.674,5.746,5.746,0,0,1-5.8,5.691A5.746,5.746,0,0,1-2222.154,859.5Z" fill="#6c97ce"/><path d="M-2125.429,874.976c-.007-4.7,4.489-8.524,10.043-8.532s10.061,3.8,10.068,8.5Zm4.286-15.622a5.746,5.746,0,0,1,5.8-5.691,5.746,5.746,0,0,1,5.691,5.674,5.747,5.747,0,0,1-5.8,5.691A5.747,5.747,0,0,1-2121.143,859.354Z" fill="#6c97ce"/><path d="M-2024.418,874.829c-.006-4.7,4.49-8.525,10.044-8.533s10.06,3.8,10.067,8.5Zm4.286-15.623a5.748,5.748,0,0,1,5.8-5.691,5.747,5.747,0,0,1,5.69,5.674,5.745,5.745,0,0,1-5.8,5.691A5.747,5.747,0,0,1-2020.132,859.206Z" fill="#6c97ce"/><path d="M-2049.67,874.865c-.007-4.7,4.489-8.524,10.043-8.532s10.061,3.8,10.067,8.5Zm4.286-15.622a5.746,5.746,0,0,1,5.8-5.691,5.745,5.745,0,0,1,5.69,5.674,5.745,5.745,0,0,1-5.8,5.691A5.745,5.745,0,0,1-2045.384,859.243Z" fill="#6c97ce"/><path d="M-2074.923,874.9c-.007-4.7,4.489-8.524,10.043-8.532s10.061,3.8,10.068,8.5Zm4.286-15.622a5.746,5.746,0,0,1,5.8-5.691,5.746,5.746,0,0,1,5.691,5.674,5.747,5.747,0,0,1-5.8,5.691A5.746,5.746,0,0,1-2070.637,859.28Z" fill="#6c97ce"/><path d="M-2100.176,874.939c-.007-4.7,4.489-8.524,10.043-8.532s10.061,3.8,10.068,8.5Zm4.286-15.622a5.745,5.745,0,0,1,5.8-5.691,5.746,5.746,0,0,1,5.691,5.674,5.747,5.747,0,0,1-5.8,5.691A5.746,5.746,0,0,1-2095.89,859.317Z" fill="#6c97ce"/><path d="M-1999.165,874.792c-.007-4.7,4.489-8.524,10.043-8.532s10.061,3.8,10.068,8.5Zm4.286-15.623a5.747,5.747,0,0,1,5.8-5.691,5.747,5.747,0,0,1,5.691,5.675,5.747,5.747,0,0,1-5.8,5.691A5.747,5.747,0,0,1-1994.879,859.169Z" fill="#6c97ce"/><path d="M-1898.153,874.644c-.007-4.7,4.489-8.524,10.043-8.532s10.061,3.8,10.067,8.5Zm4.286-15.622a5.746,5.746,0,0,1,5.8-5.691,5.745,5.745,0,0,1,5.69,5.674,5.745,5.745,0,0,1-5.8,5.691A5.745,5.745,0,0,1-1893.867,859.022Z" fill="#6c97ce"/><path d="M-1923.406,874.681c-.007-4.7,4.489-8.524,10.043-8.532s10.061,3.8,10.068,8.5Zm4.286-15.622a5.746,5.746,0,0,1,5.8-5.691,5.746,5.746,0,0,1,5.691,5.674,5.747,5.747,0,0,1-5.8,5.691A5.746,5.746,0,0,1-1919.12,859.059Z" fill="#6c97ce"/><path d="M-1948.659,874.718c-.007-4.7,4.489-8.524,10.043-8.532s10.061,3.8,10.068,8.5Zm4.286-15.622a5.746,5.746,0,0,1,5.8-5.691,5.746,5.746,0,0,1,5.691,5.674,5.748,5.748,0,0,1-5.8,5.691A5.746,5.746,0,0,1-1944.373,859.1Z" fill="#6c97ce"/><path d="M-1973.912,874.755c-.007-4.7,4.489-8.524,10.043-8.532s10.061,3.8,10.068,8.5Zm4.286-15.622a5.746,5.746,0,0,1,5.8-5.691,5.746,5.746,0,0,1,5.691,5.674,5.747,5.747,0,0,1-5.8,5.691A5.747,5.747,0,0,1-1969.626,859.133Z" fill="#6c97ce"/><path d="M-1872.9,874.607c-.006-4.7,4.49-8.524,10.043-8.532s10.061,3.8,10.068,8.5Zm4.286-15.622a5.748,5.748,0,0,1,5.8-5.691,5.747,5.747,0,0,1,5.69,5.674,5.745,5.745,0,0,1-5.8,5.691A5.747,5.747,0,0,1-1868.615,858.985Z" fill="#6c97ce"/><path d="M-1771.889,874.46c-.007-4.7,4.489-8.524,10.043-8.532s10.061,3.8,10.068,8.5Zm4.286-15.622a5.745,5.745,0,0,1,5.8-5.691,5.747,5.747,0,0,1,5.691,5.674,5.748,5.748,0,0,1-5.8,5.691A5.746,5.746,0,0,1-1767.6,858.838Z" fill="#6c97ce"/><path d="M-1797.142,874.5c-.007-4.7,4.489-8.524,10.043-8.532s10.061,3.8,10.068,8.5Zm4.286-15.622a5.745,5.745,0,0,1,5.8-5.691,5.746,5.746,0,0,1,5.691,5.674,5.747,5.747,0,0,1-5.8,5.691A5.747,5.747,0,0,1-1792.856,858.875Z" fill="#6c97ce"/><path d="M-1822.4,874.534c-.007-4.7,4.489-8.524,10.043-8.532s10.061,3.8,10.068,8.5Zm4.286-15.623a5.746,5.746,0,0,1,5.8-5.69,5.746,5.746,0,0,1,5.691,5.674,5.747,5.747,0,0,1-5.8,5.691A5.747,5.747,0,0,1-1818.109,858.911Z" fill="#6c97ce"/><path d="M-1847.648,874.571c-.007-4.7,4.489-8.524,10.043-8.533s10.061,3.8,10.068,8.5Zm4.286-15.623a5.747,5.747,0,0,1,5.8-5.691,5.747,5.747,0,0,1,5.691,5.675,5.745,5.745,0,0,1-5.8,5.69A5.746,5.746,0,0,1-1843.362,858.948Z" fill="#6c97ce"/><path d="M-1746.636,874.423c-.007-4.7,4.489-8.524,10.043-8.532s10.06,3.8,10.067,8.5Zm4.286-15.622a5.746,5.746,0,0,1,5.8-5.691,5.745,5.745,0,0,1,5.69,5.674,5.745,5.745,0,0,1-5.8,5.691A5.745,5.745,0,0,1-1742.35,858.8Z" fill="#6c97ce"/><path d="M-2276.9,910.308c-.007-4.7,4.489-8.524,10.043-8.532s10.061,3.8,10.068,8.5Zm4.286-15.622a5.746,5.746,0,0,1,5.8-5.691,5.746,5.746,0,0,1,5.691,5.674,5.747,5.747,0,0,1-5.8,5.691A5.746,5.746,0,0,1-2272.615,894.686Z" fill="#6c97ce"/><path d="M-2302.154,910.345c-.007-4.7,4.489-8.524,10.043-8.532s10.061,3.8,10.068,8.5Zm4.286-15.622a5.746,5.746,0,0,1,5.8-5.691,5.746,5.746,0,0,1,5.691,5.674,5.747,5.747,0,0,1-5.8,5.691A5.747,5.747,0,0,1-2297.868,894.723Z" fill="#6c97ce"/><path d="M-2327.407,910.382c-.007-4.7,4.489-8.524,10.043-8.532s10.061,3.8,10.068,8.5Zm4.286-15.623a5.748,5.748,0,0,1,5.8-5.691,5.747,5.747,0,0,1,5.691,5.675,5.745,5.745,0,0,1-5.8,5.69A5.746,5.746,0,0,1-2323.121,894.759Z" fill="#6c97ce"/><path d="M-2352.66,910.418c-.006-4.7,4.49-8.524,10.044-8.532s10.06,3.8,10.067,8.5Zm4.286-15.622a5.748,5.748,0,0,1,5.8-5.691,5.747,5.747,0,0,1,5.69,5.674,5.745,5.745,0,0,1-5.8,5.691A5.747,5.747,0,0,1-2348.374,894.8Z" fill="#6c97ce"/><path d="M-2251.648,910.271c-.007-4.7,4.489-8.524,10.043-8.532s10.061,3.8,10.068,8.5Zm4.286-15.622a5.745,5.745,0,0,1,5.8-5.691,5.747,5.747,0,0,1,5.691,5.674,5.747,5.747,0,0,1-5.8,5.691A5.746,5.746,0,0,1-2247.362,894.649Z" fill="#6c97ce"/><path d="M-2150.637,910.124c-.007-4.7,4.489-8.524,10.043-8.532s10.061,3.8,10.068,8.5Zm4.286-15.623a5.746,5.746,0,0,1,5.8-5.69,5.746,5.746,0,0,1,5.691,5.674,5.748,5.748,0,0,1-5.8,5.691A5.747,5.747,0,0,1-2146.351,894.5Z" fill="#6c97ce"/><path d="M-2175.89,910.161c-.007-4.7,4.489-8.524,10.043-8.533s10.061,3.8,10.068,8.5Zm4.286-15.623a5.747,5.747,0,0,1,5.8-5.691,5.747,5.747,0,0,1,5.691,5.675,5.745,5.745,0,0,1-5.8,5.69A5.746,5.746,0,0,1-2171.6,894.538Z" fill="#6c97ce"/><path d="M-2201.143,910.2c-.006-4.7,4.49-8.524,10.043-8.532s10.061,3.8,10.068,8.5Zm4.286-15.622a5.748,5.748,0,0,1,5.8-5.691,5.747,5.747,0,0,1,5.69,5.674,5.745,5.745,0,0,1-5.8,5.691A5.746,5.746,0,0,1-2196.857,894.575Z" fill="#6c97ce"/><path d="M-2226.4,910.234c-.007-4.7,4.489-8.524,10.043-8.532s10.061,3.8,10.067,8.5Zm4.286-15.622a5.746,5.746,0,0,1,5.8-5.691,5.746,5.746,0,0,1,5.69,5.674,5.745,5.745,0,0,1-5.8,5.691A5.745,5.745,0,0,1-2222.109,894.612Z" fill="#6c97ce"/><path d="M-2125.384,910.087c-.007-4.7,4.489-8.524,10.043-8.532s10.061,3.8,10.068,8.5Zm4.286-15.622a5.745,5.745,0,0,1,5.8-5.691,5.746,5.746,0,0,1,5.691,5.674,5.747,5.747,0,0,1-5.8,5.691A5.747,5.747,0,0,1-2121.1,894.465Z" fill="#6c97ce"/><path d="M-2024.373,909.939c-.007-4.7,4.489-8.524,10.043-8.532s10.061,3.8,10.068,8.5Zm4.286-15.622a5.748,5.748,0,0,1,5.8-5.691,5.747,5.747,0,0,1,5.691,5.674,5.746,5.746,0,0,1-5.8,5.691A5.746,5.746,0,0,1-2020.087,894.317Z" fill="#6c97ce"/><path d="M-2049.626,909.976c-.006-4.7,4.49-8.524,10.043-8.532s10.061,3.8,10.068,8.5Zm4.286-15.622a5.747,5.747,0,0,1,5.8-5.691,5.746,5.746,0,0,1,5.691,5.674,5.745,5.745,0,0,1-5.8,5.691A5.746,5.746,0,0,1-2045.34,894.354Z" fill="#6c97ce"/><path d="M-2074.878,910.013c-.007-4.7,4.489-8.524,10.043-8.532s10.06,3.8,10.067,8.5Zm4.286-15.622a5.745,5.745,0,0,1,5.8-5.691,5.745,5.745,0,0,1,5.69,5.674,5.746,5.746,0,0,1-5.8,5.691A5.746,5.746,0,0,1-2070.592,894.391Z" fill="#6c97ce"/><path d="M-2100.131,910.05c-.007-4.7,4.489-8.524,10.043-8.532s10.061,3.8,10.068,8.5Zm4.286-15.622a5.745,5.745,0,0,1,5.8-5.691,5.747,5.747,0,0,1,5.691,5.674,5.748,5.748,0,0,1-5.8,5.691A5.745,5.745,0,0,1-2095.845,894.428Z" fill="#6c97ce"/><path d="M-1999.12,909.9c-.007-4.7,4.489-8.524,10.043-8.533s10.061,3.8,10.068,8.5Zm4.286-15.623a5.747,5.747,0,0,1,5.8-5.691,5.747,5.747,0,0,1,5.691,5.675,5.746,5.746,0,0,1-5.8,5.69A5.746,5.746,0,0,1-1994.834,894.28Z" fill="#6c97ce"/><path d="M-1898.109,909.755c-.007-4.7,4.49-8.524,10.043-8.532s10.061,3.8,10.068,8.5Zm4.286-15.622a5.747,5.747,0,0,1,5.8-5.691,5.746,5.746,0,0,1,5.691,5.674,5.745,5.745,0,0,1-5.8,5.691A5.746,5.746,0,0,1-1893.823,894.133Z" fill="#6c97ce"/><path d="M-1923.361,909.792c-.007-4.7,4.489-8.524,10.043-8.532s10.06,3.8,10.067,8.5Zm4.286-15.622a5.745,5.745,0,0,1,5.8-5.691,5.745,5.745,0,0,1,5.69,5.674,5.746,5.746,0,0,1-5.8,5.691A5.745,5.745,0,0,1-1919.075,894.17Z" fill="#6c97ce"/><path d="M-1948.614,909.829c-.007-4.7,4.489-8.524,10.043-8.532s10.061,3.8,10.067,8.5Zm4.286-15.622a5.745,5.745,0,0,1,5.8-5.691,5.745,5.745,0,0,1,5.69,5.674,5.746,5.746,0,0,1-5.8,5.691A5.745,5.745,0,0,1-1944.328,894.207Z" fill="#6c97ce"/><path d="M-1973.867,909.866c-.007-4.7,4.489-8.524,10.043-8.532s10.061,3.8,10.068,8.5Zm4.286-15.622a5.746,5.746,0,0,1,5.8-5.691,5.746,5.746,0,0,1,5.691,5.674,5.748,5.748,0,0,1-5.8,5.691A5.747,5.747,0,0,1-1969.581,894.244Z" fill="#6c97ce"/><path d="M-1872.856,909.718c-.007-4.7,4.489-8.524,10.043-8.532s10.061,3.8,10.068,8.5Zm4.286-15.622a5.747,5.747,0,0,1,5.8-5.691,5.747,5.747,0,0,1,5.691,5.674,5.746,5.746,0,0,1-5.8,5.691A5.746,5.746,0,0,1-1868.57,894.1Z" fill="#6c97ce"/><path d="M-1771.845,909.571c-.006-4.7,4.49-8.524,10.044-8.532s10.06,3.8,10.067,8.5Zm4.286-15.622a5.746,5.746,0,0,1,5.8-5.691,5.745,5.745,0,0,1,5.69,5.674,5.746,5.746,0,0,1-5.8,5.691A5.747,5.747,0,0,1-1767.559,893.949Z" fill="#6c97ce"/><path d="M-1797.1,909.608c-.007-4.7,4.489-8.524,10.043-8.532s10.061,3.8,10.067,8.5Zm4.286-15.622a5.745,5.745,0,0,1,5.8-5.691,5.745,5.745,0,0,1,5.69,5.674,5.746,5.746,0,0,1-5.8,5.691A5.746,5.746,0,0,1-1792.811,893.986Z" fill="#6c97ce"/><path d="M-1822.35,909.645c-.007-4.7,4.489-8.524,10.043-8.532s10.061,3.8,10.068,8.5Zm4.286-15.623a5.745,5.745,0,0,1,5.8-5.69,5.746,5.746,0,0,1,5.691,5.674,5.747,5.747,0,0,1-5.8,5.691A5.747,5.747,0,0,1-1818.064,894.022Z" fill="#6c97ce"/><path d="M-1847.6,909.682c-.007-4.7,4.489-8.524,10.043-8.533s10.061,3.8,10.068,8.5Zm4.286-15.623a5.747,5.747,0,0,1,5.8-5.691,5.747,5.747,0,0,1,5.691,5.675,5.746,5.746,0,0,1-5.8,5.69A5.746,5.746,0,0,1-1843.317,894.059Z" fill="#6c97ce"/><path d="M-1746.592,909.534c-.007-4.7,4.489-8.524,10.043-8.532s10.061,3.8,10.068,8.5Zm4.286-15.622a5.747,5.747,0,0,1,5.8-5.691,5.746,5.746,0,0,1,5.691,5.674,5.746,5.746,0,0,1-5.8,5.691A5.746,5.746,0,0,1-1742.306,893.912Z" fill="#6c97ce"/><path d="M-2276.857,945.419c-.007-4.7,4.489-8.524,10.043-8.532s10.061,3.8,10.067,8.5Zm4.286-15.622a5.745,5.745,0,0,1,5.8-5.691,5.745,5.745,0,0,1,5.69,5.674,5.746,5.746,0,0,1-5.8,5.691A5.746,5.746,0,0,1-2272.571,929.8Z" fill="#6c97ce"/><path d="M-2302.11,945.456c-.007-4.7,4.489-8.524,10.043-8.532s10.061,3.8,10.068,8.5Zm4.286-15.622a5.745,5.745,0,0,1,5.8-5.691,5.746,5.746,0,0,1,5.691,5.674,5.747,5.747,0,0,1-5.8,5.691A5.747,5.747,0,0,1-2297.824,929.834Z" fill="#6c97ce"/><path d="M-2327.363,945.493c-.007-4.7,4.489-8.524,10.043-8.533s10.061,3.8,10.068,8.5Zm4.286-15.623a5.747,5.747,0,0,1,5.8-5.691,5.747,5.747,0,0,1,5.691,5.675,5.746,5.746,0,0,1-5.8,5.69A5.745,5.745,0,0,1-2323.077,929.87Z" fill="#6c97ce"/><path d="M-2352.616,945.529c-.007-4.7,4.489-8.524,10.043-8.532s10.061,3.8,10.068,8.5Zm4.286-15.622a5.748,5.748,0,0,1,5.8-5.691,5.747,5.747,0,0,1,5.691,5.674,5.746,5.746,0,0,1-5.8,5.691A5.746,5.746,0,0,1-2348.33,929.907Z" fill="#6c97ce"/><path d="M-2251.6,945.382c-.006-4.7,4.49-8.524,10.044-8.532s10.06,3.8,10.067,8.5Zm4.287-15.622a5.745,5.745,0,0,1,5.8-5.691,5.746,5.746,0,0,1,5.69,5.674,5.746,5.746,0,0,1-5.8,5.691A5.746,5.746,0,0,1-2247.318,929.76Z" fill="#6c97ce"/><path d="M-2150.593,945.235c-.007-4.7,4.489-8.524,10.043-8.532s10.061,3.8,10.068,8.5Zm4.286-15.623a5.744,5.744,0,0,1,5.8-5.69,5.746,5.746,0,0,1,5.691,5.674,5.748,5.748,0,0,1-5.8,5.691A5.747,5.747,0,0,1-2146.307,929.612Z" fill="#6c97ce"/><path d="M-2175.846,945.272c-.007-4.7,4.489-8.524,10.043-8.533s10.061,3.8,10.068,8.5Zm4.286-15.623a5.747,5.747,0,0,1,5.8-5.691,5.747,5.747,0,0,1,5.691,5.675,5.746,5.746,0,0,1-5.8,5.69A5.746,5.746,0,0,1-2171.56,929.649Z" fill="#6c97ce"/><path d="M-2201.1,945.308c-.007-4.7,4.489-8.524,10.043-8.532s10.061,3.8,10.068,8.5Zm4.286-15.622a5.747,5.747,0,0,1,5.8-5.691,5.746,5.746,0,0,1,5.691,5.674,5.745,5.745,0,0,1-5.8,5.691A5.746,5.746,0,0,1-2196.813,929.686Z" fill="#6c97ce"/><path d="M-2226.352,945.345c-.007-4.7,4.49-8.524,10.043-8.532s10.061,3.8,10.068,8.5Zm4.286-15.622a5.747,5.747,0,0,1,5.8-5.691,5.746,5.746,0,0,1,5.691,5.674,5.745,5.745,0,0,1-5.8,5.691A5.746,5.746,0,0,1-2222.066,929.723Z" fill="#6c97ce"/><path d="M-2125.34,945.2c-.007-4.7,4.489-8.524,10.043-8.532s10.061,3.8,10.067,8.5Zm4.286-15.622a5.745,5.745,0,0,1,5.8-5.691,5.745,5.745,0,0,1,5.69,5.674,5.746,5.746,0,0,1-5.8,5.691A5.746,5.746,0,0,1-2121.054,929.576Z" fill="#6c97ce"/><path d="M-2049.582,945.087c-.007-4.7,4.489-8.524,10.043-8.532s10.061,3.8,10.068,8.5Zm4.286-15.622a5.748,5.748,0,0,1,5.8-5.691,5.746,5.746,0,0,1,5.691,5.674,5.746,5.746,0,0,1-5.8,5.691A5.746,5.746,0,0,1-2045.3,929.465Z" fill="#6c97ce"/><path d="M-2074.835,945.124c-.007-4.7,4.489-8.524,10.043-8.532s10.061,3.8,10.068,8.5Zm4.286-15.622a5.747,5.747,0,0,1,5.8-5.691,5.746,5.746,0,0,1,5.691,5.674,5.746,5.746,0,0,1-5.8,5.691A5.746,5.746,0,0,1-2070.549,929.5Z" fill="#6c97ce"/><path d="M-2100.088,945.161c-.006-4.7,4.49-8.524,10.044-8.532s10.06,3.8,10.067,8.5Zm4.286-15.622a5.746,5.746,0,0,1,5.8-5.691,5.745,5.745,0,0,1,5.69,5.674,5.746,5.746,0,0,1-5.8,5.691A5.747,5.747,0,0,1-2095.8,929.539Z" fill="#6c97ce"/></g><g transform="translate(31 67.698)"><path d="M-2024.329,945.05c-.007-4.7,4.489-8.524,10.043-8.532s10.061,3.8,10.068,8.5Zm4.286-15.622a5.747,5.747,0,0,1,5.8-5.691,5.747,5.747,0,0,1,5.691,5.674,5.746,5.746,0,0,1-5.8,5.691A5.746,5.746,0,0,1-2020.043,929.428Z" transform="translate(2774 374.984)" fill="#ffd964"/><path d="M-1999.076,945.014c-.007-4.7,4.489-8.524,10.043-8.533s10.061,3.8,10.068,8.5Zm4.286-15.623a5.746,5.746,0,0,1,5.8-5.691,5.747,5.747,0,0,1,5.691,5.675,5.746,5.746,0,0,1-5.8,5.69A5.746,5.746,0,0,1-1994.79,929.391Z" transform="translate(2774 374.984)" fill="#ffd964"/><path d="M-1898.065,944.866c-.007-4.7,4.489-8.524,10.043-8.532s10.061,3.8,10.068,8.5Zm4.286-15.622a5.748,5.748,0,0,1,5.8-5.691,5.746,5.746,0,0,1,5.691,5.674,5.746,5.746,0,0,1-5.8,5.691A5.746,5.746,0,0,1-1893.779,929.244Z" transform="translate(2774 374.984)" fill="#ffd964"/><path d="M-1923.318,944.9c-.007-4.7,4.489-8.524,10.043-8.532s10.061,3.8,10.068,8.5Zm4.286-15.622a5.746,5.746,0,0,1,5.8-5.691,5.746,5.746,0,0,1,5.691,5.674,5.747,5.747,0,0,1-5.8,5.691A5.746,5.746,0,0,1-1919.032,929.281Z" transform="translate(2774 374.984)" fill="#ffd964"/><path d="M-1948.571,944.94c-.006-4.7,4.49-8.524,10.044-8.532s10.06,3.8,10.067,8.5Zm4.286-15.622a5.746,5.746,0,0,1,5.8-5.691,5.746,5.746,0,0,1,5.69,5.674,5.746,5.746,0,0,1-5.8,5.691A5.748,5.748,0,0,1-1944.285,929.318Z" transform="translate(2774 374.984)" fill="#ffd964"/><path d="M-1973.823,944.977c-.007-4.7,4.489-8.524,10.043-8.532s10.061,3.8,10.067,8.5Zm4.286-15.623a5.745,5.745,0,0,1,5.8-5.69,5.745,5.745,0,0,1,5.69,5.674,5.746,5.746,0,0,1-5.8,5.691A5.746,5.746,0,0,1-1969.537,929.354Z" transform="translate(2774 374.984)" fill="#ffd964"/><path d="M-1872.812,944.829c-.007-4.7,4.489-8.524,10.043-8.532s10.061,3.8,10.068,8.5Zm4.286-15.622a5.747,5.747,0,0,1,5.8-5.691,5.746,5.746,0,0,1,5.691,5.674,5.746,5.746,0,0,1-5.8,5.691A5.746,5.746,0,0,1-1868.526,929.207Z" transform="translate(2774 374.984)" fill="#ffd964"/><path d="M-1771.8,944.682c-.007-4.7,4.489-8.524,10.043-8.532s10.061,3.8,10.068,8.5Zm4.286-15.622a5.746,5.746,0,0,1,5.8-5.691,5.746,5.746,0,0,1,5.691,5.674,5.747,5.747,0,0,1-5.8,5.691A5.746,5.746,0,0,1-1767.515,929.06Z" transform="translate(2774 374.984)" fill="#ffd964"/><path d="M-1797.054,944.719c-.006-4.7,4.49-8.524,10.043-8.532s10.061,3.8,10.068,8.5Zm4.286-15.622a5.746,5.746,0,0,1,5.8-5.691,5.746,5.746,0,0,1,5.691,5.674,5.746,5.746,0,0,1-5.8,5.691A5.747,5.747,0,0,1-1792.768,929.1Z" transform="translate(2774 374.984)" fill="#ffd964"/><path d="M-1822.306,944.756c-.007-4.7,4.489-8.524,10.043-8.532s10.061,3.8,10.067,8.5Zm4.286-15.623a5.745,5.745,0,0,1,5.8-5.69,5.745,5.745,0,0,1,5.69,5.674,5.746,5.746,0,0,1-5.8,5.691A5.746,5.746,0,0,1-1818.02,929.133Z" transform="translate(2774 374.984)" fill="#ffd964"/><path d="M-1847.559,944.793c-.007-4.7,4.489-8.525,10.043-8.533s10.061,3.8,10.068,8.5Zm4.286-15.623a5.746,5.746,0,0,1,5.8-5.691,5.748,5.748,0,0,1,5.691,5.674,5.746,5.746,0,0,1-5.8,5.691A5.746,5.746,0,0,1-1843.273,929.17Z" transform="translate(2774 374.984)" fill="#ffd964"/><path d="M-1746.548,944.645c-.007-4.7,4.489-8.524,10.043-8.532s10.061,3.8,10.068,8.5Zm4.286-15.622a5.746,5.746,0,0,1,5.8-5.691,5.746,5.746,0,0,1,5.691,5.674,5.747,5.747,0,0,1-5.8,5.691A5.746,5.746,0,0,1-1742.262,929.023Z" transform="translate(2774 374.984)" fill="#ffd964"/><g transform="translate(2774 374.984)"><path d="M-2276.813,980.53c-.006-4.7,4.49-8.524,10.044-8.532s10.06,3.8,10.067,8.5Zm4.286-15.622a5.747,5.747,0,0,1,5.8-5.691,5.746,5.746,0,0,1,5.69,5.674,5.746,5.746,0,0,1-5.8,5.691A5.748,5.748,0,0,1-2272.527,964.908Z" fill="#ffd964"/><path d="M-2302.065,980.567c-.007-4.7,4.489-8.524,10.043-8.532s10.061,3.8,10.067,8.5Zm4.286-15.623a5.745,5.745,0,0,1,5.8-5.69,5.745,5.745,0,0,1,5.69,5.674,5.746,5.746,0,0,1-5.8,5.691A5.746,5.746,0,0,1-2297.779,964.944Z" fill="#ffd964"/><path d="M-2327.318,980.6c-.007-4.7,4.489-8.524,10.043-8.533s10.061,3.8,10.068,8.5Zm4.286-15.623a5.746,5.746,0,0,1,5.8-5.691,5.747,5.747,0,0,1,5.691,5.675,5.746,5.746,0,0,1-5.8,5.69A5.746,5.746,0,0,1-2323.032,964.981Z" fill="#ffd964"/><path d="M-2352.571,980.64c-.007-4.7,4.489-8.524,10.043-8.532s10.061,3.8,10.068,8.5Zm4.286-15.622a5.747,5.747,0,0,1,5.8-5.691,5.747,5.747,0,0,1,5.691,5.674,5.746,5.746,0,0,1-5.8,5.691A5.746,5.746,0,0,1-2348.285,965.018Z" fill="#ffd964"/><path d="M-2251.56,980.493c-.007-4.7,4.489-8.524,10.043-8.532s10.061,3.8,10.068,8.5Zm4.286-15.622a5.746,5.746,0,0,1,5.8-5.691,5.746,5.746,0,0,1,5.691,5.674,5.747,5.747,0,0,1-5.8,5.691A5.746,5.746,0,0,1-2247.274,964.871Z" fill="#ffd964"/><path d="M-2150.548,980.346c-.007-4.7,4.489-8.524,10.043-8.532s10.061,3.8,10.067,8.5Zm4.286-15.623a5.746,5.746,0,0,1,5.8-5.691,5.746,5.746,0,0,1,5.69,5.675,5.746,5.746,0,0,1-5.8,5.691A5.746,5.746,0,0,1-2146.262,964.723Z" fill="#ffd964"/><path d="M-2175.8,980.383c-.007-4.7,4.489-8.525,10.043-8.533s10.061,3.8,10.068,8.5Zm4.286-15.623a5.746,5.746,0,0,1,5.8-5.691,5.748,5.748,0,0,1,5.691,5.674,5.746,5.746,0,0,1-5.8,5.691A5.746,5.746,0,0,1-2171.515,964.76Z" fill="#ffd964"/><path d="M-2201.054,980.419c-.007-4.7,4.489-8.524,10.043-8.532s10.061,3.8,10.068,8.5Zm4.286-15.622a5.747,5.747,0,0,1,5.8-5.691,5.746,5.746,0,0,1,5.691,5.674,5.746,5.746,0,0,1-5.8,5.691A5.746,5.746,0,0,1-2196.768,964.8Z" fill="#ffd964"/><path d="M-2226.307,980.456c-.007-4.7,4.489-8.524,10.043-8.532s10.061,3.8,10.068,8.5Zm4.286-15.622a5.747,5.747,0,0,1,5.8-5.691,5.746,5.746,0,0,1,5.691,5.674,5.747,5.747,0,0,1-5.8,5.691A5.746,5.746,0,0,1-2222.021,964.834Z" fill="#ffd964"/><path d="M-2125.3,980.309c-.006-4.7,4.49-8.524,10.043-8.532s10.061,3.8,10.068,8.5Zm4.286-15.622a5.746,5.746,0,0,1,5.8-5.691,5.746,5.746,0,0,1,5.691,5.674,5.746,5.746,0,0,1-5.8,5.691A5.747,5.747,0,0,1-2121.01,964.687Z" fill="#ffd964"/><path d="M-2024.284,980.161c-.007-4.7,4.489-8.524,10.043-8.532s10.061,3.8,10.068,8.5Zm4.286-15.622a5.746,5.746,0,0,1,5.8-5.691,5.748,5.748,0,0,1,5.691,5.674,5.746,5.746,0,0,1-5.8,5.691A5.745,5.745,0,0,1-2020,964.539Z" fill="#ffd964"/><path d="M-2049.537,980.2c-.007-4.7,4.489-8.524,10.043-8.532s10.061,3.8,10.068,8.5Zm4.286-15.622a5.747,5.747,0,0,1,5.8-5.691,5.746,5.746,0,0,1,5.691,5.674,5.746,5.746,0,0,1-5.8,5.691A5.746,5.746,0,0,1-2045.251,964.576Z" fill="#ffd964"/><path d="M-2074.79,980.235c-.007-4.7,4.489-8.524,10.043-8.532s10.061,3.8,10.068,8.5Zm4.286-15.622a5.746,5.746,0,0,1,5.8-5.691,5.746,5.746,0,0,1,5.691,5.674,5.747,5.747,0,0,1-5.8,5.691A5.746,5.746,0,0,1-2070.5,964.613Z" fill="#ffd964"/><path d="M-2100.043,980.272c-.007-4.7,4.489-8.524,10.043-8.532s10.061,3.8,10.068,8.5Zm4.286-15.622a5.746,5.746,0,0,1,5.8-5.691,5.746,5.746,0,0,1,5.691,5.674,5.747,5.747,0,0,1-5.8,5.691A5.746,5.746,0,0,1-2095.757,964.65Z" fill="#ffd964"/><path d="M-1999.031,980.125c-.007-4.7,4.489-8.524,10.043-8.533s10.06,3.8,10.067,8.5Zm4.286-15.623a5.746,5.746,0,0,1,5.8-5.691,5.746,5.746,0,0,1,5.69,5.675,5.745,5.745,0,0,1-5.8,5.69A5.745,5.745,0,0,1-1994.745,964.5Z" fill="#ffd964"/><path d="M-1898.02,979.977c-.007-4.7,4.489-8.524,10.043-8.532s10.061,3.8,10.068,8.5Zm4.286-15.622a5.747,5.747,0,0,1,5.8-5.691,5.746,5.746,0,0,1,5.691,5.674,5.747,5.747,0,0,1-5.8,5.691A5.746,5.746,0,0,1-1893.734,964.355Z" fill="#ffd964"/><path d="M-1923.273,980.014c-.007-4.7,4.489-8.524,10.043-8.532s10.061,3.8,10.068,8.5Zm4.286-15.622a5.746,5.746,0,0,1,5.8-5.691,5.746,5.746,0,0,1,5.691,5.674,5.747,5.747,0,0,1-5.8,5.691A5.746,5.746,0,0,1-1918.987,964.392Z" fill="#ffd964"/><path d="M-1948.526,980.051c-.007-4.7,4.489-8.524,10.043-8.532s10.061,3.8,10.068,8.5Zm4.286-15.622a5.746,5.746,0,0,1,5.8-5.691,5.746,5.746,0,0,1,5.691,5.674,5.747,5.747,0,0,1-5.8,5.691A5.747,5.747,0,0,1-1944.24,964.429Z" fill="#ffd964"/><path d="M-1973.779,980.088c-.007-4.7,4.49-8.524,10.043-8.532s10.061,3.8,10.068,8.5Zm4.286-15.623a5.746,5.746,0,0,1,5.8-5.69,5.746,5.746,0,0,1,5.691,5.674,5.746,5.746,0,0,1-5.8,5.691A5.747,5.747,0,0,1-1969.493,964.465Z" fill="#ffd964"/><path d="M-1872.767,979.94c-.007-4.7,4.489-8.524,10.043-8.532s10.061,3.8,10.067,8.5Zm4.286-15.622a5.746,5.746,0,0,1,5.8-5.691,5.745,5.745,0,0,1,5.69,5.674,5.745,5.745,0,0,1-5.8,5.691A5.745,5.745,0,0,1-1868.481,964.318Z" fill="#ffd964"/><path d="M-1771.756,979.793c-.007-4.7,4.489-8.524,10.043-8.532s10.061,3.8,10.068,8.5Zm4.286-15.622a5.746,5.746,0,0,1,5.8-5.691,5.746,5.746,0,0,1,5.691,5.674,5.747,5.747,0,0,1-5.8,5.691A5.746,5.746,0,0,1-1767.47,964.171Z" fill="#ffd964"/><path d="M-1797.009,979.83c-.007-4.7,4.489-8.524,10.043-8.532s10.061,3.8,10.068,8.5Zm4.286-15.622a5.746,5.746,0,0,1,5.8-5.691,5.746,5.746,0,0,1,5.691,5.674,5.747,5.747,0,0,1-5.8,5.691A5.747,5.747,0,0,1-1792.723,964.208Z" fill="#ffd964"/><path d="M-1822.262,979.867c-.007-4.7,4.49-8.524,10.043-8.532s10.061,3.8,10.068,8.5Zm4.286-15.623a5.747,5.747,0,0,1,5.8-5.691,5.747,5.747,0,0,1,5.691,5.675,5.747,5.747,0,0,1-5.8,5.691A5.747,5.747,0,0,1-1817.976,964.244Z" fill="#ffd964"/><path d="M-1847.515,979.9c-.006-4.7,4.49-8.525,10.044-8.533s10.06,3.8,10.067,8.5Zm4.287-15.623a5.746,5.746,0,0,1,5.8-5.691,5.746,5.746,0,0,1,5.69,5.674,5.745,5.745,0,0,1-5.8,5.691A5.745,5.745,0,0,1-1843.228,964.281Z" fill="#ffd964"/><path d="M-1746.5,979.756c-.007-4.7,4.489-8.524,10.043-8.532s10.061,3.8,10.068,8.5Zm4.286-15.622a5.746,5.746,0,0,1,5.8-5.691,5.746,5.746,0,0,1,5.691,5.674,5.747,5.747,0,0,1-5.8,5.691A5.746,5.746,0,0,1-1742.217,964.134Z" fill="#ffd964"/></g></g><path d="M38.813,77H2.883V69.441L15.785,56.4q5.73-5.871,7.488-8.139a17.9,17.9,0,0,0,2.531-4.2,10.7,10.7,0,0,0,.773-4.008,5.84,5.84,0,0,0-1.705-4.605,6.611,6.611,0,0,0-4.553-1.512,13.092,13.092,0,0,0-5.8,1.371,29.936,29.936,0,0,0-5.871,3.9l-5.906-7a38.531,38.531,0,0,1,6.293-4.57,23.1,23.1,0,0,1,5.449-2.057,27.921,27.921,0,0,1,6.609-.721A19.57,19.57,0,0,1,29.6,26.621a13.573,13.573,0,0,1,5.73,4.922,13.075,13.075,0,0,1,2.039,7.242,17.726,17.726,0,0,1-1.248,6.662,25.579,25.579,0,0,1-3.867,6.381,94.542,94.542,0,0,1-9.229,9.316l-6.609,6.223v.492H38.813ZM52.172,41a20.96,20.96,0,0,0,.791,6.662q.791,2.2,2.549,2.2,3.375,0,3.375-8.859,0-8.789-3.375-8.789-1.758,0-2.549,2.162A20.615,20.615,0,0,0,52.172,41Zm15.574-.07q0,8.086-3.129,12.146t-9.176,4.061a10.6,10.6,0,0,1-8.965-4.166Q43.313,48.8,43.313,40.93q0-16.066,12.129-16.066,5.941,0,9.123,4.166T67.746,40.93ZM91.934,25.6,63.422,77H54.984L83.5,25.6Zm-3.762,35.93a20.96,20.96,0,0,0,.791,6.662q.791,2.2,2.549,2.2,3.375,0,3.375-8.859,0-8.789-3.375-8.789-1.758,0-2.549,2.162A20.615,20.615,0,0,0,88.172,61.531Zm15.574-.07q0,8.051-3.129,12.111t-9.176,4.061a10.6,10.6,0,0,1-8.965-4.166Q79.313,69.3,79.313,61.461q0-16.066,12.129-16.066,5.941,0,9.123,4.166T103.746,61.461Z" transform="translate(313.597 1269.829)" fill="#2e3e5a"/><path d="M9.313,13.443a5.019,5.019,0,0,1-1.121,3.474,3.947,3.947,0,0,1-3.1,1.249,4.1,4.1,0,0,1-2.167-.573A3.78,3.78,0,0,1,1.469,15.95a5.728,5.728,0,0,1-.515-2.507A5.011,5.011,0,0,1,2.067,9.977,3.934,3.934,0,0,1,5.155,8.736a3.849,3.849,0,0,1,3.034,1.27A5,5,0,0,1,9.313,13.443Zm-6.931,0a4.318,4.318,0,0,0,.7,2.656,2.42,2.42,0,0,0,2.05.913A2.436,2.436,0,0,0,7.184,16.1a4.3,4.3,0,0,0,.7-2.66,4.227,4.227,0,0,0-.7-2.635,2.464,2.464,0,0,0-2.071-.9,2.425,2.425,0,0,0-2.042.888A4.274,4.274,0,0,0,2.382,13.443ZM15.83,9.973H13.514V18H12.136V9.973H10.509V9.351l1.627-.5V8.346q0-3.354,2.93-3.354a6.03,6.03,0,0,1,1.693.291l-.357,1.1a4.558,4.558,0,0,0-1.361-.257,1.326,1.326,0,0,0-1.154.519,2.9,2.9,0,0,0-.374,1.664V8.9H15.83ZM23.2,8.9v5.9a2.374,2.374,0,0,0,.506,1.66,2.063,2.063,0,0,0,1.585.548,2.587,2.587,0,0,0,2.088-.78,3.936,3.936,0,0,0,.66-2.548V8.9h1.378V18H28.281l-.2-1.22h-.075a2.746,2.746,0,0,1-1.175,1.029,3.948,3.948,0,0,1-1.714.357,3.478,3.478,0,0,1-2.486-.789,3.357,3.357,0,0,1-.826-2.523V8.9Zm15.008,6.616a2.279,2.279,0,0,1-.946,1.959,4.448,4.448,0,0,1-2.656.689,5.776,5.776,0,0,1-2.822-.573V16.315a6.825,6.825,0,0,0,1.407.523,5.875,5.875,0,0,0,1.448.191,3.285,3.285,0,0,0,1.66-.344,1.186,1.186,0,0,0,.12-1.959,7.247,7.247,0,0,0-1.8-.892,9.745,9.745,0,0,1-1.805-.826,2.466,2.466,0,0,1-.8-.8,2.089,2.089,0,0,1-.261-1.071,2.041,2.041,0,0,1,.9-1.756,4.216,4.216,0,0,1,2.482-.643,7.262,7.262,0,0,1,2.872.6l-.49,1.121a6.593,6.593,0,0,0-2.482-.564,2.855,2.855,0,0,0-1.478.307.95.95,0,0,0-.5.847,1.031,1.031,0,0,0,.187.623,1.843,1.843,0,0,0,.6.49,13.449,13.449,0,0,0,1.594.672,5.954,5.954,0,0,1,2.187,1.187A2.093,2.093,0,0,1,38.208,15.518Zm6.084,2.648a4.18,4.18,0,0,1-3.183-1.229,4.756,4.756,0,0,1-1.166-3.412,5.274,5.274,0,0,1,1.083-3.495,3.6,3.6,0,0,1,2.909-1.295,3.431,3.431,0,0,1,2.706,1.125,4.311,4.311,0,0,1,1,2.968V13.7H41.371a3.606,3.606,0,0,0,.809,2.432,2.8,2.8,0,0,0,2.162.83,7.328,7.328,0,0,0,2.905-.614v1.229a7.292,7.292,0,0,1-1.382.452A7.767,7.767,0,0,1,44.293,18.166ZM43.919,9.89a2.25,2.25,0,0,0-1.747.714A3.291,3.291,0,0,0,41.4,12.58h4.756a3.03,3.03,0,0,0-.581-2A2.045,2.045,0,0,0,43.919,9.89ZM54.138,8.736a5.392,5.392,0,0,1,1.087.1l-.191,1.278a4.694,4.694,0,0,0-1-.125,2.425,2.425,0,0,0-1.888.9,3.269,3.269,0,0,0-.784,2.233V18H49.987V8.9h1.137l.158,1.685h.066a4,4,0,0,1,1.22-1.37A2.747,2.747,0,0,1,54.138,8.736ZM62.8,15.518a2.279,2.279,0,0,1-.946,1.959,4.448,4.448,0,0,1-2.656.689,5.776,5.776,0,0,1-2.822-.573V16.315a6.825,6.825,0,0,0,1.407.523,5.875,5.875,0,0,0,1.448.191,3.285,3.285,0,0,0,1.66-.344,1.186,1.186,0,0,0,.12-1.959,7.247,7.247,0,0,0-1.8-.892,9.745,9.745,0,0,1-1.805-.826,2.466,2.466,0,0,1-.8-.8,2.089,2.089,0,0,1-.261-1.071,2.041,2.041,0,0,1,.9-1.756,4.216,4.216,0,0,1,2.482-.643,7.262,7.262,0,0,1,2.872.6l-.49,1.121a6.593,6.593,0,0,0-2.482-.564,2.855,2.855,0,0,0-1.478.307.95.95,0,0,0-.5.847,1.031,1.031,0,0,0,.187.623,1.843,1.843,0,0,0,.6.49,13.449,13.449,0,0,0,1.594.672,5.954,5.954,0,0,1,2.187,1.187A2.093,2.093,0,0,1,62.8,15.518ZM73.553,9.973H71.237V18H69.859V9.973H68.232V9.351l1.627-.5V8.346q0-3.354,2.93-3.354a6.03,6.03,0,0,1,1.693.291l-.357,1.1a4.558,4.558,0,0,0-1.361-.257,1.326,1.326,0,0,0-1.154.519,2.9,2.9,0,0,0-.374,1.664V8.9h2.316ZM76.591,18H75.213V8.9h1.378ZM75.1,6.437a.915.915,0,0,1,.232-.693.86.86,0,0,1,1.154,0,.9.9,0,0,1,.241.689.913.913,0,0,1-.241.693.843.843,0,0,1-1.154,0A.932.932,0,0,1,75.1,6.437ZM85.739,18V12.115a2.374,2.374,0,0,0-.506-1.66,2.063,2.063,0,0,0-1.585-.548,2.615,2.615,0,0,0-2.092.772,3.9,3.9,0,0,0-.664,2.548V18H79.513V8.9h1.121l.224,1.245h.066a2.814,2.814,0,0,1,1.187-1.042,3.857,3.857,0,0,1,1.7-.369,3.456,3.456,0,0,1,2.474.793,3.374,3.374,0,0,1,.83,2.536V18Zm10.4-1.22h-.075a3.238,3.238,0,0,1-2.855,1.386,3.378,3.378,0,0,1-2.777-1.22,5.371,5.371,0,0,1-.992-3.47,5.462,5.462,0,0,1,1-3.495,3.352,3.352,0,0,1,2.772-1.245,3.308,3.308,0,0,1,2.839,1.345h.108L96.1,9.425l-.033-.639v-3.7h1.378V18H96.322Zm-2.756.232a2.509,2.509,0,0,0,2.046-.768,3.88,3.88,0,0,0,.635-2.478v-.291a4.565,4.565,0,0,0-.643-2.76,2.443,2.443,0,0,0-2.054-.826,2.109,2.109,0,0,0-1.855.942,4.685,4.685,0,0,0-.643,2.66,4.491,4.491,0,0,0,.639,2.631A2.165,2.165,0,0,0,93.384,17.012ZM4.4,39.029a4.5,4.5,0,0,0,.706-.054,4.567,4.567,0,0,0,.54-.112v1.054a2.519,2.519,0,0,1-.66.178,4.956,4.956,0,0,1-.784.071q-2.64,0-2.64-2.781V31.973H.257v-.664l1.3-.573.581-1.942h.8V30.9h2.64v1.071H2.938v5.354a1.842,1.842,0,0,0,.39,1.262A1.358,1.358,0,0,0,4.4,39.029ZM13.688,40V34.115a2.374,2.374,0,0,0-.506-1.66,2.063,2.063,0,0,0-1.585-.548,2.6,2.6,0,0,0-2.1.78,3.952,3.952,0,0,0-.66,2.557V40H7.462V27.084H8.84v3.91a8.519,8.519,0,0,1-.066,1.17h.083a2.81,2.81,0,0,1,1.158-1.033,3.765,3.765,0,0,1,1.714-.378,3.51,3.51,0,0,1,2.5.793,3.338,3.338,0,0,1,.834,2.519V40Zm8.052.166a4.18,4.18,0,0,1-3.183-1.229,4.756,4.756,0,0,1-1.166-3.412,5.274,5.274,0,0,1,1.083-3.495,3.6,3.6,0,0,1,2.909-1.295,3.431,3.431,0,0,1,2.706,1.125,4.311,4.311,0,0,1,1,2.968V35.7H18.818a3.606,3.606,0,0,0,.809,2.432,2.8,2.8,0,0,0,2.162.83,7.328,7.328,0,0,0,2.905-.614v1.229a7.292,7.292,0,0,1-1.382.452A7.767,7.767,0,0,1,21.74,40.166Zm-.374-8.276a2.25,2.25,0,0,0-1.747.714,3.291,3.291,0,0,0-.768,1.976h4.756a3.03,3.03,0,0,0-.581-2A2.045,2.045,0,0,0,21.366,31.89Zm16.353,5.628a2.279,2.279,0,0,1-.946,1.959,4.448,4.448,0,0,1-2.656.689,5.776,5.776,0,0,1-2.822-.573V38.315a6.825,6.825,0,0,0,1.407.523,5.875,5.875,0,0,0,1.448.191,3.285,3.285,0,0,0,1.66-.344,1.186,1.186,0,0,0,.12-1.959,7.247,7.247,0,0,0-1.8-.892,9.745,9.745,0,0,1-1.805-.826,2.466,2.466,0,0,1-.8-.8,2.089,2.089,0,0,1-.261-1.071,2.041,2.041,0,0,1,.9-1.756,4.216,4.216,0,0,1,2.482-.643,7.262,7.262,0,0,1,2.872.6l-.49,1.121a6.593,6.593,0,0,0-2.482-.564,2.855,2.855,0,0,0-1.478.307.95.95,0,0,0-.5.847,1.031,1.031,0,0,0,.187.623,1.843,1.843,0,0,0,.6.49,13.448,13.448,0,0,0,1.594.672,5.954,5.954,0,0,1,2.187,1.187A2.093,2.093,0,0,1,37.719,37.518ZM41.338,40H39.96V30.9h1.378ZM39.844,28.437a.915.915,0,0,1,.232-.693.86.86,0,0,1,1.154,0,.9.9,0,0,1,.241.689.913.913,0,0,1-.241.693.843.843,0,0,1-1.154,0A.932.932,0,0,1,39.844,28.437ZM47.2,39.029a4.5,4.5,0,0,0,.706-.054,4.567,4.567,0,0,0,.54-.112v1.054a2.519,2.519,0,0,1-.66.178,4.956,4.956,0,0,1-.784.071q-2.64,0-2.64-2.781V31.973h-1.3v-.664l1.3-.573.581-1.942h.8V30.9h2.64v1.071h-2.64v5.354a1.842,1.842,0,0,0,.39,1.262A1.358,1.358,0,0,0,47.2,39.029ZM54.1,40.166a4.18,4.18,0,0,1-3.183-1.229,4.756,4.756,0,0,1-1.166-3.412,5.274,5.274,0,0,1,1.083-3.495,3.6,3.6,0,0,1,2.909-1.295,3.431,3.431,0,0,1,2.706,1.125,4.311,4.311,0,0,1,1,2.968V35.7H51.183a3.606,3.606,0,0,0,.809,2.432,2.8,2.8,0,0,0,2.162.83,7.328,7.328,0,0,0,2.905-.614v1.229a7.292,7.292,0,0,1-1.382.452A7.767,7.767,0,0,1,54.1,40.166Zm-.374-8.276a2.25,2.25,0,0,0-1.747.714,3.291,3.291,0,0,0-.768,1.976h4.756a3.03,3.03,0,0,0-.581-2A2.045,2.045,0,0,0,53.731,31.89ZM70.44,40V34.115a2.374,2.374,0,0,0-.506-1.66,2.063,2.063,0,0,0-1.585-.548,2.6,2.6,0,0,0-2.1.78,3.952,3.952,0,0,0-.66,2.557V40H64.215V27.084h1.378v3.91a8.518,8.518,0,0,1-.066,1.17h.083a2.81,2.81,0,0,1,1.158-1.033,3.765,3.765,0,0,1,1.714-.378,3.51,3.51,0,0,1,2.5.793,3.338,3.338,0,0,1,.834,2.519V40Zm9.8,0-.274-1.295H79.9a3.828,3.828,0,0,1-1.357,1.158,4.137,4.137,0,0,1-1.689.3,3.039,3.039,0,0,1-2.121-.7,2.543,2.543,0,0,1-.768-1.984q0-2.756,4.408-2.889l1.544-.05v-.564a2.307,2.307,0,0,0-.461-1.581,1.9,1.9,0,0,0-1.473-.51,6,6,0,0,0-2.573.7l-.423-1.054a6.475,6.475,0,0,1,1.473-.573,6.381,6.381,0,0,1,1.606-.208,3.465,3.465,0,0,1,2.411.722,3.014,3.014,0,0,1,.784,2.316V40Zm-3.113-.971a2.8,2.8,0,0,0,2.021-.706,2.61,2.61,0,0,0,.735-1.976v-.822l-1.378.058a5.012,5.012,0,0,0-2.37.51,1.539,1.539,0,0,0-.726,1.407,1.42,1.42,0,0,0,.452,1.137A1.878,1.878,0,0,0,77.131,39.029Zm11.123-8.292a5.392,5.392,0,0,1,1.087.1l-.191,1.278a4.694,4.694,0,0,0-1-.125,2.425,2.425,0,0,0-1.888.9,3.269,3.269,0,0,0-.784,2.233V40H84.1V30.9h1.137l.158,1.685h.066a4,4,0,0,1,1.22-1.37A2.747,2.747,0,0,1,88.254,30.736ZM96.9,38.78H96.82a3.238,3.238,0,0,1-2.855,1.386,3.378,3.378,0,0,1-2.777-1.22,5.371,5.371,0,0,1-.992-3.47,5.462,5.462,0,0,1,1-3.495,3.352,3.352,0,0,1,2.772-1.245A3.308,3.308,0,0,1,96.8,32.081h.108l-.058-.656-.033-.639v-3.7H98.2V40H97.078Zm-2.756.232a2.509,2.509,0,0,0,2.046-.768,3.88,3.88,0,0,0,.635-2.478v-.291a4.565,4.565,0,0,0-.643-2.76,2.443,2.443,0,0,0-2.054-.826,2.109,2.109,0,0,0-1.855.942,4.685,4.685,0,0,0-.643,2.66,4.491,4.491,0,0,0,.639,2.631A2.165,2.165,0,0,0,94.139,39.012ZM4.4,61.029a4.5,4.5,0,0,0,.706-.054,4.567,4.567,0,0,0,.54-.112v1.054a2.519,2.519,0,0,1-.66.178,4.956,4.956,0,0,1-.784.071q-2.64,0-2.64-2.781V53.973H.257v-.664l1.3-.573.581-1.942h.8V52.9h2.64v1.071H2.938v5.354a1.842,1.842,0,0,0,.39,1.262A1.358,1.358,0,0,0,4.4,61.029Zm10.916-3.586a5.019,5.019,0,0,1-1.121,3.474,3.947,3.947,0,0,1-3.1,1.249,4.1,4.1,0,0,1-2.167-.573A3.78,3.78,0,0,1,7.471,59.95a5.728,5.728,0,0,1-.515-2.507,5.011,5.011,0,0,1,1.112-3.466,3.934,3.934,0,0,1,3.088-1.241,3.849,3.849,0,0,1,3.034,1.27A5,5,0,0,1,15.315,57.443Zm-6.931,0a4.318,4.318,0,0,0,.7,2.656,2.42,2.42,0,0,0,2.05.913,2.436,2.436,0,0,0,2.054-.909,4.3,4.3,0,0,0,.7-2.66,4.227,4.227,0,0,0-.7-2.635,2.464,2.464,0,0,0-2.071-.9,2.425,2.425,0,0,0-2.042.888A4.274,4.274,0,0,0,8.384,57.443ZM28.372,62V56.115a2.374,2.374,0,0,0-.506-1.66,2.063,2.063,0,0,0-1.585-.548,2.615,2.615,0,0,0-2.092.772,3.9,3.9,0,0,0-.664,2.548V62H22.146V52.9h1.121l.224,1.245h.066a2.814,2.814,0,0,1,1.187-1.042,3.857,3.857,0,0,1,1.7-.369,3.456,3.456,0,0,1,2.474.793,3.374,3.374,0,0,1,.83,2.536V62Zm9.8,0L37.9,60.705h-.066a3.828,3.828,0,0,1-1.357,1.158,4.137,4.137,0,0,1-1.689.3,3.039,3.039,0,0,1-2.121-.7,2.543,2.543,0,0,1-.768-1.984q0-2.756,4.408-2.889l1.544-.05v-.564a2.307,2.307,0,0,0-.461-1.581,1.9,1.9,0,0,0-1.473-.51,6,6,0,0,0-2.573.7l-.423-1.054a6.475,6.475,0,0,1,1.473-.573A6.381,6.381,0,0,1,36,52.753a3.465,3.465,0,0,1,2.411.722,3.014,3.014,0,0,1,.784,2.316V62Zm-3.113-.971a2.8,2.8,0,0,0,2.021-.706,2.61,2.61,0,0,0,.735-1.976v-.822l-1.378.058a5.012,5.012,0,0,0-2.37.51,1.539,1.539,0,0,0-.726,1.407,1.42,1.42,0,0,0,.452,1.137A1.878,1.878,0,0,0,35.063,61.029ZM44.027,62l-3.453-9.1h1.478l1.959,5.4a25.538,25.538,0,0,1,.78,2.457h.066a18.558,18.558,0,0,1,.577-1.822q.486-1.382,2.179-6.031h1.478L45.638,62Zm7.9,0H50.552V52.9H51.93ZM50.436,50.437a.915.915,0,0,1,.232-.693.86.86,0,0,1,1.154,0,.9.9,0,0,1,.241.689.913.913,0,0,1-.241.693.843.843,0,0,1-1.154,0A.932.932,0,0,1,50.436,50.437ZM62.3,52.9v.872l-1.685.2a2.959,2.959,0,0,1,.6,1.818,2.689,2.689,0,0,1-.913,2.133,3.683,3.683,0,0,1-2.507.8,4.175,4.175,0,0,1-.764-.066,1.356,1.356,0,0,0-.88,1.17.6.6,0,0,0,.307.552,2.244,2.244,0,0,0,1.054.178h1.61a3.606,3.606,0,0,1,2.27.623,2.163,2.163,0,0,1,.793,1.81,2.583,2.583,0,0,1-1.212,2.3,6.486,6.486,0,0,1-3.536.793,4.831,4.831,0,0,1-2.752-.664,2.144,2.144,0,0,1-.967-1.876,2.107,2.107,0,0,1,.531-1.436,2.705,2.705,0,0,1,1.494-.822,1.441,1.441,0,0,1-.585-.49,1.3,1.3,0,0,1-.237-.772,1.465,1.465,0,0,1,.266-.872,2.793,2.793,0,0,1,.838-.722,2.457,2.457,0,0,1-1.15-.988,2.9,2.9,0,0,1-.444-1.594,2.944,2.944,0,0,1,.9-2.3,3.66,3.66,0,0,1,2.54-.809,4.619,4.619,0,0,1,1.287.166ZM55.042,63.527a1.235,1.235,0,0,0,.623,1.121,3.436,3.436,0,0,0,1.785.382,4.98,4.98,0,0,0,2.569-.519,1.588,1.588,0,0,0,.834-1.407,1.113,1.113,0,0,0-.457-1.025,3.546,3.546,0,0,0-1.718-.286H57.026a2.176,2.176,0,0,0-1.461.448A1.6,1.6,0,0,0,55.042,63.527Zm.747-7.711a1.852,1.852,0,0,0,.54,1.444,2.154,2.154,0,0,0,1.5.49,1.758,1.758,0,0,0,2.017-1.959,1.809,1.809,0,0,0-2.042-2.05,2.022,2.022,0,0,0-1.494.523A2.106,2.106,0,0,0,55.79,55.816ZM69.76,62l-.274-1.295h-.066a3.828,3.828,0,0,1-1.357,1.158,4.137,4.137,0,0,1-1.689.3,3.039,3.039,0,0,1-2.121-.7,2.543,2.543,0,0,1-.768-1.984q0-2.756,4.408-2.889l1.544-.05v-.564a2.307,2.307,0,0,0-.461-1.581,1.9,1.9,0,0,0-1.473-.51,6,6,0,0,0-2.573.7l-.423-1.054a6.475,6.475,0,0,1,1.473-.573,6.381,6.381,0,0,1,1.606-.208A3.465,3.465,0,0,1,70,53.475a3.014,3.014,0,0,1,.784,2.316V62Zm-3.113-.971a2.8,2.8,0,0,0,2.021-.706,2.61,2.61,0,0,0,.735-1.976v-.822l-1.378.058a5.012,5.012,0,0,0-2.37.51,1.539,1.539,0,0,0-.726,1.407,1.42,1.42,0,0,0,.452,1.137A1.878,1.878,0,0,0,66.647,61.029Zm9.911,0a4.5,4.5,0,0,0,.706-.054,4.567,4.567,0,0,0,.54-.112v1.054a2.519,2.519,0,0,1-.66.178,4.956,4.956,0,0,1-.784.071q-2.64,0-2.64-2.781V53.973h-1.3v-.664l1.3-.573.581-1.942h.8V52.9h2.64v1.071H75.1v5.354a1.842,1.842,0,0,0,.39,1.262A1.358,1.358,0,0,0,76.558,61.029Zm6.906,1.137a4.18,4.18,0,0,1-3.183-1.229,4.756,4.756,0,0,1-1.166-3.412A5.274,5.274,0,0,1,80.2,54.031a3.6,3.6,0,0,1,2.909-1.295,3.431,3.431,0,0,1,2.706,1.125,4.311,4.311,0,0,1,1,2.968V57.7H80.542a3.606,3.606,0,0,0,.809,2.432,2.8,2.8,0,0,0,2.162.83,7.328,7.328,0,0,0,2.905-.614v1.229a7.292,7.292,0,0,1-1.382.452A7.767,7.767,0,0,1,83.464,62.166Zm-.374-8.276a2.25,2.25,0,0,0-1.747.714,3.291,3.291,0,0,0-.768,1.976h4.756a3.03,3.03,0,0,0-.581-2A2.045,2.045,0,0,0,83.091,53.89Z" transform="translate(314.498 1361.251)" fill="#2e3e5a"/><path d="M-36.721-39.9a12.1,12.1,0,0,1-2.918,8.191A15.124,15.124,0,0,1-47.83-27.07v.211q6.223.773,9.422,3.779a10.587,10.587,0,0,1,3.2,8.1q0,7.418-5.379,11.549T-55.951.7A37.3,37.3,0,0,1-70.787-2.074V-11.32a33.531,33.531,0,0,0,6.574,2.461,27.664,27.664,0,0,0,7.1.949q5.379,0,7.945-1.828t2.566-5.871a5.3,5.3,0,0,0-2.953-5.133q-2.953-1.512-9.422-1.512h-3.9v-8.332H-58.9q5.977,0,8.736-1.564t2.76-5.361q0-5.836-7.312-5.836a16.735,16.735,0,0,0-5.15.844,25.159,25.159,0,0,0-5.818,2.918l-5.027-7.488a27.933,27.933,0,0,1,16.77-5.062q7.98,0,12.6,3.234A10.373,10.373,0,0,1-36.721-39.9ZM-24.451,0l19.3-42.187H-30.5v-9.141H6.381v6.82L-13.061,0ZM19.74-36a20.96,20.96,0,0,0,.791,6.662q.791,2.2,2.549,2.2,3.375,0,3.375-8.859,0-8.789-3.375-8.789-1.758,0-2.549,2.162A20.615,20.615,0,0,0,19.74-36Zm15.574-.07q0,8.086-3.129,12.146T23.01-19.863a10.6,10.6,0,0,1-8.965-4.166Q10.881-28.2,10.881-36.07q0-16.066,12.129-16.066,5.941,0,9.123,4.166T35.314-36.07ZM59.5-51.4,30.99,0H22.553L51.064-51.4ZM55.74-15.469a20.96,20.96,0,0,0,.791,6.662q.791,2.2,2.549,2.2,3.375,0,3.375-8.859,0-8.789-3.375-8.789-1.758,0-2.549,2.162A20.615,20.615,0,0,0,55.74-15.469Zm15.574-.07q0,8.051-3.129,12.111T59.01.633a10.6,10.6,0,0,1-8.965-4.166Q46.881-7.7,46.881-15.539q0-16.066,12.129-16.066,5.941,0,9.123,4.166T71.314-15.539Z" transform="translate(1186.045 1347.051)" fill="#2e3e5a"/><path d="M9.313,13.443a5.019,5.019,0,0,1-1.121,3.474,3.947,3.947,0,0,1-3.1,1.249,4.1,4.1,0,0,1-2.167-.573A3.78,3.78,0,0,1,1.469,15.95a5.728,5.728,0,0,1-.515-2.507A5.011,5.011,0,0,1,2.067,9.977,3.934,3.934,0,0,1,5.155,8.736a3.849,3.849,0,0,1,3.034,1.27A5,5,0,0,1,9.313,13.443Zm-6.931,0a4.318,4.318,0,0,0,.7,2.656,2.42,2.42,0,0,0,2.05.913A2.436,2.436,0,0,0,7.184,16.1a4.3,4.3,0,0,0,.7-2.66,4.227,4.227,0,0,0-.7-2.635,2.464,2.464,0,0,0-2.071-.9,2.425,2.425,0,0,0-2.042.888A4.274,4.274,0,0,0,2.382,13.443ZM15.83,9.973H13.514V18H12.136V9.973H10.509V9.351l1.627-.5V8.346q0-3.354,2.93-3.354a6.03,6.03,0,0,1,1.693.291l-.357,1.1a4.558,4.558,0,0,0-1.361-.257,1.326,1.326,0,0,0-1.154.519,2.9,2.9,0,0,0-.374,1.664V8.9H15.83ZM23.2,8.9v5.9a2.374,2.374,0,0,0,.506,1.66,2.063,2.063,0,0,0,1.585.548,2.587,2.587,0,0,0,2.088-.78,3.936,3.936,0,0,0,.66-2.548V8.9h1.378V18H28.281l-.2-1.22h-.075a2.746,2.746,0,0,1-1.175,1.029,3.948,3.948,0,0,1-1.714.357,3.478,3.478,0,0,1-2.486-.789,3.357,3.357,0,0,1-.826-2.523V8.9Zm15.008,6.616a2.279,2.279,0,0,1-.946,1.959,4.448,4.448,0,0,1-2.656.689,5.776,5.776,0,0,1-2.822-.573V16.315a6.825,6.825,0,0,0,1.407.523,5.875,5.875,0,0,0,1.448.191,3.285,3.285,0,0,0,1.66-.344,1.186,1.186,0,0,0,.12-1.959,7.247,7.247,0,0,0-1.8-.892,9.745,9.745,0,0,1-1.805-.826,2.466,2.466,0,0,1-.8-.8,2.089,2.089,0,0,1-.261-1.071,2.041,2.041,0,0,1,.9-1.756,4.216,4.216,0,0,1,2.482-.643,7.262,7.262,0,0,1,2.872.6l-.49,1.121a6.593,6.593,0,0,0-2.482-.564,2.855,2.855,0,0,0-1.478.307.95.95,0,0,0-.5.847,1.031,1.031,0,0,0,.187.623,1.843,1.843,0,0,0,.6.49,13.449,13.449,0,0,0,1.594.672,5.954,5.954,0,0,1,2.187,1.187A2.093,2.093,0,0,1,38.208,15.518Zm6.084,2.648a4.18,4.18,0,0,1-3.183-1.229,4.756,4.756,0,0,1-1.166-3.412,5.274,5.274,0,0,1,1.083-3.495,3.6,3.6,0,0,1,2.909-1.295,3.431,3.431,0,0,1,2.706,1.125,4.311,4.311,0,0,1,1,2.968V13.7H41.371a3.606,3.606,0,0,0,.809,2.432,2.8,2.8,0,0,0,2.162.83,7.328,7.328,0,0,0,2.905-.614v1.229a7.292,7.292,0,0,1-1.382.452A7.767,7.767,0,0,1,44.293,18.166ZM43.919,9.89a2.25,2.25,0,0,0-1.747.714A3.291,3.291,0,0,0,41.4,12.58h4.756a3.03,3.03,0,0,0-.581-2A2.045,2.045,0,0,0,43.919,9.89ZM54.138,8.736a5.392,5.392,0,0,1,1.087.1l-.191,1.278a4.694,4.694,0,0,0-1-.125,2.425,2.425,0,0,0-1.888.9,3.269,3.269,0,0,0-.784,2.233V18H49.987V8.9h1.137l.158,1.685h.066a4,4,0,0,1,1.22-1.37A2.747,2.747,0,0,1,54.138,8.736ZM62.8,15.518a2.279,2.279,0,0,1-.946,1.959,4.448,4.448,0,0,1-2.656.689,5.776,5.776,0,0,1-2.822-.573V16.315a6.825,6.825,0,0,0,1.407.523,5.875,5.875,0,0,0,1.448.191,3.285,3.285,0,0,0,1.66-.344,1.186,1.186,0,0,0,.12-1.959,7.247,7.247,0,0,0-1.8-.892,9.745,9.745,0,0,1-1.805-.826,2.466,2.466,0,0,1-.8-.8,2.089,2.089,0,0,1-.261-1.071,2.041,2.041,0,0,1,.9-1.756,4.216,4.216,0,0,1,2.482-.643,7.262,7.262,0,0,1,2.872.6l-.49,1.121a6.593,6.593,0,0,0-2.482-.564,2.855,2.855,0,0,0-1.478.307.95.95,0,0,0-.5.847,1.031,1.031,0,0,0,.187.623,1.843,1.843,0,0,0,.6.49,13.449,13.449,0,0,0,1.594.672,5.954,5.954,0,0,1,2.187,1.187A2.093,2.093,0,0,1,62.8,15.518ZM73.553,9.973H71.237V18H69.859V9.973H68.232V9.351l1.627-.5V8.346q0-3.354,2.93-3.354a6.03,6.03,0,0,1,1.693.291l-.357,1.1a4.558,4.558,0,0,0-1.361-.257,1.326,1.326,0,0,0-1.154.519,2.9,2.9,0,0,0-.374,1.664V8.9h2.316ZM76.591,18H75.213V8.9h1.378ZM75.1,6.437a.915.915,0,0,1,.232-.693.86.86,0,0,1,1.154,0,.9.9,0,0,1,.241.689.913.913,0,0,1-.241.693.843.843,0,0,1-1.154,0A.932.932,0,0,1,75.1,6.437ZM85.739,18V12.115a2.374,2.374,0,0,0-.506-1.66,2.063,2.063,0,0,0-1.585-.548,2.615,2.615,0,0,0-2.092.772,3.9,3.9,0,0,0-.664,2.548V18H79.513V8.9h1.121l.224,1.245h.066a2.814,2.814,0,0,1,1.187-1.042,3.857,3.857,0,0,1,1.7-.369,3.456,3.456,0,0,1,2.474.793,3.374,3.374,0,0,1,.83,2.536V18Zm10.4-1.22h-.075a3.238,3.238,0,0,1-2.855,1.386,3.378,3.378,0,0,1-2.777-1.22,5.371,5.371,0,0,1-.992-3.47,5.462,5.462,0,0,1,1-3.495,3.352,3.352,0,0,1,2.772-1.245,3.308,3.308,0,0,1,2.839,1.345h.108L96.1,9.425l-.033-.639v-3.7h1.378V18H96.322Zm-2.756.232a2.509,2.509,0,0,0,2.046-.768,3.88,3.88,0,0,0,.635-2.478v-.291a4.565,4.565,0,0,0-.643-2.76,2.443,2.443,0,0,0-2.054-.826,2.109,2.109,0,0,0-1.855.942,4.685,4.685,0,0,0-.643,2.66,4.491,4.491,0,0,0,.639,2.631A2.165,2.165,0,0,0,93.384,17.012Zm14.335.017a4.5,4.5,0,0,0,.706-.054,4.567,4.567,0,0,0,.54-.112v1.054a2.519,2.519,0,0,1-.66.178,4.956,4.956,0,0,1-.784.071q-2.64,0-2.64-2.781V9.973h-1.3V9.309l1.3-.573.581-1.942h.8V8.9h2.64V9.973h-2.64v5.354a1.842,1.842,0,0,0,.39,1.262A1.358,1.358,0,0,0,107.719,17.029Zm9.289.971V12.115a2.374,2.374,0,0,0-.506-1.66,2.063,2.063,0,0,0-1.585-.548,2.6,2.6,0,0,0-2.1.78,3.952,3.952,0,0,0-.66,2.557V18h-1.378V5.084h1.378v3.91a8.518,8.518,0,0,1-.066,1.17h.083a2.81,2.81,0,0,1,1.158-1.033,3.765,3.765,0,0,1,1.714-.378,3.51,3.51,0,0,1,2.5.793,3.338,3.338,0,0,1,.834,2.519V18Zm8.052.166a4.18,4.18,0,0,1-3.183-1.229,4.756,4.756,0,0,1-1.166-3.412,5.274,5.274,0,0,1,1.083-3.495A3.6,3.6,0,0,1,124.7,8.736a3.431,3.431,0,0,1,2.706,1.125,4.311,4.311,0,0,1,1,2.968V13.7h-6.267a3.606,3.606,0,0,0,.809,2.432,2.8,2.8,0,0,0,2.162.83,7.328,7.328,0,0,0,2.905-.614v1.229a7.292,7.292,0,0,1-1.382.452A7.767,7.767,0,0,1,125.06,18.166Zm-.374-8.276a2.25,2.25,0,0,0-1.747.714,3.291,3.291,0,0,0-.768,1.976h4.756a3.03,3.03,0,0,0-.581-2A2.045,2.045,0,0,0,124.686,9.89ZM7.33,37.518a2.279,2.279,0,0,1-.946,1.959,4.448,4.448,0,0,1-2.656.689A5.776,5.776,0,0,1,.9,39.593V38.315a6.825,6.825,0,0,0,1.407.523,5.875,5.875,0,0,0,1.448.191,3.285,3.285,0,0,0,1.66-.344,1.186,1.186,0,0,0,.12-1.959,7.247,7.247,0,0,0-1.8-.892,9.745,9.745,0,0,1-1.805-.826,2.466,2.466,0,0,1-.8-.8A2.089,2.089,0,0,1,.88,33.135a2.041,2.041,0,0,1,.9-1.756,4.216,4.216,0,0,1,2.482-.643,7.262,7.262,0,0,1,2.872.6l-.49,1.121a6.593,6.593,0,0,0-2.482-.564,2.855,2.855,0,0,0-1.478.307.95.95,0,0,0-.5.847,1.031,1.031,0,0,0,.187.623,1.843,1.843,0,0,0,.6.49,13.448,13.448,0,0,0,1.594.672,5.954,5.954,0,0,1,2.187,1.187A2.093,2.093,0,0,1,7.33,37.518ZM10.949,40H9.571V30.9h1.378ZM9.455,28.437a.915.915,0,0,1,.232-.693.86.86,0,0,1,1.154,0,.9.9,0,0,1,.241.689.913.913,0,0,1-.241.693.843.843,0,0,1-1.154,0A.932.932,0,0,1,9.455,28.437Zm7.354,10.592a4.5,4.5,0,0,0,.706-.054,4.567,4.567,0,0,0,.54-.112v1.054a2.519,2.519,0,0,1-.66.178,4.956,4.956,0,0,1-.784.071q-2.64,0-2.64-2.781V31.973h-1.3v-.664l1.3-.573.581-1.942h.8V30.9h2.64v1.071h-2.64v5.354a1.842,1.842,0,0,0,.39,1.262A1.358,1.358,0,0,0,16.809,39.029Zm6.906,1.137a4.18,4.18,0,0,1-3.183-1.229,4.756,4.756,0,0,1-1.166-3.412,5.274,5.274,0,0,1,1.083-3.495,3.6,3.6,0,0,1,2.909-1.295,3.431,3.431,0,0,1,2.706,1.125,4.311,4.311,0,0,1,1,2.968V35.7H20.793a3.606,3.606,0,0,0,.809,2.432,2.8,2.8,0,0,0,2.162.83,7.328,7.328,0,0,0,2.905-.614v1.229a7.292,7.292,0,0,1-1.382.452A7.767,7.767,0,0,1,23.715,40.166Zm-.374-8.276a2.25,2.25,0,0,0-1.747.714,3.291,3.291,0,0,0-.768,1.976h4.756a3.03,3.03,0,0,0-.581-2A2.045,2.045,0,0,0,23.342,31.89Zm14.327,8.276a4.18,4.18,0,0,1-3.183-1.229,4.756,4.756,0,0,1-1.166-3.412A5.274,5.274,0,0,1,34.4,32.031a3.6,3.6,0,0,1,2.909-1.295,3.431,3.431,0,0,1,2.706,1.125,4.311,4.311,0,0,1,1,2.968V35.7H34.747a3.606,3.606,0,0,0,.809,2.432,2.8,2.8,0,0,0,2.162.83,7.328,7.328,0,0,0,2.905-.614v1.229a7.292,7.292,0,0,1-1.382.452A7.767,7.767,0,0,1,37.669,40.166ZM37.3,31.89a2.25,2.25,0,0,0-1.747.714,3.291,3.291,0,0,0-.768,1.976h4.756a3.03,3.03,0,0,0-.581-2A2.045,2.045,0,0,0,37.3,31.89ZM48.958,40l-.274-1.295h-.066a3.828,3.828,0,0,1-1.357,1.158,4.137,4.137,0,0,1-1.689.3,3.039,3.039,0,0,1-2.121-.7,2.543,2.543,0,0,1-.768-1.984q0-2.756,4.408-2.889l1.544-.05v-.564a2.307,2.307,0,0,0-.461-1.581,1.9,1.9,0,0,0-1.473-.51,6,6,0,0,0-2.573.7L43.7,31.533a6.475,6.475,0,0,1,1.473-.573,6.381,6.381,0,0,1,1.606-.208,3.465,3.465,0,0,1,2.411.722,3.014,3.014,0,0,1,.784,2.316V40Zm-3.113-.971a2.8,2.8,0,0,0,2.021-.706,2.61,2.61,0,0,0,.735-1.976v-.822l-1.378.058a5.012,5.012,0,0,0-2.37.51,1.539,1.539,0,0,0-.726,1.407,1.42,1.42,0,0,0,.452,1.137A1.878,1.878,0,0,0,45.845,39.029Zm12.841-1.511a2.279,2.279,0,0,1-.946,1.959,4.448,4.448,0,0,1-2.656.689,5.776,5.776,0,0,1-2.822-.573V38.315a6.825,6.825,0,0,0,1.407.523,5.875,5.875,0,0,0,1.448.191,3.285,3.285,0,0,0,1.66-.344,1.186,1.186,0,0,0,.12-1.959,7.247,7.247,0,0,0-1.8-.892,9.745,9.745,0,0,1-1.805-.826,2.466,2.466,0,0,1-.8-.8,2.089,2.089,0,0,1-.261-1.071,2.041,2.041,0,0,1,.9-1.756,4.216,4.216,0,0,1,2.482-.643,7.262,7.262,0,0,1,2.872.6l-.49,1.121a6.593,6.593,0,0,0-2.482-.564,2.855,2.855,0,0,0-1.478.307.95.95,0,0,0-.5.847,1.031,1.031,0,0,0,.187.623,1.843,1.843,0,0,0,.6.49,13.448,13.448,0,0,0,1.594.672,5.954,5.954,0,0,1,2.187,1.187A2.093,2.093,0,0,1,58.687,37.518Zm.8-6.616h1.478l1.992,5.188a19.733,19.733,0,0,1,.813,2.565h.066q.108-.423.452-1.448t2.254-6.3h1.478l-3.91,10.359a5.168,5.168,0,0,1-1.357,2.179,2.886,2.886,0,0,1-1.905.643,5.543,5.543,0,0,1-1.245-.141v-1.1a4.8,4.8,0,0,0,1.021.1,2.1,2.1,0,0,0,2.025-1.594l.506-1.295Zm17.365,8.126a4.5,4.5,0,0,0,.706-.054,4.567,4.567,0,0,0,.54-.112v1.054a2.519,2.519,0,0,1-.66.178,4.956,4.956,0,0,1-.784.071q-2.64,0-2.64-2.781V31.973h-1.3v-.664l1.3-.573.581-1.942h.8V30.9h2.64v1.071h-2.64v5.354a1.842,1.842,0,0,0,.39,1.262A1.358,1.358,0,0,0,76.849,39.029Zm10.916-3.586a5.019,5.019,0,0,1-1.121,3.474,3.947,3.947,0,0,1-3.1,1.249,4.1,4.1,0,0,1-2.167-.573A3.78,3.78,0,0,1,79.92,37.95a5.728,5.728,0,0,1-.515-2.507,5.011,5.011,0,0,1,1.112-3.466,3.934,3.934,0,0,1,3.088-1.241,3.849,3.849,0,0,1,3.034,1.27A5,5,0,0,1,87.764,35.443Zm-6.931,0a4.318,4.318,0,0,0,.7,2.656,2.767,2.767,0,0,0,4.1,0,4.3,4.3,0,0,0,.7-2.66,4.227,4.227,0,0,0-.7-2.635,2.464,2.464,0,0,0-2.071-.9,2.425,2.425,0,0,0-2.042.888A4.274,4.274,0,0,0,80.833,35.443ZM7.687,62V56.115a2.374,2.374,0,0,0-.506-1.66,2.063,2.063,0,0,0-1.585-.548,2.615,2.615,0,0,0-2.092.772,3.9,3.9,0,0,0-.664,2.548V62H1.461V52.9H2.582l.224,1.245h.066a2.814,2.814,0,0,1,1.187-1.042,3.857,3.857,0,0,1,1.7-.369,3.456,3.456,0,0,1,2.474.793,3.374,3.374,0,0,1,.83,2.536V62Zm9.8,0-.274-1.295h-.066a3.828,3.828,0,0,1-1.357,1.158,4.137,4.137,0,0,1-1.689.3,3.039,3.039,0,0,1-2.121-.7,2.543,2.543,0,0,1-.768-1.984q0-2.756,4.408-2.889l1.544-.05v-.564a2.307,2.307,0,0,0-.461-1.581,1.9,1.9,0,0,0-1.473-.51,6,6,0,0,0-2.573.7l-.423-1.054a6.475,6.475,0,0,1,1.473-.573,6.381,6.381,0,0,1,1.606-.208,3.465,3.465,0,0,1,2.411.722,3.014,3.014,0,0,1,.784,2.316V62Zm-3.113-.971a2.8,2.8,0,0,0,2.021-.706,2.61,2.61,0,0,0,.735-1.976v-.822l-1.378.058a5.012,5.012,0,0,0-2.37.51,1.539,1.539,0,0,0-.726,1.407,1.42,1.42,0,0,0,.452,1.137A1.878,1.878,0,0,0,14.377,61.029ZM23.342,62l-3.453-9.1h1.478l1.959,5.4a25.538,25.538,0,0,1,.78,2.457h.066a18.559,18.559,0,0,1,.577-1.822q.486-1.382,2.179-6.031h1.478L24.952,62Zm7.9,0H29.866V52.9h1.378ZM29.75,50.437a.915.915,0,0,1,.232-.693.86.86,0,0,1,1.154,0,.9.9,0,0,1,.241.689.913.913,0,0,1-.241.693.843.843,0,0,1-1.154,0A.932.932,0,0,1,29.75,50.437ZM41.612,52.9v.872l-1.685.2a2.959,2.959,0,0,1,.6,1.818,2.689,2.689,0,0,1-.913,2.133,3.683,3.683,0,0,1-2.507.8,4.175,4.175,0,0,1-.764-.066,1.356,1.356,0,0,0-.88,1.17.6.6,0,0,0,.307.552,2.244,2.244,0,0,0,1.054.178h1.61a3.606,3.606,0,0,1,2.27.623,2.163,2.163,0,0,1,.793,1.81,2.583,2.583,0,0,1-1.212,2.3,6.486,6.486,0,0,1-3.536.793A4.831,4.831,0,0,1,34,65.42a2.144,2.144,0,0,1-.967-1.876,2.107,2.107,0,0,1,.531-1.436,2.705,2.705,0,0,1,1.494-.822,1.441,1.441,0,0,1-.585-.49,1.3,1.3,0,0,1-.237-.772,1.465,1.465,0,0,1,.266-.872,2.793,2.793,0,0,1,.838-.722,2.457,2.457,0,0,1-1.15-.988,2.9,2.9,0,0,1-.444-1.594,2.944,2.944,0,0,1,.9-2.3,3.66,3.66,0,0,1,2.54-.809,4.619,4.619,0,0,1,1.287.166ZM34.357,63.527a1.235,1.235,0,0,0,.623,1.121,3.436,3.436,0,0,0,1.785.382,4.98,4.98,0,0,0,2.569-.519,1.588,1.588,0,0,0,.834-1.407,1.113,1.113,0,0,0-.457-1.025,3.546,3.546,0,0,0-1.718-.286H36.341a2.176,2.176,0,0,0-1.461.448A1.6,1.6,0,0,0,34.357,63.527Zm.747-7.711a1.852,1.852,0,0,0,.54,1.444,2.154,2.154,0,0,0,1.5.49,1.758,1.758,0,0,0,2.017-1.959,1.809,1.809,0,0,0-2.042-2.05,2.022,2.022,0,0,0-1.494.523A2.106,2.106,0,0,0,35.1,55.816ZM49.074,62,48.8,60.705h-.066a3.828,3.828,0,0,1-1.357,1.158,4.137,4.137,0,0,1-1.689.3,3.039,3.039,0,0,1-2.121-.7,2.543,2.543,0,0,1-.768-1.984q0-2.756,4.408-2.889l1.544-.05v-.564A2.307,2.307,0,0,0,48.29,54.4a1.9,1.9,0,0,0-1.473-.51,6,6,0,0,0-2.573.7l-.423-1.054a6.475,6.475,0,0,1,1.473-.573,6.381,6.381,0,0,1,1.606-.208,3.465,3.465,0,0,1,2.411.722,3.014,3.014,0,0,1,.784,2.316V62Zm-3.113-.971a2.8,2.8,0,0,0,2.021-.706,2.61,2.61,0,0,0,.735-1.976v-.822l-1.378.058a5.012,5.012,0,0,0-2.37.51,1.539,1.539,0,0,0-.726,1.407,1.42,1.42,0,0,0,.452,1.137A1.878,1.878,0,0,0,45.961,61.029Zm9.911,0a4.5,4.5,0,0,0,.706-.054,4.567,4.567,0,0,0,.54-.112v1.054a2.519,2.519,0,0,1-.66.178,4.956,4.956,0,0,1-.784.071q-2.64,0-2.64-2.781V53.973h-1.3v-.664l1.3-.573.581-1.942h.8V52.9h2.64v1.071h-2.64v5.354a1.842,1.842,0,0,0,.39,1.262A1.358,1.358,0,0,0,55.873,61.029Zm6.906,1.137A4.18,4.18,0,0,1,59.6,60.938a4.756,4.756,0,0,1-1.166-3.412,5.274,5.274,0,0,1,1.083-3.495,3.6,3.6,0,0,1,2.909-1.295,3.431,3.431,0,0,1,2.706,1.125,4.311,4.311,0,0,1,1,2.968V57.7H59.857a3.606,3.606,0,0,0,.809,2.432,2.8,2.8,0,0,0,2.162.83,7.328,7.328,0,0,0,2.905-.614v1.229a7.292,7.292,0,0,1-1.382.452A7.767,7.767,0,0,1,62.779,62.166Zm-.374-8.276a2.25,2.25,0,0,0-1.747.714,3.291,3.291,0,0,0-.768,1.976h4.756a3.03,3.03,0,0,0-.581-2A2.045,2.045,0,0,0,62.405,53.89Z" transform="translate(1111.477 1361.158)" fill="#2e3e5a"/><path d="M-2375.332,915.184h-113.076a1,1,0,0,1-1-1,1,1,0,0,1,1-1h112.076v-41a1,1,0,0,1,1-1h11.924a1,1,0,0,1,1,1,1,1,0,0,1-1,1h-10.924v41A1,1,0,0,1-2375.332,915.184Z" transform="translate(2805 442.682)" fill="#2e6cb9"/><g transform="translate(2805 441.682)"><circle cx="5" cy="5" r="5" transform="translate(-1721.44 937.975)" fill="#ffd964"/></g><path d="M-1701.8,943.014h0l-11.642-.029a1,1,0,0,1-1-1,1,1,0,0,1,1-1h0l10.642.026.071-29a1,1,0,0,1,.295-.706,1,1,0,0,1,.705-.291h0l154.342.379a1,1,0,0,1,1,1,1,1,0,0,1-1,1h0l-153.342-.376-.071,29A1,1,0,0,1-1701.8,943.014Z" transform="translate(2805 442.682)" fill="#ffd964"/></g></svg>