<svg xmlns="http://www.w3.org/2000/svg" width="786.824" height="331.445" viewBox="0 0 786.824 331.445"><g transform="translate(-8042.091 -3745.734)"><g transform="translate(7591.915 3294.179)"><path d="M704.483,734.265h56.5V682.98h-56.5Z" fill="#cc7a29"/></g><g transform="translate(7591.915 3294.179)"><path d="M641.933,734.265h56.5V498.126h-56.5Z" fill="#ffd964"/></g><g transform="translate(7591.915 3294.179)"><path d="M579,734.265h56.5V534.01H579Z" fill="#8bcaca"/></g><path d="M1100.25,734.95H496.525v-.5H1100.25Z" transform="translate(7591.915 3294.179)" fill="#788295"/><g transform="translate(7591.915 3294.179)"><path d="M766.54,734.265h56.5V626.477h-56.5Z" fill="#b1a8e3"/></g><path d="M-.5-.5H679.323V330.945H-.5ZM678.323.5H.5V329.945H678.323Z" transform="translate(8042.591 3746.234)" fill="#abb1bd"/><path d="M10.582,5.006,3.165,15H2.126L9.55,5.006ZM9.324,9.723a1.041,1.041,0,0,0-.817.441,3.351,3.351,0,0,0-.574,1.289,6.655,6.655,0,0,0-.215,1.641q0,1.183.725,1.183a1.019,1.019,0,0,0,.8-.444,3.669,3.669,0,0,0,.591-1.357,6.556,6.556,0,0,0,.236-1.617Q10.069,9.723,9.324,9.723Zm1.7,1.032a6.848,6.848,0,0,1-.215,1.613,5.761,5.761,0,0,1-.561,1.487,2.855,2.855,0,0,1-.827.943,1.82,1.82,0,0,1-1.07.338,1.426,1.426,0,0,1-1.169-.509,2.323,2.323,0,0,1-.417-1.5,6.881,6.881,0,0,1,.345-2.177,3.507,3.507,0,0,1,.933-1.562,2,2,0,0,1,1.367-.52,1.482,1.482,0,0,1,1.2.489A2.118,2.118,0,0,1,11.02,10.755ZM4.259,5.717a1.052,1.052,0,0,0-.813.431,3.25,3.25,0,0,0-.581,1.282,6.672,6.672,0,0,0-.219,1.665q0,1.176.731,1.176A.916.916,0,0,0,4.02,10a2.27,2.27,0,0,0,.5-.779,5.9,5.9,0,0,0,.345-1.2A6.468,6.468,0,0,0,5,6.852Q5,5.717,4.259,5.717Zm1.7,1.039a6.811,6.811,0,0,1-.219,1.624,5.777,5.777,0,0,1-.564,1.487,2.845,2.845,0,0,1-.824.937,1.828,1.828,0,0,1-1.073.335,1.415,1.415,0,0,1-1.162-.513,2.338,2.338,0,0,1-.417-1.5,6.881,6.881,0,0,1,.345-2.177,3.507,3.507,0,0,1,.933-1.562,2,2,0,0,1,1.367-.52,1.477,1.477,0,0,1,1.2.492A2.132,2.132,0,0,1,5.954,6.756Zm13.727.656a2.736,2.736,0,0,1,2.051.769,2.9,2.9,0,0,1,.752,2.116,6.064,6.064,0,0,1-.492,2.427,4.2,4.2,0,0,1-1.333,1.764,3.115,3.115,0,0,1-1.9.622,2.725,2.725,0,0,1-2.058-.772,2.915,2.915,0,0,1-.745-2.112,6.05,6.05,0,0,1,.5-2.444A4.142,4.142,0,0,1,17.8,8.024,3.138,3.138,0,0,1,19.681,7.412Zm1.613,2.728a1.867,1.867,0,0,0-.427-1.275,1.46,1.46,0,0,0-1.159-.489,2,2,0,0,0-1.336.506,3.256,3.256,0,0,0-.916,1.4,5.852,5.852,0,0,0-.325,2,2.016,2.016,0,0,0,.434,1.384,1.581,1.581,0,0,0,1.248.489,1.885,1.885,0,0,0,1.278-.5,3.259,3.259,0,0,0,.885-1.418A6.418,6.418,0,0,0,21.294,10.14Zm1.135,8.224a2.418,2.418,0,0,1-.854-.144v-.964a2.4,2.4,0,0,0,.766.15.9.9,0,0,0,.8-.424,3.62,3.62,0,0,0,.451-1.21l1.552-7.4H23.823l.089-.458,1.408-.451.157-.684a4.05,4.05,0,0,1,.872-1.931A2.223,2.223,0,0,1,28,4.288a3.543,3.543,0,0,1,.67.079,3.106,3.106,0,0,1,.615.174l-.294.882a2.66,2.66,0,0,0-.937-.2,1.205,1.205,0,0,0-.913.332,2.633,2.633,0,0,0-.516,1.213l-.171.738h1.627l-.171.868h-1.62l-1.586,7.506a3.916,3.916,0,0,1-.82,1.887A1.9,1.9,0,0,1,22.429,18.363Zm12.455-3.227a2.006,2.006,0,0,1-1.162-.342,2.219,2.219,0,0,1-.772-.957h-.068l-.027.26q-.021.171-.072.479T32,18.363H30.864l2.3-10.855h.95l-.178,1.429h.055a3.357,3.357,0,0,1,2.543-1.552,1.8,1.8,0,0,1,1.477.667,2.9,2.9,0,0,1,.54,1.87,7.262,7.262,0,0,1-.472,2.659,4.415,4.415,0,0,1-1.306,1.883A2.924,2.924,0,0,1,34.884,15.137Zm1.271-6.8a1.977,1.977,0,0,0-1.336.649,4.63,4.63,0,0,0-1.08,1.634,5.312,5.312,0,0,0-.4,2.017,1.61,1.61,0,0,0,.379,1.152,1.441,1.441,0,0,0,1.1.4,1.807,1.807,0,0,0,1.261-.554,3.887,3.887,0,0,0,.94-1.576,6.56,6.56,0,0,0,.355-2.17Q37.372,8.335,36.155,8.335Zm7.451-.964a1.932,1.932,0,0,1,1.121.338,2.2,2.2,0,0,1,.766.974h.075l.458-1.176h.868L45.3,15h-.909l.178-1.429h-.055a3.371,3.371,0,0,1-2.577,1.565,1.8,1.8,0,0,1-1.49-.677,2.892,2.892,0,0,1-.54-1.853,7.057,7.057,0,0,1,.485-2.639,4.559,4.559,0,0,1,1.34-1.907A2.915,2.915,0,0,1,43.606,7.371Zm-1.3,6.815a1.924,1.924,0,0,0,1.319-.632,4.686,4.686,0,0,0,1.066-1.647,5.392,5.392,0,0,0,.41-2.034,1.593,1.593,0,0,0-.383-1.121,1.3,1.3,0,0,0-1-.417,1.882,1.882,0,0,0-1.323.588,3.966,3.966,0,0,0-.96,1.593,6.419,6.419,0,0,0-.349,2.119,1.792,1.792,0,0,0,.321,1.166A1.109,1.109,0,0,0,42.308,14.187Zm9.98-6.815a3.119,3.119,0,0,1,.82.1l-.246,1.025a3,3,0,0,0-.718-.089,1.9,1.9,0,0,0-1.166.41,3.59,3.59,0,0,0-.95,1.138,5.8,5.8,0,0,0-.6,1.617L48.7,15H47.551l1.6-7.492h.95L49.95,8.9h.068a6.717,6.717,0,0,1,.813-.933,2.579,2.579,0,0,1,.673-.437A1.935,1.935,0,0,1,52.288,7.371Zm3.1,6.829a3.7,3.7,0,0,0,.984-.178V14.9a3.151,3.151,0,0,1-.574.164,2.941,2.941,0,0,1-.547.068,1.9,1.9,0,0,1-1.309-.407,1.545,1.545,0,0,1-.455-1.213,4.952,4.952,0,0,1,.123-1.025l.868-4.115H53.307l.1-.5,1.265-.533.854-1.559h.67l-.376,1.723h1.873l-.178.868H55.645L54.763,12.5a4.863,4.863,0,0,0-.123.9.812.812,0,0,0,.2.588A.734.734,0,0,0,55.392,14.2Zm3.391.8H57.634l1.6-7.492h1.148Zm.772-9.406a.9.9,0,0,1,.219-.625.728.728,0,0,1,.567-.243.538.538,0,0,1,.6.615.927.927,0,0,1-.229.636.689.689,0,0,1-.53.26.632.632,0,0,1-.451-.167A.621.621,0,0,1,59.555,5.594Zm4.689,9.543a2.782,2.782,0,0,1-2.058-.731,2.792,2.792,0,0,1-.731-2.064,6.22,6.22,0,0,1,.506-2.522,4.282,4.282,0,0,1,1.4-1.8,3.338,3.338,0,0,1,2.006-.646A5.01,5.01,0,0,1,67.2,7.72l-.321.964a3.868,3.868,0,0,0-1.5-.349,2.142,2.142,0,0,0-1.4.523,3.444,3.444,0,0,0-.991,1.456,5.6,5.6,0,0,0-.359,2.027,1.913,1.913,0,0,0,.455,1.36,1.635,1.635,0,0,0,1.254.485,3.1,3.1,0,0,0,.93-.137,8.524,8.524,0,0,0,.861-.321v.978A4.1,4.1,0,0,1,64.244,15.137ZM68.64,15H67.491l1.6-7.492h1.148Zm.772-9.406a.9.9,0,0,1,.219-.625.728.728,0,0,1,.567-.243.538.538,0,0,1,.6.615.927.927,0,0,1-.229.636.689.689,0,0,1-.53.26.632.632,0,0,1-.451-.167A.621.621,0,0,1,69.412,5.594Zm4.956,9.543a2.006,2.006,0,0,1-1.162-.342,2.219,2.219,0,0,1-.772-.957h-.068l-.027.26q-.021.171-.072.479t-.783,3.787H70.349l2.3-10.855h.95l-.178,1.429h.055a3.357,3.357,0,0,1,2.543-1.552,1.8,1.8,0,0,1,1.477.667,2.9,2.9,0,0,1,.54,1.87,7.262,7.262,0,0,1-.472,2.659,4.415,4.415,0,0,1-1.306,1.883A2.924,2.924,0,0,1,74.368,15.137Zm1.271-6.8a1.977,1.977,0,0,0-1.336.649,4.63,4.63,0,0,0-1.08,1.634,5.312,5.312,0,0,0-.4,2.017,1.61,1.61,0,0,0,.379,1.152,1.441,1.441,0,0,0,1.1.4,1.807,1.807,0,0,0,1.261-.554,3.887,3.887,0,0,0,.94-1.576,6.56,6.56,0,0,0,.355-2.17Q76.856,8.335,75.64,8.335Zm7.451-.964a1.932,1.932,0,0,1,1.121.338,2.2,2.2,0,0,1,.766.974h.075l.458-1.176h.868L84.786,15h-.909l.178-1.429H84a3.371,3.371,0,0,1-2.577,1.565,1.8,1.8,0,0,1-1.49-.677,2.892,2.892,0,0,1-.54-1.853,7.057,7.057,0,0,1,.485-2.639,4.559,4.559,0,0,1,1.34-1.907A2.915,2.915,0,0,1,83.091,7.371Zm-1.3,6.815a1.924,1.924,0,0,0,1.319-.632,4.686,4.686,0,0,0,1.066-1.647,5.392,5.392,0,0,0,.41-2.034,1.593,1.593,0,0,0-.383-1.121,1.3,1.3,0,0,0-1-.417,1.882,1.882,0,0,0-1.323.588,3.966,3.966,0,0,0-.96,1.593,6.419,6.419,0,0,0-.349,2.119A1.792,1.792,0,0,0,80.89,13.8,1.109,1.109,0,0,0,81.792,14.187ZM91.615,15l1.012-4.73a6.235,6.235,0,0,0,.137-.984.971.971,0,0,0-.243-.69,1.018,1.018,0,0,0-.776-.26,2.027,2.027,0,0,0-1.186.41,3.65,3.65,0,0,0-1.019,1.169,6.151,6.151,0,0,0-.667,1.839L88.184,15H87.035l1.6-7.492h.95L89.435,8.9H89.5a4.566,4.566,0,0,1,1.268-1.179,2.547,2.547,0,0,1,1.268-.345,1.914,1.914,0,0,1,1.371.475,1.742,1.742,0,0,1,.5,1.33,5.611,5.611,0,0,1-.157,1.23L92.777,15Zm5.8-.8a3.7,3.7,0,0,0,.984-.178V14.9a3.151,3.151,0,0,1-.574.164,2.941,2.941,0,0,1-.547.068,1.9,1.9,0,0,1-1.309-.407,1.545,1.545,0,0,1-.455-1.213,4.952,4.952,0,0,1,.123-1.025L96.5,8.376H95.327l.1-.5,1.265-.533.854-1.559h.67l-.376,1.723h1.873l-.178.868H97.665L96.783,12.5a4.863,4.863,0,0,0-.123.9.812.812,0,0,0,.2.588A.734.734,0,0,0,97.412,14.2Zm6.863-1.326a2,2,0,0,1-.755,1.665,3.354,3.354,0,0,1-2.129.6,4.542,4.542,0,0,1-2.085-.472v-1.08a4.255,4.255,0,0,0,1.032.444,3.772,3.772,0,0,0,1.025.157,2.084,2.084,0,0,0,1.3-.342,1.063,1.063,0,0,0,.438-.875.947.947,0,0,0-.239-.656,4.821,4.821,0,0,0-1.032-.731,4.158,4.158,0,0,1-1.258-.978A1.8,1.8,0,0,1,100.2,9.47a1.886,1.886,0,0,1,.69-1.521,2.74,2.74,0,0,1,1.818-.578,5.288,5.288,0,0,1,2.256.506l-.369.937-.383-.171a3.8,3.8,0,0,0-1.5-.294,1.529,1.529,0,0,0-1,.3,1,1,0,0,0-.12,1.425,4.282,4.282,0,0,0,1,.7,5.823,5.823,0,0,1,1.049.7,2.033,2.033,0,0,1,.475.632A1.788,1.788,0,0,1,104.275,12.874ZM114.563,15l-.219-4.115q-.027-.643-.027-1.176V8.643h-.062l-.342.807-.567,1.292L111.357,15h-1.381l-.294-7.492H110.8l.123,4.061v.6q0,1-.055,1.839h.041q.321-.848.937-2.2l2.017-4.3h1.244l.253,4.061q.041,1.148.041,1.791v.362l-.014.287h.041q.191-.588.567-1.494t2.208-5.007h1.217L115.965,15Zm9.338,0,1.012-4.73a5.622,5.622,0,0,0,.123-.923.891.891,0,0,0-1-1.012,2.049,2.049,0,0,0-1.186.4,3.546,3.546,0,0,0-1.019,1.172,6.289,6.289,0,0,0-.667,1.856L120.47,15h-1.148l2.256-10.637h1.148q-.123.561-.236,1.087t-.232,1.07q-.12.543-.26,1.138t-.325,1.292h.075a4.555,4.555,0,0,1,1.268-1.2,2.575,2.575,0,0,1,1.309-.362,1.865,1.865,0,0,1,1.384.492,1.894,1.894,0,0,1,.489,1.395,5.555,5.555,0,0,1-.157,1.135q-.267,1.319-.991,4.594Zm7.492-7.588a2.736,2.736,0,0,1,2.051.769A2.9,2.9,0,0,1,134.2,10.3a6.064,6.064,0,0,1-.492,2.427,4.2,4.2,0,0,1-1.333,1.764,3.115,3.115,0,0,1-1.9.622,2.725,2.725,0,0,1-2.058-.772,2.915,2.915,0,0,1-.745-2.112,6.05,6.05,0,0,1,.5-2.444,4.142,4.142,0,0,1,1.347-1.757A3.138,3.138,0,0,1,131.394,7.412Zm1.613,2.728a1.867,1.867,0,0,0-.427-1.275,1.46,1.46,0,0,0-1.159-.489,2,2,0,0,0-1.336.506,3.256,3.256,0,0,0-.916,1.4,5.851,5.851,0,0,0-.325,2,2.016,2.016,0,0,0,.434,1.384,1.581,1.581,0,0,0,1.248.489,1.885,1.885,0,0,0,1.278-.5,3.259,3.259,0,0,0,.885-1.418A6.418,6.418,0,0,0,133.007,10.14Zm9.208,5a2.006,2.006,0,0,1-1.162-.342,2.219,2.219,0,0,1-.772-.957h-.068l-.027.26q-.021.171-.072.479t-.783,3.787H138.2l2.3-10.855h.95l-.178,1.429h.055a3.357,3.357,0,0,1,2.543-1.552,1.8,1.8,0,0,1,1.477.667,2.9,2.9,0,0,1,.54,1.87,7.262,7.262,0,0,1-.472,2.659,4.415,4.415,0,0,1-1.306,1.883A2.924,2.924,0,0,1,142.215,15.137Zm1.271-6.8a1.977,1.977,0,0,0-1.336.649,4.63,4.63,0,0,0-1.08,1.634,5.312,5.312,0,0,0-.4,2.017,1.61,1.61,0,0,0,.379,1.152,1.441,1.441,0,0,0,1.1.4,1.807,1.807,0,0,0,1.261-.554,3.887,3.887,0,0,0,.94-1.576,6.56,6.56,0,0,0,.355-2.17Q144.7,8.335,143.486,8.335Zm7.451-.964a1.932,1.932,0,0,1,1.121.338,2.2,2.2,0,0,1,.766.974h.075l.458-1.176h.868L152.633,15h-.909l.178-1.429h-.055a3.371,3.371,0,0,1-2.577,1.565,1.8,1.8,0,0,1-1.49-.677,2.892,2.892,0,0,1-.54-1.853,7.057,7.057,0,0,1,.485-2.639,4.559,4.559,0,0,1,1.34-1.907A2.915,2.915,0,0,1,150.938,7.371Zm-1.3,6.815a1.924,1.924,0,0,0,1.319-.632,4.686,4.686,0,0,0,1.066-1.647,5.392,5.392,0,0,0,.41-2.034,1.593,1.593,0,0,0-.383-1.121,1.3,1.3,0,0,0-1-.417,1.882,1.882,0,0,0-1.323.588,3.966,3.966,0,0,0-.96,1.593,6.419,6.419,0,0,0-.349,2.119,1.792,1.792,0,0,0,.321,1.166A1.109,1.109,0,0,0,149.639,14.187Zm9.864-1.312a2,2,0,0,1-.755,1.665,3.354,3.354,0,0,1-2.129.6,4.542,4.542,0,0,1-2.085-.472v-1.08a4.256,4.256,0,0,0,1.032.444,3.772,3.772,0,0,0,1.025.157,2.084,2.084,0,0,0,1.3-.342,1.063,1.063,0,0,0,.438-.875.947.947,0,0,0-.239-.656,4.821,4.821,0,0,0-1.032-.731A4.158,4.158,0,0,1,155.8,10.6a1.8,1.8,0,0,1-.369-1.135,1.886,1.886,0,0,1,.69-1.521,2.74,2.74,0,0,1,1.818-.578,5.288,5.288,0,0,1,2.256.506l-.369.937-.383-.171a3.8,3.8,0,0,0-1.5-.294,1.529,1.529,0,0,0-1,.3,1,1,0,0,0-.12,1.425,4.282,4.282,0,0,0,1,.7,5.823,5.823,0,0,1,1.049.7,2.033,2.033,0,0,1,.475.632A1.788,1.788,0,0,1,159.5,12.874Zm6,0a2,2,0,0,1-.755,1.665,3.354,3.354,0,0,1-2.129.6,4.542,4.542,0,0,1-2.085-.472v-1.08a4.256,4.256,0,0,0,1.032.444,3.772,3.772,0,0,0,1.025.157,2.084,2.084,0,0,0,1.3-.342,1.063,1.063,0,0,0,.438-.875.947.947,0,0,0-.239-.656,4.821,4.821,0,0,0-1.032-.731,4.158,4.158,0,0,1-1.258-.978,1.8,1.8,0,0,1-.369-1.135,1.886,1.886,0,0,1,.69-1.521,2.74,2.74,0,0,1,1.818-.578,5.288,5.288,0,0,1,2.256.506l-.369.937-.383-.171a3.8,3.8,0,0,0-1.5-.294,1.529,1.529,0,0,0-1,.3,1,1,0,0,0-.12,1.425,4.282,4.282,0,0,0,1,.7,5.823,5.823,0,0,1,1.049.7,2.033,2.033,0,0,1,.475.632A1.788,1.788,0,0,1,165.5,12.874Zm4.334,2.263a2.614,2.614,0,0,1-1.976-.745,2.852,2.852,0,0,1-.718-2.064,6.152,6.152,0,0,1,.509-2.464A4.561,4.561,0,0,1,169,8.027a2.942,2.942,0,0,1,1.853-.656,2.35,2.35,0,0,1,1.572.455,1.586,1.586,0,0,1,.526,1.268,2.167,2.167,0,0,1-1.135,1.931,6.215,6.215,0,0,1-3.247.7h-.226l-.027.547a2.115,2.115,0,0,0,.42,1.4,1.6,1.6,0,0,0,1.3.5,3.381,3.381,0,0,0,.885-.123,6.778,6.778,0,0,0,1.131-.451v1a6.2,6.2,0,0,1-1.135.42A4.6,4.6,0,0,1,169.832,15.137Zm.95-6.788a1.826,1.826,0,0,0-1.323.643,4.2,4.2,0,0,0-.947,1.784h.082a5.581,5.581,0,0,0,2.389-.407,1.277,1.277,0,0,0,.831-1.179.8.8,0,0,0-.25-.6A1.1,1.1,0,0,0,170.782,8.349Zm6.959-.964a1.994,1.994,0,0,1,1.921,1.3h.068a15.745,15.745,0,0,1,.308-1.873l.533-2.447h1.135L179.45,15h-.95l.15-1.429H178.6a5.133,5.133,0,0,1-1.292,1.21,2.414,2.414,0,0,1-1.244.355,1.79,1.79,0,0,1-1.483-.67,2.913,2.913,0,0,1-.533-1.859,7.083,7.083,0,0,1,.492-2.68,4.469,4.469,0,0,1,1.33-1.88A2.947,2.947,0,0,1,177.741,7.385Zm-1.3,6.8a1.991,1.991,0,0,0,1.326-.639,4.488,4.488,0,0,0,1.083-1.634,5.39,5.39,0,0,0,.4-2.027,1.636,1.636,0,0,0-.369-1.155,1.4,1.4,0,0,0-1.073-.4,1.829,1.829,0,0,0-1.282.564,3.964,3.964,0,0,0-.95,1.586,6.441,6.441,0,0,0-.359,2.15Q175.219,14.187,176.442,14.187Z" transform="translate(8059.856 3999.945) rotate(-90)" fill="#2e3e5a"/><path d="M-.5-.5h87V234.945H-.5Zm86,1H.5V233.945h85Z" transform="translate(8742.415 3746.234)" fill="#abb1bd"/><g transform="translate(7591.915 3294.179)"><path d="M1163.609,528.122h22.677V511.114h-22.677Z" fill="#ffd964"/></g><g transform="translate(7591.915 3294.179)"><path d="M1163.609,503.274h22.677V486.266h-22.677Z" fill="#8bcaca"/></g><path d="M6.217,13H.586v-.838L2.842,9.895A16.612,16.612,0,0,0,4.2,8.406a3.8,3.8,0,0,0,.492-.867,2.484,2.484,0,0,0,.164-.908,1.44,1.44,0,0,0-.416-1.087,1.593,1.593,0,0,0-1.154-.4,2.9,2.9,0,0,0-1.011.176,4.029,4.029,0,0,0-1.063.639L.7,5.295a3.949,3.949,0,0,1,2.578-.984,2.724,2.724,0,0,1,1.893.618A2.126,2.126,0,0,1,5.854,6.59,3.208,3.208,0,0,1,5.4,8.2a10.23,10.23,0,0,1-1.711,2.016L1.811,12.051V12.1H6.217Zm6.908-4.295a6.256,6.256,0,0,1-.7,3.316,2.366,2.366,0,0,1-2.142,1.1A2.346,2.346,0,0,1,8.18,12a6.132,6.132,0,0,1-.721-3.29,6.254,6.254,0,0,1,.7-3.322A2.355,2.355,0,0,1,10.283,4.3,2.359,2.359,0,0,1,12.4,5.43,6.106,6.106,0,0,1,13.125,8.705Zm-4.682,0a6.274,6.274,0,0,0,.439,2.722,1.47,1.47,0,0,0,1.4.853,1.471,1.471,0,0,0,1.409-.864,6.322,6.322,0,0,0,.437-2.71A6.28,6.28,0,0,0,11.692,6a1.472,1.472,0,0,0-1.409-.858,1.471,1.471,0,0,0-1.4.847A6.232,6.232,0,0,0,8.443,8.705ZM17.912,13h-.949V6.895q0-.762.047-1.441-.123.123-.275.258T15.34,6.854l-.516-.668,2.268-1.752h.82Zm6.861,0h-.949V6.895q0-.762.047-1.441-.123.123-.275.258T22.2,6.854l-.516-.668,2.268-1.752h.82Z" transform="translate(8783.491 3780.369)" fill="#333"/><g transform="translate(7591.915 3294.179)"><path d="M1163.609,479.274h22.677V462.266h-22.677Z" fill="#96b7df"/></g><path d="M6.217,13H.586v-.838L2.842,9.895A16.612,16.612,0,0,0,4.2,8.406a3.8,3.8,0,0,0,.492-.867,2.484,2.484,0,0,0,.164-.908,1.44,1.44,0,0,0-.416-1.087,1.593,1.593,0,0,0-1.154-.4,2.9,2.9,0,0,0-1.011.176,4.029,4.029,0,0,0-1.063.639L.7,5.295a3.949,3.949,0,0,1,2.578-.984,2.724,2.724,0,0,1,1.893.618A2.126,2.126,0,0,1,5.854,6.59,3.208,3.208,0,0,1,5.4,8.2a10.23,10.23,0,0,1-1.711,2.016L1.811,12.051V12.1H6.217Zm6.908-4.295a6.256,6.256,0,0,1-.7,3.316,2.366,2.366,0,0,1-2.142,1.1A2.346,2.346,0,0,1,8.18,12a6.132,6.132,0,0,1-.721-3.29,6.254,6.254,0,0,1,.7-3.322A2.355,2.355,0,0,1,10.283,4.3,2.359,2.359,0,0,1,12.4,5.43,6.106,6.106,0,0,1,13.125,8.705Zm-4.682,0a6.274,6.274,0,0,0,.439,2.722,1.47,1.47,0,0,0,1.4.853,1.471,1.471,0,0,0,1.409-.864,6.322,6.322,0,0,0,.437-2.71A6.28,6.28,0,0,0,11.692,6a1.472,1.472,0,0,0-1.409-.858,1.471,1.471,0,0,0-1.4.847A6.232,6.232,0,0,0,8.443,8.705ZM17.912,13h-.949V6.895q0-.762.047-1.441-.123.123-.275.258T15.34,6.854l-.516-.668,2.268-1.752h.82Zm8.936-4.295a6.256,6.256,0,0,1-.7,3.316,2.366,2.366,0,0,1-2.142,1.1A2.346,2.346,0,0,1,21.9,12a6.132,6.132,0,0,1-.721-3.29,6.254,6.254,0,0,1,.7-3.322A2.355,2.355,0,0,1,24.006,4.3,2.359,2.359,0,0,1,26.124,5.43,6.106,6.106,0,0,1,26.848,8.705Zm-4.682,0a6.274,6.274,0,0,0,.439,2.722,1.579,1.579,0,0,0,2.81-.012,6.322,6.322,0,0,0,.437-2.71A6.28,6.28,0,0,0,25.415,6a1.584,1.584,0,0,0-2.81-.012A6.232,6.232,0,0,0,22.166,8.705Z" transform="translate(8783.491 3756.369)" fill="#333"/><path d="M6.217,13H.586v-.838L2.842,9.895A16.612,16.612,0,0,0,4.2,8.406a3.8,3.8,0,0,0,.492-.867,2.484,2.484,0,0,0,.164-.908,1.44,1.44,0,0,0-.416-1.087,1.593,1.593,0,0,0-1.154-.4,2.9,2.9,0,0,0-1.011.176,4.029,4.029,0,0,0-1.063.639L.7,5.295a3.949,3.949,0,0,1,2.578-.984,2.724,2.724,0,0,1,1.893.618A2.126,2.126,0,0,1,5.854,6.59,3.208,3.208,0,0,1,5.4,8.2a10.23,10.23,0,0,1-1.711,2.016L1.811,12.051V12.1H6.217Zm6.908-4.295a6.256,6.256,0,0,1-.7,3.316,2.366,2.366,0,0,1-2.142,1.1A2.346,2.346,0,0,1,8.18,12a6.132,6.132,0,0,1-.721-3.29,6.254,6.254,0,0,1,.7-3.322A2.355,2.355,0,0,1,10.283,4.3,2.359,2.359,0,0,1,12.4,5.43,6.106,6.106,0,0,1,13.125,8.705Zm-4.682,0a6.274,6.274,0,0,0,.439,2.722,1.47,1.47,0,0,0,1.4.853,1.471,1.471,0,0,0,1.409-.864,6.322,6.322,0,0,0,.437-2.71A6.28,6.28,0,0,0,11.692,6a1.472,1.472,0,0,0-1.409-.858,1.471,1.471,0,0,0-1.4.847A6.232,6.232,0,0,0,8.443,8.705ZM17.912,13h-.949V6.895q0-.762.047-1.441-.123.123-.275.258T15.34,6.854l-.516-.668,2.268-1.752h.82ZM26.8,13H21.17v-.838l2.256-2.268a16.612,16.612,0,0,0,1.359-1.488,3.8,3.8,0,0,0,.492-.867,2.484,2.484,0,0,0,.164-.908,1.44,1.44,0,0,0-.416-1.087,1.593,1.593,0,0,0-1.154-.4,2.9,2.9,0,0,0-1.011.176,4.029,4.029,0,0,0-1.063.639l-.516-.662a3.949,3.949,0,0,1,2.578-.984,2.724,2.724,0,0,1,1.893.618,2.126,2.126,0,0,1,.686,1.661A3.208,3.208,0,0,1,25.98,8.2a10.23,10.23,0,0,1-1.711,2.016l-1.875,1.834V12.1H26.8Z" transform="translate(8783.491 3805.369)" fill="#333"/><g transform="translate(7591.915 3294.179)"><path d="M1163.609,577.122h22.677V560.114h-22.677Z" fill="#b1a8e3"/></g><g transform="translate(7591.915 3294.179)"><path d="M1163.609,552.274h22.677V535.266h-22.677Z" fill="#cc7a29"/></g><path d="M6.217,13H.586v-.838L2.842,9.895A16.612,16.612,0,0,0,4.2,8.406a3.8,3.8,0,0,0,.492-.867,2.484,2.484,0,0,0,.164-.908,1.44,1.44,0,0,0-.416-1.087,1.593,1.593,0,0,0-1.154-.4,2.9,2.9,0,0,0-1.011.176,4.029,4.029,0,0,0-1.063.639L.7,5.295a3.949,3.949,0,0,1,2.578-.984,2.724,2.724,0,0,1,1.893.618A2.126,2.126,0,0,1,5.854,6.59,3.208,3.208,0,0,1,5.4,8.2a10.23,10.23,0,0,1-1.711,2.016L1.811,12.051V12.1H6.217Zm6.908-4.295a6.256,6.256,0,0,1-.7,3.316,2.366,2.366,0,0,1-2.142,1.1A2.346,2.346,0,0,1,8.18,12a6.132,6.132,0,0,1-.721-3.29,6.254,6.254,0,0,1,.7-3.322A2.355,2.355,0,0,1,10.283,4.3,2.359,2.359,0,0,1,12.4,5.43,6.106,6.106,0,0,1,13.125,8.705Zm-4.682,0a6.274,6.274,0,0,0,.439,2.722,1.47,1.47,0,0,0,1.4.853,1.471,1.471,0,0,0,1.409-.864,6.322,6.322,0,0,0,.437-2.71A6.28,6.28,0,0,0,11.692,6a1.472,1.472,0,0,0-1.409-.858,1.471,1.471,0,0,0-1.4.847A6.232,6.232,0,0,0,8.443,8.705ZM17.912,13h-.949V6.895q0-.762.047-1.441-.123.123-.275.258T15.34,6.854l-.516-.668,2.268-1.752h.82Zm8.566-6.551a1.954,1.954,0,0,1-.46,1.342,2.3,2.3,0,0,1-1.3.7v.047a2.452,2.452,0,0,1,1.529.656,1.932,1.932,0,0,1,.5,1.383,2.243,2.243,0,0,1-.85,1.884,3.864,3.864,0,0,1-2.414.659,7,7,0,0,1-1.245-.1,4.261,4.261,0,0,1-1.1-.36v-.926a5.611,5.611,0,0,0,2.379.563q2.221,0,2.221-1.74,0-1.559-2.449-1.559h-.844V8.154H23.3a2.576,2.576,0,0,0,1.588-.442,1.452,1.452,0,0,0,.586-1.228A1.21,1.21,0,0,0,25.04,5.5a1.775,1.775,0,0,0-1.169-.357,3.607,3.607,0,0,0-1.061.152,4.746,4.746,0,0,0-1.137.563L21.182,5.2A4.1,4.1,0,0,1,22.4,4.548a4.419,4.419,0,0,1,1.45-.237,2.963,2.963,0,0,1,1.939.571A1.924,1.924,0,0,1,26.479,6.449Z" transform="translate(8783.491 3829.369)" fill="#333"/><path d="M6.217,13H.586v-.838L2.842,9.895A16.612,16.612,0,0,0,4.2,8.406a3.8,3.8,0,0,0,.492-.867,2.484,2.484,0,0,0,.164-.908,1.44,1.44,0,0,0-.416-1.087,1.593,1.593,0,0,0-1.154-.4,2.9,2.9,0,0,0-1.011.176,4.029,4.029,0,0,0-1.063.639L.7,5.295a3.949,3.949,0,0,1,2.578-.984,2.724,2.724,0,0,1,1.893.618A2.126,2.126,0,0,1,5.854,6.59,3.208,3.208,0,0,1,5.4,8.2a10.23,10.23,0,0,1-1.711,2.016L1.811,12.051V12.1H6.217Zm6.908-4.295a6.256,6.256,0,0,1-.7,3.316,2.366,2.366,0,0,1-2.142,1.1A2.346,2.346,0,0,1,8.18,12a6.132,6.132,0,0,1-.721-3.29,6.254,6.254,0,0,1,.7-3.322A2.355,2.355,0,0,1,10.283,4.3,2.359,2.359,0,0,1,12.4,5.43,6.106,6.106,0,0,1,13.125,8.705Zm-4.682,0a6.274,6.274,0,0,0,.439,2.722,1.47,1.47,0,0,0,1.4.853,1.471,1.471,0,0,0,1.409-.864,6.322,6.322,0,0,0,.437-2.71A6.28,6.28,0,0,0,11.692,6a1.472,1.472,0,0,0-1.409-.858,1.471,1.471,0,0,0-1.4.847A6.232,6.232,0,0,0,8.443,8.705ZM17.912,13h-.949V6.895q0-.762.047-1.441-.123.123-.275.258T15.34,6.854l-.516-.668,2.268-1.752h.82Zm9.293-1.969H25.934V13H25V11.031H20.836v-.85L24.9,4.387h1.031v5.76h1.271ZM25,10.146V7.3q0-.838.059-1.893h-.047a8.8,8.8,0,0,1-.527.932l-2.678,3.809Z" transform="translate(8783.491 3854.369)" fill="#333"/><g transform="translate(7591.915 3294.179)"><path d="M1163.609,626.122h22.677V609.114h-22.677Z" fill="#a0d1a0"/></g><g transform="translate(7591.915 3294.179)"><path d="M1163.609,601.274h22.677V584.266h-22.677Z" fill="#2e6cb9"/></g><path d="M6.217,13H.586v-.838L2.842,9.895A16.612,16.612,0,0,0,4.2,8.406a3.8,3.8,0,0,0,.492-.867,2.484,2.484,0,0,0,.164-.908,1.44,1.44,0,0,0-.416-1.087,1.593,1.593,0,0,0-1.154-.4,2.9,2.9,0,0,0-1.011.176,4.029,4.029,0,0,0-1.063.639L.7,5.295a3.949,3.949,0,0,1,2.578-.984,2.724,2.724,0,0,1,1.893.618A2.126,2.126,0,0,1,5.854,6.59,3.208,3.208,0,0,1,5.4,8.2a10.23,10.23,0,0,1-1.711,2.016L1.811,12.051V12.1H6.217Zm6.908-4.295a6.256,6.256,0,0,1-.7,3.316,2.366,2.366,0,0,1-2.142,1.1A2.346,2.346,0,0,1,8.18,12a6.132,6.132,0,0,1-.721-3.29,6.254,6.254,0,0,1,.7-3.322A2.355,2.355,0,0,1,10.283,4.3,2.359,2.359,0,0,1,12.4,5.43,6.106,6.106,0,0,1,13.125,8.705Zm-4.682,0a6.274,6.274,0,0,0,.439,2.722,1.47,1.47,0,0,0,1.4.853,1.471,1.471,0,0,0,1.409-.864,6.322,6.322,0,0,0,.437-2.71A6.28,6.28,0,0,0,11.692,6a1.472,1.472,0,0,0-1.409-.858,1.471,1.471,0,0,0-1.4.847A6.232,6.232,0,0,0,8.443,8.705ZM17.912,13h-.949V6.895q0-.762.047-1.441-.123.123-.275.258T15.34,6.854l-.516-.668,2.268-1.752h.82Zm5.936-5.232a3.15,3.15,0,0,1,2.13.671,2.3,2.3,0,0,1,.776,1.837,2.653,2.653,0,0,1-.847,2.086,3.382,3.382,0,0,1-2.335.756,4.3,4.3,0,0,1-2.209-.463v-.937a3.357,3.357,0,0,0,1.02.413,5.031,5.031,0,0,0,1.2.149,2.4,2.4,0,0,0,1.6-.486,1.744,1.744,0,0,0,.571-1.406q0-1.793-2.2-1.793a8.748,8.748,0,0,0-1.488.17l-.5-.322.322-4.008h4.26v.9H22.723L22.506,7.9A6.827,6.827,0,0,1,23.848,7.768Z" transform="translate(8783.491 3878.369)" fill="#333"/><path d="M6.217,13H.586v-.838L2.842,9.895A16.612,16.612,0,0,0,4.2,8.406a3.8,3.8,0,0,0,.492-.867,2.484,2.484,0,0,0,.164-.908,1.44,1.44,0,0,0-.416-1.087,1.593,1.593,0,0,0-1.154-.4,2.9,2.9,0,0,0-1.011.176,4.029,4.029,0,0,0-1.063.639L.7,5.295a3.949,3.949,0,0,1,2.578-.984,2.724,2.724,0,0,1,1.893.618A2.126,2.126,0,0,1,5.854,6.59,3.208,3.208,0,0,1,5.4,8.2a10.23,10.23,0,0,1-1.711,2.016L1.811,12.051V12.1H6.217Zm6.908-4.295a6.256,6.256,0,0,1-.7,3.316,2.366,2.366,0,0,1-2.142,1.1A2.346,2.346,0,0,1,8.18,12a6.132,6.132,0,0,1-.721-3.29,6.254,6.254,0,0,1,.7-3.322A2.355,2.355,0,0,1,10.283,4.3,2.359,2.359,0,0,1,12.4,5.43,6.106,6.106,0,0,1,13.125,8.705Zm-4.682,0a6.274,6.274,0,0,0,.439,2.722,1.47,1.47,0,0,0,1.4.853,1.471,1.471,0,0,0,1.409-.864,6.322,6.322,0,0,0,.437-2.71A6.28,6.28,0,0,0,11.692,6a1.472,1.472,0,0,0-1.409-.858,1.471,1.471,0,0,0-1.4.847A6.232,6.232,0,0,0,8.443,8.705ZM17.912,13h-.949V6.895q0-.762.047-1.441-.123.123-.275.258T15.34,6.854l-.516-.668,2.268-1.752h.82ZM21.27,9.338a6.06,6.06,0,0,1,.981-3.776,3.466,3.466,0,0,1,2.9-1.251,3.868,3.868,0,0,1,1.043.111V5.26a3.337,3.337,0,0,0-1.031-.146,2.6,2.6,0,0,0-2.1.858,4.4,4.4,0,0,0-.8,2.7h.07a2.243,2.243,0,0,1,2.039-1.008,2.4,2.4,0,0,1,1.819.7,2.629,2.629,0,0,1,.665,1.893,2.918,2.918,0,0,1-.729,2.1,2.6,2.6,0,0,1-1.972.765,2.534,2.534,0,0,1-2.109-1A4.42,4.42,0,0,1,21.27,9.338Zm2.877,2.953a1.628,1.628,0,0,0,1.292-.524,2.229,2.229,0,0,0,.46-1.515,1.953,1.953,0,0,0-.428-1.336,1.611,1.611,0,0,0-1.277-.486,2.155,2.155,0,0,0-.967.217,1.789,1.789,0,0,0-.7.6,1.381,1.381,0,0,0-.261.791A2.712,2.712,0,0,0,22.5,11.16a1.982,1.982,0,0,0,.665.826A1.657,1.657,0,0,0,24.146,12.291Z" transform="translate(8783.491 3903.369)" fill="#333"/><g transform="translate(7591.915 3294.179)"><path d="M1163.609,675.122h22.677V658.114h-22.677Z" fill="#7468b4"/></g><g transform="translate(7591.915 3294.179)"><path d="M1163.609,650.274h22.677V633.266h-22.677Z" fill="#489595"/></g><path d="M6.217,13H.586v-.838L2.842,9.895A16.612,16.612,0,0,0,4.2,8.406a3.8,3.8,0,0,0,.492-.867,2.484,2.484,0,0,0,.164-.908,1.44,1.44,0,0,0-.416-1.087,1.593,1.593,0,0,0-1.154-.4,2.9,2.9,0,0,0-1.011.176,4.029,4.029,0,0,0-1.063.639L.7,5.295a3.949,3.949,0,0,1,2.578-.984,2.724,2.724,0,0,1,1.893.618A2.126,2.126,0,0,1,5.854,6.59,3.208,3.208,0,0,1,5.4,8.2a10.23,10.23,0,0,1-1.711,2.016L1.811,12.051V12.1H6.217Zm6.908-4.295a6.256,6.256,0,0,1-.7,3.316,2.366,2.366,0,0,1-2.142,1.1A2.346,2.346,0,0,1,8.18,12a6.132,6.132,0,0,1-.721-3.29,6.254,6.254,0,0,1,.7-3.322A2.355,2.355,0,0,1,10.283,4.3,2.359,2.359,0,0,1,12.4,5.43,6.106,6.106,0,0,1,13.125,8.705Zm-4.682,0a6.274,6.274,0,0,0,.439,2.722,1.47,1.47,0,0,0,1.4.853,1.471,1.471,0,0,0,1.409-.864,6.322,6.322,0,0,0,.437-2.71A6.28,6.28,0,0,0,11.692,6a1.472,1.472,0,0,0-1.409-.858,1.471,1.471,0,0,0-1.4.847A6.232,6.232,0,0,0,8.443,8.705ZM17.912,13h-.949V6.895q0-.762.047-1.441-.123.123-.275.258T15.34,6.854l-.516-.668,2.268-1.752h.82Zm4.342,0L25.8,5.33h-4.67v-.9h5.7v.779L23.332,13Z" transform="translate(8783.491 3927.369)" fill="#333"/><path d="M6.217,13H.586v-.838L2.842,9.895A16.612,16.612,0,0,0,4.2,8.406a3.8,3.8,0,0,0,.492-.867,2.484,2.484,0,0,0,.164-.908,1.44,1.44,0,0,0-.416-1.087,1.593,1.593,0,0,0-1.154-.4,2.9,2.9,0,0,0-1.011.176,4.029,4.029,0,0,0-1.063.639L.7,5.295a3.949,3.949,0,0,1,2.578-.984,2.724,2.724,0,0,1,1.893.618A2.126,2.126,0,0,1,5.854,6.59,3.208,3.208,0,0,1,5.4,8.2a10.23,10.23,0,0,1-1.711,2.016L1.811,12.051V12.1H6.217Zm6.908-4.295a6.256,6.256,0,0,1-.7,3.316,2.366,2.366,0,0,1-2.142,1.1A2.346,2.346,0,0,1,8.18,12a6.132,6.132,0,0,1-.721-3.29,6.254,6.254,0,0,1,.7-3.322A2.355,2.355,0,0,1,10.283,4.3,2.359,2.359,0,0,1,12.4,5.43,6.106,6.106,0,0,1,13.125,8.705Zm-4.682,0a6.274,6.274,0,0,0,.439,2.722,1.47,1.47,0,0,0,1.4.853,1.471,1.471,0,0,0,1.409-.864,6.322,6.322,0,0,0,.437-2.71A6.28,6.28,0,0,0,11.692,6a1.472,1.472,0,0,0-1.409-.858,1.471,1.471,0,0,0-1.4.847A6.232,6.232,0,0,0,8.443,8.705ZM17.912,13h-.949V6.895q0-.762.047-1.441-.123.123-.275.258T15.34,6.854l-.516-.668,2.268-1.752h.82Zm6.094-8.689a2.9,2.9,0,0,1,1.857.545,1.817,1.817,0,0,1,.686,1.506,1.875,1.875,0,0,1-.393,1.154,3.468,3.468,0,0,1-1.254.949,4.216,4.216,0,0,1,1.482,1.046,1.969,1.969,0,0,1,.439,1.269,2.125,2.125,0,0,1-.744,1.7,3.038,3.038,0,0,1-2.039.636,3.266,3.266,0,0,1-2.109-.6,2.069,2.069,0,0,1-.738-1.7,2.541,2.541,0,0,1,1.793-2.291,3.309,3.309,0,0,1-1.16-.987,2.1,2.1,0,0,1-.352-1.187,1.808,1.808,0,0,1,.688-1.485A2.855,2.855,0,0,1,24.006,4.311Zm-1.852,6.527a1.326,1.326,0,0,0,.489,1.1,2.143,2.143,0,0,0,1.374.393,2.047,2.047,0,0,0,1.359-.41,1.393,1.393,0,0,0,.486-1.125,1.371,1.371,0,0,0-.457-1.011,4.663,4.663,0,0,0-1.594-.858,3.468,3.468,0,0,0-1.266.829A1.607,1.607,0,0,0,22.154,10.838ZM23.994,5.1a1.725,1.725,0,0,0-1.148.352,1.166,1.166,0,0,0-.416.938,1.342,1.342,0,0,0,.346.926,3.61,3.61,0,0,0,1.277.773,3.2,3.2,0,0,0,1.187-.756,1.4,1.4,0,0,0,.349-.943,1.153,1.153,0,0,0-.425-.94A1.79,1.79,0,0,0,23.994,5.1Z" transform="translate(8783.491 3952.369)" fill="#333"/><path d="M50.887,15H49.253V6.407H46.314v-1.4h7.513v1.4H50.887ZM58.8,15l-.321-1.053H58.42a3.1,3.1,0,0,1-1.1.94,3.481,3.481,0,0,1-1.422.25,2.406,2.406,0,0,1-1.74-.6,2.251,2.251,0,0,1-.625-1.7,2,2,0,0,1,.868-1.764,5.006,5.006,0,0,1,2.646-.649l1.306-.041v-.4a1.529,1.529,0,0,0-.338-1.083,1.38,1.38,0,0,0-1.049-.359A3.628,3.628,0,0,0,55.85,8.7a8.409,8.409,0,0,0-1.025.4l-.52-1.148a5.591,5.591,0,0,1,1.347-.489A6.2,6.2,0,0,1,57.033,7.3a3.27,3.27,0,0,1,2.177.629,2.462,2.462,0,0,1,.735,1.976V15ZM56.4,13.906a1.99,1.99,0,0,0,1.4-.489,1.772,1.772,0,0,0,.53-1.371v-.656l-.971.041a3.321,3.321,0,0,0-1.651.379,1.153,1.153,0,0,0-.516,1.036,1.011,1.011,0,0,0,.3.783A1.292,1.292,0,0,0,56.4,13.906Zm10.862-1.06a1.978,1.978,0,0,1-.807,1.7,3.863,3.863,0,0,1-2.311.591,5.458,5.458,0,0,1-2.427-.458V13.291a5.958,5.958,0,0,0,2.481.615q1.483,0,1.483-.9a.709.709,0,0,0-.164-.479,1.942,1.942,0,0,0-.54-.4,9.293,9.293,0,0,0-1.046-.465,4.838,4.838,0,0,1-1.767-1.012,1.872,1.872,0,0,1-.461-1.312,1.724,1.724,0,0,1,.783-1.507A3.714,3.714,0,0,1,64.62,7.3a6.031,6.031,0,0,1,2.522.54l-.52,1.21a5.61,5.61,0,0,0-2.058-.506q-1.271,0-1.271.725a.729.729,0,0,0,.332.6,7.291,7.291,0,0,0,1.446.677,6.609,6.609,0,0,1,1.36.663,1.982,1.982,0,0,1,.629.694A2.008,2.008,0,0,1,67.266,12.847Zm3.288-1.839.909-1.135,2.283-2.434H75.6l-3.042,3.247L75.79,15H73.9l-2.427-3.315-.882.725V15H69V4.363H70.6V9.552l-.082,1.456Zm15.169,1.839a1.978,1.978,0,0,1-.807,1.7,3.863,3.863,0,0,1-2.311.591,5.458,5.458,0,0,1-2.427-.458V13.291a5.958,5.958,0,0,0,2.481.615q1.483,0,1.483-.9a.709.709,0,0,0-.164-.479,1.942,1.942,0,0,0-.54-.4,9.293,9.293,0,0,0-1.046-.465,4.838,4.838,0,0,1-1.767-1.012,1.872,1.872,0,0,1-.461-1.312,1.724,1.724,0,0,1,.783-1.507A3.714,3.714,0,0,1,83.078,7.3a6.031,6.031,0,0,1,2.522.54l-.52,1.21a5.61,5.61,0,0,0-2.058-.506q-1.271,0-1.271.725a.729.729,0,0,0,.332.6,7.291,7.291,0,0,0,1.446.677,6.609,6.609,0,0,1,1.36.663,1.982,1.982,0,0,1,.629.694A2.008,2.008,0,0,1,85.723,12.847ZM92.791,15l-.226-.991h-.082a2.279,2.279,0,0,1-.954.827,3.188,3.188,0,0,1-1.412.3,2.771,2.771,0,0,1-2.051-.684,2.834,2.834,0,0,1-.677-2.071V7.439h1.62V12.1a2.023,2.023,0,0,0,.355,1.3,1.357,1.357,0,0,0,1.114.434,1.774,1.774,0,0,0,1.487-.6,3.334,3.334,0,0,0,.475-2.027V7.439h1.613V15Zm6.6.137a3.31,3.31,0,0,1-2.608-1,4.184,4.184,0,0,1-.892-2.875,4.208,4.208,0,0,1,.933-2.933,3.461,3.461,0,0,1,2.7-1.025,5.054,5.054,0,0,1,2.153.444l-.485,1.292a4.865,4.865,0,0,0-1.682-.4q-1.962,0-1.962,2.6a3.119,3.119,0,0,0,.489,1.911,1.692,1.692,0,0,0,1.432.639,4.109,4.109,0,0,0,2.03-.533v1.4a3.173,3.173,0,0,1-.919.362A5.517,5.517,0,0,1,99.395,15.137Zm6.932,0a3.31,3.31,0,0,1-2.608-1,4.184,4.184,0,0,1-.892-2.875,4.208,4.208,0,0,1,.933-2.933,3.461,3.461,0,0,1,2.7-1.025,5.054,5.054,0,0,1,2.153.444l-.485,1.292a4.865,4.865,0,0,0-1.682-.4q-1.962,0-1.962,2.6a3.119,3.119,0,0,0,.489,1.911,1.692,1.692,0,0,0,1.432.639,4.109,4.109,0,0,0,2.03-.533v1.4a3.173,3.173,0,0,1-.919.362A5.517,5.517,0,0,1,106.327,15.137Zm7.185,0a3.657,3.657,0,0,1-2.758-1.029,3.906,3.906,0,0,1-.995-2.833,4.285,4.285,0,0,1,.923-2.912,3.188,3.188,0,0,1,2.536-1.06,3.116,3.116,0,0,1,2.365.909,3.474,3.474,0,0,1,.868,2.5v.868h-5.038a2.483,2.483,0,0,0,.595,1.692,2.071,2.071,0,0,0,1.579.591,5.829,5.829,0,0,0,1.248-.126,6.539,6.539,0,0,0,1.241-.42v1.306a4.932,4.932,0,0,1-1.189.4A7.294,7.294,0,0,1,113.511,15.137Zm-.294-6.617A1.614,1.614,0,0,0,111.99,9a2.313,2.313,0,0,0-.55,1.415h3.432A2.093,2.093,0,0,0,114.42,9,1.543,1.543,0,0,0,113.217,8.52Zm10.138,4.327a1.978,1.978,0,0,1-.807,1.7,3.863,3.863,0,0,1-2.311.591,5.458,5.458,0,0,1-2.427-.458V13.291a5.958,5.958,0,0,0,2.481.615q1.483,0,1.483-.9a.709.709,0,0,0-.164-.479,1.942,1.942,0,0,0-.54-.4,9.293,9.293,0,0,0-1.046-.465,4.838,4.838,0,0,1-1.767-1.012,1.872,1.872,0,0,1-.461-1.312,1.724,1.724,0,0,1,.783-1.507,3.714,3.714,0,0,1,2.129-.537,6.031,6.031,0,0,1,2.522.54l-.52,1.21a5.61,5.61,0,0,0-2.058-.506q-1.271,0-1.271.725a.729.729,0,0,0,.332.6,7.291,7.291,0,0,0,1.446.677,6.609,6.609,0,0,1,1.36.663,1.982,1.982,0,0,1,.629.694A2.008,2.008,0,0,1,123.355,12.847Zm6.815,0a1.978,1.978,0,0,1-.807,1.7,3.863,3.863,0,0,1-2.311.591,5.458,5.458,0,0,1-2.427-.458V13.291a5.958,5.958,0,0,0,2.481.615q1.483,0,1.483-.9a.709.709,0,0,0-.164-.479,1.942,1.942,0,0,0-.54-.4,9.293,9.293,0,0,0-1.046-.465,4.838,4.838,0,0,1-1.767-1.012,1.872,1.872,0,0,1-.461-1.312,1.724,1.724,0,0,1,.783-1.507,3.714,3.714,0,0,1,2.129-.537,6.031,6.031,0,0,1,2.522.54l-.52,1.21a5.61,5.61,0,0,0-2.058-.506q-1.271,0-1.271.725a.729.729,0,0,0,.332.6,7.291,7.291,0,0,0,1.446.677,6.609,6.609,0,0,1,1.36.663,1.982,1.982,0,0,1,.629.694A2.008,2.008,0,0,1,130.17,12.847ZM139.378,7.3a3.867,3.867,0,0,1,.8.068l-.157,1.5a3.036,3.036,0,0,0-.711-.082,2.057,2.057,0,0,0-1.562.629,2.273,2.273,0,0,0-.6,1.634V15h-1.606V7.439H136.8l.212,1.333h.082a3,3,0,0,1,.981-1.073A2.332,2.332,0,0,1,139.378,7.3ZM146.03,15l-.321-1.053h-.055a3.1,3.1,0,0,1-1.1.94,3.481,3.481,0,0,1-1.422.25,2.406,2.406,0,0,1-1.74-.6,2.251,2.251,0,0,1-.625-1.7,2,2,0,0,1,.868-1.764,5.006,5.006,0,0,1,2.646-.649l1.306-.041v-.4a1.529,1.529,0,0,0-.338-1.083,1.38,1.38,0,0,0-1.049-.359,3.628,3.628,0,0,0-1.114.171,8.409,8.409,0,0,0-1.025.4l-.52-1.148a5.591,5.591,0,0,1,1.347-.489,6.2,6.2,0,0,1,1.381-.167,3.27,3.27,0,0,1,2.177.629,2.462,2.462,0,0,1,.735,1.976V15Zm-2.393-1.094a1.99,1.99,0,0,0,1.4-.489,1.772,1.772,0,0,0,.53-1.371v-.656l-.971.041a3.321,3.321,0,0,0-1.651.379,1.153,1.153,0,0,0-.516,1.036,1.011,1.011,0,0,0,.3.783A1.292,1.292,0,0,0,143.637,13.906Zm8.6-.068a3.907,3.907,0,0,0,1.176-.185v1.21a3.243,3.243,0,0,1-.687.195,4.733,4.733,0,0,1-.872.079q-2.283,0-2.283-2.406V8.656h-1.032V7.945l1.107-.588.547-1.6h.991V7.439h2.153V8.656h-2.153V12.7a1.135,1.135,0,0,0,.291.858A1.059,1.059,0,0,0,152.237,13.838Zm5.988,1.3a3.657,3.657,0,0,1-2.758-1.029,3.906,3.906,0,0,1-.995-2.833,4.285,4.285,0,0,1,.923-2.912,3.188,3.188,0,0,1,2.536-1.06,3.116,3.116,0,0,1,2.365.909,3.474,3.474,0,0,1,.868,2.5v.868h-5.038a2.483,2.483,0,0,0,.595,1.692,2.071,2.071,0,0,0,1.579.591,5.829,5.829,0,0,0,1.248-.126,6.54,6.54,0,0,0,1.241-.42v1.306a4.932,4.932,0,0,1-1.189.4A7.294,7.294,0,0,1,158.225,15.137Zm-.294-6.617A1.614,1.614,0,0,0,156.7,9a2.313,2.313,0,0,0-.55,1.415h3.432A2.093,2.093,0,0,0,159.134,9,1.543,1.543,0,0,0,157.931,8.52Zm12.489.137h-1.846V15h-1.613V8.656h-1.244V7.9l1.244-.492V6.92a2.751,2.751,0,0,1,.629-1.986,2.571,2.571,0,0,1,1.921-.646,5.126,5.126,0,0,1,1.668.28l-.424,1.217a3.7,3.7,0,0,0-1.135-.191.924.924,0,0,0-.8.338,1.7,1.7,0,0,0-.25,1.015v.492h1.846Zm7.991,2.55a4.127,4.127,0,0,1-.95,2.892,3.4,3.4,0,0,1-2.646,1.039,3.625,3.625,0,0,1-1.873-.479,3.159,3.159,0,0,1-1.251-1.374,4.68,4.68,0,0,1-.437-2.078,4.1,4.1,0,0,1,.943-2.871A3.42,3.42,0,0,1,174.857,7.3a3.331,3.331,0,0,1,2.6,1.056A4.08,4.08,0,0,1,178.412,11.206Zm-5.5,0q0,2.618,1.935,2.618,1.914,0,1.914-2.618,0-2.591-1.928-2.591a1.644,1.644,0,0,0-1.466.67A3.409,3.409,0,0,0,172.909,11.206Zm11.184-3.9a3.867,3.867,0,0,1,.8.068l-.157,1.5a3.036,3.036,0,0,0-.711-.082,2.057,2.057,0,0,0-1.562.629,2.273,2.273,0,0,0-.6,1.634V15h-1.606V7.439h1.258l.212,1.333h.082A3,3,0,0,1,182.79,7.7,2.332,2.332,0,0,1,184.092,7.3Zm8.654,6.535a3.907,3.907,0,0,0,1.176-.185v1.21a3.243,3.243,0,0,1-.687.195,4.733,4.733,0,0,1-.872.079q-2.283,0-2.283-2.406V8.656h-1.032V7.945l1.107-.588.547-1.6h.991V7.439h2.153V8.656h-2.153V12.7a1.135,1.135,0,0,0,.291.858A1.059,1.059,0,0,0,192.746,13.838ZM202.084,15h-1.613V10.352a2.034,2.034,0,0,0-.352-1.306A1.361,1.361,0,0,0,199,8.615a1.774,1.774,0,0,0-1.487.6,3.334,3.334,0,0,0-.475,2.027V15h-1.606V4.363h1.606v2.7a12.6,12.6,0,0,1-.082,1.388h.1a2.231,2.231,0,0,1,.913-.848,2.941,2.941,0,0,1,1.364-.3,2.438,2.438,0,0,1,2.748,2.769Zm5.537.137a3.657,3.657,0,0,1-2.758-1.029,3.906,3.906,0,0,1-.995-2.833,4.285,4.285,0,0,1,.923-2.912,3.188,3.188,0,0,1,2.536-1.06,3.116,3.116,0,0,1,2.365.909,3.474,3.474,0,0,1,.868,2.5v.868h-5.038a2.483,2.483,0,0,0,.595,1.692,2.071,2.071,0,0,0,1.579.591,5.829,5.829,0,0,0,1.248-.126,6.54,6.54,0,0,0,1.241-.42v1.306a4.932,4.932,0,0,1-1.189.4A7.294,7.294,0,0,1,207.621,15.137Zm-.294-6.617A1.614,1.614,0,0,0,206.1,9a2.313,2.313,0,0,0-.55,1.415h3.432A2.093,2.093,0,0,0,208.531,9,1.543,1.543,0,0,0,207.328,8.52Zm7.547-1.08h1.75l1.538,4.286a8.132,8.132,0,0,1,.465,1.723h.055a7.185,7.185,0,0,1,.226-.913q.164-.537,1.736-5.1h1.736L219.147,16a3.067,3.067,0,0,1-2.939,2.358,4.626,4.626,0,0,1-1.039-.116V16.976a3.765,3.765,0,0,0,.827.082,1.694,1.694,0,0,0,1.634-1.347l.28-.711Zm11.956,7.7a3.657,3.657,0,0,1-2.758-1.029,3.906,3.906,0,0,1-.995-2.833A4.285,4.285,0,0,1,224,8.362a3.188,3.188,0,0,1,2.536-1.06,3.116,3.116,0,0,1,2.365.909,3.474,3.474,0,0,1,.868,2.5v.868h-5.038a2.483,2.483,0,0,0,.595,1.692,2.071,2.071,0,0,0,1.579.591,5.829,5.829,0,0,0,1.248-.126,6.54,6.54,0,0,0,1.241-.42v1.306a4.932,4.932,0,0,1-1.189.4A7.294,7.294,0,0,1,226.83,15.137Zm-.294-6.617A1.614,1.614,0,0,0,225.309,9a2.313,2.313,0,0,0-.55,1.415h3.432A2.093,2.093,0,0,0,227.74,9,1.543,1.543,0,0,0,226.537,8.52ZM236.326,15,236,13.947h-.055a3.1,3.1,0,0,1-1.1.94,3.481,3.481,0,0,1-1.422.25,2.406,2.406,0,0,1-1.74-.6,2.251,2.251,0,0,1-.625-1.7,2,2,0,0,1,.868-1.764,5.006,5.006,0,0,1,2.646-.649l1.306-.041v-.4a1.529,1.529,0,0,0-.338-1.083,1.38,1.38,0,0,0-1.049-.359,3.628,3.628,0,0,0-1.114.171,8.409,8.409,0,0,0-1.025.4l-.52-1.148a5.591,5.591,0,0,1,1.347-.489,6.2,6.2,0,0,1,1.381-.167,3.27,3.27,0,0,1,2.177.629,2.462,2.462,0,0,1,.735,1.976V15Zm-2.393-1.094a1.99,1.99,0,0,0,1.4-.489,1.772,1.772,0,0,0,.53-1.371v-.656l-.971.041a3.321,3.321,0,0,0-1.651.379,1.153,1.153,0,0,0-.516,1.036,1.011,1.011,0,0,0,.3.783A1.292,1.292,0,0,0,233.933,13.906Zm9.618-6.6a3.867,3.867,0,0,1,.8.068l-.157,1.5a3.036,3.036,0,0,0-.711-.082,2.057,2.057,0,0,0-1.562.629,2.273,2.273,0,0,0-.6,1.634V15h-1.606V7.439h1.258l.212,1.333h.082a3,3,0,0,1,.981-1.073A2.332,2.332,0,0,1,243.551,7.3Z" transform="translate(8209.86 4038.909)" fill="#2e3e5a"/><path d="M16.3,5.43a4.041,4.041,0,0,1,2.57.746,2.413,2.413,0,0,1,.945,2,3.139,3.139,0,0,1-2.109,2.8,5.426,5.426,0,0,1,1.91,1.414,2.664,2.664,0,0,1,.566,1.656A2.782,2.782,0,0,1,19.142,16.3a4.305,4.305,0,0,1-2.812.852,4.6,4.6,0,0,1-2.883-.8A2.7,2.7,0,0,1,12.423,14.1a2.912,2.912,0,0,1,.535-1.715,4.486,4.486,0,0,1,1.754-1.355,4.411,4.411,0,0,1-1.492-1.32,2.835,2.835,0,0,1-.445-1.562,2.356,2.356,0,0,1,.977-1.98A4.112,4.112,0,0,1,16.3,5.43Zm-2.117,8.609a1.514,1.514,0,0,0,.57,1.262,2.435,2.435,0,0,0,1.547.449,2.381,2.381,0,0,0,1.566-.465,1.555,1.555,0,0,0,.559-1.262,1.616,1.616,0,0,0-.516-1.156,4.863,4.863,0,0,0-1.562-.969l-.227-.1a4.02,4.02,0,0,0-1.484,1A1.889,1.889,0,0,0,14.181,14.039Zm2.1-7.2a1.935,1.935,0,0,0-1.258.387,1.281,1.281,0,0,0-.477,1.051,1.512,1.512,0,0,0,.172.727,1.9,1.9,0,0,0,.5.582,6,6,0,0,0,1.109.629,3.684,3.684,0,0,0,1.324-.871,1.6,1.6,0,0,0,.387-1.066,1.277,1.277,0,0,0-.48-1.051A1.977,1.977,0,0,0,16.283,6.844Zm13.031,4.445a8.125,8.125,0,0,1-.957,4.422,3.267,3.267,0,0,1-2.926,1.445,3.243,3.243,0,0,1-2.891-1.492,7.979,7.979,0,0,1-.984-4.375,8.17,8.17,0,0,1,.957-4.457A3.268,3.268,0,0,1,25.431,5.4a3.246,3.246,0,0,1,2.9,1.5A8.039,8.039,0,0,1,29.314,11.289Zm-5.9,0a8.322,8.322,0,0,0,.48,3.336,1.679,1.679,0,0,0,3.078-.016,8.216,8.216,0,0,0,.488-3.32,8.281,8.281,0,0,0-.488-3.324,1.673,1.673,0,0,0-3.078-.02A8.383,8.383,0,0,0,23.416,11.289ZM32.181,9a4.982,4.982,0,0,0,.227,1.734.773.773,0,0,0,.742.57q1.031,0,1.031-2.3T33.15,6.7a.773.773,0,0,0-.742.57A4.982,4.982,0,0,0,32.181,9ZM35.7,8.984a4.643,4.643,0,0,1-.645,2.7,2.188,2.188,0,0,1-1.9.9,2.114,2.114,0,0,1-1.84-.934,4.625,4.625,0,0,1-.652-2.668q0-3.57,2.492-3.57a2.178,2.178,0,0,1,1.887.926A4.513,4.513,0,0,1,35.7,8.984Zm3.922,4.578a4.973,4.973,0,0,0,.23,1.742.782.782,0,0,0,.746.578q1.023,0,1.023-2.32,0-2.289-1.023-2.289a.779.779,0,0,0-.746.563A4.836,4.836,0,0,0,39.619,13.563Zm3.516,0a4.6,4.6,0,0,1-.648,2.7,2.186,2.186,0,0,1-1.891.9,2.13,2.13,0,0,1-1.844-.926,4.581,4.581,0,0,1-.656-2.668q0-3.57,2.5-3.57a2.178,2.178,0,0,1,1.871.922A4.469,4.469,0,0,1,43.134,13.563Zm-2.32-7.984L34.478,17H32.962L39.3,5.578Z" transform="translate(8171.491 3803.426)" fill="#2e3e5a"/><g transform="translate(7591.915 3294.179)"><path d="M517,734.265h56.5V559H517Z" fill="#96b7df"/></g><path d="M13.736,17l4.516-9.789H12.314V5.594h7.9V6.875L15.72,17ZM28.884,8.2a2.646,2.646,0,0,1-.633,1.809,3.185,3.185,0,0,1-1.781.973v.063a3.448,3.448,0,0,1,2.063.855,2.447,2.447,0,0,1,.688,1.816,3.018,3.018,0,0,1-1.164,2.543,5.34,5.34,0,0,1-3.312.895,7.459,7.459,0,0,1-3.2-.617V14.906a7.316,7.316,0,0,0,1.539.555,6.682,6.682,0,0,0,1.563.2,3.3,3.3,0,0,0,1.984-.492,1.781,1.781,0,0,0,.656-1.523,1.45,1.45,0,0,0-.727-1.344,4.64,4.64,0,0,0-2.281-.43h-.992V10.375h1.008q2.734,0,2.734-1.891a1.394,1.394,0,0,0-.477-1.133,2.146,2.146,0,0,0-1.406-.4,4.258,4.258,0,0,0-1.25.184,5.918,5.918,0,0,0-1.422.715l-.9-1.281A5.988,5.988,0,0,1,25.22,5.414a4.341,4.341,0,0,1,2.7.742A2.436,2.436,0,0,1,28.884,8.2Zm3.3.8a4.982,4.982,0,0,0,.227,1.734.773.773,0,0,0,.742.57q1.031,0,1.031-2.3T33.15,6.7a.773.773,0,0,0-.742.57A4.982,4.982,0,0,0,32.181,9ZM35.7,8.984a4.643,4.643,0,0,1-.645,2.7,2.188,2.188,0,0,1-1.9.9,2.114,2.114,0,0,1-1.84-.934,4.625,4.625,0,0,1-.652-2.668q0-3.57,2.492-3.57a2.178,2.178,0,0,1,1.887.926A4.513,4.513,0,0,1,35.7,8.984Zm3.922,4.578a4.973,4.973,0,0,0,.23,1.742.782.782,0,0,0,.746.578q1.023,0,1.023-2.32,0-2.289-1.023-2.289a.779.779,0,0,0-.746.563A4.836,4.836,0,0,0,39.619,13.563Zm3.516,0a4.6,4.6,0,0,1-.648,2.7,2.186,2.186,0,0,1-1.891.9,2.13,2.13,0,0,1-1.844-.926,4.581,4.581,0,0,1-.656-2.668q0-3.57,2.5-3.57a2.178,2.178,0,0,1,1.871.922A4.469,4.469,0,0,1,43.134,13.563Zm-2.32-7.984L34.478,17H32.962L39.3,5.578Z" transform="translate(8109.491 3831.426)" fill="#2e3e5a"/><path d="M20.166,10.453a7.854,7.854,0,0,1-1.359,5.039,4.976,4.976,0,0,1-4.094,1.664,6.249,6.249,0,0,1-1.492-.125V15.492a5.149,5.149,0,0,0,1.4.2,3.576,3.576,0,0,0,2.773-1,4.855,4.855,0,0,0,1-3.141H18.3a2.767,2.767,0,0,1-1.113,1.016,3.5,3.5,0,0,1-1.527.313,3.073,3.073,0,0,1-2.383-.945,3.691,3.691,0,0,1-.867-2.594,3.968,3.968,0,0,1,1-2.848A3.594,3.594,0,0,1,16.15,5.43a3.647,3.647,0,0,1,3.523,2.316A6.747,6.747,0,0,1,20.166,10.453Zm-3.984-3.5a1.779,1.779,0,0,0-1.461.621,2.688,2.688,0,0,0-.508,1.746,2.3,2.3,0,0,0,.473,1.535,1.773,1.773,0,0,0,1.434.559,2.286,2.286,0,0,0,1.563-.555,1.679,1.679,0,0,0,.633-1.3,3.162,3.162,0,0,0-.27-1.3,2.316,2.316,0,0,0-.754-.957A1.84,1.84,0,0,0,16.181,6.953ZM29.72,14.508H28.181V17H26.392V14.508H21.173V13.094l5.219-7.547h1.789v7.438H29.72Zm-3.328-1.523V10.117q0-1.531.078-2.508h-.062a8.862,8.862,0,0,1-.687,1.25l-2.836,4.125ZM32.181,9a4.982,4.982,0,0,0,.227,1.734.773.773,0,0,0,.742.57q1.031,0,1.031-2.3T33.15,6.7a.773.773,0,0,0-.742.57A4.982,4.982,0,0,0,32.181,9ZM35.7,8.984a4.643,4.643,0,0,1-.645,2.7,2.188,2.188,0,0,1-1.9.9,2.114,2.114,0,0,1-1.84-.934,4.625,4.625,0,0,1-.652-2.668q0-3.57,2.492-3.57a2.178,2.178,0,0,1,1.887.926A4.513,4.513,0,0,1,35.7,8.984Zm3.922,4.578a4.973,4.973,0,0,0,.23,1.742.782.782,0,0,0,.746.578q1.023,0,1.023-2.32,0-2.289-1.023-2.289a.779.779,0,0,0-.746.563A4.836,4.836,0,0,0,39.619,13.563Zm3.516,0a4.6,4.6,0,0,1-.648,2.7,2.186,2.186,0,0,1-1.891.9,2.13,2.13,0,0,1-1.844-.926,4.581,4.581,0,0,1-.656-2.668q0-3.57,2.5-3.57a2.178,2.178,0,0,1,1.871.922A4.469,4.469,0,0,1,43.134,13.563Zm-2.32-7.984L34.478,17H32.962L39.3,5.578Z" transform="translate(8234.137 3768.679)" fill="#2e3e5a"/><path d="M20.181,17H12.439V15.609l2.945-2.961a25.053,25.053,0,0,0,1.73-1.895A4.523,4.523,0,0,0,17.736,9.7a2.833,2.833,0,0,0,.2-1.055,1.608,1.608,0,0,0-.465-1.219,1.781,1.781,0,0,0-1.285-.445,3.426,3.426,0,0,0-1.27.242,5.942,5.942,0,0,0-1.418.875L12.5,6.891A6.4,6.4,0,0,1,14.353,5.75a5.42,5.42,0,0,1,1.914-.336,3.766,3.766,0,0,1,2.555.832,2.81,2.81,0,0,1,.961,2.238,3.928,3.928,0,0,1-.277,1.469,5.969,5.969,0,0,1-.852,1.434,19.461,19.461,0,0,1-1.91,2L14.759,15.3v.078h5.422Zm9.133-5.711a8.125,8.125,0,0,1-.957,4.422,3.267,3.267,0,0,1-2.926,1.445,3.243,3.243,0,0,1-2.891-1.492,7.979,7.979,0,0,1-.984-4.375,8.17,8.17,0,0,1,.957-4.457A3.268,3.268,0,0,1,25.431,5.4a3.246,3.246,0,0,1,2.9,1.5A8.039,8.039,0,0,1,29.314,11.289Zm-5.9,0a8.322,8.322,0,0,0,.48,3.336,1.679,1.679,0,0,0,3.078-.016,8.216,8.216,0,0,0,.488-3.32,8.281,8.281,0,0,0-.488-3.324,1.673,1.673,0,0,0-3.078-.02A8.383,8.383,0,0,0,23.416,11.289ZM32.181,9a4.982,4.982,0,0,0,.227,1.734.773.773,0,0,0,.742.57q1.031,0,1.031-2.3T33.15,6.7a.773.773,0,0,0-.742.57A4.982,4.982,0,0,0,32.181,9ZM35.7,8.984a4.643,4.643,0,0,1-.645,2.7,2.188,2.188,0,0,1-1.9.9,2.114,2.114,0,0,1-1.84-.934,4.625,4.625,0,0,1-.652-2.668q0-3.57,2.492-3.57a2.178,2.178,0,0,1,1.887.926A4.513,4.513,0,0,1,35.7,8.984Zm3.922,4.578a4.973,4.973,0,0,0,.23,1.742.782.782,0,0,0,.746.578q1.023,0,1.023-2.32,0-2.289-1.023-2.289a.779.779,0,0,0-.746.563A4.836,4.836,0,0,0,39.619,13.563Zm3.516,0a4.6,4.6,0,0,1-.648,2.7,2.186,2.186,0,0,1-1.891.9,2.13,2.13,0,0,1-1.844-.926,4.581,4.581,0,0,1-.656-2.668q0-3.57,2.5-3.57a2.178,2.178,0,0,1,1.871.922A4.469,4.469,0,0,1,43.134,13.563Zm-2.32-7.984L34.478,17H32.962L39.3,5.578Z" transform="translate(8296.886 3950.223)" fill="#2e3e5a"/><path d="M20.587,14.508H19.048V17H17.259V14.508H12.041V13.094l5.219-7.547h1.789v7.438h1.539Zm-3.328-1.523V10.117q0-1.531.078-2.508h-.062a8.862,8.862,0,0,1-.687,1.25l-2.836,4.125ZM26.962,17H25.126V9.625q0-1.32.063-2.094-.18.188-.441.414T22.994,9.383l-.922-1.164,3.359-2.641h1.531Zm5.219-8a4.982,4.982,0,0,0,.227,1.734.773.773,0,0,0,.742.57q1.031,0,1.031-2.3T33.15,6.7a.773.773,0,0,0-.742.57A4.982,4.982,0,0,0,32.181,9ZM35.7,8.984a4.643,4.643,0,0,1-.645,2.7,2.188,2.188,0,0,1-1.9.9,2.114,2.114,0,0,1-1.84-.934,4.625,4.625,0,0,1-.652-2.668q0-3.57,2.492-3.57a2.178,2.178,0,0,1,1.887.926A4.513,4.513,0,0,1,35.7,8.984Zm3.922,4.578a4.973,4.973,0,0,0,.23,1.742.782.782,0,0,0,.746.578q1.023,0,1.023-2.32,0-2.289-1.023-2.289a.779.779,0,0,0-.746.563A4.836,4.836,0,0,0,39.619,13.563Zm3.516,0a4.6,4.6,0,0,1-.648,2.7,2.186,2.186,0,0,1-1.891.9,2.13,2.13,0,0,1-1.844-.926,4.581,4.581,0,0,1-.656-2.668q0-3.57,2.5-3.57a2.178,2.178,0,0,1,1.871.922A4.469,4.469,0,0,1,43.134,13.563Zm-2.32-7.984L34.478,17H32.962L39.3,5.578Z" transform="translate(8359.886 3895.223)" fill="#2e3e5a"/><g transform="translate(7591.915 3294.179)"><path d="M955.483,734.265h56.5V692h-56.5Z" fill="#489595"/></g><g transform="translate(7591.915 3294.179)"><path d="M892.933,734.265h56.5V546h-56.5Z" fill="#a0d1a0"/></g><g transform="translate(7591.915 3294.179)"><path d="M830,734.265h56.5V534.01H830Z" fill="#2e6cb9"/></g><g transform="translate(7591.915 3294.179)"><path d="M1017.54,734.265h56.5V643h-56.5Z" fill="#7468b4"/></g><path d="M16.3,5.43a4.041,4.041,0,0,1,2.57.746,2.413,2.413,0,0,1,.945,2,3.139,3.139,0,0,1-2.109,2.8,5.426,5.426,0,0,1,1.91,1.414,2.664,2.664,0,0,1,.566,1.656A2.782,2.782,0,0,1,19.142,16.3a4.305,4.305,0,0,1-2.812.852,4.6,4.6,0,0,1-2.883-.8A2.7,2.7,0,0,1,12.423,14.1a2.912,2.912,0,0,1,.535-1.715,4.486,4.486,0,0,1,1.754-1.355,4.411,4.411,0,0,1-1.492-1.32,2.835,2.835,0,0,1-.445-1.562,2.356,2.356,0,0,1,.977-1.98A4.112,4.112,0,0,1,16.3,5.43Zm-2.117,8.609a1.514,1.514,0,0,0,.57,1.262,2.435,2.435,0,0,0,1.547.449,2.381,2.381,0,0,0,1.566-.465,1.555,1.555,0,0,0,.559-1.262,1.616,1.616,0,0,0-.516-1.156,4.863,4.863,0,0,0-1.562-.969l-.227-.1a4.02,4.02,0,0,0-1.484,1A1.889,1.889,0,0,0,14.181,14.039Zm2.1-7.2a1.935,1.935,0,0,0-1.258.387,1.281,1.281,0,0,0-.477,1.051,1.512,1.512,0,0,0,.172.727,1.9,1.9,0,0,0,.5.582,6,6,0,0,0,1.109.629,3.684,3.684,0,0,0,1.324-.871,1.6,1.6,0,0,0,.387-1.066,1.277,1.277,0,0,0-.48-1.051A1.977,1.977,0,0,0,16.283,6.844Zm13.031,4.445a8.125,8.125,0,0,1-.957,4.422,3.267,3.267,0,0,1-2.926,1.445,3.243,3.243,0,0,1-2.891-1.492,7.979,7.979,0,0,1-.984-4.375,8.17,8.17,0,0,1,.957-4.457A3.268,3.268,0,0,1,25.431,5.4a3.246,3.246,0,0,1,2.9,1.5A8.039,8.039,0,0,1,29.314,11.289Zm-5.9,0a8.322,8.322,0,0,0,.48,3.336,1.679,1.679,0,0,0,3.078-.016,8.216,8.216,0,0,0,.488-3.32,8.281,8.281,0,0,0-.488-3.324,1.673,1.673,0,0,0-3.078-.02A8.383,8.383,0,0,0,23.416,11.289ZM32.181,9a4.982,4.982,0,0,0,.227,1.734.773.773,0,0,0,.742.57q1.031,0,1.031-2.3T33.15,6.7a.773.773,0,0,0-.742.57A4.982,4.982,0,0,0,32.181,9ZM35.7,8.984a4.643,4.643,0,0,1-.645,2.7,2.188,2.188,0,0,1-1.9.9,2.114,2.114,0,0,1-1.84-.934,4.625,4.625,0,0,1-.652-2.668q0-3.57,2.492-3.57a2.178,2.178,0,0,1,1.887.926A4.513,4.513,0,0,1,35.7,8.984Zm3.922,4.578a4.973,4.973,0,0,0,.23,1.742.782.782,0,0,0,.746.578q1.023,0,1.023-2.32,0-2.289-1.023-2.289a.779.779,0,0,0-.746.563A4.836,4.836,0,0,0,39.619,13.563Zm3.516,0a4.6,4.6,0,0,1-.648,2.7,2.186,2.186,0,0,1-1.891.9,2.13,2.13,0,0,1-1.844-.926,4.581,4.581,0,0,1-.656-2.668q0-3.57,2.5-3.57a2.178,2.178,0,0,1,1.871.922A4.469,4.469,0,0,1,43.134,13.563Zm-2.32-7.984L34.478,17H32.962L39.3,5.578Z" transform="translate(8422.49 3803.426)" fill="#2e3e5a"/><path d="M13.736,17l4.516-9.789H12.314V5.594h7.9V6.875L15.72,17ZM21.6,12.133q0-6.7,5.461-6.7a6.774,6.774,0,0,1,1.453.133V7.094a4.961,4.961,0,0,0-1.375-.172,3.6,3.6,0,0,0-2.758.984,4.78,4.78,0,0,0-1,3.156h.094a2.513,2.513,0,0,1,1.031-.98,3.324,3.324,0,0,1,1.563-.348,3.108,3.108,0,0,1,2.422.953,3.7,3.7,0,0,1,.867,2.586,3.923,3.923,0,0,1-1,2.84,3.622,3.622,0,0,1-2.738,1.043,3.822,3.822,0,0,1-2.133-.59,3.766,3.766,0,0,1-1.395-1.719A6.817,6.817,0,0,1,21.6,12.133Zm3.984,3.508a1.8,1.8,0,0,0,1.457-.609,2.638,2.638,0,0,0,.512-1.742,2.306,2.306,0,0,0-.48-1.547,1.791,1.791,0,0,0-1.441-.562,2.381,2.381,0,0,0-1.094.254,2.009,2.009,0,0,0-.789.7,1.629,1.629,0,0,0-.289.9,2.893,2.893,0,0,0,.6,1.855A1.865,1.865,0,0,0,25.587,15.641ZM32.181,9a4.982,4.982,0,0,0,.227,1.734.773.773,0,0,0,.742.57q1.031,0,1.031-2.3T33.15,6.7a.773.773,0,0,0-.742.57A4.982,4.982,0,0,0,32.181,9ZM35.7,8.984a4.643,4.643,0,0,1-.645,2.7,2.188,2.188,0,0,1-1.9.9,2.114,2.114,0,0,1-1.84-.934,4.625,4.625,0,0,1-.652-2.668q0-3.57,2.492-3.57a2.178,2.178,0,0,1,1.887.926A4.513,4.513,0,0,1,35.7,8.984Zm3.922,4.578a4.973,4.973,0,0,0,.23,1.742.782.782,0,0,0,.746.578q1.023,0,1.023-2.32,0-2.289-1.023-2.289a.779.779,0,0,0-.746.563A4.836,4.836,0,0,0,39.619,13.563Zm3.516,0a4.6,4.6,0,0,1-.648,2.7,2.186,2.186,0,0,1-1.891.9,2.13,2.13,0,0,1-1.844-.926,4.581,4.581,0,0,1-.656-2.668q0-3.57,2.5-3.57a2.178,2.178,0,0,1,1.871.922A4.469,4.469,0,0,1,43.134,13.563Zm-2.32-7.984L34.478,17H32.962L39.3,5.578Z" transform="translate(8485.137 3813.679)" fill="#2e3e5a"/><path d="M17.83,17H15.994V9.625q0-1.32.063-2.094-.18.188-.441.414T13.861,9.383l-.922-1.164L16.3,5.578H17.83Zm7.617-7.133a3.917,3.917,0,0,1,2.734.914,3.2,3.2,0,0,1,1.008,2.492,3.64,3.64,0,0,1-1.145,2.855,4.708,4.708,0,0,1-3.254,1.027,6.15,6.15,0,0,1-3.008-.617V14.875a5.515,5.515,0,0,0,1.453.555,6.6,6.6,0,0,0,1.523.2,2.834,2.834,0,0,0,1.891-.555,2.02,2.02,0,0,0,.648-1.625q0-2.047-2.609-2.047a6.839,6.839,0,0,0-.906.074q-.539.074-.945.168l-.82-.484.438-5.578h5.938V7.211h-4.32l-.258,2.828q.273-.047.668-.109A6.3,6.3,0,0,1,25.447,9.867ZM32.181,9a4.982,4.982,0,0,0,.227,1.734.773.773,0,0,0,.742.57q1.031,0,1.031-2.3T33.15,6.7a.773.773,0,0,0-.742.57A4.982,4.982,0,0,0,32.181,9ZM35.7,8.984a4.643,4.643,0,0,1-.645,2.7,2.188,2.188,0,0,1-1.9.9,2.114,2.114,0,0,1-1.84-.934,4.625,4.625,0,0,1-.652-2.668q0-3.57,2.492-3.57a2.178,2.178,0,0,1,1.887.926A4.513,4.513,0,0,1,35.7,8.984Zm3.922,4.578a4.973,4.973,0,0,0,.23,1.742.782.782,0,0,0,.746.578q1.023,0,1.023-2.32,0-2.289-1.023-2.289a.779.779,0,0,0-.746.563A4.836,4.836,0,0,0,39.619,13.563Zm3.516,0a4.6,4.6,0,0,1-.648,2.7,2.186,2.186,0,0,1-1.891.9,2.13,2.13,0,0,1-1.844-.926,4.581,4.581,0,0,1-.656-2.668q0-3.57,2.5-3.57a2.178,2.178,0,0,1,1.871.922A4.469,4.469,0,0,1,43.134,13.563Zm-2.32-7.984L34.478,17H32.962L39.3,5.578Z" transform="translate(8547.886 3960.223)" fill="#2e3e5a"/><path d="M19.751,8.2a2.646,2.646,0,0,1-.633,1.809,3.185,3.185,0,0,1-1.781.973v.063A3.448,3.448,0,0,1,19.4,11.9a2.447,2.447,0,0,1,.688,1.816,3.018,3.018,0,0,1-1.164,2.543,5.34,5.34,0,0,1-3.312.895,7.459,7.459,0,0,1-3.2-.617V14.906a7.316,7.316,0,0,0,1.539.555,6.682,6.682,0,0,0,1.563.2,3.3,3.3,0,0,0,1.984-.492,1.781,1.781,0,0,0,.656-1.523,1.45,1.45,0,0,0-.727-1.344,4.64,4.64,0,0,0-2.281-.43H14.15V10.375h1.008q2.734,0,2.734-1.891a1.394,1.394,0,0,0-.477-1.133,2.146,2.146,0,0,0-1.406-.4,4.258,4.258,0,0,0-1.25.184,5.918,5.918,0,0,0-1.422.715l-.9-1.281a5.988,5.988,0,0,1,3.648-1.156,4.341,4.341,0,0,1,2.7.742A2.436,2.436,0,0,1,19.751,8.2ZM22.869,17l4.516-9.789H21.447V5.594h7.9V6.875L24.853,17Zm9.313-8a4.982,4.982,0,0,0,.227,1.734.773.773,0,0,0,.742.57q1.031,0,1.031-2.3T33.15,6.7a.773.773,0,0,0-.742.57A4.982,4.982,0,0,0,32.181,9ZM35.7,8.984a4.643,4.643,0,0,1-.645,2.7,2.188,2.188,0,0,1-1.9.9,2.114,2.114,0,0,1-1.84-.934,4.625,4.625,0,0,1-.652-2.668q0-3.57,2.492-3.57a2.178,2.178,0,0,1,1.887.926A4.513,4.513,0,0,1,35.7,8.984Zm3.922,4.578a4.973,4.973,0,0,0,.23,1.742.782.782,0,0,0,.746.578q1.023,0,1.023-2.32,0-2.289-1.023-2.289a.779.779,0,0,0-.746.563A4.836,4.836,0,0,0,39.619,13.563Zm3.516,0a4.6,4.6,0,0,1-.648,2.7,2.186,2.186,0,0,1-1.891.9,2.13,2.13,0,0,1-1.844-.926,4.581,4.581,0,0,1-.656-2.668q0-3.57,2.5-3.57a2.178,2.178,0,0,1,1.871.922A4.469,4.469,0,0,1,43.134,13.563Zm-2.32-7.984L34.478,17H32.962L39.3,5.578Z" transform="translate(8609.886 3909.223)" fill="#2e3e5a"/></g></svg>