<svg xmlns="http://www.w3.org/2000/svg" xmlns:xlink="http://www.w3.org/1999/xlink" width="399.364" height="307.199" viewBox="0 0 399.364 307.199"><defs><clipPath id="a"><rect width="49.001" height="75.192" fill="none"/></clipPath></defs><g transform="translate(-326.592 -901.303)"><path d="M-2397.408,629.184h-50a1,1,0,0,1-1-1v-25a1,1,0,0,1,1-1,1,1,0,0,1,1,1v24h49a1,1,0,0,1,1,1A1,1,0,0,1-2397.408,629.184Z" transform="translate(2805 442.682)" fill="#2e6cb9"/><circle cx="4" cy="4" r="4" transform="translate(405.592 1066.866)" fill="#2e6cb9"/><path d="M-2222.522,561.914a1,1,0,0,1-1-1v-50a1,1,0,0,1,1-1h25a1,1,0,0,1,1,1,1,1,0,0,1-1,1h-24v49A1,1,0,0,1-2222.522,561.914Z" transform="translate(2805 442.682)" fill="#2e6cb9"/><circle cx="4" cy="4" r="4" transform="translate(578.478 1001.596)" fill="#2e6cb9"/><path d="M-2344.522,561.914a1,1,0,0,1-1-1v-49h-24a1,1,0,0,1-1-1,1,1,0,0,1,1-1h25a1,1,0,0,1,1,1v50A1,1,0,0,1-2344.522,561.914Z" transform="translate(2805 442.682)" fill="#2e6cb9"/><circle cx="4" cy="4" r="4" transform="translate(456.478 1001.596)" fill="#2e6cb9"/><path d="M0,60.73a1,1,0,0,1-1-1V0A1,1,0,0,1,0-1,1,1,0,0,1,1,0V59.73A1,1,0,0,1,0,60.73Z" transform="translate(526.965 943.866)" fill="#2e6cb9"/><circle cx="4" cy="4" r="4" transform="translate(522.965 1001.596)" fill="#2e6cb9"/><path d="M50,1H0A1,1,0,0,1-1,0,1,1,0,0,1,0-1H50a1,1,0,0,1,1,1A1,1,0,0,1,50,1Z" transform="translate(357.592 1120.948)" fill="#2e6cb9"/><circle cx="4" cy="4" r="4" transform="translate(405.592 1116.948)" fill="#2e6cb9"/><path d="M-2109.408,629.184h-50a1,1,0,0,1-1-1,1,1,0,0,1,1-1h49v-24a1,1,0,0,1,1-1,1,1,0,0,1,1,1v25A1,1,0,0,1-2109.408,629.184Z" transform="translate(2805 442.682)" fill="#2e6cb9"/><circle cx="4" cy="4" r="4" transform="translate(639.592 1066.866)" fill="#2e6cb9"/><path d="M50,1H0A1,1,0,0,1-1,0,1,1,0,0,1,0-1H50a1,1,0,0,1,1,1A1,1,0,0,1,50,1Z" transform="translate(645.592 1120.948)" fill="#2e6cb9"/><circle cx="4" cy="4" r="4" transform="translate(639.592 1116.948)" fill="#2e6cb9"/><path d="M-2388.578,488.61a24.991,24.991,0,0,1,34.129,9.147,24.979,24.979,0,0,1-9.137,34.13,24.973,24.973,0,0,1-34.13-9.148A24.982,24.982,0,0,1-2388.578,488.61Z" transform="translate(2805 442.682)" fill="#2e6cb9" fill-rule="evenodd"/><path d="M-2371.6,513.2a4,4,0,0,0-3.153,1.551l-6.874-3.512a3.993,3.993,0,0,0,.153-1.047,3.807,3.807,0,0,0-.18-1.136l6.832-3.492a4.03,4.03,0,0,0,3.222,1.613,4.035,4.035,0,0,0,4.046-4.038,4.04,4.04,0,0,0-4.046-4.04,4.043,4.043,0,0,0-4.04,4.04,4.294,4.294,0,0,0,.153,1.046l-6.859,3.513a4.027,4.027,0,0,0-3.161-1.552,4.047,4.047,0,0,0-4.047,4.046,4.041,4.041,0,0,0,4.047,4.04,4.012,4.012,0,0,0,3.216-1.628l6.838,3.5a3.945,3.945,0,0,0-.187,1.144,4.044,4.044,0,0,0,4.04,4.04,4.041,4.041,0,0,0,4.046-4.04A4.042,4.042,0,0,0-2371.6,513.2Z" transform="translate(2805 442.682)" fill="#fff" fill-rule="evenodd"/><path d="M-2131.515,593.722a24.984,24.984,0,0,1,9.147-34.13,24.98,24.98,0,0,1,34.128,9.147,24.984,24.984,0,0,1-9.148,34.13A24.974,24.974,0,0,1-2131.515,593.722Z" transform="translate(2805 442.682)" fill="#6c97ce" fill-rule="evenodd"/><path d="M-2102.473,590.684h-14.849v-4.342h-2.556V576.89h2.556v3.32h15.071v-3.321h2.373l-.054,9.452h-2.522l-.018,4.342h0Zm-12.807-1.788h10.729v-2.3h-10.729Zm0-10.729V571.78h10.985v6.387Z" transform="translate(2805 442.682)" fill="#fff"/><path d="M-2079.044,676.238a24.977,24.977,0,0,1-24.982,24.982,24.978,24.978,0,0,1-24.982-24.982,24.987,24.987,0,0,1,24.982-24.992A24.986,24.986,0,0,1-2079.044,676.238Z" transform="translate(2805 442.682)" fill="#2e6cb9" fill-rule="evenodd"/><path d="M-2106.46,669.079l-3.316-3.317a1.663,1.663,0,0,0-2.369-.094l-1.99,1.99c-2.558,2.558.757,8.527,5.306,13.17,4.739,4.738,10.8,8.149,13.455,5.5l1.9-1.895a1.777,1.777,0,0,0-.094-2.464l-3.222-3.222a1.791,1.791,0,0,0-2.464-.19l-1.989,1.99a14.377,14.377,0,0,1-7.107-7.105l1.99-1.99A1.663,1.663,0,0,0-2106.46,669.079Z" transform="translate(2805 442.682)" fill="#fff"/><path d="M-2168.163,488.61a24.985,24.985,0,0,1,9.148,34.129,24.978,24.978,0,0,1-34.13,9.148,24.976,24.976,0,0,1-9.148-34.13A24.994,24.994,0,0,1-2168.163,488.61Z" transform="translate(2805 442.682)" fill="#2e6cb9" fill-rule="evenodd"/><path d="M-2191.156,517.847V503.014l2.1,1.868,7.811,6.989a.772.772,0,0,0,1.178,0l9.615-8.6.28-.244c0,.11.016.188.016.264v14.488a.848.848,0,0,1-.908.969h-19.2A.827.827,0,0,1-2191.156,517.847Zm1.113-16.095h18.772l-9.385,8.4Z" transform="translate(2805 442.682)" fill="#fff"/><path d="M-2278.572,458.621A24.983,24.983,0,0,1-2253.59,483.6a24.991,24.991,0,0,1-24.982,24.992,24.994,24.994,0,0,1-24.99-24.992A24.985,24.985,0,0,1-2278.572,458.621Z" transform="translate(2805 442.682)" fill="#6c97ce" fill-rule="evenodd"/><path d="M-2288.576,491.608v-8.75h2.5v6.25h15v-6.25h2.5v8.75Zm4.191-11.174,1.769-1.768,2.79,2.791v-9.849h2.5v10l2.941-2.942,1.767,1.768-5.883,5.882Z" transform="translate(2805 442.682)" fill="#fff"/><path d="M-2478.408,676.852a24.986,24.986,0,0,1,24.982-24.993,25,25,0,0,1,24.992,24.993,24.993,24.993,0,0,1-24.992,24.982A24.984,24.984,0,0,1-2478.408,676.852Z" transform="translate(2805 442.682)" fill="#2e6cb9" fill-rule="evenodd"/><path d="M-2462.188,686.493l21.99-9.428-21.99-9.428-.01,7.333,15.714,2.1-15.714,2.1Z" transform="translate(2805 442.682)" fill="#fff"/><path d="M-2467.668,568.737a24.983,24.983,0,0,1,34.128-9.139,24.981,24.981,0,0,1,9.148,34.129,24.988,24.988,0,0,1-34.128,9.148A24.993,24.993,0,0,1-2467.668,568.737Z" transform="translate(2805 442.682)" fill="#6c97ce" fill-rule="evenodd"/><path d="M-2457.03,592.233v0l.011-19.8a2.2,2.2,0,0,1,2.189-2.2h17.6a2.2,2.2,0,0,1,2.2,2.2v13.475a2.2,2.2,0,0,1-2.2,2.2h-15.675l-4.123,4.123Zm2.75-9.625v2.75h16.5v-2.75Zm0-4.812v2.75h16.5V577.8Zm0-4.813v2.75h16.5v-2.75Z" transform="translate(2805 442.682)" fill="#fff"/><path d="M-1328.5,23.963a1.5,1.5,0,0,1-1.059-.437,1.5,1.5,0,0,1-.441-1.063V17.793a1.5,1.5,0,0,1,.555-1.165L-1309.373.336a1.5,1.5,0,0,1,.945-.336h93.309a1.5,1.5,0,0,1,.945.336l20.073,16.293a1.5,1.5,0,0,1,.554,1.165V22.06a1.5,1.5,0,0,1-1.5,1.5l-133.453.4Z" transform="translate(1789.041 1184.04)" fill="#5a667d"/><path d="M-1328.494,24.463h-.006a1.99,1.99,0,0,1-1.412-.583,2.018,2.018,0,0,1-.589-1.418V17.793a1.991,1.991,0,0,1,.74-1.553l20.072-16.292a2.006,2.006,0,0,1,1.26-.448h93.309a2.006,2.006,0,0,1,1.26.447l20.073,16.293a1.99,1.99,0,0,1,.739,1.553V22.06a2,2,0,0,1-1.995,2ZM-1308.428.5a1,1,0,0,0-.63.224l-20.072,16.293a1,1,0,0,0-.37.776v4.669a1.011,1.011,0,0,0,.295.709,1,1,0,0,0,.706.291l0,.5v-.5l133.453-.4a1,1,0,0,0,1-1V17.793a.994.994,0,0,0-.369-.776L-1214.489.724a1,1,0,0,0-.63-.224Z" transform="translate(1789.041 1184.04)" fill="rgba(0,0,0,0)"/><path d="M183.3,186.313l-4.231,32.579h42.857l-3.172-32.579Z" transform="translate(326.853 963.666)" fill="#abb1bd"/><path d="M111.906,64.163H308.735a5.044,5.044,0,0,1,5.159,4.919V192.422a5.043,5.043,0,0,1-5.159,4.919H111.906a5.043,5.043,0,0,1-5.159-4.919V69.082a5.044,5.044,0,0,1,5.159-4.919" transform="translate(317.556 955.736)" fill="#313e58"/><path d="M0,0H185.954V100.284H0Z" transform="translate(434.965 1030.338)" fill="#c8d9ee"/><path d="M199.667,173.242a4.626,4.626,0,1,1-4.626,4.625,4.625,4.625,0,0,1,4.626-4.625" transform="translate(327.927 962.958)" fill="#fff"/><path d="M-1328.5,23.958a1.5,1.5,0,0,1-1.379-.909,1.5,1.5,0,0,1,.3-1.628L-1309.511.463A1.5,1.5,0,0,1-1308.428,0h93.309a1.5,1.5,0,0,1,1.073.452l20.073,20.56a1.5,1.5,0,0,1,.31,1.628,1.5,1.5,0,0,1-1.379.92l-133.453.4Z" transform="translate(1789.041 1178.759)" fill="#e4e6ea"/><g transform="translate(31 67.698)"><path d="M4.47,1.7H.1a1.6,1.6,0,1,1,0-3.2H4.47a1.6,1.6,0,0,1,0,3.2Z" transform="translate(450.388 1119.015)" fill="#2e3e5a"/><path d="M4.47,1.7H.1a1.6,1.6,0,1,1,0-3.2H4.47a1.6,1.6,0,0,1,0,3.2Z" transform="translate(462.96 1119.015)" fill="#2e3e5a"/><path d="M4.47,1.7H.1a1.6,1.6,0,1,1,0-3.2H4.47a1.6,1.6,0,0,1,0,3.2Z" transform="translate(475.532 1119.015)" fill="#2e3e5a"/><path d="M4.47,1.7H.1a1.6,1.6,0,1,1,0-3.2H4.47a1.6,1.6,0,0,1,0,3.2Z" transform="translate(443.618 1126.111)" fill="#2e3e5a"/><path d="M4.47,1.7H.1a1.6,1.6,0,1,1,0-3.2H4.47a1.6,1.6,0,0,1,0,3.2Z" transform="translate(456.782 1126.111)" fill="#2e3e5a"/><path d="M4.47,1.7H.1a1.6,1.6,0,1,1,0-3.2H4.47a1.6,1.6,0,0,1,0,3.2Z" transform="translate(469.354 1126.111)" fill="#2e3e5a"/><path d="M4.47,1.7H.1a1.6,1.6,0,1,1,0-3.2H4.47a1.6,1.6,0,0,1,0,3.2Z" transform="translate(519.302 1126.202)" fill="#2e3e5a"/><path d="M4.47,1.7H.1a1.6,1.6,0,1,1,0-3.2H4.47a1.6,1.6,0,0,1,0,3.2Z" transform="translate(532.467 1126.202)" fill="#2e3e5a"/><path d="M4.47,1.7H.1a1.6,1.6,0,1,1,0-3.2H4.47a1.6,1.6,0,0,1,0,3.2Z" transform="translate(545.038 1126.202)" fill="#2e3e5a"/><path d="M27.323,1.7H.1a1.6,1.6,0,0,1,0-3.2H27.323a1.6,1.6,0,0,1,0,3.2Z" transform="translate(482.499 1126.202)" fill="#2e3e5a"/><path d="M4.47,1.7H.1a1.6,1.6,0,1,1,0-3.2H4.47a1.6,1.6,0,0,1,0,3.2Z" transform="translate(488.103 1119.015)" fill="#2e3e5a"/><path d="M4.47,1.7H.1a1.6,1.6,0,1,1,0-3.2H4.47a1.6,1.6,0,0,1,0,3.2Z" transform="translate(500.674 1119.015)" fill="#2e3e5a"/><path d="M4.47,1.7H.1a1.6,1.6,0,1,1,0-3.2H4.47a1.6,1.6,0,0,1,0,3.2Z" transform="translate(513.246 1118.739)" fill="#2e3e5a"/><path d="M4.47,1.7H.1a1.6,1.6,0,1,1,0-3.2H4.47a1.6,1.6,0,0,1,0,3.2Z" transform="translate(525.817 1118.739)" fill="#2e3e5a"/><path d="M4.47,1.7H.1a1.6,1.6,0,1,1,0-3.2H4.47a1.6,1.6,0,0,1,0,3.2Z" transform="translate(538.389 1118.739)" fill="#2e3e5a"/></g><path d="M2044.322,1444.677h-44.875L1887.57,1344.392h156.752v100.284Z" transform="translate(-1423.403 -314.055)" fill="#e3ecf6"/><path d="M2044.322,1445.176h-45.066l-.142-.128-112.851-101.156h158.559v100.784h-.5Zm-44.683-1h44.183v-99.284H1888.877Z" transform="translate(-1423.403 -314.055)" fill="rgba(0,0,0,0)"/><path d="M0,0H42.648V36.251H0Z" transform="translate(503.572 1070.853)" fill="#ffd964"/><g transform="translate(519.501 1077.497)"><path d="M22.576,32.534a5.06,5.06,0,1,1-5.059-5.059,5.06,5.06,0,0,1,5.059,5.059" transform="translate(-12.456 -27.475)" fill="#313e58"/><path d="M16.549,44.831a2.319,2.319,0,0,1-2.318-2.318V31.567a2.317,2.317,0,1,1,4.634,0V42.513a2.319,2.319,0,0,1-2.316,2.318" transform="translate(-11.488 -26.508)" fill="#313e58"/></g><path d="M35.287,26.832a2.319,2.319,0,0,1-2.318-2.318V16.076a11.441,11.441,0,0,0-22.882,0v8.438a2.318,2.318,0,1,1-4.636,0V16.076a16.077,16.077,0,0,1,32.154,0v8.438a2.319,2.319,0,0,1-2.318,2.318" transform="translate(503.215 1042.503)" fill="#313e58"/><path d="M41.143,64.087H7.858A7.867,7.867,0,0,1,0,56.229V28.221a7.867,7.867,0,0,1,7.858-7.858H41.143A7.867,7.867,0,0,1,49,28.221V56.229a7.867,7.867,0,0,1-7.858,7.858M7.858,25a3.227,3.227,0,0,0-3.222,3.222V56.229a3.227,3.227,0,0,0,3.222,3.222H41.143a3.227,3.227,0,0,0,3.222-3.222V28.221A3.227,3.227,0,0,0,41.143,25Z" transform="translate(500.223 1046.144)" fill="#313e58"/></g></svg>