<svg xmlns="http://www.w3.org/2000/svg" width="554.631" height="255.748" viewBox="0 0 554.631 255.748"><g transform="translate(-6386.961 -4257.098)"><rect width="277.321" height="255.731" transform="translate(6386.961 4257.114)" fill="#7468b4"/><rect width="138.663" height="255.731" transform="translate(6664.294 4257.114)" fill="#b1a8e3"/><rect width="138.66" height="63.934" transform="translate(6802.932 4257.098)" fill="#e2ddf8"/><rect width="138.66" height="63.934" transform="translate(6802.932 4321.502)" fill="#ffecb1"/><rect width="138.66" height="127.867" transform="translate(6802.932 4384.979)" fill="#ffd964"/><path d="M17.05,28H14.587L4.443,12.423h-.1q.2,2.742.2,5.027V28H2.552V9.439H4.989L15.107,24.953h.1q-.025-.343-.114-2.2t-.063-2.66V9.439H17.05Zm15.577-4.938a4.553,4.553,0,0,1-1.777,3.821,7.707,7.707,0,0,1-4.824,1.371,12.083,12.083,0,0,1-5.078-.851V25.321a13.369,13.369,0,0,0,2.488.762,13.092,13.092,0,0,0,2.666.279,5.379,5.379,0,0,0,3.25-.819,2.687,2.687,0,0,0,1.092-2.279,2.925,2.925,0,0,0-.387-1.581,3.6,3.6,0,0,0-1.295-1.136A18.115,18.115,0,0,0,26,19.367a8.814,8.814,0,0,1-3.7-2.2,4.849,4.849,0,0,1-1.111-3.313A4.121,4.121,0,0,1,22.8,10.442a6.7,6.7,0,0,1,4.266-1.27,12.571,12.571,0,0,1,5.091,1.016l-.673,1.879a11.5,11.5,0,0,0-4.469-.965,4.325,4.325,0,0,0-2.679.736,2.426,2.426,0,0,0-.965,2.044,3.133,3.133,0,0,0,.355,1.581,3.347,3.347,0,0,0,1.2,1.13,14.906,14.906,0,0,0,2.583,1.136,10.228,10.228,0,0,1,4.018,2.234A4.395,4.395,0,0,1,32.627,23.062Zm20,4.938H50.489L46.744,15.571q-.267-.825-.6-2.082a12.144,12.144,0,0,1-.343-1.511,28.91,28.91,0,0,1-.889,3.669L41.285,28H39.152L34.214,9.439H36.5L39.432,20.9a42.635,42.635,0,0,1,.889,4.367,31.54,31.54,0,0,1,1.016-4.545L44.662,9.439h2.285l3.491,11.388a34.618,34.618,0,0,1,1.028,4.443,38.065,38.065,0,0,1,.914-4.393L55.3,9.439h2.285Z" transform="translate(6397.052 4266.463)" fill="#fff"/><path d="M-125.362-32.543q7.877,0,12.476,4.17t4.6,11.371q0,8.341-5.222,13.028T-128.356.713q-8.733,0-13.723-2.816V-9.7a25.16,25.16,0,0,0,6.63,2.531,30.133,30.133,0,0,0,6.951.891q5.667,0,8.626-2.531t2.958-7.414q0-9.339-11.905-9.339a31.2,31.2,0,0,0-4.135.339q-2.459.339-4.313.766l-3.743-2.21,2-25.45h27.09v7.45h-19.711l-1.176,12.9q1.248-.214,3.048-.5A28.739,28.739,0,0,1-125.362-32.543Zm59.241,2.673q0,15.4-6.2,22.991T-91,.713a28.511,28.511,0,0,1-6.808-.57V-6.879a23.493,23.493,0,0,0,6.38.891q8.483,0,12.654-4.562t4.563-14.329h-.428a12.625,12.625,0,0,1-5.079,4.634,15.967,15.967,0,0,1-6.969,1.426q-6.915,0-10.872-4.313t-3.957-11.834q0-8.163,4.58-12.992t12.493-4.83a17.288,17.288,0,0,1,9.7,2.709,17.4,17.4,0,0,1,6.38,7.86A30.785,30.785,0,0,1-66.121-29.87ZM-84.3-45.839a8.115,8.115,0,0,0-6.666,2.834q-2.317,2.834-2.317,7.967a10.506,10.506,0,0,0,2.156,7q2.156,2.549,6.541,2.549a10.429,10.429,0,0,0,7.129-2.531,7.659,7.659,0,0,0,2.887-5.917,14.426,14.426,0,0,0-1.23-5.935,10.569,10.569,0,0,0-3.44-4.366A8.4,8.4,0,0,0-84.3-45.839ZM-52.968-36.5a22.733,22.733,0,0,0,1.034,7.913,3.529,3.529,0,0,0,3.386,2.6q4.705,0,4.705-10.515t-4.705-10.515a3.529,3.529,0,0,0-3.386,2.6A22.733,22.733,0,0,0-52.968-36.5Zm16.04-.071q0,8.2-2.941,12.315t-8.679,4.117a9.647,9.647,0,0,1-8.394-4.26q-2.976-4.26-2.976-12.173,0-16.29,11.371-16.29a9.936,9.936,0,0,1,8.608,4.224Q-36.928-44.413-36.928-36.571Zm17.894,20.888a22.691,22.691,0,0,0,1.052,7.949q1.052,2.638,3.4,2.638,4.669,0,4.669-10.586,0-10.444-4.669-10.444a3.553,3.553,0,0,0-3.4,2.566A22.063,22.063,0,0,0-19.034-15.684Zm16.04,0q0,8.2-2.958,12.3a9.971,9.971,0,0,1-8.626,4.1,9.717,9.717,0,0,1-8.412-4.224q-2.994-4.224-2.994-12.173,0-16.29,11.406-16.29a9.937,9.937,0,0,1,8.537,4.206Q-2.994-23.561-2.994-15.684ZM-13.581-52.112-42.488,0H-49.4L-20.5-52.112Z" transform="translate(6645.674 4488.804)" fill="#fff"/><path d="M-70.828,0H-94.055V-4.172l8.836-8.883a75.158,75.158,0,0,0,5.191-5.684,13.569,13.569,0,0,0,1.863-3.152,8.5,8.5,0,0,0,.586-3.164,4.824,4.824,0,0,0-1.395-3.656,5.344,5.344,0,0,0-3.855-1.336,10.279,10.279,0,0,0-3.809.727A17.827,17.827,0,0,0-90.891-26.7l-2.977-3.633a19.2,19.2,0,0,1,5.555-3.422,16.261,16.261,0,0,1,5.742-1.008,11.3,11.3,0,0,1,7.664,2.5,8.431,8.431,0,0,1,2.883,6.715,11.783,11.783,0,0,1-.832,4.406,17.907,17.907,0,0,1-2.555,4.3,58.382,58.382,0,0,1-5.73,5.988l-5.953,5.766v.234h16.266Zm20.344,0h-5.508V-22.125q0-3.961.188-6.281-.539.563-1.324,1.242t-5.262,4.313l-2.766-3.492,10.078-7.922h4.594Zm15.656-24a14.948,14.948,0,0,0,.68,5.2,2.32,2.32,0,0,0,2.227,1.711q3.094,0,3.094-6.914t-3.094-6.914A2.32,2.32,0,0,0-34.148-29.2,14.948,14.948,0,0,0-34.828-24Zm10.547-.047q0,5.391-1.934,8.1a6.564,6.564,0,0,1-5.707,2.707,6.343,6.343,0,0,1-5.52-2.8q-1.957-2.8-1.957-8,0-10.711,7.477-10.711a6.533,6.533,0,0,1,5.66,2.777Q-24.281-29.2-24.281-24.047Zm11.766,13.734a14.92,14.92,0,0,0,.691,5.227A2.345,2.345,0,0,0-9.586-3.352q3.07,0,3.07-6.961,0-6.867-3.07-6.867a2.336,2.336,0,0,0-2.238,1.688A14.507,14.507,0,0,0-12.516-10.312Zm10.547,0q0,5.391-1.945,8.086A6.557,6.557,0,0,1-9.586.469a6.39,6.39,0,0,1-5.531-2.777q-1.969-2.777-1.969-8,0-10.711,7.5-10.711a6.534,6.534,0,0,1,5.613,2.766Q-1.969-15.492-1.969-10.312ZM-8.93-34.266-27.937,0h-4.547l19.008-34.266Z" transform="translate(6791.438 4491.104)" fill="#2e3e5a"/><path d="M-45.432,0h-3.213V-12.906q0-2.311.109-3.664-.314.328-.772.725t-3.069,2.516l-1.613-2.037,5.879-4.621h2.68Zm20.1-9.994q0,5.209-1.675,7.738A5.717,5.717,0,0,1-32.129.273a5.675,5.675,0,0,1-5.059-2.611Q-38.91-4.949-38.91-9.994q0-5.291,1.675-7.8A5.718,5.718,0,0,1-32.129-20.3a5.68,5.68,0,0,1,5.072,2.625Q-25.334-15.053-25.334-9.994Zm-10.322,0a14.564,14.564,0,0,0,.841,5.838,2.8,2.8,0,0,0,2.687,1.75,2.827,2.827,0,0,0,2.7-1.777,14.378,14.378,0,0,0,.854-5.811,14.491,14.491,0,0,0-.854-5.817,2.826,2.826,0,0,0-2.7-1.8,2.8,2.8,0,0,0-2.687,1.764A14.671,14.671,0,0,0-35.656-9.994ZM-20.316-14a8.719,8.719,0,0,0,.4,3.035,1.354,1.354,0,0,0,1.3,1q1.8,0,1.8-4.033t-1.8-4.033a1.354,1.354,0,0,0-1.3,1A8.719,8.719,0,0,0-20.316-14Zm6.152-.027A8.126,8.126,0,0,1-15.292-9.3a3.829,3.829,0,0,1-3.329,1.579,3.7,3.7,0,0,1-3.22-1.634,8.094,8.094,0,0,1-1.142-4.669q0-6.248,4.361-6.248a3.811,3.811,0,0,1,3.3,1.62A7.9,7.9,0,0,1-14.164-14.027ZM-7.3-6.016a8.7,8.7,0,0,0,.4,3.049A1.368,1.368,0,0,0-5.592-1.955q1.791,0,1.791-4.061,0-4.006-1.791-4.006A1.363,1.363,0,0,0-6.9-9.037,8.462,8.462,0,0,0-7.3-6.016Zm6.152,0A8.054,8.054,0,0,1-2.283-1.3,3.825,3.825,0,0,1-5.592.273a3.727,3.727,0,0,1-3.227-1.62A8.017,8.017,0,0,1-9.967-6.016q0-6.248,4.375-6.248A3.811,3.811,0,0,1-2.317-10.65,7.821,7.821,0,0,1-1.148-6.016ZM-5.209-19.988-16.3,0h-2.652L-7.861-19.988Z" transform="translate(6926.664 4491.104)" fill="#2e3e5a"/><path d="M-32.1-12.482a6.855,6.855,0,0,1,4.785,1.6,5.593,5.593,0,0,1,1.764,4.361,6.37,6.37,0,0,1-2,5A8.239,8.239,0,0,1-33.25.273a10.762,10.762,0,0,1-5.264-1.08V-3.719a9.651,9.651,0,0,0,2.543.971,11.558,11.558,0,0,0,2.666.342A4.96,4.96,0,0,0-30-3.377a3.535,3.535,0,0,0,1.135-2.844q0-3.582-4.566-3.582a11.968,11.968,0,0,0-1.586.13q-.943.13-1.654.294l-1.436-.848.766-9.762h10.391v2.857h-7.561l-.451,4.949q.479-.082,1.169-.191A11.023,11.023,0,0,1-32.1-12.482ZM-20.316-14a8.719,8.719,0,0,0,.4,3.035,1.354,1.354,0,0,0,1.3,1q1.8,0,1.8-4.033t-1.8-4.033a1.354,1.354,0,0,0-1.3,1A8.719,8.719,0,0,0-20.316-14Zm6.152-.027A8.126,8.126,0,0,1-15.292-9.3a3.829,3.829,0,0,1-3.329,1.579,3.7,3.7,0,0,1-3.22-1.634,8.094,8.094,0,0,1-1.142-4.669q0-6.248,4.361-6.248a3.811,3.811,0,0,1,3.3,1.62A7.9,7.9,0,0,1-14.164-14.027ZM-7.3-6.016a8.7,8.7,0,0,0,.4,3.049A1.368,1.368,0,0,0-5.592-1.955q1.791,0,1.791-4.061,0-4.006-1.791-4.006A1.363,1.363,0,0,0-6.9-9.037,8.462,8.462,0,0,0-7.3-6.016Zm6.152,0A8.054,8.054,0,0,1-2.283-1.3,3.825,3.825,0,0,1-5.592.273a3.727,3.727,0,0,1-3.227-1.62A8.017,8.017,0,0,1-9.967-6.016q0-6.248,4.375-6.248A3.811,3.811,0,0,1-2.317-10.65,7.821,7.821,0,0,1-1.148-6.016ZM-5.209-19.988-16.3,0h-2.652L-7.861-19.988Z" transform="translate(6926.664 4363.744)" fill="#2e3e5a"/><path d="M-32.1-12.482a6.855,6.855,0,0,1,4.785,1.6,5.593,5.593,0,0,1,1.764,4.361,6.37,6.37,0,0,1-2,5A8.239,8.239,0,0,1-33.25.273a10.762,10.762,0,0,1-5.264-1.08V-3.719a9.651,9.651,0,0,0,2.543.971,11.558,11.558,0,0,0,2.666.342A4.96,4.96,0,0,0-30-3.377a3.535,3.535,0,0,0,1.135-2.844q0-3.582-4.566-3.582a11.968,11.968,0,0,0-1.586.13q-.943.13-1.654.294l-1.436-.848.766-9.762h10.391v2.857h-7.561l-.451,4.949q.479-.082,1.169-.191A11.023,11.023,0,0,1-32.1-12.482ZM-20.316-14a8.719,8.719,0,0,0,.4,3.035,1.354,1.354,0,0,0,1.3,1q1.8,0,1.8-4.033t-1.8-4.033a1.354,1.354,0,0,0-1.3,1A8.719,8.719,0,0,0-20.316-14Zm6.152-.027A8.126,8.126,0,0,1-15.292-9.3a3.829,3.829,0,0,1-3.329,1.579,3.7,3.7,0,0,1-3.22-1.634,8.094,8.094,0,0,1-1.142-4.669q0-6.248,4.361-6.248a3.811,3.811,0,0,1,3.3,1.62A7.9,7.9,0,0,1-14.164-14.027ZM-7.3-6.016a8.7,8.7,0,0,0,.4,3.049A1.368,1.368,0,0,0-5.592-1.955q1.791,0,1.791-4.061,0-4.006-1.791-4.006A1.363,1.363,0,0,0-6.9-9.037,8.462,8.462,0,0,0-7.3-6.016Zm6.152,0A8.054,8.054,0,0,1-2.283-1.3,3.825,3.825,0,0,1-5.592.273a3.727,3.727,0,0,1-3.227-1.62A8.017,8.017,0,0,1-9.967-6.016q0-6.248,4.375-6.248A3.811,3.811,0,0,1-2.317-10.65,7.821,7.821,0,0,1-1.148-6.016ZM-5.209-19.988-16.3,0h-2.652L-7.861-19.988Z" transform="translate(6926.664 4300.189)" fill="#2e3e5a"/><path d="M13.152,9.439h2.323L8.785,28H6.652L0,9.439H2.285l4.266,12.01a33.684,33.684,0,0,1,1.168,4.024,33.594,33.594,0,0,1,1.193-4.1ZM18.027,28V9.439h2.158V28Zm15.2-16.9a6.069,6.069,0,0,0-4.831,2.038,8.219,8.219,0,0,0-1.771,5.58,8.383,8.383,0,0,0,1.708,5.63A6.07,6.07,0,0,0,33.2,26.337a16.623,16.623,0,0,0,4.431-.7V27.53a13.644,13.644,0,0,1-4.761.724,8.054,8.054,0,0,1-6.329-2.488q-2.228-2.488-2.228-7.071a11.161,11.161,0,0,1,1.073-5.027,7.7,7.7,0,0,1,3.1-3.326,9.376,9.376,0,0,1,4.767-1.168,11.5,11.5,0,0,1,5.1,1.066l-.914,1.854A9.837,9.837,0,0,0,33.224,11.1Z" transform="translate(6676.286 4266.463)" fill="#2e3e5a"/><path d="M14.219,28l-2.311-5.9H4.469L2.184,28H0L7.338,9.363H9.153L16.453,28Zm-2.983-7.846L9.077,14.4q-.419-1.092-.863-2.679a24.054,24.054,0,0,1-.8,2.679L5.23,20.154Zm15.2-9.052A6.069,6.069,0,0,0,21.6,13.14a8.219,8.219,0,0,0-1.771,5.58,8.383,8.383,0,0,0,1.708,5.63,6.07,6.07,0,0,0,4.869,1.987,16.623,16.623,0,0,0,4.431-.7V27.53a13.644,13.644,0,0,1-4.761.724,8.054,8.054,0,0,1-6.329-2.488q-2.228-2.488-2.228-7.071a11.161,11.161,0,0,1,1.073-5.027,7.7,7.7,0,0,1,3.1-3.326,9.376,9.376,0,0,1,4.767-1.168,11.5,11.5,0,0,1,5.1,1.066l-.914,1.854A9.837,9.837,0,0,0,26.432,11.1ZM40.6,28H38.441V11.356H32.563V9.439H46.478v1.917H40.6Z" transform="translate(6813.269 4270.463)" fill="#2e3e5a"/><path d="M18.662,18.694a11.247,11.247,0,0,1-1.435,5.929,7.151,7.151,0,0,1-4.05,3.2l4.418,4.6H14.46l-3.618-4.189-.7.025a8.022,8.022,0,0,1-6.329-2.507q-2.228-2.507-2.228-7.078,0-4.532,2.234-7.027a8.079,8.079,0,0,1,6.348-2.495,7.907,7.907,0,0,1,6.246,2.539A10.207,10.207,0,0,1,18.662,18.694Zm-14.79,0a8.809,8.809,0,0,0,1.606,5.719,5.7,5.7,0,0,0,4.666,1.949A5.643,5.643,0,0,0,14.8,24.42a8.932,8.932,0,0,0,1.574-5.726,8.86,8.86,0,0,0-1.568-5.681,5.618,5.618,0,0,0-4.64-1.936,5.728,5.728,0,0,0-4.691,1.949A8.719,8.719,0,0,0,3.872,18.694ZM22.8,28V9.439h2.158V26.045h8.188V28Zm28.311-9.458q0,4.6-2.495,7.027T41.438,28H36.3V9.439h5.688a9.1,9.1,0,0,1,6.729,2.4A9.061,9.061,0,0,1,51.111,18.542Zm-2.285.076A7.472,7.472,0,0,0,47,13.146a7.3,7.3,0,0,0-5.415-1.841H38.454V26.134h2.628q3.859,0,5.8-1.9A7.515,7.515,0,0,0,48.826,18.618Z" transform="translate(6813.269 4334.018)" fill="#2e3e5a"/><path d="M18.751,28H16.618L12.873,15.571q-.267-.825-.6-2.082a12.143,12.143,0,0,1-.343-1.511,28.91,28.91,0,0,1-.889,3.669L7.414,28H5.281L.343,9.439H2.628L5.561,20.9a42.635,42.635,0,0,1,.889,4.367,31.54,31.54,0,0,1,1.016-4.545L10.791,9.439h2.285l3.491,11.388A34.618,34.618,0,0,1,17.6,25.271a38.064,38.064,0,0,1,.914-4.393L21.43,9.439h2.285Zm18.5,0-2.311-5.9H27.5L25.213,28H23.029L30.367,9.363h1.815L39.482,28Zm-2.983-7.846L32.106,14.4q-.419-1.092-.863-2.679a24.054,24.054,0,0,1-.8,2.679L28.26,20.154Z" transform="translate(6813.269 4395.272)" fill="#2e3e5a"/></g></svg>