<svg xmlns="http://www.w3.org/2000/svg" width="280.793" height="230.249" viewBox="0 0 280.793 230.249"><g transform="translate(-3860.364 -4551.709)"><path d="M10.676,0H-.211L.211-2.109,5.73-7.055A37.449,37.449,0,0,0,8.525-9.762a6.708,6.708,0,0,0,1.061-1.564,3.675,3.675,0,0,0,.328-1.541,2.13,2.13,0,0,0-.58-1.576,2.211,2.211,0,0,0-1.635-.58,4.053,4.053,0,0,0-1.629.352,9.828,9.828,0,0,0-1.992,1.277L2.73-15.27a9.91,9.91,0,0,1,2.707-1.623,7.571,7.571,0,0,1,2.672-.486,4.966,4.966,0,0,1,3.375,1.09,3.7,3.7,0,0,1,1.254,2.941,6.029,6.029,0,0,1-.457,2.355A8.539,8.539,0,0,1,10.84-8.76,33.082,33.082,0,0,1,7.512-5.613L3.867-2.52v.094h7.289Zm9.691-10.629a4.669,4.669,0,0,1,3.381,1.213,4.426,4.426,0,0,1,1.26,3.346,6.546,6.546,0,0,1-.82,3.316A5.491,5.491,0,0,1,21.8-.545,8.47,8.47,0,0,1,18,.234a8.427,8.427,0,0,1-4.16-.926V-3.234a7.712,7.712,0,0,0,4.008,1.172,4.716,4.716,0,0,0,3.164-.973,3.358,3.358,0,0,0,1.137-2.7,2.705,2.705,0,0,0-.727-1.975,2.952,2.952,0,0,0-2.2-.744,10.366,10.366,0,0,0-2.637.41l-1.031-.8,2.344-8.3H26.25l-.527,2.449h-5.93l-1.242,4.266A9.885,9.885,0,0,1,20.367-10.629ZM32.648-15.41a1.446,1.446,0,0,0-1.16.715,5.753,5.753,0,0,0-.826,2.027,10.94,10.94,0,0,0-.311,2.52q0,1.582.938,1.582a1.421,1.421,0,0,0,1.119-.68,5.871,5.871,0,0,0,.855-2.057,10.6,10.6,0,0,0,.346-2.572Q33.609-15.41,32.648-15.41ZM35.871-13.9a10.728,10.728,0,0,1-.65,3.674,6.219,6.219,0,0,1-1.717,2.7,3.637,3.637,0,0,1-2.414.9,2.738,2.738,0,0,1-2.227-.926,4.066,4.066,0,0,1-.773-2.672,10.782,10.782,0,0,1,.621-3.674,5.925,5.925,0,0,1,1.67-2.607,3.689,3.689,0,0,1,2.443-.879,2.852,2.852,0,0,1,2.268.891A3.821,3.821,0,0,1,35.871-13.9Zm8.273-3.234L31.43,0H29.145L41.871-17.133ZM42.012-8.566a1.424,1.424,0,0,0-1.119.674,5.64,5.64,0,0,0-.844,2,10.638,10.638,0,0,0-.334,2.6q0,1.57.949,1.57a1.434,1.434,0,0,0,1.125-.686,5.849,5.849,0,0,0,.861-2.045A10.471,10.471,0,0,0,43-7.031Q43-8.566,42.012-8.566Zm3.246,1.488a10.86,10.86,0,0,1-.65,3.7A6.218,6.218,0,0,1,42.891-.668a3.607,3.607,0,0,1-2.391.9,2.842,2.842,0,0,1-2.268-.9,3.864,3.864,0,0,1-.779-2.607,11.109,11.109,0,0,1,.621-3.75,5.879,5.879,0,0,1,1.67-2.619,3.688,3.688,0,0,1,2.432-.873,2.927,2.927,0,0,1,2.285.879A3.681,3.681,0,0,1,45.258-7.078Z" transform="translate(4095.799 4751.754)" fill="#2e3e5a"/><path d="M-1574.871,2182.419H-1815.35a1.08,1.08,0,0,1-1.029-1.125,1.078,1.078,0,0,1,1.029-1.123h240.479a1.078,1.078,0,0,1,1.028,1.123A1.08,1.08,0,0,1-1574.871,2182.419Z" transform="translate(5715 2579.682)" fill="#a0d1a0"/><path d="M-1814.321,2184.294h36.93c1.137,0,2.059-1.342,2.059-3s-.922-3-2.059-3h-36.93c-1.137,0-2.058,1.342-2.058,3S-1815.458,2184.294-1814.321,2184.294Z" transform="translate(5715 2579.682)" fill="#629d62"/><path d="M-1813.02,2181.609a20.666,20.666,0,0,1-20.666,20.667,20.667,20.667,0,0,1-20.668-20.667,20.669,20.669,0,0,1,20.668-20.666A20.668,20.668,0,0,1-1813.02,2181.609Z" transform="translate(5715 2579.682)" fill="#629d62"/><path d="M-1816.678,2181.609a17.009,17.009,0,0,1-17.008,17.01,17.01,17.01,0,0,1-17.01-17.01,17.011,17.011,0,0,1,17.01-17.009A17.01,17.01,0,0,1-1816.678,2181.609Z" transform="translate(5715 2579.682)" fill="#fff"/><path d="M-1835.885,2186.865s.028-9.21-.019-10.164l3.383-.006,0,1.439a3.36,3.36,0,0,1,3.046-1.684c2.226,0,3.9,1.446,3.9,4.569l.011,5.827-3.383.006-.01-5.436c0-1.366-.494-2.3-1.718-2.3a1.852,1.852,0,0,0-1.734,1.239,2.3,2.3,0,0,0-.109.825l.01,5.675Zm-5.256.009-.018-10.164,3.382-.006.019,10.164Zm1.649-11.554a1.752,1.752,0,0,1-1.873-1.753,1.764,1.764,0,0,1,1.911-1.759,1.757,1.757,0,0,1,1.9,1.752,1.764,1.764,0,0,1-1.911,1.76Z" transform="translate(5715 2579.682)" fill="#2e3e5a"/><path d="M1.3-5.227A16.426,16.426,0,0,1,2.01-9.984,13.084,13.084,0,0,1,3.943-14a8.141,8.141,0,0,1,2.941-2.52,8.894,8.894,0,0,1,4.014-.855,8.573,8.573,0,0,1,2.379.293l-.5,2.273a7.38,7.38,0,0,0-2.121-.258A5.4,5.4,0,0,0,6.7-13.553a9.517,9.517,0,0,0-2.309,4.6h.07a4.533,4.533,0,0,1,3.82-1.992,3.61,3.61,0,0,1,2.854,1.16A4.645,4.645,0,0,1,12.164-6.6a7.87,7.87,0,0,1-.8,3.527A5.806,5.806,0,0,1,9.188-.6,5.945,5.945,0,0,1,6.023.234a4.389,4.389,0,0,1-3.5-1.406A6,6,0,0,1,1.3-5.227Zm4.91,3.188a2.644,2.644,0,0,0,1.676-.568A3.648,3.648,0,0,0,9.012-4.184a5.94,5.94,0,0,0,.4-2.2q0-2.344-2.086-2.344a2.82,2.82,0,0,0-1.119.223,3.663,3.663,0,0,0-.926.563,3.676,3.676,0,0,0-.686.756,3.774,3.774,0,0,0-.457.961A3.981,3.981,0,0,0,3.984-4.9a3.409,3.409,0,0,0,.58,2.074A1.926,1.926,0,0,0,6.211-2.039ZM25.957-13.512a4.358,4.358,0,0,1-1.16,3.094,5.524,5.524,0,0,1-3.152,1.605v.082a3.834,3.834,0,0,1,2.3,1.242,3.587,3.587,0,0,1,.814,2.4,4.933,4.933,0,0,1-.8,2.771,5.181,5.181,0,0,1-2.3,1.881,8.748,8.748,0,0,1-3.568.668,10.1,10.1,0,0,1-4.512-.926v-2.52a8.6,8.6,0,0,0,2.174.885,9.061,9.061,0,0,0,2.291.311,4.434,4.434,0,0,0,2.871-.838,2.806,2.806,0,0,0,1.031-2.3q0-2.566-3.258-2.566H17.133l.434-2.145h1.242a5.24,5.24,0,0,0,3.135-.873,2.739,2.739,0,0,0,1.213-2.338,1.884,1.884,0,0,0-.58-1.459,2.327,2.327,0,0,0-1.635-.533,5.28,5.28,0,0,0-1.717.3,8.355,8.355,0,0,0-1.9.99L16.1-15.668A10.153,10.153,0,0,1,18.744-17a8.971,8.971,0,0,1,2.654-.381,4.98,4.98,0,0,1,3.352,1.037A3.536,3.536,0,0,1,25.957-13.512Zm6.691-1.9a1.446,1.446,0,0,0-1.16.715,5.753,5.753,0,0,0-.826,2.027,10.94,10.94,0,0,0-.311,2.52q0,1.582.938,1.582a1.421,1.421,0,0,0,1.119-.68,5.871,5.871,0,0,0,.855-2.057,10.6,10.6,0,0,0,.346-2.572Q33.609-15.41,32.648-15.41ZM35.871-13.9a10.728,10.728,0,0,1-.65,3.674,6.219,6.219,0,0,1-1.717,2.7,3.637,3.637,0,0,1-2.414.9,2.738,2.738,0,0,1-2.227-.926,4.066,4.066,0,0,1-.773-2.672,10.782,10.782,0,0,1,.621-3.674,5.925,5.925,0,0,1,1.67-2.607,3.689,3.689,0,0,1,2.443-.879,2.852,2.852,0,0,1,2.268.891A3.821,3.821,0,0,1,35.871-13.9Zm8.273-3.234L31.43,0H29.145L41.871-17.133ZM42.012-8.566a1.424,1.424,0,0,0-1.119.674,5.64,5.64,0,0,0-.844,2,10.638,10.638,0,0,0-.334,2.6q0,1.57.949,1.57a1.434,1.434,0,0,0,1.125-.686,5.849,5.849,0,0,0,.861-2.045A10.471,10.471,0,0,0,43-7.031Q43-8.566,42.012-8.566Zm3.246,1.488a10.86,10.86,0,0,1-.65,3.7A6.218,6.218,0,0,1,42.891-.668a3.607,3.607,0,0,1-2.391.9,2.842,2.842,0,0,1-2.268-.9,3.864,3.864,0,0,1-.779-2.607,11.109,11.109,0,0,1,.621-3.75,5.879,5.879,0,0,1,1.67-2.619,3.688,3.688,0,0,1,2.432-.873,2.927,2.927,0,0,1,2.285.879A3.681,3.681,0,0,1,45.258-7.078Z" transform="translate(4095.799 4630.435)" fill="#2e3e5a"/><path d="M-1815.35,2059.149h240.479a1.08,1.08,0,0,0,1.028-1.125,1.08,1.08,0,0,0-1.028-1.124H-1815.35a1.08,1.08,0,0,0-1.029,1.124A1.08,1.08,0,0,0-1815.35,2059.149Z" transform="translate(5715 2579.682)" fill="#a0d1a0"/><path d="M-1815.35,2061.025h117c1.136,0,2.058-1.345,2.058-3s-.922-3-2.058-3h-117c-1.136,0-2.058,1.344-2.058,3S-1816.486,2061.025-1815.35,2061.025Z" transform="translate(5715 2579.682)" fill="#629d62"/><path d="M7.148-10.629a4.669,4.669,0,0,1,3.381,1.213,4.426,4.426,0,0,1,1.26,3.346,6.546,6.546,0,0,1-.82,3.316A5.491,5.491,0,0,1,8.578-.545a8.47,8.47,0,0,1-3.8.779A8.427,8.427,0,0,1,.621-.691V-3.234A7.712,7.712,0,0,0,4.629-2.062a4.716,4.716,0,0,0,3.164-.973A3.358,3.358,0,0,0,8.93-5.73,2.705,2.705,0,0,0,8.2-7.705,2.952,2.952,0,0,0,6-8.449a10.366,10.366,0,0,0-2.637.41l-1.031-.8,2.344-8.3h8.355L12.5-14.684H6.574L5.332-10.418A9.885,9.885,0,0,1,7.148-10.629Zm7.371,5.4a16.426,16.426,0,0,1,.709-4.758A13.084,13.084,0,0,1,17.162-14a8.141,8.141,0,0,1,2.941-2.52,8.894,8.894,0,0,1,4.014-.855,8.573,8.573,0,0,1,2.379.293l-.5,2.273a7.38,7.38,0,0,0-2.121-.258,5.4,5.4,0,0,0-3.949,1.518,9.517,9.517,0,0,0-2.309,4.6h.07a4.533,4.533,0,0,1,3.82-1.992,3.61,3.61,0,0,1,2.854,1.16A4.645,4.645,0,0,1,25.383-6.6a7.87,7.87,0,0,1-.8,3.527A5.806,5.806,0,0,1,22.406-.6a5.945,5.945,0,0,1-3.164.838,4.389,4.389,0,0,1-3.5-1.406A6,6,0,0,1,14.52-5.227Zm4.91,3.188a2.644,2.644,0,0,0,1.676-.568A3.648,3.648,0,0,0,22.23-4.184a5.94,5.94,0,0,0,.4-2.2q0-2.344-2.086-2.344a2.82,2.82,0,0,0-1.119.223,3.663,3.663,0,0,0-.926.563,3.676,3.676,0,0,0-.686.756,3.774,3.774,0,0,0-.457.961A3.981,3.981,0,0,0,17.2-4.9a3.409,3.409,0,0,0,.58,2.074A1.926,1.926,0,0,0,19.43-2.039ZM32.648-15.41a1.446,1.446,0,0,0-1.16.715,5.753,5.753,0,0,0-.826,2.027,10.94,10.94,0,0,0-.311,2.52q0,1.582.938,1.582a1.421,1.421,0,0,0,1.119-.68,5.871,5.871,0,0,0,.855-2.057,10.6,10.6,0,0,0,.346-2.572Q33.609-15.41,32.648-15.41ZM35.871-13.9a10.728,10.728,0,0,1-.65,3.674,6.219,6.219,0,0,1-1.717,2.7,3.637,3.637,0,0,1-2.414.9,2.738,2.738,0,0,1-2.227-.926,4.066,4.066,0,0,1-.773-2.672,10.782,10.782,0,0,1,.621-3.674,5.925,5.925,0,0,1,1.67-2.607,3.689,3.689,0,0,1,2.443-.879,2.852,2.852,0,0,1,2.268.891A3.821,3.821,0,0,1,35.871-13.9Zm8.273-3.234L31.43,0H29.145L41.871-17.133ZM42.012-8.566a1.424,1.424,0,0,0-1.119.674,5.64,5.64,0,0,0-.844,2,10.638,10.638,0,0,0-.334,2.6q0,1.57.949,1.57a1.434,1.434,0,0,0,1.125-.686,5.849,5.849,0,0,0,.861-2.045A10.471,10.471,0,0,0,43-7.031Q43-8.566,42.012-8.566Zm3.246,1.488a10.86,10.86,0,0,1-.65,3.7A6.218,6.218,0,0,1,42.891-.668a3.607,3.607,0,0,1-2.391.9,2.842,2.842,0,0,1-2.268-.9,3.864,3.864,0,0,1-.779-2.607,11.109,11.109,0,0,1,.621-3.75,5.879,5.879,0,0,1,1.67-2.619,3.688,3.688,0,0,1,2.432-.873,2.927,2.927,0,0,1,2.285.879A3.681,3.681,0,0,1,45.258-7.078Z" transform="translate(4095.799 4692.836)" fill="#2e3e5a"/><path d="M-1815.35,2119.534h240.479a1.079,1.079,0,0,0,1.028-1.123,1.08,1.08,0,0,0-1.028-1.125H-1815.35a1.08,1.08,0,0,0-1.029,1.125A1.079,1.079,0,0,0-1815.35,2119.534Z" transform="translate(5715 2579.682)" fill="#a0d1a0"/><path d="M-1815.35,2121.41H-1708.5c1.137,0,2.059-1.345,2.059-3s-.922-3-2.059-3H-1815.35c-1.136,0-2.058,1.344-2.058,3S-1816.486,2121.41-1815.35,2121.41Z" transform="translate(5715 2579.682)" fill="#629d62"/><path d="M1.465,0,10.3-14.73H2.4l.5-2.4H13.828l-.387,1.969L4.559,0ZM14.52-5.227a16.426,16.426,0,0,1,.709-4.758A13.084,13.084,0,0,1,17.162-14a8.141,8.141,0,0,1,2.941-2.52,8.894,8.894,0,0,1,4.014-.855,8.573,8.573,0,0,1,2.379.293l-.5,2.273a7.38,7.38,0,0,0-2.121-.258,5.4,5.4,0,0,0-3.949,1.518,9.517,9.517,0,0,0-2.309,4.6h.07a4.533,4.533,0,0,1,3.82-1.992,3.61,3.61,0,0,1,2.854,1.16A4.645,4.645,0,0,1,25.383-6.6a7.87,7.87,0,0,1-.8,3.527A5.806,5.806,0,0,1,22.406-.6a5.945,5.945,0,0,1-3.164.838,4.389,4.389,0,0,1-3.5-1.406A6,6,0,0,1,14.52-5.227Zm4.91,3.188a2.644,2.644,0,0,0,1.676-.568A3.648,3.648,0,0,0,22.23-4.184a5.94,5.94,0,0,0,.4-2.2q0-2.344-2.086-2.344a2.82,2.82,0,0,0-1.119.223,3.663,3.663,0,0,0-.926.563,3.676,3.676,0,0,0-.686.756,3.774,3.774,0,0,0-.457.961A3.981,3.981,0,0,0,17.2-4.9a3.409,3.409,0,0,0,.58,2.074A1.926,1.926,0,0,0,19.43-2.039ZM32.648-15.41a1.446,1.446,0,0,0-1.16.715,5.753,5.753,0,0,0-.826,2.027,10.94,10.94,0,0,0-.311,2.52q0,1.582.938,1.582a1.421,1.421,0,0,0,1.119-.68,5.871,5.871,0,0,0,.855-2.057,10.6,10.6,0,0,0,.346-2.572Q33.609-15.41,32.648-15.41ZM35.871-13.9a10.728,10.728,0,0,1-.65,3.674,6.219,6.219,0,0,1-1.717,2.7,3.637,3.637,0,0,1-2.414.9,2.738,2.738,0,0,1-2.227-.926,4.066,4.066,0,0,1-.773-2.672,10.782,10.782,0,0,1,.621-3.674,5.925,5.925,0,0,1,1.67-2.607,3.689,3.689,0,0,1,2.443-.879,2.852,2.852,0,0,1,2.268.891A3.821,3.821,0,0,1,35.871-13.9Zm8.273-3.234L31.43,0H29.145L41.871-17.133ZM42.012-8.566a1.424,1.424,0,0,0-1.119.674,5.64,5.64,0,0,0-.844,2,10.638,10.638,0,0,0-.334,2.6q0,1.57.949,1.57a1.434,1.434,0,0,0,1.125-.686,5.849,5.849,0,0,0,.861-2.045A10.471,10.471,0,0,0,43-7.031Q43-8.566,42.012-8.566Zm3.246,1.488a10.86,10.86,0,0,1-.65,3.7A6.218,6.218,0,0,1,42.891-.668a3.607,3.607,0,0,1-2.391.9,2.842,2.842,0,0,1-2.268-.9,3.864,3.864,0,0,1-.779-2.607,11.109,11.109,0,0,1,.621-3.75,5.879,5.879,0,0,1,1.67-2.619,3.688,3.688,0,0,1,2.432-.873,2.927,2.927,0,0,1,2.285.879A3.681,3.681,0,0,1,45.258-7.078Z" transform="translate(4095.799 4569.088)" fill="#2e3e5a"/><path d="M-1815.35,1997.77h240.479a1.079,1.079,0,0,0,1.028-1.123,1.08,1.08,0,0,0-1.028-1.125H-1815.35a1.08,1.08,0,0,0-1.029,1.125A1.079,1.079,0,0,0-1815.35,1997.77Z" transform="translate(5715 2579.682)" fill="#a0d1a0"/><path d="M-1815.35,1999.646h140.114c1.136,0,2.058-1.345,2.058-3s-.922-3-2.058-3H-1815.35c-1.136,0-2.058,1.344-2.058,3S-1816.486,1999.646-1815.35,1999.646Z" transform="translate(5715 2579.682)" fill="#629d62"/><path d="M-1813.02,1995.978a20.666,20.666,0,0,1-20.666,20.667,20.667,20.667,0,0,1-20.668-20.667,20.669,20.669,0,0,1,20.668-20.666A20.668,20.668,0,0,1-1813.02,1995.978Z" transform="translate(5715 2579.682)" fill="#629d62"/><path d="M-1816.678,1995.978a17.009,17.009,0,0,1-17.008,17.01,17.01,17.01,0,0,1-17.01-17.01,17.011,17.011,0,0,1,17.01-17.009A17.01,17.01,0,0,1-1816.678,1995.978Z" transform="translate(5715 2579.682)" fill="#fff"/><path d="M-1833.831,1992.065l.043.68-.688-.082a11.181,11.181,0,0,1-6.548-3.208l-.908-.9-.233.667a4.009,4.009,0,0,0,.86,4.106c.55.582.427.665-.522.32a1.618,1.618,0,0,0-.647-.151,4.991,4.991,0,0,0,.5,1.858,4.433,4.433,0,0,0,1.886,1.773l.674.318-.8.014c-.77,0-.8.015-.715.306a4.154,4.154,0,0,0,2.575,2.271l.852.291-.741.445a7.744,7.744,0,0,1-3.682,1.035,4.042,4.042,0,0,0-1.126.113,10.5,10.5,0,0,0,2.654,1.216,11.6,11.6,0,0,0,9.015-1.044,12.058,12.058,0,0,0,4.567-5.392,14.348,14.348,0,0,0,.927-4.165c0-.638.04-.721.807-1.486a9.027,9.027,0,0,0,.961-1.07c.138-.264.123-.264-.577-.026-1.168.418-1.333.363-.757-.263a4.028,4.028,0,0,0,.932-1.487c0-.041-.206.029-.439.154a7.7,7.7,0,0,1-1.209.474l-.742.237-.674-.457a5.6,5.6,0,0,0-1.169-.608,4.7,4.7,0,0,0-2.406.06A3.973,3.973,0,0,0-1833.831,1992.065Z" transform="translate(5715 2579.682)" fill="#2e3e5a"/><path d="M-1813.02,2057.4a20.666,20.666,0,0,1-20.666,20.666,20.667,20.667,0,0,1-20.668-20.666,20.67,20.67,0,0,1,20.668-20.667A20.669,20.669,0,0,1-1813.02,2057.4Z" transform="translate(5715 2579.682)" fill="#629d62"/><path d="M-1816.678,2057.4a17.009,17.009,0,0,1-17.008,17.009,17.01,17.01,0,0,1-17.01-17.009,17.012,17.012,0,0,1,17.01-17.01A17.011,17.011,0,0,1-1816.678,2057.4Z" transform="translate(5715 2579.682)" fill="#fff"/><path d="M-1833.11,2065.207l-.016-8.544,2.359,0,.307-2.945-2.671,0v-1.473c0-.768.071-1.18,1.174-1.182l1.475,0-.006-2.945-2.359,0c-2.833,0-3.828,1.435-3.824,3.837l0,1.768-1.766,0,.005,2.944,1.766,0,.015,8.544Z" transform="translate(5715 2579.682)" fill="#2e3e5a"/><path d="M-1813.3,2117.642a20.666,20.666,0,0,1-20.665,20.667,20.667,20.667,0,0,1-20.668-20.667,20.669,20.669,0,0,1,20.668-20.666A20.668,20.668,0,0,1-1813.3,2117.642Z" transform="translate(5715 2579.682)" fill="#629d62"/><path d="M-1816.96,2117.642a17.01,17.01,0,0,1-17.009,17.01,17.01,17.01,0,0,1-17.01-17.01,17.011,17.011,0,0,1,17.01-17.009A17.011,17.011,0,0,1-1816.96,2117.642Z" transform="translate(5715 2579.682)" fill="#fff"/><path d="M-1833.957,2124.444c-.061,0-6.111.006-7.616-.393a2.429,2.429,0,0,1-1.725-1.714,25.334,25.334,0,0,1-.417-4.677,25.293,25.293,0,0,1,.4-4.678,2.436,2.436,0,0,1,1.719-1.721c1.5-.405,7.553-.42,7.614-.42s6.111-.007,7.616.392a2.438,2.438,0,0,1,1.726,1.715,25.294,25.294,0,0,1,.416,4.677,25.359,25.359,0,0,1-.4,4.678,2.435,2.435,0,0,1-1.72,1.721C-1827.846,2124.428-1833.9,2124.444-1833.957,2124.444Zm-1.886-9.89.011,6.183,4.867-3.1Z" transform="translate(5715 2579.682)" fill="#2e3e5a"/></g></svg>