<svg xmlns="http://www.w3.org/2000/svg" width="325.251" height="242" viewBox="0 0 325.251 242"><g transform="translate(-6384.769 -3596.237)"><path d="M-.5-.5H324.751v242H-.5ZM323.751.5H.5v240H323.751Z" transform="translate(6385.269 3596.737)" fill="#e4e6ea"/><g transform="translate(8875 2537.682)"><path d="M-2304.453,1265.158h39.685v-36.021h-39.685Z" fill="#7468b4"/></g><g transform="translate(8875 2537.682)"><path d="M-2284.235,1229.092h-.75v-11.815h.75Z" fill="#2e3e5a"/><path d="M-2284.235,1241h-.75v-11.9h.75Z" fill="#2e3e5a"/></g><g transform="translate(8875 2537.682)"><path d="M-2377.183,1265.158h39.685V1099.3h-39.685Z" fill="#b1a8e3"/></g><g transform="translate(8875 2537.682)"><path d="M-2356.965,1113.047h-.75v-27.492h.75Z" fill="#2e3e5a"/></g><g transform="translate(8875 2537.682)"><path d="M-2421.382,1265.158h39.685V1124.505h-39.685Z" fill="#7468b4"/></g><path d="M-2401.54,1124.466v-11.821" transform="translate(8875 2537.682)" fill="#2e3e5a"/><path d="M-2401.165,1124.466h-.75v-11.821h.75Z" transform="translate(8875 2537.682)" fill="#2e3e5a"/><path d="M-2401.165,1136.365h-.75v-11.9h.75Z" transform="translate(8875 2537.682)" fill="#fff"/><g transform="translate(8875 2537.682)"><path d="M-2351.849,1085.93h-11.339v-.75h11.339Z" fill="#2e3e5a"/></g><g transform="translate(8875 2537.682)"><path d="M-2351.849,1113.9h-11.339v-.75h11.339Z" fill="#2e3e5a"/></g><g transform="translate(8875 2537.682)"><path d="M-2235.073,1241.048h-11.339v-.75h11.339Z" fill="#2e3e5a"/></g><g transform="translate(8875 2537.682)"><path d="M-2395.685,1136.43h-11.339v-.75h11.339Z" fill="#fff"/></g><path d="M-2395.685,1112.279h-11.339" transform="translate(8875 2537.682)" fill="#2e3e5a"/><path d="M-2395.685,1112.654h-11.339v-.75h11.339Z" transform="translate(8875 2537.682)" fill="#2e3e5a"/><g transform="translate(8875 2537.682)"><path d="M-2278.941,1217.652h-11.338v-.75h11.338Z" fill="#2e3e5a"/></g><g transform="translate(8875 2537.682)"><path d="M-2278.941,1241.372h-11.338v-.75h11.338Z" fill="#fff"/></g><path d="M-2190.731,1265.713h-261.5v-.5h261.5Z" transform="translate(8875 2537.682)" fill="#788295"/><g transform="translate(8875 2537.682)"><path d="M-2260.866,1265.158h39.685v-10.817h-39.685Z" fill="#b1a8e3"/></g><g transform="translate(8875 2537.682)"><path d="M-2240.648,1265.555h-.75v-24.96h.75Z" fill="#2e3e5a"/></g><path d="M-.5-.5H89v60H-.5ZM88,.5H.5v58H88Z" transform="translate(6596.519 3619.237)" fill="#e4e6ea"/><g transform="translate(8875 2537.682)"><path d="M-2267.8,1131.622h22.677v-17.008H-2267.8Z" fill="#b1a8e3"/></g><g transform="translate(8875 2537.682)"><path d="M-2267.8,1106.774h22.677v-17.008H-2267.8Z" fill="#7468b4"/></g><path d="M27.5,9.868a1.976,1.976,0,0,1-.757,1.644,3.3,3.3,0,0,1-2.089.6,4.985,4.985,0,0,1-2.181-.414V10.48a5.927,5.927,0,0,0,1.141.4,4.839,4.839,0,0,0,1.125.145,1.79,1.79,0,0,0,1.125-.29.946.946,0,0,0,.363-.779.976.976,0,0,0-.333-.747,5.013,5.013,0,0,0-1.375-.725,3.637,3.637,0,0,1-1.515-.994,2.1,2.1,0,0,1-.44-1.343,1.881,1.881,0,0,1,.7-1.547,2.9,2.9,0,0,1,1.875-.564,5.508,5.508,0,0,1,2.245.494l-.408,1.047a4.905,4.905,0,0,0-1.869-.44,1.434,1.434,0,0,0-.945.271.891.891,0,0,0-.322.717,1.009,1.009,0,0,0,.129.524,1.317,1.317,0,0,0,.424.411,7.177,7.177,0,0,0,1.063.51,5.819,5.819,0,0,1,1.268.671,1.975,1.975,0,0,1,.591.7A2.116,2.116,0,0,1,27.5,9.868ZM33.08,12l-.177-.779h-.064a1.791,1.791,0,0,1-.749.65,2.505,2.505,0,0,1-1.109.236,2.177,2.177,0,0,1-1.611-.537,2.227,2.227,0,0,1-.532-1.627V6.06H30.11V9.723a1.589,1.589,0,0,0,.279,1.023,1.066,1.066,0,0,0,.875.341,1.394,1.394,0,0,0,1.168-.475,2.619,2.619,0,0,0,.373-1.593V6.06h1.268V12Zm5.188.107a2.6,2.6,0,0,1-2.049-.787,3.288,3.288,0,0,1-.7-2.259,3.306,3.306,0,0,1,.733-2.3,2.72,2.72,0,0,1,2.119-.806,3.971,3.971,0,0,1,1.692.349l-.381,1.015A3.823,3.823,0,0,0,38.36,7q-1.542,0-1.542,2.046a2.451,2.451,0,0,0,.384,1.5,1.329,1.329,0,0,0,1.125.5,3.228,3.228,0,0,0,1.6-.419v1.1a2.493,2.493,0,0,1-.722.285A4.335,4.335,0,0,1,38.268,12.107Zm5.446,0a2.6,2.6,0,0,1-2.049-.787,3.288,3.288,0,0,1-.7-2.259,3.306,3.306,0,0,1,.733-2.3,2.72,2.72,0,0,1,2.119-.806,3.971,3.971,0,0,1,1.692.349l-.381,1.015A3.823,3.823,0,0,0,43.806,7q-1.542,0-1.542,2.046a2.451,2.451,0,0,0,.384,1.5,1.329,1.329,0,0,0,1.125.5,3.228,3.228,0,0,0,1.6-.419v1.1a2.493,2.493,0,0,1-.722.285A4.335,4.335,0,0,1,43.715,12.107Zm5.645,0a2.874,2.874,0,0,1-2.167-.808,3.069,3.069,0,0,1-.781-2.226,3.367,3.367,0,0,1,.725-2.288,2.5,2.5,0,0,1,1.993-.833,2.448,2.448,0,0,1,1.858.714,2.73,2.73,0,0,1,.682,1.966v.682H47.711a1.951,1.951,0,0,0,.467,1.329,1.628,1.628,0,0,0,1.241.465,4.58,4.58,0,0,0,.98-.1,5.138,5.138,0,0,0,.975-.33V11.7a3.875,3.875,0,0,1-.935.312A5.731,5.731,0,0,1,49.36,12.107Zm-.231-5.2a1.268,1.268,0,0,0-.964.381A1.817,1.817,0,0,0,47.732,8.4h2.7a1.644,1.644,0,0,0-.354-1.115A1.212,1.212,0,0,0,49.129,6.908Zm7.965,3.4a1.554,1.554,0,0,1-.634,1.335,3.035,3.035,0,0,1-1.815.465,4.288,4.288,0,0,1-1.907-.36v-1.09a4.681,4.681,0,0,0,1.95.483q1.166,0,1.166-.7a.557.557,0,0,0-.129-.376A1.526,1.526,0,0,0,55.3,9.75a7.3,7.3,0,0,0-.822-.365,3.8,3.8,0,0,1-1.388-.795,1.471,1.471,0,0,1-.363-1.031,1.354,1.354,0,0,1,.615-1.184,2.918,2.918,0,0,1,1.673-.422A4.739,4.739,0,0,1,57,6.376l-.408.951a4.408,4.408,0,0,0-1.617-.4q-1,0-1,.569a.573.573,0,0,0,.26.473A5.729,5.729,0,0,0,55.37,8.5a5.193,5.193,0,0,1,1.069.521,1.557,1.557,0,0,1,.494.545A1.578,1.578,0,0,1,57.094,10.308Zm5.355,0a1.554,1.554,0,0,1-.634,1.335A3.035,3.035,0,0,1,60,12.107a4.288,4.288,0,0,1-1.907-.36v-1.09a4.681,4.681,0,0,0,1.95.483q1.166,0,1.166-.7a.557.557,0,0,0-.129-.376,1.526,1.526,0,0,0-.424-.312,7.3,7.3,0,0,0-.822-.365,3.8,3.8,0,0,1-1.388-.795,1.471,1.471,0,0,1-.363-1.031A1.354,1.354,0,0,1,58.7,6.374a2.918,2.918,0,0,1,1.673-.422,4.739,4.739,0,0,1,1.982.424l-.408.951a4.408,4.408,0,0,0-1.617-.4q-1,0-1,.569a.573.573,0,0,0,.26.473,5.729,5.729,0,0,0,1.136.532,5.193,5.193,0,0,1,1.069.521,1.557,1.557,0,0,1,.494.545A1.578,1.578,0,0,1,62.449,10.308Z" transform="translate(6450.168 3809.612)" fill="#2e3e5a"/><path d="M-33.247-7.853-39.075,0h-.816l5.833-7.853Zm-.988,3.706a.818.818,0,0,0-.642.346,2.633,2.633,0,0,0-.451,1.012A5.229,5.229,0,0,0-35.5-1.5q0,.929.569.929A.8.8,0,0,0-34.3-.918a2.883,2.883,0,0,0,.465-1.066,5.151,5.151,0,0,0,.185-1.27Q-33.65-4.146-34.235-4.146Zm1.332.811a5.38,5.38,0,0,1-.169,1.268A4.526,4.526,0,0,1-33.513-.9a2.243,2.243,0,0,1-.65.741A1.43,1.43,0,0,1-35,.107a1.121,1.121,0,0,1-.918-.4,1.825,1.825,0,0,1-.328-1.179,5.406,5.406,0,0,1,.271-1.711,2.755,2.755,0,0,1,.733-1.227,1.572,1.572,0,0,1,1.074-.408,1.164,1.164,0,0,1,.945.384A1.664,1.664,0,0,1-32.9-3.335Zm-5.312-3.958a.827.827,0,0,0-.639.338,2.553,2.553,0,0,0-.457,1.007,5.242,5.242,0,0,0-.172,1.308q0,.924.575.924a.719.719,0,0,0,.5-.212,1.783,1.783,0,0,0,.395-.612,4.633,4.633,0,0,0,.271-.94,5.082,5.082,0,0,0,.1-.921Q-37.635-7.294-38.215-7.294Zm1.332.816A5.352,5.352,0,0,1-37.055-5.2,4.539,4.539,0,0,1-37.5-4.034a2.236,2.236,0,0,1-.647.736,1.436,1.436,0,0,1-.843.263,1.112,1.112,0,0,1-.913-.4,1.837,1.837,0,0,1-.328-1.182,5.406,5.406,0,0,1,.271-1.711,2.755,2.755,0,0,1,.733-1.227,1.572,1.572,0,0,1,1.074-.408,1.16,1.16,0,0,1,.945.387A1.675,1.675,0,0,1-36.883-6.478Zm10.785.516a2.15,2.15,0,0,1,1.611.6A2.276,2.276,0,0,1-23.9-3.7a4.765,4.765,0,0,1-.387,1.907A3.3,3.3,0,0,1-25.33-.4a2.447,2.447,0,0,1-1.493.489A2.141,2.141,0,0,1-28.44-.521a2.29,2.29,0,0,1-.585-1.66,4.753,4.753,0,0,1,.392-1.92,3.255,3.255,0,0,1,1.058-1.38A2.466,2.466,0,0,1-26.1-5.962Zm1.268,2.143a1.467,1.467,0,0,0-.336-1,1.147,1.147,0,0,0-.91-.384,1.572,1.572,0,0,0-1.05.4,2.558,2.558,0,0,0-.72,1.1A4.6,4.6,0,0,0-28.1-2.132a1.584,1.584,0,0,0,.341,1.088,1.242,1.242,0,0,0,.98.384,1.481,1.481,0,0,0,1-.392,2.561,2.561,0,0,0,.7-1.115A5.043,5.043,0,0,0-24.831-3.819Zm.892,6.461a1.9,1.9,0,0,1-.671-.113V1.772a1.889,1.889,0,0,0,.6.118.709.709,0,0,0,.628-.333,2.844,2.844,0,0,0,.354-.951L-21.807-5.2h-1.037l.07-.36,1.106-.354.124-.537a3.182,3.182,0,0,1,.685-1.517,1.747,1.747,0,0,1,1.3-.443,2.784,2.784,0,0,1,.526.062,2.44,2.44,0,0,1,.483.137l-.231.693a2.09,2.09,0,0,0-.736-.156.947.947,0,0,0-.717.26,2.069,2.069,0,0,0-.406.953l-.134.58H-19.5l-.134.682H-20.9L-22.15.693a3.077,3.077,0,0,1-.645,1.482A1.49,1.49,0,0,1-23.939,2.643ZM-14.153.107a1.576,1.576,0,0,1-.913-.269,1.744,1.744,0,0,1-.607-.752h-.054l-.021.2q-.016.134-.056.376t-.615,2.976h-.892l1.8-8.529h.747l-.14,1.123h.043a2.638,2.638,0,0,1,2-1.219,1.413,1.413,0,0,1,1.16.524,2.275,2.275,0,0,1,.424,1.469A5.706,5.706,0,0,1-11.645-1.9,3.469,3.469,0,0,1-12.67-.422,2.3,2.3,0,0,1-14.153.107Zm1-5.344a1.554,1.554,0,0,0-1.05.51,3.638,3.638,0,0,0-.849,1.284,4.174,4.174,0,0,0-.314,1.584,1.265,1.265,0,0,0,.3.905,1.132,1.132,0,0,0,.862.314,1.42,1.42,0,0,0,.991-.435,3.054,3.054,0,0,0,.739-1.238A5.154,5.154,0,0,0-12.2-4.018Q-12.2-5.237-13.154-5.237ZM-7.3-5.994a1.518,1.518,0,0,1,.881.266,1.728,1.728,0,0,1,.6.765h.059l.36-.924h.682L-5.967,0h-.714l.14-1.123h-.043A2.649,2.649,0,0,1-8.61.107,1.415,1.415,0,0,1-9.781-.424a2.272,2.272,0,0,1-.424-1.456,5.545,5.545,0,0,1,.381-2.073,3.582,3.582,0,0,1,1.053-1.5A2.29,2.29,0,0,1-7.3-5.994ZM-8.32-.639a1.512,1.512,0,0,0,1.037-.5A3.682,3.682,0,0,0-6.445-2.43a4.237,4.237,0,0,0,.322-1.6,1.252,1.252,0,0,0-.3-.881,1.021,1.021,0,0,0-.79-.328,1.479,1.479,0,0,0-1.039.462,3.116,3.116,0,0,0-.755,1.251,5.044,5.044,0,0,0-.274,1.665,1.408,1.408,0,0,0,.252.916A.871.871,0,0,0-8.32-.639ZM-.478-5.994a2.451,2.451,0,0,1,.645.075l-.193.806a2.361,2.361,0,0,0-.564-.07,1.492,1.492,0,0,0-.916.322,2.821,2.821,0,0,0-.747.894,4.553,4.553,0,0,0-.47,1.27L-3.3,0h-.9l1.257-5.887H-2.2L-2.315-4.8h.054a5.278,5.278,0,0,1,.639-.733,2.026,2.026,0,0,1,.529-.344A1.52,1.52,0,0,1-.478-5.994ZM1.96-.628a2.906,2.906,0,0,0,.773-.14v.693a2.476,2.476,0,0,1-.451.129,2.311,2.311,0,0,1-.43.054A1.493,1.493,0,0,1,.824-.212a1.214,1.214,0,0,1-.357-.953,3.891,3.891,0,0,1,.1-.806L1.246-5.2H.322L.4-5.6l.994-.419L2.063-7.24h.526l-.3,1.354H3.765l-.14.682H2.159L1.466-1.96a3.821,3.821,0,0,0-.1.709.638.638,0,0,0,.156.462A.577.577,0,0,0,1.96-.628ZM4.625,0h-.9L4.979-5.887h.9Zm.607-7.391A.706.706,0,0,1,5.4-7.882a.572.572,0,0,1,.446-.191.423.423,0,0,1,.473.483.729.729,0,0,1-.18.5.542.542,0,0,1-.416.2.5.5,0,0,1-.354-.132A.488.488,0,0,1,5.231-7.391ZM8.916.107A2.186,2.186,0,0,1,7.3-.467a2.193,2.193,0,0,1-.575-1.622,4.887,4.887,0,0,1,.4-1.982,3.365,3.365,0,0,1,1.1-1.415A2.622,2.622,0,0,1,9.8-5.994a3.936,3.936,0,0,1,1.439.274l-.252.757a3.039,3.039,0,0,0-1.176-.274,1.683,1.683,0,0,0-1.1.411A2.706,2.706,0,0,0,7.93-3.682a4.4,4.4,0,0,0-.282,1.593,1.5,1.5,0,0,0,.357,1.069,1.285,1.285,0,0,0,.986.381,2.435,2.435,0,0,0,.73-.107A6.7,6.7,0,0,0,10.4-1v.768A3.225,3.225,0,0,1,8.916.107ZM12.37,0h-.9l1.257-5.887h.9Zm.607-7.391a.706.706,0,0,1,.172-.491.572.572,0,0,1,.446-.191.423.423,0,0,1,.473.483.729.729,0,0,1-.18.5.542.542,0,0,1-.416.2.5.5,0,0,1-.354-.132A.488.488,0,0,1,12.977-7.391Zm3.894,7.5a1.576,1.576,0,0,1-.913-.269,1.744,1.744,0,0,1-.607-.752H15.3l-.021.2q-.016.134-.056.376T14.6,2.643h-.892l1.8-8.529h.747l-.14,1.123h.043a2.638,2.638,0,0,1,2-1.219,1.413,1.413,0,0,1,1.16.524,2.275,2.275,0,0,1,.424,1.469A5.706,5.706,0,0,1,19.379-1.9a3.469,3.469,0,0,1-1.026,1.48A2.3,2.3,0,0,1,16.871.107Zm1-5.344a1.554,1.554,0,0,0-1.05.51,3.638,3.638,0,0,0-.849,1.284,4.174,4.174,0,0,0-.314,1.584,1.265,1.265,0,0,0,.3.905,1.132,1.132,0,0,0,.862.314,1.42,1.42,0,0,0,.991-.435,3.054,3.054,0,0,0,.739-1.238,5.154,5.154,0,0,0,.279-1.705Q18.826-5.237,17.87-5.237Zm5.854-.757a1.518,1.518,0,0,1,.881.266,1.728,1.728,0,0,1,.6.765h.059l.36-.924h.682L25.056,0h-.714l.14-1.123h-.043A2.649,2.649,0,0,1,22.414.107a1.415,1.415,0,0,1-1.171-.532,2.272,2.272,0,0,1-.424-1.456A5.545,5.545,0,0,1,21.2-3.953a3.582,3.582,0,0,1,1.053-1.5A2.29,2.29,0,0,1,23.724-5.994ZM22.7-.639a1.512,1.512,0,0,0,1.037-.5,3.682,3.682,0,0,0,.838-1.294,4.237,4.237,0,0,0,.322-1.6,1.252,1.252,0,0,0-.3-.881,1.021,1.021,0,0,0-.79-.328,1.479,1.479,0,0,0-1.039.462,3.116,3.116,0,0,0-.755,1.251,5.044,5.044,0,0,0-.274,1.665,1.408,1.408,0,0,0,.252.916A.871.871,0,0,0,22.7-.639ZM30.422,0l.795-3.717a4.9,4.9,0,0,0,.107-.773.763.763,0,0,0-.191-.542.8.8,0,0,0-.61-.2,1.592,1.592,0,0,0-.932.322,2.868,2.868,0,0,0-.8.918,4.833,4.833,0,0,0-.524,1.445L27.726,0h-.9L28.08-5.887h.747L28.708-4.8h.054a3.588,3.588,0,0,1,1-.927,2,2,0,0,1,1-.271,1.5,1.5,0,0,1,1.077.373,1.368,1.368,0,0,1,.395,1.045,4.409,4.409,0,0,1-.124.967L31.335,0Zm4.555-.628a2.906,2.906,0,0,0,.773-.14v.693A2.476,2.476,0,0,1,35.3.054a2.311,2.311,0,0,1-.43.054,1.493,1.493,0,0,1-1.029-.32,1.214,1.214,0,0,1-.357-.953,3.891,3.891,0,0,1,.1-.806L34.262-5.2h-.924l.075-.392.994-.419.671-1.225H35.6l-.3,1.354h1.472l-.14.682H35.175L34.482-1.96a3.821,3.821,0,0,0-.1.709.638.638,0,0,0,.156.462A.577.577,0,0,0,34.977-.628ZM40.369-1.67a1.575,1.575,0,0,1-.594,1.308A2.636,2.636,0,0,1,38.1.107a3.569,3.569,0,0,1-1.638-.371v-.849a3.344,3.344,0,0,0,.811.349,2.963,2.963,0,0,0,.806.124A1.637,1.637,0,0,0,39.1-.908a.835.835,0,0,0,.344-.687.744.744,0,0,0-.188-.516,3.788,3.788,0,0,0-.811-.575,3.267,3.267,0,0,1-.988-.768,1.417,1.417,0,0,1-.29-.892,1.482,1.482,0,0,1,.542-1.2,2.153,2.153,0,0,1,1.429-.454,4.155,4.155,0,0,1,1.772.4l-.29.736L40.321-5a2.985,2.985,0,0,0-1.182-.231,1.2,1.2,0,0,0-.784.234.746.746,0,0,0-.285.6.75.75,0,0,0,.191.516,3.365,3.365,0,0,0,.787.553,4.575,4.575,0,0,1,.824.553,1.6,1.6,0,0,1,.373.5A1.4,1.4,0,0,1,40.369-1.67Z" transform="translate(6413.538 3718.907) rotate(-90)" fill="#2e3e5a"/><path d="M6.68,7.362a3.6,3.6,0,0,1-.959,2.7A3.8,3.8,0,0,1,2.959,11H.981V3.861H3.169a3.5,3.5,0,0,1,2.588.923A3.485,3.485,0,0,1,6.68,7.362ZM5.8,7.392a2.874,2.874,0,0,0-.7-2.1,2.808,2.808,0,0,0-2.083-.708H1.812v5.7H2.822a3.073,3.073,0,0,0,2.231-.73A2.89,2.89,0,0,0,5.8,7.392ZM10.41,11.1a2.459,2.459,0,0,1-1.873-.723,2.8,2.8,0,0,1-.686-2.007,3.1,3.1,0,0,1,.637-2.056A2.117,2.117,0,0,1,10.2,5.551a2.018,2.018,0,0,1,1.592.662,2.536,2.536,0,0,1,.586,1.746v.513H8.691A2.121,2.121,0,0,0,9.167,9.9a1.647,1.647,0,0,0,1.272.488,4.31,4.31,0,0,0,1.709-.361v.723a4.289,4.289,0,0,1-.813.266A4.569,4.569,0,0,1,10.41,11.1Zm-.22-4.868a1.324,1.324,0,0,0-1.028.42,1.936,1.936,0,0,0-.452,1.162h2.8a1.782,1.782,0,0,0-.342-1.174A1.2,1.2,0,0,0,10.19,6.229ZM17.212,9.54a1.341,1.341,0,0,1-.557,1.152,2.616,2.616,0,0,1-1.562.405,3.4,3.4,0,0,1-1.66-.337v-.752a4.015,4.015,0,0,0,.828.308,3.456,3.456,0,0,0,.852.112,1.932,1.932,0,0,0,.977-.2.7.7,0,0,0,.071-1.152A4.263,4.263,0,0,0,15.1,8.549a5.732,5.732,0,0,1-1.062-.486,1.451,1.451,0,0,1-.469-.471,1.229,1.229,0,0,1-.154-.63,1.2,1.2,0,0,1,.532-1.033,2.48,2.48,0,0,1,1.46-.378A4.272,4.272,0,0,1,17.1,5.9l-.288.659a3.878,3.878,0,0,0-1.46-.332,1.68,1.68,0,0,0-.869.181.559.559,0,0,0-.293.5.607.607,0,0,0,.11.366,1.084,1.084,0,0,0,.354.288,7.911,7.911,0,0,0,.938.4,3.5,3.5,0,0,1,1.287.7A1.231,1.231,0,0,1,17.212,9.54Zm2.119-1.279a9.532,9.532,0,0,1,.64-.781L21.7,5.648h.962l-2.168,2.28L22.813,11h-.981l-1.89-2.529L19.331,9v2h-.8V3.4h.8V7.431q0,.269-.039.83Zm6.177,2.168a2.648,2.648,0,0,0,.415-.032,2.687,2.687,0,0,0,.317-.066v.62a1.482,1.482,0,0,1-.388.1,2.915,2.915,0,0,1-.461.042q-1.553,0-1.553-1.636V6.278h-.767V5.888l.767-.337.342-1.143h.469v1.24H26.2v.63H24.648V9.428a1.083,1.083,0,0,0,.229.742A.8.8,0,0,0,25.508,10.429Zm6.421-2.109a2.952,2.952,0,0,1-.659,2.043,2.322,2.322,0,0,1-1.821.735,2.412,2.412,0,0,1-1.274-.337,2.224,2.224,0,0,1-.859-.967,3.369,3.369,0,0,1-.3-1.475,2.948,2.948,0,0,1,.654-2.039,2.314,2.314,0,0,1,1.816-.73,2.264,2.264,0,0,1,1.785.747A2.939,2.939,0,0,1,31.929,8.319Zm-4.077,0a2.54,2.54,0,0,0,.41,1.563,1.628,1.628,0,0,0,2.415,0,2.527,2.527,0,0,0,.413-1.565,2.486,2.486,0,0,0-.413-1.55,1.45,1.45,0,0,0-1.218-.53,1.427,1.427,0,0,0-1.2.522A2.514,2.514,0,0,0,27.852,8.319ZM35.84,11.1a2.316,2.316,0,0,1-.955-.193,1.8,1.8,0,0,1-.725-.593H34.1a7.178,7.178,0,0,1,.059.889v2.2H33.35V5.648h.659l.112.732h.039a1.882,1.882,0,0,1,.728-.635,2.212,2.212,0,0,1,.952-.2,1.978,1.978,0,0,1,1.643.728,3.2,3.2,0,0,1,.579,2.041,3.184,3.184,0,0,1-.588,2.048A1.981,1.981,0,0,1,35.84,11.1Zm-.117-4.858a1.436,1.436,0,0,0-1.187.454,2.337,2.337,0,0,0-.376,1.445v.181a2.678,2.678,0,0,0,.376,1.614,1.43,1.43,0,0,0,1.206.486,1.254,1.254,0,0,0,1.086-.562,2.663,2.663,0,0,0,.393-1.548,2.563,2.563,0,0,0-.393-1.536A1.293,1.293,0,0,0,35.723,6.239Z" transform="translate(6635.168 3627.852)" fill="#2e3e5a"/><path d="M4.141,11,1.719,4.672H1.68q.068.752.068,1.787V11H.981V3.861h1.25L4.492,9.75h.039l2.28-5.889h1.24V11h-.83V6.4q0-.791.068-1.719H7.251L4.81,11ZM14.507,8.319a2.952,2.952,0,0,1-.659,2.043,2.322,2.322,0,0,1-1.821.735,2.412,2.412,0,0,1-1.274-.337,2.224,2.224,0,0,1-.859-.967,3.369,3.369,0,0,1-.3-1.475,2.948,2.948,0,0,1,.654-2.039,2.314,2.314,0,0,1,1.816-.73,2.264,2.264,0,0,1,1.785.747A2.939,2.939,0,0,1,14.507,8.319Zm-4.077,0a2.54,2.54,0,0,0,.41,1.563,1.424,1.424,0,0,0,1.206.537,1.433,1.433,0,0,0,1.208-.535,2.527,2.527,0,0,0,.413-1.565,2.486,2.486,0,0,0-.413-1.55,1.45,1.45,0,0,0-1.218-.53,1.427,1.427,0,0,0-1.2.522A2.514,2.514,0,0,0,10.43,8.319Zm7.988-2.759a1.99,1.99,0,0,1,1.638.72,3.161,3.161,0,0,1,.583,2.039,3.184,3.184,0,0,1-.588,2.048,1.981,1.981,0,0,1-1.633.73,2.316,2.316,0,0,1-.955-.193,1.8,1.8,0,0,1-.725-.593H16.68L16.509,11h-.581V3.4h.811V5.248q0,.62-.039,1.113h.039A1.924,1.924,0,0,1,18.418,5.561Zm-.117.679a1.415,1.415,0,0,0-1.2.476,2.685,2.685,0,0,0-.366,1.6,2.678,2.678,0,0,0,.376,1.614,1.43,1.43,0,0,0,1.206.486,1.25,1.25,0,0,0,1.113-.544A2.8,2.8,0,0,0,19.8,8.31a2.689,2.689,0,0,0-.366-1.558A1.3,1.3,0,0,0,18.3,6.239ZM22.866,11h-.811V5.648h.811Zm-.879-6.8a.538.538,0,0,1,.137-.408.506.506,0,0,1,.679,0,.529.529,0,0,1,.142.405.537.537,0,0,1-.142.408.5.5,0,0,1-.679,0A.548.548,0,0,1,21.987,4.2ZM25.4,11h-.811V3.4H25.4Zm3.979.1a2.459,2.459,0,0,1-1.873-.723,2.8,2.8,0,0,1-.686-2.007,3.1,3.1,0,0,1,.637-2.056,2.117,2.117,0,0,1,1.711-.762,2.018,2.018,0,0,1,1.592.662,2.536,2.536,0,0,1,.586,1.746v.513H27.656A2.121,2.121,0,0,0,28.132,9.9a1.647,1.647,0,0,0,1.272.488,4.31,4.31,0,0,0,1.709-.361v.723a4.289,4.289,0,0,1-.813.266A4.569,4.569,0,0,1,29.375,11.1Zm-.22-4.868a1.324,1.324,0,0,0-1.028.42,1.936,1.936,0,0,0-.452,1.162h2.8a1.782,1.782,0,0,0-.342-1.174A1.2,1.2,0,0,0,29.155,6.229Z" transform="translate(6635.168 3652.852)" fill="#2e3e5a"/><path d="M35.551,12H34.278V4.147h4.431V5.232H35.551V7.687H38.51v1.09H35.551Zm8.164,0-.252-.827h-.043a2.434,2.434,0,0,1-.865.739,2.735,2.735,0,0,1-1.117.2,1.891,1.891,0,0,1-1.367-.473,1.769,1.769,0,0,1-.491-1.337,1.57,1.57,0,0,1,.682-1.386A3.933,3.933,0,0,1,42.34,8.4l1.026-.032V8.052A1.2,1.2,0,0,0,43.1,7.2a1.084,1.084,0,0,0-.824-.282,2.851,2.851,0,0,0-.875.134,6.607,6.607,0,0,0-.806.317l-.408-.9a4.393,4.393,0,0,1,1.058-.384,4.869,4.869,0,0,1,1.085-.132,2.57,2.57,0,0,1,1.711.494A1.935,1.935,0,0,1,44.617,8v4Zm-1.88-.859a1.563,1.563,0,0,0,1.1-.384,1.392,1.392,0,0,0,.416-1.077V9.164l-.763.032a2.61,2.61,0,0,0-1.3.3.906.906,0,0,0-.406.814.794.794,0,0,0,.236.615A1.015,1.015,0,0,0,41.835,11.141ZM47.641,12H46.379V6.06h1.262ZM46.3,4.486a.7.7,0,0,1,.185-.521.722.722,0,0,1,.529-.183.707.707,0,0,1,.518.183.7.7,0,0,1,.185.521.686.686,0,0,1-.185.508.7.7,0,0,1-.518.185.716.716,0,0,1-.529-.185A.686.686,0,0,1,46.3,4.486ZM50.708,12H49.446V3.643h1.262Z" transform="translate(6574.087 3807.731)" fill="#2e3e5a"/><path d="M10.9,4.322a3.031,3.031,0,0,1,1.928.56,1.81,1.81,0,0,1,.709,1.5,2.355,2.355,0,0,1-1.582,2.1,4.07,4.07,0,0,1,1.433,1.061,2,2,0,0,1,.425,1.242,2.086,2.086,0,0,1-.779,1.7,3.229,3.229,0,0,1-2.109.639,3.447,3.447,0,0,1-2.162-.6A2.021,2.021,0,0,1,8,10.826,2.184,2.184,0,0,1,8.4,9.54,3.364,3.364,0,0,1,9.712,8.523a3.308,3.308,0,0,1-1.119-.99,2.127,2.127,0,0,1-.334-1.172,1.767,1.767,0,0,1,.732-1.485A3.084,3.084,0,0,1,10.9,4.322ZM9.313,10.779a1.136,1.136,0,0,0,.428.946,1.826,1.826,0,0,0,1.16.337,1.786,1.786,0,0,0,1.175-.349,1.166,1.166,0,0,0,.419-.946,1.212,1.212,0,0,0-.387-.867,3.647,3.647,0,0,0-1.172-.727l-.17-.076a3.015,3.015,0,0,0-1.113.747A1.417,1.417,0,0,0,9.313,10.779Zm1.576-5.4a1.451,1.451,0,0,0-.943.29.961.961,0,0,0-.357.788,1.134,1.134,0,0,0,.129.545,1.422,1.422,0,0,0,.375.437,4.5,4.5,0,0,0,.832.472,2.763,2.763,0,0,0,.993-.653,1.2,1.2,0,0,0,.29-.8.958.958,0,0,0-.36-.788A1.483,1.483,0,0,0,10.89,5.383Zm9.773,3.334a6.094,6.094,0,0,1-.718,3.316,2.45,2.45,0,0,1-2.194,1.084A2.432,2.432,0,0,1,15.583,12a5.985,5.985,0,0,1-.738-3.281,6.128,6.128,0,0,1,.718-3.343A2.451,2.451,0,0,1,17.751,4.3a2.434,2.434,0,0,1,2.174,1.125A6.029,6.029,0,0,1,20.663,8.717Zm-4.424,0a6.242,6.242,0,0,0,.36,2.5,1.259,1.259,0,0,0,2.309-.012,6.162,6.162,0,0,0,.366-2.49,6.21,6.21,0,0,0-.366-2.493A1.255,1.255,0,0,0,16.6,6.209,6.288,6.288,0,0,0,16.239,8.717ZM22.813,7a3.737,3.737,0,0,0,.17,1.3.58.58,0,0,0,.557.428q.773,0,.773-1.729T23.54,5.271a.58.58,0,0,0-.557.428A3.737,3.737,0,0,0,22.813,7Zm2.637-.012a3.483,3.483,0,0,1-.483,2.024,1.641,1.641,0,0,1-1.427.677,1.586,1.586,0,0,1-1.38-.7,3.469,3.469,0,0,1-.489-2q0-2.678,1.869-2.678A1.633,1.633,0,0,1,24.955,5,3.384,3.384,0,0,1,25.45,6.988Zm2.941,3.434a3.73,3.73,0,0,0,.173,1.307.586.586,0,0,0,.56.434q.768,0,.768-1.74,0-1.717-.768-1.717a.584.584,0,0,0-.56.422A3.627,3.627,0,0,0,28.392,10.422Zm2.637,0a3.452,3.452,0,0,1-.486,2.021,1.639,1.639,0,0,1-1.418.674,1.6,1.6,0,0,1-1.383-.694,3.436,3.436,0,0,1-.492-2q0-2.678,1.875-2.678a1.633,1.633,0,0,1,1.4.691A3.352,3.352,0,0,1,31.028,10.422Zm-1.74-5.988L24.536,13H23.4l4.752-8.566Z" transform="translate(6454.019 3627.373)" fill="#2e3e5a"/><path d="M13.8,8.09a5.89,5.89,0,0,1-1.02,3.779,3.732,3.732,0,0,1-3.07,1.248,4.687,4.687,0,0,1-1.119-.094V11.869a3.862,3.862,0,0,0,1.049.146,2.682,2.682,0,0,0,2.08-.75,3.641,3.641,0,0,0,.75-2.355H12.4a2.075,2.075,0,0,1-.835.762,2.625,2.625,0,0,1-1.146.234A2.3,2.3,0,0,1,8.634,9.2a2.768,2.768,0,0,1-.65-1.945,2.976,2.976,0,0,1,.753-2.136,2.7,2.7,0,0,1,2.054-.794A2.735,2.735,0,0,1,13.433,6.06,5.061,5.061,0,0,1,13.8,8.09ZM10.813,5.465a1.334,1.334,0,0,0-1.1.466,2.016,2.016,0,0,0-.381,1.31,1.727,1.727,0,0,0,.354,1.151,1.33,1.33,0,0,0,1.075.419,1.714,1.714,0,0,0,1.172-.416,1.259,1.259,0,0,0,.475-.973,2.371,2.371,0,0,0-.2-.976,1.737,1.737,0,0,0-.565-.718A1.38,1.38,0,0,0,10.813,5.465Zm10.154,5.666H19.813V13H18.472V11.131H14.558V10.07l3.914-5.66h1.342V9.988h1.154Zm-2.5-1.143V7.838q0-1.148.059-1.881h-.047a6.647,6.647,0,0,1-.516.938L15.841,9.988ZM22.813,7a3.737,3.737,0,0,0,.17,1.3.58.58,0,0,0,.557.428q.773,0,.773-1.729T23.54,5.271a.58.58,0,0,0-.557.428A3.737,3.737,0,0,0,22.813,7Zm2.637-.012a3.483,3.483,0,0,1-.483,2.024,1.641,1.641,0,0,1-1.427.677,1.586,1.586,0,0,1-1.38-.7,3.469,3.469,0,0,1-.489-2q0-2.678,1.869-2.678A1.633,1.633,0,0,1,24.955,5,3.384,3.384,0,0,1,25.45,6.988Zm2.941,3.434a3.73,3.73,0,0,0,.173,1.307.586.586,0,0,0,.56.434q.768,0,.768-1.74,0-1.717-.768-1.717a.584.584,0,0,0-.56.422A3.627,3.627,0,0,0,28.392,10.422Zm2.637,0a3.452,3.452,0,0,1-.486,2.021,1.639,1.639,0,0,1-1.418.674,1.6,1.6,0,0,1-1.383-.694,3.436,3.436,0,0,1-.492-2q0-2.678,1.875-2.678a1.633,1.633,0,0,1,1.4.691A3.352,3.352,0,0,1,31.028,10.422Zm-1.74-5.988L24.536,13H23.4l4.752-8.566Z" transform="translate(6498.019 3603.373)" fill="#2e3e5a"/><path d="M13.813,13H8.007V11.957l2.209-2.221a18.79,18.79,0,0,0,1.3-1.421,3.392,3.392,0,0,0,.466-.788,2.125,2.125,0,0,0,.146-.791,1.206,1.206,0,0,0-.349-.914,1.336,1.336,0,0,0-.964-.334,2.57,2.57,0,0,0-.952.182A4.457,4.457,0,0,0,8.8,6.326l-.744-.908a4.8,4.8,0,0,1,1.389-.855,4.065,4.065,0,0,1,1.436-.252,2.824,2.824,0,0,1,1.916.624,2.108,2.108,0,0,1,.721,1.679,2.946,2.946,0,0,1-.208,1.1,4.477,4.477,0,0,1-.639,1.075,14.6,14.6,0,0,1-1.433,1.5L9.747,11.729v.059h4.066Zm6.85-4.283a6.094,6.094,0,0,1-.718,3.316,2.45,2.45,0,0,1-2.194,1.084A2.432,2.432,0,0,1,15.583,12a5.985,5.985,0,0,1-.738-3.281,6.128,6.128,0,0,1,.718-3.343A2.451,2.451,0,0,1,17.751,4.3a2.434,2.434,0,0,1,2.174,1.125A6.029,6.029,0,0,1,20.663,8.717Zm-4.424,0a6.242,6.242,0,0,0,.36,2.5,1.259,1.259,0,0,0,2.309-.012,6.162,6.162,0,0,0,.366-2.49,6.21,6.21,0,0,0-.366-2.493A1.255,1.255,0,0,0,16.6,6.209,6.288,6.288,0,0,0,16.239,8.717ZM22.813,7a3.737,3.737,0,0,0,.17,1.3.58.58,0,0,0,.557.428q.773,0,.773-1.729T23.54,5.271a.58.58,0,0,0-.557.428A3.737,3.737,0,0,0,22.813,7Zm2.637-.012a3.483,3.483,0,0,1-.483,2.024,1.641,1.641,0,0,1-1.427.677,1.586,1.586,0,0,1-1.38-.7,3.469,3.469,0,0,1-.489-2q0-2.678,1.869-2.678A1.633,1.633,0,0,1,24.955,5,3.384,3.384,0,0,1,25.45,6.988Zm2.941,3.434a3.73,3.73,0,0,0,.173,1.307.586.586,0,0,0,.56.434q.768,0,.768-1.74,0-1.717-.768-1.717a.584.584,0,0,0-.56.422A3.627,3.627,0,0,0,28.392,10.422Zm2.637,0a3.452,3.452,0,0,1-.486,2.021,1.639,1.639,0,0,1-1.418.674,1.6,1.6,0,0,1-1.383-.694,3.436,3.436,0,0,1-.492-2q0-2.678,1.875-2.678a1.633,1.633,0,0,1,1.4.691A3.352,3.352,0,0,1,31.028,10.422Zm-1.74-5.988L24.536,13H23.4l4.752-8.566Z" transform="translate(6570.89 3733.373)" fill="#333"/><path d="M11.455,9.35q0-5.027,4.1-5.027a5.081,5.081,0,0,1,1.09.1V5.57a3.721,3.721,0,0,0-1.031-.129,2.7,2.7,0,0,0-2.068.738,3.585,3.585,0,0,0-.75,2.367h.07a1.885,1.885,0,0,1,.773-.735,2.493,2.493,0,0,1,1.172-.261,2.331,2.331,0,0,1,1.816.715,2.773,2.773,0,0,1,.65,1.939,2.942,2.942,0,0,1-.753,2.13,2.717,2.717,0,0,1-2.054.782,2.866,2.866,0,0,1-1.6-.442,2.825,2.825,0,0,1-1.046-1.289A5.113,5.113,0,0,1,11.455,9.35Zm2.988,2.631a1.347,1.347,0,0,0,1.093-.457,1.979,1.979,0,0,0,.384-1.307,1.729,1.729,0,0,0-.36-1.16,1.343,1.343,0,0,0-1.081-.422,1.785,1.785,0,0,0-.82.19,1.507,1.507,0,0,0-.592.521,1.222,1.222,0,0,0-.217.677,2.17,2.17,0,0,0,.448,1.392A1.4,1.4,0,0,0,14.443,11.98ZM19.389,7a3.737,3.737,0,0,0,.17,1.3.58.58,0,0,0,.557.428q.773,0,.773-1.729t-.773-1.729a.58.58,0,0,0-.557.428A3.737,3.737,0,0,0,19.389,7Zm2.637-.012a3.483,3.483,0,0,1-.483,2.024,1.641,1.641,0,0,1-1.427.677,1.586,1.586,0,0,1-1.38-.7,3.469,3.469,0,0,1-.489-2q0-2.678,1.869-2.678A1.633,1.633,0,0,1,21.53,5,3.384,3.384,0,0,1,22.025,6.988Zm2.941,3.434a3.73,3.73,0,0,0,.173,1.307.586.586,0,0,0,.56.434q.768,0,.768-1.74,0-1.717-.768-1.717a.584.584,0,0,0-.56.422A3.627,3.627,0,0,0,24.967,10.422Zm2.637,0a3.452,3.452,0,0,1-.486,2.021,1.639,1.639,0,0,1-1.418.674,1.6,1.6,0,0,1-1.383-.694,3.436,3.436,0,0,1-.492-2q0-2.678,1.875-2.678a1.633,1.633,0,0,1,1.4.691A3.352,3.352,0,0,1,27.6,10.422Zm-1.74-5.988L21.111,13H19.975l4.752-8.566Z" transform="translate(6615.019 3759.373)" fill="#333"/></g></svg>