<svg xmlns="http://www.w3.org/2000/svg" width="196.742" height="196.742" viewBox="0 0 196.742 196.742"><g transform="translate(-7100.148 -3615.866)"><g transform="translate(8875 2537.682)"><path d="M-1676.481,1176.555l98.132-6.862c.151,2.168.239,4.689.239,6.862Z" fill="#ffd964"/></g><g transform="translate(8875 2537.682)"><path d="M-1676.481,1176.555l70.762-68.335a95.371,95.371,0,0,1,27.37,61.473Z" fill="#ffd964"/></g><path d="M-1676.481,1176.555h98.371a98.371,98.371,0,0,1-98.371,98.371,98.371,98.371,0,0,1-98.371-98.371,98.371,98.371,0,0,1,98.371-98.371c28.251,0,51.138,9.714,70.762,30.036Z" transform="translate(8875 2537.682)" fill="#7468b4"/><circle cx="67.071" cy="67.071" r="67.071" transform="translate(7131.448 3647.166)" fill="#fff"/><path d="M15.418,16.289a12.978,12.978,0,0,1,7.934,2.238,7.132,7.132,0,0,1,3.012,6.035,7.887,7.887,0,0,1-1.453,4.676,12.379,12.379,0,0,1-4.687,3.668,16.611,16.611,0,0,1,5.52,4.3,8.012,8.012,0,0,1,1.676,4.91,8.17,8.17,0,0,1-3.3,6.785,13.785,13.785,0,0,1-8.7,2.566q-5.625,0-8.836-2.391A7.946,7.946,0,0,1,3.371,42.3,8.981,8.981,0,0,1,4.93,37.1a12.945,12.945,0,0,1,5-4.008,12.839,12.839,0,0,1-4.219-3.961,8.688,8.688,0,0,1-1.289-4.617,7.088,7.088,0,0,1,3.047-5.953A12.949,12.949,0,0,1,15.418,16.289ZM10.075,41.883a3.8,3.8,0,0,0,1.406,3.141,5.989,5.989,0,0,0,3.844,1.125,6.012,6.012,0,0,0,4.031-1.16,3.853,3.853,0,0,0,1.336-3.059,4.185,4.185,0,0,0-1.324-2.941,17.024,17.024,0,0,0-4.3-2.918Q10.075,38.367,10.075,41.883Zm5.3-20.3a4.508,4.508,0,0,0-2.988.949,3.144,3.144,0,0,0-1.137,2.543,3.9,3.9,0,0,0,.9,2.52,9.919,9.919,0,0,0,3.27,2.285,9.153,9.153,0,0,0,3.211-2.2,4.006,4.006,0,0,0,.914-2.6,3.1,3.1,0,0,0-1.172-2.555A4.653,4.653,0,0,0,15.371,21.586Zm27.445-5.3a12.978,12.978,0,0,1,7.934,2.238,7.132,7.132,0,0,1,3.012,6.035,7.887,7.887,0,0,1-1.453,4.676,12.379,12.379,0,0,1-4.687,3.668,16.611,16.611,0,0,1,5.52,4.3,8.012,8.012,0,0,1,1.676,4.91,8.17,8.17,0,0,1-3.3,6.785,13.785,13.785,0,0,1-8.7,2.566q-5.625,0-8.836-2.391A7.946,7.946,0,0,1,30.77,42.3a8.981,8.981,0,0,1,1.559-5.2,12.945,12.945,0,0,1,5-4.008,12.839,12.839,0,0,1-4.219-3.961,8.688,8.688,0,0,1-1.289-4.617,7.088,7.088,0,0,1,3.047-5.953A12.949,12.949,0,0,1,42.817,16.289ZM37.473,41.883a3.8,3.8,0,0,0,1.406,3.141,5.989,5.989,0,0,0,3.844,1.125,6.012,6.012,0,0,0,4.031-1.16A3.853,3.853,0,0,0,48.09,41.93a4.185,4.185,0,0,0-1.324-2.941,17.024,17.024,0,0,0-4.3-2.918Q37.473,38.367,37.473,41.883Zm5.3-20.3a4.508,4.508,0,0,0-2.988.949,3.144,3.144,0,0,0-1.137,2.543,3.9,3.9,0,0,0,.9,2.52,9.919,9.919,0,0,0,3.27,2.285,9.153,9.153,0,0,0,3.211-2.2,4.006,4.006,0,0,0,.914-2.6,3.1,3.1,0,0,0-1.172-2.555A4.653,4.653,0,0,0,42.77,21.586ZM63.864,27a13.974,13.974,0,0,0,.527,4.441q.527,1.465,1.7,1.465,2.25,0,2.25-5.906,0-5.859-2.25-5.859-1.172,0-1.7,1.441A13.743,13.743,0,0,0,63.864,27Zm10.383-.047q0,5.391-2.086,8.1a7.249,7.249,0,0,1-6.117,2.707,7.064,7.064,0,0,1-5.977-2.777q-2.109-2.777-2.109-8.027,0-10.711,8.086-10.711a7.2,7.2,0,0,1,6.082,2.777Q74.246,21.8,74.246,26.953ZM90.371,16.734,71.364,51H65.739L84.746,16.734ZM87.864,40.688a13.974,13.974,0,0,0,.527,4.441q.527,1.465,1.7,1.465,2.25,0,2.25-5.906,0-5.859-2.25-5.859-1.172,0-1.7,1.441A13.743,13.743,0,0,0,87.864,40.688Zm10.383-.047q0,5.367-2.086,8.074a7.249,7.249,0,0,1-6.117,2.707,7.064,7.064,0,0,1-5.977-2.777q-2.109-2.777-2.109-8,0-10.711,8.086-10.711a7.2,7.2,0,0,1,6.082,2.777Q98.246,35.484,98.246,40.641Z" transform="translate(7147.816 3660.155)" fill="#2e3e5a"/><path d="M-33.791-3.217a3.543,3.543,0,0,1-.791,2.452,2.786,2.786,0,0,1-2.186.882,2.9,2.9,0,0,1-1.529-.4,2.668,2.668,0,0,1-1.031-1.16,4.043,4.043,0,0,1-.363-1.77,3.537,3.537,0,0,1,.785-2.446,2.777,2.777,0,0,1,2.18-.876,2.717,2.717,0,0,1,2.142.9A3.527,3.527,0,0,1-33.791-3.217Zm-4.893,0a3.048,3.048,0,0,0,.492,1.875A1.708,1.708,0,0,0-36.744-.7a1.72,1.72,0,0,0,1.45-.642,3.033,3.033,0,0,0,.5-1.878,2.984,2.984,0,0,0-.5-1.86,1.74,1.74,0,0,0-1.462-.636,1.712,1.712,0,0,0-1.441.627A3.017,3.017,0,0,0-38.684-3.217Zm9.492-2.449h-1.635V0H-31.8V-5.666h-1.148v-.439l1.148-.352v-.357q0-2.367,2.068-2.367a4.256,4.256,0,0,1,1.2.205l-.252.779a3.218,3.218,0,0,0-.961-.182.936.936,0,0,0-.814.366,2.044,2.044,0,0,0-.264,1.175v.416h1.635ZM-21.914.117A2.779,2.779,0,0,1-23.06-.114a2.154,2.154,0,0,1-.87-.712H-24A8.614,8.614,0,0,1-23.93.24V2.883H-24.9v-9.3h.791l.135.879h.047a2.259,2.259,0,0,1,.873-.762,2.654,2.654,0,0,1,1.143-.234,2.374,2.374,0,0,1,1.972.873,3.844,3.844,0,0,1,.694,2.449,3.821,3.821,0,0,1-.706,2.458A2.378,2.378,0,0,1-21.914.117Zm-.141-5.83a1.724,1.724,0,0,0-1.424.545,2.8,2.8,0,0,0-.451,1.734v.217a3.214,3.214,0,0,0,.451,1.937A1.716,1.716,0,0,0-22.031-.7a1.5,1.5,0,0,0,1.3-.674,3.2,3.2,0,0,0,.472-1.857,3.075,3.075,0,0,0-.472-1.843A1.551,1.551,0,0,0-22.055-5.713ZM-13.6,0l-.193-.914h-.047A2.7,2.7,0,0,1-14.8-.1,2.92,2.92,0,0,1-15.99.117a2.145,2.145,0,0,1-1.5-.492,1.8,1.8,0,0,1-.542-1.4q0-1.945,3.111-2.039l1.09-.035v-.4a1.628,1.628,0,0,0-.325-1.116,1.337,1.337,0,0,0-1.04-.36,4.238,4.238,0,0,0-1.816.492l-.3-.744a4.571,4.571,0,0,1,1.04-.4,4.5,4.5,0,0,1,1.134-.146,2.446,2.446,0,0,1,1.7.51,2.128,2.128,0,0,1,.554,1.635V0Zm-2.2-.686a1.974,1.974,0,0,0,1.427-.5,1.842,1.842,0,0,0,.519-1.395v-.58l-.973.041a3.538,3.538,0,0,0-1.673.36,1.087,1.087,0,0,0-.513.993,1,1,0,0,0,.319.8A1.326,1.326,0,0,0-15.8-.686Zm7.852-5.854a3.806,3.806,0,0,1,.768.07l-.135.9a3.313,3.313,0,0,0-.7-.088,1.712,1.712,0,0,0-1.333.633A2.307,2.307,0,0,0-9.9-3.445V0h-.973V-6.422h.8l.111,1.189h.047A2.823,2.823,0,0,1-9.053-6.2,1.939,1.939,0,0,1-7.945-6.539ZM-3.9-.686a3.177,3.177,0,0,0,.5-.038A3.224,3.224,0,0,0-3.023-.8v.744a1.778,1.778,0,0,1-.466.126,3.5,3.5,0,0,1-.554.05q-1.863,0-1.863-1.963v-3.82h-.92v-.469l.92-.4L-5.5-7.91h.563v1.488H-3.07v.756H-4.934v3.779A1.3,1.3,0,0,0-4.658-1,.958.958,0,0,0-3.9-.686ZM-.768,0H-1.74V-6.422h.973ZM-1.822-8.162a.646.646,0,0,1,.164-.489.573.573,0,0,1,.41-.155.573.573,0,0,1,.4.158.634.634,0,0,1,.17.486.644.644,0,0,1-.17.489.567.567,0,0,1-.4.161.562.562,0,0,1-.41-.161A.658.658,0,0,1-1.822-8.162ZM3.861.117A2.741,2.741,0,0,1,1.7-.741,3.53,3.53,0,0,1,.938-3.17a3.64,3.64,0,0,1,.776-2.49,2.8,2.8,0,0,1,2.212-.879,4.389,4.389,0,0,1,.926.1,3.05,3.05,0,0,1,.727.234l-.3.826a4.573,4.573,0,0,0-.7-.214A3.139,3.139,0,0,0,3.9-5.678q-1.957,0-1.957,2.5a2.972,2.972,0,0,0,.478,1.816,1.661,1.661,0,0,0,1.415.633,4.326,4.326,0,0,0,1.646-.346v.861A3.509,3.509,0,0,1,3.861.117ZM7.98,0H7.008V-6.422H7.98ZM6.926-8.162a.646.646,0,0,1,.164-.489.573.573,0,0,1,.41-.155.573.573,0,0,1,.4.158.634.634,0,0,1,.17.486.644.644,0,0,1-.17.489.567.567,0,0,1-.4.161.562.562,0,0,1-.41-.161A.658.658,0,0,1,6.926-8.162ZM13.031.117a2.779,2.779,0,0,1-1.146-.231,2.154,2.154,0,0,1-.87-.712h-.07A8.614,8.614,0,0,1,11.016.24V2.883h-.973v-9.3h.791l.135.879h.047a2.259,2.259,0,0,1,.873-.762,2.654,2.654,0,0,1,1.143-.234A2.374,2.374,0,0,1,15-5.666,3.844,3.844,0,0,1,15.7-3.217a3.821,3.821,0,0,1-.706,2.458A2.378,2.378,0,0,1,13.031.117Zm-.141-5.83a1.724,1.724,0,0,0-1.424.545,2.8,2.8,0,0,0-.451,1.734v.217a3.214,3.214,0,0,0,.451,1.937A1.716,1.716,0,0,0,12.914-.7a1.5,1.5,0,0,0,1.3-.674,3.2,3.2,0,0,0,.472-1.857,3.075,3.075,0,0,0-.472-1.843A1.551,1.551,0,0,0,12.891-5.713ZM21.346,0l-.193-.914h-.047a2.7,2.7,0,0,1-.958.817,2.92,2.92,0,0,1-1.192.214,2.145,2.145,0,0,1-1.5-.492,1.8,1.8,0,0,1-.542-1.4q0-1.945,3.111-2.039l1.09-.035v-.4a1.628,1.628,0,0,0-.325-1.116,1.337,1.337,0,0,0-1.04-.36,4.238,4.238,0,0,0-1.816.492l-.3-.744a4.571,4.571,0,0,1,1.04-.4,4.5,4.5,0,0,1,1.134-.146,2.446,2.446,0,0,1,1.7.51,2.128,2.128,0,0,1,.554,1.635V0Zm-2.2-.686a1.974,1.974,0,0,0,1.427-.5,1.842,1.842,0,0,0,.519-1.395v-.58l-.973.041a3.538,3.538,0,0,0-1.673.36,1.087,1.087,0,0,0-.513.993,1,1,0,0,0,.319.8A1.326,1.326,0,0,0,19.148-.686ZM28.465,0V-4.154a1.676,1.676,0,0,0-.357-1.172,1.456,1.456,0,0,0-1.119-.387,1.846,1.846,0,0,0-1.477.545,2.751,2.751,0,0,0-.469,1.8V0H24.07V-6.422h.791l.158.879h.047a1.986,1.986,0,0,1,.838-.735,2.722,2.722,0,0,1,1.2-.261,2.439,2.439,0,0,1,1.746.56,2.381,2.381,0,0,1,.586,1.79V0ZM33.51-.686a3.177,3.177,0,0,0,.5-.038A3.224,3.224,0,0,0,34.389-.8v.744a1.778,1.778,0,0,1-.466.126,3.5,3.5,0,0,1-.554.05q-1.863,0-1.863-1.963v-3.82h-.92v-.469l.92-.4.41-1.371h.563v1.488h1.863v.756H32.479v3.779A1.3,1.3,0,0,0,32.754-1,.958.958,0,0,0,33.51-.686Zm6.3-1.066a1.609,1.609,0,0,1-.668,1.383,3.14,3.14,0,0,1-1.875.486,4.077,4.077,0,0,1-1.992-.4v-.9a4.818,4.818,0,0,0,.993.369,4.147,4.147,0,0,0,1.022.135,2.319,2.319,0,0,0,1.172-.243.8.8,0,0,0,.41-.741.8.8,0,0,0-.325-.642,5.115,5.115,0,0,0-1.269-.63,6.879,6.879,0,0,1-1.274-.583,1.741,1.741,0,0,1-.562-.565,1.475,1.475,0,0,1-.185-.756A1.441,1.441,0,0,1,35.9-6.085a2.976,2.976,0,0,1,1.752-.454,5.126,5.126,0,0,1,2.027.422l-.346.791a4.654,4.654,0,0,0-1.752-.4,2.016,2.016,0,0,0-1.043.217.67.67,0,0,0-.352.6.728.728,0,0,0,.132.439,1.3,1.3,0,0,0,.425.346,9.493,9.493,0,0,0,1.125.475,4.2,4.2,0,0,1,1.544.838A1.478,1.478,0,0,1,39.814-1.752ZM-25.058,9.334h-1.635V15h-.973V9.334h-1.148V8.895l1.148-.352V8.186q0-2.367,2.068-2.367a4.256,4.256,0,0,1,1.2.205l-.252.779a3.218,3.218,0,0,0-.961-.182.936.936,0,0,0-.814.366,2.044,2.044,0,0,0-.264,1.175v.416h1.635Zm6.715,2.449a3.543,3.543,0,0,1-.791,2.452,2.786,2.786,0,0,1-2.186.882,2.9,2.9,0,0,1-1.529-.4,2.668,2.668,0,0,1-1.031-1.16,4.043,4.043,0,0,1-.363-1.77,3.537,3.537,0,0,1,.785-2.446,2.777,2.777,0,0,1,2.18-.876,2.717,2.717,0,0,1,2.142.9A3.527,3.527,0,0,1-18.343,11.783Zm-4.893,0a3.048,3.048,0,0,0,.492,1.875A1.708,1.708,0,0,0-21.3,14.3a1.72,1.72,0,0,0,1.45-.642,3.033,3.033,0,0,0,.5-1.878,2.984,2.984,0,0,0-.5-1.86,1.74,1.74,0,0,0-1.462-.636,1.712,1.712,0,0,0-1.441.627A3.017,3.017,0,0,0-23.235,11.783Zm7.512-3.205v4.166a1.676,1.676,0,0,0,.357,1.172,1.456,1.456,0,0,0,1.119.387,1.826,1.826,0,0,0,1.474-.551,2.778,2.778,0,0,0,.466-1.8V8.578h.973V15h-.8l-.141-.861h-.053a1.939,1.939,0,0,1-.829.727,2.787,2.787,0,0,1-1.21.252,2.455,2.455,0,0,1-1.755-.557,2.37,2.37,0,0,1-.583-1.781v-4.2ZM-4.878,15V10.846a1.676,1.676,0,0,0-.357-1.172,1.456,1.456,0,0,0-1.119-.387,1.846,1.846,0,0,0-1.477.545,2.751,2.751,0,0,0-.469,1.8V15h-.973V8.578h.791l.158.879h.047a1.986,1.986,0,0,1,.838-.735,2.722,2.722,0,0,1,1.2-.261,2.439,2.439,0,0,1,1.746.56,2.381,2.381,0,0,1,.586,1.79V15Zm7.342-.861H2.411A2.285,2.285,0,0,1,.4,15.117a2.384,2.384,0,0,1-1.96-.861,3.791,3.791,0,0,1-.7-2.449,3.855,3.855,0,0,1,.7-2.467A2.366,2.366,0,0,1,.4,8.461a2.335,2.335,0,0,1,2,.949h.076l-.041-.463L2.411,8.5V5.883h.973V15H2.593ZM.519,14.3a1.771,1.771,0,0,0,1.444-.542,2.739,2.739,0,0,0,.448-1.749v-.205a3.222,3.222,0,0,0-.454-1.948,1.724,1.724,0,0,0-1.45-.583A1.489,1.489,0,0,0-.8,9.94a3.307,3.307,0,0,0-.454,1.878,3.17,3.17,0,0,0,.451,1.857A1.528,1.528,0,0,0,.519,14.3Zm10.119.012a3.177,3.177,0,0,0,.5-.038,3.224,3.224,0,0,0,.381-.079v.744a1.778,1.778,0,0,1-.466.126,3.5,3.5,0,0,1-.554.05q-1.863,0-1.863-1.963V9.334h-.92V8.865l.92-.4.41-1.371h.563V8.578H11.47v.756H9.606v3.779A1.3,1.3,0,0,0,9.882,14,.958.958,0,0,0,10.638,14.314ZM17.194,15V10.846a1.676,1.676,0,0,0-.357-1.172,1.456,1.456,0,0,0-1.119-.387,1.834,1.834,0,0,0-1.479.551,2.79,2.79,0,0,0-.466,1.8V15H12.8V5.883h.973v2.76a6.013,6.013,0,0,1-.047.826h.059a1.984,1.984,0,0,1,.817-.729,2.657,2.657,0,0,1,1.21-.267,2.478,2.478,0,0,1,1.767.56,2.357,2.357,0,0,1,.589,1.778V15Zm5.684.117a2.95,2.95,0,0,1-2.247-.867,3.357,3.357,0,0,1-.823-2.408,3.723,3.723,0,0,1,.765-2.467,2.54,2.54,0,0,1,2.054-.914,2.422,2.422,0,0,1,1.91.794,3.043,3.043,0,0,1,.7,2.095v.615H20.815a2.546,2.546,0,0,0,.571,1.717,1.976,1.976,0,0,0,1.526.586,5.172,5.172,0,0,0,2.051-.434V14.7a5.147,5.147,0,0,1-.976.319A5.483,5.483,0,0,1,22.878,15.117Zm-.264-5.842a1.588,1.588,0,0,0-1.233.5,2.323,2.323,0,0,0-.542,1.395H24.2a2.139,2.139,0,0,0-.41-1.409A1.444,1.444,0,0,0,22.614,9.275ZM-22.509,29.314a3.177,3.177,0,0,0,.5-.038,3.224,3.224,0,0,0,.381-.079v.744a1.778,1.778,0,0,1-.466.126,3.5,3.5,0,0,1-.554.05q-1.863,0-1.863-1.963v-3.82h-.92v-.469l.92-.4.41-1.371h.563v1.488h1.863v.756H-23.54v3.779a1.3,1.3,0,0,0,.275.891A.958.958,0,0,0-22.509,29.314ZM-16.4,30l-.193-.914h-.047a2.7,2.7,0,0,1-.958.817,2.92,2.92,0,0,1-1.192.214,2.145,2.145,0,0,1-1.5-.492,1.8,1.8,0,0,1-.542-1.4q0-1.945,3.111-2.039l1.09-.035v-.4a1.628,1.628,0,0,0-.325-1.116,1.337,1.337,0,0,0-1.04-.36,4.238,4.238,0,0,0-1.816.492l-.3-.744a4.571,4.571,0,0,1,1.04-.4,4.5,4.5,0,0,1,1.134-.146,2.446,2.446,0,0,1,1.7.51,2.128,2.128,0,0,1,.554,1.635V30Zm-2.2-.686a1.974,1.974,0,0,0,1.427-.5,1.842,1.842,0,0,0,.519-1.395v-.58l-.973.041a3.538,3.538,0,0,0-1.673.36,1.087,1.087,0,0,0-.513.993,1,1,0,0,0,.319.8A1.326,1.326,0,0,0-18.595,29.314Zm9.064-1.066a1.609,1.609,0,0,1-.668,1.383,3.14,3.14,0,0,1-1.875.486,4.077,4.077,0,0,1-1.992-.4v-.9a4.818,4.818,0,0,0,.993.369,4.147,4.147,0,0,0,1.022.135,2.319,2.319,0,0,0,1.172-.243.8.8,0,0,0,.41-.741.8.8,0,0,0-.325-.642,5.115,5.115,0,0,0-1.269-.63,6.879,6.879,0,0,1-1.274-.583,1.741,1.741,0,0,1-.562-.565,1.475,1.475,0,0,1-.185-.756,1.441,1.441,0,0,1,.639-1.239,2.976,2.976,0,0,1,1.752-.454,5.126,5.126,0,0,1,2.027.422l-.346.791a4.654,4.654,0,0,0-1.752-.4,2.016,2.016,0,0,0-1.043.217.67.67,0,0,0-.352.6.728.728,0,0,0,.132.439,1.3,1.3,0,0,0,.425.346,9.493,9.493,0,0,0,1.125.475,4.2,4.2,0,0,1,1.544.838A1.478,1.478,0,0,1-9.53,28.248Zm2.543-1.535a11.438,11.438,0,0,1,.768-.937l2.074-2.2h1.154l-2.6,2.736L-2.81,30H-3.987l-2.268-3.035-.732.633V30h-.961V20.883h.961v4.834q0,.322-.047,1Zm11.168,3.4a2.95,2.95,0,0,1-2.247-.867,3.357,3.357,0,0,1-.823-2.408,3.723,3.723,0,0,1,.765-2.467,2.54,2.54,0,0,1,2.054-.914,2.422,2.422,0,0,1,1.91.794,3.043,3.043,0,0,1,.7,2.095v.615H2.118a2.546,2.546,0,0,0,.571,1.717,1.976,1.976,0,0,0,1.526.586,5.172,5.172,0,0,0,2.051-.434V29.7a5.147,5.147,0,0,1-.976.319A5.483,5.483,0,0,1,4.181,30.117Zm-.264-5.842a1.588,1.588,0,0,0-1.233.5,2.323,2.323,0,0,0-.542,1.395H5.5a2.139,2.139,0,0,0-.41-1.409A1.444,1.444,0,0,0,3.917,24.275ZM12.149,30l-.193-.914h-.047a2.7,2.7,0,0,1-.958.817,2.92,2.92,0,0,1-1.192.214,2.145,2.145,0,0,1-1.5-.492,1.8,1.8,0,0,1-.542-1.4q0-1.945,3.111-2.039l1.09-.035v-.4a1.628,1.628,0,0,0-.325-1.116,1.337,1.337,0,0,0-1.04-.36,4.238,4.238,0,0,0-1.816.492l-.3-.744a4.571,4.571,0,0,1,1.04-.4,4.5,4.5,0,0,1,1.134-.146,2.446,2.446,0,0,1,1.7.51,2.128,2.128,0,0,1,.554,1.635V30Zm-2.2-.686a1.974,1.974,0,0,0,1.427-.5,1.842,1.842,0,0,0,.519-1.395v-.58l-.973.041a3.538,3.538,0,0,0-1.673.36,1.087,1.087,0,0,0-.513.993,1,1,0,0,0,.319.8A1.326,1.326,0,0,0,9.952,29.314Zm9.064-1.066a1.609,1.609,0,0,1-.668,1.383,3.14,3.14,0,0,1-1.875.486,4.077,4.077,0,0,1-1.992-.4v-.9a4.818,4.818,0,0,0,.993.369,4.147,4.147,0,0,0,1.022.135,2.319,2.319,0,0,0,1.172-.243.837.837,0,0,0,.085-1.383,5.115,5.115,0,0,0-1.269-.63,6.879,6.879,0,0,1-1.274-.583,1.741,1.741,0,0,1-.562-.565,1.475,1.475,0,0,1-.185-.756,1.441,1.441,0,0,1,.639-1.239,2.976,2.976,0,0,1,1.752-.454,5.126,5.126,0,0,1,2.027.422l-.346.791a4.654,4.654,0,0,0-1.752-.4,2.016,2.016,0,0,0-1.043.217.67.67,0,0,0-.352.6.728.728,0,0,0,.132.439,1.3,1.3,0,0,0,.425.346,9.493,9.493,0,0,0,1.125.475,4.2,4.2,0,0,1,1.544.838A1.478,1.478,0,0,1,19.017,28.248Zm.563-4.67h1.043l1.406,3.662a13.929,13.929,0,0,1,.574,1.811h.047q.076-.3.319-1.022t1.591-4.45H25.6l-2.76,7.313a3.648,3.648,0,0,1-.958,1.538,2.037,2.037,0,0,1-1.345.454,3.913,3.913,0,0,1-.879-.1V32a3.39,3.39,0,0,0,.721.07,1.486,1.486,0,0,0,1.43-1.125l.357-.914Z" transform="translate(7198.519 3732.099)" fill="#2e3e5a"/></g></svg>