<svg xmlns="http://www.w3.org/2000/svg" width="892" height="338" viewBox="0 0 892 338"><g transform="translate(-7989.591 -4162.12)"><rect width="892" height="338" transform="translate(7989.591 4162.12)" fill="none"/><path d="M180.872.5H0v-1H180.872Z" transform="translate(8521.757 4271.751)" fill="#2e3e5a"/><path d="M164.8,2.683-.007.5l.013-1,164.8,2.183Z" transform="translate(8537.824 4373.804)" fill="#2e3e5a"/><path d="M139.071.5H0v-1H139.071Z" transform="translate(8563.558 4322.841)" fill="#2e3e5a"/><path d="M20.556,7.288A5.487,5.487,0,0,1,24.047,8.3a3.277,3.277,0,0,1,1.284,2.711q0,2.387-2.864,3.8a7.369,7.369,0,0,1,2.594,1.92,3.617,3.617,0,0,1,.769,2.249,3.777,3.777,0,0,1-1.411,3.077A5.847,5.847,0,0,1,20.6,23.212a6.241,6.241,0,0,1-3.915-1.082,3.659,3.659,0,0,1-1.39-3.066,3.955,3.955,0,0,1,.727-2.329A6.092,6.092,0,0,1,18.4,14.895,5.99,5.99,0,0,1,16.376,13.1a3.85,3.85,0,0,1-.6-2.122A3.2,3.2,0,0,1,17.1,8.29,5.584,5.584,0,0,1,20.556,7.288ZM17.681,18.979a2.056,2.056,0,0,0,.774,1.713,3.306,3.306,0,0,0,2.1.61,3.234,3.234,0,0,0,2.127-.631,2.112,2.112,0,0,0,.759-1.713,2.2,2.2,0,0,0-.7-1.57,6.6,6.6,0,0,0-2.122-1.316l-.308-.138A5.459,5.459,0,0,0,18.3,17.287,2.565,2.565,0,0,0,17.681,18.979Zm2.854-9.771a2.628,2.628,0,0,0-1.708.525,1.74,1.74,0,0,0-.647,1.427,2.054,2.054,0,0,0,.233.987,2.574,2.574,0,0,0,.679.79,8.15,8.15,0,0,0,1.506.854,5,5,0,0,0,1.8-1.183,2.173,2.173,0,0,0,.525-1.448,1.734,1.734,0,0,0-.652-1.427A2.685,2.685,0,0,0,20.535,9.208Zm9.187,2.928a6.766,6.766,0,0,0,.308,2.355,1.05,1.05,0,0,0,1.008.774q1.4,0,1.4-3.13t-1.4-3.13a1.05,1.05,0,0,0-1.008.774A6.766,6.766,0,0,0,29.723,12.136Zm4.774-.021a6.306,6.306,0,0,1-.875,3.665,2.971,2.971,0,0,1-2.583,1.225,2.871,2.871,0,0,1-2.5-1.268,6.28,6.28,0,0,1-.886-3.623q0-4.848,3.384-4.848A2.957,2.957,0,0,1,33.6,8.524,6.128,6.128,0,0,1,34.5,12.115Zm5.326,6.217a6.754,6.754,0,0,0,.313,2.366,1.061,1.061,0,0,0,1.013.785q1.39,0,1.39-3.151,0-3.108-1.39-3.108a1.058,1.058,0,0,0-1.013.764A6.567,6.567,0,0,0,39.822,18.332Zm4.774,0a6.25,6.25,0,0,1-.881,3.66,2.968,2.968,0,0,1-2.567,1.22,2.892,2.892,0,0,1-2.5-1.257,6.221,6.221,0,0,1-.891-3.623q0-4.848,3.395-4.848a2.958,2.958,0,0,1,2.541,1.252A6.069,6.069,0,0,1,44.6,18.332ZM41.446,7.489,32.842,23H30.783l8.6-15.511ZM63.1,12.009a4.344,4.344,0,0,1-1.607,3.623,7.281,7.281,0,0,1-4.6,1.268H55.068V23h-1.8V7.489h4.021Q63.1,7.489,63.1,12.009Zm-8.031,3.342h1.623a6.032,6.032,0,0,0,3.469-.774,2.854,2.854,0,0,0,1.072-2.483A2.676,2.676,0,0,0,60.224,9.8a5.265,5.265,0,0,0-3.14-.753H55.068Zm15.924,7.861a5.342,5.342,0,0,1-4.069-1.57,6.078,6.078,0,0,1-1.491-4.36,6.741,6.741,0,0,1,1.384-4.466,4.6,4.6,0,0,1,3.718-1.655A4.385,4.385,0,0,1,73.994,12.6a5.51,5.51,0,0,1,1.273,3.793V17.5h-8.01a4.609,4.609,0,0,0,1.034,3.108,3.578,3.578,0,0,0,2.764,1.061,9.365,9.365,0,0,0,3.713-.785v1.57A9.32,9.32,0,0,1,73,23.037,9.927,9.927,0,0,1,70.992,23.212Zm-.477-10.577a2.876,2.876,0,0,0-2.233.912,4.206,4.206,0,0,0-.981,2.525h6.079a3.872,3.872,0,0,0-.743-2.551A2.614,2.614,0,0,0,70.515,12.635ZM85.42,23l-.35-1.655h-.085a4.893,4.893,0,0,1-1.735,1.48,5.287,5.287,0,0,1-2.159.387,3.884,3.884,0,0,1-2.711-.891,3.25,3.25,0,0,1-.981-2.536q0-3.522,5.633-3.692l1.973-.064v-.721a2.948,2.948,0,0,0-.589-2.021,2.422,2.422,0,0,0-1.883-.652,7.673,7.673,0,0,0-3.289.891L78.7,12.179a8.276,8.276,0,0,1,1.883-.732,8.156,8.156,0,0,1,2.053-.265,4.429,4.429,0,0,1,3.082.923,3.853,3.853,0,0,1,1,2.96V23Zm-3.978-1.241a3.575,3.575,0,0,0,2.583-.9,3.336,3.336,0,0,0,.939-2.525v-1.05l-1.761.074a6.406,6.406,0,0,0-3.029.652,1.967,1.967,0,0,0-.928,1.8,1.814,1.814,0,0,0,.578,1.453A2.4,2.4,0,0,0,81.442,21.759Zm14.216-10.6a6.891,6.891,0,0,1,1.39.127L96.8,12.921a6,6,0,0,0-1.273-.159,3.1,3.1,0,0,0-2.414,1.146,4.178,4.178,0,0,0-1,2.854V23H90.354V11.372h1.453l.2,2.154h.085a5.111,5.111,0,0,1,1.56-1.751A3.511,3.511,0,0,1,95.658,11.16Zm11.065,8.668a2.913,2.913,0,0,1-1.209,2.5,5.685,5.685,0,0,1-3.395.881,7.382,7.382,0,0,1-3.607-.732V20.846a8.723,8.723,0,0,0,1.8.668,7.509,7.509,0,0,0,1.851.244,4.2,4.2,0,0,0,2.122-.44,1.516,1.516,0,0,0,.154-2.5,9.262,9.262,0,0,0-2.3-1.14,12.455,12.455,0,0,1-2.307-1.056,3.152,3.152,0,0,1-1.018-1.024,2.67,2.67,0,0,1-.334-1.369,2.609,2.609,0,0,1,1.156-2.244,5.388,5.388,0,0,1,3.172-.822,9.281,9.281,0,0,1,3.671.764l-.626,1.432a8.426,8.426,0,0,0-3.172-.721,3.65,3.65,0,0,0-1.888.393,1.214,1.214,0,0,0-.637,1.082,1.318,1.318,0,0,0,.239.8,2.356,2.356,0,0,0,.769.626,17.189,17.189,0,0,0,2.037.859,7.61,7.61,0,0,1,2.8,1.517A2.675,2.675,0,0,1,106.724,19.828Z" transform="translate(8594.908 4374.647)" fill="#2e3e5a"/><path d="M10.02,16.391q0-9.1,7.416-9.1a9.2,9.2,0,0,1,1.973.18V9.548a6.737,6.737,0,0,0-1.867-.233A4.891,4.891,0,0,0,13.8,10.651a6.492,6.492,0,0,0-1.358,4.286h.127a3.413,3.413,0,0,1,1.4-1.331,4.514,4.514,0,0,1,2.122-.472,4.221,4.221,0,0,1,3.289,1.294,5.02,5.02,0,0,1,1.178,3.512A5.328,5.328,0,0,1,19.192,21.8a4.919,4.919,0,0,1-3.718,1.416,5.19,5.19,0,0,1-2.9-.8,5.115,5.115,0,0,1-1.894-2.334A9.257,9.257,0,0,1,10.02,16.391Zm5.411,4.763a2.44,2.44,0,0,0,1.979-.828,3.583,3.583,0,0,0,.695-2.366,3.131,3.131,0,0,0-.652-2.1,2.432,2.432,0,0,0-1.957-.764,3.233,3.233,0,0,0-1.485.345,2.728,2.728,0,0,0-1.072.944,2.212,2.212,0,0,0-.393,1.225,3.929,3.929,0,0,0,.812,2.52A2.533,2.533,0,0,0,15.431,21.154Zm8.954-9.018a6.766,6.766,0,0,0,.308,2.355,1.05,1.05,0,0,0,1.008.774q1.4,0,1.4-3.13t-1.4-3.13a1.05,1.05,0,0,0-1.008.774A6.766,6.766,0,0,0,24.385,12.136Zm4.774-.021a6.306,6.306,0,0,1-.875,3.665A2.971,2.971,0,0,1,25.7,17.006a2.871,2.871,0,0,1-2.5-1.268,6.28,6.28,0,0,1-.886-3.623q0-4.848,3.384-4.848a2.957,2.957,0,0,1,2.562,1.257A6.128,6.128,0,0,1,29.159,12.115Zm5.326,6.217A6.754,6.754,0,0,0,34.8,20.7a1.061,1.061,0,0,0,1.013.785q1.39,0,1.39-3.151,0-3.108-1.39-3.108a1.058,1.058,0,0,0-1.013.764A6.567,6.567,0,0,0,34.485,18.332Zm4.774,0a6.25,6.25,0,0,1-.881,3.66,2.968,2.968,0,0,1-2.567,1.22,2.892,2.892,0,0,1-2.5-1.257,6.221,6.221,0,0,1-.891-3.623q0-4.848,3.395-4.848a2.958,2.958,0,0,1,2.541,1.252A6.069,6.069,0,0,1,39.259,18.332ZM36.108,7.489,27.5,23H25.446l8.6-15.511Zm18.64,7.384h5.273v7.543a16.951,16.951,0,0,1-2.5.594,19.061,19.061,0,0,1-2.949.2,7.148,7.148,0,0,1-5.485-2.1,8.258,8.258,0,0,1-1.963-5.872,8.872,8.872,0,0,1,.971-4.238,6.565,6.565,0,0,1,2.8-2.78,9.056,9.056,0,0,1,4.275-.96,11.684,11.684,0,0,1,4.626.912l-.7,1.591a10.334,10.334,0,0,0-4.042-.891,5.788,5.788,0,0,0-4.424,1.687,6.547,6.547,0,0,0-1.591,4.679,6.691,6.691,0,0,0,1.533,4.763,5.9,5.9,0,0,0,4.5,1.623,13.381,13.381,0,0,0,3.151-.371V16.486H54.748ZM68.784,11.16a6.891,6.891,0,0,1,1.39.127l-.244,1.634a6,6,0,0,0-1.273-.159,3.1,3.1,0,0,0-2.414,1.146,4.178,4.178,0,0,0-1,2.854V23H63.48V11.372h1.453l.2,2.154h.085a5.111,5.111,0,0,1,1.56-1.751A3.511,3.511,0,0,1,68.784,11.16ZM79.065,23l-.35-1.655H78.63a4.893,4.893,0,0,1-1.735,1.48,5.287,5.287,0,0,1-2.159.387,3.884,3.884,0,0,1-2.711-.891,3.25,3.25,0,0,1-.981-2.536q0-3.522,5.633-3.692l1.973-.064v-.721a2.948,2.948,0,0,0-.589-2.021,2.422,2.422,0,0,0-1.883-.652,7.673,7.673,0,0,0-3.289.891l-.541-1.347a8.276,8.276,0,0,1,1.883-.732,8.156,8.156,0,0,1,2.053-.265,4.429,4.429,0,0,1,3.082.923,3.853,3.853,0,0,1,1,2.96V23Zm-3.978-1.241a3.575,3.575,0,0,0,2.583-.9,3.336,3.336,0,0,0,.939-2.525v-1.05l-1.761.074a6.406,6.406,0,0,0-3.029.652,1.967,1.967,0,0,0-.928,1.8,1.814,1.814,0,0,0,.578,1.453A2.4,2.4,0,0,0,75.086,21.759Zm14.322,1.453a5.032,5.032,0,0,1-2.074-.419A3.9,3.9,0,0,1,85.759,21.5h-.127a15.6,15.6,0,0,1,.127,1.931V28.22H84V11.372H85.43l.244,1.591h.085a4.09,4.09,0,0,1,1.581-1.379,4.805,4.805,0,0,1,2.069-.424,4.3,4.3,0,0,1,3.57,1.581,6.96,6.96,0,0,1,1.257,4.435,6.919,6.919,0,0,1-1.278,4.451A4.305,4.305,0,0,1,89.408,23.212Zm-.255-10.556a3.121,3.121,0,0,0-2.578.987,5.077,5.077,0,0,0-.817,3.14v.393a5.819,5.819,0,0,0,.817,3.506,3.107,3.107,0,0,0,2.62,1.056,2.725,2.725,0,0,0,2.361-1.22,5.785,5.785,0,0,0,.854-3.363,5.568,5.568,0,0,0-.854-3.337A2.809,2.809,0,0,0,89.154,12.656Zm13.07,10.556a5.342,5.342,0,0,1-4.069-1.57,6.078,6.078,0,0,1-1.491-4.36,6.741,6.741,0,0,1,1.384-4.466,4.6,4.6,0,0,1,3.718-1.655,4.385,4.385,0,0,1,3.459,1.438,5.51,5.51,0,0,1,1.273,3.793V17.5H98.49a4.609,4.609,0,0,0,1.034,3.108,3.578,3.578,0,0,0,2.764,1.061A9.365,9.365,0,0,0,106,20.889v1.57a9.32,9.32,0,0,1-1.766.578A9.927,9.927,0,0,1,102.224,23.212Zm-.477-10.577a2.876,2.876,0,0,0-2.233.912,4.206,4.206,0,0,0-.981,2.525h6.079a3.872,3.872,0,0,0-.743-2.551A2.614,2.614,0,0,0,101.747,12.635ZM117,19.828a2.913,2.913,0,0,1-1.209,2.5,5.685,5.685,0,0,1-3.395.881,7.382,7.382,0,0,1-3.607-.732V20.846a8.723,8.723,0,0,0,1.8.668,7.509,7.509,0,0,0,1.851.244,4.2,4.2,0,0,0,2.122-.44,1.516,1.516,0,0,0,.154-2.5,9.262,9.262,0,0,0-2.3-1.14,12.455,12.455,0,0,1-2.307-1.056,3.152,3.152,0,0,1-1.018-1.024,2.67,2.67,0,0,1-.334-1.369,2.609,2.609,0,0,1,1.156-2.244,5.388,5.388,0,0,1,3.172-.822,9.281,9.281,0,0,1,3.671.764l-.626,1.432a8.426,8.426,0,0,0-3.172-.721,3.65,3.65,0,0,0-1.888.393,1.214,1.214,0,0,0-.637,1.082,1.318,1.318,0,0,0,.239.8,2.356,2.356,0,0,0,.769.626,17.188,17.188,0,0,0,2.037.859,7.61,7.61,0,0,1,2.8,1.517A2.675,2.675,0,0,1,117,19.828Z" transform="translate(8584.908 4322.797)" fill="#2e3e5a"/><path d="M17.618,7.288A5.487,5.487,0,0,1,21.108,8.3a3.277,3.277,0,0,1,1.284,2.711q0,2.387-2.864,3.8a7.369,7.369,0,0,1,2.594,1.92,3.617,3.617,0,0,1,.769,2.249,3.777,3.777,0,0,1-1.411,3.077,5.847,5.847,0,0,1-3.819,1.156,6.241,6.241,0,0,1-3.915-1.082,3.659,3.659,0,0,1-1.39-3.066,3.955,3.955,0,0,1,.727-2.329,6.092,6.092,0,0,1,2.382-1.841A5.99,5.99,0,0,1,13.438,13.1a3.85,3.85,0,0,1-.6-2.122A3.2,3.2,0,0,1,14.159,8.29,5.584,5.584,0,0,1,17.618,7.288ZM14.743,18.979a2.056,2.056,0,0,0,.774,1.713,3.306,3.306,0,0,0,2.1.61,3.234,3.234,0,0,0,2.127-.631,2.112,2.112,0,0,0,.759-1.713,2.2,2.2,0,0,0-.7-1.57,6.6,6.6,0,0,0-2.122-1.316l-.308-.138a5.459,5.459,0,0,0-2.016,1.353A2.565,2.565,0,0,0,14.743,18.979ZM17.6,9.208a2.628,2.628,0,0,0-1.708.525,1.74,1.74,0,0,0-.647,1.427,2.054,2.054,0,0,0,.233.987,2.574,2.574,0,0,0,.679.79,8.15,8.15,0,0,0,1.506.854,5,5,0,0,0,1.8-1.183,2.173,2.173,0,0,0,.525-1.448,1.734,1.734,0,0,0-.652-1.427A2.685,2.685,0,0,0,17.6,9.208Zm9.187,2.928a6.766,6.766,0,0,0,.308,2.355,1.05,1.05,0,0,0,1.008.774q1.4,0,1.4-3.13t-1.4-3.13a1.05,1.05,0,0,0-1.008.774A6.766,6.766,0,0,0,26.784,12.136Zm4.774-.021a6.306,6.306,0,0,1-.875,3.665A2.971,2.971,0,0,1,28.1,17.006a2.871,2.871,0,0,1-2.5-1.268,6.28,6.28,0,0,1-.886-3.623q0-4.848,3.384-4.848a2.957,2.957,0,0,1,2.562,1.257A6.128,6.128,0,0,1,31.558,12.115Zm5.326,6.217A6.754,6.754,0,0,0,37.2,20.7a1.061,1.061,0,0,0,1.013.785q1.39,0,1.39-3.151,0-3.108-1.39-3.108a1.058,1.058,0,0,0-1.013.764A6.567,6.567,0,0,0,36.884,18.332Zm4.774,0a6.25,6.25,0,0,1-.881,3.66,2.968,2.968,0,0,1-2.567,1.22,2.892,2.892,0,0,1-2.5-1.257,6.221,6.221,0,0,1-.891-3.623q0-4.848,3.395-4.848a2.958,2.958,0,0,1,2.541,1.252A6.069,6.069,0,0,1,41.658,18.332ZM38.507,7.489,29.9,23H27.845l8.6-15.511ZM57.19,23,51.928,9.251h-.085q.149,1.634.149,3.883V23H50.326V7.489h2.716l4.912,12.795h.085L62.993,7.489h2.695V23h-1.8V13.006q0-1.719.149-3.734h-.085L58.643,23Zm19.637,0-.35-1.655h-.085a4.893,4.893,0,0,1-1.735,1.48,5.287,5.287,0,0,1-2.159.387,3.884,3.884,0,0,1-2.711-.891,3.25,3.25,0,0,1-.981-2.536q0-3.522,5.633-3.692l1.973-.064v-.721a2.948,2.948,0,0,0-.589-2.021,2.422,2.422,0,0,0-1.883-.652,7.673,7.673,0,0,0-3.289.891l-.541-1.347a8.276,8.276,0,0,1,1.883-.732,8.156,8.156,0,0,1,2.053-.265,4.429,4.429,0,0,1,3.082.923,3.853,3.853,0,0,1,1,2.96V23Zm-3.978-1.241a3.575,3.575,0,0,0,2.583-.9,3.336,3.336,0,0,0,.939-2.525v-1.05l-1.761.074a6.406,6.406,0,0,0-3.029.652,1.967,1.967,0,0,0-.928,1.8,1.814,1.814,0,0,0,.578,1.453A2.4,2.4,0,0,0,72.849,21.759ZM89.718,23V15.478a3.035,3.035,0,0,0-.647-2.122,2.636,2.636,0,0,0-2.026-.7,3.342,3.342,0,0,0-2.674.987,4.981,4.981,0,0,0-.849,3.257V23H81.761V11.372h1.432l.286,1.591h.085a3.6,3.6,0,0,1,1.517-1.331,4.929,4.929,0,0,1,2.175-.472,4.417,4.417,0,0,1,3.162,1.013,4.312,4.312,0,0,1,1.061,3.241V23Zm14.9-11.628v1.114l-2.154.255a3.782,3.782,0,0,1,.764,2.323,3.437,3.437,0,0,1-1.167,2.727,4.708,4.708,0,0,1-3.2,1.018,5.335,5.335,0,0,1-.976-.085,1.733,1.733,0,0,0-1.125,1.5.76.76,0,0,0,.393.706,2.867,2.867,0,0,0,1.347.228h2.058a4.609,4.609,0,0,1,2.9.8,2.765,2.765,0,0,1,1.013,2.313,3.3,3.3,0,0,1-1.549,2.944A8.29,8.29,0,0,1,98.4,28.22a6.175,6.175,0,0,1-3.517-.849,2.74,2.74,0,0,1-1.236-2.4,2.693,2.693,0,0,1,.679-1.835,3.457,3.457,0,0,1,1.91-1.05,1.842,1.842,0,0,1-.748-.626,1.656,1.656,0,0,1-.3-.987,1.873,1.873,0,0,1,.339-1.114,3.569,3.569,0,0,1,1.072-.923,3.141,3.141,0,0,1-1.469-1.262,3.71,3.71,0,0,1-.568-2.037A3.762,3.762,0,0,1,95.7,12.195a4.678,4.678,0,0,1,3.246-1.034,5.9,5.9,0,0,1,1.644.212ZM95.34,24.952a1.578,1.578,0,0,0,.8,1.432,4.391,4.391,0,0,0,2.281.488,6.365,6.365,0,0,0,3.284-.663,2.03,2.03,0,0,0,1.066-1.8,1.423,1.423,0,0,0-.583-1.31,4.532,4.532,0,0,0-2.2-.366H97.876a2.781,2.781,0,0,0-1.867.573A2.047,2.047,0,0,0,95.34,24.952ZM96.3,15.1a2.367,2.367,0,0,0,.69,1.846,2.753,2.753,0,0,0,1.92.626q2.578,0,2.578-2.5a2.311,2.311,0,0,0-2.61-2.62,2.584,2.584,0,0,0-1.91.668A2.692,2.692,0,0,0,96.3,15.1Zm20.741,2.079a6.414,6.414,0,0,1-1.432,4.44,5.044,5.044,0,0,1-3.957,1.6,5.241,5.241,0,0,1-2.769-.732,4.831,4.831,0,0,1-1.867-2.1,7.321,7.321,0,0,1-.658-3.2,6.4,6.4,0,0,1,1.422-4.429,5.028,5.028,0,0,1,3.947-1.586,4.919,4.919,0,0,1,3.878,1.623A6.387,6.387,0,0,1,117.036,17.176Zm-8.859,0a5.519,5.519,0,0,0,.891,3.395,3.537,3.537,0,0,0,5.246.005,5.491,5.491,0,0,0,.9-3.4,5.4,5.4,0,0,0-.9-3.368,3.15,3.15,0,0,0-2.647-1.151,3.1,3.1,0,0,0-2.61,1.135A5.463,5.463,0,0,0,108.177,17.176Zm19.447,2.652a2.913,2.913,0,0,1-1.209,2.5,5.685,5.685,0,0,1-3.395.881,7.382,7.382,0,0,1-3.607-.732V20.846a8.723,8.723,0,0,0,1.8.668,7.509,7.509,0,0,0,1.851.244,4.2,4.2,0,0,0,2.122-.44,1.516,1.516,0,0,0,.154-2.5,9.262,9.262,0,0,0-2.3-1.14,12.455,12.455,0,0,1-2.307-1.056,3.152,3.152,0,0,1-1.018-1.024,2.67,2.67,0,0,1-.334-1.369,2.609,2.609,0,0,1,1.156-2.244,5.388,5.388,0,0,1,3.172-.822,9.281,9.281,0,0,1,3.671.764l-.626,1.432a8.426,8.426,0,0,0-3.172-.721,3.65,3.65,0,0,0-1.888.393,1.214,1.214,0,0,0-.637,1.082,1.318,1.318,0,0,0,.239.8,2.356,2.356,0,0,0,.769.626,17.188,17.188,0,0,0,2.037.859,7.61,7.61,0,0,1,2.8,1.517A2.675,2.675,0,0,1,127.624,19.828Z" transform="translate(8574.008 4239.573)" fill="#2e3e5a"/><path d="M180.872.5H0v-1H180.872Z" transform="translate(8176.757 4271.751)" fill="#2e3e5a"/><path d="M206.067.5H0v-1H206.067Z" transform="translate(8176.757 4448.841)" fill="#2e3e5a"/><path d="M206.417.5H0v-1H206.417Z" transform="translate(8496.212 4449.988)" fill="#2e3e5a"/><path d="M13.219,23H10.726V12.985q0-1.793.085-2.843-.244.255-.6.562T7.829,12.656L6.577,11.075l4.562-3.586h2.079Zm16.147-3.384h-2.09V23H24.846V19.616H17.759V17.7L24.846,7.447h2.429v10.1h2.09Zm-4.519-2.069V13.653q0-2.079.106-3.406h-.085a12.035,12.035,0,0,1-.934,1.7l-3.851,5.6Zm7.861-5.411a6.766,6.766,0,0,0,.308,2.355,1.05,1.05,0,0,0,1.008.774q1.4,0,1.4-3.13t-1.4-3.13a1.05,1.05,0,0,0-1.008.774A6.766,6.766,0,0,0,32.708,12.136Zm4.774-.021a6.306,6.306,0,0,1-.875,3.665,2.971,2.971,0,0,1-2.583,1.225,2.871,2.871,0,0,1-2.5-1.268,6.28,6.28,0,0,1-.886-3.623q0-4.848,3.384-4.848a2.957,2.957,0,0,1,2.562,1.257A6.128,6.128,0,0,1,37.482,12.115Zm5.326,6.217a6.754,6.754,0,0,0,.313,2.366,1.061,1.061,0,0,0,1.013.785q1.39,0,1.39-3.151,0-3.108-1.39-3.108a1.058,1.058,0,0,0-1.013.764A6.567,6.567,0,0,0,42.808,18.332Zm4.774,0a6.25,6.25,0,0,1-.881,3.66,2.968,2.968,0,0,1-2.567,1.22,2.892,2.892,0,0,1-2.5-1.257,6.221,6.221,0,0,1-.891-3.623q0-4.848,3.395-4.848a2.958,2.958,0,0,1,2.541,1.252A6.069,6.069,0,0,1,47.582,18.332ZM44.431,7.489,35.827,23H33.769l8.6-15.511Zm25.282,7.734a8.539,8.539,0,0,1-1.883,5.856,6.62,6.62,0,0,1-5.236,2.132,6.7,6.7,0,0,1-5.289-2.1A8.608,8.608,0,0,1,55.443,15.2,8.5,8.5,0,0,1,57.31,9.33a6.752,6.752,0,0,1,5.3-2.085,6.607,6.607,0,0,1,5.22,2.122A8.53,8.53,0,0,1,69.712,15.224Zm-12.36,0A7.362,7.362,0,0,0,58.695,20a4.762,4.762,0,0,0,3.9,1.628,4.716,4.716,0,0,0,3.894-1.623A7.464,7.464,0,0,0,67.8,15.224a7.4,7.4,0,0,0-1.31-4.748,4.7,4.7,0,0,0-3.878-1.618,4.787,4.787,0,0,0-3.92,1.628A7.286,7.286,0,0,0,57.353,15.224ZM78.21,11.16a6.891,6.891,0,0,1,1.39.127l-.244,1.634a6,6,0,0,0-1.273-.159,3.1,3.1,0,0,0-2.414,1.146,4.178,4.178,0,0,0-1,2.854V23H72.906V11.372h1.453l.2,2.154h.085a5.111,5.111,0,0,1,1.56-1.751A3.511,3.511,0,0,1,78.21,11.16ZM88.49,23l-.35-1.655h-.085a4.893,4.893,0,0,1-1.735,1.48,5.287,5.287,0,0,1-2.159.387,3.884,3.884,0,0,1-2.711-.891,3.25,3.25,0,0,1-.981-2.536q0-3.522,5.633-3.692l1.973-.064v-.721a2.948,2.948,0,0,0-.589-2.021,2.422,2.422,0,0,0-1.883-.652,7.673,7.673,0,0,0-3.289.891l-.541-1.347a8.276,8.276,0,0,1,1.883-.732,8.156,8.156,0,0,1,2.053-.265,4.429,4.429,0,0,1,3.082.923,3.853,3.853,0,0,1,1,2.96V23Zm-3.978-1.241a3.575,3.575,0,0,0,2.583-.9,3.336,3.336,0,0,0,.939-2.525v-1.05l-1.761.074a6.406,6.406,0,0,0-3.029.652,1.967,1.967,0,0,0-.928,1.8,1.814,1.814,0,0,0,.578,1.453A2.4,2.4,0,0,0,84.512,21.759ZM101.381,23V15.478a3.035,3.035,0,0,0-.647-2.122,2.636,2.636,0,0,0-2.026-.7,3.342,3.342,0,0,0-2.674.987,4.981,4.981,0,0,0-.849,3.257V23H93.424V11.372h1.432l.286,1.591h.085a3.6,3.6,0,0,1,1.517-1.331,4.929,4.929,0,0,1,2.175-.472,4.417,4.417,0,0,1,3.162,1.013,4.312,4.312,0,0,1,1.061,3.241V23Zm14.9-11.628v1.114l-2.154.255a3.782,3.782,0,0,1,.764,2.323,3.437,3.437,0,0,1-1.167,2.727,4.708,4.708,0,0,1-3.2,1.018,5.335,5.335,0,0,1-.976-.085,1.733,1.733,0,0,0-1.125,1.5.76.76,0,0,0,.393.706,2.867,2.867,0,0,0,1.347.228h2.058a4.609,4.609,0,0,1,2.9.8,2.765,2.765,0,0,1,1.013,2.313,3.3,3.3,0,0,1-1.549,2.944,8.29,8.29,0,0,1-4.519,1.013,6.175,6.175,0,0,1-3.517-.849,2.74,2.74,0,0,1-1.236-2.4,2.693,2.693,0,0,1,.679-1.835,3.457,3.457,0,0,1,1.91-1.05,1.842,1.842,0,0,1-.748-.626,1.656,1.656,0,0,1-.3-.987,1.873,1.873,0,0,1,.339-1.114,3.569,3.569,0,0,1,1.072-.923,3.141,3.141,0,0,1-1.469-1.262,3.71,3.71,0,0,1-.568-2.037,3.762,3.762,0,0,1,1.146-2.944,4.678,4.678,0,0,1,3.246-1.034,5.9,5.9,0,0,1,1.644.212ZM107,24.952a1.578,1.578,0,0,0,.8,1.432,4.391,4.391,0,0,0,2.281.488,6.365,6.365,0,0,0,3.284-.663,2.03,2.03,0,0,0,1.066-1.8,1.423,1.423,0,0,0-.583-1.31,4.532,4.532,0,0,0-2.2-.366h-2.111a2.781,2.781,0,0,0-1.867.573A2.047,2.047,0,0,0,107,24.952Zm.955-9.856a2.367,2.367,0,0,0,.69,1.846,2.753,2.753,0,0,0,1.92.626q2.578,0,2.578-2.5a2.311,2.311,0,0,0-2.61-2.62,2.584,2.584,0,0,0-1.91.668A2.692,2.692,0,0,0,107.958,15.1Zm15.617,8.116a5.342,5.342,0,0,1-4.069-1.57,6.078,6.078,0,0,1-1.491-4.36,6.741,6.741,0,0,1,1.384-4.466,4.6,4.6,0,0,1,3.718-1.655,4.385,4.385,0,0,1,3.459,1.438,5.51,5.51,0,0,1,1.273,3.793V17.5h-8.01a4.609,4.609,0,0,0,1.034,3.108,3.578,3.578,0,0,0,2.764,1.061,9.365,9.365,0,0,0,3.713-.785v1.57a9.32,9.32,0,0,1-1.766.578A9.927,9.927,0,0,1,123.575,23.212ZM123.1,12.635a2.876,2.876,0,0,0-2.233.912,4.206,4.206,0,0,0-.981,2.525h6.079a3.872,3.872,0,0,0-.743-2.551A2.614,2.614,0,0,0,123.1,12.635Zm15.256,7.193a2.913,2.913,0,0,1-1.209,2.5,5.685,5.685,0,0,1-3.395.881,7.382,7.382,0,0,1-3.607-.732V20.846a8.723,8.723,0,0,0,1.8.668,7.509,7.509,0,0,0,1.851.244,4.2,4.2,0,0,0,2.122-.44,1.516,1.516,0,0,0,.154-2.5,9.262,9.262,0,0,0-2.3-1.14,12.455,12.455,0,0,1-2.307-1.056,3.152,3.152,0,0,1-1.018-1.024,2.67,2.67,0,0,1-.334-1.369,2.609,2.609,0,0,1,1.156-2.244,5.388,5.388,0,0,1,3.172-.822,9.281,9.281,0,0,1,3.671.764l-.626,1.432a8.426,8.426,0,0,0-3.172-.721,3.65,3.65,0,0,0-1.888.393,1.214,1.214,0,0,0-.637,1.082,1.318,1.318,0,0,0,.239.8,2.356,2.356,0,0,0,.769.626,17.189,17.189,0,0,0,2.037.859,7.61,7.61,0,0,1,2.8,1.517A2.675,2.675,0,0,1,138.353,19.828Z" transform="translate(8563.558 4448.647)" fill="#2e3e5a"/><path d="M12.02,19.616H9.93V23H7.5V19.616H.414V17.7L7.5,7.447H9.93v10.1h2.09ZM7.5,17.547V13.653q0-2.079.106-3.406H7.522a12.035,12.035,0,0,1-.934,1.7l-3.851,5.6ZM18.6,7.288A5.487,5.487,0,0,1,22.088,8.3a3.277,3.277,0,0,1,1.284,2.711q0,2.387-2.864,3.8A7.369,7.369,0,0,1,23.1,16.73a3.617,3.617,0,0,1,.769,2.249,3.777,3.777,0,0,1-1.411,3.077,5.847,5.847,0,0,1-3.819,1.156,6.241,6.241,0,0,1-3.915-1.082,3.659,3.659,0,0,1-1.39-3.066,3.955,3.955,0,0,1,.727-2.329,6.092,6.092,0,0,1,2.382-1.841A5.99,5.99,0,0,1,14.418,13.1a3.85,3.85,0,0,1-.6-2.122A3.2,3.2,0,0,1,15.139,8.29,5.584,5.584,0,0,1,18.6,7.288ZM15.723,18.979a2.056,2.056,0,0,0,.774,1.713,3.306,3.306,0,0,0,2.1.61,3.234,3.234,0,0,0,2.127-.631,2.112,2.112,0,0,0,.759-1.713,2.2,2.2,0,0,0-.7-1.57,6.6,6.6,0,0,0-2.122-1.316l-.308-.138a5.459,5.459,0,0,0-2.016,1.353A2.565,2.565,0,0,0,15.723,18.979Zm2.854-9.771a2.628,2.628,0,0,0-1.708.525,1.74,1.74,0,0,0-.647,1.427,2.054,2.054,0,0,0,.233.987,2.574,2.574,0,0,0,.679.79,8.15,8.15,0,0,0,1.506.854,5,5,0,0,0,1.8-1.183,2.173,2.173,0,0,0,.525-1.448,1.734,1.734,0,0,0-.652-1.427A2.685,2.685,0,0,0,18.577,9.208Zm9.187,2.928a6.766,6.766,0,0,0,.308,2.355,1.05,1.05,0,0,0,1.008.774q1.4,0,1.4-3.13t-1.4-3.13a1.05,1.05,0,0,0-1.008.774A6.766,6.766,0,0,0,27.764,12.136Zm4.774-.021a6.306,6.306,0,0,1-.875,3.665,2.971,2.971,0,0,1-2.583,1.225,2.871,2.871,0,0,1-2.5-1.268,6.28,6.28,0,0,1-.886-3.623q0-4.848,3.384-4.848a2.957,2.957,0,0,1,2.562,1.257A6.128,6.128,0,0,1,32.538,12.115Zm5.326,6.217a6.754,6.754,0,0,0,.313,2.366,1.061,1.061,0,0,0,1.013.785q1.39,0,1.39-3.151,0-3.108-1.39-3.108a1.058,1.058,0,0,0-1.013.764A6.567,6.567,0,0,0,37.864,18.332Zm4.774,0a6.25,6.25,0,0,1-.881,3.66,2.968,2.968,0,0,1-2.567,1.22,2.892,2.892,0,0,1-2.5-1.257,6.221,6.221,0,0,1-.891-3.623q0-4.848,3.395-4.848a2.958,2.958,0,0,1,2.541,1.252A6.069,6.069,0,0,1,42.638,18.332ZM39.487,7.489,30.883,23H28.825l8.6-15.511ZM61.055,23l-1.931-4.933H52.908L51,23H49.173L55.305,7.426h1.517L62.923,23Zm-2.493-6.556-1.8-4.806q-.35-.912-.721-2.239a20.1,20.1,0,0,1-.668,2.239l-1.825,4.806ZM70.2,23.212a5.032,5.032,0,0,1-2.074-.419A3.9,3.9,0,0,1,66.551,21.5h-.127a15.6,15.6,0,0,1,.127,1.931V28.22H64.79V11.372h1.432l.244,1.591h.085a4.09,4.09,0,0,1,1.581-1.379A4.805,4.805,0,0,1,70.2,11.16a4.3,4.3,0,0,1,3.57,1.581,6.96,6.96,0,0,1,1.257,4.435,6.919,6.919,0,0,1-1.278,4.451A4.305,4.305,0,0,1,70.2,23.212Zm-.255-10.556a3.121,3.121,0,0,0-2.578.987,5.077,5.077,0,0,0-.817,3.14v.393a5.819,5.819,0,0,0,.817,3.506,3.107,3.107,0,0,0,2.62,1.056,2.725,2.725,0,0,0,2.361-1.22,5.785,5.785,0,0,0,.854-3.363,5.568,5.568,0,0,0-.854-3.337A2.809,2.809,0,0,0,69.946,12.656ZM83.515,23.212a5.032,5.032,0,0,1-2.074-.419A3.9,3.9,0,0,1,79.865,21.5h-.127a15.6,15.6,0,0,1,.127,1.931V28.22H78.1V11.372h1.432l.244,1.591h.085a4.09,4.09,0,0,1,1.581-1.379,4.805,4.805,0,0,1,2.069-.424,4.3,4.3,0,0,1,3.57,1.581,6.96,6.96,0,0,1,1.257,4.435,6.919,6.919,0,0,1-1.278,4.451A4.305,4.305,0,0,1,83.515,23.212ZM83.26,12.656a3.121,3.121,0,0,0-2.578.987,5.077,5.077,0,0,0-.817,3.14v.393a5.819,5.819,0,0,0,.817,3.506,3.107,3.107,0,0,0,2.62,1.056,2.725,2.725,0,0,0,2.361-1.22,5.785,5.785,0,0,0,.854-3.363,5.568,5.568,0,0,0-.854-3.337A2.809,2.809,0,0,0,83.26,12.656ZM93.18,23H91.419V6.492H93.18Zm8.646.212a5.342,5.342,0,0,1-4.069-1.57,6.078,6.078,0,0,1-1.491-4.36,6.741,6.741,0,0,1,1.384-4.466,4.6,4.6,0,0,1,3.718-1.655,4.385,4.385,0,0,1,3.459,1.438,5.51,5.51,0,0,1,1.273,3.793V17.5h-8.01a4.609,4.609,0,0,0,1.034,3.108,3.578,3.578,0,0,0,2.764,1.061,9.365,9.365,0,0,0,3.713-.785v1.57a9.32,9.32,0,0,1-1.766.578A9.927,9.927,0,0,1,101.826,23.212Zm-.477-10.577a2.876,2.876,0,0,0-2.233.912,4.206,4.206,0,0,0-.981,2.525h6.079a3.872,3.872,0,0,0-.743-2.551A2.614,2.614,0,0,0,101.349,12.635ZM116.6,19.828a2.913,2.913,0,0,1-1.209,2.5,5.685,5.685,0,0,1-3.395.881,7.382,7.382,0,0,1-3.607-.732V20.846a8.723,8.723,0,0,0,1.8.668,7.509,7.509,0,0,0,1.851.244,4.2,4.2,0,0,0,2.122-.44,1.516,1.516,0,0,0,.154-2.5,9.262,9.262,0,0,0-2.3-1.14,12.455,12.455,0,0,1-2.307-1.056,3.152,3.152,0,0,1-1.018-1.024,2.67,2.67,0,0,1-.334-1.369,2.609,2.609,0,0,1,1.156-2.244,5.388,5.388,0,0,1,3.172-.822,9.281,9.281,0,0,1,3.671.764l-.626,1.432a8.426,8.426,0,0,0-3.172-.721,3.65,3.65,0,0,0-1.888.393,1.214,1.214,0,0,0-.637,1.082,1.318,1.318,0,0,0,.239.8,2.356,2.356,0,0,0,.769.626,17.189,17.189,0,0,0,2.037.859,7.61,7.61,0,0,1,2.8,1.517A2.675,2.675,0,0,1,116.6,19.828Z" transform="translate(8176.757 4240.572)" fill="#2e3e5a"/><path d="M8.275,23H5.782V12.985q0-1.793.085-2.843-.244.255-.6.562T2.886,12.656L1.634,11.075,6.2,7.489H8.275ZM13.4,16.391q0-9.1,7.416-9.1a9.2,9.2,0,0,1,1.973.18V9.548a6.737,6.737,0,0,0-1.867-.233,4.891,4.891,0,0,0-3.745,1.337,6.492,6.492,0,0,0-1.358,4.286h.127a3.413,3.413,0,0,1,1.4-1.331,4.514,4.514,0,0,1,2.122-.472,4.221,4.221,0,0,1,3.289,1.294,5.02,5.02,0,0,1,1.178,3.512A5.328,5.328,0,0,1,22.571,21.8a4.919,4.919,0,0,1-3.718,1.416,5.19,5.19,0,0,1-2.9-.8,5.115,5.115,0,0,1-1.894-2.334A9.257,9.257,0,0,1,13.4,16.391Zm5.411,4.763a2.44,2.44,0,0,0,1.979-.828,3.583,3.583,0,0,0,.695-2.366,3.131,3.131,0,0,0-.652-2.1,2.432,2.432,0,0,0-1.957-.764,3.233,3.233,0,0,0-1.485.345,2.728,2.728,0,0,0-1.072.944,2.212,2.212,0,0,0-.393,1.225,3.929,3.929,0,0,0,.812,2.52A2.533,2.533,0,0,0,18.81,21.154Zm8.954-9.018a6.766,6.766,0,0,0,.308,2.355,1.05,1.05,0,0,0,1.008.774q1.4,0,1.4-3.13t-1.4-3.13a1.05,1.05,0,0,0-1.008.774A6.766,6.766,0,0,0,27.764,12.136Zm4.774-.021a6.306,6.306,0,0,1-.875,3.665,2.971,2.971,0,0,1-2.583,1.225,2.871,2.871,0,0,1-2.5-1.268,6.28,6.28,0,0,1-.886-3.623q0-4.848,3.384-4.848a2.957,2.957,0,0,1,2.562,1.257A6.128,6.128,0,0,1,32.538,12.115Zm5.326,6.217a6.754,6.754,0,0,0,.313,2.366,1.061,1.061,0,0,0,1.013.785q1.39,0,1.39-3.151,0-3.108-1.39-3.108a1.058,1.058,0,0,0-1.013.764A6.567,6.567,0,0,0,37.864,18.332Zm4.774,0a6.25,6.25,0,0,1-.881,3.66,2.968,2.968,0,0,1-2.567,1.22,2.892,2.892,0,0,1-2.5-1.257,6.221,6.221,0,0,1-.891-3.623q0-4.848,3.395-4.848a2.958,2.958,0,0,1,2.541,1.252A6.069,6.069,0,0,1,42.638,18.332ZM39.487,7.489,30.883,23H28.825l8.6-15.511Zm11.819,0h4.382a8.267,8.267,0,0,1,4.466.923,3.258,3.258,0,0,1,1.379,2.918,3.371,3.371,0,0,1-.769,2.276,3.7,3.7,0,0,1-2.244,1.162v.106q3.533.6,3.533,3.713a3.988,3.988,0,0,1-1.406,3.246A5.983,5.983,0,0,1,56.716,23H51.306Zm1.8,6.641H56.08a4.836,4.836,0,0,0,2.748-.6,2.314,2.314,0,0,0,.838-2.021,2.045,2.045,0,0,0-.934-1.883,5.834,5.834,0,0,0-2.971-.578H53.109Zm0,1.528v5.8h3.236a4.609,4.609,0,0,0,2.827-.727,2.683,2.683,0,0,0,.95-2.276,2.41,2.41,0,0,0-.971-2.122,5.188,5.188,0,0,0-2.955-.679ZM72.269,23l-.35-1.655h-.085a4.893,4.893,0,0,1-1.735,1.48,5.287,5.287,0,0,1-2.159.387,3.884,3.884,0,0,1-2.711-.891,3.25,3.25,0,0,1-.981-2.536q0-3.522,5.633-3.692l1.973-.064v-.721a2.948,2.948,0,0,0-.589-2.021,2.422,2.422,0,0,0-1.883-.652,7.673,7.673,0,0,0-3.289.891l-.541-1.347a8.276,8.276,0,0,1,1.883-.732,8.156,8.156,0,0,1,2.053-.265,4.429,4.429,0,0,1,3.082.923,3.853,3.853,0,0,1,1,2.96V23Zm-3.978-1.241a3.575,3.575,0,0,0,2.583-.9,3.336,3.336,0,0,0,.939-2.525v-1.05l-1.761.074a6.406,6.406,0,0,0-3.029.652,1.967,1.967,0,0,0-.928,1.8,1.814,1.814,0,0,0,.578,1.453A2.4,2.4,0,0,0,68.291,21.759ZM85.159,23V15.478a3.035,3.035,0,0,0-.647-2.122,2.636,2.636,0,0,0-2.026-.7,3.342,3.342,0,0,0-2.674.987,4.981,4.981,0,0,0-.849,3.257V23H77.2V11.372h1.432l.286,1.591h.085a3.6,3.6,0,0,1,1.517-1.331A4.929,4.929,0,0,1,82.7,11.16a4.417,4.417,0,0,1,3.162,1.013,4.312,4.312,0,0,1,1.061,3.241V23Zm12.529,0-.35-1.655h-.085a4.893,4.893,0,0,1-1.735,1.48,5.287,5.287,0,0,1-2.159.387,3.884,3.884,0,0,1-2.711-.891,3.25,3.25,0,0,1-.981-2.536q0-3.522,5.633-3.692l1.973-.064v-.721a2.948,2.948,0,0,0-.589-2.021,2.422,2.422,0,0,0-1.883-.652,7.673,7.673,0,0,0-3.289.891l-.541-1.347a8.276,8.276,0,0,1,1.883-.732,8.156,8.156,0,0,1,2.053-.265,4.429,4.429,0,0,1,3.082.923,3.853,3.853,0,0,1,1,2.96V23ZM93.71,21.759a3.575,3.575,0,0,0,2.583-.9,3.336,3.336,0,0,0,.939-2.525v-1.05l-1.761.074a6.406,6.406,0,0,0-3.029.652,1.967,1.967,0,0,0-.928,1.8,1.814,1.814,0,0,0,.578,1.453A2.4,2.4,0,0,0,93.71,21.759ZM110.579,23V15.478a3.035,3.035,0,0,0-.647-2.122,2.636,2.636,0,0,0-2.026-.7,3.342,3.342,0,0,0-2.674.987,4.981,4.981,0,0,0-.849,3.257V23h-1.761V11.372h1.432l.286,1.591h.085a3.6,3.6,0,0,1,1.517-1.331,4.929,4.929,0,0,1,2.175-.472,4.417,4.417,0,0,1,3.162,1.013,4.312,4.312,0,0,1,1.061,3.241V23Zm12.529,0-.35-1.655h-.085a4.893,4.893,0,0,1-1.735,1.48,5.287,5.287,0,0,1-2.159.387,3.884,3.884,0,0,1-2.711-.891,3.25,3.25,0,0,1-.981-2.536q0-3.522,5.633-3.692l1.973-.064v-.721a2.948,2.948,0,0,0-.589-2.021,2.422,2.422,0,0,0-1.883-.652,7.673,7.673,0,0,0-3.289.891l-.541-1.347a8.276,8.276,0,0,1,1.883-.732,8.156,8.156,0,0,1,2.053-.265,4.429,4.429,0,0,1,3.082.923,3.853,3.853,0,0,1,1,2.96V23Zm-3.978-1.241a3.575,3.575,0,0,0,2.583-.9,3.336,3.336,0,0,0,.939-2.525v-1.05l-1.761.074a6.406,6.406,0,0,0-3.029.652,1.967,1.967,0,0,0-.928,1.8,1.814,1.814,0,0,0,.578,1.453A2.4,2.4,0,0,0,119.13,21.759Zm16.412-1.931a2.913,2.913,0,0,1-1.209,2.5,5.685,5.685,0,0,1-3.395.881,7.382,7.382,0,0,1-3.607-.732V20.846a8.723,8.723,0,0,0,1.8.668,7.509,7.509,0,0,0,1.851.244,4.2,4.2,0,0,0,2.122-.44,1.516,1.516,0,0,0,.154-2.5,9.262,9.262,0,0,0-2.3-1.14,12.455,12.455,0,0,1-2.307-1.056,3.152,3.152,0,0,1-1.018-1.024,2.67,2.67,0,0,1-.334-1.369,2.609,2.609,0,0,1,1.156-2.244,5.388,5.388,0,0,1,3.172-.822,9.281,9.281,0,0,1,3.671.764l-.626,1.432a8.426,8.426,0,0,0-3.172-.721,3.65,3.65,0,0,0-1.888.393,1.214,1.214,0,0,0-.637,1.082,1.318,1.318,0,0,0,.239.8,2.356,2.356,0,0,0,.769.626,17.19,17.19,0,0,0,2.037.859,7.61,7.61,0,0,1,2.8,1.517A2.675,2.675,0,0,1,135.542,19.828Z" transform="translate(8176.757 4446.572)" fill="#2e3e5a"/><path d="M2.737,23H.912L4.191,7.489h7.8L11.67,9.113H5.644L4.477,14.767h5.6l-.339,1.623H4.127Zm15.5-11.84a4.841,4.841,0,0,1,1.273.149L19.128,12.9a4.663,4.663,0,0,0-1.114-.138,2.947,2.947,0,0,0-1.809.637,5.571,5.571,0,0,0-1.475,1.766,8.994,8.994,0,0,0-.928,2.509L12.667,23H10.885l2.483-11.628h1.475l-.233,2.154h.106a10.425,10.425,0,0,1,1.262-1.448,4,4,0,0,1,1.045-.679A3,3,0,0,1,18.237,11.16Zm5.411.212-1.591,7.373a7.959,7.959,0,0,0-.191,1.475,1.36,1.36,0,0,0,1.56,1.517A3.154,3.154,0,0,0,25.26,21.1a5.657,5.657,0,0,0,1.591-1.825,9.79,9.79,0,0,0,1.05-2.864l1.061-5.039h1.761L28.273,23H26.8l.233-2.154H26.9a6.967,6.967,0,0,1-1.984,1.846,4,4,0,0,1-1.952.52,2.966,2.966,0,0,1-2.132-.737,2.77,2.77,0,0,1-.774-2.106,9.946,9.946,0,0,1,.233-1.825l1.549-7.172ZM33.811,23H32.029l2.483-11.628h1.782Zm1.2-14.6a1.4,1.4,0,0,1,.339-.971,1.131,1.131,0,0,1,.881-.377.835.835,0,0,1,.934.955A1.439,1.439,0,0,1,36.808,9a1.07,1.07,0,0,1-.822.4.98.98,0,0,1-.7-.26A.964.964,0,0,1,35.01,8.4Zm6.1,13.357a5.74,5.74,0,0,0,1.528-.276v1.369a4.89,4.89,0,0,1-.891.255,4.564,4.564,0,0,1-.849.106,2.95,2.95,0,0,1-2.032-.631,2.4,2.4,0,0,1-.706-1.883,7.686,7.686,0,0,1,.191-1.591L39.7,12.72H37.875l.149-.774,1.963-.828L41.312,8.7h1.04l-.583,2.673h2.907L44.4,12.72H41.5l-1.369,6.408a7.547,7.547,0,0,0-.191,1.4,1.26,1.26,0,0,0,.308.912A1.139,1.139,0,0,0,41.11,21.759Zm13.866,1.453a4.318,4.318,0,0,1-3.193-1.135,4.333,4.333,0,0,1-1.135-3.2,9.653,9.653,0,0,1,.785-3.915,6.646,6.646,0,0,1,2.17-2.8,5.18,5.18,0,0,1,3.114-1,7.775,7.775,0,0,1,2.843.541l-.5,1.5a6,6,0,0,0-2.323-.541,3.325,3.325,0,0,0-2.17.812,5.345,5.345,0,0,0-1.538,2.26,8.69,8.69,0,0,0-.557,3.146,2.969,2.969,0,0,0,.706,2.111,2.537,2.537,0,0,0,1.947.753,4.81,4.81,0,0,0,1.443-.212,13.228,13.228,0,0,0,1.337-.5v1.517A6.371,6.371,0,0,1,54.976,23.212ZM66.212,11.224a4.247,4.247,0,0,1,3.183,1.194A4.5,4.5,0,0,1,70.561,15.7a9.411,9.411,0,0,1-.764,3.766A6.515,6.515,0,0,1,67.729,22.2a4.834,4.834,0,0,1-2.949.965,4.229,4.229,0,0,1-3.193-1.2,4.524,4.524,0,0,1-1.156-3.278A9.389,9.389,0,0,1,61.2,14.9a6.429,6.429,0,0,1,2.09-2.727A4.871,4.871,0,0,1,66.212,11.224Zm2.5,4.233a2.9,2.9,0,0,0-.663-1.979,2.266,2.266,0,0,0-1.8-.759,3.105,3.105,0,0,0-2.074.785,5.053,5.053,0,0,0-1.422,2.18,9.081,9.081,0,0,0-.5,3.1,3.129,3.129,0,0,0,.674,2.148,2.453,2.453,0,0,0,1.936.759,2.926,2.926,0,0,0,1.984-.774,5.058,5.058,0,0,0,1.374-2.2A9.961,9.961,0,0,0,68.715,15.457ZM79.314,23l1.57-7.342a9.676,9.676,0,0,0,.212-1.528,1.506,1.506,0,0,0-.377-1.072,1.58,1.58,0,0,0-1.2-.4,3.145,3.145,0,0,0-1.841.637,5.664,5.664,0,0,0-1.581,1.814,9.546,9.546,0,0,0-1.034,2.854L73.988,23H72.206l2.483-11.628h1.475l-.233,2.154h.106A7.087,7.087,0,0,1,78,11.7a3.953,3.953,0,0,1,1.968-.536A2.97,2.97,0,0,1,82.1,11.9a2.7,2.7,0,0,1,.78,2.063,8.709,8.709,0,0,1-.244,1.91L81.117,23Zm12.6-3.3a3.11,3.11,0,0,1-1.172,2.583,5.206,5.206,0,0,1-3.3.928A7.049,7.049,0,0,1,84.2,22.48V20.8a6.6,6.6,0,0,0,1.6.69,5.854,5.854,0,0,0,1.591.244,3.234,3.234,0,0,0,2.016-.53,1.649,1.649,0,0,0,.679-1.358,1.469,1.469,0,0,0-.371-1.018,7.482,7.482,0,0,0-1.6-1.135,6.453,6.453,0,0,1-1.952-1.517,2.8,2.8,0,0,1-.573-1.761,2.927,2.927,0,0,1,1.072-2.361,4.253,4.253,0,0,1,2.822-.9,8.207,8.207,0,0,1,3.5.785L92.416,13.4l-.594-.265a5.9,5.9,0,0,0-2.334-.456,2.373,2.373,0,0,0-1.549.461,1.556,1.556,0,0,0-.186,2.212,6.646,6.646,0,0,0,1.554,1.093,9.037,9.037,0,0,1,1.629,1.093,3.155,3.155,0,0,1,.737.981A2.775,2.775,0,0,1,91.917,19.7Zm6.291-8.328-1.591,7.373a7.958,7.958,0,0,0-.191,1.475,1.36,1.36,0,0,0,1.56,1.517,3.154,3.154,0,0,0,1.835-.637,5.657,5.657,0,0,0,1.591-1.825,9.79,9.79,0,0,0,1.05-2.864l1.061-5.039h1.761L102.834,23H101.36l.233-2.154h-.127a6.967,6.967,0,0,1-1.984,1.846,4,4,0,0,1-1.952.52,2.966,2.966,0,0,1-2.132-.737,2.77,2.77,0,0,1-.774-2.106,9.946,9.946,0,0,1,.233-1.825l1.549-7.172ZM113.348,23l1.57-7.342a8.725,8.725,0,0,0,.191-1.432,1.815,1.815,0,0,0-.329-1.156,1.357,1.357,0,0,0-1.125-.414,2.851,2.851,0,0,0-1.735.637,5.54,5.54,0,0,0-1.485,1.819,10.493,10.493,0,0,0-.992,2.849L108.372,23H106.59l2.483-11.628h1.475l-.233,2.154h.106a6.647,6.647,0,0,1,1.841-1.814,3.629,3.629,0,0,1,1.894-.552,2.409,2.409,0,0,1,1.846.69,3.152,3.152,0,0,1,.764,1.92h.085A6.814,6.814,0,0,1,118.79,11.8a3.894,3.894,0,0,1,2.079-.642,2.856,2.856,0,0,1,2.085.721,2.809,2.809,0,0,1,.737,2.1,10.1,10.1,0,0,1-.233,1.888L121.931,23h-1.8l1.57-7.342a9.642,9.642,0,0,0,.212-1.549,1.337,1.337,0,0,0-1.517-1.453,2.849,2.849,0,0,0-1.7.615,5.359,5.359,0,0,0-1.469,1.745,9.533,9.533,0,0,0-.96,2.679L115.13,23Zm17.346.212a3.114,3.114,0,0,1-1.8-.53,3.444,3.444,0,0,1-1.2-1.485h-.106l-.042.4q-.032.265-.111.743t-1.215,5.877h-1.761l3.565-16.847h1.475l-.276,2.217h.085q1.9-2.408,3.947-2.408a2.791,2.791,0,0,1,2.292,1.034,4.494,4.494,0,0,1,.838,2.9,11.27,11.27,0,0,1-.732,4.127,6.853,6.853,0,0,1-2.026,2.923A4.538,4.538,0,0,1,130.694,23.212Zm1.973-10.556a3.069,3.069,0,0,0-2.074,1.008,7.186,7.186,0,0,0-1.676,2.536,8.245,8.245,0,0,0-.621,3.13,2.5,2.5,0,0,0,.589,1.788,2.236,2.236,0,0,0,1.7.621,2.805,2.805,0,0,0,1.957-.859A6.033,6.033,0,0,0,134,18.433a10.18,10.18,0,0,0,.552-3.368Q134.555,12.656,132.667,12.656Zm8.975,9.1a5.74,5.74,0,0,0,1.528-.276v1.369a4.891,4.891,0,0,1-.891.255,4.564,4.564,0,0,1-.849.106,2.95,2.95,0,0,1-2.032-.631,2.4,2.4,0,0,1-.706-1.883,7.686,7.686,0,0,1,.191-1.591l1.347-6.387h-1.825l.149-.774,1.963-.828L141.844,8.7h1.04l-.583,2.673h2.907l-.276,1.347h-2.9l-1.369,6.408a7.548,7.548,0,0,0-.191,1.4,1.26,1.26,0,0,0,.308.912A1.139,1.139,0,0,0,141.642,21.759ZM146.9,23h-1.782L147.6,11.372h1.782Zm1.2-14.6a1.4,1.4,0,0,1,.339-.971,1.131,1.131,0,0,1,.881-.377.835.835,0,0,1,.934.955A1.439,1.439,0,0,1,149.9,9a1.07,1.07,0,0,1-.822.4.98.98,0,0,1-.7-.26A.964.964,0,0,1,148.1,8.4Zm8.731,2.822a4.247,4.247,0,0,1,3.183,1.194,4.5,4.5,0,0,1,1.167,3.284,9.411,9.411,0,0,1-.764,3.766,6.514,6.514,0,0,1-2.069,2.737,4.834,4.834,0,0,1-2.949.965,4.229,4.229,0,0,1-3.193-1.2,4.524,4.524,0,0,1-1.156-3.278,9.389,9.389,0,0,1,.774-3.793,6.429,6.429,0,0,1,2.09-2.727A4.871,4.871,0,0,1,156.835,11.224Zm2.5,4.233a2.9,2.9,0,0,0-.663-1.979,2.266,2.266,0,0,0-1.8-.759,3.105,3.105,0,0,0-2.074.785,5.053,5.053,0,0,0-1.422,2.18,9.082,9.082,0,0,0-.5,3.1,3.129,3.129,0,0,0,.674,2.148,2.453,2.453,0,0,0,1.936.759,2.926,2.926,0,0,0,1.984-.774,5.058,5.058,0,0,0,1.374-2.2A9.961,9.961,0,0,0,159.338,15.457ZM169.937,23l1.57-7.342a9.676,9.676,0,0,0,.212-1.528,1.506,1.506,0,0,0-.377-1.072,1.58,1.58,0,0,0-1.2-.4,3.145,3.145,0,0,0-1.841.637,5.664,5.664,0,0,0-1.581,1.814,9.545,9.545,0,0,0-1.034,2.854L164.611,23h-1.782l2.483-11.628h1.475l-.233,2.154h.106a7.087,7.087,0,0,1,1.968-1.83,3.953,3.953,0,0,1,1.968-.536,2.97,2.97,0,0,1,2.127.737,2.7,2.7,0,0,1,.78,2.063,8.709,8.709,0,0,1-.244,1.91L171.74,23ZM182.8,23h-1.782L183.5,11.372h1.782Zm1.2-14.6a1.4,1.4,0,0,1,.339-.971,1.131,1.131,0,0,1,.881-.377.835.835,0,0,1,.934.955,1.439,1.439,0,0,1-.355.987,1.07,1.07,0,0,1-.822.4.98.98,0,0,1-.7-.26A.964.964,0,0,1,183.994,8.4ZM193.638,23l1.57-7.342a9.676,9.676,0,0,0,.212-1.528,1.506,1.506,0,0,0-.377-1.072,1.58,1.58,0,0,0-1.2-.4,3.145,3.145,0,0,0-1.841.637,5.664,5.664,0,0,0-1.581,1.814,9.545,9.545,0,0,0-1.034,2.854L188.312,23H186.53l2.483-11.628h1.475l-.233,2.154h.106a7.087,7.087,0,0,1,1.968-1.83,3.953,3.953,0,0,1,1.968-.536,2.97,2.97,0,0,1,2.127.737,2.7,2.7,0,0,1,.78,2.063,8.709,8.709,0,0,1-.244,1.91L195.441,23Zm20.115,0h-9.538l.329-1.56,4.933-4.456q1.082-.987,1.873-1.735a12.712,12.712,0,0,0,1.3-1.411,5.181,5.181,0,0,0,.764-1.316,4.028,4.028,0,0,0,.249-1.448,2.209,2.209,0,0,0-.637-1.666,2.383,2.383,0,0,0-1.729-.615,4.381,4.381,0,0,0-1.6.3,7.252,7.252,0,0,0-1.724,1.024l-.87-1.22a6.844,6.844,0,0,1,4.382-1.634,4.369,4.369,0,0,1,2.955.939,3.233,3.233,0,0,1,1.087,2.583,5.48,5.48,0,0,1-.419,2.164,7.978,7.978,0,0,1-1.39,2.09,35.476,35.476,0,0,1-3.124,2.981l-3.734,3.257v.085h7.193ZM227.64,12.242a18.6,18.6,0,0,1-.833,5.718,8.976,8.976,0,0,1-2.27,3.92,4.76,4.76,0,0,1-3.337,1.331,3.343,3.343,0,0,1-2.864-1.353,6.539,6.539,0,0,1-1-3.92,17.051,17.051,0,0,1,.87-5.458,9.228,9.228,0,0,1,2.3-3.915,4.667,4.667,0,0,1,3.262-1.321Q227.64,7.245,227.64,12.242Zm-3.978-3.469A2.894,2.894,0,0,0,221.444,10a9.381,9.381,0,0,0-1.65,3.427,16.221,16.221,0,0,0-.631,4.493,5.971,5.971,0,0,0,.53,2.8,1.8,1.8,0,0,0,1.708.976,2.862,2.862,0,0,0,2.217-1.209,9.119,9.119,0,0,0,1.6-3.48,18.758,18.758,0,0,0,.6-4.806Q225.815,8.773,223.661,8.773Zm15.946,3.469a18.6,18.6,0,0,1-.833,5.718,8.976,8.976,0,0,1-2.27,3.92,4.76,4.76,0,0,1-3.337,1.331A3.343,3.343,0,0,1,230.3,21.86a6.539,6.539,0,0,1-1-3.92,17.051,17.051,0,0,1,.87-5.458,9.228,9.228,0,0,1,2.3-3.915,4.667,4.667,0,0,1,3.262-1.321Q239.607,7.245,239.607,12.242Zm-3.978-3.469A2.894,2.894,0,0,0,233.411,10a9.381,9.381,0,0,0-1.65,3.427,16.221,16.221,0,0,0-.631,4.493,5.971,5.971,0,0,0,.53,2.8,1.8,1.8,0,0,0,1.708.976,2.862,2.862,0,0,0,2.217-1.209,9.119,9.119,0,0,0,1.6-3.48,18.758,18.758,0,0,0,.6-4.806Q237.782,8.773,235.629,8.773ZM247.85,7.245a4.192,4.192,0,0,1,2.88.918,3.17,3.17,0,0,1,1.034,2.5,3.671,3.671,0,0,1-.828,2.387,7.267,7.267,0,0,1-2.822,1.867,5.606,5.606,0,0,1,1.91,1.751,4.037,4.037,0,0,1,.562,2.143,4.246,4.246,0,0,1-.637,2.307,4.089,4.089,0,0,1-1.83,1.554,6.745,6.745,0,0,1-2.806.541,4.517,4.517,0,0,1-3.162-1.045,3.651,3.651,0,0,1-1.146-2.838,3.977,3.977,0,0,1,1.008-2.716,7.778,7.778,0,0,1,3.14-1.952,4.737,4.737,0,0,1-1.438-1.533,3.788,3.788,0,0,1-.43-1.819A3.825,3.825,0,0,1,245.5,7.76,5.282,5.282,0,0,1,247.85,7.245Zm-1.411,8.328a6.456,6.456,0,0,0-2.774,1.522,3.066,3.066,0,0,0-.812,2.148,2.322,2.322,0,0,0,.732,1.8,2.737,2.737,0,0,0,1.92.668,3.408,3.408,0,0,0,2.355-.785,2.65,2.65,0,0,0,.881-2.079,3.159,3.159,0,0,0-.552-1.846A4.829,4.829,0,0,0,246.439,15.574Zm1.284-6.8a2.666,2.666,0,0,0-1.931.695,2.465,2.465,0,0,0-.721,1.862,2.808,2.808,0,0,0,.414,1.528,4.049,4.049,0,0,0,1.347,1.231,6.4,6.4,0,0,0,2.419-1.4,2.594,2.594,0,0,0,.711-1.841,1.963,1.963,0,0,0-.61-1.517A2.308,2.308,0,0,0,247.723,8.773Z" transform="translate(8167.591 4161.626)" fill="#2e3e5a"/><path d="M891.373,990.872l-17.97,22.191h0Z" transform="translate(7593.324 3292.304)" fill="none"/><path d="M802.906,1091.094l-55.862,55.862,55.862-55.862Z" transform="translate(7593.324 3292.304)" fill="none"/><path d="M892.924,1053.723c0,.088-.005.176-.005.264h79a127.6,127.6,0,0,0-9.587-49.319l-73.243,29.592A52.478,52.478,0,0,1,892.924,1053.723Z" transform="translate(7593.324 3292.304)" fill="#7468b4"/><path d="M873.4,1013.063a52.773,52.773,0,0,1,15.687,21.2l73.243-29.592a126.536,126.536,0,0,0-39.215-53l-31.744,39.2Z" transform="translate(7593.324 3292.304)" fill="#ffd964"/><path d="M840.527,1106.649a52.493,52.493,0,0,1-37.621-15.555l-55.862,55.862a131.246,131.246,0,0,0,93.219,38.687,133.025,133.025,0,0,0,13.594-.695l-8.314-78.568C843.892,1106.544,842.22,1106.641,840.527,1106.649Z" transform="translate(7593.324 3292.304)" fill="#f1b981"/><path d="M971.919,1053.987h-79a52.413,52.413,0,0,1-8.88,29.281l65.034,44.852a131.037,131.037,0,0,0,22.846-74.133Z" transform="translate(7593.324 3292.304)" fill="#8bcaca"/><path d="M787.6,1054.252a52.659,52.659,0,0,1,85.8-41.189l17.971-22.191,31.744-39.2h0c-24.864-20.134-50.861-29.34-82.854-29.34a131.655,131.655,0,0,0-93.219,224.625l55.862-55.862A52.482,52.482,0,0,1,787.6,1054.252Z" transform="translate(7593.324 3292.304)" fill="#cc7a29"/><path d="M845.543,1106.38l8.314,78.568a131.586,131.586,0,0,0,95.216-56.828l-65.034-44.852A52.627,52.627,0,0,1,845.543,1106.38Z" transform="translate(7593.324 3292.304)" fill="#629d62"/><path d="M845.543,1106.38l8.314,78.569-8.314-78.569Z" transform="translate(7593.324 3292.304)" fill="#f5c44f"/><path d="M884.039,1083.268l65.034,44.851-65.034-44.851Z" transform="translate(7593.324 3292.304)" fill="#f5c44f"/></g></svg>