<svg xmlns="http://www.w3.org/2000/svg" width="89.459" height="103.583" viewBox="0 0 89.459 103.583">
  <g data-name="Icon: Copied" transform="translate(0)">
    <g data-name="Group 7605" transform="translate(-1152 -2737.776)">
      <g data-name="Group 7603" transform="translate(501 -2010)">
        <g data-name="Group 7602" transform="translate(3586.694 9093)">
          <g data-name="Group 7529" transform="translate(-134 403)">
            <path data-name="Path 6285" d="M67.917,1h-56.5A9.444,9.444,0,0,0,2,10.417V76.333h9.417V10.417h56.5ZM82.042,19.833H30.25a9.444,9.444,0,0,0-9.417,9.417V95.167a9.444,9.444,0,0,0,9.417,9.417H82.042a9.444,9.444,0,0,0,9.417-9.417V29.25A9.444,9.444,0,0,0,82.042,19.833Zm0,75.333H30.25V29.25H82.042Z" transform="translate(-2803.694 -4749.224)" fill="#2e6cb9"/>
            <path d="M0,20.386l5.218-5.309,9.2,9.225L38.737,0,44,5.23,14.422,34.808Z" transform="translate(-2770.08 -4703)" fill="#2e6cb9"/>
          </g>
        </g>
      </g>
    </g>
  </g>
</svg>
