<svg data-name="Icon: Twitter" xmlns="http://www.w3.org/2000/svg" width="96.256" height="79.546" viewBox="0 0 96.256 79.546">
  <path d="M46.738,21.16l.209,3.441-3.478-.421A56.565,56.565,0,0,1,10.363,7.89L5.773,3.326,4.59,6.7c-2.5,7.513-.9,15.447,4.312,20.784,2.782,2.949,2.156,3.37-2.643,1.615-1.669-.562-3.13-.983-3.269-.772-.487.492,1.182,6.881,2.5,9.409a22.46,22.46,0,0,0,9.528,8.988l3.408,1.615L14.4,48.4c-3.895,0-4.034.07-3.617,1.545,1.391,4.564,6.886,9.409,13.006,11.515L28.1,62.939l-3.756,2.247a39.158,39.158,0,0,1-18.64,5.2c-3.13.07-5.7.351-5.7.562,0,.7,8.485,4.634,13.423,6.179,14.814,4.564,32.411,2.6,45.625-5.2,9.389-5.547,18.779-16.571,23.16-27.244C84.574,39,86.938,28.6,86.938,23.618c0-3.23.209-3.651,4.1-7.513A45.851,45.851,0,0,0,95.91,10.7c.7-1.334.626-1.334-2.921-.14-5.912,2.106-6.746,1.826-3.825-1.334C91.32,6.977,93.893,2.9,93.893,1.711c0-.211-1.043.14-2.226.772a38.8,38.8,0,0,1-6.12,2.387L81.791,6.064,78.384,3.747A28.309,28.309,0,0,0,72.472.657,23.761,23.761,0,0,0,60.3.938,20.1,20.1,0,0,0,46.738,21.16Z" fill="#2e6cb9"/>
</svg>
