<svg xmlns="http://www.w3.org/2000/svg" width="98.507" height="98.508" viewBox="0 0 98.507 98.508"><g transform="translate(0 0)"><path d="M75.729,78.872H13.39V15.39H49.755V5H13.39A10.42,10.42,0,0,0,3,15.39V77.729a10.42,10.42,0,0,0,10.39,10.39H75.729a10.42,10.42,0,0,0,10.39-10.39V41.365H75.729Z" transform="translate(-3 10.388)" fill="#2e6cb9"/><path d="M39.975,2H29.585V17.585H14c.052.052,0,10.39,0,10.39H29.585V43.508c.052.052,10.39,0,10.39,0V27.975H55.56V17.585H39.975Z" transform="translate(42.948 -2)" fill="#2e6cb9"/><rect width="41.07" height="8.214" transform="translate(20.465 37.019)" fill="#2e6cb9"/><path d="M7,12V22.39H48.56V12H7Z" transform="translate(13.708 39.834)" fill="#2e6cb9"/><rect width="41.07" height="12.321" transform="translate(20.465 65.698)" fill="#2e6cb9"/></g></svg>