<svg xmlns="http://www.w3.org/2000/svg" width="97.394" height="83.539" viewBox="0 0 97.394 83.539">
  <g data-name="Icon: warning" transform="translate(0.563 0.5)">
    <path data-name="Exclusion 1" d="M4383.349,22607.535h0a5.388,5.388,0,0,1-4.624-2.6,5.107,5.107,0,0,1-.011-5.213l42.769-72.107a5.36,5.36,0,0,1,4.4-2.617c.071,0,.144-.006.216-.006a5.423,5.423,0,0,1,4.657,2.623l42.8,72.107a5.107,5.107,0,0,1-.011,5.213,5.391,5.391,0,0,1-4.63,2.594h-85.554l-.017,0Zm42.525-19.514a4.66,4.66,0,1,0,4.981,4.652A4.833,4.833,0,0,0,4425.874,22588.021Zm-.018-44.926a6.893,6.893,0,0,0-5.213,2.457,6.692,6.692,0,0,0-1.617,3.729,6.122,6.122,0,0,0,0,1.111l2.837,30.309a3.628,3.628,0,0,0,1.158,2.32,4.162,4.162,0,0,0,2.854,1.107h.005a4.2,4.2,0,0,0,2.616-.908,3.639,3.639,0,0,0,1.39-2.52l2.837-30.309a6.392,6.392,0,0,0-1.5-4.7,6.877,6.877,0,0,0-5.326-2.594h-.036Z" transform="translate(-4378.004 -22524.996)" fill="#2e6cb9" stroke="rgba(0,0,0,0)" stroke-miterlimit="10" stroke-width="1"/>
  </g>
</svg>
