<svg data-name="Icon: Chat closed" xmlns="http://www.w3.org/2000/svg" xmlns:xlink="http://www.w3.org/1999/xlink" width="96" height="94.801" viewBox="0 0 96 94.801">
  <defs>
    <clipPath>
      <rect data-name="Rectangle 2735" width="96" height="94.801" fill="#2e6cb9"/>
    </clipPath>
  </defs>
  <g  data-name="Group 12037" clip-path="url(#clip-path)">
    <path data-name="Path 8424" d="M6.8,1.6A3.987,3.987,0,0,0,1.162,7.237l6.127,6.127L7.2,88.8l17.76-17.76H64.92l22.6,22.6A3.987,3.987,0,0,0,93.158,88ZM29.4,53.279a4.44,4.44,0,1,1,4.44-4.44,4.453,4.453,0,0,1-4.44,4.44m0-13.32a4.44,4.44,0,1,1,4.44-4.44,4.453,4.453,0,0,1-4.44,4.44M87.119,0H16.436L47.515,31.079H73.8a4.44,4.44,0,0,1,0,8.88H56.4L87.43,70.994A8.865,8.865,0,0,0,96,62.159V8.88A8.906,8.906,0,0,0,87.119,0M73.8,26.64H47.16a4.44,4.44,0,1,1,0-8.88H73.8a4.44,4.44,0,0,1,0,8.88" transform="translate(0.001 -0.002)" fill="#2e6cb9"/>
  </g>
</svg>
