<svg data-name="Icon: News" xmlns="http://www.w3.org/2000/svg" width="96.057" height="72.464" viewBox="0 0 96.057 72.464">
  <path d="M48.028,72.464l0,0c-5.571-4.12-14.1-6.389-24.014-6.389a54.416,54.416,0,0,0-20.737,4.69,1.669,1.669,0,0,0-.546.106,1.661,1.661,0,0,1-.546.106A2.336,2.336,0,0,1,0,68.844V6.391C5.573,2.268,14.1,0,24.011,0S42.457,2.27,48.028,6.391C53.6,2.27,62.129,0,72.04,0A52.851,52.851,0,0,1,87.325,2.13a29.884,29.884,0,0,1,8.731,4.261V68.627a2.306,2.306,0,0,1-2.183,2.136,1.979,1.979,0,0,1-1.091-.217c-5.6-2.926-12.773-4.473-20.743-4.473-7.5,0-18.268,2.866-24.008,6.389ZM72.04,8.527c-7.509,0-18.281,2.867-24.012,6.391V63.942c5.739-3.53,16.515-6.4,24.011-6.4a51.718,51.718,0,0,1,15.285,2.13V10.658A51.57,51.57,0,0,0,72.04,8.527Z" fill="#2e6cb9"/>
</svg>
