<svg data-name="Icon: Lock" xmlns="http://www.w3.org/2000/svg" width="75.485" height="96.274" viewBox="0 0 75.485 96.274">
  <path d="M66.733,96.274H8.751A8.761,8.761,0,0,1,0,87.523V48.137a8.767,8.767,0,0,1,7.11-8.589V30.629a30.632,30.632,0,0,1,61.264,0v8.925a8.75,8.75,0,0,1,7.11,8.583V87.523A8.761,8.761,0,0,1,66.733,96.274ZM37.74,53.33a8.748,8.748,0,0,0-3.282,16.858V83.147h6.569V70.188A8.749,8.749,0,0,0,37.74,53.33Zm0-40.2a17.55,17.55,0,0,0-17.5,17.5v8.757h35V30.629A17.54,17.54,0,0,0,37.74,13.127Z" fill="#2e6cb9"/>
</svg>
