<svg data-name="Icon: Bookmark" xmlns="http://www.w3.org/2000/svg" width="72.203" height="95.951" viewBox="0 0 72.203 95.951">
  <path d="M6.022,95.951A6.018,6.018,0,0,1,0,89.933V6.016A6.023,6.023,0,0,1,6.016,0h60.17A6.023,6.023,0,0,1,72.2,6.016V89.933a6.017,6.017,0,0,1-9.731,4.733L39.819,76.876a6.011,6.011,0,0,0-7.435,0L9.731,94.666A5.947,5.947,0,0,1,6.022,95.951ZM36.1,63.556A18.141,18.141,0,0,1,47.254,67.41L60.17,77.559V12.033H12.033V77.559L24.954,67.41A18.125,18.125,0,0,1,36.1,63.556Z" fill="#2e6cb9"/>
</svg>
