<svg data-name="Icon: Question" xmlns="http://www.w3.org/2000/svg" width="63.652" height="96.274" viewBox="0 0 63.652 96.274">
  <path d="M29.557,96.274c-4.191,0-7.52-1.064-9.894-3.163s-3.574-5.136-3.574-9.033,1.15-6.949,3.417-9.065,5.644-3.19,10.051-3.19c4.237,0,7.534,1.084,9.8,3.222s3.417,5.182,3.417,9.033-1.193,6.884-3.547,9S33.623,96.274,29.557,96.274Zm8.876-34.539h-19.6V56.244a20.521,20.521,0,0,1,2.551-10.565c1.7-2.86,4.75-5.684,9.065-8.394a34.236,34.236,0,0,0,7.441-5.876,8.936,8.936,0,0,0,2.264-6,4.846,4.846,0,0,0-2.426-4.246,11.508,11.508,0,0,0-6.32-1.565c-6.395,0-13.976,2.3-22.533,6.834L0,9.065A66.382,66.382,0,0,1,33.2,0C42.643,0,50.161,2.1,55.54,6.255s8.112,9.89,8.112,17.048a24.445,24.445,0,0,1-3.607,13.376c-2.406,3.757-6.283,7.354-11.524,10.69-4.44,2.876-7.266,5.013-8.4,6.352a7.205,7.205,0,0,0-1.69,4.76v3.255Z" fill="#2e6cb9"/>
</svg>
