<svg data-name="Icon: Chat" xmlns="http://www.w3.org/2000/svg" xmlns:xlink="http://www.w3.org/1999/xlink" width="96" height="96" viewBox="0 0 96 96">
  <defs>
    <clipPath >
      <rect data-name="Rectangle 2689" width="96" height="96" fill="#2e6cb9"/>
    </clipPath>
  </defs>
  <g data-name="Group 11999" clip-path="url(#clip-path)">
    <path data-name="Path 8414" d="M84.812,0H9.424A9.411,9.411,0,0,0,.047,9.424L0,94.236,18.847,75.388H84.812a9.451,9.451,0,0,0,9.424-9.424V9.424A9.451,9.451,0,0,0,84.812,0M23.559,32.982H70.677a4.712,4.712,0,1,1,0,9.424H23.559a4.712,4.712,0,1,1,0-9.424M51.83,56.541H23.559a4.712,4.712,0,0,1,0-9.424H51.83a4.712,4.712,0,1,1,0,9.424M70.677,28.271H23.559a4.712,4.712,0,0,1,0-9.424H70.677a4.712,4.712,0,0,1,0,9.424" transform="translate(1.764)" fill="#2e6cb9"/>
  </g>
</svg>
