<svg data-name="Icon: Linkedin" xmlns="http://www.w3.org/2000/svg" width="88.546" height="84.517" viewBox="0 0 88.546 84.517">
  <path d="M30.608,84.517s.249-51.673,0-57.024H49.588v8.074c2.518-3.883,7.029-9.417,17.107-9.417,12.488,0,21.851,8.15,21.851,25.669V84.512H69.566v-30.5c0-7.663-2.746-12.894-9.612-12.894-5.247,0-8.367,3.525-9.742,6.932a13.037,13.037,0,0,0-.623,4.625V84.517ZM1.121,84.512V27.488H20.1V84.512ZM10.49,19.706C4.121,19.706,0,15.325,0,9.851,0,4.256,4.246,0,10.739,0s10.49,4.256,10.614,9.851c0,5.475-4.121,9.856-10.739,9.856Z" fill="#2e6cb9"/>
</svg>
