<svg xmlns="http://www.w3.org/2000/svg" width="86.09" height="86.332" viewBox="0 0 86.09 86.332">
  <g data-name="Icon: Thumb down" transform="translate(0.5 0.5)">
    <path data-name="Path 3808" d="M1,86.09H16.471V35.036H1Zm85.09-46.8c0-4.68-3.481-8.509-7.735-8.509H53.949l3.674-19.443.116-1.361a6.74,6.74,0,0,0-1.7-4.51L51.938,1,26.488,29.037a8.748,8.748,0,0,0-2.282,6V77.581c0,4.68,3.481,8.509,7.735,8.509h34.81A7.712,7.712,0,0,0,73.868,80.9L85.549,50.905A9.147,9.147,0,0,0,86.09,47.8Z" transform="translate(86.09 86.09) rotate(180)" fill="#2e6cb9" stroke="rgba(112,112,112,0)" stroke-width="1"/>
  </g>
</svg>
