<svg  data-name="Icon: home" xmlns="http://www.w3.org/2000/svg" xmlns:xlink="http://www.w3.org/1999/xlink" width="106.11" height="96.047" viewBox="0 0 106.11 96.047">
  <defs>
    <clipPath >
      <rect data-name="Rectangle 4756" width="106.11" height="96.047" fill="#2e6cb9"/>
    </clipPath>
  </defs>
  <g data-name="Group 16269" clip-path="url(#clip-path)">
    <path data-name="Path 9938" d="M41.509,90.28V61.446H64.576V90.28a5.784,5.784,0,0,0,5.767,5.767h17.3a5.784,5.784,0,0,0,5.767-5.767V49.912h9.8a2.861,2.861,0,0,0,1.9-5.017L56.907,1.471a5.811,5.811,0,0,0-7.728,0L.968,44.895a2.872,2.872,0,0,0,1.9,5.017h9.8V90.28a5.784,5.784,0,0,0,5.767,5.767h17.3a5.784,5.784,0,0,0,5.767-5.767" transform="translate(0.001 0)" fill="#2e6cb9"/>
  </g>
</svg>
