<svg xmlns="http://www.w3.org/2000/svg" width="89.49" height="84.78" viewBox="0 0 89.49 84.78"><rect width="13.771" height="38.925" transform="translate(52.229 57.256) rotate(-45)" fill="#2e6cb9"/><path d="M71.651,36.366a15.863,15.863,0,0,0,13.955-23.3L73.412,25.4l-6.729-6.808L78.877,6.256a15.463,15.463,0,0,0-7.226-1.873A15.917,15.917,0,0,0,55.844,20.374a15.743,15.743,0,0,0,.948,5.3l-8.355,8.453L40.4,25.994,43.6,22.75l-6.368-6.442,9.575-9.686a13.437,13.437,0,0,0-19.149,0L11.675,22.8l6.368,6.442H5.307L2.1,32.482,18.088,48.656l3.207-3.244V32.482l6.368,6.442,3.207-3.244,8.039,8.133L5.442,77.669l9.575,9.686,51.4-51.949A15.244,15.244,0,0,0,71.651,36.366Z" transform="translate(-2.1 -2.613)" fill="#2e6cb9"/></svg>