<svg xmlns="http://www.w3.org/2000/svg" width="98.508" height="98.508" viewBox="0 0 98.508 98.508"><path d="M90.563,3H13.945A10.977,10.977,0,0,0,3,13.945V90.563a10.977,10.977,0,0,0,10.945,10.945H90.563a10.977,10.977,0,0,0,10.945-10.945V13.945A10.977,10.977,0,0,0,90.563,3ZM57.891,25.219l5.8-5.8,7.716,7.716,7.716-7.716,5.8,5.8-7.716,7.716,7.716,7.716-5.8,5.8-7.716-7.662-7.716,7.716-5.8-5.8,7.716-7.716Zm-37.1,3.612H48.149V37.04H20.786ZM49.518,74.145H38.572V85.09H30.363V74.145H19.418V65.936H30.363V54.99h8.209V65.936H49.518ZM85.09,80.985H57.727V72.776H85.09Zm0-13.682H57.727V59.095H85.09Z" transform="translate(-3 -3)" fill="#2e6cb9"/></svg>