<svg xmlns="http://www.w3.org/2000/svg" width="24.834" height="33" viewBox="0 0 24.834 33"><g transform="translate(-2163 -2252)"><path d="M105.3,72.192A12.4,12.4,0,0,0,95.536,92.2l8.919,12.532a1.095,1.095,0,0,0,1.784,0L115.117,92.2a12.811,12.811,0,0,0,2.632-8.355A12.616,12.616,0,0,0,105.3,72.192Z" transform="translate(2070.072 2179.808)" fill="#113869"/><path d="M104.435,82.679a3.006,3.006,0,1,0-3.007-3.006A3.005,3.005,0,0,0,104.435,82.679Zm0,1.5c-2.007,0-6.014,1.007-6.014,3.007v1.5h12.026v-1.5C110.447,85.19,106.441,84.182,104.435,84.182Z" transform="translate(2070.893 2180.808)" fill="#fff"/></g></svg>