<svg id="Group_21743" data-name="Group 21743" xmlns="http://www.w3.org/2000/svg" xmlns:xlink="http://www.w3.org/1999/xlink" width="316.896" height="60" viewBox="0 0 316.896 60">
    <defs>
      <clipPath id="clip-path">
        <rect id="Rectangle_6444" data-name="Rectangle 6444" width="316.896" height="60" fill="#fff"/>
      </clipPath>
    </defs>
    <g id="BGA_logo:_white" data-name="BGA logo: white">
      <g id="Group_21741" data-name="Group 21741" clip-path="url(#clip-path)">
        <path id="Path_11142" data-name="Path 11142" d="M104.746,34.617V1.946h11.23q6.212,0,9.3,2.2a7.312,7.312,0,0,1,3.085,6.337,7.339,7.339,0,0,1-1.289,4.339,9.663,9.663,0,0,1-4.541,3.1,10.816,10.816,0,0,1,3.287,1.3,6.889,6.889,0,0,1,2.022,1.875,6.777,6.777,0,0,1,1.017,2.248,10.3,10.3,0,0,1,.294,2.462q0,4.474-3.106,6.643t-9.614,2.169Zm5.491-18.752H116.9a9.946,9.946,0,0,0,2.237-.249,6.453,6.453,0,0,0,1.966-.79,4.131,4.131,0,0,0,1.412-1.446,4.254,4.254,0,0,0,.531-2.191,4.079,4.079,0,0,0-1.864-3.672A8.643,8.643,0,0,0,116.4,6.307h-6.168Zm0,14.369h6.258a9.207,9.207,0,0,0,5.276-1.254,4.149,4.149,0,0,0,1.8-3.627,4.443,4.443,0,0,0-.881-2.835,5.182,5.182,0,0,0-2.4-1.66,9.977,9.977,0,0,0-3.389-.542h-6.664Z" transform="translate(35.736 0.664)" fill="#fff"/>
        <path id="Path_11143" data-name="Path 11143" d="M134.6,32.7a10.813,10.813,0,0,1-3.31-.508,9.145,9.145,0,0,1-2.858-1.491,7.028,7.028,0,0,1-2.756-5.8V8.887h5.512V24.274a4.245,4.245,0,0,0,1.208,3.117,4.929,4.929,0,0,0,3.649,1.22,5.2,5.2,0,0,0,3.547-1.164,4.215,4.215,0,0,0,1.333-3.354V8.887h5.468V32.249h-4.225l-.61-4.564a6.1,6.1,0,0,1-1.5,3.016,5.963,5.963,0,0,1-2.508,1.548,9.74,9.74,0,0,1-2.948.452" transform="translate(42.877 3.032)" fill="#fff"/>
        <path id="Path_11144" data-name="Path 11144" d="M153.6,32.816a13.637,13.637,0,0,1-4.62-.779,8.715,8.715,0,0,1-3.66-2.452,8.1,8.1,0,0,1-1.864-4.315h4.835a4.429,4.429,0,0,0,1.119,2.1,4.784,4.784,0,0,0,1.91,1.186,7.761,7.761,0,0,0,5.66-.35,2.39,2.39,0,0,0,1.3-2.237,2.261,2.261,0,0,0-.723-1.761,4.976,4.976,0,0,0-2.3-.994L150.8,22.2a10.9,10.9,0,0,1-4.756-2.169,5.334,5.334,0,0,1-1.819-4.27,6.489,6.489,0,0,1,1.039-3.7,7.1,7.1,0,0,1,3.162-2.566,12.752,12.752,0,0,1,5.2-.937,10.776,10.776,0,0,1,6.552,1.819,6.23,6.23,0,0,1,2.531,5.186h-4.677a3.484,3.484,0,0,0-1.423-2.362,5.1,5.1,0,0,0-3.05-.848,6.124,6.124,0,0,0-3.187.746,2.481,2.481,0,0,0-1.243,2.283,1.9,1.9,0,0,0,.95,1.672,9.175,9.175,0,0,0,2.847,1.038l4.2,1.018a9.471,9.471,0,0,1,2.96,1.219A6.876,6.876,0,0,1,161.89,22a5.863,5.863,0,0,1,.915,1.875,6.849,6.849,0,0,1,.26,1.774,6.355,6.355,0,0,1-1.164,3.852,7.375,7.375,0,0,1-3.287,2.452,13.369,13.369,0,0,1-5.016.858" transform="translate(48.942 2.917)" fill="#fff"/>
        <path id="Path_11145" data-name="Path 11145" d="M166.7,7.16h-5.445v-5.2H166.7Zm-.068,27.451h-5.287V11.249h5.287Z" transform="translate(55.014 0.669)" fill="#fff"/>
        <path id="Path_11146" data-name="Path 11146" d="M169.446,32.318V8.956h5.377V12.3A7.629,7.629,0,0,1,176.3,10.56,7.334,7.334,0,0,1,178.62,9.2a9.146,9.146,0,0,1,3.231-.519,9.52,9.52,0,0,1,4.033.858,6.891,6.891,0,0,1,3,2.689,8.8,8.8,0,0,1,1.141,4.722V32.318h-5.512V17.609a4.335,4.335,0,0,0-1.266-3.423,4.633,4.633,0,0,0-3.185-1.119,7.015,7.015,0,0,0-2.485.44,4.45,4.45,0,0,0-1.91,1.333,3.389,3.389,0,0,0-.735,2.226v15.25Z" transform="translate(57.81 2.963)" fill="#fff"/>
        <path id="Path_11147" data-name="Path 11147" d="M193.023,21.948a8.66,8.66,0,0,0,.633,3.525,5.353,5.353,0,0,0,1.943,2.406,5.556,5.556,0,0,0,3.185.87,6.386,6.386,0,0,0,3.378-.87,4.229,4.229,0,0,0,1.908-2.654h5.037a7.958,7.958,0,0,1-1.942,4.133,10.006,10.006,0,0,1-3.716,2.576,12.63,12.63,0,0,1-10.484-.554,10.035,10.035,0,0,1-4-4.1,13.225,13.225,0,0,1-1.434-6.349,14.854,14.854,0,0,1,1.309-6.383,10.373,10.373,0,0,1,3.785-4.4,12.048,12.048,0,0,1,11.771-.135,9.249,9.249,0,0,1,3.57,4.1,14.639,14.639,0,0,1,1.208,6.156v1.672Zm0-3.412h10.959a7.685,7.685,0,0,0-.589-3.062,4.834,4.834,0,0,0-1.8-2.169,5.392,5.392,0,0,0-3.039-.8,5.139,5.139,0,0,0-3.05.881,5.557,5.557,0,0,0-1.875,2.271,6.627,6.627,0,0,0-.61,2.881" transform="translate(63.981 2.917)" fill="#fff"/>
        <path id="Path_11148" data-name="Path 11148" d="M215.49,32.816a13.636,13.636,0,0,1-4.62-.779,8.715,8.715,0,0,1-3.66-2.452,8.1,8.1,0,0,1-1.864-4.315h4.835a4.429,4.429,0,0,0,1.119,2.1,4.784,4.784,0,0,0,1.91,1.186,7.761,7.761,0,0,0,5.66-.35,2.39,2.39,0,0,0,1.3-2.237,2.261,2.261,0,0,0-.723-1.761,4.976,4.976,0,0,0-2.3-.994L212.688,22.2a10.9,10.9,0,0,1-4.756-2.169,5.334,5.334,0,0,1-1.819-4.27,6.489,6.489,0,0,1,1.039-3.7,7.1,7.1,0,0,1,3.162-2.566,12.752,12.752,0,0,1,5.2-.937,10.776,10.776,0,0,1,6.552,1.819,6.23,6.23,0,0,1,2.531,5.186h-4.677a3.484,3.484,0,0,0-1.423-2.362,5.1,5.1,0,0,0-3.05-.848,6.124,6.124,0,0,0-3.187.746,2.481,2.481,0,0,0-1.243,2.283,1.9,1.9,0,0,0,.95,1.672,9.175,9.175,0,0,0,2.847,1.038l4.2,1.018a9.471,9.471,0,0,1,2.96,1.219A6.876,6.876,0,0,1,223.782,22a5.862,5.862,0,0,1,.915,1.875,6.848,6.848,0,0,1,.26,1.774,6.356,6.356,0,0,1-1.164,3.852,7.376,7.376,0,0,1-3.287,2.452,13.369,13.369,0,0,1-5.016.858" transform="translate(70.058 2.917)" fill="#fff"/>
        <path id="Path_11149" data-name="Path 11149" d="M231.806,32.816a13.637,13.637,0,0,1-4.62-.779,8.715,8.715,0,0,1-3.66-2.452,8.1,8.1,0,0,1-1.864-4.315H226.5a4.429,4.429,0,0,0,1.119,2.1,4.784,4.784,0,0,0,1.91,1.186,7.761,7.761,0,0,0,5.66-.35,2.39,2.39,0,0,0,1.3-2.237,2.261,2.261,0,0,0-.723-1.761,4.976,4.976,0,0,0-2.3-.994L229,22.2a10.9,10.9,0,0,1-4.756-2.169,5.334,5.334,0,0,1-1.819-4.27,6.489,6.489,0,0,1,1.039-3.7,7.1,7.1,0,0,1,3.162-2.566,12.752,12.752,0,0,1,5.2-.937,10.776,10.776,0,0,1,6.552,1.819,6.23,6.23,0,0,1,2.531,5.186h-4.677a3.484,3.484,0,0,0-1.423-2.362,5.1,5.1,0,0,0-3.05-.848,6.124,6.124,0,0,0-3.187.746,2.481,2.481,0,0,0-1.243,2.283,1.9,1.9,0,0,0,.95,1.672,9.175,9.175,0,0,0,2.847,1.038l4.2,1.018a9.471,9.471,0,0,1,2.96,1.219A6.876,6.876,0,0,1,240.1,22a5.862,5.862,0,0,1,.915,1.875,6.849,6.849,0,0,1,.26,1.774,6.355,6.355,0,0,1-1.164,3.852,7.375,7.375,0,0,1-3.287,2.452,13.369,13.369,0,0,1-5.016.858" transform="translate(75.624 2.917)" fill="#fff"/>
        <path id="Path_11150" data-name="Path 11150" d="M109.452,46a3.7,3.7,0,0,1-1.3-.2,2.682,2.682,0,0,1-1.431-1.188,4.375,4.375,0,0,1-.3-.652l-.2,1.867h-1.418V32.735h1.9V38.1a2.57,2.57,0,0,1,.366-.51,2.925,2.925,0,0,1,.608-.511,3.424,3.424,0,0,1,.85-.388,3.662,3.662,0,0,1,1.092-.149,3.332,3.332,0,0,1,2.7,1.2,5.317,5.317,0,0,1,1,3.487,6.714,6.714,0,0,1-.432,2.515,3.607,3.607,0,0,1-1.29,1.664,3.669,3.669,0,0,1-2.135.594m-.37-1.418a2.083,2.083,0,0,0,1.7-.81,4.145,4.145,0,0,0,.656-2.606,3.913,3.913,0,0,0-.612-2.37,2.071,2.071,0,0,0-1.766-.818,2.293,2.293,0,0,0-1.348.365,2.091,2.091,0,0,0-.76,1.078,5.621,5.621,0,0,0-.252,1.745,4.658,4.658,0,0,0,.565,2.619,2.076,2.076,0,0,0,1.823.8" transform="translate(35.752 11.168)" fill="#fff"/>
        <path id="Path_11151" data-name="Path 11151" d="M115.916,44.984a4.64,4.64,0,0,1-1.312-.2,3.4,3.4,0,0,1-1.115-.581,2.838,2.838,0,0,1-.775-.96,2.94,2.94,0,0,1-.286-1.33V35.7h1.894v6.006a1.8,1.8,0,0,0,.511,1.33,2.091,2.091,0,0,0,1.54.511,2.207,2.207,0,0,0,1.5-.49,1.789,1.789,0,0,0,.563-1.431V35.7h1.876v9.107h-1.463l-.211-1.762A2.262,2.262,0,0,1,117.1,44.8a3.527,3.527,0,0,1-1.184.181" transform="translate(38.358 12.18)" fill="#fff"/>
        <path id="Path_11152" data-name="Path 11152" d="M123.586,45.029a5.245,5.245,0,0,1-1.782-.3,3.28,3.28,0,0,1-1.392-.943,3.1,3.1,0,0,1-.7-1.647h1.682a1.773,1.773,0,0,0,.436.86,1.973,1.973,0,0,0,.775.5,2.851,2.851,0,0,0,.972.162,2.742,2.742,0,0,0,1.4-.312,1.04,1.04,0,0,0,.532-.964,1,1,0,0,0-.286-.748,1.81,1.81,0,0,0-.9-.413l-1.815-.432a4.248,4.248,0,0,1-1.805-.841,2.029,2.029,0,0,1-.687-1.616,2.592,2.592,0,0,1,.4-1.427,2.672,2.672,0,0,1,1.194-.982,4.812,4.812,0,0,1,1.972-.355,4.075,4.075,0,0,1,2.474.687,2.4,2.4,0,0,1,.968,1.989h-1.628a1.424,1.424,0,0,0-.567-.982,2.073,2.073,0,0,0-1.265-.357,2.485,2.485,0,0,0-1.329.322,1.075,1.075,0,0,0-.52.982.819.819,0,0,0,.38.709,3.311,3.311,0,0,0,1.136.426l1.725.432a3.633,3.633,0,0,1,1.1.463,2.554,2.554,0,0,1,.679.629,2.226,2.226,0,0,1,.347.714,2.657,2.657,0,0,1,.1.7,2.478,2.478,0,0,1-.436,1.474,2.772,2.772,0,0,1-1.242.943,5.041,5.041,0,0,1-1.915.33" transform="translate(40.842 12.136)" fill="#fff"/>
        <path id="Path_11153" data-name="Path 11153" d="M128.866,34.863h-1.894V33h1.894Zm-.035,10.866h-1.815V36.624h1.815Z" transform="translate(43.319 11.26)" fill="#fff"/>
        <path id="Path_11154" data-name="Path 11154" d="M130.452,44.837V35.732h1.84v1.312a2.892,2.892,0,0,1,.594-.695,2.94,2.94,0,0,1,.925-.528,3.655,3.655,0,0,1,1.271-.2,3.7,3.7,0,0,1,1.581.338,2.687,2.687,0,0,1,1.167,1.058,3.5,3.5,0,0,1,.44,1.854v5.97h-1.884V39.07a1.867,1.867,0,0,0-.524-1.454,1.934,1.934,0,0,0-1.351-.476,3.071,3.071,0,0,0-1.058.185,1.867,1.867,0,0,0-.809.561,1.418,1.418,0,0,0-.308.937v6.014Z" transform="translate(44.507 12.152)" fill="#fff"/>
        <path id="Path_11155" data-name="Path 11155" d="M139.633,40.741a3.783,3.783,0,0,0,.268,1.466,2.259,2.259,0,0,0,.814,1.022,2.348,2.348,0,0,0,1.357.374,2.605,2.605,0,0,0,1.4-.37,1.744,1.744,0,0,0,.779-1.1H146a3.094,3.094,0,0,1-.744,1.585,3.734,3.734,0,0,1-1.414.982,4.636,4.636,0,0,1-1.734.33,4.543,4.543,0,0,1-2.281-.559,3.869,3.869,0,0,1-1.536-1.6,5.216,5.216,0,0,1-.551-2.474,5.925,5.925,0,0,1,.5-2.505,3.96,3.96,0,0,1,1.454-1.7,4.616,4.616,0,0,1,4.513-.052,3.572,3.572,0,0,1,1.369,1.581,5.706,5.706,0,0,1,.467,2.4v.625Zm0-1.224h4.614a3.3,3.3,0,0,0-.247-1.3,2.032,2.032,0,0,0-.752-.925,2.245,2.245,0,0,0-1.271-.339,2.156,2.156,0,0,0-1.3.38,2.34,2.34,0,0,0-.779.968,2.987,2.987,0,0,0-.26,1.215" transform="translate(46.993 12.136)" fill="#fff"/>
        <path id="Path_11156" data-name="Path 11156" d="M148.935,45.029a5.245,5.245,0,0,1-1.782-.3,3.28,3.28,0,0,1-1.392-.943,3.1,3.1,0,0,1-.7-1.647h1.682a1.773,1.773,0,0,0,.436.86,1.973,1.973,0,0,0,.775.5,2.851,2.851,0,0,0,.972.162,2.742,2.742,0,0,0,1.4-.312,1.04,1.04,0,0,0,.532-.964,1,1,0,0,0-.286-.748,1.81,1.81,0,0,0-.9-.413l-1.815-.432a4.248,4.248,0,0,1-1.805-.841,2.029,2.029,0,0,1-.687-1.616,2.592,2.592,0,0,1,.4-1.427,2.672,2.672,0,0,1,1.194-.982,4.812,4.812,0,0,1,1.972-.355,4.075,4.075,0,0,1,2.474.687,2.4,2.4,0,0,1,.968,1.989H150.74a1.424,1.424,0,0,0-.567-.982,2.073,2.073,0,0,0-1.265-.357,2.485,2.485,0,0,0-1.329.322,1.075,1.075,0,0,0-.52.982.819.819,0,0,0,.38.709,3.311,3.311,0,0,0,1.136.426l1.725.432a3.633,3.633,0,0,1,1.1.463,2.554,2.554,0,0,1,.679.629,2.226,2.226,0,0,1,.347.714,2.657,2.657,0,0,1,.1.7,2.478,2.478,0,0,1-.436,1.474,2.772,2.772,0,0,1-1.242.943,5.041,5.041,0,0,1-1.915.33" transform="translate(49.49 12.136)" fill="#fff"/>
        <path id="Path_11157" data-name="Path 11157" d="M155.593,45.029a5.245,5.245,0,0,1-1.782-.3,3.28,3.28,0,0,1-1.392-.943,3.1,3.1,0,0,1-.7-1.647H153.4a1.773,1.773,0,0,0,.436.86,1.973,1.973,0,0,0,.775.5,2.851,2.851,0,0,0,.972.162,2.742,2.742,0,0,0,1.4-.312,1.04,1.04,0,0,0,.532-.964,1,1,0,0,0-.286-.748,1.81,1.81,0,0,0-.9-.413l-1.815-.432a4.248,4.248,0,0,1-1.805-.841,2.029,2.029,0,0,1-.687-1.616,2.592,2.592,0,0,1,.4-1.427,2.672,2.672,0,0,1,1.194-.982,4.812,4.812,0,0,1,1.972-.355,4.075,4.075,0,0,1,2.474.687,2.4,2.4,0,0,1,.968,1.989H157.4a1.424,1.424,0,0,0-.567-.982,2.073,2.073,0,0,0-1.265-.357,2.485,2.485,0,0,0-1.329.322,1.075,1.075,0,0,0-.52.982.819.819,0,0,0,.38.709,3.311,3.311,0,0,0,1.136.426l1.725.432a3.633,3.633,0,0,1,1.1.463,2.553,2.553,0,0,1,.679.629,2.226,2.226,0,0,1,.347.714,2.657,2.657,0,0,1,.1.7,2.478,2.478,0,0,1-.436,1.474,2.772,2.772,0,0,1-1.242.943,5.041,5.041,0,0,1-1.915.33" transform="translate(51.762 12.136)" fill="#fff"/>
        <rect id="Rectangle_6441" data-name="Rectangle 6441" width="2.175" height="2.272" transform="translate(212.753 54.717)" fill="#fff"/>
        <path id="Path_11158" data-name="Path 11158" d="M166.387,47.911a7.706,7.706,0,0,1-3.435-.621,1.906,1.906,0,0,1-1.215-1.73,1.415,1.415,0,0,1,.233-.823,2.118,2.118,0,0,1,.555-.559,4.255,4.255,0,0,1,.594-.347,3.393,3.393,0,0,0,.351-.181l-.382-.224a1.508,1.508,0,0,1-.418-.37.955.955,0,0,1-.185-.612,1.089,1.089,0,0,1,.418-.815,2.706,2.706,0,0,1,1.255-.55,3.145,3.145,0,0,1-1.281-1.092,2.605,2.605,0,0,1-.455-1.462,2.432,2.432,0,0,1,.5-1.537,3.115,3.115,0,0,1,1.412-.99,6.065,6.065,0,0,1,2.145-.343,4.829,4.829,0,0,1,1.5.2,4.236,4.236,0,0,1,1.119.565c.113-.042.271-.1.476-.189s.433-.178.683-.278.487-.2.714-.291l.55-.228-.008,1.638-1.585.29a3.143,3.143,0,0,1,.2.581,2.649,2.649,0,0,1,.074.582,2.614,2.614,0,0,1-.432,1.457,2.961,2.961,0,0,1-1.293,1.062,5.175,5.175,0,0,1-2.158.4c-.083,0-.188,0-.318,0a2.85,2.85,0,0,1-.325-.023,2.868,2.868,0,0,0-1.128.19c-.205.107-.308.227-.308.357,0,.164.133.276.4.334a9.827,9.827,0,0,0,1.3.15q.324.026.832.052c.337.017.712.04,1.123.07a3.845,3.845,0,0,1,2.285.75,2.17,2.17,0,0,1,.787,1.752,2.408,2.408,0,0,1-1.136,2.048,6.041,6.041,0,0,1-3.451.8m.326-1.153a3.77,3.77,0,0,0,1.819-.347,1.124,1.124,0,0,0,.612-1.035,1.035,1.035,0,0,0-.4-.837,2.053,2.053,0,0,0-1.179-.378L165.136,44a1.452,1.452,0,0,0-.718.16,1.616,1.616,0,0,0-.589.488,1.131,1.131,0,0,0-.233.692,1.144,1.144,0,0,0,.76,1.051,5.721,5.721,0,0,0,2.356.366m-.335-6.472a2.31,2.31,0,0,0,1.475-.444,1.544,1.544,0,0,0,.559-1.282,1.65,1.65,0,0,0-.559-1.334,2.222,2.222,0,0,0-1.475-.471,2.247,2.247,0,0,0-1.493.476,1.639,1.639,0,0,0-.567,1.329,1.565,1.565,0,0,0,.542,1.267,2.278,2.278,0,0,0,1.518.459" transform="translate(55.18 12.089)" fill="#fff"/>
        <path id="Path_11159" data-name="Path 11159" d="M174.074,45.029a4.4,4.4,0,0,1-2.232-.55,3.71,3.71,0,0,1-1.479-1.6,5.634,5.634,0,0,1-.524-2.536,5.921,5.921,0,0,1,.5-2.509,3.8,3.8,0,0,1,1.448-1.67,4.73,4.73,0,0,1,4.526-.035,3.73,3.73,0,0,1,1.462,1.628,5.887,5.887,0,0,1,.52,2.586,5.747,5.747,0,0,1-.49,2.438,3.781,3.781,0,0,1-1.427,1.651,4.21,4.21,0,0,1-2.3.6m.009-1.454a2.039,2.039,0,0,0,1.3-.409,2.453,2.453,0,0,0,.789-1.153,5.151,5.151,0,0,0,.264-1.722,5.5,5.5,0,0,0-.233-1.651,2.482,2.482,0,0,0-.754-1.184,2.035,2.035,0,0,0-1.364-.44,2.118,2.118,0,0,0-1.321.4,2.411,2.411,0,0,0-.8,1.136,5.052,5.052,0,0,0-.268,1.738,5.345,5.345,0,0,0,.237,1.638,2.534,2.534,0,0,0,.766,1.2,2.063,2.063,0,0,0,1.383.448" transform="translate(57.944 12.136)" fill="#fff"/>
        <path id="Path_11160" data-name="Path 11160" d="M184.97,35.7l-3.311,9.105h-1.593L176.746,35.7h1.742l2.308,6.719h.123l2.307-6.719Z" transform="translate(60.301 12.18)" fill="#fff"/>
        <rect id="Rectangle_6442" data-name="Rectangle 6442" width="2.175" height="2.272" transform="translate(245.685 54.717)" fill="#fff"/>
        <path id="Path_11161" data-name="Path 11161" d="M189.227,45.029a3.657,3.657,0,0,1-1.562-.317,2.485,2.485,0,0,1-1.07-.916,2.907,2.907,0,0,1,.687-3.707,6.325,6.325,0,0,1,3.425-.793l1.5-.044v-.66a1.628,1.628,0,0,0-.467-1.233,1.974,1.974,0,0,0-1.435-.441,2.5,2.5,0,0,0-1.3.335,1.62,1.62,0,0,0-.744,1.1h-1.638a2.726,2.726,0,0,1,.523-1.528,2.887,2.887,0,0,1,1.3-.937,5.446,5.446,0,0,1,1.946-.317,5.267,5.267,0,0,1,2.043.339,2.453,2.453,0,0,1,1.194.99,3.034,3.034,0,0,1,.392,1.585v6.367h-1.593l-.15-1.674a3.038,3.038,0,0,1-1.29,1.448,3.775,3.775,0,0,1-1.757.4m.59-1.312a2.468,2.468,0,0,0,.854-.154,2.763,2.763,0,0,0,.766-.422,2.282,2.282,0,0,0,.55-.6,1.349,1.349,0,0,0,.216-.687V40.344l-1.233.027a6.086,6.086,0,0,0-1.6.194,2.056,2.056,0,0,0-1,.571,1.486,1.486,0,0,0-.347,1.031,1.379,1.379,0,0,0,.51,1.14,2,2,0,0,0,1.286.409" transform="translate(63.529 12.136)" fill="#fff"/>
        <path id="Path_11162" data-name="Path 11162" d="M197.277,44.984a4.64,4.64,0,0,1-1.312-.2,3.4,3.4,0,0,1-1.115-.581,2.819,2.819,0,0,1-.774-.96,2.923,2.923,0,0,1-.287-1.33V35.7h1.894v6.006a1.8,1.8,0,0,0,.511,1.33,2.091,2.091,0,0,0,1.54.511,2.207,2.207,0,0,0,1.5-.49,1.789,1.789,0,0,0,.563-1.431V35.7h1.876v9.107h-1.463L200,43.046a2.262,2.262,0,0,1-1.537,1.757,3.527,3.527,0,0,1-1.184.181" transform="translate(66.116 12.18)" fill="#fff"/>
        <path id="Path_11163" data-name="Path 11163" d="M4.929,42.342H2.1l-.337.779a1.729,1.729,0,0,0-.165.644.534.534,0,0,0,.272.494,2.282,2.282,0,0,0,.786.139v.217H0V44.4a1.186,1.186,0,0,0,.707-.353,4.716,4.716,0,0,0,.684-1.207l2.859-6.38h.113l2.882,6.556a3.974,3.974,0,0,0,.679,1.174.9.9,0,0,0,.566.211v.217H4.622V44.4h.16a1.232,1.232,0,0,0,.656-.127A.324.324,0,0,0,5.565,44a.715.715,0,0,0-.035-.217c-.009-.036-.066-.184-.177-.444Zm-.2-.436L3.537,39.152,2.309,41.906Z" transform="translate(0 12.438)" fill="#fff"/>
        <path id="Path_11164" data-name="Path 11164" d="M11.349,38.434v4.313a1.631,1.631,0,0,0,.117.793.709.709,0,0,0,.476.193v.209H9.7V43.21a2.917,2.917,0,0,1-.791.691,1.889,1.889,0,0,1-.884.209,1.33,1.33,0,0,1-.832-.28,1.435,1.435,0,0,1-.484-.673,4.989,4.989,0,0,1-.123-1.337V39.63a1.561,1.561,0,0,0-.117-.779.68.68,0,0,0-.479-.2v-.216H8.236V42.2a3.2,3.2,0,0,0,.052.756.535.535,0,0,0,.177.266.491.491,0,0,0,.282.089.687.687,0,0,0,.385-.115,2.414,2.414,0,0,0,.566-.618V39.63a1.556,1.556,0,0,0-.118-.779.686.686,0,0,0-.479-.2v-.216Z" transform="translate(2.043 13.112)" fill="#fff"/>
        <path id="Path_11165" data-name="Path 11165" d="M14.175,38.32l.089,1.88h-.2a2.913,2.913,0,0,0-.75-1.141,1.223,1.223,0,0,0-.766-.31.568.568,0,0,0-.412.168.473.473,0,0,0-.054.677,5.774,5.774,0,0,0,1.056.833,4.22,4.22,0,0,1,1.137.994,1.592,1.592,0,0,1,.278.915,1.93,1.93,0,0,1-.231.9,1.6,1.6,0,0,1-.648.677,1.874,1.874,0,0,1-.925.237,3.238,3.238,0,0,1-1.058-.248.841.841,0,0,0-.239-.067c-.13,0-.239.1-.325.3h-.2l-.093-1.981h.2a2.576,2.576,0,0,0,.724,1.168,1.407,1.407,0,0,0,.88.39.637.637,0,0,0,.46-.173.578.578,0,0,0,.182-.424.726.726,0,0,0-.178-.491,4.581,4.581,0,0,0-.79-.625,6.12,6.12,0,0,1-1.167-.955,1.649,1.649,0,0,1-.389-1.065A1.728,1.728,0,0,1,11.2,38.83a1.583,1.583,0,0,1,1.274-.523,1.854,1.854,0,0,1,.868.221.562.562,0,0,0,.259.084.326.326,0,0,0,.172-.036,1.37,1.37,0,0,0,.207-.256Z" transform="translate(3.671 13.069)" fill="#fff"/>
        <path id="Path_11166" data-name="Path 11166" d="M16.084,36.929v2.018h1.309v.582H16.084v3.4a2.631,2.631,0,0,0,.043.618.448.448,0,0,0,.158.224.354.354,0,0,0,.205.084c.256,0,.5-.2.726-.585l.177.133a1.612,1.612,0,0,1-1.55,1.129,1.383,1.383,0,0,1-.889-.288,1.322,1.322,0,0,1-.463-.656,5.95,5.95,0,0,1-.056-1.084V39.53h-.719V39.32a7.459,7.459,0,0,0,1.261-1.1,6.607,6.607,0,0,0,.915-1.292Z" transform="translate(4.679 12.599)" fill="#fff"/>
        <path id="Path_11167" data-name="Path 11167" d="M19.037,38.477v1.246A4.008,4.008,0,0,1,20,38.6a1.4,1.4,0,0,1,.8-.288.7.7,0,0,1,.524.209.78.78,0,0,1,.2.571.883.883,0,0,1-.194.613.585.585,0,0,1-.461.22.78.78,0,0,1-.542-.2,3.292,3.292,0,0,0-.27-.221.25.25,0,0,0-.135-.036.491.491,0,0,0-.326.129,1.211,1.211,0,0,0-.366.571,4.058,4.058,0,0,0-.188,1.262v1.269l.005.33a1.365,1.365,0,0,0,.042.431.475.475,0,0,0,.208.236,1.261,1.261,0,0,0,.471.089v.209H16.787v-.209a.651.651,0,0,0,.481-.193,1.85,1.85,0,0,0,.13-.892V39.64a2.29,2.29,0,0,0-.048-.6.454.454,0,0,0-.17-.239.9.9,0,0,0-.393-.109v-.216Z" transform="translate(5.727 13.069)" fill="#fff"/>
        <path id="Path_11168" data-name="Path 11168" d="M23.312,43.175a2.9,2.9,0,0,1-1.811.889,1.074,1.074,0,0,1-.782-.307,1.047,1.047,0,0,1-.314-.778,1.515,1.515,0,0,1,.543-1.132A10.18,10.18,0,0,1,23.312,40.5v-.555a2.525,2.525,0,0,0-.07-.785.58.58,0,0,0-.252-.282.769.769,0,0,0-.425-.123,1.1,1.1,0,0,0-.63.168.306.306,0,0,0-.154.249.516.516,0,0,0,.164.3.768.768,0,0,1,.225.491.654.654,0,0,1-.219.5.785.785,0,0,1-.559.2.913.913,0,0,1-.626-.224.685.685,0,0,1-.245-.523,1.225,1.225,0,0,1,.335-.81,2.09,2.09,0,0,1,.936-.594,3.894,3.894,0,0,1,1.251-.209,2.028,2.028,0,0,1,1.238.339,1.539,1.539,0,0,1,.6.722,4.675,4.675,0,0,1,.08,1.136v2.138a2.287,2.287,0,0,0,.031.479.3.3,0,0,0,.09.144.212.212,0,0,0,.134.044c.1,0,.207-.071.314-.217l.177.142a2.256,2.256,0,0,1-.614.64,1.352,1.352,0,0,1-.714.192,1.119,1.119,0,0,1-.736-.217,1.013,1.013,0,0,1-.326-.672m0-.431V40.9a3.466,3.466,0,0,0-1.06.895,1.09,1.09,0,0,0-.231.646.681.681,0,0,0,.194.476.534.534,0,0,0,.413.157,1.129,1.129,0,0,0,.683-.327" transform="translate(6.962 13.069)" fill="#fff"/>
        <path id="Path_11169" data-name="Path 11169" d="M26.735,36.581v6.851a1.334,1.334,0,0,0,.134.751.755.755,0,0,0,.531.182v.209H24.423v-.209a.724.724,0,0,0,.543-.212,1.351,1.351,0,0,0,.117-.722V37.725a1.265,1.265,0,0,0-.135-.735.713.713,0,0,0-.524-.19v-.219Z" transform="translate(8.332 12.48)" fill="#fff"/>
        <path id="Path_11170" data-name="Path 11170" d="M28.407,36.442A.909.909,0,0,1,29.048,38a.913.913,0,0,1-1.285,0,.913.913,0,0,1,0-1.288.865.865,0,0,1,.644-.268m.825,2.672V43.48a1.343,1.343,0,0,0,.134.75.753.753,0,0,0,.532.182v.209H26.92v-.209a.716.716,0,0,0,.543-.212,1.314,1.314,0,0,0,.118-.72V40.263a1.288,1.288,0,0,0-.137-.744.719.719,0,0,0-.524-.189v-.216Z" transform="translate(9.184 12.433)" fill="#fff"/>
        <path id="Path_11171" data-name="Path 11171" d="M32.277,43.175a2.909,2.909,0,0,1-1.808.889,1.076,1.076,0,0,1-.785-.307,1.047,1.047,0,0,1-.314-.778,1.51,1.51,0,0,1,.543-1.132A10.15,10.15,0,0,1,32.277,40.5v-.555a2.587,2.587,0,0,0-.068-.785.6.6,0,0,0-.253-.282.769.769,0,0,0-.425-.123,1.107,1.107,0,0,0-.632.168.307.307,0,0,0-.153.249.512.512,0,0,0,.165.3.766.766,0,0,1,.224.491.657.657,0,0,1-.217.5.788.788,0,0,1-.561.2.911.911,0,0,1-.626-.224.686.686,0,0,1-.247-.523,1.227,1.227,0,0,1,.337-.81,2.09,2.09,0,0,1,.936-.594,3.888,3.888,0,0,1,1.251-.209,2.028,2.028,0,0,1,1.238.339,1.523,1.523,0,0,1,.6.722,4.623,4.623,0,0,1,.083,1.136v2.138a2.263,2.263,0,0,0,.028.479.288.288,0,0,0,.09.144.215.215,0,0,0,.134.044c.1,0,.208-.071.313-.217l.176.142a2.251,2.251,0,0,1-.612.64,1.357,1.357,0,0,1-.715.192,1.124,1.124,0,0,1-.736-.217,1.018,1.018,0,0,1-.325-.672m0-.431V40.9a3.473,3.473,0,0,0-1.061.895,1.1,1.1,0,0,0-.229.646.675.675,0,0,0,.194.476.531.531,0,0,0,.412.157,1.135,1.135,0,0,0,.684-.327" transform="translate(10.021 13.069)" fill="#fff"/>
        <path id="Path_11172" data-name="Path 11172" d="M35.661,38.477v.711a3.156,3.156,0,0,1,.814-.665,1.74,1.74,0,0,1,.837-.216,1.338,1.338,0,0,1,.892.3,1.425,1.425,0,0,1,.472.736,5.831,5.831,0,0,1,.093,1.292v2.147a1.706,1.706,0,0,0,.113.8.714.714,0,0,0,.484.193v.209h-2.79v-.209a.59.59,0,0,0,.448-.259,1.692,1.692,0,0,0,.1-.732V40.332a4.151,4.151,0,0,0-.054-.856.486.486,0,0,0-.182-.268.432.432,0,0,0-.278-.1q-.507,0-.944.726v2.955a1.661,1.661,0,0,0,.113.783.608.608,0,0,0,.431.208v.209h-2.79v-.209a.682.682,0,0,0,.495-.225,1.625,1.625,0,0,0,.1-.766V39.674a1.551,1.551,0,0,0-.119-.779.674.674,0,0,0-.477-.2v-.216Z" transform="translate(11.4 13.069)" fill="#fff"/>
        <path id="Path_11173" data-name="Path 11173" d="M47.94,36.447v2.818h-.217A3.618,3.618,0,0,0,46.54,37.51a2.8,2.8,0,0,0-1.73-.6,2.214,2.214,0,0,0-1.49.506,2.671,2.671,0,0,0-.842,1.4,6.906,6.906,0,0,0-.247,1.848,6.755,6.755,0,0,0,.27,2.021,2.287,2.287,0,0,0,.873,1.271,2.51,2.51,0,0,0,1.436.408,2.913,2.913,0,0,0,.59-.062,3.781,3.781,0,0,0,.624-.182v-1.66a1.757,1.757,0,0,0-.064-.608.583.583,0,0,0-.27-.256,1.066,1.066,0,0,0-.491-.11h-.205v-.219h3.887v.219a1.7,1.7,0,0,0-.62.125.585.585,0,0,0-.266.3,1.671,1.671,0,0,0-.055.549v1.66a7.5,7.5,0,0,1-1.6.514,7.97,7.97,0,0,1-1.713.178,5.145,5.145,0,0,1-1.894-.3,4.874,4.874,0,0,1-1.326-.818,3.8,3.8,0,0,1-.9-1.137,3.945,3.945,0,0,1-.414-1.819,4.11,4.11,0,0,1,1.267-3.051,4.378,4.378,0,0,1,3.189-1.242,5.641,5.641,0,0,1,1.073.093,5.084,5.084,0,0,1,.84.272,3.58,3.58,0,0,0,.687.219.482.482,0,0,0,.307-.118,1.1,1.1,0,0,0,.26-.46Z" transform="translate(13.681 12.433)" fill="#fff"/>
        <path id="Path_11174" data-name="Path 11174" d="M49.455,38.307a2.561,2.561,0,0,1,1.337.374,2.332,2.332,0,0,1,.936,1.058,3.413,3.413,0,0,1,.329,1.5,3.184,3.184,0,0,1-.6,1.965,2.354,2.354,0,0,1-1.986.954,2.287,2.287,0,0,1-1.919-.87,3.415,3.415,0,0,1,.013-4.087,2.264,2.264,0,0,1,1.887-.889m.024.421a.7.7,0,0,0-.523.231,1.655,1.655,0,0,0-.278.9c-.047.443-.066,1.062-.066,1.856a7.6,7.6,0,0,0,.083,1.179,1.127,1.127,0,0,0,.276.638.658.658,0,0,0,.483.219.645.645,0,0,0,.441-.15.955.955,0,0,0,.306-.558,13.589,13.589,0,0,0,.118-2.264,5.585,5.585,0,0,0-.11-1.376,1.087,1.087,0,0,0-.331-.55.628.628,0,0,0-.4-.122" transform="translate(15.995 13.069)" fill="#fff"/>
        <path id="Path_11175" data-name="Path 11175" d="M53.388,44.11l-1.858-4.276A4.2,4.2,0,0,0,51,38.856a.693.693,0,0,0-.4-.208v-.215h2.933v.215a.529.529,0,0,0-.381.1.394.394,0,0,0-.141.3,2.564,2.564,0,0,0,.259.821l.907,2.069.726-1.789a3.548,3.548,0,0,0,.315-1.084.362.362,0,0,0-.138-.3.738.738,0,0,0-.461-.13v-.215h1.8v.215a.755.755,0,0,0-.428.2,3.778,3.778,0,0,0-.495.936l-1.84,4.329Z" transform="translate(17.265 13.112)" fill="#fff"/>
        <path id="Path_11176" data-name="Path 11176" d="M59.351,41.034H56.325a2.848,2.848,0,0,0,.582,1.731,1.233,1.233,0,0,0,.979.49,1.142,1.142,0,0,0,.645-.192,2.638,2.638,0,0,0,.618-.712l.2.127a3.381,3.381,0,0,1-.994,1.3,2.138,2.138,0,0,1-1.251.377,2.093,2.093,0,0,1-1.862-.944,3.324,3.324,0,0,1-.5-1.887,3.117,3.117,0,0,1,.74-2.191,2.306,2.306,0,0,1,1.75-.823A1.886,1.886,0,0,1,58.683,39a3.139,3.139,0,0,1,.668,2.035m-1.45-.4a5.235,5.235,0,0,0-.107-1.3,1.038,1.038,0,0,0-.321-.536.473.473,0,0,0-.329-.107.582.582,0,0,0-.5.3,2.55,2.55,0,0,0-.351,1.438v.205Z" transform="translate(18.676 13.069)" fill="#fff"/>
        <path id="Path_11177" data-name="Path 11177" d="M60.7,38.477v1.246a4.009,4.009,0,0,1,.958-1.128,1.408,1.408,0,0,1,.8-.288.7.7,0,0,1,.526.209.764.764,0,0,1,.2.571.877.877,0,0,1-.2.613.59.59,0,0,1-.46.22.77.77,0,0,1-.54-.2,2.356,2.356,0,0,0-.274-.221.24.24,0,0,0-.134-.036.5.5,0,0,0-.327.129,1.218,1.218,0,0,0-.363.571,4.019,4.019,0,0,0-.188,1.262v1.269l.009.33a1.382,1.382,0,0,0,.036.431.5.5,0,0,0,.207.236,1.269,1.269,0,0,0,.472.089v.209H58.447v-.209a.649.649,0,0,0,.481-.193,1.805,1.805,0,0,0,.133-.892V39.64a2.331,2.331,0,0,0-.05-.6.434.434,0,0,0-.17-.239.885.885,0,0,0-.394-.109v-.216Z" transform="translate(19.94 13.069)" fill="#fff"/>
        <path id="Path_11178" data-name="Path 11178" d="M64.49,38.477v.711a3.108,3.108,0,0,1,.813-.665,1.732,1.732,0,0,1,.837-.216,1.311,1.311,0,0,1,.887.3,1.387,1.387,0,0,1,.473.736,5.7,5.7,0,0,1,.1,1.292v2.147a1.756,1.756,0,0,0,.11.8.732.732,0,0,0,.487.193v.209H65.4v-.209a.577.577,0,0,0,.444-.259,1.707,1.707,0,0,0,.093-.732V40.332a4.351,4.351,0,0,0-.047-.856.525.525,0,0,0-.184-.268.441.441,0,0,0-.28-.1q-.509,0-.94.726v2.955a1.691,1.691,0,0,0,.11.783.609.609,0,0,0,.432.208v.209h-2.79v-.209a.676.676,0,0,0,.494-.225,1.644,1.644,0,0,0,.1-.766V39.674a1.545,1.545,0,0,0-.117-.779.678.678,0,0,0-.479-.2v-.216Z" transform="translate(21.235 13.069)" fill="#fff"/>
        <path id="Path_11179" data-name="Path 11179" d="M69.251,38.477V39.2a3.159,3.159,0,0,1,.836-.692,1.846,1.846,0,0,1,.852-.2,1.52,1.52,0,0,1,.888.249,1.559,1.559,0,0,1,.558.756,3.487,3.487,0,0,1,.9-.764,1.872,1.872,0,0,1,.909-.241,1.413,1.413,0,0,1,.9.271,1.292,1.292,0,0,1,.473.664,4.347,4.347,0,0,1,.138,1.286v2.257a1.688,1.688,0,0,0,.111.79.7.7,0,0,0,.486.2v.209h-2.85v-.209a.642.642,0,0,0,.495-.259,1.6,1.6,0,0,0,.1-.732V40.417a4.779,4.779,0,0,0-.055-.94.573.573,0,0,0-.189-.3.464.464,0,0,0-.3-.1.854.854,0,0,0-.511.188,2.392,2.392,0,0,0-.53.553v2.961a1.7,1.7,0,0,0,.1.748.618.618,0,0,0,.52.243v.209H70.242v-.209a.627.627,0,0,0,.358-.111.473.473,0,0,0,.176-.251,2.41,2.41,0,0,0,.05-.629V40.417a4.379,4.379,0,0,0-.058-.94.591.591,0,0,0-.2-.3.482.482,0,0,0-.3-.1.77.77,0,0,0-.429.123,2.418,2.418,0,0,0-.589.622v2.961a1.755,1.755,0,0,0,.111.773.618.618,0,0,0,.483.219v.209H67.006v-.209a.676.676,0,0,0,.494-.225,1.625,1.625,0,0,0,.1-.766V39.674a1.556,1.556,0,0,0-.118-.779.682.682,0,0,0-.477-.2v-.216Z" transform="translate(22.861 13.069)" fill="#fff"/>
        <path id="Path_11180" data-name="Path 11180" d="M78.768,41.034H75.745a2.831,2.831,0,0,0,.582,1.731,1.228,1.228,0,0,0,.982.49,1.124,1.124,0,0,0,.64-.192,2.594,2.594,0,0,0,.622-.712l.2.127a3.351,3.351,0,0,1-.99,1.3,2.141,2.141,0,0,1-1.251.377,2.087,2.087,0,0,1-1.859-.944,3.3,3.3,0,0,1-.511-1.887A3.119,3.119,0,0,1,74.9,39.13a2.306,2.306,0,0,1,1.75-.823A1.9,1.9,0,0,1,78.105,39a3.131,3.131,0,0,1,.663,2.035m-1.448-.4a5.235,5.235,0,0,0-.107-1.3A1.061,1.061,0,0,0,76.9,38.8a.494.494,0,0,0-.335-.107.579.579,0,0,0-.5.3,2.584,2.584,0,0,0-.349,1.438v.205Z" transform="translate(25.3 13.069)" fill="#fff"/>
        <path id="Path_11181" data-name="Path 11181" d="M80,38.477v.711a3.22,3.22,0,0,1,.813-.665,1.745,1.745,0,0,1,.838-.216,1.323,1.323,0,0,1,.889.3,1.407,1.407,0,0,1,.476.736,5.8,5.8,0,0,1,.09,1.292v2.147a1.744,1.744,0,0,0,.113.8.72.72,0,0,0,.484.193v.209H80.916v-.209a.585.585,0,0,0,.447-.259,1.692,1.692,0,0,0,.1-.732V40.332a3.867,3.867,0,0,0-.054-.856.491.491,0,0,0-.181-.268.445.445,0,0,0-.278-.1q-.5,0-.946.726v2.955a1.661,1.661,0,0,0,.113.783.607.607,0,0,0,.428.208v.209H77.756v-.209a.687.687,0,0,0,.494-.225,1.632,1.632,0,0,0,.1-.766V39.674a1.572,1.572,0,0,0-.118-.779.676.676,0,0,0-.476-.2v-.216Z" transform="translate(26.528 13.069)" fill="#fff"/>
        <path id="Path_11182" data-name="Path 11182" d="M84.541,36.929v2.018h1.313v.582H84.541v3.4a2.825,2.825,0,0,0,.042.618.472.472,0,0,0,.162.224.338.338,0,0,0,.205.084c.255,0,.495-.2.724-.585l.18.133A1.616,1.616,0,0,1,84.3,44.535a1.386,1.386,0,0,1-.891-.288,1.316,1.316,0,0,1-.46-.656,5.439,5.439,0,0,1-.06-1.084V39.53h-.719V39.32a7.344,7.344,0,0,0,1.259-1.1,6.618,6.618,0,0,0,.917-1.292Z" transform="translate(28.035 12.599)" fill="#fff"/>
        <path id="Path_11183" data-name="Path 11183" d="M36.43,17.941a.291.291,0,1,0-.287-.29.288.288,0,0,0,.287.29" transform="translate(12.331 5.922)" fill="#fff"/>
        <path id="Path_11184" data-name="Path 11184" d="M48.979,8.7V8.7h-10.4V8.7h0l.009,8.4a1.9,1.9,0,0,0,.817,1.735l4,2.393a.484.484,0,0,0,.365.161.474.474,0,0,0,.323-.126l4.065-2.428a1.905,1.905,0,0,0,.817-1.735l.008-8.4Zm-6.945,2.432h-.9V8.982h.9Zm-.654.75.129-.13-.08-.15.169.017.1-.176.1.174.17-.016-.08.15.129.13-.162.032V12.1l-.157-.114-.153.114v-.181Zm-2.511.636h1.092v2.043H38.869Zm.181-.916.168.017.1-.176.1.174.17-.016-.079.15.127.13-.164.032V12.1l-.154-.114-.154.114v-.181L39,11.883l.126-.13Zm1.233,2.076.168.02.1-.178.1.176.172-.017-.079.148.126.134-.162.031v.184l-.154-.115-.154.115v-.184l-.164-.031.129-.134Zm.726-1.642c-.008-.055-.08-.067-.111-.067-.1,0-.135.16-.217.164-.059,0-.1.011-.1-.063,0-.055.123-.1.172-.142-.675,0-.688.306-.793.306-.178,0,.148-.323.241-.418-.137-.023-.216-.189-.365-.276.07-.1.11-.058.2.013,0-.071.052-.152.209-.152.3,0,.219.29.267.29s0-.29.2-.29c.3,0,.672.766.333.766-.145,0-.028-.106-.031-.13m-.774-2.248.129-.134-.08-.146.168.019.1-.178.1.176.172-.016-.079.146.126.134-.162.032V10l-.154-.117L40.4,10V9.821Zm-.274,1.344H38.869V8.982h1.092Zm2.073,8.951L39.545,18.6a1.785,1.785,0,0,1-.676-1.389V14.844h3.165Zm-.9-7.566h.9v2.043h-.9Zm4.1,7.733-1.147.687h-.021a.484.484,0,0,1-.3.1.479.479,0,0,1-.31-.109l-1.141-.683V14.844h2.921Zm0-5.691H42.316V8.982h2.921Zm3.449,2.646a1.788,1.788,0,0,1-.673,1.389l-2.492,1.487v-5.24h3.165Zm0-2.646H45.521V8.982h3.165Z" transform="translate(13.16 2.967)" fill="#fff"/>
        <path id="Path_11185" data-name="Path 11185" d="M41.756,15.142c-.015-.034-.4.125-.286.117.008-.114.22-.343.315-.426-.017-.134-.186-.015-.365.076.591-.846.212-.5-.119-.439.53-.57.39-.561,0-.382.307-.243.37-.531.325-.617-.287.384-.551.325-.551.677a1.4,1.4,0,0,1-.205.748c-.153.169-.035-.625-.441-.625-.131,0-.437-.012-.528.146.082,0,.207.213.207.294s.076.317-.062.317-.3-.292-.3-.433-.011-.106-.011-.308a1.122,1.122,0,0,0-.768-.8c0,.232.306.288.306.583-.13,0-.317-.236-.317-.09s.194.18.194.307-.221-.044-.221.1c0,.122.122.1.15.224-.089-.027-.169-.015-.186.03s.028.094.1.131c-.032.028-.059.1-.059.3,0,.661.417.972.722.972.219,0,.185-.154.212-.225.008.114.114-.058.114.139s-.212.115-.212.292c0,.237.335-.005.335.253a3.126,3.126,0,0,1-.04.435c0,.084.349-.117.327-.153.084.03.08.279.235.271.1,0,.123-.252.2-.272-.047.009.315.235.315.121,0-.308-.127-.176-.127-.388s.428-.158.361-.26c-.056-.083-.1-.032-.141-.178.009.025-.335-.491.071-.223.431.28.48-.654.455-.7" transform="translate(13.268 4.596)" fill="#fff"/>
        <path id="Path_11186" data-name="Path 11186" d="M49.386,16.506a.3.3,0,1,0-.339-.3.323.323,0,0,0,.339.3" transform="translate(16.733 5.426)" fill="#fff"/>
        <path id="Path_11187" data-name="Path 11187" d="M48.358,17.121a.3.3,0,1,0,0-.6.305.305,0,1,0,0,.6" transform="translate(16.381 5.635)" fill="#fff"/>
        <path id="Path_11188" data-name="Path 11188" d="M36.1,18.536a.305.305,0,1,0-.342-.3.326.326,0,0,0,.342.3" transform="translate(12.199 6.117)" fill="#fff"/>
        <path id="Path_11189" data-name="Path 11189" d="M36.894,18.6a.3.3,0,1,0-.343-.3.325.325,0,0,0,.343.3" transform="translate(12.47 6.14)" fill="#fff"/>
        <path id="Path_11190" data-name="Path 11190" d="M58.98,7.868a2.144,2.144,0,0,1,.255,2.268c-.2-.019-.166-.275-.2-.424a2.7,2.7,0,0,1-.326-2.3c.235.036.142.329.271.455" transform="translate(19.981 2.529)" fill="#fff"/>
        <path id="Path_11191" data-name="Path 11191" d="M26.676,8.6a3.235,3.235,0,0,0,0,1.443c-.09.09-.074-.094-.164-.072-.707-.514-.38-1.517-.562-2.23a.139.139,0,0,1,.182-.035,1.3,1.3,0,0,1,.543.895" transform="translate(8.853 2.621)" fill="#fff"/>
        <path id="Path_11192" data-name="Path 11192" d="M60.22,8.454c.11.2-.093.4-.24.494a.458.458,0,0,1-.451-.2.421.421,0,0,1,.216-.476.483.483,0,0,1,.475.184" transform="translate(20.305 2.82)" fill="#fff"/>
        <path id="Path_11193" data-name="Path 11193" d="M25.84,9.065a.539.539,0,0,1-.235.4c-.11,0-.272,0-.345-.09a.341.341,0,0,1-.076-.384.437.437,0,0,1,.349-.166c.127.054.253.091.307.237" transform="translate(8.583 3.012)" fill="#fff"/>
        <path id="Path_11194" data-name="Path 11194" d="M60.742,9.285a.438.438,0,0,1,0,.292.414.414,0,0,1-.492.164.473.473,0,0,1-.194-.31.533.533,0,0,1,.3-.33.579.579,0,0,1,.384.184" transform="translate(20.489 3.105)" fill="#fff"/>
        <path id="Path_11195" data-name="Path 11195" d="M59.948,9.277c.145.074.036.256.017.367-.09.089-.213.233-.38.18-.093-.091-.2-.091-.236-.22a.405.405,0,0,1,.252-.418.457.457,0,0,1,.346.091" transform="translate(20.249 3.13)" fill="#fff"/>
        <path id="Path_11196" data-name="Path 11196" d="M58.973,9.507c0,.2.017.456-.223.494a.348.348,0,0,1-.416-.256.436.436,0,0,1,.274-.439.5.5,0,0,1,.365.2" transform="translate(19.902 3.175)" fill="#fff"/>
        <path id="Path_11197" data-name="Path 11197" d="M27.3,9.587c.055.18-.126.288-.233.384a.371.371,0,0,1-.363-.2c-.129-.126.035-.235.071-.346a.335.335,0,0,1,.526.166" transform="translate(9.095 3.188)" fill="#fff"/>
        <path id="Path_11198" data-name="Path 11198" d="M26.48,9.628a.377.377,0,0,1-.2.349.335.335,0,0,1-.365-.168.31.31,0,0,1,.164-.417c.2-.075.327.109.4.236" transform="translate(8.831 3.198)" fill="#fff"/>
        <path id="Path_11199" data-name="Path 11199" d="M55.641,9.677A3.731,3.731,0,0,1,56,10.99c-.07.35.056.809-.2,1.043-.252-.091-.27-.4-.435-.565a3.164,3.164,0,0,1,.074-2.01c.144-.056.144.126.2.219" transform="translate(18.839 3.223)" fill="#fff"/>
        <path id="Path_11200" data-name="Path 11200" d="M25.869,9.842c.054.221-.109.33-.236.46a.434.434,0,0,1-.456-.255.361.361,0,0,1,.692-.205" transform="translate(8.589 3.276)" fill="#fff"/>
        <path id="Path_11201" data-name="Path 11201" d="M57.865,10.356a2.638,2.638,0,0,1,.093,1.758l-.109.089a7.222,7.222,0,0,1-.746-1.479,2.458,2.458,0,0,1,.219-1.041c.126-.093.2.017.252.129a.733.733,0,0,0,.291.545" transform="translate(19.482 3.291)" fill="#fff"/>
        <path id="Path_11202" data-name="Path 11202" d="M59.554,10a.467.467,0,0,1-.272.436.322.322,0,0,1-.414-.22.394.394,0,0,1,.2-.437c.2-.11.4.074.491.221" transform="translate(20.079 3.324)" fill="#fff"/>
        <path id="Path_11203" data-name="Path 11203" d="M26.524,10.442a.387.387,0,0,1-.274.347c-.145.109-.253-.072-.382-.126a.439.439,0,0,1,0-.421c.058-.109.184-.109.292-.148.164.1.329.166.363.347" transform="translate(8.807 3.444)" fill="#fff"/>
        <path id="Path_11204" data-name="Path 11204" d="M27.1,10.354c.072.184-.127.275-.2.365-.217.074-.326-.09-.417-.217-.035-.184.074-.3.2-.4.217-.056.327.094.417.256" transform="translate(9.032 3.441)" fill="#fff"/>
        <path id="Path_11205" data-name="Path 11205" d="M60.256,10.246c-.02.237-.384.472-.418.711a1.846,1.846,0,0,1-1.127,1.023.844.844,0,0,1-.417.239c-.035-.365.3-.693.492-1.023a2.668,2.668,0,0,1,1.47-.95" transform="translate(19.887 3.495)" fill="#fff"/>
        <path id="Path_11206" data-name="Path 11206" d="M26.4,10.989a6.873,6.873,0,0,0,.743.857.151.151,0,0,1-.125.182c-.891-.056-1.489-.968-1.926-1.607.056-.2.292-.038.418-.056.31.236.654.311.889.624" transform="translate(8.562 3.521)" fill="#fff"/>
        <path id="Path_11207" data-name="Path 11207" d="M60.388,11.008a2.344,2.344,0,0,1-1.125,1.976c-.2.071-.416.272-.618.146a9.182,9.182,0,0,1,1.6-2.122Z" transform="translate(20.008 3.755)" fill="#fff"/>
        <path id="Path_11208" data-name="Path 11208" d="M57.536,11.46a.454.454,0,0,1-.31.531c-.2.016-.329-.148-.418-.294a.387.387,0,0,1,.252-.4.305.305,0,0,1,.22-.055c.11.038.161.129.256.221" transform="translate(19.381 3.834)" fill="#fff"/>
        <path id="Path_11209" data-name="Path 11209" d="M25.707,11.588a11.132,11.132,0,0,1,.98.86c-.237.164-.528.015-.8.015-.617-.215-1.033-.746-1.668-.928.019-.2.255-.127.381-.184a3.313,3.313,0,0,1,1.108.237" transform="translate(8.262 3.87)" fill="#fff"/>
        <path id="Path_11210" data-name="Path 11210" d="M45.768,9.141c-1.017-.4-1.687.66-2.723.531-.126.074-.09.2-.162.291-.055.055-.146.021-.2-.016-.055-.441-.2-.844-.256-1.262-.109-.182-.054-.441-.145-.622C41.7,6.475,43.7,7.682,44.1,6.747c.347-.8-.669-.895-.978-1.462V5.049c-.291-.292-.6-.384-.782-.768a2.617,2.617,0,0,0,.055-1.407c-.017-.109-.09-.255-.253-.2-.345.475-.6.86-.925,1.316a10.329,10.329,0,0,0-1.07-.806c-.271-.035-.526-.308-.834-.2a.25.25,0,0,0,.054.272,2.622,2.622,0,0,0,.889,1.792l.055.274a8.264,8.264,0,0,0-.326,2.414,13.423,13.423,0,0,1-3.938,5.538c-1.034,1.167-2.268,2.3-2.433,3.907-.054.256.038.567-.161.751a6.268,6.268,0,0,1-1.689-.9c-.834-.586-2.033-.512-2.576-1.572-.217-.42.056-.841.255-1.151a2.116,2.116,0,0,0,.2-2.34c-.074-.019-.091.072-.146.093-.054,1.078-.907,1.827-.579,3.012.072.347.253.569.345.9a3.057,3.057,0,0,1-.418-.091,4.465,4.465,0,0,0-1.216-.164c-.834.381-1.974-.1-2.647.675-.109.016-.253.036-.217.2.4,0,.779.111,1.178.093.636.109,1.053-.422,1.489-.66h.109c.181-.181.49-.072.727-.109a7.3,7.3,0,0,1,2.976,1.243v.075c-.363.164-.781.27-1.144.473a2.45,2.45,0,0,0-1.017,1.224c-.29.456.091.86.272,1.242.019.184.036.4.2.476.581-.622.035-1.389.126-2.1a1.492,1.492,0,0,1,1.182-.95c1.033-.439,1.778.4,2.61.876a12.406,12.406,0,0,1-.089,2.468,2.244,2.244,0,0,1-.853.127c-1.435.111-2.559.9-3.848,1.333-.579.2-1.269.184-1.849.405a4.6,4.6,0,0,0,1.4-.055C30,22.5,31.361,21.13,33.285,21.366l.035.058a4.3,4.3,0,0,1-.852,1.186c-.055-.2-.074-.367-.253-.476a.338.338,0,0,0-.418.148.249.249,0,0,0,0,.275.608.608,0,0,0,.4.256c-.038.161-.236.237-.345.382-.507.858-1.542.511-2.142,1.113-.09.129-.416.2-.271.405a2.744,2.744,0,0,0,1.87-.476c.671-.748,1.379-1.463,2.048-2.177a2.181,2.181,0,0,1-.4,1.666,2.119,2.119,0,0,0-.49-.278.452.452,0,0,0-.326.367,1.052,1.052,0,0,0,.271.366,6.4,6.4,0,0,1-2.1.675,34.992,34.992,0,0,1-3.955.292,8.78,8.78,0,0,1-1.959,0c-.691.129-1.434-.089-1.994.3-.074.089.016.181.016.271.836.549,1.978.11,2.922.276h7.147a3.177,3.177,0,0,0,1.47-.276,5.31,5.31,0,0,0,1.906-2.409,3.809,3.809,0,0,0,.381-1.1A1.574,1.574,0,0,1,37.6,21.093a8.3,8.3,0,0,1-.307,2.779c-.109.585-.49,1.151-.253,1.772.056.292.363.292.6.329,2.194-.036,4.392-.13,6.714.036a5.289,5.289,0,0,0,1.233.182c.038-.056.164-.072.109-.182a.684.684,0,0,0-.433-.511c-.038-.111-.2-.071-.256-.146-1.16-.656-2.558-.311-3.919-.291a2.913,2.913,0,0,1-2.013-.2C38.8,24.529,39,23.488,39,23.488a26.289,26.289,0,0,1,1.124-3.527,3.2,3.2,0,0,0,.11-.84,3.566,3.566,0,0,0,.11-1.246,8.439,8.439,0,0,1,.561-1.7c.11-.276.2-.569.308-.841a2.7,2.7,0,0,1,.363-.951c.593.376,1.171.363,1.455,1.037l.251,1.521c0,.093.072.275.2.166.473-.312.327-1.007.327-1.483.109-.565-.288-.837-.452-1.333a2.122,2.122,0,0,1-.335-.526c-.074-.405-.952-.679-.754-1.171a1.485,1.485,0,0,1,.617-1.043.192.192,0,0,1,.09.131l.219-.154.023-1.526c.586,0,1.465.072,2.063.072.165.054.291.182.472.2l.146-.2,1.47-.287c-.626.07-1-.649-1.6-.649" transform="translate(7.632 0.908)" fill="#fff"/>
        <path id="Path_11211" data-name="Path 11211" d="M41.007,7.984a.7.7,0,0,0,.134-.028Z" transform="translate(13.99 2.714)" fill="#fff"/>
        <path id="Path_11212" data-name="Path 11212" d="M29.385,11.825a.4.4,0,0,1-.272.421c-.145-.054-.253-.071-.345-.221-.071-.2.11-.345.253-.417.146.034.327.054.363.217" transform="translate(9.809 3.96)" fill="#fff"/>
        <path id="Path_11213" data-name="Path 11213" d="M28.478,11.787a.407.407,0,0,1,.072.421c-.127.111-.327.2-.437.055-.107-.109-.216-.237-.127-.384.127-.126.346-.237.492-.093" transform="translate(9.537 3.998)" fill="#fff"/>
        <path id="Path_11214" data-name="Path 11214" d="M47.174,11.919a.145.145,0,0,0,.016.03" transform="translate(16.094 4.066)" fill="#fff"/>
        <path id="Path_11215" data-name="Path 11215" d="M57.647,12.205c.074.2-.089.343-.233.418-.181-.058-.42-.091-.42-.33a.348.348,0,0,1,.275-.272.341.341,0,0,1,.378.184" transform="translate(19.445 4.096)" fill="#fff"/>
        <path id="Path_11216" data-name="Path 11216" d="M58.348,12.159c.054.093.181.239.036.33a.673.673,0,0,0-.18.146.359.359,0,0,1-.439-.221c-.034-.2.13-.29.275-.381.127-.038.219.054.307.126" transform="translate(19.707 4.102)" fill="#fff"/>
        <path id="Path_11217" data-name="Path 11217" d="M25.109,12.368a.357.357,0,0,1-.487.239.723.723,0,0,1-.148-.239.35.35,0,0,1,.2-.312.439.439,0,0,1,.435.312" transform="translate(8.35 4.113)" fill="#fff"/>
        <path id="Path_11218" data-name="Path 11218" d="M29.686,12.6c-.017.146-.18.274-.307.347-.182.019-.307-.129-.4-.255a.372.372,0,0,1,.216-.367.407.407,0,0,1,.49.275" transform="translate(9.887 4.197)" fill="#fff"/>
        <path id="Path_11219" data-name="Path 11219" d="M28.865,12.459a.286.286,0,0,1,.054.294c-.11.091-.274.258-.453.146-.11-.093-.237-.165-.2-.347a.872.872,0,0,1,.274-.221c.145-.034.219.058.327.129" transform="translate(9.641 4.204)" fill="#fff"/>
        <path id="Path_11220" data-name="Path 11220" d="M60.452,12.654a.5.5,0,0,1-.233.347.358.358,0,0,1-.4-.093c-.111-.036-.074-.182-.074-.275a.616.616,0,0,1,.345-.235.644.644,0,0,1,.365.255" transform="translate(20.38 4.23)" fill="#fff"/>
        <path id="Path_11221" data-name="Path 11221" d="M61.295,12.767a.449.449,0,0,1-.346.327c-.11-.017-.307-.055-.274-.217a.335.335,0,0,1,.164-.292.324.324,0,0,1,.456.182" transform="translate(20.699 4.281)" fill="#fff"/>
        <path id="Path_11222" data-name="Path 11222" d="M26.665,12.959a.353.353,0,0,1-.217.436c-.127.075-.255-.017-.345-.089a.314.314,0,0,1-.093-.365c.038-.166.2-.129.31-.2a.438.438,0,0,1,.345.219" transform="translate(8.864 4.346)" fill="#fff"/>
        <path id="Path_11223" data-name="Path 11223" d="M27.324,13.086c.054.146-.11.2-.146.312a.305.305,0,0,1-.326.035c-.127-.11-.274-.275-.144-.44.144-.272.524-.126.616.093" transform="translate(9.095 4.382)" fill="#fff"/>
        <path id="Path_11224" data-name="Path 11224" d="M59.628,12.994c.017.184-.146.31-.251.421a.315.315,0,0,1-.366-.22.371.371,0,0,1,.2-.346.393.393,0,0,1,.413.145" transform="translate(20.132 4.382)" fill="#fff"/>
        <path id="Path_11225" data-name="Path 11225" d="M60.766,13.231c-.034.166-.016.35-.2.459a.509.509,0,0,1-.435-.075.327.327,0,0,1-.07-.384.412.412,0,0,1,.431-.215c.131.068.165.161.272.215" transform="translate(20.481 4.438)" fill="#fff"/>
        <path id="Path_11226" data-name="Path 11226" d="M26.127,13.53c.071.148-.093.181-.146.259a.368.368,0,0,1-.361-.038c-.129-.074-.072-.255-.055-.347.161-.31.49-.091.562.126" transform="translate(8.713 4.52)" fill="#fff"/>
        <path id="Path_11227" data-name="Path 11227" d="M60.286,13.867c.07.017.034.129.013.164a1.383,1.383,0,0,1-1.471-.068,4.958,4.958,0,0,0-.723-.405c.091-.237.417-.221.652-.272.527.072.944.565,1.529.582" transform="translate(19.824 4.532)" fill="#fff"/>
        <path id="Path_11228" data-name="Path 11228" d="M26.778,13.649c.036.148-.072.2-.109.314-.072.109-.217.074-.307.036a.3.3,0,1,1,.416-.35" transform="translate(8.932 4.583)" fill="#fff"/>
        <path id="Path_11229" data-name="Path 11229" d="M27.991,13.736c.074.164-.035.31-.181.4-.126.074-.235-.038-.345-.055-.091-.13-.253-.276-.091-.421.165-.272.49-.126.617.074" transform="translate(9.316 4.61)" fill="#fff"/>
        <path id="Path_11230" data-name="Path 11230" d="M44.124,14.351c-.035.365-.638-.051-.553.435a2.743,2.743,0,0,0,.363,1.023c.169.243.084.626.066.923a1.667,1.667,0,0,1-.687.59c-.519-.051-1.275.26-1.517-.385a2.512,2.512,0,0,1-.3-.868c.054-.031.122-.031.173-.084,0-.122-.137-.193-.119-.312.586-.1-.24-.626.258-.661.413.435,1.086.3,1.447.764a1.628,1.628,0,0,0,.262.227c-.072-.435-.278-.869-.347-1.338a.6.6,0,0,1,.208-.606c.311-.245.57.1.742.294" transform="translate(14.159 4.767)" fill="#fff"/>
        <path id="Path_11231" data-name="Path 11231" d="M29.145,14.215c.055.181-.091.294-.2.384-.162.072-.253-.109-.326-.2-.054-.181.072-.272.182-.362a.4.4,0,0,1,.345.181" transform="translate(9.759 4.788)" fill="#fff"/>
        <path id="Path_11232" data-name="Path 11232" d="M37.513,14.332a2.5,2.5,0,0,1-.22,2.048c-.016.145.038.384-.162.366-.488-.676-.127-1.63.074-2.34.038-.182.255-.255.308-.074" transform="translate(12.585 4.854)" fill="#fff"/>
        <path id="Path_11233" data-name="Path 11233" d="M49.066,14.673a2.042,2.042,0,0,1,.034,1.7l-.139.144a4.064,4.064,0,0,1-.42-1.3,4.358,4.358,0,0,0,.217-.97c.257-.052.237.275.308.421" transform="translate(16.56 4.86)" fill="#fff"/>
        <path id="Path_11234" data-name="Path 11234" d="M30.631,14.758c-.109.219-.417.275-.617.421a2.163,2.163,0,0,1-1.615.31,1.976,1.976,0,0,1,2.068-.86c.036.074.127.04.164.129" transform="translate(9.689 4.976)" fill="#fff"/>
        <path id="Path_11235" data-name="Path 11235" d="M24.548,15.2A4.94,4.94,0,0,1,25.8,16.994c.054.075.235.093.164.239-.146.111-.292-.11-.492-.071a2.009,2.009,0,0,1-1.105-1.883c0-.074.109-.074.18-.074" transform="translate(8.314 5.187)" fill="#fff"/>
        <path id="Path_11236" data-name="Path 11236" d="M48.559,15.669c.017.185-.021.367-.162.421a.331.331,0,0,1-.418-.216c-.058-.13.051-.205.087-.294a.324.324,0,0,1,.494.089" transform="translate(16.363 5.288)" fill="#fff"/>
        <path id="Path_11237" data-name="Path 11237" d="M56.629,20.615a9.188,9.188,0,0,1,.127-1,.635.635,0,0,0,.072-.385c.435-.585,1.322-.4,2.013-.347a3.8,3.8,0,0,0,.911.2.649.649,0,0,1,.452-.091c.581-.312.2-.987.235-1.518l-.215-.55a1.758,1.758,0,0,1-.149-.365c-.109-.126-.184-.363-.29-.492a7.369,7.369,0,0,0-1.415-1.9,7.682,7.682,0,0,0-3.829-2.358c-1.435-.492-2.884.149-4.171.6a1.05,1.05,0,0,1-.709-.768,3.613,3.613,0,0,1,.349-1.935A6.941,6.941,0,0,1,50.5,8.484a13.2,13.2,0,0,0,.744-3.144,1.645,1.645,0,0,0-.98-1.444.985.985,0,0,0-1,.2,2.631,2.631,0,0,1-1.18,1.058c-.035.31.346.11.471.219.4.074.852-.055,1.183.2a3.115,3.115,0,0,1-.762,1.882,14.514,14.514,0,0,0-1.654,2.85l-.071-.075L47.3,14.6a5.392,5.392,0,0,0,2.41,2.525c.582.476,1.31,1.042,2.087.622.422-.129.456.455.654.693.219.677-.27,1.151-.307,1.773l-.473,1.006a13.09,13.09,0,0,1-1.864,3.089c-.276,0-.44.29-.709.31-.148.2-.439.055-.62.126-.559.237-1.357.093-1.738.622a.254.254,0,0,0,.144.091c1.106.02,2.34.093,3.521.038a.449.449,0,0,0,.29-.347c-.162-.311.055-.587.2-.822a12.3,12.3,0,0,1,.508-1.133c.381-.748.819-1.482,1.235-2.23l.562-.912a6.787,6.787,0,0,1,.561-1.023,2.288,2.288,0,0,0,.327-.494c.019-.184-.07-.258-.182-.385.13-.129.33-.091.491-.129a2.061,2.061,0,0,1,1.018,1.207l.162.476.072.219-.038.6.071.567a12.945,12.945,0,0,1-.16,2.65c-.308,1.058-1.525.95-2.4,1.187-.217.146-.636.074-.636.439a16.1,16.1,0,0,0,3.411.071c.182-.071.219-.235.31-.4.036-.24.271-.441.2-.7-.2-.256-.015-.657-.068-1a.555.555,0,0,0,0-.35c.142-.53.1-1.167.215-1.679Z" transform="translate(15.947 1.312)" fill="#fff"/>
        <path id="Path_11238" data-name="Path 11238" d="M61.377,15.827a4.56,4.56,0,0,1-2.212,2.047c-.072,0-.146.035-.181-.056.616-.659.942-1.68,1.9-1.919a.594.594,0,0,1,.488-.071" transform="translate(20.124 5.389)" fill="#fff"/>
        <path id="Path_11239" data-name="Path 11239" d="M23.988,16.565c-.091.071-.017.239-.181.255a.29.29,0,0,1-.381-.162.325.325,0,0,1,.236-.4c.145.072.29.126.326.31" transform="translate(7.986 5.545)" fill="#fff"/>
        <path id="Path_11240" data-name="Path 11240" d="M28.321,16.8c.055.166-.127.166-.217.2a1.985,1.985,0,0,1-2.087-.531c0-.074,0-.146.072-.165.744.182,1.615.036,2.232.492" transform="translate(8.876 5.564)" fill="#fff"/>
        <path id="Path_11241" data-name="Path 11241" d="M24.751,16.536a.5.5,0,0,1,.035.275.4.4,0,0,1-.453.165.6.6,0,0,1-.236-.236.434.434,0,0,1,.308-.35.542.542,0,0,1,.346.146" transform="translate(8.221 5.592)" fill="#fff"/>
        <path id="Path_11242" data-name="Path 11242" d="M37.416,16.609c.036.162-.109.271-.217.347a.357.357,0,0,1-.38-.148.26.26,0,0,1,.127-.346c.162-.038.414-.02.469.146" transform="translate(12.554 5.611)" fill="#fff"/>
        <path id="Path_11243" data-name="Path 11243" d="M61.457,16.668c.054.184-.107.276-.236.385A.4.4,0,0,1,60.875,17c-.016-.091-.126-.164-.09-.291a.388.388,0,0,1,.416-.22,2.186,2.186,0,0,1,.256.181" transform="translate(20.736 5.624)" fill="#fff"/>
        <path id="Path_11244" data-name="Path 11244" d="M62.345,16.6c.109.162.023.292-.071.418a.249.249,0,0,1-.329.111c-.107-.111-.253-.166-.27-.33,0-.146.162-.255.27-.31.184-.074.259.11.4.11" transform="translate(21.042 5.62)" fill="#fff"/>
        <path id="Path_11245" data-name="Path 11245" d="M23.447,17.033c.019.129-.09.2-.126.312-.091.034-.182.109-.291.071a.539.539,0,0,1-.272-.292.482.482,0,0,1,.326-.366.466.466,0,0,1,.363.275" transform="translate(7.764 5.717)" fill="#fff"/>
        <path id="Path_11246" data-name="Path 11246" d="M51.917,17a.493.493,0,0,1,.016.237c-.107.146-.253.274-.435.184-.111-.109-.235-.22-.184-.388a.36.36,0,0,1,.6-.034" transform="translate(17.503 5.749)" fill="#fff"/>
        <path id="Path_11247" data-name="Path 11247" d="M25.592,17.258c-.036.126-.091.256-.255.275s-.217-.127-.308-.2c0-.161-.017-.327.146-.418a.329.329,0,0,1,.417.346" transform="translate(8.539 5.764)" fill="#fff"/>
        <path id="Path_11248" data-name="Path 11248" d="M24.322,17.266a.384.384,0,0,1-.181.4.43.43,0,0,1-.491-.256.524.524,0,0,1,.327-.424c.164,0,.253.184.345.279" transform="translate(8.069 5.795)" fill="#fff"/>
        <path id="Path_11249" data-name="Path 11249" d="M52.829,17.217a.365.365,0,0,1-.2.44c-.221.074-.4-.11-.492-.256.091-.145.107-.347.327-.384a.418.418,0,0,1,.362.2" transform="translate(17.789 5.805)" fill="#fff"/>
        <path id="Path_11250" data-name="Path 11250" d="M24.934,17.286c.056.133-.052.184-.09.275-.09,0-.146.11-.255.072-.072-.091-.217-.129-.235-.255-.019-.184.109-.276.235-.347a.335.335,0,0,1,.345.255" transform="translate(8.308 5.81)" fill="#fff"/>
        <path id="Path_11251" data-name="Path 11251" d="M60.722,17.421a.543.543,0,0,1-.312.292c-.144.035-.235-.093-.339-.148-.094-.074-.056-.24-.019-.326a.363.363,0,0,1,.671.181" transform="translate(20.474 5.823)" fill="#fff"/>
        <path id="Path_11252" data-name="Path 11252" d="M61.744,17.458a.464.464,0,0,1-.436.31c-.164-.068-.345-.2-.217-.418.075-.072.109-.144.217-.166a.349.349,0,0,1,.436.275" transform="translate(20.828 5.856)" fill="#fff"/>
        <path id="Path_11253" data-name="Path 11253" d="M55.3,17.531c.089.237-.126.312-.272.421a.874.874,0,0,1-.345-.145.417.417,0,0,1,.258-.476.432.432,0,0,1,.359.2" transform="translate(18.654 5.913)" fill="#fff"/>
        <path id="Path_11254" data-name="Path 11254" d="M51.57,17.681c.086.034.051.162.034.216-.11.076-.253.256-.417.148A.31.31,0,0,1,51,17.7a.343.343,0,0,1,.567-.016" transform="translate(17.398 5.983)" fill="#fff"/>
        <path id="Path_11255" data-name="Path 11255" d="M52.331,17.785a.252.252,0,0,1-.146.294c-.129.129-.272-.019-.4-.056a.29.29,0,0,1-.016-.272A.372.372,0,0,1,52,17.6c.13.035.275.035.33.181" transform="translate(17.652 6.006)" fill="#fff"/>
        <path id="Path_11256" data-name="Path 11256" d="M29.387,17.8c.109.11-.019.239-.036.347a.354.354,0,0,1-.455.091c-.182-.074-.164-.31-.126-.456.11-.036.11-.166.253-.166a.669.669,0,0,1,.363.184" transform="translate(9.807 6.009)" fill="#fff"/>
        <path id="Path_11257" data-name="Path 11257" d="M56.764,17.868c.038.185-.144.256-.274.294-.216.074-.325-.089-.414-.236,0-.111.11-.182.144-.274.258-.109.42.074.545.216" transform="translate(19.132 6.011)" fill="#fff"/>
        <path id="Path_11258" data-name="Path 11258" d="M56.035,17.86c.074.185-.129.276-.2.367a.364.364,0,0,1-.4-.074c-.091-.052-.091-.165-.091-.272.109-.093.165-.2.294-.237a.48.48,0,0,1,.4.216" transform="translate(18.882 6.019)" fill="#fff"/>
        <path id="Path_11259" data-name="Path 11259" d="M62.693,18.07c.038.255-.288.129-.417.2a2.9,2.9,0,0,1-2.466-.165c.054-.235.33-.144.472-.235.781-.495,1.58.107,2.358.146Z" transform="translate(20.405 6.03)" fill="#fff"/>
        <path id="Path_11260" data-name="Path 11260" d="M25.569,17.83l-.074.129a2.926,2.926,0,0,1-2.339.422l-.075-.109a3.277,3.277,0,0,1,2.432-.5Z" transform="translate(7.875 6.049)" fill="#fff"/>
        <path id="Path_11261" data-name="Path 11261" d="M58.14,17.952a.411.411,0,0,1-.182.347.361.361,0,0,1-.473-.2c-.052-.148.093-.292.239-.347.126,0,.345.019.417.2" transform="translate(19.608 6.056)" fill="#fff"/>
        <path id="Path_11262" data-name="Path 11262" d="M27.531,18.023c-.072.145-.036.291-.219.365a.394.394,0,0,1-.452-.236c-.055-.205.09-.258.18-.35.219-.109.381.055.491.221" transform="translate(9.16 6.061)" fill="#fff"/>
        <path id="Path_11263" data-name="Path 11263" d="M26.567,18.1c.052.126-.056.2-.093.294a.327.327,0,0,1-.361.054c-.127-.109-.256-.237-.2-.436a1.059,1.059,0,0,1,.292-.205.421.421,0,0,1,.363.294" transform="translate(8.836 6.075)" fill="#fff"/>
        <path id="Path_11264" data-name="Path 11264" d="M59.086,18.415a.383.383,0,0,1-.29.326.4.4,0,0,1-.345-.181.288.288,0,0,1,.067-.346c.04-.055.166-.055.24-.1a.4.4,0,0,1,.327.3" transform="translate(19.932 6.181)" fill="#fff"/>
        <path id="Path_11265" data-name="Path 11265" d="M25.876,18.2c.055.145-.074.2-.091.308a2.665,2.665,0,0,1-.4.787c-.343.418-.833.418-1.324.547l-.071-.148a4.8,4.8,0,0,1,1.831-1.534Z" transform="translate(8.184 6.196)" fill="#fff"/>
        <path id="Path_11266" data-name="Path 11266" d="M58.4,18.55c.038.219-.142.258-.275.347a.413.413,0,0,1-.361-.22c-.054-.2.13-.274.236-.366a.366.366,0,0,1,.4.239" transform="translate(19.705 6.245)" fill="#fff"/>
        <path id="Path_11267" data-name="Path 11267" d="M27.114,18.531c-.017.035.02.072.055.091-.017.2-.162.256-.272.349a.493.493,0,0,1-.4-.182.3.3,0,0,1,.181-.421c.164-.02.381,0,.435.164" transform="translate(9.031 6.264)" fill="#fff"/>
        <path id="Path_11268" data-name="Path 11268" d="M61.063,19.077c.181-.016.217-.237.418-.271a.435.435,0,0,1,.433.2c.075.219-.09.33-.236.418-.127.093-.4-.109-.378.129a.559.559,0,0,1,.251.365c-.036.074-.161.056-.217.019a2.3,2.3,0,0,1-1.3-1.131c-.075-.168-.416-.294-.22-.44a1.684,1.684,0,0,1,1.253.711" transform="translate(20.385 6.265)" fill="#fff"/>
        <path id="Path_11269" data-name="Path 11269" d="M62.206,18.51a.277.277,0,0,1-.017.347c-.091.184-.363.109-.526.089-.093-.089-.184-.181-.146-.327a.585.585,0,0,1,.268-.237.507.507,0,0,1,.421.129" transform="translate(20.985 6.268)" fill="#fff"/>
        <path id="Path_11270" data-name="Path 11270" d="M57.526,19.465a2.681,2.681,0,0,1,.4.731c-.038.055-.127.038-.168.038-.614-.347-1.412-.73-1.647-1.459-.054-.075-.2-.169-.181-.3a1.668,1.668,0,0,1,1.247.512c.131.181.276.274.35.473" transform="translate(19.081 6.299)" fill="#fff"/>
        <path id="Path_11271" data-name="Path 11271" d="M26.351,18.752c.074.162-.074.29-.164.363a.426.426,0,0,1-.418-.146c-.126-.2.11-.367.255-.439.146-.02.236.126.327.221" transform="translate(8.779 6.321)" fill="#fff"/>
        <path id="Path_11272" data-name="Path 11272" d="M58.981,19.07c.017.11-.126.181-.184.255-.145.017-.29.072-.417-.055-.038-.09-.127-.236-.017-.329.194-.256.492-.052.618.129" transform="translate(19.894 6.421)" fill="#fff"/>
        <path id="Path_11273" data-name="Path 11273" d="M62.361,19.25a.425.425,0,0,1-.252.456.474.474,0,0,1-.436-.164c-.089-.109-.019-.219,0-.347a.453.453,0,0,1,.472-.126.876.876,0,0,1,.216.181" transform="translate(21.026 6.496)" fill="#fff"/>
        <path id="Path_11274" data-name="Path 11274" d="M53.443,21.1c0,.221-.4.166-.563.331a3.876,3.876,0,0,1-1.9.274V21.6a2.692,2.692,0,0,1,2.468-.5" transform="translate(17.391 7.162)" fill="#fff"/>
        <path id="Path_11275" data-name="Path 11275" d="M33.231,21.732a.345.345,0,0,1-.272.31.35.35,0,0,1-.308-.184c-.071-.217.109-.31.237-.4a.412.412,0,0,1,.343.272" transform="translate(11.134 7.321)" fill="#fff"/>
        <path id="Path_11276" data-name="Path 11276" d="M52.771,21.877a.528.528,0,0,1-.271.418c-.165.038-.272-.054-.4-.129-.089-.072-.035-.2-.052-.29a.389.389,0,0,1,.726,0" transform="translate(17.756 7.379)" fill="#fff"/>
        <path id="Path_11277" data-name="Path 11277" d="M55.944,21.9a2.943,2.943,0,0,1-1.56.64l-.978-.017-.09-.071a2.99,2.99,0,0,1,2.627-.66Z" transform="translate(18.19 7.425)" fill="#fff"/>
        <path id="Path_11278" data-name="Path 11278" d="M29.536,22.263a.327.327,0,0,1-.616.184.327.327,0,0,1,.144-.418c.2-.13.4.093.472.235" transform="translate(9.857 7.502)" fill="#fff"/>
        <path id="Path_11279" data-name="Path 11279" d="M30.189,22.391c.054.093-.035.146-.074.239a.3.3,0,0,1-.343,0,.231.231,0,0,1-.109-.31c.054-.113.162-.1.217-.166a.506.506,0,0,1,.308.237" transform="translate(10.112 7.558)" fill="#fff"/>
        <path id="Path_11280" data-name="Path 11280" d="M25.357,24.153c-.181.219-.472-.055-.671-.164-.634-.366-.617-1.078-1.253-1.5.074-.219.236.017.363-.017a2.333,2.333,0,0,0,.381.2c.617.347.76.932,1.179,1.479" transform="translate(7.995 7.641)" fill="#fff"/>
        <path id="Path_11281" data-name="Path 11281" d="M79.242,20.4a1.446,1.446,0,0,0-1.363-.747,1.25,1.25,0,0,0-1.017.747.929.929,0,0,0,.345,1.006.283.283,0,0,0,.365-.09c.09-.239-.164-.239-.2-.422a.607.607,0,0,1,.2-.64c.18-.181.487-.089.707-.089a1.256,1.256,0,0,1,.545.528,1.5,1.5,0,0,1,0,.971,1.628,1.628,0,0,1-1.123.912c-1.507.217-18.04.146-18.04.146-1.935.181-4.15-.366-5.819.657A2.893,2.893,0,0,0,52.5,25.337a13.569,13.569,0,0,0-1.418,1.444l-.051-.056c.09-.436.291-.823.381-1.262a7.617,7.617,0,0,0,.471-1.259,10.075,10.075,0,0,1,2.411-3.034c.455-.6,1.254-.494,1.942-.494a4.8,4.8,0,0,0,2.525.365.177.177,0,0,0,.051-.129c-.252-.236-.669-.327-.96-.565-.727-.349-1.416.111-2.175.054-.039-.035-.072-.054-.055-.106a10.728,10.728,0,0,1,2.249-1.21,15.244,15.244,0,0,1,1.976-.783c.272,0,.528-.239.779-.074l.964-.256c.035.017.072.075.146.056a9.908,9.908,0,0,1,2.776-.039l.123.11.873.22c.326.035.472.418.819.44.176-.256-.2-.365-.294-.531a1.98,1.98,0,0,1,1.214.182l-.181.2c-.107.207.055.35.221.424.123.035.215-.056.306-.091.236-.166-.02-.333.055-.476a17.475,17.475,0,0,1,3.865,1.1,3.121,3.121,0,0,0,1.05.35,4.649,4.649,0,0,0-1.379-.732c-.306-.184-.742-.2-.976-.459.051-.089.178-.055.235-.126a2.707,2.707,0,0,0,1.577-1.023c.034-.113.235-.074.216-.22-.162-.181-.433.054-.652.036-.759.146-1.089,1.041-1.849,1.207-.921-.22-1.868-.439-2.8-.676a5.69,5.69,0,0,1-1.36-.294l-1.015-.091H62.711c-.016-.036-.072-.054-.054-.109.656-.164,1.214-.55,1.87-.714L69.39,14.48a12.021,12.021,0,0,0,1.379-1.5.348.348,0,0,0-.2-.349.305.305,0,0,0-.361.072c-.22.165,0,.366,0,.567a3.171,3.171,0,0,1-.837.714c-.072-.019-5.007,2.246-5.007,2.246a12.564,12.564,0,0,1-2.213.823l-1.054.165a.689.689,0,0,1-.451.418,4.427,4.427,0,0,1-.838.237,18.42,18.42,0,0,0-6.674,3.749,2.08,2.08,0,0,0,.178-.771,1.513,1.513,0,0,0-.2-.8c-.04-.1-.176-.393-.133-.5l-.266.172a2.572,2.572,0,0,0-.148,1.554c.054.329.33.711.075,1.006A16.836,16.836,0,0,0,50.7,25.829c-.217-.036-.327-.237-.416-.437a6.139,6.139,0,0,0,1.286-2.668c.125-.1.036-.33.162-.439-.038-.3.166-.585.019-.823.117-.4-.527-.767-.117-1.023l-.342.164c-.781,1.026.4,2.56-.481,3.546v.075a3.226,3.226,0,0,1-.727.874c-.437-.182-.6-.676-.853-1.041a1.615,1.615,0,0,1-.164-1.7c.164-.531-.109-.987-.164-1.463l-.18-.109a2.106,2.106,0,0,0-.256,2.138c.182.33.2.786.472,1.06a5.956,5.956,0,0,0,.781,1.353c.074.182-.109.221-.2.31-.2-.127-.165-.418-.346-.549a13.31,13.31,0,0,0-2.322-3.344c-.038-.166-.2-.31-.111-.492a1.337,1.337,0,0,0,.237-1.391c-.035-.089-.144-.2-.126-.294l-.272-.216c.036.637-.382,1.206-.2,1.883v.035a34.456,34.456,0,0,0-6.041-3.651l-.166.465a12.394,12.394,0,0,1,1.942.991,12.261,12.261,0,0,1,1.816.968,12.5,12.5,0,0,1,5.206,6.16c.02.2.2.418.074.62a10.231,10.231,0,0,0-1.38-1.388,2.667,2.667,0,0,0-1.379-2.028c-.272-.4-.852-.439-1.308-.567l-6.6-.034c-5.369-.076-10.269.162-15.6.074-.742-.074-1.651-.33-1.868-1.119a1.209,1.209,0,0,1,0-1A1.1,1.1,0,0,1,22,20.277a.961.961,0,0,1,.617.51c0,.239-.2.459-.29.659.017.072.09.221.217.164a.854.854,0,0,0,.472-.583c.019-.13.072-.311-.055-.4a1.219,1.219,0,0,0-.852-.75,1.427,1.427,0,0,0-1.525,1.955,2.447,2.447,0,0,0,1.959,1.462l17.653.072a38.62,38.62,0,0,1,5.408.146A2.087,2.087,0,0,1,47.073,24.9c-.017.034-.071.015-.125.015A7.848,7.848,0,0,0,41.8,23.858a6.246,6.246,0,0,0-2.033.421,1.025,1.025,0,0,1-.888-.3,3.013,3.013,0,0,0-2.631-.33c0,.056-.017.111.019.129.889-.072,1.414.7,2.213.786.181.036.326-.164.49-.017a16.293,16.293,0,0,1-2.521,1.132c-.274-.054-.417-.31-.634-.455-.346-.385-.98-.219-1.452-.256-.164.038-.308-.071-.417,0a1.554,1.554,0,0,0,.782.6c.452.2.978-.017,1.395.253a1.891,1.891,0,0,1-.381.259c-.853.327-1.56,1.094-2.5,1.038a3.23,3.23,0,0,1-2.684-.877,1.816,1.816,0,0,0-1.833-1.056c-.055.035-.126.035-.109.126.4.239.707.708,1.106.986.255.31.744,0,.979.347a3.257,3.257,0,0,0,1.18.511,5.02,5.02,0,0,0,.943.255l-.127.074a15.5,15.5,0,0,1-5.4.528c-.545-.015-1.073-.181-1.615-.164a.979.979,0,0,0,.436.258,1.129,1.129,0,0,1-.491.146,3.332,3.332,0,0,0-.691.182,1.87,1.87,0,0,0-.779.182,3.718,3.718,0,0,1-1.035.841c0,.074-.016.184.074.184.346-.148.779-.039,1.127-.184.6-.055.942-.715,1.415-.986a2.386,2.386,0,0,1,1.849-.22c.362.093-.036.236.072.473.145.13.271.276.473.219a.3.3,0,0,1,.126-.089.417.417,0,0,0,.016-.457c.255-.165.6.019.872-.09.689-.019,1.379-.165,2.051-.184.107-.019.236-.127.343-.019-.054.146-.236.165-.161.366.036.162.217.237.361.271.182-.071.346-.2.272-.435-.034-.129-.181-.148-.272-.2.382-.182.817-.237,1.2-.42a3.524,3.524,0,0,0,.763-.259c.236-.017.435-.235.652-.144a3.836,3.836,0,0,1-.381.877,4.387,4.387,0,0,0,0,3.177c.056.02.074-.017.109-.035a4.371,4.371,0,0,1,.164-2.995c.253-1.554,1.852-2.012,2.995-2.6l.054.075a5.7,5.7,0,0,0-.688,2.54c.035.164-.074.33,0,.439a1.91,1.91,0,0,0,.669-.84c.127-.823-.345-1.844.491-2.45a12.8,12.8,0,0,1,4.608-1.369c.054.055.181-.038.2.074-.362.4-.889.786-1.054,1.277a4.132,4.132,0,0,0-.307,3.162c.165.567-.326.877-.562,1.317-.114.154-.145.421-.249.6l.358.038a1.954,1.954,0,0,0,.618-1.207.494.494,0,0,0,.341.365c.129-.2-.107-.343-.126-.546.292-.165.418.2.654.274a4.63,4.63,0,0,0,1.108.255l.126-.127a2.253,2.253,0,0,0-1.888-.768,3.676,3.676,0,0,1-.326-2.08,3.2,3.2,0,0,1,.365-1.136,2.655,2.655,0,0,1,.506-.693,2.5,2.5,0,0,1,1.145-.62h.054a.089.089,0,0,0,.019.055c-.49.384-.546.913-.834,1.389a1.525,1.525,0,0,0-.165,1.587c.11.24.056.6.308.768a4.068,4.068,0,0,0,.381-1.116c-.055-.6-.417-1.168-.072-1.752a1.5,1.5,0,0,1,.98-.806,5.6,5.6,0,0,1,2.739.806c.182.126.49.235.527.49a1.483,1.483,0,0,1-2.324,1.207,1.248,1.248,0,0,1-.288-1.113.75.75,0,0,1,.8-.292c.181.09.345.274.579.164a.226.226,0,0,0,.074-.291c-.2-.11-.271-.382-.545-.42a1.175,1.175,0,0,0-1,.2,1.289,1.289,0,0,0-.417,1.281A1.571,1.571,0,0,0,45.2,27.623a2.106,2.106,0,0,0,2.232-.768,2.5,2.5,0,0,0,.4-.786,4.743,4.743,0,0,1,1.87,2.413,3.827,3.827,0,0,1,.017.915l.634.054a.61.61,0,0,1,.055-.439,5.5,5.5,0,0,1,1.87-3c.308-.184.236.236.308.365a2.416,2.416,0,0,0,1.576,1.388,2,2,0,0,0,1.963-.64c.232-.439.524-1.076.125-1.534a1.254,1.254,0,0,0-1-.476,1.235,1.235,0,0,0-1,.677c0,.146-.019.312.111.385.072,0,.215.019.27-.09.038-.276.274-.405.494-.551a.569.569,0,0,1,.581.11.972.972,0,0,1,.251.714,1.1,1.1,0,0,1-.6.86,1.85,1.85,0,0,1-1.742-.166,3.92,3.92,0,0,1-.508-.8,1.327,1.327,0,0,1,0-.838,6.128,6.128,0,0,1,2.6-.915,1.868,1.868,0,0,1,.96.6c.832.858-.182,2.084.4,3.035.217-.038.217-.327.31-.511a3.246,3.246,0,0,0-.235-2.013,3.813,3.813,0,0,0-.689-1.076.437.437,0,0,1,.217-.038,4.534,4.534,0,0,1,1.106.95,4.887,4.887,0,0,1,.7,3c-.144.55-.72.8-1.178,1.006a1.69,1.69,0,0,0-.49.582c.216.129.527,0,.744-.089.342-.127.543-.569.779-.768.036.019.015.074.036.109.019.2-.089.476.091.532a6.118,6.118,0,0,0,.162-.935,1.821,1.821,0,0,1,.349.916c.162.329.431.767.866.822.111-.166-.019-.333-.054-.476-.055-.459-.433-.693-.693-1.025-.63-.876-.338-2.246-.83-3.232a3.831,3.831,0,0,0-.98-1.352l.075-.074a10.611,10.611,0,0,1,2.446.441c1,.491,2.453.381,2.92,1.678a4.838,4.838,0,0,0,1.037,1.973l.054-.035a.736.736,0,0,0,0-.677c-.107-.915-.907-1.133-1.322-1.9l.052-.071a11.277,11.277,0,0,1,1.322.421,3.889,3.889,0,0,1,2.651,3.3,7.155,7.155,0,0,1-.672,3.126c-.054.144-.307.307-.145.439.2-.149.236-.386.346-.55a5.09,5.09,0,0,0,.6-3.673c-.019-.236-.287-.418-.162-.656a.578.578,0,0,0,.311.164c.106-.074.268-.074.341-.2.02-.109.091-.236,0-.331a.507.507,0,0,0-.524-.125.853.853,0,0,0-.219.4,3.829,3.829,0,0,0-.649-.968l.034-.056c.819.272,1.558.676,2.391.9a1.222,1.222,0,0,0,.642.2,17.37,17.37,0,0,0,2.225.565c.546-.054,1,.2,1.545.075v-.036l-.02.016c-.2-.255-.634-.016-.869-.2a13.766,13.766,0,0,1-3.574-.895c.02-.055.091-.035.144-.035a.476.476,0,0,0,.292-.459.489.489,0,0,0-.416-.2.5.5,0,0,0-.274.308.463.463,0,0,0,.274.35c-.038.035-.111.015-.166.015-.563-.255-1.108-.491-1.647-.748-.2-.038-.366-.2-.563-.236-.418-.2-.838-.4-1.253-.567a28.656,28.656,0,0,0-3.687-1.371c-.27-.074-.523-.146-.777-.221-.453-.126-.907-.237-1.36-.365a6.888,6.888,0,0,0-4.953.422c-.223-.075-.349.274-.457.055a2.563,2.563,0,0,1,2.487-1.373c7.275-.072,14.1-.127,21.266-.236a2.293,2.293,0,0,0,2.084-1.041,1.851,1.851,0,0,0,.129-1.683M50.395,27.146a1.606,1.606,0,0,0-.2.64l-.074.036c.056-.278-.216-.439-.144-.73-.146-.221-.146-.494-.272-.732-.164-.292.145-.421.272-.62.252.106.343.347.526.565.107.31-.129.549-.109.841" transform="translate(6.996 4.301)" fill="#fff"/>
        <path id="Path_11282" data-name="Path 11282" d="M58.144,22.606c0,.055.109.074.071.162a3.794,3.794,0,0,1-2.432.768c-.072.019-.146.075-.236.055-.052-.036-.072-.093-.035-.126a2.772,2.772,0,0,1,2.631-.86" transform="translate(18.933 7.691)" fill="#fff"/>
        <path id="Path_11283" data-name="Path 11283" d="M55.47,22.863c.072.255-.091.4-.291.492a.529.529,0,0,1-.4-.292c-.055-.149.071-.221.13-.31a.338.338,0,0,1,.559.11" transform="translate(18.685 7.728)" fill="#fff"/>
        <path id="Path_11284" data-name="Path 11284" d="M29.742,22.871a.372.372,0,0,1-.093.384.364.364,0,0,1-.325.094c-.127-.019-.2-.168-.236-.276a.387.387,0,0,1,.236-.345c.145,0,.307-.023.417.144" transform="translate(9.924 7.753)" fill="#fff"/>
        <path id="Path_11285" data-name="Path 11285" d="M27.711,24.032v.126a1.406,1.406,0,0,1-1.18-.274,2.454,2.454,0,0,0-.96-.913c0-.055-.11-.129,0-.162.907,0,1.451.73,2.141,1.223" transform="translate(8.707 7.782)" fill="#fff"/>
        <path id="Path_11286" data-name="Path 11286" d="M60,22.827c-.417.62-.785,1.391-1.526,1.663-.129,0-.237.184-.342.054a3.328,3.328,0,0,1,1.613-1.733.591.591,0,0,1,.255.016" transform="translate(19.833 7.78)" fill="#fff"/>
        <path id="Path_11287" data-name="Path 11287" d="M30.509,23.037c.017.2-.127.239-.255.347-.145.016-.217-.091-.307-.2-.075-.184.09-.256.18-.349a.384.384,0,0,1,.382.2" transform="translate(10.211 7.788)" fill="#fff"/>
        <path id="Path_11288" data-name="Path 11288" d="M61.617,23.093c-.162.239-.091.586-.252.841-.366.42-.671.895-1.253.988-.089-.182.125-.366.219-.53a2.606,2.606,0,0,1,1.195-1.408Z" transform="translate(20.501 7.841)" fill="#fff"/>
        <path id="Path_11289" data-name="Path 11289" d="M23.111,23.223a.36.36,0,0,1,0,.4.429.429,0,0,1-.416.071.341.341,0,0,1-.146-.44c.109-.162.436-.255.562-.034" transform="translate(7.682 7.878)" fill="#fff"/>
        <path id="Path_11290" data-name="Path 11290" d="M22.348,23.4c.017.091.071.164.052.256a.415.415,0,0,1-.253.217.379.379,0,0,1-.417-.235.359.359,0,0,1,.182-.385.369.369,0,0,1,.436.146" transform="translate(7.413 7.923)" fill="#fff"/>
        <path id="Path_11291" data-name="Path 11291" d="M23.96,23.472c.038.148.074.4-.145.44-.252.109-.4-.075-.543-.221a.417.417,0,0,1,.217-.365.5.5,0,0,1,.471.146" transform="translate(7.94 7.956)" fill="#fff"/>
        <path id="Path_11292" data-name="Path 11292" d="M26.163,23.647c-.017.129.019.312-.127.347-.089.1-.251.055-.343.04-.036-.113-.235-.207-.126-.333a.681.681,0,0,1,.253-.2c.11.055.272,0,.343.144" transform="translate(8.711 8.018)" fill="#fff"/>
        <path id="Path_11293" data-name="Path 11293" d="M62.706,23.775c-.054.13-.127.294-.271.294-.162-.019-.327-.035-.416-.2-.075-.2.089-.31.237-.365.178,0,.416.072.449.272" transform="translate(21.153 8.018)" fill="#fff"/>
        <path id="Path_11294" data-name="Path 11294" d="M60.255,23.85c.016.146-.148.255-.221.308a.436.436,0,0,1-.563-.271.47.47,0,0,1,.311-.33.48.48,0,0,1,.473.292" transform="translate(20.289 8.036)" fill="#fff"/>
        <path id="Path_11295" data-name="Path 11295" d="M61.9,23.8a.369.369,0,0,1-.164.312.427.427,0,0,1-.433-.071c-.165-.149-.039-.275.074-.386.164-.09.469-.072.523.145" transform="translate(20.888 8.051)" fill="#fff"/>
        <path id="Path_11296" data-name="Path 11296" d="M22.767,24.028a.389.389,0,0,1-.219.46.422.422,0,0,1-.4-.256.341.341,0,0,1,.182-.385.418.418,0,0,1,.435.181" transform="translate(7.556 8.131)" fill="#fff"/>
        <path id="Path_11297" data-name="Path 11297" d="M59.552,24.181a.4.4,0,0,1-.253.476.374.374,0,0,1-.345-.13c-.074-.09-.161-.292-.017-.385a.356.356,0,0,1,.616.039" transform="translate(20.081 8.181)" fill="#fff"/>
        <path id="Path_11298" data-name="Path 11298" d="M30.047,24.342c.074.2-.145.237-.2.35-.074.034-.217.052-.272-.023-.091-.106-.2-.219-.148-.382.093-.071.129-.145.239-.184.2-.054.272.13.38.239" transform="translate(10.036 8.22)" fill="#fff"/>
        <path id="Path_11299" data-name="Path 11299" d="M62.458,24.439c.034.129-.074.181-.093.276a.492.492,0,0,1-.417.07c-.166-.091-.166-.237-.166-.4.113-.074.129-.162.257-.2a.416.416,0,0,1,.418.255" transform="translate(21.078 8.251)" fill="#fff"/>
        <path id="Path_11300" data-name="Path 11300" d="M61.864,24.483c.07.219-.129.327-.275.381-.074.02-.181-.034-.2.075a4.717,4.717,0,0,1,1.125.968v.148a2.464,2.464,0,0,1-1.8-.695c-.123-.093-.342-.093-.487-.22.236-.236.671-.148,1-.165.233-.255-.276-.439.036-.656.106-.02.181-.129.325-.091a.6.6,0,0,1,.275.255" transform="translate(20.548 8.263)" fill="#fff"/>
        <path id="Path_11301" data-name="Path 11301" d="M56.088,24.488c.035.091-.074.2-.091.29a.361.361,0,0,1-.4.074c-.09-.126-.236-.237-.18-.418a.378.378,0,0,1,.672.055" transform="translate(18.902 8.275)" fill="#fff"/>
        <path id="Path_11302" data-name="Path 11302" d="M25.828,24.982c-.054.166-.126.272-.307.294a.368.368,0,0,1-.327-.22c-.021-.129.072-.2.09-.3.2-.162.562-.055.545.221" transform="translate(8.594 8.421)" fill="#fff"/>
        <path id="Path_11303" data-name="Path 11303" d="M27.228,24.729c0,.252-.272.4-.365.657a1.854,1.854,0,0,1-1.451,1.207c-.072-.166.236-.367.31-.531a3.754,3.754,0,0,1,1.4-1.333Z" transform="translate(8.666 8.437)" fill="#fff"/>
        <path id="Path_11304" data-name="Path 11304" d="M55.784,24.985a.479.479,0,0,1-.311.422c-.162.054-.288-.072-.381-.144-.145-.149-.051-.3.019-.443.217-.22.526-.036.673.164" transform="translate(18.77 8.434)" fill="#fff"/>
        <path id="Path_11305" data-name="Path 11305" d="M56.617,25.072a.455.455,0,0,1-.329.4c-.034-.056-.126-.019-.182-.039a.393.393,0,0,1-.232-.327c.089-.091.125-.237.253-.255.161-.019.432,0,.49.219" transform="translate(19.063 8.477)" fill="#fff"/>
        <path id="Path_11306" data-name="Path 11306" d="M29.016,25.056a.392.392,0,0,1-.272.384.352.352,0,0,1-.343-.216c-.036-.168.126-.278.217-.367.216-.075.272.09.4.2" transform="translate(9.688 8.473)" fill="#fff"/>
        <path id="Path_11307" data-name="Path 11307" d="M29.963,25.124a.425.425,0,0,1-.345.31c-.127-.034-.272-.071-.327-.215-.017-.184.129-.279.255-.367a.382.382,0,0,1,.417.272" transform="translate(9.993 8.479)" fill="#fff"/>
        <path id="Path_11308" data-name="Path 11308" d="M59.724,26.387c.091.072.253.164.217.294-.288.129-.527-.2-.8-.256a3.736,3.736,0,0,1-.946-1.462c.164-.164.346.036.49.091a3.575,3.575,0,0,1,1.035,1.333" transform="translate(19.856 8.495)" fill="#fff"/>
        <path id="Path_11309" data-name="Path 11309" d="M60.018,25.092a.447.447,0,0,1-.034.4c-.1.184-.346.146-.51.111-.091-.111-.251-.258-.144-.418.052-.149.217-.184.343-.24.13-.019.219.091.343.145" transform="translate(20.23 8.51)" fill="#fff"/>
        <path id="Path_11310" data-name="Path 11310" d="M31.186,25.446c.017.145.054.363-.127.452a.35.35,0,0,1-.436-.215c-.089-.22.109-.258.219-.366.146-.039.236.034.345.129" transform="translate(10.44 8.634)" fill="#fff"/>
        <path id="Path_11311" data-name="Path 11311" d="M56.64,26.5a2.679,2.679,0,0,1,.475,1.3c-.056.126.09.256-.019.346h-.072a4.1,4.1,0,0,1-1.306-2.228.155.155,0,0,1-.075-.184c.186-.166.312.164.492.217Z" transform="translate(18.982 8.764)" fill="#fff"/>
        <path id="Path_11312" data-name="Path 11312" d="M33.447,25.872a.022.022,0,0,0,.017.038,2.407,2.407,0,0,1-2.574.326.134.134,0,0,1,.09-.162,3.776,3.776,0,0,1,1.6-.347Z" transform="translate(10.537 8.772)" fill="#fff"/>
        <path id="Path_11313" data-name="Path 11313" d="M30.311,25.938c-.617.384-1.179,1.133-1.942,1.313-.145.058-.236.259-.416.15a2.685,2.685,0,0,1,2.358-1.611Z" transform="translate(9.537 8.799)" fill="#fff"/>
        <path id="Path_11314" data-name="Path 11314" d="M55.755,26.561a.29.29,0,0,1-.148.384.254.254,0,0,1-.345,0c-.162-.074-.162-.237-.162-.366.055-.13.181-.148.275-.2.16.039.288.039.38.185" transform="translate(18.799 8.998)" fill="#fff"/>
        <path id="Path_11315" data-name="Path 11315" d="M55.071,26.6a1.027,1.027,0,0,1-.656.476,2.786,2.786,0,0,1-1.721-.22c.019-.144.2-.089.291-.181a3.952,3.952,0,0,1,1.847-.093.2.2,0,0,1,.239.017" transform="translate(17.978 9.044)" fill="#fff"/>
        <path id="Path_11316" data-name="Path 11316" d="M29.885,27.057c-.056.071-.071.235-.219.29a.382.382,0,0,1-.362-.072c-.036-.109-.164-.2-.072-.327.036-.129.181-.166.29-.2a.391.391,0,0,1,.363.312" transform="translate(9.962 9.124)" fill="#fff"/>
        <path id="Path_11317" data-name="Path 11317" d="M30.686,27.178c-.056.11-.11.276-.252.347a.4.4,0,0,1-.365-.126.437.437,0,0,1-.055-.366c.038-.093.162-.11.255-.165.181-.017.343.165.417.31" transform="translate(10.232 9.166)" fill="#fff"/>
        <path id="Path_11318" data-name="Path 11318" d="M55.53,27.306a.491.491,0,0,1-.129.35.3.3,0,0,1-.4.072c-.126-.017-.165-.166-.219-.256-.107-.149.071-.237.13-.366a.4.4,0,0,1,.614.2" transform="translate(18.68 9.22)" fill="#fff"/>
        <path id="Path_11319" data-name="Path 11319" d="M56.082,27.249c.017.089.071.181.034.255-.1.091-.178.327-.4.237-.113.038-.164-.109-.217-.146a.347.347,0,0,1,.217-.494c.166-.054.272.093.363.148" transform="translate(18.925 9.242)" fill="#fff"/>
        <path id="Path_11320" data-name="Path 11320" d="M30.2,27.666a.5.5,0,0,1-.184.492c-.2.038-.453.038-.526-.2a.488.488,0,0,1,.219-.528.443.443,0,0,1,.491.239" transform="translate(10.061 9.356)" fill="#fff"/>
        <path id="Path_11321" data-name="Path 11321" d="M31.18,27.549a1.676,1.676,0,0,1-.652,1.426c-.292.054-.582.329-.87.145v-.091a19.422,19.422,0,0,1,1.522-1.479" transform="translate(10.118 9.399)" fill="#fff"/>
        <path id="Path_11322" data-name="Path 11322" d="M53.378,27.929c.072.109-.058.2-.113.292-.1.126-.308.071-.435.017a.29.29,0,0,1-.091-.367.371.371,0,0,1,.24-.2c.161-.019.307.127.4.256" transform="translate(17.984 9.44)" fill="#fff"/>
        <path id="Path_11323" data-name="Path 11323" d="M32.377,28.747c.252.421.109.987.252,1.444-.307.035-.435-.312-.634-.495a5.676,5.676,0,0,1-.526-1.918.1.1,0,0,1,.127-.038,4.581,4.581,0,0,1,.689.767c-.036.129.11.129.091.239" transform="translate(10.736 9.461)" fill="#fff"/>
        <path id="Path_11324" data-name="Path 11324" d="M54.041,28.033c0,.148-.162.184-.252.275a.659.659,0,0,1-.349-.166c-.051-.184.091-.237.182-.327a.3.3,0,0,1,.418.219" transform="translate(18.228 9.481)" fill="#fff"/>
        <path id="Path_11325" data-name="Path 11325" d="M55.791,29.6c0,.055-.02.164-.11.129h-.074a2.174,2.174,0,0,1-.979-1.737l.11-.019A2.3,2.3,0,0,1,55.791,29.6" transform="translate(18.636 9.543)" fill="#fff"/>
        <path id="Path_11326" data-name="Path 11326" d="M54.659,28.819a.43.43,0,0,1-.164.346c-.2.054-.508.035-.545-.239-.016-.184.182-.274.274-.366a.374.374,0,0,1,.435.259" transform="translate(18.406 9.74)" fill="#fff"/>
        <path id="Path_11327" data-name="Path 11327" d="M53.96,29.131c-.251.677-.942,1.023-1.414,1.537-.089-.056-.054-.2-.034-.275a2.511,2.511,0,0,1,1.393-1.643c.292.034,0,.235.054.381" transform="translate(17.908 9.808)" fill="#fff"/>
        <path id="Path_11328" data-name="Path 11328" d="M54.769,29.5c0,.164-.165.237-.255.327a.529.529,0,0,1-.4-.2c-.017-.184.127-.239.233-.329a.375.375,0,0,1,.421.2" transform="translate(18.462 9.992)" fill="#fff"/>
        <path id="Path_11329" data-name="Path 11329" d="M46.018,4.708a.451.451,0,0,1,0,.9H40.637a.451.451,0,0,1,0-.9Zm-3.8.781c.526,0,.031-.638-.251-.638h-.527c-.526,0-.028.638.253.638Zm2.206,0c.526,0,.028-.638-.255-.638h-.526c-.524,0-.028.638.255.638Zm1.626-.638h-.2c-.524,0-.079.638.2.638.351,0,.374-.638,0-.638" transform="translate(13.711 1.606)" fill="#fff"/>
        <path id="Path_11330" data-name="Path 11330" d="M44.285,9.31l1.03.393,1.007-.393-.4,1.513.8-.166-.274.919.274.878-.709-.193.307,1.632L45.315,13.5l-1.03.393.42-1.632-.819.231.22-.916-.22-.881.785.129ZM45.8,12.039c.233,0,.253-.318.253-.593,0-.624-.491,0-.746-.589-.185.5-.692.038-.692.571,0,.365,0,.61.362.61Zm-1.006-.563c0,.239.319.08.558.08s.554.158.554-.08c0-.335-.318-.219-.554-.219s-.558-.117-.558.219" transform="translate(14.972 3.176)" fill="#fff"/>
        <path id="Path_11331" data-name="Path 11331" d="M42.434,11.147v-.193l-.172-.034.134-.138-.084-.157.177.017.106-.186.1.184.18-.015-.084.157.135.138-.173.034v.193l-.162-.126Z" transform="translate(14.419 3.567)" fill="#fff"/>
        <path id="Path_11332" data-name="Path 11332" d="M41.84,11.91v-.192l-.173-.034.135-.142-.086-.152.18.017L42,11.223l.1.184.177-.016-.083.152.135.142-.173.034v.192L42,11.788Z" transform="translate(14.216 3.829)" fill="#fff"/>
        <path id="Path_11333" data-name="Path 11333" d="M42.849,11.813v-.193l-.173-.03.135-.142-.083-.157.178.021.1-.186.1.184.181-.019-.084.157.134.142-.17.03v.193l-.164-.122Z" transform="translate(14.56 3.796)" fill="#fff"/>
        <path id="Path_11334" data-name="Path 11334" d="M42.946,12.31V12.2l-.1-.019.076-.079-.047-.086.1.009.059-.107.06.1.1-.007-.046.086.076.079-.1.019v.11l-.1-.071Z" transform="translate(14.619 4.066)" fill="#fff"/>
        <path id="Path_11335" data-name="Path 11335" d="M42.061,13.165v-.33l-.3-.055L42,12.538l-.144-.264.3.031.185-.319.178.315.306-.027-.144.264.231.241-.292.055v.33l-.279-.209Z" transform="translate(14.25 4.089)" fill="#fff"/>
        <path id="Path_11336" data-name="Path 11336" d="M43.181.013l.636,1.571,1.619-.476-.819,1.483,1.376.975-1.662.279.1,1.694L43.181,4.4,41.927,5.539l.1-1.694-1.662-.279,1.377-.975-.821-1.483,1.619.476Z" transform="translate(13.772 0.004)" fill="#fff"/>
        <path id="Path_11337" data-name="Path 11337" d="M38.731,26.306c-.193.071-.267.125-.22.325l.229.962a.875.875,0,0,1-.064.633,1.207,1.207,0,0,1-.659.392,1.332,1.332,0,0,1-.775-.016.567.567,0,0,1-.377-.488l-.24-1.009c-.059-.253-.153-.235-.358-.2l-.02-.076,1.218-.292.019.075c-.237.064-.349.1-.284.361l.239,1.01c.04.172.138.589.656.464a.587.587,0,0,0,.487-.81l-.219-.92c-.044-.186-.111-.276-.422-.217l-.017-.074.791-.189Z" transform="translate(12.366 8.949)" fill="#fff"/>
        <path id="Path_11338" data-name="Path 11338" d="M39.83,26.612A.777.777,0,0,0,39,26.207c-.189.044-.367.178-.323.376.036.162.119.213.452.276l.577.1a.647.647,0,0,1,.522.472c.059.264-.091.683-.758.832a3.055,3.055,0,0,1-.64.034c-.076.019-.082.079-.086.126l-.1.025-.164-.751.1-.021a.769.769,0,0,0,.884.484c.433-.1.384-.4.376-.44-.046-.2-.229-.24-.486-.28l-.263-.042c-.673-.111-.73-.372-.76-.51-.04-.188-.02-.625.665-.777a3,3,0,0,1,.586-.025c.084-.017.091-.07.1-.13l.109-.024.145.656Z" transform="translate(13.072 8.847)" fill="#fff"/>
        <path id="Path_11339" data-name="Path 11339" d="M41.727,27.872,40.413,28l-.007-.076c.266-.046.353-.059.33-.318l-.156-1.632c-.256.038-.634.094-.661.591l-.109.012-.046-.625,2.209-.211.068.621-.107.011c-.122-.488-.5-.468-.758-.455l.154,1.628c.027.264.117.262.389.251Z" transform="translate(13.567 8.781)" fill="#fff"/>
        <path id="Path_11340" data-name="Path 11340" d="M44.17,27.877l-.759-.016-.746-.984-.1,0-.013.612c-.005.249.076.258.319.291v.076l-1.249-.025v-.076c.253-.019.326-.028.331-.279l.027-1.373c.005-.266-.109-.274-.319-.292v-.076l1.191.021c.26,0,1.042.046,1.03.569-.007.382-.388.471-.587.52l.726.9a.194.194,0,0,0,.15.062Zm-1.6-1.1c.486.008.677-.058.687-.46a.391.391,0,0,0-.437-.459c-.207,0-.213.032-.235.129Z" transform="translate(14.201 8.777)" fill="#fff"/>
        <path id="Path_11341" data-name="Path 11341" d="M45.967,28.143,44.78,28l.007-.076c.231.011.3.017.308-.086a1.481,1.481,0,0,0-.117-.431l-.828-.1a1.951,1.951,0,0,0-.211.377c-.015.118.161.148.286.17l-.007.076-.748-.1.012-.075c.2,0,.263-.1.4-.314l1.026-1.588.1.012.618,1.725c.122.349.169.461.345.477Zm-1.03-.865-.275-.794-.44.7Z" transform="translate(14.831 8.82)" fill="#fff"/>
        <path id="Path_11342" data-name="Path 11342" d="M47.474,28.515l-2.106-.388.017-.079c.207.019.315.028.353-.16L46,26.414c.038-.2-.113-.237-.272-.275l.013-.078,1.27.235L47,26.371c-.258-.038-.37-.054-.42.213l-.26,1.446c-.025.144.05.185.3.229a.913.913,0,0,0,1.03-.431l.1.019Z" transform="translate(15.478 8.891)" fill="#fff"/>
        <path id="Path_11343" data-name="Path 11343" d="M48.3,28.714l-1.267-.267.017-.076c.2.027.341.043.378-.146l.3-1.467c.04-.2-.126-.243-.294-.288l.02-.075,1.267.263-.015.076c-.174-.028-.349-.063-.392.146l-.3,1.471c-.04.193.1.233.3.283Z" transform="translate(16.047 9.005)" fill="#fff"/>
        <path id="Path_11344" data-name="Path 11344" d="M50.535,28.945l-1.194-.122.005-.076c.232.007.3.009.31-.094a1.761,1.761,0,0,0-.127-.428l-.829-.083a1.737,1.737,0,0,0-.2.38c-.012.117.161.148.287.164l-.007.079-.748-.079.008-.075c.2,0,.264-.1.4-.326l.988-1.608.106.012.656,1.71c.129.349.178.459.357.471ZM49.486,28.1l-.294-.79-.425.715Z" transform="translate(16.387 9.101)" fill="#fff"/>
        <path id="Path_11345" data-name="Path 11345" d="M43.182,9.856c0-.746-.421-.047-.652-.681-.168.538-.672.083-.672.663a.458.458,0,0,0,.162.418v.219a.106.106,0,0,0,.1.106h.794a.1.1,0,0,0,.1-.106v-.239a.48.48,0,0,0,.162-.38M42.534,10c-.217,0-.511.148-.511-.109,0-.365.248-.286.465-.286s.557-.079.557.286c0,.256-.294.109-.511.109" transform="translate(14.281 3.13)" fill="#fff"/>
        <path id="Path_11346" data-name="Path 11346" d="M47.772,16.664a.3.3,0,1,0-.343-.3.326.326,0,0,0,.343.3" transform="translate(16.181 5.48)" fill="#fff"/>
        <path id="Path_11347" data-name="Path 11347" d="M46.526,8.272a1.747,1.747,0,0,0-.16.322.169.169,0,0,0,.162.176.17.17,0,0,0,.162-.176c0-.008-.165-.322-.165-.322" transform="translate(15.819 2.822)" fill="#fff"/>
        <path id="Path_11348" data-name="Path 11348" d="M38.355,8.272a1.742,1.742,0,0,0-.161.322.164.164,0,1,0,.327,0c0-.008-.166-.322-.166-.322" transform="translate(13.031 2.822)" fill="#fff"/>
        <path id="Path_11349" data-name="Path 11349" d="M40.4,8.272a1.747,1.747,0,0,0-.16.322.163.163,0,1,0,.326,0c0-.008-.166-.322-.166-.322" transform="translate(13.728 2.822)" fill="#fff"/>
        <path id="Path_11350" data-name="Path 11350" d="M42.441,8.272a1.747,1.747,0,0,0-.16.322.162.162,0,1,0,.323,0c0-.008-.164-.322-.164-.322" transform="translate(14.425 2.822)" fill="#fff"/>
        <path id="Path_11351" data-name="Path 11351" d="M44.483,8.272a1.747,1.747,0,0,0-.16.322.163.163,0,1,0,.326,0c0-.008-.166-.322-.166-.322" transform="translate(15.122 2.822)" fill="#fff"/>
        <path id="Path_11352" data-name="Path 11352" d="M38.36,11.077a1.875,1.875,0,0,1,.161.318.164.164,0,1,1-.326,0l.165-.318" transform="translate(13.031 3.779)" fill="#fff"/>
        <path id="Path_11353" data-name="Path 11353" d="M38.36,13.8a1.875,1.875,0,0,1,.161.318.164.164,0,1,1-.326,0l.165-.318" transform="translate(13.031 4.708)" fill="#fff"/>
        <path id="Path_11354" data-name="Path 11354" d="M38.687,15.959a1.814,1.814,0,0,1,.161.321.164.164,0,1,1-.326,0c0-.007.165-.321.165-.321" transform="translate(13.143 5.444)" fill="#fff"/>
        <path id="Path_11355" data-name="Path 11355" d="M40.4,17.1a1.914,1.914,0,0,1,.161.321.163.163,0,1,1-.325,0L40.4,17.1" transform="translate(13.727 5.835)" fill="#fff"/>
        <path id="Path_11356" data-name="Path 11356" d="M46.63,11.077a1.87,1.87,0,0,0-.162.318.163.163,0,1,0,.325,0l-.162-.318" transform="translate(15.854 3.779)" fill="#fff"/>
        <path id="Path_11357" data-name="Path 11357" d="M46.63,13.8a1.87,1.87,0,0,0-.162.318.163.163,0,1,0,.325,0L46.63,13.8" transform="translate(15.854 4.708)" fill="#fff"/>
        <path id="Path_11358" data-name="Path 11358" d="M46.3,15.959a1.82,1.82,0,0,0-.16.321.175.175,0,0,0,.165.18.172.172,0,0,0,.161-.18c0-.007-.166-.321-.166-.321" transform="translate(15.742 5.444)" fill="#fff"/>
        <path id="Path_11359" data-name="Path 11359" d="M44.59,17.1a1.914,1.914,0,0,0-.161.321.172.172,0,0,0,.162.181.174.174,0,0,0,.164-.181L44.59,17.1" transform="translate(15.158 5.835)" fill="#fff"/>
        <path id="Path_11360" data-name="Path 11360" d="M42.5,18.319a1.914,1.914,0,0,0-.161.321.164.164,0,1,0,.326,0c0-.007-.165-.321-.165-.321" transform="translate(14.446 6.25)" fill="#fff"/>
        <path id="Path_11361" data-name="Path 11361" d="M46.457,14.392c.032.051.122.067.227.032l.1-.3c.012-.021-.118-.139-.19-.118-.3.068-.608.1-.781.381a.574.574,0,0,0,.278.451c.1-.034.119.071.189.121a.122.122,0,0,1-.119.157c-.209-.207-.569.07-.724-.19.064-.259.207-.555-.019-.8.019-.052.107-.1.054-.157-.089-.243-.347-.052-.5-.052a.671.671,0,0,0-.622.311.515.515,0,0,0,.137.263c.074-.017.106,0,.122.07l-.173.1a.38.38,0,0,1,.07.189c-.121.054-.243-.121-.294-.208,0-.139.017-.382-.174-.418a.727.727,0,0,0-.146.052.5.5,0,0,0-.07.287,1.161,1.161,0,0,0,.07.311,2.837,2.837,0,0,1,.649.637c-.156.311-.156.746-.519.921-.1.064-.1.169-.1.276l.087.068c.224-.125.654-.154.62-.536a1.376,1.376,0,0,1,.333-.452.357.357,0,0,1,.393.189.671.671,0,0,1-.467.519c-.035.038-.016.089-.016.141.07.121.258.071.362.052.3-.193.414-.539.672-.641.034.172-.346.225-.1.4.156-.035.365.016.467-.19-.119-.3.416-.435.086-.7,0-.26.275-.365.256-.641-.1-.278-.426-.278-.514-.538a.381.381,0,0,1,.362,0" transform="translate(14.952 4.726)" fill="#fff"/>
        <path id="Path_11362" data-name="Path 11362" d="M36.487,16.762a.3.3,0,1,0-.342-.3.324.324,0,0,0,.342.3" transform="translate(12.332 5.513)" fill="#fff"/>
        <path id="Path_11363" data-name="Path 11363" d="M23.236,24.513a.323.323,0,1,0-.335-.322.331.331,0,0,0,.335.322" transform="translate(7.813 8.143)" fill="#fff"/>
        <path id="Path_11364" data-name="Path 11364" d="M31.6,26.244H31.58l-.021-.027h0v.017c0,.008,0,.008.009.009h-.038c.008,0,.011,0,.011-.009v-.04c0-.009,0-.009-.011-.009v0h.035c.008,0,.031,0,.031.016a.016.016,0,0,1-.016.016l.02.028H31.6Zm-.047-.03c.013,0,.019,0,.019-.016s0-.013-.012-.013l-.007.005Z" transform="translate(10.756 8.932)" fill="#fff"/>
        <path id="Path_11365" data-name="Path 11365" d="M31.631,26.2a.023.023,0,0,0-.021-.017.01.01,0,0,0-.011.009s0,.007.011.009l.016.008s.013.008.013.019-.008.017-.03.017l-.016,0,0,0h0v-.021h0a.023.023,0,0,0,.021.019c.013,0,.015-.009.015-.011l-.012-.008-.007,0c-.019-.007-.019-.019-.019-.021s0-.016.021-.016h.025V26.2Z" transform="translate(10.776 8.933)" fill="#fff"/>
        <path id="Path_11366" data-name="Path 11366" d="M31.73,26.185l-.008.005-.021.056h0l-.017-.044-.021.044h0l-.024-.056-.007-.005v0h.032v0l-.008,0h0l.013.036h0l.012-.03,0-.008-.008,0v0H31.7v0l-.007,0v.005l.012.03.012-.031v0c0-.005,0-.005-.007-.005v0h.019Z" transform="translate(10.79 8.932)" fill="#fff"/>
        <path id="Path_11367" data-name="Path 11367" d="M31.7,26.244a.032.032,0,0,0,.031-.023h-.011a.019.019,0,0,1-.02-.02.023.023,0,0,1,.025-.02c.008,0,.023,0,.023.028s-.015.034-.048.036Zm.025-.025h.005v-.008c0-.019,0-.027-.008-.027s-.008.008-.008.015,0,.021.009.021" transform="translate(10.817 8.932)" fill="#fff"/>
        <path id="Path_11368" data-name="Path 11368" d="M31.756,26.2a.063.063,0,0,1,.023.005.02.02,0,0,1,.012.019c0,.012-.012.019-.032.019s-.015,0-.015-.005l.005-.008c.007,0,.015.009.02.009s.015,0,.015-.009l-.015-.012-.023,0,.009-.031h.035l0,.012h-.031Z" transform="translate(10.83 8.933)" fill="#fff"/>
        <path id="Path_11369" data-name="Path 11369" d="M50.381,7.947v0H37.737v0h0l.011,9.664a2.322,2.322,0,0,0,1,2.115L43.6,22.811a.6.6,0,0,0,.447.2.585.585,0,0,0,.393-.156l4.936-3.13a2.321,2.321,0,0,0,.994-2.115l.013-9.664Zm-.358,9.795a2.178,2.178,0,0,1-.821,1.685l-4.764,3.03H44.41a.595.595,0,0,1-.739-.005l-4.758-3.024a2.179,2.179,0,0,1-.822-1.685V8.289H50.023Z" transform="translate(12.874 2.71)" fill="#fff"/>
        <path id="Path_11370" data-name="Path 11370" d="M43.718,18.466l.154-.074a.981.981,0,0,0-.154.074" transform="translate(14.915 6.275)" fill="#fff"/>
        <path id="Path_11371" data-name="Path 11371" d="M37.246,28.8l-1.192.134-.008-.072c.227-.046.292-.055.28-.158a1.561,1.561,0,0,0-.216-.389l-.828.1a1.791,1.791,0,0,0-.115.418c.013.117.19.1.315.1l.009.076-.746.087-.008-.076c.194-.05.233-.16.318-.405l.621-1.784.1-.009,1.006,1.525c.2.31.274.41.451.382Zm-1.206-.6-.456-.707-.26.787Z" transform="translate(11.852 9.149)" fill="#fff"/>
        <path id="Path_11372" data-name="Path 11372" d="M59.341,25.219A1.9,1.9,0,0,0,58.11,24.09a1.588,1.588,0,0,0-1.58.4c-.65.528-.2,1.408-.18,2.119,0,.146.016.255-.13.327-2.631-.239-5.078-.892-7.689-1.167-.6-.106-1.2-.076-1.776-.2l-.73-.075a30.606,30.606,0,0,0-6.66.746c-.452.145-.96.184-1.412.349-.327-.056-.6.184-.908.09l-.6.137a.415.415,0,0,1-.2-.009c-.288-.75.581-1.206.308-1.937a1.338,1.338,0,0,0-1.251-.75,1.528,1.528,0,0,0-1.452.75c-.417.913.109,1.866.274,2.761-.038.291.291.621,0,.857a2.493,2.493,0,0,0-2.051-.42c-.217.11-.617-.038-.726.221A5.236,5.236,0,0,0,34,28.622c.109-.039.181-.056.272.016.072.475-.091,1.116.2,1.537a1.858,1.858,0,0,0,1.4.6,21.525,21.525,0,0,0,4.682-.932c.235-.015.416-.145.671-.145a13.321,13.321,0,0,1,2.576-.347A4.536,4.536,0,0,0,43.031,31c-.217.492.382.567.562.84a14.279,14.279,0,0,0-1.486.771,20.225,20.225,0,0,0-3.231.528c-.017.236.381.165.418.4-.055.165-.217.184-.345.275-.017.11,0,.127.109.148.109-.129.345-.038.455-.166.362,0,.671-.109,1.014-.126a3.449,3.449,0,0,0,.925-.365c.381-.111.618-.366,1-.479.543,0,1.034-.181,1.542-.215v.106c-.418.676-.853,1.373-1.289,2.01a.2.2,0,0,0,.127.292.952.952,0,0,0,.707-.109c.382-.657.726-1.281,1.035-1.955a2.651,2.651,0,0,1,1.033-1.371c.074-.038.182-.148.255-.038a8.375,8.375,0,0,0-.87,1.278,1.539,1.539,0,0,0,.272,1.591c.216.184.545.127.834.148.708-.365,1.613.219,2.159-.473.326-.058.382.326.562.51.308.093.634.4.942.182-.017-.2-.233-.382-.343-.569-.217-.381-.492-.691-.689-1.038a3.637,3.637,0,0,1-.29-.677,5.738,5.738,0,0,0,.979.385,6.06,6.06,0,0,1,.982.292,3.313,3.313,0,0,0,.9.693c.455.221.964.255,1.434.436.182.021.456.168.582,0a.791.791,0,0,0-.27-.2c-.058-.236.323-.109.451-.291a.257.257,0,0,0-.211-.139c-.258-.138-.907-.186-1.077-.282a4.638,4.638,0,0,1-.637-.2c-1.088,0-1.685-.986-2.556-1.353.2-.181.51-.33.637-.6a1.024,1.024,0,0,0,.054-.967c-.165-.567-.889-.5-1.3-.8l.052-.055a7.488,7.488,0,0,1,1.958.255c1.744.237,3.358.9,5.174.932.992,0,2.246.054,2.737-.912.091-.569.2-1.135.291-1.7.219-.916.817-1.756.724-2.763M39.749,33.554l-.255-.237c.127-.164.4-.074.6-.182a3.128,3.128,0,0,1,1.541-.219,4.39,4.39,0,0,1-1.886.638m11.326-.292a7.813,7.813,0,0,0,1.935.46c-.062.247-.5.015-.448.365a4.32,4.32,0,0,1-1.635-.77c.039-.017.074-.074.148-.055M34.05,25.5a1.319,1.319,0,0,1,.436-.915,1.526,1.526,0,0,1,1.435.055.706.706,0,0,1,.288.343.818.818,0,0,1-.271.825h-.182a2.027,2.027,0,0,1,.109-.825c-.017-.217-.2-.236-.345-.327a1.079,1.079,0,0,0-.817.181.831.831,0,0,0-.235.806c.126.2.017.476.09.692l-.055.076c-.216-.239-.507-.494-.453-.912m.853.519c.272.2.653.111.98.166a.678.678,0,0,1-.091.62c-.308-.072-.708-.035-.87-.33.036-.125-.055-.307-.019-.456m-.055-.614c.055-.144,0-.365.2-.4.126-.035.326-.035.345.111a3.79,3.79,0,0,1-.091.64.423.423,0,0,1-.455-.35m8.508,5.868a1.989,1.989,0,0,1,.582-1.646,1.059,1.059,0,0,1,.781.036c-.472.126-1.072.237-1.18.841.019.237-.054.366.054.567.2.347.654.2.908.473a.234.234,0,0,1-.162.22,7.3,7.3,0,0,1-.982-.492m-.652,1.261c.436-.182.888-.569,1.379-.4a2.525,2.525,0,0,1-1.379.4m1.723.181a13.746,13.746,0,0,1-.889,1.718c-.035.091-.182.109-.288.129,0-.259.253-.459.361-.677.382-.494.491-1.021.927-1.5.107.109-.11.184-.11.327m.453-1.058v.072h-.036v-.09h.074a.116.116,0,0,0-.074.017Zm-.162-.494a4.255,4.255,0,0,1-.872-.22c-.181-.184,0-.382,0-.582a.926.926,0,0,1,1.325-.239,1.948,1.948,0,0,1-.453,1.041m.4,0a3.079,3.079,0,0,1,.291-.768,1.545,1.545,0,0,1-.291.768m.2-1.479c-.236-.056-.363-.33-.617-.33a1.432,1.432,0,0,1,.689-.017c.09.127-.054.236-.072.347m.219.547h-.017v-.2h.017Zm.016.841c-.016-.074.039-.164.055-.255.09-.091.182.071.22.126a.27.27,0,0,1-.275.129m.275-1.133a1.987,1.987,0,0,1,.271-.676,1.056,1.056,0,0,1,.49.074c.036.365.49.858,0,1.168-.164.074-.4.237-.579.074a.505.505,0,0,1-.181-.64m1.322-.514c-.035-.162.164-.036.233-.109l.565.038c-.291-.038-.654.641-.8.071m.907.239c-.216.074-.381.331-.6.384a.736.736,0,0,1,.6-.384m-.763,1.19h-.017V30.8h.017Zm.038,1.06c-.017.036.019.091-.038.125l-.416-.326a.435.435,0,0,1,.453.2m-.49-.566a.133.133,0,0,1,.164,0Zm-.253-.275c.072-.11.164-.275.29-.275,0,.02.017.036.035.056a.914.914,0,0,1-.325.219m-.417-.036H46.1l.109-.11c.052.036-.017.072-.036.11m.056.693c.232-.255.451.145.543.349.272.4.976.766.707,1.313-.345.311-.889.021-1.27.259-.2-.021-.545.035-.654-.166a10.5,10.5,0,0,1,.675-1.754m-.511.349.093-.149a7.809,7.809,0,0,1-.6,1.317c-.11-.439.343-.786.507-1.168m.8,2.174c-.346.017-.873.219-1.2-.075.019-.146-.145-.217-.127-.365.29-.11.545.236.818-.019a7.417,7.417,0,0,1,1.267.038c.2.054.508-.33.545.054-.145.6-.869.184-1.3.367m1.05-2.686H47.6v.054h-.038Zm.109,1.2c.017.185.2.256.09.422a.579.579,0,0,1-.09-.422m.508,1.1-.091.038c-.093-.074-.056-.276-.036-.384.11.091.2.219.127.346m.908.436c-.02.055-.11.055-.145.021A10,10,0,0,1,47.8,32.13l.074-.02c.435.711.782,1.5,1.216,2.19m.669-1.679a.076.076,0,0,0-.035.074,2.1,2.1,0,0,1-1.27-.565l-.017-.1a3.52,3.52,0,0,1,1.322.586m-.472-2.429c.219.054.239.292.255.475a1.08,1.08,0,0,1-1.324.97,1.158,1.158,0,0,0,1.088-.622Zm-.4-.072a1.24,1.24,0,0,1,.162.8c-.184.347-.547.347-.872.421a.6.6,0,0,1-.418-.127.188.188,0,0,0-.072-.184c.054-.239-.417-.475-.089-.675.29-.276.979-.9,1.289-.239m9.217-1.336c-.148.182-.021.476-.2.638,0,.331-.27.494-.507.622-2.157.476-4.281-.258-6.367-.622a22.257,22.257,0,0,0-9.308-.145c-1.4.255-2.757.585-4.1.968a5.9,5.9,0,0,1-2.542-.017c-.653-.312-.381-1.149-.581-1.737a9.766,9.766,0,0,0-.144-1.262,1.072,1.072,0,0,1-.072-.473c.271.035.543.237.834.31a11.3,11.3,0,0,0,4.3-.456,31.312,31.312,0,0,1,4.19-.64,26.945,26.945,0,0,1,4.862.164c.508.02.944.148,1.432.184,1.019.129,1.962.4,3,.473a4.72,4.72,0,0,0,.543.094c1.631.256,3.464.711,5.025,0a14.031,14.031,0,0,1-.362,1.9M57.6,26.555c.017.292-.255.221-.4.33h-.435a1.026,1.026,0,0,1-.054-.514,3.746,3.746,0,0,1,.888.184m-.2-.455c.2-.2-.056-1.355.507-.6,0,.144.019.363-.125.472-.094.075-.237.219-.382.13m1.47-.184a1.043,1.043,0,0,1-.782.62c.021-.436.42-.75.271-1.242a1.088,1.088,0,0,0-1.14-.367c-.166.111-.093.292-.145.459l-.072.6c-.362,0-.381-.329-.492-.586a1.062,1.062,0,0,1,.565-.948,1.229,1.229,0,0,1,1.049.036.823.823,0,0,1,.6.382c.271.258.2.715.145,1.043" transform="translate(10.695 8.2)" fill="#fff"/>
        <rect id="Rectangle_6443" data-name="Rectangle 6443" width="0.852" height="57.245" transform="translate(125.551)" fill="#fff"/>
      </g>
    </g>
  </svg>
  