<svg xmlns="http://www.w3.org/2000/svg" width="194" height="96.225" viewBox="0 0 194 96.225"><g transform="translate(-180 -1236)"><rect width="194" height="93" transform="translate(180 1236)" fill="#fff"/><g transform="translate(-1381 -108)"><g transform="translate(1428)"><rect width="100" height="57" rx="4" transform="translate(179 1344)" fill="#ffe491"/><path d="M16.859,0,15.2-5.437H6.875L5.219,0H0L8.063-22.937h5.922L22.078,0ZM14.047-9.5q-2.3-7.391-2.586-8.359t-.414-1.531q-.516,2-2.953,9.891ZM24.953-22.844h7.109q4.859,0,7.055,1.383a4.814,4.814,0,0,1,2.2,4.4,5.542,5.542,0,0,1-.961,3.359A3.839,3.839,0,0,1,37.8-12.125v.156a5.033,5.033,0,0,1,3.133,1.813,5.9,5.9,0,0,1,.961,3.531A5.819,5.819,0,0,1,39.633-1.75,9.765,9.765,0,0,1,33.5,0H24.953ZM29.8-13.8h2.813a5.142,5.142,0,0,0,2.852-.609,2.273,2.273,0,0,0,.883-2.016,2.017,2.017,0,0,0-.961-1.883,6.176,6.176,0,0,0-3.039-.57H29.8Zm0,3.844V-4h3.156a4.682,4.682,0,0,0,2.953-.766,2.826,2.826,0,0,0,.953-2.344q0-2.844-4.062-2.844ZM66.719,0H60.563L50.625-17.281h-.141q.3,4.578.3,6.531V0H46.453V-22.844h6.109L62.484-5.734h.109q-.234-4.453-.234-6.3V-22.844h4.359Z" transform="translate(194 1385)" fill="#2e3e5a"/></g><path d="M8.76,0H6.121V-10.6q0-1.9.09-3.01-.258.27-.635.6T3.055-10.95L1.729-12.623l4.829-3.8h2.2ZM22.348,0H19.709V-10.6q0-1.9.09-3.01-.258.27-.635.6T16.643-10.95l-1.325-1.673,4.829-3.8h2.2ZM35.937,0H33.3V-10.6q0-1.9.09-3.01-.258.27-.635.6T30.232-10.95l-1.325-1.673,4.829-3.8h2.2ZM52.905,0H41.776V-2L46.01-6.255A36.013,36.013,0,0,0,48.5-8.979a6.5,6.5,0,0,0,.893-1.51,4.073,4.073,0,0,0,.281-1.516A2.312,2.312,0,0,0,49-13.757a2.561,2.561,0,0,0-1.847-.64,4.926,4.926,0,0,0-1.825.348,8.542,8.542,0,0,0-2.038,1.258l-1.426-1.741a9.2,9.2,0,0,1,2.662-1.64,7.792,7.792,0,0,1,2.751-.483,5.413,5.413,0,0,1,3.672,1.2,4.04,4.04,0,0,1,1.381,3.218,5.646,5.646,0,0,1-.4,2.111A8.581,8.581,0,0,1,50.71-8.069,27.975,27.975,0,0,1,47.964-5.2L45.111-2.437v.112h7.794ZM66.494,0H55.364V-2L59.6-6.255a36.013,36.013,0,0,0,2.488-2.723,6.5,6.5,0,0,0,.893-1.51,4.073,4.073,0,0,0,.281-1.516,2.312,2.312,0,0,0-.668-1.752,2.561,2.561,0,0,0-1.847-.64,4.926,4.926,0,0,0-1.825.348,8.542,8.542,0,0,0-2.038,1.258l-1.426-1.741a9.2,9.2,0,0,1,2.662-1.64,7.792,7.792,0,0,1,2.751-.483,5.413,5.413,0,0,1,3.672,1.2,4.04,4.04,0,0,1,1.381,3.218,5.646,5.646,0,0,1-.4,2.111A8.581,8.581,0,0,1,64.3-8.069,27.974,27.974,0,0,1,61.552-5.2L58.7-2.437v.112h7.794ZM80.082,0H68.953V-2l4.234-4.256a36.013,36.013,0,0,0,2.488-2.723,6.5,6.5,0,0,0,.893-1.51,4.073,4.073,0,0,0,.281-1.516,2.312,2.312,0,0,0-.668-1.752,2.561,2.561,0,0,0-1.847-.64,4.926,4.926,0,0,0-1.825.348,8.542,8.542,0,0,0-2.038,1.258l-1.426-1.741a9.2,9.2,0,0,1,2.662-1.64,7.792,7.792,0,0,1,2.751-.483,5.413,5.413,0,0,1,3.672,1.2,4.04,4.04,0,0,1,1.381,3.218,5.646,5.646,0,0,1-.4,2.111,8.581,8.581,0,0,1-1.224,2.061A27.975,27.975,0,0,1,75.141-5.2L72.288-2.437v.112h7.794ZM93.053-12.646a3.8,3.8,0,0,1-.91,2.6,4.578,4.578,0,0,1-2.561,1.4v.09a4.956,4.956,0,0,1,2.965,1.23,3.518,3.518,0,0,1,.988,2.611,4.339,4.339,0,0,1-1.673,3.656A7.677,7.677,0,0,1,87.1.225a10.722,10.722,0,0,1-4.6-.887V-3.01a10.516,10.516,0,0,0,2.212.8,9.605,9.605,0,0,0,2.246.281,4.737,4.737,0,0,0,2.853-.708,2.559,2.559,0,0,0,.943-2.19,2.084,2.084,0,0,0-1.044-1.932,6.67,6.67,0,0,0-3.279-.618H85V-9.523h1.449q3.931,0,3.931-2.718A2,2,0,0,0,89.7-13.87a3.085,3.085,0,0,0-2.021-.573,6.121,6.121,0,0,0-1.8.264,8.507,8.507,0,0,0-2.044,1.028l-1.292-1.842a8.608,8.608,0,0,1,5.245-1.662,6.239,6.239,0,0,1,3.875,1.067A3.5,3.5,0,0,1,93.053-12.646Zm13.588,0a3.8,3.8,0,0,1-.91,2.6,4.578,4.578,0,0,1-2.561,1.4v.09a4.956,4.956,0,0,1,2.965,1.23,3.518,3.518,0,0,1,.988,2.611,4.339,4.339,0,0,1-1.673,3.656A7.677,7.677,0,0,1,100.689.225a10.722,10.722,0,0,1-4.6-.887V-3.01a10.516,10.516,0,0,0,2.212.8,9.605,9.605,0,0,0,2.246.281,4.737,4.737,0,0,0,2.853-.708,2.559,2.559,0,0,0,.943-2.19,2.084,2.084,0,0,0-1.044-1.932,6.67,6.67,0,0,0-3.279-.618H98.589V-9.523h1.449q3.931,0,3.931-2.718a2,2,0,0,0-.685-1.628,3.085,3.085,0,0,0-2.021-.573,6.121,6.121,0,0,0-1.8.264,8.507,8.507,0,0,0-2.044,1.028L96.13-14.993a8.608,8.608,0,0,1,5.245-1.662,6.239,6.239,0,0,1,3.875,1.067A3.5,3.5,0,0,1,106.641-12.646Zm13.588,0a3.8,3.8,0,0,1-.91,2.6,4.578,4.578,0,0,1-2.561,1.4v.09a4.956,4.956,0,0,1,2.965,1.23,3.518,3.518,0,0,1,.988,2.611,4.339,4.339,0,0,1-1.673,3.656A7.677,7.677,0,0,1,114.278.225a10.722,10.722,0,0,1-4.6-.887V-3.01a10.516,10.516,0,0,0,2.212.8,9.605,9.605,0,0,0,2.246.281,4.737,4.737,0,0,0,2.853-.708,2.559,2.559,0,0,0,.943-2.19,2.084,2.084,0,0,0-1.044-1.932,6.67,6.67,0,0,0-3.279-.618h-1.426V-9.523h1.449q3.931,0,3.931-2.718a2,2,0,0,0-.685-1.628,3.085,3.085,0,0,0-2.021-.573,6.121,6.121,0,0,0-1.8.264,8.507,8.507,0,0,0-2.044,1.028l-1.292-1.842a8.608,8.608,0,0,1,5.245-1.662,6.239,6.239,0,0,1,3.875,1.067A3.5,3.5,0,0,1,120.23-12.646Zm14.79,9.063h-2.212V0h-2.572V-3.583h-7.5V-5.615l7.5-10.849h2.572V-5.772h2.212Zm-4.784-2.19V-9.894q0-2.2.112-3.6h-.09a12.74,12.74,0,0,1-.988,1.8l-4.077,5.93Zm18.373,2.19H146.4V0h-2.572V-3.583h-7.5V-5.615l7.5-10.849H146.4V-5.772h2.212Zm-4.784-2.19V-9.894q0-2.2.112-3.6h-.09a12.74,12.74,0,0,1-.988,1.8l-4.077,5.93Z" transform="translate(1583 1440)" fill="#2e3e5a"/></g></g></svg>