<svg xmlns="http://www.w3.org/2000/svg" width="184" height="126" viewBox="0 0 184 126"><g transform="translate(-215 -683)"><rect width="184" height="123" transform="translate(215 686)" fill="#fff"/><g transform="translate(70 -1755.201)"><path d="M13.025,0H2.336V-18.561H13.025v3.225H6.271v4.075h6.284v3.225H6.271V-3.25h6.754ZM25.606,0l-.749-1.93h-.1A5.719,5.719,0,0,1,22.744-.222a6.5,6.5,0,0,1-2.7.476A4.362,4.362,0,0,1,16.828-.914,4.485,4.485,0,0,1,15.653-4.24a3.745,3.745,0,0,1,1.581-3.333A9.159,9.159,0,0,1,22-8.76l2.463-.076v-.622a1.93,1.93,0,0,0-2.209-2.158,10.066,10.066,0,0,0-4,1.028L16.974-13.2a11.539,11.539,0,0,1,5.434-1.282,6.768,6.768,0,0,1,4.38,1.244,4.6,4.6,0,0,1,1.523,3.783V0ZM24.464-6.576l-1.5.051a4.8,4.8,0,0,0-2.514.609,1.914,1.914,0,0,0-.825,1.7q0,1.638,1.879,1.638a2.976,2.976,0,0,0,2.152-.774,2.72,2.72,0,0,0,.806-2.057ZM42.2-4.215A3.908,3.908,0,0,1,40.682-.889,7.5,7.5,0,0,1,36.144.254,14.255,14.255,0,0,1,33.5.044a9.988,9.988,0,0,1-2.044-.616v-3.2a13.5,13.5,0,0,0,2.431.851,9.844,9.844,0,0,0,2.38.343q2.107,0,2.107-1.219a1.017,1.017,0,0,0-.279-.743,4.049,4.049,0,0,0-.965-.647q-.686-.362-1.828-.844A11.484,11.484,0,0,1,32.9-7.3a3.574,3.574,0,0,1-1.117-1.339,4.421,4.421,0,0,1-.349-1.86A3.372,3.372,0,0,1,32.9-13.425a7.143,7.143,0,0,1,4.158-1.035,11.8,11.8,0,0,1,4.989,1.117L40.879-10.55q-1.066-.457-1.993-.749a6.259,6.259,0,0,0-1.892-.292q-1.714,0-1.714.927a1.09,1.09,0,0,0,.552.9,15.018,15.018,0,0,0,2.418,1.13,11.235,11.235,0,0,1,2.438,1.257A3.717,3.717,0,0,1,41.831-6.03,4.135,4.135,0,0,1,42.2-4.215Zm.99-9.979h4.24l2.679,7.985a11.08,11.08,0,0,1,.47,2.463h.076A10.884,10.884,0,0,1,51.2-6.208l2.628-7.985h4.151l-6,16.009A6.931,6.931,0,0,1,49.62,5.142a5.944,5.944,0,0,1-3.574,1.1,8.987,8.987,0,0,1-1.968-.216V2.958a6.619,6.619,0,0,0,1.523.165,2.751,2.751,0,0,0,1.8-.628A4.074,4.074,0,0,0,48.6.6l.229-.7Zm31.5-.267a6.244,6.244,0,0,1,1.308.114L75.7-10.715a4.436,4.436,0,0,0-1.143-.127,4.106,4.106,0,0,0-2.888.952,3.442,3.442,0,0,0-1.035,2.666V0H66.765V-14.193H69.7l.571,2.387h.19a5.335,5.335,0,0,1,1.784-1.923A4.4,4.4,0,0,1,74.687-14.46Zm9.242,2.755a2.456,2.456,0,0,0-1.93.781,3.614,3.614,0,0,0-.8,2.215h5.434a3.228,3.228,0,0,0-.749-2.215A2.536,2.536,0,0,0,83.929-11.705ZM84.475.254a7.326,7.326,0,0,1-5.357-1.892A7.162,7.162,0,0,1,77.188-7a7.878,7.878,0,0,1,1.784-5.516A6.351,6.351,0,0,1,83.9-14.46a6.252,6.252,0,0,1,4.685,1.714,6.484,6.484,0,0,1,1.676,4.735v1.879H81.11a3.727,3.727,0,0,0,.978,2.577,3.44,3.44,0,0,0,2.564.927,10.646,10.646,0,0,0,2.425-.267,12.133,12.133,0,0,0,2.387-.851v3a9.092,9.092,0,0,1-2.171.755A13.687,13.687,0,0,1,84.475.254ZM102.426,0l-.749-1.93h-.1A5.719,5.719,0,0,1,99.563-.222a6.5,6.5,0,0,1-2.7.476A4.362,4.362,0,0,1,93.647-.914,4.485,4.485,0,0,1,92.473-4.24a3.745,3.745,0,0,1,1.581-3.333A9.159,9.159,0,0,1,98.82-8.76l2.463-.076v-.622a1.93,1.93,0,0,0-2.209-2.158,10.066,10.066,0,0,0-4,1.028L93.793-13.2a11.539,11.539,0,0,1,5.434-1.282,6.768,6.768,0,0,1,4.38,1.244,4.6,4.6,0,0,1,1.523,3.783V0Zm-1.143-6.576-1.5.051a4.8,4.8,0,0,0-2.514.609,1.914,1.914,0,0,0-.825,1.7q0,1.638,1.879,1.638a2.976,2.976,0,0,0,2.152-.774,2.72,2.72,0,0,0,.806-2.057ZM113.61.254a4.61,4.61,0,0,1-3.929-1.942,8.93,8.93,0,0,1-1.428-5.383,8.938,8.938,0,0,1,1.454-5.44,4.721,4.721,0,0,1,4.005-1.949,4.63,4.63,0,0,1,4.088,2.082h.127a15.829,15.829,0,0,1-.292-2.831v-4.545h3.885V0h-2.971L117.8-1.841h-.165A4.431,4.431,0,0,1,113.61.254Zm1.358-3.085a2.624,2.624,0,0,0,2.177-.863,5.022,5.022,0,0,0,.755-2.933v-.419a5.8,5.8,0,0,0-.7-3.275,2.617,2.617,0,0,0-2.292-.99,2.273,2.273,0,0,0-2.012,1.1,5.859,5.859,0,0,0-.717,3.193,5.552,5.552,0,0,0,.724,3.142A2.364,2.364,0,0,0,114.969-2.831Z" transform="translate(175 2556.583)" fill="#2e3e5a"/><g transform="translate(179.749 2441.201)"><path d="M-1392.567,2315.47a3,3,0,0,1-1.359-.326,3,3,0,0,1-1.64-2.674v-69.643a3,3,0,0,1,1.23-2.422,57.867,57.867,0,0,1,31.771-9.651,56.267,56.267,0,0,1,31,9.557,3,3,0,0,1,1.366,2.516v69.643a3,3,0,0,1-1.746,2.722,3,3,0,0,1-3.207-.445,46.679,46.679,0,0,0-27.729-9.695c-9.564,0-18.955,3.311-27.914,9.842A3,3,0,0,1-1392.567,2315.47Zm3-71.023v62.422a51.04,51.04,0,0,1,26.681-7.816,52,52,0,0,1,26.682,7.665v-62.236a49.959,49.959,0,0,0-26.363-7.727A53.3,53.3,0,0,0-1389.567,2244.446Z" transform="translate(1392.567 -2233.754)" fill="#2e3e5a"/><path d="M-1392.567,2315.47a3,3,0,0,1-1.359-.326,3,3,0,0,1-1.64-2.674v-69.643a3,3,0,0,1,1.23-2.422,57.867,57.867,0,0,1,31.771-9.651,56.267,56.267,0,0,1,31,9.557,3,3,0,0,1,1.366,2.516v69.643a3,3,0,0,1-1.746,2.722,3,3,0,0,1-3.207-.445,46.679,46.679,0,0,0-27.729-9.695c-9.564,0-18.955,3.311-27.914,9.842A3,3,0,0,1-1392.567,2315.47Zm3-71.023v62.422a51.04,51.04,0,0,1,26.681-7.816,52,52,0,0,1,26.682,7.665v-62.236a49.959,49.959,0,0,0-26.363-7.727A53.3,53.3,0,0,0-1389.567,2244.446Z" transform="translate(1451.93 -2233.754)" fill="#2e3e5a"/><g transform="translate(13.354 24.203)"><path d="M-1549.291,2408.815a2.983,2.983,0,0,1-1.633-.485c-13.082-8.506-27.377-.287-27.979.067a3,3,0,0,1-4.106-1.057,3,3,0,0,1,1.046-4.1c.73-.434,18.058-10.5,34.31.063a3,3,0,0,1,.88,4.151A3,3,0,0,1-1549.291,2408.815Z" transform="translate(1580.429 -2381.689)" fill="#2e3e5a"/><path d="M-1549.291,2408.815a2.983,2.983,0,0,1-1.633-.485c-13.082-8.506-27.377-.287-27.979.067a3,3,0,0,1-4.106-1.057,3,3,0,0,1,1.046-4.1c.73-.434,18.058-10.5,34.31.063a3,3,0,0,1,.88,4.151A3,3,0,0,1-1549.291,2408.815Z" transform="translate(1580.429 -2401.516)" fill="#2e3e5a"/></g><g transform="translate(72.479 24.203)"><path d="M-1549.291,2408.815a2.983,2.983,0,0,1-1.633-.485c-13.082-8.506-27.377-.287-27.979.067a3,3,0,0,1-4.106-1.057,3,3,0,0,1,1.046-4.1c.73-.434,18.058-10.5,34.31.063a3,3,0,0,1,.88,4.151A3,3,0,0,1-1549.291,2408.815Z" transform="translate(1580.429 -2381.689)" fill="#2e3e5a"/><path d="M-1549.291,2408.815a2.983,2.983,0,0,1-1.633-.485c-13.082-8.506-27.377-.287-27.979.067a3,3,0,0,1-4.106-1.057,3,3,0,0,1,1.046-4.1c.73-.434,18.058-10.5,34.31.063a3,3,0,0,1,.88,4.151A3,3,0,0,1-1549.291,2408.815Z" transform="translate(1580.429 -2401.516)" fill="#2e3e5a"/></g></g></g></g></svg>