<svg xmlns="http://www.w3.org/2000/svg" width="194" height="120" viewBox="0 0 194 120"><g transform="translate(-180 -1470)"><rect width="194" height="120" transform="translate(180 1470)" fill="#fff"/><g transform="translate(-1380 -105)"><g transform="translate(1428 294)"><rect width="100" height="57" rx="4" transform="translate(179 1344)" fill="#ffe491"/><path d="M16.859,0,15.2-5.437H6.875L5.219,0H0L8.063-22.937h5.922L22.078,0ZM14.047-9.5q-2.3-7.391-2.586-8.359t-.414-1.531q-.516,2-2.953,9.891ZM24.953-22.844h7.109q4.859,0,7.055,1.383a4.814,4.814,0,0,1,2.2,4.4,5.542,5.542,0,0,1-.961,3.359A3.839,3.839,0,0,1,37.8-12.125v.156a5.033,5.033,0,0,1,3.133,1.813,5.9,5.9,0,0,1,.961,3.531A5.819,5.819,0,0,1,39.633-1.75,9.765,9.765,0,0,1,33.5,0H24.953ZM29.8-13.8h2.813a5.142,5.142,0,0,0,2.852-.609,2.273,2.273,0,0,0,.883-2.016,2.017,2.017,0,0,0-.961-1.883,6.176,6.176,0,0,0-3.039-.57H29.8Zm0,3.844V-4h3.156a4.682,4.682,0,0,0,2.953-.766,2.826,2.826,0,0,0,.953-2.344q0-2.844-4.062-2.844ZM66.719,0H60.563L50.625-17.281h-.141q.3,4.578.3,6.531V0H46.453V-22.844h6.109L62.484-5.734h.109q-.234-4.453-.234-6.3V-22.844h4.359Z" transform="translate(194 1385)" fill="#2e3e5a"/></g><g transform="translate(1427 8)"><circle cx="35" cy="35" r="35" transform="translate(195 1567)" fill="#299f28"/><g transform="translate(211 1587)"><path d="M0,17.383l4.449-4.527L12.3,20.722,33.031,0l4.488,4.459L12.3,29.681Z" fill="#fff"/></g></g></g></g></svg>