<svg xmlns="http://www.w3.org/2000/svg" width="180" height="180" viewBox="0 0 180 180"><g transform="translate(-96 -507)"><rect width="180" height="180" transform="translate(96 507)" fill="#e3ecf6"/><path d="M11.522,0H2.066V-16.419h9.456v2.853H5.548v3.6h5.559v2.853H5.548v4.234h5.975ZM22.652,0l-.663-1.707H21.9A5.059,5.059,0,0,1,20.119-.2a5.753,5.753,0,0,1-2.386.421A3.859,3.859,0,0,1,14.886-.809a3.968,3.968,0,0,1-1.039-2.942,3.313,3.313,0,0,1,1.4-2.948,8.1,8.1,0,0,1,4.217-1.05l2.179-.067v-.55a1.708,1.708,0,0,0-1.954-1.909,8.9,8.9,0,0,0-3.538.91L15.015-11.68a10.207,10.207,0,0,1,4.807-1.134,5.987,5.987,0,0,1,3.875,1.1,4.067,4.067,0,0,1,1.348,3.347V0ZM21.641-5.817l-1.325.045a4.244,4.244,0,0,0-2.224.539,1.693,1.693,0,0,0-.73,1.5q0,1.449,1.662,1.449a2.632,2.632,0,0,0,1.9-.685,2.406,2.406,0,0,0,.713-1.819ZM37.33-3.729A3.457,3.457,0,0,1,35.988-.786,6.631,6.631,0,0,1,31.973.225,12.61,12.61,0,0,1,29.637.039a8.836,8.836,0,0,1-1.808-.545v-2.83a11.941,11.941,0,0,0,2.151.752,8.708,8.708,0,0,0,2.106.3q1.864,0,1.864-1.078a.9.9,0,0,0-.247-.657,3.582,3.582,0,0,0-.854-.573q-.606-.32-1.617-.747A10.159,10.159,0,0,1,29.1-6.458a3.161,3.161,0,0,1-.988-1.185,3.911,3.911,0,0,1-.309-1.645,2.983,2.983,0,0,1,1.3-2.589,6.318,6.318,0,0,1,3.678-.915A10.44,10.44,0,0,1,37.2-11.8L36.162-9.333q-.943-.4-1.763-.663a5.537,5.537,0,0,0-1.673-.258q-1.516,0-1.516.82a.964.964,0,0,0,.489.8,13.285,13.285,0,0,0,2.139,1,9.939,9.939,0,0,1,2.156,1.112A3.288,3.288,0,0,1,37-5.334,3.658,3.658,0,0,1,37.33-3.729Zm.876-8.827h3.751l2.37,7.064a9.8,9.8,0,0,1,.416,2.179h.067a9.628,9.628,0,0,1,.483-2.179l2.325-7.064H51.29L45.978,1.606a6.132,6.132,0,0,1-2.083,2.942,5.258,5.258,0,0,1-3.161.977,7.95,7.95,0,0,1-1.741-.191V2.617a5.855,5.855,0,0,0,1.348.146,2.434,2.434,0,0,0,1.589-.556A3.6,3.6,0,0,0,42.99.528l.2-.618Zm27.863-.236a5.524,5.524,0,0,1,1.157.1l-.258,3.212a3.924,3.924,0,0,0-1.011-.112,3.632,3.632,0,0,0-2.555.842,3.045,3.045,0,0,0-.915,2.358V0H59.061V-12.556h2.594l.505,2.111h.168a4.72,4.72,0,0,1,1.578-1.7A3.891,3.891,0,0,1,66.069-12.792Zm8.176,2.437a2.173,2.173,0,0,0-1.707.691A3.2,3.2,0,0,0,71.83-7.7h4.807a2.855,2.855,0,0,0-.663-1.96A2.243,2.243,0,0,0,74.245-10.354ZM74.728.225a6.48,6.48,0,0,1-4.739-1.673,6.336,6.336,0,0,1-1.707-4.739,6.969,6.969,0,0,1,1.578-4.88,5.618,5.618,0,0,1,4.363-1.724,5.53,5.53,0,0,1,4.144,1.516,5.736,5.736,0,0,1,1.482,4.189v1.662h-8.1a3.3,3.3,0,0,0,.865,2.28,3.043,3.043,0,0,0,2.269.82,9.418,9.418,0,0,0,2.145-.236,10.733,10.733,0,0,0,2.111-.752v2.65a8.043,8.043,0,0,1-1.92.668A12.108,12.108,0,0,1,74.728.225ZM90.607,0l-.663-1.707h-.09A5.059,5.059,0,0,1,88.075-.2a5.753,5.753,0,0,1-2.386.421A3.859,3.859,0,0,1,82.842-.809,3.968,3.968,0,0,1,81.8-3.751,3.313,3.313,0,0,1,83.2-6.7a8.1,8.1,0,0,1,4.217-1.05L89.6-7.816v-.55a1.708,1.708,0,0,0-1.954-1.909,8.9,8.9,0,0,0-3.538.91L82.971-11.68a10.207,10.207,0,0,1,4.807-1.134,5.987,5.987,0,0,1,3.875,1.1A4.067,4.067,0,0,1,93-8.367V0ZM89.6-5.817l-1.325.045a4.244,4.244,0,0,0-2.224.539,1.693,1.693,0,0,0-.73,1.5q0,1.449,1.662,1.449a2.632,2.632,0,0,0,1.9-.685A2.406,2.406,0,0,0,89.6-4.784ZM100.5.225a4.078,4.078,0,0,1-3.476-1.718,7.9,7.9,0,0,1-1.263-4.762,7.907,7.907,0,0,1,1.286-4.812,4.176,4.176,0,0,1,3.543-1.724,4.1,4.1,0,0,1,3.616,1.842h.112a14,14,0,0,1-.258-2.5v-4.021H107.5V0H104.87l-.663-1.628h-.146A3.92,3.92,0,0,1,100.5.225ZM101.7-2.5a2.321,2.321,0,0,0,1.926-.764,4.442,4.442,0,0,0,.668-2.594v-.371a5.134,5.134,0,0,0-.623-2.9,2.315,2.315,0,0,0-2.027-.876,2.011,2.011,0,0,0-1.78.971,5.183,5.183,0,0,0-.635,2.824,4.912,4.912,0,0,0,.64,2.78A2.091,2.091,0,0,0,101.7-2.5Z" transform="translate(132 646.799)" fill="#2e3e5a"/><g transform="translate(136 548.201)"><path d="M-1392.567,2303.053a3,3,0,0,1-1.359-.326,3,3,0,0,1-1.64-2.674V2241.4a3,3,0,0,1,1.23-2.422,49.261,49.261,0,0,1,27.039-8.219,47.857,47.857,0,0,1,26.365,8.125,3,3,0,0,1,1.366,2.516v58.657a3,3,0,0,1-1.746,2.721,3,3,0,0,1-3.207-.444,38.845,38.845,0,0,0-23.048-8.052c-7.953,0-15.769,2.758-23.232,8.2A3,3,0,0,1-1392.567,2303.053Zm3-60.035V2294.5a43.217,43.217,0,0,1,22-6.224,44.159,44.159,0,0,1,22,6.1v-51.323a41.549,41.549,0,0,0-21.731-6.3A44.137,44.137,0,0,0-1389.567,2243.018Z" transform="translate(1392.567 -2233.754)" fill="#2e3e5a"/><path d="M-1392.567,2303.053a3,3,0,0,1-1.359-.326,3,3,0,0,1-1.64-2.674V2241.4a3,3,0,0,1,1.23-2.422,49.261,49.261,0,0,1,27.039-8.219,47.857,47.857,0,0,1,26.365,8.125,3,3,0,0,1,1.366,2.516v58.657a3,3,0,0,1-1.746,2.721,3,3,0,0,1-3.207-.444,38.845,38.845,0,0,0-23.048-8.052c-7.953,0-15.769,2.758-23.232,8.2A3,3,0,0,1-1392.567,2303.053Zm3-60.035V2294.5a43.217,43.217,0,0,1,22-6.224,44.159,44.159,0,0,1,22,6.1v-51.323a41.549,41.549,0,0,0-21.731-6.3A44.137,44.137,0,0,0-1389.567,2243.018Z" transform="translate(1442.566 -2233.754)" fill="#2e3e5a"/><g transform="translate(11.248 20.385)"><path d="M-1580.426,2408.137a3,3,0,0,1-2.582-1.467,3,3,0,0,1,1.046-4.112c.625-.372,15.466-9,29.4.063a3,3,0,0,1,.88,4.151,3,3,0,0,1-4.15.88c-10.838-7.048-22.94-.008-23.061.063A2.985,2.985,0,0,1-1580.426,2408.137Z" transform="translate(1580.429 -2384.817)" fill="#2e3e5a"/><path d="M-1580.426,2408.137a3,3,0,0,1-2.582-1.467,3,3,0,0,1,1.046-4.112c.625-.372,15.466-9,29.4.063a3,3,0,0,1,.88,4.151,3,3,0,0,1-4.15.88c-10.838-7.048-22.94-.008-23.061.063A2.985,2.985,0,0,1-1580.426,2408.137Z" transform="translate(1580.429 -2401.516)" fill="#2e3e5a"/></g><g transform="translate(61.046 20.385)"><path d="M-1580.426,2408.137a3,3,0,0,1-2.582-1.467,3,3,0,0,1,1.046-4.112c.625-.372,15.466-9,29.4.063a3,3,0,0,1,.88,4.151,3,3,0,0,1-4.15.88c-10.838-7.048-22.94-.008-23.061.063A2.985,2.985,0,0,1-1580.426,2408.137Z" transform="translate(1580.429 -2384.817)" fill="#2e3e5a"/><path d="M-1580.426,2408.137a3,3,0,0,1-2.582-1.467,3,3,0,0,1,1.046-4.112c.625-.372,15.466-9,29.4.063a3,3,0,0,1,.88,4.151,3,3,0,0,1-4.15.88c-10.838-7.048-22.94-.008-23.061.063A2.985,2.985,0,0,1-1580.426,2408.137Z" transform="translate(1580.429 -2401.516)" fill="#2e3e5a"/></g></g></g></svg>