<svg xmlns="http://www.w3.org/2000/svg" width="18" height="18" viewBox="0 0 18 18"><g transform="translate(-2757 -3906.967)"><g transform="translate(2757 3906.967)"><g transform="translate(0 0)"><path d="M16.29,18.5H4.9V6.9h6.645V5H4.9A1.9,1.9,0,0,0,3,6.9V18.29a1.9,1.9,0,0,0,1.9,1.9H16.29a1.9,1.9,0,0,0,1.9-1.9V11.645h-1.9Z" transform="translate(-3 -2.188)" fill="#2e3e5a"/><path d="M18.746,2h-1.9V4.848H14c.009.009,0,1.9,0,1.9h2.848V9.585c.009.009,1.9,0,1.9,0V6.746h2.848v-1.9H18.746Z" transform="translate(-3.594 -2)" fill="#2e3e5a"/><rect width="7.505" height="1.501" transform="translate(3.739 6.764)" fill="#2e3e5a"/><path d="M7,12v1.9h7.594V12H7Z" transform="translate(-3.216 -2.529)" fill="#2e3e5a"/><rect width="7.505" height="2.251" transform="translate(3.739 12.005)" fill="#2e3e5a"/></g></g></g></svg>