<svg xmlns="http://www.w3.org/2000/svg" width="56" height="56" viewBox="0 0 56 56"><g transform="translate(-3210 -867)"><circle cx="28" cy="28" r="28" transform="translate(3210 867)" fill="#C9201D"/><g transform="translate(3222.881 878.929)"><path d="M15.668,0a1.76,1.76,0,0,0-1.442.856L.233,24.45a1.666,1.666,0,0,0,0,1.705A1.763,1.763,0,0,0,1.756,27H29.744a1.763,1.763,0,0,0,1.519-.85,1.666,1.666,0,0,0,0-1.705L17.262.857A1.764,1.764,0,0,0,15.668,0Z" transform="translate(0 0)" fill="#fff"/><g transform="translate(13.782 8.007)"><path d="M2.417,1.522A1.392,1.392,0,0,1,1.208,3.044,1.392,1.392,0,0,1,0,1.522,1.392,1.392,0,0,1,1.208,0,1.393,1.393,0,0,1,2.417,1.522Z" transform="translate(0.618 11.364)" fill="#C9201D"/><path d="M3.645,1.521a1.585,1.585,0,0,0-.4-.882A1.9,1.9,0,0,0,.436.6a1.593,1.593,0,0,0-.43.916,1.466,1.466,0,0,0,0,.274L.76,9.247a.873.873,0,0,0,.308.571,1.159,1.159,0,0,0,.758.271,1.171,1.171,0,0,0,.7-.223.887.887,0,0,0,.369-.62L3.645,1.8A1.45,1.45,0,0,0,3.645,1.521Z" transform="translate(0 0)" fill="#C9201D"/></g></g></g></svg>