<svg xmlns="http://www.w3.org/2000/svg" xmlns:xlink="http://www.w3.org/1999/xlink" width="48" height="48" viewBox="0 0 48 48"><defs><clipPath id="a"><path d="M739.165-410.055v14.641h-4.873v-14.641Zm.321-4.529a2.541,2.541,0,0,1-2.757,2.531H736.7A2.522,2.522,0,0,1,734-414.584a2.541,2.541,0,0,1,2.757-2.529A2.531,2.531,0,0,1,739.486-414.584Zm17.252,10.775v8.394h-4.873v-7.833c0-1.967-.7-3.31-2.469-3.31a2.666,2.666,0,0,0-2.5,1.779,3.326,3.326,0,0,0-.161,1.187v8.177h-4.873s.064-13.267,0-14.641h4.873v2.074a4.839,4.839,0,0,1,4.392-2.418C754.334-410.4,756.738-408.306,756.738-403.809Z" transform="translate(-734.004 417.112)" fill="none" clip-rule="evenodd"/></clipPath><clipPath id="b"><path d="M733.2-394.632h24.168V-418.8H733.2Z" transform="translate(-733.2 418.8)" fill="none"/></clipPath></defs><g transform="translate(-1004 -1373)"><circle cx="24" cy="24" r="24" transform="translate(1004 1373)" fill="#2867b2"/><g transform="translate(1016.633 1385)" clip-path="url(#a)"><g transform="translate(-1.104 -2.317)" clip-path="url(#b)"><path d="M729-422.112H765.47v35.431H729Z" transform="translate(-734.766 417.564)" fill="#fff"/></g></g></g></svg>