<svg xmlns="http://www.w3.org/2000/svg" xmlns:xlink="http://www.w3.org/1999/xlink" width="27" height="27" viewBox="0 0 27 27"><defs><clipPath id="a"><rect width="27" height="27" transform="translate(-0.496)" fill="#fff"/></clipPath></defs><g transform="translate(0.496)"><g clip-path="url(#a)"><path d="M23.853,0H2.65A2.647,2.647,0,0,0,.013,2.65L0,26.5l5.3-5.3H23.853a2.658,2.658,0,0,0,2.65-2.65V2.65A2.658,2.658,0,0,0,23.853,0M6.626,9.276H19.878a1.325,1.325,0,1,1,0,2.65H6.626a1.325,1.325,0,0,1,0-2.65M14.577,15.9H6.626a1.325,1.325,0,0,1,0-2.65h7.951a1.325,1.325,0,0,1,0,2.65m5.3-7.951H6.626a1.325,1.325,0,0,1,0-2.65H19.878a1.325,1.325,0,1,1,0,2.65" fill="#fff"/></g></g></svg>