<svg xmlns="http://www.w3.org/2000/svg" width="29.485" height="29.755" viewBox="0 0 29.485 29.755"><path d="M36.368,40.562h0c-.744,0-1.524-.517-2.444-1.625a2.06,2.06,0,0,1-1.074-2.681l.01-.042a4.19,4.19,0,0,1-.246-.51c-.108-.1-.241-.226-.376-.37a3.86,3.86,0,0,1-.512-.667l-.063.015a6.779,6.779,0,0,1-.889.152,1.128,1.128,0,0,1-.162.208,1.183,1.183,0,0,1-.87.342c-.084,0-.162-.006-.23-.012-.053,0-.1-.008-.144-.008-.059,0-.073,0-.142.083a1,1,0,0,1-1.351.175c-.068.007-.161.026-.246.042a3.574,3.574,0,0,1-.7.085h-.074a1,1,0,0,1-.4-.1,2.663,2.663,0,0,1-.637-.4,1.2,1.2,0,0,1-.434-1.051,1.246,1.246,0,0,1,.816-1.009,1.725,1.725,0,0,1,.142-1.148,1.412,1.412,0,0,1,1.155-.9,2.689,2.689,0,0,1-.017-.616l-.013,0a2.646,2.646,0,0,0-.665.315,1.95,1.95,0,0,1-.409.536,1.8,1.8,0,0,1-.345.848l-.04.054a1.175,1.175,0,0,1-.477.462,2.131,2.131,0,0,1-.43.226c-.156.066-.349.14-.5.194a1,1,0,0,1-1.309-.747.977.977,0,0,0-.217-.36,2.139,2.139,0,0,1-.549-1.569,1.243,1.243,0,0,0-.395-.327l-.011-.006-.016-.009a1.069,1.069,0,0,1-.6-.915v0a1,1,0,0,1-.723-.148,2.215,2.215,0,0,1-.543-.561l-.044-.059a1,1,0,0,1-.467-.875,1,1,0,0,1-.464-.657,1,1,0,0,1-.851-.065c-.663-.377-.849-.441-1.068-.441a4.06,4.06,0,0,0-.706.094,1,1,0,0,1-.512-.036,5.533,5.533,0,0,1-1.17-.62,3.216,3.216,0,0,0-1.161-.556,9.016,9.016,0,0,0-1.2-.075A15.045,15.045,0,0,0,9.43,25.6a1,1,0,0,1-1.24-.968L8.157,11.81a1,1,0,0,1,1.007-1l27.485.2a1,1,0,0,1,.993,1V39.459a1,1,0,0,1-.206.608A1.341,1.341,0,0,1,36.368,40.562Zm-1.65-3.47a1.468,1.468,0,0,0,.225.114,1,1,0,0,1,.392.3c.111.139.214.261.308.366V13L10.16,12.814l.027,10.608a16.289,16.289,0,0,1,2.4-.192,11.014,11.014,0,0,1,1.466.093,4.874,4.874,0,0,1,1.97.853c.19.121.373.238.536.322a4.715,4.715,0,0,1,.776-.075,3.277,3.277,0,0,1,1.611.456,1.614,1.614,0,0,1,.455-.07,1.16,1.16,0,0,1,.866.364,1.225,1.225,0,0,0,.123.053,1.357,1.357,0,0,1,.829.729l.019.047a1.31,1.31,0,0,1,.824.939q.007.044.01.087a1.075,1.075,0,0,1,.025.218,1.445,1.445,0,0,1,.185.093A2.261,2.261,0,0,1,23.542,28.7l0,.009a2.261,2.261,0,0,1,.992,1.778,1.957,1.957,0,0,1,.41-.486L25,29.951a1,1,0,0,1,.287-.448,4.205,4.205,0,0,1,1.5-.851c.45-.164.519-.189.674-.7a1,1,0,0,1,.054-.139,2.093,2.093,0,0,1,.652-.809,1.176,1.176,0,0,1,.275-.941,1.015,1.015,0,0,1,.745-.327,1.054,1.054,0,0,1,.938.595,2.505,2.505,0,0,1,.487,2.034,1.237,1.237,0,0,1-.123.248,1.522,1.522,0,0,1-.136.943l-.005.01a1,1,0,0,1,.167.123,3.613,3.613,0,0,1,1.322,2.535,1.49,1.49,0,0,1,.441-.067,1.352,1.352,0,0,1,1.386,1.275,1.067,1.067,0,0,1-.078.4,4.324,4.324,0,0,0,.537.528,1,1,0,0,1,.358.61,3.243,3.243,0,0,0,.29.531,1,1,0,0,1,.14.71c-.033.185-.073.354-.108.5C34.767,36.838,34.73,36.994,34.717,37.093Z" transform="translate(-8.157 -10.807)" fill="#fff"/></svg>