<svg xmlns="http://www.w3.org/2000/svg" xmlns:xlink="http://www.w3.org/1999/xlink" width="24.064" height="38.54" viewBox="0 0 24.064 38.54"><defs><clipPath id="a"><rect width="24.064" height="38.54" transform="translate(0 0)" fill="none"/></clipPath></defs><g transform="translate(0 0)"><g clip-path="url(#a)"><path d="M4.669,1.529a.4.4,0,0,0-.153.033.39.39,0,0,0-.233.4l-.38.6c-.3.138-.643.329-.562.67.069.286.335.352.773.352.163,0,.348-.009.556-.019.1,0,.225-.013.308-.013h.036a1.91,1.91,0,0,0,.808.177,2.127,2.127,0,0,0,1.546-.674.792.792,0,0,0,.176-.967,1.009,1.009,0,0,0-.921-.373,5.318,5.318,0,0,0-1.377.234c-.207-.269-.385-.426-.577-.426" fill="#fff"/><path d="M19.1,4.981h-.673l-.082,0-.384-.018-.081-.375a1.087,1.087,0,0,1-.024-.335l.023-.21.149-.116.673-.757L18.869,4.2a1.092,1.092,0,0,0,.032.137Z" fill="#fff"/><path d="M13.385,4.756h0Zm-2.125.07a2.751,2.751,0,0,0,.879.14,3.25,3.25,0,0,0,.472-.036,3,3,0,0,0,1.649.658c.059.005.117.008.176.008a2.011,2.011,0,0,0,.329-.028,3.005,3.005,0,0,0,.928.408,1.993,1.993,0,0,0,.873.009,2,2,0,0,0-.329.931c-1.077,3.679-1.461,5.238,1.839,6.818a20.7,20.7,0,0,1,2.971,1.678c.038,9.512,0,16.9-.018,20.034L3,35.532l.057-22.777a2,2,0,0,0,1.513-2.241c0-.023-.008-.048-.01-.074a1.984,1.984,0,0,0-.226-1.278,6.914,6.914,0,0,1,.773-.709A2,2,0,0,0,5.872,7a2,2,0,0,0,.342-.152,2.289,2.289,0,0,0,.642-.529,2.457,2.457,0,0,0,.593.072,2.386,2.386,0,0,0,1.076-.257h.011a2.306,2.306,0,0,0,.945-.214,2,2,0,0,0,1.209-.5,2.016,2.016,0,0,0,.57-.59m-.351.361h0M9.4,5.462h0m-2.12.116h0m2.412.243h0m-6.625,5.09h0M9.739,1a.345.345,0,0,0-.253.11.79.79,0,0,1-.561.209,1.274,1.274,0,0,0-.617.186c-.366.145-.606.25-.62.523a.473.473,0,0,0,.322.43A.8.8,0,0,1,8.4,2.8a.344.344,0,0,0,.306.188.321.321,0,0,0,.091-.012.21.21,0,0,1,.056-.007c.212,0,.425.308.719.767l.012.018A.623.623,0,0,0,9.49,3.8a.616.616,0,0,0-.132.12.518.518,0,0,0-.134-.017,1.058,1.058,0,0,0-.453.137.687.687,0,0,1-.235.09c-.035,0-.052-.019-.08-.049A.344.344,0,0,0,8.2,3.974H8.189a.329.329,0,0,0-.236.108c-.214.224-.355.31-.5.31a1.178,1.178,0,0,1-.483-.175,4.03,4.03,0,0,0-.473-.21.336.336,0,0,0-.113-.02.347.347,0,0,0-.155.037,1.433,1.433,0,0,0-.816.846.364.364,0,0,1-.174.235.914.914,0,0,0-.31-.055.878.878,0,0,0-.505.162,1.655,1.655,0,0,0-.6,1.477.941.941,0,0,0,.052.193C3.163,7.441,1.75,8.766,2,9.617a.75.75,0,0,0,.584.514,2.058,2.058,0,0,0,.008.679c-.328-.088-.755-.174-1.123-.242a.336.336,0,0,0-.063-.006.345.345,0,0,0-.344.344L1,37.195a.345.345,0,0,0,.345.345h0l21.327-.1a.346.346,0,0,0,.344-.342c0-.092.084-9.394.026-22.543a.342.342,0,0,0-.14-.276A22.659,22.659,0,0,0,18.94,11.93c-1.832-.877-1.832-.877-.719-4.672a.339.339,0,0,0,.008-.161,1.444,1.444,0,0,1,.28-.185.332.332,0,0,0,.054.147.343.343,0,0,0,.287.156.3.3,0,0,0,.06-.005,1.126,1.126,0,0,0,1.046-.986c.017-.112.053-.26.09-.416.179-.752.514-2.154-.813-2.492a.348.348,0,0,0-.085-.011.33.33,0,0,0-.112.019.95.95,0,0,0-.616.492,1.114,1.114,0,0,0-.811-.208,3.3,3.3,0,0,0-1.234.207.576.576,0,0,0-.225.214,1.569,1.569,0,0,1-.521-.293.815.815,0,0,0-.133-.085,1,1,0,0,0-.567-.19,1.036,1.036,0,0,0-.493.135,1.1,1.1,0,0,1-.762-.4,1.021,1.021,0,0,0-.709-.383h-.011a.342.342,0,0,0-.085.012,3.01,3.01,0,0,1-.73.143c-.383,0-.663-.226-1.18-.965a.344.344,0,0,0-.281-.148.283.283,0,0,0-.041,0,.343.343,0,0,0-.227.123,5.648,5.648,0,0,1-.27-.576c-.038-.089-.069-.164-.092-.211A.348.348,0,0,0,9.788,1a.4.4,0,0,0-.049,0m8.674,3.481h-.048a.615.615,0,0,1-.016-.174.2.2,0,0,0,.027-.024,1.615,1.615,0,0,0,.046.2h-.009" fill="#fff"/><path d="M19.445,7.719c-.53,0-.718.588-.718,1.091a.326.326,0,0,0,.016.1A1.682,1.682,0,0,0,20,9.969a.613.613,0,0,0,.165-.022c.457-.127.58-.65.365-1.555-.03-.673-.743-.673-1.09-.673" fill="#fff"/></g></g></svg>