<svg xmlns="http://www.w3.org/2000/svg" xmlns:xlink="http://www.w3.org/1999/xlink" width="27.013" height="35.801" viewBox="0 0 27.013 35.801"><defs><clipPath id="a"><rect width="27.013" height="35.801" transform="translate(0 0)" fill="none"/></clipPath></defs><g transform="translate(0 0)"><g clip-path="url(#a)"><path d="M22.341,0a3,3,0,0,1,1.189.25l.012.005a1.368,1.368,0,0,1,.189.1l.006,0a6.806,6.806,0,0,1,1.313,1.2c.081,0,.169-.005.258-.005a3.638,3.638,0,0,1,.588.04A1.339,1.339,0,0,1,27.009,2.85a7.741,7.741,0,0,1-.268,2.229,1.33,1.33,0,0,1,.249.793L26.674,29.2A1.327,1.327,0,0,1,26,30.34a9.59,9.59,0,0,1-4.336,1.173c-.153,0-.306-.005-.456-.015l-.186.115-.018.011a4.475,4.475,0,0,1-1.935.746,4.532,4.532,0,0,0-.584.812l-.043.074-.016.026a1.331,1.331,0,0,1-.56.5A2.321,2.321,0,0,1,16.85,34a4.164,4.164,0,0,1-.62-.056h-.007c-.064-.009-.134-.02-.183-.024a1.343,1.343,0,0,1-.479.093c-.17,0-.369-.016-.718-.047-.669-.058-1.251-.088-1.728-.088a5.261,5.261,0,0,0-1.075.081,1.344,1.344,0,0,1-.47.548,1.329,1.329,0,0,1-.583.321c-.03.008-.058.014-.085.019a1.346,1.346,0,0,1-.661.042l-.1.082a2.965,2.965,0,0,1-.919.581,1.329,1.329,0,0,1-.7.245H8.5a1.225,1.225,0,0,1-.173,0L8.16,35.79H8.154c-.9-.032-1.492-.059-1.888-.1a2.061,2.061,0,0,1-.963-.3,5.8,5.8,0,0,1-1.149-.7l-.007-.005-.033-.024a2.107,2.107,0,0,1-1.439-1.1,2.942,2.942,0,0,1-.166-1.735,1.332,1.332,0,0,1,1.013-1.1h0a1.565,1.565,0,0,1,.042-.468l-.006-.032a1.51,1.51,0,0,1-.035-.307,1.293,1.293,0,0,1,.006-.145,44.487,44.487,0,0,0-1.581-4.648,1.3,1.3,0,0,1-.066-.22A9.222,9.222,0,0,0,.59,22.042,1.886,1.886,0,0,1,.635,19.9a3.8,3.8,0,0,1-.027-4.135l.01-.013c0-.111-.01-.284-.017-.4A3.99,3.99,0,0,1,.693,13.95a2.1,2.1,0,0,1,1.481-1.462,1.341,1.341,0,0,1,.711-.016,2.076,2.076,0,0,1,.7-.265c.284-.162.574-.363.856-.558l.022-.015a4.549,4.549,0,0,1,2.5-1.083,2.31,2.31,0,0,1,.245.013,1.34,1.34,0,0,1,.352.086l.118-.062a3.132,3.132,0,0,1,1.238-.438,2.014,2.014,0,0,0,.215-.039,2.489,2.489,0,0,1,1.836-.569c.083,0,.173,0,.265,0a2.237,2.237,0,0,0,1.787-1,1.341,1.341,0,0,1,.152-.478l.009-.016a1.667,1.667,0,0,1,.5-.538,1.942,1.942,0,0,1,.529-1.555c.433-.631,1.092-1.422,1.958-1.438A1.546,1.546,0,0,1,17.2,3.911a2.357,2.357,0,0,1,.582-1.205,4.915,4.915,0,0,1,1-.724C19.368,1.226,19.808.8,20.336.7A3.463,3.463,0,0,1,22.341,0Zm.341,2.064A.97.97,0,0,0,22.341,2a1.1,1.1,0,0,0-.394.08,1,1,0,0,1-1,.992h0a1,1,0,0,1-.405-.086c-.081.1-.179.222-.294.375a1,1,0,0,1-.329.28,3.819,3.819,0,0,0-.691.451,2.673,2.673,0,0,0-.143.852,1,1,0,0,1-1,.948h-.192a1,1,0,0,1-1.667.743,3.992,3.992,0,0,0-.4.513,1,1,0,0,1-.115.141.3.3,0,0,0-.038.046.663.663,0,0,0,.034.118,1,1,0,0,1-.293,1.312c-.1.073-.216.146-.3.2l-.021.014,0,0-.135.088a4.035,4.035,0,0,1-3.77,2.478h-.006c-.073,0-.143,0-.206,0a1.662,1.662,0,0,0-.481.042c-.006,0-.019.015-.045.039a2.111,2.111,0,0,1-1.292.514l-.061.006a1.809,1.809,0,0,0-.458.2,2.338,2.338,0,0,1-1.122.374,1.323,1.323,0,0,1-.635-.16,4.467,4.467,0,0,0-1.275.718l-.023.016a11.6,11.6,0,0,1-1.21.764,1,1,0,0,1-.382.111c-.087.007-.136.026-.306.385l0,.008-.012.025a1,1,0,0,1-1.078.552c0,.03,0,.059.006.087a2.2,2.2,0,0,1-.425,1.793,2.124,2.124,0,0,0,.3,2.071,1.77,1.77,0,0,0,.223.264l.007.007.012.013c.059.062.132.14.193.219A1,1,0,0,1,2.8,20.944a2,2,0,0,1-.276.208,1,1,0,0,1-.091.051,10.984,10.984,0,0,1,1.4,3.234,45.63,45.63,0,0,1,1.664,4.935,1,1,0,0,1,0,1.951,1.688,1.688,0,0,1-.326,1.188,1,1,0,0,1-.363.252l-.006,0a1,1,0,0,1,.312.147l.211.151a3.687,3.687,0,0,0,.8.493,1,1,0,0,1,.261.129c.212.033.671.059,1.117.078A1,1,0,0,1,9,33.32a2.345,2.345,0,0,1,.621-.377,1,1,0,0,1,.656-.1l.037.007a1.676,1.676,0,0,1,1.094-.791,6.4,6.4,0,0,1,1.7-.178c.534,0,1.174.032,1.9.1.145.013.3.027.413.034A1.7,1.7,0,0,1,16,31.919a3.5,3.5,0,0,1,.515.048l-.138.99.144-.99A2.494,2.494,0,0,0,16.85,32h.016c.654-1.044,1.172-1.508,1.766-1.588a2.63,2.63,0,0,0,1.312-.483l.021-.013c.155-.1.33-.206.552-.326a1,1,0,0,1,.594-.112,4.625,4.625,0,0,0,.557.033,7.433,7.433,0,0,0,3.011-.741l.306-22.557a1.177,1.177,0,0,1-.251-.338,1.343,1.343,0,0,1,.014-1.153,4.2,4.2,0,0,0,.24-1.158l-.11.007a1,1,0,0,1-.813-.188,2.259,2.259,0,0,1-.667-.694A7.029,7.029,0,0,0,22.682,2.064Z" fill="#fff"/></g></g></svg>