<svg xmlns="http://www.w3.org/2000/svg" xmlns:xlink="http://www.w3.org/1999/xlink" width="33.982" height="30.959" viewBox="0 0 33.982 30.959"><defs><clipPath id="a"><rect width="33.982" height="30.959" fill="none"/></clipPath></defs><g clip-path="url(#a)"><path d="M2.271,1.846h0Zm.082,1.736h0M1.727,0C1.167,0,.627.576.318,1.191A2.053,2.053,0,0,0,.345,3.425c0,.728.2,1.172.609,1.323a.759.759,0,0,0,.267.047,1.584,1.584,0,0,0,1.148-.72,2.389,2.389,0,0,0,.369-2.619C2.659.6,2.371.112,1.884.016A.761.761,0,0,0,1.727,0" fill="#fff"/><path d="M29.5.314a.843.843,0,0,0-.1.006.9.9,0,0,0-.7.517,1.152,1.152,0,0,0-.28,1.35c.158.521.509,1.045.947,1.1a2.041,2.041,0,0,1,.42.53,4.689,4.689,0,0,0,.311.452.4.4,0,0,0,.1.308.43.43,0,0,0,.324.11,4.874,4.874,0,0,0,1.967-.849.446.446,0,0,0,.117-.65.362.362,0,0,0-.132-.1c-.074-.088-.207-.266-.328-.427C31.219,1.424,30.317.314,29.5.314" fill="#fff"/><path d="M31.1,9.462h0ZM6.924,9.51h0M6.8,9.622a2.372,2.372,0,0,1,.273.121,4.514,4.514,0,0,0,2.04.644c.042,0,.083,0,.122,0,.333.116.729.244,1.172.387.5.162,1.052.341,1.586.527,1.494,1.474,3.734,1.679,5.406,1.832.54.049,1.051.1,1.444.173a1.953,1.953,0,0,0,.387.038,2,2,0,0,0,1.437-.609,9.2,9.2,0,0,1,2.22-.9c.1-.024.229-.058.382-.1a4.761,4.761,0,0,1,1.106-.213.725.725,0,0,1,.074,0,2,2,0,0,0,1.829.4A3.19,3.19,0,0,0,27.8,10.919a2.425,2.425,0,0,0,1.071.257,2.3,2.3,0,0,0,.5-.059,2.168,2.168,0,0,0,1.134-.7,2.215,2.215,0,0,1,.192.136,2,2,0,0,0-.2.846,9,9,0,0,0,.141,1.438c.039.257.093.615.107.843-.42.66-.473,1.445-.425,3.5,0,.112,0,.244.008.382A5.853,5.853,0,0,0,28.4,19.812a2,2,0,0,0-.232,1.054c.045.792.044,1.429.025,1.833-.224.16-.389.266-.508.334a2,2,0,0,0-1.878.111,2.039,2.039,0,0,0-1.661.163c-1.142.655-1.375,2.211-1.41,3.105-.088.068-.185.139-.257.192a6.263,6.263,0,0,0-.538.425,2.016,2.016,0,0,0-.482.68l-.1.157c-.26.393-.456.679-.6.888l-.09-.092a2,2,0,0,0-2.427-.35,1.947,1.947,0,0,1-.226.012,5.12,5.12,0,0,1-1.278-.189,2,2,0,0,0-.371-.08c-.028-.107-.058-.208-.093-.307a2,2,0,0,0-1.121-1.171,2.031,2.031,0,0,0-.526-.137c-.089-.127-.2-.32-.27-.452a3.833,3.833,0,0,0-2.169-2.021,4.879,4.879,0,0,1-.19-.491,4.106,4.106,0,0,0-.936-1.665,9.143,9.143,0,0,0-.317-1.137c-.069-.21-.167-.512-.2-.678a2.007,2.007,0,0,0,.019-.733,11.25,11.25,0,0,0-2.127-4.306A18.4,18.4,0,0,1,7.2,13l-.185-.367c-.911-1.8-.949-2.1-.538-2.667l.142-.151c.056-.059.123-.13.182-.189m2.85.7h0m18.475.236h0M6.676,7.582a2.033,2.033,0,0,0-1.513.861c-.063.067-.127.135-.194.2-.01.011-.02.022-.029.034-1.3,1.7-.6,3.093.292,4.85l.184.366a19.854,19.854,0,0,0,1.361,2.191,9.924,9.924,0,0,1,1.8,3.492,3.042,3.042,0,0,0,.255,1.714,3.019,3.019,0,0,1,.257,1.293.359.359,0,0,0,.231.468c.43.133.569.48.779,1.081a3.005,3.005,0,0,0,1.038,1.627.373.373,0,0,0,.176.065c.652.059.914.471,1.288,1.139a2.783,2.783,0,0,0,1.477,1.492.367.367,0,0,0,.117.019.356.356,0,0,0,.169-.042l.017-.009a4.634,4.634,0,0,1,.123.512,8.538,8.538,0,0,0,.31,1.195.36.36,0,0,0,.338.241.3.3,0,0,0,.042,0,1.7,1.7,0,0,0,.793-.252c.043-.025.087-.05.139-.077a7.069,7.069,0,0,0,1.879.282,2.194,2.194,0,0,0,1.214-.273l.01.011a2.354,2.354,0,0,0,1.66.878,1.864,1.864,0,0,0,.22-.013.454.454,0,0,0,.1.027.549.549,0,0,0,.07,0c.321,0,.651-.345,1.74-1.989.1-.144.169-.256.21-.312A.375.375,0,0,0,23.3,28.5c.079-.074.241-.192.365-.284.532-.391,1.135-.834,1.067-1.388-.061-.491.141-1.631.413-1.787l.013,0a.21.21,0,0,1,.086.037,1.009,1.009,0,0,0,.416.365.556.556,0,0,0-.4.351.426.426,0,0,0,.156.465.857.857,0,0,0,.522.149,1.529,1.529,0,0,0,.771-.221.34.34,0,0,0,.081-.065c.244-.261.172-.665.1-1.093-.009-.051-.02-.113-.029-.175.054.037.119.084.2.143a.427.427,0,0,0,.044.03.954.954,0,0,0,.476.12,4.7,4.7,0,0,0,2.376-1.259.371.371,0,0,0,.117-.164,12.088,12.088,0,0,0,.106-2.969c.293-.55.872-1.386,1.326-1.524a.356.356,0,0,1,.1-.017.25.25,0,0,1,.126.035.359.359,0,0,0,.285.029.359.359,0,0,0,.216-.188,5.754,5.754,0,0,0,.1-1.945,8.841,8.841,0,0,1,.121-2.4c.447-.413.315-1.284.176-2.2a7.56,7.56,0,0,1-.119-1.109,1.646,1.646,0,0,0,.229-1.39c-.307-1-1.6-1.622-2.547-2a.576.576,0,0,0-.059-.018.667.667,0,0,0-.137-.015c-.4,0-.6.409-.737.688-.1.2-.222.448-.344.478a.206.206,0,0,1-.033,0,.826.826,0,0,1-.445-.212.387.387,0,0,0-.043-.027,1.584,1.584,0,0,0-.758-.222,1.623,1.623,0,0,0-1.182.72,1.592,1.592,0,0,1-.7.563,1.9,1.9,0,0,0-1.364-.474,6.309,6.309,0,0,0-1.636.285c-.132.036-.245.067-.331.085a9.582,9.582,0,0,0-3.178,1.447c-.5-.1-1.06-.149-1.651-.2-1.608-.147-3.43-.314-4.374-1.477a.351.351,0,0,0-.157-.111c-.676-.245-1.393-.477-2.025-.682-.564-.182-1.051-.34-1.4-.469a.684.684,0,0,0-.245-.047.787.787,0,0,0-.185.025.349.349,0,0,1-.083.01,3.049,3.049,0,0,1-1.135-.428,2.926,2.926,0,0,0-1.3-.377" fill="#fff"/><path d="M31.955,4.777a2.956,2.956,0,0,0-2.163.857.359.359,0,0,0,.042.518,3.691,3.691,0,0,0,.835.516c.278.131.353.166.484.553a.364.364,0,0,0,.341.244.371.371,0,0,0,.131-.025c.023-.009,2.29-.944,2.354-1.508a.4.4,0,0,0-.1-.31,2.211,2.211,0,0,0-1.716-.838c-.069-.005-.139-.007-.209-.007" fill="#fff"/></g></svg>