<svg xmlns="http://www.w3.org/2000/svg" width="40" height="40" viewBox="0 0 40 40"><g transform="translate(-532 -2820)"><g transform="translate(538 2827.919)"><path d="M26.284,5.219A13.263,13.263,0,0,0,21.859,4.5a10.724,10.724,0,0,0-6.953,2.156A10.724,10.724,0,0,0,7.953,4.5,10.724,10.724,0,0,0,1,6.656V27.711a.731.731,0,0,0,.632.719c.126,0,.19-.072.316-.072a13.911,13.911,0,0,1,6-1.581,10.724,10.724,0,0,1,6.953,2.156,13.853,13.853,0,0,1,6.953-2.156,11.6,11.6,0,0,1,6,1.509.512.512,0,0,0,.316.072.731.731,0,0,0,.632-.719V6.656A8.27,8.27,0,0,0,26.284,5.219Zm0,19.4a13.057,13.057,0,0,0-4.425-.719,13.853,13.853,0,0,0-6.953,2.156V9.53a13.853,13.853,0,0,1,6.953-2.156,13.057,13.057,0,0,1,4.425.719Z" transform="translate(-1 -4.5)" fill="#2e3e5a"/><g transform="translate(15.982 6.821)"><path d="M18.323,11.017a12.237,12.237,0,0,1,2.957.35V9.323A14.117,14.117,0,0,0,18.323,9,12.186,12.186,0,0,0,13,10.116v2.232A9.908,9.908,0,0,1,18.323,11.017Z" transform="translate(-13 -9)" fill="#2e3e5a"/><path d="M13,12.776v2.232a9.908,9.908,0,0,1,5.323-1.331,12.237,12.237,0,0,1,2.957.35V11.983a14.117,14.117,0,0,0-2.957-.323A12.38,12.38,0,0,0,13,12.776Z" transform="translate(-13 -8.083)" fill="#2e3e5a"/><path d="M18.323,14.33A12.186,12.186,0,0,0,13,15.446v2.232a9.908,9.908,0,0,1,5.323-1.331,12.237,12.237,0,0,1,2.957.35V14.653A13.275,13.275,0,0,0,18.323,14.33Z" transform="translate(-13 -7.162)" fill="#2e3e5a"/></g></g><rect width="40" height="40" transform="translate(532 2820)" fill="none"/></g></svg>