<svg xmlns="http://www.w3.org/2000/svg" xmlns:xlink="http://www.w3.org/1999/xlink" width="48" height="48" viewBox="0 0 48 48"><defs><clipPath id="a"><path d="M794.469-403.066v-7.724l6.179,3.862Zm14.932-9.705a3.068,3.068,0,0,0-2.185-2.146c-1.928-.507-9.657-.507-9.657-.507s-7.729,0-9.657.507a3.068,3.068,0,0,0-2.185,2.146,31.041,31.041,0,0,0-.516,5.843,31.041,31.041,0,0,0,.516,5.843,3.069,3.069,0,0,0,2.185,2.146c1.928.507,9.657.507,9.657.507s7.729,0,9.657-.507a3.069,3.069,0,0,0,2.185-2.146,31.034,31.034,0,0,0,.517-5.843,31.034,31.034,0,0,0-.517-5.843Z" transform="translate(-785.2 415.425)" fill="none" clip-rule="evenodd"/></clipPath><clipPath id="b"><path d="M785.2-394.632h24.168V-418.8H785.2Z" transform="translate(-785.2 418.8)" fill="none"/></clipPath></defs><g transform="translate(-676 -1373)"><circle cx="24" cy="24" r="24" transform="translate(676 1373)" fill="red"/><g transform="translate(688 1389)" clip-path="url(#a)"><g transform="translate(0 -4.635)" clip-path="url(#b)"><path d="M780.2-420.425h38.449V-389.7H780.2Z" transform="translate(-787.066 418.194)" fill="#fff"/></g></g></g></svg>