<svg xmlns="http://www.w3.org/2000/svg" width="124.727" height="84.716" viewBox="0 0 124.727 84.716"><g transform="translate(3 3)"><path d="M-1392.567,2315.47a3,3,0,0,1-1.359-.326,3,3,0,0,1-1.64-2.674v-69.643a3,3,0,0,1,1.23-2.422,57.867,57.867,0,0,1,31.771-9.651,56.267,56.267,0,0,1,31,9.557,3,3,0,0,1,1.366,2.516v69.643a3,3,0,0,1-1.746,2.722,3,3,0,0,1-3.207-.445,46.679,46.679,0,0,0-27.729-9.695c-9.564,0-18.955,3.311-27.914,9.842A3,3,0,0,1-1392.567,2315.47Zm3-71.023v62.422a51.04,51.04,0,0,1,26.681-7.816,52,52,0,0,1,26.682,7.665v-62.236a49.959,49.959,0,0,0-26.363-7.727A53.3,53.3,0,0,0-1389.567,2244.446Z" transform="translate(1392.567 -2233.754)" fill="#fff"/><path d="M-1392.567,2315.47a3,3,0,0,1-1.359-.326,3,3,0,0,1-1.64-2.674v-69.643a3,3,0,0,1,1.23-2.422,57.867,57.867,0,0,1,31.771-9.651,56.267,56.267,0,0,1,31,9.557,3,3,0,0,1,1.366,2.516v69.643a3,3,0,0,1-1.746,2.722,3,3,0,0,1-3.207-.445,46.679,46.679,0,0,0-27.729-9.695c-9.564,0-18.955,3.311-27.914,9.842A3,3,0,0,1-1392.567,2315.47Zm3-71.023v62.422a51.04,51.04,0,0,1,26.681-7.816,52,52,0,0,1,26.682,7.665v-62.236a49.959,49.959,0,0,0-26.363-7.727A53.3,53.3,0,0,0-1389.567,2244.446Z" transform="translate(1451.93 -2233.754)" fill="#fff"/><g transform="translate(13.354 24.203)"><path d="M-1549.291,2408.815a2.983,2.983,0,0,1-1.633-.485c-13.082-8.506-27.377-.287-27.979.067a3,3,0,0,1-4.106-1.057,3,3,0,0,1,1.046-4.1c.73-.434,18.058-10.5,34.31.063a3,3,0,0,1,.88,4.151A3,3,0,0,1-1549.291,2408.815Z" transform="translate(1580.429 -2381.689)" fill="#fff"/><path d="M-1549.291,2408.815a2.983,2.983,0,0,1-1.633-.485c-13.082-8.506-27.377-.287-27.979.067a3,3,0,0,1-4.106-1.057,3,3,0,0,1,1.046-4.1c.73-.434,18.058-10.5,34.31.063a3,3,0,0,1,.88,4.151A3,3,0,0,1-1549.291,2408.815Z" transform="translate(1580.429 -2401.516)" fill="#fff"/></g><g transform="translate(72.479 24.203)"><path d="M-1549.291,2408.815a2.983,2.983,0,0,1-1.633-.485c-13.082-8.506-27.377-.287-27.979.067a3,3,0,0,1-4.106-1.057,3,3,0,0,1,1.046-4.1c.73-.434,18.058-10.5,34.31.063a3,3,0,0,1,.88,4.151A3,3,0,0,1-1549.291,2408.815Z" transform="translate(1580.429 -2381.689)" fill="#fff"/><path d="M-1549.291,2408.815a2.983,2.983,0,0,1-1.633-.485c-13.082-8.506-27.377-.287-27.979.067a3,3,0,0,1-4.106-1.057,3,3,0,0,1,1.046-4.1c.73-.434,18.058-10.5,34.31.063a3,3,0,0,1,.88,4.151A3,3,0,0,1-1549.291,2408.815Z" transform="translate(1580.429 -2401.516)" fill="#fff"/></g></g></svg>