<svg xmlns="http://www.w3.org/2000/svg" width="40" height="40" viewBox="0 0 40 40"><g transform="translate(-214 -2820)"><g transform="translate(223 2825)"><path d="M16.055,3a10.6,10.6,0,0,0-2.211.221A11.039,11.039,0,0,0,8.7,22.295a3.07,3.07,0,0,1,1.042,2.321v3.647A3.167,3.167,0,0,0,12.9,31.421h.442a3.125,3.125,0,0,0,5.432,0h.442a3.167,3.167,0,0,0,3.158-3.158V24.616a3.062,3.062,0,0,1,1.011-2.305A11.04,11.04,0,0,0,16.055,3Zm3.158,25.263H12.9V26.684h6.316Zm0-3.158H12.9V23.526h6.316Zm2.068-5.147c-.142.126-.253.284-.379.411H17.436V16.541l2.716-2.716a.6.6,0,0,0,0-.837l-1.116-1.116a.612.612,0,0,0-.84,0l-2.132,2.133-2.149-2.151a.613.613,0,0,0-.838,0L11.96,12.973a.593.593,0,0,0,0,.837l2.713,2.713v3.846H11.191a4.869,4.869,0,0,0-.379-.426,7.89,7.89,0,1,1,13.137-5.889A7.851,7.851,0,0,1,21.281,19.958Z" transform="translate(-4.997 -3)" fill="#333"/></g><rect width="40" height="40" transform="translate(214 2820)" fill="none"/></g></svg>