<svg xmlns="http://www.w3.org/2000/svg" xmlns:xlink="http://www.w3.org/1999/xlink" width="48" height="48" viewBox="0 0 48 48"><defs><clipPath id="a"><path d="M693.2-412.242l.054.883-.893-.108a14.522,14.522,0,0,1-8.5-4.182l-1.179-1.172-.3.865a5.2,5.2,0,0,0,1.107,5.336c.714.757.553.865-.679.415a2.106,2.106,0,0,0-.839-.2,6.457,6.457,0,0,0,.643,2.416,5.767,5.767,0,0,0,2.446,2.307l.875.415-1.036.018c-1,0-1.036.018-.929.4a5.4,5.4,0,0,0,3.339,2.957l1.107.378-.964.577a10.052,10.052,0,0,1-4.786,1.334,5.29,5.29,0,0,0-1.464.144,13.588,13.588,0,0,0,3.446,1.586,15.082,15.082,0,0,0,11.714-1.334,15.675,15.675,0,0,0,5.946-6.995,18.59,18.59,0,0,0,1.214-5.408c0-.829.054-.937,1.054-1.929a11.77,11.77,0,0,0,1.25-1.388c.179-.342.161-.342-.75-.036-1.518.541-1.732.469-.982-.343a5.243,5.243,0,0,0,1.214-1.929c0-.054-.268.036-.571.2a9.965,9.965,0,0,1-1.571.613l-.964.307-.875-.6a7.272,7.272,0,0,0-1.518-.793,6.1,6.1,0,0,0-3.125.072A5.161,5.161,0,0,0,693.2-412.242Z" transform="translate(-681.2 417.675)" fill="none" stroke="#707070" stroke-width="1" clip-rule="evenodd"/></clipPath><clipPath id="b"><path d="M681.2-394.632h24.168V-418.8H681.2Z" transform="translate(-681.2 418.8)" fill="none" stroke="#707070" stroke-width="1"/></clipPath></defs><g transform="translate(-418 -1373)"><circle cx="24" cy="24" r="24" transform="translate(418 1373)" fill="#b8b8b8"/><g transform="translate(430.645 1387)" clip-path="url(#a)"><g transform="translate(0 -1.545)" clip-path="url(#b)"><path d="M676.2-422.675h38.445v34.155H676.2Z" transform="translate(-683.066 417.354)" fill="#fff"/><path d="M675.7-423.175h39.445v35.155H675.7Zm38.445,1H676.7v33.155h37.445Z" transform="translate(-683.066 417.354)" fill="#707070"/></g></g></g></svg>