<svg xmlns="http://www.w3.org/2000/svg" width="56" height="56" viewBox="0 0 56 56"><g transform="translate(-235 -937)"><rect width="56" height="56" transform="translate(235 937)" fill="none"/><path d="M191.279,80.964h-17.69a3.354,3.354,0,0,0-3.344,3.344v16.559h-3.733v4.755a3.354,3.354,0,0,0,3.344,3.344h16.813a3.354,3.354,0,0,0,3.344-3.344V89.062h4.611V84.308A3.354,3.354,0,0,0,191.279,80.964Zm-8.344,25.661h-13.08a1.017,1.017,0,0,1-1-1v-2.531h14.18v2.642a3.3,3.3,0,0,0,.118.861A.887.887,0,0,1,182.935,106.625Zm4.736-22.317v21.314c0,.544-.193,1-1,1s-.856-.069-.856-.069a1.01,1.01,0,0,1-.439-.823v-4.866H172.586V84.308a1.016,1.016,0,0,1,1-1h13.08l1.187,0S187.7,83.494,187.672,84.308Zm4.611,2.531h-2.27V84.308c0-.053-.006-.1-.008-.157a.984.984,0,0,1,.853-.842l.422,0a1.016,1.016,0,0,1,1,1Z" transform="translate(82.488 870.036)" fill="#2e3e5a"/></g></svg>