<svg xmlns="http://www.w3.org/2000/svg" width="19" height="18" viewBox="0 0 19 18"><rect width="2.924" height="8.264" transform="translate(11.089 12.156) rotate(-45)" fill="#2e3e5a"/><path d="M16.867,9.779A3.368,3.368,0,0,0,19.83,4.832L17.241,7.451,15.812,6.005,18.4,3.386a3.283,3.283,0,0,0-1.534-.4,3.38,3.38,0,0,0-3.356,3.4,3.342,3.342,0,0,0,.2,1.125L11.938,9.3,10.231,7.577l.681-.689L9.56,5.52l2.033-2.057a2.853,2.853,0,0,0-4.066,0L4.133,6.9,5.485,8.266h-2.7L2.1,8.954l3.394,3.434.681-.689V8.954l1.352,1.368.681-.689L9.915,11.36,2.81,18.548,4.842,20.6,15.754,9.575A3.237,3.237,0,0,0,16.867,9.779Z" transform="translate(-2.1 -2.613)" fill="#2e3e5a"/></svg>