<svg xmlns="http://www.w3.org/2000/svg" width="17.273" height="20" viewBox="0 0 17.273 20"><path d="M14.727,1H3.818A1.824,1.824,0,0,0,2,2.818V15.545H3.818V2.818H14.727Zm2.727,3.636h-10A1.824,1.824,0,0,0,5.636,6.455V19.182A1.824,1.824,0,0,0,7.455,21h10a1.824,1.824,0,0,0,1.818-1.818V6.455A1.824,1.824,0,0,0,17.455,4.636Zm0,14.545h-10V6.455h10Z" transform="translate(-2 -1)" fill="#068905"/><path d="M0,3.936,1.007,2.911,2.785,4.692,7.479,0,8.5,1.01,2.785,6.721Z" transform="translate(6.104 8.732)" fill="#068905"/></svg>