<svg xmlns="http://www.w3.org/2000/svg" width="24" height="27" viewBox="0 0 24 27">
  <g id="Group_22124" data-name="Group 22124" transform="translate(-937 -613)">
    <rect id="Rectangle_4763" data-name="Rectangle 4763" width="24" height="27" transform="translate(937 613)" fill="none"/>
    <path id="Path_3809" data-name="Path 3809" d="M0,20H3.636V8H0ZM20,9a1.921,1.921,0,0,0-1.818-2H12.445l.864-4.57.027-.32a1.584,1.584,0,0,0-.4-1.06L11.973,0,5.991,6.59A2.056,2.056,0,0,0,5.455,8V18a1.921,1.921,0,0,0,1.818,2h8.182a1.813,1.813,0,0,0,1.673-1.22l2.745-7.05A2.15,2.15,0,0,0,20,11Z" transform="translate(959 640) rotate(180)" fill="#333"/>
  </g>
</svg>
