<svg xmlns="http://www.w3.org/2000/svg" width="24" height="27" viewBox="0 0 24 27">
  <g id="Group_22125" data-name="Group 22125" transform="translate(-795 -613)">
    <rect id="Rectangle_4762" data-name="Rectangle 4762" width="24" height="27" transform="translate(795 613)" fill="none"/>
    <path id="Path_3808" data-name="Path 3808" d="M1,21H4.636V9H1ZM21,10a1.921,1.921,0,0,0-1.818-2H13.445l.864-4.57.027-.32a1.584,1.584,0,0,0-.4-1.06L12.973,1,6.991,7.59A2.056,2.056,0,0,0,6.455,9V19a1.921,1.921,0,0,0,1.818,2h8.182a1.813,1.813,0,0,0,1.673-1.22l2.745-7.05A2.15,2.15,0,0,0,21,12Z" transform="translate(796 612)" fill="#fff"/>
  </g>
</svg>
