<svg xmlns="http://www.w3.org/2000/svg" width="26" height="18.909" viewBox="0 0 26 18.909"><g transform="translate(-496 -1267.23)"><g transform="translate(496 1267.23)"><path d="M16.67,13.13A5.5,5.5,0,0,1,19.424,17.7v3.545h4.727V17.7C24.151,15.127,19.932,13.6,16.67,13.13Z" transform="translate(1.849 -2.34)" fill="#fff"/><path d="M15.242,13.455a4.727,4.727,0,1,0,0-9.455,4.938,4.938,0,0,0-1.572.284,7.067,7.067,0,0,1,0,8.887A4.938,4.938,0,0,0,15.242,13.455Z" transform="translate(1.304 -4)" fill="#fff"/><path d="M9.727,13.455A4.727,4.727,0,1,0,5,8.727,4.726,4.726,0,0,0,9.727,13.455Zm0-7.091A2.364,2.364,0,1,1,7.364,8.727,2.371,2.371,0,0,1,9.727,6.364Z" transform="translate(-0.273 -4)" fill="#fff"/><path d="M10.455,13C7.3,13,1,14.584,1,17.727v3.545H19.909V17.727C19.909,14.584,13.61,13,10.455,13Zm7.091,5.909H3.364v-1.17c.236-.851,3.9-2.375,7.091-2.375s6.855,1.525,7.091,2.364Z" transform="translate(-1 -2.364)" fill="#fff"/></g></g></svg>