<svg xmlns="http://www.w3.org/2000/svg" width="31.974" height="38.829" viewBox="0 0 31.974 38.829"><path d="M26.541,5.126a1,1,0,0,1,.5.136L29.54,6.716a1,1,0,0,1,.086.056l.24.175a1,1,0,0,1,.125.108l.2.2a1,1,0,0,1,.208.313l.142.338a1,1,0,0,1,.066.235l.047.305a1,1,0,0,1,.008.242l-.043.491.032.015.458.14.287.01a1,1,0,0,1,.124.012l.383.062a1,1,0,0,1,.4.156l.25.167a1,1,0,0,1,.362.434l.153.353a1,1,0,0,1,.082.4V11.2a1,1,0,0,1-.008.127l.042.027,2.244.878.334.085.337.039a1,1,0,0,1,.188.04l1.073.342a1,1,0,0,1,.1.039l2.3,1.025a1,1,0,0,1,.1.049l.218.127a1,1,0,0,1,.441.535l.062.178a1,1,0,0,1,.056.329v.113a1,1,0,0,1-.32.734l-.53.491a1,1,0,0,1-.1.081l-.532.379q-.037.026-.075.049l-.694.406a1,1,0,0,1-.294.114l-.357.077a1,1,0,0,1-.154.021l-.454.026a1,1,0,0,1-.2-.008l-3.28-.471-.16.026-.339.346-.14.331a1,1,0,0,1-.328.415l-.193.142a1,1,0,0,1-.3.15l-.364.113a1,1,0,0,1-.582,0l-.255-.076a1,1,0,0,1-.207-.088l-.514-.291-.014,0-.028.011-.171.12-.087.116-.712,1.095q-.027.041-.057.079l-.3.378a1,1,0,0,1-.074.083l-.28.28a1,1,0,0,1-.156.127l.028.082a1,1,0,0,1,.028.1l.065.28a1,1,0,0,1-.146.787l-.273.4.028.086.143.2a1,1,0,0,1,.074.122l.091.178a1,1,0,0,1,.073.186l.149.534a1,1,0,0,1,.029.393l-.047.375a1,1,0,0,1-.042.187l-.167.509a1,1,0,0,1-.043.109l-.6,1.29-.041.148.008.076a1,1,0,0,1-.1.551l-.24.473a1,1,0,0,1-.573.5l-1.091.367-.058.065-.047.119.025.658.561,2.473q.006.028.011.056l.24,1.433a1,1,0,0,1,.013.2l-.025.756a1,1,0,0,1-.037.239L26.055,35.6l-.013.083.032.348.44,1.742a1,1,0,0,1,.03.2l.025.582a1,1,0,0,1-.011.2l-.091.582a1,1,0,0,1-.023.109l-.153.56q-.009.032-.02.064l-.087.251a1,1,0,0,1-.1.213l-.138.215a1,1,0,0,1-.215.239l-.2.164a1,1,0,0,1-.122.084l-.415.242-.122.087-.08.076-.073.095-.221.333-.266.622a1,1,0,0,1-.063.123l-.138.229a1,1,0,0,1-.064.093l-.153.2a1,1,0,0,1-.191.189l-.2.153a1,1,0,0,1-.324.162l-.266.077a1,1,0,0,1-.315.039l-.3-.011a1,1,0,0,1-.3-.058l-.266-.1a1,1,0,0,1-.149-.067l-1.05-.583-2.617-.728a1,1,0,0,1-.187-.073l-.491-.251a1,1,0,0,1-.174-.113l-.189-.153-.025-.021-.193-.167a1,1,0,0,1-.1-.1l-.327-.375a1,1,0,0,1-.123-.176l-.724-1.32a1,1,0,0,1-.081-.192l-.3-1a1,1,0,0,1-.03-.133l-.418-2.651a1,1,0,0,1-.011-.117l0-.058-.164.141a1,1,0,0,1-.367.2l-.255.076a1,1,0,0,1-.5.019l-.265-.058a1,1,0,0,1-.137-.04l-.251-.094a1,1,0,0,1-.2-.1l-.229-.15A1,1,0,0,1,12,35.446L10.432,34.17a1,1,0,0,1-.122-.118l-.178-.2a1,1,0,0,1-.147-.223l-.128-.265a1,1,0,0,1-.078-.231L9.7,32.766a1,1,0,0,1-.021-.175l-.01-.345q0-.046,0-.091l.024-.383-.383-.284a1,1,0,0,1-.366-.53l-.113-.4a1,1,0,0,1-.037-.312l.026-.662a1,1,0,0,1,.027-.193l.329-1.375.076-.618.015-.3-.425-1.317a1,1,0,0,1-.046-.239l-.138-2.026a1,1,0,0,1,0-.144l.048-.633a1,1,0,0,1,.038-.207l.611-2.079.158-1.117a1,1,0,0,1,.036-.159l.123-.393a1,1,0,0,1,.054-.136l.581-1.2.055-.259v-.07l-.033-.1-.01-.031-.077-.251a1,1,0,0,1-.033-.145l-.04-.266a1,1,0,0,1-.008-.234l.026-.305a1,1,0,0,1,.048-.231l.1-.306a1,1,0,0,1,.091-.2l.251-.418a1,1,0,0,1,.081-.116l.4-.487a1,1,0,0,1,.128-.131l.389-.331a1,1,0,0,1,.153-.107l5.346-3.048L24.87,5.571a1,1,0,0,1,.285-.123l1.138-.291A1,1,0,0,1,26.541,5.126Zm1.947,3.292L26.392,7.2l-.589.151-7.58,4.774-.038.023L12.9,15.157l-.248.211-.293.361-.158.263-.03.089-.006.069.011.076.051.165.082.239a1,1,0,0,1,.054.324v.342a1,1,0,0,1-.022.208l-.1.48a1,1,0,0,1-.077.226l-.6,1.247-.077.245-.157,1.108a1,1,0,0,1-.031.142L10.7,23l-.035.456.125,1.832.443,1.374a1,1,0,0,1,.047.357l-.026.516q0,.036-.006.071l-.087.709a1,1,0,0,1-.02.111l-.319,1.335-.013.343.334.248a1,1,0,0,1,.244.261l.138.214a1,1,0,0,1,.155.446l.026.27a1,1,0,0,1,0,.158l-.033.533.006.211.033.157.016.033.033.038,1.4,1.143a1,1,0,0,1,.13-.187l.164-.186a1,1,0,0,1,.15-.139l.2-.153a1,1,0,0,1,.382-.176l.291-.065a1,1,0,0,1,.253-.023l.316.011a1,1,0,0,1,.708.33l.229.254a1,1,0,0,1,.2.323l.164.444a1,1,0,0,1,.061.308l.034.879.4,2.525.252.834.622,1.134.21.241.128.11.1.077.308.158,2.634.733a1,1,0,0,1,.217.089l1.054.585.048-.08.275-.642a1,1,0,0,1,.087-.161l.291-.437q.019-.028.039-.055l.142-.185a1,1,0,0,1,.108-.119l.189-.178a1,1,0,0,1,.106-.087l.215-.153q.037-.026.076-.049l.4-.235.032-.092.129-.474.067-.429-.016-.38-.434-1.717a1,1,0,0,1-.026-.152l-.051-.546a1,1,0,0,1,.007-.242l.04-.266a1,1,0,0,1,.027-.123l.346-1.225.018-.535-.219-1.306-.576-2.536a1,1,0,0,1-.024-.184l-.036-.96a1,1,0,0,1,.069-.4l.189-.48a1,1,0,0,1,.184-.3l.353-.4a1,1,0,0,1,.428-.282l.876-.294a1,1,0,0,1,.035-.211l.113-.407a1,1,0,0,1,.056-.153l.608-1.311.119-.362.01-.08-.068-.243-.013-.025-.188-.266a1,1,0,0,1-.133-.263l-.189-.571a1,1,0,0,1-.027-.531l.026-.117a1,1,0,0,1,.041-.138l.091-.24a1,1,0,0,1,.107-.207l.126-.186-.087-.158a1,1,0,0,1-.1-.711l.051-.218a1,1,0,0,1,.158-.351l.142-.2a1,1,0,0,1,.178-.192l.185-.153a1,1,0,0,1,.121-.086l.124-.075.154-.154.237-.3.7-1.083q.019-.029.04-.057l.2-.269a1,1,0,0,1,.223-.216l.394-.277a1,1,0,0,1,.2-.11l.251-.1a1,1,0,0,1,.238-.063l.294-.04a1,1,0,0,1,.271,0l.291.04a1,1,0,0,1,.357.121l.312.177a1,1,0,0,1,.2-.3l.669-.684a1,1,0,0,1,.463-.268l.28-.073q.047-.012.095-.02l.389-.062a1,1,0,0,1,.3,0l3.331.478.276-.016.125-.027.462-.27-1.277-.569-.928-.3-.307-.036a1,1,0,0,1-.131-.024l-.459-.117a1,1,0,0,1-.117-.038l-2.389-.935a1,1,0,0,1-.168-.085l-.4-.254a1,1,0,0,1-.226-.194l-.229-.266a1,1,0,0,1-.242-.652v-.262a1,1,0,0,1,.008-.125l-.2-.007a1,1,0,0,1-.257-.043l-.654-.2a1,1,0,0,1-.138-.054l-.342-.163a1,1,0,0,1-.31-.23l-.218-.24a1,1,0,0,1-.185-.294l-.088-.215a1,1,0,0,1-.07-.287l-.021-.229q0-.046,0-.091V9.122q0-.045,0-.09l.036-.4-.01-.063-.02-.048-.008-.008Z" transform="translate(-8.659 -5.126)" fill="#fff"/></svg>