<svg xmlns="http://www.w3.org/2000/svg" width="29.97" height="35.267" viewBox="0 0 29.97 35.267"><path d="M34.492,39.127a1.117,1.117,0,0,1-.825-.364,1.154,1.154,0,0,1-.224-.365,1.247,1.247,0,0,1-.185-.14,3.435,3.435,0,0,0-.576-.048,4.136,4.136,0,0,0-1.9.477,1,1,0,0,1-.513.143l-14.533.028a1,1,0,0,1-1-1v-4.42H10.318a1,1,0,0,1-1-1.008l.138-16.774a1,1,0,0,1,1.285-.95,11.461,11.461,0,0,1,3.549,1.687l.051,0c.371,0,.774-.7,1.052-1.831a19,19,0,0,0,.424-3.3,4.28,4.28,0,0,1,.313-2.953q-.013-.033-.026-.067a1.273,1.273,0,0,1,.111-1.223,1.3,1.3,0,0,1,.266-.516,8.828,8.828,0,0,1,.32-.984c.163-.41.657-1.659,1.746-1.659a1.32,1.32,0,0,1,.444.077,1,1,0,0,1,.641.727V4.67a1.481,1.481,0,0,1,.37.873c.019.15.026.3.032.432,0,.043,0,.093.007.143a1,1,0,0,1,.69,1.333l.008.006.03.025a1,1,0,0,1,.335.531,4.65,4.65,0,0,1,.088.75,8.6,8.6,0,0,0,.2,1.475,1.05,1.05,0,0,1,.234-.013,1.2,1.2,0,0,1,.465-.1,1.113,1.113,0,0,1,1.033.713c.024.052.046.109.069.171a3.873,3.873,0,0,1,.474.329,1.886,1.886,0,0,0,.253.179,1,1,0,0,1,.633,1.2,1.037,1.037,0,0,1-.063.744l.033.083a2.422,2.422,0,0,1,.219,1.311c.019.03.044.067.071.1a1.038,1.038,0,0,1,.714.474,1.024,1.024,0,0,1,.117.817c.022.045.048.093.068.132a2.558,2.558,0,0,1,.305.812,1,1,0,0,1-.064.528,1.293,1.293,0,0,0-.1.392,1,1,0,0,1,.415.84.509.509,0,0,0,.061.2,1,1,0,0,1,.453-.031,2.761,2.761,0,0,1,1.643,1.035,3.409,3.409,0,0,0,.274.285,1.956,1.956,0,0,1,.484.189,1.541,1.541,0,0,1,.518.417c.142.1.274.189.314.217.084.059.2.145.3.22.053.04.094.073.129.1a1.012,1.012,0,0,1,.381.812,1.127,1.127,0,0,1,.225.211,1.292,1.292,0,0,1,.461.7,1.084,1.084,0,0,1,.2.417,1.193,1.193,0,0,1,.2.332,1.5,1.5,0,0,1,.1.445,1.278,1.278,0,0,1,.9.4,1,1,0,0,1,1.181.459,2.47,2.47,0,0,1,.308,1.653c.009.061.015.121.02.177a1,1,0,0,1,.26.265,3.292,3.292,0,0,0,.525.388,2.294,2.294,0,0,1,.934.662,10.327,10.327,0,0,1,.854.958,4.259,4.259,0,0,1,.481.738,1.43,1.43,0,0,1,.685.6,1.251,1.251,0,0,1,.152.657,1,1,0,0,1,.36,1.324c-.138.258-.1.515.036,1.082.024.1.047.2.068.3a1,1,0,0,1-.033.536,3.279,3.279,0,0,1,.345.56,1.141,1.141,0,0,1,.118.582,1,1,0,0,1-.042.882,1.923,1.923,0,0,1-1.8.908c-.112,0-.219,0-.322-.007s-.174-.006-.25-.006a1.41,1.41,0,0,0-.158.007q-.037.026-.077.048a1.521,1.521,0,0,1-.341.655,1.4,1.4,0,0,1-.872.44A1.254,1.254,0,0,1,34.492,39.127Zm-23.166-7.69h4.413a1,1,0,0,1,1,1v4.418l13.284-.026a6.179,6.179,0,0,1,2.659-.62,5.364,5.364,0,0,1,1.481.206,1,1,0,0,1,.513.347l.033.017.033,0a1.53,1.53,0,0,1,.842-.853,2.165,2.165,0,0,1,1.206-.3l.154,0a2.36,2.36,0,0,1-.226-.42,1.022,1.022,0,0,1-.1-.138,1.037,1.037,0,0,1,0-1.034q.023-.039.05-.078a3.486,3.486,0,0,1-.052-1.3,1,1,0,0,1-.418-.826,1,1,0,0,1-.56-.807,7.337,7.337,0,0,0-1.085-1.26,3.752,3.752,0,0,1-.67-.389,4.658,4.658,0,0,1-.539-.42,1.258,1.258,0,0,1-.781-.74,2.3,2.3,0,0,1-.134-.716c0-.061-.009-.132-.016-.186a1,1,0,0,1-1.16-.367.569.569,0,0,0-.037-.048l-.026-.01a1.415,1.415,0,0,1-.906-1.006,2.2,2.2,0,0,1-.251-.847,1,1,0,0,1-.3-.636,1,1,0,0,1-.091-.221,1,1,0,0,1-.737-.708,1.166,1.166,0,0,1-.108-.177,1.445,1.445,0,0,1-.175-.553c-.108-.074-.2-.137-.25-.164a1,1,0,0,1-.216-.172,1,1,0,0,1-.148-.05,3.068,3.068,0,0,1-1.081-.861,2.256,2.256,0,0,0-.343-.34,1.889,1.889,0,0,1-.331.03,1.838,1.838,0,0,1-1.323-.573,2.479,2.479,0,0,1-.614-1.165,2.149,2.149,0,0,1-.357-2.081l-.025-.048a3.928,3.928,0,0,1-.2-.418,1,1,0,0,1-.1-.1,1.1,1.1,0,0,1-.185-.3c-.031-.045-.084-.113-.121-.162a2.17,2.17,0,0,1-.58-1.775,2.374,2.374,0,0,0-.1-.274,2.263,2.263,0,0,1-.211-1.038,1.209,1.209,0,0,1-.049-.358,1.761,1.761,0,0,0-.207-.146,1,1,0,0,1-.5-.251,1.16,1.16,0,0,1-.6.167,1.117,1.117,0,0,1-.665-.219,1,1,0,0,1-.1-.088A5.336,5.336,0,0,1,19.2,8.9c0-.046-.007-.1-.01-.144a1.791,1.791,0,0,1-.668-1.175,1.551,1.551,0,0,1-.175-.23q-.007.023-.015.047a1.058,1.058,0,0,1-.2.346q-.005.024-.011.047a1.059,1.059,0,0,1,.06,1.107,1,1,0,0,1-.254.294,3.055,3.055,0,0,0-.25,1.314,1,1,0,0,1,.157.592v.01a21.861,21.861,0,0,1-.493,3.929,6.459,6.459,0,0,1-.884,2.148,2.5,2.5,0,0,1-2.11,1.205,2.759,2.759,0,0,1-.854-.142,1,1,0,0,1-.425-.272,5.341,5.341,0,0,0-1.618-.9Z" transform="translate(-9.318 -3.86)" fill="#fff"/></svg>