<svg xmlns="http://www.w3.org/2000/svg" width="21.035" height="18.148" viewBox="0 0 21.035 18.148"><g transform="translate(0.518 0.5)"><path d="M1.11,17.148h0a1.119,1.119,0,0,1-.961-.539,1.061,1.061,0,0,1,0-1.083L9.033.545A1.114,1.114,0,0,1,9.948,0h.045a1.126,1.126,0,0,1,.968.545l8.893,14.981a1.061,1.061,0,0,1,0,1.083,1.12,1.12,0,0,1-.962.539H1.11Zm8.835-4.054a.968.968,0,1,0,1.035.967A1,1,0,0,0,9.945,13.094Zm0-9.333a1.432,1.432,0,0,0-1.083.51,1.39,1.39,0,0,0-.336.774,1.284,1.284,0,0,0,0,.231l.589,6.3a.754.754,0,0,0,.241.482.866.866,0,0,0,.593.23h0a.87.87,0,0,0,.543-.189.755.755,0,0,0,.289-.523l.589-6.3a1.329,1.329,0,0,0-.312-.977A1.429,1.429,0,0,0,9.949,3.76H9.941Z" transform="translate(0)" fill="#C9201D" stroke="rgba(0,0,0,0)" stroke-miterlimit="10" stroke-width="1"/></g></svg>