<svg xmlns="http://www.w3.org/2000/svg" xmlns:xlink="http://www.w3.org/1999/xlink" width="48" height="48" viewBox="0 0 48 48">
    <defs>
        <clipPath id="a">
            <path d="M641.369-394.083v-12.36h3.412l.452-4.259h-3.864l.006-2.132c0-1.111.106-1.706,1.7-1.706h2.133v-4.26H641.8c-4.1,0-5.542,2.066-5.542,5.541v2.557H633.7v4.259h2.555v12.36Z" transform="translate(-633.7 418.8)" fill="none" stroke="#707070" stroke-width="1" clip-rule="evenodd" />
        </clipPath>
        <clipPath id="b">
            <path d="M629.2-394.632h24.168V-418.8H629.2Z" transform="translate(-629.2 418.8)" fill="none" stroke="#707070" stroke-width="1" />
        </clipPath>
    </defs>
    <g transform="translate(-69 -1358)">
        <path d="M24,0A24,24,0,1,1,0,24,24,24,0,0,1,24,0Z" transform="translate(69 1358)" fill="#1877f2" />
        <g transform="translate(87.5 1370)" clip-path="url(#a)">
            <g transform="translate(-6.179 0)" clip-path="url(#b)">
                <path d="M628.7-423.8h25.265v38.449H628.7Z" transform="translate(-629.387 416.934)" fill="#fff" />
                <path d="M628.2-424.3h26.265v39.449H628.2Zm25.265,1H629.2v37.449h24.265Z" transform="translate(-629.387 416.934)" fill="#707070" />
            </g>
        </g>
    </g>
</svg>