<svg xmlns="http://www.w3.org/2000/svg" width="37.362" height="28.102" viewBox="0 0 37.362 28.102"><path d="M41.286,12.734h0a1.161,1.161,0,0,1,1.115.772,2,2,0,0,1,.1.624,1.868,1.868,0,0,0,.088.571,1,1,0,0,1,.018.612c-.12.416-.262.808-.4,1.187a7.987,7.987,0,0,0-.574,2.236,1,1,0,0,1-.134.441,4.549,4.549,0,0,0-.487,2.079,9.387,9.387,0,0,1-.183,1.42,5.208,5.208,0,0,1-1.2,2.313h0a1.7,1.7,0,0,1-.023.808,1.425,1.425,0,0,1-.814.9,2.24,2.24,0,0,1-.208.16,1,1,0,0,1-.063.13,1.62,1.62,0,0,1-1.189.709L37.3,27.7q-.027.033-.057.064a2.869,2.869,0,0,0-.58.87c-.032.069-.063.135-.1.2q-.017.031-.036.061a1.192,1.192,0,0,1-.363.558,4.332,4.332,0,0,0-.1.435c-.027.135-.056.274-.092.415a1,1,0,0,1-.235.43,1.009,1.009,0,0,1-.194.2q-.024.033-.05.066a2.47,2.47,0,0,1-.337.329l-.064.055a2.392,2.392,0,0,1-.328,1.144,1.184,1.184,0,0,1,.09.56,1.2,1.2,0,0,1-.378.772,1.6,1.6,0,0,1-.254.265,1,1,0,0,1-.548.226,6.566,6.566,0,0,0-.66,1.331c-.046.115-.087.217-.126.308a5.642,5.642,0,0,1-.331,1.526c-.079.256-.179.583-.229.817a1.2,1.2,0,0,1,.221.494,1.173,1.173,0,0,1-.116.769,1,1,0,0,1-1.373,1.157c-.495-.218-1.052-.4-1.642-.6a11.738,11.738,0,0,1-2.833-1.21,3.287,3.287,0,0,1-1.563-2.408,2.92,2.92,0,0,0-.719.141,1,1,0,0,1-.116.049,1.093,1.093,0,0,1-.373.069,1,1,0,0,1-.169-.014,1.809,1.809,0,0,1-.422.162,1,1,0,0,1-.411.018,3.53,3.53,0,0,1-.764-.239c-.079-.032-.186-.076-.264-.1a1.961,1.961,0,0,1-.727.161,1.366,1.366,0,0,1-.582-.127,8.426,8.426,0,0,1-.954-.2,5.914,5.914,0,0,0-1.336-.232,1.472,1.472,0,0,1-1.278.731,3.472,3.472,0,0,1-2.1-1.177c-.391-.346-1.045-.926-1.342-.947a1,1,0,0,1-.648-.3,3.4,3.4,0,0,1-.91-1.573c-.078-.006-.184-.011-.328-.011a1,1,0,0,1-1.266.173,4.231,4.231,0,0,1-1.1-1.113c-.422-.557-.6-.742-.853-.742a.877.877,0,0,0-.169.019,2.791,2.791,0,0,1-.546.056,2.154,2.154,0,0,1-2.016-1.363,4.85,4.85,0,0,1-.346-1.956V16.031a1,1,0,0,1,1-1l21.911-.06a12.9,12.9,0,0,1,1.392-.987,4.824,4.824,0,0,1,1.886-.29c.927,0,2.935.142,4.057,1.283a1.3,1.3,0,0,1,.616-.229,1.276,1.276,0,0,1,.282-.775,1.483,1.483,0,0,1,.968-.511A2.089,2.089,0,0,1,38.6,13.1a4.175,4.175,0,0,1,.69.071,2.852,2.852,0,0,0,.423.05.517.517,0,0,0,.206-.036A3.256,3.256,0,0,1,41.286,12.734ZM39.656,18.38a10.21,10.21,0,0,1,.671-2.561c.093-.258.183-.506.264-.754a2.506,2.506,0,0,1-.877.152,4.457,4.457,0,0,1-.746-.076A2.669,2.669,0,0,0,38.6,15.1c-.058,0-.065,0-.121.055a1,1,0,0,1-.252.181,1.538,1.538,0,0,1-.033.393,1.406,1.406,0,0,1-.976,1.044,1,1,0,0,1-.109.031,1.06,1.06,0,0,1-.515.133,1.085,1.085,0,0,1-.176-.014,1.365,1.365,0,0,1-1.034.552,1.2,1.2,0,0,1-1.143-.9c-.249-.519-1.379-.88-2.769-.88a4.95,4.95,0,0,0-.988.08c-.25.15-.856.607-1.312.975a1,1,0,0,1-.625.221l-21.261.058V28.019a3.031,3.031,0,0,0,.173,1.144c.078.176.115.176.188.176a.8.8,0,0,0,.154-.018,2.879,2.879,0,0,1,.562-.057A3.069,3.069,0,0,1,10.81,30.8l0,0a1.159,1.159,0,0,1,1.248.16,2.148,2.148,0,0,1,1.069.319,1.706,1.706,0,0,1,.683,1.074,1.476,1.476,0,0,0,.245.558,5.733,5.733,0,0,1,2.071,1.364c.158.14.361.32.539.462a1,1,0,0,1,.671-.451,4.562,4.562,0,0,1,.794-.069,7.481,7.481,0,0,1,1.875.294,5.165,5.165,0,0,0,.848.171,1,1,0,0,1,.257.049,2.65,2.65,0,0,1,.268-.094,1,1,0,0,1,.22-.036l.1,0a2.718,2.718,0,0,1,1.044.244,1.082,1.082,0,0,1,.664-.226,1.393,1.393,0,0,1,.484.094,4.52,4.52,0,0,1,1.176-.179,1.82,1.82,0,0,1,1.891,1.253,1,1,0,0,1,.04.3c-.021,1.041.959,1.478,3.044,2.165l.207.068a1,1,0,0,1,.072-.131,8.577,8.577,0,0,1,.322-1.266,7.236,7.236,0,0,0,.242-.914,1,1,0,0,1,.112-.7c.029-.056.1-.243.16-.381a5.163,5.163,0,0,1,1.422-2.278,1.076,1.076,0,0,1,.294-.888.951.951,0,0,0,.216-.4,1,1,0,0,1-.015-.2,1.618,1.618,0,0,1,.5-1.091c0-.005,0-.011,0-.016a1,1,0,0,1,.6-.89,2.311,2.311,0,0,1,.5-1.061,1.276,1.276,0,0,1,.171-.305l0-.01a4.853,4.853,0,0,1,.829-1.281,1.467,1.467,0,0,1,.882-.681,1.18,1.18,0,0,1,.359-.334c.084-.052.17-.094.262-.14a2.428,2.428,0,0,0,.286-.157,1,1,0,0,1,.139-.138,1.835,1.835,0,0,1-.02-.429,1,1,0,0,1,.2-.523c.091-.12.179-.234.265-.344a3.306,3.306,0,0,0,.817-1.484q0-.019.008-.038a7.674,7.674,0,0,0,.14-1.136A6.616,6.616,0,0,1,39.656,18.38Z" transform="translate(-5.285 -12.734)" fill="#fff"/></svg>