<svg xmlns="http://www.w3.org/2000/svg" width="40" height="40" viewBox="0 0 40 40"><g transform="translate(-373 -2820)"><g transform="translate(381 2828)"><path d="M24.959,17.382a5.612,5.612,0,0,0-2.979-8.35V4.8a2.723,2.723,0,0,0-2.715-2.715H4.335A2.723,2.723,0,0,0,1.62,4.8v19a2.723,2.723,0,0,0,2.715,2.715h14.93A2.723,2.723,0,0,0,21.98,23.8V19.721a5.636,5.636,0,0,0,1.193-.565l3.661,3.661,1.786-1.786ZM19.265,23.8H4.335V4.8h14.93v4a5.651,5.651,0,0,0-4.323,3.443H6.55v2.516h8a5.629,5.629,0,0,0,4.713,5.181Zm2.715-6.858a3.132,3.132,0,1,1,1.344-2.571A3.114,3.114,0,0,1,21.98,16.947Z" transform="translate(-1.62 -2.087)" fill="#333"/><rect width="8.161" height="2.843" transform="translate(4.696 14.968)" fill="#333"/><rect width="11.659" height="2.843" transform="translate(4.534 5.054)" fill="#333"/></g><rect width="40" height="40" transform="translate(373 2820)" fill="none"/></g></svg>