<svg xmlns="http://www.w3.org/2000/svg" width="32" height="32" viewBox="0 0 32 32"><defs><style>.a{fill:none;}.b{fill:#fff;}.c{fill:#C9201D;}</style></defs><g transform="translate(-500 -2948.579)"><circle class="a" cx="16" cy="16" r="16" transform="translate(500 2948.579)"/><g transform="translate(508.36 2956.396)"><path class="b" d="M7.39,0a.83.83,0,0,0-.68.4L.11,11.532a.786.786,0,0,0,0,.8.831.831,0,0,0,.717.4h13.2a.831.831,0,0,0,.717-.4.786.786,0,0,0,0-.8L8.142.4A.832.832,0,0,0,7.39,0Z" transform="translate(0 0)"/><g transform="translate(6.5 3.776)"><path class="c" d="M1.14.718a.657.657,0,0,1-.57.718A.657.657,0,0,1,0,.718.657.657,0,0,1,.57,0a.657.657,0,0,1,.57.718Z" transform="translate(0.291 5.36)"/><path class="c" d="M1.719.717A.748.748,0,0,0,1.531.3.9.9,0,0,0,.206.285.751.751,0,0,0,0,.717.692.692,0,0,0,0,.847L.358,4.362a.412.412,0,0,0,.145.27.547.547,0,0,0,.358.128.552.552,0,0,0,.329-.105.418.418,0,0,0,.174-.293L1.719.847A.684.684,0,0,0,1.719.717Z" transform="translate(0 0)"/></g></g></g></svg>