<svg xmlns="http://www.w3.org/2000/svg" xmlns:xlink="http://www.w3.org/1999/xlink" width="39.071" height="22.806" viewBox="0 0 39.071 22.806"><defs><clipPath id="a"><rect width="39.071" height="22.806" transform="translate(0 0)" fill="none"/></clipPath></defs><g transform="translate(0 0)"><g clip-path="url(#a)"><path d="M23.9,22.805a1,1,0,0,1-.591-.194L23.3,22.6l-.023-.017a1.975,1.975,0,0,1-.184-.159,1,1,0,0,1-.25-.418c-.056-.048-.1-.084-.139-.11a1,1,0,0,1-1.251-.163,4.984,4.984,0,0,1-.406-.507,1.493,1.493,0,0,1-.623-.072,1,1,0,0,1-.368-.2,8.341,8.341,0,0,0-1.825-.741,1,1,0,0,1-.158.019l-.081,0a1.366,1.366,0,0,1-1.315-.865,1,1,0,0,1-.117.032,8.768,8.768,0,0,0-2.211.825,3.758,3.758,0,0,1-1.553,1.144,1.169,1.169,0,0,1-.958.5,1.79,1.79,0,0,1-.737-.2,1.326,1.326,0,0,0-.468-.14h-.023a1,1,0,0,1-.648-.193,5.186,5.186,0,0,0-1.281-.608,6.4,6.4,0,0,1-1.627-.793A1.048,1.048,0,0,0,6.7,19.9c-.089,0-.184,0-.275.009-.115.005-.23.01-.352.01a2.352,2.352,0,0,1-1.487-.47,3.162,3.162,0,0,0-.44-.036c-.057,0-.1,0-.139.006a1,1,0,0,1-1.192.484,1,1,0,0,1-.965-.314A8.891,8.891,0,0,0,.463,18.528,1,1,0,0,1,0,17.688c0-1.869,0-3.783,0-5.713V9.106C0,6.375,0,3.644,0,1A1,1,0,0,1,1.276.039a2.177,2.177,0,0,0,.44.052l.05,0H1.79A1,1,0,0,1,2.32.268a1.892,1.892,0,0,0,.5.195l.011,0c.087.026.179.053.273.086A1.963,1.963,0,0,1,4.264.211,5.738,5.738,0,0,1,5.412.365c.163.034.316.067.443.084a1,1,0,0,1,.289.085,1.375,1.375,0,0,1,.6.617l0,0c.017.029.04.069.058.1a1,1,0,0,1,.57,1.058c0,.017-.008.05-.011.085a1,1,0,0,1,.3.332,1,1,0,0,1,1.566-.09l.015.017a2.519,2.519,0,0,1,1.761.6,1,1,0,0,1,.566.928c0,.1-.013.218-.022.317a2.452,2.452,0,0,0-.014.42,3.974,3.974,0,0,1,.457.183,1,1,0,0,1,.539.688,6.468,6.468,0,0,1,3,1.891A8.131,8.131,0,0,0,17.042,8.9c.043-.013.087-.024.131-.034a1,1,0,0,1,.148-.44,1.806,1.806,0,0,1,1.642-.716c.158,0,.341.007.576.021.164.01.332.02.482.02a1.927,1.927,0,0,0,.242-.013,1,1,0,0,1,.757.213,2.616,2.616,0,0,0,1.308.441l.017,0a7.215,7.215,0,0,1,.942.2,4.739,4.739,0,0,1,1.277-.229,3.316,3.316,0,0,1,1.109.228c.227.075.5.167.9.27a1,1,0,0,1,.339.076,1,1,0,0,1,.792-.316l.04,0A1.122,1.122,0,0,1,28,8.375l.016-.011a1.244,1.244,0,0,1,.936-.181,1,1,0,0,1,.285.109c.038,0,.1-.017.144-.027h.006a2.445,2.445,0,0,1,.524-.066,2.043,2.043,0,0,1,1.276.483,1,1,0,0,1,.224.24,3.477,3.477,0,0,1,.475,1.6,1.877,1.877,0,0,1,.589,1.311v.013a1.243,1.243,0,0,1-.027.193c1.213.416,2.476.946,3.705,1.46l.092.038c.726.3,1.477.618,2.187.893a1,1,0,0,1,.6,1.209,1.341,1.341,0,0,1-.29.957c-.52.633-1.482.7-3.137.774-2.645.114-6.263.27-9.087,3.48a1,1,0,0,1-.316.24c-.241.117-.6.255-.953.39l-.016.006-.3.116A1.045,1.045,0,0,1,23.9,22.805Zm-1.254-2.973a1.877,1.877,0,0,1,.852.215,8.679,8.679,0,0,1,1.015-.433l.016-.006c.207-.08.452-.173.633-.249a11.337,11.337,0,0,1,5.385-3.325,20.253,20.253,0,0,1,4.905-.664l-.072-.03c-1.445-.605-2.937-1.23-4.279-1.64a1.368,1.368,0,0,1-.806-1.956l-.025-.027a1.362,1.362,0,0,1-.375-.926,2.319,2.319,0,0,0-.081-.573l-.013,0a2.664,2.664,0,0,1-.585.073q-.068,0-.135,0a1.373,1.373,0,0,1-.321.218,1.364,1.364,0,0,1-.636.672,1.827,1.827,0,0,1-1.571.11,1.605,1.605,0,0,1-.689-.55c-.353-.1-.615-.184-.818-.251a1.776,1.776,0,0,0-.482-.127,4.591,4.591,0,0,0-.906.2,1.374,1.374,0,0,1-.83-.02l-.012,0a4.586,4.586,0,0,0-.792-.173l-.012,0a4.856,4.856,0,0,1-1.909-.617h-.083c-.212,0-.42-.013-.6-.024l-.2-.01,0,.011a1.628,1.628,0,0,1-1.457,1.066l-.011,0-.083.012a1.377,1.377,0,0,1-.642.16,1.361,1.361,0,0,1-.563-.121,8.642,8.642,0,0,1-2.3-1.7A4.534,4.534,0,0,0,11.98,7.721a1.341,1.341,0,0,1-.334-.1,1.835,1.835,0,0,1-.96-.87A1.394,1.394,0,0,1,10.4,6.6l-.008-.005a2.1,2.1,0,0,1-.861-1.908A2.423,2.423,0,0,0,9.1,4.653c-.052,0-.106,0-.16,0H8.877a1.372,1.372,0,0,1-.364.284,1.7,1.7,0,0,1-.813.209,1.645,1.645,0,0,1-.562-.1A2.135,2.135,0,0,1,5.974,3.864a1.731,1.731,0,0,1-.6-1.211,2.226,2.226,0,0,1-.239-.3L5,2.322a4.308,4.308,0,0,0-.736-.111H4.245a1.379,1.379,0,0,1-1.022.458A1.365,1.365,0,0,1,2.5,2.463c-.044-.02-.16-.055-.245-.08l-.009,0C2.171,2.358,2.088,2.333,2,2.3c0,2.233,0,4.517,0,6.8v2.868c0,1.747,0,3.481,0,5.18.241.168.538.384.81.609a2.346,2.346,0,0,1,1.335-.347,5.469,5.469,0,0,1,.947.092,1.364,1.364,0,0,1,.673.327c.072.065.108.087.307.087.076,0,.165,0,.259-.008s.231-.011.369-.011a2.873,2.873,0,0,1,1.244.253l.022.011a1.4,1.4,0,0,1,.226.14,4.568,4.568,0,0,0,1.177.558,7.819,7.819,0,0,1,1.5.687,2.922,2.922,0,0,1,.725.173,1.38,1.38,0,0,1,.418-.2l.006,0a1.745,1.745,0,0,0,.874-.673l0-.005a1.376,1.376,0,0,1,.373-.306l0,0a10.936,10.936,0,0,1,2.61-1.029,1.692,1.692,0,0,1,1.034-.38,1.505,1.505,0,0,1,.338.039,1.572,1.572,0,0,1,1.119,1.04c.069.007.127.017.17.025h.007a12.44,12.44,0,0,1,2.392.926,1.37,1.37,0,0,1,.54-.032,1.413,1.413,0,0,1,1.033.711l.061,0Z" fill="#fff"/></g></g></svg>