<svg xmlns="http://www.w3.org/2000/svg" xmlns:xlink="http://www.w3.org/1999/xlink" width="48" height="48" viewBox="0 0 48 48"><defs><clipPath id="b"><rect width="48" height="48"/></clipPath></defs><g id="a" clip-path="url(#b)"><rect width="48" height="48" fill="#d8d8d8"/><path d="M47.546,48.254-.354.354.354-.354l47.9,47.9Z" transform="translate(0.1 0.1)" fill="#707070"/><path d="M.354,48.354l-.707-.707,48-48,.707.707Z" fill="#707070"/><rect width="23" height="18" transform="translate(12.5 15)" fill="#d8d8d8"/><path d="M4.492,17H2.656V8.359H4.492ZM2.547,6.07a1.017,1.017,0,0,1,.27-.758,1.05,1.05,0,0,1,.77-.266,1.028,1.028,0,0,1,.754.266,1.017,1.017,0,0,1,.27.758,1,1,0,0,1-.27.738,1.019,1.019,0,0,1-.754.27,1.041,1.041,0,0,1-.77-.27A1,1,0,0,1,2.547,6.07ZM10.6,17.156a3.783,3.783,0,0,1-2.98-1.145A4.782,4.782,0,0,1,6.6,12.727,4.809,4.809,0,0,1,7.668,9.375,3.956,3.956,0,0,1,10.75,8.2a5.776,5.776,0,0,1,2.461.508l-.555,1.477a5.56,5.56,0,0,0-1.922-.453q-2.242,0-2.242,2.977a3.565,3.565,0,0,0,.559,2.184,1.934,1.934,0,0,0,1.637.73,4.7,4.7,0,0,0,2.32-.609v1.6a3.626,3.626,0,0,1-1.051.414A6.305,6.305,0,0,1,10.6,17.156Zm12.1-4.492a4.716,4.716,0,0,1-1.086,3.3,3.891,3.891,0,0,1-3.023,1.188,4.143,4.143,0,0,1-2.141-.547,3.61,3.61,0,0,1-1.43-1.57,5.348,5.348,0,0,1-.5-2.375A4.684,4.684,0,0,1,15.6,9.383,3.909,3.909,0,0,1,18.641,8.2,3.807,3.807,0,0,1,21.609,9.41,4.663,4.663,0,0,1,22.7,12.664Zm-6.289,0q0,2.992,2.211,2.992,2.188,0,2.188-2.992,0-2.961-2.2-2.961a1.879,1.879,0,0,0-1.676.766A3.9,3.9,0,0,0,16.414,12.664Zm16,4.336H30.57V11.688a2.325,2.325,0,0,0-.4-1.492A1.555,1.555,0,0,0,28.891,9.7a2.031,2.031,0,0,0-1.7.688,3.8,3.8,0,0,0-.539,2.3V17H24.813V8.359H26.25l.258,1.133H26.6a2.556,2.556,0,0,1,1.109-.953A3.718,3.718,0,0,1,29.3,8.2q3.109,0,3.109,3.164Z" transform="translate(6 12)" fill="#333"/></g></svg>