<svg xmlns="http://www.w3.org/2000/svg" viewBox="0 0 160 160" > 

 

    <g > 

        <g class="illustration-shape" fill="#C8D9EE" > 

            <circle class="cls-1" cx="80" cy="80" r="73.25" /> 

        </g> 

    </g> 

    <g > 

        <g class="illustration-secondary" fill="#B3CBE8" > 

            <polygon class="cls-2" points="142.28 38.38 132.53 34.04 127.99 32.59 126.28 32.39 124.34 31.9 114.22 27.94 112.51 26.86 111.54 25.74 111.54 24.63 111.76 23.49 111.76 22.36 111.11 20.87 110.05 20.16 108.43 19.9 106.66 19.84 103.89 18.99 102.44 18.3 101.51 17.28 101.14 16.37 101.05 15.4 101.05 14.71 101.25 12.51 101.05 11.21 100.45 9.78 99.6 8.92 98.59 8.18 88.02 2.02 83.2 3.25 50.54 23.83 27.82 36.78 26.17 38.18 24.5 40.24 23.43 42.02 23 43.31 22.89 44.6 23.07 45.73 23.39 46.79 23.76 47.87 23.76 49.31 23.33 51.35 20.65 56.91 20.12 58.57 19.41 63.61 16.73 72.71 16.54 75.39 17.12 83.97 19.15 90.28 19.05 92.47 18.68 95.47 17.23 101.52 17.12 104.33 17.6 106.02 20.28 108.01 20.86 108.92 20.97 110.06 20.82 112.5 20.86 113.97 21.18 115.5 21.72 116.63 22.48 117.49 29.12 122.9 30.09 123.53 31.15 123.93 32.27 124.18 33.35 123.85 34.09 123.22 35.11 121.28 35.8 120.5 36.66 119.85 37.9 119.57 39.24 119.62 40.21 120.7 40.9 122.57 41.05 126.55 42.82 137.78 44.1 142.01 47.17 147.6 48.55 149.19 49.37 149.89 50.17 150.54 52.25 151.6 63.81 154.82 68.7 157.53 69.82 157.93 71.1 157.98 72.22 157.66 73.08 157.01 73.73 156.16 74.32 155.19 75.6 152.2 76.83 150.35 77.43 149.57 78.23 148.82 79.14 148.17 81.06 147.04 81.93 146.35 82.51 145.44 82.88 144.38 83.53 142.01 83.91 139.54 83.8 137.08 81.86 129.38 81.65 127.07 81.82 125.95 83.42 120.26 83.53 117.06 82.51 110.99 80.05 100.14 79.89 96.07 80.69 94.04 82.19 92.36 87.87 90.45 88.89 88.45 88.78 87.34 89.25 85.61 91.94 79.84 92.64 77.68 92.84 76.1 92.21 73.83 91.83 73.08 90.86 71.71 90.06 69.29 90.16 68.8 90.55 67.78 92.21 65.33 91.94 64.14 91.57 63.07 90.92 61.9 91.14 60.97 91.74 60.13 92.52 59.48 93.49 58.89 94.68 57.71 95.95 56.11 99.05 51.35 99.91 50.21 101.58 49.04 102.64 48.61 103.89 48.44 105.12 48.61 108.06 50.27 109.14 50.59 110.68 50.12 111.49 49.52 112.4 47.38 115.24 44.48 116.42 44.17 118.07 43.91 132.59 45.99 134.52 45.88 136.03 45.56 138.97 43.83 141.22 42.23 143.47 40.15 143.47 39.67 143.2 38.92 142.28 38.38" /> 

        </g> 

    </g> 

    <g > 

        <g class="illustration-primary" fill="#2157AA"> 

            <path class="cls-3" d="M144.88,39.18l-.26-.75a1.51,1.51,0,0,0-.66-.81l-.93-.54-.14-.07-9.75-4.34-.15-.06-4.55-1.45a1.27,1.27,0,0,0-.28-.06l-1.61-.19-1.75-.44-9.9-3.88-1.4-.88-.46-.53v-.41l.19-1a1.33,1.33,0,0,0,0-.28V22.36a1.53,1.53,0,0,0-.13-.59l-.65-1.5a1.48,1.48,0,0,0-.54-.65l-1.06-.71a1.56,1.56,0,0,0-.6-.23l-1.61-.26-.19,0-1.57,0-2.48-.76-1.08-.52-.55-.6-.18-.46-.07-.68v-.55l.2-2.14a2.17,2.17,0,0,0,0-.36l-.2-1.29a2.12,2.12,0,0,0-.1-.36l-.6-1.43a1.63,1.63,0,0,0-.32-.47l-.85-.86a1.37,1.37,0,0,0-.18-.16l-1-.74-.13-.09L88.78.73A1.49,1.49,0,0,0,87.65.57L82.83,1.8A1.78,1.78,0,0,0,82.4,2L49.8,22.52l-22.72,13a1.19,1.19,0,0,0-.23.16L25.2,37a1.21,1.21,0,0,0-.19.2L23.33,39.3l-.12.17-1.06,1.77a2,2,0,0,0-.14.3l-.43,1.29a1.45,1.45,0,0,0-.07.35l-.11,1.3a1.38,1.38,0,0,0,0,.35L21.58,46a1.6,1.6,0,0,0,.05.21l.63,2v1l-.36,1.7-2.6,5.4a.7.7,0,0,0-.08.2l-.53,1.66a2,2,0,0,0-.05.24l-.7,4.93-2.64,9a1.8,1.8,0,0,0-.06.32L15,75.28a.74.74,0,0,0,0,.21l.58,8.58a1.53,1.53,0,0,0,.07.36l2,6-.09,1.86L17.2,95.2l-1.43,6a1.54,1.54,0,0,0,0,.3l-.11,2.8a1.19,1.19,0,0,0,.06.46l.47,1.7a1.54,1.54,0,0,0,.55.79l2.46,1.83.24.37.07.66-.15,2.33v.14l0,1.46,0,.26.33,1.54a1.23,1.23,0,0,0,.11.34l.54,1.13a1.56,1.56,0,0,0,.23.34l.75.86.18.18,6.64,5.4.13.09,1,.64a1.11,1.11,0,0,0,.29.14l1.06.4a.83.83,0,0,0,.21.06l1.12.25a1.36,1.36,0,0,0,.75,0l1.08-.32a1.48,1.48,0,0,0,.55-.3l.74-.63a1.51,1.51,0,0,0,.35-.44l.93-1.78.47-.54.49-.36.73-.16h.51l.35.4.51,1.38.14,3.74s0,.11,0,.17L41.34,138a1.46,1.46,0,0,0,0,.2l1.28,4.23a1.48,1.48,0,0,0,.12.29l3.06,5.59a1.57,1.57,0,0,0,.19.26l1.38,1.59.15.15,1.66,1.39a1.67,1.67,0,0,0,.26.17l2.08,1.06.28.11,11.39,3.17L68,158.84l.22.11,1.13.4a1.33,1.33,0,0,0,.45.08l1.28,0h0a1.4,1.4,0,0,0,.41-.06l1.13-.32a1.62,1.62,0,0,0,.49-.25l.86-.64a2,2,0,0,0,.29-.29l.64-.85a1.13,1.13,0,0,0,.1-.13l.58-1a1.14,1.14,0,0,0,.1-.19l1.22-2.86,1.1-1.65.52-.69.64-.6.77-.55,1.87-1.09.18-.12.87-.7a1.59,1.59,0,0,0,.32-.36l.58-.9a1.37,1.37,0,0,0,.16-.32l.37-1.07,0-.1L85,142.4a.75.75,0,0,0,0-.16l.38-2.46a1,1,0,0,0,0-.3L85.3,137a1.54,1.54,0,0,0,0-.3l-1.91-7.58-.19-2,.13-.85,1.57-5.59a1.51,1.51,0,0,0,.06-.36l.1-3.2a1,1,0,0,0,0-.3l-1-6.15L81.54,99.94l-.14-3.61L82,94.84,83,93.65l5.31-1.78a1.49,1.49,0,0,0,.86-.74l1-2a1.49,1.49,0,0,0,.16-.83l-.08-.83.37-1.34,2.63-5.66.06-.16.71-2.16a1.4,1.4,0,0,0,.06-.28l.2-1.59a1.48,1.48,0,0,0,0-.59l-.63-2.26a2.33,2.33,0,0,0-.11-.28l-.38-.75-.12-.19L92.21,71l-.6-1.81.28-.73,1.56-2.31A1.45,1.45,0,0,0,93.67,65l-.27-1.18c0-.05,0-.1,0-.15L93,62.58a1.22,1.22,0,0,0-.1-.24l-.37-.66.33-.52.55-.45.88-.53a1.23,1.23,0,0,0,.28-.23l1.19-1.18.11-.13L97.13,57a.83.83,0,0,0,.08-.12l3.07-4.71.69-.91,1.33-.94.73-.29.85-.12.75.1,2.69,1.53a1.69,1.69,0,0,0,.31.13l1.08.32a1.52,1.52,0,0,0,.87,0l1.54-.48a1.42,1.42,0,0,0,.44-.23l.82-.6a1.45,1.45,0,0,0,.5-.62l.79-1.88L116,45.83l.71-.19,1.35-.21,14.3,2a1.51,1.51,0,0,0,.3,0l1.92-.11.23,0,1.51-.33a1.3,1.3,0,0,0,.44-.17l2.95-1.72.11-.08,2.25-1.6.15-.12,2.24-2.08a1.48,1.48,0,0,0,.48-1.1v-.48A1.4,1.4,0,0,0,144.88,39.18Zm-4.61,1.89-2.12,1.5-2.67,1.57-1.16.25-1.66.09-14.38-2.06a1.36,1.36,0,0,0-.45,0l-1.64.26-.15,0-1.18.31a1.53,1.53,0,0,0-.7.4l-2.83,2.9a1.44,1.44,0,0,0-.31.46l-.75,1.76-.28.21-.86.27-.48-.15-2.79-1.58a1.72,1.72,0,0,0-.54-.18L104.09,47a1.34,1.34,0,0,0-.4,0l-1.25.17a1.36,1.36,0,0,0-.36.1l-1.07.43a1.46,1.46,0,0,0-.3.16L99.05,49a1.44,1.44,0,0,0-.33.32l-.87,1.14-.06.09-3.05,4.7-1.18,1.48-1,1-.81.49a.83.83,0,0,0-.18.13l-.79.65a1.5,1.5,0,0,0-.27.29l-.6.85a1.36,1.36,0,0,0-.23.52l-.22.92a1.47,1.47,0,0,0,.15,1.07l.58,1.06.3.88.11.47-1.29,1.91a1.14,1.14,0,0,0-.16.31l-.39,1a1.41,1.41,0,0,0-.06.22l-.11.49a1.51,1.51,0,0,0,0,.79l.8,2.42a1.79,1.79,0,0,0,.2.39l.91,1.29.27.52.51,1.83-.15,1.14-.63,1.94L87.89,85a1.69,1.69,0,0,0-.08.24l-.48,1.72a1.41,1.41,0,0,0,0,.54l.06.68-.54,1.06-5.1,1.72a1.46,1.46,0,0,0-.64.42L79.57,93a1.46,1.46,0,0,0-.27.45l-.8,2a1.57,1.57,0,0,0-.11.61l.16,4.06a1.27,1.27,0,0,0,0,.28L81,111.24l1,5.92L81.93,120l-1.56,5.51c0,.06,0,.12,0,.18l-.17,1.13a2.17,2.17,0,0,0,0,.36l.22,2.31a1.85,1.85,0,0,0,0,.23l1.9,7.55.1,2.16-.35,2.23-.61,2.25-.3.84-.35.56-.59.47-1.83,1.06-.11.08-.91.64-.16.13-.8.76a.93.93,0,0,0-.16.18l-.66.86-1.23,1.85a1.41,1.41,0,0,0-.13.24L73,154.51l-.49.81-.47.61-.48.36-.63.18-.8,0-.79-.28-4.78-2.65a1.27,1.27,0,0,0-.32-.13L52.8,150.2,51,149.28l-1.38-1.16-1.21-1.39-2.91-5.3-1.2-4-1.74-11-.15-3.88a1.86,1.86,0,0,0-.09-.47l-.7-1.87a1.36,1.36,0,0,0-.29-.49l-1-1.08a1.49,1.49,0,0,0-1.06-.49L38,118.07a1.58,1.58,0,0,0-.38,0l-1.24.28a1.4,1.4,0,0,0-.57.26l-.86.65a2.09,2.09,0,0,0-.22.2l-.7.79a1.21,1.21,0,0,0-.2.3l-.88,1.68-.28.24-.41.12-.63-.14-.81-.31-.77-.5-6.47-5.27L23,115.8l-.37-.78-.26-1.23,0-1.26.15-2.38a1.93,1.93,0,0,0,0-.24l-.1-1.14a1.59,1.59,0,0,0-.24-.67l-.58-.91a1.52,1.52,0,0,0-.37-.39l-2.27-1.68-.27-1,.09-2.42,1.41-5.91a.51.51,0,0,0,0-.17l.37-3a.41.41,0,0,0,0-.11l.11-2.19a1.36,1.36,0,0,0-.07-.53l-2-6.14L18,75.39,18.22,73l2.63-9a1.6,1.6,0,0,0,0-.21l.69-4.92L22,57.46,24.68,52a1.35,1.35,0,0,0,.11-.34l.44-2a1.55,1.55,0,0,0,0-.31V47.87a1.62,1.62,0,0,0-.08-.49l-.65-2-.13-.84.08-.94.33-1,.92-1.54,1.52-1.88L28.69,38,51.34,25.1,83.8,4.65l4-1,10,5.81.85.62.56.57.42,1,.14.93-.18,2s0,.09,0,.13v.69s0,.1,0,.14l.09,1a1.58,1.58,0,0,0,.1.43l.37.91a1.83,1.83,0,0,0,.28.44l.93,1a1.53,1.53,0,0,0,.46.34l1.45.69.21.09,2.77.84a1.59,1.59,0,0,0,.38.07l1.68.06,1.21.19.42.28.35.81v.67l-.19,1a1.27,1.27,0,0,0,0,.28v1.11a1.54,1.54,0,0,0,.36,1l1,1.12a1.58,1.58,0,0,0,.34.29l1.71,1.08.25.13,10.12,3.95a1.27,1.27,0,0,0,.18.06l1.94.49.19,0,1.57.18L132,35.44l9.59,4.28.08,0Z" /> 

            <path class="cls-3" d="M42.78,84.67l-1.71-4.76H34.52l-1.68,4.76h-3l6.41-17.2h3l6.41,17.2ZM40.33,77.5l-1.61-4.66c-.11-.32-.28-.81-.48-1.48s-.35-1.16-.43-1.48A25.49,25.49,0,0,1,36.88,73L35.34,77.5Z" /> 

            <path class="cls-3" d="M56.27,69.7a4.62,4.62,0,0,0-3.8,1.71,7.31,7.31,0,0,0-1.38,4.72,7.35,7.35,0,0,0,1.33,4.77,4.69,4.69,0,0,0,3.85,1.62,10.49,10.49,0,0,0,2.11-.22c.67-.15,1.38-.33,2.12-.56v2.4a12.84,12.84,0,0,1-4.57.77,7.3,7.3,0,0,1-5.78-2.28c-1.35-1.52-2-3.7-2-6.52a10.58,10.58,0,0,1,1-4.68,7,7,0,0,1,2.83-3.07,8.6,8.6,0,0,1,4.35-1.07,10.83,10.83,0,0,1,4.85,1.1l-1,2.34A13.39,13.39,0,0,0,58.3,70,6.53,6.53,0,0,0,56.27,69.7Z" /> 

            <path class="cls-3" d="M71.07,84.67H68.26V69.94h-5v-2.4H76.1v2.4h-5Z" /> 

        </g> 

    </g> 

</svg> 