<svg xmlns="http://www.w3.org/2000/svg" viewBox="0 0 160 160"> 

 

    <g> 

        <g class="illustration-shape" fill="#C8D9EE"> 

            <circle class="cls-1" cx="80" cy="80" r="73.25" /> 

        </g> 

    </g> 

    <g> 

        <g class="illustration-secondary" fill="#B3CBE8"> 

            <path class="cls-2" d="M91.61,22.55c-.06,1.56-7,8-4.29,8.41,20.58,12.46,19.27,13.85,21.89,7.67,5.23-11.72,2.11-43.25,11.35-9.17,4.06-5.64,6.48,6.27,6,8.67,4,.64,1.09,5.41,3.11,8.35,7.6,5.44,10.91,5.16,13.62,14.92,2-.51,3.52-.24,3.91,2.31.81,3.92,7.37,6.82,8.25,10.45,9.11,28.24-9.42,25.69-12.08,47.8-2,1.44-4.36-.24-4.3.34-10.13,5.84-11.6,3-15.79,1.77-5.47,5.89-12.82-2.35-14.28-.36-7-1.83-3.69-11.56-9-10.18-.72-3.48-2.69-4.27-2.69-4.27-2.43,6-2.33-2.57-1-4.49-3.56-2-7.18,12.36-10.36,1.79-7.39-15.69-37.88-6.84-46.29.41-19.3-2.11-15.9,7.29-28,3.22-3.68-2.06-3.22-3.88-2.83-4.59,4.5-3.72.2-9.31-1.63-14.52-.49-7.23-2.53-4.28-3.49-9.58-3.33-8.24,2.28-1.93.25-8.14C-4.75,56.59,17.11,55.58,24.72,50.87c5.78,2.2,9-5.1,11.77-7.64-2.57-3,.81-4.61,2.17-5.65,1.05,4.11,3.12,5.22,3.07,1.69-1.13-6.05,3.21-1.29,2.85-2.54-1.66-3.9,3.8-6.18,6.33-8.19,6-4.9,5.79,3.2,12.54,2.76,1.64,0,1.35-.91.71-2.68C68.72,10.51,90.81,19.44,91.61,22.55Z" /> 

            <path class="cls-2" d="M123.72,135.75c-.42-3.28,6.63,2.35,13.55-.82,2.69,4.49-4.53,12.65-8,10.69C125.75,144.75,125,137.33,123.72,135.75Z" /> 

        </g> 

    </g> 

    <g> 

        <g class="illustration-primary" fill="#2157AA"> 

            <path class="cls-3" d="M118.64,127.74a16.24,16.24,0,0,1-6.73-2,16.47,16.47,0,0,0-2-.84,1.45,1.45,0,0,1-1.26.24c-4.42-1.16-5.47-4.87-6.24-7.58-.83-2.9-1-2.84-2-2.6a1.5,1.5,0,0,1-1.17-.18,1.54,1.54,0,0,1-.68-1,6.29,6.29,0,0,0-.78-2.1,2.23,2.23,0,0,1-1.69,1.13,1.8,1.8,0,0,1-1.71-1,8.44,8.44,0,0,1-.36-4.42c-.3.36-.59.73-.81,1-1.48,1.87-3,3.81-5.07,3.42s-3-2.75-3.59-4.82c-1.79-3.73-5.2-6.14-10.12-7.19-11.3-2.4-28,3.22-33.79,8.19a1.5,1.5,0,0,1-1.15.35c-9.58-1-13.25.85-16.2,2.38s-5.68,2.93-12.08.77a1.19,1.19,0,0,1-.26-.11c-5-2.8-3.87-5.77-3.41-6.62a1.39,1.39,0,0,1,.36-.44c2.49-2,1.41-4.84-.57-9.22C6.87,94,6.31,92.8,5.88,91.57a1.69,1.69,0,0,1-.08-.39C5.56,87.65,5,87,4.36,86.27a7.87,7.87,0,0,1-2-4.35C1.2,79,1,77.53,1.49,76.46A2.38,2.38,0,0,1,3,75.24a8.12,8.12,0,0,0-.32-1.3C.39,69.56-.09,65.88,1.18,62.68c2.23-5.6,9.29-8,15.52-10.14a39,39,0,0,0,7.23-2.95,1.52,1.52,0,0,1,1.33-.12c3.06,1.16,5.18-1.17,7.84-4.59.5-.65,1-1.27,1.46-1.82a3.94,3.94,0,0,1-.48-2.42c.27-1.92,2-3.09,3.11-3.86l.56-.39a1.51,1.51,0,0,1,2.37.83,7.67,7.67,0,0,0,.38,1.19,18.26,18.26,0,0,1,2.17-3c-.23-3.47,3.64-5.82,6.35-7.46.38-.23.75-.45,1.09-.67,4.56-2.88,6.73-1,8.46.57a6,6,0,0,0,4.42,2c-.08-.25-.18-.51-.24-.69a1.55,1.55,0,0,1,0-.88c2-7.82,7.43-12.14,15.36-12.15h0c6.4,0,14.23,3.17,15,6.08a1.47,1.47,0,0,1,0,.42c0,1-.88,2.16-2.48,4.21a29.69,29.69,0,0,0-2.2,3.07c4.39,2.66,7.71,4.78,10.39,6.48,3.92,2.49,7,4.46,7.75,4.35a11.17,11.17,0,0,0,1.05-2.17l.21-.49c1.72-3.86,2.52-10.19,3.17-15.27.87-6.89,1.27-10,3.56-10.19,1.73-.12,3.08.82,6.82,14.16a2.91,2.91,0,0,1,2.44-.05c2.88,1.21,4.22,7.2,4.33,10.32,2.32,1,2.29,3.54,2.26,5.28a6.7,6.7,0,0,0,.42,3.14c1.58,1.11,3,2,4.21,2.75,4.41,2.76,7.17,4.49,9.37,11.51a4,4,0,0,1,2.56.59,4.45,4.45,0,0,1,1.77,3.19c.3,1.46,2.06,3.05,3.77,4.59,1.91,1.72,3.88,3.49,4.43,5.68,5.65,17.54.87,24-4.2,30.74-3.34,4.48-6.8,9.12-7.83,17.65a1.49,1.49,0,0,1-.6,1,5.34,5.34,0,0,1-4.74.6c-8.12,4.62-11.13,4-14.77,2.45-.35-.15-.71-.29-1.08-.43A7.47,7.47,0,0,1,118.64,127.74Zm-9-5.85a9.09,9.09,0,0,1,3.52,1.16c3.56,1.68,6.49,2.75,9,0a1.52,1.52,0,0,1,1.54-.42,22.33,22.33,0,0,1,2.18.82c2.61,1.09,4.68,2,12.1-2.26a.8.8,0,0,1,.13-.13,2.09,2.09,0,0,1,2-.22A3.55,3.55,0,0,0,142,121c1.23-8.84,5-13.86,8.3-18.31,5-6.69,8.93-12,3.73-28.07l0-.11c-.32-1.31-1.95-2.79-3.54-4.21-2.06-1.86-4.2-3.79-4.72-6.28a1.94,1.94,0,0,0-.47-1.23c-.11-.08-.48-.22-1.61.06a1.49,1.49,0,0,1-1.8-1.05c-2-7-4-8.27-8.45-11.06-1.34-.84-2.86-1.79-4.61-3a1.41,1.41,0,0,1-.36-.37,8.39,8.39,0,0,1-1.07-5.06c0-2.4-.15-2.52-1-2.66a1.51,1.51,0,0,1-1.24-1.74c.35-1.92-1.28-8-2.48-8.41a2.49,2.49,0,0,0-.87.88,1.49,1.49,0,0,1-2.66-.49C117,22,115.69,18.38,114.94,16.73c-.35,1.62-.68,4.21-1,6.43-.68,5.28-1.51,11.85-3.4,16.08l-.19.46c-.83,2-1.43,3.4-2.94,3.87-1.92.61-3.85-.62-10.24-4.67-2.69-1.72-6-3.85-10.46-6.53a2.07,2.07,0,0,1-1.39-1.23c-.61-1.55.7-3.36,2.9-6.17.54-.7,1.31-1.67,1.67-2.26-1.49-1.45-7.93-4.29-14.08-3.47-5.21.7-8.61,3.83-10.12,9.31.42,1.2.72,2.33,0,3.29a2.44,2.44,0,0,1-2.27,1,8.75,8.75,0,0,1-6.91-2.72c-1.56-1.38-2.21-2-4.87-.28l-1.14.7c-3.2,2-4.9,3.27-4.87,4.7A2.3,2.3,0,0,1,46.06,37a1.48,1.48,0,0,1-1.25,1.26,1.37,1.37,0,0,1-.57,0c-.29.4-.69,1-1.23,1.86-1.09,1.77-2.31,1.87-2.95,1.77A3,3,0,0,1,37.91,40a2.08,2.08,0,0,0-.85,1.09c-.06.39.33.93.57,1.21a1.5,1.5,0,0,1-.14,2.08,19.4,19.4,0,0,0-2,2.38c-2.25,2.89-5.59,7.2-10.58,5.78a47.13,47.13,0,0,1-7.22,2.88c-5.62,1.92-12,4.09-13.7,8.41-.94,2.36-.48,5.26,1.41,8.87a1.15,1.15,0,0,1,.1.23c.63,1.93.7,3.07.23,4A2.41,2.41,0,0,1,4.25,78a14.66,14.66,0,0,0,1,2.94,1.4,1.4,0,0,1,.09.29A5.11,5.11,0,0,0,6.62,84.3c1.08,1.23,1.87,2.43,2.16,6.47.38,1,.88,2.15,1.36,3.22,1.79,4,4,8.91,0,12.5-.09.6.73,1.48,2.19,2.33,5.09,1.69,6.89.75,9.61-.65,3.24-1.67,7.26-3.75,17.28-2.76,6.56-5.2,23.61-11,35.86-8.43,5.94,1.27,10.06,4.27,12.26,8.94a1.8,1.8,0,0,1,.08.21c.62,2.08,1.14,2.68,1.31,2.82a10.82,10.82,0,0,0,2.15-2.3c1.54-2,3.65-4.64,6.21-3.19a1.5,1.5,0,0,1,.71,1,1.46,1.46,0,0,1-.22,1.18,6.28,6.28,0,0,0-.55,2.19,1.47,1.47,0,0,1,.9.07,6.35,6.35,0,0,1,3.24,4c2.74.08,3.55,2.91,4.1,4.87.75,2.63,1.42,4.47,3.48,5.29A2.37,2.37,0,0,1,109.67,121.89ZM63.73,29.79ZM90.19,23h0Z" /> 

            <path class="cls-3" d="M130.45,147.41a3.75,3.75,0,0,1-1.73-.39c-3-.9-4.3-4.88-5.23-7.81a13.27,13.27,0,0,0-.94-2.52,1.62,1.62,0,0,1-.32-.75,2.34,2.34,0,0,1,.69-2.18c1-.92,2.44-.58,4.39-.1,2.53.61,6,1.45,9.33-.09a1.5,1.5,0,0,1,1.91.59c2,3.27,0,7.69-2.64,10.42C134.11,146.43,132.16,147.41,130.45,147.41Zm-4.75-11c.22.56.42,1.22.65,1.95.69,2.18,1.73,5.47,3.28,5.85a1.2,1.2,0,0,1,.37.15c.62.35,2.15-.17,3.76-1.82s2.73-3.84,2.58-5.6c-3.74,1.14-7.29.28-9.74-.32C126.31,136.5,126,136.42,125.7,136.36Z" /> 

        </g> 

    </g> 

</svg> 