<svg xmlns="http://www.w3.org/2000/svg" viewBox="0 0 160 160"> 

 

    <g > 

        <g class="illustration-secondary" fill="#B3CBE8"> 

            <path class="cls-1" d="M156.69,57.56l-.93,3.33-.86,5.25c0,.06-5.88,2.73-5.89,2.73-2.93-.33-5.32-3.21-5.32-2.54h0a2.65,2.65,0,0,1-1.2,2c.08-.06,0-.12-.14-.19v.25l.12-.06-.12.11v0a47.85,47.85,0,0,1-6.17.64L136,69,136,69c-2.58-1.08-5.31-3.14-5.31-2.64a2,2,0,0,1-.13.68L125,68.93l-2.32-.07c-2.49-1.1-5-3-5-2.53h0A2.93,2.93,0,0,1,116,68.67l-2.92-.09-4.06,0c-2.28-1.11-4.42-2.67-4.42-2.23a2.78,2.78,0,0,1-1.43,2.2l-7.33,0c-2.21-1.11-4.26-2.59-4.26-2.16h0a2.7,2.7,0,0,1-1.33,2.12H87.74l.39.92a7.86,7.86,0,0,1-1.84.22c-2.87,0-7.78-3.93-7.78-3.26,0,1.76-2.42,3.26-5.28,3.26s-7.74-3.93-7.74-3.26h0c0,1.76-2.42,3.25-5.27,3.25s-7.77-3.93-7.77-3.26c0,1.76-2.42,3.26-5.28,3.26s-7.74-3.93-7.74-3.26h0c0,1.76-2.43,3.25-5.28,3.25s-7.77-3.93-7.77-3.26c0,1.76-2.42,3.26-5.28,3.26s-7.74-3.93-7.74-3.26c0,0,0,.08,0,.13a3,3,0,0,1-1.23,2.13l-1-.23v.79A5.46,5.46,0,0,1,9,69.59c-2.4,0-6.82-3.16-6.82-3.16C2.26,69.51,5.3,72,9,72a7.77,7.77,0,0,0,2.13-.3l-.6,68.56H34.1c.59,0-15.07-59.64-17.63-69.37A9.72,9.72,0,0,0,21.1,72a8.64,8.64,0,0,0,6.53-2.59A8.61,8.61,0,0,0,34.15,72a8.65,8.65,0,0,0,6.51-2.57A8.63,8.63,0,0,0,47.17,72a8.61,8.61,0,0,0,6.52-2.59A8.64,8.64,0,0,0,60.22,72a8.61,8.61,0,0,0,6.5-2.57,9.53,9.53,0,0,0,13,0A8.62,8.62,0,0,0,86.29,72a10.45,10.45,0,0,0,2.79-.38l5,11.82,20.78.12,21.26-3.83.13,35.74c-1.28,1.6-3,3.29-4.48,3.08-47.78,10.1-78.19-.68-78.19-.68v2.66a1.23,1.23,0,0,0,.94,1.19,161,161,0,0,0,38.69,4.47c5.78,0,11.95-.27,18.51-.9l6.42,15.24,24.47-.27-1-8.65,1.71-.18-.09-6s-4,.55-4-2.91,3.89-3.28,3.89-3.28l-.69-48a7.1,7.1,0,0,0,2.48-1.7,7.27,7.27,0,0,0,5.65,2.5c3.72,0,6.76-2.49,6.83-5.57l1-5.79A5.09,5.09,0,0,0,156.69,57.56Z" /> 

            <path class="cls-1" d="M156.45,130.84l-4.5,1.77.14,15.57,3.14-1s2.32-14.88,2-15.29S156.45,130.84,156.45,130.84Z" /> 

            <rect class="cls-1" x="20.93" y="34.59" width="109.95" height="4.64" /> 

        </g> 

    </g> 

    <g > 

        <g class="illustration-primary" fill="#2157AA"> 

            <path class="cls-2" d="M139.74,144.52H1.82a1.23,1.23,0,0,0,0,2.46H139.74a1.23,1.23,0,0,0,0-2.46Z" /> 

            <path class="cls-2" d="M34.28,107.87a1.23,1.23,0,1,0,0,2.46h1.63a1.23,1.23,0,0,0,1.24-1.23V99.81a1.23,1.23,0,0,0-1.24-1.23h-2a1.23,1.23,0,1,0,0,2.46h.77v6.83Z" /> 

            <path class="cls-2" d="M70.46,107.11a2.38,2.38,0,0,0-.77-2.14,4.35,4.35,0,0,0-2.52-.87l-2.24-.21a.6.6,0,0,0-.67.55l-.77,8.17a.61.61,0,0,0,.55.67l2.51.24.56,0a3.58,3.58,0,0,0,2-.54,2.74,2.74,0,0,0,1.18-2.12,2.41,2.41,0,0,0-.47-1.81,2,2,0,0,0-.29-.29l.17-.14A2.31,2.31,0,0,0,70.46,107.11Zm-2,3.6c-.06.64-.32,1.22-1.77,1.08l-1.31-.13.22-2.3,1.18.12C68.57,109.64,68.5,110.37,68.47,110.71Zm-.18-3.1a2.31,2.31,0,0,1-1.34.14l-1.18-.11.18-1.91,1,.09a2.72,2.72,0,0,1,1.41.42.66.66,0,0,1,.24.69A.77.77,0,0,1,68.29,107.61Z" /> 

            <path class="cls-2" d="M78.89,104.93l-.57,0a.62.62,0,0,0-.65.58l-.3,5.36a1.89,1.89,0,0,1-.55,1.34,1.85,1.85,0,0,1-1.4.38,1.67,1.67,0,0,1-1.79-2l.3-5.3a.64.64,0,0,0-.15-.44.61.61,0,0,0-.43-.21l-.58,0a.63.63,0,0,0-.65.58l-.3,5.28a3.63,3.63,0,0,0,.83,2.71,3.58,3.58,0,0,0,2.6,1.13h.32a3.58,3.58,0,0,0,2.44-.82,3.51,3.51,0,0,0,1.16-2.59l.3-5.3a.6.6,0,0,0-.15-.45A.62.62,0,0,0,78.89,104.93Z" /> 

            <path class="cls-2" d="M85.75,109.66a7.48,7.48,0,0,0-1.55-.75,7,7,0,0,1-1.16-.53.81.81,0,0,1-.32-.32.86.86,0,0,1-.08-.44A.78.78,0,0,1,83,107a1.65,1.65,0,0,1,1.08-.26,4.33,4.33,0,0,1,1.7.42.63.63,0,0,0,.82-.31l.22-.49a.62.62,0,0,0-.31-.81,6.07,6.07,0,0,0-2.4-.55,3.49,3.49,0,0,0-2.26.66,2.62,2.62,0,0,0-.39,3.74,5,5,0,0,0,2,1.14,6.25,6.25,0,0,1,1.18.53,1.15,1.15,0,0,1,.42.36.9.9,0,0,1,.09.44.82.82,0,0,1-.38.72,1.92,1.92,0,0,1-1.23.31,5.48,5.48,0,0,1-2-.38.6.6,0,0,0-.58,0,.62.62,0,0,0-.29.5v.57a.6.6,0,0,0,.36.58,6.82,6.82,0,0,0,2.53.45h.14a3.65,3.65,0,0,0,2.27-.68,2.55,2.55,0,0,0,1-2.08,2.41,2.41,0,0,0-1.15-2.21Z" /> 

            <path class="cls-2" d="M89.68,105.17h-.57a.64.64,0,0,0-.62.62l0,8.2a.6.6,0,0,0,.18.44.58.58,0,0,0,.43.18h.58a.61.61,0,0,0,.61-.62l0-8.2a.6.6,0,0,0-.18-.44A.58.58,0,0,0,89.68,105.17Z" /> 

            <path class="cls-2" d="M92.9,105.18a.61.61,0,0,0-.61.62l.16,8.21a.61.61,0,0,0,.62.6h.56a.61.61,0,0,0,.6-.63l-.1-5.21L98,114.24a.63.63,0,0,0,.52.27h.58a.68.68,0,0,0,.43-.19.66.66,0,0,0,.17-.44l-.16-8.21a.59.59,0,0,0-.19-.43.71.71,0,0,0-.44-.17h-.55a.63.63,0,0,0-.61.63l.11,5.21L94,105.43a.66.66,0,0,0-.52-.27Z" /> 

            <path class="cls-2" d="M101.42,105.58l.41,8.2a.62.62,0,0,0,.62.58h0l4.48-.22a.62.62,0,0,0,.42-.2.61.61,0,0,0,.16-.45l0-.52a.62.62,0,0,0-.65-.59l-3.29.17-.12-2.29,3.08-.15a.62.62,0,0,0,.58-.65l0-.52a.59.59,0,0,0-.21-.43.6.6,0,0,0-.44-.16l-3.07.15-.1-1.87,3.3-.16a.62.62,0,0,0,.42-.2.61.61,0,0,0,.16-.45l0-.52a.61.61,0,0,0-.64-.59l-4.48.23A.62.62,0,0,0,101.42,105.58Z" /> 

            <path class="cls-2" d="M109.14,108.9a5,5,0,0,0,2.06.93,6.93,6.93,0,0,1,1.23.41,1.36,1.36,0,0,1,.46.32.91.91,0,0,1,.13.43.89.89,0,0,1-.3.76,2,2,0,0,1-1.2.42,5.3,5.3,0,0,1-2-.17.59.59,0,0,0-.57.1.62.62,0,0,0-.24.53l0,.57a.61.61,0,0,0,.42.54,5.32,5.32,0,0,0,1.67.22c.28,0,.58,0,.89,0A3.73,3.73,0,0,0,114,113a2.79,2.79,0,0,0,.43-3.42,2.75,2.75,0,0,0-1-.85,7.48,7.48,0,0,0-1.62-.58,7.33,7.33,0,0,1-1.21-.41,1,1,0,0,1-.35-.28,1,1,0,0,1-.12-.43.8.8,0,0,1,.25-.69,1.8,1.8,0,0,1,1-.37,4.61,4.61,0,0,1,1.74.25.6.6,0,0,0,.77-.39l.17-.51a.61.61,0,0,0-.38-.78,6.26,6.26,0,0,0-2.45-.3,3.49,3.49,0,0,0-2.18.89,2.63,2.63,0,0,0,0,3.76Z" /> 

            <path class="cls-2" d="M115.54,106.62a2.47,2.47,0,0,0,.83,1.69,5,5,0,0,0,2.09.88,7.08,7.08,0,0,1,1.24.37,1.15,1.15,0,0,1,.46.31.78.78,0,0,1,.14.43.84.84,0,0,1-.27.76,1.94,1.94,0,0,1-1.19.45,5.24,5.24,0,0,1-2-.11.62.62,0,0,0-.57.11.6.6,0,0,0-.22.54l0,.57a.62.62,0,0,0,.44.53,5.08,5.08,0,0,0,1.44.17c.35,0,.72,0,1.13-.06a3.72,3.72,0,0,0,2.3-1,2.6,2.6,0,0,0,.76-2.2,2.47,2.47,0,0,0-.42-1.22,2.75,2.75,0,0,0-1-.82,7.11,7.11,0,0,0-1.64-.54,6.53,6.53,0,0,1-1.22-.38.89.89,0,0,1-.36-.27,1,1,0,0,1-.13-.43.78.78,0,0,1,.23-.69,1.74,1.74,0,0,1,1-.4,4.51,4.51,0,0,1,1.74.2.61.61,0,0,0,.77-.41l.16-.51a.63.63,0,0,0-.41-.77,6.09,6.09,0,0,0-2.45-.23,3.48,3.48,0,0,0-2.16.94A2.5,2.5,0,0,0,115.54,106.62Z" /> 

            <path class="cls-2" d="M125.42,109.32h0a.62.62,0,0,0,.61-.55l.54-5a.6.6,0,0,0-.16-.48.59.59,0,0,0-.46-.2h-.67a.59.59,0,0,0-.43.19.57.57,0,0,0-.17.44l.12,5A.63.63,0,0,0,125.42,109.32Z" /> 

            <path class="cls-2" d="M125.51,112.61h.16a1,1,0,0,0,.92-1.29h0a1.14,1.14,0,0,0-.42-.83,1.06,1.06,0,0,0-.79-.19,1,1,0,0,0-.7.38,1.13,1.13,0,0,0-.21.9,1.21,1.21,0,0,0,.42.83A1,1,0,0,0,125.51,112.61Z" /> 

            <path class="cls-2" d="M74.3,99.7a3.63,3.63,0,0,0,2.14-.59A2.71,2.71,0,0,0,77.57,97a2.44,2.44,0,0,0-.51-1.79,2.68,2.68,0,0,0-.3-.28l.16-.14a2.28,2.28,0,0,0,.71-1.56,2.39,2.39,0,0,0-.83-2.12,4.32,4.32,0,0,0-2.54-.81L72,90.09a.62.62,0,0,0-.65.58l-.56,8.18a.61.61,0,0,0,.57.66l2.51.17Zm-1.22-7.79,1,.07a2.66,2.66,0,0,1,1.41.37.68.68,0,0,1,.26.69.79.79,0,0,1-.32.69,2.24,2.24,0,0,1-1.33.17L73,93.82Zm-.25,3.64,1.19.08c1.78.13,1.73.85,1.71,1.2,0,.64-.29,1.21-1.75,1.12l-1.31-.09Z" /> 

            <path class="cls-2" d="M83.29,97.24l.9,2.53a.61.61,0,0,0,.56.41l.65,0h0a.63.63,0,0,0,.5-.26.59.59,0,0,0,.08-.56l-3-8.35a.63.63,0,0,0-.56-.41h-.37a.6.6,0,0,0-.58.37L78,99.11a.63.63,0,0,0,0,.58.61.61,0,0,0,.5.28l.64,0a.64.64,0,0,0,.58-.37l1.08-2.48ZM82.18,94l.51,1.51-1.14,0Z" /> 

            <path class="cls-2" d="M91.15,90.68a4.68,4.68,0,0,0-2.38.6A4.09,4.09,0,0,0,87.16,93a5.57,5.57,0,0,0-.54,2.47A5.18,5.18,0,0,0,87.77,99,4,4,0,0,0,91,100.34h0a6.85,6.85,0,0,0,2.23-.31.63.63,0,0,0,.41-.58v-.51a.62.62,0,0,0-.25-.5.63.63,0,0,0-.55-.09,5.71,5.71,0,0,1-1.71.23,2.28,2.28,0,0,1-1.93-.75,3.54,3.54,0,0,1-.68-2.33,3.26,3.26,0,0,1,.73-2.29,2.48,2.48,0,0,1,2-.79h0a3.61,3.61,0,0,1,1.61.39.6.6,0,0,0,.49,0,.63.63,0,0,0,.35-.33l.23-.51a.61.61,0,0,0-.3-.81,5.53,5.53,0,0,0-2.41-.51Z" /> 

            <path class="cls-2" d="M95.49,100a.59.59,0,0,0,.42.17h0l.57,0a.61.61,0,0,0,.6-.63L97,96.44l.36-.34,2.87,3.7a.62.62,0,0,0,.5.24l.7,0a.63.63,0,0,0,.54-.36.62.62,0,0,0-.07-.64L98.64,94.8l2.9-3.18a.63.63,0,0,0,.11-.68.58.58,0,0,0-.58-.35l-.73,0a.62.62,0,0,0-.44.2l-3,3.29-.08-2.77a.61.61,0,0,0-.63-.6l-.57,0a.61.61,0,0,0-.6.63l.24,8.2A.62.62,0,0,0,95.49,100Z" /> 

            <path class="cls-2" d="M107.78,99.64h0l.57,0a.59.59,0,0,0,.43-.21A.64.64,0,0,0,109,99l-.57-8.19a.61.61,0,0,0-.21-.42.58.58,0,0,0-.45-.15l-.57,0a.61.61,0,0,0-.57.65l.57,8.19A.61.61,0,0,0,107.78,99.64Z" /> 

            <path class="cls-2" d="M111.76,99.36h.06l.55-.06a.6.6,0,0,0,.42-.22.66.66,0,0,0,.14-.45l-.5-5.19,4.22,5.18a.59.59,0,0,0,.54.22l.57,0a.62.62,0,0,0,.56-.67L117.54,90a.69.69,0,0,0-.22-.42.67.67,0,0,0-.45-.14l-.56.06a.61.61,0,0,0-.55.67l.49,5.19L112,90.13a.59.59,0,0,0-.53-.22l-.57,0a.62.62,0,0,0-.56.67l.78,8.17A.62.62,0,0,0,111.76,99.36Z" /> 

            <path class="cls-2" d="M57.45,83.27a1.44,1.44,0,1,0,1.44,1.44A1.45,1.45,0,0,0,57.45,83.27Z" /> 

            <path class="cls-2" d="M131,86.15a1.44,1.44,0,1,0-1.44-1.44A1.45,1.45,0,0,0,131,86.15Z" /> 

            <path class="cls-2" d="M57.45,113.32a1.44,1.44,0,1,0,1.44,1.44A1.44,1.44,0,0,0,57.45,113.32Z" /> 

            <path class="cls-2" d="M131,116.19a1.44,1.44,0,1,0-1.44-1.43A1.44,1.44,0,0,0,131,116.19Z" /> 

            <path class="cls-2" d="M130.73,33.66H21.51a1.24,1.24,0,0,0-1.24,1.23v3.39a1.24,1.24,0,0,0,2.47,0V36.13H129.49v2.15a1.24,1.24,0,0,0,2.47,0V34.89A1.23,1.23,0,0,0,130.73,33.66Z" /> 

            <path class="cls-2" d="M1,64.58c.06,3.15,3.1,5.7,6.82,5.7A7.93,7.93,0,0,0,9.88,70v69.8a1.24,1.24,0,0,0,2.47,0V68.93a.53.53,0,0,0,0-.12,6.64,6.64,0,0,0,1.11-1.07,8.64,8.64,0,0,0,6.44,2.54,8.54,8.54,0,0,0,6.52-2.65,8.56,8.56,0,0,0,6.53,2.65,8.57,8.57,0,0,0,6.51-2.63,7.17,7.17,0,0,0,2.15,1.64v70.5a1.24,1.24,0,0,0,2.47,0V70.1a10.42,10.42,0,0,0,1.88.18h0v69.51a1.23,1.23,0,1,0,2.46,0V113L52,114.35v4.55a1.23,1.23,0,0,0,.94,1.19,161,161,0,0,0,38.69,4.47h1V140a1.23,1.23,0,0,0,2.46,0V124.52l2.18,0V140a1.23,1.23,0,1,0,2.46,0V124.38a211.49,211.49,0,0,0,33.92-4.28c.8-.16,1.56-.32,1.67-.33a1.23,1.23,0,0,0,1.23-1.23v-3.81L140,113a1.23,1.23,0,1,0-1.1-2.2L136.55,112v-29l0,0,5.18-3.51v23.21a1.23,1.23,0,0,0,2.46,0V68.37a7.39,7.39,0,0,0,5,1.91c3.72,0,6.76-2.55,6.82-5.7l.95-5.92a1.22,1.22,0,0,0-.37-1.1L142.33,44.15V27.79a1.23,1.23,0,0,0-1.23-1.23H13.86a1.23,1.23,0,0,0-1.23,1.23V44.72a1.08,1.08,0,0,0,.16.56L.36,57.59h0a1.08,1.08,0,0,0-.23.34.3.3,0,0,0,0,.08,1.15,1.15,0,0,0-.08.41v0s0,0,0,0a.76.76,0,0,0,0,.15ZM15.62,46h6.74L12.88,57.23H4.23Zm125,0,12.08,11.28h-8.53L134.7,46Zm1.81,18.61c-.07,1.77-2.45,3.25-5.27,3.25s-5.27-1.53-5.27-3.34c0,0,0,0,0,0V59.69h10.55Zm-23.6-.12V59.69h10.58v4.69s0,.06,0,.09c0,1.81-2.41,3.34-5.27,3.34s-5.27-1.52-5.28-3.32v0S118.85,64.45,118.85,64.44ZM95.09,82.33V69.84a10,10,0,0,0,2.18.4V82.3ZM64.26,64.49c0,1.8-2.42,3.32-5.28,3.32s-5.28-1.53-5.28-3.34a.43.43,0,0,1,0,0V59.69h10.6v4.62a.76.76,0,0,0,0,.16Zm2.5-4.8H77.25v5c-.15,1.74-2.48,3.17-5.25,3.17s-5.07-1.42-5.24-3.13Zm12.95,0H90.32v4.84c0,1.79-2.44,3.28-5.27,3.28s-5.28-1.53-5.28-3.34a1.07,1.07,0,0,0-.06-.3Zm18.36,8.12c-2.85,0-5.26-1.52-5.28-3.32v-4.8h10.58v4.69s0,.06,0,.09C103.35,66.28,100.93,67.81,98.07,67.81Zm7.76-8.12h10.56v4.83c0,1.79-2.44,3.29-5.27,3.29s-5.28-1.53-5.28-3.34c0,0,0,0,0,0ZM131.6,46a1.26,1.26,0,0,0,.22.39L141,57.23h-9.65L122.59,46Zm-12.11,0,0,.06,8.69,11.22h-9.9L111.4,46Zm-11,0s0,0,0,0l6.9,11.26h-10L99.87,46ZM97.13,46l5.5,11.28H92.46L88.91,46Zm-10.8,0,3.55,11.28H79.71V46ZM77.25,57.23h-10L70.75,46h6.5Zm-12.63,0H54.43L59.93,46h8.23Zm-12.93,0h-10L48.54,46v0h8.64Zm-12.94,0H28.86L37.54,46s0,0,0-.06h8.1Zm-13,0H16.09l9.16-10.89a1.23,1.23,0,0,0,.21-.39h9ZM3.43,64.47a1.23,1.23,0,0,0,0-.19l-.73-4.59h9.47v4.67s0,.07,0,.11,0,.09,0,.14c-.1,1.78-2,3.2-4.35,3.2S3.43,66.31,3.43,64.47Zm16.44,3.34c-2.75,0-5.07-1.41-5.26-3.12v-.14a.22.22,0,0,0,0-.08V59.69H25.17v4.69a.29.29,0,0,0,0,.09C25.15,66.28,22.73,67.81,19.87,67.81Zm13.05,0c-2.86,0-5.28-1.53-5.28-3.34,0,0,0,0,0,0V59.69H38.21v4.7s0,.06,0,.08v0C38.18,66.29,35.77,67.81,32.92,67.81Zm7.75-3.24V59.69H51.23v4.7s0,0,0,.08c0,1.81-2.41,3.34-5.28,3.34S40.76,66.34,40.67,64.57Zm11.79,3.06A8.54,8.54,0,0,0,59,70.28a8.55,8.55,0,0,0,6.51-2.63,9.37,9.37,0,0,0,13,0,9.36,9.36,0,0,0,13,0,6.65,6.65,0,0,0,1.07,1V82.33C69,82.18,53.8,77.83,53.57,77.76a1.23,1.23,0,0,0-1.08.19,1.26,1.26,0,0,0-.5,1v.77l-3.58-2.52V70A7.73,7.73,0,0,0,52.46,67.63ZM48.41,110.4V80.2L52,82.72v29Zm85.68,7.1-.93.19c-35.26,7.28-62.12,4.22-78.7.24V80.54c7.27,1.8,38.88,8.48,79.63.22ZM136.55,80v-.72a1.23,1.23,0,0,0-1.48-1.2,200.35,200.35,0,0,1-35.34,4.2V70.14a8,8,0,0,0,4.86-2.51,9.37,9.37,0,0,0,13,0,9.36,9.36,0,0,0,13,0,8.54,8.54,0,0,0,6.52,2.65,9.71,9.71,0,0,0,4.6-1.11v7.26Zm17.1-15.5c0,1.84-2,3.34-4.36,3.34s-4.36-1.49-4.37-3.33h0s0,0,0-.06V59.69h9.49l-.73,4.59A1.23,1.23,0,0,0,153.65,64.47ZM15.09,29H139.87V43.48H15.09Z" /> 

            <path class="cls-2" d="M155.89,127a4.11,4.11,0,0,0,4.1-4.07v-.72a4.12,4.12,0,0,0-4-4.14,3.76,3.76,0,0,0,.26-1.38V116a4.09,4.09,0,0,0-2.19-3.66,3.7,3.7,0,0,0,.15-1v-.72c0-1.27-1.2-3.31-1.92-4.41C150.27,103,149.4,103,149,103a2.53,2.53,0,0,0-1.89.76,2.67,2.67,0,0,0-.8,1.88v1a4.1,4.1,0,0,0-2.69,3.8v.71a4.17,4.17,0,0,0,.14,1.06,4.08,4.08,0,0,0-2.25,3.62v.72a4.31,4.31,0,0,0,.23,1.39,4.11,4.11,0,0,0-4.06,4.06v.72a4.11,4.11,0,0,0,4.06,4.14l6.82.06a1.36,1.36,0,0,0-.07.35v3.16c-3-.1-6.07-.55-6.11-.55a1.19,1.19,0,0,0-1,.34,1.21,1.21,0,0,0-.36,1l2.15,16.82a1.2,1.2,0,0,0,.74,1,15.15,15.15,0,0,0,5.55.75,28.33,28.33,0,0,0,6.41-.69,1.23,1.23,0,0,0,.91-1l2.15-16.82a1.22,1.22,0,0,0-.35-1,1.2,1.2,0,0,0-1-.35s-3.5.45-6.56.56v-3.17a1.3,1.3,0,0,0-.07-.33l5,0Zm-1.51,19.9a28.3,28.3,0,0,1-5,.45,17.18,17.18,0,0,1-3.95-.38l-1.85-14.44a56.28,56.28,0,0,0,6.09.4c2.22,0,4.88-.24,6.54-.42Zm-13.81-23a1.66,1.66,0,0,1-.47-1.16V122a1.65,1.65,0,0,1,1.64-1.63h0l2.61,0a1.26,1.26,0,0,0,1.22-1,1.24,1.24,0,0,0-.69-1.39,1.66,1.66,0,0,1-1-1.5v-.72a1.65,1.65,0,0,1,1.59-1.61,1.23,1.23,0,0,0,1.08-.73,1.21,1.21,0,0,0-.17-1.29,1.56,1.56,0,0,1-.38-1v-.72a1.64,1.64,0,0,1,1.54-1.61,1.23,1.23,0,0,0,1.15-1.22v-2a.29.29,0,0,1,0-.1c1,.93,3,4.11,3,5v.72a1.58,1.58,0,0,1-.4,1,1.24,1.24,0,0,0-.2,1.29,1.26,1.26,0,0,0,1.07.75,1.65,1.65,0,0,1,1.56,1.64v.72a1.65,1.65,0,0,1-1,1.48,1.24,1.24,0,0,0-.71,1.38,1.23,1.23,0,0,0,1.2,1l2.61,0a1.6,1.6,0,0,1,1.15.5,1.63,1.63,0,0,1,.48,1.16v.72a1.63,1.63,0,0,1-1.65,1.62l-14.15-.12A1.65,1.65,0,0,1,140.57,123.9Z" /> 

        </g> 

    </g> 

</svg> 