<svg width="160px" height="160px" viewBox="0 0 160 160" version="1.1" 

    xmlns="http://www.w3.org/2000/svg" 

    xmlns:xlink="http://www.w3.org/1999/xlink"> 

    <!-- Generator: Sketch 58 (84663) - https://sketch.com --> 

    <title>Illustration / CTA Standard / Feature / Calculator BGABlue</title> 

    <desc>Created with Sketch.</desc> 

    <g class="Illustration-/-CTA-Standard-/-Feature-/-Calculator-BGABlue" stroke="none" stroke-width="1" fill="none" fill-rule="evenodd"> 

        <ellipse class="illustration-shape" fill="#C8D9EE" cx="80.5" cy="80" rx="67.5" ry="68"></ellipse> 

        <polygon class="illustration-fill" fill="#EDEEF1" points="6 68.0085223 31.5499753 54.3182382 31.5499753 15.2230888 123 17.5 123.5 28 151.5 14 154.5 17.5 122.5 37 123 141 31.5499753 141.205689 31.5499753 122.015906"></polygon> 

        <path d="M151.318313,16.3058324 C151.625432,16.1296125 151.989171,16.0836428 152.328889,16.1762933 C152.669466,16.2680859 152.959428,16.4928492 153.134434,16.7991106 L153.134434,16.7991106 L155.839314,21.5208546 C156.014709,21.8271159 156.060646,22.1899971 155.967995,22.5305734 C155.876203,22.8711498 155.651439,23.1611116 155.346894,23.3361181 L155.346894,23.3361181 L151.72323,25.4113177 L153.300862,28.1650964 C153.476726,28.4713578 153.523051,28.8342389 153.429543,29.1748153 C153.33775,29.5145338 153.113845,29.8044956 152.808442,29.9803599 L152.808442,29.9803599 L138.857678,37.9706077 C138.649215,38.0898523 138.421878,38.1464721 138.197115,38.1464721 C137.736436,38.1456142 137.288625,37.9062671 137.043273,37.4773296 C136.677818,36.8399284 136.89915,36.0275208 137.535693,35.6620661 L137.535693,35.6620661 L150.331756,28.3332399 L149.415546,26.7333031 L127.983255,39.0086364 L127.866584,146.973921 L127.866584,147.014241 L38.1114119,146.917301 L38.117417,140.730307 L31.9304225,140.723444 L31.9484379,123.825022 L34.823177,129.722913 C35.5540865,131.222478 37.1480183,132.002286 38.714498,131.790391 C37.561514,131.769802 36.1194261,131.231057 35.118286,129.052912 L35.118286,129.052912 L6.94309739,71.2372844 C6.94309739,71.2372844 5.16386464,67.7731852 8.73605614,66.0325568 L8.73605614,66.0325568 L19.9664978,60.5292887 L51.7181673,125.682321 L62.0795815,120.632869 L62.1301961,120.897095 L76.7784118,113.758717 C76.7784118,113.758717 82.1178258,112.031814 79.7595274,107.191684 L79.7595274,107.191684 L50.2151703,46.6454397 C52.9938274,46.7106382 55.6403718,48.2848388 56.9417681,50.9554037 L56.9417681,50.9554037 L84.0205925,106.441043 C85.877034,110.252582 84.2942546,114.846502 80.482716,116.703802 L80.482716,116.703802 L62.9623349,125.242231 L65.933156,140.760332 L121.684737,140.820384 L121.791971,42.5550917 L111.868073,48.2393714 C111.858636,48.2445187 111.850058,48.2479502 111.839763,48.2530974 C111.813169,48.2676813 111.784001,48.2814073 111.755691,48.2942754 C111.732529,48.3045699 111.709366,48.3157223 111.685346,48.3251589 C111.657036,48.3354534 111.628726,48.3448901 111.5987,48.3534688 C111.572964,48.3620476 111.548943,48.3697684 111.524065,48.3757736 C111.494897,48.3826366 111.464872,48.3877838 111.435704,48.3929311 C111.40911,48.3980783 111.382516,48.4023677 111.355922,48.4057992 C111.349059,48.4066571 111.342196,48.4083728 111.333617,48.4092307 L111.333617,48.4092307 L104.415713,49.0740838 C104.372819,49.0783732 104.329925,49.0800889 104.286174,49.0800889 C103.805764,49.0792311 103.357095,48.8175792 103.122895,48.3894996 C102.867248,47.9228156 102.914432,47.3488972 103.240424,46.9311121 L103.240424,46.9311121 L105.484625,44.0623781 L107.146329,41.9374217 L108.213525,43.7998683 L146.968886,21.6014948 L151.692346,18.8966149 L150.482742,16.7845267 Z M32.0657094,16 L42.0488008,16.0102945 L48.2177799,47.4771495 C47.2526705,47.0730904 46.1271385,47.0670853 45.1114145,47.5620791 L45.1114145,47.5620791 L32.171228,54.5529025 L32.0657094,16 Z" class="illustration-secondary" fill="#B3CBE8"></path> 

        <path d="M110.466471,44.497354 C110.520275,44.4869402 110.574948,44.4773943 110.628752,44.4600379 C110.575816,44.4773943 110.521143,44.4869402 110.466471,44.497354 Z M129.283414,37.0314454 C129.981751,37.0314454 130.555555,37.5664765 130.620645,38.2487407 L130.626794,38.378296 L130.507902,147.783003 C130.507086,148.48134 129.974313,149.054374 129.29087,149.119374 L129.161052,149.125514 L38.3649253,149.027451 C37.6229425,149.026583 37.0224129,148.424319 37.0224129,147.680601 C37.0224129,146.982264 37.5559074,146.409229 38.2372673,146.34423 L38.3666609,146.338089 L38.3683966,146.338089 L127.819408,146.434417 L127.936563,38.3756925 C127.937431,37.632842 128.539695,37.0314454 129.283414,37.0314454 Z M123.020559,40.6951914 C123.718895,40.6951914 124.2927,41.2302225 124.35779,41.9124867 L124.363939,42.042042 L124.256329,141.517197 C124.256329,141.87387 124.114007,142.215789 123.861472,142.468324 C123.645758,142.684038 123.363098,142.818142 123.061584,142.852055 L122.909478,142.860576 L32.1133517,142.762513 C31.7566793,142.762513 31.413892,142.620191 31.1613575,142.366789 C30.9456432,142.150331 30.8109015,141.866927 30.7778604,141.565215 L30.7699109,141.413059 L30.7908,134.230145 C30.7925356,133.488163 31.3939322,132.88937 32.1385184,132.88937 C32.8384886,132.891003 33.4116196,133.42613 33.4744542,134.107677 L33.4801621,134.237088 L33.4645414,140.073151 L121.566967,140.168611 L121.673708,42.0394385 C121.674576,41.2965879 122.27684,40.6951914 123.020559,40.6951914 Z M53.0221307,48.1476018 L53.1269977,48.3509782 L81.9706011,107.356398 C83.2169449,109.904854 82.2180243,112.976574 79.7484947,114.318089 L79.5450552,114.423024 L41.4470609,133.046357 C40.7024747,133.409972 39.9127621,133.583536 39.1360667,133.583536 C37.2574184,133.583536 35.4467514,132.579013 34.4948873,130.841764 L34.3804345,130.620811 L5.53683103,71.615392 C4.29048727,69.0669358 5.28940789,65.9943927 7.75893751,64.653636 L7.96237701,64.5487655 L46.0603713,45.9245644 C48.6105174,44.6782206 51.6814595,45.6787867 53.0221307,48.1476018 Z M48.3765724,48.0784839 C48.0583732,48.0784839 47.7359554,48.1375436 47.4258919,48.2606851 L47.241469,48.3423 L9.14347471,66.9656333 C7.91131471,67.5688002 7.36936426,69.0261314 7.88385829,70.2788471 L7.95369885,70.4342943 L36.7973023,129.438846 C37.3996361,130.671006 38.856934,131.213756 40.1096483,130.699326 L40.2650954,130.62949 L78.3639575,112.005289 C79.5961175,111.402955 80.1372681,109.945657 79.6234779,108.692943 L79.5537333,108.537495 L50.7092621,49.5329437 C50.2606011,48.6139264 49.3355092,48.0784839 48.3765724,48.0784839 Z M59.0723134,78.3684504 L59.1389672,78.4891029 L73.0613408,106.969091 C73.2175477,107.289316 73.2409787,107.659005 73.1246914,107.996586 C73.0257603,108.28594 72.8311924,108.531302 72.5759634,108.69387 L72.4434557,108.768074 L41.3470017,123.968741 C41.15695,124.061597 40.9556167,124.105856 40.7568868,124.105856 C40.3048335,124.105856 39.8678415,123.876351 39.6167355,123.476021 L39.5471511,123.350856 L25.6247776,94.8708672 C25.4685707,94.5506431 25.4451397,94.1809534 25.561427,93.843373 C25.660358,93.5540183 25.854926,93.3086566 26.110155,93.1460891 L26.2426626,93.0718845 L41.7947948,85.4698155 L57.3391167,77.8712178 C57.9647578,77.5644991 58.7124356,77.7886397 59.0723134,78.3684504 Z M71.4600466,121.245621 L94.4458914,121.294218 C95.1896098,121.295086 95.7901385,121.899086 95.7884141,122.641069 C95.7875868,123.340222 95.2540444,123.912537 94.5705112,123.977449 L94.4406845,123.98358 L71.4548397,123.935851 C70.7119891,123.934983 70.1105925,123.330115 70.112317,122.588132 C70.113196,121.845282 70.7163282,121.245621 71.4600466,121.245621 Z M48.7254345,102.718355 L35.5935546,109.135507 L41.373904,120.96089 L54.5039615,114.542522 L48.7254345,102.718355 Z M115.071276,109.830455 C115.561303,110.320481 115.593972,111.095507 115.169987,111.623533 L115.072144,111.732707 L107.723478,119.082242 C107.470943,119.334776 107.129024,119.47623 106.771483,119.47623 C106.465764,119.47623 106.170884,119.372305 105.934387,119.183582 L105.821225,119.082242 L103.426052,116.68707 C102.901024,116.162909 102.901024,115.309845 103.426052,114.785684 C103.915269,114.294848 104.691752,114.262125 105.218566,114.687517 L105.327437,114.785684 L106.771483,116.228863 L113.169024,109.831322 C113.694052,109.305426 114.54538,109.306294 115.071276,109.830455 Z M83.6132034,113.980785 L94.449623,114.029383 C95.1924736,114.032854 95.7921345,114.636854 95.7887078,115.380572 C95.7853988,116.077276 95.2532479,116.648677 94.5677165,116.71349 L94.4374736,116.719613 L83.601054,116.671015 C82.8582034,116.667544 82.2585425,116.063544 82.2619692,115.319825 C82.2663529,114.577843 82.8582034,113.993802 83.6132034,113.980785 Z M46.6721816,107.446824 C47.3311795,107.673812 47.7003403,108.359963 47.5451249,109.024043 L47.5070207,109.156422 L46.8223138,111.147192 L48.8129971,111.831812 C49.5159282,112.073065 49.8890891,112.838479 49.6478362,113.54141 C49.4560489,114.098548 48.9344914,114.450013 48.3756178,114.450013 C48.279001,114.450013 48.181227,114.439214 48.0838388,114.417358 L47.9382385,114.376249 L45.9474684,113.691542 L45.2640632,115.682139 C45.0722759,116.239276 44.5498506,116.590742 43.9918448,116.590742 C43.8469195,116.590742 43.6993908,116.566443 43.5544655,116.516978 C42.8954677,116.289989 42.5263068,115.603838 42.6815222,114.939759 L42.7196264,114.80738 L43.4034655,112.81661 L41.4139971,112.132076 C40.7110661,111.889956 40.3370374,111.12541 40.579158,110.422479 C40.8053326,109.763481 41.49067,109.393557 42.1553661,109.549392 L42.2878879,109.58764 L44.277877,110.272433 L44.9625839,108.281663 C45.2055724,107.5796 45.9692506,107.204703 46.6721816,107.446824 Z M55.5346253,116.088021 L55.6554543,116.146581 C55.6967111,116.164003 55.7388045,116.179364 55.7815628,116.192606 L55.9070674,116.224454 C55.780171,116.198907 55.6528622,116.152471 55.5346253,116.088021 Z M54.9550674,115.466454 L54.9708466,115.497988 L55.0140674,115.575454 L54.9711069,115.497814 L54.9550674,115.466454 Z M64.2755707,95.1207983 L51.1435172,101.53717 L56.9210897,113.361251 L70.0534902,106.942189 L64.2755707,95.1207983 Z M33.3810674,109.795454 L33.3880674,109.798454 L33.3979824,109.802008 L33.4112226,109.806035 L33.3981559,109.802197 L33.3810674,109.795454 Z M33.3345386,109.780702 L33.3880674,109.798454 L33.3720674,109.792454 L33.3345386,109.780702 Z M33.3530674,109.785454 L33.3720674,109.792454 L33.3810674,109.795454 L33.3530674,109.785454 Z M32.6220674,109.169454 L32.6566347,109.232555 C32.7067254,109.312621 32.7642778,109.385854 32.8279198,109.451785 L32.8950674,109.514454 L32.8280933,109.451423 C32.7644513,109.385429 32.706899,109.312147 32.6568082,109.232055 L32.6220674,109.169454 Z M65.9466374,104.148949 C66.2525425,104.774591 66.0275883,105.522268 65.4491092,105.881431 L65.3287523,105.947932 L59.1273385,108.975743 C58.9372868,109.069467 58.7359534,109.112857 58.5380914,109.112857 C58.0399649,109.112857 57.5617983,108.835156 57.3283557,108.357857 C57.0224506,107.732216 57.246642,106.984539 57.8257409,106.625376 L57.9462408,106.558875 L64.1476546,103.531064 C64.815873,103.20303 65.6212063,103.481599 65.9466374,104.148949 Z M32.5992254,107.901372 L32.5967645,107.906115 L32.5950674,107.908454 L32.5992254,107.901372 Z M32.7000233,107.73565 L32.645147,107.819102 L32.6330674,107.839454 L32.7000233,107.73565 Z M32.8880674,107.523454 L32.8720331,107.538332 L32.85912,107.55039 L32.8720674,107.537454 L32.8880674,107.523454 Z M84.064381,103.221861 L94.4512718,103.280005 C95.1941224,103.284344 95.7929155,103.889212 95.7886231,104.63293 C95.7844953,105.329634 95.2522963,105.899498 94.5725501,105.96413 L94.4434615,105.970235 L94.4356511,105.970235 L84.0496282,105.911224 C83.3059098,105.906884 82.7079845,105.302017 82.7122769,104.559166 C82.7164047,103.861646 83.2486037,103.292503 83.9276264,103.227958 L84.0565707,103.221861 L84.064381,103.221861 Z M62.2874908,99.7210914 C62.9557092,99.3956603 63.7610425,99.6724937 64.0873414,100.339844 C64.4127724,101.007195 64.1350713,101.813396 63.4677207,102.138827 L63.4677207,102.138827 L57.2663069,105.16577 C57.077123,105.258626 56.8757897,105.302884 56.6779276,105.302884 C56.1789333,105.302884 55.7016345,105.025183 55.468192,104.547017 C55.1418931,103.879666 55.4187264,103.074333 56.0869448,102.748902 L56.0869448,102.748902 Z M42.3738017,95.4421506 C42.6797069,96.0686053 42.4555154,96.8155712 41.8757016,97.1746418 L41.7550489,97.2411333 L39.8640776,98.1644897 L40.7872603,100.056502 C41.1135592,100.723853 40.8367259,101.529186 40.1685075,101.855485 C39.9793236,101.948341 39.7779902,101.9926 39.5801282,101.9926 C39.126497,101.9926 38.690796,101.762378 38.4399378,101.361917 L38.3703925,101.236732 L37.4470362,99.3448931 L35.5545029,100.268944 C35.3644511,100.3618 35.1631178,100.406059 34.9652557,100.406059 C34.4671293,100.406059 33.9889626,100.12749 33.7555201,99.6501908 C33.4496149,99.0245496 33.6745691,98.2768718 34.2537633,97.9177091 L34.374273,97.851208 L36.2661121,96.9269839 L38.6838477,95.7476218 L40.5756868,94.8233977 C41.2439052,94.4988345 42.0475029,94.7748 42.3738017,95.4421506 Z M115.071103,91.645542 C115.56194,92.1355688 115.594662,92.9105941 115.16927,93.4386207 L115.071103,93.5477948 L107.722436,100.896461 C107.461224,101.15941 107.115833,101.29045 106.772178,101.29045 C106.476872,101.29045 106.181567,101.194176 105.938178,101.00108 L105.821051,100.896461 L103.425879,98.5012891 C102.90085,97.9762603 102.90085,97.1240649 103.425879,96.5990362 C103.915096,96.1081994 104.691579,96.075477 105.219098,96.5008689 L105.328132,96.5990362 L106.772178,98.0422144 L113.169718,91.645542 C113.694747,91.1196454 114.54781,91.1196454 115.071103,91.645542 Z M57.3122144,80.8782006 L44.1847603,87.2957006 L49.9624195,99.1203023 L63.0933448,92.7036701 L63.1700674,92.6654537 L63.0927374,92.7039305 L57.3122144,80.8782006 Z M79.8928759,95.9056511 L94.4487552,95.962927 C95.1916057,95.9655305 95.7921345,96.5703983 95.7887223,97.3141167 C95.7862164,98.0116366 95.253344,98.583086 94.5684484,98.6479018 L94.4383414,98.6540247 L79.8824621,98.595881 C79.1387437,98.5932776 78.5390828,97.9884098 78.5424948,97.2455592 C78.5451575,96.5044443 79.146554,95.9056511 79.8928759,95.9056511 Z M37.6936529,93.7346847 L37.7601443,93.8551753 L38.6835006,95.7470144 L36.2657649,96.9272443 L35.3432764,95.0354052 C35.0169776,94.3680546 35.2938109,93.5627213 35.9620293,93.2364224 C36.5876705,92.9321444 37.3345855,93.1556748 37.6936529,93.7346847 Z M65.6033458,94.4640393 L65.4824425,94.530423 L65.1580674,94.6884537 L65.4827029,94.5306833 L65.6033458,94.4640393 Z M66.1940674,92.9864537 L66.2040674,93.0284537 L66.1992464,93.0037097 L66.1940674,92.9864537 Z M57.9757466,87.8243741 C58.2816517,88.4508289 58.0574603,89.1977948 57.4776464,89.5575804 L57.3569937,89.6242247 L51.1564477,92.6511672 C50.966396,92.7440236 50.7659305,92.7882822 50.5672006,92.7882822 C50.069942,92.7882822 49.5909075,92.510581 49.3574649,92.0324144 C49.0515598,91.4067732 49.276514,90.6598581 49.8557081,90.3000757 L49.9762178,90.2334316 L56.1776316,87.2056213 C56.8467178,86.8801902 57.6503155,87.1570236 57.9757466,87.8243741 Z M65.9590674,92.5034537 L66.0980674,92.7274537 C66.0660847,92.660854 66.026148,92.5944069 65.9815254,92.5326128 L65.9590674,92.5034537 Z M65.1740674,92.0064537 L65.2043651,92.013533 L65.3283401,92.0494886 L65.2042651,92.013433 L65.1740674,92.0064537 Z M65.1090674,91.9944537 L65.1740674,92.0064537 L65.1411361,91.9999892 L65.1090674,91.9944537 Z M64.9478623,91.9775614 L65.0772538,91.9894744 L65.1080674,91.9944537 L65.0771328,91.9893534 C65.0343479,91.9833575 64.9912067,91.9794095 64.9478623,91.9775614 Z M64.9479865,91.9776856 L64.8173727,91.9783684 L64.686645,91.9921478 C64.7737724,91.9786687 64.861293,91.9739847 64.9479865,91.9776856 Z M75.5138759,85.1507195 L94.4478874,85.2088632 C95.1907379,85.2114667 95.7912667,85.8154667 95.7886884,86.5583172 C95.7870312,87.256654 95.25344,87.8289201 94.5727979,87.8938292 L94.4435483,87.8999609 L94.4392092,87.8999609 L75.5051977,87.8418172 C74.7614793,87.8392138 74.1618184,87.2352138 74.1643967,86.4923632 C74.1661575,85.7503805 74.7684218,85.1507195 75.5138759,85.1507195 Z M41.1626559,87.2379489 L41.1769098,87.2687983 L41.1950674,87.3064537 L41.1771701,87.2686247 L41.1626559,87.2379489 Z M41.0410674,86.7334537 L41.0419508,86.7515663 L41.0469843,86.8139568 L41.0410674,86.7334537 Z M41.077148,86.3648036 L41.0530578,86.4917452 L41.0413005,86.6210042 C41.0450015,86.5343328 41.0570873,86.4485326 41.077148,86.3648036 Z M43.5440674,85.9974537 L43.5940379,86.087527 L43.6990674,86.3024537 L43.5946454,86.0868328 L43.5440674,85.9974537 Z M43.2530674,85.6494537 C43.3225433,85.707778 43.3865976,85.7740526 43.4438745,85.8472891 L43.5160674,85.9504537 L43.4441703,85.8465682 C43.4154754,85.8099889 43.3850869,85.7751813 43.3531759,85.7422041 L43.2530674,85.6494537 Z M41.4820674,85.6794537 L41.461999,85.6994179 L41.4180674,85.7414537 L41.4820674,85.6794537 Z M42.8680674,85.4234537 L42.9697362,85.4660265 L43.0060674,85.4854537 L42.9721439,85.4672637 L42.8680674,85.4234537 Z M42.7670674,85.3894537 L42.8410674,85.4124537 L42.8378384,85.4108723 L42.7670674,85.3894537 Z M42.7040674,85.3704537 L42.7670674,85.3894537 L42.7086377,85.3719053 L42.7040674,85.3704537 Z M42.6560674,85.3614537 L42.7040674,85.3704537 L42.7009397,85.3700143 L42.6560674,85.3614537 Z M42.5602627,85.3438315 L42.6560674,85.3614537 L42.5707353,85.3451798 L42.5602627,85.3438315 Z M46.853208,54.2557724 C47.1433066,54.3554473 47.388137,54.5494839 47.551084,54.8050924 L47.6255644,54.9378759 L54.0057483,67.9889621 C54.3116534,68.6146032 54.087462,69.3615183 53.5083632,69.7213007 L53.3878632,69.7879448 L22.292277,84.9886115 C22.1022253,85.0823356 21.900892,85.1265943 21.7021621,85.1265943 C21.2501088,85.1265943 20.8131168,84.8970892 20.5626628,84.4961073 L20.4932943,84.3707264 L14.1131103,71.320508 C13.8072052,70.6948669 14.0306339,69.9479518 14.6103524,69.5881694 L14.7309954,69.5215253 L45.8265816,54.3199908 C46.1468057,54.1629161 46.5173632,54.1394851 46.853208,54.2557724 Z M115.071276,73.3393954 C115.561303,73.8302322 115.593972,74.6045556 115.169282,75.1331905 L115.071276,75.2425161 L107.72261,82.5903149 C107.460529,82.8532632 107.116006,82.9843034 106.771483,82.9843034 C106.476922,82.9843034 106.18236,82.888029 105.938623,82.6949336 L105.821225,82.5903149 L103.426052,80.1960103 C102.901024,79.6709816 102.901024,78.8187862 103.425184,78.2937575 C103.915211,77.8029207 104.690237,77.7701982 105.218263,78.1955901 L105.327437,78.2937575 L106.771483,79.7369356 L113.169891,73.3393954 C113.69492,72.8143667 114.547116,72.8143667 115.071276,73.3393954 Z M45.7996793,57.3278414 L17.1209609,71.3474103 L22.3191793,81.9807609 L50.9978977,67.9620598 L45.7996793,57.3278414 Z M70.9934218,77.8391086 L94.4470195,77.8972523 C95.1898701,77.8989879 95.7912667,78.5029879 95.7886966,79.2458385 C95.7870316,79.9441752 95.2542087,80.5172101 94.5700396,80.5822096 L94.440077,80.58835 L70.9864793,80.5302063 C70.2427609,80.5276029 69.6422322,79.9244707 69.6448022,79.1807523 C69.6465713,78.4396374 70.2479678,77.8391086 70.9934218,77.8391086 Z M66.5692954,67.123142 L94.4461517,67.1812856 C95.1890023,67.1830213 95.7903989,67.7861534 95.7886781,68.5298718 C95.7878473,69.2282086 95.2543048,69.8012434 94.5707716,69.8662429 L94.4409448,69.8723833 L66.5640885,69.8142397 C65.8212379,69.812504 65.2198414,69.208504 65.2215621,68.4656534 C65.2224448,67.7236707 65.825577,67.123142 66.5692954,67.123142 Z M115.071103,55.3112971 C115.56194,55.8013239 115.594662,56.5763493 115.16927,57.1043759 L115.071103,57.21355 L107.722436,64.5622167 C107.461224,64.8251649 107.115833,64.9562052 106.772178,64.9562052 C106.476872,64.9562052 106.181567,64.8599307 105.938178,64.6668353 L105.821051,64.5622167 L103.425879,62.1670443 C102.90085,61.6420155 102.90085,60.7898201 103.425879,60.2647914 C103.915096,59.7739546 104.691579,59.7412321 105.219098,60.166624 L105.328132,60.2647914 L106.772178,61.7079695 L113.169718,55.3112971 C113.694747,54.7854006 114.54781,54.7854006 115.071103,55.3112971 Z M62.2657954,59.773 L94.4461517,59.8311437 C95.1890023,59.8320115 95.7903989,60.4360115 95.7886744,61.1788621 C95.7878471,61.8771988 95.2543047,62.4510024 94.5729421,62.5160923 L94.4435483,62.5222414 L94.4409448,62.5222414 L62.2605885,62.4640977 C61.5177379,62.4623621 60.9163414,61.8592299 60.9180658,61.1155115 C60.9189448,60.3735287 61.522077,59.773 62.2657954,59.773 Z M32.2531569,13.9033655 L123.049283,14.0014287 C123.748437,14.0022455 124.321521,14.536556 124.386523,15.2187325 L124.392664,15.3482793 L124.38572,21.9827333 C124.38572,22.7247161 123.783456,23.3261126 123.03887,23.3261126 C122.340533,23.3252959 121.766729,22.7917541 121.702363,22.109668 L121.696358,21.9801299 L121.700697,16.689923 L33.6017431,16.595331 L33.7102201,47.4652851 C33.7128236,48.2081356 33.1122948,48.8130034 32.3651052,48.8156069 C31.6675852,48.8156069 31.0938297,48.2851881 31.0265721,47.60419 L31.0199902,47.474831 L30.9062302,15.2528195 C30.9045707,14.8952793 31.0460247,14.5516241 31.2985592,14.2982218 C31.5519615,14.0456874 31.893881,13.9033655 32.2531569,13.9033655 Z M152.570465,12.4284824 L152.644936,12.5445391 L155.38116,17.3209989 C155.559063,17.6299414 155.605925,17.9978954 155.513068,18.3424184 C155.432733,18.6377238 155.254849,18.8947745 155.010565,19.0742227 L154.883034,19.1572977 L151.218247,21.2565448 L151.217986,21.2565448 L152.8139,24.0422345 C152.99177,24.3520448 153.037797,24.719131 152.94494,25.063654 C152.865349,25.3589594 152.686933,25.6160101 152.442482,25.7954583 L152.314906,25.8785333 L138.204216,33.9613724 C137.993337,34.0819989 137.763366,34.1392747 137.535998,34.1392747 C137.06998,34.1392747 136.61698,33.8962862 136.367917,33.4623782 C136.022147,32.85789 136.196557,32.0978052 136.750998,31.7005409 L136.866911,31.6260793 L149.810389,24.2123264 L148.883561,22.5938494 L110.901073,44.349131 C110.868964,44.3673552 110.834251,44.3742977 110.801274,44.3899184 C110.888924,44.3485525 110.972427,44.2987977 111.049887,44.2409754 L110.929858,44.3210146 L110.801795,44.3893109 C110.744519,44.4162132 110.688979,44.4422477 110.629099,44.4604718 C110.576163,44.4769603 110.52149,44.4873741 110.46595,44.4977879 L110.413447,44.5097204 L110.360944,44.5203511 L103.362875,45.1929086 C103.319484,45.1972477 103.276094,45.1998511 103.233571,45.1998511 C102.745858,45.1998511 102.291122,44.9342994 102.054209,44.5003914 C101.819109,44.0720058 101.837183,43.5539698 102.090825,43.1444923 L102.173967,43.025104 L106.433209,37.5804259 C106.439283,37.5717477 106.443622,37.5691443 106.447094,37.5648052 C106.508709,37.4893052 106.576398,37.4233511 106.649295,37.3643397 C106.672726,37.3452477 106.697893,37.329627 106.722191,37.3122707 L106.732067,37.3044537 L106.721671,37.3120103 L106.773523,37.2733925 L106.826676,37.2373782 L146.032004,14.781769 L145.993067,14.8064537 L146.032178,14.781769 L150.809505,12.0455448 C151.412366,11.6997744 152.173112,11.8734223 152.570465,12.4284824 Z M111.161309,44.1482316 L111.059067,44.2334537 L111.110795,44.1927808 C111.127994,44.1783599 111.14484,44.1635088 111.161309,44.1482316 Z M111.262067,44.0424537 L111.211067,44.0954537 L111.258487,44.0479672 L111.262067,44.0424537 Z M111.334067,43.9494537 L111.262067,44.0424537 L111.308125,43.9867121 L111.334067,43.9494537 Z M111.350067,43.9264537 L111.334067,43.9494537 L111.344728,43.9369718 L111.350067,43.9264537 Z M111.529522,43.537422 L111.42697,43.7998034 C111.470702,43.7152308 111.504875,43.6272715 111.529522,43.537422 Z M111.559248,43.4020451 L111.53436,43.5192929 C111.54442,43.4805022 111.552716,43.4413798 111.559248,43.4020451 Z M65.0930534,40.6612598 L79.4753695,40.6768805 C80.2182201,40.6777483 80.8196167,41.2808805 80.8187526,42.023731 C80.8179323,42.7228845 80.2851591,43.2967362 79.6017164,43.3618289 L79.4718983,43.3679782 L65.0895822,43.3523575 C64.3475994,43.3514897 63.7453351,42.7483575 63.7461991,42.0055069 C63.7470707,41.2626563 64.3484672,40.6612598 65.0930534,40.6612598 Z M43.6508799,25.2780914 L59.0112247,25.2945799 C59.3678971,25.2954477 59.7098167,25.4369017 59.9623511,25.690304 C60.1780654,25.9067622 60.3128072,26.1888909 60.346361,26.4902382 L60.3546119,26.6422983 L60.3381155,42.0026431 C60.3372987,42.7009798 59.803757,43.2747834 59.1223944,43.3398733 L58.9930006,43.3460224 L58.9912649,43.3460224 L43.6309201,43.3295339 C43.2742477,43.3295339 42.9323282,43.1872121 42.6797937,42.9338098 C42.4640794,42.7173516 42.3293377,42.4352229 42.2957839,42.1344221 L42.2875329,41.9826833 L42.3040293,26.6223385 C42.3048971,25.8794879 42.9071615,25.2780914 43.6508799,25.2780914 Z M111.577293,43.1637093 L111.576067,43.2064537 L111.576067,43.2234537 L111.577347,43.1951327 L111.577293,43.1637093 Z M111.553067,42.9334537 L111.563067,42.9944537 L111.561871,42.9785291 L111.553067,42.9334537 Z M111.518599,42.788393 L111.551067,42.9234537 L111.548762,42.9056619 C111.540499,42.8662162 111.530442,42.8270962 111.518599,42.788393 Z M111.349067,42.4264537 L111.398852,42.5130925 L111.425067,42.5654537 L111.399199,42.5128322 L111.349067,42.4264537 Z M107.32272,40.8095695 L106.223197,42.2154316 L108.028255,42.0418684 L107.32272,40.8095695 Z M146.202096,17.7852805 L109.332061,38.9035851 L110.730113,41.3456195 L147.601883,20.2273149 L146.902597,19.0062977 L146.886067,18.9774537 L146.202096,17.7852805 Z M44.9933914,27.9700569 L44.9786385,40.6401718 L57.6487534,40.6540569 L57.6635063,27.983942 L44.9933914,27.9700569 Z M108.279067,37.3114537 L108.271847,37.3062376 C108.286037,37.316259 108.300036,37.3265568 108.313836,37.3371258 L108.279067,37.3114537 Z M106.780067,37.2724537 L106.752582,37.2914061 L106.739067,37.2994537 L106.780067,37.2724537 Z M107.095067,37.1254537 L106.98899,37.1641281 L106.855754,37.228764 L106.983843,37.1666876 L107.095067,37.1254537 Z M108.020067,37.1664537 L108.14944,37.2289917 L108.031187,37.1706343 L108.020067,37.1664537 Z M107.119067,37.1174537 L107.117669,37.1181976 L107.101067,37.1234537 L107.119067,37.1174537 Z M107.184067,37.1014537 L107.126734,37.1151932 L107.119067,37.1174537 L107.184067,37.1014537 Z M107.269459,37.0815021 L107.256257,37.0839578 L107.184067,37.1014537 L107.269459,37.0815021 Z M107.416067,37.0634537 L107.384618,37.0658407 L107.282672,37.0791817 L107.416067,37.0634537 Z M107.435952,37.0618704 L107.416067,37.0634537 L107.451067,37.0614537 L107.435952,37.0618704 Z M107.48805,37.060435 L107.451067,37.0614537 L107.592611,37.0632075 C107.557609,37.0608933 107.522736,37.0599826 107.48805,37.060435 Z M65.101558,32.9814345 L79.4830063,32.9970552 C80.2258569,32.997923 80.8272534,33.6010552 80.8263884,34.3439057 C80.825569,35.0430592 80.2927959,35.6169109 79.6108001,35.6820036 L79.4812707,35.6881529 L79.4795351,35.6881529 L65.0980868,35.6725322 C64.356104,35.6716644 63.7538397,35.0685322 63.7547047,34.3256816 C63.7555753,33.582831 64.3569718,32.9814345 65.101558,32.9814345 Z M65.1091948,25.3011753 L79.4915109,25.316796 C80.2343615,25.3176638 80.835758,25.920796 80.834894,26.6636466 C80.8340737,27.3628 80.3013005,27.9366517 79.6178577,28.0017444 L79.4880397,28.0078937 L65.1057236,27.992273 C64.3637408,27.9914052 63.7614764,27.388273 63.7623405,26.6454224 C63.7632121,25.9025718 64.3646086,25.3011753 65.1091948,25.3011753 Z M149.245067,22.0554537 L149.168655,22.0441115 C149.256912,22.0621949 149.347273,22.0714241 149.438095,22.0714241 L149.299109,22.0641866 L149.284067,22.0614537 L149.245067,22.0554537 Z M149.817067,22.0154537 L149.714419,22.0426985 L149.779898,22.0271798 L149.817067,22.0154537 Z M149.977335,21.9583442 L149.844931,22.0082541 L149.817067,22.0154537 L149.847069,22.0076213 C149.890931,21.9935775 149.934396,21.977167 149.977335,21.9583442 Z M150.563067,21.6314537 L150.105706,21.8935218 L149.977335,21.9583442 L150.106314,21.8935218 L150.563067,21.6314537 Z M148.433067,21.6204537 L148.442065,21.6315455 L148.543958,21.7320907 L148.442325,21.6315455 L148.433067,21.6204537 Z M148.191067,21.2564537 L148.270015,21.3945276 L148.350711,21.5189203 L148.433067,21.6204537 L148.270275,21.3945276 L148.191067,21.2564537 Z M150.979597,15.0490563 L148.536695,16.4479759 L149.236155,17.6689931 L149.935614,18.8900103 L152.378517,17.4910908 L150.979597,15.0490563 Z M33.9540674,106.941454 L34.4115891,106.71864 L47.5451178,100.30114 L41.7681529,88.4774925 L41.7670674,88.4764537 L28.6326282,94.8977695 L34.4114155,106.718293 L33.9540674,106.941454 Z" class="illustration-primary" fill="#2157AA"></path> 

    </g> 

</svg> 