<svg width="160px" height="160px" viewBox="0 0 160 160" version="1.1" 

    xmlns="http://www.w3.org/2000/svg" 

    xmlns:xlink="http://www.w3.org/1999/xlink"> 

    <!-- Generator: Sketch 58 (84663) - https://sketch.com --> 

    <title>Illustration / CTA Standard / Feature / CDIC BGABlue</title> 

    <desc>Created with Sketch.</desc> 

    <g class="Illustration-/-CTA-Standard-/-Feature-/-CDIC-BGABlue" stroke="none" stroke-width="1" fill="none" fill-rule="evenodd"> 

        <ellipse class="illustration-shape" fill="#C8D9EE" cx="80.5" cy="80" rx="67.5" ry="68"></ellipse> 

        <path d="M146.2465,134.6738 C152.5105,134.6738 157.5885,137.2258 157.5885,140.3728 C157.5885,143.5208 152.5105,147.9498 146.2465,147.9498 C139.9835,147.9498 134.9045,143.5208 134.9045,140.3728 C134.9045,137.2258 139.9835,134.6738 146.2465,134.6738 Z M113.2713,127.3562 L127.5173,143.4372 L127.516,143.4372 L127.517,147.948 L25.733,147.948 L25.734,143.4362 L39.9793,127.3562 L113.2713,127.3562 Z M144.8835,7.5011 C148.6755,7.5011 151.7505,10.5751 151.7505,14.3681 L151.7505,103.0351 C151.7505,106.8281 148.6755,109.9021 144.8835,109.9021 L8.3665,109.9021 C4.5745,109.9021 1.4995,106.8281 1.4995,103.0351 L1.4995,14.3681 C1.4995,10.5751 4.5745,7.5011 8.3665,7.5011 L144.8835,7.5011 Z" class="illustration-fill" fill="#EDEEF1"></path> 

        <path d="M26.2931,144.0747 L26.0881,148.4027 L127.7471,148.4027 L125.8861,144.1237 L130.8591,149.5437 C131.759067,150.525833 131.116266,152.088257 129.82767,152.191327 L129.6921,152.1967 L24.0961,152.1967 C22.765,152.1967 22.04783,150.667014 22.8424665,149.647286 L22.9301,149.5437 L26.2931,144.0747 Z M157.9297,141.395 C158.2767,141.965 158.4647,142.569 158.4647,143.195 C158.4647,146.586 152.9947,151.357 146.2467,151.357 C139.4987,151.357 134.0287,146.586 134.0287,143.195 C134.0287,142.569 134.2167,141.965 134.5637,141.395 C136.0957,144.404 140.7457,147.574 146.2467,147.574 C151.7477,147.574 156.3977,144.404 157.9297,141.395 Z M88.2467,109.9021 L88.6027,116.6331 L64.6377,116.6331 L64.9947,109.9021 L88.2467,109.9021 Z M28.4567,7.6814 L45.3247,109.7214 L6.9627,109.7214 C6.9627,109.7214 1.48965752,109.3694 1.48965752,103.2964 L1.49058791,14.0159193 C1.50748045,13.2362861 1.80868246,7.6814 6.9627,7.6814 L28.4567,7.6814 Z" class="illustration-secondary" fill="#B3CBE8"></path> 

        <path d="M113.2713,125.8562 C113.646967,125.8562 114.006879,125.997052 114.28171,126.247555 L114.394084,126.361536 L128.640084,142.442536 C128.923932,142.762946 129.038514,143.144597 129.017885,143.511831 L129.017,147.948 L129.014137,148.041447 C129.016103,148.072879 129.0171,148.104573 129.0171,148.1365 C129.0171,148.916196 128.422212,149.556949 127.66156,149.629633 L127.5171,149.6365 L25.7331,149.6365 C24.9046729,149.6365 24.2331,148.964927 24.2331,148.1365 L24.2375,148.0421 L24.233,147.948 L24.2321391,143.50085 C24.216605,143.182479 24.302795,142.853855 24.512846,142.564163 L24.6105158,142.442536 L38.8565158,126.361536 C39.1056242,126.080341 39.4497156,125.904339 39.8194665,125.864733 L39.9793,125.8562 L113.2713,125.8562 Z M146.2465,133.1738 C153.23194,133.1738 159.0885,136.116704 159.0885,140.3728 C159.0885,144.826863 152.765943,149.4498 146.2465,149.4498 C139.727753,149.4498 133.4045,144.826636 133.4045,140.3728 C133.4045,136.116851 139.26171,133.1738 146.2465,133.1738 Z M146.2465,136.1738 C140.705237,136.1738 136.4045,138.334775 136.4045,140.3728 C136.4045,142.930519 141.217936,146.4498 146.2465,146.4498 C151.275737,146.4498 156.0885,142.930797 156.0885,140.3728 C156.0885,138.334576 151.788422,136.1738 146.2465,136.1738 Z M126.0165,144.9371 L27.2325,144.9371 L27.233,146.448 L126.017,146.448 L126.0165,144.9371 Z M112.596188,128.8562 L40.6544116,128.8562 L29.0665,141.9361 L124.1835,141.9361 L112.596188,128.8562 Z M114.7421,136.5681 C115.570527,136.5681 116.2421,137.239673 116.2421,138.0681 C116.2421,138.847796 115.647212,139.488549 114.88656,139.561233 L114.7421,139.5681 L110.2741,139.5681 C109.445673,139.5681 108.7741,138.896527 108.7741,138.0681 C108.7741,137.288404 109.368988,136.647651 110.12964,136.574967 L110.2741,136.5681 L114.7421,136.5681 Z M104.4901,136.5681 C105.318527,136.5681 105.9901,137.239673 105.9901,138.0681 C105.9901,138.847796 105.395212,139.488549 104.63456,139.561233 L104.4901,139.5681 L100.0221,139.5681 C99.1936729,139.5681 98.5221,138.896527 98.5221,138.0681 C98.5221,137.288404 99.1169881,136.647651 99.87764,136.574967 L100.0221,136.5681 L104.4901,136.5681 Z M94.2382,136.5681 C95.0666271,136.5681 95.7382,137.239673 95.7382,138.0681 C95.7382,138.847796 95.1433119,139.488549 94.38266,139.561233 L94.2382,139.5681 L89.7692,139.5681 C88.9407729,139.5681 88.2692,138.896527 88.2692,138.0681 C88.2692,137.288404 88.8640881,136.647651 89.62474,136.574967 L89.7692,136.5681 L94.2382,136.5681 Z M63.4814,136.5681 C64.3098271,136.5681 64.9814,137.239673 64.9814,138.0681 C64.9814,138.847796 64.3865119,139.488549 63.62586,139.561233 L63.4814,139.5681 L59.0124,139.5681 C58.1839729,139.5681 57.5124,138.896527 57.5124,138.0681 C57.5124,137.288404 58.1072881,136.647651 58.86794,136.574967 L59.0124,136.5681 L63.4814,136.5681 Z M53.2284,136.5681 C54.0568271,136.5681 54.7284,137.239673 54.7284,138.0681 C54.7284,138.847796 54.1335119,139.488549 53.37286,139.561233 L53.2284,139.5681 L48.7604,139.5681 C47.9319729,139.5681 47.2604,138.896527 47.2604,138.0681 C47.2604,137.288404 47.8552881,136.647651 48.61594,136.574967 L48.7604,136.5681 L53.2284,136.5681 Z M42.9765,136.5681 C43.8049271,136.5681 44.4765,137.239673 44.4765,138.0681 C44.4765,138.847796 43.8816119,139.488549 43.12096,139.561233 L42.9765,139.5681 L38.5085,139.5681 C37.6800729,139.5681 37.0085,138.896527 37.0085,138.0681 C37.0085,137.288404 37.6033881,136.647651 38.36404,136.574967 L38.5085,136.5681 L42.9765,136.5681 Z M83.5623,136.5681 C84.3907271,136.5681 85.0623,137.239673 85.0623,138.0681 C85.0623,138.847796 84.4674119,139.488549 83.70676,139.561233 L83.5623,139.5681 L69.2653,139.5681 C68.4368729,139.5681 67.7653,138.896527 67.7653,138.0681 C67.7653,137.288404 68.3601881,136.647651 69.12084,136.574967 L69.2653,136.5681 L83.5623,136.5681 Z M110.3531,131.2429 C111.181527,131.2429 111.8531,131.914473 111.8531,132.7429 C111.8531,133.522596 111.258212,134.163349 110.49756,134.236033 L110.3531,134.2429 L106.4001,134.2429 C105.571673,134.2429 104.9001,133.571327 104.9001,132.7429 C104.9001,131.963204 105.494988,131.322451 106.25564,131.249767 L106.4001,131.2429 L110.3531,131.2429 Z M46.8501,131.2429 C47.6785271,131.2429 48.3501,131.914473 48.3501,132.7429 C48.3501,133.522596 47.7552119,134.163349 46.99456,134.236033 L46.8501,134.2429 L42.8971,134.2429 C42.0686729,134.2429 41.3971,133.571327 41.3971,132.7429 C41.3971,131.963204 41.9919881,131.322451 42.75264,131.249767 L42.8971,131.2429 L46.8501,131.2429 Z M55.9224,131.2429 C56.7508271,131.2429 57.4224,131.914473 57.4224,132.7429 C57.4224,133.522596 56.8275119,134.163349 56.06686,134.236033 L55.9224,134.2429 L51.9684,134.2429 C51.1399729,134.2429 50.4684,133.571327 50.4684,132.7429 C50.4684,131.963204 51.0632881,131.322451 51.82394,131.249767 L51.9684,131.2429 L55.9224,131.2429 Z M64.9937,131.2429 C65.8221271,131.2429 66.4937,131.914473 66.4937,132.7429 C66.4937,133.522596 65.8988119,134.163349 65.13816,134.236033 L64.9937,134.2429 L61.0407,134.2429 C60.2122729,134.2429 59.5407,133.571327 59.5407,132.7429 C59.5407,131.963204 60.1355881,131.322451 60.89624,131.249767 L61.0407,131.2429 L64.9937,131.2429 Z M74.066,131.2429 C74.8944271,131.2429 75.566,131.914473 75.566,132.7429 C75.566,133.522596 74.9711119,134.163349 74.21046,134.236033 L74.066,134.2429 L70.113,134.2429 C69.2845729,134.2429 68.613,133.571327 68.613,132.7429 C68.613,131.963204 69.2078881,131.322451 69.96854,131.249767 L70.113,131.2429 L74.066,131.2429 Z M83.1372,131.2429 C83.9656271,131.2429 84.6372,131.914473 84.6372,132.7429 C84.6372,133.522596 84.0423119,134.163349 83.28166,134.236033 L83.1372,134.2429 L79.1842,134.2429 C78.3557729,134.2429 77.6842,133.571327 77.6842,132.7429 C77.6842,131.963204 78.2790881,131.322451 79.03974,131.249767 L79.1842,131.2429 L83.1372,131.2429 Z M101.2808,131.2429 C102.109227,131.2429 102.7808,131.914473 102.7808,132.7429 C102.7808,133.522596 102.185912,134.163349 101.42526,134.236033 L101.2808,134.2429 L97.3278,134.2429 C96.4993729,134.2429 95.8278,133.571327 95.8278,132.7429 C95.8278,131.963204 96.4226881,131.322451 97.18334,131.249767 L97.3278,131.2429 L101.2808,131.2429 Z M89.8877768,114.4371 C90.1208779,117.431916 90.6652742,120.066304 91.5733676,121.964037 C91.9309514,122.711316 91.6150414,123.606984 90.8677629,123.964568 C90.1204843,124.322151 89.2248163,124.006241 88.8672324,123.258963 C87.7678988,120.961576 87.1561006,118.001023 86.8968232,114.6699 C86.8325371,113.843971 87.4499707,113.122309 88.2758998,113.058023 C89.1018288,112.993737 89.8234908,113.611171 89.8877768,114.4371 Z M64.8299888,113.053658 L64.9745459,113.058027 C65.800473,113.122338 66.4178846,113.844019 66.3535733,114.669946 C66.0942084,118.000876 65.4823838,120.961821 64.3831676,123.258963 C64.0255837,124.006241 63.1299157,124.322151 62.3826371,123.964568 C61.6353586,123.606984 61.3194486,122.711316 61.6770324,121.964037 C62.5850007,120.066565 63.1294467,117.431702 63.3626267,114.437054 C63.419372,113.708295 63.9879101,113.141875 64.6882715,113.062865 L64.8299888,113.053658 Z M144.8835,6.0011 C149.504239,6.0011 153.2505,9.74698445 153.2505,14.3681 L153.2505,103.0351 C153.2505,107.656216 149.504239,111.4021 144.8835,111.4021 L8.3665,111.4021 C3.74576126,111.4021 -0.0005,107.656216 -0.0005,103.0351 L-0.0005,14.3681 C-0.0005,9.74698445 3.74576126,6.0011 8.3665,6.0011 L144.8835,6.0011 Z M144.8835,9.0011 L8.3665,9.0011 C5.40254796,9.0011 2.9995,11.4039063 2.9995,14.3681 L2.9995,103.0351 C2.9995,105.999294 5.40254796,108.4021 8.3665,108.4021 L144.8835,108.4021 C147.847452,108.4021 150.2505,105.999294 150.2505,103.0351 L150.2505,14.3681 C150.2505,11.4039063 147.847452,9.0011 144.8835,9.0011 Z M76.6247,94.948 C79.4999099,94.948 81.8317,97.2793556 81.8317,100.154 C81.8317,103.029427 79.5001271,105.361 76.6247,105.361 C73.7500556,105.361 71.4187,103.02921 71.4187,100.154 C71.4187,97.2795729 73.7502729,94.948 76.6247,94.948 Z M76.6247,97.948 C75.4071271,97.948 74.4187,98.9364271 74.4187,100.154 C74.4187,101.372481 75.4070351,102.361 76.6247,102.361 C77.8432729,102.361 78.8317,101.372573 78.8317,100.154 C78.8317,98.9363351 77.8431808,97.948 76.6247,97.948 Z M144.188,89.239 C145.016427,89.239 145.688,89.9105729 145.688,90.739 C145.688,91.5186961 145.093112,92.1594487 144.33246,92.2321334 L144.188,92.239 L8.651,92.239 C7.82257288,92.239 7.151,91.5674271 7.151,90.739 C7.151,89.9593039 7.74588808,89.3185513 8.50653999,89.2458666 L8.651,89.239 L144.188,89.239 Z M144.599,13.183 C145.378696,13.183 146.019449,13.7778881 146.092133,14.53854 L146.099,14.683 L146.099,84.681 C146.099,85.4606961 145.504112,86.1014487 144.74346,86.1741334 L144.599,86.181 L8.651,86.181 C7.87130388,86.181 7.23055132,85.5861119 7.15786658,84.82546 L7.151,84.681 L7.151,14.683 C7.151,13.9033039 7.74588808,13.2625513 8.50653999,13.1898666 L8.651,13.183 L144.599,13.183 Z M143.099,16.183 L10.151,16.183 L10.151,83.181 L143.099,83.181 L143.099,16.183 Z M77.0116,21.1219 L77.0116,21.1219 C92.6686,21.4389 105.1416,34.3109 104.9806,49.9419 C104.8696,65.7439 91.7786,78.6839 75.5966,78.2369 C60.3736,77.8169 47.7206,65.3459 47.8576,49.4219 C47.99382,33.72132 60.63925,21.3062684 76.0638471,21.1180692 L76.5368864,21.1161368 Z M71.7876,23.7949 C66.2156,24.7849 61.4336,27.3269 57.5226,31.4089 C52.5706,36.5769 50.1076,42.7749 50.1294539,49.9469 C50.1386,53.1849 50.7706,56.3019 51.9336,59.3179 C52.0316,59.5739 52.1706,59.7419 52.4576,59.7509 C52.4676,59.7595667 52.4776,59.7526778 52.4876,59.7515667 L52.5026,59.7569 L53.1666,59.8889 C53.2846,60.0679 53.4426,60.1709 53.6706,60.2429 C54.1946,60.4069 54.8006,60.3589 55.2226,60.8089 C55.2616,60.8509 55.3436,60.8499 55.4016,60.8769 C55.8646,61.0909 56.3646,61.1629 56.8556,61.2689 C57.1616,61.3349 57.4606,61.3759 57.7796,61.3769 C58.2226,61.3789 58.6506,61.1359 59.1086,61.3569 C59.9456,61.7609 60.8016,62.1239 61.6476,62.5059 C61.6816,62.5209 61.7236,62.5489 61.7346,62.5789 C61.8466,62.8939 62.0026,62.6289 62.1426,62.5939 C62.1886,62.7359 61.9866,62.9189 62.2416,62.9969 C62.4806,63.0689 62.3606,62.7579 62.5206,62.7609 C62.5856,62.8299 62.4456,63.0209 62.6486,63.0039 C62.7776,62.9919 62.8716,62.9469 62.9316,62.7719 C63.0326,62.4759 62.9606,62.1149 63.2806,61.8289 C63.2376,62.1909 63.2036,62.4959 63.1646,62.7999 C63.1536,62.8879 63.0966,62.9899 63.2146,63.0339 C63.3486,63.0829 63.7116,62.6699 63.6366,62.5429 C63.2306,61.8519 63.3806,61.1159 63.4046,60.3799 C63.4216,59.8929 63.5576,59.5109 63.9326,59.1879 C64.1236,59.0239 64.2446,58.7779 64.3966,58.5679 C64.4776,58.4569 64.5026,58.3389 64.4556,58.2019 C64.2846,57.7019 64.0896,57.2119 63.8276,56.7429 C63.6056,56.9869 63.3346,57.0359 63.2536,56.8539 C63.1236,56.5629 62.9486,56.2729 62.9036,55.9669 C62.8556,55.6349 62.6986,55.6789 62.5166,55.7729 C62.1026,55.9869 61.6286,55.9299 61.2046,56.0919 C61.0686,56.1429 60.9166,56.1829 60.8716,55.9709 C60.8306,55.7719 60.9956,55.7559 61.1116,55.7409 C61.5746,55.6799 61.9876,55.4199 62.4676,55.4139 C62.6336,55.4119 62.7976,55.3689 62.9236,55.1829 C63.0426,55.0089 63.2516,54.8469 63.4536,54.7859 C63.7296,54.7029 63.9776,54.6799 63.8966,54.2909 C63.8656,54.1479 64.0386,54.1639 64.1236,54.1349 C64.3296,54.0639 64.4226,54.0129 64.1986,53.8219 C64.0256,53.6749 63.9466,53.4529 64.2216,53.3209 C64.6216,53.1279 64.7796,52.8419 64.6886,52.4199 C64.6496,52.2479 64.5876,52.0389 64.9076,52.0669 C65.0246,52.0769 65.1276,52.0279 65.1896,51.9029 C65.3116,51.6599 65.3996,51.4069 65.4636,51.1429 C65.5086,50.9579 65.4106,50.8019 65.2636,50.7709 C64.8196,50.6789 64.5426,50.5039 64.6826,49.9879 C64.7366,49.7849 64.4526,49.6259 64.5756,49.4159 C64.6856,49.2279 64.5646,49.1639 64.4426,49.0839 C64.0136,48.7969 64.0046,48.7519 64.2716,48.3189 C64.3176,48.2439 64.3396,48.1529 64.3756,48.0699 C64.5336,47.6999 64.6976,47.6759 65.0766,47.7839 C65.5756,47.9279 66.1146,47.7419 66.6246,47.8959 C66.6386,47.9009 66.6606,47.8619 66.6836,47.8509 C67.0156,47.6859 67.2696,47.8569 67.2616,48.2479 C67.2586,48.4029 67.3096,48.5089 67.4306,48.6119 C67.9396,49.0449 67.8626,49.7609 67.2866,50.1049 C67.4906,50.3829 67.8676,50.3809 68.0986,50.5559 C68.4606,50.8339 68.7676,50.6869 69.0616,50.5729 C69.3596,50.4569 69.5416,50.4689 69.7126,50.7439 C69.8826,51.0159 70.1176,51.1799 70.4606,51.0739 C70.6056,51.0289 70.7276,51.0829 70.8086,51.1849 C70.9276,51.3369 71.0716,51.3529 71.2476,51.3669 C71.7446,51.4059 71.9896,51.8419 71.8826,52.3149 C71.8156,52.6109 71.7596,52.9219 71.9056,53.2529 C72.1376,53.7759 72.1146,54.3789 71.7726,54.8089 C71.5306,55.1139 71.4836,55.4209 71.4996,55.7149 C71.5196,56.0879 71.4056,56.2739 71.0766,56.3759 C70.8916,56.4319 70.7096,56.5129 70.5206,56.5409 C70.3466,56.5639 70.2996,56.6289 70.3356,56.7889 C70.4136,57.1369 70.3426,57.4889 70.3666,57.8359 C70.3916,58.1819 70.2216,58.2479 69.9566,58.1789 C69.7916,58.1359 69.7446,58.1479 69.7236,58.3239 C69.6476,58.9289 69.7976,59.5079 69.9306,60.0839 C70.0016,60.3949 70.0526,60.6809 69.9436,60.9949 C69.8836,61.1709 69.8446,61.3599 69.8856,61.5629 C70.0936,62.5969 70.7166,63.5069 70.7036,64.6069 C71.0166,64.5379 71.0896,64.1709 71.3466,64.2379 C71.9566,64.3989 72.5266,64.2069 73.1096,64.1059 C73.4246,64.0529 73.7156,64.0429 74.0006,64.2389 C74.2196,64.3889 74.4476,64.3979 74.7286,64.2799 C75.5016,63.9539 75.9366,64.0859 76.4556,64.7359 C76.6026,64.9199 76.7646,64.9829 76.9936,64.9589 C77.2286,64.9339 77.4766,64.9299 77.5476,65.2429 C77.6126,65.5319 77.7536,65.5489 77.9876,65.3979 C78.1146,65.3169 78.2986,65.1059 78.4256,65.2879 C78.6276,65.5759 79.0246,65.7599 78.9336,66.2329 C78.8746,66.5349 78.9866,66.9559 79.1896,67.0649 C79.5956,67.2859 80.0126,67.6059 80.5566,67.4629 C80.7946,67.3989 81.1076,67.4589 81.2446,67.6439 C81.5326,68.0349 81.9576,67.9679 82.3246,68.0419 C82.8206,68.1399 83.2146,68.4959 83.7436,68.5189 C83.9686,68.5289 84.1966,68.8729 84.3996,68.8489 C84.8676,68.7969 85.2696,68.8829 85.6606,69.1109 C85.7146,69.1429 85.8146,69.1929 85.8316,69.1759 C86.1286,68.8709 86.3096,69.1249 86.5126,69.3029 C86.5576,69.3419 86.6326,69.3669 86.6926,69.3659 C87.0536,69.3599 87.3876,69.5549 87.7626,69.4749 C87.9106,69.4439 88.0736,69.5039 88.2176,69.6349 C88.4326,69.8309 88.7376,69.9129 89.0146,69.8939 C89.5496,69.8589 89.9926,70.0609 90.4406,70.2999 C90.5126,70.3379 90.5832667,70.3679 90.6540815,70.3910852 L90.7606,70.4209 L90.7596,70.4239 L91.6166,70.7199 C91.7676,70.9639 91.9076,70.9549 92.1166,70.7959 C93.2756,69.9139 94.3736,68.9659 95.3766,67.9089 C99.7976,63.2559 102.2506,57.7209 102.6726,51.3229 C102.9866,46.5519 102.0516,42.0079 99.8606,37.7489 C97.2406,32.6549 93.3746,28.7809 88.2616,26.1989 C83.0496,23.5669 77.5376,22.7729 71.7876,23.7949 Z M83.5921,46.3761584 C83.7331,46.3792 83.7031,46.5252 83.7061,46.6252 C83.7381,47.6222 83.7791,48.6192 83.7981,49.6162 C83.8211,50.7562 83.8251,51.8972 83.8331,53.0382 C83.8361,53.4812 84.1451,53.7932 84.3141,54.1662 C84.3731,54.2962 84.5791,54.2322 84.7131,54.2212 C84.9901,54.2012 85.1181,54.2752 85.1701,54.5842 C85.4821,56.4602 85.8331,58.3332 86.1411,60.2102 C86.1961,60.5392 86.3411,60.6072 86.6231,60.6092 C87.7911,60.6192 88.9581,60.6342 90.1251,60.6582 C90.2411,60.6602 90.4511,60.5612 90.4541,60.7922 C90.4561,61.0292 90.2481,60.9742 90.1011,60.9762 C88.9471,60.9892 87.7941,61.0052 86.6401,61.0042 C86.3801,61.0032 86.2971,61.0832 86.3341,61.3402 C86.4171,61.9332 86.3871,62.5322 86.3651,63.1262 C86.3551,63.3792 86.4131,63.4662 86.6741,63.4612 C87.8761,63.4402 89.0381,63.6492 90.1671,64.0672 C90.6061,64.2302 91.0261,64.4272 91.4211,64.6742 C91.5911,64.7802 91.8511,64.8372 91.8111,65.1372 C91.8071,65.1672 91.8741,65.2182 91.9181,65.2422 C92.8151,65.7292 93.2571,66.6132 93.8011,67.4072 C93.9171,67.5772 93.8861,67.7772 93.8291,67.9822 C93.5681,67.6552 93.1071,67.7772 92.8341,67.4732 C92.7541,67.3832 92.6621,67.3222 92.5631,67.2762 C92.2671,67.1412 91.9091,67.1622 91.5971,67.0642 C91.5041,67.0492 91.4421,67.0552 91.5301,67.1642 C91.5201,67.2152 91.5091,67.2612 91.4931,67.2992 C91.4461,67.4142 91.3581,67.4612 91.1681,67.3992 C90.8461,67.2932 90.4911,67.2862 90.2291,67.0272 C90.1861,66.9852 90.0991,66.9392 90.0541,66.9552 C89.5551,67.1312 88.9991,66.8952 88.5201,67.1742 C88.4761,67.2012 88.4501,67.2512 88.4091,67.1982 C88.1231,66.8222 87.7641,67.0772 87.4371,67.0892 C87.2991,67.0942 87.1631,67.1442 87.1031,67.3072 C87.0611,67.4232 86.9711,67.4932 86.8311,67.4712 C86.4921,67.4192 86.1391,67.4482 85.8291,67.5422 C85.1741,67.7402 84.7471,67.4852 84.3881,66.9852 C84.3341,66.9092 84.3281,66.9032 84.2431,66.9932 C83.9081,67.3472 83.7241,67.3532 83.2941,67.1272 C83.2841,67.1232 83.0921,67.1062 82.9621,67.1702 C82.7301,67.2832 82.4551,67.5562 82.1421,67.2382 C82.0311,67.1252 82.0871,67.3522 81.9981,67.3802 C81.9711,67.2262 81.9951,67.0732 81.7491,67.0232 C81.5461,66.9812 81.2301,66.0322 81.2811,65.7992 L81.28735,65.781075 L81.2951,65.7622 C81.4261,65.6312 81.5491,65.4872 81.6951,65.3732 C81.7871,65.2992 81.9271,65.2482 81.7981,65.1272 C81.7081,65.0422 81.5521,65.0352 81.4651,65.1732 C81.3641,65.3352 81.2781,65.5072 81.1841,65.6752 C81.0451,65.6462 80.9481,65.8502 80.7611,65.7132 C80.6271,65.6142 80.6891,65.9182 80.4901,65.9212 C80.5501,65.5572 80.7291,65.2612 80.9201,64.9722 C80.9521,64.9222 80.9821,64.9732 80.9791,65.0112 C80.9761,65.0482 80.9581,65.0842 80.9461,65.1212 C80.9181,65.1622 80.8901,65.2092 80.9321,65.2512 C80.9451,65.2632 80.9941,65.2402 81.0261,65.2322 C81.2271,65.1282 81.4741,65.1032 81.5601,64.8212 C81.5881,64.7302 81.7571,64.6702 81.8721,64.6192 C82.0711,64.5272 82.2771,64.4532 82.4751,64.3732 C82.6121,64.4822 82.3371,64.5772 82.5131,64.6832 C82.6891,64.5422 82.8761,64.3902 83.0711,64.2332 C81.9291,64.1012 80.7261,64.2242 80.2461,65.5232 C80.1631,65.7482 80.0471,65.9672 79.7351,65.6992 C79.5841,65.5702 79.5061,65.8362 79.3341,65.9242 C79.3781,65.5752 79.6021,65.3482 79.7131,65.0752 C80.1511,65.2402 80.1281,64.8062 80.3031,64.6262 C80.5211,64.4042 80.4431,64.1372 80.3401,63.9362 C80.2031,63.6672 80.3321,63.6802 80.5151,63.6752 C80.8391,63.6662 81.1631,63.6402 81.4861,63.6452 C81.6941,63.6482 81.7181,63.5532 81.7001,63.3822 C81.6271,62.6872 81.5501,61.9912 81.4971,61.2932 C81.4781,61.0542 81.3591,61.0372 81.1681,61.0312 C80.0541,60.9982 78.9401,60.9552 77.8271,60.9122 C77.6711,60.9062 77.5171,60.8842 77.3621,60.8672 C77.2621,60.8562 77.1831,60.8182 77.2011,60.6982 C77.2141,60.5992 77.2681,60.5282 77.3761,60.5222 C77.4791,60.5162 77.5831,60.5212 77.6871,60.5202 C78.7241,60.5132 79.7611,60.5812 80.7981,60.5172 C81.2651,60.4892 81.4721,60.2622 81.5111,59.7982 C81.6391,58.2752 81.7371,56.7492 81.9261,55.2302 C81.9661,54.9042 82.0721,54.6652 82.3711,54.5192 C82.7771,54.3202 83.0541,54.0372 83.0231,53.5402 C83.0167,53.4394 83.04102,53.33604 83.114492,53.256744 L83.1791,53.2022 C83.3299571,53.1019143 83.3544469,52.9568122 83.3577356,52.7990105 L83.357725,50.871325 L83.3611,49.0242 C83.3631,48.2202 83.4091,47.4172 83.4881,46.6182 C83.4971,46.5332 83.4391,46.3732 83.5921,46.3761584 Z M66.6096,60.2359 C66.2376,60.4989 65.9976,60.8939 65.6286,61.1589 C65.5206,61.2359 65.5116,61.4009 65.5446,61.5559 C65.7646,62.5699 65.7236,63.6249 66.0436,64.6259 C66.0967429,64.7879 66.1381306,64.851451 66.2559265,64.8266289 L66.519598,64.7465914 C66.983225,64.6356031 67.457475,64.719275 67.9256,64.7149 C68.7046,64.7089 68.6956,64.7229 68.5886,63.9329 C68.5416,63.5929 68.4236,63.3039 68.1156,63.1409 C67.8416,62.9959 67.6946,62.7769 67.6046,62.4929 C67.3706,61.7669 67.1216,61.0469 66.8916,60.3189 C66.8276,60.1179 66.7766,60.1179 66.6096,60.2359 Z M63.6576,63.0479 L63.6576,63.0479 C63.5356,63.0869 63.4376,63.1969 63.3276,63.2759 C63.3876,63.3529 63.4316,63.4659 63.5086,63.4989 C63.6646,63.5649 63.7266,63.7249 63.8856,63.8339 C63.9906,63.5979 63.9356,63.4159 63.8426,63.2479 C63.8118857,63.1921857 63.7959673,63.0936143 63.7427312,63.0564131 L63.7058945,63.0422907 Z M64.3396,56.0649 C64.1596,56.0529 64.1606,56.1549 64.1816,56.2429 C64.3056,56.7719 64.4346,57.2999 64.5676,57.8259 C64.5856,57.8919 64.6156,58.0189 64.6896,57.9959 C64.8826,57.9329 64.9656,57.7359 65.0966,57.5969 C65.1416,57.5509 65.1716,57.4829 65.0656,57.4599 C64.8946,57.4219 64.9796,57.2819 64.9446,57.1849 C64.8256,56.8479 64.6836,56.5179 64.5306,56.1949 C64.4996,56.1269 64.3886,56.0959 64.3396,56.0649 Z M80.9022,29.6752 C80.9322,30.0392 80.8482,30.3722 80.6562,30.6762 C80.5032,30.9162 80.3362,31.1482 80.1732,31.3822 C79.9562,31.6952 79.7822,32.0182 79.7792,32.4162 C79.7732,33.2482 79.2702,33.8982 78.9422,34.6062 C78.6162,35.3102 78.2332,35.9902 77.8542,36.6672 C77.7222,36.9042 77.7222,37.0762 77.8782,37.3032 C78.0372,37.5332 78.1662,37.4662 78.3652,37.3842 C78.5982,37.2872 78.7792,37.4502 78.6702,37.6772 C78.4352,38.1692 78.6442,38.5192 78.9142,38.9112 C79.4302,39.6572 79.8942,40.4382 80.3902,41.1982 C80.6562,41.6052 80.6872,41.6032 81.0412,41.2522 C81.0655333,41.2288667 81.0868667,41.2024222 81.1066444,41.1744222 L81.2182,41.0002 C81.2302,41.5522 80.9142,41.8992 80.6202,42.2552 C80.5202,42.3752 80.3972,42.4772 80.3092,42.6042 C80.1192,42.8762 79.8502,42.7962 79.6722,42.6752 C78.6972,42.0112 77.6212,41.5052 76.6992,40.7612 C76.6052,40.6852 76.4982,40.6392 76.3732,40.6672 C76.2552,40.6922 76.1732,40.6642 76.1372,40.5372 C76.0462,40.2212 75.8102,40.2102 75.5462,40.2622 C74.8142,40.4052 74.7552,40.4802 74.9402,41.2502 C75.1032,41.9302 75.3152,42.5972 75.4842,43.2762 C75.5552,43.5632 75.5892,43.8552 75.3142,44.0982 C75.1652,44.2302 75.0672,44.2312 74.9152,44.1302 C74.4582,43.8252 74.1672,43.3812 73.8942,42.9222 C73.8082,42.7782 73.7182,42.6332 73.6502,42.4802 C73.4862,42.1142 73.3062,41.8852 72.8452,42.1402 C72.5722,42.2922 72.4102,42.1002 72.4562,41.7452 C72.5152,41.2922 72.5032,41.2832 72.0962,41.4452 C71.7062,41.5992 71.4412,41.3972 71.5362,40.9792 C71.5942,40.7182 71.5312,40.6462 71.2862,40.5882 C70.5682,40.4192 69.8522,40.2382 69.1872,39.9022 L69.0825594,39.8527312 C68.9792,39.8023875 68.89145,39.73995 68.9252,39.5802 C68.9652,39.3912 68.9892,39.2032 69.2222,39.1252 C69.8092,38.9322 70.4132,38.8872 71.0252,38.8822 C71.4132,38.8782 71.8022,38.8322 72.1902,38.8432 C72.5472,38.8542 72.5792,38.5642 72.7162,38.3612 C72.8542,38.1592 72.7452,38.0012 72.6112,37.8832 C71.9802,37.3292 71.3472,36.7762 70.6972,36.2462 C70.1552,35.8042 69.5542,35.4332 69.0842,34.9052 C68.6662,34.4352 68.6652,34.3992 69.0012,33.8752 C69.1552,33.6342 69.3022,33.3902 69.4602,33.1532 C69.5112,33.0772 69.5342,32.9162 69.6652,32.9802 C69.7462,33.0202 69.8032,33.1602 69.7532,33.2572 C69.5882,33.5772 69.8002,33.6132 70.0292,33.6762 C71.0522,33.9592 72.1082,34.1182 73.1112,34.4762 C73.3532,34.5632 73.4602,34.3712 73.6072,34.2552 C73.7392,34.1512 73.8872,33.9892 74.0442,34.0562 C74.2032,34.1252 74.2022,34.3272 74.1542,34.5002 C74.1052,34.6782 74.2492,34.7452 74.3652,34.7692 C74.5652,34.8112 74.8072,34.9852 74.9742,34.7572 C75.8542,33.5622 77.0972,32.7412 78.1122,31.6852 C78.1822,31.6122 78.2672,31.4942 78.3452,31.4942 C78.8112,31.4952 78.9582,31.1132 79.1872,30.8312 C79.5962,30.3262 80.0112,29.8302 80.5942,29.5062 C80.8032,29.3902 80.8822,29.4472 80.9022,29.6752 Z" class="illustration-primary"></path> 

    </g> 

</svg> 