<svg width="160px" height="160px" viewBox="0 0 160 160" version="1.1" 

    xmlns="http://www.w3.org/2000/svg" 

    xmlns:xlink="http://www.w3.org/1999/xlink"> 

    <!-- Generator: Sketch 58 (84663) - https://sketch.com --> 

    <title>Illustration / CTA Standard / Feature / Closing BGABlue</title> 

    <desc>Created with Sketch.</desc> 

    <g class="Illustration-/-CTA-Standard-/-Feature-/-Closing-BGABlue" stroke="none" stroke-width="1" fill="none" fill-rule="evenodd"> 

        <ellipse class="illustration-shape" fill="#C8D9EE" cx="80.5" cy="80" rx="67.5" ry="68"></ellipse> 

        <path d="M36.9822,2.5 L132.4152,15.081 L125.7362,65.733 L126.963532,64.4626686 L129.587523,66.9939446 L127.056468,69.6177057 L125.4312,68.049 L122.1592,92.864 L114.9332,147.694 L19.5002,135.113 L36.9822,2.5 Z" class="illustration-fill" fill="#EDEEF1"></path> 

        <path d="M140.4197,23.1174 L140.4197,158.5864 L44.4317,158.5864 L44.4317,138.6994 L114.9327,147.6944 L123.4838,82.2708 L92.7723,114.0619 C92.5414667,114.300233 92.2703556,114.495511 91.9722769,114.637895 L91.7903,114.7169 L84.7533,117.4729 C83.8413,117.8309 82.8033,117.5849 82.1483,116.8569 L82.1483,116.8569 L80.1343,114.6169 L89.2233,110.9889 L124.4318,75.0208 L124.5,74.5 L125.3507,67.9724 L127.056468,69.6177057 L129.587523,66.9939446 L126.963532,64.4626686 L125.6287,65.8454 L126,63 L131.5757,23.1174 L140.4197,23.1174 Z M36.9828,2.4998 L44.1608,3.4468 L44.3008,73.7108 L36.9514088,73.7113366 C36.8691326,73.7304479 34.695989,74.2861898 35.4566264,79.5111502 L35.5038,79.8178 L36.7148,86.2578 L36.7299382,86.2941932 C36.8312253,86.5285618 37.4444362,87.8109861 38.6793401,87.6657115 L38.8608,87.6348 L39.1528,100.3498 C39.1528,100.3498 39.4221363,100.998217 40.0575352,101.622426 L42.1505,102.5146 L44.4325,102.5146 L46.0715,100.6256 L46.0715,87.2486 L47.3475,87.2486 L48.3915,82.1786 C48.3915,82.1786 54.0425,83.5336 57.7355,78.0016 C57.7355,78.0016 63.5816655,80.8978834 67.0313282,73.3461396 L67.1645,73.0466 L81.2125,68.4236 L82.8145,65.7806 L80.8415,62.0906 C81.1405,62.0196 81.4455,61.9746 81.7535,61.9746 C83.4246538,61.9746 84.9238402,63.0526325 85.4669644,64.621071 L85.5275,64.8116 L86.0415,66.5876 C86.4422368,67.9707579 86.1186856,69.4759767 85.2009375,70.5743887 L85.0425,70.7536 L83.8485,72.0286 C83.2725,72.6426 82.4775,72.9786 81.6575,72.9786 C81.4685,72.9786 81.278375,72.9606 81.0896562,72.9241781 L80.9015,72.8816 L80.2035,72.6996 L79.7105,73.2266 C79.1355,73.8396 78.3395,74.1756 77.5205,74.1756 C77.3315,74.1756 77.141375,74.1581625 76.9526562,74.1216 L76.7645,74.0786 L76.0655,73.8976 L75.5725,74.4236 C74.9985,75.0376 74.2015,75.3736 73.3835,75.3736 C73.1945,75.3736 73.004375,75.3556 72.8156562,75.3187563 L72.6275,75.2756 L71.9285,75.0946 L71.4355,75.6206 C71.112625,75.96535 70.7139531,76.2281781 70.2716406,76.3896566 L70.0795,76.4526 L70.0155,76.4706 C69.0235,79.0486 66.8795,81.0696 64.1645,81.8556 C63.3525,82.0906 62.5135,82.2096 61.6725,82.2096 C61.2265,82.2096 60.7855,82.1706 60.3525,82.1056 C58.1195,84.4636 55.0785,85.7846 51.8675,85.7846 L51.828,85.7831 L51.828,85.7831 L51.7885,85.7816 L51.6775,87.2116 C51.56635,88.63565 50.75125,89.82866 49.5837237,90.4648275 L49.3965,90.5606 L49.4785,102.2236 C49.4920625,104.271538 47.8895684,105.960977 45.8674579,106.078204 L45.6705,106.0846 L44.3658,106.0918 L44.4318,138.6988 L19.5008,135.1128 L36.9828,2.4998 Z" class="illustration-secondary" fill="#B3CBE8"></path> 

        <path d="M140.7681,21.6174 C141.551926,21.6174 142.195054,22.2185254 142.262304,22.9844686 L142.268105,23.1212572 L141.919095,158.842257 C141.91709,159.621976 141.320519,160.261208 140.559655,160.331915 L140.415173,160.338405 L44.1571731,160.086395 C43.3654101,160.084322 42.720405,159.469739 42.6644771,158.695358 L42.6608125,158.557136 L42.9323855,144.669136 C42.9485477,143.840866 43.6330949,143.182523 44.4613643,143.198685 C45.240912,143.213897 45.8699366,143.821173 45.9277676,144.583098 L45.9318145,144.727664 L45.6905774,157.090399 L138.922962,157.334478 L139.264238,24.6174 L137.5761,24.6174 C136.747673,24.6174 136.0761,23.9458271 136.0761,23.1174 C136.0761,22.3377039 136.670988,21.6969513 137.43164,21.6242666 L137.5761,21.6174 L140.7681,21.6174 Z M37.0341312,1.00079379 L37.1782498,1.01286703 L132.61125,13.593867 C133.384251,13.6957724 133.941754,14.369294 133.914407,15.1329152 L133.902335,15.2770325 L128.581335,55.6430325 C128.47307,56.4643546 127.71949,57.042401 126.898168,56.9341353 C126.125158,56.8322381 125.567646,56.1587132 125.594993,55.395086 L125.607065,55.2509675 L130.732035,16.3720855 L38.2732883,4.18318344 L21.1833776,133.821916 L113.642056,146.010809 L120.672059,92.6680109 C120.780301,91.8466856 121.533864,91.2686172 122.355189,91.376859 C123.128201,91.4787336 123.685733,92.1522423 123.658408,92.9158703 L123.646341,93.0599891 L116.420341,147.889989 C116.318463,148.663023 115.644921,149.220561 114.881273,149.193206 L114.73715,149.181133 L19.3041502,136.600133 C18.5311442,136.498227 17.9736403,135.824699 18.0009936,135.061073 L18.0130664,134.916955 L35.4950664,2.30395534 C35.5906011,1.57925836 36.1885438,1.04396825 36.8921242,1.00242827 L37.0341312,1.00079379 Z M43.2559439,123.014174 L43.400067,123.02619 L94.978067,129.80519 C95.7994302,129.913144 96.3777631,130.666504 96.2698097,131.487867 C96.1682065,132.260915 95.4948936,132.818683 94.7312561,132.791626 L94.587133,132.77961 L43.009133,126.00061 C42.1877698,125.892656 41.6094369,125.139296 41.7173903,124.317933 C41.8126433,123.593201 42.4103755,123.057679 43.1139379,123.015864 L43.2559439,123.014174 Z M44.887673,108.403926 C46.0119901,108.549549 46.6398314,109.340942 47.0165636,110.483157 C47.2160481,111.087975 47.3152706,111.6138 47.5058636,112.863232 C47.5686589,113.274886 47.6196862,113.593709 47.6659444,113.852055 C47.7766816,113.613811 47.9074734,113.318213 48.0742186,112.93375 C48.5762767,111.776157 48.806409,111.29282 49.1533364,110.759141 C49.8085535,109.751219 50.6169577,109.146295 51.740673,109.291926 C52.8649787,109.437548 53.4928488,110.228915 53.8697248,111.371188 C54.0692877,111.976043 54.1685559,112.501743 54.3593308,113.751141 C54.4221725,114.162696 54.4732378,114.481474 54.5195246,114.739805 C54.6301073,114.501783 54.760706,114.206542 54.9264622,113.824282 C55.4290133,112.665319 55.6587887,112.182542 56.0056789,111.648614 C56.6608599,110.640169 57.4689951,110.034827 58.5937836,110.17994 C59.7179662,110.325631 60.3454281,111.116991 60.7219554,112.259175 C60.9212807,112.863822 61.0203908,113.389247 61.2109771,114.638837 C61.2739682,115.051842 61.3251305,115.371473 61.3715244,115.630361 C61.4824769,115.391861 61.6135724,115.095786 61.7800057,114.712307 C62.2830455,113.553251 62.5129985,113.07053 62.8601937,112.536628 C63.5158644,111.528368 64.3245985,110.923334 65.4495844,111.069044 C66.5730893,111.215262 67.2016943,112.006162 67.5790799,113.147456 C67.7649286,113.709502 67.8644872,114.205819 68.0299934,115.270817 L68.0694271,115.52697 L68.0705826,115.534537 L68.1025575,115.743414 L68.118526,115.905018 C68.1264401,116.083404 68.2143601,116.463424 68.4323058,116.823464 C68.7153376,117.291023 69.145889,117.590222 69.8763785,117.693185 C70.5947638,117.794453 71.2717676,117.606074 71.6071879,117.305226 L71.6837529,117.227774 L73.0420163,115.66147 C74.2376772,114.28342 76.7907391,114.566631 77.7059433,116.122544 L77.789298,116.277076 L78.748732,118.22996 C78.9047278,118.54801 79.4347636,118.886992 80.1213162,119.015399 L80.2960892,119.04298 L83.3390892,119.43798 C84.160624,119.54462 84.7401605,120.297054 84.6335203,121.118589 C84.533153,121.891798 83.8607327,122.450642 83.0970528,122.424807 L82.9529108,122.41302 L79.9111578,122.018182 C78.2948378,121.809751 76.8538411,120.971678 76.154906,119.739653 L76.055702,119.551924 L75.1836485,117.776898 C75.1969723,117.774874 75.2158579,117.741226 75.2651697,117.679106 L75.2910294,117.646794 L75.2800294,117.659794 L75.1817702,117.773075 L75.1280294,117.667794 L75.1458137,117.709988 C75.1567221,117.736931 75.1637912,117.755539 75.1699948,117.766189 L75.1790229,117.776243 L73.94967,119.193891 C72.9407566,120.355958 71.1907072,120.908121 69.4576428,120.663818 C67.8072308,120.431191 66.6026381,119.594095 65.8658913,118.377013 C65.4184141,117.637795 65.2115507,116.913288 65.1440129,116.320721 L65.1265215,116.128246 L65.103801,115.979807 C65.0404909,115.56519 64.9890369,115.244459 64.9422975,114.984723 C64.8309586,115.223897 64.6993395,115.521113 64.5319943,115.906693 C64.0289545,117.065749 63.7990015,117.54847 63.4518063,118.082372 C62.7961356,119.090632 61.9874015,119.695666 60.863327,119.550074 C59.7389417,119.404442 59.1111321,118.612972 58.7344143,117.470619 C58.53494,116.865737 58.4357199,116.33984 58.2451309,115.090232 C58.1824866,114.679501 58.1315535,114.361169 58.0853829,114.103107 C57.9748571,114.341036 57.8443307,114.636123 57.6786888,115.01812 C57.1761368,116.177085 56.9462926,116.659983 56.5993421,117.193916 C55.9439871,118.202463 55.1354519,118.807758 54.0103624,118.661949 C52.8867406,118.515675 52.2595358,117.724494 51.8829444,116.582573 C51.6835415,115.977933 51.5843589,115.452587 51.3936232,114.203445 C51.3306414,113.790973 51.2794791,113.47165 51.2330961,113.212961 C51.1446452,113.403279 51.0434065,113.630167 50.9217235,113.908661 L50.8265084,114.127442 C50.3230164,115.288341 50.0929943,115.771476 49.7458313,116.305491 C49.0901446,117.314084 48.2810136,117.919272 47.1572164,117.77306 C46.0331021,117.627378 45.4056083,116.836095 45.0290667,115.694048 C44.8297312,115.089466 44.7306187,114.564113 44.5400284,113.314699 C44.4772288,112.903017 44.4261867,112.584129 44.3799056,112.325706 C44.2921755,112.514477 44.1920078,112.738896 44.0721327,113.013209 L43.9784178,113.22852 L43.9722512,113.242738 L43.929876,113.340329 C43.8062665,113.774867 43.5687788,114.307613 43.1627555,114.847316 C42.0144834,116.373647 40.1395632,116.992753 37.7763506,116.200754 C36.9908617,115.937507 36.5675002,115.08734 36.8307464,114.301851 C37.0939925,113.516362 37.9441604,113.093 38.7296494,113.356246 C39.8475475,113.730895 40.381009,113.554744 40.7654151,113.043776 C40.9331953,112.820755 41.0282447,112.589101 41.0501894,112.497399 L41.0864101,112.370855 L41.133585,112.247974 L41.2199774,112.049009 L41.2261473,112.034784 C41.7244674,110.88586 41.9568295,110.398466 42.3037572,109.865935 C42.9579982,108.86168 43.7659093,108.258859 44.887673,108.403926 Z M127.85117,61.1613408 L127.966916,61.262239 L132.749916,65.876239 C133.308877,66.41545 133.358822,67.2837547 132.888966,67.8814608 L132.788061,67.9972164 L129.163029,71.7547938 L132.040167,74.532884 C132.599029,75.0721504 132.648876,75.9404178 132.178988,76.5380605 L132.078077,76.6538031 L118.447077,90.7818031 C117.871871,91.377982 116.922276,91.3949836 116.326097,90.8197773 C115.767179,90.2805215 115.717304,89.4122127 116.187208,88.8145444 L116.288123,88.6987969 L128.877681,75.6502106 L127.079029,73.9137938 L90.3474108,111.98452 C90.2405513,112.105359 90.1118932,112.210835 89.9626902,112.294577 L89.9326481,112.31058 C89.907409,112.324439 89.8808658,112.337612 89.8537316,112.350108 C89.8324181,112.359835 89.8116919,112.368845 89.7908103,112.377366 C89.7867643,112.379075 89.782309,112.380872 89.7778391,112.382652 L81.8918391,115.521652 C80.6675666,116.00897 79.4549014,114.794071 79.9444717,113.570697 L83.0474717,105.816697 C83.1335122,105.601693 83.2609508,105.420536 83.4155981,105.276271 L121.231733,66.0819857 L121.241029,66.0717938 L125.846048,61.3002708 C126.385277,60.7414075 127.253509,60.6915135 127.85117,61.1613408 Z M85.0039126,109.002407 L84.0273607,111.442686 L86.5091809,110.454804 L85.0039126,109.002407 Z M122.348029,69.2447938 L86.5612753,106.33645 L89.185167,108.86763 L124.973224,71.77642 L122.348029,69.2447938 Z M53.6465611,100.591274 L53.790684,100.603293 L76.933684,103.645293 C77.755046,103.753255 78.3333703,104.506622 78.2254075,105.327984 C78.1237954,106.101031 77.4504762,106.658791 76.6868389,106.631726 L76.542716,106.619707 L53.399716,103.577707 C52.578354,103.469745 52.0000297,102.716378 52.1079925,101.895016 C52.2032538,101.170285 52.8009921,100.63477 53.504555,100.592963 L53.6465611,100.591274 Z M79.7534,59.9748 C81.4245538,59.9748 82.9237402,61.0528325 83.4668644,62.621271 L83.5274,62.8118 L84.0414,64.5878 C84.4421368,65.9709579 84.1185856,67.4761767 83.2008375,68.5737385 L83.0424,68.7528 L81.8474,70.0288 C81.2734,70.6428 80.4764,70.9778 79.6574,70.9778 C79.4684,70.9778 79.278275,70.9603625 79.0895563,70.9242219 L78.9014,70.8818 L78.2024,70.6998 L77.7104,71.2258 C77.1354,71.8398 76.3394,72.1758 75.5204,72.1758 C75.3314,72.1758 75.141275,72.1578 74.9525563,72.1213781 L74.7644,72.0788 L74.0664,71.8968 L73.5724,72.4238 C72.9974,73.0378 72.2014,73.3728 71.3824,73.3728 C71.19415,73.3728 71.0042125,73.3553625 70.8151188,73.3188 L70.6264,73.2758 L69.9284,73.0948 L69.4354,73.6208 C69.1182571,73.9585143 68.729849,74.2176163 68.2985137,74.3798437 L68.0794,74.4528 L68.0154,74.4708 C67.0244,77.0488 64.8794,79.0698 62.1644,79.8548 C61.3524,80.0908 60.5134,80.2098 59.6724,80.2098 C59.2309551,80.2098 58.7947793,80.1767569 58.3666569,80.1127639 C56.1423593,82.4606192 53.0441353,83.7975925 49.7888645,83.7814988 L49.6777,85.2107 C49.5597,86.7097 48.6637,87.9537 47.3957,88.5607 L47.3957,88.5607 L47.4777,100.2237 C47.4917,102.3377 45.7847,104.0697 43.6707,104.0837 L43.6707,104.0837 L41.9817,104.0957 C40.5217,104.0957 39.1457,103.3197 38.3897,102.0697 L38.3897,102.0697 L37.5787,100.7267 C37.0107,99.7857 37.0017,98.6087 37.5567,97.6597 L37.5567,97.6597 L37.7927,97.2587 L37.5527,96.8597 C36.9837,95.9187 36.9747,94.7427 37.5307,93.7927 L37.5307,93.7927 L37.7647,93.3917 L37.5247,92.9937 C36.9567,92.0527 36.9487,90.8757 37.5037,89.9267 L37.5037,89.9267 L37.7387,89.5247 L37.4977,89.1267 C37.4207,88.9987 37.3517,88.8637 37.2957,88.7267 C35.9057,88.1807 34.8917,86.8927 34.7467,85.3147 L34.7467,85.3147 L33.9707,76.8687 C33.8667,75.7377 34.2437,74.6077 35.0067,73.7667 C35.7677,72.9257 36.8547,72.4387 37.9897,72.4317 L37.9897,72.4317 L38.0917586,72.4302689 C38.0690563,71.7471449 38.1061548,71.0589044 38.2041122,70.3719131 C39.1200514,63.9465823 45.0708345,59.4807478 51.4967011,60.3966 C53.5269773,60.6858988 55.4097675,61.4876705 56.9989264,62.7107382 L57.1864,62.6538 C57.9954,62.4188 58.8294,62.3008 59.6654,62.3008 C61.4959882,62.3008 63.2583689,62.8615197 64.7374456,63.8829144 L65.0114,64.0798 L78.6614,60.1298 C79.0174,60.0268 79.3844,59.9748 79.7534,59.9748 Z M46.2827,75.3737 L46.2747,75.3737 L38.0117,75.4317 C37.3867,75.4357 36.9007,75.9727 36.9587,76.5937 L36.9587,76.5937 L37.7337,85.0407 C37.7847,85.5887 38.2447,86.0077 38.7947,86.0077 L38.7947,86.0077 L38.8027,86.0077 L40.0537,85.9987 L40.0657,87.5757 L41.2287,89.5007 L40.0937,91.4417 L41.2557,93.3677 L40.1197,95.3087 L41.2827,97.2337 L40.1457,99.1757 L40.9577,100.5187 C41.1747,100.8767 41.5627,101.0957 41.9817,101.0957 L41.9817,101.0957 L41.9897,101.0957 L43.6497,101.0837 C44.1097,101.0817 44.4807,100.7057 44.4777,100.2447 L44.4777,100.2447 L44.3787,85.9687 L45.6317,85.9597 C46.1847,85.9567 46.6427,85.5297 46.6857,84.9777 L46.6857,84.9777 L46.8095425,83.3847828 C44.7178736,82.8293069 42.8381483,81.7132323 41.3510431,80.1591491 C40.7782966,79.5606067 40.7992084,78.6110895 41.3977509,78.0383431 C41.9962933,77.4655966 42.9458105,77.4865084 43.5185569,78.0850509 C44.4982151,79.108832 45.7045238,79.8763057 47.0483448,80.3260263 L47.3447,76.5207 C47.3917,75.9017 46.9017,75.3737 46.2827,75.3737 L46.2827,75.3737 Z M41.1740799,70.795342 C41.0970957,71.3352446 41.0704507,71.8750375 41.0930902,72.4096497 L46.2487,72.3737 L46.2827,72.3737 C47.4117,72.3737 48.4997,72.8487 49.2657,73.6777 C50.0327,74.5067 50.4227,75.6277 50.3357,76.7537 L50.3357,76.7537 L50.0226276,80.7797386 C51.8986373,80.7418529 53.6936845,80.1016666 55.1602354,78.9775666 C53.2250849,77.8402 51.7252418,75.9922164 51.0744,73.7438 C50.0501461,70.2029572 51.3181621,66.5328154 54.0001361,64.3289817 C53.101143,63.8428886 52.114411,63.514922 51.0734501,63.366593 C46.2877614,62.6845086 41.856205,66.0102218 41.1740799,70.795342 Z M79.7534,62.9748 C79.6967333,62.9748 79.6391778,62.9801333 79.5816222,62.9910963 L79.4954,63.0118 L64.2204,67.4328 C63.0964,66.0988 61.4304,65.3008 59.6654,65.3008 C59.601967,65.3008 59.5383975,65.3018235 59.4747138,65.3038865 C60.553823,66.8514929 61.2570997,68.6477239 61.4972686,70.5485725 C61.6011133,71.3704653 61.0190203,72.1209239 60.1971275,72.2247686 C59.3752347,72.3286133 58.6247761,71.7465203 58.5209314,70.9246275 C58.3017128,69.189592 57.5620434,67.5688708 56.4237081,66.266873 C54.2847747,67.6591676 53.2104933,70.3317701 53.9564,72.9098 C54.7104,75.5148 57.0894,77.2098 59.6724,77.2098 C60.2204,77.2098 60.7774,77.1338 61.3304,76.9738 C63.5829517,76.3220759 65.1382002,74.4538 65.5218045,72.2915523 L65.5584,72.0588 L67.2454,71.5708 L68.9584,69.7418 L71.3834,70.3728 L73.0954,68.5438 L75.5204,69.1758 L77.2324,67.3468 L79.6574,67.9778 L80.8524,66.7028 C81.1377333,66.3979111 81.2618815,65.9792444 81.1939418,65.5725174 L81.1594,65.4208 L80.6464,63.6458 C80.5274,63.2388 80.1564,62.9748 79.7534,62.9748 Z M126.963532,64.4626686 L124.432477,67.0858811 L127.056468,69.6177057 L129.587523,66.9939446 L126.963532,64.4626686 Z M52.2969477,48.5678737 L52.4410707,48.5798908 L104.018071,55.3588908 C104.839434,55.4668463 105.417765,56.2202077 105.309809,57.0415707 C105.208204,57.8146182 104.53489,58.3723848 103.771252,58.3453263 L103.627129,58.3333092 L52.0501293,51.5543092 C51.2287664,51.4463537 50.6504353,50.6929923 50.7583908,49.8716293 C50.8536456,49.1468973 51.4513792,48.611377 52.1549417,48.5695634 L52.2969477,48.5678737 Z M53.6465154,36.4340726 L53.7906386,36.4460866 L105.368639,43.2240866 C106.190004,43.3320243 106.768351,44.0853733 106.660413,44.9067386 C106.558825,45.6797883 105.885523,46.2375694 105.121885,46.2105274 L104.977761,46.1985134 L53.3997614,39.4205134 C52.5783961,39.3125757 52.0000488,38.5592267 52.1079866,37.7378614 C52.2032258,37.0131273 52.8009478,36.4775941 53.5045094,36.4357654 L53.6465154,36.4340726 Z M54.9961439,24.2997736 L55.140267,24.3117903 L106.718267,31.0907903 C107.53963,31.1987437 108.117963,31.9521037 108.01001,32.773467 C107.908406,33.5465147 107.235094,34.104283 106.471456,34.0772264 L106.327333,34.0652097 L54.749333,27.2862097 C53.9279698,27.1782563 53.3496369,26.4248963 53.4575903,25.603533 C53.5528433,24.8788008 54.1505755,24.343279 54.8541379,24.3014637 L54.9961439,24.2997736 Z" class="illustration-primary" fill="#2157AA"></path> 

    </g> 

</svg> 