<svg width="160px" height="160px" viewBox="0 0 160 160" version="1.1" 

    xmlns="http://www.w3.org/2000/svg" 

    xmlns:xlink="http://www.w3.org/1999/xlink"> 

    <!-- Generator: Sketch 58 (84663) - https://sketch.com --> 

    <title>Illustration / CTA Standard / Feature / Computer BGABlue</title> 

    <desc>Created with Sketch.</desc> 

    <g class="Illustration-/-CTA-Standard-/-Feature-/-Computer-BGABlue" stroke="none" stroke-width="1" fill="none" fill-rule="evenodd"> 

        <ellipse class="illustration-shape" fill="#C8D9EE" cx="80.5" cy="80" rx="67.5" ry="68"></ellipse> 

        <path d="M141.377392,34 C145.374161,34 148.614112,37.2622196 148.614112,41.2864595 L148.614,113.942 L158.661323,113.942151 C159.400654,113.942151 160,114.545617 160,115.290029 C160,121.204981 155.237713,126 149.363139,126 L10.6370328,126 C4.76231701,126 0,121.205012 0,115.290029 C0,114.545617 0.599346028,113.942151 1.33867682,113.942151 L11.385,113.942 L11.3859568,41.2864595 C11.3859568,37.2622524 14.6258749,34 18.6225049,34 L141.377392,34 Z" class="illustration-fill" fill="#EDEEF1"></path> 

        <path d="M9.07738801,115.564792 C9.07738801,115.564792 9.20780629,115.991883 9.52635766,116.660139 C10.2973243,117.827625 10.0556112,119.510374 15.6680764,119.510374 L15.6680764,119.510374 L159,119.510374 C157.796775,122.096269 154.890532,125 147.900492,125 L147.900492,125 L11.8972009,124.999369 C11.4605824,124.985497 4.98261978,124.693039 2.75012043,119.510374 C2.28219965,118.424089 2,117.123648 2,115.564792 L2,115.564792 Z M46.0365833,35 L81.8973017,115.564932 L13.4230559,115.564932 L13.4230559,40.9848494 C13.4230559,40.9848494 12.803526,35 19.3401175,35 L46.0365833,35 Z" class="illustration-secondary" fill="#B3CBE8"></path> 

        <path d="M96.2943526,115.289874 C96.2943526,117.452046 94.5534116,119.204953 92.4059992,119.204953 L67.5940695,119.204953 C65.4466571,119.204953 63.7057161,117.452046 63.7057161,115.289874 L96.2943526,115.289874 Z M141.377392,34 C145.374161,34 148.614112,37.2622196 148.614112,41.2864595 L148.614112,109.453755 C148.614112,110.198168 148.014766,110.801633 147.275435,110.801633 C146.536104,110.801633 145.936758,110.198168 145.936758,109.453755 L145.936758,41.2864595 C145.936758,38.7510444 143.8955,36.6957557 141.377392,36.6957557 L18.6225049,36.6957557 C16.1045485,36.6957557 14.0633105,38.7510651 14.0633105,41.2864595 L14.0633105,109.453755 C14.0633105,110.198168 13.4639644,110.801633 12.7246336,110.801633 C11.9853028,110.801633 11.3859568,110.198168 11.3859568,109.453755 L11.3859568,41.2864595 C11.3859568,37.2622524 14.6258749,34 18.6225049,34 L141.377392,34 Z M139.546931,41.7815719 C140.286262,41.7815719 140.885608,42.3850373 140.885608,43.1294497 L140.885608,109.453755 C140.885608,110.198168 140.286262,110.801633 139.546931,110.801633 C138.8076,110.801633 138.208254,110.198168 138.208254,109.453755 L138.208254,44.4773276 L21.7917113,44.4773276 L21.7917113,109.453755 C21.7917113,110.198168 21.1923653,110.801633 20.4530345,110.801633 C19.7137037,110.801633 19.1143577,110.198168 19.1143577,109.453755 L19.1143577,43.1294497 C19.1143577,42.3850373 19.7137037,41.7815719 20.4530345,41.7815719 L139.546931,41.7815719 Z M29.7153112,79.957941 C30.4546419,79.957941 31.053988,80.5614064 31.053988,81.3058188 L31.053988,100.127869 C31.053988,100.872281 30.4546419,101.475746 29.7153112,101.475746 C28.9759804,101.475746 28.3766343,100.872281 28.3766343,100.127869 L28.3766343,81.3058188 C28.3766343,80.5614064 28.9759804,79.957941 29.7153112,79.957941 Z M40.0155926,72.5655774 C40.7549234,72.5655774 41.3542694,73.1690428 41.3542694,73.9134552 L41.3542694,100.127869 C41.3542694,100.872281 40.7549234,101.475746 40.0155926,101.475746 C39.2762618,101.475746 38.6769157,100.872281 38.6769157,100.127869 L38.6769157,73.9134552 C38.6769157,73.1690428 39.2762618,72.5655774 40.0155926,72.5655774 Z M50.3158568,62.5362456 C51.0551876,62.5362456 51.6545336,63.1397111 51.6545336,63.8841235 L51.6545336,100.127869 C51.6545336,100.872281 51.0551876,101.475746 50.3158568,101.475746 C49.576526,101.475746 48.97718,100.872281 48.97718,100.127869 L48.97718,63.8841235 C48.97718,63.1397111 49.576526,62.5362456 50.3158568,62.5362456 Z M60.6162069,70.1449129 C61.3555377,70.1449129 61.9548837,70.7483783 61.9548837,71.4927907 L61.9548837,100.127869 C61.9548837,100.872281 61.3555377,101.475746 60.6162069,101.475746 C59.8768761,101.475746 59.2775301,100.872281 59.2775301,100.127869 L59.2775301,71.4927907 C59.2775301,70.7483783 59.8768761,70.1449129 60.6162069,70.1449129 Z M70.9164883,62.7295529 C71.6558191,62.7295529 72.2551651,63.3330184 72.2551651,64.0774308 L72.2551651,100.127869 C72.2551651,100.872281 71.6558191,101.475746 70.9164883,101.475746 C70.1771575,101.475746 69.5778115,100.872281 69.5778115,100.127869 L69.5778115,64.0774308 C69.5778115,63.3330184 70.1771575,62.7295529 70.9164883,62.7295529 Z M93.1532575,59.6259152 C93.5267579,59.6259152 93.806325,59.7035494 93.9849183,59.8562242 C94.1624812,60.0076886 94.2655158,60.1686628 94.2912745,60.3343054 C94.3153159,60.4917927 94.3294593,60.7153199 94.3335059,61.0007846 L94.3347207,61.1794631 L94.3347207,62.4532514 C94.3347207,62.5141138 94.3771366,62.5670226 94.4363815,62.5798176 C94.8442267,62.6674802 95.2225354,62.7943922 95.5608323,62.9569225 C95.8401705,63.0912118 96.0501034,63.2058091 96.1827803,63.2952112 L96.2530529,63.345785 L96.4665062,63.5371904 L96.5456712,63.5942489 C96.978073,63.9965979 97.0689151,64.2346876 97.0689151,64.3636744 C97.0689151,64.5009607 96.9806488,64.7974921 96.5602677,65.4303229 C96.2336481,65.9205075 95.8780071,66.1687985 95.5031329,66.1687985 C95.2573954,66.1687985 95.056478,66.1096651 94.8881882,65.9874216 C94.7183528,65.8656967 94.5691244,65.7501964 94.456645,65.6538886 C94.3474283,65.5600014 94.2449089,65.4804653 94.1496019,65.415626 C93.8731258,65.236151 93.5226365,65.1450303 93.108094,65.1450303 C92.6897736,65.1450303 92.3372236,65.2494647 92.060404,65.4550483 C91.7703617,65.6687584 91.6233657,65.9671917 91.6233657,66.3429134 C91.6233657,66.7212287 91.7986962,67.0300363 92.1450641,67.2603453 C92.4692796,67.4740554 92.8704276,67.6184307 93.3371742,67.6893216 C93.7857181,67.7571002 94.2816579,67.8703527 94.8115991,68.0259669 C95.3398231,68.1810623 95.8354194,68.3662432 96.2846502,68.5763223 C96.7096679,68.7763729 97.0744103,69.1380893 97.368574,69.651616 C97.664455,70.1656614 97.814542,70.820797 97.814542,71.5988677 C97.814542,72.7426317 97.4844879,73.6692275 96.8333094,74.3530652 C96.1766356,75.0441649 95.3693597,75.5065118 94.4339774,75.7271381 C94.3903165,75.7376421 94.3563151,75.769543 94.3420432,75.8102944 L94.3347207,75.8535314 L94.3347207,77.3086966 C94.3347207,77.8192839 94.2895572,78.1758132 94.2004323,78.3686018 C94.1157722,78.5520536 93.9977976,78.6725681 93.839983,78.736197 C93.6694608,78.805013 93.4309357,78.8397669 93.1311051,78.8397669 C92.8307593,78.8397669 92.5918907,78.805013 92.4213685,78.736197 C92.2668166,78.6739513 92.1610345,78.5641569 92.097153,78.3979956 C92.0126647,78.1909547 91.9638809,77.8866073 91.951667,77.4914865 L91.9486115,77.2863919 L91.9486115,75.8758361 C91.9486115,75.8148007 91.9067108,75.7625836 91.8478093,75.749097 C91.2452287,75.6156146 90.6963979,75.3922219 90.2171153,75.0854891 C89.7923338,74.8113489 89.4794387,74.5671265 89.2863679,74.359772 L89.2109826,74.2731833 L88.916132,73.8855311 C88.6193924,73.50151 88.4687902,73.1683228 88.4687902,72.8949606 C88.4687902,72.7135837 88.5955227,72.3733074 89.1972447,71.7837027 C89.4771553,71.5172567 89.7622176,71.3879241 90.0685738,71.3879241 C90.2760168,71.3879241 90.6735585,71.5390427 91.3810627,72.248989 C91.8704769,72.854501 92.4363085,73.1615795 93.0631022,73.1615795 C94.5507499,73.1615795 94.8631164,72.3368246 94.8631164,71.6452061 C94.8631164,71.2553062 94.6240762,70.9549709 94.1528647,70.7526726 C93.7300794,70.568702 93.2207452,70.4065175 92.595497,70.2567821 C92.0051088,70.1151733 91.4028717,69.9213472 90.805958,69.6810098 C90.2277622,69.4482802 89.7301052,69.0423002 89.3262096,68.4741356 C88.9226575,67.9092563 88.7179621,67.1771782 88.7179621,66.298477 C88.7179621,65.4218506 88.9975293,64.6225126 89.5489361,63.9219031 C90.098969,63.2221582 90.8719001,62.7630964 91.8464355,62.5575129 C91.8911268,62.548176 91.9262551,62.5160806 91.9410261,62.4747942 L91.9486115,62.4309467 L91.9486115,61.1571584 C91.9486115,60.6602306 91.9913709,60.3016264 92.0750006,60.0920661 C92.2020766,59.7829126 92.56493,59.6259152 93.1532575,59.6259152 Z M105.573424,59.6259152 C105.946924,59.6259152 106.226491,59.7035494 106.404913,59.8562242 C106.582648,60.0076886 106.685682,60.1686628 106.711269,60.3344783 C106.735311,60.4916774 106.749573,60.7151566 106.75366,61.0007134 L106.754887,61.1794631 L106.754887,62.4532514 C106.754887,62.5141138 106.797303,62.5670226 106.856548,62.5798176 C107.264393,62.6674802 107.642702,62.7943922 107.980827,62.9569225 C108.260165,63.0912118 108.469979,63.2058091 108.602715,63.2952112 L108.673048,63.345785 L108.886501,63.5371904 L108.965838,63.5942489 C109.398239,63.9965979 109.489082,64.2346876 109.489082,64.3636744 C109.489082,64.5009607 109.400815,64.7974921 108.980434,65.4303229 C108.653815,65.9205075 108.298173,66.1687985 107.923299,66.1687985 C107.680996,66.1687985 107.474069,66.108109 107.308355,65.9874216 C107.138519,65.8656967 106.989291,65.7501964 106.876811,65.6538886 C106.767595,65.5600014 106.665075,65.4804653 106.569768,65.415626 C106.293292,65.236151 105.942803,65.1450303 105.52826,65.1450303 C105.10994,65.1450303 104.757218,65.2494647 104.48057,65.4550483 C104.190528,65.6685855 104.043532,65.9671917 104.043532,66.3429134 C104.043532,66.7212287 104.218863,67.0300363 104.565231,67.2603453 C104.889274,67.4740554 105.290422,67.6182578 105.757341,67.6893216 C106.205713,67.7571002 106.701653,67.8703527 107.231766,68.0259669 C107.75999,68.1810623 108.255586,68.3662432 108.704645,68.5763223 C109.129663,68.7763729 109.494405,69.1380893 109.788569,69.651616 C110.084621,70.1658343 110.234708,70.8209699 110.234708,71.5988677 C110.234708,72.7426317 109.904483,73.6692275 109.253476,74.3530652 C108.596802,75.0441649 107.789526,75.5065118 106.854144,75.7271381 C106.810483,75.7376421 106.776481,75.769543 106.76221,75.8102944 L106.754887,75.8535314 L106.754887,77.3086966 C106.754887,77.8192839 106.709724,78.1758132 106.620599,78.3686018 C106.535939,78.5520536 106.417964,78.6725681 106.259978,78.736197 C106.089455,78.805013 105.85093,78.8397669 105.551272,78.8397669 C105.250754,78.8397669 105.012057,78.805013 104.841363,78.736197 C104.686983,78.6739513 104.581201,78.5641569 104.517319,78.3979956 C104.432831,78.1908065 104.384047,77.8864379 104.371833,77.491423 L104.368778,77.2863919 L104.368778,75.8758361 C104.368778,75.8148007 104.326877,75.7625836 104.267804,75.749097 C103.665223,75.6156146 103.116564,75.3922219 102.63711,75.0854891 C102.212479,74.8113489 101.899602,74.5671265 101.706534,74.359772 L101.631149,74.2731833 L101.336298,73.8855311 C101.039387,73.50151 100.888957,73.1683228 100.888957,72.8949606 C100.888957,72.7135837 101.015689,72.3733074 101.617411,71.7837027 C101.897322,71.5172567 102.182384,71.3879241 102.48874,71.3879241 C102.696183,71.3879241 103.093725,71.5390427 103.801229,72.248989 C104.290643,72.854501 104.856475,73.1615795 105.483269,73.1615795 C106.970916,73.1615795 107.283283,72.3368246 107.283283,71.6452061 C107.283283,71.2553062 107.044071,70.9549709 106.573031,70.7526726 C106.150246,70.568702 105.640912,70.4065175 105.015663,70.2567821 C104.425275,70.1151733 103.82321,69.9215201 103.226124,69.6810098 C102.647757,69.4481073 102.1501,69.0421273 101.746376,68.4741356 C101.342824,67.9092563 101.138129,67.1771782 101.138129,66.298477 C101.138129,65.4220235 101.417696,64.6225126 101.969103,63.9219031 C102.519135,63.2221582 103.291895,62.7630964 104.266602,62.5575129 C104.311293,62.548176 104.346422,62.5160806 104.361193,62.4747942 L104.368778,62.4309467 L104.368778,61.1571584 C104.368778,60.6600577 104.411537,60.3014535 104.495167,60.0920661 C104.622243,59.7829126 104.984925,59.6259152 105.573424,59.6259152 Z M117.993573,59.6260536 C118.366902,59.6260536 118.646641,59.7035148 118.825062,59.8563625 C119.002797,60.0078269 119.105832,60.1686282 119.131418,60.3344437 C119.15546,60.4916428 119.169723,60.7152421 119.173809,61.0007389 L119.175036,61.1794286 L119.175036,62.4532168 C119.175036,62.5142521 119.217452,62.566988 119.276697,62.5799559 C119.684542,62.6674456 120.062851,62.7943576 120.400976,62.9568879 C120.680314,63.0911772 120.890128,63.2057745 121.022865,63.2951766 L121.093197,63.3457504 L121.30665,63.5373287 L121.385987,63.5942143 C121.818389,63.9965633 121.909231,64.2348259 121.909231,64.3636398 C121.909231,64.5009261 121.820965,64.7974575 121.400412,65.4302883 C121.073964,65.9204729 120.718323,66.1687639 120.343449,66.1687639 C120.101146,66.1687639 119.894218,66.1080744 119.728504,65.9875599 C119.558669,65.8656621 119.40944,65.7503348 119.296961,65.653854 C119.186027,65.5585836 119.086255,65.4811223 118.989746,65.4155914 C118.71327,65.2361165 118.36278,65.1451686 117.94841,65.1451686 C117.529918,65.1451686 117.177368,65.2494301 116.90072,65.4550137 C116.610677,65.6685509 116.463681,65.9671571 116.463681,66.3428789 C116.463681,66.721367 116.639012,67.0300018 116.985208,67.2603107 C117.309424,67.4740208 117.710572,67.6182232 118.17749,67.689287 C118.625862,67.7570656 119.121802,67.8703182 119.651743,68.0261052 C120.180311,68.1812006 120.675735,68.3662086 121.124622,68.5761148 C121.496513,68.7513104 121.822255,69.0500166 122.095062,69.4659785 L122.208718,69.6514085 L122.30199,69.8282333 C122.53627,70.3130739 122.654858,70.9075413 122.654858,71.599006 C122.654858,72.7425971 122.324632,73.6691929 121.673797,74.3530306 C121.01678,75.0441303 120.209504,75.5064773 119.274293,75.7272764 C119.230632,75.7376507 119.196631,75.7696165 119.182359,75.8103355 L119.175036,75.8534968 L119.175036,77.308662 C119.175036,77.8192493 119.129873,78.1757786 119.040748,78.3685672 C118.956088,78.5521919 118.837942,78.6725335 118.680127,78.7361624 C118.509605,78.8049784 118.27108,78.8399052 117.971249,78.8399052 C117.670903,78.8399052 117.432206,78.8049784 117.261513,78.7361624 C117.106961,78.6740897 117.001178,78.5641223 116.937469,78.397961 C116.85298,78.1909201 116.804197,77.8864457 116.791983,77.4913974 L116.788927,77.2863573 L116.788927,75.8758015 C116.788927,75.8149391 116.747026,75.762549 116.687953,75.7492353 C116.085373,75.6155801 115.536714,75.3921873 115.057259,75.0854545 C114.632478,74.811163 114.319583,74.5669217 114.126627,74.3596807 L114.051298,74.2731487 L113.756276,73.8854966 C113.459536,73.5016483 113.309106,73.1682882 113.309106,72.8949261 C113.309106,72.7135491 113.435838,72.3732729 114.03756,71.7836681 C114.317299,71.5172221 114.602533,71.3878895 114.90889,71.3878895 C115.116332,71.3878895 115.513874,71.5390081 116.221378,72.2489544 C116.710793,72.8544664 117.276624,73.161545 117.903246,73.161545 C119.391066,73.161545 119.703432,72.33679 119.703432,71.6451716 C119.703432,71.2552717 119.46422,70.9549364 118.99318,70.752638 C118.570395,70.5688404 118.061061,70.4064829 117.435813,70.2567476 C116.845253,70.1153116 116.243187,69.9216584 115.646274,69.6809752 C115.067906,69.4480727 114.570249,69.0422656 114.166525,68.4741011 C113.762973,67.9092217 113.558106,67.1771436 113.558106,66.2984424 C113.558106,65.4219889 113.837845,64.622478 114.38908,63.9218685 C114.939113,63.2221236 115.712044,62.7630619 116.686751,62.5576512 C116.731443,62.5481847 116.766571,62.5160568 116.781342,62.4747623 L116.788927,62.4309121 L116.788927,61.1571239 C116.788927,60.6600231 116.831687,60.301419 116.915316,60.0920315 C117.042392,59.782878 117.405074,59.6260536 117.993573,59.6260536 Z M72.8956438,53.4916422 L72.8748323,53.5940343 L71.5424234,58.602562 C71.3875887,59.1841724 70.6989802,59.4017188 70.2438334,59.0481991 L70.1614166,58.9751715 L69.286,58.094 L61.6054591,65.8292311 C61.0825586,66.3557257 60.2350992,66.3557257 59.7121987,65.8292311 L50.3726289,56.4258141 L30.6619414,76.2719778 C30.400577,76.5351386 30.057987,76.666719 29.715397,76.666719 C29.372807,76.666719 29.030217,76.5351386 28.7688526,76.2719778 C28.2461239,75.7456562 28.2461239,74.8921991 28.7688526,74.3658774 L49.4260845,53.5664906 C49.9488133,53.039996 50.7964444,53.039996 51.319345,53.5664906 L60.658743,62.9700805 L67.393,56.188 L66.5194875,55.3082105 C66.096682,54.8824991 66.2540457,54.1731331 66.7857033,53.9531981 L66.8897251,53.9178846 L71.864063,52.5761448 C72.4437089,52.4197046 72.9767899,52.9154888 72.8956438,53.4916422 Z M81.5563717,101.475816 C80.8170409,101.475816 80.2176949,100.87235 80.2176949,100.127938 L80.2176949,53.5303189 C80.2176949,52.7859065 80.8170409,52.182441 81.5563717,52.182441 L129.666481,52.182441 C130.405812,52.182441 131.005158,52.7859065 131.005158,53.5303189 L131.005158,100.127938 C131.005158,100.87235 130.405812,101.475816 129.666481,101.475816 L81.5563717,101.475816 Z M128.327805,98.7800599 L128.327805,54.8781968 L82.8950485,54.8781968 L82.8950485,98.7800599 L128.327805,98.7800599 Z M89.526526,93.7061915 C88.7871952,93.7061915 88.1878492,93.102726 88.1878492,92.3583136 C88.1878492,91.6139012 88.7871952,91.0104357 89.526526,91.0104357 L121.696499,91.0104357 C122.43583,91.0104357 123.035176,91.6139012 123.035176,92.3583136 C123.035176,93.102726 122.43583,93.7061915 121.696499,93.7061915 L89.526526,93.7061915 Z M89.526526,85.9366192 C88.7871952,85.9366192 88.1878492,85.3331537 88.1878492,84.5887413 C88.1878492,83.8443289 88.7871952,83.2408634 89.526526,83.2408634 L121.696499,83.2408634 C122.43583,83.2408634 123.035176,83.8443289 123.035176,84.5887413 C123.035176,85.3331537 122.43583,85.9366192 121.696499,85.9366192 L89.526526,85.9366192 Z M10.6370328,123.304244 L149.363139,123.304244 C153.302844,123.304244 156.574023,120.422255 157.210557,116.637907 L2.78944334,116.637907 C3.4259799,120.42227 6.69719195,123.304244 10.6370328,123.304244 Z M149.363139,126 L10.6370328,126 C4.76231701,126 0,121.205012 0,115.290029 C0,114.545617 0.599346028,113.942151 1.33867682,113.942151 L158.661323,113.942151 C159.400654,113.942151 160,114.545617 160,115.290029 C160,121.204981 155.237713,126 149.363139,126 Z" class="illustration-primary" fill="#2157AA"></path> 

    </g> 

</svg> 