<svg xmlns="http://www.w3.org/2000/svg" viewBox="0 0 160 160"> 

 

    <g> 

        <g class="illustration-shape" fill="#C8D9EE"> 

            <path class="cls-1" d="M45.17,38.13l-.36,0C44.82,38.54,45.17,38.13,45.17,38.13Z" /> 

            <path class="cls-1" d="M51.27,101.52C58,98.06,58.58,92,59.19,88.31s-.61-10-.61-10L56.14,74.9l-3.86-6.5-3.66-9.14-3-1.83-.21,4.47-1.62,3.86-5.49.81-3-1.83-3-1.22L27.7,59.87l-1.22-8.54,2.44-8.73,10.36-4.07,5.53-.38c0-.51.59-2.43,3.41-8.55,5-10.78,19.3-17.68,19.3-17.68L65,11.56A68,68,0,0,0,24.31,117.18c1.92-1.87,4.52-4.41,6.64-6.52C34.81,106.8,44.56,105,51.27,101.52Z" /> 

            <path class="cls-1" d="M90.37,10.69l-5,.62c6.5-.2,17.88,8.13,17.88,8.13l7.92,9.75,3.45,9.75,5.29-.2,7.92,1.62s4.26,3.66,4.67,4.27a15.83,15.83,0,0,1,.81,3.45L132.73,57l-3.25,5.08-4.67,2.44L119.73,66,116.89,71l-4.47,4.67h-8.53L101,79.78l.61,9.34.2,5.69,2.64,4.06s5.69,3.46,8.94,4.88,13.62,5.28,16.26,7.11a46.12,46.12,0,0,1,6,6.08A68,68,0,0,0,90.37,10.69Z" /> 

        </g> 

    </g> 

    <g> 

        <g class="illustration-secondary" fill="#B3CBE8"> 

            <path class="cls-2" d="M58.22,77.35,58,77.2l1.11,11.17c15.63,11.16,32.93,2.51,37.12-1.68s2.79-5.86,2.79-5.86S111.62,70,96,83.06a20,20,0,0,1-16,4.41c-25.06-21-19.41-41.31-10.19-56.31C62.5,11.34,85,11.62,83.43,11.62H68.36c-.83-.28-7,3.63-10.32,6.14S50.78,25,48.27,28.65,45.2,41.48,45.2,41.48V53.76L48,57.67A53.64,53.64,0,0,0,58.22,77.35Z" /> 

            <path class="cls-2" d="M29.83,110.22c-2,1-9.84,12.11-10.85,14.63s-3,13.37-3,13.37-.75,18.42.51,20.18,10.85,0,10.85,0,.75-4,1.51-24.72,19.17-31,19.17-31l-7.82,2.27S31.85,109.21,29.83,110.22Z" /> 

            <path class="cls-2" d="M117.79,143.15a1.5,1.5,0,0,0-1.5,1.5V158a1.5,1.5,0,0,0,3,0V144.65A1.5,1.5,0,0,0,117.79,143.15Z" /> 

            <polygon class="cls-2" points="36.42 39.34 31.91 40.63 31.91 63.15 36.2 64.65 36.42 39.34" /> 

            <polygon class="cls-2" points="124.78 40.06 124.36 64.3 127.79 62.8 127.79 40.49 124.78 40.06" /> 

            <path class="cls-2" d="M106.13,100.28a1.5,1.5,0,0,0-2.11.24c-6.44,8.1-13.78,12.41-21.81,12.81-14.53.73-26.75-11.62-26.87-11.74a1.5,1.5,0,0,0-2.16,2.09c.52.53,12.51,12.68,27.76,12.68l1.4,0c8.94-.44,17-5.13,24-13.94A1.5,1.5,0,0,0,106.13,100.28Z" /> 

        </g> 

    </g> 

    <g> 

        <g class="illustration-primary" fill="#2157AA"> 

            <path class="cls-3" d="M30.72,112.48A35.6,35.6,0,0,1,40,107c.85-.35,2-.75,3.34-1.2,6.46-2.2,16.21-5.52,16.3-12.6l.86-6.43a1.5,1.5,0,0,0-3-.39l-.87,6.52a1.36,1.36,0,0,0,0,.2c0,5-8.93,8-14.27,9.86-1.38.47-2.57.88-3.52,1.27A38.71,38.71,0,0,0,14.55,140v18a1.5,1.5,0,0,0,3,0V140A35.45,35.45,0,0,1,30.72,112.48Z" /> 

            <path class="cls-3" d="M43,143.15a1.5,1.5,0,0,0-1.5,1.5V158a1.5,1.5,0,0,0,3,0V144.65A1.5,1.5,0,0,0,43,143.15Z" /> 

            <path class="cls-3" d="M119.77,143.15a1.5,1.5,0,0,0-1.5,1.5V158a1.5,1.5,0,0,0,3,0V144.65A1.5,1.5,0,0,0,119.77,143.15Z" /> 

            <path class="cls-3" d="M131.2,110.18a38.19,38.19,0,0,0-10-5.92c-1-.39-2.14-.8-3.52-1.27-5.34-1.82-14.27-4.86-14.27-9.89l-.09-5a1.47,1.47,0,0,0-1.53-1.47,1.49,1.49,0,0,0-1.47,1.53l.09,5c0,7.14,9.81,10.49,16.3,12.7,1.33.45,2.49.85,3.34,1.2a35.68,35.68,0,0,1,22.44,33v8.58l-.28,0c-.12,0-11.29,3.44-17.58,2.7a1.5,1.5,0,1,0-.35,3,21,21,0,0,0,2.3.12c6,0,13.7-2.11,15.91-2.75V158a1.5,1.5,0,0,0,3,0V140A38.39,38.39,0,0,0,131.2,110.18Z" /> 

            <path class="cls-3" d="M106.13,102.4a1.52,1.52,0,0,0-2.11.24c-6.44,8.1-13.78,12.41-21.81,12.82-14.53.73-26.75-11.62-26.87-11.75a1.5,1.5,0,0,0-2.16,2.09c.52.54,12.51,12.69,27.76,12.69l1.4,0c8.94-.45,17-5.14,24-13.95A1.5,1.5,0,0,0,106.13,102.4Z" /> 

            <path class="cls-3" d="M38.69,151.36c-6.28.74-17.46-2.66-17.58-2.7a1.5,1.5,0,0,0-.88,2.87c.43.13,9.62,2.93,16.51,2.93a21,21,0,0,0,2.3-.12,1.5,1.5,0,0,0-.35-3Z" /> 

            <path class="cls-3" d="M34.61,65.67C35,66.53,36.2,67,37.93,67h4.83a3.5,3.5,0,0,0,3.5-3.5V59.65a12.21,12.21,0,0,0,1.13,2.2,1.45,1.45,0,0,0,.78.58c3.31,15.26,21.12,27.34,32.72,27.34,7.59,0,17.6-5.2,24.41-13.2,2.75.18,5.13.3,6.43.3l.68,0c3.64-.24,7.34-7.57,8.39-9.8h1.27c1.73,0,2.9-.51,3.32-1.37,5.34-.84,9.37-5,9.37-9.87V48.11c0-4.9-4-9-9.37-9.87-.42-.87-1.59-1.37-3.32-1.37h-.91c-4-21.17-21-36.37-41-36.37s-37,15.19-41,36.37H37.93c-1.73,0-2.9.5-3.32,1.37-5.34.84-9.37,5-9.37,9.87V55.8C25.24,60.69,29.27,64.83,34.61,65.67ZM47.54,36.29a32.8,32.8,0,0,1,8.94-15.13,29,29,0,0,1,10.1-7c6.33-2.43,15-2.49,23.69-.17a34,34,0,0,1,12.55,6.49,27,27,0,0,1,7.65,10A25.54,25.54,0,0,1,113.16,41a89.52,89.52,0,0,1-.32,9.19,32.28,32.28,0,0,0-.53-3.68,1.49,1.49,0,0,0-.88-1.08,20.78,20.78,0,0,0-12.34-8.06c-.89-.19-1.79-.33-2.65-.46a28.64,28.64,0,0,1-3.11-.57,6.62,6.62,0,0,1-3.9-2.38A1.5,1.5,0,0,0,87,33.79a6.14,6.14,0,0,0-1.38,3.8c-2.29-1-4.55-2-6.74-3.18-3.66-1.9-8.63-4.95-9.42-9.41a1.51,1.51,0,0,0-1.74-1.21,1.49,1.49,0,0,0-1.21,1.74,10.72,10.72,0,0,0,1.66,4.08c-.32,1.78-2.61,3.14-5,4.37-6.46,3.4-10.71,6.89-13.37,11-1.37,2.1-2.77,4.28-1.93,7.11a1.47,1.47,0,0,0-.29.88v.41C46.58,47.53,46.62,40.11,47.54,36.29ZM80.89,86.77c-11.4,0-30.27-13.69-30.27-29.3V53s0,0,0-.08a1.48,1.48,0,0,0,.24-1.45c-.56-1.54.13-2.71,1.5-4.83,2.38-3.67,6.27-6.84,12.25-10,1.86-1,4.41-2.32,5.74-4.44a30.91,30.91,0,0,0,7.16,4.87,100.88,100.88,0,0,0,9.76,4.43,1.5,1.5,0,0,0,1.82-2.2,3,3,0,0,1-.45-1.9,11.31,11.31,0,0,0,3.94,1.82,33.2,33.2,0,0,0,3.43.64c.85.13,1.66.25,2.45.42a17.6,17.6,0,0,1,11,7.53s0,0,.05.07A28.88,28.88,0,0,1,110,53v4.49c0,5.86-2.43,11.37-6,16-4.06-.28-8.78-.65-12.39-1v-.85a2.45,2.45,0,0,0-2.48-2.41H86.48a10.08,10.08,0,0,0-4-.78c-4.08,0-7.16,2-7.16,4.74S78.4,78,82.48,78a9.91,9.91,0,0,0,4-.78h2.57a2.45,2.45,0,0,0,2.34-1.66c2.67.22,6.43.52,10.06.78C95.33,82.66,87.09,86.77,80.89,86.77Zm31.32-12.91c-.68,0-2.42,0-4.71-.16a29.55,29.55,0,0,0,5.27-13.13,1.48,1.48,0,0,0,.56-.44,6.24,6.24,0,0,0,.41-.63v4a3.5,3.5,0,0,0,3.5,3.5h.22C115.58,70.68,113.22,73.79,112.21,73.86Zm19.55-25.75V55.8c0,3.22-2.62,6-6.19,6.79V41.32C129.14,42.13,131.76,44.89,131.76,48.11Zm-9.19-8.21V64a3.84,3.84,0,0,1-.5,0h-4.83a.51.51,0,0,1-.5-.5V40.37a.51.51,0,0,1,.5-.5h4.83A3.84,3.84,0,0,1,122.57,39.9ZM80.16,3.5c18.39,0,34.05,13.91,37.94,33.37h-.86a3.35,3.35,0,0,0-1.45.33,31.86,31.86,0,0,0-2.6-7.94,30,30,0,0,0-8.52-11.1,36.73,36.73,0,0,0-13.63-7c-9.32-2.48-18.63-2.39-25.54.27a31.83,31.83,0,0,0-11.15,7.65A35.76,35.76,0,0,0,44.62,35.6c-.12.5-.22,1.06-.31,1.64a3.51,3.51,0,0,0-1.55-.37h-.55C46.11,17.41,61.76,3.5,80.16,3.5ZM42.76,39.87a.51.51,0,0,1,.5.5V63.54a.51.51,0,0,1-.5.5H37.93a3.84,3.84,0,0,1-.5,0V39.9a3.84,3.84,0,0,1,.5,0ZM28.24,48.11c0-3.22,2.62-6,6.19-6.79V62.59c-3.57-.81-6.19-3.57-6.19-6.79Z" /> 

        </g> 

    </g> 

</svg> 