<?xml version="1.0" encoding="UTF-8"?><svg id="a" xmlns="http://www.w3.org/2000/svg" width="201" height="201" viewBox="0 0 201 201"><g id="b"><path d="M162.41,18.74c4.77,4.95,3.18,130.41,2.82,147.71s-17.65,23.65-17.65,23.65c0,0-91.41,1.59-98.64-.88-7.23-2.47-12.33-9.12-10.75-5.83,3.91,8.25,12.19,13.54,21.32,13.61h88.81c13.12,0,23.8-11.01,23.8-24.54V34.83c.07-9.99-5.92-19.03-15.16-22.86,4.38,3.42,5.44,6.77,5.44,6.77Z" style="fill:#b3cbe8;"/><polygon points="67.41 29.51 101.52 150.93 45.06 150.93 45.06 29.51 67.41 29.51" style="fill:#b3cbe8;"/></g><g id="c"><path d="M54.56,110.16h88.09c.81,0,1.46-.66,1.46-1.47,0-.81-.66-1.46-1.46-1.46H54.56c-.81,0-1.47,.65-1.47,1.46,0,.81,.65,1.47,1.46,1.47h0Z" style="fill:#2157aa;"/><path d="M54.56,123.27h77.17c.81,.07,1.53-.53,1.59-1.35,.07-.81-.53-1.53-1.35-1.59-.08,0-.17,0-.25,0H54.56c-.81-.07-1.53,.53-1.59,1.35-.07,.81,.53,1.53,1.34,1.59,.08,0,.17,0,.25,0Z" style="fill:#2157aa;"/><path d="M54.56,97.06h77.17c.81,.07,1.53-.53,1.6-1.34,.07-.81-.53-1.53-1.34-1.6-.08,0-.17,0-.25,0H54.56c-.81-.07-1.53,.53-1.6,1.34-.07,.81,.53,1.53,1.34,1.6,.08,0,.17,0,.25,0Z" style="fill:#2157aa;"/><path d="M54.56,136.36h84.3c.81,0,1.46-.66,1.46-1.47,0-.81-.66-1.46-1.46-1.46H54.56c-.81,0-1.47,.65-1.47,1.46,0,.81,.65,1.47,1.46,1.47h0Z" style="fill:#2157aa;"/><path d="M82.86,82.67c.81,0,1.46-.66,1.46-1.46h0c0-8.57,6.95-15.5,15.5-15.5,8.55,0,15.48,6.94,15.49,15.49-.07,.81,.53,1.53,1.35,1.59,.81,.07,1.53-.53,1.59-1.34,0-.08,0-.17,0-.25,0-10.18-8.25-18.44-18.44-18.44s-18.44,8.25-18.44,18.44c0,.81,.66,1.48,1.48,1.48Z" style="fill:#2157aa;"/><path d="M99.56,59.02c5.04,0,9.12-4.08,9.12-9.12s-4.08-9.12-9.12-9.12-9.12,4.08-9.12,9.12h0c0,5.04,4.09,9.12,9.12,9.12Zm0-15.29c3.42,0,6.19,2.76,6.2,6.18,0,3.42-2.76,6.19-6.18,6.2-3.42,0-6.19-2.76-6.2-6.18h0c.01-3.42,2.77-6.17,6.18-6.18v-.02Z" style="fill:#2157aa;"/><path d="M65.25,74.18c.81,0,1.46-.66,1.46-1.46h0c0-6.01,4.88-10.87,10.89-10.87,2.05,0,4.06,.58,5.8,1.68,.68,.43,1.59,.23,2.02-.45s.23-1.59-.45-2.02c-6.42-4.1-14.95-2.22-19.06,4.2-1.43,2.23-2.18,4.83-2.17,7.48,0,.81,.67,1.46,1.47,1.45h.03Z" style="fill:#2157aa;"/><path d="M77.41,56.02c3.89,0,7.04-3.14,7.05-7.03,0-3.89-3.14-7.04-7.03-7.05-3.89,0-7.04,3.14-7.05,7.03,0,0,0,.01,0,.02,0,3.88,3.15,7.02,7.03,7.03Zm0-11.12c2.26,0,4.1,1.82,4.11,4.09s-1.82,4.1-4.09,4.11c-2.26,0-4.1-1.82-4.11-4.09h0c0-2.27,1.83-4.1,4.09-4.11Z" style="fill:#2157aa;"/><path d="M115.69,63.52c5.08-3.21,11.8-1.69,15.01,3.39,1.09,1.74,1.68,3.74,1.68,5.8,.07,.81,.78,1.41,1.6,1.34,.72-.06,1.28-.63,1.34-1.34,.03-7.62-6.13-13.82-13.75-13.85-2.65,0-5.25,.74-7.48,2.17-.68,.43-.88,1.34-.45,2.02s1.34,.88,2.02,.45h.03Z" style="fill:#2157aa;"/><path d="M121.71,56.02c3.89,0,7.04-3.15,7.04-7.04,0-3.89-3.15-7.04-7.04-7.04-3.89,0-7.04,3.15-7.04,7.04h0c0,3.89,3.15,7.04,7.04,7.04Zm0-11.12c2.26,0,4.1,1.83,4.1,4.1s-1.83,4.1-4.1,4.1-4.1-1.83-4.1-4.1,1.83-4.1,4.1-4.1h0Z" style="fill:#2157aa;"/><path d="M152.29,153.48H44.95c-.88,0-1.59-.71-1.59-1.59V29.53c0-.88,.71-1.59,1.59-1.59h107.34c.88,0,1.59,.71,1.59,1.59v122.35c0,.88-.7,1.6-1.58,1.6h-.01Zm-105.72-3.18h104.13V31.12H46.54l.02,119.18Z" style="fill:#2157aa;"/><path d="M143.02,191.69H54.21c-13.13,0-23.81-11.01-23.81-24.54V29.53c0-13.53,10.68-24.53,23.81-24.53h88.81c13.12,0,23.8,11,23.8,24.53V167.18c0,13.53-10.68,24.52-23.8,24.52ZM54.21,8.18c-11.37,0-20.62,9.55-20.62,21.34V167.18c0,11.77,9.26,21.35,20.62,21.35h88.81c11.37,0,20.61-9.55,20.61-21.35V29.53c0-11.77-9.24-21.34-20.61-21.34H54.21Zm55.51,168.24h-22.17c-2.99-.13-5.31-2.67-5.18-5.66,.12-2.81,2.37-5.05,5.18-5.18h22.2c2.99,.13,5.31,2.67,5.18,5.66-.12,2.81-2.37,5.05-5.18,5.18h-.03Zm-22.17-7.65c-1.23,.09-2.17,1.15-2.08,2.39,.08,1.12,.96,2,2.08,2.08h22.2c1.23-.09,2.17-1.15,2.08-2.39-.08-1.12-.96-2-2.08-2.08h-22.2Zm64.74-15.28H44.95c-.88,0-1.59-.71-1.59-1.59V29.53c0-.88,.71-1.59,1.59-1.59h107.34c.88,0,1.59,.71,1.59,1.59v122.35c0,.88-.7,1.6-1.58,1.6h-.01Zm-105.72-3.18h104.13V31.12H46.54l.02,119.18Z" style="fill:#2157aa;"/></g></svg>