<?xml version="1.0" encoding="UTF-8"?><svg id="a" xmlns="http://www.w3.org/2000/svg" width="190" height="190" viewBox="0 0 190 190"><g id="b"><path d="M44.17,166.73h-1.42l-7.13,7.9c-.65,.72-.6,1.83,.12,2.48,.32,.29,.72,.45,1.15,.45h115.38c.97-.02,1.75-.82,1.73-1.79,0-.43-.17-.83-.45-1.15l-6.41-7.37h-1.38" style="fill:#b3cbe8;"/><path d="M77.59,108.09v17.04h10.04c0-3.87,3.14-7.01,7.01-7.01s7.01,3.14,7.01,7.01h10.06v-17.04h-34.12Z" style="fill:#b3cbe8;"/><path d="M166.83,169.27c-4.96,0-9.16-2.86-10.53-5.57-.31,.49-.47,1.05-.48,1.62,0,3.05,4.94,7.37,11.03,7.37s11.03-4.31,11.03-7.37c-.01-.57-.18-1.14-.48-1.62-1.42,2.74-5.63,5.57-10.55,5.57Z" style="fill:#b3cbe8;"/><path d="M39.19,14.69l18.13,93.41H16.09s-5.88-.33-5.88-5.89V20.56s-.08-5.88,5.88-5.88h23.1Z" style="fill:#b3cbe8;"/><rect x="10.39" y="14.9" width="168.51" height="10.17" style="fill:#b3cbe8;"/><rect x="10.39" y="97.74" width="168.51" height="10.17" style="fill:#b3cbe8;"/></g><g id="c"><path d="M133.77,150.17c-.87,0-1.58-.71-1.58-1.58v-4.82H56.51v4.82c0,.87-.71,1.58-1.58,1.58s-1.58-.71-1.58-1.58v-6.37c0-.87,.71-1.58,1.58-1.58h78.84c.87,0,1.58,.71,1.58,1.58v6.4c-.02,.86-.72,1.55-1.58,1.55Z" style="fill:#2157aa;"/><path d="M77.26,137.44c-.87,0-1.58-.71-1.58-1.58v-21.45c0-.87,.71-1.58,1.58-1.58s1.58,.71,1.58,1.58v21.48c-.02,.86-.72,1.55-1.58,1.55Z" style="fill:#2157aa;"/><path d="M111.37,137.44c-.87,0-1.58-.71-1.58-1.58v-21.45c0-.87,.71-1.58,1.58-1.58s1.58,.71,1.58,1.58v21.48c-.02,.86-.72,1.55-1.58,1.55Z" style="fill:#2157aa;"/><path d="M94.31,133.62c-4.69,0-8.49-3.79-8.5-8.48,0-4.69,3.79-8.49,8.48-8.5,4.69,0,8.49,3.79,8.5,8.48h0c0,4.69-3.8,8.49-8.48,8.5Zm0-13.81c-2.94,0-5.33,2.38-5.34,5.32s2.38,5.33,5.32,5.34,5.33-2.38,5.34-5.32c0,0,0-.01,0-.02,0-2.93-2.38-5.31-5.32-5.32Z" style="fill:#2157aa;"/><path d="M166.48,170.13c-6.54,0-11.81-4.6-11.81-8.43s5.08-6.72,11.81-6.72,11.82,2.89,11.82,6.72-5.26,8.43-11.82,8.43Zm0-11.97c-5.27,0-8.65,2.11-8.65,3.56,0,1.75,3.74,5.27,8.65,5.27s8.66-3.51,8.66-5.27c.02-1.45-3.39-3.56-8.66-3.56Z" style="fill:#2157aa;"/><path d="M149.13,167.49H39.5c-.88-.01-1.58-.73-1.57-1.61,0-.38,.14-.74,.39-1.02l15.34-17.31c.3-.34,.73-.54,1.18-.54h78.99c.45,0,.88,.2,1.18,.54l15.34,17.31c.58,.66,.51,1.67-.16,2.24-.28,.25-.65,.38-1.02,.39h-.04Zm-106.12-3.16h102.6l-12.54-14.17H55.56l-12.54,14.17Z" style="fill:#2157aa;"/><path d="M101.78,161.71h-15.34c-.87,0-1.58-.71-1.58-1.58s.71-1.58,1.58-1.58h15.4c.87,0,1.58,.71,1.58,1.58s-.71,1.58-1.58,1.58h-.05Z" style="fill:#2157aa;"/><path d="M62.21,155.97h-4.21c-.87,0-1.58-.71-1.58-1.58s.71-1.58,1.58-1.58h4.21c.87,0,1.58,.71,1.58,1.58s-.71,1.58-1.58,1.58Z" style="fill:#2157aa;"/><path d="M72.02,155.97h-4.27c-.87,0-1.58-.71-1.58-1.58s.71-1.58,1.58-1.58h4.27c.87,0,1.58,.71,1.58,1.58s-.71,1.58-1.58,1.58Z" style="fill:#2157aa;"/><path d="M81.78,155.97h-4.21c-.87,0-1.58-.71-1.58-1.58s.71-1.58,1.58-1.58h4.21c.87,0,1.58,.71,1.58,1.58s-.71,1.58-1.58,1.58Z" style="fill:#2157aa;"/><path d="M91.55,155.97h-4.21c-.87,0-1.58-.71-1.58-1.58s.71-1.58,1.58-1.58h4.21c.87,0,1.58,.71,1.58,1.58s-.71,1.58-1.58,1.58h0Z" style="fill:#2157aa;"/><path d="M101.33,155.97h-4.21c-.87,0-1.58-.71-1.58-1.58s.71-1.58,1.58-1.58h4.21c.87,0,1.58,.71,1.58,1.58s-.71,1.58-1.58,1.58Z" style="fill:#2157aa;"/><path d="M111.1,155.97h-4.21c-.87,0-1.58-.71-1.58-1.58s.71-1.58,1.58-1.58h4.21c.87,0,1.58,.71,1.58,1.58s-.71,1.58-1.58,1.58Z" style="fill:#2157aa;"/><path d="M120.86,155.97h-4.21c-.87,0-1.58-.71-1.58-1.58s.71-1.58,1.58-1.58h4.21c.87,0,1.58,.71,1.58,1.58s-.71,1.58-1.58,1.58Z" style="fill:#2157aa;"/><path d="M130.67,155.97h-4.21c-.87,0-1.58-.71-1.58-1.58s.71-1.58,1.58-1.58h4.21c.87,0,1.58,.71,1.58,1.58s-.71,1.58-1.58,1.58Z" style="fill:#2157aa;"/><path d="M58.07,161.71h-4.81c-.87,0-1.58-.71-1.58-1.58s.71-1.58,1.58-1.58h4.81c.87,0,1.58,.71,1.58,1.58s-.71,1.58-1.58,1.58Z" style="fill:#2157aa;"/><path d="M69.11,161.71h-4.79c-.87,0-1.58-.71-1.58-1.58s.71-1.58,1.58-1.58h4.81c.87,0,1.58,.71,1.58,1.58s-.71,1.58-1.58,1.58h-.02Z" style="fill:#2157aa;"/><path d="M80.12,161.71h-4.81c-.87,0-1.58-.71-1.58-1.58s.71-1.58,1.58-1.58h4.81c.87,0,1.58,.71,1.58,1.58s-.71,1.58-1.58,1.58Z" style="fill:#2157aa;"/><path d="M113.28,161.71h-4.81c-.87,0-1.58-.71-1.58-1.58s.71-1.58,1.58-1.58h4.81c.87,0,1.58,.71,1.58,1.58s-.71,1.58-1.58,1.58Z" style="fill:#2157aa;"/><path d="M124.35,161.71h-4.81c-.87,0-1.58-.71-1.58-1.58s.71-1.58,1.58-1.58h4.81c.87,0,1.58,.71,1.58,1.58s-.71,1.58-1.58,1.58Z" style="fill:#2157aa;"/><path d="M135.37,161.71h-4.81c-.87,0-1.58-.71-1.58-1.58s.71-1.58,1.58-1.58h4.81c.87,0,1.58,.71,1.58,1.58s-.71,1.58-1.58,1.58Z" style="fill:#2157aa;"/><polygon points="150.83 173.36 150.04 171.54 38.72 171.54 37.94 173.36 150.83 173.36" style="fill:#2157aa;"/><path d="M149.13,173.6H39.5c-.87,0-1.58-.71-1.58-1.58s.71-1.58,1.58-1.58h109.64c.87,0,1.58,.71,1.58,1.58s-.71,1.58-1.58,1.58Z" style="fill:#2157aa;"/><path d="M175.22,109.67H13.41c-2.72,0-4.93-2.22-4.93-4.94V17.94c0-2.72,2.21-4.93,4.93-4.94H175.22c2.73,0,4.94,2.2,4.95,4.93h0V104.77c-.02,2.72-2.23,4.9-4.95,4.9ZM13.41,16.12c-.98,.02-1.77,.83-1.75,1.81h0V104.77c0,.98,.79,1.77,1.77,1.78H175.22c.98,0,1.77-.8,1.77-1.78V17.94c0-.98-.79-1.77-1.77-1.78l-161.81-.04Z" style="fill:#2157aa;"/><path d="M172.25,99.14H16.38c-.87,0-1.58-.71-1.58-1.58s.71-1.58,1.58-1.58H172.25c.87,0,1.58,.71,1.58,1.58s-.71,1.58-1.58,1.58Z" style="fill:#2157aa;"/><path d="M172.25,26.65H16.38c-.87,0-1.58-.71-1.58-1.58s.71-1.58,1.58-1.58H172.25c.87,0,1.58,.71,1.58,1.58s-.71,1.58-1.58,1.58Z" style="fill:#2157aa;"/><path d="M103.62,62.99c1.47,0,2.83-.81,3.53-2.11l8.16-14.74c.48-.84,.18-1.91-.66-2.38-.26-.15-.54-.22-.84-.23h-34.1l-2.11-4.56h-6.59v3.51h4.36l8.43,17.9-3.16,5.79c-.69,1.26-.66,2.79,.07,4.02,.72,1.22,2.03,1.97,3.45,1.97h26.84v-3.51h-27.73l3.09-5.61,17.26-.05Zm-18.62-8.32h5.08v4.81h-2.79l-2.29-4.81Zm13.3,0v4.81h-5.07v-4.81h5.07Zm-5.07-3.16v-4.48h5.07v4.48h-5.07Zm10.69,7.97h-2.46v-4.81h5.13l-2.66,4.81Zm4.4-7.97h-6.87v-4.48h9.34l-2.47,4.48Zm-18.25-4.48v4.48h-6.57l-2.11-4.48h8.68Z" style="fill:#2157aa;"/><path d="M84.13,75.44c-2.23,0-4.03,1.81-4.03,4.03s1.81,4.03,4.03,4.03,4.03-1.81,4.03-4.03c0-2.22-1.79-4.03-4.01-4.03,0,0-.01,0-.02,0Z" style="fill:#2157aa;"/><path d="M106.93,75.44c-2.23,0-4.03,1.81-4.03,4.03s1.81,4.03,4.03,4.03,4.03-1.81,4.03-4.03-1.81-4.03-4.03-4.03h0Z" style="fill:#2157aa;"/></g></svg>