<?xml version="1.0" encoding="UTF-8"?><svg id="a" xmlns="http://www.w3.org/2000/svg" width="250" height="250" viewBox="0 0 250 250"><g id="b"><path d="M169.21,68.82c3.51,3.64,2.34,96.1,2.08,108.84s-13,17.42-13,17.42c0,0-67.36,1.17-72.69-.65s-9.08-6.71-7.91-4.29c2.88,6.07,8.98,9.95,15.7,10h65.44c9.67,0,17.54-8.11,17.54-18.08V80.68c.05-7.36-4.37-14.02-11.17-16.84,1.78,1.25,3.17,2.98,4.01,4.98Z" style="fill:#b3cbe8;"/><polygon points="90.76 77.1 116.47 166.56 83.26 166.56 83.26 77.1 90.76 77.1" style="fill:#b3cbe8;"/></g><g id="c"><path d="M79.84,124.33h-2.09c-.83,0-1.5-.67-1.5-1.5s.67-1.5,1.5-1.5h2.09c.83,0,1.5,.67,1.5,1.5s-.67,1.5-1.5,1.5Zm-8.09,0h-4c-.83,0-1.5-.67-1.5-1.5s.67-1.5,1.5-1.5h4c.83,0,1.5,.67,1.5,1.5s-.67,1.5-1.5,1.5Zm-10,0h-4c-.83,0-1.5-.67-1.5-1.5s.67-1.5,1.5-1.5h4c.83,0,1.5,.67,1.5,1.5s-.67,1.5-1.5,1.5Zm-10,0h-4c-.83,0-1.5-.67-1.5-1.5s.67-1.5,1.5-1.5h4c.83,0,1.5,.67,1.5,1.5s-.67,1.5-1.5,1.5Z" style="fill:#2157aa;"/><path d="M60.46,175.91c-.83,0-1.5-.67-1.5-1.5,0-.48,.23-.93,.61-1.21l3.21-2.38c.71-.44,1.64-.22,2.08,.49,.39,.63,.27,1.45-.29,1.93l-3.22,2.38c-.26,.19-.57,.29-.89,.29Zm8-5.95c-.83,0-1.5-.67-1.5-1.5,0-.48,.23-.93,.61-1.21l3.21-2.37c.66-.5,1.59-.36,2.09,.29v.02c.5,.67,.36,1.6-.3,2.1l-3.22,2.38c-.24,.2-.54,.31-.85,.33l-.04-.04Zm8-6c-.83,0-1.5-.67-1.5-1.5,0-.47,.22-.92,.6-1.2l3.22-2.38c.64-.53,1.59-.43,2.11,.21s.43,1.59-.21,2.11c-.04,.03-.08,.06-.12,.09l-3.21,2.38c-.23,.19-.51,.3-.81,.33l-.08-.04Z" style="fill:#2157aa;"/><path d="M189.43,176c-.32,0-.63-.1-.89-.29l-3.23-2.35c-.67-.49-.82-1.43-.33-2.1,.49-.67,1.43-.82,2.1-.33l3.23,2.35c.67,.48,.83,1.42,.35,2.09-.28,.4-.74,.63-1.23,.63h0Zm-8.09-5.89c-.32,0-.62-.1-.88-.28l-3.23-2.36c-.68-.5-.83-1.46-.33-2.14,.5-.68,1.46-.83,2.14-.33l3.23,2.35c.67,.49,.81,1.43,.32,2.1-.28,.38-.73,.61-1.2,.61l-.05,.05Zm-8.08-5.88c-.32,0-.63-.1-.89-.29l-3.23-2.35c-.67-.49-.82-1.43-.33-2.1,.49-.67,1.43-.82,2.1-.33l3.23,2.36c.67,.49,.81,1.43,.32,2.1-.28,.38-.73,.61-1.2,.61h0Z" style="fill:#2157aa;"/><path d="M170.14,94.2c-.48,0-.93-.22-1.21-.61-.49-.67-.35-1.6,.31-2.1l3.22-2.38c.64-.53,1.59-.43,2.11,.21,.53,.64,.43,1.59-.21,2.11-.04,.03-.08,.06-.12,.09l-3.2,2.38c-.26,.2-.58,.3-.9,.3Zm8-6c-.47,0-.92-.23-1.2-.61-.49-.67-.35-1.6,.31-2.1l3.22-2.38c.64-.53,1.59-.43,2.11,.21,.53,.64,.43,1.59-.21,2.11-.04,.03-.08,.06-.12,.09l-3.21,2.48c-.26,.17-.56,.26-.87,.25l-.03-.05Zm8-6c-.48,0-.92-.22-1.2-.61-.5-.66-.36-1.59,.29-2.09h.02l3.22-2.39c.67-.49,1.61-.35,2.1,.32,.49,.67,.35,1.61-.32,2.1l-3.14,2.47c-.26,.19-.58,.29-.9,.3l-.07-.1Z" style="fill:#2157aa;"/><path d="M79.86,94c-.32,0-.62-.1-.88-.28l-3.23-2.36c-.63-.53-.71-1.48-.18-2.11,.48-.57,1.31-.7,1.94-.31l3.24,2.35c.67,.49,.81,1.43,.32,2.1-.28,.39-.73,.61-1.21,.61Zm-8.08-5.88c-.32,0-.63-.1-.88-.29l-3.24-2.35c-.68-.49-.84-1.44-.35-2.13,.49-.68,1.44-.84,2.12-.35l3.23,2.36c.67,.48,.82,1.41,.34,2.08h0c-.28,.4-.73,.64-1.21,.64v.04Zm-8.09-5.88c-.32,0-.62-.11-.88-.29l-3.23-2.35c-.67-.49-.82-1.42-.34-2.09,.49-.67,1.42-.82,2.1-.34l3.24,2.35c.67,.48,.83,1.42,.35,2.09-.29,.4-.75,.63-1.24,.63Z" style="fill:#2157aa;"/><path d="M200.49,124.33h-2.86c-.83,0-1.5-.67-1.5-1.5s.67-1.5,1.5-1.5h2.86c.83,0,1.5,.67,1.5,1.5s-.67,1.5-1.5,1.5Zm-8.86,0h-4c-.83,0-1.5-.67-1.5-1.5s.67-1.5,1.5-1.5h4c.83,0,1.5,.67,1.5,1.5s-.67,1.5-1.5,1.5Zm-10,0h-4c-.83,0-1.5-.67-1.5-1.5s.67-1.5,1.5-1.5h4c.83,0,1.5,.67,1.5,1.5s-.67,1.5-1.5,1.5Zm-10,0h-4c-.83,0-1.5-.67-1.5-1.5s.67-1.5,1.5-1.5h4c.83,0,1.5,.67,1.5,1.5s-.67,1.5-1.5,1.5Z" style="fill:#2157aa;"/><path d="M127.41,138.16c-3.17,0-6-.16-6.17-.16h-.24c-1.85-.49-3.43-1.71-4.38-3.38-1.12-2.07-6-10.56-6.68-11.65-.81-1.51-.42-3.38,.94-4.43,1.56-1.43,3.97-1.38,5.46,.12l.17,.18v-10.25c.05-2.23,1.87-4.01,4.1-4,1.03-.04,2.03,.36,2.76,1.09,.74,.82,1.13,1.9,1.11,3v6.87c.67-.11,1.36-.04,2,.2,.79,.27,1.46,.81,1.9,1.52,.8-.48,1.78-.58,2.66-.27,.83,.24,1.55,.78,2,1.52,1.06-.55,2.32-.55,3.38,0,1.33,.56,2.05,2.08,2.06,4.46,.06,2.82-.03,5.63-.29,8.44-.08,2.15-1.39,6.16-5.88,6.53-1.51,.17-3.27,.21-4.9,.21Zm-5.84-3.16c3.49,.19,6.98,.19,10.47,0,2.92-.24,3.11-3.34,3.12-3.69,0-.05,0-.1,0-.15,.25-2.7,.35-5.41,.28-8.12,0-1.45-.33-1.77-.34-1.77-.78-.39-1.55,.58-1.58,.62-.52,.65-1.47,.77-2.12,.25-.3-.24-.5-.59-.56-.97-.06-.44-.34-1.16-.62-1.22h-.14q-.33-.11-1.23,.57l-.3,.22c-.66,.5-1.6,.36-2.1-.3-.12-.17-.21-.36-.26-.56-.17-.71-.43-1.21-.69-1.29h-.11c-.49-.13-1.02,.03-1.35,.41-.54,.62-1.49,.69-2.12,.14-.33-.29-.52-.71-.51-1.14v-9.39c0-1-.61-1-.87-1-.58-.02-1.08,.43-1.1,1.02,0,.02,0,.05,0,.07v14.87c.04,.73-.44,1.38-1.14,1.57-1.23,.33-1.75-.57-2.62-2.06-.42-.78-.91-1.53-1.46-2.23-.36-.4-.97-.44-1.38-.1-.22,.16-.36,.4-.41,.66,.68,1.07,5.63,9.69,6.76,11.78,.54,.88,1.39,1.52,2.38,1.81Z" style="fill:#2157aa;"/><path d="M163.04,168.59H84.92c-.64,0-1.16-.52-1.16-1.16h0V78.33c0-.64,.52-1.16,1.16-1.16h78.12c.64,0,1.16,.52,1.16,1.16h0v89.1c0,.64-.52,1.16-1.16,1.16h0Zm-77-2.32h75.83V79.49H86.04v86.78Z" style="fill:#2157aa;"/><path d="M156.33,196.43H91.66c-9.56,0-17.33-8-17.33-17.87V78.33c0-9.85,7.77-17.86,17.33-17.86h64.67c9.56,0,17.33,8,17.33,17.86v100.23c0,9.85-7.77,17.87-17.33,17.87ZM91.66,62.79c-8.43,.16-15.13,7.11-15,15.54v100.23c0,8.58,6.73,15.55,15,15.55h64.67c8.28,0,15-7,15-15.55V78.33c.13-8.43-6.57-15.38-15-15.54H91.66Zm40.38,122.5h-16.13c-2.18-.11-3.86-1.96-3.75-4.14,.1-2.03,1.72-3.64,3.75-3.75h16.13c2.18,.11,3.86,1.96,3.75,4.14-.1,2.03-1.72,3.64-3.75,3.75Zm-16.17-5.57c-.9,.07-1.57,.86-1.5,1.75,.06,.8,.7,1.43,1.5,1.5h16.17c.9-.07,1.57-.86,1.5-1.75-.06-.8-.7-1.43-1.5-1.5h-16.17Zm47.17-11.13H84.92c-.64,0-1.16-.52-1.16-1.16h0V78.33c0-.64,.52-1.16,1.16-1.16h78.12c.64,0,1.16,.52,1.16,1.16h0v89.1c0,.64-.52,1.16-1.16,1.16h0Zm-77-2.32h75.83V79.49H86.04v86.78Z" style="fill:#2157aa;"/><path d="M156.33,196.8H91.66c-9.76,0-17.71-8.18-17.71-18.24V78.33c0-10.06,8-18.24,17.71-18.24h64.67c9.76,0,17.71,8.18,17.71,18.24v100.23c0,10.06-7.95,18.24-17.71,18.24ZM91.66,60.8c-9.35,0-17,7.85-17,17.49v100.27c0,9.65,7.61,17.49,17,17.49h64.67c9.35,0,17-7.84,17-17.49V78.33c0-9.64-7.61-17.49-17-17.49l-64.67-.04Zm64.67,133.64H91.66c-8.64-.16-15.52-7.28-15.39-15.92V78.33c-.13-8.64,6.75-15.76,15.39-15.92h64.67c8.64,.16,15.52,7.28,15.39,15.92v100.23c.13,8.64-6.75,15.76-15.39,15.92v-.04ZM91.66,63.16c-8.07,0-14.62,6.84-14.62,15.17v100.23c-.13,8.23,6.41,15.01,14.64,15.17h64.67c8.23-.16,14.77-6.94,14.64-15.17V78.33c0-8.36-6.57-15.17-14.64-15.17H91.66Zm40.38,122.51h-16.13c-2.39,0-4.32-1.94-4.32-4.32,0-2.38,1.93-4.32,4.32-4.32h16.13c2.39,0,4.32,1.94,4.32,4.32,0,2.38-1.93,4.32-4.32,4.32Zm-16.17-7.89c-1.97,0-3.57,1.6-3.57,3.57,0,1.97,1.6,3.57,3.57,3.57h16.17c1.97,0,3.57-1.6,3.57-3.57,0-1.97-1.6-3.57-3.57-3.57h-16.17Zm16.17,5.57h-16.13c-1.1,0-2-.9-2-2s.9-2,2-2h16.13c1.1,0,2,.9,2,2s-.9,2-2,2Zm-16.17-3.25c-.69,0-1.25,.56-1.25,1.25s.56,1.25,1.25,1.25h16.17c.69,0,1.25-.56,1.25-1.25s-.56-1.25-1.25-1.25h-16.17Zm47.17-11.1H84.92c-.84,0-1.52-.69-1.53-1.53V78.33c0-.84,.69-1.52,1.53-1.53h78.12c.85,0,1.53,.69,1.53,1.53v89.1c.02,.84-.64,1.55-1.49,1.57h-.04ZM84.92,77.55c-.43,0-.78,.35-.78,.78v89.1c0,.43,.35,.78,.78,.78h78.12c.43,0,.78-.35,.78-.78V78.33c0-.43-.35-.78-.78-.78H84.92Zm77.37,89.09H85.71V79.12h76.58v87.52Zm-75.83-.75h75.08V79.89H86.46v86Z" style="fill:#2157aa;"/><path d="M45.1,86.94c-1.91,0-3.82-.25-5.67-.75-11.61-3.12-18.5-15.06-15.38-26.67,1.5-5.57,5.14-10.31,10.13-13.2h0c10.42-5.99,23.72-2.41,29.71,8.01,5.99,10.42,2.41,23.72-8.01,29.71-3.28,1.89-7,2.89-10.79,2.9Zm-9.42-38c-8.98,5.18-12.06,16.66-6.88,25.64,5.18,8.98,16.66,12.06,25.64,6.88,8.98-5.18,12.06-16.66,6.88-25.64h0c-5.09-8.96-16.47-12.09-25.42-7.01-.07,.04-.14,.08-.21,.12Z" style="fill:#2157aa;"/><path d="M48.71,67.24c-.85,0-1.65,.4-2.17,1.07l-4.73-2.42c.06-.23,.1-.48,.1-.72,0-.26-.04-.53-.12-.78l4.7-2.41c.92,1.23,2.67,1.47,3.89,.55,1.23-.92,1.47-2.67,.55-3.89-.92-1.23-2.67-1.47-3.89-.55-.7,.53-1.11,1.35-1.11,2.22,0,.24,.04,.48,.1,.72l-4.72,2.42c-.93-1.22-2.68-1.45-3.9-.52-1.22,.93-1.45,2.68-.52,3.9s2.68,1.45,3.9,.52c.19-.15,.37-.32,.52-.52l4.73,2.41c-.08,.25-.13,.52-.13,.79,0,1.54,1.25,2.79,2.79,2.79,1.54,0,2.79-1.25,2.79-2.79,0-1.54-1.25-2.79-2.79-2.79h.01Z" style="fill:#2157aa; fill-rule:evenodd;"/><path d="M48.71,73.56c-1.96,0-3.54-1.59-3.53-3.55h0v-.4l-3.68-1.88c-1.44,1.32-3.68,1.22-5-.23s-1.22-3.68,.23-5c1.35-1.23,3.42-1.23,4.77,0l3.73-1.91c0-.1,0-.21,0-.31,0-1.95,1.58-3.53,3.53-3.53,1.95,0,3.53,1.58,3.53,3.53s-1.58,3.53-3.53,3.53c-.88,0-1.74-.33-2.39-.93l-3.68,1.88v.69l3.73,1.9c.64-.57,1.47-.89,2.33-.89,1.95-.1,3.62,1.39,3.72,3.35,.1,1.95-1.39,3.62-3.35,3.72-.13,0-.25,0-.38,0l-.04,.03Zm-1.82-4.49l-.11,.38c-.06,.19-.1,.38-.1,.58,0,1.1,.9,2,2,2s2-.9,2-2-.9-2-2-2c-.62,0-1.2,.29-1.58,.78l-.21,.26Zm-7.76-5.94c-1.12,0-2.04,.91-2.04,2.03s.91,2.04,2.04,2.04c.64,0,1.24-.3,1.62-.82l.23-.31,.1-.38c.05-.17,.08-.34,.08-.52,0-.19-.03-.38-.09-.56l-.13-.41-.22-.28c-.38-.5-.97-.79-1.59-.79Zm7.73-1.91l.23,.31c.67,.88,1.93,1.05,2.8,.38,.88-.67,1.05-1.93,.38-2.8-.67-.88-1.93-1.05-2.8-.38-.49,.38-.78,.96-.79,1.58,0,.18,.03,.36,.08,.54l.1,.37Z" style="fill:#2157aa;"/><path d="M45.04,209.93c-12.02-.02-21.74-9.78-21.73-21.79,0-3.81,1.01-7.55,2.92-10.85h0c6.01-10.41,19.32-13.97,29.72-7.96,10.41,6.01,13.97,19.32,7.96,29.72-3.89,6.74-11.09,10.89-18.88,10.88Zm-16.21-31.14c-5.19,8.97-2.13,20.45,6.84,25.65,8.97,5.19,20.45,2.13,25.65-6.84,5.19-8.97,2.13-20.45-6.84-25.65l-.03-.02c-8.97-5.18-20.43-2.11-25.62,6.85h0Z" style="fill:#2157aa;"/><path d="M51.86,185.22c-.74-3.75-4.39-6.2-8.14-5.46-2.07,.41-3.84,1.74-4.81,3.61-3.04,.37-5.21,3.13-4.85,6.17,.33,2.77,2.67,4.86,5.46,4.89h12c2.55,0,4.62-2.05,4.63-4.59,0-2.44-1.88-4.46-4.31-4.62h.02Zm-.32,7.36h-12c-2.04,0-3.7-1.65-3.7-3.7s1.65-3.7,3.7-3.7h.66c.74-2.71,3.54-4.31,6.25-3.57,2.23,.61,3.77,2.65,3.75,4.96v.43h1.39c1.53,.09,2.7,1.41,2.61,2.94-.08,1.4-1.2,2.52-2.61,2.61l-.04,.03Z" style="fill:#2157aa;"/><path d="M51.54,194.8h-12c-3.27,0-5.92-2.65-5.92-5.92,0-2.94,2.16-5.44,5.08-5.86,1.95-3.53,6.39-4.8,9.92-2.85,1.8,1,3.09,2.7,3.57,4.7,2.72,.45,4.57,3.02,4.12,5.75-.39,2.35-2.37,4.1-4.75,4.18h-.02Zm-6.5-14.8c-2.45,0-4.7,1.36-5.82,3.53l-.1,.18h-.2c-2.84,.31-4.89,2.86-4.58,5.7,.28,2.63,2.51,4.62,5.15,4.61h12c2.34,.08,4.3-1.74,4.38-4.08s-1.74-4.3-4.08-4.38h-.29v-.28c-.62-3.08-3.32-5.29-6.46-5.28Zm6.47,13h-12c-2.25,.11-4.17-1.62-4.28-3.87-.11-2.25,1.62-4.17,3.87-4.28,.13,0,.27,0,.4,0h.38c.97-2.86,4.07-4.38,6.93-3.41,2.22,.75,3.71,2.83,3.7,5.17v.09h1c1.74,0,3.15,1.41,3.15,3.15s-1.41,3.15-3.15,3.15h-.01Zm-12-7.4c-1.84-.1-3.41,1.31-3.51,3.14-.1,1.84,1.31,3.41,3.14,3.51,.12,0,.24,0,.36,0h12c1.33,0,2.4-1.07,2.4-2.4s-1.07-2.4-2.4-2.4h-1.76v-.84c-.02-2.61-2.15-4.7-4.76-4.68-2.08,.02-3.91,1.4-4.49,3.39l-.07,.28h-.92Z" style="fill:#2157aa;"/><g id="d"><path d="M20.04,132.46l17.83-7.65-17.83-7.64v6l12.74,1.69-12.74,1.65v5.95Z" style="fill:#2157aa;"/></g><path d="M26.63,146.57c-12.02-.02-21.74-9.78-21.73-21.79,0-3.81,1.01-7.55,2.92-10.85h0c6.01-10.41,19.32-13.97,29.72-7.96,10.41,6.01,13.97,19.32,7.96,29.72-3.89,6.74-11.09,10.89-18.88,10.88Zm-16.21-31.14c-5.19,8.97-2.14,20.44,6.83,25.64,8.97,5.19,20.44,2.14,25.64-6.83,2.49-4.31,3.18-9.43,1.89-14.24-2.67-10.01-12.95-15.95-22.95-13.28-4.82,1.28-8.92,4.43-11.41,8.75v-.04Z" style="fill:#2157aa;"/><path d="M209.04,66.06c.65,0,1.25-.35,1.56-.92l3.21-5.8c.24-.43,.09-.98-.34-1.23-.13-.07-.28-.11-.43-.11h-13.21l-.79-1.77h-3v1.77h1.79l3.21,6.8-1.17,2.2c-.47,.87-.15,1.97,.72,2.44,.26,.14,.55,.22,.85,.22h10.72v-1.81h-10.72l1-1.79h6.6Zm-8.4-6.26h10.87l-2.47,4.47h-6.28l-2.12-4.47Zm.76,10.73c-.99,0-1.79,.79-1.8,1.78,0,.99,.79,1.79,1.78,1.8,.99,0,1.79-.79,1.8-1.78h0c0-.98-.77-1.77-1.74-1.8h-.04Zm8.94,0c-.99,0-1.79,.79-1.8,1.78,0,.99,.79,1.79,1.78,1.8,.99,0,1.79-.79,1.8-1.78h0c0-.98-.77-1.77-1.74-1.8h-.04Z" style="fill:#2157aa;"/><path d="M210.38,74.48c-1.19,0-2.16-.97-2.16-2.16s.97-2.16,2.16-2.16,2.16,.97,2.16,2.16-.97,2.16-2.16,2.16h0Zm0-3.57c-.78,0-1.41,.63-1.41,1.41s.63,1.41,1.41,1.41,1.41-.63,1.41-1.41-.63-1.41-1.41-1.41h0Zm-8.94,3.57c-1.19,0-2.16-.97-2.16-2.16s.97-2.16,2.16-2.16,2.16,.97,2.16,2.16-.97,2.16-2.16,2.16h0Zm0-3.57c-.78,0-1.41,.63-1.41,1.41s.63,1.41,1.41,1.41,1.41-.63,1.41-1.41-.63-1.41-1.41-1.41h0Zm10.72-.9h-10.72c-.75,.01-1.46-.37-1.86-1.01-.39-.67-.39-1.49,0-2.16l1.12-2-3-6.4h-1.66c-.2,0-.37-.17-.37-.37h0v-1.84c0-.2,.16-.37,.36-.38h3.01c.15,0,.28,.09,.34,.22l.74,1.57h13c.7,0,1.26,.56,1.26,1.26,0,.22-.06,.43-.16,.62l-3.2,5.8c-.39,.72-1.16,1.16-1.98,1.12h-6.4l-.57,1h10.09c.21,0,.38,.17,.38,.38h0v1.79c0,.21-.16,.38-.37,.39h-.01Zm-15.71-12.36h1.41c.14,0,.28,.08,.34,.21l3.22,6.79c.05,.11,.05,.23,0,.34l-1.21,2.18c-.38,.68-.14,1.54,.54,1.92,.21,.12,.46,.18,.7,.18h10.35v-1h-10.36c-.13,0-.26-.07-.33-.18-.07-.11-.07-.26,0-.37l1-1.79c.07-.12,.19-.19,.33-.19h6.6c.52,0,.99-.28,1.24-.73l3.2-5.8c.1-.16,.1-.35,0-.51-.09-.16-.26-.26-.44-.26h-13.21c-.14,0-.27-.09-.33-.22l-.74-1.57h-2.31v1Zm12.63,7h-6.28c-.15,0-.28-.09-.34-.22l-2.11-4.42c-.06-.11-.06-.25,0-.36,.07-.11,.18-.17,.31-.17h10.87c.13,0,.25,.07,.32,.18,.06,.12,.06,.25,0,.37l-2.47,4.48c-.08,.1-.21,.16-.34,.15h.04Zm-6-.76h5.82l2.05-3.72h-9.63l1.76,3.72Z" style="fill:#2157aa;"/><path d="M204.98,86.92c-3.81,0-7.55-1.01-10.84-2.92-10.4-6.01-13.98-19.3-8-29.72h0c6.01-10.41,19.32-13.97,29.72-7.96,10.41,6.01,13.97,19.32,7.96,29.72-3.89,6.74-11.09,10.89-18.88,10.88h.03Zm-16.21-31.13c-5.18,8.97-2.11,20.45,6.87,25.63,8.97,5.18,20.45,2.11,25.63-6.87s2.11-20.45-6.87-25.63c-4.31-2.49-9.43-3.16-14.24-1.87-4.8,1.29-8.9,4.43-11.39,8.74Z" style="fill:#2157aa;"/><path d="M204.98,209.93c-12.02-.02-21.74-9.78-21.73-21.79,0-3.81,1.01-7.55,2.92-10.85h0c6.01-10.41,19.32-13.97,29.72-7.96,10.41,6.01,13.97,19.32,7.96,29.72-3.89,6.74-11.09,10.89-18.88,10.88Zm-16.21-31.14c-5.19,8.97-2.12,20.44,6.85,25.63,8.97,5.19,20.44,2.12,25.63-6.85,2.49-4.31,3.17-9.44,1.88-14.25-2.67-10.01-12.95-15.95-22.95-13.28-4.82,1.28-8.92,4.43-11.41,8.75h0Z" style="fill:#2157aa;"/><g id="e"><path d="M196.9,195.15v-7.1h2v5.07h12.17v-5.07h2v7.1h-16.17Zm3.4-9.07l1.44-1.44,2.26,2.27v-8h2v8.09l2.39-2.39,1.43,1.44-4.78,4.8-4.74-4.77Z" style="fill:#2157aa;"/><path d="M213.13,195.4h-16.23c-.14,0-.25-.11-.25-.25v-7.15c0-.14,.11-.25,.25-.25h2c.14,0,.24,.11,.25,.25v4.83h11.67v-4.83c0-.14,.11-.24,.25-.25h2c.14,0,.25,.11,.25,.25v7.11c.02,.13-.06,.26-.19,.29Zm-16-.5h15.73v-6.61h-1.53v4.83c0,.14-.11,.25-.25,.25h-12.15c-.14,0-.25-.11-.25-.25v-4.83h-1.53l-.02,6.61Zm7.93-3.8c-.07,0-.13-.02-.18-.07l-4.78-4.78s-.07-.11-.07-.17c0-.07,.03-.13,.07-.18l1.44-1.44c.05-.04,.11-.07,.18-.07h0c.06,0,.12,.03,.17,.07l1.84,1.84v-7.39c0-.14,.11-.25,.25-.25h2c.14,0,.25,.11,.25,.25v7.52l2-2c.05-.04,.11-.07,.18-.07h0c.06,0,.12,.03,.17,.07l1.46,1.47c.1,.09,.1,.24,.01,.34h-.01l-4.79,4.76c-.05,.07-.13,.11-.21,.1h.02Zm-4.43-5l4.41,4.4,4.42-4.42-1.04-1.08-2.21,2.21c-.09,.05-.19,.05-.28,0-.09-.04-.15-.13-.15-.23v-7.87h-1.53v7.75c0,.1-.06,.19-.15,.23-.1,.04-.21,.02-.28-.06l-2.08-2.03-1.11,1.1Z" style="fill:#2157aa;"/></g><path d="M223.38,146.57c-12.02-.02-21.74-9.78-21.73-21.79,0-3.81,1.01-7.55,2.92-10.85h0c6.01-10.41,19.32-13.97,29.72-7.96,10.41,6.01,13.97,19.32,7.96,29.72-3.89,6.74-11.09,10.89-18.88,10.88Zm-16.21-31.14c-5.18,8.97-2.11,20.45,6.86,25.63s20.45,2.11,25.63-6.86c5.18-8.97,2.11-20.44-6.86-25.63-8.97-5.18-20.45-2.11-25.63,6.86h0Z" style="fill:#2157aa;"/><path d="M230.54,116.56h-13.57c-.93,0-1.69,.76-1.69,1.69h0v15.26l3.39-3.39h11.87c.93,0,1.69-.76,1.69-1.7v-10.17c0-.93-.76-1.69-1.69-1.69h0Zm-.85,11.86h-11l-1.7,1.7v-11c0-.47,.38-.84,.85-.85h11.87c.47,0,.85,.38,.85,.85h0v8.48c-.02,.47-.4,.83-.87,.82Z" style="fill:#2157aa;"/><path d="M214.78,134.72v-16.47c0-1.21,.98-2.19,2.19-2.19h13.57c1.21,0,2.19,.98,2.19,2.19h0v10.17c0,1.21-.98,2.19-2.19,2.2h-11.66l-4.1,4.1Zm2.19-17.66c-.66,0-1.19,.53-1.19,1.19h0v14.05l2.68-2.68h12.08c.66,0,1.19-.53,1.19-1.19h0v-10.18c0-.66-.53-1.19-1.19-1.19h-13.57Zm-.5,14.27v-12.23c0-.74,.61-1.34,1.35-1.35h11.87c.74,0,1.34,.61,1.35,1.35v8.48c0,.74-.61,1.34-1.35,1.34h-10.81l-2.41,2.41Zm1.35-12.58c-.19,0-.35,.16-.35,.35h0v9.81l1-1h11.23c.19,0,.34-.15,.35-.34v-8.47c0-.19-.16-.35-.35-.35h-11.88Z" style="fill:#2157aa;"/></g></svg>