<?xml version="1.0" encoding="UTF-8"?><svg id="a" xmlns="http://www.w3.org/2000/svg" width="200" height="200" viewBox="0 0 200 200"><g id="b"><path d="M104.64,137.01c-1.13,.01-2.05,.94-2.04,2.07v56.78c-.08,1.13,.77,2.11,1.9,2.19s2.11-.77,2.19-1.9c0-.09,0-.19,0-.28v-56.78c0-1.14-.91-2.06-2.05-2.07h0Z" style="fill:#b3cbe8;"/><path d="M104.64,83.39h0c1.13,0,2.04,.91,2.04,2.04v6.68c0,1.13-.91,2.04-2.04,2.04h0c-1.13,0-2.04-.91-2.04-2.04v-6.68c0-1.13,.91-2.04,2.04-2.04Z" style="fill:#b3cbe8;"/><path d="M104.64,18.4h0c1.13,0,2.04,.91,2.04,2.04v16.43c0,1.13-.91,2.04-2.04,2.04h0c-1.13,0-2.04-.91-2.04-2.04V20.44c0-1.13,.91-2.04,2.04-2.04Z" style="fill:#b3cbe8;"/><path d="M113.1,8.59V4.53h-3.79v4.8c0,.99-.79,1.79-1.78,1.8h-19.95c-.99,0-1.79,.8-1.79,1.79h0v.26c0,.58,.28,1.13,.77,1.46h.07c.29,.2,.63,.31,.98,.32h23.64c.17,0,.34-.03,.5-.07h0c.77-.19,1.32-.88,1.34-1.68v-2.09h-.21v-2.53h.21Z" style="fill:#b3cbe8;"/><polygon points="27.9 97.53 39.17 114.52 28 132.75 148.87 132.75 161.08 132.75 161.08 131.15 27.9 97.53" style="fill:#b3cbe8;"/><polygon points="27.9 43.7 39.17 60.85 28 79.26 148.87 79.26 161.08 79.26 161.08 77.64 27.9 43.7" style="fill:#b3cbe8;"/></g><g id="c"><path d="M135.3,48.27c-7.21,0-13.05,5.86-13.05,13.07s5.86,13.05,13.07,13.05c7.21,0,13.05-5.86,13.05-13.07-.01-7.21-5.86-13.05-13.07-13.05Zm3.64,2.48c2.55,.88,4.7,2.64,6.05,4.97l.36,.62h-5.01l-.08-.3c-.42-1.63-1.03-3.21-1.82-4.7l-.5-.98,1,.39Zm.16,10.57c-.01,.92-.09,1.84-.23,2.76l-.05,.35h-7.02l-.05-.35c-.29-1.82-.29-3.68,0-5.5l.05-.35h7.02l.05,.35c.14,.91,.22,1.83,.23,2.75Zm-3.79-11.44l.34,.49c1.16,1.67,2.04,3.5,2.63,5.45l.16,.53h-6.25l.16-.53c.58-1.94,1.47-3.78,2.63-5.45l.33-.49Zm-9.67,5.89c1.35-2.33,3.5-4.1,6.05-4.97l.98-.34-.5,.98c-.8,1.48-1.41,3.06-1.82,4.7l-.08,.3h-4.99l.36-.67Zm-1.15,8.39c-.48-1.83-.48-3.75,0-5.58l.08-.31h5.34l-.05,.46c-.25,1.75-.25,3.53,0,5.29l.05,.46h-5.34l-.08-.31Zm7.2,7.78c-2.55-.87-4.7-2.64-6.05-4.97l-.36-.62h5.01l.08,.3c.41,1.64,1.02,3.21,1.82,4.7l.5,.98-1-.39Zm3.62,.87l-.33-.49c-1.16-1.66-2.05-3.5-2.63-5.45l-.16-.53h6.25l-.16,.53c-.59,1.94-1.47,3.78-2.63,5.45l-.34,.49Zm9.68-5.89c-1.36,2.33-3.51,4.09-6.05,4.97l-.98,.34,.5-.98c.8-1.49,1.41-3.07,1.82-4.7l.08-.3h5.01l-.38,.67Zm1.07-2.49h-5.35l.06-.46c.25-1.75,.25-3.53,0-5.29l-.06-.46h5.35l.08,.31c.48,1.83,.48,3.75,0,5.58l-.08,.31Z" style="fill:#2157aa;"/><path d="M135.3,74.75c-7.42,0-13.43-6.02-13.42-13.44,0-7.42,6.02-13.43,13.44-13.42,7.41,0,13.42,6.02,13.42,13.43s-6.01,13.43-13.43,13.43h0Zm0-26.12c-7.01,0-12.69,5.69-12.69,12.71,0,7.01,5.69,12.69,12.71,12.69,7.01,0,12.69-5.69,12.69-12.71,0-7.01-5.69-12.69-12.71-12.69h0Zm0,24.78l-.64-.98c-1.18-1.69-2.09-3.57-2.68-5.54l-.3-.98h7.25l-.3,.98c-.6,1.98-1.5,3.85-2.68,5.54l-.65,.98Zm-2.57-6.75v.06c.57,1.91,1.44,3.71,2.58,5.35h0c1.14-1.63,2.03-3.42,2.62-5.32v-.06l-5.2-.03Zm4.48,6.23l.98-1.76c.78-1.46,1.38-3.01,1.79-4.62l.16-.59h5.89l-.69,1.18c-1.4,2.41-3.62,4.23-6.25,5.14l-1.87,.65Zm3.46-6.23h0c-.42,1.66-1.04,3.27-1.85,4.78l-.06,.1h.11c2.48-.84,4.57-2.55,5.89-4.82v-.07h-4.08Zm-7.16,6.24l-1.89-.65c-2.64-.91-4.86-2.74-6.26-5.15l-.68-1.17h5.94l.15,.59c.41,1.6,1.01,3.15,1.8,4.61l.95,1.77Zm-7.55-6.23v.07c1.31,2.27,3.4,3.98,5.89,4.82h.11l-.05-.1c-.82-1.51-1.44-3.12-1.85-4.79h-4.09Zm20.44-1.86h-6.04l.11-.88c.11-.86,.18-1.73,.19-2.6,0-.87-.07-1.74-.19-2.6l-.11-.87h6.04l.15,.6c.5,1.89,.5,3.87,0,5.76l-.15,.6Zm-5.21-.74h4.64c.47-1.77,.47-3.63,0-5.41h-4.64c.12,.89,.18,1.79,.2,2.69,0,.9-.07,1.8-.2,2.7v.02Zm-1.96,.74h-7.66l-.1-.68c-.29-1.86-.29-3.75,0-5.6l.1-.68h7.66l.09,.68c.3,1.86,.3,3.75,0,5.6l-.09,.68Zm-7.02-.74h6.39c.13-.9,.21-1.8,.22-2.71-.01-.9-.08-1.8-.22-2.7h-6.39c-.14,.89-.21,1.79-.22,2.7,0,.91,.08,1.81,.22,2.71Zm-1.81,.74h-6.03l-.15-.6c-.51-1.89-.51-3.87,0-5.76l.15-.6h6.03l-.1,.87c-.25,1.73-.25,3.48,0,5.21l.1,.87Zm-5.46-.74h4.64v-.05c-.25-1.79-.25-3.6,0-5.39h-4.65c-.47,1.77-.47,3.63,0,5.41v.03Zm21.15-7.35h-5.89l-.16-.59c-.41-1.61-1.01-3.16-1.79-4.62l-.98-1.76,1.89,.65c2.63,.91,4.85,2.73,6.25,5.14l.67,1.18Zm-5.45-.76h4.08v-.07c-1.31-2.27-3.4-3.98-5.89-4.82h-.11l.06,.11c.8,1.51,1.4,3.12,1.81,4.78h.05Zm-1.69,.74h-7.25l.3-.98c.6-1.99,1.51-3.86,2.7-5.56l.64-.92,.65,.92c1.16,1.71,2.05,3.58,2.64,5.56l.32,.98Zm-6.21-.74h5.27v-.06c-.57-1.91-1.44-3.71-2.58-5.35v0c-1.18,1.64-2.09,3.47-2.69,5.41Zm-2.11,.74h-5.94l.68-1.17c1.4-2.41,3.62-4.24,6.26-5.15l1.89-.65-.98,1.76c-.77,1.47-1.37,3.03-1.77,4.64l-.15,.57Zm-4.71-.74h4.1c.42-1.67,1.04-3.27,1.85-4.79l.05-.11h-.11c-2.48,.84-4.57,2.55-5.89,4.82v.08Z" style="fill:#2157aa;"/><path d="M106.95,93.89c-.81,0-1.47-.66-1.47-1.47v-7.45c0-.81,.66-1.47,1.47-1.47s1.47,.66,1.47,1.47h0v7.45c0,.81-.66,1.47-1.47,1.47Z" style="fill:#2157aa;"/><path d="M92.08,93.89c-.81,0-1.47-.66-1.47-1.47v-7.45c0-.81,.66-1.47,1.47-1.47s1.47,.66,1.47,1.47h0v7.45c0,.81-.66,1.47-1.47,1.47Z" style="fill:#2157aa;"/><path d="M92.08,39.1c-.81,0-1.47-.66-1.47-1.47V20.2c0-.81,.66-1.47,1.47-1.47s1.47,.66,1.47,1.47v17.43c0,.81-.66,1.47-1.47,1.47Z" style="fill:#2157aa;"/><path d="M106.95,39.1c-.81,0-1.47-.66-1.47-1.47V20.11c0-.81,.66-1.47,1.47-1.47s1.47,.66,1.47,1.47v17.52c0,.81-.66,1.47-1.47,1.47Z" style="fill:#2157aa;"/><path d="M111.57,16.65h-24.12c-1.71,0-3.09-1.39-3.1-3.1V6.33c0-1.71,1.39-3.1,3.1-3.11h24.12c1.71,0,3.1,1.4,3.1,3.11v7.21c0,1.71-1.39,3.09-3.1,3.1Zm-24.12-10.48c-.09,0-.16,.08-.16,.17v7.21c0,.09,.07,.16,.16,.16h24.12c.09,0,.16-.07,.16-.16h0V6.33c0-.09-.07-.16-.16-.17h-24.12Z" style="fill:#2157aa;"/><path d="M106.95,198.22c-.81,0-1.47-.66-1.47-1.47v-58.11c0-.81,.66-1.47,1.47-1.47s1.47,.66,1.47,1.47v58.07c.02,.81-.62,1.49-1.43,1.51h-.04Z" style="fill:#2157aa;"/><path d="M92.08,198.22c-.81,0-1.47-.66-1.47-1.47v-58.11c0-.81,.66-1.47,1.47-1.47s1.47,.66,1.47,1.47v58.07c.02,.81-.62,1.49-1.43,1.51h-.04Z" style="fill:#2157aa;"/><path d="M159.54,135.11H31.1c-1.57,0-2.99-.91-3.68-2.32-.76-1.5-.61-3.3,.4-4.65l8.96-12.05c.38-.53,.38-1.25,0-1.78l-8.96-12.05c-1.01-1.35-1.16-3.15-.4-4.65,.69-1.41,2.11-2.31,3.68-2.32H159.54c1.31,.01,2.53,.64,3.31,1.7l11.4,15.59c1.13,1.56,1.13,3.67,0,5.23l-11.4,15.59c-.77,1.06-2,1.68-3.31,1.7ZM31.1,98.25c-.45,0-.85,.28-1.04,.69-.26,.51-.22,1.12,.12,1.58l8.97,12.05c1.16,1.57,1.16,3.72,0,5.29l-8.97,12.05c-.33,.46-.38,1.07-.12,1.57,.18,.42,.59,.69,1.04,.7H159.54c.37,0,.72-.19,.93-.5l11.4-15.58c.37-.53,.37-1.23,0-1.76l-11.4-15.58c-.21-.31-.56-.5-.93-.5H31.1Z" style="fill:#2157aa;"/><path d="M106.59,110.53H49.56c-.81,0-1.47-.66-1.47-1.47s.66-1.47,1.47-1.47h57.03c.81,0,1.47,.66,1.47,1.47s-.66,1.47-1.47,1.47h0Z" style="fill:#2157aa;"/><path d="M106.59,122.82H49.56c-.81,0-1.47-.66-1.47-1.47s.66-1.47,1.47-1.47h57.03c.81,0,1.47,.66,1.47,1.47s-.66,1.47-1.47,1.47h0Z" style="fill:#2157aa;"/><path d="M159.54,81.39H31.1c-1.56-.02-2.98-.91-3.67-2.32-.77-1.51-.62-3.32,.38-4.69l8.97-12.16c.38-.54,.38-1.27,0-1.82l-8.97-12.16c-1-1.37-1.15-3.18-.38-4.69,.69-1.41,2.11-2.31,3.67-2.33H159.54c1.31,.01,2.54,.65,3.31,1.72l11.41,15.7c1.12,1.57,1.12,3.68,0,5.25l-11.41,15.7c-.75,1.09-1.98,1.76-3.31,1.79ZM31.1,44.19c-.45,.02-.85,.29-1.04,.7-.26,.52-.21,1.15,.13,1.62l8.96,12.16c1.15,1.58,1.15,3.72,0,5.31l-8.96,12.16c-.34,.47-.39,1.1-.13,1.62,.19,.41,.59,.68,1.04,.7H159.54c.37,0,.72-.2,.93-.51l11.4-15.7c.37-.54,.37-1.26,0-1.8l-11.4-15.7c-.21-.31-.56-.49-.93-.5l-128.44-.05Z" style="fill:#2157aa;"/><path d="M106.59,57.14H49.56c-.81,0-1.47-.66-1.47-1.47s.66-1.47,1.47-1.47h57.03c.81,0,1.47,.66,1.47,1.47s-.66,1.47-1.47,1.47h0Z" style="fill:#2157aa;"/><path d="M106.59,68.44H49.56c-.81,0-1.47-.66-1.47-1.47s.66-1.47,1.47-1.47h57.03c.81,0,1.47,.66,1.47,1.47s-.66,1.47-1.47,1.47h0Z" style="fill:#2157aa;"/><path d="M142.14,118.15h0c-.93,.01-1.83,.36-2.52,.98l-7.19-3.63h0l6.98-4.32c1.53,1.53,4.02,1.54,5.55,0,.75-.75,1.16-1.76,1.15-2.82h0c0-2.17-1.76-3.92-3.92-3.92h0c-2.17,0-3.92,1.76-3.92,3.92,0,.04,0,.08,0,.12l-6.76,4.19c-.74-.85-1.81-1.35-2.94-1.35-2.19,0-3.96,1.77-3.96,3.96s1.77,3.96,3.96,3.96h0c.98,0,1.93-.38,2.65-1.05l7.07,3.56c0,.15,0,.3,0,.45,0,2.19,1.77,3.96,3.96,3.96s3.96-1.77,3.96-3.96h0c.08-2.17-1.62-3.98-3.78-4.06-.09,0-.19,0-.28,0Z" style="fill:#2157aa;"/></g></svg>