<?xml version="1.0" encoding="UTF-8"?><svg id="a" xmlns="http://www.w3.org/2000/svg" width="160" height="160" viewBox="0 0 160 160"><g id="b"><path d="M70.78,81.97c1.8,.94,3.8,1.43,5.83,1.41-1.99-.24-3.95-.72-5.83-1.41Z" style="fill:#b3cbe8;"/><path d="M43.87,111.67l-5.87,8.68c-.46,.69-.28,1.63,.42,2.09,.02,.02,.05,.03,.07,.05l29.75,21-26.24-26.39,1.87-5.43Z" style="fill:#b3cbe8;"/><path d="M112.22,111.67l5.89,8.68c.46,.69,.28,1.63-.42,2.09-.02,.02-.05,.03-.07,.05l-29.75,21,26.23-26.39-1.88-5.43Z" style="fill:#b3cbe8;"/><path d="M99.51,104.31l-20,23.31c-.68,.8-1.89,.9-2.69,.22-.08-.07-.15-.14-.22-.22l-20-23.31,21.14,35.5,.32-.53,.33,.53,21.12-35.5Z" style="fill:#b3cbe8;"/><path d="M41.72,158.43c-.98,0-1.78-.8-1.79-1.78v-13.71c-.07-.99,.67-1.84,1.65-1.92,.99-.07,1.84,.67,1.92,1.65,0,.09,0,.18,0,.27v13.71c0,.98-.8,1.78-1.78,1.78h0Z" style="fill:#b3cbe8;"/><path d="M114,158.43c-.98,0-1.78-.8-1.78-1.78v-13.71c-.07-.99,.67-1.84,1.65-1.92,.99-.07,1.84,.67,1.92,1.65,0,.09,0,.18,0,.27v13.71c0,.98-.81,1.78-1.79,1.78Z" style="fill:#b3cbe8;"/><path d="M68,74.22l-3.88-5.45c-2.58-3.63-4.27-9.35-4.9-13.9-.02-.23-.07-.45-.16-.66h0c-.94-4.32-1.33-13.38-1.48-18.72,0-3.24,.22-6.49,.66-9.7l.2-1.11c1.56-8.93,7.12-14.18,14.66-17.58,3.41-1.41,7.02-2.28,10.7-2.58-1-.09-2.11-.15-3.24-.15h-1.56c-4.78-.01-9.52,.92-13.94,2.73-7.54,3.39-13.09,8.64-14.65,17.57l-.55,3.17c-.22,1.15-.35,2.31-.4,3.48-7.5,0-4.82,13.5-4.82,13.5,.63,5.18,2.82,8.83,5.79,8.89,.68,0,.77,1.15,.77,1.15,.63,4.55,2.31,10.27,4.89,13.9l3.88,5.45c2.81,4.04,6.77,7.14,11.37,8.89,2.45,.9,5.05,1.37,7.66,1.37h1.56c1.08,0,2.17-.08,3.24-.24-1.51-.23-2.99-.61-4.43-1.13-4.6-1.75-8.56-4.84-11.37-8.88Z" style="fill:#b3cbe8;"/><path d="M57.86,81.82c-1.58-1.08-1.41,.08-1.41,.08,.44,8.1-1,11-1.11,11.31-2.47,2.46-5.1,4.75-7.87,6.87-1.5,1.13-7.16,2.73-10.54,4.49-1.39,.64-13.1,8.43-13.47,10.24-5.27,5.7-8.2,13.18-8.2,20.95,0,0,.37,19.36,0,20.89s9.31,1.94,9.27-1.42,.15-18.31,.15-18.31c0,0-1.65-18.77,15.39-27.91,12.62-6.77,13-7,17.29-12s2.08-14.11,.5-15.19Z" style="fill:#b3cbe8;"/></g><g id="c"><path d="M15.17,158.15c-.83,0-1.49-.67-1.5-1.5v-18.45c0-11.92,5.5-22.8,15.47-30.65,3.31-2.53,6.98-4.55,10.88-6,4.56-1.79,15.18-6.68,15.18-13.49v-5.56c0-.83,.67-1.5,1.5-1.5s1.5,.67,1.5,1.5v5.51c0,8.34-10.71,13.78-17.09,16.28-3.63,1.36-7.04,3.25-10.11,5.62-9.24,7.27-14.33,17.31-14.33,28.29v18.45c0,.83-.67,1.5-1.5,1.5Z" style="fill:#2157aa;"/><path d="M39.17,158.15c-.83,0-1.49-.67-1.5-1.5v-13.71c0-.83,.67-1.5,1.5-1.5s1.5,.67,1.5,1.5v13.71c0,.83-.67,1.5-1.5,1.5Z" style="fill:#2157aa;"/><path d="M116.68,158.15c-.83,0-1.5-.67-1.5-1.5v-13.71c0-.83,.67-1.5,1.5-1.5s1.5,.67,1.5,1.5v13.71c0,.83-.67,1.5-1.5,1.5Z" style="fill:#2157aa;"/><path d="M140.92,158.15c-.83,0-1.5-.67-1.5-1.5v-18.45c0-11-5.09-21-14.33-28.29-3.06-2.37-6.47-4.26-10.09-5.62-6.38-2.5-17.09-7.94-17.09-16.28v-5.51c0-.83,.67-1.5,1.5-1.5s1.5,.67,1.5,1.5v5.51c0,6.81,10.62,11.7,15.18,13.49,3.9,1.45,7.57,3.47,10.88,6,10,7.85,15.47,18.73,15.47,30.65v18.45c.02,.83-.64,1.53-1.47,1.55-.02,0-.03,0-.05,0Z" style="fill:#2157aa;"/><path d="M77.84,141.31c-.52,0-1.01-.27-1.28-.72l-21.14-34.72c-.46-.69-.27-1.62,.42-2.08,.69-.46,1.62-.27,2.08,.42,.02,.03,.04,.06,.06,.1l19.86,32.62,19.85-32.62c.43-.71,1.36-.94,2.07-.51s.94,1.36,.51,2.07l-21.14,34.72c-.27,.45-.76,.72-1.28,.72Z" style="fill:#2157aa;"/><path d="M51.35,48.97c-.7,0-1.31-.48-1.46-1.16-.56-2.44-.89-4.93-1-7.44-.02-.83,.63-1.52,1.46-1.54s1.52,.63,1.54,1.46h0c.12,2.31,.44,4.6,.95,6.85,.19,.81-.31,1.61-1.12,1.8-.12,.03-.25,.04-.37,.04Z" style="fill:#2157aa;"/><path d="M106.37,48.97c-.12,.01-.23,.01-.35,0-.8-.19-1.3-1-1.11-1.8,.51-2.25,.82-4.54,.94-6.85,.02-.82,.69-1.47,1.51-1.45h.03c.83,.02,1.48,.71,1.46,1.54h0c-.11,2.51-.45,5-1,7.44-.17,.67-.79,1.14-1.48,1.12Z" style="fill:#2157aa;"/><path d="M79.4,86.28h-1.51c-2.72,0-5.41-.51-7.94-1.5-4.77-1.91-8.85-5.24-11.68-9.53l-3.75-5.53c-2.75-4.08-4.37-10.24-5-14.68-3.25-.55-5.65-4.37-6.34-10.23-.22-1.19-1.61-9.5,1.66-13.41,.78-.95,1.86-1.61,3.06-1.88,.06-.62,.16-1.44,.32-2.42l.54-3.21c1.44-8.67,6.34-14.86,15-18.94,4.45-1.93,9.25-2.93,14.1-2.91h1.51c4.84-.01,9.63,.97,14.08,2.89,.39,.13,3.22,.71,5.7,1.18l3.62,.86c.43,.11,.8,.41,1,.81,.19,.41,.19,.88,0,1.29l-1.13,2.42c3.1,3.48,5.12,7.79,5.81,12.4l.55,3.21c.16,1,.26,1.8,.32,2.42,1.2,.27,2.28,.93,3.06,1.88,3.27,3.91,1.88,12.22,1.66,13.41-.69,5.86-3.09,9.68-6.34,10.23-.61,4.5-2.22,10.62-5,14.68l-3.7,5.53c-2.83,4.29-6.91,7.62-11.68,9.53-2.52,.99-5.21,1.5-7.92,1.5Zm-30.08-53.9c-.82-.04-1.62,.31-2.14,.94-2.05,2.46-1.42,8.76-1,11v.1c.52,4.49,2.22,7.66,4.13,7.7,1.21,0,2.09,1,2.2,2.55,.51,3.83,2,9.71,4.48,13.37l3.75,5.54c2.48,3.78,6.06,6.71,10.26,8.4,2.19,.85,4.51,1.3,6.86,1.3h1.51c2.35,0,4.67-.45,6.86-1.3,4.2-1.69,7.79-4.62,10.27-8.41l3.75-5.54c2.48-3.66,4-9.54,4.49-13.45-.05-1.31,.96-2.41,2.26-2.48,1.91,0,3.61-3.21,4.13-7.7v-.1c.42-2.23,1-8.53-1-11-.52-.63-1.32-.98-2.14-.94h0c-.82,0-1.49-.66-1.5-1.48-.04-1.11-.17-2.22-.36-3.31l-.54-3.21c-.62-4.36-2.61-8.4-5.7-11.54-.44-.44-.56-1.12-.3-1.69l.79-1.68-1.77-.43c-5.66-1.07-6.15-1.3-6.33-1.38-4.05-1.74-8.41-2.64-12.82-2.62h-1.51c-4.45-.02-8.86,.88-12.95,2.65-7.77,3.67-12,9-13.28,16.71l-.54,3.21c-.19,1.09-.32,2.2-.36,3.31-.01,.82-.68,1.48-1.5,1.48h0Z" style="fill:#2157aa;"/><path d="M99.61,40.59h-.28c-.8-.03-1.44-.69-1.43-1.49-.06-3.99-.34-7.98-.83-11.94-5,1.33-21.39,4.94-36.92-.1-.43,3.65-.52,7.33-.29,11,.02,.42-.13,.83-.43,1.13-.3,.3-.71,.46-1.13,.44-3.71-.01-6.87-2.67-7.53-6.32-.81-.32-1.58-.73-2.31-1.21-.67-.49-.8-1.43-.31-2.1,.49-.67,1.43-.8,2.1-.31,.76,.51,1.57,.93,2.43,1.24,.56,.2,.96,.71,1,1.31,.13,1.89,1.37,3.53,3.15,4.18-.34-10.76,1.11-11.84,1.61-12.21,.5-.39,1.16-.49,1.75-.27,17.5,6.11,37.3,0,37.5,0,.69-.21,1.43,.09,1.77,.72,.92,1.69,1.29,8.75,1.42,12.64,2-1.12,2.43-4.77,2.44-4.82,.07-.63,.52-1.15,1.14-1.3,1.01-.14,1.97-.54,2.79-1.16-.03,.03-.06,.06-.08,.1l2.54,1.6c-.2,.32-1,1.35-3.58,2.12-.62,2.78-2.47,6.75-6.52,6.75Z" style="fill:#2157aa;"/><path d="M70,144.93c-.37,0-.73-.14-1-.39l-28.42-25.68c-.54-.49-.65-1.31-.25-1.92l6.87-10.69c.48-.67,1.42-.82,2.09-.34,.62,.45,.81,1.29,.43,1.96l-6.18,9.62,27.46,24.82c.62,.55,.67,1.5,.12,2.12-.29,.32-.69,.5-1.12,.5Z" style="fill:#2157aa;"/><path d="M86,144.93c-.42,0-.83-.18-1.11-.5-.56-.61-.51-1.55,.09-2.11h.02l27.47-24.83-6.19-9.62c-.45-.7-.24-1.63,.46-2.07s1.63-.24,2.07,.46l6.87,10.69c.4,.61,.29,1.43-.25,1.92l-28.43,25.68c-.27,.25-.63,.39-1,.39Z" style="fill:#2157aa;"/><path d="M78.05,98.54c-7.76,0-14.62-1.59-17.9-4.14-.65-.51-.77-1.45-.26-2.1s1.45-.77,2.1-.26c2.24,1.75,8.08,3.51,16.06,3.51,6.84,0,13.27-1.39,16-3.46,.64-.52,1.59-.43,2.11,.21,.52,.64,.43,1.59-.21,2.11-.03,.02-.06,.04-.09,.07-3.31,2.51-10.13,4.07-17.81,4.07Z" style="fill:#2157aa;"/><path d="M67.27,111.26c-.83,0-1.5-.67-1.5-1.5,0-.37,.14-.73,.39-1.01l11.17-12.26c.5-.66,1.44-.8,2.1-.3,.66,.5,.8,1.44,.3,2.1-.05,.07-.11,.14-.18,.2l-11.17,12.26c-.28,.32-.68,.51-1.11,.51Z" style="fill:#2157aa;"/><path d="M89.61,111.26c-.42,0-.83-.18-1.11-.49l-11.17-12.26c-.61-.56-.64-1.51-.08-2.12,.56-.61,1.51-.64,2.12-.08,.07,.06,.13,.13,.18,.2l11.17,12.26c.56,.61,.51,1.56-.1,2.12-.28,.25-.64,.39-1.01,.39v-.02Z" style="fill:#2157aa;"/><ellipse cx="78.01" cy="107.06" rx="1.42" ry="1.48" style="fill:#2157aa;"/><ellipse cx="78.01" cy="115.94" rx="1.42" ry="1.48" style="fill:#2157aa;"/><ellipse cx="78.01" cy="124.82" rx="1.42" ry="1.48" style="fill:#2157aa;"/></g></svg>