<?xml version="1.0" encoding="UTF-8"?><svg id="a" xmlns="http://www.w3.org/2000/svg" width="250" height="250" viewBox="0 0 250 250"><g id="b"><path d="M22.15,177.57v5.36H88.59l-1.55-5.36L53.79,62.35H27.9c-6.35,0-5.75,8.96-5.75,8.96v106.25Z" style="fill:#b3cbe8;"/><path d="M25.56,188.84c-8.5,0-8.13-2.5-9.3-4.26-.26-.53-.49-1.09-.69-1.65H4.87c-.04,2.03,.35,4.04,1.14,5.91,3.5,8.02,13.88,8.21,13.88,8.21H225.73c10.58,0,15-4.34,16.81-8.21H25.56Z" style="fill:#b3cbe8;"/></g><g id="c"><path d="M243.8,180.9H4.87c-1.12,0-2.03,.89-2.04,2.01h0c0,8.94,7.23,16.17,16.16,16.17H229.68c8.92,0,16.16-7.23,16.16-16.16,0-1.12-.91-2.02-2.02-2.02h-.01Zm-14.12,14.12H18.99c-5.89,0-10.93-4.25-11.92-10.06H99.97c.85,2.32,3.05,3.87,5.52,3.87h37.69c2.47,0,4.68-1.55,5.52-3.87h92.96c-1,5.83-6.07,10.09-11.98,10.06Z" style="fill:#2157aa;"/><path d="M22.16,176.17c1.12,0,2.04-.91,2.04-2.04h0V71.31c0-3.82,3.1-6.92,6.92-6.92H217.54c3.82,0,6.93,3.09,6.94,6.91h0v102.83c-.09,1.12,.75,2.1,1.87,2.19,1.12,.09,2.1-.75,2.19-1.87,0-.11,0-.21,0-.32V71.31c0-6.07-4.92-11-11-11H31.12c-6.07,0-11,4.92-11,11h0v102.82c0,1.12,.91,2.04,2.04,2.04h0Z" style="fill:#2157aa;"/><path d="M214.77,175.09c1.12,0,2.04-.91,2.04-2.04h0V73.01c0-1.12-.92-2.02-2.04-2.02H33.9c-1.12,0-2.03,.9-2.04,2.02v100.04c0,1.12,.92,2.04,2.04,2.03,1.12,0,2.03-.91,2.03-2.03V75.05H212.73v98.01c0,1.12,.91,2.04,2.04,2.04h0Z" style="fill:#2157aa;"/><path d="M60.85,95.79h-1.97c-.94,0-1.71-.75-1.71-1.69h0v-1.99c0-.94,.76-1.7,1.7-1.7h1.99c.94,0,1.7,.76,1.7,1.7h0v1.97c0,.94-.76,1.7-1.7,1.7h0Z" style="fill:#2157aa;"/><path d="M60.85,108.18h-1.97c-.94,0-1.71-.75-1.71-1.69h0v-1.99c0-.94,.76-1.7,1.7-1.7h1.99c.94,0,1.7,.76,1.7,1.7h0v1.97c0,.94-.76,1.7-1.7,1.7h0Z" style="fill:#2157aa;"/><path d="M60.85,120.56h-1.97c-.94,0-1.71-.75-1.71-1.69h0v-1.99c0-.95,.77-1.71,1.71-1.71h1.97c.94,0,1.7,.77,1.7,1.71v1.97c0,.94-.76,1.7-1.7,1.7h0Z" style="fill:#2157aa;"/><path d="M123.25,95.14h-49.83c-1.12,0-2.04-.92-2.03-2.04,0-1.12,.91-2.03,2.03-2.03h49.83c1.12,0,2.04,.92,2.03,2.04,0,1.12-.91,2.03-2.03,2.03Z" style="fill:#2157aa;"/><path d="M123.25,107.53h-49.83c-1.12,0-2.04-.92-2.03-2.04,0-1.12,.91-2.03,2.03-2.03h49.83c1.12,0,2.04,.92,2.03,2.04,0,1.12-.91,2.03-2.03,2.03Z" style="fill:#2157aa;"/><path d="M123.25,119.9h-49.83c-1.12,.09-2.1-.75-2.19-1.87-.09-1.12,.75-2.1,1.87-2.19,.11,0,.21,0,.32,0h49.83c1.12-.09,2.1,.75,2.19,1.87,.09,1.12-.75,2.1-1.87,2.19-.11,0-.21,0-.32,0Z" style="fill:#2157aa;"/><path d="M123.3,160.21H59.87c-1.12,0-2.04-.91-2.04-2.04h0v-27.95c-.09-1.12,.75-2.1,1.87-2.19,1.12-.09,2.1,.75,2.19,1.87,0,.11,0,.21,0,.32v25.87h61.41c1.12,.09,1.96,1.07,1.87,2.19-.08,1-.87,1.79-1.87,1.87v.06Z" style="fill:#2157aa;"/><path d="M67.96,152.02c-1.12,0-2.02-.91-2.02-2.02v-5.14c-.09-1.12,.75-2.1,1.87-2.19,1.12-.09,2.1,.75,2.19,1.87,0,.11,0,.21,0,.32v5.14c0,1.12-.92,2.02-2.04,2.02Z" style="fill:#2157aa;"/><path d="M77.21,152.02c-1.12,0-2.03-.9-2.04-2.02v-7.57c-.09-1.12,.75-2.1,1.87-2.19,1.12-.09,2.1,.75,2.19,1.87,0,.11,0,.21,0,.32v7.57c0,1.12-.91,2.02-2.02,2.02Z" style="fill:#2157aa;"/><path d="M86.42,152.02c-1.12,0-2.02-.91-2.02-2.02v-10c.09-1.12,1.07-1.96,2.19-1.87,1,.08,1.79,.87,1.87,1.87v10c0,1.12-.92,2.02-2.04,2.02Z" style="fill:#2157aa;"/><path d="M95.64,152.02c-1.12,0-2.03-.9-2.04-2.02v-12.5c0-1.12,.92-2.04,2.04-2.03,1.12,0,2.03,.91,2.03,2.03v12.5c0,1.12-.92,2.02-2.04,2.02Z" style="fill:#2157aa;"/><path d="M104.86,152.02c-1.12,0-2.03-.9-2.04-2.02v-14.9c-.09-1.12,.75-2.1,1.87-2.19,1.12-.09,2.1,.75,2.19,1.87,0,.11,0,.21,0,.32v14.9c0,1.12-.91,2.02-2.02,2.02Z" style="fill:#2157aa;"/><path d="M114.07,152.02c-1.12,0-2.03-.9-2.04-2.02v-17.28c0-1.12,.92-2.04,2.04-2.03,1.12,0,2.03,.91,2.03,2.03v17.33c-.03,1.1-.94,1.97-2.04,1.97Z" style="fill:#2157aa;"/><path d="M123.3,152.02c-1.12,0-2.03-.9-2.04-2.02v-19.78c-.09-1.12,.75-2.1,1.87-2.19,1.12-.09,2.1,.75,2.19,1.87,0,.11,0,.21,0,.32v19.77c0,1.12-.89,2.03-2.01,2.04h-.01Z" style="fill:#2157aa;"/><path d="M186.49,160.21h-45.59c-1.12,0-2.02-.91-2.02-2.02h0V93.19c0-1.12,.89-2.03,2.01-2.04h45.6c1.12,0,2.04,.91,2.04,2.04h0v64.98c0,1.12-.91,2.04-2.04,2.04h0Zm-43.55-4.11h41.52v-60.96h-41.52v60.96Z" style="fill:#2157aa;"/><path d="M175.65,106.91h-23.91c-1.12,0-2.04-.92-2.03-2.04,0-1.12,.91-2.03,2.03-2.03h23.91c1.12,0,2.04,.92,2.03,2.04,0,1.12-.91,2.03-2.03,2.03Z" style="fill:#2157aa;"/><path d="M171.59,117.27h-19.84c-1.12,.09-2.1-.75-2.19-1.87-.09-1.12,.75-2.1,1.87-2.19,.11,0,.21,0,.32,0h19.84c1.12,.09,1.96,1.07,1.87,2.19-.08,1-.87,1.79-1.87,1.87Z" style="fill:#2157aa;"/><path d="M175.65,127.64h-23.91c-1.12,.09-2.1-.75-2.19-1.87-.09-1.12,.75-2.1,1.87-2.19,.11,0,.21,0,.32,0h23.91c1.12-.09,2.1,.75,2.19,1.87,.09,1.12-.75,2.1-1.87,2.19-.11,0-.21,0-.32,0Z" style="fill:#2157aa;"/><path d="M171.59,138.02h-19.84c-1.12,.09-2.1-.75-2.19-1.87-.09-1.12,.75-2.1,1.87-2.19,.11,0,.21,0,.32,0h19.84c1.12,.09,1.96,1.07,1.87,2.19-.08,1-.87,1.79-1.87,1.87Z" style="fill:#2157aa;"/><path d="M175.65,148.39h-23.91c-1.12,0-2.04-.92-2.03-2.04,0-1.12,.91-2.03,2.03-2.03h23.91c1.12,0,2.04,.92,2.03,2.04,0,1.12-.91,2.03-2.03,2.03Z" style="fill:#2157aa;"/></g></svg>