<svg xmlns="http://www.w3.org/2000/svg" viewBox="0 0 160 160"> 

 

    <g> 

        <g class="illustration-shape" fill="#C8D9EE"> 

            <path class="cls-1" d="M13.34,118.72H46.22L45,114.22,22.81,32.85,16.18,32c-3.14,0-2.84,6.44-2.84,6.44v80.26Z" /> 

            <path class="cls-1" d="M48.39,122.19H15.58a14.6,14.6,0,0,1-2.9-.24c-2.61-.53-2.6-1.82-3.2-2.78A9.7,9.7,0,0,1,9,118H2a11,11,0,0,0,.75,4.18C5,127.87,11.86,128,11.86,128H147c6.95,0,9.83-3.07,11-5.81Z" /> 

            <path class="cls-1" d="M67,88.93c0,3.48,4.56,4.71,4.56,4.71s37.42,0,42-.61,4.37-2.66,4.37-2.66,1.13-27.23-.19-31.32-6.27-2.67-6.27-2.67S71.72,56.1,68,58s-1.9,8.39-1.9,8.39S67,85.45,67,88.93Z" /> 

        </g> 

    </g> 

    <g> 

        <g class="illustration-primary" fill="#2157AA"> 

            <path class="cls-2" d="M12.41,112.85a1.5,1.5,0,0,0,1.5-1.5V39.7a6,6,0,0,1,5.64-6.2H140.73a6,6,0,0,1,5.65,6.2v71.65a1.5,1.5,0,1,0,3,0V39.7a9,9,0,0,0-8.65-9.2H19.55c-4.77,0-8.64,4.13-8.64,9.2v71.65A1.5,1.5,0,0,0,12.41,112.85Z" /> 

            <path class="cls-2" d="M158,117.25H2.31a1.5,1.5,0,0,0-1.5,1.5v2.1c0,4.29,4.36,7.78,9.71,7.78H149.76c5.36,0,9.71-3.49,9.71-7.78v-2.1A1.5,1.5,0,0,0,158,117.25Zm-1.5,3.6c0,2.59-3.07,4.78-6.71,4.78H10.52c-3.64,0-6.71-2.19-6.71-4.78v-.6H67.59a1.46,1.46,0,0,0-.14.63,1.5,1.5,0,0,0,1.5,1.5H91.34a1.5,1.5,0,0,0,1.5-1.5,1.46,1.46,0,0,0-.15-.63h63.78Z" /> 

            <path class="cls-2" d="M20.7,39.2a1.5,1.5,0,0,0-1.5,1.5v70.62a1.5,1.5,0,0,0,1.5,1.5H139.79a1.5,1.5,0,0,0,1.5-1.5V40.7a1.5,1.5,0,0,0-1.5-1.5Zm117.59,70.62H22.2V42.2H138.29Z" /> 

            <path class="cls-2" d="M71.62,94.92h41.93a6.51,6.51,0,0,0,6.5-6.5V61.1a6.51,6.51,0,0,0-6.5-6.5H71.62a6.51,6.51,0,0,0-6.5,6.5V88.42A6.51,6.51,0,0,0,71.62,94.92ZM78.18,70.8c2.09,2,3.86,3.64,5.37,5L68.12,86.13v-25a1.1,1.1,0,0,1,0-.18C69.72,62.62,72.68,65.56,78.18,70.8Zm35.37,21.12H71.62a3.48,3.48,0,0,1-3.29-2.35.75.75,0,0,0,.13-.06L85.87,77.86c5.14,4.48,6,4.49,6.66,4.49.93,0,3.24-1.58,6.87-4.69l17.48,11.79A3.5,3.5,0,0,1,113.55,91.92ZM117,61s0,.08,0,.11V85.94L101.73,75.62Q107.63,70.35,117,61Zm-3.49-3.39a3.43,3.43,0,0,1,2,.64C105.78,68,95,78,92.52,79.28,89.35,77.7,73.33,62.11,69.67,58.2a3.43,3.43,0,0,1,2-.6Z" /> 

            <path class="cls-2" d="M35.07,67.36h27a1.5,1.5,0,0,0,0-3h-27a1.5,1.5,0,0,0,0,3Z" /> 

            <path class="cls-2" d="M60.18,76.26a1.5,1.5,0,0,0,0-3H48a1.5,1.5,0,0,0,0,3Z" /> 

            <path class="cls-2" d="M62.16,82.16h-21a1.5,1.5,0,0,0,0,3h21a1.5,1.5,0,0,0,0-3Z" /> 

        </g> 

    </g> 

</svg> 