<svg width="160px" height="160px" viewBox="0 0 160 160" version="1.1" 

    xmlns="http://www.w3.org/2000/svg" 

    xmlns:xlink="http://www.w3.org/1999/xlink"> 

    <!-- Generator: Sketch 58 (84663) - https://sketch.com --> 

    <title>Illustration / CTA Standard / Feature / Events and Training BGABlue</title> 

    <desc>Created with Sketch.</desc> 

    <g class="Illustration-/-CTA-Standard-/-Feature-/-Events-and-Training-BGABlue" stroke="none" stroke-width="1" fill="none" fill-rule="evenodd"> 

        <ellipse class="illustration-shape" fill="#C8D9EE" cx="80.5" cy="80" rx="67.5" ry="68"></ellipse> 

        <path d="M131.4917,138.5406 L154.5827,115.4496 L154.5827,37.0916 C154.5827,34.6016 152.5627,32.5826 150.0727,32.5826 L9.1937,32.5826 C6.7037,32.5826 4.6837,34.6016 4.6837,37.0916 L4.6837,134.0306 C4.6837,136.5216 6.7037,138.5406 9.1937,138.5406 L120.8767,138.5406" class="illustration-fill" fill="#EDEEF1" ></path> 

        <path d="M150.0508,30.9001 C150.3698,30.9001 150.6758,30.9231 150.9748,30.9621 C151.0308,30.9691 151.0838,30.9821 151.1388,30.9911 C151.3998,31.0321 151.6558,31.0821 151.8998,31.1511 C151.9158,31.1561 151.9308,31.1611 151.9468,31.1651 C157.471235,32.7855355 158.922318,41.5304663 159.251502,47.6369513 L159.2668,47.9351 L159.2668,116.4631 C159.2668,117.254183 158.978585,118.015857 158.460694,118.607164 L158.3138,118.7641 L154.5828,122.4951 L138.5368,138.5401 L134.8058,142.2721 C134.246633,142.831267 133.504286,143.166079 132.719715,143.217998 L132.5048,143.2251 L9.1938,143.2251 C4.20587018,143.2251 0.144551616,139.251289 0.0035844303,134.297407 L-0.0002,134.0311 L-0.0002,47.9351 C0.2978,41.8191 1.7048,32.8121 7.3198,31.1651 C7.3358,31.1611 7.3508,31.1561 7.3668,31.1511 C7.6108,31.0821 7.8668,31.0321 8.1278,30.9911 C8.1828,30.9821 8.2358,30.9691 8.2928,30.9621 C8.49146667,30.9361 8.69368889,30.9172111 8.90124444,30.9075074 L9.2168,30.9001 L9.2168,32.5821 L9.1938,32.5821 C6.77494286,32.5821 4.79961224,34.4873767 4.68871079,36.8797777 L4.6838,37.0921 L4.6838,134.0311 L4.68384851,134.05223 L4.6839,58.7477 L154.5818,58.7471 L154.5828,37.0921 C154.5828,34.6722714 152.67658,32.6978567 150.285041,32.5870084 L150.0728,32.5821 L150.0508,32.5821 L150.0508,30.9001 Z M141.0339,113.8047 L122.4759,113.8047 C120.212627,113.8047 118.365913,115.583771 118.256069,117.818864 L118.2509,118.0297 L118.2509,124.8367 C118.2509,127.099003 120.02903,128.946628 122.264979,129.056528 L122.4759,129.0617 L131.4919,129.0617 L131.4918,137.7431 L153.7868,115.4491 L144.3569,115.4497 C143.630312,114.514171 142.529025,113.882475 141.27147,113.811395 L141.0339,113.8047 Z M106.2999,113.8047 L87.7429,113.8047 C85.480597,113.8047 83.6329716,115.583771 83.5230717,117.818864 L83.5179,118.0297 L83.5179,124.8367 C83.5179,127.099003 85.2969707,128.946628 87.5320643,129.056528 L87.7429,129.0617 L106.2999,129.0617 C108.563173,129.0617 110.410827,127.282629 110.520728,125.047536 L110.5259,124.8367 L110.5259,118.0297 C110.5259,115.6967 108.6339,113.8047 106.2999,113.8047 Z M71.5679,113.8047 L53.0099,113.8047 C50.747597,113.8047 48.9009119,115.583771 48.791069,117.818864 L48.7859,118.0297 L48.7859,124.8367 C48.7859,127.099003 50.5640304,128.946628 52.799067,129.056528 L53.0099,129.0617 L71.5679,129.0617 C73.8311727,129.0617 75.6788275,127.282629 75.7887282,125.047536 L75.7939,124.8367 L75.7939,118.0297 C75.7939,115.6967 73.9019,113.8047 71.5679,113.8047 Z M36.8359,113.8047 L18.2779,113.8047 C16.015597,113.8047 14.1679716,115.583771 14.0580717,117.818864 L14.0529,118.0297 L14.0529,124.8367 C14.0529,127.099003 15.8319707,128.946628 18.0670643,129.056528 L18.2779,129.0617 L36.8359,129.0617 C39.098203,129.0617 40.9448881,127.282629 41.054731,125.047536 L41.0599,124.8367 L41.0599,118.0297 C41.0599,115.6967 39.1689,113.8047 36.8359,113.8047 Z M106.2999,90.9667 L87.7429,90.9667 C85.480597,90.9667 83.6329716,92.7448304 83.5230717,94.9807789 L83.5179,95.1917 L83.5179,101.9987 C83.5179,104.261003 85.2969707,106.108628 87.5320643,106.218528 L87.7429,106.2237 L106.2999,106.2237 C108.563173,106.2237 110.410827,104.444629 110.520728,102.209536 L110.5259,101.9987 L110.5259,95.1917 C110.5259,92.8577 108.6339,90.9667 106.2999,90.9667 Z M71.5679,90.9667 L53.0099,90.9667 C50.747597,90.9667 48.9009119,92.7448304 48.791069,94.9807789 L48.7859,95.1917 L48.7859,101.9987 C48.7859,104.261003 50.5640304,106.108628 52.799067,106.218528 L53.0099,106.2237 L71.5679,106.2237 C73.8311727,106.2237 75.6788275,104.444629 75.7887282,102.209536 L75.7939,101.9987 L75.7939,95.1917 C75.7939,92.8577 73.9019,90.9667 71.5679,90.9667 Z M36.8359,90.9667 L18.2779,90.9667 C16.015597,90.9667 14.1679716,92.7448304 14.0580717,94.9807789 L14.0529,95.1917 L14.0529,101.9987 C14.0529,104.261003 15.8319707,106.108628 18.0670643,106.218528 L18.2779,106.2237 L36.8359,106.2237 C39.098203,106.2237 40.9448881,104.444629 41.054731,102.209536 L41.0599,101.9987 L41.0599,95.1917 C41.0599,92.8577 39.1689,90.9667 36.8359,90.9667 Z M141.0339,90.9667 L122.4759,90.9667 C120.212627,90.9667 118.365913,92.7448304 118.256069,94.9807789 L118.2509,95.1917 L118.2509,101.9987 C118.2509,104.261003 120.02903,106.108628 122.264979,106.218528 L122.4759,106.2237 L141.0339,106.2237 C143.296203,106.2237 145.142888,104.444629 145.252731,102.209536 L145.2579,101.9987 L145.2579,95.1917 C145.2579,92.8577 143.3669,90.9667 141.0339,90.9667 Z M106.2999,68.1287 L87.7429,68.1287 C85.480597,68.1287 83.6329716,69.9068304 83.5230717,72.1427789 L83.5179,72.3537 L83.5179,79.1607 C83.5179,81.423003 85.2969707,83.2706284 87.5320643,83.3805283 L87.7429,83.3857 L106.2999,83.3857 C108.563173,83.3857 110.410827,81.6066293 110.520728,79.3715357 L110.5259,79.1607 L110.5259,72.3537 C110.5259,70.0197 108.6339,68.1287 106.2999,68.1287 Z M71.5679,68.1287 L53.0099,68.1287 C50.747597,68.1287 48.9009119,69.9068304 48.791069,72.1427789 L48.7859,72.3537 L48.7859,79.1607 C48.7859,81.423003 50.5640304,83.2706284 52.799067,83.3805283 L53.0099,83.3857 L71.5679,83.3857 C73.8311727,83.3857 75.6788275,81.6066293 75.7887282,79.3715357 L75.7939,79.1607 L75.7939,72.3537 C75.7939,70.0197 73.9019,68.1287 71.5679,68.1287 Z M36.8359,68.1287 L18.2779,68.1287 C16.015597,68.1287 14.1679716,69.9068304 14.0580717,72.1427789 L14.0529,72.3537 L14.0529,79.1607 C14.0529,81.423003 15.8319707,83.2706284 18.0670643,83.3805283 L18.2779,83.3857 L36.8359,83.3857 C39.098203,83.3857 40.9448881,81.6066293 41.054731,79.3715357 L41.0599,79.1607 L41.0599,72.3537 C41.0599,70.0197 39.1689,68.1287 36.8359,68.1287 Z M141.0339,68.1287 L122.4759,68.1287 C120.212627,68.1287 118.365913,69.9068304 118.256069,72.1427789 L118.2509,72.3537 L118.2509,79.1607 C118.2509,81.423003 120.02903,83.2706284 122.264979,83.3805283 L122.4759,83.3857 L141.0339,83.3857 C143.296203,83.3857 145.142888,81.6066293 145.252731,79.3715357 L145.2579,79.1607 L145.2579,72.3537 C145.2579,70.0197 143.3669,68.1287 141.0339,68.1287 Z M22.0572,40.4171 C24.9542,40.4171 27.3042,42.7671 27.3042,45.6651 C27.3042,48.5631 24.9542,50.9131 22.0572,50.9131 C19.1582,50.9131 16.8092,48.5631 16.8092,45.6651 C16.8092,42.7671 19.1582,40.4171 22.0572,40.4171 Z M50.8453,40.4171 C53.7433,40.4171 56.0923,42.7671 56.0923,45.6651 C56.0923,48.5631 53.7433,50.9131 50.8453,50.9131 C47.9463,50.9131 45.5973,48.5631 45.5973,45.6651 C45.5973,42.7671 47.9463,40.4171 50.8453,40.4171 Z M79.6333,40.4171 C82.5313,40.4171 84.8813,42.7671 84.8813,45.6651 C84.8813,48.5631 82.5313,50.9131 79.6333,50.9131 C76.7353,50.9131 74.3853,48.5631 74.3853,45.6651 C74.3853,42.7671 76.7353,40.4171 79.6333,40.4171 Z M108.4214,40.4171 C111.3194,40.4171 113.6694,42.7671 113.6694,45.6651 C113.6694,48.5631 111.3194,50.9131 108.4214,50.9131 C105.5234,50.9131 103.1744,48.5631 103.1744,45.6651 C103.1744,42.7671 105.5234,40.4171 108.4214,40.4171 Z M137.2095,40.4171 C140.1075,40.4171 142.4575,42.7671 142.4575,45.6651 C142.4575,48.5631 140.1075,50.9131 137.2095,50.9131 C134.3115,50.9131 131.9625,48.5631 131.9625,45.6651 C131.9625,42.7671 134.3115,40.4171 137.2095,40.4171 Z" class="illustration-secondary" fill="#B3CBE8" ></path> 

        <path d="M137.2095,27.3761 C137.989196,27.3761 138.629949,27.9709881 138.702633,28.73164 L138.7095,28.8761 L138.7091,31.0824702 L150.0731,31.0826 C153.316108,31.0826 155.959477,33.6522639 156.077955,36.8663407 L156.0821,37.0916 L156.0821,115.4496 C156.0821,115.969107 155.818,116.426931 155.416736,116.696135 L132.551435,139.559247 C131.609892,140.50079 130,139.833951 130,138.502408 L130,115.494596 C130,114.669153 130.669153,114 131.494596,114 L153.0821,113.99947 L153.0821,37.0916 C153.0821,35.489369 151.829199,34.1792455 150.249877,34.0877089 L150.0731,34.0826 L138.7091,34.0824702 L138.7095,45.6651 C138.7095,46.4447961 138.114612,47.0855487 137.35396,47.1582334 L137.2095,47.1651 C136.429804,47.1651 135.789051,46.5702119 135.716367,45.80956 L135.7095,45.6651 L135.7091,34.0824702 L109.9211,34.0824702 L109.9214,45.6651 C109.9214,46.4447961 109.326512,47.0855487 108.56586,47.1582334 L108.4214,47.1651 C107.641704,47.1651 107.000951,46.5702119 106.928267,45.80956 L106.9214,45.6651 L106.9211,34.0824702 L81.1331,34.0824702 L81.1333,45.6651 C81.1333,46.4447961 80.5384119,47.0855487 79.77776,47.1582334 L79.6333,47.1651 C78.8536039,47.1651 78.2128513,46.5702119 78.1401666,45.80956 L78.1333,45.6651 L78.1331,34.0824702 L52.3451,34.0824702 L52.3452,45.6651 C52.3452,46.4447961 51.7503119,47.0855487 50.98966,47.1582334 L50.8452,47.1651 C50.0655039,47.1651 49.4247513,46.5702119 49.3520666,45.80956 L49.3452,45.6651 L49.3451,34.0824702 L23.5571,34.0824702 L23.5571,45.6651 C23.5571,46.4447961 22.9622119,47.0855487 22.20156,47.1582334 L22.0571,47.1651 C21.2774039,47.1651 20.6366513,46.5702119 20.5639666,45.80956 L20.5571,45.6651 L20.5571,34.0824702 L9.1941,34.0826 C7.59158594,34.0826 6.28079542,35.3357739 6.18921155,36.9148527 L6.1841,37.0916 L6.1841,134.0306 C6.1841,135.633413 7.43756187,136.943926 9.01728023,137.03549 L9.1941,137.0406 L124.9331,137.0406 C125.761527,137.0406 126.4331,137.712173 126.4331,138.5406 C126.4331,139.320296 125.838212,139.961049 125.07756,140.033733 L124.9331,140.0406 L9.1941,140.0406 C5.95080439,140.0406 3.30675495,137.470655 3.18824614,134.255907 L3.1841,134.0306 L3.1841,37.0916 C3.1841,33.8486775 5.754635,31.205227 8.96883349,31.0867452 L9.1941,31.0826 L20.5571,31.0824702 L20.5571,28.8761 C20.5571,28.0964039 21.1519881,27.4556513 21.91264,27.3829666 L22.0571,27.3761 C22.8367961,27.3761 23.4775487,27.9709881 23.5502334,28.73164 L23.5571,28.8761 L23.5571,31.0824702 L49.3451,31.0824702 L49.3452,28.8761 C49.3452,28.0964039 49.9400881,27.4556513 50.70074,27.3829666 L50.8452,27.3761 C51.6248961,27.3761 52.2656487,27.9709881 52.3383334,28.73164 L52.3452,28.8761 L52.3451,31.0824702 L78.1331,31.0824702 L78.1333,28.8761 C78.1333,28.0964039 78.7281881,27.4556513 79.48884,27.3829666 L79.6333,27.3761 C80.4129961,27.3761 81.0537487,27.9709881 81.1264334,28.73164 L81.1333,28.8761 L81.1331,31.0824702 L106.9211,31.0824702 L106.9214,28.8761 C106.9214,28.0964039 107.516288,27.4556513 108.27694,27.3829666 L108.4214,27.3761 C109.201096,27.3761 109.841849,27.9709881 109.914533,28.73164 L109.9214,28.8761 L109.9211,31.0824702 L135.7091,31.0824702 L135.7095,28.8761 C135.7095,28.1451349 136.232351,27.5362881 136.924465,27.4031472 L137.06504,27.3829666 L137.2095,27.3761 Z M151,117 L133,117 L133,135 L151,117 Z M69.5238718,89.2392079 C70.1096759,88.6534391 71.0594234,88.6534677 71.6451921,89.2392718 C72.2309609,89.8250759 72.2309323,90.7748234 71.6451282,91.3605921 L71.6451282,91.3605921 L64.4111,98.5944702 L71.6453282,105.829208 C72.2311323,106.414977 72.2311609,107.364724 71.6453921,107.950528 C71.0962339,108.49972 70.2271725,108.534069 69.6379973,108.053559 L69.5240718,107.950592 L62.2891,100.71647 L55.0541282,107.950592 C54.5049369,108.49975 53.6358734,108.534048 53.0467272,108.053502 L52.9328079,107.950528 C52.3470391,107.364724 52.3470677,106.414977 52.9328718,105.829208 L52.9328718,105.829208 L60.1661,98.5944702 L52.9330718,91.3605921 C52.3472677,90.7748234 52.3472391,89.8250759 52.9330079,89.2392718 C53.4821661,88.6900805 54.3512275,88.6557308 54.9404027,89.136241 L55.0543282,89.2392079 L62.2891,96.4724702 Z M141.10996,66.4013398 C141.659135,66.9505146 141.693458,67.819577 141.21293,68.4087378 L141.10996,68.5226602 L133.8761,75.7564702 L141.11016,82.9913398 C141.695947,83.5771263 141.695947,84.5268737 141.11016,85.1126602 C140.560985,85.661835 139.691923,85.6961584 139.102762,85.2156304 L138.98884,85.1126602 L131.7541,77.8784702 L124.51996,85.1126602 C123.970785,85.661835 123.101723,85.6961584 122.512562,85.2156304 L122.39864,85.1126602 C121.849465,84.5634854 121.815142,83.694423 122.29567,83.1052622 L122.39864,82.9913398 L129.6321,75.7564702 L122.39884,68.5226602 C121.813053,67.9368737 121.813053,66.9871263 122.39884,66.4013398 C122.948015,65.852165 123.817077,65.8178416 124.406238,66.2983696 L124.52016,66.4013398 L131.7541,73.6344702 L138.98864,66.4013398 C139.574426,65.8155534 140.524174,65.8155534 141.10996,66.4013398 Z M148.9612,57.2481 C149.789627,57.2481 150.4612,57.9196729 150.4612,58.7481 C150.4612,59.5277961 149.866312,60.1685487 149.10566,60.2412334 L148.9612,60.2481 L10.3052,60.2481 C9.47677288,60.2481 8.8052,59.5765271 8.8052,58.7481 C8.8052,57.9684039 9.40008808,57.3276513 10.16074,57.2549666 L10.3052,57.2481 L148.9612,57.2481 Z M83.4157851,17.7000886 L83.5746276,17.8785219 L90.6996276,26.2385219 C91.2369886,26.8690254 91.1614816,27.8157667 90.5309781,28.3531276 C89.939881,28.8569035 89.0708407,28.822026 88.5217478,28.2961795 L88.4163724,28.1844781 L81.2912049,19.8242815 C80.357526,18.7283828 78.6712473,18.7256396 77.7387759,19.8174765 C77.5833954,19.9994669 77.434321,20.1738958 77.2897474,20.3428534 L77.076037,20.5924477 L75.2330416,22.7281469 L71.9008677,26.5444929 C71.516151,26.9868034 71.2334399,27.3149318 71.0362326,27.5477765 L70.9569019,27.6417885 L70.7234915,27.9270506 L70.5909284,28.117078 L70.5000664,28.2262231 C70.0239406,28.7458891 69.2313864,28.8720844 68.6088539,28.4889875 C67.903317,28.054811 67.683336,27.1308907 68.1175125,26.4253539 C68.1943537,26.3004869 68.7278207,25.6648377 69.4818126,24.7838135 L69.6257127,24.6158108 L75.4573676,17.8693554 C77.5374774,15.4337409 81.2581423,15.3803058 83.4157851,17.7000886 Z" class="illustration-primary" fill="#2157AA"></path> 

    </g> 

</svg> 