<svg width="160px" height="160px" viewBox="0 0 160 160" version="1.1" 

    xmlns="http://www.w3.org/2000/svg" 

    xmlns:xlink="http://www.w3.org/1999/xlink"> 

    <!-- Generator: Sketch 58 (84663) - https://sketch.com --> 

    <title>Illustration / CTA Standard / Feature / Grants and assistance BGABlue</title> 

    <desc>Created with Sketch.</desc> 

    <g class="Illustration-/-CTA-Standard-/-Feature-/-Grants-and-assistance-BGABlue" stroke="none" stroke-width="1" fill="none" fill-rule="evenodd"> 

        <ellipse class="illustration-shape" fill="#C8D9EE" cx="80.5" cy="80" rx="67.5" ry="68"></ellipse> 

        <path d="M79.3755,140.2331 C81.7105,140.2331 83.6035,142.1271 83.6035,144.4611 C83.6035,146.7961 81.7105,148.6891 79.3755,148.6891 C77.0415,148.6891 75.1485,146.7961 75.1485,144.4611 C75.1485,142.1271 77.0415,140.2331 79.3755,140.2331 Z M150.773,22.616 L150.773,122.665 L8.329,122.665 L8.329,22.616 L150.773,22.616 Z M7.058,11.4997 L152.045,11.4997 C155.114,11.4997 157.603,13.9877 157.603,17.0577 C157.603,20.0536286 155.231113,22.4968474 152.263202,22.6114928 L152.045,22.6157 L7.058,22.6157 C3.988,22.6157 1.5,20.1267 1.5,17.0577 C1.5,14.0607952 3.87093424,11.6185061 6.83972981,11.5039056 L7.058,11.4997 L152.045,11.4997 Z" class="illustration-fill" fill="#EDEEF1" ></path> 

        <path d="M153.9961,122.6648 C155.9871,122.6648 157.6021,124.2798 157.6021,126.2718 C157.6021,128.199542 156.089613,129.773278 154.187562,129.872803 L153.9961,129.8778 L5.1061,129.8778 C3.1151,129.8778 1.5001,128.2638 1.5001,126.2718 C1.5001,124.344058 3.01258699,122.769386 4.91463795,122.6698 L5.1061,122.6648 L153.9961,122.6648 Z M150.773,116.716 L150.773,122.207 L8.329,122.207 L8.329,116.716 L150.773,116.716 Z M98.3164,86.0546 C98.7444,86.0546 99.0644,86.1436 99.2684,86.3176 C99.4714,86.4886 99.5894,86.6716 99.6194,86.8606 C99.6469,87.0397667 99.6632889,87.2939333 99.667988,87.6184704 L99.6694,87.8216 L99.6694,89.2706 C99.6694,89.3396 99.7174,89.4006 99.7864,89.4146 C100.2534,89.5146 100.6864,89.6586 101.0734,89.8436 C101.402543,90.0004571 101.647196,90.1338041 101.798543,90.2367137 L101.8664,90.2856 L102.1104,90.5036 L102.2014,90.5676 C102.6964,91.0266 102.8004,91.2966 102.8004,91.4436 C102.8004,91.5996 102.6994,91.9366 102.2174,92.6566 C101.8434,93.2136 101.4364,93.4966 101.0074,93.4966 C100.7254,93.4966 100.4964,93.4296 100.3024,93.2906 C100.1084,93.1516 99.9374,93.0206 99.8084,92.9106 C99.6834,92.8036 99.5664,92.7136 99.4574,92.6396 C99.1404,92.4356 98.7394,92.3326 98.2644,92.3326 C97.7854,92.3326 97.3814,92.4506 97.0644,92.6846 C96.7324,92.9276 96.5644,93.2676 96.5644,93.6946 C96.5644,94.1256 96.7654,94.4756 97.1624,94.7376 C97.5334,94.9816 97.9924,95.1456 98.5274,95.2256 C99.0414,95.3026 99.6084,95.4316 100.2154,95.6086 C100.8204,95.7856 101.3874,95.9956 101.9024,96.2346 C102.3884,96.4626 102.8064,96.8736 103.1434,97.4576 C103.4824,98.0426 103.6544,98.7876 103.6544,99.6726 C103.6544,100.9726 103.2764,102.0266 102.5304,102.8046 C101.7784,103.5906 100.8544,104.1166 99.7834,104.3676 C99.73315,104.3796 99.69415,104.415788 99.6777906,104.462241 L99.6694,104.5116 L99.6694,106.1666 C99.6694,106.7476 99.6174,107.1526 99.5154,107.3716 C99.4194,107.5806 99.2834,107.7176 99.1024,107.7896 C98.9074,107.8686 98.6344,107.9076 98.2914,107.9076 C97.9474,107.9076 97.6734,107.8686 97.4784,107.7896 C97.3004,107.7196 97.1794,107.5946 97.1074,107.4056 C97.008525,107.164975 96.9517594,106.809506 96.9391129,106.345893 L96.9364,106.1406 L96.9364,104.5366 C96.9364,104.4676 96.8884,104.4076 96.8214,104.3926 C96.1314,104.2406 95.5034,103.9866 94.9544,103.6376 C94.4679,103.3261 94.1092594,103.048288 93.887857,102.812202 L93.8014,102.7136 L93.4644,102.2736 C93.1244,101.8366 92.9524,101.4576 92.9524,101.1466 C92.9524,100.9406 93.0964,100.5526 93.7864,99.8826 C94.1064,99.5796 94.4324,99.4326 94.7844,99.4326 C95.0214,99.4326 95.4764,99.6046 96.2874,100.4116 C96.8474,101.1006 97.4954,101.4496 98.2134,101.4496 C99.9174,101.4496 100.2744,100.5116 100.2744,99.7246 C100.2744,99.2816 100.0014,98.9406 99.4614,98.7096 C98.9764,98.5006 98.3934,98.3166 97.6774,98.1456 C97.0014,97.9846 96.3114,97.7646 95.6284,97.4906 C94.9664,97.2266 94.3964,96.7646 93.9334,96.1186 C93.4714,95.4756 93.2374,94.6436 93.2374,93.6436 C93.2374,92.6476 93.5574,91.7376 94.1884,90.9416 C94.8184,90.1456 95.7044,89.6236 96.8204,89.3896 C96.87065,89.3791 96.910775,89.3421625 96.9276969,89.2952406 L96.9364,89.2456 L96.9364,87.7966 C96.9364,87.2316 96.9854,86.8236 97.0824,86.5856 C97.2274,86.2336 97.6424,86.0546 98.3164,86.0546 Z M112.539,86.0546 C112.967,86.0546 113.287,86.1436 113.491,86.3176 C113.695,86.4886 113.813,86.6716 113.843,86.8606 C113.8705,87.0397667 113.886889,87.2939333 113.891588,87.6184704 L113.893,87.8216 L113.893,89.2706 C113.893,89.3396 113.94,89.4006 114.009,89.4146 C114.476,89.5146 114.909,89.6586 115.296,89.8436 C115.625143,90.0004571 115.869796,90.1338041 116.021143,90.2367137 L116.089,90.2856 L116.334,90.5036 L116.425,90.5676 C116.92,91.0266 117.023,91.2966 117.023,91.4436 C117.023,91.5996 116.923,91.9366 116.441,92.6566 C116.067,93.2136 115.66,93.4966 115.23,93.4966 C114.953,93.4966 114.716,93.4276 114.526,93.2906 C114.332,93.1516 114.161,93.0206 114.032,92.9106 C113.907,92.8036 113.79,92.7136 113.681,92.6396 C113.364,92.4356 112.963,92.3326 112.487,92.3326 C112.009,92.3326 111.604,92.4506 111.288,92.6846 C110.956,92.9276 110.787,93.2676 110.787,93.6946 C110.787,94.1256 110.988,94.4756 111.385,94.7376 C111.756,94.9816 112.216,95.1456 112.75,95.2256 C113.264,95.3026 113.831,95.4316 114.438,95.6086 C115.043,95.7856 115.611,95.9956 116.125,96.2346 C116.612,96.4626 117.029,96.8736 117.366,97.4576 C117.705,98.0426 117.877,98.7876 117.877,99.6726 C117.877,100.9726 117.499,102.0266 116.754,102.8046 C116.002,103.5906 115.077,104.1166 114.006,104.3676 C113.95575,104.3796 113.917313,104.415788 113.901234,104.462241 L113.893,104.5116 L113.893,106.1666 C113.893,106.7476 113.841,107.1526 113.738,107.3716 C113.642,107.5806 113.507,107.7176 113.326,107.7896 C113.131,107.8686 112.857,107.9076 112.514,107.9076 C112.17,107.9076 111.896,107.8686 111.701,107.7896 C111.524,107.7196 111.403,107.5946 111.33,107.4056 C111.231125,107.164975 111.175125,106.809506 111.16267,106.345893 L111.16,106.1406 L111.16,104.5366 C111.16,104.4676 111.112,104.4076 111.044,104.3926 C110.354,104.2406 109.726,103.9866 109.177,103.6376 C108.6905,103.3261 108.331859,103.048288 108.110457,102.812202 L108.024,102.7136 L107.687,102.2736 C107.348,101.8366 107.175,101.4576 107.175,101.1466 C107.175,100.9406 107.32,100.5526 108.009,99.8826 C108.33,99.5796 108.656,99.4326 109.007,99.4326 C109.244,99.4326 109.7,99.6046 110.51,100.4116 C111.07,101.1006 111.719,101.4496 112.437,101.4496 C114.14,101.4496 114.497,100.5116 114.497,99.7246 C114.497,99.2816 114.224,98.9406 113.685,98.7096 C113.2,98.5006 112.616,98.3166 111.9,98.1456 C111.225,97.9846 110.535,97.7646 109.852,97.4906 C109.189,97.2266 108.619,96.7646 108.157,96.1186 C107.694,95.4756 107.46,94.6436 107.46,93.6436 C107.46,92.6476 107.78,91.7376 108.412,90.9416 C109.042,90.1456 109.927,89.6236 111.043,89.3896 C111.094,89.3791 111.134313,89.3421625 111.151281,89.2952406 L111.16,89.2456 L111.16,87.7966 C111.16,87.2316 111.209,86.8236 111.305,86.5856 C111.45,86.2336 111.865,86.0546 112.539,86.0546 Z M126.7629,86.0547 C127.1909,86.0547 127.5109,86.1437 127.7149,86.3167 C127.9179,86.4887 128.0359,86.6717 128.0659,86.8607 C128.0989,87.0757 128.1149,87.3987 128.1149,87.8217 L128.1149,87.8217 L128.1149,89.2707 C128.1149,89.3397 128.1639,89.3997 128.2329,89.4147 C128.6989,89.5147 129.1319,89.6587 129.5199,89.8437 C129.9029,90.0267 130.1729,90.1777 130.3129,90.2857 L130.3129,90.2857 L130.5569,90.5037 L130.6479,90.5677 C131.1429,91.0257 131.2459,91.2967 131.2459,91.4437 C131.2459,91.5997 131.1459,91.9367 130.6639,92.6567 C130.2899,93.2137 129.8829,93.4967 129.4529,93.4967 C129.1759,93.4967 128.9399,93.4277 128.7489,93.2907 C128.5549,93.1517 128.3839,93.0207 128.2549,92.9107 C128.1279,92.8027 128.0139,92.7147 127.9029,92.6397 C127.5869,92.4357 127.1859,92.3327 126.7109,92.3327 C126.2319,92.3327 125.8279,92.4507 125.5109,92.6847 C125.1789,92.9277 125.0109,93.2677 125.0109,93.6947 C125.0109,94.1247 125.2109,94.4757 125.6079,94.7377 C125.9799,94.9807 126.4389,95.1447 126.9729,95.2257 C127.4859,95.3027 128.0549,95.4317 128.6609,95.6087 C129.2669,95.7857 129.8339,95.9957 130.3479,96.2347 C130.8349,96.4617 131.2529,96.8737 131.5899,97.4577 L131.5899,97.4577 L131.696708,97.6585985 C131.964999,98.209984 132.1009,98.8860333 132.1009,99.6727 C132.1009,100.9727 131.7229,102.0267 130.9769,102.8047 C130.2249,103.5907 129.2999,104.1167 128.2299,104.3677 C128.1619,104.3837 128.1149,104.4427 128.1149,104.5117 L128.1149,104.5117 L128.1149,106.1657 C128.1149,106.7477 128.0639,107.1527 127.9619,107.3717 C127.8639,107.5807 127.7299,107.7177 127.5489,107.7897 C127.3539,107.8687 127.0799,107.9077 126.7369,107.9077 C126.3929,107.9077 126.1199,107.8687 125.9239,107.7897 C125.7469,107.7197 125.6259,107.5947 125.5529,107.4057 C125.4409,107.1307 125.3829,106.7057 125.3829,106.1407 L125.3829,106.1407 L125.3829,104.5367 C125.3829,104.4677 125.3349,104.4077 125.2679,104.3927 C124.5769,104.2407 123.9489,103.9867 123.4009,103.6377 C122.8439,103.2817 122.4549,102.9697 122.2479,102.7137 L122.2479,102.7137 L121.9099,102.2727 C121.5699,101.8367 121.3989,101.4577 121.3989,101.1457 C121.3989,100.9397 121.5429,100.5527 122.2329,99.8827 C122.5529,99.5797 122.8789,99.4327 123.2309,99.4327 C123.4679,99.4327 123.9229,99.6037 124.7339,100.4117 C125.2939,101.1007 125.9419,101.4497 126.6589,101.4497 C128.3629,101.4497 128.7209,100.5117 128.7209,99.7247 C128.7209,99.2817 128.4459,98.9397 127.9069,98.7097 C127.4229,98.5007 126.8399,98.3157 126.1239,98.1457 C125.4469,97.9847 124.7579,97.7647 124.0739,97.4907 C123.4119,97.2267 122.8419,96.7647 122.3799,96.1187 C121.9179,95.4757 121.6839,94.6437 121.6839,93.6437 C121.6839,92.6467 122.0039,91.7377 122.6349,90.9407 C123.2649,90.1457 124.1509,89.6237 125.2659,89.3897 C125.3339,89.3747 125.3829,89.3147 125.3829,89.2457 L125.3829,89.2457 L125.3829,87.7967 C125.3829,87.2307 125.4319,86.8237 125.5279,86.5847 C125.6729,86.2337 126.0889,86.0547 126.7629,86.0547 Z M112.5264,36.1115 L112.5264,55.6295 L126.3274,69.4295 C122.7954,72.9625 117.9164,75.1465 112.5264,75.1465 C101.7474,75.1465 93.0084,66.4085 93.0084,55.6295 C93.0084,44.8495 101.7474,36.1115 112.5264,36.1115 Z M157.603,17.0578 C157.603,20.0537286 155.231113,22.4969474 152.263202,22.6115928 L152.045,22.6158 L150.773,22.616 L150.773,28.107 L8.329,28.107 L8.329,22.616 L7.058,22.6158 C4.06109524,22.6158 1.61880612,20.2439128 1.50420557,17.2760021 L1.5,17.0578 L157.603,17.0578 Z" class="illustration-secondary" fill="#B3CBE8" ></path> 

        <path d="M79.5518,134.3781 C80.3314961,134.3781 80.9722487,134.972988 81.0449334,135.73364 L81.0518,135.8781 L81.0512927,138.982234 C83.3970079,139.699061 85.1035,141.881333 85.1035,144.4611 C85.1035,147.624527 82.5389271,150.1891 79.3755,150.1891 C76.2128634,150.1891 73.6485,147.624318 73.6485,144.4611 C73.6485,141.754293 75.5272977,139.484844 78.0515818,138.887015 L78.0518,135.8781 C78.0518,135.049673 78.7233729,134.3781 79.5518,134.3781 Z M79.3755,141.7331 C77.8702275,141.7331 76.6485,142.955227 76.6485,144.4611 C76.6485,145.967573 77.8698274,147.1891 79.3755,147.1891 C80.8820729,147.1891 82.1035,145.967673 82.1035,144.4611 C82.1035,142.955127 80.8816727,141.7331 79.3755,141.7331 Z M153.9961,121.1648 C156.815746,121.1648 159.1021,123.451592 159.1021,126.2718 C159.1021,129.019635 156.931551,131.260225 154.211919,131.373321 L153.9961,131.3778 L5.1061,131.3778 C2.28639179,131.3778 0.000100000002,129.091946 0.000100000002,126.2718 C0.000100000002,123.523905 2.1707082,121.282422 4.89028556,121.169281 L5.1061,121.1648 L153.9961,121.1648 Z M153.9961,124.1648 L5.1061,124.1648 C3.94343681,124.1648 3.0001,125.108317 3.0001,126.2718 C3.0001,127.384391 3.86289854,128.295398 4.95571349,128.372512 L5.1061,128.3778 L153.9961,128.3778 C155.159083,128.3778 156.1021,127.434963 156.1021,126.2718 C156.1021,125.108317 155.158763,124.1648 153.9961,124.1648 Z M8.3291,27.1158 C9.10879612,27.1158 9.74954868,27.7106881 9.82223342,28.47134 L9.8291,28.6158 L9.8291,116.6648 C9.8291,117.493227 9.15752712,118.1648 8.3291,118.1648 C7.54940388,118.1648 6.90865132,117.569912 6.83596658,116.80926 L6.8291,116.6648 L6.8291,28.6158 C6.8291,27.7873729 7.50067288,27.1158 8.3291,27.1158 Z M150.7735,27.1154 C151.553196,27.1154 152.193949,27.7102881 152.266633,28.47094 L152.2735,28.6154 L152.2735,116.6644 C152.2735,117.492827 151.601927,118.1644 150.7735,118.1644 C149.993804,118.1644 149.353051,117.569512 149.280367,116.80886 L149.2735,116.6644 L149.2735,28.6154 C149.2735,27.7869729 149.945073,27.1154 150.7735,27.1154 Z M35.248,86.275 C36.0276961,86.275 36.6684487,86.8698881 36.7411334,87.63054 L36.748,87.775 L36.748,106.189 C36.748,106.968696 36.1531119,107.609449 35.39246,107.682133 L35.248,107.689 L26.104,107.689 C25.3243039,107.689 24.6835513,107.094112 24.6108666,106.33346 L24.604,106.189 L24.604,87.775 C24.604,86.9953039 25.1988881,86.3545513 25.95954,86.2818666 L26.104,86.275 L35.248,86.275 Z M54.61,73.592 C55.3896961,73.592 56.0304487,74.1868881 56.1031334,74.94754 L56.11,75.092 L56.11,106.189 C56.11,106.968696 55.5151119,107.609449 54.75446,107.682133 L54.61,107.689 L45.467,107.689 C44.6873039,107.689 44.0465513,107.094112 43.9738666,106.33346 L43.967,106.189 L43.967,75.092 C43.967,74.3123039 44.5618881,73.6715513 45.32254,73.5988666 L45.467,73.592 L54.61,73.592 Z M73.973,57.006 C74.7526961,57.006 75.3934487,57.6008881 75.4661334,58.36154 L75.473,58.506 L75.473,106.189 C75.473,106.968696 74.8781119,107.609449 74.11746,107.682133 L73.973,107.689 L64.83,107.689 C64.0503039,107.689 63.4095513,107.094112 63.3368666,106.33346 L63.33,106.189 L63.33,58.506 C63.33,57.7263039 63.9248881,57.0855513 64.68554,57.0128666 L64.83,57.006 L73.973,57.006 Z M33.748,89.275 L27.604,89.275 L27.604,104.689 L33.748,104.689 L33.748,89.275 Z M53.11,76.592 L46.967,76.592 L46.967,104.689 L53.11,104.689 L53.11,76.592 Z M72.473,60.006 L66.33,60.006 L66.33,104.689 L72.473,104.689 L72.473,60.006 Z M73.9725,40.6955 L69.1265,52.1775 L66.443,48.6307 L27.1806888,78.3359887 C26.3942968,78.9309589 25.2744815,78.7757808 24.6795113,77.9893888 C24.117595,77.2466852 24.2247924,76.2065763 24.9009108,75.5920855 L25.0261112,75.4882113 L64.288,45.7827 L61.6055,42.2375 L73.9725,40.6955 Z M112.526,34.6111 C124.134094,34.6111 133.544,44.0213394 133.544,55.6291 C133.544,67.2368606 124.134094,76.6471 112.526,76.6471 C100.91874,76.6471 91.509,67.2366941 91.509,55.6291 C91.509,44.0215059 100.91874,34.6111 112.526,34.6111 Z M111.026291,37.6726353 C101.777585,38.4348461 94.509,46.1833594 94.509,55.6291 C94.509,65.5798874 102.575642,73.6471 112.526,73.6471 C116.96152,73.6471 121.022657,72.0443982 124.161941,69.386539 L111.46574,56.6901602 C111.219598,56.4440187 111.067835,56.1211414 111.03374,55.7777566 L111.0264,55.6295 L111.026291,37.6726353 Z M114.026266,37.6726699 L114.0264,55.0081797 L126.283435,67.2650401 C128.941315,64.1257162 130.544,60.064548 130.544,55.6291 C130.544,46.1833709 123.275512,38.4350735 114.026266,37.6726699 Z M152.045,9.9997 C155.942731,9.9997 159.103,13.1595765 159.103,17.0577 C159.103,20.8755878 156.070114,23.9863901 152.282677,24.1117715 L152.045,24.1157 L7.058,24.1157 C3.15987649,24.1157 2.78532752e-12,20.9554308 2.78532752e-12,17.0577 C2.78532752e-12,13.2388326 3.03192666,10.1289699 6.82026455,10.0036272 L7.058,9.9997 L152.045,9.9997 Z M152.045,12.9997 L7.058,12.9997 C4.81642712,12.9997 3,14.8161271 3,17.0577 C3,19.2307521 4.70837259,21.0051871 6.85546365,21.1107331 L7.058,21.1157 L152.045,21.1157 C154.285573,21.1157 156.103,19.2982729 156.103,17.0577 C156.103,14.8165142 154.28596,12.9997 152.045,12.9997 Z" class="illustration-primary" fill="#2157AA"></path> 

    </g> 

</svg> 