<?xml version="1.0" encoding="UTF-8"?><svg id="a" xmlns="http://www.w3.org/2000/svg" width="220" height="220" viewBox="0 0 220 220"><g id="b"><path d="M58.6,16.68s-13.3-.22-14,0c-1.93,1.38-3.78,2.86-5.55,4.43l-1.06,8.39,1.1,28.82v.22h-5.32v21.06h5.13l-.43,46.11h-5.14v21.79h4.94l-.28,31.26,2.43,6.87,5.33,3.33h23.27l13.53-.67L58.6,16.68Zm-11.51,41.9h14.59v21.06h-14.59v-21.06Zm15.06,88.92h-15.3v-21.75h15.3v21.75Z" style="fill:#b3cbe8;"/><path d="M119.79,84.5c6.76-1.44,13-9.47,11.66-6.7-5.07,10.53-17.73,14.96-28.26,9.89-10.53-5.07-14.96-17.73-9.89-28.26,1.99-4.14,5.28-7.52,9.37-9.63-6.16,7.85-7.15,10.85-7.15,17.83,.17,6.3,3.67,12.04,9.2,15.07,5.34,2.8,8.31,3.26,15.07,1.8Z" style="fill:#b3cbe8;"/><path d="M144.4,132.18c0,17.51-14.2,31.7-31.71,31.69-17.51,0-31.7-14.2-31.69-31.71,0-15.55,11.29-28.8,26.64-31.29-18,3.92-22.43,25.09-22.66,30,3.11,25.39,24.72,28.49,33.59,28.27,3.88,.35,22.61-9.45,25.83-26.97Z" style="fill:#b3cbe8;"/><path d="M124.64,111.44c-4.52-3.45-10.1-2.39-17.8-1s-9.24,7.73-9.24,7.73l.38,.38c7.63-8.07,20.36-8.43,28.43-.8,7.65,7.23,8.43,19.14,1.78,27.31,.68,.33,1.17,.44,1.4,.27,2.48-1.86,6.41-8.87,6.34-17.19s-6.77-13.25-11.29-16.7Z" style="fill:#b3cbe8;"/><path d="M185.15,205l-6-9.08c-.35-.54-1.06,5.87-1.06,5.87h-18.94s-2.89-6.34-3.44-6.34H72.13c-.52,0-3,5.79-3,5.79l-18.73,.11s-.9-5.78-1.26-5.26l-6.21,8.87c-.3,.41-.32,.96-.05,1.39,.28,.45,.78,.72,1.31,.71H183.85c.53,0,1.02-.25,1.31-.69,.27-.42,.26-.96-.01-1.37Z" style="fill:#b3cbe8;"/></g><g id="c"><path d="M50.51,119.5c-.83,0-1.5-.67-1.5-1.5v-30.16c0-.83,.67-1.5,1.5-1.5s1.5,.67,1.5,1.5v30.15c0,.83-.66,1.5-1.49,1.51h-.01Z" style="fill:#2147aa;"/><path d="M168.21,178.8H60.51c-6.35,0-11.49-5.15-11.5-11.5v-11.62c0-.83,.67-1.5,1.5-1.5s1.5,.67,1.5,1.5v11.62c0,4.69,3.81,8.49,8.5,8.5h107.7c4.69-.01,8.49-3.81,8.5-8.5V38.76c-.01-4.69-3.81-8.49-8.5-8.5H60.51c-4.69,0-8.49,3.81-8.5,8.5v12.74c0,.83-.67,1.5-1.5,1.5s-1.5-.67-1.5-1.5v-12.74c0-6.35,5.15-11.49,11.5-11.5h107.7c6.35,0,11.49,5.15,11.5,11.5V167.3c0,6.35-5.15,11.49-11.5,11.5Z" style="fill:#2147aa;"/><path d="M38.32,119.5c-.83,0-1.5-.67-1.5-1.5v-30.38c0-.83,.67-1.5,1.5-1.5s1.5,.67,1.5,1.5h0v30.37c0,.83-.66,1.5-1.49,1.51h-.01Z" style="fill:#2147aa;"/><path d="M180.29,190.99H48.21c-6.35,0-11.49-5.15-11.5-11.5v-23.81c0-.83,.67-1.5,1.5-1.5s1.5,.67,1.5,1.5v23.82c0,4.69,3.81,8.49,8.5,8.5H180.29c4.69,0,8.49-3.81,8.5-8.5V26.57c0-4.69-3.81-8.49-8.5-8.5H48.21c-4.69,0-8.49,3.81-8.5,8.5v25.14c0,.83-.67,1.5-1.5,1.5s-1.5-.67-1.5-1.5V26.57c0-6.35,5.15-11.49,11.5-11.5H180.29c6.35,0,11.49,5.15,11.5,11.5V179.5c-.01,6.35-5.15,11.48-11.5,11.49Z" style="fill:#2147aa;"/><path d="M62.15,82.03h-28.82c-.83-.01-1.49-.69-1.48-1.52h0v-22.15c0-.83,.67-1.5,1.5-1.5h28.8c.83,0,1.5,.67,1.5,1.5v22.14c.02,.83-.64,1.51-1.47,1.53h-.03Zm-27.32-3h25.82v-19.17h-25.8l-.02,19.17Z" style="fill:#2147aa;"/><path d="M62.15,148.98h-28.82c-.81-.01-1.47-.67-1.48-1.48v-22.19c0-.83,.67-1.5,1.5-1.5h28.8c.83,0,1.5,.67,1.5,1.5v22.19c-.01,.82-.68,1.48-1.5,1.48Zm-27.32-3h25.82v-19.17h-25.8l-.02,19.17Z" style="fill:#2147aa;"/><path d="M114.71,152.43c-12.4,0-22.45-10.05-22.45-22.45,0-12.4,10.05-22.45,22.45-22.45,12.4,0,22.45,10.05,22.45,22.45h0c-.01,12.39-10.06,22.44-22.45,22.45Zm0-41.9c-10.74,0-19.45,8.71-19.45,19.45s8.71,19.45,19.45,19.45,19.45-8.71,19.45-19.45h0c0-10.75-8.7-19.47-19.45-19.48v.03Z" style="fill:#2147aa;"/><path d="M114.71,160.74c-16.99,0-30.77-13.77-30.78-30.76s13.77-30.77,30.76-30.78c16.99,0,30.77,13.77,30.78,30.76v.02c-.02,16.98-13.78,30.74-30.76,30.76Zm0-58.53c-15.34,0-27.77,12.42-27.78,27.76,0,15.34,12.42,27.77,27.76,27.78,15.34,0,27.77-12.42,27.78-27.76h0c-.02-15.34-12.43-27.76-27.76-27.78Z" style="fill:#2147aa;"/><path d="M114.71,138.63c-4.78,0-8.65-3.87-8.65-8.65s3.87-8.65,8.65-8.65,8.65,3.87,8.65,8.65h0c0,4.77-3.88,8.64-8.65,8.65Zm0-14.3c-3.12,0-5.65,2.53-5.65,5.65s2.53,5.65,5.65,5.65,5.65-2.53,5.65-5.65h0c0-3.12-2.53-5.65-5.65-5.65Z" style="fill:#2147aa;"/><path d="M109.46,126.44c-.32,0-.64-.1-.9-.29-.43-.31-2.23-2.25-5.34-5.76-.55-.62-.5-1.57,.12-2.12,.62-.55,1.57-.5,2.12,.12,2.1,2.36,4.51,5,4.91,5.35,.66,.49,.8,1.42,.32,2.08-.29,.39-.74,.62-1.23,.61h0Z" style="fill:#2147aa;"/><path d="M125.09,142.07c-.32,0-.64-.1-.9-.29-.43-.31-2.23-2.25-5.34-5.76-.55-.62-.5-1.57,.12-2.12,.62-.55,1.57-.5,2.12,.12,2.1,2.36,4.51,5,4.91,5.35,.66,.49,.8,1.42,.32,2.08-.29,.39-.74,.62-1.23,.61h0Z" style="fill:#2147aa;"/><path d="M104.12,141.84c-.83,0-1.5-.67-1.5-1.5,0-.43,.18-.84,.5-1.12,2.37-2.1,5-4.5,5.36-4.9,.48-.66,1.41-.8,2.07-.32h.01c.67,.51,.81,1.45,.32,2.12-.32,.44-2.26,2.23-5.77,5.34-.27,.25-.62,.38-.99,.38Z" style="fill:#2147aa;"/><path d="M119.75,126.21c-.83,0-1.5-.67-1.5-1.5,0-.43,.18-.84,.5-1.12,2.37-2.1,5-4.5,5.36-4.9,.48-.66,1.41-.8,2.07-.32h.01c.67,.51,.81,1.45,.32,2.13-.32,.43-2.26,2.22-5.77,5.33-.27,.25-.62,.38-.99,.38Z" style="fill:#2147aa;"/><path d="M114.69,73.5c-3.95,0-7.15-3.21-7.14-7.16s3.21-7.15,7.16-7.14c3.94,0,7.13,3.2,7.14,7.14,0,3.95-3.21,7.16-7.16,7.16h0Zm0-11.3c-2.29,0-4.15,1.87-4.14,4.16,0,2.29,1.87,4.15,4.16,4.14,2.29,0,4.15-1.87,4.14-4.16,0-2.29-1.86-4.15-4.15-4.15h-.01Z" style="fill:#2147aa;"/><path d="M114.69,87.13c-11.48,0-20.79-9.31-20.79-20.79s9.31-20.79,20.79-20.79c11.48,0,20.79,9.31,20.79,20.79-.02,11.48-9.31,20.77-20.79,20.79Zm0-38.58c-9.83,0-17.79,7.96-17.79,17.79s7.96,17.79,17.79,17.79,17.79-7.96,17.79-17.79c-.01-9.82-7.97-17.78-17.79-17.79Z" style="fill:#2147aa;"/><path d="M102.28,67.84h-6.54c-.83,0-1.5-.67-1.5-1.5s.67-1.5,1.5-1.5h6.54c.83,0,1.5,.67,1.5,1.5s-.67,1.5-1.5,1.5Z" style="fill:#2147aa;"/><path d="M133.65,67.84h-6.54c-.83,0-1.5-.67-1.5-1.5s.67-1.5,1.5-1.5h6.54c.83,0,1.5,.67,1.5,1.5s-.67,1.5-1.5,1.5h0Z" style="fill:#2147aa;"/><path d="M114.69,86.79c-.83,0-1.5-.67-1.5-1.5v-6.54c0-.83,.67-1.5,1.5-1.5s1.5,.67,1.5,1.5v6.54c0,.83-.67,1.5-1.5,1.5Z" style="fill:#2147aa;"/><path d="M114.69,55.42c-.83,0-1.5-.67-1.5-1.5v-6.54c0-.83,.67-1.5,1.5-1.5s1.5,.67,1.5,1.5v6.54c0,.83-.67,1.5-1.5,1.5Z" style="fill:#2147aa;"/><path d="M98.55,77.09c-.82-.02-1.48-.69-1.46-1.52,0-.53,.3-1.01,.76-1.27l2.3-1.34c.72-.41,1.64-.17,2.05,.55,.41,.72,.17,1.64-.55,2.05h0l-2.3,1.33c-.24,.14-.52,.21-.8,.2Z" style="fill:#2147aa;"/><path d="M128.31,59.91c-.83,0-1.5-.67-1.5-1.5,0-.54,.29-1.03,.75-1.3l2.3-1.33c.72-.41,1.64-.17,2.05,.55,.41,.72,.17,1.64-.55,2.05l-2.3,1.33c-.23,.13-.49,.2-.75,.2Z" style="fill:#2147aa;"/><path d="M123.85,83.87c-.54,0-1.03-.28-1.3-.75l-1.33-2.3c-.41-.72-.17-1.64,.55-2.05s1.64-.17,2.05,.55l1.33,2.3c.38,.71,.13,1.58-.55,2-.22,.15-.48,.24-.75,.25Z" style="fill:#2147aa;"/><path d="M106.66,54.11c-.54,0-1.03-.28-1.3-.75l-1.33-2.3c-.46-.69-.28-1.62,.41-2.08,.69-.46,1.62-.28,2.08,.41,.04,.06,.07,.12,.1,.18l1.33,2.3c.38,.7,.15,1.58-.54,2-.22,.15-.48,.24-.75,.25Z" style="fill:#2147aa;"/><path d="M105.32,83.87c-.26,0-.52-.07-.74-.2-.69-.41-.94-1.29-.55-2l1.33-2.3c.37-.74,1.26-1.05,2.01-.68s1.05,1.26,.68,2.01c-.03,.06-.06,.12-.1,.18l-1.33,2.3c-.28,.45-.77,.71-1.3,.7Z" style="fill:#2147aa;"/><path d="M122.51,54.11c-.26,0-.52-.07-.75-.2-.69-.41-.94-1.29-.55-2l1.33-2.3c.41-.72,1.32-.97,2.03-.56h.02c.68,.43,.93,1.3,.55,2.01l-1.29,2.3c-.28,.48-.79,.76-1.34,.75Z" style="fill:#2147aa;"/><path d="M130.61,77.09c-.26,0-.52-.07-.75-.2l-2.3-1.33c-.72-.41-.96-1.33-.55-2.05,.41-.72,1.33-.96,2.05-.55l2.3,1.34c.72,.4,.97,1.31,.57,2.03-.27,.48-.78,.77-1.32,.76Z" style="fill:#2147aa;"/><path d="M100.85,59.91c-.26,0-.52-.07-.75-.2l-2.25-1.33c-.72-.41-.96-1.33-.55-2.05,.41-.72,1.33-.96,2.05-.55l2.3,1.33c.72,.41,.96,1.33,.55,2.05-.27,.47-.76,.75-1.3,.75h-.05Z" style="fill:#2147aa;"/><path d="M69.35,203.29h-18.95c-.83,0-1.5-.67-1.5-1.5h0v-7.48c0-.83,.67-1.5,1.5-1.5s1.5,.67,1.5,1.5v6h16.45l2.61-6.25c.32-.76,1.2-1.13,1.96-.8,.76,.32,1.13,1.2,.81,1.96h0l-3,7.17c-.24,.55-.78,.9-1.38,.9Z" style="fill:#2147aa;"/><path d="M178.1,203.29h-18.95c-.6,0-1.15-.36-1.38-.92l-3-7.17c-.33-.76,0-1.64,.77-1.98,.76-.34,1.64,0,1.98,.77,0,.02,.02,.04,.03,.06l2.61,6.24h16.45v-6c0-.83,.67-1.5,1.5-1.5s1.5,.67,1.5,1.5v7.48c.01,.83-.65,1.51-1.48,1.52h-.02Z" style="fill:#2147aa;"/></g></svg>