<svg xmlns="http://www.w3.org/2000/svg" viewBox="0 0 160 160">
    <defs>
        <style>
            .cls-1 {
                fill: #C7D9EE;
            }

            .cls-2 {
                fill: #2157AA;
            }

            .cls-3 {
                fill: #fff;
            }

            .cls-4 {
                fill: none;
            }

            .cls-5 {
                fill: #2157AA;
            }
        </style>
    </defs>
    <g>
        <path class="cls-1" d="M62.37,99.26c-1.9-.37-3.55-.69-4.91-1-4.33-1-8.77-1.91-12.69-2.68-11.3-2.21-15.2-3.1-15.27-5.71-.05-2,2.22-3.24,9-4.92l.17,0c15.05-2,29.84-2.55,42.89-3,20.44-.76,38.1-1.41,40.46-7.93,3.08-8.47-7.27-14.35-15.59-19.07-5.5-3.12-9.13-5.18-8.84-8,.22-2.15,2.69-3.22,4.82-3.9.72-.23,1.44-.44,2.17-.64l-.42-1.6a10,10,0,0,1-2.08-1.13l-.42.11h-.08c-.53.15-1.06.3-1.59.47-10.71,3.39-12.39,9.86,4.88,19.47,11.64,6.47,9.09,8.68,6,13.1S50.37,74,27.05,84.24c-20.83,9.18,14.13,17.58,14.13,17.58s39.32,2.9,40.65,20.82c1.09,14.68-6.54,27.92-9.67,33.52,8.21-8.16,13.93-15,17.39-21a11.94,11.94,0,0,1,2.71-21.84c-.15-.27-.29-.55-.46-.81C86.27,103.9,71.89,101.11,62.37,99.26Z" />
        <path class="cls-1" d="M143,39.94l-2-2.78a.92.92,0,0,1-.47.13h-.07l-3-.21a1,1,0,0,1-.78-.49,133.42,133.42,0,0,0-16.61-.05,1,1,0,0,1-.69.33c-1.36.08-2.69.19-4,.32a9.49,9.49,0,0,1-4.39,3.55L111,41c9.18-1.37,18.74-.77,27.43-.23,1.75.11,3.48.22,5.15.3l.23,0,.19-.33A2.6,2.6,0,0,1,143,39.94Z" />
    </g>
    <g>
        <path class="cls-2" d="M115.15,29.34A8,8,0,0,0,99.66,31a7.41,7.41,0,0,0,.2,3A8,8,0,0,0,104,39.07l0,0a8.63,8.63,0,0,0,1.31.5L106,42l.45,1.74.3,1.16.58,2.19a.45.45,0,0,0,.43.33h0a.44.44,0,0,0,.42-.35l.55-2.6.25-1.23.41-2,.35-1.69a8,8,0,0,0,3.62-2.2l.18-.19a8.17,8.17,0,0,0,1.28-2,7.79,7.79,0,0,0,.71-2.93c0-.13,0-.26,0-.39A7.91,7.91,0,0,0,115.15,29.34Z" />
        <path class="cls-2" d="M60.83,51.12a8,8,0,0,0-2.19,15.65l.42,1.6.76,2.94.78,3a.43.43,0,0,0,.43.33h0a.44.44,0,0,0,.42-.35l.65-3.11.64-3L63,66.77a8,8,0,0,0-2.19-15.65Z" />
        <path class="cls-2" d="M18.27,81.81a9,9,0,1,0-10.33,13l2.2,8.43a.5.5,0,0,0,.49.37h0a.48.48,0,0,0,.47-.4l.78-3.73L12.61,96l.26-1.23a9,9,0,0,0,5.4-13Z" />
        <path class="cls-3" d="M13.42,89.88h-6V88.62l2.15-2.17c.64-.65,1.05-1.1,1.25-1.35a3.16,3.16,0,0,0,.42-.7,1.85,1.85,0,0,0,.13-.66,1,1,0,0,0-.29-.77,1.08,1.08,0,0,0-.75-.25,2.2,2.2,0,0,0-1,.23,5,5,0,0,0-1,.65l-1-1.17a6.7,6.7,0,0,1,1-.76,3.8,3.8,0,0,1,.91-.34,4.69,4.69,0,0,1,1.1-.12,3.33,3.33,0,0,1,1.42.29,2.34,2.34,0,0,1,1,.82,2.22,2.22,0,0,1,.34,1.21,2.87,2.87,0,0,1-.21,1.1,3.94,3.94,0,0,1-.65,1.06,15,15,0,0,1-1.53,1.55l-1.11,1v.08h3.74Z" />
        <path class="cls-3" d="M63.26,56.87A1.72,1.72,0,0,1,62.85,58a2.17,2.17,0,0,1-1.15.65v0a2.29,2.29,0,0,1,1.32.53,1.48,1.48,0,0,1,.45,1.14A1.91,1.91,0,0,1,62.72,62a3.49,3.49,0,0,1-2.16.58,5.3,5.3,0,0,1-2.09-.39V60.88a4.85,4.85,0,0,0,.93.34,3.83,3.83,0,0,0,1,.14,1.93,1.93,0,0,0,1.11-.26.94.94,0,0,0,.36-.82.75.75,0,0,0-.41-.72,3.13,3.13,0,0,0-1.33-.21h-.54V58.18h.55A2.7,2.7,0,0,0,61.37,58a.8.8,0,0,0,.39-.75c0-.55-.34-.82-1-.82a2.27,2.27,0,0,0-.72.12,3.22,3.22,0,0,0-.82.4l-.71-1a4,4,0,0,1,2.36-.7,3.05,3.05,0,0,1,1.77.45A1.45,1.45,0,0,1,63.26,56.87Z" />
        <path class="cls-3" d="M109.76,33.78h-.86v1.48h-1.48V33.78h-3.06V32.73l3.14-4.62h1.4V32.6h.86Zm-2.34-1.18V31.39c0-.2,0-.49,0-.88s0-.61,0-.67h0a5,5,0,0,1-.43.78l-1.32,2Z" />
        <path class="cls-2" d="M19.66,104c6,2.48,13.69,4.24,21.13,5.94,9.92,2.27,20.18,4.61,22.29,8.08a2.16,2.16,0,0,1,.28,1.73c-1.25,1.93-13.07,8-61.93,25.71a1.49,1.49,0,0,0,.51,2.9,1.52,1.52,0,0,0,.51-.09C60.11,127.37,65.61,123,66.24,120.61a5.16,5.16,0,0,0-.59-4.11c-2.78-4.56-12.7-6.82-24.19-9.45-7.32-1.67-14.88-3.4-20.65-5.78a25.93,25.93,0,0,1-6.92-4l-.68,3.25A30.41,30.41,0,0,0,19.66,104Z" />
        <path class="cls-2" d="M36.93,156.27c-.87.46-1.76.91-2.66,1.37a1,1,0,0,0,.46,1.89,1.11,1.11,0,0,0,.46-.11L37.86,158a1,1,0,0,0,.42-1.34A1,1,0,0,0,36.93,156.27Z" />
        <path class="cls-2" d="M82.61,74.52l-6.11.37a1,1,0,0,0,.06,2h.07l6.1-.37a1,1,0,0,0,.94-1.05A1,1,0,0,0,82.61,74.52Z" />
        <path class="cls-2" d="M94.81,73.8c-1.93.13-4,.25-6.1.37a1,1,0,0,0,.06,2h.06Q92,76,94.94,75.79a1,1,0,0,0,.93-1.06A1,1,0,0,0,94.81,73.8Z" />
        <path class="cls-2" d="M106.91,72.7c-1.61.23-3.58.45-6,.66a1,1,0,0,0,.08,2h.09c2.48-.21,4.49-.43,6.14-.67a1,1,0,0,0-.29-2Z" />
        <path class="cls-2" d="M106.19,58.32l-1.37-.8a1,1,0,1,0-1,1.71c.45.27.92.55,1.4.82a43.18,43.18,0,0,1,3.69,2.36,1,1,0,0,0,.59.19,1,1,0,0,0,.81-.41,1,1,0,0,0-.22-1.39A43.4,43.4,0,0,0,106.19,58.32Z" />
        <path class="cls-2" d="M20.26,89.85A4.63,4.63,0,0,0,21,92.34a1,1,0,0,0,.84.47,1,1,0,0,0,.53-.15,1,1,0,0,0,.32-1.38,2.63,2.63,0,0,1-.47-1.43,3.67,3.67,0,0,1,1.57-2.6,1,1,0,0,0,.11-1.4,1,1,0,0,0-1.41-.11,7.19,7.19,0,0,0-1.78,2.15,9.94,9.94,0,0,1-.48,1.82C20.27,89.76,20.26,89.8,20.26,89.85Z" />
        <path class="cls-2" d="M131.65,34.79c-1.84-.06-3.64-.1-5.35-.1h-.79a1,1,0,1,0,0,2h.78c1.7,0,3.48,0,5.29.09h0a1,1,0,0,0,0-2Z" />
        <path class="cls-2" d="M68.17,137.6c-1.49,1.13-3.15,2.31-4.92,3.5a1,1,0,0,0,.56,1.83,1,1,0,0,0,.55-.17c1.81-1.22,3.5-2.42,5-3.57a1,1,0,0,0,.19-1.39A1,1,0,0,0,68.17,137.6Z" />
        <path class="cls-2" d="M68.39,108.17a1,1,0,0,0-.54-1.3c-1.78-.74-3.74-1.46-5.82-2.12a1,1,0,1,0-.61,1.9c2,.65,3.93,1.34,5.66,2.06a1.09,1.09,0,0,0,.39.08A1,1,0,0,0,68.39,108.17Z" />
        <path class="cls-2" d="M82.12,118.79a1,1,0,0,0-1.26-.64,1,1,0,0,0-.64,1.25,8.7,8.7,0,0,1,.32,1.41,6.8,6.8,0,0,1,.06.9,8.52,8.52,0,0,1-.59,3,1,1,0,0,0,.58,1.28.91.91,0,0,0,.35.07,1,1,0,0,0,.94-.65,10.36,10.36,0,0,0,.72-3.68,8.92,8.92,0,0,0-.08-1.16A10.44,10.44,0,0,0,82.12,118.79Z" />
        <path class="cls-2" d="M47.66,150.52q-2.59,1.46-5.34,2.92a1,1,0,0,0-.41,1.35,1,1,0,0,0,.89.52.91.91,0,0,0,.47-.12q2.76-1.47,5.37-2.92a1,1,0,0,0-1-1.75Z" />
        <path class="cls-2" d="M58.15,144.39c-1.62,1-3.37,2.06-5.2,3.13a1,1,0,0,0-.36,1.36,1,1,0,0,0,.86.5,1.06,1.06,0,0,0,.51-.14c1.84-1.08,3.61-2.14,5.25-3.16a1,1,0,0,0,.32-1.37A1,1,0,0,0,58.15,144.39Z" />
        <path class="cls-2" d="M73.45,109.61a1,1,0,0,0-1,1.72,24.89,24.89,0,0,1,4.71,3.46,1,1,0,0,0,1.39-1.43A26.33,26.33,0,0,0,73.45,109.61Z" />
        <path class="cls-2" d="M77,129.56a38.81,38.81,0,0,1-4.15,4.24,1,1,0,0,0,.66,1.75,1,1,0,0,0,.67-.26,41.1,41.1,0,0,0,4.37-4.46,1,1,0,0,0-.14-1.4A1,1,0,0,0,77,129.56Z" />
        <path class="cls-2" d="M70.39,75.3l-6.11.48a1,1,0,0,0,.09,2h.09c2-.17,4.06-.33,6.08-.48a1,1,0,0,0,.92-1.07A1,1,0,0,0,70.39,75.3Z" />
        <path class="cls-2" d="M113.15,65.12a1,1,0,0,0-.58,1.29,3.67,3.67,0,0,1,.25,1.35,10.43,10.43,0,0,1-.56,2.8l-.2.7v0a1,1,0,0,0,.75,1.66,1,1,0,0,0,.75-.34,2,2,0,0,0,.42-.76l.21-.72a12,12,0,0,0,.64-3.36,5.57,5.57,0,0,0-.38-2.06A1,1,0,0,0,113.15,65.12Z" />
        <path class="cls-2" d="M50.08,101.68a1,1,0,0,0-.4,2c2,.41,4,.86,5.92,1.34a.69.69,0,0,0,.25,0,1,1,0,0,0,.24-2C54.15,102.56,52.13,102.1,50.08,101.68Z" />
        <path class="cls-2" d="M96.2,41.83a1,1,0,0,0,.37-1.36,1,1,0,0,0-1.37-.37c-2.57,1.48-3.93,3.31-4,5.45a1,1,0,0,0,1,1.05h0a1,1,0,0,0,1-1C93.23,44.23,94.25,43,96.2,41.83Z" />
        <path class="cls-2" d="M47.15,78.77A1,1,0,0,0,46,77.94c-2.14.35-4.18.73-6.06,1.13a1,1,0,0,0,.21,2l.21,0c1.85-.39,3.85-.76,6-1.11A1,1,0,0,0,47.15,78.77Z" />
        <path class="cls-2" d="M27,94.78a1,1,0,0,0-1,1.75,46.23,46.23,0,0,0,5.68,2.6.92.92,0,0,0,.36.07,1,1,0,0,0,.36-1.93A43.51,43.51,0,0,1,27,94.78Z" />
        <path class="cls-2" d="M98.62,55.82a1,1,0,0,0,.6.19,1,1,0,0,0,.8-.4,1,1,0,0,0-.21-1.39,29.85,29.85,0,0,1-4.41-3.89,1,1,0,1,0-1.49,1.32A31.2,31.2,0,0,0,98.62,55.82Z" />
        <path class="cls-2" d="M35.19,81.22A1,1,0,0,0,34,80.54a54.76,54.76,0,0,0-5.88,2,1,1,0,0,0,.39,1.92.91.91,0,0,0,.39-.08,51.27,51.27,0,0,1,5.65-2A1,1,0,0,0,35.19,81.22Z" />
        <path class="cls-2" d="M42.21,100.35c-.27-.07-1.87-.47-4-1.12a1,1,0,1,0-.59,1.91c2.43.73,4.12,1.14,4.19,1.15l.11,0s.69.08,1.81.25h.15a1,1,0,0,0,.15-2S42.72,100.41,42.21,100.35Z" />
        <path class="cls-2" d="M59.28,77.25a1,1,0,0,0-1.1-.89c-2.14.22-4.19.46-6.09.7a1,1,0,0,0,.12,2h.13c1.89-.24,3.93-.48,6-.7A1,1,0,0,0,59.28,77.25Z" />
        <path class="cls-2" d="M91.17,136c-.36-.14-.71-.31-1-.48s-.39-.2-.57-.31c-3.46,5.93-9.18,12.81-17.39,21l-1.28,1.28a1.5,1.5,0,0,0,2.1,2.13c8.75-8.57,14.82-15.7,18.63-21.93Z" />
        <path class="cls-2" d="M96.18,114.9c-.2,0-.4,0-.61,0a10.06,10.06,0,0,0-1.91.19c-.18,0-.36.08-.54.12a10,10,0,0,0-2.6,18.26l.53.29a10.17,10.17,0,0,0,1.78.71l.2.74,2.25,8.62a.57.57,0,0,0,.54.41h0a.56.56,0,0,0,.53-.44l2-9.33a10,10,0,0,0-2.13-19.54Z" />
        <path class="cls-4" d="M137.68,35.09l2,.14-1.78-2.54c-8.65-.45-15.33-.57-20.86-.42a9.41,9.41,0,0,1-.55,2.81l2.83-.2a1,1,0,0,1,1,.94,1,1,0,0,1-.25.72,133.42,133.42,0,0,1,16.61.05,1,1,0,0,1,.91-1.5Z" />
        <path class="cls-4" d="M151.44,15v0a6.21,6.21,0,0,0-6.18-6.23h-.06a6.22,6.22,0,0,0,0,12.44h.05A6.22,6.22,0,0,0,151.44,15Z" />
        <path class="cls-2" d="M17.72,78.67a10.32,10.32,0,0,1,1.85,2.4c9-4.91,21.57-8,38.74-9.62l-.77-2.94C39.92,70.16,27,73.48,17.72,78.67Z" />
        <path class="cls-2" d="M98.13,31.24c-6.47,1.31-14,6.39-15.48,13.44-.79,3.74-.07,9.32,7.79,14.64,1.83,1.24,3.48,2.34,4.93,3.3,2.7,1.8,5.13,3.42,6.42,4.45-1.81.17-5.18.17-8.93.17-3.5,0-7.84,0-13.09.09q-8.23.17-15.47.64l-.63,3c5-.35,10.39-.58,16.16-.7,5.22-.1,9.55-.1,13-.09,9.51,0,12.07,0,12.69-2s-1.33-3.29-8.51-8.07c-1.45-1-3.09-2.05-4.92-3.29-5.13-3.47-7.39-7.47-6.54-11.55,1.15-5.47,7.3-9.81,12.81-11a9.46,9.46,0,0,1-.3-2.32C98.09,31.7,98.11,31.47,98.13,31.24Z" />
        <path class="cls-2" d="M117.08,32.27c5.53-.15,12.21,0,20.86.42l-2.18-3.1c-7.76-.37-13.89-.45-19-.31a9.64,9.64,0,0,1,.38,2.65C117.09,32,117.08,32.16,117.08,32.27Z" />
        <path class="cls-2" d="M100.54,38.25a.94.94,0,0,0-.12.8,1,1,0,0,0,1,.73l.19,0,.48-.14A9.77,9.77,0,0,1,100.54,38.25Z" />
        <path class="cls-5" d="M102.07,39.63l0,0-.48.14h.08Z" />
        <path class="cls-2" d="M119.36,34.88l-2.83.2a9.48,9.48,0,0,1-.9,1.87c0,.08-.1.16-.16.24,1.31-.13,2.64-.24,4-.32a1,1,0,0,0,.94-1A1,1,0,0,0,119.36,34.88Z" />
        <path class="cls-2" d="M140.87,36.87l-1.15-1.64-2-.14a1,1,0,0,0-.91,1.5,1,1,0,0,0,.78.49l3,.21h.07a.92.92,0,0,0,.47-.13Z" />
        <path class="cls-2" d="M107.9,52.26c-3-1.71-7.15-4.06-7.35-5,0,0,.31-.61,2.77-1.4.67-.21,1.34-.41,2-.59L105,44.08l-.45-1.72c-.73.2-1.45.41-2.17.64-2.13.68-4.6,1.75-4.82,3.9-.29,2.79,3.34,4.85,8.84,8,8.32,4.72,18.67,10.6,15.59,19.07-2.36,6.52-20,7.17-40.46,7.93-13,.49-27.84,1-42.89,3l-.17,0c-6.77,1.68-9,2.92-9,4.92.07,2.61,4,3.5,15.27,5.71,3.92.77,8.36,1.64,12.69,2.68,1.36.32,3,.64,4.91,1,9.52,1.85,23.9,4.64,29.43,13.28.17.26.31.54.46.81l.53-.14a12.42,12.42,0,0,1,2.6-.33,16.09,16.09,0,0,0-1.06-1.95C88.1,101.21,73,98.27,63,96.32c-1.88-.36-3.49-.67-4.79-1-4.39-1.06-8.87-1.93-12.82-2.7-4.57-.9-10.08-2-12.21-2.87a33.46,33.46,0,0,1,6-1.9c14.88-2,29.56-2.53,42.52-3C105,84,121.78,83.38,124.83,75,128.77,64.11,116.21,57,107.9,52.26Z" />
        <path class="cls-2" d="M143.82,41.14l-.23,0c-1.67-.08-3.4-.19-5.15-.3-8.69-.54-18.25-1.14-27.43.23l-.4,2-.25,1.18c9.2-1.54,19-.94,27.89-.38l5.18.3A1.52,1.52,0,0,0,145,42.68,1.49,1.49,0,0,0,143.82,41.14Z" />
        <path class="cls-2" d="M160,14A15,15,0,0,0,145.26,0a14.82,14.82,0,0,0-14.63,14,15,15,0,0,0,3.07,10l4,5.65,2.18,3.11,3,4.21,1.45,2.08a1.21,1.21,0,0,0,.52.43,1.28,1.28,0,0,0,.52.12h0a1.24,1.24,0,0,0,1-.55l10.51-15A15.6,15.6,0,0,0,160,14Zm-8.55.95a6.22,6.22,0,0,1-6.23,6.17h-.05a6.22,6.22,0,0,1,0-12.44h.06a6.21,6.21,0,0,1,6.18,6.23Z" />
        <path class="cls-3" d="M96.5,129.6h-2v-5.5l0-.9,0-1q-.5.5-.69.66l-1.1.87-1-1.21,3.07-2.43H96.5Z" />
    </g>
</svg>