<?xml version="1.0" encoding="UTF-8"?><svg id="a" xmlns="http://www.w3.org/2000/svg" width="170" height="170" viewBox="0 0 170 170"><g id="b"><path d="M75.1,123.97l56.63-56.63v-12l-59.49,59.49c.03-.31,.1-.61,.22-.89l-8.83,9.5-9.79-13.23,11.83-12.75c-2.21-5.89-4.08-11.9-5.62-18-3.28-13.49-4.72-27.37-4.27-41.25l-17.32,5.09s.48,31.32,6.47,49.1c5.23,15.52,9.5,20.58,16.56,29.46,12,15.12,24,17.8,24,17.8-3.85-4.96-7.33-10.21-10.39-15.69Z" style="fill:#b3cbe8;"/><path d="M149.73,30.77L85.34,15.4l60.32,19.81c-2.51,7.14-1.53,42.34-11.63,65.81-19.57,45.59-48.57,51.95-48.57,51.95,0,0,26.83-4.9,38.55-23.72,4.58-7.37,10.31-15.51,14.86-26.06,11.39-26.47,11.81-69.28,13.14-70.44,1.45-1.29-1.61-1.77-2.28-1.98Z" style="fill:#b3cbe8;"/></g><g id="c"><path d="M45.54,98.6c15,34.82,38.34,42.4,39.33,42.7,.15,.05,.31,.07,.47,.07,.16,0,.31-.02,.46-.07,1-.3,24.35-7.88,39.33-42.7,8.4-19.52,10.39-53.81,10.47-55.26,.04-.73-.43-1.4-1.14-1.6l-48.69-13.77c-.29-.09-.59-.09-.88,0l-46.86,13.77c-.68,.2-1.14,.82-1.14,1.52,0,1.45,.24,35.78,8.65,55.34Zm76.7-1.25c-13.23,30.74-33.57,39.51-36.9,40.77-2.09-.78-10.8-4.5-20.27-14.67L131.07,58.32c-1.45,11.89-4.11,28.06-8.83,39.03Zm9.35-44L62.97,121.1c-2.77-3.24-5.28-6.68-7.53-10.3L124.14,42.11l8.23,2.33c-.11,1.64-.36,4.82-.78,8.9h0Zm-46.24-22.21l35.31,10L53.77,108.01c-1.98-3.45-3.75-7.01-5.31-10.66-7.31-17-8.26-46.65-8.38-52.92l45.27-13.3Z" style="fill:#2147aa;"/><path d="M25.3,34.12c-.67,.22-1.12,.85-1.1,1.56,0,1.67,1.36,41.3,12.2,67,19.36,45.93,47.55,50.08,48.74,50.24h.4c1.19-.16,29.38-4.31,48.74-50.24,10.84-25.7,12.14-65.33,12.2-67,.02-.71-.43-1.35-1.11-1.56L85.81,15.38c-.31-.1-.64-.1-.95,0L25.3,34.12Zm118,2.65c-.31,6.88-2.33,42-11.9,64.69-17.75,42.09-43.47,47.83-46,48.3-2.57-.47-28.29-6.21-46-48.3-9.58-22.72-11.59-57.81-11.9-64.69l57.94-18.24,57.86,18.24Z" style="fill:#2147aa;"/><path d="M152.52,29.1L85.79,8.88c-.3-.09-.61-.09-.91,0L18.16,29.1c-.67,.2-1.12,.82-1.12,1.52,0,1.85,.33,45.68,12.26,73.4,21.25,49.37,54.3,57.16,55.7,57.46,.11,.02,.23,.02,.34,0,.11,.01,.23,.01,.34,0,1.39-.3,34.45-8.09,55.7-57.46,11.92-27.72,12.25-71.55,12.26-73.4,0-.7-.45-1.31-1.12-1.52Zm-14,73.67c-19.43,45.16-49.61,54.59-53.14,55.55-3.54-1-33.67-10.29-53.14-55.55-10.61-24.65-11.85-63.75-12-71L85.37,12.04l65.09,19.73c-.13,7.25-1.37,46.35-12,71h.06Z" style="fill:#2147aa;"/></g></svg>