<svg xmlns="http://www.w3.org/2000/svg" viewBox="0 0 350 190"><g id="b6b2e225-5f6e-443a-ab23-ea0a5b08b0a2" data-name="Shadow"><polygon points="133.45 32.13 156.53 151.97 123.86 151.97 123.86 32.13 133.45 32.13" style="fill:#e1aa21"/><polygon points="224.68 151.97 224.68 105.58 224.68 100.77 224.68 86.95 224.68 37.5 218.73 37.5 218.73 92.7 218.73 99.86 218.73 151.97 129.8 151.97 129.8 157.92 224.68 157.92 224.68 151.97 224.68 151.97" style="fill:#edca73"/><polygon points="133.45 32.13 156.53 151.97 123.86 151.97 123.86 32.13 133.45 32.13" style="fill:#edca73"/><polygon points="224.68 151.97 224.68 105.58 224.68 100.77 224.68 86.95 224.68 37.5 218.73 37.5 218.73 92.7 218.73 99.86 218.73 151.97 129.8 151.97 129.8 157.92 224.68 157.92 224.68 151.97 224.68 151.97" style="fill:#edca73"/></g><g id="adc95605-69bf-4c83-a6a6-6e79fd462167" data-name="Background lines copy"><path d="M347.93,95.29H267.36a8,8,0,0,1-8-8V19.71a8,8,0,0,1,8-8h80.57a.92.92,0,1,1,0,1.83H267.36a6.2,6.2,0,0,0-6.19,6.19V87.26a6.19,6.19,0,0,0,6.19,6.19h80.57a.92.92,0,1,1,0,1.84Z" style="fill:#e1aa21"/><path d="M347.93,8.58H260.25a.92.92,0,0,1,0-1.84h87.68a.92.92,0,1,1,0,1.84Z" style="fill:#e1aa21"/><path d="M283.61,54.41a.92.92,0,0,1-.92-.92V20.09a.92.92,0,1,1,1.84,0v33.4A.92.92,0,0,1,283.61,54.41Z" style="fill:#e1aa21"/><path d="M292.8,54.41a.92.92,0,0,1-.92-.92V20.09a.92.92,0,0,1,1.84,0v33.4A.92.92,0,0,1,292.8,54.41Z" style="fill:#e1aa21"/><path d="M302,54.41a.92.92,0,0,1-.92-.92V20.09a.92.92,0,0,1,1.84,0v33.4A.92.92,0,0,1,302,54.41Z" style="fill:#e1aa21"/><path d="M311.18,54.41a.92.92,0,0,1-.92-.92V20.09a.92.92,0,1,1,1.84,0v33.4A.92.92,0,0,1,311.18,54.41Z" style="fill:#e1aa21"/><path d="M320.37,54.41a.92.92,0,0,1-.92-.92V20.09a.92.92,0,0,1,1.84,0v33.4A.93.93,0,0,1,320.37,54.41Z" style="fill:#e1aa21"/><path d="M329.55,54.41a.92.92,0,0,1-.91-.92V20.09a.92.92,0,1,1,1.83,0v33.4A.92.92,0,0,1,329.55,54.41Z" style="fill:#e1aa21"/><path d="M338.74,54.41a.93.93,0,0,1-.92-.92V20.09a.92.92,0,0,1,1.84,0v33.4A.92.92,0,0,1,338.74,54.41Z" style="fill:#e1aa21"/><path d="M347.93,47.45H275.08a.92.92,0,1,1,0-1.83h72.85a.92.92,0,1,1,0,1.83Z" style="fill:#e1aa21"/><path d="M347.93,41H275.08a.92.92,0,0,1,0-1.84h72.85a.92.92,0,1,1,0,1.84Z" style="fill:#e1aa21"/><path d="M347.93,34.46H275.08a.92.92,0,0,1,0-1.84h72.85a.92.92,0,1,1,0,1.84Z" style="fill:#e1aa21"/><path d="M347.93,28H275.08a.92.92,0,1,1,0-1.83h72.85a.92.92,0,1,1,0,1.83Z" style="fill:#e1aa21"/><path d="M347.93,54.41H275.08a.92.92,0,0,1-.92-.92V20.09a.92.92,0,0,1,.92-.92h72.85a.92.92,0,1,1,0,1.84H276V52.57h71.94a.92.92,0,1,1,0,1.84Z" style="fill:#e1aa21"/><path d="M347.93,85.55H320.37a.92.92,0,0,1-.92-.91v-22a.92.92,0,0,1,.92-.92h27.56a.92.92,0,1,1,0,1.83H321.29V83.72h26.64a.92.92,0,1,1,0,1.83Z" style="fill:#e1aa21"/><path d="M325.06,183.35a7.61,7.61,0,0,1-5.82-2.69l-35.19-41.57a7.61,7.61,0,0,1,.89-10.72l17.38-14.72a7.62,7.62,0,0,1,10.73.89l35.2,41.57a7.62,7.62,0,0,1-.89,10.72h0L330,181.56A7.61,7.61,0,0,1,325.06,183.35Zm-17.82-69.67a5.76,5.76,0,0,0-3.73,1.37l-17.38,14.72a5.78,5.78,0,0,0-.68,8.14l35.2,41.57a5.77,5.77,0,0,0,8.13.67l17.39-14.72a5.78,5.78,0,0,0,.67-8.14l-35.19-41.57A5.78,5.78,0,0,0,307.24,113.68Zm39.52,52.45h0Z" style="fill:#e1aa21"/><path d="M293.28,132.56a5.11,5.11,0,0,1-3.9-1.81.92.92,0,0,1,.11-1.29l13.19-11.17a.93.93,0,0,1,1.3.1,5.11,5.11,0,0,1-.6,7.2l-6.8,5.76A5.1,5.1,0,0,1,293.28,132.56Zm-1.8-2.38a3.28,3.28,0,0,0,3.91-.23l6.81-5.76h0a3.28,3.28,0,0,0,1.14-2.23,3.19,3.19,0,0,0-.27-1.59Z" style="fill:#e1aa21"/><path d="M325.05,179.58a3.84,3.84,0,0,1-2.93-1.35l-35.19-41.58a3.83,3.83,0,0,1,.45-5.4l17.38-14.72h0a3.84,3.84,0,0,1,5.41.45l35.2,41.57a3.84,3.84,0,0,1-.45,5.4l-17.39,14.72A3.82,3.82,0,0,1,325.05,179.58ZM306,117.93l-17.39,14.72a2,2,0,0,0-.23,2.82L323.53,177a2,2,0,0,0,2.81.23l17.39-14.72a2,2,0,0,0,.23-2.82l-35.19-41.57a2,2,0,0,0-2.82-.23Z" style="fill:#e1aa21"/><path d="M78.81,85a.84.84,0,0,1-.27,0L3.15,61.6a.92.92,0,0,1,.54-1.76L78.21,82.93,93,35.24,39.25,52.47a.91.91,0,0,1-1-.31L2.59,6.17A.92.92,0,1,1,4,5.05L39.3,50.52,94.1,33a.94.94,0,0,1,.93.23.9.9,0,0,1,.23.92L79.69,84.35A.91.91,0,0,1,78.81,85Z" style="fill:#e1aa21"/><path d="M11.58,6.29a.84.84,0,0,1-.27,0,.92.92,0,0,1-.6-1.15L12.07.69a.92.92,0,1,1,1.76.54L12.46,5.64A.91.91,0,0,1,11.58,6.29Z" style="fill:#e1aa21"/><path d="M87.7,29.87a.9.9,0,0,1-.28,0,.92.92,0,0,1-.6-1.15L93.29,7.8,74,1.83A.92.92,0,0,1,74.57.08L94.71,6.32a.92.92,0,0,1,.6,1.15L88.57,29.23A.91.91,0,0,1,87.7,29.87Z" style="fill:#e1aa21"/><path d="M82.35,13.25a.86.86,0,0,1-.27-.05L45.39,1.83A.92.92,0,0,1,45.93.08l36.7,11.37a.92.92,0,0,1-.28,1.8Z" style="fill:#e1aa21"/><path d="M79.57,22.24a.9.9,0,0,1-.28,0l-57-17.65a.92.92,0,1,1,.55-1.75l57,17.65a.92.92,0,0,1-.27,1.79Z" style="fill:#e1aa21"/><path d="M76.78,31.24a.84.84,0,0,1-.27,0l-57-17.65a.92.92,0,1,1,.54-1.75l57,17.65a.92.92,0,0,1-.27,1.79Z" style="fill:#e1aa21"/><path d="M61,36.21a.84.84,0,0,1-.27,0L29.77,26.58a.92.92,0,1,1,.54-1.75l30.94,9.58a.92.92,0,0,1-.27,1.8Z" style="fill:#e1aa21"/><path d="M51,188.85a.73.73,0,0,1-.25,0,.9.9,0,0,1-.63-1.13l17.78-62.09-66.5-19a.92.92,0,1,1,.51-1.77l67.38,19.3a.91.91,0,0,1,.63,1.13l-18,63A.93.93,0,0,1,51,188.85Z" style="fill:#e1aa21"/><path d="M57.27,184.2a1,1,0,0,1-.37-.08.91.91,0,0,1-.47-1.21L81.81,125,21,98.34l-2.8,6.37a.92.92,0,0,1-1.68-.74l3.16-7.21a.94.94,0,0,1,.51-.49.9.9,0,0,1,.7,0l62.54,27.42a.92.92,0,0,1,.47,1.21L58.11,183.65A.93.93,0,0,1,57.27,184.2Z" style="fill:#e1aa21"/><path d="M58.36,131.48a1.18,1.18,0,0,1-.25,0L.82,115a.92.92,0,1,1,.51-1.76l57.29,16.4a.93.93,0,0,1,.63,1.14A.94.94,0,0,1,58.36,131.48Z" style="fill:#e1aa21"/><path d="M56.13,139.27a1.09,1.09,0,0,1-.25,0L1.11,123.54a.91.91,0,1,1,.5-1.76l54.78,15.68A.93.93,0,0,1,57,138.6.94.94,0,0,1,56.13,139.27Z" style="fill:#e1aa21"/><path d="M53.9,147.06a1.09,1.09,0,0,1-.25,0L1.11,132a.91.91,0,1,1,.5-1.76l52.54,15a.93.93,0,0,1,.64,1.14A.94.94,0,0,1,53.9,147.06Z" style="fill:#e1aa21"/><path d="M51.67,154.85a1.09,1.09,0,0,1-.25,0L1.11,140.4a.91.91,0,0,1,.5-1.76L51.92,153a.92.92,0,0,1-.25,1.81Z" style="fill:#e1aa21"/><path d="M49.44,162.64a.73.73,0,0,1-.25,0L1.11,148.83a.91.91,0,0,1-.63-1.13.92.92,0,0,1,1.13-.64l48.08,13.77a.92.92,0,0,1-.25,1.81Z" style="fill:#e1aa21"/><path d="M47.21,170.43a.73.73,0,0,1-.25,0L1.11,157.26a.92.92,0,0,1,.5-1.77l45.85,13.14a.9.9,0,0,1,.63,1.13A.92.92,0,0,1,47.21,170.43Z" style="fill:#e1aa21"/><path d="M45,178.22a.69.69,0,0,1-.25,0L1.11,165.69a.92.92,0,0,1,.5-1.77l43.62,12.49a.92.92,0,0,1-.25,1.81Z" style="fill:#e1aa21"/><path d="M42.75,186a.78.78,0,0,1-.26,0L1.11,174.12a.92.92,0,0,1,.5-1.77L43,184.21a.9.9,0,0,1,.63,1.13A.92.92,0,0,1,42.75,186Z" style="fill:#e1aa21"/><path d="M23,188.79a.78.78,0,0,1-.26,0l-21.66-6.2a.92.92,0,0,1-.63-1.14.91.91,0,0,1,1.13-.63L23.28,187a.92.92,0,0,1-.25,1.8Z" style="fill:#e1aa21"/><path d="M240.51,130.23a8.25,8.25,0,0,1-8.23-8.24,8.23,8.23,0,0,1,16.38-1.17,7.68,7.68,0,0,1,.09,1.17A8.25,8.25,0,0,1,240.51,130.23Zm0-14.63a6.4,6.4,0,0,0-1.29,12.66,6.27,6.27,0,0,0,1.29.13,6.41,6.41,0,0,0,6.4-6.4,5.58,5.58,0,0,0-.07-.91A6.41,6.41,0,0,0,240.51,115.6Z" style="fill:#e1aa21"/><path d="M246.34,136.36a8.19,8.19,0,0,1-5.8-2.38.92.92,0,0,1,1.3-1.31,6.32,6.32,0,0,0,4.5,1.86,6.41,6.41,0,0,0,6.4-6.4,6.3,6.3,0,0,0-1.34-3.91.92.92,0,0,1,1.46-1.12,8.24,8.24,0,0,1-6.52,13.26Z" style="fill:#e1aa21"/><path d="M264,126.55a8.23,8.23,0,1,1,8.24-8.23A8.24,8.24,0,0,1,264,126.55Zm0-14.62a6.4,6.4,0,1,0,6.4,6.39A6.4,6.4,0,0,0,264,111.93Z" style="fill:#e1aa21"/><path d="M264,151.08a8.23,8.23,0,1,1,8.24-8.23A8.24,8.24,0,0,1,264,151.08Zm0-14.62a6.4,6.4,0,1,0,6.4,6.39A6.4,6.4,0,0,0,264,136.46Z" style="fill:#e1aa21"/></g><g id="bc88653e-5d87-48e3-bd96-b8bbd4c9ff15" data-name="Foreground lines copy"><path d="M225.38,159.08H130.51a1.21,1.21,0,1,1,0-2.42h93.66V37.8a1.22,1.22,0,1,1,2.43,0V157.87A1.22,1.22,0,0,1,225.38,159.08Z" style="fill:#333"/><path d="M207.68,98.81H134.86a1.22,1.22,0,0,1,0-2.43h72.82a1.22,1.22,0,0,1,0,2.43Z" style="fill:#333"/><path d="M198.64,109.63H134.86a1.21,1.21,0,0,1,0-2.42h63.78a1.21,1.21,0,1,1,0,2.42Z" style="fill:#333"/><path d="M198.64,88H134.86a1.22,1.22,0,0,1,0-2.43h63.78a1.22,1.22,0,1,1,0,2.43Z" style="fill:#333"/><path d="M204.53,120.46H134.86a1.22,1.22,0,0,1,0-2.43h69.67a1.22,1.22,0,0,1,0,2.43Z" style="fill:#333"/><path d="M198.64,131.29H134.86a1.22,1.22,0,0,1,0-2.43h63.78a1.22,1.22,0,1,1,0,2.43Z" style="fill:#333"/><path d="M206,142.11H134.86a1.21,1.21,0,1,1,0-2.42H206a1.21,1.21,0,1,1,0,2.42Z" style="fill:#333"/><path d="M207.68,98.81H134.86a1.22,1.22,0,0,1,0-2.43h72.82a1.22,1.22,0,0,1,0,2.43Z" style="fill:#333"/><path d="M198.64,109.63H134.86a1.21,1.21,0,0,1,0-2.42h63.78a1.21,1.21,0,1,1,0,2.42Z" style="fill:#333"/><path d="M198.64,88H134.86a1.22,1.22,0,0,1,0-2.43h63.78a1.22,1.22,0,1,1,0,2.43Z" style="fill:#333"/><path d="M204.53,120.46H134.86a1.22,1.22,0,0,1,0-2.43h69.67a1.22,1.22,0,0,1,0,2.43Z" style="fill:#333"/><path d="M198.64,131.29H134.86a1.22,1.22,0,0,1,0-2.43h63.78a1.22,1.22,0,1,1,0,2.43Z" style="fill:#333"/><path d="M206,142.11H134.86a1.21,1.21,0,1,1,0-2.42H206a1.21,1.21,0,1,1,0,2.42Z" style="fill:#333"/><path d="M186.3,76.09a1.22,1.22,0,0,1-1.22-1.22,12.81,12.81,0,1,0-25.61,0,1.22,1.22,0,1,1-2.43,0,15.24,15.24,0,0,1,30.47,0A1.22,1.22,0,0,1,186.3,76.09Z" style="fill:#333"/><path d="M172.06,56.57A7.54,7.54,0,1,1,179.59,49,7.54,7.54,0,0,1,172.06,56.57Zm0-12.64a5.11,5.11,0,1,0,5.1,5.11A5.11,5.11,0,0,0,172.06,43.93Z" style="fill:#333"/><path d="M143.72,69.08a1.22,1.22,0,0,1-1.21-1.22A11.41,11.41,0,0,1,160,58.22a1.21,1.21,0,0,1-1.3,2.05,9,9,0,0,0-13.79,7.59A1.22,1.22,0,0,1,143.72,69.08Z" style="fill:#333"/><path d="M153.75,54.06a5.81,5.81,0,1,1,5.81-5.8A5.8,5.8,0,0,1,153.75,54.06Zm0-9.19a3.39,3.39,0,1,0,3.39,3.39A3.39,3.39,0,0,0,153.75,44.87Z" style="fill:#333"/><path d="M200.39,69.08a1.22,1.22,0,0,1-1.21-1.22,9,9,0,0,0-13.79-7.59,1.21,1.21,0,0,1-1.3-2.05,11.41,11.41,0,0,1,17.51,9.64A1.22,1.22,0,0,1,200.39,69.08Z" style="fill:#333"/><path d="M190.36,54.06a5.81,5.81,0,1,1,5.8-5.8A5.81,5.81,0,0,1,190.36,54.06Zm0-9.19a3.39,3.39,0,1,0,3.38,3.39A3.39,3.39,0,0,0,190.36,44.87Z" style="fill:#333"/><path d="M219.49,153.19H124.62A1.22,1.22,0,0,1,123.4,152V32.13a1.22,1.22,0,0,1,1.22-1.21h94.87a1.22,1.22,0,0,1,1.22,1.21V152A1.22,1.22,0,0,1,219.49,153.19Zm-93.66-2.43h92.45V33.34H125.83Z" style="fill:#333"/></g></svg> 