<svg xmlns="http://www.w3.org/2000/svg" viewBox="0 0 440 252"><defs><style>.cls-1{fill:#c7dfdf;}.cls-2{fill:#54b3b3;}.cls-3{fill:#231f20;}</style></defs><g id="Background"><path class="cls-1" d="M422.87,219.52h-409a1,1,0,0,1,0-2h409a1,1,0,0,1,0,2Z"/><path class="cls-1" d="M422.87,201.34h-409a1,1,0,0,1,0-2h409a1,1,0,0,1,0,2Z"/><path class="cls-1" d="M75.92,90.94H13.07a1,1,0,1,1,0-2H74.28L70,80.63H13.07a1,1,0,1,1,0-2H70.6a1,1,0,0,1,.89.54l5.32,10.31a1,1,0,0,1,0,1A1,1,0,0,1,75.92,90.94Z"/><path class="cls-1" d="M60.29,116.88H12.74a1,1,0,0,1,0-2H59.29V103.25H12.74a1,1,0,1,1,0-2H60.29a1,1,0,0,1,1,1v13.63A1,1,0,0,1,60.29,116.88Z"/><path class="cls-1" d="M60.29,144.48H12.74a1,1,0,0,1,0-2H59.29V130.85H12.74a1,1,0,0,1,0-2H60.29a1,1,0,0,1,1,1v13.63A1,1,0,0,1,60.29,144.48Z"/><path class="cls-1" d="M60.29,172.08H12.74a1,1,0,0,1,0-2H59.29V158.45H12.74a1,1,0,0,1,0-2H60.29a1,1,0,0,1,1,1v13.63A1,1,0,0,1,60.29,172.08Z"/><path class="cls-1" d="M73.92,194.7a1,1,0,0,1-1-1V90.61a1,1,0,0,1,2,0V193.7A1,1,0,0,1,73.92,194.7Z"/><path class="cls-1" d="M39.67,76a1,1,0,0,1-1-1V66.66a1,1,0,0,1,1-1H77.92a1,1,0,0,1,0,2H40.67V75A1,1,0,0,1,39.67,76Z"/><path class="cls-1" d="M97.27,191.2H83.73a.93.93,0,0,1-.94-.92V177.12a1,1,0,0,1,.08-.38,8.53,8.53,0,0,1,7.68-4.66,8.28,8.28,0,0,1,7.59,4.68.86.86,0,0,1,.07.36v13.16A.93.93,0,0,1,97.27,191.2Zm-12.59-1.85H96.32v-12a6.41,6.41,0,0,0-5.77-3.4,6.65,6.65,0,0,0-5.87,3.41Z"/><path class="cls-1" d="M121.37,191.2H107.84a.94.94,0,0,1-1-.92V177.12a.85.85,0,0,1,.09-.38,8.51,8.51,0,0,1,7.68-4.66,8.28,8.28,0,0,1,7.58,4.68.86.86,0,0,1,.08.36v13.16A.93.93,0,0,1,121.37,191.2Zm-12.58-1.85h11.64v-12a6.41,6.41,0,0,0-5.77-3.4,6.63,6.63,0,0,0-5.87,3.41Z"/><path class="cls-1" d="M145.48,191.2H131.94a.93.93,0,0,1-.94-.92V177.12a1,1,0,0,1,.08-.38,8.53,8.53,0,0,1,7.68-4.66,8.3,8.3,0,0,1,7.59,4.68.86.86,0,0,1,.07.36v13.16A.93.93,0,0,1,145.48,191.2Zm-12.59-1.85h11.64v-12a6.41,6.41,0,0,0-5.77-3.4,6.65,6.65,0,0,0-5.87,3.41Z"/><path class="cls-1" d="M97.27,163.6H83.73a.93.93,0,0,1-.94-.92V149.52a1,1,0,0,1,.08-.38,8.53,8.53,0,0,1,7.68-4.66,8.27,8.27,0,0,1,7.59,4.68.86.86,0,0,1,.07.36v13.16A.93.93,0,0,1,97.27,163.6Zm-12.59-1.85H96.32v-12a6.41,6.41,0,0,0-5.77-3.4,6.65,6.65,0,0,0-5.87,3.41Z"/><path class="cls-1" d="M121.37,163.6H107.84a.94.94,0,0,1-1-.92V149.52a.85.85,0,0,1,.09-.38,8.51,8.51,0,0,1,7.68-4.66,8.28,8.28,0,0,1,7.58,4.67,1,1,0,0,1,.08.37v13.16A.93.93,0,0,1,121.37,163.6Zm-12.58-1.85h11.64v-12a6.41,6.41,0,0,0-5.77-3.4,6.63,6.63,0,0,0-5.87,3.41Z"/><path class="cls-1" d="M145.48,163.6H131.94a.93.93,0,0,1-.94-.92V149.52a1,1,0,0,1,.08-.38,8.53,8.53,0,0,1,7.68-4.66,8.28,8.28,0,0,1,7.59,4.68.86.86,0,0,1,.07.36v13.16A.93.93,0,0,1,145.48,163.6Zm-12.59-1.85h11.64v-12a6.41,6.41,0,0,0-5.77-3.4,6.65,6.65,0,0,0-5.87,3.41Z"/><path class="cls-1" d="M97.27,136.67H83.73a.94.94,0,0,1-.94-.93V122.58a1,1,0,0,1,.08-.38,8.53,8.53,0,0,1,7.68-4.66,8.28,8.28,0,0,1,7.59,4.68.89.89,0,0,1,.07.36v13.16A.94.94,0,0,1,97.27,136.67Zm-12.59-1.86H96.32v-12a6.41,6.41,0,0,0-5.77-3.39,6.64,6.64,0,0,0-5.87,3.4Z"/><path class="cls-1" d="M121.37,136.67H107.84a1,1,0,0,1-1-.93V122.58a.85.85,0,0,1,.09-.38,8.51,8.51,0,0,1,7.68-4.66,8.28,8.28,0,0,1,7.58,4.68.9.9,0,0,1,.08.36v13.16A.94.94,0,0,1,121.37,136.67Zm-12.58-1.86h11.64v-12a6.41,6.41,0,0,0-5.77-3.39,6.63,6.63,0,0,0-5.87,3.4Z"/><path class="cls-1" d="M97.27,110.06H83.73a.93.93,0,0,1-.94-.92V96a1,1,0,0,1,.08-.38,8.53,8.53,0,0,1,7.68-4.66,8.28,8.28,0,0,1,7.59,4.68.86.86,0,0,1,.07.36v13.16A.93.93,0,0,1,97.27,110.06Zm-12.59-1.85H96.32v-12a6.41,6.41,0,0,0-5.77-3.4,6.65,6.65,0,0,0-5.87,3.41Z"/><path class="cls-1" d="M144.53,134.81H132.89v-12a6.64,6.64,0,0,1,5.87-3.4h.29l-2-1.71a8.58,8.58,0,0,0-6,4.5,1,1,0,0,0-.08.38v13.16a.94.94,0,0,0,.94.93h13.54a.94.94,0,0,0,.94-.93v-9.88l-1.89-1.66Z"/><path class="cls-1" d="M120.43,108.21H108.79v-12a6.7,6.7,0,0,1,1.58-1.89L109,93.07a8.33,8.33,0,0,0-2,2.53.85.85,0,0,0-.09.38v13.16a.94.94,0,0,0,1,.92h13.53a.93.93,0,0,0,.95-.92v-4.37l-1.89-1.66Z"/><path class="cls-1" d="M184.33,193.7H166.7a1,1,0,0,1-1-1V166.43a1,1,0,0,1,1-1h6a1,1,0,0,1,0,2h-5V191.7h15.63v-13a1,1,0,0,1,2,0v14A1,1,0,0,1,184.33,193.7Z"/><path class="cls-1" d="M254,71.66H189.49a1,1,0,0,1,0-2H254a1,1,0,0,1,0,2Z"/><path class="cls-1" d="M248.68,80.63H194.81a1,1,0,0,1,0-2h53.87a1,1,0,0,1,0,2Z"/><path class="cls-1" d="M191.71,64.23a6.77,6.77,0,1,1,6.76-6.76A6.77,6.77,0,0,1,191.71,64.23Zm0-11.53a4.77,4.77,0,1,0,4.76,4.77A4.78,4.78,0,0,0,191.71,52.7Z"/><path class="cls-1" d="M221.74,64.23A6.76,6.76,0,0,1,216.63,53a6.76,6.76,0,0,1,10.23,8.85h0a6.69,6.69,0,0,1-4.62,2.32Zm0-11.53h-.35a4.8,4.8,0,0,0-3.26,1.64,4.78,4.78,0,0,0,.49,6.72,4.76,4.76,0,0,0,3.46,1.15,4.7,4.7,0,0,0,3.26-1.64h0a4.77,4.77,0,0,0-3.6-7.88Zm4.36,8.54h0Z"/><path class="cls-1" d="M251.78,64.23A6.76,6.76,0,0,1,246.67,53a6.77,6.77,0,0,1,9.54-.69,6.77,6.77,0,0,1,.69,9.54h0a6.69,6.69,0,0,1-4.62,2.32Zm0-11.52a4.76,4.76,0,1,0,3.6,7.87h0a4.75,4.75,0,0,0-3.6-7.87Z"/><path class="cls-1" d="M273,44.17H168.57a1,1,0,0,1-1-1V36.29a1,1,0,0,1,1-1H273a1,1,0,0,1,1,1v6.88A1,1,0,0,1,273,44.17Zm-103.44-2H272V37.29H169.57Z"/><path class="cls-1" d="M354.59,138.61H281a1,1,0,0,1-1-1v-9.54a1,1,0,0,1,1-1h73.4a1,1,0,0,1,0,2H282v7.54h72.62a1,1,0,0,1,0,2Z"/><path class="cls-1" d="M155.73,194.7a1,1,0,0,1-1-1V152a1,1,0,0,1,2,0V193.7A1,1,0,0,1,155.73,194.7Z"/><path class="cls-1" d="M235.54,194.7a1,1,0,0,1-1-1v-8.65a1,1,0,0,1,2,0v8.65A1,1,0,0,1,235.54,194.7Z"/><path class="cls-1" d="M249.51,194.7a1,1,0,0,1-1-1V174.19a1,1,0,0,1,2,0V193.7A1,1,0,0,1,249.51,194.7Z"/><path class="cls-1" d="M173.85,57.47a1,1,0,0,1-1-1V43.61a1,1,0,1,1,2,0V56.47A1,1,0,0,1,173.85,57.47Z"/><path class="cls-1" d="M267.62,65a1,1,0,0,1-1-1V43.61a1,1,0,0,1,2,0V64A1,1,0,0,1,267.62,65Z"/><path class="cls-1" d="M267.62,194.7a1,1,0,0,1-1-1V138.05a1,1,0,0,1,2,0V193.7A1,1,0,0,1,267.62,194.7Z"/><path class="cls-1" d="M286.53,194.7a1,1,0,0,1-1-1V137.61a1,1,0,0,1,2,0V193.7A1,1,0,0,1,286.53,194.7Z"/><path class="cls-1" d="M359.69,194.7a1,1,0,0,1-1-1V76.42a1,1,0,0,1,1-1H424.2a1,1,0,0,1,0,2H360.69V193.7A1,1,0,0,1,359.69,194.7Z"/><path class="cls-1" d="M354.59,117.1H304.93a1,1,0,0,1,0-2h49.66a1,1,0,0,1,0,2Z"/><path class="cls-1" d="M354.59,104.46H317.23a1,1,0,0,1,0-2h37.36a1,1,0,0,1,0,2Z"/><path class="cls-1" d="M354.59,91.83H331.42a1,1,0,0,1,0-2h23.17a1,1,0,0,1,0,2Z"/><path class="cls-1" d="M381,127.08H370.33a1,1,0,0,1-1-1V86.84a1,1,0,0,1,1-1H381a1,1,0,0,1,1,1v39.24A1,1,0,0,1,381,127.08Zm-9.64-2H380V87.84h-8.64Z"/><path class="cls-1" d="M402.14,127.08H391.5a1,1,0,0,1-1-1V86.84a1,1,0,0,1,1-1h10.64a1,1,0,0,1,1,1v39.24A1,1,0,0,1,402.14,127.08Zm-9.64-2h8.64V87.84H392.5Z"/><path class="cls-1" d="M423.31,127.08H412.67a1,1,0,0,1-1-1V86.84a1,1,0,0,1,1-1h10.64a1,1,0,0,1,1,1v39.24A1,1,0,0,1,423.31,127.08Zm-9.64-2h8.64V87.84h-8.64Z"/><path class="cls-1" d="M381,183.61H370.33a1,1,0,0,1-1-1V143.37a1,1,0,0,1,1-1H381a1,1,0,0,1,1,1v39.24A1,1,0,0,1,381,183.61Zm-9.64-2H380V144.37h-8.64Z"/><path class="cls-1" d="M402.14,183.61H391.5a1,1,0,0,1-1-1V143.37a1,1,0,0,1,1-1h10.64a1,1,0,0,1,1,1v39.24A1,1,0,0,1,402.14,183.61Zm-9.64-2h8.64V144.37H392.5Z"/><path class="cls-1" d="M423.31,183.61H412.67a1,1,0,0,1-1-1V143.37a1,1,0,0,1,1-1h10.64a1,1,0,0,1,1,1v39.24A1,1,0,0,1,423.31,183.61Zm-9.64-2h8.64V144.37h-8.64Z"/><path class="cls-1" d="M424.42,71.77H356.14a1,1,0,0,1,0-2h68.28a1,1,0,0,1,0,2Z"/><path class="cls-1" d="M392.06,71a.65.65,0,0,1-.19,0,1,1,0,0,1-.8-1.16c0-.21,4.15-20.9,33.73-19.66a1,1,0,0,1-.09,2c-11.56-.48-20.72,2.51-26.46,8.65A20.85,20.85,0,0,0,393,70.17,1,1,0,0,1,392.06,71Z"/><path class="cls-1" d="M308.37,194.92a1,1,0,0,1-1-1v-23c.21-4.18,3.79-12,15.84-12h0c5.67,0,10,1.46,12.83,4.33a11.61,11.61,0,0,1,3.36,7.67v22.92a1,1,0,0,1-2,0V170.88a9.76,9.76,0,0,0-2.81-6.28c-2.45-2.46-6.28-3.71-11.38-3.71h0c-13.12,0-13.82,9.64-13.85,10.05v23A1,1,0,0,1,308.37,194.92Z"/></g><g id="Fill"><path class="cls-2" d="M62,44.05c-1.77-1.33-5.32-8.87,3.11-9.53,5.65,0,12.63-.89,15.85.55s1.45.22,5.32,3.66c4,3.6,88.34,87.13,87.79,90.12,0,0-9.31,7.65-10,6.65s-14.3-17.62-14.3-17.62l-3-4.66s-2.33,1.33-3.66,1S63.73,45.38,62,44.05Z"/><path class="cls-2" d="M202.73,113.89a11.78,11.78,0,0,0,13.52,2.66c2.77-1.2,7.1-6,7.1-6l-2.44-5.1s-8.7,6.26-9.76,7.76S202.73,113.89,202.73,113.89Z"/><path class="cls-2" d="M364.57,43.61s-107.53,98-108.19,98-6.43-6.21-6.43-6.21l18.84-18s6.43-4-.22-10.64S248,89.5,248,89.5s6.21-3.55,12-6.43c2.88,6.65,17.73,17.51,17.73,17.51L341.73,39.4s4.86-4.14,9.31-4.66c3.77-.44,10.2-.44,13.75,1.77C367.14,38,367.23,41,364.57,43.61Z"/><path class="cls-2" d="M223.12,177.07c-.66-.45-12.41-10.87-12.41-10.87a44,44,0,0,1-6.87,7.54c-6.88,5.77-10.42,4-12.64,3.77-1.82-.18,2.66,4.88,5.1,4.66S203,178.4,203,178.4s5.32,7.76,7.76,9.09c3.36,1.83,8,.22,8,.22l2.88-3.77Z"/><path class="cls-2" d="M180.12,165.1c-.23.66,4.71,3.51,9.53.66,13.52-8,18-15.52,17.12-16.78s1.94,2.59,1.5,5-8.7,9.26-8.65,9.76-10,7.31-10,7.31-1.4.81-4.44-.88A16.34,16.34,0,0,1,180.12,165.1Z"/><path class="cls-2" d="M170.36,156.23a11,11,0,0,0,7.54-1.33c14.19-8.87,15.4-13.75,15.4-13.75s2.56,2.89,1.67,4.22-14.41,12.41-15.74,13.08-4.88,1.55-6.65.66A4.6,4.6,0,0,1,170.36,156.23Z"/><path class="cls-2" d="M161.72,145.14s1.77,1.78,7.09-.66,11.75-9.76,11.75-9.76v3.77s-4.88,6.65-5.77,6.65-4.87,3.55-5.76,3.55-4.88-.89-4.88-.89Z"/></g><g id="Outlines"><path class="cls-3" d="M144.18,116a7.46,7.46,0,0,1-5.29-2.36l-68-60.24a1.5,1.5,0,0,1,2-2.25l68,60.3.12.12a4.14,4.14,0,0,0,6,.27c4.39-3.49,33.56-28.53,33.85-28.78a6.31,6.31,0,0,0,2.36-3.88,5,5,0,0,0-1.58-3.72c-5.3-5.7-36.5-40.46-36.82-40.81a1.5,1.5,0,0,1,2.23-2c.32.35,31.5,35.08,36.78,40.77a7.76,7.76,0,0,1,2.37,6,9.28,9.28,0,0,1-3.46,5.93c-1.12,1-29.43,25.27-33.86,28.79A7.53,7.53,0,0,1,144.18,116Z"/><path class="cls-3" d="M131.34,99.2a1.5,1.5,0,0,1-1-2.65L166.29,66.4a1.5,1.5,0,1,1,1.93,2.3L132.31,98.85A1.49,1.49,0,0,1,131.34,99.2Z"/><path class="cls-3" d="M143.54,107.85a5.27,5.27,0,1,1,5.26-5.27A5.28,5.28,0,0,1,143.54,107.85Zm0-7.54a2.27,2.27,0,1,0,2.26,2.27A2.27,2.27,0,0,0,143.54,100.31Z"/><path class="cls-3" d="M207.83,90.78a1.49,1.49,0,0,1-1-.37c-.65-.57-2.12-.53-4.35-.46a61.7,61.7,0,0,1-6.29-.06c-7-.49-9.16-3.68-9.38-4a1.5,1.5,0,0,1,2.54-1.6c.06.09,1.7,2.28,7,2.64a56.1,56.1,0,0,0,6,.06c2.83-.08,4.88-.14,6.41,1.2a1.49,1.49,0,0,1,.15,2.11A1.52,1.52,0,0,1,207.83,90.78Z"/><path class="cls-3" d="M252.74,161.12c-.57,0-1.16,0-1.8-.07a1.49,1.49,0,0,1-1-.52c-1.29-1.51-5.23-5.67-5.27-5.71a1.5,1.5,0,0,1,2.18-2.06c.15.16,3.36,3.55,4.95,5.34,4,.21,6.59-.76,7.73-2.88,1.51-2.8.17-7.12-.55-8.05-1.11-1.42-22.13-21.9-36-35.31a1.5,1.5,0,1,1,2.08-2.16c3.55,3.44,34.71,33.61,36.28,35.63,1.16,1.5,3.11,7,.82,11.31C261,158.75,258.47,161.12,252.74,161.12Z"/><path class="cls-3" d="M242.82,172.13a17.67,17.67,0,0,1-5.59-1,1.5,1.5,0,0,1-.62-.44l-5.09-6a1.5,1.5,0,1,1,2.28-2l4.83,5.67c1.25.39,5.63,1.54,8.39-.5,1.92-1.42,2.77-4.22,2.54-8.32a1.5,1.5,0,1,1,3-.17c.3,5.18-1,8.85-3.76,10.91A10,10,0,0,1,242.82,172.13Z"/><path class="cls-3" d="M230,181.3a17.75,17.75,0,0,1-5.82-1.06,1.57,1.57,0,0,1-.49-.31l-4.88-4.66a1.5,1.5,0,0,1,2.07-2.17l4.65,4.43c1.13.38,5.64,1.69,8.39-.3,1.75-1.26,2.56-3.76,2.39-7.41a1.5,1.5,0,0,1,1.43-1.57,1.53,1.53,0,0,1,1.56,1.43c.22,4.74-1,8.1-3.63,10A9.59,9.59,0,0,1,230,181.3Z"/><path class="cls-3" d="M214.64,189.64a17.26,17.26,0,0,1-5.57-1,1.5,1.5,0,0,1,1.06-2.81c.11,0,5.22,1.9,8.66-.27,1.9-1.21,3-3.52,3.28-6.87a1.5,1.5,0,0,1,3,.25c-.36,4.35-1.94,7.43-4.68,9.16A10.71,10.71,0,0,1,214.64,189.64Z"/><path class="cls-3" d="M159.28,130.68a1.51,1.51,0,0,1-1.15-.53l-9.53-11.31a1.48,1.48,0,0,1,.18-2.11,1.5,1.5,0,0,1,2.11.18l9.53,11.3a1.5,1.5,0,0,1-.18,2.12A1.46,1.46,0,0,1,159.28,130.68Z"/><path class="cls-3" d="M167.5,150.05a7.77,7.77,0,0,1-1-.06,8.26,8.26,0,0,1-4.2-14.67l6.95-5.52a8.27,8.27,0,0,1,10.28,12.95h0l-6.95,5.51A8.18,8.18,0,0,1,167.5,150.05Zm6.9-19a5.2,5.2,0,0,0-3.25,1.13l-7,5.52a5.26,5.26,0,0,0,6.54,8.24l6.95-5.51a5.25,5.25,0,0,0-2.67-9.34A4.3,4.3,0,0,0,174.4,131Zm4.23,10.55h0Z"/><path class="cls-3" d="M197,183.34a7.73,7.73,0,0,1-1-.06,8.25,8.25,0,0,1-4.2-14.67l6.95-5.52A8.26,8.26,0,0,1,209,176h0l-6.95,5.52A8.18,8.18,0,0,1,197,183.34Zm6.91-19a5.2,5.2,0,0,0-3.25,1.13l-7,5.52a5.26,5.26,0,0,0-.85,7.39,5.27,5.27,0,0,0,7.39.85l6.95-5.52a5.25,5.25,0,0,0-2.67-9.34C204.28,164.32,204.08,164.31,203.87,164.31Zm4.22,10.55h0Z"/><path class="cls-3" d="M176.27,161.1a8,8,0,0,1-1-.06,8.18,8.18,0,0,1-5.52-3.06l-.37-.46a8.29,8.29,0,0,1,1.33-11.61l11.92-9.46a8.29,8.29,0,0,1,11.61,1.33l.37.46a8.28,8.28,0,0,1-1.34,11.61l-11.92,9.46A8.16,8.16,0,0,1,176.27,161.1Zm11.53-23.44a5.23,5.23,0,0,0-3.27,1.14l-11.92,9.46a5.29,5.29,0,0,0-.85,7.4l.36.46a5.3,5.3,0,0,0,7.4.84l11.92-9.46h0a5.28,5.28,0,0,0,1.95-3.52,5.22,5.22,0,0,0-1.1-3.87l-.37-.46A5.24,5.24,0,0,0,187.8,137.66Z"/><path class="cls-3" d="M187.5,172.55c-.32,0-.64,0-1-.05a8.19,8.19,0,0,1-5.53-3.07l-1.3-1.64a8.28,8.28,0,0,1,1.33-11.6l14-11.11a8.27,8.27,0,0,1,11.61,1.33l1.3,1.64a8.29,8.29,0,0,1-1.33,11.61h0l-14,11.11A8.18,8.18,0,0,1,187.5,172.55Zm12.66-26.26a5.2,5.2,0,0,0-3.26,1.14l-14,11.11a5.27,5.27,0,0,0-.85,7.39l1.3,1.64a5.3,5.3,0,0,0,7.39.85l14-11.11a5.29,5.29,0,0,0,.85-7.4l-1.3-1.64A5.28,5.28,0,0,0,200.16,146.29Zm5.51,12.19h0Z"/><path class="cls-3" d="M260.65,138.5a1.5,1.5,0,0,1-1-2.59l21.95-21a1.5,1.5,0,0,1,2.07,2.17l-21.95,21A1.48,1.48,0,0,1,260.65,138.5Z"/><path class="cls-3" d="M208.09,116.31c-4.08,0-7-1.16-8.6-3.46-3.05-4.31-.19-10.78-.07-11.06a1.84,1.84,0,0,1,.3-.43c3-3,13-13,15.83-13.7,1.73-.43,8.78-.24,18.55.07,4.33.14,8.42.27,9.68.22,2.65-.13,3.66-1.36,3.7-1.41a1.52,1.52,0,0,1,2.09-.27,1.48,1.48,0,0,1,.32,2.06c-.18.25-1.87,2.42-6,2.61-1.38.07-5.34-.06-9.92-.21-6.48-.21-16.27-.52-17.72-.16s-8.48,6.89-14.22,12.69c-.66,1.62-1.75,5.57-.12,7.86,1.2,1.69,3.77,2.4,7.62,2.13a97.81,97.81,0,0,0,10.29-8.57,1.49,1.49,0,0,1,2.12,0,1.51,1.51,0,0,1,0,2.12,101.25,101.25,0,0,1-11,9.13,1.47,1.47,0,0,1-.75.28C209.48,116.28,208.77,116.31,208.09,116.31Z"/><path class="cls-3" d="M290.25,111.48a6.82,6.82,0,0,1-4-1.28c-1-.9-23.88-20.76-25.92-23-2.16-2.41-.84-6.16.28-8l.12-.16c.08-.1,7.91-9.7,15.72-19.16C292.92,40,293,40,294.32,40.41a1.5,1.5,0,0,1,.26,2.73c-2.06,1.89-19.79,23.41-31.43,37.69-.49.86-1.53,3.26-.56,4.34,1.58,1.76,18.92,16.91,25.54,22.66a3.54,3.54,0,0,0,4.18,0c2.4-1.72,41.56-37.08,61.94-55.54a1.5,1.5,0,1,1,2,2.22c-2.41,2.19-59.07,53.52-62.21,55.76A6.46,6.46,0,0,1,290.25,111.48Zm3.13-68.22a1.33,1.33,0,0,0,.38.07A1.27,1.27,0,0,1,293.38,43.26Zm0,0h0Z"/><path class="cls-3" d="M305.82,90.11a1.47,1.47,0,0,1-1-.36l-25.27-21.5A1.5,1.5,0,0,1,281.51,66l25.28,21.51a1.5,1.5,0,0,1-1,2.64Z"/><path class="cls-3" d="M271.45,86.57A1.51,1.51,0,0,1,270.37,84l8.42-8.87A1.5,1.5,0,0,1,281,77.23l-8.43,8.87A1.49,1.49,0,0,1,271.45,86.57Z"/><path class="cls-3" d="M279.54,93.44a1.5,1.5,0,0,1-1.08-2.54L286.88,82a1.5,1.5,0,0,1,2.18,2.06L280.63,93A1.49,1.49,0,0,1,279.54,93.44Z"/><path class="cls-3" d="M287.86,101a1.47,1.47,0,0,1-1-.41,1.5,1.5,0,0,1-.06-2.12l8.43-8.87a1.5,1.5,0,0,1,2.17,2.07L289,100.51A1.5,1.5,0,0,1,287.86,101Z"/></g></svg> 