<svg xmlns="http://www.w3.org/2000/svg" xmlns:xlink="http://www.w3.org/1999/xlink" viewBox="0 0 440 252"><defs><style>.cls-1{fill:#b4bbc9;}.cls-2,.cls-3,.cls-48{fill:#526680;}.cls-2,.cls-4{clip-rule:evenodd;}.cls-4,.cls-51,.cls-53{fill:#231f20;}.cls-5{clip-path:url(#clip-path);}.cls-6{clip-path:url(#clip-path-2);}.cls-7{clip-path:url(#clip-path-3);}.cls-8{clip-path:url(#clip-path-4);}.cls-9{clip-path:url(#clip-path-5);}.cls-10{clip-path:url(#clip-path-6);}.cls-11{clip-path:url(#clip-path-7);}.cls-12{clip-path:url(#clip-path-8);}.cls-13{clip-path:url(#clip-path-9);}.cls-14{clip-path:url(#clip-path-10);}.cls-15{clip-path:url(#clip-path-11);}.cls-16{clip-path:url(#clip-path-12);}.cls-17{clip-path:url(#clip-path-13);}.cls-18{clip-path:url(#clip-path-14);}.cls-19{clip-path:url(#clip-path-15);}.cls-20{clip-path:url(#clip-path-16);}.cls-21{clip-path:url(#clip-path-17);}.cls-22{clip-path:url(#clip-path-18);}.cls-23{clip-path:url(#clip-path-19);}.cls-24{clip-path:url(#clip-path-20);}.cls-25{clip-path:url(#clip-path-21);}.cls-26{clip-path:url(#clip-path-22);}.cls-27{clip-path:url(#clip-path-23);}.cls-28{clip-path:url(#clip-path-24);}.cls-29{clip-path:url(#clip-path-25);}.cls-30{clip-path:url(#clip-path-26);}.cls-31{clip-path:url(#clip-path-27);}.cls-32{clip-path:url(#clip-path-28);}.cls-33{clip-path:url(#clip-path-29);}.cls-34{clip-path:url(#clip-path-30);}.cls-35{clip-path:url(#clip-path-31);}.cls-36{clip-path:url(#clip-path-32);}.cls-37{clip-path:url(#clip-path-33);}.cls-38{clip-path:url(#clip-path-34);}.cls-39{clip-path:url(#clip-path-35);}.cls-40{clip-path:url(#clip-path-36);}.cls-41{clip-path:url(#clip-path-37);}.cls-42{clip-path:url(#clip-path-38);}.cls-43{clip-path:url(#clip-path-39);}.cls-44{clip-path:url(#clip-path-40);}.cls-45{clip-path:url(#clip-path-41);}.cls-46{clip-path:url(#clip-path-42);}.cls-47{clip-path:url(#clip-path-43);}.cls-48,.cls-51{fill-rule:evenodd;}.cls-49{clip-path:url(#clip-path-44);}.cls-50{clip-path:url(#clip-path-45);}.cls-52{clip-path:url(#clip-path-46);}</style><clipPath id="clip-path"><path class="cls-1" d="M5,20.06a1.2,1.2,0,0,1,0-2.4H110.13A10.47,10.47,0,0,1,120.6,28.13v88.13a10.47,10.47,0,0,1-10.47,10.47H5a1.2,1.2,0,1,1,0-2.4H110.13a8.07,8.07,0,0,0,8.07-8.07V28.13a8.07,8.07,0,0,0-8.07-8.07Z"/></clipPath><clipPath id="clip-path-2"><path class="cls-1" d="M5,13.62a1.2,1.2,0,0,1,0-2.4H119.4a1.2,1.2,0,0,1,0,2.4Z"/></clipPath><clipPath id="clip-path-3"><path class="cls-1" d="M87.72,28.63a1.2,1.2,0,0,1,2.4,0V72.19a1.2,1.2,0,0,1-2.4,0Z"/></clipPath><clipPath id="clip-path-4"><path class="cls-1" d="M75.74,28.63a1.2,1.2,0,1,1,2.4,0V72.19a1.2,1.2,0,0,1-2.4,0Z"/></clipPath><clipPath id="clip-path-5"><path class="cls-1" d="M63.75,28.63a1.2,1.2,0,0,1,2.4,0V72.19a1.2,1.2,0,0,1-2.4,0Z"/></clipPath><clipPath id="clip-path-6"><path class="cls-1" d="M51.77,28.63a1.2,1.2,0,0,1,2.4,0V72.19a1.2,1.2,0,0,1-2.4,0Z"/></clipPath><clipPath id="clip-path-7"><path class="cls-1" d="M39.78,28.63a1.2,1.2,0,0,1,2.4,0V72.19a1.2,1.2,0,0,1-2.4,0Z"/></clipPath><clipPath id="clip-path-8"><path class="cls-1" d="M27.79,28.63a1.2,1.2,0,0,1,2.4,0V72.19a1.2,1.2,0,0,1-2.4,0Z"/></clipPath><clipPath id="clip-path-9"><path class="cls-1" d="M15.81,28.63a1.2,1.2,0,0,1,2.4,0V72.19a1.2,1.2,0,0,1-2.4,0Z"/></clipPath><clipPath id="clip-path-10"><path class="cls-1" d="M100.06,61.93a1.2,1.2,0,1,1,0,2.39H5a1.2,1.2,0,1,1,0-2.39Z"/></clipPath><clipPath id="clip-path-11"><path class="cls-1" d="M100.06,53.45a1.2,1.2,0,1,1,0,2.4H5a1.2,1.2,0,0,1,0-2.4Z"/></clipPath><clipPath id="clip-path-12"><path class="cls-1" d="M100.06,45a1.2,1.2,0,1,1,0,2.39H5A1.2,1.2,0,1,1,5,45Z"/></clipPath><clipPath id="clip-path-13"><path class="cls-1" d="M100.06,36.5a1.2,1.2,0,0,1,0,2.4H5a1.2,1.2,0,0,1,0-2.4Z"/></clipPath><clipPath id="clip-path-14"><path class="cls-1" d="M98.86,29.83H5a1.2,1.2,0,0,1,0-2.4h95a1.2,1.2,0,0,1,1.2,1.2V72.19a1.2,1.2,0,0,1-1.2,1.2H5A1.2,1.2,0,1,1,5,71H98.86Z"/></clipPath><clipPath id="clip-path-15"><path class="cls-1" d="M5,85.3a1.2,1.2,0,1,1,0-2.4H41a1.2,1.2,0,0,1,1.2,1.2v28.73A1.2,1.2,0,0,1,41,114H5a1.2,1.2,0,1,1,0-2.4H39.78V85.3Z"/></clipPath><clipPath id="clip-path-16"><path class="cls-1" d="M62.88,199.88a22.26,22.26,0,1,1-25.33-18.7A22.27,22.27,0,0,1,62.88,199.88Zm-2.38.36a19.86,19.86,0,1,0-16.68,22.6A19.86,19.86,0,0,0,60.5,200.24Z"/></clipPath><clipPath id="clip-path-17"><path class="cls-1" d="M61.75,198.12a1.2,1.2,0,0,1-.36-2.37l14-2.1a4.53,4.53,0,1,1,1.35,9l-14,2.1a1.2,1.2,0,0,1-.35-2.37l14-2.1a2.13,2.13,0,0,0-.63-4.22Z"/></clipPath><clipPath id="clip-path-18"><path class="cls-1" d="M69.83,208.83a1.2,1.2,0,0,1,2.38-.36l1.56,10.41A9.8,9.8,0,0,1,65.54,230l-40.36,6.08A9.82,9.82,0,0,1,14,227.87L8,187.51a9.8,9.8,0,0,1,8.24-11.15l40.36-6.08a9.82,9.82,0,0,1,11.15,8.24l1.67,11.13a1.2,1.2,0,0,1-1,1.37A1.21,1.21,0,0,1,67,190l-1.67-11.13a7.4,7.4,0,0,0-8.43-6.22l-40.36,6.07a7.41,7.41,0,0,0-6.22,8.42l6.08,40.36a7.39,7.39,0,0,0,8.42,6.22l40.36-6.07a7.41,7.41,0,0,0,6.22-8.42Z"/></clipPath><clipPath id="clip-path-19"><path class="cls-1" d="M100.43,151a10.74,10.74,0,0,1-10.74,10.74,10.35,10.35,0,0,1-2.16-.22,10.74,10.74,0,1,1,12.79-12.05A11.25,11.25,0,0,1,100.43,151ZM98,151a9.39,9.39,0,0,0-.08-1.19A8.34,8.34,0,1,0,88,159.15a8.47,8.47,0,0,0,1.68.17A8.33,8.33,0,0,0,98,151Z"/></clipPath><clipPath id="clip-path-20"><path class="cls-1" d="M103.89,153.89a1.2,1.2,0,0,1,1.9-1.47,10.74,10.74,0,0,1-16.06,14.19,1.2,1.2,0,1,1,1.69-1.7,8.34,8.34,0,0,0,12.47-11Z"/></clipPath><clipPath id="clip-path-21"><path class="cls-1" d="M131.12,146.19a10.74,10.74,0,1,1-10.74-10.74A10.74,10.74,0,0,1,131.12,146.19Zm-2.4,0a8.34,8.34,0,1,0-8.34,8.34A8.33,8.33,0,0,0,128.72,146.19Z"/></clipPath><clipPath id="clip-path-22"><path class="cls-1" d="M131.12,178.19a10.74,10.74,0,1,1-10.74-10.74A10.74,10.74,0,0,1,131.12,178.19Zm-2.4,0a8.34,8.34,0,1,0-8.34,8.34A8.33,8.33,0,0,0,128.72,178.19Z"/></clipPath><clipPath id="clip-path-23"><path class="cls-1" d="M335.26,214.09l-24-9.93a8.85,8.85,0,0,1-4.8-11.55l23.74-57.42a8.84,8.84,0,0,1,11.54-4.8l24,9.93a8.85,8.85,0,0,1,4.79,11.55L346.8,209.29A8.83,8.83,0,0,1,335.26,214.09Zm.92-2.23a6.41,6.41,0,0,0,8.39-3.49L368.31,151a6.43,6.43,0,0,0-3.48-8.4l-24-9.93a6.41,6.41,0,0,0-8.39,3.49l-23.74,57.42a6.43,6.43,0,0,0,3.49,8.4Z"/></clipPath><clipPath id="clip-path-24"><path class="cls-1" d="M325,204.82a5.08,5.08,0,1,1,6.62-2.76A5.08,5.08,0,0,1,325,204.82Zm3-7.16a2.67,2.67,0,1,0,1.45,3.48A2.67,2.67,0,0,0,328,197.66Z"/></clipPath><clipPath id="clip-path-25"><path class="cls-1" d="M346.52,142.51a1.21,1.21,0,1,1,.93-2.23l7.26,3a1.2,1.2,0,1,1-.92,2.22Z"/></clipPath><clipPath id="clip-path-26"><path class="cls-1" d="M310.72,185.41a1.21,1.21,0,0,1,.92-2.23L349.77,199a1.2,1.2,0,1,1-.92,2.22Z"/></clipPath><clipPath id="clip-path-27"><path class="cls-1" d="M328.36,142.73a1.2,1.2,0,0,1,.92-2.22l38.13,15.76a1.2,1.2,0,1,1-.92,2.22Z"/></clipPath><clipPath id="clip-path-28"><path class="cls-1" d="M433.89,234.59a1.2,1.2,0,0,1,.47,2.36l-29.21,5.8a11.36,11.36,0,0,1-12.56-6.47,11,11,0,0,1-.79-2.46l-5.9-29.74-5.95-30-.15-.77A11.35,11.35,0,0,1,388.72,160l40.9-8.12a11.23,11.23,0,0,1,4.51,0,1.2,1.2,0,0,1,.94,1.42,1.21,1.21,0,0,1-1.42.94,9.07,9.07,0,0,0-3.56,0l-40.9,8.12a9,9,0,0,0-7,10.52l.15.77,5.95,30,5.9,29.74a9.76,9.76,0,0,0,.62,1.94,9,9,0,0,0,9.9,5.09Z"/></clipPath><clipPath id="clip-path-29"><path class="cls-1" d="M379.46,181.27a1.21,1.21,0,1,1-.47-2.37l6-1.2a1.21,1.21,0,0,1,.46,2.37Z"/></clipPath><clipPath id="clip-path-30"><path class="cls-1" d="M381.51,191.58a1.2,1.2,0,1,1-.47-2.36l6-1.2a1.21,1.21,0,0,1,.47,2.37Z"/></clipPath><clipPath id="clip-path-31"><path class="cls-1" d="M383.56,201.9a1.2,1.2,0,1,1-.47-2.36l6-1.2a1.21,1.21,0,0,1,.47,2.37Z"/></clipPath><clipPath id="clip-path-32"><path class="cls-1" d="M385.61,212.22a1.2,1.2,0,1,1-.47-2.36l6-1.2a1.21,1.21,0,0,1,.47,2.37Z"/></clipPath><clipPath id="clip-path-33"><path class="cls-1" d="M387.65,222.54a1.2,1.2,0,1,1-.46-2.36l6-1.2a1.2,1.2,0,1,1,.47,2.36Z"/></clipPath><clipPath id="clip-path-34"><path class="cls-1" d="M389.7,232.86a1.2,1.2,0,0,1-.47-2.36l6-1.2a1.2,1.2,0,0,1,.47,2.36Z"/></clipPath><clipPath id="clip-path-35"><path class="cls-1" d="M407.73,196.88a1.21,1.21,0,1,1-.47-2.37l15.4-3a1.2,1.2,0,1,1,.47,2.36Z"/></clipPath><clipPath id="clip-path-36"><path class="cls-1" d="M404.33,204.7a1.2,1.2,0,0,1-.47-2.36l24.93-5a1.21,1.21,0,0,1,.47,2.37Z"/></clipPath><clipPath id="clip-path-37"><path class="cls-1" d="M433.78,81.35a1,1,0,0,1,.6,1.91l-89.13,27.61a1,1,0,0,1-1.25-.65L325.6,50.81a1,1,0,0,1,1.25-1.25l64.84,20.79,41.73-53.81A1,1,0,0,1,435,17.77L392.84,72.13a1,1,0,0,1-1.09.34L328.07,52.05l17.55,56.62Z"/></clipPath><clipPath id="clip-path-38"><path class="cls-1" d="M421.86,12a1,1,0,1,1,1.91-.59l1.61,5.22a1,1,0,1,1-1.9.59Z"/></clipPath><clipPath id="clip-path-39"><path class="cls-1" d="M335.41,44.46a1,1,0,0,1-1.91.59l-8-25.72a1,1,0,0,1,.66-1.25L350,10.7a1,1,0,1,1,.59,1.91l-22.85,7.08Z"/></clipPath><clipPath id="clip-path-40"><path class="cls-1" d="M341.07,26.05a1,1,0,0,1-.59-1.91L383.85,10.7a1,1,0,1,1,.59,1.91Z"/></clipPath><clipPath id="clip-path-41"><path class="cls-1" d="M344.36,36.69a1,1,0,0,1-.59-1.91l67.34-20.87a1,1,0,1,1,.59,1.91Z"/></clipPath><clipPath id="clip-path-42"><path class="cls-1" d="M347.66,47.32a1,1,0,1,1-.59-1.9L414.4,24.55a1,1,0,1,1,.59,1.91Z"/></clipPath><clipPath id="clip-path-43"><path class="cls-1" d="M366.34,53.2a1,1,0,0,1-1.25-.66,1,1,0,0,1,.65-1.25L402.32,40a1,1,0,1,1,.59,1.9Z"/></clipPath><clipPath id="clip-path-44"><path class="cls-2" d="M186.86,84.6a5,5,0,0,0-4.08.11l-17,9-.14-49.52h13.11Zm75-4.43.14.25.55-.33Zm-3.06.33-4.6.49,5.32-7.62,3.34,6.53,47.45-28.56,5.88-3.55L314.73,45l1-.62a1.59,1.59,0,0,1,1.26-.17,1.67,1.67,0,0,1,1,.81l3.37,6.19a1.79,1.79,0,0,1,.16,1.32,1.71,1.71,0,0,1-.77,1.06l-4.52,2.72,2,3.61a1.78,1.78,0,0,1,.16,1.32,1.7,1.7,0,0,1-.78,1.05L300.24,72.78a1.59,1.59,0,0,1-.83.24,1.68,1.68,0,0,1-1.44-.88,1.79,1.79,0,0,1,.62-2.38l16-9.6-1.14-2.1L286.68,74.14,286.53,203h.15v8.75h-.16L278,203l.14-123.71-11.51,6.93,0,0-.11,0a.2.2,0,0,1-.08,0l-.11,0-.09,0-.11,0-.1,0h0l-8.62.87h-.16a1.65,1.65,0,0,1-1.46-.9,1.85,1.85,0,0,1,.15-1.92l2.8-3.75ZM177.36,191.7l10.78-5.45L178.6,191s-4.6,2.36-7.09-3L135,113.78s-2.3-4.45,2.32-6.68L151.89,100l41.19,83.72,27.51-13.9s6.62-2.22,3.69-8.45L187.63,83.53A9.5,9.5,0,0,1,196,89.08l33.59,71.37a10,10,0,0,1-4.39,13.2l-19.85,10,4,20.49-43.67,0,0-21.32,3.7,7.44a4.88,4.88,0,0,0,6.47,2.19Z"/></clipPath><clipPath id="clip-path-45"><rect class="cls-3" x="126.97" y="26.69" width="199.64" height="199.68"/></clipPath><clipPath id="clip-path-46"><path class="cls-4" d="M204.38,151.1a1.66,1.66,0,0,1,2.27.83,1.81,1.81,0,0,1-.78,2.39l-7.83,4a1.66,1.66,0,0,1-2.27-.83,1.83,1.83,0,0,1,.78-2.39Zm1.25,3.81a1.66,1.66,0,0,1,2.27.83,1.83,1.83,0,0,1-.78,2.39l-7.83,4a1.66,1.66,0,0,1-2.27-.83,1.82,1.82,0,0,1,.78-2.39Zm-8.74-20.31a1.66,1.66,0,0,1,2.28.82,1.85,1.85,0,0,1-.78,2.4l-7.84,4a1.66,1.66,0,0,1-2.27-.82,1.84,1.84,0,0,1,.78-2.4Zm27.47,35.22-47.22,23.59a6.48,6.48,0,0,1-8.76-3.07l-35.75-74.76a6.75,6.75,0,0,1,3-9L165,92,182.86,83a6.49,6.49,0,0,1,8.76,3.07l35.75,74.76A6.77,6.77,0,0,1,224.36,169.82Zm0-7.46L188.62,87.6a3.19,3.19,0,0,0-4.3-1.51L166.47,95,137.1,109.69a3.31,3.31,0,0,0-1.48,4.39l35.76,74.76a3.18,3.18,0,0,0,4.3,1.51l47.22-23.59A3.34,3.34,0,0,0,224.38,162.36Zm-32.22-48.73L153.52,133a1.65,1.65,0,0,1-2.23-.79l-7.93-16.6a1.73,1.73,0,0,1,.77-2.29L182.77,94a1.65,1.65,0,0,1,2.23.79l7.93,16.6A1.73,1.73,0,0,1,192.16,113.63Zm-3-2.32-6.46-13.53L147.1,115.61l6.46,13.53Zm76,51.54a1.56,1.56,0,0,1,2.29,0,1.74,1.74,0,0,1,0,2.4l-8.85,9.3a1.57,1.57,0,0,1-2.29,0l-2.88-3a1.77,1.77,0,0,1,0-2.41,1.57,1.57,0,0,1,2.29,0l1.74,1.83Zm0-21.59a1.57,1.57,0,0,1,2.29,0,1.75,1.75,0,0,1,0,2.41L258.64,153a1.56,1.56,0,0,1-2.29,0l-2.88-3a1.76,1.76,0,0,1,0-2.4,1.56,1.56,0,0,1,2.29,0l1.74,1.82Zm0-24.13a1.57,1.57,0,0,1,2.29,0,1.75,1.75,0,0,1,0,2.41l-8.85,9.3a1.57,1.57,0,0,1-2.29,0l-2.88-3a1.77,1.77,0,0,1,0-2.41,1.57,1.57,0,0,1,2.29,0l1.74,1.83Zm0-22.85a1.56,1.56,0,0,1,2.29,0,1.74,1.74,0,0,1,0,2.4l-8.85,9.3a1.57,1.57,0,0,1-2.29,0l-2.88-3a1.77,1.77,0,0,1,0-2.41,1.57,1.57,0,0,1,2.29,0l1.74,1.83Zm-50.5,87.07c-.91,0-1.64-.56-1.63-1.25a1.47,1.47,0,0,1,1.63-1.24l27.93,0a1.3,1.3,0,1,1,0,2.5Zm15.07-11.43c-1,0-1.74-.56-1.73-1.25s.78-1.24,1.74-1.24l14,0c1,0,1.73.57,1.73,1.26s-.79,1.24-1.75,1.24Zm-.07-12.7c-.92,0-1.67-.57-1.66-1.25s.75-1.24,1.68-1.24l12.88.05c.92,0,1.66.57,1.66,1.25s-.76,1.24-1.68,1.24Zm-4.91-8.89c-1,0-1.75-.56-1.74-1.25s.79-1.24,1.76-1.24l18.95.06c1,0,1.75.56,1.75,1.24s-.79,1.24-1.76,1.24Zm-5.11-12.7a1.46,1.46,0,0,1-1.62-1.25,1.48,1.48,0,0,1,1.63-1.24l22.94.06a1.29,1.29,0,1,1,0,2.48Zm-6.2-11.43c-.92,0-1.66-.56-1.66-1.25s.75-1.24,1.67-1.24l29.1.06c.93,0,1.67.56,1.67,1.24s-.75,1.25-1.67,1.24Zm-4.95-11.43c-.94,0-1.71-.56-1.7-1.24s.76-1.25,1.7-1.24l35.28,0c.94,0,1.7.56,1.7,1.25s-.77,1.24-1.71,1.24Zm-5-10.16c-.93,0-1.69-.56-1.68-1.24s.75-1.24,1.68-1.24l40.31.05c.93,0,1.68.56,1.68,1.25s-.76,1.24-1.69,1.24Zm79.83-30a1.67,1.67,0,1,1,3.33,0l-.14,137.57a1.68,1.68,0,0,1-1.67,1.69l-112.56-.12a1.69,1.69,0,0,1,0-3.38l110.89.12Zm-7.49,5.08a1.67,1.67,0,1,1,3.34,0l-.14,124.88a1.68,1.68,0,0,1-1.67,1.68l-112.57-.12a1.68,1.68,0,0,1-1.67-1.69l0-9a1.67,1.67,0,1,1,3.33,0l0,7.33,109.24.12ZM166.5,45l.13,38.18A1.66,1.66,0,0,1,165,84.89a1.68,1.68,0,0,1-1.68-1.66l-.14-39.85a1.68,1.68,0,0,1,1.68-1.67l112.7.13a1.66,1.66,0,0,1,1.67,1.66v8.21a1.67,1.67,0,0,1-3.34,0V45.16Zm40.85,23.33c-1,0-1.77-.57-1.77-1.27s.79-1.26,1.77-1.26l18.92,0c1,0,1.77.56,1.77,1.26s-.8,1.26-1.77,1.26Zm0-8.89c-1,0-1.77-.57-1.77-1.27s.79-1.26,1.77-1.26l18.92,0c1,0,1.77.56,1.77,1.26s-.8,1.26-1.77,1.26Zm0,19.05c-1,0-1.77-.57-1.77-1.27s.79-1.26,1.77-1.26h18.92c1,0,1.77.57,1.77,1.27s-.8,1.26-1.77,1.26Zm-9.71,1.28-19.09,0a1.69,1.69,0,0,1-1.67-1.71l0-19.43a1.69,1.69,0,0,1,1.67-1.7l19.1,0a1.69,1.69,0,0,1,1.67,1.71l0,19.43A1.69,1.69,0,0,1,197.64,79.81ZM196,60.38l-15.75,0v16H196ZM314.77,43.13l-3,1.74,1.71,3,3-1.74ZM260,77.23l-.53-.93-.85,1Zm48.37-34.1a1.55,1.55,0,0,1,.39-.33l5.85-3.4a1.62,1.62,0,0,1,2.24.62L320.16,46a1.71,1.71,0,0,1-.61,2.29l-5.22,3,2.08,3.5a1.63,1.63,0,0,1-.63,2.25L298,66.89a1.73,1.73,0,0,1-2.32-.61,1.62,1.62,0,0,1,.63-2.24L312.61,55l-1-1.74L264,80.85a1.68,1.68,0,0,1-2.17-.42l-6.89.64a1.68,1.68,0,0,1-1.53-2.7l5.48-6.8a1.72,1.72,0,0,1,1.49-.64l47.82-27.72ZM195.59,172.44l-17.52,8.78a1.67,1.67,0,0,1-2.26-.79l-8-16.87a1.67,1.67,0,0,1-2-.91,1.73,1.73,0,0,1,.5-2.12l-8-16.76a1.74,1.74,0,0,1,.77-2.31l39-19.57a1.67,1.67,0,0,1,2.26.8l17.47,36.65a1.75,1.75,0,0,1-.77,2.32l-20.94,10.49a1.49,1.49,0,0,1-.3.18A1.08,1.08,0,0,1,195.59,172.44Zm.29-4,18.23-9.13-7.23-15.16-18.47,9.18ZM192.79,170l-7.47-15.12-14.5,7.21,7.29,15.27Zm-13.37-34.86,7.48,15.13,18.51-9.2-7.3-15.3Zm-3.08,1.55-14.23,7.13L169.35,159l14.45-7.19ZM175,145.09l.66-.34a1.66,1.66,0,0,1,2.27.83,1.83,1.83,0,0,1-.78,2.4l-.57.29L178,151a1.72,1.72,0,0,1-.81,2.32,1.79,1.79,0,0,1-2.36-.8l-1.3-2.61L169.34,152a1.66,1.66,0,0,1-2.27-.83,1.84,1.84,0,0,1,.78-2.39l4.05-2.09-1.08-2.18a1.71,1.71,0,0,1,.81-2.31A1.78,1.78,0,0,1,174,143Zm7.28,19,3.46,1.25a1.75,1.75,0,0,1,1,2.2,1.61,1.61,0,0,1-2.08,1.07l-3.52-1.27-1,2.78a1.71,1.71,0,0,1-2.16,1A1.67,1.67,0,0,1,177,169l1-2.86-1.24-.45a1.76,1.76,0,0,1-1-2.2,1.62,1.62,0,0,1,2.08-1.08l1.31.48.7-2a1.71,1.71,0,0,1,2.16-1A1.67,1.67,0,0,1,183,162ZM308.37,47,262,73.92,263.75,77l46.38-26.89Z"/></clipPath></defs><g id="Background"><path class="cls-1" d="M5,20.06a1.2,1.2,0,0,1,0-2.4H110.13A10.47,10.47,0,0,1,120.6,28.13v88.13a10.47,10.47,0,0,1-10.47,10.47H5a1.2,1.2,0,1,1,0-2.4H110.13a8.07,8.07,0,0,0,8.07-8.07V28.13a8.07,8.07,0,0,0-8.07-8.07Z"/><g class="cls-5"><rect class="cls-1" x="-1.02" y="12.83" width="126.45" height="118.73"/></g><path class="cls-1" d="M5,13.62a1.2,1.2,0,0,1,0-2.4H119.4a1.2,1.2,0,0,1,0,2.4Z"/><g class="cls-6"><rect class="cls-1" x="-1.02" y="6.38" width="126.45" height="12.07"/></g><path class="cls-1" d="M87.72,28.63a1.2,1.2,0,0,1,2.4,0V72.19a1.2,1.2,0,0,1-2.4,0Z"/><g class="cls-7"><rect class="cls-1" x="82.89" y="22.59" width="12.07" height="55.64"/></g><path class="cls-1" d="M75.74,28.63a1.2,1.2,0,1,1,2.4,0V72.19a1.2,1.2,0,0,1-2.4,0Z"/><g class="cls-8"><rect class="cls-1" x="70.9" y="22.59" width="12.07" height="55.64"/></g><path class="cls-1" d="M63.75,28.63a1.2,1.2,0,0,1,2.4,0V72.19a1.2,1.2,0,0,1-2.4,0Z"/><g class="cls-9"><rect class="cls-1" x="58.92" y="22.59" width="12.07" height="55.64"/></g><path class="cls-1" d="M51.77,28.63a1.2,1.2,0,0,1,2.4,0V72.19a1.2,1.2,0,0,1-2.4,0Z"/><g class="cls-10"><rect class="cls-1" x="46.93" y="22.59" width="12.07" height="55.64"/></g><path class="cls-1" d="M39.78,28.63a1.2,1.2,0,0,1,2.4,0V72.19a1.2,1.2,0,0,1-2.4,0Z"/><g class="cls-11"><rect class="cls-1" x="34.94" y="22.59" width="12.07" height="55.64"/></g><path class="cls-1" d="M27.79,28.63a1.2,1.2,0,0,1,2.4,0V72.19a1.2,1.2,0,0,1-2.4,0Z"/><g class="cls-12"><rect class="cls-1" x="22.96" y="22.59" width="12.07" height="55.64"/></g><path class="cls-1" d="M15.81,28.63a1.2,1.2,0,0,1,2.4,0V72.19a1.2,1.2,0,0,1-2.4,0Z"/><g class="cls-13"><rect class="cls-1" x="10.97" y="22.59" width="12.07" height="55.64"/></g><path class="cls-1" d="M100.06,61.93a1.2,1.2,0,1,1,0,2.39H5a1.2,1.2,0,1,1,0-2.39Z"/><g class="cls-14"><rect class="cls-1" x="-1.02" y="57.09" width="107.11" height="12.07"/></g><path class="cls-1" d="M100.06,53.45a1.2,1.2,0,1,1,0,2.4H5a1.2,1.2,0,0,1,0-2.4Z"/><g class="cls-15"><rect class="cls-1" x="-1.02" y="48.61" width="107.11" height="12.07"/></g><path class="cls-1" d="M100.06,45a1.2,1.2,0,1,1,0,2.39H5A1.2,1.2,0,1,1,5,45Z"/><g class="cls-16"><rect class="cls-1" x="-1.02" y="40.14" width="107.11" height="12.07"/></g><path class="cls-1" d="M100.06,36.5a1.2,1.2,0,0,1,0,2.4H5a1.2,1.2,0,0,1,0-2.4Z"/><g class="cls-17"><rect class="cls-1" x="-1.02" y="31.66" width="107.11" height="12.07"/></g><path class="cls-1" d="M98.86,29.83H5a1.2,1.2,0,0,1,0-2.4h95a1.2,1.2,0,0,1,1.2,1.2V72.19a1.2,1.2,0,0,1-1.2,1.2H5A1.2,1.2,0,1,1,5,71H98.86Z"/><g class="cls-18"><rect class="cls-1" x="-1.02" y="22.59" width="107.11" height="55.64"/></g><path class="cls-1" d="M5,85.3a1.2,1.2,0,1,1,0-2.4H41a1.2,1.2,0,0,1,1.2,1.2v28.73A1.2,1.2,0,0,1,41,114H5a1.2,1.2,0,1,1,0-2.4H39.78V85.3Z"/><g class="cls-19"><rect class="cls-1" x="-1.02" y="78.07" width="48.03" height="40.8"/></g><path class="cls-1" d="M62.88,199.88a22.26,22.26,0,1,1-25.33-18.7A22.27,22.27,0,0,1,62.88,199.88Zm-2.38.36a19.86,19.86,0,1,0-16.68,22.6A19.86,19.86,0,0,0,60.5,200.24Z"/><g class="cls-20"><rect class="cls-1" x="13.76" y="176.09" width="54.2" height="54.2"/></g><path class="cls-1" d="M61.75,198.12a1.2,1.2,0,0,1-.36-2.37l14-2.1a4.53,4.53,0,1,1,1.35,9l-14,2.1a1.2,1.2,0,0,1-.35-2.37l14-2.1a2.13,2.13,0,0,0-.63-4.22Z"/><g class="cls-21"><rect class="cls-1" x="55.54" y="188.76" width="29.86" height="20.79"/></g><path class="cls-1" d="M69.83,208.83a1.2,1.2,0,0,1,2.38-.36l1.56,10.41A9.8,9.8,0,0,1,65.54,230l-40.36,6.08A9.82,9.82,0,0,1,14,227.87L8,187.51a9.8,9.8,0,0,1,8.24-11.15l40.36-6.08a9.82,9.82,0,0,1,11.15,8.24l1.67,11.13a1.2,1.2,0,0,1-1,1.37A1.21,1.21,0,0,1,67,190l-1.67-11.13a7.4,7.4,0,0,0-8.43-6.22l-40.36,6.07a7.41,7.41,0,0,0-6.22,8.42l6.08,40.36a7.39,7.39,0,0,0,8.42,6.22l40.36-6.07a7.41,7.41,0,0,0,6.22-8.42Z"/><g class="cls-22"><rect class="cls-1" x="3" y="165.34" width="75.72" height="75.71"/></g><path class="cls-1" d="M100.43,151a10.74,10.74,0,0,1-10.74,10.74,10.35,10.35,0,0,1-2.16-.22,10.74,10.74,0,1,1,12.79-12.05A11.25,11.25,0,0,1,100.43,151ZM98,151a9.39,9.39,0,0,0-.08-1.19A8.34,8.34,0,1,0,88,159.15a8.47,8.47,0,0,0,1.68.17A8.33,8.33,0,0,0,98,151Z"/><g class="cls-23"><rect class="cls-1" x="74.11" y="135.4" width="31.15" height="31.15"/></g><path class="cls-1" d="M103.89,153.89a1.2,1.2,0,0,1,1.9-1.47,10.74,10.74,0,0,1-16.06,14.19,1.2,1.2,0,1,1,1.69-1.7,8.34,8.34,0,0,0,12.47-11Z"/><g class="cls-24"><rect class="cls-1" x="84.53" y="147.12" width="28.33" height="27.44"/></g><path class="cls-1" d="M131.12,146.19a10.74,10.74,0,1,1-10.74-10.74A10.74,10.74,0,0,1,131.12,146.19Zm-2.4,0a8.34,8.34,0,1,0-8.34,8.34A8.33,8.33,0,0,0,128.72,146.19Z"/><g class="cls-25"><rect class="cls-1" x="104.81" y="130.61" width="31.15" height="31.15"/></g><path class="cls-1" d="M131.12,178.19a10.74,10.74,0,1,1-10.74-10.74A10.74,10.74,0,0,1,131.12,178.19Zm-2.4,0a8.34,8.34,0,1,0-8.34,8.34A8.33,8.33,0,0,0,128.72,178.19Z"/><g class="cls-26"><rect class="cls-1" x="104.81" y="162.61" width="31.15" height="31.15"/></g><path class="cls-1" d="M335.26,214.09l-24-9.93a8.85,8.85,0,0,1-4.8-11.55l23.74-57.42a8.84,8.84,0,0,1,11.54-4.8l24,9.93a8.85,8.85,0,0,1,4.79,11.55L346.8,209.29A8.83,8.83,0,0,1,335.26,214.09Zm.92-2.23a6.41,6.41,0,0,0,8.39-3.49L368.31,151a6.43,6.43,0,0,0-3.48-8.4l-24-9.93a6.41,6.41,0,0,0-8.39,3.49l-23.74,57.42a6.43,6.43,0,0,0,3.49,8.4Z"/><g class="cls-27"><rect class="cls-1" x="300.91" y="124.86" width="75.15" height="94.75"/></g><path class="cls-1" d="M325,204.82a5.08,5.08,0,1,1,6.62-2.76A5.08,5.08,0,0,1,325,204.82Zm3-7.16a2.67,2.67,0,1,0,1.45,3.48A2.67,2.67,0,0,0,328,197.66Z"/><g class="cls-28"><rect class="cls-1" x="317.03" y="190.19" width="19.87" height="19.87"/></g><path class="cls-1" d="M346.52,142.51a1.21,1.21,0,1,1,.93-2.23l7.26,3a1.2,1.2,0,1,1-.92,2.22Z"/><g class="cls-29"><rect class="cls-1" x="340.92" y="135.33" width="19.39" height="15.13"/></g><path class="cls-1" d="M310.72,185.41a1.21,1.21,0,0,1,.92-2.23L349.77,199a1.2,1.2,0,1,1-.92,2.22Z"/><g class="cls-30"><rect class="cls-1" x="305.12" y="178.24" width="50.25" height="27.88"/></g><path class="cls-1" d="M328.36,142.73a1.2,1.2,0,0,1,.92-2.22l38.13,15.76a1.2,1.2,0,1,1-.92,2.22Z"/><g class="cls-31"><rect class="cls-1" x="322.76" y="135.56" width="50.25" height="27.88"/></g><path class="cls-1" d="M433.89,234.59a1.2,1.2,0,0,1,.47,2.36l-29.21,5.8a11.36,11.36,0,0,1-12.56-6.47,11,11,0,0,1-.79-2.46l-5.9-29.74-5.95-30-.15-.77A11.35,11.35,0,0,1,388.72,160l40.9-8.12a11.23,11.23,0,0,1,4.51,0,1.2,1.2,0,0,1,.94,1.42,1.21,1.21,0,0,1-1.42.94,9.07,9.07,0,0,0-3.56,0l-40.9,8.12a9,9,0,0,0-7,10.52l.15.77,5.95,30,5.9,29.74a9.76,9.76,0,0,0,.62,1.94,9,9,0,0,0,9.9,5.09Z"/><g class="cls-32"><rect class="cls-1" x="374.72" y="146.8" width="65.46" height="101.03"/></g><path class="cls-1" d="M379.46,181.27a1.21,1.21,0,1,1-.47-2.37l6-1.2a1.21,1.21,0,0,1,.46,2.37Z"/><g class="cls-33"><rect class="cls-1" x="373.16" y="172.82" width="18.16" height="13.32"/></g><path class="cls-1" d="M381.51,191.58a1.2,1.2,0,1,1-.47-2.36l6-1.2a1.21,1.21,0,0,1,.47,2.37Z"/><g class="cls-34"><rect class="cls-1" x="375.21" y="183.14" width="18.16" height="13.32"/></g><path class="cls-1" d="M383.56,201.9a1.2,1.2,0,1,1-.47-2.36l6-1.2a1.21,1.21,0,0,1,.47,2.37Z"/><g class="cls-35"><rect class="cls-1" x="377.26" y="193.46" width="18.16" height="13.32"/></g><path class="cls-1" d="M385.61,212.22a1.2,1.2,0,1,1-.47-2.36l6-1.2a1.21,1.21,0,0,1,.47,2.37Z"/><g class="cls-36"><rect class="cls-1" x="379.31" y="203.78" width="18.16" height="13.32"/></g><path class="cls-1" d="M387.65,222.54a1.2,1.2,0,1,1-.46-2.36l6-1.2a1.2,1.2,0,1,1,.47,2.36Z"/><g class="cls-37"><rect class="cls-1" x="381.36" y="214.1" width="18.16" height="13.32"/></g><path class="cls-1" d="M389.7,232.86a1.2,1.2,0,0,1-.47-2.36l6-1.2a1.2,1.2,0,0,1,.47,2.36Z"/><g class="cls-38"><rect class="cls-1" x="383.41" y="224.42" width="18.16" height="13.32"/></g><path class="cls-1" d="M407.73,196.88a1.21,1.21,0,1,1-.47-2.37l15.4-3a1.2,1.2,0,1,1,.47,2.36Z"/><g class="cls-39"><rect class="cls-1" x="401.43" y="186.58" width="27.53" height="15.18"/></g><path class="cls-1" d="M404.33,204.7a1.2,1.2,0,0,1-.47-2.36l24.93-5a1.21,1.21,0,0,1,.47,2.37Z"/><g class="cls-40"><rect class="cls-1" x="398.04" y="192.51" width="37.05" height="17.07"/></g><path class="cls-1" d="M433.78,81.35a1,1,0,0,1,.6,1.91l-89.13,27.61a1,1,0,0,1-1.25-.65L325.6,50.81a1,1,0,0,1,1.25-1.25l64.84,20.79,41.73-53.81A1,1,0,0,1,435,17.77L392.84,72.13a1,1,0,0,1-1.09.34L328.07,52.05l17.55,56.62Z"/><g class="cls-41"><rect class="cls-1" x="320.69" y="11.3" width="119.37" height="104.48"/></g><path class="cls-1" d="M421.86,12a1,1,0,1,1,1.91-.59l1.61,5.22a1,1,0,1,1-1.9.59Z"/><g class="cls-42"><rect class="cls-1" x="416.96" y="5.8" width="13.33" height="16.93"/></g><path class="cls-1" d="M335.41,44.46a1,1,0,0,1-1.91.59l-8-25.72a1,1,0,0,1,.66-1.25L350,10.7a1,1,0,1,1,.59,1.91l-22.85,7.08Z"/><g class="cls-43"><rect class="cls-1" x="320.63" y="5.8" width="35.52" height="44.81"/></g><path class="cls-1" d="M341.07,26.05a1,1,0,0,1-.59-1.91L383.85,10.7a1,1,0,1,1,.59,1.91Z"/><g class="cls-44"><rect class="cls-1" x="334.92" y="5.8" width="55.08" height="25.15"/></g><path class="cls-1" d="M344.36,36.69a1,1,0,0,1-.59-1.91l67.34-20.87a1,1,0,1,1,.59,1.91Z"/><g class="cls-45"><rect class="cls-1" x="338.21" y="9.01" width="79.05" height="32.57"/></g><path class="cls-1" d="M347.66,47.32a1,1,0,1,1-.59-1.9L414.4,24.55a1,1,0,1,1,.59,1.91Z"/><g class="cls-46"><rect class="cls-1" x="341.51" y="19.65" width="79.05" height="32.57"/></g><path class="cls-1" d="M366.34,53.2a1,1,0,0,1-1.25-.66,1,1,0,0,1,.65-1.25L402.32,40a1,1,0,1,1,.59,1.9Z"/><g class="cls-47"><rect class="cls-1" x="360.18" y="35.05" width="48.29" height="23.04"/></g></g><g id="Fill"><path class="cls-48" d="M186.86,84.6a5,5,0,0,0-4.08.11l-17,9-.14-49.52h13.11Zm75-4.43.14.25.55-.33Zm-3.06.33-4.6.49,5.32-7.62,3.34,6.53,47.45-28.56,5.88-3.55L314.73,45l1-.62a1.59,1.59,0,0,1,1.26-.17,1.67,1.67,0,0,1,1,.81l3.37,6.19a1.79,1.79,0,0,1,.16,1.32,1.71,1.71,0,0,1-.77,1.06l-4.52,2.72,2,3.61a1.78,1.78,0,0,1,.16,1.32,1.7,1.7,0,0,1-.78,1.05L300.24,72.78a1.59,1.59,0,0,1-.83.24,1.68,1.68,0,0,1-1.44-.88,1.79,1.79,0,0,1,.62-2.38l16-9.6-1.14-2.1L286.68,74.14,286.53,203h.15v8.75h-.16L278,203l.14-123.71-11.51,6.93,0,0-.11,0a.2.2,0,0,1-.08,0l-.11,0-.09,0-.11,0-.1,0h0l-8.62.87h-.16a1.65,1.65,0,0,1-1.46-.9,1.85,1.85,0,0,1,.15-1.92l2.8-3.75ZM177.36,191.7l10.78-5.45L178.6,191s-4.6,2.36-7.09-3L135,113.78s-2.3-4.45,2.32-6.68L151.89,100l41.19,83.72,27.51-13.9s6.62-2.22,3.69-8.45L187.63,83.53A9.5,9.5,0,0,1,196,89.08l33.59,71.37a10,10,0,0,1-4.39,13.2l-19.85,10,4,20.49-43.67,0,0-21.32,3.7,7.44a4.88,4.88,0,0,0,6.47,2.19Z"/><g class="cls-49"><rect class="cls-3" x="126.97" y="26.69" width="199.64" height="199.68"/><g class="cls-50"><rect class="cls-3" x="128.22" y="37.93" width="199.64" height="180.1"/></g></g></g><g id="Outlines"><path class="cls-51" d="M204.38,151.1a1.66,1.66,0,0,1,2.27.83,1.81,1.81,0,0,1-.78,2.39l-7.83,4a1.66,1.66,0,0,1-2.27-.83,1.83,1.83,0,0,1,.78-2.39Zm1.25,3.81a1.66,1.66,0,0,1,2.27.83,1.83,1.83,0,0,1-.78,2.39l-7.83,4a1.66,1.66,0,0,1-2.27-.83,1.82,1.82,0,0,1,.78-2.39Zm-8.74-20.31a1.66,1.66,0,0,1,2.28.82,1.85,1.85,0,0,1-.78,2.4l-7.84,4a1.66,1.66,0,0,1-2.27-.82,1.84,1.84,0,0,1,.78-2.4Zm27.47,35.22-47.22,23.59a6.48,6.48,0,0,1-8.76-3.07l-35.75-74.76a6.75,6.75,0,0,1,3-9L165,92,182.86,83a6.49,6.49,0,0,1,8.76,3.07l35.75,74.76A6.77,6.77,0,0,1,224.36,169.82Zm0-7.46L188.62,87.6a3.19,3.19,0,0,0-4.3-1.51L166.47,95,137.1,109.69a3.31,3.31,0,0,0-1.48,4.39l35.76,74.76a3.18,3.18,0,0,0,4.3,1.51l47.22-23.59A3.34,3.34,0,0,0,224.38,162.36Zm-32.22-48.73L153.52,133a1.65,1.65,0,0,1-2.23-.79l-7.93-16.6a1.73,1.73,0,0,1,.77-2.29L182.77,94a1.65,1.65,0,0,1,2.23.79l7.93,16.6A1.73,1.73,0,0,1,192.16,113.63Zm-3-2.32-6.46-13.53L147.1,115.61l6.46,13.53Zm76,51.54a1.56,1.56,0,0,1,2.29,0,1.74,1.74,0,0,1,0,2.4l-8.85,9.3a1.57,1.57,0,0,1-2.29,0l-2.88-3a1.77,1.77,0,0,1,0-2.41,1.57,1.57,0,0,1,2.29,0l1.74,1.83Zm0-21.59a1.57,1.57,0,0,1,2.29,0,1.75,1.75,0,0,1,0,2.41L258.64,153a1.56,1.56,0,0,1-2.29,0l-2.88-3a1.76,1.76,0,0,1,0-2.4,1.56,1.56,0,0,1,2.29,0l1.74,1.82Zm0-24.13a1.57,1.57,0,0,1,2.29,0,1.75,1.75,0,0,1,0,2.41l-8.85,9.3a1.57,1.57,0,0,1-2.29,0l-2.88-3a1.77,1.77,0,0,1,0-2.41,1.57,1.57,0,0,1,2.29,0l1.74,1.83Zm0-22.85a1.56,1.56,0,0,1,2.29,0,1.74,1.74,0,0,1,0,2.4l-8.85,9.3a1.57,1.57,0,0,1-2.29,0l-2.88-3a1.77,1.77,0,0,1,0-2.41,1.57,1.57,0,0,1,2.29,0l1.74,1.83Zm-50.5,87.07c-.91,0-1.64-.56-1.63-1.25a1.47,1.47,0,0,1,1.63-1.24l27.93,0a1.3,1.3,0,1,1,0,2.5Zm15.07-11.43c-1,0-1.74-.56-1.73-1.25s.78-1.24,1.74-1.24l14,0c1,0,1.73.57,1.73,1.26s-.79,1.24-1.75,1.24Zm-.07-12.7c-.92,0-1.67-.57-1.66-1.25s.75-1.24,1.68-1.24l12.88.05c.92,0,1.66.57,1.66,1.25s-.76,1.24-1.68,1.24Zm-4.91-8.89c-1,0-1.75-.56-1.74-1.25s.79-1.24,1.76-1.24l18.95.06c1,0,1.75.56,1.75,1.24s-.79,1.24-1.76,1.24Zm-5.11-12.7a1.46,1.46,0,0,1-1.62-1.25,1.48,1.48,0,0,1,1.63-1.24l22.94.06a1.29,1.29,0,1,1,0,2.48Zm-6.2-11.43c-.92,0-1.66-.56-1.66-1.25s.75-1.24,1.67-1.24l29.1.06c.93,0,1.67.56,1.67,1.24s-.75,1.25-1.67,1.24Zm-4.95-11.43c-.94,0-1.71-.56-1.7-1.24s.76-1.25,1.7-1.24l35.28,0c.94,0,1.7.56,1.7,1.25s-.77,1.24-1.71,1.24Zm-5-10.16c-.93,0-1.69-.56-1.68-1.24s.75-1.24,1.68-1.24l40.31.05c.93,0,1.68.56,1.68,1.25s-.76,1.24-1.69,1.24Zm79.83-30a1.67,1.67,0,1,1,3.33,0l-.14,137.57a1.68,1.68,0,0,1-1.67,1.69l-112.56-.12a1.69,1.69,0,0,1,0-3.38l110.89.12Zm-7.49,5.08a1.67,1.67,0,1,1,3.34,0l-.14,124.88a1.68,1.68,0,0,1-1.67,1.68l-112.57-.12a1.68,1.68,0,0,1-1.67-1.69l0-9a1.67,1.67,0,1,1,3.33,0l0,7.33,109.24.12ZM166.5,45l.13,38.18A1.66,1.66,0,0,1,165,84.89a1.68,1.68,0,0,1-1.68-1.66l-.14-39.85a1.68,1.68,0,0,1,1.68-1.67l112.7.13a1.66,1.66,0,0,1,1.67,1.66v8.21a1.67,1.67,0,0,1-3.34,0V45.16Zm40.85,23.33c-1,0-1.77-.57-1.77-1.27s.79-1.26,1.77-1.26l18.92,0c1,0,1.77.56,1.77,1.26s-.8,1.26-1.77,1.26Zm0-8.89c-1,0-1.77-.57-1.77-1.27s.79-1.26,1.77-1.26l18.92,0c1,0,1.77.56,1.77,1.26s-.8,1.26-1.77,1.26Zm0,19.05c-1,0-1.77-.57-1.77-1.27s.79-1.26,1.77-1.26h18.92c1,0,1.77.57,1.77,1.27s-.8,1.26-1.77,1.26Zm-9.71,1.28-19.09,0a1.69,1.69,0,0,1-1.67-1.71l0-19.43a1.69,1.69,0,0,1,1.67-1.7l19.1,0a1.69,1.69,0,0,1,1.67,1.71l0,19.43A1.69,1.69,0,0,1,197.64,79.81ZM196,60.38l-15.75,0v16H196ZM314.77,43.13l-3,1.74,1.71,3,3-1.74ZM260,77.23l-.53-.93-.85,1Zm48.37-34.1a1.55,1.55,0,0,1,.39-.33l5.85-3.4a1.62,1.62,0,0,1,2.24.62L320.16,46a1.71,1.71,0,0,1-.61,2.29l-5.22,3,2.08,3.5a1.63,1.63,0,0,1-.63,2.25L298,66.89a1.73,1.73,0,0,1-2.32-.61,1.62,1.62,0,0,1,.63-2.24L312.61,55l-1-1.74L264,80.85a1.68,1.68,0,0,1-2.17-.42l-6.89.64a1.68,1.68,0,0,1-1.53-2.7l5.48-6.8a1.72,1.72,0,0,1,1.49-.64l47.82-27.72ZM195.59,172.44l-17.52,8.78a1.67,1.67,0,0,1-2.26-.79l-8-16.87a1.67,1.67,0,0,1-2-.91,1.73,1.73,0,0,1,.5-2.12l-8-16.76a1.74,1.74,0,0,1,.77-2.31l39-19.57a1.67,1.67,0,0,1,2.26.8l17.47,36.65a1.75,1.75,0,0,1-.77,2.32l-20.94,10.49a1.49,1.49,0,0,1-.3.18A1.08,1.08,0,0,1,195.59,172.44Zm.29-4,18.23-9.13-7.23-15.16-18.47,9.18ZM192.79,170l-7.47-15.12-14.5,7.21,7.29,15.27Zm-13.37-34.86,7.48,15.13,18.51-9.2-7.3-15.3Zm-3.08,1.55-14.23,7.13L169.35,159l14.45-7.19ZM175,145.09l.66-.34a1.66,1.66,0,0,1,2.27.83,1.83,1.83,0,0,1-.78,2.4l-.57.29L178,151a1.72,1.72,0,0,1-.81,2.32,1.79,1.79,0,0,1-2.36-.8l-1.3-2.61L169.34,152a1.66,1.66,0,0,1-2.27-.83,1.84,1.84,0,0,1,.78-2.39l4.05-2.09-1.08-2.18a1.71,1.71,0,0,1,.81-2.31A1.78,1.78,0,0,1,174,143Zm7.28,19,3.46,1.25a1.75,1.75,0,0,1,1,2.2,1.61,1.61,0,0,1-2.08,1.07l-3.52-1.27-1,2.78a1.71,1.71,0,0,1-2.16,1A1.67,1.67,0,0,1,177,169l1-2.86-1.24-.45a1.76,1.76,0,0,1-1-2.2,1.62,1.62,0,0,1,2.08-1.08l1.31.48.7-2a1.71,1.71,0,0,1,2.16-1A1.67,1.67,0,0,1,183,162ZM308.37,47,262,73.92,263.75,77l46.38-26.89Z"/><g class="cls-52"><rect class="cls-53" x="126.97" y="26.69" width="199.64" height="199.68"/></g></g></svg> 