<svg xmlns="http://www.w3.org/2000/svg" viewBox="0 0 440 252"><defs><style>.cls-1{fill:#ffb7a7;}.cls-2{fill:#fe704f;}.cls-3{fill:#231f20;}</style></defs><g id="Background"><path class="cls-1" d="M177.16,209H11.89a1,1,0,0,1,0-2H177.16a1,1,0,0,1,0,2Z"/><path class="cls-1" d="M184.92,190.78h-173a1,1,0,0,1,0-2h173a1,1,0,0,1,0,2Z"/><path class="cls-1" d="M177.27,169.94a7.34,7.34,0,0,1-4.69-2.07L94.81,99a29.93,29.93,0,0,0-17.36-7.29C65.38,91,57.11,100,57,100.05L15.24,139.73a1,1,0,0,1-1.41,0,1,1,0,0,1,0-1.42L55.6,98.66c.3-.35,8.9-9.77,22-9A31.4,31.4,0,0,1,96.16,97.5L174,166.42a5.46,5.46,0,0,0,3.32,1.52,1,1,0,1,1,0,2Z"/><path class="cls-1" d="M50.3,123.18l-.4,0c-4.13-.48-8-5.49-8.21-5.7a1,1,0,0,1,1.58-1.22s3.57,4.55,6.87,4.94c1.35.17,3.26-2,4.94-3.82,2.14-2.38,4.36-4.84,6.91-4.84s4.69,2,7.09,4.09c2.17,1.92,4.43,3.9,6.44,3.9,1.81,0,3.71-1.85,5.71-3.81,2.46-2.4,5-4.89,8.12-4.62s5.67,3,7.93,5.33c1.6,1.66,3.2,3.38,4.33,3.32,2.89-.19,6.18-3.64,6.21-3.68a1,1,0,0,1,1.46,1.37c-.16.17-3.86,4.06-7.54,4.3-2,.15-3.82-1.75-5.9-3.93s-4.31-4.51-6.67-4.71-4.41,2-6.54,4.05-4.48,4.38-7.11,4.38-5.31-2.24-7.76-4.39c-2-1.77-4.09-3.6-5.77-3.6s-3.66,2.22-5.42,4.18C54.5,121,52.53,123.18,50.3,123.18Z"/><path class="cls-1" d="M98.91,51.66H73.07a9.09,9.09,0,1,1,0-18.18h7a9.19,9.19,0,0,1,17.38,0h1.51a9.09,9.09,0,1,1,0,18.18ZM73.07,35.48a7.09,7.09,0,0,0,0,14.18H98.91a7.09,7.09,0,1,0,0-14.18H96.66a1,1,0,0,1-1-.76,7.19,7.19,0,0,0-14,0,1,1,0,0,1-1,.76Z"/><path class="cls-1" d="M38.72,109.86a1,1,0,0,1-.86-.48c-8-13-23.52-11.95-23.67-11.94a1,1,0,1,1-.16-2c.17,0,16.89-1.22,25.54,12.89a1,1,0,0,1-.33,1.37A1,1,0,0,1,38.72,109.86Z"/><path class="cls-1" d="M114.53,111a1,1,0,0,1-.65-.25,1,1,0,0,1-.1-1.41c.49-.56,12.15-13.83,21.81-13.2,8.84-.63,17.08,9.91,17.42,10.36a1,1,0,1,1-1.58,1.23c-.08-.11-8-10.23-15.76-9.59h-.15c-8.76-.63-20.12,12.38-20.23,12.51A1,1,0,0,1,114.53,111Z"/><path class="cls-1" d="M53.2,150.26H38.08a4,4,0,0,1-4-4v-.81c0-1.71,6.79-11.2,10.84-16.7a1,1,0,0,1,.8-.41,1,1,0,0,1,.81.41c4,5.51,10.67,15,10.67,16.7v.81A4,4,0,0,1,53.2,150.26ZM45.72,131c-4.69,6.43-9.4,13.35-9.64,14.48v.74a2,2,0,0,0,2,2H53.2a2,2,0,0,0,2-2v-.81C55,144.39,50.33,137.47,45.72,131Z"/><path class="cls-1" d="M55.16,163.07h-19c-2.63,0-4.78-1.8-4.78-4v-.82c0-1.16,2.05-4.42,3.52-6.33a1,1,0,1,1,1.58,1.22,21.21,21.21,0,0,0-3.1,5.18v.75c0,1.08,1.27,2,2.78,2h19c1.51,0,2.78-.92,2.78-2v-.75a32.47,32.47,0,0,0-3.16-5.22A1,1,0,1,1,56.43,152c3.51,5.15,3.51,6,3.51,6.28v.82C59.94,161.27,57.8,163.07,55.16,163.07ZM58,158.35Z"/><path class="cls-1" d="M57.13,176h-23c-3.12,0-5.56-1.75-5.56-4v-.81c0-.69.52-1.83,3.38-6.09a1,1,0,1,1,1.66,1.11c-2.39,3.57-3,4.72-3.05,5V172c0,.95,1.46,2,3.56,2h23c2.1,0,3.56-1.05,3.56-2v-.74A50.59,50.59,0,0,0,57.36,166,1,1,0,0,1,59,164.84c2.88,4.32,3.66,5.6,3.66,6.38V172C62.69,174.28,60.25,176,57.13,176Z"/><path class="cls-1" d="M42.65,184.46a1,1,0,0,1-1-1v-6a1,1,0,0,1,2,0v6A1,1,0,0,1,42.65,184.46Z"/><path class="cls-1" d="M48.64,184.46a1,1,0,0,1-1-1v-6a1,1,0,0,1,2,0v6A1,1,0,0,1,48.64,184.46Z"/><path class="cls-1" d="M91.66,152.67H77.75A3.74,3.74,0,0,1,74,149v-.74c0-1.49,5.42-9.05,10-15.13a1,1,0,0,1,.8-.4,1.11,1.11,0,0,1,.8.4c4.49,6.08,9.83,13.64,9.83,15.13V149A3.74,3.74,0,0,1,91.66,152.67Zm-6.89-17.3c-4.26,5.74-8.54,11.9-8.78,12.95V149a1.73,1.73,0,0,0,1.75,1.71H91.66A1.73,1.73,0,0,0,93.41,149v-.74C93.18,147.26,89,141.11,84.77,135.37Z"/><path class="cls-1" d="M93.46,164.22H76c-2.47,0-4.48-1.66-4.48-3.71v-.74c0-1.11,2-4.1,3.26-5.77a1,1,0,1,1,1.57,1.24,19.73,19.73,0,0,0-2.84,4.62v.65c0,.93,1.14,1.71,2.48,1.71H93.46c1.34,0,2.48-.78,2.48-1.71v-.66a32.18,32.18,0,0,0-2.89-4.66,1,1,0,1,1,1.64-1.14c3.25,4.67,3.25,5.41,3.25,5.72v.74C97.94,162.56,95.93,164.22,93.46,164.22ZM96,159.89Z"/><path class="cls-1" d="M95.27,175.92H74.14c-2.91,0-5.19-1.63-5.19-3.7v-.74c0-.66.47-1.66,3.13-5.56a1,1,0,0,1,1.65,1.13c-2.18,3.19-2.72,4.22-2.79,4.52v.65c0,.8,1.36,1.7,3.19,1.7H95.27c1.83,0,3.19-.9,3.19-1.7v-.65a45.8,45.8,0,0,0-3-4.79,1,1,0,0,1,1.66-1.12c2.66,3.92,3.38,5.08,3.38,5.82v.74C100.46,174.29,98.18,175.92,95.27,175.92Z"/><path class="cls-1" d="M82,184.46a1,1,0,0,1-1-1V178a1,1,0,0,1,2,0v5.51A1,1,0,0,1,82,184.46Z"/><path class="cls-1" d="M87.46,184.46a1,1,0,0,1-1-1V178a1,1,0,0,1,2,0v5.51A1,1,0,0,1,87.46,184.46Z"/><path class="cls-1" d="M127.25,155h-12.7a3.47,3.47,0,0,1-3.52-3.41V151c0-1.1,3.07-5.67,9.14-13.59a1,1,0,0,1,.8-.39,1,1,0,0,1,.79.4c6,7.92,9,12.49,9,13.58v.66A3.47,3.47,0,0,1,127.25,155Zm-14.22-4v.58a1.47,1.47,0,0,0,1.52,1.41h12.7a1.47,1.47,0,0,0,1.52-1.41V151c-.33-1-4.07-6.39-7.81-11.39C117.17,144.64,113.36,150,113,151.05Zm0,0Zm15.76,0Z"/><path class="cls-1" d="M128.9,165.36h-16c-2.3,0-4.18-1.53-4.18-3.42v-.65c0-1,1.79-3.74,3-5.24a1,1,0,0,1,1.4-.15,1,1,0,0,1,.15,1.41,18.42,18.42,0,0,0-2.56,4v.59c0,.76,1,1.42,2.18,1.42h16c1.16,0,2.17-.66,2.17-1.42v-.56a28.84,28.84,0,0,0-2.62-4.12,1,1,0,0,1,1.63-1.16c3,4.2,3,4.87,3,5.19v.65C133.07,163.83,131.2,165.36,128.9,165.36Zm2.19-3.94Z"/><path class="cls-1" d="M130.55,175.81h-19.3c-2.71,0-4.83-1.5-4.83-3.41v-.66c0-.63.41-1.51,2.88-5a1,1,0,0,1,1.39-.24,1,1,0,0,1,.25,1.39,25.51,25.51,0,0,0-2.52,4v.59c0,.57,1.1,1.41,2.83,1.41h19.3c1.73,0,2.83-.84,2.83-1.41v-.56a44.13,44.13,0,0,0-2.75-4.22l1.64-1.15c2.48,3.58,3.11,4.57,3.11,5.27v.66C135.38,174.31,133.26,175.81,130.55,175.81Zm2.85-3.92Zm-25,0Z"/><path class="cls-1" d="M118.38,184.46a1,1,0,0,1-1-1v-5a1,1,0,0,1,2,0v5A1,1,0,0,1,118.38,184.46Z"/><path class="cls-1" d="M123.41,184.46a1,1,0,0,1-1-1v-5a1,1,0,0,1,2,0v5A1,1,0,0,1,123.41,184.46Z"/><path class="cls-1" d="M425.68,209H260.41a1,1,0,0,1,0-2H425.68a1,1,0,0,1,0,2Z"/><path class="cls-1" d="M425.68,190.78h-173a1,1,0,0,1,0-2h173a1,1,0,0,1,0,2Z"/><path class="cls-1" d="M260.3,169.94a1,1,0,0,1,0-2,5.48,5.48,0,0,0,3.28-1.48l77.86-69A31.45,31.45,0,0,1,360,89.68c13.11-.79,21.67,8.63,22,9l41.68,39.57a1,1,0,1,1-1.38,1.45L380.6,100.11c-.14-.15-8.39-9.17-20.48-8.43a29.9,29.9,0,0,0-17.32,7.26l-77.85,69A7.32,7.32,0,0,1,260.3,169.94Z"/><path class="cls-1" d="M387.27,123.18c-2.23,0-4.19-2.19-6.27-4.49-1.76-2-3.75-4.18-5.42-4.18s-3.76,1.83-5.77,3.6c-2.45,2.15-5,4.39-7.75,4.39s-4.91-2.23-7.12-4.38-4.34-4.25-6.54-4.05-4.64,2.6-6.66,4.71-3.92,4.07-5.91,3.93c-3.68-.24-7.38-4.13-7.54-4.3a1,1,0,0,1,1.46-1.37s3.32,3.49,6.21,3.68c1.06.06,2.73-1.66,4.33-3.32,2.27-2.37,4.83-5.06,7.93-5.33s5.66,2.22,8.12,4.62c2,2,3.9,3.81,5.72,3.81,2,0,4.26-2,6.43-3.9,2.4-2.1,4.66-4.09,7.09-4.09s4.77,2.46,6.91,4.84c1.68,1.87,3.59,4,4.94,3.82,2.75-.33,5.89-3.68,6.87-4.94a1,1,0,0,1,1.58,1.22c-.17.21-4.07,5.22-8.21,5.7Z"/><path class="cls-1" d="M384.5,51.66H358.67a9.09,9.09,0,0,1,0-18.18h1.5a9.19,9.19,0,0,1,17.39,0h6.94a9.09,9.09,0,0,1,0,18.18ZM358.67,35.48a7.09,7.09,0,0,0,0,14.18H384.5a7.09,7.09,0,0,0,0-14.18h-7.69a1,1,0,0,1-1-.76,7.19,7.19,0,0,0-13.95,0,1,1,0,0,1-1,.76Z"/><path class="cls-1" d="M398.86,109.86a1,1,0,0,1-.53-.15,1,1,0,0,1-.33-1.37c8.65-14.11,25.38-12.91,25.55-12.89a1,1,0,0,1,.91,1.07,1,1,0,0,1-1.08.92c-.15,0-15.68-1.1-23.67,11.94A1,1,0,0,1,398.86,109.86Z"/><path class="cls-1" d="M323,111a1,1,0,0,1-.76-.35c-.11-.13-11.53-13.13-20.23-12.51h-.15c-7.76-.63-15.68,9.48-15.76,9.59a1,1,0,1,1-1.58-1.23c.35-.45,8.58-11,17.42-10.36,9.7-.62,21.32,12.64,21.81,13.2a1,1,0,0,1-.1,1.41A1,1,0,0,1,323,111Z"/><path class="cls-1" d="M399.49,150.26H384.37a4,4,0,0,1-4-4v-.81c0-1.7,6.69-11.19,10.67-16.7a1,1,0,0,1,.81-.41h0a1,1,0,0,1,.81.41c4,5.5,10.83,15,10.83,16.7v.81A4,4,0,0,1,399.49,150.26ZM391.86,131c-4.62,6.43-9.26,13.35-9.49,14.48v.74a2,2,0,0,0,2,2h15.12a2,2,0,0,0,2-2v-.81C401.26,144.38,396.54,137.47,391.86,131Z"/><path class="cls-1" d="M401.45,163.07h-19c-2.64,0-4.78-1.8-4.78-4v-.82c0-.31,0-1.13,3.51-6.28a1,1,0,0,1,1.65,1.13,32.47,32.47,0,0,0-3.16,5.22v.75c0,1.08,1.27,2,2.78,2h19c1.51,0,2.78-.92,2.78-2v-.82a22.49,22.49,0,0,0-3.1-5.11,1,1,0,1,1,1.58-1.22c1.48,1.91,3.52,5.17,3.52,6.33v.82C406.23,161.27,404.09,163.07,401.45,163.07Zm-21.83-4.72Z"/><path class="cls-1" d="M403.41,176h-23c-3.11,0-5.56-1.75-5.56-4v-.81c0-.78.78-2.06,3.66-6.38a1,1,0,1,1,1.67,1.11,50.59,50.59,0,0,0-3.33,5.34V172c0,.95,1.47,2,3.56,2h23c2.1,0,3.56-1.05,3.56-2v-.81c-.06-.26-.64-1.4-3-5a1,1,0,1,1,1.66-1.11c2.86,4.27,3.38,5.4,3.38,6.09V172C409,174.28,406.53,176,403.41,176Z"/><path class="cls-1" d="M394.92,184.46a1,1,0,0,1-1-1v-6a1,1,0,1,1,2,0v6A1,1,0,0,1,394.92,184.46Z"/><path class="cls-1" d="M388.94,184.46a1,1,0,0,1-1-1v-6a1,1,0,1,1,2,0v6A1,1,0,0,1,388.94,184.46Z"/><path class="cls-1" d="M359.82,152.67h-13.9a3.74,3.74,0,0,1-3.76-3.71v-.74c0-1.49,5.34-9.05,9.83-15.13a1,1,0,0,1,.8-.4h0a1,1,0,0,1,.8.4c4.56,6.08,10,13.64,10,15.13V149A3.75,3.75,0,0,1,359.82,152.67Zm-7-17.3c-4.2,5.74-8.41,11.9-8.65,12.94V149a1.74,1.74,0,0,0,1.76,1.71h13.9a1.74,1.74,0,0,0,1.76-1.71v-.74C361.34,147.26,357.06,141.11,352.8,135.37Z"/><path class="cls-1" d="M361.62,164.22H344.11c-2.47,0-4.48-1.66-4.48-3.71v-.74c0-.31,0-1.05,3.25-5.72a1,1,0,1,1,1.65,1.14,31.75,31.75,0,0,0-2.9,4.66v.66c0,.93,1.14,1.71,2.48,1.71h17.51c1.35,0,2.48-.78,2.48-1.71v-.74a21.12,21.12,0,0,0-2.83-4.53,1,1,0,0,1,.17-1.41,1,1,0,0,1,1.4.17c1.32,1.67,3.26,4.66,3.26,5.77v.74C366.1,162.56,364.09,164.22,361.62,164.22Zm-20-4.33Z"/><path class="cls-1" d="M363.43,175.92H342.3c-2.91,0-5.19-1.63-5.19-3.7v-.74c0-.74.72-1.9,3.38-5.82a1,1,0,1,1,1.66,1.12,45.8,45.8,0,0,0-3,4.79v.65c0,.8,1.37,1.7,3.19,1.7h21.13c1.83,0,3.19-.9,3.19-1.7v-.74a30.62,30.62,0,0,0-2.78-4.43,1,1,0,0,1,1.65-1.13c2.66,3.9,3.13,4.9,3.13,5.56v.74C368.62,174.29,366.34,175.92,363.43,175.92Zm-24.33-4.31Z"/><path class="cls-1" d="M355.62,184.46a1,1,0,0,1-1-1V178a1,1,0,1,1,2,0v5.51A1,1,0,0,1,355.62,184.46Z"/><path class="cls-1" d="M350.11,184.46a1,1,0,0,1-1-1V178a1,1,0,1,1,2,0v5.51A1,1,0,0,1,350.11,184.46Z"/><path class="cls-1" d="M323,155h-12.7a3.47,3.47,0,0,1-3.52-3.41V151c0-1.09,3-5.66,9-13.58a1,1,0,0,1,.79-.4h0a1,1,0,0,1,.79.39c6.07,7.92,9.14,12.49,9.14,13.59v.66A3.46,3.46,0,0,1,323,155Zm-14.22-4v.59a1.47,1.47,0,0,0,1.52,1.41H323a1.47,1.47,0,0,0,1.52-1.41v-.58c-.33-1.06-4.13-6.41-7.93-11.4C312.88,144.65,309.13,150,308.8,151Zm15.76,0Zm-15.77,0Z"/><path class="cls-1" d="M324.67,165.36h-16c-2.3,0-4.17-1.53-4.17-3.42v-.65c0-.32,0-1,3-5.19a1,1,0,0,1,1.39-.24,1,1,0,0,1,.24,1.4,28.42,28.42,0,0,0-2.62,4.12v.56c0,.76,1,1.42,2.17,1.42h16c1.16,0,2.18-.66,2.18-1.42v-.59a18,18,0,0,0-2.56-4,1,1,0,0,1,1.56-1.26c1.21,1.51,3,4.21,3,5.24v.65C328.85,163.83,327,165.36,324.67,165.36Zm-18.19-3.94Zm20.38,0h0Z"/><path class="cls-1" d="M326.32,175.81H307c-2.7,0-4.83-1.5-4.83-3.41v-.66c0-.7.63-1.69,3.12-5.27a1,1,0,0,1,1.39-.25,1,1,0,0,1,.25,1.39,45.08,45.08,0,0,0-2.76,4.23v.56c0,.57,1.11,1.41,2.83,1.41h19.3c1.73,0,2.83-.84,2.83-1.41v-.59a24.71,24.71,0,0,0-2.52-4,1,1,0,0,1,.25-1.39,1,1,0,0,1,1.39.24c2.45,3.51,2.88,4.42,2.88,5v.66C331.15,174.31,329,175.81,326.32,175.81Zm-22.14-3.92Zm25,0h0Z"/><path class="cls-1" d="M319.19,184.46a1,1,0,0,1-1-1v-5a1,1,0,0,1,2,0v5A1,1,0,0,1,319.19,184.46Z"/><path class="cls-1" d="M314.16,184.46a1,1,0,0,1-1-1v-5a1,1,0,0,1,2,0v5A1,1,0,0,1,314.16,184.46Z"/></g><g id="Fill"><path class="cls-2" d="M220,63.82a1,1,0,0,0-1-.33l-3.55.83a1,1,0,0,0-.45.24l-72.93,67.51a1,1,0,0,0,0,1.49l35.64,30.59a1,1,0,0,0,.65.25.85.85,0,0,0,.23,0,1,1,0,0,0,.7-.59l40.84-98.93A1,1,0,0,0,220,63.82Z"/><path class="cls-2" d="M227.85,29.27l-9-4.76a1,1,0,0,0-1,0,1,1,0,0,0-.48.87l.11,23.38a1,1,0,0,0,.5.87,1,1,0,0,0,.5.13,1,1,0,0,0,.5-.13l8.86-5.1a1,1,0,0,0,.51-.87V30.16A1,1,0,0,0,227.85,29.27Z"/><path class="cls-2" d="M226,150.44c-.37-.06-9.18-1.57-16.72.49-8.62,3.31-11.45,7.64-16.15,14.82l-1.26,1.92c-2.22,3.37-2.27,17.12-2.13,29.74,0,2.45,0,4.39,0,4.91-.12,1.32-3.38,3.33-5.55,4.28a1,1,0,0,0-.3,1.62c.35.35,8.66,8.52,14.52,10.81,5.33,2.08,18.55,4.3,20.36,4.3h.16a1,1,0,0,0,.8-.88c.09-.76-.17-.88-2.14-1.75-10.67-4.73-16.87-8.57-18.46-11.45,4.15-1.31,6.14-8.24,6.19-11,0-.8.06-2.07.13-3.75.17-4.41.46-11.8.54-21.31.1-13.14,20-20.72,20.18-20.8a1,1,0,0,0-.17-1.92Z"/></g><g id="Outlines"><path class="cls-3" d="M295.71,135.13a1.47,1.47,0,0,1-1-.41L224.44,68.05h0A9,9,0,0,0,219.23,66a9.68,9.68,0,0,0-5.44,2.21l-70,65.73a1.51,1.51,0,0,1-2.12-.07,1.49,1.49,0,0,1,.07-2.12L211.78,66a12.58,12.58,0,0,1,7.45-3,11.91,11.91,0,0,1,7.25,2.89l70.27,66.69a1.51,1.51,0,0,1,.05,2.13A1.48,1.48,0,0,1,295.71,135.13Z"/><path class="cls-3" d="M218.73,60.48a1.5,1.5,0,0,1-1.5-1.5V18.85a1.5,1.5,0,1,1,3,0V59A1.5,1.5,0,0,1,218.73,60.48Z"/><path class="cls-3" d="M224.5,47.62a1.5,1.5,0,0,1-.7-2.83l15.26-7.91-15.2-7.14A1.5,1.5,0,0,1,225.13,27l18,8.42a1.5,1.5,0,0,1,0,2.69l-17.95,9.31A1.47,1.47,0,0,1,224.5,47.62Z"/><path class="cls-3" d="M300.2,56.71A11.81,11.81,0,1,1,312,44.9,11.82,11.82,0,0,1,300.2,56.71Zm0-20.62A8.81,8.81,0,1,0,309,44.9,8.82,8.82,0,0,0,300.2,36.09Z"/><path class="cls-3" d="M300.2,29.88a1.5,1.5,0,0,1-1.5-1.5V21.51a1.5,1.5,0,1,1,3,0v6.87A1.5,1.5,0,0,1,300.2,29.88Z"/><path class="cls-3" d="M300.2,69.79a1.5,1.5,0,0,1-1.5-1.5V61.42a1.5,1.5,0,0,1,3,0v6.87A1.5,1.5,0,0,1,300.2,69.79Z"/><path class="cls-3" d="M283.69,46.4h-6.87a1.5,1.5,0,0,1,0-3h6.87a1.5,1.5,0,0,1,0,3Z"/><path class="cls-3" d="M323.59,46.4h-6.87a1.5,1.5,0,0,1,0-3h6.87a1.5,1.5,0,0,1,0,3Z"/><path class="cls-3" d="M314.5,38.13a1.5,1.5,0,0,1-.75-2.8l5.95-3.44a1.5,1.5,0,1,1,1.5,2.59l-5.95,3.45A1.56,1.56,0,0,1,314.5,38.13Z"/><path class="cls-3" d="M280,58.11a1.49,1.49,0,0,1-.75-2.79l6-3.45a1.5,1.5,0,1,1,1.5,2.6l-6,3.44A1.46,1.46,0,0,1,280,58.11Z"/><path class="cls-3" d="M291.93,32.1a1.5,1.5,0,0,1-1.3-.74l-3.44-5.95a1.5,1.5,0,0,1,2.6-1.51l3.44,6a1.49,1.49,0,0,1-.55,2A1.43,1.43,0,0,1,291.93,32.1Z"/><path class="cls-3" d="M311.92,66.64a1.49,1.49,0,0,1-1.3-.74l-3.44-6a1.5,1.5,0,0,1,2.6-1.51l3.44,6a1.5,1.5,0,0,1-.55,2A1.48,1.48,0,0,1,311.92,66.64Z"/><path class="cls-3" d="M308.78,32.28a1.46,1.46,0,0,1-.78-.22,1.49,1.49,0,0,1-.5-2.06l3.56-5.87a1.5,1.5,0,0,1,2.57,1.56l-3.57,5.87A1.49,1.49,0,0,1,308.78,32.28Z"/><path class="cls-3" d="M288.06,66.39a1.46,1.46,0,0,1-.77-.22,1.5,1.5,0,0,1-.51-2.06l3.57-5.87a1.5,1.5,0,1,1,2.56,1.56l-3.56,5.87A1.52,1.52,0,0,1,288.06,66.39Z"/><path class="cls-3" d="M286.09,37.83a1.46,1.46,0,0,1-.78-.22L279.43,34A1.5,1.5,0,1,1,281,31.48L286.87,35a1.51,1.51,0,0,1-.78,2.79Z"/><path class="cls-3" d="M320.2,58.54a1.46,1.46,0,0,1-.78-.22l-5.88-3.57a1.5,1.5,0,0,1,1.56-2.56L321,55.76a1.5,1.5,0,0,1-.77,2.78Z"/><path class="cls-3" d="M154.66,132.75a1.52,1.52,0,0,1-1.11-.49,1.5,1.5,0,0,1,.1-2.12l19.51-17.74a1.5,1.5,0,0,1,2,2.22l-19.51,17.74A1.51,1.51,0,0,1,154.66,132.75Z"/><path class="cls-3" d="M193.68,96.17a1.5,1.5,0,0,1-1-2.6l13.75-12.64a1.5,1.5,0,1,1,2,2.21L194.69,95.77A1.45,1.45,0,0,1,193.68,96.17Z"/><path class="cls-3" d="M243.62,103.76c-2.24,0-5.11-2.47-9-6.1a43,43,0,0,0-3.36-2.92c-.8.54-2.46,2-3.72,3.18-3.86,3.49-6.33,5.62-8.08,5.78s-3.8-1.73-7.13-5.09c-1.46-1.48-3.89-3.94-4.78-4.21-.78.24-3.13,2.28-4.7,3.65-3.93,3.42-6.68,5.66-8.91,5.66l-.21,0c-1.76-.25-5.9-3.4-7.59-4.74A1.5,1.5,0,1,1,188,96.6a36.57,36.57,0,0,0,6.07,4.1c1.37-.19,4.76-3.14,6.81-4.92,3.11-2.7,4.95-4.24,6.45-4.38,1.82-.16,3.81,1.73,7.13,5.1,1.47,1.48,3.9,3.94,4.79,4.2,1.06-.28,4.44-3.34,6.28-5,3.19-2.89,4.41-3.92,5.44-4.07,1.27-.18,2.46.84,5.69,3.83,1.88,1.74,5.82,5.37,7,5.3a34.65,34.65,0,0,0,6.21-3.35,1.5,1.5,0,1,1,1.65,2.5,37.9,37.9,0,0,1-7,3.73A2.87,2.87,0,0,1,243.62,103.76Zm-24.36-3Zm12.26-6.16Zm-24.07-.17Z"/><path class="cls-3" d="M219.18,223.85c-14.62,0-28.17-5.74-36.25-15.37a1.52,1.52,0,0,1-.24-1.52,1.5,1.5,0,0,1,1.21-.94c2.12-.26,4.37-2.77,5.33-4.08V178.15c0-6,5.07-28.44,29.84-29.11h.25c24.82.67,29.88,23.13,29.88,29.11v23.79c1,1.31,3.21,3.82,5.34,4.08a1.53,1.53,0,0,1,1.21.94,1.51,1.51,0,0,1-.25,1.51c-8,9.62-21.59,15.37-36.27,15.38ZM186.72,208.2c7.63,8,19.58,12.65,32.46,12.65h0c12.92,0,24.88-4.7,32.49-12.64a16.32,16.32,0,0,1-5.27-5,1.56,1.56,0,0,1-.25-.84V178.15c0-5.37-4.57-25.51-26.92-26.11h-.17c-22.31.6-26.88,20.74-26.88,26.11v24.26a1.48,1.48,0,0,1-.25.84A16.27,16.27,0,0,1,186.72,208.2Zm61-5.79h0Z"/><path class="cls-3" d="M170.24,236.72a1.5,1.5,0,0,1-1.5-1.5c0-.22.09-5.39,7.7-6.89,1.89-.37,4.12-.73,6.47-1.12,5.15-.84,11.55-1.89,13.31-3a13.55,13.55,0,0,0,4.1-4.95,1.5,1.5,0,1,1,2.7,1.3c-.08.17-2.05,4.24-5.22,6.2-2.1,1.31-7.07,2.19-14.4,3.39-2.33.38-4.54.75-6.38,1.11-5.13,1-5.28,3.92-5.28,3.94A1.5,1.5,0,0,1,170.24,236.72Z"/><path class="cls-3" d="M268.19,236.72a1.49,1.49,0,0,1-1.5-1.47c0-.17-.24-3-5.28-4-1.84-.36-4-.73-6.38-1.11-7.33-1.2-12.29-2.08-14.4-3.39-3.16-2-5.14-6-5.22-6.2a1.5,1.5,0,1,1,2.71-1.3s1.68,3.46,4.09,4.95c1.76,1.09,8.16,2.14,13.31,3,2.35.39,4.58.75,6.47,1.12,7.61,1.5,7.7,6.67,7.7,6.89A1.5,1.5,0,0,1,268.19,236.72Z"/><path class="cls-3" d="M219.48,235.49c-13.66,0-23.34-8.75-23.49-8.89a1.5,1.5,0,0,1,2-2.2c.81.75,20.08,18.07,42.44-.06a1.5,1.5,0,1,1,1.89,2.33C234.2,233.28,226.34,235.49,219.48,235.49Z"/></g></svg> 