<svg xmlns="http://www.w3.org/2000/svg" viewBox="0 0 441 253"><defs><style>.cls-1{fill:#ebf4ff;}.cls-2{fill:#abc5e5;}.cls-3{fill:#70b0ff;}.cls-4{fill:#333;}</style></defs><g id="Bkg_colour" data-name="Bkg colour"><rect class="cls-1" x="0.02" y="0.88" width="440" height="252"/></g><g id="Bkg_lines" data-name="Bkg lines"><path class="cls-2" d="M121.75,218.7H6.36a1,1,0,0,0,0,2H121.75a1,1,0,0,0,0-2Z"/><path class="cls-2" d="M432.67,218.7H320.94a1,1,0,0,0,0,2H432.67a1,1,0,0,0,0-2Z"/><path class="cls-2" d="M125.75,64.42l-102.42,0h0a1,1,0,0,0-1,1V90.56H7.58a1,1,0,1,0,0,2H52.36v7.31H7.47a1,1,0,1,0,0,2H52.36V213.05a1,1,0,0,0,2,0V91.56a1,1,0,0,0-1-1h-29V66.37l100.42,0,0,41.35a1,1,0,0,0,1,1h0a1,1,0,0,0,1-1l0-42.35a1,1,0,0,0-.29-.71A1,1,0,0,0,125.75,64.42Z"/><path class="cls-2" d="M125.75,126.06a1,1,0,0,0-1,1V214a1,1,0,1,0,2,0V127.06A1,1,0,0,0,125.75,126.06Z"/><path class="cls-2" d="M114.66,108.52a1,1,0,0,0,1-1V90.09c0-6.59-4.51-11.94-10.06-11.94S95.54,83.5,95.54,90.09v17.43a1,1,0,0,0,1,1ZM97.54,90.09c0-5.48,3.62-9.94,8.06-9.94s8.06,4.46,8.06,9.94v16.43H97.54Z"/><path class="cls-2" d="M82.44,108.52a1,1,0,0,0,1-1V90.09c0-6.59-4.51-11.94-10.06-11.94S63.32,83.5,63.32,90.09v17.43a1,1,0,0,0,1,1ZM65.32,90.09c0-5.48,3.62-9.94,8.06-9.94s8.06,4.46,8.06,9.94v16.43H65.32Z"/><path class="cls-2" d="M33,87.48a1,1,0,0,0,.8,1.16.62.62,0,0,0,.19,0,1,1,0,0,0,1-.81c.84-4.46,4.14-7.7,7.85-7.7s7,3.14,7.84,7.64a1,1,0,0,0,2-.38c-1.05-5.45-5.09-9.26-9.81-9.26S34,82,33,87.48Z"/><path class="cls-2" d="M95.54,149.65a1,1,0,0,0,1,1h18.12a1,1,0,0,0,1-1V132.21c0-6.58-4.51-11.94-10.06-11.94s-10.06,5.36-10.06,11.94Zm2-17.44c0-5.48,3.62-9.94,8.06-9.94s8.06,4.46,8.06,9.94v16.44H97.54Z"/><path class="cls-2" d="M63.32,149.65a1,1,0,0,0,1,1H82.44a1,1,0,0,0,1-1V132.21c0-6.58-4.51-11.94-10.06-11.94s-10.06,5.36-10.06,11.94Zm2-17.44c0-5.48,3.62-9.94,8.06-9.94s8.06,4.46,8.06,9.94v16.44H65.32Z"/><path class="cls-2" d="M95.54,191.77a1,1,0,0,0,1,1h18.12a1,1,0,0,0,1-1V174.33c0-6.58-4.51-11.94-10.06-11.94s-10.06,5.36-10.06,11.94Zm2-17.44c0-5.48,3.62-9.94,8.06-9.94s8.06,4.46,8.06,9.94v16.44H97.54Z"/><path class="cls-2" d="M63.32,191.77a1,1,0,0,0,1,1H82.44a1,1,0,0,0,1-1V174.33c0-6.58-4.51-11.94-10.06-11.94s-10.06,5.36-10.06,11.94Zm2-17.44c0-5.48,3.62-9.94,8.06-9.94s8.06,4.46,8.06,9.94v16.44H65.32Z"/><path class="cls-2" d="M369.16,214a1,1,0,0,0,2,0V95.31H382.8a1,1,0,0,0,.81-1.58L374.51,81a1,1,0,0,0-.82-.42H308.31a1,1,0,0,0,0,2h64.87l7.67,10.7H370.44a.71.71,0,0,0-.57,0H308.31a1,1,0,0,0,0,2h60.85Z"/><path class="cls-2" d="M357.86,145.14a1,1,0,0,0,1-1V108.23a1,1,0,0,0-1-1H319a1,1,0,0,0,0,2h9.16v34.91a1,1,0,0,0,2,0V109.23h12.38v34.91a1,1,0,0,0,2,0V109.23h12.37v34.91A1,1,0,0,0,357.86,145.14Z"/><path class="cls-2" d="M313.74,129.39v14.75a1,1,0,0,0,2,0V129.39a1,1,0,0,0-2,0Z"/><path class="cls-2" d="M328.11,195a1,1,0,0,0,2,0V160.12h12.38V195a1,1,0,0,0,2,0V160.12h12.37V195a1,1,0,0,0,2,0V159.12a1,1,0,0,0-1-1H314.74a1,1,0,0,0-1,1v9a1,1,0,1,0,2,0v-8h12.37Z"/><path class="cls-2" d="M340.9,78.55a1,1,0,0,0,1-1v-38L431,76.14V80H381.46a1,1,0,0,0,0,2H431v5h-42.9a1,1,0,0,0,0,2H431V214a1,1,0,1,0,2,0V75.47a1,1,0,0,0-.62-.93L341.28,37.13a1,1,0,0,0-.94.1,1,1,0,0,0-.44.83V77.55A1,1,0,0,0,340.9,78.55Z"/><path class="cls-2" d="M422.71,102.57a1,1,0,0,0-1-1H379.48a1,1,0,0,0,0,2h41.23v10H379.48a1,1,0,0,0,0,2h42.23a1,1,0,0,0,1-1Z"/><path class="cls-2" d="M422.71,124a1,1,0,0,0-1-1H379.48a1,1,0,0,0,0,2h41.23v10H379.48a1,1,0,0,0,0,2h42.23a1,1,0,0,0,1-1Z"/><path class="cls-2" d="M379.48,156.45a1,1,0,0,0,0,2h42.23a1,1,0,0,0,1-1v-12a1,1,0,0,0-1-1H379.48a1,1,0,0,0,0,2h41.23v10Z"/><path class="cls-2" d="M38,214.05a1,1,0,0,0,1-1V157.63a1,1,0,0,0-1-1H7.52a1,1,0,0,0,0,2H37v54.42A1,1,0,0,0,38,214.05Z"/><path class="cls-2" d="M7.47,147.13H38.12a1,1,0,1,0,0-2H7.47a1,1,0,1,0,0,2Z"/><path class="cls-2" d="M7.47,136.38H38.12a1,1,0,1,0,0-2H7.47a1,1,0,1,0,0,2Z"/><path class="cls-2" d="M7.47,125.62H38.12a1,1,0,1,0,0-2H7.47a1,1,0,1,0,0,2Z"/><path class="cls-2" d="M7.47,114.87H38.12a1,1,0,1,0,0-2H7.47a1,1,0,1,0,0,2Z"/><path class="cls-2" d="M314.37,43.15a11.14,11.14,0,1,0-11.14,11.14A11.15,11.15,0,0,0,314.37,43.15ZM303.23,52a8.87,8.87,0,1,1,8.87-8.86A8.87,8.87,0,0,1,303.23,52Z"/><path class="cls-2" d="M303.23,27.23a1.14,1.14,0,0,0,1.14-1.14V21.22a1.14,1.14,0,1,0-2.27,0v4.87A1.14,1.14,0,0,0,303.23,27.23Z"/><path class="cls-2" d="M293.72,28.94a1.12,1.12,0,0,0,1,.57,1.15,1.15,0,0,0,.56-.15,1.13,1.13,0,0,0,.42-1.55l-2.44-4.22a1.13,1.13,0,1,0-2,1.13Z"/><path class="cls-2" d="M289,33.63l-4.22-2.43a1.13,1.13,0,0,0-1.55.41,1.14,1.14,0,0,0,.42,1.56l4.22,2.43a1,1,0,0,0,.56.15,1.13,1.13,0,0,0,.57-2.12Z"/><path class="cls-2" d="M287.32,43.15A1.14,1.14,0,0,0,286.18,42h-4.87a1.14,1.14,0,1,0,0,2.27h4.87A1.14,1.14,0,0,0,287.32,43.15Z"/><path class="cls-2" d="M287.9,50.69l-4.22,2.43a1.14,1.14,0,0,0,.57,2.13,1.06,1.06,0,0,0,.56-.16L289,52.66a1.14,1.14,0,1,0-1.13-2Z"/><path class="cls-2" d="M295.27,56.93a1.13,1.13,0,0,0-1.55.42l-2.43,4.22a1.13,1.13,0,0,0,.41,1.55,1.18,1.18,0,0,0,.57.15,1.12,1.12,0,0,0,1-.57l2.44-4.22A1.13,1.13,0,0,0,295.27,56.93Z"/><path class="cls-2" d="M303.23,59.06a1.14,1.14,0,0,0-1.13,1.14v4.87a1.14,1.14,0,1,0,2.27,0V60.2A1.14,1.14,0,0,0,303.23,59.06Z"/><path class="cls-2" d="M313.21,62.7a1.12,1.12,0,0,0,1,.57,1.15,1.15,0,0,0,.56-.15,1.13,1.13,0,0,0,.42-1.55l-2.43-4.22a1.14,1.14,0,0,0-1.56-.42,1.13,1.13,0,0,0-.41,1.55Z"/><path class="cls-2" d="M317.43,52.66l4.22,2.43a1.1,1.1,0,0,0,.57.16,1.14,1.14,0,0,0,.57-2.13l-4.22-2.43a1.14,1.14,0,0,0-1.14,2Z"/><path class="cls-2" d="M319.15,43.15a1.14,1.14,0,0,0,1.14,1.13h4.87a1.14,1.14,0,1,0,0-2.27h-4.87A1.14,1.14,0,0,0,319.15,43.15Z"/><path class="cls-2" d="M318,35.75a1.06,1.06,0,0,0,.57-.15l4.22-2.43a1.15,1.15,0,0,0,.42-1.56,1.14,1.14,0,0,0-1.56-.41l-4.22,2.43a1.14,1.14,0,0,0,.57,2.12Z"/><path class="cls-2" d="M311.19,29.36a1.18,1.18,0,0,0,.57.15,1.15,1.15,0,0,0,1-.57l2.43-4.22a1.14,1.14,0,1,0-2-1.13l-2.43,4.22A1.13,1.13,0,0,0,311.19,29.36Z"/></g><g id="Fill"><path class="cls-3" d="M299.44,124.84v.3C299.71,125,299.75,124.94,299.44,124.84Z"/><path class="cls-3" d="M316.9,111.91,315.77,116l-1,6.39c0,.07-7.16,3.33-7.16,3.33-3.58-.41-6.48-3.91-6.48-3.1h0a3.32,3.32,0,0,1-1.63,2.59v0c-1.22.44-7.27.77-7.51.78l-.2-.08-.08,0c-3.14-1.31-6.47-3.83-6.47-3.22a2.4,2.4,0,0,1-.16.83l-6.74,2.33-2.82-.08c-3-1.34-6.14-3.67-6.14-3.08v0a3.51,3.51,0,0,1-2,2.83l-3.55-.1-4.94,0c-2.78-1.35-5.39-3.26-5.39-2.72a3.38,3.38,0,0,1-1.74,2.68l-8.93,0c-2.69-1.34-5.18-3.16-5.18-2.63h0a3.35,3.35,0,0,1-1.62,2.59l-3,0,.47,1.13a9.49,9.49,0,0,1-2.24.26c-3.48,0-9.47-4.78-9.47-4,0,2.15-2.94,4-6.43,4s-9.42-4.78-9.42-4v0c0,2.14-3,4-6.43,4s-9.46-4.78-9.46-4c0,2.15-2.95,4-6.43,4s-9.43-4.78-9.43-4v0c0,2.14-3,4-6.42,4s-9.47-4.78-9.47-4c0,2.15-2.94,4-6.42,4s-9.43-4.78-9.43-4c0,0,0,.11,0,.16a3.57,3.57,0,0,1-1.5,2.59l-1.17-.28v1a6.64,6.64,0,0,1-2.61.53c-2.93,0-8.32-3.85-8.32-3.85.08,3.75,3.78,6.79,8.32,6.79a10,10,0,0,0,2.59-.36l-.73,83.5H167.6c.72,0-18.35-72.64-21.46-84.49a11.81,11.81,0,0,0,5.64,1.35,10.53,10.53,0,0,0,7.94-3.15,11.6,11.6,0,0,0,15.87,0,11.61,11.61,0,0,0,15.88,0,11.6,11.6,0,0,0,15.87,0,11.58,11.58,0,0,0,15.87,0,10.52,10.52,0,0,0,7.95,3.16,12.75,12.75,0,0,0,3.4-.46l6.06,14.39,25.3.14,25.89-4.65.17,43.52c-1.56,1.95-3.66,4-5.46,3.75-58.19,12.31-95.22-.83-95.22-.83v3.24a1.49,1.49,0,0,0,1.14,1.45,195.73,195.73,0,0,0,47.12,5.45c7,0,14.56-.34,22.54-1.1L269.92,213l29.8-.32-1.26-10.54,2.08-.23-.1-7.31s-4.85.67-4.85-3.54,4.74-4,4.74-4l-.83-58.49a8.67,8.67,0,0,0,3-2.07,8.9,8.9,0,0,0,6.89,3c4.53,0,8.23-3,8.31-6.79l1.16-7A6.15,6.15,0,0,0,316.9,111.91Z"/><path class="cls-3" d="M316.62,201.16l-5.49,2.16.17,19,3.82-1.16s2.83-18.12,2.5-18.62S316.62,201.16,316.62,201.16Z"/><rect class="cls-3" x="151.57" y="83.94" width="133.9" height="5.65"/></g><g id="Outlines"><path class="cls-4" d="M296.26,217.82h-168a1.5,1.5,0,0,0,0,3h168a1.5,1.5,0,0,0,0-3Z"/><path class="cls-4" d="M167.82,173.18a1.5,1.5,0,0,0,0,3h2a1.5,1.5,0,0,0,1.5-1.5V163.37a1.5,1.5,0,0,0-1.5-1.5h-2.44a1.5,1.5,0,0,0,0,3h.94v8.31Z"/><path class="cls-4" d="M211,169.65a5.32,5.32,0,0,0-3.07-1.06l-2.73-.26a.75.75,0,0,0-.82.68l-.93,10a.74.74,0,0,0,.67.81l3.05.29a5.53,5.53,0,0,0,.69,0,4.28,4.28,0,0,0,2.45-.66,3.26,3.26,0,0,0,1.44-2.58,2.88,2.88,0,0,0-.57-2.2,2.38,2.38,0,0,0-.35-.36,1.56,1.56,0,0,0,.2-.16,2.79,2.79,0,0,0,.91-1.88A2.93,2.93,0,0,0,211,169.65Zm-1.49,7c-.07.77-.38,1.48-2.16,1.3l-1.59-.15L206,175l1.44.14C209.59,175.34,209.5,176.22,209.46,176.65Zm-.21-3.79a2.7,2.7,0,0,1-1.63.17l-1.45-.13.22-2.33,1.26.12a3.51,3.51,0,0,1,1.72.5.83.83,0,0,1,.29.85C209.61,172.59,209.4,172.77,209.25,172.86Z"/><path class="cls-4" d="M222.16,169.6l-.7,0a.74.74,0,0,0-.79.7l-.37,6.53a2.27,2.27,0,0,1-.66,1.63,2.3,2.3,0,0,1-1.72.47,2.06,2.06,0,0,1-2.18-2.43l.37-6.45a.7.7,0,0,0-.19-.55.72.72,0,0,0-.51-.25l-.71,0a.78.78,0,0,0-.79.71l-.36,6.43a4.12,4.12,0,0,0,4.17,4.69h.39a4.39,4.39,0,0,0,3-1,4.34,4.34,0,0,0,1.41-3.15l.36-6.46a.75.75,0,0,0-.7-.79Z"/><path class="cls-4" d="M230.51,175.36a9,9,0,0,0-1.89-.91,7.58,7.58,0,0,1-1.41-.65,1.05,1.05,0,0,1-.4-.38,1.28,1.28,0,0,1-.09-.54.92.92,0,0,1,.39-.79,2.06,2.06,0,0,1,1.31-.32,5.46,5.46,0,0,1,2.08.51.75.75,0,0,0,1-.38l.27-.59a.75.75,0,0,0-.37-1,7.44,7.44,0,0,0-2.93-.67,4.23,4.23,0,0,0-2.75.8,3.19,3.19,0,0,0-.48,4.56,6.17,6.17,0,0,0,2.38,1.39,8,8,0,0,1,1.44.64,1.39,1.39,0,0,1,.51.44,1.16,1.16,0,0,1-.35,1.42,2.44,2.44,0,0,1-1.5.37,6.51,6.51,0,0,1-2.45-.46.75.75,0,0,0-.71,0,.78.78,0,0,0-.35.62l0,.7a.76.76,0,0,0,.45.7,8.15,8.15,0,0,0,3.08.54h.17a4.44,4.44,0,0,0,2.76-.82,3.13,3.13,0,0,0,1.27-2.54,3.06,3.06,0,0,0-.32-1.54A3.35,3.35,0,0,0,230.51,175.36Z"/><path class="cls-4" d="M235.29,169.89h-.69a.76.76,0,0,0-.76.74l0,10a.74.74,0,0,0,.21.53.75.75,0,0,0,.53.22h.7a.75.75,0,0,0,.75-.75l0-10a.79.79,0,0,0-.22-.54A.75.75,0,0,0,235.29,169.89Z"/><path class="cls-4" d="M239.21,169.9a.75.75,0,0,0-.73.77l.19,10a.8.8,0,0,0,.23.53.77.77,0,0,0,.52.2h.69a.75.75,0,0,0,.73-.76l-.12-6.36,4.65,6.69a.77.77,0,0,0,.63.32l.7,0a.72.72,0,0,0,.53-.23.74.74,0,0,0,.21-.53l-.2-10A.72.72,0,0,0,247,170a.78.78,0,0,0-.53-.21h-.68a.75.75,0,0,0-.73.77l.12,6.35-4.65-6.68a.79.79,0,0,0-.63-.32Z"/><path class="cls-4" d="M249.6,170.4l.49,10a.75.75,0,0,0,.75.71h0l5.46-.27a.78.78,0,0,0,.52-.25.76.76,0,0,0,.19-.54l0-.64a.74.74,0,0,0-.79-.71l-4,.2-.14-2.78,3.74-.19a.75.75,0,0,0,.72-.79l0-.64a.75.75,0,0,0-.79-.71L252,174l-.11-2.28,4-.2a.74.74,0,0,0,.52-.25.75.75,0,0,0,.19-.54l0-.64a.74.74,0,0,0-.79-.71l-5.45.27A.75.75,0,0,0,249.6,170.4Z"/><path class="cls-4" d="M259,174.43a6.06,6.06,0,0,0,2.51,1.15,9.06,9.06,0,0,1,1.5.49,1.56,1.56,0,0,1,.55.39,1,1,0,0,1,.16.52,1,1,0,0,1-.37.92,2.34,2.34,0,0,1-1.45.52,6.3,6.3,0,0,1-2.49-.21.77.77,0,0,0-.7.12.74.74,0,0,0-.28.65l.05.69a.75.75,0,0,0,.51.66,6.59,6.59,0,0,0,2,.27c.34,0,.7,0,1.09,0a4.54,4.54,0,0,0,2.83-1.11,3.17,3.17,0,0,0,1-2.66,3,3,0,0,0-.48-1.5,3.29,3.29,0,0,0-1.19-1,8.5,8.5,0,0,0-2-.71,8.52,8.52,0,0,1-1.47-.5,1.34,1.34,0,0,1-.43-.34,1.15,1.15,0,0,1-.15-.53,1,1,0,0,1,.31-.83,2,2,0,0,1,1.27-.45,5.44,5.44,0,0,1,2.12.3.76.76,0,0,0,1-.48l.2-.62a.76.76,0,0,0-.47-1,7.42,7.42,0,0,0-3-.36,4.23,4.23,0,0,0-2.65,1.08,3,3,0,0,0-1,2.49A3,3,0,0,0,259,174.43Z"/><path class="cls-4" d="M266.79,171.66a3,3,0,0,0,1,2.06,6,6,0,0,0,2.54,1.07,8.34,8.34,0,0,1,1.51.45,1.28,1.28,0,0,1,.56.38.89.89,0,0,1,.18.52,1,1,0,0,1-.34.92,2.3,2.3,0,0,1-1.44.56,6.3,6.3,0,0,1-2.49-.14.77.77,0,0,0-.7.14.75.75,0,0,0-.26.66l.07.69a.75.75,0,0,0,.53.64,6.4,6.4,0,0,0,1.76.22c.41,0,.87,0,1.37-.08a4.57,4.57,0,0,0,2.8-1.19,3.15,3.15,0,0,0-.81-5.17,8.82,8.82,0,0,0-2-.66,8.16,8.16,0,0,1-1.48-.46.88.88,0,0,1-.6-.85.92.92,0,0,1,.28-.84,2.09,2.09,0,0,1,1.26-.49,5.44,5.44,0,0,1,2.13.25.76.76,0,0,0,.93-.51l.19-.62a.75.75,0,0,0-.49-.93,7.31,7.31,0,0,0-3-.29,4.23,4.23,0,0,0-2.63,1.15A3,3,0,0,0,266.79,171.66Z"/><path class="cls-4" d="M278.83,175h0a.75.75,0,0,0,.74-.67l.66-6a.74.74,0,0,0-.19-.59.76.76,0,0,0-.57-.24h-.81a.76.76,0,0,0-.53.23.78.78,0,0,0-.21.54l.16,6A.75.75,0,0,0,278.83,175Z"/><path class="cls-4" d="M278.94,179l.19,0a1.28,1.28,0,0,0,1.12-1.57h0a1.43,1.43,0,0,0-.51-1,1.2,1.2,0,0,0-1-.24,1.26,1.26,0,0,0-.87.46,1.5,1.5,0,0,0-.25,1.11,1.44,1.44,0,0,0,.52,1A1.19,1.19,0,0,0,278.94,179Z"/><path class="cls-4" d="M216.56,163.23a4.45,4.45,0,0,0,2.62-.72,3.32,3.32,0,0,0,1.37-2.62,2.92,2.92,0,0,0-.63-2.18,3,3,0,0,0-.36-.35l.2-.17a2.77,2.77,0,0,0,.86-1.9,2.92,2.92,0,0,0-1-2.58,5.31,5.31,0,0,0-3.1-1l-2.73-.18a.75.75,0,0,0-.8.69l-.68,10a.74.74,0,0,0,.69.8l3.06.21Zm-1.48-9.49,1.26.09a3.4,3.4,0,0,1,1.73.46.83.83,0,0,1,.31.83,1,1,0,0,1-.39.84,2.77,2.77,0,0,1-1.62.21l-1.45-.1Zm-.31,4.44,1.45.1c2.17.15,2.11,1,2.08,1.45-.05.79-.35,1.48-2.12,1.37l-1.6-.11Z"/><path class="cls-4" d="M227.52,160.23l1.09,3.09a.77.77,0,0,0,.69.5l.78,0h0a.74.74,0,0,0,.6-.31.72.72,0,0,0,.1-.69l-3.59-10.16a.77.77,0,0,0-.69-.5l-.44,0a.73.73,0,0,0-.71.45l-4.36,9.9a.76.76,0,0,0,0,.7.78.78,0,0,0,.61.35l.78,0a.77.77,0,0,0,.71-.45l1.31-3Zm-1.36-4,.62,1.84-1.39-.05Z"/><path class="cls-4" d="M237.08,152.24a5.72,5.72,0,0,0-2.89.73,5,5,0,0,0-2,2.11,6.81,6.81,0,0,0-.66,3,6.25,6.25,0,0,0,1.4,4.3,4.94,4.94,0,0,0,3.87,1.62h0a8.13,8.13,0,0,0,2.71-.39.76.76,0,0,0,.51-.71v-.61a.78.78,0,0,0-.31-.61.74.74,0,0,0-.66-.11,7.11,7.11,0,0,1-2.08.29,2.83,2.83,0,0,1-2.36-.93,4.28,4.28,0,0,1-.83-2.83,4,4,0,0,1,.89-2.8,3,3,0,0,1,2.4-.95h0a4.35,4.35,0,0,1,2,.47.69.69,0,0,0,.58,0,.75.75,0,0,0,.44-.4l.28-.63a.76.76,0,0,0-.36-1,7,7,0,0,0-2.94-.63Z"/><path class="cls-4" d="M242.37,163.62a.74.74,0,0,0,.51.2h0l.7,0a.75.75,0,0,0,.73-.77l-.11-3.76.44-.42,3.49,4.5a.73.73,0,0,0,.62.29l.85,0a.77.77,0,0,0,.66-.43.76.76,0,0,0-.09-.78l-4-5.14,3.54-3.88a.75.75,0,0,0-.57-1.26l-.89,0a.76.76,0,0,0-.53.25l-3.62,4L244,153a.74.74,0,0,0-.77-.73l-.7,0a.73.73,0,0,0-.52.24.74.74,0,0,0-.21.53l.3,10A.77.77,0,0,0,242.37,163.62Z"/><path class="cls-4" d="M257.34,163.16h.05l.7,0a.72.72,0,0,0,.51-.25.74.74,0,0,0,.18-.55l-.68-10a.79.79,0,0,0-.26-.51.74.74,0,0,0-.55-.18l-.69,0a.75.75,0,0,0-.7.8l.69,10A.75.75,0,0,0,257.34,163.16Z"/><path class="cls-4" d="M262.19,162.82h.07l.67-.06a.78.78,0,0,0,.51-.27.77.77,0,0,0,.17-.55l-.61-6.32,5.14,6.31a.76.76,0,0,0,.66.27l.7-.07a.75.75,0,0,0,.67-.82l-.95-9.94a.74.74,0,0,0-.27-.51.73.73,0,0,0-.55-.17l-.67.07a.76.76,0,0,0-.68.81l.61,6.33-5.14-6.31a.75.75,0,0,0-.66-.27l-.69.06a.77.77,0,0,0-.68.82l1,9.95A.74.74,0,0,0,262.19,162.82Z"/><circle class="cls-4" cx="196.05" cy="144.98" r="1.75"/><circle class="cls-4" cx="285.62" cy="144.98" r="1.75"/><circle class="cls-4" cx="196.05" cy="181.57" r="1.75"/><circle class="cls-4" cx="285.62" cy="181.57" r="1.75"/><path class="cls-4" d="M285.28,82.81h-133a1.5,1.5,0,0,0-1.5,1.5v4.12a1.5,1.5,0,0,0,3,0V85.81h130v2.62a1.5,1.5,0,0,0,3,0V84.31A1.5,1.5,0,0,0,285.28,82.81Z"/><path class="cls-4" d="M127.25,120.46c.08,3.84,3.78,6.94,8.31,6.94a9.19,9.19,0,0,0,2.55-.36v85a1.5,1.5,0,0,0,3,0v-86.3c0-.05,0-.11,0-.16a7.75,7.75,0,0,0,1.33-1.29,10.53,10.53,0,0,0,7.84,3.09,10.41,10.41,0,0,0,7.95-3.22,11.41,11.41,0,0,0,15.87,0,8.46,8.46,0,0,0,2.63,2v85.87a1.5,1.5,0,0,0,3,0V127.19a13.11,13.11,0,0,0,2.3.21h0v84.66a1.5,1.5,0,0,0,3,0V179.47l4.36,1.6v5.54a1.51,1.51,0,0,0,1.14,1.46,195.8,195.8,0,0,0,47.12,5.44h1.22v18.82a1.5,1.5,0,1,0,3,0V193.47l2.66-.06v18.86a1.5,1.5,0,0,0,3,0v-19a259.17,259.17,0,0,0,41.31-5.22l2-.41a1.5,1.5,0,0,0,1.5-1.5v-4.63l4.19-2.09a1.5,1.5,0,0,0-1.34-2.69l-2.85,1.43V142.82l.06,0,6.31-4.28v28.26a1.5,1.5,0,0,0,3,0V125.08a9,9,0,0,0,6.14,2.32c4.53,0,8.23-3.1,8.31-6.94l1.16-7.21a1.51,1.51,0,0,0-.46-1.34L299.42,95.59V75.65a1.5,1.5,0,0,0-1.5-1.5H143a1.5,1.5,0,0,0-1.5,1.5V96.27a1.49,1.49,0,0,0,.18.7l-15.12,15h0a1.64,1.64,0,0,0-.21.25l0,.09a2,2,0,0,0-.1.21l0,.11a.78.78,0,0,0,0,.21.5.5,0,0,0,0,.12V113s0,.11,0,.16v.08Zm17.84-22.69h8.22l-11.55,13.74H131.22Zm152.27,0,14.71,13.74H301.68L290.13,97.77Zm2.2,22.74c-.15,2.12-3,3.89-6.41,3.89s-6.43-1.86-6.43-4.07c0,0,0-.08,0-.11v-5.71h12.85Zm-28.74-.26v-5.74h12.89v5.6a1.8,1.8,0,0,0,0,.22c0,2.21-2.95,4.07-6.43,4.07s-6.41-1.85-6.43-4.05v0A.25.25,0,0,0,270.82,120.25Zm-28.94,21.84V126.87a12.41,12.41,0,0,0,2.66.48v14.71Zm-37.54-21.74c0,2.2-3,4.05-6.43,4.05s-6.43-1.86-6.43-4.07c0,0,0-.08,0-.12v-5.7h12.91V120a1.2,1.2,0,0,0,0,.33Zm3,.39v-6.23h12.78v6.23c-.34,2-3.13,3.66-6.4,3.66s-6-1.63-6.39-3.64Zm15.78-6.23h12.92v5.95c-.11,2.15-3,3.94-6.42,3.94s-6.43-1.86-6.43-4.07a1.62,1.62,0,0,0-.07-.44Zm22.35,9.89c-3.47,0-6.41-1.86-6.42-4.05v0s0-.07,0-.11v-5.71H252v5.58a1,1,0,0,0,0,.24C251.94,122.54,249,124.4,245.51,124.4Zm9.46-9.89h12.85v5.91c-.07,2.16-3,4-6.42,4s-6.42-1.86-6.42-4.07c0,0,0-.06,0-.1Zm31.37-16.74a1.52,1.52,0,0,0,.27.48l11.15,13.26H286L275.37,97.77Zm-14.75,0,.05.07,10.57,13.67h-12l-8.42-13.74Zm-13.36,0v0l8.41,13.72H254.4l-6.69-13.74Zm-13.86,0,6.7,13.74H238.68l-4.32-13.74Zm-13.15,0,4.31,13.74H223.16V97.77Zm-11.06,13.74H207.92l4.32-13.74h7.92Zm-15.39,0h-12.4l6.69-13.74h10Zm-15.74,0H176.79l8.41-13.72v0h10.52Zm-15.76,0H161.22L171.8,97.84a.25.25,0,0,0,0-.07h9.85Zm-15.84,0H145.68l11.14-13.26a1.35,1.35,0,0,0,.27-.48h11Zm-27.18,8.82a1.94,1.94,0,0,0,0-.24l-.89-5.58h11.53v5.55a2.45,2.45,0,0,0,0,.27c0,.06,0,.11,0,.17-.12,2.16-2.44,3.9-5.3,3.9S130.25,122.57,130.25,120.33Zm20,4.07c-3.33,0-6.16-1.71-6.4-3.79v-.19a.28.28,0,0,0,0-.09s0,0,0,0v-5.77h12.86v5.59a.91.91,0,0,0,0,.23C156.7,122.54,153.76,124.4,150.27,124.4Zm15.9,0c-3.49,0-6.43-1.86-6.43-4.07,0,0,0-.07,0-.11v-5.71h12.88v5.63a1.23,1.23,0,0,0,0,.19v0C172.57,122.55,169.64,124.4,166.17,124.4Zm9.44-3.85v-6h12.86v5.61a1.49,1.49,0,0,0,0,.21c0,2.21-2.95,4.07-6.43,4.07S175.8,122.66,175.61,120.55ZM190,124.18a11.42,11.42,0,0,0,15.88,0,11.4,11.4,0,0,0,15.87,0,11.41,11.41,0,0,0,15.88,0,8.11,8.11,0,0,0,1.29,1.18v16.71c-28.79-.19-47.28-5.5-47.56-5.58a1.52,1.52,0,0,0-1.32.24,1.49,1.49,0,0,0-.6,1.2v.94L185,135.82V127A9.4,9.4,0,0,0,190,124.18ZM185,176.27V139.49l4.36,3.07v35.32Zm104.34,8.64-1.14.23c-42.94,8.87-75.65,5.15-95.84.3V139.9c8.85,2.19,47.35,10.33,97,.27Zm3-45.71v-.87a1.48,1.48,0,0,0-.55-1.16,1.5,1.5,0,0,0-1.26-.31,244.06,244.06,0,0,1-43,5.12V127.23a9.8,9.8,0,0,0,5.92-3,11.41,11.41,0,0,0,15.87,0,11.41,11.41,0,0,0,15.87,0,10.41,10.41,0,0,0,7.95,3.22,11.74,11.74,0,0,0,5.6-1.35v8.84Zm20.82-18.87c0,2.24-2.38,4.07-5.31,4.07s-5.31-1.82-5.31-4.06h0a.77.77,0,0,0,0-.15v-5.67h11.56l-.9,5.58A1.94,1.94,0,0,0,313.2,120.33ZM144.46,77.15h152V94.77h-152Z"/><path class="cls-4" d="M315.93,196.46a5,5,0,0,0,5-5v-.87a5,5,0,0,0-4.86-5,4.78,4.78,0,0,0,.31-1.69V183a5,5,0,0,0-2.66-4.46,4.65,4.65,0,0,0,.18-1.28v-.88c0-1.54-1.46-4-2.34-5.37-2.51-3.84-3.56-3.85-4.06-3.85a3.12,3.12,0,0,0-2.31.93,3.23,3.23,0,0,0-1,2.29v1.26a5,5,0,0,0-3.28,4.63v.87a5.07,5.07,0,0,0,.17,1.29,5,5,0,0,0-2.74,4.41v.87a4.76,4.76,0,0,0,.28,1.69,5,5,0,0,0-4.94,5v.87a5,5,0,0,0,4.95,5l8.29.07a1.56,1.56,0,0,0-.07.44v3.84c-3.6-.13-7.39-.67-7.44-.67a1.47,1.47,0,0,0-1.26.41,1.49,1.49,0,0,0-.44,1.26l2.62,20.48a1.5,1.5,0,0,0,.9,1.19c.22.1,2.28.92,6.76.92a35,35,0,0,0,7.81-.84,1.51,1.51,0,0,0,1.11-1.27l2.62-20.48a1.51,1.51,0,0,0-1.68-1.68c-.05,0-4.27.55-8,.68v-3.84a1.35,1.35,0,0,0-.06-.41l6.08.05Zm-1.84,24.25a34.52,34.52,0,0,1-6.08.54,22.24,22.24,0,0,1-4.81-.45L301,203.2a68.39,68.39,0,0,0,7.42.49c2.7,0,5.95-.29,8-.51Zm-16.81-28a2,2,0,0,1-.58-1.41v-.88a2,2,0,0,1,2-2h0l3.19,0a1.52,1.52,0,0,0,1.47-1.17,1.49,1.49,0,0,0-.83-1.69,2,2,0,0,1-1.18-1.83v-.88a2,2,0,0,1,1.93-2,1.51,1.51,0,0,0,1.11-2.46,2,2,0,0,1-.47-1.27v-.87a2,2,0,0,1,1.87-2,1.51,1.51,0,0,0,1.4-1.49l0-2.45a.21.21,0,0,1,0-.12c1.15,1.14,3.6,5,3.64,6.08v.87a2,2,0,0,1-.49,1.27A1.51,1.51,0,0,0,311.5,181a2,2,0,0,1,1.9,2v.87a2,2,0,0,1-1.21,1.81,1.51,1.51,0,0,0,.59,2.88l3.19,0a2,2,0,0,1,2,2v.87a2,2,0,0,1-2,2l-17.23-.15A2,2,0,0,1,297.28,192.71Z"/></g></svg> 