<svg xmlns="http://www.w3.org/2000/svg" xmlns:xlink="http://www.w3.org/1999/xlink" viewBox="0 0 440 252"><defs><style>.cls-1,.cls-4,.cls-6{fill:#4569a0;}.cls-1,.cls-2{clip-rule:evenodd;}.cls-2,.cls-7,.cls-9{fill:#231f20;}.cls-3{fill:#b1c0d8;}.cls-3,.cls-4,.cls-7{fill-rule:evenodd;}.cls-5{clip-path:url(#clip-path);}.cls-8{clip-path:url(#clip-path-2);}</style><clipPath id="clip-path"><path class="cls-1" d="M135.42,167.31s.06-7.47,5.82-6.24v37.65c-2.79-.64-5.82-2.58-5.82-8Zm162.8,31.07s-6.36,1.69-11.44-2.47l-.06,0A14.24,14.24,0,0,1,283,191a18.82,18.82,0,0,1-1.77-5.57c0-.14-.06-.27-.08-.41s-2-11.62,2.82-16.5a6,6,0,0,1,2.9-1.76v20.71C286.9,188,287.07,198.05,298.22,198.38Zm-141-76.69,64,23.47v1.24l-64-19Zm50.36-23.13a27.63,27.63,0,0,0,12.92,10,25.58,25.58,0,0,0,5,1.27,25.22,25.22,0,0,1-3.68.28h-1.77a25.45,25.45,0,0,1-8.72-1.55,27.63,27.63,0,0,1-12.92-10L194,92.42c-2.94-4.09-4.86-10.52-5.57-15.64,0,0-.1-1.28-.87-1.3-3.38-.06-5.87-4.17-6.59-10,0,0-3-15.25,5.48-15.2a27.19,27.19,0,0,1,.45-3.92l.63-3.56c1.78-10,8.09-16,16.66-19.78a42,42,0,0,1,15.86-3.07h1.77c1.28,0,2.51.07,3.68.17A41.23,41.23,0,0,0,213.37,23c-8.57,3.82-14.88,9.73-16.66,19.78L196.49,44A78.91,78.91,0,0,0,195.74,55c.17,6,.61,16.21,1.68,21.07h0a2.58,2.58,0,0,1,.19.75c.71,5.12,2.63,11.55,5.57,15.64Zm-14,134.84-43.6.21V204.4a19.66,19.66,0,0,0,8.42-5.82A23.93,23.93,0,0,0,163.91,183v-5.87a18,18,0,0,0-2.41-9.08,15.09,15.09,0,0,0-7-6.36l-4.56-2V131.86l25.55,7.87ZM205,105.89s2.29,15.93-8.56,23.4a6.31,6.31,0,0,1-5.83.71l-1.52-.58a2.05,2.05,0,0,1-.35-3.67c5-3.14,12.68-10.36,10.69-24.41Zm29.27,42.19,11.63-3.14v26.69l-5.8-2.59-5.83,6.43Z"/></clipPath><clipPath id="clip-path-2"><path class="cls-2" d="M253.5,70.9a1.65,1.65,0,0,1-2,1.32A1.82,1.82,0,0,1,250.3,70s0-.09,0-.19.07-.35.12-.56c.12-.6.24-1.27.35-2,.22-1.37.38-2.71.46-4,0-.33,0-.65,0-1a1.66,1.66,0,1,1,3.3.1c0,.36,0,.73-.05,1.11-.09,1.38-.26,2.85-.5,4.33-.12.76-.25,1.47-.38,2.13C253.6,70.45,253.54,70.74,253.5,70.9ZM189.16,70A1.83,1.83,0,0,1,188,72.22a1.65,1.65,0,0,1-2-1.32c0-.16-.1-.45-.18-.85-.13-.65-.25-1.36-.38-2.12-.23-1.48-.41-3-.5-4.33,0-.38,0-.75,0-1.11a1.75,1.75,0,0,1,1.6-1.85,1.72,1.72,0,0,1,1.7,1.75c0,.31,0,.63.05,1a39.08,39.08,0,0,0,.45,4c.12.71.24,1.38.36,2l.11.56A1.47,1.47,0,0,0,189.16,70Zm65.75-27.4.61,3.54c.17.94.28,1.81.36,2.6a6.47,6.47,0,0,1,4.21,3,13.1,13.1,0,0,1,1.71,6,30.77,30.77,0,0,1-.2,6.2c-.06.48-.12.92-.19,1.31,0,.19-.05.34-.07.45C260.57,72,257.92,76.46,254,77.1c-.85,6-3,12.21-5.74,16.15L244,99.35a29,29,0,0,1-13.48,10.52,26.36,26.36,0,0,1-9.15,1.64h-1.73a26.36,26.36,0,0,1-9.15-1.64A29,29,0,0,1,197,99.35l-4.32-6.1c-2.79-3.94-4.89-10.19-5.74-16.15-3.9-.64-6.55-5.12-7.32-11.35,0-.11,0-.26-.08-.45-.06-.39-.13-.83-.19-1.31a32.31,32.31,0,0,1-.2-6.2,13.1,13.1,0,0,1,1.72-6,6.47,6.47,0,0,1,4.21-3c.07-.79.19-1.66.36-2.6l.61-3.54c1.72-9.89,7.6-16.56,17.33-20.95a41.64,41.64,0,0,1,16.26-3.2h1.73a41.64,41.64,0,0,1,16.23,3.19l.82.38,2.6-1.78a1.76,1.76,0,0,1,2.49.52l1.46,2.36,3.39.77a1.77,1.77,0,0,1,1.19,2.5L248.24,29A25.89,25.89,0,0,1,254.91,42.64ZM139.49,197.08c7.55,3.51,15.72-3.73,15.72-14.44v-6.07c0-4-2-7.56-4.77-8.87L141,163.32c-1.64-.76-3.54.92-3.54,3.64v26.21A4.25,4.25,0,0,0,139.49,197.08Zm-1.41,3.32a7.84,7.84,0,0,1-4.11-7.23V167c0-5.13,4.26-8.9,8.43-7l9.45,4.38c4.14,1.93,6.83,6.8,6.83,12.19v6.07C158.68,195.76,148.16,205.09,138.08,200.4Zm160.43-3.32a4.25,4.25,0,0,0,2-3.91V167c0-2.72-1.9-4.4-3.54-3.64l-9.45,4.38c-2.82,1.31-4.76,4.85-4.76,8.87v6.07C282.8,193.35,291,200.59,298.51,197.08Zm1.41,3.32c-10.08,4.69-20.6-4.64-20.6-17.76v-6.07c0-5.39,2.69-10.26,6.83-12.19L295.6,160c4.17-1.94,8.43,1.83,8.43,7v26.21A7.84,7.84,0,0,1,299.92,200.4Zm-77.29-40.61a1.48,1.48,0,1,1,2.91,0v73.5a1.48,1.48,0,1,1-2.91,0Zm-8.72,0a1.48,1.48,0,1,1,2.91,0v73.5a1.48,1.48,0,1,1-2.91,0Zm31.34,53.39a1.75,1.75,0,0,1-2.19-1.16,1.78,1.78,0,0,1,1.15-2.21l25.58-8.1a1.73,1.73,0,0,1,2.18,1.16,1.76,1.76,0,0,1-1.14,2.21Zm-11.55-7.27a1.83,1.83,0,0,1-2.26-1.11,1.68,1.68,0,0,1,1.18-2.13l42.9-12.59a1.83,1.83,0,0,1,2.26,1.11,1.68,1.68,0,0,1-1.18,2.13Zm0-11.63a1.81,1.81,0,0,1-2.25-1.1,1.67,1.67,0,0,1,1.18-2.12l42.91-12.61a1.82,1.82,0,0,1,2.25,1.11,1.66,1.66,0,0,1-1.17,2.11Zm-23.95,12.63a1.75,1.75,0,0,1,1.18,2.2,1.79,1.79,0,0,1-2.24,1.16l-45.83-13.92a1.75,1.75,0,0,1-1.18-2.2,1.8,1.8,0,0,1,2.25-1.16Zm0-15.81a1.65,1.65,0,0,1,1.19,2.09,1.84,1.84,0,0,1-2.26,1.1l-44.34-12.66a1.64,1.64,0,0,1-1.2-2.08,1.86,1.86,0,0,1,2.27-1.1Zm0-14.71a1.74,1.74,0,0,1,1.18,2.2,1.79,1.79,0,0,1-2.24,1.16l-45.83-13.93a1.74,1.74,0,0,1-1.18-2.2,1.8,1.8,0,0,1,2.25-1.15Zm79.75,29.92a1.48,1.48,0,1,1,2.91,0v28.43a1.48,1.48,0,1,1-2.91,0Zm-142.44-.2a1.46,1.46,0,1,1,2.91,0v27.37a1.46,1.46,0,1,1-2.91,0ZM218.2,143l63.13-22.61a1.75,1.75,0,0,1,2.35,1.63v3.34a1.76,1.76,0,0,1-3.51,0v-.86l-61,21.84a1.74,1.74,0,0,1-.9.08,1.79,1.79,0,0,1-.91-.08l-61-21.9v1.27a1.76,1.76,0,0,1-3.51,0v-3.72a1.74,1.74,0,0,1,2.36-1.6Zm17.52,29.51,3.08-3.65a1.68,1.68,0,0,1,2-.45l3.62,1.74V147.7l-8.72,2.68Zm-1.33,5.91h-.13a1.61,1.61,0,0,1-1.45-1.73V151.27L220.54,155a5.06,5.06,0,0,0-3.08,0l-66.91-20.57v23.29a1.75,1.75,0,0,1-3.5,0V132.13a1.74,1.74,0,0,1,2.27-1.64l69.18,21.27a2.1,2.1,0,0,1,.5.24,1.78,1.78,0,0,1,.5-.24l25.42-7.82a1.33,1.33,0,0,1,1-.45,1.27,1.27,0,0,1,.34,0l42.45-13a1.74,1.74,0,0,1,2.27,1.64v25.63a1.75,1.75,0,0,1-3.5,0V134.47L247.34,146.8v25.44a1.48,1.48,0,0,1,0,.21,1.75,1.75,0,0,1-.15,1,1.69,1.69,0,0,1-2.29.88l-4.35-2.09-4.71,5.57A1.71,1.71,0,0,1,234.39,178.37Zm8.34-59.46c-4.82,5.43-13,8.59-22.29,8.59-9.51,0-17.69-3.21-22.47-8.77a23.43,23.43,0,0,1-5.48,5.45l-.31.22-.8.54c-.85.57-1.74,1.13-2.66,1.66l-1.24.69a1.8,1.8,0,0,1-2.42-.7,1.71,1.71,0,0,1,.72-2.35l1.12-.63c.84-.49,1.68-1,2.46-1.54l.75-.5.19-.14.06,0c4.4-3.2,6.81-7,6.91-11.09a1.78,1.78,0,0,1,3.56.09,14.41,14.41,0,0,1-1,5c3.82,5.39,11.45,8.66,20.63,8.66,8.78,0,16.21-3.06,20.19-8.08a15,15,0,0,1-2-7,1.79,1.79,0,0,1,3.57-.08c.1,4.08,2.57,8.06,6.9,11.17l.06,0,.2.13.74.5c.78.52,1.62,1,2.46,1.52.38.22.76.43,1.13.62a1.69,1.69,0,0,1,.71,2.33,1.82,1.82,0,0,1-2.41.69c-.41-.21-.83-.44-1.25-.68-.91-.53-1.81-1.08-2.66-1.64l-.8-.54-.31-.22A23.5,23.5,0,0,1,242.73,118.91ZM188.51,49.37a12.71,12.71,0,0,0,1.37.61l.5.19a1.69,1.69,0,0,1,1.15,1.49s0,.05,0,.13a4.71,4.71,0,0,0,.11.54,5.66,5.66,0,0,0,.72,1.66,4.69,4.69,0,0,0,2.72,2c0-1.63,0-3.29,0-4.87a32.85,32.85,0,0,1,.43-5.14,6.55,6.55,0,0,1,.65-2,2.31,2.31,0,0,1,2.8-1.2,33.06,33.06,0,0,0,15.42,1.45,28,28,0,0,0,10.24-3.71,25.1,25.1,0,0,0,3.83-2.78c.37-.32.68-.62,1-.89l.28-.29a1.77,1.77,0,0,1,3,.61,7.08,7.08,0,0,0,4.47,4.68,12.58,12.58,0,0,0,3.2.77,13.5,13.5,0,0,0,1.91.08,1.8,1.8,0,0,1,1.74.85c.66,1.13,1,3.72,1.34,7.88.12,1.64.22,3.39.29,5.15,0,.12,0,.24,0,.35a4.43,4.43,0,0,0,1.86-2.12,10.17,10.17,0,0,0,.71-2c.06-.24.11-.46.14-.66s0-.19,0-.21a1.73,1.73,0,0,1,1.36-1.47,12.46,12.46,0,0,0,1.77-.5,6.59,6.59,0,0,0,.89-.38v0c-.07-.79-.18-1.7-.36-2.7l-.61-3.54a22.25,22.25,0,0,0-6.55-12.64,1.77,1.77,0,0,1-.36-2.05l.82-1.69-1.93-.44a1.74,1.74,0,0,1-1.1-.79l-.88-1.41-1.92,1.32a1.77,1.77,0,0,1-1.79.12c-.51-.26-1-.51-1.59-.76A38,38,0,0,0,221.32,22h-1.73a38.06,38.06,0,0,0-14.83,2.89C196,28.85,191,34.6,189.47,43.25l-.61,3.54C188.69,47.74,188.58,48.61,188.51,49.37Zm-2.08,2.77c-2.32.11-3.52,2.11-3.81,5.92a27.53,27.53,0,0,0,.18,5.49c0,.43.11.83.17,1.17,0,.12,0,.23.05.32.67,5.39,2.68,8.57,4.78,8.61a2.45,2.45,0,0,1,2.32,1.79,4.17,4.17,0,0,1,.2.75,2.08,2.08,0,0,1,0,.3c.77,5.49,2.71,11.28,5.14,14.72l4.33,6.1a25.42,25.42,0,0,0,11.83,9.25,22.77,22.77,0,0,0,7.93,1.43h1.73a22.77,22.77,0,0,0,7.93-1.43,25.42,25.42,0,0,0,11.83-9.25l4.32-6.1c2.44-3.44,4.38-9.23,5.14-14.72,0-.08,0-.18.05-.3a3.47,3.47,0,0,1,.2-.75,2.45,2.45,0,0,1,2.32-1.79c2.1,0,4.11-3.22,4.74-8.39,0-.31.07-.42.09-.54.06-.34.11-.74.17-1.17a27.53,27.53,0,0,0,.18-5.49c-.28-3.68-1.41-5.67-3.58-5.9a9.77,9.77,0,0,1-1.94.94c-.34.12-.71.24-1.11.35l0,.09a13,13,0,0,1-1,2.7c-1.36,2.78-3.6,4.52-6.77,4.4A1.73,1.73,0,0,1,242.23,59v-.16c0-.13,0-.29,0-.46,0-.5,0-1.06-.06-1.67-.07-1.72-.17-3.44-.29-5s-.27-3.16-.43-4.31c-.07-.5-.15-.93-.22-1.27-.39,0-.81,0-1.25-.1a16.24,16.24,0,0,1-4.11-1,10.81,10.81,0,0,1-5.43-4.41,28.64,28.64,0,0,1-3.95,2.82,31.64,31.64,0,0,1-11.54,4.18A36.13,36.13,0,0,1,199,46.33c0,.08,0,.17-.05.26a32.12,32.12,0,0,0-.37,4.62c0,1.69,0,3.52,0,5.28,0,.39,0,.74,0,1,0,.11,0,.2,0,.28v.1a1.71,1.71,0,0,1-1.82,1.77,8.64,8.64,0,0,1-8.59-6.54.94.94,0,0,0,0-.16A17.71,17.71,0,0,1,186.43,52.14Z"/></clipPath></defs><g id="Background"><path class="cls-3" d="M16.2,156.82a1.11,1.11,0,1,1,2.21,0v19.94a1.11,1.11,0,1,1-2.21,0Zm11.3,0a1.11,1.11,0,1,1,2.22,0v19.94a1.11,1.11,0,1,1-2.22,0Zm11.3,0a1.11,1.11,0,1,1,2.22,0v19.94a1.11,1.11,0,1,1-2.22,0Zm11.31,0a1.11,1.11,0,1,1,2.22,0v19.94a1.11,1.11,0,1,1-2.22,0Zm11.3,0a1.11,1.11,0,1,1,2.22,0v19.94a1.11,1.11,0,1,1-2.22,0Zm-45.21-33a1.11,1.11,0,1,1,2.21,0v19.94a1.11,1.11,0,1,1-2.21,0Zm11.3,0a1.11,1.11,0,1,1,2.22,0v19.94a1.11,1.11,0,1,1-2.22,0Zm11.3,0a1.11,1.11,0,1,1,2.22,0v19.94a1.11,1.11,0,1,1-2.22,0Zm11.31,0a1.11,1.11,0,1,1,2.22,0v19.94a1.11,1.11,0,1,1-2.22,0Zm11.3,0a1.11,1.11,0,1,1,2.22,0v19.94a1.11,1.11,0,1,1-2.22,0Zm-45.21-33a1.11,1.11,0,1,1,2.21,0v19.95a1.11,1.11,0,1,1-2.21,0Zm11.3,0a1.11,1.11,0,1,1,2.22,0v19.95a1.11,1.11,0,1,1-2.22,0Zm11.3,0a1.11,1.11,0,1,1,2.22,0v19.95a1.11,1.11,0,1,1-2.22,0Zm11.31,0a1.11,1.11,0,1,1,2.22,0v19.95a1.11,1.11,0,1,1-2.22,0Zm11.3,0a1.11,1.11,0,1,1,2.22,0v19.95a1.11,1.11,0,1,1-2.22,0Zm21.9,86.13a1.13,1.13,0,0,1,0-2.25h45.52a1.13,1.13,0,0,1,0,2.25Zm0-10.82a1.13,1.13,0,0,1,0-2.25h45.52a1.13,1.13,0,0,1,0,2.25Zm0-10.82a1.13,1.13,0,0,1,0-2.25h45.52a1.13,1.13,0,0,1,0,2.25Zm0-10.82a1.13,1.13,0,0,1,0-2.25h45.52a1.13,1.13,0,0,1,0,2.25Zm0-10.82a1.12,1.12,0,0,1,0-2.24h45.52a1.12,1.12,0,0,1,0,2.24Zm0-10.82a1.12,1.12,0,0,1,0-2.24h45.52a1.12,1.12,0,0,1,0,2.24Zm0-10.82a1.12,1.12,0,0,1,0-2.24h45.52a1.12,1.12,0,0,1,0,2.24Zm0-10.82a1.12,1.12,0,0,1,0-2.24h45.52a1.12,1.12,0,0,1,0,2.24Zm97.12-19a1.11,1.11,0,1,1,2.22,0v37.13a1.11,1.11,0,1,1-2.22,0Zm-9-18.68a1.11,1.11,0,1,1,2.22,0v57.62a1.11,1.11,0,1,1-2.22,0Zm-8.73-2.26a1.11,1.11,0,1,1,2.22,0V118a1.11,1.11,0,1,1-2.22,0Zm-8.72,0a1.11,1.11,0,1,1,2.22,0v53.55a1.11,1.11,0,1,1-2.22,0Zm-8.73,0a1.11,1.11,0,1,1,2.22,0v61.46a1.11,1.11,0,1,1-2.22,0Zm-8.73,0a1.11,1.11,0,1,1,2.22,0v7.46a1.11,1.11,0,1,1-2.22,0Zm-5.49,7.46a1.11,1.11,0,1,1-2.22,0V54.94A1.11,1.11,0,0,1,130,53.82H171a1.12,1.12,0,0,1,0,2.24H131.08ZM17.31,187.88a1.12,1.12,0,0,1,0-2.24H128.83a1.12,1.12,0,0,1,0,2.24Zm0,18.39a1.12,1.12,0,0,1,0-2.24H138.46a1.12,1.12,0,0,1,0,2.24ZM77.09,78.36V179.89a1.11,1.11,0,1,1-2.22,0V78.36H17.31a1.12,1.12,0,0,1,0-2.24H76.82L75.1,68.74H17.31a1.12,1.12,0,0,1,0-2.24H76a1.12,1.12,0,0,1,1.08.86L79.3,77a1.13,1.13,0,0,1-1.08,1.38ZM136.57,89V76.1H83.31a1.12,1.12,0,0,1,0-2.24h54.37A1.11,1.11,0,0,1,138.79,75v79.18a1.11,1.11,0,1,1-2.22,0V91.24H83.31a1.12,1.12,0,0,1,0-2.24ZM57.7,53.82V49H43.85v4.85Zm2.22-5v5h46V29.07ZM41.63,51.2V47.85a1.12,1.12,0,0,1,1.11-1.12H59L106.6,26.35a1.1,1.1,0,0,1,1.54,1V69.92a1.11,1.11,0,1,1-2.22,0V56.06h-46V62.4a1.11,1.11,0,1,1-2.22,0V56.06H43.85V62.4a1.11,1.11,0,1,1-2.22,0V51.21Z"/><path class="cls-3" d="M392.23,130.21a1.12,1.12,0,1,1,2.23,0v38.18a1.12,1.12,0,1,1-2.23,0Zm0-35.38a1.12,1.12,0,1,1,2.23,0v17.73a1.12,1.12,0,1,1-2.23,0Zm10.15,35.38a1.11,1.11,0,1,1,2.22,0v38.18a1.11,1.11,0,1,1-2.22,0Zm0-55.84a1.11,1.11,0,1,1,2.22,0v38.19a1.11,1.11,0,1,1-2.22,0Zm10.14,55.84a1.12,1.12,0,1,1,2.23,0v38.18a1.12,1.12,0,1,1-2.23,0Zm0-55.84a1.12,1.12,0,1,1,2.23,0v38.19a1.12,1.12,0,1,1-2.23,0Zm10.15,55.84a1.11,1.11,0,1,1,2.22,0v38.18a1.11,1.11,0,1,1-2.22,0Zm0-55.84a1.11,1.11,0,1,1,2.22,0v38.19a1.11,1.11,0,1,1-2.22,0ZM303.52,205.71a1.12,1.12,0,0,1,0-2.24H424.44a1.12,1.12,0,0,1,0,2.24Zm9.32-18.43a1.13,1.13,0,0,1,0-2.25h111.6a1.13,1.13,0,0,1,0,2.25Zm62.25-6.88a1.12,1.12,0,1,1-2.23,0v-23a10.29,10.29,0,1,0-20.58,0v23a1.12,1.12,0,1,1-2.23,0v-23a12.52,12.52,0,1,1,25,0Zm-33.61,0a1.12,1.12,0,1,1-2.23,0v-23a10.29,10.29,0,1,0-20.58,0v23a1.12,1.12,0,1,1-2.23,0v-23a12.52,12.52,0,1,1,25,0Zm33.19-55.22a5.44,5.44,0,1,0-10.87,0v9.94h10.87Zm-5.44-7.74a7.71,7.71,0,0,1,7.67,7.74v11.06a1.12,1.12,0,0,1-1.11,1.12H362.68a1.12,1.12,0,0,1-1.11-1.12V125.18A7.7,7.7,0,0,1,369.23,117.44Zm-18.35,7.74a5.44,5.44,0,1,0-10.88,0v9.94h10.88Zm2.22,11.06a1.12,1.12,0,0,1-1.11,1.12h-13.1a1.12,1.12,0,0,1-1.12-1.12V125.18a7.67,7.67,0,1,1,15.33,0Zm-26-11.06a5.44,5.44,0,1,0-10.88,0v9.94h10.88Zm-5.44-7.74a7.71,7.71,0,0,1,7.67,7.74v11.06a1.12,1.12,0,0,1-1.12,1.12h-13.1a1.12,1.12,0,0,1-1.11-1.12V125.18A7.7,7.7,0,0,1,321.64,117.44Zm53-19.55a5.44,5.44,0,1,0-10.87,0v9.93h10.87Zm-5.44-7.74a7.7,7.7,0,0,1,7.67,7.74v11a1.12,1.12,0,0,1-1.11,1.13H362.68a1.12,1.12,0,0,1-1.11-1.13v-11A7.7,7.7,0,0,1,369.23,90.15Zm-18.35,7.74a5.44,5.44,0,1,0-10.88,0v9.93h10.88Zm2.22,11a1.12,1.12,0,0,1-1.11,1.13h-13.1a1.13,1.13,0,0,1-1.12-1.13v-11a7.67,7.67,0,1,1,15.33,0Zm-26-11a5.44,5.44,0,1,0-10.88,0v9.93h10.88Zm-5.44-7.74a7.7,7.7,0,0,1,7.67,7.74v11a1.13,1.13,0,0,1-1.12,1.13h-13.1a1.12,1.12,0,0,1-1.11-1.13v-11A7.7,7.7,0,0,1,321.64,90.15ZM301.83,150.5a1.13,1.13,0,0,1,0,2.25h-4.32a1.13,1.13,0,0,1,0-2.25Zm0-10.49a1.12,1.12,0,0,1,0,2.24h-4.32a1.12,1.12,0,0,1,0-2.24Zm0-10.52a1.13,1.13,0,0,1,0,2.25h-4.32a1.13,1.13,0,0,1,0-2.25Zm0-10.48a1.12,1.12,0,1,1,0,2.24H290.78a1.12,1.12,0,1,1,0-2.24Zm-27.73,0a1.12,1.12,0,0,1,0,2.24H262.59a1.12,1.12,0,0,1,0-2.24Zm27.73-10.42a1.13,1.13,0,0,1,0,2.25H262.59a1.13,1.13,0,0,1,0-2.25Zm.34-10.49a1.12,1.12,0,0,1,0,2.24H262.59a1.12,1.12,0,0,1,0-2.24Zm0-10.5a1.13,1.13,0,0,1,0,2.25H262.59a1.13,1.13,0,0,1,0-2.25Zm0-10.5a1.13,1.13,0,0,1,0,2.25H262.59a1.13,1.13,0,0,1,0-2.25Zm0-10.49a1.12,1.12,0,0,1,0,2.24H268a1.12,1.12,0,0,1,0-2.24ZM255.29,93.25a1.12,1.12,0,1,1,2.23,0v23a1.12,1.12,0,1,1-2.23,0ZM384.05,86v94.4a1.12,1.12,0,1,1-2.23,0V86H315.31a1.13,1.13,0,0,1,0-2.25h73.06l-6-8.25H315.31a1.13,1.13,0,0,1,0-2.25h67.62a1.1,1.1,0,0,1,.9.46l7.63,10.5a1.13,1.13,0,0,1-.9,1.79ZM282.63,34.89,266.43,52a1.1,1.1,0,0,1-1.57,0,1.14,1.14,0,0,1,0-1.59l16.59-17.55a1.1,1.1,0,0,1,1.21-.9,1.1,1.1,0,0,1,1.21.89l25.56,26.63a1.14,1.14,0,0,1,.32.78V157.8a1.12,1.12,0,1,1-2.23,0v-97ZM394.46,56.11h30a1.13,1.13,0,0,1,0,2.25H365.76v3.45h58.68a1.13,1.13,0,0,1,0,2.25H365.76v4.13a1.11,1.11,0,1,1-2.22,0v-11a1.12,1.12,0,0,1,1.11-1.12h27.58V42.2a1.12,1.12,0,0,1,1.11-1.12h30.44a1.12,1.12,0,0,1,0,2.24H394.46Z"/></g><g id="Fill"><path class="cls-4" d="M135.42,167.31s.06-7.47,5.82-6.24v37.65c-2.79-.64-5.82-2.58-5.82-8Zm162.8,31.07s-6.36,1.69-11.44-2.47l-.06,0A14.24,14.24,0,0,1,283,191a18.82,18.82,0,0,1-1.77-5.57c0-.14-.06-.27-.08-.41s-2-11.62,2.82-16.5a6,6,0,0,1,2.9-1.76v20.71C286.9,188,287.07,198.05,298.22,198.38Zm-141-76.69,64,23.47v1.24l-64-19Zm50.36-23.13a27.63,27.63,0,0,0,12.92,10,25.58,25.58,0,0,0,5,1.27,25.22,25.22,0,0,1-3.68.28h-1.77a25.45,25.45,0,0,1-8.72-1.55,27.63,27.63,0,0,1-12.92-10L194,92.42c-2.94-4.09-4.86-10.52-5.57-15.64,0,0-.1-1.28-.87-1.3-3.38-.06-5.87-4.17-6.59-10,0,0-3-15.25,5.48-15.2a27.19,27.19,0,0,1,.45-3.92l.63-3.56c1.78-10,8.09-16,16.66-19.78a42,42,0,0,1,15.86-3.07h1.77c1.28,0,2.51.07,3.68.17A41.23,41.23,0,0,0,213.37,23c-8.57,3.82-14.88,9.73-16.66,19.78L196.49,44A78.91,78.91,0,0,0,195.74,55c.17,6,.61,16.21,1.68,21.07h0a2.58,2.58,0,0,1,.19.75c.71,5.12,2.63,11.55,5.57,15.64Zm-14,134.84-43.6.21V204.4a19.66,19.66,0,0,0,8.42-5.82A23.93,23.93,0,0,0,163.91,183v-5.87a18,18,0,0,0-2.41-9.08,15.09,15.09,0,0,0-7-6.36l-4.56-2V131.86l25.55,7.87ZM205,105.89s2.29,15.93-8.56,23.4a6.31,6.31,0,0,1-5.83.71l-1.52-.58a2.05,2.05,0,0,1-.35-3.67c5-3.14,12.68-10.36,10.69-24.41Zm29.27,42.19,11.63-3.14v26.69l-5.8-2.59-5.83,6.43Z"/><g class="cls-5"><rect class="cls-6" x="128.16" y="12.68" width="177.32" height="228.2"/></g></g><g id="Outlines"><path class="cls-7" d="M253.5,70.9a1.65,1.65,0,0,1-2,1.32A1.82,1.82,0,0,1,250.3,70s0-.09,0-.19.07-.35.12-.56c.12-.6.24-1.27.35-2,.22-1.37.38-2.71.46-4,0-.33,0-.65,0-1a1.66,1.66,0,1,1,3.3.1c0,.36,0,.73-.05,1.11-.09,1.38-.26,2.85-.5,4.33-.12.76-.25,1.47-.38,2.13C253.6,70.45,253.54,70.74,253.5,70.9ZM189.16,70A1.83,1.83,0,0,1,188,72.22a1.65,1.65,0,0,1-2-1.32c0-.16-.1-.45-.18-.85-.13-.65-.25-1.36-.38-2.12-.23-1.48-.41-3-.5-4.33,0-.38,0-.75,0-1.11a1.75,1.75,0,0,1,1.6-1.85,1.72,1.72,0,0,1,1.7,1.75c0,.31,0,.63.05,1a39.08,39.08,0,0,0,.45,4c.12.71.24,1.38.36,2l.11.56A1.47,1.47,0,0,0,189.16,70Zm65.75-27.4.61,3.54c.17.94.28,1.81.36,2.6a6.47,6.47,0,0,1,4.21,3,13.1,13.1,0,0,1,1.71,6,30.77,30.77,0,0,1-.2,6.2c-.06.48-.12.92-.19,1.31,0,.19-.05.34-.07.45C260.57,72,257.92,76.46,254,77.1c-.85,6-3,12.21-5.74,16.15L244,99.35a29,29,0,0,1-13.48,10.52,26.36,26.36,0,0,1-9.15,1.64h-1.73a26.36,26.36,0,0,1-9.15-1.64A29,29,0,0,1,197,99.35l-4.32-6.1c-2.79-3.94-4.89-10.19-5.74-16.15-3.9-.64-6.55-5.12-7.32-11.35,0-.11,0-.26-.08-.45-.06-.39-.13-.83-.19-1.31a32.31,32.31,0,0,1-.2-6.2,13.1,13.1,0,0,1,1.72-6,6.47,6.47,0,0,1,4.21-3c.07-.79.19-1.66.36-2.6l.61-3.54c1.72-9.89,7.6-16.56,17.33-20.95a41.64,41.64,0,0,1,16.26-3.2h1.73a41.64,41.64,0,0,1,16.23,3.19l.82.38,2.6-1.78a1.76,1.76,0,0,1,2.49.52l1.46,2.36,3.39.77a1.77,1.77,0,0,1,1.19,2.5L248.24,29A25.89,25.89,0,0,1,254.91,42.64ZM139.49,197.08c7.55,3.51,15.72-3.73,15.72-14.44v-6.07c0-4-2-7.56-4.77-8.87L141,163.32c-1.64-.76-3.54.92-3.54,3.64v26.21A4.25,4.25,0,0,0,139.49,197.08Zm-1.41,3.32a7.84,7.84,0,0,1-4.11-7.23V167c0-5.13,4.26-8.9,8.43-7l9.45,4.38c4.14,1.93,6.83,6.8,6.83,12.19v6.07C158.68,195.76,148.16,205.09,138.08,200.4Zm160.43-3.32a4.25,4.25,0,0,0,2-3.91V167c0-2.72-1.9-4.4-3.54-3.64l-9.45,4.38c-2.82,1.31-4.76,4.85-4.76,8.87v6.07C282.8,193.35,291,200.59,298.51,197.08Zm1.41,3.32c-10.08,4.69-20.6-4.64-20.6-17.76v-6.07c0-5.39,2.69-10.26,6.83-12.19L295.6,160c4.17-1.94,8.43,1.83,8.43,7v26.21A7.84,7.84,0,0,1,299.92,200.4Zm-77.29-40.61a1.48,1.48,0,1,1,2.91,0v73.5a1.48,1.48,0,1,1-2.91,0Zm-8.72,0a1.48,1.48,0,1,1,2.91,0v73.5a1.48,1.48,0,1,1-2.91,0Zm31.34,53.39a1.75,1.75,0,0,1-2.19-1.16,1.78,1.78,0,0,1,1.15-2.21l25.58-8.1a1.73,1.73,0,0,1,2.18,1.16,1.76,1.76,0,0,1-1.14,2.21Zm-11.55-7.27a1.83,1.83,0,0,1-2.26-1.11,1.68,1.68,0,0,1,1.18-2.13l42.9-12.59a1.83,1.83,0,0,1,2.26,1.11,1.68,1.68,0,0,1-1.18,2.13Zm0-11.63a1.81,1.81,0,0,1-2.25-1.1,1.67,1.67,0,0,1,1.18-2.12l42.91-12.61a1.82,1.82,0,0,1,2.25,1.11,1.66,1.66,0,0,1-1.17,2.11Zm-23.95,12.63a1.75,1.75,0,0,1,1.18,2.2,1.79,1.79,0,0,1-2.24,1.16l-45.83-13.92a1.75,1.75,0,0,1-1.18-2.2,1.8,1.8,0,0,1,2.25-1.16Zm0-15.81a1.65,1.65,0,0,1,1.19,2.09,1.84,1.84,0,0,1-2.26,1.1l-44.34-12.66a1.64,1.64,0,0,1-1.2-2.08,1.86,1.86,0,0,1,2.27-1.1Zm0-14.71a1.74,1.74,0,0,1,1.18,2.2,1.79,1.79,0,0,1-2.24,1.16l-45.83-13.93a1.74,1.74,0,0,1-1.18-2.2,1.8,1.8,0,0,1,2.25-1.15Zm79.75,29.92a1.48,1.48,0,1,1,2.91,0v28.43a1.48,1.48,0,1,1-2.91,0Zm-142.44-.2a1.46,1.46,0,1,1,2.91,0v27.37a1.46,1.46,0,1,1-2.91,0ZM218.2,143l63.13-22.61a1.75,1.75,0,0,1,2.35,1.63v3.34a1.76,1.76,0,0,1-3.51,0v-.86l-61,21.84a1.74,1.74,0,0,1-.9.08,1.79,1.79,0,0,1-.91-.08l-61-21.9v1.27a1.76,1.76,0,0,1-3.51,0v-3.72a1.74,1.74,0,0,1,2.36-1.6Zm17.52,29.51,3.08-3.65a1.68,1.68,0,0,1,2-.45l3.62,1.74V147.7l-8.72,2.68Zm-1.33,5.91h-.13a1.61,1.61,0,0,1-1.45-1.73V151.27L220.54,155a5.06,5.06,0,0,0-3.08,0l-66.91-20.57v23.29a1.75,1.75,0,0,1-3.5,0V132.13a1.74,1.74,0,0,1,2.27-1.64l69.18,21.27a2.1,2.1,0,0,1,.5.24,1.78,1.78,0,0,1,.5-.24l25.42-7.82a1.33,1.33,0,0,1,1-.45,1.27,1.27,0,0,1,.34,0l42.45-13a1.74,1.74,0,0,1,2.27,1.64v25.63a1.75,1.75,0,0,1-3.5,0V134.47L247.34,146.8v25.44a1.48,1.48,0,0,1,0,.21,1.75,1.75,0,0,1-.15,1,1.69,1.69,0,0,1-2.29.88l-4.35-2.09-4.71,5.57A1.71,1.71,0,0,1,234.39,178.37Zm8.34-59.46c-4.82,5.43-13,8.59-22.29,8.59-9.51,0-17.69-3.21-22.47-8.77a23.43,23.43,0,0,1-5.48,5.45l-.31.22-.8.54c-.85.57-1.74,1.13-2.66,1.66l-1.24.69a1.8,1.8,0,0,1-2.42-.7,1.71,1.71,0,0,1,.72-2.35l1.12-.63c.84-.49,1.68-1,2.46-1.54l.75-.5.19-.14.06,0c4.4-3.2,6.81-7,6.91-11.09a1.78,1.78,0,0,1,3.56.09,14.41,14.41,0,0,1-1,5c3.82,5.39,11.45,8.66,20.63,8.66,8.78,0,16.21-3.06,20.19-8.08a15,15,0,0,1-2-7,1.79,1.79,0,0,1,3.57-.08c.1,4.08,2.57,8.06,6.9,11.17l.06,0,.2.13.74.5c.78.52,1.62,1,2.46,1.52.38.22.76.43,1.13.62a1.69,1.69,0,0,1,.71,2.33,1.82,1.82,0,0,1-2.41.69c-.41-.21-.83-.44-1.25-.68-.91-.53-1.81-1.08-2.66-1.64l-.8-.54-.31-.22A23.5,23.5,0,0,1,242.73,118.91ZM188.51,49.37a12.71,12.71,0,0,0,1.37.61l.5.19a1.69,1.69,0,0,1,1.15,1.49s0,.05,0,.13a4.71,4.71,0,0,0,.11.54,5.66,5.66,0,0,0,.72,1.66,4.69,4.69,0,0,0,2.72,2c0-1.63,0-3.29,0-4.87a32.85,32.85,0,0,1,.43-5.14,6.55,6.55,0,0,1,.65-2,2.31,2.31,0,0,1,2.8-1.2,33.06,33.06,0,0,0,15.42,1.45,28,28,0,0,0,10.24-3.71,25.1,25.1,0,0,0,3.83-2.78c.37-.32.68-.62,1-.89l.28-.29a1.77,1.77,0,0,1,3,.61,7.08,7.08,0,0,0,4.47,4.68,12.58,12.58,0,0,0,3.2.77,13.5,13.5,0,0,0,1.91.08,1.8,1.8,0,0,1,1.74.85c.66,1.13,1,3.72,1.34,7.88.12,1.64.22,3.39.29,5.15,0,.12,0,.24,0,.35a4.43,4.43,0,0,0,1.86-2.12,10.17,10.17,0,0,0,.71-2c.06-.24.11-.46.14-.66s0-.19,0-.21a1.73,1.73,0,0,1,1.36-1.47,12.46,12.46,0,0,0,1.77-.5,6.59,6.59,0,0,0,.89-.38v0c-.07-.79-.18-1.7-.36-2.7l-.61-3.54a22.25,22.25,0,0,0-6.55-12.64,1.77,1.77,0,0,1-.36-2.05l.82-1.69-1.93-.44a1.74,1.74,0,0,1-1.1-.79l-.88-1.41-1.92,1.32a1.77,1.77,0,0,1-1.79.12c-.51-.26-1-.51-1.59-.76A38,38,0,0,0,221.32,22h-1.73a38.06,38.06,0,0,0-14.83,2.89C196,28.85,191,34.6,189.47,43.25l-.61,3.54C188.69,47.74,188.58,48.61,188.51,49.37Zm-2.08,2.77c-2.32.11-3.52,2.11-3.81,5.92a27.53,27.53,0,0,0,.18,5.49c0,.43.11.83.17,1.17,0,.12,0,.23.05.32.67,5.39,2.68,8.57,4.78,8.61a2.45,2.45,0,0,1,2.32,1.79,4.17,4.17,0,0,1,.2.75,2.08,2.08,0,0,1,0,.3c.77,5.49,2.71,11.28,5.14,14.72l4.33,6.1a25.42,25.42,0,0,0,11.83,9.25,22.77,22.77,0,0,0,7.93,1.43h1.73a22.77,22.77,0,0,0,7.93-1.43,25.42,25.42,0,0,0,11.83-9.25l4.32-6.1c2.44-3.44,4.38-9.23,5.14-14.72,0-.08,0-.18.05-.3a3.47,3.47,0,0,1,.2-.75,2.45,2.45,0,0,1,2.32-1.79c2.1,0,4.11-3.22,4.74-8.39,0-.31.07-.42.09-.54.06-.34.11-.74.17-1.17a27.53,27.53,0,0,0,.18-5.49c-.28-3.68-1.41-5.67-3.58-5.9a9.77,9.77,0,0,1-1.94.94c-.34.12-.71.24-1.11.35l0,.09a13,13,0,0,1-1,2.7c-1.36,2.78-3.6,4.52-6.77,4.4A1.73,1.73,0,0,1,242.23,59v-.16c0-.13,0-.29,0-.46,0-.5,0-1.06-.06-1.67-.07-1.72-.17-3.44-.29-5s-.27-3.16-.43-4.31c-.07-.5-.15-.93-.22-1.27-.39,0-.81,0-1.25-.1a16.24,16.24,0,0,1-4.11-1,10.81,10.81,0,0,1-5.43-4.41,28.64,28.64,0,0,1-3.95,2.82,31.64,31.64,0,0,1-11.54,4.18A36.13,36.13,0,0,1,199,46.33c0,.08,0,.17-.05.26a32.12,32.12,0,0,0-.37,4.62c0,1.69,0,3.52,0,5.28,0,.39,0,.74,0,1,0,.11,0,.2,0,.28v.1a1.71,1.71,0,0,1-1.82,1.77,8.64,8.64,0,0,1-8.59-6.54.94.94,0,0,0,0-.16A17.71,17.71,0,0,1,186.43,52.14Z"/><g class="cls-8"><rect class="cls-9" x="126.7" y="11.22" width="184.59" height="232.56"/></g></g></svg> 