<svg width="160px" height="160px" viewBox="0 0 160 160" version="1.1" xmlns="http://www.w3.org/2000/svg" xmlns:xlink="http://www.w3.org/1999/xlink"> 

    <!-- Generator: Sketch 58 (84663) - https://sketch.com --> 

    <title>Illustration / CTA Standard / Feature / Register your business</title> 

    <desc>Created with Sketch.</desc> 

    <g class="Illustration-/-CTA-Standard-/-Feature-/-Register-your-business" stroke="none" stroke-width="1" fill="none" fill-rule="evenodd"> 

        <ellipse class="illustration-shape" fill="#C8D9EE" cx="80.5" cy="80" rx="67.5" ry="68"></ellipse> 

        <path d="M146.2465,134.6738 C152.5105,134.6738 157.5885,137.2258 157.5885,140.3728 C157.5885,143.5208 152.5105,147.9498 146.2465,147.9498 C139.9835,147.9498 134.9045,143.5208 134.9045,140.3728 C134.9045,137.2258 139.9835,134.6738 146.2465,134.6738 Z M113.2713,127.3562 L127.5173,143.4372 L127.516,143.4372 L127.517,147.948 L25.733,147.948 L25.734,143.4362 L39.9793,127.3562 L113.2713,127.3562 Z M144.8835,7.5011 C148.6755,7.5011 151.7505,10.5751 151.7505,14.3681 L151.7505,103.0351 C151.7505,106.8281 148.6755,109.9021 144.8835,109.9021 L8.3665,109.9021 C4.5745,109.9021 1.4995,106.8281 1.4995,103.0351 L1.4995,14.3681 C1.4995,10.5751 4.5745,7.5011 8.3665,7.5011 L144.8835,7.5011 Z" class="illustration-fill" fill="#EDEEF1"></path> 

        <path d="M26.2924,145.0741 L26.0874,149.4031 L127.7464,149.4031 L125.8854,145.1231 L130.8584,150.5441 C131.759333,151.525267 131.11563,153.088592 129.827876,153.191724 L129.6924,153.1971 L24.0964,153.1971 C22.7643333,153.1971 22.0471311,151.66648 22.8417666,150.647593 L22.9294,150.5441 L26.2924,145.0741 Z M157.9301,142.3944 C158.2761,142.9644 158.4641,143.5684 158.4641,144.1944 C158.4641,147.5864 152.9941,152.3564 146.2461,152.3564 C139.4991,152.3564 134.0281,147.5864 134.0281,144.1944 C134.0281,143.5684 134.2171,142.9644 134.5631,142.3944 C136.0951,145.4034 140.7451,148.5744 146.2461,148.5744 C151.7471,148.5744 156.3971,145.4034 157.9301,142.3944 Z M88.2461,110.9016 L88.6021,117.6326 L64.6381,117.6326 L64.9941,110.9016 L88.2461,110.9016 Z M22.0938,8.8615 L38.9618,110.9015 L7.5998,110.9015 C7.5998,110.9015 2.12575753,110.5495 2.12575753,104.4765 L2.12668827,15.1960193 C2.14358538,14.4163861 2.44485263,8.8615 7.5998,8.8615 L22.0938,8.8615 Z" class="illustration-secondary" fill="#B3CBE8"></path> 

        <path d="M113.2703,126.8557 C113.64655,126.8557 114.005956,126.996575 114.280857,127.246839 L114.3933,127.3607 L128.6393,143.4417 C128.6533,143.4577 128.6603,143.4757 128.6723,143.4917 C128.7403,143.5747 128.7993,143.6637 128.8473,143.7597 C128.8593,143.7817 128.8733,143.8017 128.8823,143.8257 C128.9333,143.9367 128.9683,144.0557 128.9903,144.1807 C128.9963,144.2127 128.9973,144.2447 129.0003,144.2767 L129.01055,144.356325 L129.0163,144.4367 L129.0163,148.9487 C129.0163,148.9807 129.0093,149.0107 129.0073,149.0427 C129.0093,149.0737 129.0163,149.1037 129.0163,149.1357 C129.0163,149.914994 128.421034,150.556101 127.660693,150.628829 L127.5163,150.6357 L25.7323,150.6357 C24.9043,150.6357 24.2323,149.9637 24.2323,149.1357 C24.2323,149.1037 24.2403,149.0737 24.2423,149.0427 L24.23655,148.9957 L24.2323,148.9487 L24.2323,144.4367 C24.2323,144.3817 24.2423,144.3307 24.2483,144.2767 C24.2523,144.2447 24.2533,144.2127 24.2573,144.1807 C24.2793,144.0557 24.3153,143.9367 24.3653,143.8257 C24.3763,143.8017 24.3893,143.7817 24.4013,143.7587 C24.4503,143.6637 24.5083,143.5747 24.5763,143.4917 L24.5928,143.4667 L24.6093,143.4417 L38.8553,127.3607 C39.104675,127.079825 39.4489875,126.903841 39.8185656,126.864233 L39.9783,126.8557 L113.2703,126.8557 Z M146.2461,134.1744 C153.5671,134.1744 159.0881,137.2684 159.0881,141.3734 C159.0881,145.4594 153.1621,150.4494 146.2461,150.4494 C139.3301,150.4494 133.4041,145.4594 133.4041,141.3734 C133.4041,137.2684 138.9251,134.1744 146.2461,134.1744 Z M146.2461,137.1744 C140.6131,137.1744 136.4041,139.3904 136.4041,141.3734 C136.4041,143.4534 140.5601,147.4494 146.2461,147.4494 C151.9321,147.4494 156.0881,143.4534 156.0881,141.3734 C156.0881,139.3904 151.8791,137.1744 146.2461,137.1744 Z M126.0163,145.9367 L27.2323,145.9367 L27.2323,147.4487 L126.0163,147.4487 L126.0163,145.9367 Z M112.5953,129.8557 L40.6533,129.8557 L29.0653,142.9367 L124.1833,142.9367 L112.5953,129.8557 Z M83.5615,137.5686 C84.3895,137.5686 85.0615,138.2406 85.0615,139.0686 C85.0615,139.847894 84.4662336,140.489001 83.7058932,140.561729 L83.5615,140.5686 L69.2645,140.5686 C68.4365,140.5686 67.7645,139.8966 67.7645,139.0686 C67.7645,138.289306 68.3597664,137.648199 69.1201068,137.575471 L69.2645,137.5686 L83.5615,137.5686 Z M42.9756,137.5686 C43.8036,137.5686 44.4756,138.2406 44.4756,139.0686 C44.4756,139.847894 43.8803336,140.489001 43.1199932,140.561729 L42.9756,140.5686 L38.5076,140.5686 C37.6796,140.5686 37.0076,139.8966 37.0076,139.0686 C37.0076,138.289306 37.6028664,137.648199 38.3632068,137.575471 L38.5076,137.5686 L42.9756,137.5686 Z M53.2285,137.5686 C54.0565,137.5686 54.7285,138.2406 54.7285,139.0686 C54.7285,139.847894 54.1332336,140.489001 53.3728932,140.561729 L53.2285,140.5686 L48.7595,140.5686 C47.9315,140.5686 47.2595,139.8966 47.2595,139.0686 C47.2595,138.289306 47.8547664,137.648199 48.6151068,137.575471 L48.7595,137.5686 L53.2285,137.5686 Z M63.4805,137.5686 C64.3085,137.5686 64.9805,138.2406 64.9805,139.0686 C64.9805,139.847894 64.3852336,140.489001 63.6248932,140.561729 L63.4805,140.5686 L59.0125,140.5686 C58.1845,140.5686 57.5125,139.8966 57.5125,139.0686 C57.5125,138.289306 58.1077664,137.648199 58.8681068,137.575471 L59.0125,137.5686 L63.4805,137.5686 Z M94.2373,137.5686 C95.0653,137.5686 95.7373,138.2406 95.7373,139.0686 C95.7373,139.847894 95.1420336,140.489001 94.3816932,140.561729 L94.2373,140.5686 L89.7693,140.5686 C88.9413,140.5686 88.2693,139.8966 88.2693,139.0686 C88.2693,138.289306 88.8645664,137.648199 89.6249068,137.575471 L89.7693,137.5686 L94.2373,137.5686 Z M104.4893,137.5686 C105.3173,137.5686 105.9893,138.2406 105.9893,139.0686 C105.9893,139.847894 105.394034,140.489001 104.633693,140.561729 L104.4893,140.5686 L100.0213,140.5686 C99.1933,140.5686 98.5213,139.8966 98.5213,139.0686 C98.5213,138.289306 99.1165664,137.648199 99.8769068,137.575471 L100.0213,137.5686 L104.4893,137.5686 Z M114.7422,137.5686 C115.5702,137.5686 116.2422,138.2406 116.2422,139.0686 C116.2422,139.847894 115.646934,140.489001 114.886593,140.561729 L114.7422,140.5686 L110.2742,140.5686 C109.4462,140.5686 108.7742,139.8966 108.7742,139.0686 C108.7742,138.289306 109.369466,137.648199 110.129807,137.575471 L110.2742,137.5686 L114.7422,137.5686 Z M46.8506,132.2424 C47.6786,132.2424 48.3506,132.9144 48.3506,133.7424 C48.3506,134.521694 47.7553336,135.162801 46.9949932,135.235529 L46.8506,135.2424 L42.8966,135.2424 C42.0686,135.2424 41.3966,134.5704 41.3966,133.7424 C41.3966,132.963106 41.9918664,132.321999 42.7522068,132.249271 L42.8966,132.2424 L46.8506,132.2424 Z M55.9219,132.2424 C56.7499,132.2424 57.4219,132.9144 57.4219,133.7424 C57.4219,134.521694 56.8266336,135.162801 56.0662932,135.235529 L55.9219,135.2424 L51.9689,135.2424 C51.1409,135.2424 50.4689,134.5704 50.4689,133.7424 C50.4689,132.963106 51.0641664,132.321999 51.8245068,132.249271 L51.9689,132.2424 L55.9219,132.2424 Z M64.9941,132.2424 C65.8221,132.2424 66.4941,132.9144 66.4941,133.7424 C66.4941,134.521694 65.8988336,135.162801 65.1384932,135.235529 L64.9941,135.2424 L61.0401,135.2424 C60.2121,135.2424 59.5401,134.5704 59.5401,133.7424 C59.5401,132.963106 60.1353664,132.321999 60.8957068,132.249271 L61.0401,132.2424 L64.9941,132.2424 Z M74.0653,132.2424 C74.8933,132.2424 75.5653,132.9144 75.5653,133.7424 C75.5653,134.521694 74.9700336,135.162801 74.2096932,135.235529 L74.0653,135.2424 L70.1123,135.2424 C69.2843,135.2424 68.6123,134.5704 68.6123,133.7424 C68.6123,132.963106 69.2075664,132.321999 69.9679068,132.249271 L70.1123,132.2424 L74.0653,132.2424 Z M83.1376,132.2424 C83.9656,132.2424 84.6376,132.9144 84.6376,133.7424 C84.6376,134.521694 84.0423336,135.162801 83.2819932,135.235529 L83.1376,135.2424 L79.1836,135.2424 C78.3556,135.2424 77.6836,134.5704 77.6836,133.7424 C77.6836,132.963106 78.2788664,132.321999 79.0392068,132.249271 L79.1836,132.2424 L83.1376,132.2424 Z M92.209,132.2424 C93.037,132.2424 93.709,132.9144 93.709,133.7424 C93.709,134.521694 93.1137336,135.162801 92.3533932,135.235529 L92.209,135.2424 L88.256,135.2424 C87.428,135.2424 86.756,134.5704 86.756,133.7424 C86.756,132.963106 87.3512664,132.321999 88.1116068,132.249271 L88.256,132.2424 L92.209,132.2424 Z M101.2813,132.2424 C102.1093,132.2424 102.7813,132.9144 102.7813,133.7424 C102.7813,134.521694 102.186034,135.162801 101.425693,135.235529 L101.2813,135.2424 L97.3273,135.2424 C96.4993,135.2424 95.8273,134.5704 95.8273,133.7424 C95.8273,132.963106 96.4225664,132.321999 97.1829068,132.249271 L97.3273,132.2424 L101.2813,132.2424 Z M110.3525,132.2424 C111.1805,132.2424 111.8525,132.9144 111.8525,133.7424 C111.8525,134.521694 111.257234,135.162801 110.496893,135.235529 L110.3525,135.2424 L106.3995,135.2424 C105.5715,135.2424 104.8995,134.5704 104.8995,133.7424 C104.8995,132.963106 105.494766,132.321999 106.255107,132.249271 L106.3995,132.2424 L110.3525,132.2424 Z M64.8378808,114.048509 L64.9733,114.0577 C65.8003,114.1227 66.4173,114.8437 66.3523,115.6687 C66.0763,119.2137 65.4143,122.1037 64.3833,124.2577 C64.1263,124.7957 63.5893,125.1107 63.0293,125.1107 C62.8123,125.1107 62.5913,125.0637 62.3833,124.9637 C61.6353,124.6067 61.3193,123.7097 61.6763,122.9627 C62.5353,121.1687 63.1183,118.5667 63.3623,115.4367 C63.4183,114.703367 64.0013123,114.108305 64.7046868,114.052546 L64.8378808,114.048509 Z M89.8864,115.4368 C90.1304,118.5648 90.7134,121.1668 91.5734,122.9628 C91.9304,123.7098 91.6144,124.6068 90.8674,124.9638 C90.6584,125.0638 90.4374,125.1108 90.2204,125.1108 C89.6614,125.1108 89.1244,124.7958 88.8664,124.2578 C87.8354,122.1018 87.1714,119.2118 86.8964,115.6688 C86.8324,114.8438 87.4494,114.1218 88.2754,114.0578 C89.0944,113.9808 89.8234,114.6098 89.8864,115.4368 Z M144.883,7.0003 C149.410574,7.0003 153.110668,10.6165503 153.246156,15.1119244 L153.25,15.3673 L153.25,104.0353 C153.25,108.562874 149.63375,112.262005 145.138376,112.397457 L144.883,112.4013 L8.367,112.4013 C3.83942593,112.4013 0.139331619,108.786013 0.00384375476,104.290675 L0,104.0353 L0,15.3673 C0,10.8397259 3.61625034,7.13963162 8.11162435,7.00414375 L8.367,7.0003 L144.883,7.0003 Z M144.883,10.0003 L8.367,10.0003 C5.47919512,10.0003 3.1177436,12.2922691 3.00426876,15.1517981 L3,15.3673 L3,104.0353 C3,106.922129 5.29101725,109.283557 8.15142845,109.397031 L8.367,109.4013 L144.883,109.4013 C147.770805,109.4013 150.132256,107.110283 150.245731,104.2508 L150.25,104.0353 L150.25,15.3673 C150.25,12.4083 147.843,10.0003 144.883,10.0003 Z M76.625,95.9485 C79.496,95.9485 81.831,98.2835 81.831,101.1545 C81.831,104.0255 79.496,106.3605 76.625,106.3605 C73.754,106.3605 71.419,104.0255 71.419,101.1545 C71.419,98.2835 73.754,95.9485 76.625,95.9485 Z M76.625,98.9485 C75.408,98.9485 74.419,99.9375 74.419,101.1545 C74.419,102.3715 75.408,103.3605 76.625,103.3605 C77.842,103.3605 78.831,102.3715 78.831,101.1545 C78.831,99.9375 77.842,98.9485 76.625,98.9485 Z M144.1885,90.2385 C145.0165,90.2385 145.6885,90.9105 145.6885,91.7385 C145.6885,92.5177941 145.093234,93.1589014 144.332893,93.2316292 L144.1885,93.2385 L8.6515,93.2385 C7.8235,93.2385 7.1515,92.5665 7.1515,91.7385 C7.1515,90.9592059 7.74676644,90.3180986 8.50710676,90.2453708 L8.6515,90.2385 L144.1885,90.2385 Z M144.599,14.184 C145.378294,14.184 146.019401,14.7792664 146.092129,15.5396068 L146.099,15.684 L146.099,85.681 C146.099,86.4602941 145.503734,87.1014014 144.743393,87.1741292 L144.599,87.181 L8.651,87.181 C7.87170588,87.181 7.23059862,86.5857336 7.15787075,85.8253932 L7.151,85.681 L7.151,15.684 C7.151,14.9047059 7.74626644,14.2635986 8.50660676,14.1908708 L8.651,14.184 L144.599,14.184 Z M143.098,17.184 L10.151,17.184 L10.151,84.181 L143.098,84.181 L143.098,17.184 Z M115.3242,25.8665 C116.60004,25.8665 117.648245,26.8636712 117.73006,28.119259 L117.7352,28.2775 L117.7352,73.0875 C117.7352,74.36334 116.738029,75.4115448 115.482441,75.4933598 L115.3242,75.4985 L37.9262,75.4985 C36.6494,75.4985 35.6011568,74.5013288 35.5193402,73.245741 L35.5142,73.0875 L35.5142,28.2775 C35.5142,27.00166 36.5113712,25.9534552 37.7678438,25.8716402 L37.9262,25.8665 L115.3242,25.8665 Z M115.5142,37.0275 L37.7352,37.0275 L37.7352,73.0875 C37.7352,73.175 37.7942278,73.2486111 37.8752463,73.2707176 L37.9262,73.2775 L115.3242,73.2775 C115.4117,73.2775 115.485311,73.2184722 115.507418,73.1380324 L115.5142,73.0875 L115.5142,37.0275 Z M70.104,61.244 C70.718,61.244 71.215,61.741 71.215,62.355 L71.215,62.355 L71.215,67.999 C71.215,68.612 70.718,69.11 70.104,69.11 L70.104,69.11 L48.896,69.11 C48.282,69.11 47.785,68.612 47.785,67.999 L47.785,67.999 L47.785,62.355 C47.785,61.741 48.282,61.244 48.896,61.244 L48.896,61.244 Z M104.354,40.843 C104.927067,40.843 105.398213,41.2759422 105.458486,41.8320596 L105.465,41.953 L105.465,67.928 C105.465,68.5001333 105.032058,68.9712178 104.475127,69.0314862 L104.354,69.038 L76.137,69.038 C75.5639333,69.038 75.0927867,68.6050578 75.0325141,68.0489404 L75.026,67.928 L75.026,41.953 C75.026,41.3808667 75.4589422,40.9097822 76.0158726,40.8495138 L76.137,40.843 L104.354,40.843 Z M68.994,63.465 L50.006,63.465 L50.006,66.889 L68.994,66.889 L68.994,63.465 Z M103.244,43.064 L77.247,43.064 L77.247,66.818 L103.244,66.818 L103.244,43.064 Z M96.861,49.5523 C97.264,49.9543714 97.2927857,50.589249 96.9473571,51.0253791 L96.861,51.1223 L87.655,60.3293 C87.447,60.5373 87.165,60.6543 86.87,60.6543 C86.618,60.6543 86.3740816,60.5683408 86.1785481,60.4127956 L86.085,60.3293 L83.629,57.8733 C83.195,57.4393 83.195,56.7363 83.629,56.3033 C84.032,55.9003 84.6669439,55.8715143 85.1022781,56.2169429 L85.199,56.3033 L86.87,57.9743 L95.291,49.5523 C95.725,49.1183 96.428,49.1183 96.861,49.5523 Z M48.896,51.079 L70.104,51.079 C70.6770667,51.079 71.1482133,51.5119422 71.2084859,52.0688726 L71.215,52.19 L71.215,57.834 C71.215,58.4061333 70.7820578,58.8780889 70.2251274,58.9384735 L70.104,58.945 L48.896,58.945 C48.3229333,58.945 47.8517867,58.5111867 47.7915141,57.9549532 L47.785,57.834 L47.785,52.19 C47.785,51.6169333 48.2179422,51.1457867 48.7748726,51.0855141 L48.896,51.079 L70.104,51.079 Z M68.994,53.3 L50.006,53.3 L50.006,56.724 L68.994,56.724 L68.994,53.3 Z M70.104,40.914 C70.6770667,40.914 71.1482133,41.3469422 71.2084859,41.9038726 L71.215,42.025 L71.215,47.669 C71.215,48.2411333 70.7820578,48.7122178 70.2251274,48.7724862 L70.104,48.779 L48.896,48.779 C48.3229333,48.779 47.8517867,48.3460578 47.7915141,47.7899404 L47.785,47.669 L47.785,42.025 C47.785,41.4519333 48.2179422,40.9807867 48.7748726,40.9205141 L48.896,40.914 L70.104,40.914 Z M68.994,43.135 L50.006,43.135 L50.006,46.559 L68.994,46.559 L68.994,43.135 Z M115.3242,28.0875 L37.9262,28.0875 C37.8378667,28.0875 37.7641167,28.1465278 37.741987,28.2269676 L37.7352,28.2775 L37.7352,34.8065 L115.5142,34.8065 L115.5142,28.2775 C115.5142,28.1725 115.4292,28.0875 115.3242,28.0875 Z M40.8408,30.3069 C41.4928,30.3069 42.0278,30.8409 42.0278,31.4939 C42.0278,32.1060875 41.5575852,32.6136852 40.9615769,32.6747435 L40.8408,32.6809 C40.1878,32.6809 39.6538,32.1469 39.6538,31.4939 C39.6538,30.8409 40.1878,30.3069 40.8408,30.3069 Z M44.3486,30.3069 C45.0006,30.3069 45.5356,30.8409 45.5356,31.4939 C45.5356,32.1060875 45.0653852,32.6136852 44.4693769,32.6747435 L44.3486,32.6809 C43.6956,32.6809 43.1616,32.1469 43.1616,31.4939 C43.1616,30.8409 43.6956,30.3069 44.3486,30.3069 Z M104.6373,30.3837 C105.2513,30.3837 105.7483,30.8807 105.7483,31.4947 C105.7483,32.0668333 105.315358,32.5379178 104.758427,32.5981862 L104.6373,32.6047 L48.6113,32.6047 C47.9983,32.6047 47.5013,32.1077 47.5013,31.4947 C47.5013,30.9216333 47.9342422,30.4504867 48.4903596,30.3902141 L48.6113,30.3837 L104.6373,30.3837 Z" class="illustration-primary"  fill="#2157AA"></path> 

    </g> 

</svg> 