<?xml version="1.0" encoding="UTF-8"?><svg id="a" xmlns="http://www.w3.org/2000/svg" width="220" height="220" viewBox="0 0 220 220"><g id="b"><path d="M17.1,107.3v21.27s2.59,6.48,2.77,7.59,6.11,4.07,6.11,4.07l3.34,2.04s18.69,3.14,26.46-1.11c-5.18,4.45-6.29,5.17-6.29,5.17,0,0-28.3,12.95-42.73-11.84-.27-9.15,.22-18.31,1.48-27.38l8.87,.19Z" style="fill:#b3cbe8;"/><path d="M168.18,107.3v21.27s2.59,6.48,2.77,7.59,6.11,4.07,6.11,4.07l3.34,2.04s18.69,3.14,26.46-1.11c-5.17,4.45-6.29,5.17-6.29,5.17,0,0-28.3,12.95-42.73-11.84-.27-9.15,.22-18.31,1.48-27.38l8.87,.19Z" style="fill:#b3cbe8;"/><path d="M40.84,196.88s-.75,5.66,3.69,6.16,129.06,0,129.06,0c0,0,10.38,.42,5.67-6.91-4.45-6.91-18.99-13.81-18.99-13.81l10.85,10.36,3.7,3.94s-1.78,2.48-2.53,2.48l-109.27-.49-22.2-1.74Z" style="fill:#b3cbe8;"/><path d="M108.92,42.75V13.83s1.22-.24-3.22,.24-6.41,7.15-6.41,7.15v25.48c2.67-2.36,6.06-3.75,9.62-3.95Z" style="fill:#b3cbe8;"/><path d="M118.04,71.54l-9.12,3.12-9.56-3.94c0,40.82-.27,92.73-1.3,97.03-1.72,7.14-12.08,14.3-12.08,14.3l22.94,.26V81.83c3.25,.13,6.45-.79,9.12-2.64-.13-2.55-.13-5.1,0-7.65Z" style="fill:#b3cbe8;"/></g><g id="c"><path d="M12.03,65.35c-1.6,.03-3.15-.52-4.38-1.55-1.55-1.48-2.37-3.57-2.23-5.71-.12-2.16,.69-4.26,2.23-5.79,1.37-1.22,3.16-1.86,5-1.8H86.13c.92,0,1.67,.75,1.67,1.67s-.75,1.67-1.67,1.67H12.42c-.94-.02-1.86,.31-2.58,.92-.81,.91-1.22,2.12-1.11,3.34-.11,1.18,.3,2.34,1.11,3.19,.72,.54,1.61,.79,2.5,.7H86.1c.92,0,1.67,.75,1.67,1.67s-.75,1.67-1.67,1.67H12.67c-.14-.01-.36,.01-.63,.01Z" style="fill:#2147aa;"/><path d="M49.47,102.56c-.61,0-1.18-.34-1.47-.88l-14.12-25.99-15.03,26.03c-.46,.8-1.48,1.07-2.28,.61s-1.07-1.48-.61-2.28l16.49-28.62c.3-.53,.86-.85,1.47-.83,.6,.01,1.15,.34,1.45,.87l15.58,28.62c.42,.8,.12,1.79-.67,2.23-.24,.15-.52,.24-.8,.24Z" style="fill:#2147aa;"/><path d="M33.87,151.64c-15.64,0-28.37-9.29-28.37-20.7,0-.47,0-.93,.07-1.39v-22.25c0-.92,.75-1.67,1.67-1.67H60.64c.92,0,1.67,.75,1.67,1.67v23.1c0,.16-.02,.32-.07,.48h0c0,11.49-12.73,20.77-28.37,20.77ZM8.91,108.98v20.65c0,.05,0,.1,0,.16,0,.39-.06,.77-.06,1.11,0,9.58,11.23,17.37,25.03,17.37s25.03-7.79,25.03-17.37v-.48c0-.2,.02-.41,.09-.6v-20.84H8.91Z" style="fill:#2147aa;"/><path d="M33.89,143.47c-10.01,0-18.18-6.03-18.18-13.45v-14.57c0-.92,.75-1.67,1.67-1.67s1.67,.75,1.67,1.67v13.96c-.01,.21-.01,.43,0,.65,0,5.56,6.68,10.11,14.84,10.11,.92,0,1.67,.75,1.67,1.67s-.75,1.67-1.67,1.67v-.03Z" style="fill:#2147aa;"/><path d="M207.77,65.35c1.6,.03,3.15-.52,4.38-1.55,1.55-1.48,2.37-3.57,2.23-5.71,.12-2.16-.69-4.26-2.23-5.79-1.37-1.22-3.16-1.86-5-1.8h-73.46c-.92,0-1.67,.75-1.67,1.67s.75,1.67,1.67,1.67h73.65c.94-.02,1.86,.31,2.58,.92,.81,.91,1.22,2.12,1.11,3.34,.1,1.17-.3,2.34-1.11,3.19-.72,.54-1.61,.79-2.5,.7h-73.73c-.92,0-1.67,.75-1.67,1.67s.75,1.67,1.67,1.67h73.43c.16-.01,.37,.01,.65,.01Z" style="fill:#2147aa;"/><path d="M200.55,102.56c-.61,0-1.18-.34-1.47-.88l-14.12-25.99-15.03,26.03c-.58,.72-1.63,.84-2.35,.26-.57-.46-.78-1.23-.51-1.91l16.52-28.62c.3-.52,.85-.83,1.45-.83h0c.6,.01,1.15,.34,1.45,.87l15.58,28.62c.41,.8,.11,1.79-.68,2.23-.25,.15-.54,.23-.83,.22Z" style="fill:#2147aa;"/><path d="M184.95,151.64c-15.64,0-28.37-9.29-28.37-20.7,0-.47,0-.93,.07-1.39v-22.25c0-.92,.75-1.67,1.67-1.67h53.4c.92,0,1.67,.75,1.67,1.67v23.1c0,.16-.02,.32-.07,.48h0c0,11.49-12.73,20.77-28.37,20.77Zm-24.97-42.66v20.65c0,.05,0,.1,0,.16,0,.39-.06,.77-.06,1.11,0,9.58,11.23,17.37,25.03,17.37s25.03-7.79,25.03-17.37v-.48c0-.2,.02-.41,.09-.6v-20.84h-50.1Z" style="fill:#2147aa;"/><path d="M184.96,143.47c-10.01,0-18.18-6.03-18.18-13.45v-14.57c0-.92,.75-1.67,1.67-1.67s1.67,.75,1.67,1.67v13.96c-.01,.21-.01,.43,0,.65,0,5.56,6.68,10.11,14.84,10.11,.92,0,1.67,.75,1.67,1.67s-.75,1.67-1.67,1.67v-.03Z" style="fill:#2147aa;"/><path d="M109.96,76.06c-9.52,0-17.24-7.72-17.24-17.24s7.72-17.24,17.24-17.24,17.24,7.72,17.24,17.24h0c0,9.52-7.72,17.24-17.24,17.24Zm0-31.15c-7.68,0-13.91,6.23-13.91,13.91s6.23,13.91,13.91,13.91,13.91-6.23,13.91-13.91h0c0-7.68-6.23-13.9-13.91-13.91Z" style="fill:#2147aa;"/><path d="M109.96,68.15c-5.16,0-9.34-4.17-9.34-9.33,0-5.16,4.17-9.34,9.33-9.34h0c.92,0,1.67,.75,1.67,1.67s-.75,1.67-1.67,1.67h0c-3.31,0-6,2.68-6,5.99s2.68,6,5.99,6h0c.92,0,1.67,.75,1.67,1.67s-.75,1.67-1.67,1.67h0Z" style="fill:#2147aa;"/><path d="M118.53,39.42c-.92,0-1.67-.75-1.67-1.67V21.09c-1.36-3.31-4.62-5.44-8.2-5.36-3.48-.13-6.62,2.06-7.7,5.36v16.24c0,.92-.75,1.67-1.67,1.67s-1.67-.75-1.67-1.67V20.8c-.02-.14-.02-.28,0-.41,1.42-4.85,5.93-8.13,10.98-7.99,5.1-.07,9.7,3.09,11.46,7.88,.05,.17,.08,.35,.08,.52v16.98c-.02,.89-.73,1.61-1.61,1.64Z" style="fill:#2147aa;"/><path d="M95.1,175.82c-.92,0-1.67-.74-1.68-1.66,0-.55,.27-1.07,.73-1.39,3.62-2.48,3.72-8.32,3.72-8.98V78.44c0-.92,.75-1.67,1.67-1.67s1.67,.75,1.67,1.67v85.35c0,1.37-.24,8.36-5.16,11.74-.28,.19-.61,.29-.95,.29Z" style="fill:#2147aa;"/><path d="M122.48,175.82c-.33,0-.66-.1-.93-.29-4.92-3.34-5.16-10.37-5.16-11.74V78.44c0-.92,.75-1.67,1.67-1.67s1.67,.75,1.67,1.67v85.35c0,.66,.1,6.5,3.72,8.98,.76,.52,.96,1.56,.44,2.32-.31,.46-.84,.74-1.4,.73h0Z" style="fill:#2147aa;"/><path d="M173.4,199.99H43.43c-.71,.03-1.42-.2-1.97-.66-.57-.49-.88-1.21-.87-1.96,0-4.35,12.43-16.51,18.12-16.51h99.45c3.73,0,9.06,4.61,11.13,6.6,1.64,1.52,6.95,6.74,6.95,9.91,.02,.75-.3,1.47-.87,1.96-.56,.45-1.26,.69-1.98,.66Zm-.5-2.61h0Zm-128.71-.73H172.63c-1.57-3.34-10.93-12.45-14.56-12.45H58.72c-1.34,0-4.67,1.76-8.82,5.63-2.25,1.95-4.18,4.26-5.71,6.82h0Z" style="fill:#2147aa;"/></g></svg>