<svg xmlns="http://www.w3.org/2000/svg" viewBox="0 0 441 253"><defs><style>.cls-1{fill:#ffe4de;}.cls-2{fill:#f7c4c4;}.cls-3{fill:#fe704f;}.cls-4{fill:#333;}</style></defs><g id="Bkg_colour" data-name="Bkg colour"><rect class="cls-1" x="0.8" y="0.63" width="440" height="252"/></g><g id="Bkg_lines" data-name="Bkg lines"><path class="cls-2" d="M431.63,101.84H338.38a1.14,1.14,0,0,1,0-2.27h91.39l-5.6-11H338.38a1.14,1.14,0,0,1,0-2.27h86.49a1.13,1.13,0,0,1,1,.62l6.76,13.3a1.14,1.14,0,0,1-1,1.65Z"/><path class="cls-2" d="M329.8,217.6a1.14,1.14,0,0,1-1.14-1.14V69.62a1.14,1.14,0,1,1,2.27,0V216.46A1.14,1.14,0,0,1,329.8,217.6Z"/><path class="cls-2" d="M321.58,93.42H294.19a1.14,1.14,0,1,1,0-2.27h27.39a1.14,1.14,0,1,1,0,2.27Z"/><path class="cls-2" d="M321.58,106.72h-39a1.14,1.14,0,1,1,0-2.28h39a1.14,1.14,0,0,1,0,2.28Z"/><path class="cls-2" d="M321.58,120H279.72a1.14,1.14,0,0,1,0-2.27h41.86a1.14,1.14,0,1,1,0,2.27Z"/><path class="cls-2" d="M321.15,133.3H279.72a1.14,1.14,0,0,1,0-2.27h41.43a1.14,1.14,0,0,1,0,2.27Z"/><path class="cls-2" d="M321.15,159.77H279.72a1.14,1.14,0,0,1,0-2.27h41.43a1.14,1.14,0,0,1,0,2.27Z"/><path class="cls-2" d="M321.15,173.09H279.72a1.14,1.14,0,0,1,0-2.27h41.43a1.14,1.14,0,0,1,0,2.27Z"/><path class="cls-2" d="M321.15,186.38H279.72a1.14,1.14,0,0,1,0-2.27h41.43a1.14,1.14,0,0,1,0,2.27Z"/><path class="cls-2" d="M321.15,199.67H279.72a1.14,1.14,0,0,1,0-2.28h41.43a1.14,1.14,0,0,1,0,2.28Z"/><path class="cls-2" d="M321.15,213H279.72a1.14,1.14,0,0,1,0-2.27h41.43a1.14,1.14,0,0,1,0,2.27Z"/><path class="cls-2" d="M424.87,217.6a1.13,1.13,0,0,1-1.13-1.14V100.7a1.14,1.14,0,0,1,2.27,0V216.46A1.14,1.14,0,0,1,424.87,217.6Z"/><path class="cls-2" d="M354.86,132.33H338.1a1.14,1.14,0,0,1-1.13-1.14v-14a9.52,9.52,0,1,1,19,0v14A1.14,1.14,0,0,1,354.86,132.33Zm-15.62-2.28h14.49V117.19a7.25,7.25,0,1,0-14.49,0Z"/><path class="cls-2" d="M385.3,132.33H368.54a1.14,1.14,0,0,1-1.14-1.14v-14a9.52,9.52,0,1,1,19,0v14A1.14,1.14,0,0,1,385.3,132.33Zm-15.63-2.28h14.49V117.19a7.25,7.25,0,1,0-14.49,0Z"/><path class="cls-2" d="M415.73,132.33H399a1.13,1.13,0,0,1-1.13-1.14v-14a9.52,9.52,0,1,1,19,0v14A1.14,1.14,0,0,1,415.73,132.33Zm-15.62-2.28h14.48V117.19a7.24,7.24,0,1,0-14.48,0Z"/><path class="cls-2" d="M354.86,166.9H338.1a1.14,1.14,0,0,1-1.13-1.14v-14a9.52,9.52,0,1,1,19,0v14A1.14,1.14,0,0,1,354.86,166.9Zm-15.62-2.28h14.49V151.76a7.25,7.25,0,1,0-14.49,0Z"/><path class="cls-2" d="M385.3,166.9H368.54a1.14,1.14,0,0,1-1.14-1.14v-14a9.52,9.52,0,1,1,19,0v14A1.14,1.14,0,0,1,385.3,166.9Zm-15.63-2.28h14.49V151.76a7.25,7.25,0,1,0-14.49,0Z"/><path class="cls-2" d="M415.73,166.9H399a1.13,1.13,0,0,1-1.13-1.14v-14a9.52,9.52,0,1,1,19,0v14A1.14,1.14,0,0,1,415.73,166.9Zm-15.62-2.28h14.48V151.76a7.24,7.24,0,1,0-14.48,0Z"/><path class="cls-2" d="M370.43,217.6a1.14,1.14,0,0,1-1.14-1.14V192.53a13.45,13.45,0,0,0-26.9,0v23.93a1.14,1.14,0,1,1-2.27,0V192.53a15.72,15.72,0,0,1,31.44,0v23.93A1.14,1.14,0,0,1,370.43,217.6Z"/><path class="cls-2" d="M413.41,217.6a1.14,1.14,0,0,1-1.14-1.14V192.53a13.45,13.45,0,1,0-26.89,0v23.93a1.14,1.14,0,1,1-2.28,0V192.53a15.73,15.73,0,0,1,31.45,0v23.93A1.14,1.14,0,0,1,413.41,217.6Z"/><path class="cls-2" d="M39.6,91H13a1.14,1.14,0,0,1,0-2.27H38.16l-2.33-9.94H13a1.14,1.14,0,0,1,0-2.27H36.73a1.14,1.14,0,0,1,1.11.87L40.7,89.64a1.14,1.14,0,0,1-.21,1A1.16,1.16,0,0,1,39.6,91Z"/><path class="cls-2" d="M36.73,216.41a1.13,1.13,0,0,1-1.14-1.13V89.89a1.14,1.14,0,0,1,2.27,0V215.28A1.12,1.12,0,0,1,36.73,216.41Z"/><path class="cls-2" d="M115.86,217.6a1.14,1.14,0,0,1-1.14-1.14V107.39H46.13a1.14,1.14,0,0,1,0-2.28h69.73a1.14,1.14,0,0,1,1.13,1.14V216.46A1.14,1.14,0,0,1,115.86,217.6Z"/><path class="cls-2" d="M115.86,107.39a1.14,1.14,0,0,1-1.14-1.14V88.16H46.13a1.14,1.14,0,0,1,0-2.27h69.73A1.14,1.14,0,0,1,117,87v19.22A1.14,1.14,0,0,1,115.86,107.39Z"/><path class="cls-2" d="M127.05,217.6a1.14,1.14,0,0,1-1.14-1.14V80.62a1.14,1.14,0,1,1,2.27,0V216.46A1.14,1.14,0,0,1,127.05,217.6Z"/><path class="cls-2" d="M138.24,217.6a1.14,1.14,0,0,1-1.14-1.14V80.62a1.14,1.14,0,1,1,2.27,0V216.46A1.14,1.14,0,0,1,138.24,217.6Z"/><path class="cls-2" d="M104.51,120H46.13a1.14,1.14,0,0,1,0-2.27h58.38a1.14,1.14,0,0,1,0,2.27Z"/><path class="cls-2" d="M104.51,133.75H46.13a1.14,1.14,0,0,1,0-2.27h58.38a1.14,1.14,0,0,1,0,2.27Z"/><path class="cls-2" d="M104.51,147.49H46.13a1.14,1.14,0,0,1,0-2.27h58.38a1.14,1.14,0,0,1,0,2.27Z"/><path class="cls-2" d="M104.51,161.23H46.13a1.14,1.14,0,0,1,0-2.27h58.38a1.14,1.14,0,0,1,0,2.27Z"/><path class="cls-2" d="M104.51,175H46.13a1.14,1.14,0,0,1,0-2.27h58.38a1.14,1.14,0,0,1,0,2.27Z"/><path class="cls-2" d="M104.51,188.71H46.13a1.14,1.14,0,0,1,0-2.28h58.38a1.14,1.14,0,0,1,0,2.28Z"/><path class="cls-2" d="M104.51,202.45H46.13a1.14,1.14,0,0,1,0-2.28h58.38a1.14,1.14,0,0,1,0,2.28Z"/><path class="cls-2" d="M104.51,216.18H46.13a1.14,1.14,0,0,1,0-2.27h58.38a1.14,1.14,0,0,1,0,2.27Z"/><path class="cls-2" d="M23.47,132.57a1.14,1.14,0,0,1-1.14-1.13V106.11a1.14,1.14,0,1,1,2.27,0v25.33A1.13,1.13,0,0,1,23.47,132.57Z"/><path class="cls-2" d="M13,132.57a1.14,1.14,0,0,1-1.13-1.13V106.11a1.14,1.14,0,1,1,2.27,0v25.33A1.14,1.14,0,0,1,13,132.57Z"/><path class="cls-2" d="M23.47,174.49a1.13,1.13,0,0,1-1.14-1.13V148a1.14,1.14,0,1,1,2.27,0v25.33A1.12,1.12,0,0,1,23.47,174.49Z"/><path class="cls-2" d="M13,174.49a1.13,1.13,0,0,1-1.13-1.13V148a1.14,1.14,0,1,1,2.27,0v25.33A1.13,1.13,0,0,1,13,174.49Z"/><path class="cls-2" d="M23.47,216.41a1.13,1.13,0,0,1-1.14-1.13V190a1.14,1.14,0,0,1,2.27,0v25.33A1.12,1.12,0,0,1,23.47,216.41Z"/><path class="cls-2" d="M13,216.41a1.13,1.13,0,0,1-1.13-1.13V190a1.14,1.14,0,0,1,2.27,0v25.33A1.13,1.13,0,0,1,13,216.41Z"/><path class="cls-2" d="M76.55,81.74a1.14,1.14,0,0,1-1.14-1.14V28.3L15.16,53.88a1.14,1.14,0,1,1-.89-2.09L76.1,25.53a1.16,1.16,0,0,1,1.07.1,1.14,1.14,0,0,1,.51.95v54A1.13,1.13,0,0,1,76.55,81.74Z"/><path class="cls-2" d="M14.72,72.19a1.14,1.14,0,0,1-1.14-1.14V52.83a1.14,1.14,0,0,1,2.27,0V71.05A1.14,1.14,0,0,1,14.72,72.19Z"/><path class="cls-2" d="M160.62,217.6a1.14,1.14,0,0,1-1.14-1.14V99.87a1.14,1.14,0,0,1,2.27,0V216.46A1.14,1.14,0,0,1,160.62,217.6Z"/><path class="cls-2" d="M171.8,217.6a1.14,1.14,0,0,1-1.13-1.14V191.31a1.14,1.14,0,0,1,2.27,0v25.15A1.14,1.14,0,0,1,171.8,217.6Z"/><path class="cls-2" d="M183,217.6a1.14,1.14,0,0,1-1.14-1.14V191.31a1.14,1.14,0,0,1,2.27,0v25.15A1.14,1.14,0,0,1,183,217.6Z"/><path class="cls-2" d="M194.18,217.6a1.14,1.14,0,0,1-1.13-1.14V191.31a1.14,1.14,0,0,1,2.27,0v25.15A1.14,1.14,0,0,1,194.18,217.6Z"/><path class="cls-2" d="M204.93,217.6a1.13,1.13,0,0,1-1.13-1.14V191.31a1.14,1.14,0,0,1,2.27,0v25.15A1.14,1.14,0,0,1,204.93,217.6Z"/><path class="cls-2" d="M215.68,217.6a1.14,1.14,0,0,1-1.14-1.14V191.31a1.14,1.14,0,0,1,2.27,0v25.15A1.13,1.13,0,0,1,215.68,217.6Z"/><path class="cls-2" d="M226.43,217.6a1.14,1.14,0,0,1-1.14-1.14V191.31a1.14,1.14,0,0,1,2.27,0v25.15A1.14,1.14,0,0,1,226.43,217.6Z"/><path class="cls-2" d="M237.17,217.6a1.13,1.13,0,0,1-1.13-1.14V191.31a1.14,1.14,0,0,1,2.27,0v25.15A1.14,1.14,0,0,1,237.17,217.6Z"/><path class="cls-2" d="M247.92,217.6a1.14,1.14,0,0,1-1.14-1.14V191.31a1.14,1.14,0,0,1,2.27,0v25.15A1.13,1.13,0,0,1,247.92,217.6Z"/><path class="cls-2" d="M258.67,217.6a1.14,1.14,0,0,1-1.14-1.14V191.31a1.14,1.14,0,0,1,2.27,0v25.15A1.14,1.14,0,0,1,258.67,217.6Z"/><path class="cls-2" d="M269.41,217.6a1.13,1.13,0,0,1-1.13-1.14V191.31a1.14,1.14,0,0,1,2.27,0v25.15A1.14,1.14,0,0,1,269.41,217.6Z"/><path class="cls-2" d="M149.43,217.6a1.14,1.14,0,0,1-1.14-1.14V87.25a1.14,1.14,0,1,1,2.27,0V216.46A1.14,1.14,0,0,1,149.43,217.6Z"/><path class="cls-2" d="M321.15,146.49H279.72a1.14,1.14,0,0,1,0-2.27h41.43a1.14,1.14,0,0,1,0,2.27Z"/><path class="cls-2" d="M424.87,230.11H13a1.14,1.14,0,0,1,0-2.27h411.9a1.14,1.14,0,1,1,0,2.27Z"/><path class="cls-2" d="M415.73,81.74a1.14,1.14,0,0,1-1.14-1.14V27.72H339.24V80.6a1.14,1.14,0,1,1-2.27,0v-54a1.14,1.14,0,0,1,1.13-1.14h77.63a1.14,1.14,0,0,1,1.14,1.14v54A1.14,1.14,0,0,1,415.73,81.74Z"/><path class="cls-2" d="M254,64.09A1.14,1.14,0,0,1,252.89,63v-8H191.61v8a1.14,1.14,0,1,1-2.27,0V53.78a1.14,1.14,0,0,1,1.13-1.14H254a1.14,1.14,0,0,1,1.13,1.14V63A1.14,1.14,0,0,1,254,64.09Z"/><path class="cls-2" d="M254,59.69H190.47a1.14,1.14,0,0,1,0-2.27H254a1.14,1.14,0,0,1,0,2.27Z"/><path class="cls-2" d="M247.36,48.64a1.14,1.14,0,0,1-.47-.1L199.61,27.45V47.5a1.14,1.14,0,1,1-2.27,0V25.7a1.14,1.14,0,0,1,1.6-1l48.88,21.8a1.14,1.14,0,0,1-.46,2.18Z"/></g><g id="Fill"><path class="cls-3" d="M166.82,98.51l1.09,5.95,9.52,18.44,3,.72,3.45-2.26,2.63,2h2.33l2.59-2.86,4,2.86,2.75-.88,0-4.4,4.34-.44,1.93-3.09L191.86,98l5.06,1c5.36,0,4-3.63,3.25-5l.89.41a4.62,4.62,0,0,1-2.92,8.72,4.33,4.33,0,0,1-.7-.21l-1.5-.6L206,114.54a1.15,1.15,0,0,1,.14.17,4.58,4.58,0,0,1-4.74,7.12h0a4.37,4.37,0,0,1,.11,1.2,4.58,4.58,0,0,1-8.31,2.45l-.35-.5a4.5,4.5,0,0,1-1.54,1.87,4.57,4.57,0,0,1-6.32-1,4.47,4.47,0,0,1-1,.92,4.57,4.57,0,0,1-3.64.73,4.62,4.62,0,0,1-2.74-1.82,3.26,3.26,0,0,1-.24-.4l-7.54-15.46a3.18,3.18,0,0,1-.35-.86L166,99.09Z"/><path class="cls-3" d="M278.56,98.51l-1.09,5.95-9.53,18.44-3,.72-3.46-2.26-2.63,2h-2.32L254,120.54l-4,2.86-2.75-.88.05-4.4-4.35-.44L241,114.59,253.52,98l-5.06,1c-5.37,0-4-3.63-3.25-5l-.89.41a4.62,4.62,0,0,0,2.92,8.72,4.33,4.33,0,0,0,.7-.21l1.5-.6-10.06,12.12-.13.17a4.65,4.65,0,0,0-.84,2.84,4.58,4.58,0,0,0,1.93,3.55,4.64,4.64,0,0,0,3.65.73h0a4.79,4.79,0,0,0-.1,1.2,4.58,4.58,0,0,0,8.31,2.45l.35-.5a4.42,4.42,0,0,0,1.54,1.87,4.58,4.58,0,0,0,6.32-1,4.25,4.25,0,0,0,1,.92,4.57,4.57,0,0,0,3.64.73,4.62,4.62,0,0,0,2.74-1.82,2.3,2.3,0,0,0,.23-.4l7.55-15.46a2.86,2.86,0,0,0,.34-.86l3.43-9.85Z"/><rect class="cls-3" x="209.69" y="68.86" width="25.22" height="25.22"/><rect class="cls-3" x="209.69" y="158.95" width="25.22" height="25.22"/><polygon class="cls-3" points="289.5 41.11 273.97 68.03 258.55 68.03 275.63 41.11 289.5 41.11"/><path class="cls-3" d="M300.89,64.79,282.21,85.58a4.69,4.69,0,0,1-6,.78l-8.78-5.74-2.22,4L280.1,95.48l20.79-22.19Z"/><polygon class="cls-3" points="155.31 41.11 170.84 68.03 186.26 68.03 169.19 41.11 155.31 41.11"/><path class="cls-3" d="M143.92,64.79,162.6,85.58a4.69,4.69,0,0,0,6,.78l8.78-5.74,2.22,4L164.71,95.48,143.92,73.29Z"/></g><g id="Outlines"><path class="cls-4" d="M301.93,72.2a1.51,1.51,0,0,0-2.13,0L279.7,93.49l-12.78-9.33,24-43a1.5,1.5,0,1,0-2.61-1.47L272.89,67.35H260l17-26.08a1.5,1.5,0,0,0-2.51-1.64L256.42,67.35H188.11L170,39.63a1.5,1.5,0,0,0-2.51,1.64l17,26.08H171.71L156.25,39.72a1.5,1.5,0,1,0-2.61,1.47l24,43L164.9,93.49,145,72.26a1.5,1.5,0,0,0-2.19,2l20.8,22.2a1.49,1.49,0,0,0,.49.34l3.32,9.53a2.86,2.86,0,0,0,.34.86l1.12,2.28h0v75.14a1.5,1.5,0,0,0,1.5,1.5H274.21a1.5,1.5,0,0,0,1.5-1.5V109.53h0l1.12-2.28a2.86,2.86,0,0,0,.34-.86l3.32-9.53a1.6,1.6,0,0,0,.49-.34l21-22.19A1.5,1.5,0,0,0,301.93,72.2ZM211.19,92.58V70.35h22.22V92.58Zm-44.4,3.24,13-9.49,6.89,3.16,11.15,5.07a1.76,1.76,0,0,1,.07,3.17,1.74,1.74,0,0,1-1.18.15l-.27-.08L192,96a3.54,3.54,0,0,0-.65-.21,1.79,1.79,0,0,0-1.53.24l-.06,0a1.62,1.62,0,0,0-.18.19c-.05,0-.09.11-.14.17l-.07.11a.75.75,0,0,0-.07.12,1.79,1.79,0,0,0-.18.74,3.68,3.68,0,0,0,.74,2.08l11.86,14.29a1.72,1.72,0,0,1,.32,1.06,1.76,1.76,0,0,1-.73,1.33,1.71,1.71,0,0,1-1.36.27,1.73,1.73,0,0,1-1-.68l-10.71-12.57a1.2,1.2,0,0,0-.5-.44,1.07,1.07,0,0,0-.27-.09,1.25,1.25,0,0,0-1.4.68,1.24,1.24,0,0,0,.09,1.26l10.09,14.65a1.65,1.65,0,0,1,.31,1.06,1.7,1.7,0,0,1-2.08,1.6,1.73,1.73,0,0,1-1-.68l-10.12-14.7-.17-.24h0a1.43,1.43,0,0,0-.44-.32,1.25,1.25,0,0,0-.25-.09,1.55,1.55,0,0,0-.37,0,1.39,1.39,0,0,0-1.22.77s0,.05,0,.08a1.28,1.28,0,0,0-.1.47,1.34,1.34,0,0,0,.3.92L188,119.56a1.65,1.65,0,0,1,.31,1.06,1.71,1.71,0,0,1-2.09,1.6,1.69,1.69,0,0,1-1-.69l-7-11.5a1.37,1.37,0,0,0-.51-.44,1.22,1.22,0,0,0-.27-.09,1.26,1.26,0,0,0-1.41.69,1.21,1.21,0,0,0,.1,1.26l4.55,8a1.72,1.72,0,0,1-.41,2.39,1.72,1.72,0,0,1-1.36.28,1.75,1.75,0,0,1-1-.69l-7.62-15.62a.29.29,0,0,1,0-.06h0l0,0Zm5.1,19.85,3.43,7a3.18,3.18,0,0,0,.23.4,4.59,4.59,0,0,0,6.39,1.09,4.42,4.42,0,0,0,1-.92,4.6,4.6,0,0,0,7.87-.86l.34.5a4.6,4.6,0,0,0,6.38,1.1,4.59,4.59,0,0,0,1.94-3.55,4.79,4.79,0,0,0-.11-1.2h0a4.64,4.64,0,0,0,3.65-.73,4.58,4.58,0,0,0,1.93-3.55,4.65,4.65,0,0,0-.84-2.84L204,112,193.9,99.86l1.51.6a3.94,3.94,0,0,0,.69.21A4.62,4.62,0,0,0,199,92l-11.15-5.07L181,83.72l-.07,0-7.51-13.42h34.8V94.08a1.5,1.5,0,0,0,1.5,1.5H220.8v61.87H209.69a1.5,1.5,0,0,0-1.5,1.5v24.22h-36.3Zm61.52,67.5H211.19V160.45h22.22Zm39.3,0h-36.3V159a1.5,1.5,0,0,0-1.5-1.5H223.8V95.58h11.11a1.5,1.5,0,0,0,1.5-1.5V70.35h34.8L263.7,83.77l-.07,0-6.91,3.16L245.57,92a4.62,4.62,0,0,0,2.93,8.72,3.94,3.94,0,0,0,.69-.21l1.51-.6L240.64,112l-.13.17a4.65,4.65,0,0,0-.84,2.84,4.58,4.58,0,0,0,1.93,3.55,4.64,4.64,0,0,0,3.65.73h0a5.31,5.31,0,0,0-.11,1.2,4.58,4.58,0,0,0,5.58,4.27,4.53,4.53,0,0,0,2.74-1.82l.34-.5a4.59,4.59,0,0,0,7.87.86,4.25,4.25,0,0,0,1,.92,4.58,4.58,0,0,0,6.38-1.09,2.3,2.3,0,0,0,.23-.4l3.43-7Zm1.63-77.37,0,0h0l-.05.06-7.62,15.62a1.75,1.75,0,0,1-1,.69,1.72,1.72,0,0,1-1.36-.28,1.72,1.72,0,0,1-.41-2.39l4.55-8a1.21,1.21,0,0,0,.1-1.26,1.26,1.26,0,0,0-1.41-.69,1.43,1.43,0,0,0-.27.09,1.37,1.37,0,0,0-.51.44l-6.95,11.5a1.66,1.66,0,0,1-1,.69,1.71,1.71,0,0,1-2.09-1.6,1.65,1.65,0,0,1,.31-1.06l6.92-11.46a1.4,1.4,0,0,0,.31-.92,1.53,1.53,0,0,0-.11-.47s0,0,0-.08a1.38,1.38,0,0,0-1.22-.77,1.55,1.55,0,0,0-.37,0,1.25,1.25,0,0,0-.25.09,1.43,1.43,0,0,0-.44.32h0l-.17.24-10.12,14.7a1.71,1.71,0,0,1-3.11-.92,1.65,1.65,0,0,1,.31-1.06l10.09-14.65a1.24,1.24,0,0,0,.09-1.26,1.24,1.24,0,0,0-1.4-.68,1.07,1.07,0,0,0-.27.09,1.26,1.26,0,0,0-.5.44l-10.71,12.57a1.73,1.73,0,0,1-1,.68,1.7,1.7,0,0,1-2.08-1.6,1.65,1.65,0,0,1,.31-1.06l11.86-14.29a3.68,3.68,0,0,0,.74-2.08,1.79,1.79,0,0,0-.18-.74.75.75,0,0,0-.07-.12l-.07-.11c0-.06-.09-.12-.14-.17a1.62,1.62,0,0,0-.18-.19l-.05,0a1.81,1.81,0,0,0-1.54-.24,3.2,3.2,0,0,0-.64.21l-4.44,1.76-.27.08a1.74,1.74,0,0,1-1.18-.15,1.76,1.76,0,0,1,.07-3.17l11.15-5.07,6.89-3.16,13,9.49Z"/><path class="cls-4" d="M200.88,157.45h-21.8a1.5,1.5,0,1,0,0,3h21.8a1.5,1.5,0,0,0,0-3Z"/><path class="cls-4" d="M200.88,166.4h-21.8a1.5,1.5,0,0,0,0,3h21.8a1.5,1.5,0,0,0,0-3Z"/></g></svg> 