<svg xmlns="http://www.w3.org/2000/svg" viewBox="0 0 441 253"><defs><style>.cls-1{fill:#dff1f1;}.cls-2{fill:#accfcf;}.cls-3{fill:#54b3b3;}.cls-4{fill:#333;}</style></defs><g id="Bkg_colour" data-name="Bkg colour"><rect class="cls-1" x="0.28" y="0.08" width="440" height="252"/></g><g id="Bkg_lines" data-name="Bkg lines"><polygon class="cls-2" points="166.43 98.35 166.43 98.35 166.43 98.35 166.43 98.35"/><path class="cls-2" d="M133.78,95.31H8.28a1.14,1.14,0,1,1,0-2.27H132.64V85.21H8.28a1.14,1.14,0,1,1,0-2.27h125.5a1.13,1.13,0,0,1,1.13,1.13v10.1A1.13,1.13,0,0,1,133.78,95.31Z"/><path class="cls-2" d="M78.28,80.13h-7a3.88,3.88,0,0,1-3.88-3.88V25.07a3.88,3.88,0,0,1,3.88-3.88h7a3.88,3.88,0,0,1,3.88,3.88V76.25A3.88,3.88,0,0,1,78.28,80.13Zm-7-56.67a1.62,1.62,0,0,0-1.61,1.61V76.25a1.61,1.61,0,0,0,1.61,1.61h7a1.61,1.61,0,0,0,1.61-1.61V25.07a1.62,1.62,0,0,0-1.61-1.61Z"/><path class="cls-2" d="M77.06,49.19H72.48a1.14,1.14,0,1,1,0-2.27h4.58a1.14,1.14,0,0,1,0,2.27Z"/><path class="cls-2" d="M77.06,54.32H72.48a1.14,1.14,0,1,1,0-2.28h4.58a1.14,1.14,0,0,1,0,2.28Z"/><path class="cls-2" d="M11.33,80a4.08,4.08,0,0,1-1.13-.17L8,79.18a1.15,1.15,0,0,1-.76-1.42A1.13,1.13,0,0,1,8.61,77l2.25.68a1.6,1.6,0,0,0,2-1.06l15-48.94a1.6,1.6,0,0,0-1.07-2l-6.73-2.06a1.57,1.57,0,0,0-1.22.11,1.6,1.6,0,0,0-.78,1L9.2,52.74A1.14,1.14,0,0,1,7,52.06l8.86-28a3.88,3.88,0,0,1,4.84-2.57l6.73,2.06A3.9,3.9,0,0,1,30,28.36L15,77.29A3.89,3.89,0,0,1,11.33,80Z"/><path class="cls-2" d="M18.42,50a1.33,1.33,0,0,1-.34,0L13.7,48.59a1.14,1.14,0,0,1,.67-2.18l4.38,1.35a1.12,1.12,0,0,1,.75,1.41A1.14,1.14,0,0,1,18.42,50Z"/><path class="cls-2" d="M16.92,54.88a1.33,1.33,0,0,1-.34-.05L12.2,53.48a1.13,1.13,0,0,1-.75-1.41,1.14,1.14,0,0,1,1.42-.76l4.38,1.34a1.14,1.14,0,0,1-.33,2.23Z"/><path class="cls-2" d="M95.57,80.13h-7a3.88,3.88,0,0,1-3.88-3.88V25.07a3.88,3.88,0,0,1,3.88-3.88h7a3.88,3.88,0,0,1,3.88,3.88V76.25A3.88,3.88,0,0,1,95.57,80.13Zm-7-56.67a1.62,1.62,0,0,0-1.61,1.61V76.25a1.61,1.61,0,0,0,1.61,1.61h7a1.61,1.61,0,0,0,1.61-1.61V25.07a1.62,1.62,0,0,0-1.61-1.61Z"/><path class="cls-2" d="M94.35,49.19H89.77a1.14,1.14,0,1,1,0-2.27h4.58a1.14,1.14,0,0,1,0,2.27Z"/><path class="cls-2" d="M94.35,54.32H89.77a1.14,1.14,0,1,1,0-2.28h4.58a1.14,1.14,0,0,1,0,2.28Z"/><path class="cls-2" d="M61,80.13H54a3.88,3.88,0,0,1-3.88-3.88V25.07A3.88,3.88,0,0,1,54,21.19h7a3.88,3.88,0,0,1,3.88,3.88V76.25A3.88,3.88,0,0,1,61,80.13ZM54,23.46a1.62,1.62,0,0,0-1.61,1.61V76.25A1.61,1.61,0,0,0,54,77.86h7a1.61,1.61,0,0,0,1.61-1.61V25.07A1.62,1.62,0,0,0,61,23.46Z"/><path class="cls-2" d="M59.77,49.19H55.19a1.14,1.14,0,1,1,0-2.27h4.58a1.14,1.14,0,0,1,0,2.27Z"/><path class="cls-2" d="M59.77,54.32H55.19a1.14,1.14,0,0,1,0-2.28h4.58a1.14,1.14,0,0,1,0,2.28Z"/><path class="cls-2" d="M43.7,80.13h-7a3.88,3.88,0,0,1-3.88-3.88V25.07a3.88,3.88,0,0,1,3.88-3.88h7a3.88,3.88,0,0,1,3.88,3.88V76.25A3.88,3.88,0,0,1,43.7,80.13Zm-7-56.67a1.62,1.62,0,0,0-1.61,1.61V76.25a1.61,1.61,0,0,0,1.61,1.61h7a1.61,1.61,0,0,0,1.61-1.61V25.07a1.62,1.62,0,0,0-1.61-1.61Z"/><path class="cls-2" d="M42.48,49.19H37.9a1.14,1.14,0,1,1,0-2.27h4.58a1.14,1.14,0,0,1,0,2.27Z"/><path class="cls-2" d="M42.48,54.32H37.9a1.14,1.14,0,0,1,0-2.28h4.58a1.14,1.14,0,0,1,0,2.28Z"/><path class="cls-2" d="M131,80.13h-7a3.88,3.88,0,0,1-3.88-3.88V25.07A3.88,3.88,0,0,1,124,21.19h7a3.88,3.88,0,0,1,3.88,3.88V76.25A3.88,3.88,0,0,1,131,80.13Zm-7-56.67a1.62,1.62,0,0,0-1.61,1.61V76.25A1.61,1.61,0,0,0,124,77.86h7a1.61,1.61,0,0,0,1.61-1.61V25.07A1.62,1.62,0,0,0,131,23.46Z"/><path class="cls-2" d="M112.86,80.13h-7A3.88,3.88,0,0,1,102,76.25V25.07a3.88,3.88,0,0,1,3.88-3.88h7a3.88,3.88,0,0,1,3.88,3.88V76.25A3.88,3.88,0,0,1,112.86,80.13Zm-7-56.67a1.62,1.62,0,0,0-1.61,1.61V76.25a1.61,1.61,0,0,0,1.61,1.61h7a1.61,1.61,0,0,0,1.61-1.61V25.07a1.62,1.62,0,0,0-1.61-1.61Z"/><path class="cls-2" d="M129.81,49.19h-4.58a1.14,1.14,0,1,1,0-2.27h4.58a1.14,1.14,0,0,1,0,2.27Z"/><path class="cls-2" d="M129.81,54.32h-4.58a1.14,1.14,0,1,1,0-2.28h4.58a1.14,1.14,0,0,1,0,2.28Z"/><path class="cls-2" d="M111.64,49.19h-4.58a1.14,1.14,0,1,1,0-2.27h4.58a1.14,1.14,0,0,1,0,2.27Z"/><path class="cls-2" d="M111.64,54.32h-4.58a1.14,1.14,0,0,1,0-2.28h4.58a1.14,1.14,0,0,1,0,2.28Z"/><path class="cls-2" d="M332.58,190.82H289.23a1.14,1.14,0,0,1,0-2.27h43.35a1.14,1.14,0,0,1,0,2.27Z"/><path class="cls-2" d="M151.4,190.82H53.25a1.14,1.14,0,0,1,0-2.27H151.4a1.14,1.14,0,0,1,0,2.27Z"/><path class="cls-2" d="M34,190.82H8.28a1.14,1.14,0,1,1,0-2.27H34a1.14,1.14,0,1,1,0,2.27Z"/><path class="cls-2" d="M74.71,229.6h-45a1.13,1.13,0,0,1-1.14-1.13,9.88,9.88,0,0,1,9.88-9.87H66a9.88,9.88,0,0,1,9.87,9.87A1.13,1.13,0,0,1,74.71,229.6Zm-43.77-2.27H73.49A7.62,7.62,0,0,0,66,220.87H38.46A7.61,7.61,0,0,0,30.94,227.33Z"/><path class="cls-2" d="M54.75,217.7a1.14,1.14,0,0,1-1.09-.81L43.34,183.36a1.14,1.14,0,0,1,.75-1.42,1.12,1.12,0,0,1,1.42.75l10.32,33.53a1.13,1.13,0,0,1-.75,1.42A1,1,0,0,1,54.75,217.7Z"/><path class="cls-2" d="M48.84,217.7a1.14,1.14,0,0,1-1.08-.81l-9.86-32a1.14,1.14,0,0,1,.75-1.42,1.12,1.12,0,0,1,1.42.75l9.86,32.05a1.13,1.13,0,0,1-.75,1.42A1,1,0,0,1,48.84,217.7Z"/><path class="cls-2" d="M44.68,171.52a1,1,0,0,1-.38-.07,1.14,1.14,0,0,1-.69-1.45l11-30.5a1.13,1.13,0,0,1,1.07-.75h3.21a1.14,1.14,0,1,1,0,2.27H56.5L45.75,170.77A1.14,1.14,0,0,1,44.68,171.52Z"/><path class="cls-2" d="M39.27,170a1.1,1.1,0,0,1-.4-.08,1.13,1.13,0,0,1-.67-1.46L51,134.51a1.14,1.14,0,0,1,1.06-.73h8.78a1.14,1.14,0,1,1,0,2.27h-8L40.33,169.24A1.14,1.14,0,0,1,39.27,170Z"/><path class="cls-2" d="M39.58,181.46a4.9,4.9,0,1,1,4.89-4.89A4.9,4.9,0,0,1,39.58,181.46Zm0-7.51a2.62,2.62,0,1,0,2.62,2.62A2.62,2.62,0,0,0,39.58,174Z"/><path class="cls-2" d="M71.83,164.48a1.15,1.15,0,0,1-.64-.2,22.51,22.51,0,0,1,25.55-37.07,1.13,1.13,0,0,1,.29,1.58L72.77,164a1.1,1.1,0,0,1-.73.47ZM84,125.5a21,21,0,0,0-3.7.34,20.24,20.24,0,0,0-8.75,35.9L94.5,128.47A20,20,0,0,0,84,125.5Z"/><path class="cls-2" d="M82.69,153.24a8.17,8.17,0,0,1-3.17-.62,1.14,1.14,0,0,1-.61-1.49,1.13,1.13,0,0,1,1.48-.61,6.1,6.1,0,0,0,6.73-9.85,1.13,1.13,0,0,1,1.63-1.57,8.35,8.35,0,0,1-6.06,14.14Z"/><path class="cls-2" d="M112.26,226.37h-6.39a9.62,9.62,0,0,1-9.6-9.6V201.08A1.14,1.14,0,0,1,97.4,200h23.32a1.14,1.14,0,0,1,1.14,1.13v15.69A9.62,9.62,0,0,1,112.26,226.37ZM98.54,202.22v14.55a7.34,7.34,0,0,0,7.33,7.33h6.39a7.34,7.34,0,0,0,7.33-7.33V202.22Z"/><path class="cls-2" d="M127,218.56h-1.81a1.14,1.14,0,1,1,0-2.28H127a4.49,4.49,0,1,0,0-9h-1.81a1.14,1.14,0,1,1,0-2.27H127a6.76,6.76,0,0,1,0,13.52Z"/><path class="cls-2" d="M120.72,230.09H97.4a1.14,1.14,0,0,1,0-2.27h23.32a1.14,1.14,0,1,1,0,2.27Z"/><path class="cls-2" d="M364.42,222.81H338.77a1.13,1.13,0,0,1-1.13-1.14V138.81a1.13,1.13,0,0,1,1.13-1.14h25.65a1.14,1.14,0,0,1,1.14,1.14v82.86A1.14,1.14,0,0,1,364.42,222.81Zm-24.51-2.28h23.37V139.94H339.91Z"/><path class="cls-2" d="M351.6,214.67a5.4,5.4,0,1,1,5.4-5.4A5.4,5.4,0,0,1,351.6,214.67Zm0-8.53a3.13,3.13,0,1,0,3.12,3.13A3.13,3.13,0,0,0,351.6,206.14Z"/><path class="cls-2" d="M357.7,193.75H345.49a1.14,1.14,0,1,1,0-2.27H357.7a1.14,1.14,0,1,1,0,2.27Z"/><path class="cls-2" d="M355.41,198.26h-7.63a1.14,1.14,0,1,1,0-2.27h7.63a1.14,1.14,0,1,1,0,2.27Z"/><path class="cls-2" d="M398,222.81H372.34a1.14,1.14,0,0,1-1.14-1.14V138.81a1.14,1.14,0,0,1,1.14-1.14H398a1.13,1.13,0,0,1,1.13,1.14v82.86A1.13,1.13,0,0,1,398,222.81Zm-24.52-2.28h23.38V139.94H373.47Z"/><path class="cls-2" d="M385.16,214.67a5.4,5.4,0,1,1,5.4-5.4A5.41,5.41,0,0,1,385.16,214.67Zm0-8.53a3.13,3.13,0,1,0,3.13,3.13A3.13,3.13,0,0,0,385.16,206.14Z"/><path class="cls-2" d="M391.27,193.75H379.05a1.14,1.14,0,0,1,0-2.27h12.22a1.14,1.14,0,1,1,0,2.27Z"/><path class="cls-2" d="M389,198.26h-7.63a1.14,1.14,0,1,1,0-2.27H389a1.14,1.14,0,1,1,0,2.27Z"/><path class="cls-2" d="M431.55,222.81H405.91a1.14,1.14,0,0,1-1.14-1.14V138.81a1.14,1.14,0,0,1,1.14-1.14h25.64a1.14,1.14,0,0,1,1.14,1.14v82.86A1.14,1.14,0,0,1,431.55,222.81ZM407,220.53h23.38V139.94H407Z"/><path class="cls-2" d="M418.73,214.67a5.4,5.4,0,1,1,5.4-5.4A5.4,5.4,0,0,1,418.73,214.67Zm0-8.53a3.13,3.13,0,1,0,3.13,3.13A3.13,3.13,0,0,0,418.73,206.14Z"/><path class="cls-2" d="M424.84,193.75H412.62a1.14,1.14,0,0,1,0-2.27h12.22a1.14,1.14,0,0,1,0,2.27Z"/><path class="cls-2" d="M422.55,198.26h-7.64a1.14,1.14,0,0,1,0-2.27h7.64a1.14,1.14,0,0,1,0,2.27Z"/><path class="cls-2" d="M431.47,113.74H325.89a1.14,1.14,0,0,1-1.14-1.14V53.19a1.13,1.13,0,0,1,1.14-1.13H431.64a1.14,1.14,0,0,1,0,2.27H327v57.14H431.47a1.14,1.14,0,1,1,0,2.27Z"/><path class="cls-2" d="M431.47,120.59H319a1.13,1.13,0,0,1-1.14-1.13V46.33A1.14,1.14,0,0,1,319,45.2H431.47a1.14,1.14,0,1,1,0,2.27H320.17v70.85h111.3a1.14,1.14,0,1,1,0,2.27Z"/><path class="cls-2" d="M431.47,97H340.28a1.13,1.13,0,0,1-1.14-1.13V70a1.14,1.14,0,0,1,1.14-1.14h91.19a1.14,1.14,0,1,1,0,2.27H341.41V94.7h90.06a1.14,1.14,0,1,1,0,2.27Z"/><path class="cls-2" d="M366.19,42.44a1.12,1.12,0,0,1-.84-.37,1.14,1.14,0,0,1,.07-1.6l21.37-19.72a1.14,1.14,0,0,1,1.54,1.67L367,42.14A1.15,1.15,0,0,1,366.19,42.44Z"/><path class="cls-2" d="M408.93,42.44a1.11,1.11,0,0,1-.77-.3L386.79,22.42a1.14,1.14,0,1,1,1.54-1.67L409.7,40.47a1.13,1.13,0,0,1,.06,1.6A1.14,1.14,0,0,1,408.93,42.44Z"/></g><g id="Fill"><path class="cls-3" d="M270.45,209.33h-1.33L208.78,209l-24-61.93H168c-4.95,0-3.67,4.93-3.67,4.93l4.81,57.22h1l-6.45,7.14a1.69,1.69,0,0,0,1.22,2.82H275.37a1.69,1.69,0,0,0,1.22-2.82Z"/><path class="cls-3" d="M186.71,105.83c0,17.27,15.64,15.54,15.64,15.54v3c0,10.37-15.52,14-15.52,14a105.12,105.12,0,0,0,21.58-2.63,5.73,5.73,0,0,0,4.51-5.45V129.1s-.12-1.62-.49-3.61A23,23,0,0,0,232.55,119c-13.18,5.93-20.69,1.38-22.27.24a40.58,40.58,0,0,1-3.51-14.12V79.88c0-19.77,16.46-30.13,16.46-30.13-36.93-.31-36.52,34.13-36.52,34.13Zm11.86-31.47Z"/><path class="cls-3" d="M157,175.75a10.25,10.25,0,0,0,.66,10l4.25,6.51-2-22.68Z"/><path class="cls-3" d="M283.06,176.08l-3.13-6.56L277.8,193.8l4.55-7A11,11,0,0,0,283.06,176.08Z"/></g><g id="Outlines"><path class="cls-4" d="M222,186.54a6.58,6.58,0,1,0-6.58-6.58A6.59,6.59,0,0,0,222,186.54Zm0-9.94a3.37,3.37,0,1,1-3.37,3.36A3.37,3.37,0,0,1,222,176.6Z"/><path class="cls-4" d="M240.28,111.37h0A27.94,27.94,0,0,0,244.14,97L244,81.9a1.61,1.61,0,0,0-.63-1.27,1.63,1.63,0,0,0-1.4-.27c-.15,0-15.69,4.16-20.44-6.3l0-.08-.09-.15-.09-.12-.11-.12-.12-.11-.12-.09-.15-.09-.08,0-.05,0-.17-.06-.13,0-.17,0h-.31l-.14,0-.15,0-.16,0,0,0-.09,0-.14.08-.13.09a1.14,1.14,0,0,0-.11.11l-.11.12-.09.12-.09.15s0,0,0,.08c-4.75,10.46-20.29,6.35-20.44,6.3a1.61,1.61,0,0,0-2,1.54L196,97.05a27.83,27.83,0,0,0,3.85,14.31h0a25.41,25.41,0,0,0,11.36,10.47,19.25,19.25,0,0,0,7.81,1.67h2.06a19.28,19.28,0,0,0,7.81-1.67A25.34,25.34,0,0,0,240.28,111.37Zm-12.64,7.53a16.26,16.26,0,0,1-6.52,1.39h-2.06a16.23,16.23,0,0,1-6.52-1.39,22.19,22.19,0,0,1-9.89-9.18h0a24.63,24.63,0,0,1-3.4-12.65l.1-13.14c6.11,1.16,15.78.88,20.74-6,5,6.93,14.63,7.21,20.74,6l.09,13.13a24.63,24.63,0,0,1-3.39,12.66h0A22.19,22.19,0,0,1,227.64,118.9Z"/><path class="cls-4" d="M185.1,108.94a13.77,13.77,0,0,0,10,13.2,1.72,1.72,0,0,0,.44.06,1.61,1.61,0,0,0,.44-3.15,10.54,10.54,0,0,1-7.64-10.11V82.24c0-.13-.16-13.17,8.55-22,5.46-5.57,13.28-8.39,23.22-8.39s17.75,2.82,23.21,8.39c8.71,8.88,8.56,21.92,8.56,22.09v26.66a10.55,10.55,0,0,1-7.65,10.11,1.61,1.61,0,0,0,.44,3.15,1.34,1.34,0,0,0,.44-.06,13.76,13.76,0,0,0,10-13.2V82.31c0-.59.2-14.48-9.45-24.34-6.09-6.22-14.68-9.38-25.53-9.38h0c-10.85,0-19.44,3.16-25.53,9.38-9.65,9.86-9.46,23.75-9.45,24.31Z"/><path class="cls-4" d="M184.76,141.72a1.62,1.62,0,0,0,.74-.18,37.92,37.92,0,0,1,3.9-1.77c5.44-2.13,14.56-6.78,14.56-14v-5.1a1.61,1.61,0,1,0-3.21,0v5.1c0,5.49-8.76,9.51-12.52,11a41,41,0,0,0-4.22,1.91,1.61,1.61,0,0,0,.75,3Z"/><path class="cls-4" d="M239.77,125.79v-5.1a1.61,1.61,0,1,0-3.21,0v5.1c0,7.2,9.12,11.85,14.56,14a37.76,37.76,0,0,1,3.73,1.68,1.65,1.65,0,0,0,.74.18,1.6,1.6,0,0,0,.74-3,41.73,41.73,0,0,0-4-1.82C248.53,135.3,239.77,131.28,239.77,125.79Z"/><path class="cls-4" d="M233.18,133.65c-1.89,1.37-6.78,2.76-13.43,2.76s-11.61-1.4-13.47-2.79a1.6,1.6,0,1,0-1.92,2.57c2.84,2.12,8.74,3.43,15.39,3.43s12.45-1.29,15.32-3.37a1.61,1.61,0,0,0-1.89-2.6Z"/><polygon class="cls-4" points="193.42 91.48 193.42 91.48 193.42 91.48 193.42 91.48"/><path class="cls-4" d="M169.18,210.83h102a1.6,1.6,0,0,0,1.6-1.47l4.89-58.27a5.37,5.37,0,0,0-5.36-5.61H168a5.36,5.36,0,0,0-5.35,5.67l4.88,58.21A1.62,1.62,0,0,0,169.18,210.83Zm-2.69-61.48a2.12,2.12,0,0,1,1.55-.66H272.3a2.12,2.12,0,0,1,1.56.66,2.09,2.09,0,0,1,.59,1.53l-4.76,56.74h-99l-4.75-56.68A2.14,2.14,0,0,1,166.49,149.35Z"/><path class="cls-4" d="M271.17,213.44h-102a1.61,1.61,0,1,0,0,3.21h102a1.61,1.61,0,1,0,0-3.21Z"/><path class="cls-4" d="M158.23,186a9.42,9.42,0,0,1-.61-9.18l3.14-6.56a1.61,1.61,0,0,0-2.9-1.39l-3.14,6.56a12.7,12.7,0,0,0,.82,12.33l4.55,7a1.61,1.61,0,0,0,2.22.46,1.61,1.61,0,0,0,.47-2.22Z"/><path class="cls-4" d="M285.58,175.38l-3.13-6.56a1.62,1.62,0,0,0-2.15-.75,1.59,1.59,0,0,0-.75,2.14l3.13,6.56a9.42,9.42,0,0,1-.6,9.18l-4.55,7a1.6,1.6,0,0,0,.47,2.22,1.55,1.55,0,0,0,.87.26,1.6,1.6,0,0,0,1.35-.72l4.55-7A12.67,12.67,0,0,0,285.58,175.38Z"/></g></svg> 