<svg width="160px" height="160px" xmlns="http://www.w3.org/2000/svg" viewBox="0 0 160 160"><defs><style>.cls-1{fill:#dfb1cf;}.cls-2{fill:#b74d94;}</style></defs><g><path class="cls-1" d="M142.05,60v.24C142.27,60.16,142.31,60.08,142.05,60Z"></path><path class="cls-1" d="M156.39,49.38l-.93,3.33L154.6,58c0,.06-5.88,2.73-5.89,2.73-2.93-.33-5.32-3.21-5.32-2.54h0a2.71,2.71,0,0,1-1.33,2.13v0a47.72,47.72,0,0,1-6.16.64l-.17-.06-.06,0c-2.58-1.08-5.31-3.14-5.31-2.64a2,2,0,0,1-.13.68l-5.54,1.92-2.31-.07c-2.49-1.1-5-3-5-2.53h0a2.93,2.93,0,0,1-1.65,2.33l-2.92-.09-4.06,0c-2.28-1.11-4.42-2.67-4.42-2.23a2.78,2.78,0,0,1-1.43,2.2l-7.33,0c-2.21-1.11-4.26-2.59-4.26-2.16h0a2.7,2.7,0,0,1-1.33,2.12H87.44l.39.92a7.86,7.86,0,0,1-1.84.22c-2.87,0-7.78-3.93-7.78-3.26,0,1.77-2.42,3.26-5.28,3.26s-7.74-3.93-7.74-3.26h0c0,1.76-2.42,3.25-5.28,3.25s-7.76-3.93-7.76-3.26c0,1.77-2.42,3.26-5.28,3.26s-7.74-3.93-7.74-3.26h0c0,1.76-2.43,3.25-5.28,3.25s-7.77-3.93-7.77-3.26c0,1.77-2.42,3.26-5.28,3.26s-7.74-3.93-7.74-3.26c0,0,0,.08,0,.13a3,3,0,0,1-1.23,2.13l-1-.23V61a5.46,5.46,0,0,1-2.15.44c-2.4,0-6.82-3.16-6.82-3.16C2,61.33,5,63.82,8.72,63.82a7.77,7.77,0,0,0,2.13-.3l-.6,68.56H33.8c.59,0-15.07-59.64-17.63-69.37a9.72,9.72,0,0,0,4.63,1.11,8.64,8.64,0,0,0,6.53-2.59,8.6,8.6,0,0,0,6.52,2.59,8.65,8.65,0,0,0,6.51-2.57,8.62,8.62,0,0,0,6.51,2.57,8.61,8.61,0,0,0,6.52-2.59,8.61,8.61,0,0,0,6.52,2.59,8.62,8.62,0,0,0,6.51-2.57,9.53,9.53,0,0,0,13,0A8.62,8.62,0,0,0,86,63.82a10.32,10.32,0,0,0,2.78-.38l5,11.82,20.78.12,21.26-3.83.13,35.74c-1.28,1.6-3,3.29-4.48,3.08-47.78,10.1-78.19-.68-78.19-.68v2.66a1.23,1.23,0,0,0,.94,1.19A161,161,0,0,0,92.88,118c5.78,0,12-.27,18.51-.9l6.42,15.24,24.47-.27-1-8.65,1.71-.18-.09-6s-4,.55-4-2.91,3.89-3.28,3.89-3.28l-.69-48a7.1,7.1,0,0,0,2.48-1.7,7.25,7.25,0,0,0,5.65,2.5c3.72,0,6.76-2.49,6.83-5.57l.94-5.79A5,5,0,0,0,156.39,49.38Z"></path><path class="cls-1" d="M156.15,122.66l-4.5,1.77.13,15.57,3.14-1s2.33-14.88,2.05-15.29S156.15,122.66,156.15,122.66Z"></path><rect class="cls-1" x="20.63" y="26.41" width="109.95" height="4.64"></rect><path class="cls-2" d="M139.74,138.8H1.82a1.23,1.23,0,0,1,0-2.46H139.74a1.23,1.23,0,0,1,0,2.46Z"></path><path class="cls-2" d="M11.12,132.84a1.23,1.23,0,0,1-1.24-1.23V60.75a1.24,1.24,0,0,1,2.47,0v70.86A1.23,1.23,0,0,1,11.12,132.84Z"></path><path class="cls-2" d="M143,95.66a1.23,1.23,0,0,1-1.23-1.23v-35a1.23,1.23,0,1,1,2.46,0v35A1.23,1.23,0,0,1,143,95.66Z"></path><path class="cls-2" d="M47.18,132.84A1.23,1.23,0,0,1,46,131.61V61a1.23,1.23,0,0,1,2.46,0v70.61A1.23,1.23,0,0,1,47.18,132.84Z"></path><path class="cls-2" d="M42.82,132.84a1.24,1.24,0,0,1-1.24-1.23V59.89c0-.68.42-.16,1.1-.16s1.37-.52,1.37.16v71.72A1.23,1.23,0,0,1,42.82,132.84Z"></path><path class="cls-2" d="M98.5,133a1.23,1.23,0,0,1-1.23-1.23V115.93a1.23,1.23,0,0,1,2.46,0v15.85A1.23,1.23,0,0,1,98.5,133Z"></path><path class="cls-2" d="M93.86,133.06a1.23,1.23,0,0,1-1.23-1.23V115.47a1.23,1.23,0,1,1,2.46,0v16.36A1.23,1.23,0,0,1,93.86,133.06Z"></path><path class="cls-2" d="M98.5,76.22A1.23,1.23,0,0,1,97.27,75V60.86a1.23,1.23,0,0,1,2.46,0V75A1.23,1.23,0,0,1,98.5,76.22Z"></path><path class="cls-2" d="M93.86,76.27A1.23,1.23,0,0,1,92.63,75V60.32a1.23,1.23,0,0,1,2.46,0V75A1.23,1.23,0,0,1,93.86,76.27Z"></path><path class="cls-2" d="M154.75,51.51H1.23a1.23,1.23,0,1,1,0-2.46H154.75a1.23,1.23,0,1,1,0,2.46Z"></path><path class="cls-2" d="M141.1,37.77H13.86a1.23,1.23,0,0,1-1.23-1.23V19.61a1.23,1.23,0,0,1,1.23-1.23H141.1a1.23,1.23,0,0,1,1.23,1.23V36.54A1.23,1.23,0,0,1,141.1,37.77Zm-126-2.47H139.87V20.84H15.09Z"></path><path class="cls-2" d="M13.38,57.94a1.23,1.23,0,0,1-1.23-1.23V50.36a1.2,1.2,0,0,1,.29-.79l10.92-13a1.23,1.23,0,0,1,1.89,1.58L14.61,50.81v5.9A1.23,1.23,0,0,1,13.38,57.94Z"></path><path class="cls-2" d="M26.4,57.79a1.23,1.23,0,0,1-1.23-1.23V50.22a1.28,1.28,0,0,1,.25-.76L35.59,36.32a1.23,1.23,0,1,1,1.95,1.51L27.63,50.64v5.92A1.23,1.23,0,0,1,26.4,57.79Z"></path><path class="cls-2" d="M39.44,57.86a1.23,1.23,0,0,1-1.23-1.23V50.28a1.21,1.21,0,0,1,.18-.64l8-13.14a1.23,1.23,0,1,1,2.1,1.29L40.67,50.63v6A1.23,1.23,0,0,1,39.44,57.86Z"></path><path class="cls-2" d="M52.46,57.86a1.23,1.23,0,0,1-1.23-1.23V50.28a1.29,1.29,0,0,1,.12-.54L57.76,36.6A1.23,1.23,0,1,1,60,37.68L53.69,50.57v6.06A1.23,1.23,0,0,1,52.46,57.86Z"></path><path class="cls-2" d="M65.52,57.86a1.23,1.23,0,0,1-1.23-1.23V50.28a1.19,1.19,0,0,1,.06-.37l4.13-13.14A1.22,1.22,0,0,1,70,36a1.23,1.23,0,0,1,.81,1.54l-4.07,13v6.16A1.24,1.24,0,0,1,65.52,57.86Z"></path><path class="cls-2" d="M91.55,57.86a1.23,1.23,0,0,1-1.23-1.23V50.47l-4.07-13a1.23,1.23,0,0,1,2.35-.74l4.13,13.14a1.19,1.19,0,0,1,.06.37v6.35A1.24,1.24,0,0,1,91.55,57.86Z"></path><path class="cls-2" d="M143.68,57.94a1.23,1.23,0,0,1-1.23-1.23v-5.9L131.82,38.16a1.23,1.23,0,0,1,1.88-1.58l10.92,13a1.2,1.2,0,0,1,.29.79v6.35A1.23,1.23,0,0,1,143.68,57.94Z"></path><path class="cls-2" d="M130.66,57.79a1.23,1.23,0,0,1-1.23-1.23V50.64l-9.91-12.81a1.23,1.23,0,0,1,2-1.51l10.17,13.14a1.29,1.29,0,0,1,.26.76v6.34A1.24,1.24,0,0,1,130.66,57.79Z"></path><path class="cls-2" d="M117.62,57.86a1.23,1.23,0,0,1-1.23-1.23v-6l-7.87-12.84a1.23,1.23,0,1,1,2.1-1.29l8,13.14a1.21,1.21,0,0,1,.18.64v6.35A1.23,1.23,0,0,1,117.62,57.86Z"></path><path class="cls-2" d="M104.6,57.86a1.23,1.23,0,0,1-1.23-1.23V50.57L97.09,37.68A1.23,1.23,0,1,1,99.3,36.6l6.41,13.14a1.29,1.29,0,0,1,.12.54v6.35A1.23,1.23,0,0,1,104.6,57.86Z"></path><path class="cls-2" d="M35.91,102.15H34.28a1.23,1.23,0,1,1,0-2.46h.4V92.86h-.77a1.23,1.23,0,1,1,0-2.46h2a1.23,1.23,0,0,1,1.24,1.23v9.29A1.23,1.23,0,0,1,35.91,102.15Z"></path><path class="cls-2" d="M91.62,116.38a161,161,0,0,1-38.69-4.47,1.23,1.23,0,0,1-.94-1.19v-40a1.26,1.26,0,0,1,.5-1,1.23,1.23,0,0,1,1.08-.19c.35.1,35.05,10.06,81.5.29a1.23,1.23,0,0,1,1.48,1.2v39.29a1.23,1.23,0,0,1-1.23,1.23c-.11,0-.87.17-1.67.33A207.11,207.11,0,0,1,91.62,116.38Zm-37.16-6.63c16.58,4,43.44,7,78.7-.24l.93-.19V72.58c-40.75,8.26-72.36,1.58-79.63-.22Z"></path><path class="cls-2" d="M67.11,105.37l-.56,0L64,105.1a.6.6,0,0,1-.55-.67l.77-8.17a.6.6,0,0,1,.67-.55l2.24.21a4.35,4.35,0,0,1,2.52.87,2.38,2.38,0,0,1,.77,2.14,2.31,2.31,0,0,1-.74,1.54l-.17.14a2,2,0,0,1,.29.29,2.41,2.41,0,0,1,.47,1.81,2.74,2.74,0,0,1-1.18,2.12A3.58,3.58,0,0,1,67.11,105.37Zm-1.72-1.89,1.31.13c1.45.14,1.71-.44,1.77-1.08,0-.34.1-1.07-1.68-1.23l-1.18-.12Zm.38-4,1.18.11a2.31,2.31,0,0,0,1.34-.14.77.77,0,0,0,.34-.68.66.66,0,0,0-.24-.69A2.72,2.72,0,0,0,67,97.64l-1-.09Z"></path><path class="cls-2" d="M75.57,106.11h-.32a3.58,3.58,0,0,1-2.6-1.13,3.63,3.63,0,0,1-.83-2.71l.3-5.28a.63.63,0,0,1,.65-.58l.58,0a.61.61,0,0,1,.43.21.64.64,0,0,1,.15.44l-.3,5.3a1.67,1.67,0,0,0,1.79,2,1.85,1.85,0,0,0,1.4-.38,1.89,1.89,0,0,0,.55-1.34l.3-5.36a.62.62,0,0,1,.65-.58l.57,0a.62.62,0,0,1,.43.2.6.6,0,0,1,.15.45l-.3,5.3A3.51,3.51,0,0,1,78,105.29,3.58,3.58,0,0,1,75.57,106.11Z"></path><path class="cls-2" d="M83.59,106.45h-.14a6.82,6.82,0,0,1-2.53-.45.6.6,0,0,1-.36-.58v-.57a.62.62,0,0,1,.29-.5.6.6,0,0,1,.58,0,5.48,5.48,0,0,0,2,.38,1.92,1.92,0,0,0,1.23-.31.82.82,0,0,0,.38-.72.9.9,0,0,0-.09-.44,1.15,1.15,0,0,0-.42-.36,6.25,6.25,0,0,0-1.18-.53,5,5,0,0,1-2-1.14,2.62,2.62,0,0,1,.39-3.74,3.49,3.49,0,0,1,2.26-.66,6.07,6.07,0,0,1,2.4.55.62.62,0,0,1,.31.81l-.22.49a.63.63,0,0,1-.82.31,4.33,4.33,0,0,0-1.7-.42,1.65,1.65,0,0,0-1.08.26.78.78,0,0,0-.32.65.86.86,0,0,0,.08.44.81.81,0,0,0,.32.32,7,7,0,0,0,1.16.53,7.48,7.48,0,0,1,1.55.75,2.41,2.41,0,0,1,1.15,2.21h0a2.55,2.55,0,0,1-1,2.08A3.65,3.65,0,0,1,83.59,106.45Z"></path><path class="cls-2" d="M89.64,106.43h-.58a.58.58,0,0,1-.43-.18.6.6,0,0,1-.18-.44l0-8.2a.64.64,0,0,1,.62-.62h.57a.58.58,0,0,1,.43.18.6.6,0,0,1,.18.44l0,8.2A.61.61,0,0,1,89.64,106.43Z"></path><path class="cls-2" d="M93.07,106.43a.61.61,0,0,1-.62-.6l-.16-8.21A.61.61,0,0,1,92.9,97l.57,0a.64.64,0,0,1,.52.27l3.82,5.48-.11-5.21a.63.63,0,0,1,.61-.63h.55a.71.71,0,0,1,.44.17.59.59,0,0,1,.19.43l.16,8.21a.66.66,0,0,1-.17.44.68.68,0,0,1-.43.19h-.58a.63.63,0,0,1-.52-.27l-3.82-5.48.1,5.21a.61.61,0,0,1-.6.63h-.56Z"></path><path class="cls-2" d="M102.45,106.18a.62.62,0,0,1-.62-.58l-.41-8.2a.62.62,0,0,1,.59-.64l4.48-.23a.61.61,0,0,1,.64.59l0,.52a.61.61,0,0,1-.16.45.62.62,0,0,1-.42.2l-3.3.16.1,1.87,3.07-.15a.6.6,0,0,1,.44.16.59.59,0,0,1,.21.43l0,.52a.62.62,0,0,1-.58.65l-3.08.15.12,2.29,3.29-.17a.62.62,0,0,1,.65.59l0,.52a.61.61,0,0,1-.16.45.62.62,0,0,1-.42.2l-4.48.22Z"></path><path class="cls-2" d="M110.81,105.78a5.32,5.32,0,0,1-1.67-.22.61.61,0,0,1-.42-.54l0-.57a.62.62,0,0,1,.24-.53.59.59,0,0,1,.57-.1,5.3,5.3,0,0,0,2,.17,2,2,0,0,0,1.2-.42.89.89,0,0,0,.3-.76.91.91,0,0,0-.13-.43,1.36,1.36,0,0,0-.46-.32,6.93,6.93,0,0,0-1.23-.41,5,5,0,0,1-2.06-.93,2.63,2.63,0,0,1,0-3.76,3.49,3.49,0,0,1,2.18-.89,6.26,6.26,0,0,1,2.45.3.61.61,0,0,1,.38.78l-.17.51a.6.6,0,0,1-.77.39,4.61,4.61,0,0,0-1.74-.25,1.8,1.8,0,0,0-1,.37.8.8,0,0,0-.25.69,1,1,0,0,0,.12.43,1,1,0,0,0,.35.28,7.33,7.33,0,0,0,1.21.41,7.48,7.48,0,0,1,1.62.58,2.75,2.75,0,0,1,1,.85,2.59,2.59,0,0,1,.39,1.24h0a2.59,2.59,0,0,1-.82,2.18,3.73,3.73,0,0,1-2.33.91C111.39,105.77,111.09,105.78,110.81,105.78Z"></path><path class="cls-2" d="M117.94,105.14a5.08,5.08,0,0,1-1.44-.17.62.62,0,0,1-.44-.53l0-.57a.6.6,0,0,1,.22-.54.62.62,0,0,1,.57-.11,5.24,5.24,0,0,0,2,.11,1.94,1.94,0,0,0,1.19-.45.84.84,0,0,0,.27-.76.78.78,0,0,0-.14-.43,1.15,1.15,0,0,0-.46-.31,7.08,7.08,0,0,0-1.24-.37,5,5,0,0,1-2.09-.88,2.62,2.62,0,0,1-.09-3.76,3.48,3.48,0,0,1,2.16-.94,6.09,6.09,0,0,1,2.45.23.63.63,0,0,1,.41.77l-.16.51a.61.61,0,0,1-.77.41,4.51,4.51,0,0,0-1.74-.2,1.74,1.74,0,0,0-1,.4.78.78,0,0,0-.23.69,1,1,0,0,0,.13.43.89.89,0,0,0,.36.27,6.53,6.53,0,0,0,1.22.38,7.11,7.11,0,0,1,1.64.54,2.75,2.75,0,0,1,1,.82,2.47,2.47,0,0,1,.42,1.22,2.6,2.6,0,0,1-.76,2.2,3.72,3.72,0,0,1-2.3,1C118.66,105.12,118.29,105.14,117.94,105.14Z"></path><path class="cls-2" d="M125.45,101.14h0a.63.63,0,0,1-.59-.6l-.12-5a.57.57,0,0,1,.17-.44.59.59,0,0,1,.43-.19H126a.59.59,0,0,1,.46.2.6.6,0,0,1,.16.48l-.54,5A.62.62,0,0,1,125.45,101.14Z"></path><path class="cls-2" d="M125.51,104.43a1,1,0,0,1-.62-.21,1.21,1.21,0,0,1-.42-.83,1.13,1.13,0,0,1,.21-.9,1,1,0,0,1,.7-.38,1.06,1.06,0,0,1,.79.19,1.14,1.14,0,0,1,.42.83h0a1,1,0,0,1-.92,1.29Zm-.15-1.22Z"></path><path class="cls-2" d="M74.3,91.52l-.42,0-2.51-.17a.61.61,0,0,1-.57-.66l.56-8.18a.62.62,0,0,1,.65-.58l2.25.16a4.32,4.32,0,0,1,2.54.81A2.39,2.39,0,0,1,77.63,85a2.28,2.28,0,0,1-.71,1.56l-.16.14a2.68,2.68,0,0,1,.3.28,2.44,2.44,0,0,1,.51,1.79,2.71,2.71,0,0,1-1.13,2.16A3.63,3.63,0,0,1,74.3,91.52Zm-1.63-1.84,1.31.09c1.46.09,1.7-.48,1.75-1.12,0-.35.07-1.07-1.71-1.2l-1.19-.08Zm.28-4,1.19.08a2.24,2.24,0,0,0,1.33-.17.79.79,0,0,0,.32-.69.68.68,0,0,0-.26-.69,2.66,2.66,0,0,0-1.41-.37l-1-.07Z"></path><path class="cls-2" d="M85.42,92h0l-.65,0a.61.61,0,0,1-.56-.41l-.9-2.53L80.8,89l-1.08,2.48a.64.64,0,0,1-.58.37l-.64,0a.61.61,0,0,1-.5-.28.63.63,0,0,1,0-.58l3.58-8.12a.6.6,0,0,1,.58-.37h.37a.63.63,0,0,1,.56.41l3,8.35a.59.59,0,0,1-.08.56A.63.63,0,0,1,85.42,92Zm-3.87-4.78,1.14,0-.51-1.51Z"></path><path class="cls-2" d="M91,92.16h0a4,4,0,0,1-3.18-1.32,5.18,5.18,0,0,1-1.15-3.54,5.57,5.57,0,0,1,.54-2.47,4.09,4.09,0,0,1,1.61-1.73,4.68,4.68,0,0,1,2.38-.6h0a5.53,5.53,0,0,1,2.41.51.61.61,0,0,1,.3.81l-.23.51a.63.63,0,0,1-.35.33.6.6,0,0,1-.49,0,3.47,3.47,0,0,0-1.61-.38h0a2.48,2.48,0,0,0-2,.78,3.26,3.26,0,0,0-.73,2.29,3.54,3.54,0,0,0,.68,2.33,2.28,2.28,0,0,0,1.93.75,5.71,5.71,0,0,0,1.71-.23.63.63,0,0,1,.55.09.62.62,0,0,1,.25.5v.51a.63.63,0,0,1-.41.58A6.85,6.85,0,0,1,91,92.16Z"></path><path class="cls-2" d="M95.91,92a.59.59,0,0,1-.42-.17.62.62,0,0,1-.2-.43l-.24-8.2a.61.61,0,0,1,.6-.63l.57,0a.61.61,0,0,1,.63.6l.08,2.77,3-3.29a.62.62,0,0,1,.44-.2l.73,0a.58.58,0,0,1,.58.35.63.63,0,0,1-.11.68l-2.9,3.18,3.27,4.22a.62.62,0,0,1,.07.64.63.63,0,0,1-.54.36l-.7,0a.62.62,0,0,1-.5-.24l-2.87-3.7-.36.34.09,3.09a.61.61,0,0,1-.6.63l-.57,0Z"></path><path class="cls-2" d="M107.78,91.46a.61.61,0,0,1-.61-.57l-.57-8.19a.61.61,0,0,1,.57-.65l.57,0a.58.58,0,0,1,.45.15.61.61,0,0,1,.21.42l.57,8.19a.64.64,0,0,1-.15.44.59.59,0,0,1-.43.21l-.57,0Z"></path><path class="cls-2" d="M111.76,91.18a.62.62,0,0,1-.61-.56l-.78-8.17a.62.62,0,0,1,.56-.67l.57,0A.59.59,0,0,1,112,82l4.22,5.18-.49-5.19a.61.61,0,0,1,.55-.67l.56-.06a.67.67,0,0,1,.45.14.69.69,0,0,1,.22.42l.78,8.17a.62.62,0,0,1-.56.67l-.57,0a.59.59,0,0,1-.54-.22l-4.22-5.18.5,5.19a.66.66,0,0,1-.14.45.6.6,0,0,1-.42.22l-.55.06Z"></path><path class="cls-2" d="M135.91,74.94a1.23,1.23,0,0,1-.69-2.25l6.67-4.52a1.23,1.23,0,0,1,1.38,2l-6.67,4.52A1.24,1.24,0,0,1,135.91,74.94Z"></path><path class="cls-2" d="M57.45,78a1.44,1.44,0,1,1,1.44-1.44A1.45,1.45,0,0,1,57.45,78Z"></path><path class="cls-2" d="M131,78a1.44,1.44,0,1,1,1.44-1.44A1.45,1.45,0,0,1,131,78Z"></path><path class="cls-2" d="M57.45,108a1.44,1.44,0,1,1,1.44-1.43A1.44,1.44,0,0,1,57.45,108Z"></path><path class="cls-2" d="M131,108a1.44,1.44,0,1,1,1.44-1.43A1.44,1.44,0,0,1,131,108Z"></path><path class="cls-2" d="M53,74.94a1.24,1.24,0,0,1-.71-.22L47,71a1.23,1.23,0,0,1,1.42-2l5.25,3.7A1.23,1.23,0,0,1,53,74.94Z"></path><path class="cls-2" d="M53,106.47a1.25,1.25,0,0,1-.42-.08l-5.19-1.91a1.23,1.23,0,0,1,.85-2.31l5.19,1.91a1.23,1.23,0,0,1,.73,1.58A1.25,1.25,0,0,1,53,106.47Z"></path><path class="cls-2" d="M135.89,106.74a1.23,1.23,0,0,1-.55-2.33l3.55-1.78a1.23,1.23,0,0,1,1.1,2.2l-3.55,1.78A1.17,1.17,0,0,1,135.89,106.74Z"></path><path class="cls-2" d="M130.73,31.33a1.24,1.24,0,0,1-1.24-1.23V28H22.74V30.1a1.24,1.24,0,0,1-2.47,0V26.71a1.24,1.24,0,0,1,1.24-1.23H130.73A1.23,1.23,0,0,1,132,26.71V30.1A1.23,1.23,0,0,1,130.73,31.33Z"></path><path class="cls-2" d="M78.48,58.16a1.23,1.23,0,0,1-1.23-1.23V36.54a1.23,1.23,0,1,1,2.46,0V56.93A1.23,1.23,0,0,1,78.48,58.16Z"></path><path class="cls-2" d="M156.69,49.38,142.27,35.91a1.23,1.23,0,1,0-1.69,1.8l13.95,13-.86,5.37a1.23,1.23,0,0,0,0,.19c0,1.84-2,3.34-4.36,3.34s-4.36-1.49-4.37-3.33h0a1.23,1.23,0,0,0-1.23-1.23h0a1.23,1.23,0,0,0-1.23,1.23v0c0,1.8-2.42,3.32-5.28,3.32s-5.27-1.53-5.27-3.34a1.24,1.24,0,0,0-1.24-1.23h0a1.24,1.24,0,0,0-1.24,1.23c0,1.81-2.41,3.34-5.27,3.34s-5.27-1.52-5.28-3.32v0a1.23,1.23,0,0,0-1.23-1.23h0a1.24,1.24,0,0,0-1.24,1.23v0c0,1.8-2.43,3.32-5.28,3.32s-5.28-1.53-5.28-3.34a1.23,1.23,0,0,0-1.23-1.23h0a1.23,1.23,0,0,0-1.23,1.23c0,1.81-2.42,3.34-5.28,3.34s-5.26-1.52-5.28-3.32v0a1.23,1.23,0,0,0-1.23-1.23h0a1.23,1.23,0,0,0-1.23,1.23v0c0,1.8-2.42,3.32-5.28,3.32s-5.28-1.53-5.28-3.34a1.23,1.23,0,0,0-1.23-1.23h0a1.23,1.23,0,0,0-1.23,1.23c0,1.81-2.42,3.34-5.28,3.34s-5.26-1.52-5.28-3.32v0a1.23,1.23,0,0,0-1.23-1.23h0a1.23,1.23,0,0,0-1.23,1.23v0c0,1.8-2.42,3.32-5.28,3.32S53.7,58.1,53.7,56.29a1.23,1.23,0,0,0-1.23-1.23h0a1.23,1.23,0,0,0-1.23,1.23c0,1.81-2.41,3.34-5.28,3.34s-5.26-1.52-5.27-3.32v0a1.23,1.23,0,0,0-1.23-1.23h0a1.23,1.23,0,0,0-1.23,1.23v0c0,1.8-2.42,3.32-5.27,3.32s-5.28-1.53-5.28-3.34a1.23,1.23,0,0,0-1.23-1.23h0a1.23,1.23,0,0,0-1.23,1.23c0,1.81-2.42,3.34-5.28,3.34s-5.1-1.42-5.26-3.15c0-.06,0-.12,0-.19a1.23,1.23,0,0,0-1.23-1.23h0a1.23,1.23,0,0,0-1.23,1.23c0,.05,0,.09,0,.14-.1,1.78-2,3.2-4.35,3.2s-4.36-1.5-4.36-3.34a1.23,1.23,0,0,0,0-.19l-.86-5.39,13.15-13A1.23,1.23,0,1,0,14,35.94L.36,49.41A1.21,1.21,0,0,0,0,50.48L1,56.4c.06,3.15,3.1,5.7,6.82,5.7a7.22,7.22,0,0,0,5.64-2.54,8.64,8.64,0,0,0,6.44,2.54,8.54,8.54,0,0,0,6.52-2.65,8.56,8.56,0,0,0,6.53,2.65,8.57,8.57,0,0,0,6.51-2.63,8.53,8.53,0,0,0,6.5,2.63,8.56,8.56,0,0,0,6.53-2.65A8.54,8.54,0,0,0,59,62.1a8.55,8.55,0,0,0,6.51-2.63,9.37,9.37,0,0,0,13,0,9.36,9.36,0,0,0,13,0,9.36,9.36,0,0,0,13,0,9.37,9.37,0,0,0,13,0,9.36,9.36,0,0,0,13,0,9.38,9.38,0,0,0,13,.09,7.23,7.23,0,0,0,5.66,2.56c3.72,0,6.76-2.55,6.82-5.7l.95-5.92A1.22,1.22,0,0,0,156.69,49.38Z"></path><path class="cls-2" d="M149.68,124.33a1.23,1.23,0,0,1-1.23-1.23v-4a1.24,1.24,0,0,1,2.47,0v4A1.23,1.23,0,0,1,149.68,124.33Z"></path><path class="cls-2" d="M149.39,141.62a15.15,15.15,0,0,1-5.55-.75,1.2,1.2,0,0,1-.74-1L141,123.07a1.21,1.21,0,0,1,.36-1,1.19,1.19,0,0,1,1-.34,63.93,63.93,0,0,0,7.34.58,77.07,77.07,0,0,0,7.8-.58,1.2,1.2,0,0,1,1,.35,1.22,1.22,0,0,1,.35,1l-2.15,16.82a1.23,1.23,0,0,1-.91,1A28.33,28.33,0,0,1,149.39,141.62Zm6.1-1.88h0Zm-10.05-1a17.18,17.18,0,0,0,3.95.38,28.3,28.3,0,0,0,5-.45l1.84-14.39c-1.66.18-4.32.42-6.54.42a56.28,56.28,0,0,1-6.09-.4Z"></path><path class="cls-2" d="M155.89,118.81h0l-14.15-.13a4.11,4.11,0,0,1-4.06-4.14v-.72a4.11,4.11,0,0,1,4.06-4.06,4.31,4.31,0,0,1-.23-1.39v-.72a4.08,4.08,0,0,1,2.25-3.62,4.17,4.17,0,0,1-.14-1.06v-.71a4.1,4.1,0,0,1,2.69-3.8v-1a2.67,2.67,0,0,1,.8-1.88,2.53,2.53,0,0,1,1.89-.76c.41,0,1.28,0,3.34,3.16.72,1.1,1.93,3.14,1.92,4.41v.72a3.7,3.7,0,0,1-.15,1.05,4.09,4.09,0,0,1,2.19,3.66v.72a3.76,3.76,0,0,1-.26,1.38,4.12,4.12,0,0,1,4,4.14v.72A4.11,4.11,0,0,1,155.89,118.81Zm-14.14-6.59a1.65,1.65,0,0,0-1.64,1.63v.71a1.66,1.66,0,0,0,1.63,1.66l14.15.12a1.63,1.63,0,0,0,1.65-1.62V114a1.63,1.63,0,0,0-.48-1.16,1.6,1.6,0,0,0-1.15-.5h0l-2.61,0a1.23,1.23,0,0,1-1.2-1,1.24,1.24,0,0,1,.71-1.38,1.65,1.65,0,0,0,1-1.48v-.72a1.65,1.65,0,0,0-1.56-1.64,1.26,1.26,0,0,1-1.07-.75,1.24,1.24,0,0,1,.2-1.29,1.58,1.58,0,0,0,.4-1v-.72c0-.88-2-4.06-3-5a.29.29,0,0,0,0,.1v2a1.23,1.23,0,0,1-1.15,1.22,1.64,1.64,0,0,0-1.54,1.61V103a1.56,1.56,0,0,0,.38,1,1.21,1.21,0,0,1,.17,1.29,1.23,1.23,0,0,1-1.08.73,1.65,1.65,0,0,0-1.59,1.61v.72a1.66,1.66,0,0,0,1,1.5,1.24,1.24,0,0,1,.69,1.39,1.26,1.26,0,0,1-1.22,1l-2.61,0Z"></path></g></svg> 