<svg data-name="Layer 1" xmlns="http://www.w3.org/2000/svg" viewBox="0 0 350 190"><path d="M289.55,150.31a19.84,19.84,0,1,0,2.57-7.65L280.26,139a4,4,0,1,0-2.39,7.7Zm24.92-14.56a17.69,17.69,0,1,1-22.14,11.66A17.69,17.69,0,0,1,314.47,135.75Zm-37.22,6.52a1.9,1.9,0,0,1,2.38-1.25l11.5,3.57a17.4,17.4,0,0,0-.84,2.19c-.15.47-.25.94-.36,1.41l-11.43-3.55A1.89,1.89,0,0,1,277.25,142.27Z" style="fill:#e1aa21"></path><path d="M334.56,132.08l-34.72-10.77a8.74,8.74,0,0,0-10.93,5.76l-2.77,9a1.06,1.06,0,0,0,.7,1.33,1.07,1.07,0,0,0,1.34-.7l2.77-9a6.61,6.61,0,0,1,8.26-4.35l34.71,10.77a6.6,6.6,0,0,1,4.35,8.26L327.5,177.09a6.59,6.59,0,0,1-8.25,4.35l-34.72-10.77a6.59,6.59,0,0,1-4.34-8.25l3-9.58a1.07,1.07,0,1,0-2-.63l-3,9.57a8.73,8.73,0,0,0,5.75,10.93l34.71,10.77a8.73,8.73,0,0,0,10.93-5.76L340.31,143A8.74,8.74,0,0,0,334.56,132.08Z" style="fill:#e1aa21"></path><path d="M59.34,155.47A8.65,8.65,0,0,0,57.6,172.6a9.09,9.09,0,0,0,1.74.17A8.65,8.65,0,0,0,68,164.12a8.48,8.48,0,0,0-.09-1.23A8.64,8.64,0,0,0,59.34,155.47ZM66,163.16a7.75,7.75,0,0,1,.07,1,6.72,6.72,0,0,1-6.72,6.72A6.82,6.82,0,0,1,58,170.7a6.72,6.72,0,1,1,8-7.54Z" style="fill:#e1aa21"></path><path d="M71,165.11a1,1,0,0,0-.17,1.35,6.72,6.72,0,0,1-10.05,8.88,1,1,0,1,0-1.36,1.37,8.65,8.65,0,0,0,12.94-11.43A1,1,0,0,0,71,165.11Z" style="fill:#e1aa21"></path><path d="M72.63,139.82a8.66,8.66,0,1,0,8.65,8.65A8.65,8.65,0,0,0,72.63,139.82Zm0,15.37a6.72,6.72,0,1,1,6.72-6.72A6.72,6.72,0,0,1,72.63,155.19Z" style="fill:#e1aa21"></path><path d="M45,135.69a1,1,0,1,0,.37-1.9l-1.47-.29-.38,1.9Z" style="fill:#e1aa21"></path><path d="M37.53,118.56,4.59,112A9.05,9.05,0,0,0,1,112a1,1,0,0,0,.39,1.9,7.25,7.25,0,0,1,2.86,0l32.95,6.54a7.2,7.2,0,0,1,5.66,8.47l-.12.62L42,133.12l-1.48-.3a1,1,0,0,0-.37,1.91l1.47.29-1.27,6.41-1.48-.29a1,1,0,0,0-1.14.76,1,1,0,0,0,.77,1.14l1.47.29-1.27,6.41-1.48-.29a1,1,0,1,0-.37,1.9l1.47.29-.4,2.05L37,158.05l-1.48-.29a1,1,0,1,0-.37,1.9l1.47.3-1.27,6.4-1.48-.29a1,1,0,0,0-1.14.76,1,1,0,0,0,.77,1.14l1.48.3-1.28,6.41-1.48-.3a1,1,0,0,0-.37,1.91l1.48.29-.22,1.06a6.53,6.53,0,0,1-.5,1.57,7.21,7.21,0,0,1-8,4.1L1.16,178.64a1,1,0,0,0-.38,1.9l23.52,4.67A9.15,9.15,0,0,0,34.42,180a9.24,9.24,0,0,0,.64-2l.21-1.06,1.48.29a1,1,0,0,0,1.14-.76,1,1,0,0,0-.77-1.14l-1.47-.3,1.27-6.4,1.48.29a1,1,0,0,0,1.14-.76,1,1,0,0,0-.77-1.14l-1.47-.3,1.27-6.41,1.48.3a1,1,0,1,0,.37-1.91L39,158.43l.86-4.36.41-2,1.48.3a1,1,0,0,0,.37-1.91l-1.47-.29,1.27-6.41,1.48.29a1,1,0,1,0,.37-1.9l-1.47-.29,1.27-6.41.38-1.9.7-3.57.13-.62A9.14,9.14,0,0,0,37.53,118.56Z" style="fill:#e1aa21"></path><path d="M22.23,148.27a1,1,0,0,0,.38-1.91L10.2,143.9a1,1,0,1,0-.38,1.9Z" style="fill:#e1aa21"></path><path d="M4.12,149.45a1,1,0,0,0,.76,1.14l20.08,4a1,1,0,1,0,.38-1.9l-20.08-4A1,1,0,0,0,4.12,149.45Z" style="fill:#e1aa21"></path><path d="M289.19,84.35,274.48,36.86,328,54a.91.91,0,0,0,1-.31l21-27.1v-3L327.93,52.08l-54.56-17.5a.94.94,0,0,0-.93.22.92.92,0,0,0-.23.92l15.51,50a.92.92,0,0,0,.87.65.86.86,0,0,0,.27,0L350,67.42V65.5Z" style="fill:#e1aa21"></path><path d="M279.75,31.51a.84.84,0,0,0,.27,0,.91.91,0,0,0,.6-1.14L274.18,9.54l19.18-5.95a.91.91,0,1,0-.54-1.74L272.76,8.06a.92.92,0,0,0-.6,1.15l6.71,21.66A.92.92,0,0,0,279.75,31.51Z" style="fill:#e1aa21"></path><path d="M284.19,14.31a.93.93,0,0,0,.88.65,1.26,1.26,0,0,0,.27,0L321.87,3.59a.91.91,0,0,0-.54-1.74L284.8,13.17A.91.91,0,0,0,284.19,14.31Z" style="fill:#e1aa21"></path><path d="M287,23.27a.92.92,0,0,0,.87.65,1.26,1.26,0,0,0,.27,0L344.83,6.3a.92.92,0,0,0-.54-1.75L287.57,22.13A.91.91,0,0,0,287,23.27Z" style="fill:#e1aa21"></path><path d="M289.75,32.23a.91.91,0,0,0,.87.65,1.26,1.26,0,0,0,.27,0l56.72-17.58a.91.91,0,0,0,.6-1.14.93.93,0,0,0-1.15-.61L290.35,31.09A.91.91,0,0,0,289.75,32.23Z" style="fill:#e1aa21"></path><path d="M336.89,26.49,306.08,36a.92.92,0,0,0-.6,1.15.91.91,0,0,0,.87.64.84.84,0,0,0,.27,0l30.81-9.54a.92.92,0,0,0,.6-1.15A.91.91,0,0,0,336.89,26.49Z" style="fill:#e1aa21"></path><path d="M.21,10.12H64.37a6.51,6.51,0,0,1,6.5,6.51v71a6.5,6.5,0,0,1-6.5,6.5H.21V96H64.37A8.44,8.44,0,0,0,72.8,87.6v-71a8.44,8.44,0,0,0-8.43-8.44H.21Z" style="fill:#e1aa21"></path><path d="M.21,4.93H71.83a1,1,0,1,0,0-1.93H.21Z" style="fill:#e1aa21"></path><path d="M56.26,53.08a1,1,0,0,0,1-1v-7.3a1,1,0,0,1-1,1h-1v5.37h-7v1a1,1,0,1,1-1.93,0v-1H38.6v1a1,1,0,1,1-1.93,0v-1H28.94v1a1,1,0,1,1-1.93,0v-1H19.29v1a1,1,0,1,1-1.93,0v-1H9.64v1a1,1,0,0,1-1.94,0v-1H.21v1.93Z" style="fill:#e1aa21"></path><path d="M56.26,39h-1v4.89h1a1,1,0,0,1,1,1V38A1,1,0,0,1,56.26,39Z" style="fill:#e1aa21"></path><path d="M56.26,25.3h-1v4.89h1a1,1,0,0,1,1,1V24.33A1,1,0,0,1,56.26,25.3Z" style="fill:#e1aa21"></path><path d="M56.26,32.12h-1V37h1a1,1,0,0,1,1,1V31.16A1,1,0,0,1,56.26,32.12Z" style="fill:#e1aa21"></path><path d="M46.32,52.11a1,1,0,1,0,1.93,0v-1H46.32Z" style="fill:#e1aa21"></path><path d="M36.67,52.11a1,1,0,1,0,1.93,0v-1H36.67Z" style="fill:#e1aa21"></path><path d="M27,52.11a1,1,0,1,0,1.93,0v-1H27Z" style="fill:#e1aa21"></path><path d="M17.36,52.11a1,1,0,1,0,1.93,0v-1H17.36Z" style="fill:#e1aa21"></path><path d="M7.7,52.11a1,1,0,0,0,1.94,0v-1H7.7Z" style="fill:#e1aa21"></path><path d="M56.26,16.06H.21V18H7.7v5.37H.21V25.3H7.7v4.89H.21v1.93H7.7V37H.21V39H7.7v4.89H.21v1.94H7.7v5.37H9.64V45.78h7.72v5.37h1.93V45.78H27v5.37h1.93V45.78h7.73v5.37H38.6V45.78h7.72v5.37h1.93V45.78h7V43.84h-7V39h7V37h-7v-4.9h7V30.19h-7V25.3h7V23.36h-7V18h7v5.37h1a1,1,0,0,1,1,1V17A1,1,0,0,0,56.26,16.06Zm-19.59,7.3H28.94V18h7.73Zm0,6.83H28.94V25.3h7.73Zm0,6.83H28.94v-4.9h7.73Zm-17.38-4.9H27V37H19.29Zm0-6.82H27v4.89H19.29ZM27,23.36H19.29V18H27ZM9.64,18h7.72v5.37H9.64Zm0,7.31h7.72v4.89H9.64Zm0,6.82h7.72V37H9.64Zm0,11.72V39h7.72v4.89Zm9.65,0V39H27v4.89Zm9.65,0V39h7.73v4.89Zm17.38,0H38.6V39h7.72Zm0-6.82H38.6v-4.9h7.72Zm0-6.83H38.6V25.3h7.72Zm0-6.83H38.6V18h7.72Z" style="fill:#e1aa21"></path><path d="M56.26,43.84h-1v1.94h1a1,1,0,0,0,0-1.94Z" style="fill:#e1aa21"></path><path d="M56.26,37h-1V39h1a1,1,0,0,0,0-1.93Z" style="fill:#e1aa21"></path><path d="M56.26,30.19h-1v1.93h1a1,1,0,0,0,0-1.93Z" style="fill:#e1aa21"></path><path d="M56.26,23.36h-1V25.3h1a1,1,0,0,0,0-1.94Z" style="fill:#e1aa21"></path><path d="M9.64,84.84V61.71a1,1,0,0,0-1-1H.21v1.93H7.7V83.88H.21v1.93H8.67A1,1,0,0,0,9.64,84.84Z" style="fill:#e1aa21"></path><path d="M214,46.79c2.83,2.93,1.89,77.39,1.68,87.66s-10.48,14-10.48,14-54.25.94-58.54-.52-7.32-5.41-6.38-3.46a14.12,14.12,0,0,0,12.65,8.09h52.71A14.37,14.37,0,0,0,219.77,138V56.34a14.58,14.58,0,0,0-9-13.57A9.4,9.4,0,0,1,214,46.79Z" style="fill:#edca73"></path><polygon points="151.37 54 171.53 125.51 145.5 125.51 145.5 54 151.37 54" style="fill:#edca73"></polygon><path d="M142,91.49h-1.69a1.21,1.21,0,0,1,0-2.41H142a1.21,1.21,0,1,1,0,2.41Zm-6.52,0h-3.22a1.21,1.21,0,1,1,0-2.41h3.22a1.21,1.21,0,1,1,0,2.41Zm-8,0h-3.22a1.21,1.21,0,1,1,0-2.41h3.22a1.21,1.21,0,1,1,0,2.41Zm-8.06,0h-3.22a1.21,1.21,0,1,1,0-2.41h3.22a1.21,1.21,0,1,1,0,2.41Z" style="fill:#333"></path><path d="M126.41,133a1.21,1.21,0,0,1-.72-2.18l2.59-1.92a1.21,1.21,0,0,1,1.44,1.95l-2.59,1.91A1.22,1.22,0,0,1,126.41,133Zm6.47-4.79a1.21,1.21,0,0,1-.72-2.18l2.59-1.92a1.22,1.22,0,0,1,1.69.25,1.2,1.2,0,0,1-.25,1.69L133.6,128A1.2,1.2,0,0,1,132.88,128.25Zm6.48-4.79a1.21,1.21,0,0,1-.72-2.18l2.59-1.92a1.21,1.21,0,0,1,1.44,1.94l-2.59,1.92A1.22,1.22,0,0,1,139.36,123.46Z" style="fill:#333"></path><path d="M230.29,133.1a1.21,1.21,0,0,1-.72-.23L227,131a1.2,1.2,0,0,1-.27-1.68,1.21,1.21,0,0,1,1.69-.27l2.61,1.9a1.19,1.19,0,0,1,.26,1.68A1.18,1.18,0,0,1,230.29,133.1Zm-6.52-4.74a1.2,1.2,0,0,1-.71-.23l-2.6-1.9a1.2,1.2,0,0,1-.27-1.68,1.21,1.21,0,0,1,1.69-.27l2.6,1.9a1.2,1.2,0,0,1-.71,2.18Zm-6.51-4.74a1.16,1.16,0,0,1-.71-.23l-2.61-1.89a1.21,1.21,0,0,1,1.43-2l2.6,1.9a1.21,1.21,0,0,1,.27,1.69A1.23,1.23,0,0,1,217.26,123.62Z" style="fill:#333"></path><path d="M214.75,67.22A1.21,1.21,0,0,1,214,65l2.59-1.91a1.21,1.21,0,1,1,1.44,1.94L215.47,67A1.21,1.21,0,0,1,214.75,67.22Zm6.47-4.79a1.21,1.21,0,0,1-.72-2.18l2.59-1.91a1.21,1.21,0,1,1,1.44,1.94l-2.59,1.91A1.22,1.22,0,0,1,221.22,62.43Zm6.48-4.79a1.21,1.21,0,0,1-.72-2.18l2.59-1.92a1.21,1.21,0,1,1,1.43,2l-2.58,1.91A1.22,1.22,0,0,1,227.7,57.64Z" style="fill:#333"></path><path d="M142,67a1.17,1.17,0,0,1-.71-.24l-2.61-1.89A1.21,1.21,0,0,1,140.14,63l2.61,1.89a1.21,1.21,0,0,1,.27,1.69A1.24,1.24,0,0,1,142,67Zm-6.51-4.74a1.23,1.23,0,0,1-.71-.23l-2.61-1.9a1.21,1.21,0,1,1,1.42-2l2.61,1.89a1.21,1.21,0,0,1-.71,2.19ZM129,57.56a1.27,1.27,0,0,1-.71-.23l-2.6-1.9a1.21,1.21,0,1,1,1.42-2l2.6,1.89a1.21,1.21,0,0,1-.71,2.19Z" style="fill:#333"></path><path d="M239.2,91.49h-2.31a1.21,1.21,0,1,1,0-2.41h2.31a1.21,1.21,0,1,1,0,2.41Zm-7.14,0h-3.22a1.21,1.21,0,1,1,0-2.41h3.22a1.21,1.21,0,1,1,0,2.41Zm-8.05,0h-3.23a1.21,1.21,0,0,1,0-2.41H224a1.21,1.21,0,0,1,0,2.41Zm-8.06,0h-3.22a1.21,1.21,0,1,1,0-2.41H216a1.21,1.21,0,1,1,0,2.41Z" style="fill:#333"></path><path d="M180.33,102.63c-2.55,0-4.82-.12-5-.13a.64.64,0,0,1-.2,0,5.72,5.72,0,0,1-3.52-2.72c-.91-1.66-4.83-8.51-5.39-9.38A2.82,2.82,0,0,1,167,86.8a3.18,3.18,0,0,1,4.4.1l.14.14V78.82a3.28,3.28,0,0,1,3.29-3.24,3,3,0,0,1,2.23.87,3.59,3.59,0,0,1,.9,2.4l0,5.53a3.2,3.2,0,0,1,1.62.16,2.82,2.82,0,0,1,1.53,1.23,2.55,2.55,0,0,1,2.13-.14,2.7,2.7,0,0,1,1.63,1.22,3,3,0,0,1,2.73,0c1.07.46,1.65,1.68,1.66,3.6a57.45,57.45,0,0,1-.24,6.8,5.25,5.25,0,0,1-4.73,5.26C183.07,102.6,181.66,102.63,180.33,102.63Zm-4.7-2.54a73.88,73.88,0,0,0,8.46,0c2.36-.19,2.51-2.69,2.52-3,0,0,0-.08,0-.12a57.69,57.69,0,0,0,.22-6.54c0-1.17-.27-1.42-.27-1.42-.63-.32-1.25.46-1.27.5A1.23,1.23,0,0,1,184,90a1.2,1.2,0,0,1-.88-1c0-.35-.28-.93-.5-1l-.11,0c-.27-.09-.27-.09-1,.45l-.24.18a1.2,1.2,0,0,1-1.9-.69c-.13-.58-.35-1-.56-1l-.08,0a1.09,1.09,0,0,0-1.09.36,1.21,1.21,0,0,1-2.13-.79l0-7.57c0-.81-.49-.81-.71-.81a.85.85,0,0,0-.88.87v12a1.26,1.26,0,0,1-.92,1.27c-1,.26-1.41-.46-2.11-1.67a11.55,11.55,0,0,0-1.18-1.79.76.76,0,0,0-1.11-.08.93.93,0,0,0-.33.53c.55.86,4.54,7.8,5.45,9.49A3.32,3.32,0,0,0,175.63,100.09Z" style="fill:#333"></path><path d="M209.06,127.14H146.11a.93.93,0,0,1-.93-.93V54.44a.93.93,0,0,1,.93-.93h62.95a.93.93,0,0,1,.93.93v71.77A.93.93,0,0,1,209.06,127.14Zm-62-1.87h61.08V55.38H147Z" style="fill:#333"></path><path d="M203.63,149.57H151.54a14.2,14.2,0,0,1-14-14.39V54.44a14.19,14.19,0,0,1,14-14.38h52.09a14.2,14.2,0,0,1,14,14.38v80.74A14.2,14.2,0,0,1,203.63,149.57ZM151.54,41.92a12.32,12.32,0,0,0-12.09,12.52v80.74a12.32,12.32,0,0,0,12.09,12.52h52.09a12.32,12.32,0,0,0,12.09-12.52V54.44a12.32,12.32,0,0,0-12.09-12.52Zm32.55,98.67h-13a3.18,3.18,0,0,1,0-6.35h13a3.18,3.18,0,0,1,0,6.35Zm-13-4.48a1.31,1.31,0,0,0,0,2.62h13a1.31,1.31,0,0,0,0-2.62Zm38-9H146.11a.93.93,0,0,1-.93-.93V54.44a.93.93,0,0,1,.93-.93h62.95a.93.93,0,0,1,.93.93v71.77A.93.93,0,0,1,209.06,127.14Zm-62-1.87h61.08V55.38H147Z" style="fill:#333"></path><path d="M203.63,149.87H151.54a14.49,14.49,0,0,1-14.26-14.69V54.44a14.49,14.49,0,0,1,14.26-14.69h52.09a14.5,14.5,0,0,1,14.26,14.69v80.74A14.5,14.5,0,0,1,203.63,149.87ZM151.54,40.36a13.89,13.89,0,0,0-13.66,14.08v80.74a13.89,13.89,0,0,0,13.66,14.08h52.09a13.89,13.89,0,0,0,13.65-14.08V54.44a13.89,13.89,0,0,0-13.65-14.08ZM203.63,148H151.54a12.62,12.62,0,0,1-12.39-12.82V54.44a12.62,12.62,0,0,1,12.39-12.82h52.09A12.63,12.63,0,0,1,216,54.44v80.74A12.63,12.63,0,0,1,203.63,148ZM151.54,42.22a12,12,0,0,0-11.79,12.22v80.74a12,12,0,0,0,11.79,12.22h52.09a12,12,0,0,0,11.79-12.22V54.44a12,12,0,0,0-11.79-12.22Zm32.55,98.68h-13a3.48,3.48,0,0,1,0-7h13a3.48,3.48,0,0,1,0,7Zm-13-6.36a2.88,2.88,0,0,0,0,5.75h13a2.88,2.88,0,0,0,0-5.75Zm13,4.49h-13a1.61,1.61,0,0,1,0-3.22h13a1.61,1.61,0,0,1,0,3.22Zm-13-2.62a1,1,0,0,0,0,2h13a1,1,0,0,0,0-2Zm38-9H146.11a1.23,1.23,0,0,1-1.23-1.23V54.44a1.23,1.23,0,0,1,1.23-1.23h62.95a1.23,1.23,0,0,1,1.23,1.23v71.77A1.23,1.23,0,0,1,209.06,127.44ZM146.11,53.81a.63.63,0,0,0-.63.63v71.77a.63.63,0,0,0,.63.63h62.95a.64.64,0,0,0,.63-.63V54.44a.64.64,0,0,0-.63-.63Zm62.31,71.76H146.74V55.08h61.68Zm-61.07-.6h60.47V55.68H147.35Z" style="fill:#333"></path><path d="M129.18,35.08a17.54,17.54,0,0,0-23.94-6.42h0a17.54,17.54,0,1,0,23.94,6.42Zm-.58,12.67a15.11,15.11,0,1,1-22.15-17h0a15.13,15.13,0,0,1,20.64,5.54A15,15,0,0,1,128.6,47.75Z" style="fill:#333"></path><path d="M117,42.77a2.85,2.85,0,1,0-2.85-2.84c0,.08,0,.17,0,.25l-3,1.53a2.85,2.85,0,1,0,0,4.22l3,1.52c0,.1,0,.2,0,.3A2.85,2.85,0,1,0,117,44.91a2.78,2.78,0,0,0-1.88.72l-3-1.54a2.09,2.09,0,0,0,0-.25,1.51,1.51,0,0,0,0-.3L115,42A2.85,2.85,0,0,0,117,42.77Z" style="fill:#333"></path><path d="M130.94,138.38a17.53,17.53,0,0,0-32.11-4.23h0a17.53,17.53,0,1,0,32.11,4.23Zm-3.85,12.09A15.11,15.11,0,1,1,128.6,139,15,15,0,0,1,127.09,150.47Z" style="fill:#333"></path><path d="M119.73,140.26a5.88,5.88,0,0,0-10.87-1.5,4.77,4.77,0,0,0,.68,9.5h9.68a4,4,0,0,0,.51-8Zm-.51,2a1.93,1.93,0,1,1,0,3.86h-9.68a2.68,2.68,0,1,1,0-5.35h.76l.06-.22a3.79,3.79,0,0,1,7.44,1v.68Z" style="fill:#333"></path><g><path d="M93.85,98l14.36-6.16L93.85,85.73v4.79l10.26,1.36L93.85,93.25Z" style="fill:#333"></path></g><path d="M99.16,109.41A17.53,17.53,0,0,1,84,83.12h0a17.52,17.52,0,1,1,15.15,26.29ZM86.1,84.33A15.11,15.11,0,1,0,113.78,88,15.11,15.11,0,0,0,86.1,84.33Z" style="fill:#333"></path><path d="M240,47.86a1.74,1.74,0,1,0,1.74,1.74A1.74,1.74,0,0,0,240,47.86Z" style="fill:#333"></path><path d="M249.33,37.78H238.86l-.6-1.27a.3.3,0,0,0-.27-.17h-2.35a.3.3,0,0,0-.31.3v1.44a.3.3,0,0,0,.31.3h1.25l2.44,5.16-.9,1.62A1.74,1.74,0,0,0,240,47.74h8.64a.29.29,0,0,0,.3-.3V46a.29.29,0,0,0-.3-.3h-8.13l.46-.84h5.18a1.74,1.74,0,0,0,1.53-.89l2.58-4.68a1,1,0,0,0-.89-1.51Zm-1.74,2-1.65,3h-4.69l-1.42-3Z" style="fill:#333"></path><path d="M247.16,47.86a1.74,1.74,0,1,0,1.74,1.74A1.74,1.74,0,0,0,247.16,47.86Z" style="fill:#333"></path><path d="M259.77,39.3a17.53,17.53,0,0,0-32.11-4.22h0a17.53,17.53,0,1,0,32.11,4.22Zm-3.84,12.1a15.11,15.11,0,1,1-17-22.15,15.11,15.11,0,0,1,17,22.15Z" style="fill:#333"></path><path d="M259.77,138.38a17.53,17.53,0,0,0-32.11-4.23h0a17.53,17.53,0,1,0,32.11,4.23Zm-3.84,12.09A15.1,15.1,0,1,1,257.44,139,15.13,15.13,0,0,1,255.93,150.47Z" style="fill:#333"></path><path d="M242.75,145.22a.19.19,0,0,0,.28,0l3.85-3.85a.19.19,0,0,0,0-.28l-1.16-1.16a.17.17,0,0,0-.14-.06.2.2,0,0,0-.14.06l-1.58,1.58v-6a.2.2,0,0,0-.2-.2H242a.2.2,0,0,0-.2.2v5.95l-1.48-1.48a.2.2,0,0,0-.14-.06.18.18,0,0,0-.14.06l-1.16,1.16a.17.17,0,0,0-.06.14.2.2,0,0,0,.06.14Z" style="fill:#333"></path><path d="M249.38,142.61h-1.63a.2.2,0,0,0-.21.2v3.89h-9.4v-3.89a.2.2,0,0,0-.2-.2H236.3a.2.2,0,0,0-.2.2v5.72a.2.2,0,0,0,.2.21h13.08a.2.2,0,0,0,.2-.21v-5.72A.2.2,0,0,0,249.38,142.61Z" style="fill:#333"></path><path d="M274.59,87.35a17.52,17.52,0,0,0-32.1-4.23h0a17.52,17.52,0,1,0,32.1,4.23Zm-3.84,12.09A15.11,15.11,0,1,1,272.26,88,15.14,15.14,0,0,1,270.75,99.44Z" style="fill:#333"></path><path d="M263.4,84.83H252.47a1.76,1.76,0,0,0-1.76,1.77V99.86l3.3-3.3h9.39a1.77,1.77,0,0,0,1.77-1.77V86.6A1.77,1.77,0,0,0,263.4,84.83ZM263,87.28v6.83a.28.28,0,0,1-.28.28h-9l-.79.79v-7.9a.28.28,0,0,1,.28-.28h9.55A.28.28,0,0,1,263,87.28Z" style="fill:#333"></path></svg> 