<svg xmlns="http://www.w3.org/2000/svg" xmlns:xlink="http://www.w3.org/1999/xlink" viewBox="0 0 440 252"><defs><style>.cls-1{fill:#c6e0ff;}.cls-2,.cls-53,.cls-55{fill:#70b0ff;}.cls-2,.cls-3{clip-rule:evenodd;}.cls-3,.cls-4,.cls-57{fill:#231f20;}.cls-5{clip-path:url(#clip-path);}.cls-6{clip-path:url(#clip-path-2);}.cls-7{clip-path:url(#clip-path-3);}.cls-8{clip-path:url(#clip-path-4);}.cls-9{clip-path:url(#clip-path-5);}.cls-10{clip-path:url(#clip-path-6);}.cls-11{clip-path:url(#clip-path-7);}.cls-12{clip-path:url(#clip-path-8);}.cls-13{clip-path:url(#clip-path-9);}.cls-14{clip-path:url(#clip-path-10);}.cls-15{clip-path:url(#clip-path-11);}.cls-16{clip-path:url(#clip-path-12);}.cls-17{clip-path:url(#clip-path-13);}.cls-18{clip-path:url(#clip-path-14);}.cls-19{clip-path:url(#clip-path-15);}.cls-20{clip-path:url(#clip-path-16);}.cls-21{clip-path:url(#clip-path-17);}.cls-22{clip-path:url(#clip-path-18);}.cls-23{clip-path:url(#clip-path-19);}.cls-24{clip-path:url(#clip-path-20);}.cls-25{clip-path:url(#clip-path-21);}.cls-26{clip-path:url(#clip-path-22);}.cls-27{clip-path:url(#clip-path-23);}.cls-28{clip-path:url(#clip-path-24);}.cls-29{clip-path:url(#clip-path-25);}.cls-30{clip-path:url(#clip-path-26);}.cls-31{clip-path:url(#clip-path-27);}.cls-32{clip-path:url(#clip-path-28);}.cls-33{clip-path:url(#clip-path-29);}.cls-34{clip-path:url(#clip-path-30);}.cls-35{clip-path:url(#clip-path-31);}.cls-36{clip-path:url(#clip-path-32);}.cls-37{clip-path:url(#clip-path-33);}.cls-38{clip-path:url(#clip-path-34);}.cls-39{clip-path:url(#clip-path-35);}.cls-40{clip-path:url(#clip-path-36);}.cls-41{clip-path:url(#clip-path-37);}.cls-42{clip-path:url(#clip-path-38);}.cls-43{clip-path:url(#clip-path-39);}.cls-44{clip-path:url(#clip-path-40);}.cls-45{clip-path:url(#clip-path-41);}.cls-46{clip-path:url(#clip-path-42);}.cls-47{clip-path:url(#clip-path-43);}.cls-48{clip-path:url(#clip-path-44);}.cls-49{clip-path:url(#clip-path-45);}.cls-50{clip-path:url(#clip-path-46);}.cls-51{clip-path:url(#clip-path-47);}.cls-52{clip-path:url(#clip-path-48);}.cls-53,.cls-57{fill-rule:evenodd;}.cls-54{clip-path:url(#clip-path-49);}.cls-56{clip-path:url(#clip-path-50);}.cls-58{clip-path:url(#clip-path-51);}.cls-59{clip-path:url(#clip-path-52);}.cls-60{clip-path:url(#clip-path-53);}.cls-61{clip-path:url(#clip-path-54);}.cls-62{clip-path:url(#clip-path-55);}.cls-63{clip-path:url(#clip-path-56);}.cls-64{clip-path:url(#clip-path-57);}.cls-65{clip-path:url(#clip-path-58);}.cls-66{clip-path:url(#clip-path-59);}.cls-67{clip-path:url(#clip-path-60);}.cls-68{clip-path:url(#clip-path-61);}.cls-69{clip-path:url(#clip-path-62);}.cls-70{clip-path:url(#clip-path-63);}.cls-71{clip-path:url(#clip-path-64);}.cls-72{clip-path:url(#clip-path-65);}.cls-73{clip-path:url(#clip-path-66);}.cls-74{clip-path:url(#clip-path-67);}</style><clipPath id="clip-path"><path class="cls-1" d="M78.6,186.22a1,1,0,1,1,0-1.92h46a1,1,0,1,1,0,1.92Z"/></clipPath><clipPath id="clip-path-2"><path class="cls-1" d="M99.38,49.48H15.1a1.13,1.13,0,0,1,0-2.25h85.41a1.12,1.12,0,0,1,1.12,1.12V113a1.12,1.12,0,0,1-1.12,1.12H15.27a1.12,1.12,0,1,1,0-2.24H99.38Z"/></clipPath><clipPath id="clip-path-3"><path class="cls-1" d="M106.16,42.7H15.27a1.12,1.12,0,0,1,0-2.24h92a1.12,1.12,0,0,1,1.12,1.12v78.19a1.12,1.12,0,0,1-1.12,1.12h-92a1.12,1.12,0,1,1,0-2.24h90.89Z"/></clipPath><clipPath id="clip-path-4"><path class="cls-1" d="M85.16,66H15.27a1.12,1.12,0,1,1,0-2.24h71a1.12,1.12,0,0,1,1.12,1.12V96.43a1.12,1.12,0,0,1-1.12,1.12h-71a1.13,1.13,0,0,1,0-2.25H85.16Z"/></clipPath><clipPath id="clip-path-5"><path class="cls-1" d="M68.36,35.78a1.13,1.13,0,0,1,.06,1.59,1.12,1.12,0,0,1-1.58.06L45.72,18a1.12,1.12,0,0,1,1.52-1.65Z"/></clipPath><clipPath id="clip-path-6"><path class="cls-1" d="M26.13,37.43a1.13,1.13,0,0,1-1.53-1.65L45.72,16.3A1.12,1.12,0,1,1,47.24,18Z"/></clipPath><clipPath id="clip-path-7"><path class="cls-1" d="M16.31,211.74h23.1V132.1H16.31ZM15.19,214a1.13,1.13,0,0,1-1.13-1.12V131a1.13,1.13,0,0,1,1.13-1.12H40.53A1.13,1.13,0,0,1,41.66,131v81.89A1.13,1.13,0,0,1,40.53,214Z"/></clipPath><clipPath id="clip-path-8"><path class="cls-1" d="M70.7,211.74V132.1H47.6v79.64ZM46.48,214a1.12,1.12,0,0,1-1.12-1.12V131a1.12,1.12,0,0,1,1.12-1.12H71.83A1.12,1.12,0,0,1,73,131v81.89A1.12,1.12,0,0,1,71.83,214Z"/></clipPath><clipPath id="clip-path-9"><path class="cls-1" d="M33.2,200.61a5.34,5.34,0,1,1-5.34-5.33A5.34,5.34,0,0,1,33.2,200.61Zm-2.25,0a3.09,3.09,0,1,0-3.09,3.09A3.09,3.09,0,0,0,31,200.61Z"/></clipPath><clipPath id="clip-path-10"><path class="cls-1" d="M64.49,200.61a5.34,5.34,0,1,1-5.34-5.33A5.34,5.34,0,0,1,64.49,200.61Zm-2.25,0a3.09,3.09,0,1,0-3.09,3.09A3.09,3.09,0,0,0,62.24,200.61Z"/></clipPath><clipPath id="clip-path-11"><path class="cls-1" d="M21.83,185.28a1.13,1.13,0,1,1,0-2.25H33.9a1.13,1.13,0,0,1,0,2.25Z"/></clipPath><clipPath id="clip-path-12"><path class="cls-1" d="M24.09,189.73a1.12,1.12,0,1,1,0-2.24h7.54a1.12,1.12,0,1,1,0,2.24Z"/></clipPath><clipPath id="clip-path-13"><path class="cls-1" d="M53.12,185.28a1.13,1.13,0,0,1,0-2.25H65.19a1.13,1.13,0,0,1,0,2.25Z"/></clipPath><clipPath id="clip-path-14"><path class="cls-1" d="M55.38,189.73a1.12,1.12,0,1,1,0-2.24h7.55a1.12,1.12,0,0,1,0,2.24Z"/></clipPath><clipPath id="clip-path-15"><path class="cls-1" d="M219.19,30.42a1.09,1.09,0,1,1,2.17,0V49.25a1.14,1.14,0,0,1-.28.74L210.72,61.23a1.09,1.09,0,0,1-1.54.06,1.08,1.08,0,0,1-.06-1.53l10.07-10.94Z"/></clipPath><clipPath id="clip-path-16"><path class="cls-1" d="M245.92,49.25a25.65,25.65,0,1,1-25.64-25.64A25.64,25.64,0,0,1,245.92,49.25Zm-2.18,0a23.47,23.47,0,1,0-23.46,23.46A23.47,23.47,0,0,0,243.74,49.25Z"/></clipPath><clipPath id="clip-path-17"><path class="cls-1" d="M251.49,49.25A31.22,31.22,0,1,1,220.28,18,31.21,31.21,0,0,1,251.49,49.25Zm-2.17,0a29,29,0,1,0-29,29A29,29,0,0,0,249.32,49.25Z"/></clipPath><clipPath id="clip-path-18"><path class="cls-1" d="M316.83,106.72a1,1,0,1,1,0-2h106a1,1,0,1,1,0,2Z"/></clipPath><clipPath id="clip-path-19"><path class="cls-1" d="M312.59,96.6a1,1,0,1,1,0-2H422.78a1,1,0,1,1,0,2Z"/></clipPath><clipPath id="clip-path-20"><path class="cls-1" d="M346.19,36.36h-6.88a1.57,1.57,0,0,0-1.57,1.57V88a1.57,1.57,0,0,0,1.57,1.57h6.88A1.57,1.57,0,0,0,347.76,88V37.93A1.57,1.57,0,0,0,346.19,36.36Zm0-2.22A3.79,3.79,0,0,1,350,37.93V88a3.79,3.79,0,0,1-3.79,3.79h-6.88a3.8,3.8,0,0,1-3.8-3.79V37.93a3.8,3.8,0,0,1,3.8-3.79Z"/></clipPath><clipPath id="clip-path-21"><path class="cls-1" d="M340.51,61.52a1.11,1.11,0,0,1,0-2.22H345a1.11,1.11,0,1,1,0,2.22Z"/></clipPath><clipPath id="clip-path-22"><path class="cls-1" d="M340.51,66.53a1.11,1.11,0,0,1,0-2.22H345a1.11,1.11,0,1,1,0,2.22Z"/></clipPath><clipPath id="clip-path-23"><path class="cls-1" d="M356.77,38.53a1.58,1.58,0,0,0-1,2l14.66,47.86a1.57,1.57,0,0,0,2,1l6.58-2a1.58,1.58,0,0,0,1-2L365.32,37.56a1.58,1.58,0,0,0-2-1Zm5.93-4.14a3.8,3.8,0,0,1,4.74,2.52L382.1,84.77a3.8,3.8,0,0,1-2.52,4.74l-6.58,2A3.79,3.79,0,0,1,368.26,89L353.61,41.15a3.79,3.79,0,0,1,2.51-4.74Z"/></clipPath><clipPath id="clip-path-24"><path class="cls-1" d="M365.29,62.24a1.11,1.11,0,1,1-.65-2.12l4.28-1.31a1.11,1.11,0,1,1,.65,2.12Z"/></clipPath><clipPath id="clip-path-25"><path class="cls-1" d="M366.76,67a1.11,1.11,0,1,1-.65-2.12l4.28-1.31a1.11,1.11,0,1,1,.65,2.12Z"/></clipPath><clipPath id="clip-path-26"><path class="cls-1" d="M329.28,36.36H322.4a1.57,1.57,0,0,0-1.58,1.57V88a1.58,1.58,0,0,0,1.58,1.57h6.88A1.58,1.58,0,0,0,330.85,88V37.93A1.57,1.57,0,0,0,329.28,36.36Zm0-2.22a3.79,3.79,0,0,1,3.79,3.79V88a3.79,3.79,0,0,1-3.79,3.79H322.4A3.8,3.8,0,0,1,318.6,88V37.93a3.8,3.8,0,0,1,3.8-3.79Z"/></clipPath><clipPath id="clip-path-27"><path class="cls-1" d="M323.6,61.52a1.11,1.11,0,0,1,0-2.22h4.48a1.11,1.11,0,1,1,0,2.22Z"/></clipPath><clipPath id="clip-path-28"><path class="cls-1" d="M323.6,66.53a1.11,1.11,0,0,1,0-2.22h4.48a1.11,1.11,0,1,1,0,2.22Z"/></clipPath><clipPath id="clip-path-29"><path class="cls-1" d="M295.57,36.36h-6.88a1.57,1.57,0,0,0-1.57,1.57V88a1.57,1.57,0,0,0,1.57,1.57h6.88A1.57,1.57,0,0,0,297.14,88V37.93A1.57,1.57,0,0,0,295.57,36.36Zm0-2.22a3.79,3.79,0,0,1,3.79,3.79V88a3.79,3.79,0,0,1-3.79,3.79h-6.88A3.79,3.79,0,0,1,284.9,88V37.93a3.79,3.79,0,0,1,3.79-3.79Z"/></clipPath><clipPath id="clip-path-30"><path class="cls-1" d="M312.37,36.36h-6.88a1.57,1.57,0,0,0-1.58,1.57V88a1.58,1.58,0,0,0,1.58,1.57h6.88A1.58,1.58,0,0,0,313.94,88V37.93A1.57,1.57,0,0,0,312.37,36.36Zm0-2.22a3.79,3.79,0,0,1,3.79,3.79V88a3.79,3.79,0,0,1-3.79,3.79h-6.88a3.8,3.8,0,0,1-3.8-3.79V37.93a3.8,3.8,0,0,1,3.8-3.79Z"/></clipPath><clipPath id="clip-path-31"><path class="cls-1" d="M289.89,61.52a1.11,1.11,0,0,1,0-2.22h4.48a1.11,1.11,0,1,1,0,2.22Z"/></clipPath><clipPath id="clip-path-32"><path class="cls-1" d="M289.89,66.53a1.11,1.11,0,0,1,0-2.22h4.48a1.11,1.11,0,1,1,0,2.22Z"/></clipPath><clipPath id="clip-path-33"><path class="cls-1" d="M306.69,61.52a1.11,1.11,0,1,1,0-2.22h4.48a1.11,1.11,0,1,1,0,2.22Z"/></clipPath><clipPath id="clip-path-34"><path class="cls-1" d="M306.69,66.53a1.11,1.11,0,1,1,0-2.22h4.48a1.11,1.11,0,1,1,0,2.22Z"/></clipPath><clipPath id="clip-path-35"><path class="cls-1" d="M421.69,68.85V61.43H392.31v7.42ZM391.2,71.07A1.11,1.11,0,0,1,390.09,70V60.32a1.11,1.11,0,0,1,1.11-1.11h31.61a1.11,1.11,0,0,1,1.11,1.11V70a1.11,1.11,0,0,1-1.11,1.11Z"/></clipPath><clipPath id="clip-path-36"><path class="cls-1" d="M392.8,70.1a1.11,1.11,0,0,1,2.2-.29l2.69,20.4a1.11,1.11,0,1,1-2.2.29Z"/></clipPath><clipPath id="clip-path-37"><path class="cls-1" d="M419,69.81a1.11,1.11,0,0,1,2.21.29l-2.69,20.4a1.11,1.11,0,0,1-2.21-.29Z"/></clipPath><clipPath id="clip-path-38"><path class="cls-1" d="M408.11,56.24a1.11,1.11,0,1,1-2.22,0V27.62a1.11,1.11,0,0,1,2.22,0Z"/></clipPath><clipPath id="clip-path-39"><path class="cls-1" d="M403.13,33.41a9.38,9.38,0,0,0-8.5-2.58,9.42,9.42,0,0,0,11.08,11.08A9.38,9.38,0,0,0,403.13,33.41Zm1.58-1.58a11.66,11.66,0,0,1,3,11.29,1.11,1.11,0,0,1-.79.78,11.63,11.63,0,0,1-14.28-14.28,1.13,1.13,0,0,1,.78-.79A11.66,11.66,0,0,1,404.71,31.83Z"/></clipPath><clipPath id="clip-path-40"><path class="cls-1" d="M407.42,42a1.13,1.13,0,0,1,0,1.58,1.12,1.12,0,0,1-1.57,0l-6.46-6.47a1.1,1.1,0,0,1,0-1.57,1.12,1.12,0,0,1,1.57,0Z"/></clipPath><clipPath id="clip-path-41"><path class="cls-1" d="M409.3,40.79a11.61,11.61,0,0,1,11.28-3,1.13,1.13,0,0,1,.79.78,11.64,11.64,0,0,1-14.29,14.28,1.1,1.1,0,0,1-.78-.78A11.63,11.63,0,0,1,409.3,40.79Zm1.57,1.58a9.41,9.41,0,0,0-2.58,8.5,9.42,9.42,0,0,0,11.08-11.08A9.4,9.4,0,0,0,410.87,42.37Z"/></clipPath><clipPath id="clip-path-42"><path class="cls-1" d="M408.16,52.58A1.12,1.12,0,0,1,406.58,51l6.47-6.46a1.11,1.11,0,1,1,1.57,1.57Z"/></clipPath><clipPath id="clip-path-43"><path class="cls-1" d="M316.5,186.22a1,1,0,1,1,0-1.92h20.89a1,1,0,1,1,0,1.92Z"/></clipPath><clipPath id="clip-path-44"><path class="cls-1" d="M381.69,186.85a1.14,1.14,0,0,1,0-2.28h5.58a1.14,1.14,0,1,1,0,2.28Z"/></clipPath><clipPath id="clip-path-45"><path class="cls-1" d="M398,186.39a1,1,0,0,1,0-2.09h24.86a1,1,0,1,1,0,2.09Z"/></clipPath><clipPath id="clip-path-46"><path class="cls-1" d="M367.53,208.23H354.67a11.88,11.88,0,0,1-11.88-11.88V171.48a1.1,1.1,0,0,1,1.1-1.1h34.42a1.11,1.11,0,0,1,1.11,1.1v24.87A11.89,11.89,0,0,1,367.53,208.23ZM345,196.35a9.67,9.67,0,0,0,9.67,9.67h12.86a9.68,9.68,0,0,0,9.68-9.67V172.59H345Z"/></clipPath><clipPath id="clip-path-47"><path class="cls-1" d="M381.69,178.24a1.14,1.14,0,1,1,0-2.28h2.77a9.69,9.69,0,0,1,0,19.38h-2.77a1.14,1.14,0,1,1,0-2.28h2.77a7.41,7.41,0,1,0,0-14.82Z"/></clipPath><clipPath id="clip-path-48"><path class="cls-1" d="M343.89,212.45a1.11,1.11,0,0,1,0-2.21h34.42a1.11,1.11,0,1,1,0,2.21Z"/></clipPath><clipPath id="clip-path-49"><path class="cls-2" d="M174.89,97.38l47,104.32H132.17V105.13s-.81-7.75,7.75-7.75Z"/></clipPath><clipPath id="clip-path-50"><path class="cls-2" d="M322.83,206.81H135.11c-7.35,0-7-2.18-8-3.69a10.68,10.68,0,0,1-.59-1.42h-9.27a12.5,12.5,0,0,0,1,5.11c3,6.95,12,7.11,12,7.11H308.29c9.16,0,13-3.76,14.54-7.11"/></clipPath><clipPath id="clip-path-51"><path class="cls-3" d="M236.87,206.81h-32.6a5.11,5.11,0,0,1-5.11-5.11H242a5.11,5.11,0,0,1-5.11,5.11"/></clipPath><clipPath id="clip-path-52"><path class="cls-3" d="M242,140.74a15.87,15.87,0,0,0-3.88-1.15,4,4,0,0,1-1.56-.56,1.39,1.39,0,0,1-.69-1.2,1.35,1.35,0,0,1,.58-1.16,2.23,2.23,0,0,1,1.37-.4,2.51,2.51,0,0,1,1.37.35,3.35,3.35,0,0,1,.4.31c.15.13.35.28.57.44a1.34,1.34,0,0,0,.81.23,1.77,1.77,0,0,0,1.39-1,3.18,3.18,0,0,0,.67-1.39c0-.17-.12-.48-.69-1l-.1-.07-.29-.25a5.72,5.72,0,0,0-.9-.51,6.77,6.77,0,0,0-1.48-.49.18.18,0,0,1-.14-.17v-1.66a9.77,9.77,0,0,0-.05-1.1,1,1,0,0,0-.41-.62,1.65,1.65,0,0,0-1.09-.31c-.77,0-1.25.21-1.42.61a4.47,4.47,0,0,0-.16,1.39v1.67a.17.17,0,0,1-.14.16,5,5,0,0,0-3,1.78,4.86,4.86,0,0,0-1.1,3.1,4.77,4.77,0,0,0,.8,2.84,4.47,4.47,0,0,0,2,1.58,17.76,17.76,0,0,0,2.35.75,12.22,12.22,0,0,1,2,.64,1.3,1.3,0,0,1,.93,1.17c0,.9-.41,2-2.37,2a2.84,2.84,0,0,1-2.21-1.19c-.93-.93-1.45-1.13-1.72-1.13a1.66,1.66,0,0,0-1.15.52c-.79.77-1,1.21-1,1.45a2.24,2.24,0,0,0,.58,1.29l.39.51a6.19,6.19,0,0,0,1.32,1.06,6.51,6.51,0,0,0,2.15.86.18.18,0,0,1,.13.17v1.84a4,4,0,0,0,.19,1.45.75.75,0,0,0,.43.44,2.56,2.56,0,0,0,.93.14,2.52,2.52,0,0,0,.93-.14.87.87,0,0,0,.48-.48,3.86,3.86,0,0,0,.17-1.38v-1.9a.16.16,0,0,1,.13-.16,6.36,6.36,0,0,0,3.16-1.8,5.69,5.69,0,0,0,.7-6.13,3.43,3.43,0,0,0-1.42-1.41"/></clipPath><clipPath id="clip-path-53"><path class="cls-3" d="M258.29,140.74a15.87,15.87,0,0,0-3.88-1.15,4,4,0,0,1-1.56-.56,1.39,1.39,0,0,1-.69-1.2,1.37,1.37,0,0,1,.57-1.16,2.28,2.28,0,0,1,1.38-.4,2.51,2.51,0,0,1,1.37.35,3.35,3.35,0,0,1,.4.31c.15.13.35.28.57.44a1.41,1.41,0,0,0,.81.23,1.77,1.77,0,0,0,1.39-1,3.18,3.18,0,0,0,.67-1.39c0-.17-.12-.48-.69-1l-.11-.07-.28-.25a6,6,0,0,0-.91-.51,6.51,6.51,0,0,0-1.47-.49.18.18,0,0,1-.14-.17v-1.66a9.77,9.77,0,0,0-.05-1.1,1,1,0,0,0-.41-.62,1.65,1.65,0,0,0-1.09-.31c-.77,0-1.25.21-1.42.61a4.18,4.18,0,0,0-.16,1.39v1.67a.17.17,0,0,1-.14.16,5,5,0,0,0-3,1.78,4.86,4.86,0,0,0-1.1,3.1,4.77,4.77,0,0,0,.8,2.84,4.47,4.47,0,0,0,2,1.58,17.76,17.76,0,0,0,2.35.75,11.79,11.79,0,0,1,2,.64,1.29,1.29,0,0,1,.94,1.17c0,.9-.41,2-2.37,2a2.84,2.84,0,0,1-2.21-1.19c-.93-.93-1.45-1.13-1.72-1.13a1.66,1.66,0,0,0-1.15.52c-.79.77-.95,1.21-.95,1.45a2.24,2.24,0,0,0,.58,1.29l.39.51a6.19,6.19,0,0,0,1.32,1.06,6.51,6.51,0,0,0,2.15.86.18.18,0,0,1,.13.17v1.84a4,4,0,0,0,.19,1.45.75.75,0,0,0,.43.44,2.56,2.56,0,0,0,.93.14,2.52,2.52,0,0,0,.93-.14.87.87,0,0,0,.48-.48,3.86,3.86,0,0,0,.17-1.38v-1.9a.16.16,0,0,1,.13-.16,6.36,6.36,0,0,0,3.16-1.8,5.69,5.69,0,0,0,.7-6.13,3.43,3.43,0,0,0-1.42-1.41"/></clipPath><clipPath id="clip-path-54"><path class="cls-3" d="M276,142.15h0a3.39,3.39,0,0,0-1.43-1.41,15.63,15.63,0,0,0-3.87-1.15,4,4,0,0,1-1.56-.56,1.39,1.39,0,0,1-.69-1.2,1.37,1.37,0,0,1,.57-1.16,2.28,2.28,0,0,1,1.38-.4,2.51,2.51,0,0,1,1.37.35,4.85,4.85,0,0,1,.4.31c.15.13.35.28.57.44a1.41,1.41,0,0,0,.81.23,1.77,1.77,0,0,0,1.39-1,3.09,3.09,0,0,0,.66-1.39c0-.17-.11-.48-.68-1l-.11-.07-.28-.25a6,6,0,0,0-.91-.51,6.51,6.51,0,0,0-1.47-.49.18.18,0,0,1-.14-.17v-1.66A7.54,7.54,0,0,0,272,130a1,1,0,0,0-.4-.62,1.65,1.65,0,0,0-1.09-.31c-.77,0-1.25.21-1.42.61a4.18,4.18,0,0,0-.16,1.39v1.67a.18.18,0,0,1-.14.16,5.08,5.08,0,0,0-3,1.78,4.91,4.91,0,0,0-1.09,3.1,4.77,4.77,0,0,0,.8,2.84,4.47,4.47,0,0,0,2,1.58,17.76,17.76,0,0,0,2.35.75,11.79,11.79,0,0,1,2,.64,1.29,1.29,0,0,1,.94,1.17c0,.9-.41,2-2.37,2a2.83,2.83,0,0,1-2.21-1.19c-.93-.93-1.45-1.13-1.72-1.13a1.64,1.64,0,0,0-1.15.52c-.79.77-1,1.21-1,1.45a2.27,2.27,0,0,0,.59,1.29l.39.51a5.94,5.94,0,0,0,1.32,1.06,6.54,6.54,0,0,0,2.14.86.18.18,0,0,1,.14.17v1.84a4,4,0,0,0,.19,1.45.75.75,0,0,0,.43.44,3.16,3.16,0,0,0,1.86,0,.9.9,0,0,0,.48-.48,3.86,3.86,0,0,0,.17-1.38v-1.9a.16.16,0,0,1,.13-.16,6.36,6.36,0,0,0,3.16-1.8,5.74,5.74,0,0,0,.7-6.13"/></clipPath><clipPath id="clip-path-55"><path class="cls-3" d="M154.5,151.3a1.76,1.76,0,0,1-1.24-3l27.14-27.14a1.76,1.76,0,0,1,2.49,0l12.27,12.27,9.93-9.94a1.76,1.76,0,0,1,2.49,2.49L196.4,137.16a1.76,1.76,0,0,1-2.49,0l-12.27-12.27-25.9,25.9a1.75,1.75,0,0,1-1.24.51"/></clipPath><clipPath id="clip-path-56"><path class="cls-3" d="M209.46,127.73l1.75-6.54a1.08,1.08,0,0,0-1.33-1.32l-6.54,1.75a1.08,1.08,0,0,0-.48,1.81l4.78,4.79a1.09,1.09,0,0,0,1.82-.49"/></clipPath><clipPath id="clip-path-57"><path class="cls-4" d="M310.72,194.09a1.76,1.76,0,1,1-3.51,0v-89a6,6,0,0,0-6-6H139.92a6,6,0,0,0-6,6v89a1.76,1.76,0,1,1-3.51,0v-89a9.5,9.5,0,0,1,9.5-9.51H301.21a9.51,9.51,0,0,1,9.51,9.51Z"/></clipPath><clipPath id="clip-path-58"><path class="cls-4" d="M144.09,108.37v84.79a1.76,1.76,0,1,1-3.52,0V106.61a1.76,1.76,0,0,1,1.76-1.76H298.81a1.76,1.76,0,0,1,1.76,1.76v86.55a1.76,1.76,0,1,1-3.52,0V108.37Z"/></clipPath><clipPath id="clip-path-59"><path class="cls-4" d="M156.26,181.92a1.76,1.76,0,0,1-3.52,0V157.36a1.76,1.76,0,1,1,3.52,0Z"/></clipPath><clipPath id="clip-path-60"><path class="cls-4" d="M169.79,181.92a1.76,1.76,0,0,1-3.52,0V147.71a1.76,1.76,0,1,1,3.52,0Z"/></clipPath><clipPath id="clip-path-61"><path class="cls-4" d="M183.33,181.92a1.76,1.76,0,0,1-3.52,0v-47.3a1.76,1.76,0,0,1,3.52,0Z"/></clipPath><clipPath id="clip-path-62"><path class="cls-4" d="M196.86,181.92a1.76,1.76,0,0,1-3.52,0V144.55a1.76,1.76,0,0,1,3.52,0Z"/></clipPath><clipPath id="clip-path-63"><path class="cls-4" d="M210.39,181.92a1.76,1.76,0,1,1-3.51,0v-47a1.76,1.76,0,1,1,3.51,0Z"/></clipPath><clipPath id="clip-path-64"><path class="cls-4" d="M284.07,180.16V122.87h-59.7v57.29Zm-61.46,3.52a1.75,1.75,0,0,1-1.75-1.76V121.11a1.75,1.75,0,0,1,1.75-1.76h63.22a1.76,1.76,0,0,1,1.76,1.76v60.81a1.76,1.76,0,0,1-1.76,1.76Z"/></clipPath><clipPath id="clip-path-65"><path class="cls-4" d="M233.09,173.54a1.76,1.76,0,0,1,0-3.52h42.27a1.76,1.76,0,0,1,0,3.52Z"/></clipPath><clipPath id="clip-path-66"><path class="cls-4" d="M233.09,163.4a1.76,1.76,0,1,1,0-3.52h42.27a1.76,1.76,0,0,1,0,3.52Z"/></clipPath><clipPath id="clip-path-67"><path class="cls-4" d="M311.71,215.68H129.43a14,14,0,0,1-14-14,1.75,1.75,0,0,1,1.75-1.76H323.92a1.76,1.76,0,0,1,1.76,1.76A14,14,0,0,1,311.71,215.68Zm-182.28-3.52H311.71a10.47,10.47,0,0,0,10.31-8.7H119.12A10.47,10.47,0,0,0,129.43,212.16Z"/></clipPath></defs><g id="Background"><path class="cls-1" d="M430.22,240.09H12.65a1,1,0,0,1,0-2H430.22a1,1,0,0,1,0,2Z"/><path class="cls-1" d="M78.6,186.22a1,1,0,1,1,0-1.92h46a1,1,0,1,1,0,1.92Z"/><g class="cls-5"><rect class="cls-1" x="73.05" y="180.45" width="57.12" height="9.62"/></g><path class="cls-1" d="M99.38,49.48H15.1a1.13,1.13,0,0,1,0-2.25h85.41a1.12,1.12,0,0,1,1.12,1.12V113a1.12,1.12,0,0,1-1.12,1.12H15.27a1.12,1.12,0,1,1,0-2.24H99.38Z"/><g class="cls-6"><rect class="cls-1" x="9.45" y="42.7" width="96.7" height="75.94"/></g><path class="cls-1" d="M106.16,42.7H15.27a1.12,1.12,0,0,1,0-2.24h92a1.12,1.12,0,0,1,1.12,1.12v78.19a1.12,1.12,0,0,1-1.12,1.12h-92a1.12,1.12,0,1,1,0-2.24h90.89Z"/><g class="cls-7"><rect class="cls-1" x="9.62" y="35.93" width="103.31" height="89.49"/></g><path class="cls-1" d="M85.16,66H15.27a1.12,1.12,0,1,1,0-2.24h71a1.12,1.12,0,0,1,1.12,1.12V96.43a1.12,1.12,0,0,1-1.12,1.12h-71a1.13,1.13,0,0,1,0-2.25H85.16Z"/><g class="cls-8"><rect class="cls-1" x="9.62" y="59.27" width="82.32" height="42.81"/></g><path class="cls-1" d="M68.36,35.78a1.13,1.13,0,0,1,.06,1.59,1.12,1.12,0,0,1-1.58.06L45.72,18a1.12,1.12,0,0,1,1.52-1.65Z"/><g class="cls-9"><rect class="cls-1" x="40.83" y="11.47" width="32.41" height="30.78"/></g><path class="cls-1" d="M26.13,37.43a1.13,1.13,0,0,1-1.53-1.65L45.72,16.3A1.12,1.12,0,1,1,47.24,18Z"/><g class="cls-10"><rect class="cls-1" x="19.72" y="11.47" width="32.41" height="30.78"/></g><path class="cls-1" d="M16.31,211.74h23.1V132.1H16.31ZM15.19,214a1.13,1.13,0,0,1-1.13-1.12V131a1.13,1.13,0,0,1,1.13-1.12H40.53A1.13,1.13,0,0,1,41.66,131v81.89A1.13,1.13,0,0,1,40.53,214Z"/><g class="cls-11"><rect class="cls-1" x="9.54" y="125.33" width="36.64" height="93.18"/></g><path class="cls-1" d="M70.7,211.74V132.1H47.6v79.64ZM46.48,214a1.12,1.12,0,0,1-1.12-1.12V131a1.12,1.12,0,0,1,1.12-1.12H71.83A1.12,1.12,0,0,1,73,131v81.89A1.12,1.12,0,0,1,71.83,214Z"/><g class="cls-12"><rect class="cls-1" x="40.83" y="125.33" width="36.64" height="93.18"/></g><path class="cls-1" d="M33.2,200.61a5.34,5.34,0,1,1-5.34-5.33A5.34,5.34,0,0,1,33.2,200.61Zm-2.25,0a3.09,3.09,0,1,0-3.09,3.09A3.09,3.09,0,0,0,31,200.61Z"/><g class="cls-13"><rect class="cls-1" x="18" y="190.75" width="19.72" height="19.72"/></g><path class="cls-1" d="M64.49,200.61a5.34,5.34,0,1,1-5.34-5.33A5.34,5.34,0,0,1,64.49,200.61Zm-2.25,0a3.09,3.09,0,1,0-3.09,3.09A3.09,3.09,0,0,0,62.24,200.61Z"/><g class="cls-14"><rect class="cls-1" x="49.29" y="190.75" width="19.72" height="19.72"/></g><path class="cls-1" d="M21.83,185.28a1.13,1.13,0,1,1,0-2.25H33.9a1.13,1.13,0,0,1,0,2.25Z"/><g class="cls-15"><rect class="cls-1" x="16.18" y="178.51" width="23.37" height="11.3"/></g><path class="cls-1" d="M24.09,189.73a1.12,1.12,0,1,1,0-2.24h7.54a1.12,1.12,0,1,1,0,2.24Z"/><g class="cls-16"><rect class="cls-1" x="18.44" y="182.96" width="18.84" height="11.3"/></g><path class="cls-1" d="M53.12,185.28a1.13,1.13,0,0,1,0-2.25H65.19a1.13,1.13,0,0,1,0,2.25Z"/><g class="cls-17"><rect class="cls-1" x="47.47" y="178.51" width="23.37" height="11.3"/></g><path class="cls-1" d="M55.38,189.73a1.12,1.12,0,1,1,0-2.24h7.55a1.12,1.12,0,0,1,0,2.24Z"/><g class="cls-18"><rect class="cls-1" x="49.73" y="182.96" width="18.84" height="11.3"/></g><path class="cls-1" d="M219.19,30.42a1.09,1.09,0,1,1,2.17,0V49.25a1.14,1.14,0,0,1-.28.74L210.72,61.23a1.09,1.09,0,0,1-1.54.06,1.08,1.08,0,0,1-.06-1.53l10.07-10.94Z"/><g class="cls-19"><rect class="cls-1" x="204.44" y="24.94" width="21.31" height="41.03"/></g><path class="cls-1" d="M245.92,49.25a25.65,25.65,0,1,1-25.64-25.64A25.64,25.64,0,0,1,245.92,49.25Zm-2.18,0a23.47,23.47,0,1,0-23.46,23.46A23.47,23.47,0,0,0,243.74,49.25Z"/><g class="cls-20"><rect class="cls-1" x="190.25" y="19.22" width="60.06" height="60.06"/></g><path class="cls-1" d="M251.49,49.25A31.22,31.22,0,1,1,220.28,18,31.21,31.21,0,0,1,251.49,49.25Zm-2.17,0a29,29,0,1,0-29,29A29,29,0,0,0,249.32,49.25Z"/><g class="cls-21"><rect class="cls-1" x="184.67" y="13.64" width="71.21" height="71.21"/></g><path class="cls-1" d="M316.83,106.72a1,1,0,1,1,0-2h106a1,1,0,1,1,0,2Z"/><g class="cls-22"><rect class="cls-1" x="311.2" y="100.69" width="117.23" height="10.06"/></g><path class="cls-1" d="M312.59,96.6a1,1,0,1,1,0-2H422.78a1,1,0,1,1,0,2Z"/><g class="cls-23"><rect class="cls-1" x="306.86" y="90.56" width="121.64" height="10.06"/></g><path class="cls-1" d="M346.19,36.36h-6.88a1.57,1.57,0,0,0-1.57,1.57V88a1.57,1.57,0,0,0,1.57,1.57h6.88A1.57,1.57,0,0,0,347.76,88V37.93A1.57,1.57,0,0,0,346.19,36.36Zm0-2.22A3.79,3.79,0,0,1,350,37.93V88a3.79,3.79,0,0,1-3.79,3.79h-6.88a3.8,3.8,0,0,1-3.8-3.79V37.93a3.8,3.8,0,0,1,3.8-3.79Z"/><g class="cls-24"><rect class="cls-1" x="331.03" y="29.66" width="23.43" height="66.6"/></g><path class="cls-1" d="M340.51,61.52a1.11,1.11,0,0,1,0-2.22H345a1.11,1.11,0,1,1,0,2.22Z"/><g class="cls-25"><rect class="cls-1" x="334.92" y="54.82" width="15.66" height="11.18"/></g><path class="cls-1" d="M340.51,66.53a1.11,1.11,0,0,1,0-2.22H345a1.11,1.11,0,1,1,0,2.22Z"/><g class="cls-26"><rect class="cls-1" x="334.92" y="59.83" width="15.66" height="11.18"/></g><path class="cls-1" d="M356.77,38.53a1.58,1.58,0,0,0-1,2l14.66,47.86a1.57,1.57,0,0,0,2,1l6.58-2a1.58,1.58,0,0,0,1-2L365.32,37.56a1.58,1.58,0,0,0-2-1Zm5.93-4.14a3.8,3.8,0,0,1,4.74,2.52L382.1,84.77a3.8,3.8,0,0,1-2.52,4.74l-6.58,2A3.79,3.79,0,0,1,368.26,89L353.61,41.15a3.79,3.79,0,0,1,2.51-4.74Z"/><g class="cls-27"><rect class="cls-1" x="348.96" y="29.75" width="37.79" height="66.43"/></g><path class="cls-1" d="M365.29,62.24a1.11,1.11,0,1,1-.65-2.12l4.28-1.31a1.11,1.11,0,1,1,.65,2.12Z"/><g class="cls-28"><rect class="cls-1" x="359.37" y="54.28" width="15.47" height="12.5"/></g><path class="cls-1" d="M366.76,67a1.11,1.11,0,1,1-.65-2.12l4.28-1.31a1.11,1.11,0,1,1,.65,2.12Z"/><g class="cls-29"><rect class="cls-1" x="360.84" y="59.07" width="15.47" height="12.5"/></g><path class="cls-1" d="M329.28,36.36H322.4a1.57,1.57,0,0,0-1.58,1.57V88a1.58,1.58,0,0,0,1.58,1.57h6.88A1.58,1.58,0,0,0,330.85,88V37.93A1.57,1.57,0,0,0,329.28,36.36Zm0-2.22a3.79,3.79,0,0,1,3.79,3.79V88a3.79,3.79,0,0,1-3.79,3.79H322.4A3.8,3.8,0,0,1,318.6,88V37.93a3.8,3.8,0,0,1,3.8-3.79Z"/><g class="cls-30"><rect class="cls-1" x="314.12" y="29.66" width="23.43" height="66.6"/></g><path class="cls-1" d="M323.6,61.52a1.11,1.11,0,0,1,0-2.22h4.48a1.11,1.11,0,1,1,0,2.22Z"/><g class="cls-31"><rect class="cls-1" x="318.01" y="54.82" width="15.66" height="11.18"/></g><path class="cls-1" d="M323.6,66.53a1.11,1.11,0,0,1,0-2.22h4.48a1.11,1.11,0,1,1,0,2.22Z"/><g class="cls-32"><rect class="cls-1" x="318.01" y="59.83" width="15.66" height="11.18"/></g><path class="cls-1" d="M295.57,36.36h-6.88a1.57,1.57,0,0,0-1.57,1.57V88a1.57,1.57,0,0,0,1.57,1.57h6.88A1.57,1.57,0,0,0,297.14,88V37.93A1.57,1.57,0,0,0,295.57,36.36Zm0-2.22a3.79,3.79,0,0,1,3.79,3.79V88a3.79,3.79,0,0,1-3.79,3.79h-6.88A3.79,3.79,0,0,1,284.9,88V37.93a3.79,3.79,0,0,1,3.79-3.79Z"/><g class="cls-33"><rect class="cls-1" x="280.42" y="29.66" width="23.43" height="66.6"/></g><path class="cls-1" d="M312.37,36.36h-6.88a1.57,1.57,0,0,0-1.58,1.57V88a1.58,1.58,0,0,0,1.58,1.57h6.88A1.58,1.58,0,0,0,313.94,88V37.93A1.57,1.57,0,0,0,312.37,36.36Zm0-2.22a3.79,3.79,0,0,1,3.79,3.79V88a3.79,3.79,0,0,1-3.79,3.79h-6.88a3.8,3.8,0,0,1-3.8-3.79V37.93a3.8,3.8,0,0,1,3.8-3.79Z"/><g class="cls-34"><rect class="cls-1" x="297.21" y="29.66" width="23.43" height="66.6"/></g><path class="cls-1" d="M289.89,61.52a1.11,1.11,0,0,1,0-2.22h4.48a1.11,1.11,0,1,1,0,2.22Z"/><g class="cls-35"><rect class="cls-1" x="284.3" y="54.82" width="15.66" height="11.18"/></g><path class="cls-1" d="M289.89,66.53a1.11,1.11,0,0,1,0-2.22h4.48a1.11,1.11,0,1,1,0,2.22Z"/><g class="cls-36"><rect class="cls-1" x="284.3" y="59.83" width="15.66" height="11.18"/></g><path class="cls-1" d="M306.69,61.52a1.11,1.11,0,1,1,0-2.22h4.48a1.11,1.11,0,1,1,0,2.22Z"/><g class="cls-37"><rect class="cls-1" x="301.09" y="54.82" width="15.66" height="11.18"/></g><path class="cls-1" d="M306.69,66.53a1.11,1.11,0,1,1,0-2.22h4.48a1.11,1.11,0,1,1,0,2.22Z"/><g class="cls-38"><rect class="cls-1" x="301.09" y="59.83" width="15.66" height="11.18"/></g><path class="cls-1" d="M421.69,68.85V61.43H392.31v7.42ZM391.2,71.07A1.11,1.11,0,0,1,390.09,70V60.32a1.11,1.11,0,0,1,1.11-1.11h31.61a1.11,1.11,0,0,1,1.11,1.11V70a1.11,1.11,0,0,1-1.11,1.11Z"/><g class="cls-39"><rect class="cls-1" x="385.61" y="54.72" width="42.79" height="20.82"/></g><path class="cls-1" d="M392.8,70.1a1.11,1.11,0,0,1,2.2-.29l2.69,20.4a1.11,1.11,0,1,1-2.2.29Z"/><g class="cls-40"><rect class="cls-1" x="388.31" y="64.37" width="13.87" height="31.58"/></g><path class="cls-1" d="M419,69.81a1.11,1.11,0,0,1,2.21.29l-2.69,20.4a1.11,1.11,0,0,1-2.21-.29Z"/><g class="cls-41"><rect class="cls-1" x="411.82" y="64.37" width="13.87" height="31.58"/></g><path class="cls-1" d="M408.11,56.24a1.11,1.11,0,1,1-2.22,0V27.62a1.11,1.11,0,0,1,2.22,0Z"/><g class="cls-42"><rect class="cls-1" x="401.41" y="22.03" width="11.18" height="39.8"/></g><path class="cls-1" d="M403.13,33.41a9.38,9.38,0,0,0-8.5-2.58,9.42,9.42,0,0,0,11.08,11.08A9.38,9.38,0,0,0,403.13,33.41Zm1.58-1.58a11.66,11.66,0,0,1,3,11.29,1.11,1.11,0,0,1-.79.78,11.63,11.63,0,0,1-14.28-14.28,1.13,1.13,0,0,1,.78-.79A11.66,11.66,0,0,1,404.71,31.83Z"/><g class="cls-43"><rect class="cls-1" x="387.75" y="23.95" width="24.84" height="24.84"/></g><path class="cls-1" d="M407.42,42a1.13,1.13,0,0,1,0,1.58,1.12,1.12,0,0,1-1.57,0l-6.46-6.47a1.1,1.1,0,0,1,0-1.57,1.12,1.12,0,0,1,1.57,0Z"/><g class="cls-44"><rect class="cls-1" x="394.58" y="30.78" width="17.64" height="17.64"/></g><path class="cls-1" d="M409.3,40.79a11.61,11.61,0,0,1,11.28-3,1.13,1.13,0,0,1,.79.78,11.64,11.64,0,0,1-14.29,14.28,1.1,1.1,0,0,1-.78-.78A11.63,11.63,0,0,1,409.3,40.79Zm1.57,1.58a9.41,9.41,0,0,0-2.58,8.5,9.42,9.42,0,0,0,11.08-11.08A9.4,9.4,0,0,0,410.87,42.37Z"/><g class="cls-45"><rect class="cls-1" x="401.41" y="32.91" width="24.84" height="24.84"/></g><path class="cls-1" d="M408.16,52.58A1.12,1.12,0,0,1,406.58,51l6.47-6.46a1.11,1.11,0,1,1,1.57,1.57Z"/><g class="cls-46"><rect class="cls-1" x="401.78" y="39.74" width="17.64" height="17.64"/></g><path class="cls-1" d="M316.5,186.22a1,1,0,1,1,0-1.92h20.89a1,1,0,1,1,0,1.92Z"/><g class="cls-47"><rect class="cls-1" x="310.99" y="180.45" width="31.91" height="9.62"/></g><path class="cls-1" d="M381.69,186.85a1.14,1.14,0,0,1,0-2.28h5.58a1.14,1.14,0,1,1,0,2.28Z"/><g class="cls-48"><rect class="cls-1" x="375.97" y="179.98" width="17.03" height="11.45"/></g><path class="cls-1" d="M398,186.39a1,1,0,0,1,0-2.09h24.86a1,1,0,1,1,0,2.09Z"/><g class="cls-49"><rect class="cls-1" x="392.76" y="180.09" width="35.37" height="10.52"/></g><path class="cls-1" d="M367.53,208.23H354.67a11.88,11.88,0,0,1-11.88-11.88V171.48a1.1,1.1,0,0,1,1.1-1.1h34.42a1.11,1.11,0,0,1,1.11,1.1v24.87A11.89,11.89,0,0,1,367.53,208.23ZM345,196.35a9.67,9.67,0,0,0,9.67,9.67h12.86a9.68,9.68,0,0,0,9.68-9.67V172.59H345Z"/><g class="cls-50"><rect class="cls-1" x="338.33" y="165.93" width="45.54" height="46.76"/></g><path class="cls-1" d="M381.69,178.24a1.14,1.14,0,1,1,0-2.28h2.77a9.69,9.69,0,0,1,0,19.38h-2.77a1.14,1.14,0,1,1,0-2.28h2.77a7.41,7.41,0,1,0,0-14.82Z"/><g class="cls-51"><rect class="cls-1" x="375.97" y="171.37" width="22.76" height="28.55"/></g><path class="cls-1" d="M343.89,212.45a1.11,1.11,0,0,1,0-2.21h34.42a1.11,1.11,0,1,1,0,2.21Z"/><g class="cls-52"><rect class="cls-1" x="338.33" y="205.79" width="45.54" height="11.12"/></g></g><g id="Fill"><path class="cls-53" d="M174.89,97.38l47,104.32H132.17V105.13s-.81-7.75,7.75-7.75Z"/><g class="cls-54"><rect class="cls-55" x="130.36" y="92.18" width="97.4" height="113.96"/></g><path class="cls-53" d="M322.83,206.81H135.11c-7.35,0-7-2.18-8-3.69a10.68,10.68,0,0,1-.59-1.42h-9.27a12.5,12.5,0,0,0,1,5.11c3,6.95,12,7.11,12,7.11H308.29c9.16,0,13-3.76,14.54-7.11"/><g class="cls-56"><rect class="cls-55" x="115.62" y="197.07" width="211.77" height="21.36"/></g></g><g id="Outlines"><path class="cls-57" d="M236.87,206.81h-32.6a5.11,5.11,0,0,1-5.11-5.11H242a5.11,5.11,0,0,1-5.11,5.11"/><g class="cls-58"><rect class="cls-4" x="196.46" y="197.07" width="51.15" height="14.21"/></g><path class="cls-57" d="M242,140.74a15.87,15.87,0,0,0-3.88-1.15,4,4,0,0,1-1.56-.56,1.39,1.39,0,0,1-.69-1.2,1.35,1.35,0,0,1,.58-1.16,2.23,2.23,0,0,1,1.37-.4,2.51,2.51,0,0,1,1.37.35,3.35,3.35,0,0,1,.4.31c.15.13.35.28.57.44a1.34,1.34,0,0,0,.81.23,1.77,1.77,0,0,0,1.39-1,3.18,3.18,0,0,0,.67-1.39c0-.17-.12-.48-.69-1l-.1-.07-.29-.25a5.72,5.72,0,0,0-.9-.51,6.77,6.77,0,0,0-1.48-.49.18.18,0,0,1-.14-.17v-1.66a9.77,9.77,0,0,0-.05-1.1,1,1,0,0,0-.41-.62,1.65,1.65,0,0,0-1.09-.31c-.77,0-1.25.21-1.42.61a4.47,4.47,0,0,0-.16,1.39v1.67a.17.17,0,0,1-.14.16,5,5,0,0,0-3,1.78,4.86,4.86,0,0,0-1.1,3.1,4.77,4.77,0,0,0,.8,2.84,4.47,4.47,0,0,0,2,1.58,17.76,17.76,0,0,0,2.35.75,12.22,12.22,0,0,1,2,.64,1.3,1.3,0,0,1,.93,1.17c0,.9-.41,2-2.37,2a2.84,2.84,0,0,1-2.21-1.19c-.93-.93-1.45-1.13-1.72-1.13a1.66,1.66,0,0,0-1.15.52c-.79.77-1,1.21-1,1.45a2.24,2.24,0,0,0,.58,1.29l.39.51a6.19,6.19,0,0,0,1.32,1.06,6.51,6.51,0,0,0,2.15.86.18.18,0,0,1,.13.17v1.84a4,4,0,0,0,.19,1.45.75.75,0,0,0,.43.44,2.56,2.56,0,0,0,.93.14,2.52,2.52,0,0,0,.93-.14.87.87,0,0,0,.48-.48,3.86,3.86,0,0,0,.17-1.38v-1.9a.16.16,0,0,1,.13-.16,6.36,6.36,0,0,0,3.16-1.8,5.69,5.69,0,0,0,.7-6.13,3.43,3.43,0,0,0-1.42-1.41"/><g class="cls-59"><rect class="cls-4" x="228.56" y="124.04" width="21.02" height="34.28"/></g><path class="cls-57" d="M258.29,140.74a15.87,15.87,0,0,0-3.88-1.15,4,4,0,0,1-1.56-.56,1.39,1.39,0,0,1-.69-1.2,1.37,1.37,0,0,1,.57-1.16,2.28,2.28,0,0,1,1.38-.4,2.51,2.51,0,0,1,1.37.35,3.35,3.35,0,0,1,.4.31c.15.13.35.28.57.44a1.41,1.41,0,0,0,.81.23,1.77,1.77,0,0,0,1.39-1,3.18,3.18,0,0,0,.67-1.39c0-.17-.12-.48-.69-1l-.11-.07-.28-.25a6,6,0,0,0-.91-.51,6.51,6.51,0,0,0-1.47-.49.18.18,0,0,1-.14-.17v-1.66a9.77,9.77,0,0,0-.05-1.1,1,1,0,0,0-.41-.62,1.65,1.65,0,0,0-1.09-.31c-.77,0-1.25.21-1.42.61a4.18,4.18,0,0,0-.16,1.39v1.67a.17.17,0,0,1-.14.16,5,5,0,0,0-3,1.78,4.86,4.86,0,0,0-1.1,3.1,4.77,4.77,0,0,0,.8,2.84,4.47,4.47,0,0,0,2,1.58,17.76,17.76,0,0,0,2.35.75,11.79,11.79,0,0,1,2,.64,1.29,1.29,0,0,1,.94,1.17c0,.9-.41,2-2.37,2a2.84,2.84,0,0,1-2.21-1.19c-.93-.93-1.45-1.13-1.72-1.13a1.66,1.66,0,0,0-1.15.52c-.79.77-.95,1.21-.95,1.45a2.24,2.24,0,0,0,.58,1.29l.39.51a6.19,6.19,0,0,0,1.32,1.06,6.51,6.51,0,0,0,2.15.86.18.18,0,0,1,.13.17v1.84a4,4,0,0,0,.19,1.45.75.75,0,0,0,.43.44,2.56,2.56,0,0,0,.93.14,2.52,2.52,0,0,0,.93-.14.87.87,0,0,0,.48-.48,3.86,3.86,0,0,0,.17-1.38v-1.9a.16.16,0,0,1,.13-.16,6.36,6.36,0,0,0,3.16-1.8,5.69,5.69,0,0,0,.7-6.13,3.43,3.43,0,0,0-1.42-1.41"/><g class="cls-60"><rect class="cls-4" x="244.66" y="124.04" width="21.02" height="34.28"/></g><path class="cls-57" d="M276,142.15h0a3.39,3.39,0,0,0-1.43-1.41,15.63,15.63,0,0,0-3.87-1.15,4,4,0,0,1-1.56-.56,1.39,1.39,0,0,1-.69-1.2,1.37,1.37,0,0,1,.57-1.16,2.28,2.28,0,0,1,1.38-.4,2.51,2.51,0,0,1,1.37.35,4.85,4.85,0,0,1,.4.31c.15.13.35.28.57.44a1.41,1.41,0,0,0,.81.23,1.77,1.77,0,0,0,1.39-1,3.09,3.09,0,0,0,.66-1.39c0-.17-.11-.48-.68-1l-.11-.07-.28-.25a6,6,0,0,0-.91-.51,6.51,6.51,0,0,0-1.47-.49.18.18,0,0,1-.14-.17v-1.66A7.54,7.54,0,0,0,272,130a1,1,0,0,0-.4-.62,1.65,1.65,0,0,0-1.09-.31c-.77,0-1.25.21-1.42.61a4.18,4.18,0,0,0-.16,1.39v1.67a.18.18,0,0,1-.14.16,5.08,5.08,0,0,0-3,1.78,4.91,4.91,0,0,0-1.09,3.1,4.77,4.77,0,0,0,.8,2.84,4.47,4.47,0,0,0,2,1.58,17.76,17.76,0,0,0,2.35.75,11.79,11.79,0,0,1,2,.64,1.29,1.29,0,0,1,.94,1.17c0,.9-.41,2-2.37,2a2.83,2.83,0,0,1-2.21-1.19c-.93-.93-1.45-1.13-1.72-1.13a1.64,1.64,0,0,0-1.15.52c-.79.77-1,1.21-1,1.45a2.27,2.27,0,0,0,.59,1.29l.39.51a5.94,5.94,0,0,0,1.32,1.06,6.54,6.54,0,0,0,2.14.86.18.18,0,0,1,.14.17v1.84a4,4,0,0,0,.19,1.45.75.75,0,0,0,.43.44,3.16,3.16,0,0,0,1.86,0,.9.9,0,0,0,.48-.48,3.86,3.86,0,0,0,.17-1.38v-1.9a.16.16,0,0,1,.13-.16,6.36,6.36,0,0,0,3.16-1.8,5.74,5.74,0,0,0,.7-6.13"/><g class="cls-61"><rect class="cls-4" x="260.77" y="124.04" width="21.02" height="34.28"/></g><path class="cls-57" d="M154.5,151.3a1.76,1.76,0,0,1-1.24-3l27.14-27.14a1.76,1.76,0,0,1,2.49,0l12.27,12.27,9.93-9.94a1.76,1.76,0,0,1,2.49,2.49L196.4,137.16a1.76,1.76,0,0,1-2.49,0l-12.27-12.27-25.9,25.9a1.75,1.75,0,0,1-1.24.51"/><g class="cls-62"><rect class="cls-4" x="150.67" y="115.57" width="63.52" height="39.9"/></g><path class="cls-57" d="M209.46,127.73l1.75-6.54a1.08,1.08,0,0,0-1.33-1.32l-6.54,1.75a1.08,1.08,0,0,0-.48,1.81l4.78,4.79a1.09,1.09,0,0,0,1.82-.49"/><g class="cls-63"><rect class="cls-4" x="199.8" y="114.75" width="17.49" height="17.83"/></g><path class="cls-4" d="M310.72,194.09a1.76,1.76,0,1,1-3.51,0v-89a6,6,0,0,0-6-6H139.92a6,6,0,0,0-6,6v89a1.76,1.76,0,1,1-3.51,0v-89a9.5,9.5,0,0,1,9.5-9.51H301.21a9.51,9.51,0,0,1,9.51,9.51Z"/><g class="cls-64"><rect class="cls-4" x="128.64" y="90.42" width="186.8" height="109.84"/></g><path class="cls-4" d="M144.09,108.37v84.79a1.76,1.76,0,1,1-3.52,0V106.61a1.76,1.76,0,0,1,1.76-1.76H298.81a1.76,1.76,0,0,1,1.76,1.76v86.55a1.76,1.76,0,1,1-3.52,0V108.37Z"/><g class="cls-65"><rect class="cls-4" x="138.66" y="99.69" width="166.76" height="99.63"/></g><path class="cls-4" d="M156.26,181.92a1.76,1.76,0,0,1-3.52,0V157.36a1.76,1.76,0,1,1,3.52,0Z"/><g class="cls-66"><rect class="cls-4" x="150.67" y="150.71" width="12.38" height="37.3"/></g><path class="cls-4" d="M169.79,181.92a1.76,1.76,0,0,1-3.52,0V147.71a1.76,1.76,0,1,1,3.52,0Z"/><g class="cls-67"><rect class="cls-4" x="164.02" y="141.01" width="12.38" height="47"/></g><path class="cls-4" d="M183.33,181.92a1.76,1.76,0,0,1-3.52,0v-47.3a1.76,1.76,0,0,1,3.52,0Z"/><g class="cls-68"><rect class="cls-4" x="177.37" y="127.86" width="12.38" height="60.16"/></g><path class="cls-4" d="M196.86,181.92a1.76,1.76,0,0,1-3.52,0V144.55a1.76,1.76,0,0,1,3.52,0Z"/><g class="cls-69"><rect class="cls-4" x="190.72" y="137.84" width="12.38" height="50.18"/></g><path class="cls-4" d="M210.39,181.92a1.76,1.76,0,1,1-3.51,0v-47a1.76,1.76,0,1,1,3.51,0Z"/><g class="cls-70"><rect class="cls-4" x="204.08" y="128.11" width="12.38" height="59.91"/></g><path class="cls-4" d="M284.07,180.16V122.87h-59.7v57.29Zm-61.46,3.52a1.75,1.75,0,0,1-1.75-1.76V121.11a1.75,1.75,0,0,1,1.75-1.76h63.22a1.76,1.76,0,0,1,1.76,1.76v60.81a1.76,1.76,0,0,1-1.76,1.76Z"/><g class="cls-71"><rect class="cls-4" x="217.87" y="114.27" width="74.74" height="73.75"/></g><path class="cls-4" d="M233.09,173.54a1.76,1.76,0,0,1,0-3.52h42.27a1.76,1.76,0,0,1,0,3.52Z"/><g class="cls-72"><rect class="cls-4" x="228.2" y="165.21" width="54.08" height="12.61"/></g><path class="cls-4" d="M233.09,163.4a1.76,1.76,0,1,1,0-3.52h42.27a1.76,1.76,0,0,1,0,3.52Z"/><g class="cls-73"><rect class="cls-4" x="228.2" y="155.02" width="54.08" height="12.61"/></g><path class="cls-4" d="M311.71,215.68H129.43a14,14,0,0,1-14-14,1.75,1.75,0,0,1,1.75-1.76H323.92a1.76,1.76,0,0,1,1.76,1.76A14,14,0,0,1,311.71,215.68Zm-182.28-3.52H311.71a10.47,10.47,0,0,0,10.31-8.7H119.12A10.47,10.47,0,0,0,129.43,212.16Z"/><g class="cls-74"><rect class="cls-4" x="113.88" y="195.3" width="216.32" height="24.89"/></g></g></svg> 