<svg xmlns="http://www.w3.org/2000/svg" xmlns:xlink="http://www.w3.org/1999/xlink" viewBox="0 0 441 253"><defs><style>.cls-1{fill:#f3dea7;}.cls-2{fill:#fcf4e3;}.cls-3{clip-path:url(#clip-path);}.cls-4{clip-path:url(#clip-path-2);}.cls-5{clip-path:url(#clip-path-3);}.cls-6{clip-path:url(#clip-path-4);}.cls-7{clip-path:url(#clip-path-5);}.cls-8{clip-path:url(#clip-path-6);}.cls-9{clip-path:url(#clip-path-7);}.cls-10{clip-path:url(#clip-path-8);}.cls-11{clip-path:url(#clip-path-9);}.cls-12{clip-path:url(#clip-path-10);}.cls-13{clip-path:url(#clip-path-11);}.cls-14{clip-path:url(#clip-path-12);}.cls-15{clip-path:url(#clip-path-13);}.cls-16{clip-path:url(#clip-path-14);}.cls-17{clip-path:url(#clip-path-15);}.cls-18{clip-path:url(#clip-path-16);}.cls-19{clip-path:url(#clip-path-17);}.cls-20{clip-path:url(#clip-path-18);}.cls-21{clip-path:url(#clip-path-19);}.cls-22{clip-path:url(#clip-path-20);}.cls-23{clip-path:url(#clip-path-21);}.cls-24{clip-path:url(#clip-path-22);}.cls-25{clip-path:url(#clip-path-23);}.cls-26{clip-path:url(#clip-path-24);}.cls-27{clip-path:url(#clip-path-25);}.cls-28{clip-path:url(#clip-path-26);}.cls-29{clip-path:url(#clip-path-27);}.cls-30{clip-path:url(#clip-path-28);}.cls-31{clip-path:url(#clip-path-29);}.cls-32{clip-path:url(#clip-path-30);}.cls-33{clip-path:url(#clip-path-31);}.cls-34{clip-path:url(#clip-path-32);}.cls-35{clip-path:url(#clip-path-33);}.cls-36{clip-path:url(#clip-path-34);}.cls-37{clip-path:url(#clip-path-35);}.cls-38{clip-path:url(#clip-path-36);}.cls-39{clip-path:url(#clip-path-37);}.cls-40{clip-path:url(#clip-path-38);}.cls-41{clip-path:url(#clip-path-39);}.cls-42{clip-path:url(#clip-path-40);}.cls-43{clip-path:url(#clip-path-41);}.cls-44{clip-path:url(#clip-path-42);}.cls-45{clip-path:url(#clip-path-43);}.cls-46{clip-path:url(#clip-path-44);}.cls-47{clip-path:url(#clip-path-45);}.cls-48{clip-path:url(#clip-path-46);}.cls-49{clip-path:url(#clip-path-47);}.cls-50{clip-path:url(#clip-path-48);}.cls-51{fill:#edca73;}.cls-52{fill:#333;}</style><clipPath id="clip-path"><path class="cls-1" d="M72.53,199.32a1.17,1.17,0,1,1,0-2.3h58.62a1.17,1.17,0,1,1,0,2.3Z"/></clipPath><clipPath id="clip-path-2"><path class="cls-1" d="M309.34,199.12c-.94,0-1.7-.48-1.7-1.07s.76-1.08,1.7-1.08h32.41c.93,0,1.69.48,1.69,1.08s-.76,1.07-1.69,1.07Z"/></clipPath><clipPath id="clip-path-3"><path class="cls-1" d="M388.6,199.39a1.18,1.18,0,1,1,0-2.35h5.75a1.18,1.18,0,0,1,0,2.35Z"/></clipPath><clipPath id="clip-path-4"><path class="cls-1" d="M404.8,199.39a1.18,1.18,0,1,1,0-2.35h27.91a1.18,1.18,0,0,1,0,2.35Z"/></clipPath><clipPath id="clip-path-5"><path class="cls-1" d="M219.34,36.09a1.18,1.18,0,1,1,2.35,0V56.38a1.25,1.25,0,0,1-.31.8L210.22,69.3a1.18,1.18,0,0,1-1.66.06,1.16,1.16,0,0,1-.07-1.65l10.85-11.79Z"/></clipPath><clipPath id="clip-path-6"><path class="cls-1" d="M248.15,56.38a27.64,27.64,0,1,1-27.64-27.64A27.64,27.64,0,0,1,248.15,56.38Zm-2.35,0a25.29,25.29,0,1,0-25.29,25.29A25.29,25.29,0,0,0,245.8,56.38Z"/></clipPath><clipPath id="clip-path-7"><path class="cls-1" d="M254.16,56.38a33.65,33.65,0,1,1-33.65-33.65A33.65,33.65,0,0,1,254.16,56.38Zm-2.35,0a31.3,31.3,0,1,0-31.3,31.3A31.3,31.3,0,0,0,251.81,56.38Z"/></clipPath><clipPath id="clip-path-8"><path class="cls-1" d="M372.9,222.34H359.24a12.63,12.63,0,0,1-12.62-12.63V183.3a1.17,1.17,0,0,1,1.17-1.17h36.56a1.17,1.17,0,0,1,1.17,1.17v26.41A12.63,12.63,0,0,1,372.9,222.34ZM349,209.71A10.28,10.28,0,0,0,359.24,220H372.9a10.28,10.28,0,0,0,10.28-10.28V184.48H349Z"/></clipPath><clipPath id="clip-path-9"><path class="cls-1" d="M388.6,190.51a1.18,1.18,0,1,1,0-2.35h2.85a10,10,0,1,1,0,20H388.6a1.17,1.17,0,1,1,0-2.34h2.85a7.65,7.65,0,0,0,0-15.29Z"/></clipPath><clipPath id="clip-path-10"><path class="cls-1" d="M347.79,226.82a1.18,1.18,0,0,1,0-2.35h36.56a1.18,1.18,0,0,1,0,2.35Z"/></clipPath><clipPath id="clip-path-11"><path class="cls-1" d="M96.28,57.46H8.2a1.18,1.18,0,1,1,0-2.35H97.45a1.17,1.17,0,0,1,1.17,1.17v67.56A1.17,1.17,0,0,1,97.45,125H8.37a1.18,1.18,0,0,1,0-2.35H96.28Z"/></clipPath><clipPath id="clip-path-12"><path class="cls-1" d="M103.36,50.38h-95a1.18,1.18,0,0,1,0-2.35h96.16a1.17,1.17,0,0,1,1.18,1.17v81.72a1.17,1.17,0,0,1-1.18,1.17H8.37a1.17,1.17,0,0,1,0-2.34h95Z"/></clipPath><clipPath id="clip-path-13"><path class="cls-1" d="M81.42,74.77h-73a1.18,1.18,0,0,1,0-2.35H82.59a1.17,1.17,0,0,1,1.17,1.18v32.93a1.17,1.17,0,0,1-1.17,1.17H8.37a1.18,1.18,0,0,1,0-2.35H81.42Z"/></clipPath><clipPath id="clip-path-14"><path class="cls-1" d="M63.85,43.14a1.17,1.17,0,0,1-1.59,1.73L40.19,24.51a1.18,1.18,0,0,1-.06-1.66,1.16,1.16,0,0,1,1.65-.07Z"/></clipPath><clipPath id="clip-path-15"><path class="cls-1" d="M19.72,44.87a1.18,1.18,0,0,1-1.6-1.73L40.19,22.78a1.17,1.17,0,0,1,1.59,1.73Z"/></clipPath><clipPath id="clip-path-16"><path class="cls-1" d="M320.93,116.81a1.18,1.18,0,0,1,0-2.35H432.11a1.18,1.18,0,0,1,0,2.35Z"/></clipPath><clipPath id="clip-path-17"><path class="cls-1" d="M318.56,106.38a1.18,1.18,0,0,1,0-2.35H432.11a1.18,1.18,0,0,1,0,2.35Z"/></clipPath><clipPath id="clip-path-18"><path class="cls-1" d="M351.21,42.61h-7.27a1.66,1.66,0,0,0-1.66,1.66V97.12a1.66,1.66,0,0,0,1.66,1.66h7.27a1.66,1.66,0,0,0,1.66-1.66V44.27A1.66,1.66,0,0,0,351.21,42.61Zm0-2.35a4,4,0,0,1,4,4V97.12a4,4,0,0,1-4,4h-7.27a4,4,0,0,1-4-4V44.27a4,4,0,0,1,4-4Z"/></clipPath><clipPath id="clip-path-19"><path class="cls-1" d="M345.21,69.18a1.18,1.18,0,0,1,0-2.35h4.73a1.18,1.18,0,0,1,0,2.35Z"/></clipPath><clipPath id="clip-path-20"><path class="cls-1" d="M345.21,74.47a1.18,1.18,0,0,1,0-2.35h4.73a1.18,1.18,0,0,1,0,2.35Z"/></clipPath><clipPath id="clip-path-21"><path class="cls-1" d="M362.39,44.9a1.66,1.66,0,0,0-1.1,2.08l15.47,50.53a1.66,1.66,0,0,0,2.08,1.1l6.94-2.12a1.66,1.66,0,0,0,1.1-2.08L371.41,43.88a1.68,1.68,0,0,0-2.08-1.11Zm6.26-4.37a4,4,0,0,1,5,2.66l15.48,50.54a4,4,0,0,1-2.66,5l-7,2.13a4,4,0,0,1-5-2.66L359,47.66a4,4,0,0,1,2.66-5Z"/></clipPath><clipPath id="clip-path-22"><path class="cls-1" d="M371.38,69.94a1.18,1.18,0,1,1-.69-2.25l4.53-1.38a1.17,1.17,0,1,1,.68,2.24Z"/></clipPath><clipPath id="clip-path-23"><path class="cls-1" d="M372.93,75a1.18,1.18,0,1,1-.69-2.25l4.52-1.38a1.17,1.17,0,1,1,.69,2.24Z"/></clipPath><clipPath id="clip-path-24"><path class="cls-1" d="M333.35,42.61h-7.26a1.66,1.66,0,0,0-1.66,1.66V97.12a1.66,1.66,0,0,0,1.66,1.66h7.26A1.66,1.66,0,0,0,335,97.12V44.27A1.66,1.66,0,0,0,333.35,42.61Zm0-2.35a4,4,0,0,1,4,4V97.12a4,4,0,0,1-4,4h-7.26a4,4,0,0,1-4-4V44.27a4,4,0,0,1,4-4Z"/></clipPath><clipPath id="clip-path-25"><path class="cls-1" d="M327.35,69.18a1.18,1.18,0,0,1,0-2.35h4.73a1.18,1.18,0,1,1,0,2.35Z"/></clipPath><clipPath id="clip-path-26"><path class="cls-1" d="M327.35,74.47a1.18,1.18,0,0,1,0-2.35h4.73a1.18,1.18,0,1,1,0,2.35Z"/></clipPath><clipPath id="clip-path-27"><path class="cls-1" d="M296.73,42.61h-7.27a1.66,1.66,0,0,0-1.66,1.66V97.12a1.66,1.66,0,0,0,1.66,1.66h7.27a1.66,1.66,0,0,0,1.66-1.66V44.27A1.66,1.66,0,0,0,296.73,42.61Zm0-2.35a4,4,0,0,1,4,4V97.12a4,4,0,0,1-4,4h-7.27a4,4,0,0,1-4-4V44.27a4,4,0,0,1,4-4Z"/></clipPath><clipPath id="clip-path-28"><path class="cls-1" d="M315.49,42.61h-7.26a1.66,1.66,0,0,0-1.66,1.66V97.12a1.66,1.66,0,0,0,1.66,1.66h7.26a1.66,1.66,0,0,0,1.66-1.66V44.27A1.66,1.66,0,0,0,315.49,42.61Zm0-2.35a4,4,0,0,1,4,4V97.12a4,4,0,0,1-4,4h-7.26a4,4,0,0,1-4-4V44.27a4,4,0,0,1,4-4Z"/></clipPath><clipPath id="clip-path-29"><path class="cls-1" d="M290.73,69.18a1.18,1.18,0,0,1,0-2.35h4.73a1.18,1.18,0,1,1,0,2.35Z"/></clipPath><clipPath id="clip-path-30"><path class="cls-1" d="M290.73,74.47a1.18,1.18,0,0,1,0-2.35h4.73a1.18,1.18,0,1,1,0,2.35Z"/></clipPath><clipPath id="clip-path-31"><path class="cls-1" d="M309.5,69.18a1.18,1.18,0,1,1,0-2.35h4.73a1.18,1.18,0,0,1,0,2.35Z"/></clipPath><clipPath id="clip-path-32"><path class="cls-1" d="M309.5,74.47a1.18,1.18,0,1,1,0-2.35h4.73a1.18,1.18,0,0,1,0,2.35Z"/></clipPath><clipPath id="clip-path-33"><path class="cls-1" d="M430.94,76.91V69.08h-31v7.83Zm-32.2,2.35a1.18,1.18,0,0,1-1.18-1.17V67.9a1.18,1.18,0,0,1,1.18-1.17h33.37a1.17,1.17,0,0,1,1.17,1.17V78.09a1.17,1.17,0,0,1-1.17,1.17Z"/></clipPath><clipPath id="clip-path-34"><path class="cls-1" d="M400.43,78.24a1.17,1.17,0,1,1,2.32-.31l2.84,21.54a1.18,1.18,0,1,1-2.33.31Z"/></clipPath><clipPath id="clip-path-35"><path class="cls-1" d="M428.1,77.93a1.17,1.17,0,1,1,2.32.31l-2.84,21.54a1.17,1.17,0,1,1-2.32-.31Z"/></clipPath><clipPath id="clip-path-36"><path class="cls-1" d="M416.6,63.6a1.18,1.18,0,0,1-2.35,0V33.38a1.18,1.18,0,0,1,2.35,0Z"/></clipPath><clipPath id="clip-path-37"><path class="cls-1" d="M411.34,39.49a9.93,9.93,0,0,0-9-2.72,9.92,9.92,0,0,0,11.69,11.69A9.93,9.93,0,0,0,411.34,39.49ZM413,37.83a12.29,12.29,0,0,1,3.17,11.92,1.18,1.18,0,0,1-.83.82,12.28,12.28,0,0,1-15.08-15.08,1.18,1.18,0,0,1,.82-.83A12.3,12.3,0,0,1,413,37.83Z"/></clipPath><clipPath id="clip-path-38"><path class="cls-1" d="M415.87,48.61a1.19,1.19,0,0,1,0,1.66,1.17,1.17,0,0,1-1.66,0l-6.83-6.82A1.17,1.17,0,0,1,409,41.79Z"/></clipPath><clipPath id="clip-path-39"><path class="cls-1" d="M417.85,47.29a12.29,12.29,0,0,1,11.92-3.17,1.18,1.18,0,0,1,.82.83A12.28,12.28,0,0,1,415.51,60a1.17,1.17,0,0,1-.83-.82A12.3,12.3,0,0,1,417.85,47.29ZM419.51,49a9.92,9.92,0,0,0-2.72,9,9.94,9.94,0,0,0,11.69-11.7A9.93,9.93,0,0,0,419.51,49Z"/></clipPath><clipPath id="clip-path-40"><path class="cls-1" d="M416.64,59.73a1.17,1.17,0,0,1-1.66,0,1.19,1.19,0,0,1,0-1.66l6.83-6.82a1.17,1.17,0,0,1,1.66,0,1.19,1.19,0,0,1,0,1.66Z"/></clipPath><clipPath id="clip-path-41"><path class="cls-1" d="M9.46,227.05H33.6V143.81H9.46Zm-1.18,2.34a1.17,1.17,0,0,1-1.17-1.17V142.64a1.17,1.17,0,0,1,1.17-1.17H34.77A1.17,1.17,0,0,1,36,142.64v85.58a1.17,1.17,0,0,1-1.18,1.17Z"/></clipPath><clipPath id="clip-path-42"><path class="cls-1" d="M66.31,227.05V143.81H42.16v83.24ZM41,229.39a1.17,1.17,0,0,1-1.17-1.17V142.64A1.17,1.17,0,0,1,41,141.47H67.48a1.17,1.17,0,0,1,1.17,1.17v85.58a1.17,1.17,0,0,1-1.17,1.17Z"/></clipPath><clipPath id="clip-path-43"><path class="cls-1" d="M27.1,215.41a5.58,5.58,0,1,1-5.57-5.58A5.57,5.57,0,0,1,27.1,215.41Zm-2.34,0a3.23,3.23,0,1,0-3.23,3.23A3.23,3.23,0,0,0,24.76,215.41Z"/></clipPath><clipPath id="clip-path-44"><path class="cls-1" d="M59.81,215.41a5.58,5.58,0,1,1-5.58-5.58A5.58,5.58,0,0,1,59.81,215.41Zm-2.35,0a3.23,3.23,0,1,0-3.23,3.23A3.23,3.23,0,0,0,57.46,215.41Z"/></clipPath><clipPath id="clip-path-45"><path class="cls-1" d="M15.22,199.39a1.18,1.18,0,0,1,0-2.35H27.84a1.18,1.18,0,0,1,0,2.35Z"/></clipPath><clipPath id="clip-path-46"><path class="cls-1" d="M17.59,204a1.18,1.18,0,1,1,0-2.35h7.88a1.18,1.18,0,0,1,0,2.35Z"/></clipPath><clipPath id="clip-path-47"><path class="cls-1" d="M47.93,199.39a1.18,1.18,0,1,1,0-2.35H60.54a1.18,1.18,0,0,1,0,2.35Z"/></clipPath><clipPath id="clip-path-48"><path class="cls-1" d="M50.29,204a1.18,1.18,0,0,1,0-2.35h7.89a1.18,1.18,0,0,1,0,2.35Z"/></clipPath></defs><g id="Bkg_colour" data-name="Bkg colour"><rect class="cls-2" x="0.27" y="0.34" width="440" height="252"/></g><g id="Bkg_lines" data-name="Bkg lines"><path class="cls-1" d="M72.53,199.32a1.17,1.17,0,1,1,0-2.3h58.62a1.17,1.17,0,1,1,0,2.3Z"/><g class="cls-3"><rect class="cls-1" x="65.45" y="192.4" width="72.78" height="11.54"/></g><path class="cls-1" d="M309.34,199.12c-.94,0-1.7-.48-1.7-1.07s.76-1.08,1.7-1.08h32.41c.93,0,1.69.48,1.69,1.08s-.76,1.07-1.69,1.07Z"/><g class="cls-4"><rect class="cls-1" x="300.79" y="192.65" width="49.5" height="10.8"/></g><path class="cls-1" d="M388.6,199.39a1.18,1.18,0,1,1,0-2.35h5.75a1.18,1.18,0,0,1,0,2.35Z"/><g class="cls-5"><rect class="cls-1" x="382.69" y="192.31" width="17.56" height="11.81"/></g><path class="cls-1" d="M404.8,199.39a1.18,1.18,0,1,1,0-2.35h27.91a1.18,1.18,0,0,1,0,2.35Z"/><g class="cls-6"><rect class="cls-1" x="398.89" y="192.31" width="39.72" height="11.81"/></g><path class="cls-1" d="M219.34,36.09a1.18,1.18,0,1,1,2.35,0V56.38a1.25,1.25,0,0,1-.31.8L210.22,69.3a1.18,1.18,0,0,1-1.66.06,1.16,1.16,0,0,1-.07-1.65l10.85-11.79Z"/><g class="cls-7"><rect class="cls-1" x="203.45" y="30.18" width="22.97" height="44.22"/></g><path class="cls-1" d="M248.15,56.38a27.64,27.64,0,1,1-27.64-27.64A27.64,27.64,0,0,1,248.15,56.38Zm-2.35,0a25.29,25.29,0,1,0-25.29,25.29A25.29,25.29,0,0,0,245.8,56.38Z"/><g class="cls-8"><rect class="cls-1" x="188.14" y="24.01" width="64.74" height="64.74"/></g><path class="cls-1" d="M254.16,56.38a33.65,33.65,0,1,1-33.65-33.65A33.65,33.65,0,0,1,254.16,56.38Zm-2.35,0a31.3,31.3,0,1,0-31.3,31.3A31.3,31.3,0,0,0,251.81,56.38Z"/><g class="cls-9"><rect class="cls-1" x="182.13" y="18" width="76.76" height="76.76"/></g><path class="cls-1" d="M372.9,222.34H359.24a12.63,12.63,0,0,1-12.62-12.63V183.3a1.17,1.17,0,0,1,1.17-1.17h36.56a1.17,1.17,0,0,1,1.17,1.17v26.41A12.63,12.63,0,0,1,372.9,222.34ZM349,209.71A10.28,10.28,0,0,0,359.24,220H372.9a10.28,10.28,0,0,0,10.28-10.28V184.48H349Z"/><g class="cls-10"><rect class="cls-1" x="341.88" y="177.4" width="48.37" height="49.67"/></g><path class="cls-1" d="M388.6,190.51a1.18,1.18,0,1,1,0-2.35h2.85a10,10,0,1,1,0,20H388.6a1.17,1.17,0,1,1,0-2.34h2.85a7.65,7.65,0,0,0,0-15.29Z"/><g class="cls-11"><rect class="cls-1" x="382.69" y="183.43" width="23.48" height="29.44"/></g><path class="cls-1" d="M347.79,226.82a1.18,1.18,0,0,1,0-2.35h36.56a1.18,1.18,0,0,1,0,2.35Z"/><g class="cls-12"><rect class="cls-1" x="341.88" y="219.74" width="48.37" height="11.81"/></g><path class="cls-1" d="M96.28,57.46H8.2a1.18,1.18,0,1,1,0-2.35H97.45a1.17,1.17,0,0,1,1.17,1.17v67.56A1.17,1.17,0,0,1,97.45,125H8.37a1.18,1.18,0,0,1,0-2.35H96.28Z"/><g class="cls-13"><rect class="cls-1" x="2.29" y="50.38" width="101.06" height="79.36"/></g><path class="cls-1" d="M103.36,50.38h-95a1.18,1.18,0,0,1,0-2.35h96.16a1.17,1.17,0,0,1,1.18,1.17v81.72a1.17,1.17,0,0,1-1.18,1.17H8.37a1.17,1.17,0,0,1,0-2.34h95Z"/><g class="cls-14"><rect class="cls-1" x="2.47" y="43.3" width="107.97" height="93.53"/></g><path class="cls-1" d="M81.42,74.77h-73a1.18,1.18,0,0,1,0-2.35H82.59a1.17,1.17,0,0,1,1.17,1.18v32.93a1.17,1.17,0,0,1-1.17,1.17H8.37a1.18,1.18,0,0,1,0-2.35H81.42Z"/><g class="cls-15"><rect class="cls-1" x="2.46" y="67.69" width="86.03" height="44.74"/></g><path class="cls-1" d="M63.85,43.14a1.17,1.17,0,0,1-1.59,1.73L40.19,24.51a1.18,1.18,0,0,1-.06-1.66,1.16,1.16,0,0,1,1.65-.07Z"/><g class="cls-16"><rect class="cls-1" x="35.08" y="17.74" width="33.88" height="32.17"/></g><path class="cls-1" d="M19.72,44.87a1.18,1.18,0,0,1-1.6-1.73L40.19,22.78a1.17,1.17,0,0,1,1.59,1.73Z"/><g class="cls-17"><rect class="cls-1" x="13.02" y="17.74" width="33.88" height="32.17"/></g><path class="cls-1" d="M320.93,116.81a1.18,1.18,0,0,1,0-2.35H432.11a1.18,1.18,0,0,1,0,2.35Z"/><g class="cls-18"><rect class="cls-1" x="315.03" y="109.73" width="122.99" height="11.81"/></g><path class="cls-1" d="M318.56,106.38a1.18,1.18,0,0,1,0-2.35H432.11a1.18,1.18,0,0,1,0,2.35Z"/><g class="cls-19"><rect class="cls-1" x="312.66" y="99.3" width="125.36" height="11.81"/></g><path class="cls-1" d="M351.21,42.61h-7.27a1.66,1.66,0,0,0-1.66,1.66V97.12a1.66,1.66,0,0,0,1.66,1.66h7.27a1.66,1.66,0,0,0,1.66-1.66V44.27A1.66,1.66,0,0,0,351.21,42.61Zm0-2.35a4,4,0,0,1,4,4V97.12a4,4,0,0,1-4,4h-7.27a4,4,0,0,1-4-4V44.27a4,4,0,0,1,4-4Z"/><g class="cls-20"><rect class="cls-1" x="335.21" y="35.53" width="24.74" height="70.33"/></g><path class="cls-1" d="M345.21,69.18a1.18,1.18,0,0,1,0-2.35h4.73a1.18,1.18,0,0,1,0,2.35Z"/><g class="cls-21"><rect class="cls-1" x="339.31" y="62.1" width="16.54" height="11.81"/></g><path class="cls-1" d="M345.21,74.47a1.18,1.18,0,0,1,0-2.35h4.73a1.18,1.18,0,0,1,0,2.35Z"/><g class="cls-22"><rect class="cls-1" x="339.31" y="67.39" width="16.54" height="11.81"/></g><path class="cls-1" d="M362.39,44.9a1.66,1.66,0,0,0-1.1,2.08l15.47,50.53a1.66,1.66,0,0,0,2.08,1.1l6.94-2.12a1.66,1.66,0,0,0,1.1-2.08L371.41,43.88a1.68,1.68,0,0,0-2.08-1.11Zm6.26-4.37a4,4,0,0,1,5,2.66l15.48,50.54a4,4,0,0,1-2.66,5l-7,2.13a4,4,0,0,1-5-2.66L359,47.66a4,4,0,0,1,2.66-5Z"/><g class="cls-23"><rect class="cls-1" x="354.13" y="35.62" width="39.9" height="70.14"/></g><path class="cls-1" d="M371.38,69.94a1.18,1.18,0,1,1-.69-2.25l4.53-1.38a1.17,1.17,0,1,1,.68,2.24Z"/><g class="cls-24"><rect class="cls-1" x="365.13" y="61.53" width="16.33" height="13.19"/></g><path class="cls-1" d="M372.93,75a1.18,1.18,0,1,1-.69-2.25l4.52-1.38a1.17,1.17,0,1,1,.69,2.24Z"/><g class="cls-25"><rect class="cls-1" x="366.68" y="66.59" width="16.33" height="13.19"/></g><path class="cls-1" d="M333.35,42.61h-7.26a1.66,1.66,0,0,0-1.66,1.66V97.12a1.66,1.66,0,0,0,1.66,1.66h7.26A1.66,1.66,0,0,0,335,97.12V44.27A1.66,1.66,0,0,0,333.35,42.61Zm0-2.35a4,4,0,0,1,4,4V97.12a4,4,0,0,1-4,4h-7.26a4,4,0,0,1-4-4V44.27a4,4,0,0,1,4-4Z"/><g class="cls-26"><rect class="cls-1" x="317.35" y="35.53" width="24.74" height="70.33"/></g><path class="cls-1" d="M327.35,69.18a1.18,1.18,0,0,1,0-2.35h4.73a1.18,1.18,0,1,1,0,2.35Z"/><g class="cls-27"><rect class="cls-1" x="321.45" y="62.1" width="16.54" height="11.81"/></g><path class="cls-1" d="M327.35,74.47a1.18,1.18,0,0,1,0-2.35h4.73a1.18,1.18,0,1,1,0,2.35Z"/><g class="cls-28"><rect class="cls-1" x="321.45" y="67.39" width="16.54" height="11.81"/></g><path class="cls-1" d="M296.73,42.61h-7.27a1.66,1.66,0,0,0-1.66,1.66V97.12a1.66,1.66,0,0,0,1.66,1.66h7.27a1.66,1.66,0,0,0,1.66-1.66V44.27A1.66,1.66,0,0,0,296.73,42.61Zm0-2.35a4,4,0,0,1,4,4V97.12a4,4,0,0,1-4,4h-7.27a4,4,0,0,1-4-4V44.27a4,4,0,0,1,4-4Z"/><g class="cls-29"><rect class="cls-1" x="280.73" y="35.53" width="24.74" height="70.33"/></g><path class="cls-1" d="M315.49,42.61h-7.26a1.66,1.66,0,0,0-1.66,1.66V97.12a1.66,1.66,0,0,0,1.66,1.66h7.26a1.66,1.66,0,0,0,1.66-1.66V44.27A1.66,1.66,0,0,0,315.49,42.61Zm0-2.35a4,4,0,0,1,4,4V97.12a4,4,0,0,1-4,4h-7.26a4,4,0,0,1-4-4V44.27a4,4,0,0,1,4-4Z"/><g class="cls-30"><rect class="cls-1" x="299.49" y="35.53" width="24.74" height="70.33"/></g><path class="cls-1" d="M290.73,69.18a1.18,1.18,0,0,1,0-2.35h4.73a1.18,1.18,0,1,1,0,2.35Z"/><g class="cls-31"><rect class="cls-1" x="284.83" y="62.1" width="16.54" height="11.81"/></g><path class="cls-1" d="M290.73,74.47a1.18,1.18,0,0,1,0-2.35h4.73a1.18,1.18,0,1,1,0,2.35Z"/><g class="cls-32"><rect class="cls-1" x="284.83" y="67.39" width="16.54" height="11.81"/></g><path class="cls-1" d="M309.5,69.18a1.18,1.18,0,1,1,0-2.35h4.73a1.18,1.18,0,0,1,0,2.35Z"/><g class="cls-33"><rect class="cls-1" x="303.59" y="62.1" width="16.54" height="11.81"/></g><path class="cls-1" d="M309.5,74.47a1.18,1.18,0,1,1,0-2.35h4.73a1.18,1.18,0,0,1,0,2.35Z"/><g class="cls-34"><rect class="cls-1" x="303.59" y="67.39" width="16.54" height="11.81"/></g><path class="cls-1" d="M430.94,76.91V69.08h-31v7.83Zm-32.2,2.35a1.18,1.18,0,0,1-1.18-1.17V67.9a1.18,1.18,0,0,1,1.18-1.17h33.37a1.17,1.17,0,0,1,1.17,1.17V78.09a1.17,1.17,0,0,1-1.17,1.17Z"/><g class="cls-35"><rect class="cls-1" x="392.83" y="62" width="45.18" height="21.99"/></g><path class="cls-1" d="M400.43,78.24a1.17,1.17,0,1,1,2.32-.31l2.84,21.54a1.18,1.18,0,1,1-2.33.31Z"/><g class="cls-36"><rect class="cls-1" x="395.68" y="72.18" width="14.65" height="33.35"/></g><path class="cls-1" d="M428.1,77.93a1.17,1.17,0,1,1,2.32.31l-2.84,21.54a1.17,1.17,0,1,1-2.32-.31Z"/><g class="cls-37"><rect class="cls-1" x="420.52" y="72.18" width="14.65" height="33.35"/></g><path class="cls-1" d="M416.6,63.6a1.18,1.18,0,0,1-2.35,0V33.38a1.18,1.18,0,0,1,2.35,0Z"/><g class="cls-38"><rect class="cls-1" x="409.52" y="27.47" width="11.81" height="42.03"/></g><path class="cls-1" d="M411.34,39.49a9.93,9.93,0,0,0-9-2.72,9.92,9.92,0,0,0,11.69,11.69A9.93,9.93,0,0,0,411.34,39.49ZM413,37.83a12.29,12.29,0,0,1,3.17,11.92,1.18,1.18,0,0,1-.83.82,12.28,12.28,0,0,1-15.08-15.08,1.18,1.18,0,0,1,.82-.83A12.3,12.3,0,0,1,413,37.83Z"/><g class="cls-39"><rect class="cls-1" x="395.1" y="29.5" width="26.23" height="26.23"/></g><path class="cls-1" d="M415.87,48.61a1.19,1.19,0,0,1,0,1.66,1.17,1.17,0,0,1-1.66,0l-6.83-6.82A1.17,1.17,0,0,1,409,41.79Z"/><g class="cls-40"><rect class="cls-1" x="402.31" y="36.71" width="18.63" height="18.63"/></g><path class="cls-1" d="M417.85,47.29a12.29,12.29,0,0,1,11.92-3.17,1.18,1.18,0,0,1,.82.83A12.28,12.28,0,0,1,415.51,60a1.17,1.17,0,0,1-.83-.82A12.3,12.3,0,0,1,417.85,47.29ZM419.51,49a9.92,9.92,0,0,0-2.72,9,9.94,9.94,0,0,0,11.69-11.7A9.93,9.93,0,0,0,419.51,49Z"/><g class="cls-41"><rect class="cls-1" x="409.52" y="38.96" width="26.23" height="26.23"/></g><path class="cls-1" d="M416.64,59.73a1.17,1.17,0,0,1-1.66,0,1.19,1.19,0,0,1,0-1.66l6.83-6.82a1.17,1.17,0,0,1,1.66,0,1.19,1.19,0,0,1,0,1.66Z"/><g class="cls-42"><rect class="cls-1" x="409.91" y="46.17" width="18.63" height="18.63"/></g><path class="cls-1" d="M9.46,227.05H33.6V143.81H9.46Zm-1.18,2.34a1.17,1.17,0,0,1-1.17-1.17V142.64a1.17,1.17,0,0,1,1.17-1.17H34.77A1.17,1.17,0,0,1,36,142.64v85.58a1.17,1.17,0,0,1-1.18,1.17Z"/><g class="cls-43"><rect class="cls-1" x="2.38" y="136.74" width="38.3" height="97.39"/></g><path class="cls-1" d="M66.31,227.05V143.81H42.16v83.24ZM41,229.39a1.17,1.17,0,0,1-1.17-1.17V142.64A1.17,1.17,0,0,1,41,141.47H67.48a1.17,1.17,0,0,1,1.17,1.17v85.58a1.17,1.17,0,0,1-1.17,1.17Z"/><g class="cls-44"><rect class="cls-1" x="35.08" y="136.74" width="38.3" height="97.39"/></g><path class="cls-1" d="M27.1,215.41a5.58,5.58,0,1,1-5.57-5.58A5.57,5.57,0,0,1,27.1,215.41Zm-2.34,0a3.23,3.23,0,1,0-3.23,3.23A3.23,3.23,0,0,0,24.76,215.41Z"/><g class="cls-45"><rect class="cls-1" x="11.22" y="205.1" width="20.61" height="20.61"/></g><path class="cls-1" d="M59.81,215.41a5.58,5.58,0,1,1-5.58-5.58A5.58,5.58,0,0,1,59.81,215.41Zm-2.35,0a3.23,3.23,0,1,0-3.23,3.23A3.23,3.23,0,0,0,57.46,215.41Z"/><g class="cls-46"><rect class="cls-1" x="43.93" y="205.1" width="20.61" height="20.61"/></g><path class="cls-1" d="M15.22,199.39a1.18,1.18,0,0,1,0-2.35H27.84a1.18,1.18,0,0,1,0,2.35Z"/><g class="cls-47"><rect class="cls-1" x="9.32" y="192.31" width="24.42" height="11.81"/></g><path class="cls-1" d="M17.59,204a1.18,1.18,0,1,1,0-2.35h7.88a1.18,1.18,0,0,1,0,2.35Z"/><g class="cls-48"><rect class="cls-1" x="11.68" y="196.96" width="19.69" height="11.81"/></g><path class="cls-1" d="M47.93,199.39a1.18,1.18,0,1,1,0-2.35H60.54a1.18,1.18,0,0,1,0,2.35Z"/><g class="cls-49"><rect class="cls-1" x="42.02" y="192.31" width="24.42" height="11.81"/></g><path class="cls-1" d="M50.29,204a1.18,1.18,0,0,1,0-2.35h7.89a1.18,1.18,0,0,1,0,2.35Z"/><g class="cls-50"><rect class="cls-1" x="44.39" y="196.96" width="19.69" height="11.81"/></g></g><g id="Fill"><path class="cls-51" d="M146,199.25v4h76.49l-1.78-4-38.28-85H152.6c-7.31,0-6.61,6.61-6.61,6.61Z"/><path class="cls-51" d="M148.49,207.56c-6.27,0-6-1.85-6.86-3.14a10.93,10.93,0,0,1-.5-1.21h-7.9a10.81,10.81,0,0,0,.83,4.35c2.59,5.93,10.25,6.07,10.25,6.07h151.9c7.81,0,11.05-3.21,12.4-6.07Z"/></g><g id="Outlines"><path class="cls-52" d="M309.54,201.71H133.23a1.5,1.5,0,0,0-1.5,1.5,11.92,11.92,0,0,0,11.92,11.92H299.12A11.92,11.92,0,0,0,311,203.21,1.5,1.5,0,0,0,309.54,201.71Zm-10.42,10.42H143.65a8.93,8.93,0,0,1-8.8-7.42H203.4a4.35,4.35,0,0,0,4.08,2.85h27.81a4.34,4.34,0,0,0,4.07-2.85h68.55A8.92,8.92,0,0,1,299.12,212.13Z"/><path class="cls-52" d="M146,198.21a1.5,1.5,0,0,0,1.5-1.5V120.84a5.1,5.1,0,0,1,5.11-5.11H290.17a5.11,5.11,0,0,1,5.11,5.11v75.87a1.5,1.5,0,1,0,3,0V120.84a8.11,8.11,0,0,0-8.11-8.11H152.6a8.11,8.11,0,0,0-8.11,8.11v75.87A1.5,1.5,0,0,0,146,198.21Z"/><path class="cls-52" d="M212.26,133.4l-5.57,1.5a.92.92,0,0,0-.42,1.54l1,1L203.66,141l-3.95,4L189.24,134.5a1.51,1.51,0,0,0-2.12,0L164,157.66a1.5,1.5,0,0,0,1.06,2.56,1.51,1.51,0,0,0,1.06-.44l22.09-22.09,10.47,10.46a1.49,1.49,0,0,0,2.12,0l3.91-3.9,4.7-4.71,1,1a.91.91,0,0,0,1.54-.41l1.5-5.57A.93.93,0,0,0,212.26,133.4Z"/><path class="cls-52" d="M288.12,197.42a1.5,1.5,0,0,0,1.5-1.5V122.1a1.5,1.5,0,0,0-1.5-1.5H154.65a1.5,1.5,0,0,0-1.5,1.5v73.82a1.5,1.5,0,0,0,3,0V123.6H286.62v72.32A1.5,1.5,0,0,0,288.12,197.42Z"/><path class="cls-52" d="M176.57,155.65a1.5,1.5,0,0,0-1.5,1.5v6.62h3v-6.62A1.5,1.5,0,0,0,176.57,155.65Z"/><path class="cls-52" d="M236,156.31a2.41,2.41,0,0,1-1.88-1c-.8-.79-1.24-1-1.47-1a1.38,1.38,0,0,0-1,.44c-.67.66-.82,1-.82,1.24a1.93,1.93,0,0,0,.51,1.1l.33.43a5,5,0,0,0,1.12.91,5.82,5.82,0,0,0,1.83.74.13.13,0,0,1,.11.14v1.57a3.43,3.43,0,0,0,.17,1.23.62.62,0,0,0,.36.38,2.14,2.14,0,0,0,.8.12,2.12,2.12,0,0,0,.79-.12.78.78,0,0,0,.41-.41,3.14,3.14,0,0,0,.15-1.18v-1.62a.14.14,0,0,1,.11-.14,5.31,5.31,0,0,0,2.69-1.53,4.25,4.25,0,0,0,1.1-3.06,4.3,4.3,0,0,0-.5-2.17,2.81,2.81,0,0,0-1.22-1.2,11.8,11.8,0,0,0-1.65-.61,14.14,14.14,0,0,0-1.65-.38,3.38,3.38,0,0,1-1.34-.47,1.2,1.2,0,0,1-.58-1,1.14,1.14,0,0,1,.49-1,1.91,1.91,0,0,1,1.17-.35,2.12,2.12,0,0,1,1.17.3,3.63,3.63,0,0,1,.34.27c.13.11.3.23.49.37a1.11,1.11,0,0,0,.69.2,1.48,1.48,0,0,0,1.18-.82,2.62,2.62,0,0,0,.57-1.19c0-.14-.1-.41-.58-.85l-.09-.07-.24-.21a4.65,4.65,0,0,0-.78-.43,5.33,5.33,0,0,0-1.26-.42.16.16,0,0,1-.11-.14V143a7,7,0,0,0,0-.94.9.9,0,0,0-.34-.53,1.44,1.44,0,0,0-.94-.26c-.66,0-1.06.17-1.2.52a3.28,3.28,0,0,0-.15,1.18v1.42a.13.13,0,0,1-.11.14,4.32,4.32,0,0,0-2.58,1.52,4.22,4.22,0,0,0-.93,2.65,4.09,4.09,0,0,0,.68,2.42,3.8,3.8,0,0,0,1.66,1.34,14.59,14.59,0,0,0,2,.64,11.27,11.27,0,0,1,1.74.55,1.1,1.1,0,0,1,.8,1C238,155.4,237.69,156.31,236,156.31Z"/><path class="cls-52" d="M249.94,156.31a2.41,2.41,0,0,1-1.88-1c-.8-.79-1.24-1-1.47-1a1.23,1.23,0,0,0-.46.1,1.6,1.6,0,0,0-.52.34c-.67.66-.82,1-.82,1.24a2,2,0,0,0,.5,1.1l.33.43a3.48,3.48,0,0,0,.51.47c.18.13.38.28.62.44a5.72,5.72,0,0,0,1.83.74.13.13,0,0,1,.11.14v1.57a3.43,3.43,0,0,0,.17,1.23.62.62,0,0,0,.36.38,2.14,2.14,0,0,0,.8.12,2.12,2.12,0,0,0,.79-.12.78.78,0,0,0,.41-.41,3.14,3.14,0,0,0,.15-1.18v-1.62a.14.14,0,0,1,.11-.14,5.31,5.31,0,0,0,2.69-1.53,4.25,4.25,0,0,0,1.1-3.06,4.3,4.3,0,0,0-.5-2.17,2.81,2.81,0,0,0-1.22-1.2,11.8,11.8,0,0,0-1.65-.61,14.14,14.14,0,0,0-1.65-.38,3.54,3.54,0,0,1-1.34-.47,1.17,1.17,0,0,1-.58-1,1.14,1.14,0,0,1,.49-1,1.91,1.91,0,0,1,1.17-.35,2.12,2.12,0,0,1,1.17.3,3.63,3.63,0,0,1,.34.27c.13.11.3.23.49.37a1.17,1.17,0,0,0,.69.2,1.48,1.48,0,0,0,1.18-.82,2.62,2.62,0,0,0,.57-1.19c0-.14-.1-.41-.58-.85l-.09-.07-.24-.21a4.65,4.65,0,0,0-.78-.43,5.33,5.33,0,0,0-1.26-.42.15.15,0,0,1-.11-.14V143a7,7,0,0,0-.05-.94.87.87,0,0,0-.35-.53,1.4,1.4,0,0,0-.93-.26c-.66,0-1.06.17-1.21.52a3.59,3.59,0,0,0-.14,1.18v1.42a.13.13,0,0,1-.11.14,4.35,4.35,0,0,0-2.45,1.39,1.59,1.59,0,0,0-.13.13,4.22,4.22,0,0,0-.93,2.65,4.09,4.09,0,0,0,.68,2.42,5.63,5.63,0,0,0,.38.45,3.49,3.49,0,0,0,1.28.89,14.59,14.59,0,0,0,2,.64,11.27,11.27,0,0,1,1.74.55,1.1,1.1,0,0,1,.8,1C252,155.4,251.61,156.31,249.94,156.31Z"/><path class="cls-52" d="M263.86,156.31a2.4,2.4,0,0,1-1.88-1c-.8-.79-1.24-1-1.47-1a1.31,1.31,0,0,0-.65.21,2.19,2.19,0,0,0-.33.23c-.68.66-.82,1-.82,1.24a2,2,0,0,0,.5,1.1l.33.43c.08.09.2.2.32.31a7.43,7.43,0,0,0,.81.6,5.72,5.72,0,0,0,1.83.74.13.13,0,0,1,.11.14v1.57a3.43,3.43,0,0,0,.17,1.23.62.62,0,0,0,.36.38,2.14,2.14,0,0,0,.8.12,2.12,2.12,0,0,0,.79-.12.78.78,0,0,0,.41-.41,3.14,3.14,0,0,0,.15-1.18v-1.62a.14.14,0,0,1,.11-.14,5.31,5.31,0,0,0,2.69-1.53,4.25,4.25,0,0,0,1.1-3.06,4.3,4.3,0,0,0-.5-2.17h0a2.81,2.81,0,0,0-1.22-1.2,11.8,11.8,0,0,0-1.65-.61,14.14,14.14,0,0,0-1.65-.38,3.54,3.54,0,0,1-1.34-.47,1.17,1.17,0,0,1-.58-1,1.14,1.14,0,0,1,.49-1,1.91,1.91,0,0,1,1.17-.35,2.12,2.12,0,0,1,1.17.3,3.63,3.63,0,0,1,.34.27c.13.11.3.23.49.37a1.15,1.15,0,0,0,.69.2,1.5,1.5,0,0,0,1.18-.82,2.62,2.62,0,0,0,.57-1.19c0-.14-.1-.41-.59-.85l-.08-.07-.24-.21a4.65,4.65,0,0,0-.78-.43,5.33,5.33,0,0,0-1.26-.42.15.15,0,0,1-.11-.14V143a7,7,0,0,0-.05-.94.87.87,0,0,0-.35-.53,1.41,1.41,0,0,0-.93-.26c-.66,0-1.06.17-1.21.52a3.59,3.59,0,0,0-.14,1.18v1.42a.14.14,0,0,1-.11.14,4.32,4.32,0,0,0-2.58,1.52.47.47,0,0,1-.06.09,4.19,4.19,0,0,0-.87,2.56,4.09,4.09,0,0,0,.68,2.42l.19.23a3.64,3.64,0,0,0,1.47,1.11,14.59,14.59,0,0,0,2,.64,11.27,11.27,0,0,1,1.74.55,1.1,1.1,0,0,1,.8,1C265.88,155.4,265.53,156.31,263.86,156.31Z"/><path class="cls-52" d="M277,133H223.13a1.5,1.5,0,0,0-1.5,1.5v51.87a1.5,1.5,0,0,0,1.5,1.5H277a1.5,1.5,0,0,0,1.5-1.5V134.46A1.5,1.5,0,0,0,277,133Zm-1.5,51.87H224.63V136h50.91Z"/><path class="cls-52" d="M232.06,179.18h36.05a1.5,1.5,0,0,0,0-3H232.06a1.5,1.5,0,0,0,0,3Z"/><path class="cls-52" d="M232.06,170.53h36.05a1.5,1.5,0,0,0,0-3H232.06a1.5,1.5,0,0,0,0,3Z"/><path class="cls-52" d="M165,163.88a1.5,1.5,0,0,0-1.5,1.5v21a1.5,1.5,0,0,0,3,0v-21A1.5,1.5,0,0,0,165,163.88Z"/><path class="cls-52" d="M175.07,186.33a1.5,1.5,0,0,0,3,0V163.77h-3Z"/><path class="cls-52" d="M188.12,144.49a1.51,1.51,0,0,0-1.51,1.5v40.34a1.51,1.51,0,0,0,3,0V146A1.5,1.5,0,0,0,188.12,144.49Z"/><path class="cls-52" d="M199.66,153a1.5,1.5,0,0,0-1.5,1.5v31.87a1.5,1.5,0,0,0,3,0V154.46A1.5,1.5,0,0,0,199.66,153Z"/><path class="cls-52" d="M211.2,144.7a1.5,1.5,0,0,0-1.5,1.5v40.13a1.5,1.5,0,0,0,3,0V146.2A1.5,1.5,0,0,0,211.2,144.7Z"/></g></svg> 