<svg xmlns="http://www.w3.org/2000/svg" viewBox="0 0 441 253"><defs><style>.cls-1{fill:#f1eefa;}.cls-2{fill:#beb3d9;}.cls-3{fill:#745fd7;}.cls-4{fill:#333;}</style></defs><g id="Bkg_colour" data-name="Bkg colour"><rect class="cls-1" x="0.67" y="0.52" width="440" height="252"/></g><g id="Bkg_lines" data-name="Bkg lines"><path class="cls-2" d="M423.8,128.5H324.2a9.93,9.93,0,0,1-9.92-9.93V35.06a9.93,9.93,0,0,1,9.92-9.92h99.6a1.14,1.14,0,1,1,0,2.27H324.2a7.66,7.66,0,0,0-7.65,7.65v83.51a7.66,7.66,0,0,0,7.65,7.65h99.6a1.14,1.14,0,0,1,0,2.28Z"/><path class="cls-2" d="M423.8,21.31H315.41a1.14,1.14,0,0,1,0-2.28H423.8a1.14,1.14,0,0,1,0,2.28Z"/><path class="cls-2" d="M344.29,78a1.12,1.12,0,0,1-1.13-1.13V35.53a1.14,1.14,0,0,1,2.27,0V76.82A1.13,1.13,0,0,1,344.29,78Z"/><path class="cls-2" d="M355.65,78a1.13,1.13,0,0,1-1.14-1.13V35.53a1.14,1.14,0,0,1,2.28,0V76.82A1.13,1.13,0,0,1,355.65,78Z"/><path class="cls-2" d="M367,78a1.13,1.13,0,0,1-1.14-1.13V35.53a1.14,1.14,0,0,1,2.27,0V76.82A1.12,1.12,0,0,1,367,78Z"/><path class="cls-2" d="M378.37,78a1.13,1.13,0,0,1-1.14-1.13V35.53a1.14,1.14,0,0,1,2.27,0V76.82A1.12,1.12,0,0,1,378.37,78Z"/><path class="cls-2" d="M389.73,78a1.13,1.13,0,0,1-1.14-1.13V35.53a1.14,1.14,0,0,1,2.27,0V76.82A1.12,1.12,0,0,1,389.73,78Z"/><path class="cls-2" d="M401.09,78A1.13,1.13,0,0,1,400,76.82V35.53a1.14,1.14,0,0,1,2.27,0V76.82A1.13,1.13,0,0,1,401.09,78Z"/><path class="cls-2" d="M412.45,78a1.13,1.13,0,0,1-1.14-1.13V35.53a1.14,1.14,0,0,1,2.27,0V76.82A1.13,1.13,0,0,1,412.45,78Z"/><path class="cls-2" d="M423.8,69.36H333.74a1.14,1.14,0,1,1,0-2.27H423.8a1.14,1.14,0,1,1,0,2.27Z"/><path class="cls-2" d="M423.8,61.33H333.74a1.14,1.14,0,1,1,0-2.27H423.8a1.14,1.14,0,1,1,0,2.27Z"/><path class="cls-2" d="M423.8,53.3H333.74a1.14,1.14,0,1,1,0-2.27H423.8a1.14,1.14,0,1,1,0,2.27Z"/><path class="cls-2" d="M423.8,45.27H333.74a1.14,1.14,0,1,1,0-2.28H423.8a1.14,1.14,0,0,1,0,2.28Z"/><path class="cls-2" d="M423.8,78H333.74a1.13,1.13,0,0,1-1.14-1.13V35.53a1.14,1.14,0,0,1,1.14-1.13H423.8a1.14,1.14,0,1,1,0,2.27H334.87v39H423.8a1.14,1.14,0,1,1,0,2.27Z"/><path class="cls-2" d="M423.8,116.46H389.73a1.14,1.14,0,0,1-1.14-1.13V88.1A1.14,1.14,0,0,1,389.73,87H423.8a1.14,1.14,0,1,1,0,2.27H390.86v25H423.8a1.14,1.14,0,1,1,0,2.27Z"/><path class="cls-2" d="M110.89,115.78a1.26,1.26,0,0,1-.33,0L17.36,86.85A1.14,1.14,0,1,1,18,84.68l92.11,28.54,18.27-58.95L62,75.56a1.16,1.16,0,0,1-1.25-.38L16.66,18.33a1.13,1.13,0,1,1,1.79-1.39l43.6,56.21L129.8,51.44a1.12,1.12,0,0,1,1.14.27,1.15,1.15,0,0,1,.29,1.14L112,115A1.15,1.15,0,0,1,110.89,115.78Z"/><path class="cls-2" d="M27.78,18.47a1,1,0,0,1-.33,0A1.13,1.13,0,0,1,26.7,17l1.69-5.45a1.14,1.14,0,1,1,2.17.67l-1.69,5.45A1.13,1.13,0,0,1,27.78,18.47Z"/><path class="cls-2" d="M121.87,47.63a1.26,1.26,0,0,1-.33-.05,1.14,1.14,0,0,1-.75-1.43l8-25.8L105,13a1.14,1.14,0,1,1,.67-2.17l24.9,7.72a1.13,1.13,0,0,1,.75,1.42L123,46.83A1.15,1.15,0,0,1,121.87,47.63Z"/><path class="cls-2" d="M115.27,27.07a1.33,1.33,0,0,1-.34-.05L69.58,13a1.14,1.14,0,0,1,.67-2.17l45.36,14.06a1.14,1.14,0,0,1-.34,2.22Z"/><path class="cls-2" d="M111.82,38.2a1,1,0,0,1-.33-.06L41.07,16.32a1.14,1.14,0,0,1,.67-2.17L112.16,36a1.14,1.14,0,0,1-.34,2.23Z"/><path class="cls-2" d="M108.37,49.32a1.26,1.26,0,0,1-.33,0L37.62,27.45a1.14,1.14,0,1,1,.68-2.17L108.71,47.1a1.14,1.14,0,0,1-.34,2.22Z"/><path class="cls-2" d="M88.84,55.46a1.26,1.26,0,0,1-.33-.05L50.26,43.56a1.14,1.14,0,1,1,.67-2.17L89.18,53.24a1.14,1.14,0,0,1-.34,2.22Z"/><path class="cls-2" d="M395.53,237.36a9.4,9.4,0,0,1-7.19-3.32l-43.51-51.39a9.42,9.42,0,0,1,1.1-13.26l21.49-18.2a9.42,9.42,0,0,1,13.26,1.1l43.51,51.39a9.41,9.41,0,0,1-1.1,13.26h0l-21.49,18.2A9.41,9.41,0,0,1,395.53,237.36Zm-22-86.12a7.13,7.13,0,0,0-4.61,1.68l-21.49,18.2a7.14,7.14,0,0,0-.84,10.06l43.51,51.39a7.15,7.15,0,0,0,10.06.84l21.49-18.2a7.14,7.14,0,0,0,.84-10.06L379,153.76A7.11,7.11,0,0,0,373.5,151.24Zm48.86,64.83h0Z"/><path class="cls-2" d="M356.25,174.57a6.28,6.28,0,0,1-4.82-2.23,1.14,1.14,0,0,1,.13-1.61l16.31-13.8a1.13,1.13,0,0,1,1.6.13,6.31,6.31,0,0,1-.74,8.89l-8.41,7.12A6.24,6.24,0,0,1,356.25,174.57ZM354,171.63a4,4,0,0,0,4.83-.29l8.41-7.12h0a4,4,0,0,0,1.09-4.72Z"/><path class="cls-2" d="M395.52,232.7A4.74,4.74,0,0,1,391.9,231l-43.51-51.39a4.75,4.75,0,0,1,.55-6.68l21.5-18.2h0a4.74,4.74,0,0,1,6.68.56l43.51,51.39a4.75,4.75,0,0,1-.55,6.68l-21.5,18.2A4.72,4.72,0,0,1,395.52,232.7Zm-23.61-76.22-21.5,18.2a2.47,2.47,0,0,0-.29,3.48l43.51,51.4a2.47,2.47,0,0,0,3.48.28l21.5-18.2a2.47,2.47,0,0,0,.29-3.48l-43.51-51.39a2.49,2.49,0,0,0-3.48-.29Z"/><path class="cls-2" d="M76.48,244.16a1.19,1.19,0,0,1-.32,0,1.14,1.14,0,0,1-.78-1.4l22-76.76-82.2-23.54a1.13,1.13,0,0,1,.62-2.18l83.3,23.85a1.15,1.15,0,0,1,.78,1.41L77.57,243.33A1.15,1.15,0,0,1,76.48,244.16Z"/><path class="cls-2" d="M84.26,238.4a1.22,1.22,0,0,1-.46-.09,1.13,1.13,0,0,1-.58-1.5l31.37-71.56-75.22-33-3.46,7.87a1.14,1.14,0,1,1-2.08-.91l3.91-8.92a1.16,1.16,0,0,1,.63-.6,1.14,1.14,0,0,1,.87,0l77.31,33.9a1.13,1.13,0,0,1,.58,1.49L85.3,237.72A1.14,1.14,0,0,1,84.26,238.4Z"/><path class="cls-2" d="M85.61,173.23a.84.84,0,0,1-.31,0L14.48,152.9a1.13,1.13,0,0,1,.62-2.18L85.92,171a1.14,1.14,0,0,1-.31,2.23Z"/><path class="cls-2" d="M82.86,182.86a1.17,1.17,0,0,1-.32,0l-67.71-19.4a1.13,1.13,0,1,1,.62-2.18l67.72,19.39a1.14,1.14,0,0,1-.31,2.23Z"/><path class="cls-2" d="M80.1,192.49a1.17,1.17,0,0,1-.32,0l-64.95-18.6a1.15,1.15,0,0,1-.78-1.41,1.14,1.14,0,0,1,1.4-.78l65,18.6a1.14,1.14,0,0,1-.31,2.23Z"/><path class="cls-2" d="M77.34,202.12a1.1,1.1,0,0,1-.31,0l-62.2-17.81a1.15,1.15,0,0,1-.78-1.41,1.14,1.14,0,0,1,1.4-.78l62.2,17.81a1.15,1.15,0,0,1,.78,1.41A1.13,1.13,0,0,1,77.34,202.12Z"/><path class="cls-2" d="M74.58,211.75a1.1,1.1,0,0,1-.31,0l-59.44-17a1.15,1.15,0,0,1-.78-1.41,1.14,1.14,0,0,1,1.4-.78l59.44,17a1.14,1.14,0,0,1,.78,1.41A1.12,1.12,0,0,1,74.58,211.75Z"/><path class="cls-2" d="M71.82,221.38a1.1,1.1,0,0,1-.31,0L14.83,205.11a1.14,1.14,0,0,1,.62-2.19l56.68,16.24a1.13,1.13,0,0,1-.31,2.22Z"/><path class="cls-2" d="M69.07,231a1.17,1.17,0,0,1-.32,0L14.83,215.53a1.14,1.14,0,0,1,.62-2.19l53.93,15.45a1.13,1.13,0,0,1-.31,2.22Z"/><path class="cls-2" d="M66.31,240.64a1.17,1.17,0,0,1-.32,0L14.83,226a1.14,1.14,0,0,1-.78-1.41,1.12,1.12,0,0,1,1.4-.77l51.17,14.65a1.13,1.13,0,0,1-.31,2.22Z"/><path class="cls-2" d="M41.93,244.08a1.17,1.17,0,0,1-.32,0l-26.78-7.67a1.14,1.14,0,0,1,.62-2.19l26.79,7.68a1.13,1.13,0,0,1-.31,2.22Z"/><path class="cls-2" d="M115.47,144.49a10,10,0,0,1-2-.21,10.17,10.17,0,1,1,12.12-11.41,10,10,0,0,1,.11,1.44A10.2,10.2,0,0,1,115.47,144.49Zm0-18.08a7.91,7.91,0,0,0-1.6,15.65,8.59,8.59,0,0,0,1.6.16,7.91,7.91,0,0,0,7.9-7.91,7,7,0,0,0-.08-1.12A7.93,7.93,0,0,0,115.47,126.41Z"/><path class="cls-2" d="M122.67,152.08a10.11,10.11,0,0,1-7.17-3,1.13,1.13,0,0,1,1.6-1.61,7.91,7.91,0,0,0,11.83-10.44,1.14,1.14,0,1,1,1.8-1.39,10.06,10.06,0,0,1,2.12,6.22A10.2,10.2,0,0,1,122.67,152.08Z"/><path class="cls-2" d="M144.56,140a10.18,10.18,0,1,1,10.17-10.18A10.19,10.19,0,0,1,144.56,140Zm0-18.09a7.91,7.91,0,1,0,7.9,7.91A7.92,7.92,0,0,0,144.56,121.86Z"/><path class="cls-2" d="M144.56,170.27a10.18,10.18,0,1,1,10.17-10.17A10.18,10.18,0,0,1,144.56,170.27Zm0-18.08a7.91,7.91,0,1,0,7.9,7.91A7.92,7.92,0,0,0,144.56,152.19Z"/></g><g id="Fill"><polygon class="cls-3" points="286.1 197.96 286.1 140.6 286.1 134.66 286.1 117.57 286.1 56.44 278.75 56.44 278.75 124.67 278.75 133.53 278.75 197.96 201.85 197.96 173.31 49.8 161.46 49.8 161.46 197.96 168.81 197.96 168.81 205.3 286.1 205.3 286.1 197.96 286.1 197.96"/></g><g id="Outlines"><path class="cls-4" d="M175.07,132.23h90a1.5,1.5,0,0,0,0-3h-90a1.5,1.5,0,0,0,0,3Z"/><path class="cls-4" d="M175.07,145.61h78.84a1.5,1.5,0,0,0,0-3H175.07a1.5,1.5,0,0,0,0,3Z"/><path class="cls-4" d="M175.07,118.84h78.84a1.5,1.5,0,0,0,0-3H175.07a1.5,1.5,0,0,0,0,3Z"/><path class="cls-4" d="M175.07,159h86.12a1.5,1.5,0,0,0,0-3H175.07a1.5,1.5,0,0,0,0,3Z"/><path class="cls-4" d="M175.07,172.38h78.84a1.5,1.5,0,0,0,0-3H175.07a1.5,1.5,0,0,0,0,3Z"/><path class="cls-4" d="M175.07,185.77H263a1.5,1.5,0,0,0,0-3H175.07a1.5,1.5,0,0,0,0,3Z"/><path class="cls-4" d="M204,104.14a1.5,1.5,0,0,0,1.5-1.5,15.84,15.84,0,0,1,31.67,0,1.5,1.5,0,1,0,3,0,18.84,18.84,0,0,0-37.67,0A1.5,1.5,0,0,0,204,104.14Z"/><path class="cls-4" d="M221,80a9.31,9.31,0,1,0-9.31-9.31A9.31,9.31,0,0,0,221,80Zm0-15.62a6.31,6.31,0,1,1-6.31,6.31A6.32,6.32,0,0,1,221,64.39Z"/><path class="cls-4" d="M186,95.47a1.5,1.5,0,0,0,1.5-1.5,11.12,11.12,0,0,1,11.11-11.1,11,11,0,0,1,5.93,1.72,1.5,1.5,0,0,0,1.61-2.54A14.11,14.11,0,0,0,184.51,94,1.5,1.5,0,0,0,186,95.47Z"/><path class="cls-4" d="M198.42,76.92a7.18,7.18,0,1,0-7.18-7.18A7.19,7.19,0,0,0,198.42,76.92Zm0-11.36a4.18,4.18,0,1,1-4.18,4.18A4.18,4.18,0,0,1,198.42,65.56Z"/><path class="cls-4" d="M237.53,84.59a11.1,11.1,0,0,1,17,9.38,1.5,1.5,0,0,0,3,0,14.1,14.1,0,0,0-21.65-11.91,1.5,1.5,0,0,0,1.61,2.53Z"/><path class="cls-4" d="M243.66,76.92a7.18,7.18,0,1,0-7.18-7.18A7.2,7.2,0,0,0,243.66,76.92Zm0-11.36a4.18,4.18,0,1,1-4.18,4.18A4.19,4.19,0,0,1,243.66,65.56Z"/><path class="cls-4" d="M281.19,198V49.8a1.5,1.5,0,0,0-1.5-1.5H162.4a1.5,1.5,0,0,0-1.5,1.5V198a1.5,1.5,0,0,0,1.5,1.5H279.69A1.5,1.5,0,0,0,281.19,198Zm-3-1.5H163.9V51.3H278.19Z"/><path class="cls-4" d="M287,55.31a1.5,1.5,0,0,0-1.5,1.5V203.75H169.68a1.5,1.5,0,0,0,0,3H287a1.5,1.5,0,0,0,1.5-1.5V56.81A1.5,1.5,0,0,0,287,55.31Z"/></g></svg> 