<?xml version="1.0" encoding="UTF-8"?><svg id="a" xmlns="http://www.w3.org/2000/svg" width="300" height="300" viewBox="0 0 300 300"><g id="b"><path d="M38.47,168.36c.66-.22,99.53-46.36,99.53-46.36l3.1-.67,2,2.44s.22,2.22,.44,3.1,.43,36.36,.44,37c-.32,1.22-.77,2.41-1.33,3.54,0,0-.44,1.78-4.21,2s-27.49-.22-27.49-.22l-72.48-.83Z" style="fill:#b3cbe8;"/><path d="M258.72,168.36c-.67-.22-99.54-46.33-99.54-46.33l-3.11-.67-2,2.44s-.22,2.22-.44,3.1-.44,36.36-.45,37c.33,1.22,.77,2.41,1.33,3.54,0,0,.45,1.78,4.21,2s27.49-.22,27.49-.22l72.51-.86Z" style="fill:#b3cbe8;"/><path d="M156.52,255.38c-1.66,0-3-1.34-3-3l-1-172.48c0-1.66,1.34-3,3-3h0c1.66,0,3,1.34,3,3h0l1,172.48c0,1.66-1.34,3-3,3Z" style="fill:#b3cbe8;"/><path d="M129.58,76.14h31.71s1.55,0,1.55-2v-6.43l4,.67,1.77,2.88-1.11,7.54s-3.83,3.18-4.21,2.88-28.82,.22-28.82,.22l-3.55-1.55-1.34-4.21Z" style="fill:#b3cbe8;"/></g><g id="c"><path d="M138.58,116.88c-.83,0-1.5-.67-1.5-1.5v-27.49c0-.83,.67-1.5,1.5-1.5s1.5,.67,1.5,1.5v27.49c0,.83-.67,1.49-1.5,1.5Z" style="fill:#2147aa;"/><path d="M159,116.88c-.83,0-1.5-.67-1.5-1.5v-27.49c0-.83,.67-1.5,1.5-1.5s1.5,.67,1.5,1.5v27.49c0,.83-.67,1.5-1.5,1.5Z" style="fill:#2147aa;"/><path d="M138.58,255.43c-.83,0-1.5-.67-1.5-1.5v-79.58c0-.83,.67-1.5,1.5-1.5s1.5,.67,1.5,1.5v79.58c0,.83-.67,1.5-1.5,1.5Z" style="fill:#2147aa;"/><path d="M159,255.43c-.83,0-1.5-.67-1.5-1.5v-79.58c0-.83,.67-1.5,1.5-1.5s1.5,.67,1.5,1.5v79.58c0,.83-.67,1.5-1.5,1.5Z" style="fill:#2147aa;"/><path d="M138,170.75H22.52c-.47,0-.92-.22-1.2-.6L2.92,146c-.4-.54-.4-1.27,0-1.81l18.41-24.19c.28-.37,.72-.59,1.19-.59h115.25c.52,0,3.92,0,6.08,2,1.1,1.08,1.7,2.56,1.66,4.1v39c.04,1.54-.56,3.03-1.66,4.11-1.63,1.38-3.71,2.14-5.85,2.13Zm-114.7-3h114.5c.76,0,2.88-.16,4-1.22,.51-.51,.78-1.22,.74-1.94v-39c.04-.73-.24-1.43-.75-1.95-1.13-.83-2.51-1.25-3.91-1.2H23.26l-17.26,22.62,17.3,22.69Z" style="fill:#2147aa;"/><path d="M29,153.13c-.4,0-.78-.16-1.06-.44l-6.7-6.69c-.27-.26-.43-.62-.44-1,0-.4,.16-.78,.44-1.06l6.65-6.65c.56-.61,1.51-.64,2.12-.07,.61,.56,.64,1.51,.07,2.12-.02,.03-.05,.05-.07,.07l-5.59,5.59,5.59,5.6c.58,.59,.58,1.53,0,2.12-.27,.26-.63,.4-1.01,.41Z" style="fill:#2147aa;"/><path d="M125.83,138.38H38.7c-.83,0-1.5-.67-1.5-1.5s.67-1.5,1.5-1.5H125.83c.83,0,1.5,.67,1.5,1.5s-.67,1.5-1.5,1.5h0Z" style="fill:#2147aa;"/><path d="M125.83,147.14H38.7c-.83,0-1.5-.67-1.5-1.5s.67-1.5,1.5-1.5H125.83c.83,0,1.5,.67,1.5,1.5s-.67,1.5-1.5,1.5h0Z" style="fill:#2147aa;"/><path d="M125.83,155.89H46.9c-.83,0-1.5-.67-1.5-1.5s.67-1.5,1.5-1.5H125.83c.83,0,1.5,.67,1.5,1.5s-.67,1.5-1.5,1.5Z" style="fill:#2147aa;"/><path d="M159.55,170.75c-2.13,.04-4.21-.69-5.85-2.05-1.1-1.08-1.7-2.57-1.66-4.11v-39c-.04-1.54,.56-3.03,1.66-4.1,2.15-2.08,5.56-2.06,6.07-2h115.23c.47,0,.91,.22,1.19,.59l18.4,24.14c.41,.53,.41,1.28,0,1.81l-18.4,24.19c-.28,.38-.72,.6-1.19,.6h-115.45v-.07Zm0-48.33c-1.37-.04-2.71,.39-3.8,1.21-.51,.51-.78,1.22-.74,1.94v39c-.04,.72,.23,1.43,.74,1.94,1.13,.84,2.51,1.27,3.92,1.22h114.61l17.26-22.69-17.25-22.62h-114.54c-.06,0-.11,0-.17,0h-.03Z" style="fill:#2147aa;"/><path d="M268.6,153.13c-.83,0-1.5-.67-1.5-1.5,0-.4,.16-.78,.44-1.06l5.59-5.6-5.59-5.59c-.59-.58-.59-1.52-.01-2.11h.01c.59-.59,1.53-.59,2.12-.01l6.65,6.65c.28,.28,.44,.66,.44,1.06,0,.4-.16,.78-.44,1.06l-6.65,6.66c-.28,.28-.66,.44-1.06,.44Z" style="fill:#2147aa;"/><path d="M258.84,138.38h-87.12c-.83,0-1.5-.67-1.5-1.5s.67-1.5,1.5-1.5h87.12c.83,0,1.5,.67,1.5,1.5s-.67,1.5-1.5,1.5Z" style="fill:#2147aa;"/><path d="M258.84,147.14h-87.12c-.83,0-1.5-.67-1.5-1.5s.67-1.5,1.5-1.5h87.12c.83,0,1.5,.67,1.5,1.5s-.67,1.5-1.5,1.5Z" style="fill:#2147aa;"/><path d="M250.64,155.89h-78.92c-.83,0-1.5-.67-1.5-1.5s.67-1.5,1.5-1.5h78.92c.83,0,1.5,.67,1.5,1.5s-.67,1.5-1.5,1.5Z" style="fill:#2147aa;"/><path d="M162.9,82.88h-28.26c-3.59,0-6.49-2.91-6.5-6.5v-4c0-3.59,2.91-6.49,6.5-6.5h28.26c3.59,0,6.49,2.91,6.5,6.5v4c0,3.59-2.91,6.5-6.5,6.5Zm-28.26-14c-1.93,0-3.5,1.57-3.5,3.5v4c0,1.93,1.57,3.5,3.5,3.5h28.26c1.93,0,3.5-1.57,3.5-3.5v-4c0-1.93-1.57-3.5-3.5-3.5h-28.26Z" style="fill:#2147aa;"/></g></svg>