<?xml version="1.0" encoding="UTF-8"?><svg id="a" xmlns="http://www.w3.org/2000/svg" width="175" height="175" viewBox="0 0 175 175"><g id="b"><path d="M93.73,15.5c0,1.14-5.14,5.86-3.15,6.16,15.05,9.15,14.1,10.16,16.02,5.64,3.84-8.58,1.58-31.67,8.32-6.71,2.97-4.1,4.74,4.6,4.42,6.35,2.96,.48,.8,3.96,2.27,6.16,5.56,3.98,7.98,3.79,9.96,10.93,1.49-.37,2.58-.17,2.86,1.7,.59,2.87,5.4,5,6.03,7.66,6.65,20.69-6.91,18.8-8.88,35-1.44,1.03-3.19-.19-3.15,.24-7.42,4.26-8.49,2.22-11.55,1.28-4.01,4.31-9.39-1.74-10.46-.28-5.13-1.34-2.69-8.46-6.54-7.46-.52-2.55-1.96-3.08-1.96-3.08-1.79,4.4-1.71-1.88-.76-3.29-2.61-1.5-5.27,9.04-7.59,1.31-5.4-11.51-27.72-5.04-33.89,.26-14.13-1.57-11.64,5.33-20.48,2.33-2.69-1.51-2.35-2.84-2.05-3.36,3.3-2.72,.16-6.82-1.18-10.64-.35-5.29-1.84-3.08-2.55-7.01-2.43-6.04,1.68-1.42,.19-5.97-6.44-12.33,9.57-13.01,15.15-16.41,4.22,1.63,6.56-3.72,8.61-5.58-1.88-2.23,.6-3.38,1.6-4.11,.77,3.01,2.29,3.82,2.26,1.23-.83-4.43,2.34-.93,2.06-1.86-1.21-2.86,2.79-4.52,4.65-5.99,4.37-3.58,4.24,2.35,9.18,2.06,1.2,0,1.03-.67,.52-1.96,3.35-13.44,19.52-6.88,20.1-4.61Z" style="fill:#b3cbe8;"/><path d="M117.14,98.41c-.31-2.39,4.86,1.74,9.92-.57,1.97,3.29-3.33,9.24-5.86,7.81-2.6-.68-3.13-6.07-4.06-7.23Z" style="fill:#b3cbe8;"/><path d="M114.08,165.36c1.31-6.3,3.48-12.39,6.45-18.1,1.61-2.92,5.99-5.96,9.84-7.91,5.64-2.87,11.19-5.12,15.57-7.17,4.03-1.84,14.54-14.67,17.48-17.64s-9.13,14.28-9.13,14.28l4.83-4.87-11.45,12.14-12.63,5.94s-7.63,6.42-7.63,7.18-2.88,9.76-2.88,9.76l-2.63,7.5s.04,.44-7.81-1.12Z" style="fill:#b3cbe8;"/><path d="M5.27,85.97s2.15-2.68,4.11-1.78c1.94,1.05,3.79,2.25,5.54,3.58,1.03-.54,2.29-.32,3.08,.54,1.6,1.44,3.39,3.08,3.38,3.76,0,.25,3.08,.43,3.75,2.56,1.32,3.89,6.15,13.11,6.15,13.11,0,0-3.2,1.43-3.52,.77s-3.21,.72-3.92,1.97c-.65,.9-1.51,1.63-2.51,2.13l-2.68-2.68-4.09-13.35-3.39-7.68-5.89-2.91Z" style="fill:#b3cbe8;"/><path d="M170.4,85.13s-2.14-2.68-4.11-1.79c-1.94,1.05-3.79,2.24-5.55,3.57-1.03-.54-2.29-.32-3.08,.53-1.6,1.44-3.39,3.08-3.39,3.75,0,.25-3.03,.43-3.76,2.55-1.32,3.89-6.18,13.1-6.18,13.1,0,0,3.19,1.44,3.52,.77s3.21,.72,3.92,1.98c.65,.9,1.51,1.64,2.5,2.14l2.68-2.68,4.12-13.34,3.41-7.68,5.91-2.9Z" style="fill:#b3cbe8;"/><path d="M60.39,165.3c-1.3-6.3-3.45-12.4-6.41-18.11-1.61-2.93-5.98-5.97-9.82-7.93-5.63-2.88-11.18-5.15-15.55-7.21-4.02-1.85-14.5-14.7-17.44-17.68s9.1,14.3,9.1,14.3l-4.82-4.88,11.42,12.16,12.62,5.97s7.61,6.44,7.61,7.2,2.85,9.77,2.85,9.77l2.61,7.51s-.04,.44,7.82-1.1Z" style="fill:#b3cbe8;"/></g><path d="M71.96,71.56c-.43,0-.77-.34-.77-.77V21.81c0-.43,.34-.77,.77-.77s.77,.34,.77,.77v48.98c0,.42-.33,.76-.75,.77,0,0-.01,0-.02,0Z" style="fill:#c8d9ee;"/><path d="M106.41,90.33c-.43,0-.77-.34-.77-.77V55.03h-33.68c-.43,0-.77-.34-.77-.77s.34-.77,.77-.77h34.45c.43,0,.77,.34,.77,.77v35.26c.03,.42-.29,.78-.71,.81-.02,0-.04,0-.06,0Z" style="fill:#c8d9ee;"/><path d="M131.64,88.5c-.08,.01-.17,.01-.26,0-3.91-1.41-4.59-2.29-5.38-3.6l-.34-.54c-.11-.11-1.03-.72-7.19,.14-.22,.06-.46,.08-.69,.07-.43,0-1.75-.41-4.86-3.45-1.77-1.58-4.07-2.43-6.45-2.39-.42,.03-.79-.28-.82-.69v-.02c-.02-.43,.3-.79,.73-.82,2.81-.07,5.54,.95,7.62,2.83,2.54,2.47,3.65,2.94,3.87,3.01l.38-.06c5.42-.76,7.95-.61,8.71,.53,.14,.22,.26,.41,.37,.61,.61,1.03,1.03,1.65,4.58,2.95,.4,.14,.62,.57,.48,.98-.11,.32-.4,.53-.74,.52l-.02-.05Z" style="fill:#c8d9ee;"/><path d="M136.38,63.85c-.19,0-.38-.07-.51-.21-1.65-1.64-4.29-1.69-6-.12-.15,.12-.33,.19-.52,.2h-22.93c-.43,0-.77-.34-.77-.77s.34-.77,.77-.77h22.59c2.19-1.83,5.37-1.8,7.53,.06,.12-.02,.23-.07,.34-.12,.18-.51,.55-.93,1.03-1.18,1.33-.63,2.78-.97,4.25-1.03,.44-.03,.81,.31,.84,.74,.03,.44-.31,.81-.74,.84-1.2,.03-2.39,.29-3.5,.76-.28,.17-.32,.26-.37,.4-.28,.69-.72,1.03-1.84,1.19h-.15Z" style="fill:#c8d9ee;"/><path d="M98.29,55.03c-.43,0-.77-.34-.77-.77h0V26.66c0-.43,.34-.77,.77-.77s.77,.34,.77,.77v27.6c0,.42-.35,.76-.77,.77Z" style="fill:#c8d9ee;"/><g id="c"><path d="M172.11,84.57c-.86-.62-1.95-.33-3.08,.2-.03-.2-.08-.39-.16-.56-.22-.48-.65-.83-1.16-.96-3.03-.57-6.15,.48-8.22,2.77h0c-3.12,.13-5.86,2.1-6.98,5.01-.06,.17-.14,.36-.23,.56-1.21-.15-2.41,.4-3.08,1.43-1.18,1.63-5.25,12.17-6.32,14.98-4.64,2.38-13.03,8.06-15.5,9.76-7.12,1.12-13.85,3.98-19.59,8.33-7.39,5.69-9.51,26.52-10.11,38.44-.04,.7,.5,1.3,1.2,1.34h.09c.68,0,1.24-.53,1.27-1.21,.37-7.19,2.12-31.14,9.12-36.53,5.47-4.11,11.87-6.82,18.64-7.87,.21-.02,.42-.09,.6-.22,3.55-2.44,8.22-5.5,11.83-7.7-.37,.41-.43,1.02-.15,1.5l2.97,4.88c.23,.38,.65,.62,1.1,.62,.14,0,.28-.03,.42-.07,2.1-.77,4.02-1.95,5.66-3.47-2.39,2.57-10.77,8.75-14.79,10.18-3.58,1.28-10.8,7.35-11.48,8.03-.5,.5-.5,1.32,0,1.82s1.32,.5,1.82,0c.73-.74,7.59-6.38,10.53-7.42,3.27-1.17,15.49-9.01,16.91-12.43,.28-.7,.38-1.46,.29-2.21l2.64-2.23c.18-.15,.31-.35,.39-.58,0-.12,3.76-11.51,5.83-16.8,1.59-4.11,3-4.78,5.56-6.03,.49-.25,1.03-.5,1.58-.8,.21-.12,.43-.23,.65-.32,0,.36-.11,.81-.17,1.2s-.16,1.03-.25,1.56c-.46,3.52-6.76,24.13-8.31,27.23-1.47,2.94-12.07,15.4-13.13,16.37l-2.13,1.17c-4.63,2.53-14.24,7.78-17.81,10.6-3.31,2.62-5.73,10.85-7.74,18.38l-.27,1.03c-.18,.69,.22,1.39,.91,1.58,.69,.18,1.39-.22,1.58-.91h0l.27-1.03c1.27-4.78,3.93-14.72,6.85-17.02,3.39-2.68,13.24-8.07,17.46-10.37,1.56-.85,2.11-1.15,2.3-1.28,1.15-.77,12.46-14.24,14.02-17.35,1.65-3.32,8.05-24.28,8.55-28.04,.07-.53,.15-1.03,.23-1.49,.29-1.84,.52-3.29-.58-4.07Zm-17.24,7.42c.5-1.35,1.54-2.43,2.87-3-2.15,4.63-6.33,14.9-7.92,18.93-.35-.22-.72-.4-1.1-.55,1.2-3.01,4.74-11.92,6.15-15.37h0Zm-4.03,2.24c.14-.21,.33-.38,.55-.49-1.8,4.46-4.48,11.21-5.26,13.15-.22-.02-.45-.02-.67,0,1.98-5.05,4.64-11.66,5.37-12.66h0Zm-1.64,19.02c-1.17,1.41-2.67,2.51-4.36,3.2l-1.79-2.95c1.27-.96,2.62-1.82,4.03-2.58h0c.75-.24,1.56,0,2.05,.62,.46,.46,.49,1.2,.07,1.7h0Zm10.94-20.02c-1.89,4.84-5.13,14.62-5.77,16.58l-1.56,1.32c-.24-.43-.51-.85-.81-1.24l-.14-.15c1.32-3.33,6.74-16.88,8.75-20.76,1.1-2.17,3.39-3.48,5.82-3.32-.02,.09-.05,.17-.09,.26-.03,.08-.05,.17-.06,.26-2.39,1.2-4.33,2.47-6.13,7.05h0Z" style="fill:#2157aa;"/><path d="M113.49,92.71c-1.76-.12-3.47-.62-5.01-1.47-.44-.22-.89-.42-1.35-.59-.3,.19-.68,.25-1.03,.15-3.34-.87-4.11-3.77-4.69-5.68s-.66-1.92-1.2-1.78c-.35,.09-.72,.04-1.03-.15-.3-.19-.51-.49-.58-.83-.08-.43-.23-.84-.42-1.23-.28,.39-.72,.64-1.2,.68-.59,.03-1.14-.27-1.42-.79-.35-.86-.47-1.81-.35-2.73l-.21,.26c-1.12,1.42-2.27,2.89-3.89,2.58s-2.29-2.05-2.77-3.65c-1.28-2.66-3.73-4.4-7.27-5.13-8.22-1.74-20.39,2.35-24.58,5.96-.27,.24-.62,.35-.98,.31-6.96-.76-9.51,.55-11.76,1.71s-4.24,2.19-9,.59l-.22-.1c-3.8-2.13-2.93-4.44-2.58-5.13,.08-.14,.19-.27,.32-.38,1.62-1.33,1.03-3.08-.47-6.53-.39-.87-.8-1.78-1.12-2.68-.04-.11-.06-.22-.07-.34-.16-2.52-.55-2.97-1.03-3.48-.82-.91-1.34-2.04-1.5-3.26-.87-2.17-1.03-3.3-.63-4.11,.21-.43,.58-.76,1.03-.93-.05-.25-.12-.5-.21-.75-1.65-3.21-2.05-6.03-1.09-8.39,1.66-4.18,6.88-5.96,11.48-7.53,1.84-.56,3.62-1.29,5.31-2.2,.34-.21,.76-.24,1.13-.1,2.13,.81,3.57-.78,5.53-3.31,.34-.43,.67-.85,1.03-1.24-.29-.54-.4-1.16-.32-1.77,.33-1.28,1.19-2.35,2.36-2.96l.4-.28c.34-.26,.79-.33,1.2-.2,.4,.15,.71,.49,.82,.9,.04,.17,.08,.34,.14,.5,.38-.65,.83-1.26,1.32-1.83-.09-2.61,2.85-4.4,4.74-5.55l.79-.48c3.46-2.19,5.13-.68,6.42,.43,.73,.82,1.74,1.32,2.83,1.4-.04-.08-.07-.16-.09-.25-.08-.24-.08-.51,0-.75,1.47-5.82,5.52-9.04,11.42-9.05h0c4.85,0,10.57,2.35,11.14,4.59,.02,.12,.02,.25,0,.37,0,.81-.65,1.65-1.85,3.18-.43,.55-1.14,1.47-1.51,2.05,3.14,1.9,5.52,3.42,7.47,4.65,2.66,1.69,4.79,3.08,5.47,3.14,.27-.47,.5-.96,.7-1.46l.15-.37c1.24-2.8,1.83-7.41,2.3-11.13,.66-5.13,.96-7.5,2.78-7.62,1.46-.1,2.5,.92,5.13,10.27,.56-.22,1.19-.22,1.75,0,2.19,.93,3.08,5.31,3.26,7.61,1.73,.82,1.69,2.76,1.68,3.99-.07,.73,.01,1.47,.26,2.17,1.14,.8,2.15,1.43,3.08,1.98,3.23,2.05,5.27,3.31,6.89,8.39,.65-.04,1.3,.12,1.85,.47,.79,.59,1.29,1.49,1.38,2.46,.21,1.03,1.48,2.15,2.7,3.26,1.43,1.28,2.91,2.61,3.32,4.29,4.11,12.87,.62,17.6-3.08,22.59-2.43,3.27-4.95,6.64-5.7,12.85-.04,.35-.23,.67-.51,.87-1.05,.7-2.36,.88-3.55,.49-5.97,3.39-8.22,2.9-10.92,1.77l-.68-.28c-1.02,.96-2.36,1.5-3.76,1.52Zm-6.58-4.65c.94,.1,1.84,.39,2.66,.86,2.54,1.19,4.62,1.96,6.41,0,.33-.36,.84-.5,1.31-.36,.61,.18,1.14,.41,1.61,.61,1.94,.81,3.35,1.4,8.68-1.63l.08-.08c.48-.36,1.11-.43,1.66-.21,.36,.12,.74,.17,1.12,.14,.93-6.44,3.67-10.1,6.1-13.35,3.61-4.86,6.48-8.69,2.7-20.38-.25-1.03-1.42-2.05-2.56-3.08-1.54-1.38-3.08-2.81-3.51-4.69-.01-.28-.11-.56-.27-.79,0,0-.22-.12-1.03,.07-.67,.17-1.36-.23-1.54-.89-1.41-5.05-2.88-5.98-6.16-8-.98-.61-2.05-1.3-3.38-2.22-.12-.09-.23-.2-.31-.33-.68-1.13-.97-2.45-.84-3.76,0-1.66-.09-1.67-.61-1.76-.34-.05-.65-.24-.85-.52-.21-.3-.29-.67-.22-1.03,.21-1.11-.75-5.27-1.62-5.9-.19,.15-.36,.33-.49,.53-.29,.4-.79,.61-1.27,.51-.5-.08-.9-.44-1.03-.92-.77-3.06-1.71-6.08-2.82-9.04-.21,1.16-.41,2.73-.59,4.11-.49,3.88-1.1,8.7-2.5,11.83l-.14,.34c-.63,1.49-1.03,2.57-2.26,2.94-1.5,.46-2.93-.44-7.65-3.45-1.97-1.25-4.42-2.8-7.64-4.76-.51-.15-.93-.53-1.12-1.03-.48-1.23,.5-2.59,2.16-4.7,.35-.46,.84-1.09,1.13-1.51-3.06-1.97-6.71-2.8-10.32-2.35-3.56,.58-5.9,2.79-6.97,6.58,.43,.79,.43,1.74,0,2.53-.43,.55-1.11,.84-1.81,.78-1.93,.1-3.81-.65-5.13-2.05-1.13-1.03-1.51-1.35-3.34-.18l-.84,.51c-2.25,1.37-3.45,2.28-3.47,3.23,.25,.4,.34,.88,.26,1.35-.07,.55-.49,.99-1.03,1.09-.12,.02-.25,.02-.37,0-.2,.29-.47,.69-.82,1.26-.4,.92-1.35,1.48-2.35,1.38-.7-.14-1.3-.6-1.6-1.25-.18,.13-.31,.32-.38,.53,.04,.28,.17,.54,.38,.74,.44,.53,.39,1.31-.12,1.78-.52,.54-1.01,1.11-1.46,1.71-1.66,2.16-4.11,5.34-7.87,4.32-1.7,.82-3.45,1.51-5.26,2.05-4.11,1.4-8.69,2.98-9.92,6.06-.66,1.67-.33,3.75,1.03,6.34,.03,.06,.06,.13,.08,.2,.48,1.47,.52,2.35,.15,3.08-.23,.41-.59,.72-1.03,.88,.16,.67,.38,1.33,.66,1.96,.04,.08,.06,.16,.07,.25,.06,.81,.39,1.57,.94,2.16,.78,.9,1.4,1.83,1.62,4.82,.27,.76,.63,1.55,1.03,2.33,1.33,2.95,2.98,6.6,0,9.31,0,.32,.49,.86,1.5,1.45,3.64,1.2,4.87,.56,6.88-.47,2.26-1.17,5.34-2.75,12.67-2.05,4.89-3.82,17.38-8.08,26.36-6.16,4.41,.93,7.47,3.17,9.1,6.64,0,.06,.05,.12,.07,.17,.16,.67,.43,1.31,.81,1.89,.48-.45,.92-.95,1.29-1.49,1.17-1.49,2.77-3.52,4.79-2.38,.61,.34,.83,1.12,.49,1.73-.02,.04-.04,.07-.07,.1-.18,.41-.3,.84-.34,1.28,.17,0,.35,.04,.51,.09,1.18,.6,2.07,1.66,2.43,2.94,2.05,.14,2.66,2.32,3.08,3.7,.52,1.84,1.03,3.08,2.37,3.73,.21-.07,.43-.11,.65-.1h.04ZM92.53,15.94h0Z" style="fill:#2157aa;"/><path d="M122.08,107.1c-.46,0-.92-.1-1.33-.3-2.31-.69-3.24-3.66-3.93-5.83-.16-.62-.38-1.21-.66-1.79-.14-.19-.24-.41-.28-.65-.13-.64,.08-1.3,.56-1.75,.82-.75,1.95-.47,3.39-.12,1.82,.44,4.31,1.03,6.71,0,.59-.27,1.29-.05,1.63,.5,1.49,2.47,0,5.81-1.95,7.86-1.06,1.2-2.54,1.95-4.14,2.07Zm-3.18-8.02c.12,.34,.24,.71,.36,1.12,.46,1.46,1.24,3.9,2.27,4.11,.11,.03,.22,.07,.32,.12,.33,.18,1.36-.1,2.53-1.3,1.04-.99,1.7-2.31,1.86-3.73-2.32,.53-4.74,.43-7-.29l-.33-.03Z" style="fill:#2157aa;"/><path d="M66.8,126.1c-5.74-4.35-12.48-7.21-19.59-8.34-2.46-1.69-10.85-7.37-15.5-9.76-1.03-2.81-5.13-13.35-6.32-14.98-.67-1.02-1.87-1.58-3.08-1.43l-.23-.56c-1.12-2.91-3.86-4.89-6.97-5.02h0c-2.07-2.29-5.18-3.34-8.22-2.77-.51,.13-.93,.48-1.16,.96-.08,.18-.13,.37-.15,.56-1.1-.52-2.19-.81-3.08-.2-1.1,.78-.86,2.23-.56,4.06,.07,.46,.15,.96,.23,1.49,.5,3.77,6.9,24.73,8.55,28.04,1.56,3.08,12.87,16.58,14.03,17.35,.18,.13,.74,.43,2.29,1.28,4.21,2.3,14.06,7.69,17.46,10.37,2.91,2.3,5.57,12.24,6.85,17.02l.27,1.03c.15,.69,.83,1.14,1.52,.99,.69-.15,1.14-.83,.99-1.52,0-.05-.02-.09-.04-.14l-.27-1.03c-2.05-7.52-4.43-15.75-7.74-18.37-3.56-2.81-13.19-8.07-17.81-10.61l-2.05-1.11c-1.14-1.03-11.75-13.48-13.22-16.43-1.55-3.08-7.84-23.71-8.31-27.23-.07-.55-.16-1.03-.24-1.56s-.14-.84-.18-1.2c.22,.09,.44,.2,.66,.32,.55,.3,1.03,.55,1.58,.8,2.55,1.25,3.95,1.95,5.56,6.03,2.05,5.29,5.79,16.68,5.82,16.8,.08,.22,.21,.42,.39,.58l2.64,2.23c-.09,.75,0,1.51,.29,2.21,1.43,3.42,13.65,11.3,16.91,12.43,2.94,1.03,9.8,6.69,10.54,7.42,.5,.5,1.31,.5,1.82,0h0c.49-.51,.49-1.31,0-1.82-.69-.68-7.91-6.75-11.49-8.03-4-1.43-12.39-7.6-14.79-10.17,1.64,1.52,3.56,2.69,5.66,3.46,.14,.04,.28,.07,.42,.07,.45,0,.87-.23,1.1-.62l2.97-4.88c.29-.48,.23-1.09-.15-1.5,3.62,2.2,8.28,5.26,11.84,7.7,.17,.12,.37,.2,.59,.22,6.76,1.06,13.15,3.77,18.61,7.89,7.01,5.39,8.75,29.32,9.12,36.53,.03,.68,.6,1.22,1.28,1.21h.06c.7-.03,1.25-.63,1.21-1.33h0c-.58-11.93-2.7-32.76-10.09-38.44Zm-43.07-31.83c.74,1.03,3.39,7.58,5.38,12.71-.23-.02-.45-.02-.68,0-.77-1.94-3.46-8.7-5.25-13.15,.21,.09,.4,.23,.54,.41v.03Zm-4.03-2.24c1.41,3.45,4.96,12.32,6.16,15.4-.38,.15-.75,.34-1.1,.55-1.6-4.09-5.76-14.36-7.92-18.99,1.32,.57,2.35,1.65,2.85,3v.03Zm.5,17.82c-.65-1.96-3.87-11.75-5.77-16.58-1.79-4.59-3.74-5.85-6.16-7.05,0-.08,0-.16,0-.25-.04-.09-.07-.18-.1-.27,2.42-.14,4.71,1.16,5.82,3.32,2.05,3.88,7.42,17.46,8.75,20.76,0,.06-.09,.1-.13,.15-.3,.39-.58,.81-.82,1.24l-1.58-1.32Zm9.53,6.64c-1.69-.7-3.19-1.8-4.35-3.2-.43-.5-.4-1.24,.05-1.7,.39-.45,.95-.71,1.54-.73,.18,0,.37,.03,.53,.11h0c1.4,.76,2.74,1.62,4.02,2.58l-1.79,2.95Z" style="fill:#2157aa;"/></g></svg>