<svg xmlns="http://www.w3.org/2000/svg" viewBox="0 0 350 190"><g id="faa2804e-a55f-4186-927d-781634ad85fc" data-name="Shadow"><rect x="165.23" y="61.43" width="19.37" height="19.37" style="fill:#edca73"/><rect x="165.23" y="130.63" width="19.37" height="19.37" style="fill:#edca73"/><polygon points="226.54 40.11 214.61 60.79 202.77 60.79 215.88 40.11 226.54 40.11" style="fill:#edca73"/><path d="M235.29,58.3l-14.35,16a3.59,3.59,0,0,1-4.64.6l-6.74-4.41-1.71,3.05,11.47,8.37,16-17Z" style="fill:#edca73"/><path d="M132.3,84.2l.84,4.58,7.32,14.16,2.29.55,2.65-1.73,2,1.56h1.79l2-2.19,3,2.19,2.11-.67,0-3.38,3.34-.34,1.48-2.37-9.6-12.73,3.89.81c4.12,0,3-2.79,2.5-3.82l.69.31a3.55,3.55,0,0,1,.14,6.4,3.47,3.47,0,0,1-2.39.3,3.24,3.24,0,0,1-.53-.16l-1.16-.46,7.72,9.31.11.13a3.6,3.6,0,0,1,.64,2.18,3.51,3.51,0,0,1-4.28,3.28h0a3.16,3.16,0,0,1,.08.92,3.48,3.48,0,0,1-1.48,2.73,3.56,3.56,0,0,1-2.8.56,3.52,3.52,0,0,1-2.1-1.41l-.27-.38a3.52,3.52,0,0,1-6,.66,3.56,3.56,0,0,1-.74.71,3.52,3.52,0,0,1-4.9-.84,3.21,3.21,0,0,1-.19-.31L134.6,92.88a2.36,2.36,0,0,1-.27-.66l-2.63-7.57Z" style="fill:#edca73"/><path d="M114.71,58.3l14.35,16a3.59,3.59,0,0,0,4.64.6l6.74-4.41,1.71,3.05-11.46,8.37-16-17Z" style="fill:#edca73"/><polygon points="123.46 40.11 135.39 60.79 147.23 60.79 134.12 40.11 123.46 40.11" style="fill:#edca73"/><path d="M218.13,84.2l-.83,4.58L210,102.94l-2.29.55L205,101.76l-2,1.56h-1.78l-2-2.19-3,2.19-2.12-.67,0-3.38-3.34-.34-1.48-2.37,9.6-12.73-3.89.81c-4.12,0-3-2.79-2.49-3.82l-.69.31a3.55,3.55,0,0,0,2.25,6.7,3.24,3.24,0,0,0,.53-.16l1.16-.46L188,96.52l-.1.13a3.52,3.52,0,0,0,3.64,5.46h0a3.51,3.51,0,0,0,6.3,2.8l.27-.38a3.43,3.43,0,0,0,1.18,1.44,3.52,3.52,0,0,0,4.86-.78,3.13,3.13,0,0,0,.74.71,3.52,3.52,0,0,0,4.9-.84,1.92,1.92,0,0,0,.18-.31l5.8-11.87a2.33,2.33,0,0,0,.26-.66l2.63-7.57Z" style="fill:#edca73"/></g><g id="e1a9a3c7-fb16-4013-be09-528836c89e70" data-name="Background lines copy"><path d="M347.86,74.47H276.23a.91.91,0,0,1-.87-1,.92.92,0,0,1,.87-1h70.21l-4.3-9.27H276.23a1,1,0,0,1,0-1.91h66.44a.87.87,0,0,1,.78.52l5.19,11.19a1,1,0,0,1,0,.93A.86.86,0,0,1,347.86,74.47Z" style="fill:#e1aa21"/><path d="M267.64,173.87a.92.92,0,0,1-.87-1V49.37a.87.87,0,1,1,1.74,0V172.91A.92.92,0,0,1,267.64,173.87Z" style="fill:#e1aa21"/><path d="M261.26,72.48H238.63a.87.87,0,1,1,0-1.74h22.63a.87.87,0,1,1,0,1.74Z" style="fill:#e1aa21"/><path d="M261.26,82.7H229A.88.88,0,1,1,229,81h32.23a.88.88,0,1,1,0,1.75Z" style="fill:#e1aa21"/><path d="M261.26,92.91H226.67a.88.88,0,1,1,0-1.75h34.59a.88.88,0,1,1,0,1.75Z" style="fill:#e1aa21"/><path d="M260.91,103.12H226.67a.88.88,0,1,1,0-1.75h34.24a.88.88,0,1,1,0,1.75Z" style="fill:#e1aa21"/><path d="M260.91,123.45H226.67a.87.87,0,1,1,0-1.74h34.24a.87.87,0,1,1,0,1.74Z" style="fill:#e1aa21"/><path d="M260.91,133.68H226.67a.87.87,0,1,1,0-1.74h34.24a.87.87,0,1,1,0,1.74Z" style="fill:#e1aa21"/><path d="M260.91,143.89H226.67a.88.88,0,1,1,0-1.75h34.24a.88.88,0,1,1,0,1.75Z" style="fill:#e1aa21"/><path d="M260.91,154.09H226.67a.87.87,0,1,1,0-1.74h34.24a.87.87,0,1,1,0,1.74Z" style="fill:#e1aa21"/><path d="M260.91,164.3H226.67a.87.87,0,1,1,0-1.74h34.24a.87.87,0,1,1,0,1.74Z" style="fill:#e1aa21"/><path d="M342.67,171.87a.92.92,0,0,1-.87-1V73.52a.87.87,0,1,1,1.74,0v97.39A.92.92,0,0,1,342.67,171.87Z" style="fill:#e1aa21"/><path d="M288.89,100.12H276a.91.91,0,0,1-.87-1V87.39c0-4.42,3.28-8,7.31-8s7.31,3.59,7.31,8V99.17A.91.91,0,0,1,288.89,100.12Zm-12-1.91H288V87.39a5.59,5.59,0,1,0-11.13,0Z" style="fill:#e1aa21"/><path d="M312.27,100.12H299.4a.91.91,0,0,1-.87-1V87.39c0-4.42,3.27-8,7.3-8s7.31,3.59,7.31,8V99.17A.91.91,0,0,1,312.27,100.12Zm-12-1.91H311.4V87.39a5.59,5.59,0,1,0-11.13,0Z" style="fill:#e1aa21"/><path d="M335.65,100.12H322.78a.91.91,0,0,1-.88-1V87.39c0-4.42,3.28-8,7.31-8s7.31,3.59,7.31,8V99.17A.91.91,0,0,1,335.65,100.12Zm-12-1.91h11.13V87.39a5.59,5.59,0,1,0-11.13,0Z" style="fill:#e1aa21"/><path d="M288.89,129.21H276a.92.92,0,0,1-.87-1V116.47c0-4.41,3.28-8,7.31-8s7.31,3.59,7.31,8v11.78A.92.92,0,0,1,288.89,129.21Zm-12-1.91H288V116.47a5.59,5.59,0,1,0-11.13,0Z" style="fill:#e1aa21"/><path d="M312.27,129.21H299.4a.92.92,0,0,1-.87-1V116.47c0-4.41,3.27-8,7.3-8s7.31,3.59,7.31,8v11.78A.92.92,0,0,1,312.27,129.21Zm-12-1.91H311.4V116.47a5.59,5.59,0,1,0-11.13,0Z" style="fill:#e1aa21"/><path d="M335.65,129.21H322.78a.92.92,0,0,1-.88-1V116.47c0-4.41,3.28-8,7.31-8s7.31,3.59,7.31,8v11.78A.92.92,0,0,1,335.65,129.21Zm-12-1.91h11.13V116.47a5.59,5.59,0,1,0-11.13,0Z" style="fill:#e1aa21"/><path d="M300.85,171.87a.92.92,0,0,1-.87-1V150.78c0-6.24-4.64-11.31-10.33-11.31s-10.34,5.07-10.34,11.31v20.13a.87.87,0,1,1-1.74,0V150.78c0-7.29,5.42-13.23,12.08-13.23s12.07,5.94,12.07,13.23v20.13A.92.92,0,0,1,300.85,171.87Z" style="fill:#e1aa21"/><path d="M333.87,171.87a.92.92,0,0,1-.88-1V150.78c0-6.24-4.63-11.31-10.33-11.31s-10.33,5.07-10.33,11.31v20.13a.87.87,0,1,1-1.74,0V150.78c0-7.29,5.41-13.23,12.07-13.23s12.08,5.94,12.08,13.23v20.13A.92.92,0,0,1,333.87,171.87Z" style="fill:#e1aa21"/><path d="M23.72,59.45H3.27a1,1,0,0,1,0-2H22.62l-1.79-8.83H3.27a1,1,0,0,1,0-2H21.52a.9.9,0,0,1,.85.78l2.2,10.84a1.12,1.12,0,0,1-.16.86A.85.85,0,0,1,23.72,59.45Z" style="fill:#e1aa21"/><path d="M21.52,170.82a1,1,0,0,1-.87-1V58.44a.88.88,0,1,1,1.74,0V169.81A1,1,0,0,1,21.52,170.82Z" style="fill:#e1aa21"/><path d="M82.3,171.87a1,1,0,0,1-.87-1V74H28.74a1,1,0,0,1,0-2H82.3a1,1,0,0,1,.87,1v97.89A1,1,0,0,1,82.3,171.87Z" style="fill:#e1aa21"/><path d="M82.3,74a1,1,0,0,1-.87-1V56.91H28.74a1,1,0,0,1,0-2H82.3a1,1,0,0,1,.87,1V73A1,1,0,0,1,82.3,74Z" style="fill:#e1aa21"/><path d="M90.9,171.87A.87.87,0,0,1,90,171V66.65a.88.88,0,0,1,1.75,0V171A.87.87,0,0,1,90.9,171.87Z" style="fill:#e1aa21"/><path d="M101.16,171.87a.87.87,0,0,1-.87-.87V66.65a.87.87,0,0,1,1.74,0V171A.87.87,0,0,1,101.16,171.87Z" style="fill:#e1aa21"/><path d="M73.58,85.19H28.74a1,1,0,0,1,0-2H73.58a1,1,0,0,1,0,2Z" style="fill:#e1aa21"/><path d="M73.58,97.4H28.74a1,1,0,0,1,0-2H73.58a1,1,0,0,1,0,2Z" style="fill:#e1aa21"/><path d="M73.58,109.6H28.74a1,1,0,0,1,0-2H73.58a1,1,0,0,1,0,2Z" style="fill:#e1aa21"/><path d="M73.58,121.8H28.74a1,1,0,0,1,0-2H73.58a1,1,0,0,1,0,2Z" style="fill:#e1aa21"/><path d="M73.58,134H28.74a1,1,0,0,1,0-2H73.58a1,1,0,0,1,0,2Z" style="fill:#e1aa21"/><path d="M73.58,146.21H28.74a1,1,0,0,1,0-2H73.58a1,1,0,0,1,0,2Z" style="fill:#e1aa21"/><path d="M73.58,158.41H28.74a1,1,0,0,1,0-2H73.58a1,1,0,0,1,0,2Z" style="fill:#e1aa21"/><path d="M73.58,170.61H28.74a1,1,0,0,1,0-2H73.58a1,1,0,0,1,0,2Z" style="fill:#e1aa21"/><path d="M11.34,96.35a1,1,0,0,1-.88-1V72.85a1,1,0,0,1,.88-1,1,1,0,0,1,.87,1V95.34A1,1,0,0,1,11.34,96.35Z" style="fill:#e1aa21"/><path d="M3.27,96.35a1,1,0,0,1-.87-1V72.85a1,1,0,0,1,.87-1,1,1,0,0,1,.88,1V95.34A1,1,0,0,1,3.27,96.35Z" style="fill:#e1aa21"/><path d="M11.34,133.58a.94.94,0,0,1-.88-1v-22.5a1,1,0,0,1,.88-1,1,1,0,0,1,.87,1v22.5A.94.94,0,0,1,11.34,133.58Z" style="fill:#e1aa21"/><path d="M3.27,133.58a.94.94,0,0,1-.87-1v-22.5a1,1,0,0,1,.87-1,1,1,0,0,1,.88,1v22.5A.94.94,0,0,1,3.27,133.58Z" style="fill:#e1aa21"/><path d="M11.34,170.82a1,1,0,0,1-.88-1v-22.5a1,1,0,0,1,.88-1,1,1,0,0,1,.87,1v22.5A1,1,0,0,1,11.34,170.82Z" style="fill:#e1aa21"/><path d="M3.27,170.82a1,1,0,0,1-.87-1v-22.5a1,1,0,0,1,.87-1,1,1,0,0,1,.88,1v22.5A1,1,0,0,1,3.27,170.82Z" style="fill:#e1aa21"/><path d="M52.11,51.2a1,1,0,0,1-.88-1V3.73L5,26.46a.83.83,0,0,1-1.14-.54,1.07,1.07,0,0,1,.46-1.32L51.77,1.28a.77.77,0,0,1,.82.09,1.07,1.07,0,0,1,.39.84v48A1,1,0,0,1,52.11,51.2Z" style="fill:#e1aa21"/><path d="M4.61,42.72a1,1,0,0,1-.87-1V25.53a1,1,0,0,1,.87-1,1,1,0,0,1,.87,1V41.71A1,1,0,0,1,4.61,42.72Z" style="fill:#e1aa21"/><path d="M121.68,171.87a.87.87,0,0,1-.87-.87V81.44a.88.88,0,0,1,1.75,0V171A.87.87,0,0,1,121.68,171.87Z" style="fill:#e1aa21"/><path d="M132.28,171.87c-.48,0-.87-.25-.87-.57V158.77c0-.32.39-.57.87-.57s.87.25.87.57V171.3C133.15,171.62,132.76,171.87,132.28,171.87Z" style="fill:#e1aa21"/><path d="M141.72,171.87c-.48,0-.87-.25-.87-.57V158.77c0-.32.39-.57.87-.57s.87.25.87.57V171.3C142.59,171.62,142.2,171.87,141.72,171.87Z" style="fill:#e1aa21"/><path d="M151.16,171.87c-.48,0-.87-.25-.87-.57V158.77c0-.32.39-.57.87-.57s.88.25.88.57V171.3C152,171.62,151.64,171.87,151.16,171.87Z" style="fill:#e1aa21"/><path d="M160.6,171.87c-.48,0-.87-.25-.87-.57V158.77c0-.32.39-.57.87-.57s.88.25.88.57V171.3C161.48,171.62,161.09,171.87,160.6,171.87Z" style="fill:#e1aa21"/><path d="M170.05,171.87c-.49,0-.88-.25-.88-.57V158.77c0-.32.39-.57.88-.57s.87.25.87.57V171.3C170.92,171.62,170.53,171.87,170.05,171.87Z" style="fill:#e1aa21"/><path d="M179.49,171.87c-.48,0-.87-.25-.87-.57V158.77c0-.32.39-.57.87-.57s.87.25.87.57V171.3C180.36,171.62,180,171.87,179.49,171.87Z" style="fill:#e1aa21"/><path d="M188.93,171.87c-.48,0-.87-.25-.87-.57V158.77c0-.32.39-.57.87-.57s.87.25.87.57V171.3C189.8,171.62,189.41,171.87,188.93,171.87Z" style="fill:#e1aa21"/><path d="M198.37,171.87c-.48,0-.87-.25-.87-.57V158.77c0-.32.39-.57.87-.57s.87.25.87.57V171.3C199.24,171.62,198.85,171.87,198.37,171.87Z" style="fill:#e1aa21"/><path d="M207.81,171.87c-.48,0-.87-.25-.87-.57V158.77c0-.32.39-.57.87-.57s.88.25.88.57V171.3C208.69,171.62,208.3,171.87,207.81,171.87Z" style="fill:#e1aa21"/><path d="M217.26,171.87c-.49,0-.88-.25-.88-.57V158.77c0-.32.39-.57.88-.57s.87.25.87.57V171.3C218.13,171.62,217.74,171.87,217.26,171.87Z" style="fill:#e1aa21"/><path d="M111.42,171.87a.87.87,0,0,1-.87-.87V71.74a.87.87,0,1,1,1.74,0V171A.87.87,0,0,1,111.42,171.87Z" style="fill:#e1aa21"/><path d="M260.91,113.25H226.67a.88.88,0,1,1,0-1.75h34.24a.88.88,0,1,1,0,1.75Z" style="fill:#e1aa21"/><path d="M336.67,177.48H20.27a.87.87,0,1,1,0-1.74h316.4a.87.87,0,1,1,0,1.74Z" style="fill:#e1aa21"/><path d="M347.78,188.2H2a.87.87,0,1,1,0-1.74H347.78a.87.87,0,1,1,0,1.74Z" style="fill:#e1aa21"/><path d="M335.65,57.56a.92.92,0,0,1-.87-1V12.11H276.89v44.5a.87.87,0,1,1-1.74,0V11.16a.92.92,0,0,1,.87-1h59.63a.92.92,0,0,1,.87,1V56.61A.92.92,0,0,1,335.65,57.56Z" style="fill:#e1aa21"/><path d="M199.44,32.57H150.62a.87.87,0,0,1,0-1.74h48.82a.87.87,0,1,1,0,1.74Z" style="fill:#e1aa21"/><path d="M194.31,24.08A.87.87,0,0,1,194,24L157.64,7.81v15.4a.88.88,0,0,1-1.75,0V6.47a.87.87,0,0,1,1.23-.8l37.55,16.74a.88.88,0,0,1,.44,1.16A.87.87,0,0,1,194.31,24.08Z" style="fill:#e1aa21"/><polyline points="149.73 54.2 149.73 27.2 200.73 27.2 200.73 55.2" style="fill:none;stroke:#e1aa21;stroke-linecap:round;stroke-linejoin:round;stroke-width:2px"/></g><g id="f6a23e3a-949b-4f65-8ded-2274f16764f4" data-name="Foreground lines copy"><path d="M158.46,131.78H141.72a1.15,1.15,0,1,1,0-2.3h16.74a1.15,1.15,0,1,1,0,2.3Z" style="fill:#333"/><path d="M158.46,138.66H141.72a1.16,1.16,0,0,1,0-2.31h16.74a1.16,1.16,0,1,1,0,2.31Z" style="fill:#333"/><path d="M236.08,64a1.16,1.16,0,0,0-1.63.05L219,80.35l-9.82-7.16,18.47-33a1.15,1.15,0,1,0-2-1.12L213.78,60.27h-9.9l13.09-20a1.17,1.17,0,0,0-.34-1.6A1.16,1.16,0,0,0,215,39L201.13,60.27H148.66L134.75,39a1.16,1.16,0,0,0-1.59-.34,1.17,1.17,0,0,0-.34,1.6l13.09,20h-9.85L124.19,39.05a1.15,1.15,0,0,0-1.57-.45,1.14,1.14,0,0,0-.44,1.57l18.47,33-9.82,7.16L115.55,64a1.15,1.15,0,1,0-1.68,1.58l16,17a1.22,1.22,0,0,0,.38.26l2.55,7.32a2.09,2.09,0,0,0,.27.66l.85,1.76h0v57.72a1.15,1.15,0,0,0,1.15,1.15H214.8a1.15,1.15,0,0,0,1.15-1.15V92.67h0l.85-1.76a2.09,2.09,0,0,0,.27-.66l2.55-7.32a1.14,1.14,0,0,0,.37-.26l16.14-17A1.14,1.14,0,0,0,236.08,64Zm-69.69-1.42h17.06V79.65H166.39ZM135,89.82s0,0,0,0h0l0,0-2.66-7.66,10-7.29,5.3,2.42,8.56,3.9a1.36,1.36,0,0,1,.06,2.44,1.4,1.4,0,0,1-.92.11l-.2-.06-3.41-1.35a2.82,2.82,0,0,0-.49-.16,1.38,1.38,0,0,0-1.18.18l0,0-.14.15-.11.13a333855960266.18,333855960266.18,0,0,1-.1.18,1.14,1.14,0,0,0-.14.56A2.82,2.82,0,0,0,150,85l9.12,11a1.33,1.33,0,0,1,.24.81A1.32,1.32,0,0,1,157.77,98a1.33,1.33,0,0,1-.78-.52l-8.23-9.66a.94.94,0,0,0-.38-.33.86.86,0,0,0-.21-.07,1,1,0,0,0-1.08.52,1,1,0,0,0-.1.38,1,1,0,0,0,.17.59l7.75,11.25a1.33,1.33,0,0,1,.24.81,1.3,1.3,0,0,1-.56,1,1.26,1.26,0,0,1-1,.21,1.35,1.35,0,0,1-.79-.52L145,90.39l-.12-.18h0a1,1,0,0,0-.33-.25l-.2-.07a1.33,1.33,0,0,0-.28,0,1.06,1.06,0,0,0-.94.6.43.43,0,0,0,0,0,.94.94,0,0,0-.08.36,1,1,0,0,0,.23.71l5.32,8.8a1.38,1.38,0,0,1,.24.82,1.32,1.32,0,0,1-1.61,1.23,1.3,1.3,0,0,1-.78-.53l-5.35-8.83a.9.9,0,0,0-.38-.34.86.86,0,0,0-.21-.07,1,1,0,0,0-1.09.53.84.84,0,0,0-.09.37,1,1,0,0,0,.17.6l3.5,6.15a1.38,1.38,0,0,1,.24.82,1.33,1.33,0,0,1-.56,1,1.35,1.35,0,0,1-1,.21,1.3,1.3,0,0,1-.78-.53Zm1.25,7.57,2.63,5.4a2.38,2.38,0,0,0,.18.3,3.52,3.52,0,0,0,4.9.84,3.58,3.58,0,0,0,.75-.7,3.52,3.52,0,0,0,4.85.77,3.53,3.53,0,0,0,1.19-1.44l.26.39a3.52,3.52,0,0,0,4.9.84,3.5,3.5,0,0,0,1.49-2.72,3.58,3.58,0,0,0-.09-.93h0a3.52,3.52,0,0,0,2.8-.56,3.52,3.52,0,0,0,.84-4.9.71.71,0,0,0-.1-.14l-7.73-9.3,1.16.45a3.27,3.27,0,0,0,.53.17,3.56,3.56,0,0,0,2.4-.31,3.55,3.55,0,0,0-.15-6.39l-8.56-3.9-5.31-2.43,0,0-5.77-10.31h26.73V80.81A1.16,1.16,0,0,0,165.23,82h8.54v47.52h-8.54a1.16,1.16,0,0,0-1.15,1.15v18.61H136.2Zm47.25,51.85H166.39V131.78h17.06Zm30.19,0H185.76V130.63a1.16,1.16,0,0,0-1.15-1.15h-8.54V82h8.54a1.16,1.16,0,0,0,1.15-1.15V62.57h26.73l-5.77,10.31-.05,0-5.31,2.43-8.56,3.9a3.55,3.55,0,0,0-.15,6.39,3.56,3.56,0,0,0,2.4.31,3.27,3.27,0,0,0,.53-.17l1.15-.45L189,94.55a.71.71,0,0,0-.1.14,3.52,3.52,0,0,0,3.64,5.46h0a4.08,4.08,0,0,0-.08.93,3.52,3.52,0,0,0,6.39,1.88l.26-.39a3.53,3.53,0,0,0,1.19,1.44,3.52,3.52,0,0,0,4.85-.77,3.58,3.58,0,0,0,.75.7,3.48,3.48,0,0,0,2.8.56,3.53,3.53,0,0,0,2.1-1.4,2.38,2.38,0,0,0,.18-.3l2.63-5.4ZM214.9,89.8l0,0h0s0,0,0,0l-5.86,12a1.3,1.3,0,0,1-.79.53,1.32,1.32,0,0,1-1.6-1.23,1.38,1.38,0,0,1,.24-.82l3.5-6.15a1,1,0,0,0,.17-.6,1,1,0,0,0-.09-.37,1,1,0,0,0-1.09-.53.86.86,0,0,0-.21.07,1,1,0,0,0-.39.34l-5.34,8.83a1.3,1.3,0,0,1-.78.53,1.32,1.32,0,0,1-1.61-1.23,1.38,1.38,0,0,1,.24-.82l5.32-8.8a1,1,0,0,0,.23-.71.94.94,0,0,0-.08-.36s0,0,0,0a1,1,0,0,0-.93-.6,1.27,1.27,0,0,0-.28,0l-.2.07a1,1,0,0,0-.33.25h0l-.12.18-7.78,11.29a1.35,1.35,0,0,1-.79.52,1.29,1.29,0,0,1-1-.21,1.32,1.32,0,0,1-.55-1,1.27,1.27,0,0,1,.24-.81l7.75-11.25a1,1,0,0,0,.17-.59,1,1,0,0,0-.1-.38,1,1,0,0,0-1.08-.52.86.86,0,0,0-.21.07.94.94,0,0,0-.38.33l-8.23,9.66a1.33,1.33,0,0,1-.78.52,1.28,1.28,0,0,1-1-.21,1.3,1.3,0,0,1-.56-1,1.33,1.33,0,0,1,.24-.81l9.11-11a2.8,2.8,0,0,0,.57-1.6,1.25,1.25,0,0,0-.14-.56.41.41,0,0,0-.05-.09l-.06-.09a.64.64,0,0,0-.1-.13l-.14-.15,0,0a1.38,1.38,0,0,0-1.18-.18,3.26,3.26,0,0,0-.5.16l-3.4,1.35-.21.06a1.37,1.37,0,0,1-.91-.11,1.36,1.36,0,0,1,.06-2.44l8.56-3.9,5.3-2.42,10,7.29Z" style="fill:#333"/></g></svg> 