<svg xmlns="http://www.w3.org/2000/svg" viewBox="0 0 160 160"> 

 

    <g > 

        <g class="illustration-shape" fill="#C8D9EE"> 

            <path class="cls-1" d="M56.7,48.22l-.33,4.16,3,3,4,1.83,8.65,1L75,58l2.66,2.33,3.82-2,15.47.33,8.14-.16,2.5-.83,1.83.94,7.31-4.93s4.49-5.49,5.32-7c.61-1.09,6.15-6.32,8.79-9.4a67,67,0,0,0-92-9.22c4.37,5.07,12.67,14.47,12.67,14.47Z" /> 

            <path class="cls-1" d="M80,148.27A67.08,67.08,0,0,0,146.47,71.8L141,75.27l-27.83,24.82,4.88,6.66-1,5.48-3,2.16-4.16.5-2,7.15-4,1.33-5-.5-1,5.49-3.82,2.16-6.49-.33L87,132.85,85,136l-4.49,1.83L77.15,136l-3.77-6.65-7.2,3.32L61,128.86l-.16-5.15-3.33-.17L54,120.21l-1.83-5.48-3.49-.34-3-2.49-1.49-5.49-5-2-1.5-4.66,4-4.87L30.48,80.7l-3.21-2.89-4.49.5-9.22-6.72A67.08,67.08,0,0,0,80,148.27Z" /> 

        </g> 

    </g> 

    <g > 

        <g class="illustration-secondary" fill="#B3CBE8"> 

            <path class="cls-2" d="M48.86,90c.15-.86-6.75-10.12-15.72-21.6C25.92,59.14,10.27,63.55,3,54.66L0,57.64C12.78,68.75,23.74,78.21,24.18,78.32c1.06.27,2.92-.79,2.92-.79l2.39,3.71s10.85,13.25,11.4,14S48.86,90,48.86,90Z" /> 

            <path class="cls-2" d="M146.74,59l-13.43,7.17s-13.67-7.38-16-12.68c-4.62,2.29-9.57,5.12-9.57,5.12s11.1,8.47,16.4,13.76.17,8.48.17,8.48l-15,14.35s4.6,4.94,5.12,4.94c.27,0,23.34-20.89,45.54-41.07Z" /> 

            <path class="cls-2" d="M78.41,77.52c-.84,1.19-6.71.54-6.71.54a9.39,9.39,0,0,0,10.78,2.12c2.2-1,5.66-4.78,5.66-4.78l-2-4.07S79.26,76.32,78.41,77.52Z" /> 

            <path class="cls-2" d="M72.58,125.76c-5.48,4.6-8.3,3.19-10.07,3-1.45-.14,2.12,3.89,4.06,3.71s5.34-3,5.34-3,4.25,6.18,6.19,7.24c2.68,1.46,6.38.18,6.38.18l2.29-3L88,128.42c-.52-.36-9.89-8.67-9.89-8.67A34.73,34.73,0,0,1,72.58,125.76Z" /> 

            <path class="cls-2" d="M54,119.33l-.32-.45C53.64,119,53.76,119.14,54,119.33Z" /> 

            <path class="cls-2" d="M74.94,106.1s0,0,0-.07C74.71,105.73,74.77,105.8,74.94,106.1Z" /> 

            <path class="cls-2" d="M69.22,117.79c0-.39,6.54-5.85,6.9-7.78.24-1.33-.78-3.23-1.18-3.91.55,1.15-3.07,7-13.67,13.3a6.91,6.91,0,0,1-7.27-.07,13,13,0,0,0,3.71,3.59c2.42,1.35,3.54.7,3.54.7S69.26,118.19,69.22,117.79Z" /> 

            <path class="cls-2" d="M65.51,103.15c.71-1.06-1.33-3.36-1.33-3.36s-1,3.89-12.27,11a8.77,8.77,0,0,1-6,1.06,3.67,3.67,0,0,0,1.77,2.29c1.41.71,4.24,0,5.3-.52S64.81,104.21,65.51,103.15Z" /> 

            <path class="cls-2" d="M54,97.67v-3s-5.13,5.84-9.37,7.78S39,103,39,103L41,105.09s3.18.71,3.89.71S48.72,103,49.43,103,54,97.67,54,97.67Z" /> 

        </g> 

    </g> 

    <g > 

        <g class="illustration-primary" fill="#2157AA"> 

            <path class="cls-3" d="M55.39,55.62a7.41,7.41,0,0,0,2.76-4.73,6.21,6.21,0,0,0-1.89-4.78c-4.21-4.54-29.06-32.22-29.32-32.5a1.19,1.19,0,0,0-1.77,1.59c.25.28,25.12,28,29.34,32.53a4,4,0,0,1,1.26,3,5,5,0,0,1-1.88,3.09c-.23.2-23.48,20.16-27,22.94l-.13.12a3.3,3.3,0,0,1-4.65-.34l-.1-.09L0,56.88v3.18l20.44,18.1A5.91,5.91,0,0,0,24.65,80a6,6,0,0,0,3.75-1.48C31.93,75.76,54.5,56.41,55.39,55.62Z" /> 

            <path class="cls-3" d="M14.42,66.65a1.13,1.13,0,0,0,.77-.27l28.63-24a1.2,1.2,0,0,0-1.54-1.83l-28.66,24a1.2,1.2,0,0,0,.8,2.11Z" /> 

            <path class="cls-3" d="M24.13,65.15a4.2,4.2,0,1,0,4.21,4.2h0A4.2,4.2,0,0,0,24.13,65.15ZM26,69.36a1.81,1.81,0,1,1-1.81-1.82A1.82,1.82,0,0,1,26,69.36Z" /> 

            <path class="cls-3" d="M66.11,59.23a46.52,46.52,0,0,0,5,.05c1.78-.05,2.95-.09,3.47.37a1.16,1.16,0,0,0,.8.29,1.2,1.2,0,0,0,.86-.38h0a1.18,1.18,0,0,0-.12-1.67c-1.22-1.07-2.85-1-5.11-1a42.35,42.35,0,0,1-4.78-.05c-4.23-.28-5.53-2-5.58-2.1a1.2,1.2,0,0,0-2,1.28C58.81,56.3,60.53,58.84,66.11,59.23Z" /> 

            <path class="cls-3" d="M89.12,75s0,0-.05,0a1.2,1.2,0,0,0-1.61,1.78c11.06,10.68,27.81,27,28.7,28.14.57.74,1.64,4.18.44,6.42-.91,1.69-3,2.46-6.17,2.29-1.26-1.43-3.82-4.13-3.94-4.26a1.2,1.2,0,0,0-1.74,1.65s2.68,2.83,3.91,4.21c.09,3-.58,5.1-2,6.18-2.2,1.63-5.69.71-6.68.4l-3.85-4.52a1.21,1.21,0,0,0-1.82,1.59l3.82,4.51c.06,2.68-.58,4.53-1.91,5.49-2.19,1.58-5.78.54-6.68.24l-3.71-3.53a1.2,1.2,0,0,0-1.65,1.73l2.65,2.53c0,.07-.05.12-.05.19-.23,2.67-1.1,4.51-2.62,5.48-2.74,1.73-6.81.21-6.9.21a1.2,1.2,0,0,0-.84,2.24,13.66,13.66,0,0,0,4.44.8,8.5,8.5,0,0,0,4.58-1.23A8.33,8.33,0,0,0,89,131.42a14.11,14.11,0,0,0,4.08.67,7.59,7.59,0,0,0,4.52-1.29c1.78-1.29,2.74-3.42,2.88-6.36a13.42,13.42,0,0,0,2.82.34,8,8,0,0,0,4.76-1.47c1.95-1.45,3-3.91,3-7.3h.11c4.57,0,6.59-1.89,7.51-3.57,1.83-3.44.27-7.82-.65-9C116.79,101.81,92,77.77,89.12,75Z" /> 

            <path class="cls-3" d="M37.46,91.47h0a1.19,1.19,0,0,0,.14-1.68l-7.6-9a1.19,1.19,0,0,0-1.68-.14h0a1.19,1.19,0,0,0-.12,1.67l7.59,9a1.2,1.2,0,0,0,1.69.15Z" /> 

            <path class="cls-3" d="M77.31,119.25a6.58,6.58,0,0,0-4.92-2.82l2-1.59a6.6,6.6,0,0,0,1.06-9.25l-1-1.31a6.59,6.59,0,0,0-8.18-1.75,6.54,6.54,0,0,0-1.38-4.76l-.29-.37a6.62,6.62,0,0,0-9.26-1.06l-.11.1A6.59,6.59,0,0,0,44.64,91l-5.54,4.4a6.59,6.59,0,0,0,3.35,11.7,5.23,5.23,0,0,0,.79,0c.12,0,.24,0,.36,0a6.63,6.63,0,0,0,1.14,6l.3.37a6.52,6.52,0,0,0,4.4,2.43,5.24,5.24,0,0,0,.79,0,6.33,6.33,0,0,0,1.45-.19,6.58,6.58,0,0,0,1.26,5.52l1,1.31a6.53,6.53,0,0,0,4.41,2.45,5.43,5.43,0,0,0,.79,0,6.34,6.34,0,0,0,1.31-.15,6.93,6.93,0,0,0-.34,1.43A6.58,6.58,0,0,0,66,133.67a7,7,0,0,0,.8.05,6.55,6.55,0,0,0,4-1.45l5.54-4.4A6.58,6.58,0,0,0,77.31,119.25Zm-37.4-16a4.19,4.19,0,0,1,.66-5.89l5.58-4.4a4.2,4.2,0,0,1,2.59-.9v0a3.65,3.65,0,0,1,.46.07,4.18,4.18,0,0,1,2.22,7.36l-5.62,4.45,0,.05A4.19,4.19,0,0,1,39.91,103.23Zm7,8.79-.28-.36a4.22,4.22,0,0,1,.68-5.9l9.5-7.54a4.19,4.19,0,0,1,5.89.68l.29.36a4.19,4.19,0,0,1-.68,5.89l-9.5,7.54A4.23,4.23,0,0,1,46.92,112Zm9,9.13-1-1.31a4.2,4.2,0,0,1,.68-5.89l11.16-8.85a4.13,4.13,0,0,1,2.59-.91,4.23,4.23,0,0,1,3.3,1.58l1,1.3a4.22,4.22,0,0,1-.68,5.9l-11.15,8.86A4.22,4.22,0,0,1,55.88,121.15Zm19,4.89-5.54,4.4a4.2,4.2,0,0,1-5.22-6.57l5.58-4.39a4.15,4.15,0,0,1,2.59-.91l0,0a2,2,0,0,1,.49,0A4.19,4.19,0,0,1,74.85,126Z" /> 

            <path class="cls-3" d="M134.19,79.18l-17.5,16.73a1.2,1.2,0,0,0,.8,2.07,1.14,1.14,0,0,0,.85-.34l17.5-16.73a1.21,1.21,0,0,0,0-1.65A1.18,1.18,0,0,0,134.19,79.18Z" /> 

            <path class="cls-3" d="M68.68,68.72c-.09.22-2.37,5.38.06,8.81,1.28,1.84,3.6,2.76,6.85,2.76a16,16,0,0,0,1.68-.08,1.22,1.22,0,0,0,.6-.22,80.33,80.33,0,0,0,8.76-7.28,1.19,1.19,0,0,0,0-1.69h0a1.2,1.2,0,0,0-1.68,0,76.51,76.51,0,0,1-8.2,6.83c-3.07.22-5.11-.35-6.07-1.69-1.3-1.83-.43-5,.09-6.27,4.58-4.62,10.18-9.83,11.34-10.11s9,0,14.12.12c3.65.12,6.81.23,7.91.17,3.29-.15,4.64-1.88,4.78-2.08a1.18,1.18,0,0,0-.25-1.64,1.22,1.22,0,0,0-1.67.21A4,4,0,0,1,104,57.69c-1,0-4.26-.07-7.71-.18-7.79-.24-13.41-.4-14.79,0C79.28,58,71.31,66,68.92,68.38A1.72,1.72,0,0,0,68.68,68.72Z" /> 

            <path class="cls-3" d="M142.72,73.53a2.81,2.81,0,0,1-3.33,0C134.11,69,120.29,56.87,119,55.47c-.77-.86.06-2.77.45-3.46,9.28-11.38,23.41-28.53,25-30a1.16,1.16,0,0,0,.55-.66,1.19,1.19,0,0,0-.76-1.51c-1-.33-1.11-.33-14.24,15.51-6.22,7.54-12.46,15.2-12.53,15.28l-.09.12c-.9,1.47-1.95,4.46-.23,6.38S137.1,74.7,137.89,75.42a5.39,5.39,0,0,0,3.19,1,5.12,5.12,0,0,0,3-1c.93-.66,7.67-6.66,15.9-14V58.23C150.87,66.43,143.61,72.89,142.72,73.53Z" /> 

            <path class="cls-3" d="M132.61,40.3a1.2,1.2,0,0,0-.06,1.69l20.14,17.13a1.18,1.18,0,0,0,.8.29l0,0a1.21,1.21,0,0,0,.93-.42,1.19,1.19,0,0,0-.14-1.68L134.11,40.19A1.19,1.19,0,0,0,132.61,40.3Z" /> 

            <path class="cls-3" d="M133.66,47.43a1.2,1.2,0,0,0-1.71,0l-6.71,7.07a1.19,1.19,0,0,0-.35.85,1.21,1.21,0,0,0,1.21,1.2,1.17,1.17,0,0,0,.89-.38l6.72-7.07A1.2,1.2,0,0,0,133.66,47.43Z" /> 

            <path class="cls-3" d="M132.54,62.06a1.18,1.18,0,0,0,.87-.35l6.72-7.12A1.2,1.2,0,0,0,138.39,53L131.68,60a1.21,1.21,0,0,0-.33.83A1.19,1.19,0,0,0,132.54,62.06Z" /> 

            <path class="cls-3" d="M139.18,68.09a1.19,1.19,0,0,0,.9-.39l6.7-7.05a1.18,1.18,0,0,0,0-1.64,1.2,1.2,0,0,0-1.69,0l-6.72,7.07a1.2,1.2,0,0,0,0,1.69A1.14,1.14,0,0,0,139.18,68.09Z" /> 

        </g> 

    </g> 

</svg> 