<svg width="160px" height="160px" viewBox="0 0 160 160" version="1.1" 

    xmlns="http://www.w3.org/2000/svg" 

    xmlns:xlink="http://www.w3.org/1999/xlink"> 

    <!-- Generator: Sketch 58 (84663) - https://sketch.com --> 

    <title>Illustration / CTA Standard / Feature / Homepage BGABlue</title> 

    <desc>Created with Sketch.</desc> 

    <g class="Illustration-/-CTA-Standard-/-Feature-/-Homepage-BGABlue" stroke="none" stroke-width="1" fill="none" fill-rule="evenodd"> 

        

        <path d="M46.9777,91.2556 L69.2338714,148.619467 L125.1325,148.9212 L126.3635,148.9212 L132.0455,155.4382 C132.916397,156.403717 132.296668,157.938823 131.052188,158.043544 L130.9165,158.0492 L28.6575,158.0492 C27.3695,158.0492 26.6753264,156.547388 27.4408541,155.543737 L27.5285,155.4382 L33.4978714,148.823467 L32.5437,148.8236 L28.0967,95.8176 C28.0967,95.8176 26.9027,91.2556 31.4967,91.2556 L46.9777,91.2556 Z M24.3945,112.039 L26.3605,134.531 L22.1475,128.078 C20.2045,125.099 19.9545,121.324 21.4885,118.116 L24.3945,112.039 Z M135.14,112.039 L138.047,118.116 C139.533062,121.22375 139.344883,124.863616 137.564284,127.796428 L137.387,128.078 L133.175,134.531 L135.14,112.039 Z M82.6226,1.0935 C82.6226,1.0935 67.3716,10.6865 67.3716,29.0005 L67.3716,29.0005 L67.3716,52.4185 C67.3716,52.4185 67.6986,59.6015 70.6256,65.5045 C72.0816,66.5605 79.0406,70.7705 91.2546,65.2785 C91.2546,65.2785 84.3966,73.0755 72.6146,71.2575 C72.9606,73.1005 73.0716,74.5975 73.0716,74.5975 L73.0716,75.7165 C73.0556,78.1495 71.2606,80.2255 68.8886,80.7665 C60.1506,82.7605 52.7746,83.1565 48.8946,83.2015 C48.8946,83.2015 63.2766,79.8225 63.2766,70.2185 L63.2766,70.2185 L63.2766,67.4355 C63.2766,67.4355 48.7916,69.0345 48.7865067,53.0375 L48.7865067,53.0375 L48.7864174,32.6250715 C48.794674,30.8238254 49.43017,0.80735 82.6226,1.0935 Z" class="illustration-secondary" fill="#B3CBE8" ></path> 

        <path d="M127.0291,152.7146 C127.857527,152.7146 128.5291,153.386173 128.5291,154.2146 C128.5291,155.043027 127.857527,155.7146 127.0291,155.7146 L127.0291,155.7146 L32.5441,155.7146 C31.7156729,155.7146 31.0441,155.043027 31.0441,154.2146 C31.0441,153.386173 31.7156729,152.7146 32.5441,152.7146 L32.5441,152.7146 Z M128.0775,89.756 C130.920564,89.756 133.186355,92.132416 133.048249,95.0264055 L128.524249,148.949406 C128.459054,149.726486 127.80931,150.324 127.0295,150.324 L32.5445,150.324 C31.7647003,150.324 31.1149621,149.726502 31.0497537,148.949433 L26.5211808,94.9719889 C26.3866339,92.1321924 28.6526598,89.756 31.4965,89.756 L128.0775,89.756 Z M128.0775,92.756 L31.4965,92.756 C30.3653319,92.756 29.4643191,93.7008169 29.5142463,94.7755669 L33.9238982,147.324 L125.650102,147.324 L130.055181,94.8300111 C130.108677,93.7009059 129.207757,92.756 128.0775,92.756 Z M24.0506123,110.685565 C24.7540205,111.021932 25.0754402,111.83504 24.8128618,112.552624 L24.7567352,112.685912 L21.85058,118.763237 C20.5868857,121.404235 20.7419134,124.496859 22.2462619,126.992824 L22.4126021,127.257917 L26.6246021,133.710917 C27.0774108,134.404643 26.8821086,135.334093 26.1883826,135.786902 C25.5354639,136.213075 24.6737379,136.065143 24.1971081,135.4679 L24.1123979,135.350683 L19.9004366,128.897742 C17.7356323,125.581493 17.4019248,121.402807 18.9942037,117.795053 L19.1442648,117.468688 L22.0502648,111.391688 C22.407655,110.644316 23.3032411,110.328174 24.0506123,110.685565 Z M137.416719,111.264324 L137.485235,111.391688 L140.391244,117.468706 C142.099289,121.04068 141.879508,125.226596 139.826681,128.593987 L139.635013,128.897819 L135.422013,135.350819 C134.969129,136.044496 134.039658,136.239697 133.345981,135.786813 C132.693109,135.360569 132.481793,134.512158 132.836763,133.835497 L132.909987,133.710781 L137.122744,127.258154 C138.722616,124.80606 138.976406,121.719662 137.814658,119.047574 L137.684765,118.762912 L134.778765,112.685912 C134.421374,111.938541 134.737516,111.042955 135.484888,110.685565 C136.188296,110.349197 137.022995,110.609454 137.416719,111.264324 Z M81.443,115.6115 C84.8147222,115.6115 87.549,118.345368 87.549,121.7175 C87.549,125.089632 84.8147222,127.8235 81.443,127.8235 C78.0704828,127.8235 75.336,125.089837 75.336,121.7175 C75.336,118.345163 78.0704828,115.6115 81.443,115.6115 Z M81.443,118.6115 C79.7271357,118.6115 78.336,120.002219 78.336,121.7175 C78.336,123.432781 79.7271357,124.8235 81.443,124.8235 C83.1579686,124.8235 84.549,123.432677 84.549,121.7175 C84.549,120.002323 83.1579686,118.6115 81.443,118.6115 Z M63.2767,65.3055 C64.0563961,65.3055 64.6971487,65.9003881 64.7698334,66.66104 L64.7767,66.8055 L64.7767,71.5285 C64.7767,77.225171 59.1740647,81.4003457 51.2816276,84.4912355 C50.0097723,84.9892631 48.8084187,85.5335254 47.67587,86.1291139 C46.9426491,86.5147025 46.0356748,86.2328909 45.6500861,85.49967 C45.2644975,84.7664491 45.5463091,83.8594748 46.27953,83.4738861 C47.5133638,82.8250335 48.8154942,82.2351152 50.1877104,81.6977887 C56.8074826,79.1053086 61.5966292,75.5797048 61.7717348,71.7458364 L61.7767,71.5285 L61.7767,66.8055 C61.7767,65.9770729 62.4482729,65.3055 63.2767,65.3055 Z M96.4569,65.3055 C97.2365961,65.3055 97.8773487,65.9003881 97.9500334,66.66104 L97.9569,66.8055 L97.9569,71.5285 C97.9569,75.4464503 102.802046,79.0569591 109.546757,81.6977367 C110.857368,82.2108636 112.104155,82.772437 113.287642,83.3875253 C114.022719,83.7695636 114.308913,84.6751645 113.926875,85.4102416 C113.544836,86.1453186 112.639235,86.431513 111.904158,86.0494747 C110.81771,85.4848199 109.667466,84.9667304 108.453024,84.4912557 C100.694348,81.4534771 95.1475127,77.3665888 94.9617132,71.8168615 L94.9569,71.5285 L94.9569,66.8055 C94.9569,65.9770729 95.6284729,65.3055 96.4569,65.3055 Z M66.9198706,78.7713214 C68.9420175,80.2739689 73.8570713,81.3523 79.3972,81.3523 C84.8933296,81.3523 89.7746603,80.2930207 91.8304472,78.8043782 C92.50143,78.3185041 93.4392477,78.4685644 93.9251218,79.1395472 C94.4109959,79.81053 94.2609356,80.7483477 93.5899528,81.2342218 C90.9173032,83.1695488 85.466994,84.3523 79.3972,84.3523 C73.2719074,84.3523 67.7787085,83.1471276 65.1305294,81.1792786 C64.4655903,80.6851656 64.3271085,79.7455684 64.8212214,79.0806294 C65.3153344,78.4156903 66.2549316,78.2772085 66.9198706,78.7713214 Z M79.771914,22.7230436 L79.7817354,22.7233878 C79.8040132,22.7244701 79.8263122,22.7260549 79.8486164,22.7281483 C79.8717444,22.7305659 79.8943445,22.7332451 79.9168501,22.7364323 C79.9423338,22.7397239 79.9681257,22.7440374 79.9938784,22.7490493 C80.0104909,22.7526327 80.0270261,22.7561492 80.0434906,22.759941 C80.0700366,22.7657039 80.0960126,22.7724289 80.1219064,22.7798869 C80.1423668,22.7861169 80.1629323,22.7925094 80.1833487,22.7993377 C80.1992722,22.8043565 80.2150213,22.8099262 80.230726,22.8157766 C80.2597445,22.8268634 80.2881593,22.8384343 80.3162041,22.8508646 C80.3198374,22.8522238 80.3238158,22.8540067 80.3277905,22.8558085 L80.3655718,22.8738204 L80.3861032,22.8844 L80.3631032,22.8734 L80.4231032,22.9034 L80.5014857,22.9485466 C80.5180343,22.9592248 80.5345644,22.9699607 80.5508913,22.9810289 C80.5808267,23.0008554 80.6096763,23.021952 80.6376043,23.0439427 L80.6539138,23.0575066 C80.6817924,23.0795857 80.7081944,23.102607 80.7336638,23.126435 C80.7424304,23.1352172 80.751504,23.1439215 80.7604762,23.15275 C80.7850643,23.1763743 80.8079397,23.2004782 80.829932,23.2252494 C80.8384823,23.2355119 80.8474683,23.2459145 80.8563231,23.256458 C80.877393,23.2808945 80.8970454,23.3058884 80.9158527,23.3314345 L80.9371827,23.3619609 C80.9579733,23.3909208 80.9773325,23.4208577 80.9955851,23.4514052 L81.0191032,23.4944 L81.0142465,23.4835314 L81.0361032,23.5254 L81.0251032,23.5054 L81.0521032,23.5594 L81.0391032,23.5314 L81.0546328,23.5601428 C81.0673492,23.5860436 81.0793155,23.6122959 81.090518,23.6388637 C82.6913464,27.1395422 85.6113129,29.1111687 89.5840869,29.8750856 C92.3230284,30.4017514 95.2970917,30.307093 98.1373798,29.8259735 L98.2903189,29.7996403 L98.4402022,29.7729914 L99.008081,29.6640164 L99.5226848,29.5531037 L100.123366,29.4082383 C100.985161,29.248832 101.80409,29.8675893 101.886161,30.7401518 L101.892859,30.8728741 L101.9969,44.905 C101.9969,49.6521616 100.752047,54.2864969 98.4261954,58.1749809 L98.4211032,58.1824 L98.4258648,58.1748648 C95.7400735,62.666034 92.0863084,66.0467517 87.9013677,67.8835176 C85.7259526,68.8383561 83.4506751,69.3553741 81.1555802,69.4200661 L80.6635,69.427 L78.7535,69.427 C76.291011,69.427 73.8455646,68.9066161 71.5146594,67.8835295 C67.3296916,66.0467517 63.6759265,62.666034 60.9901352,58.1748648 L60.7362337,57.7398894 C58.6570204,54.0890754 57.5098256,49.8185614 57.4246556,45.4220311 L57.4195413,44.8938741 L57.5235413,30.8728741 C57.5305245,29.9314104 58.3881493,29.2408617 59.2930341,29.4082383 L59.4225381,29.438051 L59.8937152,29.5531037 C60.2993804,29.6456462 60.7641907,29.7387659 61.2790202,29.8259735 C64.1193083,30.307093 67.0933716,30.4017514 69.8323131,29.8750856 C73.8188496,29.1085223 76.7452717,27.1258674 78.3423085,23.6027095 L78.3441032,23.5984 L78.3521032,23.5824 L78.3911032,23.5054 L78.3791032,23.5254 L78.4021032,23.4834 L78.3971032,23.4944 L78.4171982,23.4585077 C78.4361248,23.4254218 78.4568699,23.3931492 78.4788674,23.3616615 L78.5010957,23.3314392 C78.5188308,23.3065998 78.5379131,23.282287 78.5577778,23.2585394 C78.5707823,23.2436635 78.5833715,23.2292013 78.5962066,23.2150171 L78.6216332,23.1870771 L78.6484708,23.1595359 C78.6622064,23.1464448 78.675503,23.133677 78.6890098,23.1211789 C78.7113837,23.0998827 78.7351609,23.0792196 78.7596743,23.0592556 C78.7696064,23.0517074 78.7788709,23.0443471 78.7882145,23.0371029 C78.8107686,23.0190903 78.834891,23.0015028 78.8596412,22.984579 C78.8803008,22.9708963 78.9005168,22.9577745 78.9210176,22.9451566 L78.9821032,22.9094 L79.0886095,22.8558085 C79.0925842,22.8540067 79.0965626,22.8522238 79.1005447,22.8504596 L79.176868,22.8193712 C79.1976335,22.8112177 79.2177199,22.80409 79.237868,22.7974149 C79.2520863,22.7930259 79.267062,22.7883232 79.2821106,22.7838544 C79.3123961,22.7745153 79.3423584,22.7666272 79.3723959,22.7597021 C79.3893635,22.7561514 79.4059039,22.7526337 79.422508,22.7493944 C79.4482743,22.7440374 79.4740662,22.7397239 79.4998727,22.7360996 C79.5220555,22.7332451 79.5446556,22.7305659 79.5673327,22.7284013 C79.6360278,22.7217433 79.7042228,22.7200987 79.771914,22.7230436 Z M79.7084,0.0004 L80.2489478,0.00323079984 C94.3251112,0.150326227 103.422151,6.02172207 108.340507,15.6797033 C110.015182,18.9681953 111.080046,22.4758957 111.659909,25.9980962 C111.868108,27.2627359 111.999961,28.4528119 112.070251,29.543086 C112.081744,29.7213531 112.091213,29.8901571 112.098884,30.0491021 L112.109071,30.2800759 L112.125156,30.8812976 L112.125156,55.9194 C112.125156,61.6498667 108.305563,66.6271388 102.871498,68.1647333 C102.074367,68.3902853 101.245319,67.926929 101.019767,67.1297981 C100.794215,66.3326671 101.257571,65.5036187 102.054702,65.2780667 C106.115153,64.1291426 108.997574,60.4630845 109.120978,56.2041839 L109.1251,55.9194 L109.125233,30.9031699 L109.122447,30.7463097 L109.117742,30.5739809 L109.101922,30.1841405 L109.076466,29.7360953 C109.012329,28.7412509 108.891311,27.6489656 108.699756,26.4854295 C108.166944,23.2490285 107.190325,20.0320111 105.667193,17.0410967 C101.250572,8.36835298 93.1680059,3.14483243 80.2463077,3.00334974 L79.7161032,2.9994 L79.7084,3.0004 C66.4711543,3.0004 58.2247916,8.2479007 53.746673,17.0411145 C52.2234079,20.032191 51.2466922,23.2493852 50.7138096,26.4859403 C50.5222373,27.6494882 50.4012041,28.741766 50.3370531,29.7365787 C50.3216969,29.9747131 50.3104439,30.1919333 50.3025591,30.3868631 L50.2957698,30.5743118 L50.2882743,30.9034048 L50.2884,55.9194 C50.2884,60.2977998 53.2080469,64.1027443 57.358162,65.2781697 C58.1552361,65.5039228 58.6183833,66.333088 58.3926303,67.130162 C58.1668772,67.9272361 57.337712,68.3903833 56.540638,68.1646303 C51.2063827,66.6538242 47.4277669,61.8284398 47.292126,56.2311392 L47.2883516,55.9194 L47.2883516,30.8814815 L47.2914731,30.6967049 L47.2967807,30.4962458 L47.3146339,30.0494679 L47.3432713,29.5435232 C47.413576,28.4532828 47.5454449,27.2632165 47.7536631,25.998567 C48.3336009,22.4762139 49.3985652,18.9683385 51.073377,15.6796855 C55.991888,6.02171938 65.0888291,0.150326162 79.1645687,0.00323079862 L79.7051,0.0004 L79.7084,0.0004 Z M79.7080548,27.2259707 L79.564618,27.4235409 C77.4044058,30.3360758 74.2486606,32.0808334 70.3987995,32.8211157 C67.45293,33.3875712 64.3559365,33.3302638 61.3729771,32.879227 L60.7779842,32.783838 L60.509789,32.7373144 L60.4195,44.905 C60.4195,48.9485159 61.4348375,52.8901536 63.3240965,56.2217797 L63.5648648,56.6351352 C65.9426086,60.6111886 69.1305944,63.5609349 72.7203677,65.1364824 C74.5343265,65.9326696 76.4187379,66.3629656 78.3155744,66.4203743 L78.7535,66.427 L80.6635,66.427 C82.7070487,66.427 84.7422478,65.9938667 86.6956594,65.1364705 C90.2854056,63.5609349 93.4733914,60.6111886 95.8511352,56.6351352 L96.0923035,56.2217804 C97.9028434,53.0289884 98.9107728,49.2763368 98.9916585,45.4197156 L98.9969413,44.9161259 L98.9066056,32.7373153 L98.0434229,32.879227 C95.0604635,33.3302638 91.96347,33.3875712 89.0176005,32.8211157 C85.0814644,32.0642437 81.8709029,30.2573716 79.7080548,27.2259707 Z M78.3780311,23.5292009 L78.3521032,23.5824 L78.3441032,23.5984 L78.3506063,23.5833751 L78.3759706,23.5319631 L78.3780311,23.5292009 Z M78.9841032,22.9074 L78.9821032,22.9094 L78.9771165,22.9122793 L78.9841032,22.9074 Z M79.0281032,22.8844 L79.0137187,22.8925352 L78.9841032,22.9074 L79.0027329,22.8980739 L79.0281032,22.8844 Z M79.0886095,22.8558085 L79.0281032,22.8844 L79.0508282,22.8738204 L79.0886095,22.8558085 Z" class="illustration-primary" fill="#2157AA"></path> 

    </g> 

</svg> 