<?xml version="1.0" encoding="UTF-8"?><svg id="a" xmlns="http://www.w3.org/2000/svg" width="133.27" height="133.27" viewBox="0 0 133.27 133.27"><path d="M84.54,94.91v15.4c3.21,2.08,9.43,4.59,15.86-1.06,.12-.1,.23-.18,.34-.26V19.41c.34-7.55,2.97-7.47,2.97-7.47l-5.23-.03s-3.99-.02-5.21-.02H51.76c3.35,25.42,10.29,71.34,12.07,83.01h20.7Z" style="fill:none;"/><path d="M80.43,113.13v-14.63H12.23v14.14c.05,4.1,3.36,7.41,7.46,7.46h57.25c.7,0,5.68-.16,5.68-.16,0,0-2.38-1.27-2.19-6.82Z" style="fill:none;"/><path d="M113.43,11.9l-1.84,.02c-3.74,0-6.74,1.49-6.74,7.44v14.15h16.07v-14.15c-.06-4.11-3.38-7.42-7.49-7.46Z" style="fill:#b3cbe8;"/><path d="M84.54,113.13v2.01c.14,1.85,1.28,3.47,2.97,4.22,1.01,.64,2.59,.75,5.21,.75h.59c4.66-.02,7.44-2.01,7.44-5.31v-2.61c-.11,.06-.22,.12-.34,.19-4.8,2.97-10.79,3.26-15.86,.75Z" style="fill:#b3cbe8;"/><path d="M28.57,19.36V94.91h23.88c-1.77-11.66-8.44-57.59-11.79-83.01h-4.63c-4.1,.05-7.41,3.36-7.46,7.46Z" style="fill:#b3cbe8;"/><path d="M113.45,7.79H36.03c-6.39,0-11.56,5.18-11.57,11.57V94.91H8.13v17.74c0,6.38,5.18,11.56,11.56,11.56H93.27c6.38,0,11.56-5.18,11.57-11.56V37.1h20.18V19.36c0-6.39-5.18-11.56-11.56-11.57Zm-36.52,112.31H19.69c-4.1-.05-7.41-3.36-7.46-7.46v-14.14H80.43v14.63c-.19,5.54,2.19,6.82,2.19,6.82,0,0-4.98,.16-5.68,.16h0ZM100.73,19.41V112.65c0,4.64-2.78,7.43-7.44,7.46h-.59c-2.62,0-4.2-.16-5.21-1.05-1.86-1.4-2.96-3.6-2.97-5.93v-18.22H28.57V19.36c.05-4.1,3.36-7.41,7.46-7.46h57.25c1.22,0,5.21,.02,5.21,.02l5.23,.03s-2.64-.09-2.97,7.47Zm20.18,14.09h-16.07v-14.15c0-5.95,3-7.44,6.74-7.44l1.84-.02c4.11,.04,7.43,3.35,7.49,7.46v14.15Z" style="fill:#2147aa;"/><line x1="43.84" y1="37.8" x2="86.02" y2="37.8" style="fill:none; stroke:#2157aa; stroke-linecap:round; stroke-miterlimit:10; stroke-width:3px;"/><line x1="43.84" y1="50.73" x2="86.02" y2="50.73" style="fill:none; stroke:#2157aa; stroke-linecap:round; stroke-miterlimit:10; stroke-width:3px;"/><line x1="43.84" y1="65.01" x2="86.02" y2="65.01" style="fill:none; stroke:#2157aa; stroke-linecap:round; stroke-miterlimit:10; stroke-width:3px;"/><line x1="43.84" y1="79.3" x2="64.86" y2="79.3" style="fill:none; stroke:#2157aa; stroke-linecap:round; stroke-miterlimit:10; stroke-width:3px;"/></svg>