<svg width="160px" height="160px" viewBox="0 0 160 160" version="1.1" 

    xmlns="http://www.w3.org/2000/svg" 

    xmlns:xlink="http://www.w3.org/1999/xlink"> 

    <!-- Generator: Sketch 58 (84663) - https://sketch.com --> 

    <title>Illustration / CTA Standard / Feature / Marketing BGABlue</title> 

    <desc>Created with Sketch.</desc> 

    <g class="Illustration-/-CTA-Standard-/-Feature-/-Marketing-BGABlue" stroke="none" stroke-width="1" fill="none" fill-rule="evenodd"> 

        <ellipse class="illustration-shape" fill="#C8D9EE" cx="80.5" cy="80" rx="67.5" ry="68"></ellipse> 

        <polygon class="illustration-fill" fill="#EDEEF1" points="21.501 146.318 131.398 146.318 131.398 7.5 21.501 7.5"></polygon> 

        <path d="M137.4027,153.2043 L27.5047,153.2043 L27.5043,146.3179 L20.6183,146.3189 L20.6183,7.4999 L31.7293,7.4999 L58.4633,146.3169 L130.5167,146.3173 L130.5167,13.7183 L137.4027,13.7183 L137.4027,153.2043 Z" class="illustration-secondary" fill="#B3CBE8" ></path> 

        <path d="M138.2206,12.5633 C139.000296,12.5633 139.641049,13.1581881 139.713733,13.91884 L139.7206,14.0633 L139.7206,153.1493 C139.7206,153.928996 139.125712,154.569749 138.36506,154.642433 L138.2206,154.6493 L28.3236,154.6493 C27.4951729,154.6493 26.8236,153.977727 26.8236,153.1493 C26.8236,152.369604 27.4184881,151.728851 28.17914,151.656167 L28.3236,151.6493 L136.7206,151.6493 L136.7206,14.0633 C136.7206,13.2348729 137.392173,12.5633 138.2206,12.5633 Z M131.398,6 C132.177696,6 132.818449,6.59488808 132.891133,7.35553999 L132.898,7.5 L132.898,146.318 C132.898,147.097696 132.303112,147.738449 131.54246,147.811133 L131.398,147.818 L21.501,147.818 C20.7213039,147.818 20.0805513,147.223112 20.0078666,146.46246 L20.001,146.318 L20.001,7.5 C20.001,6.72030388 20.5958881,6.07955132 21.35654,6.00686658 L21.501,6 L131.398,6 Z M129.898,9 L23.001,9 L23.001,144.818 L129.898,144.818 L129.898,9 Z M115.7505,131.9921 C116.578927,131.9921 117.2505,132.663673 117.2505,133.4921 C117.2505,134.271796 116.655612,134.912549 115.89496,134.985233 L115.7505,134.9921 L33.3705,134.9921 C32.5420729,134.9921 31.8705,134.320527 31.8705,133.4921 C31.8705,132.712404 32.4653881,132.071651 33.22604,131.998967 L33.3705,131.9921 L115.7505,131.9921 Z M107.2455,119.4511 C108.073927,119.4511 108.7455,120.122673 108.7455,120.9511 C108.7455,121.730796 108.150612,122.371549 107.38996,122.444233 L107.2455,122.4511 L33.3705,122.4511 C32.5420729,122.4511 31.8705,121.779527 31.8705,120.9511 C31.8705,120.171404 32.4653881,119.530651 33.22604,119.457967 L33.3705,119.4511 L107.2455,119.4511 Z M114.0655,106.91 C114.893927,106.91 115.5655,107.581573 115.5655,108.41 C115.5655,109.189696 114.970612,109.830449 114.20996,109.903133 L114.0655,109.91 L33.3705,109.91 C32.5420729,109.91 31.8705,109.238427 31.8705,108.41 C31.8705,107.630304 32.4653881,106.989551 33.22604,106.916867 L33.3705,106.91 L114.0655,106.91 Z M107.2455,94.369 C108.073927,94.369 108.7455,95.0405729 108.7455,95.869 C108.7455,96.6486961 108.150612,97.2894487 107.38996,97.3621334 L107.2455,97.369 L33.3705,97.369 C32.5420729,97.369 31.8705,96.6974271 31.8705,95.869 C31.8705,95.0893039 32.4653881,94.4485513 33.22604,94.3758666 L33.3705,94.369 L107.2455,94.369 Z M117.7125,81.828 C118.540927,81.828 119.2125,82.4995729 119.2125,83.328 C119.2125,84.1076961 118.617612,84.7484487 117.85696,84.8211334 L117.7125,84.828 L33.3705,84.828 C32.5420729,84.828 31.8705,84.1564271 31.8705,83.328 C31.8705,82.5483039 32.4653881,81.9075513 33.22604,81.8348666 L33.3705,81.828 L117.7125,81.828 Z M107.2455,69.288 C108.073927,69.288 108.7455,69.9595729 108.7455,70.788 C108.7455,71.5676961 108.150612,72.2084487 107.38996,72.2811334 L107.2455,72.288 L33.3705,72.288 C32.5420729,72.288 31.8705,71.6164271 31.8705,70.788 C31.8705,70.0083039 32.4653881,69.3675513 33.22604,69.2948666 L33.3705,69.288 L107.2455,69.288 Z M76.7056,39.2697 C86.5030271,39.2697 94.4456,47.2122729 94.4456,57.0097 C94.4456,57.8381271 93.7740271,58.5097 92.9456,58.5097 C92.1171729,58.5097 91.4456,57.8381271 91.4456,57.0097 C91.4456,48.8691271 84.8461729,42.2697 76.7056,42.2697 C68.5641675,42.2697 61.9646,48.8689868 61.9646,57.0097 C61.9646,57.8381271 61.2930271,58.5097 60.4646,58.5097 C59.6361729,58.5097 58.9646,57.8381271 58.9646,57.0097 C58.9646,47.212104 66.9073418,39.2697 76.7056,39.2697 Z M55.4383,35.5791 C57.9919295,35.5791 60.4433785,36.3018149 62.5556372,37.6413524 C63.2552425,38.0850233 63.4627184,39.0118318 63.0190476,39.7114372 C62.5753767,40.4110425 61.6485682,40.6185184 60.9489628,40.1748476 C59.3136341,39.1377662 57.4186385,38.5791 55.4383,38.5791 C49.7438621,38.5791 45.1273,43.1953921 45.1273,48.8891 C45.1273,49.7175271 44.4557271,50.3891 43.6273,50.3891 C42.7988729,50.3891 42.1273,49.7175271 42.1273,48.8891 C42.1273,41.5384986 48.0870472,35.5791 55.4383,35.5791 Z M97.4599,35.5791 C104.811153,35.5791 110.7709,41.5384986 110.7709,48.8891 C110.7709,49.7175271 110.099327,50.3891 109.2709,50.3891 C108.442473,50.3891 107.7709,49.7175271 107.7709,48.8891 C107.7709,43.1953921 103.154338,38.5791 97.4599,38.5791 C95.4793711,38.5791 93.5832058,39.1382944 91.9459235,40.1760464 C91.2462083,40.6195441 90.3194512,40.4118387 89.8759536,39.7121235 C89.4324559,39.0124083 89.6401613,38.0856512 90.3398765,37.6421536 C92.4537689,36.3023137 94.9061051,35.5791 97.4599,35.5791 Z M76.4499,18.2649 C81.3201998,18.2649 85.2679,22.2133455 85.2679,27.0839 C85.2679,31.9544545 81.3201998,35.9029 76.4499,35.9029 C71.5786592,35.9029 67.6299,31.9545134 67.6299,27.0839 C67.6299,22.2132866 71.5786592,18.2649 76.4499,18.2649 Z M55.2516,19.3576 C59.0198289,19.3576 62.0746,22.4119747 62.0746,26.1796 C62.0746,29.9473289 59.0197254,33.0026 55.2516,33.0026 C51.4834746,33.0026 48.4286,29.9473289 48.4286,26.1796 C48.4286,22.4119747 51.4833711,19.3576 55.2516,19.3576 Z M97.6466,19.3576 C101.414829,19.3576 104.4696,22.4119747 104.4696,26.1796 C104.4696,29.9473289 101.414725,33.0026 97.6466,33.0026 C93.8784746,33.0026 90.8236,29.9473289 90.8236,26.1796 C90.8236,22.4119747 93.8783711,19.3576 97.6466,19.3576 Z M76.4499,21.2649 C73.2354501,21.2649 70.6299,23.8702042 70.6299,27.0839 C70.6299,30.2975958 73.2354501,32.9029 76.4499,32.9029 C79.6632188,32.9029 82.2679,30.297727 82.2679,27.0839 C82.2679,23.870073 79.6632188,21.2649 76.4499,21.2649 Z M55.2516,22.3576 C53.1401382,22.3576 51.4286,24.0689161 51.4286,26.1796 C51.4286,28.2905618 53.140416,30.0026 55.2516,30.0026 C57.362784,30.0026 59.0746,28.2905618 59.0746,26.1796 C59.0746,24.0689161 57.3630618,22.3576 55.2516,22.3576 Z M97.6466,22.3576 C95.5351382,22.3576 93.8236,24.0689161 93.8236,26.1796 C93.8236,28.2905618 95.535416,30.0026 97.6466,30.0026 C99.757784,30.0026 101.4696,28.2905618 101.4696,26.1796 C101.4696,24.0689161 99.7580618,22.3576 97.6466,22.3576 Z" class="illustration-primary" fill="#2157AA"></path> 

    </g> 

</svg> 