<svg xmlns="http://www.w3.org/2000/svg" viewBox="0 0 160 160"> 

 

    <g > 

        <path class="illustration-shape" fill="#C8D9EE" d="M77,38l8,1,6,5,45.08,37.56A60,60,0,1,0,23.61,80.29L70,42Z" /> 

    </g> 

    <g > 

        <g class="illustration-secondary" fill="#B3CBE8"> 

            <path class="cls-2" d="M84.31,82.2c-.33,0-8.17-1.39-14.88.45-7.67,2.94-10.19,6.79-14.37,13.18l-1.12,1.71c-2,3-2,15.24-1.9,26.47,0,2.18,0,3.9,0,4.37-.1,1.17-3,3-4.93,3.81a.88.88,0,0,0-.27,1.44c.31.31,7.71,7.58,12.93,9.62,4.74,1.86,16.5,3.83,18.11,3.83H78a.9.9,0,0,0,.72-.78c.07-.68-.15-.78-1.91-1.56-9.49-4.21-15-7.63-16.42-10.19,3.69-1.17,5.46-7.33,5.5-9.81,0-.71.06-1.84.12-3.33.15-3.93.41-10.51.48-19,.09-11.7,17.79-18.45,18-18.51A.89.89,0,0,0,85,83,.9.9,0,0,0,84.31,82.2Z" /> 

            <path class="cls-2" d="M80,6V27l21-11S81,7,80,6Z" /> 

            <polygon class="cls-2" points="75.91 38 1.91 99 22.91 117 79.91 36 75.91 38" /> 

        </g> 

    </g> 

    <g > 

        <g class="illustration-primary" fill="#2157AA"> 

            <path class="cls-3" d="M158.53,98.28,87.35,38.92a13.18,13.18,0,0,0-6.41-2.52V3a1.34,1.34,0,0,0-2.67,0V36.5A14.39,14.39,0,0,0,72.45,39l-71,58.52a1.23,1.23,0,0,0-.07,1.89,1.66,1.66,0,0,0,2.15.06L74.49,41A10.44,10.44,0,0,1,80,39a9.7,9.7,0,0,1,5.28,1.86l71.15,59.34a1.67,1.67,0,0,0,1,.36,1.65,1.65,0,0,0,1.1-.41A1.22,1.22,0,0,0,158.53,98.28Z" /> 

            <path class="cls-3" d="M35.48,80.44a1.69,1.69,0,0,0-2.15-.09L13.57,96.14a1.22,1.22,0,0,0-.1,1.88,1.57,1.57,0,0,0,1.12.44,1.63,1.63,0,0,0,1-.34L35.38,82.33A1.23,1.23,0,0,0,35.48,80.44Z" /> 

            <path class="cls-3" d="M55.15,65.55,69.07,54.31a1.23,1.23,0,0,0,.09-1.89A1.68,1.68,0,0,0,67,52.34L53.09,63.59A1.22,1.22,0,0,0,53,65.47a1.61,1.61,0,0,0,1.12.44A1.66,1.66,0,0,0,55.15,65.55Z" /> 

            <path class="cls-3" d="M46.19,66.5a1.23,1.23,0,0,0,.25,1.88c1.71,1.19,5.9,4,7.69,4.22h.21c2.26,0,5-2,9-5,1.59-1.21,4-3,4.76-3.24.9.24,3.36,2.43,4.84,3.74,3.37,3,5.39,4.69,7.23,4.54s4.27-2,8.18-5.14c1.27-1,3-2.36,3.76-2.84a39.59,39.59,0,0,1,3.41,2.6c4,3.23,6.89,5.43,9.16,5.43a3.2,3.2,0,0,0,.83-.1,40.56,40.56,0,0,0,7.13-3.32,1.24,1.24,0,0,0,.43-1.85A1.63,1.63,0,0,0,111,67a37.7,37.7,0,0,1-6.29,3c-1.19.06-5.19-3.17-7.1-4.72-3.27-2.65-4.47-3.57-5.75-3.4-1,.13-2.28,1-5.52,3.62C84.48,67,81.05,69.69,80,69.94c-.9-.23-3.37-2.42-4.85-3.74-3.37-3-5.38-4.68-7.23-4.54-1.52.12-3.37,1.49-6.53,3.9-2.07,1.59-5.51,4.21-6.9,4.38a37.72,37.72,0,0,1-6.15-3.65A1.66,1.66,0,0,0,46.19,66.5Z" /> 

            <path class="cls-3" d="M116.34,151.53c-1.68-.33-3.66-.65-5.76-1-4.58-.75-10.28-1.68-11.85-2.65a11,11,0,0,1-3.17-3.55,37.07,37.07,0,0,0,15-10.47,1.33,1.33,0,0,0-.85-2.18c-1.89-.24-3.89-2.47-4.75-3.64V106.86c0-5.32-4.51-25.31-26.59-25.9h-.23c-22,.59-26.55,20.58-26.55,25.9V128c-.86,1.17-2.86,3.4-4.75,3.64a1.33,1.33,0,0,0-.86,2.18,37.24,37.24,0,0,0,15,10.47,11,11,0,0,1-3.17,3.55c-1.57,1-7.27,1.9-11.85,2.65-2.1.35-4.08.67-5.76,1-6.77,1.33-6.85,5.94-6.85,6.13a1.34,1.34,0,1,0,2.67,0s.13-2.61,4.69-3.51c1.65-.32,3.61-.64,5.68-1,5.66-.93,9.73-1.64,11.93-2.57,2.29,1.83,10,7.3,20.19,7.3,5.91,0,12.66-1.85,19.68-7.32,2.2.94,6.28,1.66,12,2.59,2.07.34,4,.66,5.68,1,4.48.88,4.68,3.39,4.69,3.54a1.34,1.34,0,0,0,2.67,0C123.19,157.47,123.11,152.86,116.34,151.53ZM54,129.2a1.3,1.3,0,0,0,.23-.74v-21.6c0-4.77,4.06-22.7,23.92-23.23h.15c19.89.53,24,18.46,24,23.23v21.6a1.29,1.29,0,0,0,.22.74,14.43,14.43,0,0,0,4.69,4.42c-6.77,7.07-17.41,11.24-28.92,11.25h0c-11.46,0-22.1-4.17-28.89-11.25A14.47,14.47,0,0,0,54,129.2ZM60.64,149a16.05,16.05,0,0,0,2.89-3.79,47.78,47.78,0,0,0,14.71,2.29h0A47.86,47.86,0,0,0,93,145.24,16.11,16.11,0,0,0,95.86,149C79.27,161.36,64.84,152.28,60.64,149Z" /> 

            <path class="cls-3" d="M84.17,9.78,97.7,16.13,84.12,23.18A1.33,1.33,0,0,0,83.55,25a1.35,1.35,0,0,0,1.19.73,1.31,1.31,0,0,0,.61-.15l16-8.29a1.34,1.34,0,0,0,0-2.4l-16-7.49a1.33,1.33,0,1,0-1.13,2.41Z" /> 

        </g> 

    </g> 

</svg> 