<svg xmlns="http://www.w3.org/2000/svg" viewBox="0 0 160 160"> 

 

    <g> 

        <g class="illustration-shape" fill="#C8D9EE"> 

            <circle class="cls-1" cx="79.8" cy="79.83" r="73.25" /> 

        </g> 

    </g> 

    <g> 

        <g class="illustration-secondary" fill="#B3CBE8"> 

            <path class="cls-2" d="M157.8,28c-1.72-4.83,1.48-7.7-5.78-4.16-4.28,1.89-7.79-1.92-11.29,1.53-6,0,.1,4.73-3.9,6.11-1.14-.57-.81.83-1.59.4-2.43-3.3-4.6,5.51-6,1.28-3.41-8-20.42-7-22.55-5.9A73.85,73.85,0,0,0,100,32.12L1.8,32.39V85.27c0,5,1.26,11.33,7.55,10.07,6.9-1.38,8.42,6.12,12.54,8.68.32-.49,1.94-4.45,3.15-1.43,8.28,0,3.37,2.83,8.72,8.32,6.87.47,14.82,15.63,17.58,6.37,5.75-1,10.54,1.58,14.48,1.81,1.09,1,2.62,0,3.77-.36,2-.1,3.85,1.32,5.83,1.64,2.92-.74.06-2.56,3.9-.85-1.75.6,8-3.53,9.44,1.27-.22,11,14.18,12.25,24.1,16.61-1.65-2.75,2.15-2.91-.49-4.65-2.18-.05.68-.64-.24-1.25.13-3.27,3.2-9.73,2.51-11.85,1.11-1.92,3.75-11.37,7.58-10.84,1.19-1,.74-2.25.8-.89,1.49-1.2-1.62-2.49-.67-3.12.92-1.14,2.46-3.35,2-5.55.06-2.11,3.48-3.29,3-4.38,1.81-.41-.11-.34-.85-.5.81-.13,1.28-1.08,1.9-.13.56-2.15.75-5,2.22-6,.55-.44.15-.94.8-1.52a18.83,18.83,0,0,1,3.72-5.7c.55-2,4.16-1.14,5-2.57-3.41-.26,1.15-1,2.55-2.85,3.16-.89,1.39-3.21,1.53-5,2.57-3.4,4.78-5.67,5.59-9.89,1.24-5.31.11-11,3.46-16.73C153.71,38.05,156.25,33.34,157.8,28Z" /> 

        </g> 

    </g> 

    <g> 

        <g class="illustration-primary" fill="#2157AA"> 

            <path class="cls-3" d="M112.86,138.9a1.66,1.66,0,0,1-.61-.12c-2.31-1-5-1.89-7.5-2.73-8.21-2.71-17.5-5.77-17.49-15a1.47,1.47,0,0,0-.77-.78c-1.69-.78-5.08.08-6.36.54a1.87,1.87,0,0,1-.32.15,1.57,1.57,0,0,1-1.82-.36l-.06,0a3.58,3.58,0,0,1-2.14,1.26,1.45,1.45,0,0,1-.62,0,12.81,12.81,0,0,1-2.75-.88,7.75,7.75,0,0,0-2.59-.74l-.54.21c-1,.39-2.6,1-4,.11a31.4,31.4,0,0,1-4.37-.89,23,23,0,0,0-8.43-1,4.53,4.53,0,0,1-2.84,3c-2.6.74-5.25-1.61-8.31-4.33-2.51-2.22-5.35-4.74-7.65-4.9a1.57,1.57,0,0,1-1-.45,12.31,12.31,0,0,1-3.38-6c-.41-1.54-.51-1.88-4.26-1.85h0a1.5,1.5,0,0,1-1.17-.56c-.13.22-.28.49-.45.82s-.22.4-.28.49a1.49,1.49,0,0,1-2,.46A16.24,16.24,0,0,1,17,101.1c-2.35-3.11-4-5-7.39-4.29a6.84,6.84,0,0,1-6-1.22C1.43,93.76.3,90.28.3,85.27V32.39a1.5,1.5,0,0,1,1.49-1.5l97.67-.27a64,64,0,0,1,6.5-4.69c2.06-1.11,11-1.61,17.36.63,3.52,1.23,5.92,3.14,7.12,5.65l.2-.24c.85-1,1.91-2.36,3.42-2.36h.06a2.57,2.57,0,0,1,1.36.44,2,2,0,0,1,1.24-.18c.16-.15.11-.44-.08-1.31a3.85,3.85,0,0,1,.39-3.42,4.1,4.1,0,0,1,3.1-1.26c2.35-2,4.81-1.58,6.8-1.25a7.53,7.53,0,0,0,4.48-.17c3.22-1.57,4.79-2.12,6-1.39s1.16,1.88,1.22,3.06a10.77,10.77,0,0,0,.55,3.36,1.45,1.45,0,0,1,0,.92c-.51,1.74-1.12,3.43-1.7,5.05a37.25,37.25,0,0,0-2.7,10.68,1.51,1.51,0,0,1-.21.66c-2,3.46-2.26,6.84-2.53,10.42a39.19,39.19,0,0,1-.76,5.91c-.75,3.87-2.6,6.25-4.74,9-.26.34-.52.68-.8,1,0,.24.09.51.14.77.27,1.29.8,3.9-2.32,5a8.44,8.44,0,0,1-1.92,1.37,1.56,1.56,0,0,1-.2.94c-.71,1.23-2.14,1.51-3.29,1.73a4.75,4.75,0,0,0-1.55.47,1.49,1.49,0,0,1-.37.66,15.47,15.47,0,0,0-3.11,4.64c-.14.29-.26.54-.36.73a2,2,0,0,1-.28.37v0a2.53,2.53,0,0,1-.88,1.56l-.14.1c-.59.38-.95,2.12-1.2,3.39-.12.58-.24,1.15-.37,1.68a1.55,1.55,0,0,1-.41.7,1.72,1.72,0,0,1-.79.7,5.81,5.81,0,0,1-1.47,1.63c-.54.46-1.27,1.08-1.37,1.54.27,1.83-.37,3.83-1.91,5.94a3.06,3.06,0,0,1,.93,2.25,2.42,2.42,0,0,1-1,1.7,4.09,4.09,0,0,1-.79.88,1.49,1.49,0,0,1-1.16.33c-1.8-.23-4.14,5.52-5,7.7-.3.75-.56,1.39-.79,1.88.18,1.62-.52,3.88-1.3,6.44a33.14,33.14,0,0,0-1.24,4.76,1.56,1.56,0,0,1,.15.67,1.34,1.34,0,0,1,0,.21,2.75,2.75,0,0,1,1,1.55,2.64,2.64,0,0,1-.59,2.08c-.34.49-.37.53,0,1.06a1.51,1.51,0,0,1-.17,1.76A1.48,1.48,0,0,1,112.86,138.9ZM84.92,117c.25,0,.48,0,.68,0,3.23.31,4.27,2.26,4.6,3.39a1.74,1.74,0,0,1,.06.45c-.15,7.25,7.42,9.74,15.43,12.38,1.8.59,3.64,1.2,5.4,1.87a3.88,3.88,0,0,1,.44-.89,1.69,1.69,0,0,1-1.44-1.15,1.58,1.58,0,0,1,.55-1.7,28.22,28.22,0,0,1,1.4-5.9c.53-1.72,1.41-4.6,1.17-5.32a1.51,1.51,0,0,1,.13-1.21,20.86,20.86,0,0,0,.88-2c1.5-3.72,3.72-9.22,7.32-9.56a2,2,0,0,1,.06-.34l0,0a2.62,2.62,0,0,1-.9-2.07,1.85,1.85,0,0,1,.6-1.12c1.29-1.64,1.85-3.09,1.63-4.21,0-.1,0-.21,0-.32,0-1.81,1.43-3,2.44-3.85l.07-.06a1.51,1.51,0,0,1-.32-1,1.49,1.49,0,0,1,1.26-1.44l.21-.12a3,3,0,0,1,.8-.35l0-.08c.38-1.87.8-4,2.23-5.11a2.73,2.73,0,0,1,.68-1.37l.18-.38a18.54,18.54,0,0,1,3.45-5.22c.67-1.56,2.34-2,3.56-2.19,0-1,1-1.51,1.93-1.95a7.25,7.25,0,0,0,2.18-1.4,1.46,1.46,0,0,1,.78-.53c.93-.26.93-.26.64-1.66a6.93,6.93,0,0,1-.2-2,1.42,1.42,0,0,1,.3-.78c.39-.52.77-1,1.14-1.48,2-2.55,3.54-4.56,4.16-7.79a36.55,36.55,0,0,0,.71-5.51c.27-3.67.56-7.45,2.76-11.38a40.94,40.94,0,0,1,2.85-11.17c.52-1.44,1.05-2.92,1.51-4.42a13.76,13.76,0,0,1-.57-3.75c0-.12,0-.25,0-.39a26.76,26.76,0,0,0-3,1.3,10.32,10.32,0,0,1-6.22.41c-2.15-.35-3.33-.48-4.67.84a1.5,1.5,0,0,1-1,.43,3.86,3.86,0,0,0-1.32.16,7.15,7.15,0,0,0,.15.91c.25,1.17.84,3.9-2.26,5a1.53,1.53,0,0,1-.6.08,1.9,1.9,0,0,1-2.19.22,1.42,1.42,0,0,1-.48-.43l0,0a9.46,9.46,0,0,0-1,1.14c-.83,1-1.76,2.19-3.17,1.93s-1.8-1.58-2-2.1c-.78-1.8-2.54-3.21-5.21-4.2-6-2.22-14.14-1.46-15.24-.92a70.76,70.76,0,0,0-6.44,4.72,1.51,1.51,0,0,1-.94.33L3.3,33.89V85.27c0,4,.81,6.8,2.28,8a4,4,0,0,0,3.48.6c5.45-1.09,8.18,2.52,10.37,5.42a26.13,26.13,0,0,0,2,2.45A3.12,3.12,0,0,1,24.1,100,2.32,2.32,0,0,1,26,101.1c4.38.12,5.49,1.24,6.25,4.06a9,9,0,0,0,2.28,4.33c3.1.51,6.13,3.19,8.82,5.58,1.89,1.68,4.49,4,5.49,3.68.29-.08.73-.62,1.11-1.9a1.52,1.52,0,0,1,1.18-1c4-.71,7.48.17,10.54,1a24.62,24.62,0,0,0,4.29.84,1.51,1.51,0,0,1,.94.4c.22.11,1-.21,1.33-.34s.69-.27,1-.36a1.26,1.26,0,0,1,.33-.05,9.28,9.28,0,0,1,4,1,13.46,13.46,0,0,0,1.79.64l.2-.09a1.9,1.9,0,0,1,1-1.27c.76-.34,1.53-.12,2.78.42A19,19,0,0,1,84.92,117Zm54.72-40Z" /> 

            <path class="cls-3" d="M65.57,80.24H62.14L53.71,66.59h-.09l.06.76c.11,1.46.16,2.78.16,4v8.9H51.3V63.11h3.4l8.4,13.58h.07c0-.18-.05-.83-.09-2s-.07-2-.07-2.64v-9h2.56Z" /> 

            <path class="cls-3" d="M80.93,75.59a4.32,4.32,0,0,1-1.65,3.59,7.17,7.17,0,0,1-4.56,1.3,10.87,10.87,0,0,1-4.75-.9V76.93a13.31,13.31,0,0,0,2.49.87,10.47,10.47,0,0,0,2.45.31,3.94,3.94,0,0,0,2.46-.63,2.08,2.08,0,0,0,.79-1.7,2.16,2.16,0,0,0-.73-1.63,11,11,0,0,0-3-1.58,7.93,7.93,0,0,1-3.3-2.17,4.59,4.59,0,0,1-1-2.93,4.09,4.09,0,0,1,1.53-3.37,6.31,6.31,0,0,1,4.09-1.23,12,12,0,0,1,4.9,1.07l-.89,2.29a10.77,10.77,0,0,0-4.08-1,3.12,3.12,0,0,0-2.06.59,1.94,1.94,0,0,0-.71,1.56,2.3,2.3,0,0,0,.28,1.15,3,3,0,0,0,.93.89,15.41,15.41,0,0,0,2.32,1.12A12.8,12.8,0,0,1,79.24,72a4.29,4.29,0,0,1,1.28,1.54A4.51,4.51,0,0,1,80.93,75.59Z" /> 

            <path class="cls-3" d="M101,80.24H98L95.07,70c-.13-.45-.28-1.09-.47-1.93s-.3-1.43-.34-1.75c-.08.5-.21,1.14-.38,1.94s-.33,1.39-.44,1.78L90.6,80.24h-3l-2.21-8.57-2.25-8.56H86l2.45,10c.38,1.6.65,3,.82,4.24.08-.67.21-1.41.39-2.23s.32-1.48.46-2l2.79-10h2.78L98.5,73.17a39.65,39.65,0,0,1,.87,4.17,30.28,30.28,0,0,1,.84-4.27l2.44-10h2.83Z" /> 

        </g> 

    </g> 

</svg> 