<svg xmlns="http://www.w3.org/2000/svg" viewBox="0 0 160 160"> 

 

    <g> 

        <g class="illustration-shape" fill="#C8D9EE"> 

            <circle class="cls-1" cx="80" cy="80" r="73.25" /> 

        </g> 

    </g> 

    <g> 

        <g class="illustration-secondary" fill="#B3CBE8"> 

            <path class="cls-2" d="M50,10.23c7.53,3.63,16.76-9-.13-3.84,0,0-2.5-3.6-2.05-1.33L45.66,8.5C39.25,11.37,50.13,9.74,50,10.23Z" /> 

            <path class="cls-2" d="M126.41,59.48c-23.89-17.58-28.49-6.33-20.92-32.17-1.48-1.3,7-5.43,4.18-1.27C113,25.46,113,23.1,113,23.1c.42-3,3.32-9.71-2-11.07-4.88,1.68,1.74,5.53-4,5.08-.63.59-1.6-2.8-.42-3.39.76-.57-8.26-.71-7.32,1.24-2,1.14-5-1.91-4.83-1.57a2.79,2.79,0,0,0-3.56-.07c-4.43-.13-4.72-3.4-6.8-3.44-4.16,1.12-6,1.48-9.93-4.17C72.64,9.3,70.63,3.24,70,2c-1.79,1.93-4.17.94-5.48,2-4.19,1.65-.51.71,1,3.63,2.88-.78,4.42,3.48,6.67,6.33-3.93-1.26-2.67,2.18-3.22,2-1.1-3.47-3.41,1.4-5.63-1C60,18.39,58.4,16.05,55.4,15c-4,2-1.73,3.76-5,5-3.85-2.22-6.14,5.63-3.7,6.33-3.19,1.89-14.9,13-5.25,12.61-2.83,1.44.58,7.92-1.27,6.25-.85-.57-6.42-1.59-6.42-1.59L33.5,158l92.8-.44S126.67,117.35,126.41,59.48Z" /> 

            <path class="cls-2" d="M110.63,34.49s0-3.25,1.63-3.25,3.24,0,3.24,1.62C117.67,41.74,111.42,37,110.63,34.49Z" /> 

        </g> 

    </g> 

    <g> 

        <g class="illustration-primary" fill="#2157AA"> 

            <path class="cls-3" d="M77.16,95.92H73.73L65.3,82.27h-.09l.05.76c.11,1.46.17,2.79.17,4v8.9H62.89V78.79h3.39l8.41,13.58h.07c0-.18-.05-.83-.1-2s-.07-2-.07-2.64v-9h2.57Z" /> 

            <path class="cls-3" d="M88.56,95.92h-2.8V81.19h-5v-2.4H93.6v2.4h-5Z" /> 

            <path class="cls-3" d="M53,12.4a8.42,8.42,0,0,1-3.52-.77c-.34,0-1,0-1.5,0-3.34.16-5.37.26-5.78-1.45-.35-1.48,1.15-2.31,2.45-2.91L46.28,4.7a1.71,1.71,0,0,1,1-1.76c1.1-.46,2,.24,3.17,1.71,5.48-1.53,8.76-1.33,10,.61C61.25,6.47,61,8,59.7,9.47A9.24,9.24,0,0,1,53,12.4ZM50.9,9a6.07,6.07,0,0,0,5.34-.52,3.91,3.91,0,0,0,1.63-1.61c-.41-.18-2.18-.66-7.56,1a1.52,1.52,0,0,1-1.66-.58l-.23-.32L47.3,8.71l.52,0C49.63,8.6,50.37,8.56,50.9,9Z" /> 

            <path class="cls-3" d="M33.5,159.5a1.5,1.5,0,0,1-1.06-.44A1.46,1.46,0,0,1,32,158l.28-114.39a1.51,1.51,0,0,1,1.77-1.48c1.61.3,3.46.67,4.89,1.06a8.9,8.9,0,0,1,0-3A3.27,3.27,0,0,1,36.37,38c-1.11-3.7,5-9.47,8.14-11.91a4.31,4.31,0,0,1-.23-.84,7.21,7.21,0,0,1,2.6-6.43,3.8,3.8,0,0,1,3.54-.46,1.55,1.55,0,0,0,.76-1,6.25,6.25,0,0,1,3.55-3.69,1.54,1.54,0,0,1,1.17-.07A16.81,16.81,0,0,1,58,14.5c1.88.95,2.52,1.27,4.29-.59a1.45,1.45,0,0,1,1.1-.47,1.51,1.51,0,0,1,1.09.48c.26.29.32.34,1.37-.17a3.79,3.79,0,0,1,2.56-.53,2.9,2.9,0,0,1,.57-.52,2.56,2.56,0,0,1,.4-.22l-.06-.08c-1.39-2.17-2.36-3.57-3.37-3.3a1.51,1.51,0,0,1-1.73-.77A3.48,3.48,0,0,0,62.5,6.85,2.06,2.06,0,0,1,61.1,5c.06-1.18,1.1-1.64,2.7-2.27a5.51,5.51,0,0,1,2.68-.81A3.45,3.45,0,0,0,68.92,1a1.51,1.51,0,0,1,2.45.36c.1.2.24.53.4.91a24.34,24.34,0,0,0,1.17,2.51,1.53,1.53,0,0,1,1-.54,1.51,1.51,0,0,1,1.4.63c3.42,4.9,4.46,4.62,8.31,3.58a1.93,1.93,0,0,1,.42,0,4.41,4.41,0,0,1,3.08,1.67,4.8,4.8,0,0,0,3.32,1.75,4.14,4.14,0,0,1,4.62.24,2.56,2.56,0,0,1,.57.37,7,7,0,0,0,2.27,1.27,2.52,2.52,0,0,1,1-.93c1.45-.81,7.75-1.54,8.9,0a4.11,4.11,0,0,1,2.68-2.15,1.48,1.48,0,0,1,.86,0c5.77,1.47,4.31,7.57,3.53,10.84-.16.68-.31,1.32-.39,1.81-.06,1.3-1.06,3.68-4.55,4.29a1.48,1.48,0,0,1-1.51-.65,1.57,1.57,0,0,1-.24-.64A5.76,5.76,0,0,0,107,27a1.51,1.51,0,0,1,0,.7c-4.84,16.52-4.84,16.52,3.13,20.33A98.58,98.58,0,0,1,127.3,58.27a1.47,1.47,0,0,1,.61,1.2c.26,57.22-.11,97.7-.11,98.1a1.51,1.51,0,0,1-1.49,1.49l-92.81.44ZM35.28,45.43,35,156.49l89.81-.43c.06-7.74.33-45.13.11-95.82a94.09,94.09,0,0,0-16.16-9.47c-9.59-4.6-10-6-4.87-23.31a2.32,2.32,0,0,1,.55-2.1c1-1.27,4.71-3.53,6.5-2.22a2,2,0,0,1,.4.37,1.17,1.17,0,0,0,.15-.45.86.86,0,0,1,0-.16c.09-.64.27-1.39.46-2.17,1-4.15,1.1-6.35-.95-7.12-.6.25-.54.44-.29,1.3a2.9,2.9,0,0,1-.23,2.78c-.74.91-2,1-3.28.94a1.79,1.79,0,0,1-1.07-.08c-1.55-.65-1.65-3.23-1.65-3.34a2.28,2.28,0,0,1,0-.37,15.71,15.71,0,0,0-3.79.38,1.52,1.52,0,0,1-.72,1c-2.35,1.38-5.09-.67-6.13-1.45l0,0a1.11,1.11,0,0,1-.3-.17,1.35,1.35,0,0,0-1.88,0,1.28,1.28,0,0,1-.85.24A7.72,7.72,0,0,1,85,12.17a3.44,3.44,0,0,0-.89-.76c-4,1.05-6.45,1.3-10.12-3.3a1.66,1.66,0,0,1-1,.22c-1.65,0-2.69-1.76-3.69-4a8.37,8.37,0,0,1-2.54.59,3.24,3.24,0,0,0-1.34.31l0,0a5.51,5.51,0,0,1,.81.85c2.51,0,4.11,2.5,5.54,4.73.5.78,1,1.59,1.56,2.28a1.5,1.5,0,0,1-1.64,2.35,3.47,3.47,0,0,0-1-.2c0,.12,0,.27,0,.37a1.91,1.91,0,0,1-.79,1.63,1.67,1.67,0,0,1-1.43.13,1.51,1.51,0,0,1-.89-.94s0-.09,0-.13l-.37.17a4.27,4.27,0,0,1-3.66.43c-2.84,2.33-5,1.22-6.86.31-.36-.18-.73-.37-1.11-.53A3,3,0,0,0,54,18.44a4.55,4.55,0,0,1-3,3,1.5,1.5,0,0,1-1.29-.09,1,1,0,0,0-1.37.23,4.29,4.29,0,0,0-1,3.41,1.5,1.5,0,0,1,.2,2.68c-3.4,2-8.79,8.24-8.24,9.51h0s.39.38,2.16.31a1.5,1.5,0,0,1,.75,2.83c-.66.34-.23,2.61-.06,3.47.23,1.23.45,2.4-.66,3a1.76,1.76,0,0,1-2.1-.34A33.81,33.81,0,0,0,35.28,45.43Zm72.28-29.79h.25a6,6,0,0,1-.2-.87l-.12.11A2.58,2.58,0,0,0,107.56,15.64Z" /> 

            <path class="cls-3" d="M114.69,39.53c-2.35,0-5-2.86-5.49-4.6a1.31,1.31,0,0,1-.07-.44c0-2.19.82-4.75,3.13-4.75,1.5,0,4.61,0,4.74,2.93.93,3.93.4,6.21-1.59,6.76A2.55,2.55,0,0,1,114.69,39.53Zm-2.55-5.29a5.79,5.79,0,0,0,2.28,2.23,8.6,8.6,0,0,0-.37-3.25,1.49,1.49,0,0,1,0-.36h0a6.32,6.32,0,0,0-1.55-.12A4.32,4.32,0,0,0,112.14,34.24Z" /> 

        </g> 

    </g> 

</svg> 