<?xml version="1.0" encoding="UTF-8" standalone="no"?> 

<!DOCTYPE svg PUBLIC "-//W3C//DTD SVG 1.1//EN" "http://www.w3.org/Graphics/SVG/1.1/DTD/svg11.dtd"> 

<svg width="160px" height="160px" viewBox="0 0 160 160" version="1.1" xmlns="http://www.w3.org/2000/svg" xmlns:xlink="http://www.w3.org/1999/xlink" xml:space="preserve" xmlns:serif="http://www.serif.com/" style="fill-rule:evenodd;clip-rule:evenodd;stroke-linejoin:round;stroke-miterlimit:2;"> 

    <g id="Layer_1-2" transform="matrix(1.1036,0,0,1.26956,-9.91282,0.221421)"> 

        <g transform="matrix(0.906129,0,0,0.787672,8.98229,-0.174407)"> 

            <path d="M-0.047,13.625L0.203,68.478L20.534,80.676L36.798,103.243L31.919,110.562L33.139,115.848L38.831,117.474L40.051,125.403L43.304,129.062L49.403,128.046L48.996,133.535L50.013,136.991L53.875,140.244L58.958,139.634L57.738,144.92L59.568,149.596L62.618,150.409L67.497,149.393L70.343,147.563L77.052,156.712L87.217,147.36L91.69,149.596L96.569,147.97L99.619,142.887L99.416,139.227L106.125,139.837L109.784,137.398L110.597,133.738L111.817,128.859L117.713,127.842L120.559,123.98L120.966,119.71L119.543,115.034L115.476,110.968L119.746,105.886L145.159,78.643L160,65.632L159.797,15.212L149.632,9.723L119.959,51.867L106.739,59.14L80.715,58.68L71.285,58.129L58.348,57.093L50.826,51.604L53.235,46.975L18.354,0.714L-0.047,13.625Z" style="fill:white;"/> 

        </g> 

        <g transform="matrix(1,0,0,1,-0.04,-12.02)"> 

            <path d="M27.15,76.35L29.54,80.06C29.54,80.06 40.39,93.31 40.94,94.06C41.49,94.81 48.94,88.76 48.94,88.76C49.09,87.9 42.19,78.64 33.22,67.16C26,57.92 10.35,62.33 3,53.44L0,56.44C12.82,67.55 23.78,77 24.22,77.12C25.29,77.41 27.15,76.35 27.15,76.35Z" style="fill:rgb(218,226,237);fill-rule:nonzero;"/> 

        </g> 

        <g transform="matrix(1,0,0,1,-0.04,-12.02)"> 

            <path d="M133.36,65C133.36,65 119.69,57.62 117.36,52.32C112.74,54.61 107.79,57.44 107.79,57.44C107.79,57.44 118.89,65.91 124.19,71.2C129.49,76.49 124.36,79.68 124.36,79.68L109.36,94C109.36,94 114,99 114.48,99C114.75,99 137.82,78.11 160.02,57.93L146.79,57.85L133.36,65Z" style="fill:rgb(218,226,237);fill-rule:nonzero;"/> 

        </g> 

        <g transform="matrix(1,0,0,1,-0.04,-12.02)"> 

            <path d="M71.75,76.88C74.506,79.824 78.864,80.681 82.53,79C84.73,78 88.19,74.22 88.19,74.22L86.19,70.15C86.19,70.15 79.26,75.15 78.41,76.34C77.56,77.53 71.75,76.88 71.75,76.88Z" style="fill:rgb(218,226,237);fill-rule:nonzero;"/> 

        </g> 

        <g transform="matrix(1,0,0,1,-0.04,-12.02)"> 

            <path d="M88,127.24C87.48,126.88 78.11,118.57 78.11,118.57C76.528,120.78 74.688,122.794 72.63,124.57C67.15,129.17 64.33,127.76 62.56,127.57C61.11,127.43 64.68,131.46 66.62,131.28C68.56,131.1 71.97,128.28 71.97,128.28C71.97,128.28 76.21,134.46 78.15,135.52C80.83,136.98 84.53,135.7 84.53,135.7L86.82,132.7L88,127.24Z" style="fill:rgb(218,226,237);fill-rule:nonzero;"/> 

        </g> 

        <g transform="matrix(1,0,0,1,-0.04,-12.02)"> 

            <path d="M53.73,117.7C53.55,118.22 57.48,120.5 61.32,118.22C72.1,111.82 75.67,105.82 74.97,104.82C74.27,103.82 76.52,106.88 76.17,108.82C75.82,110.76 69.23,116.21 69.27,116.6C69.31,116.99 61.27,122.43 61.27,122.43C61.27,122.43 60.15,123.08 57.73,121.73C56.116,120.698 54.75,119.322 53.73,117.7Z" style="fill:rgb(218,226,237);fill-rule:nonzero;"/> 

        </g> 

        <g transform="matrix(1,0,0,1,-0.04,-12.02)"> 

            <path d="M46,110.63C48.062,111.002 50.19,110.626 52,109.57C63.31,102.5 64.27,98.57 64.27,98.57C64.27,98.57 66.27,100.87 65.6,101.93C64.93,102.99 54.07,111.82 53,112.36C51.93,112.9 49.11,113.59 47.7,112.88C46.857,112.386 46.245,111.576 46,110.63Z" style="fill:rgb(218,226,237);fill-rule:nonzero;"/> 

        </g> 

        <g transform="matrix(1,0,0,1,-0.04,-12.02)"> 

            <path d="M39.06,101.82C39.06,101.82 40.47,103.24 44.71,101.29C48.95,99.34 54.08,93.51 54.08,93.51L54.08,96.51C54.08,96.51 50.19,101.81 49.48,101.81C48.77,101.81 45.6,104.64 44.89,104.64C44.18,104.64 41,103.93 41,103.93L39.06,101.82Z" style="fill:rgb(218,226,237);fill-rule:nonzero;"/> 

        </g> 

        <g transform="matrix(1,0,0,1,-0.04,-12.02)"> 

            <path d="M24.71,78.82C26.09,78.772 27.411,78.249 28.45,77.34C31.98,74.54 54.55,55.19 55.45,54.4C56.94,53.234 57.928,51.541 58.21,49.67C58.3,47.879 57.61,46.135 56.32,44.89C52.11,40.35 27.26,12.67 27,12.39C26.773,12.141 26.452,11.999 26.115,11.999C25.459,11.999 24.919,12.539 24.919,13.195C24.919,13.493 25.03,13.78 25.23,14C25.48,14.28 50.35,42 54.57,46.53C55.396,47.306 55.854,48.397 55.83,49.53C55.619,50.743 54.967,51.837 54,52.6C53.77,52.8 30.52,72.76 27,75.54L26.87,75.66C26.272,76.179 25.506,76.465 24.714,76.465C23.756,76.465 22.845,76.046 22.22,75.32L22.12,75.23L0.07,55.69L0.07,58.87L20.51,77C21.61,78.144 23.123,78.8 24.71,78.82Z" style="fill:rgb(116,143,184);fill-rule:nonzero;"/> 

        </g> 

        <g transform="matrix(1,0,0,1,-0.04,-12.02)"> 

            <path d="M13.25,64.31C13.261,64.95 13.79,65.47 14.43,65.47C14.437,65.47 14.443,65.47 14.45,65.47C14.731,65.479 15.006,65.383 15.22,65.2L43.85,41.2C44.076,40.975 44.204,40.668 44.204,40.349C44.204,39.691 43.662,39.149 43.004,39.149C42.755,39.149 42.513,39.226 42.31,39.37L13.65,63.37C13.383,63.608 13.237,63.953 13.25,64.31Z" style="fill:rgb(116,143,184);fill-rule:nonzero;"/> 

        </g> 

        <g transform="matrix(1,0,0,1,-0.04,-12.02)"> 

            <path d="M24.18,64C21.88,64.005 19.99,65.9 19.99,68.2C19.99,70.504 21.886,72.4 24.19,72.4C26.494,72.4 28.39,70.504 28.39,68.2C28.39,65.896 26.494,64 24.19,64L24.18,64ZM26,68.18C25.995,69.169 25.179,69.98 24.19,69.98C23.197,69.98 22.38,69.163 22.38,68.17C22.38,67.177 23.197,66.36 24.19,66.36C24.193,66.36 24.197,66.36 24.2,66.36C25.189,66.365 26,67.181 26,68.17C26,68.173 26,68.177 26,68.18Z" style="fill:rgb(116,143,184);fill-rule:nonzero;"/> 

        </g> 

        <g transform="matrix(1,0,0,1,-0.04,-12.02)"> 

            <path d="M66.16,58.05C67.825,58.14 69.495,58.14 71.16,58.05C72.94,58.05 74.16,57.96 74.63,58.42C74.851,58.613 75.137,58.716 75.43,58.71C75.756,58.706 76.067,58.568 76.29,58.33C76.714,57.84 76.665,57.09 76.18,56.66C74.96,55.59 73.33,55.66 71.07,55.66C69.478,55.75 67.882,55.75 66.29,55.66C62.06,55.38 60.76,53.66 60.71,53.56C60.482,53.298 60.151,53.147 59.804,53.147C59.146,53.147 58.604,53.689 58.604,54.347C58.604,54.517 58.64,54.685 58.71,54.84C58.86,55.12 60.58,57.66 66.16,58.05Z" style="fill:rgb(116,143,184);fill-rule:nonzero;"/> 

        </g> 

        <g transform="matrix(1,0,0,1,-0.04,-12.02)"> 

            <path d="M89.17,73.82C88.95,73.618 88.663,73.506 88.365,73.506C88.027,73.506 87.706,73.649 87.48,73.9C87.278,74.121 87.165,74.41 87.165,74.71C87.165,75.049 87.309,75.373 87.56,75.6C98.62,86.28 115.37,102.6 116.26,103.74C116.83,104.48 117.9,107.92 116.7,110.16C115.79,111.85 113.7,112.62 110.53,112.45C109.27,111.02 106.71,108.32 106.59,108.19C106.366,107.973 106.066,107.851 105.754,107.851C105.096,107.851 104.554,108.393 104.554,109.051C104.554,109.341 104.659,109.621 104.85,109.84C105.041,110.059 107.53,112.67 108.76,114.05L108.76,113.6C108.768,112.947 109.307,112.414 109.96,112.414C110.56,112.414 111.073,112.865 111.15,113.46L111.15,114.86L111.26,114.86C115.83,114.86 117.85,112.97 118.77,111.29C120.6,107.85 119.04,103.47 118.12,102.29C116.86,100.63 92,76.59 89.17,73.82Z" style="fill:rgb(116,143,184);fill-rule:nonzero;"/> 

        </g> 

        <g transform="matrix(1,0,0,1,-0.04,-12.02)"> 

            <path d="M109,114.36L108.71,114.02C108.8,117.02 108.13,119.12 106.71,120.2C104.51,121.83 101.02,120.91 100.03,120.6L96.18,116.08C95.952,115.845 95.639,115.712 95.311,115.712C94.648,115.712 94.101,116.259 94.101,116.922C94.101,117.194 94.193,117.457 94.36,117.67L98.18,122.18L98.18,121.76C98.179,121.74 98.178,121.719 98.178,121.699C98.178,121.068 98.68,120.541 99.31,120.51C99.958,120.498 100.508,121.004 100.55,121.65C100.58,122.186 100.58,122.724 100.55,123.26C101.475,123.473 102.421,123.587 103.37,123.6C105.072,123.629 106.74,123.114 108.13,122.13C110.13,120.68 111.13,118.22 111.13,114.83C110.69,114.83 110.25,114.81 109.81,114.77C109.499,114.738 109.21,114.592 109,114.36Z" style="fill:rgb(116,143,184);fill-rule:nonzero;"/> 

        </g> 

        <g transform="matrix(1,0,0,1,-0.04,-12.02)"> 

            <path d="M109.86,112.31C109.23,112.341 108.728,112.868 108.728,113.499C108.728,113.519 108.729,113.54 108.73,113.56L108.73,114L109.02,114.34C109.227,114.571 109.512,114.717 109.82,114.75C110.26,114.79 110.7,114.81 111.14,114.81L111.14,113.41C111.109,112.785 110.587,112.288 109.961,112.288C109.938,112.288 109.914,112.289 109.89,112.29L109.86,112.31Z" style="fill:rgb(116,143,184);fill-rule:nonzero;"/> 

        </g> 

        <g transform="matrix(1,0,0,1,-0.04,-12.02)"> 

            <path d="M98.38,122.46L98.14,122.18C98.2,124.86 97.56,126.71 96.23,127.67C94.04,129.25 90.45,128.21 89.55,127.91L85.86,124.38C85.647,124.21 85.383,124.118 85.111,124.118C84.453,124.118 83.911,124.66 83.911,125.318C83.911,125.609 84.018,125.891 84.21,126.11L86.86,128.64C86.995,128.078 87.524,127.695 88.1,127.74C88.743,127.793 89.234,128.356 89.2,129C89.181,129.407 89.131,129.811 89.05,130.21C90.37,130.632 91.745,130.857 93.13,130.88C94.735,130.942 96.319,130.49 97.65,129.59C99.43,128.3 100.39,126.17 100.53,123.23C99.965,123.117 99.407,122.97 98.86,122.79C98.679,122.715 98.515,122.602 98.38,122.46Z" style="fill:rgb(116,143,184);fill-rule:nonzero;"/> 

        </g> 

        <g transform="matrix(1,0,0,1,-0.04,-12.02)"> 

            <path d="M100.52,121.65C100.478,121.004 99.928,120.498 99.28,120.51C98.65,120.541 98.148,121.068 98.148,121.699C98.148,121.719 98.149,121.74 98.15,121.76L98.15,122.18L98.39,122.46C98.526,122.61 98.694,122.73 98.88,122.81C99.418,122.989 99.966,123.139 100.52,123.26C100.55,122.724 100.55,122.186 100.52,121.65Z" style="fill:rgb(116,143,184);fill-rule:nonzero;"/> 

        </g> 

        <g transform="matrix(1,0,0,1,-0.04,-12.02)"> 

            <path d="M88.08,129.82L86.86,128.64L86.86,128.83C86.63,131.5 85.76,133.34 84.24,134.31C81.5,136.04 77.43,134.52 77.34,134.52C77.233,134.489 77.121,134.474 77.01,134.474C76.352,134.474 75.81,135.015 75.81,135.674C75.81,136.138 76.08,136.563 76.5,136.76C77.926,137.269 79.426,137.539 80.94,137.56C82.552,137.593 84.141,137.166 85.52,136.33C87.557,134.933 88.871,132.7 89.1,130.24L88.54,130.07C88.369,130.023 88.212,129.938 88.08,129.82Z" style="fill:rgb(116,143,184);fill-rule:nonzero;"/> 

        </g> 

        <g transform="matrix(1,0,0,1,-0.04,-12.02)"> 

            <path d="M88.08,127.74C87.504,127.695 86.975,128.078 86.84,128.64L88.08,129.82C88.193,129.927 88.325,130.012 88.47,130.07L89.03,130.24C89.09,129.85 89.14,129.45 89.18,129.03C89.231,128.375 88.735,127.793 88.08,127.74Z" style="fill:rgb(116,143,184);fill-rule:nonzero;"/> 

        </g> 

        <g transform="matrix(1,0,0,1,-0.04,-12.02)"> 

            <path d="M37.51,90.29C37.778,90.064 37.933,89.731 37.933,89.38C37.933,89.098 37.833,88.825 37.65,88.61L30.05,79.61C29.826,79.343 29.494,79.188 29.146,79.188C28.865,79.188 28.593,79.288 28.38,79.47C27.892,79.897 27.838,80.648 28.26,81.14L35.85,90.14C36.272,90.645 37.035,90.712 37.54,90.29L37.51,90.29Z" style="fill:rgb(116,143,184);fill-rule:nonzero;"/> 

        </g> 

        <g transform="matrix(1,0,0,1,-0.04,-12.02)"> 

            <path d="M45.8,102.75C45.062,103.33 44.149,103.646 43.21,103.646C40.911,103.646 39.019,101.754 39.019,99.455C39.019,98.17 39.61,96.954 40.62,96.16L46.2,91.76C46.938,91.179 47.85,90.862 48.79,90.86C48.945,90.873 49.098,90.896 49.25,90.93C51.356,91.164 52.967,92.965 52.967,95.084C52.967,96.321 52.419,97.496 51.47,98.29L55.24,95.29C55.241,95.245 55.241,95.201 55.241,95.156C55.241,91.541 52.267,88.566 48.651,88.566C47.223,88.566 45.832,89.031 44.69,89.89L39.15,94.29C37.576,95.539 36.656,97.443 36.656,99.452C36.656,102.787 39.187,105.622 42.5,106C42.763,106.02 43.027,106.02 43.29,106L43.65,106C44.028,104.727 44.776,103.595 45.8,102.75Z" style="fill:rgb(116,143,184);fill-rule:nonzero;"/> 

        </g> 

        <g transform="matrix(1,0,0,1,-0.04,-12.02)"> 

            <path d="M77.36,118.07C76.232,116.435 74.421,115.397 72.44,115.25L63.28,122.52C62.477,123.149 61.539,123.583 60.54,123.79C60.376,124.253 60.262,124.733 60.2,125.22C59.799,128.804 62.416,132.085 66,132.49C66.266,132.505 66.534,132.505 66.8,132.49C68.257,132.461 69.663,131.951 70.8,131.04L76.34,126.64C78.757,124.446 79.194,120.77 77.36,118.07ZM74.86,124.82L69.32,129.22C68.604,129.737 67.743,130.016 66.86,130.016C64.556,130.016 62.66,128.12 62.66,125.816C62.66,124.603 63.186,123.447 64.1,122.65L69.68,118.26C70.415,117.672 71.329,117.351 72.27,117.35C72.433,117.33 72.597,117.33 72.76,117.35C74.867,117.589 76.477,119.393 76.477,121.513C76.477,122.805 75.879,124.027 74.86,124.82Z" style="fill:rgb(116,143,184);fill-rule:nonzero;"/> 

        </g> 

        <g transform="matrix(1,0,0,1,-0.04,-12.02)"> 

            <path d="M45.8,102.75L51.34,98.36L51.44,98.27L45.86,102.7L45.8,102.75Z" style="fill:rgb(116,143,184);fill-rule:nonzero;"/> 

        </g> 

        <g transform="matrix(1,0,0,1,-0.04,-12.02)"> 

            <path d="M54.05,110.9L65.21,102C65.542,101.733 65.9,101.502 66.28,101.31C66.463,99.604 65.967,97.893 64.9,96.55L64.61,96.18C62.355,93.359 58.184,92.882 55.35,95.12L55.24,95.22C55.209,97.128 54.347,98.93 52.88,100.15L47.34,104.54C46.292,105.398 45.002,105.909 43.65,106C43.034,108.065 43.459,110.305 44.79,112L45.09,112.37C46.174,113.733 47.759,114.609 49.49,114.8C49.753,114.82 50.017,114.82 50.28,114.8C50.769,114.792 51.256,114.729 51.73,114.61C52.063,113.148 52.881,111.84 54.05,110.9ZM47,110.84L46.72,110.48C45.305,108.67 45.61,106.021 47.4,104.58L56.87,97C57.611,96.412 58.529,96.091 59.475,96.091C60.755,96.091 61.966,96.677 62.76,97.68L63.05,98.04C63.641,98.782 63.962,99.702 63.962,100.65C63.962,101.927 63.379,103.136 62.38,103.93L52.88,111.47C51.066,112.877 48.421,112.568 46.98,110.78L47,110.84Z" style="fill:rgb(116,143,184);fill-rule:nonzero;"/> 

        </g> 

        <g transform="matrix(1,0,0,1,-0.04,-12.02)"> 

            <path d="M52.86,100.19C54.327,98.97 55.189,97.168 55.22,95.26L51.45,98.26L51.35,98.35L45.86,102.73C44.833,103.58 44.084,104.72 43.71,106C45.054,105.929 46.343,105.443 47.4,104.61L52.86,100.19Z" style="fill:rgb(116,143,184);fill-rule:nonzero;"/> 

        </g> 

        <g transform="matrix(1,0,0,1,-0.04,-12.02)"> 

            <path d="M62.66,120.82L68.2,116.42C69.438,115.559 70.937,115.153 72.44,115.27L74.44,113.68C77.26,111.429 77.737,107.261 75.5,104.43L74.5,103.12C72.542,100.67 69.098,99.934 66.31,101.37C66.12,103.12 65.237,104.723 63.86,105.82L54.36,113.36C53.597,113.961 52.708,114.381 51.76,114.59C51.324,116.522 51.78,118.55 53,120.11L54,121.42C55.082,122.794 56.672,123.677 58.41,123.87C58.673,123.89 58.937,123.89 59.2,123.87C59.64,123.86 60.079,123.81 60.51,123.72C60.941,122.571 61.686,121.566 62.66,120.82ZM55.93,120L54.93,118.69C53.505,116.887 53.812,114.231 55.61,112.8L66.77,103.95C67.505,103.362 68.419,103.041 69.36,103.04C70.642,103.039 71.857,103.621 72.66,104.62L73.66,105.92C75.08,107.728 74.775,110.382 72.98,111.82L61.86,120.66C60.045,122.095 57.373,121.788 55.93,119.98L55.93,120Z" style="fill:rgb(116,143,184);fill-rule:nonzero;"/> 

        </g> 

        <g transform="matrix(1,0,0,1,-0.04,-12.02)"> 

            <path d="M72.44,115.25C70.937,115.133 69.438,115.539 68.2,116.4L62.66,120.82C61.683,121.599 60.948,122.639 60.54,123.82C61.539,123.613 62.477,123.179 63.28,122.55L72.44,115.25Z" style="fill:rgb(116,143,184);fill-rule:nonzero;"/> 

        </g> 

        <g transform="matrix(1,0,0,1,-0.04,-12.02)"> 

            <path d="M63.86,105.82C65.251,104.714 66.136,103.089 66.31,101.32C65.93,101.512 65.572,101.743 65.24,102.01L54.08,110.87C52.908,111.811 52.09,113.123 51.76,114.59C52.708,114.381 53.597,113.961 54.36,113.36L63.86,105.82Z" style="fill:rgb(116,143,184);fill-rule:nonzero;"/> 

        </g> 

        <g transform="matrix(1,0,0,1,-0.04,-12.02)"> 

            <path d="M134.24,78L116.74,94.73C116.501,94.956 116.366,95.271 116.366,95.6C116.366,96.249 116.892,96.786 117.54,96.8C117.859,96.813 118.168,96.689 118.39,96.46L135.86,79.73C136.296,79.27 136.296,78.54 135.86,78.08C135.429,77.63 134.713,77.595 134.24,78Z" style="fill:rgb(116,143,184);fill-rule:nonzero;"/> 

        </g> 

        <g transform="matrix(1,0,0,1,-0.04,-12.02)"> 

            <path d="M68.73,67.54C68.64,67.76 66.36,72.92 68.79,76.35C70.07,78.19 72.39,79.11 75.64,79.11C76.202,79.103 76.762,79.067 77.32,79C77.536,78.98 77.742,78.904 77.92,78.78C81.009,76.564 83.936,74.131 86.68,71.5C87.14,71.039 87.14,70.281 86.68,69.82C86.216,69.366 85.464,69.366 85,69.82C82.429,72.285 79.689,74.567 76.8,76.65C73.73,76.87 71.69,76.3 70.73,74.96C69.43,73.13 70.3,69.96 70.82,68.69C75.4,64.09 81,58.88 82.16,58.6C83.32,58.32 91.16,58.6 96.28,58.72C99.93,58.84 103.09,58.95 104.19,58.89C107.48,58.74 108.83,57.01 108.97,56.81C109.347,56.291 109.235,55.553 108.72,55.17C108.201,54.78 107.456,54.874 107.05,55.38C106.252,56.158 105.163,56.568 104.05,56.51C103.05,56.51 99.79,56.44 96.34,56.33C88.55,56.09 82.93,55.93 81.55,56.33C79.3,56.88 71.32,64.85 68.93,67.25C68.854,67.34 68.788,67.437 68.73,67.54Z" style="fill:rgb(116,143,184);fill-rule:nonzero;"/> 

        </g> 

        <g transform="matrix(1,0,0,1,-0.04,-12.02)"> 

            <path d="M142.77,72.35C141.782,73.077 140.428,73.077 139.44,72.35C134.16,67.77 120.34,55.69 119.08,54.29C118.31,53.43 119.14,51.52 119.53,50.83C128.81,39.45 142.94,22.3 144.58,20.83C144.841,20.689 145.038,20.452 145.13,20.17C145.172,20.047 145.193,19.918 145.193,19.789C145.193,19.278 144.864,18.822 144.38,18.66C143.33,18.33 143.27,18.33 130.14,34.17C123.92,41.71 117.68,49.37 117.61,49.45L117.52,49.57C116.62,51.04 115.52,54.03 117.29,55.95C119.06,57.87 137.16,73.56 137.95,74.28C138.882,74.94 139.998,75.29 141.14,75.28C142.22,75.27 143.27,74.92 144.14,74.28C145.07,73.62 151.81,67.62 160.04,60.28L160.04,57.07C150.92,65.25 143.66,71.71 142.77,72.35ZM143.93,20.94C143.828,20.939 143.727,20.922 143.63,20.89C143.727,20.922 143.828,20.939 143.93,20.94Z" style="fill:rgb(116,143,184);fill-rule:nonzero;"/> 

        </g> 

        <g transform="matrix(1,0,0,1,-0.04,-12.02)"> 

            <path d="M132.66,39.12C132.182,39.568 132.155,40.329 132.6,40.81L152.74,57.94C152.961,58.133 153.247,58.236 153.54,58.23C153.897,58.234 154.237,58.08 154.47,57.81C154.655,57.594 154.757,57.319 154.757,57.035C154.757,56.687 154.605,56.356 154.34,56.13L134.16,39C133.697,38.68 133.067,38.73 132.66,39.12Z" style="fill:rgb(116,143,184);fill-rule:nonzero;"/> 

        </g> 

        <g transform="matrix(1,0,0,1,-0.04,-12.02)"> 

            <path d="M133.71,46.25C133.485,46.024 133.179,45.897 132.86,45.897C132.541,45.897 132.235,46.024 132.01,46.25L125.3,53.32C125.103,53.54 124.994,53.825 124.994,54.12C124.994,54.766 125.515,55.302 126.16,55.32C126.472,55.331 126.774,55.215 127,55L133.72,47.93C134.177,47.466 134.172,46.709 133.71,46.25Z" style="fill:rgb(116,143,184);fill-rule:nonzero;"/> 

        </g> 

        <g transform="matrix(1,0,0,1,-0.04,-12.02)"> 

            <path d="M140.14,51.75C139.915,51.524 139.609,51.397 139.29,51.397C138.971,51.397 138.665,51.524 138.44,51.75L131.73,58.82C131.533,59.04 131.424,59.325 131.424,59.62C131.424,60.278 131.966,60.82 132.624,60.82C132.626,60.82 132.628,60.82 132.63,60.82C132.941,60.812 133.238,60.687 133.46,60.47L140.18,53.35C140.574,52.887 140.557,52.193 140.14,51.75Z" style="fill:rgb(116,143,184);fill-rule:nonzero;"/> 

        </g> 

        <g transform="matrix(1,0,0,1,-0.04,-12.02)"> 

            <path d="M145.1,57.82L138.38,64.89C137.933,65.368 137.955,66.129 138.43,66.58C138.643,66.791 138.93,66.909 139.23,66.91C139.571,66.91 139.897,66.769 140.13,66.52L146.83,59.52C147.044,59.295 147.164,58.996 147.164,58.685C147.164,58.021 146.618,57.475 145.954,57.475C145.653,57.475 145.363,57.587 145.14,57.79L145.1,57.82Z" style="fill:rgb(116,143,184);fill-rule:nonzero;"/> 

        </g> 

    </g> 

</svg> 

 