<svg width="160px" height="160px" viewBox="0 0 160 160" version="1.1" 

    xmlns="http://www.w3.org/2000/svg" 

    xmlns:xlink="http://www.w3.org/1999/xlink"> 

    <!-- Generator: Sketch 58 (84663) - https://sketch.com --> 

    <title>Illustration / CTA Standard / Feature / People BGABlue</title> 

    <desc>Created with Sketch.</desc> 

    <g class="Illustration-/-CTA-Standard-/-Feature-/-People-BGABlue" stroke="none" stroke-width="1" fill="none" fill-rule="evenodd"> 



 
        <path d="M44.5355,142.0028 C45.5035,142.0028 46.2875,142.7868 46.2875,143.7538 L46.2875,157.2018 C46.2875,158.1698 45.5035,158.9528 44.5355,158.9528 C43.5685,158.9528 42.7845,158.1698 42.7845,157.2018 L42.7845,143.7538 C42.7845,142.7868 43.5685,142.0028 44.5355,142.0028 Z M115.4125,142.0028 C116.3805,142.0028 117.1635,142.7868 117.1635,143.7538 L117.1635,157.2018 C117.1635,158.1698 116.3805,158.9528 115.4125,158.9528 C114.4445,158.9528 113.6615,158.1698 113.6615,157.2018 L113.6615,143.7538 C113.6615,142.7868 114.4445,142.0028 115.4125,142.0028 Z M79.9663,149.6287 C82.1513,149.6287 83.9223,151.3987 83.9223,153.5847 C83.9223,155.7697 82.1513,157.5407 79.9663,157.5407 C77.7813,157.5407 76.0103,155.7697 76.0103,153.5847 C76.0103,151.3987 77.7813,149.6287 79.9663,149.6287 Z M45.5166,103.5978 C26.469,117.46968 27.7957188,137.450523 27.8241579,137.848753 L27.8246,157.2018 L18.5816,157.2018 L18.5816,136.7208 C18.5816,112.5838 45.5166,103.5978 45.5166,103.5978 Z M46.6449,114.0632 L44.8019,119.3802 L70.5379,145.2512 L41.3479,124.6782 C40.6570765,124.273494 40.4233325,123.39665 40.7967353,122.707129 L40.8739,122.5802 L46.6449,114.0632 Z M113.6957,114.0632 L119.4667,122.5802 C119.9447,123.2852 119.7277,124.2482 118.9927,124.6782 L89.8037,145.2512 L115.5397,119.3802 L113.6957,114.0632 Z M101.224,105.863 L80.49,140.689 L80.17,140.164 L79.851,140.689 L59.118,105.863 L78.742,128.734 C79.4572381,129.568286 80.720322,129.608014 81.4877359,128.853184 L81.599,128.734 L101.224,105.863 Z M80.3272,1.4998 C80.3272,1.4998 62.9294449,12.4426165 62.5814898,33.3443663 L62.5762,33.9808 L62.5764479,61.2421988 C62.5909022,61.5507858 63.2581928,75.0107852 69.9755943,81.6667416 L70.2152,81.8988 L80.1702,85.0238 L100.1772,78.7448 C100.1772,78.7448 94.2102,89.6278 80.1702,89.6278 C75.90972,89.6278 72.3948144,88.6241776 69.5617822,87.2282854 L69.2112,87.0518 L69.2112,88.3528 C69.1932,91.1848 67.1042,93.6008 64.3432,94.2308 C54.1722,96.5528 45.5882,97.0138 41.0712,97.0658 C41.01195,96.8603 40.9712013,96.6441125 40.9545301,96.4180813 L40.9460912,96.1888 L40.9465569,38.1242992 C40.9748565,35.3864944 42.09328,1.17052 80.3272,1.4998 Z M53.7982,59.9968 C54.0143957,62.7124522 54.9464231,68.7259068 58.9609708,73.6810713 L59.2332,74.0098 L59.2332,75.6128 L65.9152,80.5508 L66.6082,80.7678 C61.2182,77.2268 55.6742,70.9818 53.7982,59.9968 Z" class="illustration-secondary" fill="#B3CBE8" ></path> 

        <path d="M59.2324,82.9738 C60.0120961,82.9738 60.6528487,83.5686881 60.7255334,84.32934 L60.7324,84.4738 L60.7324,89.8778 C60.7324,96.523632 54.367007,101.565151 45.2500765,105.347884 L44.8207189,105.524279 L43.2436173,106.154315 C39.7396379,107.587211 36.6728307,109.308939 34.0410157,111.379583 C25.3242669,118.239024 20.1658741,127.904472 20.0043118,138.587112 L20.0004,139.1048 L20.0004,157.2018 C20.0004,158.030227 19.3288271,158.7018 18.5004,158.7018 C17.7207039,158.7018 17.0799513,158.106912 17.0072666,157.34626 L17.0004,157.2018 L17.0004,139.1048 C17.0004,127.260035 22.631184,116.540786 32.1858953,109.02193 C35.2402744,106.618823 38.7976957,104.667098 42.856781,103.077944 C51.3758787,99.7442433 57.5312208,95.2054785 57.727564,90.1279461 L57.7324,89.8778 L57.7324,84.4738 C57.7324,83.6453729 58.4039729,82.9738 59.2324,82.9738 Z M42.0414,142.2538 C42.8210961,142.2538 43.4618487,142.848688 43.5345334,143.60934 L43.5414,143.7538 L43.5414,157.2018 C43.5414,158.030227 42.8698271,158.7018 42.0414,158.7018 C41.2617039,158.7018 40.6209513,158.106912 40.5482666,157.34626 L40.5414,157.2018 L40.5414,143.7538 C40.5414,142.925373 41.2129729,142.2538 42.0414,142.2538 Z M118.0668,142.2538 C118.846496,142.2538 119.487249,142.848688 119.559933,143.60934 L119.5668,143.7538 L119.5668,157.2018 C119.5668,158.030227 118.895227,158.7018 118.0668,158.7018 C117.287104,158.7018 116.646351,158.106912 116.573667,157.34626 L116.5668,157.2018 L116.5668,143.7538 C116.5668,142.925373 117.238373,142.2538 118.0668,142.2538 Z M101.1082,82.9738 C101.887896,82.9738 102.528649,83.5686881 102.601333,84.32934 L102.6082,84.4738 L102.6082,89.8778 C102.6082,95.0563427 108.825064,99.6895925 117.483914,103.077981 C121.54231,104.666433 125.099496,106.61817 128.154816,109.022017 C137.562844,116.425445 143.166999,126.931348 143.337208,138.558943 L143.3412,139.1048 L143.3412,157.2018 C143.3412,158.030227 142.669627,158.7018 141.8412,158.7018 C141.061504,158.7018 140.420751,158.106912 140.348067,157.34626 L140.3412,157.2018 L140.3412,139.1048 C140.3412,128.21742 135.157384,118.350021 126.299695,111.37967 C123.666997,109.308331 120.600441,107.586613 117.097079,106.154282 L116.390581,105.871656 L115.520085,105.524359 C106.317851,101.7808 99.8108847,96.7839313 99.6128484,90.1881497 L99.6082,89.8778 L99.6082,84.4738 C99.6082,83.6453729 100.279773,82.9738 101.1082,82.9738 Z M111.291965,108.793815 L111.378355,108.909799 L118.209355,119.052799 C118.60535,119.640791 118.532807,120.418433 118.053748,120.922835 L117.944893,121.02657 L89.7038934,145.38457 C89.0765697,145.92564 88.1293997,145.855717 87.58833,145.228393 C87.0810771,144.640277 87.1108292,143.771047 87.6334285,143.218862 L87.7445066,143.11283 L114.977368,119.624354 L108.890045,110.585601 C108.427285,109.898473 108.609171,108.966304 109.296299,108.503545 C109.943008,108.068006 110.806777,108.203504 111.291965,108.793815 Z M51.0453006,108.503545 C51.6920093,108.939083 51.8911684,109.79043 51.5265554,110.461944 L51.4515554,110.585601 L45.3642185,119.624374 L72.5961133,143.112847 C73.2234276,143.653928 73.2933336,144.601099 72.7522529,145.228413 C72.2449897,145.81652 71.380811,145.914718 70.7578792,145.478859 L70.6366867,145.384553 L42.3966867,121.026553 C41.8598864,120.563544 41.7251652,119.794244 42.0545385,119.18153 L42.1322446,119.052799 L48.9632446,108.909799 C49.4260043,108.222671 50.3581725,108.040785 51.0453006,108.503545 Z M101.480637,105.352273 C102.146616,105.757735 102.384559,106.599066 102.051084,107.286576 L101.981827,107.413537 L81.2478266,141.469537 C80.6887994,142.387751 79.3894621,142.427673 78.76606,141.589304 L78.6853734,141.469537 L57.9513734,107.413537 C57.5205706,106.705935 57.7449607,105.783076 58.4525626,105.352273 C59.1185409,104.946812 59.975197,105.121729 60.4328387,105.733643 L60.5138266,105.853463 L79.9666,137.805023 L99.4193734,105.853463 C99.8501761,105.145861 100.773035,104.921471 101.480637,105.352273 Z M61.4987452,99.6431594 C61.9931729,98.9784544 62.9328357,98.8404174 63.5975406,99.3348452 C66.2288496,101.292093 72.5076712,102.6694 79.5783,102.6694 C86.587556,102.6694 92.8238965,101.315973 95.4998466,99.3792614 C96.1709491,98.8935527 97.1087299,99.0438441 97.5944386,99.7149466 C98.0801473,100.386049 97.9298559,101.32383 97.2587534,101.809539 C93.9662012,104.192515 87.1609859,105.6694 79.5783,105.6694 C71.922049,105.6694 65.0648935,104.165231 61.8070594,101.741955 C61.1423544,101.247527 61.0043174,100.307864 61.4987452,99.6431594 Z M79.9699,9.99999998e-05 L80.9127143,0.00270444135 C98.5829946,0.160609845 109.970157,7.48991991 116.137284,19.5716323 C118.239677,23.690326 119.578178,28.087242 120.308065,32.5020627 C120.569819,34.0853157 120.73574,35.5739991 120.824416,36.9359247 C120.850047,37.3295695 120.867686,37.6852352 120.878941,38.0000876 L120.88621,38.2285301 L120.894169,38.6384374 L120.894169,97.0231 C120.894169,97.8515271 120.222327,98.5231 119.3939,98.5231 C118.614204,98.5231 117.973451,97.9282119 117.900767,97.16756 L117.8939,97.0231 L117.894218,38.6560109 C117.893022,38.5464799 117.890668,38.4263192 117.886962,38.2958916 L117.880363,38.0925953 L117.860493,37.6408892 L117.830755,37.1308453 C117.748294,35.8643799 117.593276,34.4735174 117.348243,32.9913999 C116.66564,28.8625855 115.415683,24.7565329 113.465266,20.9355677 C107.79862,9.83432169 97.4210405,3.15141372 80.893716,3.00263751 L80.3279,3.0001 L79.4041015,3.00263732 C62.8773814,3.1514024 52.5084182,9.83381101 46.8551684,20.9343234 C44.9128996,24.7480907 43.6686876,28.8463184 42.9900048,32.9683387 C42.7460529,34.4499951 42.591885,35.8412726 42.5101175,37.1092374 C42.4926712,37.3797763 42.4793631,37.6294209 42.469539,37.856955 L42.4608519,38.0770739 L42.447273,38.646286 L42.4479,97.0231 C42.4479,97.8515271 41.7763271,98.5231 40.9479,98.5231 C40.1682039,98.5231 39.5274513,97.9282119 39.4547666,97.16756 L39.4479,97.0231 L39.4482575,39.0398461 L39.4464347,38.8136529 C39.4464347,38.6386247 39.4490593,38.4392319 39.4550615,38.2166625 L39.4622173,37.9864115 L39.4838844,37.4806124 L39.516336,36.9161769 C39.6042574,35.5527831 39.7692615,34.0637158 40.0298598,32.4809565 C40.7555992,28.0731348 42.0880623,23.6842228 44.1818816,19.5728766 C50.4028279,7.35765617 61.9652763,9.99999998e-05 79.9699,9.99999998e-05 Z M54.7907379,26.9617134 L54.8834299,27.0634871 L54.9129728,27.0975139 L55.0748308,27.2685533 L55.3498724,27.5381312 C55.8079415,27.9737581 56.3907196,28.4662225 57.1074094,29.0021675 C59.1951269,30.5633755 61.9281502,32.1365522 65.380958,33.6138202 C75.3626473,37.8844402 89.1063309,40.4594 107.1993,40.4594 C107.978996,40.4594 108.619749,41.0542881 108.692433,41.81494 L108.6993,41.9594 L108.6993,56.2784 C108.6993,62.0014478 107.24814,67.5935468 104.533013,72.3366988 L104.247637,72.8243119 L103.949083,73.3148525 C100.630986,78.6708084 96.1955832,82.7021186 91.1451714,84.9179159 C88.4220702,86.113155 85.5758449,86.7552933 82.7057069,86.8267032 L82.1673,86.8334 L78.7653,86.8334 C75.7136487,86.8334 72.6803811,86.1877071 69.7876471,84.9180118 C64.5846322,82.635262 60.0348068,78.425552 56.6850762,72.8245005 C53.8829317,68.140713 52.338329,62.5831877 52.238469,56.8699505 L52.2333,56.2784 L52.2333,28.0264 C52.2333,26.6718704 53.8691542,26.0323391 54.7907379,26.9617134 Z M55.2333,31.3465675 L55.2333,56.2784 C55.2333,61.6636055 56.6431116,66.9109635 59.2596434,71.2844993 C62.3014061,76.3706008 66.3853736,80.1492773 70.9931714,82.1708841 C73.3515227,83.206025 75.8043177,83.7614723 78.271661,83.8268597 L78.7653,83.8334 L82.1673,83.8334 C84.8014386,83.8334 87.4234948,83.275192 89.9396471,82.1707882 C94.4039126,80.2121543 98.3767676,76.6043683 101.38478,71.7575753 L101.672851,71.2846768 L101.939427,70.8287978 C104.297697,66.7017659 105.603981,61.8391142 105.694279,56.8349683 L105.6993,56.2784 L105.6993,43.4535247 C87.949039,43.3137826 74.2902607,40.68867 64.200892,36.3719798 C60.7339353,34.8886583 57.9188354,33.2966991 55.6967696,31.6886219 L55.3107844,31.404695 L55.2333,31.3465675 Z" class="illustration-primary" fill="#2157AA"></path> 

    </g> 

</svg> 