<svg xmlns="http://www.w3.org/2000/svg" viewBox="0 0 160 160"> 

 

    <g > 

        <g class="illustration-shape" fill="#C8D9EE"> 

            <path class="cls-1" d="M51.27,94.23C56,92.4,58,82.54,57.84,79.06s-3.29-1.64-3.29-1.64l-2.74.73L42.5,77.6l-6-2.55-.55-3.29L34.64,55.13,37,38.87s5.29-13.7,5.29-14.25L42,24.36a63.63,63.63,0,0,0-19.28,83.56l9.77-4.74S46.52,96.06,51.27,94.23Z" /> 

            <path class="cls-1" d="M104.24,18.69l5.85,7.94,7.68,15,2.74,9.87,2.37,9.86,1.1,7.49-7.86,4.75-7.85,2h-3.84s-4.75-1.28-3.84,3.47a97.66,97.66,0,0,0,2.74,10.24l5.12,5.48,7.31,3.83,7.85,3.84,5.3,2.92s3.12,1.67,4.74,2.4a63.6,63.6,0,0,0-29.41-89.08Z" /> 

        </g> 

    </g> 

    <g > 

        <g class="illustration-secondary" fill="#B3CBE8"> 

            <path class="cls-2" d="M59.71,75s11.35,6.89,15.63,6.89c-11.6-7.2-16.68-16.48-18.63-24.93,2,.82,6.17-1.49,6.17-1.49l-4.1-8.74-3.12.66a43.83,43.83,0,0,1,2-13.32l5.76-1.48s1.68-10,.93-12.66c-8.55-11,1.31-16.74,1.31-16.74C39.25,6.52,27.53,65.87,38.88,76.1,51.53,78.89,59.71,75,59.71,75Z" /> 

            <path class="cls-2" d="M83.58,52.48c1.86,1.3,8.88-.57,8.88-.57l-4.1-8.74-6.73,2S81.72,51.18,83.58,52.48Z" /> 

            <path class="cls-2" d="M13.6,118.14s-9.94,14.49-7.45,40.77c2.27,1,10.76-.41,10.76-.41s-.64-5.63.62-21.94c1.65-21.53,20.28-35.19,20.28-35.19s-7.45,3.11-14.69,5.8S13.6,118.14,13.6,118.14Z" /> 

            <path class="cls-2" d="M122,144.17c0-.83-.38-1.5-1.21-1.5a1.77,1.77,0,0,0-1.79,1.5l.29,13.77a1.5,1.5,0,0,0,3,0Z" /> 

            <path class="cls-2" d="M108,97.77c-27.35,4.63-59.39,0-59.71,0A1.47,1.47,0,0,0,46.62,99a1.49,1.49,0,0,0,1.23,1.69,250.43,250.43,0,0,0,32.43,2.1,171.47,171.47,0,0,0,28.14-2.1A1.49,1.49,0,0,0,109.61,99,1.44,1.44,0,0,0,108,97.77Z" /> 

            <path class="cls-2" d="M105.91,74.47c1.24-1.86.17-18,0-17C104.46,66.4,96,75.71,96,75.71S104.66,76.33,105.91,74.47Z" /> 

        </g> 

    </g> 

    <g > 

        <g class="illustration-primary" fill="#2157AA"> 

            <path class="cls-3" d="M35.28,142.67a1.5,1.5,0,0,0-1.5,1.5v13.77a1.5,1.5,0,0,0,3,0V144.17A1.5,1.5,0,0,0,35.28,142.67Z" /> 

            <path class="cls-3" d="M123,142.67a1.5,1.5,0,0,0-1.5,1.5v13.77a1.5,1.5,0,0,0,3,0V144.17A1.5,1.5,0,0,0,123,142.67Z" /> 

            <path class="cls-3" d="M59.15,79.46a1.5,1.5,0,0,0-3-.4c-1.7,12.51-5.07,14-19.24,20.37-3.37,1.52-7.2,3.23-11.73,5.42-10.27,5-17.09,15.87-19.73,31.57a92,92,0,0,0-.92,22.19A1.5,1.5,0,0,0,6.05,160H6.2a1.5,1.5,0,0,0,1.34-1.65c0-.4-3.81-39.75,19-50.75,4.5-2.17,8.3-3.88,11.65-5.38C52.42,95.78,57.23,93.63,59.15,79.46Z" /> 

            <path class="cls-3" d="M152.82,136.42c-2.64-15.7-9.46-26.62-19.73-31.57-4.54-2.19-8.36-3.9-11.73-5.42-14.18-6.35-17.54-7.86-19.24-20.37a1.5,1.5,0,0,0-3,.4c1.93,14.17,6.73,16.32,21,22.71,3.36,1.5,7.16,3.21,11.65,5.38,22.76,11,19,50.35,19,50.75a1.52,1.52,0,0,0,1.34,1.65h.16a1.5,1.5,0,0,0,1.49-1.34A92,92,0,0,0,152.82,136.42Z" /> 

            <path class="cls-3" d="M36.21,77.19l.15,0A53.68,53.68,0,0,0,48.5,78.75c1.65,0,3.52-.07,5.81-.22a1.5,1.5,0,0,0-.19-3,48.83,48.83,0,0,1-16.28-1.07c-3-20.73.5-40.39,9.86-55.46a35.09,35.09,0,0,1,7.8-9.19C62,4.7,71.18,2.75,80.19,4.61c8,1.67,15.94,6.35,22.21,13.19,5.33,5.82,9.65,13.16,13.19,22.43a109.87,109.87,0,0,1,6.81,28.49h0c-6.28,2.92-10.68,4.84-18,5.16a1.5,1.5,0,0,0,.06,3h.07c8.24-.36,13.18-2.66,20-5.85a1.5,1.5,0,0,0,.74-1.94,1.41,1.41,0,0,0,.1-.65,112.91,112.91,0,0,0-7-29.28c-3.68-9.63-8.18-17.29-13.78-23.39C97.91,8.47,89.46,3.47,80.8,1.68c-9.87-2-20,.12-27.16,5.78a37.78,37.78,0,0,0-8.49,10C35.26,33.35,31.66,54.14,35,76A1.49,1.49,0,0,0,36.21,77.19Z" /> 

            <path class="cls-3" d="M47,99.32a1.52,1.52,0,0,0-1.69,1.28,1.49,1.49,0,0,0,1.28,1.69,272.25,272.25,0,0,0,33.69,2.1,185,185,0,0,0,29.24-2.1,1.5,1.5,0,0,0-.48-3C80.64,104,47.36,99.37,47,99.32Z" /> 

            <path class="cls-3" d="M118.46,104.42c-40.28,6.78-77.41.43-77.78.36a1.5,1.5,0,0,0-.52,3A252.8,252.8,0,0,0,79,110.54,242,242,0,0,0,119,107.37a1.5,1.5,0,1,0-.5-3Z" /> 

            <path class="cls-3" d="M105.36,61.93c0,2.52,0,5.13.1,8A1.47,1.47,0,0,0,107,71.39a1.5,1.5,0,0,0,1.46-1.53c-.07-2.89-.09-5.52-.1-8.06-.07-11.41-.13-20.42-5.65-36a1.51,1.51,0,0,0-1.79-.95c-6.07,1.58-11.54,2.84-16.6,3.85A41.2,41.2,0,0,1,79,20.3a1.5,1.5,0,0,0-2.71,1.29A44.05,44.05,0,0,0,81,29.33c-3.6.65-7,1.16-10.27,1.54a104.25,104.25,0,0,1-5-10.68,1.5,1.5,0,0,0-2.88.59c0,4.19-.22,9.16-.66,10.8a86,86,0,0,1-10.48-.12,1.5,1.5,0,0,0-1.55,1c-4.24,13.61-5.3,25-3.78,40.67a1.5,1.5,0,0,0,1.49,1.35H48a1.51,1.51,0,0,0,1.35-1.64c-.29-3-.48-5.78-.57-8.49a50.65,50.65,0,0,0,5.89,7.18c5.38,5.62,13.88,12.24,24.13,12.24h.74C87,83.58,94.45,79.65,99.51,73.3A38,38,0,0,0,105.36,61.93Zm-8.2,9.5C92.65,77.1,86,80.6,79.48,80.81c-9.44.3-17.51-6-22.6-11.31-3.13-3.27-6.88-7.6-8.07-12,0,0,0,0,0,0,.08-2.41.26-4.77.54-7.1,1.72,2.87,4.7,7.14,7.32,7.57A8.1,8.1,0,0,0,58,58c3.84,0,11.41-1.61,12.79-3.42.85-1.1,1.19-3.66,1.18-5.83a9.32,9.32,0,0,1,8.49-.36c.41,2,1.17,4.31,2.15,5.2,1.14,1.05,5.05,1.53,8.63,1.53A20.93,20.93,0,0,0,97,54.49c3.23-1.11,5.89-8.58,6.63-10.84a1.54,1.54,0,0,0-.19-1.32,1.5,1.5,0,0,0-1.17-.65c-17.3-.77-21.09,1.84-21.68,2.37a1.59,1.59,0,0,0-.43.7c0,.09,0,.2-.06.32a12.15,12.15,0,0,0-8.58.51.76.76,0,0,1,0-.11,1.47,1.47,0,0,0-.55-.61c-.66-.41-4.75-2.29-21,1.15A94.06,94.06,0,0,1,52.7,34.54a94.5,94.5,0,0,0,10.38,0c1,0,2.21-.11,2.64-6.88,3,6.46,3.74,6.38,4.65,6.27a219,219,0,0,0,30-5.83A81.48,81.48,0,0,1,105.15,52a1.54,1.54,0,0,0-.21.47C103.36,58.89,101.32,66.21,97.16,71.43ZM51.85,48.68c6.95-1.37,14.6-2.22,17-1.49.18,1.45,0,4.84-.46,5.5-1,.88-8.63,2.68-11.27,2.25C56.07,54.76,53.73,51.78,51.85,48.68ZM83.07,46c2.26-1.12,10-1.57,17.06-1.38-1.29,3.36-3.06,6.69-4.08,7-2.52.87-10.38.37-11.45-.29a10.18,10.18,0,0,1-1.29-3.75,1.52,1.52,0,0,0-.16-1C83.11,46.41,83.09,46.18,83.07,46Z" /> 

        </g> 

    </g> 

</svg> 