<svg xmlns="http://www.w3.org/2000/svg" viewBox="0 0 160 160"> 

  

    <g > 

        <g class="illustration-shape" fill="#C8D9EE"> 

            <path class="cls-1" d="M51.63,100.91C60.22,97.71,60,82.32,60,82.32l.6-7.4-2-2.2-4.6-7-2-.6-2.4-3-2.8-.6a30.11,30.11,0,0,1-6.6-6.4c-2.47-3.55,0-9.59,0-9.59a34.41,34.41,0,0,1-4-9.8c-1.2-5.4,4.2-5.4,4.2-5.4l-3.12-.09a67.33,67.33,0,0,0-15.42,88.65c2.72-3,6.52-7.24,8.34-9.18C33.23,106.51,43,104.11,51.63,100.91Z" /> 

            <path class="cls-1" d="M116.66,27.3l-2.25-.77c2.2,1.8,4,4.6,3,9.4-.68,3.25-1.27,3.66-1.57,3.58a8.76,8.76,0,0,1,2.57,4c1,3-2.8,9.39-2.8,9.39a39.71,39.71,0,0,1-3.6,6.2c-2.8,4.2-4.4,1.2-4.4,1.2s-2.2,8.4-4,12.2-4.2,4.8-4.2,4.8l1.4,13.59a36.8,36.8,0,0,0,2.8,7c1.4,2.2,8.4,4.2,11.8,5.6a147.85,147.85,0,0,1,15.19,7.2,38.42,38.42,0,0,1,6.7,6.13A67.36,67.36,0,0,0,116.66,27.3Z" /> 

            <path class="cls-1" d="M115.84,39.51l-.23-.18A.42.42,0,0,0,115.84,39.51Z" /> 

        </g> 

    </g> 

    <g > 

        <g class="illustration-secondary" fill="#B3CBE8"> 

            <path class="cls-2" d="M113,142a1.5,1.5,0,0,0-1.5,1.5v13.17a1.5,1.5,0,0,0,3,0V143.45A1.5,1.5,0,0,0,113,142Z" /> 

            <path class="cls-2" d="M40.5,45.94a51.21,51.21,0,0,0-.4,7.63,7.24,7.24,0,0,0,.45,2.74,5.75,5.75,0,0,0,2.15,2.36c2.4,1.64,5.41,2.36,7.48,4.39a9.35,9.35,0,0,0,2,1.84,14,14,0,0,1,3.25,2.49c2.35,4,6,7,9.63,9.73a24.81,24.81,0,0,0,6,3.51c-6.6-1.27-11.47-6.42-11.47-6.42a32.57,32.57,0,0,0,.93,8.18c19.16,10.24,35.35,1.49,37-.37s1.49-5.58-1.86-3c-3,2.3-11.48,2-19,1.88C62.07,74.13,62,46.16,65.46,37.57a6.35,6.35,0,0,1-2-.47c-1.92-.71-4.14-2.28-3.59-4.26.35-1.26,1.7-1.92,2.91-2.43A6.49,6.49,0,0,1,57.54,28,4,4,0,0,1,58,22.62a2.16,2.16,0,0,1-2.39-2.06,3.48,3.48,0,0,1,1.78-2.93,9.72,9.72,0,0,1,3.39-1.1,5.09,5.09,0,0,1-3.56-5.75A4.55,4.55,0,0,1,58.09,9c-1.23.62-2.45,1.29-3.65,2-2.74,1.73-5.62,3.63-6.9,6.6-.83,1.94-1,4.34-2.64,5.65-.9.71-2.13,1-2.86,1.87-1.12,1.34-.57,3.34-.85,5.06a1.43,1.43,0,0,1-.49,1,2.41,2.41,0,0,1-1.14.25,4,4,0,0,0-3.1,2.84,9.79,9.79,0,0,0-.12,4.41C36.75,41.58,37.79,44.85,40.5,45.94Z" /> 

            <path class="cls-2" d="M66,36.44a10.12,10.12,0,0,0-.52,1.13,2.56,2.56,0,0,0,.62,0C67,37.38,66,37.33,66,36.44Z" /> 

            <path class="cls-2" d="M58.09,9c1.4-.72,2.83-1.38,4.27-2A4.86,4.86,0,0,0,58.09,9Z" /> 

            <path class="cls-2" d="M46.18,119,51,115.74l-1.43-1,1.71-.94-7.07-6.52s-3.91.93-2.42,2.79A70.75,70.75,0,0,0,47,115.39a38.78,38.78,0,0,1-4.81,2.11c-1.86.65-5.87.18-5.13,3.07-.11,1.73,16.84,31.05,25.62,36.8l.94-.88s-19.1-31.11-19.81-34.05S46.18,119,46.18,119Z" /> 

            <path class="cls-2" d="M116.58,117.5a39.26,39.26,0,0,1-4.8-2.11,70.68,70.68,0,0,0,5.23-5.28c1.49-1.86-2.42-2.79-2.42-2.79l-7.07,6.52,1.71.94-1.43,1,4.79,3.21s3.09.55,2.37,3.49-19.81,34.05-19.81,34.05l.95.88c8.78-5.75,25.72-35.07,25.61-36.8C122.45,117.68,118.44,118.15,116.58,117.5Z" /> 

            <path class="cls-2" d="M41.91,104.22a65.64,65.64,0,0,0-17.23,10.13c-8.79,7.11-12.56,40.18-9.76,42.28s7.81.14,7.81.14.14-4.19,1.53-23.86,20.19-28.41,24.38-30.65S41.91,104.22,41.91,104.22Z" /> 

            <path class="cls-2" d="M100,99a1.51,1.51,0,0,0-2.08-.42c-18.34,12.16-35.86.52-36.6,0a1.5,1.5,0,0,0-1.69,2.48,40.34,40.34,0,0,0,20.65,6,34.31,34.31,0,0,0,19.3-5.94A1.5,1.5,0,0,0,100,99Z" /> 

        </g> 

    </g> 

    <g > 

        <g class="illustration-primary"  fill="#2157AA"> 

            <path class="cls-3" d="M60.38,92.66l1-11.64A1.49,1.49,0,0,0,60,79.4a1.51,1.51,0,0,0-1.63,1.36l-1,11.7a.62.62,0,0,0,0,.13c0,4.9-9.34,7.91-14.93,9.71-1.44.46-2.69.86-3.67,1.25a40.37,40.37,0,0,0-10.46,5.83c-9.61,7.56-14.9,18-14.9,29.5v17.74a1.5,1.5,0,0,0,3,0V138.88c0-10.53,4.88-20.17,13.75-27.15a37.57,37.57,0,0,1,9.71-5.39c.89-.35,2.1-.74,3.49-1.19C50.12,103,60.32,99.7,60.38,92.66Z" /> 

            <path class="cls-3" d="M43,141.94a1.5,1.5,0,0,0-1.5,1.5v13.18a1.5,1.5,0,0,0,3,0V143.44A1.5,1.5,0,0,0,43,141.94Z" /> 

            <path class="cls-3" d="M115.74,141.94a1.5,1.5,0,0,0-1.5,1.5v13.18a1.5,1.5,0,0,0,3,0V143.44A1.5,1.5,0,0,0,115.74,141.94Z" /> 

            <path class="cls-3" d="M131.68,109.38a40.37,40.37,0,0,0-10.46-5.83c-1-.39-2.23-.79-3.67-1.25-5.59-1.8-14.93-4.81-14.93-9.71,0,0,0-.11,0-.16l-1.13-10.49a1.5,1.5,0,0,0-3,.32l1.12,10.42c.08,7,10.26,10.3,17,12.47,1.39.45,2.6.84,3.49,1.19a37.86,37.86,0,0,1,9.71,5.39c8.87,7,13.75,16.62,13.75,27.15v17.74a1.5,1.5,0,0,0,3,0V138.88C146.58,127.42,141.29,116.94,131.68,109.38Z" /> 

            <path class="cls-3" d="M55.65,102.79a1.5,1.5,0,0,0-.85,1.94c.16.42,16.49,42,17.5,52.72a1.49,1.49,0,0,0,1.49,1.36h.14a1.49,1.49,0,0,0,1.35-1.63c-1-11.12-17-51.81-17.69-53.54A1.49,1.49,0,0,0,55.65,102.79Z" /> 

            <path class="cls-3" d="M44,121.07c4.5-1.83,10.18-8.18,10.9-9a1.5,1.5,0,0,0-2.25-2c-.59.67-1.31,1.43-2.08,2.21l-5.78-5.42a1.5,1.5,0,0,0-2,2.19l5.66,5.31c-2.39,2.17-4.94,4.05-6.48,4.18a1.49,1.49,0,0,0-1.13.67,1.52,1.52,0,0,0-.17,1.31c5.2,15.23,21.94,37.43,22.65,38.37a1.5,1.5,0,0,0,1.2.59,1.5,1.5,0,0,0,1.19-2.41C65.51,156.88,49.62,135.82,44,121.07Z" /> 

            <path class="cls-3" d="M103.11,102.79a1.49,1.49,0,0,0-1.94.84c-.68,1.73-16.65,42.42-17.69,53.54a1.49,1.49,0,0,0,1.35,1.63H85a1.49,1.49,0,0,0,1.49-1.36c1-10.7,17.34-52.3,17.5-52.72A1.5,1.5,0,0,0,103.11,102.79Z" /> 

            <path class="cls-3" d="M116.83,118.56c-1.54-.13-4.09-2-6.48-4.18l5.66-5.31a1.5,1.5,0,1,0-2.05-2.19l-5.78,5.42c-.77-.78-1.48-1.54-2.07-2.21a1.5,1.5,0,0,0-2.26,2c.72.82,6.4,7.17,10.9,9-5.61,14.75-21.5,35.81-21.66,36a1.5,1.5,0,0,0,1.19,2.41,1.48,1.48,0,0,0,1.2-.59c.71-.94,17.46-23.14,22.65-38.37a1.5,1.5,0,0,0-1.3-2Z" /> 

            <path class="cls-3" d="M100,100.69a1.51,1.51,0,0,0-2.08-.42c-18.34,12.16-35.86.52-36.6,0a1.5,1.5,0,0,0-1.69,2.47,40.34,40.34,0,0,0,20.65,5.95,34.31,34.31,0,0,0,19.3-5.94A1.5,1.5,0,0,0,100,100.69Z" /> 

            <path class="cls-3" d="M119.59,30.11a10.05,10.05,0,0,0-6.29-6.54c0-.61.12-1.25.21-1.92.28-2,.59-4.31-.67-6.35-2-3.22-6.13-3.16-8.74-2.81a5.88,5.88,0,0,0-1.1-2.28A5.55,5.55,0,0,0,99.12,8a12.69,12.69,0,0,0-2.23.08c-1.2.12-2.07.17-2.28-.18a2.78,2.78,0,0,1-.15-1c0-.27,0-.54-.07-.8a5.86,5.86,0,0,0-9.78-3.52A6,6,0,0,0,80.73.56a8.19,8.19,0,0,0-5.58,2A6.68,6.68,0,0,0,68.66.72,6.64,6.64,0,0,0,64.24,5a6.67,6.67,0,0,0-3.86.16A7.63,7.63,0,0,0,55.75,9.1,9.41,9.41,0,0,0,48.17,13a16,16,0,0,0-2.82,7.27,6.22,6.22,0,0,0-5.11,3.75A8.88,8.88,0,0,0,39.8,29a4,4,0,0,0-.58.13,5.57,5.57,0,0,0-3.28,2.7A10.52,10.52,0,0,0,35.22,38c.32,2.85,1,6.06,3.28,8.28l.1.09a13.36,13.36,0,0,0,.64,10.41A11.62,11.62,0,0,0,48.49,63a5.6,5.6,0,0,0,1.36,2.38A5.37,5.37,0,0,0,53.32,67a27.68,27.68,0,0,0,25,15.87h5c14.37,0,21.74-5.71,26-20.22h0a1.84,1.84,0,0,0,.33,0l.15,0h0c2.49-.68,5.56-4,6-7.3,4.15-5.34,4.71-10.72,1.69-16A10,10,0,0,0,119.59,30.11Zm-36.2,49.8h-5A24.74,24.74,0,0,1,55.73,65.14a9.32,9.32,0,0,0,3.83-3.06C61,60,60.85,57.49,60.62,54.93,60,48,59.16,45,58.43,43.73a4.69,4.69,0,0,0,2.72-2.14A12.53,12.53,0,0,0,62.63,38a7.94,7.94,0,0,0,6.2-.92,9.73,9.73,0,0,0,3.67-4.31,7.09,7.09,0,0,0,9.84.08,4.25,4.25,0,0,0,3.85,1,6.25,6.25,0,0,0,2.6-1.46,10.58,10.58,0,0,0,4.65,4,6.23,6.23,0,0,0,4.27.46c2.49,7.62,3.71,13.84,3.71,19a1.46,1.46,0,0,0,.27.86,19.46,19.46,0,0,0,4.94,4.74C102.77,74.89,96.42,79.91,83.39,79.91ZM114.58,52a1.46,1.46,0,0,0-1.47,1,4.26,4.26,0,0,0-.15,1.94,7.29,7.29,0,0,1-3.55,4.67,14.69,14.69,0,0,1-5-4.22c-.07-5.43-1.36-11.88-3.93-19.67a3.08,3.08,0,0,0-1.65-2,1.94,1.94,0,0,0-1.66.15,2.9,2.9,0,0,1-2.53-.19,6.91,6.91,0,0,1-3.9-4.22,1.51,1.51,0,0,0-2.6-.68A6.66,6.66,0,0,1,85.45,31a1.23,1.23,0,0,1-.93-.2,1,1,0,0,1-.42-.69,1.5,1.5,0,0,0-2.76-.64,4.68,4.68,0,0,1-4.15,2.35,5,5,0,0,1-3.92-3,1.5,1.5,0,0,0-2.84.44,7.4,7.4,0,0,1-3.17,5.27,5,5,0,0,1-5.09.07,1.49,1.49,0,0,0-2.23,1c-.08.44-.12.79-.16,1.11-.09.84-.15,1.34-1.27,3.4a2,2,0,0,1-1.23.79,10.36,10.36,0,0,1-5.3-.28A1.51,1.51,0,0,0,49.4,42c.13.74.65,1.56,3.5,2a15,15,0,0,0,2.57.2,1.5,1.5,0,0,0,.45,1.07,57.86,57.86,0,0,1,1.71,10c.19,2.09.28,3.92-.58,5.23a8.2,8.2,0,0,1-3.58,2.46,1.5,1.5,0,0,0-.78.9,2.66,2.66,0,0,1-.67-.5,2.34,2.34,0,0,1-.7-1.71,1.48,1.48,0,0,0-.44-1.15A1.51,1.51,0,0,0,49.73,60a8.59,8.59,0,0,1-7.83-4.62,10.43,10.43,0,0,1,0-9.11,1.74,1.74,0,0,0,.23-.33,1.62,1.62,0,0,0-.22-1.76,1.47,1.47,0,0,0-1.31-.51,1.23,1.23,0,0,0-.33.08c-1.36-1.58-1.8-4-2-6.09a7.69,7.69,0,0,1,.38-4.43A2.62,2.62,0,0,1,40.07,32a1.27,1.27,0,0,1,1,.05,1.5,1.5,0,0,0,1.68-.15,1.48,1.48,0,0,0,.48-1.61A7.51,7.51,0,0,1,43,25.21C43.51,24,45,23,46.13,23.39a1.49,1.49,0,0,0,1.3-.14,1.52,1.52,0,0,0,.7-1.1c.36-3.27,1.14-5.6,2.43-7.32,1.51-2,4-3.09,5.95-2.63a1.5,1.5,0,0,0,1.83-1.28,4.06,4.06,0,0,1,3-2.9,2.92,2.92,0,0,1,3,.39,1.5,1.5,0,0,0,2.6-1.14,3.67,3.67,0,0,1,2.54-3.66,3.67,3.67,0,0,1,4.07,1.84,1.5,1.5,0,0,0,2.36.44c1.79-1.64,3.38-2.44,4.58-2.34A3.89,3.89,0,0,1,83,5.42a3.41,3.41,0,0,0,.87.9A1.51,1.51,0,0,0,86,5.71a2.88,2.88,0,0,1,5.44.88c0,.19,0,.39,0,.58A4.87,4.87,0,0,0,92,9.47c1.2,2,3.48,1.8,5.15,1.64A9.22,9.22,0,0,1,98.87,11a2.54,2.54,0,0,1,1.77,1,2.64,2.64,0,0,1,.57,2,1.5,1.5,0,0,0,.43,1.32,1.47,1.47,0,0,0,1.34.4c3.9-.77,6.36-.38,7.31,1.15.69,1.12.49,2.62.25,4.37a17,17,0,0,0-.23,3.58,1.51,1.51,0,0,0,1.19,1.36,6.87,6.87,0,0,1,3.68,11.38,2.18,2.18,0,0,0-.52.1,1.5,1.5,0,0,0,.24,2.91l.08.14C117.16,44.46,117,48.17,114.58,52Z" /> 

        </g> 

    </g> 

</svg> 