<svg xmlns="http://www.w3.org/2000/svg" viewBox="0 0 160 160"> 

 

    <g > 

        <g class="illustration-shape" fill="#C8D9EE"> 

            <path class="cls-1" d="M46.78,45.73a1.45,1.45,0,0,0,.22.19A2.7,2.7,0,0,0,46.78,45.73Z" /> 

            <path class="cls-1" d="M59,72.48c-.55-1.89-1.26-2,0,0Z" /> 

            <path class="cls-1" d="M27.8,107.3c4-2.2,12.6-6.8,18.4-9.8S56,90.3,58.59,81.31a16.54,16.54,0,0,0,.48-8.52c-1.45-1.91-7.67-10.88-7.67-10.88l-3.6-.4L44,59.91l-4-6.79s0-4.4,2.6-6.8c2.07-1.92,3.64-1,4.18-.59a16.2,16.2,0,0,1-2.78-5c-1.8-4.4.8-15.19.8-15.19l-.2,0a69.59,69.59,0,0,0-27.23,88.56l.84,1.24S23.81,109.5,27.8,107.3Z" /> 

            <path class="cls-1" d="M59,72.51v0l.09.31C59.45,73.3,59.5,73.31,59,72.51Z" /> 

            <path class="cls-1" d="M109.26,21.63l4.12,11.69-.4,8.2.2,5.2,4.6-1.4,2.79,4-2,6.2-5.39,5.59h-4s-1.6,1-3.4,4.8a14.66,14.66,0,0,1-5.2,5.8l.6,11.2a56,56,0,0,0,5.2,9.39c2.6,3.4,17.39,10.8,24.19,13.6,4.26,1.75,9.07,7,12.06,10.74a69.57,69.57,0,0,0-33.37-95Z" /> 

        </g> 

    </g> 

    <g > 

        <g class="illustration-secondary" fill="#B3CBE8"> 

            <path class="cls-2" d="M120.74,142.65a1.5,1.5,0,0,0-1.5,1.5V158a1.5,1.5,0,0,0,3,0V144.15A1.5,1.5,0,0,0,120.74,142.65Z" /> 

            <path class="cls-2" d="M51,61.6l6.32,9.86s3,2,6.7,4.15a54.65,54.65,0,0,1-5.4-2.84V80c19.72,9.12,26.61,6.14,32.19,3.91s18.79-19.16,5-7.81c-6.12,5-14.16,4.93-21.2,3.26C66.8,70.57,62.8,62.7,61,56c3.37,1.74,8.58.37,8.58.37L63.46,42.26c3.37-2.53-1-.92-3.58,3.18.49-8.67,4.51-13.6,4.51-13.6l-4.28-1.49c-1.86-.56-10-14.7-10-14.7L46.72,20.3,43.55,27s-.55,7.63.56,11.35a59.06,59.06,0,0,1,1.68,8.56L43,45.79l-2.8,1.67a41.18,41.18,0,0,0,.38,7.26C41.13,58.44,51,61.6,51,61.6Z" /> 

            <path class="cls-2" d="M96.06,56.39,89.92,42.26c4.77-3.59-6,1.14-5.18,9.48C85.46,59.19,96.06,56.39,96.06,56.39Z" /> 

            <path class="cls-2" d="M104.54,126.85c-1.3.18-24-15.76-24-15.76l-.18.29a.72.72,0,0,0-1-.07l-2,1.64-8.74,7.26S58.25,126,55.46,125.79c0,0-7.51-21.26-9.79-26.29A16.29,16.29,0,0,0,48.76,96s-1.52.89-3.87,2.19c-.58-.53-1.08,0-1.47.8-4,2.18-9.6,5.08-14.38,7.06-8.56,3.53-9.11,8-16,16.37s-2.79,32.75-3.72,34.42,7.26,3,8.93.93c0-19.35-2.42-36.28,14.33-48,4.58-3.21,7.88-5.77,10.26-7.78,1.44,4.22,8.76,28.49,11.88,29.36,1.66.46,7-2.92,12.49-6.88.8,2.2,2.23,5.77,3.13,5.77,1.31,0-6.14,5-5.76,8.55s5.21,19.72,5.21,19.72,1.48,2.42,1.86.38-3.54-19.54-3.54-19.54l6.33-8.74-2.79-5.58-1-3.09c3.68-2.79,7.06-5.53,8.94-7.16,4.37,3.78,24.69,21,27.06,16.2,8.93-19.35,9.12-30.88,9.12-30.88S105.84,126.66,104.54,126.85Z" /> 

        </g> 

    </g> 

    <g > 

        <g class="illustration-primary"  fill="#2157AA"> 

            <path class="cls-3" d="M137,107.68a42,42,0,0,0-11-6.1,83.37,83.37,0,0,1-17.21-9.93h0a1.55,1.55,0,0,0-.71-.59,13.72,13.72,0,0,1-2-2c-3-3.83-3.42-10.48-3.42-10.55a1.5,1.5,0,1,0-3,.19c0,.31.52,7.62,4,12.19A13.12,13.12,0,0,0,105,92.27c-9.35,5.94-23.28,15.06-24.31,17.29a.38.38,0,0,1,0,.1,2.12,2.12,0,0,0-.1-.36c-1.07-2.31-15.77-11.82-25-17.63.23-.25.45-.5.63-.74,3.53-4.57,4-11.88,4-12.19a1.5,1.5,0,0,0-3-.19c0,.07-.47,6.72-3.42,10.55S39.11,99.56,34,101.58a42.27,42.27,0,0,0-11,6.1c-10,7.91-15.59,18.89-15.59,30.9v18.6a1.5,1.5,0,0,0,3,0v-18.6c0-11.07,5.13-21.21,14.45-28.54a39.51,39.51,0,0,1,10.2-5.67,80.23,80.23,0,0,0,10-5c9,27.91,10.76,28.09,11.84,28.19h.09c2.94,0,20.41-11.81,23.15-15.68a3.74,3.74,0,0,0,.51-1,3.5,3.5,0,0,0,.58,1.23c2.71,3.83,20.36,15.47,23.4,15.47h.1c1.07-.1,2.85-.28,11.6-27.45a77.28,77.28,0,0,0,8.67,4.27,39.51,39.51,0,0,1,10.2,5.67c9.32,7.33,14.45,17.47,14.45,28.54v18.6a1.5,1.5,0,0,0,3,0v-18.6C152.6,126.57,147.06,115.59,137,107.68ZM67.9,118a85.39,85.39,0,0,1-10.46,6.36c-1.68-2.75-6.13-15.19-9.79-26.62a57.34,57.34,0,0,0,5.64-4c10.65,6.69,22.17,14.38,24.29,16.46C76.77,111.31,73.84,114,67.9,118Zm36.19,6.36a84.39,84.39,0,0,1-10.57-6.23c-6-4-8.94-6.56-9.78-7.64C86,108.33,97,100.93,107.39,94.32a66.3,66.3,0,0,0,6.24,4.23C110,109.76,105.73,121.71,104.09,124.38Z" /> 

            <path class="cls-3" d="M36.6,141.86a1.5,1.5,0,0,0-1.5,1.5v13.82a1.5,1.5,0,0,0,3,0V143.36A1.5,1.5,0,0,0,36.6,141.86Z" /> 

            <path class="cls-3" d="M123.78,141.86a1.5,1.5,0,0,0-1.5,1.5v13.82a1.5,1.5,0,0,0,3,0V143.36A1.5,1.5,0,0,0,123.78,141.86Z" /> 

            <path class="cls-3" d="M92.9,39.61a10.93,10.93,0,0,0-8.51,3.85,8.07,8.07,0,0,0-8.17,1A10.67,10.67,0,0,0,67,39.61c-5.72,0-10.39,4-10.39,9s4.67,9,10.39,9,10.4-4,10.4-9a9.28,9.28,0,0,0-.08-1.06,1.5,1.5,0,0,0,.27-.24A5,5,0,0,1,82.71,46a1.32,1.32,0,0,0,.13.38,7.73,7.73,0,0,0-.33,2.21c0,5,4.66,9,10.39,9s10.39-4,10.39-9S98.63,39.61,92.9,39.61ZM67,54.62c-4.07,0-7.39-2.7-7.39-6s3.32-6,7.39-6,7.4,2.7,7.4,6S71.07,54.62,67,54.62Zm25.91,0c-4.08,0-7.39-2.7-7.39-6a5.07,5.07,0,0,1,.38-1.9,1.92,1.92,0,0,0,.22-.18,1.48,1.48,0,0,0,.37-.89,7.81,7.81,0,0,1,6.42-3c4.08,0,7.39,2.7,7.39,6S97,54.62,92.9,54.62Z" /> 

            <path class="cls-3" d="M43.41,60.23A9,9,0,0,0,49,62.16,8.14,8.14,0,0,0,50.73,62C56.52,73.73,67.44,81.68,80,81.68s23.43-8,29.22-19.7a8,8,0,0,0,1.69.18,9,9,0,0,0,5.61-1.93,13.67,13.67,0,0,0,3.44-4.66c1.1-2.17,2.18-4.75,1.89-7.48a5.36,5.36,0,0,0-1.68-3.54,5.24,5.24,0,0,0-2.51-1.14,6.8,6.8,0,0,0-2.84.08,47.86,47.86,0,0,0-5.49-27.77A12.29,12.29,0,0,0,107,12.56a14,14,0,0,0-2.44-1.77l-5-3.08a62,62,0,0,0-9.17-4.95,32.48,32.48,0,0,0-28,2.06L62,5A8.22,8.22,0,0,1,59.79,6.1a8.1,8.1,0,0,1-2.45,0c-2.22-.24-4.74-.52-6.55-1.81a1.51,1.51,0,0,0-2.09.36,1.49,1.49,0,0,0-.07,1.62A17.34,17.34,0,0,0,49.38,15a29.77,29.77,0,0,0-7.14,13.57,22.08,22.08,0,0,0,1.95,14.8,6.5,6.5,0,0,0-1.92.07,5.17,5.17,0,0,0-2.5,1.14,5.36,5.36,0,0,0-1.69,3.54c-.29,2.73.79,5.31,1.89,7.48A13.67,13.67,0,0,0,43.41,60.23ZM80,78.68c-16.57,0-30.1-15.51-30.59-34.8A31.83,31.83,0,0,0,60.63,31.69a1.51,1.51,0,0,0,.5-.77l.07-.24c.88.34,1.77.6,2.59.83,4.82,1.33,9.79,2.71,15,2.93.44,0,.89,0,1.36,0a23.69,23.69,0,0,0,12.67-3.33H93a12.81,12.81,0,0,1,5.48.9,25.81,25.81,0,0,1,4.35,2.42c3,1.94,5.85,3.91,7.27,6.72a1.56,1.56,0,0,0,.4.48c0,.38,0,.76,0,1.14C110.56,62.59,96.82,78.68,80,78.68Zm37.11-32.32a2.2,2.2,0,0,1,1.09.46,2.6,2.6,0,0,1,.67,1.59c.21,2-.69,4-1.59,5.8a10.73,10.73,0,0,1-2.64,3.68,6,6,0,0,1-4.15,1.25,43.24,43.24,0,0,0,2.84-11.43A4.08,4.08,0,0,1,117.06,46.36ZM60.42,9a10.39,10.39,0,0,0,3.14-1.41l.36-.21A29.43,29.43,0,0,1,89.28,5.54,60.24,60.24,0,0,1,98,10.26l5,3.09A11.2,11.2,0,0,1,105,14.72a9.67,9.67,0,0,1,1.69,2.43A44.94,44.94,0,0,1,112,38.54c-1.83-2.76-4.62-4.7-7.56-6.59a28.06,28.06,0,0,0-4.85-2.68,16.08,16.08,0,0,0-4.7-1.08,2,2,0,0,0-.21-.6,1.64,1.64,0,0,0-2-.75,1.87,1.87,0,0,0-1.24,1.6c-4.13,2.74-9.07,3.16-12.56,3-4.83-.21-9.64-1.54-14.3-2.83a13.87,13.87,0,0,1-3.77-1.45,12.79,12.79,0,0,1-3-3.21c-3.31-4.49-6.9-10.26-6.39-16A23.81,23.81,0,0,0,57,9.05,10.56,10.56,0,0,0,60.42,9ZM45.18,29.15a26.18,26.18,0,0,1,5.47-11,47.71,47.71,0,0,0,4.75,7.64,17.32,17.32,0,0,0,3.12,3.43h0A28.83,28.83,0,0,1,47.81,41.31a1.51,1.51,0,0,0-1.06.47A19.07,19.07,0,0,1,45.18,29.15ZM41.07,48.41a2.49,2.49,0,0,1,.67-1.59,2.16,2.16,0,0,1,1.08-.46,4.09,4.09,0,0,1,3.8,1.36,43.07,43.07,0,0,0,2.84,11.42,6,6,0,0,1-4.17-1.25,10.73,10.73,0,0,1-2.64-3.68C41.75,52.43,40.86,50.36,41.07,48.41Z" /> 

            <path class="cls-3" d="M88,129c2.54-1.9,4.17-6,4.37-6.49a1.5,1.5,0,1,0-2.8-1.08c-.6,1.55-2.34,4.94-3.94,5.51-2.42.87-6.07.48-9.64-.07-2.1-.32-3.15-4.31-3.35-5.68a1.5,1.5,0,0,0-3,.43c.1.66,1,5.81,4.2,7.63-2.55,2.51-6.75,6.84-7.23,8.71-.52,2,2.59,13.71,4.5,20.49a1.5,1.5,0,0,0,1.44,1.09,1.45,1.45,0,0,0,.41-.06,1.5,1.5,0,0,0,1-1.85c-2.31-8.23-4.62-17.58-4.49-18.91.33-1,4.07-5.06,7.35-8.21a1.63,1.63,0,0,0,.3-.44,36.25,36.25,0,0,0,4.79.37,16.36,16.36,0,0,0,3-.26,1.5,1.5,0,0,0,.23.33c3.28,3.15,7,7.21,7.33,8.13.15,1.41-2.16,10.76-4.47,19a1.5,1.5,0,0,0,1,1.85,1.45,1.45,0,0,0,.41.06A1.5,1.5,0,0,0,91,158.41c1.9-6.78,5-18.46,4.5-20.49S90.53,131.41,88,129Z" /> 

        </g> 

    </g> 

</svg> 