<svg xmlns="http://www.w3.org/2000/svg" viewBox="0 0 160 160"> 

 

    <g > 

        <g class="illustration-shape" fill="#C8D9EE"> 

            <path class="cls-1" d="M40.09,111.67s13-4.26,18.28-8.12,3.05-11,3.05-11L61.62,82,55.73,74.7l-3,.4-3.25-2.43-3.65-3.86-1.22-5.49,2.64-3.66a47,47,0,0,1,2.44-18.89c3.45-9.55,10.16-12.6,10.16-12.6l-3-4.54A66.6,66.6,0,0,0,25.3,124.18c1.36-2.15,3.24-5.09,3.61-5.6C29.52,117.77,40.09,111.67,40.09,111.67Z" /> 

            <path class="cls-1" d="M99.7,22.46l-1.3,6.12a24,24,0,0,1,9.14,10.56,41.19,41.19,0,0,1,3,14.43l-.41,6.91s3.25,1.22,3.25,4.06-3.86,6.5-3.86,6.5l-7.31,4.06-4.47,8.33a102,102,0,0,0,2.23,12c1.63,6.5-.2,8.94,3.86,10.36s15.24,4.68,19.3,7.32,11,9.75,11,9.75l.51,1.21a66.62,66.62,0,0,0-35-101.6Z" /> 

        </g> 

    </g> 

    <g > 

        <g class="illustration-secondary" fill="#B3CBE8"> 

            <path class="cls-2" d="M84.51,70.83C87.62,75,93,72.08,93,72.08L86,61.72,81.4,63.58S81.4,66.69,84.51,70.83Z" /> 

            <path class="cls-2" d="M46.86,109.31l2.43-1A12.54,12.54,0,0,0,46.86,109.31Z" /> 

            <path class="cls-2" d="M21.11,131.54c-1.66,2.9-.83,24.25-.83,24.25s3.73,3.93,9.94,1.45c-2.3-34.64,11-45.08,16.64-47.93-4.19,1.7-12.58,5.16-15.19,6.69C28.15,118.08,22.76,128.64,21.11,131.54Z" /> 

            <path class="cls-2" d="M62,83c-.56-.62-.88-1-.88-1v9.74s2.69,3.94,13.67,7.46c7.62,2.44,21.14-5.39,21.76-12.85-4.35,4.56-14.3,8.08-20.51,7-3.13-.52-6.88-3.4-9.84-6.13l9,4.68A64.89,64.89,0,0,1,64.73,71.63a33.79,33.79,0,0,0,6.93-.38l-7-10-1.73.51C61.07,39.58,75.81,25,75.81,25c5-.36,21.78,2.55,21.78,2.55a3.07,3.07,0,0,0,2.06-3.15s-7.41-2.2-9.87-2.75a80.57,80.57,0,0,0-10.7-1.37,16.91,16.91,0,0,0-4.3.23C72.54,5.58,85.49,3.49,84.93,3.49a49,49,0,0,1-5.39-2.07H78.09a45.84,45.84,0,0,0-13.89,6C57.78,11.78,56.75,19.65,57,22.35s3.11,5.59,3.11,5.59l-4.35,3.32-4.77,5L46.8,44.72v8.91l-.21,7.67L43.9,64l.41,3.53s5,5.18,6.22,6.63,5.59.83,5.59.83Z" /> 

            <path class="cls-2" d="M115.65,144.71a1.5,1.5,0,0,0-1.5,1.5V158a1.5,1.5,0,0,0,3,0V146.21A1.5,1.5,0,0,0,115.65,144.71Z" /> 

            <path class="cls-2" d="M103.47,107.36c-20.37,15.58-46.12.62-46.38.47a1.36,1.36,0,0,0-1.92.57,1.55,1.55,0,0,0,.54,2c.18.1,12,7,26.26,7a37.3,37.3,0,0,0,23.16-7.64,1.54,1.54,0,0,0,.32-2.09A1.37,1.37,0,0,0,103.47,107.36Z" /> 

        </g> 

    </g> 

    <g > 

        <g class="illustration-primary" fill="#2157AA"> 

            <path class="cls-3" d="M62.2,99.67l1-9.3a1.5,1.5,0,1,0-3-.33l-1,9.38a1,1,0,0,0,0,.17c0,4.25-8.58,6.93-13.7,8.53-1.33.41-2.48.77-3.39,1.12a37.41,37.41,0,0,0-9.69,5.23C23.51,121.26,18.6,130.68,18.6,141v15.87a1.5,1.5,0,0,0,3,0V141c0-9.37,4.49-17.95,12.64-24.16A34.91,34.91,0,0,1,43.17,112c.83-.31,1.94-.66,3.23-1.06C52.66,109,62.11,106.08,62.2,99.67Z" /> 

            <path class="cls-3" d="M42.92,143.58a1.5,1.5,0,0,0-1.5,1.5v11.8a1.5,1.5,0,0,0,3,0v-11.8A1.5,1.5,0,0,0,42.92,143.58Z" /> 

            <path class="cls-3" d="M117.78,144.71a1.5,1.5,0,0,0-1.5,1.5V158a1.5,1.5,0,0,0,3,0V146.21A1.5,1.5,0,0,0,117.78,144.71Z" /> 

            <path class="cls-3" d="M128.53,114.47a37.41,37.41,0,0,0-9.69-5.23c-.91-.35-2.06-.71-3.39-1.12-5.13-1.6-13.7-4.28-13.7-8.53a1,1,0,0,0,0-.17l-1-9.38a1.5,1.5,0,1,0-3,.33l1,9.3c.09,6.41,9.54,9.36,15.8,11.31,1.29.4,2.4.75,3.23,1.06a34.91,34.91,0,0,1,8.93,4.81c8.15,6.21,12.64,14.79,12.64,24.16v15.87a1.5,1.5,0,0,0,3,0V141C142.35,130.68,137.44,121.26,128.53,114.47Z" /> 

            <path class="cls-3" d="M105,109.35c-21.59,15.57-48.87.62-49.14.46a1.5,1.5,0,1,0-1.47,2.62,63.79,63.79,0,0,0,27.83,7,41.2,41.2,0,0,0,24.54-7.63,1.5,1.5,0,0,0-1.76-2.43Z" /> 

            <path class="cls-3" d="M135.91,149c-.07,0-6.54,3.94-12.9,1.95a1.5,1.5,0,1,0-.9,2.86,15.91,15.91,0,0,0,4.77.71,22.16,22.16,0,0,0,10.6-3,1.5,1.5,0,0,0-1.57-2.56Z" /> 

            <path class="cls-3" d="M37.75,150.92c-6.35,2-12.83-1.91-12.89-1.95a1.5,1.5,0,1,0-1.58,2.56,22.21,22.21,0,0,0,10.6,3,15.82,15.82,0,0,0,4.77-.71,1.5,1.5,0,0,0-.9-2.86Z" /> 

            <path class="cls-3" d="M45.59,71a24.75,24.75,0,0,0,4.5,3.38l2,1.26a3.65,3.65,0,0,0,1.95.66,2.22,2.22,0,0,0,1.42-.5s0,0,0,0c.6,1,1.23,2,1.86,2.95,2.78,4.18,6.62,9.43,11.79,13a21.66,21.66,0,0,0,12.06,4,16.52,16.52,0,0,0,5.06-.78,21.61,21.61,0,0,0,7.85-4.83,36.8,36.8,0,0,0,9.35-13.77l.16,0a3.65,3.65,0,0,0,2-.66l2-1.26A24.86,24.86,0,0,0,112,71a9.29,9.29,0,0,0,2.81-5.46,6.26,6.26,0,0,0-2.8-5.94h0a1.5,1.5,0,0,0,.21-.52A32.31,32.31,0,0,0,100.15,28l.39-.81a9.5,9.5,0,0,0,1.28-4.38C101.82,10.51,91.44.5,78.67.5s-23.15,10-23.15,22.3a4.53,4.53,0,0,0,1.54,3.48,3.23,3.23,0,0,1,.88,1.28.05.05,0,0,1,0,0A32.2,32.2,0,0,0,45.5,59.68a6.19,6.19,0,0,0-2.72,5.88A9.29,9.29,0,0,0,45.59,71Zm8.32,2.25-.24-.14-2-1.26a22.74,22.74,0,0,1-4-3,6.28,6.28,0,0,1-1.95-3.65,3.24,3.24,0,0,1,1.36-3.07,3.67,3.67,0,0,1,4.1.68c.29.26.41.47.34,1.37a1.48,1.48,0,0,0,.16.79,1.51,1.51,0,0,0,0,.52,23.09,23.09,0,0,0,2.39,7.68ZM92.06,87.85A18.89,18.89,0,0,1,85.31,92c-4.4,1.42-9.82.36-14.51-2.83s-8.36-8.18-11-12.13c-2.39-3.61-4.68-7.55-5.15-11.86a1.39,1.39,0,0,0-.15-.5,2,2,0,0,0,0-.24,7.34,7.34,0,0,0,0-1.15l.07-.14c5.66-5.27,9.3-10.66,11.17-16.6a12.42,12.42,0,0,0,1.69,1.06,31.19,31.19,0,0,0,8.55,3.06,1.5,1.5,0,0,0,2.56-1.5,8.49,8.49,0,0,1-.52-2c.19.11.38.22.58.32a14.86,14.86,0,0,0,4.65,1.26,21.83,21.83,0,0,0,9.93-.63c.18.26.4.59.63,1,3.79,6.89,6.8,11.42,9.2,13.82a5.86,5.86,0,0,0,0,1.38A34.74,34.74,0,0,1,92.06,87.85Zm19.77-22.59a6.28,6.28,0,0,1-2,3.65,23.25,23.25,0,0,1-4,3l-1.24.79A37,37,0,0,0,106,64.44v-.2c-.07-.9,0-1.11.33-1.37a3.69,3.69,0,0,1,4.11-.68A3.24,3.24,0,0,1,111.83,65.26ZM78.67,3.5c11.11,0,20.15,8.66,20.15,19.3a6.72,6.72,0,0,1-1,3l-.27.56c-7.59-3.12-29.34-3.32-37-.34a6.62,6.62,0,0,0-1.34-1.86c-.52-.54-.7-.72-.7-1.4C58.52,12.16,67.56,3.5,78.67,3.5ZM60.6,29.37c4.85-3.43,32.06-3.19,36.85.32a29.31,29.31,0,0,1,11.81,28.89,2.11,2.11,0,0,0,0,.25,7,7,0,0,0-4.51,1.52c-2.11-2.3-4.86-6.54-8.22-12.64-1.84-3.35-3-2.88-3.46-2.68a18.09,18.09,0,0,1-9.33.78,12.14,12.14,0,0,1-3.72-1,4.19,4.19,0,0,1-2.16-2.18,1.5,1.5,0,0,0-2.92.53V44a30,30,0,0,0,.17,3.39A28,28,0,0,1,68.92,45a5.33,5.33,0,0,1-2.23-1.83c.13-.69.26-1.38.35-2.08a1.5,1.5,0,0,0-3-.4c-1,7.29-4.48,13.62-11,19.82a7,7,0,0,0-4.7-1.69A29.27,29.27,0,0,1,60.6,29.37Z" /> 

            <path class="cls-3" d="M99.32,61.44c-6.25-4.33-16-1.24-17.78-.61l-5.24-.1c-6.78-4.27-17.22-.42-17.66-.25a1.5,1.5,0,0,0-1,1.27c-.39,4.41.57,7.77,2.87,10a10.45,10.45,0,0,0,7.21,2.64,8.34,8.34,0,0,0,1.07-.06,10,10,0,0,0,6.58-3.36,10.31,10.31,0,0,0,2.08-7.18l2.72.06c0,3.63,1,6.43,3,8.36a10.51,10.51,0,0,0,7.22,2.63c.54,0,.93,0,1.07,0A10,10,0,0,0,98,71.38c1.81-2.2,2.46-5.2,1.94-8.92A1.52,1.52,0,0,0,99.32,61.44ZM73.1,69a7,7,0,0,1-4.5,2.3h-.11s-3.62.42-5.89-1.78c-1.44-1.39-2.11-3.59-2-6.54,2.45-.76,9.33-2.49,13.84.11A7.84,7.84,0,0,1,73.1,69Zm22.61.45a7.05,7.05,0,0,1-4.49,2.31H91.1s-3.61.4-5.87-1.77c-1.45-1.39-2.12-3.59-2-6.56,2.46-.75,9.34-2.49,13.85.12A7.83,7.83,0,0,1,95.71,69.45Z" /> 

            <path class="cls-3" d="M61.82,24.16c.17-.05,16.61-5.22,32.94.16a1.5,1.5,0,1,0,.93-2.85c-17.27-5.69-34.08-.39-34.79-.16a1.5,1.5,0,0,0,.92,2.85Z" /> 

        </g> 

    </g> 

</svg> 