<svg xmlns="http://www.w3.org/2000/svg" viewBox="0 0 160 160"> 

 

    <g > 

        <g class="illustration-shape" fill="#C8D9EE"> 

            <path class="cls-1" d="M61.27,76.49l.11.06S61.34,76.47,61.27,76.49Z" /> 

            <path class="cls-1" d="M52.33,100.91c6.89-2.37,7.54-8,8-16.81.33-6.66.77-7.57,1-7.61-.35-.23-1.64-1.21-4-4.47-2.8-3.88-6.46-9.27-6.46-9.27l-5.18-1.29S40.32,55,38.31,50.25a7.83,7.83,0,0,1,1.3-8.19l5-9.05-6,.86L38,31a68.06,68.06,0,0,0-16.55,88.43c1.77-2.12,4.08-4.94,5.91-7.34C30.77,107.59,45.43,103.28,52.33,100.91Z" /> 

            <path class="cls-1" d="M114,25.67c.37,1.54.88,3.62,1.49,6,1.29,5.18.86,6.47.86,6.47l3,.21L116.57,41s3.23,1.29,3.88,1.51.64,4.1.64,4.1L118.51,55l-6.26,5s-2.58,1.51-4.74,5.82S98.67,77,98.67,77l.22,10.13,1.72,8.41s6.25,5.17,9.06,6,10.36,5.14,17.89,7.54c4.4,1.41,8.6,6,11.32,9.64A68.08,68.08,0,0,0,114,25.67Z" /> 

        </g> 

    </g> 

    <g > 

        <g class="illustration-secondary" fill="#B3CBE8"> 

            <path class="cls-2" d="M112.18,159.38a1.5,1.5,0,0,1-1.5-1.5v-13.4a1.5,1.5,0,1,1,3,0v13.4A1.5,1.5,0,0,1,112.18,159.38Z" /> 

            <path class="cls-2" d="M83,27.07a20.88,20.88,0,0,0-12.63-2.21,4,4,0,0,1,2.82-1c-.4-2.28-3.21-3.23-5.51-3.1s-4.69.85-6.87.09c.2-1.36,1.73-2,3-2.41l10.21-3.16C62.09,10.4,46.53,8,38.14,19.8a12,12,0,0,1,7.19-1.51c1,.1,6.36,2.84,6.43,2.8a26.41,26.41,0,0,0-13.5,13.08,10.26,10.26,0,0,1,6.42-1.68,14.69,14.69,0,0,0-3.46,7.08,10.42,10.42,0,0,1-.49,2.16,16.37,16.37,0,0,1-1.33,2.15c-2.07,3.34-1.34,7.87.92,11.09a16.45,16.45,0,0,0,3.41,3.51l.08.75L49.63,62c1.71,5.82,21.67,24.31,26.55,21.28C57.76,70.67,60.83,38,60.83,38l-2,1q5.77-3.33,11.23-7.16l-1.53,6.51a94.86,94.86,0,0,0,14.81-9.09,1.48,1.48,0,0,0,.69-.87C84.11,27.8,83.52,27.35,83,27.07Z" /> 

            <path class="cls-2" d="M51.34,100.53S35,109.82,30.41,121.18C24.55,135.7,26.78,158,26.78,158s-10,2.23-11.72-.28-.84-28.46,2.79-34,11.44-15.07,18.42-17.31S51.34,100.53,51.34,100.53Z" /> 

            <path class="cls-2" d="M57,103.56a1.82,1.82,0,0,1,.6-2.41c1.4-.81,22.08,16.32,41.95-.81,3.21,2.15-3.41,5.82-3.41,5.82s-10.44,6.63-21.08,4.42A58.2,58.2,0,0,1,57,103.56Z" /> 

        </g> 

    </g> 

    <g > 

        <g class="illustration-primary" fill="#2157AA"> 

            <path class="cls-3" d="M36.45,21.32a24.84,24.84,0,0,1,12,.38c-8,3.12-12.21,8.74-12.23,12.23a1.5,1.5,0,0,0,2.2,1.34,16,16,0,0,1,3.79-1.42,23.35,23.35,0,0,0-4,8.83,5,5,0,0,0-1.07,1.18,6.76,6.76,0,0,0-.85,3.73c.15,7.61,5.94,14.85,13.46,16.84a3.54,3.54,0,0,0,.9.13h.06A36.35,36.35,0,0,0,58,75.27,31.06,31.06,0,0,0,80.28,85l1.26,0a31,31,0,0,0,22.7-11.62,36.4,36.4,0,0,0,6.09-10.63l.14,0c7-1.87,11.52-8.29,11.69-16.77a6.52,6.52,0,0,0-.86-3.73,3.93,3.93,0,0,0-2.11-1.48l2-2.42a1.48,1.48,0,0,0-.41-2.24,4.62,4.62,0,0,0-2.73-.61c.14-7.33-4.84-22.67-14.66-29.17C98.08,2.78,88.44.89,74.69.66l-1,0a1.66,1.66,0,0,0-1.72.79c-.63,1-.13,3.37.68,5.41A45.05,45.05,0,0,0,35,18.81a1.5,1.5,0,0,0,1.44,2.51Zm2.84,26.21a3.85,3.85,0,0,1,.39-2.07c.8-1.26,2.87-1.2,3.48-1.15a5.19,5.19,0,0,1,3.52,1.4,1.46,1.46,0,0,0,.53.71c0,.69,0,1.34.07,2.12,0,.47.07,1,.09,1.62a40,40,0,0,0,2,11A15.39,15.39,0,0,1,39.29,47.53Zm62.64,23.9a27.51,27.51,0,0,1-41.84,1.74A35,35,0,0,1,50.37,50c0-.64-.06-1.19-.09-1.68a15.15,15.15,0,0,1,.12-4,53.48,53.48,0,0,0,18.27-10c-.39.83-.8,1.66-1.22,2.48A1.5,1.5,0,0,0,69.19,39a29.46,29.46,0,0,0,7-3.06c5,1.11,13.52,5.51,13.6,5.55a1.51,1.51,0,0,0,1.4,0c3.39-1.82,9.8-4.29,12.63-3.13a8.94,8.94,0,0,1,5,5.4v0a1.5,1.5,0,0,0,.63,1c.11.92.2,1.85.23,2.77A35,35,0,0,1,101.93,71.43Zm9.51-12.26a39.82,39.82,0,0,0,1.25-11.74c0-1.24-.17-2.5-.34-3.74a9.25,9.25,0,0,1,2.75-.5,6.48,6.48,0,0,1,3.68.62,3.67,3.67,0,0,1,.38,2.06C119.06,50.91,116.94,56.79,111.44,59.17ZM75,10.35a1.5,1.5,0,0,0,1.59-.65A1.47,1.47,0,0,0,76.55,8a13.23,13.23,0,0,1-1.78-4.33c13.1.23,22.16,2,26.93,5.11,10.21,6.76,14.63,25.13,13.06,28.38a1.5,1.5,0,0,0,1.75,2.1l-.67.83a.41.41,0,0,0-.07.11,15.59,15.59,0,0,0-1.91.09,10.37,10.37,0,0,0-2.93.77,11.76,11.76,0,0,0-6-5.47c-4.44-1.82-12,1.65-14.49,2.89a92.79,92.79,0,0,0-11.08-4.74,27.88,27.88,0,0,0,3.83-3.61,1.5,1.5,0,0,0-2.27-2,26.47,26.47,0,0,1-9.2,6.74c.85-1.86,1.65-3.76,2.36-5.67a1.5,1.5,0,0,0-2.47-1.58C64.36,35,56.08,40,47.7,42.05a1.42,1.42,0,0,0-.57.3,10.18,10.18,0,0,0-3.35-1,9.43,9.43,0,0,0-2.05,0,16.4,16.4,0,0,1,5.33-8.27,1.5,1.5,0,0,0-1-2.63,19.15,19.15,0,0,0-5.78.82c1.86-2.72,6.06-6.34,13.13-8a.19.19,0,0,0,.08,0l.14,0,.14-.07.12-.07L54,23l.11-.1.09-.11a.52.52,0,0,0,.1-.11l.07-.13.05-.07s0,0,0-.06l.05-.14c0-.05,0-.1,0-.15s0-.09,0-.13,0-.11,0-.16a.62.62,0,0,0,0-.13,1.11,1.11,0,0,0,0-.17.11.11,0,0,0,0-.05.25.25,0,0,0,0-.07c0-.05,0-.11,0-.16l-.06-.12L54.35,21a.44.44,0,0,0-.08-.11l-.1-.12-.1-.09L54,20.57l-.13-.08-.07,0a30.41,30.41,0,0,0-12.94-2.7A42.21,42.21,0,0,1,75,10.35Z" /> 

            <path class="cls-3" d="M30.09,112.19A38.26,38.26,0,0,1,40,106.7c.91-.36,2.14-.75,3.56-1.21,6.86-2.21,17.23-5.54,17.29-12.69l1-11.84a1.5,1.5,0,0,0-3-.26l-1,11.91a.53.53,0,0,0,0,.13c0,5-9.52,8.06-15.21,9.9-1.47.47-2.73.88-3.73,1.27a41.19,41.19,0,0,0-10.65,5.93c-9.76,7.68-15.14,18.34-15.14,30v18a1.5,1.5,0,0,0,3,0v-18C16.09,129.12,21.06,119.3,30.09,112.19Z" /> 

            <path class="cls-3" d="M44.19,142.83a1.5,1.5,0,0,0-1.5,1.5v13.42a1.5,1.5,0,0,0,3,0V144.33A1.51,1.51,0,0,0,44.19,142.83Z" /> 

            <path class="cls-3" d="M115.56,143a1.5,1.5,0,0,0-1.5,1.5v13.41a1.5,1.5,0,0,0,3,0V144.48A1.5,1.5,0,0,0,115.56,143Z" /> 

            <path class="cls-3" d="M131.77,109.84a41.19,41.19,0,0,0-10.65-5.93c-1-.39-2.26-.8-3.73-1.27-5.69-1.84-15.21-4.9-15.21-9.9a.81.81,0,0,0,0-.16L101,81.9a1.5,1.5,0,0,0-3,.32l1.14,10.6c.08,7.13,10.43,10.46,17.29,12.67,1.42.46,2.65.85,3.56,1.21a38.26,38.26,0,0,1,9.88,5.49c9,7.11,14,16.93,14,27.65v18a1.5,1.5,0,0,0,3,0v-18C146.91,128.18,141.53,117.52,131.77,109.84Z" /> 

            <path class="cls-3" d="M100.22,101.69c-7.25,7.13-16.55,9.5-27.65,7a50.09,50.09,0,0,1-14.85-6,1.51,1.51,0,0,0-2.08.44,1.5,1.5,0,0,0,.43,2.07c.18.12,11.52,7.4,24.68,7.4a29.76,29.76,0,0,0,21.57-8.77,1.5,1.5,0,0,0-2.1-2.14Z" /> 

            <path class="cls-3" d="M38.36,150.87A21.73,21.73,0,0,1,20,150.36a1.53,1.53,0,0,0-2,.52,1.51,1.51,0,0,0,.46,2,1.18,1.18,0,0,0,.19.11,24.06,24.06,0,0,0,11,2.61,25.77,25.77,0,0,0,9.84-2,1.5,1.5,0,1,0-1.14-2.77Z" /> 

            <path class="cls-3" d="M140,150.87a21.74,21.74,0,0,1-18.34-.51,1.53,1.53,0,0,0-2,.52,1.51,1.51,0,0,0,.46,2l.19.11a24,24,0,0,0,11,2.6,25.7,25.7,0,0,0,9.84-2,1.5,1.5,0,1,0-1.14-2.77Z" /> 

        </g> 

    </g> 

</svg> 