<svg xmlns="http://www.w3.org/2000/svg" viewBox="0 0 160 160"> 

 

    <g > 

        <g class="illustration-secondary" fill="#B3CBE8"> 

            <path class="cls-1" d="M119,141l-1.55-4.44s-1.56,1.56-1.78,5.11.29,12.12.22,12.87,2.89,2,3.33-1.11S119,141,119,141Z" /> 

            <polygon class="cls-1" points="102.52 122.35 104.37 117.82 50.9 117.82 52.62 124.8 102.52 122.35" /> 

            <path class="cls-1" d="M104.51,137.66s-49-.14-51.63,0S51.75,141,51.75,141s51.08.7,52.76-.57S104.51,137.66,104.51,137.66Z" /> 

            <path class="cls-1" d="M54.19,95.25c2.43-3.14,2.05-9.44,2.68-13.36.14-.83.26-1.66.37-2.5,15.94,13.48,33.41,3.58,36.94,0a12,12,0,0,0,3.58-7.76c-9.88,7.2-18.8,11.93-30,5.17-10.39-8.95-12-27.55-11.81-29.73,3.06-1,5.77-2.59,7.41-5.3,2.82-4.64,1.23-10.72-1.44-15.45-1.3-2.3-2.88-4.65-2.84-7.29,0-3.23,2.61-6,5.55-7.3,1.91-.86,4-1.27,5.66-2.7a4.39,4.39,0,0,0,1.21-1.65,3.31,3.31,0,0,0,.19-2.2h0l0,0a3.82,3.82,0,0,0-3.55-2.46,13.09,13.09,0,0,0-8.82-.2C55,3.94,51.58,7.08,48.68,10.49a9.22,9.22,0,0,0-2.24,3.85c-.26,1.18-.08,2.45-.49,3.59-1.18,3.28-5.73,3.22-9,4.55a14.9,14.9,0,0,0-4.89,3.65C24.25,34.26,17.6,43.36,17.49,54.67c0,2.47,2.23,7.11,3.2,9.39,2,4.77,7.5,9,3.18,14.34A8.61,8.61,0,0,1,21,80.63C12.34,84.87,4.8,92.25,2,101.5s-.09,17.92,7.9,24a4,4,0,0,0,1.89.82,3.05,3.05,0,0,0,.91,0l.52,1.9L12.34,154s4.94,3.21,9.6-.12C19.46,120.55,27.87,109,33.2,105c2.81-1.08,5.55-1.71,10.25-4.66C45.23,99.2,52.9,96.92,54.19,95.25ZM67.66,76.81a40.4,40.4,0,0,1-7.62-4C62.26,73.94,65,75.41,67.66,76.81Z" /> 

            <path class="cls-1" d="M77.25,103.92c-14.38,0-20.57-5.91-20.64-6a1.38,1.38,0,0,0-2,0,1.55,1.55,0,0,0,0,2.12c.28.28,7,6.81,22.62,6.81s21.68-6.6,21.93-6.88a1.56,1.56,0,0,0-.08-2.11,1.39,1.39,0,0,0-2,.07C97,98.06,91.56,103.92,77.25,103.92Z" /> 

        </g> 

    </g> 

    <g > 

        <g class="illustration-primary"  fill="#2157AA"> 

            <path class="cls-2" d="M108.8,45.17A6.28,6.28,0,0,0,104,47.45a1.37,1.37,0,0,0-.32.75c-1.14,8.69-2.91,14.47-4.08,16.78A24.27,24.27,0,0,1,80.58,78.55a25.43,25.43,0,0,1-19-6,36.9,36.9,0,0,1-12.8-23.71A2.55,2.55,0,0,0,47.7,47.1a9,9,0,0,0-6.21-1.59,6.44,6.44,0,0,0-4.39,2.34C34.63,51,37,56.43,39.19,59.34a14.4,14.4,0,0,0,7.7,5,1.5,1.5,0,1,0,.92-2.85c-2.63-.86-4.59-1.82-6.23-4-1.92-2.55-3.23-6.43-2.13-7.83a3.42,3.42,0,0,1,2.42-1.22,6.16,6.16,0,0,1,4,.94A40.11,40.11,0,0,0,59.67,74.88,28.62,28.62,0,0,0,78,81.68c.94,0,1.89-.05,2.84-.14a27.23,27.23,0,0,0,21.44-15.2c1.32-2.6,3.13-8.49,4.32-17.28a3.33,3.33,0,0,1,2.23-.89,3.4,3.4,0,0,1,2.59,1.09,5.84,5.84,0,0,1,.42,6.46,10.94,10.94,0,0,1-5.84,4.7,1.5,1.5,0,0,0,1.08,2.8,13.91,13.91,0,0,0,7.41-6.08,8.82,8.82,0,0,0-.83-9.88A6.29,6.29,0,0,0,108.8,45.17Z" /> 

            <path class="cls-2" d="M51.53,49.25a3.67,3.67,0,0,0,1.22.17A17.12,17.12,0,0,0,56,49c4.43-1.19,8.72-4.34,13.12-9.64A24.66,24.66,0,0,0,73.31,32,22.11,22.11,0,0,0,77.08,36c8.21,7.24,15.83,10.76,23.27,10.76h.3a1.5,1.5,0,0,0,0-3h-.28c-6.68,0-13.65-3.27-21.29-10-2.17-1.91-4.39-4.22-4.5-6.88a1.1,1.1,0,0,0-.08-.4,20.23,20.23,0,0,0,0-2.69,1.5,1.5,0,0,0-3,.2,19.46,19.46,0,0,1-4.77,13.42c-4,4.81-7.77,7.64-11.58,8.66a11.87,11.87,0,0,1-2.68.31,1.5,1.5,0,0,0-1,2.84Z" /> 

            <path class="cls-2" d="M149.5,94.4c-1-.52-2.09-1-3.13-1.44-3.16-1.37-6.15-2.67-7.06-5.46-.68-2.09,0-4.41.8-6.87a32.5,32.5,0,0,0,1-3.7c1.37-7.28-2.68-15.46-9.86-19.89l-1.42-.84c-2.24-1.3-4.35-2.52-5-4.59a10.45,10.45,0,0,1-.09-4.34l0-.54c1.34-12.94-3-25.75-11.36-33.43-3.6-3.31-8.1-6-14.15-8.35C89.69,1.18,81.46.48,74.68,2.82,71-.3,65-.46,57,2.36c-5.62,2-9.47,6.63-10.83,13.13-.44,2.1-.69,2.69-2.13,3.6a5.53,5.53,0,0,1-2.46.94c-9.9,1-16.7,10.43-20.67,18.17-4.87,9.51-6,17.65-3.37,24.19a38.19,38.19,0,0,0,2.51,4.84c1.82,3.13,3.54,6.09,2.89,9.19-.72,3.44-3.95,5.27-7.37,7.2-.88.5-1.79,1-2.64,1.55C5.29,90,.29,99.74.51,109.4c.15,7.11,4,15.71,10.91,18.39a1.34,1.34,0,0,0,.4.07,35.83,35.83,0,0,0-1,8.37V154a1.5,1.5,0,0,0,3,0V136.23c0-10.52,4.88-20.15,13.74-27.13a37.65,37.65,0,0,1,9.7-5.38c.89-.36,2.1-.74,3.49-1.19s2.72-.88,4.17-1.39a1.5,1.5,0,0,0-.28,1.39c0,.07,2.11,6.82,6,21.35A1.51,1.51,0,0,0,52.06,125h50.79a1.51,1.51,0,0,0,1.43-1c5.31-16.77,6-21.47,6-21.66a1.48,1.48,0,0,0-.61-1.41c1.7.62,3.37,1.16,4.88,1.65s2.6.83,3.49,1.19a37.82,37.82,0,0,1,9.7,5.38c8.86,7,13.74,16.61,13.74,27.13V154a1.5,1.5,0,1,0,3,0V136.23a35.82,35.82,0,0,0-1.71-10.95,11.6,11.6,0,0,0,2.63.31,13,13,0,0,0,6.75-2,15.23,15.23,0,0,0,7.07-10.06C160.59,106.25,156.4,98,149.5,94.4ZM156.29,113a12.2,12.2,0,0,1-5.67,8,9.38,9.38,0,0,1-7.63,1.19,1.48,1.48,0,0,0-1.25.18,39.14,39.14,0,0,0-12.13-15.66,40.37,40.37,0,0,0-10.46-5.83c-1-.38-2.22-.78-3.66-1.25-5.58-1.79-14.92-4.8-14.92-9.69a.81.81,0,0,0,0-.16L99.44,79.33a1.5,1.5,0,0,0-3,.32l1.12,10.41c.06,5.23,5.71,8.38,11.38,10.54a1.5,1.5,0,0,0-1.62,1.28s-.69,4.57-5.58,20.12H53.22c-3.67-13.84-5.67-20.29-5.69-20.36a1.49,1.49,0,0,0-1.18-1C52,98.45,57.71,95.3,57.77,90.06l1.12-10.41a1.5,1.5,0,0,0-3-.32L54.78,89.82a.81.81,0,0,0,0,.16c0,4.89-9.34,7.9-14.92,9.69-1.44.47-2.68.87-3.66,1.25a40.2,40.2,0,0,0-10.46,5.83,38.53,38.53,0,0,0-13.11,18.3L12.5,125c-5-1.92-8.84-8.65-9-15.66-.2-8.64,4.24-17.33,11-21.62.79-.5,1.63-1,2.52-1.48,3.67-2.07,7.83-4.43,8.83-9.19.89-4.23-1.21-7.83-3.23-11.32a35.31,35.31,0,0,1-2.33-4.45c-2.29-5.7-1.19-13,3.26-21.7,3.63-7.08,9.74-15.7,18.3-16.55a8.49,8.49,0,0,0,3.77-1.4c2.47-1.56,3-3.13,3.45-5.52,1.14-5.42,4.3-9.3,8.89-10.91,4.26-1.5,9.74-2.71,13.4-.93a1.49,1.49,0,0,0,1.49,2.59c6.5-3.45,15-3.15,25.24.89,5.71,2.25,9.91,4.72,13.22,7.77,7.67,7,11.66,18.89,10.42,30.91l-.06.53a13.12,13.12,0,0,0,.24,5.62c1,3.13,3.88,4.77,6.37,6.22.46.27.92.54,1.35.81,5,3.1,9.83,9.67,8.49,16.77a29.68,29.68,0,0,1-.91,3.36c-.87,2.81-1.77,5.71-.79,8.7,1.33,4.07,5.25,5.78,8.72,7.28,1,.45,2,.88,2.92,1.35C153.89,100.09,157.41,107,156.29,113Z" /> 

            <path class="cls-2" d="M39,105.76a1.5,1.5,0,0,0-3,.42c0,.24,3.24,23.31-1.43,33.31a1.42,1.42,0,0,0-.13.66,1.54,1.54,0,0,0-.15.64V154a1.5,1.5,0,0,0,3,0v-13.2h0C42.34,130,39.11,106.75,39,105.76Z" /> 

            <path class="cls-2" d="M120.72,139.49c-4.67-10-1.47-33.07-1.43-33.31a1.5,1.5,0,0,0-3-.42c-.14,1-3.37,24.19,1.68,35h0V154a1.5,1.5,0,1,0,3,0V140.79a1.54,1.54,0,0,0-.15-.64A1.42,1.42,0,0,0,120.72,139.49Z" /> 

            <path class="cls-2" d="M104.46,139.17H52.55a1.5,1.5,0,0,0-1.5,1.5V154a1.5,1.5,0,0,0,3,0V142.17H103v11.71a1.5,1.5,0,0,0,3,0V140.67A1.5,1.5,0,0,0,104.46,139.17Z" /> 

            <path class="cls-2" d="M56,99.64a1.5,1.5,0,0,0-2.06,2.17c.29.28,7.3,6.81,23.72,6.81s22.75-6.59,23-6.88a1.5,1.5,0,0,0-2.19-2c-.06.06-5.8,5.92-20.82,5.92S56,99.71,56,99.64Z" /> 

        </g> 

    </g> 

</svg> 