<svg xmlns="http://www.w3.org/2000/svg" viewBox="0 0 160 160"> 

 

    <g > 

        <g class="illustration-shape" fill="#C8D9EE"> 

            <path class="cls-1" d="M50,100.5c4.39-1.42,3.87-6.23,3.87-6.23l-2.36-4.51-.86-8L48.52,66.56l-3.23-6a40.5,40.5,0,0,1-4.51-12.46c-1.07-6.66,4.09-4.51,4.09-4.51S43,30.41,42.44,26.7A67,67,0,0,0,21,115l8.57-7S45.64,101.93,50,100.5Z" /> 

            <path class="cls-1" d="M110,22.78l.84,20.57S116,40.56,116,45.29s-3.87,10.31-3.87,10.31L108.68,61,107,64.41V84l-2.37,11.6s.43,2.36,6.24,4.94,6,2.15,11.6,4.51S137,113.18,137,113.18l1.21,1.54A67,67,0,0,0,110,22.78Z" /> 

        </g> 

    </g> 

    <g > 

        <g class="illustration-secondary" fill="#B3CBE8"> 

            <path class="cls-2" d="M45.64,101.93S23.31,117.37,22.57,134.3s0,24.37,0,24.37-11.72,1.12-12.09-.74-.38-27.54,1.67-31.44,10.42-14,13.21-16,12.84-6.33,12.84-6.33Z" /> 

            <path class="cls-2" d="M101.82,101.56l-4.09,4.65-5.39,3.9-4.47,1.12-5,3-3.72-.37S64.8,82,73.17,70.49C61.84,57.42,61,43.17,63.8,31.07c-4.95-19.37,14.43-29,14.43-29l-8,.67L61.08,7.23,54.94,11.7h-2.6l-9.87,10,2.24,21.77H42.47l-2.6,3.54,1.67,6.51,4.66,8.55,2.23,5.21,1.49,12.47,1.86,11.72,1,1.17a4.63,4.63,0,0,0,.14,1.62c1.28,5.29-4.46,6.51-4.46,6.51a83,83,0,0,0,10,6.7c3.74,2,5,1.36,5.17,1,1.51,1.61,14.3,12,17.9,11.13,3.91-.93,8-6.14,8-6.14s2.24,1.86,6.89-2.23C102.94,106.39,101.82,101.56,101.82,101.56Z" /> 

            <path class="cls-2" d="M118.88,159.5a1.5,1.5,0,0,1-1.5-1.5V144.71a1.5,1.5,0,0,1,3,0V158A1.5,1.5,0,0,1,118.88,159.5Z" /> 

        </g> 

    </g> 

    <g > 

        <g class="illustration-primary" fill="#2157AA"> 

            <path class="cls-3" d="M49.53,98c-3.21,2.36-8.34,4-12.08,5.21-1.45.47-2.71.87-3.7,1.26a41.23,41.23,0,0,0-10.55,5.88c-9.68,7.61-15,18.18-15,29.74V158a1.5,1.5,0,0,0,3,0V140.12c0-10.62,4.93-20.35,13.87-27.39a38.19,38.19,0,0,1,9.79-5.44c.9-.35,2.11-.74,3.52-1.19,3.94-1.27,9.33-3,12.93-5.64A1.5,1.5,0,1,0,49.53,98Z" /> 

            <path class="cls-3" d="M38,143.21a1.5,1.5,0,0,0-1.5,1.5V158a1.5,1.5,0,0,0,3,0V144.71A1.5,1.5,0,0,0,38,143.21Z" /> 

            <path class="cls-3" d="M120.73,143.21a1.5,1.5,0,0,0-1.5,1.5V158a1.5,1.5,0,0,0,3,0V144.71A1.5,1.5,0,0,0,120.73,143.21Z" /> 

            <path class="cls-3" d="M136.8,110.38a41.23,41.23,0,0,0-10.55-5.88c-1-.39-2.25-.79-3.7-1.26-3.45-1.11-7.73-2.49-10.92-4.43a1.5,1.5,0,0,0-1.56,2.56c3.49,2.13,8,3.57,11.56,4.73,1.41.45,2.62.84,3.52,1.19a38.19,38.19,0,0,1,9.79,5.44c8.94,7,13.87,16.77,13.87,27.39V158a1.5,1.5,0,0,0,3,0V140.12C151.81,128.56,146.48,118,136.8,110.38Z" /> 

            <path class="cls-3" d="M110.39,62a7,7,0,0,1,1-2.41c2.37-2.85,5.07-6.08,6.27-10,.84-2.75.53-6.19-2-7.68a5,5,0,0,0-2.93-.59c0-.35,0-.63,0-.78-.28-6.9-.85-13.87-1.69-20.71a3.61,3.61,0,0,0-1-2.3,3.59,3.59,0,0,0-2.38-.86l-.36,0c-1.8-.22-3-2.16-4.25-4.22-.33-.54-.66-1.07-1-1.57C97.84,4.59,90.09,1.26,78.31.6,74.71.4,70.9.39,67.4,1.7a23.58,23.58,0,0,0-6.71,4.17,50.81,50.81,0,0,0-5.55,5.43A1.46,1.46,0,0,0,55.05,10a1.5,1.5,0,0,0-2-.56,43.69,43.69,0,0,0-10.19,8.07,6,6,0,0,0-1.62,2.63,6.19,6.19,0,0,0-.06,2.17c.65,6.29,1.44,12.64,2.33,18.9a4.71,4.71,0,0,0-2.26.61c-2.58,1.49-2.89,4.93-2.05,7.68l.06.2c1.09,3.57,2.12,7,4.69,10a18.05,18.05,0,0,1,1.6,3.71,16.94,16.94,0,0,0,2.12,4.61,1.43,1.43,0,0,0,.32.28c.54,8.48,1.43,17.74,2.22,21,.66,2.72,3.35,6.4,6.05,9.94.57.73,1,1.37,1.26,1.69a7.84,7.84,0,0,0,6.33,3.81h.11l.18,0c.57.58,1.17,1.1,1.72,1.59,1.82,1.56,3.74,2.91,5.6,4.21,1.41,1,2.86,2,4.24,3.1a1.38,1.38,0,0,0,.22.26,8.17,8.17,0,0,0,3.94,3.24,1.61,1.61,0,0,0,.48.08,1.48,1.48,0,0,0,.76-.21l5.37-3.2a12.84,12.84,0,0,0,2.47-1.75,10.85,10.85,0,0,0,2.55-4.48,22.47,22.47,0,0,0,.85-10,1.49,1.49,0,0,0-1.69-1.27A1.52,1.52,0,0,0,89.32,98a19.4,19.4,0,0,1-.74,8.69A7.55,7.55,0,0,1,86.8,110a10.65,10.65,0,0,1-1.92,1.34l-4.69,2.79a6.06,6.06,0,0,1-1.91-1.93,1.44,1.44,0,0,0-.75-.82l-.07,0c-1.43-1.13-2.9-2.17-4.33-3.17a63.82,63.82,0,0,1-5.35-4,15.93,15.93,0,0,1-2.58-2.61c-1.6-2.24-1.86-5.32-2-8.33a10.77,10.77,0,0,0-.88-4.53A1.5,1.5,0,0,0,59.65,90a8.52,8.52,0,0,1,.57,3.35A22.63,22.63,0,0,0,61.53,101,6.3,6.3,0,0,1,60,99.36c-.27-.41-.73-1-1.38-1.87-1.73-2.27-5-6.49-5.53-8.83-2-8.08-2.73-33.3-2.62-35.45a1.49,1.49,0,0,0-1.78-1.79,1.57,1.57,0,0,0-1,.67c-.32.52-.35,3.79-.19,8.23a9.62,9.62,0,0,0-1.32-2.48c-2.18-2.61-3.08-5.57-4.12-9l-.06-.2c-.49-1.62-.42-3.58.68-4.21a2.61,2.61,0,0,1,2.28.11,10.52,10.52,0,0,1,2.62,2.07,1.5,1.5,0,1,0,2.08-2.16A14.3,14.3,0,0,0,46.58,42v-.14C45.63,35.33,44.8,28.65,44.11,22a4,4,0,0,1,0-1.15,3.53,3.53,0,0,1,.9-1.29,40.61,40.61,0,0,1,9.4-7.46c-.65.78-1.29,1.58-1.89,2.39a1.5,1.5,0,1,0,2.4,1.79,48.27,48.27,0,0,1,7.7-8.14,20.25,20.25,0,0,1,5.84-3.66c2.81-1,5.91-1.13,9.69-.91,10.78.6,17.77,3.5,21.37,8.85.32.47.62,1,.93,1.47,1.5,2.46,3.21,5.24,6.44,5.63l.49.05a4.29,4.29,0,0,1,.53.06c0,.14.06.37.08.47.82,6.77,1.38,13.66,1.66,20.48,0,.17,0,.49.06.92l.06.77a16,16,0,0,0-2.63,2.17,1.5,1.5,0,1,0,2.08,2.16,10.9,10.9,0,0,1,2.62-2.07,2.63,2.63,0,0,1,2.29-.11c1.09.63,1.16,2.59.67,4.21-1,3.37-3.41,6.23-5.71,9a5.65,5.65,0,0,0-.53.78c0-1.86,0-3.77,0-5.76a1.5,1.5,0,0,0-3,0c0,5,.08,9.69.16,13.79.12,6.71.22,12.5-.08,17.28-.32,5-1.48,11.28-4.93,16a43.52,43.52,0,0,0-.17-7.67,1.5,1.5,0,1,0-3,.25,32.27,32.27,0,0,1-.09,9,10.2,10.2,0,0,1-3.61,6.22,1.58,1.58,0,0,0-1.15.09,1.75,1.75,0,0,0-1,1.45,1.73,1.73,0,0,0,.74,1.54,1.84,1.84,0,0,0,1,.31,2.35,2.35,0,0,0,1.17-.34,11.33,11.33,0,0,0,4.46-4.92c7.06-5.39,9.08-14.8,9.52-21.78.31-4.91.21-10.75.09-17.52,0-.26,0-.54,0-.8a1.29,1.29,0,0,0,.17-.16A9.33,9.33,0,0,0,110.39,62ZM49.91,54.07a1.1,1.1,0,0,1-.28.17A1,1,0,0,0,49.91,54.07Z" /> 

            <path class="cls-3" d="M55.44,31.84a1.49,1.49,0,0,0-1.6,1.39C53.38,40,53,52,55.28,57.38,58,63.63,61.11,67.64,65.12,70a21.37,21.37,0,0,0,11.12,2.67,41.75,41.75,0,0,0,6.08-.48,22.26,22.26,0,0,0,8.2-2.53,21,21,0,0,0,5.77-5.58c4.78-6.44,6.89-15.9,5.63-25.31a1.5,1.5,0,0,0-.65-1c-2.15-1.45-3.44-6.37-4.29-9.62-.18-.69-.35-1.33-.51-1.9a1.5,1.5,0,0,0-2.11-.93C88.81,28.07,79.89,29.55,74,29.74a76.19,76.19,0,0,1-17.43-1.46,1.5,1.5,0,1,0-.85,2.87,77.52,77.52,0,0,0,18.38,1.59c5.89-.19,14.06-1.5,20-4a.65.65,0,0,1,0,.13c1,3.67,2.24,8.59,4.94,10.92,1,8.44-.91,16.82-5.14,22.51A17.19,17.19,0,0,1,89,67.08a19.17,19.17,0,0,1-7.09,2.14c-6.57,1-11.56.38-15.25-1.8-3.43-2-6.17-5.59-8.61-11.23-1.49-3.43-1.94-11.94-1.2-22.75A1.49,1.49,0,0,0,55.44,31.84Z" /> 

            <path class="cls-3" d="M34,152.55c-11.67,2.12-19.24-.29-19.35-.32a1.5,1.5,0,1,0-.95,2.84,36.65,36.65,0,0,0,10.79,1.36,56.27,56.27,0,0,0,10.05-.93,1.5,1.5,0,0,0-.54-2.95Z" /> 

            <path class="cls-3" d="M144.16,152.55c-11.67,2.12-19.24-.29-19.35-.32a1.5,1.5,0,1,0-1,2.84,36.65,36.65,0,0,0,10.79,1.36,56.27,56.27,0,0,0,10-.93,1.5,1.5,0,0,0-.54-2.95Z" /> 

        </g> 

    </g> 

</svg> 