<svg xmlns="http://www.w3.org/2000/svg" viewBox="0 0 160 160"> 

 

    <g > 

        <g class="illustration-shape" fill="#C8D9EE"> 

            <path class="cls-1" d="M53.82,105.4c7.23-3,8.16-6.49,8.16-6.49L64.2,80.74l-3.15-1.85-4.26,3.89-5.94,4.08L42,90.57H35.28L39,84.64l-1.85.18L25.09,88s8.34-11.12,8.9-11.3,3.15-9.83,3.15-9.83l-4.08-15.2-.74-14.56a66.57,66.57,0,0,0-5.23,85.53c1.71-2.28,3.84-5,6-7.57C37.88,109.29,46.59,108.36,53.82,105.4Z" /> 

            <path class="cls-1" d="M90.34,17.05l-.81,1.55s2.71-.18,10.83,6,10.83,15.71,10.83,15.71L113.36,52l-.72,2.71s4,3.43,4.15,4a15.26,15.26,0,0,1-.36,4.88,11.55,11.55,0,0,1-2.89,3.07,39.37,39.37,0,0,1-5.24,1.62l-4,8.31-4,5s.36,1.45,2,9.93.54,10.65,5.05,13a66.77,66.77,0,0,0,11.38,4.15L131.59,115l4.08,5.43A66.62,66.62,0,0,0,90.34,17.05Z" /> 

        </g> 

    </g> 

    <g > 

        <g class="illustration-secondary" fill="#B3CBE8"> 

            <path class="cls-2" d="M22,131.38c-2.46,6.5-1.34,25.57-1.34,25.57s3.81.9,11.21,0c-7-43.52,21.32-50.47,21.32-50.47A38.93,38.93,0,0,0,22,131.38Z" /> 

            <path class="cls-2" d="M32.65,85.89a58.05,58.05,0,0,1-7.37,1.32A11,11,0,0,0,32.65,85.89Z" /> 

            <path class="cls-2" d="M70.13,19.55l5.48-1.79C74.57,17.54,72.47,18.22,70.13,19.55Z" /> 

            <path class="cls-2" d="M36.72,89.86c-2.94.45,14.91,3.68,24.3-9.8C59.32,77,58,74.5,56.94,72.62a51.57,51.57,0,0,0,6.38,8.44c0,4.43.28,7.61.28,7.17,0,0,25.09,17.41,37.06-4.92C91.51,90.43,83.33,90.37,77,88.17a13.14,13.14,0,0,0,1.39-.09c-17.6-12-20.91-33.73-14.7-41.81.42-.54,1.39-2.66.41-3.51-10.42-9.18-1-19.18,6-23.21l-3.72,1.22-1.58-.41a8,8,0,0,1,4-1.17c.82-1.43,1.43-6.33.92-7.31-4.93-9.65-33.2,8.35-29.39,36.17C43.65,73.82,38,82.84,32.65,85.89c2.05-.54,4-1.25,4.88-2.16C40,81.28,39.65,89.41,36.72,89.86Z" /> 

            <path class="cls-2" d="M118.9,144.46a1.5,1.5,0,0,0-1.5,1.5v12.15a1.5,1.5,0,0,0,3,0V146A1.5,1.5,0,0,0,118.9,144.46Z" /> 

            <path class="cls-2" d="M106.4,106.31c-21.14,16.06-47.84.64-48.1.48a1.41,1.41,0,0,0-2,.57,1.53,1.53,0,0,0,.54,2,59.72,59.72,0,0,0,16.95,6.2,50.91,50.91,0,0,0,10.1,1.05,39.18,39.18,0,0,0,24.16-7.92,1.53,1.53,0,0,0,.31-2.09A1.39,1.39,0,0,0,106.4,106.31Z" /> 

        </g> 

    </g> 

    <g > 

        <g class="illustration-primary" fill="#2157AA"> 

            <path class="cls-3" d="M64,98l1-9.59a1.5,1.5,0,1,0-3-.33l-1.06,9.67a1,1,0,0,0,0,.17c0,4.42-8.78,7.18-14,8.83-1.37.43-2.54.8-3.47,1.16a38.76,38.76,0,0,0-9.9,5.38c-9.09,7-14.1,16.7-14.1,27.32V157a1.5,1.5,0,0,0,3,0V140.6c0-9.67,4.59-18.53,12.93-24.94a35.48,35.48,0,0,1,9.14-5c.84-.32,2-.68,3.3-1.09C54.31,107.59,64,104.56,64,98Z" /> 

            <path class="cls-3" d="M44.37,143.3a1.5,1.5,0,0,0-1.5,1.5V157a1.5,1.5,0,0,0,3,0V144.8A1.5,1.5,0,0,0,44.37,143.3Z" /> 

            <path class="cls-3" d="M120.88,144.46a1.5,1.5,0,0,0-1.5,1.5v12.15a1.5,1.5,0,0,0,3,0V146A1.5,1.5,0,0,0,120.88,144.46Z" /> 

            <path class="cls-3" d="M131.85,113.28A38.53,38.53,0,0,0,122,107.9c-.93-.36-2.11-.73-3.47-1.16-5.25-1.65-14-4.41-14-8.83v-.17l-1.06-9.67a1.53,1.53,0,0,0-1.66-1.33,1.51,1.51,0,0,0-1.33,1.66L101.47,98c.08,6.57,9.73,9.6,16.12,11.62,1.31.41,2.45.77,3.29,1.09a35.72,35.72,0,0,1,9.15,5c8.34,6.41,12.93,15.27,12.93,24.94V157a1.5,1.5,0,0,0,3,0V140.6C146,130,141,120.28,131.85,113.28Z" /> 

            <path class="cls-3" d="M21.69,90.64h.12a37.71,37.71,0,0,0,15.66-4.73,4.64,4.64,0,0,1-.78,1.31,4.53,4.53,0,0,1-3,1.6,1.5,1.5,0,0,0-.49,2.87,13,13,0,0,0,5.29,1A23.48,23.48,0,0,0,46.87,91a45.06,45.06,0,0,0,15-9.64,41.93,41.93,0,0,0,4.46,4,29.46,29.46,0,0,0,7.93,4.49A22.57,22.57,0,0,0,81.83,91a27.74,27.74,0,0,0,19.79-8.62c4.15-4.39,6.64-8.63,7.87-13.47.18,0,.35,0,.53,0A8.21,8.21,0,0,0,116.86,65a10.28,10.28,0,0,0,.72-8.61,5.65,5.65,0,0,0-2.3-3.17l-.11,0a36.87,36.87,0,0,0-3.83-17.85C107.66,28,103.81,23,95,19.35l-.08,0-.15,0-.14,0h-.43l-.15,0-.13,0a.47.47,0,0,0-.15.06l-.07,0,0,0-.12.08s0-.07,0-.11a1.5,1.5,0,0,0-.91-1.92l-1.25-.41a9,9,0,0,0-.67-6.18,5.65,5.65,0,0,0-2.46-2.65,7.55,7.55,0,0,0-3-.64c-.83,0-2-.08-3.45-.06h0C74.61-.21,62.55-2.07,52.57,3c-3.92,2-7.63,5.2-11.33,9.79-9.23,11.42-13,25-10,36.39.47,1.84,1.11,3.62,1.73,5.35a50.12,50.12,0,0,1,1.85,5.91c2.36,10.63-3.66,22.63-13.71,27.32a1.5,1.5,0,0,0,.63,2.86ZM99.44,80.35c-6.33,6.7-16.28,9.41-24.19,6.58a26.22,26.22,0,0,1-7.11-4A39.57,39.57,0,0,1,62.85,78a2,2,0,0,0-.39-.44l0,0A39.79,39.79,0,0,1,56.24,68a1.92,1.92,0,0,0,.19-.49c1-5.11,2.08-10.4,4.57-15a31.64,31.64,0,0,1,4.94-7.15A41.9,41.9,0,0,0,77.82,47.1,29.91,29.91,0,0,0,88,45.46a22,22,0,0,0,3.53-1.61l.72,1c1.78,2.67,4,6,6.62,7.79a17.35,17.35,0,0,0,2.25,1.22c1,.48,2.34,1.13,2.54,1.69q.66,1.74,1.26,3.27c1.1,2.85,2.36,6.07,2.09,6.9a1.32,1.32,0,0,0-.05.68C106,71.52,103.72,75.83,99.44,80.35Zm9.22-43.64a33.88,33.88,0,0,1,3.53,16,5.34,5.34,0,0,0-.88.2A6.81,6.81,0,0,0,108.42,55a1.5,1.5,0,1,0,2.29,1.94,3.86,3.86,0,0,1,1.58-1.17,1.75,1.75,0,0,1,1.43.07,2.92,2.92,0,0,1,1,1.58,7.26,7.26,0,0,1-.46,6.07A5.18,5.18,0,0,1,110,66c.18-1.8-.79-4.33-2.3-8.19-.39-1-.81-2.09-1.24-3.24-.62-1.68-2.44-2.56-4-3.34a14.19,14.19,0,0,1-1.85-1c-2.14-1.47-4.19-4.53-5.83-7L94,42.09l0,0A15.09,15.09,0,0,0,98.44,29.9a23.56,23.56,0,0,0-.93-6C103,27,105.79,31,108.66,36.71ZM93.08,20.13a0,0,0,0,1,0,0l0,.08c0,.05,0,.1,0,.16l0,.13a.76.76,0,0,0,0,.15.33.33,0,0,0,0,.14A.76.76,0,0,0,93,21l0,.14s0,.09,0,.14l.06.14,0,.08c1.83,3.32,2.06,4.83,2.31,8.64A12.08,12.08,0,0,1,92,39.84a14.73,14.73,0,0,1-5,2.8C80.5,45,71.51,44.49,63.51,41.32a1.5,1.5,0,1,0-1.1,2.79l.47.17a33.63,33.63,0,0,0-4.52,6.77c-2.47,4.57-3.6,9.56-4.6,14.46a1.45,1.45,0,0,0-.9-.14c-1.55.27-4.58-2-5.78-4a6.86,6.86,0,0,1-.82-4.5h0V56.8a7.61,7.61,0,0,1,.36-1.48,2.88,2.88,0,0,1,1-1.58,1.77,1.77,0,0,1,1.44-.07,3.84,3.84,0,0,1,1.58,1.17A1.5,1.5,0,0,0,53,52.9a6.66,6.66,0,0,0-2.89-2.07h0c-.69-8.17,1-14.39,5.44-20.07,8.1-10.37,23.68-14.84,36.24-10.42A1.5,1.5,0,0,0,93.08,20.13Zm-7.92-9.51a4.92,4.92,0,0,1,1.81.32,2.88,2.88,0,0,1,1.12,1.31,6.08,6.08,0,0,1,.46,4.09,36.37,36.37,0,0,0-17.65.74l-.15-.64c-.4-1.62-.59-2.59.19-3.7C71.93,11.3,79.11,10.23,85.16,10.62ZM37.7,59.81a52,52,0,0,0-2-6.27c-.62-1.74-1.21-3.38-1.65-5.08C31.4,38,34.94,25.38,43.57,14.69a32.93,32.93,0,0,1,10.36-9,22.06,22.06,0,0,1,23.8,2.1c-3.89.37-7.89,1.27-9.26,3.23-1.59,2.29-1.06,4.43-.63,6.15.07.3.15.59.2.87A34.61,34.61,0,0,0,53.1,28.9C48.27,35.07,46.34,42,47,50.77a4.12,4.12,0,0,0-.91.4,5.61,5.61,0,0,0-2.3,3.17,11,11,0,0,0-.5,2l0,.1h0A9.88,9.88,0,0,0,44.52,63c1.47,2.42,5,5.44,8.09,5.44a4.21,4.21,0,0,0,.5,0A42.39,42.39,0,0,0,59.83,79.1a42,42,0,0,1-14,9.05,20.6,20.6,0,0,1-7.36,1.59,7.27,7.27,0,0,0,.54-.57A7.15,7.15,0,0,0,40.75,84a1.44,1.44,0,0,0-.27-.74,1.43,1.43,0,0,0-.25-.81A1.5,1.5,0,0,0,38.15,82a34.37,34.37,0,0,1-9.61,4.42C35.94,79.88,39.82,69.35,37.7,59.81Z" /> 

            <path class="cls-3" d="M107.79,108c-22.08,16.06-50,.64-50.25.48a1.5,1.5,0,0,0-1.48,2.61,64,64,0,0,0,17.71,6.2,55.39,55.39,0,0,0,10.55,1,42.14,42.14,0,0,0,25.24-7.92,1.5,1.5,0,1,0-1.77-2.42Z" /> 

            <path class="cls-3" d="M139.42,148.85c-.07,0-6.69,4.07-13.2,2a1.5,1.5,0,1,0-.91,2.86,16.22,16.22,0,0,0,4.87.73,22.54,22.54,0,0,0,10.82-3,1.5,1.5,0,0,0-1.58-2.55Z" /> 

            <path class="cls-3" d="M39.1,150.86c-6.52,2-13.14-2-13.2-2a1.5,1.5,0,0,0-1.59,2.55,22.56,22.56,0,0,0,10.83,3,16.2,16.2,0,0,0,4.86-.73,1.5,1.5,0,1,0-.9-2.86Z" /> 

        </g> 

    </g> 

</svg> 