<svg xmlns="http://www.w3.org/2000/svg" viewBox="0 0 160 160"> 

 

    <g > 

        <g class="illustration-secondary" fill="#B3CBE8"> 

            <path class="cls-1" d="M95,74.54s-10.67,6.7-16.11,8.17c-4.34,1.16-11.31-3.11-14-4.9C52.92,66,50.66,52.35,52.25,40.33,36.77,20.56,65.11,8.6,65.47,8.6L59,8a120.84,120.84,0,0,0-12.56,4C42.65,13.63,37,18,32.81,22.21S27.58,35,28,39.79s3.77,9.63,3.77,9.63L30.3,51.31S29,52.77,27.79,58.42s.63,4.19.63,4.19-.21,1.46-2.93,6.07.9,3.4,5.23,12.14,19.05,9.63,19.05,9.63L54.37,85h4.4l1.29-2.7c.65.26-1.25,2.52-.52,2.81,19.05,7.32,34.43,3.19,38.4-1S95,74.54,95,74.54Z" /> 

            <path class="cls-1" d="M40.87,103.85s-22.29,15.73-17.56,53.66c-4.21,1.33-11.49.49-11.69-.87-.4-2.7-1.73-27.46,5.39-35.42S29.78,105.1,40.87,103.85Z" /> 

            <path class="cls-1" d="M51.2,96.84s30.23,16.44,55.55-1.13c4,1.7-14.93,20.78-45.16,11.34-18-6.43-16.06-6.62-16.06-6.62" /> 

            <path class="cls-1" d="M122.19,159.5a1.5,1.5,0,0,1-1.5-1.5V144.58a1.5,1.5,0,1,1,3,0V158A1.5,1.5,0,0,1,122.19,159.5Z" /> 

        </g> 

    </g> 

    <g > 

        <g class="illustration-primary" fill="#2157AA"> 

            <path class="cls-2" d="M35.31,143.08a1.5,1.5,0,0,0-1.5,1.5V158a1.5,1.5,0,0,0,3,0V144.58A1.5,1.5,0,0,0,35.31,143.08Z" /> 

            <path class="cls-2" d="M124.46,143.08a1.5,1.5,0,0,0-1.5,1.5V158a1.5,1.5,0,0,0,3,0V144.58A1.5,1.5,0,0,0,124.46,143.08Z" /> 

            <path class="cls-2" d="M134.52,109.92A41.13,41.13,0,0,0,123.88,104c-3.85-1.5-10.74-4.71-13.6-9.22a1.43,1.43,0,0,0-.56-.51,21.3,21.3,0,0,0,.2-2.67,25.65,25.65,0,0,0,2.75.16,19.77,19.77,0,0,0,11.38-3.35c4.52-3.16,7.07-8.63,6.35-13.62,0-.29-.09-.58-.14-.87a6.61,6.61,0,0,1-.18-1.91,6.8,6.8,0,0,1,1-2.34c2.51-4.42,5.12-9.71,5.36-15.52.22-5.3-2.06-11.92-7.65-14.78a24.15,24.15,0,0,0-2.73-1.12,17.87,17.87,0,0,1-2.55-1.05c-1.11-.6-2.38-1.77-2.3-3.08a5.58,5.58,0,0,1,.47-1.6,9.5,9.5,0,0,0,.61-2,5.63,5.63,0,0,0-1.45-4.69,6,6,0,0,0-2.68-1.75A14.91,14.91,0,0,0,105.67,7.56c-.39-.06-.79-.11-1.19-.15a7.28,7.28,0,0,1-2.9-.72,7.17,7.17,0,0,1-1.33-1.19L99.76,5A17.3,17.3,0,0,0,84.21.66a23.07,23.07,0,0,0-12.4,7.4,9.9,9.9,0,0,0-2.14-1c-6-1.93-13.19-.86-21.9,3.27-6.42,3-11,6.21-14.43,10-4.43,4.87-6.79,10.91-6.48,16.57a28,28,0,0,0,3.78,11.6,8.32,8.32,0,0,0-4.27,6.17,17.11,17.11,0,0,0,1,7.59c-2.73,2.65-3.23,6.88-2.43,10.14.9,3.74,8.38,14,11,15.67a22.53,22.53,0,0,0,6.43,2.43,22.07,22.07,0,0,0,5.51.91c.2,0,.4,0,.6,0a6.52,6.52,0,0,0,.09,4.85c-3.3,3.75-9.13,6.43-12.47,7.73a41.36,41.36,0,0,0-10.65,5.93c-9.77,7.69-15.15,18.35-15.15,30V158a1.5,1.5,0,0,0,3,0V139.94c0-10.73,5-20.55,14-27.66a38.33,38.33,0,0,1,9.89-5.49c3.53-1.39,9.66-4.22,13.42-8.33l.3.18a61.75,61.75,0,0,0,27.69,6.66A56.54,56.54,0,0,0,108.15,97c3.5,4.91,10.6,8.24,14.63,9.82a38.33,38.33,0,0,1,9.89,5.49c9,7.11,14,16.93,14,27.66V158a1.5,1.5,0,0,0,3,0V139.94C149.68,128.27,144.3,117.61,134.52,109.92ZM51.86,95.66a1.38,1.38,0,0,0-.47-.58l-.06,0a2.66,2.66,0,0,1-.24-1.59,8.42,8.42,0,0,1,1.12-3.07,1.44,1.44,0,0,0,.5-.82A12.2,12.2,0,0,1,56,86.12a33.12,33.12,0,0,0,4.19,2.15L57,98.09A46.84,46.84,0,0,1,52.35,96,3,3,0,0,1,51.86,95.66Zm43.75-7.47A64.08,64.08,0,0,1,99.67,98a53.49,53.49,0,0,1-7.38,2.55c-.74-3.8-1.29-6.65-2.35-10.43A45.79,45.79,0,0,0,95.61,88.19ZM87,90.77c1.06,3.76,1.62,6.6,2.35,10.43a51.81,51.81,0,0,1-7.86,1c-.39-4.22-.68-7-1.17-10.61A47.57,47.57,0,0,0,87,90.77Zm-9.7.92c.5,3.68.79,6.43,1.18,10.6a55.85,55.85,0,0,1-8-.58c0-.19,0-.36.06-.53.2-2,.37-3.61.53-5.25.15-1.46.3-2.93.47-4.61A46.8,46.8,0,0,0,77.31,91.69Zm-9.19,3.93c-.17,1.65-.34,3.3-.53,5.27,0,.09,0,.2,0,.31a59.11,59.11,0,0,1-7.77-2.07l3.16-9.78a40.71,40.71,0,0,0,5.67,1.5C68.43,92.6,68.27,94.12,68.12,95.62Zm38.55-1.25c-1.42.86-2.84,1.62-4.26,2.32A67.74,67.74,0,0,0,98.35,87a37.31,37.31,0,0,0,4.54-2.59,5.43,5.43,0,0,1,2.72,2C106.89,88.23,107.25,90.9,106.67,94.37Zm-3.9-13.09a1.5,1.5,0,0,0-1.1.29s-.41.3-1.12.75l-1.72-4.71a1.5,1.5,0,0,0-2.82,1l1.89,5.18a44.56,44.56,0,0,1-18.83,4.86,41,41,0,0,1-18-3.29,11.76,11.76,0,0,0,.76-5,1.5,1.5,0,0,0-3,.21A8.81,8.81,0,0,1,58.33,84l-1-.58c-.22-.14-.37-.22-.43-.25-2-.91-5,2.11-6.77,4.85-2,.75-4.43.23-7-.43a20.07,20.07,0,0,1-5.6-2.07c-2-1.23-9-11-9.7-13.83-.61-2.52-.2-6,2.13-7.73a1.5,1.5,0,0,0,.54-1.67c-.71-2.26-1.53-4.83-1.18-7.19.28-2,1.73-4,3.66-4.18a1.53,1.53,0,0,0,1.22-.8,1.49,1.49,0,0,0,0-1.46c-1.88-3.22-4.08-7.48-4.33-11.94-.26-4.85,1.81-10.1,5.71-14.39,3.15-3.47,7.44-6.43,13.49-9.29C57.16,9.24,63.42,8.24,68.75,10a5.52,5.52,0,0,1,1.74.85,1.55,1.55,0,0,0,.46.64l.17.11a1.5,1.5,0,0,0,2.77-1.17.41.41,0,0,1,0-.09,20.15,20.15,0,0,1,11-6.7A14.29,14.29,0,0,1,97.64,7.12c.15.14.29.3.44.45A9.75,9.75,0,0,0,100,9.25a9.91,9.91,0,0,0,4.13,1.14l1.07.13A11.94,11.94,0,0,1,115,25a1.5,1.5,0,0,0,.31,1.31,1.55,1.55,0,0,0,1.24.53,2.72,2.72,0,0,1,2.09,1,2.69,2.69,0,0,1,.73,2.18,7.28,7.28,0,0,1-.44,1.38,8.17,8.17,0,0,0-.68,2.52c-.16,2.72,1.9,4.83,3.87,5.89a20.89,20.89,0,0,0,3,1.25,21.47,21.47,0,0,1,2.38,1c4.4,2.25,6.19,7.64,6,12-.21,5.17-2.63,10.06-5,14.23a8.94,8.94,0,0,0-1.35,3.39,9.13,9.13,0,0,0,.19,2.81c0,.26.1.51.13.77.57,3.9-1.49,8.21-5.1,10.74a17.54,17.54,0,0,1-11.65,2.71.35.35,0,0,1-.05-.08,1.64,1.64,0,0,0-1.11-.67A9.63,9.63,0,0,0,108,84.62,8.26,8.26,0,0,0,102.77,81.28Z" /> 

            <path class="cls-2" d="M101.37,58.13c.26-2.77,0-6-2.6-7.78a8.78,8.78,0,0,0-4.13-1.19c-.37,0-.73-.08-1.08-.14a9.81,9.81,0,0,1-6.28-4,8.43,8.43,0,0,1-1.63-6.35,1.51,1.51,0,0,0-.4-1.3A1.46,1.46,0,0,0,84,36.92,14.14,14.14,0,0,1,74.22,35a9.53,9.53,0,0,1-4.45-8.11,1.5,1.5,0,0,0-2.93-.49,1.47,1.47,0,0,0-.53.81c-1,3.77-2,7.05-4.43,9S56.22,38.38,53,38.68h-.14c-3.52.33-7.51.91-10.35,3.69a1.51,1.51,0,0,0-.44,1.2A48.88,48.88,0,0,0,50,66.79a38.52,38.52,0,0,0,19.43,15,27.91,27.91,0,0,0,8.74,1.49,21,21,0,0,0,4.94-.57,26.29,26.29,0,0,0,8.34-3.82,40.18,40.18,0,0,0,12.82-13.87c0,.16.1.32.14.48.57,2.72-.2,5.73-.88,8.39a1.51,1.51,0,0,0,1.09,1.83,1.55,1.55,0,0,0,.37,0,1.49,1.49,0,0,0,1.45-1.13c.76-3,1.62-6.35.9-9.75C106.73,62,104.5,58.94,101.37,58.13ZM89.79,76.44a23.31,23.31,0,0,1-7.38,3.41,22.19,22.19,0,0,1-12-.86A35.57,35.57,0,0,1,52.48,65.11a45.6,45.6,0,0,1-7.36-21c2.12-1.71,5.11-2.12,8-2.39h.14c3.49-.33,7.45-.7,10.47-3.09a13.89,13.89,0,0,0,4.2-6.33,13.28,13.28,0,0,0,4.63,5.29,16.52,16.52,0,0,0,10,2.52,11.81,11.81,0,0,0,2.3,6.7A12.78,12.78,0,0,0,93.09,52c.4.06.81.11,1.22.15a6.47,6.47,0,0,1,2.79.7c1.29.86,1.64,2.88,1.11,6.36a1.5,1.5,0,0,0,.35,1.21,1.53,1.53,0,0,0,1.13.51h0a4,4,0,0,1,2.7,1.17A37.1,37.1,0,0,1,89.79,76.44Z" /> 

        </g> 

    </g> 

</svg> 