<svg xmlns="http://www.w3.org/2000/svg" viewBox="0 0 160 160"> 

 

    <g > 

        <g class="illustration-shape" fill="#C8D9EE"> 

            <path class="cls-1" d="M43.57,103l10-6,3-5.7L58,79.91l-1.63-2.17-7.6-10-2.17-9.23-.27-10.58-5.7-2.18.9-17.26-4.05,3.6a60.4,60.4,0,0,0-8.61,75.87,3.39,3.39,0,0,0,.36-.06Z" /> 

            <path class="cls-1" d="M115.36,26.45l1.22,18.45,4.61,2.71s1.63,4.07,1.09,5.43-3.53,7.06-3.53,7.06l-4.34.81-2.45.82s-1.9,7.05-2.17,7.87-5.15,6.78-5.15,6.78L103,79.09v13.3l6.51,7.06L116.3,103l7.87,3.25,5.61,2.94a60.46,60.46,0,0,0-14.42-82.72Z" /> 

        </g> 

    </g> 

    <g > 

        <g class="illustration-secondary" fill="#B3CBE8"> 

            <path class="cls-2" d="M121.38,143.06h-.14a1.5,1.5,0,0,0-1.5,1.5V158a1.5,1.5,0,0,0,1.5,1.5h.14a1.5,1.5,0,0,0,1.5-1.5V144.56A1.5,1.5,0,0,0,121.38,143.06Z" /> 

            <path class="cls-2" d="M56.74,78.42v8.81S70,94.49,81.85,93.37c6-.56,17.12-3.53,18.23-12.46-11,9.21-23.72,6.94-32.51,3.37C58.77,72.22,56.4,61.59,56.74,53.15,59.24,59.9,67.15,59,67.15,59L62.69,45.56a16.06,16.06,0,0,0-5.22,1.52A34.06,34.06,0,0,1,64,32.63l-3.51-1.87-1.29-3.17C54.38,15.84,70,3.37,70,3.37S52.46,6,46.22,16.8s-3.12,5.76-3.12,5.76S40.46,33.83,40.22,36s1.2,4.8-.24,10.31c-7.67,12,6.72,15.36,6.72,15.36A34.59,34.59,0,0,0,56.74,78.42Z" /> 

            <path class="cls-2" d="M95.43,59,91,45.56s-6.7.74-6.7,3.53C84.64,60.25,95.43,59,95.43,59Z" /> 

            <path class="cls-2" d="M14.13,123.7a103.23,103.23,0,0,0-3.72,34c5.4,2.61,11.72.19,11.72.19s.37-4.09,1.3-23.82S44.27,102.3,44.27,102.3s-16.19,6.7-19.16,8.56S14.13,123.7,14.13,123.7Z" /> 

            <path class="cls-2" d="M102.74,99.75c-6.14,8.16-13.13,12.5-20.77,12.9-13.81.73-25.45-11.7-25.56-11.83a1.39,1.39,0,0,0-2,0,1.55,1.55,0,0,0,0,2.12c.49.53,11.9,12.77,26.42,12.77q.66,0,1.32,0c8.52-.45,16.22-5.17,22.9-14a1.55,1.55,0,0,0-.24-2.11A1.39,1.39,0,0,0,102.74,99.75Z" /> 

        </g> 

    </g> 

    <g > 

        <g class="illustration-primary" fill="#2157AA"> 

            <path class="cls-3" d="M104.22,46.77c-7.47-5.23-19.44-.84-20.16-.57a1.49,1.49,0,0,0-.36-.05L75.79,46C68.23,41.13,56.51,45.5,56,45.7a1.48,1.48,0,0,0-1,1.27c-.44,5,.65,8.76,3.21,11.22a11.54,11.54,0,0,0,7.95,2.9A10.07,10.07,0,0,0,67.4,61a11,11,0,0,0,7.25-3.72A11.65,11.65,0,0,0,77,49l6,.12c-.08,4.18,1,7.4,3.3,9.58a11.57,11.57,0,0,0,7.94,2.9,10.14,10.14,0,0,0,1.2-.06,11,11,0,0,0,7.24-3.72c2-2.47,2.76-5.85,2.17-10A1.47,1.47,0,0,0,104.22,46.77ZM72.35,55.38A8,8,0,0,1,67.18,58h-.11s-4.12.48-6.75-2c-1.71-1.65-2.5-4.28-2.34-7.81,2.67-.85,10.73-3,16,.15C74.24,51.35,73.71,53.71,72.35,55.38Zm28,.52a8.07,8.07,0,0,1-5.18,2.66h-.11s-4.08.5-6.73-2c-1.72-1.65-2.52-4.28-2.36-7.83,2.68-.85,10.73-3,16,.16C102.26,51.87,101.73,54.23,100.38,55.9Z" /> 

            <path class="cls-3" d="M45.14,62.6c.22,0,.43,0,.65,0,1.85,13.55,19,26.14,32,26.14l5.56.24c14,0,29.19-13.38,30.88-26.38.21,0,.42,0,.64,0a9.05,9.05,0,0,0,6.39-2.74,11.36,11.36,0,0,0,3-7.91c0-3.35-1.37-6.19-3.69-7.6a4.35,4.35,0,0,0-1.68-.57c0-7.26,0-14.77-3.48-22.68C110.91,10.79,99.2,3,85.6,1.27,79.91.55,75.14.07,69.88,1.08A44.52,44.52,0,0,0,55.31,6.2,33.26,33.26,0,0,0,41.05,23.9a43.31,43.31,0,0,0-1.64,20.45h0c-2.32,1.41-3.7,4.25-3.69,7.6a11.36,11.36,0,0,0,3,7.91A9.05,9.05,0,0,0,45.14,62.6ZM83.41,86l-5.56-.25c-12.23,0-29.23-12.85-29.23-25.5V46.51c.28-5,1.43-8.5,3.52-10.6a16.13,16.13,0,0,1,8.48-4.42,19.34,19.34,0,0,0,8.54,5c6.5,2.07,13.09,1.74,18.07-.91A1.52,1.52,0,0,0,88,34a1.5,1.5,0,0,0-1.36-1.18,8.46,8.46,0,0,1-6-3.23,19.87,19.87,0,0,1,10.24-.08c3.63,1.05,6.79,3.44,9.67,5.88,3.64,3.07,7.45,6.85,8.18,11.53a1.5,1.5,0,0,0,.92,1.16,1.39,1.39,0,0,0,.8.09c.2.07.5.2.7.29l.35.15-.16,11.61C111.38,72.23,96.44,85.94,83.41,86Zm37.87-34a8.33,8.33,0,0,1-2.18,5.82,6,6,0,0,1-4.71,1.81l.15-10.73a3.69,3.69,0,0,1,2-1.77,3,3,0,0,1,2.44-.15C120.7,47.93,121.29,50.18,121.28,51.94Zm-77.39-27a30.16,30.16,0,0,1,13-16.11A41.71,41.71,0,0,1,70.44,4c4.84-.92,9.18-.49,14.78.23,12.57,1.6,23.35,8.69,27.46,18.06,3,7,3.27,13.18,3.23,21.82l-.47.17A7.6,7.6,0,0,0,113,45.93l-.59-.24a9.11,9.11,0,0,0-.86-.35c-1.23-5.12-5.2-9.06-9-12.27-3.13-2.64-6.61-5.26-10.78-6.46a23.89,23.89,0,0,0-13.81.62,1.48,1.48,0,0,0-.91.82,1.45,1.45,0,0,0,0,1.22,11.25,11.25,0,0,0,4.83,5.15,22.81,22.81,0,0,1-11.79-.75,16.18,16.18,0,0,1-7.42-4.4,8.28,8.28,0,0,1-2.16-5.72,1.38,1.38,0,0,0,.17-.53l.18-1.32A1.5,1.5,0,0,0,57.93,21a10.08,10.08,0,0,0,.81,7.8,19.17,19.17,0,0,0-8.72,5c-2.41,2.42-3.81,6.08-4.28,11.13a8.78,8.78,0,0,0-1.18-.62,7.4,7.4,0,0,0-2.2-.55A40,40,0,0,1,43.89,24.89ZM40.93,47l.15,0a1.1,1.1,0,0,0,.25,0,1.58,1.58,0,0,0,.56-.21,4.26,4.26,0,0,1,1.52.33A3.52,3.52,0,0,1,45.5,49a1.75,1.75,0,0,0,.12.32v10.3a6,6,0,0,1-4.72-1.81,8.33,8.33,0,0,1-2.18-5.82C38.71,50.19,39.3,48,40.93,47Z" /> 

            <path class="cls-3" d="M26.33,112.21a38.78,38.78,0,0,1,10.11-5.51c.93-.36,2.18-.76,3.64-1.22,7-2.21,17.55-5.54,17.66-12.67l.93-6.47a1.5,1.5,0,1,0-3-.42l-1,6.56a1.62,1.62,0,0,0,0,.22c0,5-9.75,8.08-15.57,9.92-1.5.47-2.79.88-3.81,1.27a42.86,42.86,0,0,0-10.87,5.94C14.51,117.53,9,128.22,9,139.91V158a1.5,1.5,0,0,0,3,0V139.91C12,129.17,17.09,119.33,26.33,112.21Z" /> 

            <path class="cls-3" d="M39.75,143.06a1.5,1.5,0,0,0-1.5,1.5V158a1.5,1.5,0,0,0,3,0V144.56A1.5,1.5,0,0,0,39.75,143.06Z" /> 

            <path class="cls-3" d="M123.22,143.06a1.5,1.5,0,0,0-1.5,1.5V158a1.5,1.5,0,0,0,3,0V144.56A1.5,1.5,0,0,0,123.22,143.06Z" /> 

            <path class="cls-3" d="M135.51,109.83a42.69,42.69,0,0,0-10.87-5.94c-1-.39-2.31-.79-3.81-1.27-5.82-1.84-15.57-4.91-15.57-10l-.1-5a1.5,1.5,0,0,0-1.5-1.47h0a1.51,1.51,0,0,0-1.47,1.53l.1,5c0,7.21,10.63,10.56,17.66,12.78,1.46.46,2.71.86,3.64,1.22a39,39,0,0,1,10.12,5.51c9.23,7.12,14.31,17,14.31,27.7v8.64a1.64,1.64,0,0,0-.37,0c-.12,0-12.3,3.47-19.19,2.72a1.5,1.5,0,1,0-.33,3,21.74,21.74,0,0,0,2.48.13c6.67,0,15.35-2.26,17.41-2.82V158a1.5,1.5,0,0,0,3,0V139.91C151,128.22,145.49,117.53,135.51,109.83Z" /> 

            <path class="cls-3" d="M106.2,101.34a1.51,1.51,0,0,0-2.11.25c-6.43,8.16-13.76,12.5-21.77,12.9-14.49.73-26.68-11.7-26.8-11.82a1.5,1.5,0,1,0-2.16,2.08c.51.54,12.48,12.77,27.7,12.77l1.39,0c8.92-.44,17-5.17,24-14A1.51,1.51,0,0,0,106.2,101.34Z" /> 

            <path class="cls-3" d="M35.14,151.32c-6.89.76-19.08-2.68-19.2-2.72a1.5,1.5,0,0,0-.82,2.89c.47.13,10.42,2.94,17.86,2.94a21.74,21.74,0,0,0,2.48-.13,1.5,1.5,0,0,0-.32-3Z" /> 

        </g> 

    </g> 

</svg> 