<svg xmlns="http://www.w3.org/2000/svg" viewBox="0 0 160 160"> 

 

    <g > 

        <g class="illustration-shape" fill="#C8D9EE"> 

            <g  data-name="illustration-shape"> 

                <path class="cls-1" d="M121.19,31.5h-.68c3.82,3.58,0,6,0,6l-1.91,3.59,3.34,3.58L123.62,49l-2.87,6.93L116.92,58l2.87,1.91.24,4.31L115.73,70l-7.41,1.44-5-2.63L98.76,81.22l1.67,17.45,4.06,5,10.28,5,14.11,6.45,4.31,5.45a65.45,65.45,0,0,0-12-89.11Z" /> 

                <path class="cls-1" d="M41.39,110.62s4.3-1.68,13.15-5,6.69-8.37,7.17-17c.33-5.95,1-6.53,1.38-6.32l-4.49-5.4-6-6.69-3.1,1.44H45.93l-4.54-3.11-4.3-6.7-1.44-8.6,3.59-3.59-1-2.39-3.34-8.12.7-4.92A65.47,65.47,0,0,0,27.07,121l4.52-4.86Z" /> 

            </g> 

            <path class="cls-1" d="M63.09,82.31l.29.34A.78.78,0,0,0,63.09,82.31Z" /> 

        </g> 

    </g> 

    <g > 

        <g class="illustration-secondary" fill="#B3CBE8"> 

            <path class="cls-2" d="M61.83,48.56s4.61-7.12,2.93-8.56a4.83,4.83,0,0,0,.79.25c-2.38-1.06-6.59-7.39-5.67-9.82a5.35,5.35,0,0,1,6.37-3.09c-2.52-2.91-5.11-6.51-4.24-10.26.57-2.44,2.49-4.29,4.33-6C67.57,9.94,70.07,9,69.53,7.36c-.41-1.24-3.25-3.47-4.38-4a7.51,7.51,0,0,0-4.87-.22c-3.48.75-7.18,2.81-7.82,6.31a4.85,4.85,0,0,1-.58,2.12c-.7,1-2.1.92-3.28,1a10.09,10.09,0,0,0-8.67,13.93A15.58,15.58,0,0,0,38.62,46c.85,1.15,1.85,2.87.76,3.81a5,5,0,0,1-1,.53c-1.46.75-2,2.55-2.19,4.18a17,17,0,0,0,1.76,10.13,12.23,12.23,0,0,0,8,6.17,6.84,6.84,0,0,0,4.22-.34,6.56,6.56,0,0,1,1.39-.6c1.57-.33,13.21,13.6,19.29,17.54,3.22,2.09,6.88,3.9,10.71,3.67C55.31,74,61.83,48.56,61.83,48.56Z" /> 

            <path class="cls-2" d="M118.72,159.07c-.83,0-3.2-.67-3.2-1.5V145.41a1.5,1.5,0,0,1,3,0v12.16C118.52,158.4,119.55,159.07,118.72,159.07Z" /> 

            <path class="cls-2" d="M79.68,110.5c-13.2,0-17.75-4.16-17.94-4.34a1.55,1.55,0,0,1-.1-2.12,1.4,1.4,0,0,1,2-.12c.09.09,4.19,3.58,16,3.58s16.58-3.89,16.62-3.93a1.4,1.4,0,0,1,2,.18,1.54,1.54,0,0,1-.15,2.1C98,106,92.86,110.5,79.68,110.5Z" /> 

            <path class="cls-2" d="M62.57,118.88S76.15,128.37,80.8,128s11.91-5,17.68-10.24-9.86,16.75-16.93,16.56S62.57,118.88,62.57,118.88Z" /> 

            <path class="cls-2" d="M52.34,105.86c.56-.19-19.72,11.72-21.21,27.53-.91,9.62-1.3,25.12-1.3,25.12s-9.49.93-9.68-1.12S17,138.79,21.45,131,31.13,112.93,52.34,105.86Z" /> 

        </g> 

    </g> 

    <g > 

        <g class="illustration-primary" fill="#2157AA"> 

            <path class="cls-3" d="M62.61,98.56l.93-10.73a1.5,1.5,0,1,0-3-.26l-.93,10.8s0,.08,0,.13c0,4.42-8.7,7.19-13.91,8.84-1.35.43-2.52.8-3.44,1.15a38.39,38.39,0,0,0-9.82,5.39c-9,7-14,16.7-14,27.32v16.37a1.5,1.5,0,0,0,3,0V141.2c0-9.67,4.56-18.53,12.84-24.95a35.56,35.56,0,0,1,9.06-5c.84-.32,2-.68,3.27-1.09C53,108.18,62.55,105.14,62.61,98.56Z" /> 

            <path class="cls-3" d="M43.08,143.91a1.5,1.5,0,0,0-1.5,1.5v12.16a1.5,1.5,0,0,0,3,0V145.41A1.5,1.5,0,0,0,43.08,143.91Z" /> 

            <path class="cls-3" d="M119,143.91a1.5,1.5,0,0,0-1.5,1.5v12.16a1.5,1.5,0,0,0,3,0V145.41A1.5,1.5,0,0,0,119,143.91Z" /> 

            <path class="cls-3" d="M129.9,113.88a38.39,38.39,0,0,0-9.82-5.39c-.92-.35-2.09-.72-3.44-1.15-5.21-1.65-13.91-4.42-13.91-8.84,0-.06,0-.11,0-.17l-1.06-9.67a1.5,1.5,0,0,0-3,.32l1,9.6c.08,6.57,9.65,9.6,16,11.62,1.3.41,2.43.77,3.27,1.09a35.39,35.39,0,0,1,9.06,5c8.28,6.42,12.84,15.28,12.84,24.95v16.37a1.5,1.5,0,0,0,3,0V141.2C143.9,130.58,138.93,120.88,129.9,113.88Z" /> 

            <path class="cls-3" d="M79.72,109.34c-12.37,0-16.65-3.49-16.75-3.57A1.5,1.5,0,0,0,61,108c.19.18,5,4.34,18.75,4.34s19.1-4.45,19.32-4.64a1.5,1.5,0,0,0-2-2.28S92.23,109.34,79.72,109.34Z" /> 

            <path class="cls-3" d="M104.4,109.31a1.5,1.5,0,0,0-2.05.54c-3.56,6.13-14.38,22-21.57,22s-18.45-15.24-22.16-21.11a1.5,1.5,0,1,0-2.54,1.6c1.46,2.31,14.52,22.51,24.7,22.51s22.76-21.1,24.16-23.51A1.49,1.49,0,0,0,104.4,109.31Z" /> 

            <path class="cls-3" d="M37.79,48.31a8.6,8.6,0,0,0-3.5,7.37c.13,3,1,7.41,3,10l.07.11c1.71,2.26,4.29,5.69,7.37,6.28a14.44,14.44,0,0,0,2.75.27q.49,0,1,0s0,.11,0,.17a7.15,7.15,0,0,1,.23,3.3,7.29,7.29,0,0,0-2.74,5c-.68,4,.44,6.75,3,7.4l.18,0a3.22,3.22,0,0,0,.76.08,4.75,4.75,0,0,0,3.8-2.1,9.38,9.38,0,0,0,1.36-4c.62-4-1.15-6.48-3.29-7a10,10,0,0,0-.39-3.4v-.06a13.11,13.11,0,0,0,1.59-.67c.56.91,1.16,1.83,1.83,2.82C59.59,81,64.3,85.77,69.59,88.81a26.16,26.16,0,0,0,12.94,3.61,20.35,20.35,0,0,0,8.26-1.69C99.23,87,103,78.06,104.66,71.27a7.45,7.45,0,0,0,3,1.5,22,22,0,0,1-.14,3,7.18,7.18,0,0,0-2.73,5c-.69,4,.44,6.75,3,7.4l.17,0a3.22,3.22,0,0,0,.76.08,4.75,4.75,0,0,0,3.8-2.1,9.38,9.38,0,0,0,1.36-4c.62-4-1.16-6.49-3.3-7,.06-.74.09-1.49.08-2.24a18,18,0,0,0,6-2,9.56,9.56,0,0,0,5.22-6.7,7.47,7.47,0,0,0-1.66-6,10.41,10.41,0,0,0,.21-17.92l-.2-.11.18-.15c1.51-1.41,3.28-3.66,3.13-6.45a5.43,5.43,0,0,0-2.31-4,5,5,0,0,0-.58-.35,9,9,0,0,0,1-3.89A8.62,8.62,0,0,0,119.29,19,8.79,8.79,0,0,0,113,16.48h0a9.52,9.52,0,0,0-3.34.62,12.09,12.09,0,0,0-4.12-8.16c-2.6-2.31-6.19-3.84-11-4.66-4.56-.79-10.86-1-15.72,2.3a8.68,8.68,0,0,0-2.29-1.4,8.09,8.09,0,0,0-6.35,0,11.16,11.16,0,0,0-11.36-3.9A11,11,0,0,0,51,10,13.77,13.77,0,0,0,39.58,14.3,10.23,10.23,0,0,0,38.4,26.16c-3.71,2.34-5.32,7.12-5,11.16S35.75,45.08,37.79,48.31Zm14.27,33.4a6.69,6.69,0,0,1-.86,2.77,1.66,1.66,0,0,1-1.52.79c-1-.25-1.09-2.24-.79-4C49.3,78.91,50.38,78,51,78.09S52.42,79.39,52.06,81.71ZM89.57,88c-5.35,2.38-12.44,1.7-18.48-1.78-4.88-2.81-9.28-7.26-13.85-14-.68-1-1.27-1.93-1.84-2.85a9.11,9.11,0,0,0,1.1-1.15,11.16,11.16,0,0,0,3.27-7A29.66,29.66,0,0,0,59.48,54a1.29,1.29,0,0,0,0-.21c.19-.18.39-.35.58-.54a23.82,23.82,0,0,0,6.05-11.06,7.48,7.48,0,0,0,6.12-.43,4.25,4.25,0,0,0,1.93,1.62,4.34,4.34,0,0,0,2.8.13,9.1,9.1,0,0,0,1.87,3.28A6.14,6.14,0,0,0,85,48.72a4.7,4.7,0,0,0,2-1.27,12.52,12.52,0,0,0,9.24,5.12c.21,0,.43,0,.65,0a12.49,12.49,0,0,0,6.38-1.82,70.62,70.62,0,0,1-.77,16.17C101.48,73.1,98.45,84,89.57,88Zm16.93-30.5a3,3,0,0,1,3-.85,2.94,2.94,0,0,1,1.68,1.89,8.27,8.27,0,0,1-1.2,5.54A8.84,8.84,0,0,1,106,67.38a2.48,2.48,0,0,1-.53.18l-.07,0s0-.06,0-.09a75.8,75.8,0,0,0,.94-9.86Zm4.36,24.22a6.83,6.83,0,0,1-.85,2.77,1.68,1.68,0,0,1-1.52.79c-1-.25-1.1-2.24-.8-4,.41-2.37,1.5-3.29,2.12-3.19S111.23,79.39,110.86,81.71ZM41.24,28.1a1.5,1.5,0,0,0,.54-2.5c-2.36-2.24-2.33-6.6,0-9.32,2.25-2.56,6.28-3.77,10.26-3.08a1.54,1.54,0,0,0,1.24-.34,1.51,1.51,0,0,0,.52-1.17,8,8,0,0,1,5.79-7.53A8.13,8.13,0,0,1,68.47,7.9a1.46,1.46,0,0,0,1,.74,1.48,1.48,0,0,0,1.22-.29A4.75,4.75,0,0,1,75.45,8a4.62,4.62,0,0,1,3,3.47,1.5,1.5,0,1,0,3-.37,6.45,6.45,0,0,0-.67-2.13c4-2.58,9.38-2.38,13.32-1.7,4.2.73,7.3,2,9.48,3.95s3.87,5.26,2.83,8.4a1.5,1.5,0,0,0,2.5,1.52A5.82,5.82,0,0,1,113,19.48h0a5.8,5.8,0,0,1,4.12,1.6,5.84,5.84,0,0,1-.26,8.07,1.5,1.5,0,0,0,1.44,2.55,1.34,1.34,0,0,1,1.16.26,2.42,2.42,0,0,1,1,1.74c.1,1.71-1.32,3.3-2.17,4.09-.58.53-1.21,1-1.87,1.55a23.05,23.05,0,0,0-2.86,2.51,1.5,1.5,0,0,0,.09,2.12,1.48,1.48,0,0,0,2.11-.09,16.45,16.45,0,0,1,1.85-1.65h0l1.16.56a7.45,7.45,0,0,1-2,13.56,1.5,1.5,0,0,0-.19,2.82,4.23,4.23,0,0,1,2.21,4.51,6.63,6.63,0,0,1-3.63,4.53,14.79,14.79,0,0,1-4.88,1.72q-.11-.8-.27-1.59a10.74,10.74,0,0,0,2.42-2.72,11.28,11.28,0,0,0,1.63-7.37.57.57,0,0,0,0-.13,5.89,5.89,0,0,0-3.58-4.29,5.39,5.39,0,0,0-4.17.19c0-1.71-.12-3.42-.28-5.13a1.24,1.24,0,0,0-.09-.38A11.53,11.53,0,0,0,108.28,45a2.45,2.45,0,0,0-.08-2.38,2,2,0,0,0-2.31-.74,1.76,1.76,0,0,0-1.19,1.86,1.48,1.48,0,0,0,.44.9,9.27,9.27,0,0,1-16.9-1.19,3.94,3.94,0,0,0-.27-.82,1.5,1.5,0,0,0-2.81,1c0,.18.1.36.16.53a1.26,1.26,0,0,1-.13.63,1.87,1.87,0,0,1-1.09,1A3.28,3.28,0,0,1,81,44.75a7.68,7.68,0,0,1-1.65-3.86,1.48,1.48,0,0,0-1.1-1.18,1.5,1.5,0,0,0-1.54.5,1.37,1.37,0,0,1-1.46.37,1.26,1.26,0,0,1-.75-1.24,1.51,1.51,0,0,0-.91-1.54,1.48,1.48,0,0,0-1.73.42,4.39,4.39,0,0,1-5.48.78,1.11,1.11,0,0,0-.29-.14,1.8,1.8,0,0,0-.8-.72,1.69,1.69,0,0,0-2.05.53,1.5,1.5,0,0,0,.13,2A21.3,21.3,0,0,1,57.89,51.1a13.94,13.94,0,0,1-7.66,3.67,1.5,1.5,0,0,0,.24,3l.25,0a18.17,18.17,0,0,0,6-2,22.84,22.84,0,0,1,.12,5.15,8.14,8.14,0,0,1-2.39,5.18,1.65,1.65,0,0,0-.22.24c-.12.17-3,4-8.93,2.85-2-.38-4.2-3.36-5.54-5.15l-.08-.1c-1.45-1.92-2.23-5.68-2.34-8.35-.08-2,1-4.53,3.12-5.2a1.49,1.49,0,0,0,.81-2.25C39,44.69,36.78,41,36.43,37.05,36.12,33.64,37.71,29.34,41.24,28.1Z" /> 

        </g> 

    </g> 

</svg> 