<svg xmlns="http://www.w3.org/2000/svg" viewBox="0 0 160 160"> 

 

    <g > 

        <g class="illustration-shape" fill="#C8D9EE"> 

            <path class="cls-1" d="M39.13,105.11c4-1.6,14.79-4.8,17.19-7.4s3.4-13.2,3.4-13.2l.4-7.19-3.4-4.2-5.2-6.2-4.6-1.2s-4.4-5.8-6.19-10,3-6.19,3-6.19L40.48,29.1a66.36,66.36,0,0,0-18.31,87.07l2.36-2.27S35.13,106.71,39.13,105.11Z" /> 

            <path class="cls-1" d="M112.94,25.39c1.59,6.08,2.76,18.51,2.76,19.54a18.66,18.66,0,0,1-1,4l2.2-.2,4.4,4.79-2.4,5s-3.6,5.4-7,7.4-3.6-.2-3.6-.2l-7.59,11.4,1,12s1.39,6,2.19,8.2,5.4,4.4,5.4,4.4,10.2,3.6,17.2,6c4.52,1.55,8.27,5.75,10.38,8.55a66.37,66.37,0,0,0-23.94-90.87Z" /> 

        </g> 

    </g> 

    <g > 

        <g class="illustration-secondary" fill="#B3CBE8"> 

            <path class="cls-2" d="M116.59,143h0a1.5,1.5,0,0,0-1.5,1.5l-.1,13.79a1.51,1.51,0,0,0,1.49,1.51h0a1.5,1.5,0,0,0,1.5-1.49l.1-13.8A1.51,1.51,0,0,0,116.59,143Z" /> 

            <path class="cls-2" d="M75.19,86.11C45.8,55.79,66.26,40.16,64.77,37.74s-4.09-26.6-4.09-26.6L57,15.05l-5.4-2.42-5,8.18L40.4,19V33.84l2.42,13.95-.19,2.42s-1.3,2-1.3,7.44,10.61,8.74,10.61,8.74L59,76.07S72.22,85,75.19,86.11Z" /> 

            <path class="cls-2" d="M59,76.07c-.54-.76.71,7,.71,7S54,81.46,67.94,88.35c13.59,6.71,26.36-1.22,29.33-3.82a5.72,5.72,0,0,0,1.92-5.86c-9.49,8.38-18.28,8.07-24,7.44S59.94,77.37,59,76.07Z" /> 

            <path class="cls-2" d="M14,157.93a14.53,14.53,0,0,0,11.72-.56s-.18-16.56,2.24-30.88,21.21-24,21.21-24c-7.11-.07-19.17,6.69-26,12.83S11.94,145.28,14,157.93Z" /> 

            <path class="cls-2" d="M85.92,113.56c-3.21,0-3.22,5,0,5S89.15,113.56,85.92,113.56Z" /> 

            <path class="cls-2" d="M86.57,128.84c-3.22,0-3.22,5,0,5S89.79,128.84,86.57,128.84Z" /> 

            <path class="cls-2" d="M86.57,142.43c-3.22,0-3.22,5,0,5S89.79,142.43,86.57,142.43Z" /> 

            <path class="cls-2" d="M101.61,99.93c-18.56,13.41-43.42-.26-43.67-.4a1.39,1.39,0,0,0-1.93.62,1.53,1.53,0,0,0,.59,2,59.08,59.08,0,0,0,15.65,5.6,49,49,0,0,0,10,1.07,35.18,35.18,0,0,0,21-6.43,1.55,1.55,0,0,0,.37-2.09A1.38,1.38,0,0,0,101.61,99.93Z" /> 

        </g> 

    </g> 

    <g > 

        <g class="illustration-primary"  fill="#2157AA"> 

            <path class="cls-3" d="M59.29,93.35l1.9-10a1.5,1.5,0,0,0-2.95-.56L56.31,92.91a2.45,2.45,0,0,0,0,.27c0,5-9.36,7.94-14.93,9.72-1.44.46-2.68.85-3.66,1.24A40.53,40.53,0,0,0,27.24,110c-9.6,7.57-14.93,18.11-15,29.68l-.12,17.92a1.5,1.5,0,0,0,1.49,1.51h0a1.51,1.51,0,0,0,1.5-1.49l.12-17.92c.07-10.64,5-20.35,13.87-27.34a37.32,37.32,0,0,1,9.69-5.38c.89-.35,2.09-.73,3.49-1.17C49,103.61,59.1,100.38,59.29,93.35Z" /> 

            <path class="cls-3" d="M43.31,142.45h0a1.51,1.51,0,0,0-1.5,1.49l-.09,13.8a1.49,1.49,0,0,0,1.49,1.51h0a1.5,1.5,0,0,0,1.5-1.49L44.8,144A1.5,1.5,0,0,0,43.31,142.45Z" /> 

            <path class="cls-3" d="M119,143h0a1.51,1.51,0,0,0-1.5,1.49l-.09,13.8a1.49,1.49,0,0,0,1.49,1.51h0a1.5,1.5,0,0,0,1.5-1.49l.09-13.8A1.5,1.5,0,0,0,119,143Z" /> 

            <path class="cls-3" d="M132.89,110.66a40,40,0,0,0-10.38-6c-1-.4-2.21-.81-3.64-1.29-5.55-1.85-14.83-5-14.79-9.92,0,0,0-.1,0-.16l-1-10.6a1.51,1.51,0,0,0-1.64-1.34A1.49,1.49,0,0,0,100,83l1,10.53c0,7.08,10.14,10.45,16.84,12.69,1.38.47,2.58.87,3.47,1.23A37,37,0,0,1,131,113c8.78,7.1,13.58,16.88,13.51,27.52l-.12,17.91a1.49,1.49,0,0,0,1.49,1.51h0a1.5,1.5,0,0,0,1.5-1.49l.12-17.91C147.59,129,142.4,118.36,132.89,110.66Z" /> 

            <path class="cls-3" d="M102.88,101.63c-19.51,13.41-45.66-.26-45.92-.4a1.5,1.5,0,1,0-1.42,2.65A64.79,64.79,0,0,0,72,109.47a54.14,54.14,0,0,0,10.53,1.07,38.38,38.38,0,0,0,22-6.43A1.5,1.5,0,0,0,105,102,1.52,1.52,0,0,0,102.88,101.63Z" /> 

            <path class="cls-3" d="M42.34,48.29a7.1,7.1,0,0,0-3.24,4.92c-.49,3.66,2,6.9,3.55,8.84,2.23,2.85,4.92,5.9,8.78,6.11h.08a1.51,1.51,0,0,0,.48-.09C58.16,79.8,71.6,88.24,80.91,88.24S103.18,79.84,109,67.9a1.45,1.45,0,0,0,.82.26h.08c3.86-.21,6.56-3.26,8.78-6.11,2-2.51,4-5.46,3.55-8.84a7.05,7.05,0,0,0-5-5.71l-.2,0a1.15,1.15,0,0,1,0-.2,74.47,74.47,0,0,0-7.5-35.73,1.71,1.71,0,0,0-.13-.23l-4-5.5a1.44,1.44,0,0,0-1-.6,1.51,1.51,0,0,0-1.14.33A26.91,26.91,0,0,1,97,9.39l-1.15-3.8a2.73,2.73,0,0,0-1.86-2,2.7,2.7,0,0,0-2.22.6L85.62,8.62l-.15.1-.09-.17a10.26,10.26,0,0,0-4.85-4.86,5.22,5.22,0,0,0-2.59-.59,6.09,6.09,0,0,0-2.34.79l-3,1.57-1.14-3.1A2.89,2.89,0,0,0,70.38.88c-.4-.27-1.86-1-3.64.81A89.91,89.91,0,0,0,57.42,13l-3.26-2A2.67,2.67,0,0,0,52,10.54a2.64,2.64,0,0,0-1.37,1.1,45.65,45.65,0,0,0-4,6.89,10.91,10.91,0,0,1-4.14-2.24,1.5,1.5,0,0,0-2.3.41l-.34.19a3.25,3.25,0,0,0-1.16,2.32c-.67,8.65,1,17.19,2.59,25.44A16.71,16.71,0,0,0,42.34,48.29ZM45,60.2c-1.66-2.12-3.25-4.37-2.94-6.58A4,4,0,0,1,44.9,50.4a4.06,4.06,0,0,1,3.78,1v3.94A26.3,26.3,0,0,0,50.57,65C48.42,64.35,46.59,62.22,45,60.2Zm35.89,25c-11,0-29.23-14-29.23-29.89V51.13c.87-1.5,1.9-3.24,2.93-5s2.25-3.79,3.17-5.38a2.86,2.86,0,0,1,.59-.83,3.29,3.29,0,0,1,1.43-.24,62.36,62.36,0,0,0,27.12-7.5l1.14,1c3.64,3.31,11.09,10.07,20.52,12.47a30.85,30.85,0,0,1,.42,5.09v4.58C109,71.56,91.75,85.24,80.91,85.24Zm38.34-31.62c.3,2.21-1.29,4.46-2.94,6.58s-3.72,4.49-6.11,4.88a27.67,27.67,0,0,0,1.8-9.73V52a1.56,1.56,0,0,0,.36-.32,3.89,3.89,0,0,1,6.89,1.9ZM48,21.44a2.74,2.74,0,0,0,1.36-1.5,42.11,42.11,0,0,1,3.52-6.25l4.2,2.58a1.5,1.5,0,0,0,2-.44,86.22,86.22,0,0,1,9.7-11.94l1.65,4.46a1.49,1.49,0,0,0,.81.86,1.57,1.57,0,0,0,1,.22,1.49,1.49,0,0,0,1.27-1.07L77,6.56a3.75,3.75,0,0,1,1.18-.47,2.38,2.38,0,0,1,1.08.3A7.46,7.46,0,0,1,82.7,9.9a3.21,3.21,0,0,0,1.69,1.82,3.19,3.19,0,0,0,3-.67l5.76-4.17,1.18,3.88a2.33,2.33,0,0,0,3.46,1.59,29.71,29.71,0,0,0,6.08-3.52l3,4.15A71.5,71.5,0,0,1,114,47.14a2.16,2.16,0,0,0-.17.34,7.11,7.11,0,0,0-2,.78,34.14,34.14,0,0,0-.53-4.06v0h0s0,0,0,0a.86.86,0,0,0-.06-.23s-.05-.08-.07-.13l-.07-.13-.1-.12-.08-.1-.12-.1-.1-.09-.16-.09-.09,0a1.71,1.71,0,0,0-.3-.09c-9.12-2-16.27-8.51-20.12-12-.87-.79-1.55-1.42-2.08-1.82a1.5,1.5,0,0,0-1.65-.11,59.11,59.11,0,0,1-26.67,7.62,5.43,5.43,0,0,0-3.06.8,5.28,5.28,0,0,0-1.44,1.78c-.91,1.57-2,3.46-3.15,5.34l-2.27,3.84a7.15,7.15,0,0,0-4.32-1.15,1.62,1.62,0,0,0-.36-.21,14.31,14.31,0,0,1-.81-3C42.71,36,41.09,27.69,41.73,19.45h0a13.91,13.91,0,0,0,4.46,2.05A2.69,2.69,0,0,0,48,21.44Z" /> 

            <path class="cls-3" d="M87.2,113.42c-3.22,0-3.22,5,0,5S90.42,113.42,87.2,113.42Z" /> 

            <path class="cls-3" d="M80.57,113.48a1.5,1.5,0,0,0-1.5,1.5v31.83a1.5,1.5,0,0,0,3,0V115A1.5,1.5,0,0,0,80.57,113.48Z" /> 

            <path class="cls-3" d="M87.85,128.7c-3.22,0-3.23,5,0,5S91.07,128.7,87.85,128.7Z" /> 

            <path class="cls-3" d="M87.85,142.28c-3.22,0-3.23,5,0,5S91.07,142.28,87.85,142.28Z" /> 

        </g> 

    </g> 

</svg> 