<svg width="160px" height="160px" viewBox="0 0 160 160" version="1.1" 

    xmlns="http://www.w3.org/2000/svg" 

    xmlns:xlink="http://www.w3.org/1999/xlink"> 

    <!-- Generator: Sketch 58 (84663) - https://sketch.com --> 

    <title>Illustration / CTA Standard / Feature / Planning BGABlue</title> 

    <desc>Created with Sketch.</desc> 

    <g class="Illustration-/-CTA-Standard-/-Feature-/-Planning-BGABlue" stroke="none" stroke-width="1" fill="none" fill-rule="evenodd"> 

        <ellipse class="illustration-shape" fill="#C8D9EE" cx="80.5" cy="80" rx="67.5" ry="68"></ellipse> 

        <path d="M64.1152,67.0295 L64.1152,156.3425 L14.2912,156.3425 L2.7532,144.6685 L2.7532,67.0295 L64.1152,67.0295 Z M156.5886,67.0298 L156.5886,143.7068 L144.0896,156.2058 L74.2506,156.2058 L74.2506,67.0298 L156.5886,67.0298 Z M154.1205,2.4993 L154.1205,47.7213 L144.5,57.5 L144.058376,57.4994233 C140.632092,57.4921947 124.820828,57.4170172 96.6245851,57.2738909 L95.7205,57.2693 L95.7205,2.4993 L154.1205,2.4993 Z M85.092,2.4999 L85.092,43.5369 L71.5,57 L2.754,56.9979 L2.754,2.4999 L85.092,2.4999 Z" class="illustration-fill" fill="#EDEEF1" ></path> 

        <path d="M158.2399,140.7333 L158.2399,146.1133 C158.2399,146.848467 157.971851,147.556744 157.490442,148.10642 L157.3539,148.2523 L146.7989,158.8073 C146.22965,159.37655 145.473018,159.718085 144.673812,159.771054 L144.4549,159.7783 L74.1469,159.7783 C73.3091778,159.7783 72.6213074,159.13697 72.5474629,158.318483 L72.5409,158.1723 L72.5409,155.3943 L142.6779,155.3943 L158.2399,140.7333 Z M0.9997,141.4444 L15.8077,155.3944 L65.8247,155.3944 L65.8247,158.1724 C65.8247,159.0594 65.1057,159.7784 64.2187,159.7784 L64.2187,159.7784 L14.0307,159.7784 C13.1517,159.7784 12.3087,159.4284 11.6867,158.8074 L11.6867,158.8074 L2.0287,149.1224 C1.3697,148.4624 0.9997,147.5674 0.9997,146.6344 L0.9997,146.6344 L0.9997,141.4444 Z M49.9557,133.4177 C50.7841271,133.4177 51.4557,134.089273 51.4557,134.9177 C51.4557,135.697396 50.8608119,136.338149 50.10016,136.410833 L49.9557,136.4177 L13.9577,136.4177 C13.1292729,136.4177 12.4577,135.746127 12.4577,134.9177 C12.4577,134.138004 13.0525881,133.497251 13.81324,133.424567 L13.9577,133.4177 L49.9557,133.4177 Z M147.8428,130.2205 C148.671227,130.2205 149.3428,130.892073 149.3428,131.7205 C149.3428,132.500196 148.747912,133.140949 147.98726,133.213633 L147.8428,133.2205 L137.7868,133.2205 C136.958373,133.2205 136.2868,132.548927 136.2868,131.7205 C136.2868,130.940804 136.881688,130.300051 137.64234,130.227367 L137.7868,130.2205 L147.8428,130.2205 Z M43.3927,126.2205 C44.2211271,126.2205 44.8927,126.892073 44.8927,127.7205 C44.8927,128.500196 44.2978119,129.140949 43.53716,129.213633 L43.3927,129.2205 L13.9577,129.2205 C13.1292729,129.2205 12.4577,128.548927 12.4577,127.7205 C12.4577,126.940804 13.0525881,126.300051 13.81324,126.227367 L13.9577,126.2205 L43.3927,126.2205 Z M147.8428,123.4138 C148.671227,123.4138 149.3428,124.085373 149.3428,124.9138 C149.3428,125.693496 148.747912,126.334249 147.98726,126.406933 L147.8428,126.4138 L137.7868,126.4138 C136.958373,126.4138 136.2868,125.742227 136.2868,124.9138 C136.2868,124.134104 136.881688,123.493351 137.64234,123.420667 L137.7868,123.4138 L147.8428,123.4138 Z M47.8917,119.0222 C48.7201271,119.0222 49.3917,119.693773 49.3917,120.5222 C49.3917,121.301896 48.7968119,121.942649 48.03616,122.015333 L47.8917,122.0222 L13.9577,122.0222 C13.1292729,122.0222 12.4577,121.350627 12.4577,120.5222 C12.4577,119.742504 13.0525881,119.101751 13.81324,119.029067 L13.9577,119.0222 L47.8917,119.0222 Z M145.7958,116.6072 C146.624227,116.6072 147.2958,117.278773 147.2958,118.1072 C147.2958,118.886896 146.700912,119.527649 145.94026,119.600333 L145.7958,119.6072 L137.7868,119.6072 C136.958373,119.6072 136.2868,118.935627 136.2868,118.1072 C136.2868,117.327504 136.881688,116.686751 137.64234,116.614067 L137.7868,116.6072 L145.7958,116.6072 Z M45.6687,111.825 C46.4971271,111.825 47.1687,112.496573 47.1687,113.325 C47.1687,114.104696 46.5738119,114.745449 45.81316,114.818133 L45.6687,114.825 L13.9577,114.825 C13.1292729,114.825 12.4577,114.153427 12.4577,113.325 C12.4577,112.545304 13.0525881,111.904551 13.81324,111.831867 L13.9577,111.825 L45.6687,111.825 Z M149.1918,109.8005 C150.020227,109.8005 150.6918,110.472073 150.6918,111.3005 C150.6918,112.080196 150.096912,112.720949 149.33626,112.793633 L149.1918,112.8005 L137.7868,112.8005 C136.958373,112.8005 136.2868,112.128927 136.2868,111.3005 C136.2868,110.520804 136.881688,109.880051 137.64234,109.807367 L137.7868,109.8005 L149.1918,109.8005 Z M14.5393,93.4446 C17.3813,93.4446 19.6853,95.7486 19.6853,98.5906 C19.6853,101.4326 17.3813,103.7366 14.5393,103.7366 C11.6983,103.7366 9.3943,101.4326 9.3943,98.5906 C9.3943,95.7486 11.6983,93.4446 14.5393,93.4446 Z M93.948,91.7449 C94.7276961,91.7449 95.3684487,92.3397881 95.4411334,93.10044 L95.448,93.2449 L95.448,101.1399 C95.448,101.968327 94.7764271,102.6399 93.948,102.6399 C93.1683039,102.6399 92.5275513,102.045012 92.4548666,101.28436 L92.448,101.1399 L92.448,93.2449 C92.448,92.4164729 93.1195729,91.7449 93.948,91.7449 Z M102.6521,88.9558 C103.431796,88.9558 104.072549,89.5506881 104.145233,90.31134 L104.1521,90.4558 L104.1521,101.1398 C104.1521,101.968227 103.480527,102.6398 102.6521,102.6398 C101.872404,102.6398 101.231651,102.044912 101.158967,101.28426 L101.1521,101.1398 L101.1521,90.4558 C101.1521,89.6273729 101.823673,88.9558 102.6521,88.9558 Z M111.3562,86.7917 C112.135896,86.7917 112.776649,87.3865881 112.849333,88.14724 L112.8562,88.2917 L112.8562,101.1397 C112.8562,101.968127 112.184627,102.6397 111.3562,102.6397 C110.576504,102.6397 109.935751,102.044812 109.863067,101.28416 L109.8562,101.1397 L109.8562,88.2917 C109.8562,87.4632729 110.527773,86.7917 111.3562,86.7917 Z M120.0608,80.5896 C120.840496,80.5896 121.481249,81.1844881 121.553933,81.94514 L121.5608,82.0896 L121.5608,101.1396 C121.5608,101.968027 120.889227,102.6396 120.0608,102.6396 C119.281104,102.6396 118.640351,102.044712 118.567667,101.28406 L118.5608,101.1396 L118.5608,82.0896 C118.5608,81.2611729 119.232373,80.5896 120.0608,80.5896 Z M128.7649,78.1384 C129.544596,78.1384 130.185349,78.7332881 130.258033,79.49394 L130.2649,79.6384 L130.2649,101.1394 C130.2649,101.967827 129.593327,102.6394 128.7649,102.6394 C127.985204,102.6394 127.344451,102.044512 127.271767,101.28386 L127.2649,101.1394 L127.2649,79.6384 C127.2649,78.8099729 127.936473,78.1384 128.7649,78.1384 Z M137.469,77.1892 C138.248696,77.1892 138.889449,77.7840881 138.962133,78.54474 L138.969,78.6892 L138.969,101.1392 C138.969,101.967627 138.297427,102.6392 137.469,102.6392 C136.689304,102.6392 136.048551,102.044312 135.975867,101.28366 L135.969,101.1392 L135.969,78.6892 C135.969,77.8607729 136.640573,77.1892 137.469,77.1892 Z M146.1731,75.0125 C146.952796,75.0125 147.593549,75.6073881 147.666233,76.36804 L147.6731,76.5125 L147.6731,101.1395 C147.6731,101.967927 147.001527,102.6395 146.1731,102.6395 C145.393404,102.6395 144.752651,102.044612 144.679967,101.28396 L144.6731,101.1395 L144.6731,76.5125 C144.6731,75.6840729 145.344673,75.0125 146.1731,75.0125 Z M39.7317,86.8821 C42.5737,86.8821 44.8777,89.1861 44.8777,92.0281 C44.8777,94.8701 42.5737,97.1731 39.7317,97.1731 C36.8907,97.1731 34.5867,94.8701 34.5867,92.0281 C34.5867,89.1861 36.8907,86.8821 39.7317,86.8821 Z M26.174,81.7366 C29.016,81.7366 31.32,84.0406 31.32,86.8826 C31.32,89.7246 29.016,92.0286 26.174,92.0286 C23.333,92.0286 21.029,89.7246 21.029,86.8826 C21.029,84.0406 23.333,81.7366 26.174,81.7366 Z M52.3278,73.5413 C55.1698,73.5413 57.4738,75.8453 57.4738,78.6873 C57.4738,81.5293 55.1698,83.8333 52.3278,83.8333 C49.4868,83.8333 47.1828,81.5293 47.1828,78.6873 C47.1828,75.8453 49.4868,73.5413 52.3278,73.5413 Z M86.8822,40.4806 L86.8822,45.7046 C86.8822,46.4975167 86.5931444,47.2618639 86.0735727,47.8551446 L85.9262,48.0126 L74.3932,59.5456 C73.8230333,60.1157667 73.066325,60.4573778 72.2663424,60.5103535 L72.0472,60.5176 L2.6592,60.5176 C1.82147778,60.5176 1.13360741,59.8753778 1.05976293,59.0567922 L1.0532,58.9106 L1.0532,56.1306 L71.2312,56.1306 L86.8822,40.4806 Z M155.7789,46.0961 L155.7789,49.8571 C155.7789,50.4169 155.57883,50.95726 155.217327,51.380494 L155.0909,51.5171 L146.7909,59.8181 C146.3877,60.2204 145.85571,60.46475 145.291158,60.509597 L145.1019,60.5171 L95.1629,60.5171 C94.5674333,60.5171 94.0765,60.0667356 94.0136887,59.4871563 L94.0069,59.3611 L94.0069,57.3601 L144.5149,57.3601 L155.7789,46.0961 Z M137.469,46.0359 C138.297427,46.0359 138.969,46.7074729 138.969,47.5359 C138.969,48.3155961 138.374112,48.9563487 137.61346,49.0290334 L137.469,49.0359 L103.552,49.0359 C102.723573,49.0359 102.052,48.3643271 102.052,47.5359 C102.052,46.7562039 102.646888,46.1154513 103.40754,46.0427666 L103.552,46.0359 L137.469,46.0359 Z M144.823,39.2292 C145.651427,39.2292 146.323,39.9007729 146.323,40.7292 C146.323,41.5088961 145.728112,42.1496487 144.96746,42.2223334 L144.823,42.2292 L103.552,42.2292 C102.723573,42.2292 102.052,41.5576271 102.052,40.7292 C102.052,39.9495039 102.646888,39.3087513 103.40754,39.2360666 L103.552,39.2292 L144.823,39.2292 Z M21.1643,24.7106 C21.9439961,24.7106 22.5847487,25.3054881 22.6574334,26.06614 L22.6643,26.2106 L22.6643,39.5476 C22.6643,40.3760271 21.9927271,41.0476 21.1643,41.0476 C20.3846039,41.0476 19.7438513,40.4527119 19.6711666,39.69206 L19.6643,39.5476 L19.6643,26.2106 C19.6643,25.3821729 20.3358729,24.7106 21.1643,24.7106 Z M28.5739,16.3486 C29.3535961,16.3486 29.9943487,16.9434881 30.0670334,17.70414 L30.0739,17.8486 L30.0739,39.5476 C30.0739,40.3760271 29.4023271,41.0476 28.5739,41.0476 C27.7942039,41.0476 27.1534513,40.4527119 27.0807666,39.69206 L27.0739,39.5476 L27.0739,17.8486 C27.0739,17.0201729 27.7454729,16.3486 28.5739,16.3486 Z M35.9836,29.6856 C36.7632961,29.6856 37.4040487,30.2804881 37.4767334,31.04114 L37.4836,31.1856 L37.4836,39.5476 C37.4836,40.3760271 36.8120271,41.0476 35.9836,41.0476 C35.2039039,41.0476 34.5631513,40.4527119 34.4904666,39.69206 L34.4836,39.5476 L34.4836,31.1856 C34.4836,30.3571729 35.1551729,29.6856 35.9836,29.6856 Z M43.3928,24.7106 C44.1724961,24.7106 44.8132487,25.3054881 44.8859334,26.06614 L44.8928,26.2106 L44.8928,39.5476 C44.8928,40.3760271 44.2212271,41.0476 43.3928,41.0476 C42.6131039,41.0476 41.9723513,40.4527119 41.8996666,39.69206 L41.8928,39.5476 L41.8928,26.2106 C41.8928,25.3821729 42.5643729,24.7106 43.3928,24.7106 Z M50.8025,16.0306 C51.5821961,16.0306 52.2229487,16.6254881 52.2956334,17.38614 L52.3025,17.5306 L52.3025,39.5476 C52.3025,40.3760271 51.6309271,41.0476 50.8025,41.0476 C50.0228039,41.0476 49.3820513,40.4527119 49.3093666,39.69206 L49.3025,39.5476 L49.3025,17.5306 C49.3025,16.7021729 49.9740729,16.0306 50.8025,16.0306 Z M58.2116,24.7106 C58.9912961,24.7106 59.6320487,25.3054881 59.7047334,26.06614 L59.7116,26.2106 L59.7116,39.5476 C59.7116,40.3760271 59.0400271,41.0476 58.2116,41.0476 C57.4319039,41.0476 56.7911513,40.4527119 56.7184666,39.69206 L56.7116,39.5476 L56.7116,26.2106 C56.7116,25.3821729 57.3831729,24.7106 58.2116,24.7106 Z M65.6213,20.3266 C66.4009961,20.3266 67.0417487,20.9214881 67.1144334,21.68214 L67.1213,21.8266 L67.1213,39.5476 C67.1213,40.3760271 66.4497271,41.0476 65.6213,41.0476 C64.8416039,41.0476 64.2008513,40.4527119 64.1281666,39.69206 L64.1213,39.5476 L64.1213,21.8266 C64.1213,20.9981729 64.7928729,20.3266 65.6213,20.3266 Z M144.8238,32.4226 C145.652227,32.4226 146.3238,33.0941729 146.3238,33.9226 C146.3238,34.7022961 145.728912,35.3430487 144.96826,35.4157334 L144.8238,35.4226 L134.7678,35.4226 C133.939373,35.4226 133.2678,34.7510271 133.2678,33.9226 C133.2678,33.1429039 133.862688,32.5021513 134.62334,32.4294666 L134.7678,32.4226 L144.8238,32.4226 Z M114.2824,12.4763 L114.2824,23.2003 L121.8634,30.7813 C121.8634,30.7813 106.8234,41.0803 103.5594,23.2003 C103.5594,23.2003 102.8964,13.1393 114.2824,12.4763 Z M144.8238,25.616 C145.652227,25.616 146.3238,26.2875729 146.3238,27.116 C146.3238,27.8956961 145.728912,28.5364487 144.96826,28.6091334 L144.8238,28.616 L134.7678,28.616 C133.939373,28.616 133.2678,27.9444271 133.2678,27.116 C133.2678,26.3363039 133.862688,25.6955513 134.62334,25.6228666 L134.7678,25.616 L144.8238,25.616 Z M142.7768,18.8093 C143.605227,18.8093 144.2768,19.4808729 144.2768,20.3093 C144.2768,21.0889961 143.681912,21.7297487 142.92126,21.8024334 L142.7768,21.8093 L134.7678,21.8093 C133.939373,21.8093 133.2678,21.1377271 133.2678,20.3093 C133.2678,19.5296039 133.862688,18.8888513 134.62334,18.8161666 L134.7678,18.8093 L142.7768,18.8093 Z M146.1728,12.0027 C147.001227,12.0027 147.6728,12.6742729 147.6728,13.5027 C147.6728,14.2823961 147.077912,14.9231487 146.31726,14.9958334 L146.1728,15.0027 L134.7678,15.0027 C133.939373,15.0027 133.2678,14.3311271 133.2678,13.5027 C133.2678,12.7230039 133.862688,12.0822513 134.62334,12.0095666 L134.7678,12.0027 L146.1728,12.0027 Z" class="illustration-secondary" fill="#B3CBE8" ></path> 

        <path d="M64.1152,65.5295 C64.8948961,65.5295 65.5356487,66.1243881 65.6083334,66.88504 L65.6152,67.0295 L65.6152,156.3425 C65.6152,157.122196 65.0203119,157.762949 64.25966,157.835634 L64.1152,157.8425 L21.0212,157.8425 C20.1927729,157.8425 19.5212,157.170927 19.5212,156.3425 C19.5212,155.562804 20.1160881,154.922051 20.87674,154.849367 L21.0212,154.8425 L62.6152,154.8425 L62.6152,68.5295 L4.2532,68.5295 L4.2532,143.1683 L14.2916,143.1687 C15.0712961,143.1687 15.7120487,143.763588 15.7847334,144.52424 L15.7916,144.6687 L15.7916,156.3427 C15.7916,156.593317 15.7301383,156.829578 15.6214658,157.037234 C15.6182094,157.042709 15.6152132,157.048355 15.6121785,157.053984 C15.5920145,157.092034 15.5701726,157.128632 15.5468613,157.164181 C15.5388053,157.175903 15.5310749,157.187335 15.5231699,157.198683 C15.5047981,157.225629 15.4849585,157.25222 15.4642794,157.27811 C15.452717,157.291996 15.4416563,157.305338 15.4303292,157.318528 C15.410666,157.342055 15.3895692,157.365174 15.3677765,157.387615 L15.3456276,157.409356 L15.2612,157.4853 L15.2233246,157.517884 L15.2233246,157.517884 C15.0017779,157.694014 14.7300047,157.808336 14.4330879,157.836114 C14.4033715,157.83861 14.3743896,157.840488 14.3453842,157.841529 C14.3280719,157.842373 14.3098741,157.8427 14.2916,157.8427 C14.2407805,157.8427 14.1905513,157.840173 14.1410312,157.835237 L14.1026292,157.830665 L14.1026292,157.830665 C14.0688118,157.826657 14.0354606,157.8213 14.0024958,157.814864 C13.9851834,157.81123 13.9673946,157.807429 13.9496667,157.803302 C13.8744888,157.785986 13.8021571,157.763039 13.7324182,157.735004 C13.7077826,157.725075 13.6833337,157.714514 13.659124,157.703272 C13.6389927,157.693853 13.6194343,157.684211 13.6001221,157.67416 C13.5826163,157.665194 13.5647994,157.655486 13.5471445,157.645391 L13.4731687,157.599956 L13.4731687,157.599956 C13.4555784,157.58872 13.4381012,157.576796 13.4208279,157.564462 L13.3924197,157.543457 L13.3924197,157.543457 L13.364366,157.521864 C13.3551681,157.514849 13.3463832,157.507763 13.3376608,157.500564 L13.3022266,157.470175 C13.2826959,157.453022 13.2636145,157.435371 13.2450025,157.41724 L13.2243437,157.396928 L1.68634369,145.722928 L1.67414772,145.710231 L1.64061087,145.67433 L1.64061087,145.67433 L1.62828286,145.660754 L1.62828286,145.660754 L1.6742,145.7093 L1.6152,145.6453 L1.57409223,145.595711 L1.57409223,145.595711 C1.55531863,145.571613 1.53768236,145.547762 1.52075056,145.523384 C1.51242737,145.511547 1.50403159,145.499055 1.49583106,145.486449 C1.47502909,145.454397 1.45554427,145.421852 1.43728733,145.388538 C1.43284747,145.380372 1.42850552,145.372259 1.4242394,145.364108 C1.41006294,145.33716 1.39666245,145.30958 1.38409754,145.281545 C1.37599311,145.26322 1.36827552,145.24502 1.36092016,145.226673 C1.35484425,145.2118 1.34904045,145.196619 1.34347846,145.181323 C1.3008596,145.063831 1.27279099,144.941092 1.26042934,144.815636 L1.2532,144.6685 L1.2532,67.0295 C1.2532,66.2498039 1.84808808,65.6090513 2.60873999,65.5363666 L2.7532,65.5295 L64.1152,65.5295 Z M14.2224507,157.840931 C14.2440914,157.841919 14.26575,157.84244 14.2916,157.8427 L14.2916,157.8427 Z M156.5886,65.5298 C157.368296,65.5298 158.009049,66.1246881 158.081733,66.88534 L158.0886,67.0298 L158.0896,143.7068 C158.0896,144.063848 157.964851,144.39176 157.75656,144.649326 L157.739988,144.669461 L157.6622,144.7533 L157.702844,144.712148 C157.6902,144.72614 157.677296,144.739892 157.66414,144.753398 L145.15026,157.26646 C145.140947,157.275774 145.131541,157.284939 145.122047,157.293956 L145.099222,157.315167 L145.076032,157.335851 C145.054814,157.354464 145.033018,157.372469 145.010848,157.389764 C144.995381,157.401702 144.979854,157.413325 144.964098,157.424649 C144.942371,157.440414 144.920494,157.455273 144.898325,157.469491 C144.869188,157.488039 144.838809,157.506066 144.807765,157.523028 L144.795429,157.529792 L144.783236,157.536241 C144.748047,157.554521 144.71202,157.571559 144.675241,157.587171 C144.666978,157.590683 144.658549,157.594163 144.650096,157.597563 C144.575679,157.627555 144.49862,157.651667 144.419179,157.669477 C144.381207,157.677857 144.342908,157.684889 144.304436,157.690426 C144.25783,157.697213 144.210596,157.701749 144.162775,157.704046 C144.137921,157.70522 144.11376,157.7058 144.0896,157.7058 C144.016676,157.7058 143.944968,157.700596 143.874826,157.69054 C143.836292,157.684889 143.797993,157.677857 143.759962,157.669329 C143.68058,157.651667 143.603521,157.627555 143.529396,157.597693 C143.520651,157.594163 143.512222,157.590683 143.503819,157.587123 L143.449346,157.562686 L143.395946,157.536126 C143.387841,157.532003 143.379749,157.527686 143.371688,157.523289 C143.340391,157.506066 143.310012,157.488039 143.280348,157.468996 C143.258706,157.455273 143.236829,157.440414 143.21527,157.424913 C143.199346,157.413325 143.183819,157.401702 143.168528,157.38979 L143.097214,157.330648 L143.0572,157.2933 L143.0432,157.2803 L143.02894,157.26646 C143.021232,157.258752 143.013626,157.250982 143.006121,157.24315 C142.986413,157.222608 142.96626,157.200313 142.946782,157.177425 L142.914257,157.137994 C142.892672,157.110696 142.871803,157.082462 142.851925,157.053494 C142.844256,157.042547 142.836869,157.031472 142.829645,157.020321 C142.816203,156.999324 142.803212,156.978135 142.790741,156.956608 C142.754499,156.894216 142.723355,156.830009 142.697043,156.764316 C142.644775,156.634053 142.610313,156.495164 142.596467,156.35026 L142.5896,156.2058 L142.5896,143.7068 C142.5896,142.927104 143.184488,142.286351 143.94514,142.213667 L144.0896,142.2068 L155.0886,142.2063 L155.0886,68.5298 L75.7506,68.5298 L75.7506,154.7058 L137.3596,154.7058 C138.188027,154.7058 138.8596,155.377373 138.8596,156.2058 C138.8596,156.985496 138.264712,157.626249 137.50406,157.698933 L137.3596,157.7058 L74.2506,157.7058 C73.4709039,157.7058 72.8301513,157.110912 72.7574666,156.35026 L72.7506,156.2058 L72.7506,67.0298 C72.7506,66.2501039 73.3454881,65.6093513 74.10614,65.5366666 L74.2506,65.5298 L156.5886,65.5298 Z M15.2712,157.4773 L15.2492545,157.497263 L15.2492545,157.497263 L15.2612,157.4853 L15.2712,157.4773 Z M15.2892,157.4613 L15.2855947,157.465576 L15.2812,157.4683 L15.2892,157.4613 Z M15.3382,157.4163 L15.3293298,157.425808 L15.3092,157.4433 L15.3382,157.4163 Z M6.3442,146.1683 L12.7912,152.6913 L12.7916,146.1687 L6.3442,146.1683 Z M152.9676,145.2063 L145.5896,145.2068 L145.5886,152.5843 L152.9676,145.2063 Z M130.613,109.801 C131.392696,109.801 132.033449,110.395888 132.106133,111.15654 L132.113,111.301 L132.113,147.445 C132.113,148.224696 131.518112,148.865449 130.75746,148.938133 L130.613,148.945 L120.183,148.945 C119.403304,148.945 118.762551,148.350112 118.689867,147.58946 L118.683,147.445 L118.683,111.301 C118.683,110.521304 119.277888,109.880551 120.03854,109.807867 L120.183,109.801 L130.613,109.801 Z M111.946,123.017 C112.725696,123.017 113.366449,123.611888 113.439133,124.37254 L113.446,124.517 L113.446,147.444 C113.446,148.223696 112.851112,148.864449 112.09046,148.937133 L111.946,148.944 L101.516,148.944 C100.736304,148.944 100.095551,148.349112 100.022867,147.58846 L100.016,147.444 L100.016,124.517 C100.016,123.737304 100.610888,123.096551 101.37154,123.023867 L101.516,123.017 L111.946,123.017 Z M93.28,134.064 C94.0596961,134.064 94.7004487,134.658888 94.7731334,135.41954 L94.78,135.564 L94.78,147.444 C94.78,148.223696 94.1851119,148.864449 93.42446,148.937133 L93.28,148.944 L82.85,148.944 C82.0703039,148.944 81.4295513,148.349112 81.3568666,147.58846 L81.35,147.444 L81.35,135.564 C81.35,134.784304 81.9448881,134.143551 82.70554,134.070867 L82.85,134.064 L93.28,134.064 Z M129.113,112.801 L121.683,112.801 L121.683,145.945 L129.113,145.945 L129.113,112.801 Z M110.446,126.017 L103.016,126.017 L103.016,145.944 L110.446,145.944 L110.446,126.017 Z M91.78,137.064 L84.35,137.064 L84.35,145.944 L91.78,145.944 L91.78,137.064 Z M148.230039,75.0726166 C148.478442,75.811685 148.118688,76.6085747 147.420828,76.9198073 L147.286083,76.9723395 L136.331083,80.6543395 C136.22841,80.6888482 136.122454,80.7120833 136.015083,80.7237391 L135.8532,80.7325 L127.504704,80.7325 L117.773156,83.7261699 L113.031266,88.6941792 C112.850631,88.8834277 112.624308,89.0214713 112.375336,89.0958055 L112.223418,89.1326608 L103.837418,90.7096608 L103.718823,90.7270894 L97.9662104,91.3388498 L83.3296596,101.413105 C82.647254,101.8828 81.7132913,101.710365 81.2435955,101.02796 C80.8015288,100.385696 80.9282703,99.5205989 81.5136366,99.0294567 L81.6287404,98.9418955 L96.5787404,88.6518955 C96.743307,88.5386253 96.9284143,88.4596583 97.1230172,88.4190814 L97.2705772,88.3959106 L103.341931,87.7502537 L111.19449,86.273568 L115.873134,81.3718208 C116.014823,81.2233752 116.185073,81.1059824 116.373036,81.0263469 L116.517159,80.9738045 L126.838159,77.7988045 C126.933418,77.7695005 127.03124,77.7497998 127.130166,77.739922 L127.2792,77.7325 L135.607866,77.7325 L146.330317,74.1286605 C147.115577,73.8647328 147.966112,74.2873563 148.230039,75.0726166 Z M21.6405916,89.3179235 C22.1240963,90.2163295 22.8667601,90.9545602 23.7684189,91.4325081 L19.0747661,96.1572982 C18.6355193,95.3403154 17.9819749,94.6556571 17.189354,94.1785443 L16.9474707,94.041712 L21.6405916,89.3179235 Z M31.3086872,87.226546 L35.6627598,88.8785426 C35.0539486,89.664181 34.667523,90.6308769 34.5980127,91.684154 L30.2444293,90.0314323 C30.852982,89.2459243 31.2391977,88.2794991 31.3086872,87.226546 Z M42.0216969,87.4184674 L47.8582307,81.2376868 C48.3638452,82.1221153 49.1243038,82.8420648 50.0394457,83.297431 L44.2026522,89.478444 C43.6971824,88.594004 42.9368381,87.8739859 42.0216969,87.4184674 L47.8582307,81.2376868 Z M103.401577,87.7439106 L103.341931,87.7502537 L103.282982,87.7613392 L103.401577,87.7439106 Z M135.8532,77.7325 L135.607866,77.7325 L135.375317,77.8106605 L135.8532,77.7325 Z M154.1205,0.9993 C154.900196,0.9993 155.540949,1.59418808 155.613633,2.35483999 L155.6205,2.4993 L155.6196,47.7003 L155.6208,47.7214 C155.6208,47.9748831 155.557924,48.2136809 155.446918,48.4230479 C155.442277,48.4305178 155.438088,48.4382717 155.433829,48.4459899 C155.41606,48.4793292 155.396562,48.5116313 155.375911,48.5431096 C155.368245,48.5539652 155.360747,48.5650928 155.353096,48.5761253 C155.335223,48.6025894 155.316358,48.6279757 155.296728,48.6527277 L155.2486,48.7093 L155.2406,48.7183 L155.2006,48.7603 L155.23036,48.7308096 L155.202211,48.7608982 L155.181216,48.7819046 L145.634216,58.3299046 L145.61384,58.3499055 C145.592005,58.3713232 145.56903,58.39213 145.545425,58.4122184 L145.504653,58.4454698 C145.479737,58.4654646 145.45368,58.4847959 145.426993,58.5032837 C145.413891,58.5122066 145.401082,58.5207912 145.388172,58.5291572 C145.363598,58.5452155 145.338372,58.560526 145.312673,58.5750998 C145.294741,58.5851313 145.276618,58.5949112 145.258344,58.6042913 C145.234006,58.6169452 145.209502,58.6287007 145.18464,58.6397995 C145.167862,58.6470782 145.151015,58.6542167 145.134068,58.6610333 C144.960922,58.7310202 144.771843,58.7694 144.5738,58.7694 C144.426491,58.7694 144.284142,58.7481654 144.149646,58.7085903 C144.129147,58.7024615 144.107952,58.6957379 144.086885,58.6885322 C144.063012,58.6803995 144.040215,58.671932 144.017687,58.662934 C143.948969,58.6355886 143.881541,58.6027719 143.816373,58.5646221 L143.764548,58.5325961 C143.747515,58.5219231 143.730368,58.5104211 143.713412,58.4985273 C143.689059,58.4811784 143.665492,58.4635842 143.642472,58.4453284 L143.602175,58.4122184 L143.5392,58.3533 L143.5616,58.3763 L143.533285,58.3498319 L143.5202,58.3363 L143.512895,58.3300157 L143.492894,58.3096404 C143.471877,58.2876046 143.45107,58.2646301 143.430982,58.2410253 L143.39733,58.2004534 L143.339916,58.122593 C143.330593,58.1096908 143.322009,58.0968816 143.313643,58.083972 C143.297985,58.0591979 143.282674,58.033972 143.2681,58.0082733 L143.25291,57.9814117 L143.217154,57.9101578 C143.118291,57.7016439 143.070508,57.4747277 143.073645,57.2483855 L143.0738,47.7214 C143.0738,46.9417039 143.668688,46.3009513 144.42934,46.2282666 L144.5738,46.2214 L152.6196,46.2213 L152.6205,3.9993 L97.2205,3.9993 L97.2205,55.7693 L137.8435,55.7693 C138.671927,55.7693 139.3435,56.4408729 139.3435,57.2693 C139.3435,58.0489961 138.748612,58.6897487 137.98796,58.7624334 L137.8435,58.7693 L95.7205,58.7693 C94.9408039,58.7693 94.3000513,58.1744119 94.2273666,57.41376 L94.2205,57.2693 L94.2205,2.4993 C94.2205,1.71960388 94.8153881,1.07885132 95.57604,1.00616658 L95.7205,0.9993 L154.1205,0.9993 Z M85.092,0.9999 C85.8716961,0.9999 86.5124487,1.59478808 86.5851334,2.35543999 L86.592,2.4999 L86.5916,43.5368 C86.5916,43.7348428 86.5532202,43.9239215 86.4834927,44.0970041 C86.468692,44.1337904 86.4524205,44.1700362 86.4346586,44.2056896 C86.4298462,44.2160548 86.424839,44.2258096 86.4197289,44.2355017 C86.4104558,44.252481 86.4007924,44.2699921 86.3907525,44.2873451 C86.3779882,44.3091353 86.3649974,44.3303242 86.351504,44.3511572 L86.3294249,44.3844985 L86.2987397,44.4273902 L86.2863391,44.4445322 C86.2802796,44.4524935 86.2741423,44.4603924 86.2679284,44.4682277 L86.2667175,44.4691494 C86.2631082,44.4738171 86.2592042,44.4786652 86.2552656,44.4834945 L86.2344184,44.5084253 L86.2046984,44.5423088 L86.1994745,44.548596 L86.1739883,44.5752804 L86.1522996,44.5974208 L72.6922996,58.0584208 L72.6856,58.0643 L72.6436566,58.1049447 L72.6236,58.1223 L72.6226,58.1233 L72.5528919,58.1817301 C72.5373811,58.1937023 72.5218536,58.2053248 72.5060975,58.2166494 C72.4844173,58.2323821 72.4625409,58.2472422 72.4403721,58.2614608 C72.4111879,58.2800393 72.3808094,58.2980662 72.3497653,58.3150277 L72.3374721,58.3217692 L72.3252855,58.3282155 C72.2910166,58.3460143 72.2560032,58.3626197 72.2202771,58.3778784 L72.1921473,58.3895418 C72.1176788,58.4195546 72.0406197,58.4436669 71.961179,58.4614774 L71.889342,58.4756179 L71.7619153,58.4921994 L71.6316557,58.4978 L71.48714,58.4909334 L71.3739678,58.4756371 L71.3020165,58.4613411 C71.2225803,58.4436669 71.1455212,58.4195546 71.0713959,58.3896927 L71.0428325,58.3778535 L70.9898649,58.3539852 L70.913737,58.3153159 C70.8823906,58.2980662 70.8520121,58.2800393 70.8223482,58.2609961 C70.8007519,58.247304 70.7788745,58.2324455 70.7573157,58.2169454 C70.7413464,58.2053248 70.7258189,58.1937023 70.7105282,58.18179 C70.6868288,58.1634145 70.6636842,58.1442285 70.6409991,58.1242402 C70.6266517,58.1115735 70.6123072,58.0984535 70.5982227,58.0850628 L70.5709792,58.0584996 L70.5596,58.0463 L70.4887816,57.9694253 L70.4562917,57.9300378 C70.4346719,57.9026964 70.4138029,57.8744616 70.3939246,57.8454938 C70.3862875,57.8345935 70.3789,57.8235182 70.3716755,57.812368 C70.3582026,57.7913242 70.3452118,57.7701353 70.3327409,57.7486078 C70.272674,57.6450497 70.2262076,57.5360431 70.1931041,57.42393 C70.1664011,57.3339074 70.1479669,57.2403252 70.1386445,57.144072 L70.1316,56.9978 L70.1316,47.9263 L14.1784,47.9271 C13.3987039,47.9271 12.7579513,47.3322119 12.6852666,46.57156 L12.6784,46.4271 L12.6784,12.7761 C12.6784,11.9476729 13.3499729,11.2761 14.1784,11.2761 C14.9580961,11.2761 15.5988487,11.8709881 15.6715334,12.63164 L15.6784,12.7761 L15.6784,44.9271 L70.1316,44.9263 L70.1316,43.5368 C70.1316,42.7571039 70.7264881,42.1163513 71.48714,42.0436666 L71.6316,42.0368 L83.5912,42.0353 L83.592,3.9999 L4.254,3.9999 L4.254,55.4979 L64.901,55.4979 C65.7294271,55.4979 66.401,56.1694729 66.401,56.9979 C66.401,57.7775961 65.8061119,58.4183487 65.04546,58.4910334 L64.901,58.4979 L2.754,58.4979 C1.97430388,58.4979 1.33355132,57.9030119 1.26086658,57.14236 L1.254,56.9979 L1.254,2.4999 C1.254,1.72020388 1.84888808,1.07945132 2.60953999,1.00676658 L2.754,0.9999 L85.092,0.9999 Z M150.4976,49.2213 L146.0738,49.2214 L146.0736,53.6463 L150.4976,49.2213 Z M81.4696,45.0363 L73.1316,45.0368 L73.1316,53.3753 L81.4696,45.0363 Z M114.2826,10.976 C121.03288,10.976 126.5056,16.4494254 126.5056,23.2 C126.5056,29.9504271 121.033027,35.423 114.2826,35.423 C107.531497,35.423 102.0596,29.9507509 102.0596,23.2 C102.0596,16.4491016 107.531644,10.976 114.2826,10.976 Z M114.2826,13.976 C109.188628,13.976 105.0596,18.1058261 105.0596,23.2 C105.0596,28.2939399 109.188394,32.423 114.2826,32.423 C119.376173,32.423 123.5056,28.2935729 123.5056,23.2 C123.5056,18.1061931 119.375939,13.976 114.2826,13.976 Z" class="illustration-primary" fill="#2157AA"></path> 

    </g> 

</svg> 