<svg width="160px" height="160px" viewBox="0 0 160 160" version="1.1" 

    xmlns="http://www.w3.org/2000/svg" 

    xmlns:xlink="http://www.w3.org/1999/xlink"> 

    <!-- Generator: Sketch 58 (84663) - https://sketch.com --> 

    <title>Illustration / CTA Standard / Feature / Products and Services BGABlue</title> 

    <desc>Created with Sketch.</desc> 

    <g class="Illustration-/-CTA-Standard-/-Feature-/-Products-and-Services-BGABlue" stroke="none" stroke-width="1" fill="none" fill-rule="evenodd"> 

        <ellipse class="illustration-shape" fill="#C8D9EE" cx="80.5" cy="80" rx="67.5" ry="68"></ellipse> 

        <polygon class="illustration-fill" fill="#EDEEF1" points="27.9725 77.5751 27.9725 152.7201 131.7955 152.7201 131.7955 77.5751 131.7955 36.8971 27.9725 36.8971"></polygon> 

        <path d="M26.4725,36.8971 L26.4725,152.7201 C26.4725,153.548527 27.1440729,154.2201 27.9725,154.2201 L131.7955,154.2201 C132.623927,154.2201 133.2955,153.548527 133.2955,152.7201 L133.2955,36.8971 C133.2955,36.0686729 132.623927,35.3971 131.7955,35.3971 L27.9725,35.3971 C27.1440729,35.3971 26.4725,36.0686729 26.4725,36.8971 Z M29.4725,38.3971 L130.2955,38.3971 L130.2955,151.2201 L29.4725,151.2201 L29.4725,38.3971 Z" class="illustration-primary" fill="#2157AA"></path> 

        <path d="M122.5396,52.6399 L136.0096,62.4599 L135.7806,62.7699 L131.9406,73.8299 L131.9196,73.8699 L124.2896,89.4899 C124.0396,89.8499 123.6696,90.0799 123.2706,90.1699 C122.8106,90.2799 122.3106,90.1899 121.9006,89.8999 C121.4496,89.5799 121.1996,89.0799 121.1796,88.5699 C121.1596,88.2099 121.2596,87.8299 121.4896,87.5099 L126.0496,79.4999 C126.1996,79.2699 126.2806,78.9999 126.2706,78.7299 C126.2596,78.5599 126.2196,78.3899 126.1506,78.2399 C125.8896,77.6899 125.2896,77.4199 124.7306,77.5499 C124.6396,77.5699 124.5496,77.5999 124.4596,77.6399 C124.2496,77.7399 124.0796,77.8999 123.9596,78.0799 L116.9996,89.5799 C116.7496,89.9399 116.3796,90.1799 115.9806,90.2599 C115.5206,90.3699 115.0306,90.2799 114.6106,89.9899 C114.1596,89.6699 113.9096,89.1799 113.8896,88.6599 C113.8796,88.2999 113.9806,87.9199 114.1996,87.5999 L121.1196,76.1499 C121.3296,75.8899 121.4406,75.5599 121.4296,75.2299 C121.4196,75.0699 121.3896,74.9099 121.3206,74.7499 C121.3106,74.7299 121.3106,74.6999 121.2996,74.6799 C121.0706,74.1899 120.5896,73.9199 120.0796,73.9099 C119.9596,73.9099 119.8396,73.9199 119.7196,73.9499 C119.6296,73.9599 119.5496,73.9899 119.4596,74.0299 C119.2896,74.1099 119.1396,74.2299 119.0306,74.3599 C119.0206,74.3599 119.0206,74.3699 119.0206,74.3699 L118.8606,74.6099 L108.7306,89.2999 C108.4806,89.6599 108.1106,89.8999 107.7096,89.9899 C107.2496,90.0899 106.7596,89.9999 106.3396,89.7099 C105.8896,89.3899 105.6396,88.8999 105.6196,88.3799 C105.6106,88.0199 105.7096,87.6499 105.9296,87.3199 L116.0206,72.6799 C116.1696,72.4599 116.2496,72.1899 116.2396,71.9099 C116.2306,71.7499 116.1906,71.5799 116.1196,71.4199 C115.8606,70.8799 115.2706,70.6099 114.7096,70.7399 C114.6196,70.7599 114.5306,70.7899 114.4406,70.8299 C114.2306,70.9299 114.0606,71.0799 113.9406,71.2699 L103.2306,83.8299 C102.9806,84.1899 102.6106,84.4299 102.2096,84.5199 C101.7496,84.6199 101.2496,84.5399 100.8396,84.2399 C100.3896,83.9299 100.1396,83.4299 100.1196,82.9199 C100.1006,82.5499 100.1996,82.1799 100.4296,81.8499 L112.2896,67.5699 C112.2896,67.5699 113.0796,66.5499 113.0306,65.4799 C113.0206,65.2399 112.9696,64.9899 112.8506,64.7499 C112.8296,64.7099 112.8106,64.6699 112.7806,64.6299 C112.7596,64.5899 112.7396,64.5599 112.7096,64.5199 C112.6696,64.4599 112.6196,64.3999 112.5706,64.3499 C112.5206,64.2799 112.4596,64.2199 112.3896,64.1599 C112.3796,64.1399 112.3606,64.1299 112.3396,64.1099 C111.8796,63.7599 111.3106,63.7599 110.8106,63.8799 C110.5706,63.9299 110.3396,64.0099 110.1596,64.0899 L105.7196,65.8499 C105.6396,65.8799 105.5496,65.9099 105.4596,65.9299 C105.0606,66.0199 104.6396,65.9599 104.2706,65.7799 C102.9596,65.1099 102.9996,63.2199 104.3396,62.6099 L115.4896,57.5299 L123.7096,53.7699 L123.7306,53.6699 L122.4806,52.7199 L122.5396,52.6399 Z M37.2197,52.64 L37.2797,52.72 L36.0297,53.67 L36.0607,53.77 L44.2707,57.53 L55.4197,62.61 C56.7597,63.22 56.8107,65.11 55.4997,65.78 C55.1297,65.96 54.7097,66.02 54.3107,65.93 C54.2197,65.91 54.1297,65.88 54.0497,65.85 L49.6107,64.09 C49.4197,64.01 49.1997,63.93 48.9597,63.88 C48.4597,63.76 47.8897,63.76 47.4297,64.11 L47.3697,64.16 L47.3697,64.16 C47.3107,64.22 47.2497,64.28 47.1907,64.35 C47.1507,64.4 47.1007,64.46 47.0607,64.52 L46.9807,64.63 L46.9807,64.63 C46.9597,64.67 46.9407,64.71 46.9197,64.75 C46.7997,64.99 46.7397,65.24 46.7307,65.48 C46.6907,66.55 47.4697,67.57 47.4697,67.57 L59.3397,81.85 C59.5607,82.18 59.6597,82.55 59.6507,82.92 C59.6297,83.43 59.3797,83.93 58.9297,84.24 C58.5097,84.54 58.0207,84.62 57.5607,84.52 C57.1597,84.43 56.7897,84.19 56.5397,83.83 L45.8297,71.27 C45.7097,71.08 45.5397,70.93 45.3297,70.83 C45.2397,70.79 45.1507,70.76 45.0607,70.74 C44.4997,70.61 43.9097,70.88 43.6507,71.42 C43.5697,71.58 43.5297,71.75 43.5297,71.91 C43.5097,72.19 43.5897,72.46 43.7497,72.68 L53.8297,87.32 C54.0607,87.65 54.1597,88.02 54.1507,88.38 C54.1197,88.9 53.8697,89.39 53.4197,89.71 C53.0097,90 52.5097,90.09 52.0607,89.99 C51.6597,89.9 51.2897,89.66 51.0297,89.3 L40.9097,74.61 L40.7497,74.37 C40.7397,74.37 40.7397,74.36 40.7397,74.36 C40.6197,74.23 40.4807,74.11 40.2997,74.03 C40.2197,73.99 40.1397,73.96 40.0497,73.95 C39.9297,73.92 39.8107,73.91 39.6797,73.91 C39.1797,73.92 38.6997,74.19 38.4697,74.68 C38.4497,74.7 38.4497,74.73 38.4407,74.75 C38.3797,74.91 38.3507,75.07 38.3397,75.23 C38.3197,75.56 38.4297,75.89 38.6397,76.15 L45.5607,87.6 C45.7897,87.92 45.8897,88.3 45.8797,88.66 C45.8507,89.18 45.6007,89.67 45.1507,89.99 C44.7397,90.28 44.2397,90.37 43.7897,90.26 C43.3897,90.18 43.0207,89.94 42.7597,89.58 L35.8107,78.08 C35.6907,77.9 35.5207,77.74 35.3107,77.64 C35.2197,77.6 35.1297,77.57 35.0397,77.55 C34.4697,77.42 33.8797,77.69 33.6197,78.24 C33.5397,78.39 33.5097,78.56 33.4997,78.73 C33.4897,79 33.5607,79.27 33.7197,79.5 L38.2797,87.51 C38.4997,87.83 38.6007,88.21 38.5897,88.57 C38.5697,89.08 38.3197,89.58 37.8607,89.9 C37.4497,90.19 36.9597,90.28 36.4997,90.17 C36.1007,90.08 35.7307,89.85 35.4807,89.49 L27.8507,73.87 C27.8397,73.86 27.8397,73.85 27.8297,73.84 L27.8397,73.84 L23.9897,62.77 L23.7597,62.46 L37.2197,52.64 Z M14.2889,11.2699 L35.0009,48.6659 L26.2219,54.4089 L23.0549,58.2089 L4.8349,38.4099 L1.4999,32.8349 L14.2889,11.2699 Z M145.6885,11.2699 L158.4775,32.8349 L155.1425,38.4099 L136.9225,58.2089 L133.7555,54.4089 L124.9765,48.6659 L145.6885,11.2699 Z" class="illustration-fill" fill="#EDEEF1" ></path> 

        <path d="M92.494,126.9967 L92.494,151.2157 L67.772,151.2157 L67.273,126.9967 L92.494,126.9967 Z M57.7522,62.1512 L58.6462,62.5582 C60.2762,63.3002 61.3142,64.8732 61.3552,66.6632 C61.3962,68.4522 60.4302,70.0712 58.8372,70.8862 C57.8782,71.3772 56.7702,71.5172 55.7192,71.2812 C55.4842,71.2292 55.2512,71.1562 55.0262,71.0682 L53.5212,70.4712 L63.5772,82.5842 C63.6242,82.6412 63.6692,82.7002 63.7122,82.7602 C64.2942,83.5832 64.5912,84.5912 64.5482,85.5972 C64.4872,87.0262 63.7832,88.3182 62.6172,89.1422 C61.5602,89.8892 60.2322,90.1552 58.9702,89.8722 C58.9602,89.8692 58.9482,89.8662 58.9372,89.8642 C59.0252,90.2562 59.0632,90.6612 59.0462,91.0662 C58.9852,92.4952 58.2812,93.7872 57.1142,94.6122 C56.0582,95.3582 54.7302,95.6242 53.4682,95.3412 C52.3602,95.0932 51.3882,94.4442 50.7322,93.5162 L50.3862,93.0152 C50.0572,93.7572 49.5302,94.4052 48.8432,94.8912 C47.7882,95.6372 46.4602,95.9032 45.1982,95.6202 C44.1242,95.3792 43.1772,94.7632 42.5232,93.8812 C42.2512,94.2272 41.9262,94.5362 41.5552,94.7992 C40.5002,95.5452 39.1712,95.8112 37.9102,95.5282 C36.8012,95.2802 35.8292,94.6312 35.1732,93.7032 C35.0842,93.5772 35.0062,93.4442 34.9372,93.3062 L27.3942,77.8452 C27.2302,77.5712 27.1142,77.2842 27.0482,76.9862 L25.4912,72.5112 L35.0172,90.9512 L38.0022,91.6672 L41.4582,89.4102 L44.0882,91.4472 L46.4122,91.4472 L48.9992,88.5842 L52.9622,91.4472 L55.7152,90.5662 L55.6592,86.1622 L60.0072,85.7222 L61.9342,82.6392 L49.4392,66.0712 L54.5042,67.1162 C59.8672,67.1562 58.4492,63.4912 57.7522,62.1512 Z M102.7925,62.1512 C102.107314,63.4684881 100.725361,67.0326306 105.774563,67.1150702 L106.0415,67.1162 L111.1065,66.0712 L98.6105,82.6392 L100.5375,85.7222 L104.8855,86.1622 L104.8305,90.5662 L107.5825,91.4472 L111.5455,88.5842 L114.1335,91.4472 L116.4575,91.4472 L119.0865,89.4102 L122.5435,91.6672 L125.5285,90.9512 L135.0529,72.5111 L133.4965,76.9862 C133.447,77.2097 133.369938,77.4270125 133.265313,77.6372938 L133.1515,77.8452 L125.6075,93.3062 C125.5395,93.4442 125.4605,93.5772 125.3715,93.7032 C124.7155,94.6322 123.7445,95.2802 122.6345,95.5282 C121.3735,95.8112 120.0455,95.5452 118.9895,94.7992 C118.6185,94.5362 118.2935,94.2272 118.0225,93.8812 C117.3685,94.7632 116.4215,95.3792 115.3465,95.6202 C114.0855,95.9032 112.7565,95.6362 111.7025,94.8912 C111.090944,94.4592 110.606599,93.8992 110.276152,93.2582562 L110.1595,93.0142 L109.8135,93.5162 C109.1575,94.4442 108.1845,95.0932 107.0765,95.3412 C105.8155,95.6242 104.4865,95.3582 103.4305,94.6122 C102.2645,93.7872 101.5595,92.4952 101.4985,91.0662 C101.4815,90.6612 101.5195,90.2562 101.6085,89.8642 C101.5965,89.8662 101.5845,89.8692 101.5745,89.8722 C100.3135,90.1552 98.9845,89.8892 97.9285,89.1422 C96.7615,88.3182 96.0575,87.0262 95.9965,85.5972 C95.9545,84.5912 96.2505,83.5832 96.8325,82.7602 L96.8985,82.671075 L96.9675,82.5842 L107.0245,70.4712 L105.5185,71.0682 C105.2935,71.1562 105.0615,71.2282 104.8255,71.2812 C103.7745,71.5172 102.6665,71.3772 101.7075,70.8862 C100.1145,70.0712 99.1495,68.4522 99.1905,66.6632 C99.2288333,64.9477833 100.183733,63.4316601 101.697863,62.6552337 L101.8985,62.5582 L102.7925,62.1512 Z M24.4032,66.5522 L25.4912,72.5112 L23.6232,67.1412 L24.4032,66.5522 Z M136.1415,66.5522 L136.9225,67.1412 L135.0529,72.5111 L136.1415,66.5522 Z M158.4774,32.8354 L158.4774,41.3334 L137.6794,63.5274 L122.7524,52.6394 L124.9764,48.6664 L133.7554,54.4084 C135.621067,55.6293 138.078237,55.3578922 139.632858,53.7892887 L139.7904,53.6224 L158.4774,32.8354 Z M1.4999,32.8354 L20.1869,53.6224 C21.7289,55.3374 24.2919,55.6714 26.2219,54.4084 L35.0009,48.6664 L37.2249,52.6394 L22.2979,63.5274 L1.4999,41.3334 L1.4999,32.8354 Z M92.494,38.41 L92.494,62.13 L67.273,62.13 L67.273,38.41 L92.494,38.41 Z M147.08,9.1571 L131.551,36.0731 L116.138,36.0731 L133.209,9.1571 L147.08,9.1571 Z M26.7683,9.1571 L43.8393,36.0731 L28.4263,36.0731 L12.8973,9.1571 L26.7683,9.1571 Z" class="illustration-secondary" fill="#B3CBE8" ></path> 

        <path d="M92.494,35.4101 C93.2736961,35.4101 93.9144487,36.0049881 93.9871334,36.76564 L93.994,36.9101 L93.994,62.1301 C93.994,62.9097961 93.3991119,63.5505487 92.63846,63.6232334 L92.494,63.6301 L81.382895,63.6297307 L81.382895,125.495731 L92.4943,125.4967 C93.2739961,125.4967 93.9147487,126.091588 93.9874334,126.85224 L93.9943,126.9967 L93.9943,152.2167 C93.9943,153.045127 93.3227271,153.7167 92.4943,153.7167 C91.7146039,153.7167 91.0738513,153.121812 91.0011666,152.36116 L90.9943,152.2167 L90.9943,128.4967 L68.7733,128.4967 L68.7733,152.2167 C68.7733,153.045127 68.1017271,153.7167 67.2733,153.7167 C66.4936039,153.7167 65.8528513,153.121812 65.7801666,152.36116 L65.7733,152.2167 L65.7733,126.9967 C65.7733,126.217004 66.3681881,125.576251 67.12884,125.503567 L67.2733,125.4967 L78.382895,125.495731 L78.382895,63.6297307 L67.273,63.6301 C66.4933039,63.6301 65.8525513,63.0352119 65.7798666,62.27456 L65.773,62.1301 L65.773,36.9101 C65.773,36.0816729 66.4445729,35.4101 67.273,35.4101 C68.0526961,35.4101 68.6934487,36.0049881 68.7661334,36.76564 L68.773,36.9101 L68.773,60.6301 L90.994,60.6301 L90.994,36.9101 C90.994,36.0816729 91.6655729,35.4101 92.494,35.4101 Z M58.4619,134.4462 C59.2903271,134.4462 59.9619,135.117773 59.9619,135.9462 C59.9619,136.725896 59.3670119,137.366649 58.60636,137.439333 L58.4619,137.4462 L36.6659,137.4462 C35.8374729,137.4462 35.1659,136.774627 35.1659,135.9462 C35.1659,135.166504 35.7607881,134.525751 36.52144,134.453067 L36.6659,134.4462 L58.4619,134.4462 Z M58.4619,125.4965 C59.2903271,125.4965 59.9619,126.168073 59.9619,126.9965 C59.9619,127.776196 59.3670119,128.416949 58.60636,128.489633 L58.4619,128.4965 L36.6659,128.4965 C35.8374729,128.4965 35.1659,127.824927 35.1659,126.9965 C35.1659,126.216804 35.7607881,125.576051 36.52144,125.503367 L36.6659,125.4965 L58.4619,125.4965 Z M147.97279,7.19100842 C148.6532,7.57175463 148.92186,8.40378669 148.613843,9.10307187 L148.549292,9.23248962 L124.49889,52.211629 L136.895986,61.2501291 L137.289098,61.5382315 L157.390867,40.2989154 C157.960319,39.6972381 158.909707,39.6711146 159.511385,40.2405669 C160.075457,40.7744284 160.133672,41.642218 159.669531,42.2443731 L159.569733,42.3610846 L138.558733,64.5610846 C138.415492,64.7124318 138.247374,64.8278776 138.066209,64.9063519 L134.7593,74.43 C134.6903,74.72 134.5703,75.01 134.4103,75.29 L126.8703,90.75 C126.7993,90.88 126.7193,91.02 126.6293,91.14 C125.9693,92.07 125.0003,92.72 123.8893,92.97 C122.6293,93.25 121.2993,92.99 120.2503,92.24 C119.8793,91.98 119.5493,91.67 119.2803,91.32 C118.6293,92.2 117.6793,92.82 116.6103,93.06 C115.3393,93.34 114.0203,93.08 112.9603,92.33 C112.2703,91.85 111.7503,91.2 111.4203,90.46 L111.0703,90.96 C110.4203,91.88 109.4403,92.53 108.3393,92.78 C107.0703,93.06 105.7503,92.8 104.6903,92.05 C103.5203,91.23 102.8203,89.94 102.7593,88.51 C102.7403,88.1 102.7803,87.7 102.8703,87.3 C102.8603,87.31 102.8393,87.31 102.8303,87.31 C101.5703,87.6 100.2403,87.33 99.1903,86.58 C98.0203,85.76 97.3203,84.47 97.2593,83.04 C97.2103,82.03 97.5093,81.02 98.0893,80.2 C98.1393,80.14 98.1793,80.08 98.2303,80.03 L108.2803,67.91 L106.7803,68.51 C106.5493,68.6 106.3203,68.67 106.0803,68.72 C105.0303,68.96 103.9293,68.82 102.9693,68.33 C101.3703,67.51 100.4103,65.89 100.4503,64.1 C100.4903,62.31 101.5303,60.74 103.1603,60 L114.2993,54.93 L121.2193,51.76 L121.284895,51.8097307 L145.931308,7.76751038 C146.335851,7.04457429 147.249854,6.78646557 147.97279,7.19100842 Z M13.7625033,7.64501155 L13.8390179,7.76773625 L38.476895,51.8147307 L38.55,51.7598 L45.47,54.9298 L56.61,59.9998 C58.24,60.7398 59.28,62.3098 59.32,64.0998 C59.36,65.8898 58.39,67.5098 56.8,68.3298 C55.84,68.8198 54.73,68.9598 53.68,68.7198 C53.45,68.6698 53.21,68.5998 52.99,68.5098 L51.48,67.9098 L61.54,80.0298 C61.59,80.0798 61.63,80.1398 61.67,80.1998 C62.26,81.0198 62.55,82.0298 62.51,83.0398 C62.45,84.4698 61.75,85.7598 60.58,86.5798 C59.52,87.3298 58.2,87.5998 56.93,87.3098 C56.92,87.3098 56.91,87.3098 56.9,87.2998 C56.99,87.6998 57.03,88.0998 57.01,88.5098 C56.95,89.9398 56.24,91.2298 55.08,92.0498 C54.02,92.7998 52.69,93.0598 51.43,92.7798 C50.32,92.5298 49.351,91.8798 48.7,90.9598 L48.351,90.4598 C48.02,91.1998 47.49,91.8498 46.81,92.3298 C45.75,93.0798 44.42,93.3398 43.16,93.0598 C42.09,92.8198 41.14,92.1998 40.49,91.3198 C40.21,91.6698 39.89,91.9798 39.52,92.2398 C38.46,92.9898 37.13,93.2498 35.87,92.9698 C34.76,92.7198 33.79,92.0698 33.14,91.1398 C33.05,91.0198 32.97,90.8798 32.9,90.7498 L25.36,75.2898 C25.19,75.0098 25.08,74.7198 25.01,74.4298 L21.7029964,64.9063564 C21.5635513,64.845958 21.4318518,64.7636645 21.3132957,64.659978 L21.2052867,64.5555836 L0.405286715,42.3555836 C-0.161127476,41.7510454 -0.130221842,40.8018009 0.474316382,40.2353867 C1.04107097,39.7043734 1.91079004,39.6983482 2.48400195,40.1977935 L2.59451328,40.3044164 L22.4855329,61.5342546 L22.8758234,61.2482209 L35.2617051,52.2118645 L11.2207821,9.23226375 C10.816364,8.50925788 11.0746304,7.59530016 11.7976362,7.19088205 C12.4781124,6.81025325 13.3277361,7.01663911 13.7625033,7.64501155 Z M122.378895,54.3787307 L115.4903,57.53 L104.3393,62.61 C103.0003,63.22 102.9603,65.11 104.2703,65.78 C104.6393,65.96 105.0603,66.02 105.4603,65.93 C105.5493,65.91 105.6393,65.88 105.7193,65.85 L110.1603,64.09 C110.3393,64.01 110.5703,63.93 110.8103,63.88 C111.3103,63.76 111.8793,63.76 112.3393,64.11 C112.3603,64.13 112.3793,64.14 112.3893,64.16 C112.4603,64.22 112.5203,64.28 112.5703,64.35 C112.6203,64.4 112.6703,64.46 112.7103,64.52 C112.7403,64.56 112.7593,64.59 112.7803,64.63 C112.8103,64.67 112.8303,64.71 112.8503,64.75 C112.9693,64.99 113.0203,65.24 113.0303,65.48 C113.0803,66.55 112.2903,67.57 112.2903,67.57 L100.4293,81.85 C100.2003,82.18 100.1003,82.55 100.1203,82.92 C100.1393,83.43 100.3893,83.93 100.8393,84.24 C101.2503,84.54 101.7503,84.62 102.2103,84.52 C102.6103,84.43 102.9803,84.19 103.2303,83.83 L113.9403,71.27 C114.0603,71.08 114.2303,70.93 114.4403,70.83 C114.5303,70.79 114.6203,70.76 114.7103,70.74 C115.2703,70.61 115.8603,70.88 116.1203,71.42 C116.1903,71.58 116.2303,71.75 116.2403,71.91 C116.2503,72.19 116.1703,72.46 116.0203,72.68 L105.9293,87.32 C105.7103,87.65 105.6103,88.02 105.6203,88.38 C105.6393,88.9 105.8893,89.39 106.3393,89.71 C106.7593,90 107.2503,90.09 107.7103,89.99 C108.1103,89.9 108.4803,89.66 108.7303,89.3 L118.8603,74.61 L119.0203,74.37 C119.0203,74.37 119.0203,74.36 119.0303,74.36 C119.1393,74.23 119.2903,74.11 119.4603,74.03 C119.5493,73.99 119.6293,73.96 119.7193,73.95 C119.8393,73.92 119.9603,73.91 120.0803,73.91 C120.5893,73.92 121.0703,74.19 121.2993,74.68 C121.3103,74.7 121.3103,74.73 121.3203,74.75 C121.3893,74.91 121.4203,75.07 121.4293,75.23 C121.4403,75.56 121.3303,75.89 121.1203,76.15 L114.2003,87.6 C113.9803,87.92 113.8793,88.3 113.8893,88.66 C113.9103,89.18 114.1603,89.67 114.6103,89.99 C115.0303,90.28 115.5203,90.37 115.9803,90.26 C116.3793,90.18 116.7503,89.94 117.0003,89.58 L123.9603,78.08 C124.0803,77.9 124.2503,77.74 124.4603,77.64 C124.5493,77.6 124.6393,77.57 124.7303,77.55 C125.2903,77.42 125.8893,77.69 126.1503,78.24 C126.2193,78.39 126.2593,78.56 126.2703,78.73 C126.2803,79 126.2003,79.27 126.0493,79.5 L121.4903,87.51 C121.2593,87.83 121.1603,88.21 121.1793,88.57 C121.2003,89.08 121.4503,89.58 121.9003,89.9 C122.3103,90.19 122.8103,90.28 123.2703,90.17 C123.6703,90.08 124.0403,89.85 124.2903,89.49 L131.9193,73.87 L131.9403,73.83 L135.396895,63.8717307 L135.125609,63.6720604 L122.378895,54.3787307 Z M37.384895,54.3767307 L24.6465862,63.6698709 L24.372895,63.8697307 L27.84,73.8398 L27.83,73.8398 C27.84,73.8498 27.84,73.8598 27.851,73.8698 L35.48,89.4898 C35.73,89.8498 36.101,90.0798 36.5,90.1698 C36.96,90.2798 37.45,90.1898 37.86,89.8998 C38.32,89.5798 38.57,89.0798 38.59,88.5698 C38.601,88.2098 38.5,87.8298 38.28,87.5098 L33.72,79.4998 C33.56,79.2698 33.49,78.9998 33.5,78.7298 C33.51,78.5598 33.54,78.3898 33.62,78.2398 C33.88,77.6898 34.47,77.4198 35.04,77.5498 C35.13,77.5698 35.22,77.5998 35.31,77.6398 C35.52,77.7398 35.69,77.8998 35.81,78.0798 L42.76,89.5798 C43.02,89.9398 43.39,90.1798 43.79,90.2598 C44.24,90.3698 44.74,90.2798 45.15,89.9898 C45.601,89.6698 45.851,89.1798 45.88,88.6598 C45.89,88.2998 45.79,87.9198 45.56,87.5998 L38.64,76.1498 C38.43,75.8898 38.32,75.5598 38.34,75.2298 C38.351,75.0698 38.38,74.9098 38.44,74.7498 C38.45,74.7298 38.45,74.6998 38.47,74.6798 C38.7,74.1898 39.18,73.9198 39.68,73.9098 C39.81,73.9098 39.93,73.9198 40.05,73.9498 C40.14,73.9598 40.22,73.9898 40.3,74.0298 C40.48,74.1098 40.62,74.2298 40.74,74.3598 C40.74,74.3598 40.74,74.3698 40.75,74.3698 L40.91,74.6098 L51.03,89.2998 C51.29,89.6598 51.66,89.8998 52.06,89.9898 C52.51,90.0898 53.01,89.9998 53.42,89.7098 C53.87,89.3898 54.12,88.8998 54.15,88.3798 C54.16,88.0198 54.06,87.6498 53.83,87.3198 L43.75,72.6798 C43.59,72.4598 43.51,72.1898 43.53,71.9098 C43.53,71.7498 43.57,71.5798 43.65,71.4198 C43.91,70.8798 44.5,70.6098 45.06,70.7398 C45.15,70.7598 45.24,70.7898 45.33,70.8298 C45.54,70.9298 45.71,71.0798 45.83,71.2698 L56.54,83.8298 C56.79,84.1898 57.16,84.4298 57.56,84.5198 C58.02,84.6198 58.51,84.5398 58.93,84.2398 C59.38,83.9298 59.63,83.4298 59.65,82.9198 C59.66,82.5498 59.56,82.1798 59.34,81.8498 L47.47,67.5698 C47.47,67.5698 46.69,66.5498 46.73,65.4798 C46.74,65.2398 46.8,64.9898 46.92,64.7498 L46.98,64.6298 L46.98,64.6298 L47.06,64.5198 L47.06,64.5198 C47.101,64.4598 47.15,64.3998 47.19,64.3498 C47.25,64.2798 47.31,64.2198 47.37,64.1598 L47.43,64.1098 L47.43,64.1098 C47.89,63.7598 48.46,63.7598 48.96,63.8798 C49.2,63.9298 49.42,64.0098 49.61,64.0898 L54.05,65.8498 C54.13,65.8798 54.22,65.9098 54.31,65.9298 C54.71,66.0198 55.13,65.9598 55.5,65.7798 C56.81,65.1098 56.76,63.2198 55.42,62.6098 L44.27,57.5298 L37.384895,54.3767307 Z M27.5095089,7.56264598 L27.5942545,7.67983823 L46.1502545,36.0898382 C46.6032726,36.7834275 46.4082511,37.7129365 45.7146618,38.1659545 C45.0618718,38.5923245 44.2001012,38.4446524 43.7232911,37.847554 L43.6385455,37.7303618 L25.0825455,9.32036177 C24.6295274,8.62677246 24.8245489,7.69726352 25.5181382,7.24424546 C26.1709282,6.81787551 27.0326988,6.96554756 27.5095089,7.56264598 Z M134.186662,7.24424546 C134.839452,7.6706154 135.050604,8.51906722 134.695502,9.19565967 L134.622255,9.32036177 L116.066255,37.7303618 C115.613236,38.4239511 114.683728,38.6189726 113.990138,38.1659545 C113.337348,37.7395846 113.126196,36.8911328 113.481298,36.2145403 L113.554545,36.0898382 L132.110545,7.67983823 C132.563564,6.98624892 133.493072,6.79122739 134.186662,7.24424546 Z" class="illustration-primary" fill="#2157AA"></path> 

    </g> 

</svg> 