<svg xmlns="http://www.w3.org/2000/svg" viewBox="0 0 160 160"> 

 

    <g> 

        <g class="illustration-shape" fill="#C8D9EE"> 

            <circle class="cls-1" cx="80" cy="80" r="73.25" /> 

        </g> 

    </g> 

    <g> 

        <g class="illustration-secondary" fill="#B3CBE8"> 

            <path class="cls-2" d="M147.06,146.54c-.93-1.16-.12-1.9-.45-2.45-.75-1.76-3-3.59-2.56-5.05-1.53.19.24-1,.79-.92-.65-3.05-1.76-6.08,0-9.31-.75.6-1.53-1.85-2.62-2.12,1-2.89.55-2.79-2.54-4.11.5-2-7.28-10-7.78-9.56.86.66-3.76-1.92-4.82-3.6-2.34.36-1.56-2.43-2.11-4.55a6.57,6.57,0,0,0-.72-5.19c-.25.68-4.3.14-4.26-.75-2.29-2.64-1.8,1.58-.87,3.09-2-2.84-3.28-1-3.85-4-1.78-2.54,0-5.53-2.19-5.29-.21-.17.44-2.38-.58-1.85-.3-1.71-.22-2.22-1.59-2.69.56-.45-1.08-1-1.73-.5.72-1-.55-.93-.83-1.67-.67-1.09-.2-1.55.55-2,.55.21-3.2-2.42-4.19-3,.78-.26-2.23-1.74-2.15-1.25-3.14-1.36-4.18-5.35-8.07-6-4,1.55-6.17-2.8-6.1-5.33-2.51-1.37-2.09-4.65-1.08-7.13-.28-1.9-2.75-4.28-1.59-6.07.28-.58-1.78,0-1.21.66-.6-1.67-3.66-3.93-3-6.38.53-2.62-2.16-5.15-1.12-7.07-.51-.38.71-.4.36-.84-1.39.79-.71-1.67,0-2.34-2-.68-3.36-2.8-5.44-3.15-1.36-4.72-1-2.11-3.66-2.43-.17,0-1.55,2.54-2.46,1.87-4-3.89-3.48-13.11-4-15.26-1.91-1.57-4.31-3.45-1.51-5.25-4,.15-3.21-3.81-3.57-6.5-.22-3.06-3.85-1.25-1.59-3.46-3.46-1.23-6.16,11.08-5.72,9.85-1.73.48-.53,2.88-1.47,2.23-1.23,1,2.22,4.89.71,3.56-1.31,2.19-3.77,9.27-1.75,12.18C49.92,40.32,48.65,65,36.63,61.1c-3.7-4-15.06-7.39-15.06-7.39l-.63,75.63H45.38v24.44l65.53-.12s7.57-4.55,16.3-2c-.08,1.44,2.08.64,2.15,2.16-.2,2.08,1.72,1.19,2-.36,5.37.74,2.09-3.22,5.67-4.34C139.49,147,145.19,149.93,147.06,146.54Z" /> 

        </g> 

    </g> 

    <g> 

        <g class="illustration-primary" fill="#2157AA"> 

            <path class="cls-3" d="M130,156.5l-.29,0a2.19,2.19,0,0,1-1.82-2.36l-.07,0a3,3,0,0,1-1.78-1.26,21.34,21.34,0,0,0-14.31,2.1,1.59,1.59,0,0,1-.76.22l-65.53.12h0a1.49,1.49,0,0,1-1.05-.44,1.47,1.47,0,0,1-.45-1.06V130.84H20.94a1.5,1.5,0,0,1-1.06-.44,1.52,1.52,0,0,1-.44-1.07l.63-75.63A1.49,1.49,0,0,1,22,52.27c.47.14,11.27,3.39,15.45,7.5a4.82,4.82,0,0,0,4.28-.59c5.78-4,6.75-20,7.06-25.89-2-3.69.43-10.29,1.69-12.77-.71-1.29-1.51-3.21-.15-4.44A3,3,0,0,1,51.43,14a27.44,27.44,0,0,1,1.16-3.87C54.42,5,56.59,2.8,59,3.67A1.52,1.52,0,0,1,60,5.55a3.44,3.44,0,0,1,1.66,2.9c.06.49.09,1.11.12,1.72.15,3.13.48,3.44,1.89,3.38a1.5,1.5,0,0,1,.87,2.76c-.51.33-.59.53-.59.53,0,.47,1.49,1.68,2.11,2.2l.13.1a1.48,1.48,0,0,1,.5.8A19.12,19.12,0,0,1,67,22.81c.22,3.13.58,8.2,2.68,11,.18-.21.34-.44.44-.56a1.89,1.89,0,0,1,1.81-1A1.89,1.89,0,0,0,73,32a2.14,2.14,0,0,1,1.86-.08c.83.39,1.19,1.23,1.7,3a10.35,10.35,0,0,1,2.75,1.69,7.76,7.76,0,0,0,2,1.27,1.5,1.5,0,0,1,.5,2.53l-.06.08a1.89,1.89,0,0,1,.2.2A1.7,1.7,0,0,1,81.81,43a2,2,0,0,1-.1.21c-.2.38.15,1.26.49,2.12A8,8,0,0,1,83,49.82l0,.11c-.25.89.67,2.09,1.49,3.16l.37.49a2.1,2.1,0,0,1,1.68.22A1.64,1.64,0,0,1,87,55.9l-.09.15c-.26.4.3,1.47.75,2.33a9.17,9.17,0,0,1,1.07,2.7,1.52,1.52,0,0,1-.1.79c-.39,1-1.53,4.2.41,5.26a1.5,1.5,0,0,1,.78,1.36,4.87,4.87,0,0,0,1.74,3.7,2.31,2.31,0,0,0,2.32.18,1.6,1.6,0,0,1,.78-.08c2.73.44,4.28,2.18,5.65,3.7a10.47,10.47,0,0,0,2.38,2.18,5,5,0,0,1,3.39,1.94c4.91,3,4.48,3.89,4.16,4.56a1.46,1.46,0,0,1-.65.65l.08,0a2.69,2.69,0,0,1,.81.73,2.61,2.61,0,0,1,1.59.86,2.11,2.11,0,0,1,.18.27,3.17,3.17,0,0,1,1.49,2.45,2.15,2.15,0,0,1,.78,1.89,2,2,0,0,1,.35.25,3.5,3.5,0,0,1,.91,2.72,4.68,4.68,0,0,0,.65,2.66,1.55,1.55,0,0,1,.24.58,4,4,0,0,0,.17.63,2.16,2.16,0,0,1,.82-1.46c.58-.43,1.78-.85,3.39,1a1.19,1.19,0,0,1,.16.23,6.37,6.37,0,0,0,2.07.3,1.44,1.44,0,0,1,.79-.3,1.49,1.49,0,0,1,1.42.76,8.12,8.12,0,0,1,1,5.94,15.26,15.26,0,0,1,.21,1.81,8.92,8.92,0,0,0,.13,1.24,1.5,1.5,0,0,1,1.5.69,15.05,15.05,0,0,0,3.75,2.89,2.18,2.18,0,0,1,.93.33c1,.6,7,6.19,8,9.68,2.56,1.08,3.6,1.86,2.94,4.56a9.76,9.76,0,0,1,.8,1l.2.27a1.49,1.49,0,0,1,1.2,2.2c-1.22,2.28-.71,4.46-.12,7q.17.65.3,1.29a1.5,1.5,0,0,1-.41,1.38,1.46,1.46,0,0,1-.41.29,7.48,7.48,0,0,0,1.08,1.75,12.37,12.37,0,0,1,1.38,2.21,2.45,2.45,0,0,1,.18,1.63c-.06.34-.06.34.1.54a1.5,1.5,0,0,1,.14,1.66c-1.49,2.69-4.45,2.59-6.83,2.51-1.43-.05-2.9-.1-3.55.45a1.57,1.57,0,0,1-.52.29c-.76.24-.83.53-1.05,1.39-.39,1.56-1,3.14-4.09,3.1A2.94,2.94,0,0,1,130,156.5Zm-1.29-5.27h0a3.3,3.3,0,0,1,1.7,1,1.48,1.48,0,0,1,1.19-.36c1.39.19,1.71,0,1.71,0a2.77,2.77,0,0,0,.24-.74,4.3,4.3,0,0,1,2.78-3.42c1.52-1.1,3.55-1,5.35-1s2.91.06,3.62-.42a3.49,3.49,0,0,1-.09-1.78h0a11.5,11.5,0,0,0-1-1.57,8.66,8.66,0,0,1-1.55-2.77,1.74,1.74,0,0,1-.44-.49,1.68,1.68,0,0,1,.12-1.83,3.27,3.27,0,0,1,.81-.73c-.55-2.32-1.15-4.9-.23-7.64a8.6,8.6,0,0,1-.54-.69,5.3,5.3,0,0,0-.6-.72,1.49,1.49,0,0,1-.85-.71,1.52,1.52,0,0,1-.11-1.2,9.14,9.14,0,0,0,.38-1.32,14.17,14.17,0,0,0-1.39-.64l-.7-.29a1.51,1.51,0,0,1-.89-1.6c-.29-1.49-4.91-6.66-6.51-7.81a16.82,16.82,0,0,1-5.28-3.61,2.62,2.62,0,0,1-1.45-.57c-1-.84-1.15-2.24-1.24-3.47a10.34,10.34,0,0,0-.2-1.66,1.58,1.58,0,0,1,0-.75,5,5,0,0,0-.09-3,9,9,0,0,1-2.08-.18,8.57,8.57,0,0,1-1.08-.3l.12.23a1.5,1.5,0,0,1-2.5,1.65,3.06,3.06,0,0,0-1.64-1.34,3.49,3.49,0,0,1-2.39-2.9,7.72,7.72,0,0,1-1-4c0-.13,0-.28,0-.42a1.65,1.65,0,0,1-.69-.3,2,2,0,0,1-.58-1.85,1.48,1.48,0,0,1-.54-.91l-.1-.57a7.5,7.5,0,0,0-.16-.84,3.24,3.24,0,0,1-.33-.12,1.48,1.48,0,0,1-.71-.51,1.5,1.5,0,0,1-1.57-.32,1.44,1.44,0,0,1-.46-1.22,2.37,2.37,0,0,1-.67-.85,2.71,2.71,0,0,1-.28-2.56c-1-.69-2.26-1.57-2.79-1.88a1.5,1.5,0,0,1-.66-.83,4.4,4.4,0,0,0-.49-.24,1.49,1.49,0,0,1-.83-.11A11.13,11.13,0,0,1,98.11,78C97,76.76,96,75.69,94.56,75.32a5.25,5.25,0,0,1-4.71-.68,7.81,7.81,0,0,1-3-5.37c-2-1.62-2.47-4.6-1.19-8.07A8.94,8.94,0,0,0,85,59.77a11.35,11.35,0,0,1-1-2.45,1.54,1.54,0,0,1-.67-.44,1.89,1.89,0,0,1-.39-.72,14.9,14.9,0,0,0-.88-1.25c-1.11-1.44-2.63-3.42-2-5.73a5.54,5.54,0,0,0-.63-2.78,6.15,6.15,0,0,1-.63-3.93v0a3,3,0,0,1-.06-2.56c-.45-.3-.87-.62-1.26-.93a6,6,0,0,0-2.36-1.36,1.49,1.49,0,0,1-1.19-1.06c-.09-.3-.28-1-.46-1.5a4.33,4.33,0,0,1-1.08.18c-.68.9-2.29,2.82-4,1.55l-.16-.13C64.71,33.28,64.26,26.86,64,23c-.05-.73-.1-1.43-.16-1.92-1.47-1.21-3-2.6-2.9-4.44a2.48,2.48,0,0,1,.12-.67c-2.09-1.19-2.22-4-2.3-5.69,0-.56,0-1.09-.11-1.55,0-.62-.12-.64-.7-.82a3.48,3.48,0,0,1-.9-.42,27.84,27.84,0,0,0-2.72,7.31,1.63,1.63,0,0,1-.08.62,1.68,1.68,0,0,1-.94,1,2.42,2.42,0,0,0,0,.37,2.21,2.21,0,0,1-.55,1.56,12.31,12.31,0,0,0,.71,1.32c.32.54,1,1.65,0,2.51a1.61,1.61,0,0,1-.56.3c-1.28,2.78-2.53,7.84-1.31,9.59a1.49,1.49,0,0,1,.26.94c-.53,10.22-2,24.27-8.38,28.67a7.92,7.92,0,0,1-7.26.86,1.47,1.47,0,0,1-.63-.41c-2.35-2.53-8.68-5.06-12.48-6.35l-.6,72.08H45.38a1.54,1.54,0,0,1,1.07.44,1.51,1.51,0,0,1,.43,1.06v22.94l63.64-.12a23.74,23.74,0,0,1,17.11-2A1.49,1.49,0,0,1,128.66,151.23Zm13.16-23.08Zm-3.63-5.94Zm-7.24-8Zm-8.14-15.07ZM121.45,99Zm-11.4-10.08Zm-.34-3.4h0Zm-5.52-5.93h0ZM81.29,41.25Zm-10-6.11a1.06,1.06,0,0,0,.23,0h0Zm0,0Zm0,0Zm0,0Z" /> 

            <path class="cls-3" d="M57.58,99.69a10.67,10.67,0,0,1-1.19,5.25,6.44,6.44,0,0,1-3.46,3l4.1,4.42H53.25L50,108.52h-.46a7.62,7.62,0,0,1-6-2.31,9.44,9.44,0,0,1-2.08-6.54,9.28,9.28,0,0,1,2.1-6.52,7.71,7.71,0,0,1,6-2.27,7.54,7.54,0,0,1,5.9,2.31A9.37,9.37,0,0,1,57.58,99.69Zm-13.08,0a7.69,7.69,0,0,0,1.28,4.8,4.5,4.5,0,0,0,3.78,1.64,4.5,4.5,0,0,0,3.77-1.62,7.68,7.68,0,0,0,1.27-4.82,7.72,7.72,0,0,0-1.26-4.78,4.46,4.46,0,0,0-3.75-1.63,4.58,4.58,0,0,0-3.81,1.63A7.65,7.65,0,0,0,44.5,99.69Z" /> 

            <path class="cls-3" d="M62.22,108.28V91.15H65v14.73h7.25v2.4Z" /> 

            <path class="cls-3" d="M90.12,99.55A8.55,8.55,0,0,1,87.76,106c-1.57,1.5-3.83,2.24-6.78,2.24H76.19V91.15h5.29a8.78,8.78,0,0,1,6.37,2.2A8.26,8.26,0,0,1,90.12,99.55Zm-3,.1c0-4.1-1.92-6.16-5.76-6.16H79v12.44h2Q87.16,105.93,87.17,99.65Z" /> 

        </g> 

    </g> 

</svg> 