<svg viewBox="0 0 160 160" version="1.1" xmlns="http://www.w3.org/2000/svg" xmlns:xlink="http://www.w3.org/1999/xlink"> 

    <!-- Generator: Sketch 52.2 (67145) - http://www.bohemiancoding.com/sketch --> 

    <title>Illustration / CTA Standard / Feature / Yellow Reading</title> 

    <desc>Created with Sketch.</desc> 

    <g class="Illustration-/-CTA-Standard-/-Feature-/-Yellow-Reading" stroke="none" stroke-width="1" fill="none" fill-rule="evenodd"> 

        

        <path d="M91,94.1550185 L99,92 L99,110.358494 L95.0125482,108.575432 L91,113 L91,94.1550185 Z M70.861703,65.1305404 C70.861703,65.1305404 72.4348867,76.0915489 64.9693633,81.2326821 C63.7965747,82.040368 62.2935942,82.2255501 60.9592593,81.716144 L59.9177271,81.3184375 C58.8130909,80.8966511 58.6741043,79.4224961 59.6730412,78.7948655 C63.1114226,76.6345115 68.4011187,71.6667534 67.0268705,62 L70.861703,65.1305404 Z M63,152.858662 L33,153 L33,132.902746 C35.1768323,132.150134 37.1837663,130.780664 38.7900351,128.903092 C41.2450113,126.033518 42.5969817,122.226865 42.5969817,118.184235 L42.5969817,114.147346 C42.5969817,111.917593 42.0242219,109.755949 40.9409827,107.895908 C39.7808735,105.904304 38.1193838,104.391324 36.1359814,103.520647 L33,102.143729 L33,83 L50.5760856,88.4094626 L63,152.858662 Z M72.6476161,60.0866859 C74.9357294,63.2708997 78.0268007,65.6515033 81.5388697,66.9340534 C82.6707867,67.3473701 83.829998,67.6368013 85,67.8097083 C84.1586395,67.9340635 83.3118837,68 82.4648105,68 L81.2467262,68 C79.221558,68 77.1963897,67.6447889 75.2502477,66.9340534 C71.7384961,65.6515033 68.6472661,63.2708997 66.3591529,60.0866859 L63.3240981,55.8631507 C61.3035318,53.0512194 59.9865853,48.62361 59.4932262,45.1010999 C59.4932262,45.1010999 59.4251494,44.2210597 58.8975138,44.2105662 C56.5711569,44.1642071 54.8582854,41.3377102 54.3654024,37.3249837 C54.3654024,37.3249837 52.2653337,26.832317 58.1343863,26.8666165 C58.1343863,26.8666165 58.1493029,25.847029 58.4450961,24.1704264 L58.8775192,21.7202841 C60.0981425,14.8029081 64.4407812,10.7352084 70.3382388,8.11168931 C71.81419,7.48521469 75.8778563,6.00485518 81.2467262,6 L82.4648105,6 C83.347271,6.00078309 84.1937095,6.0419738 85,6.11213896 C80.9012638,6.46907287 77.8600203,7.58811315 76.626702,8.11168931 C70.7292444,10.7352084 66.3866058,14.8029081 65.1659825,21.7202841 L65.0147534,22.5776146 C64.462204,26.1914335 64.4937828,30.0650826 64.4941001,30.0918644 C64.6132744,34.2218983 64.9176367,41.2438957 65.6531527,44.5902098 L65.6528354,44.5903664 C65.7605841,44.8324989 65.7816895,45.1010999 65.7816895,45.1010999 C66.2750485,48.62361 67.5919951,53.0512194 69.6125614,55.8631507 L72.6476161,60.0866859 Z M38,76 L82,92.1469446 L82,93 L38,79.9521925 L38,76 Z M135,128.767417 C135,128.767417 130.631132,129.926957 127.135324,127.067951 C127.122759,127.05755 127.108487,127.04562 127.093129,127.032619 C126.146228,126.247814 125.265257,125.166128 124.554926,123.682479 C124.033231,122.646832 123.573897,121.371353 123.332983,119.847631 C123.314523,119.754176 123.295442,119.662404 123.278068,119.567114 C123.278068,119.567114 121.915424,111.568872 125.223062,108.210321 C125.751273,107.64271 126.404982,107.215205 127.212888,107 L127.212888,121.238742 L127.212888,121.253426 C127.214129,121.600171 127.334043,128.536763 135,128.767417 Z M23,107.388741 C23,107.388741 23.0383816,102.245264 27,103.09472 L27,129 C25.0801215,128.561109 23,127.225552 23,123.495527 L23,107.388741 Z" class="illustration-secondary" fill="#B3CBE8" opacity="0.5"></path> 

        <path d="M58.0947648,28.1518396 C56.4938612,28.2277998 55.6712946,29.6037603 55.4678529,32.2233388 C55.3747141,33.4226229 55.4353058,34.7289895 55.594161,36.0020458 C55.6312592,36.2993483 55.6708955,36.5702396 55.7103066,36.8086003 C55.7238894,36.89075 55.7363856,36.9625483 55.7474474,37.0232377 C56.2047245,40.7356613 57.5899433,42.9196976 59.0347427,42.9488874 C59.8709425,42.9657525 60.3733506,43.4928105 60.6295595,44.1789714 C60.6943266,44.3524261 60.7385158,44.5259699 60.7686533,44.6977409 C60.7828206,44.7784888 60.7922066,44.8488569 60.7980082,44.9065452 C61.3228572,48.6785994 62.6578436,52.6661146 64.3348662,55.0322252 L67.3080012,59.2268081 C69.4103553,62.1929718 72.242026,64.4038969 75.4499371,65.5914821 C77.2126225,66.244174 79.0535203,66.5749068 80.9033369,66.5749068 L82.0965659,66.5749068 C83.9463698,66.5749068 85.7872807,66.2441782 87.5501819,65.5914596 C90.7579056,64.4038901 93.5895691,62.1929414 95.6919131,59.2267919 L98.6650199,55.0322489 C100.342161,52.6659713 101.677269,48.6782098 102.201891,44.9065774 C102.207693,44.8488831 102.21708,44.7785039 102.23125,44.6977409 C102.261387,44.5259699 102.305576,44.3524261 102.370343,44.1789714 C102.626552,43.4928105 103.12896,42.9657525 103.96512,42.9488882 C105.410041,42.919698 106.79518,40.7357875 107.226372,37.1768998 C107.263665,36.9625773 107.276159,36.8907853 107.28974,36.8086427 C107.329145,36.5703022 107.368774,36.2994329 107.405866,36.0021535 C107.564711,34.7290735 107.625288,33.4226728 107.532129,32.2233568 C107.335679,29.6942919 106.562164,28.3243785 105.068316,28.1643686 C104.729579,28.3866278 104.289172,28.6059772 103.733471,28.8087529 C103.497071,28.8950154 103.24379,28.9763482 102.973008,29.0523671 C102.968343,29.0721899 102.963583,29.0921386 102.958729,29.1122102 C102.80659,29.7412949 102.591504,30.371801 102.298066,30.9705727 C101.360604,32.8834993 99.8210107,34.0844948 97.6370963,33.9953568 C97.0038181,33.9695092 96.4994641,33.4732869 96.4831535,32.8600191 C96.4826546,32.8412609 96.4816026,32.8038441 96.4799722,32.7490175 C96.4772348,32.6569659 96.4738683,32.5499945 96.4698475,32.4293531 C96.4583373,32.0839929 96.443907,31.6988894 96.426358,31.2840628 C96.3762546,30.0997116 96.3112893,28.9157493 96.230016,27.8133074 C96.1439523,26.645885 96.0444577,25.6404576 95.9318025,24.8507272 C95.8828438,24.50752 95.8306432,24.2092056 95.7816789,23.9714473 C95.5144435,23.9597114 95.2265424,23.9378736 94.9219975,23.9034503 C93.9556628,23.7942236 92.9994725,23.5754424 92.093271,23.2176394 C90.4987009,22.5880423 89.2100084,21.5895659 88.3582677,20.185869 C87.5748929,20.8503984 86.6686572,21.5085923 85.6411308,22.1262793 C83.3122383,23.5262694 80.6614947,24.5397893 77.7027018,25.0004528 C74.279474,25.5334255 70.6183507,25.2942778 66.7430481,24.1557342 C66.7308665,24.2118253 66.7189213,24.2711713 66.7072653,24.3336404 C66.5685615,25.077009 66.4852763,26.1725152 66.4538337,27.5111385 C66.4264623,28.6764354 66.4394346,29.9298431 66.4777825,31.1445184 C66.4861565,31.4097657 66.4951206,31.6513529 66.5040694,31.8643472 C66.5071875,31.9385601 66.5100751,32.0037913 66.5126566,32.0594258 C66.5141812,32.0922825 66.5152483,32.1143198 66.5157821,32.1249234 C66.5503242,32.8110766 65.9677669,33.3773727 65.2586865,33.3469292 C62.865288,33.2441715 61.1642029,32.2425582 60.1414953,30.6583661 C59.7661071,30.0768832 59.511625,29.4613478 59.3525029,28.846201 C59.3427808,28.8086164 59.333529,28.7714433 59.3247336,28.734702 C58.8697015,28.5478611 58.4588748,28.3506616 58.0947648,28.1518396 Z M59.5205412,26.2470825 C59.8019317,26.3896535 60.1176774,26.5316089 60.4654105,26.6668742 C60.5789161,26.7110269 60.6946094,26.7539477 60.8124408,26.7955103 C61.2622403,26.9541682 61.5723555,27.3554707 61.6025176,27.8179039 C61.6027578,27.8215855 61.6061208,27.8539484 61.6145022,27.9105294 C61.6305764,28.0190425 61.6553782,28.1435806 61.6905764,28.2796526 C61.7920173,28.6718107 61.9539874,29.0635802 62.1855331,29.4222486 C62.6067057,30.0746523 63.2059523,30.5530285 64.0568149,30.8094536 C64.0267241,29.6853192 64.0188135,28.5398005 64.0442209,27.4581191 C64.0782805,26.008081 64.1695046,24.8081489 64.3353969,23.9190664 C64.4435925,23.3392035 64.5835336,22.8805861 64.7887696,22.5204711 C65.1767738,21.8396637 65.8729109,21.4270009 66.714674,21.6988478 C70.5152439,22.926469 74.0487578,23.2065808 77.3199057,22.6972858 C79.9470084,22.2882642 82.300298,21.3884768 84.3694549,20.1446241 C85.3845211,19.5344273 86.2631028,18.8817957 87.0002278,18.2321664 C87.2548895,18.0077327 87.4726239,17.8010219 87.6528351,17.6178048 C87.7554082,17.5135208 87.8194429,17.4441559 87.8443733,17.4155093 C88.463306,16.7043173 89.6511502,16.9457327 89.9222383,17.8378111 C90.4055375,19.4282193 91.4708057,20.4524444 93.0036812,21.0576821 C93.6912979,21.3291794 94.4387271,21.5001951 95.2015771,21.5864215 C95.7214437,21.645183 96.1748704,21.6577417 96.5172279,21.6447978 C97.0429795,21.6091854 97.4849499,21.8377323 97.7146749,22.2291799 C98.1690403,23.0034108 98.4230691,24.7841905 98.6341394,27.6472815 C98.7173471,28.7759628 98.7835506,29.9824896 98.8345756,31.1886275 C98.8380901,31.271705 98.8414819,31.3536174 98.8447526,31.4342891 C99.3596846,31.1675705 99.7755352,30.6745194 100.120378,29.9708539 C100.333506,29.535958 100.496225,29.0589631 100.611926,28.5805469 C100.65253,28.4126545 100.684078,28.2577406 100.707498,28.12072 C100.720641,28.0438284 100.727747,27.9939804 100.729864,27.9759927 C100.787928,27.482802 101.162136,27.0792091 101.66247,26.9701542 C102.13423,26.8673276 102.539614,26.7513303 102.883193,26.6259579 C103.127751,26.5367185 103.328366,26.4478956 103.489499,26.3626002 C103.488482,26.3504841 103.487444,26.3383022 103.486382,26.3260141 C103.439523,25.7833963 103.359734,25.159782 103.239091,24.4665655 L102.815486,22.0330426 C102.193999,18.462187 100.684717,15.6190693 98.3108817,13.3377854 C97.9307957,12.9725182 97.8302098,12.403329 98.0620635,11.9297887 L98.6316046,10.7665523 L97.3018287,10.4624091 C96.9864441,10.3902752 96.7129799,10.194948 96.5423349,9.91992591 L95.9394643,8.94830205 L94.6180744,9.85702586 C94.2535758,10.1076927 93.7815456,10.1397458 93.3865435,9.94065275 C93.0329513,9.76243158 92.6689317,9.58883657 92.2939925,9.41947857 C89.6482497,8.28255981 86.133223,7.42879473 82.0965659,7.42509321 L80.9044473,7.4250927 C76.8666199,7.42879479 73.3515465,8.28258571 70.7057899,9.4195303 C64.704188,12.1288368 61.2201638,16.0822056 60.1844242,22.0329988 L59.7609559,24.4666315 C59.6460592,25.126474 59.5682022,25.7232207 59.5205412,26.2470825 Z M96.8264628,74.0904032 C93.5097314,77.8258919 87.9122138,80 81.4888789,80 C74.9505534,80 69.3179654,77.7926873 66.0345655,73.9657802 C65.0886184,75.3211875 63.8183746,76.5790461 62.2604241,77.7133392 C62.2205514,77.7421358 62.1491898,77.7928386 62.0495388,77.8623531 C61.8861271,77.9763459 61.7009236,78.102884 61.4970935,78.2388865 C60.9152038,78.6271435 60.2978805,79.0153977 59.6694398,79.3793084 C59.3799724,79.5469301 59.0940493,79.7058443 58.8128856,79.8547157 C58.2174907,80.1699672 57.4725815,79.9551688 57.1490844,79.37495 C56.8255872,78.7947312 57.0460038,78.0688091 57.6413987,77.7535576 C57.8938673,77.6198798 58.1526138,77.4760701 58.4159457,77.3235827 C58.9953597,76.9880619 59.5695663,76.6269252 60.1108062,76.2657912 C60.3000714,76.1395069 60.4713351,76.0224929 60.6212528,75.9179133 C60.673145,75.8817144 60.7184785,75.8497903 60.7568387,75.8225351 C60.7789455,75.8068281 60.7932642,75.7965688 60.7955747,75.7949112 C63.8218045,73.5916024 65.478549,70.9652169 65.5465201,68.1673439 C65.5625576,67.5071976 66.1247103,66.9847129 66.8021232,67.0003417 C67.4795362,67.0159704 68.0156869,67.5637943 67.9996494,68.2239405 C67.9709731,69.4043318 67.7308205,70.5485539 67.2948744,71.6454555 C69.9276607,75.3560284 75.1715271,77.6052223 81.4888789,77.6052223 C87.5298716,77.6052223 92.6432606,75.5015205 95.3832932,72.0424229 C94.5220995,70.5195783 94.0415905,68.8874679 94.0003506,67.2096687 C93.9843136,66.5572201 94.5204489,66.0157842 95.1978425,66.0003377 C95.875236,65.9848912 96.4373726,66.5012835 96.4534097,67.1537321 C96.5223995,69.9605047 98.225713,72.7006073 101.200429,74.841228 C101.206542,74.8455918 101.220853,74.8557271 101.242951,74.8712451 C101.281296,74.8981733 101.326612,74.9297147 101.378485,74.9654799 C101.528349,75.0688077 101.699555,75.1844213 101.888758,75.3091948 C102.429823,75.6660092 103.003863,76.0228266 103.583131,76.3543342 C103.846748,76.5051982 104.105771,76.6474646 104.358503,76.7796911 C104.953916,77.0912046 105.174407,77.808639 104.850983,78.3821259 C104.52756,78.9556127 103.782696,79.1679841 103.187283,78.8564707 C102.9058,78.7092019 102.619549,78.551981 102.329749,78.3861324 C101.701431,78.0265545 101.084254,77.6429233 100.50252,77.259289 C100.298744,77.1249054 100.113591,76.9998733 99.950226,76.8872369 C99.8506018,76.8185484 99.779259,76.7684473 99.7356047,76.7372743 C98.6161372,75.9317038 97.6403712,75.0428457 96.8264628,74.0904032 Z M91.0866258,114.995585 C91.0580763,114.998508 91.0291841,115 91,115 C90.4477153,115 90,114.465737 90,113.806689 L90,96.3529747 L81.562178,98.9473455 C81.186574,99.0628322 80.7967234,98.9879516 80.50009,98.7780714 C80.2034343,98.9880503 79.813502,99.0629851 79.437822,98.9474741 L33.4059585,84.7939842 L33.4059585,100.81659 C33.4059585,101.470169 32.8673663,102 32.2029792,102 C31.5385922,102 31,101.470169 31,100.81659 L31,83.1842349 C31,82.3858338 31.7872092,81.8165301 32.5618566,82.0547122 L80.1555767,96.6884287 C80.2822873,96.7273886 80.3977888,96.7850657 80.4999204,96.8574012 C80.6020911,96.7850134 80.7176469,96.7272971 80.8444233,96.6883172 L98.3332752,91.311033 C98.510201,91.1176137 98.7438538,91 99,91 C99.0808612,91 99.1594807,91.0117209 99.2347817,91.0338475 L128.438143,82.0547118 C129.212791,81.8165315 130,82.3858309 130,83.1842259 L130,100.816599 C130,101.470173 129.461408,102 128.797021,102 C128.132634,102 127.594042,101.470173 127.594042,100.816599 L127.594042,84.793963 L100,93.2782822 L100,110.778746 C100,110.828561 99.9975578,110.87768 99.9928115,110.925933 C100.015759,111.141849 99.9843167,111.366822 99.8905539,111.578466 C99.6158717,112.198484 98.910357,112.469311 98.3147427,112.183374 L95.3188073,110.745115 L92.0795016,114.580056 C91.8208667,114.886248 91.4490836,115.027487 91.0866258,114.995585 Z M92,110.929749 L94.1199516,108.419986 C94.4669374,108.009198 95.0320034,107.884612 95.5091795,108.11369 L98,109.309459 L98,93.8932207 L92,95.7380362 L92,110.929749 Z M79.9462392,90.6294589 L123.382283,75.072339 C124.16911,74.7905277 125,75.367122 125,76.1949506 L125,78.4922785 C125,79.1516631 124.459665,79.6861999 123.793129,79.6861999 C123.126592,79.6861999 122.586257,79.1516631 122.586257,78.4922785 L122.586257,77.8969662 L80.6180458,92.9283652 C80.4131127,93.0017644 80.2011998,93.0168789 80.0008507,92.9823009 C79.7975837,93.0170891 79.5824306,93.0015756 79.3748519,92.9270386 L37.4137427,77.8597192 L37.4137427,78.735051 C37.4137427,79.3834014 36.873408,79.9089933 36.2068714,79.9089933 C35.5403347,79.9089933 35,79.3834014 35,78.735051 L35,76.1749818 C35,75.3578884 35.8367864,74.7907162 36.6248202,75.0736819 L79.9462392,90.6294589 Z M31,134.083847 C31,133.485255 31.4477153,133 32,133 C32.5522847,133 33,133.485255 33,134.083847 L33,152.916153 C33,153.514745 32.5522847,154 32,154 C31.4477153,154 31,153.514745 31,152.916153 L31,134.083847 Z M129,134.217952 C129,133.545296 129.447715,133 130,133 C130.552285,133 131,133.545296 131,134.217952 L131,153.782048 C131,154.454704 130.552285,155 130,155 C129.447715,155 129,154.454704 129,153.782048 L129,134.217952 Z M74.1302105,113.634672 C74.7820716,113.832746 75.1464654,114.510567 74.9441068,115.148626 C74.7417482,115.786686 74.0492664,116.143364 73.3974053,115.94529 L41.8697895,106.365328 C41.2179284,106.167254 40.8535346,105.489433 41.0558932,104.851374 C41.2582518,104.213314 41.9507336,103.856636 42.6025947,104.05471 L74.1302105,113.634672 Z M74.1226329,123.758866 C74.7801742,123.946541 75.1477422,124.588773 74.9436191,125.19333 C74.739496,125.797887 74.040979,126.135837 73.3834377,125.948162 L42.8773671,117.241134 C42.2198258,117.053459 41.8522578,116.411227 42.0563809,115.80667 C42.260504,115.202113 42.959021,114.864163 43.6165623,115.051838 L74.1226329,123.758866 Z M74.1302105,134.634672 C74.7820716,134.832746 75.1464654,135.510567 74.9441068,136.148626 C74.7417482,136.786686 74.0492664,137.143364 73.3974053,136.94529 L41.8697895,127.365328 C41.2179284,127.167254 40.8535346,126.489433 41.0558932,125.851374 C41.2582518,125.213314 41.9507336,124.856636 42.6025947,125.05471 L74.1302105,134.634672 Z M90.6046206,125.946794 C89.9532618,126.138182 89.2601886,125.79695 89.0565983,125.18463 C88.853008,124.572311 89.2159961,123.920778 89.867355,123.72939 L119.395379,115.053206 C120.046738,114.861818 120.739811,115.20305 120.943402,115.81537 C121.146992,116.427689 120.784004,117.079222 120.132645,117.27061 L90.6046206,125.946794 Z M90.61485,133.946504 C89.959338,134.138934 89.2618463,133.795842 89.0569587,133.180187 C88.8520711,132.564532 89.2173744,131.909449 89.8728864,131.717019 L119.38515,123.053496 C120.040662,122.861066 120.738154,123.204158 120.943041,123.819813 C121.147929,124.435468 120.782626,125.090551 120.127114,125.282981 L90.61485,133.946504 Z M98.5573376,138.944379 C97.9251692,139.144458 97.252518,138.787721 97.0549291,138.147585 C96.8573402,137.507448 97.2096365,136.826319 97.8418049,136.626239 L115.442662,131.055621 C116.074831,130.855542 116.747482,131.212279 116.945071,131.852415 C117.14266,132.492552 116.790364,133.173681 116.158195,133.373761 L98.5573376,138.944379 Z M77,102.215742 C77,101.544306 77.4477153,101 78,101 C78.5522847,101 79,101.544306 79,102.215742 L79,152.784258 C79,153.455694 78.5522847,154 78,154 C77.4477153,154 77,153.455694 77,152.784258 L77,102.215742 Z M83,102.215742 C83,101.544306 83.4477153,101 84,101 C84.5522847,101 85,101.544306 85,102.215742 L85,152.784258 C85,153.455694 84.5522847,154 84,154 C83.4477153,154 83,153.455694 83,152.784258 L83,102.215742 Z M136.176076,130.156313 C129.23603,133.377654 122,126.960512 122,117.932383 L122,113.759646 C122,110.050964 123.847821,106.696886 126.701793,105.372161 L133.200645,102.355531 C136.072529,101.022293 139,103.618365 139,107.150462 L139,125.17742 C139,127.362485 137.902297,129.355027 136.176076,130.156313 Z M135.205868,127.871094 C136.018205,127.494019 136.608807,126.421963 136.608807,125.17742 L136.608807,107.150462 C136.608807,105.278195 135.299266,104.116898 134.17091,104.640724 L127.671997,107.657382 C125.731897,108.557916 124.391193,110.991499 124.391193,113.759646 L124.391193,117.932383 C124.391193,125.30073 130.009391,130.283127 135.205868,127.871094 Z M24.8239403,130.156317 C23.0977034,129.355024 22,127.362483 22,125.17742 L22,107.150475 C22,103.61837 24.9273168,101.02231 27.79914,102.355518 L34.2981981,105.372171 C37.1521788,106.696899 39,110.050975 39,113.759655 L39,117.932388 C39,126.960511 31.7639705,133.377648 24.8239403,130.156317 Z M25.7941483,127.8711 C30.990609,130.283124 36.6088071,125.30073 36.6088071,117.932388 L36.6088071,113.759655 C36.6088071,110.991509 35.2681028,108.557928 33.3280038,107.657395 L26.8288854,104.640714 C25.7006139,104.116928 24.3911929,105.278175 24.3911929,107.150475 L24.3911929,125.17742 C24.3911929,126.421962 24.9817949,127.494017 25.7941483,127.8711 Z M105.203154,21.6169424 L105.626761,24.0504774 C105.739712,24.6994909 105.820682,25.2972618 105.874812,25.836935 C107.104341,26.1007395 108.081775,26.8164661 108.767049,27.9016769 C109.453819,28.9892575 109.820642,30.3900374 109.948452,32.0354344 C110.055973,33.4196393 109.988227,34.8806275 109.810806,36.3025892 C109.7696,36.6328423 109.725339,36.9353672 109.680852,37.2044462 C109.65896,37.336863 109.640584,37.4401173 109.627175,37.5112155 C109.098155,41.7992132 107.275832,44.8861011 104.59104,45.3215118 C104.009709,49.4221033 102.562007,53.7261097 100.641919,56.4351615 L97.6688067,60.6297119 C95.2881898,63.9884703 92.0634934,66.5062972 88.3912178,67.865854 C86.35947,68.6181137 84.2338037,69 82.0965659,69 L80.9033369,69 C78.766073,69 76.6403981,68.6181046 74.6088878,67.8658715 C70.9364569,66.5063187 67.7117411,63.98851 65.3311076,60.6297281 L62.3579673,56.4351378 C60.4379851,53.7262355 58.9904207,49.4224937 58.4088671,45.3215128 C55.7241471,44.886097 53.901725,41.7990617 53.3728795,37.5112003 C53.3594694,37.4400973 53.3410924,37.3368445 53.3191995,37.2044349 C53.2747058,36.9353341 53.2304374,36.6327854 53.1892245,36.3025073 C53.0117918,34.8805725 52.9440301,33.4196213 53.0515275,32.0354524 C53.1793124,30.3900537 53.5461152,28.9892718 54.2328716,27.9016879 C54.918139,26.8164619 55.8955789,26.1007285 57.1251233,25.8369285 C57.1792818,25.2972279 57.2602948,24.6994409 57.3732916,24.0505091 L57.7967445,21.6169654 C58.9818235,14.8081496 63.0245394,10.2237801 69.7194859,7.2043078 C72.6662704,5.93603664 76.4980202,5.00403852 80.9033369,5 L82.0976762,5.00000051 C86.5018826,5.00403852 90.3336325,5.93603664 93.2612168,7.19584772 C93.4653672,7.28777063 93.6478346,7.37217062 93.82811,7.45766105 L95.6129729,6.2302054 C96.1827622,5.83835951 96.9641864,6.0021744 97.328869,6.58991957 L98.3347188,8.21100979 L100.662822,8.74348793 C101.424481,8.91769265 101.824758,9.7569595 101.481019,10.459014 L100.617704,12.2222573 C103.005256,14.7520335 104.548963,17.8581823 105.203154,21.6169424 Z M59.9664527,40.4648562 C60.1171248,41.1282028 59.7460874,41.7991331 59.1377175,41.9634211 C58.5293476,42.127709 57.9140224,41.7231421 57.7633502,41.0597955 C57.7378244,40.9474157 57.6951074,40.7480739 57.6409379,40.4762217 C57.551516,40.0274537 57.4622638,39.5355561 57.3789392,39.0147372 C57.2154667,37.9929549 57.0948316,36.9863195 57.0350541,36.0350679 C57.0187053,35.7749055 57.0070938,35.5208591 57.0004896,35.2733839 C56.9822602,34.590285 57.4753489,34.0204106 58.1018342,34.0005338 C58.7283194,33.9806571 59.2509639,34.5183048 59.2691934,35.2014037 C59.2749081,35.4155487 59.2850428,35.6372844 59.2994089,35.8658946 C59.3532319,36.722392 59.4639748,37.6464822 59.6148377,38.5894483 C59.6925188,39.0749926 59.7757727,39.5338316 59.8588569,39.9507939 C59.8877654,40.0958723 59.9145006,40.2249776 59.9383428,40.3362386 C59.9522741,40.4012498 59.9618841,40.4447428 59.9664527,40.4648562 Z M104.236527,41.0598573 C104.085831,41.7231954 103.470517,42.1277278 102.862184,41.9634057 C102.253851,41.7990836 101.882864,41.1281325 102.03356,40.4647944 C102.038129,40.4446827 102.04774,40.4011919 102.061673,40.3361834 C102.085518,40.2249264 102.112257,40.0958256 102.14117,39.9507519 C102.224265,39.5338026 102.307531,39.0749771 102.385223,38.5894463 C102.536112,37.646476 102.646872,36.7223812 102.7007,35.8658825 C102.715067,35.6372762 102.725202,35.4155445 102.730917,35.2014037 C102.749145,34.5183048 103.271764,33.9806571 103.898219,34.0005338 C104.524674,34.0204106 105.017739,34.590285 104.99951,35.2733839 C104.992906,35.5208633 104.981294,35.7749137 104.964943,36.03508 C104.905159,36.9863574 104.784502,37.993018 104.620999,39.0148242 C104.537661,39.5356369 104.448395,40.0275278 104.358959,40.4762892 C104.304781,40.7481381 104.262057,40.9474777 104.236527,41.0598573 Z" class="illustration-primary" fill="#2157AA"></path> 

    </g> 

</svg> 