<svg width="160px" height="160px" viewBox="0 0 160 160" version="1.1" 

    xmlns="http://www.w3.org/2000/svg" 

    xmlns:xlink="http://www.w3.org/1999/xlink"> 

    <!-- Generator: Sketch 58 (84663) - https://sketch.com --> 

    <title>illustration / CTA Standard / Feature / Risk Management BGABlue</title> 

    <desc>Created with Sketch.</desc> 

    <g class="illustration-/-CTA-Standard-/-Feature-/-Risk-Management-BGABlue" stroke="none" stroke-width="1" fill="none" fill-rule="evenodd"> 

        <ellipse class="illustration-shape" fill="#C8D9EE" cx="80.5" cy="80" rx="67.5" ry="68"></ellipse> 

        <path d="M147.0773,136.6736 C152.3353,136.6736 156.5983,138.8156 156.5983,141.4576 C156.5983,144.1006 152.3353,147.8176 147.0773,147.8176 C141.8193,147.8176 137.5563,144.1006 137.5563,141.4576 C137.5563,138.8156 141.8193,136.6736 147.0773,136.6736 Z M43.2487,123.2768 L116.6167,123.2768 L116.6167,129.2398 L116.6328,129.24 L130.9118,145.357 L28.8958,145.357 L43.1748,129.24 L43.2487,129.2398 L43.2487,123.2768 Z M79.9038,100.9897 C83.4518,100.9897 86.3278,103.8657 86.3278,107.4127 C86.3278,110.9607 83.4518,113.8367 79.9038,113.8367 C76.3558,113.8367 73.4798,110.9607 73.4798,107.4127 C73.4798,103.8657 76.3558,100.9897 79.9038,100.9897 Z M155.1872,4.4994 C156.9112,4.4994 158.3072,5.8974 158.3072,7.6194 L158.3072,88.4294 C158.3072,90.1524 156.9112,91.5494 155.1872,91.5494 L4.6202,91.5494 C2.8972,91.5494 1.5002,90.1524 1.5002,88.4294 L1.5002,7.6194 C1.5002,5.8974 2.8972,4.4994 4.6202,4.4994 L155.1872,4.4994 Z" class="illustration-fill" fill="#EDEEF1"></path> 

        <path d="M156.8848,143.296 C157.1758,143.774 157.3338,144.281 157.3338,144.807 C157.3338,147.653 152.7418,151.659 147.0768,151.659 C141.4128,151.659 136.8208,147.653 136.8208,144.807 C136.8208,144.281 136.9778,143.774 137.2698,143.296 C138.5558,145.821 142.4598,148.483 147.0768,148.483 C151.6948,148.483 155.5988,145.821 156.8848,143.296 Z M95.7677,91.5494 L95.7677,107.4124 L86.4317,107.4124 C86.4317,103.8084 83.5087,100.8854 79.9037,100.8854 C76.3770696,100.8854 73.5040663,103.682694 73.3808197,107.178345 L73.3767,107.4124 L64.0397,107.4124 L64.0397,91.5494 L95.7677,91.5494 Z M28.3073,4.6295 L28.3462575,4.8325 L158.307,4.833 L158.307,14.3 L30.1842575,14.2995 L43.3052575,81.9145 L158.307,81.915 L158.307,91.382 L45.1422575,91.3815 L45.1753,91.5495 L6.8133,91.5495 C6.8133,91.5495 6.39099734,91.5263519 5.78100461,91.3820189 L1.499,91.382 L1.49748548,87.5030903 C1.39646414,87.0741079 1.34025752,86.5998313 1.34025752,86.0755 L1.34052892,10.057062 C1.3428398,9.91155523 1.36126928,9.4301399 1.49823897,8.81009278 L1.499,4.833 L5.10506998,4.83256408 C5.60513338,4.70284894 6.17160436,4.6295 6.8133,4.6295 L28.3073,4.6295 Z M67.0489,45.2684 L69.4749,47.6954 C69.9919,48.2124 70.2829,48.9134 70.2829,49.6444 L70.2829,49.6444 L70.2829,63.1304 C70.2829,64.0574 71.0339,64.8094 71.9609,64.8094 L71.9609,64.8094 L88.3369,64.8094 C89.0669,64.8094 89.7679,65.0994 90.2849,65.6154 L90.2849,65.6154 L92.7119,68.0434 C91.9969,68.7584 91.0089,69.2004 89.9179,69.2004 L89.9179,69.2004 L69.8429,69.2004 C67.6599,69.2004 65.8909,67.4314 65.8909,65.2484 L65.8909,65.2484 L65.8909,48.0634 C65.8909,46.9714 66.3339,45.9844 67.0489,45.2684 L67.0489,45.2684 Z M33.3922,145.0003 L32.0622,145.0003 L25.4262,152.3523 C24.4802,153.4003 25.2112,155.0943 26.6132,155.0943 L83.0192,155.0943 L133.9832,155.0943 C135.3842,155.0943 136.1172,153.4003 135.1692,152.3523 L129.2042,145.5093 L127.9102,145.5093 L33.3922,145.0003 Z" class="illustration-secondary" fill="#B3CBE8"></path> 

        <path d="M130.9122,149.5465 C131.740627,149.5465 132.4122,150.218073 132.4122,151.0465 C132.4122,151.826196 131.817312,152.466949 131.05666,152.539633 L130.9122,152.5465 L28.8962,152.5465 C28.0677729,152.5465 27.3962,151.874927 27.3962,151.0465 C27.3962,150.266804 27.9910881,149.626051 28.75174,149.553367 L28.8962,149.5465 L130.9122,149.5465 Z M147.0773,135.1736 C153.057078,135.1736 158.0983,137.706646 158.0983,141.4576 C158.0983,145.348934 152.669692,149.3176 147.0773,149.3176 C141.484908,149.3176 136.0563,145.348934 136.0563,141.4576 C136.0563,137.706646 141.097522,135.1736 147.0773,135.1736 Z M43.2487,121.7768 L116.6167,121.7768 C117.396396,121.7768 118.037149,122.371688 118.109833,123.13234 L118.1167,123.2768 L118.1162,128.6514 L132.034546,144.362293 C132.862487,145.296808 132.250463,146.752367 131.04337,146.851639 L130.9118,146.857 L28.8958,146.857 C27.6472793,146.857 26.9636533,145.433665 27.6898176,144.464328 L27.7730541,144.362293 L41.7482,128.5864 L41.7487,123.2768 C41.7487,122.497104 42.3435881,121.856351 43.10424,121.783667 L43.2487,121.7768 L116.6167,121.7768 Z M147.0773,138.1736 C142.541048,138.1736 139.0563,139.92457 139.0563,141.4576 C139.0563,143.452735 142.975055,146.3176 147.0773,146.3176 C151.179545,146.3176 155.0983,143.452735 155.0983,141.4576 C155.0983,139.92457 151.613552,138.1736 147.0773,138.1736 Z M115.957723,130.74 L43.8498769,130.74 L32.2287537,143.857 L127.578846,143.857 L115.957723,130.74 Z M118.1076,138.4761 C118.936027,138.4761 119.6076,139.147673 119.6076,139.9761 C119.6076,140.755796 119.012712,141.396549 118.25206,141.469233 L118.1076,141.4761 L113.6296,141.4761 C112.801173,141.4761 112.1296,140.804527 112.1296,139.9761 C112.1296,139.196404 112.724488,138.555651 113.48514,138.482967 L113.6296,138.4761 L118.1076,138.4761 Z M86.856,138.4761 C87.6844271,138.4761 88.356,139.147673 88.356,139.9761 C88.356,140.755796 87.7611119,141.396549 87.00046,141.469233 L86.856,141.4761 L72.527,141.4761 C71.6985729,141.4761 71.027,140.804527 71.027,139.9761 C71.027,139.196404 71.6218881,138.555651 72.38254,138.482967 L72.527,138.4761 L86.856,138.4761 Z M46.1789,138.4761 C47.0073271,138.4761 47.6789,139.147673 47.6789,139.9761 C47.6789,140.755796 47.0840119,141.396549 46.32336,141.469233 L46.1789,141.4761 L41.6999,141.4761 C40.8714729,141.4761 40.1999,140.804527 40.1999,139.9761 C40.1999,139.196404 40.7947881,138.555651 41.55544,138.482967 L41.6999,138.4761 L46.1789,138.4761 Z M56.4543,138.4761 C57.2827271,138.4761 57.9543,139.147673 57.9543,139.9761 C57.9543,140.755796 57.3594119,141.396549 56.59876,141.469233 L56.4543,141.4761 L51.9763,141.4761 C51.1478729,141.4761 50.4763,140.804527 50.4763,139.9761 C50.4763,139.196404 51.0711881,138.555651 51.83184,138.482967 L51.9763,138.4761 L56.4543,138.4761 Z M66.7296,138.4761 C67.5580271,138.4761 68.2296,139.147673 68.2296,139.9761 C68.2296,140.755796 67.6347119,141.396549 66.87406,141.469233 L66.7296,141.4761 L62.2516,141.4761 C61.4231729,141.4761 60.7516,140.804527 60.7516,139.9761 C60.7516,139.196404 61.3464881,138.555651 62.10714,138.482967 L62.2516,138.4761 L66.7296,138.4761 Z M97.5568,138.4761 C98.3852271,138.4761 99.0568,139.147673 99.0568,139.9761 C99.0568,140.755796 98.4619119,141.396549 97.70126,141.469233 L97.5568,141.4761 L93.0778,141.4761 C92.2493729,141.4761 91.5778,140.804527 91.5778,139.9761 C91.5778,139.196404 92.1726881,138.555651 92.93334,138.482967 L93.0778,138.4761 L97.5568,138.4761 Z M107.8322,138.4761 C108.660627,138.4761 109.3322,139.147673 109.3322,139.9761 C109.3322,140.755796 108.737312,141.396549 107.97666,141.469233 L107.8322,141.4761 L103.3542,141.4761 C102.525773,141.4761 101.8542,140.804527 101.8542,139.9761 C101.8542,139.196404 102.449088,138.555651 103.20974,138.482967 L103.3542,138.4761 L107.8322,138.4761 Z M68.2469,133.1383 C69.0753271,133.1383 69.7469,133.809873 69.7469,134.6383 C69.7469,135.417996 69.1520119,136.058749 68.39136,136.131433 L68.2469,136.1383 L64.2839,136.1383 C63.4554729,136.1383 62.7839,135.466727 62.7839,134.6383 C62.7839,133.858604 63.3787881,133.217851 64.13944,133.145167 L64.2839,133.1383 L68.2469,133.1383 Z M77.3386,133.1383 C78.1670271,133.1383 78.8386,133.809873 78.8386,134.6383 C78.8386,135.417996 78.2437119,136.058749 77.48306,136.131433 L77.3386,136.1383 L73.3766,136.1383 C72.5481729,136.1383 71.8766,135.466727 71.8766,134.6383 C71.8766,133.858604 72.4714881,133.217851 73.23214,133.145167 L73.3766,133.1383 L77.3386,133.1383 Z M113.7088,133.1383 C114.537227,133.1383 115.2088,133.809873 115.2088,134.6383 C115.2088,135.417996 114.613912,136.058749 113.85326,136.131433 L113.7088,136.1383 L109.7458,136.1383 C108.917373,136.1383 108.2458,135.466727 108.2458,134.6383 C108.2458,133.858604 108.840688,133.217851 109.60134,133.145167 L109.7458,133.1383 L113.7088,133.1383 Z M50.0623,133.1383 C50.8907271,133.1383 51.5623,133.809873 51.5623,134.6383 C51.5623,135.417996 50.9674119,136.058749 50.20676,136.131433 L50.0623,136.1383 L46.0993,136.1383 C45.2708729,136.1383 44.5993,135.466727 44.5993,134.6383 C44.5993,133.858604 45.1941881,133.217851 45.95484,133.145167 L46.0993,133.1383 L50.0623,133.1383 Z M59.1541,133.1383 C59.9825271,133.1383 60.6541,133.809873 60.6541,134.6383 C60.6541,135.417996 60.0592119,136.058749 59.29856,136.131433 L59.1541,136.1383 L55.1921,136.1383 C54.3636729,136.1383 53.6921,135.466727 53.6921,134.6383 C53.6921,133.858604 54.2869881,133.217851 55.04764,133.145167 L55.1921,133.1383 L59.1541,133.1383 Z M104.616,133.1383 C105.444427,133.1383 106.116,133.809873 106.116,134.6383 C106.116,135.417996 105.521112,136.058749 104.76046,136.131433 L104.616,136.1383 L100.653,136.1383 C99.8245729,136.1383 99.153,135.466727 99.153,134.6383 C99.153,133.858604 99.7478881,133.217851 100.50854,133.145167 L100.653,133.1383 L104.616,133.1383 Z M86.4314,133.1383 C87.2598271,133.1383 87.9314,133.809873 87.9314,134.6383 C87.9314,135.417996 87.3365119,136.058749 86.57586,136.131433 L86.4314,136.1383 L82.4684,136.1383 C81.6399729,136.1383 80.9684,135.466727 80.9684,134.6383 C80.9684,133.858604 81.5632881,133.217851 82.32394,133.145167 L82.4684,133.1383 L86.4314,133.1383 Z M95.5242,133.1383 C96.3526271,133.1383 97.0242,133.809873 97.0242,134.6383 C97.0242,135.417996 96.4293119,136.058749 95.66866,136.131433 L95.5242,136.1383 L91.5612,136.1383 C90.7327729,136.1383 90.0612,135.466727 90.0612,134.6383 C90.0612,133.858604 90.6560881,133.217851 91.41674,133.145167 L91.5612,133.1383 L95.5242,133.1383 Z M115.1167,124.7768 L44.7487,124.7768 L44.7482,127.7394 L115.1162,127.7394 L115.1167,124.7768 Z M64.0397,95.929 C64.8193961,95.929 65.4601487,96.5238881 65.5328334,97.28454 L65.5397,97.429 L65.5397,117.397 C65.5397,118.225427 64.8681271,118.897 64.0397,118.897 C63.2600039,118.897 62.6192513,118.302112 62.5465666,117.54146 L62.5397,117.397 L62.5397,97.429 C62.5397,96.6005729 63.2112729,95.929 64.0397,95.929 Z M95.7673,95.9293 C96.5469961,95.9293 97.1877487,96.5241881 97.2604334,97.28484 L97.2673,97.4293 L97.2673,117.3973 C97.2673,118.225727 96.5957271,118.8973 95.7673,118.8973 C94.9876039,118.8973 94.3468513,118.302412 94.2741666,117.54176 L94.2673,117.3973 L94.2673,97.4293 C94.2673,96.6008729 94.9388729,95.9293 95.7673,95.9293 Z M79.9038,99.4897 C84.2800364,99.4897 87.8278,103.037082 87.8278,107.4127 C87.8278,111.789127 84.2802271,115.3367 79.9038,115.3367 C75.5273729,115.3367 71.9798,111.789127 71.9798,107.4127 C71.9798,103.037082 75.5275636,99.4897 79.9038,99.4897 Z M79.9038,102.4897 C77.1843457,102.4897 74.9798,104.694009 74.9798,107.4127 C74.9798,110.132273 77.1842271,112.3367 79.9038,112.3367 C82.6233729,112.3367 84.8278,110.132273 84.8278,107.4127 C84.8278,104.694009 82.6232543,102.4897 79.9038,102.4897 Z M155.1872,2.9994 C157.739085,2.9994 159.8072,5.06843064 159.8072,7.6194 L159.8072,88.4294 C159.8072,90.9810982 157.739356,93.0494 155.1872,93.0494 L4.6202,93.0494 C2.06877288,93.0494 0.000199999996,90.9808271 0.000199999996,88.4294 L0.000199999996,7.6194 C0.000199999996,5.06870183 2.06904382,2.9994 4.6202,2.9994 L155.1872,2.9994 Z M155.1872,5.9994 L4.6202,5.9994 C3.72604675,5.9994 3.0002,6.72540744 3.0002,7.6194 L3.0002,88.4294 C3.0002,89.3239729 3.72562712,90.0494 4.6202,90.0494 L155.1872,90.0494 C156.082353,90.0494 156.8072,89.3243927 156.8072,88.4294 L156.8072,7.6194 C156.8072,6.72498761 156.081934,5.9994 155.1872,5.9994 Z M152.4276,80.2486 C153.256027,80.2486 153.9276,80.9201729 153.9276,81.7486 C153.9276,82.5282961 153.332712,83.1690487 152.57206,83.2417334 L152.4276,83.2486 L7.3806,83.2486 C6.55217288,83.2486 5.8806,82.5770271 5.8806,81.7486 C5.8806,80.9689039 6.47548808,80.3281513 7.23613999,80.2554666 L7.3806,80.2486 L152.4276,80.2486 Z M90.4587,42.9108 C93.2274065,42.9108 95.4727,45.1556522 95.4727,47.9248 L95.4727,65.6868 C95.4727,68.4559478 93.2274065,70.7008 90.4587,70.7008 L69.3497,70.7008 C66.5802729,70.7008 64.3357,68.4562271 64.3357,65.6868 L64.3357,47.9248 C64.3357,45.1553729 66.5802729,42.9108 69.3497,42.9108 L90.4587,42.9108 Z M90.4587,45.9108 L69.3497,45.9108 C68.2371271,45.9108 67.3357,46.8122271 67.3357,47.9248 L67.3357,65.6868 C67.3357,66.7993729 68.2371271,67.7008 69.3497,67.7008 L90.4587,67.7008 C91.5706843,67.7008 92.4727,66.7989615 92.4727,65.6868 L92.4727,47.9248 C92.4727,46.8126385 91.5706843,45.9108 90.4587,45.9108 Z M79.7819,49.9097 C81.5539,49.9097 82.9909,51.3467 82.9909,53.1187 C82.9909,54.3487563 82.2984645,55.4178708 81.282202,55.9567658 L81.2819,60.0607 C81.2819,60.8891271 80.6103271,61.5607 79.7819,61.5607 C79.0022039,61.5607 78.3614513,60.9658119 78.2887666,60.20516 L78.2819,60.0607 L78.281598,55.9567658 C77.2653355,55.4178708 76.5729,54.3487563 76.5729,53.1187 C76.5729,51.3467 78.0099,49.9097 79.7819,49.9097 Z M79.9044,22.9538 C85.4575681,22.9538 89.9765125,27.3808926 90.1256015,32.898329 L90.1294,33.1798 L90.1294,38.5308 C90.1294,39.3592271 89.4578271,40.0308 88.6294,40.0308 C87.8497039,40.0308 87.2089513,39.4359119 87.1362666,38.67526 L87.1294,38.5308 L87.1294,33.1798 C87.1294,29.1889832 83.894729,25.9538 79.9044,25.9538 C75.9946522,25.9538 72.8107477,29.0581595 72.6824207,32.936422 L72.6784,33.1798 L72.6784,38.5308 C72.6784,39.3592271 72.0068271,40.0308 71.1784,40.0308 C70.3987039,40.0308 69.7579513,39.4359119 69.6852666,38.67526 L69.6784,38.5308 L69.6784,33.1798 C69.6784,27.5320541 74.2562917,22.9538 79.9044,22.9538 Z M152.4276,12.8004 C153.256027,12.8004 153.9276,13.4719729 153.9276,14.3004 C153.9276,15.0800961 153.332712,15.7208487 152.57206,15.7935334 L152.4276,15.8004 L7.3806,15.8004 C6.55217288,15.8004 5.8806,15.1288271 5.8806,14.3004 C5.8806,13.5207039 6.47548808,12.8799513 7.23613999,12.8072666 L7.3806,12.8004 L152.4276,12.8004 Z" class="illustration-primary" fill="#2157AA"></path> 

    </g> 

</svg> 