<svg xmlns="http://www.w3.org/2000/svg" viewBox="0 0 160 160"> 

 

    <g > 

        <g class="illustration-shape" fill="#C8D9EE"> 

            <circle class="cls-1" cx="80" cy="80" r="73.25" /> 

        </g> 

    </g> 

    <g > 

        <path class="illustration-secondary" fill="#B3CBE8" d="M114.5,125.73c-1.12-2-7.69-2.24-8.85-2.56-3.09,1.36-13.27,1.82-6.11,5.24,2.67.09,5.42-1.66,7.68.3C110.67,124.55,114.53,128.09,114.5,125.73ZM12.66,16l.17,62.83S25,75.8,36,77.28c4.83.65,8.51,4.67,12.35,6,5.45-1,6.73-.76,12,2.26,1-.66,2.71-1.29,3.16-.62,2.13,2.17,4.78.95,3.38,4.22,1.18,0,5.1,1.64,3.89,2.07,1.22,1-1.23,1.42-1.52,2.27.81.07,1.94,2.41,3,3.08a1.68,1.68,0,0,1,2.33-.13c1.47.67,4.89,2.89,3.41,4.58,0,.43,0,.37.46.6,2.85,1.49,4.91,4.24,4.62,5.85-.7,3.86,2.85,4.82,3.6,8.58a17.22,17.22,0,0,0,3.4-1.46c0-.17.92-.26.91-.9a3.6,3.6,0,0,0,1.15-3.44c.35-1.21,2.6-2.11,2.8-3.87,5.4-4.84,9.65-1.89,12.05-9.81.75-1.56,2.09-3,3.78-2.48.4-.78-.7-6.45.31-4.5,5.61,9.57-1.79,4.92.84,8.53,2,3.93-3.89,5-4.19,9-1.48,1.8,1.31,6-1.29,9-1.81-.66-4.38-1-5,.85-2.78,6.57,4.61-.92,8.3,1.67,2.25-3.26,2.21-8.13,4.24-11.36,4.72,4.29,7.86,11.14.49,16.29,1.88,1.42,9.86-.67,10.4-1.25-.9-.42-1.43-1-.11-1.39,2.32-1.13,3.7,1.44,2.75,1.28-2.93,2.26,4.37,8.15,4.37,8.15s0,1.06,2.11,4.4c-.81,4.59-2.88,7.71,3.11,10.24,7.77,9.73,10.24,6.52,10.24,6.52V17Z" /> 

    </g> 

    <g> 

        <g class="illustration-primary" fill="#2157AA"> 

            <path class="cls-3" d="M146,153.5c-2.64,0-5.85-2.39-9.83-7.3-5.76-2.6-4.88-6.32-4.1-9.62.12-.5.24-1,.35-1.55a16.25,16.25,0,0,1-1.89-3.88c-1.44-1.23-5.06-4.56-5.2-7.41a21.94,21.94,0,0,1-9.34,1.73,1.94,1.94,0,0,1,0,.24,2.32,2.32,0,0,1-.69,1.81,3.23,3.23,0,0,1-2.64.56,4.25,4.25,0,0,0-4.29,1.59,1.49,1.49,0,0,1-1,.53,1.47,1.47,0,0,1-1.11-.36c-.9-.78-1.95-.62-3.72-.28a13,13,0,0,1-3,.35,1.39,1.39,0,0,1-.6-.14c-1.76-.85-3.53-1.94-3.34-3.67.24-2.07,3-2.69,6.24-3.42a22.16,22.16,0,0,0,3.25-.88,1.57,1.57,0,0,1,1-.08c.17,0,.82.13,1.34.19a28.13,28.13,0,0,1,5.68,1.12,1.45,1.45,0,0,1,.55-.72c2.35-1.64,3.6-3.53,3.74-5.62s-.92-4.59-2.94-6.88a31.94,31.94,0,0,0-1,3.24,20.1,20.1,0,0,1-2.48,6.41,1.51,1.51,0,0,1-2.1.37c-1-.73-3.15.07-4.69.65s-3.22,1.23-4.29.12-.48-2.73.14-4.2a3.36,3.36,0,0,1,1.74-1.94,6.13,6.13,0,0,1,4-.13,7.1,7.1,0,0,0,.12-3.63c-.18-1.44-.36-2.92.36-4.13.31-2.11,1.75-3.5,2.92-4.64,1.57-1.53,1.92-2,1.42-3.06a3,3,0,0,1-.71-2.56,2,2,0,0,1,.49-.8l-.1,0c-.88-.29-1.68,1.13-1.92,1.6-1.68,5.45-4.36,6.42-7.19,7.46a14.71,14.71,0,0,0-4.9,2.61,6.31,6.31,0,0,1-1.95,2.68c-.2.18-.46.42-.63.61a5.27,5.27,0,0,1-1.37,4,2.44,2.44,0,0,1-1.25,1.22,13.47,13.47,0,0,1-3.93,1.76,1.51,1.51,0,0,1-1.23-.11,1.54,1.54,0,0,1-.73-1,7.52,7.52,0,0,0-1.7-3.16c-1.13-1.48-2.42-3.15-1.91-6,.12-.62-1.21-2.88-3.83-4.25l-.12-.06a1.84,1.84,0,0,1-1.14-1.74,1.53,1.53,0,0,1,.34-1.09A6.72,6.72,0,0,0,74,97.77l-.23-.14a.61.61,0,0,0-.33-.11,1.49,1.49,0,0,1-2,.28,8,8,0,0,1-1.8-1.94,12.08,12.08,0,0,0-.78-1,1.5,1.5,0,0,1-1-1.91,3.07,3.07,0,0,1,1.42-1.54,9.24,9.24,0,0,0-2.41-.82,1.51,1.51,0,0,1-1.34-2.09,4,4,0,0,0,.23-.64l-.42-.17a7.68,7.68,0,0,1-2.69-1.59,4.74,4.74,0,0,0-1.45.63,1.5,1.5,0,0,1-1.58.06c-5-2.87-6-3-11-2.08a1.44,1.44,0,0,1-.77-.06,24.41,24.41,0,0,1-5-2.68c-2.22-1.42-4.52-2.89-7.06-3.23-10.57-1.43-22.51,1.48-22.63,1.51A1.53,1.53,0,0,1,11.9,80a1.5,1.5,0,0,1-.57-1.18L11.16,16a1.5,1.5,0,0,1,.44-1.06,1.59,1.59,0,0,1,1.07-.44l134.68,1a1.51,1.51,0,0,1,1.49,1.5V151.49a1.5,1.5,0,0,1-.31.92,3.17,3.17,0,0,1-2.5,1.09Zm-12.6-23.22a14.21,14.21,0,0,0,1.87,3.65,1.55,1.55,0,0,1,.21,1.07c-.14.8-.32,1.55-.49,2.27-.81,3.43-1.11,4.71,2.7,6.32a1.46,1.46,0,0,1,.59.45c4.39,5.48,6.69,6.35,7.57,6.44v-132l-131.67-1L14.32,77c3.88-.79,13.19-2.34,21.9-1.17,3.19.44,5.89,2.16,8.27,3.68a24.94,24.94,0,0,0,4,2.24c5.2-1,6.94-.68,11.9,2.09a5.09,5.09,0,0,1,3-.64,2.2,2.2,0,0,1,1.29.75,4.9,4.9,0,0,0,1.77,1,3.42,3.42,0,0,1,2.16,1.72A2.8,2.8,0,0,1,68.82,88c1.55.48,3.53,1.37,3.73,2.67a1.51,1.51,0,0,1,0,.37,2.09,2.09,0,0,1,.11.78,2.27,2.27,0,0,1-1,1.66l.42.55c.13.18.28.38.44.58l.14,0a3.54,3.54,0,0,1,2.71.5c.74.35,4,2,4.47,4.37a2.67,2.67,0,0,1,0,1.16c2.77,1.68,5.19,4.63,4.74,7.08-.26,1.46.28,2.24,1.34,3.62a12.94,12.94,0,0,1,1.74,2.74c.62-.25,1.16-.48,1.41-.61a2.52,2.52,0,0,1,.57-.39,1.57,1.57,0,0,1,.51-.63,2.17,2.17,0,0,0,.59-1.78,1.48,1.48,0,0,1,0-.86,5,5,0,0,1,1.61-2.17c.53-.49,1.09-1,1.14-1.45a1.49,1.49,0,0,1,.49-1,17.58,17.58,0,0,1,6.23-3.5c2.58-.94,4.14-1.51,5.39-5.63a1.8,1.8,0,0,1,.08-.21,5.58,5.58,0,0,1,3.69-3.37c0-.36-.06-.73-.08-1-.18-2.12-.28-3.39,1.08-3.78.49-.14,1.4-.17,2.08,1.16,2,3.46,2.69,5.6,2.14,7.08a2.66,2.66,0,0,1-1.29,1.46c1.62,3.17-.45,5.18-2,6.66-1,1-2,1.93-2.07,3.14a1.48,1.48,0,0,1-.34.85c-.23.27-.09,1.42,0,2.25.22,1.77.52,4.15-.91,6.22a4.57,4.57,0,0,1,1.1.16,23.66,23.66,0,0,0,1.43-4.4,20.56,20.56,0,0,1,2.16-5.85,1.5,1.5,0,0,1,2.28-.31c3.63,3.29,5.58,7.21,5.35,10.75a9.24,9.24,0,0,1-2.4,5.58,30.36,30.36,0,0,0,4.53-.85,1.71,1.71,0,0,1,0-.32c0-.5.34-1.38,1.77-1.81a3.68,3.68,0,0,1,4.27.72,2.23,2.23,0,0,1,.6,2.58,1.66,1.66,0,0,1-.79.74v0c0,1.16,2.33,3.84,4.51,5.61A1.13,1.13,0,0,1,133.39,130.28Zm-34.28-3.8a8,8,0,0,0,.78.43,12.17,12.17,0,0,0,2-.29,7.94,7.94,0,0,1,5.06.16,6.78,6.78,0,0,1,2.7-1.49c-.74-.13-1.63-.27-2.69-.4-.53-.06-.92-.11-1.22-.16a29.92,29.92,0,0,1-3.34.88A34,34,0,0,0,99.11,126.48ZM124,121.09Zm-20.21-4a1.65,1.65,0,0,0-.71.12.36.36,0,0,0-.21.25l0,.1-.13.32.43-.16c.47-.18,1-.37,1.51-.55A5.72,5.72,0,0,0,103.78,117.05Zm-15.15-2.76v0Zm.88-.61ZM73.6,97.25ZM69.19,95h0Z" /> 

            <path class="cls-3" d="M75.92,56.63a4.3,4.3,0,0,1-1.66,3.59,7.16,7.16,0,0,1-4.55,1.3,10.89,10.89,0,0,1-4.76-.9V58a12.63,12.63,0,0,0,2.49.87,10.53,10.53,0,0,0,2.45.31,3.94,3.94,0,0,0,2.46-.63,2.08,2.08,0,0,0,.79-1.7,2.12,2.12,0,0,0-.73-1.63,11,11,0,0,0-3-1.58,7.83,7.83,0,0,1-3.3-2.17,4.59,4.59,0,0,1-1-2.93,4.08,4.08,0,0,1,1.52-3.37,6.33,6.33,0,0,1,4.09-1.23A12,12,0,0,1,75.66,45l-.89,2.28a10.77,10.77,0,0,0-4.08-1,3.14,3.14,0,0,0-2.06.59,2,2,0,0,0-.71,1.57,2.19,2.19,0,0,0,.29,1.14,2.83,2.83,0,0,0,.92.9,15.63,15.63,0,0,0,2.32,1.11,12.8,12.8,0,0,1,2.77,1.46,4.52,4.52,0,0,1,1.29,1.54A4.65,4.65,0,0,1,75.92,56.63Z" /> 

            <path class="cls-3" d="M90.82,61.29l-1.71-4.76H82.56l-1.68,4.76H77.93l6.41-17.21h3L93.8,61.29Zm-2.45-7.18-1.6-4.66c-.12-.31-.28-.8-.49-1.48s-.35-1.16-.43-1.47a27.16,27.16,0,0,1-.92,3.15l-1.55,4.46Z" /> 

        </g> 

    </g> 

</svg> 