<svg xmlns="http://www.w3.org/2000/svg" viewBox="0 0 211.88 160"><defs><style>.cls-1{fill:#f1dcb4;}.cls-2{fill:#e7bd4f;}</style></defs><g id="Fill"><path class="cls-1" d="M26.92,85.31c.47-.16,70.92-33,70.92-33l2.21-.48,1.42,1.74s.16,1.58.31,2.21.31,25.91.32,26.38a13.77,13.77,0,0,1-.95,2.53s-.31,1.26-3,1.42-19.58-.16-19.58-.16Z"/><path class="cls-1" d="M183.83,85.31c-.47-.16-70.91-33-70.91-33l-2.21-.48-1.43,1.74a22.31,22.31,0,0,1-.31,2.21c-.16.63-.31,25.91-.32,26.38a13.77,13.77,0,0,0,.95,2.53s.32,1.26,3,1.42,19.59-.16,19.59-.16Z"/><path class="cls-1" d="M111,147.3a2.12,2.12,0,0,1-2.13-2.12L108.18,22.3a2.13,2.13,0,0,1,2.12-2.15h0a2.14,2.14,0,0,1,2.14,2.13l.71,122.88A2.12,2.12,0,0,1,111,147.3Z"/><path class="cls-1" d="M91.83,19.6h22.59s1.1,0,1.1-1.42V13.6l2.85.47,1.26,2.06-.79,5.37s-2.73,2.26-3,2.05-20.53.16-20.53.16L92.78,22.6Z"/></g><g id="Outlines"><path class="cls-2" d="M98.24,48.63a1.07,1.07,0,0,1-1.07-1.07V28a1.07,1.07,0,0,1,2.14,0V47.56A1.07,1.07,0,0,1,98.24,48.63Z"/><path class="cls-2" d="M112.77,48.63a1.07,1.07,0,0,1-1.07-1.07V28a1.07,1.07,0,0,1,2.14,0V47.56A1.07,1.07,0,0,1,112.77,48.63Z"/><path class="cls-2" d="M98.24,147.34a1.07,1.07,0,0,1-1.07-1.07V89.57a1.07,1.07,0,0,1,2.14,0v56.7A1.07,1.07,0,0,1,98.24,147.34Z"/><path class="cls-2" d="M112.77,147.34a1.07,1.07,0,0,1-1.07-1.07V89.57a1.07,1.07,0,0,1,2.14,0v56.7A1.07,1.07,0,0,1,112.77,147.34Z"/><path class="cls-2" d="M97.8,87H15.56a1.08,1.08,0,0,1-.86-.43L1.6,69.35a1,1,0,0,1,0-1.29l13.11-17.2a1,1,0,0,1,.85-.42H97.67A6.44,6.44,0,0,1,102,51.9a3.93,3.93,0,0,1,1.19,2.92v27.8A4,4,0,0,1,102,85.55,6.36,6.36,0,0,1,97.8,87ZM16.09,84.87h81.6a4.42,4.42,0,0,0,2.82-.87,1.79,1.79,0,0,0,.53-1.38V54.82a1.79,1.79,0,0,0-.53-1.38,4.52,4.52,0,0,0-2.79-.87H16.08L3.79,68.7Z"/><path class="cls-2" d="M20.14,74.45a1.06,1.06,0,0,1-.76-.31L14.64,69.4a1.07,1.07,0,0,1,0-1.51l4.74-4.74a1.07,1.07,0,0,1,1.51,1.51l-4,4,4,4a1.07,1.07,0,0,1-.75,1.82Z"/><path class="cls-2" d="M89.16,64H27.09a1.07,1.07,0,0,1,0-2.14H89.16a1.07,1.07,0,1,1,0,2.14Z"/><path class="cls-2" d="M89.16,70.19H27.09a1.07,1.07,0,0,1,0-2.14H89.16a1.07,1.07,0,0,1,0,2.14Z"/><path class="cls-2" d="M89.16,76.43H32.93a1.07,1.07,0,1,1,0-2.14H89.16a1.07,1.07,0,1,1,0,2.14Z"/><path class="cls-2" d="M113.18,87A6.34,6.34,0,0,1,109,85.55a4,4,0,0,1-1.18-2.93V54.82A4,4,0,0,1,109,51.9a6.49,6.49,0,0,1,4.33-1.46h82.11a1,1,0,0,1,.85.42l13.11,17.2a1.07,1.07,0,0,1,0,1.29L196.3,86.58a1.05,1.05,0,0,1-.85.43H113.18Zm0-34.44a4.35,4.35,0,0,0-2.72.87,1.83,1.83,0,0,0-.52,1.38v27.8a1.82,1.82,0,0,0,.52,1.38,4.42,4.42,0,0,0,2.8.87h81.63l12.3-16.17-12.3-16.12H113.21Z"/><path class="cls-2" d="M190.87,74.45a1.07,1.07,0,0,1-.75-1.82l4-4-4-4a1.07,1.07,0,0,1,1.51-1.51l4.74,4.74a1.07,1.07,0,0,1,0,1.51l-4.74,4.74A1.06,1.06,0,0,1,190.87,74.45Z"/><path class="cls-2" d="M183.92,64H121.85a1.07,1.07,0,1,1,0-2.14h62.07a1.07,1.07,0,0,1,0,2.14Z"/><path class="cls-2" d="M183.92,70.19H121.85a1.07,1.07,0,0,1,0-2.14h62.07a1.07,1.07,0,1,1,0,2.14Z"/><path class="cls-2" d="M178.08,76.43H121.85a1.07,1.07,0,1,1,0-2.14h56.23a1.07,1.07,0,1,1,0,2.14Z"/><path class="cls-2" d="M115.57,24.41H95.44a4.63,4.63,0,0,1-4.63-4.63V16.93a4.63,4.63,0,0,1,4.63-4.63h20.13a4.63,4.63,0,0,1,4.63,4.63v2.85A4.63,4.63,0,0,1,115.57,24.41Zm-20.13-10a2.5,2.5,0,0,0-2.5,2.5v2.85a2.5,2.5,0,0,0,2.5,2.49h20.13a2.5,2.5,0,0,0,2.5-2.49V16.93a2.5,2.5,0,0,0-2.5-2.5Z"/></g></svg> 