<svg width="160px" height="160px" viewBox="0 0 160 160" version="1.1" 

    xmlns="http://www.w3.org/2000/svg" 

    xmlns:xlink="http://www.w3.org/1999/xlink"> 

    <!-- Generator: Sketch 58 (84663) - https://sketch.com --> 

    <title>Illustration / CTA Standard / Feature / Suitcase BGABlue</title> 

    <desc>Created with Sketch.</desc> 

    <g class="Illustration-/-CTA-Standard-/-Feature-/-Suitcase-BGABlue" stroke="none" stroke-width="1" fill="none" fill-rule="evenodd"> 

        <ellipse class="illustration-shape" fill="#C8D9EE" cx="80.5" cy="80" rx="67.5" ry="68"></ellipse> 

        <path d="M152.415044,86.7887 L152.415044,125.9147 C152.415044,129.215678 149.789732,131.914344 146.517154,132.032655 L146.293044,132.0367 L14.4410436,132.0367 C11.1400658,132.0367 8.44139917,129.411388 8.32308854,126.13881 L8.31904361,125.9147 L8.31904361,86.7887 C10.5910436,87.9303471 13.1279017,88.617572 15.8204025,88.6944716 L16.3270436,88.7017 L29.3890436,88.7017 C30.5130436,90.5857 32.5670436,91.8537 34.9150436,91.8537 C37.1727359,91.8537 39.1576841,90.6813627 40.3071536,88.9163138 L40.4410436,88.7017 L55.7000436,88.7017 L55.7000436,92.8477 C55.7000436,97.2947 58.6110436,101.0747 62.6260436,102.3827 C63.9059547,106.308478 67.5482639,109.177821 71.8656501,109.303409 L72.1610436,109.3077 L88.5730436,109.3077 C93.0200436,109.3077 96.7990436,106.3977 98.1080436,102.3827 C102.033821,101.102789 104.903165,97.4604798 105.028752,93.1430935 L105.033044,92.8477 L105.033044,88.7017 L120.353044,88.7017 C121.477044,90.5857 123.531044,91.8537 125.879044,91.8537 C128.137697,91.8537 130.122683,90.6813627 131.271265,88.9163138 L131.405044,88.7017 L144.407044,88.7017 C147.288044,88.7017 150.001044,88.0017 152.415044,86.7887 Z M65.7255436,70.3027 L95.0085436,70.3027 C96.4934325,70.3027 97.7112597,71.4655313 97.7994322,72.927708 L97.8045436,73.0977 L97.8045436,92.8477 C97.8045436,94.3325889 96.6417123,95.550416 95.1786427,95.6385886 L95.0085436,95.6437 L65.7255436,95.6437 C64.2406547,95.6437 63.0228276,94.4808687 62.934655,93.0177991 L62.9295436,92.8477 L62.9295436,73.0977 C62.9295436,71.6137741 64.0923749,70.3959826 65.5554445,70.3078114 L65.7255436,70.3027 L95.0085436,70.3027 Z M101.156044,29.9215 L101.156044,41.6025 L59.5290436,41.6025 L59.5290436,29.9215 L101.156044,29.9215 Z" class="illustration-fill" fill="#EDEEF1"></path> 

        <path d="M6.81894361,125.2804 L6.81894361,125.9144 C6.81894361,130.1244 10.2319436,133.5374 14.4409436,133.5374 L14.4409436,133.5374 L146.292944,133.5374 C150.502944,133.5374 153.914944,130.1244 153.914944,125.9144 L153.914944,125.9144 L153.914944,125.2804 L154.012944,125.2804 L154.012944,127.0734 L159.121944,136.4624 C160.480944,137.9434 159.429944,140.3344 157.418944,140.3344 L157.418944,140.3344 L3.31494361,140.3344 C1.30394361,140.3344 0.25294361,137.9434 1.61294361,136.4624 L1.61294361,136.4624 L6.78894361,127.0004 L6.78894361,125.2804 L6.81894361,125.2804 Z M100.217044,25.4785 C103.103044,25.4785 105.452044,27.8265 105.452044,30.7135 L105.452044,30.7135 L105.452044,41.6025 L149.051044,41.6025 C153.261044,41.6025 156.674044,45.0145 156.674044,49.2245 L156.674044,49.2245 L156.674044,70.7065 C156.674044,73.6445 155.638044,76.3395 153.915044,78.4515 L153.915044,78.4515 L153.915044,85.9565 C151.153044,87.6855 147.900044,88.7015 144.407044,88.7015 L144.407044,88.7015 L105.034044,88.7015 L105.034044,92.8475 C105.034044,97.2935 102.123044,101.0735 98.1080436,102.3825 C96.8000436,106.3975 93.0200436,109.3085 88.5730436,109.3085 L88.5730436,109.3085 L72.1610436,109.3085 C67.7150436,109.3085 63.9350436,106.3975 62.6260436,102.3825 C58.6110436,101.0745 55.7010436,97.2945 55.7010436,92.8475 L55.7010436,92.8475 L55.7010436,88.7015 L16.3270436,88.7015 C12.8340436,88.7015 9.58204361,87.6855 6.81904361,85.9565 L6.81904361,85.9565 L6.81904361,78.4515 C5.09604361,76.3385 4.06104361,73.6445 4.06104361,70.7065 L4.06104361,70.7065 L4.06104361,49.2245 C4.06104361,45.0145 7.47304361,41.6025 11.6830436,41.6025 L11.6830436,41.6025 L55.2820436,41.6025 L55.2820436,30.7135 C55.2820436,27.8265 57.6310436,25.4785 60.5170436,25.4785 L60.5170436,25.4785 Z M92.8690436,97.1435 L67.8650436,97.1435 L67.8650436,99.2835 C67.8650436,101.6555 69.7880436,103.5795 72.1610436,103.5795 L72.1610436,103.5795 L88.5730436,103.5795 C90.9460436,103.5795 92.8690436,101.6555 92.8690436,99.2835 L92.8690436,99.2835 L92.8690436,97.1435 Z M94.0870436,68.8025 L66.6480436,68.8025 C65.2070436,68.8025 63.9020436,69.3865 62.9580436,70.3305 L62.9580436,70.3305 L65.3260436,72.6995 C65.8880436,73.2605 66.2040436,74.0225 66.2040436,74.8165 L66.2040436,74.8165 L66.2040436,90.5445 C66.2040436,91.5525 67.0210436,92.3695 68.0290436,92.3695 L68.0290436,92.3695 L93.2900436,92.3695 C94.0840436,92.3695 94.8460436,92.6855 95.4080436,93.2465 L95.4080436,93.2465 L98.0460436,95.8855 C98.8240436,95.1075 99.3050436,94.0335 99.3050436,92.8475 L99.3050436,92.8475 L99.3050436,74.0205 C99.3050436,71.1385 96.9690436,68.8025 94.0870436,68.8025 L94.0870436,68.8025 Z M100.718044,29.9215 L59.5290436,29.9215 L59.5290436,41.6025 L100.718044,41.6025 L100.718044,29.9215 Z" class="illustration-secondary" fill="#B3CBE8"></path> 

        <path d="M153.915344,84.1206 C154.695579,84.1206 155.335856,84.7149806 155.408483,85.4760504 L155.415344,85.6206 L155.415344,125.9146 C155.415344,130.856354 151.465663,134.893698 146.556249,135.033838 L146.292344,135.0376 L14.4413436,135.0376 C9.49958922,135.0376 5.46224604,131.086954 5.32210588,126.178455 L5.31834361,125.9146 L5.31834361,85.6206 C5.31834361,84.7916 5.99034361,84.1206 6.81834361,84.1206 C7.5985789,84.1206 8.23885572,84.7149806 8.31148263,85.4760504 L8.31834361,85.6206 L8.31834361,125.9146 C8.31834361,129.215578 10.9446113,131.9152 14.217232,132.033554 L14.4413436,132.0376 L146.292344,132.0376 C149.593321,132.0376 152.292944,129.411332 152.411297,126.138712 L152.415344,125.9146 L152.415344,85.6206 C152.415344,84.7916 153.086344,84.1206 153.915344,84.1206 Z M95.0084436,67.3026 C98.2044436,67.3026 100.804444,69.9026 100.804444,73.0986 L100.804444,73.0986 L100.804444,92.8476 C100.804444,96.0436 98.2044436,98.6436 95.0084436,98.6436 L95.0084436,98.6436 L94.3694436,98.6436 L94.3694436,99.2836 C94.3694436,102.4786 91.7684436,105.0796 88.5734436,105.0796 L88.5734436,105.0796 L72.1614436,105.0796 C68.9654436,105.0796 66.3654436,102.4786 66.3654436,99.2836 L66.3654436,99.2836 L66.3654436,98.6436 L65.7254436,98.6436 C62.5294436,98.6436 59.9294436,96.0436 59.9294436,92.8476 L59.9294436,92.8476 L59.9294436,73.0986 C59.9294436,69.9026 62.5294436,67.3026 65.7254436,67.3026 L65.7254436,67.3026 Z M91.3694436,98.6436 L69.3654436,98.6436 L69.3654436,99.2836 C69.3654436,100.8246 70.6194436,102.0796 72.1614436,102.0796 L72.1614436,102.0796 L88.5734436,102.0796 C90.1144436,102.0796 91.3694436,100.8246 91.3694436,99.2836 L91.3694436,99.2836 L91.3694436,98.6436 Z M95.0084436,70.3026 L65.7254436,70.3026 C64.1834436,70.3026 62.9294436,71.5566 62.9294436,73.0986 L62.9294436,73.0986 L62.9294436,92.8476 C62.9294436,94.3896 64.1834436,95.6436 65.7254436,95.6436 L65.7254436,95.6436 L95.0084436,95.6436 C96.5504436,95.6436 97.8044436,94.3896 97.8044436,92.8476 L97.8044436,92.8476 L97.8044436,73.0986 C97.8044436,71.5566 96.5504436,70.3026 95.0084436,70.3026 L95.0084436,70.3026 Z M149.051244,40.1016 C153.992998,40.1016 158.029376,44.0512805 158.169482,48.9606946 L158.173244,49.2246 L158.173244,70.7066 C158.173244,78.1926274 152.166263,84.3031292 144.718393,84.4691354 L144.407244,84.4726 L132.317244,84.4726 L132.317244,85.4156 C132.317244,88.9656 129.429244,91.8536 125.879244,91.8536 C122.406418,91.8536 119.567122,89.0898004 119.445315,85.6461603 L119.441244,85.4156 L119.441244,84.4726 L105.285244,84.4726 C104.456244,84.4726 103.785244,83.8016 103.785244,82.9726 C103.785244,82.1933059 104.379624,81.5521986 105.140694,81.4794708 L105.285244,81.4726 L117.657244,81.4726 L117.657244,73.6026 C117.657244,72.8223647 118.251624,72.1820879 119.012694,72.109461 L119.157244,72.1026 L132.598244,72.1026 C133.377538,72.1026 134.018645,72.6969806 134.091373,73.4580504 L134.098244,73.6026 L134.098244,81.4726 L144.407244,81.4726 C150.247502,81.4726 155.017149,76.7971499 155.16949,70.992947 L155.173244,70.7066 L155.173244,49.2246 C155.173244,45.9236222 152.547932,43.2239995 149.275354,43.1056464 L149.051244,43.1016 L11.6832436,43.1016 C8.38226583,43.1016 5.68359917,45.7278677 5.56528854,49.0004884 L5.56124361,49.2246 L5.56124361,70.7066 C5.56124361,76.5468581 10.2366937,81.3165058 16.0408966,81.4688461 L16.3272436,81.4726 L26.6922436,81.4726 L26.6922436,73.6026 C26.6922436,72.8223647 27.28751,72.1820879 28.0478504,72.109461 L28.1922436,72.1026 L41.6342436,72.1026 C42.4144789,72.1026 43.0547557,72.6969806 43.1273826,73.4580504 L43.1342436,73.6026 L43.1342436,81.4726 L55.1912436,81.4726 C56.0202436,81.4726 56.6912436,82.1446 56.6912436,82.9726 C56.6912436,83.7528353 56.096863,84.3931121 55.3357932,84.465739 L55.1912436,84.4726 L41.3532436,84.4726 L41.3532436,85.4156 C41.3532436,88.9656 38.4642436,91.8536 34.9152436,91.8536 C31.4424175,91.8536 28.6031217,89.0898004 28.4813153,85.6461603 L28.4772436,85.4156 L28.4772436,84.4726 L16.3272436,84.4726 C8.84022991,84.4726 2.73068741,78.4646465 2.56470764,71.0177095 L2.56124361,70.7066 L2.56124361,49.2246 C2.56124361,44.2818632 6.51092413,40.245468 11.4193899,40.1053614 L11.6832436,40.1016 L149.051244,40.1016 Z M89.4323436,75.2183 C89.9817186,75.767675 90.0160545,76.6369719 89.5353514,77.2255131 L89.4323436,77.3393 L77.8513436,88.9203 C77.5583436,89.2133 77.1743436,89.3593 76.7903436,89.3593 C76.4552186,89.3593 76.119328,89.2475187 75.8443045,89.0232863 L75.7303436,88.9203 L71.3023436,84.4913 C70.7163436,83.9063 70.7163436,82.9563 71.3023436,82.3703 C71.8517186,81.820925 72.7201366,81.7865891 73.3093919,82.2672922 L73.4233436,82.3703 L76.7903436,85.7383 L87.3113436,75.2183 C87.8973436,74.6323 88.8463436,74.6323 89.4323436,75.2183 Z M129.317244,84.4726 L122.441244,84.4726 L122.441244,85.4156 C122.441244,87.3116 123.983244,88.8536 125.879244,88.8536 C127.712044,88.8536 129.21405,87.4126867 129.312148,85.603976 L129.317244,85.4156 L129.317244,84.4726 Z M38.3532436,84.4726 L31.4772436,84.4726 L31.4772436,85.4156 C31.4772436,87.3116 33.0192436,88.8536 34.9152436,88.8536 C36.7470769,88.8536 38.2499858,87.4126867 38.3481444,85.603976 L38.3532436,85.4156 L38.3532436,84.4726 Z M131.098244,75.1026 L120.657244,75.1026 L120.657244,81.4706 L131.098244,81.4706 L131.098244,75.1026 Z M40.1342436,75.1026 L29.6922436,75.1026 L29.6922436,81.4706 L40.1342436,81.4706 L40.1342436,75.1026 Z M100.216544,20 C106.028269,20 110.774225,24.652218 110.925808,30.4280522 L110.929544,30.713 L110.929544,35.646 C110.929544,36.475 110.258544,37.146 109.429544,37.146 C108.650249,37.146 108.009142,36.5516194 107.936414,35.7905496 L107.929544,35.646 L107.929544,30.713 C107.929544,26.5417885 104.601341,23.1333702 100.46101,23.0038198 L100.216544,23 L60.5175436,23 C56.3463321,23 52.9379138,26.3282027 52.8083634,30.4685334 L52.8045436,30.713 L52.8045436,35.646 C52.8045436,36.475 52.1335436,37.146 51.3045436,37.146 C50.5243083,37.146 49.8840315,36.5516194 49.8114046,35.7905496 L49.8045436,35.646 L49.8045436,30.713 C49.8045436,24.9012742 54.4567616,20.1553187 60.2325958,20.0037352 L60.5175436,20 L100.216544,20 Z M60.5171436,28.274 L100.217144,28.274 C101.508344,28.274 102.568222,29.283152 102.650946,30.5529693 L102.656144,30.713 L102.656144,35.646 C102.656144,36.475 101.985144,37.146 101.156144,37.146 C100.375908,37.146 99.7356315,36.5516194 99.6630046,35.7905496 L99.6561436,35.646 L99.6561436,31.274 L61.0791436,31.274 L61.0791436,35.646 C61.0791436,36.475 60.4071436,37.146 59.5791436,37.146 C58.7989083,37.146 58.1586315,36.5516194 58.0860046,35.7905496 L58.0791436,35.646 L58.0791436,30.713 C58.0791436,29.42276 59.087374,28.3619984 60.3571176,28.2792019 L60.5171436,28.274 L100.217144,28.274 Z" class="illustration-primary" fill="#2157AA"></path> 

    </g> 

</svg> 