<svg xmlns="http://www.w3.org/2000/svg" viewBox="0 0 160 160"> 

 

    <g> 

        <g class="illustration-shape" fill="#C8D9EE"> 

            <circle class="cls-1" cx="80" cy="80" r="73.25" /> 

        </g> 

    </g> 

    <g> 

        <g class="illustration-secondary" fill="#B3CBE8"> 

            <path class="cls-2" d="M126.12,27.66c2.1,1.46,2.43,3.36,4.3,5.34-2.06,2.12,8.35-2.34,7.56-3.31-.3,1-10.78-17-14-9.69C121.15,21.25,124,28,126.12,27.66Z" /> 

            <path class="cls-2" d="M143.3,39.85c-3-4.32-11.43-3.68-14.78.08,3.5,2.85,4.74,1.52,6,5.13C135.86,44.53,144.24,40.5,143.3,39.85Z" /> 

            <path class="cls-2" d="M137.43,75.86c2.07-1.87-.47-9.42-.21-13.21,4.13-6.13-3.15-10-8.75-12.29-2.43-.52-2,7.87-7.66,3.67-5.57-3.06-5.89,4.39-10.87,4.72-3.17-4-10.59-1.08-13-.58S84.28,62.38,84,64.42c-7.58-1.84-20.87-.23-27-7.74C51.78,54.77,45.9,53,42.76,51.87c-1.39-.52-.72,1.3-7-1.9s-8-.31-10.81,2.58c-5.18,6.8-1.9,12.11,2.13,20.18S39.42,89.3,40.45,97.29c-1.4,2.73,3.11,9.87,2,12.88,4.93,1.53,3.3,8.16,8,11.5,6.8.62,5.91,9,11.89,11,2.87-1.53,2.1,2.52,4,7.91,2.24-.25,2.21-.71,4-1.51,2,.93,11.09,2.37,12.61,0,.58-1.72,3.19,5,8.68,3.76.56,1.75,6.24-7.38,7.22-8.75-.64-1,6.28-4.08,6-6.57s.83-11.53,4.72-8.57c1.53,2.42,2.6.24,2.68,3.76-4.54.36-1.46,2.42,1.56.64,1.4-1.5-3-9.58,3.12-4.85,2.2,1.24,6.36-1.59,10.23-4.62.94-2.67.33-12.22.33-12.22s4.8-9.48,8.74-7.26C137.22,92.19,135.35,77.73,137.43,75.86Z" /> 

            <path class="cls-2" d="M13.08,22c-.95-12.86-12.43,2.23-7,7.12C5.56,40.7,17.56,28.56,13.08,22Z" /> 

        </g> 

    </g> 

    <g> 

        <g class="illustration-primary" fill="#2157AA"> 

            <path class="cls-3" d="M8.21,35.43a3,3,0,0,1-1.11-.2c-1.71-.62-2.56-2.48-2.54-5.52C2.33,27.14,3,23.28,4.44,20.4S8.42,15,11,15.49c2,.41,3.23,2.43,3.56,6,2.1,3.48.77,8-1.54,10.93C11.48,34.37,9.76,35.43,8.21,35.43Zm2.1-17c-.58,0-2,1-3.19,3.31-1,2-1.62,4.85,0,6.27a1.5,1.5,0,0,1,.49,1.18c-.1,2.44.43,3.18.57,3.23s1.3-.31,2.49-1.84c1.67-2.14,2.76-5.47,1.21-7.74a1.46,1.46,0,0,1-.26-.73c-.21-2.86-.93-3.62-1.19-3.68Z" /> 

            <path class="cls-3" d="M130.45,35a1.81,1.81,0,0,1-1.36-.47,1.67,1.67,0,0,1-.43-1.28,18.43,18.43,0,0,1-1.3-1.88,8.64,8.64,0,0,0-1.75-2.22c-1.83-.24-3.3-2.43-4-4.6-.77-2.53-.32-4.62,1.16-5.63a3.79,3.79,0,0,1,2.92-2.16c3.54-.4,7.45,4.4,11.48,9.78.5.67,1.06,1.41,1.37,1.78a1.62,1.62,0,0,1,.55.42,1.86,1.86,0,0,1-.49,2.71C138.12,31.92,133.16,35,130.45,35Zm-4.33-8.84a1.46,1.46,0,0,1,.85.27,10.31,10.31,0,0,1,2.93,3.34,14.18,14.18,0,0,0,1.47,2.05,28.85,28.85,0,0,0,4.53-2.07c-.31-.38-.66-.85-1.08-1.41-1.64-2.19-6.6-8.8-8.74-8.6-.31,0-.58.49-.74.86a1.45,1.45,0,0,1-.77.77c-.28.12-.28.77-.28,1A5.71,5.71,0,0,0,126,26.16Z" /> 

            <path class="cls-3" d="M91.9,144.58l-.3,0a1.85,1.85,0,0,1-.42-.11c-3.87.48-6.43-2.15-7.84-3.61l0,0c-3,2.11-10.28.79-12.91,0l-.57.32a7,7,0,0,1-3.31,1.05,1.49,1.49,0,0,1-1.59-1,36.91,36.91,0,0,1-1.29-5,18.76,18.76,0,0,0-.52-2.14l-.06,0a1.52,1.52,0,0,1-1.2.09c-3.32-1.14-4.83-3.84-6.16-6.22-1.56-2.79-2.66-4.51-5.37-4.75a1.52,1.52,0,0,1-.74-.28c-2.61-1.85-3.52-4.47-4.33-6.78-.87-2.51-1.45-4-3.25-4.51a1.49,1.49,0,0,1-.9-.77,1.51,1.51,0,0,1-.06-1.18c.36-1-.43-3.43-1.07-5.39-.88-2.69-1.71-5.25-1.07-7.16-.74-4.61-4.18-9.67-7.51-14.56a82.9,82.9,0,0,1-5.68-9.14l-.77-1.53c-3.7-7.33-6.63-13.12-1.22-20.23l.12-.14.81-.85c2.5-2.66,5.08-5.41,11.76-2,4,2,4.75,1.82,5.08,1.74a2.76,2.76,0,0,1,1.79.1c1.45.53,3.48,1.19,5.83,2,2.64.86,5.63,1.83,8.45,2.85a1.44,1.44,0,0,1,.65.46c3.94,4.85,11.54,5.55,18.25,6.16,2.47.23,4.82.44,6.88.85,3-3.22,13.15-6,13.27-6,.35-.07.82-.2,1.37-.35,3.24-.89,9.1-2.5,12.52.79a6.77,6.77,0,0,0,2.94-2.35c1.63-1.86,3.86-4.4,8.09-2.08l.18.11c1.27,1,1.85.91,2,.87.51-.12,1-1.16,1.44-2,.64-1.29,1.59-3.25,3.65-2.81L129,49c3.95,1.58,9.35,4.18,10.63,8.35a6.89,6.89,0,0,1-1,5.8,32,32,0,0,0,.49,4.62c.59,3.85,1.14,7.48-.73,9.2-.71,1-.57,6.87-.5,10,.1,4.38.13,6.91-.44,8.11a1.53,1.53,0,0,1-.9.79,1.5,1.5,0,0,1-1.19-.13,1.15,1.15,0,0,0-1-.07c-1.89.57-4.31,4.06-5.53,6.36.11,2.06.48,9.75-.45,12.38a1.47,1.47,0,0,1-.49.69c-5.1,4-9.07,6.33-11.89,4.75a1.18,1.18,0,0,1-.18-.13l-.82-.6c0,.27.08.52.12.73.32,1.79.61,3.48-.4,4.57a1.84,1.84,0,0,1-.34.27c-2.15,1.26-4.38,1.1-5.39.3a1.77,1.77,0,0,1-.65-1.94,2.31,2.31,0,0,1,1.68-1.47A4.23,4.23,0,0,1,108.4,120c-.15-.1-.33-.18-.41-.14-1.13.65-2,5.41-1.72,7.45.28,2.32-2.23,4.16-4.45,5.79-.52.39-1.19.88-1.53,1.19a1.5,1.5,0,0,1-.26.66c-.17.23-.48.7-.88,1.3C94.61,143.14,93.23,144.58,91.9,144.58Zm-8.69-7.28c.88,0,1.54.67,2.28,1.44,1.65,1.7,3.33,3.18,5.78,2.64a1.69,1.69,0,0,1,.5,0,66.16,66.16,0,0,0,4.88-6.73l.6-.91c.17-1.07,1.45-2,2.79-3,.95-.7,3.18-2.34,3.25-3-.2-1.6.11-8.61,3.21-10.39a3.37,3.37,0,0,1,3.91.48,1.44,1.44,0,0,1,.35.39,1.43,1.43,0,0,0,.89.77,2.89,2.89,0,0,1,.44.18c-.18-1.36-.12-2.61,1-3.27,1.27-.78,2.76,0,4.59,1.4.67.29,2.61,0,8.12-4.24.49-2.14.36-7.89.15-11.23a1.47,1.47,0,0,1,.16-.77c.36-.72,3.66-7.06,7.51-8.23a4.75,4.75,0,0,1,1.38-.2c.07-1.42,0-3.74,0-5.56-.17-7.29-.08-10.87,1.46-12.27h0c.7-.63.12-4.48-.19-6.55a28,28,0,0,1-.51-5.64,1.59,1.59,0,0,1,.25-.74,4.15,4.15,0,0,0,.82-3.61c-.65-2.11-3.47-4.21-8.39-6.25a10.88,10.88,0,0,0-.57,1.08c-.65,1.32-1.55,3.13-3.43,3.58-1.31.32-2.75-.11-4.4-1.32-2-1-2.6-.46-4.31,1.48-1.29,1.47-2.89,3.29-5.66,3.47a1.49,1.49,0,0,1-1.27-.57c-2.06-2.61-7.21-1.19-10-.43-.63.17-1.16.32-1.57.4-2.59.54-10.72,3.74-11.73,5.14a1.53,1.53,0,0,1-.61.88,1.5,1.5,0,0,1-1.2.22,54.42,54.42,0,0,0-7.48-1c-7.16-.66-15.26-1.39-20-6.93-2.66-1-5.48-1.86-8-2.67s-4.45-1.44-5.95-2l-.08,0c-1.19.27-2.56.31-7.11-2s-5.93-1-8.21,1.39l-.79.83c-4.2,5.58-2,9.88,1.57,17l.77,1.54a83.12,83.12,0,0,0,5.47,8.79c3.63,5.32,7.38,10.82,8.07,16.25a1.49,1.49,0,0,1-.15.88c-.43.84.42,3.44,1,5.35a18.47,18.47,0,0,1,1.3,5.92c2.36,1.28,3.21,3.7,4,5.87.69,2,1.33,3.81,3,5.11,4.11.56,5.79,3.56,7.27,6.22,1.13,2,2.12,3.77,4,4.64a2.78,2.78,0,0,1,2.12,0c1.38.64,1.7,2.23,2.15,4.42.19,1,.43,2.13.79,3.38a4.11,4.11,0,0,0,1-.45,14.32,14.32,0,0,1,1.37-.72,1.52,1.52,0,0,1,1.27,0c2.87,1.37,9.8,1.38,10.65.56a1.79,1.79,0,0,1,1.21-1A1.87,1.87,0,0,1,83.21,137.3Zm1.12,2.27Zm26.59-15.11Zm27.55-47.53Zm-53-12.1Zm.07-.22Z" /> 

            <path class="cls-3" d="M134.5,46.57a1.5,1.5,0,0,1-1.42-1c-.55-1.62-.86-1.76-2-2.31a15.09,15.09,0,0,1-3.49-2.15,1.55,1.55,0,0,1-.55-1,1.52,1.52,0,0,1,.38-1.12c2.14-2.4,6-3.79,9.89-3.55a9.22,9.22,0,0,1,7.16,3.5,1.63,1.63,0,0,1,.41,1.29c-.26,2.35-9.72,6.25-9.81,6.29A1.54,1.54,0,0,1,134.5,46.57ZM131,39.83c.51.3.95.5,1.37.7a5.46,5.46,0,0,1,2.94,2.55,65.51,65.51,0,0,0,6-3.2,7,7,0,0,0-4.21-1.5A10.66,10.66,0,0,0,131,39.83Zm11.49,1.26h0Z" /> 

            <path class="cls-3" d="M65.64,99.4h-2.8V84.67h-5v-2.4H70.68v2.4h-5Z" /> 

            <path class="cls-3" d="M84.9,99.4l-1.71-4.75H76.64L75,99.4H72l6.41-17.2h3l6.41,17.2Zm-2.45-7.17-1.61-4.66c-.11-.31-.28-.81-.48-1.48s-.35-1.16-.43-1.47A25.49,25.49,0,0,1,79,87.77l-1.54,4.46Z" /> 

            <path class="cls-3" d="M101,94.75a4.32,4.32,0,0,1-1.65,3.59,7.17,7.17,0,0,1-4.56,1.3,10.87,10.87,0,0,1-4.75-.9V96.09A13.31,13.31,0,0,0,92.5,97a10.53,10.53,0,0,0,2.45.31,3.94,3.94,0,0,0,2.46-.63,2.08,2.08,0,0,0,.79-1.7,2.12,2.12,0,0,0-.73-1.63,11,11,0,0,0-3-1.58,7.93,7.93,0,0,1-3.3-2.17,4.59,4.59,0,0,1-1-2.93,4.08,4.08,0,0,1,1.52-3.37A6.31,6.31,0,0,1,95.82,82a12,12,0,0,1,4.9,1.07l-.89,2.29a10.77,10.77,0,0,0-4.08-1,3.12,3.12,0,0,0-2.06.59A1.94,1.94,0,0,0,93,86.58a2.3,2.3,0,0,0,.28,1.15,3,3,0,0,0,.93.89,15.41,15.41,0,0,0,2.32,1.12,12.8,12.8,0,0,1,2.77,1.46,4.29,4.29,0,0,1,1.28,1.54A4.51,4.51,0,0,1,101,94.75Z" /> 

        </g> 

    </g> 

</svg> 