<svg xmlns="http://www.w3.org/2000/svg" viewBox="0 0 160 160"> 

 

    <g class="ellipse"> 

        <circle class="illustration-shape" fill="#C8D9EE" cx="80" cy="80" r="73.25" /> 

    </g> 

    <g class="illustration-secondary" fill="#B3CBE8"> 

        <path  d="M156.4,90.11c-9.19-3.47-19.53-8.43-28.76-11.26,2.71-2.35.93-4.56-1-6.57A12,12,0,0,0,125,66c-4.18-3.34-5.83-.15-7.91-1.6a2.17,2.17,0,0,0-3,1.83c-.85,0-3-.17-4-.24-1.6,1.33-.17,2.82,1.31,3-3.57,1.82-1.93-3.71-4.11-1.9-7-1.76-6.08-3-13.1-1-4-1.43-8-.67-11.3-3.73-3.45.87-10.12-1.78-11.21,2.84,2.23,2.14-1.45,1.2-2.93,2.3-7.11-3.22-11-11.62-19.59-13.12-3.41-1.55,2-1.73-4.29-3.69-2.6-1.77.7-7.16-2.18-6.79-1.26-2.06-5.3-2.14-7.09-2.06-.8-2.43-3.48-1.73-3.13.66,0,.86-2-.15-1,1.16-1.76,1-2.7-2-3.25-3.28-2.56-.83-.67-3.56-1.34-4.49-2.24.39-2-2.6-3.83-3-3.09-.39-7.94-2.4-10.47.91-1.57-1-3.82-1-5.43-2.31-1.7-.14-3.95,0-5.12-1.69C2,53,2,78,2,101.24c1.86,1.1,6.28,4.22,7.16,5.57s1.74-1.5,2.93,1c.44.28,2.14-.31,1.92-.84-2-2.75,3.69-2.08,5.17-1.82,3.62,3.23,7.13.75,10.21,2.2,3.88,3,8.86,3.24,12.52,6.23,3.52-.65,5.64,3.46,7.92-.35a12.63,12.63,0,0,0,6.32-4.52,38.21,38.21,0,0,1,10.56-3.93c3.77-3.94.78,4.11,6.68,3.38-.39-.81,9.22,3,9.42,3.64,1.46,1,3.83,0,3.27,0,6.23,9.35,2.4-1.09,8.67,4.91-.37,1.3,2.12,1.91,1.4,2.52-.53.64,1.17,1.34,1.67.94.49-1.82,1.7-.8.2-2.31,1-1.09-.59-2.65-.6-2.68-.27-.38,5.81-2.34,7.79-3.38,20.62-23.75,52.05-9.45,50.42-20.09.94.27,1.81-.31,1,.72C158.71,92.33,158.22,90.76,156.4,90.11Z" /> 

    </g> 

    <g > 

        <g class="illustration-primary" fill="#2157AA"> 

            <path class="cls-3" d="M97.41,121.76a3.35,3.35,0,0,1-2.23-.89,2,2,0,0,1-.61-1.56,3.41,3.41,0,0,1-1.31-2,6,6,0,0,0-1.52-1.09l-.07.09a2.43,2.43,0,0,1-2,1c-1.16-.07-2.21-1-4.1-3.71a4.82,4.82,0,0,1-3.59-.62,1.42,1.42,0,0,1-.31-.29,46.52,46.52,0,0,0-7.85-3.15l-.23,0c-4.08.5-5.24-2.37-5.73-3.88l0,0a1.45,1.45,0,0,1-.8.44,36.11,36.11,0,0,0-9.87,3.63,14.19,14.19,0,0,1-6.33,4.62c-2,2.78-4.35,1.77-5.8,1.15a4.84,4.84,0,0,0-2.8-.61,1.48,1.48,0,0,1-1.22-.31,20,20,0,0,0-5.87-2.92,24.87,24.87,0,0,1-6.47-3.17,7.36,7.36,0,0,0-3.11-.27c-2,.1-4.5.21-7-1.81a13.68,13.68,0,0,0-3.12-.15,1.84,1.84,0,0,1-.62,2.13c-.64.53-2.37,1.26-3.51.53a1.57,1.57,0,0,1-.54-.63h0a2.11,2.11,0,0,1-2.83-.82c-.62-1-4.61-3.88-6.66-5.1a1.49,1.49,0,0,1-.74-1.29c0-11.62,0-23.68,0-35.75s0-24.14,0-35.76a1.5,1.5,0,0,1,2.74-.84c.53.79,1.59.9,3.15,1,.29,0,.58,0,.85.06a1.54,1.54,0,0,1,.82.32,7.13,7.13,0,0,0,2.53,1.09c.54.16,1.09.33,1.63.55,2.6-2.27,6.26-1.5,9-.92.72.15,1.39.29,2,.37l.15,0A4.16,4.16,0,0,1,26,33.67a3.49,3.49,0,0,0,.5.73h.14a1.5,1.5,0,0,1,1.48.6,3.42,3.42,0,0,1,.32,2.61c-.18,1.19-.13,1.2.26,1.33a1.5,1.5,0,0,1,.92.84l.18.46c.13.32.4,1,.67,1.47a2,2,0,0,1,.53-.23,3.1,3.1,0,0,1,2.28-2.59,3.07,3.07,0,0,1,3.26,1.42c2.23,0,5.27.37,6.92,2.11a2.19,2.19,0,0,1,1.23.61c1,.91.83,2.29.7,3.62s-.17,2.25.23,2.68c2.37.77,3.38,1.37,3.81,2.27a2,2,0,0,1,.16,1.31l.05,0c5.29,1,8.85,4.33,12.3,7.56a31.57,31.57,0,0,0,6.8,5.32,7.5,7.5,0,0,1,1.48-.38,1.26,1.26,0,0,1,0-.58c1-4.36,5.46-4.09,8.69-3.9a13.22,13.22,0,0,0,3.61-.06,1.5,1.5,0,0,1,1.39.36c1.78,1.66,3.86,2,6.26,2.39a26.28,26.28,0,0,1,4,.87c5-1.42,6.21-1.16,9.39-.11.89.3,2,.65,3.42,1a2,2,0,0,1,1.53-.17l.07,0a3.78,3.78,0,0,1,.49-.49,1.5,1.5,0,0,1,1.08-.35l2.74.18A3.4,3.4,0,0,1,114,63.37,3.9,3.9,0,0,1,117.6,63a1.17,1.17,0,0,1,.31.17c.26.18.44.18,1.32,0,1.44-.31,3.62-.77,6.68,1.66a1.76,1.76,0,0,1,.26.28,13.16,13.16,0,0,1,2,6.62c1.26,1.38,2.46,3,2.37,4.85a4.27,4.27,0,0,1-.39,1.56c5.2,1.72,10.69,4,16,6.25,3.77,1.58,7.32,3.07,10.78,4.37,1.73.63,2.76,1.93,2.56,3.25A2.41,2.41,0,0,1,157,93.89a4.08,4.08,0,0,1-.75,1.39c-1.91,2.32-6.13,2.5-12,2.75-10.4.45-26.1,1.12-37.92,14.73a1.51,1.51,0,0,1-.44.35c-.93.49-2.59,1.13-4.19,1.74-.68.26-1.48.57-2.14.84a3,3,0,0,1,.23,1.87,1.78,1.78,0,0,1,.44,1.28,1.73,1.73,0,0,1-.76,1.3c-.09.07-.14.11-.21.4a1.57,1.57,0,0,1-.51.78A2.2,2.2,0,0,1,97.41,121.76Zm-1.14-5c.1.1.26.22.37.31l.06,0a1.32,1.32,0,0,1,.16-.25,2.41,2.41,0,0,0-.49-.71,1.12,1.12,0,0,1-.17-.2,1.56,1.56,0,0,1-.2-1.33c.29-1,1-1.25,4.65-2.63,1.32-.51,2.8-1.07,3.64-1.48C116.93,96.2,133.3,95.5,144.15,95c4.49-.19,8.73-.37,9.78-1.65a1.72,1.72,0,0,0,.24-1.46,1.42,1.42,0,0,1,.19-1c-3.07-1.19-6.27-2.53-9.38-3.83-6-2.5-12.13-5.08-17.78-6.81a1.5,1.5,0,0,1-1-1.12,1.52,1.52,0,0,1,.48-1.45,2.07,2.07,0,0,0,.87-1.35c0-1-1.25-2.32-1.94-3.06a1.47,1.47,0,0,1-.41-1,11,11,0,0,0-1.3-5.31,4.06,4.06,0,0,0-4-.95,4.34,4.34,0,0,1-3.46-.33,1,1,0,0,0-.68.13.38.38,0,0,0-.19.34,1.47,1.47,0,0,1-.46,1.09,1.52,1.52,0,0,1-1.11.41l-2-.12a1.5,1.5,0,0,1,.12,2.73,3.44,3.44,0,0,1-3,.33,3.23,3.23,0,0,1-1.69-2.08,1.41,1.41,0,0,1-.5,0c-1.88-.47-3.19-.91-4.25-1.26-2.76-.91-3.33-1.1-8.07.27a1.45,1.45,0,0,1-.92,0,22.08,22.08,0,0,0-4-.89c-2.44-.4-5-.8-7.25-2.65a20,20,0,0,1-3.71,0c-3.2-.19-4.71-.08-5.34.93a2.1,2.1,0,0,1,.39,1.9c-.38,1.21-1.65,1.4-2.66,1.55a4.78,4.78,0,0,0-1.49.36,1.5,1.5,0,0,1-1.51.17c-3.21-1.46-5.78-3.86-8.26-6.18-3.31-3.11-6.44-6-11-6.83a1.5,1.5,0,0,1-.36-.11c-.63-.29-2.41-1.1-2.08-2.87a13.41,13.41,0,0,0-2-.76,1.76,1.76,0,0,1-.39-.19c-2-1.38-1.79-3.88-1.64-5.54,0-.31.06-.71.07-1a1.54,1.54,0,0,1-1-.69c-.57-.93-2.89-1.47-5.75-1.34a1.47,1.47,0,0,1-1.49-1,1.21,1.21,0,0,0-.21-.42,1,1,0,0,0,0,.4,1.27,1.27,0,0,1,0,.28,1.84,1.84,0,0,1-1.09,1.61,1.52,1.52,0,0,1-.7.8,2.76,2.76,0,0,1-2.28.21c-1.54-.56-2.29-2.32-2.84-3.67-2-1.07-1.77-3.23-1.61-4.27a4.26,4.26,0,0,1-2.07-2.07c-.22-.38-.45-.78-.64-.86-.66-.09-1.36-.24-2.09-.4-3.18-.66-5.54-1-6.88.74a1.5,1.5,0,0,1-2,.35,8.79,8.79,0,0,0-2-.77,10.8,10.8,0,0,1-3.16-1.33l-.35,0A12.55,12.55,0,0,1,3.5,32.5c0,10.76,0,21.88,0,33,0,11.78,0,23.56,0,34.92A38.5,38.5,0,0,1,10,105.47a2.3,2.3,0,0,1,1.67-.11,1.75,1.75,0,0,1,.46.21,2.19,2.19,0,0,1,.3-.78c1.1-1.74,4.42-1.56,7-1.1a1.43,1.43,0,0,1,.73.35c1.7,1.52,3.32,1.44,5.2,1.36a9.48,9.48,0,0,1,4.65.6,1.24,1.24,0,0,1,.27.17A22,22,0,0,0,36.16,109a24.41,24.41,0,0,1,6.21,3,8.09,8.09,0,0,1,3.81.88c1.56.66,1.69.72,2.38-.44a1.5,1.5,0,0,1,.89-.67c2-.56,3.66-1.77,5.58-4a1.39,1.39,0,0,1,.41-.35,40.28,40.28,0,0,1,10.55-4,3.06,3.06,0,0,1,2.76-1.16c1.22.28,1.59,1.44,1.88,2.36.45,1.42.73,2.15,2.16,2.1a2.25,2.25,0,0,1,1.35-.09c.08,0,7.3,2.12,9.52,4l0,0a2,2,0,0,0,1.38.13,1.49,1.49,0,0,1,1.24-.42,1.71,1.71,0,0,1,1.3,1,22,22,0,0,0,2.08,2.76,2.67,2.67,0,0,1,1.81-.86c1.2-.07,2.5.66,4.32,2.4A1.52,1.52,0,0,1,96.27,116.81Zm-14.88-4.58h0Z" /> 

            <path class="cls-3" d="M56.21,76.57h2.9l-6,17.14h-3l-6-17.14h2.89l3.57,10.66a20.17,20.17,0,0,1,.6,2c.21.8.35,1.39.41,1.79.1-.6.26-1.29.47-2.07s.38-1.36.51-1.73Z" /> 

            <path class="cls-3" d="M62.34,93.71V76.57h2.8V93.71Z" /> 

            <path class="cls-3" d="M77.91,78.73a4.62,4.62,0,0,0-3.8,1.71,7.31,7.31,0,0,0-1.38,4.72,7.35,7.35,0,0,0,1.33,4.77,4.7,4.7,0,0,0,3.85,1.62A9.75,9.75,0,0,0,80,91.33c.68-.14,1.39-.33,2.12-.55v2.4a12.81,12.81,0,0,1-4.57.76,7.32,7.32,0,0,1-5.78-2.28q-2-2.28-2-6.52a10.61,10.61,0,0,1,1-4.68,7.08,7.08,0,0,1,2.83-3.07,8.6,8.6,0,0,1,4.35-1.06,10.69,10.69,0,0,1,4.85,1.1l-1,2.33A16,16,0,0,0,79.94,79,6.48,6.48,0,0,0,77.91,78.73Z" /> 

        </g> 

    </g> 

</svg> 