<svg xmlns="http://www.w3.org/2000/svg" viewBox="0 0 160 160"> 

 

    <g> 

        <g class="illustration-shape" fill="#C8D9EE"> 

            <circle class="cls-1" cx="80" cy="80" r="73.25" /> 

        </g> 

    </g> 

    <g> 

        <g class="illustration-secondary" fill="#B3CBE8"> 

            <path class="cls-2" d="M108.17,8.35c0-1.43-4.28,4.28-4.28,4.28a20.84,20.84,0,0,0-4.28,2.85c-1.43,1.43-1.43,7.14-1.43,7.14H93.9c-2.85,0,0,5.71,0,5.71s-1.43,2.85-2.85,0-1.43-2.86-2.86-2.86-4.28,4.28-4.28,4.28c-1.73,1.69-1.06,3.26-.67,4.31,3.38.6-2.92,3.4-3.43,4.32-.54,4.86-7.84,10-14.24,9.83-7.47-.22-3.32,1.89-9.7,2.71-2.9.16-6.14,4.26-9,1.87C43,52.38,38.38,57.32,33,60.08c-4.12.11-3.85,4.88-5.73,5.59-.75.8-1.84.33-.87-.63-.2-.33-1-2.38.09-3.76-5.76,1.73-.65,9.66-4,12.73-2.93,3.81-1.06,9.46,1.08,13,1.52,2.49,4.65,3.33.49,5.58-1.74-1-2.25,1.61-1.43,2.85a46.56,46.56,0,0,1,6.73,15.06c3.09,7.79,6.64,17.81,8.19,25.07-.41.62.84,2.53-.55,2.08,1.13,1.93-.89.27.3-.81-1.42,3.44,1.41,9.9-5,7.12-.58,3.93,0,5.65,3.8,6.31,2.61,1.83,4.7,3.6,6.86,3.75-2.89.71,10.77,1,10.27,1-.42-.3-1.44-.16-.22-.58,2.88.38,4-2.61,6.83-3.58-.9-.79,2.38,0,2.64.15,0-.77.44-.53.73-.19.19-.05,0-1.54.81-.64.7-6.06,18.46-3.23,21.35-3.24,2.57-1.27,5.28.77,7.92-.49.88-1.43,3.71-6.42,6.44-6.79,5.37-.74,6-2.21,10-4.28,10,1.43,20-4.28,20-4.28L131,25.47s-2.66-.73-1.33-3.93a26.78,26.78,0,0,0,1.43-9.39,21.83,21.83,0,0,0-4.13,0s-1.67.47-3.77-2.82A29.4,29.4,0,0,0,119,5.64C112.68,2.93,108.17,9.77,108.17,8.35ZM36.92,134.82c.3.25,0-.79-.09-.5S36.91,134.67,36.92,134.82Z" /> 

        </g> 

    </g> 

    <g> 

        <g class="illustration-primary" fill="#2157AA"> 

            <path class="cls-3" d="M53.11,156.5H52.9l-1,0c-8.11-.28-10.16-.48-10.74-1.28a18.87,18.87,0,0,1-4.9-2.87l-.91-.65c-4.73-.94-5.31-3.74-4.69-8a1.51,1.51,0,0,1,.76-1.09,1.49,1.49,0,0,1,1.32-.07c1.68.73,2.14.54,2.15.53a7.58,7.58,0,0,0,.29-2.56,22.72,22.72,0,0,1,.14-2.43,2.61,2.61,0,0,1,.53-2.05.61.61,0,0,1,0-.14,1.51,1.51,0,0,1-.44-.91,2.45,2.45,0,0,1-.1-.64,1.59,1.59,0,0,1,.07-.48,1.89,1.89,0,0,1,.09-.21A201.59,201.59,0,0,0,27.88,111a2.25,2.25,0,0,1-.08-.24c-1.06-5.12-4.06-10.87-6.5-14.54a4,4,0,0,1,.18-4.59,2.42,2.42,0,0,1,2.34-.74,3.94,3.94,0,0,0,.63-.46c-.15-.2-.43-.49-.65-.72a11.73,11.73,0,0,1-1.6-2c-2.63-4.29-4.26-10.39-1-14.65a1.16,1.16,0,0,1,.18-.2c.95-.86.83-2.73.7-4.71-.19-3-.46-7,3.91-8.35a1.5,1.5,0,0,1,1.63,2.35,1.45,1.45,0,0,0-.25.86l.06-.12c.72-1.53,1.91-4.06,5.11-4.33a49.32,49.32,0,0,0,5.1-3.24c3.26-2.25,6.35-4.39,9.4-4.07a1.64,1.64,0,0,1,.81.35c.9.76,1.89.35,3.94-.75a9.92,9.92,0,0,1,3.92-1.47c2.42-.31,2.92-.76,3.41-1.2,1.1-1,2.15-1.65,6.49-1.51,5.93.13,12.28-4.75,12.7-8.5a1.47,1.47,0,0,1,.18-.56,6.31,6.31,0,0,1,2.22-1.83c.35-.23.87-.56,1.31-.88a1.58,1.58,0,0,1-.2-.36l0-.11a4.88,4.88,0,0,1,1-5.67c1.5-2.23,3.63-4.83,5.44-4.83a3,3,0,0,1,3.13,1.66,4.54,4.54,0,0,1,.26-3.3,2.61,2.61,0,0,1,2.32-1.21h2.82c.11-2.11.49-5.36,1.83-6.7a20.67,20.67,0,0,1,4.35-3c3.83-5.06,4.73-5,5.53-4.78,1.8-1.42,6-4.63,11.15-2.41a1.71,1.71,0,0,1,.23.13,28.53,28.53,0,0,1,4.66,4.14c1.09,1.71,2,2.13,2.24,2.15l.12,0a22,22,0,0,1,4.52,0,1.5,1.5,0,0,1,1.25,1.41,28.15,28.15,0,0,1-1.54,10,1.92,1.92,0,0,0-.18,1.46,1.12,1.12,0,0,0,.52.45,1.49,1.49,0,0,1,1.1,1.46L131.08,131.1a1.51,1.51,0,0,1-.76,1.28c-.42.24-10.23,5.77-20.44,4.53-.91.49-1.63.94-2.33,1.38a16.23,16.23,0,0,1-7.74,2.84c-.83.11-2.4,1.2-5.14,5.73l-.22.36a1.58,1.58,0,0,1-.63.57,7.92,7.92,0,0,1-4.85.36,5.17,5.17,0,0,0-3,.11,1.59,1.59,0,0,1-.69.16c-.57,0-1.5-.08-2.78-.2-11-1-16.78-.25-17.06,2.11a1.5,1.5,0,0,1-1,1.25,1.46,1.46,0,0,1-.93.67c-.13,0-.26,0-.37.05a1.53,1.53,0,0,1-1.32.07c-.21-.07-.75-.2-1.2-.29a1.54,1.54,0,0,1-.34.17,7.84,7.84,0,0,0-2.38,1.58,7.88,7.88,0,0,1-3.49,2,1.53,1.53,0,0,1-1.15.64Zm-.09-3h0ZM44,153c1.09.11,3.27.26,7.5.41a3.53,3.53,0,0,1,.92-.43,1.47,1.47,0,0,1,.69-.07c1,.13,1.64-.38,2.81-1.38a13.16,13.16,0,0,1,2.37-1.72l.07-.11c.68-1,2.25-.79,3.4-.5a2.14,2.14,0,0,1,.32-.15l.09,0a1.69,1.69,0,0,1,.7-.54c2.43-4.79,13.61-3.81,19.86-3.26.92.08,1.73.15,2.24.17a8,8,0,0,1,4.45-.22,6.39,6.39,0,0,0,2.75,0c2-3.29,4.42-6.68,7.25-7.07a13.4,13.4,0,0,0,6.56-2.4c.81-.51,1.72-1.09,3-1.72a1.48,1.48,0,0,1,.9-.16c7.84,1.13,15.85-2.48,18.28-3.7l1.4-103.79a3.86,3.86,0,0,1-1.31-1.48,4.66,4.66,0,0,1,.11-3.94,23.52,23.52,0,0,0,1.31-7.42c-.9,0-1.91.06-2.42.1-.74.13-2.94.13-5.24-3.5A34.1,34.1,0,0,0,118.27,7c-3.25-1.33-5.84.37-8,2.08-.77.61-1.45,1.14-2.27,1a45.44,45.44,0,0,0-2.89,3.51,1.51,1.51,0,0,1-.53.44,18.84,18.84,0,0,0-3.89,2.57c-.52.52-1,3.41-1,6.08a1.5,1.5,0,0,1-1.5,1.5H94.12a10.81,10.81,0,0,0,1.12,3.54,1.5,1.5,0,0,1,0,1.34c-.17.35-1.13,2.09-2.82,2.09h0c-.76,0-1.85-.36-2.72-2.09a21.26,21.26,0,0,0-1.07-2h-.32a14.74,14.74,0,0,0-3.15,3.62l-.2.24a1.71,1.71,0,0,0-.56,2,2,2,0,0,1,1.3,1.48c.33,1.64-1.38,2.74-3.35,4-.36.23-.84.54-1.13.76-1.06,5.5-8.76,10.74-15.68,10.61-3.47-.1-3.9.29-4.41.74-.93.83-2,1.56-5.07,1.95H56a8.29,8.29,0,0,0-2.73,1.11c-1.89,1-4.43,2.4-6.86.74-1.91,0-4.39,1.76-7,3.57a50.7,50.7,0,0,1-5.72,3.59,1.59,1.59,0,0,1-.64.16c-1.56,0-2.07,1-2.85,2.63a5.34,5.34,0,0,1-2.08,2.71,2.42,2.42,0,0,1-2.17.59,1.87,1.87,0,0,1-.87-.46c0,.3,0,.61,0,1,.16,2.43.34,5.18-1.56,7-2.25,3.07-.75,7.92,1.24,11.17A8,8,0,0,0,26,87.64c.83.87,1.77,1.85,1.55,3.23s-1.56,2.31-2.84,3a1.45,1.45,0,0,1-1,.14,1.1,1.1,0,0,0,.13.56A48,48,0,0,1,30.71,110c1.89,4.77,6.36,16.5,8.22,25.18a1.51,1.51,0,0,1,0,.79c0,.1,0,.21.07.32a2.6,2.6,0,0,1-.19,2.1,1.41,1.41,0,0,1-.52,1.2c0,.32,0,.64,0,.95,0,2-.08,4-1.68,5a3.93,3.93,0,0,1-3.06.34c-.07,2.08.69,2.46,2.76,2.81a1.64,1.64,0,0,1,.61.25l1.21.86c1.88,1.36,3.5,2.53,4.9,2.63A1.49,1.49,0,0,1,44,153Zm-5.26-16.68Zm.15-.45Zm-3.23-1.61a.87.87,0,0,0,.26,1.12C35.82,135,35.73,134.66,35.64,134.28Zm-.22.6v0ZM126.57,10.71h0Zm0,0Zm-16.9-2.36h0Z" /> 

            <path class="cls-3" d="M82.53,95.13h-3l-2.9-10.22c-.13-.44-.29-1.09-.47-1.93s-.3-1.42-.34-1.75c-.08.5-.21,1.15-.38,2S75.06,84.57,75,85L72.11,95.13h-3l-2.21-8.58L64.6,78h2.86l2.45,10c.38,1.6.65,3,.82,4.24q.12-1,.39-2.22c.17-.82.32-1.49.46-2l2.79-10h2.78l2.86,10a39.65,39.65,0,0,1,.87,4.17A30.18,30.18,0,0,1,81.72,88l2.44-10H87Z" /> 

            <path class="cls-3" d="M101,95.13,99.3,90.37H92.75l-1.68,4.76H88.12l6.41-17.2h3L104,95.13ZM98.56,88,97,83.29c-.11-.31-.28-.8-.48-1.47s-.35-1.17-.43-1.48a25.49,25.49,0,0,1-.93,3.15L93.57,88Z" /> 

        </g> 

    </g> 

</svg> 