<svg xmlns="http://www.w3.org/2000/svg" viewBox="0 0 160 160"> 

 

    <g > 

        <g class="illustration-secondary" fill="#B3CBE8"> 

            <path class="cls-1" d="M51.6,59.36S30.43,65,33.11,44.37c-3.49-16.63,7-18.5,7-18.5L35.71,8.72l-27-2C2.9,6.76,3,13.45,3,13.45v92.86c0,6.32,4.29,5.88,4.29,5.88l60.86-1Z" /> 

            <path class="cls-1" d="M136.69,152.47l-5.18-5.64,1.94,4.45H27.61l.21-4.51-3.5,5.7a1.65,1.65,0,0,0,1.22,2.76H135.48A1.65,1.65,0,0,0,136.69,152.47Z" /> 

            <polygon class="cls-1" points="80.22 118.2 80.23 118.2 92.7 118.2 92.33 111.2 80.23 111.2 80.22 111.2 68.12 111.2 67.75 118.2 80.22 118.2" /> 

            <path class="cls-1" d="M81.9,76.15c4.06.73,4,.73,10.4,1.46,5.83,6.56,12.59,7.11,11.31,6.75s-3.1-6.94-3.1-6.94l16.23.37c8.21.18,10-7.48,10-7.48s.18-5.84,0-15.33-7.48-9.67-7.48-9.67l-33.57.91s-.91,8-2.92,11-4.38,2.56-4.38,2.56l-.91,6.38C78,72.93,81.9,76.15,81.9,76.15Z" /> 

        </g> 

    </g> 

    <g > 

        <g class="illustration-primary" fill="#2157AA"> 

            <path class="cls-2" d="M149.33,13.67H10.52A1.5,1.5,0,0,0,9,15.17V94.11a1.5,1.5,0,0,0,1.5,1.5H149.33a1.5,1.5,0,0,0,1.5-1.5V15.17A1.51,1.51,0,0,0,149.33,13.67Zm-1.5,78.94H12V16.67H147.83Z" /> 

            <path class="cls-2" d="M152.75,5.86H7.26a6.5,6.5,0,0,0-6.5,6.5v94.83a6.5,6.5,0,0,0,6.5,6.5H152.75a6.51,6.51,0,0,0,6.5-6.5V12.36A6.51,6.51,0,0,0,152.75,5.86Zm3.5,101.33a3.5,3.5,0,0,1-3.5,3.5H7.26a3.5,3.5,0,0,1-3.5-3.5V12.36a3.5,3.5,0,0,1,3.5-3.5H152.75a3.5,3.5,0,0,1,3.5,3.5Z" /> 

            <path class="cls-2" d="M80,97.41a5.14,5.14,0,1,0,5.14,5.14A5.14,5.14,0,0,0,80,97.41Zm0,7.28a2.14,2.14,0,1,1,2.14-2.14A2.14,2.14,0,0,1,80,104.69Z" /> 

            <path class="cls-2" d="M66.41,127.67a1.49,1.49,0,0,0,1.48-1.29c.47-3.42,1.27-9.39,1.27-9.39l-3-.4s-.8,6-1.27,9.38a1.5,1.5,0,0,0,1.28,1.69Z" /> 

            <path class="cls-2" d="M93.59,127.67h.21A1.5,1.5,0,0,0,95.08,126c-.46-3.41-1.27-9.38-1.27-9.38l-3,.4s.8,6,1.27,9.39A1.49,1.49,0,0,0,93.59,127.67Z" /> 

            <path class="cls-2" d="M27.27,149.07l105.05-.32a1.5,1.5,0,0,0,1.07-2.55L117.59,130a1.47,1.47,0,0,0-1.07-.45H43.07A1.47,1.47,0,0,0,42,130l-15.8,16.5a1.5,1.5,0,0,0,1.08,2.54Zm16.44-16.5h72.18l12.88,13.19-98,.3Z" /> 

            <path class="cls-2" d="M132.73,151.14h-105a1.5,1.5,0,0,0,0,3h105a1.5,1.5,0,1,0,0-3Z" /> 

            <path class="cls-2" d="M50.31,136.23a1.5,1.5,0,0,0-1.5-1.5H45.37a1.5,1.5,0,0,0,0,3h3.44A1.5,1.5,0,0,0,50.31,136.23Z" /> 

            <path class="cls-2" d="M54.79,137.73h3.44a1.5,1.5,0,0,0,0-3H54.79a1.5,1.5,0,1,0,0,3Z" /> 

            <path class="cls-2" d="M64.21,137.73h3.44a1.5,1.5,0,0,0,0-3H64.21a1.5,1.5,0,1,0,0,3Z" /> 

            <path class="cls-2" d="M43.74,140.31H40.3a1.5,1.5,0,0,0,0,3h3.44a1.5,1.5,0,1,0,0-3Z" /> 

            <path class="cls-2" d="M53.6,140.31H50.16a1.5,1.5,0,0,0,0,3H53.6a1.5,1.5,0,0,0,0-3Z" /> 

            <path class="cls-2" d="M63,140.31H59.58a1.5,1.5,0,1,0,0,3H63a1.5,1.5,0,0,0,0-3Z" /> 

            <path class="cls-2" d="M100.45,140.31H97a1.5,1.5,0,1,0,0,3h3.44a1.5,1.5,0,0,0,0-3Z" /> 

            <path class="cls-2" d="M110.31,140.31h-3.44a1.5,1.5,0,0,0,0,3h3.44a1.5,1.5,0,0,0,0-3Z" /> 

            <path class="cls-2" d="M119.73,140.31h-3.44a1.5,1.5,0,0,0,0,3h3.44a1.5,1.5,0,1,0,0-3Z" /> 

            <path class="cls-2" d="M90.43,140.31H69a1.5,1.5,0,0,0,0,3H90.43a1.5,1.5,0,0,0,0-3Z" /> 

            <path class="cls-2" d="M73.63,137.73h3.44a1.5,1.5,0,0,0,0-3H73.63a1.5,1.5,0,0,0,0,3Z" /> 

            <path class="cls-2" d="M83.05,137.73h3.44a1.5,1.5,0,0,0,0-3H83.05a1.5,1.5,0,1,0,0,3Z" /> 

            <path class="cls-2" d="M97.41,136.23a1.5,1.5,0,0,0-1.5-1.5H92.47a1.5,1.5,0,0,0,0,3h3.44A1.5,1.5,0,0,0,97.41,136.23Z" /> 

            <path class="cls-2" d="M106.83,136.23a1.5,1.5,0,0,0-1.5-1.5h-3.44a1.5,1.5,0,0,0,0,3h3.44A1.5,1.5,0,0,0,106.83,136.23Z" /> 

            <path class="cls-2" d="M116.25,136.23a1.5,1.5,0,0,0-1.5-1.5h-3.44a1.5,1.5,0,0,0,0,3h3.44A1.5,1.5,0,0,0,116.25,136.23Z" /> 

            <path class="cls-2" d="M41.84,60.85H56.58a14,14,0,0,1-5.48,7.32A1.51,1.51,0,0,0,52,70.91h.14c8-.75,13.47-5.74,16.71-10.05h7.51V68.4A10.29,10.29,0,0,0,86.6,78.68h4.59a21.38,21.38,0,0,0,14.64,8H106a1.5,1.5,0,0,0,.81-2.76,11.19,11.19,0,0,1-4.5-5.24h15.9A10.29,10.29,0,0,0,128.44,68.4V54.06a10.29,10.29,0,0,0-10.27-10.28H87.08V34A10.29,10.29,0,0,0,76.81,23.75h-35A10.29,10.29,0,0,0,31.56,34V50.58A10.29,10.29,0,0,0,41.84,60.85Zm76.33-14.07a7.29,7.29,0,0,1,7.27,7.28V68.4a7.29,7.29,0,0,1-7.27,7.28H100.23a1.49,1.49,0,0,0-1.46,1.83,13.81,13.81,0,0,0,2.11,4.88,20.19,20.19,0,0,1-7.8-6.14,1.48,1.48,0,0,0-1.17-.57H86.6a7.29,7.29,0,0,1-7.28-7.28V60.53a10.29,10.29,0,0,0,7.76-10v-3.8ZM34.56,34a7.28,7.28,0,0,1,7.28-7.27h35A7.28,7.28,0,0,1,84.08,34V50.58a7.28,7.28,0,0,1-7.27,7.27H68.06a1.5,1.5,0,0,0-1.22.63,23.39,23.39,0,0,1-9.9,8.19,17.68,17.68,0,0,0,3.05-7,1.49,1.49,0,0,0-.31-1.25,1.52,1.52,0,0,0-1.16-.55H41.84a7.28,7.28,0,0,1-7.28-7.27Z" /> 

            <path class="cls-2" d="M41.39,38.94H75.23a1.5,1.5,0,0,0,0-3H41.39a1.5,1.5,0,0,0,0,3Z" /> 

            <path class="cls-2" d="M41.39,47.52H63.45a1.5,1.5,0,0,0,0-3H41.39a1.5,1.5,0,0,0,0,3Z" /> 

            <path class="cls-2" d="M91.85,57.89h23.34a1.5,1.5,0,0,0,0-3H91.85a1.5,1.5,0,0,0,0,3Z" /> 

            <path class="cls-2" d="M91.85,66.47h12a1.5,1.5,0,0,0,0-3h-12a1.5,1.5,0,0,0,0,3Z" /> 

        </g> 

    </g> 

</svg> 