<svg xmlns="http://www.w3.org/2000/svg" xmlns:xlink="http://www.w3.org/1999/xlink" width="400" height="320" viewBox="0 0 400 320">
    <defs>
        <clipPath >
            <rect width="400" height="320" />
        </clipPath>
    </defs>
    <g  clip-path="url(#b)">
        <g transform="translate(0 3)">
            <path d="M397.9,222.8H380.86a10.975,10.975,0,0,1-10.943-10.942v-1.183a10.971,10.971,0,0,1,5.733-9.614,12.932,12.932,0,0,1,12.9-14.644c.133,0,.264.016.4.02a13.009,13.009,0,1,1,25.932-1.494c0,.128-.016.252-.019.379a12.948,12.948,0,0,1,11.452,14.411h1.225a10.975,10.975,0,0,1,10.942,10.943v1.183A10.974,10.974,0,0,1,427.534,222.8h-20.5" transform="translate(-21.851 21.321)" fill="#bfe2e2" />
            <path d="M353.652,200.77H337.259a15.19,15.19,0,0,1-15.146-15.146v-1.637a15.193,15.193,0,0,1,9.439-14.014,15.1,15.1,0,0,1-4.731-10.953v-4.094a15.19,15.19,0,0,1,15.146-15.146h.068a17.986,17.986,0,0,1,33.84,0h.068a15.19,15.19,0,0,1,15.146,15.146v4.094a15,15,0,0,1-.273,2.855c-.063.325,9.009,3.955,8.091,12.077s-.928,20.507,0,26.817" transform="translate(-23.866 19.465)" fill="#bfe2e2" />
            <path d="M297.739,218.908h7.583c10.932,0,19.8-6.647,19.8-14.846,0-7.192-6.82-13.187-15.873-14.552-.391-7.873-7.3-14.149-15.8-14.149-8.746,0-15.836,6.646-15.836,14.845,0,.084.012.166.014.249-7,2.29-11.89,7.517-11.89,13.607,0,8.2,8.862,14.846,19.794,14.846h5.4" transform="translate(-18 24)" fill="#bfe2e2" />
            <rect width="400" height="29.148" transform="translate(0 290.852)" fill="#bfe2e2" />
            <path d="M419.587,54.535h0a64.09,64.09,0,0,0-.07-9.476,43.088,43.088,0,0,0-1.387-8.13,19.225,19.225,0,0,0-3.442-7.075,9.536,9.536,0,0,0-7.311-3.613c-.868-.026-1.652-.047-2.443-.047-3,0-6.387.295-8.752,2.479.3-5.774-4.169-11.454-10.169-12.931a21.988,21.988,0,0,0-5.187-.609,19.034,19.034,0,0,0-7.087,1.265,9.372,9.372,0,0,0-4.939,4.094A31.991,31.991,0,0,0,358.42,7.231,35.352,35.352,0,0,0,342.4.393,34.855,34.855,0,0,0,337.164,0a37.389,37.389,0,0,0-14.712,3.061A33.839,33.839,0,0,0,310.5,11.6a4.457,4.457,0,0,0-1.017-3.481,8.788,8.788,0,0,0-6.7-2.911,8.036,8.036,0,0,0-2.3.322,13.934,13.934,0,0,0-5.778,3.6,40.729,40.729,0,0,0-4.368,5.347,11.686,11.686,0,0,0-9.7-4.941,10.845,10.845,0,0,0-9.419,5.347v39.3Z" transform="translate(-271.218 240.317)" fill="#bfe2e2" />
        </g>
        <path d="M0,170a1,1,0,0,1-1-1V0A1,1,0,0,1,0-1,1,1,0,0,1,1,0V169A1,1,0,0,1,0,170Z" transform="translate(139.059 71.5)" fill="#5bb3b3" />
        <path d="M434.624,133.772a1,1,0,0,1-.418-.092c-7.523-3.464-46.149-21.213-67.783-30.485-5.863-2.512-9.473-3.771-12.461-4.345a1,1,0,0,1-.81-.932l-.693-13.941a1,1,0,0,1,.937-1.048c3.536-.217,6.652-.649,8.081-.867V75.718a84.972,84.972,0,0,0-8.586-.949,1,1,0,0,1-.939-.948l-.273-5.484a1,1,0,0,1,.906-1.045,50.12,50.12,0,0,0,5.268-.79V60.059a45.516,45.516,0,0,0-5.765-.88,1,1,0,0,1-.91-.919l-2.444-31.482-1.828,31.4a1,1,0,0,1-.924.939,25.938,25.938,0,0,0-5.238.893V66.5c.978.2,2.794.538,4.887.752a1,1,0,0,1,.9,1.032l-.2,5.438a1,1,0,0,1-.957.962,49.414,49.414,0,0,0-8.249.993v6.385c1.4.214,4.433.634,7.889.855a1,1,0,0,1,.936,1.035l-.553,14.807a1,1,0,0,1-.635.894c-3.12,1.222-6.66,3.43-11.561,6.485-5.705,3.557-13.519,8.428-24.931,14.382a104.487,104.487,0,0,1-14.814,6.32,1,1,0,1,1-.641-1.895,102.48,102.48,0,0,0,14.53-6.2c11.344-5.918,19.12-10.766,24.8-14.306a88.56,88.56,0,0,1,11.279-6.4l.493-13.194c-4.394-.331-7.808-.918-7.961-.945a1,1,0,0,1-.829-.985V74.878a1,1,0,0,1,.769-.973,48.832,48.832,0,0,1,8.473-1.174l.134-3.594a48.734,48.734,0,0,1-4.985-.859,1,1,0,0,1-.767-.972V59.269a1,1,0,0,1,.688-.95,26.158,26.158,0,0,1,5.528-1.123L347.6,11.963a1,1,0,0,1,2-.019l3.518,45.325a42.99,42.99,0,0,1,6,1.034,1,1,0,0,1,.742.966v8.037a1,1,0,0,1-.767.972,49.084,49.084,0,0,1-5.362.9l.182,3.647A79.387,79.387,0,0,1,362.67,73.9a1,1,0,0,1,.809.982v8.037a1,1,0,0,1-.829.985c-.157.027-3.664.631-8.144.958l.606,12.187a70.878,70.878,0,0,1,12.1,4.311c21.657,9.283,60.3,27.041,67.831,30.507a1,1,0,0,1-.419,1.909Z" transform="translate(-18 28)" fill="#5bb3b3" />
        <path d="M312.166,239.966q-8.582,0-17.366-.22c-12.342-.309-24.6-.944-36.443-1.887-14.462-1.152-28.447-2.778-41.566-4.833-29.724-4.656-50.2-11.186-68.264-16.947-9.477-3.022-18.428-5.877-27.493-8.03A146.752,146.752,0,0,0,92.179,204c-11.653-.456-31.671-.638-60.86,1.086-17.465,1.032-30.1,2.275-30.221,2.288a1,1,0,0,1-.2-1.99c.126-.012,12.788-1.259,30.29-2.293,16.158-.955,39.869-1.918,61.066-1.088a148.7,148.7,0,0,1,29.239,4.1c9.139,2.171,18.125,5.036,27.639,8.07,18,5.739,38.394,12.244,67.965,16.877,13.07,2.047,27,3.667,41.416,4.816,11.8.94,24.028,1.574,36.334,1.882,5.831.146,11.613.219,17.316.219,8.354,0,16.541-.156,24.483-.469.815-.032,1.152-.045,1.3-.045H452.281a1,1,0,0,1,0,2H337.95c-.115,0-.579.018-1.221.044C328.761,239.809,320.545,239.966,312.166,239.966Z" transform="translate(-37.4 20.533)" fill="#5bb3b3" />
        <path d="M357.743,235.47a1,1,0,0,1-1-.963c-.01-.283-1.041-28.383-1.041-34.418,0-2.365-.523-4.13-1.555-5.245a5.14,5.14,0,0,0-2.5-1.4,1,1,0,1,1,.549-1.923c1.362.389,5.508,1.573,5.508,8.57,0,6,1.029,34.062,1.039,34.345a1,1,0,0,1-.963,1.036Z" transform="translate(-22.609 22.187)" fill="#5bb3b3" />
        <path d="M365.223,235.892a1,1,0,0,1-1-.99c0-.269-.27-26.961,0-35.329.028-.851.041-1.621.054-2.366.057-3.264.1-5.622,1.361-7.942,1.228-2.255,3.528-4.392,8.2-7.622a1,1,0,0,1,1.137,1.645c-4.335,3-6.532,5-7.582,6.933-1.029,1.888-1.062,3.82-1.118,7.02-.013.752-.027,1.53-.055,2.4-.269,8.326,0,34.975,0,35.244a1,1,0,0,1-.99,1.01Z" transform="translate(-22.054 21.765)" fill="#5bb3b3" />
        <path d="M397.708,236.847a1,1,0,0,1-1-1V216.7q0-.043,0-.087a8.113,8.113,0,0,0-.605-3.422c-.936-2.186-2.839-3.414-5.656-3.648a1,1,0,0,1,.166-1.993,8.566,8.566,0,0,1,6.108,2.859,9.472,9.472,0,0,1,1.983,6.329v19.115A1,1,0,0,1,397.708,236.847Z" transform="translate(-20.982 22.864)" fill="#5bb3b3" />
        <path d="M0,9.8a1,1,0,0,1-1-1V0A1,1,0,0,1,0-1,1,1,0,0,1,1,0V8.8A1,1,0,0,1,0,9.8Z" transform="translate(378.985 214.131)" fill="#5bb3b3" />
        <path d="M399.682,210.848a6.666,6.666,0,0,0-1.159-2.434,7.21,7.21,0,0,0-5.3-2.788,1,1,0,0,1,.2-1.99,9.168,9.168,0,0,1,6.759,3.667,8.536,8.536,0,0,1,1.46,3.182l-1.968.358Z" transform="translate(-20.864 22.699)" fill="#5bb3b3" />
        <path d="M364.125,185.813a1,1,0,0,1-.782-1.622c.161-.2,3.984-4.98,7.515-6.693a1,1,0,1,1,.873,1.8c-3.126,1.516-6.786,6.092-6.823,6.138A1,1,0,0,1,364.125,185.813Z" transform="translate(-22.095 21.593)" fill="#5bb3b3" />
        <path d="M358.59,191.056a1,1,0,0,1-.661-.25,8.178,8.178,0,0,0-4.41-1.709,1,1,0,0,1,.142-1.995,10.071,10.071,0,0,1,5.593,2.206,1,1,0,0,1-.665,1.747Z" transform="translate(-22.539 22.002)" fill="#5bb3b3" />
        <path d="M291.57,235.664a1,1,0,0,1-1-.973c0-.039-.1-4.007-.1-13.8a10.217,10.217,0,0,0-4.522-8.831,13.621,13.621,0,0,0-4.571-2.065,1,1,0,0,1,.392-1.961,15.569,15.569,0,0,1,5.326,2.388,12.267,12.267,0,0,1,5.375,10.469c0,9.763.1,13.712.1,13.75a1,1,0,0,1-.973,1.026Z" transform="translate(-18 24)" fill="#5bb3b3" />
        <path d="M297.405,235.743h-.027a1,1,0,0,1-.973-1.026c0-.039.1-3.987.1-13.75a12.267,12.267,0,0,1,5.375-10.469,15.569,15.569,0,0,1,5.326-2.388,1,1,0,0,1,.394,1.961h0a13.783,13.783,0,0,0-4.629,2.105,10.214,10.214,0,0,0-4.466,8.792c0,9.8-.1,13.765-.1,13.8A1,1,0,0,1,297.405,235.743Z" transform="translate(-18 24)" fill="#5bb3b3" />
        <path d="M297.1,208.569a1,1,0,0,1-.707-1.707,29.058,29.058,0,0,1,6.2-4.147,1,1,0,1,1,.894,1.789,27.6,27.6,0,0,0-5.679,3.771A1,1,0,0,1,297.1,208.569Z" transform="translate(-18 24)" fill="#5bb3b3" />
        <path d="M47.961,61.03a1,1,0,0,1-1-1V21.019a1,1,0,0,1,.611-.921L94.943.079A1,1,0,0,1,96.332,1V37.18a1,1,0,0,1-2,0V2.508L48.961,21.682V60.03A1,1,0,0,1,47.961,61.03Z" transform="translate(-18 15)" fill="#5bb3b3" />
        <path d="M0,153.279a1,1,0,0,1-1-1V0A1,1,0,0,1,0-1,1,1,0,0,1,1,0V152.279A1,1,0,0,1,0,153.279Z" transform="translate(53.249 71.221)" fill="#5bb3b3" />
        <path d="M0,0V30.646H9.583V0H0M0-2H9.583a2,2,0,0,1,2,2V30.646a2,2,0,0,1-2,2H0a2,2,0,0,1-2-2V0A2,2,0,0,1,0-2Z" transform="translate(-6.597 103.354)" fill="#5bb3b3" />
        <path d="M0,0V30.646H9.583V0H0M0-2H9.583a2,2,0,0,1,2,2V30.646a2,2,0,0,1-2,2H0a2,2,0,0,1-2-2V0A2,2,0,0,1,0-2Z" transform="translate(13.495 103.354)" fill="#5bb3b3" />
        <path d="M0,0V30.646H9.583V0H0M0-2H9.583a2,2,0,0,1,2,2V30.646a2,2,0,0,1-2,2H0a2,2,0,0,1-2-2V0A2,2,0,0,1,0-2Z" transform="translate(33.587 103.354)" fill="#5bb3b3" />
        <path d="M61.867,1H0A1,1,0,0,1-1,0,1,1,0,0,1,0-1H61.867a1,1,0,0,1,1,1A1,1,0,0,1,61.867,1Z" transform="translate(-12.689 88.967)" fill="#5bb3b3" />
        <path d="M61.867,1H0A1,1,0,0,1-1,0,1,1,0,0,1,0-1H61.867a1,1,0,0,1,1,1A1,1,0,0,1,61.867,1Z" transform="translate(-12.689 78.579)" fill="#5bb3b3" />
        <path d="M49.363,1H0A1,1,0,0,1-1,0,1,1,0,0,1,0-1H49.363a1,1,0,0,1,1,1A1,1,0,0,1,49.363,1Z" transform="translate(-5.971 152.905)" fill="#5bb3b3" />
        <path d="M49.363,1H0A1,1,0,0,1-1,0,1,1,0,0,1,0-1H49.363a1,1,0,0,1,1,1A1,1,0,0,1,49.363,1Z" transform="translate(-5.971 167.504)" fill="#5bb3b3" />
        <path d="M49.363,1H0A1,1,0,0,1-1,0,1,1,0,0,1,0-1H49.363a1,1,0,0,1,1,1A1,1,0,0,1,49.363,1Z" transform="translate(-5.971 182.103)" fill="#5bb3b3" />
        <path d="M49.363,1H0A1,1,0,0,1-1,0,1,1,0,0,1,0-1H49.363a1,1,0,0,1,1,1A1,1,0,0,1,49.363,1Z" transform="translate(-5.971 196.702)" fill="#5bb3b3" />
        <path d="M49.363,1H0A1,1,0,0,1-1,0,1,1,0,0,1,0-1H49.363a1,1,0,0,1,1,1A1,1,0,0,1,49.363,1Z" transform="translate(-5.971 209.089)" fill="#5bb3b3" />
        <path d="M47.267,1H0A1,1,0,0,1-1,0,1,1,0,0,1,0-1H47.267a1,1,0,0,1,1,1A1,1,0,0,1,47.267,1Z" transform="translate(29.961 45.442)" fill="#5bb3b3" />
        <path d="M0,0V11.425H92.888V0H0M0-2H92.888a2,2,0,0,1,2,2V11.425a2,2,0,0,1-2,2H0a2,2,0,0,1-2-2V0A2,2,0,0,1,0-2Z" transform="translate(48.751 57.892)" fill="#5bb3b3" />
        <path d="M2,2V26.406H21.037V2H2M0,0H23.037V28.406H0Z" transform="translate(66.497 80.742)" fill="#5bb3b3" />
        <path d="M2,2V26.406H21.037V2H2M0,0H23.037V28.406H0Z" transform="translate(100.098 80.742)" fill="#5bb3b3" />
        <path d="M2,2V26.406H21.037V2H2M0,0H23.037V28.406H0Z" transform="translate(66.497 131.401)" fill="#5bb3b3" />
        <path d="M2,2V26.406H21.037V2H2M0,0H23.037V28.406H0Z" transform="translate(100.098 131.401)" fill="#5bb3b3" />
        <path d="M2,2V26.406H21.037V2H2M0,0H23.037V28.406H0Z" transform="translate(66.497 182.061)" fill="#5bb3b3" />
        <path d="M2,2V26.406H21.037V2H2M0,0H23.037V28.406H0Z" transform="translate(100.098 182.061)" fill="#5bb3b3" />
        <path d="M399.37,113.324a1,1,0,0,1-.161-1.987c.074-.012,7.45-1.228,15.572-3.062,13.449-3.037,18.539-5.373,20.44-6.8a1,1,0,1,1,1.2,1.6c-2.993,2.245-10.129,4.651-21.208,7.152-8.179,1.846-15.606,3.071-15.68,3.083A1.008,1.008,0,0,1,399.37,113.324Z" transform="translate(-18 28)" fill="#5bb3b3" />
        <path d="M405.559,235a1,1,0,0,1-1-.969c0-.1-.3-9.7,0-17.147a24.605,24.605,0,0,1,1.173-7.6,13.458,13.458,0,0,1,2.04-3.956,8.188,8.188,0,0,1,3.609-2.734,1,1,0,0,1,.7,1.873c-1.986.745-3.485,2.58-4.455,5.456a22.933,22.933,0,0,0-1.068,6.97q0,.023,0,.047c-.3,7.38,0,16.931,0,17.027a1,1,0,0,1-.968,1.031Z" transform="translate(-20.354 23.695)" fill="#5bb3b3" />
        <g transform="translate(116.045 70.62)">
            <path d="M167.91,88.688A83.955,83.955,0,1,1,83.955,4.733,83.954,83.954,0,0,1,167.91,88.688" transform="translate(0 0.692)" fill="#ffd964" />
            <path d="M91.721,0,86.2,1.412,48.758,24.995,22.719,39.839l-1.89,1.607-1.922,2.366L17.69,45.841l-.5,1.483-.125,1.483.2,1.289.37,1.218.424,1.233v1.659l-.494,2.331-3.073,6.373-.6,1.9-.812,5.773L10.01,81.022l-.229,3.07.671,9.833,2.33,7.237-.124,2.507-.424,3.442-1.66,6.938-.123,3.213L11,119.2l3.072,2.279.669,1.041.125,1.307-.177,2.806.052,1.677.37,1.765.618,1.289.867.989,7.607,6.193,1.113.726,1.218.46,1.286.282,1.237-.371.847-.724L31.07,136.7l.8-.9.988-.74,1.412-.32,1.536.054,1.112,1.236.794,2.153.177,4.555,2.03,12.868,1.464,4.853,3.514,6.407,1.589,1.818.934.813.918.743,2.383,1.217,13.256,3.688,5.6,3.107,1.289.458,1.465.053,1.289-.37.986-.742.743-.971.672-1.111,1.465-3.425,1.411-2.119.688-.9.918-.865,1.042-.74,2.206-1.289.989-.8.672-1.041.422-1.218.74-2.719.445-2.823-.125-2.825-2.225-8.823-.248-2.649.195-1.289,1.836-6.515.121-3.67L85.4,124.9l-2.827-12.444L82.4,107.8l.918-2.329,1.712-1.926,6.513-2.188,1.166-2.3-.123-1.271.544-1.975,3.075-6.62.81-2.472.229-1.817-.724-2.594-.44-.864-1.113-1.575L94.051,77.1l.124-.565.442-1.166,1.9-2.807-.315-1.359-.425-1.234-.743-1.341.25-1.058.687-.972.9-.743,1.111-.671,1.359-1.359,1.465-1.835,3.547-5.455.989-1.306,1.908-1.343,1.218-.493L109.9,53.2l1.412.193,3.371,1.907,1.236.37,1.765-.549.936-.687,1.04-2.452,3.249-3.322,1.359-.353,1.889-.3L142.806,50.4l2.205-.125,1.731-.371,3.371-1.976,2.579-1.836,2.577-2.383v-.548l-.3-.864-1.06-.618L142.737,36.7l-5.209-1.66-1.959-.228-2.225-.567-11.6-4.538-1.959-1.233-1.111-1.289v-1.27l.248-1.307V23.318l-.742-1.712-1.218-.813-1.856-.3-2.029-.071-3.176-.972-1.66-.793-1.059-1.165-.425-1.042-.1-1.113v-.793l.229-2.524-.229-1.483L105.967,8.9,105,7.907,103.83,7.06Z" transform="translate(1.43 0)" fill="#b1a8e3" />
            <path d="M92.02-2.14l12.905,7.523,1.38,1,1.357,1.381.932,2.221.3,1.968-.243,2.678v.61l.067.725.179.439.557.613,1.172.56,2.782.851,1.89.066,2.409.388,2.071,1.382,1.141,2.634v1.891l-.248,1.307v.34l.43.5,1.544.972,11.307,4.424,1.975.5,2.017.235,5.5,1.752,11.371,5.066,1.793,1.045.654,1.882v1.76l-3.313,3.064L151.2,49.605l-3.725,2.183-2.2.471-2.559.145-16.544-2.371-1.5.238-.728.189-2.6,2.654-1.107,2.611-1.65,1.21-2.667.83-2.036-.61-3.232-1.829-.763-.1-.91.123-.772.312-1.466,1.032-.758,1-3.561,5.476-1.6,2-1.611,1.611-1.194.721-.581.479-.276.391.438.791.516,1.5.536,2.312L96.4,76.3l-.273.719.643,1.94,1.025,1.45.6,1.171.886,3.174-.3,2.407-.907,2.767-3.055,6.577-.4,1.459.143,1.483-1.8,3.544-6.784,2.279-1.123,1.263-.634,1.609.153,4.054,2.8,12.319,1.2,7.209-.136,4.112-1.868,6.628-.14.924.211,2.252,2.237,8.871.143,3.23-.493,3.13-.787,2.89-.523,1.51-.978,1.515-1.357,1.091-2.258,1.32-.857.609-.7.659-.549.718L79.244,173.1,77.8,176.481,77,177.8l-.976,1.276-1.5,1.129-1.951.56-2.091-.075-1.736-.617L63.207,177l-13.222-3.679-2.748-1.4L46.1,171l-1.037-.9-1.822-2.085-3.72-6.782-1.564-5.184-2.07-13.12-.169-4.356-.552-1.495-.287-.319-.428-.015-.743.168-.482.362-.5.566-1.232,2.35-1.46,1.249-2.138.642-1.935-.424-1.558-.588-1.384-.9L15.2,133.8l-1.158-1.322-.841-1.754-.456-2.174-.06-1.947.172-2.741L12.8,123.2l-.209-.325L9.26,120.4l-.819-2.9.142-3.726,1.679-7.021.4-3.258.1-2.069L8.473,94.305l-.7-10.22.256-3.424,3.09-10.5.814-5.792.693-2.2,3.031-6.286.4-1.89V52.883l-.338-.986L15.31,50.54l-.253-1.665.165-1.957L15.862,45l1.4-2.339,2.128-2.619,2.173-1.848L47.729,23.279,85.4-.448ZM102.736,8.737l-11.314-6.6L87,3.272,49.748,26.732,23.872,41.484,22.265,42.85l-1.716,2.112-1.031,1.719-.35,1.048-.085,1.01.139.913.318,1.046.521,1.515v2.2l-.588,2.773-3.115,6.46-.506,1.609-.809,5.755-3.053,10.37-.2,2.715.644,9.446L14.8,100.9l-.145,2.944-.447,3.626-1.64,6.855-.1,2.7.277.98,2.817,2.09,1.129,1.756.186,1.948-.181,2.871.043,1.407.285,1.356.4.825.575.656,7.395,6.02.842.549.879.331.638.14.336-.1.234-.2,1.1-2.1,1.091-1.236L32,133.2l2.081-.471,2.644.093,1.937,2.152,1.037,2.81.184,4.754,1.99,12.617,1.364,4.522,3.309,6.033L47.9,167.26l.8.7.728.589,2.017,1.031,13.29,3.7,5.659,3.142.843.3.839.03.628-.18.471-.354.509-.666.543-.9,1.482-3.465,1.549-2.327.826-1.08,1.137-1.071,1.227-.872,2.155-1.259.622-.5.366-.567.321-.927.694-2.548.4-2.516L84.9,155.1l-2.213-8.776-.285-3.046.25-1.655,1.8-6.4.107-3.228-1.12-6.7-2.855-12.57-.2-5.264,1.2-3.049,2.3-2.588,6.241-2.1.532-1.048-.1-1.06.687-2.491,3.1-6.664.714-2.178.155-1.226-.562-2.013-.284-.558-1.2-1.7L91.98,77.212l.273-1.245.578-1.523,1.546-2.278-.094-.407-.335-.971-1.033-1.865.517-2.188L94.5,65.228l1.221-1.006,1.028-.62,1.108-1.108,1.335-1.672,3.534-5.433,1.221-1.611,2.351-1.655,1.665-.674,1.946-.262,2.061.281,3.51,1.986.435.13.863-.268.223-.164.972-2.293,3.9-3.989,1.991-.517,2.283-.363,16.747,2.4,1.851-.1,1.265-.271,3.017-1.769,2.4-1.711,1.294-1.2-10.7-4.766L137.1,37l-1.9-.221-2.474-.631L120.84,31.5,118.467,30l-1.791-2.079v-2.2l.248-1.307v-.686l-.342-.79-.366-.244-1.3-.21-2.167-.076-3.571-1.093-2.148-1.026-1.561-1.716-.671-1.645-.139-1.5v-.976l.215-2.37-.154-1-.445-1.061-.587-.6Z" transform="translate(1.43 0)" fill="#313e58" />
            <g transform="translate(29.783 71.453)">
                <path d="M40.759,82.232,38.8,76.779H31.29l-1.921,5.452H25.984l7.347-19.717h3.492l7.347,19.717Zm-2.807-8.219-1.84-5.346q-.2-.538-.558-1.693t-.491-1.692A29.9,29.9,0,0,1,34,68.895L32.23,74.013Z" transform="translate(-25.984 -62.313)" fill="#313e58" />
                <path d="M53.551,65.092A5.291,5.291,0,0,0,49.2,67.053a8.383,8.383,0,0,0-1.585,5.414,8.443,8.443,0,0,0,1.524,5.466,5.386,5.386,0,0,0,4.413,1.853,11.545,11.545,0,0,0,2.417-.249q1.169-.249,2.431-.638v2.754a14.731,14.731,0,0,1-5.238.872,8.37,8.37,0,0,1-6.622-2.612q-2.311-2.612-2.311-7.474a12.071,12.071,0,0,1,1.122-5.36,8,8,0,0,1,3.244-3.519,9.807,9.807,0,0,1,4.983-1.222A12.373,12.373,0,0,1,59.139,63.6l-1.155,2.673a17.276,17.276,0,0,0-2.1-.825,7.57,7.57,0,0,0-2.33-.356" transform="translate(-24.463 -62.339)" fill="#313e58" />
                <path d="M68.308,82.222H65.1V65.338H59.322V62.585H74.084v2.753H68.308Z" transform="translate(-21.11 -62.303)" fill="#313e58" />
            </g>
            <rect width="167.91" height="178.759" fill="none" />
        </g>
    </g>
</svg>