<svg xmlns="http://www.w3.org/2000/svg" xmlns:xlink="http://www.w3.org/1999/xlink" width="400" height="320" viewBox="0 0 400 320">
    <defs>
        <clipPath>
            <rect width="178.808" height="167.91" fill="#ffd964" />
        </clipPath>
        <clipPath >
            <rect width="400" height="320" />
        </clipPath>
    </defs>
    <g clip-path="url(#c)">
        <path d="M352.685,202.618h71.082A19.371,19.371,0,0,0,443.081,183.3v-2.088a19.376,19.376,0,0,0-12.035-17.871,19.25,19.25,0,0,0,6.032-13.968v-5.22a19.371,19.371,0,0,0-19.315-19.315h-.086a22.936,22.936,0,0,0-43.154,0h-.086a19.371,19.371,0,0,0-19.315,19.315v5.22c0,1.245-13.663,22.821-13.434,24" transform="translate(-23.462 36.315)" fill="#bfe2e2" />
        <path d="M352.544,210.327h21.117a13.6,13.6,0,0,0,13.558-13.558V195.3a13.592,13.592,0,0,0-7.1-11.912,16.026,16.026,0,0,0-15.983-18.147c-.166,0-.326.02-.491.024a16.12,16.12,0,1,0-32.134-1.852c0,.159.02.313.024.47a16.047,16.047,0,0,0-14.191,17.858h-1.517A13.6,13.6,0,0,0,302.266,195.3v1.465a13.6,13.6,0,0,0,13.558,13.558H341.23" transform="translate(-27.051 39.74)" fill="#bfe2e2" />
        <path d="M956.136,2686.463a31.2,31.2,0,0,1-11.9-5.088,24.986,24.986,0,0,1-10.225.049c-12.336-2.494-20.323-13.531-17.838-24.651s14.5-18.114,26.838-15.619q1.182.239,2.311.581a30.907,30.907,0,0,1,21.545-3.3,30.479,30.479,0,0,1,15.461,8.079,17.706,17.706,0,0,1,12.564-2.009c8.776,1.775,14.513,9.384,12.812,16.995s-10.2,12.344-18.973,10.57q-.4-.08-.783-.176c-3.962,9.229-14.06,15.217-25.362,15.218A32.545,32.545,0,0,1,956.136,2686.463Z" transform="translate(-794.635 -2616.492)" fill="#c0e1e2" />
        <path d="M962.588,2687.613h0a33.125,33.125,0,0,1-6.551-.66,31.526,31.526,0,0,1-11.908-5.044,25.226,25.226,0,0,1-5.1.519,25.89,25.89,0,0,1-5.117-.514,24.853,24.853,0,0,1-8.993-3.725,22.616,22.616,0,0,1-6.41-6.468,19.463,19.463,0,0,1,.1-21.8,21.179,21.179,0,0,1,5.075-5.216,24.423,24.423,0,0,1,14.308-4.558,25.874,25.874,0,0,1,5.119.515c.725.146,1.447.325,2.149.53a30.661,30.661,0,0,1,15.155-3.907,33.129,33.129,0,0,1,6.552.66,32.258,32.258,0,0,1,8.707,3.091,29.667,29.667,0,0,1,6.732,4.855,17.791,17.791,0,0,1,8.782-2.259,19.222,19.222,0,0,1,3.8.383,17.489,17.489,0,0,1,11.251,7.377,13.33,13.33,0,0,1,1.95,10.217,13.1,13.1,0,0,1-2.045,4.641,14.572,14.572,0,0,1-3.581,3.578,17.674,17.674,0,0,1-10.133,3.114,19.2,19.2,0,0,1-3.8-.382c-.13-.026-.262-.054-.394-.084a24.587,24.587,0,0,1-9.962,10.917A30.54,30.54,0,0,1,962.588,2687.613Zm-18.24-6.773.18.127a30.516,30.516,0,0,0,11.707,5.006,32.143,32.143,0,0,0,6.353.64,29.538,29.538,0,0,0,15.177-4.077,23.52,23.52,0,0,0,9.726-10.838l.167-.39.412.1c.254.063.51.12.762.171a18.221,18.221,0,0,0,3.6.362,16.665,16.665,0,0,0,9.556-2.93,13.568,13.568,0,0,0,3.336-3.332,12.109,12.109,0,0,0,1.891-4.288,12.339,12.339,0,0,0-1.813-9.455,16.487,16.487,0,0,0-10.61-6.941,18.239,18.239,0,0,0-3.6-.363,16.736,16.736,0,0,0-8.6,2.311l-.333.2-.276-.273a28.61,28.61,0,0,0-6.771-4.95,31.277,31.277,0,0,0-8.437-2.995,32.147,32.147,0,0,0-6.354-.64,29.629,29.629,0,0,0-14.842,3.88l-.188.108-.208-.063c-.737-.223-1.5-.414-2.265-.569a24.89,24.89,0,0,0-4.921-.5,23.415,23.415,0,0,0-13.719,4.366,20.177,20.177,0,0,0-4.837,4.969,18.463,18.463,0,0,0-.088,20.693,21.622,21.622,0,0,0,6.129,6.183,23.857,23.857,0,0,0,8.634,3.574,24.889,24.889,0,0,0,4.919.494,24.21,24.21,0,0,0,5.1-.542Z" transform="translate(-794.635 -2616.492)" fill="rgba(0,0,0,0)" />
        <path d="M963.647,2684.511a24.568,24.568,0,0,1-9.857-4.7,18.634,18.634,0,0,1-8.472.045,19.379,19.379,0,0,1-11.994-8.391,13.611,13.611,0,0,1-6.946.225c-7.273-1.638-12.026-8.663-10.617-15.689a12.875,12.875,0,0,1,15.721-9.758,14.145,14.145,0,0,1,3.941,1.534,18.446,18.446,0,0,1,17.352-5.1,19.258,19.258,0,0,1,1.915.536,23.352,23.352,0,0,1,17.851-3.045,24.525,24.525,0,0,1,12.811,7.459,13.391,13.391,0,0,1,10.409-1.855c7.272,1.639,12.026,8.663,10.616,15.69a12.873,12.873,0,0,1-15.72,9.757q-.328-.073-.649-.162a22.319,22.319,0,0,1-21.015,14.049A24.314,24.314,0,0,1,963.647,2684.511Z" transform="translate(-881.166 -2655.342)" fill="#c0e1e2" />
        <path d="M968.993,2685.61h0a25.128,25.128,0,0,1-15.323-5.255,19,19,0,0,1-4.194.469,19.661,19.661,0,0,1-11.358-3.641,20.014,20.014,0,0,1-5.008-5.133,13.922,13.922,0,0,1-3.663.488,14.61,14.61,0,0,1-12.048-6.388,13.452,13.452,0,0,1-2.129-10.244,12.844,12.844,0,0,1,4.678-7.606,13.731,13.731,0,0,1,8.466-2.9,14.486,14.486,0,0,1,3.177.356,14.654,14.654,0,0,1,3.744,1.4,18.9,18.9,0,0,1,13.281-5.444,19.454,19.454,0,0,1,4.269.478c.582.131,1.165.291,1.736.475a23.518,23.518,0,0,1,12.573-3.6,25.1,25.1,0,0,1,18.239,7.911,13.7,13.7,0,0,1,7.258-2.051,14.606,14.606,0,0,1,12.046,6.388,13.453,13.453,0,0,1,2.128,10.244,12.84,12.84,0,0,1-4.677,7.605,13.729,13.729,0,0,1-8.465,2.9,14.484,14.484,0,0,1-3.178-.356l-.237-.055a22.06,22.06,0,0,1-8.252,10.041A23.474,23.474,0,0,1,968.993,2685.61Zm-15.084-6.34.191.151a24.127,24.127,0,0,0,14.893,5.189,22.477,22.477,0,0,0,12.51-3.746,21.057,21.057,0,0,0,8.038-9.983l.163-.422.436.12c.21.058.42.11.626.156a13.474,13.474,0,0,0,2.959.332,12.723,12.723,0,0,0,7.846-2.683,11.84,11.84,0,0,0,4.315-7.017c1.354-6.751-3.237-13.527-10.236-15.1a13.471,13.471,0,0,0-2.958-.332,12.684,12.684,0,0,0-7.064,2.115l-.359.239-.289-.319a24.1,24.1,0,0,0-17.786-7.894,22.51,22.51,0,0,0-12.234,3.565l-.2.131-.228-.077a18.85,18.85,0,0,0-1.865-.522,18.449,18.449,0,0,0-4.049-.454,17.9,17.9,0,0,0-12.835,5.414l-.271.278-.337-.193a13.638,13.638,0,0,0-3.8-1.479,13.49,13.49,0,0,0-2.957-.332,12.726,12.726,0,0,0-7.848,2.683,11.843,11.843,0,0,0-4.316,7.017c-1.354,6.751,3.238,13.526,10.237,15.1a13.487,13.487,0,0,0,2.959.332,12.892,12.892,0,0,0,3.732-.548l.359-.108.2.315a19.036,19.036,0,0,0,4.954,5.172,18.661,18.661,0,0,0,10.779,3.456,17.982,17.982,0,0,0,4.2-.5Z" transform="translate(-881.166 -2655.342)" fill="rgba(0,0,0,0)" />
        <path d="M304.87,126.659a1,1,0,0,1-.452-1.893c.645-.326,64.648-32.681,75.389-39.421a85.936,85.936,0,0,1,12.144-6.234,132.436,132.436,0,0,1,12.689-4.567c8.346-2.56,16.161-4.223,21.866-5.438,3.5-.746,6.271-1.335,7.563-1.806a1,1,0,0,1,.685,1.879,75.981,75.981,0,0,1-7.832,1.883c-5.67,1.207-13.434,2.86-21.7,5.394a130.431,130.431,0,0,0-12.5,4.5,83.938,83.938,0,0,0-11.86,6.086c-10.82,6.79-72.913,38.18-75.551,39.513A1,1,0,0,1,304.87,126.659Z" transform="matrix(0.996, -0.087, 0.087, 0.996, -28.043, 73.585)" fill="#5bb3b3" />
        <path d="M387.719,248.585h-.007a1,1,0,0,1-.993-1.007c0-.531.366-53.23,0-64.531-.038-1.171-.056-2.225-.074-3.243-.074-4.244-.122-7.048-1.559-9.687-1.454-2.669-4.465-5.429-10.395-9.526a1,1,0,1,1,1.137-1.645c6.289,4.346,9.378,7.21,11.014,10.215,1.672,3.069,1.724,6.068,1.8,10.608.018,1.011.036,2.057.073,3.213.367,11.34,0,64.078,0,64.609A1,1,0,0,1,387.719,248.585Z" transform="translate(-16.76 41.327)" fill="#5bb3b3" />
        <path d="M396.406,248.585a1,1,0,0,1-1-.993c0-.531-.366-53.27,0-64.609.037-1.156.056-2.2.073-3.213.079-4.54.131-7.539,1.8-10.609,1.637-3.005,4.725-5.869,11.014-10.215a1,1,0,1,1,1.137,1.645c-5.93,4.1-8.941,6.857-10.395,9.526-1.437,2.638-1.486,5.442-1.559,9.687-.018,1.019-.036,2.072-.074,3.243-.365,11.3,0,64,0,64.531a1,1,0,0,1-.993,1.007Z" transform="translate(-12.686 41.327)" fill="#5bb3b3" />
        <path d="M339.312,241.875H339.3a1,1,0,0,1-.985-1.015c0-.278.4-27.951,0-37.98q0-.024,0-.047a31.458,31.458,0,0,0-1.466-9.57c-1.352-4.007-3.456-6.571-6.255-7.621a1,1,0,1,1,.7-1.873,10.756,10.756,0,0,1,4.737,3.593,17.9,17.9,0,0,1,2.71,5.262,32.98,32.98,0,0,1,1.571,10.2c.4,10.1,0,37.788,0,38.067A1,1,0,0,1,339.312,241.875Z" transform="translate(-25.367 46.17)" fill="#5bb3b3" />
        <path d="M347.583,240.724a1,1,0,0,1-1-1v-38a12.463,12.463,0,0,1,2.606-8.341,11.275,11.275,0,0,1,8.042-3.751,1,1,0,1,1,.166,1.993,9.36,9.36,0,0,0-6.679,3.047,10.519,10.519,0,0,0-2.138,6.927q0,.043,0,.087v38.035A1,1,0,0,1,347.583,240.724Z" transform="translate(-22.139 47.321)" fill="#5bb3b3" />
        <path d="M342.194,189.254a1,1,0,0,1-.946-.677c-2.647-7.737-7.992-8.614-8.046-8.622a1,1,0,0,1,.293-1.978,9.865,9.865,0,0,1,3.764,1.658,13.738,13.738,0,0,1,3.135,3.017,18.6,18.6,0,0,1,2.746,5.278,1,1,0,0,1-.946,1.324Z" transform="translate(-24.899 45.055)" fill="#5bb3b3" />
        <path d="M0,12.941a1,1,0,0,1-1-1V0A1,1,0,0,1,0-1,1,1,0,0,1,1,0V11.941A1,1,0,0,1,0,12.941Z" transform="translate(322.381 214.522)" fill="#5bb3b3" />
        <path d="M344.09,195.185a1,1,0,0,1-.985-1.179,11.182,11.182,0,0,1,1.917-4.169,12.085,12.085,0,0,1,8.916-4.828,1,1,0,0,1,.2,1.99,10.094,10.094,0,0,0-7.5,4.016,9.368,9.368,0,0,0-1.566,3.349A1,1,0,0,1,344.09,195.185Z" transform="translate(-22.814 46.422)" fill="#5bb3b3" />
        <path d="M388.567,164.654a1,1,0,0,1-.783-.378c-.057-.072-5.074-6.337-9.377-8.423a1,1,0,0,1,.872-1.8c4.717,2.287,9.853,8.706,10.07,8.978a1,1,0,0,1-.782,1.622Z" transform="translate(-16.065 40.392)" fill="#5bb3b3" />
        <path d="M119.816,146.4H107.588a1,1,0,0,1-1-1V51.133H47.448V70.379a1,1,0,0,1-1,1H24.03a1,1,0,0,1-1-1V3.264H1a1,1,0,1,1,0-2H24.03a1,1,0,0,1,1,1V69.379H45.448V50.133a1,1,0,0,1,1-1h61.14a1,1,0,0,1,1,1V144.4h11.228a1,1,0,0,1,0,2Z" transform="translate(-3.042 18.754)" fill="#5bb3b3" />
        <path d="M0-1H11.631a1,1,0,0,1,1,1V25.634a1,1,0,0,1-1,1H0a1,1,0,0,1-1-1V0A1,1,0,0,1,0-1ZM10.631,1H1V24.634h9.631Z" transform="translate(58.617 84.585)" fill="#5bb3b3" />
        <path d="M0-1H11.631a1,1,0,0,1,1,1V25.634a1,1,0,0,1-1,1H0a1,1,0,0,1-1-1V0A1,1,0,0,1,0-1ZM10.631,1H1V24.634h9.631Z" transform="translate(79.941 84.585)" fill="#5bb3b3" />
        <path d="M0-1H11.631a1,1,0,0,1,1,1V25.634a1,1,0,0,1-1,1H0a1,1,0,0,1-1-1V0A1,1,0,0,1,0-1ZM10.631,1H1V24.634h9.631Z" transform="translate(58.617 131.684)" fill="#5bb3b3" />
        <path d="M0-1H11.631a1,1,0,0,1,1,1V25.634a1,1,0,0,1-1,1H0a1,1,0,0,1-1-1V0A1,1,0,0,1,0-1ZM10.631,1H1V24.634h9.631Z" transform="translate(79.941 131.684)" fill="#5bb3b3" />
        <path d="M0,58.037a1,1,0,0,1-1-1V0A1,1,0,0,1,0-1,1,1,0,0,1,1,0V57.037A1,1,0,0,1,0,58.037Z" transform="translate(43.11 101.017)" fill="#5bb3b3" />
        <path d="M0,58.037a1,1,0,0,1-1-1V0A1,1,0,0,1,0-1,1,1,0,0,1,1,0V57.037A1,1,0,0,1,0,58.037Z" transform="translate(22.216 101.017)" fill="#5bb3b3" />
        <path d="M96.9,210.445a1,1,0,0,1-.867-1.5,23.012,23.012,0,0,1,4.385-5.24,16.788,16.788,0,0,1,5.2-3.213,12.628,12.628,0,0,1,6.311-.691c1.927-2.971,4.256-4.742,6.932-5.266a10.021,10.021,0,0,1,6.716,1.228,25.626,25.626,0,0,1,3.149-3.066,20.185,20.185,0,0,1,4.15-2.66,13.529,13.529,0,0,1,5.315-1.346c3.822-.125,7.41,1.608,10.679,5.151a8.394,8.394,0,0,1,6.293-1.356c3.614.708,6.2,3.761,7.259,5.217,1.8-.821,6.209-2.4,10.4-.544,3.641,1.611,6.141,5.367,7.429,11.164a1,1,0,1,1-1.952.434c-1.141-5.136-3.252-8.421-6.274-9.764a9.575,9.575,0,0,0-6.315-.324,13.86,13.86,0,0,0-3.13,1.188,1,1,0,0,1-1.352-.354c-.025-.042-2.645-4.316-6.455-5.056a6.783,6.783,0,0,0-5.458,1.522,1,1,0,0,1-1.359-.149c-3.011-3.513-6.27-5.239-9.687-5.13-3.355.106-6.329,1.975-8.233,3.523a22.591,22.591,0,0,0-3.441,3.467,1,1,0,0,1-1.4.2,8.364,8.364,0,0,0-5.965-1.378c-2.26.45-4.261,2.1-5.947,4.914a1,1,0,0,1-1.054.466,10.662,10.662,0,0,0-5.908.484,14.8,14.8,0,0,0-4.576,2.838,21.208,21.208,0,0,0-3.973,4.733A1,1,0,0,1,96.9,210.445Z" transform="translate(-17 44)" fill="#5bb3b3" />
        <path d="M269.239,1H0A1,1,0,0,1-1,0,1,1,0,0,1,0-1H269.239a1,1,0,0,1,1,1A1,1,0,0,1,269.239,1Z" transform="translate(-0.004 253.754)" fill="#5bb3b3" />
        <path d="M27.883,1H0A1,1,0,0,1-1,0,1,1,0,0,1,0-1H27.883a1,1,0,0,1,1,1A1,1,0,0,1,27.883,1Z" transform="translate(27.724 273.694)" fill="#5bb3b3" />
        <path d="M45.334,1H0A1,1,0,0,1-1,0,1,1,0,0,1,0-1H45.334a1,1,0,0,1,1,1A1,1,0,0,1,45.334,1Z" transform="translate(-0.004 288.974)" fill="#5bb3b3" />
        <path d="M44.466,218.3a1,1,0,0,1-1-1V143.6a1,1,0,0,1,1-1h55.8a1,1,0,0,1,1,1v6.538a1,1,0,1,1-2,0V144.6h-53.8v72.7A1,1,0,0,1,44.466,218.3Z" transform="translate(-17 36.141)" fill="#5bb3b3" />
        <path d="M2.33,222.436a1,1,0,0,1-1-1V134.055a1,1,0,0,1,1-1H52.566a1,1,0,0,1,1,1v9.752a1,1,0,0,1-2,0v-8.752H3.33v86.382A1,1,0,0,1,2.33,222.436Z" transform="translate(-9.042 32.009)" fill="#5bb3b3" />
        <path d="M83.774,220.749a1,1,0,0,1-1-1V156.577a1,1,0,0,1,1-1h40.11a1,1,0,0,1,1,1v42.276a1,1,0,0,1-2,0V157.577H84.774v62.173A1,1,0,0,1,83.774,220.749Z" transform="translate(-17 33.696)" fill="#5bb3b3" />
        <path d="M27.039,1H0A1,1,0,0,1-1,0,1,1,0,0,1,0-1H27.039a1,1,0,0,1,1,1A1,1,0,0,1,27.039,1Z" transform="translate(96.884 282.733)" fill="#5bb3b3" />
        <path d="M288.5,1H0A1,1,0,0,1-1,0,1,1,0,0,1,0-1H288.5a1,1,0,0,1,1,1A1,1,0,0,1,288.5,1Z" transform="translate(111.5 299.723)" fill="#5bb3b3" />
        <path d="M72.58,1H0A1,1,0,0,1-1,0,1,1,0,0,1,0-1H72.58a1,1,0,0,1,1,1A1,1,0,0,1,72.58,1Z" transform="translate(154.634 278.913)" fill="#5bb3b3" />
        <path d="M40.11,1H0A1,1,0,0,1-1,0,1,1,0,0,1,0-1H40.11a1,1,0,0,1,1,1A1,1,0,0,1,40.11,1Z" transform="translate(139.354 270.744)" fill="#5bb3b3" />
        <path d="M284.326,79.775a1,1,0,0,1-.586-1.811c9.549-6.89,17.466-11.33,23.532-13.2a69.649,69.649,0,0,1,26.1-2.475,110.526,110.526,0,0,1,23.9,4.813,143.182,143.182,0,0,1,17.471,6.766c4.242,1.975,6.708,3.388,6.81,3.448a1,1,0,1,1-1,1.734A132.529,132.529,0,0,0,356.628,69a108.468,108.468,0,0,0-23.442-4.717,67.652,67.652,0,0,0-25.326,2.4c-5.857,1.8-13.578,6.144-22.95,12.906A1,1,0,0,1,284.326,79.775Z" transform="translate(-17 38)" fill="#5bb3b3" />
        <path d="M173.13,198.634a1,1,0,0,1-.3-1.954c6.5-2.061,11.586-3.855,17-6a1,1,0,0,1,.737,1.859c-5.458,2.162-10.581,3.97-17.13,6.046A1,1,0,0,1,173.13,198.634Z" transform="translate(-17 44)" fill="#5bb3b3" />
        <path d="M10.19,1H0A1,1,0,0,1-1,0,1,1,0,0,1,0-1H10.19a1,1,0,0,1,1,1A1,1,0,0,1,10.19,1Z" transform="translate(-0.004 36.968)" fill="#5bb3b3" />
        <path d="M10.19,1H0A1,1,0,0,1-1,0,1,1,0,0,1,0-1H10.19a1,1,0,0,1,1,1A1,1,0,0,1,10.19,1Z" transform="translate(-0.004 67.594)" fill="#5bb3b3" />
        <path d="M10.19,1H0A1,1,0,0,1-1,0,1,1,0,0,1,0-1H10.19a1,1,0,0,1,1,1A1,1,0,0,1,10.19,1Z" transform="translate(-0.004 96.592)" fill="#5bb3b3" />
        <path d="M10.19,1H0A1,1,0,0,1-1,0,1,1,0,0,1,0-1H10.19a1,1,0,0,1,1,1A1,1,0,0,1,10.19,1Z" transform="translate(-0.004 125.59)" fill="#5bb3b3" />
        <path d="M10.19,1H0A1,1,0,0,1-1,0,1,1,0,0,1,0-1H10.19a1,1,0,0,1,1,1A1,1,0,0,1,10.19,1Z" transform="translate(-0.004 155.474)" fill="#5bb3b3" />
        <g transform="translate(2245 690)">
            <path d="M19.783-1a20.777,20.777,0,0,1,14.7,35.479A20.783,20.783,0,1,1,11.693.634,20.654,20.654,0,0,1,19.783-1Zm0,39.566a18.788,18.788,0,0,0,7.311-36.09A18.788,18.788,0,0,0,12.472,37.09,18.664,18.664,0,0,0,19.783,38.566Z" transform="translate(-1927.146 -630.863) rotate(-67.5)" fill="#5bb3b3" />
            <path d="M0,9.961a1,1,0,0,1-1-1V0A1,1,0,0,1,0-1,1,1,0,0,1,1,0V8.961A1,1,0,0,1,0,9.961Z" transform="translate(-1901.299 -675.26)" fill="#5bb3b3" />
            <path d="M0,9.961a1,1,0,0,1-1-1V0A1,1,0,0,1,0-1,1,1,0,0,1,1,0V8.961A1,1,0,0,1,0,9.961Z" transform="translate(-1901.299 -615.867)" fill="#5bb3b3" />
            <path d="M6.337,7.337a1,1,0,0,1-.707-.293L-.707.707a1,1,0,0,1,0-1.414,1,1,0,0,1,1.414,0L7.044,5.63a1,1,0,0,1-.707,1.707Z" transform="translate(-1925.466 -665.25)" fill="#5bb3b3" />
            <path d="M6.337,7.337a1,1,0,0,1-.707-.293L-.707.707a1,1,0,0,1,0-1.414,1,1,0,0,1,1.414,0L7.044,5.63a1,1,0,0,1-.707,1.707Z" transform="translate(-1883.469 -623.252)" fill="#5bb3b3" />
            <path d="M8.961,1.032h0L0,1A1,1,0,0,1-1,0,1,1,0,0,1,0-1l8.961.032a1,1,0,0,1,0,2Z" transform="translate(-1876.083 -640.996)" fill="#5bb3b3" />
            <path d="M8.961,1.032h0L0,1A1,1,0,0,1-1,0,1,1,0,0,1,0-1l8.961.032a1,1,0,0,1,0,2Z" transform="translate(-1935.476 -641.202)" fill="#5bb3b3" />
            <path d="M0,7.315a1,1,0,0,1-.71-.3,1,1,0,0,1,0-1.414L5.654-.71a1,1,0,0,1,1.414,0,1,1,0,0,1,0,1.414L.7,7.025A1,1,0,0,1,0,7.315Z" transform="translate(-1883.407 -665.166)" fill="#5bb3b3" />
            <path d="M0,7.315a1,1,0,0,1-.71-.3,1,1,0,0,1,0-1.414L5.654-.71a1,1,0,0,1,1.414,0,1,1,0,0,1,0,1.414L.7,7.025A1,1,0,0,1,0,7.315Z" transform="translate(-1925.549 -623.314)" fill="#5bb3b3" />
            <path d="M0,9.293a1,1,0,0,1-.378-.075,1,1,0,0,1-.547-1.3L2.469-.379a1,1,0,0,1,1.3-.547A1,1,0,0,1,4.32.379L.925,8.672A1,1,0,0,1,0,9.293Z" transform="translate(-1891.748 -672.714)" fill="#5bb3b3" />
            <path d="M0,9.293a1,1,0,0,1-.378-.075,1,1,0,0,1-.547-1.3L2.469-.379a1,1,0,0,1,1.3-.547A1,1,0,0,1,4.32.379L.925,8.672A1,1,0,0,1,0,9.293Z" transform="translate(-1914.243 -617.745)" fill="#5bb3b3" />
            <path d="M3.464,9.265a1,1,0,0,1-.923-.614L-.922.387A1,1,0,0,1-.387-.922,1,1,0,0,1,.922-.387L4.386,7.878a1,1,0,0,1-.922,1.387Z" transform="translate(-1914.512 -672.603)" fill="#5bb3b3" />
            <path d="M3.464,9.265a1,1,0,0,1-.923-.614L-.922.387A1,1,0,0,1-.387-.922,1,1,0,0,1,.922-.387L4.386,7.878a1,1,0,0,1-.922,1.387Z" transform="translate(-1891.55 -617.828)" fill="#5bb3b3" />
            <path d="M8.281,4.423A1,1,0,0,1,7.9,4.347L-.382.924A1,1,0,0,1-.924-.382,1,1,0,0,1,.382-.924L8.663,2.5a1,1,0,0,1-.382,1.924Z" transform="translate(-1877.994 -631.452)" fill="#5bb3b3" />
            <path d="M8.281,4.423A1,1,0,0,1,7.9,4.347L-.382.924A1,1,0,0,1-.924-.382,1,1,0,0,1,.382-.924L8.663,2.5a1,1,0,0,1-.382,1.924Z" transform="translate(-1932.885 -654.137)" fill="#5bb3b3" />
            <path d="M0,4.436a1,1,0,0,1-.924-.617,1,1,0,0,1,.54-1.307L7.893-.924A1,1,0,0,1,9.2-.383,1,1,0,0,1,8.659.924L.383,4.36A1,1,0,0,1,0,4.436Z" transform="translate(-1878.009 -654.188)" fill="#5bb3b3" />
            <path d="M0,4.436a1,1,0,0,1-.924-.617,1,1,0,0,1,.54-1.307L7.893-.924A1,1,0,0,1,9.2-.383,1,1,0,0,1,8.659.924L.383,4.36A1,1,0,0,1,0,4.436Z" transform="translate(-1932.864 -631.414)" fill="#5bb3b3" />
        </g>
        <g transform="translate(110.596 76.045)" clip-path="url(#a)">
            <path d="M172.664,83.955A83.955,83.955,0,1,1,88.709,0a83.954,83.954,0,0,1,83.955,83.955" transform="translate(0.695)" fill="#ffd964" />
        </g>
        <rect width="167.91" height="178.759" transform="translate(116.045 70.62)" fill="none" />
        <path d="M102.708,17.03c-.063,1.788-7.963,9.172-4.913,9.646,23.587,14.282,22.086,15.871,25.089,8.791,5.993-13.439,2.417-49.582,13.014-10.514,4.649-6.468,7.425,7.183,6.929,9.939,4.622.732,1.248,6.194,3.561,9.573,8.713,6.226,12.507,5.914,15.617,17.092,2.333-.578,4.028-.273,4.483,2.657.927,4.485,8.446,7.81,9.453,11.972,10.448,32.371-10.8,29.444-13.843,54.793-2.245,1.653-5-.276-4.929.386-11.611,6.693-13.3,3.491-18.1,2.028-6.271,6.758-14.7-2.691-16.372-.407-7.973-2.1-4.227-13.255-10.254-11.678-.825-3.987-3.082-4.886-3.082-4.886-2.784,6.9-2.675-2.948-1.183-5.153-4.085-2.333-8.229,14.171-11.875,2.059-8.475-17.99-43.418-7.843-53.062.466-22.123-2.414-18.226,8.36-32.062,3.694-4.212-2.366-3.685-4.451-3.244-5.267,5.165-4.263.236-10.673-1.866-16.645-.556-8.284-2.9-4.9-4-10.975-3.82-9.441,2.614-2.21.282-9.331C-7.738,56.046,17.32,54.888,26.045,49.491c6.619,2.53,10.27-5.842,13.482-8.758-2.939-3.482.933-5.279,2.5-6.467,1.2,4.71,3.578,5.982,3.521,1.929-1.3-6.931,3.675-1.475,3.26-2.908-1.9-4.476,4.358-7.079,7.261-9.393,6.83-5.606,6.638,3.67,14.375,3.167,1.874.042,1.549-1.041.806-3.071,5.229-20.752,30.552-10.516,31.463-6.96" transform="translate(110.596 77.117)" fill="#a0d1a0" />
        <path d="M133.644,137.874c-2.943,0-5.627-1.268-7.784-2.287a20.354,20.354,0,0,0-2.1-.906,2,2,0,0,1-1.574.24,8.827,8.827,0,0,1-5.383-3.931,18.453,18.453,0,0,1-1.966-4.954,12.189,12.189,0,0,0-.906-2.563c-.191-.317-.259-.317-.421-.317a2.264,2.264,0,0,0-.56.087,2,2,0,0,1-2.465-1.529,7.763,7.763,0,0,0-.656-1.95,2.616,2.616,0,0,1-2.047,1.073,2.383,2.383,0,0,1-2.106-1.33,8.663,8.663,0,0,1-.494-4.21l-.343.435c-1.578,2.007-3.209,4.083-5.44,4.084A3.889,3.889,0,0,1,96.214,118a13.443,13.443,0,0,1-1.778-3.941,13.853,13.853,0,0,0-7.022-6.662,27.315,27.315,0,0,0-11.224-2.068,59.709,59.709,0,0,0-18.454,3.287c-5.571,1.88-10.5,4.384-13.186,6.7a2,2,0,0,1-1.522.473,54.384,54.384,0,0,0-5.841-.346,23.65,23.65,0,0,0-12.578,3.039,14.845,14.845,0,0,1-7.378,2.2,21.165,21.165,0,0,1-6.688-1.291,2,2,0,0,1-.34-.151c-5.928-3.329-4.578-6.936-4.024-7.962a2,2,0,0,1,.486-.591,3.968,3.968,0,0,0,1.5-3.982,24.649,24.649,0,0,0-2.224-6.256c-.617-1.369-1.255-2.785-1.753-4.2a2,2,0,0,1-.109-.53,14.914,14.914,0,0,0-.686-4.08A4.056,4.056,0,0,0,2.5,90.257a9.357,9.357,0,0,1-2.35-5.093c-1.357-3.392-1.621-5.153-.979-6.462A2.9,2.9,0,0,1,.822,77.24a10.524,10.524,0,0,0-.317-1.194,21.643,21.643,0,0,1-2.39-7.072A12.017,12.017,0,0,1-1.2,62.928c1.19-2.989,3.67-5.473,7.58-7.594a67.943,67.943,0,0,1,10.376-4.188,45.215,45.215,0,0,0,8.237-3.356,2,2,0,0,1,1.766-.167,4.764,4.764,0,0,0,1.694.338c2.692,0,4.965-2.927,6.97-5.509.532-.685,1.047-1.348,1.562-1.948a4.738,4.738,0,0,1-.49-2.775c.32-2.328,2.345-3.7,3.684-4.613.24-.163.468-.318.631-.442a2,2,0,0,1,2.666.221,3.252,3.252,0,0,1,.642-1.3,2.8,2.8,0,0,1,2.193-1.011q.122,0,.241.009a6.824,6.824,0,0,1,1.585-3.131A21.664,21.664,0,0,1,52.8,23.73c.755-.5,1.467-.967,2-1.393,1.874-1.535,3.489-2.25,5.083-2.25,2.182,0,3.662,1.349,4.969,2.539,1.375,1.253,2.571,2.343,4.65,2.446-.055-.154-.106-.294-.143-.4a2,2,0,0,1-.061-1.176c1.253-4.972,3.679-8.714,7.212-11.123A18.631,18.631,0,0,1,87.223,9.355,30.171,30.171,0,0,1,98.4,11.635a20.536,20.536,0,0,1,3.907,2.076,5.341,5.341,0,0,1,2.34,2.823,2,2,0,0,1,.061.567c-.045,1.279-.974,2.523-2.9,4.992-.666.854-1.355,1.736-1.891,2.518-.2.293-.353.533-.469.728,4.917,2.986,8.657,5.365,11.686,7.292,2.805,1.784,4.832,3.073,6.33,3.908a8.678,8.678,0,0,0,2.253,1.012,15.681,15.681,0,0,0,1.089-2.3q.115-.273.239-.567l.015-.034c1.943-4.356,2.861-11.584,3.6-17.392.372-2.931.694-5.463,1.1-7.38a12.177,12.177,0,0,1,.788-2.6,2.886,2.886,0,0,1,2.629-1.947,3.5,3.5,0,0,1,2.769,1.847,19.344,19.344,0,0,1,1.616,3.389c.952,2.447,2.088,6.031,3.455,10.9a3.705,3.705,0,0,1,1.3-.236,4.178,4.178,0,0,1,3.243,1.7,16.285,16.285,0,0,1,2.715,6.434,25.218,25.218,0,0,1,.6,4.09,4.4,4.4,0,0,1,2.168,2.4,10.228,10.228,0,0,1,.432,3.825,7.683,7.683,0,0,0,.415,3.4c1.775,1.252,3.35,2.237,4.75,3.112a27.07,27.07,0,0,1,6.72,5.2,22,22,0,0,1,4.073,7.933q.132-.005.26-.005c1.51,0,4.131.591,4.768,4.532.367,1.653,2.341,3.431,4.25,5.151,2.212,1.992,4.5,4.052,5.16,6.638,2.948,9.157,3.659,16.224,2.238,22.234-1.292,5.464-4.111,9.243-7.1,13.244-3.814,5.112-7.757,10.4-8.923,20.1a2,2,0,0,1-.8,1.372,5.563,5.563,0,0,1-3.372,1.078,8.731,8.731,0,0,1-2.191-.314c-4.992,2.832-8.594,4.1-11.633,4.1a13.212,13.212,0,0,1-5.447-1.333c-.363-.151-.716-.3-1.074-.437A8.926,8.926,0,0,1,133.644,137.874Zm-10.139-7.252a10.283,10.283,0,0,1,4.063,1.348c1.8.848,4.03,1.9,6.075,1.9a5.146,5.146,0,0,0,3.961-1.84,2,2,0,0,1,2.049-.553,26.408,26.408,0,0,1,2.529.948,9.578,9.578,0,0,0,3.906,1.025c2.285,0,5.367-1.142,9.676-3.588a2.159,2.159,0,0,1,1.569-.644,4.446,4.446,0,0,1,1.164.2,5.753,5.753,0,0,0,1.414.245,2.16,2.16,0,0,0,.346-.026c1.456-10.078,5.744-15.827,9.543-20.919,2.848-3.818,5.308-7.115,6.409-11.773a25.485,25.485,0,0,0,.463-8.25,55.328,55.328,0,0,0-2.636-11.9q-.023-.071-.041-.144c-.343-1.42-2.186-3.08-3.969-4.685-2.4-2.165-4.889-4.4-5.5-7.352q-.01-.049-.018-.1a2.043,2.043,0,0,0-.385-1.119.847.847,0,0,0-.44-.086,5.253,5.253,0,0,0-1.2.182,2,2,0,0,1-2.408-1.405c-2.2-7.913-4.509-9.355-9.564-12.515-1.536-.96-3.276-2.048-5.288-3.486a2,2,0,0,1-.488-.5c-1.321-1.929-1.292-4.168-1.269-5.967a7.892,7.892,0,0,0-.165-2.337c-.057-.149-.122-.317-.79-.423a2,2,0,0,1-1.655-2.33,17.28,17.28,0,0,0-.7-5.16c-.715-2.681-1.515-3.792-1.864-4.092a3.486,3.486,0,0,0-.768.835,2,2,0,0,1-3.554-.644c-1.467-5.409-2.668-9.4-3.67-12.2-.283-.79-.532-1.434-.75-1.959q-.037.194-.074.408c-.292,1.653-.562,3.784-.849,6.04-.77,6.062-1.728,13.6-3.906,18.5l-.228.54a16.675,16.675,0,0,1-1.475,3,3.741,3.741,0,0,1-3.177,1.76c-2.115,0-4.494-1.513-10.854-5.558-3.085-1.962-6.911-4.4-11.964-7.459a2.648,2.648,0,0,1-1.735-1.56c-.552-1.394.171-2.838.951-4.066.663-1.045,1.554-2.186,2.416-3.289.553-.709,1.311-1.679,1.755-2.345a15.68,15.68,0,0,0-4.048-2.16,25.987,25.987,0,0,0-9.137-1.772,14.725,14.725,0,0,0-8.452,2.329A14.141,14.141,0,0,0,73.338,23.9c.478,1.364.821,2.738-.008,3.923a3.174,3.174,0,0,1-2.788,1.239h-.058c-.218.013-.435.019-.647.019-3.832,0-6.051-2.021-7.672-3.5-1.018-.928-1.673-1.5-2.275-1.5a4.611,4.611,0,0,0-2.558,1.353l-.022.018C56.632,26,55.842,26.52,55,27.071c-3.6,2.373-5.087,3.721-4.36,5.436a2,2,0,0,1,.08.224,2.185,2.185,0,0,1-.318,1.977,2.081,2.081,0,0,1-1.68.832,2.828,2.828,0,0,1-1.326-.375c.027.193.062.412.109.661a2,2,0,0,1,.034.341,4.955,4.955,0,0,1-1.067,3.676,2.577,2.577,0,0,1-1.844.782c-.788,0-1.953-.36-3.029-2.075a9.7,9.7,0,0,1-.576-1.071,1.628,1.628,0,0,0-.568.795,1.948,1.948,0,0,0,.6,1.17,2,2,0,0,1-.184,2.771A23.339,23.339,0,0,0,38.583,44.9a31.007,31.007,0,0,1-4.006,4.5,9.2,9.2,0,0,1-6.123,2.551,8.4,8.4,0,0,1-2.176-.294,56.286,56.286,0,0,1-8.228,3.265C11.669,57.11,4.439,59.58,2.516,64.408a7.965,7.965,0,0,0-.434,4.056,17.9,17.9,0,0,0,2.045,5.878,2,2,0,0,1,.13.307c.75,2.289.82,3.665.241,4.751a2.926,2.926,0,0,1-1.6,1.374,18.843,18.843,0,0,0,1.03,3.079,2,2,0,0,1,.114.394,5.63,5.63,0,0,0,1.467,3.382c1.265,1.45,2.192,2.849,2.538,7.534.432,1.183.994,2.429,1.538,3.638a27.687,27.687,0,0,1,2.543,7.38,7.912,7.912,0,0,1-2.475,7.2c.017.5.767,1.362,2.348,2.277a17.032,17.032,0,0,0,5.228,1.021c2.151,0,3.573-.735,5.542-1.752a27.428,27.428,0,0,1,14.413-3.486c1.677,0,3.5.095,5.433.282a48.51,48.51,0,0,1,13.838-6.9,63.794,63.794,0,0,1,19.733-3.5,31.233,31.233,0,0,1,12.872,2.423,17.735,17.735,0,0,1,9.053,8.729,2,2,0,0,1,.106.276,9.256,9.256,0,0,0,1.276,2.956,4.7,4.7,0,0,0,.641-.577c.49-.511,1.009-1.171,1.559-1.87,1.631-2.075,3.317-4.22,5.654-4.22a3.636,3.636,0,0,1,1.822.493,2,2,0,0,1,.665,2.858,6.525,6.525,0,0,0-.538,2.033,1.994,1.994,0,0,1,.805.142c.29.116,2.564,1.121,3.818,4.609a4.32,4.32,0,0,1,3.435,2.23,14.511,14.511,0,0,1,1.331,3.539,15.168,15.168,0,0,0,1.5,3.913,4.745,4.745,0,0,0,2.254,1.939A3.206,3.206,0,0,1,123.506,130.622Z" transform="translate(110.596 77.117)" fill="#313e58" />
        <path d="M121.721,129.146c-.483-3.753,7.605,2.705,15.529-.93,3.094,5.145-5.19,14.489-9.167,12.246-4.032-1-4.9-9.505-6.361-11.316" transform="translate(128.389 94.749)" fill="#a0d1a0" />
        <path d="M129.448,142.8a4.754,4.754,0,0,1-2.1-.47c-1.673-.5-3.038-1.795-4.169-3.948A31.881,31.881,0,0,1,121.2,133.2a16.86,16.86,0,0,0-1.034-2.8,1.983,1.983,0,0,1-.425-1,3.052,3.052,0,0,1,.657-2.513,3,3,0,0,1,2.359-.96,14.28,14.28,0,0,1,3.152.55,24.632,24.632,0,0,0,5.819.893,11.022,11.022,0,0,0,4.693-.972,2,2,0,0,1,2.548.787c1.468,2.442,1.241,5.732-.622,9.028a15.837,15.837,0,0,1-3.827,4.508A8.394,8.394,0,0,1,129.448,142.8Zm-5.012-12.566c.188.534.373,1.122.574,1.757a28.943,28.943,0,0,0,1.71,4.532c.424.807,1.087,1.807,1.842,1.994a2,2,0,0,1,.5.2.729.729,0,0,0,.383.084,4.824,4.824,0,0,0,2.579-1.214,11.744,11.744,0,0,0,2.833-3.346,8.018,8.018,0,0,0,1.032-2.891,4.628,4.628,0,0,0,.035-.534,15.785,15.785,0,0,1-4.2.551,28.328,28.328,0,0,1-6.762-1.005Z" transform="translate(128.389 94.749)" fill="#313e58" />
        <rect width="178.808" height="167.91" transform="translate(110.596 76.045)" fill="none" />
    </g>
</svg>