<svg xmlns="http://www.w3.org/2000/svg" xmlns:xlink="http://www.w3.org/1999/xlink" width="400" height="320" viewBox="0 0 400 320">
    <defs>
        <clipPath>
            <rect width="73.021" height="84.496" fill="none" />
        </clipPath>
        <clipPath>
            <rect width="72.154" height="132.091" fill="#bfe2e2" />
        </clipPath>
        <clipPath>
            <path d="M35.89,26.108v55.04a2.137,2.137,0,1,0,4.274,0V26.108a2.137,2.137,0,1,0-4.274,0" transform="translate(-35.89 -23.97)" fill="#bfe2e2" />
        </clipPath>
        <clipPath>
            <rect width="400" height="320" />
        </clipPath>
    </defs>
    <g clip-path="url(#f)">
        <rect width="400" height="320" fill="transparent" />
        <path d="M398.953,1H0A1,1,0,0,1-1,0,1,1,0,0,1,0-1H398.953a1,1,0,0,1,1,1A1,1,0,0,1,398.953,1Z" transform="translate(-4.193 200.069)" fill="#5bb3b3" />
        <path d="M117.017,1H0A1,1,0,0,1-1,0,1,1,0,0,1,0-1H117.017a1,1,0,0,1,1,1A1,1,0,0,1,117.017,1Z" transform="translate(-11.584 95.309)" fill="#5bb3b3" />
        <path d="M117.017,1H0A1,1,0,0,1-1,0,1,1,0,0,1,0-1H117.017a1,1,0,0,1,1,1A1,1,0,0,1,117.017,1Z" transform="translate(286.543 95.309)" fill="#5bb3b3" />
        <path d="M117.017,1H0A1,1,0,0,1-1,0,1,1,0,0,1,0-1H117.017a1,1,0,0,1,1,1A1,1,0,0,1,117.017,1Z" transform="translate(-11.584 107.047)" fill="#5bb3b3" />
        <path d="M117.017,1H0A1,1,0,0,1-1,0,1,1,0,0,1,0-1H117.017a1,1,0,0,1,1,1A1,1,0,0,1,117.017,1Z" transform="translate(286.543 107.047)" fill="#5bb3b3" />
        <path d="M0-1H16.151a1,1,0,0,1,1,1V70.563a1,1,0,0,1-1,1H0a1,1,0,0,1-1-1V0A1,1,0,0,1,0-1ZM15.151,1H1V69.563H15.151Z" transform="translate(56.42 19.523)" fill="#5bb3b3" />
        <path d="M0-1H16.151a1,1,0,0,1,1,1V70.563a1,1,0,0,1-1,1H0a1,1,0,0,1-1-1V0A1,1,0,0,1,0-1ZM15.151,1H1V69.563H15.151Z" transform="translate(81.069 19.523)" fill="#5bb3b3" />
        <path d="M3.59,1H0A1,1,0,0,1-1,0,1,1,0,0,1,0-1H3.59a1,1,0,0,1,1,1A1,1,0,0,1,3.59,1Z" transform="translate(87.35 51.846)" fill="#5bb3b3" />
        <path d="M3.59,1H0A1,1,0,0,1-1,0,1,1,0,0,1,0-1H3.59a1,1,0,0,1,1,1A1,1,0,0,1,3.59,1Z" transform="translate(87.35 58.749)" fill="#5bb3b3" />
        <g transform="translate(342.188 19.523)">
            <path d="M0-1H16.151a1,1,0,0,1,1,1V70.563a1,1,0,0,1-1,1H0a1,1,0,0,1-1-1V0A1,1,0,0,1,0-1ZM15.151,1H1V69.563H15.151Z" transform="translate(24.06 0)" fill="#5bb3b3" />
            <path d="M3.59,1H0A1,1,0,0,1-1,0,1,1,0,0,1,0-1H3.59a1,1,0,0,1,1,1A1,1,0,0,1,3.59,1Z" transform="translate(30.341 32.323)" fill="#5bb3b3" />
            <path d="M3.59,1H0A1,1,0,0,1-1,0,1,1,0,0,1,0-1H3.59a1,1,0,0,1,1,1A1,1,0,0,1,3.59,1Z" transform="translate(30.341 39.226)" fill="#5bb3b3" />
            <path d="M0-1H16.151a1,1,0,0,1,1,1V70.563a1,1,0,0,1-1,1H0a1,1,0,0,1-1-1V0A1,1,0,0,1,0-1ZM15.151,1H1V69.563H15.151Z" transform="translate(0 0)" fill="#5bb3b3" />
            <path d="M3.59,1H0A1,1,0,0,1-1,0,1,1,0,0,1,0-1H3.59a1,1,0,0,1,1,1A1,1,0,0,1,3.59,1Z" transform="translate(6.281 32.323)" fill="#5bb3b3" />
            <path d="M3.59,1H0A1,1,0,0,1-1,0,1,1,0,0,1,0-1H3.59a1,1,0,0,1,1,1A1,1,0,0,1,3.59,1Z" transform="translate(6.281 39.226)" fill="#5bb3b3" />
        </g>
        <g transform="translate(294.211 19.523)">
            <path d="M0-1H16.151a1,1,0,0,1,1,1V70.563a1,1,0,0,1-1,1H0a1,1,0,0,1-1-1V0A1,1,0,0,1,0-1ZM15.151,1H1V69.563H15.151Z" transform="translate(24.06 0)" fill="#5bb3b3" />
            <path d="M3.59,1H0A1,1,0,0,1-1,0,1,1,0,0,1,0-1H3.59a1,1,0,0,1,1,1A1,1,0,0,1,3.59,1Z" transform="translate(30.341 32.323)" fill="#5bb3b3" />
            <path d="M3.59,1H0A1,1,0,0,1-1,0,1,1,0,0,1,0-1H3.59a1,1,0,0,1,1,1A1,1,0,0,1,3.59,1Z" transform="translate(30.341 39.226)" fill="#5bb3b3" />
            <path d="M0-1H16.151a1,1,0,0,1,1,1V70.563a1,1,0,0,1-1,1H0a1,1,0,0,1-1-1V0A1,1,0,0,1,0-1ZM15.151,1H1V69.563H15.151Z" transform="translate(0 0)" fill="#5bb3b3" />
            <path d="M3.59,1H0A1,1,0,0,1-1,0,1,1,0,0,1,0-1H3.59a1,1,0,0,1,1,1A1,1,0,0,1,3.59,1Z" transform="translate(6.281 32.323)" fill="#5bb3b3" />
            <path d="M3.59,1H0A1,1,0,0,1-1,0,1,1,0,0,1,0-1H3.59a1,1,0,0,1,1,1A1,1,0,0,1,3.59,1Z" transform="translate(6.281 39.226)" fill="#5bb3b3" />
        </g>
        <g transform="matrix(-0.985, -0.174, 0.174, -0.985, 125.646, 551.014)">
            <path d="M265.781,214.637c-.4,0-1.447,0-1.709-.9L263,210.082c-.292-1,.815-1.606,1.411-1.934.558-.308,1.341-.681,2.326-1.11,1.651-.719,3.3-1.344,3.365-1.37q.037-.014.075-.025l72.962-21.311a2.251,2.251,0,0,1,2.79,1.529L347,189.517a2.252,2.252,0,0,1-1.529,2.79l-73.256,21.4q-.039.012-.08.02A47.714,47.714,0,0,1,265.781,214.637Zm-.7-4.566.749,2.566a45.643,45.643,0,0,0,5.86-.865l73.217-21.384a.252.252,0,0,0,.17-.309l-1.068-3.656a.256.256,0,0,0-.242-.179.245.245,0,0,0-.069.01l-72.923,21.3c-.225.086-1.47.565-2.786,1.125A24.2,24.2,0,0,0,265.085,210.07Z" transform="translate(-219.031 62.371)" fill="#5bb3b3" />
            <path d="M1.794,7.144a1,1,0,0,1-.959-.72L-.96.28A1,1,0,0,1-.28-.96,1,1,0,0,1,.96-.28L2.754,5.863a1,1,0,0,1-.96,1.281Z" transform="translate(122.508 248.165)" fill="#5bb3b3" />
            <path d="M337.246,191.054a1,1,0,0,1-.28-1.96l1.827-.533a.254.254,0,0,0,.169-.31l-.533-1.824a.254.254,0,0,0-.31-.171l-1.972.577a1,1,0,0,1-.561-1.92l1.973-.577a2.254,2.254,0,0,1,2.791,1.53l.533,1.824a2.254,2.254,0,0,1-1.527,2.79l-1.828.534A1,1,0,0,1,337.246,191.054Z" transform="translate(-210.062 62.371)" fill="#5bb3b3" />
            <path d="M321.645,190.373a1.411,1.411,0,0,1-1.349-1.011l-.045-.151a1.406,1.406,0,0,1,.957-1.745l5.94-1.735a1.4,1.4,0,0,1,.394-.057,1.411,1.411,0,0,1,1.35,1.013l.044.15a1.406,1.406,0,0,1-.957,1.745l-5.94,1.735A1.4,1.4,0,0,1,321.645,190.373Z" transform="translate(-211.892 62.549)" fill="#5bb3b3" />
            <path d="M1.662,6.693A1,1,0,0,1,.7,5.973L-.96.28A1,1,0,0,1-.28-.96,1,1,0,0,1,.96-.28L2.622,5.412a1,1,0,0,1-.96,1.281Z" transform="translate(96.348 256.051)" fill="#5bb3b3" />
            <path d="M1.662,6.693A1,1,0,0,1,.7,5.973L-.96.28A1,1,0,0,1-.28-.96,1,1,0,0,1,.96-.28L2.622,5.412a1,1,0,0,1-.96,1.281Z" transform="translate(95.028 256.436)" fill="#5bb3b3" />
            <path d="M263.083,211.28c-1.524,0-2.315-.254-2.707-.858a1.25,1.25,0,0,1-.147-1.048c.179-.611.779-1.157,2.072-1.884.762-.429,1.486-.756,1.517-.77a1,1,0,0,1,.823,1.823c-.5.226-1.01.489-1.441.736a16.308,16.308,0,0,0,1.734-.108,1,1,0,0,1,.234,1.986c-.037,0-.909.106-1.852.121Z" transform="translate(-219.379 65.163)" fill="#5bb3b3" />
            <path d="M.656,3.25A1,1,0,0,1-.3,2.53L-.96.28A1,1,0,0,1-.28-.96,1,1,0,0,1,.96-.28l.657,2.249A1,1,0,0,1,.656,3.25Z" transform="translate(44.376 273.087)" fill="#5bb3b3" />
        </g>
        <g transform="translate(16.353)">
            <path d="M405,255.576a1,1,0,0,1-.706-.292l-50.487-50.3-76.106,50.339a1,1,0,1,1-1.1-1.668l76.786-50.789a1,1,0,0,1,1.257.126l51.064,50.877a1,1,0,0,1-.706,1.708Z" transform="translate(-196.402 64.673)" fill="#5bb3b3" />
            <path d="M40.382,38.146a1,1,0,0,1-.677-.264L-.677.736A1,1,0,0,1-.736-.677,1,1,0,0,1,.677-.736L41.06,36.41a1,1,0,0,1-.677,1.736Z" transform="translate(147.425 282.161)" fill="#5bb3b3" />
            <path d="M32.382,32.464a1,1,0,0,1-.7-.283L-.7.717A1,1,0,0,1-.717-.7,1,1,0,0,1,.7-.717L33.079,30.746a1,1,0,0,1-.7,1.717Z" transform="translate(139.568 287.366)" fill="#5bb3b3" />
            <path d="M17.538,18.775a1,1,0,0,1-.712-.3L-.712.7A1,1,0,0,1-.7-.712,1,1,0,0,1,.712-.7L18.25,17.073a1,1,0,0,1-.712,1.7Z" transform="translate(131.402 292.47)" fill="#5bb3b3" />
            <path d="M17.541,18.16a1,1,0,0,1-.7-.285L-.7.715A1,1,0,0,1-.715-.7,1,1,0,0,1,.7-.715l17.541,17.16a1,1,0,0,1-.7,1.715Z" transform="translate(117.993 302.26)" fill="#5bb3b3" />
            <path d="M12.916,13.636a1,1,0,0,1-.7-.285L-.7.715A1,1,0,0,1-.715-.7,1,1,0,0,1,.7-.715L13.616,11.922a1,1,0,0,1-.7,1.715Z" transform="translate(109.828 307.364)" fill="#5bb3b3" />
        </g>
        <path d="M3.59,1H0A1,1,0,0,1-1,0,1,1,0,0,1,0-1H3.59a1,1,0,0,1,1,1A1,1,0,0,1,3.59,1Z" transform="translate(62.701 51.846)" fill="#5bb3b3" />
        <path d="M3.59,1H0A1,1,0,0,1-1,0,1,1,0,0,1,0-1H3.59a1,1,0,0,1,1,1A1,1,0,0,1,3.59,1Z" transform="translate(62.701 58.749)" fill="#5bb3b3" />
        <path d="M0-1H16.151a1,1,0,0,1,1,1V70.563a1,1,0,0,1-1,1H0a1,1,0,0,1-1-1V0A1,1,0,0,1,0-1ZM15.151,1H1V69.563H15.151Z" transform="translate(32.36 19.523)" fill="#5bb3b3" />
        <path d="M3.59,1H0A1,1,0,0,1-1,0,1,1,0,0,1,0-1H3.59a1,1,0,0,1,1,1A1,1,0,0,1,3.59,1Z" transform="translate(38.64 51.846)" fill="#5bb3b3" />
        <path d="M3.59,1H0A1,1,0,0,1-1,0,1,1,0,0,1,0-1H3.59a1,1,0,0,1,1,1A1,1,0,0,1,3.59,1Z" transform="translate(38.64 58.749)" fill="#5bb3b3" />
        <path d="M3.4,2.136a1,1,0,0,1-.317-.052L-.316.949A1,1,0,0,1-.949-.316,1,1,0,0,1,.316-.949L3.72.187A1,1,0,0,1,3.4,2.136Z" transform="translate(8.22 51.429)" fill="#5bb3b3" />
        <path d="M3.4,2.136a1,1,0,0,1-.317-.052L-.316.949A1,1,0,0,1-.949-.316,1,1,0,0,1,.316-.949L3.72.187A1,1,0,0,1,3.4,2.136Z" transform="translate(6.038 57.978)" fill="#5bb3b3" />
        <path d="M0-1H16.151a1,1,0,0,1,1,1V70.563a1,1,0,0,1-1,1H0a1,1,0,0,1-1-1V0A1,1,0,0,1,0-1ZM15.151,1H1V69.563H15.151Z" transform="matrix(-0.949, -0.316, 0.316, -0.949, 5.493, 90.828)" fill="#5bb3b3" />
        <g transform="translate(-6.566 -2.113)">
            <g transform="translate(112 93.16)">
                <path d="M188.4,122.331l-6.087-13.668v-2.613H182.2v.925c0,6.129-4.066,11.1-9.082,11.1H16.015c-5.016,0-9.082-4.968-9.082-11.1v-.925H6.9v2.506L.73,122.331c-1.62,2.157-.368,5.637,2.028,5.637H186.374c2.4,0,3.647-3.48,2.028-5.637" transform="translate(0 15.397)" fill="#e4e6ea" />
                <path d="M9.462,23.656H0V9.462A9.473,9.473,0,0,1,9.462,0h54.4a9.473,9.473,0,0,1,9.462,9.462V23.654H63.866V9.462H9.462V23.655Z" transform="translate(57.389 2.069)" fill="#313e58" />
                <path d="M1401.082,1403.852a9.24,9.24,0,0,1-9.082-9.39V1336a14.4,14.4,0,0,0,11.329,5.57h53.74v3.261H1502.2v-3.261h53.74a14.406,14.406,0,0,0,11.329-5.57v58.463a9.24,9.24,0,0,1-9.082,9.39Z" transform="translate(-1384.561 -1268.585)" fill="#708daf" />
                <path d="M1558.184,1404.352h-157.1a9.751,9.751,0,0,1-9.582-9.89v-59.9l.893,1.132a13.887,13.887,0,0,0,10.936,5.38h54.24v3.261H1501.7v-3.261h54.24a13.891,13.891,0,0,0,10.936-5.38l.893-1.131v59.9A9.751,9.751,0,0,1,1558.184,1404.352ZM1392.5,1337.346v57.117a8.75,8.75,0,0,0,8.582,8.89h157.1a8.75,8.75,0,0,0,8.582-8.89v-57.117a14.82,14.82,0,0,1-10.829,4.725H1502.7v3.261h-46.128v-3.261h-53.24A14.817,14.817,0,0,1,1392.5,1337.346Z" transform="translate(-1384.561 -1268.585)" fill="rgba(0,0,0,0)" />
                <path d="M175.841,21.751H12.166a9.083,9.083,0,0,0-9.083,9.082v25.6A14.615,14.615,0,0,0,17.7,71.044h53.74V60.377a6.218,6.218,0,0,1,6.217-6.217H110.35a6.217,6.217,0,0,1,6.217,6.217V71.044h53.74a14.615,14.615,0,0,0,14.616-14.615v-25.6a9.082,9.082,0,0,0-9.082-9.082" transform="translate(0.105 3.974)" fill="#96b7df" />
                <path d="M92.037,86.873H72.482a6.626,6.626,0,0,1-6.619-6.619V77.706a1.5,1.5,0,0,1,3,0v2.549a3.623,3.623,0,0,0,3.619,3.619H92.037a3.623,3.623,0,0,0,3.619-3.619V77.706a1.5,1.5,0,0,1,3,0v2.549A6.626,6.626,0,0,1,92.037,86.873Z" transform="translate(11.813 14.197)" fill="#313e58" />
                <path d="M66.568,74.827V56.087a3.567,3.567,0,0,0-1.046-2.523l-3.144-3.144a5.1,5.1,0,0,0-1.5,3.619V77.571A5.118,5.118,0,0,0,66,82.69h34.891a5.1,5.1,0,0,0,3.619-1.5l-3.144-3.145A3.568,3.568,0,0,0,98.84,77h-30.1a2.174,2.174,0,0,1-2.174-2.174" transform="translate(11.389 9.212)" fill="#7a8293" />
                <rect width="45.128" height="33.769" rx="4.328" transform="translate(71.737 58.134)" fill="#e4e6ea" />
                <path d="M4.328-1.5H40.8a5.835,5.835,0,0,1,5.828,5.828V29.441A5.835,5.835,0,0,1,40.8,35.269H4.328A5.835,5.835,0,0,1-1.5,29.441V4.328A5.835,5.835,0,0,1,4.328-1.5ZM40.8,32.269a2.831,2.831,0,0,0,2.828-2.828V4.328A2.831,2.831,0,0,0,40.8,1.5H4.328A2.831,2.831,0,0,0,1.5,4.328V29.441a2.831,2.831,0,0,0,2.828,2.828Z" transform="translate(71.737 58.134)" fill="#313e58" />
                <g transform="translate(90.335 67.415)">
                    <path d="M21.513,32a4.529,4.529,0,1,1-4.528-4.528A4.528,4.528,0,0,1,21.513,32" transform="translate(-12.456 -27.475)" fill="#313e58" />
                    <path d="M16.305,43.193a2.075,2.075,0,0,1-2.074-2.074v-9.8a2.074,2.074,0,1,1,4.148,0v9.8a2.075,2.075,0,0,1-2.073,2.074" transform="translate(-11.776 -26.796)" fill="#313e58" />
                </g>
            </g>
            <g transform="translate(143.908 157.013)">
                <g transform="translate(0 0)">
                    <rect width="16.015" height="11.162" fill="#e4e6ea" />
                    <path d="M0-1.5H16.015a1.5,1.5,0,0,1,1.5,1.5V11.162a1.5,1.5,0,0,1-1.5,1.5H0a1.5,1.5,0,0,1-1.5-1.5V0A1.5,1.5,0,0,1,0-1.5Zm14.515,3H1.5V9.662H14.515Z" fill="#313e58" />
                    <path d="M29.192,61.927H40.96a1.5,1.5,0,0,1,1.5,1.5V66.34a7.384,7.384,0,1,1-14.768,0V63.427A1.5,1.5,0,0,1,29.192,61.927Zm10.268,3H30.692V66.34a4.384,4.384,0,1,0,8.768,0Z" transform="translate(-27.067 -52.265)" fill="#313e58" />
                </g>
                <g transform="translate(108.384 0)">
                    <rect width="16.015" height="11.162" fill="#e4e6ea" />
                    <path d="M0-1.5H16.015a1.5,1.5,0,0,1,1.5,1.5V11.162a1.5,1.5,0,0,1-1.5,1.5H0a1.5,1.5,0,0,1-1.5-1.5V0A1.5,1.5,0,0,1,0-1.5Zm14.515,3H1.5V9.662H14.515Z" fill="#313e58" />
                    <path d="M120.833,61.927H132.6a1.5,1.5,0,0,1,1.5,1.5V66.34a7.384,7.384,0,1,1-14.768,0V63.427A1.5,1.5,0,0,1,120.833,61.927Zm10.268,3h-8.768V66.34a4.384,4.384,0,1,0,8.768,0Z" transform="translate(-118.708 -52.265)" fill="#313e58" />
                </g>
            </g>
        </g>
        <g transform="translate(277.934 33.383)">
            <g transform="translate(20.967 2.661) rotate(3)">
                <path d="M.167,67.879S55.475,14.107,57.665,0C37.947,10.139,3.664,44.257.543,60.132c-.938,5.511-.377,7.747-.377,7.747" transform="translate(85.139 21.329)" fill="#c0e2e2" />
                <path d="M12.748,0s.25,77.139-8.3,88.57C-2.1,67.387-1.689,19.021,7.474,5.688,10.758,1.163,12.748,0,12.748,0" transform="translate(82.285 0)" fill="#c0e2e2" />
                <path d="M31.252,81.6S16.8,7.721.391,0C-3.3,4.194,20.166,76.2,29.055,82.5" transform="translate(56.236 6.531)" fill="#c0e2e2" />
                <path d="M42.546,13.281S13.982,1.3,0,.5C50.336-3.9,85.89,22.269,85.89,22.269S74.9,27.662,42.546,13.281" transform="translate(0 66.157)" fill="#c0e2e2" />
                <path d="M61.522,74.7S27.18,11.861,0,0C8.007,8.323,46.773,73.248,61.522,74.7" transform="translate(24.768 12.923)" fill="#c0e2e2" />
                <path d="M15.18,154.707a2.5,2.5,0,0,1-2.374-1.718c-2.784-8.446-5.319-21.767-7.534-39.593C3.51,99.218,1.939,82.142.6,62.642-1.672,29.467-2.491.359-2.5.069A2.5,2.5,0,0,1-.069-2.5,2.5,2.5,0,0,1,2.5-.069c.008.289.825,29.31,3.092,62.386C6.922,81.722,8.484,98.7,10.235,112.788c2.175,17.5,4.638,30.5,7.32,38.636a2.5,2.5,0,0,1-2.375,3.283Z" transform="translate(85.365 83.692)" fill="#c0e1e2" />
            </g>
            <g transform="translate(10.797 56.194)">
                <path d="M195.1,129.75s-78.845,14.8-92.149,8.21c20.432-10.687,69.973-19.39,85.338-12.532,5.246,2.506,6.812,4.322,6.812,4.322" transform="translate(-102.952 -32.587)" fill="#c0e2e2" />
                <path d="M104.291,86.207s65.422,46.427,80.263,46.007c-14.086-18.254-55.445-46.884-72.268-47.082-5.813.08-7.994,1.075-7.994,1.075" transform="translate(-93.801 -34.219)" fill="#c0e2e2" />
                <path d="M154.107,133.735S99.968,77.191,103.235,58.617c5.779-.629,52.929,62.463,52.952,73.789" transform="translate(-64.185 -35.363)" fill="#c0e2e2" />
                <path d="M131.112,133.378S98.266,66.535,104.467,36.324c2.278,11.794,34.242,83.645,26.644,97.054" transform="translate(-40.895 -36.324)" fill="#c0e2e2" />
                <path d="M90.667,90.827S97.592,59.366,105.29,47C71.4,87.157,72.34,133.057,72.34,133.057s11.167-6.107,18.328-42.231" transform="translate(17.028 -34.616)" fill="#c0e2e2" />
                <path d="M111.183,231.392a2.5,2.5,0,0,1-2.48-2.206,460.021,460.021,0,0,0-9.1-52.6A253.694,253.694,0,0,0,89.456,143.4a127.347,127.347,0,0,0-8.124-17.3,40.951,40.951,0,0,0-3.324-5.063l.005.006,3.818-3.228c.226.267,5.6,6.729,12.279,23.755a258.666,258.666,0,0,1,10.359,33.847,465.006,465.006,0,0,1,9.2,53.179,2.5,2.5,0,0,1-2.486,2.794Z" transform="translate(5.628 -31.143)" fill="#c0e1e2" />
            </g>
            <g transform="translate(79.123 104.721)">
                <path d="M0,131.409s66.393,8.443,77.149,2.3c-17.542-7.894-59.231-12.7-71.689-6.234C1.214,129.82,0,131.409,0,131.409" transform="translate(30.834 -49.081)" fill="#c0e2e2" />
                <path d="M75.474,91.22S23.275,133.109,10.9,133.49c10.832-15.9,43.865-41.777,57.867-42.771,4.846-.219,6.711.5,6.711.5" transform="translate(21.142 -50.538)" fill="#c0e2e2" />
                <path d="M36.647,134.672s42.3-49.759,38.668-65.067c-4.844-.239-41.005,54.629-40.467,64.062" transform="translate(-3.899 -51.446)" fill="#c0e2e2" />
                <path d="M87.485,99.725S80.168,73.864,73.148,63.946c30.2,31.773,31.681,70.048,31.681,70.048s-9.6-4.537-17.344-34.269" transform="translate(-73.148 -51.69)" fill="#c0e2e2" />
                <path d="M55.931,134.338S79.994,77.051,73.342,52.2c-1.317,9.934-24.4,71.347-17.411,82.141" transform="translate(-23.493 -52.197)" fill="#c0e2e2" />
            </g>
            <rect width="199.54" height="261.298" transform="translate(2.525)" fill="none" />
            <path d="M-3129.136-1540.184a140.711,140.711,0,0,1-6.1-30.944,103,103,0,0,1,.684-22.767c1.816-12.286,5.432-18.8,5.585-19.068l1.744.984,1.742.978a33.406,33.406,0,0,0-1.936,4.555,70.133,70.133,0,0,0-3.214,13.384,99.327,99.327,0,0,0-.6,21.814,136.859,136.859,0,0,0,5.918,29.878Z" transform="translate(3245.259 1783.869)" fill="#bfe2e2" />
        </g>
        <g transform="translate(351 271.362)">
            <g transform="translate(0 0)" clip-path="url(#a)">
                <path d="M0,53.567C0,70.578,9,84.5,20,84.5H53.021c11,0,20-13.918,20-30.929V0H0Z" transform="translate(0 0)" fill="#c0e2e2" />
            </g>
        </g>
        <g transform="translate(14.597 121.32)">
            <rect width="56.332" height="10.826" transform="translate(7.286 71.693)" fill="#bfe2e2" />
            <path d="M10.069,93.165l7.884,47.882H53.046l9.635-47.882Z" transform="translate(-0.968 -8.956)" fill="#bfe2e2" />
            <g clip-path="url(#b)">
                <path d="M40.164,81.148a2.137,2.137,0,1,1-4.274,0V26.107a2.137,2.137,0,0,1,4.274,0Z" transform="translate(-3.45 -2.304)" fill="#bfe2e2" />
            </g>
            <g transform="translate(32.44 21.666)">
                <g clip-path="url(#c)">
                    <rect width="21.508" height="76.55" transform="translate(-8.617 -8.617)" fill="#bfe2e2" />
                </g>
            </g>
            <g clip-path="url(#b)">
                <path d="M34.3,51.6c0-.028.012-.053.013-.081a22.381,22.381,0,0,0-33.2-20.191,2.135,2.135,0,0,0-1.1,1.816,22.382,22.382,0,0,0,33.2,20.192c.024-.014.043-.035.067-.05L16.048,44.16a2.137,2.137,0,0,1,2.221-3.653" transform="translate(0 -2.743)" fill="#bfe2e2" />
                <path d="M40.155,62.087c.022.017.036.041.059.058A22.382,22.382,0,0,0,75.925,46.829a2.137,2.137,0,0,0-.838-1.954A22.382,22.382,0,0,0,39.376,60.191c0,.028,0,.055,0,.083l17.431-8.728a2.137,2.137,0,1,1,1.685,3.928" transform="translate(-3.785 -3.88)" fill="#bfe2e2" />
                <path d="M37.49,25.211c.024.014.042.034.067.047a22.382,22.382,0,0,0,32.758-20.9,2.14,2.14,0,0,0-1.143-1.792,22.382,22.382,0,0,0-32.758,20.9c0,.029.013.054.015.082L52.215,12.11a2.137,2.137,0,0,1,2.3,3.6" transform="translate(-3.498 0)" fill="#bfe2e2" />
            </g>
        </g>
    </g>
</svg>