<svg xmlns="http://www.w3.org/2000/svg" xmlns:xlink="http://www.w3.org/1999/xlink" width="400" height="320" viewBox="0 0 400 320">
    <defs>
        <clipPath>
            <path d="M35.89,27.624v94.092c0,2.018,1.059,3.654,2.365,3.654s2.364-1.636,2.364-3.654V27.624c0-2.018-1.059-3.654-2.364-3.654s-2.365,1.636-2.365,3.654" transform="translate(0 0)" fill="none" />
        </clipPath>
        <clipPath>
            <rect width="125.773" height="159.706" fill="none" />
        </clipPath>
        <clipPath >
            <rect width="400" height="320" />
        </clipPath>
    </defs>
    <g clip-path="url(#d)">
        <rect width="400" height="320" fill="transparent" />
        <g transform="translate(-802 2284)">
            <path d="M68.259,211.509A120.586,120.586,0,0,1,44,209.335a32.014,32.014,0,0,1-7.532-2.422c-2.135-1.09-3.218-2.352-3.218-3.75a3.319,3.319,0,0,1,1.264-2.459,10.771,10.771,0,0,1,2.931-1.748,44.977,44.977,0,0,1,9.847-2.591,1,1,0,0,1,.33,1.973c-9.786,1.637-12.372,3.873-12.372,4.826,0,.83,1.932,2.653,9.171,4.216a118.568,118.568,0,0,0,23.835,2.129,118.569,118.569,0,0,0,23.835-2.129c7.24-1.564,9.171-3.386,9.171-4.216,0-.767-.889-1.619-2.5-2.4a34.439,34.439,0,0,0-8.924-2.428,1,1,0,1,1,.324-1.974,36.294,36.294,0,0,1,9.469,2.6c2.412,1.164,3.634,2.577,3.634,4.2,0,1.4-1.083,2.659-3.217,3.75a32.013,32.013,0,0,1-7.531,2.422A120.586,120.586,0,0,1,68.259,211.509Z" transform="translate(828.476 -2188.678)" fill="#5bb3b3" />
            <path d="M22.486-1A92.574,92.574,0,0,1,38.568.24c5.051.938,7.4,2.189,7.4,3.937s-2.352,3-7.4,3.937a92.574,92.574,0,0,1-16.082,1.24A92.574,92.574,0,0,1,6.4,8.114C1.352,7.176-1,5.925-1,4.177s2.352-3,7.4-3.937A92.574,92.574,0,0,1,22.486-1ZM43.941,4.177a3.928,3.928,0,0,0-1.628-.909A26.8,26.8,0,0,0,37.6,2.1,93.368,93.368,0,0,0,22.486,1,93.368,93.368,0,0,0,7.37,2.1,26.8,26.8,0,0,0,2.659,3.268a3.928,3.928,0,0,0-1.628.909,3.928,3.928,0,0,0,1.628.909A26.8,26.8,0,0,0,7.37,6.256a93.368,93.368,0,0,0,15.115,1.1A93.368,93.368,0,0,0,37.6,6.256a26.8,26.8,0,0,0,4.711-1.169A3.928,3.928,0,0,0,43.941,4.177Z" transform="translate(874.249 -2018.714)" fill="#5bb3b3" />
            <path d="M82.013,199.526H58.534a11.51,11.51,0,0,1-8.357-3.617,12.425,12.425,0,0,1-3.454-8.65V171.487a12.834,12.834,0,0,1,.081-1.439,1,1,0,0,1,1.987.225,10.828,10.828,0,0,0-.068,1.214v15.771a10.435,10.435,0,0,0,2.9,7.265,9.528,9.528,0,0,0,6.914,3H82.013a9.528,9.528,0,0,0,6.914-3,10.435,10.435,0,0,0,2.9-7.265V171.487a10.716,10.716,0,0,0-.078-1.3,1,1,0,1,1,1.985-.243,12.723,12.723,0,0,1,.093,1.541v15.771a12.425,12.425,0,0,1-3.454,8.65A11.51,11.51,0,0,1,82.013,199.526Z" transform="translate(826.461 -2184.604)" fill="#5bb3b3" />
            <path d="M103.922,192.054a6.767,6.767,0,0,1-3.945-1.3,1,1,0,0,1,1.163-1.627,4.78,4.78,0,0,0,2.782.929c3.079,0,5.583-3.09,5.583-6.888s-2.5-6.889-5.583-6.889a4.694,4.694,0,0,0-2.641.827,1,1,0,1,1-1.11-1.663,6.75,6.75,0,0,1,3.751-1.163,7.029,7.029,0,0,1,5.423,2.67,10.03,10.03,0,0,1,0,12.437A7.029,7.029,0,0,1,103.922,192.054Z" transform="translate(818.559 -2185.384)" fill="#5bb3b3" />
        </g>
        <path d="M311.5,1H0A1,1,0,0,1-1,0,1,1,0,0,1,0-1H311.5a1,1,0,0,1,1,1A1,1,0,0,1,311.5,1Z" transform="translate(88.5 244.195)" fill="#5bb3b3" />
        <path d="M24.25,1H0A1,1,0,0,1-1,0,1,1,0,0,1,0-1H24.25a1,1,0,0,1,1,1A1,1,0,0,1,24.25,1Z" transform="translate(42.25 244.195)" fill="#5bb3b3" />
        <path d="M24.25,1H0A1,1,0,0,1-1,0,1,1,0,0,1,0-1H24.25a1,1,0,0,1,1,1A1,1,0,0,1,24.25,1Z" transform="translate(0 244.195)" fill="#5bb3b3" />
        <path d="M26.584-1A27.591,27.591,0,0,1,37.321,52,27.591,27.591,0,0,1,15.847,1.168,27.412,27.412,0,0,1,26.584-1Zm0,53.168A25.591,25.591,0,0,0,36.542,3.01,25.591,25.591,0,0,0,16.626,50.158,25.423,25.423,0,0,0,26.584,52.168Z" transform="translate(327.454 17.441)" fill="#5bb3b3" />
        <path d="M33.831-1A34.84,34.84,0,0,1,47.389,65.925,34.84,34.84,0,0,1,20.273,1.738,34.614,34.614,0,0,1,33.831-1Zm0,67.662A32.84,32.84,0,0,0,46.61,3.58a32.84,32.84,0,0,0-25.558,60.5A32.625,32.625,0,0,0,33.831,66.662Z" transform="translate(320.207 10.194)" fill="#5bb3b3" />
        <path d="M137.1,41.752a1,1,0,0,1-.7-.282L124.612,30.034a1,1,0,0,1-.3-.718V8.66a1,1,0,1,1,2,0V28.892L137.8,40.034a1,1,0,0,1-.7,1.718Z" transform="translate(228.909 14.888)" fill="#5bb3b3" />
        <path d="M92.192,76.963H1a1,1,0,1,1,0-2H91.192V63.625H1.05a1,1,0,1,1,0-2H92.192a1,1,0,0,1,1,1V75.963A1,1,0,0,1,92.192,76.963Z" transform="translate(-0.5 122.807)" fill="#5bb3b3" />
        <path d="M3.12,1H0A1,1,0,0,1-1,0,1,1,0,0,1,0-1H3.12a1,1,0,0,1,1,1A1,1,0,0,1,3.12,1Z" transform="translate(5.46 39.897)" fill="#5bb3b3" />
        <path d="M3.12,1H0A1,1,0,0,1-1,0,1,1,0,0,1,0-1H3.12a1,1,0,0,1,1,1A1,1,0,0,1,3.12,1Z" transform="translate(5.46 45.896)" fill="#5bb3b3" />
        <path d="M0-1H14.037a1,1,0,0,1,1,1V61.327a1,1,0,0,1-1,1H0a1,1,0,0,1-1-1V0A1,1,0,0,1,0-1ZM13.037,1H1V60.327H13.037Z" transform="translate(0 11.803)" fill="#5bb3b3" />
        <path d="M0-1H14.037a1,1,0,0,1,1,1V61.327a1,1,0,0,1-1,1H0a1,1,0,0,1-1-1V0A1,1,0,0,1,0-1ZM13.037,1H1V60.327H13.037Z" transform="translate(20.911 11.803)" fill="#5bb3b3" />
        <path d="M3.12,1H0A1,1,0,0,1-1,0,1,1,0,0,1,0-1H3.12a1,1,0,0,1,1,1A1,1,0,0,1,3.12,1Z" transform="translate(26.371 39.897)" fill="#5bb3b3" />
        <path d="M3.12,1H0A1,1,0,0,1-1,0,1,1,0,0,1,0-1H3.12a1,1,0,0,1,1,1A1,1,0,0,1,3.12,1Z" transform="translate(26.371 45.896)" fill="#5bb3b3" />
        <path d="M0-1H14.037a1,1,0,0,1,1,1V61.327a1,1,0,0,1-1,1H0a1,1,0,0,1-1-1V0A1,1,0,0,1,0-1ZM13.037,1H1V60.327H13.037Z" transform="translate(39.307 15.594) rotate(-18.429)" fill="#5bb3b3" />
        <path d="M0,1.987A1,1,0,0,1-.949,1.3,1,1,0,0,1-.316.038L2.643-.949a1,1,0,0,1,1.265.632A1,1,0,0,1,3.275.949L.316,1.935A1,1,0,0,1,0,1.987Z" transform="translate(53.367 39.536)" fill="#5bb3b3" />
        <path d="M0,1.987A1,1,0,0,1-.949,1.3,1,1,0,0,1-.316.038L2.643-.949a1,1,0,0,1,1.265.632A1,1,0,0,1,3.275.949L.316,1.935A1,1,0,0,1,0,1.987Z" transform="translate(55.264 45.227)" fill="#5bb3b3" />
        <path d="M92.192,173.984H1a1,1,0,1,1,0-2H91.192V160.646H1.05a1,1,0,1,1,0-2H92.192a1,1,0,0,1,1,1v13.339A1,1,0,0,1,92.192,173.984Z" transform="translate(-0.5 -80.633)" fill="#5bb3b3" />
        <g transform="translate(0 -7)">
            <path d="M783.434-2527.984a1.5,1.5,0,0,1-1.061-.439l-53.3-53.3-53.3,53.3a1.5,1.5,0,0,1-2.121,0,1.5,1.5,0,0,1,0-2.121l55.417-55.417,1.061,1.061,54.356,54.356a1.5,1.5,0,0,1,0,2.121A1.5,1.5,0,0,1,783.434-2527.984Z" transform="translate(-528 2635)" fill="#313e58" />
            <path d="M-522,2759a6,6,0,0,1-6-6v-89h0v-25a6.007,6.007,0,0,1,6-6h165a6.007,6.007,0,0,1,6,6v25h0v89a6,6,0,0,1-6,6Zm143.283-109.626a6.1,6.1,0,0,0,6.1,6.1,6.1,6.1,0,0,0,6.095-6.1,6.1,6.1,0,0,0-6.095-6.095A6.1,6.1,0,0,0-378.717,2649.374Zm-33.439,0a6.1,6.1,0,0,0,6.1,6.1,6.1,6.1,0,0,0,6.1-6.1,6.1,6.1,0,0,0-6.1-6.095A6.1,6.1,0,0,0-412.156,2649.374Zm-33.44,0a6.1,6.1,0,0,0,6.1,6.1,6.1,6.1,0,0,0,6.1-6.1,6.1,6.1,0,0,0-6.1-6.095A6.1,6.1,0,0,0-445.6,2649.374Zm-33.439,0a6.1,6.1,0,0,0,6.1,6.1,6.1,6.1,0,0,0,6.1-6.1,6.1,6.1,0,0,0-6.1-6.095A6.1,6.1,0,0,0-479.036,2649.374Zm-33.439,0a6.1,6.1,0,0,0,6.1,6.1,6.1,6.1,0,0,0,6.095-6.1,6.1,6.1,0,0,0-6.095-6.095A6.1,6.1,0,0,0-512.474,2649.374Z" transform="translate(640 -2529)" fill="#ffd964" />
            <path d="M10.715,121.487A5.715,5.715,0,0,1,5,115.771V31h168.59v84.772a5.715,5.715,0,0,1-5.714,5.715Z" transform="translate(111.556 104)" fill="#b1a8e3" />
            <path d="M-351,2664H-528v-25a6.007,6.007,0,0,1,6-6h165a6.007,6.007,0,0,1,6,6v25Zm-21.62-20.721a6.1,6.1,0,0,0-6.1,6.095,6.1,6.1,0,0,0,6.1,6.1,6.1,6.1,0,0,0,6.095-6.1A6.1,6.1,0,0,0-372.621,2643.279Zm-33.44,0a6.1,6.1,0,0,0-6.1,6.095,6.1,6.1,0,0,0,6.1,6.1,6.1,6.1,0,0,0,6.1-6.1A6.1,6.1,0,0,0-406.06,2643.279Zm-33.44,0a6.1,6.1,0,0,0-6.1,6.095,6.1,6.1,0,0,0,6.1,6.1,6.1,6.1,0,0,0,6.1-6.1A6.1,6.1,0,0,0-439.5,2643.279Zm-33.44,0a6.1,6.1,0,0,0-6.1,6.095,6.1,6.1,0,0,0,6.1,6.1,6.1,6.1,0,0,0,6.1-6.1A6.1,6.1,0,0,0-472.94,2643.279Zm-33.439,0a6.1,6.1,0,0,0-6.1,6.095,6.1,6.1,0,0,0,6.1,6.1,6.1,6.1,0,0,0,6.095-6.1A6.1,6.1,0,0,0-506.379,2643.279Z" transform="translate(640 -2529)" fill="#ffd964" />
            <path d="M-490.654,2714.674h-21.557a4.913,4.913,0,0,1-4.907-4.908v-7.906a4.913,4.913,0,0,1,4.907-4.908h21.557a4.913,4.913,0,0,1,4.907,4.908v7.906A4.913,4.913,0,0,1-490.654,2714.674Z" transform="translate(641.118 -2550.483)" fill="#fff" />
            <path d="M-490.654,2714.674h-21.557a4.913,4.913,0,0,1-4.907-4.908v-7.906a4.913,4.913,0,0,1,4.907-4.908h21.557a4.913,4.913,0,0,1,4.907,4.908v7.906A4.913,4.913,0,0,1-490.654,2714.674Z" transform="translate(682.117 -2550.483)" fill="#fff" />
            <path d="M-490.654,2714.674h-21.557a4.913,4.913,0,0,1-4.907-4.908v-7.906a4.913,4.913,0,0,1,4.907-4.908h21.557a4.913,4.913,0,0,1,4.907,4.908v7.906A4.913,4.913,0,0,1-490.654,2714.674Z" transform="translate(722.117 -2550.483)" fill="#fff" />
            <path d="M-490.654,2714.674h-21.557a4.913,4.913,0,0,1-4.907-4.908v-7.906a4.913,4.913,0,0,1,4.907-4.908h21.557a4.913,4.913,0,0,1,4.907,4.908v7.906A4.913,4.913,0,0,1-490.654,2714.674Z" transform="translate(763.117 -2550.483)" fill="#fff" />
            <path d="M151.183,75.864a1.627,1.627,0,0,1-1.155-.478L130.757,56.115a1.632,1.632,0,0,1,2.309-2.308l19.272,19.27a1.632,1.632,0,0,1-1.155,2.787" transform="translate(119.495 90.732)" fill="#e88a2d" />
            <path d="M131.911,75.864a1.632,1.632,0,0,1-1.155-2.787l19.272-19.27a1.632,1.632,0,1,1,2.309,2.308L133.066,75.386a1.627,1.627,0,0,1-1.155.478" transform="translate(119.495 90.732)" fill="#e88a2d" />
            <path d="M9.924,15.8a8.553,8.553,0,0,0-1.073.072A8.352,8.352,0,0,1,9.924,15.8" transform="translate(108.781 87.421)" fill="#e6f0fa" />
            <path d="M8.747,15.9a7.841,7.841,0,0,0-.884.187,7.389,7.389,0,0,1,.884-.187" transform="translate(108.694 87.43)" fill="#e6f0fa" />
            <path d="M-490.654,2714.674h-21.557a4.913,4.913,0,0,1-4.907-4.908v-7.906a4.913,4.913,0,0,1,4.907-4.908h21.557a4.913,4.913,0,0,1,4.907,4.908v7.906A4.913,4.913,0,0,1-490.654,2714.674Z" transform="translate(641.118 -2497.149)" fill="#fff" />
            <path d="M-490.654,2714.674h-21.557a4.913,4.913,0,0,1-4.907-4.908v-7.906a4.913,4.913,0,0,1,4.907-4.908h21.557a4.913,4.913,0,0,1,4.907,4.908v7.906A4.913,4.913,0,0,1-490.654,2714.674Z" transform="translate(641.118 -2523.956)" fill="#fff" />
            <path d="M-490.654,2714.674h-21.557a4.913,4.913,0,0,1-4.907-4.908v-7.906a4.913,4.913,0,0,1,4.907-4.908h21.557a4.913,4.913,0,0,1,4.907,4.908v7.906A4.913,4.913,0,0,1-490.654,2714.674Z" transform="translate(682.117 -2497.149)" fill="#fff" />
            <path d="M-490.654,2714.674h-21.557a4.913,4.913,0,0,1-4.907-4.908v-7.906a4.913,4.913,0,0,1,4.907-4.908h21.557a4.913,4.913,0,0,1,4.907,4.908v7.906A4.913,4.913,0,0,1-490.654,2714.674Z" transform="translate(682.117 -2523.956)" fill="#fff" />
            <path d="M-490.654,2714.674h-21.557a4.913,4.913,0,0,1-4.907-4.908v-7.906a4.913,4.913,0,0,1,4.907-4.908h21.557a4.913,4.913,0,0,1,4.907,4.908v7.906A4.913,4.913,0,0,1-490.654,2714.674Z" transform="translate(722.117 -2497.149)" fill="#fff" />
            <path d="M-490.654,2714.674h-21.557a4.913,4.913,0,0,1-4.907-4.908v-7.906a4.913,4.913,0,0,1,4.907-4.908h21.557a4.913,4.913,0,0,1,4.907,4.908v7.906A4.913,4.913,0,0,1-490.654,2714.674Z" transform="translate(722.117 -2523.956)" fill="#fff" />
            <path d="M-490.654,2714.674h-21.557a4.913,4.913,0,0,1-4.907-4.908v-7.906a4.913,4.913,0,0,1,4.907-4.908h21.557a4.913,4.913,0,0,1,4.907,4.908v7.906A4.913,4.913,0,0,1-490.654,2714.674Z" transform="translate(763.062 -2497.149)" fill="#fff" />
            <path d="M-490.654,2714.674h-21.557a4.913,4.913,0,0,1-4.907-4.908v-7.906a4.913,4.913,0,0,1,4.907-4.908h21.557a4.913,4.913,0,0,1,4.907,4.908v7.906A4.913,4.913,0,0,1-490.654,2714.674Z" transform="translate(763.117 -2497.149)" fill="#fff" />
            <path d="M-490.654,2714.674h-21.557a4.913,4.913,0,0,1-4.907-4.908v-7.906a4.913,4.913,0,0,1,4.907-4.908h21.557a4.913,4.913,0,0,1,4.907,4.908v7.906A4.913,4.913,0,0,1-490.654,2714.674Z" transform="translate(763.117 -2523.956)" fill="#fff" />
            <path d="M57.765,100.241a1.632,1.632,0,0,1-1.155-2.787L75.882,78.183a1.633,1.633,0,0,1,2.309,2.309L58.92,99.764a1.627,1.627,0,0,1-1.155.478" transform="translate(112.953 92.883)" fill="#e88a2d" />
            <path d="M77.037,100.241a1.627,1.627,0,0,1-1.155-.478L56.611,80.492a1.633,1.633,0,0,1,2.309-2.309L78.192,97.454a1.632,1.632,0,0,1-1.155,2.787" transform="translate(112.953 92.883)" fill="#e88a2d" />
            <path d="M0,19.632a2,2,0,0,1-2-2V0A2,2,0,0,1,0-2,2,2,0,0,1,2,0V17.632A2,2,0,0,1,0,19.632Z" transform="translate(133.5 101.868)" fill="#313e58" />
            <path d="M0,19.632a2,2,0,0,1-2-2V0A2,2,0,0,1,0-2,2,2,0,0,1,2,0V17.632A2,2,0,0,1,0,19.632Z" transform="translate(200.5 101.868)" fill="#313e58" />
            <path d="M0,19.632a2,2,0,0,1-2-2V0A2,2,0,0,1,0-2,2,2,0,0,1,2,0V17.632A2,2,0,0,1,0,19.632Z" transform="translate(166.5 101.868)" fill="#313e58" />
            <path d="M0,19.632a2,2,0,0,1-2-2V0A2,2,0,0,1,0-2,2,2,0,0,1,2,0V17.632A2,2,0,0,1,0,19.632Z" transform="translate(233.5 101.868)" fill="#313e58" />
            <path d="M0,19.632a2,2,0,0,1-2-2V0A2,2,0,0,1,0-2,2,2,0,0,1,2,0V17.632A2,2,0,0,1,0,19.632Z" transform="translate(267.5 101.868)" fill="#313e58" />
        </g>
        <g transform="translate(5.828 6.519)">
            <rect width="62.323" height="11.977" transform="translate(310.061 229.745)" fill="#c0e2e2" />
            <path d="M10.069,93.165l8.722,52.975H57.617l10.66-52.975Z" transform="translate(302 150.427)" fill="#c0e2e2" />
            <g transform="translate(302 114.65)" clip-path="url(#a)">
                <rect width="23.796" height="130.863" transform="translate(26.357 9.24)" fill="#c0e2e2" />
            </g>
            <path d="M37.946,54.056c0-.031.013-.059.014-.09A24.762,24.762,0,0,0,1.23,31.628,2.363,2.363,0,0,0,.008,33.637a24.763,24.763,0,0,0,36.73,22.339c.027-.015.048-.039.074-.055l-19.057-10.1a2.365,2.365,0,0,1,2.457-4.041" transform="translate(302 150.427)" fill="#c0e2e2" />
            <path d="M34.907,52.013c0-.029.012-.054.013-.083A22.779,22.779,0,0,0,1.131,31.38,2.173,2.173,0,0,0,.007,33.229,22.765,22.765,0,0,0,10.942,53.3C18,57.595,29.025,58.787,36.127,54.872c.025-.014-1.231-1.078-1.207-1.093L16.333,44.438a2.175,2.175,0,0,1,2.26-3.717" transform="translate(303.52 103.378)" fill="#c0e2e2" />
            <path d="M29.9,48.646c0-.024.01-.046.011-.071A19.513,19.513,0,0,0,.969,30.973a1.862,1.862,0,0,0-.963,1.583,19.513,19.513,0,0,0,28.944,17.6c.021-.012.038-.031.058-.043L13.991,42.158a1.863,1.863,0,0,1,1.936-3.184" transform="matrix(0.174, 0.985, -0.985, 0.174, 384.447, 102.982)" fill="#c0e2e2" />
            <path d="M40.321,66.7c.026.021.044.049.071.07A27.134,27.134,0,0,0,83.685,48.2a2.591,2.591,0,0,0-1.016-2.369A27.134,27.134,0,0,0,39.376,64.4c0,.034,0,.067,0,.1L60.509,53.921a2.591,2.591,0,1,1,2.043,4.762" transform="translate(302 147.64)" fill="#c0e2e2" />
            <path d="M37.607,27.892c.027.015.047.038.074.052A24.763,24.763,0,0,0,73.923,4.821a2.367,2.367,0,0,0-1.265-1.983A24.763,24.763,0,0,0,36.416,25.961c0,.032.014.06.017.091L53.9,13.4a2.365,2.365,0,0,1,2.544,3.987" transform="translate(302 150.427)" fill="#c0e2e2" />
        </g>
        <g transform="translate(-32.714 98.006)">
            <g clip-path="url(#b)">
                <path d="M30.934,62.7c0,8.573,5.652,15.588,12.559,15.588H64.229c6.907,0,12.559-7.015,12.559-15.588v-27H30.934Z" transform="translate(5.928 6.502)" fill="#c0e2e2" />
                <path d="M46.924,52.012a1.19,1.19,0,0,1-1.152-.884A35.812,35.812,0,0,1,48.843,25.3a15.131,15.131,0,0,1,5.25-6.039c3.326-1.965,7.368-1.741,10.936-1.546l.274.015c7.833.427,19.027.194,25.7-6.719a1.2,1.2,0,0,1,1.685-.035,1.174,1.174,0,0,1,.035,1.671c-7.355,7.616-19.248,7.9-27.555,7.444L64.9,20.07c-3.385-.186-6.884-.379-9.584,1.218a12.467,12.467,0,0,0-4.367,5.121,33.441,33.441,0,0,0-2.868,24.122,1.181,1.181,0,0,1-.852,1.442,1.213,1.213,0,0,1-.3.039" transform="translate(8.551 1.938)" fill="#c0e1e2" />
                <path d="M10.289,74.386a1.181,1.181,0,0,1-.1-2.359c4.64-.394,8.005-4.36,9.608-7.939,1.532-3.42,2.112-7.29,2.672-11.033.129-.856.256-1.711.394-2.562.748-4.585,1.973-9.8,5.392-13.731a24.866,24.866,0,0,1,5.334-4.388,18.306,18.306,0,0,1,4.4-2.22c4.305-1.352,9.59-.039,13.793,3.43,3.686,3.043,6.255,7.262,8.523,10.984a1.178,1.178,0,0,1-.4,1.623,1.2,1.2,0,0,1-1.636-.4c-2.276-3.737-4.629-7.6-8.008-10.39-2.809-2.318-7.317-4.323-11.549-2.993a16.125,16.125,0,0,0-3.823,1.948,22.618,22.618,0,0,0-4.831,3.952c-3.03,3.48-4.148,8.3-4.842,12.562-.137.84-.263,1.686-.39,2.532-.584,3.9-1.188,7.931-2.85,11.645-1.88,4.2-5.91,8.854-11.585,9.334a1.008,1.008,0,0,1-.1,0" transform="translate(1.743 5.396)" fill="#c0e1e2" />
                <path d="M58.306,59.194a1.194,1.194,0,0,1-1.115-.766A122.249,122.249,0,0,1,50.069,29.28c-.253-2.162-.811-5.1-2.738-5.627a5.7,5.7,0,0,0-1.379-.124c-.332,0-.667-.012-1-.04a7.393,7.393,0,0,1-5.068-2.828,7.279,7.279,0,0,1-1.6-5.549,1.2,1.2,0,0,1,1.353-1,1.184,1.184,0,0,1,1.006,1.342A4.925,4.925,0,0,0,41.757,19.2a5,5,0,0,0,3.407,1.937c.274.024.549.027.826.031a7.751,7.751,0,0,1,1.978.209c3.7,1.013,4.258,5.823,4.47,7.634a119.9,119.9,0,0,0,6.984,28.587,1.181,1.181,0,0,1-.7,1.524,1.215,1.215,0,0,1-.419.076" transform="translate(7.324 2.568)" fill="#c0e1e2" />
                <path d="M48.279,4.384c3.745-.852,8.227,1.922,9.422,6.562S53.07,22.986,53.07,22.986s-8.691-3.722-9.886-8.362,1.35-9.388,5.1-10.241" transform="translate(8.218 0.77)" fill="#c0e2e2" />
                <path d="M33.6,6.859c2.206-1.435,5.759-.709,7.643,2s-.087,8.847-.087,8.847-6.49-.339-8.375-3.044-1.387-6.363.819-7.8" transform="translate(6.059 1.118)" fill="#c0e2e2" />
                <path d="M35.657,25.448c-.847-2.478.752-5.708,3.864-6.84s8.612,2.3,8.612,2.3-1.96,6.147-5.072,7.279-6.558-.265-7.4-2.742" transform="translate(6.79 3.347)" fill="#c0e2e2" />
                <path d="M64.543,2.571c3.445.755,6.063,4.808,5.212,9.123s-8.621,8.18-8.621,8.18-5.733-6.483-4.882-10.8,4.846-7.26,8.291-6.505" transform="translate(10.763 0.447)" fill="#c0e2e2" />
                <path d="M74.3,2.547c3.288-.539,7.017,2.1,7.8,6.181S77.442,18.9,77.442,18.9s-7.321-3.685-8.1-7.764S71.014,3.086,74.3,2.547" transform="translate(13.259 0.451)" fill="#c0e2e2" />
                <path d="M87.948.074c2.821.544,5.037,3.791,4.434,7.322s-6.848,6.836-6.848,6.836-4.8-5.16-4.2-8.691S85.128-.468,87.948.074" transform="translate(15.576 0)" fill="#c0e2e2" />
                <path d="M23.466,18.751c3.049-2.319,8.289-1.643,11.319,2.086s.829,12.86.829,12.86-9.464.2-12.494-3.531-2.7-9.1.346-11.416" transform="translate(4.025 3.17)" fill="#c0e2e2" />
                <path d="M11.272,30.726c2.227-3.105,7.436-3.987,11.436-1.307s4.6,12.052,4.6,12.052-8.988,2.947-12.989.267-5.279-7.906-3.052-11.011" transform="translate(1.952 5.067)" fill="#c0e2e2" />
                <path d="M7.27,47.417c.443-3.248,4.052-5.987,8.178-5.536s8.365,7.346,8.365,7.346-5.652,5.812-9.778,5.361S6.827,50.666,7.27,47.417" transform="translate(1.385 7.618)" fill="#c0e2e2" />
                <path d="M7.324,54.459c1.848-2.287,5.885-2.737,8.838-.5s3,9.454,3,9.454-7.031,1.87-9.983-.362-3.7-6.3-1.854-8.588" transform="translate(1.211 9.559)" fill="#c0e2e2" />
                <path d="M1,60.012c1.848-2.287,5.885-2.737,8.838-.5s3,9.454,3,9.454-7.031,1.87-9.983-.363S-.844,62.3,1,60.012" transform="translate(0 10.57)" fill="#c0e2e2" />
                <path d="M104.112,151.555a1.187,1.187,0,0,1-.572-.147C79.678,138.395,84.01,114.065,88.2,90.535c3.381-18.983,6.877-38.613-4.88-51.657-5.359-5.944-18.378-8.576-25.372-3.064-3.375,2.662-3.522,6.372-.43,10.726a1.176,1.176,0,0,1-.287,1.648,1.2,1.2,0,0,1-1.66-.286c-3.829-5.39-3.5-10.47.895-13.938,6.74-5.316,21.275-4.821,28.63,3.338,12.53,13.9,8.931,34.1,5.452,53.645-4.23,23.754-8.225,46.192,14.14,58.39a1.174,1.174,0,0,1,.471,1.6,1.191,1.191,0,0,1-1.045.614" transform="translate(10.14 5.55)" fill="#c0e1e2" />
                <path d="M105.273,56.075c-.1,3.81-3.915,7.432-8.742,7.432s-10.614-7.432-10.614-7.432,5.787-7.432,10.614-7.432,8.835,3.622,8.742,7.432" transform="translate(16.464 8.858)" fill="#c0e1e2" />
                <path d="M100.475,77.5c-2.407,2.971-7.659,3.549-11.494.641s-3.885-12.3-3.885-12.3,9.147-2.421,12.983.487,4.8,8.2,2.4,11.17" transform="translate(16.307 11.819)" fill="#c0e1e2" />
                <path d="M95.912,93.387C92.942,95.8,87.683,95.3,84.53,91.673s-1.256-12.827-1.256-12.827,9.452-.506,12.605,3.121,3,9,.033,11.42" transform="translate(15.849 14.354)" fill="#c0e1e2" />
                <path d="M94.527,106.425c-2.275,2.63-7.063,3-10.464.251s-3.17-11.287-3.17-11.287,8.383-1.936,11.783.817,4.125,7.589,1.851,10.219" transform="translate(15.501 17.25)" fill="#c0e1e2" />
                <path d="M96.265,114.242c-.266,2.961-3.422,5.591-7.181,5.351S81.2,113.28,81.2,113.28s4.88-5.5,8.638-5.258,6.695,3.259,6.429,6.22" transform="translate(15.56 19.67)" fill="#c0e1e2" />
                <path d="M101.588,121.8c.709,2.889-1.426,6.386-5.062,7.359s-9.516-3.46-9.516-3.46,2.837-6.764,6.473-7.736,7.4.948,8.105,3.837" transform="translate(16.674 21.435)" fill="#c0e1e2" />
                <path d="M107.406,130.341c.591,2.408-1.189,5.324-4.22,6.134s-7.933-2.884-7.933-2.884,2.364-5.637,5.4-6.448,6.165.791,6.757,3.2" transform="translate(18.253 23.114)" fill="#c0e1e2" />
                <path d="M63.538,114.369c-2.1,1.937-6.034,1.806-8.551-.746s-1.542-9.488-1.542-9.488,7.01-.817,9.528,1.737,2.661,6.56.565,8.5" transform="translate(10.206 18.941)" fill="#c0e2e2" />
                <path d="M57.612,148.751a1.17,1.17,0,0,1-.434-.082c-6.459-2.508-9.16-10.094-8.49-16.292.7-6.484,4.328-12.365,7.243-17.091l.536-.866C67.5,96.538,78.912,78.048,79.907,57.426c.585-12.1-3.433-22.317-10.748-27.34-5.585-3.834-13.178-4.152-18.057-.754a11.872,11.872,0,0,0-4.818,8.476,9.5,9.5,0,0,0,2.339,7.665,1.178,1.178,0,0,1-.055,1.671,1.2,1.2,0,0,1-1.685-.056,11.816,11.816,0,0,1-2.971-9.524A14.269,14.269,0,0,1,49.731,27.4c5.759-4.009,14.3-3.7,20.784.746,8,5.49,12.4,16.48,11.772,29.4-1.025,21.227-12.6,39.98-23.79,58.115l-.535.868c-3.549,5.752-6.31,10.59-6.907,16.107-.573,5.305,1.643,11.762,6.99,13.839A1.18,1.18,0,0,1,58.722,148a1.193,1.193,0,0,1-1.111.752" transform="translate(8.4 4.477)" fill="#c0e2e2" />
                <path d="M85.034,84.941c-2.616,2.792-7.895,2.994-11.511-.179S70.538,72.22,70.538,72.22s9.3-1.764,12.914,1.409,4.2,8.519,1.582,11.312" transform="translate(13.509 13.063)" fill="#c0e2e2" />
                <path d="M93.359,43.594c.231,3.805-3.265,7.735-8.074,8.14s-11.211-6.515-11.211-6.515,5.131-7.891,9.942-8.3,9.112,2.865,9.344,6.671" transform="translate(14.195 6.718)" fill="#c0e2e2" />
                <path d="M78.076,96.366C75.67,98.933,70.815,99.12,67.49,96.2s-2.747-11.536-2.747-11.536,8.552-1.622,11.877,1.3,3.862,7.836,1.456,10.4" transform="translate(12.399 15.336)" fill="#c0e2e2" />
                <path d="M68.465,106.274c-2.6,1.588-6.689.63-8.779-2.562s.4-10.236.4-10.236,7.5.609,9.589,3.8,1.392,7.409-1.21,9" transform="translate(11.277 17.023)" fill="#c0e2e2" />
                <path d="M60.289,120.792c-.447,2.257-3.09,4.026-5.962,3.538s-5.551-5.492-5.551-5.492,4.2-3.837,7.076-3.35,4.883,3.047,4.436,5.3" transform="translate(9.347 21.023)" fill="#c0e2e2" />
                <path d="M64.31,129.218c-.447,2.257-3.09,4.026-5.962,3.538s-5.551-5.492-5.551-5.492,4.2-3.837,7.076-3.35,4.883,3.047,4.436,5.3" transform="translate(10.118 22.557)" fill="#c0e2e2" />
            </g>
        </g>
    </g>
</svg>