<svg width="400" height="320" viewBox="0 0 400 320" fill="none" xmlns="http://www.w3.org/2000/svg">
    <g clip-path="url(#clip0_144_1887)">
        <path
            d="M125.04 269.08L89.4499 209.86C86.6099 205.13 80.4599 203.59 75.7299 206.44L16.5099 242.02C11.7799 244.86 10.2399 251.01 13.0899 255.74L48.6799 314.96C51.5199 319.69 57.6699 321.23 62.3999 318.38L121.62 282.8C126.35 279.96 127.89 273.81 125.04 269.08Z"
            fill="#BFE2E2" />
        <path
            d="M124.18 269.6L88.6 210.38C86.04 206.12 80.51 204.74 76.25 207.3L17.03 242.89C12.77 245.45 11.39 250.98 13.95 255.24L49.53 314.46C52.09 318.72 57.62 320.1 61.88 317.54L121.1 281.96C125.36 279.4 126.74 273.87 124.18 269.61V269.6Z"
            stroke="#5BB3B3" stroke-width="2" />
        <path
            d="M48.3799 238.58L37.0199 219.35C36.2399 218.12 35.9699 216.64 36.2699 215.22C36.5699 213.8 37.4199 212.55 38.6299 211.74C39.8999 211.05 41.3999 210.89 42.7899 211.31C44.1799 211.72 45.3499 212.67 46.0399 213.95L57.3699 233.12"
            fill="white" />
        <path
            d="M48.3799 238.58L37.0199 219.35C36.2399 218.12 35.9699 216.64 36.2699 215.22C36.5699 213.8 37.4199 212.55 38.6299 211.74C39.8999 211.05 41.3999 210.89 42.7899 211.31C44.1799 211.72 45.3499 212.67 46.0399 213.95L57.3699 233.12"
            stroke="#5BB3B3" stroke-width="2" stroke-linecap="round" stroke-linejoin="round" />
        <path
            d="M47.2902 286.68C60.8802 298.49 81.4702 297.05 93.2802 283.46C105.09 269.87 103.65 249.28 90.0602 237.47C76.4702 225.66 55.8802 227.1 44.0702 240.69C32.2602 254.28 33.7002 274.87 47.2902 286.68Z"
            fill="white" stroke="#5BB3B3" stroke-width="2" stroke-linecap="round"
            stroke-linejoin="round" />
        <path
            d="M51.8502 281.44C62.5502 290.74 78.7502 289.6 88.0502 278.91C97.3502 268.21 96.2102 252.01 85.5202 242.71C74.8202 233.41 58.6202 234.55 49.3202 245.24C40.0202 255.94 41.1602 272.14 51.8502 281.44Z"
            stroke="#5BB3B3" stroke-width="2" stroke-linecap="round" stroke-linejoin="round" />
        <path d="M-40 47.56L81.44 15" stroke="#5BB3B3" stroke-width="2" stroke-linecap="round"
            stroke-linejoin="round" />
        <path d="M-28.2998 74.0103L64.8702 49.0303" stroke="#5BB3B3" stroke-width="2"
            stroke-linecap="round" stroke-linejoin="round" />
        <path d="M-30.8701 64.4204L62.2999 39.4404L74.2499 84.0104L-18.9201 108.99" stroke="#5BB3B3"
            stroke-width="2" stroke-linecap="round" stroke-linejoin="round" />
        <path d="M-26.0098 82.5601L67.1602 57.5801" stroke="#5BB3B3" stroke-width="2"
            stroke-linecap="round" stroke-linejoin="round" />
        <path d="M-23.6499 91.3697L69.5201 66.3896" stroke="#5BB3B3" stroke-width="2"
            stroke-linecap="round" stroke-linejoin="round" />
        <path d="M-21.3501 99.9204L71.8199 74.9404" stroke="#5BB3B3" stroke-width="2"
            stroke-linecap="round" stroke-linejoin="round" />
        <path d="M15.3999 53.7803L26.6999 95.9303" stroke="#5BB3B3" stroke-width="2"
            stroke-linecap="round" stroke-linejoin="round" />
        <path d="M31.3101 49.5098L42.6101 91.6598" stroke="#5BB3B3" stroke-width="2"
            stroke-linecap="round" stroke-linejoin="round" />
        <path d="M48.0898 45.0098L59.3898 87.1598" stroke="#5BB3B3" stroke-width="2"
            stroke-linecap="round" stroke-linejoin="round" />
        <path d="M-1.39014 58.2803L9.90986 100.43" stroke="#5BB3B3" stroke-width="2"
            stroke-linecap="round" stroke-linejoin="round" />
        <path
            d="M-34.6602 54.3297L73.2999 25.3797C80.5699 23.4297 87.6499 26.0297 89.0199 31.1597L111.27 114.14C112.65 119.27 107.82 125.06 100.55 127.01L-6.74016 155.78"
            stroke="#5BB3B3" stroke-width="2" stroke-linecap="round" stroke-linejoin="round" />
        <path d="M-17.3599 118.87L22.2101 108.26L28.5701 131.97L-10.9999 142.58" stroke="#5BB3B3"
            stroke-width="2" stroke-linecap="round" stroke-linejoin="round" />
        <path d="M412.677 99.9882L396.626 95.0811" stroke="#5BB3B3" stroke-width="2"
            stroke-linecap="round" />
        <path
            d="M304.71 48.9597C304.71 48.9597 313.87 47.9797 316.46 46.8497C319.04 45.7197 325.18 43.7097 327.5 44.8297C329.82 45.9497 333.2 49.3497 333.2 49.3497L344.07 64.4897L350.09 73.6597L359.04 75.8197L377.24 70.5197L392.73 67.5597L400.22 67.8397L405.43 69.4297L414.54 76.8397L424.92 84.0497L426.7 85.6397L411.36 135.8L289 98.1897L304.69 48.9597H304.71Z"
            fill="#BFE2E2" />
        <path d="M436.73 52.34L314.6 15L289.16 98.21L411.29 135.55L436.73 52.34Z" stroke="#5BB3B3"
            stroke-width="2" />
        <path d="M367 40.9199L364.72 48.3899" stroke="#5BB3B3" stroke-width="2"
            stroke-linecap="round" />
        <path d="M367.32 41.0098L366.07 45.0898L371.38 44.5898L367.32 41.0098Z" stroke="#5BB3B3"
            stroke-width="2" stroke-linecap="round" stroke-linejoin="round" />
        <path
            d="M367.21 85.8495L421.17 101.969L424.79 90.1095C423.91 89.9495 423 90.0195 422.16 90.3095C422.19 89.3995 421.89 88.5095 421.31 87.7995C420.57 86.8395 419.56 86.1195 418.41 85.7295C418.35 85.7095 418.3 85.6895 418.24 85.6795C416.03 85.1095 413.69 85.3395 411.63 86.3195C410.31 86.9495 409.05 87.6895 407.85 88.5295H407.83C407.5 88.7595 407.15 88.9895 406.81 89.2095C406.83 88.8495 406.78 88.4795 406.65 88.1395C406.42 87.5095 405.99 86.9795 405.42 86.6095C405.15 86.4395 404.87 86.3095 404.56 86.2095C404.2 86.0995 403.82 86.0495 403.45 86.0495C402.91 86.0495 402.38 86.1795 401.91 86.4295C401.72 85.9295 401.47 85.4495 401.18 84.9895C400.89 84.5395 400.5 84.1595 400.05 83.8695C399.86 83.7495 399.65 83.6595 399.43 83.5895C399.22 83.5295 399.01 83.4895 398.8 83.4695C398.38 83.4295 397.95 83.4995 397.56 83.6595C397.34 83.7495 397.15 83.8895 397 84.0695C396.31 82.9695 395.4 82.0195 394.33 81.2895C393.43 80.6595 392.44 80.1795 391.39 79.8595C390.95 79.7295 390.49 79.6195 390.03 79.5495C388.52 79.3095 386.96 79.4295 385.5 79.8895C384.28 80.2695 383.17 80.9195 382.26 81.8095C381.92 81.2295 381.42 80.7595 380.82 80.4595C380.45 80.2595 380.06 80.0995 379.66 79.9795C379.21 79.8395 378.75 79.7495 378.28 79.7195C377.46 79.6595 376.64 79.8595 375.94 80.2895C375.44 80.5895 375.04 81.0295 374.78 81.5495C374.27 81.1195 373.66 80.8095 373.01 80.6495C372.8 80.5895 372.59 80.5295 372.39 80.4695C372.01 80.3595 371.61 80.3195 371.22 80.3795C370.83 80.4295 370.45 80.5595 370.11 80.7695C369.54 81.1295 369.06 81.6095 368.7 82.1795C368.33 82.7295 368.02 83.3295 367.78 83.9395L367.18 85.8395L367.21 85.8495Z"
            stroke="#5BB3B3" stroke-width="2" />
        <path
            d="M343.4 114.999L289.65 98.1892L293.28 86.3292C294.1 86.6892 294.81 87.2492 295.35 87.9692C295.83 87.1992 296.58 86.6292 297.45 86.3592C298.6 85.9792 299.84 85.9492 301.01 86.2692C301.07 86.2892 301.13 86.3092 301.18 86.3192C303.33 87.0792 305.14 88.5792 306.3 90.5392C307.04 91.7992 307.68 93.1192 308.2 94.4892V94.5092C308.36 94.8792 308.52 95.2592 308.68 95.6392C308.86 95.3292 309.11 95.0592 309.41 94.8392C309.96 94.4492 310.61 94.2492 311.28 94.2592C311.6 94.2592 311.91 94.3192 312.21 94.4092C312.57 94.5192 312.91 94.6892 313.22 94.8992C313.67 95.1992 314.03 95.5992 314.29 96.0692C314.73 95.7592 315.2 95.4992 315.69 95.2792C316.18 95.0692 316.71 94.9692 317.25 94.9792C317.48 94.9792 317.7 95.0292 317.92 95.0892C318.13 95.1492 318.32 95.2392 318.51 95.3492C318.88 95.5492 319.2 95.8492 319.43 96.1992C319.56 96.3992 319.64 96.6192 319.66 96.8492C320.85 96.3192 322.13 96.0392 323.43 96.0392C324.53 96.0192 325.62 96.1792 326.67 96.4992C327.11 96.6392 327.55 96.7992 327.97 96.9992C329.36 97.6492 330.58 98.6092 331.53 99.8092C332.33 100.799 332.88 101.969 333.14 103.209C333.75 102.919 334.42 102.809 335.09 102.899C335.51 102.939 335.92 103.019 336.32 103.149C336.77 103.289 337.2 103.469 337.61 103.699C338.32 104.109 338.89 104.729 339.23 105.479C339.47 106.009 339.56 106.599 339.49 107.179C340.16 107.109 340.83 107.189 341.46 107.419C341.67 107.479 341.88 107.549 342.08 107.619C342.46 107.739 342.81 107.939 343.1 108.199C343.4 108.459 343.64 108.779 343.8 109.139C344.07 109.759 344.2 110.429 344.19 111.099C344.19 111.769 344.11 112.429 343.97 113.079L343.41 114.979L343.4 114.999Z"
            stroke="#5BB3B3" stroke-width="2" />
        <path
            d="M380.23 69.9295C380.23 69.9295 367.9 50.3095 364.39 49.0995C360.87 47.8895 339.28 57.4095 339.28 57.4095L350.21 73.7795L358.59 75.8095L380.23 69.9295Z"
            stroke="#5BB3B3" stroke-width="2" />
        <path
            d="M320.05 80.6699C320.05 80.6699 320.54 76.0899 320.09 74.1499C319.75 72.6299 319.08 71.2099 318.13 69.9799C317.46 69.1299 316.67 68.3899 315.77 67.7899C315.43 67.5599 315.07 67.3499 314.69 67.1799C314.08 66.2999 313.19 65.6499 312.16 65.3299L312.1 65.3099C311.14 65.0299 310.11 65.0699 309.17 65.4099C308.46 65.6499 307.84 66.0899 307.38 66.6699C307.17 66.2999 306.9 65.9699 306.58 65.6899C306.11 65.2699 305.56 64.9399 304.97 64.7099C304.84 64.6599 304.71 64.6099 304.58 64.5699C303.64 64.2599 302.62 64.2599 301.68 64.5599C301.69 63.7999 301.44 63.0599 300.96 62.4699C300.87 62.3499 300.78 62.2399 300.68 62.1299L297.15 73.6699L320.06 80.6699H320.05Z"
            stroke="#5BB3B3" stroke-width="2" />
        <path
            d="M350.2 73.7097C350.2 73.7097 334.41 48.2997 328.26 45.3097C322.11 42.3197 314.6 48.8997 304.74 48.8497"
            stroke="#5BB3B3" stroke-width="2" stroke-linecap="round" stroke-linejoin="round" />
        <path d="M413.38 127.44L356.45 110.04" stroke="#5BB3B3" stroke-width="2"
            stroke-linecap="round" />
        <path
            d="M358.8 75.9291C358.8 75.9291 360.27 75.2591 361.08 75.0091C366.47 73.3691 390.81 66.1991 399.37 67.6391C409.04 69.2691 414.82 78.2891 426.83 85.4991"
            stroke="#5BB3B3" stroke-width="2" stroke-linecap="round" stroke-linejoin="round" />
        <path d="M341.58 87.2495L309.77 77.5195" stroke="#5BB3B3" stroke-width="2"
            stroke-linecap="round" />
        <path d="M346.82 97.7492L307.28 85.6592" stroke="#5BB3B3" stroke-width="2"
            stroke-linecap="round" />
        <path d="M412.68 108.989L396.63 104.079" stroke="#5BB3B3" stroke-width="2"
            stroke-linecap="round" />
        <path
            d="M368.47 196.131C361.65 198.351 357.913 205.678 360.133 212.512C362.352 219.345 369.681 223.068 376.515 220.849C383.335 218.629 387.072 211.301 384.852 204.468C382.632 197.648 375.304 193.912 368.47 196.131Z"
            stroke="#5BB3B3" stroke-width="2" stroke-linecap="round" stroke-linejoin="round" />
        <path
            d="M340.038 179.142C333.218 181.362 329.481 188.704 331.701 195.524C333.92 202.345 341.262 206.082 348.082 203.862C354.903 201.642 358.64 194.3 356.42 187.48C354.2 180.659 346.872 176.923 340.038 179.142Z"
            stroke="#5BB3B3" stroke-width="2" stroke-linecap="round" stroke-linejoin="round" />
        <path
            d="M360.342 184.058C361.052 182.484 361.451 180.793 361.498 179.064C361.557 177.335 361.262 175.62 360.649 174C360.035 172.394 359.115 170.922 357.926 169.665C356.735 168.422 355.327 167.422 353.75 166.733C352.174 166.045 350.481 165.683 348.777 165.651C347.059 165.631 345.356 165.942 343.773 166.588C342.177 167.233 340.74 168.188 339.518 169.401C338.296 170.614 337.328 172.061 336.67 173.65"
            stroke="#5BB3B3" stroke-width="2" stroke-linecap="round" stroke-linejoin="round" />
        <path d="M273.65 66.0596H135.46V259.46H273.65V66.0596Z" fill="#ABB1BD" />
        <path
            d="M131.69 62.2197C131.69 61.6674 132.138 61.2197 132.69 61.2197H266.88C267.432 61.2197 267.88 61.6674 267.88 62.2197V251.62C267.88 252.172 267.432 252.62 266.88 252.62H132.69C132.138 252.62 131.69 252.172 131.69 251.62V62.2197Z"
            fill="#AEDFAE" stroke="#2E3E5A" stroke-width="2" stroke-linejoin="round" />
        <path d="M173.67 163.23H250.81" stroke="#7468B4" stroke-width="3" stroke-linecap="round"
            stroke-linejoin="round" />
        <path
            d="M156 175.73C162.627 175.73 168 170.358 168 163.73C168 157.103 162.627 151.73 156 151.73C149.373 151.73 144 157.103 144 163.73C144 170.358 149.373 175.73 156 175.73Z"
            fill="white" />
        <path d="M173.67 196.23H250.81" stroke="#7468B4" stroke-width="3" stroke-linecap="round"
            stroke-linejoin="round" />
        <path
            d="M155.68 208.73C162.308 208.73 167.68 203.358 167.68 196.73C167.68 190.103 162.308 184.73 155.68 184.73C149.053 184.73 143.68 190.103 143.68 196.73C143.68 203.358 149.053 208.73 155.68 208.73Z"
            fill="white" />
        <path d="M173.67 229.23H250.81" stroke="#7468B4" stroke-width="3" stroke-linecap="round"
            stroke-linejoin="round" />
        <path
            d="M155.68 241.73C162.308 241.73 167.68 236.358 167.68 229.73C167.68 223.103 162.308 217.73 155.68 217.73C149.053 217.73 143.68 223.103 143.68 229.73C143.68 236.358 149.053 241.73 155.68 241.73Z"
            fill="white" />
        <path
            d="M159.672 225.585C159.672 226.405 159.42 227.12 158.918 227.689C158.415 228.258 157.713 228.668 156.813 228.88V228.933C157.885 229.065 158.693 229.396 159.235 229.899C159.778 230.415 160.056 231.116 160.056 231.99C160.056 233.26 159.592 234.253 158.666 234.967C157.74 235.682 156.43 236.026 154.709 236.026C153.28 236.026 151.996 235.788 150.898 235.311V232.929C151.414 233.194 151.97 233.406 152.592 233.565C153.214 233.723 153.823 233.803 154.418 233.803C155.344 233.803 156.019 233.644 156.456 233.326C156.893 233.009 157.118 232.506 157.118 231.818C157.118 231.196 156.866 230.759 156.363 230.494C155.861 230.23 155.053 230.111 153.942 230.111H152.936V227.967H153.955C154.974 227.967 155.728 227.834 156.205 227.57C156.681 227.305 156.919 226.842 156.919 226.193C156.919 225.188 156.297 224.698 155.04 224.698C154.603 224.698 154.167 224.764 153.717 224.91C153.267 225.055 152.764 225.307 152.221 225.664L150.924 223.732C152.129 222.859 153.571 222.435 155.239 222.435C156.602 222.435 157.687 222.713 158.481 223.269C159.275 223.825 159.672 224.592 159.672 225.585Z"
            fill="black" />
        <path
            d="M159.825 202.94H150.575V200.995L153.896 197.633C154.876 196.627 155.524 195.926 155.829 195.542C156.133 195.159 156.345 194.788 156.477 194.457C156.609 194.126 156.676 193.782 156.676 193.425C156.676 192.896 156.53 192.499 156.239 192.234C155.948 191.969 155.551 191.85 155.061 191.85C154.545 191.85 154.055 191.969 153.566 192.207C153.076 192.446 152.573 192.776 152.057 193.213L150.535 191.413C151.184 190.858 151.726 190.461 152.15 190.236C152.573 190.011 153.05 189.825 153.552 189.706C154.055 189.587 154.624 189.521 155.26 189.521C156.08 189.521 156.821 189.667 157.443 189.971C158.078 190.275 158.568 190.699 158.912 191.241C159.256 191.784 159.441 192.406 159.441 193.107C159.441 193.716 159.336 194.285 159.124 194.814C158.912 195.344 158.581 195.9 158.131 196.455C157.681 197.011 156.887 197.818 155.762 198.851L154.055 200.452V200.584H159.812V202.94H159.825Z"
            fill="black" />
        <path
            d="M157.462 169.841H154.67V162.191L154.696 160.934L154.736 159.558C154.273 160.021 153.955 160.326 153.77 160.471L152.248 161.689L150.898 160.008L155.159 156.62H157.462V169.841Z"
            fill="black" />
        <path d="M224.595 217.984L208.915 222.733L218.44 210.087" fill="#E4E6EA" />
        <path d="M214.951 220.236L211.209 220.903L212.977 217.702L214.951 220.236Z" fill="#7468B4"
            stroke="#7468B4" stroke-width="2.00085" stroke-linecap="round" stroke-linejoin="round" />
        <path d="M297.124 157.823L303.564 153.545L309.783 161.524L303.343 165.802" fill="#313E58" />
        <path d="M297.124 157.823L303.564 153.545L309.783 161.524L303.343 165.802" stroke="#313E58"
            stroke-width="1.00042" stroke-linecap="round" stroke-linejoin="round" />
        <path d="M224.595 217.984L208.915 222.733L218.44 210.087" stroke="#333E56"
            stroke-width="2.00085" stroke-linecap="round" stroke-linejoin="round" />
        <path d="M296.786 158.05L218.434 210.091L224.653 218.07L303.005 166.029L296.786 158.05Z"
            fill="#7468B4" stroke="#7468B4" stroke-width="2.00085" stroke-linecap="round"
            stroke-linejoin="round" />
        <path d="M304.805 165.377L307.726 169.124C307.726 169.124 300.543 175.546 285.833 184.033"
            stroke="#313E58" stroke-width="2.00085" stroke-linecap="round" stroke-linejoin="round" />
        <mask style="mask-type:luminance" maskUnits="userSpaceOnUse" x="289"
            y="221" width="119" height="142">
            <path
                d="M352.782 221.485L289.038 253.884L343.994 362.007L407.737 329.608L352.782 221.485Z"
                fill="white" />
        </mask>
        <g mask="url(#mask0_144_1887)">
            <path
                d="M345.55 226.845L297.63 251.202C294.071 253.011 292.524 257.111 294.175 260.359L341.791 354.041C343.442 357.289 347.665 358.455 351.224 356.646L399.145 332.29C402.704 330.481 404.251 326.381 402.6 323.133L354.984 229.451C353.333 226.203 349.109 225.036 345.55 226.845Z"
                stroke="#70B1B1" stroke-width="2" stroke-linecap="round" stroke-linejoin="round" />
            <path
                d="M345.056 234.819L304.362 255.502C302.583 256.407 301.809 258.457 302.635 260.081L347.001 347.37C347.827 348.994 349.939 349.577 351.718 348.673L392.412 327.989C394.192 327.085 394.965 325.035 394.14 323.411L349.773 236.122C348.948 234.498 346.836 233.914 345.056 234.819Z"
                stroke="#70B1B1" stroke-width="2" stroke-linecap="round" stroke-linejoin="round" />
            <path
                d="M339.553 237.736L340.107 238.827C340.838 240.279 340.91 241.988 340.308 243.583C339.706 245.178 338.479 246.529 336.895 247.341L319.29 256.289C317.699 257.091 315.885 257.286 314.242 256.832C312.599 256.378 311.26 255.312 310.518 253.866L309.996 252.84"
                stroke="#70B1B1" stroke-width="2" stroke-linecap="round" stroke-linejoin="round" />
        </g>
        <circle cx="178" cy="104" r="34" fill="white" />
        <path
            d="M177.995 131.91V114.51C177.995 114.51 147.845 114.51 152.485 89C176.845 89 177.995 114.51 177.995 114.51"
            fill="#629D62" />
        <path
            d="M177.995 131.91V114.51M177.995 114.51C177.995 114.51 147.845 114.51 152.485 89C176.845 89 177.995 114.51 177.995 114.51Z"
            stroke="#629D62" stroke-width="2" stroke-linecap="round" />
        <path d="M155.375 91.8994L175.095 111.619" stroke="#A0D1A0" stroke-width="2"
            stroke-miterlimit="10" stroke-linecap="round" />
        <path
            d="M177.996 131.91V114.51C177.996 114.51 208.146 114.51 203.506 89C179.146 89 177.996 114.51 177.996 114.51"
            fill="#629D62" />
        <path
            d="M177.996 131.91V114.51M177.996 114.51C177.996 114.51 208.146 114.51 203.506 89C179.146 89 177.996 114.51 177.996 114.51Z"
            stroke="#629D62" stroke-width="2" stroke-linecap="round" />
        <path d="M200.605 91.8994L180.896 111.619" stroke="#A0D1A0" stroke-width="2"
            stroke-miterlimit="10" stroke-linecap="round" />
    </g>
    <defs>
        <clipPath>
            <rect width="400" height="320" fill="white" />
        </clipPath>
    </defs>
</svg>