<svg xmlns="http://www.w3.org/2000/svg" xmlns:xlink="http://www.w3.org/1999/xlink" width="400" height="320" viewBox="0 0 400 320">
    <defs>
        <clipPath>
            <rect width="62.846" height="116.809" fill="none" />
        </clipPath>
        <clipPath>
            <rect width="400" height="320" />
        </clipPath>
    </defs>
    <g clip-path="url(#c)">
        <rect width="400" height="320" fill="transparent" />
        <g transform="matrix(-0.995, 0.105, -0.105, -0.995, 123.264, 309.183)">
            <path d="M84.82,88.437,83.5,90.069l-37.21,18.513H43.913L0,22.242.981,19.79,38.688,0h2.69L84.82,86.16Z" transform="matrix(0.998, 0.07, -0.07, 0.998, 13.023, 8.788)" fill="none" />
            <g transform="matrix(-0.921, 0.391, -0.391, -0.921, 103.491, 107.523)">
                <g transform="translate(0)" clip-path="url(#a)">
                    <path d="M6-1H53.953a7.008,7.008,0,0,1,7,7V107.916a7.008,7.008,0,0,1-7,7H6a7.008,7.008,0,0,1-7-7V6A7.008,7.008,0,0,1,6-1ZM53.953,112.916a5.006,5.006,0,0,0,5-5V6a5.006,5.006,0,0,0-5-5H6A5.006,5.006,0,0,0,1,6V107.916a5.006,5.006,0,0,0,5,5Z" transform="translate(1.447 1.446)" fill="#70b1b1" />
                    <path d="M3-1H43.475a4,4,0,0,1,4,4V97.656a4,4,0,0,1-4,4H3a4,4,0,0,1-4-4V3A4,4,0,0,1,3-1ZM43.475,99.656a2,2,0,0,0,2-2V3a2,2,0,0,0-2-2H3A2,2,0,0,0,1,3V97.656a2,2,0,0,0,2,2Z" transform="translate(8.186 8.077)" fill="#70b1b1" />
                    <path d="M23.264,8.087H5.908a6.86,6.86,0,0,1-4.88-2.028A6.86,6.86,0,0,1-1,1.179V.069a1,1,0,0,1,1-1,1,1,0,0,1,1,1V1.179A4.873,4.873,0,0,0,2.443,4.645,4.873,4.873,0,0,0,5.908,6.087H23.264a4.914,4.914,0,0,0,4.908-4.908V0a1,1,0,0,1,1-1,1,1,0,0,1,1,1V1.179A6.916,6.916,0,0,1,23.264,8.087Z" transform="translate(16.837 8.18)" fill="#70b1b1" />
                </g>
            </g>
        </g>
        <g transform="matrix(-0.978, 0.208, -0.208, -0.978, 118.265, 126.981)">
            <path d="M19.8,33.984c-8.116,0-14.829-1.815-19.954-5.394a1,1,0,0,1-.418-.68c-1.253-8.9.239-16,4.435-21.107a19.963,19.963,0,0,1,4.855-4.24A23.205,23.205,0,0,1,13.6.269,22.349,22.349,0,0,1,18.892-.873,22.148,22.148,0,0,1,21.417-1c4.165,0,11.974.9,17.47,6.895,4.692,5.122,6.625,12.8,5.745,22.836a1,1,0,0,1-.641.847,69.453,69.453,0,0,1-7.381,2.206A72.607,72.607,0,0,1,19.8,33.984ZM1.35,27.2c4.738,3.178,10.942,4.788,18.45,4.788A70.561,70.561,0,0,0,36.1,29.85c3.167-.778,5.545-1.565,6.593-1.93.7-9.135-1.079-16.089-5.279-20.675C32.434,1.811,25.254,1,21.417,1a19.969,19.969,0,0,0-2.3.114l-.075.007A20.542,20.542,0,0,0,14.17,2.187a21.161,21.161,0,0,0-4.437,2.1,17.953,17.953,0,0,0-4.34,3.8C1.646,12.661.286,19.087,1.35,27.2Z" transform="translate(11.926 0)" fill="#5bb3b3" />
            <path d="M19.8,33.984c-8.116,0-14.829-1.815-19.954-5.394a1,1,0,0,1-.418-.68c-1.253-8.9.239-16,4.435-21.107a19.963,19.963,0,0,1,4.855-4.24A23.205,23.205,0,0,1,13.6.269,22.349,22.349,0,0,1,18.892-.873,22.148,22.148,0,0,1,21.417-1c4.165,0,11.974.9,17.47,6.895,4.692,5.122,6.625,12.8,5.745,22.836a1,1,0,0,1-.641.847,69.453,69.453,0,0,1-7.381,2.206A72.607,72.607,0,0,1,19.8,33.984ZM1.35,27.2c4.738,3.178,10.942,4.788,18.45,4.788A70.561,70.561,0,0,0,36.1,29.85c3.167-.778,5.545-1.565,6.593-1.93.7-9.135-1.079-16.089-5.279-20.675C32.434,1.811,25.254,1,21.417,1a19.969,19.969,0,0,0-2.3.114l-.075.007A20.542,20.542,0,0,0,14.17,2.187a21.161,21.161,0,0,0-4.437,2.1,17.953,17.953,0,0,0-4.34,3.8C1.646,12.661.286,19.087,1.35,27.2Z" transform="translate(73.545 0)" fill="#5bb3b3" />
            <path d="M0,1.607A1,1,0,0,1-1,.643,1,1,0,0,1-.036-.392L16.976-1a1,1,0,0,1,1.035.964A1,1,0,0,1,17.047,1L.036,1.607Z" transform="translate(56.533 27.744)" fill="#5bb3b3" />
            <path d="M17.9,23.737h0A57.151,57.151,0,0,1,5.338,22.216,55.054,55.054,0,0,1-.18,20.688a1,1,0,0,1-.664-.849c-.639-6.748.7-11.994,3.968-15.591C7.278-.318,13.409-1,16.694-1a18.1,18.1,0,0,1,1.9.088,18.2,18.2,0,0,1,4.175.857A15.979,15.979,0,0,1,30.307,4.9c2.907,3.562,3.92,8.4,3.009,14.394a1,1,0,0,1-.446.689C29.019,22.473,23.981,23.737,17.9,23.737ZM1.091,19A59.981,59.981,0,0,0,17.9,21.737c5.489,0,10.03-1.074,13.506-3.195.707-5.2-.182-9.36-2.646-12.379-3.836-4.7-10.24-5.077-10.3-5.08l-.071-.006A15.909,15.909,0,0,0,16.694,1a20.861,20.861,0,0,0-5.766.8A13.515,13.515,0,0,0,4.6,5.593C1.828,8.645.647,13.153,1.091,19Z" transform="translate(78.864 5.311)" fill="#5bb3b3" />
            <path d="M14.742,23.737c-6.083,0-11.121-1.263-14.973-3.754a1,1,0,0,1-.446-.689C-1.587,13.3-.575,8.46,2.332,4.9A15.979,15.979,0,0,1,9.873-.055a18.2,18.2,0,0,1,4.175-.857A18.093,18.093,0,0,1,15.946-1c3.285,0,9.415.682,13.569,5.248,3.273,3.6,4.608,8.843,3.969,15.591a1,1,0,0,1-.664.849A55.045,55.045,0,0,1,27.3,22.216,58.34,58.34,0,0,1,14.742,23.737ZM1.235,18.542c3.476,2.12,8.017,3.195,13.506,3.195A59.979,59.979,0,0,0,31.548,19c.444-5.847-.736-10.356-3.512-13.407a13.515,13.515,0,0,0-6.324-3.8A20.858,20.858,0,0,0,15.946,1a15.889,15.889,0,0,0-1.691.077l-.069.006a16.335,16.335,0,0,0-3.758.784A14.111,14.111,0,0,0,3.87,6.178C1.415,9.2.529,13.353,1.235,18.542Z" transform="translate(17.526 5.311)" fill="#5bb3b3" />
            <path d="M7.63,17.456a34.586,34.586,0,0,1-3.571-2C1.488,13.8-.069,12.236-.569,10.8A10.9,10.9,0,0,1-.7,5.186,11.617,11.617,0,0,1,1.21.581,4.393,4.393,0,0,1,3.5-.85,3.487,3.487,0,0,1,6.179-.6C6.8-.237,8.1.926,6.883,3.822c-.9,2.134-1.077,3.115-.71,3.887.421.885,1.723,1.822,4.5,3.236l-.908,1.782c-2.856-1.456-4.654-2.6-5.394-4.158A4.205,4.205,0,0,1,4.08,5.963a13.759,13.759,0,0,1,.96-2.916c.326-.774.529-1.688.121-1.929a2.3,2.3,0,0,0-2.384.707,9.9,9.9,0,0,0-1.52,3.767,8.918,8.918,0,0,0,.065,4.549c.2.567.954,1.792,3.82,3.634a33.007,33.007,0,0,0,3.341,1.872Z" transform="matrix(0.951, -0.309, 0.309, 0.951, 0, 3.561)" fill="#5bb3b3" />
            <path d="M17.663,2.4-.079,1,.079-1,17.821.406Z" transform="translate(54.996 15.089)" fill="#5bb3b3" />
            <path d="M17.663,2.4-.079,1,.079-1,17.821.406Z" transform="translate(54.996 19.699)" fill="#5bb3b3" />
            <path d="M4.614,17.553A4.356,4.356,0,0,1,3.5,17.4a4.393,4.393,0,0,1-2.289-1.43A11.618,11.618,0,0,1-.7,11.365a10.9,10.9,0,0,1,.134-5.61c.5-1.44,2.057-3.008,4.628-4.661a34.58,34.58,0,0,1,3.571-2L8.481.9,8.055,0l.426.9A33.16,33.16,0,0,0,5.122,2.788c-2.851,1.836-3.606,3.058-3.8,3.623a8.918,8.918,0,0,0-.065,4.549,9.9,9.9,0,0,0,1.52,3.767,2.3,2.3,0,0,0,2.384.707c.408-.242.205-1.155-.121-1.929a13.76,13.76,0,0,1-.96-2.916,4.206,4.206,0,0,1,.287-2.606c.74-1.555,2.538-2.7,5.394-4.158l.908,1.782C7.9,7.02,6.594,7.957,6.173,8.842c-.367.772-.188,1.753.71,3.887,1.219,2.9-.086,4.06-.7,4.426A3.05,3.05,0,0,1,4.614,17.553Z" transform="matrix(-0.951, -0.309, 0.309, -0.951, 124.157, 19.302)" fill="#5bb3b3" />
            <path d="M.124,1.944-.125-.04,7.466-.992,7.715.992Z" transform="translate(66.685 15.089)" fill="#5bb3b3" />
        </g>
        <g transform="translate(-210.488 12.53) rotate(3)">
            <rect width="63.583" height="63.583" transform="translate(265.192 -14.347) rotate(9)" fill="#bfe2e2" />
            <path d="M2,2V61.583H61.583V2H2M0,0H63.583V63.583H0Z" transform="translate(265.192 -14.347) rotate(9)" fill="#5bb3b3" />
            <rect width="63.583" height="63.583" transform="translate(263 -18.732) rotate(9)" fill="#bfe2e2" />
            <path d="M2,2V61.583H61.583V2H2M0,0H63.583V63.583H0Z" transform="translate(263 -18.732) rotate(9)" fill="#5bb3b3" />
            <rect width="63.583" height="63.583" transform="translate(260.807 -23.103) rotate(9)" fill="#bfe2e2" />
            <path d="M2,2V61.583H61.583V2H2M0,0H63.583V63.583H0Z" transform="translate(260.807 -23.103) rotate(9)" fill="#5bb3b3" />
        </g>
        <path d="M111.168,1H0A1,1,0,0,1-1,0,1,1,0,0,1,0-1H111.168a1,1,0,0,1,1,1A1,1,0,0,1,111.168,1Z" transform="translate(325.786 12.802)" fill="#5bb3b3" />
        <path d="M85.945,1H0A1,1,0,0,1-1,0,1,1,0,0,1,0-1H85.945a1,1,0,0,1,1,1A1,1,0,0,1,85.945,1Z" transform="translate(351.009 45.302)" fill="#5bb3b3" />
        <path d="M87.711,69.287H1.766a1,1,0,0,1-1-1V17.851a1,1,0,0,1,1-1H87.711a1,1,0,0,1,0,2H2.766V67.287H87.711a1,1,0,0,1,0,2Z" transform="translate(349.243 16.601)" fill="#5bb3b3" />
        <path d="M85.945,1H0A1,1,0,0,1-1,0,1,1,0,0,1,0-1H85.945a1,1,0,0,1,1,1A1,1,0,0,1,85.945,1Z" transform="translate(351.009 54.978)" fill="#5bb3b3" />
        <path d="M85.945,1H0A1,1,0,0,1-1,0,1,1,0,0,1,0-1H85.945a1,1,0,0,1,1,1A1,1,0,0,1,85.945,1Z" transform="translate(351.009 64.948)" fill="#5bb3b3" />
        <path d="M85.945,1H0A1,1,0,0,1-1,0,1,1,0,0,1,0-1H85.945a1,1,0,0,1,1,1A1,1,0,0,1,85.945,1Z" transform="translate(351.009 74.625)" fill="#5bb3b3" />
        <path d="M0,48.7a1,1,0,0,1-1-1V0A1,1,0,0,1,0-1,1,1,0,0,1,1,0V47.7A1,1,0,0,1,0,48.7Z" transform="translate(379.346 36.312)" fill="#5bb3b3" />
        <path d="M112.167,123.643H13.2A14.125,14.125,0,0,1,3.929,120.3a11.626,11.626,0,0,1-2.864-3.67A10.211,10.211,0,0,1,0,112.094V18.187A10.211,10.211,0,0,1,1.065,13.65,11.626,11.626,0,0,1,3.929,9.98,14.125,14.125,0,0,1,13.2,6.638H112.79a1,1,0,1,1,0,2H13.2a12.126,12.126,0,0,0-7.959,2.855A8.833,8.833,0,0,0,2,18.187v93.907a8.833,8.833,0,0,0,3.237,6.694,12.126,12.126,0,0,0,7.959,2.855h98.971a1,1,0,0,1,0,2Z" transform="translate(325.098 15.085)" fill="#5bb3b3" />
        <path d="M0,48.7a1,1,0,0,1-1-1V0A1,1,0,0,1,0-1,1,1,0,0,1,1,0V47.7A1,1,0,0,1,0,48.7Z" transform="translate(364.555 36.312)" fill="#5bb3b3" />
        <path d="M0,48.7a1,1,0,0,1-1-1V0A1,1,0,0,1,0-1,1,1,0,0,1,1,0V47.7A1,1,0,0,1,0,48.7Z" transform="translate(392.92 36.312)" fill="#5bb3b3" />
        <g transform="translate(259.116 552.104) rotate(-110)">
            <path d="M9.852-1A10.852,10.852,0,0,1,20.7,9.852,10.852,10.852,0,0,1,9.852,20.7,10.852,10.852,0,0,1-1,9.852,10.852,10.852,0,0,1,9.852-1Zm0,19.7A8.852,8.852,0,1,0,1,9.852,8.862,8.862,0,0,0,9.852,18.7Z" transform="translate(314.896 157.522)" fill="#5bb3b3" />
            <path d="M9.852-1A10.852,10.852,0,0,1,20.7,9.852,10.852,10.852,0,0,1,9.852,20.7,10.852,10.852,0,0,1-1,9.852,10.852,10.852,0,0,1,9.852-1Zm0,19.7A8.852,8.852,0,1,0,1,9.852,8.862,8.862,0,0,0,9.852,18.7Z" transform="translate(331.624 176.943)" fill="#5bb3b3" />
            <path d="M103.9,85.618a10.853,10.853,0,0,1-8.1-18.055,1,1,0,1,1,1.5,1.327A8.852,8.852,0,1,0,110.538,80.64a1,1,0,0,1,1.5,1.327,10.78,10.78,0,0,1-7.47,3.63Q104.232,85.618,103.9,85.618Z" transform="translate(231.062 120.356)" fill="#5bb3b3" />
        </g>
        <rect width="79.581" height="79.581" rx="10" transform="matrix(0.951, 0.309, -0.309, 0.951, 317.894, 214.337)" fill="#bfe2e2" />
        <path d="M10,2a8.009,8.009,0,0,0-8,8V69.581a8.009,8.009,0,0,0,8,8H69.581a8.009,8.009,0,0,0,8-8V10a8.009,8.009,0,0,0-8-8H10m0-2H69.581a10,10,0,0,1,10,10V69.581a10,10,0,0,1-10,10H10a10,10,0,0,1-10-10V10A10,10,0,0,1,10,0Z" transform="matrix(0.951, 0.309, -0.309, 0.951, 317.894, 214.337)" fill="#5bb3b3" />
        <path d="M23.516,38.915l-18.926-6.3a4.959,4.959,0,0,1-3.376-6.073A4.881,4.881,0,0,1,7.5,23.684l18.87,6.285" transform="translate(292.011 218.615)" fill="transparent" />
        <path d="M23.516,39.916a1,1,0,0,1-.316-.052l-18.926-6.3A5.951,5.951,0,0,1,.262,26.23,5.448,5.448,0,0,1,3.03,23.052a6.283,6.283,0,0,1,4.784-.317l18.87,6.285a1,1,0,1,1-.632,1.9L7.182,24.632a4.271,4.271,0,0,0-3.252.205,3.462,3.462,0,0,0-1.766,2.011,3.53,3.53,0,0,0,.315,2.829,4.314,4.314,0,0,0,2.426,1.985l18.926,6.3a1,1,0,0,1-.316,1.949Z" transform="translate(292.011 218.615)" fill="#5bb3b3" />
        <circle cx="29.726" cy="29.726" r="29.726" transform="translate(313.503 234.995)" fill="transparent" />
        <path d="M29.726-1a30.734,30.734,0,0,1,11.96,59.037A30.734,30.734,0,0,1,17.766,1.415,30.534,30.534,0,0,1,29.726-1Zm0,59.452A28.734,28.734,0,0,0,40.907,3.257,28.734,28.734,0,0,0,18.545,56.195,28.545,28.545,0,0,0,29.726,58.452Z" transform="translate(313.503 234.995)" fill="#5bb3b3" />
        <path d="M23.4-1a24.4,24.4,0,0,1,9.5,46.875A24.4,24.4,0,0,1,13.9.918,24.244,24.244,0,0,1,23.4-1Zm0,46.793A22.4,22.4,0,0,0,32.114,2.76,22.4,22.4,0,0,0,14.679,44.033,22.255,22.255,0,0,0,23.4,45.793Z" transform="translate(319.833 241.324)" fill="#5bb3b3" />
        <g transform="translate(-4.109 -12.087)">
            <rect width="126.733" height="177.365" transform="translate(148.442 90.939)" fill="#acb1bc" />
            <path d="M0,0H126.733V177.365H0Z" transform="translate(140.961 82.739)" fill="#e4e6ea" />
            <rect width="26.516" height="26.516" transform="translate(155.641 96.765)" fill="#96b7df" />
            <path d="M23.369,1.5H0A1.5,1.5,0,0,1-1.5,0,1.5,1.5,0,0,1,0-1.5H23.369a1.5,1.5,0,0,1,1.5,1.5A1.5,1.5,0,0,1,23.369,1.5Z" transform="translate(191.753 99.684)" fill="#313e58" />
            <path d="M23.369,1.5H0A1.5,1.5,0,0,1-1.5,0,1.5,1.5,0,0,1,0-1.5H23.369a1.5,1.5,0,0,1,1.5,1.5A1.5,1.5,0,0,1,23.369,1.5Z" transform="translate(191.753 110.685)" fill="#313e58" />
            <path d="M23.369,1.5H0A1.5,1.5,0,0,1-1.5,0,1.5,1.5,0,0,1,0-1.5H23.369a1.5,1.5,0,0,1,1.5,1.5A1.5,1.5,0,0,1,23.369,1.5Z" transform="translate(191.753 121.687)" fill="#313e58" />
            <path d="M50.527,1.5H0A1.5,1.5,0,0,1-1.5,0,1.5,1.5,0,0,1,0-1.5H50.527a1.5,1.5,0,0,1,1.5,1.5A1.5,1.5,0,0,1,50.527,1.5Z" transform="translate(179.417 148.052)" fill="#313e58" />
            <path d="M44.257,1.5H0A1.5,1.5,0,0,1-1.5,0,1.5,1.5,0,0,1,0-1.5H44.257a1.5,1.5,0,0,1,1.5,1.5A1.5,1.5,0,0,1,44.257,1.5Z" transform="translate(185.685 160.422)" fill="#313e58" />
            <path d="M36.377,1.5H0A1.5,1.5,0,0,1-1.5,0,1.5,1.5,0,0,1,0-1.5H36.377a1.5,1.5,0,0,1,1.5,1.5A1.5,1.5,0,0,1,36.377,1.5Z" transform="translate(193.566 172.791)" fill="#313e58" />
            <path d="M25.888,1.5H-4.581A1.5,1.5,0,0,1-6.081,0a1.5,1.5,0,0,1,1.5-1.5H25.888a1.5,1.5,0,0,1,1.5,1.5A1.5,1.5,0,0,1,25.888,1.5Z" transform="translate(204.055 185.16)" fill="#313e58" />
            <path d="M21.269,1.5H-3.8A1.5,1.5,0,0,1-5.3,0,1.5,1.5,0,0,1-3.8-1.5H21.269a1.5,1.5,0,0,1,1.5,1.5A1.5,1.5,0,0,1,21.269,1.5Z" transform="translate(208.675 197.53)" fill="#313e58" />
            <path d="M19.335,1.5H0A1.5,1.5,0,0,1-1.5,0,1.5,1.5,0,0,1,0-1.5H19.335a1.5,1.5,0,0,1,1.5,1.5A1.5,1.5,0,0,1,19.335,1.5Z" transform="translate(210.609 209.899)" fill="#313e58" />
            <path d="M14.256,1.5H0A1.5,1.5,0,0,1-1.5,0,1.5,1.5,0,0,1,0-1.5H14.256a1.5,1.5,0,0,1,1.5,1.5A1.5,1.5,0,0,1,14.256,1.5Z" transform="translate(215.686 222.268)" fill="#313e58" />
            <path d="M22.333,1.5H0A1.5,1.5,0,0,1-1.5,0,1.5,1.5,0,0,1,0-1.5H22.333a1.5,1.5,0,0,1,1.5,1.5A1.5,1.5,0,0,1,22.333,1.5Z" transform="translate(207.609 234.637)" fill="#313e58" />
            <g transform="translate(107.109 136.068)">
                <path d="M100.757,128.424,51.268,153.14a6.776,6.776,0,0,1-9.064-3.026L1.708,69.03a6.776,6.776,0,0,1,3.026-9.064L54.223,35.25a6.776,6.776,0,0,1,9.064,3.026l40.5,81.084A6.777,6.777,0,0,1,100.757,128.424Z" transform="translate(-1 -34.542)" fill="#708daf" />
                <rect width="50.034" height="21.173" transform="translate(10.402 32.611) rotate(-26.539)" fill="#e4e6ea" />
                <rect width="21.971" height="21.307" transform="translate(25.394 62.631) rotate(-26.538)" fill="#313e58" />
                <rect width="21.971" height="21.307" transform="translate(50.499 50.093) rotate(-26.538)" fill="#313e58" />
                <rect width="21.971" height="21.307" transform="translate(37.292 86.454) rotate(-26.538)" fill="#313e58" />
                <rect width="21.971" height="21.307" transform="translate(62.397 73.916) rotate(-26.538)" fill="#313e58" />
                <path d="M0,5.284a1,1,0,0,1-.9-.553A1,1,0,0,1-.447,3.389L8.131-.895a1,1,0,0,1,1.341.448A1,1,0,0,1,9.024.895L.447,5.179A1,1,0,0,1,0,5.284Z" transform="translate(60.978 52.297)" fill="#b6c9e4" />
                <path d="M0,5.284a1,1,0,0,1-.9-.553A1,1,0,0,1-.447,3.389L8.131-.895a1,1,0,0,1,1.341.448A1,1,0,0,1,9.024.895L.447,5.179A1,1,0,0,1,0,5.284Z" transform="translate(35.343 65.099)" fill="#b6c9e4" />
                <path d="M4.285,9.578a1,1,0,0,1-.9-.553L-.895.447A1,1,0,0,1-.447-.895,1,1,0,0,1,.895-.447L5.179,8.131a1,1,0,0,1-.894,1.447Z" transform="translate(37.49 62.953)" fill="#b6c9e4" />
                <path d="M9.094,4.037a1,1,0,0,1-.317-.052L-.317.949A1,1,0,0,1-.949-.317,1,1,0,0,1,.317-.949L9.41,2.088a1,1,0,0,1-.317,1.949Z" transform="translate(46.932 89.444)" fill="#b6c9e4" />
                <path d="M0,10.094a1,1,0,0,1-.317-.052A1,1,0,0,1-.949,8.777L2.088-.317A1,1,0,0,1,3.353-.949,1,1,0,0,1,3.985.317L.949,9.41A1,1,0,0,1,0,10.094Z" transform="translate(49.961 86.416)" fill="#b6c9e4" />
                <path d="M0,5.284a1,1,0,0,1-.9-.553A1,1,0,0,1-.447,3.389L8.131-.895a1,1,0,0,1,1.341.448A1,1,0,0,1,9.024.895L.447,5.179A1,1,0,0,1,0,5.284Z" transform="translate(71.907 74.179)" fill="#b6c9e4" />
                <path d="M0,5.284a1,1,0,0,1-.9-.553A1,1,0,0,1-.447,3.389L8.131-.895a1,1,0,0,1,1.341.448A1,1,0,0,1,9.024.895L.447,5.179A1,1,0,0,1,0,5.284Z" transform="translate(74.019 78.408)" fill="#b6c9e4" />
            </g>
            <g transform="translate(240.045 147.607)">
                <path d="M0,7.3,1.869,5.4l3.3,3.3L13.872,0l1.885,1.873L5.165,12.465Z" transform="translate(0 0)" fill="#629d62" />
                <path d="M5.165,12.965a.5.5,0,0,1-.354-.146L-.354,7.654a.5.5,0,0,1,0-.7l1.869-1.9a.5.5,0,0,1,.711,0L5.165,8,13.519-.354a.5.5,0,0,1,.706,0L16.11,1.518a.5.5,0,0,1,0,.708L5.518,12.819A.5.5,0,0,1,5.165,12.965ZM.7,7.3l4.461,4.461,9.884-9.884L13.873.706,5.518,9.056a.5.5,0,0,1-.707,0L1.871,6.11Z" transform="translate(0 0)" fill="#629d62" />
            </g>
            <g transform="translate(240.045 173.284)">
                <path d="M0,7.3,1.869,5.4l3.3,3.3L13.872,0l1.885,1.873L5.165,12.465Z" transform="translate(0 0)" fill="#629d62" />
                <path d="M5.165,12.965a.5.5,0,0,1-.354-.146L-.354,7.654a.5.5,0,0,1,0-.7l1.869-1.9a.5.5,0,0,1,.711,0L5.165,8,13.519-.354a.5.5,0,0,1,.706,0L16.11,1.518a.5.5,0,0,1,0,.708L5.518,12.819A.5.5,0,0,1,5.165,12.965ZM.7,7.3l4.461,4.461,9.884-9.884L13.873.706,5.518,9.056a.5.5,0,0,1-.707,0L1.871,6.11Z" transform="translate(0 0)" fill="#629d62" />
            </g>
            <g transform="translate(240.045 197.61)">
                <path d="M0,7.3,1.869,5.4l3.3,3.3L13.872,0l1.885,1.873L5.165,12.465Z" transform="translate(0 0)" fill="#629d62" />
                <path d="M5.165,12.965a.5.5,0,0,1-.354-.146L-.354,7.654a.5.5,0,0,1,0-.7l1.869-1.9a.5.5,0,0,1,.711,0L5.165,8,13.519-.354a.5.5,0,0,1,.706,0L16.11,1.518a.5.5,0,0,1,0,.708L5.518,12.819A.5.5,0,0,1,5.165,12.965ZM.7,7.3l4.461,4.461,9.884-9.884L13.873.706,5.518,9.056a.5.5,0,0,1-.707,0L1.871,6.11Z" transform="translate(0 0)" fill="#629d62" />
            </g>
            <g transform="translate(240.045 223.287)">
                <path d="M0,7.3,1.869,5.4l3.3,3.3L13.872,0l1.885,1.873L5.165,12.465Z" transform="translate(0 0)" fill="#629d62" />
                <path d="M5.165,12.965a.5.5,0,0,1-.354-.146L-.354,7.654a.5.5,0,0,1,0-.7l1.869-1.9a.5.5,0,0,1,.711,0L5.165,8,13.519-.354a.5.5,0,0,1,.706,0L16.11,1.518a.5.5,0,0,1,0,.708L5.518,12.819A.5.5,0,0,1,5.165,12.965ZM.7,7.3l4.461,4.461,9.884-9.884L13.873.706,5.518,9.056a.5.5,0,0,1-.707,0L1.871,6.11Z" transform="translate(0 0)" fill="#629d62" />
            </g>
            <g transform="translate(215.122 77.247)">
                <path d="M14.291,9.785,0,5.16,14.291,0" transform="matrix(0.875, -0.485, 0.485, 0.875, 0, 57.028)" fill="#e4e6ea" />
                <path d="M3.143,3.139h0L0,1.655,3.143,0V3.139Z" transform="matrix(0.875, -0.485, 0.485, 0.875, 4.893, 58.545)" fill="#629d62" />
                <path d="M3.141,4.138a1,1,0,0,1-.441-.1L-.427,2.559A1,1,0,0,1-1,1.677,1,1,0,0,1-.466.77L2.677-.885a1,1,0,0,1,.983.029A1,1,0,0,1,4.143,0V3.136a1,1,0,0,1-1,1Z" transform="matrix(0.875, -0.485, 0.485, 0.875, 4.893, 58.545)" fill="#629d62" />
                <path d="M0,0H7.207V9.887H0" transform="matrix(0.875, -0.485, 0.485, 0.875, 89.55, 7.389)" fill="#313e58" />
                <path d="M7.207,10.387H0a.5.5,0,0,1-.5-.5.5.5,0,0,1,.5-.5H6.707V.5H0A.5.5,0,0,1-.5,0,.5.5,0,0,1,0-.5H7.207a.5.5,0,0,1,.5.5V9.887a.5.5,0,0,1-.5.5Z" transform="matrix(0.875, -0.485, 0.485, 0.875, 89.55, 7.389)" fill="#313e58" />
                <path d="M14.291,10.786a1,1,0,0,1-.308-.049L-.308,6.112A1,1,0,0,1-1,5.177,1,1,0,0,1-.34,4.22L13.951-.941a1,1,0,0,1,1.28.6,1,1,0,0,1-.6,1.28L3.088,5.108,14.6,8.834a1,1,0,0,1-.308,1.952Z" transform="matrix(0.875, -0.485, 0.485, 0.875, 0, 57.028)" fill="#333e56" />
                <rect width="87.68" height="9.887" transform="matrix(0.875, -0.485, 0.485, 0.875, 12.499, 50.1)" fill="#629d62" />
                <path d="M0-1H87.68a1,1,0,0,1,1,1V9.887a1,1,0,0,1-1,1H0a1,1,0,0,1-1-1V0A1,1,0,0,1,0-1ZM86.68,1H1V8.887H86.68Z" transform="matrix(0.875, -0.485, 0.485, 0.875, 12.499, 50.1)" fill="#629d62" />
                <path d="M11.584,6.341c-3.265,0-7.182-.1-11.65-.4A1,1,0,0,1-1,4.878,1,1,0,0,1,.067,3.946a159.263,159.263,0,0,0,18.094.244c2.662-.129,4.544-.313,5.551-.428V0a1,1,0,0,1,2,0V4.644a1,1,0,0,1-.852.989c-.094.014-2.345.347-6.559.553C16.548,6.272,14.29,6.341,11.584,6.341Z" transform="matrix(0.875, -0.485, 0.485, 0.875, 74.096, 27.774)" fill="#313e58" />
                <rect width="110.182" height="18.808" transform="matrix(0.875, -0.485, 0.485, 0.875, 3.287, 53.417)" fill="none" />
            </g>
        </g>
    </g>
</svg>