<svg xmlns="http://www.w3.org/2000/svg" xmlns:xlink="http://www.w3.org/1999/xlink" width="400" height="320" viewBox="0 0 400 320">
    <defs>
        <clipPath>
            <rect width="175.299" height="222.595" fill="none" />
        </clipPath>
        <clipPath >
            <rect width="400" height="320" />
        </clipPath>
    </defs>
    <g clip-path="url(#c)">
        <rect width="400" height="320" fill="transparent" />
        <path d="M-516.671,1994.52h-3.237A108.789,108.789,0,0,1-521,1980.977l12.372-62.331,1.88,11.355.118.711c-1.754,3.821-3.332,7.508-4.691,10.959a.015.015,0,0,0,0,.006l0,.01c.121.714-.544,2.169-1.176,3.476a5.745,5.745,0,0,1-.617,1.3c-.1.217-.157.362-.194.472l-.045-.024-.026-.014-.027-.016-.017-.01-.019-.01-.027.027c-.034.035-.08.082-.131.126-.708,2.419-1.345,4.778-1.894,7.01a90.915,90.915,0,0,0-2.595,20.525,127.278,127.278,0,0,0,1.41,19.972Zm9.432-45.824a29.535,29.535,0,0,1-4.236-.314c.123-.361.244-.747.377-1.177l.01-.032,0-.007c.069-.223.172-.557.276-.879.33-1.159.945-3.316,1.539-3.811.987-2.51,2.093-5.156,3.286-7.865l1.384,8.362,21.1-7.787a42.335,42.335,0,0,1-5.113,5.79C-494.1,1946.1-500.37,1948.7-507.239,1948.7Zm25.359-15.828h0l-14.214-18.285c.92-1.659,2.118-3.816,3.534-6.364l.02-.034.083-.149.018-.032c11.9-21.4,39.751-71.523,39.812-73.686a.36.36,0,0,0-.054-.246.1.1,0,0,0-.073-.029c-.594,0-3.3,4.089-8.049,12.153-3.806,6.467-8.909,15.462-15.166,26.736-10.553,19.008-21.235,38.839-21.26,38.89l-.408.777-6.793-8.739-1.426.818.032-.163a70.358,70.358,0,0,0-7.271-4.982,54.877,54.877,0,0,0,2.677-9.712c1.789-8.2,4.238-19.436,12.236-33.09a129.213,129.213,0,0,1,16.774-22.243A214.748,214.748,0,0,1-452.627,1809c.718.883,1.613,1.9,2.559,2.978a89.318,89.318,0,0,1,10.874,14.476,51.988,51.988,0,0,1,4.525,10.139,45.148,45.148,0,0,1,2.116,12.125,105.582,105.582,0,0,1-.464,14.429,78.86,78.86,0,0,1-2.917,14.947,48.175,48.175,0,0,1-6.246,13.351,30.86,30.86,0,0,1-10.447,9.639c-1.526.841-3.041,1.593-4.505,2.321l-.008,0-.016.008-.009,0-.018.009-.005,0c-4.543,2.256-8.834,4.387-12.488,8.637a56.2,56.2,0,0,0-7.043,11.334l-.007.015-.005.013-.01.022a68.85,68.85,0,0,1-5.137,9.412Z" transform="translate(576.219 -1816.52)" fill="#bfe2e2" />
        <path d="M-516.671,1995.02h-3.67l-.062-.428a109.293,109.293,0,0,1-1.1-13.606v-.054l.01-.053,12.372-62.331.984.016,2.023,12.217-.064.139c-1.729,3.767-3.287,7.4-4.631,10.809.065.776-.4,1.932-1.223,3.628a6.273,6.273,0,0,1-.64,1.346c-.079.178-.13.3-.159.388l-.189.563-.21-.113c-.661,2.278-1.258,4.5-1.774,6.6a90.418,90.418,0,0,0-2.58,20.414,126.789,126.789,0,0,0,1.405,19.894l0,.016.06.554Zm-2.8-1h2.229a126.784,126.784,0,0,1-1.335-19.481q.03-1.942.132-3.846l-2.05,10.328A108.46,108.46,0,0,0-519.475,1994.02Zm10.8-72.582-4.94,24.889.03-.03.018-.041.018-.04.024-.036a5.271,5.271,0,0,0,.561-1.185l.009-.025.012-.024a10.04,10.04,0,0,0,1.137-3.144.51.51,0,0,1-.017-.144l0-.088.032-.082c1.345-3.417,2.9-7.065,4.638-10.845Zm1.433,27.758a30.03,30.03,0,0,1-4.308-.319l-.6-.087.194-.569c.122-.357.241-.739.373-1.164l.011-.038c.068-.222.171-.554.276-.878.573-2.008,1.046-3.385,1.593-3.952.979-2.485,2.074-5.1,3.253-7.78l.677-1.536,1.559,9.422,22.106-8.156-.995,1.346a42.838,42.838,0,0,1-5.174,5.859C-493.857,1946.554-500.24,1949.2-507.239,1949.2Zm-3.574-1.229a28.744,28.744,0,0,0,3.574.229c6.738,0,12.891-2.552,18.288-7.586a40.36,40.36,0,0,0,4-4.357l-20.048,7.4-1.207-7.292c-.934,2.163-1.808,4.276-2.6,6.3l-.047.119-.1.082c-.475.4-1.155,2.78-1.378,3.563l-.005.018c-.1.314-.2.639-.27.86l-.015.051C-510.687,1947.567-510.751,1947.771-510.813,1947.967Zm28.983-14.226-.445-.566-14.417-18.547.16-.289c.92-1.659,2.119-3.816,3.534-6.364l.12-.216c5.906-10.626,15.787-28.405,24.216-43.824,4.66-8.525,8.324-15.319,10.89-20.194,2.219-4.216,3.387-6.565,4-7.872-.323.448-.733,1.044-1.251,1.835-1.317,2.012-3.117,4.954-5.347,8.744-3.8,6.464-8.905,15.456-15.16,26.725-10.487,18.891-21.128,38.643-21.253,38.877v0l-.408.777-.361.688-7-9.009-2,1.149.187-.939a69.888,69.888,0,0,0-6.976-4.757l-.38-.226.178-.4a54.589,54.589,0,0,0,2.646-9.616c1.8-8.236,4.255-19.514,12.294-33.238a129.712,129.712,0,0,1,16.839-22.33,215.248,215.248,0,0,1,28.846-25.548l.385-.288.3.373c.712.876,1.6,1.89,2.547,2.963A89.751,89.751,0,0,1-438.76,1826.2a52.489,52.489,0,0,1,4.568,10.237,45.648,45.648,0,0,1,2.139,12.259,106.078,106.078,0,0,1-.467,14.5,79.353,79.353,0,0,1-2.936,15.042,48.67,48.67,0,0,1-6.313,13.49,31.354,31.354,0,0,1-10.617,9.792c-1.535.846-3.054,1.6-4.523,2.33l-.058.029c-4.5,2.233-8.742,4.342-12.33,8.515a55.76,55.76,0,0,0-6.972,11.227l-.017.038a69.353,69.353,0,0,1-5.17,9.474Zm-13.667-19.205,13.581,17.471a69.334,69.334,0,0,0,4.718-8.756l.034-.073a56.605,56.605,0,0,1,7.109-11.432c3.72-4.327,8.055-6.48,12.645-8.759l.054-.027c1.462-.727,2.972-1.477,4.488-2.312a30.364,30.364,0,0,0,10.277-9.486,47.678,47.678,0,0,0,6.179-13.213,78.36,78.36,0,0,0,2.9-14.852,105.079,105.079,0,0,0,.462-14.36,44.647,44.647,0,0,0-2.093-11.99,51.483,51.483,0,0,0-4.482-10.042,88.9,88.9,0,0,0-10.816-14.4c-.821-.934-1.6-1.823-2.267-2.621a213.593,213.593,0,0,0-28.33,25.141,128.714,128.714,0,0,0-16.71,22.156c-7.958,13.586-10.4,24.775-12.179,32.944a59.7,59.7,0,0,1-2.535,9.4,71.113,71.113,0,0,1,6.79,4.669l1.372-.788,6.583,8.469.047-.09h0c.307-.574,10.823-20.091,21.265-38.9,6.258-11.277,11.363-20.276,15.172-26.747,2.367-4.021,4.249-7.09,5.6-9.123,2.01-3.035,2.479-3.276,2.884-3.276a.6.6,0,0,1,.426.175l.008.008a.836.836,0,0,1,.192.6c-.013.458-.043,1.523-15.528,29.854-8.459,15.476-18.4,33.369-24.345,44.06l-.125.223C-493.459,1910.865-494.6,1912.919-495.5,1914.536Z" transform="translate(576.219 -1816.52)" fill="rgba(0,0,0,0)" />
        <path d="M-474.505,1981.6h-5.062c-.114-.132-.209-.24-.291-.33-.5-.552-1.005-1.125-1.491-1.7l.991-4.993c1.673,2.173,3.549,4.38,5.851,7.026Zm-33.155-84.327v0a16.5,16.5,0,0,1-1.012-2.183c-1.272-3.433-1.1-7.387-.933-11.211v-.029a43.387,43.387,0,0,0-.136-7.948,65.555,65.555,0,0,0-5.476-18.655,54.168,54.168,0,0,1-2.939-9.909,130.387,130.387,0,0,1-2.394-15,66.4,66.4,0,0,1-.091-14.605c.6-4.566,1.935-7.5,3.973-8.729l.007,0a210.778,210.778,0,0,1,18.237,12.21,111.486,111.486,0,0,1,13.434,11.665c4.33,4.541,7.014,8.636,7.978,12.17a98.393,98.393,0,0,1,2.937,16.08,75.239,75.239,0,0,1-.211,17.69,51.2,51.2,0,0,1-1.081,5.508c-5.079-2.476-9.747-3.732-13.876-3.732a17.946,17.946,0,0,0-4.325.509c-.189-3.2-.352-5.877-.514-8.428-.109-1.886-.345-4.274-.721-7.3-.155-1.247-1.158-7.583-2.187-7.583-.338,0-.644.695-.911,2.066-.419,2.147.235,5.378.867,8.5.343,1.7.667,3.3.789,4.616.088.953.211,2.148.31,3.109.175,1.7.339,3.3.4,4.213.041.451.081.918.118,1.387-5.15,1.983-9.094,6.716-11.722,14.069-.179.5-.353,1.009-.518,1.51Z" transform="translate(534.283 -1803.595)" fill="#bfe2e2" />
        <path d="M-474.505,1982.1H-479.8l-.15-.173c-.113-.131-.206-.236-.282-.321-.508-.557-1.014-1.136-1.5-1.719l-.154-.183,1.252-6.308.672.873c1.668,2.166,3.538,4.366,5.832,7l.04.046.4.782Zm-4.834-1h3.738c-1.693-1.955-3.152-3.681-4.479-5.359l-.732,3.686c.432.511.876,1.017,1.323,1.506Zm-28.2-82.6-.563-.99a17,17,0,0,1-1.042-2.25c-1.307-3.528-1.133-7.533-.964-11.406v-.029a43.023,43.023,0,0,0-.131-7.855,65.056,65.056,0,0,0-5.434-18.513,54.6,54.6,0,0,1-2.975-10.015,130.891,130.891,0,0,1-2.4-15.057,66.886,66.886,0,0,1-.089-14.719c.619-4.725,2.036-7.784,4.211-9.093l.236-.142.282.142a211.565,211.565,0,0,1,18.285,12.243,111.979,111.979,0,0,1,13.5,11.719c4.388,4.6,7.112,8.768,8.1,12.383a98.9,98.9,0,0,1,2.952,16.163,75.739,75.739,0,0,1-.214,17.809,51.7,51.7,0,0,1-1.092,5.562l-.152.594-.551-.269c-5.01-2.443-9.605-3.681-13.657-3.681a17.442,17.442,0,0,0-4.2.494l-.584.145-.036-.6c-.195-3.288-.358-5.966-.514-8.426-.108-1.878-.343-4.255-.718-7.269-.057-.46-.306-2.165-.688-3.9a10.88,10.88,0,0,0-.983-3.118,6.228,6.228,0,0,0-.44,1.536c-.4,2.05.244,5.231.866,8.307.346,1.712.673,3.328.8,4.669.087.953.21,2.145.309,3.1v.006c.174,1.693.339,3.293.4,4.22.041.453.081.919.118,1.385l.03.372-.349.134c-5.008,1.928-8.854,6.561-11.431,13.771-.178.5-.351,1-.513,1.5Zm-9.119-88.909c-1.764,1.233-2.937,3.991-3.49,8.207a65.912,65.912,0,0,0,.093,14.492,129.872,129.872,0,0,0,2.385,14.938,53.727,53.727,0,0,0,2.9,9.8,66.054,66.054,0,0,1,5.519,18.8,43.751,43.751,0,0,1,.141,8.042v.028c-.164,3.775-.334,7.677.9,11.016.128.347.279.706.451,1.074q.069-.2.14-.4c2.62-7.331,6.543-12.115,11.664-14.229-.028-.342-.058-.682-.088-1.015v-.013c-.058-.907-.222-2.5-.4-4.188v-.006c-.1-.961-.222-2.156-.31-3.114-.119-1.287-.441-2.878-.781-4.562-.642-3.172-1.3-6.452-.867-8.7.341-1.754.747-2.47,1.4-2.47.635,0,1.2.631,1.909,3.712.395,1.723.692,3.647.774,4.309.377,3.036.614,5.434.724,7.332.146,2.31.3,4.814.479,7.837a18.744,18.744,0,0,1,3.861-.39,32.215,32.215,0,0,1,13.539,3.515c.375-1.548.685-3.181.923-4.861a74.74,74.74,0,0,0,.209-17.572,97.88,97.88,0,0,0-2.921-16c-.942-3.453-3.585-7.476-7.857-11.956a111,111,0,0,0-13.373-11.61A211.61,211.61,0,0,0-516.656,1809.588Z" transform="translate(534.283 -1803.595)" fill="rgba(0,0,0,0)" />
        <path d="M-479.567,1981.6c-.118-.137-.211-.242-.291-.33a58.17,58.17,0,0,1-6.236-8.241,115.257,115.257,0,0,0-3.1-11.609,75.732,75.732,0,0,0-5.26-12.127c-.851-1.684-1.756-3.427-2.673-5.231q-.193-.949-.361-1.86a82.674,82.674,0,0,1-1.324-14.383,142.2,142.2,0,0,1,.676-14.407c.077-.845.165-1.539.242-2.151.372-2.922.439-3.449-2.762-5.866a26.483,26.483,0,0,1-4.642-4.607q.485-1.818,1.146-3.673c2.309-6.45,4.861-9.6,9-11.494.406,7.484.3,14.963.2,22.242-.132,9.434-.268,19.189.739,28.64a95.587,95.587,0,0,0,2.508,14.1,76.138,76.138,0,0,0,5.074,13.927,59.319,59.319,0,0,0,8.027,12.243l-.659,4.829Zm-13.526-92.331v-.016c-.084-1.442-.168-2.9-.253-4.354,5.241-1.9,11.665-.087,17.067,2.511a33.8,33.8,0,0,1-3.368,7.2,25.324,25.324,0,0,1-12.51,10.366C-492.48,1899.826-492.791,1894.457-493.093,1889.265Z" transform="translate(534.283 -1803.595)" fill="#bfe2e2" />
        <path d="M-419.917,1890.009h-7.889a22.176,22.176,0,0,1-.253-9.648c.762-3.131,2.834-5.931,4.837-8.639a38.231,38.231,0,0,0,3.824-5.881,57.685,57.685,0,0,0,5.183-16.3,118.621,118.621,0,0,0,1.01-12.5c.13-2.887.264-5.871.553-8.81a13.3,13.3,0,0,1,2.277-6.245,16.87,16.87,0,0,1,4.77-4.583,24.2,24.2,0,0,1,12.947-3.784c.375,0,.75.01,1.117.029,5.118.277,9.023,2.353,11.6,6.169a22.282,22.282,0,0,1,3.273,9.037,47.9,47.9,0,0,1,.326,10.833,83.858,83.858,0,0,1-4.015,19.761,85.385,85.385,0,0,1-7.461,16.142,54.436,54.436,0,0,1-11.968,14.424h-17.744c1.229-2.077,2.487-4.2,3.7-6.249l.014-.024c2.478-4.177,5.041-8.5,7.411-12.541.847-1.426,1.849-3.283,3.065-5.678.463-.911,2.709-5.712,2.207-6.529a.237.237,0,0,0-.215-.117c-.291,0-.809.37-1.538,1.1-1.362,1.361-2.475,4.038-3.551,6.628-.586,1.409-1.139,2.74-1.695,3.754-.385.7-.841,1.555-1.282,2.38l0,.009c-.714,1.336-1.388,2.6-1.8,3.3-2.293,4.167-4.979,8.475-8.709,13.97Z" transform="translate(513 -1712.009)" fill="#bfe2e2" />
        <path d="M-419.917,1890.509H-428.2l-.092-.384a22.7,22.7,0,0,1-.253-9.882c.786-3.229,2.888-6.07,4.921-8.818a37.869,37.869,0,0,0,3.776-5.8,57.189,57.189,0,0,0,5.139-16.159,118.237,118.237,0,0,0,1-12.451c.13-2.893.265-5.884.554-8.837a13.8,13.8,0,0,1,2.362-6.478,17.365,17.365,0,0,1,4.91-4.72,24.714,24.714,0,0,1,13.221-3.866c.383,0,.768.01,1.143.029,5.284.286,9.318,2.435,11.993,6.389a22.772,22.772,0,0,1,3.353,9.239,48.391,48.391,0,0,1,.331,10.947,84.388,84.388,0,0,1-4.04,19.886,85.894,85.894,0,0,1-7.505,16.238,54.929,54.929,0,0,1-12.081,14.556l-.138.112h-18.8l.446-.755c1.232-2.082,2.489-4.2,3.7-6.25l.013-.023c2.475-4.172,5.034-8.484,7.411-12.54.842-1.419,1.84-3.266,3.051-5.652.227-.446.866-1.8,1.4-3.131a11.172,11.172,0,0,0,.823-2.671,6.433,6.433,0,0,0-.966.834c-1.292,1.291-2.385,3.922-3.443,6.466-.591,1.422-1.149,2.765-1.718,3.8-.383.7-.837,1.549-1.277,2.371l-.006.012c-.716,1.339-1.39,2.6-1.807,3.311-2.3,4.179-4.993,8.5-8.73,14l-.014.021-.166.2Zm-7.491-1h7.226c3.644-5.377,6.281-9.614,8.536-13.711l.007-.012c.406-.692,1.078-1.949,1.789-3.279l.008-.016c.441-.825.9-1.678,1.282-2.381.543-.99,1.091-2.309,1.671-3.7,1.1-2.636,2.228-5.36,3.66-6.791,1.1-1.1,1.572-1.245,1.891-1.245a.736.736,0,0,1,.641.355c.235.383.312,1.092-.7,3.674-.552,1.4-1.239,2.859-1.485,3.343-1.221,2.4-2.229,4.272-3.081,5.707-2.377,4.055-4.936,8.369-7.411,12.541l-.013.023c-1.069,1.8-2.17,3.658-3.258,5.495h16.689a54.162,54.162,0,0,0,11.717-14.181,84.874,84.874,0,0,0,7.416-16.046,83.326,83.326,0,0,0,3.99-19.636,47.4,47.4,0,0,0-.321-10.719,21.794,21.794,0,0,0-3.194-8.836c-2.49-3.68-6.263-5.682-11.217-5.95-.357-.019-.724-.028-1.09-.028a23.689,23.689,0,0,0-12.673,3.7,16.375,16.375,0,0,0-4.631,4.446,12.81,12.81,0,0,0-2.193,6.013c-.287,2.926-.421,5.9-.551,8.784a119,119,0,0,1-1.015,12.557,58.184,58.184,0,0,1-5.227,16.443,38.6,38.6,0,0,1-3.872,5.962c-1.974,2.668-4.015,5.428-4.753,8.46A21.442,21.442,0,0,0-427.408,1889.509Z" transform="translate(513 -1712.009)" fill="rgba(0,0,0,0)" />
        <path d="M-384.742,1890.009h7.889a22.176,22.176,0,0,0,.253-9.648c-.762-3.131-2.834-5.931-4.837-8.639a38.231,38.231,0,0,1-3.824-5.881,57.685,57.685,0,0,1-5.183-16.3,118.621,118.621,0,0,1-1.01-12.5c-.13-2.887-.264-5.871-.553-8.81a13.3,13.3,0,0,0-2.277-6.245,16.87,16.87,0,0,0-4.77-4.583A24.2,24.2,0,0,0-412,1813.613c-.375,0-.75.01-1.117.029-5.118.277-9.023,2.353-11.6,6.169a22.282,22.282,0,0,0-3.273,9.037,47.9,47.9,0,0,0-.326,10.833,83.858,83.858,0,0,0,4.015,19.761,85.385,85.385,0,0,0,7.461,16.142,54.436,54.436,0,0,0,11.968,14.424h17.744c-1.229-2.077-2.487-4.2-3.7-6.249l-.014-.024c-2.478-4.177-5.041-8.5-7.411-12.541-.847-1.426-1.849-3.283-3.065-5.678-.463-.911-2.709-5.712-2.207-6.529a.237.237,0,0,1,.215-.117c.291,0,.809.37,1.538,1.1,1.362,1.361,2.475,4.038,3.551,6.628.586,1.409,1.139,2.74,1.695,3.754.385.7.841,1.555,1.282,2.38l0,.009c.714,1.336,1.388,2.6,1.8,3.3,2.293,4.167,4.979,8.475,8.709,13.97Z" transform="translate(413.134 -1712.009)" fill="#bfe2e2" />
        <path d="M-384.741,1890.509h-.239l-.176-.219c-3.737-5.505-6.43-9.825-8.73-14-.417-.711-1.091-1.972-1.8-3.308l-.007-.013c-.441-.825-.9-1.676-1.279-2.374-.569-1.037-1.127-2.38-1.718-3.8-1.058-2.545-2.152-5.177-3.444-6.467a6.434,6.434,0,0,0-.966-.834,11.172,11.172,0,0,0,.823,2.671c.53,1.333,1.17,2.685,1.4,3.131,1.211,2.385,2.208,4.233,3.05,5.649,2.379,4.059,4.938,8.371,7.412,12.541l.017.028c1.216,2.05,2.474,4.169,3.7,6.245l.446.755h-18.8l-.138-.112a54.929,54.929,0,0,1-12.081-14.556,85.894,85.894,0,0,1-7.505-16.238,84.388,84.388,0,0,1-4.04-19.886,48.391,48.391,0,0,1,.331-10.947,22.772,22.772,0,0,1,3.353-9.239c2.674-3.953,6.709-6.1,11.991-6.388.376-.02.761-.029,1.144-.029a24.714,24.714,0,0,1,13.221,3.866,17.365,17.365,0,0,1,4.91,4.72,13.8,13.8,0,0,1,2.362,6.478c.289,2.953.424,5.944.554,8.837a118.242,118.242,0,0,0,1,12.452,57.187,57.187,0,0,0,5.139,16.159,37.866,37.866,0,0,0,3.775,5.8c2.033,2.748,4.135,5.59,4.921,8.818a22.7,22.7,0,0,1-.253,9.882l-.092.384Zm-18.58-32.138c.319,0,.794.148,1.891,1.245,1.432,1.431,2.564,4.155,3.66,6.79.581,1.4,1.129,2.715,1.671,3.705.385.7.841,1.556,1.282,2.381l.008.015c.711,1.331,1.383,2.588,1.789,3.28l.007.012c2.255,4.1,4.893,8.334,8.536,13.711h7.226a21.441,21.441,0,0,0,.166-9.03c-.738-3.032-2.779-5.792-4.753-8.46a38.6,38.6,0,0,1-3.872-5.962,58.182,58.182,0,0,1-5.227-16.443,119,119,0,0,1-1.015-12.557c-.13-2.88-.264-5.858-.551-8.784a12.81,12.81,0,0,0-2.193-6.013,16.375,16.375,0,0,0-4.631-4.446,23.689,23.689,0,0,0-12.673-3.7c-.366,0-.733.009-1.091.028-4.953.268-8.727,2.27-11.216,5.95a21.794,21.794,0,0,0-3.194,8.836,47.4,47.4,0,0,0-.321,10.719,83.329,83.329,0,0,0,3.99,19.636,84.874,84.874,0,0,0,7.416,16.046,54.162,54.162,0,0,0,11.717,14.181h16.689c-1.085-1.832-2.185-3.688-3.254-5.489l-.017-.029c-2.474-4.17-5.033-8.484-7.412-12.542-.851-1.433-1.859-3.3-3.08-5.7-.246-.484-.933-1.939-1.485-3.343-1.015-2.582-.937-3.291-.7-3.674A.736.736,0,0,1-403.321,1858.371Z" transform="translate(413.134 -1712.009)" fill="rgba(0,0,0,0)" />
        <path d="M-453.452,1996.83h-3.239a111.436,111.436,0,0,1-.821-23.784,124.075,124.075,0,0,1,4.028-23.611c-2.3-1.021-4.779-3.709-5.767-4.988a17.5,17.5,0,0,1-3.429-8.524,24.619,24.619,0,0,1,.627-9.252,38.714,38.714,0,0,1,5.772-12.389,32.731,32.731,0,0,1,5.108-10.118c.595-.821,5.112,3.558,4.069,5,.128,4.24,3.926,16.633,3.471,22.772a180.022,180.022,0,0,1-6.521,17.267l-.063-.035-.027.027a1.792,1.792,0,0,1-.131.126c-.707,2.415-1.344,4.774-1.894,7.01a90.963,90.963,0,0,0-2.594,20.526,127.31,127.31,0,0,0,1.41,19.972Z" transform="translate(513 -1818.83)" fill="#bfe2e2" />
        <path d="M-453.452,1997.33h-3.671l-.062-.428a111.939,111.939,0,0,1-.825-23.891,124.484,124.484,0,0,1,3.936-23.305,19.957,19.957,0,0,1-5.572-4.953,17.988,17.988,0,0,1-3.529-8.764,25.123,25.123,0,0,1,.638-9.443,39.159,39.159,0,0,1,5.8-12.481,33.262,33.262,0,0,1,5.16-10.195.759.759,0,0,1,.634-.308,4.3,4.3,0,0,1,2.165,1.285,9.636,9.636,0,0,1,1.952,2.472,2.155,2.155,0,0,1,.228,1.977,62.622,62.622,0,0,0,1.384,7.809c1.106,5.206,2.359,11.106,2.08,14.869l0,.053-.015.051c-1.05,3.588-2.758,8.087-4.006,11.229-.742,1.869-1.374,3.392-1.774,4.34-.783,1.86-.786,1.862-.93,1.965l-.094.067c-.68,2.335-1.294,4.612-1.825,6.773a90.467,90.467,0,0,0-2.58,20.414,126.818,126.818,0,0,0,1.405,19.893l.081.571Zm-2.8-1h2.23a126.806,126.806,0,0,1-1.335-19.48,91.455,91.455,0,0,1,2.608-20.637c.551-2.242,1.19-4.607,1.9-7.031l.043-.145.116-.1c.027-.023.059-.056.093-.091l.118-.121a179.47,179.47,0,0,0,6.357-16.88c.253-3.625-.978-9.42-2.065-14.535a58.781,58.781,0,0,1-1.411-8.132l-.005-.17.1-.138c.125-.173.056-.566-.184-1.052a8.58,8.58,0,0,0-1.735-2.212,4.749,4.749,0,0,0-1.43-1.028,32.141,32.141,0,0,0-4.943,9.84l-.022.077-.045.066a38.222,38.222,0,0,0-5.7,12.23,24.115,24.115,0,0,0-.616,9.063,17,17,0,0,0,3.329,8.285c.962,1.244,3.365,3.856,5.574,4.836l.392.174-.112.414a123.573,123.573,0,0,0-4.012,23.516A111.072,111.072,0,0,0-456.257,1996.33Z" transform="translate(513 -1818.83)" fill="rgba(0,0,0,0)" />
        <path d="M347,1H0A1,1,0,0,1-1,0,1,1,0,0,1,0-1H347a1,1,0,0,1,1,1A1,1,0,0,1,347,1Z" transform="translate(53.5 178.594)" fill="#5bb3b3" />
        <path d="M41,1H0A1,1,0,0,1-1,0,1,1,0,0,1,0-1H41a1,1,0,0,1,1,1A1,1,0,0,1,41,1Z" transform="translate(0.5 178.594)" fill="#5bb3b3" />
        <g transform="translate(906.223 943)">
            <path d="M29.309-1a30.317,30.317,0,0,1,11.8,58.236,30.317,30.317,0,0,1-23.6-55.854A30.12,30.12,0,0,1,29.309-1Zm0,58.618A28.317,28.317,0,0,0,40.328,3.224,28.317,28.317,0,0,0,18.29,55.394,28.131,28.131,0,0,0,29.309,57.618Z" transform="translate(-585.13 -923.9)" fill="#5bb3b3" />
            <path d="M356.179,42.051a2.642,2.642,0,1,1,2.642-2.642A2.645,2.645,0,0,1,356.179,42.051Zm0-3.284a.642.642,0,1,0,.642.642A.643.643,0,0,0,356.179,38.767Z" transform="translate(-912 -934)" fill="#5bb3b3" />
            <path d="M39.312-1A40.856,40.856,0,0,1,55,2.094a40.241,40.241,0,0,1,12.813,8.44,39.24,39.24,0,0,1,8.644,12.527,38.72,38.72,0,0,1,0,30.7,39.24,39.24,0,0,1-8.644,12.527A40.241,40.241,0,0,1,55,74.724a41.3,41.3,0,0,1-31.368,0,40.241,40.241,0,0,1-12.813-8.44A39.24,39.24,0,0,1,2.172,53.757a38.72,38.72,0,0,1,0-30.7,39.24,39.24,0,0,1,8.644-12.527,40.241,40.241,0,0,1,12.813-8.44A40.856,40.856,0,0,1,39.312-1Zm0,76.818a38.866,38.866,0,0,0,14.92-2.943,38.249,38.249,0,0,0,12.179-8.022,37.25,37.25,0,0,0,8.206-11.891,36.72,36.72,0,0,0,0-29.106,37.249,37.249,0,0,0-8.206-11.891A38.249,38.249,0,0,0,54.232,3.943a39.3,39.3,0,0,0-29.84,0,38.249,38.249,0,0,0-12.179,8.022A37.249,37.249,0,0,0,4.007,23.856a36.72,36.72,0,0,0,0,29.106,37.25,37.25,0,0,0,8.206,11.891,38.249,38.249,0,0,0,12.179,8.022A38.866,38.866,0,0,0,39.312,75.818Z" transform="translate(-595.133 -933)" fill="#5bb3b3" />
            <path d="M356.532,40.409a1,1,0,0,1-1-1l.025-24.582a1,1,0,0,1,1-1h0a1,1,0,0,1,1,1l-.024,23.306,14.217-3.481a1,1,0,1,1,.476,1.943L356.77,40.381A1,1,0,0,1,356.532,40.409Z" transform="translate(-912 -934)" fill="#5bb3b3" />
            <path d="M7.712,1H0A1,1,0,0,1-1,0,1,1,0,0,1,0-1H7.712a1,1,0,0,1,1,1A1,1,0,0,1,7.712,1Z" transform="translate(-593.725 -894.732)" fill="#5bb3b3" />
            <path d="M0,8.712a1,1,0,0,1-1-1V0A1,1,0,0,1,0-1,1,1,0,0,1,1,0V7.712A1,1,0,0,1,0,8.712Z" transform="translate(-555.54 -932.916)" fill="#5bb3b3" />
            <path d="M0,8.712a1,1,0,0,1-1-1V0A1,1,0,0,1,0-1,1,1,0,0,1,1,0V7.712A1,1,0,0,1,0,8.712Z" transform="translate(-555.54 -864.259)" fill="#5bb3b3" />
            <path d="M7.712,1H0A1,1,0,0,1-1,0,1,1,0,0,1,0-1H7.712a1,1,0,0,1,1,1A1,1,0,0,1,7.712,1Z" transform="translate(-593.725 -894.732)" fill="#5bb3b3" />
            <path d="M7.712,1H0A1,1,0,0,1-1,0,1,1,0,0,1,0-1H7.712a1,1,0,0,1,1,1A1,1,0,0,1,7.712,1Z" transform="translate(-525.068 -894.732)" fill="#5bb3b3" />
        </g>
        <path d="M400,1H0A1,1,0,0,1-1,0,1,1,0,0,1,0-1H400a1,1,0,0,1,1,1A1,1,0,0,1,400,1Z" transform="translate(0 281.594)" fill="#5bb3b3" />
        <path d="M400,1H0A1,1,0,0,1-1,0,1,1,0,0,1,0-1H400a1,1,0,0,1,1,1A1,1,0,0,1,400,1Z" transform="translate(0 295.698)" fill="#5bb3b3" />
        <g transform="translate(3 34)">
            <g transform="translate(-3)">
                <path d="M57.618,51.452a1,1,0,0,1-.987-.837l-5.9-35.629a1,1,0,0,1,.489-1.031l6.069-3.484a1,1,0,0,1,1.287.254L82.169,41.071a1,1,0,0,1-.443,1.552L57.964,51.39A1,1,0,0,1,57.618,51.452Zm-4.8-36.107L58.407,49.1,79.751,41.22,57.534,12.639Z" transform="translate(14 42)" fill="#5bb3b3" />
                <path d="M0,7.049a1,1,0,0,1-.939-.656A1,1,0,0,1-.345,5.11L17.041-1.273a1,1,0,0,1,1.283.594A1,1,0,0,1,17.73.6L.345,6.988A1,1,0,0,1,0,7.049Z" transform="translate(69.437 73.445)" fill="#5bb3b3" />
            </g>
            <path d="M32.638,122.608a1,1,0,0,1-.994-.906c-.636-6.753-2.635-24.033-7.458-38.609A110.921,110.921,0,0,0,17.606,68.4c-3.635-7.2-7.392-14.641-9.344-23.226A51.124,51.124,0,0,1,10.2,15.824C13.012,7.957,17.313,2.964,22.983.983,28.18-.834,34.466-.139,41.665,3.048a66.43,66.43,0,0,1,13.348,8.16,1,1,0,1,1-1.232,1.575A64.377,64.377,0,0,0,40.856,4.877C34.136,1.9,28.345,1.228,23.643,2.871,18.571,4.643,14.682,9.227,12.083,16.5A52.165,52.165,0,0,0,9.006,31.517a48.339,48.339,0,0,0,1.207,13.215c1.9,8.346,5.6,15.677,9.179,22.766a112.351,112.351,0,0,1,6.694,14.967c4.887,14.77,6.908,32.229,7.55,39.049a1,1,0,0,1-.9,1.089C32.7,122.607,32.669,122.608,32.638,122.608Z" transform="translate(13 42)" fill="#5bb3b3" />
            <path d="M37.058,120.567a1,1,0,0,1,1,.944l2.583,46.009a1,1,0,0,1-.409.864,12.823,12.823,0,0,1-6.925,2.212,10.1,10.1,0,0,1-6.329-2.231,1,1,0,0,1-.385-.818c.1-3.563,1.979-45.15,2-45.57a1,1,0,0,1,.938-.953L37,120.569Zm1.552,46.485-2.494-44.426-5.568.339c-.265,5.88-1.74,38.689-1.938,44.119a8.055,8.055,0,0,0,4.7,1.511A10.765,10.765,0,0,0,38.61,167.052Z" transform="translate(14 42)" fill="#5bb3b3" />
            <path d="M33.616,177.721a104.545,104.545,0,0,1-23.3-2.321,28.687,28.687,0,0,1-7.25-2.592C1.033,171.651,0,170.333,0,168.889c0-2.388,2.8-4.4,8.316-5.985A87.672,87.672,0,0,1,27.458,160.2a1,1,0,0,1,.091,2,85.675,85.675,0,0,0-18.681,2.633C3.8,166.279,2,167.878,2,168.889c0,1.133,2.3,3.009,8.787,4.566a102.527,102.527,0,0,0,22.829,2.266,102.534,102.534,0,0,0,22.83-2.266c6.486-1.557,8.787-3.433,8.787-4.566,0-.544-.494-1.2-1.392-1.836a17.847,17.847,0,0,0-4.9-2.195,74.144,74.144,0,0,0-18.731-2.564,1,1,0,1,1,.056-2,75.029,75.029,0,0,1,19.266,2.652c5.037,1.557,7.7,3.612,7.7,5.942,0,1.444-1.033,2.762-3.069,3.918a28.687,28.687,0,0,1-7.25,2.592A104.551,104.551,0,0,1,33.616,177.721Z" transform="translate(14 42)" fill="#5bb3b3" />
            <path d="M33.616,189.144a104.526,104.526,0,0,1-23.3-2.322,28.687,28.687,0,0,1-7.25-2.593C1.033,183.073,0,181.755,0,180.311V168.889a1,1,0,0,1,2,0v11.422c0,1.133,2.3,3.009,8.787,4.566a102.509,102.509,0,0,0,22.829,2.267,102.516,102.516,0,0,0,22.83-2.267c6.486-1.558,8.787-3.433,8.787-4.566V168.889a1,1,0,0,1,2,0v11.422c0,1.444-1.033,2.762-3.069,3.919a28.687,28.687,0,0,1-7.25,2.593A104.533,104.533,0,0,1,33.616,189.144Z" transform="translate(14 42)" fill="#5bb3b3" />
            <path d="M31.84,118.567a1,1,0,0,1-.994-.906c-1.531-16.241-4.024-29.909-7.21-39.525a75.245,75.245,0,0,0-5.2-11.99c-.477-.944-.962-1.89-1.476-2.891-3.39-6.608-7.233-14.1-9.349-22.435a46.012,46.012,0,0,1,1.078-27.64,25.116,25.116,0,0,1,4.6-8.49A15.533,15.533,0,0,1,20.037.381a16.258,16.258,0,0,1,7.631-.715,30.646,30.646,0,0,1,7.7,2.1A52.633,52.633,0,0,1,47.224,8.638a1,1,0,1,1-1.232,1.576,50.505,50.505,0,0,0-11.375-6.59,28.663,28.663,0,0,0-7.192-1.973,14.286,14.286,0,0,0-6.7.609l-.017.006a13.445,13.445,0,0,0-5.927,3.758,23.258,23.258,0,0,0-4.209,7.829C3.7,33.04,12.038,49.287,18.735,62.341c.515,1,1,1.953,1.482,2.9a76.805,76.805,0,0,1,5.317,12.264c3.232,9.757,5.757,23.578,7.3,39.966a1,1,0,0,1-.9,1.089C31.9,118.566,31.871,118.567,31.84,118.567Z" transform="translate(17.502 46)" fill="#5bb3b3" />
        </g>
        <g transform="translate(0 13)">
            <path d="M136.552,236.18V231.8l18.826-15.281h87.515L261.719,231.8v4Z" transform="translate(0 6.047)" fill="#9aa2b0" />
            <path d="M136.552,236.18V231.8l18.826-15.281h87.515L261.719,231.8v4Z" transform="translate(0 6.047)" fill="#7a8293" />
            <path d="M136.552,237.68a1.5,1.5,0,0,1-1.5-1.5V231.8a1.5,1.5,0,0,1,.555-1.165l18.826-15.281a1.5,1.5,0,0,1,.945-.335h87.515a1.5,1.5,0,0,1,.945.335l18.826,15.281a1.5,1.5,0,0,1,.555,1.165v4a1.5,1.5,0,0,1-1.5,1.5l-125.167.378Zm1.5-5.166v2.161l122.167-.369v-1.792l-17.858-14.5H155.91Z" transform="translate(0 6.047)" fill="#7a8293" />
            <path d="M183.04,186.313l-3.968,30.556h40.2l-2.975-30.556Z" transform="translate(0 2.9)" fill="#7a8293" />
            <path d="M111.361,64.163H287.4a4.614,4.614,0,0,1,4.614,4.614V184.458a4.614,4.614,0,0,1-4.614,4.614H111.361a4.614,4.614,0,0,1-4.614-4.614V68.777a4.614,4.614,0,0,1,4.614-4.614" transform="translate(0.253 3.047)" fill="#313e58" />
            <rect width="165.387" height="94.057" transform="translate(117 77)" fill="#9183d8" />
            <path d="M199.38,173.242a4.339,4.339,0,1,1-4.339,4.338,4.338,4.338,0,0,1,4.339-4.338" transform="translate(0 3.047)" fill="#fff" />
            <path d="M136.552,231.222l18.826-19.657h87.515l18.826,19.283Z" transform="translate(0 6.047)" fill="#d1d5db" />
            <path d="M136.552,232.722a1.5,1.5,0,0,1-1.083-2.538l18.826-19.657a1.5,1.5,0,0,1,1.083-.462h87.515a1.5,1.5,0,0,1,1.073.452L262.792,229.8a1.5,1.5,0,0,1-1.069,2.548l-125.167.374Zm19.466-19.657-15.943,16.646,118.093-.353-15.907-16.294Z" transform="translate(0 6.047)" fill="#d1d5db" />
            <path d="M4.1,1.5H0A1.5,1.5,0,0,1-1.5,0,1.5,1.5,0,0,1,0-1.5H4.1A1.5,1.5,0,0,1,5.6,0,1.5,1.5,0,0,1,4.1,1.5Z" transform="translate(158.122 223.759)" fill="#313e58" />
            <path d="M4.1,1.5H0A1.5,1.5,0,0,1-1.5,0,1.5,1.5,0,0,1,0-1.5H4.1A1.5,1.5,0,0,1,5.6,0,1.5,1.5,0,0,1,4.1,1.5Z" transform="translate(169.344 223.759)" fill="#313e58" />
            <path d="M4.1,1.5H0A1.5,1.5,0,0,1-1.5,0,1.5,1.5,0,0,1,0-1.5H4.1A1.5,1.5,0,0,1,5.6,0,1.5,1.5,0,0,1,4.1,1.5Z" transform="translate(180.567 223.759)" fill="#313e58" />
            <path d="M4.1,1.5H0A1.5,1.5,0,0,1-1.5,0,1.5,1.5,0,0,1,0-1.5H4.1A1.5,1.5,0,0,1,5.6,0,1.5,1.5,0,0,1,4.1,1.5Z" transform="translate(152.078 230.414)" fill="#313e58" />
            <path d="M4.1,1.5H0A1.5,1.5,0,0,1-1.5,0,1.5,1.5,0,0,1,0-1.5H4.1A1.5,1.5,0,0,1,5.6,0,1.5,1.5,0,0,1,4.1,1.5Z" transform="translate(163.829 230.414)" fill="#313e58" />
            <path d="M4.1,1.5H0A1.5,1.5,0,0,1-1.5,0,1.5,1.5,0,0,1,0-1.5H4.1A1.5,1.5,0,0,1,5.6,0,1.5,1.5,0,0,1,4.1,1.5Z" transform="translate(175.052 230.414)" fill="#313e58" />
            <path d="M4.1,1.5H0A1.5,1.5,0,0,1-1.5,0,1.5,1.5,0,0,1,0-1.5H4.1A1.5,1.5,0,0,1,5.6,0,1.5,1.5,0,0,1,4.1,1.5Z" transform="translate(219.642 230.5)" fill="#313e58" />
            <path d="M4.1,1.5H0A1.5,1.5,0,0,1-1.5,0,1.5,1.5,0,0,1,0-1.5H4.1A1.5,1.5,0,0,1,5.6,0,1.5,1.5,0,0,1,4.1,1.5Z" transform="translate(231.394 230.5)" fill="#313e58" />
            <path d="M4.1,1.5H0A1.5,1.5,0,0,1-1.5,0,1.5,1.5,0,0,1,0-1.5H4.1A1.5,1.5,0,0,1,5.6,0,1.5,1.5,0,0,1,4.1,1.5Z" transform="translate(242.616 230.5)" fill="#313e58" />
            <path d="M25.533,1.5H0A1.5,1.5,0,0,1-1.5,0,1.5,1.5,0,0,1,0-1.5H25.533a1.5,1.5,0,0,1,1.5,1.5A1.5,1.5,0,0,1,25.533,1.5Z" transform="translate(186.274 230.5)" fill="#313e58" />
            <path d="M4.1,1.5H0A1.5,1.5,0,0,1-1.5,0,1.5,1.5,0,0,1,0-1.5H4.1A1.5,1.5,0,0,1,5.6,0,1.5,1.5,0,0,1,4.1,1.5Z" transform="translate(191.79 223.759)" fill="#313e58" />
            <path d="M4.1,1.5H0A1.5,1.5,0,0,1-1.5,0,1.5,1.5,0,0,1,0-1.5H4.1A1.5,1.5,0,0,1,5.6,0,1.5,1.5,0,0,1,4.1,1.5Z" transform="translate(203.012 223.759)" fill="#313e58" />
            <path d="M4.1,1.5H0A1.5,1.5,0,0,1-1.5,0,1.5,1.5,0,0,1,0-1.5H4.1A1.5,1.5,0,0,1,5.6,0,1.5,1.5,0,0,1,4.1,1.5Z" transform="translate(214.235 223.5)" fill="#313e58" />
            <path d="M4.1,1.5H0A1.5,1.5,0,0,1-1.5,0,1.5,1.5,0,0,1,0-1.5H4.1A1.5,1.5,0,0,1,5.6,0,1.5,1.5,0,0,1,4.1,1.5Z" transform="translate(225.458 223.5)" fill="#313e58" />
            <path d="M4.1,1.5H0A1.5,1.5,0,0,1-1.5,0,1.5,1.5,0,0,1,0-1.5H4.1A1.5,1.5,0,0,1,5.6,0,1.5,1.5,0,0,1,4.1,1.5Z" transform="translate(236.681 223.5)" fill="#313e58" />
            <g transform="translate(-1.061 -4.067)">
                <path d="M40.478,19.391H73.052a8.248,8.248,0,0,1,8.172,8.274V43.277a8.249,8.249,0,0,1-8.172,8.275H55.106c.659,3.257,1.132,5.317,4.914,7.981-7.311-.694-8.575-4.013-11.391-7.981H40.478a8.248,8.248,0,0,1-8.172-8.275V27.665A8.248,8.248,0,0,1,40.478,19.391Z" transform="translate(165.391 99.713)" fill="#f1b981" />
                <path d="M76.053,19.391H41.08a8.8,8.8,0,0,0-8.774,8.774V44.721A8.8,8.8,0,0,0,41.08,53.5H57.766a15.739,15.739,0,0,1-6.56,10.054c7.85-.736,13.072-5.846,16.1-10.054h8.751a8.8,8.8,0,0,0,8.774-8.775V28.165A8.8,8.8,0,0,0,76.053,19.391Z" transform="translate(120.755 79.676)" fill="#ffe491" />
                <path d="M41.08,17.891H76.053A10.3,10.3,0,0,1,86.327,28.165V44.721A10.3,10.3,0,0,1,76.053,55H68.06c-3.249,4.3-8.682,9.294-16.714,10.047a1.5,1.5,0,0,1-1-2.725A14.064,14.064,0,0,0,55.821,55H41.08A10.3,10.3,0,0,1,30.806,44.721V28.165A10.3,10.3,0,0,1,41.08,17.891ZM76.053,52a7.3,7.3,0,0,0,7.274-7.275V28.165a7.3,7.3,0,0,0-7.274-7.274H41.08a7.3,7.3,0,0,0-7.274,7.274V44.721A7.3,7.3,0,0,0,41.08,52H57.766a1.5,1.5,0,0,1,1.469,1.8,18.076,18.076,0,0,1-2.208,5.737q-.4.661-.857,1.281a23.329,23.329,0,0,0,9.914-8.195A1.5,1.5,0,0,1,67.3,52Z" transform="translate(120.755 79.676)" fill="#313e58" />
                <path d="M105.207,80.824q-.064,0-.129-.006a21.379,21.379,0,0,1-14.641-8H85.843A10.3,10.3,0,0,1,75.569,62.546V53.461a1.5,1.5,0,0,1,3,0v9.085a7.3,7.3,0,0,0,7.274,7.275h5.308a1.5,1.5,0,0,1,1.177.571,20.147,20.147,0,0,0,7.806,6.151q-.069-.1-.137-.2a14.1,14.1,0,0,1-1.988-4.686,1.5,1.5,0,0,1,1.463-1.833H117.41a7.3,7.3,0,0,0,7.274-7.275V48.2a7.3,7.3,0,0,0-7.274-7.274H85.843a7.33,7.33,0,0,0-.741.037,1.5,1.5,0,0,1-.3-2.984,10.339,10.339,0,0,1,1.045-.053H117.41A10.3,10.3,0,0,1,127.684,48.2V62.546A10.3,10.3,0,0,1,117.41,72.821h-15.9a11.2,11.2,0,0,0,4.5,5.237,1.5,1.5,0,0,1-.8,2.766Z" transform="translate(120.755 79.676)" fill="#313e58" />
                <path d="M33.833,1.5H0A1.5,1.5,0,0,1-1.5,0,1.5,1.5,0,0,1,0-1.5H33.833a1.5,1.5,0,0,1,1.5,1.5A1.5,1.5,0,0,1,33.833,1.5Z" transform="translate(161.395 111.263)" fill="#313e58" />
                <path d="M22.059,1.5H0A1.5,1.5,0,0,1-1.5,0,1.5,1.5,0,0,1,0-1.5H22.059a1.5,1.5,0,0,1,1.5,1.5A1.5,1.5,0,0,1,22.059,1.5Z" transform="translate(161.395 119.839)" fill="#313e58" />
                <path d="M23.334,1.5H0A1.5,1.5,0,0,1-1.5,0,1.5,1.5,0,0,1,0-1.5H23.334a1.5,1.5,0,0,1,1.5,1.5A1.5,1.5,0,0,1,23.334,1.5Z" transform="translate(211.852 130.209)" fill="#313e58" />
                <path d="M11.951,1.5H0A1.5,1.5,0,0,1-1.5,0,1.5,1.5,0,0,1,0-1.5H11.951a1.5,1.5,0,0,1,1.5,1.5A1.5,1.5,0,0,1,11.951,1.5Z" transform="translate(211.852 138.785)" fill="#313e58" />
                <path d="M105.207,80.824q-.064,0-.129-.006a21.379,21.379,0,0,1-14.641-8H85.843A10.3,10.3,0,0,1,75.569,62.546V53.461a1.5,1.5,0,0,1,3,0v9.085a7.3,7.3,0,0,0,7.274,7.275h5.308a1.5,1.5,0,0,1,1.177.571,20.147,20.147,0,0,0,7.806,6.151q-.069-.1-.137-.2a14.1,14.1,0,0,1-1.988-4.686,1.5,1.5,0,0,1,1.463-1.833H117.41a7.3,7.3,0,0,0,7.274-7.275V48.2a7.3,7.3,0,0,0-7.274-7.274H85.8a1.5,1.5,0,1,1-.041-3.009,1.979,1.979,0,0,1,.325.009H117.41A10.3,10.3,0,0,1,127.684,48.2V62.546A10.3,10.3,0,0,1,117.41,72.821h-15.9a11.2,11.2,0,0,0,4.5,5.237,1.5,1.5,0,0,1-.8,2.766Z" transform="translate(120.431 80.072)" fill="#313e58" />
            </g>
        </g>
        <g transform="translate(298.264 109.93)">
            <g clip-path="url(#a)">
                <path d="M94.844,73.334c0,11.949-7.877,21.727-17.5,21.727h-28.9c-9.626,0-17.5-9.778-17.5-21.727V35.706h63.91Z" transform="translate(29.078 23.123)" fill="#c0e2e2" />
                <path d="M108.929,68.3a1.659,1.659,0,0,0,1.606-1.232,49.914,49.914,0,0,0-4.282-36c-1.387-2.578-3.656-6.254-7.318-8.418C94.3,19.91,88.666,20.221,83.694,20.493l-.382.021c-10.917.595-26.519.27-35.827-9.365a1.67,1.67,0,0,0-2.348-.049,1.637,1.637,0,0,0-.048,2.33C55.339,24.045,71.916,24.436,83.494,23.8l.384-.021c4.719-.259,9.595-.529,13.358,1.7,2.245,1.325,4.179,3.593,6.087,7.137a46.609,46.609,0,0,1,4,33.621,1.647,1.647,0,0,0,1.188,2.01,1.691,1.691,0,0,0,.42.054" transform="translate(-10.949 6.892)" fill="#c0e1e2" />
                <path d="M79.053,92.009a1.647,1.647,0,0,0,.14-3.289c-6.467-.549-11.158-6.076-13.392-11.065-2.136-4.766-2.943-10.161-3.724-15.377-.179-1.193-.357-2.384-.55-3.57-1.043-6.391-2.75-13.663-7.515-19.138a34.657,34.657,0,0,0-7.434-6.116,25.514,25.514,0,0,0-6.139-3.094c-6-1.885-13.367-.054-19.225,4.781C16.078,39.382,12.5,45.262,9.336,50.45A1.642,1.642,0,0,0,9.9,52.712a1.668,1.668,0,0,0,2.28-.559c3.172-5.208,6.452-10.594,11.161-14.481,3.915-3.231,10.2-6.025,16.1-4.172a22.475,22.475,0,0,1,5.328,2.715A31.525,31.525,0,0,1,51.5,41.725c4.224,4.851,5.781,11.573,6.748,17.509.191,1.171.367,2.349.543,3.529.814,5.434,1.656,11.054,3.973,16.23C65.384,84.842,71,91.334,78.91,92a1.407,1.407,0,0,0,.143.007" transform="translate(79.477 19.188)" fill="#c0e1e2" />
                <path d="M39.881,76.95a1.664,1.664,0,0,0,1.555-1.068,170.388,170.388,0,0,0,9.925-40.626c.352-3.013,1.131-7.108,3.817-7.843A7.945,7.945,0,0,1,57.1,27.24c.463-.007.93-.016,1.392-.056a10.3,10.3,0,0,0,7.064-3.941,10.146,10.146,0,0,0,2.224-7.734,1.667,1.667,0,0,0-1.885-1.389,1.65,1.65,0,0,0-1.4,1.87A6.865,6.865,0,0,1,62.947,21.2,6.976,6.976,0,0,1,58.2,23.9c-.382.033-.766.038-1.151.043a10.8,10.8,0,0,0-2.757.292c-5.15,1.412-5.934,8.116-6.23,10.64a167.119,167.119,0,0,1-9.734,39.844,1.646,1.646,0,0,0,.97,2.124,1.693,1.693,0,0,0,.585.105" transform="translate(43.944 9.133)" fill="#c0e1e2" />
                <path d="M56.244,4.444c-5.22-1.188-11.467,2.679-13.132,9.146s6.456,16.782,6.456,16.782S61.68,25.184,63.346,18.717s-1.882-13.085-7.1-14.273" transform="translate(40.311 2.74)" fill="#c0e2e2" />
                <path d="M43.407,7.143c-3.074-2-8.027-.989-10.653,2.781s.121,12.331.121,12.331,9.045-.473,11.673-4.243,1.933-8.869-1.141-10.869" transform="translate(76.617 3.975)" fill="#c0e2e2" />
                <path d="M52.821,28.231C54,24.778,51.773,20.275,47.435,18.7s-12,3.21-12,3.21,2.732,8.567,7.069,10.146,9.14-.369,10.321-3.822" transform="translate(63.316 11.902)" fill="#c0e2e2" />
                <path d="M63.656,2.618c-4.8,1.053-8.45,6.7-7.265,12.716s12.016,11.4,12.016,11.4,7.99-9.035,6.8-15.051S68.457,1.565,63.656,2.618" transform="translate(6.683 1.589)" fill="#c0e2e2" />
                <path d="M80.171,2.574C75.588,1.823,70.39,5.5,69.3,11.189s6.5,14.181,6.5,14.181S86,20.235,87.09,14.549,84.753,3.325,80.171,2.574" transform="translate(-26.912 1.604)" fill="#c0e2e2" />
                <path d="M87.6.1c-3.931.758-7.02,5.284-6.18,10.205s9.545,9.528,9.545,9.528,6.693-7.192,5.855-12.113S91.531-.652,87.6.1" transform="translate(-56.59 0)" fill="#c0e2e2" />
                <path d="M39.014,19.28c-4.25-3.233-11.553-2.29-15.777,2.908s-1.156,17.924-1.156,17.924,13.191.273,17.414-4.921,3.769-12.677-.482-15.911" transform="translate(97.969 11.273)" fill="#c0e2e2" />
                <path d="M32.541,31.868c-3.1-4.328-10.364-5.557-15.939-1.822s-6.418,16.8-6.418,16.8,12.528,4.107,18.1.372S35.645,36.2,32.541,31.868" transform="translate(124.328 18.02)" fill="#c0e2e2" />
                <path d="M30.285,49.616c-.618-4.528-5.647-8.345-11.4-7.716S7.227,52.139,7.227,52.139s7.877,8.1,13.629,7.472,10.047-5.467,9.429-9.994" transform="translate(132.951 27.09)" fill="#c0e2e2" />
                <path d="M22.818,55.233c-2.576-3.188-8.2-3.814-12.319-.7s-4.18,13.177-4.18,13.177,9.8,2.607,13.915-.5,5.16-8.782,2.584-11.97" transform="translate(140.586 33.994)" fill="#c0e2e2" />
                <path d="M16.5,60.786c-2.576-3.188-8.2-3.814-12.319-.7S0,73.26,0,73.26s9.8,2.606,13.915-.506,5.16-8.78,2.584-11.968" transform="translate(157.4 37.59)" fill="#c0e2e2" />
                <path d="M54.579,199.233a1.655,1.655,0,0,0,.8-.2C88.635,180.89,82.6,146.98,76.758,114.184c-4.712-26.459-9.585-53.819,6.8-72,7.469-8.284,25.616-11.953,35.363-4.271,4.7,3.71,4.91,8.881.6,14.95a1.639,1.639,0,0,0,.4,2.3,1.666,1.666,0,0,0,2.314-.4c5.336-7.513,4.881-14.593-1.247-19.427-9.394-7.409-29.653-6.719-39.9,4.653-17.464,19.372-12.448,47.533-7.6,74.769,5.9,33.108,11.463,64.381-19.708,81.383a1.637,1.637,0,0,0-.656,2.236,1.66,1.66,0,0,0,1.457.855" transform="translate(-38.522 19.737)" fill="#c0e1e2" />
                <path d="M85.919,59c.133,5.31,5.456,10.358,12.184,10.358S112.9,59,112.9,59,104.831,48.643,98.1,48.643,85.79,53.691,85.919,59" transform="translate(-80.294 31.501)" fill="#c0e1e2" />
                <path d="M86.924,82.466c3.355,4.14,10.674,4.946,16.021.893s5.414-17.14,5.414-17.14-12.749-3.374-18.1.679-6.695,11.428-3.34,15.568" transform="translate(-74.393 42.03)" fill="#c0e1e2" />
                <path d="M85.886,99.122c4.141,3.369,11.47,2.666,15.865-2.389S103.5,78.855,103.5,78.855,90.327,78.15,85.932,83.2s-4.187,12.548-.047,15.917" transform="translate(-66.357 51.044)" fill="#c0e1e2" />
                <path d="M82.719,111.031c3.171,3.666,9.844,4.187,14.584.349s4.418-15.731,4.418-15.731-11.684-2.7-16.423,1.138-5.75,10.578-2.579,14.243" transform="translate(-60.774 61.345)" fill="#c0e1e2" />
                <path d="M81.221,116.695c.37,4.127,4.77,7.793,10.008,7.459s10.992-8.8,10.992-8.8-6.8-7.663-12.04-7.328-9.331,4.542-8.96,8.67" transform="translate(-61.781 69.949)" fill="#c0e1e2" />
                <path d="M87.2,123.413c-.988,4.027,1.988,8.9,7.055,10.256s13.264-4.822,13.264-4.822-3.955-9.428-9.022-10.782-10.309,1.321-11.3,5.348" transform="translate(-76.73 76.227)" fill="#c0e1e2" />
                <path d="M95.411,131.684c-.824,3.356,1.658,7.421,5.881,8.549s11.056-4.02,11.056-4.02-3.3-7.857-7.52-8.988-8.593,1.1-9.417,4.458" transform="translate(-95.253 82.198)" fill="#c0e1e2" />
                <path d="M55.291,118.447c2.921,2.7,8.411,2.518,11.918-1.04s2.149-13.224,2.149-13.224-9.771-1.138-13.28,2.42-3.709,9.142-.787,11.843" transform="translate(17.226 67.357)" fill="#c0e2e2" />
                <path d="M78.309,197.644a1.631,1.631,0,0,0,.6-.114c9-3.5,12.767-14.069,11.834-22.707-.977-9.037-6.032-17.234-10.095-23.821l-.747-1.208C64.526,124.871,48.621,99.1,47.234,70.358c-.815-16.86,4.785-31.1,14.981-38.106C70,26.909,80.583,26.466,87.383,31.2A16.547,16.547,0,0,1,94.1,43.014,13.24,13.24,0,0,1,90.837,53.7a1.642,1.642,0,0,0,.076,2.33,1.671,1.671,0,0,0,2.348-.077A16.469,16.469,0,0,0,97.4,42.675,19.888,19.888,0,0,0,89.293,28.5c-8.027-5.587-19.937-5.16-28.969,1.04C49.179,37.195,43.046,52.512,43.916,70.516c1.428,29.586,17.557,55.723,33.158,81l.746,1.209c4.946,8.017,8.794,14.761,9.626,22.45.8,7.394-2.29,16.394-9.743,19.288a1.644,1.644,0,0,0-.942,2.134,1.662,1.662,0,0,0,1.548,1.048" transform="translate(4.985 15.922)" fill="#c0e2e2" />
                <path d="M72.748,90.143c3.646,3.892,11,4.173,16.044-.249s4.16-17.481,4.16-17.481-12.96-2.458-18,1.964S69.1,86.251,72.748,90.143" transform="translate(-34.795 46.453)" fill="#c0e2e2" />
                <path d="M74.089,46.234c-.322,5.3,4.551,10.78,11.254,11.345s15.625-9.08,15.625-9.08-7.152-11-13.857-11.563-12.7,3.994-13.023,9.3" transform="translate(-48.696 23.889)" fill="#c0e2e2" />
                <path d="M66.776,101.15c3.353,3.579,10.121,3.839,14.755-.229s3.828-16.079,3.828-16.079-11.92-2.261-16.554,1.807-5.383,10.922-2.03,14.5" transform="translate(-17.579 54.537)" fill="#c0e2e2" />
                <path d="M62.246,111.314c3.626,2.213,9.322.878,12.236-3.57s-.556-14.267-.556-14.267-10.452.849-13.365,5.3-1.94,10.327,1.686,12.54" transform="translate(1.91 60.535)" fill="#c0e2e2" />
                <path d="M48.864,122.9c.623,3.145,4.307,5.612,8.309,4.931s7.736-7.655,7.736-7.655-5.86-5.348-9.862-4.669-6.806,4.247-6.183,7.393" transform="translate(29.378 74.761)" fill="#c0e2e2" />
                <path d="M52.885,131.323c.623,3.145,4.307,5.612,8.309,4.931S68.93,128.6,68.93,128.6s-5.86-5.348-9.862-4.669-6.806,4.247-6.183,7.393" transform="translate(18.679 80.218)" fill="#c0e2e2" />
            </g>
        </g>
    </g>
</svg>