<svg xmlns="http://www.w3.org/2000/svg" xmlns:xlink="http://www.w3.org/1999/xlink" width="400" height="320" viewBox="0 0 400 320">
    <defs>
        <clipPath>
            <rect width="99.532" height="152.182" fill="none" stroke="#5bb3b3" stroke-width="2" />
        </clipPath>
        <clipPath>
            <rect width="80.859" height="80.869" fill="#313e58" />
        </clipPath>
        <clipPath>
            <rect width="81.986" height="150.091" fill="#bfe2e2" />
        </clipPath>
        <clipPath>
            <path d="M35.89,26.4v62.54a2.428,2.428,0,1,0,4.857,0V26.4a2.428,2.428,0,1,0-4.857,0" transform="translate(-35.89 -23.97)" fill="#bfe2e2" />
        </clipPath>
        <clipPath>
            <rect width="400" height="320" />
        </clipPath>
    </defs>
    <g clip-path="url(#g)">
        <rect width="400" height="320" fill="transparent" />
        <g transform="translate(16 24)">
            <path d="M1943.742,2850.457h0l-12.245,0a39.052,39.052,0,0,1-4.446-5.811,10.013,10.013,0,0,1-1.728-5.579c.111-1.993.761-2.921,2.047-2.921a8.853,8.853,0,0,1,2.813.754,8.847,8.847,0,0,0,2.826.758,2.148,2.148,0,0,0,.4-.034l-2.116-1.7-1.668-1.344-.394-.316-1.6-1.285-1.653-1.331-1.816-1.462-.65-.525-.168-.135c-1.1-.884-2.26-1.818-3.652-2.941a70.531,70.531,0,0,1-8.064-7.252,24.649,24.649,0,0,1-5.574-9.232,16.381,16.381,0,0,1,1.822-13.291,8.566,8.566,0,0,1,6.339-4.135,95.555,95.555,0,0,1-12.7-9.3A99.538,99.538,0,0,1,1890.349,2772a23.064,23.064,0,0,1-.073-6.9,8.342,8.342,0,0,1,1.708-4.01c2.056-2.444,5.408-2.562,8.1-2.658a13.366,13.366,0,0,0,3.2-.341,61.525,61.525,0,0,1-10.31-6.836,64.548,64.548,0,0,1-8.908-8.862,31.984,31.984,0,0,1-4.026-5.957,16.079,16.079,0,0,1-1.866-6.894,10.9,10.9,0,0,1,2.937-7.651,6.315,6.315,0,0,1,4.525-2.1c.161,0,.32.007.471.02a70.508,70.508,0,0,1-10.322-12.963c-3.119-5.4-4.29-10.453-3.582-15.445a121.806,121.806,0,0,0,10.931,15.12c3.333,3.894,6.38,6.883,9.326,9.774l.028.028.015.013.018.019a98.684,98.684,0,0,1,10.723,11.766,96.936,96.936,0,0,1,10.979,19.528l11.1,24.342c3.732,8.491,7.338,20.347,10.72,35.237l.163.724.1.462.006.029a26.129,26.129,0,0,1,4.665-7.232c-.286-.5-.554-1-.8-1.467a7.629,7.629,0,0,1-3.865-2.448,11.469,11.469,0,0,1-2.293-4.073,11.28,11.28,0,0,1-.5-4.755c.776-6.59,6.1-11.075,9.2-13.161a11.664,11.664,0,0,1-6.762-6.943,22.767,22.767,0,0,1-.884-11.144,36.535,36.535,0,0,1,2.613-9.338c-.06-.223-.122-.447-.185-.666-.016-.055-.032-.111-.047-.166l-.028-.1-.014-.046-.047-.167-.03-.105-.086-.3a19.672,19.672,0,0,1-8.214-2.628,14.55,14.55,0,0,1-7.111-12.227,12.068,12.068,0,0,1,1.412-6.052,63.573,63.573,0,0,1-14.155-4.954,92.96,92.96,0,0,1-11.155-7.128l-.012-.008-.027-.018-.015-.011c-1.787-1.256-3.81-2.678-6.188-4.294a40.147,40.147,0,0,1,10.3-1.386,38.3,38.3,0,0,1,16.668,3.892A54.023,54.023,0,0,1,1933.222,2722c1.411,1.4,2.817,2.912,4.18,4.505a5.14,5.14,0,0,1,1.166-.126,9.773,9.773,0,0,1,2.438.358,19.1,19.1,0,0,1-8.227-7.112c-1.722-2.788-2.747-6.1-4.046-10.3l-.005-.017-.01-.035,0-.012,0-.009,0-.015c-.448-1.449-1-3.254-1.648-5.178a88.378,88.378,0,0,1-3.557-14.719c-.692-4.795-.607-8.085.241-9.264a1.031,1.031,0,0,1,.852-.48,1.285,1.285,0,0,1,.345.052,14.3,14.3,0,0,1-4.812-3.785,38.708,38.708,0,0,1-4-5.531,63.51,63.51,0,0,1-3.742-7.155l0-.008v-.012c0-.066.017-6.768-.314-13.718-.557-11.722-1.654-15.406-2.475-16.433a81.862,81.862,0,0,1,9.661,12.349,116.826,116.826,0,0,1,7.727,14.209,219.639,219.639,0,0,1,11.254,31.394c4.729,16.386,8.979,33.667,12.632,51.365a32.149,32.149,0,0,0-11.129,5.158l10.167,14.119,10.707,14.872v.008c.017.106.033.211.049.317l-8.988-11.957a8.685,8.685,0,0,0-2.2,5.207,10.346,10.346,0,0,0,1.4,5.994,9.815,9.815,0,0,0,8.339,5.1,8,8,0,0,0,2.013-.256c.218,1.807.4,3.623.554,5.55a274.258,274.258,0,0,1,.445,28.366c1.29,11.947,2.291,23.944,2.975,35.658h-16.62a29.122,29.122,0,0,1-.642-6.058c-.405-.622-.8-1.208-1.162-1.742-.445-.652-.943-1.368-1.564-2.255l-.013-.017-.008-.012-.006-.009c-1.292-1.849-2.625-3.758-3.822-5.737.867,5.251,1.668,10.578,2.38,15.832Zm27.619,0h-5.3c.125-8.117.329-16.5.493-23.244v-.091c.271-11.178.5-20.831.371-25.929v-.012c-.13-4.89-.277-10.433-.26-16.3l5.349,7.429,3.576,4.965a31.978,31.978,0,0,0,11.371-14.881,26.518,26.518,0,0,1,5.884,8.662c1.337-3.584,2.675-6.9,3.974-9.855,1.388-3.158,2.868-6.4,4.4-9.647l7.08,18.826c-1.175.794-2.375,1.565-3.567,2.294a8.246,8.246,0,0,1,5.619,3.162l3.156,8.391a15.725,15.725,0,0,1-.615,5.874,24.642,24.642,0,0,1-5.574,9.232,70.671,70.671,0,0,1-8.064,7.252q-2.388,1.925-4.777,3.846l-.281.226-.228.184-1.185.955q-1.822,1.468-3.644,2.934l-3.6,2.9a2.253,2.253,0,0,0,.4.034,8.826,8.826,0,0,0,2.818-.754l.006,0a8.821,8.821,0,0,1,2.815-.755c1.286,0,1.937.928,2.048,2.921a10.021,10.021,0,0,1-1.728,5.579,39.027,39.027,0,0,1-4.447,5.811h-10.832c1.019-5.273,2.171-10.659,3.423-16.008a27.4,27.4,0,0,1-1.087,3.12,32.861,32.861,0,0,1-6.89,10.168c-.256.931-.494,1.847-.709,2.72Zm6.781-39.493h0l.041.138c1.4,4.582,3.135,10.283,2.906,16.622a29.02,29.02,0,0,1-.5,4.434c1.7-7.1,3.565-14.086,5.535-20.761a10.807,10.807,0,0,1-3.528.6,10.015,10.015,0,0,1-4.454-1.036Zm36.855-25.55h0l-8.933-23.782c4.222-8.385,8.858-16.984,14.175-26.292,6.465-11.314,13.33-22.573,17.932-30.056-3.623,2.042-7.368,3.928-11.131,5.608a131.2,131.2,0,0,1-22.209,7.622c2.051,3.693,3.661,6.777,4.18,10.013a11.915,11.915,0,0,1-.239,5.091,15.039,15.039,0,0,1-2.843,5.389c-1.241,1.577-2.36,3.14-3.347,4.519l0,.005-.005.008a54.911,54.911,0,0,1-6.423,7.886,28.478,28.478,0,0,1-7.553,5.215h-3.6a30.4,30.4,0,0,0-1.732-2.7,29.89,29.89,0,0,0-11.453-9.557c.725-2.251,1.552-4.468,2.455-6.589a65.7,65.7,0,0,1,10.218-16.58,67.966,67.966,0,0,1,14.2-12.7,66.323,66.323,0,0,1,16.85-8.133,60.217,60.217,0,0,1,18.174-2.865,55.74,55.74,0,0,1,8.829.7c1.51-2.437,2.983-4.811,4.224-6.81a20.579,20.579,0,0,1-.358,7.583c.49.118.953.235,1.374.346-.611.414-1.18.792-1.788,1.193a30.681,30.681,0,0,1-2.809,6.322,70.529,70.529,0,0,1-10.322,12.963c.171-.014.33-.02.471-.02a6.32,6.32,0,0,1,4.527,2.1,10.9,10.9,0,0,1,2.935,7.651c-.138,5.311-3.428,9.878-5.891,12.851a64.7,64.7,0,0,1-8.908,8.862,61.547,61.547,0,0,1-10.31,6.836,13.291,13.291,0,0,0,3.186.341c2.7.1,6.056.214,8.111,2.658a8.354,8.354,0,0,1,1.708,4.01,23.082,23.082,0,0,1-.073,6.9,99.618,99.618,0,0,1-11.174,11.371c-.8.692-1.616,1.377-2.432,2.038Zm-27.516-3.176c-.153,0-.306-.006-.456-.017a31.233,31.233,0,0,0,1.661-14.447,30.223,30.223,0,0,0-.733-3.843h4.9a15.294,15.294,0,0,1,2.673,6.865,11.258,11.258,0,0,1-.5,4.752,11.447,11.447,0,0,1-2.293,4.075A7.106,7.106,0,0,1,1987.481,2782.237Z" transform="translate(-1648.605 -2653.955)" fill="#bfe2e2" />
            <path d="M1944.319,2851.1l-.634-.144-12.413,0-.149-.168a39.5,39.5,0,0,1-4.5-5.887,10.483,10.483,0,0,1-1.8-5.862,4.737,4.737,0,0,1,.672-2.467,2.155,2.155,0,0,1,1.873-.927,9.158,9.158,0,0,1,2.991.787c.464.177.937.357,1.385.493l-8.708-7.011c-1.1-.882-2.257-1.816-3.653-2.942a70.922,70.922,0,0,1-8.12-7.3,25.133,25.133,0,0,1-5.681-9.419,16.906,16.906,0,0,1,1.882-13.718,9.41,9.41,0,0,1,5.384-4.122,96.3,96.3,0,0,1-11.654-8.655,100.044,100.044,0,0,1-11.231-11.43l-.092-.11-.02-.143a23.547,23.547,0,0,1-.07-7.053,8.829,8.829,0,0,1,1.818-4.246c2.2-2.613,5.673-2.736,8.465-2.835.617-.022,1.192-.043,1.708-.087a62.26,62.26,0,0,1-9.121-6.2,65.039,65.039,0,0,1-8.977-8.931,32.474,32.474,0,0,1-4.087-6.051,16.566,16.566,0,0,1-1.919-7.106,11.413,11.413,0,0,1,3.078-8.013,7,7,0,0,1,4.2-2.208,67.692,67.692,0,0,1-9.605-12.231c-3.177-5.5-4.369-10.658-3.644-15.765l.193-1.364.726,1.171a121.3,121.3,0,0,0,10.886,15.059c3.321,3.879,6.358,6.86,9.3,9.742l.068.067a99.032,99.032,0,0,1,10.766,11.817,97.416,97.416,0,0,1,11.035,19.625l11.1,24.345c3.726,8.479,7.326,20.289,10.7,35.108a26.833,26.833,0,0,1,3.889-5.754c-.184-.329-.36-.655-.526-.973a8.214,8.214,0,0,1-3.9-2.544,11.975,11.975,0,0,1-2.395-4.25,11.786,11.786,0,0,1-.526-4.967c.74-6.285,5.465-10.69,8.682-13a12.139,12.139,0,0,1-6.21-6.863,23.261,23.261,0,0,1-.912-11.392,37.064,37.064,0,0,1,2.58-9.307c-.045-.164-.091-.329-.137-.492-.016-.053-.032-.111-.048-.168l-.113-.4a20,20,0,0,1-8.085-2.66,15.051,15.051,0,0,1-7.351-12.645,12.812,12.812,0,0,1,1.178-5.728,62.771,62.771,0,0,1-13.648-4.842,93.289,93.289,0,0,1-11.215-7.164l-.064-.044c-1.782-1.252-3.8-2.672-6.172-4.283l-.906-.615,1.058-.281a40.643,40.643,0,0,1,10.428-1.4,38.8,38.8,0,0,1,16.884,3.941,54.519,54.519,0,0,1,14.6,10.57l.064.063a17.721,17.721,0,0,1-1.285-1.82c-1.755-2.842-2.789-6.185-4.1-10.417l-.027-.089c-.447-1.446-1-3.246-1.644-5.167a88.9,88.9,0,0,1-3.577-14.806c-.5-3.483-.854-7.981.33-9.627a1.962,1.962,0,0,1,.24-.275,17.012,17.012,0,0,1-3.823-3.313,39.216,39.216,0,0,1-4.054-5.6,64.031,64.031,0,0,1-3.772-7.213l-.047-.1v-.12c0-.068.016-6.775-.313-13.694-.58-12.2-1.731-15.351-2.366-16.144l.751-.659a82.359,82.359,0,0,1,9.72,12.424,117.321,117.321,0,0,1,7.76,14.271,220.105,220.105,0,0,1,11.281,31.465c4.733,16.4,8.986,33.694,12.641,51.4l.1.471-.467.115a31.623,31.623,0,0,0-10.548,4.789l20.649,28.677.027.162c.015.1.03.19.044.286l-.894.374-8.612-11.457a8.3,8.3,0,0,0-1.677,4.446,9.848,9.848,0,0,0,1.333,5.7,9.316,9.316,0,0,0,7.906,4.851,7.5,7.5,0,0,0,1.887-.24l.554-.144.068.568c.217,1.8.4,3.625.556,5.57a274.469,274.469,0,0,1,.447,28.386c1.223,11.333,2.187,22.711,2.866,33.849.126-7.551.312-15.191.464-21.421l0-.1c.271-11.171.5-20.818.371-25.9v-.018c-.13-4.892-.277-10.436-.26-16.312l0-1.542,9.531,13.238a31.459,31.459,0,0,0,10.791-14.354l.061-.166a30.732,30.732,0,0,0,1.634-14.214,29.722,29.722,0,0,0-.72-3.779l-.162-.625h5.808l.149.218a15.79,15.79,0,0,1,2.757,7.089,11.761,11.761,0,0,1-.526,4.965,11.948,11.948,0,0,1-2.4,4.253,7.76,7.76,0,0,1-5.114,2.762,27.163,27.163,0,0,1,4.825,7.014c1.193-3.148,2.387-6.081,3.553-8.736,1.389-3.161,2.872-6.411,4.406-9.659l.5-1.068,7.634,20.3-.327.221c-.815.551-1.645,1.093-2.478,1.618a9.029,9.029,0,0,1,4.636,3.106l.053.064,3.21,8.535.006.071a16.23,16.23,0,0,1-.636,6.063,25.129,25.129,0,0,1-5.681,9.419,71.079,71.079,0,0,1-8.12,7.3q-2.388,1.925-4.777,3.846l-1.694,1.364q-1.822,1.468-3.644,2.935l-2.247,1.809c.446-.135.914-.313,1.375-.489l.01,0a9.134,9.134,0,0,1,2.993-.788,2.156,2.156,0,0,1,1.874.926,4.738,4.738,0,0,1,.674,2.467,10.489,10.489,0,0,1-1.8,5.862,39.468,39.468,0,0,1-4.5,5.887l-.149.168h-11.663l.115-.595c.641-3.314,1.335-6.678,2.074-10.052a34.871,34.871,0,0,1-5.689,7.683c-.236.862-.457,1.71-.658,2.525v.439h-23.686l-.085-.394a29.575,29.575,0,0,1-.652-6.014c-.375-.573-.736-1.114-1.075-1.61-.44-.644-.935-1.358-1.558-2.246l-.034-.048c-.838-1.2-1.7-2.427-2.522-3.683.715,4.453,1.383,8.959,1.989,13.431v.01Zm-12.6-1.147,11.447,0c-.7-5.086-1.469-10.214-2.3-15.251l.921-.341c1.188,1.963,2.516,3.865,3.8,5.7l.03.042c.626.894,1.125,1.612,1.568,2.26.368.537.761,1.127,1.168,1.752l.081.124v.148a28.775,28.775,0,0,0,.548,5.559h15.683c-.683-11.537-1.672-23.344-2.942-35.1l0-.033v-.033a273.821,273.821,0,0,0-.443-28.314c-.14-1.734-.3-3.37-.488-4.982a8.546,8.546,0,0,1-1.582.147,10.316,10.316,0,0,1-8.772-5.351,10.845,10.845,0,0,1-1.464-6.283,9.187,9.187,0,0,1,2.33-5.507l.04-.043-12.307-17.091.406-.292a32.661,32.661,0,0,1,10.834-5.119c-3.628-17.519-7.841-34.629-12.526-50.859a219.157,219.157,0,0,0-11.228-31.323,116.316,116.316,0,0,0-7.693-14.148,83.717,83.717,0,0,0-7.794-10.319,81.387,81.387,0,0,1,1.528,14.109c.309,6.5.316,12.807.315,13.649a63.282,63.282,0,0,0,3.672,7.007,38.219,38.219,0,0,0,3.947,5.459,13.824,13.824,0,0,0,4.634,3.657l-.331.942a.8.8,0,0,0-.209-.034.53.53,0,0,0-.448.273c-.359.5-1.094,2.367-.151,8.9a87.85,87.85,0,0,0,3.536,14.632c.646,1.932,1.2,3.738,1.651,5.189l.027.09c1.287,4.163,2.3,7.452,3.993,10.186a18.633,18.633,0,0,0,8.027,6.928l-.352.93a9.278,9.278,0,0,0-2.311-.342,4.649,4.649,0,0,0-1.052.113l-.3.069-.2-.231c-1.354-1.583-2.751-3.089-4.151-4.475a53.526,53.526,0,0,0-14.328-10.38,37.808,37.808,0,0,0-16.452-3.842,39.276,39.276,0,0,0-9.1,1.1c1.986,1.359,3.716,2.575,5.266,3.665l.061.042a92.631,92.631,0,0,0,11.1,7.093,63.1,63.1,0,0,0,14.047,4.913l.636.156-.318.573a11.569,11.569,0,0,0-1.349,5.8,14.05,14.05,0,0,0,6.87,11.807,19.179,19.179,0,0,0,8.008,2.559l.336.036.3,1.05c.015.054.03.107.046.161.065.228.127.454.187.676l.046.168-.069.16a36.033,36.033,0,0,0-2.576,9.209,22.275,22.275,0,0,0,.855,10.9,11.18,11.18,0,0,0,6.481,6.657l.88.351-.787.529c-3.033,2.039-8.234,6.413-8.987,12.8a10.778,10.778,0,0,0,.484,4.542,10.966,10.966,0,0,0,2.191,3.894,7.134,7.134,0,0,0,3.608,2.294l.223.054.1.2c.24.468.5.955.785,1.448l.179.314-.242.269a25.628,25.628,0,0,0-4.576,7.094l-.617,1.442-.338-1.562-.266-1.181c-3.374-14.856-6.97-26.681-10.689-35.143l-11.1-24.345a96.458,96.458,0,0,0-10.921-19.43,98.259,98.259,0,0,0-10.671-11.708l-.065-.063c-2.952-2.9-6.006-5.892-9.355-9.8a120.3,120.3,0,0,1-10.206-13.952c-.3,4.418.906,8.916,3.669,13.7a70.02,70.02,0,0,0,10.25,12.866l.921.96-1.325-.116c-.136-.012-.28-.018-.427-.018a5.83,5.83,0,0,0-4.167,1.944,10.38,10.38,0,0,0-2.795,7.289,15.592,15.592,0,0,0,1.812,6.682,31.51,31.51,0,0,0,3.964,5.863,64.032,64.032,0,0,0,8.839,8.794,61.024,61.024,0,0,0,10.227,6.781l1.071.562-1.155.358a13.637,13.637,0,0,1-3.325.363c-2.6.092-5.824.206-7.737,2.48a7.853,7.853,0,0,0-1.6,3.773,22.356,22.356,0,0,0,.056,6.6A99,99,0,0,0,1901.851,2783a95.071,95.071,0,0,0,12.631,9.247l1.282.784-1.5.141a8.084,8.084,0,0,0-5.969,3.914,15.856,15.856,0,0,0-1.761,12.865,24.161,24.161,0,0,0,5.466,9.045,70.119,70.119,0,0,0,8.008,7.2c1.4,1.125,2.556,2.06,3.652,2.941l.168.135.651.526,10.083,8.115-1.059.2a2.657,2.657,0,0,1-.5.043,9.164,9.164,0,0,1-3-.791,8.561,8.561,0,0,0-2.635-.721c-.7,0-1.427.291-1.547,2.449a9.547,9.547,0,0,0,1.658,5.3A37.862,37.862,0,0,0,1931.722,2849.954Zm34.847,0h4.4c.191-.763.4-1.553.618-2.353l.034-.124.089-.092a32.365,32.365,0,0,0,6.788-10.012,26.909,26.909,0,0,0,1.067-3.063l.968.25c-1.205,5.151-2.316,10.327-3.3,15.394h10a37.832,37.832,0,0,0,4.242-5.567,9.552,9.552,0,0,0,1.659-5.3c-.121-2.158-.851-2.449-1.549-2.449a8.523,8.523,0,0,0-2.633.721l-.01,0a9.135,9.135,0,0,1-3,.787,2.749,2.749,0,0,1-.492-.042l-1.075-.2,4.448-3.58q1.822-1.466,3.644-2.934l1.694-1.365q2.389-1.922,4.777-3.846a70.26,70.26,0,0,0,8.008-7.2,24.157,24.157,0,0,0,5.466-9.045,15.2,15.2,0,0,0,.6-5.615l-3.1-8.246a7.734,7.734,0,0,0-5.227-2.919l-1.5-.141,1.282-.783c1.078-.659,2.16-1.352,3.22-2.062l-6.524-17.348c-1.351,2.883-2.658,5.759-3.891,8.564-1.3,2.957-2.633,6.263-3.963,9.829l-.445,1.192-.486-1.176a25.908,25.908,0,0,0-5.233-7.95,32.493,32.493,0,0,1-11.268,14.384l-.406.292-8.312-11.544c.01,5.291.142,10.287.261,14.741v.018c.134,5.114-.1,14.769-.371,25.948l0,.091C1966.894,2833.813,1966.695,2841.982,1966.569,2849.954Zm22.023-85.524a30.788,30.788,0,0,1,.59,3.281,31.718,31.718,0,0,1-1.455,14.02,6.709,6.709,0,0,0,4.625-2.441,10.942,10.942,0,0,0,2.191-3.9,10.755,10.755,0,0,0,.484-4.54,14.711,14.711,0,0,0-2.442-6.424Zm-52.837-40.533q.927,1,1.836,2.056a5.8,5.8,0,0,1,.86-.077A21.076,21.076,0,0,1,1935.754,2723.9Zm45.322,108.376-.977-.211a28.527,28.527,0,0,0,.492-4.358c.226-6.256-1.5-11.913-2.885-16.458l-.042-.139.479-.144.22-.448a9.519,9.519,0,0,0,4.234.985,10.3,10.3,0,0,0,3.365-.576l.917-.316-.275.931C1984.632,2818.217,1982.772,2825.193,1981.076,2832.272Zm-2.142-20.427a51.51,51.51,0,0,1,2.671,14.123c1.2-4.7,2.463-9.329,3.78-13.829a11.148,11.148,0,0,1-2.788.358A10.5,10.5,0,0,1,1978.933,2811.845Zm35.832-25.566-.239-.7-9.007-23.981.1-.2c4.224-8.389,8.865-17,14.187-26.315,6.017-10.531,12.38-21.011,16.944-28.449-3.108,1.694-6.3,3.273-9.505,4.7a131.8,131.8,0,0,1-21.66,7.494c1.923,3.486,3.416,6.457,3.921,9.606a12.406,12.406,0,0,1-.25,5.3,15.526,15.526,0,0,1-2.933,5.568c-1.231,1.565-2.345,3.12-3.328,4.493l-.015.021a55.291,55.291,0,0,1-6.483,7.955,28.967,28.967,0,0,1-7.683,5.305l-.1.049H1984.7l-.144-.252a29.884,29.884,0,0,0-1.7-2.653,29.391,29.391,0,0,0-11.263-9.4l-.4-.188.134-.417c.73-2.264,1.561-4.5,2.471-6.632a66.2,66.2,0,0,1,10.3-16.706,68.459,68.459,0,0,1,14.3-12.793,66.814,66.814,0,0,1,16.977-8.194,60.712,60.712,0,0,1,18.325-2.888,56.277,56.277,0,0,1,8.579.658c1.449-2.338,2.856-4.606,4.049-6.528l.726-1.17.193,1.364a21,21,0,0,1-.259,7.283c.312.078.616.156.908.233l1.062.281-.91.616c-.535.363-1.062.714-1.644,1.1a31.371,31.371,0,0,1-2.8,6.252,67.732,67.732,0,0,1-9.606,12.231,7.008,7.008,0,0,1,4.206,2.208,11.42,11.42,0,0,1,3.077,8.013c-.142,5.466-3.5,10.126-6.006,13.157a65.19,65.19,0,0,1-8.977,8.931,62.322,62.322,0,0,1-9.121,6.2c.513.044,1.084.065,1.7.087,2.8.1,6.279.222,8.477,2.836a8.842,8.842,0,0,1,1.818,4.246,23.568,23.568,0,0,1-.07,7.055l-.02.143-.092.11a100.136,100.136,0,0,1-11.23,11.429c-.8.7-1.625,1.384-2.437,2.042Zm-8.156-24.622,8.612,22.927c.63-.518,1.261-1.051,1.882-1.589a99.1,99.1,0,0,0,11.025-11.2,22.367,22.367,0,0,0,.057-6.605,7.865,7.865,0,0,0-1.6-3.773c-1.912-2.274-5.147-2.388-7.746-2.48a13.588,13.588,0,0,1-3.317-.363l-1.154-.358,1.07-.562a61.047,61.047,0,0,0,10.226-6.781,64.2,64.2,0,0,0,8.839-8.794c2.416-2.916,5.643-7.389,5.777-12.545a10.385,10.385,0,0,0-2.793-7.289,5.833,5.833,0,0,0-4.169-1.944c-.135,0-.28.006-.431.018l-1.311.1.91-.949a70.08,70.08,0,0,0,10.25-12.867,30.18,30.18,0,0,0,2.764-6.218l.053-.173.151-.1c.3-.2.581-.383.856-.566l-.284-.069-.483-.116.113-.483a20.294,20.294,0,0,0,.5-5.964c-1.061,1.709-2.245,3.619-3.453,5.569l-.176.283-.329-.053a55.23,55.23,0,0,0-8.75-.7,59.715,59.715,0,0,0-18.023,2.842,65.82,65.82,0,0,0-16.723,8.071,67.468,67.468,0,0,0-14.093,12.606,65.2,65.2,0,0,0-10.14,16.453c-.843,1.979-1.618,4.04-2.305,6.133a30.381,30.381,0,0,1,11.249,9.525c.576.8,1.118,1.636,1.615,2.49h3.2a27.956,27.956,0,0,0,7.32-5.075,54.5,54.5,0,0,0,6.359-7.81l.014-.021c.992-1.386,2.114-2.953,3.361-4.537a14.556,14.556,0,0,0,2.753-5.21,11.426,11.426,0,0,0,.227-4.882c-.507-3.158-2.1-6.2-4.124-9.85l-.318-.573.636-.156a130.706,130.706,0,0,0,22.124-7.593c3.756-1.677,7.487-3.557,11.09-5.587l1.684-.949-1.012,1.646c-4.6,7.481-11.462,18.734-17.923,30.042C2015.4,2744.814,2010.8,2753.346,2006.609,2761.657Z" transform="translate(-1648.605 -2653.955)" fill="rgba(0,0,0,0)" />
            <path d="M1898.825,2738.676h-3.514c2.051-5.947,4.116-11.293,6.136-15.892,1.654-3.763,3.433-7.636,5.287-11.511l-7.909,27.4Zm17.057,0h-8.411l8.379-30.719,1.16-5.317-1.16-2.713-1.464-3.9c3.195-6.1,6.722-12.522,10.482-19.1,8.706-15.236,18.165-30.476,26.511-43.922.713,4.984-.458,10.034-3.578,15.438a70.518,70.518,0,0,1-10.323,12.964c.164-.014.323-.02.471-.02a6.316,6.316,0,0,1,4.527,2.1,10.894,10.894,0,0,1,2.935,7.651c-.138,5.309-3.428,9.877-5.891,12.851a64.706,64.706,0,0,1-8.908,8.863,61.622,61.622,0,0,1-10.31,6.836,13.362,13.362,0,0,0,3.189.341c2.7.1,6.053.214,8.109,2.658a8.345,8.345,0,0,1,1.708,4.01,23.006,23.006,0,0,1-.074,6.9,99.609,99.609,0,0,1-11.174,11.374,95.612,95.612,0,0,1-12.7,9.293,8.57,8.57,0,0,1,6.339,4.136c.058.086.119.18.181.281Z" transform="translate(-1539.581 -2542.175)" fill="#bfe2e2" />
            <path d="M1898.982,2739.8l-.424-.629h-3.949l.229-.663c2.053-5.953,4.122-11.313,6.151-15.93,1.658-3.772,3.439-7.65,5.294-11.526l.931.354-7.914,27.42Zm-2.969-1.629h2.436l6.049-20.958q-1.337,2.91-2.593,5.767C1899.963,2727.4,1897.982,2732.512,1896.013,2738.175Zm19.869,1h-9.066l1.238-4.54-.236-.022.29-.177,7.255-26.6,1.123-5.148-1.106-2.586-1.543-4.107.1-.2c3.2-6.1,6.727-12.533,10.491-19.119,8.708-15.24,18.168-30.481,26.514-43.928l.731-1.177.195,1.361c.729,5.1-.461,10.253-3.64,15.759a67.724,67.724,0,0,1-9.606,12.232,7,7,0,0,1,4.206,2.208,11.411,11.411,0,0,1,3.077,8.013c-.142,5.463-3.5,10.125-6.006,13.157a65.2,65.2,0,0,1-8.977,8.931,62.388,62.388,0,0,1-9.12,6.2c.514.044,1.087.065,1.7.087,2.8.1,6.275.222,8.473,2.836a8.833,8.833,0,0,1,1.818,4.247,23.493,23.493,0,0,1-.071,7.052l-.02.143-.092.11a100.1,100.1,0,0,1-11.231,11.431,96.345,96.345,0,0,1-11.653,8.653,9.414,9.414,0,0,1,5.385,4.122c.058.085.121.183.186.287l.511.77Zm-7.757-1h6.811a7.9,7.9,0,0,0-5.623-3.421l-.249-.023Zm8.188-38.435,1.219,2.849-1.2,5.5-6.979,25.587a95.175,95.175,0,0,0,12.377-9.09,99.093,99.093,0,0,0,11.026-11.206,22.3,22.3,0,0,0,.057-6.6,7.859,7.859,0,0,0-1.6-3.774c-1.913-2.274-5.146-2.388-7.744-2.48a13.648,13.648,0,0,1-3.319-.363l-1.157-.357,1.072-.563a61.118,61.118,0,0,0,10.226-6.78,64.2,64.2,0,0,0,8.839-8.794c2.416-2.917,5.643-7.392,5.777-12.545a10.378,10.378,0,0,0-2.793-7.289,5.83,5.83,0,0,0-4.169-1.944c-.141,0-.285.006-.429.018l-1.317.11.915-.954a70.081,70.081,0,0,0,10.251-12.868c2.763-4.785,3.969-9.278,3.667-13.686-8.153,13.136-17.3,27.906-25.733,42.668-3.717,6.5-7.2,12.858-10.369,18.889Z" transform="translate(-1539.581 -2542.175)" fill="rgba(0,0,0,0)" />
        </g>
        <g transform="translate(-5.04 -10.765)">
            <path d="M115.241,1H0A1,1,0,0,1-1,0,1,1,0,0,1,0-1H115.241a1,1,0,0,1,1,1A1,1,0,0,1,115.241,1Z" transform="translate(5.04 96.938)" fill="#5bb3b3" />
            <path d="M115.241,1H0A1,1,0,0,1-1,0,1,1,0,0,1,0-1H115.241a1,1,0,0,1,1,1A1,1,0,0,1,115.241,1Z" transform="translate(5.04 105.824)" fill="#5bb3b3" />
            <path d="M0-1H12.227a1,1,0,0,1,1,1V53.42a1,1,0,0,1-1,1H0a1,1,0,0,1-1-1V0A1,1,0,0,1,0-1ZM11.227,1H1V52.42H11.227Z" transform="translate(56.522 39.563)" fill="#5bb3b3" />
            <path d="M0-1H12.227a1,1,0,0,1,1,1V53.42a1,1,0,0,1-1,1H0a1,1,0,0,1-1-1V0A1,1,0,0,1,0-1ZM11.227,1H1V52.42H11.227Z" transform="translate(92.952 39.563)" fill="#5bb3b3" />
            <path d="M2.718,1H0A1,1,0,0,1-1,0,1,1,0,0,1,0-1H2.718a1,1,0,0,1,1,1A1,1,0,0,1,2.718,1Z" transform="translate(61.277 64.034)" fill="#5bb3b3" />
            <path d="M2.718,1H0A1,1,0,0,1-1,0,1,1,0,0,1,0-1H2.718a1,1,0,0,1,1,1A1,1,0,0,1,2.718,1Z" transform="translate(97.707 64.034)" fill="#5bb3b3" />
            <path d="M2.718,1H0A1,1,0,0,1-1,0,1,1,0,0,1,0-1H2.718a1,1,0,0,1,1,1A1,1,0,0,1,2.718,1Z" transform="translate(61.277 69.26)" fill="#5bb3b3" />
            <path d="M0-1H12.227a1,1,0,0,1,1,1V53.42a1,1,0,0,1-1,1H0a1,1,0,0,1-1-1V0A1,1,0,0,1,0-1ZM11.227,1H1V52.42H11.227Z" transform="translate(38.308 39.563)" fill="#5bb3b3" />
            <path d="M0-1H12.227a1,1,0,0,1,1,1V53.42a1,1,0,0,1-1,1H0a1,1,0,0,1-1-1V0A1,1,0,0,1,0-1ZM11.227,1H1V52.42H11.227Z" transform="translate(74.737 39.563)" fill="#5bb3b3" />
            <path d="M2.718,1H0A1,1,0,0,1-1,0,1,1,0,0,1,0-1H2.718a1,1,0,0,1,1,1A1,1,0,0,1,2.718,1Z" transform="translate(43.063 64.034)" fill="#5bb3b3" />
            <path d="M2.718,1H0A1,1,0,0,1-1,0,1,1,0,0,1,0-1H2.718a1,1,0,0,1,1,1A1,1,0,0,1,2.718,1Z" transform="translate(79.492 64.034)" fill="#5bb3b3" />
            <path d="M2.718,1H0A1,1,0,0,1-1,0,1,1,0,0,1,0-1H2.718a1,1,0,0,1,1,1A1,1,0,0,1,2.718,1Z" transform="translate(43.063 69.26)" fill="#5bb3b3" />
            <path d="M0-1H12.227a1,1,0,0,1,1,1V53.42a1,1,0,0,1-1,1H0a1,1,0,0,1-1-1V0A1,1,0,0,1,0-1ZM11.227,1H1V52.42H11.227Z" transform="matrix(-0.949, -0.316, 0.316, -0.949, 19.74, 93.545)" fill="#5bb3b3" />
            <path d="M2.577,1.86a1,1,0,0,1-.317-.052L-.316.949A1,1,0,0,1-.949-.316,1,1,0,0,1,.316-.949l2.577.86A1,1,0,0,1,2.577,1.86Z" transform="translate(21.804 63.719)" fill="#5bb3b3" />
            <path d="M2.577,1.86a1,1,0,0,1-.317-.052L-.316.949A1,1,0,0,1-.949-.316,1,1,0,0,1,.316-.949l2.577.86A1,1,0,0,1,2.577,1.86Z" transform="translate(20.152 68.676)" fill="#5bb3b3" />
        </g>
        <path d="M374,1H0A1,1,0,0,1-1,0,1,1,0,0,1,0-1H374a1,1,0,0,1,1,1A1,1,0,0,1,374,1Z" transform="translate(0.5 219.661)" fill="#5bb3b3" />
        <g transform="translate(305.75 109.442)">
            <g clip-path="url(#a)">
                <path d="M68.061,138.791H1.251a1,1,0,0,1-1-1,13.865,13.865,0,0,1,13.827-13.827H55.236a13.864,13.864,0,0,1,13.825,13.827A1,1,0,0,1,68.061,138.791Zm-65.768-2H67.019a11.871,11.871,0,0,0-11.784-10.827H14.078A11.872,11.872,0,0,0,2.293,136.791Z" transform="translate(30.089 13.011)" fill="#5bb3b3" />
                <path d="M16.208,63.141a6.215,6.215,0,1,1-6.215,6.215A6.222,6.222,0,0,1,16.208,63.141Zm0,10.43a4.215,4.215,0,1,0-4.215-4.215A4.22,4.22,0,0,0,16.208,73.571Z" transform="translate(65.971 6.678)" fill="#5bb3b3" />
                <path d="M63.075.25h0a32.213,32.213,0,0,1,14.213,3.3,31,31,0,0,1,16.53,21.174,31.538,31.538,0,0,1,.221,12.25,32.494,32.494,0,0,1-4.43,11.548,33.1,33.1,0,0,1-8.819,9.414,1,1,0,0,1-1.4-.227L52.532,20.4,43.542,7.916a1,1,0,0,1,.227-1.4A33.306,33.306,0,0,1,53.126,1.8,32.72,32.72,0,0,1,63.075.25ZM80.427,55.717a31.047,31.047,0,0,0,7.487-8.251,30.5,30.5,0,0,0,4.158-10.84,29.548,29.548,0,0,0-.206-11.477A28.955,28.955,0,0,0,76.4,5.342,30.2,30.2,0,0,0,63.077,2.25h0A30.72,30.72,0,0,0,53.734,3.7a31.24,31.24,0,0,0-7.976,3.867l8.4,11.661Z" transform="translate(-42.973 0.13)" fill="#5bb3b3" />
                <path d="M0,49.065a1,1,0,0,1-.295-.045,1,1,0,0,1-.661-1.25L13.844-.294a1,1,0,0,1,1.25-.661,1,1,0,0,1,.661,1.25L.956,48.359A1,1,0,0,1,0,49.065Z" transform="translate(70.385 85.823)" fill="#5bb3b3" />
                <path d="M0,49.065a1,1,0,0,1-.295-.045,1,1,0,0,1-.661-1.25L13.844-.294a1,1,0,0,1,1.25-.661,1,1,0,0,1,.661,1.25L.956,48.359A1,1,0,0,1,0,49.065Z" transform="translate(62.351 85.823)" fill="#5bb3b3" />
                <path d="M42.026,65.822a1,1,0,0,1-.937-.65L25.205,22.66H21.165a1,1,0,0,1,0-2H25.9a1,1,0,0,1,.937.65L42.963,64.472a1,1,0,0,1-.937,1.35Z" transform="translate(34.137 2.255)" fill="#5bb3b3" />
                <path d="M45.233,65.553a1,1,0,0,1-.933-.64L25.319,15.767H13.378a1,1,0,0,1,0-2H26a1,1,0,0,1,.933.64L46.165,64.192a1,1,0,0,1-.933,1.361Z" transform="translate(39.529 1.538)" fill="#5bb3b3" />
                <path d="M77.467,39.784a9.752,9.752,0,0,1-3.065-.505,11.208,11.208,0,0,1-6.145-5.1,11.333,11.333,0,0,1-1.529-6.571A9.686,9.686,0,0,1,69.19,21.8a1,1,0,0,1,1.47,1.356c-2.338,2.534-2.614,6.655-.669,10.023a9.212,9.212,0,0,0,5.04,4.2,7.114,7.114,0,0,0,5.865-.509,1,1,0,0,1,1,1.732A8.808,8.808,0,0,1,77.467,39.784Z" transform="translate(-56.608 2.34)" fill="#5bb3b3" />
            </g>
        </g>
        <g transform="translate(3870 2292)">
            <path d="M68.259,211.509A120.586,120.586,0,0,1,44,209.335a32.014,32.014,0,0,1-7.532-2.422c-2.135-1.09-3.218-2.352-3.218-3.75a3.319,3.319,0,0,1,1.264-2.459,10.771,10.771,0,0,1,2.931-1.748,44.977,44.977,0,0,1,9.847-2.591,1,1,0,0,1,.33,1.973c-9.786,1.637-12.372,3.873-12.372,4.826,0,.83,1.932,2.653,9.171,4.216a118.568,118.568,0,0,0,23.835,2.129,118.569,118.569,0,0,0,23.835-2.129c7.24-1.564,9.171-3.386,9.171-4.216,0-.767-.889-1.619-2.5-2.4a34.439,34.439,0,0,0-8.924-2.428,1,1,0,1,1,.324-1.974,36.294,36.294,0,0,1,9.469,2.6c2.412,1.164,3.634,2.577,3.634,4.2,0,1.4-1.083,2.659-3.217,3.75a32.013,32.013,0,0,1-7.531,2.422A120.586,120.586,0,0,1,68.259,211.509Z" transform="translate(-3639.524 -2196.872)" fill="#5bb3b3" />
            <path d="M22.486-1A92.574,92.574,0,0,1,38.568.24c5.051.938,7.4,2.189,7.4,3.937s-2.352,3-7.4,3.937a92.574,92.574,0,0,1-16.082,1.24A92.574,92.574,0,0,1,6.4,8.114C1.352,7.176-1,5.925-1,4.177s2.352-3,7.4-3.937A92.574,92.574,0,0,1,22.486-1ZM43.941,4.177a3.928,3.928,0,0,0-1.628-.909A26.8,26.8,0,0,0,37.6,2.1,93.368,93.368,0,0,0,22.486,1,93.368,93.368,0,0,0,7.37,2.1,26.8,26.8,0,0,0,2.659,3.268a3.928,3.928,0,0,0-1.628.909,3.928,3.928,0,0,0,1.628.909A26.8,26.8,0,0,0,7.37,6.256a93.368,93.368,0,0,0,15.115,1.1A93.368,93.368,0,0,0,37.6,6.256a26.8,26.8,0,0,0,4.711-1.169A3.928,3.928,0,0,0,43.941,4.177Z" transform="translate(-3593.751 -2026.908)" fill="#5bb3b3" />
            <path d="M82.013,199.526H58.534a11.51,11.51,0,0,1-8.357-3.617,12.425,12.425,0,0,1-3.454-8.65V171.487a12.834,12.834,0,0,1,.081-1.439,1,1,0,0,1,1.987.225,10.828,10.828,0,0,0-.068,1.214v15.771a10.435,10.435,0,0,0,2.9,7.265,9.528,9.528,0,0,0,6.914,3H82.013a9.528,9.528,0,0,0,6.914-3,10.435,10.435,0,0,0,2.9-7.265V171.487a10.716,10.716,0,0,0-.078-1.3,1,1,0,1,1,1.985-.243,12.723,12.723,0,0,1,.093,1.541v15.771a12.425,12.425,0,0,1-3.454,8.65A11.51,11.51,0,0,1,82.013,199.526Z" transform="translate(-3641.539 -2192.798)" fill="#5bb3b3" />
            <path d="M103.922,192.054a6.767,6.767,0,0,1-3.945-1.3,1,1,0,0,1,1.163-1.627,4.78,4.78,0,0,0,2.782.929c3.079,0,5.583-3.09,5.583-6.888s-2.5-6.889-5.583-6.889a4.694,4.694,0,0,0-2.641.827,1,1,0,1,1-1.11-1.663,6.75,6.75,0,0,1,3.751-1.163,7.029,7.029,0,0,1,5.423,2.67,10.03,10.03,0,0,1,0,12.437A7.029,7.029,0,0,1,103.922,192.054Z" transform="translate(-3649.441 -2193.578)" fill="#5bb3b3" />
        </g>
        <path d="M16.5,1H0A1,1,0,0,1-1,0,1,1,0,0,1,0-1H16.5a1,1,0,0,1,1,1A1,1,0,0,1,16.5,1Z" transform="translate(383.5 219.661)" fill="#5bb3b3" />
        <path d="M136.552,236.18V231.8l18.826-15.281h87.515L261.719,231.8v4Z" transform="translate(3 20.998)" fill="#9aa2b0" />
        <path d="M136.552,236.18V231.8l18.826-15.281h87.515L261.719,231.8v4Z" transform="translate(3 20.998)" fill="#7a8293" />
        <path d="M136.552,237.68a1.5,1.5,0,0,1-1.5-1.5V231.8a1.5,1.5,0,0,1,.555-1.165l18.826-15.281a1.5,1.5,0,0,1,.945-.335h87.515a1.5,1.5,0,0,1,.945.335l18.826,15.281a1.5,1.5,0,0,1,.555,1.165v4a1.5,1.5,0,0,1-1.5,1.5l-125.167.378Zm1.5-5.166v2.161l122.167-.369v-1.792l-17.858-14.5H155.91Z" transform="translate(3 20.998)" fill="#7a8293" />
        <path d="M183.04,186.313l-3.968,30.556h40.2l-2.975-30.556Z" transform="translate(3 17.851)" fill="#7a8293" />
        <path d="M111.361,64.163H287.4a4.614,4.614,0,0,1,4.614,4.614V184.458a4.614,4.614,0,0,1-4.614,4.614H111.361a4.614,4.614,0,0,1-4.614-4.614V68.777a4.614,4.614,0,0,1,4.614-4.614" transform="translate(3 17.998)" fill="#313e58" />
        <path d="M0,0H165.387V94.057H0Z" transform="translate(120 91.476)" fill="#b2cae7" />
        <path d="M199.38,173.242a4.339,4.339,0,1,1-4.339,4.338,4.338,4.338,0,0,1,4.339-4.338" transform="translate(3 17.998)" fill="#fff" />
        <path d="M136.552,231.222l18.826-19.657h87.515l18.826,19.283Z" transform="translate(3 20.998)" fill="#d1d5db" />
        <path d="M136.552,232.722a1.5,1.5,0,0,1-1.083-2.538l18.826-19.657a1.5,1.5,0,0,1,1.083-.462h87.515a1.5,1.5,0,0,1,1.073.452L262.792,229.8a1.5,1.5,0,0,1-1.069,2.548l-125.167.374Zm19.466-19.657-15.943,16.646,118.093-.353-15.907-16.294Z" transform="translate(3 20.998)" fill="#d1d5db" />
        <path d="M4.1,1.5H0A1.5,1.5,0,0,1-1.5,0,1.5,1.5,0,0,1,0-1.5H4.1A1.5,1.5,0,0,1,5.6,0,1.5,1.5,0,0,1,4.1,1.5Z" transform="translate(161.122 238.71)" fill="#313e58" />
        <path d="M4.1,1.5H0A1.5,1.5,0,0,1-1.5,0,1.5,1.5,0,0,1,0-1.5H4.1A1.5,1.5,0,0,1,5.6,0,1.5,1.5,0,0,1,4.1,1.5Z" transform="translate(172.344 238.71)" fill="#313e58" />
        <path d="M4.1,1.5H0A1.5,1.5,0,0,1-1.5,0,1.5,1.5,0,0,1,0-1.5H4.1A1.5,1.5,0,0,1,5.6,0,1.5,1.5,0,0,1,4.1,1.5Z" transform="translate(183.567 238.71)" fill="#313e58" />
        <path d="M4.1,1.5H0A1.5,1.5,0,0,1-1.5,0,1.5,1.5,0,0,1,0-1.5H4.1A1.5,1.5,0,0,1,5.6,0,1.5,1.5,0,0,1,4.1,1.5Z" transform="translate(155.078 245.365)" fill="#313e58" />
        <path d="M4.1,1.5H0A1.5,1.5,0,0,1-1.5,0,1.5,1.5,0,0,1,0-1.5H4.1A1.5,1.5,0,0,1,5.6,0,1.5,1.5,0,0,1,4.1,1.5Z" transform="translate(166.829 245.365)" fill="#313e58" />
        <path d="M4.1,1.5H0A1.5,1.5,0,0,1-1.5,0,1.5,1.5,0,0,1,0-1.5H4.1A1.5,1.5,0,0,1,5.6,0,1.5,1.5,0,0,1,4.1,1.5Z" transform="translate(178.052 245.365)" fill="#313e58" />
        <path d="M4.1,1.5H0A1.5,1.5,0,0,1-1.5,0,1.5,1.5,0,0,1,0-1.5H4.1A1.5,1.5,0,0,1,5.6,0,1.5,1.5,0,0,1,4.1,1.5Z" transform="translate(222.642 245.451)" fill="#313e58" />
        <path d="M4.1,1.5H0A1.5,1.5,0,0,1-1.5,0,1.5,1.5,0,0,1,0-1.5H4.1A1.5,1.5,0,0,1,5.6,0,1.5,1.5,0,0,1,4.1,1.5Z" transform="translate(234.394 245.451)" fill="#313e58" />
        <path d="M4.1,1.5H0A1.5,1.5,0,0,1-1.5,0,1.5,1.5,0,0,1,0-1.5H4.1A1.5,1.5,0,0,1,5.6,0,1.5,1.5,0,0,1,4.1,1.5Z" transform="translate(245.616 245.451)" fill="#313e58" />
        <path d="M25.533,1.5H0A1.5,1.5,0,0,1-1.5,0,1.5,1.5,0,0,1,0-1.5H25.533a1.5,1.5,0,0,1,1.5,1.5A1.5,1.5,0,0,1,25.533,1.5Z" transform="translate(189.274 245.451)" fill="#313e58" />
        <path d="M4.1,1.5H0A1.5,1.5,0,0,1-1.5,0,1.5,1.5,0,0,1,0-1.5H4.1A1.5,1.5,0,0,1,5.6,0,1.5,1.5,0,0,1,4.1,1.5Z" transform="translate(194.79 238.71)" fill="#313e58" />
        <path d="M4.1,1.5H0A1.5,1.5,0,0,1-1.5,0,1.5,1.5,0,0,1,0-1.5H4.1A1.5,1.5,0,0,1,5.6,0,1.5,1.5,0,0,1,4.1,1.5Z" transform="translate(206.012 238.71)" fill="#313e58" />
        <path d="M4.1,1.5H0A1.5,1.5,0,0,1-1.5,0,1.5,1.5,0,0,1,0-1.5H4.1A1.5,1.5,0,0,1,5.6,0,1.5,1.5,0,0,1,4.1,1.5Z" transform="translate(217.235 238.451)" fill="#313e58" />
        <path d="M4.1,1.5H0A1.5,1.5,0,0,1-1.5,0,1.5,1.5,0,0,1,0-1.5H4.1A1.5,1.5,0,0,1,5.6,0,1.5,1.5,0,0,1,4.1,1.5Z" transform="translate(228.458 238.451)" fill="#313e58" />
        <path d="M4.1,1.5H0A1.5,1.5,0,0,1-1.5,0,1.5,1.5,0,0,1,0-1.5H4.1A1.5,1.5,0,0,1,5.6,0,1.5,1.5,0,0,1,4.1,1.5Z" transform="translate(239.681 238.451)" fill="#313e58" />
        <path d="M604.764,2734.459H487.886l67.723-94.057h49.156v94.057Z" transform="translate(-319.782 -2548.926)" fill="#96b7df" />
        <path d="M604.764,2734.958H486.909l.57-.792,67.872-94.265h49.912v94.557h-.5Zm-115.9-1h115.4V2640.9h-48.4Z" transform="translate(-319.782 -2548.926)" fill="rgba(0,0,0,0)" />
        <g transform="translate(160.133 98.132)" opacity="0.888">
            <g transform="translate(0 0)" clip-path="url(#b)">
                <path d="M50.175,51.964c-.061-.034-.156-.1-.15-.149.057-.425-.311-.505-.552-.655A9.748,9.748,0,0,0,47.7,50.3a13.435,13.435,0,0,0-4.943-.856c-.371.007-.452-.116-.437-.474a14.383,14.383,0,0,0-.045-2.529c-.051-.364.067-.476.435-.476,1.632,0,3.265-.021,4.9-.04.208,0,.5.075.5-.259s-.3-.188-.466-.191q-2.478-.049-4.957-.068c-.4,0-.6-.1-.681-.565-.437-2.658-.933-5.308-1.376-7.965-.072-.437-.255-.542-.645-.512-.19.014-.481.1-.565-.079-.239-.527-.678-.968-.682-1.6-.01-1.615-.017-3.229-.048-4.844-.027-1.411-.085-2.822-.132-4.234,0-.14.04-.347-.16-.351-.218-.006-.136.221-.149.343-.112,1.131-.177,2.266-.178,3.4q-.006,2.616,0,5.23c0,.266,0,.519-.253.684a.509.509,0,0,0-.221.478,1.375,1.375,0,0,1-.924,1.387,1.135,1.135,0,0,0-.628,1.006c-.268,2.149-.406,4.309-.587,6.466a.953.953,0,0,1-1.009,1.016c-1.468.091-2.936,0-4.4.006-.147,0-.294-.006-.442,0a.257.257,0,0,0-.248.249c-.024.171.088.225.229.241.219.023.437.054.657.062,1.577.061,3.154.122,4.73.168.269.008.439.034.464.372.076.987.184,1.972.289,2.957.025.242-.01.377-.3.372-.459-.007-.916.028-1.374.041-.259.008-.442-.01-.248.371a.791.791,0,0,1-.052.977c-.249.255-.217.869-.835.636a4.425,4.425,0,0,0-.536,1.2c.243-.125.354-.5.568-.32.442.381.606.069.723-.249.679-1.837,2.382-2.011,4-1.826l-.79.638c-.251-.151.139-.285-.054-.44-.28.113-.572.218-.854.348-.163.074-.4.157-.442.287-.122.4-.471.435-.757.58-.045.011-.113.045-.132.027-.059-.058-.02-.126.02-.184a.713.713,0,0,0,.047-.154c0-.054-.038-.126-.085-.055A3.46,3.46,0,0,0,34,52.925c.282,0,.192-.433.384-.293.263.193.4-.1.6-.055.132-.236.255-.48.4-.709a.3.3,0,0,1,.473-.065c.181.17-.018.243-.147.345a6.976,6.976,0,0,0-.568.553.326.326,0,0,0-.018.052c-.074.328.374,1.673.662,1.731.347.071.314.287.351.507.126-.04.047-.362.205-.2.443.45.832.064,1.159-.1a.927.927,0,0,1,.47-.059c.61.32.869.31,1.345-.191.12-.127.127-.119.205-.011a1.685,1.685,0,0,0,2.038.788,3.292,3.292,0,0,1,1.42-.1.325.325,0,0,0,.385-.232.473.473,0,0,1,.473-.307c.463-.018.971-.379,1.376.153.058.076.095,0,.157-.033.677-.4,1.465-.062,2.171-.31.064-.023.187.041.246.1a2.962,2.962,0,0,0,1.329.527c.27.088.394.021.461-.14a1.018,1.018,0,0,0,.052-.192c-.126-.154-.037-.163.095-.142a11.676,11.676,0,0,1,1.367.3,1.153,1.153,0,0,1,.384.279c.386.429,1.039.256,1.407.719a.937.937,0,0,0-.038-.814c-.769-1.124-1.4-2.375-2.667-3.064m-15.526.2a.314.314,0,0,1-.028-.068c0-.007.021-.02.034-.03h0a.347.347,0,0,1,.028.068c0,.008-.023.02-.034.031m9.9,2.2c-.01-.014-.028-.028-.027-.04s.024-.023.037-.033l.028.041-.038.031" transform="translate(12.19 10.495)" fill="#313e58" />
                <path d="M37.25,26.954c.125-.18.3-.324.44-.493a2.615,2.615,0,0,0,.846-1.778,2.3,2.3,0,0,1-.249.358c-.5.5-.546.5-.923-.078-.7-1.076-1.359-2.181-2.089-3.237a1.585,1.585,0,0,1-.345-1.745c.154-.323-.1-.553-.432-.416-.28.116-.464.211-.688-.113a.738.738,0,0,1-.034-.9c.536-.961,1.077-1.922,1.539-2.919a7.589,7.589,0,0,0,1.185-3.1,2.572,2.572,0,0,1,.559-1.465c.229-.331.466-.658.682-1a2.224,2.224,0,0,0,.348-1.417c-.027-.323-.139-.4-.436-.239a7.125,7.125,0,0,0-1.992,1.875c-.323.4-.532.94-1.19.938-.11,0-.231.167-.331.27-1.437,1.495-3.2,2.657-4.44,4.35-.238.321-.579.075-.863.016-.163-.034-.368-.129-.3-.381s.069-.531-.154-.628-.433.134-.62.282c-.208.164-.36.436-.7.313-1.42-.507-2.914-.73-4.362-1.132-.323-.089-.624-.14-.391-.592a.316.316,0,0,0-.123-.392c-.187-.092-.218.136-.29.243-.224.335-.433.681-.65,1.021-.476.743-.474.794.117,1.459a18.3,18.3,0,0,0,2.282,1.9c.921.75,1.816,1.533,2.709,2.317.19.168.344.389.149.677s-.239.7-.745.684c-.548-.017-1.1.05-1.649.054a8.249,8.249,0,0,0-2.552.345c-.33.109-.364.375-.42.643-.064.3.18.358.372.456a13.148,13.148,0,0,0,2.97.972c.347.081.436.184.354.552-.134.592.242.879.793.66.578-.231.594-.217.51.425-.065.5.164.774.552.561.653-.362.906-.038,1.138.481a6.146,6.146,0,0,0,.347.626,4.987,4.987,0,0,0,1.444,1.708.387.387,0,0,0,.566-.045,1.047,1.047,0,0,0,.239-1.164c-.239-.96-.539-1.905-.77-2.866-.262-1.091-.177-1.2.859-1.4.372-.072.706-.058.835.389.052.18.168.219.335.184a.531.531,0,0,1,.46.133c1.305,1.053,2.828,1.769,4.208,2.709a.6.6,0,0,0,.9-.1" transform="translate(8.684 3.462)" fill="#313e58" />
                <path d="M41.266.009A40.435,40.435,0,1,0,80.857,40.8,40.374,40.374,0,0,0,41.266.009M22.688,60.465c-.226-.154-.314-.381-.534-.476-.11-.047-.173-.205-.256-.314a1.893,1.893,0,0,1,.467-.323c.181-.058.2.173.262.283a.859.859,0,0,1,.061.829M24.4,51.637c-.185.2-.3.476-.575.563-.1.034-.149-.146-.173-.239q-.285-1.117-.548-2.241c-.03-.125-.03-.27.224-.252.069.044.226.088.272.183.215.459.416.926.586,1.4.05.136-.072.334.171.389.149.033.106.127.042.194m4.006,10.075a6.353,6.353,0,0,0-2.27.13c-.241.089-.307.011-.393-.258-.454-1.417-.395-2.91-.706-4.344a.542.542,0,0,1,.117-.562c.524-.375.863-.936,1.39-1.306.236-.167.309-.167.4.117.324,1.029.677,2.05,1.008,3.077a1.462,1.462,0,0,0,.725.917,1.355,1.355,0,0,1,.668,1.121c.153,1.118.166,1.1-.937,1.107m38.856,4.521a38.213,38.213,0,0,1-4.614,4.085c-.3.225-.5.238-.708-.108l-1.214-.418,0-.006a1.79,1.79,0,0,1-.453-.17,3.694,3.694,0,0,0-2.02-.575,1.545,1.545,0,0,1-1.127-.368.749.749,0,0,0-.645-.225c-.531.113-1-.163-1.513-.156a.414.414,0,0,1-.256-.089c-.287-.252-.542-.611-.963-.18-.024.025-.166-.045-.242-.091a2.761,2.761,0,0,0-1.785-.371c-.287.033-.611-.454-.929-.467-.749-.033-1.306-.535-2.009-.677-.519-.1-1.121-.008-1.529-.562a.969.969,0,0,0-.975-.258,2.555,2.555,0,0,1-1.934-.562,1.242,1.242,0,0,1-.364-1.178c.13-.671-.433-.93-.718-1.338-.18-.258-.44.041-.62.156-.333.212-.531.19-.624-.219-.1-.443-.452-.437-.784-.4a.774.774,0,0,1-.76-.316,1.761,1.761,0,0,0-2.446-.645.99.99,0,0,1-1.029-.059,1.594,1.594,0,0,0-1.261-.187,5.7,5.7,0,0,1-2.5.187c-.362-.095-.467.425-.909.522.017-1.557-.865-2.845-1.159-4.309a1.515,1.515,0,0,1,.084-.8,2.228,2.228,0,0,0-.02-1.291,7.138,7.138,0,0,1-.293-2.49c.03-.249.1-.268.33-.207.375.1.617.006.582-.486a9.767,9.767,0,0,0-.044-1.481c-.051-.228.014-.318.26-.352a5.283,5.283,0,0,0,.788-.234c.466-.143.627-.408.6-.936a1.786,1.786,0,0,1,.386-1.281,2.138,2.138,0,0,0,.188-2.2,2.013,2.013,0,0,1-.033-1.328,1.023,1.023,0,0,0-.9-1.342.76.76,0,0,1-.623-.258.436.436,0,0,0-.493-.157.866.866,0,0,1-1.057-.469c-.242-.389-.5-.4-.923-.241a1.226,1.226,0,0,1-1.363-.023c-.327-.251-.859-.248-1.148-.64a1.264,1.264,0,0,0,.2-2.113.6.6,0,0,1-.239-.517c.01-.552-.35-.794-.82-.561-.031.016-.064.069-.084.064-.72-.218-1.483.044-2.191-.159-.535-.153-.769-.12-.992.4a2.516,2.516,0,0,1-.147.354c-.377.613-.365.677.243,1.081.171.115.343.205.187.471-.174.3.229.522.151.808-.2.73.2.978.822,1.11a.411.411,0,0,1,.285.527,5.036,5.036,0,0,1-.388,1.076.388.388,0,0,1-.4.232c-.454-.041-.365.255-.311.5a1.038,1.038,0,0,1-.661,1.274c-.388.187-.276.5-.031.711.316.269.185.343-.108.442-.119.041-.364.02-.321.222.115.551-.236.582-.626.7a1.514,1.514,0,0,0-.752.562.724.724,0,0,1-.644.327,15.723,15.723,0,0,0-1.919.461c-.164.023-.4.045-.34.326.062.3.279.245.47.171a15.979,15.979,0,0,0,1.857-.45c.259-.134.481-.2.549.275a5.094,5.094,0,0,0,.5,1.256c.113.258.5.188.812-.157a12.515,12.515,0,0,1,.889,2.065.536.536,0,0,1-.084.518,4.828,4.828,0,0,1-.657.878,2.135,2.135,0,0,0-.747,1.687,5.251,5.251,0,0,0,.328,3.06c.1.181-.409.766-.6.7-.167-.062-.086-.208-.071-.331.055-.43.1-.862.164-1.374-.453.4-.351.916-.5,1.335a.409.409,0,0,1-.4.327c-.287.025-.089-.246-.181-.344-.226,0-.058.437-.395.335-.361-.11-.076-.369-.142-.572-.2.051-.419.426-.576-.02a.246.246,0,0,0-.123-.1c-1.2-.539-2.409-1.055-3.594-1.625-.648-.313-1.256.031-1.881.028a6.187,6.187,0,0,1-1.308-.153,9.789,9.789,0,0,1-2.058-.555c-.084-.038-.2-.037-.255-.1-.6-.637-1.454-.569-2.2-.8a1.218,1.218,0,0,1-.713-.5l-.941-.188c-.02-.02-.042.011-.062-.008a.784.784,0,0,1-.743-.611A36.937,36.937,0,0,1,3.216,40.809,36.479,36.479,0,0,1,13.682,14.568,36.076,36.076,0,0,1,33.873,3.792a36.389,36.389,0,0,1,23.318,3.4A36.653,36.653,0,0,1,73.609,23.543a36.15,36.15,0,0,1,3.98,19.212A36.681,36.681,0,0,1,67.263,66.233" transform="translate(0 0)" fill="#313e58" />
            </g>
        </g>
        <g transform="translate(15.543 144.616)">
            <rect width="64.008" height="12.301" transform="translate(8.279 81.462)" fill="#bfe2e2" />
            <path d="M10.069,93.165l8.958,54.407H58.9L69.851,93.165Z" transform="translate(0.272 2.519)" fill="#bfe2e2" />
            <g clip-path="url(#c)">
                <path d="M40.747,88.939a2.428,2.428,0,1,1-4.857,0V26.4a2.428,2.428,0,0,1,4.857,0Z" transform="translate(0.97 0.648)" fill="#bfe2e2" />
            </g>
            <g transform="translate(36.86 24.618)">
                <g clip-path="url(#d)">
                    <rect width="24.439" height="86.981" transform="translate(-9.791 -9.791)" fill="#bfe2e2" />
                </g>
            </g>
            <g clip-path="url(#c)">
                <path d="M38.972,54.746c0-.032.013-.061.014-.092A25.431,25.431,0,0,0,1.263,31.712,2.426,2.426,0,0,0,.008,33.775,25.432,25.432,0,0,0,37.731,56.718c.028-.015.049-.04.076-.056L18.235,46.289a2.429,2.429,0,0,1,2.523-4.15" transform="translate(0 0.771)" fill="#bfe2e2" />
                <path d="M40.261,65.048c.025.02.041.046.067.066a25.432,25.432,0,0,0,40.577-17.4,2.428,2.428,0,0,0-.952-2.22,25.432,25.432,0,0,0-40.577,17.4c0,.032,0,.063,0,.094l19.806-9.917A2.428,2.428,0,1,1,61.1,57.534" transform="translate(1.064 1.091)" fill="#bfe2e2" />
                <path d="M37.64,28.646c.028.015.048.039.076.053A25.432,25.432,0,0,0,74.938,4.951a2.431,2.431,0,0,0-1.3-2.037A25.432,25.432,0,0,0,36.417,26.663c0,.033.014.062.017.093l17.937-13a2.429,2.429,0,0,1,2.613,4.095" transform="translate(0.984 0)" fill="#bfe2e2" />
            </g>
        </g>
    </g>
</svg>