<svg xmlns="http://www.w3.org/2000/svg" xmlns:xlink="http://www.w3.org/1999/xlink" width="400" height="320" viewBox="0 0 400 320">
    <defs>
        <clipPath>
            <rect width="45.959" height="70.523" fill="none" />
        </clipPath>
        <clipPath>
            <rect width="400" height="320" />
        </clipPath>
    </defs>
    <g clip-path="url(#c)">
        <rect width="400" height="320" fill="transparent" />
        <path d="M398.953,1H0A1,1,0,0,1-1,0,1,1,0,0,1,0-1H398.953a1,1,0,0,1,1,1A1,1,0,0,1,398.953,1Z" transform="translate(1.801 205.069)" fill="#5bb3b3" />
        <g transform="translate(338.632 1394.261)">
            <g transform="translate(-392 21)">
                <path d="M48.084,20.168a1,1,0,0,1-.677-.264L28.336,2.359,9.464,19.706A1,1,0,1,1,8.11,18.234L27.66.264a1,1,0,0,1,1.354,0L48.761,18.432a1,1,0,0,1-.677,1.736Z" transform="translate(33.805 -1381.172)" fill="#5bb3b3" />
                <g transform="translate(29 -1404.366)">
                    <path d="M99.207,88.454H1.894a1,1,0,0,1,0-2H98.207V16.368H2.34a1,1,0,1,1,0-2H99.207a1,1,0,0,1,1,1V87.454A1,1,0,0,1,99.207,88.454Z" transform="translate(1.036 31.051)" fill="#5bb3b3" />
                    <path d="M93.311,78.88H1.894a1,1,0,0,1,0-2H92.311V21.021h-90a1,1,0,0,1,0-2h91a1,1,0,0,1,1,1V77.88A1,1,0,0,1,93.311,78.88Z" transform="translate(1.036 33.596)" fill="#5bb3b3" />
                    <path d="M78.912,59.032H1.893a1,1,0,0,1,0-2H77.912V30.6H2.247a1,1,0,0,1,0-2H78.912a1,1,0,0,1,1,1V58.032A1,1,0,0,1,78.912,59.032Z" transform="translate(1.035 38.832)" fill="#5bb3b3" />
                </g>
            </g>
        </g>
        <g transform="translate(334.208 1385)">
            <path d="M21.919-1A22.912,22.912,0,0,1,38.125,38.125,22.919,22.919,0,1,1,13,.8,22.776,22.776,0,0,1,21.919-1Zm0,43.838A20.925,20.925,0,0,0,30.061,2.644,20.925,20.925,0,0,0,13.777,41.195,20.787,20.787,0,0,0,21.919,42.838Z" transform="translate(-240.232 -1371.83)" fill="#5bb3b3" />
            <path d="M27.895-1A28.9,28.9,0,0,1,39.142,54.518,28.9,28.9,0,0,1,16.647,1.271,28.715,28.715,0,0,1,27.895-1Zm0,55.789A26.9,26.9,0,0,0,38.363,3.113,26.9,26.9,0,0,0,17.426,52.676,26.725,26.725,0,0,0,27.895,54.789Z" transform="translate(-246.208 -1377.806)" fill="#5bb3b3" />
            <path d="M135.034,36.121a1,1,0,0,1-.7-.282l-9.725-9.43a1,1,0,0,1-.3-.718V8.66a1,1,0,0,1,2,0V25.268L135.73,34.4a1,1,0,0,1-.7,1.718Z" transform="translate(-343.473 -1375.455)" fill="#5bb3b3" />
        </g>
        <g transform="translate(119 1423)">
            <path d="M68.259,211.509A120.586,120.586,0,0,1,44,209.335a32.014,32.014,0,0,1-7.532-2.422c-2.135-1.09-3.218-2.352-3.218-3.75a3.319,3.319,0,0,1,1.264-2.459,10.771,10.771,0,0,1,2.931-1.748,44.977,44.977,0,0,1,9.847-2.591,1,1,0,0,1,.33,1.973c-9.786,1.637-12.372,3.873-12.372,4.826,0,.83,1.932,2.653,9.171,4.216a118.568,118.568,0,0,0,23.835,2.129,118.569,118.569,0,0,0,23.835-2.129c7.24-1.564,9.171-3.386,9.171-4.216,0-.767-.889-1.619-2.5-2.4a34.439,34.439,0,0,0-8.924-2.428,1,1,0,1,1,.324-1.974,36.294,36.294,0,0,1,9.469,2.6c2.412,1.164,3.634,2.577,3.634,4.2,0,1.4-1.083,2.659-3.217,3.75a32.013,32.013,0,0,1-7.531,2.422A120.586,120.586,0,0,1,68.259,211.509Z" transform="translate(-95.524 -1327.678)" fill="#5bb3b3" />
            <path d="M22.486-1A92.574,92.574,0,0,1,38.568.24c5.051.938,7.4,2.189,7.4,3.937s-2.352,3-7.4,3.937a92.574,92.574,0,0,1-16.082,1.24A92.574,92.574,0,0,1,6.4,8.114C1.352,7.176-1,5.925-1,4.177s2.352-3,7.4-3.937A92.574,92.574,0,0,1,22.486-1ZM43.941,4.177a3.928,3.928,0,0,0-1.628-.909A26.8,26.8,0,0,0,37.6,2.1,93.368,93.368,0,0,0,22.486,1,93.368,93.368,0,0,0,7.37,2.1,26.8,26.8,0,0,0,2.659,3.268a3.928,3.928,0,0,0-1.628.909,3.928,3.928,0,0,0,1.628.909A26.8,26.8,0,0,0,7.37,6.256a93.368,93.368,0,0,0,15.115,1.1A93.368,93.368,0,0,0,37.6,6.256a26.8,26.8,0,0,0,4.711-1.169A3.928,3.928,0,0,0,43.941,4.177Z" transform="translate(-49.751 -1157.714)" fill="#5bb3b3" />
            <path d="M82.013,199.526H58.534a11.51,11.51,0,0,1-8.357-3.617,12.425,12.425,0,0,1-3.454-8.65V171.487a12.834,12.834,0,0,1,.081-1.439,1,1,0,0,1,1.987.225,10.828,10.828,0,0,0-.068,1.214v15.771a10.435,10.435,0,0,0,2.9,7.265,9.528,9.528,0,0,0,6.914,3H82.013a9.528,9.528,0,0,0,6.914-3,10.435,10.435,0,0,0,2.9-7.265V171.487a10.716,10.716,0,0,0-.078-1.3,1,1,0,1,1,1.985-.243,12.723,12.723,0,0,1,.093,1.541v15.771a12.425,12.425,0,0,1-3.454,8.65A11.51,11.51,0,0,1,82.013,199.526Z" transform="translate(-97.539 -1323.604)" fill="#5bb3b3" />
            <path d="M103.922,192.054a6.767,6.767,0,0,1-3.945-1.3,1,1,0,0,1,1.163-1.627,4.78,4.78,0,0,0,2.782.929c3.079,0,5.583-3.09,5.583-6.888s-2.5-6.889-5.583-6.889a4.694,4.694,0,0,0-2.641.827,1,1,0,1,1-1.11-1.663,6.75,6.75,0,0,1,3.751-1.163,7.029,7.029,0,0,1,5.423,2.67,10.03,10.03,0,0,1,0,12.437A7.029,7.029,0,0,1,103.922,192.054Z" transform="translate(-105.441 -1324.384)" fill="#5bb3b3" />
        </g>
        <g transform="translate(0 -23.126)">
            <path d="M0-1H26.892a1,1,0,0,1,1,1V99.1a1,1,0,0,1-1,1H0a1,1,0,0,1-1-1V0A1,1,0,0,1,0-1ZM25.892,1H1V98.1H25.892Z" transform="translate(333.102 123.367)" fill="#5bb3b3" />
            <path d="M4.538-1a5.507,5.507,0,0,1,5.538,5.464A5.507,5.507,0,0,1,4.538,9.928,5.507,5.507,0,0,1-1,4.464,5.507,5.507,0,0,1,4.538-1Zm0,8.928A3.505,3.505,0,0,0,8.076,4.464,3.505,3.505,0,0,0,4.538,1,3.505,3.505,0,0,0,1,4.464,3.505,3.505,0,0,0,4.538,7.928Z" transform="translate(342.011 206.596)" fill="#5bb3b3" />
            <path d="M7.731,1H0A1,1,0,0,1-1,0,1,1,0,0,1,0-1H7.731a1,1,0,0,1,1,1A1,1,0,0,1,7.731,1Z" transform="translate(342.683 198.109)" fill="#5bb3b3" />
            <path d="M14.455,1H0A1,1,0,0,1-1,0,1,1,0,0,1,0-1H14.455a1,1,0,0,1,1,1A1,1,0,0,1,14.455,1Z" transform="translate(339.322 191.999)" fill="#5bb3b3" />
            <path d="M0-1H26.892a1,1,0,0,1,1,1V99.1a1,1,0,0,1-1,1H0a1,1,0,0,1-1-1V0A1,1,0,0,1,0-1ZM25.892,1H1V98.1H25.892Z" transform="translate(366.841 123.367)" fill="#5bb3b3" />
            <path d="M4.538-1a5.507,5.507,0,0,1,5.538,5.464A5.507,5.507,0,0,1,4.538,9.928,5.507,5.507,0,0,1-1,4.464,5.507,5.507,0,0,1,4.538-1Zm0,8.928A3.505,3.505,0,0,0,8.076,4.464,3.505,3.505,0,0,0,4.538,1,3.505,3.505,0,0,0,1,4.464,3.505,3.505,0,0,0,4.538,7.928Z" transform="translate(375.749 206.596)" fill="#5bb3b3" />
            <path d="M7.731,1H0A1,1,0,0,1-1,0,1,1,0,0,1,0-1H7.731a1,1,0,0,1,1,1A1,1,0,0,1,7.731,1Z" transform="translate(376.421 198.109)" fill="#5bb3b3" />
            <path d="M14.455,1H0A1,1,0,0,1-1,0,1,1,0,0,1,0-1H14.455a1,1,0,0,1,1,1A1,1,0,0,1,14.455,1Z" transform="translate(373.059 191.999)" fill="#5bb3b3" />
        </g>
        <path d="M100,1H0A1,1,0,0,1-1,0,1,1,0,0,1,0-1H100a1,1,0,0,1,1,1A1,1,0,0,1,100,1Z" transform="translate(310 80.179)" fill="#5bb3b3" />
        <path d="M100,1H0A1,1,0,0,1-1,0,1,1,0,0,1,0-1H100a1,1,0,0,1,1,1A1,1,0,0,1,100,1Z" transform="translate(310 90.21)" fill="#5bb3b3" />
        <path d="M0-1H13.8a1,1,0,0,1,1,1V60.3a1,1,0,0,1-1,1H0a1,1,0,0,1-1-1V0A1,1,0,0,1,0-1ZM12.8,1H1V59.3H12.8Z" transform="translate(338.084 15.414)" fill="#5bb3b3" />
        <path d="M0-1H13.8a1,1,0,0,1,1,1V60.3a1,1,0,0,1-1,1H0a1,1,0,0,1-1-1V0A1,1,0,0,1,0-1ZM12.8,1H1V59.3H12.8Z" transform="translate(317.019 15.414)" fill="#5bb3b3" />
        <path d="M3.068,1H0A1,1,0,0,1-1,0,1,1,0,0,1,0-1H3.068a1,1,0,0,1,1,1A1,1,0,0,1,3.068,1Z" transform="translate(343.451 43.037)" fill="#5bb3b3" />
        <path d="M3.068,1H0A1,1,0,0,1-1,0,1,1,0,0,1,0-1H3.068a1,1,0,0,1,1,1A1,1,0,0,1,3.068,1Z" transform="translate(322.386 43.037)" fill="#5bb3b3" />
        <path d="M3.068,1H0A1,1,0,0,1-1,0,1,1,0,0,1,0-1H3.068a1,1,0,0,1,1,1A1,1,0,0,1,3.068,1Z" transform="translate(343.451 48.936)" fill="#5bb3b3" />
        <path d="M3.068,1H0A1,1,0,0,1-1,0,1,1,0,0,1,0-1H3.068a1,1,0,0,1,1,1A1,1,0,0,1,3.068,1Z" transform="translate(322.386 48.936)" fill="#5bb3b3" />
        <path d="M0-1H13.8a1,1,0,0,1,1,1V60.3a1,1,0,0,1-1,1H0a1,1,0,0,1-1-1V0A1,1,0,0,1,0-1ZM12.8,1H1V59.3H12.8Z" transform="translate(358.645 15.414)" fill="#5bb3b3" />
        <path d="M3.068,1H0A1,1,0,0,1-1,0,1,1,0,0,1,0-1H3.068a1,1,0,0,1,1,1A1,1,0,0,1,3.068,1Z" transform="translate(364.012 43.037)" fill="#5bb3b3" />
        <path d="M3.068,1H0A1,1,0,0,1-1,0,1,1,0,0,1,0-1H3.068a1,1,0,0,1,1,1A1,1,0,0,1,3.068,1Z" transform="translate(364.012 48.936)" fill="#5bb3b3" />
        <path d="M0-1H13.8a1,1,0,0,1,1,1V60.3a1,1,0,0,1-1,1H0a1,1,0,0,1-1-1V0A1,1,0,0,1,0-1ZM12.8,1H1V59.3H12.8Z" transform="translate(376.342 19.141) rotate(-18.43)" fill="#5bb3b3" />
        <path d="M0,1.971a1,1,0,0,1-.948-.684A1,1,0,0,1-.316.022l2.909-.97a1,1,0,0,1,1.265.632A1,1,0,0,1,3.225.949l-2.909.97A1,1,0,0,1,0,1.971Z" transform="translate(390.167 42.681)" fill="#5bb3b3" />
        <path d="M0,1.971a1,1,0,0,1-.948-.684A1,1,0,0,1-.316.022l2.909-.97a1,1,0,0,1,1.265.632A1,1,0,0,1,3.225.949l-2.909.97A1,1,0,0,1,0,1.971Z" transform="translate(392.032 48.277)" fill="#5bb3b3" />
        <g transform="translate(2.368 10)">
            <path d="M136.552,236.18V231.8l18.826-15.281h87.515L261.719,231.8v4Z" transform="translate(-2 19.047)" fill="#9aa2b0" />
            <path d="M136.552,236.18V231.8l18.826-15.281h87.515L261.719,231.8v4Z" transform="translate(-2 19.047)" fill="#7a8293" />
            <path d="M136.552,237.68a1.5,1.5,0,0,1-1.5-1.5V231.8a1.5,1.5,0,0,1,.555-1.165l18.826-15.281a1.5,1.5,0,0,1,.945-.335h87.515a1.5,1.5,0,0,1,.945.335l18.826,15.281a1.5,1.5,0,0,1,.555,1.165v4a1.5,1.5,0,0,1-1.5,1.5l-125.167.378Zm1.5-5.166v2.161l122.167-.369v-1.792l-17.858-14.5H155.91Z" transform="translate(-2 19.047)" fill="#7a8293" />
            <path d="M183.04,186.313l-3.968,30.556h40.2l-2.975-30.556Z" transform="translate(-2 15.9)" fill="#7a8293" />
            <path d="M111.361,64.163H287.4a4.614,4.614,0,0,1,4.614,4.614V184.458a4.614,4.614,0,0,1-4.614,4.614H111.361a4.614,4.614,0,0,1-4.614-4.614V68.777a4.614,4.614,0,0,1,4.614-4.614" transform="translate(-1.747 16.047)" fill="#313e58" />
            <path d="M0,0H165.387V94.057H0Z" transform="translate(115 90)" fill="#e88a2d" />
            <path d="M199.38,173.242a4.339,4.339,0,1,1-4.339,4.338,4.338,4.338,0,0,1,4.339-4.338" transform="translate(-2 16.047)" fill="#fff" />
            <path d="M136.552,231.222l18.826-19.657h87.515l18.826,19.283Z" transform="translate(-2 19.047)" fill="#d1d5db" />
            <path d="M136.552,232.722a1.5,1.5,0,0,1-1.083-2.538l18.826-19.657a1.5,1.5,0,0,1,1.083-.462h87.515a1.5,1.5,0,0,1,1.073.452L262.792,229.8a1.5,1.5,0,0,1-1.069,2.548l-125.167.374Zm19.466-19.657-15.943,16.646,118.093-.353-15.907-16.294Z" transform="translate(-2 19.047)" fill="#d1d5db" />
            <path d="M4.1,1.5H0A1.5,1.5,0,0,1-1.5,0,1.5,1.5,0,0,1,0-1.5H4.1A1.5,1.5,0,0,1,5.6,0,1.5,1.5,0,0,1,4.1,1.5Z" transform="translate(156.122 236.759)" fill="#313e58" />
            <path d="M4.1,1.5H0A1.5,1.5,0,0,1-1.5,0,1.5,1.5,0,0,1,0-1.5H4.1A1.5,1.5,0,0,1,5.6,0,1.5,1.5,0,0,1,4.1,1.5Z" transform="translate(167.344 236.759)" fill="#313e58" />
            <path d="M4.1,1.5H0A1.5,1.5,0,0,1-1.5,0,1.5,1.5,0,0,1,0-1.5H4.1A1.5,1.5,0,0,1,5.6,0,1.5,1.5,0,0,1,4.1,1.5Z" transform="translate(178.567 236.759)" fill="#313e58" />
            <path d="M4.1,1.5H0A1.5,1.5,0,0,1-1.5,0,1.5,1.5,0,0,1,0-1.5H4.1A1.5,1.5,0,0,1,5.6,0,1.5,1.5,0,0,1,4.1,1.5Z" transform="translate(150.078 243.414)" fill="#313e58" />
            <path d="M4.1,1.5H0A1.5,1.5,0,0,1-1.5,0,1.5,1.5,0,0,1,0-1.5H4.1A1.5,1.5,0,0,1,5.6,0,1.5,1.5,0,0,1,4.1,1.5Z" transform="translate(161.829 243.414)" fill="#313e58" />
            <path d="M4.1,1.5H0A1.5,1.5,0,0,1-1.5,0,1.5,1.5,0,0,1,0-1.5H4.1A1.5,1.5,0,0,1,5.6,0,1.5,1.5,0,0,1,4.1,1.5Z" transform="translate(173.052 243.414)" fill="#313e58" />
            <path d="M4.1,1.5H0A1.5,1.5,0,0,1-1.5,0,1.5,1.5,0,0,1,0-1.5H4.1A1.5,1.5,0,0,1,5.6,0,1.5,1.5,0,0,1,4.1,1.5Z" transform="translate(217.642 243.5)" fill="#313e58" />
            <path d="M4.1,1.5H0A1.5,1.5,0,0,1-1.5,0,1.5,1.5,0,0,1,0-1.5H4.1A1.5,1.5,0,0,1,5.6,0,1.5,1.5,0,0,1,4.1,1.5Z" transform="translate(229.394 243.5)" fill="#313e58" />
            <path d="M4.1,1.5H0A1.5,1.5,0,0,1-1.5,0,1.5,1.5,0,0,1,0-1.5H4.1A1.5,1.5,0,0,1,5.6,0,1.5,1.5,0,0,1,4.1,1.5Z" transform="translate(240.616 243.5)" fill="#313e58" />
            <path d="M25.533,1.5H0A1.5,1.5,0,0,1-1.5,0,1.5,1.5,0,0,1,0-1.5H25.533a1.5,1.5,0,0,1,1.5,1.5A1.5,1.5,0,0,1,25.533,1.5Z" transform="translate(184.274 243.5)" fill="#313e58" />
            <path d="M4.1,1.5H0A1.5,1.5,0,0,1-1.5,0,1.5,1.5,0,0,1,0-1.5H4.1A1.5,1.5,0,0,1,5.6,0,1.5,1.5,0,0,1,4.1,1.5Z" transform="translate(189.79 236.759)" fill="#313e58" />
            <path d="M4.1,1.5H0A1.5,1.5,0,0,1-1.5,0,1.5,1.5,0,0,1,0-1.5H4.1A1.5,1.5,0,0,1,5.6,0,1.5,1.5,0,0,1,4.1,1.5Z" transform="translate(201.012 236.759)" fill="#313e58" />
            <path d="M4.1,1.5H0A1.5,1.5,0,0,1-1.5,0,1.5,1.5,0,0,1,0-1.5H4.1A1.5,1.5,0,0,1,5.6,0,1.5,1.5,0,0,1,4.1,1.5Z" transform="translate(212.235 236.5)" fill="#313e58" />
            <path d="M4.1,1.5H0A1.5,1.5,0,0,1-1.5,0,1.5,1.5,0,0,1,0-1.5H4.1A1.5,1.5,0,0,1,5.6,0,1.5,1.5,0,0,1,4.1,1.5Z" transform="translate(223.458 236.5)" fill="#313e58" />
            <path d="M4.1,1.5H0A1.5,1.5,0,0,1-1.5,0,1.5,1.5,0,0,1,0-1.5H4.1A1.5,1.5,0,0,1,5.6,0,1.5,1.5,0,0,1,4.1,1.5Z" transform="translate(234.681 236.5)" fill="#313e58" />
            <path d="M2034.589,1438.45H1992.5l-104.931-94.057h147.019v94.057Z" transform="translate(-1754.202 -1254.392)" fill="#f1b981" />
            <path d="M2034.589,1438.949h-42.279l-.142-.128-105.9-94.93h148.826v94.557h-.5Zm-41.9-1h41.4v-93.057H1888.877Z" transform="translate(-1754.202 -1254.392)" fill="rgba(0,0,0,0)" />
            <rect width="40" height="34" transform="translate(175 128)" fill="#acb1bc" />
            <g transform="translate(171.875 94.41)">
                <g clip-path="url(#a)">
                    <path d="M8.051,49.154V29.209a4.074,4.074,0,0,0-1.193-2.881l-3.59-3.589a5.82,5.82,0,0,0-1.712,4.132V52.288A5.845,5.845,0,0,0,7.4,58.132H37.089a5.831,5.831,0,0,0,4.132-1.712l-3.59-3.59a4.073,4.073,0,0,0-2.88-1.193H10.534a2.483,2.483,0,0,1-2.483-2.483" transform="translate(0.699 10.218)" fill="#7a8293" opacity="0.64" />
                </g>
            </g>
            <g transform="translate(0 -6)">
                <path d="M21.948,32.22A4.746,4.746,0,1,1,17.2,27.475a4.746,4.746,0,0,1,4.745,4.745" transform="translate(177.473 112.757)" fill="#313e58" />
                <path d="M16.405,43.863a2.175,2.175,0,0,1-2.174-2.174V31.423a2.173,2.173,0,1,1,4.347,0V41.689a2.175,2.175,0,0,1-2.173,2.174" transform="translate(178.27 113.554)" fill="#313e58" />
            </g>
            <path d="M33.434,25.166a2.175,2.175,0,0,1-2.174-2.174V15.078a10.731,10.731,0,0,0-21.461,0v7.914a2.174,2.174,0,1,1-4.348,0V15.078a15.079,15.079,0,0,1,30.157,0v7.914a2.175,2.175,0,0,1-2.174,2.174" transform="translate(174.325 101.41)" fill="#313e58" />
            <path d="M38.589,61.372H7.37A7.378,7.378,0,0,1,0,54V27.733a7.378,7.378,0,0,1,7.37-7.37H38.589a7.378,7.378,0,0,1,7.37,7.37V54a7.378,7.378,0,0,1-7.37,7.37M7.37,24.711a3.027,3.027,0,0,0-3.022,3.022V54A3.027,3.027,0,0,0,7.37,57.024H38.589A3.027,3.027,0,0,0,41.611,54V27.733a3.027,3.027,0,0,0-3.022-3.022Z" transform="translate(171.875 103.561)" fill="#313e58" />
        </g>
        <g transform="translate(717.727 1040.95)">
            <path d="M369.456,122.524s-30.075,50.938,2.035,62.4a60.748,60.748,0,0,0,14.261,1.651,54.953,54.953,0,0,0,13.844-1.651c32.11-11.464,2.035-62.4,2.035-62.4" transform="translate(-1063.047 -976.243)" fill="#bfe2e2" />
            <path d="M382.368,130.478a.825.825,0,0,1-.788-1.068l.081-.261c.2-.631.244-.786.269-.855a37.277,37.277,0,0,0,1.124-22.193,15.56,15.56,0,0,0-2.593-5.793c-2.019-2.557-5.341-4.187-8.272-5.625a.824.824,0,0,1,.726-1.48c3.088,1.516,6.589,3.233,8.839,6.084a17.085,17.085,0,0,1,2.9,6.4,38.926,38.926,0,0,1-1.173,23.176c-.022.064-.129.409-.242.773l-.081.262A.825.825,0,0,1,382.368,130.478Z" transform="translate(-1059.688 -981.7)" fill="#bfe2e2" />
            <path d="M381.052,128.658a.824.824,0,0,1-.824-.818,16.854,16.854,0,0,0-3.611-10.052,31.4,31.4,0,0,0-5.572-5.579l-.063-.051a.828.828,0,0,1-.143-.146h0l0,0a.824.824,0,0,1,1.189-1.128l.06.049a33.348,33.348,0,0,1,5.851,5.87,18.465,18.465,0,0,1,3.938,11.025.824.824,0,0,1-.818.83Z" transform="translate(-1062.554 -980.23)" fill="#bfe2e2" />
            <path d="M379.618,82.091a9.412,9.412,0,0,1,8.822.33,2.88,2.88,0,0,1,1.408,1.706,2.732,2.732,0,0,1-.391,1.76c-2.078,3.951-8.578,6.334-13.252,6.737,2.684.683,6.6.8,9.021,2.081a3.067,3.067,0,0,1,1.5,1.312,2.08,2.08,0,0,1-1.3,2.492,6.937,6.937,0,0,1-3.192.361c-1.927-.084-4.032-.236-5.429-1.483l1.147,5.464a8.571,8.571,0,0,1,.18,4.154c-.759,2.585-3.862,4.036-6.716,4.011-1.531-.014-3.246-.494-3.922-1.784a4.067,4.067,0,0,1-.3-2.234,16.114,16.114,0,0,1,3.174-8.33,18.5,18.5,0,0,1-8.27,8.847,3,3,0,0,1-2.246.46,2.371,2.371,0,0,1-1.4-1.932,7.488,7.488,0,0,1,2.068-6.269c1.559-1.723,5.755-3.432,7.943-4.374-2.131.133-6.526.735-8.275-.418-2.74-1.806-2.35-6.34.55-7.912s6.436-.657,7.5,2.326a6.79,6.79,0,0,1-.926-5.166c.382-2.041,2.666-3.874,4.731-3.143a4.049,4.049,0,0,1,2.18,2.159c.5,1.035-.324,4.748-.337,5.875C374.75,87.146,377.592,83.041,379.618,82.091Z" transform="translate(-1062.717 -984.491)" fill="#bfe2e2" />
            <path d="M384.471,132.6a.825.825,0,0,1-.811-.976,44.2,44.2,0,0,1,6.057-15.554,61.067,61.067,0,0,1,12.025-13.67.824.824,0,0,1,1.082,1.244,59.453,59.453,0,0,0-11.708,13.3,42.577,42.577,0,0,0-5.835,14.984A.825.825,0,0,1,384.471,132.6Z" transform="translate(-1057.325 -983.692)" fill="#bfe2e2" />
            <path d="M414.205,92.014c1.848-.343,4.154-.061,4.992,1.524.954,1.806-.653,3.866-2.308,5.148-1.953,1.513-4.44,2.812-6.909,2.292a19.767,19.767,0,0,1,7.483,3.138,3.551,3.551,0,0,1,1.856,2.555c.019,1.479-1.7,2.447-3.262,2.655a8.46,8.46,0,0,1-8.607-4.561,6.788,6.788,0,0,1-1.914,5.595,7.766,7.766,0,0,1-5.791,2.22,3.228,3.228,0,0,1-2.441-.989,2.854,2.854,0,0,1-.28-2.471,8.086,8.086,0,0,1,4.032-5.035,9.766,9.766,0,0,1-10.192.017,2.088,2.088,0,0,1-1-1.116,1.951,1.951,0,0,1,.328-1.395,9.059,9.059,0,0,1,5.919-4.278c1.62-.352,3.627-.121,4.467,1.227a10.155,10.155,0,0,1-5.73-6.292,4.829,4.829,0,0,1,.037-3.35,2.847,2.847,0,0,1,2.859-1.686,3.825,3.825,0,0,1,2.331,1.694c1.716,2.3,1.63,2.642,2.283,7.708a8.307,8.307,0,0,1,3.739-8.651,5.969,5.969,0,0,1,4.505-.935,3.159,3.159,0,0,1,2.538,3.3c-.216,1.2-1.3,2.066-2.315,2.823-1.14.851-2.272,1.711-3.422,2.549A12.411,12.411,0,0,1,414.205,92.014Z" transform="translate(-1056.473 -983.307)" fill="#bfe2e2" />
            <path d="M-527.535,2651.207a5.686,5.686,0,0,1,.521-5.411,9.761,9.761,0,0,1,4.406-3.521l-.132-.288a4.09,4.09,0,0,1-2.543-3.894,3.269,3.269,0,0,1,3.53-2.81c1.125.152,3.527,1.755,5.034,2.83l6.491-5.112a10.179,10.179,0,0,1,6.607,2.8,1.733,1.733,0,0,1,.467.64c.241.707-.442,1.392-1.129,1.758-1.74.93-3.761.761-5.79.367a9.63,9.63,0,0,1,4.539,4.885c.619,1.465.715,3.521-.783,4.23a3.775,3.775,0,0,1-2.678-.078,18.2,18.2,0,0,1-8.851-6l2.821,3.934c1.114,1.553,2.277,3.3,1.99,5.152a1.845,1.845,0,0,1-1,1.49,2.493,2.493,0,0,1-2.4-.773,13.641,13.641,0,0,1-4.12-6.271,17.876,17.876,0,0,1-.311,6.947,2.516,2.516,0,0,1-.6,1.26,2.238,2.238,0,0,1-1.246.53,4.078,4.078,0,0,1-.583.042A4.847,4.847,0,0,1-527.535,2651.207Z" transform="translate(-173.974 -3512.172)" fill="#bfe2e2" />
        </g>
        <g transform="translate(613.818 1388.35)">
            <g transform="translate(-343.747 -1328.716)">
                <path d="M11.845,13.366C9.449,9.95,5,1.274,1.631.053-.54-.733.093,7.4.066,8.951a129.988,129.988,0,0,0,1.2,17.91c1.3,10.729,5.549,20.284,11.377,29.416,3,4.7,6.517,9.455,11.388,12.386,2.243,1.35,2.644,1.71,4.859,2.873,2.579,1.354,2.287,5.013,3.449,7.7,1.614,3.732,15.794,122.543,14.354,141.136-.128,1.648,2.17,2.042,2.285.03.61-10.667-4.666-84.538-7.328-108.7S36.3,66.207,33.595,57.85C30.318,47.71,24.4,35.516,19.474,26.06A112.442,112.442,0,0,0,11.845,13.366Z" transform="translate(46.664 81.81)" fill="#bfe2e2" />
                <path d="M9.455,1.3C3.221-3.278-3.526,5.359,2.115,9.937c3.119,2.53,6.379,1.63,8.214-.478,1.191,1.452,2.307,2.971,3.378,4.254,3.265,3.909,6.35,7.91,9.3,12.006,6.126,8.508,11.376,17.5,16.865,26.319,5.417,8.709,10.791,17.462,15.7,26.391,4.16,7.565,9.7,16.465,11.128,24.759-2.161-17.589-10.36-34.5-20.123-50C36.894,37.805,25.78,21.01,10.786,8.873A5.311,5.311,0,0,0,9.455,1.3Z" transform="translate(37.828 200.389)" fill="#bfe2e2" />
                <path d="M63.33.018C59.841.7,54.141,8.591,51.265,11.6a112.62,112.62,0,0,0-9.44,11.372,192.337,192.337,0,0,0-16.7,27.244A253.229,253.229,0,0,0,6.537,98.579,199.514,199.514,0,0,0,.9,130.3c-.2,2.009-2.307,17.495.727,17.912,2.729.376,1.886-11.759,2.018-13.41,1.488-18.622,5.947-36.742,12.149-54.294,1.351-3.824,2.606-8.507,4.766-11.948,1.556-2.478.011-1.614,2.745-2.552,2.348-.806,5.022-.609,7.426-1.6,5.222-2.142,9.4-6.3,13.07-10.481C50.923,45.808,56.568,37.015,59.51,26.6A131.607,131.607,0,0,0,63.475,9.066C63.69,7.527,65.577-.422,63.33.018Z" transform="translate(95.692 170.745)" fill="#bfe2e2" />
                <path d="M52.4,7.916A357.135,357.135,0,0,0,20.831,86.464c-4.361,16.47-7.453,33.36-10.526,50.127C5.548,162.553,1.036,188.511-.4,214.9c-1.444,26.547-4.125,57.174,3.8,82.664C-.451,271.654,3.637,244,4.531,217.884,4.958,205.417,6,193.066,7.348,180.664c1.3-12.031,3.371-24.011,5.3-35.953q1.411-8.724,2.93-17.428c.3-1.732.461-6.864,1.5-8.055s6.318-1.728,7.98-2.615a43.84,43.84,0,0,0,9.3-6.97A80.1,80.1,0,0,0,48.1,91.351c8.57-15.142,12.1-33.56,12.064-51.011C60.154,36.952,55.347.508,57.4-.012c-.122-.153-.237-.312-.346-.476Q54.694,3.693,52.4,7.916Z" transform="translate(66.229 7.886) rotate(-7)" fill="#bfe2e2" />
                <path d="M2.368,2.216C2.165,1.924.846-.11,1.51.02.157-.245,3.371,2.263,0,.724,1.6,2.236.677,4.2.656,6.234A49.343,49.343,0,0,0,1.8,16.046a67.283,67.283,0,0,0,4.573,14.83,66.453,66.453,0,0,0,21.84,26.8c4.611,3.2,9.13,4.285,14.388,5.757,3.322.93,3.585,2.648,5.348,5.871,3.671,6.713,7.276,13.4,10.513,20.342,3.865,8.287,7.618,16.583,11.157,25.016,11.924,28.405,21.63,57.834,26.727,88.289.125-17.947-4.027-36.432-9.264-53.538A319.537,319.537,0,0,0,73,113.043c-1.284-2.881-3.229-6.587-3.774-9.768-.382-2.229.785-4.372,1.319-6.72a70.319,70.319,0,0,0,.1-28.577C68.634,57.842,62.8,53.138,52.936,51.7c-3.608-.525-8.194-.333-11.5-1.871-3.6-1.675-5.092-7.182-7.141-10.717a145.753,145.753,0,0,0-19.558-26.6A63.443,63.443,0,0,0,8.045,6.357C6.549,5.161,3.388,3.689,2.368,2.216Z" transform="translate(31.749 119.607) rotate(9)" fill="#bfe2e2" />
                <path d="M52.464,5.618C52.786,2.658,51.092,0,48.882,0H4.412C2.2,0,.508,2.658.83,5.618L4.267,37.181c1.048,9.622,7.145,16.75,14.327,16.75H34.7c7.182,0,13.279-7.128,14.327-16.75Z" transform="translate(66.195 268.616)" fill="#bfe2e2" />
                <path d="M-3756.859-6910.846s-3.883-.6-3.877-.888c.9-32.467,9.033-112.166,25.982-126.4,24.246-20.369,38.54-24.989,38.54-24.989s-9.559,31.222-27.7,49.615-22.076,24.006-26.014,25.413C-3752.195-6980.927-3756.859-6910.846-3756.859-6910.846Z" transform="translate(3857.11 7187.213)" fill="#bfe2e2" />
            </g>
        </g>
    </g>
</svg>