<svg xmlns="http://www.w3.org/2000/svg" xmlns:xlink="http://www.w3.org/1999/xlink" width="400"
    height="320" viewBox="0 0 400 320">
    <defs>
        <clipPath>
            <rect width="84.613" height="161.969" fill="#ffd964" />
        </clipPath>
        <clipPath >
            <rect width="68.145" height="117.661" transform="translate(0 0)" fill="none" />
        </clipPath>
        <clipPath>
            <rect width="61.549" height="114.398" transform="translate(0 0)" fill="none" />
        </clipPath>
        <clipPath >
            <rect width="400" height="320" />
        </clipPath>
    </defs>
    <g  clip-path="url(#f)">
        <g transform="translate(-17.268 45.533) rotate(-17)">
            <rect width="236.223" height="167.567" transform="translate(55.655 90.655)"
                fill="#e4e6ea" />
            <rect width="236.223" height="167.567" transform="translate(51 86)" fill="#96b7df" />
            <path
                d="M29.092,2A27.1,27.1,0,0,0,18.547,54.055,27.1,27.1,0,0,0,39.636,4.128,26.92,26.92,0,0,0,29.092,2m0-2A29.092,29.092,0,1,1,0,29.092,29.092,29.092,0,0,1,29.092,0Z"
                transform="translate(180.167 158.147)" fill="#fff" />
            <path
                d="M48.874,2A46.887,46.887,0,0,0,30.629,92.065,46.886,46.886,0,0,0,67.119,5.683,46.578,46.578,0,0,0,48.874,2m0-2A48.874,48.874,0,1,1,0,48.874,48.874,48.874,0,0,1,48.874,0Z"
                transform="translate(64.964 94.146)" fill="#fff" />
            <path
                d="M28.51,2A26.517,26.517,0,0,0,18.192,52.937,26.517,26.517,0,0,0,38.828,4.082,26.342,26.342,0,0,0,28.51,2m0-2A28.51,28.51,0,1,1,0,28.51,28.51,28.51,0,0,1,28.51,0Z"
                transform="translate(52.164 134.874)" fill="#fff" />
            <path d="M1,95.42H-1V0H1Z" transform="translate(209.258 86.582)" fill="#fff" />
            <path d="M1,62.838H-1V0H1Z" transform="translate(209.258 191.311)" fill="#fff" />
            <path d="M153.022,1H0V-1H153.022Z" transform="translate(134.784 227.385)" fill="#fff" />
            <path
                d="M15.128,2A13.128,13.128,0,0,0,5.845,24.41,13.128,13.128,0,1,0,24.41,5.845,13.042,13.042,0,0,0,15.128,2m0-2A15.128,15.128,0,1,1,0,15.128,15.128,15.128,0,0,1,15.128,0Z"
                transform="translate(194.13 172.111)" fill="#fff" />
            <path d="M77.965,1H0V-1H77.965Z" transform="translate(104.983 173.553)" fill="#fff" />
            <path d="M173.386,1H0V-1H173.386Z" transform="translate(114.42 143.019)" fill="#fff" />
            <path d="M77.965,1H0V-1H77.965Z" transform="translate(209.84 111.019)" fill="#fff" />
            <path d="M1,56.438H-1V0H1Z" transform="translate(114.42 86.582)" fill="#fff" />
            <path d="M2,2V43.383H32.91V2H2M0,0H34.91V45.383H0Z"
                transform="translate(99.874 204.694)" fill="#fff" />
            <path d="M2,2V43.383H32.91V2H2M0,0H34.91V45.383H0Z"
                transform="translate(57.982 204.694)" fill="#fff" />
        </g>
        <g transform="translate(372.974 222.919) rotate(88)">
            <g transform="translate(0 0)" clip-path="url(#a)">
                <path
                    d="M28.509,1.435S25.472,16.051,20.727,17,6.492,25.731,6.492,25.731,4.213,43.762,5.352,45.471s0,9.111,0,9.111H3.645A80.787,80.787,0,0,1,.8,18.9C3.543,11.917,13.843,1.827,21.3.107c2.467-.57,7.212,1.329,7.212,1.329"
                    transform="translate(28.662 107.388)" fill="#788295" />
                <path
                    d="M14.8,111.86s14.426-4.555,12.528-7.972-9.111-5.315-6.453-14.046,15.943-29.231,16.7-42.137S34.925,2.531,34.925,2.531s-7.214-5.694-11.009,0,0,40.24,0,40.24L0,96.675,1.9,109.2Z"
                    transform="translate(46.921 0)" fill="#edc95a" />
                <path
                    d="M0,1.435S3.037,16.051,7.782,17s14.235,8.732,14.235,8.732,2.279,18.031,1.139,19.74,0,9.111,0,9.111h1.708A80.787,80.787,0,0,0,27.711,18.9C24.966,11.917,14.666,1.827,7.212.107,4.745-.463,0,1.435,0,1.435"
                    transform="translate(27.442 107.388)" fill="#788295" />
                <path
                    d="M22.887,111.86s-14.426-4.555-12.528-7.972,9.111-5.315,6.453-14.046S.87,60.612.11,47.706,2.767,2.531,2.767,2.531s7.214-5.694,11.009,0,0,40.24,0,40.24l23.916,53.9-1.9,12.528Z"
                    transform="translate(0 0)" fill="#edc95a" />
                <path
                    d="M22.111,11.055A11.056,11.056,0,1,0,11.056,22.11,11.055,11.055,0,0,0,22.111,11.055"
                    transform="translate(30.686 110.043)" fill="#abb1bd" />
                <path d="M9.857,4.928A4.929,4.929,0,1,0,4.929,9.856,4.928,4.928,0,0,0,9.857,4.928"
                    transform="translate(36.813 116.17)" fill="#788295" />
            </g>
        </g>
        <g transform="translate(150.968 0) rotate(51)">
            <path
                d="M24.415,172.682,21.27,1.591C21.27.716,19.616,0,18.577,0H5.17C4.13,0,3.012.716,3.012,1.591L0,172.682c0,.875,4.836,3.419,12.448,3.419S24.415,172.682,24.415,172.682Z"
                transform="translate(39.377 24.176)" fill="#f1b981" />
            <path
                d="M12.448,176.6a29.188,29.188,0,0,1-9.242-1.409,12.872,12.872,0,0,1-2.6-1.184c-.756-.477-1.107-.9-1.107-1.326v-.009L2.512,1.582a1.924,1.924,0,0,1,.9-1.524A3.122,3.122,0,0,1,5.17-.5H18.577a4.5,4.5,0,0,1,1.971.526,1.92,1.92,0,0,1,1.222,1.56l3.15,171.335-.2.154a15.058,15.058,0,0,1-3.244,1.778A23.461,23.461,0,0,1,12.448,176.6ZM.5,172.636c.151.258,1.144,1,3.335,1.712a27.9,27.9,0,0,0,8.613,1.253A20.614,20.614,0,0,0,23.91,172.43L20.769,1.591C20.769,1.177,19.544.5,18.577.5H5.17c-.821,0-1.658.551-1.658,1.091V1.6Z"
                transform="translate(39.377 24.176)" fill="rgba(0,0,0,0)" />
            <g transform="translate(0 0)">
                <path
                    d="M62.818,24.665H38.924s-3.082-8.479-3.468-10.791-20.04,1.542-27.363,8.093C5.009,23.895,0,22.353,0,22.353S18.883,5.4,30.831,2.7,58.964,0,58.964,0s8.864,8.094,16.572,0c0,8.479.771,20.04.771,20.04s-11.561-8.478-13.488,4.625"
                    transform="translate(0 0.899)" fill="#788295" />
                <path
                    d="M7.751,22.1H2.013A2.019,2.019,0,0,1,0,20.083V2.013A2.019,2.019,0,0,1,2.013,0H7.751A2.019,2.019,0,0,1,9.763,2.013v18.07A2.019,2.019,0,0,1,7.751,22.1"
                    transform="translate(75.279 0)" fill="#5a667d" />
            </g>
        </g>
        <g transform="translate(23.486 222.919) rotate(28)">
            <path
                d="M364.574,221.815a59.593,59.593,0,0,1-7.91-1.14q-.04-.008-.08-.02L264.807,193.85a2.569,2.569,0,0,1-1.743-3.183l1.337-4.579a2.567,2.567,0,0,1,3.181-1.744l91.409,26.7q.038.011.075.025c.021.008,2.141.814,4.2,1.712,1.227.534,2.2,1,2.893,1.38.731.4,1.955,1.078,1.646,2.132l-1.337,4.578a1.263,1.263,0,0,1-1.026.868A4.061,4.061,0,0,1,364.574,221.815Zm-7.469-3.091a58.221,58.221,0,0,0,7.469,1.091h.123l1.045-3.578a26.468,26.468,0,0,0-3.792-1.846c-1.693-.722-3.3-1.339-3.558-1.437l-91.37-26.687a.559.559,0,0,0-.156-.022.569.569,0,0,0-.545.406l-1.337,4.58a.569.569,0,0,0,.384.7Z"
                transform="translate(-260.389 -185.243)" fill="#5ab3b3" />
            <path
                d="M0,8.7a1,1,0,0,1-.281-.04,1,1,0,0,1-.68-1.24L1.288-.28a1,1,0,0,1,1.24-.68A1,1,0,0,1,3.207.28L.96,7.977A1,1,0,0,1,0,8.7Z"
                transform="translate(7.025 0.691)" fill="#5ab3b3" />
            <path
                d="M339.281,192.27a1,1,0,0,1-.281-.04l-2.288-.668a2.571,2.571,0,0,1-1.744-3.182l.668-2.286a2.571,2.571,0,0,1,3.182-1.745l2.472.723a1,1,0,0,1-.561,1.92l-2.472-.723a.571.571,0,0,0-.7.385l-.668,2.286a.574.574,0,0,0,.386.7l2.287.668a1,1,0,0,1-.28,1.96Z"
                transform="translate(-335.866 -185.241)" fill="#5ab3b3" />
            <path
                d="M329.147,191.056a1.5,1.5,0,0,1-.425-.061l-7.442-2.174a1.509,1.509,0,0,1-1.024-1.873l.056-.189a1.507,1.507,0,0,1,1.872-1.024l7.442,2.174a1.509,1.509,0,0,1,1.024,1.873l-.055.187A1.514,1.514,0,0,1,329.147,191.056Z"
                transform="translate(-303.894 -184.657)" fill="#5ab3b3" />
            <path
                d="M0,8.132a1,1,0,0,1-.281-.04,1,1,0,0,1-.68-1.24L1.123-.28a1,1,0,0,1,1.24-.68A1,1,0,0,1,3.043.28L.96,7.412A1,1,0,0,1,0,8.132Z"
                transform="translate(39.964 10.57)" fill="#5ab3b3" />
            <path
                d="M0,8.132a1,1,0,0,1-.281-.04,1,1,0,0,1-.68-1.24L1.123-.28a1,1,0,0,1,1.24-.68A1,1,0,0,1,3.043.28L.96,7.412A1,1,0,0,1,0,8.132Z"
                transform="translate(41.618 11.053)" fill="#5ab3b3" />
            <path
                d="M263.631,211.949l-.278,0c-1.169-.018-2.249-.144-2.295-.149a1,1,0,0,1,.234-1.986h0c.009,0,.869.1,1.833.13.523.016.924.007,1.23-.014-.244-.163-.568-.361-.995-.6-.813-.447-1.561-.786-1.568-.789a1,1,0,1,1,.823-1.823c.038.017.934.423,1.88.955,1.93,1.086,2.335,1.727,2.477,2.211a1.317,1.317,0,0,1-.154,1.1C266.385,211.658,265.425,211.949,263.631,211.949Z"
                transform="translate(-155.638 -176.084)" fill="#5ab3b3" />
            <path
                d="M0,3.818a1,1,0,0,1-.281-.04,1,1,0,0,1-.68-1.24L-.137-.28A1,1,0,0,1,1.1-.96,1,1,0,0,1,1.783.28L.96,3.1A1,1,0,0,1,0,3.818Z"
                transform="translate(106.336 31.915)" fill="#5ab3b3" />
        </g>
        <path
            d="M2839-487.5V-515h-2.5a1.5,1.5,0,0,1-1.5-1.5,1.5,1.5,0,0,1,1.5-1.5h8a1.5,1.5,0,0,1,1.5,1.5,1.5,1.5,0,0,1-1.5,1.5H2842v27.5l-1.378,3.518Z"
            transform="translate(-1243.988 2593.041) rotate(-52)" fill="#5ab3b3" />
        <path
            d="M2839-487.5V-515h-2.5a1.5,1.5,0,0,1-1.5-1.5,1.5,1.5,0,0,1,1.5-1.5h8a1.5,1.5,0,0,1,1.5,1.5,1.5,1.5,0,0,1-1.5,1.5H2842v27.5l-1.378,3.518Z"
            transform="translate(-2530.156 975.886) rotate(-9)" fill="#5ab3b3" />
        <path
            d="M2839-487.5V-515h-2.5a1.5,1.5,0,0,1-1.5-1.5,1.5,1.5,0,0,1,1.5-1.5h8a1.5,1.5,0,0,1,1.5,1.5,1.5,1.5,0,0,1-1.5,1.5H2842v27.5l-1.378,3.518Z"
            transform="translate(-1842.379 2147.334) rotate(-37)" fill="#5ab3b3" />
        <path
            d="M2839-487.5V-515h-2.5a1.5,1.5,0,0,1-1.5-1.5,1.5,1.5,0,0,1,1.5-1.5h8a1.5,1.5,0,0,1,1.5,1.5,1.5,1.5,0,0,1-1.5,1.5H2842v27.5l-1.378,3.518Z"
            transform="matrix(0.982, 0.191, -0.191, 0.982, -2754.305, -3.951)" fill="#5ab3b3" />
        <g transform="translate(257.38 60.324) rotate(-45)">
            <g clip-path="url(#b)">
                <path
                    d="M0-1H19.915a1,1,0,0,1,1,1V98.748a1,1,0,0,1-1,1H0a1,1,0,0,1-1-1V0A1,1,0,0,1,0-1ZM18.915,1H1V97.748H18.915Z"
                    transform="translate(44.915 1)" fill="#5bb3b3" />
            </g>
            <rect width="66.145" height="19.915" transform="translate(1 96.746)" fill="#c0e2e2" />
            <g clip-path="url(#b)">
                <path
                    d="M0-1H66.145a1,1,0,0,1,1,1V19.915a1,1,0,0,1-1,1H0a1,1,0,0,1-1-1V0A1,1,0,0,1,0-1ZM65.145,1H1V18.915H65.145Z"
                    transform="translate(1 96.746)" fill="#5bb3b3" />
                <path
                    d="M3.447-1A4.447,4.447,0,1,1-1,3.447,4.452,4.452,0,0,1,3.447-1Zm0,6.894A2.447,2.447,0,1,0,1,3.447,2.45,2.45,0,0,0,3.447,5.894Z"
                    transform="translate(51.142 6.676)" fill="#5bb3b3" />
                <path
                    d="M13.532,1H0A1,1,0,0,1-1,0,1,1,0,0,1,0-1H13.532a1,1,0,0,1,1,1A1,1,0,0,1,13.532,1Z"
                    transform="translate(51.089 21.739)" fill="#5bb3b3" />
                <path
                    d="M5.823,1H0A1,1,0,0,1-1,0,1,1,0,0,1,0-1H5.823a1,1,0,0,1,1,1A1,1,0,0,1,5.823,1Z"
                    transform="translate(58.798 26.646)" fill="#5bb3b3" />
                <path
                    d="M5.823,1H0A1,1,0,0,1-1,0,1,1,0,0,1,0-1H5.823a1,1,0,0,1,1,1A1,1,0,0,1,5.823,1Z"
                    transform="translate(58.798 31.433)" fill="#5bb3b3" />
                <path
                    d="M5.823,1H0A1,1,0,0,1-1,0,1,1,0,0,1,0-1H5.823a1,1,0,0,1,1,1A1,1,0,0,1,5.823,1Z"
                    transform="translate(58.798 41.582)" fill="#5bb3b3" />
                <path
                    d="M5.823,1H0A1,1,0,0,1-1,0,1,1,0,0,1,0-1H5.823a1,1,0,0,1,1,1A1,1,0,0,1,5.823,1Z"
                    transform="translate(58.798 46.369)" fill="#5bb3b3" />
                <path
                    d="M5.823,1H0A1,1,0,0,1-1,0,1,1,0,0,1,0-1H5.823a1,1,0,0,1,1,1A1,1,0,0,1,5.823,1Z"
                    transform="translate(58.798 56.614)" fill="#5bb3b3" />
                <path
                    d="M5.823,1H0A1,1,0,0,1-1,0,1,1,0,0,1,0-1H5.823a1,1,0,0,1,1,1A1,1,0,0,1,5.823,1Z"
                    transform="translate(58.798 61.401)" fill="#5bb3b3" />
                <path
                    d="M5.823,1H0A1,1,0,0,1-1,0,1,1,0,0,1,0-1H5.823a1,1,0,0,1,1,1A1,1,0,0,1,5.823,1Z"
                    transform="translate(58.798 71.933)" fill="#5bb3b3" />
                <path
                    d="M5.823,1H0A1,1,0,0,1-1,0,1,1,0,0,1,0-1H5.823a1,1,0,0,1,1,1A1,1,0,0,1,5.823,1Z"
                    transform="translate(58.798 76.72)" fill="#5bb3b3" />
                <path
                    d="M5.823,1H0A1,1,0,0,1-1,0,1,1,0,0,1,0-1H5.823a1,1,0,0,1,1,1A1,1,0,0,1,5.823,1Z"
                    transform="translate(58.798 86.678)" fill="#5bb3b3" />
                <path
                    d="M5.823,1H0A1,1,0,0,1-1,0,1,1,0,0,1,0-1H5.823a1,1,0,0,1,1,1A1,1,0,0,1,5.823,1Z"
                    transform="translate(58.798 91.465)" fill="#5bb3b3" />
                <path
                    d="M13.532,1H0A1,1,0,0,1-1,0,1,1,0,0,1,0-1H13.532a1,1,0,0,1,1,1A1,1,0,0,1,13.532,1Z"
                    transform="translate(51.089 36.728)" fill="#5bb3b3" />
                <path
                    d="M13.532,1H0A1,1,0,0,1-1,0,1,1,0,0,1,0-1H13.532a1,1,0,0,1,1,1A1,1,0,0,1,13.532,1Z"
                    transform="translate(51.089 51.718)" fill="#5bb3b3" />
                <path
                    d="M13.532,1H0A1,1,0,0,1-1,0,1,1,0,0,1,0-1H13.532a1,1,0,0,1,1,1A1,1,0,0,1,13.532,1Z"
                    transform="translate(51.089 66.707)" fill="#5bb3b3" />
                <path
                    d="M13.532,1H0A1,1,0,0,1-1,0,1,1,0,0,1,0-1H13.532a1,1,0,0,1,1,1A1,1,0,0,1,13.532,1Z"
                    transform="translate(51.089 81.696)" fill="#5bb3b3" />
            </g>
        </g>
        <circle cx="9.852" cy="9.852" r="9.852"
            transform="matrix(0.985, -0.174, 0.174, 0.985, 22.249, 189.34)" fill="#bfe2e2" />
        <path
            d="M9.852-1A10.852,10.852,0,0,1,20.7,9.852,10.852,10.852,0,0,1,9.852,20.7,10.852,10.852,0,0,1-1,9.852,10.852,10.852,0,0,1,9.852-1Zm0,19.7A8.852,8.852,0,1,0,1,9.852,8.862,8.862,0,0,0,9.852,18.7Z"
            transform="matrix(0.985, -0.174, 0.174, 0.985, 22.249, 189.34)" fill="#5ab3b3" />
        <circle cx="9.852" cy="9.852" r="9.852"
            transform="matrix(0.985, -0.174, 0.174, 0.985, 47.605, 207.767)" fill="#bfe2e2" />
        <path
            d="M9.852-1A10.852,10.852,0,0,1,20.7,9.852,10.852,10.852,0,0,1,9.852,20.7,10.852,10.852,0,0,1-1,9.852,10.852,10.852,0,0,1,9.852-1Zm0,19.7A8.852,8.852,0,1,0,1,9.852,8.862,8.862,0,0,0,9.852,18.7Z"
            transform="matrix(0.985, -0.174, 0.174, 0.985, 47.605, 207.767)" fill="#5ab3b3" />
        <circle cx="9.852" cy="9.852" r="9.852"
            transform="matrix(0.985, -0.174, 0.174, 0.985, 47.209, 193.156)" fill="#bfe2e2" />
        <path
            d="M9.852-1A10.852,10.852,0,0,1,20.7,9.852,10.852,10.852,0,0,1,9.852,20.7,10.852,10.852,0,0,1-1,9.852,10.852,10.852,0,0,1,9.852-1Zm0,19.7A8.852,8.852,0,1,0,1,9.852,8.862,8.862,0,0,0,9.852,18.7Z"
            transform="matrix(0.985, -0.174, 0.174, 0.985, 47.209, 193.156)" fill="#5ab3b3" />
        <g transform="matrix(-0.966, -0.259, 0.259, -0.966, 57.746, 148.767)">
            <path
                d="M0,86.612l1.292,1.6,36.442,18.131h2.329L83.07,21.783l-.961-2.4L45.18,0H42.545L0,84.382Z"
                transform="translate(12.06 11.649)" fill="#bfe2e2" />
            <g transform="matrix(0.891, 0.454, -0.454, 0.891, 51.936, 0)">
                <g transform="translate(0 0)" clip-path="url(#d)">
                    <path
                        d="M6-1H52.716a7.008,7.008,0,0,1,7,7v99.565a7.008,7.008,0,0,1-7,7H6a7.008,7.008,0,0,1-7-7V6A7.008,7.008,0,0,1,6-1ZM52.716,110.565a5.006,5.006,0,0,0,5-5V6a5.006,5.006,0,0,0-5-5H6A5.006,5.006,0,0,0,1,6v99.565a5.006,5.006,0,0,0,5,5Z"
                        transform="translate(1.417 1.416)" fill="#70b1b1" />
                    <path
                        d="M3-1H42.516a4,4,0,0,1,4,4V95.579a4,4,0,0,1-4,4H3a4,4,0,0,1-4-4V3A4,4,0,0,1,3-1ZM42.516,97.579a2,2,0,0,0,2-2V3a2,2,0,0,0-2-2H3A2,2,0,0,0,1,3V95.579a2,2,0,0,0,2,2Z"
                        transform="translate(8.017 7.909)" fill="#70b1b1" />
                    <path
                        d="M28.57,7.941a1,1,0,0,1-1-1V5.786A4.792,4.792,0,0,0,22.784,1h-17A4.8,4.8,0,0,0,1,5.786V6.873a1,1,0,0,1-1,1,1,1,0,0,1-1-1V5.786A6.8,6.8,0,0,1,5.786-1h17A6.794,6.794,0,0,1,29.57,5.786V6.941A1,1,0,0,1,28.57,7.941Z"
                        transform="translate(16.489 99.446)" fill="#70b1b1" />
                </g>
            </g>
        </g>
    </g>
</svg>