<svg xmlns="http://www.w3.org/2000/svg" xmlns:xlink="http://www.w3.org/1999/xlink" width="400" height="320" viewBox="0 0 400 320">
    <defs>
        <clipPath>
            <rect width="179.768" height="188.878" transform="translate(0 0)" fill="none" stroke="#5bb3b3" stroke-width="2" />
        </clipPath>
        <clipPath >
            <rect width="59.348" height="110.307" fill="none" />
        </clipPath>
        <clipPath >
            <rect width="400" height="320" />
        </clipPath>
    </defs>
    <g clip-path="url(#d)">
        <rect width="400" height="320" fill="transparent" />
        <path d="M139.751.025a16.227,16.227,0,0,0-15.64,16.161V38.577h31.28V16.186A16.227,16.227,0,0,0,139.751.025" transform="translate(126.771 81.141)" fill="#acb1bc" />
        <path d="M147.319,0H37.918A16.237,16.237,0,0,0,21.729,16.188V143.36a16.237,16.237,0,0,0,16.189,16.189h78.028a16.237,16.237,0,0,0,16.189-16.189V38.579h.092V16.188A16.23,16.23,0,0,1,147.869.027C147.684.022,147.5,0,147.319,0" transform="translate(118.654 81.139)" fill="#e4e6ea" />
        <path d="M25.98,1974.889A16.237,16.237,0,0,1,9.791,1958.7V1831.528a16.237,16.237,0,0,1,16.189-16.189h1.892L47.261,1956.25l40.149,9.129s6.62,8.764,30.051,2.3a16.211,16.211,0,0,1-13.452,7.209Z" transform="translate(130.591 -1734.201)" fill="#7a8293" opacity="0.308" />
        <path d="M102.578,134.474V112.083H0v22.391a16.237,16.237,0,0,0,16.189,16.189H117.21c.282,0,.557-.028.834-.042a16.223,16.223,0,0,1-15.466-16.147" transform="translate(116.931 90.026)" fill="#acb1bc" />
        <path d="M72,2H0A2,2,0,0,1-2,0,2,2,0,0,1,0-2H72a2,2,0,0,1,2,2A2,2,0,0,1,72,2Z" transform="translate(160.5 117.5)" fill="#313e58" />
        <path d="M72,2H0A2,2,0,0,1-2,0,2,2,0,0,1,0-2H72a2,2,0,0,1,2,2A2,2,0,0,1,72,2Z" transform="translate(160.5 136.566)" fill="#313e58" />
        <path d="M72,2H0A2,2,0,0,1-2,0,2,2,0,0,1,0-2H72a2,2,0,0,1,2,2A2,2,0,0,1,72,2Z" transform="translate(160.5 155.631)" fill="#313e58" />
        <path d="M40,2H0A2,2,0,0,1-2,0,2,2,0,0,1,0-2H40a2,2,0,0,1,2,2A2,2,0,0,1,40,2Z" transform="translate(160.5 176.631)" fill="#313e58" />
        <rect width="68" height="68" rx="10" transform="matrix(0.951, 0.309, -0.309, 0.951, 326.909, 15.93)" fill="#bfe2e2" />
        <path d="M10,2a8.009,8.009,0,0,0-8,8V58a8.009,8.009,0,0,0,8,8H58a8.009,8.009,0,0,0,8-8V10a8.009,8.009,0,0,0-8-8H10m0-2H58A10,10,0,0,1,68,10V58A10,10,0,0,1,58,68H10A10,10,0,0,1,0,58V10A10,10,0,0,1,10,0Z" transform="matrix(0.951, 0.309, -0.309, 0.951, 326.909, 15.93)" fill="#5bb3b3" />
        <path d="M104.685,1H0A1,1,0,0,1-1,0,1,1,0,0,1,0-1H104.685a1,1,0,0,1,1,1A1,1,0,0,1,104.685,1Z" transform="translate(-6.754 19.744)" fill="#5bb3b3" />
        <path d="M80.932,1H0A1,1,0,0,1-1,0,1,1,0,0,1,0-1H80.932a1,1,0,0,1,1,1A1,1,0,0,1,80.932,1Z" transform="translate(-6.754 52.244)" fill="#5bb3b3" />
        <path d="M82.7,69.287H1.766a1,1,0,1,1,0-2H81.7V18.851H1.766a1,1,0,1,1,0-2H82.7a1,1,0,0,1,1,1V68.287A1,1,0,0,1,82.7,69.287Z" transform="translate(-8.52 23.543)" fill="#5bb3b3" />
        <path d="M80.932,1H0A1,1,0,0,1-1,0,1,1,0,0,1,0-1H80.932a1,1,0,0,1,1,1A1,1,0,0,1,80.932,1Z" transform="translate(-6.754 61.92)" fill="#5bb3b3" />
        <path d="M80.932,1H0A1,1,0,0,1-1,0,1,1,0,0,1,0-1H80.932a1,1,0,0,1,1,1A1,1,0,0,1,80.932,1Z" transform="translate(-6.754 71.89)" fill="#5bb3b3" />
        <path d="M80.932,1H0A1,1,0,0,1-1,0,1,1,0,0,1,0-1H80.932a1,1,0,0,1,1,1A1,1,0,0,1,80.932,1Z" transform="translate(-6.754 81.567)" fill="#5bb3b3" />
        <path d="M0,48.7a1,1,0,0,1-1-1V0A1,1,0,0,1,0-1,1,1,0,0,1,1,0V47.7A1,1,0,0,1,0,48.7Z" transform="translate(19.637 43.253)" fill="#5bb3b3" />
        <path d="M0,48.7a1,1,0,0,1-1-1V0A1,1,0,0,1,0-1,1,1,0,0,1,1,0V47.7A1,1,0,0,1,0,48.7Z" transform="translate(33.712 43.253)" fill="#5bb3b3" />
        <path d="M0,48.7a1,1,0,0,1-1-1V0A1,1,0,0,1,0-1,1,1,0,0,1,1,0V47.7A1,1,0,0,1,0,48.7Z" transform="translate(47.494 43.253)" fill="#5bb3b3" />
        <path d="M0,48.7a1,1,0,0,1-1-1V0A1,1,0,0,1,0-1,1,1,0,0,1,1,0V47.7A1,1,0,0,1,0,48.7Z" transform="translate(61.423 43.253)" fill="#5bb3b3" />
        <path d="M94.785,123.643H1.587a1,1,0,1,1,0-2h93.2a10.936,10.936,0,0,0,7.435-2.835,9.074,9.074,0,0,0,3.05-6.714V18.187a9.074,9.074,0,0,0-3.05-6.714,10.936,10.936,0,0,0-7.435-2.835H1a1,1,0,1,1,0-2H94.785A12.931,12.931,0,0,1,103.573,10a11.051,11.051,0,0,1,3.7,8.187v93.907a11.051,11.051,0,0,1-3.7,8.187A12.931,12.931,0,0,1,94.785,123.643Z" transform="translate(-8.634 22.027)" fill="#5bb3b3" />
        <path d="M0,48.7a1,1,0,0,1-1-1V0A1,1,0,0,1,0-1,1,1,0,0,1,1,0V47.7A1,1,0,0,1,0,48.7Z" transform="translate(5.269 43.253)" fill="#5bb3b3" />
        <path d="M13.765,103.293H1.919a1,1,0,0,1,0-2H12.765V75.531H1.919a1,1,0,0,1,0-2H13.765a1,1,0,0,1,1,1v27.761A1,1,0,0,1,13.765,103.293Z" transform="translate(-8.497 31.96)" fill="#5bb3b3" />
        <g transform="translate(489.583 368.622) rotate(172)">
            <g transform="translate(0 0)">
                <g clip-path="url(#a)">
                    <path d="M0-1H150.312a1,1,0,0,1,1,1V114.174a1,1,0,0,1-1,1H0a1,1,0,0,1-1-1V0A1,1,0,0,1,0-1ZM149.312,1H1V113.174H149.312Z" transform="translate(110.751 1.368) rotate(73.345)" fill="#5bb3b3" />
                    <path d="M5.428,181.943a1,1,0,0,1-.936-.647L-.936,166.912a1,1,0,0,1,.583-1.289,1,1,0,0,1,1.289.583L6.01,179.654l104.951-39.6L58.6,1.289l-8.8,3.32a1,1,0,0,1-.706-1.871L58.828-.936a1,1,0,0,1,.765.024,1,1,0,0,1,.524.558L113.185,140.28a1,1,0,0,1-.583,1.289L5.781,181.878A1,1,0,0,1,5.428,181.943Z" transform="translate(66.15 6.569)" fill="#5bb3b3" />
                </g>
            </g>
            <path d="M0,27.87a1,1,0,0,1-.958-.714,1,1,0,0,1,.671-1.245L89.529-.958a1,1,0,0,1,1.245.671A1,1,0,0,1,90.1.958L.287,27.827A1,1,0,0,1,0,27.87Z" transform="translate(48.775 134.626)" fill="#5bb3b3" />
            <path d="M0,27.87a1,1,0,0,1-.958-.714,1,1,0,0,1,.671-1.245L89.529-.958a1,1,0,0,1,1.245.671A1,1,0,0,1,90.1.958L.287,27.827A1,1,0,0,1,0,27.87Z" transform="translate(45.172 122.584)" fill="#5bb3b3" />
            <path d="M0,27.87a1,1,0,0,1-.958-.714,1,1,0,0,1,.671-1.245L89.529-.958a1,1,0,0,1,1.245.671A1,1,0,0,1,90.1.958L.287,27.827A1,1,0,0,1,0,27.87Z" transform="translate(41.119 109.036)" fill="#5bb3b3" />
            <path d="M0,27.87a1,1,0,0,1-.958-.714,1,1,0,0,1,.671-1.245L89.529-.958a1,1,0,0,1,1.245.671A1,1,0,0,1,90.1.958L.287,27.827A1,1,0,0,1,0,27.87Z" transform="translate(37.517 96.994)" fill="#5bb3b3" />
            <path d="M0,27.87a1,1,0,0,1-.958-.714,1,1,0,0,1,.671-1.245L89.529-.958a1,1,0,0,1,1.245.671A1,1,0,0,1,90.1.958L.287,27.827A1,1,0,0,1,0,27.87Z" transform="translate(33.164 82.443)" fill="#5bb3b3" />
            <path d="M0,27.87a1,1,0,0,1-.958-.714,1,1,0,0,1,.671-1.245L89.529-.958a1,1,0,0,1,1.245.671A1,1,0,0,1,90.1.958L.287,27.827A1,1,0,0,1,0,27.87Z" transform="translate(29.561 70.4)" fill="#5bb3b3" />
            <path d="M0,27.87a1,1,0,0,1-.958-.714,1,1,0,0,1,.671-1.245L89.529-.958a1,1,0,0,1,1.245.671A1,1,0,0,1,90.1.958L.287,27.827A1,1,0,0,1,0,27.87Z" transform="translate(25.508 56.853)" fill="#5bb3b3" />
            <path d="M0,27.87a1,1,0,0,1-.958-.714,1,1,0,0,1,.671-1.245L89.529-.958a1,1,0,0,1,1.245.671A1,1,0,0,1,90.1.958L.287,27.827A1,1,0,0,1,0,27.87Z" transform="translate(21.906 44.811)" fill="#5bb3b3" />
            <path d="M0,27.87a1,1,0,0,1-.958-.714,1,1,0,0,1,.671-1.245L89.529-.958a1,1,0,0,1,1.245.671A1,1,0,0,1,90.1.958L.287,27.827A1,1,0,0,1,0,27.87Z" transform="translate(17.703 30.761)" fill="#5bb3b3" />
            <path d="M0,27.87a1,1,0,0,1-.958-.714,1,1,0,0,1,.671-1.245L89.529-.958a1,1,0,0,1,1.245.671A1,1,0,0,1,90.1.958L.287,27.827A1,1,0,0,1,0,27.87Z" transform="translate(14.1 18.719)" fill="#5bb3b3" />
        </g>
        <path d="M9.852-1A10.852,10.852,0,0,1,20.7,9.852,10.852,10.852,0,0,1,9.852,20.7,10.852,10.852,0,0,1-1,9.852,10.852,10.852,0,0,1,9.852-1Zm0,19.7A8.852,8.852,0,1,0,1,9.852,8.862,8.862,0,0,0,9.852,18.7Z" transform="translate(305.896 157.522)" fill="#5bb3b3" />
        <path d="M9.852-1A10.852,10.852,0,0,1,20.7,9.852,10.852,10.852,0,0,1,9.852,20.7,10.852,10.852,0,0,1-1,9.852,10.852,10.852,0,0,1,9.852-1Zm0,19.7A8.852,8.852,0,1,0,1,9.852,8.862,8.862,0,0,0,9.852,18.7Z" transform="translate(287.985 194.43)" fill="#5bb3b3" />
        <path d="M9.852-1A10.852,10.852,0,0,1,20.7,9.852,10.852,10.852,0,0,1,9.852,20.7,10.852,10.852,0,0,1-1,9.852,10.852,10.852,0,0,1,9.852-1Zm0,19.7A8.852,8.852,0,1,0,1,9.852,8.862,8.862,0,0,0,9.852,18.7Z" transform="translate(322.624 176.943)" fill="#5bb3b3" />
        <path d="M103.9,85.618a10.853,10.853,0,0,1-8.1-18.055,1,1,0,1,1,1.5,1.327A8.852,8.852,0,1,0,110.538,80.64a1,1,0,0,1,1.5,1.327,10.78,10.78,0,0,1-7.47,3.63Q104.232,85.618,103.9,85.618Z" transform="translate(222.062 120.356)" fill="#5bb3b3" />
        <g transform="matrix(0.998, -0.07, 0.07, 0.998, -17.706, 8.678)">
            <path d="M414.486-1621.656l-1.246-1.542L378.1-1640.68h-2.245l-41.469,81.534.927,2.315,35.608,18.689h2.54l41.024-81.365Z" transform="translate(-315.506 1816.744)" fill="#bfe2e2" />
            <g transform="matrix(-0.891, -0.454, 0.454, -0.891, 60.53, 289.835)">
                <g transform="translate(0 0)" clip-path="url(#b)">
                    <path d="M6-1H50.616a7.008,7.008,0,0,1,7,7v95.575a7.008,7.008,0,0,1-7,7H6a7.008,7.008,0,0,1-7-7V6A7.008,7.008,0,0,1,6-1ZM50.616,106.575a5.006,5.006,0,0,0,5-5V6a5.006,5.006,0,0,0-5-5H6A5.006,5.006,0,0,0,1,6v95.575a5.006,5.006,0,0,0,5,5Z" transform="translate(1.366 1.366)" fill="#70b1b1" />
                    <path d="M3-1H40.888a4,4,0,0,1,4,4V92.053a4,4,0,0,1-4,4H3a4,4,0,0,1-4-4V3A4,4,0,0,1,3-1ZM40.888,94.053a2,2,0,0,0,2-2V3a2,2,0,0,0-2-2H3A2,2,0,0,0,1,3V92.053a2,2,0,0,0,2,2Z" transform="translate(7.73 7.626)" fill="#70b1b1" />
                    <path d="M27.549,7.693a1,1,0,0,1-1-1V5.579A4.585,4.585,0,0,0,21.969,1H5.579A4.585,4.585,0,0,0,1,5.579V6.627a1,1,0,0,1-1,1,1,1,0,0,1-1-1V5.579A6.587,6.587,0,0,1,5.579-1h16.39a6.587,6.587,0,0,1,6.579,6.579V6.693A1,1,0,0,1,27.549,7.693Z" transform="translate(15.9 95.89)" fill="#70b1b1" />
                </g>
            </g>
        </g>
        <g transform="translate(97.637 268.167)">
            <path d="M364.574,221.815a59.593,59.593,0,0,1-7.91-1.14q-.04-.008-.08-.02L264.807,193.85a2.569,2.569,0,0,1-1.743-3.183l1.337-4.579a2.567,2.567,0,0,1,3.181-1.744l91.409,26.7q.038.011.075.025c.021.008,2.141.814,4.2,1.712,1.227.534,2.2,1,2.893,1.38.731.4,1.955,1.078,1.646,2.132l-1.337,4.578a1.263,1.263,0,0,1-1.026.868A4.061,4.061,0,0,1,364.574,221.815Zm-7.469-3.091a58.221,58.221,0,0,0,7.469,1.091h.123l1.045-3.578a26.468,26.468,0,0,0-3.792-1.846c-1.693-.722-3.3-1.339-3.558-1.437l-91.37-26.687a.559.559,0,0,0-.156-.022.569.569,0,0,0-.545.406l-1.337,4.58a.569.569,0,0,0,.384.7Z" transform="translate(-260.389 -185.243)" fill="#5bb3b3" />
            <path d="M0,8.7a1,1,0,0,1-.281-.04,1,1,0,0,1-.68-1.24L1.288-.28a1,1,0,0,1,1.24-.68A1,1,0,0,1,3.207.28L.96,7.977A1,1,0,0,1,0,8.7Z" transform="translate(7.025 0.691)" fill="#5bb3b3" />
            <path d="M339.281,192.27a1,1,0,0,1-.281-.04l-2.288-.668a2.571,2.571,0,0,1-1.744-3.182l.668-2.286a2.571,2.571,0,0,1,3.182-1.745l2.472.723a1,1,0,0,1-.561,1.92l-2.472-.723a.571.571,0,0,0-.7.385l-.668,2.286a.574.574,0,0,0,.386.7l2.287.668a1,1,0,0,1-.28,1.96Z" transform="translate(-335.866 -185.241)" fill="#5bb3b3" />
            <path d="M329.147,191.056a1.5,1.5,0,0,1-.425-.061l-7.442-2.174a1.509,1.509,0,0,1-1.024-1.873l.056-.189a1.507,1.507,0,0,1,1.872-1.024l7.442,2.174a1.509,1.509,0,0,1,1.024,1.873l-.055.187A1.514,1.514,0,0,1,329.147,191.056Z" transform="translate(-303.894 -184.657)" fill="#5bb3b3" />
            <path d="M0,8.132a1,1,0,0,1-.281-.04,1,1,0,0,1-.68-1.24L1.123-.28a1,1,0,0,1,1.24-.68A1,1,0,0,1,3.043.28L.96,7.412A1,1,0,0,1,0,8.132Z" transform="translate(39.964 10.57)" fill="#5bb3b3" />
            <path d="M0,8.132a1,1,0,0,1-.281-.04,1,1,0,0,1-.68-1.24L1.123-.28a1,1,0,0,1,1.24-.68A1,1,0,0,1,3.043.28L.96,7.412A1,1,0,0,1,0,8.132Z" transform="translate(41.618 11.053)" fill="#5bb3b3" />
            <path d="M263.631,211.949l-.278,0c-1.169-.018-2.249-.144-2.295-.149a1,1,0,0,1,.234-1.986h0c.009,0,.869.1,1.833.13.523.016.924.007,1.23-.014-.244-.163-.568-.361-.995-.6-.813-.447-1.561-.786-1.568-.789a1,1,0,1,1,.823-1.823c.038.017.934.423,1.88.955,1.93,1.086,2.335,1.727,2.477,2.211a1.317,1.317,0,0,1-.154,1.1C266.385,211.658,265.425,211.949,263.631,211.949Z" transform="translate(-155.638 -176.084)" fill="#5bb3b3" />
            <path d="M0,3.818a1,1,0,0,1-.281-.04,1,1,0,0,1-.68-1.24L-.137-.28A1,1,0,0,1,1.1-.96,1,1,0,0,1,1.783.28L.96,3.1A1,1,0,0,1,0,3.818Z" transform="translate(106.336 31.915)" fill="#5bb3b3" />
        </g>
        <path d="M20.239,36.658,4.067,31.272a4.238,4.238,0,0,1-2.885-5.189,4.171,4.171,0,0,1,5.37-2.44l16.124,5.37" transform="translate(304.646 18.743)" fill="#fff" />
        <path d="M20.239,37.658a1,1,0,0,1-.316-.052L3.751,32.221a5.231,5.231,0,0,1-3.52-6.447,4.8,4.8,0,0,1,2.437-2.8,5.515,5.515,0,0,1,4.2-.279l16.124,5.37a1,1,0,1,1-.632,1.9L6.236,24.592a3.5,3.5,0,0,0-2.667.167,2.814,2.814,0,0,0-1.436,1.634,2.872,2.872,0,0,0,.258,2.3,3.541,3.541,0,0,0,1.992,1.628l16.172,5.386a1,1,0,0,1-.316,1.949Z" transform="translate(304.646 18.743)" fill="#5bb3b3" />
        <circle cx="23.482" cy="23.482" r="23.482" transform="translate(324.865 35.291)" fill="#fff" />
        <path d="M23.482-1a24.488,24.488,0,0,1,9.53,47.04A24.488,24.488,0,0,1,13.952.924,24.33,24.33,0,0,1,23.482-1Zm0,46.964a22.488,22.488,0,0,0,8.751-43.2A22.488,22.488,0,0,0,14.731,44.2,22.34,22.34,0,0,0,23.482,45.964Z" transform="translate(324.865 35.291)" fill="#5bb3b3" />
        <path d="M18.482-1A19.476,19.476,0,0,1,32.258,32.258,19.482,19.482,0,1,1,10.9.531,19.361,19.361,0,0,1,18.482-1Zm0,36.964A17.482,17.482,0,0,0,30.844,6.12,17.482,17.482,0,1,0,6.12,30.844,17.368,17.368,0,0,0,18.482,35.964Z" transform="translate(329.865 40.291)" fill="#5bb3b3" />
    </g>
</svg>