<svg xmlns="http://www.w3.org/2000/svg" xmlns:xlink="http://www.w3.org/1999/xlink" width="400" height="320" viewBox="0 0 400 320">
    <defs>
        <clipPath>
            <rect width="63.048" height="114.307" fill="none" stroke="#5bb3b3" stroke-width="2" />
        </clipPath>
        <clipPath>
            <rect width="400" height="320" />
        </clipPath>
    </defs>
    <g clip-path="url(#c)">
        <rect width="400" height="320" fill="transparent" />
        <g transform="translate(-26.439 -34.158)">
            <rect width="187.957" height="134.3" transform="translate(149.053 279.625) rotate(-82)" fill="#7a8293" />
            <rect width="187.957" height="134.3" transform="matrix(0.125, -0.992, 0.992, 0.125, 146, 276.493)" fill="#e4e6ea" />
            <path d="M83.751,125.594a2.026,2.026,0,0,1-.278-.019l-4.359-.564a7.068,7.068,0,0,1-5.521-3.53l-1.249-2.545h-.007l-1.76,2.029a7.185,7.185,0,0,1-6.43,2.1,7.05,7.05,0,0,1-6.2-6.49l-.034-.215c-.062-.407-.142-.922-.232-1.421-.215.46-.422.938-.586,1.313-1.136,2.618-2.435,5.582-5.254,5.219s-3.32-3.563-3.748-6.384c-.062-.4-.14-.917-.231-1.412-.215.455-.42.931-.583,1.306-1.136,2.617-2.407,5.588-5.252,5.217s-3.318-3.563-3.749-6.384c-.062-.4-.14-.915-.231-1.412-.213.455-.421.932-.583,1.306-1.134,2.618-2.417,5.592-5.253,5.219s-3.32-3.565-3.748-6.384c-.062-.405-.14-.917-.232-1.412-.213.458-.42.935-.583,1.31l-.067.155a6.637,6.637,0,0,1-3,3.821,6.989,6.989,0,0,1-5.8.256,2.147,2.147,0,1,1,1.365-4.072,3.008,3.008,0,0,0,2.332.07,2.382,2.382,0,0,0,1-1.33,2.893,2.893,0,0,1,.11-.325l.123-.284c1.136-2.619,2.416-5.6,5.254-5.222s3.32,3.562,3.748,6.383c.063.4.142.917.232,1.413.213-.457.421-.934.583-1.308,1.136-2.618,2.41-5.585,5.252-5.219s3.318,3.565,3.749,6.384c.062.4.14.917.231,1.414.215-.458.42-.932.581-1.308,1.136-2.618,2.42-5.59,5.253-5.217s3.32,3.563,3.749,6.386c.06.4.139.917.231,1.412.215-.457.422-.934.584-1.309,1.136-2.617,2.416-5.59,5.254-5.216s3.32,3.562,3.752,6.382l.047.311a1.817,1.817,0,0,1,.023.232,2.732,2.732,0,0,0,2.519,2.561,3.082,3.082,0,0,0,2.586-.664l1.948-2.246a4.325,4.325,0,0,1,6.8.881l1.375,2.8a3.022,3.022,0,0,0,2.215,1.166l4.358.566a2.148,2.148,0,0,1-.272,4.278" transform="translate(152.047 134.149)" fill="#7468b4" />
            <path d="M26.676,99.109h0" transform="translate(156.095 131.39)" fill="#0c8843" />
            <path d="M24.986,99.834l2.419-.729-2.419.729" transform="translate(155.365 131.394)" fill="#0c8843" />
            <path d="M83.482,11.979a1.514,1.514,0,0,1-.189-.012L-.187,1.488a1.5,1.5,0,0,1-1.3-1.675,1.5,1.5,0,0,1,1.675-1.3L83.667,8.991a1.5,1.5,0,0,1-.185,2.988Z" transform="translate(190.671 118.331)" fill="#313e58" />
            <path d="M83.482,11.979a1.514,1.514,0,0,1-.189-.012L-.187,1.488a1.5,1.5,0,0,1-1.3-1.675,1.5,1.5,0,0,1,1.675-1.3L83.667,8.991a1.5,1.5,0,0,1-.185,2.988Z" transform="translate(188.36 136.747)" fill="#313e58" />
            <path d="M57.535,8.722a1.514,1.514,0,0,1-.189-.012L-.187,1.488a1.5,1.5,0,0,1-1.3-1.675,1.5,1.5,0,0,1,1.675-1.3L57.72,5.734a1.5,1.5,0,0,1-.185,2.988Z" transform="translate(186.048 155.163)" fill="#313e58" />
            <path d="M30.12,5.281a1.514,1.514,0,0,1-.189-.012L-.187,1.488a1.5,1.5,0,0,1-1.3-1.675,1.5,1.5,0,0,1,1.675-1.3L30.3,2.293a1.5,1.5,0,0,1-.185,2.988Z" transform="translate(189.742 229.219)" fill="#313e58" />
            <path d="M83.482,11.979a1.514,1.514,0,0,1-.189-.012L-.187,1.488a1.5,1.5,0,0,1-1.3-1.675,1.5,1.5,0,0,1,1.675-1.3L83.667,8.991a1.5,1.5,0,0,1-.185,2.988Z" transform="translate(172.876 260.09)" fill="#313e58" />
            <g transform="matrix(0.985, -0.174, 0.174, 0.985, 223.401, 191.379)">
                <path d="M14.868,10.18,0,5.368,14.868,0" transform="matrix(0.875, -0.485, 0.485, 0.875, 0, 55.278)" fill="#e4e6ea" />
                <path d="M3.27,3.266h0L0,1.722,3.27,0V3.266Z" transform="matrix(0.875, -0.485, 0.485, 0.875, 5.09, 56.856)" fill="#7468b4" />
                <path d="M3.268,4.265a1,1,0,0,1-.441-.1L-.427,2.626A1,1,0,0,1-1,1.744,1,1,0,0,1-.466.837L2.8-.885a1,1,0,0,1,.983.029A1,1,0,0,1,4.27,0V3.263a1,1,0,0,1-1,1Z" transform="matrix(0.875, -0.485, 0.485, 0.875, 5.09, 56.856)" fill="#7468b4" />
                <path d="M0,0H7.5V10.286H0" transform="matrix(0.875, -0.485, 0.485, 0.875, 93.165, 3.635)" fill="#313e58" />
                <path d="M7.5,10.786H0a.5.5,0,0,1-.5-.5.5.5,0,0,1,.5-.5H7V.5H0A.5.5,0,0,1-.5,0,.5.5,0,0,1,0-.5H7.5A.5.5,0,0,1,8,0V10.286a.5.5,0,0,1-.5.5Z" transform="matrix(0.875, -0.485, 0.485, 0.875, 93.165, 3.635)" fill="#313e58" />
                <path d="M14.868,11.181a1,1,0,0,1-.308-.049L-.308,6.32A1,1,0,0,1-1,5.385a1,1,0,0,1,.66-.957L14.528-.941a1,1,0,0,1,1.28.6,1,1,0,0,1-.6,1.28L3.088,5.317,15.175,9.229a1,1,0,0,1-.308,1.952Z" transform="matrix(0.875, -0.485, 0.485, 0.875, 0, 55.278)" fill="#333e56" />
                <rect width="91.22" height="10.286" transform="matrix(0.875, -0.485, 0.485, 0.875, 13.004, 48.07)" fill="#7468b4" />
                <path d="M0-1H91.22a1,1,0,0,1,1,1V10.286a1,1,0,0,1-1,1H0a1,1,0,0,1-1-1V0A1,1,0,0,1,0-1ZM90.22,1H1V9.286H90.22Z" transform="matrix(0.875, -0.485, 0.485, 0.875, 13.004, 48.07)" fill="#7468b4" />
                <path d="M12.052,6.557c-3.4,0-7.47-.106-12.118-.416A1,1,0,0,1-1,5.077,1,1,0,0,1,.067,4.146,165.728,165.728,0,0,0,18.9,4.4c2.8-.136,4.772-.33,5.811-.45V0a1,1,0,0,1,1-1,1,1,0,0,1,1,1V4.831a1,1,0,0,1-.852.989c-.1.015-2.437.361-6.819.575C17.215,6.485,14.865,6.557,12.052,6.557Z" transform="matrix(0.875, -0.485, 0.485, 0.875, 77.087, 24.843)" fill="#313e58" />
                <path d="M0,0Z" transform="matrix(0.875, -0.485, 0.485, 0.875, 12.907, 68.635)" fill="#7468b4" />
            </g>
            <g transform="translate(167.889 170.737)">
                <path d="M34.117,83.684a17.245,17.245,0,0,1-2.417-.172,16.67,16.67,0,0,1-9.78-5.02,2.148,2.148,0,0,1,3.1-2.97,12.536,12.536,0,0,0,18.708-.682,2.147,2.147,0,1,1,3.305,2.743,16.712,16.712,0,0,1-12.921,6.1" transform="translate(-14.106 -50.164)" fill="#313e58" />
                <path d="M19.476,15.4a1.881,1.881,0,0,1,1.876,2.026L20.187,32.364A1.881,1.881,0,0,1,18.326,34.1l-2.213.014.175,25.215a1.472,1.472,0,0,1-1.462,1.484l-2.93.019h-.016a2.112,2.112,0,0,1-1.807-1.019L8.638,57.439l2.006-3.43-2.054-3.4L10.6,47.181l-2.054-3.4,2.008-3.43L8.5,36.951l-.019-2.784-2.211.014H6.25a1.88,1.88,0,0,1-1.872-1.708L3.007,17.554A1.881,1.881,0,0,1,4.867,15.5l14.594-.1h.014" transform="translate(-3 1.942)" fill="#cc7a29" />
                <path d="M11.9,61.83h-.019a3.127,3.127,0,0,1-2.663-1.5l-1.741-2.88,2.007-3.43-2.054-3.4,2.006-3.428-2.054-3.4,2.008-3.43L7.5,37.233l-.014-2.059-1.232.008a2.866,2.866,0,0,1-2.868-2.617L2.012,17.645A2.881,2.881,0,0,1,4.861,14.5l14.615-.1a2.881,2.881,0,0,1,2.873,3.1L21.184,32.441A2.881,2.881,0,0,1,18.333,35.1l-1.213.008.168,24.214a2.476,2.476,0,0,1-2.456,2.491Zm-2.1-4.4,1.126,1.863a1.116,1.116,0,0,0,.951.537h.012l2.927-.019a.474.474,0,0,0,.469-.477l-.182-26.215L18.32,33.1a.886.886,0,0,0,.871-.812l1.164-14.939a.881.881,0,0,0-.879-.948h-.01l-14.592.1A.881.881,0,0,0,4,17.464l1.37,14.918a.875.875,0,0,0,.876.8h.011l3.208-.021.024,3.508,2.221,3.674-2.008,3.43,2.054,3.4L9.754,50.6,11.808,54Z" transform="translate(-3 1.942)" fill="#cc7a29" />
                <path d="M64.428,3a1.594,1.594,0,0,1,1.53,1.151L66.84,7.2a2.285,2.285,0,0,1-.528,2.2l-2.048,2.189L60.1,10.5l-2.937,3.138-4.16-1.083-2.939,3.136-4.16-1.083L42.97,17.747l-2.894.837a10.227,10.227,0,1,1-2.3-7.936L63.984,3.063A1.589,1.589,0,0,1,64.428,3" transform="translate(4.951 -1.137)" fill="#cc7a29" />
                <path d="M29.978,28.421A11.3,11.3,0,0,1,23.3,26.212a11.2,11.2,0,1,1,14.8-16.7l25.6-7.41a2.592,2.592,0,0,1,3.213,1.77L67.8,6.92a3.3,3.3,0,0,1-.76,3.16L64.587,12.7l-4.16-1.084L57.49,14.756l-4.161-1.083-2.939,3.136-4.16-1.082-2.719,2.9-2.554.739a11.267,11.267,0,0,1-2.444,5.095A11.09,11.09,0,0,1,33.1,27.977,11.232,11.232,0,0,1,29.978,28.421ZM29.966,7.99A9.214,9.214,0,0,0,24.494,24.6a9.191,9.191,0,0,0,8.051,1.451,9.1,9.1,0,0,0,4.441-2.88,9.276,9.276,0,0,0,2.1-4.727l.088-.644,3.254-.941,3.155-3.371,4.161,1.083,2.939-3.136,4.16,1.082L59.78,9.383l4.16,1.084,1.642-1.755a1.292,1.292,0,0,0,.3-1.237L65,4.429a.592.592,0,0,0-.735-.405L37.432,11.789l-.419-.5A9.2,9.2,0,0,0,29.966,7.99Z" transform="translate(4.951 -1.137)" fill="#cc7a29" />
                <path d="M20.982,78.764a2.149,2.149,0,0,1-2.117-1.8,16.833,16.833,0,1,1,33.3-4.881,2.148,2.148,0,1,1-4.262.54,12.537,12.537,0,1,0-24.8,3.639,2.146,2.146,0,0,1-2.121,2.5" transform="translate(-15.266 -57.376)" fill="#313e58" />
                <path d="M24.99,115.7l1.685-2.944V70.81H24.856l.06,44.921c.026-.011.048-.014.074-.026" transform="translate(-14.214 -53.469)" fill="#f1b981" />
            </g>
        </g>
        <path d="M111.169,1H0A1,1,0,0,1-1,0,1,1,0,0,1,0-1H111.169a1,1,0,0,1,1,1A1,1,0,0,1,111.169,1Z" transform="translate(-2.699 18.744)" fill="#5bb3b3" />
        <path d="M85.945,1H0A1,1,0,0,1-1,0,1,1,0,0,1,0-1H85.945a1,1,0,0,1,1,1A1,1,0,0,1,85.945,1Z" transform="translate(-2.699 51.244)" fill="#5bb3b3" />
        <path d="M87.711,69.287H1.766a1,1,0,0,1,0-2H86.711V18.851H1.766a1,1,0,0,1,0-2H87.711a1,1,0,0,1,1,1V68.287A1,1,0,0,1,87.711,69.287Z" transform="translate(-4.465 22.543)" fill="#5bb3b3" />
        <path d="M85.945,1H0A1,1,0,0,1-1,0,1,1,0,0,1,0-1H85.945a1,1,0,0,1,1,1A1,1,0,0,1,85.945,1Z" transform="translate(-2.699 60.92)" fill="#5bb3b3" />
        <path d="M85.945,1H0A1,1,0,0,1-1,0,1,1,0,0,1,0-1H85.945a1,1,0,0,1,1,1A1,1,0,0,1,85.945,1Z" transform="translate(-2.699 70.89)" fill="#5bb3b3" />
        <path d="M85.945,1H0A1,1,0,0,1-1,0,1,1,0,0,1,0-1H85.945a1,1,0,0,1,1,1A1,1,0,0,1,85.945,1Z" transform="translate(-2.699 80.567)" fill="#5bb3b3" />
        <path d="M0,48.7a1,1,0,0,1-1-1V0A1,1,0,0,1,0-1,1,1,0,0,1,1,0V47.7A1,1,0,0,1,0,48.7Z" transform="translate(26.388 42.253)" fill="#5bb3b3" />
        <path d="M0,48.7a1,1,0,0,1-1-1V0A1,1,0,0,1,0-1,1,1,0,0,1,1,0V47.7A1,1,0,0,1,0,48.7Z" transform="translate(41.335 42.253)" fill="#5bb3b3" />
        <path d="M0,48.7a1,1,0,0,1-1-1V0A1,1,0,0,1,0-1,1,1,0,0,1,1,0V47.7A1,1,0,0,1,0,48.7Z" transform="translate(54.909 42.253)" fill="#5bb3b3" />
        <path d="M0,48.7a1,1,0,0,1-1-1V0A1,1,0,0,1,0-1,1,1,0,0,1,1,0V47.7A1,1,0,0,1,0,48.7Z" transform="translate(69.7 42.253)" fill="#5bb3b3" />
        <path d="M100.594,123.643H1.623a1,1,0,1,1,0-2h98.971a12.126,12.126,0,0,0,7.959-2.855,8.833,8.833,0,0,0,3.237-6.694V18.187a8.833,8.833,0,0,0-3.237-6.694,12.126,12.126,0,0,0-7.959-2.855H1a1,1,0,1,1,0-2h99.594a14.125,14.125,0,0,1,9.268,3.342,11.626,11.626,0,0,1,2.864,3.67,10.211,10.211,0,0,1,1.065,4.537v93.907a10.211,10.211,0,0,1-1.065,4.537,11.626,11.626,0,0,1-2.864,3.67A14.125,14.125,0,0,1,100.594,123.643Z" transform="translate(-4.634 21.027)" fill="#5bb3b3" />
        <path d="M0,48.7a1,1,0,0,1-1-1V0A1,1,0,0,1,0-1,1,1,0,0,1,1,0V47.7A1,1,0,0,1,0,48.7Z" transform="translate(11.13 42.253)" fill="#5bb3b3" />
        <path d="M24.72,100.257H1.919a1,1,0,1,1,0-2h21.8V75.531H1.919a1,1,0,1,1,0-2h22.8a1,1,0,0,1,1,1V99.257A1,1,0,0,1,24.72,100.257Z" transform="translate(-5.919 30.96)" fill="#5bb3b3" />
        <g transform="matrix(-0.719, -0.695, 0.695, -0.719, 262.861, 667.247)">
            <path d="M9.852-1A10.852,10.852,0,0,1,20.7,9.852,10.852,10.852,0,0,1,9.852,20.7,10.852,10.852,0,0,1-1,9.852,10.852,10.852,0,0,1,9.852-1Zm0,19.7A8.852,8.852,0,1,0,1,9.852,8.862,8.862,0,0,0,9.852,18.7Z" transform="translate(314.896 157.522)" fill="#5bb3b3" />
            <path d="M9.852-1A10.852,10.852,0,0,1,20.7,9.852,10.852,10.852,0,0,1,9.852,20.7,10.852,10.852,0,0,1-1,9.852,10.852,10.852,0,0,1,9.852-1Zm0,19.7A8.852,8.852,0,1,0,1,9.852,8.862,8.862,0,0,0,9.852,18.7Z" transform="translate(296.985 194.43)" fill="#5bb3b3" />
            <path d="M9.852-1A10.852,10.852,0,0,1,20.7,9.852,10.852,10.852,0,0,1,9.852,20.7,10.852,10.852,0,0,1-1,9.852,10.852,10.852,0,0,1,9.852-1Zm0,19.7A8.852,8.852,0,1,0,1,9.852,8.862,8.862,0,0,0,9.852,18.7Z" transform="translate(331.624 176.943)" fill="#5bb3b3" />
            <path d="M103.9,85.618a10.853,10.853,0,0,1-8.1-18.055,1,1,0,1,1,1.5,1.327A8.852,8.852,0,1,0,110.538,80.64a1,1,0,0,1,1.5,1.327,10.78,10.78,0,0,1-7.47,3.63Q104.232,85.618,103.9,85.618Z" transform="translate(231.062 120.356)" fill="#5bb3b3" />
        </g>
        <g transform="translate(1068.313 3396.53) rotate(12)">
            <path d="M100.757,128.424,51.268,153.14a6.776,6.776,0,0,1-9.064-3.026L1.708,69.03a6.776,6.776,0,0,1,3.026-9.064L54.223,35.25a6.776,6.776,0,0,1,9.064,3.026l40.5,81.084A6.777,6.777,0,0,1,100.757,128.424Z" transform="translate(-1694 -2961.249)" fill="#bfe2e2" />
            <path d="M48.269,154.848a7.821,7.821,0,0,1-4.038-1.125,7.709,7.709,0,0,1-2.921-3.163L.814,69.477A7.776,7.776,0,0,1,4.287,59.072L53.776,34.356a7.648,7.648,0,0,1,3.446-.813,7.82,7.82,0,0,1,4.038,1.125,7.709,7.709,0,0,1,2.921,3.163l40.5,81.084a7.766,7.766,0,0,1-3.474,10.405L51.714,154.035A7.644,7.644,0,0,1,48.269,154.848ZM57.223,35.542a5.665,5.665,0,0,0-2.553.6L5.181,60.861A5.776,5.776,0,0,0,2.6,68.584l40.5,81.084a5.712,5.712,0,0,0,2.165,2.343,5.821,5.821,0,0,0,3.005.837,5.661,5.661,0,0,0,2.552-.6l49.489-24.716a5.777,5.777,0,0,0,2.578-7.722l-40.5-81.084a5.712,5.712,0,0,0-2.165-2.343A5.82,5.82,0,0,0,57.223,35.542Z" transform="translate(-1694 -2961.249)" fill="#5bb3b3" />
            <rect width="50.034" height="21.173" transform="translate(-1682.599 -2894.096) rotate(-26.539)" fill="#fff" />
            <path d="M0-1H50.034a1,1,0,0,1,1,1V21.173a1,1,0,0,1-1,1H0a1,1,0,0,1-1-1V0A1,1,0,0,1,0-1ZM49.034,1H1V20.173H49.034Z" transform="translate(-1682.599 -2894.096) rotate(-26.539)" fill="#5bb3b3" />
            <path d="M0,0H21.971V21.307H0Z" transform="translate(-1667.606 -2864.076) rotate(-26.538)" fill="#fff" />
            <path d="M-1-1H22.971V22.307H-1ZM20.971,1H1V20.307H20.971Z" transform="translate(-1667.606 -2864.076) rotate(-26.538)" fill="#5bb3b3" />
            <rect width="21.971" height="21.307" transform="translate(-1642.501 -2876.614) rotate(-26.538)" fill="#fff" />
            <path d="M0-1H21.971a1,1,0,0,1,1,1V21.307a1,1,0,0,1-1,1H0a1,1,0,0,1-1-1V0A1,1,0,0,1,0-1ZM20.971,1H1V20.307H20.971Z" transform="translate(-1642.501 -2876.614) rotate(-26.538)" fill="#5bb3b3" />
            <path d="M0,0H21.971V21.307H0V0Z" transform="translate(-1655.708 -2840.253) rotate(-26.538)" fill="#fff" />
            <path d="M-1-1H22.971V22.307H-1ZM20.971,1H1V20.307H20.971Z" transform="translate(-1655.708 -2840.253) rotate(-26.538)" fill="#5bb3b3" />
            <rect width="21.971" height="21.307" transform="translate(-1630.603 -2852.791) rotate(-26.538)" fill="#fff" />
            <path d="M0-1H21.971a1,1,0,0,1,1,1V21.307a1,1,0,0,1-1,1H0a1,1,0,0,1-1-1V0A1,1,0,0,1,0-1ZM20.971,1H1V20.307H20.971Z" transform="translate(-1630.603 -2852.791) rotate(-26.538)" fill="#5bb3b3" />
            <path d="M0,5.284a1,1,0,0,1-.9-.553A1,1,0,0,1-.447,3.389L8.131-.895a1,1,0,0,1,1.341.448A1,1,0,0,1,9.024.895L.447,5.179A1,1,0,0,1,0,5.284Z" transform="translate(-1632.022 -2874.411)" fill="#5bb3b3" />
            <path d="M0,5.284a1,1,0,0,1-.9-.553A1,1,0,0,1-.447,3.389L8.131-.895a1,1,0,0,1,1.341.448A1,1,0,0,1,9.024.895L.447,5.179A1,1,0,0,1,0,5.284Z" transform="translate(-1657.657 -2861.608)" fill="#5bb3b3" />
            <path d="M4.285,9.578a1,1,0,0,1-.9-.553L-.895.447A1,1,0,0,1-.447-.895,1,1,0,0,1,.895-.447L5.179,8.131a1,1,0,0,1-.894,1.447Z" transform="translate(-1655.51 -2863.755)" fill="#5bb3b3" />
            <path d="M9.094,4.037a1,1,0,0,1-.317-.052L-.317.949A1,1,0,0,1-.949-.317,1,1,0,0,1,.317-.949L9.41,2.088a1,1,0,0,1-.317,1.949Z" transform="translate(-1646.068 -2837.263)" fill="#5bb3b3" />
            <path d="M0,10.094a1,1,0,0,1-.317-.052A1,1,0,0,1-.949,8.777L2.088-.317A1,1,0,0,1,3.353-.949,1,1,0,0,1,3.985.317L.949,9.41A1,1,0,0,1,0,10.094Z" transform="translate(-1643.039 -2840.292)" fill="#5bb3b3" />
            <path d="M0,5.284a1,1,0,0,1-.9-.553A1,1,0,0,1-.447,3.389L8.131-.895a1,1,0,0,1,1.341.448A1,1,0,0,1,9.024.895L.447,5.179A1,1,0,0,1,0,5.284Z" transform="translate(-1621.094 -2852.529)" fill="#5bb3b3" />
            <path d="M0,5.284a1,1,0,0,1-.9-.553A1,1,0,0,1-.447,3.389L8.131-.895a1,1,0,0,1,1.341.448A1,1,0,0,1,9.024.895L.447,5.179A1,1,0,0,1,0,5.284Z" transform="translate(-1618.982 -2848.299)" fill="#5bb3b3" />
        </g>
        <g transform="translate(-80.854 91.258) rotate(-7)">
            <g transform="matrix(0.799, 0.602, -0.602, 0.799, 401.608, 135.501)" clip-path="url(#a)">
                <path d="M6-1H53.39a7.008,7.008,0,0,1,7,7v98.639a7.008,7.008,0,0,1-7,7H6a7.008,7.008,0,0,1-7-7V6A7.008,7.008,0,0,1,6-1ZM53.39,109.639a5.006,5.006,0,0,0,5-5V6a5.006,5.006,0,0,0-5-5H6A5.006,5.006,0,0,0,1,6v98.639a5.006,5.006,0,0,0,5,5Z" transform="translate(1.829 1.834)" fill="#5bb3b3" />
                <path d="M0,1A1,1,0,0,1-1,0,1,1,0,0,1,0-1H58.834a1,1,0,0,1,1,1,1,1,0,0,1-1,1Z" transform="translate(2.107 20.962)" fill="#5bb3b3" />
                <path d="M0,1A1,1,0,0,1-1,0,1,1,0,0,1,0-1H58.834a1,1,0,0,1,1,1,1,1,0,0,1-1,1Z" transform="translate(2.107 89.102)" fill="#5bb3b3" />
                <path d="M4.554,10.131a5.565,5.565,0,1,1,5.552-5.565A5.566,5.566,0,0,1,4.554,10.131ZM4.554,1A3.565,3.565,0,1,0,8.106,4.565,3.564,3.564,0,0,0,4.554,1Z" transform="translate(26.97 96.9)" fill="#5bb3b3" />
                <path d="M12.957,1H0A1,1,0,0,1-1,0,1,1,0,0,1,0-1H12.957a1,1,0,0,1,1,1A1,1,0,0,1,12.957,1Z" transform="translate(25.045 12.02)" fill="#5bb3b3" />
            </g>
        </g>
        <g transform="translate(79.597 203.89) rotate(-19)">
            <rect width="58" height="58" transform="translate(263.934 -15.115) rotate(9)" fill="#bfe2e2" />
            <path d="M2,2V56H56V2H2M0,0H58V58H0Z" transform="translate(263.934 -15.115) rotate(9)" fill="#5bb3b3" />
            <rect width="58" height="58" transform="translate(261.934 -19.115) rotate(9)" fill="#bfe2e2" />
            <path d="M2,2V56H56V2H2M0,0H58V58H0Z" transform="translate(261.934 -19.115) rotate(9)" fill="#5bb3b3" />
            <rect width="58" height="58" transform="translate(259.934 -23.103) rotate(9)" fill="#bfe2e2" />
            <path d="M2,2V56H56V2H2M0,0H58V58H0Z" transform="translate(259.934 -23.103) rotate(9)" fill="#5bb3b3" />
        </g>
        <g transform="translate(-9.975 -142.432) rotate(12)">
            <path d="M93.945,44.22h0a67.82,67.82,0,0,1,15.7,2.054,64.885,64.885,0,0,1,6.9,2.061,1,1,0,0,1,.641.847c.823,9.38-.986,16.566-5.378,21.359C106.66,76.158,99.353,77,95.455,77a22.923,22.923,0,0,1-7.318-1.188,19.975,19.975,0,0,1-9.114-6.117C75.1,64.915,73.7,58.271,74.871,49.945a1,1,0,0,1,.418-.68C80.081,45.917,86.359,44.22,93.945,44.22Zm21.3,5.774c-1-.347-3.193-1.07-6.106-1.786A65.775,65.775,0,0,0,93.946,46.22c-6.979,0-12.747,1.493-17.153,4.44-.982,7.532.282,13.5,3.761,17.744a18.1,18.1,0,0,0,8.156,5.487,19.108,19.108,0,0,0,4.532.993l.075.007A18.587,18.587,0,0,0,95.455,75c3.569,0,10.248-.754,14.876-5.806C114.231,64.934,115.882,58.477,115.243,49.993Z" transform="translate(228.296 51.281)" fill="#5bb3b3" />
            <path d="M93.945,44.22h0a67.82,67.82,0,0,1,15.7,2.054,64.885,64.885,0,0,1,6.9,2.061,1,1,0,0,1,.641.847c.823,9.38-.986,16.566-5.378,21.359C106.66,76.158,99.353,77,95.455,77a22.923,22.923,0,0,1-7.318-1.188,19.975,19.975,0,0,1-9.114-6.117C75.1,64.915,73.7,58.271,74.871,49.945a1,1,0,0,1,.418-.68C80.081,45.917,86.359,44.22,93.945,44.22Zm21.3,5.774c-1-.347-3.193-1.07-6.106-1.786A65.775,65.775,0,0,0,93.946,46.22c-6.979,0-12.747,1.493-17.153,4.44-.982,7.532.282,13.5,3.761,17.744a18.1,18.1,0,0,0,8.156,5.487,19.108,19.108,0,0,0,4.532.993l.075.007A18.587,18.587,0,0,0,95.455,75c3.569,0,10.248-.754,14.876-5.806C114.231,64.934,115.882,58.477,115.243,49.993Z" transform="translate(285.793 51.281)" fill="#5bb3b3" />
            <path d="M15.874,1.567h-.036L-.036,1A1,1,0,0,1-1-.036,1,1,0,0,1,.036-1l15.874.567a1,1,0,0,1-.035,2Z" transform="translate(345.39 100.822)" fill="#5bb3b3" />
            <path d="M92.171,44.22c5.689,0,10.4,1.182,14.007,3.514a1,1,0,0,1,.446.689c.853,5.608-.1,10.145-2.822,13.484a14.977,14.977,0,0,1-7.068,4.644,18.518,18.518,0,0,1-5.687.885c-3.076,0-8.818-.639-12.711-4.919-3.067-3.371-4.319-8.283-3.72-14.6a1,1,0,0,1,.664-.849,51.434,51.434,0,0,1,5.157-1.428A54.5,54.5,0,0,1,92.171,44.22Zm12.54,4.955c-3.23-1.961-7.446-2.955-12.54-2.955a55.779,55.779,0,0,0-15.619,2.536c-.4,5.415.693,9.59,3.264,12.415a12.546,12.546,0,0,0,5.87,3.523,19.4,19.4,0,0,0,5.361.741,14.768,14.768,0,0,0,1.57-.072l.069-.006a15.184,15.184,0,0,0,3.493-.73,13.1,13.1,0,0,0,6.084-4C104.537,57.833,105.36,53.981,104.712,49.174Z" transform="translate(290.756 55.886)" fill="#5bb3b3" />
            <path d="M89.226,44.22A53.35,53.35,0,0,1,100.96,45.64a51.441,51.441,0,0,1,5.157,1.427,1,1,0,0,1,.664.849c.6,6.316-.653,11.228-3.72,14.6-3.893,4.28-9.635,4.919-12.711,4.919a18.518,18.518,0,0,1-5.687-.885A14.977,14.977,0,0,1,77.6,61.906c-2.725-3.339-3.675-7.875-2.822-13.484a1,1,0,0,1,.446-.689C78.824,45.4,83.537,44.22,89.226,44.22Zm15.619,4.536A55.885,55.885,0,0,0,89.226,46.22c-5.095,0-9.311.994-12.54,2.955-.65,4.815.177,8.672,2.459,11.467,3.561,4.362,9.506,4.713,9.566,4.716l.071.006a14.781,14.781,0,0,0,1.569.072,19.4,19.4,0,0,0,5.361-.741,12.545,12.545,0,0,0,5.87-3.523C104.152,58.345,105.248,54.171,104.845,48.756Z" transform="translate(233.521 55.886)" fill="#5bb3b3" />
            <path d="M4.306,16.445A4.13,4.13,0,0,1,3.247,16.3a4.167,4.167,0,0,1-2.171-1.358,10.908,10.908,0,0,1-1.8-4.325,10.234,10.234,0,0,1,.127-5.27C-.123,3.99,1.339,2.515,3.751.965A32.349,32.349,0,0,1,7.091-.9L7.942.9,7.517,0l.426.9A30.879,30.879,0,0,0,4.815,2.659C2.172,4.361,1.475,5.485,1.3,6a8.255,8.255,0,0,0-.058,4.209,9.168,9.168,0,0,0,1.4,3.486,2.1,2.1,0,0,0,2.138.644c.283-.168.228-.841-.14-1.717a12.9,12.9,0,0,1-.9-2.735A3.989,3.989,0,0,1,4.015,7.42c.7-1.468,2.385-2.546,5.063-3.911l.908,1.782C7.413,6.6,6.206,7.468,5.821,8.279c-.333.7-.166,1.6.663,3.572,1.158,2.751-.093,3.863-.684,4.213A2.913,2.913,0,0,1,4.306,16.445Z" transform="matrix(0.951, 0.309, -0.309, 0.951, 297.411, 109.267)" fill="#5bb3b3" />
            <path d="M-1542.492-2650.755l-.158-1.994,16.555-1.309.158,1.994Z" transform="translate(1886.527 2764.95)" fill="#5bb3b3" />
            <path d="M-1542.492-2650.755l-.158-1.994,16.555-1.309.158,1.994Z" transform="translate(1886.527 2760.648)" fill="#5bb3b3" />
            <path d="M7.091,16.349a32.343,32.343,0,0,1-3.34-1.869C1.339,12.929-.123,11.454-.594,10.1a10.234,10.234,0,0,1-.127-5.27A10.909,10.909,0,0,1,1.076.5,4.167,4.167,0,0,1,3.247-.857,3.319,3.319,0,0,1,5.8-.62c.591.35,1.842,1.462.684,4.213-.829,1.971-1,2.872-.663,3.572.386.811,1.592,1.677,4.165,2.988l-.908,1.782C6.4,10.57,4.713,9.492,4.014,8.024a3.989,3.989,0,0,1-.274-2.472,12.9,12.9,0,0,1,.9-2.736c.368-.875.423-1.549.14-1.717a2.1,2.1,0,0,0-2.138.644A9.169,9.169,0,0,0,1.237,5.231,8.255,8.255,0,0,0,1.3,9.44c.18.519.877,1.643,3.519,3.345a30.877,30.877,0,0,0,3.128,1.754Z" transform="matrix(-0.951, 0.309, -0.309, -0.951, 413.262, 123.955)" fill="#5bb3b3" />
            <path d="M-1534.849-2650.887l-7.083-.888.249-1.984,7.083.888Z" transform="translate(1896.669 2765.077)" fill="#5bb3b3" />
        </g>
    </g>
</svg>