<svg xmlns="http://www.w3.org/2000/svg" xmlns:xlink="http://www.w3.org/1999/xlink" width="400" height="320" viewBox="0 0 400 320">
    <defs>
        <clipPath>
            <rect width="400" height="320" />
        </clipPath>
    </defs>
    <g clip-path="url(#b)">
        <rect width="400" height="320" fill="transparent" />
        <g transform="translate(-3)">
            <rect width="138.187" height="193.396" transform="translate(133.295 59.827)" fill="#acb1bc" />
            <path d="M0,0H138.187V193.4H0Z" transform="translate(128.518 53.989)" fill="#fff" />
            <path d="M-1-1H139.187V194.4H-1ZM137.187,1H1V192.4H137.187Z" transform="translate(128.518 53.989)" fill="#313e58" />
            <path d="M97.26,1.5H0A1.5,1.5,0,0,1-1.5,0,1.5,1.5,0,0,1,0-1.5H97.26A1.5,1.5,0,0,1,98.76,0,1.5,1.5,0,0,1,97.26,1.5Z" transform="translate(148.5 199.935)" fill="#313e58" />
            <path d="M97.26,1.5H0A1.5,1.5,0,0,1-1.5,0,1.5,1.5,0,0,1,0-1.5H97.26A1.5,1.5,0,0,1,98.76,0,1.5,1.5,0,0,1,97.26,1.5Z" transform="translate(148.5 213.019)" fill="#313e58" />
            <path d="M60.9,1.5H0A1.5,1.5,0,0,1-1.5,0,1.5,1.5,0,0,1,0-1.5H60.9A1.5,1.5,0,0,1,62.4,0,1.5,1.5,0,0,1,60.9,1.5Z" transform="translate(148.5 227.194)" fill="#313e58" />
            <g transform="translate(151.831 77.601)">
                <g transform="translate(0 0)">
                    <rect width="24.907" height="23.128" rx="4" transform="translate(32.913 59.6)" fill="#ffd964" />
                    <g transform="translate(28.466 76.501)">
                        <path d="M14.969,1.627a3,3,0,0,1,3.865,0l8.681,7.311a3,3,0,0,1-1.932,5.295H8.22A3,3,0,0,1,6.287,8.938Z" transform="translate(33.803 24.907) rotate(180)" fill="#acb1bc" />
                        <path d="M0,0H24.907a0,0,0,0,1,0,0V13.122a2,2,0,0,1-2,2H2a2,2,0,0,1-2-2V0A0,0,0,0,1,0,0Z" transform="translate(4.448)" fill="#acb1bc" />
                        <path d="M3.478,14.261V11.9L28.385,8.309v2.7L3.509,14.593A1.788,1.788,0,0,1,3.478,14.261Z" transform="translate(0.97 -0.918)" fill="#7a8293" />
                        <path d="M3.478,5.253,28.385,1.66v2.7L3.478,7.949Z" transform="translate(0.97 -0.183)" fill="#7a8293" />
                    </g>
                    <ellipse cx="26.686" cy="26.686" rx="26.686" ry="26.686" transform="translate(18.784 18.539)" fill="#ffd964" />
                    <g transform="translate(0 0)">
                        <path d="M0,13.786a2,2,0,0,1-2-2V0A2,2,0,0,1,0-2,2,2,0,0,1,2,0V11.786A2,2,0,0,1,0,13.786Z" transform="translate(44.952)" fill="#edc95a" />
                        <path d="M8.335,10.335a1.994,1.994,0,0,1-1.414-.586L-1.414,1.414a2,2,0,0,1,0-2.828,2,2,0,0,1,2.828,0L9.749,6.921a2,2,0,0,1-1.414,3.414Z" transform="translate(13.166 13.166)" fill="#edc95a" />
                        <path d="M8.335,10.335a1.994,1.994,0,0,1-1.414-.586L-1.414,1.414a2,2,0,0,1,0-2.828,2,2,0,0,1,2.828,0L9.749,6.921a2,2,0,0,1-1.414,3.414Z" transform="translate(68.404 68.405)" fill="#edc95a" />
                        <path d="M11.787,2.042h-.007L-.007,2A2,2,0,0,1-2-.007,2,2,0,0,1,.007-2l11.786.042a2,2,0,0,1-.007,4Z" transform="translate(78.119 45.067)" fill="#edc95a" />
                        <path d="M11.787,2.042h-.007L-.007,2A2,2,0,0,1-2-.007,2,2,0,0,1,.007-2l11.786.042a2,2,0,0,1-.007,4Z" transform="translate(0 44.796)" fill="#edc95a" />
                        <path d="M0,10.306a1.994,1.994,0,0,1-1.419-.591,2,2,0,0,1,.01-2.828L6.955-1.419a2,2,0,0,1,2.828.01,2,2,0,0,1-.01,2.828L1.409,9.725A1.994,1.994,0,0,1,0,10.306Z" transform="translate(68.486 13.277)" fill="#edc95a" />
                        <path d="M0,10.306a1.994,1.994,0,0,1-1.419-.591,2,2,0,0,1,.01-2.828L6.955-1.419a2,2,0,0,1,2.828.01,2,2,0,0,1-.01,2.828L1.409,9.725A1.994,1.994,0,0,1,0,10.306Z" transform="translate(13.057 68.324)" fill="#edc95a" />
                        <path d="M0,12.908a1.994,1.994,0,0,1-.757-.15A2,2,0,0,1-1.851,10.15L2.613-.758A2,2,0,0,1,5.222-1.851,2,2,0,0,1,6.315.758L1.851,11.665A2,2,0,0,1,0,12.908Z" transform="translate(57.515 3.349)" fill="#edc95a" />
                        <path d="M4.557,12.871a2,2,0,0,1-1.845-1.227L-1.845.773A2,2,0,0,1-.773-1.845,2,2,0,0,1,1.845-.773L6.4,10.1a2,2,0,0,1-1.844,2.774Z" transform="translate(27.574 3.495)" fill="#edc95a" />
                        <path d="M10.891,6.5a1.994,1.994,0,0,1-.763-.152L-.764,1.848A2,2,0,0,1-1.848-.764,2,2,0,0,1,.764-1.848l10.892,4.5A2,2,0,0,1,10.891,6.5Z" transform="translate(75.606 57.62)" fill="#edc95a" />
                        <path d="M10.891,6.5a1.994,1.994,0,0,1-.763-.152L-.764,1.848A2,2,0,0,1-1.848-.764,2,2,0,0,1,.764-1.848l10.892,4.5A2,2,0,0,1,10.891,6.5Z" transform="translate(3.408 27.783)" fill="#edc95a" />
                        <path d="M0,6.52A2,2,0,0,1-1.847,5.286,2,2,0,0,1-.767,2.672L10.118-1.847a2,2,0,0,1,2.614,1.08,2,2,0,0,1-1.08,2.614L.767,6.366A1.994,1.994,0,0,1,0,6.52Z" transform="translate(75.586 27.717)" fill="#edc95a" />
                        <path d="M0,6.52A2,2,0,0,1-1.847,5.286,2,2,0,0,1-.767,2.672L10.118-1.847a2,2,0,0,1,2.614,1.08,2,2,0,0,1-1.08,2.614L.767,6.366A1.994,1.994,0,0,1,0,6.52Z" transform="translate(3.435 57.671)" fill="#edc95a" />
                    </g>
                </g>
                <g transform="translate(39.314 37.073)">
                    <path d="M25.213,33.853a6.379,6.379,0,1,1-6.378-6.378,6.378,6.378,0,0,1,6.378,6.378" transform="translate(-12.456 -27.475)" fill="#313e58" />
                    <path d="M17.153,48.89a2.923,2.923,0,0,1-2.922-2.922v-13.8a2.921,2.921,0,1,1,5.842,0v13.8a2.923,2.923,0,0,1-2.92,2.922" transform="translate(-10.773 -25.793)" fill="#313e58" />
                </g>
            </g>
        </g>
        <g transform="translate(-197.256 322.077) rotate(-90)">
            <rect width="89.092" height="89.092" rx="10" transform="translate(127.021 276.392) rotate(149)" fill="#bfe2e2" />
            <path d="M10,2a8.009,8.009,0,0,0-8,8V79.092a8.009,8.009,0,0,0,8,8H79.092a8.009,8.009,0,0,0,8-8V10a8.009,8.009,0,0,0-8-8H10m0-2H79.092a10,10,0,0,1,10,10V79.092a10,10,0,0,1-10,10H10a10,10,0,0,1-10-10V10A10,10,0,0,1,10,0Z" transform="translate(127.021 276.392) rotate(149)" fill="#5bb3b3" />
            <path d="M25.207,17.365,4.019,10.308a5.552,5.552,0,0,1-3.78-6.8A5.464,5.464,0,0,1,7.274.313L28.4,7.349" transform="translate(119.374 232.833) rotate(131)" fill="#fff" />
            <path d="M25.207,18.365a1,1,0,0,1-.316-.052L3.7,11.257A6.543,6.543,0,0,1-.712,3.2,5.98,5.98,0,0,1,2.326-.287,6.914,6.914,0,0,1,7.59-.636L28.715,6.4a1,1,0,1,1-.632,1.9L6.958,1.262A4.9,4.9,0,0,0,3.227,1.5,4,4,0,0,0,1.189,3.82a4.07,4.07,0,0,0,.362,3.263A4.949,4.949,0,0,0,4.334,9.36l21.188,7.057a1,1,0,0,1-.316,1.949Z" transform="translate(119.374 232.833) rotate(131)" fill="#5bb3b3" />
            <ellipse cx="32.602" cy="32.602" rx="32.602" ry="32.602" transform="translate(112.225 257.549) rotate(131)" fill="#fff" />
            <path d="M32.6-1a33.61,33.61,0,0,1,13.08,64.563A33.61,33.61,0,0,1,19.522,1.641,33.392,33.392,0,0,1,32.6-1Zm0,65.2A31.61,31.61,0,0,0,44.9,3.483,31.61,31.61,0,0,0,20.3,61.721,31.4,31.4,0,0,0,32.6,64.2Z" transform="translate(112.225 257.549) rotate(131)" fill="#5bb3b3" />
            <path d="M25.66-1A26.667,26.667,0,0,1,36.038,50.224,26.667,26.667,0,0,1,15.282,1.1,26.494,26.494,0,0,1,25.66-1Zm0,51.32a24.667,24.667,0,0,0,9.6-47.382,24.667,24.667,0,0,0-19.2,45.445A24.5,24.5,0,0,0,25.66,50.32Z" transform="translate(102.432 258.234) rotate(131)" fill="#5bb3b3" />
        </g>
        <g transform="matrix(0.966, -0.259, 0.259, 0.966, -204.702, 1579.072)">
            <path d="M125.709,1H0A1,1,0,0,1-1,0,1,1,0,0,1,0-1H125.709a1,1,0,0,1,1,1A1,1,0,0,1,125.709,1Z" transform="translate(559.083 -1446.109)" fill="#5bb3b3" />
            <path d="M96.45,1H0A1,1,0,0,1-1,0,1,1,0,0,1,0-1H96.45a1,1,0,0,1,1,1A1,1,0,0,1,96.45,1Z" transform="translate(563.533 -1417.537)" fill="#5bb3b3" />
            <path d="M98.216,64.985H1.766a1,1,0,0,1,0-2h95.45V18.851H1.766a1,1,0,0,1,0-2h96.45a1,1,0,0,1,1,1V63.985A1,1,0,0,1,98.216,64.985Z" transform="translate(561.767 -1445.312)" fill="#5bb3b3" />
            <path d="M96.45,1H0A1,1,0,0,1-1,0,1,1,0,0,1,0-1H96.45a1,1,0,0,1,1,1A1,1,0,0,1,96.45,1Z" transform="translate(563.533 -1408.686)" fill="#5bb3b3" />
            <path d="M96.45,1H0A1,1,0,0,1-1,0,1,1,0,0,1,0-1H96.45a1,1,0,0,1,1,1A1,1,0,0,1,96.45,1Z" transform="translate(563.533 -1399.566)" fill="#5bb3b3" />
            <path d="M96.45,1H0A1,1,0,0,1-1,0,1,1,0,0,1,0-1H96.45a1,1,0,0,1,1,1A1,1,0,0,1,96.45,1Z" transform="translate(563.533 -1390.715)" fill="#5bb3b3" />
            <path d="M0,44.629a1,1,0,0,1-1-1V0A1,1,0,0,1,0-1,1,1,0,0,1,1,0V43.629A1,1,0,0,1,0,44.629Z" transform="translate(610.978 -1425.76)" fill="#5bb3b3" />
            <path d="M0,44.629a1,1,0,0,1-1-1V0A1,1,0,0,1,0-1,1,1,0,0,1,1,0V43.629A1,1,0,0,1,0,44.629Z" transform="translate(627.443 -1425.76)" fill="#5bb3b3" />
            <path d="M0,44.629a1,1,0,0,1-1-1V0A1,1,0,0,1,0-1,1,1,0,0,1,1,0V43.629A1,1,0,0,1,0,44.629Z" transform="translate(644.822 -1425.76)" fill="#5bb3b3" />
            <path d="M0,44.629a1,1,0,0,1-1-1V0A1,1,0,0,1,0-1,1,1,0,0,1,1,0V43.629A1,1,0,0,1,0,44.629Z" transform="translate(593.599 -1425.76)" fill="#5bb3b3" />
            <path d="M112.767,113.834H1.7a1,1,0,1,1,0-2H112.767a15.868,15.868,0,0,0,9.09-2.652c2.319-1.635,3.6-3.765,3.6-6v-85.9c0-2.232-1.277-4.362-3.6-6a15.868,15.868,0,0,0-9.09-2.652H1a1,1,0,1,1,0-2H112.767a17.877,17.877,0,0,1,10.243,3.017,11.3,11.3,0,0,1,3.221,3.369,8.172,8.172,0,0,1,1.223,4.263v85.9a8.172,8.172,0,0,1-1.223,4.263,11.3,11.3,0,0,1-3.221,3.369A17.877,17.877,0,0,1,112.767,113.834Z" transform="translate(561.485 -1445.828)" fill="#5bb3b3" />
            <path d="M0,44.629a1,1,0,0,1-1-1V0A1,1,0,0,1,0-1,1,1,0,0,1,1,0V43.629A1,1,0,0,1,0,44.629Z" transform="translate(577.134 -1425.76)" fill="#5bb3b3" />
            <path d="M42.883,100.077H1.919a1,1,0,0,1,0-2H41.883V75.531H1.919a1,1,0,0,1,0-2H42.883a1,1,0,0,1,1,1V99.077A1,1,0,0,1,42.883,100.077Z" transform="translate(560.566 -1445.907)" fill="#5bb3b3" />
        </g>
        <g transform="translate(-20.92 179.466) rotate(-13)">
            <path d="M6.539,64.183A2.708,2.708,0,0,1,4.5,63.257L.956,59.2a3.9,3.9,0,0,1-.765-3.762L1.774,50.6l7.181-1.318,2.268-6.937,7.181-1.32,2.272-6.936,7.18-1.32,2.268-6.938,3.854-3.365a17.452,17.452,0,0,1-.178-9.728,17.142,17.142,0,0,1,5.29-8.456A17.347,17.347,0,0,1,63.565,5.934a17.344,17.344,0,0,1-1.652,24.475,17.137,17.137,0,0,1-11.331,4.252,17.629,17.629,0,0,1-7.373-1.628L8.319,63.514a2.7,2.7,0,0,1-1.781.668Zm48.4-55.148a4.65,4.65,0,1,0,4.65,4.65A4.656,4.656,0,0,0,54.942,9.035Z" transform="translate(284.134 36.007)" fill="#cc7a29" />
            <path d="M6.539,64.683a3.208,3.208,0,0,1-2.415-1.1L.58,59.529a4.4,4.4,0,0,1-.863-4.247l1.674-5.121,7.181-1.318,2.268-6.937,7.181-1.32,2.272-6.936,7.18-1.32,2.219-6.786L33.407,22.3a17.947,17.947,0,0,1-.09-9.694,17.64,17.64,0,0,1,5.443-8.7A17.847,17.847,0,0,1,63.942,5.6a17.844,17.844,0,0,1-1.7,25.18,17.637,17.637,0,0,1-11.66,4.376,18.142,18.142,0,0,1-7.286-1.54L8.648,63.891a3.2,3.2,0,0,1-2.11.792ZM2.156,51.037.667,55.594a3.4,3.4,0,0,0,.666,3.278l3.543,4.056a2.208,2.208,0,0,0,2.594.549,2.243,2.243,0,0,0,.521-.34L43.125,32.442l.295.137a17.126,17.126,0,0,0,7.162,1.581A16.789,16.789,0,0,0,67.31,18.479,16.846,16.846,0,0,0,50.494.5,16.782,16.782,0,0,0,39.419,4.659a16.643,16.643,0,0,0-5.136,8.21,16.952,16.952,0,0,0,.173,9.45l.1.311-4,3.488-2.318,7.09-7.18,1.32-2.272,6.936-7.181,1.32L9.337,49.72Zm52.785-32.2a5.15,5.15,0,1,1,5.15-5.15A5.156,5.156,0,0,1,54.942,18.835Zm0-9.3a4.15,4.15,0,1,0,4.15,4.15A4.155,4.155,0,0,0,54.942,9.535Z" transform="translate(284.134 36.007)" fill="#cc7a29" />
            <path d="M0,31.277a1,1,0,0,1-.765-.355,1,1,0,0,1,.119-1.409L35.239-.764a1,1,0,0,1,1.409.119A1,1,0,0,1,36.529.764L.645,31.041A1,1,0,0,1,0,31.277Z" transform="translate(287.953 66.202)" fill="#f1b981" />
        </g>
        <g transform="matrix(-0.695, 0.719, -0.719, -0.695, -22.125, -1103.632)">
            <path d="M382.058,230.044a66.809,66.809,0,0,1-9.259-1.4q-.042-.009-.083-.022L264.99,195.616A2.949,2.949,0,0,1,263.071,192l1.569-5.638a2.865,2.865,0,0,1,2.731-2.119,2.751,2.751,0,0,1,.8.121l107.294,32.874q.039.012.077.027c.025.01,2.51,1,4.929,2.105,1.436.656,2.574,1.225,3.383,1.693a8.371,8.371,0,0,1,1.189.8,1.466,1.466,0,0,1,.646,1.537l-1.569,5.638C383.843,230.044,382.592,230.044,382.058,230.044Zm-8.8-3.347a65.561,65.561,0,0,0,8.8,1.347c.107,0,.195,0,.267-.007l1.319-4.739a26.849,26.849,0,0,0-4.56-2.362c-2.021-.905-3.951-1.682-4.241-1.8L267.59,186.276a.751.751,0,0,0-.219-.033.86.86,0,0,0-.8.655L265,192.537a.951.951,0,0,0,.578,1.166Z" transform="translate(439.868 -1384.084)" fill="#5bb3b3" />
            <path d="M0,10.477a1,1,0,0,1-.269-.037,1,1,0,0,1-.7-1.232L1.675-.268a1,1,0,0,1,1.232-.7A1,1,0,0,1,3.6.268L.963,9.745A1,1,0,0,1,0,10.477Z" transform="translate(707.883 -1197.99)" fill="#5bb3b3" />
            <path d="M339.874,193.663a1,1,0,0,1-.293-.044L336.9,192.8a2.955,2.955,0,0,1-1.919-3.615l.784-2.815a2.924,2.924,0,0,1,1.4-1.776,2.743,2.743,0,0,1,2.138-.224l2.9.89a1,1,0,0,1-.587,1.912l-2.9-.89a.758.758,0,0,0-.59.065.9.9,0,0,0-.432.558l-.784,2.815a.954.954,0,0,0,.58,1.167l2.685.822a1,1,0,0,1-.292,1.956Z" transform="translate(363.771 -1384.081)" fill="#5bb3b3" />
            <path d="M330.529,191.838a1.564,1.564,0,0,1-.462-.07l-8.735-2.676a1.634,1.634,0,0,1-1.075-2l.066-.234a1.6,1.6,0,0,1,1.536-1.182,1.564,1.564,0,0,1,.462.07l8.736,2.676a1.634,1.634,0,0,1,1.075,2l-.065.233A1.6,1.6,0,0,1,330.529,191.838Z" transform="translate(398.749 -1383.032)" fill="#5bb3b3" />
            <path d="M0,9.781a1,1,0,0,1-.269-.037,1,1,0,0,1-.7-1.232L1.481-.268a1,1,0,0,1,1.232-.7,1,1,0,0,1,.7,1.232L.963,9.049A1,1,0,0,1,0,9.781Z" transform="translate(746.546 -1185.825)" fill="#5bb3b3" />
            <path d="M0,9.781a1,1,0,0,1-.269-.037,1,1,0,0,1-.7-1.232L1.481-.268a1,1,0,0,1,1.232-.7,1,1,0,0,1,.7,1.232L.963,9.049A1,1,0,0,1,0,9.781Z" transform="translate(748.486 -1185.231)" fill="#5bb3b3" />
            <path d="M264.066,212.717l-.333,0c-1.366-.022-2.628-.177-2.681-.183a1,1,0,1,1,.245-1.985c.02,0,1.059.129,2.211.162a10.946,10.946,0,0,0,1.973-.08,12.016,12.016,0,0,0-1.618-1.083c-.981-.57-1.9-1.006-1.909-1.011a1,1,0,1,1,.856-1.808c.044.021,1.085.515,2.186,1.164,2.205,1.3,2.662,2.056,2.814,2.57a1.415,1.415,0,0,1-.145,1.161C267.194,212.384,266.11,212.717,264.066,212.717Z" transform="translate(562.338 -1367.627)" fill="#5bb3b3" />
            <path d="M0,4.47a1,1,0,0,1-.269-.037A1,1,0,0,1-.963,3.2L0-.268a1,1,0,0,1,1.232-.7,1,1,0,0,1,.7,1.232L.963,3.738A1,1,0,0,1,0,4.47Z" transform="translate(824.451 -1159.544)" fill="#5bb3b3" />
        </g>
        <g transform="translate(-1175.343 1409.047) rotate(17)">
            <path d="M1009.61-1726.012s8.476-3.621,10.618-5.453,7.419-5.549,9.967-5.157,6.779,2.658,6.779,2.658l14.823,11.295,8.441,7.007,9.195-.55,15.85-10.39,13.952-7.363,7.244-1.922h5.444l10.881,4.421,12.034,3.865,2.17,1v52.453l-128.012-.194Z" transform="translate(-0.151 -4.621)" fill="#bfe2e2" />
            <path d="M2,2V87.014H127.706V2H2M0,0H129.706V89.014H0Z" transform="translate(1008 -1767)" fill="#5bb3b3" />
            <g transform="translate(1066.684 -1756.54)">
                <path d="M0,8.811a1,1,0,0,1-1-1V0A1,1,0,0,1,0-1,1,1,0,0,1,1,0V7.811A1,1,0,0,1,0,8.811Z" transform="translate(0 0)" fill="#5bb3b3" />
                <path d="M-668.048-3434.5a1,1,0,0,1,.413.09l4.93,2.239a1,1,0,0,1,.586.928,1,1,0,0,1-.619.907l-4.93,2.028a1,1,0,0,1-.937-.094,1,1,0,0,1-.443-.831v-4.268a1,1,0,0,1,.458-.841A1,1,0,0,1-668.048-3434.5Zm2.412,3.194-1.412-.641v1.222Z" transform="translate(668.375 3433.5)" fill="#5bb3b3" />
            </g>
            <path d="M-1.009,134.351l.028-3.039,0-.036a10.628,10.628,0,0,1,.4-2.154,5.6,5.6,0,0,1,1.141-2.136l.011-.013A3.822,3.822,0,0,1,3.4,125.688h0c.207-.006.42-.011.641-.012a5.493,5.493,0,0,1,1.327.1A4.146,4.146,0,0,1,6,124.815a4.886,4.886,0,0,1,2.6-1.549h.005a7.438,7.438,0,0,1,1.595-.173h.036a7.144,7.144,0,0,1,1.4.139,4.431,4.431,0,0,1,1.308.437,9.2,9.2,0,0,1,2.257-2.195,10.855,10.855,0,0,1,4.657-1.817,11.117,11.117,0,0,1,1.52-.105h.007a11.53,11.53,0,0,1,3.534.555,10.38,10.38,0,0,1,2.92,1.446,3.617,3.617,0,0,1,1.481-.69,3.966,3.966,0,0,1,.851-.094h.012a3.546,3.546,0,0,1,.919.121l.011,0a4.735,4.735,0,0,1,1.78.94l.005,0q.314.268.6.564a4.275,4.275,0,0,1,.931-.407,4.722,4.722,0,0,1,1.405-.215h.013a4.4,4.4,0,0,1,1.193.165,4.146,4.146,0,0,1,1.982,1.26,27.293,27.293,0,0,1,2.918-3.136l.019-.017a10.7,10.7,0,0,1,6.79-2.789c.064,0,.137,0,.214,0a7.087,7.087,0,0,1,3.911,1.306,4.8,4.8,0,0,1,1.45,1.546,6.278,6.278,0,0,1,1.866-.524l1.118-.133v14.519ZM1.018,131.4l-.009.935,54.305-.346V121.87a4.223,4.223,0,0,0-.874.487l-1.178.854-.375-1.405a2.778,2.778,0,0,0-1.136-1.583l-.021-.015a5.093,5.093,0,0,0-2.822-.943H48.9c-.042,0-.091,0-.144,0a8.708,8.708,0,0,0-5.466,2.288,25.27,25.27,0,0,0-2.845,3.09l-.033.04c-.216.263-.5.607-.786.947l-1.273,1.511-.464-1.92a1.6,1.6,0,0,0-.287-.6,2.122,2.122,0,0,0-1.1-.749,2.392,2.392,0,0,0-.647-.089h-.008a2.729,2.729,0,0,0-.817.125l-.012,0a2.262,2.262,0,0,0-.944.56l-.8.795-.694-.888a7.056,7.056,0,0,0-.973-1.015,2.748,2.748,0,0,0-1.024-.541,1.546,1.546,0,0,0-.4-.051H30.18a1.965,1.965,0,0,0-.426.047l-.015,0a1.606,1.606,0,0,0-.692.331.535.535,0,0,0-.142.191l-.545,1.247-1.027-.894a8.374,8.374,0,0,0-3.013-1.681l-.008,0a9.534,9.534,0,0,0-2.925-.46h-.006a9.1,9.1,0,0,0-1.244.086,8.844,8.844,0,0,0-3.8,1.481l-.007,0a7.159,7.159,0,0,0-2.227,2.441l-.619,1.121-.938-.872A2.41,2.41,0,0,0,11.3,125.2l-.037-.007a5.139,5.139,0,0,0-1.022-.1H10.2a5.433,5.433,0,0,0-1.162.126,2.872,2.872,0,0,0-1.528.911l-.006.007a2.123,2.123,0,0,0-.5,1.052l-.209,1.247-1.165-.491a3.46,3.46,0,0,0-1.35-.272c-.055,0-.111,0-.166,0H4.063c-.2,0-.41.006-.611.011H3.423a1.82,1.82,0,0,0-1.344.6,3.617,3.617,0,0,0-.732,1.377l0,.015A8.625,8.625,0,0,0,1.018,131.4Z" transform="translate(1080.017 -1846.979)" fill="#5bb3b3" />
            <path d="M57.324,134.351-1,133.979V119.461l1.118.133a6.278,6.278,0,0,1,1.866.524,4.8,4.8,0,0,1,1.45-1.546,7.086,7.086,0,0,1,3.91-1.306c.077,0,.15,0,.215,0a10.7,10.7,0,0,1,6.79,2.789l.019.017a27.292,27.292,0,0,1,2.918,3.136,4.142,4.142,0,0,1,1.979-1.259,4.405,4.405,0,0,1,1.2-.166h.016a4.716,4.716,0,0,1,1.4.214,4.275,4.275,0,0,1,.931.407q.289-.3.6-.564l.005,0a4.736,4.736,0,0,1,1.78-.94l.011,0a3.546,3.546,0,0,1,.919-.121h.013a3.964,3.964,0,0,1,.85.094,3.617,3.617,0,0,1,1.481.69,10.38,10.38,0,0,1,2.92-1.446,11.531,11.531,0,0,1,3.534-.556h.007a11.109,11.109,0,0,1,1.518.1,10.858,10.858,0,0,1,4.659,1.817,9.2,9.2,0,0,1,2.256,2.194,4.431,4.431,0,0,1,1.308-.437,7.145,7.145,0,0,1,1.4-.139h.036a7.436,7.436,0,0,1,1.595.173h.005a4.886,4.886,0,0,1,2.6,1.55,4.146,4.146,0,0,1,.635.964,5.491,5.491,0,0,1,1.327-.1c.221,0,.436.006.643.012h0a3.822,3.822,0,0,1,2.822,1.286l.011.013a5.6,5.6,0,0,1,1.14,2.136,10.629,10.629,0,0,1,.4,2.154l0,.036ZM1,131.992l54.305.346L55.3,131.4a8.625,8.625,0,0,0-.324-1.719l0-.015a3.618,3.618,0,0,0-.732-1.377,1.82,1.82,0,0,0-1.344-.6h-.027c-.2-.005-.41-.011-.613-.011H52.2c-.055,0-.111,0-.166,0a3.459,3.459,0,0,0-1.35.272l-1.165.491-.209-1.247a2.123,2.123,0,0,0-.5-1.052l-.006-.007a2.872,2.872,0,0,0-1.527-.91,5.432,5.432,0,0,0-1.163-.126h-.036a5.139,5.139,0,0,0-1.022.1l-.037.007a2.41,2.41,0,0,0-1.255.613l-.938.872-.619-1.121a7.159,7.159,0,0,0-2.227-2.441l-.007,0a8.845,8.845,0,0,0-3.8-1.482,9.1,9.1,0,0,0-1.242-.086h-.005a9.534,9.534,0,0,0-2.926.46l-.008,0a8.375,8.375,0,0,0-3.013,1.681l-1.027.894-.545-1.247a.535.535,0,0,0-.142-.191,1.607,1.607,0,0,0-.692-.331l-.015,0a1.962,1.962,0,0,0-.425-.047h-.007a1.546,1.546,0,0,0-.4.051,2.748,2.748,0,0,0-1.025.542,7.057,7.057,0,0,0-.973,1.015l-.694.887-.8-.795a2.262,2.262,0,0,0-.944-.56l-.012,0a2.724,2.724,0,0,0-.814-.125h-.011a2.4,2.4,0,0,0-.651.09,2.118,2.118,0,0,0-1.1.746,1.606,1.606,0,0,0-.289.6l-.464,1.92-1.273-1.511c-.285-.338-.57-.684-.786-.947l-.033-.04a25.271,25.271,0,0,0-2.845-3.09,8.708,8.708,0,0,0-5.466-2.288c-.053,0-.1,0-.144,0H7.406a5.093,5.093,0,0,0-2.822.943l-.021.015a2.778,2.778,0,0,0-1.136,1.583l-.375,1.405-1.178-.854A4.223,4.223,0,0,0,1,121.87Z" transform="translate(1009.459 -1812.137)" fill="#5bb3b3" />
            <path d="M-723.727-3379.153l-16.456-13.458.9-.778c.044-.038,4.5-3.882,9.373-7.675,9.037-7.04,11.64-7.854,12.811-7.854h.082c1.137.04,3.68.9,12.6,7.9,4.808,3.776,9.219,7.586,9.263,7.625l1.021.883-20.338,12.807Zm-13.342-13.494,14,11.452,7.961-.468,17.612-11.09c-1.578-1.341-4.774-4.025-8.167-6.69-8.75-6.871-10.957-7.458-11.425-7.474h-.013c-.479,0-2.729.536-11.577,7.428C-732.208-3396.737-735.525-3393.957-737.069-3392.647Z" transform="translate(1783.626 1659.963)" fill="#5bb3b3" />
            <path d="M334.994,128.743H308.836V113.921l1.51.9c.15.089.3.184.432.284a4.245,4.245,0,0,1,1.184,1.22,5.7,5.7,0,0,1,2.332-.448c.158,0,.318.006.477.018a6.189,6.189,0,0,1,2.173.554q.154.071.3.152a4.855,4.855,0,0,1,1.078-1.072,5.743,5.743,0,0,1,3.348-1.143h.084a5.883,5.883,0,0,1,3.352,1.083,8.735,8.735,0,0,1,1.106.262,11.156,11.156,0,0,1,3.177,1.544A11.676,11.676,0,0,1,332.78,121c1.051,1.818,1.892,6.071,1.985,6.55Zm-24.158-2h21.712a21.809,21.809,0,0,0-1.5-4.741l0-.007a9.658,9.658,0,0,0-2.8-3.091,9.16,9.16,0,0,0-2.608-1.266,6.727,6.727,0,0,0-1.057-.234l-.268-.037-.213-.167a3.869,3.869,0,0,0-2.348-.821H321.7a3.755,3.755,0,0,0-2.186.751l-.014.011a2.853,2.853,0,0,0-.994,1.283l-.54,1.387-1.08-1.025a2.87,2.87,0,0,0-.777-.526,4.2,4.2,0,0,0-1.477-.376c-.119-.009-.234-.013-.347-.013h-.021a3.7,3.7,0,0,0-2.19.659l-1.145.792-.093-.322Z" transform="translate(699.623 -1832.54)" fill="#5bb3b3" />
            <path d="M-849.638-3358.631a1,1,0,0,1-.658-.247c-.056-.049-5.691-4.966-12.073-9.944-3.737-2.916-6.992-5.28-9.677-7.028-4.068-2.649-6.068-3.385-7.031-3.535a7.944,7.944,0,0,0-4.779.9,38.472,38.472,0,0,0-5.253,3.34c-3.09,2.191-6.592,4.676-10.983,5.991a1,1,0,0,1-1.245-.671,1,1,0,0,1,.671-1.245c4.076-1.221,7.435-3.6,10.4-5.707a39.853,39.853,0,0,1,5.545-3.512,9.835,9.835,0,0,1,5.953-1.07c1.7.267,4.261,1.522,7.816,3.837,2.733,1.78,6.036,4.179,9.819,7.13,6.424,5.013,12.1,9.961,12.152,10.01a1,1,0,0,1,.1,1.411A1,1,0,0,1-849.638-3358.631Z" transform="translate(1909.836 1639.366)" fill="#5bb3b3" />
            <path d="M59.527,1H0A1,1,0,0,1-1,0,1,1,0,0,1,0-1H59.527a1,1,0,0,1,1,1A1,1,0,0,1,59.527,1Z" transform="translate(1076.805 -1687.353)" fill="#5bb3b3" />
            <path d="M-864.815-3359.574a1,1,0,0,1-.748-.336,1,1,0,0,1,.084-1.412,25.916,25.916,0,0,1,2.02-1.63c2.439-1.64,8.862-5.89,15.813-9.915,8.877-5.14,15.3-8,19.076-8.489,6.133-.8,11.61,1.494,17.951,4.15a93.822,93.822,0,0,0,13.9,4.918,1,1,0,0,1,.729,1.212,1,1,0,0,1-1.212.729,95.51,95.51,0,0,1-14.187-5.014,76.274,76.274,0,0,0-8.749-3.27,20.137,20.137,0,0,0-8.171-.742c-3.467.451-9.806,3.3-18.332,8.236-6.9,3.994-13.276,8.214-15.7,9.843-.532.358-1.485,1.179-1.808,1.466A1,1,0,0,1-864.815-3359.574Z" transform="translate(1933.891 1639.913)" fill="#5bb3b3" />
            <path d="M33.265,1H0A1,1,0,0,1-1,0,1,1,0,0,1,0-1H33.265a1,1,0,0,1,1,1A1,1,0,0,1,33.265,1Z" transform="translate(1022.657 -1704.797)" fill="#5bb3b3" />
            <path d="M41.346,1H0A1,1,0,0,1-1,0,1,1,0,0,1,0-1H41.346a1,1,0,0,1,1,1A1,1,0,0,1,41.346,1Z" transform="translate(1022.657 -1696.288)" fill="#5bb3b3" />
            <path d="M16.784,1H0A1,1,0,0,1-1,0,1,1,0,0,1,0-1H16.784a1,1,0,0,1,1,1A1,1,0,0,1,16.784,1Z" transform="translate(1113.479 -1704.797)" fill="#5bb3b3" />
            <path d="M2,2v8.716H15.8V2H2M0,0H17.8V12.716H0Z" transform="translate(1112.273 -1758.522)" fill="#5bb3b3" />
            <path d="M0,0H1.394a.746.746,0,0,1,.073.163A.75.75,0,0,1,1.5,1.309v.075A.75.75,0,0,1,.009,1.5H0ZM4,0H5A.75.75,0,0,1,5,1.5H4A.75.75,0,0,1,4,0ZM8,0H9A.75.75,0,0,1,9,1.5H8A.75.75,0,1,1,8,0Zm4,0h1a.75.75,0,0,1,0,1.5H12A.75.75,0,1,1,12,0Zm4,0h1a.75.75,0,0,1,0,1.5H16A.75.75,0,1,1,16,0Zm4,0h1a.75.75,0,0,1,.707.5.75.75,0,0,1,1.183.613v1a.75.75,0,0,1-1.5,0v-.72A.746.746,0,0,1,21,1.5H20A.75.75,0,1,1,20,0Zm2.139,4.361a.75.75,0,0,1,.75.75v1a.75.75,0,0,1-1.5,0v-1A.75.75,0,0,1,22.139,4.361Zm0,4a.75.75,0,0,1,.75.75v1a.75.75,0,1,1-1.5,0v-1A.75.75,0,0,1,22.139,8.361Zm0,4a.75.75,0,0,1,.75.75v1a.75.75,0,1,1-1.5,0v-1A.75.75,0,0,1,22.139,12.361Zm.442,3.942h.308v.808h0v0h0V17.8h-1.5v-.692a.751.751,0,0,1,.878-.739A.747.747,0,0,1,22.581,16.3Zm-4,0h1a.75.75,0,0,1,0,1.5h-1a.75.75,0,1,1,0-1.5Zm-4,0h1a.75.75,0,1,1,0,1.5h-1a.75.75,0,0,1,0-1.5Zm-4,0h1a.75.75,0,1,1,0,1.5h-1a.75.75,0,1,1,0-1.5Zm-4,0h1a.75.75,0,0,1,0,1.5h-1a.75.75,0,0,1,0-1.5Zm-4,0h1a.75.75,0,1,1,0,1.5h-1a.75.75,0,1,1,0-1.5ZM.75,15.634a.75.75,0,0,1,.75.75v1a.746.746,0,0,1-.128.419H.128A.746.746,0,0,1,0,17.384v-1A.75.75,0,0,1,.75,15.634Zm0-4a.75.75,0,0,1,.75.75v1a.75.75,0,1,1-1.5,0v-1A.75.75,0,0,1,.75,11.634Zm0-4a.75.75,0,0,1,.75.75v1a.75.75,0,0,1-1.5,0v-1A.75.75,0,0,1,.75,7.634Zm0-4a.75.75,0,0,1,.75.75v1a.75.75,0,1,1-1.5,0v-1A.75.75,0,0,1,.75,3.634Z" transform="translate(1109.73 -1761.066)" fill="#5bb3b3" />
        </g>
        <g transform="translate(279.116 656.427) rotate(-110)">
            <path d="M9.852-1A10.852,10.852,0,0,1,20.7,9.852,10.852,10.852,0,0,1,9.852,20.7,10.852,10.852,0,0,1-1,9.852,10.852,10.852,0,0,1,9.852-1Zm0,19.7A8.852,8.852,0,1,0,1,9.852,8.862,8.862,0,0,0,9.852,18.7Z" transform="translate(314.896 157.522)" fill="#5bb3b3" />
            <path d="M9.852-1A10.852,10.852,0,0,1,20.7,9.852,10.852,10.852,0,0,1,9.852,20.7,10.852,10.852,0,0,1-1,9.852,10.852,10.852,0,0,1,9.852-1Zm0,19.7A8.852,8.852,0,1,0,1,9.852,8.862,8.862,0,0,0,9.852,18.7Z" transform="translate(331.624 176.943)" fill="#5bb3b3" />
            <path d="M103.9,85.618a10.853,10.853,0,0,1-8.1-18.055,1,1,0,1,1,1.5,1.327A8.852,8.852,0,1,0,110.538,80.64a1,1,0,0,1,1.5,1.327,10.78,10.78,0,0,1-7.47,3.63Q104.232,85.618,103.9,85.618Z" transform="translate(231.062 120.356)" fill="#5bb3b3" />
        </g>
    </g>
</svg>