<svg xmlns="http://www.w3.org/2000/svg" xmlns:xlink="http://www.w3.org/1999/xlink" width="400"
    height="320" viewBox="0 0 400 320">
    <defs>
        <clipPath>
            <rect width="85.86" height="157.182" fill="#bfe2e2" />
        </clipPath>
        <clipPath>
            <path d="M40.976,26.514v65.5a2.543,2.543,0,1,1-5.086,0v-65.5a2.543,2.543,0,1,1,5.086,0"
                transform="translate(-35.89 -23.97)" fill="#bfe2e2" />
        </clipPath>
        <clipPath>
            <rect width="400" height="320" />
        </clipPath>
    </defs>
    <g clip-path="url(#e)">
        <path
            d="M398.953,1H0A1,1,0,0,1-1,0,1,1,0,0,1,0-1H398.953a1,1,0,0,1,1,1A1,1,0,0,1,398.953,1Z"
            transform="translate(0.656 200.069)" fill="#5bb3b3" />
        <path
            d="M117.017,1H0A1,1,0,0,1-1,0,1,1,0,0,1,0-1H117.017a1,1,0,0,1,1,1A1,1,0,0,1,117.017,1Z"
            transform="translate(-8.144 95.309)" fill="#5bb3b3" />
        <g transform="translate(13.017 19.523)">
            <path
                d="M0-1H16.151a1,1,0,0,1,1,1V70.563a1,1,0,0,1-1,1H0a1,1,0,0,1-1-1V0A1,1,0,0,1,0-1ZM15.151,1H1V69.563H15.151Z"
                transform="translate(0 0)" fill="#5bb3b3" />
            <path d="M3.59,1H0A1,1,0,0,1-1,0,1,1,0,0,1,0-1H3.59a1,1,0,0,1,1,1A1,1,0,0,1,3.59,1Z"
                transform="translate(6.28 32.323)" fill="#5bb3b3" />
            <path d="M3.59,1H0A1,1,0,0,1-1,0,1,1,0,0,1,0-1H3.59a1,1,0,0,1,1,1A1,1,0,0,1,3.59,1Z"
                transform="translate(6.28 39.226)" fill="#5bb3b3" />
            <path
                d="M0-1H16.151a1,1,0,0,1,1,1V70.563a1,1,0,0,1-1,1H0a1,1,0,0,1-1-1V0A1,1,0,0,1,0-1ZM15.151,1H1V69.563H15.151Z"
                transform="translate(24.06 0)" fill="#5bb3b3" />
            <path d="M3.59,1H0A1,1,0,0,1-1,0,1,1,0,0,1,0-1H3.59a1,1,0,0,1,1,1A1,1,0,0,1,3.59,1Z"
                transform="translate(30.341 32.323)" fill="#5bb3b3" />
            <path d="M3.59,1H0A1,1,0,0,1-1,0,1,1,0,0,1,0-1H3.59a1,1,0,0,1,1,1A1,1,0,0,1,3.59,1Z"
                transform="translate(30.341 39.226)" fill="#5bb3b3" />
        </g>
        <g transform="translate(60.994 19.523)">
            <path
                d="M0-1H16.151a1,1,0,0,1,1,1V70.563a1,1,0,0,1-1,1H0a1,1,0,0,1-1-1V0A1,1,0,0,1,0-1ZM15.151,1H1V69.563H15.151Z"
                transform="translate(0 0)" fill="#5bb3b3" />
            <path d="M3.59,1H0A1,1,0,0,1-1,0,1,1,0,0,1,0-1H3.59a1,1,0,0,1,1,1A1,1,0,0,1,3.59,1Z"
                transform="translate(6.28 32.323)" fill="#5bb3b3" />
            <path d="M3.59,1H0A1,1,0,0,1-1,0,1,1,0,0,1,0-1H3.59a1,1,0,0,1,1,1A1,1,0,0,1,3.59,1Z"
                transform="translate(6.28 39.226)" fill="#5bb3b3" />
            <path
                d="M0-1H16.151a1,1,0,0,1,1,1V70.563a1,1,0,0,1-1,1H0a1,1,0,0,1-1-1V0A1,1,0,0,1,0-1ZM15.151,1H1V69.563H15.151Z"
                transform="translate(24.06 0)" fill="#5bb3b3" />
            <path d="M3.59,1H0A1,1,0,0,1-1,0,1,1,0,0,1,0-1H3.59a1,1,0,0,1,1,1A1,1,0,0,1,3.59,1Z"
                transform="translate(30.341 32.323)" fill="#5bb3b3" />
            <path d="M3.59,1H0A1,1,0,0,1-1,0,1,1,0,0,1,0-1H3.59a1,1,0,0,1,1,1A1,1,0,0,1,3.59,1Z"
                transform="translate(30.341 39.226)" fill="#5bb3b3" />
        </g>
        <g transform="translate(346.187 83.197)">
            <rect width="67.032" height="12.882" transform="translate(10.158 85.311)" fill="#bfe2e2" />
            <path d="M72.675,93.165l-9.381,56.978H21.535L10.069,93.165Z"
                transform="translate(2.354 7.04)" fill="#bfe2e2" />
            <g clip-path="url(#a)">
                <path d="M35.89,92.009a2.543,2.543,0,1,0,5.086,0v-65.5a2.543,2.543,0,0,0-5.086,0Z"
                    transform="translate(6.282 1.811)" fill="#bfe2e2" />
            </g>
            <g transform="translate(42.172 25.781)">
                <g transform="translate(0)" clip-path="url(#b)">
                    <rect width="25.594" height="91.09" transform="translate(-10.254 -10.253)"
                        fill="#bfe2e2" />
                </g>
            </g>
            <g clip-path="url(#a)">
                <path
                    d="M.024,55.984c0-.033-.014-.063-.015-.1A26.633,26.633,0,0,1,39.514,31.862a2.541,2.541,0,0,1,1.314,2.161A26.634,26.634,0,0,1,1.323,58.049c-.029-.016-.052-.042-.08-.059l20.5-10.862A2.543,2.543,0,0,0,19.1,42.782"
                    transform="translate(45.023 2.156)" fill="#bfe2e2" />
                <path
                    d="M81.956,66.214c-.026.02-.043.048-.07.069A26.633,26.633,0,0,1,39.392,48.058a2.543,2.543,0,0,1,1-2.325A26.633,26.633,0,0,1,82.883,63.958c0,.033,0,.066,0,.1L62.14,53.671a2.543,2.543,0,1,0-2,4.674"
                    transform="translate(-39.375 3.05)" fill="#bfe2e2" />
                <path
                    d="M75.478,30c-.029.016-.051.041-.08.056a26.634,26.634,0,0,1-38.98-24.87,2.546,2.546,0,0,1,1.361-2.133,26.634,26.634,0,0,1,38.98,24.87c0,.034-.015.065-.018.1L57.956,14.41A2.543,2.543,0,0,0,55.22,18.7"
                    transform="translate(-30.067 0)" fill="#bfe2e2" />
            </g>
        </g>
        <g transform="translate(-106.216 61.741)">
            <path
                d="M2.014,255.6a1.794,1.794,0,0,1-1.877-1.636c-.545-5.66.563-27.373,2.962-58.084,2.214-28.337,4.929-56.45,6.755-69.956,3.453-25.543,7.583-53.042,12.03-63.328,4.144-9.587,11.67-22.082,22.37-37.137a50.81,50.81,0,0,1,8.087-8.4c3.058-2.641,6.769-5.5,10.733-8.272,3.41-2.384,6.895-4.622,9.811-6.3C75.648.9,77.588-.01,78.207,0c.138,0,.21.05.214.143.194,4.694-1.37,11.849-2.75,18.162-.7,3.2-1.359,6.215-1.714,8.574a54.2,54.2,0,0,1-6.191,17.955A90.3,90.3,0,0,1,56.011,61.287C51.481,66.454,45.762,72.2,37.7,75.6a32.965,32.965,0,0,1-6.278,1.7,37.06,37.06,0,0,0-5.333,1.349c-.663.243-1.172.418-1.544.547-1.205.416-1.205.416-1.34.911a7.248,7.248,0,0,1-.866,1.957c-1.982,3.383-2.858,7.477-3.7,11.436-.244,1.142-.475,2.221-.73,3.269-2.5,10.283-6.61,42.531-10,78.422C6.2,193.179,4.913,209.77,4.17,223.175c-.847,15.281-.951,25.648-.309,30.815a1.251,1.251,0,0,1-.36,1.071A2.07,2.07,0,0,1,2.014,255.6Z"
                transform="matrix(0.985, -0.174, 0.174, 0.985, 44.169, 13.621)" fill="#bfe2e2" />
            <path
                d="M2.052,256.1H2.006a2.292,2.292,0,0,1-2.367-2.088c-.547-5.687.56-27.433,2.961-58.17,2.215-28.345,4.931-56.47,6.758-69.984,3.458-25.577,7.6-53.118,12.067-63.459,4.158-9.619,11.7-22.145,22.421-37.228a51.287,51.287,0,0,1,8.168-8.486c3.07-2.652,6.8-5.523,10.773-8.3,3.422-2.391,6.919-4.638,9.848-6.327C75.58.361,77.451-.5,78.2-.5h.018a.655.655,0,0,1,.706.622c.2,4.759-1.375,11.947-2.761,18.29-.7,3.19-1.355,6.2-1.708,8.542a54.685,54.685,0,0,1-6.246,18.118A90.794,90.794,0,0,1,56.387,61.617c-4.568,5.209-10.338,11-18.5,14.448a33.332,33.332,0,0,1-6.373,1.728,36.7,36.7,0,0,0-5.26,1.328c-.666.244-1.178.421-1.551.549a6.107,6.107,0,0,0-.962.372,1.872,1.872,0,0,0-.061.2,7.7,7.7,0,0,1-.917,2.079c-1.942,3.314-2.809,7.367-3.647,11.287-.245,1.145-.476,2.225-.733,3.283-2.493,10.263-6.6,42.482-9.988,78.351C6.7,193.219,5.412,209.8,4.669,223.2c-.845,15.251-.95,25.588-.312,30.725a1.758,1.758,0,0,1-.5,1.484A2.537,2.537,0,0,1,2.052,256.1ZM77.933.551a24.7,24.7,0,0,0-4.8,2.373c-2.9,1.674-6.376,3.9-9.774,6.28-3.95,2.761-7.647,5.61-10.692,8.24a50.333,50.333,0,0,0-8.007,8.308C33.982,40.779,26.473,53.243,22.343,62.8c-4.424,10.23-8.545,37.687-11.994,63.2-1.825,13.5-4.539,41.6-6.752,69.928-2.4,30.683-3.505,52.364-2.963,58A1.328,1.328,0,0,0,2.022,255.1h.03a1.582,1.582,0,0,0,1.094-.394.748.748,0,0,0,.219-.657c-.645-5.2-.542-15.594.306-30.9.743-13.412,2.034-30.01,3.733-48,3.392-35.912,7.509-68.19,10.012-78.494.254-1.045.483-2.118.726-3.255.855-4,1.739-8.132,3.763-11.585a6.8,6.8,0,0,0,.815-1.835c.2-.751.426-.828,1.659-1.253.372-.128.878-.3,1.535-.544a37.421,37.421,0,0,1,5.406-1.369A32.6,32.6,0,0,0,37.5,75.144c7.971-3.369,13.639-9.062,18.133-14.186A89.813,89.813,0,0,0,67.326,44.6,53.7,53.7,0,0,0,73.462,26.8c.358-2.375,1.019-5.4,1.72-8.6C76.518,12.088,78.028,5.184,77.933.551Z"
                transform="matrix(0.985, -0.174, 0.174, 0.985, 44.169, 13.621)" fill="rgba(0,0,0,0)" />
            <path
                d="M96.969,42.988C102.906,40.023,165.675-3.307,168.675.2c-29.261,42.546-54.513,51.01-58.816,53.4a12.928,12.928,0,0,1-14.231-.8c-2.032,1.717-3.931,3.516-5.759,5.032C84.3,62.446,79.04,67.182,74.021,72.035,63.593,82.116,54.693,92.8,45.375,103.279c-9.2,10.343-18.316,20.74-26.629,31.362C11.7,143.641,2.292,154.211,0,164.163c3.372-21.131,17.212-41.274,33.79-59.687,16.443-18.262,35.331-38.19,61.036-52.4C92.136,49.331,92,45.471,96.969,42.988Z"
                transform="matrix(0.848, -0.53, 0.53, 0.848, 32.579, 153.135)" fill="#bfe2e2" />
            <path
                d="M95.248,0H89.389c-2.739,8.574-6.061,17.47-9.878,26.443-.491,1.157-.968,2.35-1.471,3.613l-.01.025c-1.757,4.411-3.572,8.968-6.313,12.593A10.044,10.044,0,0,0,70.409,44.8c-.249.549-.249.549-1.533.888-.367.1-.924.243-1.645.449a35.016,35.016,0,0,1-5.559.936,31.36,31.36,0,0,0-6.585,1.232c-8.733,2.974-15.7,8.866-21.368,14.237a119.567,119.567,0,0,0-15.407,17.4,75.869,75.869,0,0,0-10.28,19.73,153.57,153.57,0,0,0-6.482,23.819c-.053.312-.166.816-.309,1.453l-.014.063c-.7,3.1-2,8.864-.609,10.413a1.148,1.148,0,0,0,.889.386,1.779,1.779,0,0,0,.281-.024c4.264-.693,10.447-6.76,15.415-11.635,1.674-1.643,3.121-3.063,4.311-4.1a162.9,162.9,0,0,0,15.433-15.445A258.506,258.506,0,0,0,64.256,67.6a336.84,336.84,0,0,0,17.2-32.144A294.921,294.921,0,0,0,94.643,1.9c.193-.594.4-1.234.6-1.9Z"
                transform="translate(185.416 268.476) rotate(180)" fill="#bfe2e2" />
            <path
                d="M89.023-.5h6.993l-.3.678c-.227.727-.422,1.342-.6,1.879A295.415,295.415,0,0,1,81.9,35.665,337.342,337.342,0,0,1,64.684,67.857a259.01,259.01,0,0,1-27.363,37.08,163.4,163.4,0,0,1-15.48,15.492c-1.182,1.026-2.622,2.439-4.288,4.075-5.018,4.924-11.263,11.053-15.685,11.772a2.29,2.29,0,0,1-.362.03,1.652,1.652,0,0,1-1.26-.551c-1.445-1.607-.5-6.447.492-10.858l.016-.07c.141-.627.252-1.122.3-1.42a154.015,154.015,0,0,1,6.5-23.9A76.361,76.361,0,0,1,17.9,79.653,120.059,120.059,0,0,1,33.375,62.181c5.7-5.408,12.726-11.342,21.551-14.347a31.749,31.749,0,0,1,6.689-1.255,34.653,34.653,0,0,0,5.479-.92c.686-.2,1.232-.34,1.593-.436l.061-.016a6.223,6.223,0,0,0,1.032-.315c.044-.025.057-.04.173-.3a10.486,10.486,0,0,1,1.364-2.224c2.7-3.57,4.5-8.094,6.245-12.47l.012-.032c.544-1.365,1-2.5,1.475-3.623,3.808-8.951,7.126-17.833,9.862-26.4Zm5.543,1H89.754c-2.724,8.488-6.015,17.28-9.783,26.138-.473,1.114-.924,2.241-1.465,3.6l-.014.036c-1.768,4.437-3.6,9.026-6.376,12.7a9.584,9.584,0,0,0-1.251,2.033c-.347.766-.549.82-1.861,1.166l-.061.016c-.357.094-.9.237-1.574.43a35.366,35.366,0,0,1-5.636.951,31.019,31.019,0,0,0-6.483,1.209c-8.643,2.943-15.56,8.793-21.186,14.127A119.078,119.078,0,0,0,18.719,80.233a75.377,75.377,0,0,0-10.214,19.6,153.125,153.125,0,0,0-6.463,23.741c-.055.325-.169.831-.313,1.472l-.016.071a57.887,57.887,0,0,0-1.08,5.736c-.331,2.8.011,3.849.355,4.233a.72.72,0,0,0,.72.2c4.107-.668,10.227-6.673,15.144-11.5,1.678-1.647,3.128-3.07,4.333-4.116a162.411,162.411,0,0,0,15.386-15.4A258.01,258.01,0,0,0,63.828,67.339,336.344,336.344,0,0,0,81,35.243,294.417,294.417,0,0,0,94.167,1.749C94.289,1.375,94.421.962,94.566.5Z"
                transform="translate(185.416 268.476) rotate(180)" fill="rgba(0,0,0,0)" />
            <path
                d="M88.476,257.57H80.782c-.107-2.081-.193-4.075-.255-5.93-.438-12.929-1.627-26.577-3.742-42.952-1.531-11.859-3.929-23.852-6.249-35.45l-.006-.026c-.357-1.784-.778-3.891-1.193-5.986-1.151-5.814-2.429-12.012-4.143-20.1-.116-.542-.212-1.368-.325-2.324l0-.017c-.293-2.511-.7-5.952-1.8-6.943-.891-.8-3.871-1.315-6.753-1.816a30.83,30.83,0,0,1-5.071-1.125,64.808,64.808,0,0,1-13.724-7.957,96.228,96.228,0,0,1-20.195-20.986A89.268,89.268,0,0,1,3.865,77.6,108.047,108.047,0,0,1,.009,47.175c.014-1.145.679-5.6,1.519-11.246v-.007C3.606,22,6.742.965,4.589.554A7.553,7.553,0,0,0,5.109,0C7.6,3.469,10.06,6.984,11.92,9.658A384.393,384.393,0,0,1,38.338,53.665,331.031,331.031,0,0,1,57.88,100.048c6.263,18.923,10.705,38.593,15,57.616v.007l.035.157c6.858,30.378,13.165,60.144,14.967,90.325.161,2.7.345,5.568.508,8.1l.084,1.315Z"
                transform="translate(42.984 36.113) rotate(6)" fill="#bfe2e2" />
            <path
                d="M88.476,258.07H80.308l-.024-.474c-.107-2.074-.193-4.072-.255-5.939-.438-12.918-1.626-26.552-3.738-42.9-1.529-11.845-3.926-23.828-6.244-35.414l-.01-.051c-.364-1.817-.776-3.877-1.189-5.964-1.142-5.771-2.42-11.967-4.142-20.09-.118-.55-.213-1.36-.324-2.3l-.011-.092c-.251-2.152-.672-5.759-1.639-6.624-.784-.7-3.954-1.253-6.5-1.7a30.947,30.947,0,0,1-5.178-1.155,65.3,65.3,0,0,1-13.832-8.018,96.732,96.732,0,0,1-20.3-21.1A89.767,89.767,0,0,1,3.383,77.736,108.547,108.547,0,0,1-.491,47.169c.015-1.178.681-5.65,1.525-11.312l0-.015C2.043,29.091,3.3,20.69,4.077,13.762c.422-3.745.665-6.721.723-8.845.085-3.151-.259-3.774-.346-3.88L3.546.864l.7-.67a7.048,7.048,0,0,0,.486-.518l.414-.487.373.519c2.516,3.5,4.964,7,6.815,9.664A384.878,384.878,0,0,1,38.783,53.438,331.528,331.528,0,0,1,58.354,99.891c6.268,18.939,10.713,38.614,15.01,57.642l.041.185c6.864,30.4,13.174,60.191,14.978,90.4.161,2.7.345,5.567.507,8.1l.085,1.347v.5Zm-7.219-1h6.686l-.05-.785c-.162-2.533-.346-5.4-.508-8.1-1.8-30.138-8.1-59.885-14.955-90.244l-.041-.185c-4.293-19-8.731-38.655-14.984-57.548A330.527,330.527,0,0,0,37.892,53.893,383.881,383.881,0,0,0,11.509,9.943C9.9,7.628,7.837,4.675,5.672,1.644A16.233,16.233,0,0,1,5.811,4.3c-.022,2.11-.241,5.03-.669,8.925C4.366,20.293,3.068,29,2.025,36l0,.013C1.185,41.632.523,46.072.509,47.182A107.545,107.545,0,0,0,4.347,77.467a88.771,88.771,0,0,0,13.382,28.2,95.725,95.725,0,0,0,20.087,20.876,64.3,64.3,0,0,0,13.616,7.9,30.773,30.773,0,0,0,4.966,1.095c3.089.537,6,1.044,7,1.936,1.155,1.034,1.574,3.9,1.966,7.257l.01.087c.108.913.2,1.7.309,2.207,1.723,8.129,3,14.329,4.145,20.1.413,2.085.825,4.145,1.189,5.962l.01.05c2.321,11.6,4.722,23.6,6.255,35.484,2.117,16.385,3.307,30.048,3.746,43C81.085,253.342,81.162,255.172,81.258,257.07Z"
                transform="translate(42.984 36.113) rotate(6)" fill="rgba(0,0,0,0)" />
            <path
                d="M.069,236.537h0A145.7,145.7,0,0,1,.7,218.082a186.076,186.076,0,0,1,2.751-18.45A276.615,276.615,0,0,1,13.39,163.72c2.714-7.908,5.967-16.057,9.945-24.911,3.277-7.3,7.016-15.014,11.766-24.288.386-.753.806-1.539,1.252-2.371l0-.005c1.844-3.445,3.933-7.349,4.565-10.837.379-2.1-.44-4.15-1.308-6.32-.377-.943-.767-1.918-1.057-2.909a81.017,81.017,0,0,1-1.1-39.054c1.459-6.817,4.484-11.843,9.246-15.368,4.553-3.369,10.778-5.411,19.031-6.243C71.014,30.883,98.951,5.153,104.5,0l.018.741C99.925,9.227,76.9,51.754,74.42,55.647,68.9,64.33,63.079,73.6,57.986,83.07c-6.966,12.95-12.473,23.685-17.33,33.785a554.136,554.136,0,0,0-24.483,58.705c-3.534,10.176-6.657,20.338-9.282,30.2C4.14,216.1,1.845,226.456.069,236.537Z"
                transform="translate(43.231 66.703) rotate(-14)" fill="#bfe2e2" />
            <path
                d="M.481,237.079l-.9-.085-.014-.44A146.208,146.208,0,0,1,.2,218.034a186.584,186.584,0,0,1,2.758-18.5,277.108,277.108,0,0,1,9.959-35.977c2.719-7.923,5.978-16.086,9.961-24.954,3.281-7.3,7.023-15.029,11.777-24.311.388-.758.81-1.546,1.256-2.379l0-.007c1.825-3.41,3.895-7.278,4.512-10.688.354-1.96-.44-3.944-1.28-6.045-.381-.954-.776-1.94-1.073-2.954a81.525,81.525,0,0,1-1.11-39.3c1.486-6.941,4.573-12.065,9.437-15.665,4.627-3.424,10.933-5.5,19.279-6.338.773-.078,2.66-.889,7.257-4.312,3.091-2.3,7.045-5.513,11.752-9.545C92.9,10.027,101.04,2.53,104.158-.366l.814-.756.047,1.984-.063.117C100.364,9.465,77.334,52,74.842,55.916c-5.518,8.675-11.33,17.936-16.416,27.392-6.963,12.944-12.466,23.673-17.32,33.765a553.645,553.645,0,0,0-24.461,58.653c-3.53,10.164-6.649,20.315-9.271,30.169-2.747,10.324-5.039,20.664-6.812,30.73ZM103.458,1.645c-3.76,3.473-10.91,10-18.117,16.175-4.724,4.047-8.7,7.273-11.8,9.588-3.892,2.9-6.429,4.371-7.754,4.5C57.621,32.735,51.476,34.745,47,38.06c-4.66,3.449-7.622,8.378-9.054,15.07a80.509,80.509,0,0,0,1.091,38.808c.284.968.669,1.932,1.042,2.864.895,2.238,1.74,4.352,1.335,6.594-.646,3.565-2.755,7.507-4.616,10.984l0,.008c-.443.827-.862,1.611-1.246,2.361-4.746,9.266-8.481,16.976-11.755,24.265-3.971,8.84-7.218,16.975-9.928,24.869A276.126,276.126,0,0,0,3.939,199.73,185.575,185.575,0,0,0,1.2,218.13C.763,222.647.531,227.1.5,231.412c1.626-8.491,3.606-17.139,5.9-25.776,2.628-9.878,5.755-20.052,9.293-30.24a554.624,554.624,0,0,1,24.5-58.758c4.861-10.106,10.371-20.848,17.341-33.805C62.647,73.349,68.471,64.07,74,55.379,76.375,51.642,97.724,12.24,103.458,1.645Z"
                transform="translate(43.231 66.703) rotate(-14)" fill="rgba(0,0,0,0)" />
            <path
                d="M.857,8.253C.312,3.9,3.179,0,6.919,0H82.181c3.74,0,6.607,3.9,6.062,8.253L82.425,54.619C80.652,68.753,70.333,79.225,58.179,79.225H30.92c-12.155,0-22.473-10.471-24.246-24.606Z"
                transform="translate(53.792 267.544)" fill="#bfe2e2" />
        </g>
        <g transform="translate(11.392 -2.646)">
            <path d="M8.054,1H0A1,1,0,0,1-1,0,1,1,0,0,1,0-1H8.054a1,1,0,0,1,1,1A1,1,0,0,1,8.054,1Z"
                transform="translate(243.561 52.963)" fill="#5bb3b3" />
            <path d="M8.054,1H0A1,1,0,0,1-1,0,1,1,0,0,1,0-1H8.054a1,1,0,0,1,1,1A1,1,0,0,1,8.054,1Z"
                transform="translate(243.561 52.963)" fill="#5bb3b3" />
            <g transform="translate(242.09 13)">
                <path
                    d="M32.795-1A33.8,33.8,0,0,1,45.95,63.934,33.8,33.8,0,0,1,19.64,1.656,33.584,33.584,0,0,1,32.795-1Zm0,65.59A31.8,31.8,0,0,0,45.171,3.5,31.8,31.8,0,0,0,20.419,62.092,31.6,31.6,0,0,0,32.795,64.59Z"
                    transform="translate(11.192 10.182)" fill="#5bb3b3" />
                <path
                    d="M356.374,36.767a2.837,2.837,0,1,1-2.838,2.837A2.841,2.841,0,0,1,356.374,36.767Zm0,3.675a.837.837,0,1,0-.838-.837A.838.838,0,0,0,356.374,40.442Z"
                    transform="translate(-312.387 3.373)" fill="#5bb3b3" />
                <path
                    d="M43.988-1a45.6,45.6,0,0,1,17.5,3.453,44.908,44.908,0,0,1,14.3,9.419,43.789,43.789,0,0,1,9.646,13.979,43.207,43.207,0,0,1,0,34.252A43.789,43.789,0,0,1,75.79,74.082a44.908,44.908,0,0,1-14.3,9.419,46.09,46.09,0,0,1-35.008,0,44.908,44.908,0,0,1-14.3-9.419A43.789,43.789,0,0,1,2.539,60.1a43.207,43.207,0,0,1,0-34.252,43.789,43.789,0,0,1,9.646-13.979,44.908,44.908,0,0,1,14.3-9.419A45.6,45.6,0,0,1,43.988-1Zm0,85.954a43.606,43.606,0,0,0,16.74-3.3,42.917,42.917,0,0,0,13.665-9A41.8,41.8,0,0,0,83.6,59.309a41.207,41.207,0,0,0,0-32.663A41.8,41.8,0,0,0,74.393,13.3a42.917,42.917,0,0,0-13.665-9,44.09,44.09,0,0,0-33.48,0,42.917,42.917,0,0,0-13.665,9A41.8,41.8,0,0,0,4.374,26.646a41.207,41.207,0,0,0,0,32.663,41.8,41.8,0,0,0,9.208,13.343,42.917,42.917,0,0,0,13.665,9A43.606,43.606,0,0,0,43.988,84.954Z"
                    fill="#5bb3b3" />
                <path
                    d="M356.532,43.333a1,1,0,0,1-1-1l.028-27.506a1,1,0,0,1,1-1h0a1,1,0,0,1,1,1l-.027,26.23,16.055-3.931a1,1,0,1,1,.476,1.943L356.77,43.3A1,1,0,0,1,356.532,43.333Z"
                    transform="translate(-312.149 0.645)" fill="#5bb3b3" />
                <path
                    d="M0,9.629a1,1,0,0,1-1-1V0A1,1,0,0,1,0-1,1,1,0,0,1,1,0V8.629A1,1,0,0,1,0,9.629Z"
                    transform="translate(44.302 0.094)" fill="#5bb3b3" />
                <path
                    d="M0,9.629a1,1,0,0,1-1-1V0A1,1,0,0,1,0-1,1,1,0,0,1,1,0V8.629A1,1,0,0,1,0,9.629Z"
                    transform="translate(44.302 76.916)" fill="#5bb3b3" />
                <path
                    d="M8.629,1H0A1,1,0,0,1-1,0,1,1,0,0,1,0-1H8.629a1,1,0,0,1,1,1A1,1,0,0,1,8.629,1Z"
                    transform="translate(78.399 42.82)" fill="#5bb3b3" />
            </g>
        </g>
        <path
            d="M191.16,31.924H128l.04,7.937-53.148.267-.041-8.2H11.772a6.973,6.973,0,0,0-6.953,6.953v18.68c0,3.824-.665,6.953,3.159,6.953H194.8c3.824,0,3.314-3.129,3.314-6.953V38.877a6.973,6.973,0,0,0-6.953-6.953"
            transform="translate(98.545 80.358)" fill="#85cb85" />
        <path
            d="M112.011,6.555h40V30.266h6.956V4.978c0-2.748-3.116-4.975-6.956-4.978h-40c-3.841,0-6.952,2.231-6.958,4.978V30.4l6.536-.025"
            transform="translate(67.99 90.085)" fill="#313e58" />
        <path
            d="M192.443,147.487a7.89,7.89,0,0,1-7.51,7.369H18.554a7.833,7.833,0,0,1-7.465-7.373l-4.542-65.4a6.624,6.624,0,0,1,6.441-7.373h178a6.575,6.575,0,0,1,6.4,7.369Z"
            transform="translate(98.011 67.32)" fill="#629d62" />
        <path
            d="M198.609,85.154H1.391A1.39,1.39,0,0,1,0,83.763v-7a1.39,1.39,0,0,1,1.391-1.391H198.609A1.39,1.39,0,0,1,200,76.767v7a1.39,1.39,0,0,1-1.391,1.391"
            transform="translate(100 66.117)" fill="#629d62" />
        <rect width="15.808" height="11.019" transform="translate(137.52 140.9)" fill="#e4e6ea" />
        <rect width="15.808" height="11.019" transform="translate(137.52 140.9)" fill="#629d62" />
        <path
            d="M0-1.5H15.808a1.5,1.5,0,0,1,1.5,1.5V11.019a1.5,1.5,0,0,1-1.5,1.5H0a1.5,1.5,0,0,1-1.5-1.5V0A1.5,1.5,0,0,1,0-1.5Zm14.308,3H1.5V9.519H14.308Z"
            transform="translate(137.52 140.9)" fill="#313e58" />
        <path
            d="M56.979,87.431H68.6a1.5,1.5,0,0,1,1.5,1.5v2.875a7.308,7.308,0,0,1-14.616,0V88.931A1.5,1.5,0,0,1,56.979,87.431Zm10.116,3H58.479v1.375a4.308,4.308,0,0,0,8.616,0Z"
            transform="translate(82.638 62.987)" fill="#313e58" />
        <rect width="15.808" height="11.019" transform="translate(246.672 140.9)" fill="#e4e6ea" />
        <rect width="15.808" height="11.019" transform="translate(246.672 140.9)" fill="#629d62" />
        <path
            d="M0-1.5H15.808a1.5,1.5,0,0,1,1.5,1.5V11.019a1.5,1.5,0,0,1-1.5,1.5H0a1.5,1.5,0,0,1-1.5-1.5V0A1.5,1.5,0,0,1,0-1.5Zm14.308,3H1.5V9.519H14.308Z"
            transform="translate(246.672 140.9)" fill="#313e58" />
        <path
            d="M213.966,87.431h11.616a1.5,1.5,0,0,1,1.5,1.5v2.875a7.308,7.308,0,0,1-14.616,0V88.931A1.5,1.5,0,0,1,213.966,87.431Zm10.116,3h-8.616v1.375a4.308,4.308,0,0,0,8.616,0Z"
            transform="translate(34.803 62.987)" fill="#313e58" />
        <path d="M157.916,121a21.677,21.677,0,1,1-21.678-21.678A21.678,21.678,0,0,1,157.916,121"
            transform="translate(62.093 62.822)" fill="#fff" />
        <path d="M153.432,120H143.25V109.818h-9.2V120H123.872v9.2h10.182v10.182h9.2V129.2h10.182Z"
            transform="translate(59.679 60.1)" fill="#e88a2d" />
        <path d="M190,1H0V-1H190Z" transform="translate(105 152.246)" fill="#313e58" />
        <g transform="translate(2 -9.299)">
            <path
                d="M52.495,28.866,57.384,12.8l32.59-4.888-1.862,14.9,16.761,1.863-1.164-20.02s-.233-2.561-3.958-2.794A113.108,113.108,0,0,1,88.345,0L45.511,6.751s-1.4-.233-3.026,2.561-8.613,17.459-8.613,17.459"
                transform="translate(213 200.069)" fill="#cc7a29" />
            <path
                d="M50.632,29.1l37.479-6.285,16.761,1.862S114,27.469,114,33.987V60.06s-.279,8.381-7.728,9.079-48.42,10.708-48.42,10.708L63.668,55.4Z"
                transform="translate(213 200.069)" fill="#e88a2d" />
            <path
                d="M69.012,56.684c0-16.341-9.761-29.651-21.97-30.251L31.533,25.9c-6.463.376-8.265,1.641-11.806,2.727C24.2,52.261,38.691,88.14,38.691,88.14l16.5-3.4c7.507-2.619,13.822-11.58,13.822-28.051"
                transform="translate(213 200.069)" fill="#cc7a29" />
            <path
                d="M57.063,58.43c0-13.812-8.2-26.464-18.109-30.412a27.091,27.091,0,0,0-6.974-1.946c-2.182-.356-10.053,1.307-12.726,2.3C8.729,32.3,0,43.149,0,58.43,0,75.153,10.22,88.71,22.828,88.71L34.8,88.693v0c12.345-.4,22.261-13.79,22.261-30.261"
                transform="translate(213 200.069)" fill="#313e58" />
            <path
                d="M9.981,40.441A29.028,29.028,0,0,0,4.142,58.43c0,9.146,3.737,17.128,9.293,21.424L23.59,58.527Z"
                transform="translate(213 200.069)" fill="#acb1bc" />
            <path
                d="M41.515,58.43c0-13.689-8.366-24.786-18.686-24.786-4.979,0-9.5,2.587-12.848,6.8l13.61,18.086L13.435,79.854a15.277,15.277,0,0,0,9.394,3.362c10.32,0,18.686-11.1,18.686-24.786"
                transform="translate(213 200.069)" fill="#7a8293" />
            <path
                d="M16.94,58.527c0,2.571,2.978,4.656,6.651,4.656s4.822-2.584,4.822-5.155-1.149-4.157-4.822-4.157-6.651,2.085-6.651,4.656"
                transform="translate(213 200.069)" fill="#e4e6ea" />
        </g>
        <g transform="translate(20.184 -10.819) rotate(3)">
            <path
                d="M.008,0V30.257a.565.565,0,0,0,.384.651,46,46,0,0,0,11.038,1.354,39.672,39.672,0,0,0,10.86-1.334c.441-.155.455-.793.455-.793V0A43.971,43.971,0,0,1,11.429,1.458,44.842,44.842,0,0,1,.008,0"
                transform="translate(181.966 231) rotate(90)" fill="#313e58" />
            <path
                d="M11.688,0A97.27,97.27,0,0,0,.587.682.743.743,0,0,0,0,1.321V16.115a45.452,45.452,0,0,0,11.421,1.437,44.566,44.566,0,0,0,11.315-1.437V1.186S22.47.692,22.11.642A79.322,79.322,0,0,0,11.688,0"
                transform="translate(197.47 231) rotate(90)" fill="#e88a2d" />
            <path
                d="M22.21.48A81.361,81.361,0,0,0,11.648,0,104.547,104.547,0,0,0,.186.537c-.271.053-.175.745-.192.837A40.089,40.089,0,0,0,11.381,3.018,42.559,42.559,0,0,0,22.768,1.479c-.059-.117.011-.644-.091-.733"
                transform="translate(197.045 231) rotate(90)" fill="#313e58" />
            <path
                d="M39.063,4.2h-5.9a1.043,1.043,0,0,1-1.04-1.04V1.04A1.043,1.043,0,0,1,33.167,0h5.9A1.043,1.043,0,0,1,40.1,1.04V3.163a1.043,1.043,0,0,1-1.04,1.04"
                transform="translate(200 205.873) rotate(90)" fill="#7a8293" />
            <path
                d="M1889.366-1442.517v-2.366H1887v-1.75h2.366V-1449h1.75v2.366h2.367v1.75h-2.367v2.366Z"
                transform="translate(-1702.988 1688)" fill="#333" />
            <path
                d="M1891.616-1442.017h-2.75v-2.366H1886.5v-2.75h2.366v-2.366h2.75v2.366h2.367v2.75h-2.367Zm-1.75-1h.75v-2.366h2.367v-.75h-2.367v-2.366h-.75v2.366H1887.5v.75h2.366Z"
                transform="translate(-1702.988 1688)" fill="rgba(0,0,0,0)" />
            <rect width="1.94" height="7.894" transform="translate(165.457 241) rotate(90)"
                fill="#e4e6ea" />
            <path
                d="M22.068.618A82.432,82.432,0,0,0,11.648,0,101.058,101.058,0,0,0,.549.656a.587.587,0,0,0-.486.459A46.347,46.347,0,0,0,11.381,2.5a46.348,46.348,0,0,0,11.3-1.379c-.059-.1-.3-.457-.611-.5"
                transform="translate(197.47 231) rotate(90)" fill="#7a8293" />
        </g>
        <g transform="translate(207.82 298.713) rotate(-19)">
            <path
                d="M356.621,219a54.944,54.944,0,0,1-7.3-1.051q-.04-.008-.08-.02l-84.523-24.686a2.444,2.444,0,0,1-1.659-3.029L264.29,186a2.443,2.443,0,0,1,3.028-1.66L351.5,208.928q.038.011.075.025c.02.007,1.974.751,3.876,1.578,1.133.493,2.031.922,2.671,1.274.694.383,1.856,1.023,1.554,2.055l-1.231,4.216C358.175,219,357.046,219,356.621,219Zm-6.86-3a53.5,53.5,0,0,0,6.86,1h.054l.929-3.183a25.614,25.614,0,0,0-3.45-1.67c-1.545-.658-3.007-1.22-3.253-1.314L266.758,186.26a.435.435,0,0,0-.121-.017.445.445,0,0,0-.426.317l-1.232,4.218a.445.445,0,0,0,.3.548Z"
                transform="translate(-260.671 -185.243)" fill="#5bb3b3" />
            <path
                d="M0,8.088a1,1,0,0,1-.281-.04,1,1,0,0,1-.68-1.24L1.11-.28A1,1,0,0,1,2.35-.96,1,1,0,0,1,3.03.28L.96,7.368A1,1,0,0,1,0,8.088Z"
                transform="translate(6.47 0.637)" fill="#5bb3b3" />
            <path
                d="M339.011,191.794a1,1,0,0,1-.281-.04l-2.108-.615a2.447,2.447,0,0,1-1.66-3.028l.615-2.105a2.447,2.447,0,0,1,3.028-1.661l2.277.666a1,1,0,0,1-.561,1.92l-2.276-.666a.447.447,0,0,0-.547.3l-.615,2.106a.449.449,0,0,0,.3.548l2.106.615a1,1,0,0,1-.28,1.96Z"
                transform="translate(-335.866 -185.242)" fill="#5bb3b3" />
            <path
                d="M328.518,190.788a1.463,1.463,0,0,1-.414-.06l-6.854-2a1.469,1.469,0,0,1-1-1.823l.052-.176a1.467,1.467,0,0,1,1.822-1l6.854,2a1.469,1.469,0,0,1,1,1.823l-.051.173A1.473,1.473,0,0,1,328.518,190.788Z"
                transform="translate(-305.262 -184.817)" fill="#5bb3b3" />
            <path
                d="M0,7.568a1,1,0,0,1-.281-.04,1,1,0,0,1-.68-1.24L.958-.28A1,1,0,0,1,2.2-.96,1,1,0,0,1,2.878.28L.96,6.848A1,1,0,0,1,0,7.568Z"
                transform="translate(36.805 9.735)" fill="#5bb3b3" />
            <path
                d="M0,7.568a1,1,0,0,1-.281-.04,1,1,0,0,1-.68-1.24L.958-.28A1,1,0,0,1,2.2-.96,1,1,0,0,1,2.878.28L.96,6.848A1,1,0,0,1,0,7.568Z"
                transform="translate(38.328 10.18)" fill="#5bb3b3" />
            <path
                d="M263.447,211.687l-.268,0c-1.081-.017-2.079-.133-2.121-.138a1,1,0,0,1,.234-1.986h0c.008,0,.786.091,1.662.119.361.011.659.01.9,0a18.924,18.924,0,0,0-2.146-1.137,1,1,0,0,1,.823-1.823c.035.016.864.391,1.738.882,1.8,1.014,2.183,1.622,2.319,2.083a1.29,1.29,0,0,1-.151,1.083C266.018,211.415,265.143,211.687,263.447,211.687Z"
                transform="translate(-163.981 -178.577)" fill="#5bb3b3" />
            <path
                d="M0,3.6a1,1,0,0,1-.281-.04,1,1,0,0,1-.68-1.24L-.2-.28a1,1,0,0,1,1.24-.68A1,1,0,0,1,1.718.28L.96,2.876A1,1,0,0,1,0,3.6Z"
                transform="translate(97.93 29.392)" fill="#5bb3b3" />
        </g>
        <g transform="translate(8.154)">
            <path
                d="M92.254,0h0a2.5,2.5,0,0,1,1.983.978l54.4,79.9a1.319,1.319,0,0,1,.11,1.375,1.461,1.461,0,0,1-1.358.728H56.743c-.2,0-2.269-.027-4.369-.1-1.188-.038-2.145-.082-2.846-.13-1.226-.084-1.782-.141-2.111-.626l-.025-.036-.021-.038L2.6,1.976A1.039,1.039,0,0,1,2.544.917,1.023,1.023,0,0,1,3.453.374a1.7,1.7,0,0,1,.713.2,3.534,3.534,0,0,0,.386.152ZM92.6,2.124A.682.682,0,0,0,92.26,2L5.306,2.719,48.9,80.7c1.457.17,6.757.282,7.839.282h89.55Z"
                transform="translate(43.509 282.923) rotate(-14)" fill="#5ab3b3" />
            <path
                d="M27,18H38.035a2.5,2.5,0,0,1,1.983.978l5.147,7.557a1.318,1.318,0,0,1,.11,1.375,1.461,1.461,0,0,1-1.358.728H32.881A2.5,2.5,0,0,1,30.9,27.66L25.753,20.1a1.319,1.319,0,0,1-.11-1.375A1.461,1.461,0,0,1,27,18Zm11.379,2.124A.679.679,0,0,0,38.035,20H28.1l4.435,6.514a.68.68,0,0,0,.344.124h9.934Z"
                transform="translate(36.289 276.187) rotate(-14)" fill="#5ab3b3" />
            <path
                d="M40.522,47H51.558a2.5,2.5,0,0,1,1.983.978l5.146,7.557a1.319,1.319,0,0,1,.11,1.375,1.461,1.461,0,0,1-1.358.728H46.4a2.5,2.5,0,0,1-1.983-.978L39.275,49.1a1.319,1.319,0,0,1-.11-1.375A1.461,1.461,0,0,1,40.522,47ZM51.9,49.124A.68.68,0,0,0,51.558,49H41.624l4.436,6.514a.68.68,0,0,0,.343.124h9.934Z"
                transform="translate(30.283 263.932) rotate(-14)" fill="#5ab3b3" />
            <path
                d="M54.045,76H65.081a2.5,2.5,0,0,1,1.983.978l5.146,7.557a1.319,1.319,0,0,1,.11,1.375,1.461,1.461,0,0,1-1.358.728H59.926a2.5,2.5,0,0,1-1.983-.978L52.8,78.1a1.319,1.319,0,0,1-.11-1.375A1.461,1.461,0,0,1,54.045,76Zm11.379,2.124A.68.68,0,0,0,65.081,78H55.147l4.436,6.514a.68.68,0,0,0,.344.124H69.86Z"
                transform="translate(24.276 251.677) rotate(-14)" fill="#5ab3b3" />
            <path d="M45.72,1H0A1,1,0,0,1-1,0,1,1,0,0,1,0-1H45.72a1,1,0,0,1,1,1A1,1,0,0,1,45.72,1Z"
                transform="translate(88.712 286.871) rotate(-14)" fill="#5ab3b3" />
            <path d="M45.72,1H0A1,1,0,0,1-1,0,1,1,0,0,1,0-1H45.72a1,1,0,0,1,1,1A1,1,0,0,1,45.72,1Z"
                transform="translate(103.086 299.701) rotate(-14)" fill="#5ab3b3" />
            <path d="M45.72,1H0A1,1,0,0,1-1,0,1,1,0,0,1,0-1H45.72a1,1,0,0,1,1,1A1,1,0,0,1,45.72,1Z"
                transform="translate(116.242 311.443) rotate(-14)" fill="#5ab3b3" />
            <path d="M45.72,1H0A1,1,0,0,1-1,0,1,1,0,0,1,0-1H45.72a1,1,0,0,1,1,1A1,1,0,0,1,45.72,1Z"
                transform="translate(130.616 324.272) rotate(-14)" fill="#5ab3b3" />
            <path
                d="M38.142,24.94l-4.4-2.5a1,1,0,1,1,.989-1.738l2.953,1.68,5.237-6.243a1,1,0,1,1,1.532,1.285Z"
                transform="translate(34.947 277.576) rotate(-14)" fill="#5ab3b3" />
            <path
                d="M51.665,53.94l-4.4-2.5a1,1,0,1,1,.989-1.738l2.953,1.68,5.237-6.243a1,1,0,1,1,1.532,1.285Z"
                transform="translate(28.94 265.321) rotate(-14)" fill="#5ab3b3" />
        </g>
    </g>
</svg>