<svg xmlns="http://www.w3.org/2000/svg" xmlns:xlink="http://www.w3.org/1999/xlink" width="400"
    height="320" viewBox="0 0 400 320">
    <defs>
        <clipPath>
            <rect width="98.202" height="34.063" fill="#e4e6ea" />
        </clipPath>
        <clipPath>
            <path
                d="M35.89,27.119V108.2c0,1.739.951,3.149,2.123,3.149s2.122-1.41,2.122-3.149V27.119c0-1.739-.951-3.149-2.122-3.149s-2.123,1.41-2.123,3.149"
                transform="translate(-35.89 -23.97)" fill="none" />
        </clipPath>
        <clipPath>
            <rect width="400" height="320" />
        </clipPath>
    </defs>
    <g clip-path="url(#e)">
        <path
            d="M2017.1-2517.122h-6.156l-.006-1.35a177.042,177.042,0,0,0-8.758-29.658c-3.052-7.6-6.832-15.054-10.488-22.268l-.009-.018,0-.006c-3.085-6.088-6.275-12.384-9.005-18.719-1.318-3.06-2.466-5.988-3.453-8.816q-1.761.459-3.656.8a21.514,21.514,0,0,0-3.3-13.531,42.4,42.4,0,0,0-4.088-5.067l-3.958-4.422c-.994-1.111-2.11-2.291-3.585-2.515-1.544-.236-3.285,1.049-3.113,2.6a4.381,4.381,0,0,0,1.147,2.135,76.266,76.266,0,0,1,6.945,10.27,11.272,11.272,0,0,1,1.826,5.29,15.174,15.174,0,0,1-.884,4.212c-.184.65-.338,1.307-.478,1.967a91.521,91.521,0,0,1-18.106-1.444,55.75,55.75,0,0,0,2.918-8.035,23.179,23.179,0,0,0,.446-11.09,1.739,1.739,0,0,0-.339-.789,1.831,1.831,0,0,0-1.008-.453l-2.409-.531a81.445,81.445,0,0,1-4.259,19.981,143.228,143.228,0,0,1-20.325-6.09c1.021-1.805,2.182-3.559,3.035-5.448a18.9,18.9,0,0,0,1.633-6.54c.071-1.1-.076-2.419-1.046-2.939a2.15,2.15,0,0,0-2.325.411,6.558,6.558,0,0,0-1.424,2.046,64.721,64.721,0,0,1-6.279,9.9,198.419,198.419,0,0,1-18.615-9.109c-10.794-4.532-10.794,4.75-10.794,4.75s-3.453-12.521,19.644-20.292c1.789-.6,5.51-1.508,10.306-2.5a56.028,56.028,0,0,1,9.33,2.1c3.9,1.257,7.736,3.021,11.833,3.171.428-1.852-1.813-3.108-3.639-3.64q-5.743-1.673-11.627-2.792c4.443-.828,9.382-1.659,14.371-2.379a63.958,63.958,0,0,1,10.842,3.421,26.453,26.453,0,0,0,5.226,1.852,6.977,6.977,0,0,0,5.329-.9,48.309,48.309,0,0,0-7.612-6c11-.953,19.949-.694,21.048,2.266,1.512,2.806-1.67,5.829-1.67,5.829s34.051-4.75,28.439,16.837a19.432,19.432,0,0,1-4.814,8.527,41.142,41.142,0,0,0-3.106-7.688,12.876,12.876,0,0,0-3.859-4.839,15.179,15.179,0,0,0-4.5-1.809l-11.124-3.139c-1.148-.323-2.672-.507-3.265.528-.616,1.076.424,2.339,1.427,3.072a23.3,23.3,0,0,0,6.917,3.465c2.486.762,5.132,1.12,7.411,2.373a14.082,14.082,0,0,1,6.084,7.756,24.578,24.578,0,0,1,.857,3.053,32.568,32.568,0,0,1-9.137,4.58c8.541,18.884,16.8,38.13,24.588,57.3,1.463,3.6,2.969,7.346,4.406,11.173l-.031-6.643,0-.75,0-.779-.078-16.371v-.031c-.017-3.61-.554-5.348-.54-9.1,1.715.316,2.545,5.82,3.259,7.327.381,8.59.056,12.745.8,20.666.448,4.756,1.039,9.225,1.792,13.529.537-7.3,1.152-14.6,1.834-21.8.092-.963,4.655,25.446,4.55,27.093H2017.1v0Zm-14.44,0h-2.935c-.239-.636-.489-1.289-.745-1.94a101.956,101.956,0,0,0-8.024-16.22c-1.175-1.9-2.426-3.757-3.636-5.554l-.005-.007-.031-.047,0-.006,0,0c-1.433-2.126-2.9-4.3-4.493-6.367a22.945,22.945,0,0,1-3.662,2.019,15.21,15.21,0,0,1-.431-2.493,5.923,5.923,0,0,0-.736-3.088c-.879-1.189-2.573-1.338-4.052-1.381-2.212-.064-4.682-.034-6.278,1.5a.724.724,0,0,0-.283.522.7.7,0,0,0,.233.427c1.192,1.235,3.188,1.214,4.629,2.146a8.005,8.005,0,0,1,2.383,3l.523.939c-3.871,1.352-8.37,2.568-13,3.979a6.37,6.37,0,0,0-1.616-3.521,4.324,4.324,0,0,0-4.95-.693,10.815,10.815,0,0,1,3.925,3.253,7.081,7.081,0,0,1,.7,1.563c-9.789,3.1-19.782,7.306-25.14,15.792-6.018-17.486,5.092-43.606,22.452-52.025s12.5,15.111,12.5,15.111c14.815-4.533,19.444-4.964,16.667,7.771a7.572,7.572,0,0,1-2.182,3.8q.087.078.174.16a21.279,21.279,0,0,1,3.353,4.393,272.708,272.708,0,0,1,14.67,26.976h0Zm34.351,0h-3.756c1.618-3.046,3.391-6.03,5.27-8.873.309-.468,1.433-2.014,2.958-4.037a16.8,16.8,0,0,1-6.468-14.019,6.516,6.516,0,0,1,4.365-.776c.735.163,1.42.5,2.137.73a8.058,8.058,0,0,0,2.467.392,3.226,3.226,0,0,0,1.612-.337,1.5,1.5,0,0,0,.806-1.356c-.086-.97-1.249-1.394-2.207-1.578a17.992,17.992,0,0,0-5.655-.4,8.177,8.177,0,0,0-3.2,1.1,10.8,10.8,0,0,1,5.255-7.042c10.116-5.752,15.671,0,15.671,0l1.587-.594s18.843,4.958,18.646,15.67-19.638,10.711-18.25,18.447-.992-4.958-12.1-7.934a13.235,13.235,0,0,1-2.257-.832,109.314,109.314,0,0,0-6.777,11.243l-.071.134-.035.067Zm-18.383-38.61c.882-8.877,1.806-17.685,2.446-26.312a45.982,45.982,0,0,1-5.087-6.917q-.579,3.931-1.026,7.8c-.482,4.179-.857,12.266-1.113,16.394,0,0-2.65-6.214-3.358-7.6.177-8.24.947-17.092,1.657-23.5q.643-5.8,1.67-11.575a33.309,33.309,0,0,0-3.64,2.364h0a52.425,52.425,0,0,1-.6-5.659,116.34,116.34,0,0,1,.2-16.537,13.991,13.991,0,0,1,4.655-2.5l.033-.011a12.792,12.792,0,0,1,4.343-.7c.321,0,.65.01.984.029h0c.391.022.788.058,1.182.105l.112.014.044.006.07.009.046.006.074.01.037.005.092.013.02,0a30,30,0,0,1,6.717,1.872,51.485,51.485,0,0,1,11.551,6.541l.633.483-1.116.641,1.156,6.979a126.6,126.6,0,0,0-15.252,2.13c.105,2.439.173,4.846.214,7.2a30.6,30.6,0,0,1,10.081-5.046c.81-.228,1.644-.427,2.451-.621l.058-.014.016,0,.018,0,.1-.024c.923-.222,1.877-.453,2.793-.722l2.115,12.781.5,3.009a31.152,31.152,0,0,0-3.4,8.178,29.178,29.178,0,0,0-.9,8.8,50.682,50.682,0,0,0,1.9,10.357v0h0a64.421,64.421,0,0,1-14.344-8.832q-.838-.692-1.638-1.409c-.392,12.572-1.1,26.4-1.806,40.061C2023.319-2537.924,2018.91-2554.983,2018.631-2555.733Zm-1.641-39.5a34.727,34.727,0,0,1,4.909-6.18q.008-4.177-.177-8.259-.025-.532-.053-1.063c-.6.183-1.164.368-1.7.556Q2018.26-2602.631,2016.99-2595.233ZM2077.8-2557.2h0a13.018,13.018,0,0,0-6.576-4.127,25.005,25.005,0,0,0-7.106-.94,29.429,29.429,0,0,0-4.449.32h-.006a68.374,68.374,0,0,1-9.535-2.343,49.531,49.531,0,0,1-2.457-21.753l21.252-7.841-23.589-30.346-2.256,1.3.688-.9-1.589-1.214a55.7,55.7,0,0,0-12.5-7.08q-1.6-.635-3.145-1.1h0a31.453,31.453,0,0,0-3.685-.885h0q-.549-.1-1.084-.167h0l-.3-.037a22.267,22.267,0,0,0-2.641-.163h-.185a16.7,16.7,0,0,0-5.5.931,21.9,21.9,0,0,0-2.676,1.108c.115-.675.239-1.325.366-1.934a29.714,29.714,0,0,1,4.471-11.268c-.229-.527-.47-1.076-.72-1.644l-.006-.014-.012-.026c-.483-1.1-.994-2.261-1.5-3.451a3.719,3.719,0,0,1-1.962,2.271c-2.964,1.729-12.552,1.6-23.71-.432.686-2.71,2.1-5.286,2.957-7.983a3.08,3.08,0,0,0,.143-1.948,2.335,2.335,0,0,0-1.046-1.154,5.188,5.188,0,0,0-4.354-.247,12.24,12.24,0,0,0-3.776,2.413,3.461,3.461,0,0,0-1.121,1.39,3.625,3.625,0,0,0,.292,2.388c.491,1.346,1,2.687,1.5,4.029a108.489,108.489,0,0,1-17.859-5.67c.048-6.969,2.882-12.513,16.162-16.786.387-.126.561-.636.59-1.035.043-.628-.555-1.114-1.123-1.431a13.114,13.114,0,0,0-9.913-.765,25.28,25.28,0,0,0-8.734,4.964,34.912,34.912,0,0,0-8.06,9.14c-5.165-3.524-9.1-7.707-10.809-12.561-.032-.094-.065-.178-.1-.271a16.865,16.865,0,0,1,3.552-1.888c3.888-1.424,16.182-6.373,20.075-4.965-.141-1.562-2.157-6.45-12.412-3.549a46,46,0,0,0-12.92,5.9c-6.79-16.831-11.365-14.652-11.365-14.652s14.363-8.638,45.055-7.213a5.531,5.531,0,0,0-.856,1.247c-.538,1.108-1.229,5.465.359,6.053,1.783.66,2.253-3.3,2.495-4.44a5.589,5.589,0,0,1,.966-2.581c.035-.04.085-.066.121-.1,3.733.247,7.682.635,11.872,1.209.127.016.249.038.376.055a11.15,11.15,0,0,0-1.258,2.905c-.638,2.348-.415,4.605-.444,6.991-.027,2.215-.85,2.98-1.777,4.978,1.318-2.327,4.168-3.184,6.652-4.175a1.229,1.229,0,0,0,.706-.514,1.242,1.242,0,0,0,.077-.584,23.462,23.462,0,0,1,.849-8.124,1.606,1.606,0,0,1,.381-.661c37.21,6.429,54.766,23.474,46.031,33.237-2.986,3.336-8.114,7.674-25.155,5.919a55.109,55.109,0,0,1,2.878,7.047q.489,1.452.923,2.928a11.419,11.419,0,0,1,5.972-1.607,14.7,14.7,0,0,1,2.216.175c.335.051.683.1.949.136,3.9.54,9.782,1.356,11.571,8.715v-.018a84.549,84.549,0,0,1,5.468-17.583,40.566,40.566,0,0,1,7.834-12.1c3.636-3.649,7.713-5.5,12.117-5.5.227,0,.462.006.7.015,6.151.267,12.682,4.081,17.919,10.463,4.3,5.237,9.781,14.73,11.51,30.217a30.991,30.991,0,0,0-13.014-2.875,28.855,28.855,0,0,0-11.67,2.424,5.844,5.844,0,0,0-2.706,1.993,2.324,2.324,0,0,0,.381,3.062,1.848,1.848,0,0,0,1.071.319,6.178,6.178,0,0,0,2.416-.763l.006,0,.009,0c.24-.112.464-.216.691-.312a7.738,7.738,0,0,1,3.042-.6c2.891,0,5.934,1.412,8.792,2.937l2.856,1.524.408.218.5.265.656.35,4.37,2.332c1.045.559,1.9,1.047,2.7,1.535a127.738,127.738,0,0,1-3.514,25.989,28.772,28.772,0,0,0-6.949-7.166,17.458,17.458,0,0,0-9.046-3.328c-.186-.011-.386-.017-.595-.017a8.663,8.663,0,0,0-3.479.673,4.567,4.567,0,0,0-2.426,2.263,4.484,4.484,0,0,0-.162,3.121,6.71,6.71,0,0,0,1.652,2.8,16.9,16.9,0,0,0,5.04,3.138l.091.043.39.184a46.74,46.74,0,0,1,12.767,8.383A223.761,223.761,0,0,1,2077.8-2557.2v0Zm-66.352-97.617a36.419,36.419,0,0,1-1.59-5.357c-2.47-.389-5.145-.886-8.044-1.506C2001.81-2661.679,2008.293-2658.4,2011.444-2654.817Z"
            transform="translate(-1979.946 2701)" fill="#bfe2e2" />
        <path
            d="M2017.6-2515.938l-.7-.684h-6.451l-.009-1.8a176.333,176.333,0,0,0-8.722-29.525c-3.045-7.578-6.819-15.026-10.47-22.228l-.013-.024c-3.086-6.091-6.278-12.389-9.019-18.747-1.25-2.9-2.364-5.731-3.314-8.416-1.049.262-2.139.5-3.247.7l-.646.117.058-.654a21.2,21.2,0,0,0-.514-6.881,20.375,20.375,0,0,0-2.709-6.333,42.216,42.216,0,0,0-4.041-5.006l-3.958-4.422c-1.012-1.131-2.024-2.162-3.287-2.354a1.986,1.986,0,0,0-.3-.022,2.479,2.479,0,0,0-1.791.81,1.63,1.63,0,0,0-.451,1.265,4,4,0,0,0,1.04,1.877,76.953,76.953,0,0,1,6.991,10.337,11.8,11.8,0,0,1,1.891,5.532,12.528,12.528,0,0,1-.7,3.664c-.067.226-.137.46-.2.689-.163.573-.312,1.188-.469,1.934l-.082.386-.394.01c-.677.018-1.371.028-2.061.028a94.622,94.622,0,0,1-16.145-1.479l-.626-.109.253-.583a55.812,55.812,0,0,0,2.893-7.963,22.551,22.551,0,0,0,.443-10.849,1.359,1.359,0,0,0-.224-.569,1.458,1.458,0,0,0-.743-.3l-1.177-.259-.677-.149a81.916,81.916,0,0,1-4.235,19.535l-.146.417-.432-.094a144.194,144.194,0,0,1-20.4-6.111l-.546-.207.287-.507c.314-.554.644-1.111.964-1.649a38.631,38.631,0,0,0,2.05-3.758,18.3,18.3,0,0,0,1.589-6.367c.058-.9-.03-2.062-.783-2.466a1.144,1.144,0,0,0-.548-.13,1.955,1.955,0,0,0-1.216.481,6.126,6.126,0,0,0-1.292,1.873l-.013.025a64.77,64.77,0,0,1-6.329,9.972l-.236.3-.352-.149a199.793,199.793,0,0,1-18.638-9.119,13.285,13.285,0,0,0-4.97-1.2,4.529,4.529,0,0,0-4.451,2.71,7.412,7.412,0,0,0-.654,2.787l-.982.133a11.406,11.406,0,0,1,1.194-7.586,19.888,19.888,0,0,1,5.812-6.785,44.205,44.205,0,0,1,12.961-6.528c1.825-.614,5.6-1.531,10.364-2.514l.085-.018.086.012a56.159,56.159,0,0,1,9.413,2.123c.933.3,1.875.635,2.786.957a32.307,32.307,0,0,0,8.443,2.165c-.07-1.241-1.769-2.181-3.328-2.635-3.708-1.08-7.6-2.016-11.582-2.781l0-.982c4.743-.884,9.72-1.708,14.391-2.382l.091-.013.089.02a64.631,64.631,0,0,1,10.927,3.448c.25.1.5.211.749.317a21.651,21.651,0,0,0,4.376,1.505,8.576,8.576,0,0,0,1.577.15,6.074,6.074,0,0,0,2.831-.639,44.673,44.673,0,0,0-7.037-5.492l-1.343-.794,1.554-.135c3.8-.329,7.156-.5,9.982-.5a36.067,36.067,0,0,1,7.669.646c2.187.5,3.462,1.289,3.9,2.407a4.52,4.52,0,0,1-.286,4.414,8.594,8.594,0,0,1-.632.982c1.328-.131,3.581-.3,6.227-.3,6.816,0,15.8,1.118,19.922,6.442,2.258,2.92,2.785,6.777,1.566,11.464a19.925,19.925,0,0,1-4.935,8.745l-.6.633-.244-.837a40.692,40.692,0,0,0-3.068-7.594,12.468,12.468,0,0,0-3.7-4.659,14.737,14.737,0,0,0-4.356-1.741l-3.492-.985-7.632-2.154a5.523,5.523,0,0,0-1.461-.235c-.931,0-1.159.4-1.235.531-.471.823.588,1.908,1.288,2.419a22.693,22.693,0,0,0,6.768,3.391c.76.233,1.554.432,2.322.625a21.369,21.369,0,0,1,5.183,1.788,14.542,14.542,0,0,1,6.314,8.026,25,25,0,0,1,.875,3.115l.069.317-.261.192a32.736,32.736,0,0,1-8.75,4.474c8.462,18.728,16.659,37.839,24.369,56.814,1.27,3.125,2.377,5.883,3.429,8.609l-.1-21.821a42.523,42.523,0,0,0-.267-4.321,42.577,42.577,0,0,1-.273-4.778l0-.6.588.108c1.4.258,2.138,2.544,2.958,5.506a16.768,16.768,0,0,0,.662,2.1l.043.091,0,.1c.147,3.324.188,5.931.228,8.453.062,3.941.116,7.345.571,12.188.305,3.246.673,6.325,1.114,9.317.457-5.885.965-11.783,1.516-17.587a.51.51,0,0,1,.507-.479.509.509,0,0,1,.37.161c.133.142.207.22.974,4.395.444,2.415,1.016,5.672,1.57,8.936.514,3.025,2.177,12.941,2.126,14.139v.488H2017.6Zm-6.159-1.684h10.494c-.151-1.581-.921-6.572-2.029-13.116-.679-4.01-1.336-7.721-1.8-10.2-.563,6.146-1.078,12.374-1.533,18.56l-.991.05c-.757-4.331-1.345-8.769-1.8-13.569-.459-4.882-.513-8.3-.575-12.267-.039-2.49-.08-5.064-.223-8.327a18.875,18.875,0,0,1-.679-2.164,28.309,28.309,0,0,0-1.035-3.239,5.74,5.74,0,0,0-.539-1.032c.034,1.417.148,2.557.258,3.666a43.325,43.325,0,0,1,.272,4.417v.034l.117,24.54-.968.178c-1.347-3.59-2.733-7.058-4.4-11.16-7.773-19.133-16.043-38.405-24.581-57.282l-.229-.507.528-.174a32.375,32.375,0,0,0,8.734-4.316,23.317,23.317,0,0,0-.768-2.673,13.554,13.554,0,0,0-5.854-7.487,20.312,20.312,0,0,0-4.944-1.694c-.78-.2-1.587-.4-2.372-.639a23.692,23.692,0,0,1-7.065-3.54c-1.2-.878-2.333-2.38-1.565-3.723a2.217,2.217,0,0,1,2.1-1.034,6.5,6.5,0,0,1,1.732.272l7.632,2.154,3.492.985a15.711,15.711,0,0,1,4.647,1.877,13.357,13.357,0,0,1,4.021,5.019,41.668,41.668,0,0,1,2.887,6.933,18.761,18.761,0,0,0,4.107-7.665,15.439,15.439,0,0,0,.471-6.2,9.464,9.464,0,0,0-1.861-4.4c-1.735-2.244-4.618-3.893-8.568-4.9A43.216,43.216,0,0,0,1978-2631.4a59.724,59.724,0,0,0-7.366.439l-1.543.215,1.13-1.073c.029-.027,2.885-2.8,1.575-5.229l-.016-.031-.012-.032c-.287-.773-1.392-1.4-3.2-1.813a35.114,35.114,0,0,0-7.445-.621c-2.423,0-5.246.124-8.408.37a57.73,57.73,0,0,1,6.416,5.251l.46.416-.5.361a6.728,6.728,0,0,1-3.951,1.157,9.593,9.593,0,0,1-1.761-.167,22.4,22.4,0,0,1-4.583-1.568q-.372-.158-.744-.315a63.6,63.6,0,0,0-10.669-3.374c-3.8.55-7.8,1.2-11.706,1.9,3.122.663,6.18,1.43,9.121,2.286a8.259,8.259,0,0,1,2.845,1.42,2.762,2.762,0,0,1,1.141,2.812l-.093.4-.412-.015a31.3,31.3,0,0,1-9.21-2.247c-.9-.321-1.839-.652-2.759-.948a55.084,55.084,0,0,0-9.161-2.073c-4.683.969-8.384,1.867-10.162,2.465a43.34,43.34,0,0,0-12.614,6.33,19.01,19.01,0,0,0-5.545,6.405,12.57,12.57,0,0,0-1.146,3.388,5.494,5.494,0,0,1,5.106-2.8,14.283,14.283,0,0,1,5.382,1.286l.025.01.024.013a199.231,199.231,0,0,0,18.215,8.936,64.529,64.529,0,0,0,5.995-9.518l.013-.025a6.86,6.86,0,0,1,1.53-2.17,2.939,2.939,0,0,1,1.864-.719,2.136,2.136,0,0,1,1.021.249c.967.519,1.419,1.7,1.308,3.412a19.288,19.288,0,0,1-1.676,6.714,39.4,39.4,0,0,1-2.1,3.857c-.219.368-.443.746-.662,1.123a143.134,143.134,0,0,0,19.271,5.768,80.878,80.878,0,0,0,4.088-19.439l.048-.57.558.123,1.232.271,1.177.259a2.3,2.3,0,0,1,1.271.606,2.19,2.19,0,0,1,.455,1.011,23.528,23.528,0,0,1-.45,11.33,54.212,54.212,0,0,1-2.691,7.523,93.03,93.03,0,0,0,15.348,1.357c.549,0,1.1-.006,1.642-.018.133-.6.263-1.121.4-1.614.067-.235.137-.471.205-.7a11.6,11.6,0,0,0,.659-3.371,10.8,10.8,0,0,0-1.762-5.049,75.941,75.941,0,0,0-6.9-10.2,4.792,4.792,0,0,1-1.254-2.393,2.617,2.617,0,0,1,.7-2.042,3.507,3.507,0,0,1,2.536-1.143,3.014,3.014,0,0,1,.45.034c1.591.242,2.744,1.4,3.882,2.676l3.958,4.421a43,43,0,0,1,4.135,5.128,21.9,21.9,0,0,1,3.43,13.192c1.02-.2,2.021-.425,2.983-.676l.446-.116.152.435c.974,2.791,2.132,5.746,3.44,8.783,2.727,6.326,5.91,12.607,8.988,18.682l.018.035c3.659,7.219,7.443,14.687,10.5,22.305a177.425,177.425,0,0,1,8.783,29.742l.01.05Zm-8.78,1h-3.283l-.122-.324c-.248-.66-.5-1.311-.742-1.933a101.47,101.47,0,0,0-7.984-16.14c-1.151-1.861-2.38-3.687-3.568-5.452l-.1-.15c-1.333-1.978-2.709-4.019-4.189-5.968a24.372,24.372,0,0,1-3.345,1.8l-.541.244-.149-.574a15.744,15.744,0,0,1-.445-2.575c-.012-.135-.022-.271-.032-.408a4.622,4.622,0,0,0-.608-2.426c-.748-1.012-2.283-1.138-3.664-1.178-.419-.012-.74-.018-1.04-.018-1.7,0-3.614.164-4.878,1.378a.743.743,0,0,0-.122.139.733.733,0,0,0,.086.1,5.4,5.4,0,0,0,2.371,1.17,8.655,8.655,0,0,1,2.169.9,8.529,8.529,0,0,1,2.548,3.176l.813,1.458-.562.2c-2.608.911-5.475,1.753-8.509,2.644-1.468.431-2.986.877-4.507,1.341l-.538.164-.1-.554a5.773,5.773,0,0,0-1.473-3.252,3.776,3.776,0,0,0-2.635-1.035,3.808,3.808,0,0,0-.819.088,9.575,9.575,0,0,1,3.2,2.885,7.486,7.486,0,0,1,.751,1.673l.156.479-.48.152a72.111,72.111,0,0,0-14.135,5.836,29.393,29.393,0,0,0-10.732,9.746l-.556.881-.339-.986a34.664,34.664,0,0,1-1.5-14.531,51.162,51.162,0,0,1,3.97-15.242,52.413,52.413,0,0,1,8.4-13.521,37.458,37.458,0,0,1,11.838-9.344,15.888,15.888,0,0,1,6.681-1.869,6.021,6.021,0,0,1,4.911,2.216c1.6,1.96,2.351,5.144,2.242,9.464a37.727,37.727,0,0,1-.479,5.034c5.606-1.7,9.429-2.678,12.148-2.678a4.895,4.895,0,0,1,4.076,1.54,5.941,5.941,0,0,1,1.067,3.722,27.173,27.173,0,0,1-.773,6.01,7.821,7.821,0,0,1-1.96,3.673,22.452,22.452,0,0,1,3.243,4.311,273.535,273.535,0,0,1,14.659,26.945l.791.791Zm-2.591-1h1.805a275.2,275.2,0,0,0-14.312-26.216,20.818,20.818,0,0,0-3.268-4.289c-.055-.052-.111-.1-.166-.153l-.393-.354.376-.373a7.037,7.037,0,0,0,2.045-3.549c1.027-4.71,1-7.535-.1-8.892a3.936,3.936,0,0,0-3.3-1.168c-2.719,0-6.693,1.053-12.639,2.873l-.806.247.17-.826c.021-.1,2.059-10.224-1.412-14.483a5,5,0,0,0-4.135-1.846,14.935,14.935,0,0,0-6.245,1.769,36.473,36.473,0,0,0-11.519,9.1,51.405,51.405,0,0,0-8.233,13.26,50.151,50.151,0,0,0-3.893,14.939,34.309,34.309,0,0,0,1.13,13.133,30.989,30.989,0,0,1,10.5-9.206,71.75,71.75,0,0,1,13.835-5.763,5.792,5.792,0,0,0-.48-.979,10.457,10.457,0,0,0-3.754-3.087l-.761-.449.776-.422a4.629,4.629,0,0,1,2.2-.545,4.783,4.783,0,0,1,3.335,1.32,6.286,6.286,0,0,1,1.646,3.24c1.349-.408,2.689-.8,3.991-1.184,2.8-.824,5.465-1.605,7.9-2.435l-.232-.417a7.649,7.649,0,0,0-2.218-2.823,7.8,7.8,0,0,0-1.924-.788,6.218,6.218,0,0,1-2.793-1.43,1.173,1.173,0,0,1-.373-.752,1.214,1.214,0,0,1,.438-.906c1.518-1.458,3.667-1.655,5.569-1.655.31,0,.639.006,1.068.018,1.734.05,3.472.276,4.439,1.583a5.5,5.5,0,0,1,.8,2.945c.01.133.02.266.032.4a14.55,14.55,0,0,0,.278,1.826,21.111,21.111,0,0,0,3.031-1.719l.391-.272.291.377c1.606,2.082,3.079,4.267,4.5,6.38l.053.078.057.085c1.194,1.774,2.428,3.607,3.589,5.485a102.45,102.45,0,0,1,8.064,16.3C1999.655-2518.72,1999.865-2518.176,2000.074-2517.622Zm37.244,1h-4.892l.39-.735c1.624-3.057,3.406-6.056,5.295-8.914.273-.413,1.218-1.723,2.68-3.669a16.962,16.962,0,0,1-4.74-6.2,16.729,16.729,0,0,1-1.531-7.946l.018-.286.256-.129a7.807,7.807,0,0,1,3.5-.947,5.5,5.5,0,0,1,1.194.13,9.952,9.952,0,0,1,1.415.463c.264.1.513.2.768.28a7.528,7.528,0,0,0,2.313.367H2044a2.7,2.7,0,0,0,1.352-.271,1,1,0,0,0,.555-.878c-.062-.695-1.156-1.006-1.8-1.13a22.168,22.168,0,0,0-4.109-.485,10.9,10.9,0,0,0-1.388.085,7.665,7.665,0,0,0-3,1.029l-1.031.633.283-1.176a11.3,11.3,0,0,1,5.494-7.36,17.945,17.945,0,0,1,8.806-2.622,11.012,11.012,0,0,1,7.226,2.48l1.447-.542.154.04a47.561,47.561,0,0,1,9.51,3.864,24.3,24.3,0,0,1,6.552,4.992,10.627,10.627,0,0,1,2.955,7.307c-.112,5.973-5.8,8.738-10.82,11.178-4.306,2.093-8.024,3.9-7.437,7.171.144.8.251,1.406.309,1.812.078.546.1.827-.087,1.046a.534.534,0,0,1-.409.193h0c-.364,0-.527-.256-1.066-1.1a26.454,26.454,0,0,0-3.753-4.795,17.324,17.324,0,0,0-7.715-4.518,13.762,13.762,0,0,1-1.954-.686,110.124,110.124,0,0,0-6.509,10.847Zm-3.224-1h2.619a110.444,110.444,0,0,1,6.774-11.229l.242-.349.384.182a12.781,12.781,0,0,0,2.172.8c6.331,1.7,9.911,6.478,11.565,8.988-.028-.159-.057-.322-.086-.483-.329-1.835.369-3.436,2.134-4.893a30.4,30.4,0,0,1,5.85-3.354,34.39,34.39,0,0,0,6.981-4.078,8.085,8.085,0,0,0,3.276-6.219,9.662,9.662,0,0,0-2.705-6.627,23.321,23.321,0,0,0-6.285-4.777,46.648,46.648,0,0,0-9.132-3.731l-1.743.652-.228-.236a7.551,7.551,0,0,0-1.729-1.2,10.745,10.745,0,0,0-5.023-1.2,16.97,16.97,0,0,0-8.312,2.491,10.24,10.24,0,0,0-4.7,5.636,9.055,9.055,0,0,1,2.327-.623,11.9,11.9,0,0,1,1.517-.094,23.057,23.057,0,0,1,4.3.5c2.044.392,2.548,1.317,2.611,2.024a2,2,0,0,1-1.057,1.835,3.732,3.732,0,0,1-1.846.4h-.013a8.519,8.519,0,0,1-2.62-.416c-.28-.091-.553-.2-.817-.3a9.065,9.065,0,0,0-1.273-.42,4.492,4.492,0,0,0-.977-.106,6.586,6.586,0,0,0-2.8.715,15.8,15.8,0,0,0,1.459,7.179,15.856,15.856,0,0,0,4.826,6.12l.4.3-.3.4c-1.545,2.051-2.648,3.57-2.94,4.011C2037.226-2523.118,2035.6-2520.4,2034.094-2517.623Zm-11.259-20.176c-1.77-6.847-4.474-17.228-4.672-17.76l-.041-.109.011-.115q.205-2.066.412-4.126c.727-7.25,1.478-14.746,2.017-21.963a46.952,46.952,0,0,1-4.274-5.659c-.306,2.156-.583,4.313-.827,6.428-.364,3.156-.664,8.5-.9,12.8-.074,1.324-.144,2.574-.206,3.571l-.959.165c-.026-.062-2.651-6.213-3.343-7.565l-.057-.112,0-.126c.2-9.25,1.125-18.722,1.66-23.545.388-3.5.888-7.044,1.489-10.547-.922.557-1.814,1.157-2.663,1.791l-.052.039-.748.3,0-.7a52.928,52.928,0,0,1-.6-5.674,116.815,116.815,0,0,1,.2-16.609l.019-.2.156-.132a14.47,14.47,0,0,1,4.816-2.593l.034-.011a13.3,13.3,0,0,1,4.5-.727c.323,0,.657.01.994.029h.019c.393.023.8.059,1.213.108l.114.014.049.006.07.009.159.021.094.013.022,0a30.519,30.519,0,0,1,6.828,1.9,52.03,52.03,0,0,1,11.67,6.609l1.23.939-1.467.843,1.187,7.167-.535.05a132.415,132.415,0,0,0-14.781,2.031c.078,1.875.137,3.8.178,5.834a31.151,31.151,0,0,1,9.464-4.557c.8-.226,1.629-.424,2.427-.616l.237-.057c.911-.219,1.855-.447,2.767-.715l.542-.159,2.736,16.528-.094.157a30.658,30.658,0,0,0-3.35,8.047,28.68,28.68,0,0,0-.882,8.649,50.258,50.258,0,0,0,1.887,10.254l.017.064v.9l-.722-.379a64.909,64.909,0,0,1-14.442-8.9q-.431-.356-.854-.719c-.4,12.27-1.094,25.81-1.768,38.916l0,.1Zm-3.7-17.988c.376,1.228,2.6,9.757,3.848,14.586.641-12.486,1.279-25.238,1.639-36.8l.033-1.074.8.717c.522.468,1.068.938,1.623,1.4a63.306,63.306,0,0,0,13.273,8.316,47.845,47.845,0,0,1-1.648-9.432,29.671,29.671,0,0,1,.912-8.951,31.641,31.641,0,0,1,3.366-8.152l-.469-2.829-2.024-12.229c-.771.212-1.561.4-2.274.574l-.236.057c-.788.189-1.6.385-2.39.606a30.306,30.306,0,0,0-9.915,4.964l-.783.59-.017-.98c-.045-2.549-.115-4.9-.214-7.191l-.018-.419.41-.091a126.719,126.719,0,0,1,14.778-2.089l-1.125-6.793.765-.439-.035-.027a50.964,50.964,0,0,0-11.431-6.474,29.531,29.531,0,0,0-6.6-1.842l-.022,0-.086-.012-.154-.021-.068-.009-.04-.005-.112-.014c-.36-.043-.716-.075-1.06-.1l-.093-.005c-.325-.019-.646-.028-.956-.028a12.3,12.3,0,0,0-4.174.671l-.021.007-.021.007a13.7,13.7,0,0,0-4.337,2.281,116.463,116.463,0,0,0-.181,16.258c.084,1.628.242,3.239.468,4.8a34.073,34.073,0,0,1,3.028-1.914l.922-.517-.185,1.041c-.68,3.825-1.24,7.709-1.665,11.542-.53,4.785-1.447,14.16-1.651,23.332.5,1,1.671,3.694,2.48,5.569.026-.468.054-.956.082-1.455.242-4.308.542-9.67.91-12.855.3-2.57.642-5.2,1.028-7.817l.2-1.386.72,1.2a45.629,45.629,0,0,0,5.032,6.842l.14.158-.016.211c-.541,7.3-1.3,14.872-2.035,22.2Q2019.339-2557.8,2019.139-2555.787Zm59.158-.207-.873-.871-.017-.021a12.531,12.531,0,0,0-6.331-3.964,24.5,24.5,0,0,0-6.964-.92,28.928,28.928,0,0,0-4.365.313h-.007l-.077.012-.083-.013a69.371,69.371,0,0,1-9.609-2.36l-.239-.075-.083-.237a50.037,50.037,0,0,1-2.482-21.974l.035-.306.289-.106,20.611-7.6-22.9-29.464-1.879,1.079-.646-.737.384-.5-1.192-.911a55.183,55.183,0,0,0-12.385-7.013c-1.022-.405-2.042-.763-3.033-1.065h0l-.072-.021a31.032,31.032,0,0,0-3.626-.871c-.36-.063-.718-.118-1.063-.163l-.089-.012-.2-.025a21.808,21.808,0,0,0-2.582-.159h-.185a16.2,16.2,0,0,0-5.331.9l-.007,0a21.379,21.379,0,0,0-2.614,1.082l-.882.44.166-.972c.111-.653.236-1.309.37-1.952a30.69,30.69,0,0,1,4.39-11.225c-.193-.442-.393-.9-.6-1.375l-.022-.05c-.346-.788-.7-1.6-1.058-2.423a5.239,5.239,0,0,1-1.692,1.474c-.994.58-3.211,1.271-8.125,1.271a93.081,93.081,0,0,1-15.927-1.643l-.526-.1.131-.519a33.329,33.329,0,0,1,1.642-4.556c.47-1.128.955-2.295,1.323-3.456a2.668,2.668,0,0,0,.15-1.628,1.878,1.878,0,0,0-.831-.894,4.013,4.013,0,0,0-2.071-.535,5.64,5.64,0,0,0-1.86.33,11.925,11.925,0,0,0-3.616,2.321,3.039,3.039,0,0,0-.975,1.176,3.225,3.225,0,0,0,.29,2.052c.4,1.109.826,2.232,1.233,3.319l.59,1.576-.906-.208a109.486,109.486,0,0,1-17.943-5.7l-.307-.13,0-.333a17.706,17.706,0,0,1,.7-5.105,12.769,12.769,0,0,1,2.538-4.62c2.573-3.024,6.914-5.488,13.271-7.534a.776.776,0,0,0,.244-.595c.009-.136-.056-.505-.868-.958a11.208,11.208,0,0,0-5.442-1.318,14.58,14.58,0,0,0-4.087.6,24.42,24.42,0,0,0-8.558,4.872,34.553,34.553,0,0,0-7.946,9.006l-.271.461-.442-.3c-5.662-3.864-9.362-8.172-11-12.807-.02-.059-.039-.109-.058-.16l-.04-.108-.131-.366.323-.217a17.2,17.2,0,0,1,3.66-1.943c.4-.145.88-.327,1.44-.537,4.377-1.645,12.525-4.708,17.032-4.708a7.482,7.482,0,0,1,1.11.074,4.217,4.217,0,0,0-1.075-1.647,6.993,6.993,0,0,0-5.008-1.63,20.7,20.7,0,0,0-5.527.884,45.672,45.672,0,0,0-12.786,5.835l-.508.328-.226-.561c-5.4-13.391-9.281-14.431-10.342-14.431a1.058,1.058,0,0,0-.358.049l.013-.006-.473-.88a43.717,43.717,0,0,1,9.506-3.738,87.71,87.71,0,0,1,12.021-2.549,120.607,120.607,0,0,1,17.054-1.157c2.206,0,4.479.053,6.755.159l1.046.049-.7.783a5.015,5.015,0,0,0-.78,1.134,8.558,8.558,0,0,0-.344,4.854.829.829,0,0,0,.427.512.615.615,0,0,0,.21.042c.424,0,.762-.73.925-1.165a14.934,14.934,0,0,0,.6-2.43c.037-.2.07-.381.1-.522l.044-.209a5.558,5.558,0,0,1,1.032-2.6.89.89,0,0,1,.146-.131l.009-.007.151-.151.226.015c3.92.259,7.926.667,11.907,1.212.068.009.14.02.212.031l.163.024.762.1-.4.655a10.574,10.574,0,0,0-1.2,2.774,18.589,18.589,0,0,0-.433,5.245c.006.528.013,1.073.006,1.621a6.515,6.515,0,0,1-.445,2.417,20.649,20.649,0,0,1,3.75-1.74c.292-.113.595-.229.885-.345.125-.05.386-.154.441-.268a.96.96,0,0,0,.027-.352,24.052,24.052,0,0,1,.874-8.3,2.069,2.069,0,0,1,.509-.864l.182-.174.248.043c13,2.245,24.47,5.951,33.182,10.716a46.211,46.211,0,0,1,9.859,6.987,19.114,19.114,0,0,1,5.028,7.236,8.708,8.708,0,0,1-1.752,9.125,16.523,16.523,0,0,1-5.8,4.337c-3.229,1.448-7.31,2.153-12.476,2.153-1.974,0-4.126-.107-6.411-.319a58.077,58.077,0,0,1,2.511,6.3c.254.753.5,1.54.749,2.345a12.011,12.011,0,0,1,5.672-1.365,15.176,15.176,0,0,1,2.292.18c.268.041.576.085.94.135a19.228,19.228,0,0,1,6.748,1.857,9.95,9.95,0,0,1,3.137,2.657,11.063,11.063,0,0,1,1.513,2.7,85.068,85.068,0,0,1,5.119-15.811,41.056,41.056,0,0,1,7.936-12.25c3.733-3.747,7.929-5.647,12.472-5.647.223,0,.465.005.719.016,6.294.273,12.958,4.154,18.285,10.645,4.34,5.289,9.878,14.871,11.62,30.478l.1.885-.807-.376a30.488,30.488,0,0,0-12.8-2.828,28.355,28.355,0,0,0-11.467,2.38,5.427,5.427,0,0,0-2.487,1.8,1.838,1.838,0,0,0,.239,2.382,1.345,1.345,0,0,0,.79.232,5.856,5.856,0,0,0,2.2-.716l.027-.012c.239-.111.464-.216.7-.314a8.233,8.233,0,0,1,3.238-.638c3,0,6.11,1.44,9.027,3l1.032.551,1.823.973,5.93,3.164c1.058.566,1.925,1.058,2.729,1.55l.246.15-.007.288a128.256,128.256,0,0,1-3.528,26.091l-.257,1.095-.64-.925a28.277,28.277,0,0,0-6.825-7.041,16.964,16.964,0,0,0-8.788-3.238c-.187-.011-.378-.016-.566-.016a8.159,8.159,0,0,0-3.276.63,4.084,4.084,0,0,0-2.173,2.013,3.994,3.994,0,0,0-.136,2.777,6.2,6.2,0,0,0,1.528,2.59,16.527,16.527,0,0,0,4.9,3.036l.093.044.389.183a47.216,47.216,0,0,1,12.9,8.474l.22.212-.088.292a224.163,224.163,0,0,1-12.025,30.823Zm-14.184-6.775a25.507,25.507,0,0,1,7.249.961,13.871,13.871,0,0,1,6.309,3.7,222.8,222.8,0,0,0,11.606-29.8,46.7,46.7,0,0,0-12.413-8.08l-.388-.183-.093-.044a17.257,17.257,0,0,1-5.182-3.239,7.22,7.22,0,0,1-1.777-3.017,4.976,4.976,0,0,1,.188-3.466,5.05,5.05,0,0,1,2.677-2.512,9.161,9.161,0,0,1,3.681-.716c.208,0,.417.006.624.018a17.951,17.951,0,0,1,9.3,3.418,28.689,28.689,0,0,1,6.424,6.386,126.534,126.534,0,0,0,3.246-24.522c-.719-.433-1.5-.873-2.432-1.372l-5.93-3.164-1.823-.973-1.032-.551c-2.8-1.495-5.778-2.878-8.557-2.878a7.239,7.239,0,0,0-2.846.559c-.216.092-.434.193-.665.3l-.035.016a6.489,6.489,0,0,1-2.617.805,2.363,2.363,0,0,1-1.352-.4,2.8,2.8,0,0,1-.523-3.742,6.276,6.276,0,0,1,2.925-2.183,29.359,29.359,0,0,1,11.874-2.467,31.543,31.543,0,0,1,12.415,2.558c-1.819-14.85-7.125-24-11.3-29.083-5.147-6.272-11.545-10.019-17.554-10.28-.24-.01-.468-.015-.677-.015-4.267,0-8.224,1.8-11.763,5.353a40.075,40.075,0,0,0-7.732,11.953,84.086,84.086,0,0,0-5.433,17.469l-.169-.031-.809.077a9.593,9.593,0,0,0-4.75-6.594,18.419,18.419,0,0,0-6.4-1.744c-.369-.05-.682-.1-.956-.137a14.223,14.223,0,0,0-2.14-.169,10.956,10.956,0,0,0-5.715,1.536l-.554.332-.183-.619c-.3-1-.6-1.983-.917-2.91a54.966,54.966,0,0,0-2.851-6.983l-.407-.814.906.093a70.945,70.945,0,0,0,7.2.4c5.022,0,8.969-.676,12.066-2.065a15.585,15.585,0,0,0,5.465-4.091,7.888,7.888,0,0,0,1.957-3.826,8.343,8.343,0,0,0-.4-4.3c-1.6-4.608-6.726-9.464-14.423-13.674-8.551-4.677-19.81-8.325-32.577-10.557a1.692,1.692,0,0,0-.117.276,23.178,23.178,0,0,0-.823,7.952,1.693,1.693,0,0,1-.128.818,1.7,1.7,0,0,1-.969.758c-.3.118-.6.236-.9.349-2.179.841-4.432,1.71-5.507,3.608l-.889-.457c.249-.537.493-.991.708-1.392a6.3,6.3,0,0,0,1.023-3.382c.006-.536,0-1.075-.006-1.6a19.638,19.638,0,0,1,.468-5.519,11.581,11.581,0,0,1,.941-2.382c-3.769-.508-7.552-.892-11.26-1.142a5.065,5.065,0,0,0-.741,2.062l-.045.212c-.027.127-.058.3-.094.494-.3,1.651-.807,4.415-2.505,4.415a1.61,1.61,0,0,1-.558-.1,1.77,1.77,0,0,1-1.008-1.077c-.67-1.668-.07-4.752.373-5.664a5.274,5.274,0,0,1,.324-.571c-1.939-.077-3.869-.117-5.75-.117a119.694,119.694,0,0,0-16.873,1.141,86.85,86.85,0,0,0-11.871,2.51,53.51,53.51,0,0,0-7.8,2.869,8.26,8.26,0,0,1,3.058,2.281c2.213,2.41,4.487,6.438,6.762,11.979a46.346,46.346,0,0,1,12.547-5.633,21.692,21.692,0,0,1,5.8-.921,7.939,7.939,0,0,1,5.7,1.909,5.017,5.017,0,0,1,1.545,3l.07.782-.738-.267a4.851,4.851,0,0,0-1.606-.219c-4.325,0-12.67,3.136-16.68,4.644-.562.211-1.047.394-1.448.54a15.61,15.61,0,0,0-3.121,1.619c1.537,4.272,4.95,8.281,10.149,11.917a35.465,35.465,0,0,1,7.9-8.812,25.366,25.366,0,0,1,8.911-5.057,15.58,15.58,0,0,1,4.367-.636,12.209,12.209,0,0,1,5.928,1.444c1.2.67,1.413,1.4,1.379,1.9a1.6,1.6,0,0,1-.934,1.476c-12.848,4.133-15.678,9.385-15.812,15.981a108.124,108.124,0,0,0,16.559,5.3c-.388-1.036-.787-2.1-1.172-3.158a4.118,4.118,0,0,1-.295-2.724,3.889,3.889,0,0,1,1.268-1.605,12.82,12.82,0,0,1,3.934-2.5,6.647,6.647,0,0,1,2.194-.388,5.01,5.01,0,0,1,2.585.677,2.8,2.8,0,0,1,1.258,1.412,3.5,3.5,0,0,1-.137,2.27c-.381,1.2-.875,2.39-1.353,3.538a37.164,37.164,0,0,0-1.456,3.9,91.055,91.055,0,0,0,15.212,1.531c3.66,0,6.366-.4,7.621-1.135a3.286,3.286,0,0,0,1.727-1.952l.348-1.5.6,1.416c.5,1.186,1.007,2.333,1.494,3.442l.023.052c.251.571.488,1.111.717,1.636l.113.26-.166.231a29.281,29.281,0,0,0-4.387,11.078c-.067.32-.131.644-.193.969.584-.256,1.2-.5,1.847-.717a17.209,17.209,0,0,1,5.661-.959h.186a22.736,22.736,0,0,1,2.7.167l.3.037.435.057v0c.221.033.445.069.671.109a31.72,31.72,0,0,1,3.448.811h0l.3.089c1.04.314,2.112.689,3.185,1.115a56.242,56.242,0,0,1,12.624,7.148l1.7,1.3,1.28-.734.267.343,24.008,30.886-.641.236-20.961,7.734a49.046,49.046,0,0,0,2.384,20.989,68.708,68.708,0,0,0,9.15,2.239A30.509,30.509,0,0,1,2064.112-2562.769Zm-46.7-32.2-.917-.349c.843-4.913,1.849-9.95,2.99-14.973l.061-.269.26-.092c.569-.2,1.13-.385,1.717-.563l.611-.185.034.637q.028.532.053,1.066c.123,2.63.183,5.417.177,8.283v.207l-.146.146A34.192,34.192,0,0,0,2017.414-2594.969Zm2.986-14.831c-.933,4.126-1.774,8.26-2.508,12.325a35.092,35.092,0,0,1,3.507-4.146c0-2.778-.057-5.478-.177-8.029q-.01-.209-.02-.417C2020.934-2609.98,2020.667-2609.891,2020.4-2609.8Zm-9.333-44.687c-3.051-3.468-9.42-6.714-9.484-6.747l.33-.935c2.812.6,5.509,1.106,8.018,1.5l.345.054.068.343a35.479,35.479,0,0,0,1.568,5.281Zm-6.219-6.062a38.335,38.335,0,0,1,5.418,3.865,31.422,31.422,0,0,1-.833-3.05C2007.963-2659.969,2006.43-2660.242,2004.849-2660.549Z"
            transform="translate(-1979.946 2701)" fill="rgba(0,0,0,0)" />
        <g transform="translate(-6.408 23.428)">
            <path
                d="M57.618,51.452a1,1,0,0,1-.987-.837l-5.9-35.629a1,1,0,0,1,.489-1.031l6.069-3.484a1,1,0,0,1,1.287.254L82.169,41.071a1,1,0,0,1-.443,1.552L57.964,51.39A1,1,0,0,1,57.618,51.452Zm-4.8-36.107L58.407,49.1,79.751,41.22,57.534,12.639Z"
                transform="translate(14 42)" fill="#5bb3b3" />
            <path
                d="M0,7.049a1,1,0,0,1-.939-.656A1,1,0,0,1-.345,5.11L17.041-1.273a1,1,0,0,1,1.283.594A1,1,0,0,1,17.73.6L.345,6.988A1,1,0,0,1,0,7.049Z"
                transform="translate(69.437 73.445)" fill="#5bb3b3" />
        </g>
        <path
            d="M32.638,122.608a1,1,0,0,1-.994-.906c-.636-6.753-2.635-24.033-7.458-38.609A110.921,110.921,0,0,0,17.606,68.4c-3.635-7.2-7.392-14.641-9.344-23.226A51.124,51.124,0,0,1,10.2,15.824C13.012,7.957,17.313,2.964,22.983.983,28.18-.834,34.466-.139,41.665,3.048a66.43,66.43,0,0,1,13.348,8.16,1,1,0,1,1-1.232,1.575A64.377,64.377,0,0,0,40.856,4.877C34.136,1.9,28.345,1.228,23.643,2.871,18.571,4.643,14.682,9.227,12.083,16.5A52.165,52.165,0,0,0,9.006,31.517a48.339,48.339,0,0,0,1.207,13.215c1.9,8.346,5.6,15.677,9.179,22.766a112.351,112.351,0,0,1,6.694,14.967c4.887,14.77,6.908,32.229,7.55,39.049a1,1,0,0,1-.9,1.089C32.7,122.607,32.669,122.608,32.638,122.608Z"
            transform="translate(9.592 65.428)" fill="#5bb3b3" />
        <path
            d="M37.058,120.567a1,1,0,0,1,1,.944l2.583,46.009a1,1,0,0,1-.409.864,12.823,12.823,0,0,1-6.925,2.212,10.1,10.1,0,0,1-6.329-2.231,1,1,0,0,1-.385-.818c.1-3.563,1.979-45.15,2-45.57a1,1,0,0,1,.938-.953L37,120.569Zm1.552,46.485-2.494-44.426-5.568.339c-.265,5.88-1.74,38.689-1.938,44.119a8.055,8.055,0,0,0,4.7,1.511A10.765,10.765,0,0,0,38.61,167.052Z"
            transform="translate(10.592 65.428)" fill="#5bb3b3" />
        <path
            d="M33.616,177.721a104.545,104.545,0,0,1-23.3-2.321,28.687,28.687,0,0,1-7.25-2.592C1.033,171.651,0,170.333,0,168.889c0-2.388,2.8-4.4,8.316-5.985A87.672,87.672,0,0,1,27.458,160.2a1,1,0,0,1,.091,2,85.675,85.675,0,0,0-18.681,2.633C3.8,166.279,2,167.878,2,168.889c0,1.133,2.3,3.009,8.787,4.566a102.527,102.527,0,0,0,22.829,2.266,102.534,102.534,0,0,0,22.83-2.266c6.486-1.557,8.787-3.433,8.787-4.566,0-.544-.494-1.2-1.392-1.836a17.847,17.847,0,0,0-4.9-2.195,74.144,74.144,0,0,0-18.731-2.564,1,1,0,1,1,.056-2,75.029,75.029,0,0,1,19.266,2.652c5.037,1.557,7.7,3.612,7.7,5.942,0,1.444-1.033,2.762-3.069,3.918a28.687,28.687,0,0,1-7.25,2.592A104.551,104.551,0,0,1,33.616,177.721Z"
            transform="translate(10.592 65.428)" fill="#5bb3b3" />
        <path
            d="M33.616,189.144a104.526,104.526,0,0,1-23.3-2.322,28.687,28.687,0,0,1-7.25-2.593C1.033,183.073,0,181.755,0,180.311V168.889a1,1,0,0,1,2,0v11.422c0,1.133,2.3,3.009,8.787,4.566a102.509,102.509,0,0,0,22.829,2.267,102.516,102.516,0,0,0,22.83-2.267c6.486-1.558,8.787-3.433,8.787-4.566V168.889a1,1,0,0,1,2,0v11.422c0,1.444-1.033,2.762-3.069,3.919a28.687,28.687,0,0,1-7.25,2.593A104.533,104.533,0,0,1,33.616,189.144Z"
            transform="translate(10.592 65.428)" fill="#5bb3b3" />
        <path
            d="M31.84,118.567a1,1,0,0,1-.994-.906c-1.531-16.241-4.024-29.909-7.21-39.525a75.245,75.245,0,0,0-5.2-11.99c-.477-.944-.962-1.89-1.476-2.891-3.39-6.608-7.233-14.1-9.349-22.435a46.012,46.012,0,0,1,1.078-27.64,25.116,25.116,0,0,1,4.6-8.49A15.533,15.533,0,0,1,20.037.381a16.258,16.258,0,0,1,7.631-.715,30.646,30.646,0,0,1,7.7,2.1A52.633,52.633,0,0,1,47.224,8.638a1,1,0,1,1-1.232,1.576,50.505,50.505,0,0,0-11.375-6.59,28.663,28.663,0,0,0-7.192-1.973,14.286,14.286,0,0,0-6.7.609l-.017.006a13.445,13.445,0,0,0-5.927,3.758,23.258,23.258,0,0,0-4.209,7.829C3.7,33.04,12.038,49.287,18.735,62.341c.515,1,1,1.953,1.482,2.9a76.805,76.805,0,0,1,5.317,12.264c3.232,9.757,5.757,23.578,7.3,39.966a1,1,0,0,1-.9,1.089C31.9,118.566,31.871,118.567,31.84,118.567Z"
            transform="translate(14.094 69.428)" fill="#5bb3b3" />
        <g transform="translate(21.137 25.64)">
            <path
                d="M742.047-2549.178a1,1,0,0,1-.707-.293l-32.955-32.955-32.955,32.955a1,1,0,0,1-1.414,0,1,1,0,0,1,0-1.414l34.369-34.369.707.707,33.662,33.662a1,1,0,0,1,0,1.414A1,1,0,0,1,742.047-2549.178Z"
                transform="translate(-402.449 2572.35)" fill="#5bb3b3" />
            <path
                d="M110.684,90.912H8.708A4.72,4.72,0,0,1,4,86.191V30H115.391V86.191A4.72,4.72,0,0,1,110.684,90.912ZM6,32V86.191a2.717,2.717,0,0,0,2.708,2.721H110.684a2.717,2.717,0,0,0,2.708-2.721V32Z"
                transform="translate(245.993 11.351)" fill="#5bb3b3" />
            <path
                d="M-418.609,2653.224H-529v-16.5a4.72,4.72,0,0,1,4.708-4.721h101.975a4.72,4.72,0,0,1,4.708,4.721v16.5Zm-108.391-2h107.391v-14.5a2.718,2.718,0,0,0-2.708-2.721H-524.292A2.718,2.718,0,0,0-527,2636.72Zm95.029-3.29a4.78,4.78,0,0,1-4.768-4.78,4.779,4.779,0,0,1,4.768-4.779,4.778,4.778,0,0,1,4.767,4.779A4.779,4.779,0,0,1-431.971,2647.934Zm0-7.56a2.777,2.777,0,0,0-2.768,2.779,2.777,2.777,0,0,0,2.768,2.78,2.777,2.777,0,0,0,2.767-2.78A2.776,2.776,0,0,0-431.971,2640.374Zm-20.667,7.56a4.779,4.779,0,0,1-4.767-4.78,4.779,4.779,0,0,1,4.767-4.779,4.779,4.779,0,0,1,4.767,4.779A4.779,4.779,0,0,1-452.638,2647.934Zm0-7.56a2.777,2.777,0,0,0-2.767,2.779,2.777,2.777,0,0,0,2.767,2.78,2.777,2.777,0,0,0,2.767-2.78A2.776,2.776,0,0,0-452.638,2640.374Zm-20.667,7.56a4.779,4.779,0,0,1-4.767-4.78,4.779,4.779,0,0,1,4.767-4.779,4.779,4.779,0,0,1,4.767,4.779A4.779,4.779,0,0,1-473.3,2647.934Zm0-7.56a2.777,2.777,0,0,0-2.767,2.779,2.777,2.777,0,0,0,2.767,2.78,2.777,2.777,0,0,0,2.767-2.78A2.777,2.777,0,0,0-473.3,2640.374Zm-20.667,7.56a4.779,4.779,0,0,1-4.767-4.78,4.779,4.779,0,0,1,4.767-4.779,4.779,4.779,0,0,1,4.767,4.779A4.779,4.779,0,0,1-493.971,2647.934Zm0-7.56a2.777,2.777,0,0,0-2.767,2.779,2.777,2.777,0,0,0,2.767,2.78,2.777,2.777,0,0,0,2.767-2.78A2.777,2.777,0,0,0-493.971,2640.374Zm-20.666,7.56a4.779,4.779,0,0,1-4.767-4.78,4.779,4.779,0,0,1,4.767-4.779,4.778,4.778,0,0,1,4.767,4.779A4.779,4.779,0,0,1-514.638,2647.934Zm0-7.56a2.776,2.776,0,0,0-2.767,2.779,2.777,2.777,0,0,0,2.767,2.78,2.777,2.777,0,0,0,2.767-2.78A2.776,2.776,0,0,0-514.638,2640.374Z"
                transform="translate(778.994 -2609.873)" fill="#5bb3b3" />
            <path
                d="M-418.386,2653.2H-529v-16.482a4.721,4.721,0,0,1,4.715-4.716H-422.1a4.721,4.721,0,0,1,4.715,4.716V2653.2Zm-108.614-2h107.614v-14.482A2.719,2.719,0,0,0-422.1,2634H-524.285a2.719,2.719,0,0,0-2.715,2.716Zm95.225-3.283a4.781,4.781,0,0,1-4.776-4.775,4.78,4.78,0,0,1,4.776-4.774A4.78,4.78,0,0,1-427,2643.14,4.78,4.78,0,0,1-431.775,2647.915Zm0-7.55a2.778,2.778,0,0,0-2.776,2.774,2.778,2.778,0,0,0,2.776,2.775A2.778,2.778,0,0,0-429,2643.14,2.778,2.778,0,0,0-431.775,2640.365Zm-20.709,7.55a4.78,4.78,0,0,1-4.775-4.775,4.78,4.78,0,0,1,4.775-4.774,4.78,4.78,0,0,1,4.775,4.774A4.78,4.78,0,0,1-452.484,2647.915Zm0-7.55a2.778,2.778,0,0,0-2.775,2.774,2.778,2.778,0,0,0,2.775,2.775,2.778,2.778,0,0,0,2.775-2.775A2.778,2.778,0,0,0-452.484,2640.365Zm-20.709,7.55a4.78,4.78,0,0,1-4.775-4.775,4.78,4.78,0,0,1,4.775-4.774,4.78,4.78,0,0,1,4.775,4.774A4.78,4.78,0,0,1-473.193,2647.915Zm0-7.55a2.778,2.778,0,0,0-2.775,2.774,2.778,2.778,0,0,0,2.775,2.775,2.778,2.778,0,0,0,2.775-2.775A2.778,2.778,0,0,0-473.193,2640.365Zm-20.709,7.55a4.78,4.78,0,0,1-4.775-4.775,4.78,4.78,0,0,1,4.775-4.774,4.78,4.78,0,0,1,4.775,4.774A4.78,4.78,0,0,1-493.9,2647.915Zm0-7.55a2.778,2.778,0,0,0-2.775,2.774,2.778,2.778,0,0,0,2.775,2.775,2.778,2.778,0,0,0,2.775-2.775A2.778,2.778,0,0,0-493.9,2640.365Zm-20.708,7.55a4.78,4.78,0,0,1-4.775-4.775,4.78,4.78,0,0,1,4.775-4.774,4.78,4.78,0,0,1,4.774,4.774A4.78,4.78,0,0,1-514.61,2647.915Zm0-7.55a2.778,2.778,0,0,0-2.775,2.774,2.778,2.778,0,0,0,2.775,2.775,2.778,2.778,0,0,0,2.774-2.775A2.778,2.778,0,0,0-514.61,2640.365Z"
                transform="translate(778.771 -2609.767)" fill="#5bb3b3" />
            <path
                d="M-500.729,2707.927h-13.35a3.042,3.042,0,0,1-3.039-3.04v-4.9a3.043,3.043,0,0,1,3.039-3.04h13.35a3.043,3.043,0,0,1,3.039,3.04v4.9A3.042,3.042,0,0,1-500.729,2707.927Z"
                transform="translate(775.32 -2647.418)" fill="#bfe2e2" />
            <path
                d="M-500.729,2707.927h-13.35a3.042,3.042,0,0,1-3.039-3.04v-4.9a3.043,3.043,0,0,1,3.039-3.04h13.35a3.043,3.043,0,0,1,3.039,3.04v4.9A3.042,3.042,0,0,1-500.729,2707.927Z"
                transform="translate(800.71 -2647.418)" fill="#bfe2e2" />
            <path
                d="M-500.729,2707.927h-13.35a3.042,3.042,0,0,1-3.039-3.04v-4.9a3.043,3.043,0,0,1,3.039-3.04h13.35a3.043,3.043,0,0,1,3.039,3.04v4.9A3.042,3.042,0,0,1-500.729,2707.927Z"
                transform="translate(825.482 -2647.418)" fill="#bfe2e2" />
            <path
                d="M-500.729,2707.927h-13.35a3.042,3.042,0,0,1-3.039-3.04v-4.9a3.043,3.043,0,0,1,3.039-3.04h13.35a3.043,3.043,0,0,1,3.039,3.04v4.9A3.042,3.042,0,0,1-500.729,2707.927Z"
                transform="translate(850.873 -2647.418)" fill="#bfe2e2" />
            <path
                d="M8.976,16.839l-.253-1.984a6.139,6.139,0,0,1,.792-.053v2A4.3,4.3,0,0,0,8.976,16.839Z"
                transform="translate(245.407 6.95)" fill="#5bb3b3" />
            <path
                d="M8.128,16.979l-.541-1.925a5.011,5.011,0,0,1,.49-.113l.181-.031.309,1.976-.127.021C8.332,16.928,8.227,16.952,8.128,16.979Z"
                transform="translate(245.729 6.918)" fill="#5bb3b3" />
            <path
                d="M-500.729,2707.927h-13.35a3.042,3.042,0,0,1-3.039-3.04v-4.9a3.043,3.043,0,0,1,3.039-3.04h13.35a3.043,3.043,0,0,1,3.039,3.04v4.9A3.042,3.042,0,0,1-500.729,2707.927Z"
                transform="translate(775.32 -2614.389)" fill="#bfe2e2" />
            <path
                d="M-500.729,2707.927h-13.35a3.042,3.042,0,0,1-3.039-3.04v-4.9a3.043,3.043,0,0,1,3.039-3.04h13.35a3.043,3.043,0,0,1,3.039,3.04v4.9A3.042,3.042,0,0,1-500.729,2707.927Z"
                transform="translate(775.32 -2630.99)" fill="#bfe2e2" />
            <path
                d="M-500.729,2707.927h-13.35a3.042,3.042,0,0,1-3.039-3.04v-4.9a3.043,3.043,0,0,1,3.039-3.04h13.35a3.043,3.043,0,0,1,3.039,3.04v4.9A3.042,3.042,0,0,1-500.729,2707.927Z"
                transform="translate(800.71 -2614.389)" fill="#bfe2e2" />
            <path
                d="M-500.729,2707.927h-13.35a3.042,3.042,0,0,1-3.039-3.04v-4.9a3.043,3.043,0,0,1,3.039-3.04h13.35a3.043,3.043,0,0,1,3.039,3.04v4.9A3.042,3.042,0,0,1-500.729,2707.927Z"
                transform="translate(800.71 -2630.99)" fill="#bfe2e2" />
            <path
                d="M-500.729,2707.927h-13.35a3.042,3.042,0,0,1-3.039-3.04v-4.9a3.043,3.043,0,0,1,3.039-3.04h13.35a3.043,3.043,0,0,1,3.039,3.04v4.9A3.042,3.042,0,0,1-500.729,2707.927Z"
                transform="translate(825.482 -2614.389)" fill="#bfe2e2" />
            <path
                d="M-500.729,2707.927h-13.35a3.042,3.042,0,0,1-3.039-3.04v-4.9a3.043,3.043,0,0,1,3.039-3.04h13.35a3.043,3.043,0,0,1,3.039,3.04v4.9A3.042,3.042,0,0,1-500.729,2707.927Z"
                transform="translate(825.482 -2630.99)" fill="#bfe2e2" />
            <path
                d="M-500.729,2707.927h-13.35a3.042,3.042,0,0,1-3.039-3.04v-4.9a3.043,3.043,0,0,1,3.039-3.04h13.35a3.043,3.043,0,0,1,3.039,3.04v4.9A3.042,3.042,0,0,1-500.729,2707.927Z"
                transform="translate(850.838 -2614.389)" fill="#bfe2e2" />
            <path
                d="M-500.729,2707.927h-13.35a3.042,3.042,0,0,1-3.039-3.04v-4.9a3.043,3.043,0,0,1,3.039-3.04h13.35a3.043,3.043,0,0,1,3.039,3.04v4.9A3.042,3.042,0,0,1-500.729,2707.927Z"
                transform="translate(850.873 -2630.99)" fill="#bfe2e2" />
            <path
                d="M57.144,92.662a2.011,2.011,0,0,1-1.423-3.432L67.657,77.294A2.011,2.011,0,0,1,70.5,80.138L58.566,92.073A2,2,0,0,1,57.144,92.662ZM69.079,78.705a.01.01,0,0,0-.009,0L57.136,90.643a.012.012,0,0,0,0,.016.013.013,0,0,0,.015,0L69.087,78.724a.012.012,0,0,0,0-.016S69.084,78.705,69.079,78.705Z"
                transform="translate(254.967 -13.235)" fill="#5bb3b3" />
            <path
                d="M69.079,92.662a2,2,0,0,1-1.422-.589L55.722,80.138a2.011,2.011,0,0,1,2.844-2.845L70.5,89.229a2.011,2.011,0,0,1-1.422,3.433ZM57.144,78.705a.01.01,0,0,0-.009,0,.012.012,0,0,0,0,.016L69.071,90.659a.012.012,0,0,0,.016,0,.012.012,0,0,0,0-.016L57.152,78.708A.009.009,0,0,0,57.144,78.705Z"
                transform="translate(254.967 -13.235)" fill="#5bb3b3" />
            <path
                d="M0,11.919a1,1,0,0,1-1-1V0A1,1,0,0,1,0-1,1,1,0,0,1,1,0V10.919A1,1,0,0,1,0,11.919Z"
                transform="translate(264.085 21.912)" fill="#5bb3b3" />
            <path
                d="M0,11.919a1,1,0,0,1-1-1V0A1,1,0,0,1,0-1,1,1,0,0,1,1,0V10.919A1,1,0,0,1,0,11.919Z"
                transform="translate(305.578 21.912)" fill="#5bb3b3" />
            <path
                d="M0,11.919a1,1,0,0,1-1-1V0A1,1,0,0,1,0-1,1,1,0,0,1,1,0V10.919A1,1,0,0,1,0,11.919Z"
                transform="translate(284.522 21.912)" fill="#5bb3b3" />
            <path
                d="M0,11.919a1,1,0,0,1-1-1V0A1,1,0,0,1,0-1,1,1,0,0,1,1,0V10.919A1,1,0,0,1,0,11.919Z"
                transform="translate(326.014 21.912)" fill="#5bb3b3" />
            <path
                d="M0,11.919a1,1,0,0,1-1-1V0A1,1,0,0,1,0-1,1,1,0,0,1,1,0V10.919A1,1,0,0,1,0,11.919Z"
                transform="translate(347.07 21.912)" fill="#5bb3b3" />
        </g>
        <path d="M352.5,1H0A1,1,0,0,1-1,0,1,1,0,0,1,0-1H352.5a1,1,0,0,1,1,1A1,1,0,0,1,352.5,1Z"
            transform="translate(46.5 183.878)" fill="#5bb3b3" />
        <path d="M41.5,1H0A1,1,0,0,1-1,0,1,1,0,0,1,0-1H41.5a1,1,0,0,1,1,1A1,1,0,0,1,41.5,1Z"
            transform="translate(0 183.878)" fill="#5bb3b3" />
        <g transform="translate(0 9.095)">
            <path d="M136.552,237.744v-4.728l20.323-16.5h94.476l20.323,16.5v4.32Z"
                transform="translate(-4.376 16.725)" fill="#9aa2b0" />
            <path d="M136.552,237.744v-4.728l20.323-16.5h94.476l20.323,16.5v4.32Z"
                transform="translate(-4.376 16.725)" fill="#7a8293" />
            <path
                d="M136.552,239.244a1.5,1.5,0,0,1-1.5-1.5v-4.728a1.5,1.5,0,0,1,.555-1.165l20.323-16.5a1.5,1.5,0,0,1,.945-.335h94.476a1.5,1.5,0,0,1,.945.335l20.323,16.5a1.5,1.5,0,0,1,.555,1.165v4.32a1.5,1.5,0,0,1-1.5,1.5l-135.123.408Zm1.5-5.514v2.509l132.123-.4v-2.11l-19.356-15.711H157.407Z"
                transform="translate(-4.376 16.725)" fill="#7a8293" />
            <path d="M183.355,186.313,179.072,219.3h43.393l-3.212-32.987Z"
                transform="translate(-0.994 10.925)" fill="#7a8293" />
            <path
                d="M111.728,64.163H301.766a4.981,4.981,0,0,1,4.981,4.981V194.026a4.981,4.981,0,0,1-4.981,4.981H111.728a4.981,4.981,0,0,1-4.981-4.981V69.144a4.981,4.981,0,0,1,4.981-4.981"
                transform="translate(-6.747 1.368)" fill="#313e58" />
            <rect width="178.542" height="101.538" transform="translate(110.631 75.586)"
                fill="#edc95a" />
            <path d="M199.725,173.242a4.684,4.684,0,1,1-4.684,4.683,4.683,4.683,0,0,1,4.684-4.683"
                transform="translate(0.276 10.044)" fill="#fff" />
            <path d="M136.552,232.786l20.323-21.221h94.476l20.323,20.817Z"
                transform="translate(-4.376 16.331)" fill="#d1d5db" />
            <path
                d="M136.552,234.286a1.5,1.5,0,0,1-1.083-2.538l20.323-21.22a1.5,1.5,0,0,1,1.083-.462h94.476a1.5,1.5,0,0,1,1.073.452l20.323,20.817a1.5,1.5,0,0,1-1.069,2.548l-135.123.4Zm20.964-21.221-17.44,18.21,128.049-.383-17.4-17.827Z"
                transform="translate(-4.376 16.331)" fill="#d1d5db" />
            <path d="M4.544,1.739H.119a1.619,1.619,0,1,1,0-3.239H4.544a1.619,1.619,0,1,1,0,3.239Z"
                transform="translate(155.342 234.412)" fill="#313e58" />
            <path d="M4.544,1.739H.119a1.619,1.619,0,1,1,0-3.239H4.544a1.619,1.619,0,1,1,0,3.239Z"
                transform="translate(167.457 234.412)" fill="#313e58" />
            <path d="M4.544,1.739H.119a1.619,1.619,0,1,1,0-3.239H4.544a1.619,1.619,0,1,1,0,3.239Z"
                transform="translate(179.572 234.412)" fill="#313e58" />
            <path d="M4.544,1.739H.119a1.619,1.619,0,1,1,0-3.239H4.544a1.619,1.619,0,1,1,0,3.239Z"
                transform="translate(148.817 241.597)" fill="#313e58" />
            <path d="M4.544,1.739H.119a1.619,1.619,0,1,1,0-3.239H4.544a1.619,1.619,0,1,1,0,3.239Z"
                transform="translate(161.503 241.597)" fill="#313e58" />
            <path d="M4.544,1.739H.119a1.619,1.619,0,1,1,0-3.239H4.544a1.619,1.619,0,1,1,0,3.239Z"
                transform="translate(173.619 241.597)" fill="#313e58" />
            <path d="M4.544,1.739H.119a1.619,1.619,0,1,1,0-3.239H4.544a1.619,1.619,0,1,1,0,3.239Z"
                transform="translate(221.755 241.69)" fill="#313e58" />
            <path d="M4.544,1.739H.119a1.619,1.619,0,1,1,0-3.239H4.544a1.619,1.619,0,1,1,0,3.239Z"
                transform="translate(234.442 241.69)" fill="#313e58" />
            <path d="M4.544,1.739H.119a1.619,1.619,0,1,1,0-3.239H4.544a1.619,1.619,0,1,1,0,3.239Z"
                transform="translate(246.557 241.69)" fill="#313e58" />
            <path d="M27.683,1.739H.119a1.619,1.619,0,1,1,0-3.239H27.683a1.619,1.619,0,0,1,0,3.239Z"
                transform="translate(185.733 241.69)" fill="#313e58" />
            <path d="M4.544,1.739H.119a1.619,1.619,0,1,1,0-3.239H4.544a1.619,1.619,0,1,1,0,3.239Z"
                transform="translate(191.688 234.412)" fill="#313e58" />
            <path d="M4.544,1.739H.119a1.619,1.619,0,1,1,0-3.239H4.544a1.619,1.619,0,1,1,0,3.239Z"
                transform="translate(203.802 234.412)" fill="#313e58" />
            <path d="M4.544,1.739H.119a1.619,1.619,0,1,1,0-3.239H4.544a1.619,1.619,0,1,1,0,3.239Z"
                transform="translate(215.918 234.133)" fill="#313e58" />
            <path d="M4.544,1.739H.119a1.619,1.619,0,1,1,0-3.239H4.544a1.619,1.619,0,1,1,0,3.239Z"
                transform="translate(228.033 234.133)" fill="#313e58" />
            <path d="M4.544,1.739H.119a1.619,1.619,0,1,1,0-3.239H4.544a1.619,1.619,0,1,1,0,3.239Z"
                transform="translate(240.149 234.133)" fill="#313e58" />
            <g transform="translate(172.119 85.293)" opacity="0.95" style="isolation:isolate">
                <g transform="translate(0 0)">
                    <g clip-path="url(#a)">
                        <rect width="98.202" height="34.063" fill="#e4e6ea" />
                    </g>
                </g>
            </g>
            <g transform="translate(172.119 130.953)" opacity="0.95" style="isolation:isolate">
                <g transform="translate(0 0)">
                    <g clip-path="url(#a)">
                        <rect width="98.202" height="34.063" fill="#e4e6ea" />
                    </g>
                </g>
            </g>
            <path
                d="M54.366,2H0A2,2,0,0,1-2,0,2,2,0,0,1,0-2H54.366a2,2,0,0,1,2,2A2,2,0,0,1,54.366,2Z"
                transform="translate(206.134 102.5)" fill="#313e58" />
            <path
                d="M34.183,2H0A2,2,0,0,1-2,0,2,2,0,0,1,0-2H34.183a2,2,0,0,1,2,2A2,2,0,0,1,34.183,2Z"
                transform="translate(120.317 88.169)" fill="#fff" />
            <path
                d="M34.183,2H0A2,2,0,0,1-2,0,2,2,0,0,1,0-2H34.183a2,2,0,0,1,2,2A2,2,0,0,1,34.183,2Z"
                transform="translate(120.317 99.169)" fill="#fff" />
            <path
                d="M34.183,2H0A2,2,0,0,1-2,0,2,2,0,0,1,0-2H34.183a2,2,0,0,1,2,2A2,2,0,0,1,34.183,2Z"
                transform="translate(120.317 110.169)" fill="#fff" />
            <path
                d="M34.183,2H0A2,2,0,0,1-2,0,2,2,0,0,1,0-2H34.183a2,2,0,0,1,2,2A2,2,0,0,1,34.183,2Z"
                transform="translate(120.317 121.169)" fill="#fff" />
            <path
                d="M54.366,2H0A2,2,0,0,1-2,0,2,2,0,0,1,0-2H54.366a2,2,0,0,1,2,2A2,2,0,0,1,54.366,2Z"
                transform="translate(206.134 147.984)" fill="#313e58" />
        </g>
        <g transform="translate(-0.096 -0.483)">
            <rect width="9.65" height="14.311" transform="translate(262.495 172.307) rotate(-45)"
                fill="#7a8293" />
            <path d="M0,0H9.65V9.135a19.514,19.514,0,0,1-4.993.805A15.641,15.641,0,0,1,0,9.135Z"
                transform="translate(262.015 171.827) rotate(-45)" fill="#313e58" />
            <path d="M55.838,27.919A27.919,27.919,0,1,1,27.919,0,27.919,27.919,0,0,1,55.838,27.919"
                transform="translate(205.219 147.691) rotate(-45)" fill="none" />
            <rect width="15.674" height="56.565" rx="4"
                transform="translate(270.002 184.074) rotate(-45)" fill="#e88a2d" />
            <path d="M2.732,0A2.741,2.741,0,0,0,0,2.732v51.1a2.741,2.741,0,0,0,2.732,2.732h3.33V0Z"
                transform="translate(270.002 184.074) rotate(-45)" fill="#cc7a29" />
            <path d="M55.838,27.919A27.919,27.919,0,1,1,27.919,0,27.919,27.919,0,0,1,55.838,27.919Z"
                transform="translate(205.219 147.691) rotate(-45)" fill="#fff" opacity="0.612" />
            <path
                d="M31.542-4.5A36.042,36.042,0,1,1-4.5,31.542,36.083,36.083,0,0,1,31.542-4.5Zm0,63.084A27.042,27.042,0,1,0,4.5,31.542,27.073,27.073,0,0,0,31.542,58.584Z"
                transform="translate(200.096 147.692) rotate(-45)" fill="#7a8293" />
            <path
                d="M27.919-2A29.911,29.911,0,0,1,49.075,49.075,29.919,29.919,0,1,1,16.272.352,29.732,29.732,0,0,1,27.919-2Zm0,55.839a25.927,25.927,0,0,0,10.088-49.8A25.926,25.926,0,0,0,17.831,51.8,25.754,25.754,0,0,0,27.919,53.839Z"
                transform="translate(205.219 147.691) rotate(-45)" fill="#313e58" />
        </g>
        <path
            d="M10.242,20H.761V18.005l3.4-3.442q1.512-1.549,1.976-2.148a4.723,4.723,0,0,0,.668-1.109,2.822,2.822,0,0,0,.2-1.058,1.541,1.541,0,0,0-.45-1.215,1.745,1.745,0,0,0-1.2-.4A3.455,3.455,0,0,0,3.832,9a7.9,7.9,0,0,0-1.549,1.03L.724,8.181A10.168,10.168,0,0,1,2.384,6.975a6.1,6.1,0,0,1,1.438-.543,7.368,7.368,0,0,1,1.744-.19,5.164,5.164,0,0,1,2.245.464A3.582,3.582,0,0,1,9.324,8a3.45,3.45,0,0,1,.538,1.911,4.678,4.678,0,0,1-.329,1.758,6.75,6.75,0,0,1-1.021,1.684,24.948,24.948,0,0,1-2.435,2.458L4.333,17.458v.13h5.91Zm8.452,0H15.827V12.151l.028-1.29.046-1.41q-.714.714-.993.937L13.35,11.641,11.968,9.916l4.37-3.479h2.356Z"
            transform="translate(177.276 93)" fill="#313e58" />
        <path
            d="M10.168,13.218A9.454,9.454,0,0,1,9,18.479a4.04,4.04,0,0,1-3.586,1.707,3.994,3.994,0,0,1-3.539-1.763,9.32,9.32,0,0,1-1.192-5.2,9.544,9.544,0,0,1,1.16-5.293,4.022,4.022,0,0,1,3.572-1.7A4,4,0,0,1,8.967,8,9.339,9.339,0,0,1,10.168,13.218Zm-6.633,0a10.553,10.553,0,0,0,.431,3.576,1.494,1.494,0,0,0,1.452,1.081,1.509,1.509,0,0,0,1.447-1.095,10.261,10.261,0,0,0,.445-3.562,10.23,10.23,0,0,0-.45-3.586,1.5,1.5,0,0,0-2.89,0A10.534,10.534,0,0,0,3.535,13.218Zm13.007-1.883a4.364,4.364,0,0,1,3.131,1.1,3.968,3.968,0,0,1,1.164,3.024,4.4,4.4,0,0,1-1.4,3.5,5.905,5.905,0,0,1-4.008,1.225,7.85,7.85,0,0,1-3.655-.733V16.976a8.24,8.24,0,0,0,3.553.881q2.625,0,2.625-2.152,0-2.05-2.718-2.05a6.75,6.75,0,0,0-1.085.1,7.942,7.942,0,0,0-.965.209l-1.141-.612.51-6.912h7.357V8.867H15.066l-.25,2.663.325-.065A6.386,6.386,0,0,1,16.542,11.335Z"
            transform="translate(176.313 138)" fill="#313e58" />
        <path
            d="M1.812,11H.981V3.861H4.961V4.6H1.812V7.211H4.771v.737H1.812Zm8.311,0H6.143V3.861h3.979V4.6H6.973V6.9H9.932v.732H6.973v2.627h3.149ZM11.7,3.861h2.017a3.8,3.8,0,0,1,2.056.425,1.5,1.5,0,0,1,.635,1.343,1.552,1.552,0,0,1-.354,1.047,1.7,1.7,0,0,1-1.033.535V7.26q1.626.278,1.626,1.709A1.835,1.835,0,0,1,16,10.463,2.754,2.754,0,0,1,14.194,11H11.7Zm.83,3.057H13.9a2.226,2.226,0,0,0,1.265-.276,1.065,1.065,0,0,0,.386-.93.941.941,0,0,0-.43-.867,2.685,2.685,0,0,0-1.367-.266H12.534Zm0,.7v2.671h1.489a2.121,2.121,0,0,0,1.3-.334,1.235,1.235,0,0,0,.437-1.047,1.109,1.109,0,0,0-.447-.977,2.388,2.388,0,0,0-1.36-.312Z"
            transform="translate(178.019 113)" fill="#313e58" />
        <path
            d="M4.141,11,1.719,4.672H1.68q.068.752.068,1.787V11H.981V3.861h1.25L4.492,9.75h.039l2.28-5.889h1.24V11h-.83V6.4q0-.791.068-1.719H7.251L4.81,11ZM14.5,11l-.889-2.271H10.747L9.868,11h-.84l2.822-7.168h.7L15.356,11ZM13.35,7.982l-.83-2.212q-.161-.42-.332-1.03a9.251,9.251,0,0,1-.308,1.03l-.84,2.212Zm3.818.049V11h-.83V3.861H18.3a3.081,3.081,0,0,1,1.941.5,1.823,1.823,0,0,1,.627,1.514,1.9,1.9,0,0,1-1.436,1.914L21.367,11h-.981L18.657,8.031Zm0-.713h1.138a1.965,1.965,0,0,0,1.289-.349A1.3,1.3,0,0,0,20,5.922,1.192,1.192,0,0,0,19.587,4.9a2.262,2.262,0,0,0-1.34-.312H17.168Z"
            transform="translate(176.019 159)" fill="#313e58" />
        <g transform="translate(352.886 119.913)">
            <rect width="55.939" height="10.321" transform="translate(-15.937 114.42)"
                fill="#c0e2e2" />
            <path d="M10.069,93.165l7.829,45.65H52.747l9.568-45.65Z"
                transform="translate(-24.203 33.188)" fill="#c0e2e2" />
            <g transform="translate(9.042 35.896)" clip-path="url(#c)">
                <rect width="21.358" height="112.768" transform="translate(-8.556 -12.693)"
                    fill="#c0e2e2" />
            </g>
            <path
                d="M34.059,50.527c0-.027.012-.051.013-.078A21.136,21.136,0,0,0,23.4,31.645,23.015,23.015,0,0,0,1.1,31.2a2.027,2.027,0,0,0-1.1,1.731,21.133,21.133,0,0,0,10.668,18.8,23.013,23.013,0,0,0,22.3.446c.024-.013.043-.034.066-.047l-17.1-8.7a1.991,1.991,0,0,1-.71-2.8,2.172,2.172,0,0,1,2.915-.682"
                transform="translate(-23.172 42.124)" fill="#c0e2e2" />
            <path
                d="M31.332,48.766c0-.025.011-.047.012-.071a19.444,19.444,0,0,0-9.814-17.3,21.172,21.172,0,0,0-20.513-.409A1.865,1.865,0,0,0,.007,32.58a19.44,19.44,0,0,0,9.814,17.3c6.331,3.7,16.231,4.726,22.606,1.352.022-.012-1.1-.929-1.083-.942L14.66,42.239a1.832,1.832,0,0,1-.653-2.576,2,2,0,0,1,2.682-.628"
                transform="translate(-21.807 1.581)" fill="#c0e2e2" />
            <path
                d="M25.677,17.845c0-.022.009-.042.01-.064A17.385,17.385,0,0,0,17.711,2.422,16.272,16.272,0,0,0,.822,2.178,1.707,1.707,0,0,0-.019,3.6,17.382,17.382,0,0,0,7.957,18.962a16.27,16.27,0,0,0,16.889.245c.018-.011.033-.028.051-.039L11.989,12.125a1.7,1.7,0,0,1-.522-2.291,1.585,1.585,0,0,1,2.212-.575"
                transform="matrix(0.174, 0.985, -0.985, 0.174, 25.605, 9.456)" fill="#c0e2e2" />
            <path
                d="M40.224,63.058c.024.018.039.042.064.06a25.181,25.181,0,0,0,24.263,2.82,23.494,23.494,0,0,0,14.6-18.82,2.194,2.194,0,0,0-.912-2.041,25.181,25.181,0,0,0-24.263-2.82,23.493,23.493,0,0,0-14.6,18.82c0,.029,0,.058,0,.087l18.968-9.118A2.363,2.363,0,0,1,61.4,53.218a2.2,2.2,0,0,1-1.222,2.932"
                transform="translate(-27.205 38.088)" fill="#c0e2e2" />
            <path
                d="M37.482,24.035c.024.013.042.033.066.045a23.013,23.013,0,0,0,22.284-.9A21.093,21.093,0,0,0,70.078,4.154a2.035,2.035,0,0,0-1.135-1.709,23.013,23.013,0,0,0-22.285.906,21.092,21.092,0,0,0-10.245,19.02c0,.028.013.052.015.078L52.1,11.545a2.175,2.175,0,0,1,2.931.622,1.989,1.989,0,0,1-.647,2.814"
                transform="translate(-26.899 46.07)" fill="#c0e2e2" />
        </g>
        <g transform="translate(1653.934 -3104.934)">
            <path
                d="M405,255.576a1,1,0,0,1-.706-.292l-50.487-50.3-76.106,50.339a1,1,0,1,1-1.1-1.668l76.786-50.789a1,1,0,0,1,1.257.126l51.064,50.877a1,1,0,0,1-.706,1.708Z"
                transform="translate(-1920.87 3179.607)" fill="#5bb3b3" />
            <path
                d="M40.382,38.146a1,1,0,0,1-.677-.264L-.677.736A1,1,0,0,1-.736-.677,1,1,0,0,1,.677-.736L41.06,36.41a1,1,0,0,1-.677,1.736Z"
                transform="translate(-1577.043 3397.094)" fill="#5bb3b3" />
            <path
                d="M32.382,32.464a1,1,0,0,1-.7-.283L-.7.717A1,1,0,0,1-.717-.7,1,1,0,0,1,.7-.717L33.079,30.746a1,1,0,0,1-.7,1.717Z"
                transform="translate(-1584.9 3402.3)" fill="#5bb3b3" />
            <path
                d="M17.538,18.775a1,1,0,0,1-.712-.3L-.712.7A1,1,0,0,1-.7-.712,1,1,0,0,1,.712-.7L18.25,17.073a1,1,0,0,1-.712,1.7Z"
                transform="translate(-1593.066 3407.404)" fill="#5bb3b3" />
            <path
                d="M17.541,18.16a1,1,0,0,1-.7-.285L-.7.715A1,1,0,0,1-.715-.7,1,1,0,0,1,.7-.715l17.541,17.16a1,1,0,0,1-.7,1.715Z"
                transform="translate(-1606.475 3417.194)" fill="#5bb3b3" />
            <path
                d="M12.916,13.636a1,1,0,0,1-.7-.285L-.7.715A1,1,0,0,1-.715-.7,1,1,0,0,1,.7-.715L13.616,11.922a1,1,0,0,1-.7,1.715Z"
                transform="translate(-1614.641 3422.297)" fill="#5bb3b3" />
        </g>
        <g transform="translate(128.14 284.547)">
            <path
                d="M344.27,214.637a47.714,47.714,0,0,1-6.354-.914q-.04-.008-.08-.02l-73.257-21.4a2.252,2.252,0,0,1-1.528-2.791l1.067-3.654a2.251,2.251,0,0,1,2.79-1.529l72.963,21.311q.038.011.075.025c.069.026,1.714.652,3.365,1.37.985.429,1.768.8,2.326,1.11.6.328,1.7.939,1.41,1.935l-1.067,3.654C345.717,214.637,344.666,214.637,344.27,214.637Zm-5.913-2.865a45.678,45.678,0,0,0,5.86.865l.749-2.566a24.2,24.2,0,0,0-2.909-1.394c-1.317-.56-2.561-1.039-2.786-1.125l-72.923-21.3a.244.244,0,0,0-.068-.01.255.255,0,0,0-.242.179l-1.068,3.656a.252.252,0,0,0,.169.31Z"
                transform="translate(-261.11 -185.243)" fill="#5bb3b3" />
            <path
                d="M0,7.144A1,1,0,0,1-.28,7.1a1,1,0,0,1-.68-1.24L.834-.28a1,1,0,0,1,1.24-.68A1,1,0,0,1,2.754.28L.96,6.424A1,1,0,0,1,0,7.144Z"
                transform="translate(5.607 0.552)" fill="#5bb3b3" />
            <path
                d="M338.592,191.054a1,1,0,0,1-.281-.04l-1.827-.533a2.254,2.254,0,0,1-1.529-2.79l.533-1.825a2.254,2.254,0,0,1,2.79-1.53l1.973.577a1,1,0,0,1-.561,1.92l-1.973-.577a.254.254,0,0,0-.309.17l-.533,1.825a.254.254,0,0,0,.171.31l1.825.533a1,1,0,0,1-.28,1.96Z"
                transform="translate(-335.866 -185.242)" fill="#5bb3b3" />
            <path
                d="M327.542,190.373a1.4,1.4,0,0,1-.4-.057l-5.94-1.735a1.406,1.406,0,0,1-.954-1.745l.044-.149a1.4,1.4,0,0,1,1.746-.956l5.94,1.735a1.406,1.406,0,0,1,.954,1.745l-.044.151A1.411,1.411,0,0,1,327.542,190.373Z"
                transform="translate(-307.385 -185.064)" fill="#5bb3b3" />
            <path
                d="M0,6.693a1,1,0,0,1-.281-.04,1,1,0,0,1-.68-1.24L.7-.28a1,1,0,0,1,1.24-.68A1,1,0,0,1,2.622.28L.96,5.973A1,1,0,0,1,0,6.693Z"
                transform="translate(31.899 8.437)" fill="#5bb3b3" />
            <path
                d="M0,6.693a1,1,0,0,1-.281-.04,1,1,0,0,1-.68-1.24L.7-.28a1,1,0,0,1,1.24-.68A1,1,0,0,1,2.622.28L.96,5.973A1,1,0,0,1,0,6.693Z"
                transform="translate(33.219 8.823)" fill="#5bb3b3" />
            <path
                d="M263.141,211.28l-.232,0c-.943-.015-1.815-.116-1.852-.121a1,1,0,0,1,.234-1.986,16.483,16.483,0,0,0,1.734.109c-.435-.25-.946-.514-1.441-.738a1,1,0,0,1,.823-1.823c.03.014.754.341,1.517.77,1.293.727,1.893,1.273,2.072,1.884a1.25,1.25,0,0,1-.147,1.049C265.457,211.026,264.665,211.28,263.141,211.28Z"
                transform="translate(-176.936 -182.45)" fill="#5bb3b3" />
            <path
                d="M0,3.25a1,1,0,0,1-.281-.04,1,1,0,0,1-.68-1.24L-.3-.28A1,1,0,0,1,.937-.96,1,1,0,0,1,1.617.28L.96,2.53A1,1,0,0,1,0,3.25Z"
                transform="translate(84.877 25.474)" fill="#5bb3b3" />
        </g>
        <path
            d="M32.638,122.608a1,1,0,0,1-.994-.906c-.636-6.753-2.635-24.033-7.458-38.609A110.921,110.921,0,0,0,17.606,68.4c-3.635-7.2-7.392-14.641-9.344-23.226A51.124,51.124,0,0,1,10.2,15.824C13.012,7.957,17.313,2.964,22.983.983,28.18-.834,34.466-.139,41.665,3.048a66.43,66.43,0,0,1,13.348,8.16,1,1,0,1,1-1.232,1.575A64.377,64.377,0,0,0,40.856,4.877C34.136,1.9,28.345,1.228,23.643,2.871,18.571,4.643,14.682,9.227,12.083,16.5A52.165,52.165,0,0,0,9.006,31.517a48.339,48.339,0,0,0,1.207,13.215c1.9,8.346,5.6,15.677,9.179,22.766a112.351,112.351,0,0,1,6.694,14.967c4.887,14.77,6.908,32.229,7.55,39.049a1,1,0,0,1-.9,1.089C32.7,122.607,32.669,122.608,32.638,122.608Z"
            transform="translate(9.592 65.428)" fill="#5bb3b3" />
        <path
            d="M31.84,118.567a1,1,0,0,1-.994-.906c-1.531-16.241-4.024-29.909-7.21-39.525a75.245,75.245,0,0,0-5.2-11.99c-.477-.944-.962-1.89-1.476-2.891-3.39-6.608-7.233-14.1-9.349-22.435a46.012,46.012,0,0,1,1.078-27.64,25.116,25.116,0,0,1,4.6-8.49A15.533,15.533,0,0,1,20.037.381a16.258,16.258,0,0,1,7.631-.715,30.646,30.646,0,0,1,7.7,2.1A52.633,52.633,0,0,1,47.224,8.638a1,1,0,1,1-1.232,1.576,50.505,50.505,0,0,0-11.375-6.59,28.663,28.663,0,0,0-7.192-1.973,14.286,14.286,0,0,0-6.7.609l-.017.006a13.445,13.445,0,0,0-5.927,3.758,23.258,23.258,0,0,0-4.209,7.829C3.7,33.04,12.038,49.287,18.735,62.341c.515,1,1,1.953,1.482,2.9a76.805,76.805,0,0,1,5.317,12.264c3.232,9.757,5.757,23.578,7.3,39.966a1,1,0,0,1-.9,1.089C31.9,118.566,31.871,118.567,31.84,118.567Z"
            transform="translate(14.094 69.428)" fill="#5bb3b3" />
    </g>
</svg>