<svg xmlns="http://www.w3.org/2000/svg" xmlns:xlink="http://www.w3.org/1999/xlink" width="400"
    height="320" viewBox="0 0 400 320">
    <defs>
        <clipPath>
            <rect width="98.202" height="34.063" fill="#e4e6ea" />
        </clipPath>
        <clipPath>
            <rect width="400" height="320" />
        </clipPath>
    </defs>
    <g clip-path="url(#d)">
        <g transform="translate(-6)">
            <path
                d="M131.552,1H0A1,1,0,0,1-1,0,1,1,0,0,1,0-1H131.552a1,1,0,0,1,1,1A1,1,0,0,1,131.552,1Z"
                transform="translate(316.789 97.156)" fill="#5bb3b3" />
            <path
                d="M131.552,1H0A1,1,0,0,1-1,0,1,1,0,0,1,0-1H131.552a1,1,0,0,1,1,1A1,1,0,0,1,131.552,1Z"
                transform="translate(316.789 108.156)" fill="#5bb3b3" />
            <g transform="translate(316.789 11.957)">
                <path
                    d="M0-1H18.157a1,1,0,0,1,1,1V79.327a1,1,0,0,1-1,1H0a1,1,0,0,1-1-1V0A1,1,0,0,1,0-1ZM17.157,1H1V78.327H17.157Z"
                    transform="translate(0 0)" fill="#5bb3b3" />
                <path
                    d="M4.036,1H0A1,1,0,0,1-1,0,1,1,0,0,1,0-1H4.036a1,1,0,0,1,1,1A1,1,0,0,1,4.036,1Z"
                    transform="translate(7.06 36.338)" fill="#5bb3b3" />
                <path
                    d="M4.036,1H0A1,1,0,0,1-1,0,1,1,0,0,1,0-1H4.036a1,1,0,0,1,1,1A1,1,0,0,1,4.036,1Z"
                    transform="translate(7.06 44.098)" fill="#5bb3b3" />
                <path
                    d="M0-1H18.157a1,1,0,0,1,1,1V79.327a1,1,0,0,1-1,1H0a1,1,0,0,1-1-1V0A1,1,0,0,1,0-1ZM17.157,1H1V78.327H17.157Z"
                    transform="translate(27.049 0)" fill="#5bb3b3" />
                <path
                    d="M4.036,1H0A1,1,0,0,1-1,0,1,1,0,0,1,0-1H4.036a1,1,0,0,1,1,1A1,1,0,0,1,4.036,1Z"
                    transform="translate(34.109 36.338)" fill="#5bb3b3" />
                <path
                    d="M4.036,1H0A1,1,0,0,1-1,0,1,1,0,0,1,0-1H4.036a1,1,0,0,1,1,1A1,1,0,0,1,4.036,1Z"
                    transform="translate(34.109 44.098)" fill="#5bb3b3" />
            </g>
            <g transform="translate(370.726 11.957)">
                <path
                    d="M0-1H18.157a1,1,0,0,1,1,1V79.327a1,1,0,0,1-1,1H0a1,1,0,0,1-1-1V0A1,1,0,0,1,0-1ZM17.157,1H1V78.327H17.157Z"
                    transform="translate(0 0)" fill="#5bb3b3" />
                <path
                    d="M4.036,1H0A1,1,0,0,1-1,0,1,1,0,0,1,0-1H4.036a1,1,0,0,1,1,1A1,1,0,0,1,4.036,1Z"
                    transform="translate(7.06 36.338)" fill="#5bb3b3" />
                <path
                    d="M4.036,1H0A1,1,0,0,1-1,0,1,1,0,0,1,0-1H4.036a1,1,0,0,1,1,1A1,1,0,0,1,4.036,1Z"
                    transform="translate(7.06 44.098)" fill="#5bb3b3" />
                <path
                    d="M0-1H18.157a1,1,0,0,1,1,1V79.327a1,1,0,0,1-1,1H0a1,1,0,0,1-1-1V0A1,1,0,0,1,0-1ZM17.157,1H1V78.327H17.157Z"
                    transform="translate(27.049 0)" fill="#5bb3b3" />
                <path
                    d="M4.036,1H0A1,1,0,0,1-1,0,1,1,0,0,1,0-1H4.036a1,1,0,0,1,1,1A1,1,0,0,1,4.036,1Z"
                    transform="translate(34.109 36.338)" fill="#5bb3b3" />
                <path
                    d="M4.036,1H0A1,1,0,0,1-1,0,1,1,0,0,1,0-1H4.036a1,1,0,0,1,1,1A1,1,0,0,1,4.036,1Z"
                    transform="translate(34.109 44.098)" fill="#5bb3b3" />
            </g>
        </g>
        <g transform="translate(-26.344 -16.043)">
            <path d="M108.509,26.112A15.5,15.5,0,1,0,119.47,52.573L108.509,41.612Z"
                transform="translate(13.859 23.626)" fill="#bfe2e2" />
            <path
                d="M100.06,84.14a9.455,9.455,0,0,0-1.34-.5,10.325,10.325,0,0,0-1.341-.3,2.7,2.7,0,0,1-1.085-.388.958.958,0,0,1-.474-.828.944.944,0,0,1,.4-.8,1.565,1.565,0,0,1,.952-.28,1.725,1.725,0,0,1,.947.245,3.179,3.179,0,0,1,.28.215c.1.087.237.191.392.3a.921.921,0,0,0,.559.164,1.229,1.229,0,0,0,.962-.667,2.162,2.162,0,0,0,.462-.963c0-.117-.083-.332-.476-.695l-.072-.052-.194-.173a3.93,3.93,0,0,0-.63-.351,4.611,4.611,0,0,0-1.022-.341.118.118,0,0,1-.093-.114V77.458a5.466,5.466,0,0,0-.04-.763.73.73,0,0,0-.279-.432,1.152,1.152,0,0,0-.756-.208c-.535,0-.865.142-.981.421a2.861,2.861,0,0,0-.114.963v1.15a.118.118,0,0,1-.093.115,3.475,3.475,0,0,0-2.09,1.232,3.38,3.38,0,0,0-.756,2.147,3.3,3.3,0,0,0,.554,1.966,3.036,3.036,0,0,0,1.345,1.09,11.659,11.659,0,0,0,1.627.52,8.683,8.683,0,0,1,1.417.448.884.884,0,0,1,.646.806c0,.625-.284,1.37-1.637,1.37a1.954,1.954,0,0,1-1.53-.824c-.644-.641-1.005-.778-1.194-.778a1.137,1.137,0,0,0-.793.357c-.547.532-.662.839-.662,1a1.574,1.574,0,0,0,.407.894l.268.35a4.043,4.043,0,0,0,.916.734,4.592,4.592,0,0,0,1.483.6.117.117,0,0,1,.092.114v1.274a2.814,2.814,0,0,0,.135,1,.5.5,0,0,0,.295.3,2.266,2.266,0,0,0,1.29,0,.608.608,0,0,0,.328-.332,2.562,2.562,0,0,0,.122-.957V90.714a.117.117,0,0,1,.091-.114,4.339,4.339,0,0,0,2.182-1.241,3.952,3.952,0,0,0,.487-4.247,2.285,2.285,0,0,0-.986-.971"
                transform="translate(13.871 13.348)" fill="#5ab3b3" />
            <path
                d="M114.283,84.14a9.455,9.455,0,0,0-1.34-.5,10.325,10.325,0,0,0-1.341-.3,2.7,2.7,0,0,1-1.084-.388.957.957,0,0,1-.475-.828.944.944,0,0,1,.4-.8,1.567,1.567,0,0,1,.953-.28,1.722,1.722,0,0,1,.947.245,3.181,3.181,0,0,1,.28.215c.1.087.238.191.392.3a.93.93,0,0,0,.559.164,1.228,1.228,0,0,0,.962-.667,2.162,2.162,0,0,0,.462-.963c0-.117-.083-.332-.476-.695l-.072-.052-.194-.173a3.928,3.928,0,0,0-.63-.351,4.611,4.611,0,0,0-1.022-.341.118.118,0,0,1-.093-.114V77.458a5.464,5.464,0,0,0-.04-.763.73.73,0,0,0-.279-.432,1.152,1.152,0,0,0-.756-.208c-.535,0-.865.142-.981.421a2.878,2.878,0,0,0-.114.963v1.15a.118.118,0,0,1-.093.115,3.48,3.48,0,0,0-2.09,1.232,3.38,3.38,0,0,0-.756,2.147,3.3,3.3,0,0,0,.554,1.966,3.042,3.042,0,0,0,1.345,1.09,11.693,11.693,0,0,0,1.627.52,8.658,8.658,0,0,1,1.417.448.884.884,0,0,1,.646.806c0,.625-.284,1.37-1.637,1.37a1.954,1.954,0,0,1-1.53-.824c-.643-.641-1.005-.778-1.194-.778a1.137,1.137,0,0,0-.793.357c-.547.532-.662.839-.662,1a1.574,1.574,0,0,0,.407.894l.268.35a4.017,4.017,0,0,0,.915.734,4.592,4.592,0,0,0,1.483.6.117.117,0,0,1,.092.114v1.274a2.817,2.817,0,0,0,.135,1,.5.5,0,0,0,.295.3,2.268,2.268,0,0,0,1.291,0,.609.609,0,0,0,.327-.332,2.562,2.562,0,0,0,.122-.957V90.714a.117.117,0,0,1,.091-.114,4.345,4.345,0,0,0,2.182-1.241,3.954,3.954,0,0,0,.486-4.247,2.285,2.285,0,0,0-.986-.971"
                transform="translate(10.944 13.348)" fill="#5ab3b3" />
            <path
                d="M129.493,85.111h0a2.287,2.287,0,0,0-.986-.971,9.506,9.506,0,0,0-1.339-.5,10.326,10.326,0,0,0-1.341-.3,2.71,2.71,0,0,1-1.085-.388.958.958,0,0,1-.474-.828.942.942,0,0,1,.4-.8,1.565,1.565,0,0,1,.952-.28,1.724,1.724,0,0,1,.947.244,3.3,3.3,0,0,1,.28.215c.1.087.237.191.392.3a.933.933,0,0,0,.559.164,1.227,1.227,0,0,0,.962-.667,2.162,2.162,0,0,0,.462-.963c0-.117-.083-.332-.476-.695l-.072-.052-.194-.173a3.93,3.93,0,0,0-.63-.351,4.618,4.618,0,0,0-1.023-.341.117.117,0,0,1-.092-.114V77.458a5.466,5.466,0,0,0-.04-.763.728.728,0,0,0-.279-.431,1.152,1.152,0,0,0-.756-.209c-.535,0-.865.142-.981.422a2.847,2.847,0,0,0-.115.962v1.151a.116.116,0,0,1-.093.114,3.488,3.488,0,0,0-2.09,1.232,3.385,3.385,0,0,0-.755,2.147,3.3,3.3,0,0,0,.553,1.966,3.043,3.043,0,0,0,1.346,1.09,11.626,11.626,0,0,0,1.627.52,8.682,8.682,0,0,1,1.417.448.884.884,0,0,1,.646.806c0,.625-.284,1.37-1.637,1.37a1.957,1.957,0,0,1-1.53-.824c-.643-.641-1-.778-1.193-.778a1.137,1.137,0,0,0-.793.357c-.547.533-.662.84-.662,1a1.574,1.574,0,0,0,.407.894l.268.35a4.024,4.024,0,0,0,.916.734,4.585,4.585,0,0,0,1.483.6.117.117,0,0,1,.091.114v1.274a2.813,2.813,0,0,0,.136,1,.5.5,0,0,0,.295.3,2.266,2.266,0,0,0,1.29,0,.608.608,0,0,0,.328-.332,2.559,2.559,0,0,0,.122-.957V90.714a.117.117,0,0,1,.091-.114,4.339,4.339,0,0,0,2.182-1.241,3.953,3.953,0,0,0,.487-4.247"
                transform="translate(8.016 13.348)" fill="#5ab3b3" />
            <path
                d="M150.464,89.427a1.192,1.192,0,0,1-1.191-1.191V18.307a1.191,1.191,0,1,1,2.383,0V88.236a1.192,1.192,0,0,1-1.191,1.191"
                transform="translate(2.28 25.477)" fill="#5ab3b3" />
            <path
                d="M8.02,89.427a1.192,1.192,0,0,1-1.191-1.191V18.307a1.191,1.191,0,0,1,2.383,0V88.236A1.192,1.192,0,0,1,8.02,89.427"
                transform="translate(31.595 25.477)" fill="#5ab3b3" />
            <path
                d="M122.3,119.277H4.055a4.056,4.056,0,0,1,0-8.112H122.3a4.056,4.056,0,0,1,0,8.112M4.055,113.548a1.673,1.673,0,0,0,0,3.347H122.3a1.673,1.673,0,0,0,0-3.347Z"
                transform="translate(33 6.123)" fill="#5ab3b3" />
            <path
                d="M25.736,61.623a1.418,1.418,0,0,1-.856-2.549L57.218,34.609a1.418,1.418,0,1,1,1.711,2.261L26.591,61.337a1.409,1.409,0,0,1-.855.287"
                transform="translate(27.996 21.937)" fill="#5ab3b3" />
            <path d="M61.605,31.92,71.427,30.7l-3.85,9.119Z" transform="translate(20.322 22.683)"
                fill="#5ab3b3" />
            <path
                d="M108.2,58A16.692,16.692,0,1,1,124.893,41.3,16.711,16.711,0,0,1,108.2,58m0-31A14.31,14.31,0,1,0,122.51,41.3a14.326,14.326,0,0,0-14.31-14.31"
                transform="translate(14.168 23.935)" fill="#5ab3b3" />
            <path
                d="M123.177,53.455a1.188,1.188,0,0,1-.843-.349l-10.959-10.96a1.191,1.191,0,0,1-.349-.843V25.8a1.191,1.191,0,1,1,2.383,0V40.811L124.02,51.421a1.191,1.191,0,0,1-.843,2.034"
                transform="translate(10.151 23.935)" fill="#5ab3b3" />
            <path
                d="M33.057,93.281H25.8A1.191,1.191,0,0,1,24.6,92.09V77.466A1.191,1.191,0,0,1,25.8,76.275h7.261a1.192,1.192,0,0,1,1.191,1.191V92.09a1.192,1.192,0,0,1-1.191,1.191M26.987,90.9h4.88V78.658h-4.88Z"
                transform="translate(27.936 13.303)" fill="#5ab3b3" />
            <path
                d="M52.419,90.671H45.158a1.192,1.192,0,0,1-1.191-1.191v-24.7a1.192,1.192,0,0,1,1.191-1.191h7.261a1.191,1.191,0,0,1,1.191,1.191v24.7a1.191,1.191,0,0,1-1.191,1.191M46.35,88.288h4.879V65.974H46.35Z"
                transform="translate(23.952 15.913)" fill="#5ab3b3" />
            <path
                d="M79.243,129.92a1.192,1.192,0,0,1-1.191-1.191v-3.159a1.191,1.191,0,0,1,2.383,0v3.159a1.192,1.192,0,0,1-1.191,1.191"
                transform="translate(16.937 3.403)" fill="#5ab3b3" />
            <path
                d="M78.2,137.832a4.549,4.549,0,1,1,4.549-4.548,4.554,4.554,0,0,1-4.549,4.548m0-6.715a2.166,2.166,0,1,0,2.167,2.167,2.169,2.169,0,0,0-2.167-2.167"
                transform="translate(17.843 2.507)" fill="#5ab3b3" />
            <path
                d="M120.754,11.211H5.605A5.606,5.606,0,0,1,5.605,0H120.754a5.606,5.606,0,0,1,0,11.212M5.605,2.382a3.223,3.223,0,0,0,0,6.447H120.754a3.223,3.223,0,0,0,0-6.447Z"
                transform="translate(33 29)" fill="#5ab3b3" />
            <path
                d="M71.783,87.258H64.521a1.192,1.192,0,0,1-1.191-1.191V48.2a1.192,1.192,0,0,1,1.191-1.191h7.261A1.192,1.192,0,0,1,72.974,48.2v37.87a1.192,1.192,0,0,1-1.191,1.191m-6.07-2.383h4.879V49.388H65.713Z"
                transform="translate(19.967 19.327)" fill="#5ab3b3" />
        </g>
        <path
            d="M398.953,1H0A1,1,0,0,1-1,0,1,1,0,0,1,0-1H398.953a1,1,0,0,1,1,1A1,1,0,0,1,398.953,1Z"
            transform="translate(-3.953 183.878)" fill="#5bb3b3" />
        <g transform="translate(0 9.095)">
            <path d="M136.552,237.744v-4.728l20.323-16.5h94.476l20.323,16.5v4.32Z"
                transform="translate(-4.376 16.725)" fill="#9aa2b0" />
            <path d="M136.552,237.744v-4.728l20.323-16.5h94.476l20.323,16.5v4.32Z"
                transform="translate(-4.376 16.725)" fill="#7a8293" />
            <path
                d="M136.552,239.244a1.5,1.5,0,0,1-1.5-1.5v-4.728a1.5,1.5,0,0,1,.555-1.165l20.323-16.5a1.5,1.5,0,0,1,.945-.335h94.476a1.5,1.5,0,0,1,.945.335l20.323,16.5a1.5,1.5,0,0,1,.555,1.165v4.32a1.5,1.5,0,0,1-1.5,1.5l-135.123.408Zm1.5-5.514v2.509l132.123-.4v-2.11l-19.356-15.711H157.407Z"
                transform="translate(-4.376 16.725)" fill="#7a8293" />
            <path d="M183.355,186.313,179.072,219.3h43.393l-3.212-32.987Z"
                transform="translate(-0.994 10.925)" fill="#7a8293" />
            <path
                d="M111.728,64.163H301.766a4.981,4.981,0,0,1,4.981,4.981V194.026a4.981,4.981,0,0,1-4.981,4.981H111.728a4.981,4.981,0,0,1-4.981-4.981V69.144a4.981,4.981,0,0,1,4.981-4.981"
                transform="translate(-6.747 1.368)" fill="#313e58" />
            <rect width="178.542" height="101.538" transform="translate(110.631 75.586)"
                fill="#b1a8e3" />
            <path d="M199.725,173.242a4.684,4.684,0,1,1-4.684,4.683,4.683,4.683,0,0,1,4.684-4.683"
                transform="translate(0.276 10.044)" fill="#fff" />
            <path d="M136.552,232.786l20.323-21.221h94.476l20.323,20.817Z"
                transform="translate(-4.376 16.331)" fill="#d1d5db" />
            <path
                d="M136.552,234.286a1.5,1.5,0,0,1-1.083-2.538l20.323-21.22a1.5,1.5,0,0,1,1.083-.462h94.476a1.5,1.5,0,0,1,1.073.452l20.323,20.817a1.5,1.5,0,0,1-1.069,2.548l-135.123.4Zm20.964-21.221-17.44,18.21,128.049-.383-17.4-17.827Z"
                transform="translate(-4.376 16.331)" fill="#d1d5db" />
            <path d="M4.544,1.739H.119a1.619,1.619,0,1,1,0-3.239H4.544a1.619,1.619,0,1,1,0,3.239Z"
                transform="translate(155.342 234.412)" fill="#313e58" />
            <path d="M4.544,1.739H.119a1.619,1.619,0,1,1,0-3.239H4.544a1.619,1.619,0,1,1,0,3.239Z"
                transform="translate(167.457 234.412)" fill="#313e58" />
            <path d="M4.544,1.739H.119a1.619,1.619,0,1,1,0-3.239H4.544a1.619,1.619,0,1,1,0,3.239Z"
                transform="translate(179.572 234.412)" fill="#313e58" />
            <path d="M4.544,1.739H.119a1.619,1.619,0,1,1,0-3.239H4.544a1.619,1.619,0,1,1,0,3.239Z"
                transform="translate(148.817 241.597)" fill="#313e58" />
            <path d="M4.544,1.739H.119a1.619,1.619,0,1,1,0-3.239H4.544a1.619,1.619,0,1,1,0,3.239Z"
                transform="translate(161.503 241.597)" fill="#313e58" />
            <path d="M4.544,1.739H.119a1.619,1.619,0,1,1,0-3.239H4.544a1.619,1.619,0,1,1,0,3.239Z"
                transform="translate(173.619 241.597)" fill="#313e58" />
            <path d="M4.544,1.739H.119a1.619,1.619,0,1,1,0-3.239H4.544a1.619,1.619,0,1,1,0,3.239Z"
                transform="translate(221.755 241.69)" fill="#313e58" />
            <path d="M4.544,1.739H.119a1.619,1.619,0,1,1,0-3.239H4.544a1.619,1.619,0,1,1,0,3.239Z"
                transform="translate(234.442 241.69)" fill="#313e58" />
            <path d="M4.544,1.739H.119a1.619,1.619,0,1,1,0-3.239H4.544a1.619,1.619,0,1,1,0,3.239Z"
                transform="translate(246.557 241.69)" fill="#313e58" />
            <path d="M27.683,1.739H.119a1.619,1.619,0,1,1,0-3.239H27.683a1.619,1.619,0,0,1,0,3.239Z"
                transform="translate(185.733 241.69)" fill="#313e58" />
            <path d="M4.544,1.739H.119a1.619,1.619,0,1,1,0-3.239H4.544a1.619,1.619,0,1,1,0,3.239Z"
                transform="translate(191.688 234.412)" fill="#313e58" />
            <path d="M4.544,1.739H.119a1.619,1.619,0,1,1,0-3.239H4.544a1.619,1.619,0,1,1,0,3.239Z"
                transform="translate(203.802 234.412)" fill="#313e58" />
            <path d="M4.544,1.739H.119a1.619,1.619,0,1,1,0-3.239H4.544a1.619,1.619,0,1,1,0,3.239Z"
                transform="translate(215.918 234.133)" fill="#313e58" />
            <path d="M4.544,1.739H.119a1.619,1.619,0,1,1,0-3.239H4.544a1.619,1.619,0,1,1,0,3.239Z"
                transform="translate(228.033 234.133)" fill="#313e58" />
            <path d="M4.544,1.739H.119a1.619,1.619,0,1,1,0-3.239H4.544a1.619,1.619,0,1,1,0,3.239Z"
                transform="translate(240.149 234.133)" fill="#313e58" />
            <g transform="translate(172.119 85.293)" opacity="0.95" style="isolation:isolate">
                <g transform="translate(0 0)">
                    <g clip-path="url(#a)">
                        <rect width="98.202" height="34.063" fill="#e4e6ea" />
                    </g>
                </g>
            </g>
            <g transform="translate(172.119 130.953)" opacity="0.95" style="isolation:isolate">
                <g transform="translate(0 0)">
                    <g clip-path="url(#a)">
                        <rect width="98.202" height="34.063" fill="#e4e6ea" />
                    </g>
                </g>
            </g>
            <g transform="translate(178.758 90.169)">
                <path
                    d="M10.17,11.567a13.528,13.528,0,0,0-1.917-.711,14.772,14.772,0,0,0-1.918-.435,3.86,3.86,0,0,1-1.552-.555A1.371,1.371,0,0,1,4.1,8.681a1.35,1.35,0,0,1,.569-1.148,2.239,2.239,0,0,1,1.362-.4,2.468,2.468,0,0,1,1.356.35,4.551,4.551,0,0,1,.4.308c.145.125.34.274.561.431a1.318,1.318,0,0,0,.8.235A1.758,1.758,0,0,0,10.529,7.5a3.093,3.093,0,0,0,.661-1.378c0-.167-.118-.475-.681-.994l-.1-.074-.277-.248a5.622,5.622,0,0,0-.9-.5,6.6,6.6,0,0,0-1.462-.487.169.169,0,0,1-.133-.164V2.008A7.818,7.818,0,0,0,7.576.916,1.044,1.044,0,0,0,7.177.3,1.648,1.648,0,0,0,6.1,0c-.766,0-1.237.2-1.4.6a4.093,4.093,0,0,0-.164,1.377V3.625A.169.169,0,0,1,4.4,3.79a4.972,4.972,0,0,0-2.99,1.762A4.836,4.836,0,0,0,.324,8.623a4.714,4.714,0,0,0,.792,2.812,4.344,4.344,0,0,0,1.925,1.559,16.679,16.679,0,0,0,2.328.744A12.424,12.424,0,0,1,7.4,14.38a1.265,1.265,0,0,1,.924,1.153c0,.894-.407,1.96-2.342,1.96A2.8,2.8,0,0,1,3.79,16.314C2.868,15.4,2.351,15.2,2.082,15.2a1.626,1.626,0,0,0-1.134.511C.165,16.474,0,16.914,0,17.149a2.252,2.252,0,0,0,.582,1.279l.383.5a5.785,5.785,0,0,0,1.31,1.05,6.57,6.57,0,0,0,2.121.858A.168.168,0,0,1,4.528,21v1.823a4.026,4.026,0,0,0,.193,1.437.722.722,0,0,0,.422.436,2.574,2.574,0,0,0,.924.134,2.565,2.565,0,0,0,.922-.134.87.87,0,0,0,.469-.475,3.665,3.665,0,0,0,.175-1.369V20.972a.168.168,0,0,1,.13-.164,6.208,6.208,0,0,0,3.121-1.776,4.948,4.948,0,0,0,1.277-3.559,4.981,4.981,0,0,0-.581-2.517,3.269,3.269,0,0,0-1.41-1.39"
                    transform="translate(0 45)" fill="#313e58" />
                <path
                    d="M10.17,11.567a13.528,13.528,0,0,0-1.917-.711,14.772,14.772,0,0,0-1.918-.435,3.86,3.86,0,0,1-1.552-.555A1.371,1.371,0,0,1,4.1,8.681a1.35,1.35,0,0,1,.569-1.148,2.239,2.239,0,0,1,1.362-.4,2.468,2.468,0,0,1,1.356.35,4.551,4.551,0,0,1,.4.308c.145.125.34.274.561.431a1.318,1.318,0,0,0,.8.235A1.758,1.758,0,0,0,10.529,7.5a3.093,3.093,0,0,0,.661-1.378c0-.167-.118-.475-.681-.994l-.1-.074-.277-.248a5.622,5.622,0,0,0-.9-.5,6.6,6.6,0,0,0-1.462-.487.169.169,0,0,1-.133-.164V2.008A7.818,7.818,0,0,0,7.576.916,1.044,1.044,0,0,0,7.177.3,1.648,1.648,0,0,0,6.1,0c-.766,0-1.237.2-1.4.6a4.093,4.093,0,0,0-.164,1.377V3.625A.169.169,0,0,1,4.4,3.79a4.972,4.972,0,0,0-2.99,1.762A4.836,4.836,0,0,0,.324,8.623a4.714,4.714,0,0,0,.792,2.812,4.344,4.344,0,0,0,1.925,1.559,16.679,16.679,0,0,0,2.328.744A12.424,12.424,0,0,1,7.4,14.38a1.265,1.265,0,0,1,.924,1.153c0,.894-.407,1.96-2.342,1.96A2.8,2.8,0,0,1,3.79,16.314C2.868,15.4,2.351,15.2,2.082,15.2a1.626,1.626,0,0,0-1.134.511C.165,16.474,0,16.914,0,17.149a2.252,2.252,0,0,0,.582,1.279l.383.5a5.785,5.785,0,0,0,1.31,1.05,6.57,6.57,0,0,0,2.121.858A.168.168,0,0,1,4.528,21v1.823a4.026,4.026,0,0,0,.193,1.437.722.722,0,0,0,.422.436,2.574,2.574,0,0,0,.924.134,2.565,2.565,0,0,0,.922-.134.87.87,0,0,0,.469-.475,3.665,3.665,0,0,0,.175-1.369V20.972a.168.168,0,0,1,.13-.164,6.208,6.208,0,0,0,3.121-1.776,4.948,4.948,0,0,0,1.277-3.559,4.981,4.981,0,0,0-.581-2.517,3.269,3.269,0,0,0-1.41-1.39"
                    transform="translate(0 0)" fill="#313e58" />
            </g>
            <path d="M60,2H0A2,2,0,0,1-2,0,2,2,0,0,1,0-2H60a2,2,0,0,1,2,2A2,2,0,0,1,60,2Z"
                transform="translate(200.5 102.5)" fill="#313e58" />
            <path
                d="M34.183,2H0A2,2,0,0,1-2,0,2,2,0,0,1,0-2H34.183a2,2,0,0,1,2,2A2,2,0,0,1,34.183,2Z"
                transform="translate(120.317 88.169)" fill="#fff" />
            <path
                d="M34.183,2H0A2,2,0,0,1-2,0,2,2,0,0,1,0-2H34.183a2,2,0,0,1,2,2A2,2,0,0,1,34.183,2Z"
                transform="translate(120.317 99.169)" fill="#fff" />
            <path
                d="M34.183,2H0A2,2,0,0,1-2,0,2,2,0,0,1,0-2H34.183a2,2,0,0,1,2,2A2,2,0,0,1,34.183,2Z"
                transform="translate(120.317 110.169)" fill="#fff" />
            <path
                d="M34.183,2H0A2,2,0,0,1-2,0,2,2,0,0,1,0-2H34.183a2,2,0,0,1,2,2A2,2,0,0,1,34.183,2Z"
                transform="translate(120.317 121.169)" fill="#fff" />
            <path d="M60,2H0A2,2,0,0,1-2,0,2,2,0,0,1,0-2H60a2,2,0,0,1,2,2A2,2,0,0,1,60,2Z"
                transform="translate(200.5 147.984)" fill="#313e58" />
        </g>
        <g transform="translate(689.479 1043.136)">
            <path
                d="M367.7,122.524s-25.936,60,1.755,73.508a39.332,39.332,0,0,0,12.3,1.945,35.659,35.659,0,0,0,11.938-1.945c27.691-13.5,1.755-73.508,1.755-73.508"
                transform="translate(-1053.402 -967.372)" fill="#bfe2e2" />
            <path
                d="M384.261,137.127a.972.972,0,0,1-.928-1.258l.1-.308c.23-.744.287-.926.317-1.007a43.911,43.911,0,0,0,1.324-26.143,18.329,18.329,0,0,0-3.055-6.824c-2.378-3.012-6.291-4.932-9.744-6.626a.971.971,0,0,1,.856-1.743c3.638,1.785,7.761,3.809,10.413,7.167a20.125,20.125,0,0,1,3.41,7.54,45.854,45.854,0,0,1-1.381,27.3c-.026.076-.152.481-.285.911l-.1.308A.971.971,0,0,1,384.261,137.127Z"
                transform="translate(-1056.411 -979.033)" fill="#bfe2e2" />
            <path
                d="M382.9,131.856a.971.971,0,0,1-.971-.964,19.854,19.854,0,0,0-4.254-11.841,36.985,36.985,0,0,0-6.564-6.572l-.074-.06a.976.976,0,0,1-.169-.172h0l0,0a.971.971,0,0,1,1.4-1.329l.071.058a39.283,39.283,0,0,1,6.893,6.915,21.752,21.752,0,0,1,4.639,12.988.971.971,0,0,1-.964.978Z"
                transform="translate(-1059.975 -974.175)" fill="#bfe2e2" />
            <path
                d="M383.406,82.3a11.088,11.088,0,0,1,10.392.388,3.393,3.393,0,0,1,1.659,2.01,3.218,3.218,0,0,1-.46,2.074c-2.448,4.654-10.105,7.461-15.61,7.936,3.162.8,7.775.937,10.626,2.452a3.613,3.613,0,0,1,1.77,1.546c.476,1.112-.38,2.411-1.529,2.936a8.171,8.171,0,0,1-3.76.425c-2.27-.1-4.75-.278-6.4-1.747l1.351,6.437a10.1,10.1,0,0,1,.212,4.894c-.893,3.045-4.549,4.754-7.912,4.724-1.8-.017-3.824-.582-4.62-2.1a4.79,4.79,0,0,1-.351-2.631,18.982,18.982,0,0,1,3.739-9.813,21.794,21.794,0,0,1-9.742,10.421,3.531,3.531,0,0,1-2.645.542,2.792,2.792,0,0,1-1.652-2.275,8.82,8.82,0,0,1,2.436-7.385c1.836-2.03,6.78-4.043,9.357-5.152-2.51.157-7.687.865-9.748-.493-3.228-2.127-2.768-7.468.648-9.32s7.581-.774,8.832,2.74a8,8,0,0,1-1.091-6.085c.45-2.4,3.141-4.563,5.573-3.7a4.77,4.77,0,0,1,2.568,2.544c.586,1.22-.381,5.592-.4,6.921C377.671,88.253,381.019,83.418,383.406,82.3Z"
                transform="translate(-1062.362 -984.491)" fill="#bfe2e2" />
            <path
                d="M384.618,138.011a.972.972,0,0,1-.956-1.15A52.062,52.062,0,0,1,390.8,118.54a71.934,71.934,0,0,1,14.165-16.1.971.971,0,1,1,1.274,1.466,70.035,70.035,0,0,0-13.792,15.665,50.154,50.154,0,0,0-6.874,17.651A.971.971,0,0,1,384.618,138.011Z"
                transform="translate(-1051.506 -979.764)" fill="#bfe2e2" />
            <path
                d="M418.543,92.924c2.177-.4,4.894-.072,5.88,1.8,1.124,2.127-.769,4.554-2.719,6.064-2.3,1.783-5.23,3.313-8.139,2.7a23.285,23.285,0,0,1,8.815,3.7c1.08.75,2.171,1.749,2.186,3.009.023,1.742-2.007,2.882-3.842,3.128a9.966,9.966,0,0,1-10.139-5.372,8,8,0,0,1-2.254,6.59,9.148,9.148,0,0,1-6.822,2.616,3.8,3.8,0,0,1-2.875-1.165,3.362,3.362,0,0,1-.33-2.911,9.525,9.525,0,0,1,4.75-5.931,11.5,11.5,0,0,1-12.006.02,2.459,2.459,0,0,1-1.176-1.314,2.3,2.3,0,0,1,.387-1.643,10.671,10.671,0,0,1,6.973-5.039c1.908-.415,4.273-.143,5.262,1.445a11.962,11.962,0,0,1-6.75-7.412,5.688,5.688,0,0,1,.044-3.947,3.354,3.354,0,0,1,3.368-1.986,4.505,4.505,0,0,1,2.745,2c2.021,2.707,1.92,3.112,2.689,9.08a9.785,9.785,0,0,1,4.4-10.191,7.032,7.032,0,0,1,5.307-1.1c1.805.453,3.3,2.16,2.99,3.89-.254,1.413-1.533,2.433-2.727,3.326-1.342,1-2.676,2.016-4.031,3C412.647,95.236,415.436,93.288,418.543,92.924Z"
                transform="translate(-1049.402 -982.033)" fill="#bfe2e2" />
            <path
                d="M-527.453,2654.447a6.7,6.7,0,0,1,.614-6.374,11.5,11.5,0,0,1,5.19-4.148l-.155-.339a4.818,4.818,0,0,1-3-4.587,3.851,3.851,0,0,1,4.159-3.31c1.325.179,4.154,2.067,5.93,3.333l7.646-6.022a11.99,11.99,0,0,1,7.783,3.294,2.039,2.039,0,0,1,.551.753c.284.833-.521,1.639-1.33,2.071-2.05,1.1-4.43.9-6.821.433a11.344,11.344,0,0,1,5.347,5.754c.73,1.725.842,4.148-.923,4.983a4.449,4.449,0,0,1-3.155-.092,21.435,21.435,0,0,1-10.426-7.071l3.323,4.635c1.312,1.829,2.682,3.886,2.345,6.069a2.173,2.173,0,0,1-1.174,1.754c-.968.4-2.049-.24-2.829-.911a16.068,16.068,0,0,1-4.853-7.387,21.06,21.06,0,0,1-.366,8.184,2.963,2.963,0,0,1-.707,1.485,2.635,2.635,0,0,1-1.468.624,4.82,4.82,0,0,1-.687.049A5.71,5.71,0,0,1-527.453,2654.447Z"
                transform="translate(-173.191 -3507.83)" fill="#bfe2e2" />
        </g>
        <g transform="translate(106.814 1416.277)">
            <path
                d="M74.489,213.92a142.5,142.5,0,0,1-28.663-2.568,37.707,37.707,0,0,1-8.867-2.849c-2.46-1.256-3.707-2.694-3.707-4.274a3.754,3.754,0,0,1,1.435-2.774,12.569,12.569,0,0,1,3.418-2.036,53.041,53.041,0,0,1,11.609-3.054,1,1,0,1,1,.33,1.973A51.123,51.123,0,0,0,38.9,201.255c-2.316,1-3.644,2.081-3.644,2.974,0,1.288,2.88,3.415,11,5.168a140.479,140.479,0,0,0,28.241,2.523A140.479,140.479,0,0,0,102.73,209.4c8.116-1.753,11-3.88,11-5.168,0-1.259-1.667-2.327-3.066-3a40.918,40.918,0,0,0-10.609-2.889,1,1,0,0,1,.324-1.974c10.186,1.673,15.351,4.319,15.351,7.865,0,1.579-1.247,3.017-3.707,4.274a37.7,37.7,0,0,1-8.867,2.849A142.5,142.5,0,0,1,74.489,213.92Z"
                transform="translate(-95.524 -1322.66)" fill="#5bb3b3" />
            <path
                d="M26.605-1A109.35,109.35,0,0,1,45.6.465,28.124,28.124,0,0,1,51.522,2.1a6.689,6.689,0,0,1,1.82,1.1,2.33,2.33,0,0,1,.868,1.737,2.33,2.33,0,0,1-.868,1.737,6.689,6.689,0,0,1-1.82,1.1A28.124,28.124,0,0,1,45.6,9.421a109.35,109.35,0,0,1-19,1.465,109.35,109.35,0,0,1-19-1.465A28.124,28.124,0,0,1,1.689,7.782a6.689,6.689,0,0,1-1.82-1.1A2.33,2.33,0,0,1-1,4.943,2.33,2.33,0,0,1-.132,3.206a6.689,6.689,0,0,1,1.82-1.1A28.124,28.124,0,0,1,7.61.465,109.35,109.35,0,0,1,26.605-1Zm25.6,5.943c-.03-.07-.274-.522-1.788-1.134a29.567,29.567,0,0,0-5.556-1.446A109.092,109.092,0,0,0,26.605,1,109.092,109.092,0,0,0,8.346,2.363,29.567,29.567,0,0,0,2.791,3.809C1.277,4.421,1.033,4.873,1,4.943c.03.07.274.522,1.788,1.134A29.567,29.567,0,0,0,8.346,7.522,109.092,109.092,0,0,0,26.605,8.885,109.092,109.092,0,0,0,44.865,7.522,29.567,29.567,0,0,0,50.42,6.077C51.934,5.464,52.178,5.013,52.208,4.943Z"
                transform="translate(-47.641 -1157.714)" fill="#5bb3b3" />
            <path
                d="M88.3,204.74H60.515a13.187,13.187,0,0,1-5.372-1.138,13.8,13.8,0,0,1-4.384-3.086,14.52,14.52,0,0,1-4.036-10.108V171.747a15,15,0,0,1,.095-1.682,1,1,0,0,1,1.987.225,13,13,0,0,0-.082,1.457v18.661a12.529,12.529,0,0,0,3.479,8.723,11.455,11.455,0,0,0,8.313,3.609H88.3a11.455,11.455,0,0,0,8.313-3.609,12.529,12.529,0,0,0,3.479-8.723V171.747a12.865,12.865,0,0,0-.094-1.558,1,1,0,1,1,1.985-.243,14.869,14.869,0,0,1,.109,1.8v18.661a14.52,14.52,0,0,1-4.036,10.108,13.8,13.8,0,0,1-4.384,3.086A13.187,13.187,0,0,1,88.3,204.74Z"
                transform="translate(-95.44 -1322.839)" fill="#5bb3b3" />
            <path
                d="M104.539,194.945a7.825,7.825,0,0,1-4.561-1.507,1,1,0,0,1,1.163-1.627,5.838,5.838,0,0,0,3.4,1.134c3.744,0,6.789-3.738,6.789-8.333s-3.046-8.334-6.789-8.334a5.734,5.734,0,0,0-3.226,1.009,1,1,0,0,1-1.11-1.663,7.8,7.8,0,0,1,4.337-1.346,8.137,8.137,0,0,1,6.276,3.093,11.685,11.685,0,0,1,0,14.481A8.137,8.137,0,0,1,104.539,194.945Z"
                transform="translate(-95.109 -1322.806)" fill="#5bb3b3" />
        </g>
        <g transform="translate(-0.096 -0.483)">
            <rect width="9.65" height="14.311" transform="translate(262.495 172.307) rotate(-45)"
                fill="#7a8293" />
            <path d="M0,0H9.65V9.135a19.514,19.514,0,0,1-4.993.805A15.641,15.641,0,0,1,0,9.135Z"
                transform="translate(262.015 171.827) rotate(-45)" fill="#313e58" />
            <path d="M55.838,27.919A27.919,27.919,0,1,1,27.919,0,27.919,27.919,0,0,1,55.838,27.919"
                transform="translate(205.219 147.691) rotate(-45)" fill="none" />
            <rect width="15.674" height="56.565" rx="4"
                transform="translate(270.002 184.074) rotate(-45)" fill="#e88a2d" />
            <path d="M2.732,0A2.741,2.741,0,0,0,0,2.732v51.1a2.741,2.741,0,0,0,2.732,2.732h3.33V0Z"
                transform="translate(270.002 184.074) rotate(-45)" fill="#cc7a29" />
            <path d="M55.838,27.919A27.919,27.919,0,1,1,27.919,0,27.919,27.919,0,0,1,55.838,27.919Z"
                transform="translate(205.219 147.691) rotate(-45)" fill="#fff" opacity="0.612" />
            <path
                d="M31.542-4.5A36.042,36.042,0,1,1-4.5,31.542,36.083,36.083,0,0,1,31.542-4.5Zm0,63.084A27.042,27.042,0,1,0,4.5,31.542,27.073,27.073,0,0,0,31.542,58.584Z"
                transform="translate(200.096 147.692) rotate(-45)" fill="#7a8293" />
            <path
                d="M27.919-2A29.911,29.911,0,0,1,49.075,49.075,29.919,29.919,0,1,1,16.272.352,29.732,29.732,0,0,1,27.919-2Zm0,55.839a25.927,25.927,0,0,0,10.088-49.8A25.926,25.926,0,0,0,17.831,51.8,25.754,25.754,0,0,0,27.919,53.839Z"
                transform="translate(205.219 147.691) rotate(-45)" fill="#313e58" />
        </g>
        <g transform="matrix(0.995, -0.105, 0.105, 0.995, 261.134, 86.132)">
            <g transform="translate(208.404 256.659) rotate(177)">
                <path
                    d="M.179,0S59.765,57.93,62.125,73.128C40.882,62.2,3.947,25.448.585,8.346-.425,2.409.179,0,.179,0"
                    transform="translate(91.722 158.035)" fill="#c0e2e2" />
                <path
                    d="M13.734,95.419S14,12.316,4.791,0C-2.258,22.822-1.82,74.927,8.052,89.291c3.538,4.875,5.682,6.128,5.682,6.128"
                    transform="translate(88.648 158.721)" fill="#c0e2e2" />
                <path d="M33.669.969S18.1,80.556.422,88.874C-3.56,84.356,21.725,6.779,31.3,0"
                    transform="translate(60.585 158.23)" fill="#c0e2e2" />
                <path
                    d="M45.836,10.751S15.063,23.662,0,24.523C54.228,29.257,92.532,1.067,92.532,1.067s-11.836-5.81-46.7,9.684"
                    transform="translate(0 157.809)" fill="#c0e2e2" />
                <path d="M66.28,0S29.281,67.7,0,80.481C8.626,71.514,50.391,1.569,66.28,0"
                    transform="translate(26.683 159.737)" fill="#c0e2e2" />
                <path
                    d="M0,166.477h-.07a2.5,2.5,0,0,1-2.43-2.568c.009-.313.891-31.667,3.34-67.4,1.44-21,3.132-39.4,5.03-54.668C8.256,22.644,10.984,8.3,13.98-.783a2.5,2.5,0,0,1,3.157-1.592A2.5,2.5,0,0,1,18.729.783c-2.894,8.778-5.55,22.8-7.895,41.662-1.886,15.177-3.57,33.475-5,54.385-2.443,35.637-3.323,66.9-3.332,67.217A2.5,2.5,0,0,1,0,166.477Z"
                    transform="translate(91.966 0)" fill="#c0e1e2" />
            </g>
            <g transform="translate(74.283 60.54)">
                <path
                    d="M102.952,130.273s84.942,15.944,99.275,8.845c-22.012-11.513-75.385-20.889-91.937-13.5-5.652,2.7-7.338,4.656-7.338,4.656"
                    transform="translate(-70.451 -25.596)" fill="#c0e2e2" />
                <path
                    d="M190.761,86.291s-70.482,50.017-86.47,49.564c15.176-19.665,59.733-50.51,77.857-50.723,6.263.087,8.613,1.159,8.613,1.159"
                    transform="translate(-70.285 -30.282)" fill="#c0e2e2" />
                <path
                    d="M105.334,139.545s58.326-60.917,54.806-80.927c-6.226-.678-57.022,67.293-57.047,79.5"
                    transform="translate(-70.434 -33.565)" fill="#c0e2e2" />
                <path
                    d="M104.943,140.883s35.386-72.012,28.7-104.559c-2.454,12.705-36.89,90.113-28.7,104.559"
                    transform="translate(-70.36 -36.324)" fill="#c0e2e2" />
                <path
                    d="M88.09,94.216S80.629,60.322,72.337,47c36.513,43.261,35.5,92.711,35.5,92.711s-12.03-6.58-19.745-45.5"
                    transform="translate(-72.337 -33.658)" fill="#c0e2e2" />
                <path
                    d="M79.925,239.857a2.5,2.5,0,0,1-2.486-2.794,500.773,500.773,0,0,1,9.907-57.269A278.476,278.476,0,0,1,98.5,143.355c7.185-18.314,12.954-25.252,13.2-25.538l3.818,3.228,0-.006a44.154,44.154,0,0,0-3.591,5.466,137.314,137.314,0,0,0-8.774,18.675,273.509,273.509,0,0,0-10.944,35.778,495.787,495.787,0,0,0-9.8,56.692A2.5,2.5,0,0,1,79.925,239.857Z"
                    transform="translate(-73.994 -24.315)" fill="#c0e1e2" />
            </g>
            <g transform="translate(16.116 112.819)">
                <path
                    d="M83.115,131.947S11.587,141.043,0,134.423c18.9-8.5,63.812-13.684,77.233-6.716,4.574,2.526,5.882,4.239,5.882,4.239"
                    transform="translate(0 -43.252)" fill="#c0e2e2" />
                <path
                    d="M10.9,91.262S67.132,136.39,80.468,136.8C68.8,119.675,33.211,91.793,18.126,90.722c-5.221-.236-7.23.541-7.23.541"
                    transform="translate(1.349 -47.434)" fill="#c0e2e2" />
                <path
                    d="M76.74,139.7S31.165,86.1,35.081,69.605c5.219-.257,44.176,58.854,43.6,69.016"
                    transform="translate(4.313 -50.042)" fill="#c0e2e2" />
                <path
                    d="M91.833,102.492s7.882-27.861,15.445-38.546c-32.54,34.23-34.13,75.464-34.13,75.464s10.343-4.887,18.685-36.919"
                    transform="translate(9.055 -50.743)" fill="#c0e2e2" />
                <path
                    d="M74.626,140.69S48.7,78.973,55.869,52.2c1.419,10.7,26.285,76.865,18.757,88.493"
                    transform="translate(6.761 -52.197)" fill="#c0e2e2" />
            </g>
            <rect width="214.971" height="281.504" transform="translate(0)" fill="none" />
            <path
                d="M-3131.654-1534.677l-3.82-1.186a147.584,147.584,0,0,0,6.384-32.237,107.139,107.139,0,0,0-.654-23.54,75.651,75.651,0,0,0-3.472-14.444,36.047,36.047,0,0,0-2.091-4.916l3.485-1.962c.164.291,4.046,7.282,6,20.49a110.816,110.816,0,0,1,.736,24.493A151.429,151.429,0,0,1-3131.654-1534.677Z"
                transform="translate(3224.095 1797.161)" fill="#bfe2e2" />
        </g>
    </g>
</svg>