<svg xmlns="http://www.w3.org/2000/svg" xmlns:xlink="http://www.w3.org/1999/xlink" width="400"
    height="320" viewBox="0 0 400 320">
    <defs>
        <clipPath>
            <rect width="98.202" height="34.063" fill="#e4e6ea" />
        </clipPath>
        <clipPath>
            <rect width="24" height="24" fill="#313e58" />
        </clipPath>
        <clipPath>
            <rect width="49.43" height="95.098" fill="none" stroke="#5bb3b3" stroke-width="2" />
        </clipPath>
        <clipPath>
            <rect width="400" height="320" />
        </clipPath>
    </defs>
    <g clip-path="url(#h)">
        <path
            d="M398.953,1H0A1,1,0,0,1-1,0,1,1,0,0,1,0-1H398.953a1,1,0,0,1,1,1A1,1,0,0,1,398.953,1Z"
            transform="translate(0.047 183.878)" fill="#5bb3b3" />
        <path
            d="M11.7,12.8a1,1,0,0,1-.71-.3L-.71.7A1,1,0,0,1-.7-.71,1,1,0,0,1,.71-.7l11.7,11.8a1,1,0,0,1-.71,1.7Z"
            transform="translate(370.981 87.938)" fill="#5bb3b3" />
        <path
            d="M360.741,91.938H261.7a1,1,0,0,1-1-1V1a1,1,0,0,1,2,0V89.938h97.038V1a1,1,0,0,1,2,0V90.938A1,1,0,0,1,360.741,91.938Z"
            transform="translate(10.241 -4)" fill="#5bb3b3" />
        <path
            d="M369.64,103.735H247.2a1,1,0,0,1-1-1V1a1,1,0,0,1,2,0V101.735H368.64V1a1,1,0,0,1,2,0V102.735A1,1,0,0,1,369.64,103.735Z"
            transform="translate(13.043 -3.134)" fill="#5bb3b3" />
        <path
            d="M0,12.2a1,1,0,0,1-.672-.26A1,1,0,0,1-.74,10.523L9.431-.672A1,1,0,0,1,10.844-.74,1,1,0,0,1,10.912.672L.74,11.868A1,1,0,0,1,0,12.2Z"
            transform="translate(261.772 87.22)" fill="#5bb3b3" />
        <g transform="translate(-12.124 -1)">
            <path
                d="M29.309-1a30.317,30.317,0,0,1,11.8,58.236,30.317,30.317,0,0,1-23.6-55.854A30.12,30.12,0,0,1,29.309-1Zm0,58.618A28.317,28.317,0,0,0,40.328,3.224,28.317,28.317,0,0,0,18.29,55.394,28.131,28.131,0,0,0,29.309,57.618Z"
                transform="translate(41.503 26.1)" fill="#5bb3b3" />
            <path
                d="M356.179,42.051a2.642,2.642,0,1,1,2.642-2.642A2.645,2.645,0,0,1,356.179,42.051Zm0-3.284a.642.642,0,1,0,.642.642A.643.643,0,0,0,356.179,38.767Z"
                transform="translate(-285.367 16)" fill="#5bb3b3" />
            <path
                d="M39.312-1A40.856,40.856,0,0,1,55,2.094a40.241,40.241,0,0,1,12.813,8.44,39.24,39.24,0,0,1,8.644,12.527,38.72,38.72,0,0,1,0,30.7,39.24,39.24,0,0,1-8.644,12.527A40.241,40.241,0,0,1,55,74.724a41.3,41.3,0,0,1-31.368,0,40.241,40.241,0,0,1-12.813-8.44A39.24,39.24,0,0,1,2.172,53.757a38.72,38.72,0,0,1,0-30.7,39.24,39.24,0,0,1,8.644-12.527,40.241,40.241,0,0,1,12.813-8.44A40.856,40.856,0,0,1,39.312-1Zm0,76.818a38.866,38.866,0,0,0,14.92-2.943,38.249,38.249,0,0,0,12.179-8.022,37.25,37.25,0,0,0,8.206-11.891,36.72,36.72,0,0,0,0-29.106,37.249,37.249,0,0,0-8.206-11.891A38.249,38.249,0,0,0,54.232,3.943a39.3,39.3,0,0,0-29.84,0,38.249,38.249,0,0,0-12.179,8.022A37.249,37.249,0,0,0,4.007,23.856a36.72,36.72,0,0,0,0,29.106,37.25,37.25,0,0,0,8.206,11.891,38.249,38.249,0,0,0,12.179,8.022A38.866,38.866,0,0,0,39.312,75.818Z"
                transform="translate(31.5 17)" fill="#5bb3b3" />
            <path
                d="M356.532,40.409a1,1,0,0,1-1-1l.025-24.582a1,1,0,0,1,1-1h0a1,1,0,0,1,1,1l-.024,23.306,14.217-3.481a1,1,0,1,1,.476,1.943L356.77,40.381A1,1,0,0,1,356.532,40.409Z"
                transform="translate(-285.367 16)" fill="#5bb3b3" />
            <path d="M7.712,1H0A1,1,0,0,1-1,0,1,1,0,0,1,0-1H7.712a1,1,0,0,1,1,1A1,1,0,0,1,7.712,1Z"
                transform="translate(32.908 55.268)" fill="#5bb3b3" />
            <path d="M0,8.712a1,1,0,0,1-1-1V0A1,1,0,0,1,0-1,1,1,0,0,1,1,0V7.712A1,1,0,0,1,0,8.712Z"
                transform="translate(71.093 17.084)" fill="#5bb3b3" />
            <path d="M0,8.712a1,1,0,0,1-1-1V0A1,1,0,0,1,0-1,1,1,0,0,1,1,0V7.712A1,1,0,0,1,0,8.712Z"
                transform="translate(71.093 85.741)" fill="#5bb3b3" />
            <path d="M7.712,1H0A1,1,0,0,1-1,0,1,1,0,0,1,0-1H7.712a1,1,0,0,1,1,1A1,1,0,0,1,7.712,1Z"
                transform="translate(32.908 55.268)" fill="#5bb3b3" />
            <path d="M7.712,1H0A1,1,0,0,1-1,0,1,1,0,0,1,0-1H7.712a1,1,0,0,1,1,1A1,1,0,0,1,7.712,1Z"
                transform="translate(101.565 55.268)" fill="#5bb3b3" />
        </g>
        <g transform="translate(0 9.095)">
            <path d="M136.552,237.744v-4.728l20.323-16.5h94.476l20.323,16.5v4.32Z"
                transform="translate(-4.376 16.725)" fill="#9aa2b0" />
            <path d="M136.552,237.744v-4.728l20.323-16.5h94.476l20.323,16.5v4.32Z"
                transform="translate(-4.376 16.725)" fill="#7a8293" />
            <path
                d="M136.552,239.244a1.5,1.5,0,0,1-1.5-1.5v-4.728a1.5,1.5,0,0,1,.555-1.165l20.323-16.5a1.5,1.5,0,0,1,.945-.335h94.476a1.5,1.5,0,0,1,.945.335l20.323,16.5a1.5,1.5,0,0,1,.555,1.165v4.32a1.5,1.5,0,0,1-1.5,1.5l-135.123.408Zm1.5-5.514v2.509l132.123-.4v-2.11l-19.356-15.711H157.407Z"
                transform="translate(-4.376 16.725)" fill="#7a8293" />
            <path d="M183.355,186.313,179.072,219.3h43.393l-3.212-32.987Z"
                transform="translate(-0.994 10.925)" fill="#7a8293" />
            <path
                d="M111.728,64.163H301.766a4.981,4.981,0,0,1,4.981,4.981V194.026a4.981,4.981,0,0,1-4.981,4.981H111.728a4.981,4.981,0,0,1-4.981-4.981V69.144a4.981,4.981,0,0,1,4.981-4.981"
                transform="translate(-6.747 1.368)" fill="#313e58" />
            <rect width="178.542" height="101.538" transform="translate(110.631 75.586)"
                fill="#85cb85" />
            <path d="M199.725,173.242a4.684,4.684,0,1,1-4.684,4.683,4.683,4.683,0,0,1,4.684-4.683"
                transform="translate(0.276 10.044)" fill="#fff" />
            <path d="M136.552,232.786l20.323-21.221h94.476l20.323,20.817Z"
                transform="translate(-4.376 16.331)" fill="#d1d5db" />
            <path
                d="M136.552,234.286a1.5,1.5,0,0,1-1.083-2.538l20.323-21.22a1.5,1.5,0,0,1,1.083-.462h94.476a1.5,1.5,0,0,1,1.073.452l20.323,20.817a1.5,1.5,0,0,1-1.069,2.548l-135.123.4Zm20.964-21.221-17.44,18.21,128.049-.383-17.4-17.827Z"
                transform="translate(-4.376 16.331)" fill="#d1d5db" />
            <path d="M4.544,1.739H.119a1.619,1.619,0,1,1,0-3.239H4.544a1.619,1.619,0,1,1,0,3.239Z"
                transform="translate(155.342 234.412)" fill="#313e58" />
            <path d="M4.544,1.739H.119a1.619,1.619,0,1,1,0-3.239H4.544a1.619,1.619,0,1,1,0,3.239Z"
                transform="translate(167.457 234.412)" fill="#313e58" />
            <path d="M4.544,1.739H.119a1.619,1.619,0,1,1,0-3.239H4.544a1.619,1.619,0,1,1,0,3.239Z"
                transform="translate(179.572 234.412)" fill="#313e58" />
            <path d="M4.544,1.739H.119a1.619,1.619,0,1,1,0-3.239H4.544a1.619,1.619,0,1,1,0,3.239Z"
                transform="translate(148.817 241.597)" fill="#313e58" />
            <path d="M4.544,1.739H.119a1.619,1.619,0,1,1,0-3.239H4.544a1.619,1.619,0,1,1,0,3.239Z"
                transform="translate(161.503 241.597)" fill="#313e58" />
            <path d="M4.544,1.739H.119a1.619,1.619,0,1,1,0-3.239H4.544a1.619,1.619,0,1,1,0,3.239Z"
                transform="translate(173.619 241.597)" fill="#313e58" />
            <path d="M4.544,1.739H.119a1.619,1.619,0,1,1,0-3.239H4.544a1.619,1.619,0,1,1,0,3.239Z"
                transform="translate(221.755 241.69)" fill="#313e58" />
            <path d="M4.544,1.739H.119a1.619,1.619,0,1,1,0-3.239H4.544a1.619,1.619,0,1,1,0,3.239Z"
                transform="translate(234.442 241.69)" fill="#313e58" />
            <path d="M4.544,1.739H.119a1.619,1.619,0,1,1,0-3.239H4.544a1.619,1.619,0,1,1,0,3.239Z"
                transform="translate(246.557 241.69)" fill="#313e58" />
            <path d="M27.683,1.739H.119a1.619,1.619,0,1,1,0-3.239H27.683a1.619,1.619,0,0,1,0,3.239Z"
                transform="translate(185.733 241.69)" fill="#313e58" />
            <path d="M4.544,1.739H.119a1.619,1.619,0,1,1,0-3.239H4.544a1.619,1.619,0,1,1,0,3.239Z"
                transform="translate(191.688 234.412)" fill="#313e58" />
            <path d="M4.544,1.739H.119a1.619,1.619,0,1,1,0-3.239H4.544a1.619,1.619,0,1,1,0,3.239Z"
                transform="translate(203.802 234.412)" fill="#313e58" />
            <path d="M4.544,1.739H.119a1.619,1.619,0,1,1,0-3.239H4.544a1.619,1.619,0,1,1,0,3.239Z"
                transform="translate(215.918 234.133)" fill="#313e58" />
            <path d="M4.544,1.739H.119a1.619,1.619,0,1,1,0-3.239H4.544a1.619,1.619,0,1,1,0,3.239Z"
                transform="translate(228.033 234.133)" fill="#313e58" />
            <path d="M4.544,1.739H.119a1.619,1.619,0,1,1,0-3.239H4.544a1.619,1.619,0,1,1,0,3.239Z"
                transform="translate(240.149 234.133)" fill="#313e58" />
            <g transform="translate(172.119 85.293)" opacity="0.95" style="isolation:isolate">
                <g transform="translate(0 0)">
                    <g clip-path="url(#a)">
                        <rect width="98.202" height="34.063" fill="#e4e6ea" />
                    </g>
                </g>
            </g>
            <g transform="translate(172.119 130.953)" opacity="0.95" style="isolation:isolate">
                <g transform="translate(0 0)">
                    <g clip-path="url(#a)">
                        <rect width="98.202" height="34.063" fill="#e4e6ea" />
                    </g>
                </g>
            </g>
            <path d="M51,2H0A2,2,0,0,1-2,0,2,2,0,0,1,0-2H51a2,2,0,0,1,2,2A2,2,0,0,1,51,2Z"
                transform="translate(209.5 102.5)" fill="#313e58" />
            <path
                d="M34.183,2H0A2,2,0,0,1-2,0,2,2,0,0,1,0-2H34.183a2,2,0,0,1,2,2A2,2,0,0,1,34.183,2Z"
                transform="translate(120.317 88.169)" fill="#fff" />
            <path
                d="M34.183,2H0A2,2,0,0,1-2,0,2,2,0,0,1,0-2H34.183a2,2,0,0,1,2,2A2,2,0,0,1,34.183,2Z"
                transform="translate(120.317 99.169)" fill="#fff" />
            <path
                d="M34.183,2H0A2,2,0,0,1-2,0,2,2,0,0,1,0-2H34.183a2,2,0,0,1,2,2A2,2,0,0,1,34.183,2Z"
                transform="translate(120.317 110.169)" fill="#fff" />
            <path
                d="M34.183,2H0A2,2,0,0,1-2,0,2,2,0,0,1,0-2H34.183a2,2,0,0,1,2,2A2,2,0,0,1,34.183,2Z"
                transform="translate(120.317 121.169)" fill="#fff" />
            <path d="M51,2H0A2,2,0,0,1-2,0,2,2,0,0,1,0-2H51a2,2,0,0,1,2,2A2,2,0,0,1,51,2Z"
                transform="translate(209.5 147.984)" fill="#313e58" />
        </g>
        <g transform="translate(178.095 144.095)">
            <g transform="translate(-0.095 -0.095)" clip-path="url(#c)">
                <path
                    d="M11.956,11.956A5.978,5.978,0,1,0,5.978,5.978a5.976,5.976,0,0,0,5.978,5.978m0,2.989c-3.99,0-11.956,2-11.956,5.978v1.495a1.5,1.5,0,0,0,1.495,1.495H22.418a1.5,1.5,0,0,0,1.495-1.495V20.923c0-3.975-7.966-5.978-11.956-5.978"
                    transform="translate(0.088 0.088)" fill="#313e58" />
            </g>
        </g>
        <g transform="translate(178.095 99.095)">
            <g transform="translate(-0.095 -0.095)" clip-path="url(#c)">
                <path
                    d="M11.956,11.956A5.978,5.978,0,1,0,5.978,5.978a5.976,5.976,0,0,0,5.978,5.978m0,2.989c-3.99,0-11.956,2-11.956,5.978v1.495a1.5,1.5,0,0,0,1.495,1.495H22.418a1.5,1.5,0,0,0,1.495-1.495V20.923c0-3.975-7.966-5.978-11.956-5.978"
                    transform="translate(0.088 0.088)" fill="#313e58" />
            </g>
        </g>
        <g transform="translate(-45.138 7.06)">
            <path
                d="M334.976,145.058c-8.345-.414-18.666,4.2-19.56,12.794-.651,6.251-.452,12.471-1.454,18.71a48.619,48.619,0,0,1-4.808,14.306c-2.221,4.366-6.828,8.086-8.027,12.745a19.013,19.013,0,0,0,.711,10.06c1.279,3.535.6,3.255-1.953,6.221a80.12,80.12,0,0,0-12.69,18.708c-4.588,10-7.6,21.681-5.9,32.626.214,1.39.47,6.376,2.49,6.727,2.256.391,1.2-2.463,1.082-3.384-.766-5.879-1.443-11.025-.516-16.99,3.582-23.033,21.027-38.208,32.39-57.755.625-1.009,1.943-3.409,2.861-4.993,1.448-2.5,2.9-7.258,4.863-9.11,3.692-3.489.3,3.529-.423,4.87-.91,1.7-1.91,3.5-2.841,4.978-4.263,6.887-9.021,14.4-13.424,21.5,19.026,4.122,32.438-17.555,37.551-31.81,4.212-11.741,9.257-39.19-10.347-40.206"
                transform="translate(-220.169 -78.321)" fill="#bfe2e2" />
            <path
                d="M342.7,125.73c13.942,1.046,22.892,9.767,27.06,21.962,2.246,6.576,2.5,13.32,3.751,20.077,1.877,10.161,5.916,17.861,13.81,25.1a25.42,25.42,0,0,1,5.527,7.007,29.878,29.878,0,0,1,6.382,8.644c2.078,4.348,2.664,9.558.267,13.889a14.431,14.431,0,0,1-3.922,4.564,85.542,85.542,0,0,1,9.289,40.176c-.235,8.318-.663,16.642-1.163,24.948-.135,2.231-.9,5.914-2.053,2.173-1.054-3.422.268-8.794.39-12.369.6-17.416,1.1-33.252-6.461-49.52q-1.191-2.559-2.511-5.076a1.714,1.714,0,0,1-.147-.095c-.033.025-.063.051-.1.074-.055-.095-.132-.207-.221-.333a4.492,4.492,0,0,1-.679-.9,6.456,6.456,0,0,1-1.434-2.485v-.015a234.856,234.856,0,0,0-15.524-20.8c.042.048-5.942-7.674-5.018-3.4.445,2.058,4.847,5.976,6.625,8.157a203.085,203.085,0,0,1,12.387,16.929,8.5,8.5,0,0,1,1.774,2.69c.291.521.564,1.046.83,1.5-13.6,4.258-24.173-4.318-31.386-14.293l-.024-.036a44.26,44.26,0,0,0-7.251-7.674c-4.686-3.635-24.933-48.519-10.2-80.9"
                transform="translate(-337.415 -80.783)" fill="#bfe2e2" />
            <path
                d="M337.712,87.433c14.31,14.114,21.224,33.687,26.7,52.094,6.115,20.555,10.152,41.428,10.308,62.8.1,14.041.5,28.175-.361,42.195a141.586,141.586,0,0,1-1.664,14.9c-.068.406-1.933,11.407-3.715,8.844-1.015-1.459,1.91-11.413,2.131-13.07a203.113,203.113,0,0,0,1.471-28.153c-.1-15.487.382-30.9-1.275-46.325a49.606,49.606,0,0,0-1.019-6.977c-.613-2.4.168-1.351-1.829-2.3-1.94-.923-4.339-.79-6.351-1.947-7.985-4.595-12.071-16.377-15.251-24.112a142,142,0,0,1-7.612-27.585,184.813,184.813,0,0,1-2.752-20.564,50.605,50.605,0,0,0-.625-6.612,14.4,14.4,0,0,1-.711-2.116c.047-1.086.739-1.723.795-2.636q.9.766,1.762,1.57"
                transform="translate(-304.887 -85.867)" fill="#bfe2e2" />
            <path
                d="M388.122,254.036c-.1,23.434-20.062,42.355-44.6,42.263-24.533.091-44.5-18.83-44.6-42.263"
                transform="translate(-278.398 -64.419)" fill="#bfe2e2" />
            <path
                d="M353.937,273.858a7.076,7.076,0,0,0,4.673-1.557,8.832,8.832,0,0,0,2.519-3.837,31.425,31.425,0,0,0,1.327-9.523,36.6,36.6,0,0,1,1.438-10.271,18.036,18.036,0,0,1,2.176-4.5,18.518,18.518,0,0,1,3.693-4.017c.754-.617,1.558-1.205,2.336-1.774.695-.507,1.411-1.032,2.089-1.574l.325-.259c2.182-1.738,4.437-3.534,4.713-6.375a4.247,4.247,0,0,0-.8-3.45,3.565,3.565,0,0,0-2.7-.909,11.644,11.644,0,0,0-2.3.266c-.122.025-.444.141-.893.3a18.3,18.3,0,0,1-4.564,1.229.814.814,0,0,1-.687-.223.614.614,0,0,1,.03-.605c.264-.6,1.169-1.131,2.691-1.575,3.062-.317,5.953-.6,7.675-.6a6.135,6.135,0,0,1,1.114.076,17.155,17.155,0,0,1,8.216,4.341,27.673,27.673,0,0,1,5.67,7.75,56.787,56.787,0,0,1,5.26,18.117c.13,1.046.244,2.185.365,3.474h2.35a71.461,71.461,0,0,0-.874-8.372,51.868,51.868,0,0,0-6.23-17.27,25.964,25.964,0,0,0-6.086-7.019,17.375,17.375,0,0,0-8.447-3.591,13.2,13.2,0,0,0-1.369-.047c-.886,0-1.953.033-3.006.091a8.168,8.168,0,0,0-3.323-.934c-.471-.033-.951-.05-1.427-.05a25.375,25.375,0,0,0-8.034,1.4,35.407,35.407,0,0,0-7.678,3.7,39.662,39.662,0,0,0-6.637,5.278,32.13,32.13,0,0,0-4.915,6.125,22.653,22.653,0,0,0-3.062,11.784,36.366,36.366,0,0,0,2.145,12.115,27.235,27.235,0,0,0,4.3,8c2.313,2.809,4.936,4.25,7.813,4.281Z"
                transform="translate(-335.625 -68.611)" fill="#bfe2e2" />
        </g>
        <g transform="translate(58.688 214.588)">
            <g clip-path="url(#e)">
                <path
                    d="M48.774,60.867H1.25A1,1,0,0,1,.284,59.61l2.809-10.57a1,1,0,0,1,.966-.743H45.942a1,1,0,0,1,.966.741l2.832,10.57a1,1,0,0,1-.966,1.259Zm-46.223-2h44.92l-2.3-8.57H4.828Z"
                    transform="translate(-0.297 -12.626)" fill="#5bb3b3" />
                <path
                    d="M39.564,111.493H9.958a1,1,0,0,1-.99-.859L2.317,63.882a1,1,0,0,1,.99-1.141H47.694a1,1,0,0,1,.985,1.171L40.55,110.664A1,1,0,0,1,39.564,111.493Zm-28.738-2h27.9L46.5,64.741H4.46Z"
                    transform="translate(-0.785 -16.325)" fill="#5bb3b3" />
            </g>
            <path
                d="M42.808,48.466a1,1,0,0,1-1-1V44.483H14.646v2.7a1,1,0,0,1-2,0v-3.7a1,1,0,0,1,1-1H42.808a1,1,0,0,1,1,1v3.982A1,1,0,0,1,42.808,48.466Z"
                transform="translate(-3.512 -11.135)" fill="#5bb3b3" />
            <g clip-path="url(#e)">
                <path
                    d="M25.912,36.223a1,1,0,0,1-.765-1.644c.507-.6.422-.976-1.168-2.638-1.125-1.176-2.525-2.64-2.368-4.58.123-1.516,1.176-3,3.221-4.544a1,1,0,0,1,1.2,1.6c-1.541,1.162-2.359,2.208-2.432,3.108-.085,1.045.841,2.012,1.82,3.036a8.634,8.634,0,0,1,1.722,2.219,2.761,2.761,0,0,1-.468,3.089A1,1,0,0,1,25.912,36.223Z"
                    transform="translate(-5.366 -6.049)" fill="#5bb3b3" />
                <path
                    d="M16.453,27.2a1,1,0,0,1-.552-.167,5.216,5.216,0,0,1-2.458-3.26c-.446-2.241,1.019-4.419,2.435-6.525,1.182-1.759,2.4-3.577,2.076-4.938a3.579,3.579,0,0,0-1.988-2.061A1,1,0,1,1,16.934,8.5,5.4,5.4,0,0,1,19.9,11.842c.535,2.216-.937,4.406-2.36,6.524-1.188,1.767-2.416,3.594-2.133,5.019a3.29,3.29,0,0,0,1.6,1.984,1,1,0,0,1-.554,1.833Z"
                    transform="translate(-3.411 -2.401)" fill="#5bb3b3" />
                <path
                    d="M28.079,9.532a1,1,0,0,1-.98-1.2,6.67,6.67,0,0,0-2.243-6.31A1,1,0,0,1,26.133.481a8.583,8.583,0,0,1,2.588,3.74,8.417,8.417,0,0,1,.336,4.513A1,1,0,0,1,28.079,9.532Z"
                    transform="translate(-6.054 -0.32)" fill="#5bb3b3" />
            </g>
        </g>
        <g transform="translate(-0.096 -0.483)">
            <rect width="9.65" height="14.311" transform="translate(262.495 172.307) rotate(-45)"
                fill="#7a8293" />
            <path d="M0,0H9.65V9.135a19.514,19.514,0,0,1-4.993.805A15.641,15.641,0,0,1,0,9.135Z"
                transform="translate(262.015 171.827) rotate(-45)" fill="#313e58" />
            <path d="M55.838,27.919A27.919,27.919,0,1,1,27.919,0,27.919,27.919,0,0,1,55.838,27.919"
                transform="translate(205.219 147.691) rotate(-45)" fill="none" />
            <rect width="15.674" height="56.565" rx="4"
                transform="translate(270.002 184.074) rotate(-45)" fill="#e88a2d" />
            <path d="M2.732,0A2.741,2.741,0,0,0,0,2.732v51.1a2.741,2.741,0,0,0,2.732,2.732h3.33V0Z"
                transform="translate(270.002 184.074) rotate(-45)" fill="#cc7a29" />
            <path d="M55.838,27.919A27.919,27.919,0,1,1,27.919,0,27.919,27.919,0,0,1,55.838,27.919Z"
                transform="translate(205.219 147.691) rotate(-45)" fill="#fff" opacity="0.612" />
            <path
                d="M31.542-4.5A36.042,36.042,0,1,1-4.5,31.542,36.083,36.083,0,0,1,31.542-4.5Zm0,63.084A27.042,27.042,0,1,0,4.5,31.542,27.073,27.073,0,0,0,31.542,58.584Z"
                transform="translate(200.096 147.692) rotate(-45)" fill="#7a8293" />
            <path
                d="M27.919-2A29.911,29.911,0,0,1,49.075,49.075,29.919,29.919,0,1,1,16.272.352,29.732,29.732,0,0,1,27.919-2Zm0,55.839a25.927,25.927,0,0,0,10.088-49.8A25.926,25.926,0,0,0,17.831,51.8,25.754,25.754,0,0,0,27.919,53.839Z"
                transform="translate(205.219 147.691) rotate(-45)" fill="#313e58" />
        </g>
        <g transform="translate(273.253 -7.234)">
            <path d="M53.877,105.9c-.066-.1-.139-.185-.2-.283-.022.063.053.166.2.283"
                transform="translate(-19.971 -39.3)" fill="#5bb3b3" />
            <path
                d="M53.723,106.1c-.25-.2-.346-.385-.284-.562l.171-.487.277.436c.032.05.069.1.108.153s.059.08.088.121Z"
                transform="translate(-19.971 -39.3)" fill="#5bb3b3" />
            <path d="M74.883,92.738a.276.276,0,0,0-.014-.042c-.133-.191-.1-.145.014.042"
                transform="translate(-27.827 -34.447)" fill="#5bb3b3" />
            <path
                d="M74.668,92.864c-.04-.068-.07-.117-.085-.141a.254.254,0,0,1-.016-.272l.072-.128h.147a.263.263,0,0,1,.223.132l.067.1a.305.305,0,0,1,.047.11.172.172,0,0,0-.01-.028L75,92.694l0,0,0,0-.213.11v0Z"
                transform="translate(-27.827 -34.447)" fill="#5bb3b3" />
            <path
                d="M34.779,26.6a4.642,4.642,0,0,0,1.732-2.968,3.884,3.884,0,0,0-1.186-3C32.682,17.777,17.077.4,16.917.22a.751.751,0,0,0-1.116,1c.16.175,15.775,17.572,18.427,20.424a2.5,2.5,0,0,1,.791,1.862,3.16,3.16,0,0,1-1.181,1.942c-.146.125-14.744,12.657-16.941,14.4-.026.025-.053.05-.08.073a2.072,2.072,0,0,1-2.923-.208l-.06-.06L0,27.389v2L12.833,40.754a3.736,3.736,0,0,0,2.648,1.181A3.771,3.771,0,0,0,17.833,41C20.05,39.242,34.218,27.1,34.779,26.6"
                transform="translate(0 -0.001)" fill="#5bb3b3" />
            <path
                d="M15.483,42.185h-.007a4.01,4.01,0,0,1-2.817-1.252L-.25,29.5V26.834L14.011,39.481l.072.073a1.822,1.822,0,0,0,2.57.183q.038-.033.069-.063l.019-.017C18.831,38,32.139,26.578,33.65,25.282l.036-.03a2.905,2.905,0,0,0,1.084-1.768,2.256,2.256,0,0,0-.712-1.655l-.012-.012C32.545,20.2,26.68,13.7,16.613,2.5l-1-1.109-.01-.012a1,1,0,0,1,.78-1.627,1,1,0,0,1,.707.292L17.1.051l1.042,1.16C21.882,5.37,33.251,18.022,35.5,20.449A4.132,4.132,0,0,1,36.76,23.64l0,.024a4.874,4.874,0,0,1-1.819,3.123c-.72.639-14.782,12.688-16.946,14.409a4.032,4.032,0,0,1-2.5.989ZM.25,29.272l12.766,11.31a3.507,3.507,0,0,0,2.464,1.1,3.531,3.531,0,0,0,2.189-.869l.009-.008c2.151-1.709,16.3-13.829,16.935-14.4l.012-.01a4.376,4.376,0,0,0,1.637-2.8,3.632,3.632,0,0,0-1.11-2.8l-.01-.01C32.9,18.378,21.513,5.708,17.772,1.545L16.737.393a.5.5,0,0,0-.745.666l.993,1.105c10.052,11.188,15.913,17.683,17.42,19.3a2.757,2.757,0,0,1,.864,2.042v.021l0,.02A3.4,3.4,0,0,1,34,25.643l-.021.018c-1.509,1.3-14.786,12.686-16.913,14.38-.025.024-.053.049-.082.074a2.322,2.322,0,0,1-3.269-.227l-.049-.049L.25,27.945Z"
                transform="translate(0 -0.001)" fill="#5bb3b3" />
            <path
                d="M13.965,43.562a.745.745,0,0,0,.485-.175L32.422,28.3a.751.751,0,1,0-.966-1.151L13.465,42.236a.751.751,0,0,0,.5,1.326"
                transform="translate(-4.91 -10.036)" fill="#5bb3b3" />
            <path
                d="M13.945,43.812a1.006,1.006,0,0,1-1-.976,1,1,0,0,1,.358-.793L31.3,26.955a1,1,0,1,1,1.287,1.534L14.611,43.578a1,1,0,0,1-.641.234h-.025ZM31.939,27.221a.5.5,0,0,0-.322.117L13.625,42.427a.5.5,0,0,0,.32.885h.021a.487.487,0,0,0,.323-.116L32.262,28.106a.5.5,0,0,0-.322-.885Z"
                transform="translate(-4.91 -10.036)" fill="#5bb3b3" />
            <path
                d="M22.569,51.888a2.638,2.638,0,1,0,2.642,2.637V54.52a2.636,2.636,0,0,0-2.642-2.632M23.71,54.53a1.138,1.138,0,1,1,0-.005Z"
                transform="translate(-7.418 -19.308)" fill="#5bb3b3" />
            <path
                d="M22.575,51.638a2.891,2.891,0,0,1,2.886,2.882v.005a2.9,2.9,0,0,1-2.881,2.888h-.006a2.888,2.888,0,0,1-.006-5.775Zm0,5.275a2.4,2.4,0,0,0,2.387-2.388v0a2.39,2.39,0,0,0-2.386-2.382h-.005a2.388,2.388,0,0,0,0,4.775Zm0-3.774h.007a1.388,1.388,0,0,1,1.38,1.386v.005a1.388,1.388,0,0,1-1.385,1.381h-.007a1.386,1.386,0,0,1,.005-2.772Zm0,2.272a.887.887,0,0,0,.885-.882v0a.886.886,0,1,0-.89.886Z"
                transform="translate(-7.418 -19.308)" fill="#5bb3b3" />
            <path
                d="M63.26,44.1a30.963,30.963,0,0,0,3.148.03c1.116-.035,1.852-.055,2.178.23a.741.741,0,0,0,.5.185.76.76,0,0,0,.54-.24l0,0a.746.746,0,0,0-.079-1.052c-.766-.671-1.791-.64-3.208-.6a28.172,28.172,0,0,1-3-.03c-2.653-.18-3.474-1.277-3.5-1.322a.751.751,0,1,0-1.271.8c.11.16,1.191,1.756,4.694,2"
                transform="translate(-21.749 -15.238)" fill="#5bb3b3" />
            <path
                d="M69.075,44.8a.991.991,0,0,1-.656-.248,2.1,2.1,0,0,0-1.111-.187c-.271,0-.587.01-.894.02-.425.018-.858.026-1.286.026-.626,0-1.26-.019-1.885-.057-3.351-.235-4.585-1.673-4.884-2.108l-.007-.01a1,1,0,0,1,1.691-1.072c.022.03.8,1.04,3.312,1.21.585.037,1.18.056,1.767.056.4,0,.808-.009,1.208-.026h.01c.32-.009.622-.018.907-.018a3.506,3.506,0,0,1,2.467.68,1,1,0,0,1,.1,1.4l-.015.016a1.015,1.015,0,0,1-.715.316Zm-1.767-.935a2.223,2.223,0,0,1,1.441.312.491.491,0,0,0,.326.123h.007a.511.511,0,0,0,.361-.161l0,0a.5.5,0,0,0-.058-.693,3.044,3.044,0,0,0-2.139-.557c-.277,0-.576.008-.892.017H66.35c-.4.018-.818.026-1.226.026-.6,0-1.2-.019-1.8-.057-2.838-.193-3.688-1.42-3.7-1.433l0-.005a.5.5,0,0,0-.85.531c.553.8,2.024,1.716,4.5,1.889.612.037,1.236.056,1.853.056.421,0,.847-.009,1.267-.026C66.71,43.875,67.03,43.865,67.309,43.865Z"
                transform="translate(-21.749 -15.238)" fill="#5bb3b3" />
            <path
                d="M84.09,61.629l-.032-.031a.751.751,0,1,0-1.009,1.112c6.941,6.711,17.461,16.961,18.017,17.672a4.73,4.73,0,0,1,.275,4.029c-.57,1.061-1.867,1.547-3.869,1.441-.8-.9-2.4-2.592-2.477-2.672A.751.751,0,0,0,93.9,84.211c.019.018,1.683,1.776,2.454,2.648.06,1.893-.364,3.2-1.278,3.879-1.381,1.021-3.573.445-4.2.25l-2.417-2.837a.759.759,0,1,0-1.141,1l2.4,2.83c.034,1.681-.368,2.847-1.2,3.446-1.376,1-3.634.34-4.2.15L82,93.359a.751.751,0,0,0-1.036,1.086l1.666,1.591a.781.781,0,0,0-.035.121A4.227,4.227,0,0,1,80.953,99.6c-1.722,1.086-4.279.135-4.334.135a.751.751,0,0,0-.531,1.406,8.613,8.613,0,0,0,2.788.5,5.355,5.355,0,0,0,2.878-.77A5.245,5.245,0,0,0,84,97.044a8.881,8.881,0,0,0,2.56.419,4.8,4.8,0,0,0,2.838-.811,4.918,4.918,0,0,0,1.812-3.992,8.884,8.884,0,0,0,1.766.213,5.01,5.01,0,0,0,2.993-.926c1.22-.911,1.868-2.452,1.9-4.586h.072c2.868,0,4.134-1.186,4.715-2.242a6.08,6.08,0,0,0-.411-5.661c-.786-1.011-16.38-16.11-18.157-17.832"
                transform="translate(-28.131 -22.848)" fill="#5bb3b3" />
            <path
                d="M78.985,101.888h-.115A8.842,8.842,0,0,1,76,101.372a1,1,0,0,1,.685-1.882l.081.024a7.336,7.336,0,0,0,2.135.352,3.544,3.544,0,0,0,1.915-.482,4,4,0,0,0,1.526-3.248c0-.008,0-.015,0-.022l-1.563-1.492a1,1,0,0,1,1.381-1.448l0,0,2.287,2.178a7.312,7.312,0,0,0,2.115.358,3.029,3.029,0,0,0,1.805-.491c.746-.537,1.115-1.6,1.1-3.15l-2.343-2.762a1.009,1.009,0,0,1,1.52-1.327l2.372,2.785a7.217,7.217,0,0,0,1.969.307,3.2,3.2,0,0,0,1.939-.54c.824-.609,1.221-1.813,1.18-3.58-.77-.864-2.308-2.49-2.383-2.569l-.009-.009A1,1,0,0,1,95.174,83l.005.005.1.1c1.065,1.13,1.843,1.968,2.314,2.5.138.006.273.009.4.009,1.6,0,2.657-.445,3.129-1.324a4.51,4.51,0,0,0-.252-3.757c-.544-.7-11.056-10.938-17.99-17.642a1,1,0,0,1,1.348-1.48l.041.039.207.2c6.423,6.223,17.3,16.791,17.97,17.654a6.316,6.316,0,0,1,.434,5.931c-1.043,1.9-3.131,2.345-4.764,2.373a5.59,5.59,0,0,1-1.993,4.536l0,0a5.231,5.231,0,0,1-3.142.972,9,9,0,0,1-1.531-.161,5.019,5.019,0,0,1-1.9,3.892l-.007.005a5.036,5.036,0,0,1-2.983.853,9.077,9.077,0,0,1-2.357-.349,5.366,5.366,0,0,1-2.312,3.714l0,0A5.605,5.605,0,0,1,78.985,101.888Zm-2.632-1.956a.5.5,0,0,0-.469.325.5.5,0,0,0,.292.646,8.34,8.34,0,0,0,2.7.484h.106a5.105,5.105,0,0,0,2.637-.734A5.012,5.012,0,0,0,83.756,97l.046-.285.276.087a8.632,8.632,0,0,0,2.488.408h.005a4.539,4.539,0,0,0,2.687-.766,4.693,4.693,0,0,0,1.705-3.8l.014-.3.289.063a8.672,8.672,0,0,0,1.717.208h.087a4.733,4.733,0,0,0,2.754-.878c1.162-.869,1.767-2.345,1.8-4.387l0-.246h.319c2.212,0,3.725-.711,4.5-2.113a5.837,5.837,0,0,0-.389-5.387c-.476-.613-7.009-7.028-17.923-17.6l-.21-.2-.029-.028a.5.5,0,0,0-.333-.127.5.5,0,0,0-.337.872l.006.005c5.618,5.432,17.421,16.9,18.04,17.7a4.967,4.967,0,0,1,.3,4.3c-.619,1.153-2,1.683-4.1,1.572l-.1-.005-.069-.078c-.459-.517-1.258-1.379-2.374-2.563l-.1-.1a.5.5,0,0,0-.727.688c.146.151,1.732,1.831,2.458,2.652l.06.068,0,.09c.063,1.989-.4,3.364-1.38,4.087a3.683,3.683,0,0,1-2.236.638,7.773,7.773,0,0,1-2.186-.35l-.069-.022-2.464-2.892a.509.509,0,0,0-.763.674l2.461,2.9,0,.089c.036,1.776-.4,3.005-1.3,3.654a3.511,3.511,0,0,1-2.1.585,7.725,7.725,0,0,1-2.327-.4l-.053-.018-2.365-2.253a.5.5,0,0,0-.691.725l1.768,1.688-.035.141a.675.675,0,0,1-.023.071l-.006.017a4.455,4.455,0,0,1-1.756,3.621,4.032,4.032,0,0,1-2.183.559,7.833,7.833,0,0,1-2.282-.374l-.037-.011h-.013l-.043-.016A.5.5,0,0,0,76.353,99.932Z"
                transform="translate(-28.131 -22.848)" fill="#5bb3b3" />
            <path
                d="M33.9,74.068l0,0a.75.75,0,0,0,.087-1.058l-4.769-5.655a.751.751,0,0,0-1.056-.09l-.014.011a.741.741,0,0,0-.077,1.045l4.77,5.661a.757.757,0,0,0,.576.265.732.732,0,0,0,.48-.175"
                transform="translate(-10.378 -24.963)" fill="#5bb3b3" />
            <path
                d="M33.422,74.493h-.007a1,1,0,0,1-.764-.353L27.88,68.479a.992.992,0,0,1,.1-1.4L28,67.068a1,1,0,0,1,1.405.122l4.769,5.655a1,1,0,0,1-.108,1.4l-.011.01A.982.982,0,0,1,33.422,74.493Zm-5.113-7.029a.492.492,0,0,0-.048.69l4.771,5.663a.506.506,0,0,0,.385.176h.005a.482.482,0,0,0,.307-.11l.01-.009a.5.5,0,0,0,.058-.705l-4.769-5.656a.5.5,0,0,0-.383-.177.493.493,0,0,0-.321.117Z"
                transform="translate(-10.378 -24.963)" fill="#5bb3b3" />
            <path
                d="M62.166,95a4.124,4.124,0,0,0-3.087-1.769l1.255-1A4.149,4.149,0,0,0,61,86.425l-.651-.821a4.14,4.14,0,0,0-5.138-1.1,4.128,4.128,0,0,0-.868-2.989l-.185-.23a4.149,4.149,0,0,0-5.811-.666l-.072.057a4.139,4.139,0,0,0-6.624-3.386l-3.479,2.763a4.134,4.134,0,0,0,2.1,7.342,3.914,3.914,0,0,0,.5.03c.076,0,.149-.016.225-.02a4.143,4.143,0,0,0,.716,3.759l.185.23a4.092,4.092,0,0,0,2.763,1.531,3.922,3.922,0,0,0,.5.03,4.056,4.056,0,0,0,.91-.118,4.134,4.134,0,0,0,.792,3.466l.651.821a4.1,4.1,0,0,0,2.768,1.536,3.566,3.566,0,0,0,.5.024,4.017,4.017,0,0,0,.819-.094,4.114,4.114,0,0,0,3.435,5.464,3.92,3.92,0,0,0,.5.03,4.091,4.091,0,0,0,2.527-.911l3.479-2.763A4.134,4.134,0,0,0,62.166,95M38.685,84.945a2.633,2.633,0,0,1,.413-3.7l3.5-2.763a2.6,2.6,0,0,1,1.626-.565v-.025a2.2,2.2,0,0,1,.286.045,2.623,2.623,0,0,1,1.394,4.619l-3.526,2.8c-.012.009-.023.021-.035.031a2.631,2.631,0,0,1-3.661-.44m4.4,5.519-.18-.23a2.647,2.647,0,0,1,.426-3.7L49.3,81.8a2.632,2.632,0,0,1,3.7.425l.185.23a2.617,2.617,0,0,1,.551,1.937,2.644,2.644,0,0,1-.976,1.761L46.79,90.884a2.652,2.652,0,0,1-3.7-.42m5.62,5.73-.651-.821a2.637,2.637,0,0,1,.425-3.7l7.007-5.561a2.6,2.6,0,0,1,1.632-.57,2.642,2.642,0,0,1,2.066.991l.651.821a2.648,2.648,0,0,1-.426,3.7L52.405,96.62a2.653,2.653,0,0,1-3.7-.426m11.911,3.073L57.14,102.03a2.632,2.632,0,1,1-3.273-4.124l3.5-2.763A2.6,2.6,0,0,1,59,94.578l-.02-.015a1.237,1.237,0,0,1,.305.03,2.627,2.627,0,0,1,1.336,4.674"
                transform="translate(-13.623 -28.451)" fill="#5bb3b3" />
            <path
                d="M55.524,104.337a4.186,4.186,0,0,1-.517-.032,4.383,4.383,0,0,1-3.862-4.838,4.18,4.18,0,0,1,.1-.561,3.724,3.724,0,0,1-.464.03,3.8,3.8,0,0,1-.531-.026,4.377,4.377,0,0,1-2.934-1.63l-.65-.821a4.374,4.374,0,0,1-.906-3.3,3.758,3.758,0,0,1-.6.052h-.015a4.182,4.182,0,0,1-.517-.032A4.366,4.366,0,0,1,41.7,91.549l-.184-.228a4.408,4.408,0,0,1-.848-3.646,4.177,4.177,0,0,1-.43-.031,4.384,4.384,0,0,1-2.227-7.786L41.5,77.091a4.39,4.39,0,0,1,7.007,3.1,4.4,4.4,0,0,1,5.845.934l.185.23a4.365,4.365,0,0,1,.945,2.747,4.392,4.392,0,0,1,5.061,1.342l.651.822a4.409,4.409,0,0,1-.705,6.16l-.8.636a4.383,4.383,0,0,1,2.025,7.531l-.013.011-3.479,2.763a4.358,4.358,0,0,1-2.68.965Zm-3.54-6.079-.145.417a3.864,3.864,0,0,0,3.227,5.133,3.7,3.7,0,0,0,.458.029h.013a3.856,3.856,0,0,0,2.371-.855l3.474-2.759A3.883,3.883,0,0,0,59.06,93.48l-.636-.049,1.754-1.392A3.908,3.908,0,0,0,60.8,86.58l-.65-.821a3.891,3.891,0,0,0-4.827-1.033l-.41.212.047-.46a3.872,3.872,0,0,0-.816-2.808l-.184-.229a3.9,3.9,0,0,0-5.461-.626l-.487.388.01-.532A3.888,3.888,0,0,0,41.8,77.489l-3.476,2.761a3.884,3.884,0,0,0,1.975,6.9,3.691,3.691,0,0,0,.457.029h.014a.981.981,0,0,0,.1-.009c.033,0,.071-.009.111-.011l.356-.021-.1.342a3.907,3.907,0,0,0,.673,3.532l.184.228a3.866,3.866,0,0,0,2.6,1.44,3.7,3.7,0,0,0,.458.029h.014a3.769,3.769,0,0,0,.854-.112l.386-.09-.086.387a3.88,3.88,0,0,0,.744,3.257l.65.821a3.874,3.874,0,0,0,2.6,1.443h.006a3.337,3.337,0,0,0,.467.022,3.771,3.771,0,0,0,.768-.088Zm3.522,4.59a2.881,2.881,0,0,1-1.794-5.139l3.5-2.763a2.86,2.86,0,0,1,1.131-.545l-.119-.089h.75a1.519,1.519,0,0,1,.349.033,2.892,2.892,0,0,1,1.925,1.076,2.877,2.877,0,0,1-.477,4.041L57.3,102.225A2.856,2.856,0,0,1,55.506,102.848Zm3.483-8.021a2.361,2.361,0,0,0-1.463.511l-3.5,2.763a2.382,2.382,0,0,0,2.963,3.732l3.478-2.762a2.377,2.377,0,0,0,.395-3.34,2.389,2.389,0,0,0-1.6-.89l-.033-.006-.032-.007Zm-8.214,2.6a2.892,2.892,0,0,1-2.262-1.081l-.652-.822a2.893,2.893,0,0,1,.465-4.049l7.007-5.561a2.864,2.864,0,0,1,1.782-.624h.006a2.88,2.88,0,0,1,2.261,1.085l.652.822a2.907,2.907,0,0,1-.465,4.054l-7.008,5.561A2.874,2.874,0,0,1,50.774,97.432Zm6.34-11.638a2.363,2.363,0,0,0-1.47.515l-7.007,5.561a2.392,2.392,0,0,0-.384,3.347l.65.82a2.4,2.4,0,0,0,3.348.384l7.005-5.56a2.4,2.4,0,0,0,.385-3.353l-.65-.82a2.38,2.38,0,0,0-1.867-.9ZM45.153,91.7a2.891,2.891,0,0,1-2.261-1.08l-.183-.233a2.906,2.906,0,0,1,.466-4.053L49.143,81.6a2.876,2.876,0,0,1,1.786-.625h.006a2.859,2.859,0,0,1,2.258,1.091l.184.229a2.888,2.888,0,0,1-.465,4.05L46.945,91.08A2.874,2.874,0,0,1,45.153,91.7Zm5.776-10.226a2.375,2.375,0,0,0-1.475.516l-5.966,4.735a2.4,2.4,0,0,0-.385,3.353l.181.231a2.4,2.4,0,0,0,3.352.378L52.6,85.953a2.388,2.388,0,0,0,.385-3.347l-.184-.229a2.361,2.361,0,0,0-1.863-.9ZM40.74,86.182a2.881,2.881,0,0,1-1.8-5.133l3.5-2.764a2.863,2.863,0,0,1,1.531-.608v-.059l.273.025a2.46,2.46,0,0,1,.3.047,2.9,2.9,0,0,1,1.927,1.076,2.861,2.861,0,0,1-.414,3.981l-.005,0-3.53,2.8-.025.022-.008.007A2.859,2.859,0,0,1,40.74,86.182Zm3.48-8.016a2.36,2.36,0,0,0-1.462.511l-3.5,2.763a2.381,2.381,0,0,0,2.934,3.75l0,0,.035-.03,3.523-2.8a2.363,2.363,0,0,0,.34-3.286,2.392,2.392,0,0,0-1.6-.89l-.028,0-.064-.013Z"
                transform="translate(-13.623 -28.451)" fill="#5bb3b3" />
            <path
                d="M127.537,65.8l-10.985,10.51a.75.75,0,0,0,.5,1.3.741.741,0,0,0,.536-.21l10.985-10.51a.751.751,0,0,0-1.036-1.086"
                transform="translate(-43.861 -23.673)" fill="#5bb3b3" />
            <path
                d="M117.071,77.857h-.025a1,1,0,0,1-.98-1.02,1.009,1.009,0,0,1,.314-.707l10.989-10.513a1,1,0,0,1,1.381,1.448l0,0L117.76,77.578A.984.984,0,0,1,117.071,77.857Zm10.636-11.873L116.724,76.491a.506.506,0,0,0-.158.355.5.5,0,0,0,.491.51h.014a.488.488,0,0,0,.342-.139L128.4,66.709a.5.5,0,0,0-.691-.725Z"
                transform="translate(-43.861 -23.673)" fill="#5bb3b3" />
            <path
                d="M68.289,50.766c-.06.14-1.491,3.378.035,5.535.8,1.152,2.262,1.732,4.3,1.732.34,0,.7-.015,1.051-.05a.729.729,0,0,0,.375-.14,50.738,50.738,0,0,0,5.505-4.569.757.757,0,0,0,0-1.061l-.007-.006a.746.746,0,0,0-1.054.006,48.941,48.941,0,0,1-5.15,4.289c-1.926.135-3.213-.22-3.813-1.066-.816-1.147-.271-3.123.06-3.934,2.873-2.9,6.391-6.171,7.117-6.351s5.625-.025,8.869.08c2.292.075,4.274.14,4.965.1a3.846,3.846,0,0,0,3-1.306A.74.74,0,0,0,93.388,43a.76.76,0,0,0-1.046.135,2.514,2.514,0,0,1-1.852.706c-.63.025-2.677-.04-4.844-.111-4.889-.155-8.418-.25-9.284-.035-1.417.35-6.422,5.355-7.923,6.856a.927.927,0,0,0-.15.215"
                transform="translate(-25.162 -15.945)" fill="#5bb3b3" />
            <path
                d="M72.628,58.283c-2.144,0-3.661-.619-4.509-1.839a4.882,4.882,0,0,1-.66-3.666,9.075,9.075,0,0,1,.6-2.1l.009-.019a1.179,1.179,0,0,1,.19-.273l.006-.006c4.411-4.411,7.04-6.675,8.04-6.922a12.953,12.953,0,0,1,2.44-.133c1.713,0,4.247.076,6.911.16,1.674.054,3.57.116,4.463.116.153,0,.275,0,.363-.005a2.328,2.328,0,0,0,1.666-.611,1.01,1.01,0,0,1,1.391-.181.992.992,0,0,1,.213,1.379,4.087,4.087,0,0,1-3.193,1.409c-.132.007-.311.01-.544.01-.919,0-2.512-.052-4.356-.112l-.084,0c-1.995-.065-5.009-.163-6.971-.163a10.976,10.976,0,0,0-1.829.075c-.568.141-3.688,2.941-6.964,6.249-.363.915-.769,2.666-.069,3.649.466.656,1.424.988,2.85.988.213,0,.438-.008.671-.023a48.867,48.867,0,0,0,5.064-4.223,1,1,0,0,1,1.4-.009l.013.013a1.011,1.011,0,0,1,0,1.412l-.005.005A51.162,51.162,0,0,1,74.2,58.046a.975.975,0,0,1-.5.186C73.357,58.266,73,58.283,72.628,58.283Zm-4.112-7.41c-.147.339-1.373,3.326.013,5.284.751,1.08,2.129,1.626,4.1,1.626.352,0,.7-.016,1.026-.049h0a.479.479,0,0,0,.247-.092A50.679,50.679,0,0,0,79.384,53.1a.509.509,0,0,0,0-.7l-.009-.008a.5.5,0,0,0-.7,0l0,0A49.367,49.367,0,0,1,73.5,56.7l-.058.042-.071,0c-.27.019-.531.029-.777.029-1.6,0-2.693-.4-3.257-1.2-1.031-1.448-.08-3.9.032-4.173l.019-.046.035-.035c2.1-2.119,6.308-6.188,7.234-6.418a10.026,10.026,0,0,1,1.95-.09c1.969,0,4.989.1,6.987.163l.084,0c1.84.06,3.429.112,4.34.112.222,0,.4,0,.52-.009a3.632,3.632,0,0,0,2.812-1.2.492.492,0,0,0-.105-.684.51.51,0,0,0-.7.09,2.731,2.731,0,0,1-2.034.8c-.1,0-.224.006-.386.006-.9,0-2.8-.062-4.479-.116-2.66-.084-5.19-.16-6.9-.16a13.006,13.006,0,0,0-2.32.118c-.616.152-2.469,1.453-7.8,6.787A.679.679,0,0,0,68.515,50.873Z"
                transform="translate(-25.162 -15.945)" fill="#5bb3b3" />
            <path
                d="M132.895,40.248a1.771,1.771,0,0,1-2.092,0c-3.313-2.878-11.991-10.46-12.782-11.341-.487-.541.035-1.742.279-2.172,5.826-7.147,14.7-17.917,15.73-18.863a.751.751,0,0,0-.13-1.366c-.661-.205-.7-.205-8.943,9.744-3.909,4.734-7.827,9.539-7.868,9.589l-.06.08c-.56.921-1.221,2.8-.14,4,1.021,1.121,12.472,11.061,12.973,11.511a3.409,3.409,0,0,0,2,.64,3.236,3.236,0,0,0,1.9-.605c.58-.414,4.813-4.179,9.983-8.818V30.639c-5.735,5.152-10.29,9.208-10.849,9.609"
                transform="translate(-46.015 -0.88)" fill="#5bb3b3" />
            <path
                d="M131.878,42.325h-.027a3.64,3.64,0,0,1-2.135-.687l-.021-.017c-.095-.085-.591-.518-1.341-1.173-3.236-2.824-10.815-9.439-11.65-10.355-1.178-1.315-.484-3.323.111-4.3l.014-.021.066-.087c.03-.037,3.987-4.889,7.869-9.591,3.437-4.149,5.613-6.768,6.85-8.165,1.31-1.479,1.677-1.718,2.049-1.718a1.017,1.017,0,0,1,.311.06l0,0a1,1,0,0,1,.2,1.805c-1.1,1.042-9.951,11.783-15.673,18.8-.319.568-.619,1.51-.3,1.863.785.875,9.463,8.455,12.752,11.312a1.521,1.521,0,0,0,1.789-.006c.341-.245,2.495-2.107,10.829-9.594l.417-.375v2.685l-.083.075c-6.122,5.494-9.488,8.466-10,8.835A3.466,3.466,0,0,1,131.878,42.325Zm-.016-.5h.016a2.97,2.97,0,0,0,1.737-.559c.344-.245,2.339-1.961,9.879-8.726V31.2c-6.44,5.783-9.956,8.895-10.453,9.252a2.021,2.021,0,0,1-2.386,0l-.016-.013c-3.289-2.857-12-10.468-12.8-11.362-.7-.776.209-2.394.248-2.463l.01-.018.013-.016c4.96-6.085,14.636-17.863,15.754-18.889l.021-.019.025-.014a.5.5,0,0,0-.084-.911.586.586,0,0,0-.16-.036c-.457,0-2.143,2.011-8.514,9.7-3.834,4.644-7.741,9.434-7.863,9.584l-.05.066c-.523.865-1.138,2.606-.161,3.7.814.894,8.656,7.738,11.607,10.314.728.636,1.217,1.062,1.336,1.168a3.142,3.142,0,0,0,1.833.586Z"
                transform="translate(-46.015 -0.88)" fill="#5bb3b3" />
            <path
                d="M132.47,26.915a.751.751,0,0,0-.037,1.061l12.647,10.76a.736.736,0,0,0,.5.18l-.015.02a.751.751,0,0,0,.5-1.321L133.414,26.85a.751.751,0,0,0-.944.065"
                transform="translate(-56.5 -7.505)" fill="#5bb3b3" />
            <path
                d="M145.578,39.187h-.017l-.489-.008.077-.1a.985.985,0,0,1-.233-.151L132.25,28.147a1,1,0,0,1,1.308-1.5l.018.014,12.652,10.765a1,1,0,0,1-.65,1.762ZM132.607,27.8l12.635,10.749a.488.488,0,0,0,.321.121l.169,0a.5.5,0,0,0,.172-.857L133.262,27.049a.5.5,0,0,0-.655.748Z"
                transform="translate(-56.5 -7.505)" fill="#5bb3b3" />
            <path
                d="M130.4,34.041a.763.763,0,0,0-1.079.028l-4.214,4.439a.756.756,0,0,0,.541,1.286.743.743,0,0,0,.561-.235l4.219-4.439a.763.763,0,0,0-.028-1.079"
                transform="translate(-51.944 -9.241)" fill="#5bb3b3" />
            <path
                d="M125.665,40.044h-.021a1.006,1.006,0,0,1-.715-1.712l4.211-4.436a1.013,1.013,0,0,1,1.469,1.4l-4.219,4.439A1,1,0,0,1,125.665,40.044Zm4.209-5.963a.509.509,0,0,0-.372.16l-4.214,4.439a.506.506,0,0,0,.357.864h.02a.5.5,0,0,0,.36-.156l4.22-4.44a.513.513,0,0,0-.372-.866Z"
                transform="translate(-51.944 -9.241)" fill="#5bb3b3" />
            <path
                d="M132.1,45.278a.748.748,0,0,0,.546-.22l4.219-4.474a.751.751,0,0,0-1.091-1.031l-4.214,4.454a.751.751,0,0,0,.541,1.272"
                transform="translate(-54.347 -11.287)" fill="#5bb3b3" />
            <path
                d="M132.115,45.528H132.1a1,1,0,0,1-.721-1.695l4.216-4.456a1,1,0,0,1,1.455,1.374l0,0-4.224,4.479A1,1,0,0,1,132.115,45.528Zm3.837-5.8-4.212,4.452a.5.5,0,0,0,.359.85h.016a.5.5,0,0,0,.35-.145l4.214-4.469a.5.5,0,0,0-.728-.688Z"
                transform="translate(-54.347 -11.287)" fill="#5bb3b3" />
            <path
                d="M138.74,51.319a.752.752,0,0,0,.571-.246l4.2-4.424a.751.751,0,0,0-1.086-1.035l-4.218,4.439a.751.751,0,0,0,.03,1.061.737.737,0,0,0,.5.205"
                transform="translate(-56.824 -14.456)" fill="#5bb3b3" />
            <path
                d="M138.755,51.569h-.02a1,1,0,0,1-.98-.973,1,1,0,0,1,.273-.715l4.224-4.444a1,1,0,0,1,1.448,1.381l0,0-4.2,4.422A1,1,0,0,1,138.755,51.569Zm3.851-5.78-4.216,4.436a.5.5,0,0,0,.02.707.486.486,0,0,0,.333.137h.012a.5.5,0,0,0,.371-.164l0,0,4.2-4.422a.5.5,0,0,0-.724-.69Z"
                transform="translate(-56.824 -14.456)" fill="#5bb3b3" />
        </g>
        <g transform="matrix(0.999, -0.035, 0.035, 0.999, 311.977, 64.692)">
            <path
                d="M39.71,13.161C42.269,9.8,47.017,1.255,50.618.053c2.319-.774,1.643,7.234,1.672,8.761A118.188,118.188,0,0,1,51.007,26.45c-1.388,10.565-5.926,19.975-12.15,28.967-3.2,4.627-6.959,9.31-12.162,12.2-2.395,1.33-2.824,1.684-5.189,2.83-2.755,1.334-2.442,4.937-3.684,7.583C16.1,81.7.955,198.7,2.492,217.007a1.227,1.227,0,1,1-2.44.03C-.6,206.533,5.035,133.79,7.878,110S13.6,65.2,16.482,56.966c3.5-9.985,9.819-21.993,15.08-31.3A109.345,109.345,0,0,1,39.71,13.161Z"
                transform="translate(66.547 68.128) rotate(1)" fill="#bfe2e2" />
            <path
                d="M-13.029-10.085C-19.985-14.71-3.9,4.423,2.4,9.048a6.755,6.755,0,0,0,9.166-.483c1.33,1.468,2.574,3,3.77,4.3,3.643,3.95,7.086,7.994,10.377,12.132,6.836,8.6,12.694,17.68,18.819,26.6,6.045,8.8,12.041,17.645,17.52,26.668C66.692,85.9,72.878,94.9,74.467,103.279,72.056,85.5,62.907,68.42,52.013,52.75a331.377,331.377,0,0,0-40.448-47.9C13.777-8.528-9.795-7.936-13.029-10.085Z"
                transform="translate(17.364 224.883)" fill="#bfe2e2" />
            <path
                d="M1.165.017c3.726.672,9.813,8.443,12.884,11.4a113.481,113.481,0,0,1,10.082,11.2A187.418,187.418,0,0,1,41.97,49.447,237.865,237.865,0,0,1,61.817,97.073a182.669,182.669,0,0,1,6.022,31.24c.215,1.978,2.464,17.228-.777,17.639-2.915.37-2.014-11.579-2.155-13.2-1.589-18.338-6.351-36.18-12.974-53.465-1.443-3.765-2.783-8.377-5.09-11.765-1.661-2.441-.012-1.589-2.932-2.513-2.507-.794-5.364-.6-7.931-1.571-5.577-2.109-10.043-6.2-13.958-10.321-7.608-8-13.636-16.662-16.779-26.917A121.057,121.057,0,0,1,1.01,8.927C.78,7.412-1.235-.415,1.165.017Z"
                transform="translate(2.674 167.804)" fill="#bfe2e2" />
            <path
                d="M53.634,266.12A292.916,292.916,0,0,1,21.4,194.281c-4.352-15.1-7.345-30.617-10.318-46.018-4.6-23.846-8.946-47.693-10-72C.013,51.822-2.294,23.638,6.611,0,2.039,23.957,5.9,49.375,6.384,73.432c.231,11.485,1.125,22.851,2.334,34.259,1.173,11.067,3.162,22.073,5.006,33.046q1.348,8.016,2.809,16.012c.288,1.591.368,6.319,1.451,7.4s6.7,1.479,8.458,2.267a44.566,44.566,0,0,1,9.783,6.258,71.912,71.912,0,0,1,14.318,16.615c8.862,13.8,12.288,30.719,11.942,46.805-.067,3.123-5.844,36.8-3.666,37.246-.133.143-.259.291-.377.445C56.815,271.242,55.22,268.683,53.634,266.12Z"
                transform="translate(63.364 278.923) rotate(-173)" fill="#bfe2e2" />
            <path
                d="M100.365,2.182c.217-.288,1.626-2.291.916-2.163,1.445-.261-1.987,2.209,1.613.694-1.709,1.489-.723,3.422-.7,5.426a44.979,44.979,0,0,1-1.217,9.662,62.528,62.528,0,0,1-4.884,14.6A66.836,66.836,0,0,1,72.767,56.8c-4.924,3.148-9.75,4.22-15.366,5.669-3.547.916-3.829,2.608-5.712,5.782-3.92,6.611-7.771,13.2-11.228,20.032-4.128,8.16-8.136,16.33-11.916,24.634C15.811,140.883,5.446,169.862,0,199.853-.13,182.179,4.3,163.978,9.9,147.132a300.212,300.212,0,0,1,15.035-35.816c1.371-2.837,3.448-6.487,4.03-9.619.408-2.195-.839-4.305-1.409-6.617a63.965,63.965,0,0,1-.112-28.141c2.154-9.981,8.382-14.613,18.919-16.027,3.853-.517,8.751-.328,12.285-1.843,3.85-1.65,5.438-7.072,7.627-10.553a144.817,144.817,0,0,1,20.887-26.2A66.042,66.042,0,0,1,94.3,6.259C95.9,5.082,99.276,3.632,100.365,2.182Z"
                transform="translate(57.814 105.445)" fill="#bfe2e2" />
            <path
                d="M-3696.3-6903.041s4.125-.629,4.119-.932c-.953-34.131-9.6-117.916-27.605-132.884-25.761-21.414-40.948-26.268-40.948-26.268s10.156,32.822,29.434,52.156,23.454,25.236,27.639,26.716C-3701.259-6976.712-3696.3-6903.041-3696.3-6903.041Z"
                transform="translate(3756.938 7160.765)" fill="#bfe2e2" />
        </g>
    </g>
</svg>