<svg width="400" height="320" viewBox="0 0 400 320" fill="none" xmlns="http://www.w3.org/2000/svg">
    <g clip-path="url(#clip0_144_1732)">
        <path
            d="M164.843 298C165.076 294.528 165.05 291.043 164.766 287.574C164.543 284.551 164.031 281.556 163.234 278.63C162.519 275.802 161.225 273.152 159.433 270.846C158.466 269.63 157.241 268.642 155.845 267.955C154.449 267.268 152.917 266.897 151.36 266.871C150.401 266.842 149.536 266.819 148.662 266.819C145.349 266.819 141.609 267.143 138.998 269.546C139.329 263.194 134.394 256.945 127.768 255.32C125.892 254.87 123.97 254.645 122.04 254.649C119.367 254.613 116.71 255.086 114.214 256.041C111.921 256.857 109.99 258.452 108.76 260.546C106.316 254.75 102.358 249.713 97.298 245.958C92.1238 242.019 86.0428 239.432 79.6087 238.432C77.6947 238.144 75.7615 237.999 73.8256 238C68.2355 238.015 62.7066 239.161 57.5741 241.368C52.5382 243.499 48.0334 246.705 44.378 250.761C44.4707 250.08 44.4186 249.387 44.2251 248.727C44.0317 248.068 43.7011 247.456 43.255 246.932C42.3244 245.9 41.1821 245.081 39.9055 244.528C38.6289 243.975 37.248 243.703 35.8564 243.729C34.997 243.724 34.1414 243.843 33.3165 244.083C30.8937 244.857 28.7015 246.218 26.936 248.044C25.164 249.865 23.5504 251.833 22.1126 253.927C20.9039 252.223 19.2971 250.837 17.431 249.89C15.5648 248.943 13.4953 248.463 11.4012 248.491C9.30205 248.477 7.23619 249.013 5.41069 250.046C3.58517 251.078 2.06415 252.571 1 254.373V297.612L164.843 298Z"
            fill="#BFE2E2" />
        <path d="M1 293H401V320H1V293Z" fill="#BFE2E2" />
        <path
            d="M177 152L-32 150.81V109.707C-28.7019 110.055 -25.5582 111.151 -22.8673 112.89C-21.9874 109.969 -19.9534 107.432 -17.1413 105.747C-13.4747 103.419 -9.11635 102.118 -4.61983 102.007C-4.39591 102 -4.16999 102 -3.94607 102C6.43821 102 14.7722 107.281 18.8158 110.43C22.8148 113.709 26.4994 117.282 29.8308 121.11L29.8808 121.164C30.8205 122.185 31.7981 123.241 32.7798 124.282C33.0979 123.11 33.6862 122.011 34.5071 121.055C36.0175 119.289 38.1263 118.007 40.519 117.4C41.6467 117.116 42.8131 116.974 43.9847 116.978C45.3853 116.978 46.7777 117.169 48.1143 117.543C50.021 118.052 51.7575 118.973 53.1694 120.226C54.4002 118.822 55.7857 117.531 57.305 116.374C58.8286 115.231 60.608 114.391 62.5241 113.911C63.3342 113.717 64.1695 113.621 65.0082 113.624C65.8092 113.625 66.6077 113.705 67.3893 113.861C68.9326 114.147 70.3741 114.766 71.5878 115.664C72.2538 116.166 72.7818 116.797 73.1313 117.51C76.7745 114.683 81.0329 112.561 85.6388 111.275C89.5149 110.16 93.5621 109.591 97.6345 109.59C99.3563 109.589 101.076 109.695 102.782 109.906C108.42 110.608 113.796 112.482 118.476 115.377C122.383 117.751 125.611 120.912 127.899 124.606C129.729 123.09 132.018 122.09 134.481 121.731C136.002 121.455 137.551 121.318 139.104 121.323C140.84 121.321 142.572 121.487 144.268 121.821C147.246 122.418 149.932 123.85 151.934 125.908C153.367 127.357 154.319 129.134 154.68 131.04C156.968 130.18 159.443 129.788 161.923 129.894C162.737 129.894 163.547 129.914 164.33 129.933C165.797 129.941 167.247 130.225 168.584 130.767C169.921 131.308 171.115 132.094 172.09 133.075C173.715 134.775 174.906 136.77 175.581 138.923C176.283 141.038 176.737 143.212 176.936 145.411L177 152Z"
            fill="#BFE2E2" />
        <path
            d="M165 86.9091C165 86.9091 230.076 25.526 243.869 25.0034C257.662 24.4809 322 83.5001 322 83.5001L252.5 132.5L216.5 132L165 86.9091Z"
            fill="#BFE2E2" />
        <path
            d="M318 185C318 185 320.951 170.013 324.326 164.299C326.925 159.818 330.497 155.954 334.79 152.979C337.782 150.924 341.089 149.349 344.587 148.314C345.927 147.911 347.298 147.615 348.687 147.429C351.546 145.23 355.069 144.024 358.703 144H358.905C362.293 144.059 365.576 145.161 368.29 147.15C370.336 148.594 371.913 150.589 372.828 152.893C373.869 151.923 375.065 151.128 376.368 150.538C378.316 149.66 380.411 149.137 382.55 148.994C383.017 148.961 383.489 148.944 383.953 148.944C387.307 148.875 390.597 149.844 393.357 151.714C394.068 149.292 395.626 147.192 397.756 145.781C398.151 145.499 398.57 145.228 399 144.977V184.997L318 185Z"
            fill="#BFE2E2" />
        <path
            d="M260 128C260 128 355.02 54.2997 383.505 50.3395C411.989 46.3793 434.189 78.1598 474 88.7496"
            stroke="#5BB3B3" stroke-width="2" stroke-linecap="round" stroke-linejoin="round" />
        <path d="M-31.6855 152.417H189.314" stroke="#5BB3B3" stroke-width="2" stroke-linecap="round" />
        <path
            d="M61.635 98.2653C49.127 87.6403 35.59 78.1273 25.66 76.2653C0.584972 71.5653 -18.956 109.277 -54 121.844"
            stroke="#5BB3B3" stroke-width="2" stroke-linecap="round" stroke-linejoin="round" />
        <path
            d="M219.48 136.872C219.48 136.872 216.36 132.885 214.543 131.126C202.491 119.459 147.851 67.562 125.66 63.403C100.585 58.703 81.044 96.4151 46 108.982"
            stroke="#5BB3B3" stroke-width="2" stroke-linecap="round" stroke-linejoin="round" />
        <path d="M278 185.222H401.5" stroke="#5BB3B3" stroke-width="2" stroke-linecap="round" />
        <path d="M159 227H399" stroke="#5BB3B3" stroke-width="2" stroke-linecap="round" />
        <path d="M-10.6855 193H51.6275" stroke="#5BB3B3" stroke-width="2" stroke-linecap="round" />
        <path
            d="M68.1981 44.6335C70.6326 35.4828 65.188 26.0911 56.0373 23.6566C46.8866 21.2221 37.4949 26.6667 35.0604 35.8174C32.6259 44.9681 38.0705 54.3598 47.2212 56.7943C56.3719 59.2288 65.7636 53.7842 68.1981 44.6335Z"
            stroke="#5AB3B3" stroke-width="1.9992" stroke-linecap="round" stroke-linejoin="round" />
        <path d="M51.6318 11V18.769" stroke="#5AB3B3" stroke-width="2" stroke-linecap="round"
            stroke-linejoin="round" />
        <path d="M51.6318 62.4951V70.2641" stroke="#5AB3B3" stroke-width="2" stroke-linecap="round"
            stroke-linejoin="round" />
        <path d="M30.6777 19.6792L36.1717 25.1732" stroke="#5AB3B3" stroke-width="2"
            stroke-linecap="round" stroke-linejoin="round" />
        <path d="M67.0908 56.0908L72.5848 61.5848" stroke="#5AB3B3" stroke-width="2"
            stroke-linecap="round" stroke-linejoin="round" />
        <path d="M81.2641 40.735L73.4951 40.708" stroke="#5AB3B3" stroke-width="2"
            stroke-linecap="round" stroke-linejoin="round" />
        <path d="M72.6566 19.751L67.1436 25.226" stroke="#5AB3B3" stroke-width="2"
            stroke-linecap="round" stroke-linejoin="round" />
        <path d="M36.1194 56.0381L30.6064 61.5131" stroke="#5AB3B3" stroke-width="2"
            stroke-linecap="round" stroke-linejoin="round" />
        <path d="M62.8551 13.207L59.9131 20.397" stroke="#5AB3B3" stroke-width="2"
            stroke-linecap="round" stroke-linejoin="round" />
        <path d="M43.3512 60.8662L40.4092 68.0562" stroke="#5AB3B3" stroke-width="2"
            stroke-linecap="round" stroke-linejoin="round" />
        <path d="M40.1748 13.3042L43.1788 20.4702" stroke="#5AB3B3" stroke-width="2"
            stroke-linecap="round" stroke-linejoin="round" />
        <path d="M60.084 60.7949L63.087 67.9609" stroke="#5AB3B3" stroke-width="2"
            stroke-linecap="round" stroke-linejoin="round" />
        <path d="M79.0179 51.9499L71.8369 48.9819" stroke="#5AB3B3" stroke-width="2"
            stroke-linecap="round" stroke-linejoin="round" />
        <path d="M31.4271 32.282L24.2461 29.314" stroke="#5AB3B3" stroke-width="2"
            stroke-linecap="round" stroke-linejoin="round" />
        <path d="M78.9992 29.27L71.8242 32.249" stroke="#5AB3B3" stroke-width="2"
            stroke-linecap="round" stroke-linejoin="round" />
        <path d="M31.4387 49.0151L24.2637 51.9941" stroke="#5AB3B3" stroke-width="2"
            stroke-linecap="round" stroke-linejoin="round" />
        <path d="M29.769 40.5568L22 40.5298" stroke="#5AB3B3" stroke-width="2"
            stroke-linecap="round" stroke-linejoin="round" />
        <path
            d="M296.506 261.965C296.506 261.965 292.039 258.594 287.529 260.28C283.019 261.966 276.276 261.965 276.276 261.965"
            stroke="#5AB3B3" stroke-width="2" stroke-linecap="round" stroke-linejoin="round" />
        <path fill-rule="evenodd" clip-rule="evenodd"
            d="M161.812 112.299L183.55 97.3138C192.596 96.1215 197.512 94.9198 198.296 93.7087C198.359 93.622 198.396 93.5196 198.405 93.4128C198.413 93.3061 198.392 93.199 198.344 93.1035C197.764 91.9084 196.579 91.7828 195.487 91.6672C194.637 91.5771 193.843 91.493 193.437 90.9138C192.51 89.5912 195.154 85.7852 197.826 82.2838C200.498 78.7825 198.159 78.7927 196.774 79.1575C191.408 81.9372 186.448 85.4376 182.031 89.5614L153.467 100.418L161.812 112.299Z"
            fill="#B28B67" />
        <path
            d="M99.2363 105.484C124.274 107.543 147.85 102.349 176.184 91.0359L179.986 104.721C156.214 122.442 123.383 146.699 101.909 141.383C96.5173 140.046 101.416 116.691 93.4346 112.818L99.2363 105.484Z"
            fill="#708DAF" />
        <path d="M85.3145 184.141L111.719 275.305L124.138 343.752H136.603L124.16 184.141H85.3145Z"
            fill="#997659" />
        <path
            d="M73.4492 184.141C75.2916 231.5 74.565 257.331 74.1527 261.635C73.7404 265.939 71.3991 294.753 55.4473 345.196H68.412C89.538 296.807 96.9127 267.991 99.3354 261.635C101.758 255.279 108.915 229.449 119.363 184.141H73.4492Z"
            fill="#B28B67" />
        <path
            d="M84.748 184.141C91.6161 215.511 103.495 265.585 120.385 334.363H138.617C139.963 263.768 134.235 217.305 124.315 184.141H84.748Z"
            fill="#5A667D" />
        <path
            d="M73.3567 184.141C75.1617 231.5 70.4886 278.157 56 335.1H75.4522C96.6171 287.431 111.787 241.004 122.154 184.141H73.3567Z"
            fill="#788295" />
        <path
            d="M92.0518 121.76L98.9436 89.3042C95.1007 84.7456 92.4986 79.1586 92.9331 72.8993C94.1862 54.8638 119.037 58.831 123.87 67.9345C128.703 77.0379 128.129 100.129 121.883 101.756C119.391 102.405 114.087 100.815 108.682 97.526L112.074 121.761L92.0518 121.76Z"
            fill="#B28B67" />
        <path
            d="M115.484 68.5612C112.644 70.1125 110.66 73.125 108.261 77.1066C107.179 76.6656 105.981 76.6257 104.873 76.9938C103.765 77.3619 102.815 78.1153 102.183 79.126C101.551 80.1366 101.277 81.3423 101.408 82.5381C101.538 83.734 102.065 84.8462 102.899 85.6859C101.736 87.3875 100.429 89.1642 98.9298 90.9988C93.3057 87.5069 89.1325 77.2937 94.6309 67.4824C96.1508 62.6744 99.5909 60.1089 103.654 58.9181C106.68 57.5629 110.06 57.3053 113.245 58.1872C118.898 58.689 123.947 60.4717 125.378 61.5302C125.378 67.0654 124.34 68.7077 115.482 68.5627L115.484 68.5612Z"
            fill="#2E3E5A" />
        <path
            d="M76.6699 189.267H127.127C129.652 189.267 129.65 178.158 129.65 175.372C129.65 150.978 112.922 134.91 112.922 104.612L96.998 102.107C83.8257 123.36 79.2676 154.156 76.6699 189.267Z"
            fill="#E4E6EA" />
        <path fill-rule="evenodd" clip-rule="evenodd"
            d="M32.1384 216.173C35.2831 215.397 36.3181 216.919 37.2283 218.441C37.2624 218.498 37.2963 218.555 37.3301 218.612C38.0328 219.792 38.7043 220.92 40.2755 220.919C40.5966 220.916 40.9163 220.876 41.2284 220.801C41.1246 220.355 40.9969 219.856 40.8591 219.316C39.9699 215.837 38.6591 210.708 40.6047 207.728C41.6033 206.198 48.9835 192.684 62.7453 167.185L49.0609 164.486C39.7809 188.805 34.248 202.132 32.4623 204.466C31.1534 206.181 23.0785 210.587 17.616 212.942C15.4223 213.887 15.8938 215.731 16.5368 216.319C20.5948 220.038 24.3688 218.734 28.4754 217.315C29.6636 216.904 30.8796 216.484 32.1384 216.173Z"
            fill="#B28B67" />
        <path
            d="M30.5273 204.935C37.9906 158.494 59.5974 124.218 95.3477 102.107H101.659C101.659 102.107 123.123 175.54 113.493 199.963H63.7508C64.538 188.049 67.0608 175.449 70.5175 163.164C59.2504 183.557 49.7813 198.239 42.11 207.212L30.5273 204.935Z"
            fill="#96B7DF" />
        <path
            d="M104.253 64.6428C105.876 61.3579 126.349 52.3996 130.565 52.1364C134.781 51.8731 140.486 53.09 141.536 55.8788C142.586 58.6676 141.785 62.0407 135.457 65.6015C129.128 69.1623 107.988 72.7964 107.988 72.7964C107.988 72.7964 122.369 66.568 123.874 64.4565C125.38 62.3451 102.631 67.9268 104.253 64.6428Z"
            fill="#ABB1BD" />
        <path
            d="M92.1041 81.3554C90.3895 79.017 82.7053 69.124 84.2095 65.2291C85.7136 61.3342 101.544 47.8058 108.876 48.1967C114.378 48.9934 122.828 61.7954 124.058 64.0968C125.288 66.3981 93.818 83.6942 92.1041 81.3554Z"
            fill="#5A667D" />
        <path
            d="M119.993 57.7059L88.8084 76.2059L94.0559 81.8443C98.3316 80.4551 119.739 69.4352 124.603 64.7469C123.438 61.5558 122.758 59.5926 119.993 57.7059Z"
            fill="#E88A2D" />
        <path
            d="M137.905 63.825C135.393 66.199 132.592 68.2471 129.568 69.921C114.178 78.3484 83.3582 93.9395 83.3582 93.9395C83.3582 93.9395 76.1016 95.0501 76.013 90.5971C75.9244 86.1442 73.425 83.2517 88.0172 76.8734C102.609 70.495 114.967 71.6471 121.597 69.6871C128.226 67.727 137.905 63.825 137.905 63.825Z"
            fill="#788295" />
        <path
            d="M201.095 338.886C202.846 301.113 206.522 224.958 207.221 222.527C216.995 216.945 237.274 208.855 240.192 221.143C243.11 233.431 242.652 303.612 242.059 337.167L201.095 338.886Z"
            fill="#708DAF" />
        <path
            d="M274 341C271.026 303.286 264.898 227.258 264.184 224.855C255.261 219.682 236.878 212.44 234.737 224.855C232.595 237.271 235.629 307.458 237.414 341H274Z"
            fill="#96B7DF" />
        <path
            d="M201.003 132.555C200.912 128.316 202.998 124.103 206.238 121.988C208.086 120.781 210.523 119.871 211.001 117.514C211.502 115.046 209.461 112.961 208.558 110.644C207.24 107.255 208.436 103.296 210.037 100.066C211.94 96.2241 214.857 92.4623 218.726 92.0611C219.226 91.9986 219.704 91.8133 220.117 91.5217C220.965 90.9673 221.142 90.5034 221.362 89.4205C221.91 86.7217 223.436 84.7218 225.761 83.8781C227.951 83.084 230.984 82.3942 232.855 83.8511C235.994 83.0316 239.479 83.805 242.566 85.0614C244.813 85.9076 246.883 87.1679 248.67 88.7778C252.461 92.382 254.07 98.1905 253.528 103.606C253.37 104.448 253.387 105.314 253.576 106.149C254.042 107.586 255.525 108.248 256.74 109.023C259.445 110.752 261.439 114.148 260.832 117.473C260.512 119.23 259.514 120.995 260.05 122.69C260.704 124.759 263.108 125.288 264.921 126.27C266.324 127.052 267.457 128.245 268.172 129.689C268.886 131.134 269.147 132.762 268.921 134.359C268.348 137.58 261.692 139.685 261.692 139.685C261.692 139.685 247.03 145.674 232.857 145.988C218.685 146.302 205.445 140.403 205.445 140.403C202.796 139.349 201.076 135.859 201.003 132.555Z"
            fill="#788295" />
        <path d="M248.5 133.5H221L234 146.5L248.5 133.5Z" fill="#FFD964" />
        <path
            d="M197.816 163.374L186.153 236.639C181.836 243.652 178.832 250.146 177.143 256.121C177.016 257.817 177.508 260.548 181.039 256.671C184.57 252.793 188.46 248.873 190.212 249.669C191.965 250.466 191.129 254.182 193.847 254.925C195.66 255.42 196.237 249.355 195.578 236.731L214.178 165.792L197.816 163.374Z"
            fill="#EFC6A1" />
        <path
            d="M271.205 163.374L282.867 236.639C287.185 243.652 290.188 250.146 291.877 256.121C292.004 257.817 291.513 260.548 287.982 256.671C284.451 252.793 280.561 248.873 278.808 249.669C277.056 250.466 277.892 254.182 275.173 254.925C273.361 255.42 272.784 249.355 273.442 236.731L254.842 165.792L271.205 163.374Z"
            fill="#EFC6A1" />
        <path
            d="M220.765 133.453C220.765 133.453 202 141.483 190.504 173.789C208.31 179.627 215.049 186.449 215.049 186.449L225.618 133.453L220.765 133.453Z"
            fill="#FFD964" />
        <path
            d="M248.256 133.453C248.256 133.453 267.021 141.483 278.516 173.789C260.71 179.627 253.971 186.449 253.971 186.449L243.403 133.453L248.256 133.453Z"
            fill="#FFD964" />
        <path opacity="0.1"
            d="M220 137.983C220 137.983 202.585 155.332 198 175.983C207.5 180.483 208 180.983 210.5 181.983L220 137.983Z"
            fill="#313E58" />
        <path opacity="0.1"
            d="M249.021 137.983C249.021 137.983 266.435 155.332 271.021 175.983C261.521 180.483 261.021 180.983 258.521 181.983L249.021 137.983Z"
            fill="#313E58" />
        <path d="M242.823 143.867L236.08 115.438H231.216L226.773 143.867H242.823Z" fill="#CCA27C" />
        <path
            d="M219.422 109.914C219.422 109.914 224.465 129.749 234.021 129.652C243.576 129.555 247.381 108.359 247.381 108.359C247.381 108.359 252.397 88.2258 234.021 88.0731C215.645 87.9203 219.422 109.914 219.422 109.914Z"
            fill="#EFC6A1" />
        <path
            d="M214.437 111.138C214.437 111.138 226.631 111.301 232.046 100.973C237.461 90.6453 249.516 111.138 249.516 111.138C249.516 111.138 251.907 100.515 250.411 97.7765C248.915 95.0379 247.595 87.2977 234.228 86.654C215.366 85.702 214.437 111.138 214.437 111.138Z"
            fill="#788295" />
        <path
            d="M242.378 114.967L242.379 114.966C242.395 114.965 242.416 114.964 242.442 114.961C242.496 114.956 242.569 114.948 242.66 114.936C242.84 114.911 243.09 114.868 243.383 114.793C243.965 114.646 244.747 114.368 245.506 113.844C246.274 113.314 247.015 112.533 247.488 111.402C247.96 110.275 248.137 108.866 247.886 107.122C247.846 106.844 247.691 106.596 247.459 106.438C245.153 104.866 242.155 104.854 239.906 105.149C238.756 105.3 237.741 105.539 237.014 105.74C236.65 105.841 236.355 105.933 236.15 106.001C236.047 106.034 235.966 106.062 235.91 106.082L235.869 106.096C235.805 106.082 235.738 106.073 235.669 106.072L230.906 105.978C230.868 105.977 230.83 105.978 230.793 105.982C230.592 105.917 230.318 105.832 229.986 105.74C229.259 105.539 228.244 105.3 227.094 105.149C224.845 104.854 221.847 104.866 219.541 106.438C219.309 106.596 219.154 106.844 219.114 107.122C218.863 108.866 219.04 110.275 219.512 111.402C219.985 112.533 220.726 113.314 221.494 113.844C222.253 114.368 223.035 114.646 223.617 114.793C223.91 114.868 224.159 114.911 224.34 114.936C224.431 114.948 224.504 114.956 224.558 114.961C224.584 114.964 224.605 114.965 224.621 114.966L224.622 114.967C224.641 114.969 224.667 114.971 224.699 114.974C224.762 114.98 224.849 114.987 224.957 114.992C225.173 115.002 225.474 115.006 225.831 114.984C226.537 114.939 227.501 114.788 228.46 114.341C229.432 113.888 230.398 113.129 231.057 111.893C231.6 110.877 231.904 109.595 231.886 107.998L235.114 108.061C235.104 109.629 235.408 110.89 235.943 111.893C236.602 113.129 237.568 113.888 238.54 114.341C239.499 114.788 240.463 114.939 241.169 114.984C241.526 115.006 241.827 115.002 242.043 114.992C242.151 114.987 242.238 114.98 242.301 114.974C242.333 114.971 242.358 114.969 242.378 114.967Z"
            fill="#2E3E5A" />
        <path
            d="M204 229.002C204 206.697 206.07 159.093 214.349 147.108C222.628 135.124 225.388 133.459 225.733 134.125C226.594 135.454 229.55 138.209 234.5 138.617C239.45 138.209 242.406 135.454 243.267 134.125C243.612 133.459 246.372 135.124 254.651 147.108C262.93 159.093 265 206.697 265 229.002V230H204V229.002Z"
            fill="#FFD964" />
        <path fill-rule="evenodd" clip-rule="evenodd"
            d="M247.664 152.759C249.151 160.106 249.817 167.418 249.731 171.885L246.732 171.828C246.812 167.628 246.178 160.54 244.724 153.354C243.261 146.129 243.017 141.05 240 136.713L240.463 133C243.846 137.863 246.185 145.45 247.664 152.759Z"
            fill="#2E3E5A" />
        <path fill-rule="evenodd" clip-rule="evenodd"
            d="M220.575 151.903C219.088 159.25 218.422 166.562 218.508 171.029L221.507 170.971C221.427 166.772 222.061 159.684 223.515 152.498C224.978 145.273 225.222 141.193 228.239 136.857L228.776 132.144C225.393 137.007 222.054 144.594 220.575 151.903Z"
            fill="#2E3E5A" />
        <path
            d="M230.024 166.449C230.12 166.18 230.375 166 230.662 166H238.567C238.865 166 239.128 166.195 239.215 166.48L240.242 169.865C240.374 170.3 240.049 170.738 239.595 170.738H229.453C228.985 170.738 228.658 170.275 228.815 169.834L230.024 166.449Z"
            fill="#ABB1BD" />
        <rect x="218" y="169.893" width="33" height="20.9846" rx="1.35385" fill="#788295" />
        <rect x="218" y="174.292" width="33" height="13.2" fill="#2E3E5A" />
        <circle cx="234.415" cy="180.384" r="8.8" fill="#2E3E5A" />
        <circle cx="234.415" cy="180.384" r="7.78462" fill="#5A667D" />
        <circle cx="234.415" cy="180.385" r="5.92308" fill="#2E3E5A" />
        <rect x="221.215" y="168.708" width="4.06154" height="1.18462" fill="#2E3E5A" />
        <circle cx="234.416" cy="180.384" r="4.90769" fill="#E4E6EA" />
        <rect x="231.539" y="168.185" width="5.92308" height="1.18462" fill="#5A667D" />
        <path
            d="M309.672 137.949L302.407 104.086C306.459 99.3305 309.201 93.5019 308.747 86.9715C307.422 68.1541 281.228 72.2943 276.133 81.7914C271.038 91.2885 271.642 115.38 278.228 117.077C280.855 117.754 286.449 116.096 292.143 112.664L288.568 137.949H309.672Z"
            fill="#B28B67" />
        <path
            d="M302.637 105.414C303.811 105.17 304.864 104.527 305.617 103.595C306.756 102.329 307.713 100.911 308.461 99.3816C310.304 95.8012 311.319 91.8525 311.43 87.8272C311.448 85.7307 311.015 83.6547 310.161 81.74C309.307 79.8253 308.051 78.1164 306.479 76.7291C302.993 73.635 298.016 72.0022 292.086 72.0022C289.657 71.9721 287.234 72.2385 284.87 72.7955C283.145 73.1982 281.502 73.8933 280.011 74.8507C278.961 75.475 278.074 76.3389 277.421 77.372C276.769 78.405 276.371 79.5778 276.258 80.7943C280.588 81.9843 288.086 82.5618 299.182 82.5618C300.013 82.5618 300.88 82.5618 301.758 82.5525V83.4322L291.206 84.3118L289.448 89.5885C289.581 89.5783 289.72 89.5731 289.859 89.5731C291.098 89.5791 292.296 90.015 293.25 90.8062C294.285 91.6682 295.162 92.7049 295.839 93.8695C296.543 93.3776 297.38 93.1117 298.239 93.107C298.822 93.1119 299.398 93.2348 299.933 93.4682C300.468 93.7017 300.949 94.0409 301.349 94.4655C302.153 95.274 302.614 96.3612 302.637 97.5011C302.695 98.4819 302.477 99.4593 302.006 100.322C301.535 101.184 300.832 101.897 299.975 102.379C300.949 104.288 301.771 105.224 302.637 105.414Z"
            fill="#313E58" />
        <path
            d="M260.572 186.246C259.567 200.737 262.278 233.939 262.278 233.939C264.004 241.256 266.732 248.306 270.386 254.894C271.576 256.23 274.003 257.863 273.668 252.4C273.333 246.937 273.229 241.175 275.12 240.454C277.01 239.733 279.207 243.074 281.77 241.597C283.477 240.612 279.315 235.745 269.282 226.995C269.282 226.995 272.279 194.219 273.668 187.739C275.057 181.26 286.006 151.373 286.006 151.373L267.701 155.74C267.701 155.74 261.577 171.755 260.572 186.246Z"
            fill="#A4805F" />
        <path fill-rule="evenodd" clip-rule="evenodd"
            d="M264.448 162.519C273.586 135.322 288.362 126.355 288.362 126.355L293.099 130.587C293.099 130.587 288.623 147.809 282.275 169.135L282.321 168.902L264.448 162.519Z"
            fill="#CC7A29" />
        <path d="M313.681 214.448L282.32 317.681L267.128 405.474H255.216L271.269 214.448H313.681Z"
            fill="#A4805F" />
        <path
            d="M324.9 214.448C322.77 271.129 325.276 300.366 325.753 305.516C326.23 310.665 332.758 344.056 348.213 407.203L335.52 402.813C311.096 344.898 302.773 314.798 299.972 307.193C297.17 299.588 289.729 268.674 277.65 214.448H324.9Z"
            fill="#B28B67" />
        <path d="M317.848 214.448L304.513 267.045H263.786L269.858 214.448H317.848Z" fill="#708DAF" />
        <path
            d="M325.349 214.448C331.932 234.311 327.849 267.045 327.849 267.045H286.288V214.448H325.349Z"
            fill="#96B7DF" />
        <path
            d="M331.71 220.071H267.294C264.584 220.071 265.095 215.796 265.487 213.645C270.008 188.745 267.294 178.836 287.654 126.473L304.758 123.543C318.905 148.402 331.71 172.784 331.71 220.071Z"
            fill="#E88A2D" />
        <path
            d="M342.301 192.612C341.605 207.121 327.075 239.398 327.075 239.398C324.506 246.463 320.973 253.146 316.573 259.261C315.235 260.449 312.634 261.787 313.605 256.401C314.576 251.014 315.353 245.303 313.56 244.366C311.767 243.429 309.194 246.491 306.822 244.725C305.241 243.547 309.944 239.199 320.931 231.683C320.931 231.683 326.541 198.424 325.919 191.826C325.298 185.229 313.161 154.623 313.161 154.623L327.872 151.107C327.872 151.107 342.997 178.103 342.301 192.612Z"
            fill="#B28B67" />
        <path
            d="M307.678 123.024C307.678 123.024 318.14 129.061 324.689 139.227C331.238 149.392 332.796 156.035 332.796 156.035L311.821 163.004L301.24 124.016L307.678 123.024Z"
            fill="#CC7A29" />
    </g>
    <defs>
        <clipPath>
            <rect width="400" height="320" fill="white" />
        </clipPath>
    </defs>
</svg>