<svg width="400" height="320" viewBox="0 0 400 320" fill="none" xmlns="http://www.w3.org/2000/svg">
    <g clip-path="url(#clip0_144_1828)">
        <path
            d="M10.1187 78.4129C6.52206 79.2203 3.15319 80.8266 0.261719 83.1129C-2.52137 82.4476 -5.42027 82.432 -8.21027 83.0677C-13.1515 84.1892 -17.457 87.2014 -20.2043 91.4588C-22.4611 90.784 -24.8545 90.7064 -27.1503 91.2337C-34.4233 92.8717 -39.1763 99.8967 -37.7673 106.923C-37.4014 108.61 -36.7001 110.206 -35.705 111.617C-34.7098 113.027 -33.4412 114.223 -31.9746 115.133C-30.508 116.043 -28.8732 116.65 -27.1676 116.916C-25.462 117.181 -23.7204 117.102 -22.0463 116.681C-20.6632 116.37 -19.3347 115.853 -18.1053 115.147C-15.8943 117.415 -13.1364 119.076 -10.0972 119.969C-7.05807 120.863 -3.84003 120.958 -0.753235 120.247C-0.106098 120.101 0.533066 119.922 1.16174 119.711C3.78459 121.381 6.7147 122.511 9.78009 123.034C12.8455 123.557 15.9844 123.462 19.0128 122.756C23.9503 121.65 28.4251 119.045 31.8237 115.297C33.342 116.296 35.0479 116.976 36.8374 117.295C38.6269 117.614 40.4626 117.565 42.2327 117.152C49.5047 115.513 54.2588 108.489 52.8488 101.462C52.483 99.7748 51.7818 98.1788 50.7867 96.7684C49.7917 95.358 48.5232 94.1621 47.0566 93.2518C45.59 92.3415 43.9553 91.7353 42.2498 91.4696C40.5443 91.2038 38.8027 91.284 37.1287 91.7049C36.9101 91.7536 36.6937 91.8075 36.4797 91.8668C34.8079 87.675 31.9046 84.0885 28.1529 81.5804C24.4012 79.0723 19.9772 77.7603 15.4647 77.8177C13.6662 77.8177 11.8732 78.0175 10.1187 78.4129Z"
            fill="#C0E1E2" />
        <path
            d="M345.844 90.1844H358.058C375.665 90.1844 389.939 79.4794 389.939 66.2744C389.939 54.6904 378.954 45.0354 364.373 42.8354C363.744 30.1554 352.612 20.0454 338.929 20.0454C324.844 20.0454 313.429 30.7504 313.429 43.9574C313.429 44.0924 313.449 44.2234 313.451 44.3574C302.184 48.0434 294.301 56.4634 294.301 66.2734C294.301 79.4784 308.575 90.1834 326.182 90.1834H334.876"
            fill="#BFE2E2" />
        <path
            d="M352.19 251.411C333.403 244.377 323.085 258.054 323.085 258.054C323.085 258.054 313.559 245.667 302.359 258.337C297.934 254.911 292.754 258.249 287.947 261.973C283.141 265.697 283.132 273.234 283.132 273.234L475.71 271.233C475.71 271.233 458.419 227.005 430.178 239.358C416.799 223.386 392.009 236.716 384.368 244.083C373.844 237.075 367.934 237.18 352.187 251.414"
            fill="#BFE2E2" />
        <path
            d="M148.772 248.756C148.772 248.756 133.416 243.342 119.801 250.435C113.524 244.501 103.392 250.51 103.392 250.51C103.392 250.51 91.0099 238.827 81.3831 247.091C81.3831 247.091 75.3279 238.86 66.5748 244.138C59.0078 239.403 49.9599 237.627 41.1642 239.148C41.1642 239.148 24.7624 226.409 13.6091 236.123C6.06529 225.473 -3.28983 225.344 -6.38298 225.634L-20.2617 256.802L161.053 257.349"
            fill="#BFE2E2" />
        <path
            d="M405.438 285.649H205.888C205.888 285.649 171.424 269.843 159.269 272.573C147.114 275.303 132.698 280.299 115.819 283.573C98.9392 286.847 91.7508 285.654 91.7508 285.654H-11L-9.96421 320H405.438V285.649Z"
            fill="#BFE2E2" />
        <path
            d="M249.303 15.2607C252.26 15.9239 255.03 17.2439 257.408 19.1229C259.696 18.5761 262.079 18.5635 264.373 19.0861C268.435 20.008 271.974 22.4844 274.233 25.9844C276.076 25.442 278.026 25.3751 279.902 25.7903C281.778 26.2054 283.517 27.0888 284.959 28.3583C286.401 29.6278 287.498 31.2419 288.147 33.05C288.796 34.858 288.977 36.801 288.672 38.6977C288.371 40.0844 287.794 41.3963 286.976 42.5557C286.157 43.7151 285.115 44.6982 283.909 45.4466C282.703 46.195 281.36 46.6933 279.958 46.9121C278.556 47.1309 277.124 47.0657 275.748 46.7202C274.61 46.463 273.518 46.0364 272.508 45.4545C270.69 47.32 268.421 48.6856 265.922 49.4198C263.422 50.1539 260.776 50.2316 258.237 49.6457C257.705 49.526 257.18 49.3791 256.663 49.2051C254.507 50.5785 252.098 51.5072 249.578 51.937C247.058 52.3668 244.477 52.2889 241.987 51.708C237.928 50.799 234.25 48.6569 231.456 45.5753C230.208 46.397 228.805 46.956 227.334 47.2181C225.863 47.4803 224.354 47.4401 222.898 47.1001C220.055 46.5015 217.555 44.8215 215.927 42.4149C214.298 40.0084 213.669 37.0635 214.17 34.2014C214.471 32.8148 215.048 31.5029 215.867 30.3437C216.685 29.1844 217.728 28.2016 218.933 27.4533C220.139 26.7051 221.483 26.2068 222.885 25.9881C224.286 25.7693 225.718 25.8345 227.094 26.18C227.274 26.2203 227.452 26.2651 227.627 26.3123C229.002 22.8662 231.388 19.9177 234.473 17.8557C237.557 15.7937 241.194 14.7151 244.904 14.7622C246.384 14.765 247.86 14.9323 249.303 15.2607Z"
            fill="#C0E1E2" />
        <path
            d="M97.8369 59.9771C102.421 48.9107 97.1656 36.2236 86.0992 31.6397C75.0327 27.0558 62.3456 32.311 57.7618 43.3774C53.1779 54.4439 58.4331 67.131 69.4995 71.7149C80.566 76.2988 93.2531 71.0436 97.8369 59.9771Z"
            stroke="#5BB3B3" stroke-width="2" stroke-linecap="round" stroke-linejoin="round" />
        <path d="M77.7979 14.7417V24.5658" stroke="#5BB3B3" stroke-width="2" stroke-linecap="round"
            stroke-linejoin="round" />
        <path d="M77.7979 79.8555V89.6796" stroke="#5BB3B3" stroke-width="2" stroke-linecap="round"
            stroke-linejoin="round" />
        <path d="M51.3037 25.7158L58.2511 32.6632" stroke="#5BB3B3" stroke-width="2"
            stroke-linecap="round" stroke-linejoin="round" />
        <path d="M97.3457 71.7593L104.293 78.7067" stroke="#5BB3B3" stroke-width="2"
            stroke-linecap="round" stroke-linejoin="round" />
        <path d="M115.267 52.3412L105.443 52.3062" stroke="#5BB3B3" stroke-width="2"
            stroke-linecap="round" stroke-linejoin="round" />
        <path d="M50.1532 52.1152L40.3291 52.0801" stroke="#5BB3B3" stroke-width="2"
            stroke-linecap="round" stroke-linejoin="round" />
        <path d="M104.385 25.8081L97.4131 32.7314" stroke="#5BB3B3" stroke-width="2"
            stroke-linecap="round" stroke-linejoin="round" />
        <path d="M58.1834 71.6914L51.2119 78.6147" stroke="#5BB3B3" stroke-width="2"
            stroke-linecap="round" stroke-linejoin="round" />
        <path d="M91.9904 17.5327L88.2695 26.6245" stroke="#5BB3B3" stroke-width="2"
            stroke-linecap="round" stroke-linejoin="round" />
        <path d="M67.3283 77.7969L63.6074 86.8887" stroke="#5BB3B3" stroke-width="2"
            stroke-linecap="round" stroke-linejoin="round" />
        <path d="M63.3125 17.6548L67.1102 26.7159" stroke="#5BB3B3" stroke-width="2"
            stroke-linecap="round" stroke-linejoin="round" />
        <path d="M88.4863 77.7056L92.284 86.7667" stroke="#5BB3B3" stroke-width="2"
            stroke-linecap="round" stroke-linejoin="round" />
        <path d="M112.426 66.5222L103.348 62.7695" stroke="#5BB3B3" stroke-width="2"
            stroke-linecap="round" stroke-linejoin="round" />
        <path d="M52.2486 41.6521L43.1699 37.8994" stroke="#5BB3B3" stroke-width="2"
            stroke-linecap="round" stroke-linejoin="round" />
        <path d="M112.404 37.8442L103.331 41.6112" stroke="#5BB3B3" stroke-width="2"
            stroke-linecap="round" stroke-linejoin="round" />
        <path d="M52.2655 62.811L43.1924 66.578" stroke="#5BB3B3" stroke-width="2"
            stroke-linecap="round" stroke-linejoin="round" />
        <path
            d="M405.096 171.172C390.021 169.842 367.075 160.411 367.075 160.411C367.075 160.411 314.281 139.945 277.014 144.493C239.747 149.041 163.656 180.599 125.084 178.74C125.084 178.74 67.215 141.934 -1.79199 160.411"
            stroke="#5BB3B3" stroke-width="2" stroke-linecap="round" stroke-linejoin="round" />
        <path
            d="M319.86 74.4404C319.86 74.4404 335.801 77.6284 335.801 93.5694C335.801 109.51 335.661 121.732 335.661 121.732"
            stroke="#5BB3B3" stroke-width="2" stroke-linecap="round" stroke-linejoin="round" />
        <path
            d="M361.473 66.5674C361.473 66.5674 345.532 69.7554 345.532 85.6964C345.532 101.637 346.032 116.817 346.032 116.817"
            stroke="#5BB3B3" stroke-width="2" stroke-linecap="round" stroke-linejoin="round" />
        <path d="M354.443 61.7422C354.443 61.7422 348.067 64.9302 344.879 68.1182" stroke="#5BB3B3"
            stroke-width="2" stroke-linecap="round" stroke-linejoin="round" />
        <path d="M303.795 143.183C303.795 143.183 371.195 95.9831 408.003 102.677" stroke="#5BB3B3"
            stroke-width="2" stroke-linecap="round" />
        <path
            d="M199.221 67.5063C244.354 67.5063 280.942 104.891 280.942 151.009C280.942 197.128 244.354 234.512 199.221 234.512C154.088 234.512 117.498 197.12 117.498 151.009C117.498 104.898 154.086 67.5063 199.221 67.5063Z"
            fill="#B3CBE8" />
        <path
            d="M197.445 67.875C226.624 78.55 248.56 182.85 197.445 234.881C152.31 234.881 115.722 197.489 115.722 151.378C115.722 105.267 152.31 67.875 197.445 67.875Z"
            fill="#B3CBE8" />
        <path
            d="M200.094 234.881C188.362 234.881 177.314 232.637 166.997 228.173C156.68 223.71 147.68 217.661 139.973 210.028C132.266 202.394 126.242 193.418 121.852 183.077C117.462 172.736 115.267 161.638 115.267 149.785C115.267 137.932 117.462 127.029 121.852 116.713C126.242 106.396 132.266 97.4448 139.973 89.8109C147.68 82.1769 156.68 76.1771 166.997 71.8113C177.314 67.4456 188.338 65.2505 200.094 65.2505C211.85 65.2505 222.874 67.4456 233.191 71.8113C243.507 76.1771 252.507 82.1769 260.214 89.8109C267.921 97.4448 273.946 106.42 278.336 116.713C282.726 127.005 284.921 138.029 284.921 149.785C284.921 161.541 282.726 172.736 278.336 183.077C273.946 193.418 267.921 202.394 260.214 210.028C252.507 217.661 243.507 223.71 233.191 228.173C222.874 232.637 211.85 234.881 200.094 234.881ZM200.094 228.1C206.313 221.125 211.362 213.881 215.24 206.393C219.118 198.906 222.288 190.272 224.752 180.443H175.485C178.046 190.589 181.265 199.394 185.143 206.881C189.021 214.369 193.996 221.417 200.094 228.076V228.1ZM190.216 227.076C185.314 221.588 180.899 214.71 176.924 206.393C172.948 198.101 169.948 189.443 167.948 180.443H128.266C134.364 193.638 142.583 204.125 152.973 211.881C163.363 219.637 175.777 224.686 190.216 227.076ZM210.216 227.027C223.581 225.1 235.703 220.052 246.605 211.857C257.507 203.662 265.946 193.199 271.921 180.443H232.288C229.654 189.638 226.361 198.345 222.484 206.515C218.581 214.686 214.484 221.515 210.216 227.003V227.027ZM126.096 173.224H166.631C165.924 168.858 165.436 164.76 165.168 160.882C164.9 157.029 164.778 153.322 164.778 149.785C164.778 146.249 164.924 142.395 165.192 138.663C165.461 134.932 165.973 131.005 166.68 126.883H126.096C124.876 130.42 123.974 134.078 123.413 137.907C122.827 141.736 122.559 145.688 122.559 149.785C122.559 153.883 122.852 158.029 123.413 161.907C123.974 165.785 124.876 169.565 126.096 173.199V173.224ZM173.997 173.224H226.288C227.044 168.589 227.557 164.492 227.825 160.882C228.093 157.273 228.239 153.59 228.239 149.809C228.239 146.029 228.093 142.614 227.825 139.102C227.557 135.59 227.044 131.517 226.288 126.908H173.997C173.241 131.542 172.729 135.615 172.46 139.102C172.192 142.614 172.046 146.175 172.046 149.809C172.046 153.443 172.192 157.273 172.46 160.882C172.729 164.492 173.241 168.614 173.997 173.224ZM233.532 173.224H274.116C275.336 169.565 276.238 165.809 276.799 161.931C277.385 158.053 277.653 154.004 277.653 149.809C277.653 145.614 277.36 141.761 276.799 137.932C276.214 134.103 275.336 130.42 274.116 126.908H233.752C234.337 131.81 234.776 136.054 235.069 139.688C235.337 143.322 235.483 146.688 235.483 149.809C235.483 153.395 235.337 157.029 235.044 160.76C234.752 164.492 234.239 168.638 233.532 173.248V173.224ZM232.264 119.639H271.946C266.043 106.396 257.775 95.762 247.19 87.7378C236.605 79.7136 224.191 74.7868 209.996 72.8845C214.898 78.9331 219.264 85.9817 223.093 94.0059C226.922 102.03 229.996 110.566 232.264 119.639ZM175.509 119.639H225.02C222.557 110.225 219.264 101.542 215.118 93.5913C210.972 85.6402 205.972 78.4941 200.118 72.1528C194.484 77.7136 189.728 84.2744 185.85 91.7864C181.972 99.2985 178.533 108.591 175.509 119.639ZM128.291 119.639H168.021C170.241 110.664 173.216 102.225 176.972 94.2742C180.728 86.3232 185.07 79.2258 189.997 72.9332C175.802 74.9576 163.461 79.9087 152.973 87.8353C142.485 95.7376 134.242 106.347 128.266 119.639H128.291Z"
            fill="#E3ECF6" />
        <path
            d="M159.776 323.106V293.758L151.65 277.121L136.36 267.421L123.112 260.414L108.185 241.768L105.209 236.909L97.9517 215.175L94.2637 199.329V195.439L99.2637 197.292V193.954H104.142L108.182 196.372L109.633 198.254H112.504L114.94 199.328L116.856 201.098L118.574 204.866H121.292L123.111 206.193L130.821 225.047L131.575 226.59L151.649 239.304L153.979 239.847L168.42 244.547L178.313 250.536L183.203 257.487C184.425 259.225 188.48 276.533 188.48 276.533L192.327 325.105L159.776 323.106Z"
            fill="#EFC6A1" />
        <path
            d="M160.105 323.057C160.427 314.696 161.374 283.713 149.418 276.072C143.504 271.402 124.995 261.128 124.061 260.506C123.127 259.884 108.185 242.452 106.005 238.093C103.825 233.734 95.4229 206.027 94.7999 201.359C94.1769 196.691 92.9319 193.888 97.5999 196.377C102.268 198.866 105.073 199.177 107.873 206.339C110.673 213.501 115.655 228.752 115.655 228.752L119.703 232.177"
            stroke="#B28B67" stroke-width="3" stroke-linecap="round" stroke-linejoin="round" />
        <path
            d="M156.126 261.13C155.192 260.196 145.853 252.413 141.495 250.857C137.137 249.301 121.571 239.028 120.014 235.292C118.457 231.556 123.385 224.77 128.731 225.641C132.419 226.241 152.39 239.962 152.39 239.962C161.698 241.372 170.508 245.082 178.021 250.757C187.709 258.211 190.194 288.604 190.802 300.574C191.41 312.544 192.594 322.053 192.594 322.053"
            stroke="#B28B67" stroke-width="3" stroke-linecap="round" stroke-linejoin="round" />
        <path
            d="M127.589 227.716C124.684 226.263 120.118 229.791 122.609 233.316C125.1 236.841 130.494 238.716 130.494 238.716L134.436 232.242C132.275 230.558 129.986 229.045 127.589 227.716Z"
            stroke="#B28B67" stroke-width="2" stroke-linecap="round" stroke-linejoin="round" />
        <path
            d="M122.452 228.038C122.452 228.038 113.478 205.303 110.365 199.285C109.393 197.398 107.839 195.873 105.932 194.939C104.026 194.004 101.869 193.709 99.7821 194.096C98.6421 194.396 99.6751 196.696 99.6751 196.696"
            stroke="#B28B67" stroke-width="2.5" stroke-linecap="round" stroke-linejoin="round" />
        <path
            d="M110.365 197.832C112.05 197.923 113.671 198.5 115.034 199.494C116.397 200.488 117.442 201.856 118.043 203.432C120.327 209.032 126.76 225.224 126.76 225.224"
            stroke="#B28B67" stroke-width="2" stroke-linecap="round" stroke-linejoin="round" />
        <path
            d="M118.976 205.209C119.645 204.865 120.418 204.78 121.146 204.972C121.874 205.164 122.505 205.618 122.919 206.247C124.579 208.529 131.427 226.585 131.427 226.585"
            stroke="#B28B67" stroke-width="2" stroke-linecap="round" stroke-linejoin="round" />
        <path
            d="M240.415 323.106V293.758L248.541 277.121L263.831 267.421L277.079 260.414L292.006 241.768L294.982 236.909L302.239 215.175L305.927 199.329V195.439L300.927 197.292V193.954H296.049L292.009 196.372L290.558 198.254H287.687L285.251 199.328L283.335 201.098L281.617 204.866H278.899L277.08 206.193L269.37 225.047L268.616 226.59L248.542 239.304L246.212 239.847L231.771 244.547L221.878 250.536L216.988 257.487C215.766 259.225 211.711 276.533 211.711 276.533L207.864 325.105L240.415 323.106Z"
            fill="#EFC6A1" />
        <path
            d="M240.083 323.057C239.761 314.696 238.814 283.713 250.77 276.072C256.684 271.402 275.193 261.128 276.127 260.506C277.061 259.884 292.003 242.452 294.183 238.093C296.363 233.734 304.766 206.027 305.388 201.359C306.01 196.691 307.256 193.888 302.588 196.377C297.92 198.866 295.115 199.177 292.315 206.339C289.515 213.501 284.533 228.752 284.533 228.752L280.485 232.177"
            stroke="#B28B67" stroke-width="3" stroke-linecap="round" stroke-linejoin="round" />
        <path
            d="M244.062 261.131C244.996 260.197 254.335 252.414 258.693 250.858C263.051 249.302 278.617 239.029 280.174 235.293C281.731 231.557 276.803 224.771 271.458 225.642C267.77 226.243 247.803 239.958 247.803 239.958C238.492 241.369 229.681 245.081 222.168 250.758C212.48 258.212 209.995 288.605 209.387 300.575C208.779 312.545 207.595 322.054 207.595 322.054"
            stroke="#B28B67" stroke-width="3" stroke-linecap="round" stroke-linejoin="round" />
        <path
            d="M272.599 227.716C275.504 226.263 280.07 229.791 277.579 233.316C275.088 236.841 269.694 238.716 269.694 238.716L265.752 232.241C267.913 230.557 270.202 229.044 272.599 227.716Z"
            stroke="#B28B67" stroke-width="2" stroke-linecap="round" stroke-linejoin="round" />
        <path
            d="M277.736 228.038C277.736 228.038 286.709 205.303 289.823 199.285C290.795 197.398 292.349 195.873 294.255 194.939C296.162 194.004 298.318 193.709 300.406 194.096C301.546 194.396 300.513 196.696 300.513 196.696"
            stroke="#B28B67" stroke-width="2.5" stroke-linecap="round" stroke-linejoin="round" />
        <path
            d="M289.824 197.832C288.139 197.923 286.518 198.5 285.155 199.494C283.792 200.488 282.747 201.856 282.146 203.432C279.862 209.032 273.429 225.224 273.429 225.224"
            stroke="#B28B67" stroke-width="2" stroke-linecap="round" stroke-linejoin="round" />
        <path
            d="M281.212 205.21C280.542 204.866 279.769 204.781 279.041 204.973C278.313 205.165 277.682 205.619 277.269 206.248C275.609 208.53 268.761 226.586 268.761 226.586"
            stroke="#B28B67" stroke-width="2" stroke-linecap="round" stroke-linejoin="round" />
        <path
            d="M200.094 193.69V161.425C200.094 161.425 144.187 161.425 152.791 114.122C197.961 114.122 200.094 161.425 200.094 161.425"
            fill="#629D62" />
        <path
            d="M200.094 193.69V161.425M200.094 161.425C200.094 161.425 144.187 161.425 152.791 114.122C197.961 114.122 200.094 161.425 200.094 161.425Z"
            stroke="#629D62" stroke-width="5" stroke-linecap="round" />
        <path d="M158.149 119.499L194.716 156.065" stroke="#A0D1A0" stroke-width="3"
            stroke-miterlimit="10" stroke-linecap="round" />
        <path
            d="M200.094 193.69V161.425C200.094 161.425 256.001 161.425 247.397 114.122C202.226 114.122 200.094 161.425 200.094 161.425"
            fill="#629D62" />
        <path
            d="M200.094 193.69V161.425M200.094 161.425C200.094 161.425 256.001 161.425 247.397 114.122C202.226 114.122 200.094 161.425 200.094 161.425Z"
            stroke="#629D62" stroke-width="5" stroke-linecap="round" />
        <path d="M242.019 119.499L205.471 156.065" stroke="#A0D1A0" stroke-width="3"
            stroke-miterlimit="10" stroke-linecap="round" />
        <path fill-rule="evenodd" clip-rule="evenodd"
            d="M251.409 209.848C237.315 221.034 219.484 227.715 200.093 227.715C180.703 227.715 162.872 221.034 148.778 209.848C161.94 196.771 180.073 188.69 200.094 188.69C220.114 188.69 238.247 196.771 251.409 209.848Z"
            fill="#788295" />
    </g>
    <defs>
        <clipPath>
            <rect width="400" height="320" fill="white" />
        </clipPath>
    </defs>
</svg>