<svg xmlns="http://www.w3.org/2000/svg" xmlns:xlink="http://www.w3.org/1999/xlink" width="400" height="320" viewBox="0 0 400 320">
    <defs>
        <clipPath>
            <rect width="400" height="320" />
        </clipPath>
    </defs>
    <g clip-path="url(#b)">
        <rect width="400" height="320" fill="transparent" />
        <path d="M337.2,167.917H383.54a15.942,15.942,0,0,0,15.9-15.9V150.3a15.947,15.947,0,0,0-9.906-14.709,15.838,15.838,0,0,0,4.965-11.495v-4.3a15.942,15.942,0,0,0-15.9-15.9h-.071a18.877,18.877,0,0,0-35.516,0h-.071a15.942,15.942,0,0,0-15.9,15.9v4.3a15.757,15.757,0,0,0,.287,3" transform="translate(-4 24)" fill="#bfe2e2" />
        <path d="M323.1,177.08h17.379a11.191,11.191,0,0,0,11.158-11.159v-1.206a11.185,11.185,0,0,0-5.845-9.8,13.452,13.452,0,0,0,.115-1.666,13.269,13.269,0,0,0-13.269-13.269c-.137,0-.269.016-.4.02a13.267,13.267,0,1,0-26.445-1.524c0,.131.016.258.02.387a13.21,13.21,0,0,0-11.68,14.7h-1.248a11.191,11.191,0,0,0-11.158,11.158v1.206a11.191,11.191,0,0,0,11.158,11.159h20.909" transform="translate(-4 24)" fill="#bfe2e2" />
        <path d="M80.272,53.214H1a1,1,0,0,1-.829-1.559L6.727,41.93a1,1,0,0,1,.829-.441h72.12a1,1,0,0,1,0,2H8.088L2.88,51.214H80.272a1,1,0,0,1,0,2Z" transform="translate(2 70.407)" fill="#5bb3b3" />
        <path d="M13.108,145.554a1,1,0,0,1-1-1V126.4a14.52,14.52,0,0,1,3.613-9.71,12.478,12.478,0,0,1,3.953-2.988,11.255,11.255,0,0,1,4.87-1.107h1.924a11.255,11.255,0,0,1,4.87,1.107,12.478,12.478,0,0,1,3.953,2.988A14.52,14.52,0,0,1,38.9,126.4v18.033a1,1,0,0,1-2,0V126.4a12.523,12.523,0,0,0-3.105-8.377,9.793,9.793,0,0,0-7.331-3.428H24.544a9.793,9.793,0,0,0-7.331,3.428,12.523,12.523,0,0,0-3.105,8.377v18.154A1,1,0,0,1,13.108,145.554Z" transform="translate(2.703 74.533)" fill="#5bb3b3" />
        <path d="M49.993,145.554a1,1,0,0,1-1-1V126.4a14.52,14.52,0,0,1,3.614-9.71,12.478,12.478,0,0,1,3.953-2.988,11.255,11.255,0,0,1,4.87-1.107h1.924a11.255,11.255,0,0,1,4.87,1.107,12.478,12.478,0,0,1,3.953,2.988,14.52,14.52,0,0,1,3.613,9.71v18.033a1,1,0,0,1-2,0V126.4a12.523,12.523,0,0,0-3.105-8.377,9.793,9.793,0,0,0-7.331-3.428H61.429a9.793,9.793,0,0,0-7.331,3.428,12.523,12.523,0,0,0-3.105,8.377v18.154A1,1,0,0,1,49.993,145.554Z" transform="translate(4.843 74.533)" fill="#5bb3b3" />
        <path d="M27.56,78h0l-14.448-.053a1,1,0,0,1-1-1V68.754a16.1,16.1,0,0,1,.674-5.185,8.894,8.894,0,0,1,2.073-3.555,7.487,7.487,0,0,1,5.478-2.2,7.381,7.381,0,0,1,5.35,2.14,9.044,9.044,0,0,1,2.125,3.574,16.463,16.463,0,0,1,.749,5.217V77a1,1,0,0,1-1,1ZM14.111,75.946l12.448.046V68.746c0-3.324-.788-5.874-2.289-7.377a5.352,5.352,0,0,0-3.935-1.554,5.531,5.531,0,0,0-4.052,1.6c-1.476,1.5-2.227,4.03-2.173,7.313q0,.008,0,.017Z" transform="translate(2.703 71.355)" fill="#5bb3b3" />
        <path d="M50.656,78h0L36.2,77.942a1,1,0,0,1-1-1V68.754a16.1,16.1,0,0,1,.674-5.185,8.894,8.894,0,0,1,2.073-3.555,7.487,7.487,0,0,1,5.478-2.2,7.381,7.381,0,0,1,5.35,2.14,9.044,9.044,0,0,1,2.125,3.574,16.463,16.463,0,0,1,.749,5.217V77a1,1,0,0,1-1,1ZM37.207,75.946l12.448.046V68.746c0-3.324-.788-5.874-2.289-7.377a5.352,5.352,0,0,0-3.935-1.554,5.531,5.531,0,0,0-4.052,1.6c-1.476,1.5-2.227,4.03-2.173,7.313q0,.008,0,.017Z" transform="translate(4.043 71.355)" fill="#5bb3b3" />
        <path d="M74.222,78h0L59.77,77.942a1,1,0,0,1-1-1V68.754a16.1,16.1,0,0,1,.674-5.185,8.894,8.894,0,0,1,2.073-3.555A7.487,7.487,0,0,1,67,57.815a7.381,7.381,0,0,1,5.35,2.14,9.044,9.044,0,0,1,2.125,3.574,16.463,16.463,0,0,1,.749,5.217V77a1,1,0,0,1-1,1ZM60.773,75.946l12.448.046V68.746c0-3.324-.788-5.874-2.289-7.377A5.352,5.352,0,0,0,67,59.815a5.531,5.531,0,0,0-4.052,1.6c-1.476,1.5-2.227,4.03-2.173,7.313q0,.008,0,.017Z" transform="translate(5.41 71.355)" fill="#5bb3b3" />
        <path d="M27.56,104.438h0l-14.448-.053a1,1,0,0,1-1-1V95.2a16.1,16.1,0,0,1,.674-5.185,8.894,8.894,0,0,1,2.073-3.555,7.487,7.487,0,0,1,5.478-2.2,7.381,7.381,0,0,1,5.35,2.14,9.044,9.044,0,0,1,2.125,3.574,16.463,16.463,0,0,1,.749,5.217v8.248a1,1,0,0,1-1,1Zm-13.448-2.049,12.448.046V95.189c0-3.324-.788-5.874-2.289-7.377a5.352,5.352,0,0,0-3.935-1.554,5.531,5.531,0,0,0-4.052,1.6c-1.476,1.5-2.227,4.03-2.173,7.313q0,.008,0,.017Z" transform="translate(2.703 72.889)" fill="#5bb3b3" />
        <path d="M50.656,104.438h0L36.2,104.385a1,1,0,0,1-1-1V95.2a16.1,16.1,0,0,1,.674-5.185,8.894,8.894,0,0,1,2.073-3.555,7.487,7.487,0,0,1,5.478-2.2,7.381,7.381,0,0,1,5.35,2.14,9.044,9.044,0,0,1,2.125,3.574,16.463,16.463,0,0,1,.749,5.217v8.248a1,1,0,0,1-1,1Zm-13.448-2.049,12.448.046V95.189c0-3.324-.788-5.874-2.289-7.377a5.352,5.352,0,0,0-3.935-1.554,5.531,5.531,0,0,0-4.052,1.6c-1.476,1.5-2.227,4.03-2.173,7.313q0,.008,0,.017Z" transform="translate(4.043 72.889)" fill="#5bb3b3" />
        <path d="M74.222,104.438h0l-14.448-.053a1,1,0,0,1-1-1V95.2a16.1,16.1,0,0,1,.674-5.185,8.894,8.894,0,0,1,2.073-3.555A7.487,7.487,0,0,1,67,84.258a7.381,7.381,0,0,1,5.35,2.14,9.044,9.044,0,0,1,2.125,3.574,16.463,16.463,0,0,1,.749,5.217v8.248a1,1,0,0,1-1,1Zm-13.448-2.049,12.448.046V95.189c0-3.324-.788-5.874-2.289-7.377A5.352,5.352,0,0,0,67,86.258a5.531,5.531,0,0,0-4.052,1.6c-1.476,1.5-2.227,4.03-2.173,7.313q0,.008,0,.017Z" transform="translate(5.41 72.889)" fill="#5bb3b3" />
        <path d="M0,96.628a1,1,0,0,1-1-1V0A1,1,0,0,1,0-1,1,1,0,0,1,1,0V95.628A1,1,0,0,1,0,96.628Z" transform="translate(7.125 123.297)" fill="#5bb3b3" />
        <path d="M134.339,152.33a1,1,0,0,1-1-1V30.163L107.584,2.457,80.637,30.577V150.519a1,1,0,0,1-2,0V30.175a1,1,0,0,1,.278-.692L106.873.308a1,1,0,0,1,1.454.011l26.744,28.77a1,1,0,0,1,.268.681V151.33A1,1,0,0,1,134.339,152.33Z" transform="translate(6.563 68)" fill="#5bb3b3" />
        <path d="M31.817,1H0A1,1,0,0,1-1,0,1,1,0,0,1,0-1H31.817a1,1,0,0,1,1,1A1,1,0,0,1,31.817,1Z" transform="translate(92.683 104.658)" fill="#5bb3b3" />
        <path d="M12.817,1H0A1,1,0,0,1-1,0,1,1,0,0,1,0-1H12.817a1,1,0,0,1,1,1A1,1,0,0,1,12.817,1Z" transform="translate(92.683 126.134)" fill="#5bb3b3" />
        <path d="M15.817,1H0A1,1,0,0,1-1,0,1,1,0,0,1,0-1H15.817a1,1,0,0,1,1,1A1,1,0,0,1,15.817,1Z" transform="translate(92.683 149.23)" fill="#5bb3b3" />
        <path d="M20.817,1H0A1,1,0,0,1-1,0,1,1,0,0,1,0-1H20.817a1,1,0,0,1,1,1A1,1,0,0,1,20.817,1Z" transform="translate(92.683 170.706)" fill="#5bb3b3" />
        <path d="M40.926,1H0A1,1,0,0,1-1,0,1,1,0,0,1,0-1H40.926a1,1,0,0,1,1,1A1,1,0,0,1,40.926,1Z" transform="translate(92.683 192.992)" fill="#5bb3b3" />
        <path d="M40.926,1H0A1,1,0,0,1-1,0,1,1,0,0,1,0-1H40.926a1,1,0,0,1,1,1A1,1,0,0,1,40.926,1Z" transform="translate(92.683 214.467)" fill="#5bb3b3" />
        <path d="M244.956,49.953A1,1,0,0,1,244.3,48.2l31.306-26.988a19.1,19.1,0,0,1,6.434-4.031,14.3,14.3,0,0,1,6.861-.835,15.577,15.577,0,0,1,8.022,3.753l10.391,8.758a1,1,0,1,1-1.289,1.529l-10.391-8.758a13.618,13.618,0,0,0-6.993-3.3,12.324,12.324,0,0,0-5.909.729,17.138,17.138,0,0,0-5.729,3.585q-.03.031-.063.059L245.609,49.71A1,1,0,0,1,244.956,49.953Z" transform="translate(30.156 63.944)" fill="#5bb3b3" />
        <path d="M268.739,76.107a1,1,0,0,1-.664-1.748l61.459-54.592a33.715,33.715,0,0,1,4.122-3.155,40.222,40.222,0,0,1,10.821-5.079,30.141,30.141,0,0,1,15.416-.514c6.22,1.459,12.134,5.014,17.578,10.566,22.992,23.452,27.4,27.843,27.444,27.885a1,1,0,0,1-1.41,1.418c-.042-.042-4.449-4.43-27.462-27.9-5.161-5.264-10.734-8.632-16.563-10.009a28.144,28.144,0,0,0-14.378.458,37.754,37.754,0,0,0-10.279,4.8,32.254,32.254,0,0,0-3.928,2.995l-.022.02L269.4,75.855A1,1,0,0,1,268.739,76.107Z" transform="translate(23.536 62.87)" fill="#5bb3b3" />
        <path d="M357.8,139.76a1.134,1.134,0,0,1-.89-.429h0c-.037-.047-3.759-4.7-6.918-6.227a1.136,1.136,0,1,1,.991-2.044c3.625,1.758,7.54,6.65,7.7,6.857a1.136,1.136,0,0,1-.889,1.843Z" transform="translate(-4 24)" fill="#5bb3b3" />
        <path d="M365.948,203.436a1,1,0,0,1-1-1c0-.414-.057-41.493-.057-47.63,0-7.121,4.218-8.325,5.6-8.721a1,1,0,1,1,.549,1.923,5.259,5.259,0,0,0-2.561,1.436c-1.056,1.141-1.591,2.945-1.591,5.362,0,6.136.056,47.213.057,47.628a1,1,0,0,1-1,1Z" transform="translate(-4 24)" fill="#5bb3b3" />
        <path d="M356.637,203.436h-.007a1,1,0,0,1-.993-1.007c0-.4.275-40.019,0-48.512-.028-.882-.042-1.675-.055-2.442-.057-3.267-.091-5.239-1.142-7.169-1.073-1.97-3.315-4.02-7.739-7.076a1,1,0,0,1,1.137-1.646c4.764,3.291,7.108,5.468,8.359,7.765,1.286,2.361,1.328,4.765,1.385,8.091.013.759.027,1.545.055,2.412.275,8.532,0,48.191,0,48.59A1,1,0,0,1,356.637,203.436Z" transform="translate(-4 24)" fill="#5bb3b3" />
        <path d="M313.768,202.031h-.015a1,1,0,0,1-.985-1.015c0-.209.3-21.009,0-28.544q0-.024,0-.047a23.392,23.392,0,0,0-1.09-7.114c-.991-2.939-2.524-4.816-4.555-5.578a1,1,0,0,1,.7-1.873,8.333,8.333,0,0,1,3.67,2.782,13.709,13.709,0,0,1,2.077,4.029,25.057,25.057,0,0,1,1.195,7.743c.3,7.609,0,28.421,0,28.631A1,1,0,0,1,313.768,202.031Z" transform="translate(-4 24)" fill="#5bb3b3" />
        <path d="M322.414,202.031a1,1,0,0,1-1-1V172.469a9.635,9.635,0,0,1,2.017-6.439,8.717,8.717,0,0,1,6.216-2.908,1,1,0,1,1,.166,1.993c-2.881.24-4.827,1.5-5.785,3.733a8.288,8.288,0,0,0-.618,3.5c0,.029,0,.055,0,.084v28.6A1,1,0,0,1,322.414,202.031Z" transform="translate(-4 24)" fill="#5bb3b3" />
        <path d="M316.287,161.626a1,1,0,0,1-.946-.677,10.626,10.626,0,0,0-3.756-5.36,5.777,5.777,0,0,0-2.1-.957,1,1,0,0,1,.293-1.978c.208.031,5.118.833,7.451,7.648a1,1,0,0,1-.946,1.324Z" transform="translate(-4 24)" fill="#5bb3b3" />
        <path d="M0,9.979a1,1,0,0,1-1-1V0A1,1,0,0,1,0-1,1,1,0,0,1,1,0V8.979A1,1,0,0,1,0,9.979Z" transform="translate(316.112 170.501)" fill="#5bb3b3" />
        <path d="M319.281,167.114a1,1,0,0,1-.985-1.179,8.682,8.682,0,0,1,1.485-3.237,9.329,9.329,0,0,1,6.879-3.731,1,1,0,1,1,.2,1.99,7.353,7.353,0,0,0-5.466,2.919,6.763,6.763,0,0,0-1.134,2.417A1,1,0,0,1,319.281,167.114Z" transform="translate(-4 24)" fill="#5bb3b3" />
        <path d="M363.9,145.388a1,1,0,0,1-.665-1.747,10.244,10.244,0,0,1,5.692-2.245,1,1,0,0,1,.142,1.995,8.219,8.219,0,0,0-4.505,1.745A1,1,0,0,1,363.9,145.388Z" transform="translate(-4 24)" fill="#5bb3b3" />
        <rect width="400" height="55" transform="translate(0 265)" fill="#bfe2e2" />
        <path d="M383.256,43.86h0a54.893,54.893,0,0,0-.053-7.621,36.714,36.714,0,0,0-1.047-6.539,15.9,15.9,0,0,0-2.6-5.69,7.054,7.054,0,0,0-5.521-2.906c-.655-.021-1.247-.038-1.845-.038-2.266,0-4.823.237-6.609,1.994a10.578,10.578,0,0,0-7.679-10.4,15.639,15.639,0,0,0-3.917-.49,13.594,13.594,0,0,0-5.352,1.017,7.2,7.2,0,0,0-3.73,3.293,25.554,25.554,0,0,0-7.838-10.664,25.88,25.88,0,0,0-12.1-5.5A24.745,24.745,0,0,0,321.016,0a26.763,26.763,0,0,0-11.11,2.462,25.652,25.652,0,0,0-9.023,6.867,3.748,3.748,0,0,0-.768-2.8,6.455,6.455,0,0,0-5.057-2.341,5.723,5.723,0,0,0-1.738.259,10.447,10.447,0,0,0-4.363,2.894,32.44,32.44,0,0,0-3.3,4.3,8.665,8.665,0,0,0-7.326-3.974,7.919,7.919,0,0,0-2.506.4,8.487,8.487,0,0,0-4.607,3.9v31.6Z" transform="translate(-284.272 210.471)" fill="#bfe2e2" />
        <path d="M271.325,43.86h0a54.893,54.893,0,0,1,.053-7.621,36.714,36.714,0,0,1,1.047-6.539,15.9,15.9,0,0,1,2.6-5.69,7.054,7.054,0,0,1,5.521-2.906c.655-.021,1.247-.038,1.845-.038,2.266,0,4.823.237,6.609,1.994a10.578,10.578,0,0,1,7.679-10.4,15.639,15.639,0,0,1,3.917-.49,13.594,13.594,0,0,1,5.352,1.017,7.2,7.2,0,0,1,3.73,3.293,25.554,25.554,0,0,1,7.838-10.664,25.88,25.88,0,0,1,12.1-5.5A24.745,24.745,0,0,1,333.565,0a26.763,26.763,0,0,1,11.11,2.462A25.652,25.652,0,0,1,353.7,9.329a3.748,3.748,0,0,1,.768-2.8,6.455,6.455,0,0,1,5.057-2.341,5.723,5.723,0,0,1,1.738.259,10.447,10.447,0,0,1,4.363,2.894,32.44,32.44,0,0,1,3.3,4.3,8.665,8.665,0,0,1,7.326-3.974,7.919,7.919,0,0,1,2.506.4,8.487,8.487,0,0,1,4.607,3.9v31.6Z" transform="translate(53.827 197.399)" fill="#bfe2e2" />
        <path d="M945.777,2673.986a23.2,23.2,0,0,1-8.848-3.784,18.585,18.585,0,0,1-7.6.036c-9.174-1.855-15.114-10.063-13.266-18.333s10.784-13.471,19.959-11.615q.879.178,1.718.432a22.985,22.985,0,0,1,16.023-2.453,22.667,22.667,0,0,1,11.5,6.008,13.169,13.169,0,0,1,9.343-1.494c6.526,1.32,10.793,6.979,9.528,12.639s-7.582,9.18-14.11,7.861q-.294-.059-.582-.131c-2.947,6.864-10.456,11.317-18.861,11.317A24.2,24.2,0,0,1,945.777,2673.986Z" transform="translate(-795.351 -2620.985)" fill="#c0e1e2" />
        <path d="M950.576,2674.969h0a24.75,24.75,0,0,1-4.9-.493,23.584,23.584,0,0,1-8.858-3.74,18.9,18.9,0,0,1-3.762.377,19.374,19.374,0,0,1-3.831-.385,18.606,18.606,0,0,1-6.734-2.789,16.947,16.947,0,0,1-4.8-4.847,14.6,14.6,0,0,1,.075-16.353,15.881,15.881,0,0,1,3.8-3.91,18.291,18.291,0,0,1,10.716-3.414,19.37,19.37,0,0,1,3.832.385c.526.106,1.048.235,1.556.382a22.939,22.939,0,0,1,11.287-2.9,24.772,24.772,0,0,1,4.9.493,23.144,23.144,0,0,1,11.477,5.876,13.374,13.374,0,0,1,6.512-1.649,14.421,14.421,0,0,1,2.853.287,13.136,13.136,0,0,1,8.449,5.542,10.041,10.041,0,0,1,1.468,7.7,10.412,10.412,0,0,1-4.235,6.189,13.274,13.274,0,0,1-7.61,2.339,14.429,14.429,0,0,1-2.852-.287l-.194-.041a18.429,18.429,0,0,1-7.417,8.081A22.842,22.842,0,0,1,950.576,2674.969Zm-13.536-5.3.18.127a22.563,22.563,0,0,0,8.657,3.7,23.767,23.767,0,0,0,4.7.473,21.84,21.84,0,0,0,11.221-3.014,17.364,17.364,0,0,0,7.181-8l.167-.39.412.1c.186.046.375.088.561.126a13.413,13.413,0,0,0,2.654.267,12.266,12.266,0,0,0,7.033-2.156,9.29,9.29,0,0,0,3.836-5.591,9.049,9.049,0,0,0-1.331-6.933,12.132,12.132,0,0,0-7.808-5.106,13.439,13.439,0,0,0-2.655-.267,12.32,12.32,0,0,0-6.333,1.7l-.333.2-.276-.273a22.093,22.093,0,0,0-11.245-5.874,23.772,23.772,0,0,0-4.7-.473,21.9,21.9,0,0,0-10.973,2.869l-.188.108-.208-.063c-.543-.164-1.106-.306-1.673-.42a18.386,18.386,0,0,0-3.634-.365,17.284,17.284,0,0,0-10.127,3.222,14.877,14.877,0,0,0-3.567,3.664,13.6,13.6,0,0,0-.064,15.247,15.955,15.955,0,0,0,4.522,4.562,17.619,17.619,0,0,0,6.375,2.639,18.392,18.392,0,0,0,3.633.365,17.887,17.887,0,0,0,3.767-.4Z" transform="translate(-795.351 -2620.985)" fill="rgba(0,0,0,0)" />
        <path d="M963.647,2684.511a24.568,24.568,0,0,1-9.857-4.7,18.634,18.634,0,0,1-8.472.045,19.379,19.379,0,0,1-11.994-8.391,13.611,13.611,0,0,1-6.946.225c-7.273-1.638-12.026-8.663-10.617-15.689a12.875,12.875,0,0,1,15.721-9.758,14.145,14.145,0,0,1,3.941,1.534,18.446,18.446,0,0,1,17.352-5.1,19.258,19.258,0,0,1,1.915.536,23.352,23.352,0,0,1,17.851-3.045,24.525,24.525,0,0,1,12.811,7.459,13.391,13.391,0,0,1,10.409-1.855c7.272,1.639,12.026,8.663,10.616,15.69a12.873,12.873,0,0,1-15.72,9.757q-.328-.073-.649-.162a22.319,22.319,0,0,1-21.015,14.049A24.314,24.314,0,0,1,963.647,2684.511Z" transform="translate(-892.611 -2655.968)" fill="#c0e1e2" />
        <path d="M968.993,2685.61h0a25.128,25.128,0,0,1-15.323-5.255,19,19,0,0,1-4.194.469,19.661,19.661,0,0,1-11.358-3.641,20.014,20.014,0,0,1-5.008-5.133,13.922,13.922,0,0,1-3.663.488,14.61,14.61,0,0,1-12.048-6.388,13.452,13.452,0,0,1-2.129-10.244,12.844,12.844,0,0,1,4.678-7.606,13.731,13.731,0,0,1,8.466-2.9,14.486,14.486,0,0,1,3.177.356,14.654,14.654,0,0,1,3.744,1.4,18.9,18.9,0,0,1,13.281-5.444,19.454,19.454,0,0,1,4.269.478c.582.131,1.165.291,1.736.475a23.518,23.518,0,0,1,12.573-3.6,25.1,25.1,0,0,1,18.239,7.911,13.7,13.7,0,0,1,7.258-2.051,14.606,14.606,0,0,1,12.046,6.388,13.453,13.453,0,0,1,2.128,10.244,12.84,12.84,0,0,1-4.677,7.605,13.729,13.729,0,0,1-8.465,2.9,14.484,14.484,0,0,1-3.178-.356l-.237-.055a22.06,22.06,0,0,1-8.252,10.041A23.474,23.474,0,0,1,968.993,2685.61Zm-15.084-6.34.191.151a24.127,24.127,0,0,0,14.893,5.189,22.477,22.477,0,0,0,12.51-3.746,21.057,21.057,0,0,0,8.038-9.983l.163-.422.436.12c.21.058.42.11.626.156a13.474,13.474,0,0,0,2.959.332,12.723,12.723,0,0,0,7.846-2.683,11.84,11.84,0,0,0,4.315-7.017c1.354-6.751-3.237-13.527-10.236-15.1a13.471,13.471,0,0,0-2.958-.332,12.684,12.684,0,0,0-7.064,2.115l-.359.239-.289-.319a24.1,24.1,0,0,0-17.786-7.894,22.51,22.51,0,0,0-12.234,3.565l-.2.131-.228-.077a18.85,18.85,0,0,0-1.865-.522,18.449,18.449,0,0,0-4.049-.454,17.9,17.9,0,0,0-12.835,5.414l-.271.278-.337-.193a13.638,13.638,0,0,0-3.8-1.479,13.49,13.49,0,0,0-2.957-.332,12.726,12.726,0,0,0-7.848,2.683,11.843,11.843,0,0,0-4.316,7.017c-1.354,6.751,3.238,13.526,10.237,15.1a13.487,13.487,0,0,0,2.959.332,12.892,12.892,0,0,0,3.732-.548l.359-.108.2.315a19.036,19.036,0,0,0,4.954,5.172,18.661,18.661,0,0,0,10.779,3.456,17.982,17.982,0,0,0,4.2-.5Z" transform="translate(-892.611 -2655.968)" fill="rgba(0,0,0,0)" />
        <path d="M-1717.342-3150.837v-29.348l-8.126-16.637-15.29-9.7-13.248-7.007-14.927-18.646-2.976-4.859-7.257-21.734-3.688-15.846v-3.89l5,1.853v-3.338h4.878l4.04,2.418,1.451,1.882h2.871l2.436,1.074,1.916,1.77,1.718,3.768h2.718l1.819,1.327,7.71,18.854.754,1.543,20.074,12.714,2.33.543,14.441,4.7,9.893,5.989,4.89,6.951c1.222,1.738,5.277,19.046,5.277,19.046l3.847,48.572Z" transform="translate(1876.333 3471.477)" fill="#efc6a1" />
        <path d="M67.436,201.53h-.059a1.5,1.5,0,0,1-1.441-1.557,150.725,150.725,0,0,0-.729-23.519,58.019,58.019,0,0,0-3.1-13.479c-1.608-4.162-3.683-7.078-6.168-8.666q-.063-.04-.122-.087c-4.6-3.634-17.214-10.862-22.6-13.949-1.724-.988-2.433-1.4-2.66-1.546-.2-.131-.527-.35-3.206-3.411-1.689-1.93-3.758-4.366-5.679-6.685-3.048-3.681-8.36-10.251-9.681-12.894-1.233-2.468-4.053-11.166-6.28-18.484C3.6,90.305,1,81.234.643,78.531c-.094-.7-.2-1.356-.3-1.987A21.889,21.889,0,0,1,0,73.919a2.94,2.94,0,0,1,1-2.573c1.258-.9,2.971-.205,4.635.682.7.376,1.367.7,2.007,1.015a18.167,18.167,0,0,1,4.907,3.1A17.568,17.568,0,0,1,16.6,82.766c2.53,6.464,6.866,19.615,7.679,22.089L28,108.006a1.5,1.5,0,1,1-1.938,2.29l-4.048-3.425a1.5,1.5,0,0,1-.457-.68c-.05-.152-5-15.295-7.753-22.332a15.023,15.023,0,0,0-3.327-5.547,15.706,15.706,0,0,0-4.16-2.578c-.662-.325-1.347-.662-2.1-1.061A11.854,11.854,0,0,0,3.019,74.1c.05.56.178,1.333.28,1.956s.218,1.327.318,2.077c.269,2.013,2.311,9.516,4.968,18.245,2.711,8.909,5.16,16.149,6.093,18.016.852,1.7,4.162,6.095,9.081,12.048,4.23,5.119,7.863,9.229,8.509,9.816.27.167,1.283.747,2.443,1.412,5.421,3.107,18.088,10.367,22.909,14.152,3.006,1.946,5.457,5.334,7.286,10.072a60.957,60.957,0,0,1,3.278,14.188,153.617,153.617,0,0,1,.75,24.006A1.5,1.5,0,0,1,67.436,201.53Z" transform="translate(91.885 120.561)" fill="#b28b67" />
        <path d="M92.261,191.493a1.5,1.5,0,0,1-1.487-1.315c-.012-.1-1.2-9.7-1.8-21.589a206.244,206.244,0,0,0-2.961-26.4,78.294,78.294,0,0,0-3.719-13.7c-1.629-4.147-3.485-7.042-5.517-8.6a51.778,51.778,0,0,0-8.822-5.444,57.64,57.64,0,0,0-8-3.187A47.166,47.166,0,0,0,51.9,109.4a1.5,1.5,0,0,1-.688-.255c-.05-.034-5.041-3.46-10.414-6.913-9.873-6.345-12.169-7.087-12.637-7.164-2.3-.374-4.443,1.17-5.684,2.74-1.322,1.672-1.9,3.668-1.407,4.853.455,1.091,3.464,3.972,9.163,7.946,4.52,3.152,9.437,6.068,11.438,6.783,4.729,1.689,14.286,9.725,15.187,10.625a1.5,1.5,0,0,1-2.121,2.121c-.414-.414-2.911-2.534-5.873-4.766-3.624-2.73-6.537-4.561-8.2-5.156-2.288-.817-7.283-3.756-12.145-7.147a80,80,0,0,1-6.413-4.907c-2.794-2.42-3.508-3.639-3.8-4.346a6.3,6.3,0,0,1-.14-4.065,10.7,10.7,0,0,1,1.962-3.8,11.026,11.026,0,0,1,3.662-3.033A7.968,7.968,0,0,1,28.64,92.1c1.122.183,3.77,1.17,13.782,7.6,4.652,2.99,9.018,5.959,10.183,6.754a51.887,51.887,0,0,1,8.163,1.9,60.67,60.67,0,0,1,8.451,3.355,54.8,54.8,0,0,1,9.384,5.786c2.469,1.9,4.649,5.226,6.48,9.886a81.229,81.229,0,0,1,3.874,14.238,209.309,209.309,0,0,1,3.01,26.806c.6,11.779,1.771,21.276,1.783,21.37a1.5,1.5,0,0,1-1.3,1.674A1.516,1.516,0,0,1,92.261,191.493Z" transform="translate(99.547 129.591)" fill="#b28b67" />
        <path d="M25.136,93.779h0a4.248,4.248,0,0,1,1.918.441,52.948,52.948,0,0,1,7.014,4.63,1,1,0,0,1,.239,1.309l-3.942,6.474a1,1,0,0,1-1.181.425c-.233-.081-5.731-2.015-8.376-5.765A4.362,4.362,0,0,1,20.4,96.65,5.527,5.527,0,0,1,25.136,93.779Zm6.994,6.111a46.669,46.669,0,0,0-5.97-3.881,2.267,2.267,0,0,0-1.023-.23h0a3.5,3.5,0,0,0-2.959,1.791,2.349,2.349,0,0,0,.267,2.571c1.745,2.474,5.147,4.1,6.651,4.735Z" transform="translate(100.197 130.136)" fill="#b28b67" />
        <path d="M28.26,106.715a1.25,1.25,0,0,1-1.163-.791c-.089-.227-8.986-22.744-12.035-28.638a8.194,8.194,0,0,0-5.254-4.334,9.446,9.446,0,0,0-3.481-.292,4.659,4.659,0,0,0,.3.954,1.25,1.25,0,1,1-2.281,1.023A7.487,7.487,0,0,1,3.98,73.6a3.233,3.233,0,0,1,.046-2.26A1.892,1.892,0,0,1,5.27,70.314a11.1,11.1,0,0,1,5.2.228,10.741,10.741,0,0,1,6.81,5.6c3.107,6.006,11.772,27.938,12.14,28.868a1.251,1.251,0,0,1-1.162,1.709Z" transform="translate(93.407 120.107)" fill="#b28b67" />
        <path d="M29.234,102.485a1,1,0,0,1-.93-.631c-.064-.162-6.457-16.248-8.713-21.784a7.7,7.7,0,0,0-4.09-4.329,7.549,7.549,0,0,0-2.666-.651,1,1,0,1,1,0-2,9.386,9.386,0,0,1,3.377.781,9.726,9.726,0,0,1,5.227,5.445c2.259,5.544,8.655,21.638,8.72,21.8a1,1,0,0,1-.929,1.37Z" transform="translate(96.741 121.276)" fill="#b28b67" />
        <path d="M31.32,101.733a1,1,0,0,1-.935-.646c-2.734-7.208-7.222-18.51-8.382-20.1a2.015,2.015,0,0,0-1.753-.964,2.373,2.373,0,0,0-.9.216,1,1,0,1,1-.958-1.756,4.309,4.309,0,0,1,1.795-.459,3.96,3.96,0,0,1,3.437,1.787c1.69,2.324,7.928,18.711,8.634,20.572a1,1,0,0,1-.935,1.355Z" transform="translate(99.323 123.386)" fill="#b28b67" />
        <g transform="translate(206.809 191.467)">
            <path d="M-1750.3-3150.837v-29.348l8.126-16.637,15.29-9.7,13.248-7.007,14.927-18.646,2.976-4.859,7.257-21.734,3.688-15.846v-3.89l-5,1.853v-3.338h-4.878l-4.04,2.418-1.451,1.882h-2.871l-2.436,1.074-1.916,1.77-1.718,3.768h-2.718l-1.819,1.327-7.71,18.854-.754,1.543-20.074,12.714-2.33.543-14.441,4.7-9.893,5.989-4.89,6.951c-1.222,1.738-5.277,19.046-5.277,19.046l-3.847,48.572Z" transform="translate(1783.121 3280.01)" fill="#efc6a1" />
            <path d="M1.659,201.53a1.5,1.5,0,0,1-1.5-1.442,153.616,153.616,0,0,1,.75-24.006,60.957,60.957,0,0,1,3.278-14.188c1.83-4.737,4.281-8.125,7.287-10.072,4.821-3.785,17.488-11.045,22.909-14.152,1.16-.665,2.172-1.245,2.443-1.412.647-.587,4.279-4.7,8.509-9.816,4.92-5.953,8.23-10.344,9.081-12.048.933-1.866,3.381-9.106,6.093-18.016,2.656-8.729,4.7-16.231,4.968-18.245.1-.749.216-1.455.318-2.077s.229-1.4.28-1.956a11.856,11.856,0,0,0-1.206.573c-.748.4-1.433.736-2.1,1.061a15.706,15.706,0,0,0-4.16,2.578,15.022,15.022,0,0,0-3.327,5.546c-2.754,7.038-7.7,22.18-7.753,22.332a1.5,1.5,0,0,1-.457.68L43.03,110.3a1.5,1.5,0,0,1-1.938-2.29l3.723-3.151c.812-2.474,5.149-15.625,7.679-22.089a17.568,17.568,0,0,1,4.051-6.625,18.167,18.167,0,0,1,4.907-3.1c.64-.314,1.3-.64,2.006-1.015,1.664-.887,3.377-1.584,4.635-.682a2.94,2.94,0,0,1,1,2.573,21.89,21.89,0,0,1-.335,2.625c-.1.631-.211,1.283-.3,1.987-.361,2.7-2.957,11.775-5.072,18.722-2.227,7.318-5.046,16.016-6.28,18.484-1.322,2.643-6.633,9.213-9.681,12.894-1.92,2.319-3.99,4.755-5.679,6.685-2.679,3.061-3.009,3.281-3.207,3.412-.225.15-.934.557-2.658,1.546-5.385,3.087-18,10.315-22.6,13.949q-.059.046-.122.087c-2.485,1.588-4.56,4.5-6.168,8.666a58.019,58.019,0,0,0-3.1,13.479,150.725,150.725,0,0,0-.729,23.519,1.5,1.5,0,0,1-1.441,1.557Z" transform="translate(30.829 -70.906)" fill="#b28b67" />
            <path d="M19.393,191.493a1.515,1.515,0,0,1-.187-.012,1.5,1.5,0,0,1-1.3-1.674c.012-.095,1.184-9.6,1.783-21.37a209.308,209.308,0,0,1,3.01-26.806,81.229,81.229,0,0,1,3.874-14.238c1.831-4.66,4.011-7.986,6.48-9.886a54.8,54.8,0,0,1,9.384-5.786,60.67,60.67,0,0,1,8.451-3.355,51.889,51.889,0,0,1,8.163-1.9c1.165-.8,5.531-3.764,10.183-6.754,10.012-6.434,12.66-7.422,13.782-7.6a7.968,7.968,0,0,1,4.859.808,11.026,11.026,0,0,1,3.662,3.033,10.7,10.7,0,0,1,1.962,3.8,6.3,6.3,0,0,1-.139,4.065c-.615,1.476-2.465,3.187-3.8,4.346a80,80,0,0,1-6.413,4.907c-4.862,3.391-9.856,6.33-12.145,7.147-1.664.595-4.577,2.426-8.2,5.156-2.962,2.231-5.46,4.352-5.873,4.766a1.5,1.5,0,1,1-2.121-2.121c.9-.9,10.458-8.936,15.187-10.625,2-.715,6.918-3.631,11.438-6.783,5.7-3.974,8.708-6.855,9.163-7.946.494-1.185-.085-3.181-1.407-4.853-1.241-1.57-3.386-3.115-5.684-2.74-.468.076-2.764.819-12.637,7.164-5.372,3.453-10.364,6.879-10.414,6.913a1.5,1.5,0,0,1-.689.255,47.171,47.171,0,0,0-8.054,1.858,57.643,57.643,0,0,0-8,3.187,51.778,51.778,0,0,0-8.822,5.444c-2.032,1.563-3.888,4.458-5.517,8.6a78.293,78.293,0,0,0-3.719,13.7,206.243,206.243,0,0,0-2.961,26.4c-.6,11.887-1.79,21.493-1.8,21.589A1.5,1.5,0,0,1,19.393,191.493Z" transform="translate(-19.391 -61.875)" fill="#b28b67" />
            <path d="M29.227,93.779a5.527,5.527,0,0,1,4.736,2.871,4.362,4.362,0,0,1-.409,4.644c-2.644,3.749-8.142,5.684-8.375,5.764A1,1,0,0,1,24,106.633l-3.942-6.474a1,1,0,0,1,.239-1.309,52.947,52.947,0,0,1,7.014-4.63A4.247,4.247,0,0,1,29.227,93.779Zm-3.958,11.1c1.5-.63,4.906-2.261,6.651-4.735a2.349,2.349,0,0,0,.267-2.571,3.5,3.5,0,0,0-2.96-1.791,2.266,2.266,0,0,0-1.023.23,46.622,46.622,0,0,0-5.971,3.881Z" transform="translate(37.248 -61.331)" fill="#b28b67" />
            <path d="M5.053,106.715a1.251,1.251,0,0,1-1.162-1.709c.367-.931,9.033-22.863,12.14-28.869a10.741,10.741,0,0,1,6.81-5.6,11.1,11.1,0,0,1,5.2-.228,1.892,1.892,0,0,1,1.244,1.027,3.233,3.233,0,0,1,.046,2.26,7.49,7.49,0,0,1-.362,1.036,1.25,1.25,0,0,1-2.281-1.023,4.552,4.552,0,0,0,.3-.954,9.444,9.444,0,0,0-3.482.292,8.193,8.193,0,0,0-5.253,4.333C15.2,83.18,6.306,105.7,6.216,105.924A1.25,1.25,0,0,1,5.053,106.715Z" transform="translate(65.088 -71.36)" fill="#b28b67" />
            <path d="M12.839,102.485a1,1,0,0,1-.929-1.37c.064-.162,6.461-16.256,8.72-21.8a9.726,9.726,0,0,1,5.227-5.444,9.386,9.386,0,0,1,3.377-.781,1,1,0,0,1,0,2,7.561,7.561,0,0,0-2.665.651,7.7,7.7,0,0,0-4.09,4.329c-2.256,5.536-8.649,21.622-8.713,21.784A1,1,0,0,1,12.839,102.485Z" transform="translate(52.996 -70.191)" fill="#b28b67" />
            <path d="M18.868,101.733a1,1,0,0,1-.935-1.355c.706-1.861,6.945-18.248,8.634-20.572A3.959,3.959,0,0,1,30,78.02a4.309,4.309,0,0,1,1.795.459l-.958,1.756.009,0a2.371,2.371,0,0,0-.973-.222,2.026,2.026,0,0,0-1.691.965c-1.16,1.595-5.648,12.9-8.382,20.1A1,1,0,0,1,18.868,101.733Z" transform="translate(42.299 -68.08)" fill="#b28b67" />
        </g>
        <path d="M123.382,10.807c-.06,1.715-7.639,8.8-4.712,9.254,22.626,13.7,21.188,15.225,24.068,8.435,5.75-12.893,2.319-47.567,12.485-10.087,4.46-6.206,7.123,6.89,6.647,9.534,4.433.7,1.2,5.943,3.416,9.185,8.359,5.972,12,5.672,14.981,16.4,2.238-.553,3.865-.261,4.3,2.55.889,4.3,8.1,7.492,9.069,11.486,10.023,31.054-10.358,28.246-13.279,52.563-2.156,1.586-4.793-.263-4.73.373-11.138,6.419-12.755,3.348-17.362,1.944-6.016,6.482-14.1-2.582-15.706-.391-7.649-2.019-4.057-12.716-9.837-11.2-.792-3.824-2.956-4.686-2.956-4.686-2.672,6.615-2.567-2.829-1.136-4.944-3.918-2.238-7.894,13.594-11.393,1.975-8.13-17.258-41.651-7.525-50.9.447-21.22-2.316-17.484,8.02-30.755,3.544-4.042-2.269-3.537-4.27-3.114-5.052,4.956-4.089.228-10.239-1.79-15.967-.533-7.947-2.777-4.7-3.834-10.528-3.665-9.058,2.509-2.12.271-8.953C17.427,48.237,41.468,47.125,49.836,41.946c6.353,2.427,9.853-5.6,12.935-8.4-2.819-3.34.894-5.065,2.393-6.2,1.147,4.517,3.432,5.737,3.377,1.849-1.247-6.648,3.526-1.415,3.127-2.788-1.82-4.3,4.181-6.792,6.966-9.011C85.187,12.014,85,20.912,92.425,20.43c1.8.04,1.485-1,.773-2.947C98.214-2.423,122.507,7.4,123.382,10.807" transform="translate(87.317 63.556)" fill="#85cb85" />
        <path d="M107.8,84.846c-.463-3.6,7.3,2.595,14.9-.891,2.969,4.935-4.978,13.9-8.793,11.748-3.868-.955-4.7-9.119-6.1-10.857" transform="translate(138.209 113.986)" fill="#85cb85" />
        <path d="M115.211,96.531a3.137,3.137,0,0,1-1.495-.359c-2.823-.752-4.067-4.692-5.067-7.862a12.764,12.764,0,0,0-1.239-3.149l-.089-.11-.018-.14a1.563,1.563,0,0,1,.288-1.293,1.5,1.5,0,0,1,1.2-.439,12.97,12.97,0,0,1,2.69.488,24.785,24.785,0,0,0,5.917.9,11.958,11.958,0,0,0,5.091-1.061l.406-.186.23.383c1.138,1.891.914,4.526-.614,7.229a13.742,13.742,0,0,1-3.319,3.914A6.687,6.687,0,0,1,115.211,96.531Zm-6.929-11.873a13.971,13.971,0,0,1,1.32,3.351c.884,2.8,2.095,6.635,4.419,7.209l.066.016.059.034a2.138,2.138,0,0,0,1.064.263c1.988,0,4.812-2.239,6.427-5.1,1.239-2.192,1.531-4.288.83-5.835a13.043,13.043,0,0,1-5.074.962,25.609,25.609,0,0,1-6.153-.925,12.845,12.845,0,0,0-2.454-.46c-.324,0-.42.07-.446.1S108.264,84.39,108.282,84.658Z" transform="translate(138.209 113.986)" fill="#629d62" />
        <path d="M107.8,84.846c-.463-3.6,7.3,2.595,14.9-.891,2.969,4.935-4.978,13.9-8.793,11.748C110.033,94.748,109.2,86.584,107.8,84.846Z" transform="translate(138.209 113.986)" fill="#85cb85" />
        <path d="M108.788,82.178a13.465,13.465,0,0,1,2.926.516,23.969,23.969,0,0,0,5.681.868,10.98,10.98,0,0,0,4.674-.97,1.5,1.5,0,0,1,1.911.59c1.329,2.209,1.11,5.211-.6,8.236a14.765,14.765,0,0,1-3.567,4.2,7.649,7.649,0,0,1-4.6,1.907,4.142,4.142,0,0,1-1.862-.423,6.518,6.518,0,0,1-3.781-3.59,30.267,30.267,0,0,1-1.873-4.907,14.7,14.7,0,0,0-1.063-2.822,1.5,1.5,0,0,1-.321-.751,2.529,2.529,0,0,1,.529-2.081A2.467,2.467,0,0,1,108.788,82.178Zm8.607,4.384a26.822,26.822,0,0,1-6.389-.953c-.45-.109-.887-.215-1.268-.295.275.675.53,1.482.818,2.393.767,2.429,1.926,6.1,3.705,6.54a1.5,1.5,0,0,1,.377.15,1.138,1.138,0,0,0,.573.134,4.948,4.948,0,0,0,2.735-1.256,11.7,11.7,0,0,0,2.822-3.333A6.451,6.451,0,0,0,121.8,85.9,14.56,14.56,0,0,1,117.395,86.562Z" transform="translate(138.209 113.986)" fill="#313e58" />
        <path d="M65.735,87.709a1,1,0,0,1-1-1V13.143a1,1,0,0,1,2,0V86.709A1,1,0,0,1,65.735,87.709Z" transform="translate(112.407 70.7)" fill="#629d62" />
        <path d="M117.47,97.37a1,1,0,0,1-1-1V44.343H65.735a1,1,0,0,1,0-2H117.47a1,1,0,0,1,1,1V96.37A1,1,0,0,1,117.47,97.37Z" transform="translate(112.407 89.233)" fill="#629d62" />
        <path d="M135.686,81.081a1,1,0,0,1-.339-.059,22.642,22.642,0,0,1-5.8-2.772,7.865,7.865,0,0,1-2.2-2.587c-.157-.263-.319-.535-.507-.816,0-.005-.567-.689-4.615-.511-2.438.107-5.078.478-6.347.656a5.514,5.514,0,0,1-1.027.111c-.614-.04-2.553-.62-7.186-5.136a12.853,12.853,0,0,0-6.387-3.3,14.226,14.226,0,0,0-3.422-.341,1,1,0,0,1-.121-2,15.885,15.885,0,0,1,3.9.368,15.038,15.038,0,0,1,7.428,3.835c3.934,3.834,5.606,4.472,5.907,4.562.135-.017.387-.052.633-.086,8.067-1.132,11.805-.921,12.9.727.215.322.39.616.559.9a5.878,5.878,0,0,0,1.681,2.011,21.265,21.265,0,0,0,5.281,2.491,1,1,0,0,1-.339,1.941Z" transform="translate(132.082 102.722)" fill="#629d62" />
        <path d="M142.789,53.908a1,1,0,0,1-.668-.256A6.48,6.48,0,0,0,135.8,51.91a7.854,7.854,0,0,0-2.894,1.544.991.991,0,0,1-.679.266H97.795a1,1,0,0,1,0-2h34.066a9.991,9.991,0,0,1,3.31-1.711,8.3,8.3,0,0,1,7.89,1.814,1.98,1.98,0,0,0,.642-.233c.014-.028.04-.091.058-.138a3.1,3.1,0,0,1,1.41-1.632c1.926-1.214,5.87-1.438,6.313-1.46a1,1,0,1,1,.1,2c-1.06.052-4.087.362-5.344,1.154a1.188,1.188,0,0,0-.62.683c-.346.864-.829,1.338-2.636,1.694A1,1,0,0,1,142.789,53.908Z" transform="translate(132.082 92.926)" fill="#629d62" />
        <path d="M0,42.451a1,1,0,0,1-1-1V0A1,1,0,0,1,0-1,1,1,0,0,1,1,0V41.451A1,1,0,0,1,0,42.451Z" transform="translate(217.671 91.125)" fill="#629d62" />
        <path d="M148.771,0c1.637,0,2.673,1.82,3.816,4.756.938,2.412,2.066,5.989,3.433,10.89a3.236,3.236,0,0,1,1.52-.389,3.6,3.6,0,0,1,2.789,1.478,15.229,15.229,0,0,1,2.518,6,23.366,23.366,0,0,1,.574,4.1,3.769,3.769,0,0,1,2.1,2.186,9.509,9.509,0,0,1,.386,3.514,7.277,7.277,0,0,0,.495,3.548c1.746,1.235,3.289,2.2,4.659,3.056,4.846,3.029,7.87,4.917,10.273,12.683.19-.017.373-.025.55-.025a3.884,3.884,0,0,1,2.778,1.023,5.047,5.047,0,0,1,1.385,2.985c.375,1.722,2.324,3.477,4.209,5.174,2.079,1.873,4.228,3.808,4.828,6.172,2.807,8.715,3.488,15.427,2.142,21.117-1.22,5.157-3.9,8.749-6.735,12.551-3.691,4.948-7.508,10.064-8.64,19.485a1.5,1.5,0,0,1-.6,1.029,4.932,4.932,0,0,1-2.989.953,8.382,8.382,0,0,1-2.158-.33c-4.8,2.738-8.231,3.962-11.1,3.962a12.333,12.333,0,0,1-5.064-1.247c-.414-.173-.837-.349-1.278-.513a8.189,8.189,0,0,1-5.6,2.162c-2.729,0-5.257-1.194-7.289-2.154a14.972,14.972,0,0,0-2.273-.944,1.5,1.5,0,0,1-1.321.28,8.064,8.064,0,0,1-4.917-3.59,17.374,17.374,0,0,1-1.838-4.643c-.708-2.493-1.021-3.067-1.677-3.067a2.607,2.607,0,0,0-.643.1,1.5,1.5,0,0,1-1.848-1.147,7.083,7.083,0,0,0-1.005-2.556,2.4,2.4,0,0,1-2,1.381,1.875,1.875,0,0,1-1.651-1.054,8.98,8.98,0,0,1-.39-4.249c.025-.267.061-.587.112-.936-.4.457-.817.985-1.223,1.5-1.519,1.933-2.954,3.758-4.891,3.758a3.331,3.331,0,0,1-2.719-1.575,12.56,12.56,0,0,1-1.654-3.687,13.693,13.693,0,0,0-6.955-6.619,26.611,26.611,0,0,0-10.94-2.021A57.708,57.708,0,0,0,80.1,98.267c-5.392,1.82-10.174,4.251-12.79,6.505a1.5,1.5,0,0,1-1.142.355,52.582,52.582,0,0,0-5.648-.334,23.048,23.048,0,0,0-12.257,2.962,13.9,13.9,0,0,1-6.886,2.062A19.9,19.9,0,0,1,35.1,108.6a1.5,1.5,0,0,1-.255-.113c-2.07-1.162-3.384-2.464-3.9-3.871a3.843,3.843,0,0,1,.2-3.2,1.5,1.5,0,0,1,.365-.444,4.232,4.232,0,0,0,1.586-4.2,23.894,23.894,0,0,0-2.167-6.119c-.588-1.305-1.2-2.655-1.668-4a1.5,1.5,0,0,1-.082-.4c-.263-3.926-.891-4.646-1.618-5.479a8.529,8.529,0,0,1-2.166-4.727c-1.264-3.152-1.525-4.758-.967-5.9a2.536,2.536,0,0,1,1.679-1.3,8.06,8.06,0,0,0-.382-1.594,20.386,20.386,0,0,1-2.266-6.676,11.115,11.115,0,0,1,.63-5.593C26.515,48.9,34.242,46.26,41.06,43.931a43.574,43.574,0,0,0,7.987-3.26,1.5,1.5,0,0,1,1.325-.126,4.992,4.992,0,0,0,1.776.352c2.788,0,5.035-2.893,7.018-5.446.571-.736,1.122-1.445,1.672-2.066a4.235,4.235,0,0,1-.559-2.665c.282-2.05,2.133-3.306,3.357-4.137.235-.159.456-.31.621-.435a1.5,1.5,0,0,1,2.361.826,8.365,8.365,0,0,0,.541,1.592q.051-.073.107-.162a19.643,19.643,0,0,1,2.479-3.434,5.989,5.989,0,0,1,2.072-4.658,25.9,25.9,0,0,1,4.818-3.451c.424-.257.825-.5,1.2-.737a8.742,8.742,0,0,1,4.56-1.619c2.045,0,3.383,1.184,4.563,2.228,1.288,1.14,2.505,2.217,4.834,2.217.106,0,.215,0,.325-.007-.1-.333-.243-.711-.329-.946a1.5,1.5,0,0,1-.046-.881c1.176-4.666,3.447-8.174,6.749-10.425a17.463,17.463,0,0,1,10.034-2.829,28.518,28.518,0,0,1,10.562,2.155c1.928.8,5.237,2.43,5.747,4.417a1.5,1.5,0,0,1,.046.425c-.038,1.1-.95,2.312-2.694,4.546-.668.856-1.359,1.741-1.889,2.524a9.846,9.846,0,0,0-.607,1c4.88,2.959,8.568,5.3,11.542,7.2,2.7,1.717,4.649,2.957,6.1,3.765a6.575,6.575,0,0,0,2.486,1.037.294.294,0,0,0,.049,0,1.587,1.587,0,0,0,.385-.531c.259-.466.532-1.115.878-1.938l.229-.542.011-.025c1.889-4.236,2.774-11.2,3.485-16.8.356-2.8.664-5.224,1.049-7.047a11.3,11.3,0,0,1,.726-2.408A2.357,2.357,0,0,1,148.769,0Zm6.452,19.908a1.5,1.5,0,0,1-1.448-1.107c-1.444-5.322-2.621-9.223-3.6-11.927a28.63,28.63,0,0,0-1.187-2.883c-.1.384-.2.88-.32,1.522-.291,1.616-.558,3.719-.841,5.947-.735,5.789-1.65,12.992-3.715,17.632l-.221.523a15.752,15.752,0,0,1-1.373,2.8,3.192,3.192,0,0,1-2.7,1.509c-1.907,0-4.333-1.543-10.194-5.271-2.969-1.888-6.654-4.232-11.525-7.185a2.141,2.141,0,0,1-1.446-1.265c-.645-1.632.784-3.588,3.17-6.644.625-.8,1.51-1.933,1.9-2.584A13.386,13.386,0,0,0,117.6,8.654a25.534,25.534,0,0,0-9.078-1.791,14.534,14.534,0,0,0-8.344,2.307,14.031,14.031,0,0,0-5.415,8.242c.46,1.29.793,2.5.087,3.509a2.654,2.654,0,0,1-2.331,1.01h-.064c-.225.013-.449.02-.667.02a9.583,9.583,0,0,1-6.823-2.971c-1.064-.942-1.708-1.475-2.574-1.474a6.1,6.1,0,0,0-2.958,1.155c-.4.251-.81.5-1.246.765a23.785,23.785,0,0,0-4.257,3.012,3.1,3.1,0,0,0-1.2,2.321,2.413,2.413,0,0,1,.415,1.859,1.5,1.5,0,0,1-1.912,1.224c-.333.447-.8,1.123-1.423,2.139a3.279,3.279,0,0,1-2.743,1.9,2.638,2.638,0,0,1-2.2-1.293,5.631,5.631,0,0,1-.481-.858,2.717,2.717,0,0,0-1.14,1.4,2.218,2.218,0,0,0,.667,1.45,1.5,1.5,0,0,1-.138,2.078,22.6,22.6,0,0,0-2.245,2.635C59.249,40.234,56.4,43.9,52.148,43.9a7.706,7.706,0,0,1-2.141-.313A51.981,51.981,0,0,1,42.03,46.77c-6.205,2.12-13.238,4.523-15.154,9.333a8.047,8.047,0,0,0-.442,4.1,17.579,17.579,0,0,0,2.007,5.779,1.5,1.5,0,0,1,.1.23c.68,2.075.755,3.3.26,4.231a2.53,2.53,0,0,1-1.636,1.231,14.476,14.476,0,0,0,1.07,3.4,1.5,1.5,0,0,1,.085.3,5.8,5.8,0,0,0,1.5,3.443c1.165,1.335,2.018,2.629,2.337,7.042.422,1.165.973,2.388,1.507,3.572a26.265,26.265,0,0,1,2.407,6.962,7.2,7.2,0,0,1-2.359,6.649c-.172.741.747,1.774,2.482,2.771a16.807,16.807,0,0,0,5.188,1.014,11.2,11.2,0,0,0,5.509-1.727,25.945,25.945,0,0,1,13.634-3.3c1.643,0,3.436.1,5.339.285,2.989-2.393,7.779-4.8,13.281-6.654a60.772,60.772,0,0,1,18.8-3.333,29.55,29.55,0,0,1,12.176,2.287,16.606,16.606,0,0,1,8.479,8.171,1.5,1.5,0,0,1,.079.207c.785,2.608,1.422,3.143,1.554,3.23a2.476,2.476,0,0,0,.85-.637,22.4,22.4,0,0,0,1.662-1.967c1.5-1.911,3.056-3.888,5.094-3.888a3.074,3.074,0,0,1,1.54.418,1.5,1.5,0,0,1,.5,2.143,7.5,7.5,0,0,0-.657,2.709,1.5,1.5,0,0,1,1.106,0c.266.106,2.4,1.049,3.514,4.435a3.745,3.745,0,0,1,3.24,1.953,13.632,13.632,0,0,1,1.233,3.293,14.856,14.856,0,0,0,1.49,3.863,4.949,4.949,0,0,0,2.515,2.088,2.6,2.6,0,0,1,1.021-.2,9.635,9.635,0,0,1,3.719,1.253c1.76.832,3.951,1.867,6.007,1.867a5.4,5.4,0,0,0,4.106-1.9A1.5,1.5,0,0,1,158.7,121a24.635,24.635,0,0,1,2.387.9A9.507,9.507,0,0,0,165,122.915c2.277,0,5.316-1.122,9.544-3.527a1.655,1.655,0,0,1,1.244-.532,3.967,3.967,0,0,1,1.009.179,5.851,5.851,0,0,0,1.462.248,2.2,2.2,0,0,0,.71-.107c1.342-9.737,5.466-15.263,9.115-20.155,2.645-3.546,5.144-6.9,6.221-11.447a24.857,24.857,0,0,0,.454-8.049,53.478,53.478,0,0,0-2.547-11.506q-.017-.053-.03-.108c-.36-1.489-2.177-3.125-3.934-4.707-2.256-2.032-4.589-4.133-5.146-6.828q-.008-.037-.013-.074a2.283,2.283,0,0,0-.494-1.313c-.057-.054-.208-.2-.711-.2a5.447,5.447,0,0,0-1.253.187,1.5,1.5,0,0,1-1.805-1.054c-1.033-3.713-2.171-6.159-3.691-7.93a23.2,23.2,0,0,0-5.664-4.317c-1.468-.918-3.133-1.958-5.053-3.33a1.5,1.5,0,0,1-.366-.373c-1.192-1.741-1.165-3.816-1.144-5.483.034-2.631-.177-2.895-1.269-3.068a1.5,1.5,0,0,1-1.241-1.747,14.646,14.646,0,0,0-.474-4.282,12.488,12.488,0,0,0-1.893-4.735c-.276-.33-.457-.4-.487-.4,0,0-.392.044-1.1,1.027A1.5,1.5,0,0,1,155.223,19.909Z" transform="translate(87.317 63.556)" fill="#313e58" />
    </g>
</svg>