<svg xmlns="http://www.w3.org/2000/svg" xmlns:xlink="http://www.w3.org/1999/xlink" width="400" height="320" viewBox="0 0 400 320">
    <defs>
        <clipPath>
            <rect width="116.462" height="15.345" fill="none" stroke="#5bb3b3" stroke-width="2" />
        </clipPath>
        <clipPath >
            <rect width="58.152" height="105.431" fill="none" stroke="#5bb3b3" stroke-width="2" />
        </clipPath>
        <clipPath >
            <rect width="189.031" height="186.691" fill="none" />
        </clipPath>
        <clipPath>
            <rect width="400" height="320" />
        </clipPath>
    </defs>
    <g  clip-path="url(#f)">
        <rect width="400" height="320" fill="transparent" />
        <g transform="translate(-7.011 -1.162)">
            <path d="M116.373,1H0A1,1,0,0,1-1,0,1,1,0,0,1,0-1H116.373a1,1,0,0,1,1,1A1,1,0,0,1,116.373,1Z" transform="translate(-9.022 16.047)" fill="#5bb3b3" />
            <path d="M89.969,1H0A1,1,0,0,1-1,0,1,1,0,0,1,0-1H89.969a1,1,0,0,1,1,1A1,1,0,0,1,89.969,1Z" transform="translate(-9.022 48.081)" fill="#5bb3b3" />
            <path d="M91.735,68.564H1.766a1,1,0,0,1,0-2H90.735V18.851H1.766a1,1,0,0,1,0-2H91.735a1,1,0,0,1,1,1V67.564A1,1,0,0,1,91.735,68.564Z" transform="translate(-10.788 19.536)" fill="#5bb3b3" />
            <path d="M89.969,1H0A1,1,0,0,1-1,0,1,1,0,0,1,0-1H89.969a1,1,0,0,1,1,1A1,1,0,0,1,89.969,1Z" transform="translate(-9.022 57.619)" fill="#5bb3b3" />
            <path d="M89.969,1H0A1,1,0,0,1-1,0,1,1,0,0,1,0-1H89.969a1,1,0,0,1,1,1A1,1,0,0,1,89.969,1Z" transform="translate(-9.022 67.446)" fill="#5bb3b3" />
            <path d="M89.969,1H0A1,1,0,0,1-1,0,1,1,0,0,1,0-1H89.969a1,1,0,0,1,1,1A1,1,0,0,1,89.969,1Z" transform="translate(-9.022 76.984)" fill="#5bb3b3" />
            <path d="M0,48.013a1,1,0,0,1-1-1V0A1,1,0,0,1,0-1,1,1,0,0,1,1,0V47.013A1,1,0,0,1,0,48.013Z" transform="translate(5.5 39.22)" fill="#5bb3b3" />
            <path d="M0,48.013a1,1,0,0,1-1-1V0A1,1,0,0,1,0-1,1,1,0,0,1,1,0V47.013A1,1,0,0,1,0,48.013Z" transform="translate(20.5 39.22)" fill="#5bb3b3" />
            <path d="M0,48.013a1,1,0,0,1-1-1V0A1,1,0,0,1,0-1,1,1,0,0,1,1,0V47.013A1,1,0,0,1,0,48.013Z" transform="translate(35.5 39.22)" fill="#5bb3b3" />
            <path d="M0,48.013a1,1,0,0,1-1-1V0A1,1,0,0,1,0-1,1,1,0,0,1,1,0V47.013A1,1,0,0,1,0,48.013Z" transform="translate(50.5 39.22)" fill="#5bb3b3" />
            <path d="M0,48.013a1,1,0,0,1-1-1V0A1,1,0,0,1,0-1,1,1,0,0,1,1,0V47.013A1,1,0,0,1,0,48.013Z" transform="translate(65.5 39.22)" fill="#5bb3b3" />
            <path d="M105.257,121.994H1.652a1,1,0,0,1,0-2h103.6a13.264,13.264,0,0,0,8.385-2.83,8.49,8.49,0,0,0,3.382-6.568V18.036a8.49,8.49,0,0,0-3.382-6.568,13.264,13.264,0,0,0-8.385-2.83H1a1,1,0,1,1,0-2H105.257c7.591,0,13.767,5.113,13.767,11.4V110.6C119.024,116.881,112.848,121.994,105.257,121.994Z" transform="translate(-11 18.188)" fill="#5bb3b3" />
            <path d="M15.088,102.895H1.919a1,1,0,1,1,0-2h12.17V75.531H1.919a1,1,0,1,1,0-2h13.17a1,1,0,0,1,1,1v27.363A1,1,0,0,1,15.088,102.895Z" transform="translate(-10.746 27.02)" fill="#5bb3b3" />
        </g>
        <g transform="matrix(0.985, -0.174, 0.174, 0.985, 281.815, 1.058)">
            <path d="M25.288,85.224a10.84,10.84,0,0,1-10.294-7.546L-.5,28.431A10.81,10.81,0,0,1,6.543,14.91L55.525-.5A10.81,10.81,0,0,1,69.046,6.543l5.586,17.751a1,1,0,0,1-1.908.6L67.138,7.144A8.81,8.81,0,0,0,56.125,1.4L7.144,16.818A8.81,8.81,0,0,0,1.4,27.831L16.9,77.078a8.811,8.811,0,0,0,11.013,5.74L76.9,67.4a8.811,8.811,0,0,0,5.74-11.013L76.914,38.205a1,1,0,0,1,1.908-.6L84.544,55.79A10.811,10.811,0,0,1,77.5,69.311L28.515,84.726A10.742,10.742,0,0,1,25.288,85.224Z" transform="translate(0 0)" fill="#5bb3b3" />
            <path d="M25.521-1A26.528,26.528,0,0,1,35.845,49.958,26.528,26.528,0,0,1,15.2,1.085,26.356,26.356,0,0,1,25.521-1Zm0,51.042A24.528,24.528,0,0,0,35.066,2.927,24.528,24.528,0,0,0,15.977,48.116,24.367,24.367,0,0,0,25.521,50.042Z" transform="translate(16.499 16.897)" fill="#5bb3b3" />
            <path d="M2.648,15.405a1,1,0,0,1-.316-1.949L19.909,7.6a3.935,3.935,0,0,0,2.213-1.81,3.208,3.208,0,0,0,.287-2.571,3.144,3.144,0,0,0-1.6-1.826,3.894,3.894,0,0,0-2.965-.187L.316,7.045A1,1,0,0,1-.949,6.412,1,1,0,0,1-.316,5.147L17.208-.689a5.907,5.907,0,0,1,4.5.3A5.13,5.13,0,0,1,24.311,2.6a5.6,5.6,0,0,1-3.77,6.9L2.965,15.354A1,1,0,0,1,2.648,15.405Z" transform="translate(64.871 24.349)" fill="#5bb3b3" />
        </g>
        <g transform="matrix(-0.866, 0.5, -0.5, -0.866, 112.276, 167.029)">
            <g transform="translate(0 0)" clip-path="url(#a)">
                <path d="M0-1H84.891a1,1,0,0,1,1,1V7.744a1,1,0,0,1-1,1H0a1,1,0,0,1-1-1V0A1,1,0,0,1,0-1ZM83.891,1H1V6.744H83.891Z" transform="translate(17.642 6.069)" fill="#5bb3b3" />
                <path d="M7.556,8.744H0a1,1,0,0,1-1-1,1,1,0,0,1,1-1H6.556V1H0A1,1,0,0,1-1,0,1,1,0,0,1,0-1H7.556a1,1,0,0,1,1,1V7.744a1,1,0,0,1-1,1Z" transform="translate(106.555 6.069)" fill="#5bb3b3" />
                <path d="M25.909,5.185a1,1,0,0,1-1-1V1.458c-1.057-.091-3.037-.236-5.841-.337C15.064.975,8.514.89.05,1.311A1,1,0,0,1-1,.362,1,1,0,0,1-.05-.686C8.5-1.112,15.124-1.025,19.173-.877c4.4.161,6.749.42,6.847.431a1,1,0,0,1,.889.994V4.185A1,1,0,0,1,25.909,5.185Z" transform="translate(82.021 1.532)" fill="#5bb3b3" />
                <path d="M15.747,8.744a1,1,0,0,1-.246-.031L-.246,4.724A1,1,0,0,1-1,3.754a1,1,0,0,1,.756-.969L14.69-.97A1,1,0,0,1,15.9-.244,1,1,0,0,1,15.178.97L4.086,3.759,15.992,6.775a1,1,0,0,1-.245,1.97Z" transform="translate(2.349 6.069)" fill="#5bb3b3" />
            </g>
        </g>
        <g transform="matrix(0.799, 0.602, -0.602, 0.799, 353.508, 76.453)">
            <g transform="translate(0)" clip-path="url(#b)">
                <path d="M6-1H48.778a7.008,7.008,0,0,1,7,7V96.047a7.008,7.008,0,0,1-7,7H6a7.008,7.008,0,0,1-7-7V6A7.008,7.008,0,0,1,6-1ZM48.778,101.047a5.006,5.006,0,0,0,5-5V6a5.006,5.006,0,0,0-5-5H6A5.006,5.006,0,0,0,1,6V96.047a5.006,5.006,0,0,0,5,5Z" transform="translate(1.687 1.692)" fill="#5bb3b3" />
                <path d="M54.265,1H0A1,1,0,0,1-1,0,1,1,0,0,1,0-1H54.265a1,1,0,0,1,1,1A1,1,0,0,1,54.265,1Z" transform="translate(1.943 19.335)" fill="#5bb3b3" />
                <path d="M54.265,1H0A1,1,0,0,1-1,0,1,1,0,0,1,0-1H54.265a1,1,0,0,1,1,1A1,1,0,0,1,54.265,1Z" transform="translate(1.943 82.183)" fill="#5bb3b3" />
                <path d="M4.2,9.422A5.211,5.211,0,1,1,9.4,4.211,5.211,5.211,0,0,1,4.2,9.422ZM4.2,1A3.211,3.211,0,1,0,7.4,4.211,3.209,3.209,0,0,0,4.2,1Z" transform="translate(24.876 89.375)" fill="#5bb3b3" />
                <path d="M11.951,1H0A1,1,0,0,1-1,0,1,1,0,0,1,0-1H11.951a1,1,0,0,1,1,1A1,1,0,0,1,11.951,1Z" transform="translate(23.1 11.086)" fill="#5bb3b3" />
            </g>
        </g>
        <path d="M45.324,87.832A42.863,42.863,0,0,1,28.643,5.5,42.863,42.863,0,0,1,62,84.464,42.584,42.584,0,0,1,45.324,87.832Zm0-83.7a40.863,40.863,0,0,0-15.9,78.494,40.863,40.863,0,0,0,31.8-75.284A40.6,40.6,0,0,0,45.324,4.128Z" transform="translate(6.017 233.297)" fill="#5bb3b3" />
        <path d="M2391.823,2745.526a71.784,71.784,0,0,1,.573-11.93,73.638,73.638,0,0,1,1.872-9.432,53.806,53.806,0,0,1,2.934-8.473l.069-.145a52.051,52.051,0,0,1-5.591,1.768,53.106,53.106,0,0,1-8.493,1.512l-.979.072.188-.964c.006-.033.655-3.33,1.981-7.837a83.112,83.112,0,0,1,6.212-15.613l.65-1.2a26.463,26.463,0,0,1-3.525-2.924,29.555,29.555,0,0,1-4.27-5.346,27.435,27.435,0,0,1-2.96-6.189l-.18-.609.572-.278a35.61,35.61,0,0,1,5.251-1.907,44.656,44.656,0,0,1,12.891-1.76c.845.015,1.7.058,2.525.127l.76.063-.075.759a68.213,68.213,0,0,1-1.432,8.228c-1.414,5.9-3.3,9.809-5.614,11.613l-.372.291-.423-.21a25.191,25.191,0,0,1-2.75-1.588l.328,1.065a23.134,23.134,0,0,0,3.217,6.037,21.712,21.712,0,0,0,4.609,4.671,19.3,19.3,0,0,0,7.135,3.284l.552.128a39,39,0,0,1-2.167-3.673l-.351-.678.683-.339c.107-.052,2.654-1.312,6.082-2.577,4.64-1.713,8.474-2.554,11.393-2.5a9.574,9.574,0,0,1,3.078.5l.443.161.048.47a25.226,25.226,0,0,1,.1,3.55l.6-.48a23.176,23.176,0,0,0,4.422-5.219,21.729,21.729,0,0,0,2.64-6.008,19.3,19.3,0,0,0,.418-7.844l-.084-.554c-.539.994-1.135,2-1.8,2.992l-.422.634-.628-.433a68.09,68.09,0,0,1-6.514-5.225c-4.485-4.089-6.995-7.629-7.459-10.525l-.075-.466.388-.269a28.007,28.007,0,0,1,16.475-4.736,25.015,25.015,0,0,1,4.526.442l.62.137-.032.635a36.94,36.94,0,0,1-1.058,6.338,45.054,45.054,0,0,1-3.669,9.81l.83.451a33.1,33.1,0,0,1,7.239,5.461,49.714,49.714,0,0,1,5.377,6.265,52.965,52.965,0,0,1,4.541,7.336l.429.884-.966.181a103.424,103.424,0,0,1-18.31,1.471,64.339,64.339,0,0,1-6.509-.426l-1.017-.123a26.565,26.565,0,0,1-.568,3.915,29.544,29.544,0,0,1-2.259,6.458,27.51,27.51,0,0,1-3.67,5.8l-.42.476-.538-.336a36.905,36.905,0,0,1-5.029-4,45.256,45.256,0,0,1-6.363-7.326l-.665.554a33.135,33.135,0,0,1-7.748,4.711l-.25.111a15.72,15.72,0,0,1,4.818-.707,13.351,13.351,0,0,1,5.837,1.45,15.979,15.979,0,0,1,4.09,3.01,18.21,18.21,0,0,1,3.222,4.327l.171.348-.185.341a55.364,55.364,0,0,1-6.207,8.677,59.516,59.516,0,0,1-7.6,7.447,47.516,47.516,0,0,1-10.5,6.548l-1.015.455Zm54.006-5.7a71.7,71.7,0,0,1-9.785-6.848,73.433,73.433,0,0,1-6.979-6.615,53.723,53.723,0,0,1-5.6-7l-.156-.249.052-.288a16.066,16.066,0,0,1,2.974-7.008A13.523,13.523,0,0,1,2431,2708a18.169,18.169,0,0,1,8.263-1.8c.554.009.886.044.9.045l.386.041.189.339a55.318,55.318,0,0,1,4.029,9.878,59.6,59.6,0,0,1,2.245,10.4,47.516,47.516,0,0,1-.064,12.378l-.158,1.1Zm-72.784-33.206a72.386,72.386,0,0,1-19.928-3.132l-1.064-.326.7-.864a47.483,47.483,0,0,1,9.035-8.462,59.47,59.47,0,0,1,9.154-5.423,55.507,55.507,0,0,1,9.983-3.761l.377-.09.292.255a18.431,18.431,0,0,1,4.3,6.109,14.025,14.025,0,0,1,1.159,6.67,15.532,15.532,0,0,1-3.26,8.1l-.175.235-.288.053a53.665,53.665,0,0,1-9.022.652Q2373.694,2706.631,2373.045,2706.62Zm26.838-3.186a30.894,30.894,0,0,1-.556-5.331,36.266,36.266,0,0,1,1.686-12.108l1.46.168a10.364,10.364,0,0,0,1.646,4.3,9.164,9.164,0,0,0,3.176,2.929,12.4,12.4,0,0,0,5.879,1.421,20.862,20.862,0,0,0,2.768-.146l1.865-.218-1.2,1.443a21.593,21.593,0,0,1-5.178,4.492,24.706,24.706,0,0,1-5.167,2.43,22.965,22.965,0,0,1-5.6,1.2l-.635.033Zm17.273-5.283a10.217,10.217,0,0,0,3.086-6.557c.167-3.062-1.209-6.205-4.088-9.344l-1.269-1.384,1.873.129a21.628,21.628,0,0,1,6.675,1.561,24.714,24.714,0,0,1,5,2.761,22.947,22.947,0,0,1,4.261,3.834l.4.494-.421.475a30.964,30.964,0,0,1-3.992,3.576,36.269,36.269,0,0,1-10.8,5.733Zm-4.853-3.478a6.423,6.423,0,1,1,.114,0Zm32.877-5.093a15.533,15.533,0,0,1-5.531-6.75,14.038,14.038,0,0,1-.888-6.711,18.43,18.43,0,0,1,2.275-7.116l.2-.33.387-.026c.043,0,1.076-.071,2.844-.04a63.015,63.015,0,0,1,12.612,1.531,50.066,50.066,0,0,1,16.7,6.923l.927.615-.918.629a71.808,71.808,0,0,1-10.386,5.9,73.719,73.719,0,0,1-8.971,3.462,53.611,53.611,0,0,1-8.729,2.053l-.291.035Zm-41.186-3.88a21.623,21.623,0,0,1-.4-6.843,24.713,24.713,0,0,1,1.233-5.574,22.948,22.948,0,0,1,2.469-5.173l.091-.132a19.286,19.286,0,0,0-7.43,4.59l-1.073,1.06-.2-1.495a33.1,33.1,0,0,1,.152-9.067,49.821,49.821,0,0,1,1.9-8.035,52.955,52.955,0,0,1,3.256-7.989l.462-.867.715.673c.024.023,2.465,2.332,5.569,5.859a83.193,83.193,0,0,1,9.887,13.586l.869,1.554-1.719-.464a21.633,21.633,0,0,0-4.7-.555,23.008,23.008,0,0,0-7.034.939l.19.089a30.77,30.77,0,0,1,4.561,2.814,36.242,36.242,0,0,1,8.558,8.731l-1.024,1.053a10.393,10.393,0,0,0-4.877-1.344,9.239,9.239,0,0,0-4.848,1.273,15.3,15.3,0,0,0-5.238,5.538l-.967,1.609Zm-21.111-10a53.69,53.69,0,0,1-5.946-6.713,73.551,73.551,0,0,1-5.329-8,71.735,71.735,0,0,1-5.081-10.808l-.387-1.044,1.112.033a47.493,47.493,0,0,1,12.208,2.046,59.476,59.476,0,0,1,9.866,3.984,55.358,55.358,0,0,1,9.049,5.653l.3.245-.026.387a18.416,18.416,0,0,1-2.247,7.125,14.034,14.034,0,0,1-4.6,4.969,15.529,15.529,0,0,1-8.413,2.321l-.292,0Zm45.363-10.122h0a13.375,13.375,0,0,1-6.022-1.536,15.763,15.763,0,0,1-4.141-3.19,18.264,18.264,0,0,1-3.178-4.583l-.158-.355.2-.334a55.422,55.422,0,0,1,6.538-8.43,59.548,59.548,0,0,1,7.881-7.148,47.551,47.551,0,0,1,10.75-6.137l1.032-.415,0,1.112a71.811,71.811,0,0,1-1.033,11.9,73.783,73.783,0,0,1-2.236,9.353,53.557,53.557,0,0,1-3.26,8.353l-.136.259-.275.1a17.047,17.047,0,0,1-5.712,1.055Z" transform="translate(-2358.663 -2413.095)" fill="#bfe2e2" />
        <g transform="translate(-62.362 244.563) rotate(-9)">
            <path d="M52.636,2.128A50.176,50.176,0,0,1,72.162,98.513,50.176,50.176,0,0,1,33.109,6.071,49.853,49.853,0,0,1,52.636,2.128Zm0,98.327A48.176,48.176,0,0,0,71.383,7.913,48.176,48.176,0,0,0,33.888,96.67,47.863,47.863,0,0,0,52.636,100.455Z" transform="translate(364.877 62.6)" fill="#5bb3b3" />
            <path d="M61.718,2.128A58.974,58.974,0,0,1,94.844,12.247a59.417,59.417,0,0,1,21.464,26.066A59.169,59.169,0,0,1,110.845,94.5,59.417,59.417,0,0,1,84.78,115.964,59.171,59.171,0,0,1,28.592,110.5,59.416,59.416,0,0,1,7.127,84.435,59.168,59.168,0,0,1,12.59,28.248,59.417,59.417,0,0,1,38.656,6.784,58.879,58.879,0,0,1,61.718,2.128Zm0,116.492a56.974,56.974,0,0,0,32.006-9.776,57.417,57.417,0,0,0,20.742-25.187,57.169,57.169,0,0,0-5.278-54.288A57.416,57.416,0,0,0,84,8.626,57.171,57.171,0,0,0,29.711,13.9,57.416,57.416,0,0,0,8.969,39.092,57.168,57.168,0,0,0,14.247,93.38a57.417,57.417,0,0,0,25.188,20.742A56.89,56.89,0,0,0,61.718,118.62Z" transform="translate(355.795 53.518)" fill="#5bb3b3" />
            <g transform="translate(322.996 14.109)">
                <g transform="translate(0)" clip-path="url(#c)">
                    <path d="M86.408,88.577c-16.746-20.591-35.6-48.21-26.928-75.5.34-1.423,1.405-2.4,2.827-1.9,16.318,4.892,4.975,25.672,11.387,37.782,3.545,10.81,7.162,21.706,12.446,31.794,1.949,4.882,6.52,9.211,8.695,13.663.743,6.05-7.453-4.594-8.428-5.838" transform="translate(-3.011 -0.58)" fill="#c0e2e2" />
                    <path d="M84.013,110.079C63.806,123.438,37.066,137.8,13.4,125.121a2.3,2.3,0,0,1-1.428-3.074c6.046-15.321,23.588-1,35.125-5.471,10.078-1.848,20.242-3.754,29.848-7.424,4.587-1.176,8.941-5.02,13.164-6.483,5.515.188-4.883,6.64-6.1,7.41" transform="translate(-0.619 -5.394)" fill="#c0e2e2" />
                    <path d="M99.379,97.091c3.514-8.033,3.439-16.976,3.419-25.65C104.052,47.785,100.092,22.593,108.93,0c12.537,13.443,7.236,32.951,8.689,49.309,1.568,17.666-4.475,34.324-13.982,49.474" transform="translate(-5.222)" fill="#c0e2e2" />
                    <path d="M95.94,106.121c-6.889,4.981-11.706,12.407-16.418,19.584-13.783,18.956-24.676,41.64-43.3,56.143C34.581,164.83,49,151.21,56.87,137.007c8.5-15.337,21.9-26.254,36.947-34.291" transform="translate(-1.896 -5.397)" fill="#c0e2e2" />
                    <path d="M101.512,104.092c7.957-2.211,16.405-1.16,24.606-.187,22.5,1.5,45.914,7.766,68.186,2.469-11.425-12.525-30.416-10.005-45.736-13.086-16.545-3.328-32.918.159-48.219,6.866" transform="translate(-5.273 -4.834)" fill="#c0e2e2" />
                    <path d="M112.534,78.161c13.615-16.791,19.171-37.3,28.554-56.2a3.005,3.005,0,0,1,3.37-1.866c7.266.559,9.961,7.862,5,12.634-7.422,13.3-13.73,27.271-23.412,39.356-4.722,5.414-16,21.5-22,22.97-2.176-2.61,6.973-14.549,8.483-16.9" transform="translate(-5.45 -1.053)" fill="#c0e2e2" />
                    <path d="M66.29,86.17C41.64,81.837,3.077,14.824,46.061,55.783,56.279,74.2,78.444,84.833,93.505,99.145,84.06,96.9,75.155,90.061,66.29,86.17" transform="translate(-1.404 -2.237)" fill="#c0e2e2" />
                    <path d="M100.092,132.111c7.579,23.852-33.947,89.071-17.559,32,11.592-17.589,10.744-42.156,16.452-62.133,2.386,9.41.45,20.471,1.108,30.129" transform="translate(-4.133 -5.358)" fill="#c0e2e2" />
                    <path d="M135.193,114.2c30.811,3.025,81.955,69.938,26.6,30.18-13.584-18.416-41.619-28.086-61.013-41.976,11.834,1.762,23.223,8.3,34.417,11.8" transform="translate(-5.295 -5.381)" fill="#c0e2e2" />
                    <path d="M57.732,101.886c-7.592.1-15.24-.093-22.671-1.652C25.738,98.277,17,94.228,8.378,90.181,4.792,88.5.782,86.29,0,82.407a75.311,75.311,0,0,1,17.97-1.949,32.264,32.264,0,0,1,10.149,1.45A55.472,55.472,0,0,1,36.183,85.9a91.382,91.382,0,0,0,25.477,8.964c4.3.863,15.1,2.494,19.192,3.851.95.315,11.956.851,11.854,2.177-.135,1.745-17,.805-18.384.967-5.407.63-11.15-.047-16.589.026" transform="translate(0 -4.227)" fill="#c0e2e2" />
                    <path d="M133.974,93.171c7.73-1.464,15.459-3.229,22.7-6.288,9.08-3.838,17.145-9.605,25.1-15.348,3.308-2.387,6.942-5.378,6.964-9.344A80.677,80.677,0,0,0,170.1,63.982a34.543,34.543,0,0,0-10.019,3.51,58.218,58.218,0,0,0-7.4,5.575A96.983,96.983,0,0,1,128.589,87.1c-4.194,1.73-14.837,5.553-18.726,7.727-.9.5-11.973,3.3-11.605,4.574.484,1.683,17.424-2.711,18.863-2.838,5.617-.5,11.314-2.342,16.852-3.391" transform="translate(-5.162 -3.267)" fill="#c0e2e2" />
                    <path d="M102.653,63.755c.968-7.53,1.648-15.151.947-22.711-.879-9.487-3.905-18.626-6.941-27.657-1.262-3.755-3-7.992-6.767-9.211A75.317,75.317,0,0,0,85.9,21.806a32.289,32.289,0,0,0,.28,10.248,55.344,55.344,0,0,0,3.048,8.467,91.4,91.4,0,0,1,6,26.335c.367,4.368.753,15.283,1.634,19.506.2.98-.519,11.974.81,12.024,1.749.064,2.741-16.8,3.06-18.154,1.243-5.3,1.226-11.081,1.92-16.477" transform="translate(-4.499 -0.219)" fill="#c0e2e2" />
                    <path d="M100.952,102.512c3.717,6.368,10.382,10.32,16.678,14.158,12.323,7.51,24.278,15.608,36.226,23.7a30.541,30.541,0,0,1,6.566,5.405c2.068,2.479,3.3,5.545,5.139,8.2,1.714,2.465,3.959,4.573,5.326,7.247a13.008,13.008,0,0,1,1.247,7.946A18.713,18.713,0,0,1,157,163.153c-2.121-2.348-3.6-5.2-5.527-7.707-6.151-8.018-16.208-11.891-23.9-18.442a85.264,85.264,0,0,1-9.838-10.5l-16.7-19.97" transform="translate(-5.304 -5.386)" fill="#c0e2e2" />
                    <path d="M99.658,101.771c1.79,7.826,1.235,16.025,1.986,24.043.806,8.609,3.112,16.971,4.432,25.507,1.345,8.695,1.864,18.112,6.949,25.041a34.579,34.579,0,0,0,7.491,7.046,116.042,116.042,0,0,0,13.421,8.629,14.014,14.014,0,0,0-4.774-13.152c-1.825-1.445-4-2.339-5.733-3.915-2.674-2.437-3.932-6.167-5.081-9.721q-6.272-19.4-12.542-38.795a52.888,52.888,0,0,1-2.2-8.353c-.524-3.484-.36-7.075-1.117-10.509" transform="translate(-5.236 -5.347)" fill="#c0e2e2" />
                    <path d="M100.9,103.171A3.175,3.175,0,1,1,97.729,100a3.175,3.175,0,0,1,3.175,3.175" transform="translate(-4.968 -5.254)" fill="#c0e2e2" />
                </g>
            </g>
            <g transform="translate(322.996 14.109)">
                <g transform="translate(0)" clip-path="url(#c)">
                    <path d="M86.408,88.577c-16.746-20.591-35.6-48.21-26.928-75.5.34-1.423,1.405-2.4,2.827-1.9,16.318,4.892,4.975,25.672,11.387,37.782,3.545,10.81,7.162,21.706,12.446,31.794,1.949,4.882,6.52,9.211,8.695,13.663.743,6.05-7.453-4.594-8.428-5.838" transform="translate(-3.011 -0.58)" fill="#c0e2e2" />
                    <path d="M84.013,110.079C63.806,123.438,37.066,137.8,13.4,125.121a2.3,2.3,0,0,1-1.428-3.074c6.046-15.321,23.588-1,35.125-5.471,10.078-1.848,20.242-3.754,29.848-7.424,4.587-1.176,8.941-5.02,13.164-6.483,5.515.188-4.883,6.64-6.1,7.41" transform="translate(-0.619 -5.394)" fill="#c0e2e2" />
                    <path d="M99.379,97.091c3.514-8.033,3.439-16.976,3.419-25.65C104.052,47.785,100.092,22.593,108.93,0c12.537,13.443,7.236,32.951,8.689,49.309,1.568,17.666-4.475,34.324-13.982,49.474" transform="translate(-5.222)" fill="#c0e2e2" />
                    <path d="M95.94,106.121c-6.889,4.981-11.706,12.407-16.418,19.584-13.783,18.956-24.676,41.64-43.3,56.143C34.581,164.83,49,151.21,56.87,137.007c8.5-15.337,21.9-26.254,36.947-34.291" transform="translate(-1.896 -5.397)" fill="#c0e2e2" />
                    <path d="M101.512,104.092c7.957-2.211,16.405-1.16,24.606-.187,22.5,1.5,45.914,7.766,68.186,2.469-11.425-12.525-30.416-10.005-45.736-13.086-16.545-3.328-32.918.159-48.219,6.866" transform="translate(-5.273 -4.834)" fill="#c0e2e2" />
                    <path d="M112.534,78.161c13.615-16.791,19.171-37.3,28.554-56.2a3.005,3.005,0,0,1,3.37-1.866c7.266.559,9.961,7.862,5,12.634-7.422,13.3-13.73,27.271-23.412,39.356-4.722,5.414-16,21.5-22,22.97-2.176-2.61,6.973-14.549,8.483-16.9" transform="translate(-5.45 -1.053)" fill="#c0e2e2" />
                    <path d="M66.29,86.17C41.64,81.837,3.077,14.824,46.061,55.783,56.279,74.2,78.444,84.833,93.505,99.145,84.06,96.9,75.155,90.061,66.29,86.17" transform="translate(-1.404 -2.237)" fill="#c0e2e2" />
                    <path d="M100.092,132.111c7.579,23.852-33.947,89.071-17.559,32,11.592-17.589,10.744-42.156,16.452-62.133,2.386,9.41.45,20.471,1.108,30.129" transform="translate(-4.133 -5.358)" fill="#c0e2e2" />
                    <path d="M135.193,114.2c30.811,3.025,81.955,69.938,26.6,30.18-13.584-18.416-41.619-28.086-61.013-41.976,11.834,1.762,23.223,8.3,34.417,11.8" transform="translate(-5.295 -5.381)" fill="#c0e2e2" />
                    <path d="M57.732,101.886c-7.592.1-15.24-.093-22.671-1.652C25.738,98.277,17,94.228,8.378,90.181,4.792,88.5.782,86.29,0,82.407a75.311,75.311,0,0,1,17.97-1.949,32.264,32.264,0,0,1,10.149,1.45A55.472,55.472,0,0,1,36.183,85.9a91.382,91.382,0,0,0,25.477,8.964c4.3.863,15.1,2.494,19.192,3.851.95.315,11.956.851,11.854,2.177-.135,1.745-17,.805-18.384.967-5.407.63-11.15-.047-16.589.026" transform="translate(0 -4.227)" fill="#c0e2e2" />
                    <path d="M133.974,93.171c7.73-1.464,15.459-3.229,22.7-6.288,9.08-3.838,17.145-9.605,25.1-15.348,3.308-2.387,6.942-5.378,6.964-9.344A80.677,80.677,0,0,0,170.1,63.982a34.543,34.543,0,0,0-10.019,3.51,58.218,58.218,0,0,0-7.4,5.575A96.983,96.983,0,0,1,128.589,87.1c-4.194,1.73-14.837,5.553-18.726,7.727-.9.5-11.973,3.3-11.605,4.574.484,1.683,17.424-2.711,18.863-2.838,5.617-.5,11.314-2.342,16.852-3.391" transform="translate(-5.162 -3.267)" fill="#c0e2e2" />
                    <path d="M102.653,63.755c.968-7.53,1.648-15.151.947-22.711-.879-9.487-3.905-18.626-6.941-27.657-1.262-3.755-3-7.992-6.767-9.211A75.317,75.317,0,0,0,85.9,21.806a32.289,32.289,0,0,0,.28,10.248,55.344,55.344,0,0,0,3.048,8.467,91.4,91.4,0,0,1,6,26.335c.367,4.368.753,15.283,1.634,19.506.2.98-.519,11.974.81,12.024,1.749.064,2.741-16.8,3.06-18.154,1.243-5.3,1.226-11.081,1.92-16.477" transform="translate(-4.499 -0.219)" fill="#c0e2e2" />
                    <path d="M100.952,102.512c3.717,6.368,10.382,10.32,16.678,14.158,12.323,7.51,24.278,15.608,36.226,23.7a30.541,30.541,0,0,1,6.566,5.405c2.068,2.479,3.3,5.545,5.139,8.2,1.714,2.465,3.959,4.573,5.326,7.247a13.008,13.008,0,0,1,1.247,7.946A18.713,18.713,0,0,1,157,163.153c-2.121-2.348-3.6-5.2-5.527-7.707-6.151-8.018-16.208-11.891-23.9-18.442a85.264,85.264,0,0,1-9.838-10.5l-16.7-19.97" transform="translate(-5.304 -5.386)" fill="#c0e2e2" />
                    <path d="M99.658,101.771c1.79,7.826,1.235,16.025,1.986,24.043.806,8.609,3.112,16.971,4.432,25.507,1.345,8.695,1.864,18.112,6.949,25.041a34.579,34.579,0,0,0,7.491,7.046,116.042,116.042,0,0,0,13.421,8.629,14.014,14.014,0,0,0-4.774-13.152c-1.825-1.445-4-2.339-5.733-3.915-2.674-2.437-3.932-6.167-5.081-9.721q-6.272-19.4-12.542-38.795a52.888,52.888,0,0,1-2.2-8.353c-.524-3.484-.36-7.075-1.117-10.509" transform="translate(-5.236 -5.347)" fill="#c0e2e2" />
                    <path d="M100.9,103.171A3.175,3.175,0,1,1,97.729,100a3.175,3.175,0,0,1,3.175,3.175" transform="translate(-4.968 -5.254)" fill="#c0e2e2" />
                </g>
            </g>
        </g>
        <path d="M223.074,24.109H124.922c-14.814,0-26.866,12.3-26.866,27.416v150.67c0,15.118,12.052,27.419,26.866,27.419h98.152c14.814,0,26.866-12.3,26.866-27.419V51.525c0-15.118-12.052-27.416-26.866-27.416" transform="translate(26.002 33.507)" fill="#acb1bc" />
        <path d="M212.7,24.109h-90.01c-13.585,0-24.638,11.507-24.638,25.652V190.735c0,14.145,11.053,25.654,24.638,25.654H212.7c13.585,0,24.638-11.509,24.638-25.654V49.761c0-14.145-11.053-25.652-24.638-25.652" transform="translate(32.314 39.659)" fill="#e4e6ea" />
        <g transform="translate(139.343 84)">
            <path d="M0,0H118.36V67.07H0Z" transform="translate(0.478 0)" fill="#b2cae7" />
        </g>
        <path d="M123.752,34.358l67.772,134.093H104V34.358Z" transform="translate(36.028 49.211)" fill="#96b7df" />
        <g transform="translate(139.343 150.639)">
            <path d="M0,0H118.36V67.071H0Z" transform="translate(0.478 0)" fill="#ffe491" />
        </g>
        <path d="M2352.208,2767.093V2700.07h53.65l33.874,67.023Z" transform="translate(-2212.18 -2549.431)" fill="#ffd964" />
        <g transform="translate(2351.315 2927.5)">
            <path d="M38,1.5H0A1.5,1.5,0,0,1-1.5,0,1.5,1.5,0,0,1,0-1.5H38A1.5,1.5,0,0,1,39.5,0,1.5,1.5,0,0,1,38,1.5Z" transform="translate(-2142.5 -2824.5)" fill="#313e58" />
            <path d="M27,1.5H0A1.5,1.5,0,0,1-1.5,0,1.5,1.5,0,0,1,0-1.5H27A1.5,1.5,0,0,1,28.5,0,1.5,1.5,0,0,1,27,1.5Z" transform="translate(-2142.5 -2810.5)" fill="#313e58" />
            <path d="M38,1.5H0A1.5,1.5,0,0,1-1.5,0,1.5,1.5,0,0,1,0-1.5H38A1.5,1.5,0,0,1,39.5,0,1.5,1.5,0,0,1,38,1.5Z" transform="translate(-2142.5 -2796.5)" fill="#313e58" />
        </g>
        <path d="M92.788,1.5H0A1.5,1.5,0,0,1-1.5,0,1.5,1.5,0,0,1,0-1.5H92.788a1.5,1.5,0,0,1,1.5,1.5A1.5,1.5,0,0,1,92.788,1.5Z" transform="translate(154.027 161.5)" fill="#313e58" />
        <path d="M92.788,1.5H0A1.5,1.5,0,0,1-1.5,0,1.5,1.5,0,0,1,0-1.5H92.788a1.5,1.5,0,0,1,1.5,1.5A1.5,1.5,0,0,1,92.788,1.5Z" transform="translate(154.027 175.5)" fill="#313e58" />
        <path d="M92.788,1.5H0A1.5,1.5,0,0,1-1.5,0,1.5,1.5,0,0,1,0-1.5H92.788a1.5,1.5,0,0,1,1.5,1.5A1.5,1.5,0,0,1,92.788,1.5Z" transform="translate(154.027 189.5)" fill="#313e58" />
        <path d="M32.788,1.5H0A1.5,1.5,0,0,1-1.5,0,1.5,1.5,0,0,1,0-1.5H32.788a1.5,1.5,0,0,1,1.5,1.5A1.5,1.5,0,0,1,32.788,1.5Z" transform="translate(154.027 203.5)" fill="#313e58" />
        <path d="M137.46,91.386h-14.03a3.636,3.636,0,1,0,0,7.272h14.03a3.636,3.636,0,1,0,0-7.272" transform="translate(69 144.464)" fill="#acb1bc" />
        <rect width="49" height="47" transform="translate(150.315 94)" fill="#313e58" />
        <g transform="translate(2351.315 2921)">
            <circle cx="6.5" cy="6.5" r="6.5" transform="translate(-2184 -2819.965)" fill="#ffd964" />
            <path d="M11.391,0c8.543,0,11.391,7.65,11.391,17.088-4.048-.056-16.937.551-22.783,0C0,7.65,2.849,0,11.391,0Z" transform="translate(-2189 -2805.165)" fill="#ffd964" />
        </g>
    </g>
</svg>