<svg xmlns="http://www.w3.org/2000/svg" xmlns:xlink="http://www.w3.org/1999/xlink" width="400" height="320" viewBox="0 0 400 320">
    <defs>
        <clipPath >
            <rect width="114.632" height="110.626" fill="none" stroke="#5bb3b3" stroke-width="2" />
        </clipPath>
        <clipPath>
            <rect width="76.504" height="13.572" fill="none" stroke="#5bb3b3" stroke-width="2" />
        </clipPath>
        <clipPath>
            <rect width="400" height="320" />
        </clipPath>
    </defs>
    <g clip-path="url(#d)">
        <rect width="400" height="320" fill="transparent" />
        <path d="M177.275,24.109H115.08A17.22,17.22,0,0,0,98.056,41.481v95.473a17.222,17.222,0,0,0,17.024,17.374h62.195A17.222,17.222,0,0,0,194.3,136.955V41.481a17.22,17.22,0,0,0-17.024-17.372" transform="translate(51.944 71.149)" fill="#acb1bc" />
        <path d="M170.7,24.109H113.668c-8.609,0-15.612,7.292-15.612,16.255v89.33c0,8.963,7,16.256,15.612,16.256H170.7c8.609,0,15.612-7.293,15.612-16.256V40.364c0-8.963-7-16.255-15.612-16.255" transform="translate(55.944 75.047)" fill="#e4e6ea" />
        <path d="M116.53,62.415h-2.142a1.537,1.537,0,0,1,0-3.074h2.142a1.537,1.537,0,0,1,0,3.074m-8.29,0h-4.1a1.537,1.537,0,1,1,0-3.074h4.1a1.537,1.537,0,0,1,0,3.074M98,62.415H93.9a1.537,1.537,0,0,1,0-3.074H98a1.537,1.537,0,1,1,0,3.074m-10.245,0h-4.1a1.537,1.537,0,1,1,0-3.074h4.1a1.537,1.537,0,1,1,0,3.074" transform="translate(36.771 93.735)" fill="#313e58" />
        <path d="M110.845,51.289a1.534,1.534,0,0,1-.9-.294l-3.314-2.413a1.536,1.536,0,0,1,1.808-2.484l3.314,2.411a1.537,1.537,0,0,1-.906,2.78m-8.282-6.028a1.525,1.525,0,0,1-.9-.3l-3.314-2.411a1.536,1.536,0,1,1,1.807-2.484l3.314,2.411a1.537,1.537,0,0,1-.9,2.78m-8.284-6.03a1.523,1.523,0,0,1-.9-.294l-3.314-2.411A1.537,1.537,0,0,1,91.87,34.04l3.312,2.411a1.536,1.536,0,0,1-.9,2.78" transform="matrix(0.978, 0.208, -0.208, 0.978, 65.616, 30.987)" fill="#313e58" />
        <path d="M21.416,0a1.534,1.534,0,0,0-.9.294L17.2,2.707a1.536,1.536,0,0,0,1.808,2.484L22.322,2.78A1.537,1.537,0,0,0,21.416,0M13.133,6.028a1.525,1.525,0,0,0-.9.3L8.916,8.735a1.536,1.536,0,1,0,1.807,2.484l3.314-2.411a1.537,1.537,0,0,0-.9-2.78m-8.284,6.03a1.523,1.523,0,0,0-.9.294L.632,14.763a1.537,1.537,0,0,0,1.809,2.486l3.312-2.411a1.536,1.536,0,0,0-.9-2.78" transform="matrix(0.978, -0.208, 0.208, 0.978, 142.427, 218.509)" fill="#313e58" />
        <path d="M21.416,0a1.534,1.534,0,0,0-.9.294L17.2,2.707a1.536,1.536,0,0,0,1.808,2.484L22.322,2.78A1.537,1.537,0,0,0,21.416,0M13.133,6.028a1.525,1.525,0,0,0-.9.3L8.916,8.735a1.536,1.536,0,1,0,1.807,2.484l3.314-2.411a1.537,1.537,0,0,0-.9-2.78m-8.284,6.03a1.523,1.523,0,0,0-.9.294L.632,14.763a1.537,1.537,0,0,0,1.809,2.486l3.312-2.411a1.536,1.536,0,0,0-.9-2.78" transform="matrix(-0.978, 0.208, -0.208, -0.978, 256.05, 99.749)" fill="#313e58" />
        <path d="M21.416,17.543a1.534,1.534,0,0,1-.9-.294L17.2,14.836a1.536,1.536,0,0,1,1.808-2.484l3.314,2.411a1.537,1.537,0,0,1-.906,2.78m-8.282-6.028a1.525,1.525,0,0,1-.9-.3L8.916,8.808a1.536,1.536,0,1,1,1.807-2.484l3.314,2.411a1.537,1.537,0,0,1-.9,2.78M4.849,5.486a1.523,1.523,0,0,1-.9-.294L.632,2.781A1.537,1.537,0,0,1,2.441.295L5.754,2.706a1.536,1.536,0,0,1-.9,2.78" transform="matrix(-0.978, -0.208, 0.208, -0.978, 252.403, 235.669)" fill="#313e58" />
        <path d="M186.291,62.415h-2.933a1.537,1.537,0,0,1,0-3.074h2.933a1.537,1.537,0,1,1,0,3.074m-9.08,0h-4.1a1.537,1.537,0,1,1,0-3.074h4.1a1.537,1.537,0,1,1,0,3.074m-10.245,0h-4.1a1.537,1.537,0,0,1,0-3.074h4.1a1.537,1.537,0,0,1,0,3.074m-10.245,0h-4.1a1.537,1.537,0,1,1,0-3.074h4.1a1.537,1.537,0,1,1,0,3.074" transform="translate(90.622 93.735)" fill="#313e58" />
        <path d="M130.976,91.386h-8.89a2.3,2.3,0,1,0,0,4.608h8.89a2.3,2.3,0,1,0,0-4.608" transform="translate(71.239 116.812)" fill="#acb1bc" />
        <g transform="translate(5.081 -11.53)">
            <path d="M91.249,59.1a22.419,22.419,0,0,1-5.805-.769,22.3,22.3,0,0,1-5.38-40.843l0,0A22.3,22.3,0,1,1,91.249,59.1" transform="translate(37.007 43.721)" fill="#ffd964" />
            <path d="M89.424,32.151a3.563,3.563,0,0,0-2.388.917l-3.827-1.955a3.172,3.172,0,0,0,.016-.317,3.07,3.07,0,0,0-.023-.383l3.777-1.93a3.583,3.583,0,0,0,2.445.956,3.619,3.619,0,1,0-3.619-3.619,3,3,0,0,0,.016.315L82,28.093a3.573,3.573,0,0,0-2.39-.919,3.62,3.62,0,1,0,0,7.241,3.554,3.554,0,0,0,2.443-.963l3.775,1.93a2.91,2.91,0,0,0-.025.392,3.62,3.62,0,1,0,3.619-3.622" transform="translate(42.533 49.724)" fill="#313e58" />
        </g>
        <g transform="translate(15.613 21.15)">
            <path d="M91.169,129.866A22.289,22.289,0,0,1,71.9,96.426h0a22.293,22.293,0,1,1,19.268,33.44" transform="translate(26.467 122.28)" fill="#f1b981" />
            <path d="M93.871,98.421a7.485,7.485,0,0,0-13.828-1.9A6.068,6.068,0,0,0,80.9,108.6h12.32a5.108,5.108,0,0,0,.648-10.177m-.648,7.513H80.9a3.407,3.407,0,0,1,0-6.813h.963l.078-.278a4.827,4.827,0,0,1,9.472,1.314v.86h1.806a2.458,2.458,0,1,1,0,4.917" transform="translate(31.085 128.053)" fill="#313e58" />
        </g>
        <g transform="translate(-16.262 21.15)">
            <path d="M183.19,129.867a22.286,22.286,0,0,1-19.266-33.44v0a22.293,22.293,0,1,1,19.266,33.442" transform="translate(98.319 122.28)" fill="#a0d1a0" />
            <path d="M175.569,105a.256.256,0,0,0,.182.075.252.252,0,0,0,.18-.075l4.894-4.892a.255.255,0,0,0,0-.363l-1.469-1.471a.256.256,0,0,0-.362,0l-2.01,2.011v-7.7a.255.255,0,0,0-.255-.256h-2.08a.255.255,0,0,0-.256.256v7.572l-1.884-1.884a.256.256,0,0,0-.361,0l-1.471,1.471a.258.258,0,0,0,0,.363Z" transform="translate(105.859 127.786)" fill="#313e58" />
            <path d="M185.536,97.579h-2.08a.256.256,0,0,0-.255.256v4.942H171.236V97.835a.258.258,0,0,0-.256-.256H168.9a.258.258,0,0,0-.256.256v7.278a.258.258,0,0,0,.256.256h16.636a.258.258,0,0,0,.256-.256V97.835a.258.258,0,0,0-.256-.256" transform="translate(104.331 131.888)" fill="#313e58" />
        </g>
        <g transform="translate(-11.002 -10.936)">
            <path d="M193.779,93.414a22.29,22.29,0,1,1,19.343-11.142,22.168,22.168,0,0,1-19.343,11.142" transform="translate(106.586 93.818)" fill="#ffd964" />
            <path d="M195.22,56.306h-13.9a2.252,2.252,0,0,0-2.249,2.249V75.425l4.2-4.2H195.22a2.252,2.252,0,0,0,2.249-2.249V58.555a2.253,2.253,0,0,0-2.249-2.249m-.513,3.118v8.685a.362.362,0,0,1-.356.356h-11.5l-1.012,1.011V59.424c0-.2,12.87-.2,12.87,0" transform="translate(112.476 99.663)" fill="#313e58" />
        </g>
        <g transform="translate(-0.578)">
            <rect width="75" height="85" transform="translate(161 111.703)" fill="#85cb85" />
            <path d="M116.516,34.358l42.945,84.97H104V34.358Z" transform="translate(56.698 77.345)" fill="#629d62" />
            <path d="M144.162,63.02a3.529,3.529,0,0,0-3.227,0A3.276,3.276,0,0,0,139,61.58a3.057,3.057,0,0,0-2.512.166,3.377,3.377,0,0,0-1.81-1.444,3.72,3.72,0,0,0-1.926-.2l.025-6.535a4.184,4.184,0,0,0-1.065-2.836,3.535,3.535,0,0,0-2.627-1.035,3.89,3.89,0,0,0-3.9,3.829V63.25c-.055-.058-.109-.114-.166-.166a3.751,3.751,0,0,0-5.2-.114,3.318,3.318,0,0,0-.892,4.217c.656,1.038,5.295,9.127,6.364,11.1a6.811,6.811,0,0,0,4.166,3.215,1.413,1.413,0,0,0,.235.035c.169.008,2.853.154,5.874.154,1.571,0,3.232-.038,4.68-.157,4.272-.349,5.523-4.177,5.6-6.22a71.122,71.122,0,0,0,.278-8.041c-.015-2.272-.7-3.714-1.96-4.252m-1.161,12c0,.043-.01.1-.012.142-.012.336-.194,3.293-2.975,3.52a91.331,91.331,0,0,1-10.008.007,3.929,3.929,0,0,1-2.2-1.767c-1.081-1.993-5.791-10.205-6.444-11.222a1.054,1.054,0,0,1,.392-.626.905.905,0,0,1,1.315.091,14.349,14.349,0,0,1,1.391,2.123c.828,1.421,1.325,2.281,2.5,1.965a1.487,1.487,0,0,0,1.093-1.493V53.591a1,1,0,0,1,1.041-1.035c.25,0,.833,0,.834.967l-.033,8.95a1.434,1.434,0,0,0,2.51.939,1.278,1.278,0,0,1,1.293-.43q.05.02.1.035c.248.076.5.548.662,1.23a1.428,1.428,0,0,0,2.245.82l.285-.215c.858-.646.856-.646,1.177-.54.043.013.086.026.131.036.267.061.535.743.594,1.157a1.43,1.43,0,0,0,1.041,1.194,1.447,1.447,0,0,0,1.51-.5c.031-.038.763-.96,1.5-.593,0,0,.315.306.323,1.689A67.725,67.725,0,0,1,143,75.022" transform="translate(65.571 87.738)" fill="#313e58" />
            <path d="M143.206,75.38c-.012.336-.194,3.293-2.975,3.52a91.331,91.331,0,0,1-10.008.007,3.929,3.929,0,0,1-2.2-1.767c-.2-.361-.51-.925-1.036-1.859-1.617-2.871-4.873-8.53-5.407-9.363a1.054,1.054,0,0,1,.392-.626.905.905,0,0,1,1.315.091,14.349,14.349,0,0,1,1.391,2.123c.828,1.421,1.325,2.281,2.5,1.965a1.487,1.487,0,0,0,1.093-1.493V53.807a1,1,0,0,1,1.041-1.035c.25,0,.833,0,.834.967l-.033,8.95a1.434,1.434,0,0,0,2.51.939,1.278,1.278,0,0,1,1.293-.43q.05.02.1.035c.248.076.5.548.662,1.23a1.428,1.428,0,0,0,2.245.82l.285-.215c.858-.646.856-.646,1.177-.54.043.013.086.026.131.036.267.061.535.743.594,1.157a1.43,1.43,0,0,0,1.041,1.194,1.447,1.447,0,0,0,1.51-.5c.031-.038.763-.96,1.5-.593,0,0,.315.306.323,1.689a67.725,67.725,0,0,1-.263,7.732" transform="translate(65.286 87.453)" fill="#e4e6ea" />
        </g>
        <g transform="translate(10.788 -10.936)">
            <path d="M80.582,93.414a22.287,22.287,0,0,1-19.27-33.44h0a22.293,22.293,0,1,1,19.268,33.44" transform="translate(18.201 93.818)" fill="#96b7df" />
            <path d="M67.041,72.611l18.267-7.832L67.041,56.947l-.009,6.092,13.055,1.74L67.032,66.521Z" transform="translate(24.993 100.163)" fill="#313e58" />
        </g>
        <g transform="translate(-1.822 -11.522)">
            <path d="M183.19,59.1a22.286,22.286,0,0,1-19.266-33.44v0A22.293,22.293,0,1,1,183.19,59.1" transform="translate(83.879 43.721)" fill="#b1a8e3" />
            <g transform="translate(-14.44 -23.303)">
                <path d="M172.365,29.9a2.216,2.216,0,1,0,2.217,2.215,2.214,2.214,0,0,0-2.217-2.215" transform="translate(105.514 79.045)" fill="#313e58" />
                <path d="M177.509,29.9a2.216,2.216,0,1,0,2.217,2.215,2.214,2.214,0,0,0-2.217-2.215" transform="translate(109.531 79.045)" fill="#313e58" />
                <path d="M181.808,32.514a2.205,2.205,0,0,0,1.939-1.141l3.278-5.943a1.3,1.3,0,0,0-1.133-1.929H172.582l-.759-1.61a.386.386,0,0,0-.347-.223h-3a.385.385,0,0,0-.385.385v1.832a.385.385,0,0,0,.385.385h1.588l3.111,6.555-1.143,2.064a2.219,2.219,0,0,0,1.939,3.289h10.993a.385.385,0,0,0,.385-.385V33.962a.385.385,0,0,0-.385-.385H174.626l.586-1.063Zm-6.186-2.6L173.814,26.1h9.871l-2.1,3.813Z" transform="translate(103.904 72.618)" fill="#313e58" />
            </g>
        </g>
        <path d="M91.149,1H0A1,1,0,0,1-1,0,1,1,0,0,1,0-1H91.149a1,1,0,0,1,1,1A1,1,0,0,1,91.149,1Z" transform="translate(-0.234 16)" fill="#5bb3b3" />
        <path d="M70.468,1H0A1,1,0,0,1-1,0,1,1,0,0,1,0-1H70.468a1,1,0,0,1,1,1A1,1,0,0,1,70.468,1Z" transform="translate(-0.234 44.298)" fill="#5bb3b3" />
        <path d="M72.234,62.766H1.766a1,1,0,1,1,0-2H71.234V18.851H1.766a1,1,0,1,1,0-2H72.234a1,1,0,0,1,1,1V61.766A1,1,0,0,1,72.234,62.766Z" transform="translate(-2 17)" fill="#5bb3b3" />
        <path d="M70.468,1H0A1,1,0,0,1-1,0,1,1,0,0,1,0-1H70.468a1,1,0,0,1,1,1A1,1,0,0,1,70.468,1Z" transform="translate(-0.234 52.723)" fill="#5bb3b3" />
        <path d="M70.468,1H0A1,1,0,0,1-1,0,1,1,0,0,1,0-1H70.468a1,1,0,0,1,1,1A1,1,0,0,1,70.468,1Z" transform="translate(-0.234 61.404)" fill="#5bb3b3" />
        <path d="M70.468,1H0A1,1,0,0,1-1,0,1,1,0,0,1,0-1H70.468a1,1,0,0,1,1,1A1,1,0,0,1,70.468,1Z" transform="translate(-0.234 69.829)" fill="#5bb3b3" />
        <path d="M0,42.53a1,1,0,0,1-1-1V0A1,1,0,0,1,0-1,1,1,0,0,1,1,0V41.53A1,1,0,0,1,0,42.53Z" transform="translate(10.234 36.47)" fill="#5bb3b3" />
        <path d="M0,42.53a1,1,0,0,1-1-1V0A1,1,0,0,1,0-1,1,1,0,0,1,1,0V41.53A1,1,0,0,1,0,42.53Z" transform="translate(22.745 36.47)" fill="#5bb3b3" />
        <path d="M0,42.53a1,1,0,0,1-1-1V0A1,1,0,0,1,0-1,1,1,0,0,1,1,0V41.53A1,1,0,0,1,0,42.53Z" transform="translate(35 36.47)" fill="#5bb3b3" />
        <path d="M0,42.53a1,1,0,0,1-1-1V0A1,1,0,0,1,0-1,1,1,0,0,1,1,0V41.53A1,1,0,0,1,0,42.53Z" transform="translate(47 36.47)" fill="#5bb3b3" />
        <path d="M0,42.53a1,1,0,0,1-1-1V0A1,1,0,0,1,0-1,1,1,0,0,1,1,0V41.53A1,1,0,0,1,0,42.53Z" transform="translate(59.127 36.47)" fill="#5bb3b3" />
        <path d="M82.659,108.773H1.511a1,1,0,0,1,0-2H82.659a9.393,9.393,0,0,0,6.386-2.435,7.773,7.773,0,0,0,2.614-5.75V16.823a7.773,7.773,0,0,0-2.614-5.75,9.393,9.393,0,0,0-6.386-2.435H1a1,1,0,1,1,0-2H82.659A11.388,11.388,0,0,1,90.4,9.6a9.75,9.75,0,0,1,3.261,7.223V98.588a9.75,9.75,0,0,1-3.261,7.223A11.388,11.388,0,0,1,82.659,108.773Z" transform="translate(-2 17)" fill="#5bb3b3" />
        <path d="M12.234,99.7H1.919a1,1,0,0,1,0-2h9.315V75.531H1.919a1,1,0,0,1,0-2H12.234a1,1,0,0,1,1,1V98.7A1,1,0,0,1,12.234,99.7Z" transform="translate(-2 17)" fill="#5bb3b3" />
        <g transform="translate(5)">
            <path d="M49.906,93.015a15.978,15.978,0,0,1-2.995-.285L12.994,86.243a15.809,15.809,0,0,1-5.867-2.408A16.147,16.147,0,0,1,.358,73.864a15.807,15.807,0,0,1-.073-6.342L10.714,12.994A16,16,0,0,1,29.435.285L63.352,6.772A15.809,15.809,0,0,1,69.219,9.18a16.147,16.147,0,0,1,6.769,9.971,15.807,15.807,0,0,1,.073,6.342L65.632,80.021A16.059,16.059,0,0,1,49.906,93.015ZM26.44,2A14.059,14.059,0,0,0,12.678,13.37L2.249,67.9A14.044,14.044,0,0,0,13.37,84.279l33.917,6.487A14.043,14.043,0,0,0,63.668,79.645L74.1,25.117A14.044,14.044,0,0,0,62.976,8.736L29.059,2.249A13.973,13.973,0,0,0,26.44,2Z" transform="translate(-22.603 192.341)" fill="#5bb3b3" />
            <path d="M14.458,3.9a1,1,0,0,1-.2-.02L-.2.981A1,1,0,0,1-.981-.2,1,1,0,0,1,.2-.981l14.457,2.9a1,1,0,0,1-.2,1.981Z" transform="translate(8.083 234.442)" fill="#5bb3b3" />
            <path d="M24.973,6a1,1,0,0,1-.2-.02L-.2.981A1,1,0,0,1-.981-.2,1,1,0,0,1,.2-.981l24.972,5A1,1,0,0,1,24.973,6Z" transform="translate(1.522 239.896)" fill="#5bb3b3" />
            <path d="M5.841,2.063a1.006,1.006,0,0,1-.18-.016L-.179.984a1,1,0,0,1-.8-1.163,1,1,0,0,1,1.163-.8L6.019.079a1,1,0,0,1-.178,1.984Z" transform="translate(48.387 218.412)" fill="#5bb3b3" />
            <path d="M5.841,2.063a1.006,1.006,0,0,1-.18-.016L-.179.984a1,1,0,0,1-.8-1.163,1,1,0,0,1,1.163-.8L6.019.079a1,1,0,0,1-.178,1.984Z" transform="translate(46.405 229.301)" fill="#5bb3b3" />
            <path d="M5.841,2.063a1.006,1.006,0,0,1-.18-.016L-.179.984a1,1,0,0,1-.8-1.163,1,1,0,0,1,1.163-.8L6.019.079a1,1,0,0,1-.178,1.984Z" transform="translate(44.422 240.19)" fill="#5bb3b3" />
            <path d="M5.841,2.063a1.006,1.006,0,0,1-.18-.016L-.179.984a1,1,0,0,1-.8-1.163,1,1,0,0,1,1.163-.8L6.019.079a1,1,0,0,1-.178,1.984Z" transform="translate(42.44 251.079)" fill="#5bb3b3" />
            <path d="M5.841,2.063a1.006,1.006,0,0,1-.18-.016L-.179.984a1,1,0,0,1-.8-1.163,1,1,0,0,1,1.163-.8L6.019.079a1,1,0,0,1-.178,1.984Z" transform="translate(40.458 261.968)" fill="#5bb3b3" />
            <path d="M5.841,2.063a1.006,1.006,0,0,1-.18-.016L-.179.984a1,1,0,0,1-.8-1.163,1,1,0,0,1,1.163-.8L6.019.079a1,1,0,0,1-.178,1.984Z" transform="translate(38.475 272.857)" fill="#5bb3b3" />
        </g>
        <path d="M9.852-1A10.852,10.852,0,0,1,20.7,9.852,10.852,10.852,0,0,1,9.852,20.7,10.852,10.852,0,0,1-1,9.852,10.852,10.852,0,0,1,9.852-1Zm0,19.7A8.852,8.852,0,1,0,1,9.852,8.862,8.862,0,0,0,9.852,18.7Z" transform="translate(69.956 265.031)" fill="#5bb3b3" />
        <path d="M9.852-1A10.852,10.852,0,0,1,20.7,9.852,10.852,10.852,0,0,1,9.852,20.7,10.852,10.852,0,0,1-1,9.852,10.852,10.852,0,0,1,9.852-1Zm0,19.7A8.852,8.852,0,1,0,1,9.852,8.862,8.862,0,0,0,9.852,18.7Z" transform="translate(53.227 284.452)" fill="#5bb3b3" />
        <path d="M101.448,85.618q-.329,0-.661-.02a10.78,10.78,0,0,1-7.47-3.63,1,1,0,0,1,1.5-1.327A8.852,8.852,0,0,0,108.055,68.89a1,1,0,1,1,1.5-1.327,10.853,10.853,0,0,1-8.1,18.055Z" transform="translate(-31.858 227.865)" fill="#5bb3b3" />
        <path d="M59.1,79.5a9.962,9.962,0,0,1-2.994-.462L11.035,64.85A10.027,10.027,0,0,1,4.5,52.309L9.763,35.577a1,1,0,0,1,1.908.6L6.406,52.909a8.027,8.027,0,0,0,5.229,10.033L56.7,77.125A8.027,8.027,0,0,0,66.736,71.9L81,26.584a8.026,8.026,0,0,0-5.229-10.033L30.7,2.368A8.026,8.026,0,0,0,20.666,7.6L15.526,23.93a1,1,0,0,1-1.908-.6L18.758,7A10.026,10.026,0,0,1,31.3.46L76.367,14.643A10.026,10.026,0,0,1,82.9,27.184L68.644,72.5a10.054,10.054,0,0,1-9.547,7Z" transform="translate(304.096 235.137)" fill="#5bb3b3" />
        <path d="M23.482-1a24.488,24.488,0,0,1,9.53,47.04A24.488,24.488,0,0,1,13.952.924,24.33,24.33,0,0,1,23.482-1Zm0,46.964a22.488,22.488,0,0,0,8.751-43.2A22.488,22.488,0,0,0,14.731,44.2,22.34,22.34,0,0,0,23.482,45.964Z" transform="translate(324.315 251.684)" fill="#5bb3b3" />
        <path d="M20.239,37.658a1,1,0,0,1-.316-.052L3.751,32.221a5.231,5.231,0,0,1-3.52-6.447,4.8,4.8,0,0,1,2.437-2.8,5.515,5.515,0,0,1,4.2-.279l16.124,5.37a1,1,0,1,1-.632,1.9L6.236,24.592a3.5,3.5,0,0,0-2.667.167,2.814,2.814,0,0,0-1.436,1.634,2.872,2.872,0,0,0,.258,2.3,3.541,3.541,0,0,0,1.992,1.628l16.172,5.386a1,1,0,0,1-.316,1.949Z" transform="translate(304.096 235.137)" fill="#5bb3b3" />
        <g transform="translate(-3 -1)">
            <g transform="translate(311.935 12.724)">
                <g transform="translate(0 0)">
                    <g clip-path="url(#a)">
                        <path d="M98.756,30.715a1,1,0,0,1,.96.722l15.166,52.31a1,1,0,0,1-.682,1.239l-94.157,27.3A1,1,0,0,1,18.8,111.6L3.639,59.293A1,1,0,0,1,4.864,58.05L59.319,73.013l38.7-41.975A1,1,0,0,1,98.756,30.715Zm13.927,52.628L98.29,33.7,60.377,74.816a1,1,0,0,1-1,.286L6.057,60.452l14.39,49.634Z" transform="translate(-0.239 -1.647)" fill="#5bb3b3" />
                        <path d="M10.47,58.781a1,1,0,0,1-.96-.722L.039,25.393a1,1,0,0,1,.682-1.239L83.894.04a1,1,0,0,1,1.239.682l9.633,33.227a1,1,0,0,1-1.921.557L83.491,2.239,2.239,25.8,11.431,57.5a1,1,0,0,1-.961,1.279Z" transform="translate(-0.052 -0.052)" fill="#5bb3b3" />
                    </g>
                </g>
                <path d="M0,13.6a1,1,0,0,1-.96-.722,1,1,0,0,1,.682-1.239L43.178-.96a1,1,0,0,1,1.239.682A1,1,0,0,1,43.735.96L.278,13.559A1,1,0,0,1,0,13.6Z" transform="translate(13.187 22.294)" fill="#5bb3b3" />
                <path d="M0,19.857a1,1,0,0,1-.96-.722A1,1,0,0,1-.278,17.9L64.76-.96A1,1,0,0,1,66-.278,1,1,0,0,1,65.317.96L.278,19.817A1,1,0,0,1,0,19.857Z" transform="translate(16.422 27.196)" fill="#5bb3b3" />
                <path d="M0,19.857a1,1,0,0,1-.96-.722A1,1,0,0,1-.278,17.9L64.76-.96A1,1,0,0,1,66-.278,1,1,0,0,1,65.317.96L.278,19.817A1,1,0,0,1,0,19.857Z" transform="translate(19.658 38.356)" fill="#5bb3b3" />
                <path d="M0,7.043a1,1,0,0,1-.96-.722A1,1,0,0,1-.278,5.083L20.566-.96A1,1,0,0,1,21.8-.278,1,1,0,0,1,21.123.96L.278,7A1,1,0,0,1,0,7.043Z" transform="translate(34.197 59.051)" fill="#5bb3b3" />
            </g>
        </g>
        <g transform="matrix(0.799, -0.602, 0.602, 0.799, 317.194, 165.457)">
            <g transform="translate(0 0)" clip-path="url(#b)">
                <path d="M0-1H55.765a1,1,0,0,1,1,1V6.849a1,1,0,0,1-1,1H0a1,1,0,0,1-1-1V0A1,1,0,0,1,0-1ZM54.765,1H1V5.849H54.765Z" transform="translate(11.589 1.355)" fill="#5bb3b3" />
                <path d="M61.665,9.1H56.7a1,1,0,0,1,0-2h3.964V2.25H56.7a1,1,0,1,1,0-2h4.964a1,1,0,0,1,1,1V8.1A1,1,0,0,1,61.665,9.1Z" transform="translate(13.295 0.105)" fill="#5bb3b3" />
                <path d="M51.655,12.56c-2.3,0-5-.074-8.076-.281a1,1,0,1,1,.134-2,95.221,95.221,0,0,0,15.953-.1V7.856a1,1,0,0,1,2,0v3.217a1,1,0,0,1-.851.989A67.25,67.25,0,0,1,51.655,12.56Z" transform="translate(10.234 0.659)" fill="#5bb3b3" />
                <path d="M11.06,9.1a1,1,0,0,1-.321-.053L.929,5.726a1,1,0,0,1,0-1.894L11.271.3A1,1,0,0,1,11.916,2.2L4.358,4.775l7.023,2.378A1,1,0,0,1,11.06,9.1Z" transform="translate(0.293 0.105)" fill="#5bb3b3" />
            </g>
        </g>
    </g>
</svg>