<svg xmlns="http://www.w3.org/2000/svg" xmlns:xlink="http://www.w3.org/1999/xlink" width="400"
    height="320" viewBox="0 0 400 320">
    <defs>
        <clipPath >
            <rect width="54.013" height="50.605" fill="#313e58" />
        </clipPath>
        <clipPath>
            <rect width="187.472" height="196.973" fill="none" stroke="#5bb3b3" stroke-width="2" />
        </clipPath>
        <clipPath>
            <rect width="400" height="320" />
        </clipPath>
    </defs>
    <g clip-path="url(#d)">
        <g transform="translate(-6.071 -15.332)">
            <path
                d="M197.146,24.109h-77.8a21.54,21.54,0,0,0-21.295,21.73V165.261a21.542,21.542,0,0,0,21.295,21.732h77.8a21.542,21.542,0,0,0,21.295-21.732V45.839a21.54,21.54,0,0,0-21.295-21.73"
                transform="translate(-4.37 71.149)" fill="#acb1bc" />
            <path
                d="M188.927,24.109H117.584c-10.768,0-19.528,9.121-19.528,20.332V156.178c0,11.211,8.76,20.334,19.528,20.334h71.343c10.768,0,19.528-9.122,19.528-20.334V44.441c0-11.211-8.76-20.332-19.528-20.332"
                transform="translate(0.633 76.025)" fill="#e4e6ea" />
            <path
                d="M133.789,91.386H122.67a2.882,2.882,0,1,0,0,5.764h11.12a2.882,2.882,0,1,0,0-5.764"
                transform="translate(25.209 145.142)" fill="#acb1bc" />
            <g transform="translate(106.344 115.828)">
                <rect width="93.813" height="106.321" transform="translate(0.379)" fill="#85cb85" />
                <path d="M119.655,34.358l53.717,106.283H104V34.358Z"
                    transform="translate(-104 -34.358)" fill="#a0d1a0" />
            </g>
            <g transform="translate(126.882 143.199)">
                <g transform="translate(0 0)" clip-path="url(#a)">
                    <path
                        d="M30.672,20.448,20.126,9.9l2.765-2.765,7.78,7.845L45.718,0l2.7,2.636Zm3.151,30.157-20-5.723v3.665H0V23.213H19.869l16.4,6.173a6.772,6.772,0,0,1,2.926,2.09,6.373,6.373,0,0,1,1.19,4.147h7.33a5.9,5.9,0,0,1,4.5,1.929,7.33,7.33,0,0,1,1.8,5.208v1.672ZM3.858,44.689H9.9V27.071H3.858Zm29.707,1.929L50.026,41.6a3.368,3.368,0,0,0-.965-1.672,2.139,2.139,0,0,0-1.35-.45H34.4a23.135,23.135,0,0,1-3.569-.257,22.894,22.894,0,0,1-3.119-.707l-5.208-1.608,1.415-3.729,4.694,1.543a17.706,17.706,0,0,0,3.054.707,38.758,38.758,0,0,0,4.6.193,4.112,4.112,0,0,0-.289-1.511,1.868,1.868,0,0,0-1-1.061l-15.754-5.98h-5.4v13.76Z"
                        transform="translate(0 0)" fill="#313e58" />
                </g>
            </g>
        </g>
        <path
            d="M31.75,0a2.57,2.57,0,0,0-1.336.367L25.5,3.383A1.731,1.731,0,0,0,25,6.065a2.558,2.558,0,0,0,3.181.423l4.913-3.013a1.736,1.736,0,0,0,.5-2.684A2.438,2.438,0,0,0,31.75,0M19.471,7.534a2.554,2.554,0,0,0-1.339.369l-4.913,3.013a1.734,1.734,0,0,0-.5,2.682,2.555,2.555,0,0,0,3.181.423l4.913-3.013a1.733,1.733,0,0,0,.5-2.684,2.428,2.428,0,0,0-1.843-.79M7.189,15.069a2.552,2.552,0,0,0-1.339.367L.937,18.45a1.736,1.736,0,0,0-.5,2.684,2.565,2.565,0,0,0,3.184.423L8.53,18.543a1.735,1.735,0,0,0,.5-2.684,2.438,2.438,0,0,0-1.845-.79"
            transform="matrix(-0.921, 0.391, -0.391, -0.921, 220.594, 96.703)" fill="#313e58" />
        <path
            d="M27.9,21.809a2.063,2.063,0,0,1-1.174-.365l-4.318-3a1.851,1.851,0,0,1-.441-2.668,2.06,2.06,0,0,1,2.8-.421l4.318,3a1.857,1.857,0,0,1,.441,2.67,2.034,2.034,0,0,1-1.622.786M17.11,14.315a2.051,2.051,0,0,1-1.176-.367l-4.318-3a1.854,1.854,0,0,1-.441-2.668,2.058,2.058,0,0,1,2.8-.421l4.318,3a1.853,1.853,0,0,1,.441,2.67,2.026,2.026,0,0,1-1.619.786M6.317,6.819a2.049,2.049,0,0,1-1.176-.365l-4.318-3A1.857,1.857,0,0,1,.383.787a2.066,2.066,0,0,1,2.8-.421l4.315,3a1.856,1.856,0,0,1,.443,2.67,2.034,2.034,0,0,1-1.622.786"
            transform="matrix(-0.978, -0.208, 0.208, -0.978, 212, 243.287)" fill="#313e58" />
        <path
            d="M203.125,63.341H198.79a2.016,2.016,0,1,1,0-4h4.336a2.016,2.016,0,1,1,0,4m-13.423,0h-6.057a2.016,2.016,0,1,1,0-4H189.7a2.016,2.016,0,1,1,0,4m-15.144,0H168.5a2.016,2.016,0,1,1,0-4h6.057a2.016,2.016,0,1,1,0,4m-15.144,0h-6.057a2.016,2.016,0,1,1,0-4h6.057a2.016,2.016,0,1,1,0,4"
            transform="translate(41.543 99.122)" fill="#313e58" />
        <g transform="translate(-7.822 61.775)">
            <path
                d="M201.163,95.124A40.291,40.291,0,0,1,166.332,34.67v0a40.3,40.3,0,1,1,34.831,60.458"
                transform="translate(83.879 43.721)" fill="#f1b981" />
        </g>
        <g transform="translate(-41.822 165.775)">
            <path
                d="M200.86,95.124a39.526,39.526,0,0,1-19.929-5.389,40.536,40.536,0,0,1-14.64-55.065v0a39.916,39.916,0,0,1,73.273,9.726,40.257,40.257,0,0,1-38.7,50.732"
                transform="translate(83.879 43.721)" fill="#ffd964" />
        </g>
        <g transform="translate(-41.822 -44.225)">
            <path
                d="M201.163,95.124A40.291,40.291,0,0,1,166.332,34.67v0a40.3,40.3,0,1,1,34.831,60.458"
                transform="translate(83.879 43.721)" fill="#b2cae7" />
        </g>
        <path
            d="M9.852-1A10.852,10.852,0,0,1,20.7,9.852,10.852,10.852,0,0,1,9.852,20.7,10.852,10.852,0,0,1-1,9.852,10.852,10.852,0,0,1,9.852-1Zm0,19.7A8.852,8.852,0,1,0,1,9.852,8.862,8.862,0,0,0,9.852,18.7Z"
            transform="translate(10.659 102.003) rotate(-77)" fill="#5bb3b3" />
        <path
            d="M9.852-1A10.852,10.852,0,0,1,20.7,9.852,10.852,10.852,0,0,1,9.852,20.7,10.852,10.852,0,0,1-1,9.852,10.852,10.852,0,0,1,9.852-1Zm0,19.7A8.852,8.852,0,1,0,1,9.852,8.862,8.862,0,0,0,9.852,18.7Z"
            transform="translate(20.929 127.717) rotate(-77)" fill="#5bb3b3" />
        <path
            d="M101.448,85.618q-.329,0-.661-.02a10.78,10.78,0,0,1-7.47-3.63,1,1,0,0,1,1.5-1.327A8.852,8.852,0,0,0,108.055,68.89a1,1,0,1,1,1.5-1.327,10.853,10.853,0,0,1-8.1,18.055Z"
            transform="translate(-53.347 197.893) rotate(-77)" fill="#5bb3b3" />
        <g transform="translate(17.88 312.336) rotate(-45)">
            <path
                d="M364.574,221.815a59.593,59.593,0,0,1-7.91-1.14q-.04-.008-.08-.02L264.807,193.85a2.569,2.569,0,0,1-1.743-3.183l1.337-4.579a2.567,2.567,0,0,1,3.181-1.744l91.409,26.7q.038.011.075.025c.021.008,2.141.814,4.2,1.712,1.227.534,2.2,1,2.893,1.38.731.4,1.955,1.078,1.646,2.132l-1.337,4.578a1.263,1.263,0,0,1-1.026.868A4.061,4.061,0,0,1,364.574,221.815Zm-7.469-3.091a58.221,58.221,0,0,0,7.469,1.091h.123l1.045-3.578a26.468,26.468,0,0,0-3.792-1.846c-1.693-.722-3.3-1.339-3.558-1.437l-91.37-26.687a.559.559,0,0,0-.156-.022.569.569,0,0,0-.545.406l-1.337,4.58a.569.569,0,0,0,.384.7Z"
                transform="translate(-260.389 -185.243)" fill="#5bb3b3" />
            <path
                d="M0,8.7a1,1,0,0,1-.281-.04,1,1,0,0,1-.68-1.24L1.288-.28a1,1,0,0,1,1.24-.68A1,1,0,0,1,3.207.28L.96,7.977A1,1,0,0,1,0,8.7Z"
                transform="translate(7.025 0.691)" fill="#5bb3b3" />
            <path
                d="M339.281,192.27a1,1,0,0,1-.281-.04l-2.288-.668a2.571,2.571,0,0,1-1.744-3.182l.668-2.286a2.571,2.571,0,0,1,3.182-1.745l2.472.723a1,1,0,0,1-.561,1.92l-2.472-.723a.571.571,0,0,0-.7.385l-.668,2.286a.574.574,0,0,0,.386.7l2.287.668a1,1,0,0,1-.28,1.96Z"
                transform="translate(-335.866 -185.241)" fill="#5bb3b3" />
            <path
                d="M329.147,191.056a1.5,1.5,0,0,1-.425-.061l-7.442-2.174a1.509,1.509,0,0,1-1.024-1.873l.056-.189a1.507,1.507,0,0,1,1.872-1.024l7.442,2.174a1.509,1.509,0,0,1,1.024,1.873l-.055.187A1.514,1.514,0,0,1,329.147,191.056Z"
                transform="translate(-303.894 -184.657)" fill="#5bb3b3" />
            <path
                d="M0,8.132a1,1,0,0,1-.281-.04,1,1,0,0,1-.68-1.24L1.123-.28a1,1,0,0,1,1.24-.68A1,1,0,0,1,3.043.28L.96,7.412A1,1,0,0,1,0,8.132Z"
                transform="translate(39.964 10.57)" fill="#5bb3b3" />
            <path
                d="M0,8.132a1,1,0,0,1-.281-.04,1,1,0,0,1-.68-1.24L1.123-.28a1,1,0,0,1,1.24-.68A1,1,0,0,1,3.043.28L.96,7.412A1,1,0,0,1,0,8.132Z"
                transform="translate(41.618 11.053)" fill="#5bb3b3" />
            <path
                d="M263.631,211.949l-.278,0c-1.169-.018-2.249-.144-2.295-.149a1,1,0,0,1,.234-1.986h0c.009,0,.869.1,1.833.13.523.016.924.007,1.23-.014-.244-.163-.568-.361-.995-.6-.813-.447-1.561-.786-1.568-.789a1,1,0,1,1,.823-1.823c.038.017.934.423,1.88.955,1.93,1.086,2.335,1.727,2.477,2.211a1.317,1.317,0,0,1-.154,1.1C266.385,211.658,265.425,211.949,263.631,211.949Z"
                transform="translate(-155.638 -176.084)" fill="#5bb3b3" />
            <path
                d="M0,3.818a1,1,0,0,1-.281-.04,1,1,0,0,1-.68-1.24L-.137-.28A1,1,0,0,1,1.1-.96,1,1,0,0,1,1.783.28L.96,3.1A1,1,0,0,1,0,3.818Z"
                transform="translate(106.336 31.915)" fill="#5bb3b3" />
        </g>
        <g transform="translate(-1241.773 3078.796) rotate(53)">
            <path
                d="M88.694,117.071,45.189,138.8a5.957,5.957,0,0,1-7.968-2.66L1.623,64.86a5.957,5.957,0,0,1,2.66-7.968l43.5-21.727a5.957,5.957,0,0,1,7.968,2.66l35.6,71.279A5.957,5.957,0,0,1,88.694,117.071Z"
                transform="translate(-1694 -2961.249)" fill="#bfe2e2" />
            <path
                d="M42.553,140.421a7,7,0,0,1-3.612-1.006,6.9,6.9,0,0,1-2.614-2.83L.728,65.307A6.957,6.957,0,0,1,3.836,56L47.34,34.27a6.843,6.843,0,0,1,3.084-.728,7,7,0,0,1,3.612,1.006,6.9,6.9,0,0,1,2.614,2.83l35.6,71.279a6.948,6.948,0,0,1-3.108,9.309l-43.5,21.727A6.839,6.839,0,0,1,42.553,140.421ZM50.424,35.542a4.86,4.86,0,0,0-2.19.517L4.729,57.786a4.957,4.957,0,0,0-2.212,6.627l35.6,71.279a4.9,4.9,0,0,0,1.857,2.01,5,5,0,0,0,2.58.719,4.857,4.857,0,0,0,2.189-.517l43.5-21.727a4.945,4.945,0,0,0,2.212-6.626L54.86,38.271A4.9,4.9,0,0,0,53,36.261,5,5,0,0,0,50.424,35.542Z"
                transform="translate(-1694 -2961.249)" fill="#5bb3b3" />
            <rect width="43.983" height="18.613"
                transform="translate(-1683.856 -2898.04) rotate(-26.539)" fill="#fff" />
            <path
                d="M0-1H43.983a1,1,0,0,1,1,1V18.613a1,1,0,0,1-1,1H0a1,1,0,0,1-1-1V0A1,1,0,0,1,0-1ZM42.983,1H1V17.613H42.983Z"
                transform="translate(-1683.856 -2898.04) rotate(-26.539)" fill="#5bb3b3" />
            <path d="M0,0H19.315V18.731H0Z"
                transform="translate(-1670.677 -2871.649) rotate(-26.538)" fill="#fff" />
            <path d="M-1-1H20.315V19.731H-1ZM18.315,1H1V17.731H18.315Z"
                transform="translate(-1670.677 -2871.649) rotate(-26.538)" fill="#5bb3b3" />
            <rect width="19.315" height="18.731"
                transform="translate(-1648.608 -2882.672) rotate(-26.538)" fill="#fff" />
            <path
                d="M0-1H19.315a1,1,0,0,1,1,1V18.731a1,1,0,0,1-1,1H0a1,1,0,0,1-1-1V0A1,1,0,0,1,0-1ZM18.315,1H1V17.731H18.315Z"
                transform="translate(-1648.608 -2882.672) rotate(-26.538)" fill="#5bb3b3" />
            <path d="M0,0H19.315V18.731H0V0Z"
                transform="translate(-1660.218 -2850.708) rotate(-26.538)" fill="#fff" />
            <path d="M-1-1H20.315V19.731H-1ZM18.315,1H1V17.731H18.315Z"
                transform="translate(-1660.218 -2850.708) rotate(-26.538)" fill="#5bb3b3" />
            <rect width="19.315" height="18.731"
                transform="translate(-1638.149 -2861.729) rotate(-26.538)" fill="#fff" />
            <path
                d="M0-1H19.315a1,1,0,0,1,1,1V18.731a1,1,0,0,1-1,1H0a1,1,0,0,1-1-1V0A1,1,0,0,1,0-1ZM18.315,1H1V17.731H18.315Z"
                transform="translate(-1638.149 -2861.729) rotate(-26.538)" fill="#5bb3b3" />
            <path
                d="M0,4.766a1,1,0,0,1-.9-.553A1,1,0,0,1-.447,2.871L7.093-.895a1,1,0,0,1,1.341.448A1,1,0,0,1,7.987.895L.447,4.661A1,1,0,0,1,0,4.766Z"
                transform="translate(-1639.396 -2880.735)" fill="#5bb3b3" />
            <path
                d="M0,4.766a1,1,0,0,1-.9-.553A1,1,0,0,1-.447,2.871L7.093-.895a1,1,0,0,1,1.341.448A1,1,0,0,1,7.987.895L.447,4.661A1,1,0,0,1,0,4.766Z"
                transform="translate(-1661.931 -2869.48)" fill="#5bb3b3" />
            <path
                d="M3.767,8.54a1,1,0,0,1-.9-.553L-.895.447A1,1,0,0,1-.447-.895,1,1,0,0,1,.895-.447l3.766,7.54A1,1,0,0,1,3.767,8.54Z"
                transform="translate(-1660.044 -2871.367)" fill="#5bb3b3" />
            <path
                d="M7.994,3.67a1,1,0,0,1-.317-.052L-.317.949A1,1,0,0,1-.949-.317,1,1,0,0,1,.317-.949L8.311,1.721A1,1,0,0,1,7.994,3.67Z"
                transform="translate(-1651.744 -2848.079)" fill="#5bb3b3" />
            <path
                d="M0,8.994a1,1,0,0,1-.317-.052A1,1,0,0,1-.949,7.677L1.721-.317A1,1,0,0,1,2.986-.949,1,1,0,0,1,3.618.317L.949,8.311A1,1,0,0,1,0,8.994Z"
                transform="translate(-1649.081 -2850.741)" fill="#5bb3b3" />
            <path
                d="M0,4.766a1,1,0,0,1-.9-.553A1,1,0,0,1-.447,2.871L7.093-.895a1,1,0,0,1,1.341.448A1,1,0,0,1,7.987.895L.447,4.661A1,1,0,0,1,0,4.766Z"
                transform="translate(-1629.789 -2861.499)" fill="#5bb3b3" />
            <path
                d="M0,4.766a1,1,0,0,1-.9-.553A1,1,0,0,1-.447,2.871L7.093-.895a1,1,0,0,1,1.341.448A1,1,0,0,1,7.987.895L.447,4.661A1,1,0,0,1,0,4.766Z"
                transform="translate(-1627.932 -2857.781)" fill="#5bb3b3" />
        </g>
        <g transform="translate(281.864 193.876)">
            <rect width="75.767" height="75.767" rx="10"
                transform="translate(111.136 74.391) rotate(151)" fill="#bfe2e2" />
            <path
                d="M10,2a8.009,8.009,0,0,0-8,8V65.767a8.009,8.009,0,0,0,8,8H65.767a8.009,8.009,0,0,0,8-8V10a8.009,8.009,0,0,0-8-8H10m0-2H65.767a10,10,0,0,1,10,10V65.767a10,10,0,0,1-10,10H10a10,10,0,0,1-10-10V10A10,10,0,0,1,10,0Z"
                transform="translate(111.136 74.391) rotate(151)" fill="#5bb3b3" />
            <path
                d="M21.437,14.768l-18.019-6A4.722,4.722,0,0,1,.2,2.985,4.647,4.647,0,0,1,6.186.266L24.152,6.25"
                transform="translate(108.018 34.905) rotate(133)" fill="#fff" />
            <path
                d="M21.437,15.768a1,1,0,0,1-.316-.052L3.1,9.715A5.714,5.714,0,0,1-.748,2.675,5.234,5.234,0,0,1,1.911-.378,6.03,6.03,0,0,1,6.5-.682L24.468,5.3a1,1,0,0,1-.632,1.9L5.87,1.215a4.018,4.018,0,0,0-3.059.193A3.249,3.249,0,0,0,1.154,3.295a3.313,3.313,0,0,0,.3,2.656A4.059,4.059,0,0,0,3.733,7.818l18.019,6a1,1,0,0,1-.316,1.949Z"
                transform="translate(108.018 34.905) rotate(133)" fill="#5bb3b3" />
            <ellipse cx="28.301" cy="28.301" rx="28.301" ry="28.301"
                transform="translate(99.603 57.92) rotate(133)" fill="#fff" />
            <path
                d="M28.3-1A29.309,29.309,0,0,1,39.707,55.3,29.308,29.308,0,0,1,16.9,1.3,29.118,29.118,0,0,1,28.3-1Zm0,56.6A27.309,27.309,0,0,0,38.928,3.145,27.308,27.308,0,0,0,17.675,53.457,27.129,27.129,0,0,0,28.3,55.6Z"
                transform="translate(99.603 57.92) rotate(133)" fill="#5bb3b3" />
            <path
                d="M22.275-1a23.281,23.281,0,0,1,9.06,44.72A23.281,23.281,0,0,1,13.215.829,23.13,23.13,0,0,1,22.275-1Zm0,44.55A21.281,21.281,0,0,0,30.556,2.671,21.281,21.281,0,0,0,13.994,41.878,21.141,21.141,0,0,0,22.275,43.55Z"
                transform="translate(91.086 58.218) rotate(133)" fill="#5bb3b3" />
        </g>
        <g transform="translate(-253.714 310.798) rotate(-19)">
            <rect width="65.276" height="65.276" transform="translate(265.574 -14.113) rotate(9)"
                fill="#bfe2e2" />
            <path d="M2,2V63.276H63.276V2H2M0,0H65.276V65.276H0Z"
                transform="translate(265.574 -14.113) rotate(9)" fill="#5bb3b3" />
            <rect width="65.276" height="65.276" transform="translate(263.323 -18.615) rotate(9)"
                fill="#bfe2e2" />
            <path d="M2,2V63.276H63.276V2H2M0,0H65.276V65.276H0Z"
                transform="translate(263.323 -18.615) rotate(9)" fill="#5bb3b3" />
            <rect width="65.276" height="65.276" transform="translate(261.072 -23.103) rotate(9)"
                fill="#bfe2e2" />
            <path d="M2,2V63.276H63.276V2H2M0,0H65.276V65.276H0Z"
                transform="translate(261.072 -23.103) rotate(9)" fill="#5bb3b3" />
        </g>
        <g transform="translate(484.238 117.496) rotate(172)">
            <g transform="translate(0 0)">
                <g clip-path="url(#b)">
                    <path
                        d="M0-1H156.754a1,1,0,0,1,1,1V119.067a1,1,0,0,1-1,1H0a1,1,0,0,1-1-1V0A1,1,0,0,1,0-1ZM155.754,1H1V118.067H155.754Z"
                        transform="translate(115.498 1.426) rotate(73.345)" fill="#5bb3b3" />
                    <path
                        d="M5.661,189.7a1,1,0,0,1-.936-.647l-5.66-15a1,1,0,0,1,.583-1.289,1,1,0,0,1,1.289.583l5.307,14.065,109.529-41.331L61.135,1.289,51.919,4.766A1,1,0,0,1,51.213,2.9L61.365-.936a1,1,0,0,1,.765.024,1,1,0,0,1,.524.558L118,146.307a1,1,0,0,1-.583,1.289L6.013,189.633A1,1,0,0,1,5.661,189.7Z"
                        transform="translate(68.985 6.85)" fill="#5bb3b3" />
                </g>
            </g>
            <path
                d="M0,29.021a1,1,0,0,1-.958-.714,1,1,0,0,1,.671-1.245L93.378-.958a1,1,0,0,1,1.245.671A1,1,0,0,1,93.951.958L.287,28.979A1,1,0,0,1,0,29.021Z"
                transform="translate(50.865 140.396)" fill="#5bb3b3" />
            <path
                d="M0,29.021a1,1,0,0,1-.958-.714,1,1,0,0,1,.671-1.245L93.378-.958a1,1,0,0,1,1.245.671A1,1,0,0,1,93.951.958L.287,28.979A1,1,0,0,1,0,29.021Z"
                transform="translate(47.108 127.837)" fill="#5bb3b3" />
            <path
                d="M0,29.021a1,1,0,0,1-.958-.714,1,1,0,0,1,.671-1.245L93.378-.958a1,1,0,0,1,1.245.671A1,1,0,0,1,93.951.958L.287,28.979A1,1,0,0,1,0,29.021Z"
                transform="translate(42.882 113.709)" fill="#5bb3b3" />
            <path
                d="M0,29.021a1,1,0,0,1-.958-.714,1,1,0,0,1,.671-1.245L93.378-.958a1,1,0,0,1,1.245.671A1,1,0,0,1,93.951.958L.287,28.979A1,1,0,0,1,0,29.021Z"
                transform="translate(39.125 101.151)" fill="#5bb3b3" />
            <path
                d="M0,29.021a1,1,0,0,1-.958-.714,1,1,0,0,1,.671-1.245L93.378-.958a1,1,0,0,1,1.245.671A1,1,0,0,1,93.951.958L.287,28.979A1,1,0,0,1,0,29.021Z"
                transform="translate(34.585 85.976)" fill="#5bb3b3" />
            <path
                d="M0,29.021a1,1,0,0,1-.958-.714,1,1,0,0,1,.671-1.245L93.378-.958a1,1,0,0,1,1.245.671A1,1,0,0,1,93.951.958L.287,28.979A1,1,0,0,1,0,29.021Z"
                transform="translate(30.828 73.418)" fill="#5bb3b3" />
            <path
                d="M0,29.021a1,1,0,0,1-.958-.714,1,1,0,0,1,.671-1.245L93.378-.958a1,1,0,0,1,1.245.671A1,1,0,0,1,93.951.958L.287,28.979A1,1,0,0,1,0,29.021Z"
                transform="translate(26.602 59.289)" fill="#5bb3b3" />
            <path
                d="M0,29.021a1,1,0,0,1-.958-.714,1,1,0,0,1,.671-1.245L93.378-.958a1,1,0,0,1,1.245.671A1,1,0,0,1,93.951.958L.287,28.979A1,1,0,0,1,0,29.021Z"
                transform="translate(22.845 46.731)" fill="#5bb3b3" />
            <path
                d="M0,29.021a1,1,0,0,1-.958-.714,1,1,0,0,1,.671-1.245L93.378-.958a1,1,0,0,1,1.245.671A1,1,0,0,1,93.951.958L.287,28.979A1,1,0,0,1,0,29.021Z"
                transform="translate(18.462 32.08)" fill="#5bb3b3" />
            <path
                d="M0,29.021a1,1,0,0,1-.958-.714,1,1,0,0,1,.671-1.245L93.378-.958a1,1,0,0,1,1.245.671A1,1,0,0,1,93.951.958L.287,28.979A1,1,0,0,1,0,29.021Z"
                transform="translate(14.705 19.521)" fill="#5bb3b3" />
        </g>
        <path
            d="M54.9,147.986a17.889,17.889,0,0,1-18.028-18.028A22.814,22.814,0,0,1,40.9,117.282,34.741,34.741,0,0,1,51.972,106.8a1.711,1.711,0,0,1,1.944-.029,1.938,1.938,0,0,1,.986,1.775v4.056a4.314,4.314,0,0,0,1.324,3.212,4.455,4.455,0,0,0,3.239,1.3,4.271,4.271,0,0,0,1.888-.423,4.488,4.488,0,0,0,1.549-1.268,2.439,2.439,0,0,1,1.014-.7,1.154,1.154,0,0,1,1.071.141,18.237,18.237,0,0,1,7.943,15.1A17.889,17.889,0,0,1,54.9,147.986M40.254,129.958a14.4,14.4,0,0,0,1.606,6.676,14.582,14.582,0,0,0,4.478,5.211,8.819,8.819,0,0,1-.45-2.76,8.489,8.489,0,0,1,.676-3.381,9.15,9.15,0,0,1,1.972-2.873l6.366-6.253,6.366,6.253A9.15,9.15,0,0,1,63.24,135.7a8.489,8.489,0,0,1,.676,3.381,8.819,8.819,0,0,1-.45,2.76,14.582,14.582,0,0,0,4.478-5.211,14.489,14.489,0,0,0,.31-12.62,17.749,17.749,0,0,0-3.718-5.324,10.553,10.553,0,0,1-2.479,1.324,7.44,7.44,0,0,1-2.592.479,7.568,7.568,0,0,1-5.69-2.338,8.144,8.144,0,0,1-2.253-5.888v-1.126a29.3,29.3,0,0,0-8.226,8.817,19.454,19.454,0,0,0-3.042,10M54.9,131.31l-4,3.944A5.724,5.724,0,0,0,49.691,137a5.106,5.106,0,0,0-.423,2.085A5.281,5.281,0,0,0,50.9,143a5.784,5.784,0,0,0,8,0,5.281,5.281,0,0,0,1.634-3.915A5.106,5.106,0,0,0,60.113,137a5.724,5.724,0,0,0-1.211-1.746Z"
            transform="translate(223.126 33.515)" fill="#313e58" />
        <path
            d="M26.5,252.488l-2.424-1.239a1.584,1.584,0,0,1-.859-1.123,1.458,1.458,0,0,1,.375-1.354l4.2-4.9A1.558,1.558,0,0,1,29,243.332a1.507,1.507,0,0,1,1.481.942,1.431,1.431,0,0,1-.269,1.7l-2.855,3.285,2.424,1.239a1.587,1.587,0,0,1,.86,1.123,1.459,1.459,0,0,1-.375,1.355l-4.2,4.9a1.591,1.591,0,0,1-.545.4,1.619,1.619,0,0,1-.667.135,1.507,1.507,0,0,1-1.481-.943,1.43,1.43,0,0,1,.27-1.7Zm-12.927,0-2.424-1.239a1.581,1.581,0,0,1-.859-1.123,1.458,1.458,0,0,1,.375-1.354l4.2-4.9a1.558,1.558,0,0,1,1.212-.538,1.507,1.507,0,0,1,1.481.942,1.431,1.431,0,0,1-.269,1.7l-2.855,3.285,2.424,1.239a1.587,1.587,0,0,1,.86,1.123,1.459,1.459,0,0,1-.375,1.355l-4.2,4.9a1.591,1.591,0,0,1-.545.4,1.619,1.619,0,0,1-.667.135,1.507,1.507,0,0,1-1.481-.943,1.43,1.43,0,0,1,.27-1.7ZM11.311,240.1a10.9,10.9,0,0,1-7.995-3.314,11.153,11.153,0,0,1-.273-15.592,10.941,10.941,0,0,1,7.568-3.663,13.191,13.191,0,0,1,4.551-4.767,11.921,11.921,0,0,1,6.406-1.75,11.537,11.537,0,0,1,8.191,3.1,13.143,13.143,0,0,1,4.067,7.675,9.534,9.534,0,0,1,6.759,2.882A9.148,9.148,0,0,1,33.933,240.1Zm0-3.232H33.933a5.668,5.668,0,0,0,4.207-1.751,5.785,5.785,0,0,0,1.718-4.2,5.876,5.876,0,0,0-5.925-5.9H30.7V223.4a9.1,9.1,0,0,0-9.146-9.156,9.089,9.089,0,0,0-5.055,1.481,8.766,8.766,0,0,0-3.359,4.013l-.431.969H11.2a8.047,8.047,0,0,0-5.655,2.445,7.706,7.706,0,0,0-2.316,5.627A7.8,7.8,0,0,0,5.6,234.5a7.778,7.778,0,0,0,5.713,2.37"
            transform="translate(222 29.986)" fill="#313e58" />
        <path
            d="M24.857,258.663a1.745,1.745,0,0,1-1.708-1.089,1.686,1.686,0,0,1,.311-1.967l2.642-3.042-2.14-1.094a1.83,1.83,0,0,1-.99-1.293,1.7,1.7,0,0,1,.432-1.572l4.2-4.9a1.807,1.807,0,0,1,1.4-.62,1.766,1.766,0,0,1,1.708,1.088,1.687,1.687,0,0,1-.31,1.968l-2.643,3.041,2.139,1.094a1.836,1.836,0,0,1,.991,1.293,1.7,1.7,0,0,1-.432,1.573l-4.2,4.9a1.845,1.845,0,0,1-.631.466A1.876,1.876,0,0,1,24.857,258.663Zm3.123-14.628-4.2,4.9a1.211,1.211,0,0,0-.316,1.133,1.333,1.333,0,0,0,.73.953l2.707,1.384-3.069,3.533a1.177,1.177,0,0,0-.226,1.422,1.265,1.265,0,0,0,1.254.8,1.313,1.313,0,0,0,1.024-.454l4.2-4.9a1.212,1.212,0,0,0,.316-1.134,1.338,1.338,0,0,0-.731-.954l-2.707-1.384,3.07-3.532a1.178,1.178,0,0,0,.225-1.423,1.265,1.265,0,0,0-1.254-.8,1.308,1.308,0,0,0-1.025.453ZM11.93,258.663a1.745,1.745,0,0,1-1.708-1.089,1.686,1.686,0,0,1,.311-1.967l2.642-3.042-2.14-1.094a1.828,1.828,0,0,1-.99-1.293,1.7,1.7,0,0,1,.432-1.572l4.2-4.9a1.807,1.807,0,0,1,1.4-.62,1.766,1.766,0,0,1,1.708,1.088,1.687,1.687,0,0,1-.31,1.968l-2.643,3.041,2.139,1.094a1.836,1.836,0,0,1,.991,1.293,1.7,1.7,0,0,1-.432,1.573l-4.2,4.9a1.845,1.845,0,0,1-.631.466A1.876,1.876,0,0,1,11.93,258.663Zm3.123-14.628-4.2,4.9a1.211,1.211,0,0,0-.316,1.133,1.331,1.331,0,0,0,.729.953l2.707,1.384L10.9,255.944a1.177,1.177,0,0,0-.226,1.422,1.265,1.265,0,0,0,1.254.8,1.313,1.313,0,0,0,1.024-.454l4.2-4.9a1.212,1.212,0,0,0,.316-1.134,1.338,1.338,0,0,0-.731-.954l-2.707-1.384,3.07-3.532a1.178,1.178,0,0,0,.225-1.423,1.265,1.265,0,0,0-1.254-.8,1.308,1.308,0,0,0-1.025.453Zm18.88-3.685H11.311a11.191,11.191,0,0,1-8.172-3.387,11.4,11.4,0,0,1-.281-15.937,11.221,11.221,0,0,1,7.6-3.734,13.476,13.476,0,0,1,4.57-4.74,12.219,12.219,0,0,1,6.538-1.787,11.828,11.828,0,0,1,8.362,3.164,13.424,13.424,0,0,1,4.109,7.619,9.746,9.746,0,0,1,6.728,2.949,9.4,9.4,0,0,1-6.834,15.853ZM21.568,211.264a11.727,11.727,0,0,0-6.274,1.713,13,13,0,0,0-4.466,4.678l-.066.116-.133.01a10.747,10.747,0,0,0-7.4,3.582,10.9,10.9,0,0,0,.265,15.247,10.707,10.707,0,0,0,7.818,3.241H33.933a8.894,8.894,0,0,0,6.47-15.011,9.332,9.332,0,0,0-6.589-2.8l-.2-.01-.033-.2a12.957,12.957,0,0,0-3.991-7.533A11.344,11.344,0,0,0,21.568,211.264Zm12.365,25.854H11.311a8.052,8.052,0,0,1-5.89-2.443,8.071,8.071,0,0,1-2.439-5.894,7.981,7.981,0,0,1,2.388-5.8,8.324,8.324,0,0,1,5.824-2.519h1.354l.365-.821a9.046,9.046,0,0,1,3.451-4.121A9.377,9.377,0,0,1,21.556,214a9.354,9.354,0,0,1,9.4,9.406v1.366h2.981a6.126,6.126,0,0,1,6.175,6.148,6.052,6.052,0,0,1-1.79,4.376A5.933,5.933,0,0,1,33.933,237.118ZM11.207,220.959a7.838,7.838,0,0,0-5.482,2.371,7.5,7.5,0,0,0-2.244,5.451,7.587,7.587,0,0,0,2.293,5.54,7.568,7.568,0,0,0,5.536,2.3H33.933a5.449,5.449,0,0,0,4.029-1.676,5.568,5.568,0,0,0,1.646-4.026,5.626,5.626,0,0,0-5.675-5.648H30.452V223.4a8.854,8.854,0,0,0-8.9-8.906,8.885,8.885,0,0,0-4.919,1.441,8.558,8.558,0,0,0-3.265,3.9l-.5,1.121Z"
            transform="translate(222 29.986)" fill="#313e58" />
        <path
            d="M14.352,39.446a6.208,6.208,0,0,1-3.9-1,4.505,4.505,0,0,0-2.9-1,4.072,4.072,0,0,0-2.15.575,12.894,12.894,0,0,1-2.15,1.025,1.7,1.7,0,0,1-1.425-.125,1.338,1.338,0,0,1-.675-1.275,1.5,1.5,0,0,1,.3-.875,1.728,1.728,0,0,1,.85-.625A10.984,10.984,0,0,0,4.427,35.1a5.946,5.946,0,0,1,3.125-.65,5.657,5.657,0,0,1,3.775,1,4.385,4.385,0,0,0,3.025,1,4.385,4.385,0,0,0,3.025-1,5.657,5.657,0,0,1,3.775-1,5.765,5.765,0,0,1,3.8,1,4.407,4.407,0,0,0,3,1,3.869,3.869,0,0,0,3.025-1.25,4.878,4.878,0,0,1,3.775-1.25,5.046,5.046,0,0,1,3.125.8A12.685,12.685,0,0,0,40,36.1a2.05,2.05,0,0,1,.85.675,1.5,1.5,0,0,1,.3.875,1.318,1.318,0,0,1-.7,1.3,1.591,1.591,0,0,1-1.45,0,12.849,12.849,0,0,1-2.125-1.275,3.487,3.487,0,0,0-2.125-.725,3.98,3.98,0,0,0-2.9,1.25,5.322,5.322,0,0,1-3.9,1.25,6.208,6.208,0,0,1-3.9-1,4.7,4.7,0,0,0-5.8,0,6.208,6.208,0,0,1-3.9,1m-11-9.95a1.548,1.548,0,0,1-1.525,0,1.492,1.492,0,0,1-.675-1.4,1.393,1.393,0,0,1,.3-.85,1.789,1.789,0,0,1,.85-.6A10.984,10.984,0,0,0,4.427,25.6a5.946,5.946,0,0,1,3.125-.65,8.687,8.687,0,0,1,1.125.075,5.508,5.508,0,0,1,1.025.225L7.152,16,5,18.7a1.389,1.389,0,0,1-1,.55,1.508,1.508,0,0,1-1.1-.35,1.481,1.481,0,0,1-.575-1,1.418,1.418,0,0,1,.325-1.1l12.7-15.65A3,3,0,0,1,16.9.121,2.818,2.818,0,0,1,18.752.2l18.8,7.2a1.544,1.544,0,0,1,.85.8,1.382,1.382,0,0,1,0,1.15,1.657,1.657,0,0,1-.825.825,1.273,1.273,0,0,1-1.125.025L33.252,9l4.3,16.05q.6.349,1.225.8A9,9,0,0,0,40,26.6a2.05,2.05,0,0,1,.85.675,1.5,1.5,0,0,1,.3.875,1.363,1.363,0,0,1-.7,1.35,1.5,1.5,0,0,1-1.45-.05,12.849,12.849,0,0,1-2.125-1.275,3.487,3.487,0,0,0-2.125-.725,3.98,3.98,0,0,0-2.9,1.25,5.322,5.322,0,0,1-3.9,1.25,6.208,6.208,0,0,1-3.9-1,4.7,4.7,0,0,0-5.8,0,6.208,6.208,0,0,1-3.9,1,6.208,6.208,0,0,1-3.9-1,4.505,4.505,0,0,0-2.9-1,4.41,4.41,0,0,0-2.125.525Q4.452,29,3.352,29.5m11-2.55a4.661,4.661,0,0,0,2.775-.875A6.071,6.071,0,0,1,19.952,25L18.1,18.2l6.8-1.8,2.75,10.55a3.552,3.552,0,0,0,3.125-1.1,4.859,4.859,0,0,1,3.475-1.4l-4.5-16.8L17.7,3,9.5,13.1l3.7,13.7a3.505,3.505,0,0,0,.6.125,5.46,5.46,0,0,0,.55.025"
            transform="translate(222.848 33)" fill="#313e58" />
        <path
            d="M27.952,39.7A6.467,6.467,0,0,1,23.9,38.641a4.455,4.455,0,0,0-5.487,0A6.467,6.467,0,0,1,14.352,39.7,6.467,6.467,0,0,1,10.3,38.641,4.281,4.281,0,0,0,7.552,37.7a3.843,3.843,0,0,0-2.021.539A13.2,13.2,0,0,1,3.34,39.28l-.009,0a1.961,1.961,0,0,1-1.626-.144,1.577,1.577,0,0,1-.8-1.494,1.75,1.75,0,0,1,.346-1.019,1.98,1.98,0,0,1,.969-.716,10.78,10.78,0,0,0,2.076-1.026A6.2,6.2,0,0,1,7.552,34.2a5.909,5.909,0,0,1,3.941,1.063,4.165,4.165,0,0,0,2.859.937,4.165,4.165,0,0,0,2.859-.937A5.909,5.909,0,0,1,21.152,34.2a6.019,6.019,0,0,1,3.964,1.061,4.185,4.185,0,0,0,2.836.939,3.6,3.6,0,0,0,2.839-1.167A5.129,5.129,0,0,1,34.752,33.7a5.3,5.3,0,0,1,3.279.853,12.49,12.49,0,0,0,2.079,1.322,2.3,2.3,0,0,1,.946.756,1.75,1.75,0,0,1,.346,1.019,1.554,1.554,0,0,1-.838,1.524,1.848,1.848,0,0,1-1.667,0,13.167,13.167,0,0,1-2.169-1.3,3.259,3.259,0,0,0-1.976-.676,3.755,3.755,0,0,0-2.723,1.177A5.578,5.578,0,0,1,27.952,39.7Zm-6.8-2.5a4.769,4.769,0,0,1,3.056,1.055,6.008,6.008,0,0,0,3.744.945,5.113,5.113,0,0,0,3.723-1.177A4.238,4.238,0,0,1,34.752,36.7a3.748,3.748,0,0,1,2.274.774,12.661,12.661,0,0,0,2.084,1.25,1.494,1.494,0,0,0,.629.15,1.34,1.34,0,0,0,.6-.148,1.079,1.079,0,0,0,.562-1.076,1.244,1.244,0,0,0-.254-.731,1.815,1.815,0,0,0-.749-.592l-.008,0a12.991,12.991,0,0,1-2.167-1.376,4.838,4.838,0,0,0-2.971-.747,4.673,4.673,0,0,0-3.589,1.167A4.125,4.125,0,0,1,27.952,36.7a4.668,4.668,0,0,1-3.164-1.061,5.57,5.57,0,0,0-3.636-.939,5.462,5.462,0,0,0-3.609.937A4.645,4.645,0,0,1,14.352,36.7a4.645,4.645,0,0,1-3.191-1.063A5.462,5.462,0,0,0,7.552,34.7a5.745,5.745,0,0,0-2.991.611,11.282,11.282,0,0,1-2.173,1.074,1.471,1.471,0,0,0-.731.534,1.244,1.244,0,0,0-.254.731A1.1,1.1,0,0,0,1.948,38.7a1.444,1.444,0,0,0,.716.194,1.606,1.606,0,0,0,.5-.086,12.7,12.7,0,0,0,2.1-1A4.336,4.336,0,0,1,7.552,37.2a4.769,4.769,0,0,1,3.056,1.055,6.008,6.008,0,0,0,3.744.945,6.008,6.008,0,0,0,3.744-.945A4.769,4.769,0,0,1,21.152,37.2Zm6.8-7A6.467,6.467,0,0,1,23.9,29.141a4.455,4.455,0,0,0-5.487,0A6.467,6.467,0,0,1,14.352,30.2,6.467,6.467,0,0,1,10.3,29.141,4.281,4.281,0,0,0,7.552,28.2a4.184,4.184,0,0,0-2.006.5c-.654.352-1.357.7-2.09,1.032a2.146,2.146,0,0,1-.91.223,1.638,1.638,0,0,1-.846-.235A1.731,1.731,0,0,1,.9,28.1a1.645,1.645,0,0,1,.35-1,2.043,2.043,0,0,1,.965-.685,10.78,10.78,0,0,0,2.076-1.026A6.2,6.2,0,0,1,7.552,24.7a8.978,8.978,0,0,1,1.157.077c.224.029.436.067.634.113l-2.3-8.35L5.2,18.852a1.636,1.636,0,0,1-1.175.643,1.76,1.76,0,0,1-1.277-.4,1.73,1.73,0,0,1-.667-1.164,1.665,1.665,0,0,1,.378-1.287L15.158.988A3.259,3.259,0,0,1,16.833-.119a3.082,3.082,0,0,1,2.01.082l18.806,7.2a1.8,1.8,0,0,1,.981.927,1.629,1.629,0,0,1,0,1.35l0,.007a1.908,1.908,0,0,1-.945.947,1.528,1.528,0,0,1-1.328.031L33.619,9.4l4.148,15.482c.374.222.762.477,1.156.761a8.806,8.806,0,0,0,1.187.727,2.3,2.3,0,0,1,.946.756,1.75,1.75,0,0,1,.346,1.019,1.6,1.6,0,0,1-.838,1.574,1.755,1.755,0,0,1-1.674-.051,13.16,13.16,0,0,1-2.161-1.3,3.259,3.259,0,0,0-1.976-.676,3.755,3.755,0,0,0-2.723,1.177A5.578,5.578,0,0,1,27.952,30.2Zm-6.8-2.5a4.769,4.769,0,0,1,3.056,1.055,6.008,6.008,0,0,0,3.744.945,5.113,5.113,0,0,0,3.723-1.177A4.238,4.238,0,0,1,34.752,27.2a3.748,3.748,0,0,1,2.274.774,12.661,12.661,0,0,0,2.084,1.25l.01,0a1.421,1.421,0,0,0,.667.184,1.218,1.218,0,0,0,.553-.137,1.125,1.125,0,0,0,.562-1.126,1.244,1.244,0,0,0-.254-.731,1.815,1.815,0,0,0-.749-.592l-.008,0a9.3,9.3,0,0,1-1.259-.771c-.412-.3-.818-.561-1.2-.787l-.089-.052L32.885,8.591l3.671,1.377a1.01,1.01,0,0,0,.426.1,1.133,1.133,0,0,0,.488-.12,1.4,1.4,0,0,0,.7-.7,1.132,1.132,0,0,0,0-.947,1.292,1.292,0,0,0-.716-.672l-18.8-7.2A2.579,2.579,0,0,0,16.971.361a2.77,2.77,0,0,0-1.424.941L2.846,16.954a1.166,1.166,0,0,0-.271.911,1.23,1.23,0,0,0,.483.836,1.255,1.255,0,0,0,.923.3,1.139,1.139,0,0,0,.826-.457l2.455-3.084,2.805,10.175-.445-.148a5.283,5.283,0,0,0-.978-.214A8.477,8.477,0,0,0,7.552,25.2a5.745,5.745,0,0,0-2.991.611,11.281,11.281,0,0,1-2.173,1.074,1.533,1.533,0,0,0-.735.515,1.141,1.141,0,0,0-.25.7,1.251,1.251,0,0,0,.553,1.185,1.13,1.13,0,0,0,.591.165,1.659,1.659,0,0,0,.7-.176c.726-.33,1.419-.672,2.063-1.019A4.679,4.679,0,0,1,7.552,27.7a4.769,4.769,0,0,1,3.056,1.055,6.008,6.008,0,0,0,3.744.945,6.008,6.008,0,0,0,3.744-.945A4.769,4.769,0,0,1,21.152,27.7Zm6.994-.473a5.007,5.007,0,0,1-.52-.028l-.172-.018L24.723,16.7l-6.314,1.671,1.86,6.835-.286.036a5.852,5.852,0,0,0-2.711,1.03,4.927,4.927,0,0,1-2.92.921,5.665,5.665,0,0,1-.575-.026,3.762,3.762,0,0,1-.644-.133L13,27l-3.77-13.96,8.4-10.34L29.961,7.459l4.613,17.223-.311.014a4.642,4.642,0,0,0-3.3,1.322A3.725,3.725,0,0,1,28.146,27.223Zm-.3-.51c.1.007.2.01.3.01A3.2,3.2,0,0,0,30.6,25.675a4.984,4.984,0,0,1,3.337-1.459L29.543,7.833,17.782,3.295l-8,9.86,3.629,13.438a2.922,2.922,0,0,0,.421.08,5.177,5.177,0,0,0,.525.024,4.436,4.436,0,0,0,2.63-.828,6.285,6.285,0,0,1,2.655-1.078l-1.842-6.77,7.286-1.929Z"
            transform="translate(222.848 33)" fill="#313e58" />
        <rect width="72.931" height="258.413" transform="translate(223 33.257)" fill="none" />
    </g>
</svg>