<svg xmlns="http://www.w3.org/2000/svg" xmlns:xlink="http://www.w3.org/1999/xlink" width="400" height="320" viewBox="0 0 400 320">
    <defs>
        <clipPath>
            <rect width="400" height="320" />
        </clipPath>
    </defs>
    <g clip-path="url(#b)">
        <rect width="400" height="320" fill="transparent" />
        <path d="M399,1H0A1,1,0,0,1-1,0,1,1,0,0,1,0-1H399a1,1,0,0,1,1,1A1,1,0,0,1,399,1Z" transform="translate(0.5 234.5)" fill="#5bb3b3" />
        <path d="M3-1H23.688a4,4,0,0,1,4,4V88.594a4,4,0,0,1-4,4H3a4,4,0,0,1-4-4V3A4,4,0,0,1,3-1ZM23.688,90.594a2,2,0,0,0,2-2V3a2,2,0,0,0-2-2H3A2,2,0,0,0,1,3V88.594a2,2,0,0,0,2,2Z" transform="translate(19.148 10.979)" fill="#5bb3b3" />
        <path d="M27.656,20.385a6.735,6.735,0,1,1-6.968,6.731A6.86,6.86,0,0,1,27.656,20.385Zm0,11.463a4.737,4.737,0,1,0-4.968-4.731A4.859,4.859,0,0,0,27.656,31.848Z" transform="translate(4.836 13.584)" fill="#5bb3b3" />
        <path d="M9.37,93.594H1.239a1,1,0,1,1,0-2H9.37A2.533,2.533,0,0,0,11.9,89.063V4.531A2.533,2.533,0,0,0,9.37,2H1.086a1,1,0,1,1,0-2H9.37A4.536,4.536,0,0,1,13.9,4.531V89.063A4.536,4.536,0,0,1,9.37,93.594Z" transform="translate(1.192 9.979)" fill="#5bb3b3" />
        <path d="M1.095,33.636a1,1,0,0,1-.245-1.97,4.781,4.781,0,0,0,3.689-4.574A4.77,4.77,0,0,0,.771,22.5a1,1,0,0,1,.459-1.947,7.031,7.031,0,0,1,3.788,2.34,6.61,6.61,0,0,1,1.522,4.2,6.778,6.778,0,0,1-5.2,6.512A1,1,0,0,1,1.095,33.636Z" transform="translate(1.177 13.609)" fill="#5bb3b3" />
        <path d="M3-1H88.594a4,4,0,0,1,4,4V23.688a4,4,0,0,1-4,4H3a4,4,0,0,1-4-4V3A4,4,0,0,1,3-1ZM88.594,25.688a2,2,0,0,0,2-2V3a2,2,0,0,0-2-2H3A2,2,0,0,0,1,3V23.688a2,2,0,0,0,2,2Z" transform="translate(53.344 47.454)" fill="#5bb3b3" />
        <path d="M70.594,51.2a6.971,6.971,0,1,1,6.731-6.968A6.86,6.86,0,0,1,70.594,51.2Zm0-11.935a4.973,4.973,0,1,0,4.731,4.967A4.859,4.859,0,0,0,70.594,39.262Z" transform="translate(12.472 16.569)" fill="#5bb3b3" />
        <path d="M3-1H88.594a4,4,0,0,1,4,4V23.688a4,4,0,0,1-4,4H3a4,4,0,0,1-4-4V3A4,4,0,0,1,3-1ZM88.594,25.688a2,2,0,0,0,2-2V3a2,2,0,0,0-2-2H3A2,2,0,0,0,1,3V23.688a2,2,0,0,0,2,2Z" transform="translate(57.846 75.093)" fill="#5bb3b3" />
        <path d="M74.42,74.682a6.971,6.971,0,1,1,6.731-6.968A6.86,6.86,0,0,1,74.42,74.682Zm0-11.935a4.973,4.973,0,1,0,4.731,4.967A4.859,4.859,0,0,0,74.42,62.747Z" transform="translate(13.148 20.722)" fill="#5bb3b3" />
        <path d="M160.225,99.219H-.371a1,1,0,0,1-1-1,1,1,0,0,1,1-1h159.6V84.7H-.222a1,1,0,0,1-1-1,1,1,0,0,1,1-1H160.225a1,1,0,0,1,1,1V98.219A1,1,0,0,1,160.225,99.219Z" transform="translate(1.314 24.605)" fill="#5bb3b3" />
        <g transform="translate(237.919 25.076)">
            <path d="M121.363,71.079c-1.87-12.759-4.765-30.619-11.327-40.3-4.727,5.075,4.678,27.2,6.059,34.245a271.878,271.878,0,0,1,4.666,43.02c1.012,29.813-1.725,59.589-3.772,89.3q-3.2,46.449-4.16,93.125l5.792.209c2.864-53.518,5.64-107.093,5.808-160.754.061-19.7-.238-39.531-3.065-58.843" transform="translate(-28.759 37.012) rotate(-14)" fill="#bfe2e2" />
            <path d="M116.334,225.311a43.775,43.775,0,0,0-1.773-8.286c-.817-2.261-1.981-4.119-2.945-6.219a74.246,74.246,0,0,1-3.837-12.366,538.262,538.262,0,0,0-17.368-54.46c-1.854-5-4.358-10.547-7.918-10.551a141.786,141.786,0,0,1,7.216,15.77c1.237,3.015,2.474,6.032,3.638,9.124a221.852,221.852,0,0,1,7.944,26.385c3.833,16,6.4,32.718,8.636,49.484a69.907,69.907,0,0,1,1,11.385c-.067,2.384-.707,5.221-.385,7.589.375,2.753,1.348,3.556,2.905,4.453.785.453,7.962,1.905,8.018,2.28q-2.565-17.293-5.131-34.589" transform="translate(23.246 32.853)" fill="#bfe2e2" />
            <path d="M133.873,51.307c-4.9.184-9.334,4.086-12.189,9.065s-4.36,10.95-5.623,16.872a271.37,271.37,0,0,0-4.9,32.656c-1.495,16.868-1.432,33.883-1.367,50.854q.189,49.872.377,99.744l12.979,10.7c-1.691-9.519-.338-19.448-.939-29.171-.6-9.807-3.182-19.224-5.076-28.771a243.756,243.756,0,0,1-3.856-29.132c-2.8-37.291,1.412-75.039,9.52-111.095,1.921-8.539,4.669-17.921,11.075-21.722" transform="matrix(0.995, -0.105, 0.105, 0.995, -11.673, 46.559)" fill="#bfe2e2" />
            <path d="M180.783,70.78l-7.556-4.519c-3.161-1.891-6.879-3.823-10.176-2.254-1.182.563-2.544,1.544-3.605.736a2.417,2.417,0,0,1-.328-2.951,5.111,5.111,0,0,1,2.328-1.921,23.406,23.406,0,0,1,21.226.435c-2.577-25.872-15.382-38.728-25.306-39.212C140.288,20.261,134.9,55.011,134.9,55.011c-1.67-7.7-7.508-7.97-10.766-8.531-9.549-1.647-16.791,8.606-15.408,38.7q.131,2.838.513,5.456a28.711,28.711,0,0,1,6.357-4.028c6.415-2.96,13.443-3.71,20.35-4.426a6.805,6.805,0,0,1,4.146.442c-2.519,2.332-5.97,2.775-9.115,3.763-7.911,2.486-14.429,9.342-17.773,17.717,5.358,11.441,14.559,18.393,22.635,22.517a53.968,53.968,0,0,1-1.637-9.986c-.478-10.1,4.155-20.3,11.717-25.811a102.753,102.753,0,0,0-4.056,15.2,52.952,52.952,0,0,0,1.727,23.928,52.366,52.366,0,0,0,8.2,2.259s10.766-2.081,15.593,4.578a230.869,230.869,0,0,0,10.359-29.743,40.776,40.776,0,0,0-10.979-8.08,15.758,15.758,0,0,1-4.746-3.244,5.788,5.788,0,0,1-1.283-5.711c.9-2.216,3.42-2.953,5.59-2.813,5.678.368,10.479,4.817,13.754,10.116a136.476,136.476,0,0,0,3.022-25.051c-.771-.529-1.557-1.02-2.325-1.48" transform="translate(-19.325 76.949) rotate(-20)" fill="#bfe2e2" />
            <path d="M102.238,2.68a1.852,1.852,0,0,0-.377.734,29.052,29.052,0,0,0-.84,9.017,1.535,1.535,0,0,1-.076.648,1.235,1.235,0,0,1-.7.571c-2.46,1.1-5.281,2.051-6.587,4.633.918-2.217,1.732-3.067,1.759-5.524.029-2.649-.192-5.154.44-7.76A13.163,13.163,0,0,1,97.1,1.775c-.126-.019-.247-.043-.373-.061C92.582,1.077,88.673.647,84.976.373c-.037.041-.086.069-.121.114A6.664,6.664,0,0,0,83.9,3.352c-.24,1.262-.705,5.659-2.47,4.927-1.573-.653-.888-5.489-.356-6.719A6.227,6.227,0,0,1,81.921.176c-30.389-1.582-44.61,8.006-44.61,8.006s4.531-2.419,11.254,16.262A43.4,43.4,0,0,1,61.357,17.9c10.153-3.221,12.15,2.2,12.289,3.939-3.855-1.563-16.028,3.93-19.877,5.51a16.168,16.168,0,0,0-3.517,2.1c.032.1.065.2.1.3,1.7,5.388,5.588,10.03,10.7,13.941a37.748,37.748,0,0,1,7.981-10.143,24.5,24.5,0,0,1,8.648-5.51,11.721,11.721,0,0,1,9.815.85,1.932,1.932,0,0,1,1.112,1.588c-.028.443-.2,1.01-.584,1.149-13.149,4.742-15.955,10.9-16,18.63A99.19,99.19,0,0,0,89.7,56.543c-.5-1.489-1-2.977-1.483-4.471a4.471,4.471,0,0,1-.29-2.65,3.8,3.8,0,0,1,1.111-1.544A12.05,12.05,0,0,1,92.78,45.2a4.644,4.644,0,0,1,4.312.273,2.513,2.513,0,0,1,1.035,1.281,3.8,3.8,0,0,1-.142,2.162c-.845,2.994-2.249,5.853-2.928,8.861,11.048,2.258,20.541,2.4,23.476.479,7.7-5.031-9.191-14.615-9.191-14.615,28,6.709,34.84.479,38.473-4.073,8.648-10.835-8.734-29.754-45.577-36.889" transform="translate(-30.145 15.969) rotate(-7)" fill="#bfe2e2" />
            <path d="M155.92,131.1l-1.711.718s-5.985-6.948-16.886,0a13.016,13.016,0,0,0-5.663,8.506A8.182,8.182,0,0,1,135.1,139a17.316,17.316,0,0,1,6.093.488c1.031.221,2.285.733,2.378,1.906a1.85,1.85,0,0,1-.867,1.638,3.164,3.164,0,0,1-1.737.407,7.823,7.823,0,0,1-2.659-.473,23.742,23.742,0,0,0-2.3-.882,6.385,6.385,0,0,0-4.7.937c-.467,8.154,4.305,17.4,12,19.709,11.97,3.593,14.534,18.927,13.038,9.583s19.45-9.344,19.665-22.281S155.92,131.1,155.92,131.1" transform="translate(-5.274 30.807)" fill="#bfe2e2" />
            <path d="M77.383,128.652s4.813-26.115-12.376-16.771-28.19,38.334-22.23,57.742c5.3-9.418,15.2-14.081,24.891-17.527a8.375,8.375,0,0,0-.692-1.734,11.088,11.088,0,0,0-3.887-3.611,3.934,3.934,0,0,1,4.9.77,7.484,7.484,0,0,1,1.6,3.907c4.582-1.566,9.037-2.915,12.87-4.415l-.518-1.042a8.793,8.793,0,0,0-2.36-3.329c-1.427-1.034-3.4-1.011-4.583-2.381a.809.809,0,0,1-.231-.474.84.84,0,0,1,.281-.579c1.581-1.7,4.026-1.734,6.216-1.664,1.464.048,3.141.213,4.012,1.533a7.211,7.211,0,0,1,.729,3.427,18.739,18.739,0,0,0,.427,2.768c3.978-2.012,6.763-4.454,7.452-7.991,2.75-14.136-1.834-13.657-16.5-8.626" transform="translate(15.441 26.933)" fill="#bfe2e2" />
            <path d="M81.8,240.857c0,13.763,10.046,25.024,22.324,25.024h36.858c12.279,0,22.325-11.261,22.325-25.024V197.518H81.8Z" transform="translate(7.431 84.518)" fill="#bfe2e2" />
            <path d="M152.388,138.3c1.441,2.056.021,5.95-1.329,8.179-13.121,21.652-21.043,50.938-27.145,80.409a17.117,17.117,0,0,0-.512,4.811c.445,5.524,3.6,17.035.068,22.375-2.294,3.464-3.921-.005-4.56-4.713-1.527-11.247,3.6-31.622,5.876-42.033a240.239,240.239,0,0,1,11.462-37.749c1.158-2.893,14.833-33.148,16.14-31.278" transform="translate(-5.553 35.464)" fill="#bfe2e2" />
        </g>
        <g transform="translate(0 26.951)">
            <path d="M136.552,236.18V231.8l18.826-15.281h87.515L261.719,231.8v4Z" transform="translate(0 6.047)" fill="#9aa2b0" />
            <path d="M136.552,236.18V231.8l18.826-15.281h87.515L261.719,231.8v4Z" transform="translate(0 6.047)" fill="#7a8293" />
            <path d="M136.552,237.68a1.5,1.5,0,0,1-1.5-1.5V231.8a1.5,1.5,0,0,1,.555-1.165l18.826-15.281a1.5,1.5,0,0,1,.945-.335h87.515a1.5,1.5,0,0,1,.945.335l18.826,15.281a1.5,1.5,0,0,1,.555,1.165v4a1.5,1.5,0,0,1-1.5,1.5l-125.167.378Zm1.5-5.166v2.161l122.167-.369v-1.792l-17.858-14.5H155.91Z" transform="translate(0 6.047)" fill="#7a8293" />
            <path d="M183.04,186.313l-3.968,30.556h40.2l-2.975-30.556Z" transform="translate(0 2.9)" fill="#7a8293" />
            <path d="M111.361,64.163H287.4a4.614,4.614,0,0,1,4.614,4.614V184.458a4.614,4.614,0,0,1-4.614,4.614H111.361a4.614,4.614,0,0,1-4.614-4.614V68.777a4.614,4.614,0,0,1,4.614-4.614" transform="translate(0 3.047)" fill="#313e58" />
            <path d="M0,0H165.387V94.057H0Z" transform="translate(117 76.524)" fill="#b2cae7" />
            <path d="M199.38,173.242a4.339,4.339,0,1,1-4.339,4.338,4.338,4.338,0,0,1,4.339-4.338" transform="translate(0 3.047)" fill="#fff" />
            <path d="M136.552,231.222l18.826-19.657h87.515l18.826,19.283Z" transform="translate(0 6.047)" fill="#d1d5db" />
            <path d="M136.552,232.722a1.5,1.5,0,0,1-1.083-2.538l18.826-19.657a1.5,1.5,0,0,1,1.083-.462h87.515a1.5,1.5,0,0,1,1.073.452L262.792,229.8a1.5,1.5,0,0,1-1.069,2.548l-125.167.374Zm19.466-19.657-15.943,16.646,118.093-.353-15.907-16.294Z" transform="translate(0 6.047)" fill="#d1d5db" />
            <path d="M4.1,1.5H0A1.5,1.5,0,0,1-1.5,0,1.5,1.5,0,0,1,0-1.5H4.1A1.5,1.5,0,0,1,5.6,0,1.5,1.5,0,0,1,4.1,1.5Z" transform="translate(158.122 223.759)" fill="#313e58" />
            <path d="M4.1,1.5H0A1.5,1.5,0,0,1-1.5,0,1.5,1.5,0,0,1,0-1.5H4.1A1.5,1.5,0,0,1,5.6,0,1.5,1.5,0,0,1,4.1,1.5Z" transform="translate(169.344 223.759)" fill="#313e58" />
            <path d="M4.1,1.5H0A1.5,1.5,0,0,1-1.5,0,1.5,1.5,0,0,1,0-1.5H4.1A1.5,1.5,0,0,1,5.6,0,1.5,1.5,0,0,1,4.1,1.5Z" transform="translate(180.567 223.759)" fill="#313e58" />
            <path d="M4.1,1.5H0A1.5,1.5,0,0,1-1.5,0,1.5,1.5,0,0,1,0-1.5H4.1A1.5,1.5,0,0,1,5.6,0,1.5,1.5,0,0,1,4.1,1.5Z" transform="translate(152.078 230.414)" fill="#313e58" />
            <path d="M4.1,1.5H0A1.5,1.5,0,0,1-1.5,0,1.5,1.5,0,0,1,0-1.5H4.1A1.5,1.5,0,0,1,5.6,0,1.5,1.5,0,0,1,4.1,1.5Z" transform="translate(163.829 230.414)" fill="#313e58" />
            <path d="M4.1,1.5H0A1.5,1.5,0,0,1-1.5,0,1.5,1.5,0,0,1,0-1.5H4.1A1.5,1.5,0,0,1,5.6,0,1.5,1.5,0,0,1,4.1,1.5Z" transform="translate(175.052 230.414)" fill="#313e58" />
            <path d="M4.1,1.5H0A1.5,1.5,0,0,1-1.5,0,1.5,1.5,0,0,1,0-1.5H4.1A1.5,1.5,0,0,1,5.6,0,1.5,1.5,0,0,1,4.1,1.5Z" transform="translate(219.642 230.5)" fill="#313e58" />
            <path d="M4.1,1.5H0A1.5,1.5,0,0,1-1.5,0,1.5,1.5,0,0,1,0-1.5H4.1A1.5,1.5,0,0,1,5.6,0,1.5,1.5,0,0,1,4.1,1.5Z" transform="translate(231.394 230.5)" fill="#313e58" />
            <path d="M4.1,1.5H0A1.5,1.5,0,0,1-1.5,0,1.5,1.5,0,0,1,0-1.5H4.1A1.5,1.5,0,0,1,5.6,0,1.5,1.5,0,0,1,4.1,1.5Z" transform="translate(242.616 230.5)" fill="#313e58" />
            <path d="M25.533,1.5H0A1.5,1.5,0,0,1-1.5,0,1.5,1.5,0,0,1,0-1.5H25.533a1.5,1.5,0,0,1,1.5,1.5A1.5,1.5,0,0,1,25.533,1.5Z" transform="translate(186.274 230.5)" fill="#313e58" />
            <path d="M4.1,1.5H0A1.5,1.5,0,0,1-1.5,0,1.5,1.5,0,0,1,0-1.5H4.1A1.5,1.5,0,0,1,5.6,0,1.5,1.5,0,0,1,4.1,1.5Z" transform="translate(191.79 223.759)" fill="#313e58" />
            <path d="M4.1,1.5H0A1.5,1.5,0,0,1-1.5,0,1.5,1.5,0,0,1,0-1.5H4.1A1.5,1.5,0,0,1,5.6,0,1.5,1.5,0,0,1,4.1,1.5Z" transform="translate(203.012 223.759)" fill="#313e58" />
            <path d="M4.1,1.5H0A1.5,1.5,0,0,1-1.5,0,1.5,1.5,0,0,1,0-1.5H4.1A1.5,1.5,0,0,1,5.6,0,1.5,1.5,0,0,1,4.1,1.5Z" transform="translate(214.235 223.5)" fill="#313e58" />
            <path d="M4.1,1.5H0A1.5,1.5,0,0,1-1.5,0,1.5,1.5,0,0,1,0-1.5H4.1A1.5,1.5,0,0,1,5.6,0,1.5,1.5,0,0,1,4.1,1.5Z" transform="translate(225.458 223.5)" fill="#313e58" />
            <path d="M4.1,1.5H0A1.5,1.5,0,0,1-1.5,0,1.5,1.5,0,0,1,0-1.5H4.1A1.5,1.5,0,0,1,5.6,0,1.5,1.5,0,0,1,4.1,1.5Z" transform="translate(236.681 223.5)" fill="#313e58" />
            <path d="M604.764,2734.459H487.886l67.723-94.057h49.156v94.057Z" transform="translate(-322.782 -2563.877)" fill="#96b7df" />
            <path d="M604.764,2734.958H486.909l.57-.792,67.872-94.265h49.912v94.557h-.5Zm-115.9-1h115.4V2640.9h-48.4Z" transform="translate(-322.782 -2563.877)" fill="rgba(0,0,0,0)" />
            <path d="M-253.061-2503.741h55.342l-13.243,25.759h-30.18Z" transform="translate(427.19 2606.017)" fill="#ffd964" />
            <g transform="translate(161.721 91.761)">
                <path d="M164.9,77.39a6.51,6.51,0,0,0,5.72-3.367l13.24-24a2.833,2.833,0,0,0-2.472-4.208H126.125l-3.475-7.392h-10.7v5.685h7.081L132.767,73.06l-5.205,9.4a6.547,6.547,0,0,0,.116,6.522,6.468,6.468,0,0,0,5.606,3.19H176.8V86.491H131.842l5.007-9.1ZM134.7,63.9h8.221v7.8H138.4Zm21.565,7.8h-8.221V63.9h8.221Zm-8.221-20.2h8.221v7.267h-8.221ZM165.4,71.7h-4.007V63.9h8.314Zm7.136-12.928H161.395V51.507h15.156Zm-29.614-7.267v7.267H132.275l-3.446-7.267Z" transform="translate(-111.955 -38.427)" fill="#313e58" />
                <path d="M123.558,58.77a6.54,6.54,0,1,0,6.54,6.54,6.531,6.531,0,0,0-6.54-6.54" transform="translate(-102.229 -1.615)" fill="#313e58" />
                <path d="M136.271,58.77a6.54,6.54,0,1,0,6.543,6.54,6.528,6.528,0,0,0-6.543-6.54" transform="translate(-77.968 -1.615)" fill="#313e58" />
            </g>
        </g>
        <g transform="translate(11.941 150.6)">
            <rect width="73.805" height="13.033" transform="translate(4.74 74.712)" fill="#bfe2e2" />
            <path d="M71.336,84.457,60.947,141.305H14.705L2.008,84.457Z" transform="translate(5.023 5.405)" fill="#bfe2e2" />
            <path d="M22.764,72.028S37.506,40.761,26.586,27.3s-18.564,7.48-20.2,17.952S5.292,72.178,5.292,72.178Z" transform="translate(41.797 2.175)" fill="#bfe2e2" />
            <path d="M45.5,73.523S27.958,19.331,38.879,5.867s21.362,30.4,23,40.877,3.4,26.723,3.4,26.723Z" transform="translate(-28.332 0.68)" fill="#bfe2e2" />
            <path d="M5.674,4.67a.965.965,0,0,0,.521-1.778L.735-.6A.965.965,0,0,0-.3,1.028l5.46,3.49A.96.96,0,0,0,5.674,4.67Z" transform="translate(48.687 28.021)" fill="#bfe2e2" />
            <path d="M7.312,4.67a.965.965,0,0,0,.426-1.831L.641-.651A.965.965,0,1,0-.211,1.081l7.1,3.49A.961.961,0,0,0,7.312,4.67Z" transform="translate(45.957 32.758)" fill="#bfe2e2" />
            <path d="M8.406,2.676A.965.965,0,0,0,8.578.762L.388-.734a.965.965,0,1,0-.347,1.9l8.19,1.5A.971.971,0,0,0,8.406,2.676Z" transform="translate(43.773 38.244)" fill="#bfe2e2" />
            <path d="M.215,1.18h7.1a.965.965,0,0,0,0-1.93H.215a.965.965,0,1,0,0,1.93Z" transform="translate(46.055 43.719)" fill="#bfe2e2" />
            <path d="M10.044,3.424a.965.965,0,0,0,.214-1.906L.43-.726A.965.965,0,1,0,0,1.156L9.828,3.4A.968.968,0,0,0,10.044,3.424Z" transform="translate(43.052 47.459)" fill="#bfe2e2" />
            <path d="M10.6,1.385a.965.965,0,0,0,.019-1.929L.234-.75A.965.965,0,0,0,.2,1.179l10.381.206Z" transform="translate(42.618 55.59)" fill="#bfe2e2" />
            <path d="M5.856,2.829A.965.965,0,0,0,6.127.938L.486-.711A.965.965,0,0,0-.056,1.141L5.585,2.79A.965.965,0,0,0,5.856,2.829Z" transform="translate(44.632 50.849)" fill="#bfe2e2" />
            <path d="M4.051,6.744a.965.965,0,0,0,.794-1.513L1.009-.333A.965.965,0,1,0-.58.762L3.256,6.327A.964.964,0,0,0,4.051,6.744Z" transform="translate(54.335 22.409)" fill="#bfe2e2" />
            <path d="M.216,7.363a.965.965,0,0,0,.958-.86L1.85.32A.965.965,0,1,0-.068.11L-.744,6.293A.965.965,0,0,0,.11,7.357.976.976,0,0,0,.216,7.363Z" transform="translate(62.233 21.584)" fill="#bfe2e2" />
            <path d="M.214,5.714A.963.963,0,0,0,.97,5.35L4.58.816a.965.965,0,0,0-1.51-1.2L-.54,4.148A.965.965,0,0,0,.214,5.714Z" transform="translate(64.94 24.47)" fill="#bfe2e2" />
            <path d="M.215,3.241a.964.964,0,0,0,.3-.048L6.833,1.132A.965.965,0,0,0,6.234-.7L-.084,1.359a.965.965,0,0,0,.3,1.882Z" transform="translate(68.551 30.859)" fill="#bfe2e2" />
            <path d="M.214,1.385H.237l9.027-.206A.965.965,0,0,0,9.22-.75L.193-.544A.965.965,0,0,0,.214,1.385Z" transform="translate(67.197 34.981)" fill="#bfe2e2" />
            <path d="M.214,2.829A.966.966,0,0,0,.467,2.8L6.559,1.146a.965.965,0,1,0-.5-1.863L-.037.932a.965.965,0,0,0,.251,1.9Z" transform="translate(70.808 38.484)" fill="#bfe2e2" />
            <path d="M.214,1.8A.975.975,0,0,0,.32,1.792l5.641-.618a.965.965,0,1,0-.21-1.918L.11-.126A.965.965,0,0,0,.214,1.8Z" transform="translate(70.582 44.667)" fill="#bfe2e2" />
            <path d="M.214,1.592q.038,0,.077,0l5.19-.412A.965.965,0,0,0,5.328-.747L.138-.335A.965.965,0,0,0,.214,1.592Z" transform="translate(70.582 49.407)" fill="#bfe2e2" />
            <path d="M.215,1.18H8.339a.965.965,0,1,0,0-1.93H.215a.965.965,0,1,0,0,1.93Z" transform="translate(68.099 55.177)" fill="#bfe2e2" />
            <path d="M6.082,3.653A.965.965,0,0,0,6.457,1.8L.59-.674A.965.965,0,1,0-.16,1.1L5.707,3.577A.962.962,0,0,0,6.082,3.653Z" transform="translate(67.197 58.475)" fill="#bfe2e2" />
            <path d="M5.18,2.417a.965.965,0,0,0,.232-1.9L.448-.721A.965.965,0,0,0-.018,1.151L4.946,2.388A.967.967,0,0,0,5.18,2.417Z" transform="translate(66.52 63.627)" fill="#bfe2e2" />
            <path d="M6.307,3.447a.965.965,0,0,0,.337-1.869L.551-.689A.965.965,0,1,0-.122,1.119L5.971,3.386A.963.963,0,0,0,6.307,3.447Z" transform="translate(64.49 67.75)" fill="#bfe2e2" />
            <path d="M.214,2A.974.974,0,0,0,.335,2l6.544-.824A.965.965,0,1,0,6.638-.742L.094.082A.965.965,0,0,0,.214,2Z" transform="translate(44.181 60.742)" fill="#bfe2e2" />
            <path d="M.214,1.592l.054,0,7.446-.412A.965.965,0,1,0,7.608-.749L.162-.336A.965.965,0,0,0,.214,1.592Z" transform="translate(42.827 65.276)" fill="#bfe2e2" />
            <path d="M.214,2A.975.975,0,0,0,.318,2l7.673-.824A.965.965,0,1,0,7.784-.744L.112.08A.965.965,0,0,0,.214,2Z" transform="translate(42.601 69.192)" fill="#bfe2e2" />
            <path d="M.215,5.239a.961.961,0,0,0,.61-.218L5.791.962A.965.965,0,0,0,4.57-.532L-.4,3.528A.965.965,0,0,0,.215,5.239Z" transform="translate(21.41 5.707)" fill="#bfe2e2" />
            <path d="M.216,5.418a.96.96,0,0,0,.521-.153L7.329,1.026A.965.965,0,1,0,6.285-.6L-.307,3.642A.965.965,0,0,0,.216,5.418Z" transform="translate(23.112 10.113)" fill="#bfe2e2" />
            <path d="M.215,3.556a.965.965,0,0,0,.277-.041L8.428,1.139A.965.965,0,0,0,7.875-.709L-.062,1.667A.965.965,0,0,0,.215,3.556Z" transform="translate(24.652 15.322)" fill="#bfe2e2" />
            <path d="M.214,1.953A.975.975,0,0,0,.32,1.947l7.047-.773a.965.965,0,1,0-.21-1.918L.11.029a.965.965,0,0,0,.1,1.924Z" transform="translate(23.99 21.007)" fill="#bfe2e2" />
            <path d="M.215,4.478a.963.963,0,0,0,.317-.054L10,1.126A.965.965,0,0,0,9.363-.7L-.1,2.6A.965.965,0,0,0,.215,4.478Z" transform="translate(25.042 24.394)" fill="#bfe2e2" />
            <path d="M.214,2.514a.973.973,0,0,0,.125-.008L10.618,1.172A.965.965,0,1,0,10.37-.742L.091.593A.965.965,0,0,0,.214,2.514Z" transform="translate(25.719 32.419)" fill="#bfe2e2" />
            <path d="M.215,3.432a.962.962,0,0,0,.372-.075L5.974,1.105a.965.965,0,1,0-.744-1.78L-.157,1.576A.965.965,0,0,0,.215,3.432Z" transform="translate(28.22 28.55)" fill="#bfe2e2" />
            <path d="M.214,7.122A.965.965,0,0,0,1.071,6.6L4.154.659A.965.965,0,0,0,2.441-.229L-.642,5.713A.965.965,0,0,0,.214,7.122Z" transform="translate(16.953 0.75)" fill="#bfe2e2" />
            <path d="M1.693,7.245a.966.966,0,0,0,.938-1.194L1.152-.014A.965.965,0,0,0-.722.443L.756,6.508A.965.965,0,0,0,1.693,7.245Z" transform="translate(11.414 0.864)" fill="#bfe2e2" />
            <path d="M4.391,5.289a.965.965,0,0,0,.677-1.653L.892-.473A.965.965,0,1,0-.462.9L3.714,5.012A.962.962,0,0,0,4.391,5.289Z" transform="translate(6.19 4.344)" fill="#bfe2e2" />
            <path d="M6.758,2.538a.965.965,0,0,0,.2-1.91L.411-.73A.965.965,0,0,0,.019,1.16L6.561,2.518A.969.969,0,0,0,6.758,2.538Z" transform="translate(0.75 11.375)" fill="#bfe2e2" />
            <path d="M6.481,2.154A.965.965,0,0,0,6.628.236L.363-.739a.965.965,0,1,0-.3,1.907l6.264.974A.973.973,0,0,0,6.481,2.154Z" transform="translate(1.708 19.578)" fill="#bfe2e2" />
            <path d="M.215,1.18H5.9a.965.965,0,0,0,0-1.93H.215a.965.965,0,1,0,0,1.93Z" transform="translate(1.208 25.232)" fill="#bfe2e2" />
            <path d="M.214,1.336H.244l5.207-.156A.965.965,0,1,0,5.393-.75L.186-.594A.965.965,0,0,0,.214,1.336Z" transform="translate(2.274 29.733)" fill="#bfe2e2" />
            <path d="M.214,2.064A.975.975,0,0,0,.32,2.059l8.065-.885a.965.965,0,0,0-.21-1.918L.11.14a.965.965,0,0,0,.1,1.924Z" transform="translate(2.579 34.783)" fill="#bfe2e2" />
            <path d="M.216,4.274A.96.96,0,0,0,.688,4.15l5.5-3.094A.965.965,0,0,0,5.244-.626l-5.5,3.094A.965.965,0,0,0,.216,4.274Z" transform="translate(4.966 37.959)" fill="#bfe2e2" />
            <path d="M.215,2.948a.963.963,0,0,0,.335-.06L5.318,1.12A.965.965,0,1,0,4.647-.69L-.121,1.079a.965.965,0,0,0,.336,1.87Z" transform="translate(4.884 45.096)" fill="#bfe2e2" />
            <path d="M.215,3.162a.964.964,0,0,0,.309-.051L6.4,1.129A.965.965,0,0,0,5.782-.7L-.094,1.283A.965.965,0,0,0,.215,3.162Z" transform="translate(5.095 50.14)" fill="#bfe2e2" />
            <path d="M6.82,1.286a.965.965,0,0,0,.015-1.93L.23-.75A.965.965,0,1,0,.2,1.18L6.8,1.286Z" transform="translate(30.052 37.386)" fill="#bfe2e2" />
            <path d="M.214,1.581H.267l7.448-.4a.965.965,0,1,0-.1-1.927l-7.448.4A.965.965,0,0,0,.214,1.581Z" transform="translate(29.662 42.468)" fill="#bfe2e2" />
            <path d="M.215,1.2h0L7.941,1.18a.965.965,0,0,0,0-1.93L.213-.734a.965.965,0,0,0,0,1.93Z" transform="translate(30.174 46.741)" fill="#bfe2e2" />
            <path d="M.215,1.18H8.564a.965.965,0,0,0,0-1.93H.215a.965.965,0,0,0,0,1.93Z" transform="translate(7.85 55.177)" fill="#bfe2e2" />
            <path d="M.214,3.653A.968.968,0,0,0,.43,3.629L11.261,1.156a.965.965,0,0,0-.43-1.881L0,1.748A.965.965,0,0,0,.214,3.653Z" transform="translate(8.319 57.856)" fill="#bfe2e2" />
            <path d="M.214,3.241A.965.965,0,0,0,.488,3.2l7-2.061A.965.965,0,1,0,6.937-.711l-7,2.061A.965.965,0,0,0,.214,3.241Z" transform="translate(9.222 62.39)" fill="#bfe2e2" />
            <path d="M.216,3.859a.961.961,0,0,0,.413-.094L6.27,1.086A.965.965,0,0,0,5.442-.657L-.2,2.022A.965.965,0,0,0,.216,3.859Z" transform="translate(10.802 66.925)" fill="#bfe2e2" />
            <path d="M.214,1.592l.058,0,7-.412A.965.965,0,0,0,7.153-.748l-7,.412A.965.965,0,0,0,.214,1.592Z" transform="translate(31.77 51.571)" fill="#bfe2e2" />
            <path d="M8.791,1.489A.965.965,0,0,0,8.825-.44L.25-.749A.965.965,0,0,0,.18,1.179l8.575.309Z" transform="translate(30.528 57.135)" fill="#bfe2e2" />
            <path d="M.214,3.138a.969.969,0,0,0,.2-.02L9.888,1.16A.965.965,0,1,0,9.5-.73L.02,1.228a.965.965,0,0,0,.194,1.91Z" transform="translate(30.641 61.36)" fill="#bfe2e2" />
            <path d="M.215,1.18H9.8a.965.965,0,1,0,0-1.93H.215a.965.965,0,1,0,0,1.93Z" transform="translate(31.995 67.955)" fill="#bfe2e2" />
        </g>
    </g>
</svg>