<svg xmlns="http://www.w3.org/2000/svg" xmlns:xlink="http://www.w3.org/1999/xlink" width="400" height="320" viewBox="0 0 400 320">
    <defs>
        <clipPath >
            <rect width="161.677" height="205.297" fill="none" />
        </clipPath>
        <clipPath >
            <path d="M35.89,26.117V81.4a2.158,2.158,0,0,0,4.316,0V26.117a2.158,2.158,0,0,0-4.316,0" transform="translate(-35.89 -23.97)" fill="none" />
        </clipPath>
        <clipPath >
            <rect width="400" height="320" />
        </clipPath>
    </defs>
    <g clip-path="url(#d)">
        <rect width="400" height="320" fill="transparent" />
        <path d="M399.164,1H0A1,1,0,0,1-1,0,1,1,0,0,1,0-1H399.164a1,1,0,0,1,1,1A1,1,0,0,1,399.164,1Z" transform="translate(0 206.012)" fill="#5bb3b3" />
        <path d="M397.617,1H0A1,1,0,0,1-1,0,1,1,0,0,1,0-1H397.617a1,1,0,0,1,1,1A1,1,0,0,1,397.617,1Z" transform="translate(1.547 298.195)" fill="#5bb3b3" />
        <path d="M397.617,1H0A1,1,0,0,1-1,0,1,1,0,0,1,0-1H397.617a1,1,0,0,1,1,1A1,1,0,0,1,397.617,1Z" transform="translate(1.547 284.195)" fill="#5bb3b3" />
        <g transform="translate(191.787 267.05) rotate(-14)">
            <path d="M0-1.25H59.717A1.25,1.25,0,0,1,60.967,0V6.069a1.25,1.25,0,0,1-1.25,1.25H0a1.25,1.25,0,0,1-1.25-1.25V0A1.25,1.25,0,0,1,0-1.25Zm58.467,2.5H1.25V4.819H58.467Z" transform="translate(11.639 1.026)" fill="#5bb3b3" />
            <path d="M62.017,8.569H56.7a1.25,1.25,0,0,1,0-2.5h4.066V2.5H56.7a1.25,1.25,0,0,1,0-2.5h5.316a1.25,1.25,0,0,1,1.25,1.25V7.319A1.25,1.25,0,0,1,62.017,8.569Z" transform="translate(17.484 -0.224)" fill="#5bb3b3" />
            <path d="M52.223,13.558c-2.458,0-5.35-.066-8.646-.249a1.25,1.25,0,0,1,.138-2.5,124.735,124.735,0,0,0,16.907-.07V7.856a1.25,1.25,0,1,1,2.5,0v4.021a1.25,1.25,0,0,1-1.1,1.24A86.792,86.792,0,0,1,52.223,13.558Z" transform="translate(13.281 -0.486)" fill="#5bb3b3" />
            <path d="M9.68,8.569a1.248,1.248,0,0,1-.412-.07L.838,5.556a1.25,1.25,0,0,1,0-2.359L9.724.071a1.25,1.25,0,1,1,.829,2.358L5.03,4.372l5.062,1.767A1.25,1.25,0,0,1,9.68,8.569Z" transform="translate(1.819 -0.224)" fill="#5bb3b3" />
        </g>
        <g transform="translate(-4.4 -3.999)">
            <path d="M742.047-2549.178a1,1,0,0,1-.707-.293l-32.955-32.955-32.955,32.955a1,1,0,0,1-1.414,0,1,1,0,0,1,0-1.414l34.369-34.369.707.707,33.662,33.662a1,1,0,0,1,0,1.414A1,1,0,0,1,742.047-2549.178Z" transform="translate(-402.449 2572.35)" fill="#5bb3b3" />
            <path d="M110.684,90.912H8.708A4.72,4.72,0,0,1,4,86.191V30H115.391V86.191A4.72,4.72,0,0,1,110.684,90.912ZM6,32V86.191a2.717,2.717,0,0,0,2.708,2.721H110.684a2.717,2.717,0,0,0,2.708-2.721V32Z" transform="translate(245.993 11.351)" fill="#5bb3b3" />
            <path d="M-418.609,2653.224H-529v-16.5a4.72,4.72,0,0,1,4.708-4.721h101.975a4.72,4.72,0,0,1,4.708,4.721v16.5Zm-108.391-2h107.391v-14.5a2.718,2.718,0,0,0-2.708-2.721H-524.292A2.718,2.718,0,0,0-527,2636.72Zm95.029-3.29a4.78,4.78,0,0,1-4.768-4.78,4.779,4.779,0,0,1,4.768-4.779,4.778,4.778,0,0,1,4.767,4.779A4.779,4.779,0,0,1-431.971,2647.934Zm0-7.56a2.777,2.777,0,0,0-2.768,2.779,2.777,2.777,0,0,0,2.768,2.78,2.777,2.777,0,0,0,2.767-2.78A2.776,2.776,0,0,0-431.971,2640.374Zm-20.667,7.56a4.779,4.779,0,0,1-4.767-4.78,4.779,4.779,0,0,1,4.767-4.779,4.779,4.779,0,0,1,4.767,4.779A4.779,4.779,0,0,1-452.638,2647.934Zm0-7.56a2.777,2.777,0,0,0-2.767,2.779,2.777,2.777,0,0,0,2.767,2.78,2.777,2.777,0,0,0,2.767-2.78A2.776,2.776,0,0,0-452.638,2640.374Zm-20.667,7.56a4.779,4.779,0,0,1-4.767-4.78,4.779,4.779,0,0,1,4.767-4.779,4.779,4.779,0,0,1,4.767,4.779A4.779,4.779,0,0,1-473.3,2647.934Zm0-7.56a2.777,2.777,0,0,0-2.767,2.779,2.777,2.777,0,0,0,2.767,2.78,2.777,2.777,0,0,0,2.767-2.78A2.777,2.777,0,0,0-473.3,2640.374Zm-20.667,7.56a4.779,4.779,0,0,1-4.767-4.78,4.779,4.779,0,0,1,4.767-4.779,4.779,4.779,0,0,1,4.767,4.779A4.779,4.779,0,0,1-493.971,2647.934Zm0-7.56a2.777,2.777,0,0,0-2.767,2.779,2.777,2.777,0,0,0,2.767,2.78,2.777,2.777,0,0,0,2.767-2.78A2.777,2.777,0,0,0-493.971,2640.374Zm-20.666,7.56a4.779,4.779,0,0,1-4.767-4.78,4.779,4.779,0,0,1,4.767-4.779,4.778,4.778,0,0,1,4.767,4.779A4.779,4.779,0,0,1-514.638,2647.934Zm0-7.56a2.776,2.776,0,0,0-2.767,2.779,2.777,2.777,0,0,0,2.767,2.78,2.777,2.777,0,0,0,2.767-2.78A2.776,2.776,0,0,0-514.638,2640.374Z" transform="translate(778.994 -2609.873)" fill="#5bb3b3" />
            <path d="M-418.386,2653.2H-529v-16.482a4.721,4.721,0,0,1,4.715-4.716H-422.1a4.721,4.721,0,0,1,4.715,4.716V2653.2Zm-108.614-2h107.614v-14.482A2.719,2.719,0,0,0-422.1,2634H-524.285a2.719,2.719,0,0,0-2.715,2.716Zm95.225-3.283a4.781,4.781,0,0,1-4.776-4.775,4.78,4.78,0,0,1,4.776-4.774A4.78,4.78,0,0,1-427,2643.14,4.78,4.78,0,0,1-431.775,2647.915Zm0-7.55a2.778,2.778,0,0,0-2.776,2.774,2.778,2.778,0,0,0,2.776,2.775A2.778,2.778,0,0,0-429,2643.14,2.778,2.778,0,0,0-431.775,2640.365Zm-20.709,7.55a4.78,4.78,0,0,1-4.775-4.775,4.78,4.78,0,0,1,4.775-4.774,4.78,4.78,0,0,1,4.775,4.774A4.78,4.78,0,0,1-452.484,2647.915Zm0-7.55a2.778,2.778,0,0,0-2.775,2.774,2.778,2.778,0,0,0,2.775,2.775,2.778,2.778,0,0,0,2.775-2.775A2.778,2.778,0,0,0-452.484,2640.365Zm-20.709,7.55a4.78,4.78,0,0,1-4.775-4.775,4.78,4.78,0,0,1,4.775-4.774,4.78,4.78,0,0,1,4.775,4.774A4.78,4.78,0,0,1-473.193,2647.915Zm0-7.55a2.778,2.778,0,0,0-2.775,2.774,2.778,2.778,0,0,0,2.775,2.775,2.778,2.778,0,0,0,2.775-2.775A2.778,2.778,0,0,0-473.193,2640.365Zm-20.709,7.55a4.78,4.78,0,0,1-4.775-4.775,4.78,4.78,0,0,1,4.775-4.774,4.78,4.78,0,0,1,4.775,4.774A4.78,4.78,0,0,1-493.9,2647.915Zm0-7.55a2.778,2.778,0,0,0-2.775,2.774,2.778,2.778,0,0,0,2.775,2.775,2.778,2.778,0,0,0,2.775-2.775A2.778,2.778,0,0,0-493.9,2640.365Zm-20.708,7.55a4.78,4.78,0,0,1-4.775-4.775,4.78,4.78,0,0,1,4.775-4.774,4.78,4.78,0,0,1,4.774,4.774A4.78,4.78,0,0,1-514.61,2647.915Zm0-7.55a2.778,2.778,0,0,0-2.775,2.774,2.778,2.778,0,0,0,2.775,2.775,2.778,2.778,0,0,0,2.774-2.775A2.778,2.778,0,0,0-514.61,2640.365Z" transform="translate(778.771 -2609.767)" fill="#5bb3b3" />
            <path d="M-500.729,2707.927h-13.35a3.042,3.042,0,0,1-3.039-3.04v-4.9a3.043,3.043,0,0,1,3.039-3.04h13.35a3.043,3.043,0,0,1,3.039,3.04v4.9A3.042,3.042,0,0,1-500.729,2707.927Z" transform="translate(775.32 -2647.418)" fill="#bfe2e2" />
            <path d="M-500.729,2707.927h-13.35a3.042,3.042,0,0,1-3.039-3.04v-4.9a3.043,3.043,0,0,1,3.039-3.04h13.35a3.043,3.043,0,0,1,3.039,3.04v4.9A3.042,3.042,0,0,1-500.729,2707.927Z" transform="translate(800.71 -2647.418)" fill="#bfe2e2" />
            <path d="M-500.729,2707.927h-13.35a3.042,3.042,0,0,1-3.039-3.04v-4.9a3.043,3.043,0,0,1,3.039-3.04h13.35a3.043,3.043,0,0,1,3.039,3.04v4.9A3.042,3.042,0,0,1-500.729,2707.927Z" transform="translate(825.482 -2647.418)" fill="#bfe2e2" />
            <path d="M-500.729,2707.927h-13.35a3.042,3.042,0,0,1-3.039-3.04v-4.9a3.043,3.043,0,0,1,3.039-3.04h13.35a3.043,3.043,0,0,1,3.039,3.04v4.9A3.042,3.042,0,0,1-500.729,2707.927Z" transform="translate(850.873 -2647.418)" fill="#bfe2e2" />
            <path d="M8.976,16.839l-.253-1.984a6.139,6.139,0,0,1,.792-.053v2A4.3,4.3,0,0,0,8.976,16.839Z" transform="translate(245.407 6.95)" fill="#5bb3b3" />
            <path d="M8.128,16.979l-.541-1.925a5.011,5.011,0,0,1,.49-.113l.181-.031.309,1.976-.127.021C8.332,16.928,8.227,16.952,8.128,16.979Z" transform="translate(245.729 6.918)" fill="#5bb3b3" />
            <path d="M-500.729,2707.927h-13.35a3.042,3.042,0,0,1-3.039-3.04v-4.9a3.043,3.043,0,0,1,3.039-3.04h13.35a3.043,3.043,0,0,1,3.039,3.04v4.9A3.042,3.042,0,0,1-500.729,2707.927Z" transform="translate(775.32 -2614.389)" fill="#bfe2e2" />
            <path d="M-500.729,2707.927h-13.35a3.042,3.042,0,0,1-3.039-3.04v-4.9a3.043,3.043,0,0,1,3.039-3.04h13.35a3.043,3.043,0,0,1,3.039,3.04v4.9A3.042,3.042,0,0,1-500.729,2707.927Z" transform="translate(775.32 -2630.99)" fill="#bfe2e2" />
            <path d="M-500.729,2707.927h-13.35a3.042,3.042,0,0,1-3.039-3.04v-4.9a3.043,3.043,0,0,1,3.039-3.04h13.35a3.043,3.043,0,0,1,3.039,3.04v4.9A3.042,3.042,0,0,1-500.729,2707.927Z" transform="translate(800.71 -2614.389)" fill="#bfe2e2" />
            <path d="M-500.729,2707.927h-13.35a3.042,3.042,0,0,1-3.039-3.04v-4.9a3.043,3.043,0,0,1,3.039-3.04h13.35a3.043,3.043,0,0,1,3.039,3.04v4.9A3.042,3.042,0,0,1-500.729,2707.927Z" transform="translate(800.71 -2630.99)" fill="#bfe2e2" />
            <path d="M-500.729,2707.927h-13.35a3.042,3.042,0,0,1-3.039-3.04v-4.9a3.043,3.043,0,0,1,3.039-3.04h13.35a3.043,3.043,0,0,1,3.039,3.04v4.9A3.042,3.042,0,0,1-500.729,2707.927Z" transform="translate(825.482 -2614.389)" fill="#bfe2e2" />
            <path d="M-500.729,2707.927h-13.35a3.042,3.042,0,0,1-3.039-3.04v-4.9a3.043,3.043,0,0,1,3.039-3.04h13.35a3.043,3.043,0,0,1,3.039,3.04v4.9A3.042,3.042,0,0,1-500.729,2707.927Z" transform="translate(825.482 -2630.99)" fill="#bfe2e2" />
            <path d="M-500.729,2707.927h-13.35a3.042,3.042,0,0,1-3.039-3.04v-4.9a3.043,3.043,0,0,1,3.039-3.04h13.35a3.043,3.043,0,0,1,3.039,3.04v4.9A3.042,3.042,0,0,1-500.729,2707.927Z" transform="translate(850.838 -2614.389)" fill="#bfe2e2" />
            <path d="M-500.729,2707.927h-13.35a3.042,3.042,0,0,1-3.039-3.04v-4.9a3.043,3.043,0,0,1,3.039-3.04h13.35a3.043,3.043,0,0,1,3.039,3.04v4.9A3.042,3.042,0,0,1-500.729,2707.927Z" transform="translate(850.873 -2630.99)" fill="#bfe2e2" />
            <path d="M57.144,92.662a2.011,2.011,0,0,1-1.423-3.432L67.657,77.294A2.011,2.011,0,0,1,70.5,80.138L58.566,92.073A2,2,0,0,1,57.144,92.662ZM69.079,78.705a.01.01,0,0,0-.009,0L57.136,90.643a.012.012,0,0,0,0,.016.013.013,0,0,0,.015,0L69.087,78.724a.012.012,0,0,0,0-.016S69.084,78.705,69.079,78.705Z" transform="translate(229.99 -13.235)" fill="#5bb3b3" />
            <path d="M69.079,92.662a2,2,0,0,1-1.422-.589L55.722,80.138a2.011,2.011,0,0,1,2.844-2.845L70.5,89.229a2.011,2.011,0,0,1-1.422,3.433ZM57.144,78.705a.01.01,0,0,0-.009,0,.012.012,0,0,0,0,.016L69.071,90.659a.012.012,0,0,0,.016,0,.012.012,0,0,0,0-.016L57.152,78.708A.009.009,0,0,0,57.144,78.705Z" transform="translate(229.99 -13.235)" fill="#5bb3b3" />
            <path d="M0,11.919a1,1,0,0,1-1-1V0A1,1,0,0,1,0-1,1,1,0,0,1,1,0V10.919A1,1,0,0,1,0,11.919Z" transform="translate(264.085 21.912)" fill="#5bb3b3" />
            <path d="M0,11.919a1,1,0,0,1-1-1V0A1,1,0,0,1,0-1,1,1,0,0,1,1,0V10.919A1,1,0,0,1,0,11.919Z" transform="translate(305.578 21.912)" fill="#5bb3b3" />
            <path d="M0,11.919a1,1,0,0,1-1-1V0A1,1,0,0,1,0-1,1,1,0,0,1,1,0V10.919A1,1,0,0,1,0,11.919Z" transform="translate(284.522 21.912)" fill="#5bb3b3" />
            <path d="M0,11.919a1,1,0,0,1-1-1V0A1,1,0,0,1,0-1,1,1,0,0,1,1,0V10.919A1,1,0,0,1,0,11.919Z" transform="translate(326.014 21.912)" fill="#5bb3b3" />
            <path d="M0,11.919a1,1,0,0,1-1-1V0A1,1,0,0,1,0-1,1,1,0,0,1,1,0V10.919A1,1,0,0,1,0,11.919Z" transform="translate(347.07 21.912)" fill="#5bb3b3" />
        </g>
        <g transform="translate(639.494 947.46)">
            <path d="M29.309-1a30.317,30.317,0,0,1,11.8,58.236,30.317,30.317,0,0,1-23.6-55.854A30.12,30.12,0,0,1,29.309-1Zm0,58.618A28.317,28.317,0,0,0,40.328,3.224,28.317,28.317,0,0,0,18.29,55.394,28.131,28.131,0,0,0,29.309,57.618Z" transform="translate(-585.13 -923.9)" fill="#5bb3b3" />
            <path d="M356.179,42.051a2.642,2.642,0,1,1,2.642-2.642A2.645,2.645,0,0,1,356.179,42.051Zm0-3.284a.642.642,0,1,0,.642.642A.643.643,0,0,0,356.179,38.767Z" transform="translate(-912 -934)" fill="#5bb3b3" />
            <path d="M39.312-1A40.856,40.856,0,0,1,55,2.094a40.241,40.241,0,0,1,12.813,8.44,39.24,39.24,0,0,1,8.644,12.527,38.72,38.72,0,0,1,0,30.7,39.24,39.24,0,0,1-8.644,12.527A40.241,40.241,0,0,1,55,74.724a41.3,41.3,0,0,1-31.368,0,40.241,40.241,0,0,1-12.813-8.44A39.24,39.24,0,0,1,2.172,53.757a38.72,38.72,0,0,1,0-30.7,39.24,39.24,0,0,1,8.644-12.527,40.241,40.241,0,0,1,12.813-8.44A40.856,40.856,0,0,1,39.312-1Zm0,76.818a38.866,38.866,0,0,0,14.92-2.943,38.249,38.249,0,0,0,12.179-8.022,37.25,37.25,0,0,0,8.206-11.891,36.72,36.72,0,0,0,0-29.106,37.249,37.249,0,0,0-8.206-11.891A38.249,38.249,0,0,0,54.232,3.943a39.3,39.3,0,0,0-29.84,0,38.249,38.249,0,0,0-12.179,8.022A37.249,37.249,0,0,0,4.007,23.856a36.72,36.72,0,0,0,0,29.106,37.25,37.25,0,0,0,8.206,11.891,38.249,38.249,0,0,0,12.179,8.022A38.866,38.866,0,0,0,39.312,75.818Z" transform="translate(-595.133 -933)" fill="#5bb3b3" />
            <path d="M356.532,40.409a1,1,0,0,1-1-1l.025-24.582a1,1,0,0,1,1-1h0a1,1,0,0,1,1,1l-.024,23.306,14.217-3.481a1,1,0,1,1,.476,1.943L356.77,40.381A1,1,0,0,1,356.532,40.409Z" transform="translate(-912 -934)" fill="#5bb3b3" />
            <path d="M7.712,1H0A1,1,0,0,1-1,0,1,1,0,0,1,0-1H7.712a1,1,0,0,1,1,1A1,1,0,0,1,7.712,1Z" transform="translate(-593.725 -894.732)" fill="#5bb3b3" />
            <path d="M0,8.712a1,1,0,0,1-1-1V0A1,1,0,0,1,0-1,1,1,0,0,1,1,0V7.712A1,1,0,0,1,0,8.712Z" transform="translate(-555.54 -932.916)" fill="#5bb3b3" />
            <path d="M0,8.712a1,1,0,0,1-1-1V0A1,1,0,0,1,0-1,1,1,0,0,1,1,0V7.712A1,1,0,0,1,0,8.712Z" transform="translate(-555.54 -864.259)" fill="#5bb3b3" />
            <path d="M7.712,1H0A1,1,0,0,1-1,0,1,1,0,0,1,0-1H7.712a1,1,0,0,1,1,1A1,1,0,0,1,7.712,1Z" transform="translate(-593.725 -894.732)" fill="#5bb3b3" />
            <path d="M7.712,1H0A1,1,0,0,1-1,0,1,1,0,0,1,0-1H7.712a1,1,0,0,1,1,1A1,1,0,0,1,7.712,1Z" transform="translate(-525.068 -894.732)" fill="#5bb3b3" />
        </g>
        <g transform="translate(-68.815 114.703)">
            <g clip-path="url(#a)">
                <path d="M30.934,70.41c0,11.021,7.265,20.039,16.144,20.039H73.734c8.878,0,16.144-9.018,16.144-20.039v-34.7H30.934Z" transform="translate(16.451 18.551)" fill="#c0e2e2" />
                <path d="M47.58,63.822A1.53,1.53,0,0,1,46.1,62.685a46.035,46.035,0,0,1,3.949-33.207c1.279-2.378,3.371-5.768,6.749-7.763,4.275-2.526,9.471-2.238,14.057-1.988l.352.02c10.069.549,24.458.249,33.042-8.637a1.541,1.541,0,0,1,2.166-.046,1.51,1.51,0,0,1,.044,2.149C97,23,81.716,23.364,71.038,22.782l-.354-.02c-4.352-.239-8.849-.488-12.32,1.565-2.071,1.222-3.854,3.314-5.614,6.583a42.987,42.987,0,0,0-3.687,31.008,1.519,1.519,0,0,1-1.1,1.854,1.56,1.56,0,0,1-.388.05" transform="translate(23.732 5.529)" fill="#c0e1e2" />
                <path d="M10.629,87.162a1.519,1.519,0,0,1-.129-3.033c5.965-.506,10.291-5.6,12.351-10.205,1.97-4.4,2.714-9.371,3.434-14.182.165-1.1.329-2.2.507-3.293.962-5.894,2.537-12.6,6.931-17.651a31.964,31.964,0,0,1,6.856-5.641A23.532,23.532,0,0,1,46.241,30.3c5.534-1.738,12.328-.05,17.731,4.41,4.738,3.911,8.04,9.335,10.955,14.12a1.514,1.514,0,0,1-.519,2.086,1.539,1.539,0,0,1-2.1-.515c-2.926-4.8-5.951-9.771-10.294-13.355-3.61-2.98-9.405-5.557-14.846-3.848a20.728,20.728,0,0,0-4.914,2.5,29.076,29.076,0,0,0-6.21,5.08c-3.9,4.474-5.332,10.673-6.224,16.148-.176,1.08-.339,2.167-.5,3.255-.751,5.011-1.527,10.195-3.664,14.969-2.417,5.394-7.6,11.382-14.892,12a1.3,1.3,0,0,1-.132.006" transform="translate(4.838 15.395)" fill="#c0e1e2" />
                <path d="M64.04,72.066a1.535,1.535,0,0,1-1.434-.985,157.147,157.147,0,0,1-9.154-37.469c-.325-2.779-1.043-6.555-3.52-7.233a7.327,7.327,0,0,0-1.772-.16c-.427-.006-.858-.015-1.284-.052a9.5,9.5,0,0,1-6.515-3.635A9.357,9.357,0,0,1,38.31,15.4a1.537,1.537,0,0,1,1.739-1.281,1.522,1.522,0,0,1,1.293,1.725,6.331,6.331,0,0,0,1.425,4.806,6.434,6.434,0,0,0,4.379,2.491c.352.03.706.035,1.062.04a9.964,9.964,0,0,1,2.543.269c4.75,1.3,5.473,7.485,5.746,9.813A154.133,154.133,0,0,0,65.474,70.01a1.518,1.518,0,0,1-.895,1.959,1.561,1.561,0,0,1-.539.1" transform="translate(20.326 7.328)" fill="#c0e1e2" />
                <path d="M49.819,4.427c4.814-1.1,10.576,2.471,12.112,8.435s-5.954,15.478-5.954,15.478S44.805,23.556,43.269,17.591,45,5.523,49.819,4.427" transform="translate(22.807 2.198)" fill="#c0e2e2" />
                <path d="M34.166,7.065C37,5.22,41.569,6.153,43.991,9.63S43.879,21,43.879,21s-8.342-.436-10.765-3.913S31.33,8.91,34.166,7.065" transform="translate(16.814 3.189)" fill="#c0e2e2" />
                <path d="M35.721,27.466c-1.089-3.185.967-7.338,4.968-8.792s11.07,2.96,11.07,2.96-2.52,7.9-6.519,9.357-8.429-.34-9.519-3.525" transform="translate(18.843 9.549)" fill="#c0e2e2" />
                <path d="M66.935,2.6c4.428.971,7.794,6.18,6.7,11.728S62.552,24.848,62.552,24.848s-7.37-8.333-6.276-13.881S62.506,1.634,66.935,2.6" transform="translate(29.869 1.274)" fill="#c0e2e2" />
                <path d="M75.761,2.567c4.226-.693,9.021,2.7,10.027,7.946S79.8,23.591,79.8,23.591s-9.411-4.736-10.418-9.98S71.535,3.26,75.761,2.567" transform="translate(36.796 1.287)" fill="#c0e2e2" />
                <path d="M89.851.1c3.626.7,6.475,4.873,5.7,9.412s-8.8,8.788-8.8,8.788-6.173-6.633-5.4-11.172S86.226-.6,89.851.1" transform="translate(43.225 0)" fill="#c0e2e2" />
                <path d="M24.168,19.134c3.92-2.981,10.655-2.112,14.551,2.682s1.066,16.531,1.066,16.531-12.166.252-16.061-4.539-3.476-11.691.444-14.674" transform="translate(11.171 9.044)" fill="#c0e2e2" />
                <path d="M11.583,31.553c2.863-3.992,9.558-5.125,14.7-1.681S32.2,45.365,32.2,45.365s-11.554,3.788-16.7.343S8.72,35.545,11.583,31.553" transform="translate(5.416 14.457)" fill="#c0e2e2" />
                <path d="M7.282,49.012c.57-4.176,5.208-7.7,10.513-7.116s10.753,9.443,10.753,9.443-7.265,7.472-12.57,6.891-9.266-5.042-8.7-9.218" transform="translate(3.844 21.735)" fill="#c0e2e2" />
                <path d="M7.61,55.02c2.376-2.94,7.566-3.518,11.361-.649s3.856,12.153,3.856,12.153-9.038,2.4-12.833-.465S5.235,57.96,7.61,55.02" transform="translate(3.36 27.273)" fill="#c0e2e2" />
                <path d="M1.291,60.573c2.376-2.94,7.566-3.518,11.361-.649s3.856,12.153,3.856,12.153-9.038,2.4-12.833-.467-4.759-8.1-2.383-11.038" transform="translate(0 30.158)" fill="#c0e2e2" />
                <path d="M118.727,186.119a1.526,1.526,0,0,1-.735-.188c-30.674-16.729-25.1-48-19.72-78.251,4.346-24.4,8.84-49.636-6.273-66.4-6.889-7.64-23.625-11.024-32.615-3.939-4.338,3.422-4.528,8.19-.553,13.788a1.512,1.512,0,0,1-.369,2.118,1.537,1.537,0,0,1-2.134-.368c-4.922-6.929-4.5-13.459,1.15-17.917,8.664-6.833,27.349-6.2,36.8,4.291,16.107,17.867,11.481,43.839,7.008,68.959-5.438,30.536-10.572,59.378,18.176,75.059a1.51,1.51,0,0,1,.605,2.062,1.531,1.531,0,0,1-1.343.789" transform="translate(28.141 15.835)" fill="#c0e1e2" />
                <path d="M110.8,58.2c-.123,4.9-5.032,9.553-11.237,9.553S85.917,58.2,85.917,58.2s7.438-9.553,13.644-9.553S110.918,53.3,110.8,58.2" transform="translate(45.691 25.273)" fill="#c0e1e2" />
                <path d="M104.865,81.1c-3.094,3.819-9.845,4.562-14.776.824S85.1,66.116,85.1,66.116s11.758-3.112,16.689.626,6.175,10.54,3.08,14.358" transform="translate(45.254 33.72)" fill="#c0e1e2" />
                <path d="M99.682,97.545C95.863,100.652,89.1,100,85.05,95.341s-1.615-16.489-1.615-16.489,12.15-.65,16.2,4.012,3.862,11.573.043,14.68" transform="translate(43.985 40.952)" fill="#c0e1e2" />
                <path d="M98.42,109.764c-2.924,3.381-9.079,3.861-13.451.322s-4.075-14.509-4.075-14.509,10.776-2.489,15.146,1.05,5.3,9.756,2.379,13.137" transform="translate(43.018 49.216)" fill="#c0e1e2" />
                <path d="M100.566,116.02c-.342,3.807-4.4,7.188-9.231,6.879S81.2,114.783,81.2,114.783s6.273-7.067,11.1-6.759,8.606,4.189,8.264,8" transform="translate(43.181 56.12)" fill="#c0e1e2" />
                <path d="M105.75,122.97c.911,3.714-1.834,8.209-6.507,9.459s-12.233-4.448-12.233-4.448,3.647-8.695,8.321-9.944,9.508,1.219,10.419,4.933" transform="translate(46.272 61.157)" fill="#c0e1e2" />
                <path d="M110.875,131.314c.76,3.1-1.529,6.844-5.424,7.885s-10.2-3.708-10.2-3.708,3.039-7.247,6.936-8.289,7.926,1.017,8.685,4.112" transform="translate(50.656 65.947)" fill="#c0e1e2" />
                <path d="M66.472,117.325c-2.694,2.491-7.757,2.322-10.992-.959s-1.982-12.2-1.982-12.2,9.012-1.05,12.248,2.232,3.421,8.432.726,10.923" transform="translate(28.323 54.04)" fill="#c0e2e2" />
                <path d="M61.544,184.2a1.5,1.5,0,0,1-.558-.1c-8.3-3.225-11.775-12.976-10.914-20.943.9-8.335,5.564-15.895,9.31-21.97l.689-1.114C74.257,117.078,88.925,93.309,90.2,66.8c.752-15.55-4.413-28.688-13.817-35.144-7.18-4.928-16.94-5.337-23.211-.969a15.261,15.261,0,0,0-6.193,10.9,12.211,12.211,0,0,0,3.007,9.853,1.514,1.514,0,0,1-.07,2.149,1.541,1.541,0,0,1-2.166-.071,15.189,15.189,0,0,1-3.819-12.243,18.342,18.342,0,0,1,7.48-13.07c7.4-5.153,18.388-4.759,26.718.959,10.278,7.057,15.935,21.184,15.133,37.788-1.317,27.287-16.193,51.393-30.581,74.7L62,142.767c-4.562,7.394-8.111,13.614-8.878,20.705-.737,6.82,2.112,15.12,8.986,17.789a1.517,1.517,0,0,1,.869,1.968,1.533,1.533,0,0,1-1.428.966" transform="translate(23.311 12.774)" fill="#c0e2e2" />
                <path d="M89.184,88.712c-3.362,3.589-10.148,3.849-14.8-.229S70.55,72.36,70.55,72.36s11.953-2.267,16.6,1.811,5.4,10.951,2.034,14.541" transform="translate(37.49 37.269)" fill="#c0e2e2" />
                <path d="M98.865,45.508c.3,4.891-4.2,9.942-10.38,10.464S74.074,47.6,74.074,47.6s6.6-10.143,12.78-10.664,11.714,3.683,12.011,8.575" transform="translate(39.393 19.166)" fill="#c0e2e2" />
                <path d="M81.894,99.834c-3.093,3.3-9.335,3.541-13.609-.211s-3.531-14.829-3.531-14.829,10.994-2.085,15.267,1.667,4.965,10.073,1.872,13.374" transform="translate(34.41 43.755)" fill="#c0e2e2" />
                <path d="M71.21,109.928c-3.344,2.041-8.6.81-11.285-3.293s.513-13.158.513-13.158,9.64.783,12.326,4.885,1.789,9.525-1.555,11.565" transform="translate(31.297 48.567)" fill="#c0e2e2" />
                <path d="M63.576,122.318c-.574,2.9-3.972,5.176-7.664,4.548s-7.135-7.06-7.135-7.06,5.4-4.933,9.1-4.306,6.277,3.917,5.7,6.818" transform="translate(25.94 59.98)" fill="#c0e2e2" />
                <path d="M67.6,130.744c-.574,2.9-3.972,5.176-7.664,4.548s-7.135-7.06-7.135-7.06,5.4-4.932,9.1-4.306,6.277,3.917,5.7,6.818" transform="translate(28.078 64.358)" fill="#c0e2e2" />
            </g>
        </g>
        <g transform="translate(12.79 -42.55)">
            <rect width="56.877" height="10.93" transform="translate(309.357 225.548)" fill="#c0e2e2" />
            <path d="M10.069,93.165l7.96,48.346H53.463l9.729-48.346Z" transform="translate(301.12 145.02)" fill="#c0e2e2" />
            <g transform="translate(334.754 175.344)" clip-path="url(#b)">
                <rect width="21.717" height="76.893" transform="translate(-8.7 -8.655)" fill="#c0e2e2" />
            </g>
            <path d="M34.63,51.826c0-.028.012-.054.013-.082A22.6,22.6,0,0,0,1.122,31.358,2.156,2.156,0,0,0,.007,33.191,22.6,22.6,0,0,0,33.528,53.578c.025-.014.044-.036.068-.05L16.2,44.312a2.158,2.158,0,0,1,2.242-3.688" transform="translate(302 150.667)" fill="#c0e2e2" />
            <path d="M40.238,64.4c.024.019.04.045.065.064A24.763,24.763,0,0,0,79.814,47.517a2.364,2.364,0,0,0-.927-2.162A24.763,24.763,0,0,0,39.376,62.3c0,.031,0,.061,0,.092l19.286-9.656a2.365,2.365,0,1,1,1.864,4.346" transform="translate(298.559 147.09)" fill="#c0e2e2" />
            <path d="M37.5,25.455c.025.014.043.035.068.047A22.6,22.6,0,0,0,70.643,4.4a2.16,2.16,0,0,0-1.154-1.81,22.6,22.6,0,0,0-33.075,21.1c0,.029.013.055.016.083L52.368,12.227a2.158,2.158,0,0,1,2.322,3.639" transform="translate(298.82 153.16)" fill="#c0e2e2" />
        </g>
        <path d="M243.184,155.2V57.847c0-5.747-4.07-10.407-9.093-10.407H79.858c-5.021,0-9.093,4.66-9.093,10.407V155.2" transform="translate(42.509 63.839)" fill="#313e58" />
        <path d="M243.684,155.2h-1V57.847c0-5.462-3.855-9.907-8.593-9.907H79.858c-4.738,0-8.593,4.444-8.593,9.907V155.2h-1V57.847a11.641,11.641,0,0,1,2.787-7.687,8.991,8.991,0,0,1,6.806-3.219H234.091a8.99,8.99,0,0,1,6.807,3.219,11.641,11.641,0,0,1,2.786,7.687Z" transform="translate(42.509 63.839)" fill="#313e58" />
        <path d="M229.815,140.493V54.682a1.713,1.713,0,0,0-1.682-1.744H78.5a1.714,1.714,0,0,0-1.682,1.744v85.811" transform="translate(46.169 67.371)" fill="#e88a2d" />
        <rect width="134" height="19" transform="translate(133 125)" fill="#7468b4" />
        <path d="M261.2,109.6H63.533a1.7,1.7,0,0,0-1.682,1.721A13.525,13.525,0,0,0,75.216,125h174.3a13.525,13.525,0,0,0,13.365-13.679A1.7,1.7,0,0,0,261.2,109.6" transform="translate(37.118 111.098)" fill="#7a8293" />
        <path d="M137.8,112.78a4.986,4.986,0,0,0,4.571,3.764h31.174a4.986,4.986,0,0,0,4.571-3.764" transform="translate(42.073 110.269)" fill="#313e58" />
        <g transform="translate(0 2)">
            <rect width="53" height="52" transform="translate(214 148)" fill="#fff" />
            <path d="M3.688,9.917a8,8,0,0,0,.3,2.542q.3.839.973.839,1.288,0,1.288-3.381,0-3.354-1.288-3.354-.671,0-.973.825A7.867,7.867,0,0,0,3.688,9.917ZM9.632,9.89a7.525,7.525,0,0,1-1.194,4.635,4.15,4.15,0,0,1-3.5,1.55,4.044,4.044,0,0,1-3.421-1.59A7.492,7.492,0,0,1,.308,9.89q0-6.131,4.629-6.131a4.119,4.119,0,0,1,3.482,1.59A7.359,7.359,0,0,1,9.632,9.89Zm9.23-5.849L7.982,23.655H4.762L15.642,4.041ZM17.427,17.752a8,8,0,0,0,.3,2.542q.3.839.973.839,1.288,0,1.288-3.381,0-3.354-1.288-3.354-.671,0-.973.825A7.867,7.867,0,0,0,17.427,17.752Zm5.943-.027a7.5,7.5,0,0,1-1.194,4.622,4.15,4.15,0,0,1-3.5,1.55,4.044,4.044,0,0,1-3.421-1.59,7.466,7.466,0,0,1-1.207-4.582q0-6.131,4.629-6.131a4.119,4.119,0,0,1,3.482,1.59A7.359,7.359,0,0,1,23.37,17.725Z" transform="translate(228.692 159.241)" fill="#cc7a29" />
        </g>
        <g opacity="0.345">
            <path d="M-43.31,1902.161v-85.811c0-.963.586-1.743,1.307-1.743H6.414l30.524,87.555Z" transform="translate(166.295 -1694.297)" fill="#f1b981" />
            <path d="M37.642,1902.661H-43.81v-86.311A2.063,2.063,0,0,1-42,1814.106H6.77l.117.335Zm-80.452-1H36.234L6.059,1815.106H-42c-.437,0-.807.569-.807,1.243Z" transform="translate(166.295 -1694.297)" fill="rgba(0,0,0,0)" />
        </g>
        <g transform="translate(0 2)">
            <path d="M42,1.5H0A1.5,1.5,0,0,1-1.5,0,1.5,1.5,0,0,1,0-1.5H42A1.5,1.5,0,0,1,43.5,0,1.5,1.5,0,0,1,42,1.5Z" transform="translate(158 194.5)" fill="#313e58" />
            <rect width="14" height="14" transform="translate(133 187)" fill="#fff" />
        </g>
        <g transform="translate(0 2)">
            <path d="M42,1.5H0A1.5,1.5,0,0,1-1.5,0,1.5,1.5,0,0,1,0-1.5H42A1.5,1.5,0,0,1,43.5,0,1.5,1.5,0,0,1,42,1.5Z" transform="translate(158 157.5)" fill="#313e58" />
            <rect width="14" height="14" transform="translate(133 150)" fill="#fff" />
            <path d="M226.618,116.689l1.7-1.726,3,3,7.9-7.9,1.71,1.7-9.615,9.616Z" transform="translate(-90.617 39.31)" fill="#1f3048" />
        </g>
        <g transform="translate(0 2)">
            <path d="M42,1.5H0A1.5,1.5,0,0,1-1.5,0,1.5,1.5,0,0,1,0-1.5H42A1.5,1.5,0,0,1,43.5,0,1.5,1.5,0,0,1,42,1.5Z" transform="translate(158 175.5)" fill="#313e58" />
            <rect width="14" height="14" transform="translate(133 168)" fill="#fff" />
            <path d="M226.618,116.689l1.7-1.726,3,3,7.9-7.9,1.71,1.7-9.615,9.616Z" transform="translate(-90.617 57.938)" fill="#1f3048" />
        </g>
        <path d="M4.92,13.632H2.85V5.594H.2V3.872H7.57V5.594H4.92Zm9.856,0-.708-2.323H10.51L9.8,13.632H7.573l3.445-9.8h2.53l3.458,9.8Zm-1.2-4.059Q12.593,6.416,12.47,6t-.177-.654q-.22.855-1.262,4.226Zm13.234,4.059H24.445L22.176,9.94l-2.27,3.692H17.69L20.927,8.6,17.9,3.872H20.18l2.1,3.511,2.063-3.511h2.23l-3.064,4.84Z" transform="translate(183.477 126)" fill="#fff" />
    </g>
</svg>