<svg xmlns="http://www.w3.org/2000/svg" xmlns:xlink="http://www.w3.org/1999/xlink" width="400" height="320" viewBox="0 0 400 320">
    <defs>
        <clipPath >
            <rect width="67.609" height="80.49" fill="#bfe2e2" />
        </clipPath>
        <clipPath >
            <rect width="237.457" height="322.851" fill="#bfe2e2" />
        </clipPath>
        <clipPath>
            <rect width="400" height="320" />
        </clipPath>
    </defs>
    <g clip-path="url(#d)">
        <rect width="400" height="320" fill="transparent" />
        <path d="M329.754,1H0A1,1,0,0,1-1,0,1,1,0,0,1,0-1H329.754a1,1,0,0,1,1,1A1,1,0,0,1,329.754,1Z" transform="translate(0 196.012)" fill="#5bb3b3" />
        <path d="M6.2,1H0A1,1,0,0,1-1,0,1,1,0,0,1,0-1H6.2a1,1,0,0,1,1,1A1,1,0,0,1,6.2,1Z" transform="translate(392.795 196.012)" fill="#5bb3b3" />
        <path d="M6.2,1H0A1,1,0,0,1-1,0,1,1,0,0,1,0-1H6.2a1,1,0,0,1,1,1A1,1,0,0,1,6.2,1Z" transform="translate(358.064 196.012)" fill="#5bb3b3" />
        <g transform="translate(-1 18.634)">
            <path d="M48.084,20.168a1,1,0,0,1-.677-.264L28.336,2.359,9.464,19.706A1,1,0,1,1,8.11,18.234L27.66.264a1,1,0,0,1,1.354,0L48.761,18.432a1,1,0,0,1-.677,1.736Z" transform="translate(3.805 6.194)" fill="#5bb3b3" />
            <g transform="translate(-1 -17)">
                <path d="M99.207,88.454H1.894a1,1,0,0,1,0-2H98.207V16.368H2.34a1,1,0,1,1,0-2H99.207a1,1,0,0,1,1,1V87.454A1,1,0,0,1,99.207,88.454Z" transform="translate(1.036 31.051)" fill="#5bb3b3" />
                <path d="M93.311,78.88H1.894a1,1,0,0,1,0-2H92.311V21.021h-90a1,1,0,0,1,0-2h91a1,1,0,0,1,1,1V77.88A1,1,0,0,1,93.311,78.88Z" transform="translate(1.036 33.596)" fill="#5bb3b3" />
                <path d="M78.912,59.032H1.893a1,1,0,0,1,0-2H77.912V30.6H2.247a1,1,0,0,1,0-2H78.912a1,1,0,0,1,1,1V58.032A1,1,0,0,1,78.912,59.032Z" transform="translate(1.035 38.832)" fill="#5bb3b3" />
            </g>
        </g>
        <path d="M0-1H23.7a1,1,0,0,1,1,1V88.774a1,1,0,0,1-1,1H0a1,1,0,0,1-1-1V0A1,1,0,0,1,0-1ZM22.7,1H1V87.774H22.7Z" transform="translate(332.02 122.695)" fill="#5bb3b3" />
        <path d="M4-1A5,5,0,1,1-1,4,5,5,0,0,1,4-1ZM4,7A3,3,0,1,0,1,4,3,3,0,0,0,4,7Z" transform="translate(339.87 197.25)" fill="#5bb3b3" />
        <path d="M6.812,1H0A1,1,0,0,1-1,0,1,1,0,0,1,0-1H6.812a1,1,0,0,1,1,1A1,1,0,0,1,6.812,1Z" transform="translate(340.462 189.648)" fill="#5bb3b3" />
        <path d="M12.737,1H0A1,1,0,0,1-1,0,1,1,0,0,1,0-1H12.737a1,1,0,0,1,1,1A1,1,0,0,1,12.737,1Z" transform="translate(337.5 184.174)" fill="#5bb3b3" />
        <path d="M0-1H23.7a1,1,0,0,1,1,1V88.774a1,1,0,0,1-1,1H0a1,1,0,0,1-1-1V0A1,1,0,0,1,0-1ZM22.7,1H1V87.774H22.7Z" transform="translate(367.037 122.695)" fill="#5bb3b3" />
        <path d="M4-1A5,5,0,1,1-1,4,5,5,0,0,1,4-1ZM4,7A3,3,0,1,0,1,4,3,3,0,0,0,4,7Z" transform="translate(374.886 197.25)" fill="#5bb3b3" />
        <path d="M6.812,1H0A1,1,0,0,1-1,0,1,1,0,0,1,0-1H6.812a1,1,0,0,1,1,1A1,1,0,0,1,6.812,1Z" transform="translate(375.478 189.648)" fill="#5bb3b3" />
        <path d="M12.737,1H0A1,1,0,0,1-1,0,1,1,0,0,1,0-1H12.737a1,1,0,0,1,1,1A1,1,0,0,1,12.737,1Z" transform="translate(372.516 184.174)" fill="#5bb3b3" />
        <path d="M398.953,1H0A1,1,0,0,1-1,0,1,1,0,0,1,0-1H398.953a1,1,0,0,1,1,1A1,1,0,0,1,398.953,1Z" transform="translate(1.547 298.195)" fill="#5bb3b3" />
        <path d="M398.953,1H0A1,1,0,0,1-1,0,1,1,0,0,1,0-1H398.953a1,1,0,0,1,1,1A1,1,0,0,1,398.953,1Z" transform="translate(1.547 278.195)" fill="#5bb3b3" />
        <g transform="translate(283.476 27.13)">
            <path d="M68.259,211.509A120.586,120.586,0,0,1,44,209.335a32.014,32.014,0,0,1-7.532-2.422c-2.135-1.09-3.218-2.352-3.218-3.75a3.319,3.319,0,0,1,1.264-2.459,10.771,10.771,0,0,1,2.931-1.748,44.977,44.977,0,0,1,9.847-2.591,1,1,0,0,1,.33,1.973c-9.786,1.637-12.372,3.873-12.372,4.826,0,.83,1.932,2.653,9.171,4.216a118.568,118.568,0,0,0,23.835,2.129,118.569,118.569,0,0,0,23.835-2.129c7.24-1.564,9.171-3.386,9.171-4.216,0-.767-.889-1.619-2.5-2.4a34.439,34.439,0,0,0-8.924-2.428,1,1,0,1,1,.324-1.974,36.294,36.294,0,0,1,9.469,2.6c2.412,1.164,3.634,2.577,3.634,4.2,0,1.4-1.083,2.659-3.217,3.75a32.013,32.013,0,0,1-7.531,2.422A120.586,120.586,0,0,1,68.259,211.509Z" transform="translate(-18 30.192)" fill="#5bb3b3" />
            <path d="M22.486-1A92.574,92.574,0,0,1,38.568.24c5.051.938,7.4,2.189,7.4,3.937s-2.352,3-7.4,3.937a92.574,92.574,0,0,1-16.082,1.24A92.574,92.574,0,0,1,6.4,8.114C1.352,7.176-1,5.925-1,4.177s2.352-3,7.4-3.937A92.574,92.574,0,0,1,22.486-1ZM43.941,4.177a3.928,3.928,0,0,0-1.628-.909A26.8,26.8,0,0,0,37.6,2.1,93.368,93.368,0,0,0,22.486,1,93.368,93.368,0,0,0,7.37,2.1,26.8,26.8,0,0,0,2.659,3.268a3.928,3.928,0,0,0-1.628.909,3.928,3.928,0,0,0,1.628.909A26.8,26.8,0,0,0,7.37,6.256a93.368,93.368,0,0,0,15.115,1.1A93.368,93.368,0,0,0,37.6,6.256a26.8,26.8,0,0,0,4.711-1.169A3.928,3.928,0,0,0,43.941,4.177Z" transform="translate(27.773 200.156)" fill="#5bb3b3" />
            <path d="M82.013,199.526H58.534a11.51,11.51,0,0,1-8.357-3.617,12.425,12.425,0,0,1-3.454-8.65V171.487a12.834,12.834,0,0,1,.081-1.439,1,1,0,0,1,1.987.225,10.828,10.828,0,0,0-.068,1.214v15.771a10.435,10.435,0,0,0,2.9,7.265,9.528,9.528,0,0,0,6.914,3H82.013a9.528,9.528,0,0,0,6.914-3,10.435,10.435,0,0,0,2.9-7.265V171.487a10.716,10.716,0,0,0-.078-1.3,1,1,0,1,1,1.985-.243,12.723,12.723,0,0,1,.093,1.541v15.771a12.425,12.425,0,0,1-3.454,8.65A11.51,11.51,0,0,1,82.013,199.526Z" transform="translate(-20.015 34.265)" fill="#5bb3b3" />
            <path d="M103.922,192.054a6.767,6.767,0,0,1-3.945-1.3,1,1,0,0,1,1.163-1.627,4.78,4.78,0,0,0,2.782.929c3.079,0,5.583-3.09,5.583-6.888s-2.5-6.889-5.583-6.889a4.694,4.694,0,0,0-2.641.827,1,1,0,1,1-1.11-1.663,6.75,6.75,0,0,1,3.751-1.163,7.029,7.029,0,0,1,5.423,2.67,10.03,10.03,0,0,1,0,12.437A7.029,7.029,0,0,1,103.922,192.054Z" transform="translate(-27.917 33.486)" fill="#5bb3b3" />
        </g>
        <path d="M125.96,1H0A1,1,0,0,1-1,0,1,1,0,0,1,0-1H125.96a1,1,0,0,1,1,1A1,1,0,0,1,125.96,1Z" transform="translate(273.04 96.938)" fill="#5bb3b3" />
        <path d="M125.96,1H0A1,1,0,0,1-1,0,1,1,0,0,1,0-1H125.96a1,1,0,0,1,1,1A1,1,0,0,1,125.96,1Z" transform="translate(273.04 105.824)" fill="#5bb3b3" />
        <g transform="translate(-3.347 -2.012)">
            <path d="M0-1H12.227a1,1,0,0,1,1,1V53.42a1,1,0,0,1-1,1H0a1,1,0,0,1-1-1V0A1,1,0,0,1,0-1ZM11.227,1H1V52.42H11.227Z" transform="translate(338.637 41.576)" fill="#5bb3b3" />
            <path d="M2.718,1H0A1,1,0,0,1-1,0,1,1,0,0,1,0-1H2.718a1,1,0,0,1,1,1A1,1,0,0,1,2.718,1Z" transform="translate(343.392 66.046)" fill="#5bb3b3" />
            <path d="M2.718,1H0A1,1,0,0,1-1,0,1,1,0,0,1,0-1H2.718a1,1,0,0,1,1,1A1,1,0,0,1,2.718,1Z" transform="translate(343.392 71.272)" fill="#5bb3b3" />
            <path d="M0-1H12.227a1,1,0,0,1,1,1V53.42a1,1,0,0,1-1,1H0a1,1,0,0,1-1-1V0A1,1,0,0,1,0-1ZM11.227,1H1V52.42H11.227Z" transform="translate(356.852 41.576)" fill="#5bb3b3" />
            <path d="M2.718,1H0A1,1,0,0,1-1,0,1,1,0,0,1,0-1H2.718a1,1,0,0,1,1,1A1,1,0,0,1,2.718,1Z" transform="translate(361.607 66.046)" fill="#5bb3b3" />
            <path d="M2.718,1H0A1,1,0,0,1-1,0,1,1,0,0,1,0-1H2.718a1,1,0,0,1,1,1A1,1,0,0,1,2.718,1Z" transform="translate(361.607 71.272)" fill="#5bb3b3" />
            <path d="M0-1H12.227a1,1,0,0,1,1,1V53.42a1,1,0,0,1-1,1H0a1,1,0,0,1-1-1V0A1,1,0,0,1,0-1ZM11.227,1H1V52.42H11.227Z" transform="translate(370.758 44.877) rotate(-18.43)" fill="#5bb3b3" />
            <path d="M0,1.86a1,1,0,0,1-.948-.684A1,1,0,0,1-.316-.089l2.577-.86a1,1,0,0,1,1.265.632A1,1,0,0,1,2.893.949l-2.577.86A1,1,0,0,1,0,1.86Z" transform="translate(383.006 65.731)" fill="#5bb3b3" />
            <path d="M0,1.86a1,1,0,0,1-.948-.684A1,1,0,0,1-.316-.089l2.577-.86a1,1,0,0,1,1.265.632A1,1,0,0,1,2.893.949l-2.577.86A1,1,0,0,1,0,1.86Z" transform="translate(384.658 70.688)" fill="#5bb3b3" />
        </g>
        <g transform="translate(-82 -9.084)">
            <path d="M21.919-1A22.912,22.912,0,0,1,38.125,38.125,22.919,22.919,0,1,1,13,.8,22.776,22.776,0,0,1,21.919-1Zm0,43.838A20.925,20.925,0,0,0,30.061,2.644,20.925,20.925,0,0,0,13.777,41.195,20.787,20.787,0,0,0,21.919,42.838Z" transform="translate(202.768 22.254)" fill="#5bb3b3" />
            <path d="M27.895-1A28.9,28.9,0,0,1,39.142,54.518,28.9,28.9,0,0,1,16.647,1.271,28.715,28.715,0,0,1,27.895-1Zm0,55.789A26.9,26.9,0,0,0,38.363,3.113,26.9,26.9,0,0,0,17.426,52.676,26.725,26.725,0,0,0,27.895,54.789Z" transform="translate(196.792 16.278)" fill="#5bb3b3" />
            <path d="M135.034,36.121a1,1,0,0,1-.7-.282l-9.725-9.43a1,1,0,0,1-.3-.718V8.66a1,1,0,0,1,2,0V25.268L135.73,34.4a1,1,0,0,1-.7,1.718Z" transform="translate(99.527 18.629)" fill="#5bb3b3" />
        </g>
        <g transform="translate(267.682 13.719)">
            <g transform="translate(0 0)" clip-path="url(#a)">
                <path d="M19,61.068c0,19.694,1.52,35.66,21.919,35.66s21.919-15.966,21.919-35.66" transform="translate(-5.052 -16.238)" fill="#bfe2e2" />
                <path d="M41.935,32.542a41.785,41.785,0,0,0-2,4.038,56.483,56.483,0,0,1,.548-8.538c.711-4.931,1.8-9.837,2.819-14.733.734-3.519.688-9.841,3.473-12.646.764-.6.945.584.945,1.1.01.109,0-2.106-.744-1.721-4.4,2.327-5.834,9.645-7.245,13.309A71.764,71.764,0,0,0,35.2,29.731a37.449,37.449,0,0,0-.3,4.214c-.147-.375-.294-.753-.446-1.127A76.449,76.449,0,0,0,24.194,15.279C23.14,13.928,9.892.6,8.855,2.643a1.394,1.394,0,0,0,.643.734c.019.022.02.01.009-.023.778,1.285,2.991,3.27,3.679,4.4a85.817,85.817,0,0,1,4.452,8.792c2.894,6.235,5.579,12.532,8.181,18.844.606,1.468,1.238,2.932,1.881,4.389C21.058,29.98,12.2,21.085,0,15.994c4.166,2.168,6.9,6.246,9.711,9.368,3.393,3.766,6.967,7.431,10.367,11.193,4.01,4.438,8.728,9.111,12.585,14.021C36.4,58.6,40.029,66.626,42.269,75.058c-.918-2.913-.073-6.939-.229-10a68.953,68.953,0,0,0-.784-7.257,15.13,15.13,0,0,1,1.061,3.185c-.168-1.7-.361-3.382-.569-5.059.534-1.57,1.057-3.035,1.411-4.242a110.465,110.465,0,0,1,6.914-18.206,163.322,163.322,0,0,1,9.244-16.15C60.9,14.886,62.511,12.447,64.11,10c1.046-1.6,2.042-4.16,3.5-5.692-9.414,8.8-19.7,17.667-25.674,28.23" transform="translate(0 0)" fill="#bfe2e2" />
            </g>
        </g>
        <g transform="translate(-131.215 72.067)">
            <g clip-path="url(#b)">
                <path d="M123.223,64.328c-2.145-10.622-5.466-25.489-12.993-33.552C104.808,35,115.6,53.423,117.18,59.285A167.071,167.071,0,0,1,122.532,95.1c1.161,24.819-1.978,49.606-4.326,74.342q-3.67,38.668-4.772,77.525l6.644.174c3.285-44.553,6.47-89.153,6.662-133.825.07-16.4-.273-32.909-3.516-48.985" transform="translate(30.481 8.628)" fill="#bfe2e2" />
                <path d="M127.255,202.882c-2.115-15.459-7.849-30.164-13.722-44.621q-14.748-36.3-31.049-71.944l-3.421-4.44c5.427,24.42,20.262,45.577,29.59,68.789,10.359,25.775,13.793,53.719,17.136,81.3a2.873,2.873,0,0,0,2.585-.433c.09-9.564.177-19.17-1.12-28.647" transform="translate(22.166 22.955)" fill="#bfe2e2" />
                <path d="M121.311,197.575a20.785,20.785,0,0,0-2.033-5.785,50.079,50.079,0,0,0-3.378-4.342,38.964,38.964,0,0,1-4.4-8.633,284.837,284.837,0,0,0-19.922-38.02c-2.127-3.488-5-7.363-9.083-7.366a88.78,88.78,0,0,1,8.278,11.01c1.419,2.1,2.837,4.211,4.173,6.37a115.07,115.07,0,0,1,9.112,18.421c4.4,11.167,7.339,22.842,9.906,34.547a30.369,30.369,0,0,1,1.147,7.949c-.077,1.664-.81,3.645-.442,5.3.43,1.922,1.547,2.483,3.333,3.109.9.316,9.133,1.33,9.2,1.592q-2.942-12.073-5.886-24.148" transform="translate(23.128 37.408)" fill="#bfe2e2" />
                <path d="M137.418,51.307c-5.616.169-10.706,3.746-13.982,8.311s-5,10.039-6.45,15.468a202.673,202.673,0,0,0-5.621,29.939c-1.714,15.464-1.643,31.064-1.568,46.623q.217,45.722.433,91.445l14.888,9.81c-1.94-8.727-.388-17.83-1.077-26.744-.694-8.991-3.65-17.624-5.823-26.377a181.319,181.319,0,0,1-4.424-26.708c-3.214-34.188,1.62-68.8,10.92-101.852,2.2-7.828,5.356-16.43,12.7-19.915" transform="translate(30.774 14.385)" fill="#bfe2e2" />
                <path d="M203.949,79.64l-9.979-5.325c-4.175-2.228-9.085-4.5-13.44-2.655-1.561.663-3.36,1.819-4.762.867a2.621,2.621,0,0,1-.433-3.477,6.638,6.638,0,0,1,3.074-2.264,34.263,34.263,0,0,1,28.035.512c-3.4-30.484-20.315-45.632-33.424-46.2-22.556-.981-29.666,39.964-29.666,39.964-2.206-9.071-9.916-9.39-14.22-10.052-12.612-1.941-22.177,10.14-20.35,45.6a59.437,59.437,0,0,0,.677,6.429,38.818,38.818,0,0,1,8.4-4.746c8.472-3.488,17.755-4.371,26.877-5.215,1.851-.172,3.819-.323,5.476.521-3.328,2.748-7.884,3.27-12.039,4.434-10.449,2.929-19.057,11.007-23.474,20.875,7.077,13.481,19.228,21.671,29.9,26.53a57.331,57.331,0,0,1-2.163-11.767,34.81,34.81,0,0,1,15.476-30.412c-2.122,5.865-4.252,11.765-5.357,17.9a55.955,55.955,0,0,0,2.28,28.194,75.982,75.982,0,0,0,10.836,2.662s14.22-2.452,20.595,5.394a252.834,252.834,0,0,0,13.682-35.045,53.964,53.964,0,0,0-14.5-9.521c-2.224-1.055-4.544-2.065-6.269-3.822s-2.717-4.492-1.694-6.73c1.193-2.611,4.517-3.48,7.383-3.315,7.5.434,13.841,5.676,18.166,11.919a144.3,144.3,0,0,0,3.991-29.516c-1.018-.624-2.056-1.2-3.07-1.744" transform="translate(30.436 5.91)" fill="#bfe2e2" />
                <path d="M111.787,2.742a1.832,1.832,0,0,0-.433.752,26.651,26.651,0,0,0-.964,9.228,1.413,1.413,0,0,1-.087.663,1.394,1.394,0,0,1-.8.584c-2.822,1.125-6.057,2.1-7.555,4.741,1.052-2.269,1.987-3.138,2.018-5.653.033-2.711-.22-5.274.5-7.941a12.631,12.631,0,0,1,1.429-3.3c-.145-.019-.283-.044-.428-.063C100.711,1.1,96.227.662,91.986.381c-.042.042-.1.07-.138.117a6.337,6.337,0,0,0-1.1,2.932c-.275,1.292-.809,5.791-2.833,5.042C86.115,7.8,86.9,2.855,87.51,1.6A6.294,6.294,0,0,1,88.482.18C53.624-1.438,37.311,8.374,37.311,8.374S42.508,5.9,50.22,25.014a52.187,52.187,0,0,1,14.674-6.7c11.646-3.3,13.937,2.256,14.1,4.031-4.422-1.6-18.385,4.022-22.8,5.639a19.135,19.135,0,0,0-4.034,2.145c.037.1.074.2.111.307,1.946,5.513,6.409,10.263,12.276,14.266A39.664,39.664,0,0,1,73.7,34.325a28.725,28.725,0,0,1,9.92-5.639,14.9,14.9,0,0,1,11.258.869c.645.36,1.325.912,1.275,1.625-.032.453-.229,1.033-.67,1.175C80.4,37.209,77.18,43.505,77.126,51.421a123.129,123.129,0,0,0,20.284,6.44c-.57-1.524-1.143-3.046-1.7-4.575a4.123,4.123,0,0,1-.333-2.712,3.938,3.938,0,0,1,1.274-1.58,13.906,13.906,0,0,1,4.288-2.74,5.894,5.894,0,0,1,4.946.279,2.654,2.654,0,0,1,1.187,1.311,3.494,3.494,0,0,1-.163,2.212c-.969,3.064-2.58,5.99-3.358,9.068,12.673,2.311,23.562,2.454,26.929.49,8.827-5.148-10.543-14.956-10.543-14.956,32.118,6.865,39.964.49,44.132-4.168,9.92-11.088-10.019-30.447-52.28-37.749" transform="translate(10.461 0)" fill="#bfe2e2" />
                <path d="M159.544,131.155l-1.963.735s-6.865-7.11-19.369,0a13.347,13.347,0,0,0-6.5,8.7,10.086,10.086,0,0,1,3.951-1.357,22.186,22.186,0,0,1,6.99.5c1.183.227,2.621.75,2.727,1.95a1.848,1.848,0,0,1-.995,1.676,3.989,3.989,0,0,1-1.992.416,9.949,9.949,0,0,1-3.05-.484c-.886-.288-1.732-.7-2.641-.9a8.059,8.059,0,0,0-5.4.959c-.535,8.344,4.938,17.8,13.766,20.168,13.731,3.677,16.672,19.368,14.956,9.806s22.31-9.562,22.557-22.8-23.047-19.369-23.047-19.369" transform="translate(36.804 36.091)" fill="#bfe2e2" />
                <path d="M94.909,63.824s3.614-3.433,1.9-6.619c-1.248-3.362-11.413-3.657-23.906-2.574a54.787,54.787,0,0,1,8.645,6.812,7.921,7.921,0,0,1-6.052,1.027,30,30,0,0,1-5.936-2.1,72.577,72.577,0,0,0-12.315-3.885c-5.666.817-11.275,1.761-16.322,2.7q6.67,1.283,13.206,3.17c2.074.6,4.62,2.031,4.133,4.134-4.654-.17-9.009-2.174-13.44-3.6a63.635,63.635,0,0,0-10.6-2.389c-5.448,1.125-9.673,2.154-11.705,2.837C-3.714,72.16.207,86.38.207,86.38s0-10.542,12.259-5.394A225.612,225.612,0,0,0,33.608,91.331,73.531,73.531,0,0,0,40.74,80.092a7.454,7.454,0,0,1,1.617-2.324A2.444,2.444,0,0,1,45,77.3c1.1.592,1.269,2.091,1.188,3.339a21.467,21.467,0,0,1-1.854,7.427c-.969,2.146-2.287,4.137-3.447,6.188a162.693,162.693,0,0,0,23.084,6.917,92.493,92.493,0,0,0,4.837-22.693l2.736.6a2.075,2.075,0,0,1,1.145.515,1.96,1.96,0,0,1,.385.9,26.324,26.324,0,0,1-.507,12.595,63.313,63.313,0,0,1-3.314,9.126,103.967,103.967,0,0,0,20.564,1.64c.159-.75.333-1.5.543-2.234a17.239,17.239,0,0,0,1-4.783,12.8,12.8,0,0,0-2.074-6.009A86.59,86.59,0,0,0,81.4,79.164a4.978,4.978,0,0,1-1.3-2.425c-.195-1.764,1.782-3.223,3.536-2.955,1.675.255,2.942,1.6,4.072,2.856l4.5,5.022a48.174,48.174,0,0,1,4.643,5.755,24.434,24.434,0,0,1,3.75,15.367c7.15-1.3,13.069-3.7,17.559-7a27.861,27.861,0,0,0-.973-3.467,15.992,15.992,0,0,0-6.91-8.809c-2.588-1.424-5.593-1.83-8.416-2.7A26.484,26.484,0,0,1,94,76.872c-1.138-.832-2.319-2.266-1.62-3.489.673-1.175,2.4-.967,3.708-.6l12.635,3.565a17.238,17.238,0,0,1,5.112,2.055,14.626,14.626,0,0,1,4.384,5.5,46.817,46.817,0,0,1,3.527,8.731,22.064,22.064,0,0,0,5.467-9.683c6.374-24.518-32.3-19.123-32.3-19.123" transform="translate(0 15.159)" fill="#bfe2e2" />
                <path d="M82.713,129.09s5.521-26.724-14.2-17.162-32.336,39.228-25.5,59.087c6.084-9.637,17.433-14.409,28.552-17.935a8.057,8.057,0,0,0-.794-1.775,12.278,12.278,0,0,0-4.458-3.7,4.912,4.912,0,0,1,5.622.787,7.24,7.24,0,0,1,1.835,4c5.256-1.6,10.366-2.983,14.763-4.518l-.594-1.067a9.093,9.093,0,0,0-2.707-3.407c-1.636-1.058-3.9-1.035-5.257-2.437a.8.8,0,0,1-.265-.485.827.827,0,0,1,.323-.593c1.813-1.741,4.618-1.775,7.13-1.7,1.68.049,3.6.218,4.6,1.568a6.717,6.717,0,0,1,.836,3.507,17.266,17.266,0,0,0,.49,2.832c4.563-2.059,7.758-4.558,8.548-8.178,3.155-14.466-2.1-13.975-18.929-8.827" transform="translate(11.535 30.801)" fill="#bfe2e2" />
                <path d="M81.8,241.867a25.683,25.683,0,0,0,25.607,25.607h42.279a25.683,25.683,0,0,0,25.609-25.607V197.518H81.8Z" transform="translate(22.934 55.377)" fill="#bfe2e2" />
                <path d="M157.353,138.277c1.653,1.429.024,4.134-1.525,5.684-15.051,15.046-24.137,35.4-31.137,55.874a7.476,7.476,0,0,0-.588,3.343c.511,3.839,4.134,11.837.078,15.547-2.631,2.407-4.5,0-5.23-3.275-1.752-7.815,4.125-21.974,6.74-29.208a124.271,124.271,0,0,1,13.148-26.231c1.328-2.01,17.015-23.034,18.514-21.734" transform="translate(33.26 38.751)" fill="#bfe2e2" />
            </g>
        </g>
        <g transform="translate(0 -5.236)">
            <path d="M233.723,146.176v-89.2c0-5.266-3.846-9.535-8.594-9.535H79.359c-4.746,0-8.594,4.269-8.594,9.535v89.2" transform="translate(47.24 75.255)" fill="#acb1bc" />
            <path d="M221.42,133.79V54.548a1.6,1.6,0,0,0-1.59-1.61H78.406a1.6,1.6,0,0,0-1.59,1.61V133.79" transform="translate(50.367 78.096)" fill="#e4e6ea" />
            <path d="M126.245,61.579a1.589,1.589,0,0,0-1.59,1.59v54.957a1.59,1.59,0,0,0,1.59,1.59h57.13a1.59,1.59,0,0,0,1.59-1.59V63.169a1.589,1.589,0,0,0-1.59-1.59Z" transform="translate(75.088 84.791)" fill="#ffd964" />
            <path d="M140.4,77.923a12.628,12.628,0,0,0-1.749-.649,13.518,13.518,0,0,0-1.752-.4,3.529,3.529,0,0,1-1.415-.505,1.252,1.252,0,0,1-.619-1.083,1.23,1.23,0,0,1,.519-1.047,2.042,2.042,0,0,1,1.244-.366,2.251,2.251,0,0,1,1.236.319,4.375,4.375,0,0,1,.366.282c.134.112.311.249.513.393a1.2,1.2,0,0,0,.73.214,1.6,1.6,0,0,0,1.256-.871,2.818,2.818,0,0,0,.6-1.259c0-.152-.108-.432-.622-.907l-.094-.067-.253-.226a5.015,5.015,0,0,0-.822-.458,5.974,5.974,0,0,0-1.335-.446.154.154,0,0,1-.121-.149V69.2a7.045,7.045,0,0,0-.052-1,.955.955,0,0,0-.363-.564,1.518,1.518,0,0,0-.989-.271c-.7,0-1.128.185-1.28.551a3.748,3.748,0,0,0-.15,1.256v1.5a.152.152,0,0,1-.121.149,4.545,4.545,0,0,0-2.727,1.609,4.414,4.414,0,0,0-.987,2.8,4.311,4.311,0,0,0,.722,2.566,3.978,3.978,0,0,0,1.758,1.423,15.181,15.181,0,0,0,2.125.68,11.21,11.21,0,0,1,1.849.584,1.155,1.155,0,0,1,.843,1.053c0,.816-.372,1.788-2.137,1.788a2.551,2.551,0,0,1-2-1.075c-.84-.837-1.312-1.016-1.559-1.016a1.485,1.485,0,0,0-1.034.467c-.714.695-.865,1.1-.865,1.31a2.059,2.059,0,0,0,.531,1.168l.35.458a5.3,5.3,0,0,0,1.2.957,5.953,5.953,0,0,0,1.935.783.154.154,0,0,1,.12.15V88.2a3.683,3.683,0,0,0,.176,1.31.664.664,0,0,0,.385.4,2.95,2.95,0,0,0,1.685,0,.789.789,0,0,0,.428-.434,3.34,3.34,0,0,0,.159-1.25V86.506a.154.154,0,0,1,.118-.15,5.672,5.672,0,0,0,2.85-1.62,5.165,5.165,0,0,0,.635-5.545,2.992,2.992,0,0,0-1.288-1.268" transform="translate(78.426 87.395)" fill="#313e58" />
            <path d="M150.12,77.923a12.628,12.628,0,0,0-1.749-.649,13.557,13.557,0,0,0-1.75-.4,3.528,3.528,0,0,1-1.417-.505,1.252,1.252,0,0,1-.619-1.083,1.23,1.23,0,0,1,.519-1.047,2.049,2.049,0,0,1,1.244-.366,2.26,2.26,0,0,1,1.238.319q.168.116.364.282c.134.112.311.249.513.393a1.217,1.217,0,0,0,.73.214,1.6,1.6,0,0,0,1.256-.871,2.818,2.818,0,0,0,.6-1.259c0-.152-.108-.432-.62-.907l-.1-.067-.253-.226a5.015,5.015,0,0,0-.822-.458,5.948,5.948,0,0,0-1.335-.446.152.152,0,0,1-.12-.149V69.2a7,7,0,0,0-.053-1,.955.955,0,0,0-.363-.564,1.517,1.517,0,0,0-.987-.271c-.7,0-1.13.185-1.282.551a3.748,3.748,0,0,0-.15,1.256v1.5a.152.152,0,0,1-.121.149,4.582,4.582,0,0,0-2.594,1.468c-.042.049-.094.089-.133.141a4.414,4.414,0,0,0-.987,2.8,4.311,4.311,0,0,0,.722,2.566,4.488,4.488,0,0,0,.4.428,3.853,3.853,0,0,0,1.359.995,15.245,15.245,0,0,0,2.125.68,11.21,11.21,0,0,1,1.849.584,1.155,1.155,0,0,1,.843,1.053c0,.816-.37,1.788-2.137,1.788a2.551,2.551,0,0,1-2-1.075c-.84-.837-1.312-1.016-1.559-1.016a1.257,1.257,0,0,0-.482.106,1.752,1.752,0,0,0-.552.361c-.714.695-.865,1.1-.865,1.31a2.059,2.059,0,0,0,.531,1.168l.35.458a3.47,3.47,0,0,0,.535.491c.188.147.4.3.66.466a5.953,5.953,0,0,0,1.935.783.153.153,0,0,1,.12.15V88.2a3.643,3.643,0,0,0,.177,1.31.658.658,0,0,0,.384.4,2.95,2.95,0,0,0,1.685,0,.789.789,0,0,0,.428-.434,3.332,3.332,0,0,0,.161-1.25V86.506a.154.154,0,0,1,.117-.15,5.66,5.66,0,0,0,2.85-1.62,5.165,5.165,0,0,0,.636-5.545,2.992,2.992,0,0,0-1.288-1.268" transform="translate(83.451 87.395)" fill="#313e58" />
            <path d="M161.131,79.191h0a2.976,2.976,0,0,0-1.288-1.268,12.486,12.486,0,0,0-1.749-.649,13.558,13.558,0,0,0-1.75-.4,3.528,3.528,0,0,1-1.417-.505,1.252,1.252,0,0,1-.619-1.083,1.23,1.23,0,0,1,.519-1.047,2.05,2.05,0,0,1,1.245-.366,2.258,2.258,0,0,1,1.236.319,4.251,4.251,0,0,1,.364.281c.133.114.311.25.513.394a1.219,1.219,0,0,0,.731.214,1.6,1.6,0,0,0,1.254-.871,2.831,2.831,0,0,0,.605-1.259c0-.152-.109-.432-.622-.907l-.094-.067-.253-.226a5.252,5.252,0,0,0-.822-.46,6.038,6.038,0,0,0-1.336-.444.153.153,0,0,1-.12-.149V69.2a7.286,7.286,0,0,0-.052-1,.958.958,0,0,0-.364-.564,1.516,1.516,0,0,0-.987-.271c-.7,0-1.13.185-1.28.551a3.7,3.7,0,0,0-.15,1.256v1.5a.154.154,0,0,1-.121.15,4.554,4.554,0,0,0-2.729,1.609c-.024.03-.039.064-.064.094a4.41,4.41,0,0,0-.924,2.709,4.3,4.3,0,0,0,.723,2.565c.059.085.137.138.2.217a3.916,3.916,0,0,0,1.556,1.207,15.245,15.245,0,0,0,2.125.68,11.162,11.162,0,0,1,1.849.584,1.155,1.155,0,0,1,.845,1.053c0,.816-.372,1.788-2.139,1.788a2.56,2.56,0,0,1-2-1.075c-.84-.837-1.312-1.016-1.558-1.016a1.344,1.344,0,0,0-.681.22,1.825,1.825,0,0,0-.353.247c-.714.695-.866,1.1-.866,1.31a2.063,2.063,0,0,0,.531,1.168l.35.458a3.224,3.224,0,0,0,.338.322,7.072,7.072,0,0,0,.857.636,5.982,5.982,0,0,0,1.937.783.154.154,0,0,1,.12.15V88.2a3.683,3.683,0,0,0,.176,1.31.66.66,0,0,0,.385.4,2.945,2.945,0,0,0,1.684,0,.8.8,0,0,0,.429-.434,3.34,3.34,0,0,0,.159-1.25V86.5a.154.154,0,0,1,.118-.149,5.662,5.662,0,0,0,2.848-1.62,5.165,5.165,0,0,0,.636-5.545" transform="translate(88.476 87.395)" fill="#313e58" />
            <path d="M132.485,94.949h38.2a1.59,1.59,0,0,0,0-3.179h-38.2a1.59,1.59,0,0,0,0,3.179" transform="translate(78.313 101.505)" fill="#313e58" />
            <path d="M170.686,88.908a1.59,1.59,0,1,0,0-3.179h-38.2a1.59,1.59,0,0,0,0,3.179Z" transform="translate(78.313 97.928)" fill="#313e58" />
            <path d="M250.262,109.6H63.441a1.59,1.59,0,0,0-1.59,1.59,12.631,12.631,0,0,0,12.632,12.632H239.22a12.631,12.631,0,0,0,12.632-12.632,1.59,1.59,0,0,0-1.59-1.59" transform="translate(42.633 113.613)" fill="#7a8293" />
            <path d="M137.8,112.78a4.689,4.689,0,0,0,4.32,3.476h29.463a4.689,4.689,0,0,0,4.32-3.476" transform="translate(43.149 113.069)" fill="#acb1bc" />
            <path d="M85.658,83.176a1.589,1.589,0,0,0-1.59,1.59v22.2a1.59,1.59,0,0,0,3.179,0v-22.2a1.589,1.589,0,0,0-1.59-1.59" transform="translate(54.114 97.136)" fill="#629d62" />
            <path d="M93.722,77.428a1.589,1.589,0,0,0-1.59,1.59v30.918a1.59,1.59,0,0,0,3.179,0V79.018a1.589,1.589,0,0,0-1.59-1.59" transform="translate(58.281 93.952)" fill="#629d62" />
            <path d="M101.786,69.629a1.589,1.589,0,0,0-1.59,1.59v42.746a1.59,1.59,0,0,0,3.179,0V71.219a1.589,1.589,0,0,0-1.59-1.59" transform="translate(62.448 89.537)" fill="#629d62" />
            <path d="M109.85,75.546a1.589,1.589,0,0,0-1.59,1.59v33.772a1.59,1.59,0,0,0,3.179,0V77.136a1.589,1.589,0,0,0-1.59-1.59" transform="translate(66.616 92.898)" fill="#629d62" />
            <path d="M117.915,69.78a1.589,1.589,0,0,0-1.59,1.59v42.518a1.59,1.59,0,0,0,3.179,0V71.37a1.589,1.589,0,0,0-1.59-1.59" transform="translate(70.783 89.624)" fill="#629d62" />
            <path d="M135.327,69l1.582-5.908a.98.98,0,0,0-1.2-1.2L129.8,63.479a.981.981,0,0,0-.44,1.64l1.039,1.039-3.8,3.8L122.4,74.155,111.312,63.065a1.59,1.59,0,0,0-2.248,0L84.534,87.6a1.589,1.589,0,1,0,2.248,2.248l23.407-23.407,11.091,11.091a1.587,1.587,0,0,0,2.248,0l4.142-4.141,4.98-4.981,1.039,1.039a.98.98,0,0,0,1.64-.44" transform="translate(54.114 84.138)" fill="#629d62" />
        </g>
    </g>
</svg>