<svg xmlns="http://www.w3.org/2000/svg" xmlns:xlink="http://www.w3.org/1999/xlink" width="400" height="320" viewBox="0 0 400 320">
    <defs>
        <clipPath>
            <rect width="386.538" height="209.068" fill="none" />
        </clipPath>
        <clipPath>
            <rect width="400" height="320" />
        </clipPath>
    </defs>
    <g clip-path="url(#e)">
        <rect width="400" height="320" fill="transparent" />
        <path d="M143.171,1H0A1,1,0,0,1-1,0,1,1,0,0,1,0-1H143.171a1,1,0,0,1,1,1A1,1,0,0,1,143.171,1Z" transform="translate(256.829 172.037)" fill="#5bb3b3" />
        <path d="M3-1H22.363a4,4,0,0,1,4,4V115.965a4,4,0,0,1-4,4H3a4,4,0,0,1-4-4V3A4,4,0,0,1,3-1ZM22.363,117.965a2,2,0,0,0,2-2V3a2,2,0,0,0-2-2H3A2,2,0,0,0,1,3V115.965a2,2,0,0,0,2,2Z" transform="translate(68.407 60.576)" fill="#5bb3b3" />
        <path d="M83.5,58.086a6.451,6.451,0,1,1-6.672,6.447A6.569,6.569,0,0,1,83.5,58.086Zm0,10.894a4.452,4.452,0,1,0-4.672-4.447A4.568,4.568,0,0,0,83.5,68.98Z" transform="translate(-2.576 24.29)" fill="#5bb3b3" />
        <path d="M3-1H22.363a4,4,0,0,1,4,4V115.965a4,4,0,0,1-4,4H3a4,4,0,0,1-4-4V3A4,4,0,0,1,3-1ZM22.363,117.965a2,2,0,0,0,2-2V3a2,2,0,0,0-2-2H3A2,2,0,0,0,1,3V115.965a2,2,0,0,0,2,2Z" transform="translate(39.012 60.576)" fill="#5bb3b3" />
        <path d="M60.013,58.086a6.451,6.451,0,1,1-6.672,6.447A6.569,6.569,0,0,1,60.013,58.086Zm0,10.894a4.452,4.452,0,1,0-4.672-4.447A4.568,4.568,0,0,0,60.013,68.98Z" transform="translate(-8.18 24.29)" fill="#5bb3b3" />
        <path d="M3-1H22.363a4,4,0,0,1,4,4V115.965a4,4,0,0,1-4,4H3a4,4,0,0,1-4-4V3A4,4,0,0,1,3-1ZM22.363,117.965a2,2,0,0,0,2-2V3a2,2,0,0,0-2-2H3A2,2,0,0,0,1,3V115.965a2,2,0,0,0,2,2Z" transform="translate(9.487 60.576)" fill="#5bb3b3" />
        <path d="M36.424,58.086a6.451,6.451,0,1,1-6.671,6.447A6.569,6.569,0,0,1,36.424,58.086Zm0,10.894a4.452,4.452,0,1,0-4.671-4.447A4.568,4.568,0,0,0,36.424,68.98Z" transform="translate(-13.808 24.29)" fill="#5bb3b3" />
        <path d="M3-1H22.363a4,4,0,0,1,4,4V115.965a4,4,0,0,1-4,4H3a4,4,0,0,1-4-4V3A4,4,0,0,1,3-1ZM22.363,117.965a2,2,0,0,0,2-2V3a2,2,0,0,0-2-2H3A2,2,0,0,0,1,3V115.965a2,2,0,0,0,2,2Z" transform="translate(-19.907 60.576)" fill="#5bb3b3" />
        <path d="M3-1H22.363a4,4,0,0,1,4,4V115.965a4,4,0,0,1-4,4H3a4,4,0,0,1-4-4V3A4,4,0,0,1,3-1ZM22.363,117.965a2,2,0,0,0,2-2V3a2,2,0,0,0-2-2H3A2,2,0,0,0,1,3V115.965a2,2,0,0,0,2,2Z" transform="translate(127.585 60.576)" fill="#5bb3b3" />
        <path d="M128.381,58.086a6.451,6.451,0,1,1-6.672,6.447A6.569,6.569,0,0,1,128.381,58.086Zm0,10.894a4.452,4.452,0,1,0-4.672-4.447A4.568,4.568,0,0,0,128.381,68.98Z" transform="translate(11.886 24.29)" fill="#5bb3b3" />
        <path d="M3-1H22.363a4,4,0,0,1,4,4V115.965a4,4,0,0,1-4,4H3a4,4,0,0,1-4-4V3A4,4,0,0,1,3-1ZM22.363,117.965a2,2,0,0,0,2-2V3a2,2,0,0,0-2-2H3A2,2,0,0,0,1,3V115.965a2,2,0,0,0,2,2Z" transform="translate(98.19 60.576)" fill="#5bb3b3" />
        <path d="M104.9,58.086a6.451,6.451,0,1,1-6.672,6.447A6.569,6.569,0,0,1,104.9,58.086Zm0,10.894a4.452,4.452,0,1,0-4.672-4.447A4.568,4.568,0,0,0,104.9,68.98Z" transform="translate(5.529 24.29)" fill="#5bb3b3" />
        <path d="M377.708,45.857H268.46a1,1,0,0,1-1-1V1a1,1,0,0,1,2,0V43.857H376.708V1a1,1,0,0,1,2,0V44.857A1,1,0,0,1,377.708,45.857Z" transform="translate(-40.297)" fill="#5bb3b3" />
        <path d="M384.464,52.073H261.7a1,1,0,0,1-1-1V1a1,1,0,1,1,2,0V50.073H383.464V1a1,1,0,1,1,2,0V51.073A1,1,0,0,1,384.464,52.073Z" transform="translate(-40.297)" fill="#5bb3b3" />
        <path d="M398.969,66.7H247.2a1,1,0,0,1-1-1V1a1,1,0,0,1,2,0V64.7h149.77V1a1,1,0,0,1,2,0V65.7A1,1,0,0,1,398.969,66.7Z" transform="translate(-40.297)" fill="#5bb3b3" />
        <path d="M0,14.877a1,1,0,0,1-.672-.26A1,1,0,0,1-.74,13.2L11.868-.672A1,1,0,0,1,13.28-.74,1,1,0,0,1,13.348.672L.74,14.549A1,1,0,0,1,0,14.877Z" transform="translate(208.799 51.073)" fill="#5bb3b3" />
        <path d="M14.5,15.624a1,1,0,0,1-.71-.3L-.71.7A1,1,0,0,1-.7-.71,1,1,0,0,1,.71-.7l14.5,14.624a1,1,0,0,1-.71,1.7Z" transform="translate(344.168 51.073)" fill="#5bb3b3" />
        <path d="M265.781,214.637c-.4,0-1.447,0-1.709-.9L263,210.082c-.292-1,.815-1.606,1.411-1.934.558-.308,1.341-.681,2.326-1.11,1.651-.719,3.3-1.344,3.365-1.37q.037-.014.075-.025l72.962-21.311a2.251,2.251,0,0,1,2.79,1.529L347,189.517a2.252,2.252,0,0,1-1.529,2.79l-73.256,21.4q-.039.012-.08.02A47.714,47.714,0,0,1,265.781,214.637Zm-.7-4.566.749,2.566a45.643,45.643,0,0,0,5.86-.865l73.217-21.384a.252.252,0,0,0,.17-.309l-1.068-3.656a.256.256,0,0,0-.242-.179.245.245,0,0,0-.069.01l-72.923,21.3c-.225.086-1.47.565-2.786,1.125A24.2,24.2,0,0,0,265.085,210.07Z" transform="translate(-18.825 62.371)" fill="#5bb3b3" />
        <path d="M1.794,7.144a1,1,0,0,1-.959-.72L-.96.28A1,1,0,0,1-.28-.96,1,1,0,0,1,.96-.28L2.754,5.863a1,1,0,0,1-.96,1.281Z" transform="translate(322.715 248.165)" fill="#5bb3b3" />
        <path d="M337.246,191.054a1,1,0,0,1-.28-1.96l1.827-.533a.254.254,0,0,0,.169-.31l-.533-1.824a.254.254,0,0,0-.31-.171l-1.972.577a1,1,0,0,1-.561-1.92l1.973-.577a2.254,2.254,0,0,1,2.791,1.53l.533,1.824a2.254,2.254,0,0,1-1.527,2.79l-1.828.534A1,1,0,0,1,337.246,191.054Z" transform="translate(-9.856 62.371)" fill="#5bb3b3" />
        <path d="M321.645,190.373a1.411,1.411,0,0,1-1.349-1.011l-.045-.151a1.406,1.406,0,0,1,.957-1.745l5.94-1.735a1.4,1.4,0,0,1,.394-.057,1.411,1.411,0,0,1,1.35,1.013l.044.15a1.406,1.406,0,0,1-.957,1.745l-5.94,1.735A1.4,1.4,0,0,1,321.645,190.373Z" transform="translate(-11.686 62.549)" fill="#5bb3b3" />
        <path d="M1.662,6.693A1,1,0,0,1,.7,5.973L-.96.28A1,1,0,0,1-.28-.96,1,1,0,0,1,.96-.28L2.622,5.412a1,1,0,0,1-.96,1.281Z" transform="translate(296.554 256.051)" fill="#5bb3b3" />
        <path d="M1.662,6.693A1,1,0,0,1,.7,5.973L-.96.28A1,1,0,0,1-.28-.96,1,1,0,0,1,.96-.28L2.622,5.412a1,1,0,0,1-.96,1.281Z" transform="translate(295.235 256.436)" fill="#5bb3b3" />
        <path d="M263.083,211.28c-1.524,0-2.315-.254-2.707-.858a1.25,1.25,0,0,1-.147-1.048c.179-.611.779-1.157,2.072-1.884.762-.429,1.486-.756,1.517-.77a1,1,0,0,1,.823,1.823c-.5.226-1.01.489-1.441.736a16.308,16.308,0,0,0,1.734-.108,1,1,0,0,1,.234,1.986c-.037,0-.909.106-1.852.121Z" transform="translate(-19.173 65.164)" fill="#5bb3b3" />
        <path d="M.656,3.25A1,1,0,0,1-.3,2.53L-.96.28A1,1,0,0,1-.28-.96,1,1,0,0,1,.96-.28l.657,2.249A1,1,0,0,1,.656,3.25Z" transform="translate(244.582 273.088)" fill="#5bb3b3" />
        <path d="M405,255.576a1,1,0,0,1-.706-.292l-50.487-50.3-76.106,50.339a1,1,0,1,1-1.1-1.668l76.786-50.789a1,1,0,0,1,1.257.126l51.064,50.877a1,1,0,0,1-.706,1.708Z" transform="translate(-17.179 64.673)" fill="#5bb3b3" />
        <path d="M40.382,38.146a1,1,0,0,1-.677-.264L-.677.736A1,1,0,0,1-.736-.677,1,1,0,0,1,.677-.736L41.06,36.41a1,1,0,0,1-.677,1.736Z" transform="translate(326.647 282.161)" fill="#5bb3b3" />
        <path d="M32.382,32.464a1,1,0,0,1-.7-.283L-.7.717A1,1,0,0,1-.717-.7,1,1,0,0,1,.7-.717L33.079,30.746a1,1,0,0,1-.7,1.717Z" transform="translate(318.791 287.367)" fill="#5bb3b3" />
        <path d="M17.538,18.775a1,1,0,0,1-.712-.3L-.712.7A1,1,0,0,1-.7-.712,1,1,0,0,1,.712-.7L18.25,17.073a1,1,0,0,1-.712,1.7Z" transform="translate(310.625 292.47)" fill="#5bb3b3" />
        <path d="M17.541,18.16a1,1,0,0,1-.7-.285L-.7.715A1,1,0,0,1-.715-.7,1,1,0,0,1,.7-.715l17.541,17.16a1,1,0,0,1-.7,1.715Z" transform="translate(297.216 302.26)" fill="#5bb3b3" />
        <path d="M12.916,13.636a1,1,0,0,1-.7-.285L-.7.715A1,1,0,0,1-.715-.7,1,1,0,0,1,.7-.715L13.616,11.922a1,1,0,0,1-.7,1.715Z" transform="translate(289.05 307.364)" fill="#5bb3b3" />
        <g transform="translate(480 46)">
            <g clip-path="url(#a)">
                <path d="M94.276,73.07H1.04a1.04,1.04,0,1,1,0-2.08h92.2V63.826H1.04a1.04,1.04,0,1,1,0-2.08H94.276a1.04,1.04,0,0,1,1.04,1.04V72.03a1.04,1.04,0,0,1-1.04,1.04" transform="translate(0 -5.229)" fill="#d0dbe9" />
                <path d="M46.581,53.946H40.143a3.555,3.555,0,0,1-3.55-3.551V3.55A3.554,3.554,0,0,1,40.143,0h6.437a3.555,3.555,0,0,1,3.551,3.55V50.394a3.555,3.555,0,0,1-3.551,3.551M40.143,2.08A1.473,1.473,0,0,0,38.673,3.55V50.394a1.473,1.473,0,0,0,1.471,1.471h6.437a1.474,1.474,0,0,0,1.473-1.471V3.55A1.474,1.474,0,0,0,46.581,2.08Z" transform="translate(-3.099 0)" fill="#d0dbe9" />
                <path d="M45.794,27.809H41.6a1.04,1.04,0,1,1,0-2.08h4.192a1.04,1.04,0,0,1,0,2.08" transform="translate(-3.435 -2.179)" fill="#d0dbe9" />
                <path d="M45.794,32.932H41.6a1.04,1.04,0,1,1,0-2.08h4.192a1.04,1.04,0,0,1,0,2.08" transform="translate(-3.435 -2.613)" fill="#d0dbe9" />
                <path d="M13.29,53.87a3.555,3.555,0,0,1-1.038-.156L6.1,51.829a3.55,3.55,0,0,1-2.354-4.436L17.457,2.6A3.553,3.553,0,0,1,21.893.247l6.155,1.886A3.551,3.551,0,0,1,30.4,6.569L16.688,51.358a3.559,3.559,0,0,1-3.4,2.513m7.56-51.7a1.47,1.47,0,0,0-1.4,1.041L5.73,48a1.472,1.472,0,0,0,.977,1.838l6.155,1.886a1.478,1.478,0,0,0,1.838-.977L28.416,5.959a1.473,1.473,0,0,0-.977-1.838L21.283,2.236a1.469,1.469,0,0,0-.433-.065" transform="translate(-0.304 -0.008)" fill="#d0dbe9" />
                <path d="M20.806,28.48a1.044,1.044,0,0,1-.3-.046l-4.009-1.227a1.04,1.04,0,0,1,.61-1.988l4.009,1.227a1.04,1.04,0,0,1-.3,2.035" transform="translate(-1.334 -2.132)" fill="#d0dbe9" />
                <path d="M19.306,33.379a1.044,1.044,0,0,1-.3-.046l-4.01-1.227a1.04,1.04,0,0,1,.61-1.989l4.01,1.227a1.04,1.04,0,0,1-.3,2.035" transform="translate(-1.207 -2.547)" fill="#d0dbe9" />
                <path d="M72.849,151.816a3.558,3.558,0,0,1-3.39-2.513L55.742,104.512a3.549,3.549,0,0,1,2.354-4.435l6.156-1.885a3.554,3.554,0,0,1,4.436,2.355L82.4,145.338a3.554,3.554,0,0,1-2.354,4.436l-6.156,1.885a3.57,3.57,0,0,1-1.044.158m-7.556-51.7a1.49,1.49,0,0,0-.43.064l-6.156,1.886a1.47,1.47,0,0,0-.976,1.837l13.715,44.79a1.472,1.472,0,0,0,1.838.977l6.156-1.885a1.474,1.474,0,0,0,.976-1.838L66.7,101.156a1.475,1.475,0,0,0-1.408-1.04m-.735-.93h0Z" transform="translate(-4.707 -8.302)" fill="#d0dbe9" />
                <path d="M67.272,126.425a1.04,1.04,0,0,1-.3-2.035l4.009-1.227a1.039,1.039,0,1,1,.61,1.987l-4.009,1.228a1.045,1.045,0,0,1-.3.047" transform="translate(-5.609 -10.426)" fill="#d0dbe9" />
                <path d="M68.772,131.324a1.04,1.04,0,0,1-.3-2.035l4.009-1.227a1.039,1.039,0,1,1,.61,1.987l-4.009,1.228a1.044,1.044,0,0,1-.3.047" transform="translate(-5.736 -10.841)" fill="#d0dbe9" />
                <path d="M63.871,53.946H57.433a3.555,3.555,0,0,1-3.551-3.551V3.55A3.555,3.555,0,0,1,57.433,0h6.437a3.555,3.555,0,0,1,3.551,3.55V50.394a3.555,3.555,0,0,1-3.551,3.551M57.433,2.08A1.473,1.473,0,0,0,55.962,3.55V50.394a1.473,1.473,0,0,0,1.472,1.471h6.437a1.474,1.474,0,0,0,1.473-1.471V3.55A1.474,1.474,0,0,0,63.871,2.08Z" transform="translate(-4.563 0)" fill="#d0dbe9" />
                <path d="M63.084,27.809H58.892a1.04,1.04,0,0,1,0-2.08h4.192a1.04,1.04,0,1,1,0,2.08" transform="translate(-4.899 -2.179)" fill="#d0dbe9" />
                <path d="M63.084,32.932H58.892a1.04,1.04,0,0,1,0-2.08h4.192a1.04,1.04,0,1,1,0,2.08" transform="translate(-4.899 -2.613)" fill="#d0dbe9" />
                <path d="M99.331,53.946H92.893a3.555,3.555,0,0,1-3.551-3.551V3.55A3.555,3.555,0,0,1,92.893,0h6.437a3.555,3.555,0,0,1,3.551,3.55V50.394a3.555,3.555,0,0,1-3.551,3.551M92.893,2.08A1.473,1.473,0,0,0,91.422,3.55V50.394a1.473,1.473,0,0,0,1.472,1.471h6.437a1.474,1.474,0,0,0,1.473-1.471V3.55A1.474,1.474,0,0,0,99.331,2.08Z" transform="translate(-7.566 0)" fill="#d0dbe9" />
                <path d="M81.161,53.946H74.723a3.555,3.555,0,0,1-3.551-3.551V3.55A3.555,3.555,0,0,1,74.723,0h6.437a3.554,3.554,0,0,1,3.55,3.55V50.394a3.555,3.555,0,0,1-3.55,3.551M74.723,2.08A1.473,1.473,0,0,0,73.252,3.55V50.394a1.473,1.473,0,0,0,1.472,1.471h6.437a1.473,1.473,0,0,0,1.472-1.471V3.55A1.473,1.473,0,0,0,81.161,2.08Z" transform="translate(-6.027 0)" fill="#d0dbe9" />
                <path d="M98.544,27.809H94.352a1.04,1.04,0,1,1,0-2.08h4.192a1.04,1.04,0,0,1,0,2.08" transform="translate(-7.902 -2.179)" fill="#d0dbe9" />
                <path d="M98.544,32.932H94.352a1.04,1.04,0,1,1,0-2.08h4.192a1.04,1.04,0,0,1,0,2.08" transform="translate(-7.902 -2.613)" fill="#d0dbe9" />
                <path d="M80.374,27.809H76.181a1.04,1.04,0,0,1,0-2.08h4.193a1.04,1.04,0,0,1,0,2.08" transform="translate(-6.364 -2.179)" fill="#d0dbe9" />
                <path d="M80.374,32.932H76.181a1.04,1.04,0,0,1,0-2.08h4.193a1.04,1.04,0,0,1,0,2.08" transform="translate(-6.364 -2.613)" fill="#d0dbe9" />
                <path d="M94.276,171.069H1.04a1.039,1.039,0,1,1,0-2.079h92.2v-7.166H1.04a1.039,1.039,0,1,1,0-2.079H94.276a1.039,1.039,0,0,1,1.04,1.04v9.244a1.039,1.039,0,0,1-1.04,1.04" transform="translate(0 -13.529)" fill="#d0dbe9" />
                <path d="M10.013,151.891H3.575a3.555,3.555,0,0,1-3.55-3.551V101.5a3.555,3.555,0,0,1,3.55-3.551h6.437a3.555,3.555,0,0,1,3.551,3.551v46.843a3.555,3.555,0,0,1-3.551,3.551M3.575,100.025A1.473,1.473,0,0,0,2.1,101.5v46.843a1.473,1.473,0,0,0,1.471,1.472h6.437a1.474,1.474,0,0,0,1.473-1.472V101.5a1.474,1.474,0,0,0-1.473-1.472Z" transform="translate(-0.002 -8.295)" fill="#d0dbe9" />
                <path d="M9.228,125.753H5.035a1.039,1.039,0,1,1,0-2.079H9.228a1.039,1.039,0,1,1,0,2.079" transform="translate(-0.338 -10.474)" fill="#d0dbe9" />
                <path d="M9.228,130.876H5.035a1.039,1.039,0,1,1,0-2.079H9.228a1.039,1.039,0,1,1,0,2.079" transform="translate(-0.338 -10.908)" fill="#d0dbe9" />
                <path d="M46.473,151.891H40.035a3.555,3.555,0,0,1-3.55-3.551V101.5a3.555,3.555,0,0,1,3.55-3.551h6.437a3.555,3.555,0,0,1,3.551,3.551v46.843a3.555,3.555,0,0,1-3.551,3.551m-6.437-51.866a1.473,1.473,0,0,0-1.471,1.472v46.843a1.473,1.473,0,0,0,1.471,1.472h6.437a1.474,1.474,0,0,0,1.473-1.472V101.5a1.474,1.474,0,0,0-1.473-1.472Z" transform="translate(-3.09 -8.295)" fill="#d0dbe9" />
                <path d="M28.3,151.891H21.865a3.555,3.555,0,0,1-3.551-3.551V101.5a3.555,3.555,0,0,1,3.551-3.551H28.3a3.555,3.555,0,0,1,3.551,3.551v46.843a3.555,3.555,0,0,1-3.551,3.551m-6.437-51.866a1.473,1.473,0,0,0-1.472,1.472v46.843a1.474,1.474,0,0,0,1.472,1.472H28.3a1.474,1.474,0,0,0,1.473-1.472V101.5a1.474,1.474,0,0,0-1.473-1.472Z" transform="translate(-1.551 -8.295)" fill="#d0dbe9" />
                <path d="M45.688,125.753H41.495a1.039,1.039,0,1,1,0-2.079h4.193a1.039,1.039,0,1,1,0,2.079" transform="translate(-3.426 -10.474)" fill="#d0dbe9" />
                <path d="M45.688,130.876H41.495a1.039,1.039,0,1,1,0-2.079h4.193a1.039,1.039,0,1,1,0,2.079" transform="translate(-3.426 -10.908)" fill="#d0dbe9" />
                <path d="M27.517,125.753H23.325a1.039,1.039,0,1,1,0-2.079h4.192a1.039,1.039,0,1,1,0,2.079" transform="translate(-1.887 -10.474)" fill="#d0dbe9" />
                <path d="M27.517,130.876H23.325a1.039,1.039,0,1,1,0-2.079h4.192a1.039,1.039,0,1,1,0,2.079" transform="translate(-1.887 -10.908)" fill="#d0dbe9" />
                <path d="M347.99,207.438H122.247a1.039,1.039,0,1,1,0-2.079H347.99a1.039,1.039,0,1,1,0,2.079" transform="translate(-10.265 -17.391)" fill="#d0dbe9" />
                <path d="M400.9,227.257H347.321a1.038,1.038,0,0,1-1.04-1.039,11.458,11.458,0,0,1,11.446-11.446H390.5a11.458,11.458,0,0,1,11.445,11.446,1.038,1.038,0,0,1-1.04,1.039m-52.486-2.079h51.388a9.381,9.381,0,0,0-9.308-8.328H357.727a9.38,9.38,0,0,0-9.309,8.328" transform="translate(-29.326 -18.189)" fill="#d0dbe9" />
                <path d="M373.293,209.027a1.042,1.042,0,0,1-.994-1.346l12.294-39.943a1.04,1.04,0,0,1,1.988.611l-12.294,39.943a1.04,1.04,0,0,1-.994.735" transform="translate(-31.525 -14.143)" fill="#d0dbe9" />
                <path d="M380.976,209.19a1.042,1.042,0,0,1-.994-1.346l11.742-38.181a1.04,1.04,0,1,1,1.988.611L381.97,208.455a1.04,1.04,0,0,1-.994.735" transform="translate(-32.176 -14.306)" fill="#d0dbe9" />
                <path d="M384.824,149.269a1.04,1.04,0,0,1-.978-.687l-12.873-35.638h-3.1a1.04,1.04,0,0,1,0-2.08H371.7a1.038,1.038,0,0,1,.978.686l13.12,36.325a1.04,1.04,0,0,1-.978,1.393" transform="translate(-31.067 -9.389)" fill="#d0dbe9" />
                <path d="M391.065,146.886a1.04,1.04,0,0,1-.973-.674l-14.977-39.737h-9.737a1.04,1.04,0,0,1,0-2.081h10.457a1.041,1.041,0,0,1,.974.673l15.23,40.412a1.04,1.04,0,0,1-.607,1.34,1.023,1.023,0,0,1-.366.067" transform="translate(-30.855 -8.841)" fill="#d0dbe9" />
                <path d="M392.623,164.74a5.514,5.514,0,1,1,5.514-5.515,5.521,5.521,0,0,1-5.514,5.515m0-8.95a3.436,3.436,0,1,0,3.435,3.435,3.44,3.44,0,0,0-3.435-3.435" transform="translate(-32.783 -13.017)" fill="#d0dbe9" />
                <path d="M348.384,139.179a1.038,1.038,0,0,1-.857-.449l-28.9-41.921a1.04,1.04,0,0,1,.266-1.447A26.5,26.5,0,1,1,348.973,139a1.03,1.03,0,0,1-.589.183M320.941,96.5l27.7,40.174a24.42,24.42,0,0,0-27.7-40.174" transform="translate(-26.968 -7.68)" fill="#d0dbe9" />
                <path d="M336.13,127.5a9.645,9.645,0,0,1-7-16.321,1.04,1.04,0,1,1,1.5,1.442,7.568,7.568,0,0,0,8.356,12.23,1.04,1.04,0,0,1,.8,1.922,9.541,9.541,0,0,1-3.657.727" transform="translate(-27.647 -9.389)" fill="#d0dbe9" />
                <path d="M91.735,220.75H80.928a10.116,10.116,0,0,1-10.105-10.105v-20.9a1.038,1.038,0,0,1,1.039-1.039H100.8a1.038,1.038,0,0,1,1.04,1.039v20.9A10.116,10.116,0,0,1,91.735,220.75M72.9,190.781v19.864a8.036,8.036,0,0,0,8.026,8.026H91.735a8.036,8.036,0,0,0,8.026-8.026V190.781Z" transform="translate(-5.998 -15.981)" fill="#d0dbe9" />
                <path d="M109.407,211.637h-2.255a1.039,1.039,0,1,1,0-2.079h2.255a5.94,5.94,0,0,0,0-11.88h-2.255a1.039,1.039,0,1,1,0-2.079h2.255a8.019,8.019,0,1,1,0,16.037" transform="translate(-8.986 -16.565)" fill="#d0dbe9" />
                <path d="M100.8,227.4H71.862a1.039,1.039,0,1,1,0-2.079H100.8a1.039,1.039,0,1,1,0,2.079" transform="translate(-5.998 -19.082)" fill="#d0dbe9" />
                <path d="M225.367,222.582a1.039,1.039,0,0,1-1.039-1.04v-4.167a1.038,1.038,0,0,1,1.039-1.039l34.2,0a1.038,1.038,0,0,1,1.04,1.039v4.167a1.039,1.039,0,0,1-1.04,1.04Zm34.2-1.043h0Zm-33.162-3.124V220.5l32.123,0v-2.087Z" transform="translate(-18.998 -18.321)" fill="#d0dbe9" />
                <path d="M224.918,222.583a1.049,1.049,0,0,1-.428-.092l-4.851-2.191a1.039,1.039,0,0,1,.036-1.909l4.85-1.977a1.04,1.04,0,0,1,1.432.963v4.167a1.041,1.041,0,0,1-1.04,1.04M222.7,219.4l1.175.531v-1.01Z" transform="translate(-18.549 -18.321)" fill="#d0dbe9" />
                <path d="M249.231,226.428a1.039,1.039,0,1,1,0-2.079H260.5v-2.266a1.04,1.04,0,0,1,2.08,0v3.305a1.038,1.038,0,0,1-1.04,1.04Z" transform="translate(-21.019 -18.72)" fill="#d0dbe9" />
                <path d="M266.9,222.578h-4.167a1.039,1.039,0,0,1-1.04-1.04v-4.167a1.039,1.039,0,0,1,1.04-1.04H266.9a1.039,1.039,0,0,1,1.04,1.04v4.167a1.039,1.039,0,0,1-1.04,1.04m-3.128-2.079h2.088v-2.088h-2.088Z" transform="translate(-22.162 -18.321)" fill="#d0dbe9" />
                <path d="M334.648,83.132a1.04,1.04,0,0,1-1.04-1.04V33.9a1.04,1.04,0,0,1,1.04-1.04h79.1a1.04,1.04,0,0,1,0,2.081H335.688V82.092a1.04,1.04,0,0,1-1.04,1.04" transform="translate(-28.253 -2.783)" fill="#d0dbe9" />
                <path d="M416.007,100.354H363.088a1.04,1.04,0,0,1,0-2.08h52.919a1.04,1.04,0,1,1,0,2.08" transform="translate(-30.661 -8.323)" fill="#d0dbe9" />
                <path d="M327.792,83.467a1.04,1.04,0,0,1-1.04-1.04V27.047a1.039,1.039,0,0,1,1.04-1.04h85.225a1.04,1.04,0,0,1,0,2.08H328.832v54.34a1.04,1.04,0,0,1-1.04,1.04" transform="translate(-27.672 -2.202)" fill="#d0dbe9" />
                <path d="M417.7,107.211H383.115a1.04,1.04,0,0,1,0-2.08H417.7a1.04,1.04,0,0,1,0,2.08" transform="translate(-32.357 -8.903)" fill="#d0dbe9" />
                <path d="M414.817,80.89h-65.78a1.04,1.04,0,0,1-1.04-1.04V50.667a1.04,1.04,0,0,1,1.04-1.04h65.78a1.04,1.04,0,0,1,0,2.081h-64.74v27.1h64.74a1.04,1.04,0,1,1,0,2.08" transform="translate(-29.471 -4.203)" fill="#d0dbe9" />
                <path d="M367.95,21.385a1.04,1.04,0,0,1-.706-1.8L386.8,1.535a1.04,1.04,0,0,1,1.41,1.529L368.655,21.109a1.042,1.042,0,0,1-.706.276" transform="translate(-31.073 -0.107)" fill="#d0dbe9" />
                <path d="M408.876,21.385a1.042,1.042,0,0,1-.706-.276L388.612,3.063a1.04,1.04,0,0,1,1.41-1.529l19.559,18.046a1.04,1.04,0,0,1-.706,1.8" transform="translate(-32.882 -0.107)" fill="#d0dbe9" />
                <path d="M418.3,207.438H388.39a1.039,1.039,0,0,1,0-2.079H418.3a1.039,1.039,0,1,1,0,2.079" transform="translate(-32.804 -17.391)" fill="#d0dbe9" />
                <path d="M60.747,207.438H1.04a1.039,1.039,0,1,1,0-2.079H60.747a1.039,1.039,0,1,1,0,2.079" transform="translate(0 -17.391)" fill="#d0dbe9" />
            </g>
            <g clip-path="url(#a)">
                <path d="M275.481,66.346l-.046-.014a6.176,6.176,0,0,0-.743-.157c-.054-.008-.106-.021-.161-.027a6.864,6.864,0,0,0-.9-.061V67.73h.022a4.406,4.406,0,0,1,4.405,4.406v75.778l-23.337,23.338H136.012a4.406,4.406,0,0,1-4.406-4.406V72.136a4.407,4.407,0,0,1,4.406-4.406h.021V66.087a6.863,6.863,0,0,0-.9.061c-.055.006-.107.019-.161.027a6.161,6.161,0,0,0-.742.157l-.047.014c-5.485,1.61-6.86,10.409-7.151,16.384v84.115a8.983,8.983,0,0,0,8.983,8.983H256.486a3.182,3.182,0,0,0,2.248-.931l3.646-3.646,15.676-15.677,3.646-3.646a3.178,3.178,0,0,0,.931-2.248V82.73c-.29-5.975-1.665-14.774-7.151-16.384" transform="translate(-10.758 -5.597)" fill="#d0dbe8" />
                <path d="M247.11,164.508a4.128,4.128,0,0,1-4.127-4.128v-6.651a4.128,4.128,0,0,1,4.127-4.128h18.131a4.1,4.1,0,0,1,3.247,1.607h9.991v-55.4H132.029v77.957h123.89v-9.261Zm-4.127-55.4a4.128,4.128,0,0,1,4.127-4.128h18.131a4.128,4.128,0,0,1,4.127,4.128v6.651a4.128,4.128,0,0,1-4.127,4.128H247.11a4.128,4.128,0,0,1-4.127-4.128Zm0,22.313a4.128,4.128,0,0,1,4.127-4.128h18.131a4.128,4.128,0,0,1,4.127,4.128v6.651a4.128,4.128,0,0,1-4.127,4.128H247.11a4.128,4.128,0,0,1-4.127-4.128ZM167.568,160.38a4.128,4.128,0,0,1-4.127,4.128H145.309a4.128,4.128,0,0,1-4.127-4.128v-6.651a4.128,4.128,0,0,1,4.127-4.128h18.131a4.128,4.128,0,0,1,4.127,4.128Zm0-22.313a4.128,4.128,0,0,1-4.127,4.128H145.309a4.128,4.128,0,0,1-4.127-4.128v-6.651a4.128,4.128,0,0,1,4.127-4.128h18.131a4.128,4.128,0,0,1,4.127,4.128Zm0-22.313a4.128,4.128,0,0,1-4.127,4.128H145.309a4.128,4.128,0,0,1-4.127-4.128V109.1a4.128,4.128,0,0,1,4.127-4.128h18.131a4.128,4.128,0,0,1,4.127,4.128ZM201.5,160.38a4.128,4.128,0,0,1-4.128,4.128H179.244a4.128,4.128,0,0,1-4.128-4.128v-6.651a4.128,4.128,0,0,1,4.128-4.128h18.131a4.128,4.128,0,0,1,4.128,4.128Zm0-22.313a4.128,4.128,0,0,1-4.128,4.128H179.244a4.128,4.128,0,0,1-4.128-4.128v-6.651a4.128,4.128,0,0,1,4.128-4.128h18.131a4.128,4.128,0,0,1,4.128,4.128Zm0-22.313a4.128,4.128,0,0,1-4.128,4.128H179.244a4.128,4.128,0,0,1-4.128-4.128V109.1a4.128,4.128,0,0,1,4.128-4.128h18.131A4.128,4.128,0,0,1,201.5,109.1Zm33.933,44.625a4.128,4.128,0,0,1-4.128,4.128h-18.13a4.128,4.128,0,0,1-4.128-4.128v-6.651a4.128,4.128,0,0,1,4.128-4.128h18.13a4.128,4.128,0,0,1,4.128,4.128Zm0-22.313a4.128,4.128,0,0,1-4.128,4.128h-18.13a4.128,4.128,0,0,1-4.128-4.128v-6.651a4.128,4.128,0,0,1,4.128-4.128h18.13a4.128,4.128,0,0,1,4.128,4.128Zm0-22.313a4.128,4.128,0,0,1-4.128,4.128h-18.13a4.128,4.128,0,0,1-4.128-4.128V109.1a4.128,4.128,0,0,1,4.128-4.128h18.13a4.128,4.128,0,0,1,4.128,4.128Z" transform="translate(-11.181 -8.114)" fill="#d0dbe8" />
                <path d="M155.225,81.373a5.127,5.127,0,1,1-5.127-5.127,5.127,5.127,0,0,1,5.127,5.127" transform="translate(-12.277 -6.457)" fill="#d0dbe8" />
                <path d="M185.953,81.373a5.127,5.127,0,1,1-5.127-5.127,5.127,5.127,0,0,1,5.127,5.127" transform="translate(-14.88 -6.457)" fill="#d0dbe8" />
                <path d="M216.682,81.373a5.127,5.127,0,1,1-5.127-5.127,5.127,5.127,0,0,1,5.127,5.127" transform="translate(-17.482 -6.457)" fill="#d0dbe8" />
                <path d="M247.41,81.373a5.127,5.127,0,1,1-5.127-5.127,5.127,5.127,0,0,1,5.127,5.127" transform="translate(-20.084 -6.457)" fill="#d0dbe8" />
                <path d="M278.138,81.373a5.127,5.127,0,1,1-5.127-5.127,5.127,5.127,0,0,1,5.127,5.127" transform="translate(-22.686 -6.457)" fill="#d0dbe8" />
            </g>
            <g clip-path="url(#a)">
                <path d="M249.385,172.649H136.308a5.785,5.785,0,0,1-5.779-5.778V72.16a5.786,5.786,0,0,1,5.779-5.779H273.947a5.786,5.786,0,0,1,5.778,5.779v76.556a1.373,1.373,0,1,1-2.746,0V72.16a3.036,3.036,0,0,0-3.032-3.033H136.308a3.037,3.037,0,0,0-3.033,3.033v94.71a3.036,3.036,0,0,0,3.033,3.032H249.385a1.373,1.373,0,0,1,0,2.746" transform="translate(-11.054 -5.622)" fill="#5b7eaa" />
                <path d="M273.368,97.057H137.9a1.373,1.373,0,0,1,0-2.746H273.368a1.373,1.373,0,1,1,0,2.746" transform="translate(-11.562 -7.987)" fill="#5b7eaa" />
                <path d="M150.445,81.575a1.373,1.373,0,0,1-1.373-1.373V63.8a1.373,1.373,0,1,1,2.746,0V80.2a1.373,1.373,0,0,1-1.373,1.373" transform="translate(-12.625 -5.287)" fill="#5b7eaa" />
                <path d="M181.174,81.575A1.373,1.373,0,0,1,179.8,80.2V63.8a1.373,1.373,0,1,1,2.746,0V80.2a1.373,1.373,0,0,1-1.373,1.373" transform="translate(-15.227 -5.287)" fill="#5b7eaa" />
                <path d="M211.9,81.575a1.373,1.373,0,0,1-1.373-1.373V63.8a1.373,1.373,0,1,1,2.746,0V80.2a1.373,1.373,0,0,1-1.373,1.373" transform="translate(-17.829 -5.287)" fill="#5b7eaa" />
                <path d="M242.631,81.575a1.373,1.373,0,0,1-1.373-1.373V63.8a1.373,1.373,0,1,1,2.746,0V80.2a1.373,1.373,0,0,1-1.373,1.373" transform="translate(-20.432 -5.287)" fill="#5b7eaa" />
                <path d="M273.359,81.575a1.373,1.373,0,0,1-1.373-1.373V63.8a1.373,1.373,0,1,1,2.746,0V80.2a1.373,1.373,0,0,1-1.373,1.373" transform="translate(-23.034 -5.287)" fill="#5b7eaa" />
                <path d="M131.9,165.516a1.373,1.373,0,0,1-1.373-1.373V102.07a1.373,1.373,0,0,1,2.746,0v62.073a1.373,1.373,0,0,1-1.373,1.373" transform="translate(-11.054 -8.528)" fill="#5b7eaa" />
                <path d="M220.675,62.517a1.371,1.371,0,0,1-1.046-.482l-6.961-8.168a2.373,2.373,0,0,0-1.81-.837h0a2.368,2.368,0,0,0-1.8.83c-1.887,2.211-3.476,4.026-4.669,5.388-1.119,1.279-2.086,2.383-2.251,2.628a1.391,1.391,0,0,1-1.893.406,1.357,1.357,0,0,1-.439-1.857,37.562,37.562,0,0,1,2.517-2.986c1.186-1.355,2.769-3.161,4.646-5.361a5.106,5.106,0,0,1,3.889-1.794h0a5.112,5.112,0,0,1,3.9,1.8l6.962,8.167a1.373,1.373,0,0,1-1.044,2.264" transform="translate(-16.904 -4.258)" fill="#5b7eaa" />
                <path d="M267.255,180.14a1.373,1.373,0,0,1-1.373-1.373v-22.56a1.373,1.373,0,0,1,1.373-1.373h22.56a1.373,1.373,0,0,1,.971,2.344l-22.56,22.56a1.374,1.374,0,0,1-.971.4m1.373-22.56v17.872L286.5,157.58Z" transform="translate(-22.517 -13.113)" fill="#5b7eaa" />
                <path d="M274.891,122.567a1.369,1.369,0,0,1-.971-.4l-16.209-16.209a1.373,1.373,0,0,1,1.942-1.941l16.209,16.208a1.373,1.373,0,0,1-.971,2.344" transform="translate(-21.791 -8.775)" fill="#5b7eaa" />
                <path d="M258.682,122.567a1.373,1.373,0,0,1-.971-2.344l16.209-16.208a1.373,1.373,0,0,1,1.942,1.941l-16.209,16.209a1.369,1.369,0,0,1-.971.4" transform="translate(-21.791 -8.775)" fill="#5b7eaa" />
                <path d="M200.744,146.944a1.369,1.369,0,0,1-.971-.4l-16.209-16.209a1.373,1.373,0,1,1,1.942-1.942L201.715,144.6a1.373,1.373,0,0,1-.971,2.344" transform="translate(-15.512 -10.839)" fill="#5b7eaa" />
                <path d="M184.535,146.944a1.373,1.373,0,0,1-.971-2.344l16.209-16.209a1.373,1.373,0,1,1,1.942,1.942l-16.209,16.209a1.369,1.369,0,0,1-.971.4" transform="translate(-15.512 -10.839)" fill="#5b7eaa" />
                <path d="M136.783,66.087a7.194,7.194,0,0,0-.9.06,7.025,7.025,0,0,1,.9-.06" transform="translate(-11.507 -5.597)" fill="#e6f0fa" />
                <path d="M135.635,66.183a6.6,6.6,0,0,0-.743.157,6.213,6.213,0,0,1,.743-.157" transform="translate(-11.424 -5.605)" fill="#e6f0fa" />
            </g>
        </g>
        <path d="M15.446,1H0A1,1,0,0,1-1,0,1,1,0,0,1,0-1H15.446a1,1,0,0,1,1,1A1,1,0,0,1,15.446,1Z" transform="translate(73.068 153.68)" fill="#5bb3b3" />
        <path d="M15.446,1H0A1,1,0,0,1-1,0,1,1,0,0,1,0-1H15.446a1,1,0,0,1,1,1A1,1,0,0,1,15.446,1Z" transform="translate(73.068 146.958)" fill="#5bb3b3" />
        <path d="M15.446,1H0A1,1,0,0,1-1,0,1,1,0,0,1,0-1H15.446a1,1,0,0,1,1,1A1,1,0,0,1,15.446,1Z" transform="translate(43.896 153.68)" fill="#5bb3b3" />
        <path d="M15.446,1H0A1,1,0,0,1-1,0,1,1,0,0,1,0-1H15.446a1,1,0,0,1,1,1A1,1,0,0,1,15.446,1Z" transform="translate(43.896 146.958)" fill="#5bb3b3" />
        <path d="M15.446,1H0A1,1,0,0,1-1,0,1,1,0,0,1,0-1H15.446a1,1,0,0,1,1,1A1,1,0,0,1,15.446,1Z" transform="translate(14.595 153.68)" fill="#5bb3b3" />
        <path d="M15.446,1H0A1,1,0,0,1-1,0,1,1,0,0,1,0-1H15.446a1,1,0,0,1,1,1A1,1,0,0,1,15.446,1Z" transform="translate(14.595 146.958)" fill="#5bb3b3" />
        <path d="M15.446,1H0A1,1,0,0,1-1,0,1,1,0,0,1,0-1H15.446a1,1,0,0,1,1,1A1,1,0,0,1,15.446,1Z" transform="translate(-15.108 153.68)" fill="#5bb3b3" />
        <path d="M15.446,1H0A1,1,0,0,1-1,0,1,1,0,0,1,0-1H15.446a1,1,0,0,1,1,1A1,1,0,0,1,15.446,1Z" transform="translate(-15.108 146.958)" fill="#5bb3b3" />
        <path d="M15.446,1H0A1,1,0,0,1-1,0,1,1,0,0,1,0-1H15.446a1,1,0,0,1,1,1A1,1,0,0,1,15.446,1Z" transform="translate(129.385 153.68)" fill="#5bb3b3" />
        <path d="M15.446,1H0A1,1,0,0,1-1,0,1,1,0,0,1,0-1H15.446a1,1,0,0,1,1,1A1,1,0,0,1,15.446,1Z" transform="translate(129.385 146.958)" fill="#5bb3b3" />
        <path d="M15.446,1H0A1,1,0,0,1-1,0,1,1,0,0,1,0-1H15.446a1,1,0,0,1,1,1A1,1,0,0,1,15.446,1Z" transform="translate(102.647 153.68)" fill="#5bb3b3" />
        <path d="M15.446,1H0A1,1,0,0,1-1,0,1,1,0,0,1,0-1H15.446a1,1,0,0,1,1,1A1,1,0,0,1,15.446,1Z" transform="translate(102.647 146.958)" fill="#5bb3b3" />
        <path d="M372.181,122.524s-36.486,61.8,2.468,75.7a73.7,73.7,0,0,0,17.3,2,66.666,66.666,0,0,0,16.794-2c38.954-13.907,2.468-75.7,2.468-75.7" transform="translate(-46.047 21.382)" fill="#bfe2e2" />
        <path d="M384.635,138.441a1,1,0,0,1-.956-1.3l.1-.317c.237-.766.3-.954.327-1.038a45.223,45.223,0,0,0,1.364-26.924,18.876,18.876,0,0,0-3.146-7.028c-2.449-3.1-6.479-5.079-10.035-6.824a1,1,0,0,1,.881-1.8c3.747,1.839,7.993,3.923,10.724,7.381a20.725,20.725,0,0,1,3.512,7.766,47.223,47.223,0,0,1-1.423,28.116c-.027.078-.156.5-.293.938l-.1.317A1,1,0,0,1,384.635,138.441Z" transform="translate(-38.763 8.495)" fill="#bfe2e2" />
        <path d="M383.265,132.488a1,1,0,0,1-1-.992,20.447,20.447,0,0,0-4.381-12.195,38.09,38.09,0,0,0-6.76-6.768l-.076-.062a1,1,0,0,1-.174-.177h0l0,0a1,1,0,0,1,1.267-1.488.989.989,0,0,1,.176.12l.073.06a40.457,40.457,0,0,1,7.1,7.122,22.4,22.4,0,0,1,4.778,13.376,1,1,0,0,1-.992,1.008Z" transform="translate(-42.465 14.023)" fill="#bfe2e2" />
        <path d="M384.154,82.34a11.419,11.419,0,0,1,10.7.4,3.494,3.494,0,0,1,1.708,2.07,3.314,3.314,0,0,1-.474,2.135c-2.521,4.793-10.407,7.684-16.076,8.173,3.256.829,8.007.965,10.943,2.525a3.721,3.721,0,0,1,1.823,1.592c.49,1.146-.391,2.483-1.574,3.024a8.415,8.415,0,0,1-3.873.438c-2.338-.1-4.892-.286-6.587-1.8l1.391,6.629a10.4,10.4,0,0,1,.218,5.04c-.92,3.136-4.685,4.9-8.148,4.865-1.858-.017-3.938-.6-4.758-2.165a4.933,4.933,0,0,1-.362-2.71,19.549,19.549,0,0,1,3.851-10.106,22.445,22.445,0,0,1-10.033,10.733,3.636,3.636,0,0,1-2.724.558,2.876,2.876,0,0,1-1.7-2.343,9.084,9.084,0,0,1,2.509-7.606c1.891-2.09,6.982-4.163,9.637-5.306-2.585.161-7.917.891-10.039-.507-3.325-2.191-2.851-7.691.667-9.6s7.808-.8,9.1,2.822a8.237,8.237,0,0,1-1.124-6.267c.464-2.476,3.234-4.7,5.739-3.813a4.912,4.912,0,0,1,2.644,2.62c.6,1.256-.393,5.759-.409,7.127C378.248,88.472,381.7,83.493,384.154,82.34Z" transform="translate(-45.292 2.509)" fill="#bfe2e2" />
        <path d="M384.647,139.081a1,1,0,0,1-.984-1.184,53.617,53.617,0,0,1,7.348-18.869A74.082,74.082,0,0,1,405.6,102.444a1,1,0,1,1,1.312,1.509,72.127,72.127,0,0,0-14.2,16.133,51.652,51.652,0,0,0-7.079,18.178A1,1,0,0,1,384.647,139.081Z" transform="translate(-33.356 8.013)" fill="#bfe2e2" />
        <path d="M419.4,93.1c2.242-.416,5.04-.074,6.056,1.849,1.157,2.191-.792,4.69-2.8,6.245-2.369,1.836-5.386,3.412-8.382,2.781a23.981,23.981,0,0,1,9.078,3.807c1.112.772,2.236,1.8,2.252,3.1.023,1.794-2.067,2.968-3.957,3.221a10.263,10.263,0,0,1-10.442-5.533,8.235,8.235,0,0,1-2.322,6.787,9.421,9.421,0,0,1-7.026,2.694,3.916,3.916,0,0,1-2.961-1.2,3.463,3.463,0,0,1-.34-3,9.809,9.809,0,0,1,4.892-6.108,11.847,11.847,0,0,1-12.365.02,2.533,2.533,0,0,1-1.211-1.353,2.367,2.367,0,0,1,.4-1.692,10.99,10.99,0,0,1,7.181-5.19c1.965-.427,4.4-.147,5.419,1.489a12.319,12.319,0,0,1-6.952-7.633,5.858,5.858,0,0,1,.045-4.065,3.454,3.454,0,0,1,3.469-2.045,4.64,4.64,0,0,1,2.827,2.055c2.082,2.788,1.977,3.205,2.769,9.352a10.077,10.077,0,0,1,4.536-10.5,7.242,7.242,0,0,1,5.466-1.134c1.859.467,3.4,2.224,3.079,4.006-.262,1.455-1.579,2.506-2.809,3.425-1.382,1.032-2.756,2.076-4.152,3.092C413.329,95.485,416.2,93.479,419.4,93.1Z" transform="translate(-31.004 5.219)" fill="#bfe2e2" />
        <path d="M-527.436,2655.087a6.9,6.9,0,0,1,.632-6.565,11.839,11.839,0,0,1,5.346-4.272l-.16-.35a4.962,4.962,0,0,1-3.085-4.724,3.966,3.966,0,0,1,4.283-3.409c1.365.185,4.278,2.129,6.107,3.433l7.875-6.2a12.348,12.348,0,0,1,8.015,3.392,2.1,2.1,0,0,1,.567.776c.292.858-.536,1.688-1.37,2.133-2.111,1.128-4.563.923-7.024.446a11.683,11.683,0,0,1,5.507,5.926c.751,1.777.868,4.272-.95,5.132a4.582,4.582,0,0,1-3.249-.094,22.076,22.076,0,0,1-10.737-7.282l3.422,4.773c1.351,1.884,2.762,4,2.415,6.25a2.238,2.238,0,0,1-1.21,1.807c-1,.41-2.111-.247-2.913-.938a16.548,16.548,0,0,1-5-7.608,21.687,21.687,0,0,1-.377,8.428,3.049,3.049,0,0,1-.728,1.529,2.713,2.713,0,0,1-1.512.643,4.966,4.966,0,0,1-.708.051A5.88,5.88,0,0,1-527.436,2655.087Z" transform="translate(843.964 -2519.972)" fill="#bfe2e2" />
        <g transform="translate(-736.515 2265.836)">
            <path d="M12.168.02C-6-.9.82,31.056,3.5,42.881,6.746,57.235,16.879,79.613,34.833,77.461c-3.329-7.33-6.942-15.1-10.164-22.211-.706-1.535-1.443-3.384-2.107-5.121-.525-1.373-2.932-8.53.11-4.776,1.615,1.993,2.469,6.76,3.546,9.332.682,1.629,1.651,4.091,2.123,5.132,8.465,20.11,22.983,36.557,23.919,59.3.243,5.895-.911,10.825-2.219,16.467-.205.884-1.468,3.555.65,3.395,1.9-.143,2.642-4.968,2.984-6.3,2.686-10.476,1.111-22.13-2.092-32.295-2.223-7.057-5.761-13.288-9.773-19.423-2.047-3.131-2.7-2.925-1.162-6.237a19.56,19.56,0,0,0,1.688-9.711c-.627-4.651-2.415-16.3-4.015-20.76-.67-1.869-.806-8.009-10.776-18.966C21.01,9.142,12.168.02,12.168.02Z" transform="translate(694.178 -2119.746) rotate(4)" fill="#bfe2e2" />
            <path d="M12.168,138.967C-6,139.888.82,107.93,3.5,96.1,6.746,81.751,16.879,59.373,34.833,61.525c-3.329,7.33-6.942,15.1-10.164,22.211-.706,1.535-1.443,3.384-2.107,5.121-.525,1.373-2.932,8.53.11,4.776,1.615-1.993,2.469-6.76,3.546-9.332.682-1.629,1.651-4.091,2.123-5.132,8.465-20.11,22.983-36.557,23.919-59.3.243-5.9-.911-10.825-2.219-16.467-.205-.884-1.468-3.555.65-3.395,1.9.143,2.642,4.968,2.984,6.3,2.686,10.476,1.111,22.13-2.092,32.295-2.223,7.057-5.761,13.288-9.773,19.423-2.047,3.131-2.7,2.925-1.162,6.237a19.56,19.56,0,0,1,1.688,9.711c-.627,4.651-2.415,16.3-4.015,20.761-.67,1.869-.806,8.009-10.776,18.966C21.01,129.844,12.168,138.967,12.168,138.967Z" transform="matrix(-0.998, 0.07, -0.07, -0.998, 796.287, -1989.252)" fill="#bfe2e2" />
            <path d="M84.106,0c.416,4.589,1.155,7.3,0,15.524-1.886,13.431-4.493,25.79-18.461,30.563-5.122,1.75-13.105,8.12-17.449,11.676a42.4,42.4,0,0,0-6.722,7.5l-.023.035c-6.686,9.757-16.49,18.145-29.095,13.98.248-.448.5-.962.77-1.471a8.363,8.363,0,0,1,1.644-2.632A198.753,198.753,0,0,1,26.254,58.615c1.648-2.132,5.728-5.965,6.141-7.978.858-4.177-4.689,3.376-4.651,3.328A229.337,229.337,0,0,0,13.352,74.312s0,.011,0,.015a6.4,6.4,0,0,1-1.33,2.429,4.391,4.391,0,0,1-.63.883c-.083.123-.154.233-.206.326-.031-.023-.059-.049-.09-.073a1.644,1.644,0,0,1-.137.093q-1.218,2.462-2.327,4.964c-7.012,15.916-6.541,31.4-5.989,48.439.113,3.5,1.338,8.752.361,12.1-1.067,3.66-1.778.056-1.9-2.126C.641,133.235.244,125.1.027,116.959a87.49,87.49,0,0,1,8.609-39.3A13.926,13.926,0,0,1,5,73.2c-2.223-4.237-1.678-9.336.247-13.585a29.193,29.193,0,0,1,5.916-8.455A24.71,24.71,0,0,1,16.289,44.3c7.318-7.081,15.4-14.182,18.6-20.32S51.97,4.6,84.106,0Z" transform="matrix(0.998, 0.07, -0.07, 0.998, 764.111, -2114.388)" fill="#bfe2e2" />
            <path d="M55.548,1.292C40.49,13.118,17.4,25.077,9.873,42.2c-8.411,19.122-.884,44.93-3.936,65.611-2,13.588-4.3,27.221-5.413,40.918a145.981,145.981,0,0,0-.5,14.645c.008.4.221,11.3,2.207,9.045,1.13-1.281-.2-11.3-.177-12.936a209.583,209.583,0,0,1,2.482-27.46c2.2-14.989,3.855-29.976,7.476-44.708A51.072,51.072,0,0,1,13.9,80.686c.889-2.242.03-1.329,1.992-1.991,1.907-.643,4.09-.206,6.1-1.067C29.941,74.214,35.3,63.322,39.267,56.24c4.543-8.1,7.856-16.95,10.743-25.738a190.312,190.312,0,0,0,5.322-19.564,52.384,52.384,0,0,1,1.477-6.324,14.626,14.626,0,0,0,.941-1.958C57.855,1.6,57.307.891,57.379,0q-.929.626-1.832,1.292" transform="translate(717.904 -2172.74) rotate(-7)" fill="#bfe2e2" />
            <path d="M0,0C0,39.924,18.509,72.29,41.341,72.29S82.681,39.924,82.681,0" transform="translate(705.53 -1990.411)" fill="#bfe2e2" />
            <path d="M54.631,16.138C49.7,7.548,38.269-.706,28.037.048a7.3,7.3,0,0,0-3.09.912A30.985,30.985,0,0,0,20.9.918C8.88,2.6,3.4,17.824,1.649,28.189a81.114,81.114,0,0,0-.872,9.349c-.106,2.041-1.512,8.907-.263,10.5,1.973,2.518,1.949-3.93,1.994-4.505.271-3.515.438-7.052.849-10.555C4.586,22.514,9.216,6.044,21.106,3.435c1.1-.242,4.934.163,8.148.513a3.929,3.929,0,0,1,2.5,1.541c.882,2.114-5.077-.56-5.669-.688-3.47-.748-5.743-.023-5.372,4,.269,2.919,2.58,4.725,4.671,6.489,1.335,1.127,2.78,2.133,4.1,3.276,5.672,4.906,14.774,32.965,14.774,32.965s9.581-7.092,11.226-12.018c2.457-7.358,3.128-16.452-.851-23.378" transform="matrix(0.998, 0.07, -0.07, 0.998, 758.895, -2025.494)" fill="#bfe2e2" />
        </g>
        <g transform="translate(0 -7.76)">
            <path d="M233.723,148.091V57.16c0-5.368-3.846-9.72-8.594-9.72H79.359c-4.746,0-8.594,4.352-8.594,9.72v90.931" transform="translate(47.24 75.435)" fill="#313e58" />
            <path d="M221.42,137.429V54.621a1.638,1.638,0,0,0-1.59-1.683H78.406a1.639,1.639,0,0,0-1.59,1.683v82.808" transform="translate(50.367 78.848)" fill="#7468b4" />
            <path d="M250.262,109.6H63.441a1.647,1.647,0,0,0-1.59,1.7c0,7.456,5.656,13.5,12.632,13.5H239.22c6.976,0,12.632-6.042,12.632-13.5a1.647,1.647,0,0,0-1.59-1.7" transform="translate(42.633 116.162)" fill="#7a8293" />
            <path d="M137.8,112.78a4.765,4.765,0,0,0,4.32,3.714h29.463a4.765,4.765,0,0,0,4.32-3.714" transform="translate(43.149 115.799)" fill="#313e58" />
            <path d="M-475.442,2723.06H-528v-82.808a1.641,1.641,0,0,1,1.59-1.683h97.864l-46.9,84.491Z" transform="translate(655.183 -2506.783)" fill="#9183d8" />
            <path d="M-475.148,2723.56H-528.5v-83.308a2.141,2.141,0,0,1,2.09-2.183H-427.7Zm-52.352-1h51.764l46.341-83.491H-526.41a1.141,1.141,0,0,0-1.09,1.183Z" transform="translate(655.183 -2506.783)" fill="rgba(0,0,0,0)" />
            <g transform="translate(141.587 151.003)">
                <rect width="62.465" height="47.963" rx="5" transform="translate(37.95)" fill="#ffd964" />
                <path d="M5-1H57.465a6.007,6.007,0,0,1,6,6V42.963a6.007,6.007,0,0,1-6,6H5a6.007,6.007,0,0,1-6-6V5A6.007,6.007,0,0,1,5-1ZM57.465,46.963a4,4,0,0,0,4-4V5a4,4,0,0,0-4-4H5A4,4,0,0,0,1,5V42.963a4,4,0,0,0,4,4Z" transform="translate(37.95)" fill="#313e58" />
                <path d="M236.295,142.034c-.694,0-1.833-.365-6.6-4.726-2.663-2.435-6.069-5.763-10.124-9.89-3.123-3.178-6.6-6.8-9.536-9.95-1.249-1.338-2.315-2.5-3.082-3.35-.377-.419-.67-.753-.872-.992a1.579,1.579,0,0,1-.538-1.04,1,1,0,0,1,1.881-.474c.618.815,6.742,7.457,13.7,14.536,3.865,3.93,7.131,7.124,9.708,9.492,3.929,3.61,5.147,4.261,5.461,4.379.32-.12,1.578-.8,5.707-4.6,2.624-2.418,6.015-5.73,10.081-9.845,6.932-7.017,13.5-14.02,13.564-14.09a1,1,0,0,1,1.459,1.368c-.068.072-6.854,7.31-13.924,14.455-4.158,4.2-7.6,7.553-10.235,9.959C238.127,141.665,236.986,142.034,236.295,142.034Z" transform="translate(-167.183 -109.23)" fill="#313e58" />
                <path d="M0,16.241a1,1,0,0,1-.814-.418,1,1,0,0,1,.232-1.4L20.728-.813a1,1,0,0,1,1.4.232,1,1,0,0,1-.232,1.4L.582,16.054A1,1,0,0,1,0,16.241Z" transform="translate(39.168 26.092)" fill="#313e58" />
                <path d="M21.159,16.241a1,1,0,0,1-.584-.189L-.584.811a1,1,0,0,1-.227-1.4,1,1,0,0,1,1.4-.227l21.16,15.241a1,1,0,0,1-.585,1.812Z" transform="translate(78.362 26.092)" fill="#313e58" />
                <path d="M32.473,1H0A1,1,0,0,1-1,0,1,1,0,0,1,0-1H32.473a1,1,0,0,1,1,1A1,1,0,0,1,32.473,1Z" transform="translate(0 12.545)" fill="#313e58" />
                <path d="M14.647,1H0A1,1,0,0,1-1,0,1,1,0,0,1,0-1H14.647a1,1,0,0,1,1,1A1,1,0,0,1,14.647,1Z" transform="translate(15.555 23.982)" fill="#313e58" />
                <path d="M25.206,1H0A1,1,0,0,1-1,0,1,1,0,0,1,0-1H25.206a1,1,0,0,1,1,1A1,1,0,0,1,25.206,1Z" transform="translate(7.381 35.419)" fill="#313e58" />
            </g>
        </g>
    </g>
</svg>