<svg xmlns="http://www.w3.org/2000/svg" xmlns:xlink="http://www.w3.org/1999/xlink" width="400" height="320" viewBox="0 0 400 320">
    <defs>
        <clipPath>
            <rect width="99.532" height="152.182" fill="none" stroke="#5bb3b3" stroke-width="2" />
        </clipPath>
        <clipPath >
            <rect width="72.154" height="132.091" fill="#bfe2e2" />
        </clipPath>
        <clipPath >
            <path d="M35.89,26.108v55.04a2.137,2.137,0,1,0,4.274,0V26.108a2.137,2.137,0,1,0-4.274,0" transform="translate(-35.89 -23.97)" fill="#bfe2e2" />
        </clipPath>
        <clipPath >
            <rect width="400" height="320" />
        </clipPath>
    </defs>
    <g clip-path="url(#f)">
        <rect width="400" height="320" fill="transparent" />
        <path d="M0,0H79L74,22H5Z" transform="translate(278 298)" fill="#bfe2e2" />
        <path d="M1943.742,2850.457h0l-12.245,0a39.052,39.052,0,0,1-4.446-5.811,10.013,10.013,0,0,1-1.728-5.579c.111-1.993.761-2.921,2.047-2.921a8.853,8.853,0,0,1,2.813.754,8.847,8.847,0,0,0,2.826.758,2.148,2.148,0,0,0,.4-.034l-2.116-1.7-1.668-1.344-.394-.316-1.6-1.285-1.653-1.331-1.816-1.462-.65-.525-.168-.135c-1.1-.884-2.26-1.818-3.652-2.941a70.531,70.531,0,0,1-8.064-7.252,24.649,24.649,0,0,1-5.574-9.232,16.381,16.381,0,0,1,1.822-13.291,8.566,8.566,0,0,1,6.339-4.135,95.555,95.555,0,0,1-12.7-9.3A99.538,99.538,0,0,1,1890.349,2772a23.064,23.064,0,0,1-.073-6.9,8.342,8.342,0,0,1,1.708-4.01c2.056-2.444,5.408-2.562,8.1-2.658a13.366,13.366,0,0,0,3.2-.341,61.525,61.525,0,0,1-10.31-6.836,64.548,64.548,0,0,1-8.908-8.862,31.984,31.984,0,0,1-4.026-5.957,16.079,16.079,0,0,1-1.866-6.894,10.9,10.9,0,0,1,2.937-7.651,6.315,6.315,0,0,1,4.525-2.1c.161,0,.32.007.471.02a70.508,70.508,0,0,1-10.322-12.963c-3.119-5.4-4.29-10.453-3.582-15.445a121.806,121.806,0,0,0,10.931,15.12c3.333,3.894,6.38,6.883,9.326,9.774l.028.028.015.013.018.019a98.684,98.684,0,0,1,10.723,11.766,96.936,96.936,0,0,1,10.979,19.528l11.1,24.342c3.732,8.491,7.338,20.347,10.72,35.237l.163.724.1.462.006.029a26.129,26.129,0,0,1,4.665-7.232c-.286-.5-.554-1-.8-1.467a7.629,7.629,0,0,1-3.865-2.448,11.469,11.469,0,0,1-2.293-4.073,11.28,11.28,0,0,1-.5-4.755c.776-6.59,6.1-11.075,9.2-13.161a11.664,11.664,0,0,1-6.762-6.943,22.767,22.767,0,0,1-.884-11.144,36.535,36.535,0,0,1,2.613-9.338c-.06-.223-.122-.447-.185-.666-.016-.055-.032-.111-.047-.166l-.028-.1-.014-.046-.047-.167-.03-.105-.086-.3a19.672,19.672,0,0,1-8.214-2.628,14.55,14.55,0,0,1-7.111-12.227,12.068,12.068,0,0,1,1.412-6.052,63.573,63.573,0,0,1-14.155-4.954,92.96,92.96,0,0,1-11.155-7.128l-.012-.008-.027-.018-.015-.011c-1.787-1.256-3.81-2.678-6.188-4.294a40.147,40.147,0,0,1,10.3-1.386,38.3,38.3,0,0,1,16.668,3.892A54.023,54.023,0,0,1,1933.222,2722c1.411,1.4,2.817,2.912,4.18,4.505a5.14,5.14,0,0,1,1.166-.126,9.773,9.773,0,0,1,2.438.358,19.1,19.1,0,0,1-8.227-7.112c-1.722-2.788-2.747-6.1-4.046-10.3l-.005-.017-.01-.035,0-.012,0-.009,0-.015c-.448-1.449-1-3.254-1.648-5.178a88.378,88.378,0,0,1-3.557-14.719c-.692-4.795-.607-8.085.241-9.264a1.031,1.031,0,0,1,.852-.48,1.285,1.285,0,0,1,.345.052,14.3,14.3,0,0,1-4.812-3.785,38.708,38.708,0,0,1-4-5.531,63.51,63.51,0,0,1-3.742-7.155l0-.008v-.012c0-.066.017-6.768-.314-13.718-.557-11.722-1.654-15.406-2.475-16.433a81.862,81.862,0,0,1,9.661,12.349,116.826,116.826,0,0,1,7.727,14.209,219.639,219.639,0,0,1,11.254,31.394c4.729,16.386,8.979,33.667,12.632,51.365a32.149,32.149,0,0,0-11.129,5.158l10.167,14.119,10.707,14.872v.008c.017.106.033.211.049.317l-8.988-11.957a8.685,8.685,0,0,0-2.2,5.207,10.346,10.346,0,0,0,1.4,5.994,9.815,9.815,0,0,0,8.339,5.1,8,8,0,0,0,2.013-.256c.218,1.807.4,3.623.554,5.55a274.258,274.258,0,0,1,.445,28.366c1.29,11.947,2.291,23.944,2.975,35.658h-16.62a29.122,29.122,0,0,1-.642-6.058c-.405-.622-.8-1.208-1.162-1.742-.445-.652-.943-1.368-1.564-2.255l-.013-.017-.008-.012-.006-.009c-1.292-1.849-2.625-3.758-3.822-5.737.867,5.251,1.668,10.578,2.38,15.832Zm27.619,0h-5.3c.125-8.117.329-16.5.493-23.244v-.091c.271-11.178.5-20.831.371-25.929v-.012c-.13-4.89-.277-10.433-.26-16.3l5.349,7.429,3.576,4.965a31.978,31.978,0,0,0,11.371-14.881,26.518,26.518,0,0,1,5.884,8.662c1.337-3.584,2.675-6.9,3.974-9.855,1.388-3.158,2.868-6.4,4.4-9.647l7.08,18.826c-1.175.794-2.375,1.565-3.567,2.294a8.246,8.246,0,0,1,5.619,3.162l3.156,8.391a15.725,15.725,0,0,1-.615,5.874,24.642,24.642,0,0,1-5.574,9.232,70.671,70.671,0,0,1-8.064,7.252q-2.388,1.925-4.777,3.846l-.281.226-.228.184-1.185.955q-1.822,1.468-3.644,2.934l-3.6,2.9a2.253,2.253,0,0,0,.4.034,8.826,8.826,0,0,0,2.818-.754l.006,0a8.821,8.821,0,0,1,2.815-.755c1.286,0,1.937.928,2.048,2.921a10.021,10.021,0,0,1-1.728,5.579,39.027,39.027,0,0,1-4.447,5.811h-10.832c1.019-5.273,2.171-10.659,3.423-16.008a27.4,27.4,0,0,1-1.087,3.12,32.861,32.861,0,0,1-6.89,10.168c-.256.931-.494,1.847-.709,2.72Zm6.781-39.493h0l.041.138c1.4,4.582,3.135,10.283,2.906,16.622a29.02,29.02,0,0,1-.5,4.434c1.7-7.1,3.565-14.086,5.535-20.761a10.807,10.807,0,0,1-3.528.6,10.015,10.015,0,0,1-4.454-1.036Zm36.855-25.55h0l-8.933-23.782c4.222-8.385,8.858-16.984,14.175-26.292,6.465-11.314,13.33-22.573,17.932-30.056-3.623,2.042-7.368,3.928-11.131,5.608a131.2,131.2,0,0,1-22.209,7.622c2.051,3.693,3.661,6.777,4.18,10.013a11.915,11.915,0,0,1-.239,5.091,15.039,15.039,0,0,1-2.843,5.389c-1.241,1.577-2.36,3.14-3.347,4.519l0,.005-.005.008a54.911,54.911,0,0,1-6.423,7.886,28.478,28.478,0,0,1-7.553,5.215h-3.6a30.4,30.4,0,0,0-1.732-2.7,29.89,29.89,0,0,0-11.453-9.557c.725-2.251,1.552-4.468,2.455-6.589a65.7,65.7,0,0,1,10.218-16.58,67.966,67.966,0,0,1,14.2-12.7,66.323,66.323,0,0,1,16.85-8.133,60.217,60.217,0,0,1,18.174-2.865,55.74,55.74,0,0,1,8.829.7c1.51-2.437,2.983-4.811,4.224-6.81a20.579,20.579,0,0,1-.358,7.583c.49.118.953.235,1.374.346-.611.414-1.18.792-1.788,1.193a30.681,30.681,0,0,1-2.809,6.322,70.529,70.529,0,0,1-10.322,12.963c.171-.014.33-.02.471-.02a6.32,6.32,0,0,1,4.527,2.1,10.9,10.9,0,0,1,2.935,7.651c-.138,5.311-3.428,9.878-5.891,12.851a64.7,64.7,0,0,1-8.908,8.862,61.547,61.547,0,0,1-10.31,6.836,13.291,13.291,0,0,0,3.186.341c2.7.1,6.056.214,8.111,2.658a8.354,8.354,0,0,1,1.708,4.01,23.082,23.082,0,0,1-.073,6.9,99.618,99.618,0,0,1-11.174,11.371c-.8.692-1.616,1.377-2.432,2.038Zm-27.516-3.176c-.153,0-.306-.006-.456-.017a31.233,31.233,0,0,0,1.661-14.447,30.223,30.223,0,0,0-.733-3.843h4.9a15.294,15.294,0,0,1,2.673,6.865,11.258,11.258,0,0,1-.5,4.752,11.447,11.447,0,0,1-2.293,4.075A7.106,7.106,0,0,1,1987.481,2782.237Z" transform="translate(-1648.605 -2653.955)" fill="#bfe2e2" />
        <path d="M1944.319,2851.1l-.634-.144-12.413,0-.149-.168a39.5,39.5,0,0,1-4.5-5.887,10.483,10.483,0,0,1-1.8-5.862,4.737,4.737,0,0,1,.672-2.467,2.155,2.155,0,0,1,1.873-.927,9.158,9.158,0,0,1,2.991.787c.464.177.937.357,1.385.493l-8.708-7.011c-1.1-.882-2.257-1.816-3.653-2.942a70.922,70.922,0,0,1-8.12-7.3,25.133,25.133,0,0,1-5.681-9.419,16.906,16.906,0,0,1,1.882-13.718,9.41,9.41,0,0,1,5.384-4.122,96.3,96.3,0,0,1-11.654-8.655,100.044,100.044,0,0,1-11.231-11.43l-.092-.11-.02-.143a23.547,23.547,0,0,1-.07-7.053,8.829,8.829,0,0,1,1.818-4.246c2.2-2.613,5.673-2.736,8.465-2.835.617-.022,1.192-.043,1.708-.087a62.26,62.26,0,0,1-9.121-6.2,65.039,65.039,0,0,1-8.977-8.931,32.474,32.474,0,0,1-4.087-6.051,16.566,16.566,0,0,1-1.919-7.106,11.413,11.413,0,0,1,3.078-8.013,7,7,0,0,1,4.2-2.208,67.692,67.692,0,0,1-9.605-12.231c-3.177-5.5-4.369-10.658-3.644-15.765l.193-1.364.726,1.171a121.3,121.3,0,0,0,10.886,15.059c3.321,3.879,6.358,6.86,9.3,9.742l.068.067a99.032,99.032,0,0,1,10.766,11.817,97.416,97.416,0,0,1,11.035,19.625l11.1,24.345c3.726,8.479,7.326,20.289,10.7,35.108a26.833,26.833,0,0,1,3.889-5.754c-.184-.329-.36-.655-.526-.973a8.214,8.214,0,0,1-3.9-2.544,11.975,11.975,0,0,1-2.395-4.25,11.786,11.786,0,0,1-.526-4.967c.74-6.285,5.465-10.69,8.682-13a12.139,12.139,0,0,1-6.21-6.863,23.261,23.261,0,0,1-.912-11.392,37.064,37.064,0,0,1,2.58-9.307c-.045-.164-.091-.329-.137-.492-.016-.053-.032-.111-.048-.168l-.113-.4a20,20,0,0,1-8.085-2.66,15.051,15.051,0,0,1-7.351-12.645,12.812,12.812,0,0,1,1.178-5.728,62.771,62.771,0,0,1-13.648-4.842,93.289,93.289,0,0,1-11.215-7.164l-.064-.044c-1.782-1.252-3.8-2.672-6.172-4.283l-.906-.615,1.058-.281a40.643,40.643,0,0,1,10.428-1.4,38.8,38.8,0,0,1,16.884,3.941,54.519,54.519,0,0,1,14.6,10.57l.064.063a17.721,17.721,0,0,1-1.285-1.82c-1.755-2.842-2.789-6.185-4.1-10.417l-.027-.089c-.447-1.446-1-3.246-1.644-5.167a88.9,88.9,0,0,1-3.577-14.806c-.5-3.483-.854-7.981.33-9.627a1.962,1.962,0,0,1,.24-.275,17.012,17.012,0,0,1-3.823-3.313,39.216,39.216,0,0,1-4.054-5.6,64.031,64.031,0,0,1-3.772-7.213l-.047-.1v-.12c0-.068.016-6.775-.313-13.694-.58-12.2-1.731-15.351-2.366-16.144l.751-.659a82.359,82.359,0,0,1,9.72,12.424,117.321,117.321,0,0,1,7.76,14.271,220.105,220.105,0,0,1,11.281,31.465c4.733,16.4,8.986,33.694,12.641,51.4l.1.471-.467.115a31.623,31.623,0,0,0-10.548,4.789l20.649,28.677.027.162c.015.1.03.19.044.286l-.894.374-8.612-11.457a8.3,8.3,0,0,0-1.677,4.446,9.848,9.848,0,0,0,1.333,5.7,9.316,9.316,0,0,0,7.906,4.851,7.5,7.5,0,0,0,1.887-.24l.554-.144.068.568c.217,1.8.4,3.625.556,5.57a274.469,274.469,0,0,1,.447,28.386c1.223,11.333,2.187,22.711,2.866,33.849.126-7.551.312-15.191.464-21.421l0-.1c.271-11.171.5-20.818.371-25.9v-.018c-.13-4.892-.277-10.436-.26-16.312l0-1.542,9.531,13.238a31.459,31.459,0,0,0,10.791-14.354l.061-.166a30.732,30.732,0,0,0,1.634-14.214,29.722,29.722,0,0,0-.72-3.779l-.162-.625h5.808l.149.218a15.79,15.79,0,0,1,2.757,7.089,11.761,11.761,0,0,1-.526,4.965,11.948,11.948,0,0,1-2.4,4.253,7.76,7.76,0,0,1-5.114,2.762,27.163,27.163,0,0,1,4.825,7.014c1.193-3.148,2.387-6.081,3.553-8.736,1.389-3.161,2.872-6.411,4.406-9.659l.5-1.068,7.634,20.3-.327.221c-.815.551-1.645,1.093-2.478,1.618a9.029,9.029,0,0,1,4.636,3.106l.053.064,3.21,8.535.006.071a16.23,16.23,0,0,1-.636,6.063,25.129,25.129,0,0,1-5.681,9.419,71.079,71.079,0,0,1-8.12,7.3q-2.388,1.925-4.777,3.846l-1.694,1.364q-1.822,1.468-3.644,2.935l-2.247,1.809c.446-.135.914-.313,1.375-.489l.01,0a9.134,9.134,0,0,1,2.993-.788,2.156,2.156,0,0,1,1.874.926,4.738,4.738,0,0,1,.674,2.467,10.489,10.489,0,0,1-1.8,5.862,39.468,39.468,0,0,1-4.5,5.887l-.149.168h-11.663l.115-.595c.641-3.314,1.335-6.678,2.074-10.052a34.871,34.871,0,0,1-5.689,7.683c-.236.862-.457,1.71-.658,2.525v.439h-23.686l-.085-.394a29.575,29.575,0,0,1-.652-6.014c-.375-.573-.736-1.114-1.075-1.61-.44-.644-.935-1.358-1.558-2.246l-.034-.048c-.838-1.2-1.7-2.427-2.522-3.683.715,4.453,1.383,8.959,1.989,13.431v.01Zm-12.6-1.147,11.447,0c-.7-5.086-1.469-10.214-2.3-15.251l.921-.341c1.188,1.963,2.516,3.865,3.8,5.7l.03.042c.626.894,1.125,1.612,1.568,2.26.368.537.761,1.127,1.168,1.752l.081.124v.148a28.775,28.775,0,0,0,.548,5.559h15.683c-.683-11.537-1.672-23.344-2.942-35.1l0-.033v-.033a273.821,273.821,0,0,0-.443-28.314c-.14-1.734-.3-3.37-.488-4.982a8.546,8.546,0,0,1-1.582.147,10.316,10.316,0,0,1-8.772-5.351,10.845,10.845,0,0,1-1.464-6.283,9.187,9.187,0,0,1,2.33-5.507l.04-.043-12.307-17.091.406-.292a32.661,32.661,0,0,1,10.834-5.119c-3.628-17.519-7.841-34.629-12.526-50.859a219.157,219.157,0,0,0-11.228-31.323,116.316,116.316,0,0,0-7.693-14.148,83.717,83.717,0,0,0-7.794-10.319,81.387,81.387,0,0,1,1.528,14.109c.309,6.5.316,12.807.315,13.649a63.282,63.282,0,0,0,3.672,7.007,38.219,38.219,0,0,0,3.947,5.459,13.824,13.824,0,0,0,4.634,3.657l-.331.942a.8.8,0,0,0-.209-.034.53.53,0,0,0-.448.273c-.359.5-1.094,2.367-.151,8.9a87.85,87.85,0,0,0,3.536,14.632c.646,1.932,1.2,3.738,1.651,5.189l.027.09c1.287,4.163,2.3,7.452,3.993,10.186a18.633,18.633,0,0,0,8.027,6.928l-.352.93a9.278,9.278,0,0,0-2.311-.342,4.649,4.649,0,0,0-1.052.113l-.3.069-.2-.231c-1.354-1.583-2.751-3.089-4.151-4.475a53.526,53.526,0,0,0-14.328-10.38,37.808,37.808,0,0,0-16.452-3.842,39.276,39.276,0,0,0-9.1,1.1c1.986,1.359,3.716,2.575,5.266,3.665l.061.042a92.631,92.631,0,0,0,11.1,7.093,63.1,63.1,0,0,0,14.047,4.913l.636.156-.318.573a11.569,11.569,0,0,0-1.349,5.8,14.05,14.05,0,0,0,6.87,11.807,19.179,19.179,0,0,0,8.008,2.559l.336.036.3,1.05c.015.054.03.107.046.161.065.228.127.454.187.676l.046.168-.069.16a36.033,36.033,0,0,0-2.576,9.209,22.275,22.275,0,0,0,.855,10.9,11.18,11.18,0,0,0,6.481,6.657l.88.351-.787.529c-3.033,2.039-8.234,6.413-8.987,12.8a10.778,10.778,0,0,0,.484,4.542,10.966,10.966,0,0,0,2.191,3.894,7.134,7.134,0,0,0,3.608,2.294l.223.054.1.2c.24.468.5.955.785,1.448l.179.314-.242.269a25.628,25.628,0,0,0-4.576,7.094l-.617,1.442-.338-1.562-.266-1.181c-3.374-14.856-6.97-26.681-10.689-35.143l-11.1-24.345a96.458,96.458,0,0,0-10.921-19.43,98.259,98.259,0,0,0-10.671-11.708l-.065-.063c-2.952-2.9-6.006-5.892-9.355-9.8a120.3,120.3,0,0,1-10.206-13.952c-.3,4.418.906,8.916,3.669,13.7a70.02,70.02,0,0,0,10.25,12.866l.921.96-1.325-.116c-.136-.012-.28-.018-.427-.018a5.83,5.83,0,0,0-4.167,1.944,10.38,10.38,0,0,0-2.795,7.289,15.592,15.592,0,0,0,1.812,6.682,31.51,31.51,0,0,0,3.964,5.863,64.032,64.032,0,0,0,8.839,8.794,61.024,61.024,0,0,0,10.227,6.781l1.071.562-1.155.358a13.637,13.637,0,0,1-3.325.363c-2.6.092-5.824.206-7.737,2.48a7.853,7.853,0,0,0-1.6,3.773,22.356,22.356,0,0,0,.056,6.6A99,99,0,0,0,1901.851,2783a95.071,95.071,0,0,0,12.631,9.247l1.282.784-1.5.141a8.084,8.084,0,0,0-5.969,3.914,15.856,15.856,0,0,0-1.761,12.865,24.161,24.161,0,0,0,5.466,9.045,70.119,70.119,0,0,0,8.008,7.2c1.4,1.125,2.556,2.06,3.652,2.941l.168.135.651.526,10.083,8.115-1.059.2a2.657,2.657,0,0,1-.5.043,9.164,9.164,0,0,1-3-.791,8.561,8.561,0,0,0-2.635-.721c-.7,0-1.427.291-1.547,2.449a9.547,9.547,0,0,0,1.658,5.3A37.862,37.862,0,0,0,1931.722,2849.954Zm34.847,0h4.4c.191-.763.4-1.553.618-2.353l.034-.124.089-.092a32.365,32.365,0,0,0,6.788-10.012,26.909,26.909,0,0,0,1.067-3.063l.968.25c-1.205,5.151-2.316,10.327-3.3,15.394h10a37.832,37.832,0,0,0,4.242-5.567,9.552,9.552,0,0,0,1.659-5.3c-.121-2.158-.851-2.449-1.549-2.449a8.523,8.523,0,0,0-2.633.721l-.01,0a9.135,9.135,0,0,1-3,.787,2.749,2.749,0,0,1-.492-.042l-1.075-.2,4.448-3.58q1.822-1.466,3.644-2.934l1.694-1.365q2.389-1.922,4.777-3.846a70.26,70.26,0,0,0,8.008-7.2,24.157,24.157,0,0,0,5.466-9.045,15.2,15.2,0,0,0,.6-5.615l-3.1-8.246a7.734,7.734,0,0,0-5.227-2.919l-1.5-.141,1.282-.783c1.078-.659,2.16-1.352,3.22-2.062l-6.524-17.348c-1.351,2.883-2.658,5.759-3.891,8.564-1.3,2.957-2.633,6.263-3.963,9.829l-.445,1.192-.486-1.176a25.908,25.908,0,0,0-5.233-7.95,32.493,32.493,0,0,1-11.268,14.384l-.406.292-8.312-11.544c.01,5.291.142,10.287.261,14.741v.018c.134,5.114-.1,14.769-.371,25.948l0,.091C1966.894,2833.813,1966.695,2841.982,1966.569,2849.954Zm22.023-85.524a30.788,30.788,0,0,1,.59,3.281,31.718,31.718,0,0,1-1.455,14.02,6.709,6.709,0,0,0,4.625-2.441,10.942,10.942,0,0,0,2.191-3.9,10.755,10.755,0,0,0,.484-4.54,14.711,14.711,0,0,0-2.442-6.424Zm-52.837-40.533q.927,1,1.836,2.056a5.8,5.8,0,0,1,.86-.077A21.076,21.076,0,0,1,1935.754,2723.9Zm45.322,108.376-.977-.211a28.527,28.527,0,0,0,.492-4.358c.226-6.256-1.5-11.913-2.885-16.458l-.042-.139.479-.144.22-.448a9.519,9.519,0,0,0,4.234.985,10.3,10.3,0,0,0,3.365-.576l.917-.316-.275.931C1984.632,2818.217,1982.772,2825.193,1981.076,2832.272Zm-2.142-20.427a51.51,51.51,0,0,1,2.671,14.123c1.2-4.7,2.463-9.329,3.78-13.829a11.148,11.148,0,0,1-2.788.358A10.5,10.5,0,0,1,1978.933,2811.845Zm35.832-25.566-.239-.7-9.007-23.981.1-.2c4.224-8.389,8.865-17,14.187-26.315,6.017-10.531,12.38-21.011,16.944-28.449-3.108,1.694-6.3,3.273-9.505,4.7a131.8,131.8,0,0,1-21.66,7.494c1.923,3.486,3.416,6.457,3.921,9.606a12.406,12.406,0,0,1-.25,5.3,15.526,15.526,0,0,1-2.933,5.568c-1.231,1.565-2.345,3.12-3.328,4.493l-.015.021a55.291,55.291,0,0,1-6.483,7.955,28.967,28.967,0,0,1-7.683,5.305l-.1.049H1984.7l-.144-.252a29.884,29.884,0,0,0-1.7-2.653,29.391,29.391,0,0,0-11.263-9.4l-.4-.188.134-.417c.73-2.264,1.561-4.5,2.471-6.632a66.2,66.2,0,0,1,10.3-16.706,68.459,68.459,0,0,1,14.3-12.793,66.814,66.814,0,0,1,16.977-8.194,60.712,60.712,0,0,1,18.325-2.888,56.277,56.277,0,0,1,8.579.658c1.449-2.338,2.856-4.606,4.049-6.528l.726-1.17.193,1.364a21,21,0,0,1-.259,7.283c.312.078.616.156.908.233l1.062.281-.91.616c-.535.363-1.062.714-1.644,1.1a31.371,31.371,0,0,1-2.8,6.252,67.732,67.732,0,0,1-9.606,12.231,7.008,7.008,0,0,1,4.206,2.208,11.42,11.42,0,0,1,3.077,8.013c-.142,5.466-3.5,10.126-6.006,13.157a65.19,65.19,0,0,1-8.977,8.931,62.322,62.322,0,0,1-9.121,6.2c.513.044,1.084.065,1.7.087,2.8.1,6.279.222,8.477,2.836a8.842,8.842,0,0,1,1.818,4.246,23.568,23.568,0,0,1-.07,7.055l-.02.143-.092.11a100.136,100.136,0,0,1-11.23,11.429c-.8.7-1.625,1.384-2.437,2.042Zm-8.156-24.622,8.612,22.927c.63-.518,1.261-1.051,1.882-1.589a99.1,99.1,0,0,0,11.025-11.2,22.367,22.367,0,0,0,.057-6.605,7.865,7.865,0,0,0-1.6-3.773c-1.912-2.274-5.147-2.388-7.746-2.48a13.588,13.588,0,0,1-3.317-.363l-1.154-.358,1.07-.562a61.047,61.047,0,0,0,10.226-6.781,64.2,64.2,0,0,0,8.839-8.794c2.416-2.916,5.643-7.389,5.777-12.545a10.385,10.385,0,0,0-2.793-7.289,5.833,5.833,0,0,0-4.169-1.944c-.135,0-.28.006-.431.018l-1.311.1.91-.949a70.08,70.08,0,0,0,10.25-12.867,30.18,30.18,0,0,0,2.764-6.218l.053-.173.151-.1c.3-.2.581-.383.856-.566l-.284-.069-.483-.116.113-.483a20.294,20.294,0,0,0,.5-5.964c-1.061,1.709-2.245,3.619-3.453,5.569l-.176.283-.329-.053a55.23,55.23,0,0,0-8.75-.7,59.715,59.715,0,0,0-18.023,2.842,65.82,65.82,0,0,0-16.723,8.071,67.468,67.468,0,0,0-14.093,12.606,65.2,65.2,0,0,0-10.14,16.453c-.843,1.979-1.618,4.04-2.305,6.133a30.381,30.381,0,0,1,11.249,9.525c.576.8,1.118,1.636,1.615,2.49h3.2a27.956,27.956,0,0,0,7.32-5.075,54.5,54.5,0,0,0,6.359-7.81l.014-.021c.992-1.386,2.114-2.953,3.361-4.537a14.556,14.556,0,0,0,2.753-5.21,11.426,11.426,0,0,0,.227-4.882c-.507-3.158-2.1-6.2-4.124-9.85l-.318-.573.636-.156a130.706,130.706,0,0,0,22.124-7.593c3.756-1.677,7.487-3.557,11.09-5.587l1.684-.949-1.012,1.646c-4.6,7.481-11.462,18.734-17.923,30.042C2015.4,2744.814,2010.8,2753.346,2006.609,2761.657Z" transform="translate(-1648.605 -2653.955)" fill="rgba(0,0,0,0)" />
        <path d="M1898.825,2738.676h-3.514c2.051-5.947,4.116-11.293,6.136-15.892,1.654-3.763,3.433-7.636,5.287-11.511l-7.909,27.4Zm17.057,0h-8.411l8.379-30.719,1.16-5.317-1.16-2.713-1.464-3.9c3.195-6.1,6.722-12.522,10.482-19.1,8.706-15.236,18.165-30.476,26.511-43.922.713,4.984-.458,10.034-3.578,15.438a70.518,70.518,0,0,1-10.323,12.964c.164-.014.323-.02.471-.02a6.316,6.316,0,0,1,4.527,2.1,10.894,10.894,0,0,1,2.935,7.651c-.138,5.309-3.428,9.877-5.891,12.851a64.706,64.706,0,0,1-8.908,8.863,61.622,61.622,0,0,1-10.31,6.836,13.362,13.362,0,0,0,3.189.341c2.7.1,6.053.214,8.109,2.658a8.345,8.345,0,0,1,1.708,4.01,23.006,23.006,0,0,1-.074,6.9,99.609,99.609,0,0,1-11.174,11.374,95.612,95.612,0,0,1-12.7,9.293,8.57,8.57,0,0,1,6.339,4.136c.058.086.119.18.181.281Z" transform="translate(-1539.581 -2542.175)" fill="#bfe2e2" />
        <path d="M1898.982,2739.8l-.424-.629h-3.949l.229-.663c2.053-5.953,4.122-11.313,6.151-15.93,1.658-3.772,3.439-7.65,5.294-11.526l.931.354-7.914,27.42Zm-2.969-1.629h2.436l6.049-20.958q-1.337,2.91-2.593,5.767C1899.963,2727.4,1897.982,2732.512,1896.013,2738.175Zm19.869,1h-9.066l1.238-4.54-.236-.022.29-.177,7.255-26.6,1.123-5.148-1.106-2.586-1.543-4.107.1-.2c3.2-6.1,6.727-12.533,10.491-19.119,8.708-15.24,18.168-30.481,26.514-43.928l.731-1.177.195,1.361c.729,5.1-.461,10.253-3.64,15.759a67.724,67.724,0,0,1-9.606,12.232,7,7,0,0,1,4.206,2.208,11.411,11.411,0,0,1,3.077,8.013c-.142,5.463-3.5,10.125-6.006,13.157a65.2,65.2,0,0,1-8.977,8.931,62.388,62.388,0,0,1-9.12,6.2c.514.044,1.087.065,1.7.087,2.8.1,6.275.222,8.473,2.836a8.833,8.833,0,0,1,1.818,4.247,23.493,23.493,0,0,1-.071,7.052l-.02.143-.092.11a100.1,100.1,0,0,1-11.231,11.431,96.345,96.345,0,0,1-11.653,8.653,9.414,9.414,0,0,1,5.385,4.122c.058.085.121.183.186.287l.511.77Zm-7.757-1h6.811a7.9,7.9,0,0,0-5.623-3.421l-.249-.023Zm8.188-38.435,1.219,2.849-1.2,5.5-6.979,25.587a95.175,95.175,0,0,0,12.377-9.09,99.093,99.093,0,0,0,11.026-11.206,22.3,22.3,0,0,0,.057-6.6,7.859,7.859,0,0,0-1.6-3.774c-1.913-2.274-5.146-2.388-7.744-2.48a13.648,13.648,0,0,1-3.319-.363l-1.157-.357,1.072-.563a61.118,61.118,0,0,0,10.226-6.78,64.2,64.2,0,0,0,8.839-8.794c2.416-2.917,5.643-7.392,5.777-12.545a10.378,10.378,0,0,0-2.793-7.289,5.83,5.83,0,0,0-4.169-1.944c-.141,0-.285.006-.429.018l-1.317.11.915-.954a70.081,70.081,0,0,0,10.251-12.868c2.763-4.785,3.969-9.278,3.667-13.686-8.153,13.136-17.3,27.906-25.733,42.668-3.717,6.5-7.2,12.858-10.369,18.889Z" transform="translate(-1539.581 -2542.175)" fill="rgba(0,0,0,0)" />
        <path d="M358.585,1H0A1,1,0,0,1-1,0,1,1,0,0,1,0-1H358.585a1,1,0,0,1,1,1A1,1,0,0,1,358.585,1Z" transform="translate(0 196.012)" fill="#5bb3b3" />
        <path d="M31.629,1H0A1,1,0,0,1-1,0,1,1,0,0,1,0-1H31.629a1,1,0,0,1,1,1A1,1,0,0,1,31.629,1Z" transform="translate(367.535 196.012)" fill="#5bb3b3" />
        <path d="M397.617,1H0A1,1,0,0,1-1,0,1,1,0,0,1,0-1H397.617a1,1,0,0,1,1,1A1,1,0,0,1,397.617,1Z" transform="translate(1.547 298.195)" fill="#5bb3b3" />
        <path d="M397.617,1H0A1,1,0,0,1-1,0,1,1,0,0,1,0-1H397.617a1,1,0,0,1,1,1A1,1,0,0,1,397.617,1Z" transform="translate(1.547 278.195)" fill="#5bb3b3" />
        <g transform="translate(-4 -15)">
            <path d="M115.241,1H0A1,1,0,0,1-1,0,1,1,0,0,1,0-1H115.241a1,1,0,0,1,1,1A1,1,0,0,1,115.241,1Z" transform="translate(5.04 96.938)" fill="#5bb3b3" />
            <path d="M115.241,1H0A1,1,0,0,1-1,0,1,1,0,0,1,0-1H115.241a1,1,0,0,1,1,1A1,1,0,0,1,115.241,1Z" transform="translate(5.04 105.824)" fill="#5bb3b3" />
            <path d="M0-1H12.227a1,1,0,0,1,1,1V53.42a1,1,0,0,1-1,1H0a1,1,0,0,1-1-1V0A1,1,0,0,1,0-1ZM11.227,1H1V52.42H11.227Z" transform="translate(56.522 39.563)" fill="#5bb3b3" />
            <path d="M0-1H12.227a1,1,0,0,1,1,1V53.42a1,1,0,0,1-1,1H0a1,1,0,0,1-1-1V0A1,1,0,0,1,0-1ZM11.227,1H1V52.42H11.227Z" transform="translate(92.952 39.563)" fill="#5bb3b3" />
            <path d="M2.718,1H0A1,1,0,0,1-1,0,1,1,0,0,1,0-1H2.718a1,1,0,0,1,1,1A1,1,0,0,1,2.718,1Z" transform="translate(61.277 64.034)" fill="#5bb3b3" />
            <path d="M2.718,1H0A1,1,0,0,1-1,0,1,1,0,0,1,0-1H2.718a1,1,0,0,1,1,1A1,1,0,0,1,2.718,1Z" transform="translate(97.707 64.034)" fill="#5bb3b3" />
            <path d="M2.718,1H0A1,1,0,0,1-1,0,1,1,0,0,1,0-1H2.718a1,1,0,0,1,1,1A1,1,0,0,1,2.718,1Z" transform="translate(61.277 69.26)" fill="#5bb3b3" />
            <path d="M0-1H12.227a1,1,0,0,1,1,1V53.42a1,1,0,0,1-1,1H0a1,1,0,0,1-1-1V0A1,1,0,0,1,0-1ZM11.227,1H1V52.42H11.227Z" transform="translate(38.308 39.563)" fill="#5bb3b3" />
            <path d="M0-1H12.227a1,1,0,0,1,1,1V53.42a1,1,0,0,1-1,1H0a1,1,0,0,1-1-1V0A1,1,0,0,1,0-1ZM11.227,1H1V52.42H11.227Z" transform="translate(74.737 39.563)" fill="#5bb3b3" />
            <path d="M2.718,1H0A1,1,0,0,1-1,0,1,1,0,0,1,0-1H2.718a1,1,0,0,1,1,1A1,1,0,0,1,2.718,1Z" transform="translate(43.063 64.034)" fill="#5bb3b3" />
            <path d="M2.718,1H0A1,1,0,0,1-1,0,1,1,0,0,1,0-1H2.718a1,1,0,0,1,1,1A1,1,0,0,1,2.718,1Z" transform="translate(79.492 64.034)" fill="#5bb3b3" />
            <path d="M2.718,1H0A1,1,0,0,1-1,0,1,1,0,0,1,0-1H2.718a1,1,0,0,1,1,1A1,1,0,0,1,2.718,1Z" transform="translate(43.063 69.26)" fill="#5bb3b3" />
            <path d="M0-1H12.227a1,1,0,0,1,1,1V53.42a1,1,0,0,1-1,1H0a1,1,0,0,1-1-1V0A1,1,0,0,1,0-1ZM11.227,1H1V52.42H11.227Z" transform="matrix(-0.949, -0.316, 0.316, -0.949, 19.74, 93.545)" fill="#5bb3b3" />
            <path d="M2.577,1.86a1,1,0,0,1-.317-.052L-.316.949A1,1,0,0,1-.949-.316,1,1,0,0,1,.316-.949l2.577.86A1,1,0,0,1,2.577,1.86Z" transform="translate(21.804 63.719)" fill="#5bb3b3" />
            <path d="M2.577,1.86a1,1,0,0,1-.317-.052L-.316.949A1,1,0,0,1-.949-.316,1,1,0,0,1,.316-.949l2.577.86A1,1,0,0,1,2.577,1.86Z" transform="translate(20.152 68.676)" fill="#5bb3b3" />
        </g>
        <g transform="translate(289.75 86.059)">
            <g clip-path="url(#a)">
                <path d="M68.061,138.791H1.251a1,1,0,0,1-1-1,13.865,13.865,0,0,1,13.827-13.827H55.236a13.864,13.864,0,0,1,13.825,13.827A1,1,0,0,1,68.061,138.791Zm-65.768-2H67.019a11.871,11.871,0,0,0-11.784-10.827H14.078A11.872,11.872,0,0,0,2.293,136.791Z" transform="translate(30.089 13.011)" fill="#5bb3b3" />
                <path d="M16.208,63.141a6.215,6.215,0,1,1-6.215,6.215A6.222,6.222,0,0,1,16.208,63.141Zm0,10.43a4.215,4.215,0,1,0-4.215-4.215A4.22,4.22,0,0,0,16.208,73.571Z" transform="translate(65.971 6.678)" fill="#5bb3b3" />
                <path d="M63.075.25h0a32.213,32.213,0,0,1,14.213,3.3,31,31,0,0,1,16.53,21.174,31.538,31.538,0,0,1,.221,12.25,32.494,32.494,0,0,1-4.43,11.548,33.1,33.1,0,0,1-8.819,9.414,1,1,0,0,1-1.4-.227L52.532,20.4,43.542,7.916a1,1,0,0,1,.227-1.4A33.306,33.306,0,0,1,53.126,1.8,32.72,32.72,0,0,1,63.075.25ZM80.427,55.717a31.047,31.047,0,0,0,7.487-8.251,30.5,30.5,0,0,0,4.158-10.84,29.548,29.548,0,0,0-.206-11.477A28.955,28.955,0,0,0,76.4,5.342,30.2,30.2,0,0,0,63.077,2.25h0A30.72,30.72,0,0,0,53.734,3.7a31.24,31.24,0,0,0-7.976,3.867l8.4,11.661Z" transform="translate(-42.973 0.13)" fill="#5bb3b3" />
                <path d="M0,49.065a1,1,0,0,1-.295-.045,1,1,0,0,1-.661-1.25L13.844-.294a1,1,0,0,1,1.25-.661,1,1,0,0,1,.661,1.25L.956,48.359A1,1,0,0,1,0,49.065Z" transform="translate(70.385 85.823)" fill="#5bb3b3" />
                <path d="M0,49.065a1,1,0,0,1-.295-.045,1,1,0,0,1-.661-1.25L13.844-.294a1,1,0,0,1,1.25-.661,1,1,0,0,1,.661,1.25L.956,48.359A1,1,0,0,1,0,49.065Z" transform="translate(62.351 85.823)" fill="#5bb3b3" />
                <path d="M42.026,65.822a1,1,0,0,1-.937-.65L25.205,22.66H21.165a1,1,0,0,1,0-2H25.9a1,1,0,0,1,.937.65L42.963,64.472a1,1,0,0,1-.937,1.35Z" transform="translate(34.137 2.255)" fill="#5bb3b3" />
                <path d="M45.233,65.553a1,1,0,0,1-.933-.64L25.319,15.767H13.378a1,1,0,0,1,0-2H26a1,1,0,0,1,.933.64L46.165,64.192a1,1,0,0,1-.933,1.361Z" transform="translate(39.529 1.538)" fill="#5bb3b3" />
                <path d="M77.467,39.784a9.752,9.752,0,0,1-3.065-.505,11.208,11.208,0,0,1-6.145-5.1,11.333,11.333,0,0,1-1.529-6.571A9.686,9.686,0,0,1,69.19,21.8a1,1,0,0,1,1.47,1.356c-2.338,2.534-2.614,6.655-.669,10.023a9.212,9.212,0,0,0,5.04,4.2,7.114,7.114,0,0,0,5.865-.509,1,1,0,0,1,1,1.732A8.808,8.808,0,0,1,77.467,39.784Z" transform="translate(-56.608 2.34)" fill="#5bb3b3" />
            </g>
        </g>
        <g transform="translate(199.134 258.506) rotate(-14)">
            <path d="M0-1.25H47.725A1.25,1.25,0,0,1,48.975,0V5.186a1.25,1.25,0,0,1-1.25,1.25H0a1.25,1.25,0,0,1-1.25-1.25V0A1.25,1.25,0,0,1,0-1.25Zm46.475,2.5H1.25V3.936H46.475Z" transform="translate(9.918 1.026)" fill="#5bb3b3" />
            <path d="M60.95,7.686H56.7a1.25,1.25,0,0,1,0-2.5h3V2.5h-3a1.25,1.25,0,1,1,0-2.5H60.95A1.25,1.25,0,0,1,62.2,1.25V6.436A1.25,1.25,0,0,1,60.95,7.686Z" transform="translate(3.203 -0.224)" fill="#5bb3b3" />
            <path d="M50.5,12.91c-1.97,0-4.286-.056-6.925-.213a1.25,1.25,0,1,1,.148-2.5,94.237,94.237,0,0,0,13.242-.039V7.856a1.25,1.25,0,0,1,2.5,0v3.436a1.25,1.25,0,0,1-1.085,1.239A65.292,65.292,0,0,1,50.5,12.91Z" transform="translate(2.465 -1.409)" fill="#5bb3b3" />
            <path d="M7.987,7.686a1.247,1.247,0,0,1-.437-.079L.813,5.092a1.25,1.25,0,0,1,0-2.341L7.913.08a1.25,1.25,0,1,1,.88,2.34l-3.98,1.5L8.424,5.265a1.25,1.25,0,0,1-.437,2.421Z" transform="translate(1.819 -0.224)" fill="#5bb3b3" />
        </g>
        <g transform="translate(10.269 105.104)">
            <rect width="56.332" height="10.826" transform="translate(7.286 71.693)" fill="#bfe2e2" />
            <path d="M10.069,93.165l7.884,47.882H53.046l9.635-47.882Z" transform="translate(-0.968 -8.956)" fill="#bfe2e2" />
            <g clip-path="url(#b)">
                <path d="M40.164,81.148a2.137,2.137,0,1,1-4.274,0V26.107a2.137,2.137,0,0,1,4.274,0Z" transform="translate(-3.45 -2.304)" fill="#bfe2e2" />
            </g>
            <g transform="translate(32.44 21.666)">
                <g clip-path="url(#c)">
                    <rect width="21.508" height="76.55" transform="translate(-8.617 -8.617)" fill="#bfe2e2" />
                </g>
            </g>
            <g clip-path="url(#b)">
                <path d="M34.3,51.6c0-.028.012-.053.013-.081a22.381,22.381,0,0,0-33.2-20.191,2.135,2.135,0,0,0-1.1,1.816,22.382,22.382,0,0,0,33.2,20.192c.024-.014.043-.035.067-.05L16.048,44.16a2.137,2.137,0,0,1,2.221-3.653" transform="translate(0 -2.743)" fill="#bfe2e2" />
                <path d="M40.155,62.087c.022.017.036.041.059.058A22.382,22.382,0,0,0,75.925,46.829a2.137,2.137,0,0,0-.838-1.954A22.382,22.382,0,0,0,39.376,60.191c0,.028,0,.055,0,.083l17.431-8.728a2.137,2.137,0,1,1,1.685,3.928" transform="translate(-3.785 -3.88)" fill="#bfe2e2" />
                <path d="M37.49,25.211c.024.014.042.034.067.047a22.382,22.382,0,0,0,32.758-20.9,2.14,2.14,0,0,0-1.143-1.792,22.382,22.382,0,0,0-32.758,20.9c0,.029.013.054.015.082L52.215,12.11a2.137,2.137,0,0,1,2.3,3.6" transform="translate(-3.498 0)" fill="#bfe2e2" />
            </g>
        </g>
        <g transform="translate(0 -7.992)">
            <path d="M233.723,149.286V57.276c0-5.432-3.846-9.836-8.594-9.836H79.359c-4.746,0-8.594,4.4-8.594,9.836v92.011" transform="translate(47.24 75.255)" fill="#313e58" />
            <path d="M234.223,149.286h-1V57.276c0-5.148-3.631-9.336-8.094-9.336H79.359c-4.463,0-8.094,4.188-8.094,9.336v92.011h-1V57.276a11.029,11.029,0,0,1,2.641-7.284,8.524,8.524,0,0,1,6.453-3.052h145.77a8.524,8.524,0,0,1,6.454,3.052,11.03,11.03,0,0,1,2.64,7.284Z" transform="translate(47.24 75.255)" fill="#313e58" />
            <path d="M221.42,135.689v-81.1a1.619,1.619,0,0,0-1.59-1.648H78.406a1.62,1.62,0,0,0-1.59,1.648v81.1" transform="translate(50.367 78.292)" fill="#ffd964" />
            <path d="M250.262,109.6H63.441a1.609,1.609,0,0,0-1.59,1.627,12.782,12.782,0,0,0,12.632,12.928H239.22a12.782,12.782,0,0,0,12.632-12.928,1.609,1.609,0,0,0-1.59-1.627" transform="translate(42.633 116.51)" fill="#7a8293" />
            <path d="M137.8,112.78a4.713,4.713,0,0,0,4.32,3.557h29.463a4.713,4.713,0,0,0,4.32-3.557" transform="translate(43.149 115.552)" fill="#313e58" />
            <g transform="translate(137.921 142.329)">
                <path d="M96.916,72.214H95.071a1.613,1.613,0,0,1-1.592-1.63V68.7a1.613,1.613,0,0,1,1.592-1.628h1.845a1.611,1.611,0,0,1,1.59,1.628v1.889a1.611,1.611,0,0,1-1.59,1.63" transform="translate(-93.479 -67.068)" fill="#313e58" />
                <path d="M96.916,78.017H95.071a1.614,1.614,0,0,1-1.592-1.63V74.5a1.613,1.613,0,0,1,1.592-1.628h1.845a1.611,1.611,0,0,1,1.59,1.628v1.889a1.613,1.613,0,0,1-1.59,1.63" transform="translate(-93.479 -61.036)" fill="#313e58" />
                <path d="M96.916,83.82H95.071a1.613,1.613,0,0,1-1.592-1.628V80.3a1.613,1.613,0,0,1,1.592-1.63h1.845a1.611,1.611,0,0,1,1.59,1.63v1.889a1.611,1.611,0,0,1-1.59,1.628" transform="translate(-93.479 -55.004)" fill="#313e58" />
                <path d="M148.585,71.262H102.038a1.943,1.943,0,0,1,0-3.885h46.547a1.943,1.943,0,0,1,0,3.885" transform="translate(-86.868 -66.747)" fill="#313e58" />
                <path d="M148.585,77.066H102.038a1.943,1.943,0,0,1,0-3.885h46.547a1.943,1.943,0,0,1,0,3.885" transform="translate(-86.868 -60.713)" fill="#313e58" />
                <path d="M148.585,82.869H102.038a1.943,1.943,0,0,1,0-3.885h46.547a1.943,1.943,0,0,1,0,3.885" transform="translate(-86.868 -54.681)" fill="#313e58" />
                <path d="M154.929,115.329H95.687a1.923,1.923,0,0,1-1.9-1.944V86.719a1.9,1.9,0,1,1,3.8,0v24.725h57.343a1.943,1.943,0,0,1,0,3.885" transform="translate(-93.172 -48.662)" fill="#e88a2d" />
                <path d="M99.5,100.427a1.923,1.923,0,0,1-1.9-1.944V93.577a1.9,1.9,0,1,1,3.8,0v4.907a1.923,1.923,0,0,1-1.9,1.944" transform="translate(-89.389 -41.533)" fill="#cc7a29" />
                <path d="M103.818,101.615a1.923,1.923,0,0,1-1.9-1.944V92.434a1.9,1.9,0,1,1,3.8,0v7.238a1.923,1.923,0,0,1-1.9,1.944" transform="translate(-85.101 -42.721)" fill="#cc7a29" />
                <path d="M108.138,102.8a1.923,1.923,0,0,1-1.9-1.944V91.291a1.9,1.9,0,1,1,3.8,0v9.569a1.923,1.923,0,0,1-1.9,1.944" transform="translate(-80.812 -43.909)" fill="#cc7a29" />
                <path d="M112.458,103.992a1.923,1.923,0,0,1-1.9-1.944v-11.9a1.9,1.9,0,1,1,3.8,0v11.9a1.923,1.923,0,0,1-1.9,1.944" transform="translate(-76.524 -45.097)" fill="#cc7a29" />
                <path d="M116.778,105.18a1.923,1.923,0,0,1-1.9-1.944V89a1.9,1.9,0,1,1,3.8,0v14.234a1.923,1.923,0,0,1-1.9,1.944" transform="translate(-72.236 -46.285)" fill="#cc7a29" />
                <path d="M121.1,106.368a1.923,1.923,0,0,1-1.9-1.944V87.86a1.9,1.9,0,1,1,3.8,0v16.565a1.923,1.923,0,0,1-1.9,1.944" transform="translate(-67.948 -47.474)" fill="#cc7a29" />
                <path d="M125.417,107.556a1.923,1.923,0,0,1-1.9-1.944V86.719a1.9,1.9,0,1,1,3.8,0v18.894a1.923,1.923,0,0,1-1.9,1.944" transform="translate(-63.66 -48.662)" fill="#cc7a29" />
                <path d="M176.249,133.414H133.671a1.919,1.919,0,0,1-1.9-1.942V69.319a1.919,1.919,0,0,1,1.9-1.942h42.578a1.921,1.921,0,0,1,1.9,1.942v62.153a1.921,1.921,0,0,1-1.9,1.942" transform="translate(-55.464 -66.747)" fill="#9183d8" />
                <path d="M161.08,76.78H138.752a1.943,1.943,0,0,1,0-3.885H161.08a1.943,1.943,0,0,1,0,3.885" transform="translate(-50.421 -61.011)" fill="#fff" />
                <path d="M157.284,81.639h-18.53a1.943,1.943,0,0,1,0-3.885h18.53a1.943,1.943,0,0,1,0,3.885" transform="translate(-50.421 -55.96)" fill="#fff" />
                <path d="M161.08,86.5H138.752a1.943,1.943,0,0,1,0-3.885H161.08a1.943,1.943,0,0,1,0,3.885" transform="translate(-50.421 -50.908)" fill="#fff" />
                <path d="M157.284,91.358h-18.53a1.943,1.943,0,0,1,0-3.885h18.53a1.943,1.943,0,0,1,0,3.885" transform="translate(-50.421 -45.857)" fill="#fff" />
                <path d="M161.08,96.218H138.752a1.943,1.943,0,0,1,0-3.885H161.08a1.943,1.943,0,0,1,0,3.885" transform="translate(-50.421 -40.805)" fill="#fff" />
            </g>
        </g>
        <rect width="93.955" height="88.118" transform="translate(-19.75 -21.668)" fill="none" />
    </g>
</svg>