<svg xmlns="http://www.w3.org/2000/svg" xmlns:xlink="http://www.w3.org/1999/xlink" width="400" height="320" viewBox="0 0 400 320">
    <defs>
        <clipPath>
            <path d="M35.89,27.045v79.167c0,1.7.891,3.075,1.99,3.075s1.989-1.377,1.989-3.075V27.045c0-1.7-.891-3.075-1.989-3.075s-1.99,1.377-1.99,3.075" transform="translate(-35.89 -23.97)" fill="none" />
        </clipPath>
        <clipPath >
            <rect width="400" height="320" />
        </clipPath>
    </defs>
    <g clip-path="url(#c)">
        <rect width="400" height="320" fill="transparent" />
        <path d="M298,1H0A1,1,0,0,1-1,0,1,1,0,0,1,0-1H298a1,1,0,0,1,1,1A1,1,0,0,1,298,1Z" transform="translate(39.5 217.298)" fill="#5bb3b3" />
        <path d="M23.5,1H0A1,1,0,0,1-1,0,1,1,0,0,1,0-1H23.5a1,1,0,0,1,1,1A1,1,0,0,1,23.5,1Z" transform="translate(0 217.298)" fill="#5bb3b3" />
        <path d="M5,1H0A1,1,0,0,1-1,0,1,1,0,0,1,0-1H5A1,1,0,0,1,6,0,1,1,0,0,1,5,1Z" transform="translate(395.5 217.298)" fill="#5bb3b3" />
        <path d="M5.5,1H0A1,1,0,0,1-1,0,1,1,0,0,1,0-1H5.5a1,1,0,0,1,1,1A1,1,0,0,1,5.5,1Z" transform="translate(363.376 217.298)" fill="#5bb3b3" />
        <path d="M3-1H22.363a4,4,0,0,1,4,4V115.965a4,4,0,0,1-4,4H3a4,4,0,0,1-4-4V3A4,4,0,0,1,3-1ZM22.363,117.965a2,2,0,0,0,2-2V3a2,2,0,0,0-2-2H3A2,2,0,0,0,1,3V115.965a2,2,0,0,0,2,2Z" transform="translate(369.388 146.576)" fill="#5bb3b3" />
        <path d="M83.5,58.086a6.451,6.451,0,1,1-6.672,6.447A6.569,6.569,0,0,1,83.5,58.086Zm0,10.894a4.452,4.452,0,1,0-4.672-4.447A4.568,4.568,0,0,0,83.5,68.98Z" transform="translate(298.424 110.29)" fill="#5bb3b3" />
        <path d="M3-1H22.363a4,4,0,0,1,4,4V115.965a4,4,0,0,1-4,4H3a4,4,0,0,1-4-4V3A4,4,0,0,1,3-1ZM22.363,117.965a2,2,0,0,0,2-2V3a2,2,0,0,0-2-2H3A2,2,0,0,0,1,3V115.965a2,2,0,0,0,2,2Z" transform="translate(338.012 146.576)" fill="#5bb3b3" />
        <path d="M60.013,58.086a6.451,6.451,0,1,1-6.672,6.447A6.569,6.569,0,0,1,60.013,58.086Zm0,10.894a4.452,4.452,0,1,0-4.672-4.447A4.568,4.568,0,0,0,60.013,68.98Z" transform="translate(290.82 110.29)" fill="#5bb3b3" />
        <path d="M15.446,1H0A1,1,0,0,1-1,0,1,1,0,0,1,0-1H15.446a1,1,0,0,1,1,1A1,1,0,0,1,15.446,1Z" transform="translate(374.068 239.68)" fill="#5bb3b3" />
        <path d="M15.446,1H0A1,1,0,0,1-1,0,1,1,0,0,1,0-1H15.446a1,1,0,0,1,1,1A1,1,0,0,1,15.446,1Z" transform="translate(374.068 232.958)" fill="#5bb3b3" />
        <path d="M15.446,1H0A1,1,0,0,1-1,0,1,1,0,0,1,0-1H15.446a1,1,0,0,1,1,1A1,1,0,0,1,15.446,1Z" transform="translate(342.896 239.68)" fill="#5bb3b3" />
        <path d="M15.446,1H0A1,1,0,0,1-1,0,1,1,0,0,1,0-1H15.446a1,1,0,0,1,1,1A1,1,0,0,1,15.446,1Z" transform="translate(342.896 232.958)" fill="#5bb3b3" />
        <path d="M93.5,1H0A1,1,0,0,1-1,0,1,1,0,0,1,0-1H93.5a1,1,0,0,1,1,1A1,1,0,0,1,93.5,1Z" transform="translate(306.5 103.938)" fill="#5bb3b3" />
        <path d="M93.5,1H0A1,1,0,0,1-1,0,1,1,0,0,1,0-1H93.5a1,1,0,0,1,1,1A1,1,0,0,1,93.5,1Z" transform="translate(-0.211 103.938)" fill="#5bb3b3" />
        <path d="M0-1H16.668a1,1,0,0,1,1,1V72.823a1,1,0,0,1-1,1H0a1,1,0,0,1-1-1V0A1,1,0,0,1,0-1ZM15.668,1H1V71.823H15.668Z" transform="translate(308.15 23.724)" fill="#5bb3b3" />
        <path d="M0-1H16.668a1,1,0,0,1,1,1V72.823a1,1,0,0,1-1,1H0a1,1,0,0,1-1-1V0A1,1,0,0,1,0-1ZM15.668,1H1V71.823H15.668Z" transform="translate(74.971 23.724)" fill="#5bb3b3" />
        <path d="M0-1H16.668a1,1,0,0,1,1,1V72.823a1,1,0,0,1-1,1H0a1,1,0,0,1-1-1V0A1,1,0,0,1,0-1ZM15.668,1H1V71.823H15.668Z" transform="translate(353.811 23.724)" fill="#5bb3b3" />
        <path d="M0-1H16.668a1,1,0,0,1,1,1V72.823a1,1,0,0,1-1,1H0a1,1,0,0,1-1-1V0A1,1,0,0,1,0-1ZM15.668,1H1V71.823H15.668Z" transform="translate(29.31 23.724)" fill="#5bb3b3" />
        <path d="M3.705,1H0A1,1,0,0,1-1,0,1,1,0,0,1,0-1H3.705a1,1,0,0,1,1,1A1,1,0,0,1,3.705,1Z" transform="translate(360.293 57.083)" fill="#5bb3b3" />
        <path d="M3.705,1H0A1,1,0,0,1-1,0,1,1,0,0,1,0-1H3.705a1,1,0,0,1,1,1A1,1,0,0,1,3.705,1Z" transform="translate(35.792 57.083)" fill="#5bb3b3" />
        <g transform="translate(0 15.917)">
            <path d="M3.705,1H0A1,1,0,0,1-1,0,1,1,0,0,1,0-1H3.705a1,1,0,0,1,1,1A1,1,0,0,1,3.705,1Z" transform="translate(314.631 41.083)" fill="#5bb3b3" />
            <path d="M3.705,1H0A1,1,0,0,1-1,0,1,1,0,0,1,0-1H3.705a1,1,0,0,1,1,1A1,1,0,0,1,3.705,1Z" transform="translate(314.631 48.206)" fill="#5bb3b3" />
        </g>
        <g transform="translate(81.453 57)">
            <path d="M3.705,1H0A1,1,0,0,1-1,0,1,1,0,0,1,0-1H3.705a1,1,0,0,1,1,1A1,1,0,0,1,3.705,1Z" transform="translate(0)" fill="#5bb3b3" />
            <path d="M3.705,1H0A1,1,0,0,1-1,0,1,1,0,0,1,0-1H3.705a1,1,0,0,1,1,1A1,1,0,0,1,3.705,1Z" transform="translate(0 7.124)" fill="#5bb3b3" />
        </g>
        <path d="M3.705,1H0A1,1,0,0,1-1,0,1,1,0,0,1,0-1H3.705a1,1,0,0,1,1,1A1,1,0,0,1,3.705,1Z" transform="translate(360.293 64.206)" fill="#5bb3b3" />
        <path d="M3.705,1H0A1,1,0,0,1-1,0,1,1,0,0,1,0-1H3.705a1,1,0,0,1,1,1A1,1,0,0,1,3.705,1Z" transform="translate(35.792 64.206)" fill="#5bb3b3" />
        <path d="M0-1H16.668a1,1,0,0,1,1,1V72.823a1,1,0,0,1-1,1H0a1,1,0,0,1-1-1V0A1,1,0,0,1,0-1ZM15.668,1H1V71.823H15.668Z" transform="translate(330.98 23.724)" fill="#5bb3b3" />
        <path d="M0-1H16.668a1,1,0,0,1,1,1V72.823a1,1,0,0,1-1,1H0a1,1,0,0,1-1-1V0A1,1,0,0,1,0-1ZM15.668,1H1V71.823H15.668Z" transform="translate(52.141 23.724)" fill="#5bb3b3" />
        <path d="M0-1H16.668a1,1,0,0,1,1,1V72.823a1,1,0,0,1-1,1H0a1,1,0,0,1-1-1V0A1,1,0,0,1,0-1ZM15.668,1H1V71.823H15.668Z" transform="translate(376.642 23.724)" fill="#5bb3b3" />
        <path d="M0-1H16.668a1,1,0,0,1,1,1V72.823a1,1,0,0,1-1,1H0a1,1,0,0,1-1-1V0A1,1,0,0,1,0-1ZM15.668,1H1V71.823H15.668Z" transform="translate(6.479 23.724)" fill="#5bb3b3" />
        <path d="M3.705,1H0A1,1,0,0,1-1,0,1,1,0,0,1,0-1H3.705a1,1,0,0,1,1,1A1,1,0,0,1,3.705,1Z" transform="translate(337.462 57.083)" fill="#5bb3b3" />
        <path d="M3.705,1H0A1,1,0,0,1-1,0,1,1,0,0,1,0-1H3.705a1,1,0,0,1,1,1A1,1,0,0,1,3.705,1Z" transform="translate(58.622 57.083)" fill="#5bb3b3" />
        <path d="M3.705,1H0A1,1,0,0,1-1,0,1,1,0,0,1,0-1H3.705a1,1,0,0,1,1,1A1,1,0,0,1,3.705,1Z" transform="translate(383.124 57.083)" fill="#5bb3b3" />
        <path d="M3.705,1H0A1,1,0,0,1-1,0,1,1,0,0,1,0-1H3.705a1,1,0,0,1,1,1A1,1,0,0,1,3.705,1Z" transform="translate(12.961 57.083)" fill="#5bb3b3" />
        <path d="M3.705,1H0A1,1,0,0,1-1,0,1,1,0,0,1,0-1H3.705a1,1,0,0,1,1,1A1,1,0,0,1,3.705,1Z" transform="translate(337.462 64.5)" fill="#5bb3b3" />
        <path d="M3.705,1H0A1,1,0,0,1-1,0,1,1,0,0,1,0-1H3.705a1,1,0,0,1,1,1A1,1,0,0,1,3.705,1Z" transform="translate(58.622 64.5)" fill="#5bb3b3" />
        <path d="M3.705,1H0A1,1,0,0,1-1,0,1,1,0,0,1,0-1H3.705a1,1,0,0,1,1,1A1,1,0,0,1,3.705,1Z" transform="translate(383.124 64.206)" fill="#5bb3b3" />
        <path d="M3.705,1H0A1,1,0,0,1-1,0,1,1,0,0,1,0-1H3.705a1,1,0,0,1,1,1A1,1,0,0,1,3.705,1Z" transform="translate(12.961 64.206)" fill="#5bb3b3" />
        <g transform="translate(-86.859 -37.922)">
            <path d="M28.373-1A29.381,29.381,0,0,1,39.807,55.438,29.381,29.381,0,0,1,16.94,1.309,29.191,29.191,0,0,1,28.373-1Zm0,56.747a27.381,27.381,0,0,0,10.655-52.6A27.381,27.381,0,0,0,17.719,53.6,27.2,27.2,0,0,0,28.373,55.747Z" transform="translate(204.528 24.013)" fill="#5bb3b3" />
            <path d="M36.109-1A37.118,37.118,0,0,1,50.553,70.3,37.118,37.118,0,0,1,21.664,1.917,36.877,36.877,0,0,1,36.109-1Zm0,72.217A35.118,35.118,0,0,0,49.774,3.759a35.118,35.118,0,0,0-27.331,64.7A34.888,34.888,0,0,0,36.109,71.217Z" transform="translate(196.792 16.278)" fill="#5bb3b3" />
            <path d="M137.9,43.912a1,1,0,0,1-.7-.282L124.612,31.424a1,1,0,0,1-.3-.718V8.66a1,1,0,0,1,2,0V30.283l12.285,11.912a1,1,0,0,1-.7,1.718Z" transform="translate(107.785 21.872)" fill="#5bb3b3" />
        </g>
        <g transform="translate(-289.853 34.007)">
            <rect width="52.437" height="10.077" transform="translate(308.782 210.423)" fill="#c0e2e2" />
            <path d="M10.069,93.165l7.338,44.572H50.075l8.969-44.572Z" transform="translate(300.403 128.909)" fill="#c0e2e2" />
            <g transform="translate(332.197 133.753)" clip-path="url(#a)">
                <rect width="20.021" height="110.105" transform="translate(-8.021 -12.394)" fill="#c0e2e2" />
            </g>
            <path d="M31.927,50.008c0-.026.011-.05.012-.076a20.834,20.834,0,0,0-30.9-18.795,1.988,1.988,0,0,0-1.028,1.69,20.835,20.835,0,0,0,30.9,18.8c.023-.013.04-.033.062-.046l-16.034-8.5a1.99,1.99,0,0,1,2.067-3.4" transform="translate(302 139.16)" fill="#c0e2e2" />
            <path d="M29.37,48.289c0-.024.01-.046.011-.07A19.166,19.166,0,0,0,.952,30.929a1.829,1.829,0,0,0-.946,1.555,19.154,19.154,0,0,0,9.2,16.89c5.935,3.611,15.215,4.614,21.19,1.32.021-.012-1.035-.907-1.015-.92L13.742,41.916a1.83,1.83,0,0,1,1.9-3.128" transform="translate(303.279 99.574)" fill="#c0e2e2" />
            <path d="M25.159,16.92c0-.021.009-.039.009-.06A16.418,16.418,0,0,0,.816,2.049a1.566,1.566,0,0,0-.81,1.332A16.418,16.418,0,0,0,24.358,18.193c.018-.01.032-.026.049-.036l-12.635-6.7A1.568,1.568,0,0,1,13.4,8.781" transform="matrix(0.174, 0.985, -0.985, 0.174, 347.723, 107.937)" fill="#c0e2e2" />
            <path d="M40.171,62.522c.022.018.037.041.06.059A22.83,22.83,0,0,0,76.657,46.959a2.18,2.18,0,0,0-.855-1.993A22.83,22.83,0,0,0,39.376,60.588c0,.029,0,.056,0,.085l17.78-8.9a2.18,2.18,0,1,1,1.719,4.007" transform="translate(295.754 134.94)" fill="#c0e2e2" />
            <path d="M37.414,23.468c.023.013.04.032.062.044A20.835,20.835,0,0,0,67.969,4.056,1.992,1.992,0,0,0,66.9,2.388,20.835,20.835,0,0,0,36.412,21.843c0,.027.012.05.014.077L51.12,11.273a1.99,1.99,0,0,1,2.14,3.355" transform="translate(296.228 143.687)" fill="#c0e2e2" />
        </g>
        <g transform="translate(0 -0.055)">
            <path d="M1874.445,1989.042a2.539,2.539,0,0,1-1.7-.559,2.184,2.184,0,0,1-.746-1.7c0-3.76,10.733-14.273,15.664-14.273h30.1c1.608-1.359,3.4-3.328,3.839-5.6.835-4.34,1.688-151.455,1.688-151.455s.787-6.559,7.7-6.453a8.658,8.658,0,0,1,8.383,6.453s-.388,148.08,0,151.455c.234,2.034,2.023,4.12,3.521,5.6h30.676c3.223,0,7.83,3.988,9.661,5.7,1.409,1.317,6,5.831,6,8.57a2.18,2.18,0,0,1-.748,1.7,2.539,2.539,0,0,1-1.7.559Z" transform="translate(-1730 -1721.372)" fill="#313e58" />
            <rect width="180" height="12" rx="6" transform="translate(110.006 126.013) rotate(-7)" fill="#acb1bc" />
            <g transform="translate(186.45 104.931)">
                <path d="M130.266,61.914a14.907,14.907,0,1,1,14.906-14.908,14.924,14.924,0,0,1-14.906,14.908" transform="translate(-115.358 -32.1)" fill="#acb1bc" />
            </g>
            <g transform="translate(193.945 112.425)">
                <path d="M122.771,46.925a7.413,7.413,0,1,1,7.412-7.413,7.421,7.421,0,0,1-7.412,7.413" transform="translate(-115.358 -32.1)" fill="#313e58" />
            </g>
            <path d="M-1689.337-1651.756a1,1,0,0,1-.786-.382l-20.651-26.239-21.385,26.252a1,1,0,0,1-1.407.144,1,1,0,0,1-.144-1.407l22.173-27.221a1,1,0,0,1,.775-.368h.008a1,1,0,0,1,.777.382l21.423,27.221a1,1,0,0,1-.167,1.4A1,1,0,0,1-1689.337-1651.756Z" transform="translate(1845.624 1816.687)" fill="#313e58" />
            <path d="M-1689.337-1651.756a1,1,0,0,1-.786-.382l-20.651-26.239-21.385,26.252a1,1,0,0,1-1.407.144,1,1,0,0,1-.144-1.407l22.173-27.221a1,1,0,0,1,.775-.368h.008a1,1,0,0,1,.777.382l21.423,27.221a1,1,0,0,1-.167,1.4A1,1,0,0,1-1689.337-1651.756Z" transform="translate(1976.647 1799.976)" fill="#313e58" />
            <path d="M92.589,106.611c-13.523,0-24.523-8.029-24.523-17.9,0-.4.024-.805.061-1.2V68.283a1.442,1.442,0,0,1,1.443-1.443h46.163a1.443,1.443,0,0,1,1.443,1.443V88.244a1.446,1.446,0,0,1-.062.418v.048c0,9.872-11,17.9-24.523,17.9" transform="translate(41.868 100.279)" fill="#acb1bc" />
            <path d="M92.589,106.611c-13.523,0-24.523-8.029-24.523-17.9,0-.4.024-.805.061-1.2V68.283a1.442,1.442,0,0,1,1.443-1.443h46.163a1.443,1.443,0,0,1,1.443,1.443V88.244a1.446,1.446,0,0,1-.062.418v.048c0,9.872-11,17.9-24.523,17.9" transform="translate(172.566 83.568)" fill="#acb1bc" />
            <path d="M0,17.051c0-.463.027-.921.069-1.376V0H40.127A1.443,1.443,0,0,1,41.57,1.442V21.4a1.5,1.5,0,0,1-.061.419v.047c0,6.726-5.107,12.6-12.638,15.655-.27.005-.541.008-.813.008C12.587,37.533,0,28.346,0,17.051Z" transform="translate(117.473 167.12)" fill="#e4e6ea" />
            <path d="M-.431-.5H40.127A1.945,1.945,0,0,1,42.07,1.442V21.4a1.989,1.989,0,0,1-.061.485,14.931,14.931,0,0,1-3.609,9.5,23.486,23.486,0,0,1-9.341,6.6l-.086.035-.092,0c-.281.006-.558.009-.823.009A37.391,37.391,0,0,1,17,36.4a30.69,30.69,0,0,1-9.067-4.467,21.98,21.98,0,0,1-6.156-6.664A16.206,16.206,0,0,1-.5,17.051c0-.428.023-.885.069-1.4Zm29.2,37.526a22.449,22.449,0,0,0,8.86-6.273,13.94,13.94,0,0,0,3.381-8.885v-.118l.02-.068a1,1,0,0,0,.042-.28V1.442A.943.943,0,0,0,40.127.5H.569l0,15.221c-.045.492-.067.927-.067,1.33a15.219,15.219,0,0,0,2.141,7.714,20.989,20.989,0,0,0,5.881,6.358,29.694,29.694,0,0,0,8.773,4.319,36.392,36.392,0,0,0,10.763,1.59C28.287,37.033,28.525,37.03,28.768,37.026Z" transform="translate(117.473 167.12)" fill="rgba(0,0,0,0)" />
            <path d="M0,17.051c0-.463.027-.921.069-1.376V0H40.127A1.443,1.443,0,0,1,41.57,1.442V21.4a1.5,1.5,0,0,1-.061.419v.047c0,6.726-5.107,12.6-12.638,15.655-.27.005-.541.008-.813.008C12.587,37.533,0,28.346,0,17.051Z" transform="translate(248.171 150.409)" fill="#e4e6ea" />
            <path d="M-.431-.5H40.127A1.945,1.945,0,0,1,42.07,1.442V21.4a1.989,1.989,0,0,1-.061.485,14.931,14.931,0,0,1-3.609,9.5,23.486,23.486,0,0,1-9.341,6.6l-.086.035-.092,0c-.281.006-.558.009-.823.009A37.391,37.391,0,0,1,17,36.4a30.69,30.69,0,0,1-9.067-4.467,21.98,21.98,0,0,1-6.156-6.664A16.206,16.206,0,0,1-.5,17.051c0-.428.023-.885.069-1.4Zm29.2,37.526a22.449,22.449,0,0,0,8.86-6.273,13.94,13.94,0,0,0,3.381-8.885v-.118l.02-.068a1,1,0,0,0,.042-.28V1.442A.943.943,0,0,0,40.127.5H.569l0,15.221c-.045.492-.067.927-.067,1.33a15.219,15.219,0,0,0,2.141,7.714,20.989,20.989,0,0,0,5.881,6.358,29.694,29.694,0,0,0,8.773,4.319,36.392,36.392,0,0,0,10.763,1.59C28.287,37.033,28.525,37.03,28.768,37.026Z" transform="translate(248.171 150.409)" fill="rgba(0,0,0,0)" />
        </g>
    </g>
</svg>