<svg xmlns="http://www.w3.org/2000/svg" xmlns:xlink="http://www.w3.org/1999/xlink" width="400" height="320" viewBox="0 0 400 320">
    <defs>
        <clipPath>
            <rect width="98.963" height="57.909" fill="#fff" />
        </clipPath>
        <clipPath>
            <rect width="125.381" height="120.999" fill="none" stroke="#5bb3b3" stroke-width="2" />
        </clipPath>
        <clipPath>
            <rect width="179.768" height="188.878" fill="none" stroke="#5bb3b3" stroke-width="2" />
        </clipPath>
        <clipPath >
            <rect width="59.348" height="110.307" fill="none" />
        </clipPath>
        <clipPath >
            <rect width="400" height="320" />
        </clipPath>
    </defs>
    <g clip-path="url(#f)">
        <rect width="400" height="320" fill="transparent" />
        <path d="M334.387-1621.656l1.246-1.542,35.139-17.482h2.245l41.469,81.534-.927,2.315-35.608,18.689h-2.54l-41.024-81.365Z" transform="translate(-41 1809)" fill="#bfe2e2" />
        <g transform="translate(-11.996 -15.111)">
            <rect width="147.409" height="186.92" transform="translate(138.749 82.124)" fill="#acb1bc" />
            <rect width="147.409" height="186.92" transform="translate(134 77.375)" fill="#bfe2e2" />
            <rect width="123" height="73" transform="translate(145.996 88.111)" fill="#629d62" />
            <rect width="57" height="37" transform="translate(211.996 174.111)" fill="#ffd964" />
            <rect width="57" height="38" transform="translate(211.996 217.111)" fill="#e88a2d" />
            <path d="M49.939,1.5H0A1.5,1.5,0,0,1-1.5,0,1.5,1.5,0,0,1,0-1.5H49.939a1.5,1.5,0,0,1,1.5,1.5A1.5,1.5,0,0,1,49.939,1.5Z" transform="translate(148.486 176.917)" fill="#313e58" />
            <path d="M49.939,1.5H0A1.5,1.5,0,0,1-1.5,0,1.5,1.5,0,0,1,0-1.5H49.939a1.5,1.5,0,0,1,1.5,1.5A1.5,1.5,0,0,1,49.939,1.5Z" transform="translate(148.486 191.117)" fill="#313e58" />
            <path d="M49.939,1.5H0A1.5,1.5,0,0,1-1.5,0,1.5,1.5,0,0,1,0-1.5H49.939a1.5,1.5,0,0,1,1.5,1.5A1.5,1.5,0,0,1,49.939,1.5Z" transform="translate(148.486 205.317)" fill="#313e58" />
            <path d="M49.939,1.5H0A1.5,1.5,0,0,1-1.5,0,1.5,1.5,0,0,1,0-1.5H49.939a1.5,1.5,0,0,1,1.5,1.5A1.5,1.5,0,0,1,49.939,1.5Z" transform="translate(148.486 239.038)" fill="#313e58" />
            <path d="M49.939,1.5H0A1.5,1.5,0,0,1-1.5,0,1.5,1.5,0,0,1,0-1.5H49.939a1.5,1.5,0,0,1,1.5,1.5A1.5,1.5,0,0,1,49.939,1.5Z" transform="translate(148.486 253.238)" fill="#313e58" />
            <path d="M33.256,1.5H0A1.5,1.5,0,0,1-1.5,0,1.5,1.5,0,0,1,0-1.5H33.256a1.5,1.5,0,0,1,1.5,1.5A1.5,1.5,0,0,1,33.256,1.5Z" transform="translate(148.486 219.517)" fill="#313e58" />
            <g transform="translate(157.744 99.486)">
                <g transform="translate(0 0)" clip-path="url(#a)">
                    <path d="M19.114,48.853a2.033,2.033,0,0,0,2.032-2.032,21.446,21.446,0,0,1,42.893,0,2.033,2.033,0,0,0,4.065,0,25.511,25.511,0,0,0-51.022,0,2.033,2.033,0,0,0,2.032,2.032" transform="translate(7.258 9.055)" fill="#fff" />
                    <path d="M38.487,25.227A12.613,12.613,0,1,0,25.874,12.613,12.628,12.628,0,0,0,38.487,25.227m0-21.163a8.55,8.55,0,1,1-8.55,8.55,8.558,8.558,0,0,1,8.55-8.55" transform="translate(10.994 -0.001)" fill="#fff" />
                    <path d="M2.032,38.706a2.033,2.033,0,0,0,2.032-2.032A15.046,15.046,0,0,1,27.148,23.958a2.031,2.031,0,0,0,2.174-3.431A19.107,19.107,0,0,0,0,36.674a2.033,2.033,0,0,0,2.032,2.032" transform="translate(0 7.464)" fill="#fff" />
                    <path d="M16.12,20.561a9.726,9.726,0,1,0-9.726-9.726,9.737,9.737,0,0,0,9.726,9.726m0-15.388a5.663,5.663,0,1,1-5.663,5.661A5.667,5.667,0,0,1,16.12,5.173" transform="translate(2.717 0.471)" fill="#fff" />
                    <path d="M51.326,23.961A15.046,15.046,0,0,1,74.414,36.674a2.032,2.032,0,1,0,4.064,0A19.107,19.107,0,0,0,49.152,20.529a2.031,2.031,0,1,0,2.174,3.431" transform="translate(20.484 7.464)" fill="#fff" />
                    <path d="M59.132,20.561a9.726,9.726,0,1,0-9.726-9.726,9.737,9.737,0,0,0,9.726,9.726m0-15.388a5.663,5.663,0,1,1-5.663,5.661,5.667,5.667,0,0,1,5.663-5.661" transform="translate(20.993 0.471)" fill="#fff" />
                </g>
            </g>
        </g>
        <path d="M104.685,1H0A1,1,0,0,1-1,0,1,1,0,0,1,0-1H104.685a1,1,0,0,1,1,1A1,1,0,0,1,104.685,1Z" transform="translate(294.436 16)" fill="#5bb3b3" />
        <path d="M80.932,1H0A1,1,0,0,1-1,0,1,1,0,0,1,0-1H80.932a1,1,0,0,1,1,1A1,1,0,0,1,80.932,1Z" transform="translate(318.188 48.5)" fill="#5bb3b3" />
        <path d="M82.7,69.287H1.766a1,1,0,0,1-1-1V17.851a1,1,0,0,1,1-1H82.7a1,1,0,0,1,0,2H2.766V67.287H82.7a1,1,0,0,1,0,2Z" transform="translate(316.422 19.799)" fill="#5bb3b3" />
        <path d="M80.932,1H0A1,1,0,0,1-1,0,1,1,0,0,1,0-1H80.932a1,1,0,0,1,1,1A1,1,0,0,1,80.932,1Z" transform="translate(318.188 58.176)" fill="#5bb3b3" />
        <path d="M80.932,1H0A1,1,0,0,1-1,0,1,1,0,0,1,0-1H80.932a1,1,0,0,1,1,1A1,1,0,0,1,80.932,1Z" transform="translate(318.188 68.146)" fill="#5bb3b3" />
        <path d="M80.932,1H0A1,1,0,0,1-1,0,1,1,0,0,1,0-1H80.932a1,1,0,0,1,1,1A1,1,0,0,1,80.932,1Z" transform="translate(318.188 77.823)" fill="#5bb3b3" />
        <path d="M0,48.7a1,1,0,0,1-1-1V0A1,1,0,0,1,0-1,1,1,0,0,1,1,0V47.7A1,1,0,0,1,0,48.7Z" transform="translate(372.729 39.509)" fill="#5bb3b3" />
        <path d="M0,48.7a1,1,0,0,1-1-1V0A1,1,0,0,1,0-1,1,1,0,0,1,1,0V47.7A1,1,0,0,1,0,48.7Z" transform="translate(358.654 39.509)" fill="#5bb3b3" />
        <path d="M0,48.7a1,1,0,0,1-1-1V0A1,1,0,0,1,0-1,1,1,0,0,1,1,0V47.7A1,1,0,0,1,0,48.7Z" transform="translate(344.872 39.509)" fill="#5bb3b3" />
        <path d="M0,48.7a1,1,0,0,1-1-1V0A1,1,0,0,1,0-1,1,1,0,0,1,1,0V47.7A1,1,0,0,1,0,48.7Z" transform="translate(330.944 39.509)" fill="#5bb3b3" />
        <path d="M105.683,123.643h-93.2A12.931,12.931,0,0,1,3.7,120.281,11.051,11.051,0,0,1,0,112.094V18.187A11.051,11.051,0,0,1,3.7,10a12.931,12.931,0,0,1,8.788-3.362H106.27a1,1,0,0,1,0,2H12.485A10.936,10.936,0,0,0,5.05,11.473,9.074,9.074,0,0,0,2,18.187v93.907a9.074,9.074,0,0,0,3.05,6.714,10.936,10.936,0,0,0,7.435,2.835h93.2a1,1,0,0,1,0,2Z" transform="translate(293.73 18.283)" fill="#5bb3b3" />
        <g transform="translate(-21 6.833)">
            <g clip-path="url(#b)">
                <path d="M21.188,30.715a1,1,0,0,1,.735.322L64.292,76.99,123.909,60.61a1,1,0,0,1,1.225,1.243l-16.589,57.215a1,1,0,0,1-1.239.682L4.321,89.891a1,1,0,0,1-.682-1.239L20.227,31.437a1,1,0,0,1,.96-.722Zm42.783,48.4a1,1,0,0,1-.735-.322L21.654,33.7,5.838,88.249l101.066,29.3,15.813-54.539L64.235,79.08A1,1,0,0,1,63.97,79.116Z" transform="translate(-3.562 1.173)" fill="#5bb3b3" />
                <path d="M92.149,64.105a1,1,0,0,1-.961-1.279l10.081-34.769L12.218,2.239,1.96,37.622a1,1,0,1,1-1.921-.557L10.576.722A1,1,0,0,1,11.815.04l90.972,26.376a1,1,0,0,1,.682,1.239L93.109,63.383A1,1,0,0,1,92.149,64.105Z" transform="translate(21.836 0.037)" fill="#5bb3b3" />
            </g>
        </g>
        <path d="M47.531,14.781a1,1,0,0,1-.279-.04L-.278.96A1,1,0,0,1-.96-.278,1,1,0,0,1,.278-.96L47.809,12.82a1,1,0,0,1-.278,1.961Z" transform="translate(19.319 23.562)" fill="#5bb3b3" />
        <path d="M71.137,21.625a1,1,0,0,1-.279-.04L-.278.96A1,1,0,0,1-.96-.278,1,1,0,0,1,.278-.96L71.415,19.664a1,1,0,0,1-.278,1.961Z" transform="translate(15.282 36.58)" fill="#5bb3b3" />
        <path d="M71.137,21.625a1,1,0,0,1-.279-.04L-.278.96A1,1,0,0,1-.96-.278,1,1,0,0,1,.278-.96L71.415,19.664a1,1,0,0,1-.278,1.961Z" transform="translate(11.743 48.786)" fill="#5bb3b3" />
        <path d="M22.8,7.61a1,1,0,0,1-.279-.04L-.278.96A1,1,0,0,1-.96-.278,1,1,0,0,1,.278-.96l22.8,6.61A1,1,0,0,1,22.8,7.61Z" transform="translate(19.985 63.894)" fill="#5bb3b3" />
        <path d="M0,48.7a1,1,0,0,1-1-1V0A1,1,0,0,1,0-1,1,1,0,0,1,1,0V47.7A1,1,0,0,1,0,48.7Z" transform="translate(387.098 39.509)" fill="#5bb3b3" />
        <path d="M13.765,103.293H1.919a1,1,0,0,1-1-1V74.531a1,1,0,0,1,1-1H13.765a1,1,0,1,1,0,2H2.919v25.761H13.765a1,1,0,1,1,0,2Z" transform="translate(385.179 28.216)" fill="#5bb3b3" />
        <g transform="translate(-70.93 177.839) rotate(8)">
            <g clip-path="url(#c)">
                <path d="M0-1H150.312a1,1,0,0,1,1,1V114.174a1,1,0,0,1-1,1H0a1,1,0,0,1-1-1V0A1,1,0,0,1,0-1ZM149.312,1H1V113.174H149.312Z" transform="translate(1.367 154.787) rotate(-73.345)" fill="#5bb3b3" />
                <path d="M107.553,182.942a1,1,0,0,1-.353-.064L97.466,179.2a1,1,0,0,1,.706-1.871l8.8,3.32L159.333,41.892,54.382,2.288,49.307,15.737a1,1,0,1,1-1.871-.706L52.864.647A1,1,0,0,1,54.153.064L160.975,40.374a1,1,0,0,1,.583,1.289L108.489,182.3a1,1,0,0,1-.936.647Z" transform="translate(17.778 0.367)" fill="#5bb3b3" />
            </g>
            <path d="M89.816,27.87a1,1,0,0,1-.287-.042L-.287.958A1,1,0,0,1-.958-.287,1,1,0,0,1,.287-.958L90.1,25.911a1,1,0,0,1-.286,1.958Z" transform="translate(48.775 27.383)" fill="#5bb3b3" />
            <path d="M89.816,27.87a1,1,0,0,1-.287-.042L-.287.958A1,1,0,0,1-.958-.287,1,1,0,0,1,.287-.958L90.1,25.911a1,1,0,0,1-.286,1.958Z" transform="translate(45.172 39.425)" fill="#5bb3b3" />
            <path d="M89.816,27.87a1,1,0,0,1-.287-.042L-.287.958A1,1,0,0,1-.958-.287,1,1,0,0,1,.287-.958L90.1,25.911a1,1,0,0,1-.286,1.958Z" transform="translate(41.119 52.973)" fill="#5bb3b3" />
            <path d="M89.816,27.87a1,1,0,0,1-.287-.042L-.287.958A1,1,0,0,1-.958-.287,1,1,0,0,1,.287-.958L90.1,25.911a1,1,0,0,1-.286,1.958Z" transform="translate(37.517 65.015)" fill="#5bb3b3" />
            <path d="M89.816,27.87a1,1,0,0,1-.287-.042L-.287.958A1,1,0,0,1-.958-.287,1,1,0,0,1,.287-.958L90.1,25.911a1,1,0,0,1-.286,1.958Z" transform="translate(33.164 79.566)" fill="#5bb3b3" />
            <path d="M89.816,27.87a1,1,0,0,1-.287-.042L-.287.958A1,1,0,0,1-.958-.287,1,1,0,0,1,.287-.958L90.1,25.911a1,1,0,0,1-.286,1.958Z" transform="translate(29.561 91.608)" fill="#5bb3b3" />
            <path d="M89.816,27.87a1,1,0,0,1-.287-.042L-.287.958A1,1,0,0,1-.958-.287,1,1,0,0,1,.287-.958L90.1,25.911a1,1,0,0,1-.286,1.958Z" transform="translate(25.508 105.156)" fill="#5bb3b3" />
            <path d="M89.816,27.87a1,1,0,0,1-.287-.042L-.287.958A1,1,0,0,1-.958-.287,1,1,0,0,1,.287-.958L90.1,25.911a1,1,0,0,1-.286,1.958Z" transform="translate(21.906 117.198)" fill="#5bb3b3" />
            <path d="M89.816,27.87a1,1,0,0,1-.287-.042L-.287.958A1,1,0,0,1-.958-.287,1,1,0,0,1,.287-.958L90.1,25.911a1,1,0,0,1-.286,1.958Z" transform="translate(17.703 131.248)" fill="#5bb3b3" />
            <path d="M89.816,27.87a1,1,0,0,1-.287-.042L-.287.958A1,1,0,0,1-.958-.287,1,1,0,0,1,.287-.958L90.1,25.911a1,1,0,0,1-.286,1.958Z" transform="translate(14.1 143.29)" fill="#5bb3b3" />
        </g>
        <path d="M9.852-1A10.852,10.852,0,0,1,20.7,9.852,10.852,10.852,0,0,1,9.852,20.7,10.852,10.852,0,0,1-1,9.852,10.852,10.852,0,0,1,9.852-1Zm0,19.7A8.852,8.852,0,1,0,1,9.852,8.862,8.862,0,0,0,9.852,18.7Z" transform="translate(66.767 153.778)" fill="#5bb3b3" />
        <path d="M9.852-1A10.852,10.852,0,0,1,20.7,9.852,10.852,10.852,0,0,1,9.852,20.7,10.852,10.852,0,0,1-1,9.852,10.852,10.852,0,0,1,9.852-1Zm0,19.7A8.852,8.852,0,1,0,1,9.852,8.862,8.862,0,0,0,9.852,18.7Z" transform="translate(84.677 190.686)" fill="#5bb3b3" />
        <path d="M9.852-1A10.852,10.852,0,0,1,20.7,9.852,10.852,10.852,0,0,1,9.852,20.7,10.852,10.852,0,0,1-1,9.852,10.852,10.852,0,0,1,9.852-1Zm0,19.7A8.852,8.852,0,1,0,1,9.852,8.862,8.862,0,0,0,9.852,18.7Z" transform="translate(50.038 173.199)" fill="#5bb3b3" />
        <path d="M101.448,85.618q-.329,0-.661-.02a10.78,10.78,0,0,1-7.47-3.63,1,1,0,0,1,1.5-1.327A8.852,8.852,0,0,0,108.055,68.89a1,1,0,1,1,1.5-1.327,10.853,10.853,0,0,1-8.1,18.055Z" transform="translate(-35.047 116.612)" fill="#5bb3b3" />
        <g transform="matrix(0.891, -0.454, 0.454, 0.891, 281.758, 183.807)">
            <g transform="translate(0 0)" clip-path="url(#d)">
                <path d="M6-1H50.616a7.008,7.008,0,0,1,7,7v95.575a7.008,7.008,0,0,1-7,7H6a7.008,7.008,0,0,1-7-7V6A7.008,7.008,0,0,1,6-1ZM50.616,106.575a5.006,5.006,0,0,0,5-5V6a5.006,5.006,0,0,0-5-5H6A5.006,5.006,0,0,0,1,6v95.575a5.006,5.006,0,0,0,5,5Z" transform="translate(1.366 1.366)" fill="#70b1b1" />
                <path d="M3-1H40.888a4,4,0,0,1,4,4V92.053a4,4,0,0,1-4,4H3a4,4,0,0,1-4-4V3A4,4,0,0,1,3-1ZM40.888,94.053a2,2,0,0,0,2-2V3a2,2,0,0,0-2-2H3A2,2,0,0,0,1,3V92.053a2,2,0,0,0,2,2Z" transform="translate(7.73 7.627)" fill="#70b1b1" />
                <path d="M33.61,13.348H17.22a6.587,6.587,0,0,1-6.579-6.579V5.721a1,1,0,0,1,2,0V6.768a4.585,4.585,0,0,0,4.579,4.579H33.61A4.585,4.585,0,0,0,38.19,6.768V5.655a1,1,0,0,1,2,0V6.768A6.587,6.587,0,0,1,33.61,13.348Z" transform="translate(4.259 2.069)" fill="#70b1b1" />
            </g>
        </g>
        <g transform="translate(-18.277 -6)">
            <path d="M266.242,221.815a4.031,4.031,0,0,1-.873-.077,1.263,1.263,0,0,1-1.026-.869l-1.337-4.579c-.309-1.052.915-1.727,1.647-2.131.692-.382,1.665-.846,2.893-1.38,2.063-.9,4.183-1.7,4.2-1.712s.049-.018.075-.025l91.409-26.7a2.567,2.567,0,0,1,3.182,1.744l1.337,4.579a2.569,2.569,0,0,1-1.744,3.182l-91.777,26.805q-.039.011-.08.02A59.57,59.57,0,0,1,266.242,221.815Zm-.124-2h.124a58.163,58.163,0,0,0,7.469-1.091l91.738-26.794a.569.569,0,0,0,.385-.7l-1.338-4.58a.57.57,0,0,0-.546-.407.559.559,0,0,0-.157.023l-91.37,26.687c-.26.1-1.87.718-3.563,1.44a26.439,26.439,0,0,0-3.787,1.844Z" transform="translate(-53.033 92.371)" fill="#5bb3b3" />
            <path d="M2.247,8.7a1,1,0,0,1-.959-.72L-.96.28A1,1,0,0,1-.28-.96,1,1,0,0,1,.96-.28l2.248,7.7A1,1,0,0,1,2.247,8.7Z" transform="translate(308.121 278.305)" fill="#5bb3b3" />
            <path d="M337.594,192.27a1,1,0,0,1-.28-1.96l2.288-.668a.574.574,0,0,0,.384-.7l-.668-2.285a.571.571,0,0,0-.7-.386l-2.471.723a1,1,0,0,1-.561-1.92l2.472-.723a2.571,2.571,0,0,1,3.183,1.745l.668,2.285a2.571,2.571,0,0,1-1.742,3.182l-2.29.668A1,1,0,0,1,337.594,192.27Z" transform="translate(-23.616 92.373)" fill="#5bb3b3" />
            <path d="M321.759,191.056h0a1.514,1.514,0,0,1-1.448-1.087l-.055-.188a1.509,1.509,0,0,1,1.027-1.872l7.442-2.174a1.507,1.507,0,0,1,1.87,1.025l.056.19a1.509,1.509,0,0,1-1.026,1.873l-7.442,2.174A1.5,1.5,0,0,1,321.759,191.056Z" transform="translate(-29.618 92.956)" fill="#5bb3b3" />
            <path d="M2.082,8.132a1,1,0,0,1-.959-.72L-.96.28A1,1,0,0,1-.28-.96,1,1,0,0,1,.96-.28L3.043,6.851a1,1,0,0,1-.96,1.281Z" transform="translate(275.346 288.184)" fill="#5bb3b3" />
            <path d="M2.082,8.132a1,1,0,0,1-.959-.72L-.96.28A1,1,0,0,1-.28-.96,1,1,0,0,1,.96-.28L3.043,6.851a1,1,0,0,1-.96,1.281Z" transform="translate(273.693 288.667)" fill="#5bb3b3" />
            <path d="M263.573,211.949c-1.794,0-2.754-.292-3.188-.96a1.316,1.316,0,0,1-.153-1.1c.142-.484.547-1.125,2.477-2.211.945-.532,1.842-.938,1.88-.955a1,1,0,1,1,.823,1.823c-.007,0-.766.347-1.579.8-.421.232-.741.428-.984.59.309.021.714.03,1.243.013.963-.03,1.811-.129,1.82-.13a1,1,0,1,1,.234,1.986c-.045.005-1.126.131-2.295.149Z" transform="translate(-54.173 101.53)" fill="#5bb3b3" />
            <path d="M.822,3.818A1,1,0,0,1-.137,3.1L-.96.28A1,1,0,0,1-.28-.96,1,1,0,0,1,.96-.28l.823,2.818a1,1,0,0,1-.96,1.281Z" transform="translate(210.235 309.528)" fill="#5bb3b3" />
        </g>
    </g>
</svg>