<svg xmlns="http://www.w3.org/2000/svg" xmlns:xlink="http://www.w3.org/1999/xlink" width="400"
    height="320" viewBox="0 0 400 320">
    <defs>
        <clipPath>
            <rect width="64.424" height="119.742" fill="none" />
        </clipPath>
        <clipPath>
            <rect width="400" height="320" />
        </clipPath>
    </defs>
    <g clip-path="url(#c)">
        <g transform="translate(-56.371 108.913) rotate(-13)">
            <rect width="129.229" height="177.436" transform="translate(129.985 59.448)"
                fill="#acb1bc" />
            <path d="M0,0H129.229V177.436H0Z" transform="translate(125.518 53.989)" fill="#fff" />
            <path d="M-1-1H130.229V178.436H-1ZM128.229,1H1V176.436H128.229Z"
                transform="translate(125.518 53.989)" fill="#708daf" />
            <path
                d="M90.955,1.5H0A1.5,1.5,0,0,1-1.5,0,1.5,1.5,0,0,1,0-1.5H90.955a1.5,1.5,0,0,1,1.5,1.5A1.5,1.5,0,0,1,90.955,1.5Z"
                transform="translate(144.205 149.264)" fill="#708daf" />
            <path
                d="M90.955,1.5H0A1.5,1.5,0,0,1-1.5,0,1.5,1.5,0,0,1,0-1.5H90.955a1.5,1.5,0,0,1,1.5,1.5A1.5,1.5,0,0,1,90.955,1.5Z"
                transform="translate(144.205 134.576)" fill="#708daf" />
            <path
                d="M90.955,1.5H0A1.5,1.5,0,0,1-1.5,0,1.5,1.5,0,0,1,0-1.5H90.955a1.5,1.5,0,0,1,1.5,1.5A1.5,1.5,0,0,1,90.955,1.5Z"
                transform="translate(144.205 163.033)" fill="#708daf" />
            <path
                d="M56.956,1.5H0A1.5,1.5,0,0,1-1.5,0,1.5,1.5,0,0,1,0-1.5H56.956a1.5,1.5,0,0,1,1.5,1.5A1.5,1.5,0,0,1,56.956,1.5Z"
                transform="translate(144.205 177.721)" fill="#708daf" />
            <path
                d="M56.956,1.5H0A1.5,1.5,0,0,1-1.5,0,1.5,1.5,0,0,1,0-1.5H56.956a1.5,1.5,0,0,1,1.5,1.5A1.5,1.5,0,0,1,56.956,1.5Z"
                transform="translate(144.205 192.409)" fill="#708daf" />
            <path
                d="M56.956,1.5H0A1.5,1.5,0,0,1-1.5,0,1.5,1.5,0,0,1,0-1.5H56.956a1.5,1.5,0,0,1,1.5,1.5A1.5,1.5,0,0,1,56.956,1.5Z"
                transform="translate(144.205 205.605)" fill="#708daf" />
            <rect width="94.727" height="24.518" rx="2" transform="translate(142.216 68.462)"
                fill="#708daf" />
            <rect width="95.388" height="9.352" rx="2" transform="translate(141.867 99.188)"
                fill="#96b7df" />
            <rect width="95.388" height="9.352" rx="2" transform="translate(141.867 115.03)"
                fill="#96b7df" />
        </g>
        <g transform="translate(120.704 337.141) rotate(-93)">
            <path
                d="M-1658.491,715.655c-4.805,0-9.5-2.032-13.986-6.06-16-14.366-4.173-30.234.279-36.208l1.073-1.463c2.586-3.69,4.233-10.883,4.463-13.324l4.9,1.192c-.039.416-.955,9.625-4.9,15.26l-1.166,1.592c-6.911,9.272-11.817,19.19-1.008,28.9,3.891,3.493,7.829,5.036,11.709,4.586,7.011-.814,11.851-7.66,11.9-7.729.98-1.366,9.615-13.124,18.035-15.165l1.284,5.3c-5.479,1.328-12.591,9.845-14.869,13.014-.23.332-6.3,8.9-15.72,10A17.283,17.283,0,0,1-1658.491,715.655Z"
                transform="translate(1857.696 -526.078)" fill="#313e58" />
            <g transform="translate(191.643 53.339)">
                <path
                    d="M-1664.1,651.956s-1.948-.249-2.139-.313c-.952-.318.322-.438.64-1.39a223.816,223.816,0,0,1,15.942-36.983,150.9,150.9,0,0,1,16.518-24.423,88.733,88.733,0,0,1,14.048-13.647c3.7-2.778,6.981-4.506,8.989-4.741,2.954-.346,5.114,2.623,8.53,6.188a21.194,21.194,0,0,0,5.1,3.752,1.817,1.817,0,0,1-.561,2.507,1.817,1.817,0,0,1-2.507-.561,33.227,33.227,0,0,0-3.627-4.559c-2.5-2.6-4.813-3.917-6.517-3.718-.812.095-3.248,1.052-7.231,4.039a83.65,83.65,0,0,0-13.449,13.082,147.251,147.251,0,0,0-16.113,23.834,220.174,220.174,0,0,0-15.678,36.38C-1662.407,652.165-1664.1,651.956-1664.1,651.956Z"
                    transform="translate(1666.587 -570.432)" fill="#7a8293" />
            </g>
            <g transform="translate(305.517 91.973) rotate(86)">
                <path
                    d="M66.939,81.85c-.761,0-.718-1.106-.972-1.867A220.159,220.159,0,0,0,50.289,43.6,147.256,147.256,0,0,0,34.176,19.768,83.648,83.648,0,0,0,20.726,6.687C16.743,3.7,14.307,2.743,13.5,2.648,11.781,2.448,9.453,3.782,6.94,6.4a32.938,32.938,0,0,0-3.589,4.52A1.817,1.817,0,0,1,.283,8.978,36.38,36.38,0,0,1,4.316,3.891c3.416-3.565,7.289-4.2,9.1-3.774C15.423.352,20.192,2.482,23.9,5.26A72.065,72.065,0,0,1,36.954,17.427,150.893,150.893,0,0,1,53.472,41.85,227.928,227.928,0,0,1,69.584,79.171c.318.952-1.279,1.513-1.932,2.315C67.461,81.549,67.129,81.85,66.939,81.85Z"
                    transform="translate(0 0)" fill="#7a8293" />
            </g>
            <g transform="translate(190.719 52.413)">
                <path
                    d="M-1663.3,652.7a6.051,6.051,0,0,1-1.059-.148,1.817,1.817,0,0,1-1.148-2.3,223.819,223.819,0,0,1,15.942-36.983,150.889,150.889,0,0,1,16.518-24.423A88.735,88.735,0,0,1-1619,575.2c3.7-2.778,6.981-4.506,8.989-4.741,2.954-.346,6.185,1.287,9.6,4.852a36.377,36.377,0,0,1,4.033,5.087,1.817,1.817,0,0,1-.561,2.507,1.817,1.817,0,0,1-2.507-.561,33.228,33.228,0,0,0-3.627-4.559c-2.5-2.6-4.813-3.917-6.517-3.718-.812.095-3.248,1.052-7.231,4.039a83.641,83.641,0,0,0-13.449,13.081,147.255,147.255,0,0,0-16.113,23.834,220.166,220.166,0,0,0-15.678,36.38C-1662.766,652.864-1662.386,652.852-1663.3,652.7Z"
                    transform="translate(1665.604 -570.413)" fill="#acb1bc" />
                <path
                    d="M3.642.908,8.184,0a3.634,3.634,0,0,1,3.634,3.634V6.359A3.634,3.634,0,0,1,8.184,9.992L3.642,9.084A3.715,3.715,0,0,1,.095,6.242a10.527,10.527,0,0,1-.086-1.7A3.634,3.634,0,0,1,3.642.908Z"
                    transform="translate(69.125 5.11) rotate(43)" fill="#313e58" />
            </g>
            <g transform="translate(304.128 81.847) rotate(86)">
                <path
                    d="M65.967,80.989a220.159,220.159,0,0,0-15.678-36.38A147.256,147.256,0,0,0,34.176,20.775,83.648,83.648,0,0,0,20.726,7.693C16.743,4.707,14.307,3.749,13.5,3.654c-1.714-.2-4.042,1.134-6.555,3.757a32.938,32.938,0,0,0-3.589,4.52A1.817,1.817,0,0,1,.283,9.985,36.38,36.38,0,0,1,4.316,4.9c3.416-3.565,6.645-5.2,9.6-4.852C15.925.28,19.2,2.008,22.906,4.786A88.735,88.735,0,0,1,36.954,18.433,150.893,150.893,0,0,1,53.472,42.856,223.805,223.805,0,0,1,69.414,79.839c.318.952.295,1.028-.657,1.345C68.566,81.248,66.221,81.75,65.967,80.989Z"
                    transform="translate(8.26 0)" fill="#acb1bc" />
                <path
                    d="M3.642,9.084l4.542.908a3.634,3.634,0,0,0,3.634-3.634V3.634A3.634,3.634,0,0,0,8.184,0L3.642.908A3.715,3.715,0,0,0,.094,3.75a8.25,8.25,0,0,0-.086,1.7A3.634,3.634,0,0,0,3.642,9.084Z"
                    transform="translate(15.457 12.419) rotate(137)" fill="#313e58" />
            </g>
            <path
                d="M-1719.37,738.788c-8.146,0-16.36-3.391-24.5-10.131a88.445,88.445,0,0,1-13.753-16.623q-1.324-.209-2.669-.5c-41.659-8.975-32.671-76.34-32.268-79.2l5.4.759c-.089.638-8.36,62.647,25.867,72.574-5.628-10.98-9.029-24.734-2.975-38.608,2.713-7.434,9.864-16.245,19.583-18.823,5.067-1.344,12.864-1.461,21.236,5.614,9.149,7.732,10.828,24.953,3.822,39.2-6.193,12.6-17.465,19.514-31.126,19.531a81.028,81.028,0,0,0,10.417,11.924c8.891,7.36,17.752,10.148,26.281,8.239,9.035-2.022,16.031-10.468,20.95-18.776a44.127,44.127,0,0,0,4.655-18.584l6.035,10.28,8.724,3.432c-.252.538-7.343,6.609-13.779,10.188-6.68,6.963-14.676,16.373-25.375,18.774A29.7,29.7,0,0,1-1719.37,738.788Zm-35.078-31.825c18.695,1.945,27.078-10.522,29.927-16.316,5.854-11.907,4.755-26.547-2.449-32.636-5.281-4.463-10.772-5.98-16.32-4.509-7.781,2.064-13.708,9.523-15.923,15.58C-1765.216,682.843-1760.61,696.6-1754.448,706.963Z"
                transform="translate(1868.052 -523.672)" fill="#313e58" />
            <circle cx="14.534" cy="14.534" r="14.534" transform="translate(65 81.107)"
                fill="#acb1bc" />
            <circle cx="11.809" cy="11.809" r="11.809" transform="translate(67.725 83.832)"
                fill="#313e58" />
            <circle cx="9.084" cy="9.084" r="9.084" transform="translate(70.45 86.557)"
                fill="#e4e6ea" />
            <path d="M8.176,0A8.176,8.176,0,1,1,0,8.176,8.176,8.176,0,0,1,8.176,0Z"
                transform="translate(71.359 87.466)" fill="#acb1bc" />
        </g>
        <g transform="translate(47.823 111.038) rotate(-48)">
            <path
                d="M1869.017-423.1s-.241-32.153,0-57.806c2.191-23.977,8.763-38.1,8.763-38.1l1.375-18.984h4.195l1.021,18.984s6.226,14.125,8.3,38.1c.739,24.772,0,57.806,0,57.806Z"
                transform="translate(553 1907) rotate(-90)" fill="#acb1bc" />
            <path
                d="M1869-423.1s-.2-32.153,0-57.806c1.787-23.977,7.149-38.1,7.149-38.1l1.122-18.984h4.073l.987,18.174s6.827,14.934,8.519,38.911c.6,24.772,0,57.806,0,57.806Z"
                transform="translate(553 1905.023) rotate(-90)" fill="#e4e6ea" />
            <path
                d="M1878.637-494.775c-5.323,0-9.636-3.961-9.636-8.848V-518h24.09v14.378c0,4.887-4.315,8.848-9.636,8.848Z"
                transform="translate(646.774 1907.091) rotate(-90)" fill="#7468b4" />
            <path
                d="M1871.137-509.349c-1.18,0-2.136-1.475-2.136-3.3V-518h5.34v5.356c0,1.82-.956,3.3-2.136,3.3Z"
                transform="translate(-495.575 -1845.903) rotate(90)" fill="#7a8293" />
            <g transform="translate(-1 -2)">
                <rect width="28" height="11" rx="2" transform="translate(92 21)" fill="#7468b4" />
                <path
                    d="M4.6,5.012a1.512,1.512,0,0,1-.365,1.024,1.891,1.891,0,0,1-1.024.58v.026a2.046,2.046,0,0,1,1.178.472,1.323,1.323,0,0,1,.4,1.013,1.716,1.716,0,0,1-.672,1.444,3.1,3.1,0,0,1-1.92.516A4.663,4.663,0,0,1,.343,9.741V8.585a4.191,4.191,0,0,0,.822.308,3.458,3.458,0,0,0,.888.119,1.726,1.726,0,0,0,.993-.229.839.839,0,0,0,.321-.734A.663.663,0,0,0,3,7.407a2.731,2.731,0,0,0-1.178-.189H1.332V6.177h.5a2.309,2.309,0,0,0,1.092-.2.706.706,0,0,0,.345-.67q0-.729-.914-.729a2.092,2.092,0,0,0-.644.105,3.145,3.145,0,0,0-.727.365L.352,4.116a3.492,3.492,0,0,1,2.1-.633,2.707,2.707,0,0,1,1.575.4A1.3,1.3,0,0,1,4.6,5.012ZM9.962,6.317a4.278,4.278,0,0,1-.8,2.834,3.01,3.01,0,0,1-2.421.936,4.547,4.547,0,0,1-.866-.062V8.937a3.178,3.178,0,0,0,.773.092,2.716,2.716,0,0,0,1.121-.2A1.414,1.414,0,0,0,8.442,8.2a2.768,2.768,0,0,0,.268-1.18H8.657a1.5,1.5,0,0,1-.589.58,1.859,1.859,0,0,1-.835.167,1.688,1.688,0,0,1-1.323-.538,2.16,2.16,0,0,1-.483-1.5A2.234,2.234,0,0,1,6.014,4.1a2.132,2.132,0,0,1,1.6-.6,2.3,2.3,0,0,1,1.246.334,2.144,2.144,0,0,1,.82.969A3.669,3.669,0,0,1,9.962,6.317ZM7.638,4.59a.8.8,0,0,0-.659.29,1.289,1.289,0,0,0-.237.835,1.159,1.159,0,0,0,.215.738.784.784,0,0,0,.655.272,1.01,1.01,0,0,0,.708-.27.823.823,0,0,0,.294-.622,1.414,1.414,0,0,0-.275-.883A.845.845,0,0,0,7.638,4.59Zm3.151,4.781a.737.737,0,0,1,.2-.558.8.8,0,0,1,.576-.189.779.779,0,0,1,.565.193.854.854,0,0,1,0,1.1.765.765,0,0,1-.562.2.788.788,0,0,1-.571-.2A.732.732,0,0,1,10.789,9.372ZM15.539,5.9a2.067,2.067,0,0,1,1.483.523,1.88,1.88,0,0,1,.552,1.433,2.083,2.083,0,0,1-.664,1.657,2.8,2.8,0,0,1-1.9.58,3.718,3.718,0,0,1-1.731-.347V8.567a3.9,3.9,0,0,0,1.683.417q1.244,0,1.244-1.02,0-.971-1.288-.971a3.2,3.2,0,0,0-.514.046,3.762,3.762,0,0,0-.457.1l-.541-.29.242-3.274h3.485V4.727H14.84l-.119,1.261.154-.031A3.025,3.025,0,0,1,15.539,5.9Z"
                    transform="translate(96.657 19.517)" fill="#fff" />
            </g>
            <g transform="translate(0 -1)">
                <path d="M2.087,7.311H.387V6.348h1.7V4.634H3.05V6.348h1.7v.962H3.05V9H2.087Z"
                    transform="translate(83.613 17.187)" fill="#7a8293" />
                <rect width="4" height="1" transform="translate(84.182 28.179)" fill="#7a8293" />
            </g>
        </g>
        <g transform="translate(556.137 -96.857) rotate(68)">
            <rect width="86.664" height="86.663" rx="10"
                transform="translate(123.69 274.311) rotate(149)" fill="#bfe2e2" />
            <path
                d="M10,2a8.009,8.009,0,0,0-8,8V76.663a8.009,8.009,0,0,0,8,8H76.664a8.009,8.009,0,0,0,8-8V10a8.009,8.009,0,0,0-8-8H10m0-2H76.664a10,10,0,0,1,10,10V76.663a10,10,0,0,1-10,10H10a10,10,0,0,1-10-10V10A10,10,0,0,1,10,0Z"
                transform="translate(123.69 274.311) rotate(149)" fill="#5bb3b3" />
            <path
                d="M24.52,16.892,3.909,10.027A5.4,5.4,0,0,1,.232,3.414,5.315,5.315,0,0,1,7.076.3L27.625,7.148"
                transform="translate(116.251 231.939) rotate(131)" fill="#fff" />
            <path
                d="M24.52,17.892a1,1,0,0,1-.316-.052L3.593,10.976A6.391,6.391,0,0,1-.719,3.1,5.844,5.844,0,0,1,2.25-.3a6.753,6.753,0,0,1,5.142-.34L27.941,6.2a1,1,0,0,1-.632,1.9L6.76,1.253a4.74,4.74,0,0,0-3.609.229A3.859,3.859,0,0,0,1.183,3.724a3.932,3.932,0,0,0,.35,3.152,4.787,4.787,0,0,0,2.692,2.2l20.611,6.864a1,1,0,0,1-.316,1.949Z"
                transform="translate(116.251 231.939) rotate(131)" fill="#5bb3b3" />
            <ellipse cx="31.713" cy="31.713" rx="31.713" ry="31.713"
                transform="translate(109.296 255.981) rotate(131)" fill="#fff" />
            <path
                d="M31.713-1A32.722,32.722,0,0,1,44.447,61.855,32.721,32.721,0,0,1,18.979,1.571,32.509,32.509,0,0,1,31.713-1Zm0,63.426A30.722,30.722,0,0,0,43.668,3.413a30.721,30.721,0,0,0-23.909,56.6A30.52,30.52,0,0,0,31.713,62.426Z"
                transform="translate(109.296 255.981) rotate(131)" fill="#5bb3b3" />
            <path
                d="M24.961-1A25.967,25.967,0,0,1,35.066,48.881,25.967,25.967,0,0,1,14.855,1.041,25.8,25.8,0,0,1,24.961-1Zm0,49.921A23.967,23.967,0,0,0,34.287,2.883,23.967,23.967,0,0,0,15.634,47.039,23.81,23.81,0,0,0,24.961,48.921Z"
                transform="translate(99.77 256.647) rotate(131)" fill="#5bb3b3" />
        </g>
        <g transform="matrix(-0.454, 0.891, -0.891, -0.454, -383.139, -959.244)">
            <path
                d="M382.058,230.044a66.809,66.809,0,0,1-9.259-1.4q-.042-.009-.083-.022L264.99,195.616A2.949,2.949,0,0,1,263.071,192l1.569-5.638a2.865,2.865,0,0,1,2.731-2.119,2.751,2.751,0,0,1,.8.121l107.294,32.874q.039.012.077.027c.025.01,2.51,1,4.929,2.105,1.436.656,2.574,1.225,3.383,1.693a8.371,8.371,0,0,1,1.189.8,1.466,1.466,0,0,1,.646,1.537l-1.569,5.638C383.843,230.044,382.592,230.044,382.058,230.044Zm-8.8-3.347a65.561,65.561,0,0,0,8.8,1.347c.107,0,.195,0,.267-.007l1.319-4.739a26.849,26.849,0,0,0-4.56-2.362c-2.021-.905-3.951-1.682-4.241-1.8L267.59,186.276a.751.751,0,0,0-.219-.033.86.86,0,0,0-.8.655L265,192.537a.951.951,0,0,0,.578,1.166Z"
                transform="translate(439.868 -1384.084)" fill="#5bb3b3" />
            <path
                d="M0,10.477a1,1,0,0,1-.269-.037,1,1,0,0,1-.7-1.232L1.675-.268a1,1,0,0,1,1.232-.7A1,1,0,0,1,3.6.268L.963,9.745A1,1,0,0,1,0,10.477Z"
                transform="translate(707.883 -1197.99)" fill="#5bb3b3" />
            <path
                d="M339.874,193.663a1,1,0,0,1-.293-.044L336.9,192.8a2.955,2.955,0,0,1-1.919-3.615l.784-2.815a2.924,2.924,0,0,1,1.4-1.776,2.743,2.743,0,0,1,2.138-.224l2.9.89a1,1,0,0,1-.587,1.912l-2.9-.89a.758.758,0,0,0-.59.065.9.9,0,0,0-.432.558l-.784,2.815a.954.954,0,0,0,.58,1.167l2.685.822a1,1,0,0,1-.292,1.956Z"
                transform="translate(363.771 -1384.081)" fill="#5bb3b3" />
            <path
                d="M330.529,191.838a1.564,1.564,0,0,1-.462-.07l-8.735-2.676a1.634,1.634,0,0,1-1.075-2l.066-.234a1.6,1.6,0,0,1,1.536-1.182,1.564,1.564,0,0,1,.462.07l8.736,2.676a1.634,1.634,0,0,1,1.075,2l-.065.233A1.6,1.6,0,0,1,330.529,191.838Z"
                transform="translate(398.749 -1383.032)" fill="#5bb3b3" />
            <path
                d="M0,9.781a1,1,0,0,1-.269-.037,1,1,0,0,1-.7-1.232L1.481-.268a1,1,0,0,1,1.232-.7,1,1,0,0,1,.7,1.232L.963,9.049A1,1,0,0,1,0,9.781Z"
                transform="translate(746.546 -1185.825)" fill="#5bb3b3" />
            <path
                d="M0,9.781a1,1,0,0,1-.269-.037,1,1,0,0,1-.7-1.232L1.481-.268a1,1,0,0,1,1.232-.7,1,1,0,0,1,.7,1.232L.963,9.049A1,1,0,0,1,0,9.781Z"
                transform="translate(748.486 -1185.231)" fill="#5bb3b3" />
            <path
                d="M264.066,212.717l-.333,0c-1.366-.022-2.628-.177-2.681-.183a1,1,0,1,1,.245-1.985c.02,0,1.059.129,2.211.162a10.946,10.946,0,0,0,1.973-.08,12.016,12.016,0,0,0-1.618-1.083c-.981-.57-1.9-1.006-1.909-1.011a1,1,0,1,1,.856-1.808c.044.021,1.085.515,2.186,1.164,2.205,1.3,2.662,2.056,2.814,2.57a1.415,1.415,0,0,1-.145,1.161C267.194,212.384,266.11,212.717,264.066,212.717Z"
                transform="translate(562.338 -1367.627)" fill="#5bb3b3" />
            <path
                d="M0,4.47a1,1,0,0,1-.269-.037A1,1,0,0,1-.963,3.2L0-.268a1,1,0,0,1,1.232-.7,1,1,0,0,1,.7,1.232L.963,3.738A1,1,0,0,1,0,4.47Z"
                transform="translate(824.451 -1159.544)" fill="#5bb3b3" />
        </g>
        <g transform="translate(-305.221 148.756) rotate(1)">
            <path
                d="M334.387-1620.029l1.352-1.673,38.145-18.978h2.437l45.016,88.508-1.006,2.513-38.654,20.287h-2.758l-44.533-88.323Z"
                transform="translate(-34.938 1672.98)" fill="#bfe2e2" />
            <g transform="matrix(0.891, -0.454, 0.454, 0.891, 286.826, 49.111)">
                <g transform="translate(0 0)" clip-path="url(#a)">
                    <path
                        d="M6-1H55.459a7.008,7.008,0,0,1,7,7V110.776a7.008,7.008,0,0,1-7,7H6a7.008,7.008,0,0,1-7-7V6A7.008,7.008,0,0,1,6-1ZM55.459,115.776a5.006,5.006,0,0,0,5-5V6a5.006,5.006,0,0,0-5-5H6A5.006,5.006,0,0,0,1,6V110.776a5.006,5.006,0,0,0,5,5Z"
                        transform="translate(1.483 1.483)" fill="#70b1b1" />
                    <path
                        d="M3-1H44.642a4,4,0,0,1,4,4v97.183a4,4,0,0,1-4,4H3a4,4,0,0,1-4-4V3A4,4,0,0,1,3-1ZM44.642,102.183a2,2,0,0,0,2-2V3a2,2,0,0,0-2-2H3A2,2,0,0,0,1,3v97.183a2,2,0,0,0,2,2Z"
                        transform="translate(8.391 8.28)" fill="#70b1b1" />
                    <path
                        d="M23.848,8.265H6.057A7.065,7.065,0,0,1-1,1.208V.071a1,1,0,0,1,1-1,1,1,0,0,1,1,1V1.208A5.062,5.062,0,0,0,6.057,6.265H23.848a5.062,5.062,0,0,0,5.057-5.057V0a1,1,0,0,1,1-1,1,1,0,0,1,1,1V1.208A7.065,7.065,0,0,1,23.848,8.265Z"
                        transform="translate(17.26 8.385)" fill="#70b1b1" />
                </g>
            </g>
        </g>
        <path
            d="M9.852-1A10.852,10.852,0,0,1,20.7,9.852,10.852,10.852,0,0,1,9.852,20.7,10.852,10.852,0,0,1-1,9.852,10.852,10.852,0,0,1,9.852-1Zm0,19.7A8.852,8.852,0,1,0,1,9.852,8.862,8.862,0,0,0,9.852,18.7Z"
            transform="translate(350.63 247.63)" fill="#5bb3b3" />
        <path
            d="M9.852-1A10.852,10.852,0,0,1,20.7,9.852,10.852,10.852,0,0,1,9.852,20.7,10.852,10.852,0,0,1-1,9.852,10.852,10.852,0,0,1,9.852-1Zm0,19.7A8.852,8.852,0,1,0,1,9.852,8.862,8.862,0,0,0,9.852,18.7Z"
            transform="translate(368.54 284.538)" fill="#5bb3b3" />
        <path
            d="M9.852-1A10.852,10.852,0,0,1,20.7,9.852,10.852,10.852,0,0,1,9.852,20.7,10.852,10.852,0,0,1-1,9.852,10.852,10.852,0,0,1,9.852-1Zm0,19.7A8.852,8.852,0,1,0,1,9.852,8.862,8.862,0,0,0,9.852,18.7Z"
            transform="translate(333.902 267.051)" fill="#5bb3b3" />
        <path
            d="M101.448,85.618q-.329,0-.661-.02a10.78,10.78,0,0,1-7.47-3.63,1,1,0,0,1,1.5-1.327A8.852,8.852,0,0,0,108.055,68.89a1,1,0,1,1,1.5-1.327,10.853,10.853,0,0,1-8.1,18.055Z"
            transform="translate(248.816 210.464)" fill="#5bb3b3" />
        <g transform="translate(-49.676 -17.047)">
            <path
                d="M89.969,1H0A1,1,0,0,1-1,0,1,1,0,0,1,0-1H89.969a1,1,0,0,1,1,1A1,1,0,0,1,89.969,1Z"
                transform="translate(-9.022 48.081)" fill="#5bb3b3" />
            <path
                d="M91.735,68.564H1.766a1,1,0,0,1,0-2H90.735V18.851H1.766a1,1,0,0,1,0-2H91.735a1,1,0,0,1,1,1V67.564A1,1,0,0,1,91.735,68.564Z"
                transform="translate(-10.788 19.536)" fill="#5bb3b3" />
            <path
                d="M89.969,1H0A1,1,0,0,1-1,0,1,1,0,0,1,0-1H89.969a1,1,0,0,1,1,1A1,1,0,0,1,89.969,1Z"
                transform="translate(-9.022 57.619)" fill="#5bb3b3" />
            <path
                d="M89.969,1H0A1,1,0,0,1-1,0,1,1,0,0,1,0-1H89.969a1,1,0,0,1,1,1A1,1,0,0,1,89.969,1Z"
                transform="translate(-9.022 67.446)" fill="#5bb3b3" />
            <path
                d="M89.969,1H0A1,1,0,0,1-1,0,1,1,0,0,1,0-1H89.969a1,1,0,0,1,1,1A1,1,0,0,1,89.969,1Z"
                transform="translate(-9.022 76.984)" fill="#5bb3b3" />
            <path
                d="M0,48.013a1,1,0,0,1-1-1V0A1,1,0,0,1,0-1,1,1,0,0,1,1,0V47.013A1,1,0,0,1,0,48.013Z"
                transform="translate(5.5 39.22)" fill="#5bb3b3" />
            <path
                d="M0,48.013a1,1,0,0,1-1-1V0A1,1,0,0,1,0-1,1,1,0,0,1,1,0V47.013A1,1,0,0,1,0,48.013Z"
                transform="translate(20.5 39.22)" fill="#5bb3b3" />
            <path
                d="M0,48.013a1,1,0,0,1-1-1V0A1,1,0,0,1,0-1,1,1,0,0,1,1,0V47.013A1,1,0,0,1,0,48.013Z"
                transform="translate(35.5 39.22)" fill="#5bb3b3" />
            <path
                d="M0,48.013a1,1,0,0,1-1-1V0A1,1,0,0,1,0-1,1,1,0,0,1,1,0V47.013A1,1,0,0,1,0,48.013Z"
                transform="translate(50.5 39.22)" fill="#5bb3b3" />
            <path
                d="M0,48.013a1,1,0,0,1-1-1V0A1,1,0,0,1,0-1,1,1,0,0,1,1,0V47.013A1,1,0,0,1,0,48.013Z"
                transform="translate(65.5 39.22)" fill="#5bb3b3" />
            <path
                d="M105.257,121.994H1.652a1,1,0,0,1,0-2h103.6a13.264,13.264,0,0,0,8.385-2.83,8.49,8.49,0,0,0,3.382-6.568V18.036a8.49,8.49,0,0,0-3.382-6.568,13.264,13.264,0,0,0-8.385-2.83H1a1,1,0,1,1,0-2H105.257c7.591,0,13.767,5.113,13.767,11.4V110.6C119.024,116.881,112.848,121.994,105.257,121.994Z"
                transform="translate(-11 18.188)" fill="#5bb3b3" />
            <path
                d="M15.088,102.895H1.919a1,1,0,1,1,0-2h12.17V75.531H1.919a1,1,0,1,1,0-2h13.17a1,1,0,0,1,1,1v27.363A1,1,0,0,1,15.088,102.895Z"
                transform="translate(-10.746 27.02)" fill="#5bb3b3" />
        </g>
    </g>
</svg>