<svg xmlns="http://www.w3.org/2000/svg" xmlns:xlink="http://www.w3.org/1999/xlink" width="400"
    height="320" viewBox="0 0 400 320">
    <defs>
        <clipPath>
            <rect width="400" height="320" />
        </clipPath>
    </defs>
    <g clip-path="url(#b)">
        <path
            d="M111.426,113.566c-22.835,0-55.741-.476-110.44-1.268a1,1,0,0,1,.029-2c54.672.791,87.565,1.267,110.378,1.267,34.435,0,45.914-1.084,74.739-3.8l.13-.012c13.4-1.264,29.138-3.3,47.359-5.647,23.236-3,49.572-6.4,77.6-9.008,30.705-2.86,58.009-4.257,83.295-4.257,1.406,0,2.8,0,4.2.013a1,1,0,0,1-.006,2h-.006c-1.387-.009-2.785-.013-4.184-.013-25.226,0-52.463,1.393-83.109,4.248-27.988,2.607-54.305,6-77.525,9-18.24,2.354-33.992,4.387-47.427,5.654l-.13.012C157.424,112.479,145.911,113.566,111.426,113.566Z"
            transform="translate(0 103.219)" fill="#5bb3b3" />
        <path
            d="M85.167,94.987c-17.96,0-39.29-1.059-83.851-3.271L.95,91.7a1,1,0,1,1,.1-2l.366.018c85.366,4.238,85.366,4.238,139.944.667,12.231-.8,27.936-3.085,48.013-6.984,17.9-3.477,37.477-7.874,56.406-12.126,18.79-4.221,38.22-8.585,55.758-11.985,19.673-3.814,34.929-6,46.639-6.692l52.085-3.064a1,1,0,0,1,.117,2l-52.085,3.064c-11.621.684-26.79,2.862-46.376,6.659-17.509,3.395-36.924,7.756-55.7,11.973-18.943,4.255-38.53,8.655-56.463,12.138-20.161,3.916-35.948,6.211-48.263,7.016C115.309,94.094,101.659,94.987,85.167,94.987Z"
            transform="translate(0 103.219)" fill="#5bb3b3" />
        <path
            d="M125.806,85.866c-.909,0-1.837,0-2.794-.008C101.422,85.732,65.737,84.1.954,81.148a1,1,0,1,1,.091-2C65.8,82.1,101.474,83.732,123.024,83.858c21.265.124,30.158-1.147,47.877-3.678,14.629-2.09,32.428-10.428,53.038-20.082,14.377-6.735,30.672-14.368,47.919-20.725,19.8-7.3,37.9-11.823,55.325-13.834,65.685-7.578,72.862-7.666,73.136-7.666a1,1,0,0,1,0,2c-.282,0-7.747.135-72.906,7.652-17.268,1.993-35.214,6.482-54.863,13.724-17.167,6.328-33.421,13.942-47.762,20.66-20.755,9.723-38.679,18.119-53.6,20.251C154.164,84.592,145.238,85.866,125.806,85.866Z"
            transform="translate(0 103.219)" fill="#5bb3b3" />
        <path
            d="M109.577,60.756q-1.956,0-3.966-.033c-31.939-.528-58.443-2.028-75.053-3.194-18-1.263-28.594-2.418-28.7-2.429a1,1,0,0,1,.218-1.988c.1.012,10.667,1.162,28.635,2.423C47.295,56.7,73.755,58.2,105.644,58.723a185.067,185.067,0,0,0,27.277-1.386,125.763,125.763,0,0,0,20.973-4.506c12.382-3.823,21.858-8.962,31.89-14.4,13.445-7.292,27.348-14.832,48.845-19.006,12.031-2.336,28.2-4.408,48.062-6.158,15.875-1.4,34.134-2.6,54.271-3.561,34.28-1.641,62.5-2.04,62.779-2.044a1,1,0,1,1,.027,2c-.281,0-28.47.4-62.717,2.042-20.109.963-38.341,2.159-54.188,3.556C263.072,17,246.972,19.063,235.01,21.386a134.19,134.19,0,0,0-27.031,8.2c-7.742,3.275-14.6,7-21.242,10.6-4.845,2.628-9.856,5.345-15.106,7.826a128.675,128.675,0,0,1-17.147,6.729,127.74,127.74,0,0,1-21.3,4.578A180.662,180.662,0,0,1,109.577,60.756Z"
            transform="translate(0 103.219)" fill="#5bb3b3" />
        <path
            d="M120.15,47.048q-6.871,0-15.329-.336c-12.808-.509-28.331-1.595-46.137-3.227C28.379,40.707,1.6,37.26,1.329,37.226a1,1,0,0,1,.256-1.984c.267.034,27.018,3.477,57.288,6.252,17.771,1.629,33.257,2.712,46.03,3.22,15.921.633,27.622.368,34.777-.786,14.523-2.343,21.789-8.267,29.482-14.538,4.424-3.607,9-7.336,15.114-10.5A61.569,61.569,0,0,1,194.8,14.646a84.915,84.915,0,0,1,13.852-2.893c8.989-1.168,24.657-2.512,46.569-4,17.518-1.186,39.049-2.464,64-3.8C361.683,1.687,399.841.018,400.221,0a1,1,0,0,1,.087,2c-.38.017-38.53,1.686-80.992,3.957-56.18,3.005-94.36,5.7-110.412,7.781-20.671,2.684-29.724,10.065-38.479,17.2a85.269,85.269,0,0,1-12.477,8.943A49.3,49.3,0,0,1,150,43.435,59.04,59.04,0,0,1,140,45.9,132.431,132.431,0,0,1,120.15,47.048Z"
            transform="translate(0 103.219)" fill="#5bb3b3" />
        <path d="M0-5.49,173.118-9.657H400V50.781H0Z" transform="translate(0 250)" fill="#bfe2e2" />
        <g transform="translate(-11.524 11.039)">
            <path d="M-2152.305,1090.663l9.166-23.511h44.293l10.959,23.309Z"
                transform="translate(2354.6 -945.552)" fill="#96b7df" />
            <rect width="2.856" height="26.661"
                transform="matrix(0.875, -0.485, 0.485, 0.875, 252.668, 122.269)" fill="#313e58" />
            <path
                d="M2387.834-897.129c-15.485,0-25.808-3.992-25.808-3.992H2351.35c-.939-.865,7.687-7.021,10.134-6.564.417-2.071,2.235-4.759,4.991-4.759,0-2.628,4.991-4.76,4.991-4.76s3.082.747,3.993,1.9l1.408-.936.007-.015a8.707,8.707,0,0,1-.416-1.9s2.234-4.759,4.991-4.759c0-2.629,4.991-4.76,4.991-4.76s4.992,2.13,4.992,4.76c.143,0,.284.005.423.016a4.547,4.547,0,0,1-.423-1.921,4.879,4.879,0,0,1,4.991-4.759,5.11,5.11,0,0,1,3.337,1.219,5.219,5.219,0,0,1,1.655-.267c0-2.628,4.991-4.76,4.991-4.76s2.717.572,3.627,1.489a4.973,4.973,0,0,1,3.184-2.308,5.022,5.022,0,0,1,1.211-.7c.3-2.359,4.956-4.188,4.956-4.188s4.991,2.13,4.991,4.759q.215,0,.423.016a4.568,4.568,0,0,1-.423-1.92,4.882,4.882,0,0,1,3.573-4.565,11.162,11.162,0,0,1,1.418-.2s3.817,1.182,4.583,2.872c.135-.01.408-.015.408-.015s4.992,2.13,4.992,4.759c0,.131-.006.26-.017.389.081.033.16.069.239.105.63-1.94,4.769-3.35,4.769-3.35s4.991,2.131,4.991,4.76a5.213,5.213,0,0,1,1.655.267,9.836,9.836,0,0,1,3.337-1.22s4.991,2.131,4.991,4.76a5.062,5.062,0,0,1,4.058,1.987,5.247,5.247,0,0,1,.934-.083,4.88,4.88,0,0,1,4.991,4.76,4.554,4.554,0,0,1-.423,1.92c.14-.011.281-.016.423-.016,0-2.628,4.992-4.76,4.992-4.76s4.991,2.131,4.991,4.76c2.757,0,4.992,4.76,4.992,4.76s-2.235,4.759-4.992,4.759a5.2,5.2,0,0,1-1.661-.27,33.387,33.387,0,0,1-3.95,2.115s-16.2,10.614-20.447,10.614Z"
                transform="translate(-2255.988 1029)" fill="#313e58" />
            <path
                d="M-2261.376,1113.693l9.2,22.715,9.242,14.609h168.85a2.189,2.189,0,0,0,1.622-2.121c.087-1.794,0-31.378,0-31.378h-71.356v-29.663h-22.842Z"
                transform="translate(2359.851 -943.695)" fill="#7a8293" />
            <rect width="53" height="33" rx="2" transform="translate(214.524 143.961)"
                fill="#ffd964" />
            <g transform="translate(85.843 178.925)">
                <circle cx="34.5" cy="34.5" r="34.5" transform="translate(-0.319 0.036)"
                    fill="#313e58" />
                <ellipse cx="18.529" cy="18" rx="18.529" ry="18"
                    transform="translate(15.681 17.036)" fill="#ffd964" />
                <circle cx="12.5" cy="12.5" r="12.5" transform="translate(21.681 22.036)"
                    fill="#edc95a" />
                <path
                    d="M12.5,0A12.5,12.5,0,1,0,25,12.5,12.5,12.5,0,0,0,12.5,0m0-2A14.5,14.5,0,0,1,27,12.5,14.5,14.5,0,0,1,12.5,27,14.5,14.5,0,0,1-2,12.5,14.5,14.5,0,0,1,12.5-2Z"
                    transform="translate(21.681 22.036)" fill="#7a8293" />
                <circle cx="4" cy="4" r="4" transform="translate(30.681 31.036)" fill="#313e58" />
            </g>
            <g transform="translate(209.843 178.925)">
                <circle cx="34.5" cy="34.5" r="34.5" transform="translate(-0.319 0.036)"
                    fill="#313e58" />
                <ellipse cx="18.529" cy="18" rx="18.529" ry="18"
                    transform="translate(15.681 17.036)" fill="#ffd964" />
                <circle cx="12.5" cy="12.5" r="12.5" transform="translate(21.681 22.036)"
                    fill="#edc95a" />
                <path
                    d="M12.5,0A12.5,12.5,0,1,0,25,12.5,12.5,12.5,0,0,0,12.5,0m0-2A14.5,14.5,0,0,1,27,12.5,14.5,14.5,0,0,1,12.5,27,14.5,14.5,0,0,1-2,12.5,14.5,14.5,0,0,1,12.5-2Z"
                    transform="translate(21.681 22.036)" fill="#7a8293" />
                <circle cx="4" cy="4" r="4" transform="translate(30.681 31.036)" fill="#313e58" />
            </g>
            <path
                d="M1.9,0H40.93a1.9,1.9,0,0,1,1.9,1.9L38.074,36.17c0,1.051-1.8,1.9-2.856,1.9H8.567c-1.051,0-3.807-.852-3.807-1.9L0,1.9A1.9,1.9,0,0,1,1.9,0Z"
                transform="translate(166.415 188.896)" fill="#edc95a" />
            <rect width="83" height="13" rx="2" transform="translate(214.524 163.961)"
                fill="#ffd964" />
            <rect width="2" height="85" transform="translate(213.524 124.961) rotate(-90)"
                fill="#313e58" />
            <path
                d="M2471.463-866.279v-3.332h-9.518v3.332a1.428,1.428,0,0,1-1.428,1.427,1.427,1.427,0,0,1-1.427-1.427v-53.78h-82.812v-2.855h51.4v-15.23H2362V-941h99.945v0l.081,0h10.47a1.45,1.45,0,0,1,.2.014,1.44,1.44,0,0,1,.2-.014,1.428,1.428,0,0,1,1.427,1.428v73.293a1.427,1.427,0,0,1-1.427,1.427A1.428,1.428,0,0,1,2471.463-866.279Zm0-6.188v-4.759h-9.518v4.759Zm0-7.614v-4.76h-9.518v4.76Zm0-7.615v-4.76h-9.518v4.76Zm0-7.615v-4.76h-9.518v4.76Zm0-7.615v-4.76h-9.518v4.76Zm0-7.615v-4.76h-9.518v4.76Zm0-7.615v-4.759h-9.518v4.759Zm-12.373-4.759v-15.23h-12.375v15.23Zm-15.23,0v-15.23h-13.326v15.23Zm27.6-2.856v-4.759h-9.518v4.759Zm0-7.615v-4.759h-9.437l-.081,0v4.761Z"
                transform="translate(-2162.271 1085.159)" fill="#313e58" />
            <g transform="translate(56 115.646)">
                <path
                    d="M-2306.436,1112.338v-14.827l28.568-24.055h119.291l6.748-9.851h87.173a1.155,1.155,0,0,1,.964,1.295v6.378l-83.127.123-24.082,64.373Z"
                    transform="translate(2306.436 -1063.605)" fill="#ffd964" />
                <path d="M-2162.629,1081.2l-15.849,40.155-115.209-17.888v-6.937l20.679-16.437Z"
                    transform="translate(2305.822 -1062.381)" fill="#edc95a" />
                <rect width="131.355" height="3.807" transform="translate(11.837 34.224)"
                    fill="#ffd964" />
            </g>
        </g>
        <g transform="translate(-275.985 18.46)">
            <path
                d="M83.287,10.878a18.184,18.184,0,1,1-7.1,1.434A18.122,18.122,0,0,1,83.287,10.878Zm0,34.477A16.238,16.238,0,1,0,71.8,40.6,16.13,16.13,0,0,0,83.287,45.355Z"
                transform="translate(242.124 9.234)" fill="#5bb3b3" />
            <path d="M0,8.809a1,1,0,0,1-1-1V0A1,1,0,0,1,0-1,1,1,0,0,1,1,0V7.809A1,1,0,0,1,0,8.809Z"
                transform="translate(324.147 9.042)" fill="#5bb3b3" />
            <path d="M0,8.809a1,1,0,0,1-1-1V0A1,1,0,0,1,0-1,1,1,0,0,1,1,0V7.809A1,1,0,0,1,0,8.809Z"
                transform="translate(325.411 60.746)" fill="#5bb3b3" />
            <path
                d="M0,6.521a1,1,0,0,1-.707-.293,1,1,0,0,1,0-1.414L4.814-.707a1,1,0,0,1,1.414,0,1,1,0,0,1,0,1.414L.707,6.229A1,1,0,0,1,0,6.521Z"
                transform="translate(340.683 17.765)" fill="#5bb3b3" />
            <path
                d="M0,6.521a1,1,0,0,1-.707-.293,1,1,0,0,1,0-1.414L4.814-.707a1,1,0,0,1,1.414,0,1,1,0,0,1,0,1.414L.707,6.229A1,1,0,0,1,0,6.521Z"
                transform="translate(304.353 54.31)" fill="#5bb3b3" />
            <path
                d="M0,1.027a1,1,0,0,1-1-1,1,1,0,0,1,1-1L7.805-1a1,1,0,0,1,1,1,1,1,0,0,1-1,1L0,1.027Z"
                transform="translate(295.366 38.9)" fill="#5bb3b3" />
            <path
                d="M0,1.027a1,1,0,0,1-1-1,1,1,0,0,1,1-1L7.805-1a1,1,0,0,1,1,1,1,1,0,0,1-1,1L0,1.027Z"
                transform="translate(347.119 38.72)" fill="#5bb3b3" />
            <path
                d="M5.54,6.5a1,1,0,0,1-.7-.29L-.7.71A1,1,0,0,1-.71-.7,1,1,0,0,1,.7-.71l5.54,5.5a1,1,0,0,1-.7,1.71Z"
                transform="translate(304.016 17.838)" fill="#5bb3b3" />
            <path
                d="M5.54,6.5a1,1,0,0,1-.7-.29L-.7.71A1,1,0,0,1-.71-.7,1,1,0,0,1,.7-.71l5.54,5.5a1,1,0,0,1-.7,1.71Z"
                transform="translate(341.001 54.256)" fill="#5bb3b3" />
            <path
                d="M2.958,8.227a1,1,0,0,1-.926-.621L-.925.379a1,1,0,0,1,.547-1.3,1,1,0,0,1,1.3.547L3.883,6.848a1,1,0,0,1-.925,1.379Z"
                transform="translate(312.868 11.261)" fill="#5bb3b3" />
            <path
                d="M0,8.2a1,1,0,0,1-.386-.078A1,1,0,0,1-.922,6.815L2.1-.387A1,1,0,0,1,3.406-.922,1,1,0,0,1,3.941.387L.922,7.588A1,1,0,0,1,0,8.2Z"
                transform="translate(332.642 11.358)" fill="#5bb3b3" />
            <path
                d="M0,8.2a1,1,0,0,1-.386-.078A1,1,0,0,1-.922,6.815L2.1-.387A1,1,0,0,1,3.406-.922,1,1,0,0,1,3.941.387L.922,7.588A1,1,0,0,1,0,8.2Z"
                transform="translate(313.897 59.038)" fill="#5bb3b3" />
            <path
                d="M0,3.983a1,1,0,0,1-.925-.618A1,1,0,0,1-.382,2.058L6.834-.924A1,1,0,0,1,8.14-.382,1,1,0,0,1,7.6.924L.382,3.907A1,1,0,0,1,0,3.983Z"
                transform="translate(297.888 47.166)" fill="#5bb3b3" />
            <path
                d="M0,3.983a1,1,0,0,1-.925-.618A1,1,0,0,1-.382,2.058L6.834-.924A1,1,0,0,1,8.14-.382,1,1,0,0,1,7.6.924L.382,3.907A1,1,0,0,1,0,3.983Z"
                transform="translate(345.453 27.448)" fill="#5bb3b3" />
            <path
                d="M7.211,3.994a1,1,0,0,1-.383-.077L-.383.924A1,1,0,0,1-.924-.383,1,1,0,0,1,.383-.924L7.595,2.07a1,1,0,0,1-.384,1.924Z"
                transform="translate(297.642 27.405)" fill="#5bb3b3" />
            <path
                d="M7.211,3.994a1,1,0,0,1-.383-.077L-.383.924A1,1,0,0,1-.924-.383,1,1,0,0,1,.383-.924L7.595,2.07a1,1,0,0,1-.384,1.924Z"
                transform="translate(345.705 47.198)" fill="#5bb3b3" />
        </g>
        <path
            d="M963.647,2640.172a24.568,24.568,0,0,0-9.857,4.7,18.634,18.634,0,0,0-8.472-.045,19.379,19.379,0,0,0-11.994,8.391,13.611,13.611,0,0,0-6.946-.225c-7.273,1.638-12.026,8.663-10.617,15.689a12.875,12.875,0,0,0,15.721,9.758,14.145,14.145,0,0,0,3.941-1.534,18.446,18.446,0,0,0,17.352,5.1,19.258,19.258,0,0,0,1.915-.536,23.352,23.352,0,0,0,17.851,3.045,24.525,24.525,0,0,0,12.811-7.459,13.391,13.391,0,0,0,10.409,1.855c7.272-1.639,12.026-8.663,10.616-15.69a12.873,12.873,0,0,0-15.72-9.757q-.328.073-.649.162a22.319,22.319,0,0,0-21.015-14.049A24.314,24.314,0,0,0,963.647,2640.172Z"
            transform="translate(-622.796 -2627.852)" fill="#c0e1e2" />
        <path
            d="M968.993,2639.073h0a23.474,23.474,0,0,1,13.065,3.914,22.06,22.06,0,0,1,8.252,10.041l.238-.055a14.483,14.483,0,0,1,3.177-.356,13.727,13.727,0,0,1,8.465,2.9,12.842,12.842,0,0,1,4.677,7.606,13.453,13.453,0,0,1-2.128,10.244,14.606,14.606,0,0,1-12.046,6.388,13.7,13.7,0,0,1-7.258-2.051,25.1,25.1,0,0,1-18.239,7.911,23.518,23.518,0,0,1-12.573-3.6c-.571.184-1.154.344-1.736.475a19.452,19.452,0,0,1-4.269.478,18.9,18.9,0,0,1-13.281-5.444,14.655,14.655,0,0,1-3.743,1.4,14.488,14.488,0,0,1-3.177.356,13.731,13.731,0,0,1-8.466-2.9,12.844,12.844,0,0,1-4.678-7.606,13.452,13.452,0,0,1,2.129-10.244,14.61,14.61,0,0,1,12.048-6.388,13.922,13.922,0,0,1,3.663.488,20.013,20.013,0,0,1,5.008-5.133,19.66,19.66,0,0,1,11.358-3.641,18.973,18.973,0,0,1,4.194.469,25.128,25.128,0,0,1,15.323-5.255Zm20.711,15.151-.163-.422a21.057,21.057,0,0,0-8.038-9.983,22.477,22.477,0,0,0-12.51-3.746,24.127,24.127,0,0,0-14.893,5.189l-.191.151-.236-.057a17.971,17.971,0,0,0-4.2-.5,18.66,18.66,0,0,0-10.779,3.456,19.037,19.037,0,0,0-4.954,5.172l-.2.315-.359-.108a12.892,12.892,0,0,0-3.732-.548,13.485,13.485,0,0,0-2.959.332c-7,1.576-11.591,8.352-10.237,15.1a11.843,11.843,0,0,0,4.316,7.017,12.726,12.726,0,0,0,7.848,2.683,13.493,13.493,0,0,0,2.957-.332,13.639,13.639,0,0,0,3.8-1.479l.337-.193.271.278a17.9,17.9,0,0,0,12.835,5.414,18.446,18.446,0,0,0,4.049-.454,18.839,18.839,0,0,0,1.865-.522l.228-.077.2.131a22.51,22.51,0,0,0,12.234,3.565,24.1,24.1,0,0,0,17.786-7.894l.289-.319.359.239a12.684,12.684,0,0,0,7.064,2.115,13.471,13.471,0,0,0,2.958-.332c7-1.577,11.59-8.353,10.236-15.1a11.84,11.84,0,0,0-4.315-7.017,12.722,12.722,0,0,0-7.846-2.683,13.487,13.487,0,0,0-2.958.332c-.206.046-.417.1-.626.156Z"
            transform="translate(-622.796 -2627.852)" fill="rgba(0,0,0,0)" />
        <path
            d="M992.022,2640.617a37.7,37.7,0,0,0-15.668,8.186,27.09,27.09,0,0,0-13.466-.078,31.01,31.01,0,0,0-19.064,14.622,19.8,19.8,0,0,0-11.041-.392c-11.56,2.855-19.116,15.1-16.876,27.34s13.428,19.858,24.989,17a21.353,21.353,0,0,0,6.265-2.673,27.687,27.687,0,0,0,27.581,8.885,28.542,28.542,0,0,0,3.043-.934,34.409,34.409,0,0,0,28.374,5.306,38.407,38.407,0,0,0,20.363-13,19.752,19.752,0,0,0,16.546,3.233c11.559-2.856,19.115-15.1,16.874-27.342s-13.428-19.858-24.987-17q-.521.128-1.031.282c-5.219-14.847-18.518-24.48-33.4-24.482A35.4,35.4,0,0,0,992.022,2640.617Z"
            transform="matrix(1, 0.017, -0.017, 1, -784.979, -2699.083)" fill="#c0e1e2" />
        <path
            d="M1000.52,2639.072h0a34.631,34.631,0,0,1,10.922,1.764,35.245,35.245,0,0,1,9.7,5.007,37.572,37.572,0,0,1,13.094,17.6c.2-.055.4-.108.6-.157a20.866,20.866,0,0,1,5-.614,20.056,20.056,0,0,1,7.132,1.305,20.556,20.556,0,0,1,6.158,3.678,21.6,21.6,0,0,1,4.662,5.689,23.255,23.255,0,0,1,2.649,7.34,24.612,24.612,0,0,1-.067,9.223,24.983,24.983,0,0,1-3.261,8.322,23.865,23.865,0,0,1-5.908,6.531,21.918,21.918,0,0,1-8.01,3.842,20.858,20.858,0,0,1-5,.615,20.138,20.138,0,0,1-11.583-3.656,40.248,40.248,0,0,1-8.888,7.847,37.677,37.677,0,0,1-11.442,4.96,35.993,35.993,0,0,1-8.617,1.059,34.756,34.756,0,0,1-19.951-6.292,29.045,29.045,0,0,1-2.849.861,28.1,28.1,0,0,1-6.73.827,27.427,27.427,0,0,1-11.685-2.611,29.611,29.611,0,0,1-9.378-6.942,21.818,21.818,0,0,1-6.052,2.514,20.862,20.862,0,0,1-5,.614,20.063,20.063,0,0,1-7.133-1.306,20.557,20.557,0,0,1-6.159-3.678,21.594,21.594,0,0,1-4.663-5.69,23.259,23.259,0,0,1-2.65-7.34,24.609,24.609,0,0,1,.068-9.223,24.974,24.974,0,0,1,3.262-8.321,23.859,23.859,0,0,1,5.908-6.531,21.915,21.915,0,0,1,8.011-3.841,20.861,20.861,0,0,1,5-.615,20.06,20.06,0,0,1,5.937.9,33.327,33.327,0,0,1,8-9.047,29.67,29.67,0,0,1,11.171-5.464,28.137,28.137,0,0,1,6.73-.826,27.4,27.4,0,0,1,6.728.84,39.129,39.129,0,0,1,7.183-4.886,37.557,37.557,0,0,1,8.493-3.235A35.988,35.988,0,0,1,1000.52,2639.072Zm33.09,25.6-.158-.451a36.622,36.622,0,0,0-12.9-17.57,34.246,34.246,0,0,0-9.424-4.865,33.638,33.638,0,0,0-10.608-1.713,35,35,0,0,0-8.377,1.031,36.568,36.568,0,0,0-8.267,3.149,38.174,38.174,0,0,0-7.194,4.929l-.2.173-.255-.067a26.408,26.408,0,0,0-6.729-.873,27.144,27.144,0,0,0-6.49.8,28.677,28.677,0,0,0-10.8,5.282,32.406,32.406,0,0,0-7.958,9.11l-.205.346-.382-.126a19.068,19.068,0,0,0-6-.967,19.856,19.856,0,0,0-4.759.586,20.924,20.924,0,0,0-7.647,3.668,22.861,22.861,0,0,0-5.66,6.259,23.98,23.98,0,0,0-3.132,7.989,23.616,23.616,0,0,0-.065,8.849,22.258,22.258,0,0,0,2.535,7.025,20.6,20.6,0,0,0,4.447,5.427,19.563,19.563,0,0,0,5.86,3.5,19.064,19.064,0,0,0,6.779,1.241,19.869,19.869,0,0,0,4.756-.585,20.853,20.853,0,0,0,6.118-2.611l.359-.226.282.317a28.673,28.673,0,0,0,9.335,7.012,26.433,26.433,0,0,0,11.262,2.517,27.11,27.11,0,0,0,6.491-.8,28.189,28.189,0,0,0,2.99-.918l.247-.091.215.152a33.774,33.774,0,0,0,19.588,6.259,34.989,34.989,0,0,0,8.377-1.03,36.687,36.687,0,0,0,11.139-4.83,39.305,39.305,0,0,0,8.958-8l.3-.363.38.278a19.164,19.164,0,0,0,11.374,3.736,19.865,19.865,0,0,0,4.756-.585,20.922,20.922,0,0,0,7.646-3.668,22.864,22.864,0,0,0,5.66-6.259,23.981,23.981,0,0,0,3.131-7.99,23.614,23.614,0,0,0,.065-8.85,22.259,22.259,0,0,0-2.535-7.025,20.594,20.594,0,0,0-4.446-5.427,19.557,19.557,0,0,0-5.859-3.5,19.064,19.064,0,0,0-6.778-1.24,19.869,19.869,0,0,0-4.757.585c-.335.083-.674.175-1.007.275Z"
            transform="matrix(1, 0.017, -0.017, 1, -784.979, -2699.083)" fill="rgba(0,0,0,0)" />
        <path
            d="M946.214,2640a17.553,17.553,0,0,1,7.042,3.356,13.314,13.314,0,0,1,6.052-.032,13.844,13.844,0,0,1,8.568,5.994,9.881,9.881,0,0,1,12.546,11.047,9.2,9.2,0,0,1-11.23,6.971,10.108,10.108,0,0,1-2.815-1.1,13.177,13.177,0,0,1-12.4,3.642,13.756,13.756,0,0,1-1.368-.383,16.682,16.682,0,0,1-12.752,2.175,17.52,17.52,0,0,1-9.151-5.329,9.566,9.566,0,0,1-7.436,1.325,9.736,9.736,0,0,1-7.584-11.208,9.2,9.2,0,0,1,11.23-6.97c.156.035.311.074.463.115a15.944,15.944,0,0,1,15.012-10.036A17.382,17.382,0,0,1,946.214,2640Z"
            transform="translate(-673.056 -2585.088)" fill="#c0e1e2" />
        <path
            d="M942.395,2639.073h0a18.091,18.091,0,0,1,10.98,3.743,13.707,13.707,0,0,1,2.962-.324,14.053,14.053,0,0,1,3.08.344,14.279,14.279,0,0,1,8.672,5.9,10.085,10.085,0,0,1,2.555-.327,10.58,10.58,0,0,1,8.725,4.626,9.752,9.752,0,0,1,1.543,7.426,9.377,9.377,0,0,1-3.393,5.518,9.952,9.952,0,0,1-6.136,2.1,10.49,10.49,0,0,1-2.3-.258,10.621,10.621,0,0,1-2.618-.964,13.647,13.647,0,0,1-9.512,3.856,14.042,14.042,0,0,1-3.081-.345c-.4-.09-.8-.2-1.189-.322a16.945,16.945,0,0,1-9,2.555,18.075,18.075,0,0,1-13.054-5.612,9.932,9.932,0,0,1-5.161,1.426,10.576,10.576,0,0,1-8.723-4.626,9.751,9.751,0,0,1-1.542-7.426,9.377,9.377,0,0,1,3.393-5.517,9.95,9.95,0,0,1,6.135-2.1,10.486,10.486,0,0,1,2.3.258l.052.012a15.9,15.9,0,0,1,5.9-7.125A16.911,16.911,0,0,1,942.395,2639.073Zm10.741,4.827-.191-.151a17.09,17.09,0,0,0-10.55-3.676,15.913,15.913,0,0,0-8.858,2.652,14.9,14.9,0,0,0-5.688,7.064l-.163.422-.436-.119c-.149-.041-.3-.078-.441-.11a9.488,9.488,0,0,0-2.083-.234,8.946,8.946,0,0,0-5.517,1.886,8.263,8.263,0,0,0-3.031,4.928,9.244,9.244,0,0,0,7.2,10.622,9.488,9.488,0,0,0,2.082.234,8.918,8.918,0,0,0,4.967-1.487l.359-.239.289.319a17.073,17.073,0,0,0,12.6,5.593,15.937,15.937,0,0,0,8.662-2.524l.2-.131.228.077a13.324,13.324,0,0,0,1.318.369,13.037,13.037,0,0,0,2.861.321,12.647,12.647,0,0,0,9.066-3.824l.271-.278.337.193a9.6,9.6,0,0,0,2.676,1.042,9.495,9.495,0,0,0,2.081.233,8.948,8.948,0,0,0,5.518-1.886,8.264,8.264,0,0,0,3.031-4.929,9.244,9.244,0,0,0-7.2-10.621,9.488,9.488,0,0,0-2.083-.234,9.069,9.069,0,0,0-2.625.385l-.359.108-.2-.315a13.3,13.3,0,0,0-8.259-5.779,13.059,13.059,0,0,0-2.86-.32,12.7,12.7,0,0,0-2.965.351Z"
            transform="translate(-673.056 -2585.088)" fill="rgba(0,0,0,0)" />
    </g>
</svg>