<svg xmlns="http://www.w3.org/2000/svg" xmlns:xlink="http://www.w3.org/1999/xlink" width="400" height="320" viewBox="0 0 400 320">
    <defs>
        <clipPath >
            <rect width="400" height="320" />
        </clipPath>
    </defs>
    <g clip-path="url(#b)">
        <path d="M315.915,28.275a24.3,24.3,0,0,1-9.518-1.922,24.371,24.371,0,0,1-7.772-5.24,24.379,24.379,0,0,1-7.162-17.291c0-.819.041-1.647.123-2.459a1,1,0,0,1,1.99.2c-.075.746-.113,1.506-.113,2.259a22.48,22.48,0,0,0,13.714,20.689,22.53,22.53,0,0,0,17.479,0,22.379,22.379,0,0,0,7.137-4.812,22.38,22.38,0,0,0,6.576-15.877,22.773,22.773,0,0,0-.161-2.7,1,1,0,0,1,1.986-.238,24.785,24.785,0,0,1,.175,2.941,24.479,24.479,0,0,1-14.934,22.531A24.3,24.3,0,0,1,315.915,28.275Z" transform="translate(-19)" fill="#5bb3b3" />
        <path d="M0,11.624a1,1,0,0,1-1-1V0A1,1,0,0,1,0-1,1,1,0,0,1,1,0V10.624A1,1,0,0,1,0,11.624Z" transform="translate(296.916 34.293)" fill="#5bb3b3" />
        <path d="M7.512,8.512A1,1,0,0,1,6.8,8.219L-.707.707a1,1,0,0,1,0-1.414,1,1,0,0,1,1.414,0L8.219,6.8a1,1,0,0,1-.707,1.707Z" transform="translate(318.054 25.537)" fill="#5bb3b3" />
        <path d="M10.624,1.037h0L0,1A1,1,0,0,1-1,0,1,1,0,0,1,0-1l10.624.037a1,1,0,0,1,0,2Z" transform="translate(326.809 4.502)" fill="#5bb3b3" />
        <path d="M10.624,1.037h0L0,1A1,1,0,0,1-1,0,1,1,0,0,1,0-1l10.624.037a1,1,0,0,1,0,2Z" transform="translate(256.397 4.258)" fill="#5bb3b3" />
        <path d="M0,8.486a1,1,0,0,1-.71-.3,1,1,0,0,1,0-1.414L6.833-.71a1,1,0,0,1,1.414,0,1,1,0,0,1,0,1.414L.7,8.2A1,1,0,0,1,0,8.486Z" transform="translate(268.166 25.463)" fill="#5bb3b3" />
        <path d="M0,10.832a1,1,0,0,1-.378-.075,1,1,0,0,1-.547-1.3L3.1-.379A1,1,0,0,1,4.4-.925,1,1,0,0,1,4.95.379L.925,10.211A1,1,0,0,1,0,10.832Z" transform="translate(281.569 32.065)" fill="#5bb3b3" />
        <path d="M4.107,10.8a1,1,0,0,1-.923-.614L-.922.387A1,1,0,0,1-.387-.922,1,1,0,0,1,.922-.387l4.107,9.8A1,1,0,0,1,4.107,10.8Z" transform="translate(308.473 31.968)" fill="#5bb3b3" />
        <path d="M9.818,5.058a1,1,0,0,1-.382-.076L-.382.924A1,1,0,0,1-.924-.382,1,1,0,0,1,.382-.924L10.2,3.134a1,1,0,0,1-.382,1.924Z" transform="translate(324.543 15.816)" fill="#5bb3b3" />
        <path d="M0,5.073a1,1,0,0,1-.924-.617,1,1,0,0,1,.54-1.307L9.429-.924a1,1,0,0,1,1.307.54A1,1,0,0,1,10.2.924L.383,5A1,1,0,0,1,0,5.073Z" transform="translate(259.494 15.86)" fill="#5bb3b3" />
        <g transform="translate(5.811 14.569)">
            <path d="M166.9,210.361a1,1,0,0,1-.83-.441,113.211,113.211,0,0,0-22.861-24.557A148.247,148.247,0,0,0,112,166.21a181,181,0,0,0-37.8-12.441,204.357,204.357,0,0,0-42.609-4.433A207.642,207.642,0,0,0,2.1,151.429a1,1,0,1,1-.285-1.98,209.648,209.648,0,0,1,29.771-2.113,206.362,206.362,0,0,1,43.027,4.477,183.008,183.008,0,0,1,38.22,12.58,150.247,150.247,0,0,1,31.636,19.414A115.205,115.205,0,0,1,167.731,208.8a1,1,0,0,1-.828,1.56Z" transform="translate(-19 37)" fill="#5bb3b3" />
            <path d="M154.881,247.436a1,1,0,0,1-.96-.722A99.038,99.038,0,0,0,137.4,214.222a116.35,116.35,0,0,0-27.615-25.873,133.635,133.635,0,0,0-36.229-17.1,146.258,146.258,0,0,0-42.34-6.176,148.456,148.456,0,0,0-29.143,2.87,1,1,0,0,1-.393-1.961,150.461,150.461,0,0,1,29.537-2.91,148.256,148.256,0,0,1,42.918,6.262,135.632,135.632,0,0,1,36.77,17.358,118.345,118.345,0,0,1,28.087,26.319,101.029,101.029,0,0,1,16.848,33.147,1,1,0,0,1-.961,1.278Z" transform="translate(-19 37)" fill="#5bb3b3" />
            <path d="M166.646,1H0A1,1,0,0,1-1,0,1,1,0,0,1,0-1H166.646a1,1,0,0,1,1,1A1,1,0,0,1,166.646,1Z" transform="translate(-18 248.285)" fill="#5bb3b3" />
            <path d="M183.106,247.4a1,1,0,0,1-1-1V198.917H169.13V246.4a1,1,0,0,1-2,0V197.917a1,1,0,0,1,1-1h14.976a1,1,0,0,1,1,1V246.4A1,1,0,0,1,183.106,247.4Z" transform="translate(-19 37)" fill="#5bb3b3" />
            <path d="M170.269,196.713a1,1,0,0,1-1-1v-4.407a1,1,0,0,1,1-1h10.7a1,1,0,0,1,1,1v4.319a1,1,0,0,1-2,0v-3.319h-8.7v3.407A1,1,0,0,1,170.269,196.713Z" transform="translate(-19 37)" fill="#5bb3b3" />
            <path d="M0,62.738a1,1,0,0,1-1-1V0A1,1,0,0,1,0-1,1,1,0,0,1,1,0V61.738A1,1,0,0,1,0,62.738Z" transform="translate(13.022 185.336)" fill="#5bb3b3" />
            <path d="M0,62.738a1,1,0,0,1-1-1V0A1,1,0,0,1,0-1,1,1,0,0,1,1,0V61.738A1,1,0,0,1,0,62.738Z" transform="translate(26.114 186.438)" fill="#5bb3b3" />
            <path d="M0,61.637a1,1,0,0,1-1-1V0A1,1,0,0,1,0-1,1,1,0,0,1,1,0V60.637A1,1,0,0,1,0,61.637Z" transform="translate(0.084 186.438)" fill="#5bb3b3" />
            <path d="M0,58.331a1,1,0,0,1-1-1V0A1,1,0,0,1,0-1,1,1,0,0,1,1,0V57.331A1,1,0,0,1,0,58.331Z" transform="translate(51.838 189.744)" fill="#5bb3b3" />
            <path d="M0,56.128a1,1,0,0,1-1-1V0A1,1,0,0,1,0-1,1,1,0,0,1,1,0V55.128A1,1,0,0,1,0,56.128Z" transform="translate(64.776 191.947)" fill="#5bb3b3" />
            <path d="M0,61.637a1,1,0,0,1-1-1V0A1,1,0,0,1,0-1,1,1,0,0,1,1,0V60.637A1,1,0,0,1,0,61.637Z" transform="translate(38.899 187.54)" fill="#5bb3b3" />
            <path d="M0,46.212a1,1,0,0,1-1-1V0A1,1,0,0,1,0-1,1,1,0,0,1,1,0V45.212A1,1,0,0,1,0,46.212Z" transform="translate(90.652 201.863)" fill="#5bb3b3" />
            <path d="M0,40.7a1,1,0,0,1-1-1V0A1,1,0,0,1,0-1,1,1,0,0,1,1,0V39.7A1,1,0,0,1,0,40.7Z" transform="translate(103.591 207.372)" fill="#5bb3b3" />
            <path d="M0,52.822a1,1,0,0,1-1-1V0A1,1,0,0,1,0-1,1,1,0,0,1,1,0V51.822A1,1,0,0,1,0,52.822Z" transform="translate(77.714 196.354)" fill="#5bb3b3" />
            <path d="M0,40.664a1,1,0,0,1-1-1V0A1,1,0,0,1,0-1,1,1,0,0,1,1,0V39.664A1,1,0,0,1,0,40.664Z" transform="translate(129.468 226.103)" fill="#5bb3b3" />
            <path d="M0,45.072a1,1,0,0,1-1-1V0A1,1,0,0,1,0-1,1,1,0,0,1,1,0V44.072A1,1,0,0,1,0,45.072Z" transform="translate(142.406 239.324)" fill="#5bb3b3" />
            <path d="M0,31.888a1,1,0,0,1-1-1V0A1,1,0,0,1,0-1,1,1,0,0,1,1,0V30.888A1,1,0,0,1,0,31.888Z" transform="translate(116.529 216.186)" fill="#5bb3b3" />
            <path d="M0,60.535a1,1,0,0,1-1-1V0A1,1,0,0,1,0-1,1,1,0,0,1,1,0V59.535A1,1,0,0,1,0,60.535Z" transform="translate(-12.854 187.54)" fill="#5bb3b3" />
        </g>
        <path d="M222.2,1H0A1,1,0,0,1-1,0,1,1,0,0,1,0-1H222.2a1,1,0,0,1,1,1A1,1,0,0,1,222.2,1Z" transform="translate(176.304 261.67)" fill="#5bb3b3" />
        <path d="M55.779,1H0A1,1,0,0,1-1,0,1,1,0,0,1,0-1H55.779a1,1,0,0,1,1,1A1,1,0,0,1,55.779,1Z" transform="translate(204.721 251.955)" fill="#5bb3b3" />
        <path d="M46.2,1H0A1,1,0,0,1-1,0,1,1,0,0,1,0-1H46.2a1,1,0,0,1,1,1A1,1,0,0,1,46.2,1Z" transform="translate(315.5 286.067)" fill="#5bb3b3" />
        <path d="M30.681,1H0A1,1,0,0,1-1,0,1,1,0,0,1,0-1H30.681a1,1,0,0,1,1,1A1,1,0,0,1,30.681,1Z" transform="translate(183.819 292.782)" fill="#5bb3b3" />
        <path d="M30.681,1H0A1,1,0,0,1-1,0,1,1,0,0,1,0-1H30.681a1,1,0,0,1,1,1A1,1,0,0,1,30.681,1Z" transform="translate(67.239 280.782)" fill="#5bb3b3" />
        <path d="M18.261,1H0A1,1,0,0,1-1,0,1,1,0,0,1,0-1H18.261a1,1,0,0,1,1,1A1,1,0,0,1,18.261,1Z" transform="translate(18.239 280.782)" fill="#5bb3b3" />
        <path d="M18.261,1H0A1,1,0,0,1-1,0,1,1,0,0,1,0-1H18.261a1,1,0,0,1,1,1A1,1,0,0,1,18.261,1Z" transform="translate(32.239 286.067)" fill="#5bb3b3" />
        <path d="M63.438,1H0A1,1,0,0,1-1,0,1,1,0,0,1,0-1H63.438a1,1,0,0,1,1,1A1,1,0,0,1,63.438,1Z" transform="translate(335.555 273.067)" fill="#5bb3b3" />
        <g transform="translate(19.913 -11.313)">
            <path d="M299.811,204.581a1,1,0,0,1-.869-.5c-.035-.061-3.54-6.163-8.215-12.7-6.112-8.542-11.421-13.937-15.352-15.6a1,1,0,0,1,.244-1.91,71.055,71.055,0,0,1,13.873-.542,109.849,109.849,0,0,1,12.695,1.43,116.026,116.026,0,0,1,12.91,2.9,1,1,0,1,1-.582,1.913,114.037,114.037,0,0,0-12.691-2.851,107.781,107.781,0,0,0-12.45-1.4,73.924,73.924,0,0,0-10.463.167c3.816,2.634,8.326,7.573,13.453,14.741,4.732,6.614,8.279,12.791,8.314,12.853a1,1,0,0,1-.867,1.5Z" transform="translate(-19.045 36.848)" fill="#5bb3b3" />
            <path d="M325.3,210.361a1,1,0,0,1-.97-.759c-.021-.085-2.147-8.584-5.723-18.714a159.355,159.355,0,0,0-6.468-15.833,63.743,63.743,0,0,0-8.2-13.38,1,1,0,0,1,.763-1.646,59.2,59.2,0,0,1,13.734,1.6,56.874,56.874,0,0,1,10.317,3.531,42.012,42.012,0,0,1,8.808,5.187,1,1,0,1,1-1.278,1.538,41.03,41.03,0,0,0-8.429-4.937,54.893,54.893,0,0,0-9.933-3.387,56.989,56.989,0,0,0-11.111-1.5,72.211,72.211,0,0,1,7.137,12.13A161.438,161.438,0,0,1,320.5,190.24c3.606,10.217,5.751,18.795,5.772,18.88a1,1,0,0,1-.971,1.242Z" transform="translate(-19.183 36.911)" fill="#5bb3b3" />
            <path d="M352.883,212.93a1,1,0,0,1-.938-.652l-14.79-39.834a1,1,0,0,1-.048-.179c-.007-.038-.673-3.886-2.165-9.359a110.889,110.889,0,0,0-7.253-19.577,1,1,0,0,1,1.791-.891,112.937,112.937,0,0,1,7.4,19.967c1.4,5.151,2.071,8.793,2.183,9.428l14.758,39.748a1,1,0,0,1-.937,1.348Z" transform="translate(-19.297 36.997)" fill="#5bb3b3" />
            <path d="M390.383,213.99a1,1,0,0,1-.984-.827l-4.735-26.978a45.418,45.418,0,0,0-2.685-5.155,74.709,74.709,0,0,0-9.232-12.312,82.406,82.406,0,0,0-17.334-14.263,91.868,91.868,0,0,0-23.489-10.2,68.788,68.788,0,0,1,11.354,17.357,132.179,132.179,0,0,1,8.26,23.306,185,185,0,0,1,4.981,27.453,1,1,0,0,1-1.993.171,182.906,182.906,0,0,0-4.932-27.151,130.115,130.115,0,0,0-8.13-22.935c-3.913-8.218-8.473-14.734-13.555-19.368a1,1,0,0,1,.909-1.711,95,95,0,0,1,27.7,11.408,84.383,84.383,0,0,1,17.765,14.647,76.634,76.634,0,0,1,9.459,12.649,44.2,44.2,0,0,1,2.816,5.448,1,1,0,0,1,.057.2l4.754,27.087a1,1,0,0,1-.986,1.173Z" transform="translate(-19.297 37)" fill="#5bb3b3" />
            <path d="M329.646,210.945a1,1,0,0,1-.923-1.385c.024-.057,2.388-5.764,4.592-13.2a110.224,110.224,0,0,0,2.924-12.145,50.1,50.1,0,0,0,.861-11.91,1,1,0,0,1,1.995-.142,52.075,52.075,0,0,1-.888,12.409,112.3,112.3,0,0,1-2.981,12.377c-2.234,7.532-4.633,13.32-4.657,13.378A1,1,0,0,1,329.646,210.945Z" transform="translate(-19.302 36.857)" fill="#5bb3b3" />
            <path d="M414.435,214.153a1,1,0,0,1-.726-.312c-.216-.228-21.647-22.808-26.789-26.426a1,1,0,0,1-.3-1.295c.721-1.33,2.44-2.709,5.107-4.1a52.01,52.01,0,0,1,9.07-3.529,70.9,70.9,0,0,1,16.905-2.873,41.873,41.873,0,0,1,8.2.43,21.931,21.931,0,0,1,6.971,2.235,1,1,0,0,1,.436,1.283c-4.162,9.416-12.565,33.151-12.649,33.39a1,1,0,1,1-1.886-.667c.082-.232,8.025-22.668,12.325-32.659-3.282-1.523-7.862-2.217-13.325-2.012a68.84,68.84,0,0,0-16.413,2.792c-6.738,1.993-10.923,4.314-12.478,5.986,6.341,5.065,25.43,25.177,26.277,26.071a1,1,0,0,1-.725,1.688Z" transform="translate(-19.578 36.837)" fill="#5bb3b3" />
            <path d="M362.022,213.667a1,1,0,0,1-.61-1.793,106.691,106.691,0,0,0,11.144-9.839,86.2,86.2,0,0,0,7.236-8.359,49.034,49.034,0,0,0,5.089-7.98,1,1,0,0,1,1.82.83,49.64,49.64,0,0,1-5.261,8.286,88.06,88.06,0,0,1-7.413,8.579,108.655,108.655,0,0,1-11.4,10.068A1,1,0,0,1,362.022,213.667Z" transform="translate(-19.457 36.791)" fill="#5bb3b3" />
            <path d="M434.838,214.2H347.35a1,1,0,0,1-.13-.008l-12.084-1.585h-10.5a1,1,0,0,1-.373-.072l-15.666-6.3h-7.613l-8.866,2.1a1,1,0,0,1-.23.027H276.042a1,1,0,0,1-.8-1.6L284.5,194.34l-1-7.564a1,1,0,0,1,1.983-.263l1.056,7.967a1,1,0,0,1-.19.729l-8.316,11.149h13.736l8.866-2.1a1,1,0,0,1,.23-.027h7.923a1,1,0,0,1,.373.072l15.666,6.3H335.2a1,1,0,0,1,.13.008l12.084,1.585h87.423a1,1,0,0,1,0,2Z" transform="translate(-19.046 36.789)" fill="#5bb3b3" />
            <path d="M0,11.518a1,1,0,0,1-1-1V0A1,1,0,0,1,0-1,1,1,0,0,1,1,0V10.518A1,1,0,0,1,0,11.518Z" transform="translate(256.917 244.336)" fill="#5bb3b3" />
            <path d="M435.188,227.629H266.4a1,1,0,0,1-1-1v-8.5a1,1,0,0,1,1-1h8.657a1,1,0,0,1,0,2H267.4v6.5H435.188a1,1,0,0,1,0,2Z" transform="translate(-19 36.638)" fill="#5bb3b3" />
            <path d="M435.41,209.608a1,1,0,0,1-.81-.413L425.608,196.8a1,1,0,0,1,.77-1.586,58.514,58.514,0,0,1,9,.484,1,1,0,1,1-.261,1.983,59.189,59.189,0,0,0-6.752-.48l7.849,10.818a1,1,0,0,1-.809,1.587Z" transform="translate(-19.764 36.743)" fill="#5bb3b3" />
        </g>
        <path d="M136.067,145.679H112.691a1,1,0,0,1-1-1V50.95H49.963V70.081a1,1,0,0,1-1,1H25.6a1,1,0,0,1-1-1V3.351H1.59a1,1,0,0,1,0-2H25.6a1,1,0,0,1,1,1v66.73H47.963V49.95a1,1,0,0,1,1-1h63.728a1,1,0,0,1,1,1v93.729h22.376a1,1,0,0,1,0,2Z" transform="translate(-1.59 23.186)" fill="#5bb3b3" />
        <path d="M430.606,151.116a46.474,46.474,0,0,1-6.267-.456,84.663,84.663,0,0,1-17.156-4.463,170.058,170.058,0,0,1-25.238-11.9c-17.155-9.694-34.305-14.67-50.973-14.791a84.554,84.554,0,0,0-18.707,1.951,87.1,87.1,0,0,0-13.522,4.157,1,1,0,0,1-.736-1.86,89.072,89.072,0,0,1,13.83-4.25,86.548,86.548,0,0,1,19.15-2c17.012.123,34.488,5.187,51.942,15.049,38.358,21.673,53.637,15.865,53.787,15.8a1,1,0,1,1,.756,1.852A19.735,19.735,0,0,1,430.606,151.116Z" transform="translate(-12.674 3.383)" fill="#5bb3b3" />
        <g transform="translate(0 -0.337)">
            <path d="M0-1H12.746a1,1,0,0,1,1,1V28.091a1,1,0,0,1-1,1H0a1,1,0,0,1-1-1V0A1,1,0,0,1,0-1ZM11.746,1H1V27.091H11.746Z" transform="translate(60.118 87.337)" fill="#5bb3b3" />
            <path d="M0-1H12.746a1,1,0,0,1,1,1V28.091a1,1,0,0,1-1,1H0a1,1,0,0,1-1-1V0A1,1,0,0,1,0-1ZM11.746,1H1V27.091H11.746Z" transform="translate(83.485 87.337)" fill="#5bb3b3" />
        </g>
        <g transform="translate(0 -2.283)">
            <path d="M0-1H12.746a1,1,0,0,1,1,1V28.091a1,1,0,0,1-1,1H0a1,1,0,0,1-1-1V0A1,1,0,0,1,0-1ZM11.746,1H1V27.091H11.746Z" transform="translate(60.118 132.283)" fill="#5bb3b3" />
            <path d="M0-1H12.746a1,1,0,0,1,1,1V28.091a1,1,0,0,1-1,1H0a1,1,0,0,1-1-1V0A1,1,0,0,1,0-1ZM11.746,1H1V27.091H11.746Z" transform="translate(83.485 132.283)" fill="#5bb3b3" />
        </g>
        <g transform="translate(0 -3.427)">
            <path d="M0-1H12.746a1,1,0,0,1,1,1V28.091a1,1,0,0,1-1,1H0a1,1,0,0,1-1-1V0A1,1,0,0,1,0-1ZM11.746,1H1V27.091H11.746Z" transform="translate(60.118 176.427)" fill="#5bb3b3" />
            <path d="M0-1H12.746a1,1,0,0,1,1,1V28.091a1,1,0,0,1-1,1H0a1,1,0,0,1-1-1V0A1,1,0,0,1,0-1ZM11.746,1H1V27.091H11.746Z" transform="translate(83.485 176.427)" fill="#5bb3b3" />
        </g>
        <path d="M0,88.595a1,1,0,0,1-1-1V0A1,1,0,0,1,0-1,1,1,0,0,1,1,0V87.595A1,1,0,0,1,0,88.595Z" transform="translate(43.124 110.434)" fill="#5bb3b3" />
        <path d="M0,88.595a1,1,0,0,1-1-1V0A1,1,0,0,1,0-1,1,1,0,0,1,1,0V87.595A1,1,0,0,1,0,88.595Z" transform="translate(26.13 110.434)" fill="#5bb3b3" />
        <path d="M393.967,106.234a1,1,0,0,1-.635-.228c-.075-.062-7.632-6.271-17.155-12.947-5.583-3.914-10.738-7.22-15.322-9.826a64.259,64.259,0,0,0-14.281-6.393c-3.691-.982-8.4-.676-13.981.91a81,81,0,0,0-15.2,6.337A143.9,143.9,0,0,0,300.3,94.743a1,1,0,0,1-1.2-1.6,146.045,146.045,0,0,1,17.338-10.812,83.052,83.052,0,0,1,15.6-6.5c5.942-1.689,11.007-2,15.054-.922A66.165,66.165,0,0,1,361.85,81.5c4.641,2.638,9.851,5.979,15.487,9.931,9.584,6.72,17.191,12.971,17.266,13.033a1,1,0,0,1-.636,1.772Z" transform="translate(-12.674 3.383)" fill="#5bb3b3" />
        <path d="M371.175,125.617a1,1,0,0,1-.572-1.821c.053-.037,5.358-3.72,12.04-7.678,9.019-5.342,16.128-8.622,21.13-9.747a23.823,23.823,0,0,1,10.565.543,64.371,64.371,0,0,1,10.9,3.836,106.063,106.063,0,0,1,12.107,6.379,1,1,0,0,1-1.069,1.69,103.94,103.94,0,0,0-11.873-6.252c-5.993-2.661-14.36-5.557-20.191-4.246-5.973,1.343-14.465,5.913-20.538,9.509-6.621,3.922-11.876,7.57-11.929,7.606A1,1,0,0,1,371.175,125.617Z" transform="translate(-12.674 3.383)" fill="#5bb3b3" />
        <path d="M10.621,1H0A1,1,0,0,1-1,0,1,1,0,0,1,0-1H10.621a1,1,0,0,1,1,1A1,1,0,0,1,10.621,1Z" transform="translate(1.125 74.5)" fill="#5bb3b3" />
        <path d="M10.621,1H0A1,1,0,0,1-1,0,1,1,0,0,1,0-1H10.621a1,1,0,0,1,1,1A1,1,0,0,1,10.621,1Z" transform="translate(1.125 94.5)" fill="#5bb3b3" />
        <path d="M10.621,1H0A1,1,0,0,1-1,0,1,1,0,0,1,0-1H10.621a1,1,0,0,1,1,1A1,1,0,0,1,10.621,1Z" transform="translate(1.125 35.5)" fill="#5bb3b3" />
        <path d="M10.621,1H0A1,1,0,0,1-1,0,1,1,0,0,1,0-1H10.621a1,1,0,0,1,1,1A1,1,0,0,1,10.621,1Z" transform="translate(1.125 55.5)" fill="#5bb3b3" />
        <path d="M10.621,1H0A1,1,0,0,1-1,0,1,1,0,0,1,0-1H10.621a1,1,0,0,1,1,1A1,1,0,0,1,10.621,1Z" transform="translate(1.125 113.5)" fill="#5bb3b3" />
        <path d="M10.621,1H0A1,1,0,0,1-1,0,1,1,0,0,1,0-1H10.621a1,1,0,0,1,1,1A1,1,0,0,1,10.621,1Z" transform="translate(1.125 133.5)" fill="#5bb3b3" />
        <path d="M10.621,1H0A1,1,0,0,1-1,0,1,1,0,0,1,0-1H10.621a1,1,0,0,1,1,1A1,1,0,0,1,10.621,1Z" transform="translate(1.125 153.5)" fill="#5bb3b3" />
        <path d="M10.621,1H0A1,1,0,0,1-1,0,1,1,0,0,1,0-1H10.621a1,1,0,0,1,1,1A1,1,0,0,1,10.621,1Z" transform="translate(1.125 192.5)" fill="#5bb3b3" />
        <path d="M10.621,1H0A1,1,0,0,1-1,0,1,1,0,0,1,0-1H10.621a1,1,0,0,1,1,1A1,1,0,0,1,10.621,1Z" transform="translate(1.125 172.5)" fill="#5bb3b3" />
        <path d="M174.164,83.955A83.955,83.955,0,1,1,90.209,0a83.954,83.954,0,0,1,83.955,83.955" transform="translate(109.791 76.045)" fill="#ffd964" />
        <path d="M129.021,149.6a1.72,1.72,0,0,1-.693-.146c-2.649-1.166-5.677-2.164-8.6-3.129-9.408-3.1-20.06-6.611-20.047-17.21a1.623,1.623,0,0,0-.884-.892c-1.931-.9-5.818.087-7.291.609a1.672,1.672,0,0,1-.364.175,1.783,1.783,0,0,1-2.079-.408c-.024-.01-.047-.021-.069-.029a4.186,4.186,0,0,1-2.462,1.452,1.74,1.74,0,0,1-.7.032,14.8,14.8,0,0,1-3.154-1.01,8.865,8.865,0,0,0-2.968-.852c-.2.068-.4.152-.617.237-1.143.458-2.98,1.194-4.619.128a34.3,34.3,0,0,1-5.016-1.02c-3.048-.773-6.193-1.569-9.659-1.175-.758,1.907-1.829,3.037-3.259,3.445-2.976.852-6.008-1.843-9.522-4.958-2.876-2.548-6.134-5.438-8.771-5.619a1.712,1.712,0,0,1-1.115-.516,14.127,14.127,0,0,1-3.881-6.906c-.47-1.755-.579-2.12-4.881-2.114h0a1.719,1.719,0,0,1-1.34-.643q-.229.38-.519.94c-.134.259-.244.46-.312.564a1.722,1.722,0,0,1-2.347.52,18.6,18.6,0,0,1-4.648-4.812c-2.7-3.559-4.549-5.7-8.477-4.911a7.885,7.885,0,0,1-6.845-1.4C1.3,97.849,0,93.868,0,88.121V27.509A1.72,1.72,0,0,1,1.715,25.79l111.948-.308a74.47,74.47,0,0,1,7.448-5.383c2.359-1.263,12.619-1.837,19.9.723,4.039,1.42,6.783,3.6,8.163,6.482l.23-.281c.974-1.2,2.187-2.7,3.919-2.7h.069a2.98,2.98,0,0,1,1.56.493,2.257,2.257,0,0,1,1.418-.2c.179-.177.121-.507-.093-1.5-.24-1.123-.568-2.661.449-3.923a4.757,4.757,0,0,1,3.553-1.445c2.694-2.266,5.509-1.8,7.8-1.429,1.756.289,3.413.56,5.133-.2,3.691-1.8,5.488-2.429,6.907-1.585,1.27.754,1.335,2.155,1.4,3.509a12.622,12.622,0,0,0,.633,3.85,1.714,1.714,0,0,1,.033,1.053c-.578,2-1.277,3.926-1.951,5.789-1.45,4.007-2.82,7.793-3.1,12.243a1.709,1.709,0,0,1-.23.759c-2.3,3.954-2.6,7.83-2.908,11.932a44.315,44.315,0,0,1-.871,6.775c-.854,4.444-2.973,7.168-5.43,10.324-.3.383-.6.775-.912,1.181.032.267.1.578.159.881.3,1.473.915,4.468-2.668,5.739a9.179,9.179,0,0,1-2.2,1.574,1.716,1.716,0,0,1-.221,1.072c-.817,1.409-2.454,1.728-3.769,1.985a5.114,5.114,0,0,0-1.777.544,1.788,1.788,0,0,1-.432.755,17.891,17.891,0,0,0-3.565,5.313c-.159.339-.293.621-.41.836a1.767,1.767,0,0,1-.324.423l-.01.053a2.838,2.838,0,0,1-1,1.781,1.741,1.741,0,0,1-.166.119c-.677.431-1.082,2.429-1.378,3.888-.133.66-.266,1.314-.423,1.919a1.71,1.71,0,0,1-.472.808,1.917,1.917,0,0,1-.9.8,6.621,6.621,0,0,1-1.68,1.864c-.619.527-1.453,1.237-1.571,1.772.312,2.1-.424,4.381-2.19,6.8a3.526,3.526,0,0,1,1.067,2.585,2.772,2.772,0,0,1-1.087,1.941,4.714,4.714,0,0,1-.911,1.013,1.742,1.742,0,0,1-1.332.381c-2.03-.306-4.741,6.325-5.744,8.814-.346.863-.643,1.6-.909,2.165.2,1.848-.595,4.439-1.5,7.378a37.338,37.338,0,0,0-1.411,5.458,1.943,1.943,0,0,1,.169.77,2.291,2.291,0,0,1-.011.238,3.193,3.193,0,0,1,1.127,1.773,3.061,3.061,0,0,1-.683,2.386c-.385.561-.417.605-.057,1.209a1.719,1.719,0,0,1-1.476,2.6" transform="translate(108.877 78.116)" fill="#b2cae7" />
        <path d="M129.021,151.6a3.7,3.7,0,0,1-1.5-.314c-2.563-1.128-5.544-2.111-8.427-3.061-4.907-1.617-9.982-3.29-14.049-6.035a17.372,17.372,0,0,1-5.273-5.306,14.422,14.422,0,0,1-2.079-6.93,4.26,4.26,0,0,0-.981-.093,15.857,15.857,0,0,0-4.38.8,3.747,3.747,0,0,1-.546.238,4.547,4.547,0,0,1-1.488.265,3.711,3.711,0,0,1-1.052-.148,7.358,7.358,0,0,1-2.229.946,3.754,3.754,0,0,1-1.508.07l-.02,0a16.592,16.592,0,0,1-3.576-1.129l-.005,0a11.515,11.515,0,0,0-1.934-.67l-.056.022-.094.038h0a9.224,9.224,0,0,1-3.466.821,5.416,5.416,0,0,1-2.534-.607,39.118,39.118,0,0,1-4.872-1.024,29.917,29.917,0,0,0-7.3-1.218q-.275,0-.549.01a6.617,6.617,0,0,1-4.028,3.463,6.137,6.137,0,0,1-1.688.236,9.129,9.129,0,0,1-5.137-1.879,46.936,46.936,0,0,1-4.557-3.729l-.025-.022c-2.371-2.1-5.618-4.978-7.572-5.112a3.706,3.706,0,0,1-2.411-1.116,16.112,16.112,0,0,1-4.38-7.784c-.042-.156-.094-.349-.138-.494a15.693,15.693,0,0,0-2.693-.137h-.119a3.764,3.764,0,0,1-.5-.034,3.722,3.722,0,0,1-5.069,1.114,20.381,20.381,0,0,1-5.182-5.3l0-.006c-2.256-2.978-3.444-4.283-5.353-4.283a5.847,5.847,0,0,0-1.138.124,12.9,12.9,0,0,1-2.515.26A9.2,9.2,0,0,1,2.6,101.5C-.451,99-2,94.5-2,88.121V27.509A3.727,3.727,0,0,1,1.707,23.79l111.257-.306a68.355,68.355,0,0,1,7.2-5.147c2.271-1.216,7.332-1.311,8.829-1.311a40.389,40.389,0,0,1,12.681,1.909,17,17,0,0,1,7.759,5.071,5.662,5.662,0,0,1,3.89-1.679c.031,0,.078,0,.136,0a4.792,4.792,0,0,1,.651.062,5.609,5.609,0,0,1,1.059-4.453,6.239,6.239,0,0,1,4.344-2.131,9.164,9.164,0,0,1,5.627-1.8,19.711,19.711,0,0,1,3.249.336h.008a15.077,15.077,0,0,0,2.345.268,3.989,3.989,0,0,0,1.626-.309c2.85-1.387,4.709-2.139,6.351-2.139a4.662,4.662,0,0,1,2.417.65c2.2,1.3,2.3,3.609,2.374,5.135v.012a10.768,10.768,0,0,0,.519,3.262A3.69,3.69,0,0,1,184.1,23.5c-.589,2.036-1.288,3.971-1.965,5.841l-.027.075c-1.4,3.869-2.722,7.523-2.981,11.686a3.722,3.722,0,0,1-.5,1.644c-2.069,3.553-2.334,7.035-2.64,11.068v.007a46,46,0,0,1-.909,7.04c-.95,4.9-3.31,7.927-5.808,11.136l-.364.469a8.664,8.664,0,0,1,.1,3.772,5.739,5.739,0,0,1-3.639,4.051,10.11,10.11,0,0,1-1.428,1.077,3.714,3.714,0,0,1-.362.854c-1.272,2.192-3.584,2.644-5.114,2.942h-.006q-.416.082-.69.146a3.662,3.662,0,0,1-.466.588h0a15.854,15.854,0,0,0-3.183,4.761c-.169.36-.32.678-.467.947a3.751,3.751,0,0,1-.233.372,4.7,4.7,0,0,1-1.594,2.476l-.012.01q-.06.049-.121.093a16.683,16.683,0,0,0-.716,2.75c-.121.6-.271,1.344-.448,2.026a5.428,5.428,0,0,1-1.863,2.581,9.727,9.727,0,0,1-1.832,1.915l-.005,0c-.2.173-.565.482-.806.723a10.879,10.879,0,0,1-1.817,6.291,4.859,4.859,0,0,1,.63,2.785,4.768,4.768,0,0,1-1.583,3.125,6.675,6.675,0,0,1-1.132,1.2,3.748,3.748,0,0,1-2.513.852,10.585,10.585,0,0,0-1.955,2.984c-.89,1.74-1.659,3.648-2.028,4.566-.284.707-.518,1.286-.736,1.787.062,2.141-.72,4.687-1.613,7.6a44.793,44.793,0,0,0-1.274,4.7q.04.157.066.317a4.817,4.817,0,0,1,1.132,2.26,4.761,4.761,0,0,1-.723,3.484,3.72,3.72,0,0,1-3.457,5.092Zm-32.306-25.74a6.85,6.85,0,0,1,2.92.549,3.613,3.613,0,0,1,1.893,1.951,2,2,0,0,1,.148.757c0,4.07,1.778,7.17,5.61,9.757,3.608,2.435,8.415,4.019,13.063,5.551,2.717.9,5.518,1.819,8.069,2.891a2.486,2.486,0,0,1-.167-1.074,3.023,3.023,0,0,1,.653-1.581l0,0c.289-.42.411-.645.367-.871a1.377,1.377,0,0,0-.472-.642,6.274,6.274,0,0,1-.833-2.767,38.3,38.3,0,0,1,1.484-5.8c.811-2.641,1.576-5.136,1.42-6.574a2,2,0,0,1,.177-1.065c.238-.507.52-1.2.864-2.061a57.158,57.158,0,0,1,2.512-5.531,16.243,16.243,0,0,1,1.841-2.81,4.122,4.122,0,0,1,3.109-1.739c.094,0,.188,0,.282.014a2.712,2.712,0,0,0,.435-.507,2,2,0,0,1,.4-.441.835.835,0,0,0,.358-.558c.023-.278-.147-.6-.586-1.108a2,2,0,0,1-.1-2.487c1.445-1.982,2.06-3.776,1.828-5.332a2,2,0,0,1,.025-.725,5.707,5.707,0,0,1,2.222-2.859l.006,0a5.322,5.322,0,0,0,1.2-1.25,2,2,0,0,1,.92-.9l.049-.025a2,2,0,0,1,.271-.356c.131-.515.245-1.071.38-1.739.509-2.509.968-4.347,2.255-5.174a.9.9,0,0,0,.288-.6l.011-.056a2,2,0,0,1,.55-1.031c.09-.169.211-.424.337-.693a19.977,19.977,0,0,1,3.9-5.812,2,2,0,0,1,.3-.589c.584-.8,1.564-1.04,2.992-1.321l.01,0c1.161-.227,2.017-.43,2.382-.957a2,2,0,0,1,1.042-1.9,7.186,7.186,0,0,0,1.722-1.212,2,2,0,0,1,.763-.489c1.3-.461,1.448-1.095,1.512-1.365a5.208,5.208,0,0,0-.134-2.085c-.067-.323-.144-.692-.186-1.047a2,2,0,0,1,.4-1.454c.272-.356.565-.735.922-1.193,2.391-3.072,4.28-5.5,5.044-9.473q.008-.039.017-.078A42.735,42.735,0,0,0,172,53.52v-.007c.314-4.127.638-8.393,3.14-12.723.3-4.709,1.714-8.607,3.207-12.733l.027-.074c.645-1.782,1.311-3.624,1.858-5.5a14.609,14.609,0,0,1-.716-4.332v-.012c-.058-1.238-.13-1.709-.422-1.882a.652.652,0,0,0-.373-.089c-.959,0-2.9.9-4.636,1.753l-.069.032a7.941,7.941,0,0,1-3.272.663,18.242,18.242,0,0,1-2.992-.321h-.006a16.327,16.327,0,0,0-2.6-.283,5.194,5.194,0,0,0-3.574,1.271,2,2,0,0,1-1.177.467,2.907,2.907,0,0,0-2.106.7c-.391.485-.274,1.205-.051,2.249a10.751,10.751,0,0,1,.232,1.317,2.453,2.453,0,0,1-.689,2.031,2,2,0,0,1-1.734.549.592.592,0,0,0-.1-.009.165.165,0,0,0-.085.017,2,2,0,0,1-1.99-.1,1,1,0,0,0-.52-.175h-.026c-.782,0-1.66,1.084-2.364,1.954l-.013.016-.105.128-.124.151a2,2,0,0,1-3.346-.409c-1.143-2.386-3.505-4.222-7.023-5.459a36.332,36.332,0,0,0-11.354-1.683c-3.709,0-6.291.489-6.939.836a69.921,69.921,0,0,0-7.146,5.184,2,2,0,0,1-1.241.436L2,27.789V88.121a21.813,21.813,0,0,0,.873,6.661,7.635,7.635,0,0,0,2.265,3.626,5.227,5.227,0,0,0,3.455,1.164,8.891,8.891,0,0,0,1.73-.183,9.835,9.835,0,0,1,1.922-.2,7.589,7.589,0,0,1,4.97,1.842,23.361,23.361,0,0,1,3.57,4.024l0,0a18.061,18.061,0,0,0,3.858,4.155l.075-.144c.211-.408.407-.761.582-1.052a2,2,0,0,1,3.183-.326c2.292,0,3.646.1,4.676.623a4.076,4.076,0,0,1,2.009,2.973,12.148,12.148,0,0,0,3.309,5.952,10.86,10.86,0,0,1,5.2,2.272,56.018,56.018,0,0,1,4.643,3.828l.026.023c2.668,2.366,5.187,4.6,7.04,4.6a2.11,2.11,0,0,0,.589-.082c.51-.146,1.266-.538,1.95-2.261a2,2,0,0,1,1.633-1.249,18.594,18.594,0,0,1,2.093-.117,33,33,0,0,1,8.283,1.34,32.86,32.86,0,0,0,4.717.968,2,2,0,0,1,.9.314,1.4,1.4,0,0,0,.807.225,5.777,5.777,0,0,0,1.977-.533l.005,0,.094-.038c.2-.078.4-.159.609-.232a2,2,0,0,1,.683-.109,10.39,10.39,0,0,1,3.69,1,13.438,13.438,0,0,0,2.666.879,2.361,2.361,0,0,0,1.3-.7,2,2,0,0,1,2.291-.676c.069.025.123.049.155.063l.008,0a2,2,0,0,1,.578.376l.036-.011a2,2,0,0,1,.376-.179A19.906,19.906,0,0,1,96.715,125.856Z" transform="translate(108.877 78.116)" fill="#313e58" />
        <path d="M67.362,76.166H63.426L53.769,60.518h-.108l.066.872q.189,2.5.189,4.568V76.166H51V56.528H54.9L64.527,72.1h.081q-.028-.308-.108-2.25t-.08-3.028V56.528h2.941Z" transform="translate(116.334 84.31)" fill="#313e58" />
        <path d="M82.242,70.87a4.944,4.944,0,0,1-1.894,4.11,8.245,8.245,0,0,1-5.226,1.491,12.464,12.464,0,0,1-5.454-1.035V72.4a14.856,14.856,0,0,0,2.854.994,12.109,12.109,0,0,0,2.815.363,4.478,4.478,0,0,0,2.814-.726,2.368,2.368,0,0,0,.907-1.949,2.441,2.441,0,0,0-.833-1.866A12.49,12.49,0,0,0,74.787,67.4,9.113,9.113,0,0,1,71,64.92a5.263,5.263,0,0,1-1.1-3.358,4.7,4.7,0,0,1,1.747-3.868,7.247,7.247,0,0,1,4.688-1.411,13.77,13.77,0,0,1,5.614,1.237l-1.02,2.619a12.263,12.263,0,0,0-4.675-1.1,3.583,3.583,0,0,0-2.363.679,2.226,2.226,0,0,0-.806,1.793,2.534,2.534,0,0,0,.322,1.31,3.3,3.3,0,0,0,1.061,1.027,18.015,18.015,0,0,0,2.659,1.276,14.587,14.587,0,0,1,3.17,1.679,4.945,4.945,0,0,1,1.477,1.759,5.306,5.306,0,0,1,.47,2.311" transform="translate(119.063 84.274)" fill="#313e58" />
        <path d="M103.344,76.166H99.852L96.521,64.453q-.215-.765-.538-2.209t-.39-2.008q-.134.86-.437,2.229t-.5,2.041L91.4,76.166H87.911l-2.539-9.832-2.579-9.806h3.278l2.807,11.445a49.3,49.3,0,0,1,.94,4.862q.148-1.142.444-2.553T90.8,68L94,56.528h3.183l3.277,11.525a42.973,42.973,0,0,1,.995,4.782,35.082,35.082,0,0,1,.966-4.89l2.794-11.417h3.251Z" transform="translate(120.982 84.31)" fill="#313e58" />
        <rect width="400" height="20.574" transform="translate(0 299.426)" fill="#bfe2e2" />
        <path d="M956.136,2686.463a31.2,31.2,0,0,1-11.9-5.088,24.986,24.986,0,0,1-10.225.049c-12.336-2.494-20.323-13.531-17.838-24.651s14.5-18.114,26.838-15.619q1.182.239,2.311.581a30.907,30.907,0,0,1,21.545-3.3,30.479,30.479,0,0,1,15.461,8.079,17.706,17.706,0,0,1,12.564-2.009c8.776,1.775,14.513,9.384,12.812,16.995s-10.2,12.344-18.973,10.57q-.4-.08-.783-.176c-3.962,9.229-14.06,15.217-25.362,15.218A32.545,32.545,0,0,1,956.136,2686.463Z" transform="translate(-796.56 -2622.845)" fill="#c0e1e2" />
        <path d="M962.588,2687.613h0a33.125,33.125,0,0,1-6.551-.66,31.526,31.526,0,0,1-11.908-5.044,25.226,25.226,0,0,1-5.1.519,25.89,25.89,0,0,1-5.117-.514,24.853,24.853,0,0,1-8.993-3.725,22.616,22.616,0,0,1-6.41-6.468,19.463,19.463,0,0,1,.1-21.8,21.179,21.179,0,0,1,5.075-5.216,24.423,24.423,0,0,1,14.308-4.558,25.874,25.874,0,0,1,5.119.515c.725.146,1.447.325,2.149.53a30.661,30.661,0,0,1,15.155-3.907,33.129,33.129,0,0,1,6.552.66,32.258,32.258,0,0,1,8.707,3.091,29.667,29.667,0,0,1,6.732,4.855,17.791,17.791,0,0,1,8.782-2.259,19.222,19.222,0,0,1,3.8.383,17.489,17.489,0,0,1,11.251,7.377,13.33,13.33,0,0,1,1.95,10.217,13.1,13.1,0,0,1-2.045,4.641,14.572,14.572,0,0,1-3.581,3.578,17.674,17.674,0,0,1-10.133,3.114,19.2,19.2,0,0,1-3.8-.382c-.13-.026-.262-.054-.394-.084a24.587,24.587,0,0,1-9.962,10.917A30.54,30.54,0,0,1,962.588,2687.613Zm-18.24-6.773.18.127a30.516,30.516,0,0,0,11.707,5.006,32.143,32.143,0,0,0,6.353.64,29.538,29.538,0,0,0,15.177-4.077,23.52,23.52,0,0,0,9.726-10.838l.167-.39.412.1c.254.063.51.12.762.171a18.221,18.221,0,0,0,3.6.362,16.665,16.665,0,0,0,9.556-2.93,13.568,13.568,0,0,0,3.336-3.332,12.109,12.109,0,0,0,1.891-4.288,12.339,12.339,0,0,0-1.813-9.455,16.487,16.487,0,0,0-10.61-6.941,18.239,18.239,0,0,0-3.6-.363,16.736,16.736,0,0,0-8.6,2.311l-.333.2-.276-.273a28.61,28.61,0,0,0-6.771-4.95,31.277,31.277,0,0,0-8.437-2.995,32.147,32.147,0,0,0-6.354-.64,29.629,29.629,0,0,0-14.842,3.88l-.188.108-.208-.063c-.737-.223-1.5-.414-2.265-.569a24.89,24.89,0,0,0-4.921-.5,23.415,23.415,0,0,0-13.719,4.366,20.177,20.177,0,0,0-4.837,4.969,18.463,18.463,0,0,0-.088,20.693,21.622,21.622,0,0,0,6.129,6.183,23.857,23.857,0,0,0,8.634,3.574,24.889,24.889,0,0,0,4.919.494,24.21,24.21,0,0,0,5.1-.542Z" transform="translate(-796.56 -2622.845)" fill="rgba(0,0,0,0)" />
        <path d="M963.647,2684.511a24.568,24.568,0,0,1-9.857-4.7,18.634,18.634,0,0,1-8.472.045,19.379,19.379,0,0,1-11.994-8.391,13.611,13.611,0,0,1-6.946.225c-7.273-1.638-12.026-8.663-10.617-15.689a12.875,12.875,0,0,1,15.721-9.758,14.145,14.145,0,0,1,3.941,1.534,18.446,18.446,0,0,1,17.352-5.1,19.258,19.258,0,0,1,1.915.536,23.352,23.352,0,0,1,17.851-3.045,24.525,24.525,0,0,1,12.811,7.459,13.391,13.391,0,0,1,10.409-1.855c7.272,1.639,12.026,8.663,10.616,15.69a12.873,12.873,0,0,1-15.72,9.757q-.328-.073-.649-.162a22.319,22.319,0,0,1-21.015,14.049A24.314,24.314,0,0,1,963.647,2684.511Z" transform="translate(-869.166 -2662.342)" fill="#c0e1e2" />
        <path d="M968.993,2685.61h0a25.128,25.128,0,0,1-15.323-5.255,19,19,0,0,1-4.194.469,19.661,19.661,0,0,1-11.358-3.641,20.014,20.014,0,0,1-5.008-5.133,13.922,13.922,0,0,1-3.663.488,14.61,14.61,0,0,1-12.048-6.388,13.452,13.452,0,0,1-2.129-10.244,12.844,12.844,0,0,1,4.678-7.606,13.731,13.731,0,0,1,8.466-2.9,14.486,14.486,0,0,1,3.177.356,14.654,14.654,0,0,1,3.744,1.4,18.9,18.9,0,0,1,13.281-5.444,19.454,19.454,0,0,1,4.269.478c.582.131,1.165.291,1.736.475a23.518,23.518,0,0,1,12.573-3.6,25.1,25.1,0,0,1,18.239,7.911,13.7,13.7,0,0,1,7.258-2.051,14.606,14.606,0,0,1,12.046,6.388,13.453,13.453,0,0,1,2.128,10.244,12.84,12.84,0,0,1-4.677,7.605,13.729,13.729,0,0,1-8.465,2.9,14.484,14.484,0,0,1-3.178-.356l-.237-.055a22.06,22.06,0,0,1-8.252,10.041A23.474,23.474,0,0,1,968.993,2685.61Zm-15.084-6.34.191.151a24.127,24.127,0,0,0,14.893,5.189,22.477,22.477,0,0,0,12.51-3.746,21.057,21.057,0,0,0,8.038-9.983l.163-.422.436.12c.21.058.42.11.626.156a13.474,13.474,0,0,0,2.959.332,12.723,12.723,0,0,0,7.846-2.683,11.84,11.84,0,0,0,4.315-7.017c1.354-6.751-3.237-13.527-10.236-15.1a13.471,13.471,0,0,0-2.958-.332,12.684,12.684,0,0,0-7.064,2.115l-.359.239-.289-.319a24.1,24.1,0,0,0-17.786-7.894,22.51,22.51,0,0,0-12.234,3.565l-.2.131-.228-.077a18.85,18.85,0,0,0-1.865-.522,18.449,18.449,0,0,0-4.049-.454,17.9,17.9,0,0,0-12.835,5.414l-.271.278-.337-.193a13.638,13.638,0,0,0-3.8-1.479,13.49,13.49,0,0,0-2.957-.332,12.726,12.726,0,0,0-7.848,2.683,11.843,11.843,0,0,0-4.316,7.017c-1.354,6.751,3.238,13.526,10.237,15.1a13.487,13.487,0,0,0,2.959.332,12.892,12.892,0,0,0,3.732-.548l.359-.108.2.315a19.036,19.036,0,0,0,4.954,5.172,18.661,18.661,0,0,0,10.779,3.456,17.982,17.982,0,0,0,4.2-.5Z" transform="translate(-869.166 -2662.342)" fill="rgba(0,0,0,0)" />
    </g>
</svg>