<svg xmlns="http://www.w3.org/2000/svg" xmlns:xlink="http://www.w3.org/1999/xlink" width="400" height="320" viewBox="0 0 400 320">
    <defs>
        <clipPath>
            <rect width="400" height="320" />
        </clipPath>
    </defs>
    <g clip-path="url(#b)">
        <path d="M-926.639-870.361s10.524.218,15.67,8.033c6.646-9.886,19.535-3.415,17.991,0,4.2-2.529,15.615-1.668,14.6,6.808,9.945-4.19,13.451,3.987,13.451,3.987s9.193-7.219,14.536,0,0,4.819,0,4.819h-86.294v-19.625Z" transform="translate(924.694 1035.161)" fill="#bfe2e2" />
        <path d="M-926.639-870.361s10.524.218,15.67,8.033c6.646-9.886,19.535-3.415,17.991,0,4.2-2.529,15.615-1.668,14.6,6.808,9.945-4.19,13.451,3.987,13.451,3.987s9.193-7.219,14.536,0,0,4.819,0,4.819h-86.294v-19.625Z" transform="translate(868.546 1050.763)" fill="#bfe2e2" />
        <path d="M-836.695-870.361s-13.383.218-19.928,8.033c-8.452-9.886-24.843-3.415-22.88,0-5.341-2.529-19.858-1.668-18.569,6.808-12.647-4.19-17.106,3.987-17.106,3.987s-11.691-7.219-18.485,0,0,4.819,0,4.819h109.742v-19.625Z" transform="translate(967.096 1011.131)" fill="#bfe2e2" />
        <path d="M399.4,223.162l-15.553.114c-5.492.041-10.016-4.767-10.054-10.684l-.007-1.164a10.943,10.943,0,0,1,5.171-9.49,13.682,13.682,0,0,1-.113-1.605c-.045-7.065,5.235-12.832,11.794-12.881.122,0,.24.014.362.017a13.683,13.683,0,0,1-.094-1.47c-.045-7.065,5.236-12.832,11.794-12.881s11.912,5.641,11.957,12.706c0,.126-.013.249-.016.374,5.932.674,10.575,6.053,10.616,12.629a13.584,13.584,0,0,1-.074,1.463l1.118-.008c5.492-.041,10.016,4.767,10.054,10.684l.007,1.164c.038,5.917-4.425,10.792-9.918,10.832l-18.711.138" transform="translate(-18 9.099)" fill="#bfe2e2" />
        <path d="M360.664,211.633l-15.4.105a14.129,14.129,0,0,1-14.321-13.848l-.01-1.507a14,14,0,0,1,8.776-12.965,13.772,13.772,0,0,1-4.512-10.054l-.025-3.769a14.128,14.128,0,0,1,14.13-14.042h.064a17.011,17.011,0,0,1,31.783-.217h.064a14.129,14.129,0,0,1,14.321,13.848l.026,3.769c.006.9,15.068,37.828,14.9,38.681" transform="translate(-18 9.099)" fill="#bfe2e2" />
        <path d="M281.906,172.148a19.447,19.447,0,0,1,17.781-11.219c10.4-.071,18.909,7.553,19.452,17.185,6.932,1,11,2.77,14.451,7.192s0,21.341,0,21.341-4.5,8.477-14.451,7.561-47.362,0-47.362,0" transform="translate(-18 18.099)" fill="#bfe2e2" />
        <path d="M271.36,54.535h0a64.09,64.09,0,0,1,.07-9.476,43.088,43.088,0,0,1,1.387-8.13,19.225,19.225,0,0,1,3.442-7.075,9.536,9.536,0,0,1,7.311-3.613c.868-.026,1.652-.047,2.443-.047,3,0,6.387.295,8.752,2.479-.3-5.774,4.169-11.454,10.169-12.931a21.988,21.988,0,0,1,5.187-.609,19.034,19.034,0,0,1,7.087,1.265,9.372,9.372,0,0,1,4.939,4.094,31.991,31.991,0,0,1,10.38-13.259A35.352,35.352,0,0,1,348.546.393,34.855,34.855,0,0,1,353.783,0,37.389,37.389,0,0,1,368.5,3.061a33.839,33.839,0,0,1,11.95,8.538,4.457,4.457,0,0,1,1.017-3.481,8.788,8.788,0,0,1,6.7-2.911,8.036,8.036,0,0,1,2.3.322,13.934,13.934,0,0,1,5.778,3.6,40.729,40.729,0,0,1,4.368,5.347,11.686,11.686,0,0,1,9.7-4.941,10.845,10.845,0,0,1,9.419,5.347v39.3Z" transform="translate(-19.729 252.88)" fill="#bfe2e2" />
        <rect width="400" height="20.574" transform="translate(0 299.426)" fill="#bfe2e2" />
        <g transform="translate(-4.787 -25.729)">
            <path d="M315.676,153.84a1,1,0,0,1-1-1V1a1,1,0,0,1,1-1h39.867a1,1,0,0,1,1,1V127.6a1,1,0,1,1-2,0V2H316.676V152.84A1,1,0,0,1,315.676,153.84Z" transform="translate(-18 39)" fill="#5bb3b3" />
            <path d="M365.166,127.163a1,1,0,0,1-1-1V8.687L355.49,7.1a1,1,0,1,1,.359-1.968l9.5,1.733a1,1,0,0,1,.82.984v118.31A1,1,0,0,1,365.166,127.163Z" transform="translate(-18 39)" fill="#5bb3b3" />
            <path d="M13.747,1H0A1,1,0,0,1-1,0,1,1,0,0,1,0-1H13.747a1,1,0,0,1,1,1A1,1,0,0,1,13.747,1Z" transform="translate(349.916 83.057)" fill="#5bb3b3" />
            <path d="M384.413,96.726a1,1,0,0,1-1-1v-73.2a1,1,0,0,1,1-1H427.03a1,1,0,0,1,1,1V79.938a1,1,0,0,1-2,0V23.529H385.413v72.2A1,1,0,0,1,384.413,96.726Z" transform="translate(-18 39)" fill="#5bb3b3" />
            <path d="M394.036,96.726a1,1,0,0,1-1-1V81.374a1,1,0,0,1,1-1h41.585a1,1,0,0,1,0,2H395.036V95.726A1,1,0,0,1,394.036,96.726Z" transform="translate(-18 39)" fill="#5bb3b3" />
            <path d="M399.535,155.573a1,1,0,0,1-1-1v-44.5a1,1,0,0,1,1-1h36.086a1,1,0,0,1,0,2H400.535v43.5A1,1,0,0,1,399.535,155.573Z" transform="translate(-18 39)" fill="#5bb3b3" />
            <path d="M417.406,106.772a1,1,0,0,1-1-1v-4.741H365.2a1,1,0,0,1,0-2h52.2a1,1,0,0,1,1,1v5.741A1,1,0,0,1,417.406,106.772Z" transform="translate(-18 39)" fill="#5bb3b3" />
            <path d="M18.8,1H0A1,1,0,0,1-1,0,1,1,0,0,1,0-1H18.8a1,1,0,0,1,1,1A1,1,0,0,1,18.8,1Z" transform="translate(274.749 146.208)" fill="#5bb3b3" />
            <path d="M27.495,1H0A1,1,0,0,1-1,0,1,1,0,0,1,0-1H27.495a1,1,0,0,1,1,1A1,1,0,0,1,27.495,1Z" transform="translate(303.175 48.612)" fill="#5bb3b3" />
            <path d="M27.495,1H0A1,1,0,0,1-1,0,1,1,0,0,1,0-1H27.495a1,1,0,0,1,1,1A1,1,0,0,1,27.495,1Z" transform="translate(374.661 68.705)" fill="#5bb3b3" />
            <path d="M27.495,1H0A1,1,0,0,1-1,0,1,1,0,0,1,0-1H27.495a1,1,0,0,1,1,1A1,1,0,0,1,27.495,1Z" transform="translate(374.661 83.057)" fill="#5bb3b3" />
            <path d="M27.495,1H0A1,1,0,0,1-1,0,1,1,0,0,1,0-1H27.495a1,1,0,0,1,1,1A1,1,0,0,1,27.495,1Z" transform="translate(374.661 97.41)" fill="#5bb3b3" />
            <path d="M27.495,1H0A1,1,0,0,1-1,0,1,1,0,0,1,0-1H27.495a1,1,0,0,1,1,1A1,1,0,0,1,27.495,1Z" transform="translate(374.661 111.762)" fill="#5bb3b3" />
            <path d="M27.495,1H0A1,1,0,0,1-1,0,1,1,0,0,1,0-1H27.495a1,1,0,0,1,1,1A1,1,0,0,1,27.495,1Z" transform="translate(303.175 64.501)" fill="#5bb3b3" />
            <path d="M27.495,1H0A1,1,0,0,1-1,0,1,1,0,0,1,0-1H27.495a1,1,0,0,1,1,1A1,1,0,0,1,27.495,1Z" transform="translate(303.175 80.39)" fill="#5bb3b3" />
            <path d="M27.495,1H0A1,1,0,0,1-1,0,1,1,0,0,1,0-1H27.495a1,1,0,0,1,1,1A1,1,0,0,1,27.495,1Z" transform="translate(303.175 96.279)" fill="#5bb3b3" />
            <path d="M27.495,1H0A1,1,0,0,1-1,0,1,1,0,0,1,0-1H27.495a1,1,0,0,1,1,1A1,1,0,0,1,27.495,1Z" transform="translate(303.175 112.169)" fill="#5bb3b3" />
            <path d="M27.495,1H0A1,1,0,0,1-1,0,1,1,0,0,1,0-1H27.495a1,1,0,0,1,1,1A1,1,0,0,1,27.495,1Z" transform="translate(303.175 128.058)" fill="#5bb3b3" />
            <path d="M27.495,1H0A1,1,0,0,1-1,0,1,1,0,0,1,0-1H27.495a1,1,0,0,1,1,1A1,1,0,0,1,27.495,1Z" transform="translate(303.175 143.947)" fill="#5bb3b3" />
            <path d="M27.495,1H0A1,1,0,0,1-1,0,1,1,0,0,1,0-1H27.495a1,1,0,0,1,1,1A1,1,0,0,1,27.495,1Z" transform="translate(303.175 159.836)" fill="#5bb3b3" />
            <path d="M19.384,1H0A1,1,0,0,1-1,0,1,1,0,0,1,0-1H19.384a1,1,0,0,1,1,1A1,1,0,0,1,19.384,1Z" transform="translate(303.175 175.725)" fill="#5bb3b3" />
            <path d="M5.3,1H0A1,1,0,0,1-1,0,1,1,0,0,1,0-1H5.3a1,1,0,0,1,1,1A1,1,0,0,1,5.3,1Z" transform="translate(303.175 191.615)" fill="#5bb3b3" />
        </g>
        <g transform="translate(1 21.082)">
            <path d="M1.675,215.612a1,1,0,0,1-.716-1.7A111.011,111.011,0,0,1,16.778,200.4a84.132,84.132,0,0,1,21.456-10.978c12.731-4.244,29.912-8.109,45.07-11.52,13.767-3.1,26.771-6.023,34.137-8.7,4.888-1.777,10.389-5.222,16.35-10.238a142.164,142.164,0,0,0,13.857-13.6,1,1,0,1,1,1.486,1.338,144.148,144.148,0,0,1-14.056,13.788c-6.141,5.168-11.845,8.73-16.954,10.587-7.486,2.722-20.55,5.661-34.382,8.773-15.112,3.4-32.241,7.254-44.877,11.466a82.138,82.138,0,0,0-20.943,10.721A109.007,109.007,0,0,0,2.391,215.31,1,1,0,0,1,1.675,215.612Z" transform="translate(-26.478 20.055)" fill="#5bb3b3" />
            <g transform="translate(-11.294 -18.028)">
                <path d="M49.961,267.582a1,1,0,0,1-.875-1.483q.316-.573.664-1.207a163.747,163.747,0,0,1,13.666-21.609,97.784,97.784,0,0,1,10.957-12.154,70.515,70.515,0,0,1,13.982-10.217c3.613-1.98,10.175-5.016,17.773-8.531,7.915-3.661,16.885-7.811,25.218-12,9.631-4.839,16.457-8.75,20.869-11.957a76.539,76.539,0,0,0,14.382-13.22,159.784,159.784,0,0,0,10.885-15.422c.793-1.216,1.614-2.474,2.476-3.784a1,1,0,1,1,1.671,1.1c-.86,1.308-1.679,2.564-2.472,3.778a161.166,161.166,0,0,1-11.025,15.61,78.455,78.455,0,0,1-14.741,13.556c-4.5,3.272-11.417,7.239-21.147,12.127-8.362,4.2-17.348,8.358-25.277,12.026-7.565,3.5-14.1,6.522-17.651,8.469a68.516,68.516,0,0,0-13.582,9.929A95.785,95.785,0,0,0,65,244.5a162,162,0,0,0-13.5,21.355q-.349.635-.666,1.21A1,1,0,0,1,49.961,267.582Z" transform="translate(-45.393 39)" fill="#5bb3b3" />
                <path d="M22.568,228.046a1,1,0,0,1-.781-1.623c2.715-3.406,5.323-6.386,7.973-9.11a1,1,0,1,1,1.433,1.395c-2.6,2.676-5.17,5.608-7.843,8.962A1,1,0,0,1,22.568,228.046Zm16.853-17.041a1,1,0,0,1-.607-1.8,54.98,54.98,0,0,1,10.431-6.349,1,1,0,1,1,.829,1.82,52.984,52.984,0,0,0-10.048,6.12A1,1,0,0,1,39.421,211.005Zm21.557-10.241a1,1,0,0,1-.313-1.95c3.632-1.2,7.475-2.453,11.423-3.735a1,1,0,0,1,.618,1.9c-3.945,1.281-7.786,2.537-11.415,3.733A1,1,0,0,1,60.978,200.764Zm22.851-7.424a1,1,0,0,1-.305-1.952c3.784-1.214,7.635-2.443,11.448-3.653a1,1,0,0,1,.6,1.906c-3.81,1.209-7.66,2.437-11.442,3.651A1,1,0,0,1,83.829,193.34Zm22.84-7.4a1,1,0,0,1-.435-1.9c.37-.178.862-.407,1.486-.7,2.038-.948,5.448-2.534,9.278-4.554a1,1,0,0,1,.933,1.769c-3.874,2.043-7.313,3.643-9.367,4.6-.617.287-1.1.513-1.461.686A1,1,0,0,1,106.669,185.938Zm21.14-11.366a1,1,0,0,1-.557-1.831,55.95,55.95,0,0,0,8.368-6.682q.38-.38.769-.771a1,1,0,1,1,1.419,1.409q-.391.394-.774.777a57.924,57.924,0,0,1-8.669,6.929A1,1,0,0,1,127.809,174.572Z" transform="translate(-18 39)" fill="#5bb3b3" />
                <path d="M145.443,158.327a1,1,0,0,1-.729-1.684c1.41-1.5,2.781-2.979,4.075-4.39a1,1,0,0,1,1.474,1.352c-1.3,1.416-2.676,2.9-4.091,4.406A1,1,0,0,1,145.443,158.327Z" transform="translate(-18 39)" fill="#5bb3b3" />
                <path d="M11.9,242.548a1,1,0,0,1-.8-1.6c.734-.98,1.613-2.22,2.631-3.656l.849-1.2a1,1,0,1,1,1.63,1.158l-.847,1.194c-1.026,1.447-1.911,2.7-2.662,3.7A1,1,0,0,1,11.9,242.548Z" transform="translate(-18 39)" fill="#5bb3b3" />
            </g>
        </g>
        <g transform="translate(1 10.406)">
            <path d="M130.137,1H0A1,1,0,0,1-1,0,1,1,0,0,1,0-1H130.137a1,1,0,0,1,1,1A1,1,0,0,1,130.137,1Z" transform="translate(-3.262 108.02)" fill="#5bb3b3" />
            <path d="M130.954,97.6a1,1,0,0,1-.571-.18c-4.684-3.269-6.364-8.161-7.476-11.4a9.745,9.745,0,0,0-1.214-2.794,4.434,4.434,0,0,0-3.142-.694,1,1,0,0,1-.555-.047c-.014-.005-1.416-.543-3-1.018-2.864-.858-3.7-.73-3.835-.7a1,1,0,0,1-1.075-.416c-.323-.484-1.35-1.4-4.6-2.088a29.338,29.338,0,0,0-3.814-.532,1,1,0,0,1-.257-.05,22.159,22.159,0,0,0-3.325-.382,13.75,13.75,0,0,1-3.773-.53,17.6,17.6,0,0,0-3.756-.071c-1.654.055-3.189.157-3.2.158a1,1,0,0,1-.246-.014,115.577,115.577,0,0,0-13-1.3,53.148,53.148,0,0,0-16.276,2.144,1,1,0,0,1-.4.041c-.043,0-4.347-.433-6.027-.433-.752,0-4.357.388-8.571.922-4.8.609-7.751,1.072-8.179,1.215-.756.251-3.99,1.082-6.529,1.717-5.59,1.4-5.895,1.4-6.041,1.4a29.462,29.462,0,0,0-4.645.423c-.043.012-.638.2-2.219,2.183-.956,1.2-2.1,2.826-3.4,4.842-2.231,3.459-4.162,6.887-4.182,6.921a1,1,0,0,1-1.743-.981c.02-.035,2.011-3.569,4.3-7.109A61.265,61.265,0,0,1,13.737,83.8C15.585,81.507,16.5,81.1,17.1,81a31.607,31.607,0,0,1,4.922-.451c.9-.148,10.627-2.558,11.994-3.012C35.508,77.04,49.6,75.3,51.4,75.3c1.584,0,5.134.336,6.026.423.6-.18,2.485-.719,5.108-1.225a50.056,50.056,0,0,1,11.675-.947,118.42,118.42,0,0,1,13.132,1.307c.415-.026,1.83-.112,3.3-.158,3.437-.107,4.142.079,4.518.265a21.262,21.262,0,0,0,3.07.346,22.96,22.96,0,0,1,3.675.438,31.261,31.261,0,0,1,3.963.559c2.628.553,4.465,1.373,5.477,2.441a15.373,15.373,0,0,1,4.232.807c1.274.382,2.4.791,2.888.971a6.342,6.342,0,0,1,4.426,1.1c.835.626,1.284,1.934,1.905,3.744a31.743,31.743,0,0,0,2.23,5.32,14.873,14.873,0,0,0,4.5,5.088,1,1,0,0,1-.573,1.82Z" transform="translate(-5.393 6.154)" fill="#5bb3b3" />
            <path d="M118.6,97.823a1,1,0,0,1-.995-.908c-.277-3-1.707-5.8-3.09-8.5l-2.4-4.7a4.828,4.828,0,0,0-.512-.856,4.915,4.915,0,0,0-.968-.8l-7.931-5.531-.006,0a1,1,0,1,1,1.144-1.641l.006,0,7.93,5.53a5.168,5.168,0,0,1,2.115,2.381l.008.015,2.4,4.684c1.4,2.738,2.988,5.842,3.3,9.225a1,1,0,0,1-.9,1.088C118.665,97.822,118.633,97.823,118.6,97.823Z" transform="translate(-14.765 6.036)" fill="#5bb3b3" />
            <path d="M72.549,97.945a1,1,0,0,1-.961-1.28c.157-.541.278-1.139.407-1.772a11.211,11.211,0,0,1,1.528-4.367,7.765,7.765,0,0,1,.751-.871c.174-.182.339-.355.477-.528a7.872,7.872,0,0,0,.992-1.927l3.31-8.12a2.632,2.632,0,0,1,1.829-1.761c2.291-.882,4.684-1.8,7.315-2.8a1,1,0,1,1,.71,1.87c-2.628,1-5.019,1.912-7.308,2.793a.777.777,0,0,0-.693.646l-3.311,8.123a9.626,9.626,0,0,1-1.277,2.415c-.2.246-.4.46-.6.667a6.175,6.175,0,0,0-.566.647,9.821,9.821,0,0,0-1.2,3.6c-.131.646-.266,1.314-.447,1.935A1,1,0,0,1,72.549,97.945Z" transform="translate(-11.781 6.061)" fill="#5bb3b3" />
            <path d="M46.417,97.89a1,1,0,0,1-.85-1.526,33.974,33.974,0,0,0,3.193-6.724c.17-.492.336-1.007.5-1.5.754-2.339,1.534-4.758,3.271-6.653a17.016,17.016,0,0,1,4.8-3.313,23.061,23.061,0,0,0,3.164-1.9A1,1,0,0,1,61.7,77.865a24.912,24.912,0,0,1-3.434,2.071A15.294,15.294,0,0,0,54,82.833c-1.441,1.573-2.122,3.683-2.842,5.916-.164.508-.333,1.033-.511,1.546a35.978,35.978,0,0,1-3.382,7.121A1,1,0,0,1,46.417,97.89Z" transform="translate(-9.244 5.904)" fill="#5bb3b3" />
            <path d="M16.965,98.253a1,1,0,0,1-.973-1.235,5.851,5.851,0,0,1,2.088-2.882c.208-.187.405-.364.588-.543a16.424,16.424,0,0,0,2.317-3.156c.324-.522.66-1.061,1.018-1.584,3.2-4.658,8.152-7.776,12.522-10.528a1,1,0,0,1,1.066,1.692c-4.206,2.648-8.973,5.65-11.939,9.968-.333.485-.656,1-.968,1.507a18.172,18.172,0,0,1-2.617,3.53c-.213.209-.435.408-.65.6a4.283,4.283,0,0,0-1.481,1.863A1,1,0,0,1,16.965,98.253Z" transform="translate(-6.383 5.7)" fill="#5bb3b3" />
        </g>
        <path d="M46.067,122.453a1,1,0,0,1-.616-.212c-2.312-1.809-4.932-3.86-8.118-4.75-2.787-.779-6.693-.479-8.442,1.612a1,1,0,0,1-1.565-.039,9.341,9.341,0,0,0-4.2-2.915,21.43,21.43,0,0,0-6.34-1.279A33.621,33.621,0,0,0,2.854,117a1,1,0,0,1-.743-1.857,35.719,35.719,0,0,1,14.806-2.272c5,.319,8.946,1.775,11.265,4.131a8.647,8.647,0,0,1,4-1.722,13.042,13.042,0,0,1,5.689.283,22.653,22.653,0,0,1,7.611,4.169,5.939,5.939,0,0,1,1.431-1.956,9.6,9.6,0,0,1,3.733-2.035,12.113,12.113,0,0,1,5.5-.363,7.756,7.756,0,0,1,3.9,1.785,20.8,20.8,0,0,1,7.229-3.939,29.1,29.1,0,0,1,9.62-1.34,28.68,28.68,0,0,1,9.344,1.782,20.27,20.27,0,0,1,6.737,4.088,19.819,19.819,0,0,1,8.373-5.337,30.509,30.509,0,0,1,11.786-1.561c.948.061,1.9.113,2.82.164,6.39.352,12.44.686,17.83,3.765,1.636-1.6,4.689-2.852,9.1-3.729a1,1,0,1,1,.39,1.962c-4.394.874-7.4,2.168-8.479,3.642a1,1,0,0,1-1.339.259,22.618,22.618,0,0,0-8.219-3.009,76.893,76.893,0,0,0-9.392-.892c-.925-.051-1.881-.1-2.838-.165a28.464,28.464,0,0,0-11,1.452,17.135,17.135,0,0,0-8.163,5.54,1,1,0,0,1-1.531.08,17.723,17.723,0,0,0-6.788-4.389,26.659,26.659,0,0,0-8.685-1.652,27.07,27.07,0,0,0-8.951,1.243,18.322,18.322,0,0,0-7.205,4.159,1,1,0,0,1-1.488-.107c-1.615-2.091-5.231-2.349-7.967-1.523-1.918.579-4.018,1.9-4.159,3.868a1,1,0,0,1-1,.928Z" transform="translate(0.105 20.404)" fill="#5bb3b3" />
        <g transform="translate(18.074 -35.677)">
            <path d="M17.152-1A18.147,18.147,0,0,1,29.988,29.988,18.152,18.152,0,1,1,10.086.427,18.039,18.039,0,0,1,17.152-1Zm0,34.3A16.152,16.152,0,0,0,28.573,5.731,16.152,16.152,0,0,0,5.731,28.573,16.046,16.046,0,0,0,17.152,33.3Z" transform="matrix(0.257, -0.966, 0.966, 0.257, -0.438, 83.319)" fill="#5bb3b3" />
            <path d="M0,8.769a1,1,0,0,1-1-1V0A1,1,0,0,1,0-1,1,1,0,0,1,1,0V7.769A1,1,0,0,1,0,8.769Z" transform="translate(20.542 41.933)" fill="#5bb3b3" />
            <path d="M0,8.769a1,1,0,0,1-1-1V0A1,1,0,0,1,0-1,1,1,0,0,1,1,0V7.769A1,1,0,0,1,0,8.769Z" transform="translate(20.542 93.428)" fill="#5bb3b3" />
            <path d="M5.494,6.494A1,1,0,0,1,4.787,6.2L-.707.707a1,1,0,0,1,0-1.414,1,1,0,0,1,1.414,0L6.2,4.787a1,1,0,0,1-.707,1.707Z" transform="translate(-0.412 50.612)" fill="#5bb3b3" />
            <path d="M5.494,6.494A1,1,0,0,1,4.787,6.2L-.707.707a1,1,0,0,1,0-1.414,1,1,0,0,1,1.414,0L6.2,4.787a1,1,0,0,1-.707,1.707Z" transform="translate(36.001 87.024)" fill="#5bb3b3" />
            <path d="M7.769,1.027h0L0,1A1,1,0,0,1-1,0,1,1,0,0,1,0-1l7.769.027a1,1,0,0,1,0,2Z" transform="translate(42.405 71.641)" fill="#5bb3b3" />
            <path d="M0,6.475a1,1,0,0,1-.71-.3,1,1,0,0,1,0-1.414L4.809-.71a1,1,0,0,1,1.414,0,1,1,0,0,1,0,1.414L.7,6.184A1,1,0,0,1,0,6.475Z" transform="translate(36.054 50.684)" fill="#5bb3b3" />
            <path d="M0,6.475a1,1,0,0,1-.71-.3,1,1,0,0,1,0-1.414L4.809-.71a1,1,0,0,1,1.414,0,1,1,0,0,1,0,1.414L.7,6.184A1,1,0,0,1,0,6.475Z" transform="translate(-0.484 86.971)" fill="#5bb3b3" />
            <path d="M0,8.19a1,1,0,0,1-.378-.075,1,1,0,0,1-.547-1.3L2.017-.379a1,1,0,0,1,1.3-.547,1,1,0,0,1,.547,1.3L.926,7.569A1,1,0,0,1,0,8.19Z" transform="translate(28.823 44.14)" fill="#5bb3b3" />
            <path d="M0,8.19a1,1,0,0,1-.378-.075,1,1,0,0,1-.547-1.3L2.017-.379a1,1,0,0,1,1.3-.547,1,1,0,0,1,.547,1.3L.926,7.569A1,1,0,0,1,0,8.19Z" transform="translate(9.319 91.799)" fill="#5bb3b3" />
            <path d="M3,8.166a1,1,0,0,1-.923-.614l-3-7.166A1,1,0,0,1-.387-.922,1,1,0,0,1,.922-.387l3,7.166A1,1,0,0,1,3,8.166Z" transform="translate(9.085 44.237)" fill="#5bb3b3" />
            <path d="M3,8.166a1,1,0,0,1-.923-.614l-3-7.166A1,1,0,0,1-.387-.922,1,1,0,0,1,.922-.387l3,7.166A1,1,0,0,1,3,8.166Z" transform="translate(28.994 91.728)" fill="#5bb3b3" />
            <path d="M7.18,3.968A1,1,0,0,1,6.8,3.892L-.382.924A1,1,0,0,1-.924-.382,1,1,0,0,1,.382-.924L7.563,2.044A1,1,0,0,1,7.18,3.968Z" transform="translate(40.747 79.915)" fill="#5bb3b3" />
            <path d="M7.18,3.968A1,1,0,0,1,6.8,3.892L-.382.924A1,1,0,0,1-.924-.382,1,1,0,0,1,.382-.924L7.563,2.044A1,1,0,0,1,7.18,3.968Z" transform="translate(-6.844 60.247)" fill="#5bb3b3" />
            <path d="M0,3.979a1,1,0,0,1-.924-.617,1,1,0,0,1,.54-1.307L6.792-.924A1,1,0,0,1,8.1-.383,1,1,0,0,1,7.559.924L.383,3.9A1,1,0,0,1,0,3.979Z" transform="translate(40.734 60.203)" fill="#5bb3b3" />
            <path d="M0,3.979a1,1,0,0,1-.924-.617,1,1,0,0,1,.54-1.307L6.792-.924A1,1,0,0,1,8.1-.383,1,1,0,0,1,7.559.924L.383,3.9A1,1,0,0,1,0,3.979Z" transform="translate(-6.826 79.948)" fill="#5bb3b3" />
            <path d="M7.769,1.027h0L0,1A1,1,0,0,1-1,0,1,1,0,0,1,0-1l7.769.027a1,1,0,0,1,0,2Z" transform="translate(-9.09 71.463)" fill="#5bb3b3" />
        </g>
        <path d="M138.156,226.829a1,1,0,0,1-.483-.125,23.306,23.306,0,0,0-20.944-.609,1,1,0,0,1-1.385-.6,8.312,8.312,0,0,0-15.215-1.353,1,1,0,0,1-1.694.123,6.978,6.978,0,0,0-3.314-2.429,9.628,9.628,0,0,0-8.345,1.029,6.977,6.977,0,0,0-2.625,3.16,1,1,0,0,1-1.432.489,6.119,6.119,0,0,0-4.025-.7,1,1,0,0,1-.291-1.979,8.294,8.294,0,0,1,4.356.479,9.137,9.137,0,0,1,2.9-3.106,11.625,11.625,0,0,1,10.139-1.25A9.2,9.2,0,0,1,99.113,222a10.26,10.26,0,0,1,17.74,1.844,25.347,25.347,0,0,1,21.054.719,9.278,9.278,0,0,1,2.864-2.1,11.048,11.048,0,0,1,8.529-.366,9.136,9.136,0,0,1,3.637,2.464,1,1,0,1,1-1.493,1.331,7.157,7.157,0,0,0-2.852-1.925,9.049,9.049,0,0,0-6.957.3,7.16,7.16,0,0,0-2.677,2.162A1,1,0,0,1,138.156,226.829Z" transform="translate(-17.406 57.876)" fill="#5bb3b3" />
        <path d="M249.224,220.843a1,1,0,0,1-.483-.125,23.306,23.306,0,0,0-20.944-.609,1,1,0,0,1-1.385-.6,8.312,8.312,0,0,0-15.215-1.353,1,1,0,0,1-1.694.123,6.978,6.978,0,0,0-3.314-2.429,9.628,9.628,0,0,0-8.345,1.029,6.977,6.977,0,0,0-2.625,3.16,1,1,0,0,1-1.432.489,6.119,6.119,0,0,0-4.025-.7,1,1,0,0,1-.291-1.979,8.3,8.3,0,0,1,4.356.479,9.137,9.137,0,0,1,2.9-3.106,11.625,11.625,0,0,1,10.139-1.25,9.2,9.2,0,0,1,3.313,2.049,10.26,10.26,0,0,1,17.74,1.844,25.347,25.347,0,0,1,21.054.719,9.278,9.278,0,0,1,2.864-2.1,11.048,11.048,0,0,1,8.529-.366A9.137,9.137,0,0,1,264,218.575a1,1,0,0,1-1.493,1.331,7.157,7.157,0,0,0-2.852-1.925,9.049,9.049,0,0,0-6.957.3,7.159,7.159,0,0,0-2.677,2.162A1,1,0,0,1,249.224,220.843Z" transform="translate(-38.051 52.373)" fill="#5bb3b3" />
        <path d="M362.141,232.27a1,1,0,0,1-1-.956c-.011-.258-1.127-25.9-1.165-31.409a6.824,6.824,0,0,0-1.428-4.717,4.62,4.62,0,0,0-2.253-1.24,1,1,0,1,1,.537-1.927c1.261.352,5.1,1.421,5.143,7.87.037,5.474,1.152,31.077,1.163,31.335a1,1,0,0,1-.955,1.043Z" transform="translate(-18 21.009)" fill="#5bb3b3" />
        <path d="M369.475,238.13a1,1,0,0,1-1-.985c0-.275-.415-27.636-.22-36.214.02-.873.027-1.663.034-2.427.031-3.33.053-5.736,1.182-8.1,1.106-2.318,3.192-4.524,7.442-7.871a1,1,0,0,1,1.237,1.571c-3.934,3.1-5.926,5.172-6.874,7.161-.937,1.965-.956,3.958-.987,7.258-.007.771-.015,1.568-.035,2.454-.194,8.54.216,35.863.22,36.138a1,1,0,0,1-.985,1.015Z" transform="translate(-18 15.099)" fill="#5bb3b3" />
        <path d="M407.838,237.334a1,1,0,0,1-1-.968c0-.1-.334-10.555-.109-18.658a31.4,31.4,0,0,1,1.014-8.212c1.04-3.763,2.762-6.217,5.12-7.294a1,1,0,1,1,.831,1.819c-4.018,1.836-5.011,9.466-4.965,13.684q0,.019,0,.039c-.225,8.046.1,18.453.108,18.557a1,1,0,0,1-.967,1.032Z" transform="translate(-18 15.632)" fill="#5bb3b3" />
        <path d="M400.114,241.744a1,1,0,0,1-1-.995L399,218.464q0-.031,0-.062a15.207,15.207,0,0,0-.592-4.635,7.809,7.809,0,0,0-1.707-3.131A5.27,5.27,0,0,0,393.288,209a1,1,0,0,1,.215-1.988c3.354.363,5.715,2.514,6.83,6.221A17.075,17.075,0,0,1,401,218.48l.119,22.258a1,1,0,0,1-.995,1.005Z" transform="translate(-18 11.444)" fill="#5bb3b3" />
        <path d="M.055,9.035a1,1,0,0,1-1-.993L-1,.007A1,1,0,0,1-.007-1,1,1,0,0,1,1-.007l.055,8.035A1,1,0,0,1,.062,9.035Z" transform="translate(387.897 206.812)" fill="#5bb3b3" />
        <path d="M401.779,209.922a6.224,6.224,0,0,0-5.848-4.656,1,1,0,0,1,.191-1.991,8.453,8.453,0,0,1,6.254,3.34,7.884,7.884,0,0,1,1.367,2.93l-1.965.371Z" transform="translate(-18 9.722)" fill="#5bb3b3" />
        <path d="M368.141,186.586a1,1,0,0,1-.782-1.622c.147-.185,3.649-4.56,6.889-6.132a1,1,0,0,1,.873,1.8c-2.836,1.376-6.164,5.536-6.2,5.578A1,1,0,0,1,368.141,186.586Z" transform="translate(-18 15.099)" fill="#5bb3b3" />
        <path d="M362.684,191.745a1,1,0,0,1-.66-.249h0a7.384,7.384,0,0,0-3.974-1.539,1,1,0,1,1,.143-1.995A9.294,9.294,0,0,1,363.348,190a1,1,0,0,1-.665,1.748Z" transform="translate(-18 15.099)" fill="#5bb3b3" />
        <path d="M296.188,236.83a1,1,0,0,1-1-.954c-.007-.142-.162-3.638-.243-17.252a17.029,17.029,0,0,0-1.828-7.9,14.483,14.483,0,0,0-3.926-4.674,15.823,15.823,0,0,0-5.672-2.858,1,1,0,0,1,.428-1.954,17.716,17.716,0,0,1,6.478,3.237,16.47,16.47,0,0,1,4.462,5.317,19,19,0,0,1,2.058,8.824c.081,13.548.239,17.137.241,17.172a1,1,0,0,1-.953,1.045Z" transform="translate(-18 17.003)" fill="#5bb3b3" />
        <path d="M305.03,236.877H305a1,1,0,0,1-.972-1.027c0-.035.093-3.622.012-17.168a19.021,19.021,0,0,1,1.951-8.85,16.539,16.539,0,0,1,4.4-5.381,17.786,17.786,0,0,1,6.436-3.334,1,1,0,0,1,.459,1.947,16.085,16.085,0,0,0-5.7,2.995,14.538,14.538,0,0,0-3.831,4.727,17.071,17.071,0,0,0-1.71,7.883c.082,13.6-.011,17.2-.012,17.235A1,1,0,0,1,305.03,236.877Z" transform="translate(-18 17.003)" fill="#5bb3b3" />
        <path d="M301.309,204.995a1,1,0,0,1-1-1c0-.547.185-1.69,1.785-5.291.849-1.91,1.71-3.634,1.718-3.651a1,1,0,0,1,1.789.894c-.008.017-.852,1.706-1.682,3.576-1.532,3.449-1.61,4.331-1.61,4.472A1,1,0,0,1,301.309,204.995Z" transform="translate(-18 15.099)" fill="#5bb3b3" />
        <path d="M116.1,208.225a1,1,0,0,1-.6-1.8c.2-.151,4.962-3.68,9.93-1.823,4.284,1.6,10.837,1.622,10.9,1.622a1,1,0,0,1,0,2c-.283,0-6.977-.02-11.6-1.748-3.95-1.477-7.984,1.516-8.025,1.546A1,1,0,0,1,116.1,208.225Z" transform="translate(-17.406 57.876)" fill="#5bb3b3" />
        <path d="M167.91,90.209A83.955,83.955,0,1,1,83.955,6.254,83.954,83.954,0,0,1,167.91,90.209" transform="translate(116.045 69.791)" fill="#ffd964" />
        <path d="M133.245,67.383c-27.39-20.153-32.663-7.26-23.98-36.873-1.7-1.495,7.96-6.223,4.793-1.45,3.805-.665,3.8-3.372,3.8-3.372.485-3.478,3.805-11.13-2.316-12.691-5.588,1.924,1.993,6.338-4.588,5.824-.728.675-1.836-3.211-.481-3.883.871-.654-9.468-.821-8.395,1.413-2.228,1.312-5.689-2.187-5.533-1.8a3.2,3.2,0,0,0-4.085-.08c-5.077-.151-5.411-3.893-7.787-3.938-4.772,1.279-6.861,1.692-11.385-4.779-1.671,4.11-3.977-2.839-4.674-4.256-2.054,2.212-4.785,1.073-6.29,2.314-4.8,1.9-.581.812,1.13,4.16,3.3-.888,5.069,3.986,7.643,7.262-4.5-1.444-3.064,2.49-3.686,2.249-1.269-3.968-3.912,1.6-6.458-1.152-3.776,3.959-5.667,1.27-9.1.062-4.627,2.318-1.99,4.3-5.713,5.742C41.731,19.6,39.108,28.6,41.895,29.4c-3.654,2.17-17.072,14.946-6.014,14.449-3.239,1.648.667,9.085-1.453,7.165-.975-.649-7.355-1.821-7.355-1.821l-.33,131.115,106.371-.509S133.538,133.714,133.245,67.383Z" transform="translate(119.955 69.096)" fill="#f1b981" />
        <path d="M68.609-.5A2,2,0,0,1,70.4.617c.132.267.279.619.465,1.065.279.668.626,1.5,1.005,2.238q.078.153.149.283a2,2,0,0,1,2.9.407C77.95,8.94,79.358,9.3,80.541,9.3a15.41,15.41,0,0,0,3.61-.7,2,2,0,0,1,.556-.068,5.291,5.291,0,0,1,3.726,1.993,5.168,5.168,0,0,0,3.549,1.912,5.49,5.49,0,0,1,2.525-.66,5.162,5.162,0,0,1,2.879.925,4.272,4.272,0,0,1,.771.5,9.286,9.286,0,0,0,2.3,1.36c.6-.878,1.721-1.436,3.511-1.753a23.357,23.357,0,0,1,3.839-.3,18.349,18.349,0,0,1,2.119.107,3.432,3.432,0,0,1,1.921.716,5.343,5.343,0,0,1,3.04-2.225,2,2,0,0,1,1.145-.047,6.665,6.665,0,0,1,3.754,2.335,6.958,6.958,0,0,1,1.352,3.639,21.411,21.411,0,0,1-.848,6.794c-.185.774-.359,1.507-.443,2.056a5.1,5.1,0,0,1-.766,2.3,6.51,6.51,0,0,1-4.679,2.848,2,2,0,0,1-2.241-1.337,6.475,6.475,0,0,0-.906.619,2,2,0,0,1-.071.76c-2.644,9.018-4.209,14.7-3.636,17.573.422,2.115,2.147,3.039,7.073,5.4a112.959,112.959,0,0,1,19.809,11.73,2,2,0,0,1,.815,1.6c.29,65.587-.128,111.982-.132,112.443a2,2,0,0,1-1.99,1.982l-106.371.509a2,2,0,0,1-2.01-2.005l.33-131.115a2,2,0,0,1,2.362-1.962c.066.012,1.647.3,3.376.68.721.157,1.326.3,1.837.425a11.566,11.566,0,0,1-.1-2.013,7.309,7.309,0,0,1,.081-.8,5.407,5.407,0,0,1-.766-.3,3.859,3.859,0,0,1-2.116-2.465c-.616-2.245.746-5.173,4.165-8.952A44.263,44.263,0,0,1,39.023,29L39,28.925a6.5,6.5,0,0,1-.173-2.857,9.246,9.246,0,0,1,1.609-4.042A5.187,5.187,0,0,1,44.6,19.688a4.742,4.742,0,0,1,1.507.25,1.3,1.3,0,0,0,.285-.233,2.673,2.673,0,0,0,.357-.727c.588-1.488,1.352-2.941,4.206-4.371a2,2,0,0,1,1.56-.1A20.05,20.05,0,0,1,54.9,15.573a6.073,6.073,0,0,0,2.271.841c.932,0,1.981-1.1,2.325-1.461a2,2,0,0,1,2.916.023.868.868,0,0,0,.179.157,4.171,4.171,0,0,0,1.065-.419A5.364,5.364,0,0,1,66.032,14a3.132,3.132,0,0,1,.578.053,3.308,3.308,0,0,1,.808-.653c-1.038-1.618-2.3-3.535-3.193-3.535a.994.994,0,0,0-.256.038,2,2,0,0,1-2.3-1.021A3.721,3.721,0,0,0,59.855,7.3a6.221,6.221,0,0,1-.728-.422A2.267,2.267,0,0,1,58.1,4.893a2.61,2.61,0,0,1,1.575-2.109,17.928,17.928,0,0,1,1.659-.731A6.613,6.613,0,0,1,64.52,1.1,3.688,3.688,0,0,0,67.144.139,2,2,0,0,1,68.609-.5Zm3.485,9.54c-1.716,0-2.785-1.521-3.44-2.665-.346-.605-.663-1.27-.941-1.895a10.469,10.469,0,0,1-2.738.589,9,9,0,0,0-1.1.17,6.818,6.818,0,0,1,.583.634,5.678,5.678,0,0,1,3.906,2.048,24.592,24.592,0,0,1,2.53,3.492c.571.891,1.162,1.813,1.771,2.587a2,2,0,0,1-2.184,3.14,4.957,4.957,0,0,0-.857-.206c0,.057-.009.111-.012.157a4.418,4.418,0,0,1-.089.7,2.109,2.109,0,0,1-2.839,1.561,2,2,0,0,1-1.13-1.109l-.139.068a6.335,6.335,0,0,1-2.825.824,3.949,3.949,0,0,1-1.435-.27,6.232,6.232,0,0,1-3.979,1.551,8.94,8.94,0,0,1-4.068-1.267c-.366-.184-.738-.371-1.12-.542a3.131,3.131,0,0,0-1.517,1.843A5.506,5.506,0,0,1,46.862,24a2,2,0,0,1-1.718-.132,1.163,1.163,0,0,0-.541-.183c-.321,0-.744.364-1.106.951a5.372,5.372,0,0,0-.7,1.941,3.048,3.048,0,0,0-.011,1.028,2,2,0,0,1,.132,3.511,34.21,34.21,0,0,0-5.954,5.27C34.2,39.424,33.6,41.125,33.6,41.617a3.923,3.923,0,0,0,1.679.246c.164,0,.337,0,.516-.012a2,2,0,0,1,1,3.78c-.156.079-.231.523-.248.878a13,13,0,0,0,.324,2.791c.25,1.322.448,2.366-.291,3.258a2.121,2.121,0,0,1-1.639.769,2.555,2.555,0,0,1-1.633-.645,36.269,36.269,0,0,0-4.235-1.06L28.747,178.3l102.382-.49c.075-9.452.368-51.965.12-109.406A107.83,107.83,0,0,0,112.893,57.65a37.507,37.507,0,0,1-6.024-3.289,7.831,7.831,0,0,1-3.244-4.934c-.713-3.577.515-8.515,3.507-18.75a2.682,2.682,0,0,1,.114-1.573,6.557,6.557,0,0,1,2.926-2.881,8.665,8.665,0,0,1,3.781-1.244,2.771,2.771,0,0,1,1.9.666,2,2,0,0,1,.019-.233c.1-.746.309-1.6.525-2.512a18.562,18.562,0,0,0,.758-5.474,2.4,2.4,0,0,0-1.53-2.3,1.313,1.313,0,0,0-.3.2,4.39,4.39,0,0,0,.2.891,3.581,3.581,0,0,1-.248,3.356,4.02,4.02,0,0,1-3.372,1.287c-.2,0-.416-.006-.645-.017a2.217,2.217,0,0,1-.488.054c-.624,0-2.141-.284-2.759-2.916a6.782,6.782,0,0,1-.187-1.475h-.018A16.022,16.022,0,0,0,104,16.89a2,2,0,0,1-.911,1.184,4.185,4.185,0,0,1-2.154.573c-2.187,0-4.208-1.516-5.179-2.245l-.027-.02a2,2,0,0,1-.367-.212,1.476,1.476,0,0,0-.855-.389,2.028,2.028,0,0,0-.978.381,2,2,0,0,1-1.132.311,9.072,9.072,0,0,1-6.8-3.123,6.466,6.466,0,0,0-.847-.767,16.513,16.513,0,0,1-4.21.72,7.359,7.359,0,0,1-4.577-1.563A16.041,16.041,0,0,1,73.1,8.851,2.7,2.7,0,0,1,72.095,9.04Z" transform="translate(119.955 69.096)" fill="#313e58" />
        <path d="M44.185,10.59c8.631,4.165,19.217-10.275-.15-4.4,0,0-2.862-4.121-2.349-1.522L39.2,8.609C31.858,11.906,44.329,10.035,44.185,10.59Z" transform="translate(121.438 69.434)" fill="#f1b981" />
        <path d="M47.567,13.356a9.7,9.7,0,0,1-4.065-.878c-.394,0-1,.03-1.641.061-.867.042-1.85.089-2.733.089h0a11.6,11.6,0,0,1-1.873-.118,3.779,3.779,0,0,1-1.019-.3,2.262,2.262,0,0,1-.853-3.492,3.687,3.687,0,0,1,.824-.767,11.315,11.315,0,0,1,1.615-.907l1.8-2.851A2.442,2.442,0,0,1,40.148,2.6a2.147,2.147,0,0,1,1.665-.785c1.087,0,1.906.738,2.875,1.929l.119.147a26.613,26.613,0,0,1,6.77-1.123,6.917,6.917,0,0,1,3.618.811,3.473,3.473,0,0,1,1.756,3.014c0,1.655-1.122,3.387-3.078,4.754A11.128,11.128,0,0,1,47.567,13.356ZM45.314,8.905a5.746,5.746,0,0,0,2.253.451,7.226,7.226,0,0,0,3.86-1.185A4.734,4.734,0,0,0,52.8,6.884a5.152,5.152,0,0,0-1.222-.118,25.148,25.148,0,0,0-6.961,1.342,2,2,0,0,1-2.224-.773l-.012-.017L41.6,8.547l.065,0c.728-.035,1.357-.066,1.847-.066A3.014,3.014,0,0,1,45.314,8.905Z" transform="translate(121.438 69.434)" fill="#313e58" />
        <path d="M103.878,34.462s0-3.724,1.861-3.724,3.724,0,3.724,1.863C111.95,42.779,104.781,37.364,103.878,34.462Z" transform="translate(131.232 73.371)" fill="#f1b981" />
        <path d="M105.739,28.738a10.143,10.143,0,0,1,3.193.336,3.511,3.511,0,0,1,2.523,3.257c.805,3.4.686,5.613-.37,6.959a3.2,3.2,0,0,1-2.57,1.232,6.536,6.536,0,0,1-4.089-1.939,8.919,8.919,0,0,1-2.458-3.527,2,2,0,0,1-.09-.594,10.656,10.656,0,0,1,.292-2.347C102.932,29.067,104.92,28.738,105.739,28.738Zm1.736,4.079a9.11,9.11,0,0,0-1.322-.078,5.607,5.607,0,0,0-.261,1.372,5.753,5.753,0,0,0,1.143,1.437,5.616,5.616,0,0,0,.945.729,12.478,12.478,0,0,0-.46-3.2A2,2,0,0,1,107.475,32.817Z" transform="translate(131.232 73.371)" fill="#313e58" />
        <rect width="167.91" height="182.246" transform="translate(116.045 68.877)" fill="none" />
        <path d="M18.6,0H14.739L5.26-15.359H5.155l.066.857q.185,2.452.185,4.482V0H2.544V-19.274H6.368L15.82-3.995H15.9q-.026-.3-.105-2.208t-.079-2.973v-10.1H18.6ZM31.4,0H28.251V-16.572H22.582v-2.7H37.071v2.7H31.4Z" transform="translate(177.791 177.452)" fill="#313e58" />
        <rect width="167.91" height="182.246" transform="translate(116.045 68.877)" fill="none" />
    </g>
</svg>