<svg xmlns="http://www.w3.org/2000/svg" xmlns:xlink="http://www.w3.org/1999/xlink" width="400"
    height="320" viewBox="0 0 400 320">
    <defs>
        <clipPath>
            <path
                d="M35.89,27.624v94.092c0,2.018,1.059,3.654,2.365,3.654s2.364-1.636,2.364-3.654V27.624c0-2.018-1.059-3.654-2.364-3.654s-2.365,1.636-2.365,3.654"
                transform="translate(0 0)" fill="none" />
        </clipPath>
        <clipPath>
            <rect width="400" height="320" />
        </clipPath>
    </defs>
    <g clip-path="url(#c)">
        <path d="M85.211,1H0A1,1,0,0,1-1,0,1,1,0,0,1,0-1H85.211a1,1,0,0,1,1,1A1,1,0,0,1,85.211,1Z"
            transform="translate(0 104.424)" fill="#5ab3b3" />
        <path d="M85.211,1H0A1,1,0,0,1-1,0,1,1,0,0,1,0-1H85.211a1,1,0,0,1,1,1A1,1,0,0,1,85.211,1Z"
            transform="translate(0 115.802)" fill="#5ab3b3" />
        <g transform="translate(-35.958 5.235)">
            <path
                d="M81.873,65.7c0,9.524-6.279,17.317-13.951,17.317H44.885c-7.673,0-13.951-7.793-13.951-17.317V35.706H81.873Z"
                transform="translate(16.898 11.183)" fill="#c0e2e2" />
            <path
                d="M95.878,56.6a1.322,1.322,0,0,0,1.28-.982,39.783,39.783,0,0,0-3.413-28.7,16.809,16.809,0,0,0-5.833-6.709c-3.695-2.183-8.185-1.934-12.148-1.718l-.3.017c-8.7.474-21.137.215-28.555-7.464a1.331,1.331,0,0,0-1.872-.039,1.3,1.3,0,0,0-.038,1.857c8.17,8.461,21.383,8.772,30.611,8.269l.306-.017c3.761-.206,7.647-.422,10.647,1.353,1.79,1.056,3.331,2.864,4.852,5.689a37.149,37.149,0,0,1,3.186,26.8,1.312,1.312,0,0,0,.947,1.6,1.348,1.348,0,0,0,.335.043"
                transform="translate(-17.784 3.333)" fill="#c0e1e2" />
            <path
                d="M96.955,79.349c1.072,0,1.984-.517,2.078-1.2.1-.722-.755-1.358-1.9-1.42a22.22,22.22,0,0,1-16.819-8.819c-2.682-3.8-3.7-8.1-4.677-12.256-.225-.951-.448-1.9-.69-2.846-1.31-5.094-3.454-10.89-9.439-15.254a45.406,45.406,0,0,0-9.336-4.875,41.47,41.47,0,0,0-7.709-2.466c-7.536-1.5-16.787-.043-24.144,3.811C17.864,37.4,13.367,42.089,9.4,46.225c-.594.621-.277,1.427.707,1.8a2.869,2.869,0,0,0,2.864-.445c3.984-4.151,8.1-8.444,14.017-11.542,4.916-2.575,12.807-4.8,20.216-3.325a36.422,36.422,0,0,1,6.692,2.164,41.414,41.414,0,0,1,8.456,4.39c5.3,3.866,7.261,9.224,8.475,13.955.24.934.461,1.873.682,2.813,1.022,4.331,2.08,8.81,4.989,12.936,3.292,4.662,10.346,9.836,20.279,10.369.06,0,.121.005.179.005"
                transform="translate(61.5 9.28)" fill="#c0e1e2" />
            <path
                d="M39.544,64.195a1.326,1.326,0,0,0,1.239-.851,135.805,135.805,0,0,0,7.911-32.381c.281-2.4.9-5.665,3.042-6.251a6.332,6.332,0,0,1,1.532-.138c.369-.005.741-.013,1.109-.045a8.213,8.213,0,0,0,5.63-3.141,8.086,8.086,0,0,0,1.773-6.164,1.328,1.328,0,0,0-1.5-1.107,1.315,1.315,0,0,0-1.117,1.49,5.471,5.471,0,0,1-1.231,4.154,5.56,5.56,0,0,1-3.785,2.152c-.3.026-.61.03-.917.034a8.611,8.611,0,0,0-2.2.232c-4.105,1.125-4.73,6.469-4.965,8.481a133.2,133.2,0,0,1-7.759,31.757,1.312,1.312,0,0,0,.773,1.693,1.349,1.349,0,0,0,.466.084"
                transform="translate(27.268 4.417)" fill="#c0e1e2" />
            <path
                d="M53.533,4.4c-4.161-.947-9.139,2.135-10.467,7.29s5.146,13.376,5.146,13.376,9.654-4.135,10.982-9.29S57.693,5.347,53.533,4.4"
                transform="translate(23.425 1.325)" fill="#c0e2e2" />
            <path
                d="M41.015,6.939c-2.45-1.594-6.4-.788-8.491,2.217s.1,9.828.1,9.828,7.209-.377,9.3-3.381,1.541-7.069-.909-8.663"
                transform="translate(54.649 1.922)" fill="#c0e2e2" />
            <path
                d="M49.292,26.232c.941-2.752-.835-6.341-4.293-7.6s-9.567,2.558-9.567,2.558,2.178,6.829,5.634,8.087,7.285-.294,8.226-3.047"
                transform="translate(43.274 5.756)" fill="#c0e2e2" />
            <path
                d="M62.136,2.584c-3.827.839-6.735,5.341-5.79,10.135s9.577,9.087,9.577,9.087,6.369-7.2,5.424-12-5.384-8.066-9.211-7.227"
                transform="translate(-6.072 0.768)" fill="#c0e2e2" />
            <path
                d="M77.942,2.554c-3.652-.6-7.8,2.335-8.665,6.867s5.177,11.3,5.177,11.3,8.133-4.093,9-8.625-1.863-8.945-5.515-9.544"
                transform="translate(-35.493 0.776)" fill="#c0e2e2" />
            <path
                d="M86.318.083c-3.133.6-5.6,4.211-4.926,8.134S89,15.811,89,15.811s5.335-5.732,4.666-9.655S89.451-.52,86.318.083"
                transform="translate(-61.601 0)" fill="#c0e2e2" />
            <path
                d="M35.359,18.9c-3.388-2.576-9.208-1.825-12.575,2.318S21.863,35.5,21.863,35.5s10.513.218,13.88-3.923,3-10.1-.384-12.682"
                transform="translate(73.822 5.452)" fill="#c0e2e2" />
            <path
                d="M28,31.047c-2.474-3.45-8.26-4.429-12.7-1.452s-5.115,13.388-5.115,13.388,9.985,3.274,14.429.3S30.477,34.5,28,31.047"
                transform="translate(103.746 -0.701)" fill="#c0e2e2" />
            <path
                d="M25.605,48.037c-.492-3.609-4.5-6.651-9.085-6.15s-9.293,8.16-9.293,8.16S13.506,56.5,18.09,56s8.008-4.357,7.515-7.966"
                transform="translate(120.501 0.667)" fill="#c0e2e2" />
            <path
                d="M19.469,54.677c-2.053-2.541-6.538-3.04-9.818-.561s-3.332,10.5-3.332,10.5,7.81,2.077,11.091-.4,4.113-7,2.06-9.54"
                transform="translate(130.622 5.989)" fill="#c0e2e2" />
            <path
                d="M13.15,60.23c-2.053-2.541-6.538-3.04-9.818-.561S0,70.172,0,70.172s7.81,2.077,11.091-.4,4.113-7,2.06-9.539"
                transform="translate(146.273 14.088)" fill="#c0e2e2" />
            <path
                d="M54.241,164.982a1.319,1.319,0,0,0,.635-.163c26.509-14.457,21.7-41.485,17.042-67.624-3.756-21.089-7.64-42.9,5.421-57.385,5.953-6.6,20.417-9.527,28.186-3.4,3.749,2.957,3.913,7.078.478,11.916a1.307,1.307,0,0,0,.319,1.831,1.328,1.328,0,0,0,1.844-.318c4.253-5.988,3.891-11.631-.994-15.484C99.685,28.445,83.538,29,75.367,38.059,61.448,53.5,65.446,75.945,69.311,97.653c4.7,26.389,9.137,51.314-15.708,64.865a1.3,1.3,0,0,0-.523,1.782,1.323,1.323,0,0,0,1.161.682"
                transform="translate(-41.443 9.545)" fill="#c0e1e2" />
            <path
                d="M85.919,56.9c.106,4.232,4.349,8.256,9.711,8.256S107.421,56.9,107.421,56.9s-6.428-8.256-11.791-8.256-9.814,4.024-9.711,8.256"
                transform="translate(-81.435 15.235)" fill="#c0e1e2" />
            <path
                d="M86.553,78.9c2.674,3.3,8.508,3.942,12.769.712s4.316-13.661,4.316-13.661-10.161-2.689-14.423.541S83.879,75.6,86.553,78.9"
                transform="translate(-76.565 20.327)" fill="#c0e1e2" />
            <path
                d="M85.241,95c3.3,2.685,9.142,2.125,12.645-1.9s1.4-14.249,1.4-14.249-10.5-.562-14,3.467-3.337,10-.037,12.687"
                transform="translate(-69.676 24.687)" fill="#c0e1e2" />
            <path
                d="M82.348,107.722c2.527,2.922,7.846,3.337,11.624.278s3.521-12.538,3.521-12.538-9.313-2.151-13.09.907-4.583,8.431-2.056,11.353"
                transform="translate(-64.857 29.668)" fill="#c0e1e2" />
            <path
                d="M81.217,114.933c.3,3.29,3.8,6.211,7.977,5.945s8.761-7.014,8.761-7.014-5.421-6.108-9.6-5.841-7.437,3.62-7.142,6.91"
                transform="translate(-65.722 33.83)" fill="#c0e1e2" />
            <path
                d="M87.16,122.255c-.788,3.209,1.585,7.094,5.623,8.175s10.572-3.844,10.572-3.844-3.152-7.514-7.191-8.594-8.217,1.053-9,4.263"
                transform="translate(-78.817 36.866)" fill="#c0e1e2" />
            <path
                d="M95.379,130.719c-.657,2.675,1.321,5.915,4.687,6.814s8.812-3.2,8.812-3.2-2.626-6.263-5.994-7.163-6.849.879-7.506,3.554"
                transform="translate(-95.254 39.754)" fill="#c0e1e2" />
            <path
                d="M54.879,115.517c2.329,2.152,6.7,2.007,9.5-.829s1.713-10.54,1.713-10.54-7.788-.907-10.585,1.929-2.956,7.287-.627,9.439"
                transform="translate(2.92 32.576)" fill="#c0e2e2" />
            <path
                d="M71.312,162.52a1.3,1.3,0,0,0,.482-.091c7.175-2.787,10.176-11.213,9.432-18.1-.778-7.2-4.808-13.736-8.046-18.986l-.6-.963C60.326,104.517,47.65,83.976,46.544,61.068c-.65-13.438,3.814-24.792,11.94-30.372,6.2-4.259,14.64-4.612,20.059-.838A13.188,13.188,0,0,1,83.9,39.274a10.553,10.553,0,0,1-2.6,8.515,1.309,1.309,0,0,0,.061,1.857,1.332,1.332,0,0,0,1.872-.062A13.126,13.126,0,0,0,86.53,39a15.851,15.851,0,0,0-6.464-11.295c-6.4-4.453-15.891-4.113-23.089.829-8.883,6.1-13.771,18.307-13.078,32.657,1.138,23.581,13.994,44.414,26.428,64.559l.594.964c3.942,6.39,7.009,11.765,7.673,17.894.637,5.894-1.825,13.066-7.765,15.374a1.311,1.311,0,0,0-.751,1.7,1.325,1.325,0,0,0,1.234.835"
                transform="translate(-4.924 7.7)" fill="#c0e2e2" />
            <path
                d="M72.291,86.406c2.906,3.1,8.77,3.326,12.788-.2s3.316-13.933,3.316-13.933S78.065,70.315,74.049,73.84,69.385,83.3,72.291,86.406"
                transform="translate(-42.041 22.466)" fill="#c0e2e2" />
            <path
                d="M74.086,44.337c-.257,4.227,3.627,8.592,8.97,9.043S95.51,46.143,95.51,46.143s-5.7-8.766-11.044-9.216-10.123,3.183-10.38,7.41"
                transform="translate(-53.847 11.554)" fill="#c0e2e2" />
            <path
                d="M66.356,97.713c2.673,2.852,8.067,3.06,11.76-.183s3.051-12.815,3.051-12.815-9.5-1.8-13.194,1.441-4.29,8.705-1.618,11.557"
                transform="translate(-27.144 26.376)" fill="#c0e2e2" />
            <path
                d="M61.557,107.694c2.89,1.764,7.43.7,9.752-2.846s-.443-11.371-.443-11.371-8.331.676-10.652,4.222-1.546,8.231,1.344,9.995"
                transform="translate(-10.422 29.277)" fill="#c0e2e2" />
            <path
                d="M48.846,121.385c.5,2.507,3.433,4.473,6.623,3.93s6.166-6.1,6.166-6.1-4.67-4.263-7.861-3.722-5.425,3.385-4.928,5.892"
                transform="translate(13.516 36.157)" fill="#c0e2e2" />
            <path
                d="M52.867,129.811c.5,2.507,3.433,4.473,6.623,3.93s6.166-6.1,6.166-6.1-4.67-4.263-7.861-3.722-5.425,3.385-4.928,5.892"
                transform="translate(4.172 38.796)" fill="#c0e2e2" />
        </g>
        <path d="M400.5,1H0A1,1,0,0,1-1,0,1,1,0,0,1,0-1H400.5a1,1,0,0,1,1,1A1,1,0,0,1,400.5,1Z"
            transform="translate(-6.943 182.651)" fill="#5ab3b3" />
        <path d="M102,1H0A1,1,0,0,1-1,0,1,1,0,0,1,0-1H102a1,1,0,0,1,1,1A1,1,0,0,1,102,1Z"
            transform="translate(298 105.424)" fill="#5ab3b3" />
        <path d="M102,1H0A1,1,0,0,1-1,0,1,1,0,0,1,0-1H102a1,1,0,0,1,1,1A1,1,0,0,1,102,1Z"
            transform="translate(298 116.802)" fill="#5ab3b3" />
        <path
            d="M0-1H18.073a1,1,0,0,1,1,1V78.96a1,1,0,0,1-1,1H0a1,1,0,0,1-1-1V0A1,1,0,0,1,0-1ZM17.073,1H1V77.96H17.073Z"
            transform="translate(375.484 21.289)" fill="#5ab3b3" />
        <path d="M4.017,1H0A1,1,0,0,1-1,0,1,1,0,0,1,0-1H4.017a1,1,0,0,1,1,1A1,1,0,0,1,4.017,1Z"
            transform="translate(382.512 57.459)" fill="#5ab3b3" />
        <path d="M4.017,1H0A1,1,0,0,1-1,0,1,1,0,0,1,0-1H4.017a1,1,0,0,1,1,1A1,1,0,0,1,4.017,1Z"
            transform="translate(382.512 65.183)" fill="#5ab3b3" />
        <path
            d="M0-1H18.073a1,1,0,0,1,1,1V78.96a1,1,0,0,1-1,1H0a1,1,0,0,1-1-1V0A1,1,0,0,1,0-1ZM17.073,1H1V77.96H17.073Z"
            transform="translate(348.561 21.289)" fill="#5ab3b3" />
        <path d="M4.017,1H0A1,1,0,0,1-1,0,1,1,0,0,1,0-1H4.017a1,1,0,0,1,1,1A1,1,0,0,1,4.017,1Z"
            transform="translate(355.589 57.459)" fill="#5ab3b3" />
        <path d="M4.017,1H0A1,1,0,0,1-1,0,1,1,0,0,1,0-1H4.017a1,1,0,0,1,1,1A1,1,0,0,1,4.017,1Z"
            transform="translate(355.589 65.183)" fill="#5ab3b3" />
        <path
            d="M0-1H18.073a1,1,0,0,1,1,1V78.962a1,1,0,0,1-1,1H0a1,1,0,0,1-1-1V0A1,1,0,0,1,0-1ZM17.073,1H1V77.962H17.073Z"
            transform="matrix(-0.949, -0.316, 0.316, -0.949, 321.116, 101.08)" fill="#5ab3b3" />
        <path
            d="M3.809,2.271a1,1,0,0,1-.317-.052L-.316.949A1,1,0,0,1-.949-.316,1,1,0,0,1,.316-.949L4.126.322a1,1,0,0,1-.316,1.949Z"
            transform="translate(324.167 56.993)" fill="#5ab3b3" />
        <path
            d="M3.809,2.271a1,1,0,0,1-.317-.052L-.316.949A1,1,0,0,1-.949-.316,1,1,0,0,1,.316-.949L4.126.322a1,1,0,0,1-.316,1.949Z"
            transform="translate(321.725 64.32)" fill="#5ab3b3" />
        <path
            d="M274.306,173.158V59.581c0-6.7-4.8-12.141-10.734-12.141H81.5c-5.928,0-10.734,5.436-10.734,12.141V173.158"
            transform="translate(16.106 20.151)" fill="#313e58" />
        <path
            d="M257.431,158.471V55.04a2.046,2.046,0,0,0-1.985-2.1H78.8a2.047,2.047,0,0,0-1.985,2.1V158.471"
            transform="translate(21.518 25.783)" fill="#629d62" />
        <path
            d="M297.183,109.6H63.836a2.058,2.058,0,0,0-1.985,2.122c0,9.312,7.065,16.86,15.777,16.86H283.391c8.713,0,15.777-7.547,15.777-16.86a2.058,2.058,0,0,0-1.985-2.122"
            transform="translate(8.132 86.501)" fill="#7a8293" />
        <path d="M137.8,112.78c.813,2.7,2.91,4.639,5.4,4.639H180c2.486,0,4.583-1.936,5.4-4.639"
            transform="translate(27.69 86.838)" fill="#7a8293" />
        <path d="M-462.353,2744.1H-528v-103.43a2.049,2.049,0,0,1,1.986-2.1h122.236L-462.353,2744.1Z"
            transform="translate(626.334 -2559.848)" fill="#85cb85" />
        <path
            d="M-462.059,2744.6H-528.5v-103.93a2.549,2.549,0,0,1,2.486-2.6h123.085Zm-65.442-1h64.853l58.02-104.532H-526.014a1.549,1.549,0,0,0-1.486,1.6Z"
            transform="translate(626.334 -2559.848)" fill="rgba(0,0,0,0)" />
        <g transform="translate(374.878 94.968)">
            <rect width="62.323" height="11.977" transform="translate(-15.111 131.263)"
                fill="#c0e2e2" />
            <path d="M10.069,93.165l8.722,52.975H57.617l10.66-52.975Z"
                transform="translate(-23.172 51.946)" fill="#c0e2e2" />
            <g transform="translate(-23.172 16.168)" clip-path="url(#a)">
                <rect width="23.796" height="130.863" transform="translate(26.357 9.24)"
                    fill="#c0e2e2" />
            </g>
            <path
                d="M37.946,54.056c0-.031.013-.059.014-.09A24.762,24.762,0,0,0,1.23,31.628,2.363,2.363,0,0,0,.008,33.637a24.763,24.763,0,0,0,36.73,22.339c.027-.015.048-.039.074-.055l-19.057-10.1a2.365,2.365,0,0,1,2.457-4.041"
                transform="translate(-23.172 51.946)" fill="#c0e2e2" />
            <path
                d="M34.907,52.013c0-.029.012-.054.013-.083A22.779,22.779,0,0,0,1.131,31.38,2.173,2.173,0,0,0,.007,33.229,22.765,22.765,0,0,0,10.942,53.3C18,57.595,29.025,58.787,36.127,54.872c.025-.014-1.231-1.078-1.207-1.093L16.333,44.438a2.175,2.175,0,0,1,2.26-3.717"
                transform="translate(-21.652 4.897)" fill="#c0e2e2" />
            <path
                d="M29.9,48.646c0-.024.01-.046.011-.071A19.513,19.513,0,0,0,.969,30.973a1.862,1.862,0,0,0-.963,1.583,19.513,19.513,0,0,0,28.944,17.6c.021-.012.038-.031.058-.043L13.991,42.158a1.863,1.863,0,0,1,1.936-3.184"
                transform="matrix(0.174, 0.985, -0.985, 0.174, 59.275, 4.5)" fill="#c0e2e2" />
            <path
                d="M40.321,66.7c.026.021.044.049.071.07A27.134,27.134,0,0,0,83.685,48.2a2.591,2.591,0,0,0-1.016-2.369A27.134,27.134,0,0,0,39.376,64.4c0,.034,0,.067,0,.1L60.509,53.921a2.591,2.591,0,1,1,2.043,4.762"
                transform="translate(-23.172 49.159)" fill="#c0e2e2" />
            <path
                d="M37.607,27.892c.027.015.047.038.074.052A24.763,24.763,0,0,0,73.923,4.821a2.367,2.367,0,0,0-1.265-1.983A24.763,24.763,0,0,0,36.416,25.961c0,.032.014.06.017.091L53.9,13.4a2.365,2.365,0,0,1,2.544,3.987"
                transform="translate(-23.172 51.946)" fill="#c0e2e2" />
        </g>
        <g transform="translate(3614.686 2243.248)">
            <path
                d="M72.151,213.015a134.271,134.271,0,0,1-27.009-2.42c-7.889-1.7-11.889-3.98-11.889-6.766a3.59,3.59,0,0,1,1.371-2.656,11.894,11.894,0,0,1,3.235-1.928,50.015,50.015,0,0,1,10.948-2.88,1,1,0,1,1,.33,1.973,48.1,48.1,0,0,0-10.487,2.744c-2.127.916-3.4,1.943-3.4,2.747,0,.669.887,1.506,2.433,2.3a34.178,34.178,0,0,0,7.878,2.515,132.255,132.255,0,0,0,26.587,2.375,132.254,132.254,0,0,0,26.588-2.375,34.176,34.176,0,0,0,7.878-2.515c1.546-.79,2.433-1.626,2.433-2.3,0-.9-1.014-1.887-2.855-2.776a38.487,38.487,0,0,0-9.977-2.716,1,1,0,1,1,.324-1.974c9.626,1.581,14.507,4.093,14.507,7.465,0,2.785-4,5.062-11.889,6.766A134.271,134.271,0,0,1,72.151,213.015Z"
                transform="translate(-3639.524 -2193.738)" fill="#5ab3b3" />
            <path
                d="M25.059-1A103.053,103.053,0,0,1,42.961.38a26.545,26.545,0,0,1,5.59,1.547,6.356,6.356,0,0,1,1.73,1.049,2.249,2.249,0,0,1,.837,1.679,2.249,2.249,0,0,1-.837,1.679,6.356,6.356,0,0,1-1.73,1.049,26.545,26.545,0,0,1-5.59,1.547,103.053,103.053,0,0,1-17.9,1.38,103.053,103.053,0,0,1-17.9-1.38,26.544,26.544,0,0,1-5.59-1.547A6.356,6.356,0,0,1-.163,6.334,2.249,2.249,0,0,1-1,4.655,2.249,2.249,0,0,1-.163,2.977a6.356,6.356,0,0,1,1.73-1.049A26.544,26.544,0,0,1,7.157.38,103.053,103.053,0,0,1,25.059-1ZM49.108,4.655c-.112-.182-1.05-1.35-7-2.4A103.317,103.317,0,0,0,25.059,1,103.317,103.317,0,0,0,8.007,2.259c-5.947,1.046-6.885,2.215-7,2.4.112.182,1.05,1.35,7,2.4A103.317,103.317,0,0,0,25.059,8.311,103.317,103.317,0,0,0,42.111,7.052C48.058,6.006,49,4.837,49.108,4.655Z"
                transform="translate(-3592.433 -2026.908)" fill="#5ab3b3" />
            <path
                d="M85.937,202.783H59.771a12.714,12.714,0,0,1-9.231-4,13.734,13.734,0,0,1-3.817-9.561V171.65a14.189,14.189,0,0,1,.09-1.591,1,1,0,1,1,1.987.225,12.183,12.183,0,0,0-.077,1.366v17.576a11.743,11.743,0,0,0,3.261,8.176,10.732,10.732,0,0,0,7.788,3.381H85.937a10.732,10.732,0,0,0,7.788-3.381,11.743,11.743,0,0,0,3.261-8.176V171.65a12.056,12.056,0,0,0-.088-1.46,1,1,0,0,1,1.985-.243,14.065,14.065,0,0,1,.1,1.7v17.576a13.734,13.734,0,0,1-3.817,9.561A12.714,12.714,0,0,1,85.937,202.783Z"
                transform="translate(-3640.228 -2192.32)" fill="#5ab3b3" />
            <path
                d="M104.307,193.86a7.428,7.428,0,0,1-4.33-1.43,1,1,0,0,1,1.163-1.627,5.441,5.441,0,0,0,3.167,1.057c3.494,0,6.337-3.495,6.337-7.791s-2.843-7.792-6.337-7.792a5.343,5.343,0,0,0-3.007.941,1,1,0,0,1-1.11-1.663,7.409,7.409,0,0,1,4.117-1.277,7.721,7.721,0,0,1,5.956,2.934,11.064,11.064,0,0,1,0,13.714A7.721,7.721,0,0,1,104.307,193.86Z"
                transform="translate(-3642.988 -2192.593)" fill="#5ab3b3" />
        </g>
        <path d="M2,0H167a2,2,0,0,1,2,2V38a2,2,0,0,1-2,2H2a2,2,0,0,1-2-2V2A2,2,0,0,1,2,0Z"
            transform="translate(104 86)" fill="#fff" />
        <path
            d="M106,1.5H0A1.5,1.5,0,0,1-1.5,0,1.5,1.5,0,0,1,0-1.5H106A1.5,1.5,0,0,1,107.5,0,1.5,1.5,0,0,1,106,1.5Z"
            transform="translate(105.5 138.5)" fill="#fff" />
        <path
            d="M106,1.5H0A1.5,1.5,0,0,1-1.5,0,1.5,1.5,0,0,1,0-1.5H106A1.5,1.5,0,0,1,107.5,0,1.5,1.5,0,0,1,106,1.5Z"
            transform="translate(142.5 105.5)" fill="#313e58" />
        <path
            d="M106,1.5H0A1.5,1.5,0,0,1-1.5,0,1.5,1.5,0,0,1,0-1.5H106A1.5,1.5,0,0,1,107.5,0,1.5,1.5,0,0,1,106,1.5Z"
            transform="translate(105.5 153.5)" fill="#fff" />
        <path
            d="M88,1.5H0A1.5,1.5,0,0,1-1.5,0,1.5,1.5,0,0,1,0-1.5H88A1.5,1.5,0,0,1,89.5,0,1.5,1.5,0,0,1,88,1.5Z"
            transform="translate(105.5 167.5)" fill="#fff" />
        <g transform="translate(36.009 301.336) rotate(-45)">
            <path
                d="M364.574,221.815a59.593,59.593,0,0,1-7.91-1.14q-.04-.008-.08-.02L264.807,193.85a2.569,2.569,0,0,1-1.743-3.183l1.337-4.579a2.567,2.567,0,0,1,3.181-1.744l91.409,26.7q.038.011.075.025c.021.008,2.141.814,4.2,1.712,1.227.534,2.2,1,2.893,1.38.731.4,1.955,1.078,1.646,2.132l-1.337,4.578a1.263,1.263,0,0,1-1.026.868A4.061,4.061,0,0,1,364.574,221.815Zm-7.469-3.091a58.221,58.221,0,0,0,7.469,1.091h.123l1.045-3.578a26.468,26.468,0,0,0-3.792-1.846c-1.693-.722-3.3-1.339-3.558-1.437l-91.37-26.687a.559.559,0,0,0-.156-.022.569.569,0,0,0-.545.406l-1.337,4.58a.569.569,0,0,0,.384.7Z"
                transform="translate(-260.389 -185.243)" fill="#5bb3b3" />
            <path
                d="M0,8.7a1,1,0,0,1-.281-.04,1,1,0,0,1-.68-1.24L1.288-.28a1,1,0,0,1,1.24-.68A1,1,0,0,1,3.207.28L.96,7.977A1,1,0,0,1,0,8.7Z"
                transform="translate(7.025 0.691)" fill="#5bb3b3" />
            <path
                d="M339.281,192.27a1,1,0,0,1-.281-.04l-2.288-.668a2.571,2.571,0,0,1-1.744-3.182l.668-2.286a2.571,2.571,0,0,1,3.182-1.745l2.472.723a1,1,0,0,1-.561,1.92l-2.472-.723a.571.571,0,0,0-.7.385l-.668,2.286a.574.574,0,0,0,.386.7l2.287.668a1,1,0,0,1-.28,1.96Z"
                transform="translate(-335.866 -185.241)" fill="#5bb3b3" />
            <path
                d="M329.147,191.056a1.5,1.5,0,0,1-.425-.061l-7.442-2.174a1.509,1.509,0,0,1-1.024-1.873l.056-.189a1.507,1.507,0,0,1,1.872-1.024l7.442,2.174a1.509,1.509,0,0,1,1.024,1.873l-.055.187A1.514,1.514,0,0,1,329.147,191.056Z"
                transform="translate(-303.894 -184.657)" fill="#5bb3b3" />
            <path
                d="M0,8.132a1,1,0,0,1-.281-.04,1,1,0,0,1-.68-1.24L1.123-.28a1,1,0,0,1,1.24-.68A1,1,0,0,1,3.043.28L.96,7.412A1,1,0,0,1,0,8.132Z"
                transform="translate(39.964 10.57)" fill="#5bb3b3" />
            <path
                d="M0,8.132a1,1,0,0,1-.281-.04,1,1,0,0,1-.68-1.24L1.123-.28a1,1,0,0,1,1.24-.68A1,1,0,0,1,3.043.28L.96,7.412A1,1,0,0,1,0,8.132Z"
                transform="translate(41.618 11.053)" fill="#5bb3b3" />
            <path
                d="M263.631,211.949l-.278,0c-1.169-.018-2.249-.144-2.295-.149a1,1,0,0,1,.234-1.986h0c.009,0,.869.1,1.833.13.523.016.924.007,1.23-.014-.244-.163-.568-.361-.995-.6-.813-.447-1.561-.786-1.568-.789a1,1,0,1,1,.823-1.823c.038.017.934.423,1.88.955,1.93,1.086,2.335,1.727,2.477,2.211a1.317,1.317,0,0,1-.154,1.1C266.385,211.658,265.425,211.949,263.631,211.949Z"
                transform="translate(-155.638 -176.084)" fill="#5bb3b3" />
            <path
                d="M0,3.818a1,1,0,0,1-.281-.04,1,1,0,0,1-.68-1.24L-.137-.28A1,1,0,0,1,1.1-.96,1,1,0,0,1,1.783.28L.96,3.1A1,1,0,0,1,0,3.818Z"
                transform="translate(106.336 31.915)" fill="#5bb3b3" />
        </g>
        <circle cx="11.5" cy="11.5" r="11.5" transform="translate(111 94)" fill="#313e58" />
        <g transform="translate(0 5.396)">
            <g transform="translate(227.792 128.181)">
                <path
                    d="M178.089,24.109H115.255c-9.484,0-17.2,8.229-17.2,18.344V143.263c0,10.115,7.716,18.345,17.2,18.345h62.834c9.484,0,17.2-8.23,17.2-18.345V42.453c0-10.115-7.716-18.344-17.2-18.344"
                    transform="translate(-98.056 -24.109)" fill="#e4e6ea" />
                <path
                    d="M178.089,163.109H115.255c-10.311,0-18.7-8.9-18.7-19.845V42.453c0-10.942,8.388-19.844,18.7-19.844h62.834c10.311,0,18.7,8.9,18.7,19.844V143.263C196.788,154.206,188.4,163.109,178.089,163.109Zm-62.834-137.5c-8.657,0-15.7,7.556-15.7,16.844V143.263c0,9.289,7.043,16.845,15.7,16.845h62.834c8.657,0,15.7-7.557,15.7-16.845V42.453c0-9.288-7.043-16.844-15.7-16.844Z"
                    transform="translate(-98.056 -24.109)" fill="#7a8293" />
                <path d="M0,96.417V0H75.771V96.417Z" transform="translate(10.208 13.653)"
                    fill="#85cb85" />
                <path d="M56.031,96.385H0L21.686,48.21h.179L43.565,0H56.21V96.385Z"
                    transform="translate(30.519 13.653)" fill="#629d62" />
                <path
                    d="M56.71,96.885H-.773L21.362,47.71h.179L43.242-.5H56.71Zm-55.937-1H55.71V.5H43.889l-21.7,48.21h-.179Z"
                    transform="translate(30.519 13.653)" fill="rgba(0,0,0,0)" />
                <path
                    d="M131.091,91.386H122.11a2.434,2.434,0,0,0,0,4.866h8.981a2.434,2.434,0,0,0,0-4.866"
                    transform="translate(-78.339 27.868)" fill="#7a8293" />
            </g>
            <rect width="68" height="33" rx="2" transform="translate(242 146)" fill="#fff" />
            <path
                d="M34,1.5H0A1.5,1.5,0,0,1-1.5,0,1.5,1.5,0,0,1,0-1.5H34A1.5,1.5,0,0,1,35.5,0,1.5,1.5,0,0,1,34,1.5Z"
                transform="translate(269 162)" fill="#313e58" />
            <path
                d="M62.595,1.5H0A1.5,1.5,0,0,1-1.5,0,1.5,1.5,0,0,1,0-1.5H62.595a1.5,1.5,0,0,1,1.5,1.5A1.5,1.5,0,0,1,62.595,1.5Z"
                transform="translate(244.706 195.739)" fill="#fff" />
            <path
                d="M62.595,1.5H0A1.5,1.5,0,0,1-1.5,0,1.5,1.5,0,0,1,0-1.5H62.595a1.5,1.5,0,0,1,1.5,1.5A1.5,1.5,0,0,1,62.595,1.5Z"
                transform="translate(244.706 210.739)" fill="#fff" />
            <path
                d="M51.966,1.5H0A1.5,1.5,0,0,1-1.5,0,1.5,1.5,0,0,1,0-1.5H51.966a1.5,1.5,0,0,1,1.5,1.5A1.5,1.5,0,0,1,51.966,1.5Z"
                transform="translate(244.706 224.739)" fill="#fff" />
            <circle cx="8.25" cy="8.25" r="8.25" transform="translate(247.5 154)" fill="#313e58" />
        </g>
        <g transform="translate(-0.01 4.068)">
            <path
                d="M139.366,24.109H106.934c-4.9,0-8.878,5.387-8.878,12.009v66c0,6.622,3.982,12.01,8.878,12.01h32.433c4.9,0,8.878-5.388,8.878-12.01v-66c0-6.622-3.983-12.009-8.878-12.009"
                transform="translate(67.444 152.883)" fill="#e4e6ea" />
            <path
                d="M139.366,115.624H106.934a8.356,8.356,0,0,1-4.2-1.144,10.759,10.759,0,0,1-3.282-2.986,15.833,15.833,0,0,1-2.9-9.38v-66a15.831,15.831,0,0,1,2.9-9.379,10.758,10.758,0,0,1,3.283-2.986,8.357,8.357,0,0,1,4.2-1.144h32.433a8.357,8.357,0,0,1,4.2,1.144,10.757,10.757,0,0,1,3.283,2.986,15.831,15.831,0,0,1,2.9,9.379v66a15.833,15.833,0,0,1-2.9,9.38,10.758,10.758,0,0,1-3.283,2.986A8.356,8.356,0,0,1,139.366,115.624ZM106.934,25.609a6.409,6.409,0,0,0-5.068,2.913,12.821,12.821,0,0,0-2.309,7.6v66a12.823,12.823,0,0,0,2.309,7.6,6.409,6.409,0,0,0,5.068,2.913h32.433a6.409,6.409,0,0,0,5.068-2.913,12.823,12.823,0,0,0,2.309-7.6v-66a12.821,12.821,0,0,0-2.309-7.6,6.409,6.409,0,0,0-5.068-2.913Z"
                transform="translate(67.444 152.883)" fill="#7a8293" />
            <g transform="translate(3.886)">
                <path d="M0,58.568V29.189H.189V0h36.7V29.378H36.7v29.19Z"
                    transform="translate(168.114 187.222)" fill="#85cb85" />
                <path d="M41.693,58.736H8.969L21.634,29.379h.1L34.413,0H41.8V58.736Z"
                    transform="translate(163.114 187.033)" fill="#629d62" />
                <path
                    d="M42.3,59.236H8.209l13.1-30.357h.1L34.084-.5H42.3Zm-32.569-1H41.3V.5H34.742L22.067,29.879h-.1Z"
                    transform="translate(163.114 187.033)" fill="rgba(0,0,0,0)" />
            </g>
            <path
                d="M125.609,91.386h-4.636c-.68,0-1.213.7-1.213,1.593s.533,1.593,1.213,1.593h4.636c.68,0,1.213-.7,1.213-1.593s-.533-1.593-1.213-1.593"
                transform="translate(67.239 162.35)" fill="#7a8293" />
            <rect width="31" height="30" rx="2" transform="translate(175 190)" fill="#fff" />
            <path
                d="M24.236,1.5H0A1.5,1.5,0,0,1-1.5,0,1.5,1.5,0,0,1,0-1.5H24.236a1.5,1.5,0,0,1,1.5,1.5A1.5,1.5,0,0,1,24.236,1.5Z"
                transform="translate(178.476 212.739)" fill="#313e58" />
            <path
                d="M24.435,1.5H0A1.5,1.5,0,0,1-1.5,0,1.5,1.5,0,0,1,0-1.5H24.435a1.5,1.5,0,0,1,1.5,1.5A1.5,1.5,0,0,1,24.435,1.5Z"
                transform="translate(177.588 227.349)" fill="#fff" />
            <path
                d="M24.435,1.5H0A1.5,1.5,0,0,1-1.5,0,1.5,1.5,0,0,1,0-1.5H24.435a1.5,1.5,0,0,1,1.5,1.5A1.5,1.5,0,0,1,24.435,1.5Z"
                transform="translate(177.588 238.349)" fill="#fff" />
            <circle cx="5.881" cy="5.881" r="5.881" transform="translate(177.588 194.239)"
                fill="#313e58" />
        </g>
    </g>
</svg>