<svg xmlns="http://www.w3.org/2000/svg" xmlns:xlink="http://www.w3.org/1999/xlink" width="400"
    height="320" viewBox="0 0 400 320">
    <defs>
        <clipPath>
            <rect width="185.446" height="216.077" fill="#bfe2e2" />
        </clipPath>
        <clipPath>
            <rect width="117.371" height="24.286" fill="#313e58" />
        </clipPath>
        <clipPath>
            <rect width="400" height="320" />
        </clipPath>
    </defs>
    <g clip-path="url(#d)">
        <path
            d="M153.689,1H0A1,1,0,0,1-1,0,1,1,0,0,1,0-1H153.689a1,1,0,0,1,1,1A1,1,0,0,1,153.689,1Z"
            transform="translate(103.645 269.022)" fill="#5bb3b3" />
        <path
            d="M154.425,1H0A1,1,0,0,1-1,0,1,1,0,0,1,0-1H154.425a1,1,0,0,1,1,1A1,1,0,0,1,154.425,1Z"
            transform="translate(102.908 260.867)" fill="#5bb3b3" />
        <path
            d="M149.787,1H0A1,1,0,0,1-1,0,1,1,0,0,1,0-1H149.787a1,1,0,0,1,1,1A1,1,0,0,1,149.787,1Z"
            transform="translate(105.464 174.988)" fill="#5bb3b3" />
        <path
            d="M149.786,1H0A1,1,0,0,1-1,0,1,1,0,0,1,0-1H149.786a1,1,0,0,1,1,1A1,1,0,0,1,149.786,1Z"
            transform="translate(105.464 167.145)" fill="#5bb3b3" />
        <g transform="translate(146.212 123.509)">
            <g clip-path="url(#a)">
                <path
                    d="M84.844,36.661C83.5,23.705,80.858,10.339,73.079,0c1.744,1.854-1.545,4.093-3.662,5.509-4.1,2.74-4.757,8.946-2.577,13.389s6.447,7.418,10.761,9.754c-2.443-1.668-6.053-.087-7.445,2.561s-1.079,5.875-.312,8.762A30.733,30.733,0,0,0,82,57.258c-6.231-2.726-12.975,4.934-12.3,11.792s5.811,12.257,10.656,17.072c-4.069-1.952-8.882,2.409-9.262,6.969s2.106,8.788,4.5,12.654c-3.405-2.6-8.538,1.358-8.931,5.676s2.035,8.286,3.968,12.143c5.122,10.21,6.065,20.662,6.318,31.827,9.173-37.155,11.84-80.765,7.891-118.73"
                    transform="translate(10.624)" fill="#bfe2e2" />
                <path
                    d="M25.2,90.206c5.395-12.491,11.129-25.45,21.529-34.225,15.5-13.076,40.322-13.376,56.129-.676a95.674,95.674,0,0,1-31.907-1.493c.542,5.033.867,9.5-4.8,12.074s-9.3,5.658-17.212,4.981c1.98,3.015,3.318,6.787,2.221,10.225s-5.431,5.868-8.511,3.99c1.91,4.419,2.16,9.96-.864,13.7a8.1,8.1,0,0,1-12.207.288c-.7,5.971-1.738,15.364-13.622,19.324C3.6,132.3,3.283,144.81,0,145.684c1.77-10.131,21.035-45.835,25.2-55.477"
                    transform="translate(21.907 46.541) rotate(-25)" fill="#bfe2e2" />
                <path d="M52.61,112.424H119.84l-2.623,13.986H54.9Z"
                    transform="translate(-5.117 38.706)" fill="#bfe2e2" />
                <path d="M104.419,173.262H65.075l-8.013-48.9h56.526Z"
                    transform="translate(-4.85 42.815)" fill="#bfe2e2" />
                <path
                    d="M159.012,94.52c.22-15.36-.366-31.806-9.277-44.318a10.48,10.48,0,0,0-3.023-3.078,11.59,11.59,0,0,0-4.194-1.235c-11.835-1.836-24.063-2-35.68.91S84.223,55.863,76.676,65.163c14.165-6.755,29.8-15.267,45.262-12.6.035,2.643,2.4,3.776,4.977,6.35s8.437,2.526,12.185-.172c-2.343,5.4-2.35,14.1,1.715,18.363s8.62,8.179,14.123,6.088c-5.884,2.644-9.729,10.342-6.424,15.881a39.952,39.952,0,0,0,3.2,4c4.249,5.411,4.72,12.849,4.234,19.71-.278,3.92-3.3,15.979.778,17.79,3.095-14.493,2.077-31.226,2.289-46.048"
                    transform="translate(-76.676 15.338)" fill="#bfe2e2" />
                <path
                    d="M115.8,81.64c-9.554-19.989-21.968-38.455-34.363-56.817C80.359,31.813,85.9,37.9,91.007,42.8c-3.085-.246-5.548,3.061-5.459,6.154s1.984,5.833,4.054,8.133a43,43,0,0,0,13.225,9.934c-2.776.788-10.457-1.663-8.9,8.8A65.93,65.93,0,0,0,110.355,88.9c-4.736.41-7.152,6.529-5.615,11.028s5.564,7.6,9.384,10.432l9.437,6.986c-1.855.305-5.339-2.816-5.567.914s5.486,8.16,8.8,11.87c2.378,2.659,4.985,18.366,6.415,21.548-.505-19.731-8.987-52.41-17.413-70.039"
                    transform="translate(-57.061 8.546)" fill="#bfe2e2" />
            </g>
        </g>
        <path d="M81.977,1H0A1,1,0,0,1-1,0,1,1,0,0,1,0-1H81.977a1,1,0,0,1,1,1A1,1,0,0,1,81.977,1Z"
            transform="translate(0.5 269.022)" fill="#5bb3b3" />
        <path d="M82.713,1H0A1,1,0,0,1-1,0,1,1,0,0,1,0-1H82.713a1,1,0,0,1,1,1A1,1,0,0,1,82.713,1Z"
            transform="translate(0.5 260.867)" fill="#5bb3b3" />
        <path d="M78.074,1H0A1,1,0,0,1-1,0,1,1,0,0,1,0-1H78.074a1,1,0,0,1,1,1A1,1,0,0,1,78.074,1Z"
            transform="translate(2.5 165.223)" fill="#5bb3b3" />
        <path d="M78.074,1H0A1,1,0,0,1-1,0,1,1,0,0,1,0-1H78.074a1,1,0,0,1,1,1A1,1,0,0,1,78.074,1Z"
            transform="translate(2.5 78.197)" fill="#5bb3b3" />
        <path d="M78.074,1H0A1,1,0,0,1-1,0,1,1,0,0,1,0-1H78.074a1,1,0,0,1,1,1A1,1,0,0,1,78.074,1Z"
            transform="translate(2.5 173.066)" fill="#5bb3b3" />
        <path d="M78.074,1H0A1,1,0,0,1-1,0,1,1,0,0,1,0-1H78.074a1,1,0,0,1,1,1A1,1,0,0,1,78.074,1Z"
            transform="translate(2.5 86.041)" fill="#5bb3b3" />
        <g transform="translate(-85.558 -33.664)">
            <path
                d="M291.586,41.771a37.95,37.95,0,0,1-5.571-.358,9.518,9.518,0,0,1-1.824-.435c-.818-.31-1.235-.782-1.241-1.4-.006-.636.427-1.127,1.287-1.459a10.665,10.665,0,0,1,1.968-.491,40.824,40.824,0,0,1,6.024-.472c.231,0,.465,0,.694,0a37.944,37.944,0,0,1,5.571.358,9.518,9.518,0,0,1,1.824.435c.817.31,1.235.782,1.241,1.4.006.636-.427,1.128-1.287,1.46a10.659,10.659,0,0,1-1.968.491,40.855,40.855,0,0,1-6.024.472C292.048,41.769,291.815,41.771,291.586,41.771Zm-4.605-2.244a38.183,38.183,0,0,0,4.605.244c.221,0,.445,0,.668,0a40.166,40.166,0,0,0,5.275-.376,38.174,38.174,0,0,0-4.606-.244c-.221,0-.446,0-.668,0A40.14,40.14,0,0,0,286.981,39.527Z"
                transform="translate(-165.934 27.756)" fill="#5bb3b3" />
            <path
                d="M291.706,78.582a25.628,25.628,0,0,1-7.151-.945l-.065-.023a12.377,12.377,0,0,1-7.277-7.344,22.6,22.6,0,0,1-1.053-9.974,51.313,51.313,0,0,1,2.062-10.158,76.825,76.825,0,0,1,4.329-11.178,1,1,0,0,1,1.789.895,76.309,76.309,0,0,0-4.211,10.889,49.244,49.244,0,0,0-1.977,9.743,20.641,20.641,0,0,0,.932,9.072,10.377,10.377,0,0,0,6.108,6.181,24.546,24.546,0,0,0,6.853.84,27.215,27.215,0,0,0,7.062-1.02,10.48,10.48,0,0,0,6-6.368,20.751,20.751,0,0,0,.743-9.092,49.141,49.141,0,0,0-2.166-9.679,75.794,75.794,0,0,0-4.414-10.76,1,1,0,0,1,1.77-.931,76.328,76.328,0,0,1,4.537,11.048,51.21,51.21,0,0,1,2.259,10.091,22.717,22.717,0,0,1-.845,9.992,12.482,12.482,0,0,1-7.143,7.559q-.041.018-.084.031a28.493,28.493,0,0,1-7.69,1.129Z"
                transform="translate(-165.476 27.915)" fill="#5bb3b3" />
        </g>
        <path
            d="M0-1H30.23a1,1,0,0,1,1,1V45.448a1,1,0,0,1-1,1H0a1,1,0,0,1-1-1V0A1,1,0,0,1,0-1ZM29.23,1H1V44.448H29.23Z"
            transform="translate(26.5 112.739)" fill="#5bb3b3" />
        <g transform="translate(-68.089 87.874)">
            <path
                d="M10.145,10.556C8.093,7.858,4.285,1.006,1.4.042-.463-.579.08,5.844.057,7.069A94.788,94.788,0,0,0,1.085,21.213c1.113,8.474,4.752,16.02,9.744,23.232,2.569,3.711,5.582,7.467,9.754,9.782,1.921,1.066,2.265,1.351,4.162,2.269,2.209,1.069,1.959,3.959,2.954,6.082,1.383,2.947,13.528,96.78,12.295,111.463a.984.984,0,1,0,1.957.024c.522-8.425-4-66.765-6.277-85.844s-4.587-35.934-6.9-42.535C25.968,37.679,20.9,28.049,16.68,20.581A87.7,87.7,0,0,0,10.145,10.556Z"
                transform="translate(39.063 55.132)" fill="#bfe2e2" />
            <path
                d="M-13.427-10.242C-18.766-13.856-6.416,1.1-1.584,4.712a5.119,5.119,0,0,0,7.036-.378C6.472,5.481,7.427,6.68,8.345,7.693c2.8,3.087,5.439,6.247,7.965,9.481,5.247,6.719,9.744,13.817,14.446,20.786C35.4,44.838,40,51.751,44.2,58.8c3.563,5.975,8.311,13,9.531,19.553C51.884,64.465,44.862,51.113,36.5,38.867A257.9,257.9,0,0,0,5.452,1.433C7.15-9.025-10.944-8.562-13.427-10.242Z"
                transform="translate(29.275 161.372)" fill="#bfe2e2" />
            <path
                d="M54.243.014C51.255.553,46.373,6.785,43.91,9.16a91.013,91.013,0,0,0-8.086,8.981A150.311,150.311,0,0,0,21.517,39.657,190.77,190.77,0,0,0,5.6,77.854a146.5,146.5,0,0,0-4.83,25.054c-.172,1.586-1.976,13.817.623,14.146,2.338.3,1.616-9.287,1.728-10.59C4.4,91.757,8.214,77.447,13.526,63.585c1.157-3.02,2.232-6.718,4.082-9.436,1.333-1.957.01-1.275,2.351-2.016,2.011-.636,4.3-.481,6.361-1.26,4.473-1.691,8.055-4.975,11.194-8.278,6.1-6.419,10.936-13.363,13.457-21.588a97.089,97.089,0,0,0,3.4-13.849C54.552,5.944,56.168-.333,54.243.014Z"
                transform="translate(81.057 125.369)" fill="#bfe2e2" />
            <path
                d="M43.015,6.146A234.922,234.922,0,0,0,17.16,63.761c-3.49,12.114-5.89,24.555-8.275,36.907C5.192,119.793,1.71,138.918.863,158.41c-.852,19.6-2.7,42.209,4.439,61.167-3.667-19.214-.571-39.6-.183-58.893.186-9.211.9-18.327,1.872-27.476.941-8.876,2.536-17.7,4.015-26.5q1.081-6.429,2.253-12.842c.231-1.276.3-5.068,1.164-5.933s5.375-1.186,6.783-1.818a35.742,35.742,0,0,0,7.846-5.019A57.674,57.674,0,0,0,40.536,67.767C47.643,56.7,50.391,43.13,50.113,30.229,50.06,27.724,45.426.712,47.173.357q-.16-.173-.3-.357C45.566,2.038,44.287,4.09,43.015,6.146Z"
                transform="translate(55.376 6.11) rotate(-7)" fill="#bfe2e2" />
            <path
                d="M2.028,1.75C1.855,1.519.724-.087,1.294.016.135-.193,2.887,1.787,0,.572,1.371,1.766.58,3.317.561,4.923a36.074,36.074,0,0,0,.976,7.749A50.148,50.148,0,0,0,5.455,24.384,53.6,53.6,0,0,0,24.162,45.551c3.949,2.525,7.82,3.384,12.324,4.547,2.845.734,3.071,2.091,4.581,4.637,3.144,5.3,6.232,10.585,9,16.066,3.311,6.545,6.525,13.1,9.557,19.756,10.213,22.433,18.526,45.675,22.892,69.727.107-14.174-3.449-28.772-7.935-42.282A240.772,240.772,0,0,0,62.526,89.277c-1.1-2.275-2.765-5.2-3.232-7.715-.327-1.76.673-3.453,1.13-5.307a51.3,51.3,0,0,0,.09-22.569c-1.727-8-6.723-11.72-15.173-12.854-3.09-.415-7.019-.263-9.852-1.478-3.087-1.323-4.361-5.672-6.117-8.464A116.144,116.144,0,0,0,12.62,9.88,52.965,52.965,0,0,0,6.891,5.02C5.609,4.076,2.9,2.913,2.028,1.75Z"
                transform="translate(0 84.848)" fill="#bfe2e2" />
            <path
                d="M45.05,4.437C45.326,2.1,43.874,0,41.982,0H3.892C2,0,.548,2.1.824,4.437L3.768,29.364c.9,7.6,6.12,13.229,12.271,13.229h13.8c6.151,0,11.373-5.63,12.271-13.229Z"
                transform="translate(55.679 202.663)" fill="#bfe2e2" />
            <path
                d="M-3757.416-6942.862s-3.326-.473-3.321-.7c.768-25.642,7.737-88.584,22.254-99.829,20.767-16.087,33.01-19.734,33.01-19.734s-8.187,24.657-23.727,39.183-18.908,18.959-22.282,20.07C-3753.421-6998.208-3757.416-6942.862-3757.416-6942.862Z"
                transform="translate(3842.377 7156.743)" fill="#bfe2e2" />
        </g>
        <path
            d="M222.211,302.518a1,1,0,0,1-1-1V30.77H103.043V301.518a1,1,0,0,1-2,0V29.77a1,1,0,0,1,1-1H222.211a1,1,0,0,1,1,1V301.518A1,1,0,0,1,222.211,302.518Z"
            transform="translate(186.212 22.482)" fill="#5bb3b3" />
        <path
            d="M0-1H38.92a1,1,0,0,1,1,1V16.955a1,1,0,0,1-1,1H0a1,1,0,0,1-1-1V0A1,1,0,0,1,0-1ZM37.92,1H1V15.955H37.92Z"
            transform="translate(325.999 123.509)" fill="#5bb3b3" />
        <path
            d="M110.4,128.59a1,1,0,0,1-.712-1.7l17.36-17.6a1,1,0,0,1,.712-.3,1.011,1.011,0,0,1,.712.3L145.175,126.2a1,1,0,1,1-1.423,1.405l-15.994-16.194L111.11,128.292A1,1,0,0,1,110.4,128.59Z"
            transform="translate(217.817 -7.335)" fill="#5bb3b3" />
        <path
            d="M4.642-1a5.751,5.751,0,0,1,5.642,5.842,5.751,5.751,0,0,1-5.642,5.842A5.751,5.751,0,0,1-1,4.842,5.751,5.751,0,0,1,4.642-1Zm0,9.684A3.75,3.75,0,0,0,8.284,4.842,3.75,3.75,0,0,0,4.642,1,3.75,3.75,0,0,0,1,4.842,3.75,3.75,0,0,0,4.642,8.684Z"
            transform="translate(341.055 98.14)" fill="#5bb3b3" />
        <path d="M127.34,1H0A1,1,0,0,1-1,0,1,1,0,0,1,0-1H127.34a1,1,0,0,1,1,1A1,1,0,0,1,127.34,1Z"
            transform="translate(272.659 28.318)" fill="#5bb3b3" />
        <path
            d="M127.341,1H0A1,1,0,0,1-1,0,1,1,0,0,1,0-1H127.341a1,1,0,0,1,1,1A1,1,0,0,1,127.341,1Z"
            transform="translate(272.659 36.161)" fill="#5bb3b3" />
        <path
            d="M110.552,1H0A1,1,0,0,1-1,0,1,1,0,0,1,0-1H110.552a1,1,0,0,1,1,1A1,1,0,0,1,110.552,1Z"
            transform="translate(106.464 86.041)" fill="#5bb3b3" />
        <path transform="translate(249.44 1)" fill="#5bb3b3" />
        <path d="M0,320a1,1,0,0,1-1-1V0A1,1,0,0,1,0-1,1,1,0,0,1,1,0V319A1,1,0,0,1,0,320Z"
            transform="translate(93.684 1)" fill="#5bb3b3" />
        <path
            d="M0,148.712a1,1,0,0,1-1-1V0A1,1,0,0,1,0-1,1,1,0,0,1,1,0V147.712A1,1,0,0,1,0,148.712Z"
            transform="translate(269.609 1)" fill="#5bb3b3" />
        <path
            d="M0,157.826a1,1,0,0,1-1-1V0A1,1,0,0,1,0-1,1,1,0,0,1,1,0V156.826A1,1,0,0,1,0,157.826Z"
            transform="translate(268.609 163.174)" fill="#5bb3b3" />
        <path d="M0,320a1,1,0,0,1-1-1V0A1,1,0,0,1,0-1,1,1,0,0,1,1,0V319A1,1,0,0,1,0,320Z"
            transform="translate(84.461 1)" fill="#5bb3b3" />
        <path
            d="M0,148.712a1,1,0,0,1-1-1V0A1,1,0,0,1,0-1,1,1,0,0,1,1,0V147.712A1,1,0,0,1,0,148.712Z"
            transform="translate(260.385 1)" fill="#5bb3b3" />
        <path
            d="M0,157.826a1,1,0,0,1-1-1V0A1,1,0,0,1,0-1,1,1,0,0,1,1,0V156.826A1,1,0,0,1,0,157.826Z"
            transform="translate(260.385 163.174)" fill="#5bb3b3" />
        <g transform="translate(1951.573 -2114.296)">
            <path
                d="M0,12.048a1.5,1.5,0,0,1-1.288-.73A1.5,1.5,0,0,1-.77,9.261L16.848-1.287a1.5,1.5,0,0,1,2.057.516,1.5,1.5,0,0,1-.516,2.057L.77,11.835A1.493,1.493,0,0,1,0,12.048Z"
                transform="translate(-1712.25 2142.198)" fill="#313e58" />
            <path
                d="M12.248,10.665a1.493,1.493,0,0,1-.9-.3L-.9,1.2A1.5,1.5,0,0,1-1.2-.9,1.5,1.5,0,0,1,.9-1.2l12.25,9.165a1.5,1.5,0,0,1-.9,2.7Z"
                transform="translate(-1854.732 2143.581)" fill="#313e58" />
            <path
                d="M10.632,7.105a1.493,1.493,0,0,1-.7-.173L-.7,1.327A1.5,1.5,0,0,1-1.327-.7,1.5,1.5,0,0,1,.7-1.327l10.634,5.6a1.5,1.5,0,0,1-.7,2.827Z"
                transform="translate(-1854.501 2199.788)" fill="#313e58" />
            <path
                d="M0,11.2a1.5,1.5,0,0,1-1.3-.744A1.5,1.5,0,0,1-.756,8.4L15.87-1.3a1.5,1.5,0,0,1,2.051.54,1.5,1.5,0,0,1-.54,2.051L.756,10.994A1.493,1.493,0,0,1,0,11.2Z"
                transform="translate(-1710.864 2195.695)" fill="#313e58" />
            <g transform="translate(-1845.404 2144.845)">
                <path
                    d="M64.821,131.218V63.8s58.655,17.335,138.523.526v66.283C200.848,130.607,134.159,148.417,64.821,131.218Z"
                    transform="translate(-64.821 -63.798)" fill="#ffd964" />
            </g>
            <ellipse cx="1.943" cy="1.945" rx="1.943" ry="1.945"
                transform="translate(-1840.43 2151.633)" fill="#313e58" />
            <circle cx="1.945" cy="1.945" r="1.945" transform="translate(-1717.368 2151.633)"
                fill="#313e58" />
            <circle cx="1.943" cy="1.943" r="1.943" transform="translate(-1840.43 2203.449)"
                fill="#313e58" />
            <ellipse cx="1.945" cy="1.943" rx="1.945" ry="1.943"
                transform="translate(-1716.368 2203.449)" fill="#313e58" />
            <g transform="translate(-1835.176 2171.787)">
                <path
                    d="M0,17.79,4.611,18.81,6.05,12.3l5.192,1.15L12.074,9.7,6.883,8.545,7.615,5.24l5.629,1.246.832-3.757L3.836.461Z"
                    transform="translate(0 0.112)" fill="#313e58" />
                <g transform="translate(0 0)">
                    <g clip-path="url(#b)">
                        <path
                            d="M28.836,13.521q-.595,4.44-3.084,6.457t-6.687,1.454a8.425,8.425,0,0,1-6.035-3.176q-1.894-2.618-1.3-7.058.589-4.391,3.1-6.413t6.694-1.457q4.2.563,6.055,3.154t1.258,7.04M16.733,11.9Q16.047,17,19.6,17.473a3.075,3.075,0,0,0,2.843-.88,6.843,6.843,0,0,0,1.391-3.744,6.9,6.9,0,0,0-.361-4.011A3.05,3.05,0,0,0,21,7.225q-3.573-.479-4.265,4.67"
                            transform="translate(2.817 0.779)" fill="#313e58" />
                        <path
                            d="M32.905,16.106l-.353,6.448-4.788-.262.97-17.722,5.807.318q7.224.4,6.938,5.632a5.242,5.242,0,0,1-3.267,4.6l4.741,8-5.43-.3-3.406-6.656Zm.2-3.6.9.048q2.508.138,2.63-2.081.1-1.829-2.361-1.964l-.945-.052Z"
                            transform="translate(6.749 1.11)" fill="#313e58" />
                        <path
                            d="M58.852,17.257a5.235,5.235,0,0,1-.746,2.956,5.483,5.483,0,0,1-2.352,2.065,8.943,8.943,0,0,1-3.678.825,15.1,15.1,0,0,1-2.982-.155,10.986,10.986,0,0,1-2.526-.791l-.133-4.27A14.266,14.266,0,0,0,49.32,18.9a10.6,10.6,0,0,0,2.73.31,2.627,2.627,0,0,0,1.554-.419,1.135,1.135,0,0,0,.469-.967,1.061,1.061,0,0,0-.22-.631,2.36,2.36,0,0,0-.661-.531A26.126,26.126,0,0,0,50.8,15.589a11.256,11.256,0,0,1-2.65-1.447,4.682,4.682,0,0,1-1.339-1.66,5.606,5.606,0,0,1-.491-2.255A4.545,4.545,0,0,1,47.981,6.35,7.866,7.866,0,0,1,52.84,4.825a13.776,13.776,0,0,1,5.659,1.1L57.145,9.669a10.665,10.665,0,0,0-4.33-1.006,2.237,2.237,0,0,0-1.349.37.989.989,0,0,0-.4.827,1.173,1.173,0,0,0,.569.916,20.453,20.453,0,0,0,2.977,1.415,8.1,8.1,0,0,1,3.254,2.115,4.811,4.811,0,0,1,.985,2.951"
                            transform="translate(11.259 1.171)" fill="#313e58" />
                        <path
                            d="M70.468,21.678,69.3,18.443l-5.742.521-.6,3.395-5.246.475L61.871,4.563l6.371-.577L75.692,21.2Zm-2.517-7.061-1.024-2.833q-.354-.942-.874-2.444t-.7-2.156q-.054.627-.245,2.071t-.915,5.7Z"
                            transform="translate(14.03 0.969)" fill="#313e58" />
                        <path
                            d="M74.709,21.077,72.1,3.522l4.744-.7,2.036,13.725,6.761-1,.568,3.831Z"
                            transform="translate(17.528 0.685)" fill="#313e58" />
                        <path
                            d="M97.111,17.412,86.773,19.451,83.342,2.037,93.68,0l.745,3.775L88.79,4.885l.54,2.74L94.546,6.6l.745,3.775L90.075,11.4l.646,3.288,5.635-1.111Z"
                            transform="translate(20.26 -0.001)" fill="#313e58" />
                    </g>
                </g>
            </g>
        </g>
        <g transform="translate(-4.793 13.394)">
            <g transform="translate(250.651 74.479)">
                <g transform="translate(1.126 1.801)">
                    <path
                        d="M0,0,7.514,35.025C3.324,39.944.487,45.973.961,52.727c1.366,19.463,28.46,15.181,33.73,5.358s4.644-34.741-2.167-36.5c-2.717-.7-8.5,1.015-14.393,4.565L21.828,0Z"
                        transform="translate(38.198 66.392) rotate(180)" fill="#efc6a1" />
                </g>
                <path
                    d="M18.377,6.5c-1.466,4.429-2.025,17.177-2.16,20.944a5.514,5.514,0,0,1-.655.039,5.457,5.457,0,0,1-3.813-9.361c-1.263-1.782-2.677-3.644-4.3-5.565C1.358,16.214-3.162,26.914,2.794,37.191c1.646,5.035,5.373,7.725,9.774,8.973a15.833,15.833,0,0,0,10.391.766c6.124-.526,11.593-2.393,13.143-3.5,0-5.8-1.124-7.518-10.72-7.367-2.358-1.245-4.171-3.389-6.059-6.2.014-.188,1.282-17.459,6.631-17.459,5.377,0,9.94,3.414,12.3,3.414,1.72,0,1.336-2.153.2-3.748-.941-1.317-5.521-2.586-5.521-4.627,0-1.153,1.154-1.151,2.158-1.148.774,0,1.46,0,1.46-.525,0-2,.637-5.767-2.84-5.767C30.19,0,20.105,1.282,18.377,6.5Z"
                    transform="translate(39.425 47.476) rotate(180)" fill="#313e58" />
            </g>
            <path d="M-714.323-4270.439s-3.969-4.488-7.227-3.583-2.026,2.263-2.026,2.263Z"
                transform="translate(926.915 4466)" fill="#efc6a1" />
            <path
                d="M48.477,21.485,20.418,9.162C18.506,7.257,16.169,4.758,8,.788,7.232.542,4.231-1.137,2.557,1.32c.1.252-2.246,1.351-2.546,3.058s5.474,3.857,8.4,6.527c-.945,1.578-.269-.954-4.346-.139C3.776,11.3,4.71,13.026,6.326,14,8.2,15.149,12.048,15.665,18.5,16.851L39.518,32.962Z"
                transform="translate(217.049 201.295) rotate(146)" fill="#b28b67" />
            <g transform="translate(115.576 75.051)">
                <g transform="translate(0.104 2.993)">
                    <path
                        d="M0,60.076,7.589,28.384C3.357,23.933.492,18.477.971,12.365,2.35-5.246,29.713-1.372,35.035,7.517s4.691,31.436-2.188,33.025c-2.744.634-8.588-.918-14.536-4.131l3.734,23.665Z"
                        transform="translate(0 0)" fill="#b28b67" />
                </g>
                <path
                    d="M7.525,32.958A15.012,15.012,0,0,1,.261,22.586,15.421,15.421,0,0,1,.691,15.2,17.921,17.921,0,0,1,2.7,10.856C6.08-1.594,20.051-.476,30.505.642c5.091.545,9.348,1.09,11.141.068,1.2,6.719-2.663,12.138-16.235,11.088-2.951,1.483-5.08,4.26-7.677,7.994a6.05,6.05,0,0,0-2.015-.341,5.254,5.254,0,0,0-5.511,4.938,4.664,4.664,0,0,0,1.66,3.532c-1.415,1.789-2.835,3.437-4.341,5.035h0Z"
                    transform="translate(0 0)" fill="#313e58" />
            </g>
            <g transform="translate(67.569 211.822)">
                <g transform="translate(0 0)">
                    <path d="M0,0,26.731,93.573l19.5,68.968H60.459L39.734,0Z"
                        transform="translate(41.289 0)" fill="#313e58" />
                    <path
                        d="M32.823,0C32.2,48.228,30.1,74.533,29.447,78.915S18.982,111.172,0,162.541H14.736q36.249-73.919,40.47-83.625C58.021,72.444,66.705,46.139,79.786,0Z"
                        transform="translate(1.317)" fill="#7a8293" />
                    <g transform="translate(0 159.799)">
                        <path
                            d="M0,15.445.737,0H16.221C27.233,7.723,44.975,12.5,44.975,12.5v2.942H16.958L7.373,13.974v1.471Z"
                            transform="translate(0)" fill="#313e58" />
                    </g>
                    <g transform="translate(85.226 159.799)">
                        <path
                            d="M0,15.445.737,0H16.221C27.233,7.723,44.975,12.5,44.975,12.5v2.942H16.958L7.373,13.974v1.471Z"
                            transform="translate(0)" fill="#313e58" />
                    </g>
                </g>
            </g>
            <g transform="translate(185.047 124.902)">
                <g transform="translate(134.337 96.77) rotate(157)">
                    <path
                        d="M6.159,35.621,29.877,16.215A66.49,66.49,0,0,0,46.292,8.6C47.3,7.576,48.481,5.552,44.1,6.121s-9.012.97-9.7-.5,1.882-3.4.549-5.361Q33.621-1.7,23.9,11.018L0,22.427Z"
                        transform="matrix(0.996, -0.087, 0.087, 0.996, 50.8, 5.577)" fill="#efc6a1" />
                    <path
                        d="M0,99.377,6.57,101.1Q27.562,59.578,73.565,28.164L54.239,0C22.7,30.881,2.053,63.782,0,99.377Z"
                        transform="matrix(0.996, -0.087, 0.087, 0.996, 0, 6.412)" fill="#7468b4" />
                </g>
            </g>
            <path
                d="M0,1.025,2.1,0c10.17,13.133,30.678,36.739,40.753,40.373C52.381,43.81,61.31,45,76.251,38.113L81.9,48.254C69.209,64.643,40.472,80.066,27.729,73.811,7.356,63.812,1.368,24.74,0,1.025Z"
                transform="matrix(0.899, 0.438, -0.438, 0.899, 135.689, 128.471)" fill="#629d62" />
            <path
                d="M48.484,11.478,20.425,23.8c-1.912,1.905-6.744,6.551-10.723,8.858s-3.926,2.574-5.035,1.771S.318,30.291.018,28.585s3.253-5.462,3.253-5.462S8.014,18.04,18.51,16.112L39.525,0Z"
                transform="translate(213.641 173.907) rotate(34)" fill="#efc6a1" />
            <path
                d="M0,76.508l6.316,1.931C16.486,65.306,27.4,39.737,37.471,36.1c9.525-3.437,25.972-5.866,40.913,1.02l5.647-10.141C71.342,10.591,42.6-4.831,29.862,1.423,9.489,11.422,1.368,52.793,0,76.508Z"
                transform="translate(308.926 209.139) rotate(163)" fill="#9183d8" />
            <path
                d="M4.385,102.411s34.961-1.08,53.936-1.08c2.707,0,3.121-20.9,2.73-22.871C56.534,55.694,43.1,35.088,43.1,2.68L26.009,0C11.873,22.734,7.176,64.857,4.385,102.411Z"
                transform="translate(93.369 126.823)" fill="#e4e6ea" />
            <path
                d="M0,104.54H53.332C63.657,78.448,40.644,0,40.644,0H34.072C21.3,22.8,2.5,66.876,0,104.54Z"
                transform="translate(84.398 126.823)" fill="#85cb85" />
            <g transform="translate(163.337 247.973) rotate(160)">
                <path
                    d="M15.868,65.821,0,62.673q23.937-44.61,25.674-47.286c2.605-4.015.175-11.373-.723-15.248,5.633-1.311,3.412,7.168,10.541,5.4C42,3.92,47.516-.227,53.583,5.366c.746.688,1.292,2.837-1.251,3.939C46,12.051,36.634,17.194,35.116,19.19Q32.011,23.274,15.868,65.821Z"
                    transform="translate(38.718 0)" fill="#b28b67" />
                <path
                    d="M69.5,0h3.085l.982,5.367Q34.086,87.041,12.419,112.283L0,109.851Q12,35.432,69.5,0Z"
                    transform="translate(73.565 129.319) rotate(180)" fill="#85cb85" />
            </g>
            <path d="M-716.123-4272.135h4.466s2.5,1.784-.144,2.379c-3.037-.907-10.417,0-10.417,0Z"
                transform="translate(919.201 4466.569)" fill="#b28b67" />
            <g transform="translate(212.592 211.822)">
                <g transform="translate(0 0)">
                    <path d="M60.459,0,33.728,93.572l-19.5,68.968H0L20.725,0Z"
                        transform="translate(28.454 0)" fill="#313e58" />
                    <path
                        d="M46.963,0c.618,48.228,2.727,74.533,3.376,78.915S60.8,111.172,79.786,162.54H65.05Q28.8,88.622,24.58,78.915C21.766,72.444,13.081,46.139,0,0Z"
                        transform="translate(49.098)" fill="#7a8293" />
                    <g transform="translate(85.226 159.799)">
                        <path
                            d="M44.975,15.445,44.238,0H28.755C17.742,7.723,0,12.5,0,12.5v2.942H28.017L37.6,13.974v1.471Z"
                            transform="translate(0)" fill="#313e58" />
                    </g>
                    <g transform="translate(0 159.799)">
                        <path
                            d="M44.975,15.445,44.238,0H28.755C17.742,7.723,0,12.5,0,12.5v2.942H28.017L37.6,13.974v1.471Z"
                            transform="translate(0)" fill="#313e58" />
                    </g>
                </g>
            </g>
            <path
                d="M59.626,88.278H0S20.721,37.9,20.721,2.68L38.707,0C52.843,22.734,56.835,50.725,59.626,88.278Z"
                transform="translate(251.504 126.076)" fill="#dde3e9" />
            <path
                d="M53.431,104.234H0S7.365,35.4,8.054,12.682L12.4.261S16.712.073,18.82,0h1.174C32.661,22.734,50.93,66.681,53.431,104.234Z"
                transform="translate(270.591 126.076)" fill="#9183d8" />
            <path
                d="M0,68.848l1.2,8.809C11.373,64.525,17.837,38.275,27.912,34.64c9.525-3.437,8-14.534,16.864-32.026C37.311-.917,32.42-.579,27.387,1.891,7.014,11.891,1.368,45.134,0,68.848Z"
                transform="matrix(-0.914, 0.407, -0.407, -0.914, 313.585, 207.527)" fill="#7468b4"
                opacity="0.58" />
            <path
                d="M0,76.508l6.316,1.931C16.486,65.306,27.4,39.737,37.471,36.1c9.525-3.437,25.972-5.866,40.913,1.02l5.647-10.141C71.342,10.591,42.6-4.831,29.862,1.423,9.489,11.422,1.368,52.793,0,76.508Z"
                transform="translate(308.926 209.139) rotate(163)" fill="#9183d8" />
        </g>
        <path d="M27.5,1H0A1,1,0,0,1-1,0,1,1,0,0,1,0-1H27.5a1,1,0,0,1,1,1A1,1,0,0,1,27.5,1Z"
            transform="translate(331.657 131.234)" fill="#5bb3b3" />
    </g>
</svg>