<svg xmlns="http://www.w3.org/2000/svg" xmlns:xlink="http://www.w3.org/1999/xlink" width="400" height="320" viewBox="0 0 400 320">
    <defs>
        <clipPath>
            <rect width="224.048" height="304.62" fill="#bfe2e2" />
        </clipPath>
        <clipPath>
            <rect width="400" height="320" />
        </clipPath>
    </defs>
    <g clip-path="url(#c)">
        <rect width="400" height="320" fill="transparent" />
        <path d="M88.269,1H0A1,1,0,0,1-1,0,1,1,0,0,1,0-1H88.269a1,1,0,0,1,1,1A1,1,0,0,1,88.269,1Z" transform="translate(2.231 102.223)" fill="#5bb3b3" />
        <path d="M102.957,1H0A1,1,0,0,1-1,0,1,1,0,0,1,0-1H102.957a1,1,0,0,1,1,1A1,1,0,0,1,102.957,1Z" transform="translate(108.5 102.223)" fill="#5bb3b3" />
        <path d="M-3688.209-7019.662a1,1,0,0,1-1-1v-172.167a1,1,0,0,1,1-1,1,1,0,0,1,1,1v172.167A1,1,0,0,1-3688.209-7019.662Z" transform="translate(3975.226 7194.754)" fill="#5bb3b3" />
        <path d="M-3688.209-7019.662a1,1,0,0,1-1-1v-172.167a1,1,0,0,1,1-1,1,1,0,0,1,1,1v172.167A1,1,0,0,1-3688.209-7019.662Z" transform="translate(3963.06 7194.754)" fill="#5bb3b3" />
        <path d="M168.552,1H0A1,1,0,0,1-1,0,1,1,0,0,1,0-1H168.552a1,1,0,0,1,1,1A1,1,0,0,1,168.552,1Z" transform="translate(230.157 102.223)" fill="#5bb3b3" />
        <path d="M-4429.373-7010.3h-396.479a1,1,0,0,1-1-1,1,1,0,0,1,1-1h396.479a1,1,0,0,1,1,1A1,1,0,0,1-4429.373-7010.3Z" transform="translate(4828.082 7233)" fill="#5bb3b3" />
        <path d="M-4429.373-7010.3h-396.479a1,1,0,0,1-1-1,1,1,0,0,1,1-1h396.479a1,1,0,0,1,1,1A1,1,0,0,1-4429.373-7010.3Z" transform="translate(4828.082 7189.299)" fill="#5bb3b3" />
        <path d="M-4419-6998.219h-396.481a1,1,0,0,1-1-1,1,1,0,0,1,1-1H-4419a1,1,0,0,1,1,1A1,1,0,0,1-4419-6998.219Z" transform="translate(4817.712 7233)" fill="#5bb3b3" />
        <path d="M-3688.209-7019.885a1,1,0,0,1-1-1v-171.944a1,1,0,0,1,1-1,1,1,0,0,1,1,1v171.944A1,1,0,0,1-3688.209-7019.885Z" transform="translate(3794.547 7194.755)" fill="#5bb3b3" />
        <path d="M-3688.209-7019.849a1,1,0,0,1-1-1V-7192.83a1,1,0,0,1,1-1,1,1,0,0,1,1,1v171.981A1,1,0,0,1-3688.209-7019.849Z" transform="translate(3781.693 7194.755)" fill="#5bb3b3" />
        <path d="M56.114,16.659a16.134,16.134,0,1,1-11.409,4.726A16.029,16.029,0,0,1,56.114,16.659Zm0,30.27a14.134,14.134,0,1,0-9.994-4.14A14.042,14.042,0,0,0,56.114,46.929Z" transform="translate(-19.587 4.961)" fill="#5bb3b3" />
        <path d="M0,7.856a1,1,0,0,1-1-1V0A1,1,0,0,1,0-1,1,1,0,0,1,1,0V6.856A1,1,0,0,1,0,7.856Z" transform="translate(36.528 57.418)" fill="#5bb3b3" />
        <path d="M4.847,5.847a1,1,0,0,1-.707-.293L-.707.707a1,1,0,0,1,0-1.414,1,1,0,0,1,1.414,0L5.554,4.14a1,1,0,0,1-.707,1.707Z" transform="translate(50.169 51.767)" fill="#5bb3b3" />
        <path d="M6.856,1.024h0L0,1A1,1,0,0,1-1,0,1,1,0,0,1,0-1l6.856.024a1,1,0,0,1,0,2Z" transform="translate(55.819 38.193)" fill="#5bb3b3" />
        <path d="M0,7.345a1,1,0,0,1-.378-.075,1,1,0,0,1-.547-1.3l2.6-6.345a1,1,0,0,1,1.3-.547,1,1,0,0,1,.547,1.3L.926,6.724A1,1,0,0,1,0,7.345Z" transform="translate(26.625 55.98)" fill="#5bb3b3" />
        <path d="M2.651,7.322a1,1,0,0,1-.923-.614L-.922.387A1,1,0,0,1-.387-.922,1,1,0,0,1,.922-.387L3.573,5.936a1,1,0,0,1-.922,1.387Z" transform="translate(43.986 55.918)" fill="#5bb3b3" />
        <path d="M6.336,3.619a1,1,0,0,1-.382-.076L-.382.924A1,1,0,0,1-.924-.382,1,1,0,0,1,.382-.924L6.718,1.695a1,1,0,0,1-.382,1.924Z" transform="translate(54.356 45.495)" fill="#5bb3b3" />
        <path d="M0,7.856a1,1,0,0,1-1-1V0A1,1,0,0,1,0-1,1,1,0,0,1,1,0V6.856A1,1,0,0,1,0,7.856Z" transform="translate(36.528 11.979)" fill="#5bb3b3" />
        <path d="M4.847,5.847a1,1,0,0,1-.707-.293L-.707.707a1,1,0,0,1,0-1.414,1,1,0,0,1,1.414,0L5.554,4.14a1,1,0,0,1-.707,1.707Z" transform="translate(18.039 19.638)" fill="#5bb3b3" />
        <path d="M6.856,1.024h0L0,1A1,1,0,0,1-1,0,1,1,0,0,1,0-1l6.856.024a1,1,0,0,1,0,2Z" transform="translate(10.38 38.036)" fill="#5bb3b3" />
        <path d="M0,5.831a1,1,0,0,1-.71-.3,1,1,0,0,1,0-1.414L4.16-.71a1,1,0,0,1,1.414,0,1,1,0,0,1,0,1.414L.7,5.54A1,1,0,0,1,0,5.831Z" transform="translate(50.216 19.702)" fill="#5bb3b3" />
        <path d="M0,5.831a1,1,0,0,1-.71-.3,1,1,0,0,1,0-1.414L4.16-.71a1,1,0,0,1,1.414,0,1,1,0,0,1,0,1.414L.7,5.54A1,1,0,0,1,0,5.831Z" transform="translate(17.975 51.721)" fill="#5bb3b3" />
        <path d="M0,7.345a1,1,0,0,1-.378-.075,1,1,0,0,1-.547-1.3l2.6-6.345a1,1,0,0,1,1.3-.547,1,1,0,0,1,.547,1.3L.926,6.724A1,1,0,0,1,0,7.345Z" transform="translate(43.834 13.928)" fill="#5bb3b3" />
        <path d="M2.651,7.322a1,1,0,0,1-.923-.614L-.922.387A1,1,0,0,1-.387-.922,1,1,0,0,1,.922-.387L3.573,5.936a1,1,0,0,1-.922,1.387Z" transform="translate(26.418 14.013)" fill="#5bb3b3" />
        <path d="M6.336,3.619a1,1,0,0,1-.382-.076L-.382.924A1,1,0,0,1-.924-.382,1,1,0,0,1,.382-.924L6.718,1.695a1,1,0,0,1-.382,1.924Z" transform="translate(12.363 28.14)" fill="#5bb3b3" />
        <path d="M0,3.629a1,1,0,0,1-.924-.617A1,1,0,0,1-.383,1.7L5.949-.924a1,1,0,0,1,1.307.54A1,1,0,0,1,6.715.924L.383,3.552A1,1,0,0,1,0,3.629Z" transform="translate(54.344 28.101)" fill="#5bb3b3" />
        <path d="M0,3.629a1,1,0,0,1-.924-.617A1,1,0,0,1-.383,1.7L5.949-.924a1,1,0,0,1,1.307.54A1,1,0,0,1,6.715.924L.383,3.552A1,1,0,0,1,0,3.629Z" transform="translate(12.379 45.523)" fill="#5bb3b3" />
        <g transform="translate(241 23.658)">
            <g clip-path="url(#a)">
                <path d="M122.4,62.433c-2.023-10.022-5.157-24.05-12.259-31.657-5.116,3.987,5.063,21.368,6.557,26.9a157.638,157.638,0,0,1,5.05,33.791c1.1,23.417-1.866,46.805-4.082,70.144q-3.463,36.485-4.5,73.147l6.269.164c3.1-42.037,6.1-84.118,6.286-126.268.066-15.474-.257-31.051-3.317-46.219" transform="translate(22.62 6.403)" fill="#bfe2e2" />
                <path d="M124.533,196.049c-2-14.586-7.405-28.461-12.947-42.1q-13.915-34.25-29.3-67.881l-3.228-4.19c5.121,23.041,19.118,43,27.919,64.9,9.774,24.319,13.014,50.685,16.169,76.7a2.71,2.71,0,0,0,2.439-.408c.085-9.024.167-18.087-1.057-27.029" transform="translate(16.45 17.036)" fill="#bfe2e2" />
                <path d="M119.119,193.953a19.61,19.61,0,0,0-1.918-5.458,47.248,47.248,0,0,0-3.187-4.1,36.764,36.764,0,0,1-4.153-8.146,268.753,268.753,0,0,0-18.8-35.873c-2.007-3.291-4.716-6.948-8.57-6.95a83.766,83.766,0,0,1,7.81,10.388c1.339,1.986,2.677,3.973,3.937,6.01a108.571,108.571,0,0,1,8.6,17.38c4.148,10.537,6.925,21.552,9.347,32.6a28.653,28.653,0,0,1,1.082,7.5c-.072,1.57-.765,3.439-.417,5,.406,1.813,1.459,2.342,3.145,2.933.849.3,8.617,1.255,8.678,1.5q-2.776-11.391-5.553-22.784" transform="translate(17.164 27.761)" fill="#bfe2e2" />
                <path d="M135.856,51.307c-5.3.159-10.1,3.535-13.192,7.842s-4.719,9.472-6.086,14.595a191.229,191.229,0,0,0-5.3,28.248c-1.618,14.591-1.55,29.31-1.48,43.99q.2,43.14.408,86.281l14.047,9.256c-1.83-8.234-.366-16.823-1.016-25.234-.655-8.483-3.444-16.629-5.494-24.887a171.081,171.081,0,0,1-4.174-25.2c-3.032-32.258,1.528-64.91,10.3-96.1,2.079-7.386,5.053-15.5,11.986-18.79" transform="translate(22.838 10.675)" fill="#bfe2e2" />
                <path d="M198.563,76.333l-9.416-5.024c-3.939-2.1-8.572-4.25-12.681-2.506-1.473.626-3.17,1.717-4.493.818a2.473,2.473,0,0,1-.408-3.281,6.264,6.264,0,0,1,2.9-2.136,32.328,32.328,0,0,1,26.452.483c-3.211-28.763-19.168-43.055-31.536-43.593C148.1,20.169,141.39,58.8,141.39,58.8c-2.081-8.559-9.356-8.86-13.417-9.484-11.9-1.831-20.925,9.568-19.2,43.027a56.081,56.081,0,0,0,.639,6.066,36.626,36.626,0,0,1,7.922-4.478c7.994-3.291,16.752-4.124,25.36-4.92a9.427,9.427,0,0,1,5.167.492c-3.14,2.592-7.439,3.085-11.359,4.184-9.859,2.764-17.981,10.386-22.149,19.7,6.677,12.72,18.143,20.448,28.207,25.032a54.094,54.094,0,0,1-2.04-11.1,32.844,32.844,0,0,1,14.6-28.7,104.558,104.558,0,0,0-5.055,16.894,52.8,52.8,0,0,0,2.152,26.6,71.69,71.69,0,0,0,10.224,2.512s13.417-2.313,19.432,5.09a238.556,238.556,0,0,0,12.909-33.066,50.917,50.917,0,0,0-13.681-8.983,19.886,19.886,0,0,1-5.915-3.606c-1.626-1.656-2.564-4.238-1.6-6.35,1.126-2.463,4.262-3.284,6.966-3.128,7.076.41,13.059,5.355,17.14,11.246a136.152,136.152,0,0,0,3.766-27.849c-.96-.588-1.94-1.134-2.9-1.645" transform="translate(22.587 4.386)" fill="#bfe2e2" />
                <path d="M107.581,2.588a1.728,1.728,0,0,0-.408.709,25.145,25.145,0,0,0-.91,8.706,1.333,1.333,0,0,1-.082.626,1.316,1.316,0,0,1-.756.551c-2.663,1.062-5.715,1.98-7.129,4.473.993-2.141,1.875-2.961,1.9-5.334.031-2.557-.208-4.976.476-7.492a11.918,11.918,0,0,1,1.348-3.113c-.137-.018-.267-.041-.4-.059C97.131,1.04,92.9.625,88.9.36c-.04.04-.093.066-.13.11a5.979,5.979,0,0,0-1.034,2.766c-.26,1.219-.764,5.464-2.673,4.757-1.7-.631-.962-5.3-.385-6.487A5.939,5.939,0,0,1,85.592.17C52.7-1.357,37.311,7.9,37.311,7.9s4.9-2.335,12.18,15.7a49.24,49.24,0,0,1,13.846-6.318c10.989-3.11,13.15,2.129,13.3,3.8-4.173-1.509-17.347,3.795-21.513,5.32a18.054,18.054,0,0,0-3.807,2.024c.035.1.07.19.105.29,1.836,5.2,6.048,9.684,11.583,13.46a37.424,37.424,0,0,1,8.638-9.794A27.1,27.1,0,0,1,81,27.067a14.055,14.055,0,0,1,10.622.82c.609.339,1.25.86,1.2,1.533-.03.428-.216.975-.632,1.109-14.231,4.579-17.268,10.52-17.319,17.988a116.176,116.176,0,0,0,19.138,6.077c-.538-1.438-1.079-2.874-1.606-4.316a3.89,3.89,0,0,1-.314-2.559,3.716,3.716,0,0,1,1.2-1.491,13.121,13.121,0,0,1,4.046-2.585,5.561,5.561,0,0,1,4.667.263,2.5,2.5,0,0,1,1.12,1.237,3.3,3.3,0,0,1-.153,2.088c-.915,2.891-2.434,5.651-3.169,8.555,11.957,2.181,22.232,2.316,25.408.463,8.328-4.858-9.947-14.111-9.947-14.111,30.3,6.478,37.707.463,41.639-3.932,9.36-10.462-9.453-28.728-49.328-35.617" transform="translate(7.763 0)" fill="#bfe2e2" />
                <path d="M157.948,131.018l-1.852.693s-6.478-6.708-18.276,0a12.594,12.594,0,0,0-6.128,8.212,9.516,9.516,0,0,1,3.728-1.281,20.934,20.934,0,0,1,6.595.471c1.116.214,2.473.708,2.573,1.84a1.744,1.744,0,0,1-.939,1.581,3.764,3.764,0,0,1-1.88.393,9.387,9.387,0,0,1-2.878-.457c-.836-.272-1.635-.661-2.492-.852a7.6,7.6,0,0,0-5.091.9c-.5,7.873,4.66,16.8,12.989,19.029,12.955,3.47,15.73,18.274,14.111,9.253s21.05-9.022,21.284-21.513-21.745-18.276-21.745-18.276" transform="translate(27.313 26.784)" fill="#bfe2e2" />
                <path d="M89.55,63.273s3.41-3.239,1.79-6.246c-1.178-3.172-10.769-3.45-22.556-2.428a51.693,51.693,0,0,1,8.157,6.427,7.474,7.474,0,0,1-5.71.969,28.311,28.311,0,0,1-5.6-1.985,68.478,68.478,0,0,0-11.619-3.665c-5.346.771-10.638,1.661-15.4,2.549q6.293,1.21,12.46,2.991c1.957.57,4.359,1.916,3.9,3.9-4.391-.161-8.5-2.051-12.681-3.4a60.041,60.041,0,0,0-10-2.254c-5.14,1.062-9.127,2.032-11.044,2.677C-3.5,71.139.2,84.556.2,84.556s0-9.947,11.567-5.09A212.869,212.869,0,0,0,31.71,89.227a69.378,69.378,0,0,0,6.729-10.6,7.033,7.033,0,0,1,1.526-2.193,2.306,2.306,0,0,1,2.491-.441c1.04.558,1.2,1.973,1.121,3.151a20.255,20.255,0,0,1-1.749,7.008c-.915,2.025-2.158,3.9-3.252,5.839a153.5,153.5,0,0,0,21.78,6.526A87.27,87.27,0,0,0,64.92,77.1l2.582.569a1.957,1.957,0,0,1,1.08.486,1.849,1.849,0,0,1,.364.846,24.838,24.838,0,0,1-.478,11.884A59.736,59.736,0,0,1,65.34,99.5a98.1,98.1,0,0,0,19.4,1.548c.15-.708.314-1.412.512-2.108a16.266,16.266,0,0,0,.947-4.513,12.077,12.077,0,0,0-1.957-5.669A81.7,81.7,0,0,0,76.8,77.747a4.7,4.7,0,0,1-1.23-2.288c-.184-1.665,1.682-3.041,3.337-2.788,1.58.24,2.776,1.505,3.842,2.7L86.992,80.1a45.454,45.454,0,0,1,4.38,5.43,23.054,23.054,0,0,1,3.538,14.5,39.745,39.745,0,0,0,16.567-6.609,26.29,26.29,0,0,0-.918-3.271,15.089,15.089,0,0,0-6.52-8.311C101.6,80.5,98.764,80.115,96.1,79.3a24.989,24.989,0,0,1-7.413-3.714c-1.074-.785-2.188-2.138-1.528-3.292.635-1.109,2.269-.912,3.5-.565l11.921,3.363a16.264,16.264,0,0,1,4.824,1.939,13.8,13.8,0,0,1,4.136,5.186,44.174,44.174,0,0,1,3.328,8.238,20.818,20.818,0,0,0,5.158-9.137C126.039,58.184,89.55,63.273,89.55,63.273" transform="translate(0 11.25)" fill="#bfe2e2" />
                <path d="M80.365,128s5.209-25.215-13.395-16.193-30.51,37.013-24.06,55.751c5.741-9.093,16.449-13.6,26.94-16.923a7.6,7.6,0,0,0-.749-1.674,11.585,11.585,0,0,0-4.206-3.486,4.634,4.634,0,0,1,5.3.743,6.831,6.831,0,0,1,1.731,3.773c4.959-1.512,9.78-2.815,13.929-4.263l-.561-1.006a8.58,8.58,0,0,0-2.554-3.215c-1.544-1-3.683-.976-4.96-2.3a.752.752,0,0,1-.25-.458.781.781,0,0,1,.3-.559c1.711-1.643,4.357-1.674,6.728-1.607,1.585.046,3.4.205,4.342,1.48a6.338,6.338,0,0,1,.789,3.309,16.292,16.292,0,0,0,.463,2.672c4.306-1.943,7.32-4.3,8.065-7.716,2.977-13.649-1.985-13.186-17.86-8.328" transform="translate(8.56 22.858)" fill="#bfe2e2" />
                <path d="M81.8,239.363a24.232,24.232,0,0,0,24.161,24.161h39.891a24.233,24.233,0,0,0,24.162-24.161V197.518H81.8Z" transform="translate(17.019 41.096)" fill="#bfe2e2" />
                <path d="M155.166,138.273c1.56,1.348.023,3.9-1.439,5.363-14.2,14.2-22.774,33.4-29.379,52.719a7.054,7.054,0,0,0-.555,3.154c.482,3.622,3.9,11.169.074,14.669-2.483,2.271-4.244,0-4.935-3.09-1.653-7.374,3.892-20.733,6.359-27.558A117.253,117.253,0,0,1,137.7,158.78c1.253-1.9,16.054-21.733,17.469-20.507" transform="translate(24.682 28.758)" fill="#bfe2e2" />
            </g>
        </g>
        <g transform="translate(-24.191 -42.97)">
            <rect width="57.371" height="10.131" transform="translate(36.57 188.944)" fill="#bfe2e2" />
            <path d="M2.008,84.457l8.076,44.19H46.029l9.87-44.19Z" transform="translate(36.261 116.264)" fill="#bfe2e2" />
            <path d="M11.307,61.094S-.153,36.789,8.336,26.323s14.43,5.815,15.7,13.955.849,20.932.849,20.932Z" transform="translate(36.133 127.455)" fill="#bfe2e2" />
            <path d="M50.674,57.892S64.309,15.767,55.821,5.3,39.215,28.935,37.942,37.076,35.3,57.848,35.3,57.848Z" transform="translate(33.606 130.657)" fill="#bfe2e2" />
            <path d="M0,3.463a.749.749,0,0,1-.633-.346A.75.75,0,0,1-.4,2.081L3.84-.632A.75.75,0,0,1,4.876-.4.75.75,0,0,1,4.648.632L.4,3.345A.747.747,0,0,1,0,3.463Z" transform="translate(55.368 152.816)" fill="#bfe2e2" />
            <path d="M0,3.463a.75.75,0,0,1-.674-.419.75.75,0,0,1,.342-1L5.186-.673a.75.75,0,0,1,1,.342.75.75,0,0,1-.342,1L.331,3.386A.747.747,0,0,1,0,3.463Z" transform="translate(56.217 156.499)" fill="#bfe2e2" />
            <path d="M0,1.913A.75.75,0,0,1-.738,1.3a.75.75,0,0,1,.6-.873L6.232-.738a.75.75,0,0,1,.873.6.75.75,0,0,1-.6.873L.135,1.9A.755.755,0,0,1,0,1.913Z" transform="translate(57.066 160.763)" fill="#bfe2e2" />
            <path d="M5.517.75H0A.75.75,0,0,1-.75,0,.75.75,0,0,1,0-.75H5.517a.75.75,0,0,1,.75.75A.75.75,0,0,1,5.517.75Z" transform="translate(56.141 165.019)" fill="#bfe2e2" />
            <path d="M0,2.495a.75.75,0,0,1-.73-.583.75.75,0,0,1,.564-.9L7.473-.731a.75.75,0,0,1,.9.564.75.75,0,0,1-.564.9L.167,2.476A.753.753,0,0,1,0,2.495Z" transform="translate(56.353 167.927)" fill="#bfe2e2" />
            <path d="M0,.91A.75.75,0,0,1-.75.175.75.75,0,0,1-.015-.59L8.054-.75a.75.75,0,0,1,.765.735A.75.75,0,0,1,8.084.75L.015.91Z" transform="translate(56.26 174.247)" fill="#bfe2e2" />
            <path d="M0,2.032a.75.75,0,0,1-.72-.54A.75.75,0,0,1-.21.562L4.175-.72A.75.75,0,0,1,5.1-.21.75.75,0,0,1,4.6.72L.21,2A.75.75,0,0,1,0,2.032Z" transform="translate(58.379 170.562)" fill="#bfe2e2" />
            <path d="M0,5.075a.746.746,0,0,1-.425-.133A.75.75,0,0,1-.617,3.9L2.364-.426A.75.75,0,0,1,3.407-.617.75.75,0,0,1,3.6.426L.617,4.751A.749.749,0,0,1,0,5.075Z" transform="translate(52.24 148.454)" fill="#bfe2e2" />
            <path d="M.525,5.556A.75.75,0,0,1-.22,4.888L-.746.082A.75.75,0,0,1-.082-.746a.75.75,0,0,1,.827.664l.526,4.806a.75.75,0,0,1-.664.827A.759.759,0,0,1,.525,5.556Z" transform="translate(48.556 147.813)" fill="#bfe2e2" />
            <path d="M2.807,4.275a.749.749,0,0,1-.587-.283L-.587.467A.75.75,0,0,1-.467-.587a.75.75,0,0,1,1.054.12L3.393,3.057a.75.75,0,0,1-.586,1.217Z" transform="translate(44.171 150.056)" fill="#bfe2e2" />
            <path d="M4.912,2.352a.749.749,0,0,1-.233-.037L-.233.713a.75.75,0,0,1-.48-.946.75.75,0,0,1,.946-.48L5.144.889a.75.75,0,0,1-.232,1.463Z" transform="translate(39.26 155.022)" fill="#bfe2e2" />
            <path d="M7.017.91H7L-.017.75A.75.75,0,0,1-.75-.017.75.75,0,0,1,.017-.75l7.017.16A.75.75,0,0,1,7.017.91Z" transform="translate(38.207 158.227)" fill="#bfe2e2" />
            <path d="M4.736,2.032a.751.751,0,0,1-.2-.026L-.2.724A.75.75,0,0,1-.724-.2.75.75,0,0,1,.2-.724L4.932.558a.75.75,0,0,1-.2,1.474Z" transform="translate(37.681 160.95)" fill="#bfe2e2" />
            <path d="M4.386,1.23a.758.758,0,0,1-.083,0L-.082.746A.75.75,0,0,1-.746-.082.75.75,0,0,1,.082-.746l4.385.48a.75.75,0,0,1-.081,1.5Z" transform="translate(38.207 165.756)" fill="#bfe2e2" />
            <path d="M4.035,1.07l-.06,0L-.059.748A.75.75,0,0,1-.748-.059.75.75,0,0,1,.059-.748l4.034.32a.75.75,0,0,1-.059,1.5Z" transform="translate(38.558 169.44)" fill="#bfe2e2" />
            <path d="M6.315.75H0A.75.75,0,0,1-.75,0,.75.75,0,0,1,0-.75H6.315a.75.75,0,0,1,.75.75A.75.75,0,0,1,6.315.75Z" transform="translate(38.207 173.926)" fill="#bfe2e2" />
            <path d="M0,2.673a.75.75,0,0,1-.691-.459.75.75,0,0,1,.4-.982L4.27-.691a.75.75,0,0,1,.982.4.75.75,0,0,1-.4.982L.291,2.614A.748.748,0,0,1,0,2.673Z" transform="translate(40.663 176.489)" fill="#bfe2e2" />
            <path d="M0,1.711a.75.75,0,0,1-.727-.569A.75.75,0,0,1-.181.234L3.678-.728a.75.75,0,0,1,.909.546.75.75,0,0,1-.546.909L.181,1.689A.752.752,0,0,1,0,1.711Z" transform="translate(41.891 180.495)" fill="#bfe2e2" />
            <path d="M0,2.512a.75.75,0,0,1-.7-.489.75.75,0,0,1,.441-.964L4.474-.7a.75.75,0,0,1,.964.441A.75.75,0,0,1,5,.7L.262,2.465A.749.749,0,0,1,0,2.512Z" transform="translate(42.592 183.699)" fill="#bfe2e2" />
            <path d="M5.088,1.391a.757.757,0,0,1-.095-.006L-.094.744a.75.75,0,0,1-.65-.838.75.75,0,0,1,.838-.65L5.18-.1a.75.75,0,0,1-.093,1.494Z" transform="translate(58.029 178.252)" fill="#bfe2e2" />
            <path d="M5.789,1.07H5.747L-.041.749a.75.75,0,0,1-.707-.79.75.75,0,0,1,.79-.707l5.788.32a.75.75,0,0,1-.041,1.5Z" transform="translate(58.379 181.776)" fill="#bfe2e2" />
            <path d="M5.965,1.391a.758.758,0,0,1-.081,0L-.08.746A.75.75,0,0,1-.746-.08.75.75,0,0,1,.08-.746L6.044-.1a.75.75,0,0,1-.079,1.5Z" transform="translate(58.379 184.82)" fill="#bfe2e2" />
            <path d="M3.86,3.906a.747.747,0,0,1-.474-.169L-.475.581A.75.75,0,0,1-.581-.475.75.75,0,0,1,.475-.581l3.86,3.156A.75.75,0,0,1,3.86,3.906Z" transform="translate(76.956 135.471)" fill="#bfe2e2" />
            <path d="M5.124,4.045a.746.746,0,0,1-.4-.119L-.406.631A.75.75,0,0,1-.631-.406.75.75,0,0,1,.406-.631L5.53,2.664a.75.75,0,0,1-.406,1.381Z" transform="translate(74.368 138.896)" fill="#bfe2e2" />
            <path d="M6.17,2.6a.75.75,0,0,1-.215-.032L-.215.718a.75.75,0,0,1-.5-.934.75.75,0,0,1,.934-.5L6.385,1.129A.75.75,0,0,1,6.17,2.6Z" transform="translate(72.126 142.945)" fill="#bfe2e2" />
            <path d="M5.479,1.351a.758.758,0,0,1-.083,0L-.082.746A.75.75,0,0,1-.746-.082.75.75,0,0,1,.082-.746l5.478.6a.75.75,0,0,1-.081,1.5Z" transform="translate(73.332 147.365)" fill="#bfe2e2" />
            <path d="M7.358,3.314a.749.749,0,0,1-.247-.042L-.247.708A.75.75,0,0,1-.708-.247.75.75,0,0,1,.247-.708L7.6,1.855a.75.75,0,0,1-.247,1.458Z" transform="translate(70.635 149.997)" fill="#bfe2e2" />
            <path d="M7.991,1.787a.757.757,0,0,1-.1-.006L-.1.744A.75.75,0,0,1-.744-.1.75.75,0,0,1,.1-.744L8.087.294a.75.75,0,0,1-.1,1.494Z" transform="translate(69.476 156.235)" fill="#bfe2e2" />
            <path d="M4.187,2.5A.748.748,0,0,1,3.9,2.442L-.289.692a.75.75,0,0,1-.4-.981.75.75,0,0,1,.981-.4l4.187,1.75A.75.75,0,0,1,4.187,2.5Z" transform="translate(71.334 153.228)" fill="#bfe2e2" />
            <path d="M2.4,5.369a.75.75,0,0,1-.666-.4L-.666.345A.75.75,0,0,1-.345-.666a.75.75,0,0,1,1.011.32l2.4,4.619a.75.75,0,0,1-.665,1.1Z" transform="translate(81.884 131.618)" fill="#bfe2e2" />
            <path d="M0,5.465a.752.752,0,0,1-.178-.022.75.75,0,0,1-.551-.906L.421-.178a.75.75,0,0,1,.906-.551.75.75,0,0,1,.551.906L.729,4.892A.75.75,0,0,1,0,5.465Z" transform="translate(87.436 131.707)" fill="#bfe2e2" />
            <path d="M0,3.944A.748.748,0,0,1-.535,3.72.75.75,0,0,1-.526,2.66L2.72-.535a.75.75,0,0,1,1.061.009A.75.75,0,0,1,3.772.535L.526,3.729A.748.748,0,0,1,0,3.944Z" transform="translate(89.4 134.412)" fill="#bfe2e2" />
            <path d="M0,1.806a.75.75,0,0,1-.734-.6A.75.75,0,0,1-.152.321L4.933-.734a.75.75,0,0,1,.887.582.75.75,0,0,1-.582.887L.152,1.79A.753.753,0,0,1,0,1.806Z" transform="translate(91.789 139.877)" fill="#bfe2e2" />
            <path d="M0,1.507A.75.75,0,0,1-.741.872.75.75,0,0,1-.115.016l4.87-.757a.75.75,0,0,1,.856.626.75.75,0,0,1-.626.856L.115,1.5A.756.756,0,0,1,0,1.507Z" transform="translate(91.261 146.254)" fill="#bfe2e2" />
            <path d="M4.417.75H0A.75.75,0,0,1-.75,0,.75.75,0,0,1,0-.75H4.417a.75.75,0,0,1,.75.75A.75.75,0,0,1,4.417.75Z" transform="translate(92.102 150.649)" fill="#bfe2e2" />
            <path d="M4.048.871H4.025L-.022.75A.75.75,0,0,1-.75-.022.75.75,0,0,1,.022-.75L4.07-.628a.75.75,0,0,1-.022,1.5Z" transform="translate(91.642 154.147)" fill="#bfe2e2" />
            <path d="M6.27,1.438a.758.758,0,0,1-.083,0L-.082.746A.75.75,0,0,1-.746-.082.75.75,0,0,1,.082-.746l6.269.688a.75.75,0,0,1-.081,1.5Z" transform="translate(89.184 158.073)" fill="#bfe2e2" />
            <path d="M4.276,3.155a.746.746,0,0,1-.367-.1L-.368.654A.75.75,0,0,1-.654-.368.75.75,0,0,1,.368-.654L4.645,1.752a.75.75,0,0,1-.368,1.4Z" transform="translate(89.321 160.542)" fill="#bfe2e2" />
            <path d="M3.706,2.125a.748.748,0,0,1-.261-.047L-.261.7A.75.75,0,0,1-.7-.261.75.75,0,0,1,.261-.7L3.967.671a.75.75,0,0,1-.261,1.453Z" transform="translate(89.955 166.09)" fill="#bfe2e2" />
            <path d="M4.567,2.291a.749.749,0,0,1-.24-.04L-.24.711A.75.75,0,0,1-.711-.24.75.75,0,0,1,.24-.711L4.807.83a.75.75,0,0,1-.24,1.461Z" transform="translate(88.93 170.011)" fill="#bfe2e2" />
            <path d="M0,.833A.75.75,0,0,1-.75.095.75.75,0,0,1-.012-.667L5.122-.75a.75.75,0,0,1,.762.738A.75.75,0,0,1,5.146.75L.012.833Z" transform="translate(68.964 160.097)" fill="#bfe2e2" />
            <path d="M5.79,1.062H5.749L-.04.749A.75.75,0,0,1-.749-.04.75.75,0,0,1,.04-.749L5.83-.437a.75.75,0,0,1-.04,1.5Z" transform="translate(68.611 164.047)" fill="#bfe2e2" />
            <path d="M6,.763H6L0,.75A.75.75,0,0,1-.75,0,.75.75,0,0,1,0-.75l6,.013a.75.75,0,0,1,0,1.5Z" transform="translate(67.998 167.368)" fill="#bfe2e2" />
            <path d="M6.49.75H0A.75.75,0,0,1-.75,0,.75.75,0,0,1,0-.75H6.49A.75.75,0,0,1,7.24,0,.75.75,0,0,1,6.49.75Z" transform="translate(84.866 173.926)" fill="#bfe2e2" />
            <path d="M8.42,2.673a.752.752,0,0,1-.168-.019L-.167.731a.75.75,0,0,1-.564-.9.75.75,0,0,1,.9-.564L8.586,1.191A.75.75,0,0,1,8.42,2.673Z" transform="translate(82.572 176.009)" fill="#bfe2e2" />
            <path d="M5.438,2.352a.75.75,0,0,1-.212-.031L-.212.719A.75.75,0,0,1-.719-.212.75.75,0,0,1,.212-.719L5.65.883a.75.75,0,0,1-.212,1.47Z" transform="translate(84.852 179.533)" fill="#bfe2e2" />
            <path d="M4.385,2.833a.747.747,0,0,1-.321-.073L-.322.677a.75.75,0,0,1-.356-1,.75.75,0,0,1,1-.356L4.707,1.4a.75.75,0,0,1-.322,1.428Z" transform="translate(84.677 183.058)" fill="#bfe2e2" />
            <path d="M5.438,1.07H5.393L-.044.749a.75.75,0,0,1-.7-.793.75.75,0,0,1,.793-.7l5.438.32a.75.75,0,0,1-.043,1.5Z" transform="translate(67.325 171.123)" fill="#bfe2e2" />
            <path d="M0,.99A.75.75,0,0,1-.75.267.75.75,0,0,1-.027-.509L6.639-.75a.75.75,0,0,1,.777.723A.75.75,0,0,1,6.693.75L.027.99Z" transform="translate(67.062 175.448)" fill="#bfe2e2" />
            <path d="M7.368,2.272a.753.753,0,0,1-.152-.016L-.152.734A.75.75,0,0,1-.734-.152.75.75,0,0,1,.152-.734L7.519.787a.75.75,0,0,1-.151,1.485Z" transform="translate(66.273 178.732)" fill="#bfe2e2" />
            <path d="M7.455.75H0A.75.75,0,0,1-.75,0,.75.75,0,0,1,0-.75H7.455A.75.75,0,0,1,8.2,0,.75.75,0,0,1,7.455.75Z" transform="translate(65.133 183.859)" fill="#bfe2e2" />
        </g>
        <g transform="translate(10 6)">
            <path d="M7.74,44.761l29.8-24.386A83.552,83.552,0,0,0,58.171,10.8c1.269-1.284,2.75-3.827-2.753-3.113S44.094,8.91,43.232,7.065s2.365-4.274.69-6.736Q42.248-2.133,30.028,13.845L0,28.182Z" transform="translate(210.838 226.509) rotate(135)" fill="#efc6a1" />
            <path d="M7.74,0l29.8,24.386a83.552,83.552,0,0,1,20.628,9.571c1.269,1.284,2.75,3.827-2.753,3.113s-11.324-1.219-12.186.626,2.365,4.274.69,6.736q-1.675,2.462-13.894-13.516L0,16.579Z" transform="translate(279.507 194.858) rotate(45)" fill="#efc6a1" />
            <path d="M-2152-4672.271s-13.907,30.54-13.087,43.092,13.087,77.245,13.087,77.245h29.213l5.586-120.336Z" transform="translate(2354 4880.584)" fill="#7a8293" />
            <path d="M-2130.323-4672.271s13.907,30.54,13.087,43.092-13.087,77.245-13.087,77.245h-29.213l-5.586-120.336Z" transform="translate(2387.018 4880.584)" fill="#7a8293" />
            <path d="M2352,4953.3c-.122-5.673,2.685-11.309,7.044-14.14,2.487-1.615,5.765-2.833,6.409-5.986.675-3.3-2.073-6.092-3.287-9.191-1.777-4.535-.164-9.832,1.99-14.152,2.561-5.141,6.487-10.174,11.692-10.711a4.147,4.147,0,0,0,1.871-.722,3.478,3.478,0,0,0,1.676-2.811c.738-3.611,2.791-6.288,5.918-7.417,2.947-1.062,7.029-1.985,9.547-.036,4.224-1.1,8.914-.062,13.066,1.622a25.953,25.953,0,0,1,8.214,4.973c5.1,4.822,7.267,12.594,6.537,19.84a8.34,8.34,0,0,0,.065,3.4c.627,1.922,2.622,2.807,4.257,3.845,3.641,2.31,6.321,6.857,5.506,11.306-.43,2.351-1.774,4.712-1.052,6.98.879,2.768,4.115,3.477,6.552,4.79a10.658,10.658,0,0,1,5.382,10.824c-.775,4.31-9.728,7.126-9.728,7.126s-19.729,8.012-38.8,8.433-36.887-7.473-36.887-7.473C2354.413,4962.394,2352.1,4957.724,2352,4953.3Z" transform="translate(-2167.355 -4838.044)" fill="#313e58" />
            <g transform="translate(141.321 55.742)">
                <path d="M0,0,9.074,38.037h6.545L21.6,0Z" transform="translate(99.598 74.652) rotate(180)" fill="#e6b88e" />
                <path d="M4436.251,737.592s6.782,26.539,19.644,26.409,17.978-28.49,17.978-28.49,6.749-26.937-17.978-27.142S4436.251,737.592,4436.251,737.592Z" transform="translate(-4368.142 -708.369)" fill="#efc6a1" />
                <path d="M2252.692,4932.31h-42.012c2.425-36.406,20.136-79.012,32.416-101.051,3.181.07,25.8.07,28.98,0,12.279,22.04,29.99,64.645,32.416,101.051Z" transform="translate(-2169.558 -4766.529)" fill="#ffd964" />
                <path d="M8.633,0s.2,44.395,8.633,58.556H0Z" transform="translate(48.365 107.52)" fill="rgba(0,0,0,0.1)" />
                <path d="M8.633,0S8.436,44.395,0,58.556H17.267Z" transform="translate(110.424 107.52)" fill="rgba(0,0,0,0.1)" />
                <path d="M46.172,0S36.5,4.814,27.146,19.7C15.595,38.075,3.521,70.63,0,110.356H28.175C23.8,50.3,51.049,4.335,51.049,4.335Z" transform="translate(27.345 64.73)" fill="#ffd964" />
                <path d="M4.877,0S14.547,4.814,23.9,19.7C35.454,38.075,47.528,70.63,51.049,110.356H22.874C27.253,50.3,0,4.335,0,4.335Z" transform="translate(97.661 64.73)" fill="#ffd964" />
            </g>
            <path d="M-2149.279-4804.592s16.409.219,23.7-13.6,23.508,13.6,23.508,13.6,3.218-14.212,1.2-17.877-3.79-14.02-21.776-14.881C-2148.028-4838.624-2149.279-4804.592-2149.279-4804.592Z" transform="translate(2352 4891.194)" fill="#313e58" />
        </g>
        <g transform="translate(7 6)">
            <g transform="translate(39.964 189.759)">
                <path d="M0,0,37.057,130.043l27.037,95.849h19.72L55.084,0Z" transform="translate(57.239 0)" fill="#313e58" />
                <path d="M45.5,0c-.857,67.026-3.78,103.583-4.68,109.673S26.316,154.5,0,225.891H20.429q50.253-102.729,56.1-116.219C80.435,100.68,92.475,64.122,110.609,0Z" transform="translate(1.826 0)" fill="#7a8293" />
                <g transform="translate(0 222.825)">
                    <path d="M0,21.465,1.022,0H22.487C37.754,10.732,62.35,17.376,62.35,17.376v4.089H23.509L10.221,19.421v2.044Z" fill="#313e58" />
                </g>
                <g transform="translate(118.567 222.825)">
                    <path d="M0,21.465,1.022,0H22.487C37.754,10.732,62.35,17.376,62.35,17.376v4.089H23.509L10.221,19.421v2.044Z" fill="#313e58" />
                </g>
            </g>
            <g transform="translate(117.391 41.018)">
                <g transform="translate(0.123 2.186)">
                    <path d="M0,80.6,9.122,38.078C4.035,32.107.591,24.788,1.167,16.589c1.658-23.627,34.548-18.429,40.945-6.5s5.638,42.173-2.63,44.3c-3.3.85-10.322-1.232-17.472-5.541L26.5,80.6Z" transform="translate(0 0)" fill="#efc6a1" />
                </g>
                <path d="M22.308,49.739c-1.78-5.376-2.458-20.852-2.622-25.425a6.7,6.7,0,0,0-.795-.047A6.625,6.625,0,0,0,14.263,35.63c-1.533,2.163-3.25,4.424-5.219,6.756-7.4-4.437-12.883-17.425-5.653-29.9,2-6.112,6.522-9.377,11.865-10.892A19.22,19.22,0,0,1,27.87.663C35.3,1.3,41.943,3.568,43.825,4.915c0,7.038-1.364,9.127-13.013,8.943-2.862,1.511-5.063,4.114-7.355,7.527.017.228,1.557,21.194,8.049,21.194,6.527,0,12.066-4.145,14.931-4.145,2.088,0,1.622,2.613.237,4.55-1.142,1.6-6.7,3.139-6.7,5.617,0,1.4,1.4,1.4,2.62,1.394.94,0,1.773,0,1.773.637,0,2.43.773,7-3.447,7C36.649,57.633,24.406,56.076,22.308,49.739Z" transform="translate(0 0)" fill="#313e58" />
            </g>
            <path d="M0,29.071,34.4,13.962A81.528,81.528,0,0,1,51.864.268c1.678-.534,4.546-.7,1.486,3.773s-16.6,19.349-16.6,19.349L10.986,43.145Z" transform="translate(187.093 148.38)" fill="#efc6a1" />
            <path d="M0,2.118,8.056,0C27.384,15.723,38.286,56.605,50.639,61.062c11.68,4.214,27.152-2.206,45.472-10.65l6.925,12.435c-15.559,20.1-50.8,39.007-66.421,31.338C11.635,81.924,1.677,31.2,0,2.118Z" transform="matrix(0.996, 0.087, -0.087, 0.996, 129.824, 100.892)" fill="#629d62" />
            <path d="M0,108.243H72.648c3.32,0,2.694-4.793,2.214-7.212C69.324,73.115,47.7,43.023,47.7,3.286L26.749,0C9.417,27.876,3.423,62.2,0,108.243Z" transform="translate(93.848 97.94)" fill="#e4e6ea" />
            <path d="M0,128.183H65.394C78.054,96.19,49.836,0,49.836,0H41.778C26.111,27.957,3.061,82,0,128.183Z" transform="translate(77.706 97.939)" fill="#85cb85" />
            <path d="M21.987,54.809,77.081,11.333,48.1,0,0,34.192Z" transform="translate(215.36 138.254) rotate(-20)" fill="#fff" />
            <path d="M21.987,55.809a1,1,0,0,1-.684-.271L-.684,34.921a1,1,0,0,1-.314-.8,1,1,0,0,1,.418-.747L47.523-.815a1,1,0,0,1,.944-.116L77.445,10.4a1,1,0,0,1,.255,1.716L22.606,55.594A1,1,0,0,1,21.987,55.809ZM1.576,34.3,22.043,53.491,75.091,11.628l-26.85-10.5Z" transform="translate(215.36 138.254) rotate(-20)" fill="#5bb3b3" />
            <path d="M-2121.684-4709.081l21.619,6.664,28.5-43.577-23.995-.873Z" transform="translate(2357.615 4871.728)" fill="#bfe2e2" />
            <ellipse cx="2.325" cy="2.325" rx="2.325" ry="2.325" transform="matrix(0.839, 0.545, -0.545, 0.839, 242.172, 166.925)" fill="#5bb3b3" />
            <path d="M23.707,4.356S37.415-.32,41.452.018,65.641,6.707,65.641,6.707s-2.231,3.531-18.09,0c-1.33,1.03,4.626,5.753-1.335,8.867S42.8,22.346,23.707,17.615c-2.215-.548-23.4,2.97-23.4,2.97s-.7-8.557,0-10.939C4.375,7.95,23.707,4.356,23.707,4.356Z" transform="translate(187.093 177.813) rotate(-22)" fill="#efc6a1" />
            <g transform="translate(104.356 117.68)">
                <path d="M0,2.118,8.056,0C27.384,15.723,38.286,56.605,50.639,61.062c11.68,4.214,27.152-2.206,45.472-10.65l6.925,12.435c-15.559,20.1-50.8,39.007-66.421,31.338C11.635,81.924,1.677,31.2,0,2.118Z" transform="matrix(0.996, 0.087, -0.087, 0.996, 8.361, 0)" fill="#85cb85" />
            </g>
            <path d="M51.722,43.7h0a13.253,13.253,0,0,1,5.623,1.457,1,1,0,0,1,.522.818c.235,3.811-.439,6.585-2,8.247a5.172,5.172,0,0,1-3.8,1.633,4.346,4.346,0,0,1-.657-.046A5.089,5.089,0,0,1,48.2,53.959c-1.44-1.719-2-4.326-1.66-7.749a1,1,0,0,1,.289-.61A6.665,6.665,0,0,1,51.722,43.7ZM55.9,46.684a10.959,10.959,0,0,0-4.178-.981A4.825,4.825,0,0,0,48.5,46.781c-.512,6.489,2.9,7.014,3.131,7.042a.461.461,0,0,1,.1.013,2.437,2.437,0,0,0,.345.022,3.186,3.186,0,0,0,2.338-1C55.491,51.7,56,49.578,55.9,46.684Z" transform="translate(106.277 19.165)" fill="#313e58" />
            <path d="M-5243.831-7107.651h-13.694a1.25,1.25,0,0,1-1.25-1.25,1.25,1.25,0,0,1,1.25-1.25h13.694a1.25,1.25,0,0,1,1.25,1.25A1.25,1.25,0,0,1-5243.831-7107.651Z" transform="translate(4356.087 7835.26) rotate(8)" fill="#313e58" />
        </g>
    </g>
</svg>