<svg xmlns="http://www.w3.org/2000/svg" xmlns:xlink="http://www.w3.org/1999/xlink" width="400" height="320" viewBox="0 0 400 320">
    <defs>
        <clipPath>
            <rect width="400" height="320" />
        </clipPath>
    </defs>
    <g clip-path="url(#b)">
        <rect width="400" height="320" fill="transparent" />
        <g transform="translate(2 -3)">
            <path d="M0,0V57H61V0H0M0-2H61a2,2,0,0,1,2,2V57a2,2,0,0,1-2,2H0a2,2,0,0,1-2-2V0A2,2,0,0,1,0-2Z" transform="translate(5 184)" fill="#5bb3b3" />
            <path d="M0,38a1,1,0,0,1-1-1V0A1,1,0,0,1,0-1,1,1,0,0,1,1,0V37A1,1,0,0,1,0,38Z" transform="translate(35.5 194.5)" fill="#5bb3b3" />
            <path d="M-2310.214-1092a1,1,0,0,1-1-1v-8.743h-12.047V-1093a1,1,0,0,1-1,1,1,1,0,0,1-1-1v-9.743a1,1,0,0,1,1-1h14.047a1,1,0,0,1,1,1V-1093A1,1,0,0,1-2310.214-1092Z" transform="translate(2352.761 1334)" fill="#5bb3b3" />
            <path d="M-2310.214-1092h-14.047a1,1,0,0,1-1-1v-9.743a1,1,0,0,1,1-1,1,1,0,0,1,1,1V-1094h12.047v-8.743a1,1,0,0,1,1-1,1,1,0,0,1,1,1V-1093A1,1,0,0,1-2310.214-1092Z" transform="translate(2352.761 1287.5)" fill="#5bb3b3" />
        </g>
        <g transform="translate(329 -3)">
            <path d="M0,0V57H61V0H0M0-2H61a2,2,0,0,1,2,2V57a2,2,0,0,1-2,2H0a2,2,0,0,1-2-2V0A2,2,0,0,1,0-2Z" transform="translate(5 184)" fill="#5bb3b3" />
            <path d="M0,38a1,1,0,0,1-1-1V0A1,1,0,0,1,0-1,1,1,0,0,1,1,0V37A1,1,0,0,1,0,38Z" transform="translate(35.5 194.5)" fill="#5bb3b3" />
            <path d="M-2310.214-1092a1,1,0,0,1-1-1v-8.743h-12.047V-1093a1,1,0,0,1-1,1,1,1,0,0,1-1-1v-9.743a1,1,0,0,1,1-1h14.047a1,1,0,0,1,1,1V-1093A1,1,0,0,1-2310.214-1092Z" transform="translate(2352.761 1334)" fill="#5bb3b3" />
            <path d="M-2310.214-1092h-14.047a1,1,0,0,1-1-1v-9.743a1,1,0,0,1,1-1,1,1,0,0,1,1,1V-1094h12.047v-8.743a1,1,0,0,1,1-1,1,1,0,0,1,1,1V-1093A1,1,0,0,1-2310.214-1092Z" transform="translate(2352.761 1287.5)" fill="#5bb3b3" />
        </g>
        <g transform="translate(260 -3)">
            <path d="M0,0V57H61V0H0M0-2H61a2,2,0,0,1,2,2V57a2,2,0,0,1-2,2H0a2,2,0,0,1-2-2V0A2,2,0,0,1,0-2Z" transform="translate(5 184)" fill="#5bb3b3" />
            <path d="M0,38a1,1,0,0,1-1-1V0A1,1,0,0,1,0-1,1,1,0,0,1,1,0V37A1,1,0,0,1,0,38Z" transform="translate(35.5 194.5)" fill="#5bb3b3" />
            <path d="M-2310.214-1092a1,1,0,0,1-1-1v-8.743h-12.047V-1093a1,1,0,0,1-1,1,1,1,0,0,1-1-1v-9.743a1,1,0,0,1,1-1h14.047a1,1,0,0,1,1,1V-1093A1,1,0,0,1-2310.214-1092Z" transform="translate(2352.761 1334)" fill="#5bb3b3" />
            <path d="M-2310.214-1092h-14.047a1,1,0,0,1-1-1v-9.743a1,1,0,0,1,1-1,1,1,0,0,1,1,1V-1094h12.047v-8.743a1,1,0,0,1,1-1,1,1,0,0,1,1,1V-1093A1,1,0,0,1-2310.214-1092Z" transform="translate(2352.761 1287.5)" fill="#5bb3b3" />
        </g>
        <g transform="translate(2 -87)">
            <path d="M0,0V57H61V0H0M0-2H61a2,2,0,0,1,2,2V57a2,2,0,0,1-2,2H0a2,2,0,0,1-2-2V0A2,2,0,0,1,0-2Z" transform="translate(5 184)" fill="#5bb3b3" />
            <path d="M0,38a1,1,0,0,1-1-1V0A1,1,0,0,1,0-1,1,1,0,0,1,1,0V37A1,1,0,0,1,0,38Z" transform="translate(35.5 194.5)" fill="#5bb3b3" />
            <path d="M-2310.214-1092a1,1,0,0,1-1-1v-8.743h-12.047V-1093a1,1,0,0,1-1,1,1,1,0,0,1-1-1v-9.743a1,1,0,0,1,1-1h14.047a1,1,0,0,1,1,1V-1093A1,1,0,0,1-2310.214-1092Z" transform="translate(2352.761 1334)" fill="#5bb3b3" />
            <path d="M-2310.214-1092h-14.047a1,1,0,0,1-1-1v-9.743a1,1,0,0,1,1-1,1,1,0,0,1,1,1V-1094h12.047v-8.743a1,1,0,0,1,1-1,1,1,0,0,1,1,1V-1093A1,1,0,0,1-2310.214-1092Z" transform="translate(2352.761 1287.5)" fill="#5bb3b3" />
        </g>
        <g transform="translate(90 -178)">
            <path d="M0,0V57H61V0H0M0-2H61a2,2,0,0,1,2,2V57a2,2,0,0,1-2,2H0a2,2,0,0,1-2-2V0A2,2,0,0,1,0-2Z" transform="translate(5 184)" fill="#5bb3b3" />
            <path d="M0,38a1,1,0,0,1-1-1V0A1,1,0,0,1,0-1,1,1,0,0,1,1,0V37A1,1,0,0,1,0,38Z" transform="translate(35.5 194.5)" fill="#5bb3b3" />
            <path d="M-2310.214-1092a1,1,0,0,1-1-1v-8.743h-12.047V-1093a1,1,0,0,1-1,1,1,1,0,0,1-1-1v-9.743a1,1,0,0,1,1-1h14.047a1,1,0,0,1,1,1V-1093A1,1,0,0,1-2310.214-1092Z" transform="translate(2352.761 1334)" fill="#5bb3b3" />
            <path d="M-2310.214-1092h-14.047a1,1,0,0,1-1-1v-9.743a1,1,0,0,1,1-1,1,1,0,0,1,1,1V-1094h12.047v-8.743a1,1,0,0,1,1-1,1,1,0,0,1,1,1V-1093A1,1,0,0,1-2310.214-1092Z" transform="translate(2352.761 1287.5)" fill="#5bb3b3" />
        </g>
        <g transform="translate(329 -178)">
            <path d="M0,0V57H61V0H0M0-2H61a2,2,0,0,1,2,2V57a2,2,0,0,1-2,2H0a2,2,0,0,1-2-2V0A2,2,0,0,1,0-2Z" transform="translate(5 184)" fill="#5bb3b3" />
            <path d="M0,38a1,1,0,0,1-1-1V0A1,1,0,0,1,0-1,1,1,0,0,1,1,0V37A1,1,0,0,1,0,38Z" transform="translate(35.5 194.5)" fill="#5bb3b3" />
            <path d="M-2310.214-1092a1,1,0,0,1-1-1v-8.743h-12.047V-1093a1,1,0,0,1-1,1,1,1,0,0,1-1-1v-9.743a1,1,0,0,1,1-1h14.047a1,1,0,0,1,1,1V-1093A1,1,0,0,1-2310.214-1092Z" transform="translate(2352.761 1334)" fill="#5bb3b3" />
            <path d="M-2310.214-1092h-14.047a1,1,0,0,1-1-1v-9.743a1,1,0,0,1,1-1,1,1,0,0,1,1,1V-1094h12.047v-8.743a1,1,0,0,1,1-1,1,1,0,0,1,1,1V-1093A1,1,0,0,1-2310.214-1092Z" transform="translate(2352.761 1287.5)" fill="#5bb3b3" />
        </g>
        <g transform="translate(2 -3)">
            <path d="M0,0V57H61V0H0M0-2H61a2,2,0,0,1,2,2V57a2,2,0,0,1-2,2H0a2,2,0,0,1-2-2V0A2,2,0,0,1,0-2Z" transform="translate(77 184)" fill="#5bb3b3" />
            <path d="M0,38a1,1,0,0,1-1-1V0A1,1,0,0,1,0-1,1,1,0,0,1,1,0V37A1,1,0,0,1,0,38Z" transform="translate(107.5 194.5)" fill="#5bb3b3" />
            <path d="M-2310.214-1092a1,1,0,0,1-1-1v-8.743h-12.047V-1093a1,1,0,0,1-1,1,1,1,0,0,1-1-1v-9.743a1,1,0,0,1,1-1h14.047a1,1,0,0,1,1,1V-1093A1,1,0,0,1-2310.214-1092Z" transform="translate(2424.761 1334)" fill="#5bb3b3" />
            <path d="M-2310.214-1092h-14.047a1,1,0,0,1-1-1v-9.743a1,1,0,0,1,1-1,1,1,0,0,1,1,1V-1094h12.047v-8.743a1,1,0,0,1,1-1,1,1,0,0,1,1,1V-1093A1,1,0,0,1-2310.214-1092Z" transform="translate(2424.761 1287.5)" fill="#5bb3b3" />
        </g>
        <g transform="translate(99 -69.727)">
            <path d="M0,0V40H61V0H0M0-2H61a2,2,0,0,1,2,2V40a2,2,0,0,1-2,2H0a2,2,0,0,1-2-2V0A2,2,0,0,1,0-2Z" transform="translate(77 183.727)" fill="#5bb3b3" />
            <path d="M0,20.727a1,1,0,0,1-1-1V0A1,1,0,0,1,0-1,1,1,0,0,1,1,0V19.727A1,1,0,0,1,0,20.727Z" transform="translate(107.5 194.5)" fill="#5bb3b3" />
            <path d="M-2310.214-1092a1,1,0,0,1-1-1v-8.743h-12.047V-1093a1,1,0,0,1-1,1,1,1,0,0,1-1-1v-9.743a1,1,0,0,1,1-1h14.047a1,1,0,0,1,1,1V-1093A1,1,0,0,1-2310.214-1092Z" transform="translate(2424.761 1316.727)" fill="#5bb3b3" />
            <path d="M-2310.214-1092h-14.047a1,1,0,0,1-1-1v-9.743a1,1,0,0,1,1-1,1,1,0,0,1,1,1V-1094h12.047v-8.743a1,1,0,0,1,1-1,1,1,0,0,1,1,1V-1093A1,1,0,0,1-2310.214-1092Z" transform="translate(2424.761 1287.5)" fill="#5bb3b3" />
        </g>
        <g transform="translate(171 -87)">
            <path d="M0,0V57H61V0H0M0-2H61a2,2,0,0,1,2,2V57a2,2,0,0,1-2,2H0a2,2,0,0,1-2-2V0A2,2,0,0,1,0-2Z" transform="translate(77 184)" fill="#5bb3b3" />
            <path d="M0,38a1,1,0,0,1-1-1V0A1,1,0,0,1,0-1,1,1,0,0,1,1,0V37A1,1,0,0,1,0,38Z" transform="translate(107.5 194.5)" fill="#5bb3b3" />
            <path d="M-2310.214-1092a1,1,0,0,1-1-1v-8.743h-12.047V-1093a1,1,0,0,1-1,1,1,1,0,0,1-1-1v-9.743a1,1,0,0,1,1-1h14.047a1,1,0,0,1,1,1V-1093A1,1,0,0,1-2310.214-1092Z" transform="translate(2424.761 1334)" fill="#5bb3b3" />
            <path d="M-2310.214-1092h-14.047a1,1,0,0,1-1-1v-9.743a1,1,0,0,1,1-1,1,1,0,0,1,1,1V-1094h12.047v-8.743a1,1,0,0,1,1-1,1,1,0,0,1,1,1V-1093A1,1,0,0,1-2310.214-1092Z" transform="translate(2424.761 1287.5)" fill="#5bb3b3" />
        </g>
        <g transform="translate(241 -100.447)">
            <path d="M0,0V70H77V0H0M0-2H77a2,2,0,0,1,2,2V70a2,2,0,0,1-2,2H0a2,2,0,0,1-2-2V0A2,2,0,0,1,0-2Z" transform="translate(77 184.447)" fill="#5bb3b3" />
            <path d="M0,51.447a1,1,0,0,1-1-1V0A1,1,0,0,1,0-1,1,1,0,0,1,1,0V50.447A1,1,0,0,1,0,51.447Z" transform="translate(115.5 194.5)" fill="#5bb3b3" />
            <path d="M-2310.214-1092a1,1,0,0,1-1-1v-8.743h-12.047V-1093a1,1,0,0,1-1,1,1,1,0,0,1-1-1v-9.743a1,1,0,0,1,1-1h14.047a1,1,0,0,1,1,1V-1093A1,1,0,0,1-2310.214-1092Z" transform="translate(2432.769 1347.447)" fill="#5bb3b3" />
            <path d="M-2310.214-1092h-14.047a1,1,0,0,1-1-1v-9.743a1,1,0,0,1,1-1,1,1,0,0,1,1,1V-1094h12.047v-8.743a1,1,0,0,1,1-1,1,1,0,0,1,1,1V-1093A1,1,0,0,1-2310.214-1092Z" transform="translate(2432.769 1287.5)" fill="#5bb3b3" />
        </g>
        <g transform="translate(-70 -191.447)">
            <path d="M0,0V70H77V0H0M0-2H77a2,2,0,0,1,2,2V70a2,2,0,0,1-2,2H0a2,2,0,0,1-2-2V0A2,2,0,0,1,0-2Z" transform="translate(77 184.447)" fill="#5bb3b3" />
            <path d="M0,51.447a1,1,0,0,1-1-1V0A1,1,0,0,1,0-1,1,1,0,0,1,1,0V50.447A1,1,0,0,1,0,51.447Z" transform="translate(115.5 194.5)" fill="#5bb3b3" />
            <path d="M-2310.214-1092a1,1,0,0,1-1-1v-8.743h-12.047V-1093a1,1,0,0,1-1,1,1,1,0,0,1-1-1v-9.743a1,1,0,0,1,1-1h14.047a1,1,0,0,1,1,1V-1093A1,1,0,0,1-2310.214-1092Z" transform="translate(2432.769 1347.447)" fill="#5bb3b3" />
            <path d="M-2310.214-1092h-14.047a1,1,0,0,1-1-1v-9.743a1,1,0,0,1,1-1,1,1,0,0,1,1,1V-1094h12.047v-8.743a1,1,0,0,1,1-1,1,1,0,0,1,1,1V-1093A1,1,0,0,1-2310.214-1092Z" transform="translate(2432.769 1287.5)" fill="#5bb3b3" />
        </g>
        <path d="M400,1H0A1,1,0,0,1-1,0,1,1,0,0,1,0-1H400a1,1,0,0,1,1,1A1,1,0,0,1,400,1Z" transform="translate(0.5 260.5)" fill="#5bb3b3" />
        <path d="M400,1H0A1,1,0,0,1-1,0,1,1,0,0,1,0-1H400a1,1,0,0,1,1,1A1,1,0,0,1,400,1Z" transform="translate(0.5 246.5)" fill="#5bb3b3" />
        <path d="M400,1H0A1,1,0,0,1-1,0,1,1,0,0,1,0-1H400a1,1,0,0,1,1,1A1,1,0,0,1,400,1Z" transform="translate(0.5 160)" fill="#5bb3b3" />
        <path d="M400,1H0A1,1,0,0,1-1,0,1,1,0,0,1,0-1H400a1,1,0,0,1,1,1A1,1,0,0,1,400,1Z" transform="translate(0.5 69)" fill="#5bb3b3" />
        <g transform="translate(1003.898 992.583)">
            <g transform="translate(-1069.033 -900.944)">
                <path d="M11.352.022C-5.6-.848.775,29.121,3.277,40.211c3.036,13.46,12.5,34.447,29.247,32.435-3.108-6.874-6.481-14.163-9.489-20.831-.659-1.44-1.347-3.174-1.967-4.8-.49-1.288-2.738-8,.1-4.478,1.507,1.869,2.305,6.34,3.311,8.751.637,1.528,1.542,3.837,1.983,4.813,7.9,18.86,21.453,34.287,22.335,55.615.228,5.528-.846,10.151-2.064,15.44-.191.829-1.369,3.333.607,3.183,1.769-.134,2.464-4.657,2.782-5.9,2.5-9.822,1.029-20.75-1.962-30.283a74,74,0,0,0-9.124-18.216c-1.911-2.936-2.522-2.743-1.086-5.849a18.417,18.417,0,0,0,1.572-9.106c-.586-4.361-2.259-15.286-3.752-19.468-.626-1.752-.754-7.511-10.059-17.787C19.6,8.579,11.352.022,11.352.022Z" transform="translate(9.045 56.295) rotate(4)" fill="#bfe2e2" />
                <path d="M11.306,130.3c-16.95.87-10.577-29.1-8.076-40.188,3.036-13.46,12.5-34.447,29.247-32.435C29.369,64.554,26,71.843,22.987,78.511c-.659,1.44-1.347,3.174-1.967,4.8-.49,1.288-2.738,8,.1,4.478,1.507-1.869,2.305-6.34,3.311-8.751.637-1.528,1.542-3.837,1.983-4.813,7.9-18.86,21.453-34.287,22.335-55.615.228-5.528-.846-10.151-2.064-15.44-.191-.829-1.369-3.333.607-3.183,1.769.134,2.464,4.657,2.782,5.9,2.5,9.822,1.029,20.751-1.962,30.283a74,74,0,0,1-9.124,18.216c-1.911,2.936-2.522,2.743-1.086,5.849a18.417,18.417,0,0,1,1.572,9.106c-.586,4.361-2.259,15.286-3.752,19.468-.626,1.752-.754,7.511-10.059,17.787C19.558,121.747,11.306,130.3,11.306,130.3Z" transform="matrix(-0.998, 0.07, -0.07, -0.998, 104.303, 178.66)" fill="#bfe2e2" />
                <path d="M78.466.028c.39,4.3,1.08,6.842.005,14.557-1.755,12.594-4.183,24.182-17.212,28.652-4.778,1.639-12.223,7.609-16.275,10.942a39.645,39.645,0,0,0-6.269,7.034l-.021.033c-6.234,9.146-15.378,17.009-27.139,13.1.231-.42.466-.9.718-1.379A7.84,7.84,0,0,1,13.8,70.5,186.209,186.209,0,0,1,24.512,54.971c1.537-2,5.342-5.591,5.727-7.479.8-3.916-4.374,3.164-4.338,3.119a214.833,214.833,0,0,0-13.42,19.074s0,.01,0,.014a6.009,6.009,0,0,1-1.24,2.277,4.113,4.113,0,0,1-.587.828c-.077.115-.143.219-.192.305-.029-.022-.055-.046-.084-.068a1.532,1.532,0,0,1-.127.088q-1.136,2.308-2.169,4.654C1.547,92.705,1.992,107.229,2.512,123.2c.107,3.279,1.251,8.207.341,11.345-.994,3.431-1.659.052-1.776-1.994C.643,124.933.269,117.3.065,109.671A82.354,82.354,0,0,1,8.083,72.825a13.06,13.06,0,0,1-3.392-4.187c-2.075-3.974-1.569-8.754.226-12.739a27.348,27.348,0,0,1,5.517-7.926,23.139,23.139,0,0,1,4.778-6.425C22.036,34.911,29.577,28.255,32.56,22.5S48.486,4.331,78.466.028Z" transform="matrix(0.998, 0.07, -0.07, 0.998, 74.286, 61.319)" fill="#bfe2e2" />
                <path d="M51.824,1.179C37.769,12.276,16.223,23.5,9.187,39.561,1.329,57.5,8.336,81.689,5.477,101.083,3.6,113.824,1.451,126.609.4,139.452c-.373,4.561-.561,9.156-.476,13.732.007.376.2,10.594,2.054,8.48,1.055-1.2-.18-10.6-.158-12.129a197.534,197.534,0,0,1,2.331-25.749c2.061-14.055,3.614-28.109,7-41.925a48.12,48.12,0,0,1,1.763-6.215c.831-2.1.029-1.247,1.86-1.868,1.779-.6,3.816-.2,5.688-1C27.891,69.568,32.893,59.353,36.6,52.71A136.47,136.47,0,0,0,46.641,28.571a179.319,179.319,0,0,0,4.976-18.347A49.363,49.363,0,0,1,53,4.293a13.764,13.764,0,0,0,.879-1.836c.1-.991-.412-1.654-.344-2.49q-.867.588-1.71,1.213" transform="translate(31.179 6.601) rotate(-7)" fill="#bfe2e2" />
                <path d="M0,0C0,37.438,17.267,67.787,38.567,67.787S77.134,37.438,77.134,0" transform="translate(19.636 177.574)" fill="#bfe2e2" />
                <path d="M50.972,15.151C46.365,7.094,35.7-.649,26.157.054a6.783,6.783,0,0,0-2.882.854A28.761,28.761,0,0,0,19.5.867C8.286,2.441,3.179,16.714,1.548,26.433A76.421,76.421,0,0,0,.737,35.2C.639,37.113-.67,43.551.5,45.044c1.842,2.362,1.817-3.684,1.858-4.224.251-3.3.406-6.613.789-9.9C4.286,21.112,8.6,5.67,19.691,3.228c1.028-.227,4.6.155,7.6.483a3.668,3.668,0,0,1,2.328,1.446c.824,1.982-4.737-.527-5.289-.647-3.238-.7-5.358-.024-5.01,3.752.252,2.737,2.408,4.431,4.36,6.086,1.246,1.057,2.594,2,3.828,3.073C32.8,22.024,41.3,48.337,41.3,48.337s8.936-6.647,10.47-11.265c2.29-6.9,2.912-15.426-.8-21.921" transform="matrix(0.998, 0.07, -0.07, 0.998, 69.421, 144.676)" fill="#bfe2e2" />
            </g>
        </g>
        <g transform="translate(1393.544 963.592)">
            <g transform="translate(-1069.033 -900.944)">
                <path d="M13.1-.129C-6.448-.745.509,28.112,3.249,38.788c3.325,12.958,13.965,33.1,33.319,30.936-3.5-6.6-7.292-13.591-10.674-19.991-.742-1.382-1.513-3.047-2.207-4.612-.549-1.237-3.054-7.689.175-4.326,1.715,1.785,2.576,6.092,3.705,8.407.715,1.467,1.728,3.685,2.224,4.621,8.871,18.109,24.3,32.827,25.037,53.412.19,5.335-1.11,9.814-2.586,14.938-.231.8-1.623,3.237.659,3.066,2.043-.153,2.9-4.53,3.288-5.739,3.018-9.519,1.462-20.052-1.864-29.219-2.309-6.364-6.043-11.963-10.287-17.47C41.872,70,41.164,70.2,42.862,67.178A15.482,15.482,0,0,0,44.8,58.364c-.619-4.2-2.4-14.732-4.072-18.751-.7-1.684-.771-7.243-11.372-17.044A74.137,74.137,0,0,0,13.1-.129Z" transform="translate(10.445 54.312) rotate(4)" fill="#bfe2e2" />
                <path d="M14.769,125.984c-19.547.616-12.59-28.24-9.85-38.917,3.325-12.958,13.965-33.1,33.319-30.936-3.5,6.6-7.292,13.591-10.674,19.991-.742,1.382-1.513,3.047-2.207,4.612-.549,1.237-3.054,7.689.175,4.326,1.715-1.785,2.576-6.092,3.705-8.407.715-1.467,1.729-3.685,2.224-4.621C40.333,53.923,55.764,39.2,56.5,18.62c.19-5.335-1.11-9.814-2.586-14.938-.231-.8-1.623-3.237.659-3.066,2.043.153,2.9,4.53,3.288,5.739C60.877,15.873,59.321,26.407,56,35.573c-2.309,6.364-6.043,11.963-10.287,17.47-2.166,2.81-2.874,2.616-1.176,5.634a15.482,15.482,0,0,1,1.934,8.814c-.619,4.2-2.4,14.732-4.072,18.751-.7,1.684-.771,7.243-11.372,17.044A74.137,74.137,0,0,1,14.769,125.984Z" transform="matrix(-0.998, 0.07, -0.07, -0.998, 120.453, 172.368)" fill="#bfe2e2" />
                <path d="M90.542-1.011c.393,4.15,1.156,6.593-.187,14.058-2.192,12.185-5.147,23.408-20.24,27.9C64.58,42.59,55.91,48.454,51.191,51.726A43.144,43.144,0,0,0,43.864,58.6l-.025.032c-7.315,8.915-17.97,16.629-31.489,13.009.272-.408.549-.877.846-1.341A7.82,7.82,0,0,1,15,67.9,189.594,189.594,0,0,1,27.558,52.762c1.8-1.95,6.238-5.47,6.707-7.3.974-3.792-5.089,3.113-5.047,3.07a219.8,219.8,0,0,0-15.738,18.6s0,.01,0,.014c-.011.5-.781,1.427-1.461,2.215a4.22,4.22,0,0,1-.688.807c-.091.112-.168.213-.225.3-.033-.021-.063-.044-.1-.065-.049.03-.1.061-.148.086-.894,1.5-1.753,3-2.565,4.523-7.74,14.5-7.419,28.516-7.03,43.935.08,3.165,1.336,7.909.244,10.951-1.193,3.327-1.915.072-2.023-1.9-.4-7.353-.731-14.719-.867-22.085-.224-12.2,3.363-24.46,9.74-35.689a12.832,12.832,0,0,1-3.859-4c-2.342-3.81-1.695-8.433.429-12.3A27.924,27.924,0,0,1,11.4,46.19,23.982,23.982,0,0,1,17,39.922C24.966,33.422,33.755,26.9,37.274,21.3S55.891,3.541,90.542-1.011Z" transform="matrix(0.998, 0.07, -0.07, 0.998, 85.788, 59.159)" fill="#bfe2e2" />
                <path d="M59.729,2.333C43.792,12.747,19.229,23.115,11.493,38.49c-8.64,17.173-.012,40.744-2.86,59.443-1.871,12.285-4.051,24.607-4.964,37.01a111.466,111.466,0,0,0-.232,13.276c.017.364.474,10.255,2.561,8.252,1.187-1.139-.451-10.257-.461-11.74a159.392,159.392,0,0,1,2.094-24.861c2.051-13.553,3.517-27.115,7.1-40.405a39.4,39.4,0,0,1,1.889-5.973c.909-2.015,0-1.206,2.1-1.764,2.036-.543,4.392-.1,6.529-.841,8.48-2.932,14.008-12.7,18.128-19.044,4.713-7.252,8.089-15.213,11.009-23.127A146.475,146.475,0,0,0,59.7,11.079a40.1,40.1,0,0,1,1.455-5.707c.194-.491.928-1.3.971-1.757.09-.957-.513-1.61-.454-2.417q-.986.549-1.942,1.134" transform="translate(36.007 6.369) rotate(-7)" fill="#bfe2e2" />
                <path d="M0,0C0,36.119,19.941,65.4,44.539,65.4S89.077,36.119,89.077,0" transform="translate(22.676 171.32)" fill="#bfe2e2" />
                <path d="M58.617,13.957C53.407,6.238,41.206-1.1,30.182-.293A9.144,9.144,0,0,0,26.845.57a39.644,39.644,0,0,0-4.359.01C9.529,2.248,3.447,16.1,1.436,25.506A62.659,62.659,0,0,0,.385,33.982c-.138,1.85-1.734,8.084-.409,9.511,2.094,2.256,2.146-3.582,2.2-4.1C2.51,36.2,2.733,33,3.218,29.822c1.449-9.49,6.631-24.46,19.462-26.965,1.189-.233,5.31.088,8.765.366,1.332.332,2.385.784,2.667,1.365.925,1.9-5.459-.447-6.094-.555-3.727-.636-6.183.048-5.831,3.69.255,2.64,2.721,4.248,4.95,5.82,1.424,1,2.967,1.9,4.377,2.917,6.047,4.375,15.508,29.673,15.508,29.673s10.4-6.537,12.23-11.017c2.734-6.692,3.565-14.935-.635-21.159" transform="matrix(0.998, 0.07, -0.07, 0.998, 80.169, 139.58)" fill="#bfe2e2" />
            </g>
        </g>
        <path d="M29.624,164.419l46.522-5.049L41.668,0H0Z" transform="translate(108.764 212.5)" fill="#629d62" />
        <path d="M0,119.608l30.515,36.12s48.212-52.656,56.215-68.716S101.12,0,101.12,0H54.21s-3.488,62.42-4.7,65.325S0,119.608,0,119.608Z" transform="translate(45.397 212.5)" fill="#85cb85" />
        <path d="M65.785,0,36.7,101.675l-21.221,74.94H0L22.551,0Z" transform="translate(230.515 194)" fill="#313e58" />
        <path d="M51.1,0c.673,52.4,2.967,80.987,3.673,85.749s11.387,35.05,32.042,90.867H70.781Q31.338,96.3,26.745,85.749C23.683,78.717,14.233,50.134,0,0Z" transform="translate(252.978 194)" fill="#7a8293" />
        <g transform="translate(100.339 58.491)">
            <g transform="translate(12.955 12.193)">
                <path d="M0,55.63,6.3,26.283C2.785,22.162.408,17.11.805,11.45,1.95-4.858,24.652-1.27,29.067,6.961s3.892,29.11-1.815,30.581c-2.276.587-7.125-.85-12.06-3.825l3.1,21.914Z" transform="translate(0 0)" fill="#efc6a1" />
            </g>
            <path d="M-60.213,18.215A5.716,5.716,0,0,1-61.405,16a22.4,22.4,0,0,1-.763-2.515c-.384-1.714-.388-3.685.835-5.016a5.752,5.752,0,0,1,3.81-1.65,7,7,0,0,1,2.7.342c.86.283,1.6.847,2.436,1.2A10.9,10.9,0,0,1-51.1,3,5.341,5.341,0,0,1-47.123.407a7.885,7.885,0,0,1,4.844.976c.377.2.75.417,1.107.659a3.1,3.1,0,0,0,.961.528c.391.092.585-.134.839-.419a6.377,6.377,0,0,1,.989-.89A5.827,5.827,0,0,1-32.93.322a5.067,5.067,0,0,1,2.223,1.607c.507.665.869,1.721,1.569,2.184.3.2.507-.064.777-.257.406-.29.794-.609,1.2-.891a5.519,5.519,0,0,1,1.873-.847c.98-.227,2.335-.174,2.615,1.11a5.3,5.3,0,0,1-.009,1.484c-.047.667-.1,1.334-.153,2a14.443,14.443,0,0,1-.2,1.491,2.182,2.182,0,0,0-.1,1.024c.142.331.8.143,1.077.155a4.254,4.254,0,0,1,1.619.356,1.742,1.742,0,0,1,.98.906,1.628,1.628,0,0,1,.027.852,2.542,2.542,0,0,0,.052.874c.742-.365,3.314-1.178,3.638.153a2.081,2.081,0,0,1-.325,1.317,11.414,11.414,0,0,1-1.2,1.825,16.317,16.317,0,0,1-3.193,3.1,2.093,2.093,0,0,1,.546,3.5,2.593,2.593,0,0,1-1.9.552,4.21,4.21,0,0,0-.787-.062,1.882,1.882,0,0,1-.357.12,10.614,10.614,0,0,1-2.92-.371,9.629,9.629,0,0,1-4.454-2.329,1.373,1.373,0,0,0-1.03-.473c-.383,0-.759.109-1.142.119a8.224,8.224,0,0,1-2.866-.8,10.813,10.813,0,0,1-.939,3.812c-.424.932-1.309,1.067-2.178,1.149-2.78.262-5.571-.03-8.355-.026,2.695.609,5.48.86,8.151,1.577,1.207.324.285,1.138-.231,1.7a9.808,9.808,0,0,0-1.92,3.292,5.809,5.809,0,0,0-5.713-2.323c-2.281.583-3.887,3.668-2.429,5.885.847,1.287,2.376,1.784,3.648,2.337-.993,1.032-1.233,2.556-1.83,3.84a2.748,2.748,0,0,1-1.367,1.57,1.6,1.6,0,0,0-.722.287c-.238.246-.3.521-.6.733a3.379,3.379,0,0,1-4.187-.322,2.733,2.733,0,0,1,.093-3.583c-1.294-.539-3.651-1.233-3.137-3.249-2.8-.186-9.611-4.733-5.848-8.056-2.065-1.167-3.962-4.019-2.636-6.534,1.021-1.936,3.4-2.8,5.346-2.9" transform="translate(66 0)" fill="#313e58" />
        </g>
        <g transform="translate(259.611 41.069)">
            <g transform="translate(2.961 3.12)">
                <path d="M0,0,7.09,33.046C3.136,37.687.46,43.375.907,49.748,2.2,68.112,27.759,64.072,32.731,54.8s4.382-32.779-2.044-34.435c-2.563-.661-8.023.958-13.58,4.307L20.595,0Z" transform="translate(36.04 62.642) rotate(180)" fill="#b28b67" />
            </g>
            <path d="M7.03,0C3.616,2.049,1.016,6.193.244,10.814a17.878,17.878,0,0,0,.4,7.7,19.765,19.765,0,0,0,1.88,4.531C5.68,36.028,18.732,34.862,28.5,33.7c4.756-.568,8.733-1.137,10.408-.071,1.118-7.006-2.488-12.656-15.167-11.561-2.757-1.546-4.746-4.442-7.172-8.336a5.149,5.149,0,0,1-5.48-8.477C9.765,3.385,8.439,1.667,7.032,0h0Z" transform="translate(39.098 34.365) rotate(180)" fill="#313e58" />
        </g>
        <path d="M11.577,67.244c21.592-22.989,47.926-37.99,83.842-51.3L87.443,0c-37.057,3.494-56.869,6.284-72.4,29.309C11.145,35.087,4.175,54.97,0,65.3Z" transform="translate(311.548 161.378) rotate(159)" fill="#7468b4" />
        <path d="M2.788,120.655C18.3,117.6,64.419,133.113,72.3,116.365,87.875,83.236,58.962,37.39,56.052,0H32.242C29.631,0,11.886,34.017,11.869,56.117,11.854,76.3-6.924,89.116,2.788,120.655Z" transform="translate(246.819 97.618)" fill="#9183d8" />
        <path d="M11.577,0C33.168,22.989,59.5,37.99,95.419,51.3L87.443,67.245c-37.057-3.494-56.869-6.284-72.4-29.309C11.145,32.157,4.175,12.274,0,1.949Z" transform="matrix(0.899, 0.438, -0.438, 0.899, 124.888, 119.458)" fill="#96b7df" />
        <path d="M0,97.824H66.074S43.624,29.354,43.137,3.837c-.017-.867-1.618-2.4-2.327-2.2C33.037,3.837,24.174,0,24.174,0,8.51,25.193,3.093,56.21,0,97.824Z" transform="translate(91.642 117.845)" fill="#f2f2f2" />
        <path d="M1.22,118.939H36.451c29.16,0,21.778-59.359,1.99-118.939H28.2a4.648,4.648,0,0,0-4.24,2.9C10.33,29.2-4.376,81.335,1.22,118.939Z" transform="translate(83 117.845)" fill="#b2cae7" />
        <g transform="translate(160.108 180.728)">
            <rect width="77.23" height="86.669" transform="translate(-0.108 0.002)" fill="#ffe491" />
            <path d="M79.477,109.261a1.168,1.168,0,0,1-1.093-1.23V54.86a1.1,1.1,0,1,1,2.186,0v53.172a1.168,1.168,0,0,1-1.093,1.23" transform="translate(-40.492 -38.433)" fill="#313e58" />
            <rect width="18.375" height="18.375" transform="translate(29.892)" fill="#edc95a" />
            <rect width="18.375" height="18.375" transform="translate(29.892 68.487)" fill="#edc95a" />
            <path d="M52.14,120.682H36.259a1.093,1.093,0,1,1,0-2.186H52.14a1.093,1.093,0,1,1,0,2.186" transform="translate(-29.216 -52.562)" fill="#313e58" />
            <path d="M52.14,129.633H36.259a1.093,1.093,0,1,1,0-2.186H52.14a1.093,1.093,0,1,1,0,2.186" transform="translate(-29.216 -54.992)" fill="#313e58" />
        </g>
        <path d="M2882.31,1434.29c-31.446-19.843-27.686-19.047-31.057-46.508-.259-2.108,1.374,4.62,5.037,11.346,4.323,7.941,11.473,15.882,21.676,9.292,4.113.124,7.125.276,9.283.5q.408,4.487.544,8.658c-1.42,2.865-2.2,6.657-.258,11.7a61.982,61.982,0,0,1-1,7.084Z" transform="translate(-2748.938 -1218.388)" fill="#96b7df" />
        <path d="M2886.9,1437.093l-4.83-2.366-.023-.014c-7.084-4.47-12.271-7.823-16.238-10.725a41.2,41.2,0,0,1-8.671-7.91c-3.87-5.068-4.434-10.391-5.459-20.055-.255-2.4-.543-5.127-.918-8.18-.04-.324-.071-.58.107-.782a.51.51,0,0,1,.382-.173c.382,0,.513.336.651.691.1.248.225.6.386,1.053a72.372,72.372,0,0,0,4.445,10.256,30.912,30.912,0,0,0,5.864,7.944,11.775,11.775,0,0,0,8.01,3.536,13.158,13.158,0,0,0,7.091-2.369l.131-.084.156,0c4.285.129,7.246.287,9.318.5l.41.042.037.41c.274,3.016.458,5.939.546,8.687l0,.125-.056.113a13.412,13.412,0,0,0-.239,11.3l.042.108-.01.115a62.688,62.688,0,0,1-1.009,7.141Zm-4.341-3.24,3.617,1.772a62.907,62.907,0,0,0,.856-6.278,14.338,14.338,0,0,1,.262-11.881c-.085-2.567-.253-5.287-.5-8.092-2-.186-4.78-.33-8.683-.449a14.041,14.041,0,0,1-7.5,2.444,12.736,12.736,0,0,1-8.689-3.8,31.9,31.9,0,0,1-6.064-8.2,67.456,67.456,0,0,1-3.7-8.187c.192,1.7.359,3.277.514,4.738a99.3,99.3,0,0,0,1.634,11.609,20.056,20.056,0,0,0,3.625,7.944,40.291,40.291,0,0,0,8.467,7.71C2870.335,1426.063,2875.5,1429.4,2882.554,1433.853Z" transform="translate(-2748.938 -1218.388)" fill="rgba(0,0,0,0)" />
        <g transform="translate(123.105 115.192) rotate(56)">
            <path d="M1.973,0,33.615,12.331a73.68,73.68,0,0,1,19.908,2.406c1.414.731,3.35,2.46-1.461,3.361s-9.83,2.064-10.049,3.846,3.148,2.94,2.414,5.462q-.733,2.521-15.336-7.55L0,16.014Z" transform="matrix(0.788, -0.616, 0.616, 0.788, 57.959, 33.942)" fill="#efc6a1" />
            <path d="M9.2-2.078C27.994-2.114,50.986,11.682,87.374,0l3.5,17.483C59.6,37.6,61.909,34.526,35.6,25.975,31.193,24.544,12.268,20.145,9.2-2.078Z" transform="translate(0 22.995)" fill="#b2cae7" />
        </g>
        <path d="M2884.543,1364.492c5.28,27.159-9.969,47.159-33.744,75.749l-5.822,5.887a57.09,57.09,0,0,1-7.642-3.43C2835.665,1424.25,2884.114,1362.284,2884.543,1364.492Z" transform="translate(-2589.334 -1241.382)" fill="#7468b4" />
        <path d="M2884.477,1363.934a.562.562,0,0,1,.557.462,53.038,53.038,0,0,1,.3,19.453,63.391,63.391,0,0,1-6.322,18.208,131.34,131.34,0,0,1-11.766,18.4c-4.5,6.057-9.672,12.416-16.062,20.1l-.029.032-6.048,6.115-.3-.111a57.444,57.444,0,0,1-7.71-3.461l-.233-.128-.024-.265c-.35-3.864,1.409-9.825,5.229-17.717a216.323,216.323,0,0,1,13.548-23.29c10.188-15.578,22.015-30.882,26.635-35.94C2883.825,1364.072,2884.178,1363.934,2884.477,1363.934Zm-34.049,75.971c6.373-7.664,11.536-14.006,16.015-20.04a130.366,130.366,0,0,0,11.679-18.263,62.4,62.4,0,0,0,6.227-17.922,51.856,51.856,0,0,0-.172-18.437,106.38,106.38,0,0,0-8.273,9.83c-3.124,4.006-9.408,12.269-16.389,22.6a248.549,248.549,0,0,0-15.5,25.669c-4.37,8.605-6.456,15.01-6.2,19.044a56.607,56.607,0,0,0,7.035,3.158Z" transform="translate(-2589.334 -1241.382)" fill="rgba(0,0,0,0)" />
        <path d="M1.973,27.91,33.615,15.579a73.68,73.68,0,0,0,19.908-2.406c1.414-.731,3.35-2.46-1.461-3.361s-9.83-2.064-10.049-3.846S45.161,3.026,44.428.5q-.733-2.521-15.336,7.55L0,11.9Z" transform="translate(272.915 194.424) rotate(142)" fill="#b28b67" />
        <path d="M0,30.858c18.794.036,57.248,3.8,93.636,15.48l3.5-17.483C65.86,8.741,34.127-6.08,7.813,2.471,3.41,3.9,3.068,8.635,0,30.858Z" transform="matrix(-0.242, 0.97, -0.97, -0.242, 304.257, 112.827)" fill="#9183d8" />
    </g>
</svg>