<svg xmlns="http://www.w3.org/2000/svg" xmlns:xlink="http://www.w3.org/1999/xlink" width="400" height="320" viewBox="0 0 400 320">
    <defs>
        <clipPath>
            <rect width="400" height="320" />
        </clipPath>
    </defs>
    <g clip-path="url(#b)">
        <rect width="400" height="320" fill="transparent" />
        <g transform="translate(167.031 -39.74)">
            <path d="M13.182,14.874C10.516,11.072,5.568,1.418,1.816.059-.6-.816.1,8.235.073,9.961A144.659,144.659,0,0,0,1.41,29.892C2.856,41.832,7.585,52.466,14.07,62.628c3.337,5.229,7.252,10.522,12.674,13.784,2.5,1.5,2.943,1.9,5.407,3.2,2.87,1.507,2.545,5.579,3.839,8.57,1.8,4.153,17.576,136.374,15.974,157.065-.142,1.834,2.415,2.273,2.543.034.679-11.871-5.193-94.079-8.155-120.964s-5.96-50.636-8.966-59.937C33.74,53.094,27.154,39.524,21.672,29A125.132,125.132,0,0,0,13.182,14.874Z" transform="translate(50.754 61.953)" fill="#bfe2e2" />
            <path d="M-13.034-10.013C-19.971-15.106-3.924,5.964,2.353,11.058c3.471,2.816,7.1,1.814,9.141-.532,1.326,1.616,2.567,3.306,3.76,4.734,3.633,4.35,7.067,8.8,10.349,13.361,6.818,9.468,12.66,19.47,18.769,29.29C50.4,67.6,56.381,77.343,61.845,87.28c4.629,8.419,10.8,18.323,12.384,27.553C71.824,95.258,62.7,76.443,51.835,59.187A358.68,358.68,0,0,0,11.495,6.438C13.7-8.3-9.808-7.646-13.034-10.013Z" transform="translate(33.625 207.238)" fill="#bfe2e2" />
            <path d="M70.477.02C66.595.779,60.251,9.561,57.051,12.907A125.331,125.331,0,0,0,46.545,25.562,214.044,214.044,0,0,0,27.957,55.881,281.809,281.809,0,0,0,7.275,109.7,222.031,222.031,0,0,0,1,145.01c-.224,2.235-2.567,19.469.809,19.934,3.037.418,2.1-13.086,2.246-14.923C5.711,129.3,10.673,109.132,17.575,89.6c1.5-4.255,2.9-9.467,5.3-13.3,1.731-2.758.012-1.8,3.055-2.84,2.613-.9,5.589-.678,8.264-1.775,5.812-2.383,10.465-7.01,14.545-11.664,7.927-9.045,14.209-18.83,17.484-30.42a146.461,146.461,0,0,0,4.412-19.514C70.879,8.376,72.978-.47,70.477.02Z" transform="translate(105.316 160.924)" fill="#bfe2e2" />
            <path d="M58.329,8.7a351.811,351.811,0,0,0-34.4,81.436c-4.7,17.1-7.989,34.639-11.256,52.055-5.058,26.967-9.842,53.932-11.2,81.378C.1,251.177-2.607,283.016,6.433,309.6c-4.515-26.994-.216-55.727.545-82.889.364-12.967,1.418-25.806,2.8-38.7,1.342-12.5,3.534-24.95,5.575-37.356q1.491-9.063,3.1-18.105c.317-1.8.451-7.137,1.593-8.366s7.009-1.741,8.848-2.649a47.505,47.505,0,0,0,10.274-7.169A82.066,82.066,0,0,0,54.285,95.465C63.678,79.789,67.433,60.658,67.243,42.5c-.036-3.525-5.705-41.482-3.429-42q-.206-.241-.389-.5Q60.84,4.329,58.329,8.7Z" transform="translate(69.44 -7.446) rotate(-7)" fill="#bfe2e2" />
            <path d="M2.635,2.466C2.41,2.141.941-.123,1.681.022.175-.273,3.752,2.518,0,.806,1.781,2.488.753,4.674.729,6.938A54.912,54.912,0,0,0,2,17.857a74.877,74.877,0,0,0,5.09,16.5C12.244,45.886,21,56.981,31.393,64.187c5.131,3.558,10.16,4.769,16.012,6.407,3.7,1.035,3.99,2.947,5.952,6.534,4.085,7.471,8.1,14.915,11.7,22.638,4.3,9.222,8.478,18.455,12.417,27.839,13.27,31.611,24.071,64.361,29.743,98.254.139-19.973-4.482-40.543-10.31-59.581A355.6,355.6,0,0,0,81.239,125.8c-1.428-3.206-3.593-7.331-4.2-10.871-.425-2.48.874-4.866,1.468-7.478a78.255,78.255,0,0,0,.117-31.8C76.38,64.37,69.89,59.135,58.91,57.537c-4.015-.584-9.119-.37-12.8-2.082-4.011-1.864-5.666-7.993-7.947-11.927A162.2,162.2,0,0,0,16.4,13.923,70.6,70.6,0,0,0,8.953,7.074C7.288,5.744,3.77,4.1,2.635,2.466Z" transform="translate(0 103.825)" fill="#bfe2e2" />
            <path d="M58.3,6.252C58.654,2.958,56.769,0,54.31,0H4.82C2.361,0,.476,2.958.834,6.252L4.659,41.377C5.826,52.085,12.61,60.018,20.6,60.018H38.527c7.992,0,14.777-7.933,15.943-18.641Z" transform="translate(72.579 269.841)" fill="#bfe2e2" />
            <path d="M-3756.422-6893.66s-4.321-.667-4.315-.987c1-36.132,10.053-124.825,28.915-140.671,26.982-22.668,42.889-27.809,42.889-27.809s-10.638,34.745-30.829,55.214-24.567,26.716-28.95,28.281C-3751.231-6971.649-3756.422-6893.66-3756.422-6893.66Z" transform="translate(3866.811 7179.308)" fill="#bfe2e2" />
        </g>
        <path d="M0,153.847a1,1,0,0,1-1-1V-1A1,1,0,0,1,0-2,1,1,0,0,1,1-1V152.847A1,1,0,0,1,0,153.847Z" transform="translate(146.856 166.384)" fill="#5bb3b3" />
        <path d="M140,324.316a1,1,0,0,1-1-1V46a1,1,0,0,1,1-1H276.856a1,1,0,0,1,1,1V151.937a1,1,0,1,1-2,0V47H141V323.316A1,1,0,0,1,140,324.316Z" transform="translate(-130 -4.162)" fill="#5bb3b3" />
        <path d="M0,140.142a1,1,0,0,1-1-1V-12.818a1,1,0,0,1,1-1,1,1,0,0,1,1,1v151.96A1,1,0,0,1,0,140.142Z" transform="translate(129.749 180.088)" fill="#5bb3b3" />
        <path d="M160,327.285a1,1,0,0,1-1-1V66a1,1,0,0,1,1-1H262.642a1,1,0,0,1,1,1v89.975a1,1,0,1,1-2,0V67H161V326.285A1,1,0,0,1,160,327.285Z" transform="translate(-132.893 -7.055)" fill="#5bb3b3" />
        <path d="M0,194.748a1,1,0,0,1-1-1V0A1,1,0,0,1,0-1,1,1,0,0,1,1,0V193.748A1,1,0,0,1,0,194.748Z" transform="translate(181.227 1)" fill="#5bb3b3" />
        <path d="M527.673,197.31H310.6a1,1,0,0,1-1-1v-8.787a1,1,0,0,1,1-1H527.673a1,1,0,0,1,0,2H311.6v6.787H527.673a1,1,0,0,1,0,2Z" transform="translate(-129.377 -36.31)" fill="#5bb3b3" />
        <path d="M0,116.695a1.5,1.5,0,0,1-1.5-1.5V0A1.5,1.5,0,0,1,0-1.5,1.5,1.5,0,0,1,1.5,0V115.195A1.5,1.5,0,0,1,0,116.695Z" transform="translate(163.227 202.664)" fill="#5ab3b3" />
        <path d="M0,194.748a1,1,0,0,1-1-1V0A1,1,0,0,1,0-1,1,1,0,0,1,1,0V193.748A1,1,0,0,1,0,194.748Z" transform="translate(190.451 1)" fill="#5bb3b3" />
        <path d="M0,116.695a1.5,1.5,0,0,1-1.5-1.5V0A1.5,1.5,0,0,1,0-1.5,1.5,1.5,0,0,1,1.5,0V115.195A1.5,1.5,0,0,1,0,116.695Z" transform="translate(172.451 202.664)" fill="#5ab3b3" />
        <path d="M0,148.712a1,1,0,0,1-1-1V0A1,1,0,0,1,0-1,1,1,0,0,1,1,0V147.712A1,1,0,0,1,0,148.712Z" transform="translate(356.133 1)" fill="#5bb3b3" />
        <path d="M0,116.509a1,1,0,0,1-1-1V0A1,1,0,0,1,0-1,1,1,0,0,1,1,0V115.509A1,1,0,0,1,0,116.509Z" transform="translate(356.132 163.174)" fill="#5bb3b3" />
        <path d="M0,148.712a1,1,0,0,1-1-1V0A1,1,0,0,1,0-1,1,1,0,0,1,1,0V147.712A1,1,0,0,1,0,148.712Z" transform="translate(365.356 1)" fill="#5bb3b3" />
        <path d="M0,116.509a1,1,0,0,1-1-1V0A1,1,0,0,1,0-1,1,1,0,0,1,1,0V115.509A1,1,0,0,1,0,116.509Z" transform="translate(365.356 163.174)" fill="#5bb3b3" />
        <ellipse cx="8.553" cy="8.554" rx="8.553" ry="8.554" transform="translate(129.748 148.275)" fill="#fff" />
        <g transform="translate(48.153 106.83)">
            <path d="M-1-1H62.02V29.683H-1ZM60.02,1H1V27.683H60.02Z" transform="matrix(0.985, -0.172, 0.172, 0.985, 0, 10.479)" fill="#5bb3b3" />
        </g>
        <g transform="translate(61.788 119.369)">
            <g transform="translate(0)">
                <path d="M217.548,146.417a5.858,5.858,0,0,1-.533,4.237,5.5,5.5,0,0,1-7.3,1.385,5.9,5.9,0,0,1-2.034-3.781,5.8,5.8,0,0,1,.533-4.245,4.816,4.816,0,0,1,3.4-2.087,4.718,4.718,0,0,1,3.9.735A5.854,5.854,0,0,1,217.548,146.417Zm-8.034,1.512a4.8,4.8,0,0,0,1.339,2.8,3.249,3.249,0,0,0,4.642-.861,6.079,6.079,0,0,0-1.1-5.9,2.786,2.786,0,0,0-2.5-.566,2.848,2.848,0,0,0-2.148,1.44A4.76,4.76,0,0,0,209.513,147.928Z" transform="translate(-207.523 -139.006)" fill="#5bb3b3" />
                <path d="M212.842,141.556a4.553,4.553,0,0,1,2.824.907,7.226,7.226,0,0,1,1.562,8.321,4.988,4.988,0,0,1-3.539,2.226,7.064,7.064,0,0,1-1.3.128,4.555,4.555,0,0,1-2.825-.9,6.164,6.164,0,0,1-2.129-3.934,6.067,6.067,0,0,1,.566-4.423,5.075,5.075,0,0,1,3.57-2.2A6.889,6.889,0,0,1,212.842,141.556Zm-.452,11.082a6.566,6.566,0,0,0,1.207-.12,4.454,4.454,0,0,0,3.2-1.995,6.743,6.743,0,0,0-1.438-7.663,4.064,4.064,0,0,0-2.521-.8,6.388,6.388,0,0,0-1.177.117,4.6,4.6,0,0,0-3.239,1.973,5.592,5.592,0,0,0-.5,4.066,5.689,5.689,0,0,0,1.94,3.628A4.067,4.067,0,0,0,212.39,152.638Zm.243-9.559a2.811,2.811,0,0,1,1.925.7,6.31,6.31,0,0,1,1.159,6.2,3.064,3.064,0,0,1-2.3,1.559,4.292,4.292,0,0,1-.788.077,2.843,2.843,0,0,1-1.938-.7,6.238,6.238,0,0,1-1.16-6.19,3.1,3.1,0,0,1,2.323-1.57A4.254,4.254,0,0,1,212.633,143.08Zm-.008,8.04a3.793,3.793,0,0,0,.7-.069,2.558,2.558,0,0,0,1.952-1.3,5.851,5.851,0,0,0-1.047-5.6,2.3,2.3,0,0,0-1.593-.576,3.754,3.754,0,0,0-.69.068,2.59,2.59,0,0,0-1.973,1.31,5.776,5.776,0,0,0,1.048,5.583A2.326,2.326,0,0,0,212.625,151.12Z" transform="translate(-207.523 -139.006)" fill="#5bb3b3" />
                <path d="M222.366,150.575a2.835,2.835,0,0,1-2.552-.645l-.1.019q.291.988.331,1.205l.614,3.261-1.692.319-2.165-11.5,1.368-.258q.1.214.439,1.021l.086-.016a2.7,2.7,0,0,1,2.148-1.657,2.813,2.813,0,0,1,2.526.643,6.024,6.024,0,0,1,1.128,6.079A2.834,2.834,0,0,1,222.366,150.575Zm-1.7-6.79a1.788,1.788,0,0,0-1.362.866,3.119,3.119,0,0,0-.11,1.974l.048.251a3.788,3.788,0,0,0,.858,2.019,1.74,1.74,0,0,0,1.627.369,1.556,1.556,0,0,0,1.219-.974,3.794,3.794,0,0,0,.089-2.142,3.65,3.65,0,0,0-.853-1.938A1.6,1.6,0,0,0,220.663,143.784Z" transform="translate(-205.201 -138.894)" fill="#5bb3b3" />
                <path d="M218.767,155.025l-2.258-12,1.8-.34.082.176c.049.106.139.311.267.614a2.978,2.978,0,0,1,2.133-1.405,3.881,3.881,0,0,1,.716-.07,2.956,2.956,0,0,1,2.022.772,6.262,6.262,0,0,1,1.184,6.379,3.083,3.083,0,0,1-2.306,1.666,3.96,3.96,0,0,1-.73.071,2.966,2.966,0,0,1-1.558-.422c.091.321.146.534.166.637l.66,3.507Zm-1.674-11.6,2.073,11.014,1.2-.226L219.8,151.2c-.015-.079-.078-.339-.325-1.181l-.078-.266.495-.092.092.082a2.447,2.447,0,0,0,1.7.648,3.461,3.461,0,0,0,.638-.063,2.574,2.574,0,0,0,1.953-1.4,5.787,5.787,0,0,0-1.072-5.779,2.437,2.437,0,0,0-1.689-.645,3.38,3.38,0,0,0-.624.061,2.441,2.441,0,0,0-1.963,1.507l-.052.125-.418.079-.078-.186c-.178-.424-.288-.68-.356-.836Zm4.122,6.138a1.786,1.786,0,0,1-1.292-.49,3.975,3.975,0,0,1-.929-2.152l-.047-.251a3.316,3.316,0,0,1,.134-2.136,2.03,2.03,0,0,1,1.537-1,1.853,1.853,0,0,1,1.738.495,3.9,3.9,0,0,1,.922,2.069,4.048,4.048,0,0,1-.1,2.284,1.8,1.8,0,0,1-1.4,1.123A3.007,3.007,0,0,1,221.215,149.565ZM221.056,144a1.874,1.874,0,0,0-.346.034,1.543,1.543,0,0,0-1.186.736,2.908,2.908,0,0,0-.086,1.812l.047.251a3.585,3.585,0,0,0,.786,1.886,1.287,1.287,0,0,0,.944.349,2.508,2.508,0,0,0,.462-.047,1.311,1.311,0,0,0,1.035-.826,3.578,3.578,0,0,0,.073-2,3.432,3.432,0,0,0-.783-1.807A1.284,1.284,0,0,0,221.056,144Z" transform="translate(-205.201 -138.894)" fill="#5bb3b3" />
                <path d="M229.118,149.267a3.913,3.913,0,0,1-3.108-.536,4.181,4.181,0,0,1-1.609-2.787,4.594,4.594,0,0,1,.394-3.251,3.419,3.419,0,0,1,2.462-1.618,3.336,3.336,0,0,1,2.671.489,3.719,3.719,0,0,1,1.41,2.463l.173.914-5.306,1a2.662,2.662,0,0,0,.961,1.664,2.222,2.222,0,0,0,1.78.309,6.2,6.2,0,0,0,1.289-.38,7,7,0,0,0,1.223-.689l.259,1.375a5.246,5.246,0,0,1-1.174.654A7.82,7.82,0,0,1,229.118,149.267Zm-1.62-6.91a1.732,1.732,0,0,0-1.2.754,2.472,2.472,0,0,0-.3,1.6l3.613-.68a2.244,2.244,0,0,0-.755-1.4A1.656,1.656,0,0,0,227.5,142.357Z" transform="translate(-203.329 -139.21)" fill="#5bb3b3" />
                <path d="M228.115,149.616a3.8,3.8,0,0,1-2.249-.682,4.438,4.438,0,0,1-1.71-2.945,4.856,4.856,0,0,1,.424-3.423,3.673,3.673,0,0,1,2.631-1.737,4.76,4.76,0,0,1,.875-.086,3.333,3.333,0,0,1,1.988.617,3.976,3.976,0,0,1,1.51,2.62l.219,1.16-5.291,1a2.274,2.274,0,0,0,.8,1.265,1.74,1.74,0,0,0,1.056.319,2.884,2.884,0,0,0,.532-.053,5.973,5.973,0,0,0,1.238-.365,6.783,6.783,0,0,0,1.179-.665l.316-.218.359,1.908-.127.093a5.521,5.521,0,0,1-1.23.685,8.1,8.1,0,0,1-1.47.407A5.684,5.684,0,0,1,228.115,149.616Zm-.029-8.372a4.259,4.259,0,0,0-.782.077,3.154,3.154,0,0,0-2.292,1.5,4.377,4.377,0,0,0-.364,3.078,3.96,3.96,0,0,0,1.508,2.629,3.315,3.315,0,0,0,1.96.59,5.187,5.187,0,0,0,.957-.1,7.6,7.6,0,0,0,1.379-.381,4.97,4.97,0,0,0,.99-.532l-.16-.849a6.761,6.761,0,0,1-.949.5,6.47,6.47,0,0,1-1.341.4,3.382,3.382,0,0,1-.624.062,2.253,2.253,0,0,1-1.348-.413,2.911,2.911,0,0,1-1.059-1.813l-.055-.252,5.314-1-.126-.668a3.5,3.5,0,0,0-1.31-2.306A2.843,2.843,0,0,0,228.085,141.244Zm-2.306,3.762-.025-.274a2.72,2.72,0,0,1,.338-1.758,1.98,1.98,0,0,1,1.36-.864,1.908,1.908,0,0,1,1.56.315,2.491,2.491,0,0,1,.85,1.554l.05.248Zm2.129-2.44a1.974,1.974,0,0,0-.363.036,1.48,1.48,0,0,0-1.033.644,2.042,2.042,0,0,0-.275,1.165l3.076-.579a1.833,1.833,0,0,0-.6-1.008A1.284,1.284,0,0,0,227.908,142.567Z" transform="translate(-203.329 -139.21)" fill="#5bb3b3" />
                <path d="M239.447,147.219l-1.7.319-.921-4.895a2.173,2.173,0,0,0-.629-1.305,1.458,1.458,0,0,0-1.263-.233,1.9,1.9,0,0,0-1.45.929,3.568,3.568,0,0,0-.1,2.218l.746,3.966-1.692.319-1.5-7.963,1.324-.249.434,1,.086-.016a2.4,2.4,0,0,1,.858-1.07,3.478,3.478,0,0,1,1.41-.586q2.866-.538,3.414,2.377Z" transform="translate(-201.661 -139.567)" fill="#5bb3b3" />
                <path d="M232.242,148.828l-1.59-8.454,1.766-.332.337.777a2.746,2.746,0,0,1,.745-.785,3.741,3.741,0,0,1,1.51-.629,4.821,4.821,0,0,1,.884-.088c1.54,0,2.49.9,2.823,2.664l1.023,5.437-2.191.411-.968-5.14a1.953,1.953,0,0,0-.544-1.16,1,1,0,0,0-.673-.217,2.083,2.083,0,0,0-.382.039,1.658,1.658,0,0,0-1.275.8,3.368,3.368,0,0,0-.074,2.057l.793,4.211Zm-1.006-8.055,1.405,7.471,1.2-.226-.7-3.72a3.757,3.757,0,0,1,.121-2.379,2.147,2.147,0,0,1,1.626-1.06,1.7,1.7,0,0,1,1.47.287,2.416,2.416,0,0,1,.714,1.451l.875,4.649,1.208-.227-.93-4.945c-.286-1.519-1.049-2.257-2.331-2.257a4.322,4.322,0,0,0-.791.08,3.247,3.247,0,0,0-1.31.544,2.161,2.161,0,0,0-.772.96l-.051.128-.417.079-.434-1Z" transform="translate(-201.661 -139.567)" fill="#5bb3b3" />
            </g>
        </g>
        <ellipse cx="8.553" cy="8.554" rx="8.553" ry="8.554" transform="translate(129.749 147.647)" fill="#bfe2e2" />
        <path d="M8.553-1A9.554,9.554,0,1,1-1,8.554,9.564,9.564,0,0,1,8.553-1Zm0,17.107A7.554,7.554,0,1,0,1,8.554,7.562,7.562,0,0,0,8.553,16.107Z" transform="translate(129.749 147.647)" fill="#5bb3b3" />
        <g transform="translate(15.371 46.97)">
            <path d="M7.7,8.7a1,1,0,0,1-.707-.293l-7.7-7.7a1,1,0,0,1,0-1.414,1,1,0,0,1,1.414,0l7.7,7.7A1,1,0,0,1,7.7,8.7Z" transform="translate(0 0)" fill="#5bb3b3" />
            <path d="M0,8.7a1,1,0,0,1-.707-.293,1,1,0,0,1,0-1.414l7.7-7.7a1,1,0,0,1,1.414,0,1,1,0,0,1,0,1.414l-7.7,7.7A1,1,0,0,1,0,8.7Z" transform="translate(118.416 0)" fill="#5bb3b3" />
        </g>
        <path d="M0-1H61.02a1,1,0,0,1,1,1V28.683a1,1,0,0,1-1,1H0a1,1,0,0,1-1-1V0A1,1,0,0,1,0-1ZM60.02,1H1V27.683H60.02Z" transform="matrix(0.985, -0.172, 0.172, 0.985, 48.153, 117.309)" fill="#5bb3b3" />
        <path d="M206.308,122.343a1,1,0,0,1-.817-1.575l6.746-9.594a4.152,4.152,0,0,1,5.786-1.008l9.431,6.631a1,1,0,0,1-1.15,1.636l-9.431-6.631a2.152,2.152,0,0,0-3,.522l-6.746,9.595A1,1,0,0,1,206.308,122.343Z" transform="translate(-139.592 -13.479)" fill="#5bb3b3" />
        <g transform="translate(313.568 209.354)">
            <path d="M0,0C0,26.828,2.07,48.577,29.858,48.577S59.716,26.828,59.716,0" transform="translate(19 61.068)" fill="#bfe2e2" />
            <path d="M57.125,44.33a56.667,56.667,0,0,0-2.729,5.5A76.973,76.973,0,0,1,55.142,38.2c.969-6.717,2.449-13.4,3.84-20.069,1-4.794.937-13.405,4.731-17.226C64.754.082,65,1.7,65,2.405c.013.149,0-2.869-1.013-2.344-6,3.17-7.947,13.139-9.869,18.13A97.738,97.738,0,0,0,47.951,40.5a51.09,51.09,0,0,0-.415,5.74c-.2-.511-.4-1.026-.608-1.535A104.133,104.133,0,0,0,32.958,20.813C31.522,18.973,13.475.819,12.062,3.6a1.9,1.9,0,0,0,.876,1c.026.03.027.014.012-.032,1.06,1.751,4.074,4.455,5.012,5.989a116.869,116.869,0,0,1,6.064,11.977c3.942,8.493,7.6,17.072,11.144,25.669.825,2,1.686,3.994,2.563,5.979C28.686,40.839,16.616,28.723,0,21.787c5.675,2.953,9.4,8.508,13.228,12.761,4.622,5.13,9.491,10.122,14.122,15.247,5.462,6.045,11.889,12.411,17.143,19.1,5.089,10.926,10.035,21.865,13.087,33.351-1.251-3.968-.1-9.452-.312-13.617A94,94,0,0,0,56.2,78.744a20.612,20.612,0,0,1,1.445,4.339c-.229-2.311-.492-4.607-.775-6.892.727-2.139,1.44-4.134,1.922-5.778a150.506,150.506,0,0,1,9.418-24.8,222.609,222.609,0,0,1,12.592-22c2.161-3.335,4.352-6.657,6.53-9.985,1.425-2.179,2.782-5.667,4.766-7.754C79.274,17.863,65.262,29.941,57.125,44.33" transform="translate(0 0)" fill="#bfe2e2" />
        </g>
        <path d="M25.883,0H0C3.887,24.745,10.743,46.265,20.955,65.792a233.307,233.307,0,0,1-1.4-35.013C20.149,17.8,22.278,7.441,25.882,0Z" transform="matrix(-0.996, 0.087, -0.087, -0.996, 251.456, 269.225)" fill="rgba(0,0,0,0.1)" />
        <g transform="translate(12.048 13.34)">
            <g transform="translate(158.349 62.091)">
                <path d="M41.791,91.156H0C.688,81.84,1.551,72.793,2.564,64.264c.986-8.3,2.144-16.371,3.444-23.984C7.27,32.894,8.7,25.715,10.264,18.945c1.511-6.55,3.193-12.924,5-18.945h47.7c-4.9,22.337-12.022,53.006-21.167,91.155Z" transform="translate(54.643 153.413)" fill="#708daf" />
                <path d="M41.791,91.655H-.538l.04-.537C.19,81.8,1.053,72.746,2.068,64.205,3.054,55.895,4.214,47.817,5.515,40.2c1.263-7.4,2.7-14.584,4.261-21.364,1.515-6.563,3.2-12.948,5.006-18.976L14.889-.5h48.69l-.133.607C58.549,22.428,51.427,53.1,42.277,91.272l-.485-.116h0Zm-41.252-1H41.4C50.418,53.012,57.462,22.687,62.336.5h-46.7c-1.76,5.9-3.4,12.145-4.883,18.558-1.56,6.761-2.99,13.93-4.25,21.307-1.3,7.6-2.456,15.665-3.44,23.959C2.068,72.685,1.219,81.541.539,90.655Z" transform="translate(54.643 153.413)" fill="rgba(0,0,0,0)" />
                <path d="M60.737,91.156H14.549c-2.185-12.606-4.084-25.286-6.094-38.711C5.941,35.654,3.341,18.291,0,0H63.511c-.714,18.707-1.17,35.321-1.652,52.91-.334,12.183-.679,24.782-1.122,38.245Z" transform="translate(72.511 153.413)" fill="#96b7df" />
                <path d="M60.737,91.655H14.128l-.072-.415C11.87,78.633,9.972,65.954,7.962,52.531l0-.012C5.448,35.736,2.849,18.381-.492.09L-.6-.5H64.03l-.02.519c-.713,18.7-1.169,35.3-1.651,52.879l0,.082c-.334,12.167-.679,24.748-1.12,38.192l-.491-.016h-.008Zm-45.768-1H60.253c.434-13.259.775-25.684,1.1-37.7l0-.082c.478-17.419.93-33.882,1.632-52.371H.6c3.292,18.09,5.863,35.26,8.35,51.871l0,.012C10.938,65.652,12.816,78.2,14.97,90.655Z" transform="translate(72.511 153.413)" fill="rgba(0,0,0,0)" />
                <path d="M1.39,0,14,9.592Q29.214,14.564,39.241,21.3c1.552,1.571,3.365,4.682-3.369,3.808s-13.855-1.491-14.909.766,2.893,5.229.844,8.242q-2.049,3.013-17-16.537L0,18.516Z" transform="translate(149.978 190.512) rotate(90)" fill="#efc6a1" />
                <path d="M46.026,0S26.286,49.414,22.572,54.125c-1.816,2.3-12.867,8.124-20.332,11.2-3,1.237-2.4,3.761-1.543,4.58,6.981,6.663,13.517,1.928,21.159.172,8.372-1.924,5.6,7.944,12.216,6.527-.971-4.549-3.664-13.2-.536-17.842C35.62,55.672,64.517,4.006,64.517,4.006Z" transform="matrix(0.978, -0.208, 0.208, 0.978, 0, 159.238)" fill="#efc6a1" />
                <path d="M0,0,7.48,34.851C3.309,39.746.485,45.745.957,52.467,2.317,71.834,29.287,67.573,34.533,57.8s4.623-34.57-2.157-36.317c-2.7-.7-8.465,1.01-14.328,4.542L21.729,0Z" transform="translate(112.23 81.45) rotate(180)" fill="#efc6a1" />
                <path d="M55.808,0S-2.592,53.395.124,141.179H14.98C34.343,107.462,61.689,5.226,61.689,5.226Z" transform="translate(32.848 65.486)" fill="#cc7a29" />
                <path d="M71.75,103.17H2.479C-.686,103.17-.09,98.6.368,96.3c5.281-26.607,25.9-55.289,25.9-93.163L46.244,0C62.771,26.569,68.486,59.281,71.75,103.17Z" transform="translate(62.209 61.539)" fill="#dde3e9" />
                <path d="M65.468,122.174H3.114C-8.957,91.681,17.962.484,17.962.484L26.447,0C41.229,26.647,62.549,78.158,65.468,122.174Z" transform="translate(83.882 61.539)" fill="#e88a2d" />
                <path d="M5.913,0S25.561,7.746,41.958,43.4c10.35,22.5,20.675,77.652,4.5,90.149h-19.7C33.869,72.713.032,5.226.032,5.226Z" transform="translate(104.05 61.539)" fill="#e88a2d" />
                <path d="M.2,10.1A4.7,4.7,0,0,1,3.494,6.764a4.337,4.337,0,0,1,1.211-.12c.146.006.187.048.255-.054a1.339,1.339,0,0,0,.073-.349,6.588,6.588,0,0,1,.246-.815A6.656,6.656,0,0,1,6.885,3.038a8.086,8.086,0,0,1,4.856-2.3,7.082,7.082,0,0,1,2.919.4,11.562,11.562,0,0,1,1.417.606c.138.069.587.409.726.387s.461-.4.586-.5A8.584,8.584,0,0,1,22.75,0C24.916.016,27,.124,28.807,1.444a12.112,12.112,0,0,1,1.093.907c.183.17.359.345.528.529q.153.166.3.34c.162.2.136.262.362.124a4.5,4.5,0,0,1,2.891-.65,6.472,6.472,0,0,1,1.745.493c.19.081.628.4.83.407s.633-.3.839-.373A6.883,6.883,0,0,1,40.881,2.9,9.009,9.009,0,0,1,44.3,4.243a4.6,4.6,0,0,1,1.267,1.152c.149.206.284.423.453.614.1.112.295.226.348.368a7.512,7.512,0,0,1,1.449-.64,3.572,3.572,0,0,1,2.04.078A8.11,8.11,0,0,1,53.074,8.1a9.128,9.128,0,0,1,1.191,1.6q.243.412.445.845a3.145,3.145,0,0,0,.2.44c.111.162.186.165.388.236a6.274,6.274,0,0,1,2.672,1.788,6.155,6.155,0,0,1,1.383,2.932,1.493,1.493,0,0,0,.056.361c.051.047.257.026.335.036a7.053,7.053,0,0,1,.8.141,6.63,6.63,0,0,1,1.412.507A7.375,7.375,0,0,1,65.571,21.3a8.754,8.754,0,0,1-.137,6,5.856,5.856,0,0,1-.445.878c-.107.171-.141.172-.072.351.077.2.218.394.31.59a8.461,8.461,0,0,1,.639,2,9.4,9.4,0,0,1,.11,3.465,5,5,0,0,1-.535,1.52,4.36,4.36,0,0,1-.469.68c-.092.11-.19.214-.292.315a1.951,1.951,0,0,0-.185.171c-.122.156-.147.028-.084.257a10.26,10.26,0,0,0,.408.948c.125.321.239.647.342.976a14.388,14.388,0,0,1,.5,2.034,6.384,6.384,0,0,1-.451,3.951,3.952,3.952,0,0,1-1.118,1.331,4.15,4.15,0,0,1-.735.446c-.133.063-.3.09-.364.219s.032.413.054.568a9.468,9.468,0,0,1-.111,4.081,5.638,5.638,0,0,1-2.236,3,6.958,6.958,0,0,1-6.953.2,7.3,7.3,0,0,1-1.552-1.066c-1.191,1.6-3.641,1.552-5.381,1.1A7.729,7.729,0,0,1,41.9,51.25a3.272,3.272,0,0,1-5.2-.683,4.328,4.328,0,0,1-.439-1.425c-.036-.26-.013-.522-.04-.779a4.025,4.025,0,0,0-.38-.965,5.325,5.325,0,0,1-.4-1.923,9.761,9.761,0,0,1,.074-1.033,3.547,3.547,0,0,0-.105-.907,4.152,4.152,0,0,0,1.757-.22,3.47,3.47,0,0,0,1.359-.955,7.923,7.923,0,0,0,1.709-3.194c.773-2.53.456-5.565-2.089-6.953-1.186-.647-4.738-.645-6.151-.325-1.485.336-3.169,3.612-3.251,3.919-.051.191-.025.426-.2.553-.385.279-1.02-.205-1.3-.444A5.139,5.139,0,0,1,26.1,34.4a18.779,18.779,0,0,1-1.566-3.84c-.289-1.023-.475-2.079-.853-3.076a4.705,4.705,0,0,0-1.893-2.441,16.671,16.671,0,0,0-3.256-1.318,8.084,8.084,0,0,1-3.013-1.654A4.162,4.162,0,0,1,15,21.493c-.118-.165-.235-.481-.415-.586-.28-.163-.689.261-.931.415a10.763,10.763,0,0,0-3,2.974,18.5,18.5,0,0,0-1.99,3.541,10.236,10.236,0,0,1-1.338,2.953,5.649,5.649,0,0,1-3.368.255A4.254,4.254,0,0,1,2.12,29.455a2.468,2.468,0,0,1-.209-1.618c.065-.326.2-.631.269-.952a2.967,2.967,0,0,1,.247-.771,1.9,1.9,0,0,1,1.185-.944,5.563,5.563,0,0,1-1.28-1.735,7.445,7.445,0,0,1-.663-2.261,2.744,2.744,0,0,1,.367-1.761,4.639,4.639,0,0,1,1.5-1.248,9.782,9.782,0,0,1-2.094-2.28A7.114,7.114,0,0,1,.2,10.1Z" transform="translate(67.867 0)" fill="#2e3e5a" />
                <path d="M8.855,0S8.653,45.515,0,60.034H17.71Z" transform="translate(114.269 123.366)" fill="#cc7a29" />
            </g>
            <g transform="translate(104 69.517)">
                <path d="M0,0,10.038,42.075h7.239L23.89,0Z" transform="translate(80.686 111.995) rotate(180)" fill="#9d6d41" />
                <path d="M4508.837,785.263a12.626,12.626,0,0,1,2.854.857c2.865,1.9,8.787,3.916,19.6-.857,27.628,30.631,31.1,84.766,31.1,84.766l-74.822,8.369S4508.09,784.584,4508.837,785.263Z" transform="translate(-4451.944 -683.153)" fill="#ffd964" />
                <path d="M76.719,135.405H0c1.482-12.951,2.418-24.151,2.779-33.289A91.288,91.288,0,0,1,4.513,87.662c.833-4.16,1.82-7.7,2.614-10.542C8.2,73.267,8.98,70.484,8.636,68.815,8.15,66.454,8.6,61.367,9.981,53.7c1.1-6.137,2.8-13.933,5.038-23.17C18.793,14.966,22.831.6,23,0l2.674,1.083L23,19.766H48.94L42.435,1.821,45.318,0l.006.009c.3.468,3.008,4.756,6.322,11.169,2.047,3.961,3.92,7.946,5.568,11.844A131.233,131.233,0,0,1,62.3,37.143a216.612,216.612,0,0,1,5,25.1c1.355,9,3.15,23.23,4.011,39.87C73.43,113.233,75.247,124.434,76.719,135.405Z" transform="translate(34.143 101.737)" fill="#2e3e5a" />
                <path d="M18.508,24.562A31.564,31.564,0,0,1,28.843,23.7a18.566,18.566,0,0,1-1.49-9.131c.294-2.987,1.557-5.5,2.717-8.141a10.487,10.487,0,0,1,2.077-3.341,6.9,6.9,0,0,1,3.45-1.8,9.29,9.29,0,0,1,4.029.11c.589.141,1.121.426,1.7.592s.868-.193,1.286-.555a6.958,6.958,0,0,1,3.8-1.4A10.017,10.017,0,0,1,50.8.687a9.175,9.175,0,0,1,3.7,2.457,6.627,6.627,0,0,1,1.133,1.718c.112.259.133.412.389.513.237.093.511.1.755.193a10.209,10.209,0,0,1,5.551,5.117,16.252,16.252,0,0,1,1.016,6.491c-.015,2.694-2.25,9.661-4.441,12.163a14.148,14.148,0,0,1-7.716,4.244A24.213,24.213,0,0,1,55.465,41.4c1.089,3.048,7.391,13.275,1.21,27.36s-18.4,9.571-20.719,10.952c-1.062.632-21.953-5.82-22.745-6.744C12.881,72.58.155,60.84,0,51.953s6.824-17.99,7.134-18.492C8.784,30.8,15.15,25.509,18.508,24.562Z" transform="matrix(0.966, -0.259, 0.259, 0.966, 24.616, 16.393)" fill="#2e3e5a" />
                <path d="M4436.19,736.365s7.5,29.356,21.729,29.212,19.887-31.515,19.887-31.515-11.994-1.518-20.717-10.56A53.059,53.059,0,0,1,4436.19,736.365Z" transform="translate(-4390.337 -674.621)" fill="#b28b67" />
                <path d="M41.659.019c.624,4.1,29.561,72.342,15.653,77.119S7.739,69.223,7.739,69.223L7.19,70.392S-.513,87.523.027,93.827c50.221,26.233,81.7,14.5,91.719-10.651,5.72-14.358-15.07-64.441-44.932-81.987A9.827,9.827,0,0,0,41.659.019Z" transform="matrix(0.995, -0.105, 0.105, 0.995, 37.425, 106.124)" fill="#ffd964" />
                <path d="M0,11.29l11.25,6.18s2.368,9.01,5.661,9.066c1.687.785-1.251-6.805,1.947-6.147s11,6.462,12.345,5.283c1.989-1.743.215-7.1-1.874-9.759-3.906-4.977-7.14-6.679-15.133-8.907C7.927,5.259.641,0,.641,0Z" transform="translate(88.72 173.536) rotate(-58)" fill="#b28b67" />
                <path d="M58.2.794S23.907,74.334,37.815,79.11,87.388,71.2,87.388,71.2,95.729,88.452,95.1,95.8C27.215,131.261-6.424,97.356,1.016,54.807c2.83-12.3,6.416-16.46,16.513-27.384C30.605,13.276,35.082,10.857,45.249,4.2S58.2.794,58.2.794Z" transform="translate(0 112.051) rotate(-11)" fill="#ffd964" />
                <path d="M0,13.8S1.629.113,4.923.057C6.609-.728,3.672,6.862,6.869,6.2S17.87-.258,19.214.921c1.989,1.743.216,7.1-1.874,9.759-3.906,4.977-6.377,6.5-14.37,8.733C1.048,16.044,1.18,17.234,0,13.8Z" transform="translate(41.537 191.695) rotate(-139)" fill="#b28b67" />
            </g>
        </g>
    </g>
</svg>