<svg xmlns="http://www.w3.org/2000/svg" xmlns:xlink="http://www.w3.org/1999/xlink" width="400" height="320" viewBox="0 0 400 320">
    <defs>
        <clipPath >
            <rect width="400" height="320" />
        </clipPath>
    </defs>
    <g clip-path="url(#b)">
        <rect width="400" height="320" fill="transparent" />
        <path d="M400.382,1H0A1,1,0,0,1-1,0,1,1,0,0,1,0-1H400.382a1,1,0,0,1,1,1A1,1,0,0,1,400.382,1Z" transform="translate(-1.197 217.094)" fill="#5bb3b3" />
        <path d="M83.468,65.318H12.744a1,1,0,1,1,0-2h68.9L77.07,56.127H13.276a1,1,0,1,1,0-2H77.618a1,1,0,0,1,.844.463l5.85,9.191a1,1,0,0,1-.844,1.537Z" transform="translate(-14.501 43.071)" fill="#5bb3b3" />
        <path d="M0,107.23a1,1,0,0,1-1-1V0A1,1,0,0,1,0-1,1,1,0,0,1,1,0V106.23A1,1,0,0,1,0,107.23Z" transform="translate(65.648 106.537)" fill="#5bb3b3" />
        <path d="M78.923,1H0A1,1,0,0,1-1,0,1,1,0,0,1,0-1H78.923a1,1,0,0,1,1,1A1,1,0,0,1,78.923,1Z" transform="translate(320.646 89.674)" fill="#5bb3b3" />
        <path d="M36.1,1H0A1,1,0,0,1-1,0,1,1,0,0,1,0-1H36.1a1,1,0,0,1,1,1A1,1,0,0,1,36.1,1Z" transform="translate(283.5 109.316)" fill="#5bb3b3" />
        <path d="M38.886,1H0A1,1,0,0,1-1,0,1,1,0,0,1,0-1H38.886a1,1,0,0,1,1,1A1,1,0,0,1,38.886,1Z" transform="translate(280.705 121.907)" fill="#5bb3b3" />
        <path d="M52.441,1H0A1,1,0,0,1-1,0,1,1,0,0,1,0-1H52.441a1,1,0,0,1,1,1A1,1,0,0,1,52.441,1Z" transform="translate(267.138 134.246)" fill="#5bb3b3" />
        <path d="M43.128,53.574a1,1,0,0,1-1-1V44.4a1,1,0,0,1,1-1H150.246a1,1,0,0,1,0,2H44.128v7.17A1,1,0,0,1,43.128,53.574Z" transform="translate(-14.501 43.229)" fill="#5bb3b3" />
        <path d="M0,158.161a1,1,0,0,1-1-1V0A1,1,0,0,1,0-1,1,1,0,0,1,1,0V157.161A1,1,0,0,1,0,158.161Z" transform="translate(153.318 54.567)" fill="#5bb3b3" />
        <path d="M2.221,159.189a1,1,0,0,1-1-.986L-1,.014A1,1,0,0,1-.014-1,1,1,0,0,1,1-.014L3.221,158.175a1,1,0,0,1-.986,1.014Z" transform="translate(254.279 54.311)" fill="#5bb3b3" />
        <path d="M186.258,33.215a7.8,7.8,0,1,1,7.919-7.8A7.868,7.868,0,0,1,186.258,33.215Zm0-13.6a5.8,5.8,0,1,0,5.919,5.8A5.866,5.866,0,0,0,186.258,19.616Z" transform="translate(-13.85 43.609)" fill="#5bb3b3" />
        <path d="M217.535,33.215a7.8,7.8,0,1,1,7.919-7.8A7.868,7.868,0,0,1,217.535,33.215Zm0-13.6a5.8,5.8,0,1,0,5.919,5.8A5.866,5.866,0,0,0,217.535,19.616Z" transform="translate(-13.736 43.609)" fill="#5bb3b3" />
        <path d="M248.811,33.215a7.8,7.8,0,1,1,7.919-7.8A7.868,7.868,0,0,1,248.811,33.215Zm0-13.6a5.8,5.8,0,1,0,5.919,5.8A5.866,5.866,0,0,0,248.811,19.616Z" transform="translate(-13.623 43.609)" fill="#5bb3b3" />
        <path d="M0-1H111.467a1,1,0,0,1,1,1V7.806a1,1,0,0,1-1,1H0a1,1,0,0,1-1-1V0A1,1,0,0,1,0-1ZM110.467,1H1V6.806H110.467Z" transform="translate(148.065 44.851)" fill="#5bb3b3" />
        <path d="M0-1H65.6a1,1,0,0,1,1,1V13.6a1,1,0,0,1-1,1H0a1,1,0,0,1-1-1V0A1,1,0,0,1,0-1ZM64.6,1H1V12.6H64.6Z" transform="translate(-13.497 121.738)" fill="#5bb3b3" />
        <path d="M0-1H65.6a1,1,0,0,1,1,1V13.6a1,1,0,0,1-1,1H0a1,1,0,0,1-1-1V0A1,1,0,0,1,0-1ZM64.6,1H1V12.6H64.6Z" transform="translate(-13.497 150.108)" fill="#5bb3b3" />
        <path d="M0-1H65.6a1,1,0,0,1,1,1V13.6a1,1,0,0,1-1,1H0a1,1,0,0,1-1-1V0A1,1,0,0,1,0-1ZM64.6,1H1V12.6H64.6Z" transform="translate(-13.497 178.479)" fill="#5bb3b3" />
        <path d="M0-1H11.531a1,1,0,0,1,1,1V38.276a1,1,0,0,1-1,1H0a1,1,0,0,1-1-1V0A1,1,0,0,1,0-1ZM10.531,1H1V37.276h9.531Z" transform="translate(336.79 106.126)" fill="#5bb3b3" />
        <path d="M0-1H70.531a1,1,0,0,1,1,1V15.781a1,1,0,0,1-1,1H0a1,1,0,0,1-1-1V0A1,1,0,0,1,0-1ZM69.531,1H1V14.781H69.531Z" transform="translate(167.796 97.126)" fill="#5bb3b3" />
        <path d="M0-1H70.531a1,1,0,0,1,1,1V15.781a1,1,0,0,1-1,1H0a1,1,0,0,1-1-1V0A1,1,0,0,1,0-1ZM69.531,1H1V14.781H69.531Z" transform="translate(167.796 126.336)" fill="#5bb3b3" />
        <path d="M0-1H70.531a1,1,0,0,1,1,1V15.781a1,1,0,0,1-1,1H0a1,1,0,0,1-1-1V0A1,1,0,0,1,0-1ZM69.531,1H1V14.781H69.531Z" transform="translate(167.796 155.546)" fill="#5bb3b3" />
        <path d="M0-1H11.531a1,1,0,0,1,1,1V38.276a1,1,0,0,1-1,1H0a1,1,0,0,1-1-1V0A1,1,0,0,1,0-1ZM10.531,1H1V37.276h9.531Z" transform="translate(359.34 106.126)" fill="#5bb3b3" />
        <path d="M0-1H11.531a1,1,0,0,1,1,1V38.276a1,1,0,0,1-1,1H0a1,1,0,0,1-1-1V0A1,1,0,0,1,0-1ZM10.531,1H1V37.276h9.531Z" transform="translate(382.145 106.126)" fill="#5bb3b3" />
        <path d="M0-1H11.531a1,1,0,0,1,1,1V38.276a1,1,0,0,1-1,1H0a1,1,0,0,1-1-1V0A1,1,0,0,1,0-1ZM10.531,1H1V37.276h9.531Z" transform="translate(336.79 161.525)" fill="#5bb3b3" />
        <path d="M0-1H11.531a1,1,0,0,1,1,1V38.276a1,1,0,0,1-1,1H0a1,1,0,0,1-1-1V0A1,1,0,0,1,0-1ZM10.531,1H1V37.276h9.531Z" transform="translate(359.34 161.525)" fill="#5bb3b3" />
        <path d="M0-1H11.531a1,1,0,0,1,1,1V38.276a1,1,0,0,1-1,1H0a1,1,0,0,1-1-1V0A1,1,0,0,1,0-1ZM10.531,1H1V37.276h9.531Z" transform="translate(382.145 161.525)" fill="#5bb3b3" />
        <path d="M338.021,170.795a1,1,0,0,1-1-1V52.574a1,1,0,0,1,1-1h74.055a1,1,0,0,1,0,2H339.021V169.795A1,1,0,0,1,338.021,170.795Z" transform="translate(-13.274 43.144)" fill="#5bb3b3" />
        <path d="M283.893,171.925a1,1,0,0,1-1-1V149.95a15.387,15.387,0,0,1,1.27-6.141,15.806,15.806,0,0,1,3.451-5.021,16.141,16.141,0,0,1,11.333-4.633h2.533a16.141,16.141,0,0,1,11.333,4.633,15.806,15.806,0,0,1,3.451,5.021,15.387,15.387,0,0,1,1.27,6.141v20.834a1,1,0,1,1-2,0V149.95a13.569,13.569,0,0,0-4.123-9.735,14.086,14.086,0,0,0-9.931-4.059h-2.533a14.086,14.086,0,0,0-9.931,4.059,13.569,13.569,0,0,0-4.123,9.735v20.974A1,1,0,0,1,283.893,171.925Z" transform="translate(-13.471 42.011)" fill="#5bb3b3" />
        <path d="M373.255,46.67h-.027a1,1,0,0,1-.974-1.026c.006-.217.2-5.376,5.428-10.45a30.582,30.582,0,0,1,12.13-6.837c6.213-1.991,13.923-2.942,22.916-2.825a1,1,0,0,1-.026,2c-8.776-.114-16.272.8-22.279,2.73a28.622,28.622,0,0,0-11.348,6.368c-4.65,4.511-4.82,9.021-4.822,9.066A1,1,0,0,1,373.255,46.67Z" transform="translate(-13.146 43.501)" fill="#5bb3b3" />
        <path d="M105.28,85.923h0l-14.862-.049a1,1,0,0,1-1-1V77.242a14.067,14.067,0,0,1,.631-4.681,8.446,8.446,0,0,1,1.956-3.294,7.965,7.965,0,0,1,5.843-2.292,7.866,7.866,0,0,1,5.713,2.234,8.61,8.61,0,0,1,2.011,3.311,14.387,14.387,0,0,1,.707,4.713v7.689a1,1,0,0,1-1,1ZM91.418,83.877l12.862.043V77.233c0-2.924-.734-5.209-2.133-6.61a5.911,5.911,0,0,0-4.3-1.648,6.013,6.013,0,0,0-4.416,1.693c-1.371,1.4-2.068,3.66-2.015,6.546q0,.009,0,.018Z" transform="translate(-14.173 42.933)" fill="#5bb3b3" />
        <path d="M130.939,85.923h0l-14.862-.049a1,1,0,0,1-1-1V77.242a14.067,14.067,0,0,1,.631-4.681,8.446,8.446,0,0,1,1.956-3.294,7.965,7.965,0,0,1,5.843-2.292,7.866,7.866,0,0,1,5.713,2.234,8.609,8.609,0,0,1,2.011,3.311,14.387,14.387,0,0,1,.707,4.713v7.689a1,1,0,0,1-1,1Zm-13.862-2.046,12.862.043V77.233c0-2.924-.734-5.209-2.133-6.61a5.911,5.911,0,0,0-4.3-1.648,6.013,6.013,0,0,0-4.416,1.693c-1.371,1.4-2.068,3.66-2.015,6.546q0,.009,0,.018Z" transform="translate(-14.079 42.933)" fill="#5bb3b3" />
        <path d="M157.109,85.923h0l-14.862-.049a1,1,0,0,1-1-1V77.242a14.067,14.067,0,0,1,.631-4.681,8.446,8.446,0,0,1,1.956-3.294,7.965,7.965,0,0,1,5.843-2.292,7.866,7.866,0,0,1,5.713,2.234,8.61,8.61,0,0,1,2.011,3.311,14.387,14.387,0,0,1,.707,4.713v7.689a1,1,0,0,1-1,1Zm-13.862-2.046,12.862.043V77.233c0-2.924-.734-5.209-2.133-6.61a5.911,5.911,0,0,0-4.3-1.648,6.013,6.013,0,0,0-4.416,1.693c-1.371,1.4-2.068,3.66-2.015,6.546q0,.009,0,.018Z" transform="translate(-13.984 42.933)" fill="#5bb3b3" />
        <path d="M105.28,112.367h0l-14.862-.049a1,1,0,0,1-1-1v-7.632a14.067,14.067,0,0,1,.631-4.681,8.446,8.446,0,0,1,1.956-3.294,7.965,7.965,0,0,1,5.843-2.292,7.866,7.866,0,0,1,5.713,2.234,8.61,8.61,0,0,1,2.011,3.311,14.387,14.387,0,0,1,.707,4.713v7.689a1,1,0,0,1-1,1Zm-13.862-2.046,12.862.043v-6.687c0-2.924-.734-5.209-2.133-6.61a5.911,5.911,0,0,0-4.3-1.648,6.013,6.013,0,0,0-4.416,1.693c-1.371,1.4-2.068,3.66-2.015,6.546q0,.009,0,.018Z" transform="translate(-14.173 42.57)" fill="#5bb3b3" />
        <path d="M130.939,112.367h0l-14.862-.049a1,1,0,0,1-1-1v-7.632a14.066,14.066,0,0,1,.631-4.681,8.446,8.446,0,0,1,1.956-3.294,7.965,7.965,0,0,1,5.843-2.292,7.866,7.866,0,0,1,5.713,2.234,8.609,8.609,0,0,1,2.011,3.311,14.387,14.387,0,0,1,.707,4.713v7.689a1,1,0,0,1-1,1Zm-13.862-2.046,12.862.043v-6.687c0-2.924-.734-5.209-2.133-6.61a5.911,5.911,0,0,0-4.3-1.648,6.013,6.013,0,0,0-4.416,1.693c-1.371,1.4-2.068,3.66-2.015,6.546q0,.009,0,.018Z" transform="translate(-14.079 42.57)" fill="#5bb3b3" />
        <path d="M157.109,112.367h0l-14.862-.049a1,1,0,0,1-1-1v-7.632a14.067,14.067,0,0,1,.631-4.681,8.446,8.446,0,0,1,1.956-3.294,7.965,7.965,0,0,1,5.843-2.292,7.866,7.866,0,0,1,5.713,2.234,8.61,8.61,0,0,1,2.011,3.311,14.387,14.387,0,0,1,.707,4.713v7.689a1,1,0,0,1-1,1Zm-13.862-2.046,12.862.043v-6.687c0-2.924-.734-5.209-2.133-6.61a5.911,5.911,0,0,0-4.3-1.648,6.013,6.013,0,0,0-4.416,1.693c-1.371,1.4-2.068,3.66-2.015,6.546q0,.009,0,.018Z" transform="translate(-13.984 42.57)" fill="#5bb3b3" />
        <path d="M105.28,139.732h0l-14.862-.049a1,1,0,0,1-1-1v-7.632a14.067,14.067,0,0,1,.631-4.681,8.446,8.446,0,0,1,1.956-3.294,7.965,7.965,0,0,1,5.843-2.292,7.866,7.866,0,0,1,5.713,2.234,8.61,8.61,0,0,1,2.011,3.311,14.387,14.387,0,0,1,.707,4.713v7.689a1,1,0,0,1-1,1Zm-13.862-2.046,12.862.043v-6.687c0-2.924-.734-5.209-2.133-6.61a5.911,5.911,0,0,0-4.3-1.647,6.013,6.013,0,0,0-4.416,1.693c-1.371,1.4-2.068,3.66-2.015,6.546q0,.009,0,.018Z" transform="translate(-14.173 42.194)" fill="#5bb3b3" />
        <path d="M130.939,139.732h0l-14.862-.049a1,1,0,0,1-1-1v-7.632a14.066,14.066,0,0,1,.631-4.681,8.446,8.446,0,0,1,1.956-3.294,7.965,7.965,0,0,1,5.843-2.292,7.866,7.866,0,0,1,5.713,2.234,8.609,8.609,0,0,1,2.011,3.311,14.387,14.387,0,0,1,.707,4.713v7.689a1,1,0,0,1-1,1Zm-13.862-2.046,12.862.043v-6.687c0-2.924-.734-5.209-2.133-6.61a5.911,5.911,0,0,0-4.3-1.648,6.013,6.013,0,0,0-4.416,1.693c-1.371,1.4-2.068,3.66-2.015,6.546q0,.009,0,.018Z" transform="translate(-14.079 42.194)" fill="#5bb3b3" />
        <path d="M157.109,139.732h0l-14.862-.049a1,1,0,0,1-1-1v-7.632a14.067,14.067,0,0,1,.631-4.681,8.446,8.446,0,0,1,1.956-3.294,7.965,7.965,0,0,1,5.843-2.292,7.866,7.866,0,0,1,5.713,2.234,8.61,8.61,0,0,1,2.011,3.311,14.387,14.387,0,0,1,.707,4.713v7.689a1,1,0,0,1-1,1Zm-13.862-2.046,12.862.043v-6.687c0-2.924-.734-5.209-2.133-6.61a5.911,5.911,0,0,0-4.3-1.648,6.013,6.013,0,0,0-4.416,1.693c-1.371,1.4-2.068,3.66-2.015,6.546q0,.009,0,.018Z" transform="translate(-13.984 42.194)" fill="#5bb3b3" />
        <path d="M105.28,166.175h0l-14.862-.049a1,1,0,0,1-1-1v-7.632a14.067,14.067,0,0,1,.631-4.681,8.446,8.446,0,0,1,1.956-3.294,7.965,7.965,0,0,1,5.843-2.292,7.866,7.866,0,0,1,5.713,2.234,8.61,8.61,0,0,1,2.011,3.311,14.387,14.387,0,0,1,.707,4.713v7.689a1,1,0,0,1-1,1Zm-13.862-2.046,12.862.043v-6.687c0-2.924-.734-5.209-2.133-6.61a5.911,5.911,0,0,0-4.3-1.648,6.013,6.013,0,0,0-4.416,1.693c-1.371,1.4-2.068,3.66-2.015,6.546q0,.009,0,.018Z" transform="translate(-14.173 41.832)" fill="#5bb3b3" />
        <path d="M130.939,166.175h0l-14.862-.049a1,1,0,0,1-1-1v-7.632a14.066,14.066,0,0,1,.631-4.681,8.446,8.446,0,0,1,1.956-3.294,7.965,7.965,0,0,1,5.843-2.292,7.866,7.866,0,0,1,5.713,2.234,8.61,8.61,0,0,1,2.011,3.311,14.387,14.387,0,0,1,.707,4.713v7.689a1,1,0,0,1-1,1Zm-13.862-2.046,12.862.043v-6.687c0-2.924-.734-5.209-2.133-6.61a5.911,5.911,0,0,0-4.3-1.648,6.013,6.013,0,0,0-4.416,1.693c-1.371,1.4-2.068,3.66-2.015,6.546q0,.009,0,.018Z" transform="translate(-14.079 41.832)" fill="#5bb3b3" />
        <path d="M157.109,166.175h0l-14.862-.049a1,1,0,0,1-1-1v-7.632a14.067,14.067,0,0,1,.631-4.681,8.446,8.446,0,0,1,1.956-3.294,7.965,7.965,0,0,1,5.843-2.292,7.866,7.866,0,0,1,5.713,2.234,8.61,8.61,0,0,1,2.011,3.311,14.387,14.387,0,0,1,.707,4.713v7.689a1,1,0,0,1-1,1Zm-13.862-2.046,12.862.043v-6.687c0-2.924-.734-5.209-2.133-6.61a5.911,5.911,0,0,0-4.3-1.648,6.013,6.013,0,0,0-4.416,1.693c-1.371,1.4-2.068,3.66-2.015,6.546q0,.009,0,.018Z" transform="translate(-13.984 41.832)" fill="#5bb3b3" />
        <g transform="translate(0 0.48)">
            <rect width="400" height="39" transform="translate(0 281)" fill="#bfe2e2" />
            <rect width="400" height="4" transform="translate(0 232.465)" fill="#bfe2e2" />
            <g transform="translate(0 13.851)">
                <path d="M0,62.477H126.7c-.777-1.759-1.567-3.785-2.4-5.929-3.71-9.516-8.328-21.358-16.413-21.358a11.95,11.95,0,0,0-6.419,2.206,25.519,25.519,0,0,0-9.056-12.679,21.005,21.005,0,0,0-6.122-2.983,23.3,23.3,0,0,0-6.707-.959c-10.267,0-21,6.176-27.34,15.734a12.846,12.846,0,0,0-5.055-4.681,14.256,14.256,0,0,0-6.527-1.562,13.388,13.388,0,0,0-11.5,6.136,21.982,21.982,0,0,0-5.8-9.092,10.813,10.813,0,0,0-7.206-2.837c-6.531,0-12.919,6.068-15.9,15.1-.074-.246-.163-.536-.253-.816V62.476Z" transform="translate(0 157.523)" fill="#bfe2e2" />
                <path d="M127.466,62.977H-.5V38.757l.533-.083c3.146-8.826,9.552-14.7,16.117-14.7a11.3,11.3,0,0,1,7.533,2.959,21.686,21.686,0,0,1,5.6,8.4,13.964,13.964,0,0,1,11.38-5.568,14.758,14.758,0,0,1,6.757,1.618,13.374,13.374,0,0,1,4.833,4.224C58.727,26.27,69.377,20.275,79.58,20.275a23.8,23.8,0,0,1,6.85.98A21.5,21.5,0,0,1,92.7,24.309a25.735,25.735,0,0,1,9.024,12.335,12.012,12.012,0,0,1,6.161-1.954c8.427,0,13.113,12.019,16.879,21.676.834,2.139,1.622,4.16,2.394,5.909ZM.5,61.977H125.936c-.683-1.6-1.377-3.377-2.106-5.248-3.655-9.374-8.2-21.04-15.947-21.04a11.467,11.467,0,0,0-6.146,2.125l-.531.345-.212-.6a25.03,25.03,0,0,0-8.874-12.439,20.506,20.506,0,0,0-5.977-2.912,22.8,22.8,0,0,0-6.563-.938c-10.1,0-20.671,6.088-26.923,15.51l-.433.653-.41-.668a12.345,12.345,0,0,0-4.858-4.5,13.754,13.754,0,0,0-6.3-1.506,12.891,12.891,0,0,0-11.077,5.9l-.538.859-.355-.949a21.5,21.5,0,0,0-5.662-8.889,10.327,10.327,0,0,0-6.878-2.715C9.835,24.972,3.637,30.9.728,39.729L.5,40.42Z" transform="translate(0 157.523)" fill="rgba(0,0,0,0)" />
            </g>
            <path d="M113.5,65.386h86.4V33.179c-.119,0-.24,0-.36,0a14.258,14.258,0,0,0-6.527,1.562,12.846,12.846,0,0,0-5.055,4.681c-6.341-9.558-17.073-15.733-27.339-15.733a23.308,23.308,0,0,0-6.707.959,21,21,0,0,0-6.122,2.983,25.518,25.518,0,0,0-9.056,12.68,11.95,11.95,0,0,0-6.418-2.206c-8.085,0-12.7,11.841-16.412,21.355-.837,2.145-1.627,4.172-2.4,5.931Z" transform="translate(200.6 168.465)" fill="#bfe2e2" />
            <path d="M200.4,65.886H112.734l.309-.7c.773-1.751,1.561-3.772,2.4-5.912C119.2,49.616,123.889,37.6,132.316,37.6a12.011,12.011,0,0,1,6.16,1.954A25.735,25.735,0,0,1,147.5,27.217a21.5,21.5,0,0,1,6.267-3.054,23.808,23.808,0,0,1,6.851-.98c10.2,0,20.853,6,27.332,15.332a13.375,13.375,0,0,1,4.833-4.224,14.76,14.76,0,0,1,6.757-1.618c.123,0,.248,0,.372,0l.488.012Zm-86.138-1H199.4V33.675a13.743,13.743,0,0,0-6.157,1.505,12.345,12.345,0,0,0-4.859,4.5l-.41.668-.433-.653c-6.251-9.422-16.819-15.51-26.922-15.51a22.809,22.809,0,0,0-6.563.937,20.5,20.5,0,0,0-5.977,2.912,25.03,25.03,0,0,0-8.874,12.439l-.212.6-.531-.345a11.466,11.466,0,0,0-6.145-2.125c-7.744,0-12.292,11.664-15.946,21.036C115.64,61.507,114.945,63.289,114.262,64.886Z" transform="translate(200.6 168.465)" fill="rgba(0,0,0,0)" />
        </g>
        <path d="M-723.8-4270.44s3.969-4.488,7.227-3.583,2.026,2.263,2.026,2.263Z" transform="translate(914 4453)" fill="#efc6a1" />
        <path d="M48.477,11.478,20.418,23.8C18.506,25.706,16.169,28.2,8,32.175c-.771.245-3.771,1.924-5.445-.532.1-.252-2.246-1.351-2.546-3.058s5.474-3.857,8.4-6.527c-.945-1.578-.269.954-4.346.139-.293-.533.642-2.261,2.257-3.237C8.2,17.814,12.048,17.3,18.5,16.112L39.518,0Z" transform="translate(204.17 160.968) rotate(34)" fill="#b28b67" />
        <g transform="translate(77.436 60.097)">
            <g transform="translate(35.99 8.687)">
                <path d="M0,55.847,6.347,26.385C2.808,22.248.411,17.176.812,11.495,1.966-4.877,24.852-1.275,29.3,6.988s3.923,29.223-1.83,30.7c-2.295.589-7.183-.854-12.158-3.84l3.123,22Z" transform="translate(0 0)" fill="#efc6a1" />
            </g>
            <path d="M39.878,40.954c-2.8,0-5.4-1.784-7.32-5.024A23.046,23.046,0,0,1,29.7,24.519c0-.292.006-.592.018-.891a46.439,46.439,0,0,0-5.757,5,45.075,45.075,0,0,1-6.229,5.338,13.371,13.371,0,0,1-7.48,2.442,9.252,9.252,0,0,1-7.422-4.088A14.853,14.853,0,0,1,0,23.645a11.858,11.858,0,0,1,.579-3.752A9.021,9.021,0,0,1,2.4,16.7a8.56,8.56,0,0,1,3.183-2.218,12.332,12.332,0,0,1,4.669-.831c10.765,0,16.028,1.549,20.618,3.874A14.744,14.744,0,0,1,34.82,11.39a6.126,6.126,0,0,1,1.816-1.284,8.532,8.532,0,0,1,1.519-.648A38.439,38.439,0,0,1,49.341,7.587c.6-.021,1.2-.031,1.781-.031.222,0,.445,0,.663,0A7.6,7.6,0,0,1,59.4,0a7.583,7.583,0,0,1,.413,15.157A38.447,38.447,0,0,1,51.294,16.6a15.82,15.82,0,0,1,.491,4.069A22.867,22.867,0,0,1,51.36,24.9a3.552,3.552,0,0,0-2.622-1.388,4.506,4.506,0,0,0-3.3,1.4,4.619,4.619,0,0,0-1.274,3.154,5.835,5.835,0,0,0,1.177,3.7,4.2,4.2,0,0,0,3.065,1.6,20.362,20.362,0,0,1-3.942,5.422A6.893,6.893,0,0,1,39.878,40.954Z" transform="translate(0 0)" fill="#313e58" />
        </g>
        <g transform="translate(247.36 64.819)">
            <g transform="translate(2.715 2.861)">
                <path d="M0,0,6.5,30.3C2.876,34.557.421,39.773.831,45.617c1.182,16.839,24.622,13.134,29.181,4.636S34.031,20.2,28.138,18.677c-2.35-.606-7.357.878-12.452,3.949L18.884,0Z" transform="translate(33.047 57.439) rotate(180)" fill="#b28b67" />
            </g>
            <path d="M6.446,0C3.316,1.879.931,5.679.224,9.916a16.393,16.393,0,0,0,.368,7.06,18.124,18.124,0,0,0,1.724,4.155c2.892,11.9,14.86,10.835,23.815,9.765,4.361-.521,8.008-1.042,9.544-.065,1.025-6.424-2.281-11.6-13.908-10.6-2.528-1.417-4.352-4.073-6.576-7.643a4.722,4.722,0,0,1-5.025-7.773C8.954,3.1,7.738,1.529,6.448,0h0Z" transform="translate(35.851 31.511) rotate(180)" fill="#313e58" />
        </g>
        <g transform="translate(205.016 198.822)">
            <g transform="translate(0 0)">
                <path d="M60.459,0,33.728,93.573l-19.5,68.968H0L20.725,0Z" transform="translate(28.454 0)" fill="#313e58" />
                <path d="M46.963,0c.618,48.228,2.727,74.533,3.376,78.915S60.8,111.172,79.786,162.54H65.05Q28.8,88.622,24.58,78.915C21.766,72.444,13.081,46.139,0,0Z" transform="translate(49.098)" fill="#7a8293" />
                <g transform="translate(85.226 159.799)">
                    <path d="M44.975,15.445,44.238,0H28.755C17.742,7.723,0,12.5,0,12.5v2.942H28.017L37.6,13.974v1.471Z" transform="translate(0)" fill="#313e58" />
                </g>
                <g transform="translate(0 159.799)">
                    <path d="M44.975,15.445,44.238,0H28.755C17.742,7.723,0,12.5,0,12.5v2.942H28.017L37.6,13.974v1.471Z" fill="#313e58" />
                </g>
            </g>
        </g>
        <g transform="translate(71.787 200.822)">
            <path d="M0,0,27.592,90.206l13.366,76.715h10.48L37.315,0Z" transform="translate(31.529 0)" fill="#ddb590" />
            <path d="M20.512,0c1.874,49.528-.331,75.076-.751,79.575S13.6,113.252,0,168.431L11.167,164.6c21.49-50.607,28.813-76.909,31.277-83.554S51.456,47.383,62.083,0Z" transform="translate(1.147 0)" fill="#efc6a1" />
            <path d="M0,0,11.732,45.959H47.565L42.222,0Z" transform="translate(27.863 0)" fill="#708daf" />
            <path d="M3.674,0c-5.79,17.356-2.2,45.959-2.2,45.959H38.041L48.1,0Z" transform="translate(17.59 0)" fill="#96b7df" />
            <g transform="translate(0 160.09)">
                <path d="M3.28,3.779A1.466,1.466,0,0,0,1.4,4.768L0,9.7a47.1,47.1,0,0,0,.661,5.788H42.017s1.612-5.329-1.861-5.754-5.77-.767-5.77-.767L15.163.4a.733.733,0,0,0-.976.39l-1.236,3a16.619,16.619,0,0,1-5.225,1.5Z" transform="translate(0 -0.332)" fill="#acb1bc" />
            </g>
            <g transform="translate(68.924 160.09)">
                <path d="M3.28,3.779A1.466,1.466,0,0,0,1.4,4.768L0,9.7a47.1,47.1,0,0,0,.661,5.788H42.017s1.612-5.329-1.861-5.754-5.77-.767-5.77-.767L15.163.4a.733.733,0,0,0-.976.39l-1.236,3a16.619,16.619,0,0,1-5.225,1.5Z" transform="translate(0 -0.332)" fill="#acb1bc" />
            </g>
        </g>
        <g transform="translate(93.861 111.902)">
            <g transform="translate(25.917 0) rotate(14)">
                <path d="M6.159,0,29.877,19.406a66.49,66.49,0,0,1,16.415,7.617c1.01,1.022,2.189,3.046-2.191,2.477s-9.012-.97-9.7.5,1.882,3.4.549,5.361Q33.621,37.319,23.9,24.6L0,13.194Z" transform="matrix(0.996, 0.087, -0.087, 0.996, 53.904, 66.069)" fill="#efc6a1" />
                <path d="M0,1.728,6.57,0Q27.562,41.527,73.565,72.941L54.239,101.1C22.7,70.223,2.053,37.323,0,1.728Z" transform="matrix(0.996, 0.087, -0.087, 0.996, 8.812, 0)" fill="#7468b4" />
            </g>
        </g>
        <path d="M0,88.278H59.626S38.905,37.9,38.905,2.68L20.919,0C6.783,22.734,2.791,50.725,0,88.278Z" transform="translate(91.657 113.076)" fill="#dde3e9" />
        <path d="M0,104.234H53.431S46.067,35.4,45.377,12.682L41.031.261S36.719.073,34.612,0H33.438C20.771,22.734,2.5,66.681,0,104.234Z" transform="translate(78.765 113.076)" fill="#9183d8" />
        <path d="M2.133,74.209l2.1,1.025C14.405,62.1,34.914,38.5,44.988,34.861c9.525-3.437,18.454-4.626,33.4,2.261l5.647-10.141C71.342,10.591,42.6-4.831,29.862,1.423,9.489,11.422,3.5,50.495,2.133,74.209Z" transform="matrix(-0.899, 0.438, -0.438, -0.899, 301.996, 182.157)" fill="#629d62" />
        <path d="M46.766,22.265,18.707,9.943C16.8,8.038,11.964,3.392,7.984,1.085S4.058-1.489,2.949-.686-1.4,3.452-1.7,5.158,1.553,10.62,1.553,10.62,6.3,15.7,16.792,17.632L37.807,33.743Z" transform="translate(206.591 189.842) rotate(146)" fill="#efc6a1" />
        <path d="M0,1.931,6.316,0C16.486,13.133,27.4,38.7,37.471,42.337,47,45.773,63.443,48.2,78.384,41.317l5.647,10.141C71.342,67.847,42.6,83.27,29.862,77.015,9.489,67.016,1.368,25.645,0,1.931Z" transform="matrix(0.956, 0.292, -0.292, 0.956, 116.795, 121.127)" fill="#9183d8" />
        <path d="M61.177,102.411s-34.961-1.08-53.936-1.08c-2.707,0-3.121-20.9-2.73-22.871C9.028,55.694,22.463,35.088,22.463,2.68L39.553,0C53.689,22.734,58.386,64.857,61.177,102.411Z" transform="translate(243.857 113.823)" fill="#e4e6ea" />
        <path d="M0,0H53.332C63.657,26.092,40.644,104.539,40.644,104.539H34.072C21.3,81.739,2.5,37.663,0,0Z" transform="translate(318.389 218.362) rotate(180)" fill="#85cb85" />
        <g transform="translate(283.68 113.453) rotate(20)">
            <path d="M15.868,0,0,3.148q23.937,44.61,25.674,47.286c2.605,4.015.175,11.373-.723,15.248,5.633,1.311,3.412-7.168,10.541-5.4,6.507,1.616,12.024,5.763,18.092.17.746-.688,1.292-2.837-1.251-3.939C46,53.77,36.634,48.627,35.116,46.631Q32.011,42.547,15.868,0Z" transform="translate(38.718 63.498)" fill="#b28b67" />
            <path d="M69.5,112.283h3.085l.982-5.367Q34.086,25.242,12.419,0L0,2.432Q12,76.851,69.5,112.283Z" transform="translate(73.565 112.283) rotate(180)" fill="#85cb85" />
        </g>
        <path d="M-716.684-4272.135h-4.466s-2.5,1.784.144,2.379c3.037-.907,10.417,0,10.417,0Z" transform="translate(916.393 4453.569)" fill="#b28b67" />
        <path d="M5.113,8.809,6.316,0C16.486,13.133,22.95,39.382,33.025,43.017c9.525,3.437,8,14.534,16.864,32.026-7.465,3.532-12.356,3.194-17.39.723C12.127,65.767,6.481,32.524,5.113,8.809Z" transform="translate(116.118 121.503) rotate(24)" fill="#7468b4" opacity="0.58" />
        <path d="M0,1.931,6.316,0C16.486,13.133,27.4,38.7,37.471,42.337,47,45.773,63.443,48.2,78.384,41.317l5.647,10.141C71.342,67.847,42.6,83.27,29.862,77.015,9.489,67.016,1.368,25.645,0,1.931Z" transform="matrix(0.956, 0.292, -0.292, 0.956, 116.795, 121.127)" fill="#9183d8" />
    </g>
</svg>