<svg xmlns="http://www.w3.org/2000/svg" xmlns:xlink="http://www.w3.org/1999/xlink" width="400" height="320" viewBox="0 0 400 320">
    <defs>
        <clipPath>
            <rect width="400" height="320" />
        </clipPath>
    </defs>
    <g clip-path="url(#b)">
        <rect width="400" height="320" fill="transparent" />
        <g transform="translate(0 -15.168)">
            <path d="M370.427,122.215H356.8a2.137,2.137,0,0,1-2.135-2.135V108.7a8.948,8.948,0,0,1,17.9,0V120.08A2.138,2.138,0,0,1,370.427,122.215Zm-6.811-20.466a6.956,6.956,0,0,0-6.948,6.948V120.08a.134.134,0,0,0,.135.135h13.624a.135.135,0,0,0,.137-.135V108.7A6.956,6.956,0,0,0,363.616,101.749Z" transform="translate(-56.671 58)" fill="#5bb3b3" />
            <path d="M-1310.032-4676.123a1,1,0,0,1-1-1V-4815.1l-45.317-19.734v39.381a1,1,0,0,1-1,1,1,1,0,0,1-1-1v-42.434l49.317,21.476v139.289A1,1,0,0,1-1310.032-4676.123Z" transform="translate(1392 4886)" fill="#5bb3b3" />
            <path d="M-1323.865-4674.068a1,1,0,0,1-1-1v-108.186a1,1,0,0,1,1-1,1,1,0,0,1,1,1v108.186A1,1,0,0,1-1323.865-4674.068Z" transform="translate(1396 4887)" fill="#5bb3b3" />
            <path d="M-1323.865-4679.149a1,1,0,0,1-1-1v-103.1a1,1,0,0,1,1-1,1,1,0,0,1,1,1v103.1A1,1,0,0,1-1323.865-4679.149Z" transform="translate(1675.589 4894.695)" fill="#5bb3b3" />
            <path d="M-1323.865-4740.67a1,1,0,0,1-1-1v-41.584a1,1,0,0,1,1-1,1,1,0,0,1,1,1v41.584A1,1,0,0,1-1323.865-4740.67Z" transform="translate(1697.509 4883.014)" fill="#5bb3b3" />
            <path d="M-1323.865-4740.67a1,1,0,0,1-1-1v-41.584a1,1,0,0,1,1-1,1,1,0,0,1,1,1v41.584A1,1,0,0,1-1323.865-4740.67Z" transform="translate(1697.509 4944.941)" fill="#5bb3b3" />
            <path d="M-1323.865-4740.67a1,1,0,0,1-1-1v-41.584a1,1,0,0,1,1-1,1,1,0,0,1,1,1v41.584A1,1,0,0,1-1323.865-4740.67Z" transform="translate(1686.549 4883.014)" fill="#5bb3b3" />
            <path d="M-1323.865-4740.67a1,1,0,0,1-1-1v-41.584a1,1,0,0,1,1-1,1,1,0,0,1,1,1v41.584A1,1,0,0,1-1323.865-4740.67Z" transform="translate(1686.549 4944.941)" fill="#5bb3b3" />
            <path d="M-1323.865-4740.67a1,1,0,0,1-1-1v-41.584a1,1,0,0,1,1-1,1,1,0,0,1,1,1v41.584A1,1,0,0,1-1323.865-4740.67Z" transform="translate(1707.333 4883.014)" fill="#5bb3b3" />
            <path d="M-1323.865-4740.67a1,1,0,0,1-1-1v-41.584a1,1,0,0,1,1-1,1,1,0,0,1,1,1v41.584A1,1,0,0,1-1323.865-4740.67Z" transform="translate(1707.333 4944.941)" fill="#5bb3b3" />
            <path d="M-1323.865-4740.67a1,1,0,0,1-1-1v-41.584a1,1,0,0,1,1-1,1,1,0,0,1,1,1v41.584A1,1,0,0,1-1323.865-4740.67Z" transform="translate(1717.156 4883.014)" fill="#5bb3b3" />
            <path d="M-1323.865-4740.67a1,1,0,0,1-1-1v-41.584a1,1,0,0,1,1-1,1,1,0,0,1,1,1v41.584A1,1,0,0,1-1323.865-4740.67Z" transform="translate(1717.156 4944.941)" fill="#5bb3b3" />
            <path d="M-1323.865-4681.763a1,1,0,0,1-1-1v-100.491a1,1,0,0,1,1-1,1,1,0,0,1,1,1v100.491A1,1,0,0,1-1323.865-4681.763Z" transform="translate(1614.586 4894.695)" fill="#5bb3b3" />
            <path d="M397,4h-.008l-397-3A1,1,0,0,1-1-.008,1,1,0,0,1,.008-1l397,3A1,1,0,0,1,397,4Z" transform="translate(1.5 231.5)" fill="#5bb3b3" />
            <path d="M397,4h-.008l-397-3A1,1,0,0,1-1-.008,1,1,0,0,1,.008-1l397,3A1,1,0,0,1,397,4Z" transform="translate(1.5 214.546)" fill="#5bb3b3" />
            <path d="M61,1H0A1,1,0,0,1-1,0,1,1,0,0,1,0-1H61a1,1,0,0,1,1,1A1,1,0,0,1,61,1Z" transform="translate(290.5 187.839)" fill="#5bb3b3" />
            <path d="M61,1H0A1,1,0,0,1-1,0,1,1,0,0,1,0-1H61a1,1,0,0,1,1,1A1,1,0,0,1,61,1Z" transform="translate(290.5 148.201)" fill="#5bb3b3" />
            <path d="M68.787,1H0A1,1,0,0,1-1,0,1,1,0,0,1,0-1H68.787a1,1,0,0,1,1,1A1,1,0,0,1,68.787,1Z" transform="translate(330.713 89.212)" fill="#5bb3b3" />
            <path d="M11.517,138.9H1.136A2.138,2.138,0,0,1-1,136.768V123.006a2.138,2.138,0,0,1,2.136-2.136H11.517a2.138,2.138,0,0,1,2.135,2.136v13.762A2.138,2.138,0,0,1,11.517,138.9ZM1.136,122.87a.135.135,0,0,0-.136.136v13.762a.135.135,0,0,0,.136.136H11.517a.134.134,0,0,0,.135-.136V123.006a.134.134,0,0,0-.135-.136Z" transform="translate(7 56)" fill="#5bb3b3" />
            <path d="M11.517,138.9H1.136A2.138,2.138,0,0,1-1,136.768V123.006a2.138,2.138,0,0,1,2.136-2.136H11.517a2.138,2.138,0,0,1,2.135,2.136v13.762A2.138,2.138,0,0,1,11.517,138.9ZM1.136,122.87a.135.135,0,0,0-.136.136v13.762a.135.135,0,0,0,.136.136H11.517a.134.134,0,0,0,.135-.136V123.006a.134.134,0,0,0-.135-.136Z" transform="translate(7 26.096)" fill="#5bb3b3" />
            <path d="M11.517,138.9H1.136A2.138,2.138,0,0,1-1,136.768V123.006a2.138,2.138,0,0,1,2.136-2.136H11.517a2.138,2.138,0,0,1,2.135,2.136v13.762A2.138,2.138,0,0,1,11.517,138.9ZM1.136,122.87a.135.135,0,0,0-.136.136v13.762a.135.135,0,0,0,.136.136H11.517a.134.134,0,0,0,.135-.136V123.006a.134.134,0,0,0-.135-.136Z" transform="translate(7 -3.904)" fill="#5bb3b3" />
            <path d="M11.517,138.9H1.136A2.138,2.138,0,0,1-1,136.768V123.006a2.138,2.138,0,0,1,2.136-2.136H11.517a2.138,2.138,0,0,1,2.135,2.136v13.762A2.138,2.138,0,0,1,11.517,138.9ZM1.136,122.87a.135.135,0,0,0-.136.136v13.762a.135.135,0,0,0,.136.136H11.517a.134.134,0,0,0,.135-.136V123.006a.134.134,0,0,0-.135-.136Z" transform="translate(28.325 56)" fill="#5bb3b3" />
            <path d="M11.517,138.9H1.136A2.138,2.138,0,0,1-1,136.768V123.006a2.138,2.138,0,0,1,2.136-2.136H11.517a2.138,2.138,0,0,1,2.135,2.136v13.762A2.138,2.138,0,0,1,11.517,138.9ZM1.136,122.87a.135.135,0,0,0-.136.136v13.762a.135.135,0,0,0,.136.136H11.517a.134.134,0,0,0,.135-.136V123.006a.134.134,0,0,0-.135-.136Z" transform="translate(28.325 26.096)" fill="#5bb3b3" />
            <path d="M11.517,138.9H1.136A2.138,2.138,0,0,1-1,136.768V123.006a2.138,2.138,0,0,1,2.136-2.136H11.517a2.138,2.138,0,0,1,2.135,2.136v13.762A2.138,2.138,0,0,1,11.517,138.9ZM1.136,122.87a.135.135,0,0,0-.136.136v13.762a.135.135,0,0,0,.136.136H11.517a.134.134,0,0,0,.135-.136V123.006a.134.134,0,0,0-.135-.136Z" transform="translate(28.325 -3.904)" fill="#5bb3b3" />
            <path d="M11.517,138.9H1.136A2.138,2.138,0,0,1-1,136.768V123.006a2.138,2.138,0,0,1,2.136-2.136H11.517a2.138,2.138,0,0,1,2.135,2.136v13.762A2.138,2.138,0,0,1,11.517,138.9ZM1.136,122.87a.135.135,0,0,0-.136.136v13.762a.135.135,0,0,0,.136.136H11.517a.134.134,0,0,0,.135-.136V123.006a.134.134,0,0,0-.135-.136Z" transform="translate(49.65 56)" fill="#5bb3b3" />
            <path d="M11.517,138.9H1.136A2.138,2.138,0,0,1-1,136.768V123.006a2.138,2.138,0,0,1,2.136-2.136H11.517a2.138,2.138,0,0,1,2.135,2.136v13.762A2.138,2.138,0,0,1,11.517,138.9ZM1.136,122.87a.135.135,0,0,0-.136.136v13.762a.135.135,0,0,0,.136.136H11.517a.134.134,0,0,0,.135-.136V123.006a.134.134,0,0,0-.135-.136Z" transform="translate(49.65 26.096)" fill="#5bb3b3" />
            <path d="M11.517,138.9H1.136A2.138,2.138,0,0,1-1,136.768V123.006a2.138,2.138,0,0,1,2.136-2.136H11.517a2.138,2.138,0,0,1,2.135,2.136v13.762A2.138,2.138,0,0,1,11.517,138.9ZM1.136,122.87a.135.135,0,0,0-.136.136v13.762a.135.135,0,0,0,.136.136H11.517a.134.134,0,0,0,.135-.136V123.006a.134.134,0,0,0-.135-.136Z" transform="translate(49.65 -3.904)" fill="#5bb3b3" />
            <path d="M370.427,122.215H356.8a2.137,2.137,0,0,1-2.135-2.135V108.7a8.948,8.948,0,0,1,17.9,0V120.08A2.138,2.138,0,0,1,370.427,122.215Zm-6.811-20.466a6.956,6.956,0,0,0-6.948,6.948V120.08a.134.134,0,0,0,.135.135h13.624a.135.135,0,0,0,.137-.135V108.7A6.956,6.956,0,0,0,363.616,101.749Z" transform="translate(-27 58)" fill="#5bb3b3" />
            <path d="M370.427,122.215H356.8a2.137,2.137,0,0,1-2.135-2.135V108.7a8.948,8.948,0,0,1,17.9,0V120.08A2.138,2.138,0,0,1,370.427,122.215Zm-6.811-20.466a6.956,6.956,0,0,0-6.948,6.948V120.08a.134.134,0,0,0,.135.135h13.624a.135.135,0,0,0,.137-.135V108.7A6.956,6.956,0,0,0,363.616,101.749Z" transform="translate(-27 17.875)" fill="#5bb3b3" />
            <path d="M370.427,122.215H356.8a2.137,2.137,0,0,1-2.135-2.135V108.7a8.948,8.948,0,0,1,17.9,0V120.08A2.138,2.138,0,0,1,370.427,122.215Zm-6.811-20.466a6.956,6.956,0,0,0-6.948,6.948V120.08a.134.134,0,0,0,.135.135h13.624a.135.135,0,0,0,.137-.135V108.7A6.956,6.956,0,0,0,363.616,101.749Z" transform="translate(-56.671 17.875)" fill="#5bb3b3" />
            <path d="M-1319.6-4783.139h-70.9a1,1,0,0,1-1-1,1,1,0,0,1,1-1h69.525l-3-9.315H-1390.5a1,1,0,0,1-1-1,1,1,0,0,1,1-1h67.253a1,1,0,0,1,.952.693l3.645,11.315a1,1,0,0,1-.144.9A1,1,0,0,1-1319.6-4783.139Z" transform="translate(1392 4887)" fill="#5bb3b3" />
            <path d="M-1310.4-4809.154h-46.945a1,1,0,0,1-1-1,1,1,0,0,1,1-1h46.945a1,1,0,0,1,1,1A1,1,0,0,1-1310.4-4809.154Z" transform="translate(1392 4885)" fill="#5bb3b3" />
            <path d="M-1347.806-4798.823a1,1,0,0,1-1-1v-7.91a1,1,0,0,1,1-1,1,1,0,0,1,1,1v7.91A1,1,0,0,1-1347.806-4798.823Z" transform="translate(1390.204 4888)" fill="#5bb3b3" />
            <path d="M-1347.806-4798.823a1,1,0,0,1-1-1v-7.91a1,1,0,0,1,1-1,1,1,0,0,1,1,1v7.91A1,1,0,0,1-1347.806-4798.823Z" transform="translate(1400.204 4888)" fill="#5bb3b3" />
            <path d="M-1347.806-4798.823a1,1,0,0,1-1-1v-7.91a1,1,0,0,1,1-1,1,1,0,0,1,1,1v7.91A1,1,0,0,1-1347.806-4798.823Z" transform="translate(1410.204 4888)" fill="#5bb3b3" />
            <path d="M-1347.806-4798.823a1,1,0,0,1-1-1v-7.91a1,1,0,0,1,1-1,1,1,0,0,1,1,1v7.91A1,1,0,0,1-1347.806-4798.823Z" transform="translate(1420.204 4888)" fill="#5bb3b3" />
            <path d="M0,0V8H66V0H0M0-2H66a2,2,0,0,1,2,2V8a2,2,0,0,1-2,2H0A2,2,0,0,1-2,8V0A2,2,0,0,1,0-2Z" transform="translate(288 102)" fill="#5bb3b3" />
            <path d="M-1061.287-4788.079a1,1,0,0,1-1-1v-15.5a1,1,0,0,1,1-1h68.3a1,1,0,0,1,1,1,1,1,0,0,1-1,1h-67.3v14.5A1,1,0,0,1-1061.287-4788.079Z" transform="translate(1392 4887)" fill="#5bb3b3" />
            <path d="M-1030.845-4804.533a1.013,1.013,0,0,1-.194-.019,1,1,0,0,1-.789-1.175c.042-.216,1.1-5.342,6.5-10.4a32.665,32.665,0,0,1,11.8-6.863,58.842,58.842,0,0,1,19.1-2.819q.76,0,1.531.014a1,1,0,0,1,.982,1.018,1,1,0,0,1-1,.982h-.018q-.754-.014-1.5-.014a57.009,57.009,0,0,0-18.341,2.674,30.831,30.831,0,0,0-11.086,6.371,22.323,22.323,0,0,0-4.9,6.455,13.716,13.716,0,0,0-1.113,2.965A1,1,0,0,1-1030.845-4804.533Z" transform="translate(1392 4886)" fill="#5bb3b3" />
        </g>
        <rect width="400" height="39" transform="translate(0 281)" fill="#bfe2e2" />
        <rect width="400" height="4" transform="translate(0 241.465)" fill="#bfe2e2" />
        <path d="M0,62.477H126.7c-.777-1.759-1.567-3.785-2.4-5.929-3.71-9.516-8.328-21.358-16.413-21.358a11.95,11.95,0,0,0-6.419,2.206,25.519,25.519,0,0,0-9.056-12.679,21.005,21.005,0,0,0-6.122-2.983,23.3,23.3,0,0,0-6.707-.959c-10.267,0-21,6.176-27.34,15.734a12.846,12.846,0,0,0-5.055-4.681,14.256,14.256,0,0,0-6.527-1.562,13.388,13.388,0,0,0-11.5,6.136,21.982,21.982,0,0,0-5.8-9.092,10.813,10.813,0,0,0-7.206-2.837c-6.531,0-12.919,6.068-15.9,15.1-.074-.246-.163-.536-.253-.816V62.476Z" transform="translate(0 157.523)" fill="#bfe2e2" />
        <path d="M127.466,62.977H-.5V38.757l.533-.083c3.146-8.826,9.552-14.7,16.117-14.7a11.3,11.3,0,0,1,7.533,2.959,21.686,21.686,0,0,1,5.6,8.4,13.964,13.964,0,0,1,11.38-5.568,14.758,14.758,0,0,1,6.757,1.618,13.374,13.374,0,0,1,4.833,4.224C58.727,26.27,69.377,20.275,79.58,20.275a23.8,23.8,0,0,1,6.85.98A21.5,21.5,0,0,1,92.7,24.309a25.735,25.735,0,0,1,9.024,12.335,12.012,12.012,0,0,1,6.161-1.954c8.427,0,13.113,12.019,16.879,21.676.834,2.139,1.622,4.16,2.394,5.909ZM.5,61.977H125.936c-.683-1.6-1.377-3.377-2.106-5.248-3.655-9.374-8.2-21.04-15.947-21.04a11.467,11.467,0,0,0-6.146,2.125l-.531.345-.212-.6a25.03,25.03,0,0,0-8.874-12.439,20.506,20.506,0,0,0-5.977-2.912,22.8,22.8,0,0,0-6.563-.938c-10.1,0-20.671,6.088-26.923,15.51l-.433.653-.41-.668a12.345,12.345,0,0,0-4.858-4.5,13.754,13.754,0,0,0-6.3-1.506,12.891,12.891,0,0,0-11.077,5.9l-.538.859-.355-.949a21.5,21.5,0,0,0-5.662-8.889,10.327,10.327,0,0,0-6.878-2.715C9.835,24.972,3.637,30.9.728,39.729L.5,40.42Z" transform="translate(0 157.523)" fill="rgba(0,0,0,0)" />
        <path d="M113.5,65.386h86.4V33.179c-.119,0-.24,0-.36,0a14.258,14.258,0,0,0-6.527,1.562,12.846,12.846,0,0,0-5.055,4.681c-6.341-9.558-17.073-15.733-27.339-15.733a23.308,23.308,0,0,0-6.707.959,21,21,0,0,0-6.122,2.983,25.518,25.518,0,0,0-9.056,12.68,11.95,11.95,0,0,0-6.418-2.206c-8.085,0-12.7,11.841-16.412,21.355-.837,2.145-1.627,4.172-2.4,5.931Z" transform="translate(200.6 177.465)" fill="#bfe2e2" />
        <path d="M200.4,65.886H112.734l.309-.7c.773-1.751,1.561-3.772,2.4-5.912C119.2,49.616,123.889,37.6,132.316,37.6a12.011,12.011,0,0,1,6.16,1.954A25.735,25.735,0,0,1,147.5,27.217a21.5,21.5,0,0,1,6.267-3.054,23.808,23.808,0,0,1,6.851-.98c10.2,0,20.853,6,27.332,15.332a13.375,13.375,0,0,1,4.833-4.224,14.76,14.76,0,0,1,6.757-1.618c.123,0,.248,0,.372,0l.488.012Zm-86.138-1H199.4V33.675a13.743,13.743,0,0,0-6.157,1.505,12.345,12.345,0,0,0-4.859,4.5l-.41.668-.433-.653c-6.251-9.422-16.819-15.51-26.922-15.51a22.809,22.809,0,0,0-6.563.937,20.5,20.5,0,0,0-5.977,2.912,25.03,25.03,0,0,0-8.874,12.439l-.212.6-.531-.345a11.466,11.466,0,0,0-6.145-2.125c-7.744,0-12.292,11.664-15.946,21.036C115.64,61.507,114.945,63.289,114.262,64.886Z" transform="translate(200.6 177.465)" fill="rgba(0,0,0,0)" />
        <g transform="translate(20.085 7.322)">
            <g transform="translate(38.463 57.133)">
                <g transform="translate(25.963 133.53)">
                    <path d="M0,0,27.957,91.4,41.5,169.126H52.119L37.808,0Z" transform="translate(31.946 0)" fill="#e6b88e" />
                    <path d="M20.783,0c1.9,50.182-.336,76.067-.761,80.627S13.777,114.749,0,170.657l11.315-3.886c21.774-51.276,29.193-77.925,31.691-84.658S52.135,48.009,62.9,0Z" transform="translate(1.162 0)" fill="#efc6a1" />
                    <g transform="translate(0 162.205)">
                        <path d="M3.323,3.824a1.486,1.486,0,0,0-1.906,1L0,9.822a47.727,47.727,0,0,0,.67,5.865h41.9s1.633-5.4-1.886-5.83-5.847-.778-5.847-.778L15.364.4a.743.743,0,0,0-.989.4L13.122,3.829a16.838,16.838,0,0,1-5.294,1.52Z" transform="translate(0 -0.332)" fill="#acb1bc" />
                    </g>
                    <g transform="translate(69.835 162.205)">
                        <path d="M3.323,3.824a1.486,1.486,0,0,0-1.906,1L0,9.822a47.727,47.727,0,0,0,.67,5.865h41.9s1.633-5.4-1.886-5.83-5.847-.778-5.847-.778L15.364.4a.743.743,0,0,0-.989.4L13.122,3.829a16.838,16.838,0,0,1-5.294,1.52Z" transform="translate(0 -0.332)" fill="#acb1bc" />
                    </g>
                    <path d="M0,0,11.887,46.566H48.194L42.78,0Z" transform="translate(28.231 0)" fill="#708daf" />
                    <path d="M3.717,0C-2.15,17.586,1.488,46.566,1.488,46.566h37.05L48.726,0Z" transform="translate(17.828)" fill="#96b7df" />
                </g>
                <g transform="translate(46.124 0)">
                    <g transform="translate(12.221 11.949)">
                        <path d="M0,54,6.1,25.513c-3.4-4-5.7-8.9-5.318-14.4,1.109-15.83,23.1-12.348,27.373-4.358s3.769,28.257-1.758,29.685c-2.2.57-6.9-.825-11.681-3.713l3,21.271Z" transform="translate(0.411 -0.301)" fill="#efc6a1" />
                    </g>
                    <path d="M-60.392,17.653a5.54,5.54,0,0,1-1.155-2.146,21.707,21.707,0,0,1-.739-2.437c-.372-1.661-.376-3.572.809-4.861a5.574,5.574,0,0,1,3.693-1.6,6.785,6.785,0,0,1,2.618.332c.834.274,1.553.82,2.361,1.16A10.565,10.565,0,0,1-51.56,2.908,5.176,5.176,0,0,1-47.705.394a7.642,7.642,0,0,1,4.695.946c.365.2.727.4,1.073.638a3.007,3.007,0,0,0,.931.512c.379.089.567-.13.813-.406a6.18,6.18,0,0,1,.959-.863A5.647,5.647,0,0,1-33.95.312,4.911,4.911,0,0,1-31.8,1.869c.492.645.842,1.668,1.521,2.117.288.191.491-.062.753-.249.394-.281.769-.59,1.168-.863a5.348,5.348,0,0,1,1.815-.82c.95-.22,2.263-.168,2.535,1.076a5.136,5.136,0,0,1-.009,1.438c-.045.647-.092,1.293-.149,1.939a14,14,0,0,1-.189,1.445,2.115,2.115,0,0,0-.094.992c.138.321.772.139,1.043.15a4.123,4.123,0,0,1,1.569.345,1.688,1.688,0,0,1,.949.878,1.578,1.578,0,0,1,.026.826,2.463,2.463,0,0,0,.05.847c.719-.354,3.212-1.141,3.526.148a2.017,2.017,0,0,1-.315,1.276,11.063,11.063,0,0,1-1.162,1.769,15.814,15.814,0,0,1-3.094,3,2.028,2.028,0,0,1,.529,3.4,2.513,2.513,0,0,1-1.846.535,4.08,4.08,0,0,0-.763-.06,1.824,1.824,0,0,1-.346.116,10.286,10.286,0,0,1-2.83-.359,9.332,9.332,0,0,1-4.316-2.257,1.331,1.331,0,0,0-1-.459c-.371,0-.735.106-1.106.115a7.97,7.97,0,0,1-2.777-.774,10.479,10.479,0,0,1-.91,3.694c-.411.9-1.268,1.034-2.111,1.114-2.695.254-5.4-.029-8.1-.026,2.612.59,5.311.834,7.9,1.528,1.17.314.277,1.1-.224,1.649A9.505,9.505,0,0,0-41.61,29.59a5.629,5.629,0,0,0-5.537-2.251c-2.211.565-3.767,3.555-2.354,5.7.821,1.248,2.3,1.729,3.536,2.265-.962,1-1.195,2.477-1.774,3.722a2.663,2.663,0,0,1-1.325,1.521,1.549,1.549,0,0,0-.7.279c-.231.238-.286.505-.581.71a3.275,3.275,0,0,1-4.058-.313,2.649,2.649,0,0,1,.09-3.472c-1.254-.523-3.538-1.195-3.04-3.148-2.717-.18-9.314-4.587-5.667-7.807-2-1.131-3.84-3.9-2.554-6.332.99-1.876,3.292-2.715,5.181-2.815" transform="translate(66)" fill="#313e58" />
                </g>
                <g transform="translate(0 52.419)">
                    <path d="M.894,65.477c-.813-.5-1.7-2.389.448-3.865C6.7,57.937,14.427,51.5,15.471,49.386c2.135-4.331,9.405-46.546,9.405-46.546L40.1,2.9S26,48.42,24.877,51.205c-1.686,4.178,1.882,10.541,3.407,13.961-2.4,1.076-3.522-.3-4.745-1.671-1.3-1.464-2.728-2.928-5.962-1.424C13.438,64,10.017,67.053,5.938,67.053A9.463,9.463,0,0,1,.894,65.477Zm130.2-40.963L109.628,11.861,116.483,0l20.639,20.134a62.553,62.553,0,0,1,14.76,8.485c.863,1.041,1.8,3.034-2.256,2.142s-8.367-1.648-9.13-.329,1.485,3.342.075,5.07a.533.533,0,0,1-.432.207Q138.2,35.709,131.089,24.514Z" transform="translate(0 64.931)" fill="#efc6a1" />
                    <path d="M0,1.626,6.182,0q19.75,39.07,63.031,68.626L51.03,95.124C21.361,66.069,1.932,35.115,0,1.626Z" transform="matrix(0.996, 0.087, -0.087, 0.996, 68.285, 2.265)" fill="#7468b4" />
                    <path d="M0,83.056H56.1S36.6,35.654,36.6,2.521L19.681,0C6.382,21.389,2.626,47.724,0,83.056Z" transform="translate(40.681 0)" fill="#dde3e9" />
                    <path d="M0,107.1C6.135,37.882,44.809,0,44.809,0l.013.012L44.829,0h1.1c1.983.068,6.04.246,6.04.246l4.089,11.686C56.712,33.3,63.64,98.068,63.64,98.068H26.92q.094,4.454.423,9.03Z" transform="translate(15.181 0)" fill="#9183d8" />
                    <path d="M10.275,36.062H.045A186.138,186.138,0,0,1,2.813,0,195.917,195.917,0,0,0,5.281,20.17c1.333,7.219,3.013,12.565,4.993,15.891Z" transform="translate(42.062 62.293)" fill="rgba(0,0,0,0.1)" />
                    <path d="M0,8.43,18.133,0V8.43Z" transform="translate(50.233 67.34)" fill="rgba(255,255,255,0.2)" />
                </g>
            </g>
            <g transform="translate(169.866 73.32)">
                <g transform="translate(52.652 0)">
                    <g transform="translate(0 1.712)">
                        <path d="M0,0,7.07,32.953C3.127,37.581.458,43.253.9,49.608,2.189,67.92,27.68,63.891,32.638,54.649s4.37-32.686-2.039-34.338c-2.556-.659-8,.955-13.541,4.295L20.537,0Z" transform="translate(35.939 62.465) rotate(180)" fill="#b28b67" />
                    </g>
                    <path d="M8.557,0h0a5.045,5.045,0,0,0-2.9,1.77,17.88,17.88,0,0,0-2.768,4.1A26.146,26.146,0,0,0,0,17.114a14.242,14.242,0,0,0,4.818,10.8c3.393,3.011,8.236,4.6,14.007,4.6a29.052,29.052,0,0,0,7.022-.772,15.1,15.1,0,0,0,4.728-2,7.533,7.533,0,0,0,3.652-5.784c-4.213-1.158-11.51-1.72-22.308-1.72-.809,0-1.652,0-2.507.009v-.856l10.269-.856L21.392,15.4c-.13.01-.265.015-.4.015a5.207,5.207,0,0,1-3.3-1.2,11.219,11.219,0,0,1-2.52-2.981,4.115,4.115,0,0,1-2.335.742A4.207,4.207,0,0,1,9.81,10.654,4.312,4.312,0,0,1,8.557,7.7a5.1,5.1,0,0,1,2.59-4.747C10.2,1.095,9.4.184,8.557,0Z" transform="translate(37.65 32.516) rotate(180)" fill="#313e58" />
                </g>
                <path d="M30.7,117.9H3.867c-.411-13.674-1.209-27.044-1.98-39.973C1.018,63.357.2,49.6.031,37.031-.156,22.945.5,12.285,2.107,3.483L47.337,0C43.48,28.916,37.881,68.581,30.7,117.9h0Z" transform="translate(45.121 121.463)" fill="#708daf" />
                <path d="M30.7,118.4H3.381l-.015-.485c-.411-13.667-1.208-27.033-1.979-39.959C.519,63.382-.3,49.619-.469,37.038-.657,22.919.005,12.228,1.615,3.393l.069-.379,46.23-3.56-.082.612c-3.852,28.887-9.452,68.555-16.642,117.9l-.062.428Zm-26.344-1H30.263c7.11-48.8,12.658-88.1,16.5-116.85L2.53,3.952c-1.548,8.7-2.184,19.221-2,33.073C.7,49.583,1.518,63.334,2.386,77.892,3.148,90.672,3.936,103.883,4.352,117.4Z" transform="translate(45.121 121.463)" fill="rgba(0,0,0,0)" />
                <path d="M42.824,117.9H10.258c-1.541-16.3-2.879-32.7-4.3-50.066C4.189,46.112,2.356,23.657,0,0H44.78c-.5,24.194-.825,45.682-1.165,68.431-.236,15.757-.479,32.051-.791,49.464Z" transform="translate(62.16 121.463)" fill="#96b7df" />
                <path d="M42.824,118.395H9.8l-.043-.453c-1.541-16.3-2.879-32.7-4.3-50.058V67.87C3.691,46.16,1.859,23.712-.5.05L-.552-.5H45.29L45.28.01c-.5,24.182-.824,45.66-1.164,68.4V68.5c-.235,15.738-.479,32.011-.79,49.4l-.481-.009h-.019Zm-32.111-1h31.62c.307-17.2.548-33.318.781-48.907v-.094c.338-22.58.657-43.915,1.154-67.893H.552C2.883,23.969,4.7,46.243,6.46,67.788V67.8C7.864,85,9.191,101.248,10.713,117.395Z" transform="translate(62.16 121.463)" fill="rgba(0,0,0,0)" />
                <path d="M1.093,0l9.916,7.541a80.369,80.369,0,0,1,19.842,9.207c1.22,1.235,2.645,3.681-2.648,2.994s-10.893-1.172-11.722.6,2.274,4.111.664,6.48q-1.611,2.368-13.365-13L0,14.557Z" transform="translate(117.912 150.63) rotate(90)" fill="#b28b67" />
                <path d="M36.186,0s-15.52,38.849-18.44,42.553C16.319,44.364,7.63,48.94,1.761,51.362c-2.356.972-1.888,2.957-1.213,3.6,5.489,5.239,10.627,1.516,16.635.135,6.582-1.512,4.4,6.246,9.6,5.131-.764-3.576-2.881-10.379-.422-14.028C28,43.769,50.723,3.15,50.723,3.15Z" transform="matrix(0.978, -0.208, 0.208, 0.978, 0, 111.844)" fill="#b28b67" />
                <path d="M43.883,0S-2.031,41.979.1,110.995l6.584-9.124C21.911,75.363,48.506,4.108,48.506,4.108Z" transform="translate(25.819 52.335)" fill="#cc7a29" />
                <path d="M56.41,81.112H1.949c-2.489,0-2.02-3.592-1.66-5.4C4.441,54.789,20.648,32.239,20.648,2.462L36.357,0C49.35,20.889,53.844,46.607,56.41,81.112Z" transform="translate(48.909 49.232)" fill="#dde3e9" />
                <path d="M51.471,96.053H2.448C-7.042,72.079,14.122.38,14.122.38L20.792,0C32.414,20.95,49.176,61.447,51.471,96.053Z" transform="translate(65.948 49.232)" fill="#e88a2d" />
                <path d="M4.656,0S20.1,6.09,32.994,34.117c8.138,17.693,16.254,61.05,3.534,70.875H21.042C26.634,57.167.032,4.108.032,4.108Z" transform="translate(81.797 49.232)" fill="#e88a2d" />
                <path d="M6.962,0S6.8,35.784,0,47.2H13.923Z" transform="translate(89.838 97.84)" fill="#cc7a29" />
            </g>
            <g transform="translate(123.03 96.424)">
                <path d="M48.519-.286S54.5,30.542,50.794,86.429c-.243,2.027-34.781-1.395-34.781-1.395L0,0Z" transform="matrix(0.998, -0.07, 0.07, 0.998, 41.048, 160.302)" fill="#9a9fa8" />
                <path d="M-1205.318-4638.43s-6.151,30.979-2.745,87.055c.232,2.033,35.861,0,35.861,0l1.668-85.344Z" transform="translate(1230.885 4796.369)" fill="#acb1bc" />
                <path d="M81.728,46.322a87.682,87.682,0,0,0-3.949-19.571,50.665,50.665,0,0,0-7.721-15.528C66.585,6.741,62.013,3.236,56.89,1.982A16.073,16.073,0,0,0,42.052,5.7a24.227,24.227,0,0,0-4.663,6.484c-6.053,11.548-7.406,25.66-5.672,38.976,3.765.9,4.4,1.436,22.727.752S81.728,46.322,81.728,46.322Z" transform="translate(-2.783 -1.499)" fill="#313e58" />
                <path d="M0,0,7.892,33.079h5.692L18.782,0Z" transform="translate(63.435 64.953) rotate(180)" fill="#e6b88e" />
                <path d="M4504.289,785.262a9.934,9.934,0,0,1,2.244.673c2.253,1.491,6.908,3.078,15.406-.673,21.723,24.082,24.452,66.643,24.452,66.643l-58.825,6.579S4503.7,784.729,4504.289,785.262Z" transform="translate(-4459.56 -728.081)" fill="#ffe491" />
                <path d="M4436.189,733.615s5.9,23.08,17.083,22.967,15.635-24.777,15.635-24.777a30.333,30.333,0,0,1-16.287-8.3A41.712,41.712,0,0,1,4436.189,733.615Z" transform="translate(-4400.14 -708.169)" fill="#efc6a1" />
                <path d="M1470.418,4990.1h-65.744c.636-6.08,1.033-9.844,1.249-11.845a94.006,94.006,0,0,1,6.11-23.014c1.195-3.078,1.984-5.111,1.715-6.6-.382-2.115-.026-6.671,1.058-13.542.867-5.5,2.2-12.48,3.961-20.754,2.957-13.892,6.142-26.8,6.276-27.342l2.1,1.968,13.176-.339,2.268-1.63.013.021c.389.7,2.453,4.46,4.962,9.991a146.771,146.771,0,0,1,8.378,23.258c1.907,7.427,11.563,55.323,14.478,69.826Z" transform="translate(-1380.115 -4830.111)" fill="#ffe491" />
                <path d="M32.752.015c.49,3.223,23.241,56.875,12.306,60.631S6.084,54.423,6.084,54.423l-.432.919S-.4,68.81.021,73.767C39.5,94.391,64.253,85.17,72.13,65.393,76.627,54.1,60.283,14.729,36.805.935A7.726,7.726,0,0,0,32.752.015Z" transform="matrix(0.995, -0.105, 0.105, 0.995, 29.424, 60.338)" fill="#ffd964" />
                <path d="M0,8.876l8.845,4.859s1.862,7.084,4.451,7.128c1.326.617-.983-5.35,1.53-4.833s8.648,5.08,9.706,4.154c1.564-1.371.169-5.579-1.474-7.672-3.071-3.913-5.613-5.251-11.9-7C6.232,4.135.5,0,.5,0Z" transform="translate(69.751 113.337) rotate(-58)" fill="#efc6a1" />
                <path d="M45.753.624S18.8,58.441,29.73,62.2,68.7,55.974,68.7,55.974s6.558,13.566,6.063,19.344C21.4,103.2-5.05,76.541.8,43.089,3.023,33.417,5.843,30.148,13.781,21.56,24.062,10.438,27.581,8.536,35.575,3.3S45.753.624,45.753.624Z" transform="translate(0 64.997) rotate(-11)" fill="#ffd964" />
                <path d="M0,10.851S1.281.089,3.87.045C5.2-.572,2.887,5.4,5.4,4.878S14.049-.2,15.106.724C16.67,2.094,15.275,6.3,13.633,8.4c-3.071,3.913-5.013,5.114-11.3,6.866C.824,12.614.928,13.549,0,10.851Z" transform="translate(32.656 127.613) rotate(-139)" fill="#efc6a1" />
            </g>
        </g>
    </g>
</svg>