<svg xmlns="http://www.w3.org/2000/svg" xmlns:xlink="http://www.w3.org/1999/xlink" width="400" height="320" viewBox="0 0 400 320">
    <defs>
        <clipPath>
            <rect width="223.451" height="260.361" fill="#bfe2e2" />
        </clipPath>
        <clipPath >
            <rect width="67.609" height="80.49" fill="#bfe2e2" />
        </clipPath>
        <clipPath>
            <rect width="400" height="320" />
        </clipPath>
    </defs>
    <g clip-path="url(#d)">
        <rect width="400" height="320" fill="transparent" />
        <path d="M-4454.143-6998.219H-4815.48a1,1,0,0,1-1-1,1,1,0,0,1,1-1h361.338a1,1,0,0,1,1,1A1,1,0,0,1-4454.143-6998.219Z" transform="translate(4815.481 7276)" fill="#5bb3b3" />
        <path d="M-4796.788-6998.219h-18.693a1,1,0,0,1-1-1,1,1,0,0,1,1-1h18.693a1,1,0,0,1,1,1A1,1,0,0,1-4796.788-6998.219Z" transform="translate(5194.09 7276)" fill="#5bb3b3" />
        <g transform="translate(-101.559 67.521)">
            <g transform="translate(0)">
                <g clip-path="url(#a)">
                    <path d="M67.75,44.175C69.374,28.563,72.552,12.458,81.926,0c-2.1,2.234,1.861,4.932,4.412,6.638,4.942,3.3,5.732,10.78,3.105,16.133s-7.768,8.938-12.966,11.753c2.943-2.01,7.294-.105,8.97,3.086s1.3,7.078.376,10.558A37.031,37.031,0,0,1,71.174,68.993c7.508-3.285,15.634,5.945,14.818,14.209s-7,14.769-12.84,20.571c4.9-2.352,10.7,2.9,11.16,8.4s-2.538,10.589-5.421,15.247c4.1-3.136,10.287,1.636,10.762,6.839s-2.452,9.984-4.782,14.632c-6.171,12.3-7.308,24.9-7.613,38.35C66.2,142.468,62.991,89.921,67.75,44.175" transform="translate(40.668)" fill="#bfe2e2" />
                    <path d="M93.573,99.272c-6.5-15.051-13.41-30.666-25.941-41.24C48.96,42.276,19.047,41.915,0,57.217a115.281,115.281,0,0,0,38.446-1.8c-.653,6.064-1.045,11.447,5.779,14.549s11.206,6.818,20.74,6c-2.386,3.633-4,8.178-2.676,12.32s6.544,7.07,10.255,4.808c-2.3,5.324-2.6,12,1.042,16.514a9.755,9.755,0,0,0,14.709.347c.841,7.2,2.094,18.513,16.413,23.284,14.889,16.75,15.275,31.826,19.23,32.878C121.8,153.912,98.592,110.89,93.573,99.272" transform="translate(0 28.494)" fill="#bfe2e2" />
                    <path d="M133.618,112.424H52.61l3.16,16.852h75.085Z" transform="translate(32.607 69.678)" fill="#bfe2e2" />
                    <path d="M68.111,183.285h47.406l9.656-58.924H57.062Z" transform="translate(35.366 77.076)" fill="#bfe2e2" />
                    <path d="M76.718,104.76c-.266-18.508.441-38.324,11.178-53.4a12.627,12.627,0,0,1,3.643-3.709,13.965,13.965,0,0,1,5.054-1.489c14.261-2.213,28.994-2.413,42.992,1.1s27.25,10.924,36.343,22.129c-17.068-8.139-35.9-18.4-54.538-15.185-.042,3.184-2.895,4.55-6,7.652s-10.166,3.044-14.682-.207c2.823,6.508,2.831,16.995-2.067,22.126s-10.386,9.855-17.017,7.336c7.09,3.186,11.722,12.461,7.741,19.136a48.138,48.138,0,0,1-3.852,4.816c-5.12,6.52-5.687,15.482-5.1,23.749.335,4.723,3.972,19.254-.938,21.436-3.729-17.463-2.5-37.626-2.758-55.486" transform="translate(47.523 27.612)" fill="#bfe2e2" />
                    <path d="M102.283,93.285c11.512-24.086,26.471-46.336,41.4-68.462,1.3,8.423-5.378,15.762-11.53,21.661,3.717-.3,6.685,3.688,6.578,7.415s-2.391,7.028-4.885,9.8a51.811,51.811,0,0,1-15.935,11.97c3.345.949,12.6-2,10.723,10.6a79.442,79.442,0,0,1-19.794,15.759c5.707.494,8.617,7.867,6.766,13.289s-6.7,9.161-11.308,12.57q-5.685,4.211-11.371,8.418c2.235.368,6.434-3.393,6.708,1.1s-6.61,9.832-10.608,14.3c-2.865,3.2-6.006,22.129-7.73,25.964.609-23.775,10.828-63.15,20.981-84.392" transform="translate(50.39 15.385)" fill="#bfe2e2" />
                </g>
            </g>
        </g>
        <path d="M-4723.643-7010.3h-102.209a1,1,0,0,1-1-1,1,1,0,0,1,1-1h102.209a1,1,0,0,1,1,1A1,1,0,0,1-4723.643-7010.3Z" transform="translate(5120.945 7170.299)" fill="#5bb3b3" />
        <path d="M-4723.643-7010.3h-102.209a1,1,0,0,1-1-1,1,1,0,0,1,1-1h102.209a1,1,0,0,1,1,1A1,1,0,0,1-4723.643-7010.3Z" transform="translate(4997.03 7170.299)" fill="#5bb3b3" />
        <path d="M136.552,220.5a1,1,0,0,1-1-1v-2.979a1,1,0,0,1,1-1h75.224a1,1,0,0,1,1,1v2.922a1,1,0,0,1-1,1l-75.224.057Zm1-2.979v.979l73.224-.056v-.923Z" transform="translate(111.234 -39.319)" fill="#5bb3b3" />
        <path d="M215.316,140.232H109.52a3.777,3.777,0,0,1-3.773-3.773V66.936a3.777,3.777,0,0,1,3.773-3.773h105.8a3.777,3.777,0,0,1,3.773,3.773v69.523A3.777,3.777,0,0,1,215.316,140.232ZM109.52,65.163a1.775,1.775,0,0,0-1.773,1.773v69.523a1.775,1.775,0,0,0,1.773,1.773h105.8a1.775,1.775,0,0,0,1.773-1.773V66.936a1.775,1.775,0,0,0-1.773-1.773Z" transform="translate(123.126 12.636)" fill="#5bb3b3" />
        <g opacity="0.996">
            <path d="M0,0H99.4V56.527H0Z" transform="translate(235.792 82.397)" fill="#bfe2e2" />
            <path d="M-1-1H100.4V57.527H-1ZM98.4,1H1V55.527H98.4Z" transform="translate(235.792 82.397)" fill="#5bb3b3" />
        </g>
        <path d="M197.649,179.457a3.607,3.607,0,1,1,3.606-3.608A3.612,3.612,0,0,1,197.649,179.457Zm0-5.215a1.607,1.607,0,1,0,1.606,1.607A1.609,1.609,0,0,0,197.649,174.242Z" transform="translate(87.897 -30.887)" fill="#5bb3b3" />
        <path d="M136.552,224.379a1,1,0,0,1-.722-1.692l11.314-11.814a1,1,0,0,1,.722-.308h52.6a1,1,0,0,1,.716.3l11.314,11.589a1,1,0,0,1-.713,1.7l-75.224.225Zm11.741-11.814-9.392,9.807,70.508-.211-9.369-9.6Z" transform="translate(111.234 -46.179)" fill="#5bb3b3" />
        <path d="M136.552,224.379a1,1,0,0,1-.722-1.692l11.314-11.814a1,1,0,0,1,.722-.308h52.6a1,1,0,0,1,.716.3l11.314,11.589a1,1,0,0,1-.713,1.7l-75.224.225Zm11.741-11.814-9.392,9.807,70.508-.211-9.369-9.6Z" transform="translate(111.234 -46.179)" fill="#5bb3b3" />
        <path d="M2.463,1H0A1,1,0,0,1-1,0,1,1,0,0,1,0-1H2.463a1,1,0,0,1,1,1A1,1,0,0,1,2.463,1Z" transform="translate(257.117 173.081)" fill="#5bb3b3" />
        <path d="M2.463,1H0A1,1,0,0,1-1,0,1,1,0,0,1,0-1H2.463a1,1,0,0,1,1,1A1,1,0,0,1,2.463,1Z" transform="translate(264.179 173.081)" fill="#5bb3b3" />
        <path d="M2.463,1H0A1,1,0,0,1-1,0,1,1,0,0,1,0-1H2.463a1,1,0,0,1,1,1A1,1,0,0,1,2.463,1Z" transform="translate(270.924 173.081)" fill="#5bb3b3" />
        <path d="M2.463,1H0A1,1,0,0,1-1,0,1,1,0,0,1,0-1H2.463a1,1,0,0,1,1,1A1,1,0,0,1,2.463,1Z" transform="translate(297.722 173.081)" fill="#5bb3b3" />
        <path d="M2.463,1H0A1,1,0,0,1-1,0,1,1,0,0,1,0-1H2.463a1,1,0,0,1,1,1A1,1,0,0,1,2.463,1Z" transform="translate(304.785 173.081)" fill="#5bb3b3" />
        <path d="M2.463,1H0A1,1,0,0,1-1,0,1,1,0,0,1,0-1H2.463a1,1,0,0,1,1,1A1,1,0,0,1,2.463,1Z" transform="translate(311.529 173.081)" fill="#5bb3b3" />
        <path d="M15.345,1H0A1,1,0,0,1-1,0,1,1,0,0,1,0-1H15.345a1,1,0,0,1,1,1A1,1,0,0,1,15.345,1Z" transform="translate(277.668 173.081)" fill="#5bb3b3" />
        <path d="M-4615.816-7010.3h-210.035a1,1,0,0,1-1-1,1,1,0,0,1,1-1h210.035a1,1,0,0,1,1,1A1,1,0,0,1-4615.816-7010.3Z" transform="translate(5013.119 7203)" fill="#5bb3b3" />
        <path d="M-4642.269-6998.219h-173.212a1,1,0,0,1-1-1,1,1,0,0,1,1-1h173.212a1,1,0,0,1,1,1A1,1,0,0,1-4642.269-6998.219Z" transform="translate(5039.571 7203)" fill="#5bb3b3" />
        <path d="M-4729.869-7030.989l-1.949-.449,3.206-13.918,1.949.449Z" transform="translate(5004 7197)" fill="#5bb3b3" />
        <path d="M-4728.612-7030.989l-3.206-13.918,1.949-.449,3.206,13.918Z" transform="translate(5022.73 7197)" fill="#5bb3b3" />
        <g transform="translate(38.166 22.314)">
            <g transform="translate(13.023 140.998)">
                <path d="M0,0,28.179,98.886l20.56,72.884h15L41.886,0Z" transform="translate(43.526 0)" fill="#9183d8" />
                <path d="M34.6,0c-.652,50.967-2.874,78.766-3.559,83.4S20.011,117.485,0,171.771H15.534Q53.747,93.654,58.2,83.4C61.164,76.558,70.319,48.759,84.108,0Z" transform="translate(1.388)" fill="#b1a8e3" />
                <g transform="translate(0 169.579)">
                    <path d="M0,16.322.777,0H17.1C28.709,8.161,47.412,13.213,47.412,13.213v3.109H17.877l-10.1-1.554v1.554Z" fill="#313e58" />
                </g>
                <g transform="translate(90.505 169.579)">
                    <path d="M0,16.322.777,0H17.1C28.709,8.161,47.412,13.213,47.412,13.213v3.109H17.877l-10.1-1.554v1.554Z" fill="#313e58" />
                </g>
            </g>
            <g transform="translate(51.13 0)">
                <g transform="translate(11.432 20.959)">
                    <path d="M0,57.161,6.372,27.007C2.819,22.772.413,17.581.815,11.765,1.973-4.992,24.948-1.305,29.417,7.152s3.938,29.911-1.837,31.423c-2.3.6-7.211-.874-12.2-3.93L18.51,57.161Z" transform="translate(0 0)" fill="#efc6a1" />
                </g>
                <path d="M33.938,18.941a24.346,24.346,0,0,0-7.806-.863,13.425,13.425,0,0,0,.95-6.786,20.681,20.681,0,0,0-2.2-6.135A8.394,8.394,0,0,0,23.253,2.62,5.561,5.561,0,0,0,20.619,1.2a7.049,7.049,0,0,0-3.035,0c-.441.093-.837.294-1.27.407s-.658-.162-.98-.441A5.549,5.549,0,0,0,12.442.046,7.458,7.458,0,0,0,9.15.44,6.442,6.442,0,0,0,6.409,2.2a4.6,4.6,0,0,0-.821,1.259c-.08.191-.093.3-.284.375s-.383.067-.565.128a7.108,7.108,0,0,0-4.087,3.7A11.744,11.744,0,0,0,.01,12.488c.062,2.011,1.878,7.26,3.577,9.174a11.411,11.411,0,0,0,5.9,3.33A16.867,16.867,0,0,0,6.4,30.737a28.114,28.114,0,0,0-1.41,6.978,22.777,22.777,0,0,0,.35,6.88A7.456,7.456,0,0,0,8.676,49.45a15.923,15.923,0,0,0,2.566,1.205,16.893,16.893,0,0,0,2.644.847c1.718.355,3.7.294,5.022-1.073a9.428,9.428,0,0,0,1.35-1.715c.125-.217.2-.358.049-.57A4.077,4.077,0,0,0,19.6,47.5a6.7,6.7,0,0,1-2.368-4.435c-.211-1.821.278-4.17,2.048-4.965,2.185-.981,4.591.145,6.533,1.194a10.682,10.682,0,0,1,5.177-6.872c2.939-1.478,6.312-1.651,9.333-2.92a5.568,5.568,0,0,0,2.168-1.379,2.8,2.8,0,0,0,.623-1.019,1.65,1.65,0,0,0-.432-1.28C41.386,23.8,36.487,19.719,33.938,18.941Z" transform="translate(0 0)" fill="#313e58" />
            </g>
            <g transform="translate(0 61.732)">
                <path d="M.954,69.853c-.867-.535-1.817-2.549.478-4.123,5.719-3.922,13.96-10.784,15.074-13.044,2.278-4.62,10.034-49.657,10.034-49.657l16.242.064S27.738,51.656,26.539,54.627c-1.8,4.457,2.008,11.245,3.635,14.893-2.565,1.148-3.757-.318-5.062-1.783-1.391-1.562-2.911-3.124-6.361-1.519-4.415,2.054-8.065,5.315-12.417,5.315A10.1,10.1,0,0,1,.954,69.853Zm138.9-43.7-22.9-13.5L124.267,0l22.018,21.479a66.732,66.732,0,0,1,15.747,9.052c.921,1.11,1.922,3.237-2.407,2.285s-8.927-1.758-9.74-.35,1.584,3.565.08,5.409a.569.569,0,0,1-.461.22Q147.431,38.1,139.849,26.152Z" transform="translate(0 69.27)" fill="#efc6a1" />
                <path d="M0,1.734,6.595,0q21.07,41.681,67.243,73.212L54.44,101.48C22.789,70.484,2.061,37.461,0,1.734Z" transform="matrix(0.996, 0.087, -0.087, 0.996, 72.848, 2.417)" fill="#7468b4" />
                <path d="M0,88.606H59.848S39.05,38.037,39.05,2.69L21,0C6.809,22.819,2.8,50.913,0,88.606Z" transform="translate(43.399 0)" fill="#dde3e9" />
                <path d="M0,114.255C6.545,40.413,47.8,0,47.8,0l.014.012L47.825,0H49c2.115.073,6.443.262,6.443.262l4.362,12.467c.693,22.8,8.084,91.892,8.084,91.892H28.719q.1,4.752.451,9.633Z" transform="translate(16.196)" fill="#9183d8" />
                <path d="M10.962,38.472H.048A198.576,198.576,0,0,1,3,0,209.009,209.009,0,0,0,5.634,21.518c1.422,7.7,3.214,13.405,5.327,16.953Z" transform="translate(44.873 66.456)" fill="rgba(0,0,0,0.1)" />
                <path d="M0,8.993,19.345,0V8.993Z" transform="translate(53.59 71.84)" fill="rgba(255,255,255,0.2)" />
            </g>
        </g>
        <g transform="translate(158.235 91.529)">
            <g transform="translate(3.25 5.647)">
                <path d="M0,59.307l6.029-28.1a28.16,28.16,0,0,1-5.17-19C2.079-5.179,26.281-1.354,30.988,7.421s4.149,31.034-1.935,32.6a24.864,24.864,0,0,1-12.417-.964L19.5,59.307Z" transform="translate(0 0)" fill="#b28b67" />
            </g>
            <path d="M8.464,37.631C6.017,26.744-.955,19.322.11,14.456A8.283,8.283,0,0,1,5.786,8.4S8.17-1.244,21.168.2,42.1,7.035,38.674,18.913c-3.149,0-6.951-1.139-12.208.812-2.5.929-3.579,5.76-3.579,5.76H20.51s-3.459-5.734-6.82-4.214-1.528,7.383-1.528,7.383l-1.17,8.976Z" transform="translate(0 -0.05)" fill="#313e58" />
        </g>
        <path d="M3.426,3.933A1.532,1.532,0,0,0,1.462,4.965L0,10.116a49.205,49.205,0,0,0,.69,6.047h43.2s1.684-5.567-1.944-6.011-6.028-.8-6.028-.8L15.84.4a.766.766,0,0,0-1.02.408L13.529,3.937S10.17,5.5,8.07,5.5Z" transform="translate(245.513 331.038)" fill="#acb1bc" />
        <path d="M5058.4,7308.183l-42.042-2a11.56,11.56,0,0,1-8.735-4.126A15.046,15.046,0,0,1,5004,7292.1v-81.007a15.046,15.046,0,0,1,3.619-9.961,11.563,11.563,0,0,1,8.735-4.125H5058.4a11.562,11.562,0,0,1,8.734,4.125,15.048,15.048,0,0,1,3.618,9.961V7292.1a15.048,15.048,0,0,1-3.618,9.961C5064.8,7304.717,5061.7,7308.183,5058.4,7308.183Zm-34.594-91.476a3.33,3.33,0,0,0-3.088,3.522v46.83a3.33,3.33,0,0,0,3.088,3.521h27.144a3.33,3.33,0,0,0,3.088-3.521v-46.83a3.33,3.33,0,0,0-3.088-3.522Z" transform="translate(-4860.173 -6936.785)" fill="#acb1bc" />
        <path d="M5058.4,7308.683h-.024l-42.03-2a12.054,12.054,0,0,1-9.1-4.3,15.546,15.546,0,0,1-3.743-10.291v-81.007a15.546,15.546,0,0,1,3.743-10.291,12.055,12.055,0,0,1,9.111-4.3H5058.4a12.053,12.053,0,0,1,9.11,4.3,15.548,15.548,0,0,1,3.742,10.291V7292.1a15.549,15.549,0,0,1-3.742,10.291,35.129,35.129,0,0,1-4.066,4.12A8.151,8.151,0,0,1,5058.4,7308.683ZM5016.354,7197.5a11.07,11.07,0,0,0-8.359,3.955,14.548,14.548,0,0,0-3.495,9.632V7292.1a14.548,14.548,0,0,0,3.495,9.631,11.066,11.066,0,0,0,8.359,3.956h.024l42.029,2c3.133-.009,6.271-3.587,8.347-5.956a14.55,14.55,0,0,0,3.494-9.631v-81.007a14.548,14.548,0,0,0-3.494-9.632,11.068,11.068,0,0,0-8.358-3.955Zm34.592,73.579H5023.8a3.828,3.828,0,0,1-3.588-4.021v-46.83a3.828,3.828,0,0,1,3.588-4.022h27.144a3.828,3.828,0,0,1,3.588,4.022v46.83A3.828,3.828,0,0,1,5050.946,7271.08Zm-27.144-53.874a2.834,2.834,0,0,0-2.588,3.022v46.83a2.833,2.833,0,0,0,2.588,3.021h27.144a2.833,2.833,0,0,0,2.588-3.021v-46.83a2.834,2.834,0,0,0-2.588-3.022Z" transform="translate(-4860.173 -6936.785)" fill="rgba(0,0,0,0)" />
        <path d="M1.042,97.788S-.9,62.066.522,46.54c1.627-17.723,3.6-33.111,4.754-38.7C8.028-5.482,26.414.7,26.4,7.842c-.022,16.211-15.7,90.716-15.7,90.716Z" transform="translate(237.444 227.129) rotate(20)" fill="#b28b67" />
        <path d="M1.374,105.3C.608,95.609-.817,62.066.608,46.54c1.627-17.723,3.6-33.111,4.754-38.7C8.114-5.482,26.5.7,26.491,7.842c-.022,16.211-14.816,92.611-15.588,97.441S1.856,111.388,1.374,105.3Z" transform="translate(247.361 234.608)" fill="#b28b67" />
        <path d="M0,85.663,3.92,7.913c2.825-13.444,26.736-7.2,26.726,0C30.624,24.27,20.8,80.774,20.792,85.647Z" transform="translate(234.906 226.206) rotate(20)" fill="#313e58" />
        <path d="M3.426,3.6A1.532,1.532,0,0,0,1.462,4.633L0,9.784A49.205,49.205,0,0,0,.69,15.83h43.2s1.684-5.567-1.944-6.011-6.028-.8-6.028-.8L15.84.067a.766.766,0,0,0-1.02.408L13.529,3.605S10.17,5.172,8.07,5.172Z" transform="translate(205.138 310.184) rotate(30)" fill="#acb1bc" />
        <path d="M130.8,27.905c0,20.349-9.664,67.814-9.67,72.294l-20.792.016S104.9,36.687,103.575,36s-54.42,5.3-70.344,5.3C10.27,41.3.771,26.823,0,0H45.486C54.747.991,103.056,10.735,121,14.084,128.677,15.518,130.8,22.3,130.8,27.905Z" transform="translate(145.176 220.056)" fill="#313e58" />
        <g transform="translate(137.462 123.376)">
            <path d="M24.194,92.618,0,82.586,5.4,69.234,29.833,87.176a65.751,65.751,0,0,1,16.609,6.674c1.05.957,2.319,2.9-2.037,2.561s-8.951-.491-9.553.994,2.035,3.262.82,5.267a.578.578,0,0,1-.53.286Q32.995,102.957,24.194,92.618Zm6.783-37.907L4.834,56.3l-1-14.368L33.66,47.347a65.764,65.764,0,0,1,17.853-1.282c1.363.4,3.353,1.585-.708,3.193s-8.261,3.483-8.149,5.081,3.258,2.04,3.046,4.374q-.057.628-1.151.628Q41.583,59.343,30.977,54.711Z" transform="translate(77.456 0)" fill="#b28b67" />
            <path d="M10.333,0C29.605,20.519,53.111,33.909,85.169,45.786L78.05,60.021C44.973,56.9,27.29,54.412,13.427,33.861,9.948,28.7,3.727,10.956,0,1.74Z" transform="matrix(0.966, 0.259, -0.259, 0.966, 34.927, 18.244)" fill="#cc7a29" />
            <path d="M0,87.316H58.977S38.938,26.2,38.5,3.425c-.015-.774-1.444-2.138-2.077-1.96C29.488,3.425,21.578,0,21.578,0,7.6,22.487,2.761,50.172,0,87.316Z" transform="translate(7.713 16.256)" fill="#f2f2f2" />
            <path d="M1.089,113.056C-3.905,79.492,9.22,32.954,21.39,9.48a4.148,4.148,0,0,1,3.785-2.587h9.137c.144.435.287.865.43,1.3q.158-.463.313-.936c15.091,7.325,38.75,22.8,72.512,27.662l-4.034,15.395c-20.916,2.474-41.15,3.166-57.681-1.043,7.292,35.753,5.617,63.785-13.316,63.785Z" transform="translate(0 9.363)" fill="#e88a2d" />
        </g>
        <g transform="translate(332.391 105.13)">
            <g transform="translate(0 0)" clip-path="url(#b)">
                <path d="M19,61.068c0,19.694,1.52,35.66,21.919,35.66s21.919-15.966,21.919-35.66" transform="translate(-5.052 -16.238)" fill="#bfe2e2" />
                <path d="M41.935,32.542a41.785,41.785,0,0,0-2,4.038,56.483,56.483,0,0,1,.548-8.538c.711-4.931,1.8-9.837,2.819-14.733.734-3.519.688-9.841,3.473-12.646.764-.6.945.584.945,1.1.01.109,0-2.106-.744-1.721-4.4,2.327-5.834,9.645-7.245,13.309A71.764,71.764,0,0,0,35.2,29.731a37.449,37.449,0,0,0-.3,4.214c-.147-.375-.294-.753-.446-1.127A76.449,76.449,0,0,0,24.194,15.279C23.14,13.928,9.892.6,8.855,2.643a1.394,1.394,0,0,0,.643.734c.019.022.02.01.009-.023.778,1.285,2.991,3.27,3.679,4.4a85.817,85.817,0,0,1,4.452,8.792c2.894,6.235,5.579,12.532,8.181,18.844.606,1.468,1.238,2.932,1.881,4.389C21.058,29.98,12.2,21.085,0,15.994c4.166,2.168,6.9,6.246,9.711,9.368,3.393,3.766,6.967,7.431,10.367,11.193,4.01,4.438,8.728,9.111,12.585,14.021C36.4,58.6,40.029,66.626,42.269,75.058c-.918-2.913-.073-6.939-.229-10a68.953,68.953,0,0,0-.784-7.257,15.13,15.13,0,0,1,1.061,3.185c-.168-1.7-.361-3.382-.569-5.059.534-1.57,1.057-3.035,1.411-4.242a110.465,110.465,0,0,1,6.914-18.206,163.322,163.322,0,0,1,9.244-16.15C60.9,14.886,62.511,12.447,64.11,10c1.046-1.6,2.042-4.16,3.5-5.692-9.414,8.8-19.7,17.667-25.674,28.23" transform="translate(0 0)" fill="#bfe2e2" />
            </g>
        </g>
        <path d="M-4623.962-6877.352a1,1,0,0,1-1-1v-114.867a1,1,0,0,1,1-1,1,1,0,0,1,1,1v114.867A1,1,0,0,1-4623.962-6877.352Z" transform="translate(4999.158 7197)" fill="#5bb3b3" />
        <path d="M-4623.962-6877.352a1,1,0,0,1-1-1v-114.867a1,1,0,0,1,1-1,1,1,0,0,1,1,1v114.867A1,1,0,0,1-4623.962-6877.352Z" transform="translate(4988.316 7197)" fill="#5bb3b3" />
    </g>
</svg>