<svg xmlns="http://www.w3.org/2000/svg" xmlns:xlink="http://www.w3.org/1999/xlink" width="400"
    height="320" viewBox="0 0 400 320">
    <defs>
        <clipPath>
            <rect width="400" height="320" />
        </clipPath>
    </defs>
    <g clip-path="url(#b)">
        <path d="M0,20.58a1,1,0,0,1-1-1V0A1,1,0,0,1,0-1,1,1,0,0,1,1,0V19.58A1,1,0,0,1,0,20.58Z"
            transform="translate(304.806 218.259)" fill="#5bb3b3" />
        <path
            d="M-2607.142,1593.5a1,1,0,0,1-1-1v-37.036a1,1,0,0,1,1-1h68.075a1,1,0,0,1,1,1,1,1,0,0,1-1,1h-67.075V1592.5A1,1,0,0,1-2607.142,1593.5Z"
            transform="translate(2869 -1358)" fill="#5bb3b3" />
        <path
            d="M397.041,190.564h0l-100.426-.116a1,1,0,0,1,0-2h0l99.425.115V53.3H260.992V165.075a1,1,0,0,1-2,0V52.3a1,1,0,0,1,1-1H397.041a1,1,0,0,1,1,1V189.564a1,1,0,0,1-1,1Z"
            transform="translate(12.293 31.451)" fill="#5bb3b3" />
        <path
            d="M0-1H37.83a1,1,0,0,1,1,1V36.492a1,1,0,0,1-1,1H0a1,1,0,0,1-1-1V0A1,1,0,0,1,0-1ZM36.83,1H1V35.492H36.83Z"
            transform="translate(299.463 104.636)" fill="#5bb3b3" />
        <path
            d="M0-1H79.82a1,1,0,0,1,1,1V36.492a1,1,0,0,1-1,1H0a1,1,0,0,1-1-1V0A1,1,0,0,1,0-1ZM78.82,1H1V35.492H78.82Z"
            transform="translate(299.463 149.135)" fill="#5bb3b3" />
        <path
            d="M0-1H37.83a1,1,0,0,1,1,1V36.492a1,1,0,0,1-1,1H0a1,1,0,0,1-1-1V0A1,1,0,0,1,0-1ZM36.83,1H1V35.492H36.83Z"
            transform="translate(346.386 104.636)" fill="#5bb3b3" />
        <path d="M0,17.979a1,1,0,0,1-1-1V0A1,1,0,0,1,0-1,1,1,0,0,1,1,0V16.979A1,1,0,0,1,0,17.979Z"
            transform="translate(330.279 217.653)" fill="#5bb3b3" />
        <path d="M0,21.065a1,1,0,0,1-1-1V0A1,1,0,0,1,0-1,1,1,0,0,1,1,0V20.065A1,1,0,0,1,0,21.065Z"
            transform="translate(340.752 217.653)" fill="#5bb3b3" />
        <path d="M0,24.631a1,1,0,0,1-1-1V0A1,1,0,0,1,0-1,1,1,0,0,1,1,0V23.631A1,1,0,0,1,0,24.631Z"
            transform="translate(351.224 217.653)" fill="#5bb3b3" />
        <path d="M0,21.777a1,1,0,0,1-1-1V0A1,1,0,0,1,0-1,1,1,0,0,1,1,0V20.777A1,1,0,0,1,0,21.777Z"
            transform="translate(361.697 217.653)" fill="#5bb3b3" />
        <path d="M0,31.579a1,1,0,0,1-1-1V0A1,1,0,0,1,0-1,1,1,0,0,1,1,0V30.579A1,1,0,0,1,0,31.579Z"
            transform="translate(382.642 217.653)" fill="#5bb3b3" />
        <path d="M1,76H-1V0H1Z" transform="translate(77.378 152.5)" fill="#5bb3b3" />
        <rect width="400" height="16.311" transform="translate(0 303.689)" fill="#bfe2e2" />
        <rect width="273" height="16.311" transform="translate(127 231.899)" fill="#bfe2e2" />
        <path
            d="M30.751,161.139H3.033A3.887,3.887,0,0,1-1,157.428V124.581a3.887,3.887,0,0,1,4.033-3.711H30.751a3.885,3.885,0,0,1,4.03,3.711v32.847A3.885,3.885,0,0,1,30.751,161.139ZM3.033,122.87A1.9,1.9,0,0,0,1,124.581v32.847a1.9,1.9,0,0,0,2.033,1.711H30.751a1.894,1.894,0,0,0,2.03-1.711V124.581a1.894,1.894,0,0,0-2.03-1.711Z"
            transform="translate(28.375 45.995)" fill="#5bb3b3" />
        <path
            d="M-1298.158-4749.494H-1390.5a1,1,0,0,1-1-1,1,1,0,0,1,1-1h90.706l-21.992-42.96H-1390.5a1,1,0,0,1-1-1,1,1,0,0,1,1-1h69.326a1,1,0,0,1,.89.544l23.016,44.96a1,1,0,0,1-.037.977A1,1,0,0,1-1298.158-4749.494Z"
            transform="translate(1386.822 4902.675)" fill="#5bb3b3" />
        <g transform="translate(1141.774 1425.329)">
            <path
                d="M59.41,16.659a19.372,19.372,0,1,1-7.564,1.527A19.31,19.31,0,0,1,59.41,16.659Zm0,36.862a17.43,17.43,0,1,0-12.325-5.105A17.317,17.317,0,0,0,59.41,53.521Z"
                transform="translate(-1135.35 -1407.287)" fill="#5bb3b3" />
            <path d="M0,9.349a1,1,0,0,1-1-1V0A1,1,0,0,1,0-1,1,1,0,0,1,1,0V8.349A1,1,0,0,1,0,9.349Z"
                transform="translate(-1075.939 -1347.252)" fill="#5bb3b3" />
            <path
                d="M5.9,6.9A1,1,0,0,1,5.2,6.61l-5.9-5.9a1,1,0,0,1,0-1.414,1,1,0,0,1,1.414,0l5.9,5.9A1,1,0,0,1,5.9,6.9Z"
                transform="translate(-1059.328 -1354.133)" fill="#5bb3b3" />
            <path d="M8.349,1.029h0L0,1A1,1,0,0,1-1,0,1,1,0,0,1,0-1l8.349.029a1,1,0,0,1,0,2Z"
                transform="translate(-1052.447 -1370.663)" fill="#5bb3b3" />
            <path
                d="M0,8.727a1,1,0,0,1-.378-.075,1,1,0,0,1-.547-1.3L2.236-.379a1,1,0,0,1,1.3-.547,1,1,0,0,1,.547,1.3L.926,8.106A1,1,0,0,1,0,8.727Z"
                transform="translate(-1088 -1349.002)" fill="#5bb3b3" />
            <path
                d="M3.228,8.7a1,1,0,0,1-.923-.614L-.922.387A1,1,0,0,1-.387-.922,1,1,0,0,1,.922-.387l3.228,7.7A1,1,0,0,1,3.228,8.7Z"
                transform="translate(-1066.857 -1349.078)" fill="#5bb3b3" />
            <path
                d="M7.716,4.189a1,1,0,0,1-.382-.076L-.382.924A1,1,0,0,1-.924-.382,1,1,0,0,1,.382-.924L8.1,2.265a1,1,0,0,1-.382,1.924Z"
                transform="translate(-1054.229 -1361.772)" fill="#5bb3b3" />
            <path d="M0,9.349a1,1,0,0,1-1-1V0A1,1,0,0,1,0-1,1,1,0,0,1,1,0V8.349A1,1,0,0,1,0,9.349Z"
                transform="translate(-1075.939 -1402.586)" fill="#5bb3b3" />
            <path
                d="M5.9,6.9A1,1,0,0,1,5.2,6.61l-5.9-5.9a1,1,0,0,1,0-1.414,1,1,0,0,1,1.414,0l5.9,5.9A1,1,0,0,1,5.9,6.9Z"
                transform="translate(-1098.455 -1393.26)" fill="#5bb3b3" />
            <path d="M8.349,1.029h0L0,1A1,1,0,0,1-1,0,1,1,0,0,1,0-1l8.349.029a1,1,0,0,1,0,2Z"
                transform="translate(-1107.781 -1370.855)" fill="#5bb3b3" />
            <path
                d="M0,6.883a1,1,0,0,1-.71-.3,1,1,0,0,1,0-1.414L5.219-.71a1,1,0,0,1,1.414,0,1,1,0,0,1,0,1.414L.7,6.593A1,1,0,0,1,0,6.883Z"
                transform="translate(-1059.271 -1393.181)" fill="#5bb3b3" />
            <path
                d="M0,6.883a1,1,0,0,1-.71-.3,1,1,0,0,1,0-1.414L5.219-.71a1,1,0,0,1,1.414,0,1,1,0,0,1,0,1.414L.7,6.593A1,1,0,0,1,0,6.883Z"
                transform="translate(-1098.533 -1354.19)" fill="#5bb3b3" />
            <path
                d="M0,8.727a1,1,0,0,1-.378-.075,1,1,0,0,1-.547-1.3L2.236-.379a1,1,0,0,1,1.3-.547,1,1,0,0,1,.547,1.3L.926,8.106A1,1,0,0,1,0,8.727Z"
                transform="translate(-1067.042 -1400.214)" fill="#5bb3b3" />
            <path
                d="M3.228,8.7a1,1,0,0,1-.923-.614L-.922.387A1,1,0,0,1-.387-.922,1,1,0,0,1,.922-.387l3.228,7.7A1,1,0,0,1,3.228,8.7Z"
                transform="translate(-1088.25 -1400.11)" fill="#5bb3b3" />
            <path
                d="M7.716,4.189a1,1,0,0,1-.382-.076L-.382.924A1,1,0,0,1-.924-.382,1,1,0,0,1,.382-.924L8.1,2.265a1,1,0,0,1-.382,1.924Z"
                transform="translate(-1105.367 -1382.906)" fill="#5bb3b3" />
            <path
                d="M0,4.2a1,1,0,0,1-.924-.617,1,1,0,0,1,.54-1.307l7.711-3.2a1,1,0,0,1,1.307.54A1,1,0,0,1,8.094.924L.383,4.125A1,1,0,0,1,0,4.2Z"
                transform="translate(-1054.243 -1382.953)" fill="#5bb3b3" />
            <path
                d="M0,4.2a1,1,0,0,1-.924-.617,1,1,0,0,1,.54-1.307l7.711-3.2a1,1,0,0,1,1.307.54A1,1,0,0,1,8.094.924L.383,4.125A1,1,0,0,1,0,4.2Z"
                transform="translate(-1105.348 -1361.737)" fill="#5bb3b3" />
        </g>
        <path
            d="M271.326,37.861h0a40.624,40.624,0,0,1,.053-6.579,27.549,27.549,0,0,1,1.055-5.645,12.9,12.9,0,0,1,2.618-4.912,7.521,7.521,0,0,1,5.562-2.509c.66-.018,1.257-.033,1.858-.033,2.282,0,4.858.2,6.657,1.721-.227-4.009,3.171-7.952,7.735-8.978a18.252,18.252,0,0,1,3.946-.423,15.719,15.719,0,0,1,5.391.878,7.02,7.02,0,0,1,3.757,2.843,22.646,22.646,0,0,1,7.9-9.205A28.281,28.281,0,0,1,330.04.273,29,29,0,0,1,334.024,0c3.835.007,18.157,4.832,21.856,11.383,3.43,1.319,27.221-2.678,28.308,26.228Z"
            transform="translate(-235.361 209.912)" fill="#bfe2e2" />
        <path d="M400,1H0A1,1,0,0,1-1,0,1,1,0,0,1,0-1H400a1,1,0,0,1,1,1A1,1,0,0,1,400,1Z"
            transform="translate(0 248.21)" fill="#5bb3b3" />
        <g transform="translate(-8.659 -13.362)">
            <g transform="translate(118.966 215.87)">
                <path d="M74.755,0,41.7,116.358,17.588,202.12H0L25.625,0Z"
                    transform="translate(36.233 0)" fill="#313e58" />
                <path
                    d="M58.068,0c.764,59.972,3.371,92.683,4.174,98.131s12.94,40.112,36.411,103.988H80.432Q35.611,110.2,30.392,98.131C26.912,90.085,16.174,57.374,0,0Z"
                    transform="translate(61.759)" fill="#7a8293" />
                <g transform="translate(106.43 199.127)">
                    <path
                        d="M55.61,19.206,54.7,0H35.554C21.937,9.6,0,15.548,0,15.548v3.658H34.643l11.851-1.829v1.829Z"
                        transform="translate(0)" fill="#313e58" />
                </g>
                <g transform="translate(0 199.127)">
                    <path
                        d="M55.61,19.206,54.7,0H35.554C21.937,9.6,0,15.548,0,15.548v3.658H34.643l11.851-1.829v1.829Z"
                        transform="translate(0)" fill="#313e58" />
                </g>
            </g>
            <g transform="translate(184.285 58.407)">
                <g transform="translate(1.268 2.028)">
                    <path
                        d="M0,0,8.463,39.445C3.743,44.985.549,51.775,1.082,59.382c1.539,21.92,32.052,17.1,37.987,6.034s5.231-39.126-2.44-41.1c-3.059-.789-9.576,1.143-16.209,5.141L24.583,0Z"
                        transform="translate(43.02 74.772) rotate(180)" fill="#efc6a1" />
                </g>
                <path
                    d="M20.7,7.323c-1.652,4.987-2.28,19.345-2.433,23.588a6.211,6.211,0,0,1-.737.044,6.146,6.146,0,0,1-4.294-10.542c-1.422-2.007-3.015-4.1-4.842-6.268C1.529,18.261-3.561,30.31,3.146,41.885,5,47.556,9.2,50.585,14.154,51.991a17.831,17.831,0,0,0,11.7.863c6.9-.592,13.056-2.7,14.8-3.945,0-6.529-1.266-8.467-12.073-8.3-2.655-1.4-4.7-3.817-6.823-6.983.015-.211,1.444-19.662,7.468-19.662,6.056,0,11.194,3.845,13.852,3.845,1.937,0,1.5-2.424.22-4.221-1.059-1.483-6.218-2.912-6.218-5.211,0-1.3,1.3-1.3,2.431-1.293.872,0,1.645,0,1.645-.591,0-2.255.717-6.5-3.2-6.5C34,0,22.643,1.444,20.7,7.323Z"
                    transform="translate(44.401 53.468) rotate(180)" fill="#313e58" />
            </g>
            <path
                d="M12.262,76.955c22.87-26.308,50.764-43.476,88.806-58.7L92.62,0C53.369,4,32.384,7.192,15.934,33.541,11.805,40.154,4.423,62.908,0,74.725Z"
                transform="matrix(-0.899, 0.438, -0.438, -0.899, 242.772, 187.142)" fill="#cc7a29" />
            <path
                d="M74.015,126.012s-19.2,4.46-38.1,4.46S2.034,131.516.1,118.841,24.091,37.711,24.648,4.8c.019-1.118,1.852-3.089,2.663-2.831,3.478,1.107,8.562.569,12.088,0C44,1.235,46.349,1,46.349,1,64.275,33.489,70.474,72.345,74.015,126.012Z"
                transform="translate(173.07 116.274)" fill="#e88a2d" />
            <g transform="translate(174.362 230.174) rotate(180)">
                <path d="M0,0H69.362V77.84H0Z" transform="translate(0 0.002)" fill="#ffe491" />
                <path
                    d="M79.366,103.593a1.049,1.049,0,0,0,.982-1.1V54.734a.988.988,0,1,0-1.963,0v47.755a1.049,1.049,0,0,0,.982,1.1"
                    transform="translate(-45.114 -39.981)" fill="#313e58" />
                <rect width="16.503" height="16.503" transform="translate(25.915 0)" fill="#edc95a" />
                <rect width="16.503" height="16.503" transform="translate(25.915 61.51)"
                    fill="#edc95a" />
                <path
                    d="M36.148,120.459H50.411a.982.982,0,1,0,0-1.963H36.148a.982.982,0,1,0,0,1.963"
                    transform="translate(12.529 -59.279)" fill="#313e58" />
                <path d="M36.148,129.41H50.411a.982.982,0,0,0,0-1.963H36.148a.982.982,0,1,0,0,1.963"
                    transform="translate(12.529 -62.373)" fill="#313e58" />
            </g>
            <path
                d="M59.254,129.923s-16.576,1.4-35.253,1.4c-33.37,0-24.923-63.251-2.278-129.036,0,0,7.81-2.289,11.715-2.289a5.306,5.306,0,0,1,4.852,3.2C53.893,32.236,72.245,89.728,59.254,129.923Z"
                transform="translate(191.187 115.862)" fill="#e88a2d" />
            <path
                d="M24,131.825c-6.925,0-12.358-2.694-16.148-8.008-3.3-4.63-5.382-11.3-6.181-19.837C.927,96.016,1.286,86.353,2.74,75.26,5.42,54.81,11.821,29.52,21.251,2.126l.084-.244.248-.073C21.9,1.715,29.507-.5,33.439-.5A5.416,5.416,0,0,1,37.089.805a7.387,7.387,0,0,1,1.643,2.157A210.26,210.26,0,0,1,50.445,29.425a242.217,242.217,0,0,1,9.539,32.848,179.047,179.047,0,0,1,4.169,34.97c.146,12.253-1.342,23.3-4.424,32.834l-.1.316-.331.028C59.13,130.435,42.485,131.825,24,131.825ZM22.112,2.7C12.749,29.935,6.395,55.066,3.731,75.39,2.287,86.409,1.929,96,2.668,103.888c.782,8.355,2.8,14.865,6,19.349a17.687,17.687,0,0,0,6.4,5.623A19.594,19.594,0,0,0,24,130.825c17,0,32.444-1.179,34.879-1.374,2.979-9.359,4.417-20.189,4.273-32.2a178.048,178.048,0,0,0-4.147-34.773,241.216,241.216,0,0,0-9.5-32.711A209.251,209.251,0,0,0,37.851,3.436,4.769,4.769,0,0,0,33.439.5C30.034.5,23.467,2.313,22.112,2.7Z"
                transform="translate(191.187 115.862)" fill="rgba(0,0,0,0)" />
            <path
                d="M34.739,25.279c17.829,35.412.025-11.1,41.667,2.269L63.672,17.273C27.881-5.745,30.526-2.231.412,7.554-4.626,9.192,38.25-.153,34.739,25.279Z"
                transform="translate(241.89 177.94) rotate(115)" fill="#cc7a29" />
            <path
                d="M27.707-.5h0c8.456,0,16.653,4.759,36.233,17.353l.023.015L78.809,28.845l-2.556-.821a45.151,45.151,0,0,0-13.48-2.466,20.257,20.257,0,0,0-6.853,1.084A14.428,14.428,0,0,0,51.34,29.3a21.654,21.654,0,0,0-4.866,6.771c-.994,1.917-1.713,3.3-2.928,3.3-.986,0-1.988-.929-3.46-3.206-1.324-2.05-3.111-5.339-5.793-10.667l-.07-.139.021-.154a16.74,16.74,0,0,0-.259-6.54,11.473,11.473,0,0,0-2.453-4.661c-2.046-2.347-5.2-4.068-9.376-5.115A47.9,47.9,0,0,0,10.663,7.673c-3.738,0-6.952.293-8.872.468-.809.074-1.344.122-1.624.122-.513,0-.635-.282-.661-.45a.55.55,0,0,1,.39-.6c.084-.037.2-.079.361-.131C3.607,5.99,6.573,4.972,9.19,4.074,17.21,1.32,22.509-.5,27.707-.5ZM63.379,17.679C53.4,11.259,46.565,7.019,41.2,4.348,35.781,1.651,31.746.5,27.709.5h0C22.676.5,17.44,2.3,9.515,5.019c-1.746.6-3.647,1.252-5.714,1.944,1.852-.147,4.226-.29,6.863-.29A48.889,48.889,0,0,1,22.4,7.925c4.378,1.1,7.7,2.923,9.887,5.428,2.61,2.995,3.609,6.978,2.97,11.84,2.627,5.213,4.378,8.435,5.67,10.436,1.178,1.824,2.06,2.749,2.62,2.749.608,0,1.272-1.28,2.041-2.762a22.5,22.5,0,0,1,5.1-7.067,15.424,15.424,0,0,1,4.9-2.847,21.248,21.248,0,0,1,7.191-1.143A42.694,42.694,0,0,1,74.1,26.333Z"
                transform="translate(241.89 177.94) rotate(115)" fill="rgba(0,0,0,0)" />
            <path
                d="M8.332,4.949,50.835,0c8.8.015,18.976,4.014,25.365,5.835,1.618.837,3.833,2.816-1.672,3.846s-11.249,2.362-11.5,4.4,3.6,3.365,2.763,6.25q-.839,2.885-17.551-8.64L0,30.591Z"
                transform="matrix(-0.951, 0.309, -0.309, -0.951, 223.859, 213.956)" fill="#efc6a1" />
            <path
                d="M0,39.658c21.508.041,47.82-15.747,89.462-2.378l4-20.007C57.676-5.745,60.32-2.231,30.207,7.554,25.168,9.192,3.511,14.227,0,39.658Z"
                transform="translate(257.913 157.384) rotate(124)" fill="#e88a2d" />
        </g>
        <path
            d="M-2826.535,1618.3a1,1,0,0,1-1-1v-77.252H-2862a1,1,0,0,1-1-1,1,1,0,0,1,1-1h35.465a1,1,0,0,1,1,1V1617.3A1,1,0,0,1-2826.535,1618.3Z"
            transform="translate(2841.322 -1371.182)" fill="#5bb3b3" />
        <path
            d="M963.647,2640.172a24.568,24.568,0,0,0-9.857,4.7,18.634,18.634,0,0,0-8.472-.045,19.379,19.379,0,0,0-11.994,8.391,13.611,13.611,0,0,0-6.946-.225c-7.273,1.638-12.026,8.663-10.617,15.689a12.875,12.875,0,0,0,15.721,9.758,14.145,14.145,0,0,0,3.941-1.534,18.446,18.446,0,0,0,17.352,5.1,19.258,19.258,0,0,0,1.915-.536,23.352,23.352,0,0,0,17.851,3.045,24.525,24.525,0,0,0,12.811-7.459,13.391,13.391,0,0,0,10.409,1.855c7.272-1.639,12.026-8.663,10.616-15.69a12.873,12.873,0,0,0-15.72-9.757q-.328.073-.649.162a22.319,22.319,0,0,0-21.015-14.049A24.314,24.314,0,0,0,963.647,2640.172Z"
            transform="translate(-588.604 -2627.74)" fill="#c0e1e2" />
        <path
            d="M968.993,2639.073h0a23.474,23.474,0,0,1,13.065,3.914,22.06,22.06,0,0,1,8.252,10.041l.238-.055a14.483,14.483,0,0,1,3.177-.356,13.727,13.727,0,0,1,8.465,2.9,12.842,12.842,0,0,1,4.677,7.606,13.453,13.453,0,0,1-2.128,10.244,14.606,14.606,0,0,1-12.046,6.388,13.7,13.7,0,0,1-7.258-2.051,25.1,25.1,0,0,1-18.239,7.911,23.518,23.518,0,0,1-12.573-3.6c-.571.184-1.154.344-1.736.475a19.452,19.452,0,0,1-4.269.478,18.9,18.9,0,0,1-13.281-5.444,14.655,14.655,0,0,1-3.743,1.4,14.488,14.488,0,0,1-3.177.356,13.731,13.731,0,0,1-8.466-2.9,12.844,12.844,0,0,1-4.678-7.606,13.452,13.452,0,0,1,2.129-10.244,14.61,14.61,0,0,1,12.048-6.388,13.922,13.922,0,0,1,3.663.488,20.013,20.013,0,0,1,5.008-5.133,19.66,19.66,0,0,1,11.358-3.641,18.973,18.973,0,0,1,4.194.469,25.128,25.128,0,0,1,15.323-5.255Zm20.711,15.151-.163-.422a21.057,21.057,0,0,0-8.038-9.983,22.477,22.477,0,0,0-12.51-3.746,24.127,24.127,0,0,0-14.893,5.189l-.191.151-.236-.057a17.971,17.971,0,0,0-4.2-.5,18.66,18.66,0,0,0-10.779,3.456,19.037,19.037,0,0,0-4.954,5.172l-.2.315-.359-.108a12.892,12.892,0,0,0-3.732-.548,13.485,13.485,0,0,0-2.959.332c-7,1.576-11.591,8.352-10.237,15.1a11.843,11.843,0,0,0,4.316,7.017,12.726,12.726,0,0,0,7.848,2.683,13.493,13.493,0,0,0,2.957-.332,13.639,13.639,0,0,0,3.8-1.479l.337-.193.271.278a17.9,17.9,0,0,0,12.835,5.414,18.446,18.446,0,0,0,4.049-.454,18.839,18.839,0,0,0,1.865-.522l.228-.077.2.131a22.51,22.51,0,0,0,12.234,3.565,24.1,24.1,0,0,0,17.786-7.894l.289-.319.359.239a12.684,12.684,0,0,0,7.064,2.115,13.471,13.471,0,0,0,2.958-.332c7-1.577,11.59-8.353,10.236-15.1a11.84,11.84,0,0,0-4.315-7.017,12.722,12.722,0,0,0-7.846-2.683,13.487,13.487,0,0,0-2.958.332c-.206.046-.417.1-.626.156Z"
            transform="translate(-588.604 -2627.74)" fill="rgba(0,0,0,0)" />
        <path
            d="M978.665,2705.606a36.1,36.1,0,0,0,14.485-6.9,27.387,27.387,0,0,0,12.449.066,28.476,28.476,0,0,0,17.624-12.33,20,20,0,0,0,10.207.331c10.687-2.407,17.672-12.729,15.6-23.054s-12.414-16.745-23.1-14.338a20.793,20.793,0,0,0-5.791,2.254,27.105,27.105,0,0,0-25.5-7.492,28.3,28.3,0,0,0-2.813.788,34.313,34.313,0,0,0-26.231-4.474,36.037,36.037,0,0,0-18.825,10.96,19.678,19.678,0,0,0-15.3-2.726c-10.686,2.408-17.671,12.73-15.6,23.055s12.413,16.745,23.1,14.337q.481-.108.953-.238c4.825,12.52,17.119,20.643,30.88,20.644A35.718,35.718,0,0,0,978.665,2705.606Z"
            transform="translate(-725.627 -2673.03)" fill="#c0e1e2" />
        <path
            d="M970.809,2706.987h0a34.26,34.26,0,0,1-19.068-5.712,32.177,32.177,0,0,1-12.114-14.835c-.181.046-.362.089-.542.129a21.05,21.05,0,0,1-4.618.518,19.937,19.937,0,0,1-12.294-4.207,18.635,18.635,0,0,1-6.787-11.038,19.078,19.078,0,0,1,.062-7.824,20.113,20.113,0,0,1,3.029-7.052,21.228,21.228,0,0,1,17.506-9.284,19.887,19.887,0,0,1,10.705,3.082,36.655,36.655,0,0,1,26.763-11.691,34.319,34.319,0,0,1,18.443,5.306c.864-.283,1.749-.527,2.635-.726a28.358,28.358,0,0,1,6.221-.7,27.544,27.544,0,0,1,19.474,8.054,21.312,21.312,0,0,1,5.594-2.119,21.05,21.05,0,0,1,4.617-.518,19.942,19.942,0,0,1,12.3,4.207,18.639,18.639,0,0,1,6.788,11.039,19.076,19.076,0,0,1-.063,7.823,20.112,20.112,0,0,1-3.03,7.051,21.238,21.238,0,0,1-17.509,9.284,20.2,20.2,0,0,1-5.482-.754,29.183,29.183,0,0,1-7.395,7.623,28.65,28.65,0,0,1-16.554,5.307,27.655,27.655,0,0,1-6.219-.708,36.688,36.688,0,0,1-22.46,7.741Zm-30.576-21.746.163.423a31.173,31.173,0,0,0,11.9,14.78,33.264,33.264,0,0,0,18.514,5.544,35.306,35.306,0,0,0,7.746-.869,35.6,35.6,0,0,0,14.284-6.807l.191-.151.236.057a26.643,26.643,0,0,0,6.221.736,27.65,27.65,0,0,0,15.975-5.122,28.2,28.2,0,0,0,7.34-7.664l.2-.315.359.108a19.178,19.178,0,0,0,5.552.816,20.189,20.189,0,0,0,16.681-8.844,19.118,19.118,0,0,0,2.88-6.7,18.082,18.082,0,0,0,.06-7.416,17.638,17.638,0,0,0-6.427-10.449,18.936,18.936,0,0,0-11.677-3.993,20.054,20.054,0,0,0-4.4.493,20.287,20.287,0,0,0-5.652,2.2l-.337.193-.271-.278a26.542,26.542,0,0,0-19.029-8.026,27.351,27.351,0,0,0-6,.673,27.922,27.922,0,0,0-2.764.774l-.228.077-.2-.131a33.312,33.312,0,0,0-18.1-5.275,35.306,35.306,0,0,0-7.746.869,35.537,35.537,0,0,0-18.564,10.808l-.289.319-.359-.239a18.872,18.872,0,0,0-10.51-3.148,20.186,20.186,0,0,0-16.678,8.845,19.116,19.116,0,0,0-2.88,6.7,18.085,18.085,0,0,0-.059,7.416,17.636,17.636,0,0,0,6.425,10.449,18.933,18.933,0,0,0,11.675,3.992,20.038,20.038,0,0,0,4.4-.494c.309-.069.622-.147.93-.232Z"
            transform="translate(-725.627 -2673.03)" fill="rgba(0,0,0,0)" />
        <path
            d="M399.616,131.587a14.513,14.513,0,0,0-2.585-8.46c-2.063-2.581-5.362-3.894-9.807-3.894a27.112,27.112,0,0,0-3.046.182,68.1,68.1,0,0,1-7.582.508c-5.07,0-6.839-.961-8.48-2.123l-.01-.007-.159-.113-.057-.042c-1.414-1.007-2.75-1.959-6.8-1.959-.719,0-1.526.031-2.4.092-6.287.448-11.138.9-14.535,1.248a49.794,49.794,0,0,1,8.6-7.64c1.492-1.056,3.06-2.087,4.578-3.083l.041-.027,1.34-.883c.267-.178.606-.443,1-.752a16.859,16.859,0,0,1,2.134-1.514c-8.511,3.364-16.628,6.8-22.43,11.869.662-1.824,1.417-3.728,2.249-5.652A141.928,141.928,0,0,1,348.646,95.2a95.949,95.949,0,0,1,9.178-13.457c-1.887,2.271-3.881,4.556-5.81,6.767-5.835,6.689-11.869,13.6-15.837,21.065.231-1.271.456-2.42.691-3.513,1.422-6.566,3.2-13.03,4.761-18.487.79-2.772,1.681-5.746,2.8-9.36q.231-.742.46-1.483l.027-.085c.351-1.131.713-2.3,1.078-3.451a10.444,10.444,0,0,0,.235-1.03v-.021c.05-.252.1-.512.162-.778-4.9,11.527-9.993,23.845-13.715,36.56-.032.11-.064.221-.1.331a13.1,13.1,0,0,0-1.391-.966,12.819,12.819,0,0,0-2.256-1.075,65.434,65.434,0,0,0-4.1-7.456,37.592,37.592,0,0,0-4.383-5.7,10.853,10.853,0,0,0-1.478-1.219,34.027,34.027,0,0,1,3.446-1.886q-2.137.638-4.283,1.291a12.525,12.525,0,0,1-2.194-1.792q.754.993,1.422,2.032c-1.9.587-3.785,1.194-5.64,1.825a19.152,19.152,0,0,1,1.345-1.754,24.136,24.136,0,0,1,3.376-2.989l.017-.013.043-.034.053-.041.083-.064c.765-.589,1.922-1.478,1.055-2.09a1.112,1.112,0,0,0-.629-.179c-1.334,0-3.33,1.831-4.081,2.52l-.02.019c-.078.072-.185.171-.246.223.173-.171.369-.364.6-.589a28.848,28.848,0,0,0-6.936,5.969c-.331.447-.654.9-.969,1.348a59.756,59.756,0,0,0-10.489,5.3c.852-1.771,1.778-3.513,2.757-5.227a104.316,104.316,0,0,1,19.8-25.515c-4.492,4.077-9.343,8.092-13.888,12.194,1.123-1.156,2.273-2.3,3.4-3.427L307,78.95l.046-.045.085-.085c1.417-1.414,2.883-2.874,4.273-4.338.341-.358.664-.717,1.022-1.114l.017-.018a22.018,22.018,0,0,1,3.483-3.311c.754-.543,1.6-1.091,2.337-1.571l.011-.009.01,0a26.026,26.026,0,0,0,4.127-3.058l-.462.118-.206.052-.387.1-.052.013-.327.084a17.368,17.368,0,0,0-4.912,2.393c-.228.143-.527.338-.836.531-1.081.674-2.266,1.316-3.411,1.936l-.014.009c-1.1.6-2.347,1.275-3.438,1.954-3.5,2.173-6.7,4.479-9.8,6.707l-.076.054-.1.072-.049.035c-.911.656-1.732,1.245-2.55,1.825l-.353.252q1.066-2.977,2.2-5.951c1.094-2.893,2.249-5.774,3.435-8.654.638-1.548,1.269-3.1,1.919-4.643.158-.375.294-1.029.491-1.691-4.621,8.2-9.121,16.41-12.943,24.722q-2.158,1.8-3.953,3.593a43.745,43.745,0,0,0-4.066,4.631,52.792,52.792,0,0,0-3.1-4.634,104.655,104.655,0,0,1,13-20.711c-4.879,5.868-10.276,11.615-14.912,17.627l-.006-.038c.089-.291.189-.591.3-.915,2.758-7.761,10.074-14.321,16.869-19.717,1.113-.885,2.3-1.81,3.347-2.626l.035-.029.007,0,.229-.179.018-.014.011-.01.007,0c6.134-4.782,12.476-9.728,16.619-15.262A17.191,17.191,0,0,0,318,41.1a.9.9,0,0,0-.182-.018.6.6,0,0,0-.38.123C311.359,47.028,303.164,52.1,295.239,57l-.011.006h-.006a189.238,189.238,0,0,0-17.436,11.681q.607-2.013,1.234-4.024c.52-1.673,1.035-3.348,1.566-5.019.129-.406.239-1.113.4-1.83-1.724,4.057-3.428,8.116-5.068,12.188l-1.04-13.949-.116-.034-.014,0-.034-.01-.166-.048-.039-.012-.129-.037c-3.214,3.459-3.511,7.17-3.354,10.661a57.668,57.668,0,0,1-.217,8.505l-.035.038-.014.016-.029.032-.018.022-.048.051q-1.446,1.6-2.687,3.276a10.575,10.575,0,0,1-1.825-1.192q.8.789,1.515,1.615a36.944,36.944,0,0,0-5.491,11.013q-.759-1.44-1.6-2.853c-2.791-9.727-5.632-20.019-5.87-21.515-.144-.908-.34-1.84-.512-2.664v-.049a27.346,27.346,0,0,1-.776-5.7v-.3c.067-9.956-.414-15.266-1.429-15.778a79.073,79.073,0,0,1-2.839,8.024l-.008.023-.011.027a71.177,71.177,0,0,0-2.688,7.614c-.6,3.206-1.841,9.039-3.277,15.795l-.02.088-.01.049c-1.393,6.551-3.126,14.7-4.532,21.72-2.018-6.668-2.652-13.526-3.171-20.55-.115-1.545-.164-3.107-.208-4.485v-.1c-.069-2.068-.138-4.209-.383-6.314-.011-.1-.024-.28-.038-.541V62.4a23.415,23.415,0,0,0-.629-4.581l-.071,73.8M304.3,110.685a53.578,53.578,0,0,1,3.227-8.723c.287-.657.625-1.434.961-2.223l.119-.287v-.005c.412-.975.829-1.963,1.3-2.95q.674-.377,1.365-.748c2.158-1.151,4.408-2.254,6.64-3.365a68.07,68.07,0,0,1,5.608,12.984,25.482,25.482,0,0,0-7.963,1.569,39.085,39.085,0,0,0-8.789-3.206,43.946,43.946,0,0,1,6.764,3.979,67.4,67.4,0,0,1-9.232,2.975Zm-6.179-4.829-.01.013-.014.019-.024.03c-.716.911-1.527,1.945-2.292,2.963q-.105-.462-.2-.926a47.205,47.205,0,0,1,4.3-4.389l.07-.063C299.329,104.317,298.705,105.109,298.119,105.856Z"
            transform="translate(-246.789 188.383)" fill="#bfe2e2" />
        <g transform="translate(-0.768 21.073)">
            <g transform="translate(2975.764 -1685)">
                <path
                    d="M39.987,155.859h0a163.157,163.157,0,0,1-21.918-1.272c-7.455-1.034-13.033-2.7-16.578-4.958A45.128,45.128,0,0,1,.244,133.311c.525-5.659,1.888-12.113,3.614-20.285q.2-.968.416-1.972a132.287,132.287,0,0,1,22.031-10.568c6.857-2.59,12.858-4.339,16.829-5.5,3-.874,4.808-1.4,5.082-1.724C74.521,66.148,87.7,53.416,96.849,46.291a51.126,51.126,0,0,1,11.725-7.232,54.69,54.69,0,0,1,10.455-2.935c16.7.094,33.137.142,48.861.142,4.063,0,8.15,0,12.145-.009V154.114H72.721C72.565,154.132,56.881,155.859,39.987,155.859Z"
                    transform="translate(-2724.535 1765)" fill="#ffd964" />
                <path
                    d="M-1746.5,2208.619s41.148-43.785,43.395-44.8,28.867-5.762,31.062-3.538-2.032,32.231-4.9,35.159S-1746.5,2208.619-1746.5,2208.619Z"
                    transform="translate(-928.515 -340.543)" fill="#313e58" />
                <path
                    d="M33.516-1.207c.5,7.685-2.733,31.179-5.027,33.784C27.154,34.1,9.45,37.263-7.741,40.026l-3.695.121Z"
                    transform="translate(-2633.517 1822.754)" fill="#7a8293" />
                <rect width="14.693" height="3.391" rx="1.695"
                    transform="matrix(0.998, -0.07, 0.07, 0.998, -2621.856, 1869.52)" fill="#313e58" />
                <rect width="14.693" height="3.391" rx="1.695"
                    transform="matrix(0.998, -0.07, 0.07, 0.998, -2597.052, 1867.785)"
                    fill="#313e58" />
                <path d="M3.311,142.4v0h0L0,129.7l124.793-5.8v13.251l-21.955-.2Z"
                    transform="translate(-2669.793 1765)" fill="#7a8293" />
                <path d="M80.555,156.714H0v-2.57l121.847-.247,2.946-.006v2.785Z"
                    transform="translate(-2669.793 1765)" fill="#313e58" />
                <path
                    d="M.028,26.931Q0,26.325,0,25.713a25.713,25.713,0,1,1,51.425,0c0,.151,0,.3,0,.452-2.778.291-16.93,1.692-32.245,1.692A176.212,176.212,0,0,1,.028,26.931Z"
                    transform="translate(-2703.728 1893.001)" fill="#313e58" />
                <g transform="translate(-2975 1684)">
                    <circle cx="20" cy="20" r="20" transform="translate(277 215)" fill="#313e58" />
                    <circle cx="11" cy="11" r="11" transform="translate(286 224)" fill="#ffd964" />
                    <circle cx="8" cy="8" r="8" transform="translate(289 227)" fill="#7a8293" />
                    <path
                        d="M8,0a8,8,0,1,0,8,8A8,8,0,0,0,8,0M8-2A10,10,0,1,1-2,8,10.011,10.011,0,0,1,8-2Z"
                        transform="translate(289 227)" fill="#7a8293" />
                    <circle cx="2.5" cy="2.5" r="2.5" transform="translate(295 233)" fill="#313e58" />
                </g>
            </g>
            <path
                d="M-1823.262,2251.02h5.451s.361,17.424-.537,18.366-10.085.678-10.668,0C-1827.569,2255.558-1823.262,2251.02-1823.262,2251.02Z"
                transform="translate(2080.693 -2058.844)" fill="#7a8293" />
            <path
                d="M-1823.262,2251.02h5.451s.361,16.269-.537,17.149-7.935.633-8.518,0C-1825.419,2255.257-1823.262,2251.02-1823.262,2251.02Z"
                transform="translate(2078.693 -2058.844)" fill="#edc95a" />
        </g>
    </g>
</svg>