<svg xmlns="http://www.w3.org/2000/svg" xmlns:xlink="http://www.w3.org/1999/xlink" width="400"
    height="320" viewBox="0 0 400 320">
    <defs>
        <clipPath>
            <rect width="400" height="320" />
        </clipPath>
    </defs>
    <g clip-path="url(#b)">
        <rect width="400" height="59.514" transform="translate(0 260.486)" fill="#bfe2e2" />
        <g transform="translate(1.176 12.986)">
            <path
                d="M0,0V57H61V0H0M0-2H61a2,2,0,0,1,2,2V57a2,2,0,0,1-2,2H0a2,2,0,0,1-2-2V0A2,2,0,0,1,0-2Z"
                transform="translate(5 184)" fill="#5bb3b3" />
            <path d="M0,38a1,1,0,0,1-1-1V0A1,1,0,0,1,0-1,1,1,0,0,1,1,0V37A1,1,0,0,1,0,38Z"
                transform="translate(35.5 194.5)" fill="#5bb3b3" />
            <path
                d="M-2310.214-1092a1,1,0,0,1-1-1v-8.743h-12.047V-1093a1,1,0,0,1-1,1,1,1,0,0,1-1-1v-9.743a1,1,0,0,1,1-1h14.047a1,1,0,0,1,1,1V-1093A1,1,0,0,1-2310.214-1092Z"
                transform="translate(2352.761 1334)" fill="#5bb3b3" />
            <path
                d="M-2310.214-1092h-14.047a1,1,0,0,1-1-1v-9.743a1,1,0,0,1,1-1,1,1,0,0,1,1,1V-1094h12.047v-8.743a1,1,0,0,1,1-1,1,1,0,0,1,1,1V-1093A1,1,0,0,1-2310.214-1092Z"
                transform="translate(2352.761 1287.5)" fill="#5bb3b3" />
        </g>
        <g transform="translate(328.176 12.986)">
            <path
                d="M0,0V57H61V0H0M0-2H61a2,2,0,0,1,2,2V57a2,2,0,0,1-2,2H0a2,2,0,0,1-2-2V0A2,2,0,0,1,0-2Z"
                transform="translate(5 184)" fill="#5bb3b3" />
            <path d="M0,38a1,1,0,0,1-1-1V0A1,1,0,0,1,0-1,1,1,0,0,1,1,0V37A1,1,0,0,1,0,38Z"
                transform="translate(35.5 194.5)" fill="#5bb3b3" />
            <path
                d="M-2310.214-1092a1,1,0,0,1-1-1v-8.743h-12.047V-1093a1,1,0,0,1-1,1,1,1,0,0,1-1-1v-9.743a1,1,0,0,1,1-1h14.047a1,1,0,0,1,1,1V-1093A1,1,0,0,1-2310.214-1092Z"
                transform="translate(2352.761 1334)" fill="#5bb3b3" />
            <path
                d="M-2310.214-1092h-14.047a1,1,0,0,1-1-1v-9.743a1,1,0,0,1,1-1,1,1,0,0,1,1,1V-1094h12.047v-8.743a1,1,0,0,1,1-1,1,1,0,0,1,1,1V-1093A1,1,0,0,1-2310.214-1092Z"
                transform="translate(2352.761 1287.5)" fill="#5bb3b3" />
        </g>
        <g transform="translate(259.176 12.986)">
            <path
                d="M0,0V57H61V0H0M0-2H61a2,2,0,0,1,2,2V57a2,2,0,0,1-2,2H0a2,2,0,0,1-2-2V0A2,2,0,0,1,0-2Z"
                transform="translate(5 184)" fill="#5bb3b3" />
            <path d="M0,38a1,1,0,0,1-1-1V0A1,1,0,0,1,0-1,1,1,0,0,1,1,0V37A1,1,0,0,1,0,38Z"
                transform="translate(35.5 194.5)" fill="#5bb3b3" />
            <path
                d="M-2310.214-1092a1,1,0,0,1-1-1v-8.743h-12.047V-1093a1,1,0,0,1-1,1,1,1,0,0,1-1-1v-9.743a1,1,0,0,1,1-1h14.047a1,1,0,0,1,1,1V-1093A1,1,0,0,1-2310.214-1092Z"
                transform="translate(2352.761 1334)" fill="#5bb3b3" />
            <path
                d="M-2310.214-1092h-14.047a1,1,0,0,1-1-1v-9.743a1,1,0,0,1,1-1,1,1,0,0,1,1,1V-1094h12.047v-8.743a1,1,0,0,1,1-1,1,1,0,0,1,1,1V-1093A1,1,0,0,1-2310.214-1092Z"
                transform="translate(2352.761 1287.5)" fill="#5bb3b3" />
        </g>
        <g transform="translate(188.824 -160.014)">
            <path
                d="M0,0V57H61V0H0M0-2H61a2,2,0,0,1,2,2V57a2,2,0,0,1-2,2H0a2,2,0,0,1-2-2V0A2,2,0,0,1,0-2Z"
                transform="translate(5 184)" fill="#5bb3b3" />
            <path d="M0,38a1,1,0,0,1-1-1V0A1,1,0,0,1,0-1,1,1,0,0,1,1,0V37A1,1,0,0,1,0,38Z"
                transform="translate(35.5 194.5)" fill="#5bb3b3" />
            <path
                d="M-2310.214-1092a1,1,0,0,1-1-1v-8.743h-12.047V-1093a1,1,0,0,1-1,1,1,1,0,0,1-1-1v-9.743a1,1,0,0,1,1-1h14.047a1,1,0,0,1,1,1V-1093A1,1,0,0,1-2310.214-1092Z"
                transform="translate(2352.761 1334)" fill="#5bb3b3" />
            <path
                d="M-2310.214-1092h-14.047a1,1,0,0,1-1-1v-9.743a1,1,0,0,1,1-1,1,1,0,0,1,1,1V-1094h12.047v-8.743a1,1,0,0,1,1-1,1,1,0,0,1,1,1V-1093A1,1,0,0,1-2310.214-1092Z"
                transform="translate(2352.761 1287.5)" fill="#5bb3b3" />
        </g>
        <g transform="translate(265.824 -160.014)">
            <path
                d="M0,0V57H61V0H0M0-2H61a2,2,0,0,1,2,2V57a2,2,0,0,1-2,2H0a2,2,0,0,1-2-2V0A2,2,0,0,1,0-2Z"
                transform="translate(5 184)" fill="#5bb3b3" />
            <path d="M0,38a1,1,0,0,1-1-1V0A1,1,0,0,1,0-1,1,1,0,0,1,1,0V37A1,1,0,0,1,0,38Z"
                transform="translate(35.5 194.5)" fill="#5bb3b3" />
            <path
                d="M-2310.214-1092a1,1,0,0,1-1-1v-8.743h-12.047V-1093a1,1,0,0,1-1,1,1,1,0,0,1-1-1v-9.743a1,1,0,0,1,1-1h14.047a1,1,0,0,1,1,1V-1093A1,1,0,0,1-2310.214-1092Z"
                transform="translate(2352.761 1334)" fill="#5bb3b3" />
            <path
                d="M-2310.214-1092h-14.047a1,1,0,0,1-1-1v-9.743a1,1,0,0,1,1-1,1,1,0,0,1,1,1V-1094h12.047v-8.743a1,1,0,0,1,1-1,1,1,0,0,1,1,1V-1093A1,1,0,0,1-2310.214-1092Z"
                transform="translate(2352.761 1287.5)" fill="#5bb3b3" />
        </g>
        <g transform="translate(344.824 -160.014)">
            <path
                d="M0,0V57H61V0H0M0-2H61a2,2,0,0,1,2,2V57a2,2,0,0,1-2,2H0a2,2,0,0,1-2-2V0A2,2,0,0,1,0-2Z"
                transform="translate(5 184)" fill="#5bb3b3" />
            <path d="M0,38a1,1,0,0,1-1-1V0A1,1,0,0,1,0-1,1,1,0,0,1,1,0V37A1,1,0,0,1,0,38Z"
                transform="translate(35.5 194.5)" fill="#5bb3b3" />
            <path
                d="M-2310.214-1092a1,1,0,0,1-1-1v-8.743h-12.047V-1093a1,1,0,0,1-1,1,1,1,0,0,1-1-1v-9.743a1,1,0,0,1,1-1h14.047a1,1,0,0,1,1,1V-1093A1,1,0,0,1-2310.214-1092Z"
                transform="translate(2352.761 1334)" fill="#5bb3b3" />
            <path
                d="M-2310.214-1092h-14.047a1,1,0,0,1-1-1v-9.743a1,1,0,0,1,1-1,1,1,0,0,1,1,1V-1094h12.047v-8.743a1,1,0,0,1,1-1,1,1,0,0,1,1,1V-1093A1,1,0,0,1-2310.214-1092Z"
                transform="translate(2352.761 1287.5)" fill="#5bb3b3" />
        </g>
        <g transform="translate(1.176 14.986)">
            <path
                d="M0,0V57H61V0H0M0-2H61a2,2,0,0,1,2,2V57a2,2,0,0,1-2,2H0a2,2,0,0,1-2-2V0A2,2,0,0,1,0-2Z"
                transform="translate(77 184)" fill="#5bb3b3" />
            <path d="M0,38a1,1,0,0,1-1-1V0A1,1,0,0,1,0-1,1,1,0,0,1,1,0V37A1,1,0,0,1,0,38Z"
                transform="translate(107.5 194.5)" fill="#5bb3b3" />
            <path
                d="M-2310.214-1092a1,1,0,0,1-1-1v-8.743h-12.047V-1093a1,1,0,0,1-1,1,1,1,0,0,1-1-1v-9.743a1,1,0,0,1,1-1h14.047a1,1,0,0,1,1,1V-1093A1,1,0,0,1-2310.214-1092Z"
                transform="translate(2424.761 1334)" fill="#5bb3b3" />
            <path
                d="M-2310.214-1092h-14.047a1,1,0,0,1-1-1v-9.743a1,1,0,0,1,1-1,1,1,0,0,1,1,1V-1094h12.047v-8.743a1,1,0,0,1,1-1,1,1,0,0,1,1,1V-1093A1,1,0,0,1-2310.214-1092Z"
                transform="translate(2424.761 1287.5)" fill="#5bb3b3" />
        </g>
        <g transform="translate(-94.443 -68.451)">
            <path
                d="M0,0V56.71H77.4V0H0M0-2H77.4a2,2,0,0,1,2,2V56.71a2,2,0,0,1-2,2H0a2,2,0,0,1-2-2V0A2,2,0,0,1,0-2Z"
                transform="translate(77 183.727)" fill="#5bb3b3" />
            <path
                d="M0,20.727a1,1,0,0,1-1-1V0A1,1,0,0,1,0-1,1,1,0,0,1,1,0V19.727A1,1,0,0,1,0,20.727Z"
                transform="translate(115.698 203.38)" fill="#5bb3b3" />
            <path
                d="M-2310.214-1092a1,1,0,0,1-1-1v-8.743h-12.047V-1093a1,1,0,0,1-1,1,1,1,0,0,1-1-1v-9.743a1,1,0,0,1,1-1h14.047a1,1,0,0,1,1,1V-1093A1,1,0,0,1-2310.214-1092Z"
                transform="translate(2432.967 1333.438)" fill="#5bb3b3" />
            <path
                d="M-2310.214-1092h-14.047a1,1,0,0,1-1-1v-9.743a1,1,0,0,1,1-1,1,1,0,0,1,1,1V-1094h12.047v-8.743a1,1,0,0,1,1-1,1,1,0,0,1,1,1V-1093A1,1,0,0,1-2310.214-1092Z"
                transform="translate(2432.967 1287.5)" fill="#5bb3b3" />
        </g>
        <g transform="translate(240.176 -82.46)">
            <path
                d="M0,0V70H77V0H0M0-2H77a2,2,0,0,1,2,2V70a2,2,0,0,1-2,2H0a2,2,0,0,1-2-2V0A2,2,0,0,1,0-2Z"
                transform="translate(77 184.447)" fill="#5bb3b3" />
            <path
                d="M0,51.447a1,1,0,0,1-1-1V0A1,1,0,0,1,0-1,1,1,0,0,1,1,0V50.447A1,1,0,0,1,0,51.447Z"
                transform="translate(115.5 194.5)" fill="#5bb3b3" />
            <path
                d="M-2310.214-1092a1,1,0,0,1-1-1v-8.743h-12.047V-1093a1,1,0,0,1-1,1,1,1,0,0,1-1-1v-9.743a1,1,0,0,1,1-1h14.047a1,1,0,0,1,1,1V-1093A1,1,0,0,1-2310.214-1092Z"
                transform="translate(2432.769 1347.447)" fill="#5bb3b3" />
            <path
                d="M-2310.214-1092h-14.047a1,1,0,0,1-1-1v-9.743a1,1,0,0,1,1-1,1,1,0,0,1,1,1V-1094h12.047v-8.743a1,1,0,0,1,1-1,1,1,0,0,1,1,1V-1093A1,1,0,0,1-2310.214-1092Z"
                transform="translate(2432.769 1287.5)" fill="#5bb3b3" />
        </g>
        <g transform="translate(-70.824 -173.46)">
            <path
                d="M0,0V70H77V0H0M0-2H77a2,2,0,0,1,2,2V70a2,2,0,0,1-2,2H0a2,2,0,0,1-2-2V0A2,2,0,0,1,0-2Z"
                transform="translate(77 184.447)" fill="#5bb3b3" />
            <path
                d="M0,51.447a1,1,0,0,1-1-1V0A1,1,0,0,1,0-1,1,1,0,0,1,1,0V50.447A1,1,0,0,1,0,51.447Z"
                transform="translate(115.5 194.5)" fill="#5bb3b3" />
            <path
                d="M-2310.214-1092a1,1,0,0,1-1-1v-8.743h-12.047V-1093a1,1,0,0,1-1,1,1,1,0,0,1-1-1v-9.743a1,1,0,0,1,1-1h14.047a1,1,0,0,1,1,1V-1093A1,1,0,0,1-2310.214-1092Z"
                transform="translate(2432.769 1347.447)" fill="#5bb3b3" />
            <path
                d="M-2310.214-1092h-14.047a1,1,0,0,1-1-1v-9.743a1,1,0,0,1,1-1,1,1,0,0,1,1,1V-1094h12.047v-8.743a1,1,0,0,1,1-1,1,1,0,0,1,1,1V-1093A1,1,0,0,1-2310.214-1092Z"
                transform="translate(2432.769 1287.5)" fill="#5bb3b3" />
        </g>
        <g transform="translate(23 -173.46)">
            <path
                d="M0,0V70H77V0H0M0-2H77a2,2,0,0,1,2,2V70a2,2,0,0,1-2,2H0a2,2,0,0,1-2-2V0A2,2,0,0,1,0-2Z"
                transform="translate(77 184.447)" fill="#5bb3b3" />
            <path
                d="M0,51.447a1,1,0,0,1-1-1V0A1,1,0,0,1,0-1,1,1,0,0,1,1,0V50.447A1,1,0,0,1,0,51.447Z"
                transform="translate(115.5 194.5)" fill="#5bb3b3" />
            <path
                d="M-2310.214-1092a1,1,0,0,1-1-1v-8.743h-12.047V-1093a1,1,0,0,1-1,1,1,1,0,0,1-1-1v-9.743a1,1,0,0,1,1-1h14.047a1,1,0,0,1,1,1V-1093A1,1,0,0,1-2310.214-1092Z"
                transform="translate(2432.769 1347.447)" fill="#5bb3b3" />
            <path
                d="M-2310.214-1092h-14.047a1,1,0,0,1-1-1v-9.743a1,1,0,0,1,1-1,1,1,0,0,1,1,1V-1094h12.047v-8.743a1,1,0,0,1,1-1,1,1,0,0,1,1,1V-1093A1,1,0,0,1-2310.214-1092Z"
                transform="translate(2432.769 1287.5)" fill="#5bb3b3" />
        </g>
        <path d="M400,1H0A1,1,0,0,1-1,0,1,1,0,0,1,0-1H400a1,1,0,0,1,1,1A1,1,0,0,1,400,1Z"
            transform="translate(-0.324 260.486)" fill="#5bb3b3" />
        <path d="M400,1H0A1,1,0,0,1-1,0,1,1,0,0,1,0-1H400a1,1,0,0,1,1,1A1,1,0,0,1,400,1Z"
            transform="translate(-0.324 177.986)" fill="#5bb3b3" />
        <path d="M400,1H0A1,1,0,0,1-1,0,1,1,0,0,1,0-1H400a1,1,0,0,1,1,1A1,1,0,0,1,400,1Z"
            transform="translate(-0.324 86.986)" fill="#5bb3b3" />
        <g transform="translate(-62.696 -4.056)">
            <path
                d="M36.056,12.96C38.379,9.648,42.69,1.235,45.959.052c2.106-.762,1.492,7.124,1.518,8.627a126.047,126.047,0,0,1-1.164,17.367c-1.26,10.4-5.38,19.669-11.032,28.524-2.908,4.556-6.319,9.168-11.043,12.011-2.175,1.309-2.564,1.658-4.711,2.786-2.5,1.313-2.218,4.861-3.345,7.467C14.616,80.453.867,195.662,2.263,213.691c.124,1.6-2.1,1.98-2.215.029-.591-10.344,4.525-81.975,7.106-105.4S12.346,64.2,14.965,56.1c3.177-9.832,8.916-21.657,13.692-30.826A109.032,109.032,0,0,1,36.056,12.96Z"
                transform="translate(63.226 48.647)" fill="#bfe2e2" />
            <path
                d="M55.509,1.259C61.554-3.179,68.1,5.2,62.628,9.636a5.479,5.479,0,0,1-7.965-.464c-1.155,1.408-2.237,2.881-3.276,4.125-3.166,3.79-6.158,7.671-9.017,11.642-5.94,8.25-11.031,16.965-16.354,25.521C20.762,58.9,15.551,67.391,10.79,76.05,6.757,83.386,1.381,92.016,0,100.058,2.1,83,10.046,66.608,19.513,51.572,28.9,36.659,39.68,20.372,54.22,8.6A5.15,5.15,0,0,1,55.509,1.259Z"
                transform="translate(61.014 175.24)" fill="#bfe2e2" />
            <path
                d="M1.058.017c3.383.662,8.91,8.314,11.7,11.229A109.205,109.205,0,0,1,21.91,22.273a186.5,186.5,0,0,1,16.2,26.418,245.551,245.551,0,0,1,18.021,46.9A193.464,193.464,0,0,1,61.6,126.352c.2,1.948,2.237,16.964-.705,17.369-2.646.364-1.829-11.4-1.957-13-1.443-18.058-5.767-35.627-11.78-52.648-1.31-3.708-2.527-8.249-4.622-11.585-1.509-2.4-.011-1.565-2.662-2.475-2.276-.781-4.87-.59-7.2-1.547C27.6,60.387,23.55,56.355,20,52.3,13.088,44.419,7.614,35.893,4.761,25.794a127.616,127.616,0,0,1-3.844-17C.708,7.3-1.121-.409,1.058.017Z"
                transform="translate(0.759 134.885)" fill="#bfe2e2" />
            <path
                d="M7.773,7.582A306.545,306.545,0,0,1,37.747,78.541c4.1,14.9,6.961,30.182,9.808,45.358,4.407,23.5,8.576,46.993,9.762,70.908,1.193,24.053,3.552,51.8-4.324,74.963,3.934-23.521.189-48.557-.475-72.224-.317-11.3-1.235-22.486-2.44-33.718-1.169-10.9-3.079-21.74-4.858-32.55q-1.3-7.9-2.7-15.776c-.277-1.568-.393-6.219-1.388-7.29s-6.107-1.517-7.71-2.308a41.393,41.393,0,0,1-8.952-6.246A71.507,71.507,0,0,1,11.3,83.182C3.113,69.523-.159,52.854.006,37.035.038,33.963,4.977.89,2.993.435Q3.173.225,3.332,0,5.585,3.772,7.773,7.582Z"
                transform="translate(7.392 0)" fill="#bfe2e2" />
            <path
                d="M91.128,2.149c.2-.284,1.476-2.256.832-2.13,1.312-.257-1.8,2.175,1.464.683-1.552,1.466-.656,3.37-.636,5.343a47.847,47.847,0,0,1-1.105,9.514,65.244,65.244,0,0,1-4.435,14.38A64.438,64.438,0,0,1,66.07,55.928c-4.471,3.1-8.853,4.155-13.952,5.582-3.221.9-3.476,2.568-5.186,5.693-3.559,6.51-7.055,13-10.194,19.726-3.748,8.036-7.387,16.08-10.819,24.257C14.356,138.731,4.945,167.267,0,196.8c-.121-17.4,3.9-35.327,8.983-51.915a309.846,309.846,0,0,1,13.651-35.268c1.245-2.794,3.131-6.388,3.659-9.472.37-2.161-.761-4.24-1.279-6.516a68.187,68.187,0,0,1-.1-27.711c1.956-9.828,7.611-14.39,17.178-15.782,3.5-.509,7.946-.323,11.154-1.814,3.5-1.625,4.937-6.964,6.925-10.392a141.334,141.334,0,0,1,18.965-25.8,61.52,61.52,0,0,1,6.486-5.967C87.074,5,90.139,3.577,91.128,2.149Z"
                transform="translate(61.567 85.132)" fill="#bfe2e2" />
            <path
                d="M.829,5.448C.516,2.577,2.159,0,4.3,0H47.424c2.143,0,3.786,2.577,3.473,5.448L47.564,36.054C46.548,45.384,40.636,52.3,33.672,52.3H18.054c-6.964,0-12.876-6.912-13.892-16.242Z"
                transform="translate(40.127 229.788)" fill="#bfe2e2" />
            <path
                d="M-3701.933-6915.463s3.765-.582,3.76-.861c-.871-31.483-8.76-108.765-25.195-122.571-23.511-19.752-37.371-24.231-37.371-24.231s9.269,30.275,26.862,48.11,21.406,23.278,25.225,24.643C-3706.456-6983.419-3701.933-6915.463-3701.933-6915.463Z"
                transform="translate(3760.738 7159.025)" fill="#bfe2e2" />
        </g>
        <g transform="translate(0 -2)">
            <g transform="translate(2330.434 -2605.649)">
                <path
                    d="M-1704.542,1964.583l-53.665,1.924s-11.344,2.665-17.67,11.793,0,57.371,0,57.371,4.309,5.1,7.479,5.233c2.625.108,88.813.037,118.413.009l9.814-.009h54.676l-4.486-43.691-25.231-5.535-5.054-11.56h-60.51Z"
                    transform="translate(-502.657 830.283)" fill="#ffd964" />
                <path
                    d="M44.747,76.379c-22.059,0-33.718-.019-34.653-.058a5.614,5.614,0,0,1-2.506-.873,16.067,16.067,0,0,1-2.422-1.793,27.216,27.216,0,0,1-2.551-2.567v0c-.052-.4-.524-4.06-1.067-9.392C1.023,56.557.33,48.821,0,41.131c1.778.987,6.094,3.323,7.789,3.687a9.31,9.31,0,0,0,1.949.149c.709,0,1.608-.028,2.746-.063.5-.016,1.067-.033,1.693-.051,1.747-.049,4.512-.114,8.328-.114,2.452,0,5.106.027,7.888.08A35.192,35.192,0,0,1,38.178,46.1a26.694,26.694,0,0,1,6.193,2.657,24.1,24.1,0,0,1,4.779,3.724,25.767,25.767,0,0,1,3.543,4.485,33.834,33.834,0,0,1,4.091,10.024,49.05,49.05,0,0,1,1.286,9.386Zm84.09-.049h0c1.435-5.338,3.239-11.966,3.69-13.233.781-2.2,2.528-17.116,2.545-17.266l-.028,0c-2.239.172-22.183,1.679-32.873,1.679-.534,0-1.043,0-1.512-.011.159-.538-55.2-39.827-55.756-40.223L50.535.84,73.951,0,97.715,15.535h60.511l5.054,11.56,25.231,5.535L193,76.321H138.321Z"
                    transform="translate(-2281.149 2794.866)" fill="#7a8293" />
                <path
                    d="M-1668.6,1967.631l34.879-.923s26.743,9.265,27.656,22.024c.027.376-2.871,2.7-10.667,10.487s-16.989,2.633-16.989,2.633l-29.761-24.047-5.118-10.174Z"
                    transform="translate(-569.313 826.502)" fill="#313e58" />
                <path
                    d="M.447,42.007S-.388,26.662.224,19.992c.7-7.613,1.546-14.223,2.042-16.624,1.182-5.724,9.08-3.067,9.076,0C11.333,10.332,4.6,42.337,4.6,42.337Z"
                    transform="matrix(0.934, -0.358, 0.358, 0.934, -2183.201, 2799.368)"
                    fill="#b28b67" />
                <path
                    d="M.59,41.953C.261,38.093-.351,24.728.261,18.543.96,11.481,1.808,5.351,2.3,3.124c1.182-5.309,9.08-2.845,9.076,0-.009,6.459-6.364,36.9-6.7,38.822S.8,44.379.59,41.953Z"
                    transform="translate(-2181.852 2805.855) rotate(-41)" fill="#b28b67" />
                <g transform="translate(-2170.268 2835.399) rotate(-11)">
                    <path
                        d="M1.472,1.547a.658.658,0,0,0-.844.444L0,4.2A21.137,21.137,0,0,0,.3,6.8H18.854s.723-2.391-.835-2.582-2.589-.344-2.589-.344L6.8.029A.329.329,0,0,0,6.366.2L5.812,1.549a7.457,7.457,0,0,1-2.345.673Z"
                        transform="translate(0 0)" fill="#7468b4" />
                </g>
                <g transform="matrix(0.839, -0.545, 0.545, 0.839, -2156.869, 2834.613)">
                    <path
                        d="M1.472,1.547a.658.658,0,0,0-.844.444L0,4.2A21.137,21.137,0,0,0,.3,6.8H18.854s.723-2.391-.835-2.582-2.589-.344-2.589-.344L6.8.029A.329.329,0,0,0,6.366.2L5.812,1.549a7.457,7.457,0,0,1-2.345.673Z"
                        transform="translate(0 0)" fill="#7468b4" />
                </g>
                <g transform="translate(-2213.488 2724.535)">
                    <g transform="translate(0.955 0.955)">
                        <path
                            d="M0,32.47,3.663,15.341A12.073,12.073,0,0,1,.468,6.683C1.135-2.836,14.343-.742,16.913,4.063s2.264,16.991-1.056,17.85c-1.324.342-4.146-.5-7.017-2.233l1.8,12.791Z"
                            transform="translate(0 0)" fill="#b28b67" />
                    </g>
                    <path
                        d="M4.417,16.713h0a2.606,2.606,0,0,1-1.5-.91A9.188,9.188,0,0,1,1.493,13.7,13.393,13.393,0,0,1,0,7.917,7.306,7.306,0,0,1,2.487,2.366,10.715,10.715,0,0,1,9.717,0a15.058,15.058,0,0,1,3.625.4,7.814,7.814,0,0,1,2.441,1.028A3.87,3.87,0,0,1,17.668,4.4c-2.175.6-5.941.884-11.515.884-.417,0-.853,0-1.294,0v.44l5.3.44L11.042,8.8c-.067,0-.137-.008-.208-.008a2.7,2.7,0,0,0-1.7.616,5.773,5.773,0,0,0-1.3,1.532,2.13,2.13,0,0,0-1.206-.381,2.176,2.176,0,0,0-1.562.681,2.211,2.211,0,0,0-.647,1.518,2.62,2.62,0,0,0,1.337,2.44c-.491.956-.9,1.424-1.337,1.519Z"
                        transform="translate(0)" fill="#313e58" />
                </g>
                <path
                    d="M.757,0,12.889,4.728a28.251,28.251,0,0,1,7.633.923c.542.28,1.284.943-.56,1.289s-3.769.791-3.853,1.475,1.207,1.127.926,2.094q-.281.967-5.88-2.895L0,6.14Z"
                    transform="translate(-2196.175 2774.956) rotate(4)" fill="#997659" />
                <path
                    d="M1.811,2.094A28.061,28.061,0,0,0,17.356,0l1.428,5.273C14.3,8.507,8.344,10.805,3.6,9.916A4.361,4.361,0,0,1,1.811,2.094Z"
                    transform="translate(-2197.363 2766.928) rotate(45)" fill="#7468b4" />
                <g transform="translate(-2118.537 2713.963)">
                    <path
                        d="M-1283.267,1753c.844,1.882,0,123.561,0,123.561s-1.715,6.1,5.3,6.1h93.6s-89.633-1.112-91.491-4.763S-1283.267,1753-1283.267,1753Z"
                        transform="translate(1323.387 -1748.087)" fill="#313e58" />
                    <path
                        d="M-1283.266,1751a2,2,0,0,1,1.824,1.182c.2.436.3.677.4,5.587.519,11.12,1.879,39.778,3.318,66.276.809,14.911,1.523,26.924,2.122,35.706.791,11.6,1.245,15.516,1.47,16.832a31.171,31.171,0,0,0,4.605.793c2.738.333,6.464.654,11.072.956,7.8.511,18.219.973,30.964,1.372,21.72.681,42.934.949,43.146.952a2,2,0,0,1,1.975,2.012,2,2,0,0,1-2,1.988h-93.6a9.664,9.664,0,0,1-3.754-.669,5.972,5.972,0,0,1-2.486-1.895,7.251,7.251,0,0,1-1.057-5.777c.036-5.259.647-96.325.224-118.415-.143-3.069-.223-4.81-.223-4.81a2,2,0,0,1,1.535-2.037A2,2,0,0,1-1283.266,1751Zm8.926,129.657c-1.968-.446-2.86-.983-3.3-1.856-.318-.624-.753-1.479-1.876-17.706-.444-6.411-.952-14.644-1.518-24.566-.1,21.906-.225,39.634-.228,40.045a1.775,1.775,0,0,1-.072.518,3.522,3.522,0,0,0,.328,2.6c.616.8,1.995.967,3.042.967Z"
                        transform="translate(1323.387 -1748.087)" fill="#313e58" />
                    <path
                        d="M-1281.209,1867.777c.844,2.036-2.057,86.7-2.057,86.7s-1.715,6.6,5.3,6.6h93.6l-79.8-2.963s-11.292-1.333-11.695-2.19C-1277.72,1951.971-1281.209,1867.777-1281.209,1867.777Z"
                        transform="translate(1318.659 -1834.037)" fill="#313e58" />
                    <path
                        d="M-1281.209,1865.776a2,2,0,0,1,1.847,1.235c.183.442.288.86.3,4.308.334,7.794,1.215,27.83,2.212,46.378.559,10.4,1.074,18.824,1.529,25.028.563,7.674.944,10.634,1.147,11.771a52.53,52.53,0,0,0,5.264.964c2.3.342,4.46.6,4.893.656l79.714,2.96a2,2,0,0,1,1.925,2.036,2,2,0,0,1-2,1.963h-93.6a9.285,9.285,0,0,1-3.656-.667,6.086,6.086,0,0,1-2.461-1.876,7.988,7.988,0,0,1-1.173-6.313c.135-3.973,2.271-66.967,2.2-82.8-.1-2.265-.151-3.554-.151-3.554a2,2,0,0,1,1.568-2.036A2,2,0,0,1-1281.209,1865.776Zm9.541,93.3c-1.039-.174-1.919-.34-2.628-.5-1.911-.421-2.9-.8-3.377-1.806-.35-.743-.789-2.431-1.586-13.108-.337-4.519-.707-10.264-1.1-17.142-.474,15.341-.9,27.738-.907,28.025a1.777,1.777,0,0,1-.062.43,4.164,4.164,0,0,0,.416,3.119,3.606,3.606,0,0,0,2.945.98Z"
                        transform="translate(1318.659 -1834.037)" fill="#313e58" />
                    <rect width="24.973" height="158.857" rx="4" transform="translate(15.147)"
                        fill="#7a8293" />
                    <rect width="156.401" height="4.913" rx="2"
                        transform="translate(35.207 158.857) rotate(-90)" fill="#313e58" />
                    <rect width="40.939" height="4.913" rx="2" transform="translate(0)"
                        fill="#313e58" />
                </g>
                <g transform="translate(-2141.463 2833.109)">
                    <circle cx="28.248" cy="28.248" r="28.248" transform="translate(0 0)"
                        fill="#313e58" />
                    <ellipse cx="15.22" cy="14.785" rx="15.22" ry="14.785"
                        transform="translate(13.31 13.758)" fill="#ffd964" />
                    <circle cx="10.03" cy="10.03" r="10.03" transform="translate(18.422 18.013)"
                        fill="#edc95a" />
                    <path
                        d="M10.03,0A10.03,10.03,0,1,0,20.06,10.03,10.03,10.03,0,0,0,10.03,0m0-2A12.03,12.03,0,0,1,22.06,10.03,12.03,12.03,0,0,1,10.03,22.06,12.03,12.03,0,0,1-2,10.03,12.03,12.03,0,0,1,10.03-2Z"
                        transform="translate(18.422 18.013)" fill="#7a8293" />
                    <ellipse cx="3.275" cy="3.07" rx="3.275" ry="3.07"
                        transform="translate(25.382 25.382)" fill="#313e58" />
                </g>
                <g transform="translate(-2273.285 2847.438)">
                    <circle cx="21.083" cy="21.083" r="21.083" transform="translate(0)"
                        fill="#313e58" />
                    <ellipse cx="11.372" cy="11.047" rx="11.372" ry="11.047"
                        transform="translate(9.825 10.235)" fill="#ffd964" />
                    <circle cx="7.574" cy="7.574" r="7.574" transform="translate(13.51 13.51)"
                        fill="#edc95a" />
                    <path
                        d="M7.574,0a7.574,7.574,0,1,0,7.574,7.574A7.574,7.574,0,0,0,7.574,0m0-2A9.574,9.574,0,1,1-2,7.574,9.584,9.584,0,0,1,7.574-2Z"
                        transform="translate(13.51 13.51)" fill="#7a8293" />
                    <circle cx="2.456" cy="2.456" r="2.456" transform="translate(18.832 18.832)"
                        fill="#313e58" />
                </g>
                <path
                    d="M13.382,0c7.391,0,13.382,1.522,13.382,3.4S20.773,6.8,13.382,6.8,0,5.276,0,3.4,5.992,0,13.382,0Z"
                    transform="translate(-2167.848 2784.354) rotate(-39)" fill="#313e58" />
                <rect width="8.597" height="12.43" rx="4.299"
                    transform="matrix(0.819, -0.574, 0.574, 0.819, -2155.741, 2782.179)"
                    fill="#313e58" />
                <path
                    d="M2.047,0h9.006A2.047,2.047,0,0,1,13.1,2.047V38.221c0,1.13-1.584,3.877-2.715,3.877l-8.339-1.83A2.047,2.047,0,0,1,0,38.221V2.047A2.047,2.047,0,0,1,2.047,0Z"
                    transform="matrix(0.819, -0.574, 0.574, 0.819, -2154.512, 2788.729)"
                    fill="#313e58" />
                <path
                    d="M78.468,129.485c-3.756-.1-8.43-.218-14.579-.062a4.09,4.09,0,0,1-1.325-.185c-4.632-1.448-19.478-11.491-43.556-28.349-4.654-3.259-8.189-5.737-9.5-6.581C2.219,89.619-.09,83.559,0,69.367.094,55.334,3.368,5.92,3.507,3.823A4.1,4.1,0,0,1,8.661.142H72.506c4.562-.557,15.012,1.03,19.838,11.143,4.634,9.71,21.371,52.2,26.214,64.539a4.079,4.079,0,0,1,1.838,2.37l7.109,24.291a4.094,4.094,0,0,1-4.309,5.226c-.58-.045-15.064-.959-26.838,16.369-3.2,4.708-7.095,5.487-13.321,5.487C81.638,129.567,80.121,129.528,78.468,129.485Zm.212-8.185c8.972.233,9.66.013,10.906-1.821,9.867-14.522,21.721-18.549,28.622-19.609l-5.67-19.376a4.092,4.092,0,0,1,1-4.011C108.223,62.957,92.282,22.561,87.911,13.4,83.377,3.9,72.9,5.025,72.795,5.037l-61.163.016c-.4,6.147-3.357,51.457-3.441,64.367-.087,13.285,2.113,15.664,5.747,18,1.348.868,4.984,3.41,9.767,6.759,10.675,7.474,35.171,24.624,40.768,27.037,1.911-.042,3.677-.059,5.316-.059C73.267,121.16,76.173,121.235,78.681,121.3Z"
                    transform="translate(-2240.569 2717.015)" fill="#313e58" />
                <path
                    d="M-1968.619,3028.226c-.167-.935-3.64-22.5,14.114-38,17.809-15.547,36.248-9.045,37.024-8.76v6c-.088-.031-2.426-.778-3.149-.97-3.7-.988-17.009-3.386-30.106,8.048-13.368,11.67-12.618,27.793-12.118,32.277.055.5-.018,1.306,0,1.406Z"
                    transform="translate(-184.475 -157.052)" fill="#ffd964" />
                <path
                    d="M22.967,54.845,21.3,25.758,0,1.187c1.214-5.775,22.3,11,36.412,18.633C44.519,32.787,31.9,52.745,31.9,54.838Z"
                    transform="matrix(0.934, -0.358, 0.358, 0.934, -2212.193, 2791.166)"
                    fill="#708daf" />
                <path
                    d="M0,6.824,5.016,4.068S6.072.051,7.541.025c.752-.35-.558,3.034.868,2.741s4.9-2.881,5.5-2.356c.887.777.1,3.164-.836,4.351C11.336,6.981,9.894,7.74,6.33,8.734A23.676,23.676,0,0,0,.286,11.858Z"
                    transform="translate(-2171.942 2781.625) rotate(14)" fill="#997659" />
                <path
                    d="M4.072,3.23s6.214,15.071,12.416,17.2,26.483-2.77,26.483-2.77,2.7,6.407,2.414,9.684C10.066,45.8-7.818,22.661,3.267,0Z"
                    transform="translate(-2208.352 2755.372) rotate(14)" fill="#9183d8" />
                <path
                    d="M70.564,34.3s-10.361,6.943-13.2,4.149-12.3-22.686-12.872-22.98-23.377,2.277-30.217,2.277C4.411,17.742.331,11.522,0,0H19.539c3.978.426,24.73,4.611,32.437,6.05C55.275,6.666,70.567,32.372,70.564,34.3Z"
                    transform="translate(-2222.217 2793.159)" fill="#96b7df" />
                <path
                    d="M1.069,46.262C7.015,45.092,24.7,51.039,27.72,44.617,33.694,31.915,22.607,14.336,21.492,0H12.362c-1,0-7.805,13.043-7.811,21.517C4.545,29.255-2.655,34.169,1.069,46.262Z"
                    transform="translate(-2223.483 2749.547)" fill="#9183d8" />
            </g>
            <g transform="translate(335.996 241.013) rotate(180)">
                <path d="M0,0H69.362V62.782H0Z" transform="translate(0 0.002)" fill="#ffe491" />
                <path
                    d="M79.366,88.536a.9.9,0,0,0,.982-.771V54.4a1.01,1.01,0,0,0-1.963,0V87.765a.9.9,0,0,0,.982.771"
                    transform="translate(-45.114 -39.981)" fill="#313e58" />
                <rect width="16.503" height="16.503" transform="translate(25.915 0)" fill="#edc95a" />
                <rect width="16.503" height="16.503" transform="translate(25.915 46.452)"
                    fill="#edc95a" />
            </g>
            <g transform="translate(335.996 176.057) rotate(180)">
                <path d="M0,0H69.362V62.782H0Z" transform="translate(0 0.002)" fill="#ffe491" />
                <path
                    d="M79.366,88.536a.9.9,0,0,0,.982-.771V54.4a1.01,1.01,0,0,0-1.963,0V87.765a.9.9,0,0,0,.982.771"
                    transform="translate(-45.114 -39.981)" fill="#313e58" />
                <rect width="16.503" height="16.503" transform="translate(25.915 0)" fill="#edc95a" />
                <rect width="16.503" height="16.503" transform="translate(25.915 46.452)"
                    fill="#edc95a" />
            </g>
        </g>
    </g>
</svg>