<svg xmlns="http://www.w3.org/2000/svg" xmlns:xlink="http://www.w3.org/1999/xlink" width="400" height="320" viewBox="0 0 400 320">
    <defs>
        <clipPath>
            <rect width="111.926" height="205.459" fill="#bfe2e2" />
        </clipPath>
        <clipPath id="c">
            <rect width="400" height="320" />
        </clipPath>
    </defs>
    <g clip-path="url(#c)">
        <rect width="400" height="320" fill="transparent" />
        <path d="M6081.759,6828.183l13.4-52.235,33.312,8.222-16.309,44.765Z" transform="translate(-5984.505 -6555.5)" fill="#b28b67" />
        <path d="M6112.513,6829.442l-.359-.009-31.036-.767,13.684-53.324.481.119,33.853,8.355-.191.523ZM6082.4,6827.7l29.42.727,16-43.9-32.291-7.97Z" transform="translate(-5984.505 -6555.5)" fill="rgba(0,0,0,0)" />
        <path d="M6128.774,6828.934l-13.7-52.986-33.312,8.222,16.309,44.765Z" transform="translate(-5848.985 -6556.072)" fill="#b28b67" />
        <path d="M6129.42,6829.434h-31.7l-.12-.329-16.5-45.288.541-.133,33.792-8.34.124.479Zm-31-1h29.71l-13.418-51.882-32.292,7.97Z" transform="translate(-5848.985 -6556.072)" fill="rgba(0,0,0,0)" />
        <path d="M-6265.639-6640.484s-9.555,1.03-27.354,16.644c-12.186,10.689-28.494,32.121-40.643,65.861,35.629,15.589,49.444,6.669,49.444,6.669Z" transform="translate(6429.557 6802.117)" fill="#f1b981" />
        <path d="M-6333.636-6640.484s9.555,1.03,27.354,16.644c12.186,10.689,28.494,32.121,40.643,65.861-35.629,15.589-49.444,6.669-49.444,6.669Z" transform="translate(6546.463 6801.544)" fill="#f1b981" />
        <g transform="translate(0 3)">
            <path d="M-4280.911,5960.357s-17.329-6.648-10.458,6.384,14.166,13.525,14.166,13.525Z" transform="translate(4439.091 -5862.029)" fill="#b28b67" />
            <path d="M-4289.271,5960.357s17.329-6.648,10.457,6.384-14.166,13.525-14.166,13.525Z" transform="translate(4505.602 -5862.029)" fill="#b28b67" />
            <path d="M0,0,17.031,71.392H29.315L40.536,0Z" transform="translate(210.639 180.878) rotate(180)" fill="#9d6d41" />
            <path d="M4436.19,753.7s12.73,49.81,36.87,49.567,33.743-53.473,33.743-53.473-8.949-43.053-35.447-43.22C4440.061,707.52,4436.19,753.7,4436.19,753.7Z" transform="translate(-4284.652 -658.083)" fill="#b28b67" />
            <path d="M-6251.239-6651.927c5.032,9.573,1.577-15.7,25.133-27.069,5.432,8.275,17.687,11.8,17.687,11.8v-7.633a13.952,13.952,0,0,0,5.576,3.651c2.12.711,4.831-.318,9.658,2.238,11,5.821,9.913,9.606,9.351,15.643,2.762,5.989,6.68-13.9,6.68-13.9s5.408-44.646-40.154-44.041S-6256.271-6661.5-6251.239-6651.927Z" transform="translate(6403.329 6754.361)" fill="#313e58" />
            <path d="M0,9.31v8.424c0,4.929,4.173,8.987,9.4,9.311V0C4.173.323,0,4.381,0,9.31Z" transform="translate(128.875 86.117) rotate(-9)" fill="#acb1bc" />
            <path d="M9.4,9.31v8.424c0,4.929-4.173,8.987-9.4,9.311V0C5.229.323,9.4,4.381,9.4,9.31Z" transform="translate(234.607 86.089) rotate(11)" fill="#acb1bc" />
            <path d="M18.06,46.807l-4.438-.635A58.136,58.136,0,0,1,29.455,13.365a46.338,46.338,0,0,1,14.1-9.792,41.272,41.272,0,0,1,33.581-.006,46.327,46.327,0,0,1,14.091,9.776A58.12,58.12,0,0,1,107.071,46.1l-4.437.64A53.587,53.587,0,0,0,88.058,16.529a41.865,41.865,0,0,0-12.728-8.84,36.808,36.808,0,0,0-29.97.006,41.876,41.876,0,0,0-12.735,8.855A53.6,53.6,0,0,0,18.06,46.807Z" transform="translate(127.447 39)" fill="#7a8293" />
            <path d="M26.636,14.29c-4.76,0-22.477-1.613-24.6-1.808a2.241,2.241,0,0,1,.41-4.464C11.068,8.81,24.614,9.929,26.983,9.8c.184-.089,1.3-.74,3.315-4.229,1.247-2.158,2.146-4.209,2.155-4.229a2.241,2.241,0,0,1,4.109,1.794,51.708,51.708,0,0,1-2.6,5.059c-2.4,4.046-4.427,5.919-6.583,6.073C27.184,14.284,26.935,14.29,26.636,14.29Z" transform="translate(191.726 116.926) rotate(-9)" fill="#3e4a63" />
            <path d="M1.909,9.6A4.985,4.985,0,0,1,0,5.795,5.271,5.271,0,0,1,2.763,1.371,10.176,10.176,0,0,1,8.024,0,10.612,10.612,0,0,1,12.29.853h2.455A3.248,3.248,0,0,1,17.988,4.1V7.49a3.249,3.249,0,0,1-2.551,3.168,1.079,1.079,0,0,1-.535.141H12.136a10.013,10.013,0,0,1-1.981.591,9.78,9.78,0,0,1-2.6.343A7.434,7.434,0,0,1,1.909,9.6Z" transform="translate(182.514 122.338) rotate(-9)" fill="#3e4a63" />
            <path d="M7.554,12.233a7.955,7.955,0,0,1-6-2.28A5.472,5.472,0,0,1-.5,5.795a5.758,5.758,0,0,1,3-4.85A10.682,10.682,0,0,1,8.024-.5a11.2,11.2,0,0,1,4.369.853h2.352A3.747,3.747,0,0,1,18.488,4.1V7.49a3.765,3.765,0,0,1-2.874,3.641,1.586,1.586,0,0,1-.711.168H12.235a10.565,10.565,0,0,1-1.967.578A10.25,10.25,0,0,1,7.554,12.233ZM8.024.5a9.673,9.673,0,0,0-5,1.3,4.785,4.785,0,0,0-2.524,4A4.5,4.5,0,0,0,2.231,9.218l.035.029.029.035a7.023,7.023,0,0,0,5.259,1.951,9.245,9.245,0,0,0,2.467-.325l.04-.009a9.529,9.529,0,0,0,1.882-.561l.093-.039H14.9a.582.582,0,0,0,.287-.075l.066-.038.074-.016a2.759,2.759,0,0,0,2.157-2.68V4.1a2.746,2.746,0,0,0-2.743-2.743H12.184l-.1-.042A10.155,10.155,0,0,0,8.024.5Z" transform="translate(182.514 122.338) rotate(-9)" fill="rgba(0,0,0,0)" />
            <rect width="122.45" height="92.722" transform="translate(126.398 39.445)" fill="none" />
            <path d="M6529.229,6799.227l-4.847-.941a4.364,4.364,0,0,1-3.362-5.167l4.839-24.9a4.365,4.365,0,0,1,5.052-3.531l4.847.941a6.925,6.925,0,0,1,2.046.715,2.743,2.743,0,0,1,1.6,2.965l-5.417,27.872a2.744,2.744,0,0,1-2.6,2.148,5.7,5.7,0,0,1-.71.042A7.6,7.6,0,0,1,6529.229,6799.227Zm-83.95-1.158a2.748,2.748,0,0,1-2.522-2.238l-4.442-28.043a2.748,2.748,0,0,1,1.708-2.908,6.978,6.978,0,0,1,2.072-.644l4.874-.771a4.367,4.367,0,0,1,4.929,3.707l3.966,25.048a4.363,4.363,0,0,1-3.541,5.047l-4.875.773a7.993,7.993,0,0,1-1.228.1A5.927,5.927,0,0,1,6445.279,6798.069Z" transform="translate(-6302.473 -6683.455)" fill="#7a8293" />
        </g>
        <path d="M6081.618,6873.4c.1-7.841.27-12.246.6-20.458,12.965-45.452,28.811-87.357,30.927-89.576.34.884,18.247,5.533,24.492,5.533,13.841,0,25.7-5.583,25.538-5.9,2.895,2.76,32.237,76.616,32.767,89.943.269,6.766.464,13.537.587,20.552C6196.524,6873.494,6109.472,6873.5,6081.618,6873.4Z" transform="translate(-5949.699 -6600.576)" fill="#e88a2d" />
        <path d="M-5778.339-6594.174c-14.329,0-27.1-6.417-27.652-6.7l1.688-4.4c.8-1.983,2.984-1,3.23-.891,4.025,1.708,13.884,5.309,24.113,4.972,10.33-.343,19.646-4.526,20.743-5,.733-.315,2.637-2.1,3.633.965l1.267,4.481c-2.113.792-14.085,6.169-25.468,6.547C-5777.3-6594.182-5777.824-6594.174-5778.339-6594.174Z" transform="translate(5967.198 6768)" fill="#f1b981" />
        <path d="M-5780.267-6583.516a65,65,0,0,1-12.1-1.141,64.919,64.919,0,0,1-12.9-3.854,40.3,40.3,0,0,1-4.812-2.342l1.034-1.712a39.6,39.6,0,0,0,4.623,2.239,62.928,62.928,0,0,0,12.506,3.719,62.5,62.5,0,0,0,18.355.726,64.581,64.581,0,0,0,22.234-6.72l.9,1.784a66.585,66.585,0,0,1-22.977,6.93A63.841,63.841,0,0,1-5780.267-6583.516Z" transform="translate(5968.821 6763)" fill="#f1b981" />
        <path d="M-5833.053-6511.846a91.168,91.168,0,0,1-14.569-1.842,117.431,117.431,0,0,1-12.314-3.252,103.8,103.8,0,0,1-11.748-4.492l.859-1.806a103.936,103.936,0,0,0,11.535,4.4,115.356,115.356,0,0,0,12.091,3.19,89.24,89.24,0,0,0,14.226,1.8Z" transform="translate(5969.208 6762)" fill="#e88a2d" />
        <path d="M-5871.215-6511.846l-.08-2a89.24,89.24,0,0,0,14.226-1.8,115.356,115.356,0,0,0,12.091-3.19,103.936,103.936,0,0,0,11.535-4.4l.859,1.806a103.8,103.8,0,0,1-11.748,4.492,117.431,117.431,0,0,1-12.314,3.252A91.168,91.168,0,0,1-5871.215-6511.846Z" transform="translate(6111.804 6761.428)" fill="#e88a2d" />
        <path d="M438.084,210.426H304.59a5.015,5.015,0,0,1-5-5V92.034a5.015,5.015,0,0,1,5-5H438.084" transform="translate(-38.084 71.891)" fill="#e4e6ea" />
        <path d="M6004.242,6886.392a5.014,5.014,0,0,1-5-5v-64.711l138.493-23.6v93.308Z" transform="translate(-5737.736 -6604.074)" fill="#acb1bc" opacity="0.267" />
        <path d="M12.339-1.25A13.589,13.589,0,0,1,25.928,12.339,13.589,13.589,0,0,1,12.339,25.928,13.589,13.589,0,0,1-1.25,12.339,13.589,13.589,0,0,1,12.339-1.25Zm0,24.678A11.089,11.089,0,0,0,20.18,4.5,11.089,11.089,0,0,0,4.5,20.18,11.016,11.016,0,0,0,12.339,23.428Z" transform="translate(344.281 186.225)" fill="#acb1bc" opacity="0.732" />
        <path d="M6014.983,6840.83h-49.63a1.923,1.923,0,0,1-1.327-2.129c.208-1.388,7.338-51.222,10.4-72.584l.148-1.034c.047-.086,1.16-2.083,3.027-2.083l.124,0h24.233a4.586,4.586,0,0,1,1.505.638,4.192,4.192,0,0,1,1.878,2.928c.585,3.6,11.455,71.329,11.554,71.948a1.954,1.954,0,0,1-.091,1.624A2.063,2.063,0,0,1,6014.983,6840.83Zm-24.468-57.718a7.827,7.827,0,1,0,7.827,7.827A7.835,7.835,0,0,0,5990.515,6783.112Z" transform="translate(-5634.029 -6527.72)" fill="#e4e6ea" />
        <path d="M368.491,240.706l-11.682-12.333,12.654.068" transform="translate(-38.084 71.891)" fill="#d5d8de" />
        <path d="M.994,0h6.45a.995.995,0,0,1,.995.995v1.4a.994.994,0,0,1-.994.994H.994A.994.994,0,0,1,0,2.4V.994A.994.994,0,0,1,.994,0Z" transform="translate(275.08 269.43)" fill="#fff" />
        <path d="M.994,0h6.45a.995.995,0,0,1,.995.995v1.4a.994.994,0,0,1-.994.994H.994A.994.994,0,0,1,0,2.4V.994A.994.994,0,0,1,.994,0Z" transform="translate(288.463 269.43)" fill="#fff" />
        <rect width="5.322" height="3.389" rx="0.994" transform="translate(302.385 269.43)" fill="#fff" />
        <rect width="5.322" height="3.389" rx="0.994" transform="translate(312.514 269.43)" fill="#fff" />
        <path d="M293.828,249.359a1.25,1.25,0,0,1-.98-2.025,25.2,25.2,0,0,1,3.994-4.074c6.358-5.071,14.874-8.239,20.9-10a100.455,100.455,0,0,1,22.369-3.867c5.959-.287,12.372.579,18.575,1.417,6.09.822,12.387,1.673,18.117,1.4,6.521-.314,10.853-1.217,14.487-3.022,4.262-2.116,7.642-5.574,10.637-10.883a17.892,17.892,0,0,0,2.277-7.258,18.524,18.524,0,0,0-.8-7.182,21.588,21.588,0,0,0-11.044-12.786,1.25,1.25,0,0,1,1.091-2.249,24.088,24.088,0,0,1,12.339,14.29,21.011,21.011,0,0,1,.907,8.148,20.375,20.375,0,0,1-2.59,8.267,33.7,33.7,0,0,1-5.406,7.33,23.513,23.513,0,0,1-6.3,4.564c-3.963,1.967-8.592,2.948-15.479,3.279-5.958.286-12.371-.579-18.572-1.417-6.091-.823-12.39-1.673-18.12-1.4a97.845,97.845,0,0,0-21.786,3.769c-8.331,2.441-15.262,5.747-20.043,9.56a22.7,22.7,0,0,0-3.592,3.67A1.248,1.248,0,0,1,293.828,249.359Z" transform="translate(-38.084 71.891)" fill="#acb1bc" />
        <path d="M258.857,1H0A1,1,0,0,1-1,0,1,1,0,0,1,0-1H258.857a1,1,0,0,1,1,1A1,1,0,0,1,258.857,1Z" transform="translate(1.686 273.743)" fill="#5bb3b3" />
        <g transform="translate(1.408 -7.731)">
            <path d="M29.305-1A30.313,30.313,0,0,1,41.1,57.228,30.313,30.313,0,0,1,17.509,1.382,30.116,30.116,0,0,1,29.305-1Zm0,58.61A28.313,28.313,0,0,0,40.322,3.224,28.313,28.313,0,0,0,18.288,55.386,28.127,28.127,0,0,0,29.305,57.61Z" transform="translate(26.271 39.522) rotate(-16.845)" fill="#5bb3b3" />
            <path d="M343.059,29.8a2.642,2.642,0,1,1-2.642,2.642A2.645,2.645,0,0,1,343.059,29.8Zm0,3.284a.642.642,0,1,0-.642-.642A.643.643,0,0,0,343.059,33.087Z" transform="translate(-280.248 26.633)" fill="#5bb3b3" />
            <path d="M39.307-1A40.851,40.851,0,0,1,54.989,2.094,40.236,40.236,0,0,1,67.8,10.533a39.235,39.235,0,0,1,8.643,12.525,38.716,38.716,0,0,1,0,30.692A39.235,39.235,0,0,1,67.8,66.276a40.236,40.236,0,0,1-12.811,8.439,41.292,41.292,0,0,1-31.364,0,40.236,40.236,0,0,1-12.811-8.439A39.235,39.235,0,0,1,2.171,53.751a38.716,38.716,0,0,1,0-30.692,39.235,39.235,0,0,1,8.643-12.525A40.236,40.236,0,0,1,23.625,2.094,40.851,40.851,0,0,1,39.307-1Zm0,76.809a38.861,38.861,0,0,0,14.918-2.942A38.245,38.245,0,0,0,66.4,64.845a37.245,37.245,0,0,0,8.205-11.889,36.716,36.716,0,0,0,0-29.1A37.245,37.245,0,0,0,66.4,11.964,38.245,38.245,0,0,0,54.226,3.942a39.292,39.292,0,0,0-29.837,0,38.245,38.245,0,0,0-12.177,8.021A37.245,37.245,0,0,0,4.007,23.853a36.716,36.716,0,0,0,0,29.1,37.245,37.245,0,0,0,8.205,11.889,38.245,38.245,0,0,0,12.177,8.021A38.861,38.861,0,0,0,39.307,75.809Z" transform="translate(23.503 20.674)" fill="#5bb3b3" />
            <path d="M343.035,37.787a1,1,0,0,1-1-1l.025-24.578a1,1,0,0,1,2,0l-.023,23.3,14.215-3.48a1,1,0,0,1,.476,1.943l-15.454,3.783A1,1,0,0,1,343.035,37.787Z" transform="translate(-279.87 22.292)" fill="#5bb3b3" />
            <path d="M0,8.711a1,1,0,0,1-1-1V0A1,1,0,0,1,0-1,1,1,0,0,1,1,0V7.711A1,1,0,0,1,0,8.711Z" transform="translate(63.092 20.758)" fill="#5bb3b3" />
            <path d="M0,8.711a1,1,0,0,1-1-1V0A1,1,0,0,1,0-1,1,1,0,0,1,1,0V7.711A1,1,0,0,1,0,8.711Z" transform="translate(63.092 89.407)" fill="#5bb3b3" />
            <path d="M7.71,1H0A1,1,0,0,1-1,0,1,1,0,0,1,0-1H7.71a1,1,0,0,1,1,1A1,1,0,0,1,7.71,1Z" transform="translate(24.912 58.937)" fill="#5bb3b3" />
            <path d="M7.71,1H0A1,1,0,0,1-1,0,1,1,0,0,1,0-1H7.71a1,1,0,0,1,1,1A1,1,0,0,1,7.71,1Z" transform="translate(93.56 58.937)" fill="#5bb3b3" />
        </g>
        <path d="M136.413,110.9H2.5a1,1,0,0,1-1-1V97.562a1,1,0,0,1,1-1H136.413a1,1,0,0,1,0,2H3.5V108.9H136.413a1,1,0,0,1,0,2Z" transform="translate(261.587 2.929)" fill="#5bb3b3" />
        <path d="M3-1H16.481a4,4,0,0,1,4,4V42.155a4,4,0,0,1-4,4H3a4,4,0,0,1-4-4V3A4,4,0,0,1,3-1ZM16.481,44.155a2,2,0,0,0,2-2V3a2,2,0,0,0-2-2H3A2,2,0,0,0,1,3V42.155a2,2,0,0,0,2,2Z" transform="translate(307.699 51.348)" fill="#5bb3b3" />
        <path d="M3-1H16.481a4,4,0,0,1,4,4V74.829a4,4,0,0,1-4,4H3a4,4,0,0,1-4-4V3A4,4,0,0,1,3-1ZM16.481,76.829a2,2,0,0,0,2-2V3a2,2,0,0,0-2-2H3A2,2,0,0,0,1,3V74.829a2,2,0,0,0,2,2Z" transform="translate(331.141 18.674)" fill="#5bb3b3" />
        <path d="M3-1H16.481a4,4,0,0,1,4,4V59.124a4,4,0,0,1-4,4H3a4,4,0,0,1-4-4V3A4,4,0,0,1,3-1ZM16.481,61.124a2,2,0,0,0,2-2V3a2,2,0,0,0-2-2H3A2,2,0,0,0,1,3V59.124a2,2,0,0,0,2,2Z" transform="translate(354.39 34.379)" fill="#5bb3b3" />
        <path d="M3-1H16.481a4,4,0,0,1,4,4V59.124a4,4,0,0,1-4,4H3a4,4,0,0,1-4-4V3A4,4,0,0,1,3-1ZM16.481,61.124a2,2,0,0,0,2-2V3a2,2,0,0,0-2-2H3A2,2,0,0,0,1,3V59.124a2,2,0,0,0,2,2Z" transform="translate(377.549 34.379)" fill="#5bb3b3" />
        <path d="M3-1H16.481a4,4,0,0,1,4,4V74.829a4,4,0,0,1-4,4H3a4,4,0,0,1-4-4V3A4,4,0,0,1,3-1ZM16.481,76.829a2,2,0,0,0,2-2V3a2,2,0,0,0-2-2H3A2,2,0,0,0,1,3V74.829a2,2,0,0,0,2,2Z" transform="translate(284.207 18.674)" fill="#5bb3b3" />
        <g transform="translate(-30.141 95.491)">
            <g clip-path="url(#a)">
                <path d="M12.124,59.188c7.115-.367,15.914,3.723,16.677,11.336.555,5.539.385,11.05,1.24,16.578a44.249,44.249,0,0,0,4.1,12.676c1.894,3.868,5.822,7.164,6.844,11.292a17.476,17.476,0,0,1-.607,8.914c-1.09,3.132-.51,2.884,1.665,5.512a71.2,71.2,0,0,1,10.819,16.576c3.912,8.858,6.478,19.211,5.032,28.909-.183,1.232-.4,5.65-2.123,5.96-1.924.347-1.025-2.182-.923-3,.653-5.209,1.23-9.769.44-15.054-3.054-20.409-17.927-33.854-27.614-51.174-.533-.894-1.656-3.02-2.439-4.424C24,101.078,22.76,96.862,21.089,95.22c-3.147-3.091-.252,3.127.36,4.315.776,1.5,1.628,3.1,2.422,4.411,3.635,6.1,7.691,12.762,11.445,19.052C19.1,126.651,7.662,107.444,3.3,94.813c-3.591-10.4-7.892-34.724,8.822-35.625" transform="translate(0 -0.056)" fill="#bfe2e2" />
                <path d="M109.611,39.862c-11.887.927-19.517,8.654-23.07,19.46-1.915,5.828-2.135,11.8-3.2,17.789-1.6,9-5.044,15.826-11.774,22.24a22.414,22.414,0,0,0-4.712,6.208,26.436,26.436,0,0,0-5.441,7.659c-1.772,3.852-2.272,8.469-.228,12.306a12.665,12.665,0,0,0,3.343,4.044,78.263,78.263,0,0,0-7.919,35.6c.2,7.37.566,14.746.991,22.105.116,1.977.768,5.24,1.752,1.925.9-3.032-.23-7.792-.334-10.96-.508-15.431-.941-29.463,5.508-43.878q1.015-2.267,2.142-4.5c.042-.024.083-.055.124-.084.028.022.054.045.084.066.047-.084.113-.184.188-.295a3.972,3.972,0,0,0,.579-.8,5.778,5.778,0,0,0,1.223-2.2v-.013A207.711,207.711,0,0,1,82.1,108.108c-.036.043,5.066-6.8,4.278-3.014-.38,1.823-4.133,5.3-5.649,7.227a179.809,179.809,0,0,0-10.561,15,7.542,7.542,0,0,0-1.511,2.384c-.249.462-.481.927-.708,1.333,11.591,3.772,20.608-3.826,26.758-12.664l.02-.032a38.637,38.637,0,0,1,6.182-6.8c4-3.221,21.257-42.991,8.7-71.682" transform="translate(-2.19 -0.037)" fill="#bfe2e2" />
                <path d="M86.044,1.387c-12.2,12.506-18.095,29.85-22.761,46.159-5.213,18.213-8.656,36.708-8.788,55.645-.087,12.441-.429,24.965.308,37.387a130.193,130.193,0,0,0,1.419,13.2c.058.36,1.648,10.108,3.167,7.837.865-1.293-1.628-10.113-1.817-11.581a186.957,186.957,0,0,1-1.255-24.946c.086-13.722-.326-27.375,1.087-41.046a45.569,45.569,0,0,1,.869-6.182c.523-2.124-.143-1.2,1.559-2.037,1.654-.818,3.7-.7,5.415-1.725,6.808-4.071,10.292-14.511,13-21.365a129.711,129.711,0,0,0,6.49-24.442,169.844,169.844,0,0,0,2.347-18.221,46.568,46.568,0,0,1,.533-5.858,13.116,13.116,0,0,0,.607-1.875C88.186,1.373,87.6.808,87.548,0q-.766.679-1.5,1.391" transform="translate(-2.103 0)" fill="#bfe2e2" />
                <path d="M18.119,168.168a37.738,37.738,0,0,0,38.021,37.448A37.737,37.737,0,0,0,94.16,168.168" transform="translate(-0.701 -0.158)" fill="#bfe2e2" />
                <path d="M98.588,181.988a5.886,5.886,0,0,1-3.984-1.38,7.859,7.859,0,0,1-2.148-3.4,28.865,28.865,0,0,1-1.131-8.438,33.624,33.624,0,0,0-1.226-9.1,15.913,15.913,0,0,0-5-7.545c-.643-.547-1.329-1.068-1.992-1.572-.592-.45-1.2-.914-1.781-1.395l-.277-.23c-1.86-1.54-3.783-3.131-4.018-5.649a3.877,3.877,0,0,1,.68-3.057,2.968,2.968,0,0,1,2.3-.805,9.568,9.568,0,0,1,1.957.236c.1.022.379.125.761.268a15.135,15.135,0,0,0,3.891,1.089c.3,0,.5-.067.585-.2a.563.563,0,0,0-.026-.536c-.225-.531-1-1-2.295-1.4-2.611-.281-5.076-.532-6.544-.532a5.037,5.037,0,0,0-.95.067,14.456,14.456,0,0,0-7.005,3.846,24.5,24.5,0,0,0-4.834,6.867,51.82,51.82,0,0,0-4.484,16.053c-.111.927-.208,1.936-.311,3.078h-2a65.733,65.733,0,0,1,.745-7.418,47.133,47.133,0,0,1,5.311-15.3A22.776,22.776,0,0,1,70,139.32a14.531,14.531,0,0,1,7.2-3.182,10.839,10.839,0,0,1,1.167-.042c.756,0,1.665.029,2.563.081a6.765,6.765,0,0,1,2.833-.827c.4-.029.809-.044,1.217-.044a20.9,20.9,0,0,1,6.849,1.237,29.71,29.71,0,0,1,6.546,3.279,34.065,34.065,0,0,1,5.658,4.677,28.307,28.307,0,0,1,4.19,5.427,20.689,20.689,0,0,1,2.611,10.441,33.357,33.357,0,0,1-1.828,10.735,24.45,24.45,0,0,1-3.664,7.092c-1.972,2.489-4.209,3.765-6.661,3.793Z" transform="translate(-2.274 -0.127)" fill="#bfe2e2" />
            </g>
        </g>
    </g>
</svg>