<svg xmlns="http://www.w3.org/2000/svg" xmlns:xlink="http://www.w3.org/1999/xlink" width="400" height="320" viewBox="0 0 400 320">
    <defs>
        <clipPath>
            <rect width="400" height="320" />
        </clipPath>
    </defs>
    <g clip-path="url(#b)">
        <rect width="400" height="320" fill="transparent" />
        <rect width="106.42" height="62.983" transform="translate(107.877 108.916)" fill="#bfe2e2" />
        <path d="M90.331,1H0A1,1,0,0,1-1,0,1,1,0,0,1,0-1H90.331a1,1,0,0,1,1,1A1,1,0,0,1,90.331,1Z" transform="translate(-1.457 175.784)" fill="#5ab3b3" />
        <path d="M397.678,1H0A1,1,0,0,1-1,0,1,1,0,0,1,0-1H397.678a1,1,0,0,1,1,1A1,1,0,0,1,397.678,1Z" transform="translate(0.5 229.498)" fill="#5ab3b3" />
        <path d="M0-1H59.462a1,1,0,0,1,.707.293A1,1,0,0,1,60.462,0a12.466,12.466,0,0,1-3.675,8.873,12.466,12.466,0,0,1-8.873,3.675H11.548A12.466,12.466,0,0,1,2.675,8.873,12.466,12.466,0,0,1-1,0,1,1,0,0,1-.707-.707,1,1,0,0,1,0-1ZM58.415,1H1.047a10.563,10.563,0,0,0,10.5,9.548H47.914A10.563,10.563,0,0,0,58.415,1Z" transform="translate(356.611 197.501) rotate(180)" fill="#5ab3b3" />
        <g transform="translate(325.067 148.585)">
            <path d="M0,33.874a1,1,0,0,1-.3-.046,1,1,0,0,1-.655-1.253L9.353-.3a1,1,0,0,1,1.253-.655A1,1,0,0,1,11.262.3L.954,33.173A1,1,0,0,1,0,33.874Z" transform="translate(0)" fill="#5ab3b3" />
            <path d="M0,32.259a1,1,0,0,1-.3-.046,1,1,0,0,1-.655-1.253L8.847-.3A1,1,0,0,1,10.1-.954,1,1,0,0,1,10.755.3L.954,31.558A1,1,0,0,1,0,32.259Z" transform="translate(6.443 1.615)" fill="#5ab3b3" />
        </g>
        <g transform="translate(317.477 96.09)">
            <path d="M-195.075,132.218a1,1,0,0,1-.941-.661L-207.8,98.943h-2.8a1,1,0,0,1-1-1,1,1,0,0,1,1-1h3.507a1,1,0,0,1,.941.66l12.018,33.275a1,1,0,0,1-.6,1.28A1,1,0,0,1-195.075,132.218Z" transform="translate(212.696 -92.518)" fill="#5ab3b3" />
            <path d="M-189.168,130.527a1,1,0,0,1-.936-.648l-13.707-36.371H-212.7a1,1,0,0,1-1-1,1,1,0,0,1,1-1h9.58a1,1,0,0,1,.936.647l13.951,37.018a1,1,0,0,1-.583,1.288A1,1,0,0,1-189.168,130.527Z" transform="translate(212.699 -92.508)" fill="#5ab3b3" />
        </g>
        <path d="M4.1-1A5.1,5.1,0,1,1-1,4.1,5.105,5.105,0,0,1,4.1-1Zm0,8.2A3.1,3.1,0,1,0,1,4.1,3.1,3.1,0,0,0,4.1,7.2Z" transform="translate(336.568 137.439)" fill="#5ab3b3" />
        <g transform="translate(278.995 84.587)">
            <path d="M-238.037,79.984a24.52,24.52,0,0,1,11.15,2.693,24.363,24.363,0,0,1,8.9,7.826,24.173,24.173,0,0,1,3.8,8.88,24.239,24.239,0,0,1,.1,9.323,24.239,24.239,0,0,1-3.407,8.679,24.173,24.173,0,0,1-6.71,6.948,1,1,0,0,1-.748.16,1,1,0,0,1-.643-.416l-26.475-38.4a1,1,0,0,1,.256-1.391A24.185,24.185,0,0,1-238.037,79.984Zm13.5,42.117a22.133,22.133,0,0,0,5.347-5.79,22.249,22.249,0,0,0,3.127-7.966,22.249,22.249,0,0,0-.089-8.557,22.183,22.183,0,0,0-3.488-8.149,22.356,22.356,0,0,0-8.162-7.182,22.511,22.511,0,0,0-10.237-2.472,22.172,22.172,0,0,0-11.813,3.4Z" transform="translate(251.253 -80.984)" fill="#5ab3b3" />
            <path d="M-236.639,112.284a8.916,8.916,0,0,1-2.474-.349,8.9,8.9,0,0,1-4.844-3.491,8.9,8.9,0,0,1-1.537-5.805,8.912,8.912,0,0,1,2.438-5.389,1,1,0,0,1,1.414-.029,1,1,0,0,1,.029,1.414,6.905,6.905,0,0,0-1.888,4.176,6.894,6.894,0,0,0,1.191,4.5,6.9,6.9,0,0,0,3.752,2.7,6.906,6.906,0,0,0,4.547-.249,1,1,0,0,1,1.307.541,1,1,0,0,1-.541,1.307A8.868,8.868,0,0,1-236.639,112.284Z" transform="translate(251.24 -81.015)" fill="#5ab3b3" />
        </g>
        <path d="M-310.989,158.208a1,1,0,0,1-1-1V96.755a4.271,4.271,0,0,0-4.267-4.267H-425.867a4.271,4.271,0,0,0-4.267,4.267v60.453a1,1,0,0,1-1,1,1,1,0,0,1-1-1V96.755a6.274,6.274,0,0,1,6.267-6.267h109.611a6.274,6.274,0,0,1,6.267,6.267v60.453A1,1,0,0,1-310.989,158.208Z" transform="translate(532.579 9.957)" fill="#5ab3b3" />
        <path d="M-317.034,159.064a1,1,0,0,1-1-1V100.246H-422.377v57.819a1,1,0,0,1-1,1,1,1,0,0,1-1-1V99.246a1,1,0,0,1,1-1h106.343a1,1,0,0,1,1,1v58.819A1,1,0,0,1-317.034,159.064Z" transform="translate(531.723 9.101)" fill="#5ab3b3" />
        <path d="M0-1H29.1a1,1,0,0,1,1,1,4.477,4.477,0,0,1-4.472,4.472H3.472A4.477,4.477,0,0,1-1,0,1,1,0,0,1,0-1ZM27.888,1H1.211A2.475,2.475,0,0,0,3.472,2.472H25.627A2.475,2.475,0,0,0,27.888,1Z" transform="translate(146.968 172.341)" fill="#5ab3b3" />
        <path d="M0-1H140.479a1,1,0,0,1,1,1,9.313,9.313,0,0,1-9.3,9.3H8.3A9.313,9.313,0,0,1-1,0,1,1,0,0,1,0-1ZM139.41,1H1.068A7.314,7.314,0,0,0,8.3,7.3H132.176A7.314,7.314,0,0,0,139.41,1Z" transform="translate(91.278 172.341)" fill="#5ab3b3" />
        <path d="M61.678,1H0A1,1,0,0,1-1,0,1,1,0,0,1,0-1H61.678a1,1,0,0,1,1,1A1,1,0,0,1,61.678,1Z" transform="translate(336.5 175.784)" fill="#7bc2c2" />
        <path d="M19.7,1H0A1,1,0,0,1-1,0,1,1,0,0,1,0-1H19.7a1,1,0,0,1,1,1A1,1,0,0,1,19.7,1Z" transform="translate(302.8 175.784)" fill="#7bc2c2" />
        <path d="M140.6,1H0A1,1,0,0,1-1,0,1,1,0,0,1,0-1H140.6a1,1,0,0,1,1,1A1,1,0,0,1,140.6,1Z" transform="translate(6.366 78.714)" fill="#5ab3b3" />
        <path d="M2.744-1h7.01A3.748,3.748,0,0,1,13.5,2.744V53.815a3.748,3.748,0,0,1-3.744,3.744H2.744A3.748,3.748,0,0,1-1,53.815V2.744A3.748,3.748,0,0,1,2.744-1Zm7.01,56.559A1.746,1.746,0,0,0,11.5,53.815V2.744A1.746,1.746,0,0,0,9.754,1H2.744A1.746,1.746,0,0,0,1,2.744V53.815a1.746,1.746,0,0,0,1.744,1.744Z" transform="translate(81.817 17.084)" fill="#5ab3b3" />
        <g transform="translate(85.78 42.764)">
            <path d="M4.572,1H0A1,1,0,0,1-1,0,1,1,0,0,1,0-1H4.572a1,1,0,0,1,1,1A1,1,0,0,1,4.572,1Z" fill="#5ab3b3" />
            <path d="M4.572,1H0A1,1,0,0,1-1,0,1,1,0,0,1,0-1H4.572a1,1,0,0,1,1,1A1,1,0,0,1,4.572,1Z" transform="translate(0 5.114)" fill="#5ab3b3" />
        </g>
        <path d="M2.744-1h7.01A3.748,3.748,0,0,1,13.5,2.744V53.815a3.748,3.748,0,0,1-3.744,3.744H2.744A3.748,3.748,0,0,1-1,53.815V2.744A3.748,3.748,0,0,1,2.744-1Zm7.01,56.559A1.746,1.746,0,0,0,11.5,53.815V2.744A1.746,1.746,0,0,0,9.754,1H2.744A1.746,1.746,0,0,0,1,2.744V53.815a1.746,1.746,0,0,0,1.744,1.744Z" transform="matrix(-0.956, -0.293, 0.293, -0.956, 60.142, 74.232)" fill="#5ab3b3" />
        <g transform="translate(59.524 42.208)">
            <path d="M4.372,2.339a1,1,0,0,1-.293-.044L-.293.956A1,1,0,0,1-.956-.293,1,1,0,0,1,.293-.956L4.665.383a1,1,0,0,1-.292,1.956Z" transform="translate(1.497)" fill="#5ab3b3" />
            <path d="M4.372,2.339a1,1,0,0,1-.293-.044L-.293.956A1,1,0,0,1-.956-.293,1,1,0,0,1,.293-.956L4.665.383a1,1,0,0,1-.292,1.956Z" transform="translate(0 4.889)" fill="#5ab3b3" />
        </g>
        <path d="M2.744-1h7.01A3.748,3.748,0,0,1,13.5,2.744V53.815a3.748,3.748,0,0,1-3.744,3.744H2.744A3.748,3.748,0,0,1-1,53.815V2.744A3.748,3.748,0,0,1,2.744-1Zm7.01,56.559A1.746,1.746,0,0,0,11.5,53.815V2.744A1.746,1.746,0,0,0,9.754,1H2.744A1.746,1.746,0,0,0,1,2.744V53.815a1.746,1.746,0,0,0,1.744,1.744Z" transform="translate(99.076 17.084)" fill="#5ab3b3" />
        <g transform="translate(103.038 42.764)">
            <path d="M4.572,1H0A1,1,0,0,1-1,0,1,1,0,0,1,0-1H4.572a1,1,0,0,1,1,1A1,1,0,0,1,4.572,1Z" fill="#5ab3b3" />
            <path d="M4.572,1H0A1,1,0,0,1-1,0,1,1,0,0,1,0-1H4.572a1,1,0,0,1,1,1A1,1,0,0,1,4.572,1Z" transform="translate(0 5.114)" fill="#5ab3b3" />
        </g>
        <path d="M2.744-1h7.01A3.748,3.748,0,0,1,13.5,2.744V53.815a3.748,3.748,0,0,1-3.744,3.744H2.744A3.748,3.748,0,0,1-1,53.815V2.744A3.748,3.748,0,0,1,2.744-1Zm7.01,56.559A1.746,1.746,0,0,0,11.5,53.815V2.744A1.746,1.746,0,0,0,9.754,1H2.744A1.746,1.746,0,0,0,1,2.744V53.815a1.746,1.746,0,0,0,1.744,1.744Z" transform="translate(134.47 17.084)" fill="#5ab3b3" />
        <path d="M2.744-1h7.01A3.748,3.748,0,0,1,13.5,2.744V53.815a3.748,3.748,0,0,1-3.744,3.744H2.744A3.748,3.748,0,0,1-1,53.815V2.744A3.748,3.748,0,0,1,2.744-1Zm7.01,56.559A1.746,1.746,0,0,0,11.5,53.815V2.744A1.746,1.746,0,0,0,9.754,1H2.744A1.746,1.746,0,0,0,1,2.744V53.815a1.746,1.746,0,0,0,1.744,1.744Z" transform="translate(116.334 17.084)" fill="#5ab3b3" />
        <g transform="translate(138.433 42.764)">
            <path d="M4.572,1H0A1,1,0,0,1-1,0,1,1,0,0,1,0-1H4.572a1,1,0,0,1,1,1A1,1,0,0,1,4.572,1Z" fill="#5ab3b3" />
            <path d="M4.572,1H0A1,1,0,0,1-1,0,1,1,0,0,1,0-1H4.572a1,1,0,0,1,1,1A1,1,0,0,1,4.572,1Z" transform="translate(0 5.114)" fill="#5ab3b3" />
        </g>
        <g transform="translate(120.296 42.764)">
            <path d="M4.572,1H0A1,1,0,0,1-1,0,1,1,0,0,1,0-1H4.572a1,1,0,0,1,1,1A1,1,0,0,1,4.572,1Z" fill="#5ab3b3" />
            <path d="M4.572,1H0A1,1,0,0,1-1,0,1,1,0,0,1,0-1H4.572a1,1,0,0,1,1,1A1,1,0,0,1,4.572,1Z" transform="translate(0 5.114)" fill="#5ab3b3" />
        </g>
        <path d="M0-1H32.255a1,1,0,0,1,1,1V6.845a1,1,0,0,1-1,1H0a1,1,0,0,1-1-1V0A1,1,0,0,1,0-1ZM31.255,1H1V5.845H31.255Z" transform="translate(6.366 49.652)" fill="#5ab3b3" />
        <path d="M0,17.826a1.007,1.007,0,0,1-.162-.013,1,1,0,0,1-.826-1.148L1.756-.161A1,1,0,0,1,2.9-.987,1,1,0,0,1,3.73.161L.987,16.986A1,1,0,0,1,0,17.826Z" transform="translate(33.121 56.498)" fill="#5ab3b3" />
        <path d="M2.742,17.826a1,1,0,0,1-.986-.839L-.987.161A1,1,0,0,1-.161-.987,1,1,0,0,1,.987-.161L3.73,16.665a1,1,0,0,1-.988,1.161Z" transform="translate(9.122 56.498)" fill="#5ab3b3" />
        <path d="M0,30.2a1,1,0,0,1-1-1V0A1,1,0,0,1,0-1,1,1,0,0,1,1,0V29.2A1,1,0,0,1,0,30.2Z" transform="translate(22.493 16.285)" fill="#5ab3b3" />
        <g transform="translate(22.493 18.244)">
            <path d="M-178.235,11.414a11.8,11.8,0,0,1,3.088.411,1,1,0,0,1,.7.7,11.817,11.817,0,0,1,.043,6.008,11.72,11.72,0,0,1-3.07,5.379,11.662,11.662,0,0,1-8.3,3.438,11.8,11.8,0,0,1-3.088-.411,1,1,0,0,1-.7-.7,11.817,11.817,0,0,1-.043-6.008,11.719,11.719,0,0,1,3.07-5.379A11.662,11.662,0,0,1-178.235,11.414Zm2,2.205a9.806,9.806,0,0,0-2-.205,9.675,9.675,0,0,0-6.887,2.852,9.719,9.719,0,0,0-2.547,4.46,9.815,9.815,0,0,0-.1,4.422,9.806,9.806,0,0,0,2,.205,9.675,9.675,0,0,0,6.887-2.852,9.719,9.719,0,0,0,2.547-4.46A9.815,9.815,0,0,0-176.239,13.62Z" transform="translate(188.973 -12.414)" fill="#5ab3b3" />
            <path d="M0,7.594A1,1,0,0,1-.707,7.3a1,1,0,0,1,0-1.414L5.887-.707a1,1,0,0,1,1.414,0A1,1,0,0,1,7.3.707L.707,7.3A1,1,0,0,1,0,7.594Z" transform="translate(0.376 6.97)" fill="#5ab3b3" />
        </g>
        <g transform="translate(8.554 27.388)">
            <path d="M-171.807,20.576h0a11.663,11.663,0,0,1,8.3,3.437,11.726,11.726,0,0,1,3.07,5.379,11.812,11.812,0,0,1-.043,6.009,1,1,0,0,1-.7.7,11.8,11.8,0,0,1-3.086.41,11.663,11.663,0,0,1-8.3-3.437A11.727,11.727,0,0,1-175.64,27.7a11.814,11.814,0,0,1,.044-6.009,1,1,0,0,1,.7-.7A11.8,11.8,0,0,1-171.807,20.576Zm9.534,13.735a9.811,9.811,0,0,0-.1-4.422,9.724,9.724,0,0,0-2.547-4.461,9.676,9.676,0,0,0-6.887-2.852h0a9.805,9.805,0,0,0-1.995.2,9.812,9.812,0,0,0,.1,4.422,9.726,9.726,0,0,0,2.546,4.461,9.676,9.676,0,0,0,6.887,2.851A9.81,9.81,0,0,0-162.274,34.31Z" transform="translate(175.008 -21.576)" fill="#5ab3b3" />
            <path d="M6.594,7.594A1,1,0,0,1,5.887,7.3L-.707.707a1,1,0,0,1,0-1.414,1,1,0,0,1,1.414,0L7.3,5.887a1,1,0,0,1-.707,1.707Z" transform="translate(6.97 6.97)" fill="#5ab3b3" />
        </g>
        <g transform="translate(337.363 393.301) rotate(180)">
            <path d="M135.221,127.56H16a16,16,0,0,1-16-16V16A16,16,0,0,1,16,0h119.22a16,16,0,0,1,16,16V111.56a16,16,0,0,1-16,16ZM32.8,28.8a4.005,4.005,0,0,0-4,4V94.756a4.005,4.005,0,0,0,4,4h85.612a4,4,0,0,0,4-4V32.8a4,4,0,0,0-4-4Z" transform="translate(0 0)" fill="#bfe2e2" />
            <path d="M135.221,128.06H16A16.5,16.5,0,0,1-.5,111.56V16A16.5,16.5,0,0,1,16-.5h119.22a16.5,16.5,0,0,1,16.5,16.5V111.56a16.5,16.5,0,0,1-16.5,16.5ZM16,.5A15.5,15.5,0,0,0,.5,16V111.56A15.5,15.5,0,0,0,16,127.06h119.22a15.5,15.5,0,0,0,15.5-15.5V16A15.5,15.5,0,0,0,135.221.5ZM118.417,99.256H32.8a4.506,4.506,0,0,1-4.5-4.5V32.8a4.506,4.506,0,0,1,4.5-4.5h85.612a4.505,4.505,0,0,1,4.5,4.5V94.756A4.505,4.505,0,0,1,118.417,99.256ZM32.8,29.3a3.5,3.5,0,0,0-3.5,3.5V94.756a3.5,3.5,0,0,0,3.5,3.5h85.612a3.5,3.5,0,0,0,3.5-3.5V32.8a3.5,3.5,0,0,0-3.5-3.5Z" transform="translate(0 0)" fill="rgba(0,0,0,0)" />
        </g>
        <path d="M13.172,115.2c6.637-.351,14.395-5.062,14.345-12.311-.036-5.267-.741-10.448-.5-15.737a42.379,42.379,0,0,1,2.543-12.342c1.373-3.829,4.689-7.313,5.227-11.306a16.791,16.791,0,0,0-1.449-8.337c-1.323-2.844-.76-2.667,1-5.354a67.556,67.556,0,0,0,8.39-16.673c2.749-8.726,4.1-18.73,1.8-27.723C44.23,4.27,43.59.129,41.962.006c-1.818-.138-.734,2.155-.558,2.914,1.123,4.843,2.113,9.076,1.9,14.136C42.5,36.581,30.042,50.7,22.775,67.963c-.405.893-1.237,3.007-1.823,4.405-.925,2.208-1.658,6.3-3.044,8.011-2.611,3.222-.545-2.921-.094-4.1.57-1.491,1.2-3.079,1.809-4.4,2.766-6.1,5.867-12.775,8.725-19.067C12.935,50.968,4.236,70.178,1.447,82.5c-2.3,10.152-3.871,33.487,11.725,32.7" transform="matrix(-0.995, -0.105, 0.105, -0.995, 79.326, 294.55)" fill="#bfe2e2" />
        <path d="M22.943.059c11.1.88,18.218,8.2,21.534,18.441,1.787,5.518,1.992,11.187,2.985,16.858,1.494,8.532,4.708,15,10.99,21.077a21.212,21.212,0,0,1,4.4,5.883,25.06,25.06,0,0,1,5.079,7.258c1.653,3.648,2.121,8.025.212,11.662a11.955,11.955,0,0,1-3.12,3.832,75.1,75.1,0,0,1,7.39,33.735c-.186,6.985-.527,13.972-.925,20.948-.107,1.873-.717,4.966-1.633,1.825-.839-2.873.213-7.384.31-10.386.473-14.623.878-27.92-5.142-41.582q-.947-2.148-2-4.262a1.414,1.414,0,0,1-.117-.08c-.027.02-.051.043-.077.063-.045-.079-.105-.174-.177-.28a3.769,3.769,0,0,1-.54-.758,5.5,5.5,0,0,1-1.141-2.085s0-.009,0-.013A196.87,196.87,0,0,0,48.619,64.729c.033.041-4.729-6.442-3.993-2.857.355,1.728,3.857,5.018,5.272,6.848A170.616,170.616,0,0,1,59.756,82.94,7.18,7.18,0,0,1,61.167,85.2c.232.437.448.879.661,1.263-10.82,3.575-19.237-3.626-24.976-12l-.02-.03a36.394,36.394,0,0,0-5.771-6.442C27.332,64.937,23.339,64.4,18.942,62.9,6.952,58.8,1.854,43.26.235,31.73-1.592,18.722,7.344-1.224,22.943.059" transform="translate(-33.632 160.247)" fill="#bfe2e2" />
        <path d="M47.684,147.163C34.758,137.012,27.023,121.5,20.558,106.8,13.338,90.387,7.716,73.478,5.1,55.725,3.376,44.061,1.407,32.357.45,20.6A125.316,125.316,0,0,1,.02,8.028c.007-.344.19-9.7,1.895-7.765.97,1.1-.172,9.7-.152,11.1A179.914,179.914,0,0,0,3.893,34.94C5.781,47.807,7.2,60.672,10.311,73.32a43.842,43.842,0,0,0,1.619,5.689c.763,1.924.026,1.141,1.71,1.709,1.637.552,3.511.177,5.233.916C25.7,84.565,30.3,93.914,33.709,99.994a124.435,124.435,0,0,1,9.222,22.095A163.371,163.371,0,0,1,47.5,138.883a44.967,44.967,0,0,0,1.268,5.429,12.555,12.555,0,0,1,.808,1.681c.09.908-.38,1.515-.318,2.279q-.8-.538-1.572-1.109" transform="translate(37.967 276.246) rotate(-172)" fill="#bfe2e2" />
        <path d="M70.977,0A35.488,35.488,0,0,1,35.488,35.488,35.488,35.488,0,0,1,0,0" transform="translate(2.342 281.782)" fill="#bfe2e2" />
        <path d="M37.182,0a5.448,5.448,0,0,0-3.719,1.307,7.463,7.463,0,0,0-2,3.221,27.744,27.744,0,0,0-1.056,8,32.37,32.37,0,0,1-1.144,8.624,15.523,15.523,0,0,1-1.732,3.777A15.255,15.255,0,0,1,24.588,28.3c-.6.518-1.24,1.012-1.859,1.49-.552.426-1.123.866-1.663,1.322l-.258.217c-1.736,1.459-3.531,2.967-3.751,5.353a3.714,3.714,0,0,0,.635,2.9,2.748,2.748,0,0,0,2.15.764,8.843,8.843,0,0,0,1.827-.224c.1-.021.354-.119.711-.254a13.955,13.955,0,0,1,3.633-1.032c.279,0,.463.063.546.187a.543.543,0,0,1-.024.508c-.21.5-.93.949-2.142,1.323-2.437.265-4.738.5-6.108.5a4.536,4.536,0,0,1-.886-.063,13.434,13.434,0,0,1-6.538-3.644,23.219,23.219,0,0,1-4.512-6.507A49.707,49.707,0,0,1,2.162,15.929c-.1-.881-.2-1.835-.286-2.917H0A63.276,63.276,0,0,0,.7,20.04a45.109,45.109,0,0,0,4.958,14.5A21.519,21.519,0,0,0,10.5,40.435a13.468,13.468,0,0,0,6.722,3.016,9.952,9.952,0,0,0,1.084.04c.705,0,1.555-.027,2.392-.076a6.241,6.241,0,0,0,2.653.783c.371.027.752.041,1.131.041a19.255,19.255,0,0,0,6.4-1.172,27.554,27.554,0,0,0,6.11-3.108,31.886,31.886,0,0,0,5.281-4.431,26.783,26.783,0,0,0,3.909-5.143,19.845,19.845,0,0,0,2.437-9.9,32.036,32.036,0,0,0-1.706-10.173,23.293,23.293,0,0,0-3.42-6.722C41.651,1.236,39.559.027,37.27,0Z" transform="translate(36.859 294.908) rotate(180)" fill="#bfe2e2" />
        <g transform="translate(213 30)">
            <g transform="translate(7 17)">
                <path d="M0,0,8.262,38.51C3.655,43.919.536,50.548,1.057,57.974c1.5,21.4,31.292,16.692,37.086,5.891s5.107-38.2-2.382-40.129c-2.987-.77-9.349,1.116-15.825,5.019L24,0Z" transform="translate(42 73) rotate(180)" fill="#b28b67" />
            </g>
            <path d="M.224,11.16A5.191,5.191,0,0,1,3.86,7.474,4.788,4.788,0,0,1,5.2,7.341c.161.006.206.053.282-.06a1.48,1.48,0,0,0,.08-.386,7.282,7.282,0,0,1,.272-.9A7.354,7.354,0,0,1,7.6,3.357,8.929,8.929,0,0,1,12.968.82a7.819,7.819,0,0,1,3.224.44,12.767,12.767,0,0,1,1.565.669c.153.077.648.452.8.427.169-.027.51-.447.647-.553A9.478,9.478,0,0,1,25.128,0c2.392.018,4.7.137,6.69,1.6a13.38,13.38,0,0,1,1.207,1c.2.187.4.382.583.584q.169.183.327.375c.179.218.15.289.4.137a4.973,4.973,0,0,1,3.193-.718,7.146,7.146,0,0,1,1.928.545c.209.09.694.447.917.45s.7-.328.927-.412A7.6,7.6,0,0,1,45.154,3.2a9.948,9.948,0,0,1,3.777,1.485,5.078,5.078,0,0,1,1.4,1.273c.165.227.313.468.5.678.109.123.326.25.384.406a8.3,8.3,0,0,1,1.6-.707,3.944,3.944,0,0,1,2.253.086,8.958,8.958,0,0,1,3.552,2.524,10.086,10.086,0,0,1,1.315,1.766q.268.455.492.934a3.474,3.474,0,0,0,.216.487c.123.179.206.183.429.261a6.93,6.93,0,0,1,2.951,1.976,6.8,6.8,0,0,1,1.528,3.24,1.651,1.651,0,0,0,.061.4c.056.052.284.029.37.039a7.786,7.786,0,0,1,.887.156,7.321,7.321,0,0,1,1.559.561,8.148,8.148,0,0,1,3.994,4.769,9.676,9.676,0,0,1-.151,6.624,6.472,6.472,0,0,1-.492.97c-.118.189-.156.19-.079.388.085.221.241.436.342.651a9.352,9.352,0,0,1,.706,2.215,10.388,10.388,0,0,1,.122,3.829,5.528,5.528,0,0,1-.591,1.68,4.818,4.818,0,0,1-.518.752c-.1.121-.21.237-.323.348a2.155,2.155,0,0,0-.2.189c-.134.172-.162.031-.093.284a11.333,11.333,0,0,0,.451,1.048c.138.355.264.715.378,1.078a15.907,15.907,0,0,1,.55,2.247,7.056,7.056,0,0,1-.5,4.365,4.366,4.366,0,0,1-1.235,1.47,4.584,4.584,0,0,1-.811.493c-.147.07-.335.1-.4.242s.035.457.059.628a10.466,10.466,0,0,1-.123,4.509,6.23,6.23,0,0,1-2.469,3.315,7.683,7.683,0,0,1-7.68.218A8.063,8.063,0,0,1,57.647,59.9c-1.315,1.771-4.022,1.714-5.944,1.21a8.538,8.538,0,0,1-5.424-4.482c-1.514,1.843-4.691,1.245-5.741-.754a4.784,4.784,0,0,1-.484-1.574c-.039-.287-.014-.576-.044-.861a4.449,4.449,0,0,0-.419-1.066,5.886,5.886,0,0,1-.447-2.125,10.789,10.789,0,0,1,.082-1.141,3.921,3.921,0,0,0-.116-1,4.585,4.585,0,0,0,1.941-.243,3.833,3.833,0,0,0,1.5-1.055,8.756,8.756,0,0,0,1.888-3.529c.854-2.8.5-6.149-2.308-7.683-1.31-.715-5.234-.712-6.794-.359-1.64.371-3.5,3.991-3.591,4.331-.057.211-.028.471-.222.611-.425.308-1.126-.227-1.44-.491a5.678,5.678,0,0,1-1.261-1.678,20.755,20.755,0,0,1-1.73-4.243c-.32-1.131-.524-2.3-.942-3.4a5.2,5.2,0,0,0-2.091-2.7,18.409,18.409,0,0,0-3.6-1.456,8.928,8.928,0,0,1-3.327-1.828,4.6,4.6,0,0,1-.571-.636c-.131-.183-.26-.532-.459-.648-.31-.18-.761.288-1.029.458a11.891,11.891,0,0,0-3.311,3.286,20.447,20.447,0,0,0-2.2,3.912,11.313,11.313,0,0,1-1.478,3.263c-.343.385-2.894.618-3.72.282a4.7,4.7,0,0,1-2.029-1.756,2.728,2.728,0,0,1-.23-1.788c.071-.361.217-.7.3-1.052a3.279,3.279,0,0,1,.273-.851A2.1,2.1,0,0,1,3.99,27.812a6.147,6.147,0,0,1-1.414-1.917,8.229,8.229,0,0,1-.732-2.5,3.033,3.033,0,0,1,.405-1.946,5.124,5.124,0,0,1,1.661-1.379A10.807,10.807,0,0,1,1.6,17.552,7.864,7.864,0,0,1,.224,11.16Z" transform="translate(0 0)" fill="#313e58" />
        </g>
        <path d="M38.842,0,1.1,95.015c-8.073,17.321,30.913,28.706,36.846,20.645,13.47-18.3,45.485-90.492,49.5-95.944Z" transform="translate(164.54 380.957) rotate(180)" fill="#9183d8" />
        <path d="M38.563-.653,88.224,19.495l-.381.518C86.454,21.9,81.495,32.253,75.216,45.36c-11.871,24.781-28.129,58.72-36.871,70.6-1.37,1.861-4.311,2.845-8.506,2.845a36.546,36.546,0,0,1-7.694-.915,47.25,47.25,0,0,1-8.129-2.595,36.888,36.888,0,0,1-7.331-4.073A20.45,20.45,0,0,1,1.4,105.829a11.626,11.626,0,0,1-1.861-5.22,11.251,11.251,0,0,1,1.1-5.792Zm48.122,20.6L39.12.653,1.549,95.226a9.929,9.929,0,0,0,.7,10.066c2.209,3.466,6.527,6.69,12.161,9.079a42.051,42.051,0,0,0,15.433,3.43c3.809,0,6.543-.866,7.7-2.438,3.839-5.216,9.49-15.2,17.273-30.52,6.659-13.108,13.78-27.972,19.5-39.916C80.4,32.219,84.919,22.789,86.685,19.949Z" transform="translate(164.54 380.957) rotate(180)" fill="rgba(0,0,0,0)" />
        <path d="M98.447,80.715S51.388,88.382,35.406,91.2C5.035,96.555-3.822,112.9,1.415,148.556H57.372C68.48,145.349,150.2,108.88,150.2,108.88c9.8-4.866,7.976-19.212,6.185-23.938C156.271,84.652,106.81,0,106.81,0L61.035,29.161l37.5,48.118S100.018,80.271,98.447,80.715Z" transform="translate(275.473 371.401) rotate(180)" fill="#b1a8e3" />
        <path d="M57.443,149.056H.983l-.063-.427C-1.8,130.114-.621,117.288,4.625,108.263A30.3,30.3,0,0,1,16.3,96.971c5.022-2.844,11.243-4.893,19.02-6.264,15.63-2.756,61.559-10.243,63.016-10.48A.391.391,0,0,0,98.6,80a4.091,4.091,0,0,0-.49-2.453L60.3,29.035,106.98-.7l.262.449c.124.212,12.507,21.405,24.744,42.362,24.779,42.434,24.831,42.572,24.862,42.654a24.2,24.2,0,0,1,1.2,5.163,29.417,29.417,0,0,1,.088,6.988c-.473,4.15-2.195,9.673-7.714,12.413l-.019.009c-.818.365-81.875,36.52-92.889,39.7Zm-55.6-1H57.3c11.173-3.277,91.393-39.054,92.682-39.629,9.459-4.7,7.672-18.676,5.941-23.28C155,83.464,110.494,7.3,106.641.7L61.767,29.287,98.958,77.011l.022.045c.109.219,1.049,2.176.53,3.346a1.4,1.4,0,0,1-.928.793l-.027.008-.028,0c-.471.077-47.238,7.7-63.035,10.483-15.262,2.691-24.8,8.116-30,17.074C.4,117.515-.757,130.008,1.847,148.056Z" transform="translate(275.473 371.401) rotate(180)" fill="rgba(0,0,0,0)" />
        <path d="M8.182,47.321,39.69,21.54A88.329,88.329,0,0,0,61.5,11.421c1.341-1.357,2.907-4.046-2.911-3.29S46.615,9.419,45.7,7.469s2.5-4.518.729-7.121q-1.77-2.6-14.689,14.289L0,29.793Z" transform="matrix(-0.996, 0.087, -0.087, -0.996, 194.163, 240.434)" fill="#b28b67" />
        <path d="M52.3,87.239S29.869,31.07,25.649,25.714c-2.063-2.618-14.621-9.235-23.1-12.738C-.86,11.57-.184,8.7.791,7.77,8.723.2,16.15,5.58,24.833,7.577,34.346,9.764,31.2-1.453,38.713.159c-1.1,5.17-4.162,15.006-.608,20.281,2.37,3.517,35.209,62.247,35.209,62.247Z" transform="matrix(-0.978, -0.208, 0.208, -0.978, 344.257, 294.224)" fill="#b28b67" />
        <path d="M0,132.017l8.729,2.3q27.887-55.166,89-96.9L72.054,0C30.162,41.024,2.728,84.731,0,132.017Z" transform="matrix(-0.996, 0.087, -0.087, -0.996, 261.647, 239.325)" fill="#edc95a" />
        <path d="M79.211,123.936H0S27.527,53.2,27.527,3.762L51.652,1.673C70.431,33.591,75.5,71.214,79.211,123.936Z" transform="translate(209.708 101.251)" fill="#e4e6ea" />
        <path d="M0,0H70.981S61.2,91.448,60.281,121.623l-5.9,15.517a66.2,66.2,0,0,1-8.4,1.33H44.42C27.593,108.269,3.323,49.888,0,0Z" transform="translate(306.046 240.795) rotate(180)" fill="#ffd964" />
        <path d="M11.83,80.239S12.1,19.405,23.66,0H0Z" transform="translate(296.12 241.201) rotate(180)" fill="#edc95a" />
        <path d="M63.27,151.22S8.663,97.731,0,0H38.608c-6,82.292,31.344,145.28,31.344,145.28Z" transform="translate(324.924 253.545) rotate(180)" fill="#ffd964" />
    </g>
</svg>