<svg xmlns="http://www.w3.org/2000/svg" xmlns:xlink="http://www.w3.org/1999/xlink" width="400"
    height="320" viewBox="0 0 400 320">
    <defs>
        <clipPath>
            <rect width="400" height="320" />
        </clipPath>
    </defs>
    <g clip-path="url(#b)">
        <path
            d="M78.662,46.291c-4.2-6.872-13.288-12.5-21.354-12.5C44.4,33.795,33.94,45.36,33.94,59.627a28.652,28.652,0,0,0,.165,2.967c-.239-.009-.472-.04-.712-.04-12.906,0-23.368,11.565-23.368,25.832a28.586,28.586,0,0,0,.2,3.242A22.2,22.2,0,0,0-.066,110.713v2.349q0,.938.072,1.856c.047.612,0,3.65,0,3.65h34.1v7.419h6.3v13.271H78.662Z"
            transform="translate(321.627 17.735)" fill="#bfe2e2" />
        <rect width="400" height="13" transform="translate(0 307)" fill="#bfe2e2" />
        <path
            d="M183.7,134.877H148.6a1,1,0,0,1,0-2h34.1v-6.869H155.9a1,1,0,0,1,0-2H183.7a1,1,0,0,1,1,1v8.869A1,1,0,0,1,183.7,134.877Z"
            transform="translate(50.141 28.142)" fill="#5bb3b3" />
        <path
            d="M259.992,190.564a1,1,0,0,1-1-1V52.3a1,1,0,0,1,1-1H397.041a1,1,0,0,1,1,1v69.6a1,1,0,1,1-2,0V53.3H260.992V188.563l99.425-.115h0a1,1,0,0,1,0,2l-100.426.116Z"
            transform="translate(-191.848 -0.863)" fill="#5bb3b3" />
        <path
            d="M376.809,138.327a1,1,0,0,1-1-1V58.689a1,1,0,0,1,1-1h49.075a1,1,0,0,1,0,2H377.809v77.638A1,1,0,0,1,376.809,138.327Z"
            transform="translate(-357.74 -0.134)" fill="#5bb3b3" />
        <path
            d="M0-1H37.83a1,1,0,0,1,1,1V36.492a1,1,0,0,1-1,1H0a1,1,0,0,1-1-1V0A1,1,0,0,1,0-1ZM36.83,1H1V35.492H36.83Z"
            transform="translate(137.185 74.322)" fill="#5bb3b3" />
        <path
            d="M0-1H79.82a1,1,0,0,1,1,1V36.492a1,1,0,0,1-1,1H0a1,1,0,0,1-1-1V0A1,1,0,0,1,0-1ZM78.82,1H1V35.492H78.82Z"
            transform="translate(95.195 116.467)" fill="#5bb3b3" />
        <path
            d="M0-1H37.83a1,1,0,0,1,1,1V36.492a1,1,0,0,1-1,1H0a1,1,0,0,1-1-1V0A1,1,0,0,1,0-1ZM36.83,1H1V35.492H36.83Z"
            transform="translate(94.262 74.322)" fill="#5bb3b3" />
        <path
            d="M414.937,144.194H376.961a1,1,0,0,1-1-1V89.981a1,1,0,0,1,1-1h38.263a1,1,0,0,1,0,2H377.961v51.214h36.976a1,1,0,0,1,0,2Z"
            transform="translate(-347.25 3.436)" fill="#5bb3b3" />
        <path d="M29.148,1H0A1,1,0,0,1-1,0,1,1,0,0,1,0-1H29.148a1,1,0,0,1,1,1A1,1,0,0,1,29.148,1Z"
            transform="translate(0.149 137.761)" fill="#5bb3b3" />
        <path d="M67.4,1H0A1,1,0,0,1-1,0,1,1,0,0,1,0-1H67.4a1,1,0,0,1,1,1A1,1,0,0,1,67.4,1Z"
            transform="translate(0.74 160.229)" fill="#5bb3b3" />
        <path d="M188.76,1H0A1,1,0,0,1-1,0,1,1,0,0,1,0-1H188.76a1,1,0,0,1,1,1A1,1,0,0,1,188.76,1Z"
            transform="translate(0.74 249.229)" fill="#5bb3b3" />
        <path d="M0,49.967a1,1,0,0,1-1-1V0A1,1,0,0,1,0-1,1,1,0,0,1,1,0V48.967A1,1,0,0,1,0,49.967Z"
            transform="translate(73.89 189.309)" fill="#5bb3b3" />
        <path
            d="M444.027,226.919H383.383a1,1,0,0,1,0-2h59.643V160.684H383.178a1,1,0,0,1,0-2h60.848a1,1,0,0,1,1,1v66.235A1,1,0,0,1,444.027,226.919Z"
            transform="translate(-382.978 11.388)" fill="#5bb3b3" />
        <path d="M0,20.58a1,1,0,0,1-1-1V0A1,1,0,0,1,0-1,1,1,0,0,1,1,0V19.58A1,1,0,0,1,0,20.58Z"
            transform="translate(157.672 189.27)" fill="#5bb3b3" />
        <path d="M0,17.979a1,1,0,0,1-1-1V0A1,1,0,0,1,0-1,1,1,0,0,1,1,0V16.979A1,1,0,0,1,0,17.979Z"
            transform="translate(147.199 188.664)" fill="#5bb3b3" />
        <path d="M0,21.065a1,1,0,0,1-1-1V0A1,1,0,0,1,0-1,1,1,0,0,1,1,0V20.065A1,1,0,0,1,0,21.065Z"
            transform="translate(136.726 188.664)" fill="#5bb3b3" />
        <path d="M0,24.631a1,1,0,0,1-1-1V0A1,1,0,0,1,0-1,1,1,0,0,1,1,0V23.631A1,1,0,0,1,0,24.631Z"
            transform="translate(126.254 188.664)" fill="#5bb3b3" />
        <path d="M0,21.777a1,1,0,0,1-1-1V0A1,1,0,0,1,0-1,1,1,0,0,1,1,0V20.777A1,1,0,0,1,0,21.777Z"
            transform="translate(115.781 188.664)" fill="#5bb3b3" />
        <path d="M0,32.664a1,1,0,0,1-1-1V0A1,1,0,0,1,0-1,1,1,0,0,1,1,0V31.664A1,1,0,0,1,0,32.664Z"
            transform="translate(105.308 188.664)" fill="#5bb3b3" />
        <path d="M0,31.579a1,1,0,0,1-1-1V0A1,1,0,0,1,0-1,1,1,0,0,1,1,0V30.579A1,1,0,0,1,0,31.579Z"
            transform="translate(94.836 188.664)" fill="#5bb3b3" />
        <path d="M0,38.18a1,1,0,0,1-1-1V0A1,1,0,0,1,0-1,1,1,0,0,1,1,0V37.18A1,1,0,0,1,0,38.18Z"
            transform="translate(84.363 188.664)" fill="#5bb3b3" />
        <path d="M37.223,1H0A1,1,0,0,1-1,0,1,1,0,0,1,0-1H37.223a1,1,0,0,1,1,1A1,1,0,0,1,37.223,1Z"
            transform="translate(30.69 120.354)" fill="#5bb3b3" />
        <path d="M0,26.218a1,1,0,0,1-1-1V0A1,1,0,0,1,0-1,1,1,0,0,1,1,0V25.218A1,1,0,0,1,0,26.218Z"
            transform="translate(47.813 93.628)" fill="#5bb3b3" />
        <path d="M0,1.165a1,1,0,0,1-1-1,1,1,0,0,1,1-1L59.177-1a1,1,0,0,1,1,1,1,1,0,0,1-1,1L0,1.165Z"
            transform="translate(0.947 178.492)" fill="#5bb3b3" />
        <path d="M0,1.165a1,1,0,0,1-1-1,1,1,0,0,1,1-1L59.177-1a1,1,0,0,1,1,1,1,1,0,0,1-1,1L0,1.165Z"
            transform="translate(0.947 186.96)" fill="#5bb3b3" />
        <path d="M0,1.165a1,1,0,0,1-1-1,1,1,0,0,1,1-1L59.177-1a1,1,0,0,1,1,1,1,1,0,0,1-1,1L0,1.165Z"
            transform="translate(0.947 195.428)" fill="#5bb3b3" />
        <path d="M0,1.165a1,1,0,0,1-1-1,1,1,0,0,1,1-1L59.177-1a1,1,0,0,1,1,1,1,1,0,0,1-1,1L0,1.165Z"
            transform="translate(0.947 203.896)" fill="#5bb3b3" />
        <path d="M0,1.165a1,1,0,0,1-1-1,1,1,0,0,1,1-1L59.177-1a1,1,0,0,1,1,1,1,1,0,0,1-1,1L0,1.165Z"
            transform="translate(0.947 212.364)" fill="#5bb3b3" />
        <path d="M0,1.165a1,1,0,0,1-1-1,1,1,0,0,1,1-1L59.177-1a1,1,0,0,1,1,1,1,1,0,0,1-1,1L0,1.165Z"
            transform="translate(0.947 220.832)" fill="#5bb3b3" />
        <path d="M0,1.165a1,1,0,0,1-1-1,1,1,0,0,1,1-1L59.177-1a1,1,0,0,1,1,1,1,1,0,0,1-1,1L0,1.165Z"
            transform="translate(0.947 229.3)" fill="#5bb3b3" />
        <path
            d="M131.982,1H0A1,1,0,0,1-1,0,1,1,0,0,1,0-1H131.982a1,1,0,0,1,1,1A1,1,0,0,1,131.982,1Z"
            transform="translate(222.632 137.186)" fill="#5bb3b3" />
        <path
            d="M0-1H48.483a1,1,0,0,1,1,1V8.869a1,1,0,0,1-1,1H0a1,1,0,0,1-1-1V0A1,1,0,0,1,0-1ZM47.483,1H1V7.869H47.483Z"
            transform="translate(293.789 153.148)" fill="#5bb3b3" />
        <path
            d="M0-1H48.483a1,1,0,0,1,1,1V8.869a1,1,0,0,1-1,1H0a1,1,0,0,1-1-1V0A1,1,0,0,1,0-1ZM47.483,1H1V7.869H47.483Z"
            transform="translate(239.984 153.148)" fill="#5bb3b3" />
        <path
            d="M178.647,150.566H45.613a1,1,0,0,1,0-2h132.07l1.11-30.519H35.561a1,1,0,0,1,0-2H179.83a1,1,0,0,1,1,1.036L179.646,149.6A1,1,0,0,1,178.647,150.566Z"
            transform="translate(181.954 27.233)" fill="#5bb3b3" />
        <path
            d="M166.747,161.943H42.294a1,1,0,0,1,0-2H165.747v-6.869H38.215a1,1,0,1,1,0-2H166.747a1,1,0,0,1,1,1v8.869A1,1,0,0,1,166.747,161.943Z"
            transform="translate(192.081 31.229)" fill="#5bb3b3" />
        <path d="M0,7.759a1,1,0,0,1-1-1V0A1,1,0,0,1,0-1,1,1,0,0,1,1,0V6.759A1,1,0,0,1,0,7.759Z"
            transform="translate(349.958 193.946)" fill="#5bb3b3" />
        <path d="M0,14.014a1,1,0,0,1-1-1V0A1,1,0,0,1,0-1,1,1,0,0,1,1,0V13.014A1,1,0,0,1,0,14.014Z"
            transform="translate(337.941 192.214)" fill="#5bb3b3" />
        <path d="M0,25.042a1,1,0,0,1-1-1V0A1,1,0,0,1,0-1,1,1,0,0,1,1,0V24.042A1,1,0,0,1,0,25.042Z"
            transform="translate(325.147 192.435)" fill="#5bb3b3" />
        <path d="M0,21.766a1,1,0,0,1-1-1V0A1,1,0,0,1,0-1,1,1,0,0,1,1,0V20.766A1,1,0,0,1,0,21.766Z"
            transform="translate(312.683 193.946)" fill="#5bb3b3" />
        <path d="M0,21.733a1,1,0,0,1-1-1V0A1,1,0,0,1,0-1,1,1,0,0,1,1,0V20.733A1,1,0,0,1,0,21.733Z"
            transform="translate(300.664 192.214)" fill="#5bb3b3" />
        <path d="M0,14.455a1,1,0,0,1-1-1V0A1,1,0,0,1,0-1,1,1,0,0,1,1,0V13.455A1,1,0,0,1,0,14.455Z"
            transform="translate(287.872 192.435)" fill="#5bb3b3" />
        <path d="M0,14.927a1,1,0,0,1-1-1V0A1,1,0,0,1,0-1,1,1,0,0,1,1,0V13.927A1,1,0,0,1,0,14.927Z"
            transform="translate(276.51 193.946)" fill="#5bb3b3" />
        <path d="M0,27.468a1,1,0,0,1-1-1V0A1,1,0,0,1,0-1,1,1,0,0,1,1,0V26.468A1,1,0,0,1,0,27.468Z"
            transform="translate(264.492 192.214)" fill="#5bb3b3" />
        <path d="M0,26.806a1,1,0,0,1-1-1V0A1,1,0,0,1,0-1,1,1,0,0,1,1,0V25.806A1,1,0,0,1,0,26.806Z"
            transform="translate(251.7 192.435)" fill="#5bb3b3" />
        <path d="M0,28.6a1,1,0,0,1-1-1V0A1,1,0,0,1,0-1,1,1,0,0,1,1,0V27.6A1,1,0,0,1,0,28.6Z"
            transform="translate(239.014 193.946)" fill="#5bb3b3" />
        <path
            d="M1.243,184.615a1,1,0,0,1-1-.989c-.005-.5-.542-49.831,0-64.6a53.432,53.432,0,0,1,.408-6.713,46.657,46.657,0,0,1,1.673-8.054A26.635,26.635,0,0,1,5.886,96.7a14.265,14.265,0,0,1,6.2-5.131,1,1,0,1,1,.758,1.851,12.3,12.3,0,0,0-5.323,4.437,24.659,24.659,0,0,0-3.282,6.99,50.637,50.637,0,0,0-1.991,14.186q0,.022,0,.043c-.541,14.7,0,64.03,0,64.527a1,1,0,0,1-.989,1.011Z"
            transform="translate(387.827 24.432)" fill="#5bb3b3" />
        <path
            d="M37.923,192.579a1,1,0,0,1-1-1v-73.6q0-.04,0-.079a18.619,18.619,0,0,0-1.146-7.231,12.118,12.118,0,0,0-3.528-5.057,13.318,13.318,0,0,0-7.461-2.823,1,1,0,1,1,.181-1.992c7.863.715,11.246,5.408,12.7,9.218a20.412,20.412,0,0,1,1.251,8v73.563A1,1,0,0,1,37.923,192.579Z"
            transform="translate(335.736 25.493)" fill="#5bb3b3" />
        <path
            d="M4.458,98.085a1,1,0,0,1-.955-1.3A27.681,27.681,0,0,1,7.116,89.2a18.85,18.85,0,0,1,4.115-4.325A12.318,12.318,0,0,1,16.153,82.5l.319,1.974h.005a10.719,10.719,0,0,0-4.153,2.078A16.981,16.981,0,0,0,8.7,90.423a25.784,25.784,0,0,0-3.288,6.96A1,1,0,0,1,4.458,98.085Z"
            transform="translate(380.123 23.404)" fill="#5bb3b3" />
        <path d="M0,18.479a1,1,0,0,1-1-1V0A1,1,0,0,1,0-1,1,1,0,0,1,1,0V17.479A1,1,0,0,1,0,18.479Z"
            transform="translate(378.764 92.989)" fill="#5bb3b3" />
        <path
            d="M33.224,107.507a1,1,0,0,1-.985-.834h0a14.866,14.866,0,0,0-2.223-5.179,13.368,13.368,0,0,0-3.759-3.739,14.674,14.674,0,0,0-6.48-2.231A1,1,0,0,1,20,93.536a16.633,16.633,0,0,1,7.4,2.577,15.376,15.376,0,0,1,4.324,4.336,16.593,16.593,0,0,1,2.488,5.894,1,1,0,0,1-.988,1.164Z"
            transform="translate(346.021 24.664)" fill="#5bb3b3" />
        <path
            d="M2.958,8.227a1,1,0,0,1-.926-.621L-.925.379a1,1,0,0,1,.547-1.3,1,1,0,0,1,1.3.547L3.883,6.848a1,1,0,0,1-.925,1.379Z"
            transform="translate(333.733 59.109)" fill="#5bb3b3" />
        <path
            d="M83.287,10.878a18.184,18.184,0,1,1-7.1,1.434A18.122,18.122,0,0,1,83.287,10.878Zm0,34.477A16.238,16.238,0,1,0,71.8,40.6,16.13,16.13,0,0,0,83.287,45.355Z"
            transform="translate(242.124 9.234)" fill="#5bb3b3" />
        <path d="M0,8.809a1,1,0,0,1-1-1V0A1,1,0,0,1,0-1,1,1,0,0,1,1,0V7.809A1,1,0,0,1,0,8.809Z"
            transform="translate(324.147 9.042)" fill="#5bb3b3" />
        <path d="M0,8.809a1,1,0,0,1-1-1V0A1,1,0,0,1,0-1,1,1,0,0,1,1,0V7.809A1,1,0,0,1,0,8.809Z"
            transform="translate(325.411 60.746)" fill="#5bb3b3" />
        <path
            d="M0,6.521a1,1,0,0,1-.707-.293,1,1,0,0,1,0-1.414L4.814-.707a1,1,0,0,1,1.414,0,1,1,0,0,1,0,1.414L.707,6.229A1,1,0,0,1,0,6.521Z"
            transform="translate(340.683 17.765)" fill="#5bb3b3" />
        <path
            d="M0,6.521a1,1,0,0,1-.707-.293,1,1,0,0,1,0-1.414L4.814-.707a1,1,0,0,1,1.414,0,1,1,0,0,1,0,1.414L.707,6.229A1,1,0,0,1,0,6.521Z"
            transform="translate(304.353 54.31)" fill="#5bb3b3" />
        <path d="M0,1.027a1,1,0,0,1-1-1,1,1,0,0,1,1-1L7.805-1a1,1,0,0,1,1,1,1,1,0,0,1-1,1L0,1.027Z"
            transform="translate(295.366 38.9)" fill="#5bb3b3" />
        <path d="M0,1.027a1,1,0,0,1-1-1,1,1,0,0,1,1-1L7.805-1a1,1,0,0,1,1,1,1,1,0,0,1-1,1L0,1.027Z"
            transform="translate(347.119 38.72)" fill="#5bb3b3" />
        <path
            d="M5.54,6.5a1,1,0,0,1-.7-.29L-.7.71A1,1,0,0,1-.71-.7,1,1,0,0,1,.7-.71l5.54,5.5a1,1,0,0,1-.7,1.71Z"
            transform="translate(304.016 17.838)" fill="#5bb3b3" />
        <path
            d="M5.54,6.5a1,1,0,0,1-.7-.29L-.7.71A1,1,0,0,1-.71-.7,1,1,0,0,1,.7-.71l5.54,5.5a1,1,0,0,1-.7,1.71Z"
            transform="translate(341.001 54.256)" fill="#5bb3b3" />
        <path
            d="M2.958,8.227a1,1,0,0,1-.926-.621L-.925.379a1,1,0,0,1,.547-1.3,1,1,0,0,1,1.3.547L3.883,6.848a1,1,0,0,1-.925,1.379Z"
            transform="translate(312.868 11.261)" fill="#5bb3b3" />
        <path
            d="M0,8.2a1,1,0,0,1-.386-.078A1,1,0,0,1-.922,6.815L2.1-.387A1,1,0,0,1,3.406-.922,1,1,0,0,1,3.941.387L.922,7.588A1,1,0,0,1,0,8.2Z"
            transform="translate(332.642 11.358)" fill="#5bb3b3" />
        <path
            d="M0,8.2a1,1,0,0,1-.386-.078A1,1,0,0,1-.922,6.815L2.1-.387A1,1,0,0,1,3.406-.922,1,1,0,0,1,3.941.387L.922,7.588A1,1,0,0,1,0,8.2Z"
            transform="translate(313.897 59.038)" fill="#5bb3b3" />
        <path
            d="M0,3.983a1,1,0,0,1-.925-.618A1,1,0,0,1-.382,2.058L6.834-.924A1,1,0,0,1,8.14-.382,1,1,0,0,1,7.6.924L.382,3.907A1,1,0,0,1,0,3.983Z"
            transform="translate(297.888 47.166)" fill="#5bb3b3" />
        <path
            d="M0,3.983a1,1,0,0,1-.925-.618A1,1,0,0,1-.382,2.058L6.834-.924A1,1,0,0,1,8.14-.382,1,1,0,0,1,7.6.924L.382,3.907A1,1,0,0,1,0,3.983Z"
            transform="translate(345.453 27.448)" fill="#5bb3b3" />
        <path
            d="M7.211,3.994a1,1,0,0,1-.383-.077L-.383.924A1,1,0,0,1-.924-.383,1,1,0,0,1,.383-.924L7.595,2.07a1,1,0,0,1-.384,1.924Z"
            transform="translate(297.642 27.405)" fill="#5bb3b3" />
        <path
            d="M7.211,3.994a1,1,0,0,1-.383-.077L-.383.924A1,1,0,0,1-.924-.383,1,1,0,0,1,.383-.924L7.595,2.07a1,1,0,0,1-.384,1.924Z"
            transform="translate(345.705 47.198)" fill="#5bb3b3" />
        <g transform="translate(78.325 202.479)">
            <path
                d="M157.112,173.4c-2.1-1.813-7.119-4.556-10.053-4.515-5.228.074-10.078,3.867-10.836,8.477-3.592-5.137-13.08-5.731-17.443-1.092-.1-4.73-5.445-8.436-10.753-8.573s-10.271,2.525-13.982,5.91-5.8,2.29-9,6.07c.306-2.591-2.049-1.485-4.822-2.315s-6.327,1.694-7.839,3.923c-1.548-2.06-3.292-4.255-5.941-5.009s-6.235.943-5.866,3.4c-4.419-4.8-11.8-7.282-18.679-6.277s-13.581,2.08-16.05,7.886c-1.642-2.887-7.736-2.437-11.248-1.609s-5.68,4.973-5.507,8.205C7.422,186.4.256,182.5-1.985,183.164c-1.725.515-22.972-11.453-42.708,0s-21,49.479-21,49.479h222.8Z"
                transform="translate(165.702 -167.689)" fill="#bfe2e2" />
        </g>
        <g transform="translate(4 -16)">
            <rect width="133" height="168" transform="translate(164 89)" fill="#ffe491" />
            <path d="M4,4V164H129V4H4M0,0H133V168H0Z" transform="translate(164 89)" fill="#313e58" />
            <rect width="8" height="51" transform="translate(281 253)" fill="#313e58" />
            <rect width="8" height="51" transform="translate(171 253)" fill="#313e58" />
            <rect width="104" height="17" transform="translate(178 133)" fill="#edc95a" />
            <rect width="104" height="45" transform="translate(178 197)" fill="#edc95a" />
            <path
                d="M4.775,21H1.8V6.723H9.98V9.2H4.775v3.682H9.619v2.471H4.775Zm20.957-7.158a7.747,7.747,0,0,1-1.758,5.449,6.517,6.517,0,0,1-5.039,1.9,6.517,6.517,0,0,1-5.039-1.9,7.778,7.778,0,0,1-1.758-5.469A7.672,7.672,0,0,1,13.9,8.378,6.592,6.592,0,0,1,18.955,6.5a6.5,6.5,0,0,1,5.034,1.895A7.767,7.767,0,0,1,25.732,13.842Zm-10.42,0a5.964,5.964,0,0,0,.908,3.6,3.178,3.178,0,0,0,2.715,1.211q3.623,0,3.623-4.814t-3.6-4.824a3.2,3.2,0,0,0-2.725,1.216A5.939,5.939,0,0,0,15.313,13.842Zm16.406-.781H32.7a3.736,3.736,0,0,0,2.119-.479,1.708,1.708,0,0,0,.684-1.5,1.562,1.562,0,0,0-.7-1.445,4.237,4.237,0,0,0-2.163-.43h-.918Zm0,2.461V21H28.691V6.723h4.16a7.12,7.12,0,0,1,4.307,1.06A3.782,3.782,0,0,1,38.555,11a3.788,3.788,0,0,1-.693,2.241A4.588,4.588,0,0,1,35.9,14.779Q39.121,19.594,40.1,21H36.738L33.33,15.521Zm23.8,1.514a3.691,3.691,0,0,1-1.392,3.047A6.045,6.045,0,0,1,50.254,21.2a9.094,9.094,0,0,1-4.043-.859V17.523a16.661,16.661,0,0,0,2.446.908,7.239,7.239,0,0,0,1.831.264,2.6,2.6,0,0,0,1.528-.381,1.3,1.3,0,0,0,.532-1.133,1.251,1.251,0,0,0-.234-.747,2.623,2.623,0,0,0-.688-.63,17.707,17.707,0,0,0-1.851-.967,8.771,8.771,0,0,1-1.963-1.182,4.436,4.436,0,0,1-1.045-1.318,3.762,3.762,0,0,1-.391-1.758A3.69,3.69,0,0,1,47.661,7.6a5.336,5.336,0,0,1,3.55-1.084,8.383,8.383,0,0,1,2.124.264,14.6,14.6,0,0,1,2.114.742l-.977,2.354a14.288,14.288,0,0,0-1.89-.654,6.082,6.082,0,0,0-1.47-.186,1.946,1.946,0,0,0-1.318.4,1.321,1.321,0,0,0-.459,1.045,1.293,1.293,0,0,0,.186.7,2.04,2.04,0,0,0,.591.576,18.268,18.268,0,0,0,1.919,1,7.635,7.635,0,0,1,2.744,1.919A3.745,3.745,0,0,1,55.518,17.035ZM66.846,21l-1.035-3.4H60.605L59.57,21H56.309L61.348,6.664h3.7L70.107,21Zm-1.758-5.937q-1.436-4.619-1.616-5.225t-.259-.957q-.322,1.25-1.846,6.182ZM71.9,21V6.723h3.027V18.5h5.791V21Zm19.521,0H83.2V6.723h8.223V9.2h-5.2v3.135h4.834v2.48H86.23V18.5h5.2Z"
                transform="translate(182.203 102)" fill="#313e58" />
            <path
                d="M101.5,1.5H0A1.5,1.5,0,0,1-1.5,0,1.5,1.5,0,0,1,0-1.5H101.5A1.5,1.5,0,0,1,103,0,1.5,1.5,0,0,1,101.5,1.5Z"
                transform="translate(179.5 160.5)" fill="#313e58" />
            <path
                d="M101.5,1.5H0A1.5,1.5,0,0,1-1.5,0,1.5,1.5,0,0,1,0-1.5H101.5A1.5,1.5,0,0,1,103,0,1.5,1.5,0,0,1,101.5,1.5Z"
                transform="translate(179.5 173)" fill="#313e58" />
            <path
                d="M59,1.5H0A1.5,1.5,0,0,1-1.5,0,1.5,1.5,0,0,1,0-1.5H59A1.5,1.5,0,0,1,60.5,0,1.5,1.5,0,0,1,59,1.5Z"
                transform="translate(179.5 185.5)" fill="#313e58" />
        </g>
        <g transform="translate(2185.803 -1361.992)">
            <g transform="translate(-2082.284 1418)">
                <g transform="translate(11.705 21.067)">
                    <path
                        d="M0,56.957,6.446,26.91C2.852,22.69.418,17.518.824,11.723,2-4.974,25.24-1.3,29.761,7.127s3.984,29.8-1.859,31.31c-2.331.6-7.295-.871-12.347-3.916l3.172,22.436Z"
                        transform="translate(0 0)" fill="#b28b67" />
                </g>
                <path
                    d="M34.069,19.014a24.439,24.439,0,0,0-7.836-.866,13.477,13.477,0,0,0,.954-6.812,20.761,20.761,0,0,0-2.21-6.159A8.426,8.426,0,0,0,23.343,2.63,5.583,5.583,0,0,0,20.7,1.209a7.077,7.077,0,0,0-3.046,0c-.443.093-.84.3-1.275.408s-.661-.163-.984-.443A5.57,5.57,0,0,0,12.49.046a7.487,7.487,0,0,0-3.3.4A6.467,6.467,0,0,0,6.434,2.206,4.614,4.614,0,0,0,5.61,3.469c-.08.192-.093.306-.285.376s-.384.067-.567.129a7.136,7.136,0,0,0-4.1,3.719A11.789,11.789,0,0,0,.01,12.537C.072,14.556,1.9,19.824,3.6,21.746a11.455,11.455,0,0,0,5.919,3.343,16.933,16.933,0,0,0-3.093,5.767,28.222,28.222,0,0,0-1.416,7.005,22.865,22.865,0,0,0,.352,6.906,7.485,7.485,0,0,0,3.347,4.873,15.985,15.985,0,0,0,2.576,1.21,16.957,16.957,0,0,0,2.654.851c1.725.356,3.712.3,5.041-1.078A9.464,9.464,0,0,0,20.335,48.9c.126-.217.2-.36.049-.572a4.093,4.093,0,0,0-.713-.649,6.724,6.724,0,0,1-2.377-4.452c-.212-1.828.279-4.187,2.056-4.984,2.193-.985,4.609.146,6.558,1.2a10.723,10.723,0,0,1,5.2-6.9c2.951-1.484,6.337-1.658,9.369-2.931a5.589,5.589,0,0,0,2.177-1.384,2.815,2.815,0,0,0,.625-1.023,1.656,1.656,0,0,0-.434-1.285C41.545,23.894,36.628,19.795,34.069,19.014Z"
                    transform="translate(0 0)" fill="#313e58" />
            </g>
            <g transform="translate(-2109.593 1570.147)">
                <path d="M0,0,29.361,95.989l14.223,81.632H54.736L39.707,0Z"
                    transform="translate(33.55 0)" fill="#9d7f64" />
                <path
                    d="M21.827,0c1.994,52.7-.353,79.888-.8,84.676S14.469,120.512,0,179.228l11.883-4.081c22.867-53.851,30.66-81.839,33.282-88.91S54.754,50.42,66.063,0Z"
                    transform="translate(1.22 0)" fill="#b28b67" />
                <path d="M0,0,12.484,48.905H50.615L44.929,0Z" transform="translate(29.649 0)"
                    fill="#7468b4" />
                <path d="M3.885,0C-2.276,18.469,1.544,48.905,1.544,48.905H40.455L51.155,0Z"
                    transform="translate(18.742)" fill="#9183d8" />
            </g>
            <g transform="translate(-2133 1485.881)">
                <path
                    d="M.957,70.122c-.871-.537-1.824-2.559.48-4.139,5.741-3.937,14.014-10.826,15.132-13.094C18.855,48.251,26.642,3.041,26.642,3.041l16.3.065s-15.1,48.75-16.3,51.732c-1.805,4.475,2.015,11.289,3.649,14.951-2.575,1.152-3.772-.319-5.081-1.79-1.4-1.568-2.922-3.136-6.385-1.525-4.432,2.062-8.1,5.336-12.465,5.335A10.135,10.135,0,0,1,.957,70.122ZM140.389,26.253,117.405,12.7,124.746,0l22.1,21.562a66.99,66.99,0,0,1,15.808,9.087c.924,1.114,1.93,3.249-2.416,2.294s-8.961-1.765-9.778-.352,1.59,3.579.08,5.43a.571.571,0,0,1-.463.221Q148,38.242,140.389,26.253Z"
                    transform="translate(0 69.537)" fill="#b28b67" />
                <path
                    d="M0,1.741,6.62,0q21.151,41.842,67.5,73.494L54.65,101.872C22.877,70.756,2.069,37.606,0,1.741Z"
                    transform="matrix(0.996, 0.087, -0.087, 0.996, 73.13, 2.426)" fill="#cc7a29" />
                <path
                    d="M0,88.948H60.079S39.2,38.183,39.2,2.7L21.078,0C6.835,22.907,2.813,51.109,0,88.948Z"
                    transform="translate(43.567 0)" fill="#dde3e9" />
                <path
                    d="M0,114.7C6.571,40.569,47.988,0,47.988,0L48,.013,48.009,0h1.183c2.124.073,6.468.263,6.468.263L60.04,12.778c.7,22.887,8.116,92.247,8.116,92.247H28.83q.1,4.77.453,9.67Z"
                    transform="translate(16.258)" fill="#e88a2d" />
                <path
                    d="M11,38.621H.048A199.343,199.343,0,0,1,3.013,0,209.816,209.816,0,0,0,5.656,21.6C7.083,29.332,8.882,35.058,11,38.619Z"
                    transform="translate(45.046 66.712)" fill="rgba(0,0,0,0.1)" />
                <path d="M0,9.028,19.42,0V9.028Z" transform="translate(53.796 72.117)"
                    fill="rgba(255,255,255,0.2)" />
            </g>
        </g>
        <path
            d="M404.488,57.676h0a79.778,79.778,0,0,0-.063-10.022,52.988,52.988,0,0,0-1.246-8.6,22,22,0,0,0-3.092-7.482,8.183,8.183,0,0,0-6.567-3.821c-.78-.028-1.484-.05-2.194-.05-2.695,0-5.737.312-7.861,2.622.269-6.107-3.745-12.114-9.134-13.676A16.929,16.929,0,0,0,369.672,16a14.827,14.827,0,0,0-6.366,1.337,8.9,8.9,0,0,0-4.437,4.33,33.6,33.6,0,0,0-9.324-14.023A29.507,29.507,0,0,0,335.157.416a26.691,26.691,0,0,0-4.7-.416,29.311,29.311,0,0,0-13.215,3.238,31.047,31.047,0,0,0-10.734,9.03,5.309,5.309,0,0,0-.913-3.682,7.4,7.4,0,0,0-6.016-3.078,6.211,6.211,0,0,0-2.068.341,12.413,12.413,0,0,0-5.19,3.806,42.469,42.469,0,0,0-3.924,5.654c-2.085-3.38-5.317-5.317-8.715-5.226a8.6,8.6,0,0,0-2.981.526,10.428,10.428,0,0,0-5.48,5.128V57.3Z"
            transform="translate(-328.726 262.636)" fill="#bfe2e2" />
    </g>
</svg>