<svg xmlns="http://www.w3.org/2000/svg" xmlns:xlink="http://www.w3.org/1999/xlink" width="400"
    height="320" viewBox="0 0 400 320">
    <defs>
        <clipPath>
            <rect width="113.475" height="135.095" fill="#bfe2e2" />
        </clipPath>
        <clipPath>
            <rect width="400" height="320" />
        </clipPath>
    </defs>
    <g clip-path="url(#c)">
        <path
            d="M0,0V182H244V0H0M0-2H244a2,2,0,0,1,2,2V182a2,2,0,0,1-2,2H0a2,2,0,0,1-2-2V0A2,2,0,0,1,0-2Z"
            transform="translate(53 39)" fill="#5bb3b3" />
        <g transform="translate(49.673 -83.923)">
            <path
                d="M26.482,63.026a2.6,2.6,0,0,1-1.727-.591c-.721-.656-.532-1.592.42-2.088L74.515,34.624a2.855,2.855,0,0,1,3.031.29c.721.656.532,1.592-.42,2.088L27.786,62.725a2.839,2.839,0,0,1-1.3.3"
                transform="matrix(0.996, 0.087, -0.087, 0.996, 150.969, 93.018)" fill="#5ab3b3" />
            <path
                d="M26.482,63.526a3.08,3.08,0,0,1-2.063-.722,1.669,1.669,0,0,1-.589-1.465A1.957,1.957,0,0,1,24.945,59.9L74.284,34.181a3.33,3.33,0,0,1,1.535-.359,3.077,3.077,0,0,1,2.063.723,1.669,1.669,0,0,1,.588,1.465,1.956,1.956,0,0,1-1.115,1.435L28.017,63.168A3.327,3.327,0,0,1,26.482,63.526Zm49.337-28.7a2.361,2.361,0,0,0-1.073.246L25.407,60.79a.989.989,0,0,0-.585.678.708.708,0,0,0,.27.6,2.108,2.108,0,0,0,1.39.461,2.325,2.325,0,0,0,1.072-.245L76.894,36.558a.987.987,0,0,0,.585-.677.708.708,0,0,0-.27-.6A2.1,2.1,0,0,0,75.819,34.822Z"
                transform="matrix(0.996, 0.087, -0.087, 0.996, 150.969, 93.018)"
                fill="rgba(0,0,0,0)" />
            <path d="M61.605,31.983,71.932,30.7l-4.047,9.588Z"
                transform="matrix(0.974, 0.225, -0.225, 0.974, 166.76, 85.779)" fill="#5ab3b3" />
            <path d="M72.73,30.092,68.009,41.276l-7.324-9.681Zm-4.969,9.2L71.135,31.3l-8.608,1.073Z"
                transform="matrix(0.974, 0.225, -0.225, 0.974, 166.76, 85.779)" fill="rgba(0,0,0,0)" />
            <path
                d="M33.491,94.155H25.857A1.252,1.252,0,0,1,24.6,92.9V77.528a1.252,1.252,0,0,1,1.253-1.253h7.635a1.253,1.253,0,0,1,1.253,1.253V92.9a1.253,1.253,0,0,1-1.253,1.253"
                transform="translate(146.552 86.307)" fill="#f1b981" />
            <path
                d="M52.853,92.062H45.22a1.253,1.253,0,0,1-1.253-1.253V64.844a1.253,1.253,0,0,1,1.253-1.253h7.634a1.252,1.252,0,0,1,1.253,1.253V90.81a1.252,1.252,0,0,1-1.253,1.253"
                transform="translate(160.961 88.4)" fill="#85cb85" />
            <path
                d="M52.853,86.252H45.22a1.147,1.147,0,0,1-1.253-1V64.588a1.147,1.147,0,0,1,1.253-1h7.634a1.147,1.147,0,0,1,1.253,1V85.255"
                transform="translate(144.115 94.21)" fill="#e88a2d" />
            <path
                d="M72.217,86.068H64.583a1.208,1.208,0,0,1-1.253-1.156V48.161A1.208,1.208,0,0,1,64.583,47h7.635a1.208,1.208,0,0,1,1.253,1.156v36.75a1.208,1.208,0,0,1-1.253,1.156"
                transform="translate(158.445 94.395)" fill="#629d62" />
        </g>
        <path
            d="M-2644.158-1212.718h-62.271a1,1,0,0,1-1-1v-35.614a1,1,0,0,1,1-1,1,1,0,0,1,1,1v34.614h61.271a1,1,0,0,1,1,1A1,1,0,0,1-2644.158-1212.718Z"
            transform="translate(2893.293 1414.525)" fill="#5bb3b3" />
        <path d="M0,16a1,1,0,0,1-1-1V0A1,1,0,0,1,0-1,1,1,0,0,1,1,0V15A1,1,0,0,1,0,16Z"
            transform="translate(193.859 179.16)" fill="#5bb3b3" />
        <path d="M0,24.819a1,1,0,0,1-1-1V0A1,1,0,0,1,0-1,1,1,0,0,1,1,0V23.819A1,1,0,0,1,0,24.819Z"
            transform="translate(200.917 170.338)" fill="#5bb3b3" />
        <path d="M0,10.7a1,1,0,0,1-1-1V0A1,1,0,0,1,0-1,1,1,0,0,1,1,0V9.7A1,1,0,0,1,0,10.7Z"
            transform="translate(208.856 184.453)" fill="#5bb3b3" />
        <path d="M0,16a1,1,0,0,1-1-1V0A1,1,0,0,1,0-1,1,1,0,0,1,1,0V15A1,1,0,0,1,0,16Z"
            transform="translate(215.914 179.16)" fill="#5bb3b3" />
        <path d="M0,24.819a1,1,0,0,1-1-1V0A1,1,0,0,1,0-1,1,1,0,0,1,1,0V23.819A1,1,0,0,1,0,24.819Z"
            transform="translate(222.971 170.338)" fill="#5bb3b3" />
        <path d="M0,16a1,1,0,0,1-1-1V0A1,1,0,0,1,0-1,1,1,0,0,1,1,0V15A1,1,0,0,1,0,16Z"
            transform="translate(230.911 179.16)" fill="#5bb3b3" />
        <path d="M0,21.29a1,1,0,0,1-1-1V0A1,1,0,0,1,0-1,1,1,0,0,1,1,0V20.29A1,1,0,0,1,0,21.29Z"
            transform="translate(237.969 173.867)" fill="#5bb3b3" />
        <path d="M0,7.175a1,1,0,0,1-1-1V0A1,1,0,0,1,0-1,1,1,0,0,1,1,0V6.175A1,1,0,0,1,0,7.175Z"
            transform="translate(245.909 187.982)" fill="#5bb3b3" />
        <path
            d="M0,0V54H80V0H0M0-2H80a2,2,0,0,1,2,2V54a2,2,0,0,1-2,2H0a2,2,0,0,1-2-2V0A2,2,0,0,1,0-2Z"
            transform="translate(178 156)" fill="#5bb3b3" />
        <path
            d="M.809,30.805a1,1,0,0,1-.827-1.561l2.243-3.312a1,1,0,1,1,1.656,1.122L1.637,30.366A1,1,0,0,1,.809,30.805ZM5.3,24.182a1,1,0,0,1-.827-1.561l2.243-3.312a1,1,0,1,1,1.656,1.122L6.124,23.743A1,1,0,0,1,5.3,24.182Zm4.487-6.623A1,1,0,0,1,8.955,16L11.2,12.686a1,1,0,0,1,1.656,1.122l-2.243,3.312A1,1,0,0,1,9.782,17.558Zm4.487-6.623a1,1,0,0,1-.827-1.561l2.243-3.312a1,1,0,1,1,1.656,1.122L15.1,10.5A1,1,0,0,1,14.269,10.935Zm4.487-6.623a1,1,0,0,1-.827-1.561L20.172-.561a1,1,0,0,1,1.389-.267A1,1,0,0,1,21.828.561L19.585,3.873A1,1,0,0,1,18.756,4.312Z"
            transform="translate(89.5 140.5)" fill="#5ab3b3" />
        <path
            d="M27,13a1,1,0,0,1-.406-.086l-3.655-1.625a1,1,0,0,1,.812-1.828l3.655,1.625A1,1,0,0,1,27,13Zm-7.31-3.249a1,1,0,0,1-.406-.086L15.628,8.04a1,1,0,1,1,.812-1.828L20.1,7.837a1,1,0,0,1-.407,1.914ZM12.378,6.5a1,1,0,0,1-.406-.086L8.318,4.791A1,1,0,1,1,9.13,2.963l3.655,1.625A1,1,0,0,1,12.378,6.5ZM5.068,3.253a1,1,0,0,1-.406-.086L1.007,1.542A1,1,0,1,1,1.819-.286L5.475,1.339a1,1,0,0,1-.407,1.914Z"
            transform="translate(175 128)" fill="#5ab3b3" />
        <path
            d="M20,14a1,1,0,0,1-.544-.162L16.1,11.658a1,1,0,0,1,1.09-1.677l3.354,2.18A1,1,0,0,1,20,14ZM13.292,9.64a1,1,0,0,1-.544-.162L9.394,7.3a1,1,0,1,1,1.09-1.677L13.837,7.8a1,1,0,0,1-.546,1.839ZM6.584,5.28a1,1,0,0,1-.544-.162L2.686,2.939a1,1,0,1,1,1.09-1.677L7.13,3.442A1,1,0,0,1,6.584,5.28Z"
            transform="translate(90 72)" fill="#5ab3b3" />
        <path
            d="M14,15a1,1,0,0,1-.707-.293l-2.828-2.828a1,1,0,0,1,1.414-1.414l2.828,2.828A1,1,0,0,1,14,15ZM8.343,9.343a1,1,0,0,1-.707-.293L4.808,6.222A1,1,0,0,1,6.222,4.808L9.05,7.636a1,1,0,0,1-.707,1.707ZM2.686,3.686a1,1,0,0,1-.707-.293L-.707.707a1,1,0,0,1,0-1.414,1,1,0,0,1,1.414,0L3.393,1.979a1,1,0,0,1-.707,1.707Z"
            transform="translate(161 151)" fill="#5ab3b3" />
        <path d="M42,0A42,42,0,1,1,0,42,42,42,0,0,1,42,0Z" transform="translate(97 72)" fill="#fff" />
        <path
            d="M42,2A40.011,40.011,0,0,0,26.431,78.857,40.011,40.011,0,0,0,57.569,5.143,39.748,39.748,0,0,0,42,2m0-2A42,42,0,1,1,0,42,42,42,0,0,1,42,0Z"
            transform="translate(97 72)" fill="#5bb3b3" />
        <g transform="translate(253.533 43.903)">
            <path
                d="M1.814,0A1.674,1.674,0,0,0,.074,1.656c-.42,5.828.978,28.242,3.74,59.957,2.549,29.263,5.565,58.3,7.505,72.264,3.669,26.4,8.007,54.832,12.363,65.514,4.058,9.956,11.348,22.967,21.667,38.67a53.249,53.249,0,0,0,7.751,8.793c2.922,2.774,6.463,5.785,10.239,8.708,3.25,2.514,6.566,4.88,9.34,6.662,2.627,1.688,4.468,2.656,5.051,2.656.13,0,.2-.048.2-.144.106-4.838-1.484-12.244-2.887-18.777-.71-3.308-1.381-6.433-1.754-8.872a61.3,61.3,0,0,0-6.122-18.62A97.907,97.907,0,0,0,55.83,201.3c-4.35-5.4-9.828-11.419-17.475-15.067a29.731,29.731,0,0,0-5.938-1.855,33.29,33.29,0,0,1-5.042-1.478c-.628-.261-1.11-.451-1.463-.589-1.141-.448-1.141-.448-1.276-.962a8.143,8.143,0,0,0-.847-2.033c-1.922-3.522-2.813-7.759-3.675-11.856-.249-1.182-.483-2.3-.74-3.383-2.52-10.647-6.92-43.976-10.7-81.05-1.894-18.577-3.38-35.711-4.3-49.549C3.328,17.706,3.06,7.012,3.579,1.693A1.4,1.4,0,0,0,3.223.583,1.916,1.916,0,0,0,1.814,0Z"
                transform="matrix(-0.985, -0.174, 0.174, -0.985, 104.474, 274.389)" fill="#bfe2e2" />
            <path
                d="M1.814-.5v0A2.422,2.422,0,0,1,3.593.247a1.892,1.892,0,0,1,.484,1.495c-.517,5.291-.248,15.958.8,31.706.919,13.832,2.4,30.96,4.3,49.532,3.777,37.055,8.172,70.357,10.688,80.985.258,1.092.494,2.211.743,3.4.855,4.062,1.738,8.262,3.625,11.72a8.593,8.593,0,0,1,.892,2.145,1.572,1.572,0,0,0,.069.227,5.392,5.392,0,0,0,.907.4c.356.14.84.33,1.472.593a32.921,32.921,0,0,0,4.965,1.453,30.107,30.107,0,0,1,6.038,1.89c7.738,3.691,13.264,9.757,17.649,15.2a98.4,98.4,0,0,1,11.392,17.25,61.79,61.79,0,0,1,6.171,18.77c.371,2.424,1.04,5.542,1.749,8.842,1.408,6.56,3,14,2.9,18.893a.648.648,0,0,1-.7.633c-.706,0-2.5-.92-5.321-2.736-2.785-1.789-6.115-4.164-9.375-6.687-3.79-2.933-7.344-5.955-10.278-8.74a53.729,53.729,0,0,1-7.824-8.881c-10.337-15.73-17.642-28.769-21.712-38.756-4.376-10.733-8.722-39.2-12.395-65.634C8.882,119.979,5.865,90.928,3.315,61.656.551,29.917-.847,7.474-.425,1.62A2.17,2.17,0,0,1,1.814-.5Zm75.62,264.81c.01-4.784-1.523-11.925-2.881-18.246-.712-3.316-1.384-6.447-1.76-8.9a60.809,60.809,0,0,0-6.074-18.47,97.416,97.416,0,0,0-11.278-17.075c-4.315-5.359-9.744-11.324-17.3-14.929a29.359,29.359,0,0,0-5.838-1.819,33.655,33.655,0,0,1-5.119-1.5c-.622-.259-1.1-.447-1.452-.585-1.169-.459-1.379-.542-1.579-1.3a7.689,7.689,0,0,0-.8-1.921c-1.957-3.587-2.856-7.86-3.726-11.993-.248-1.179-.482-2.292-.738-3.371-2.525-10.666-6.928-44.021-10.71-81.114C6.283,64.5,4.8,47.358,3.876,33.514,2.827,17.712,2.56,6.99,3.082,1.645A.905.905,0,0,0,2.852.919,1.43,1.43,0,0,0,1.814.5v0A1.18,1.18,0,0,0,.572,1.692C.154,7.5,1.552,29.88,4.312,61.57c2.548,29.256,5.563,58.286,7.5,72.238,3.665,26.371,8,54.763,12.33,65.394,4.046,9.926,11.321,22.908,21.622,38.584a52.771,52.771,0,0,0,7.677,8.705c2.91,2.763,6.437,5.762,10.2,8.675,3.238,2.506,6.543,4.863,9.3,6.637A26.217,26.217,0,0,0,77.434,264.31Z"
                transform="matrix(-0.985, -0.174, 0.174, -0.985, 104.474, 274.389)"
                fill="rgba(0,0,0,0)" />
            <path
                d="M93.272,126.57c10.157,5.685,21.152-5.045,11.96-10.731-5.081-3.143-10.393-2.025-13.384.594-1.941-1.8-3.758-3.691-5.5-5.284C81.025,106.294,76,101.322,71.193,96.235,61.211,85.667,52.657,74.5,43.713,63.54,34.887,52.722,26.131,41.849,18.131,30.756,11.354,21.359,2.32,10.3,0,0,3.521,21.85,16.879,42.852,32.787,62.115c15.779,19.1,33.886,39.969,58.317,55.046C88.618,119.949,88.549,123.928,93.272,126.57Z"
                transform="matrix(-0.985, -0.174, 0.174, -0.985, 110.729, 296.356)" fill="#bfe2e2" />
            <path
                d="M89.391,0h-5.5c-2.57,8.868-5.689,18.07-9.271,27.35-.461,1.2-.908,2.43-1.38,3.736l-.009.026c-1.649,4.563-3.352,9.276-5.925,13.025a10.657,10.657,0,0,0-1.227,2.2c-.233.568-.233.568-1.439.919-.345.1-.867.252-1.544.465a30.1,30.1,0,0,1-5.217.968,27.012,27.012,0,0,0-6.18,1.274c-8.2,3.076-14.737,9.17-20.055,14.725a120.775,120.775,0,0,0-14.46,18,81.605,81.605,0,0,0-9.648,20.406,171.805,171.805,0,0,0-6.084,24.636c-.05.323-.156.844-.29,1.5l-.013.065c-.656,3.2-1.878,9.168-.571,10.77a1.035,1.035,0,0,0,.835.4,1.518,1.518,0,0,0,.264-.025c4-.717,9.8-6.992,14.467-12.034,1.571-1.7,2.929-3.168,4.046-4.236a161.621,161.621,0,0,0,14.484-15.975A267.558,267.558,0,0,0,60.305,69.917,361.535,361.535,0,0,0,76.443,36.67a324.282,324.282,0,0,0,12.381-34.7c.181-.615.371-1.276.567-1.967Z"
                transform="translate(195.166 271.082) rotate(180)" fill="#bfe2e2" />
            <path
                d="M83.517-.5h6.606l-.258.661c-.214.755-.4,1.392-.562,1.948A324.771,324.771,0,0,1,76.9,36.865a362.04,362.04,0,0,1-16.16,33.293,268.065,268.065,0,0,1-25.679,38.349A162.122,162.122,0,0,1,20.536,124.53c-1.11,1.062-2.46,2.523-4.024,4.214-2.326,2.515-4.962,5.366-7.513,7.671-2.993,2.7-5.359,4.181-7.233,4.517a2.029,2.029,0,0,1-.352.032,1.534,1.534,0,0,1-1.221-.582c-1.345-1.649-.463-6.639.468-11.187l.016-.076c.132-.648.236-1.159.284-1.469a172.255,172.255,0,0,1,6.1-24.707,82.1,82.1,0,0,1,9.706-20.53,121.268,121.268,0,0,1,14.519-18.07c5.356-5.6,11.949-11.736,20.24-14.848a27.4,27.4,0,0,1,6.293-1.3,29.729,29.729,0,0,0,5.131-.949c.646-.2,1.159-.353,1.5-.452l.055-.016a5.632,5.632,0,0,0,.955-.319c.038-.024.056-.054.162-.309A11.1,11.1,0,0,1,66.9,43.855c2.536-3.695,4.228-8.377,5.865-12.906l.011-.033c.51-1.411.936-2.583,1.384-3.746C77.73,17.91,80.844,8.722,83.412-.139Zm5.212,1H84.268c-2.556,8.777-5.644,17.869-9.18,27.03-.444,1.153-.868,2.319-1.375,3.723l-.013.036c-1.658,4.587-3.373,9.331-5.981,13.131a10.193,10.193,0,0,0-1.177,2.108c-.325.791-.517.847-1.762,1.209l-.055.016c-.335.1-.842.245-1.478.445a30.447,30.447,0,0,1-5.3.987,26.663,26.663,0,0,0-6.069,1.246c-8.1,3.041-14.591,9.089-19.869,14.6a120.285,120.285,0,0,0-14.4,17.921,81.114,81.114,0,0,0-9.59,20.283A171.362,171.362,0,0,0,1.948,127.8c-.052.334-.158.856-.293,1.516l-.016.077c-.335,1.633-.793,3.871-1.014,5.939-.313,2.92.013,4.013.341,4.415a.58.58,0,0,0,.624.2c1.684-.3,3.888-1.7,6.738-4.274,2.518-2.275,5.138-5.108,7.449-7.607,1.575-1.7,2.935-3.175,4.067-4.258a161.13,161.13,0,0,0,14.439-15.926A267.063,267.063,0,0,0,59.867,69.676a361.038,361.038,0,0,0,16.116-33.2A323.771,323.771,0,0,0,88.344,1.828C88.461,1.431,88.588.993,88.729.5Z"
                transform="translate(195.166 271.082) rotate(180)" fill="rgba(0,0,0,0)" />
            <path
                d="M91.313,0h-7.94c-.111,2.367-.2,4.635-.263,6.745C82.657,21.45,81.431,36.973,79.247,55.6c-1.58,13.488-4.055,27.129-6.45,40.32l-.006.03c-.368,2.03-.8,4.426-1.232,6.809-1.188,6.612-2.507,13.662-4.276,22.858-.12.616-.219,1.556-.335,2.643l0,.02c-.3,2.856-.718,6.769-1.86,7.9-.92.907-4,1.5-6.969,2.066a29.337,29.337,0,0,0-5.233,1.279,65.656,65.656,0,0,0-14.164,9.05A107.776,107.776,0,0,0,3.989,204.7,134.745,134.745,0,0,0,.01,239.3c.015,1.3.7,6.372,1.568,12.791v.008c2.142,15.833,5.379,39.761,3.157,40.228.178.189.355.395.537.63,2.575-3.946,5.109-7.943,7.029-10.985A448.377,448.377,0,0,0,39.567,231.92a398.432,398.432,0,0,0,20.168-52.756c6.464-21.523,11.049-43.9,15.483-65.532v-.008l.036-.178C82.334,78.895,88.843,45.039,90.7,10.712c.166-3.067.356-6.333.524-9.214L91.313,0Z"
                transform="translate(181.819 296.911) rotate(180)" fill="#bfe2e2" />
            <path
                d="M82.9-.5h8.916V.03l-.086,1.5c-.167,2.878-.357,6.14-.524,9.212-1.861,34.356-8.373,68.234-15.456,102.808l-.042.209c-4.435,21.64-9.021,44.016-15.489,65.552A398.933,398.933,0,0,1,40.02,232.13a448.858,448.858,0,0,1-27.3,50.11c-1.91,3.026-4.435,7.01-7.034,10.992l-.385.589-.43-.557c-.164-.212-.329-.406-.5-.592l-.611-.649.828-.174c.093-.115.467-.81.382-4.424-.057-2.412-.306-5.8-.742-10.07-.806-7.894-2.1-17.479-3.145-25.181l0-.019c-.87-6.433-1.557-11.515-1.572-12.847A135.244,135.244,0,0,1,3.5,204.573a108.274,108.274,0,0,1,34.9-56.391,66.147,66.147,0,0,1,14.274-9.118,29.436,29.436,0,0,1,5.344-1.314l.1.49-.094-.491c2.627-.5,5.9-1.131,6.708-1.93,1.016-1,1.453-5.128,1.714-7.593l.011-.1c.114-1.063.212-1.981.333-2.6,1.777-9.239,3.1-16.286,4.275-22.851.43-2.393.875-4.842,1.232-6.809l.006-.034c2.392-13.18,4.866-26.808,6.444-40.285,2.181-18.6,3.407-34.113,3.859-48.81.064-2.121.153-4.393.263-6.753Zm7.888,1H83.85c-.1,2.184-.181,4.288-.241,6.26-.453,14.727-1.681,30.264-3.865,48.9-1.582,13.509-4.059,27.155-6.454,40.351l-.006.034c-.357,1.967-.8,4.414-1.231,6.8-1.18,6.569-2.5,13.62-4.277,22.864-.113.58-.209,1.479-.32,2.52l-.01.1c-.4,3.8-.832,7.044-2.007,8.2-1.027,1.013-4.036,1.59-7.222,2.2h-.005a29.269,29.269,0,0,0-5.121,1.244,65.157,65.157,0,0,0-14.053,8.982A107.277,107.277,0,0,0,4.473,204.818,134.244,134.244,0,0,0,.51,239.3c.014,1.271.7,6.324,1.563,12.723l0,.015c1.077,7.956,2.416,17.859,3.217,25.894.441,4.427.667,7.744.69,10.14A19.214,19.214,0,0,1,5.82,291.2v.006c2.249-3.469,4.39-6.849,6.06-9.5a447.856,447.856,0,0,0,27.234-50A397.937,397.937,0,0,0,59.256,179.02c6.455-21.493,11.037-43.848,15.467-65.465l.042-.209C81.841,78.81,88.346,44.972,90.2,10.685c.167-3.074.356-6.337.524-9.216Z"
                transform="translate(181.819 296.911) rotate(180)" fill="rgba(0,0,0,0)" />
            <path
                d="M.006,0H0a164.135,164.135,0,0,0,1.01,19c.666,6.087,1.68,12.493,3.012,19.041A315.19,315.19,0,0,0,14.22,75.206c2.74,8.2,5.995,16.652,9.949,25.85,3.258,7.579,6.962,15.6,11.655,25.249.381.784.8,1.6,1.235,2.467l0,.005c1.818,3.585,3.878,7.648,4.553,11.251.405,2.17-.322,4.26-1.092,6.472-.335.962-.681,1.956-.933,2.969-3.059,12.294-3.116,26.553-.161,40.15,1.531,7.045,4.5,12.284,9.075,16.016,4.374,3.568,10.3,5.809,18.108,6.85,5,.666,31.954,27.763,37.306,33.188v-.761c-4.525-8.833-27.222-53.1-29.648-57.159-5.409-9.056-11.111-18.723-16.133-28.579-6.868-13.478-12.308-24.646-17.122-35.144a627.815,627.815,0,0,1-24.435-60.94c-3.565-10.547-6.742-21.071-9.443-31.28C4.309,21.113,1.909,10.411.006,0Z"
                transform="translate(100.831 312.559) rotate(-166)" fill="#bfe2e2" />
            <path
                d="M.414-.537.5-.09C2.4,10.308,4.8,21,7.622,31.681c2.7,10.2,5.871,20.711,9.433,31.247A627.324,627.324,0,0,0,41.47,123.82c4.81,10.492,10.248,21.653,17.113,35.126,5.015,9.843,10.711,19.5,16.116,28.55,2.439,4.083,25.138,48.354,29.664,57.188l.055.107v2.1l-.856-.868c-2.348-2.38-10.64-10.736-18.772-18.365-4.534-4.254-8.34-7.646-11.31-10.084-4.415-3.622-6.208-4.5-6.934-4.595-7.905-1.053-13.91-3.329-18.358-6.958-4.666-3.807-7.691-9.138-9.247-16.3-2.971-13.67-2.913-28.01.164-40.377.257-1.035.607-2.04.946-3.012.748-2.148,1.454-4.177,1.073-6.216-.662-3.531-2.7-7.561-4.508-11.116l0,0c-.439-.866-.854-1.684-1.239-2.475-4.7-9.654-8.4-17.684-11.664-25.271-3.96-9.211-7.219-17.679-9.964-25.889A315.682,315.682,0,0,1,3.537,38.14C2.2,31.577,1.185,25.155.517,19.053A164.633,164.633,0,0,1-.5,0l0-.455ZM102.807,243.839c-5.734-11.189-26.645-51.946-28.966-55.831-5.414-9.064-11.12-18.738-16.149-28.609-6.871-13.485-12.315-24.658-17.131-35.163A628.3,628.3,0,0,1,16.108,63.248C12.539,52.69,9.358,42.156,6.655,31.937,4.323,23.119,2.282,14.3.57,5.637c.131,4.325.446,8.781.942,13.308.665,6.072,1.676,12.463,3.005,19A314.7,314.7,0,0,0,14.694,75.047c2.736,8.183,5.986,16.626,9.934,25.811,3.255,7.572,6.955,15.588,11.645,25.228.381.784.794,1.6,1.231,2.46l0,0c1.833,3.615,3.911,7.713,4.6,11.385.43,2.3-.319,4.451-1.112,6.728-.331.951-.674,1.935-.92,2.925-3.041,12.221-3.1,26.4-.158,39.923,1.506,6.93,4.418,12.077,8.9,15.735,4.3,3.508,10.142,5.713,17.858,6.741,1.262.168,3.694,1.742,7.436,4.813,2.988,2.451,6.81,5.859,11.36,10.128C92.332,233.363,99.145,240.15,102.807,243.839Z"
                transform="translate(100.831 312.559) rotate(-166)" fill="rgba(0,0,0,0)" />
            <path
                d="M56.433,3.72C56.78,1.76,54.955,0,52.576,0H4.69C2.31,0,.486,1.76.833,3.72l3.7,20.9C5.662,30.99,12.228,35.71,19.961,35.71H37.3c7.733,0,14.3-4.72,15.427-11.091Z"
                transform="translate(71.963 261.2)" fill="#bfe2e2" />
        </g>
        <g transform="translate(-3 16)">
            <path
                d="M2846.274-2178.083a2.487,2.487,0,0,1-2.488-2.488v-6.187A16.592,16.592,0,0,1,2835-2201.4a16.6,16.6,0,0,1,16.6-16.6,16.6,16.6,0,0,1,16.595,16.6,16.593,16.593,0,0,1-8.914,14.714v6.12a2.488,2.488,0,0,1-2.488,2.488Z"
                transform="translate(-2708.995 2297.518)" fill="#ffd964" />
            <path
                d="M2856.788-2177.583h-10.514a2.991,2.991,0,0,1-2.988-2.988v-5.89a17.078,17.078,0,0,1-8.787-14.944,16.983,16.983,0,0,1,5.007-12.088,16.982,16.982,0,0,1,12.088-5.007,16.982,16.982,0,0,1,12.088,5.007,16.983,16.983,0,0,1,5.007,12.088,17.058,17.058,0,0,1-2.545,8.979,17.164,17.164,0,0,1-6.369,6.036v5.82A2.991,2.991,0,0,1,2856.788-2177.583ZM2851.6-2217.5a15.989,15.989,0,0,0-11.381,4.714,15.99,15.99,0,0,0-4.714,11.381,16.081,16.081,0,0,0,8.522,14.206l.264.141v6.487a1.99,1.99,0,0,0,1.988,1.988h10.514a1.99,1.99,0,0,0,1.988-1.988v-6.422l.268-.14a16.159,16.159,0,0,0,6.25-5.819,16.057,16.057,0,0,0,2.4-8.453,15.99,15.99,0,0,0-4.714-11.381A15.99,15.99,0,0,0,2851.6-2217.5Z"
                transform="translate(-2708.995 2297.518)" fill="rgba(0,0,0,0)" />
            <path
                d="M0,8.829a1.5,1.5,0,0,1-1.5-1.5V0A1.5,1.5,0,0,1,0-1.5,1.5,1.5,0,0,1,1.5,0V7.329A1.5,1.5,0,0,1,0,8.829Z"
                transform="translate(142.279 67.989)" fill="#ffd964" />
            <path
                d="M5.183,6.683a1.5,1.5,0,0,1-1.061-.439L-1.061,1.061a1.5,1.5,0,0,1,0-2.121,1.5,1.5,0,0,1,2.121,0L6.244,4.123A1.5,1.5,0,0,1,5.183,6.683Z"
                transform="translate(122.512 76.176)" fill="#ffd964" />
            <path
                d="M5.183,6.683a1.5,1.5,0,0,1-1.061-.439L-1.061,1.061a1.5,1.5,0,0,1,0-2.121,1.5,1.5,0,0,1,2.121,0L6.244,4.123A1.5,1.5,0,0,1,5.183,6.683Z"
                transform="translate(156.863 110.528)" fill="#ffd964" />
            <path
                d="M7.329,1.526H7.324L-.005,1.5A1.5,1.5,0,0,1-1.5-.005,1.5,1.5,0,0,1,.005-1.5l7.329.026a1.5,1.5,0,0,1-.005,3Z"
                transform="translate(162.904 96.014)" fill="#ffd964" />
            <path
                d="M7.329,1.526H7.324L-.005,1.5A1.5,1.5,0,0,1-1.5-.005,1.5,1.5,0,0,1,.005-1.5l7.329.026a1.5,1.5,0,0,1-.005,3Z"
                transform="translate(114.324 95.846)" fill="#ffd964" />
            <path
                d="M0,6.665a1.5,1.5,0,0,1-1.064-.443A1.5,1.5,0,0,1-1.057,4.1l5.2-5.165a1.5,1.5,0,0,1,2.121.007,1.5,1.5,0,0,1-.007,2.121L1.057,6.23A1.5,1.5,0,0,1,0,6.665Z"
                transform="translate(156.914 76.245)" fill="#ffd964" />
            <path
                d="M0,6.665a1.5,1.5,0,0,1-1.064-.443A1.5,1.5,0,0,1-1.057,4.1l5.2-5.165a1.5,1.5,0,0,1,2.121.007,1.5,1.5,0,0,1-.007,2.121L1.057,6.23A1.5,1.5,0,0,1,0,6.665Z"
                transform="translate(122.444 110.477)" fill="#ffd964" />
            <path
                d="M39.844,64.309a1,1,0,0,1-1-.992L38.737,49.36a18.365,18.365,0,0,1-3.754-1.2c-1.421-.633-3.927-2.008-4.736-4.109-.447-1.16-.542-2.938,1.543-4.825,1.8-1.629,3.461-2.143,4.934-1.527,1.581.661,2.734,2.609,3.426,5.79a28.577,28.577,0,0,1,.565,4.138c.275.023.541.034.8.034a1,1,0,0,1,0,2c-.25,0-.508-.009-.772-.027l.1,13.666a1,1,0,0,1-.992,1.008Zm-4.36-24.854a4.133,4.133,0,0,0-2.352,1.255c-1.5,1.361-1.139,2.311-1.019,2.623.4,1.044,1.745,2.138,3.683,3a16.407,16.407,0,0,0,2.891.966,26.683,26.683,0,0,0-.5-3.409c-.522-2.385-1.338-3.969-2.238-4.345A1.206,1.206,0,0,0,35.484,39.456Z"
                transform="translate(101.363 52.205)" fill="#313e58" />
            <path
                d="M49.82,64.309h-.008A1,1,0,0,1,48.82,63.3l.1-13.666c-.264.018-.522.027-.772.027a1,1,0,0,1,0-2c.255,0,.521-.012.8-.034a28.577,28.577,0,0,1,.565-4.138c.692-3.181,1.845-5.129,3.426-5.79,1.473-.616,3.134-.1,4.934,1.527,2.085,1.886,1.99,3.665,1.543,4.825-.809,2.1-3.315,3.476-4.736,4.109a18.365,18.365,0,0,1-3.754,1.2L50.82,63.317A1,1,0,0,1,49.82,64.309Zm4.36-24.854a1.205,1.205,0,0,0-.469.09c-.9.378-1.721,1.971-2.243,4.37a26.645,26.645,0,0,0-.491,3.384,16.406,16.406,0,0,0,2.891-.966c1.938-.863,3.281-1.957,3.683-3,.12-.312.486-1.261-1.019-2.623A4.133,4.133,0,0,0,54.18,39.456Z"
                transform="translate(94.872 52.205)" fill="#313e58" />
            <path
                d="M44.993,94.721a1.866,1.866,0,0,1-1.871,0l-3.568-2.07a1.866,1.866,0,0,1,.933-3.482h7.142a1.866,1.866,0,0,1,.933,3.482Z"
                transform="translate(98.478 33.027)" fill="#acb1bc" />
            <path
                d="M34.914,78.5H50.4v8.16A1.243,1.243,0,0,1,49.159,87.9h-13a1.243,1.243,0,0,1-1.244-1.244Z"
                transform="translate(99.878 37.061)" fill="#acb1bc" />
            <path d="M34.914,89.593V88.125L50.4,85.892v1.679L34.933,89.8a1.1,1.1,0,0,1-.019-.206"
                transform="translate(99.878 34.266)" fill="#7a8293" />
            <path d="M34.914,82.212,50.4,79.978v1.679L34.914,83.889Z"
                transform="translate(99.878 36.503)" fill="#7a8293" />
            <rect width="58.397" height="61.255" transform="translate(113.081 66.745)" fill="none" />
        </g>
        <path
            d="M3.448,16.372a1,1,0,0,1-.428-1.9L6.637,12.76a1,1,0,0,1,.854,1.809L3.874,16.276A1,1,0,0,1,3.448,16.372Zm7.234-3.416a1,1,0,0,1-.428-1.9l3.617-1.708a1,1,0,0,1,.854,1.809L11.108,12.86A1,1,0,0,1,10.682,12.956ZM17.916,9.54a1,1,0,0,1-.428-1.9l3.617-1.708a1,1,0,0,1,.854,1.809L18.342,9.444A1,1,0,0,1,17.916,9.54ZM25.15,6.124a1,1,0,0,1-.428-1.9l3.617-1.708a1,1,0,0,1,.854,1.809L25.576,6.028A1,1,0,0,1,25.15,6.124Zm7.234-3.416A1,1,0,0,1,31.956.8L35.573-.9A1,1,0,0,1,36.9-.427,1,1,0,0,1,36.427.9L32.81,2.612A1,1,0,0,1,32.384,2.708Z"
            transform="translate(175.5 76.5)" fill="#5ab3b3" />
        <g transform="translate(-3 8)">
            <ellipse cx="29" cy="20" rx="29" ry="20" transform="translate(63 164)" fill="#ffd964" />
            <path
                d="M138.882,76.2a10.566,10.566,0,0,0-1.463-.543,11.312,11.312,0,0,0-1.466-.333,2.953,2.953,0,0,1-1.184-.423A1.047,1.047,0,0,1,134.25,74a1.029,1.029,0,0,1,.434-.876,1.709,1.709,0,0,1,1.041-.306,1.884,1.884,0,0,1,1.034.267,3.657,3.657,0,0,1,.306.236c.112.094.26.208.429.329a1,1,0,0,0,.611.179,1.341,1.341,0,0,0,1.051-.729,2.358,2.358,0,0,0,.505-1.053c0-.127-.09-.362-.52-.759l-.079-.056-.212-.189a4.2,4.2,0,0,0-.688-.383,5,5,0,0,0-1.117-.373.129.129,0,0,1-.1-.124V68.9a5.892,5.892,0,0,0-.043-.834.8.8,0,0,0-.3-.472,1.271,1.271,0,0,0-.828-.227c-.584,0-.944.155-1.071.461a3.136,3.136,0,0,0-.126,1.051v1.258a.127.127,0,0,1-.1.124,3.8,3.8,0,0,0-2.282,1.347,3.693,3.693,0,0,0-.826,2.346,3.607,3.607,0,0,0,.6,2.148,3.329,3.329,0,0,0,1.471,1.191,12.7,12.7,0,0,0,1.778.569,9.38,9.38,0,0,1,1.547.489.967.967,0,0,1,.706.881c0,.683-.311,1.5-1.788,1.5a2.135,2.135,0,0,1-1.672-.9c-.7-.7-1.1-.85-1.3-.85a1.243,1.243,0,0,0-.866.391c-.6.581-.723.918-.723,1.1a1.723,1.723,0,0,0,.444.977l.293.383a4.435,4.435,0,0,0,1,.8,4.982,4.982,0,0,0,1.62.655.129.129,0,0,1,.1.126V84.8a3.082,3.082,0,0,0,.147,1.1.555.555,0,0,0,.322.334,2.469,2.469,0,0,0,1.41,0,.66.66,0,0,0,.358-.363,2.8,2.8,0,0,0,.133-1.046V83.383a.129.129,0,0,1,.1-.126,4.747,4.747,0,0,0,2.385-1.356,4.322,4.322,0,0,0,.532-4.64,2.5,2.5,0,0,0-1.078-1.061"
                transform="translate(-55.972 107.525)" fill="#7468b4" />
            <path
                d="M148.606,76.2a10.567,10.567,0,0,0-1.463-.543,11.345,11.345,0,0,0-1.465-.333,2.952,2.952,0,0,1-1.186-.423,1.047,1.047,0,0,1-.518-.906,1.029,1.029,0,0,1,.434-.876,1.714,1.714,0,0,1,1.041-.306,1.891,1.891,0,0,1,1.036.267q.141.1.3.236c.112.094.26.208.429.329a1.019,1.019,0,0,0,.611.179,1.341,1.341,0,0,0,1.051-.729,2.358,2.358,0,0,0,.505-1.053c0-.127-.09-.362-.519-.759l-.08-.056-.212-.189a4.2,4.2,0,0,0-.688-.383,4.978,4.978,0,0,0-1.117-.373.128.128,0,0,1-.1-.124V68.9a5.855,5.855,0,0,0-.044-.834.8.8,0,0,0-.3-.472,1.269,1.269,0,0,0-.826-.227c-.585,0-.946.155-1.073.461a3.137,3.137,0,0,0-.126,1.051v1.258a.127.127,0,0,1-.1.124,3.834,3.834,0,0,0-2.17,1.229c-.036.041-.079.075-.112.118a3.693,3.693,0,0,0-.826,2.346,3.607,3.607,0,0,0,.6,2.148,3.756,3.756,0,0,0,.334.358,3.224,3.224,0,0,0,1.137.833,12.758,12.758,0,0,0,1.778.569,9.38,9.38,0,0,1,1.547.489.967.967,0,0,1,.706.881c0,.683-.31,1.5-1.788,1.5a2.135,2.135,0,0,1-1.672-.9c-.7-.7-1.1-.85-1.3-.85a1.052,1.052,0,0,0-.4.089,1.466,1.466,0,0,0-.462.3c-.6.581-.723.918-.723,1.1a1.723,1.723,0,0,0,.444.977l.293.383a2.9,2.9,0,0,0,.448.411c.157.123.335.251.552.39a4.982,4.982,0,0,0,1.62.655.128.128,0,0,1,.1.126V84.8a3.049,3.049,0,0,0,.148,1.1.55.55,0,0,0,.321.334,2.469,2.469,0,0,0,1.41,0,.66.66,0,0,0,.358-.363,2.788,2.788,0,0,0,.135-1.046V83.383a.129.129,0,0,1,.1-.126,4.736,4.736,0,0,0,2.385-1.356,4.322,4.322,0,0,0,.532-4.64,2.5,2.5,0,0,0-1.078-1.061"
                transform="translate(-53.353 107.525)" fill="#7468b4" />
            <path
                d="M159.406,77.261h0a2.49,2.49,0,0,0-1.078-1.061,10.447,10.447,0,0,0-1.463-.543,11.345,11.345,0,0,0-1.465-.333,2.952,2.952,0,0,1-1.185-.423A1.047,1.047,0,0,1,153.7,74a1.029,1.029,0,0,1,.434-.876,1.716,1.716,0,0,1,1.042-.306,1.89,1.89,0,0,1,1.034.267,3.558,3.558,0,0,1,.3.235c.112.1.26.209.429.33a1.02,1.02,0,0,0,.612.179,1.339,1.339,0,0,0,1.05-.729,2.369,2.369,0,0,0,.506-1.053c0-.127-.091-.362-.52-.759l-.079-.056-.212-.189a4.4,4.4,0,0,0-.688-.385,5.052,5.052,0,0,0-1.118-.372.128.128,0,0,1-.1-.124V68.9a6.1,6.1,0,0,0-.043-.834.8.8,0,0,0-.3-.472,1.269,1.269,0,0,0-.826-.227c-.585,0-.946.155-1.071.461a3.1,3.1,0,0,0-.126,1.051v1.257a.129.129,0,0,1-.1.126,3.81,3.81,0,0,0-2.283,1.347c-.02.025-.033.053-.053.079a3.69,3.69,0,0,0-.773,2.267,3.6,3.6,0,0,0,.605,2.146c.049.071.114.115.168.181a3.277,3.277,0,0,0,1.3,1.01,12.759,12.759,0,0,0,1.778.569,9.339,9.339,0,0,1,1.547.489.967.967,0,0,1,.707.881c0,.683-.311,1.5-1.79,1.5a2.142,2.142,0,0,1-1.672-.9c-.7-.7-1.1-.85-1.3-.85a1.125,1.125,0,0,0-.57.184,1.528,1.528,0,0,0-.3.207c-.6.581-.725.918-.725,1.1a1.726,1.726,0,0,0,.444.977l.293.383a2.7,2.7,0,0,0,.283.269,5.918,5.918,0,0,0,.717.532,5.006,5.006,0,0,0,1.621.655.129.129,0,0,1,.1.126V84.8a3.082,3.082,0,0,0,.147,1.1.552.552,0,0,0,.322.334,2.465,2.465,0,0,0,1.409,0,.67.67,0,0,0,.359-.363,2.8,2.8,0,0,0,.133-1.046V83.382a.129.129,0,0,1,.1-.124,4.738,4.738,0,0,0,2.384-1.356,4.322,4.322,0,0,0,.532-4.64"
                transform="translate(-50.735 107.525)" fill="#7468b4" />
        </g>
        <path
            d="M24.394,1.208h-.009L-.009,1A1,1,0,0,1-1-.009,1,1,0,0,1,.009-1L24.4-.791a1,1,0,0,1-.008,2Z"
            transform="translate(62.106 101.292)" fill="#5bb3b3" />
        <path
            d="M24.394,1.208h-.009L-.009,1A1,1,0,0,1-1-.009,1,1,0,0,1,.009-1L24.4-.791a1,1,0,0,1-.008,2Z"
            transform="translate(62.106 119)" fill="#5bb3b3" />
        <path d="M24.395,1.5h-.021L-.02,1A1,1,0,0,1-1-.02,1,1,0,0,1,.02-1l24.394.5a1,1,0,0,1-.02,2Z"
            transform="translate(62.106 110)" fill="#5bb3b3" />
        <path
            d="M39.142,1.5h-.013L-.013,1A1,1,0,0,1-1-.013,1,1,0,0,1,.013-1l39.142.5a1,1,0,0,1-.013,2Z"
            transform="translate(206.767 112.873)" fill="#5bb3b3" />
        <path
            d="M39.142,1.5h-.013L-.013,1A1,1,0,0,1-1-.013,1,1,0,0,1,.013-1l39.142.5a1,1,0,0,1-.013,2Z"
            transform="translate(206.767 122.873)" fill="#5bb3b3" />
        <path d="M24.395,1.5h-.021L-.02,1A1,1,0,0,1-1-.02,1,1,0,0,1,.02-1l24.394.5a1,1,0,0,1-.02,2Z"
            transform="translate(62.106 127.708)" fill="#5bb3b3" />
        <g transform="translate(63.089 47.661)">
            <circle cx="16.875" cy="16.875" r="16.875" transform="translate(0.16 0.214)"
                fill="#e88a2d" />
            <path d="M0,8.71V26.384A16.874,16.874,0,0,0,16.874,9.51,16.794,16.794,0,0,0,13.94,0Z"
                transform="translate(16.874 26.384) rotate(180)" fill="#f1b981" />
        </g>
        <g transform="translate(141.041 77.364)">
            <g transform="translate(114.74)">
                <g transform="translate(4.028 4.24)">
                    <path
                        d="M0,0,9.643,44.9C4.266,51.205.625,58.934,1.233,67.593c1.753,24.951,36.523,19.462,43.285,6.869s5.96-44.536-2.781-46.787c-3.486-.9-10.912,1.3-18.47,5.852L28.012,0Z"
                        transform="translate(49.02 85.111) rotate(180)" fill="#efc6a1" />
                </g>
                <path
                    d="M9.562,0C4.918,2.784,1.381,8.415.332,14.694A24.266,24.266,0,0,0,.878,25.155a26.84,26.84,0,0,0,2.558,6.157c4.29,17.639,22.043,16.055,35.326,14.47,6.469-.772,11.878-1.545,14.157-.1,1.52-9.519-3.384-17.2-20.63-15.708-3.75-2.1-6.456-6.036-9.755-11.326A7,7,0,0,1,15.08,7.134C13.282,4.6,11.478,2.265,9.564,0h0Z"
                    transform="translate(53.18 46.692) rotate(180)" fill="#313e58" />
            </g>
            <path
                d="M2.4,33.95l38.489-15a89.625,89.625,0,0,0,24.217-2.927c1.72-.889,4.074-2.993-1.777-4.088S51.372,9.425,51.105,7.258,54.934,3.681,54.042.614Q53.15-2.453,35.387,9.8L0,14.47Z"
                transform="translate(130.923 182.535) rotate(133)" fill="#efc6a1" />
            <path
                d="M29.932,65.092C85.477,41.744,83.21,38.554,123.648,19.4L113.946,0C68.869,4.25,44.771,7.644,25.879,35.651,21.137,42.68,5.079,47.224,0,59.783Z"
                transform="translate(188.017 117.834) rotate(133)" fill="#708daf" />
            <path
                d="M57.149,52.691H0c1.579-9.743,3.394-19.173,5.393-28.03C7.323,16.11,9.489,7.813,11.831,0h57.3C65.9,14.706,61.871,32.434,57.149,52.691Z"
                transform="translate(105.437 194.454)" fill="#708daf" />
            <path
                d="M57.546,53.191H-.588l.094-.58c1.579-9.746,3.4-19.186,5.4-28.06,1.934-8.567,4.1-16.875,6.446-24.7L11.459-.5H69.749l-.133.607c-3.218,14.668-7.248,32.4-11.98,52.7Zm-56.958-1H56.752C61.379,32.335,65.332,14.951,68.506.5H12.2C9.907,8.194,7.78,16.357,5.881,24.772,3.922,33.449,2.142,42.671.588,52.191Z"
                transform="translate(105.437 194.454)" fill="rgba(0,0,0,0)" />
            <path
                d="M70.583,52.693H11.047C7.006,35.735,3.29,18.007,0,0H70.662c-.688,18.021-.715,35.256-.08,52.691Z"
                transform="translate(120.399 194.453)" fill="#708daf" />
            <path
                d="M71.1,53.191H10.652l-.092-.384C6.52,35.854,2.8,18.118-.492.09L-.6-.5H71.182l-.02.519c-.688,18.015-.714,35.238-.08,52.654Zm-59.66-1H70.064c-.61-17.1-.584-34.018.079-51.691H.6C3.839,18.171,7.485,35.557,11.441,52.191Z"
                transform="translate(120.399 194.453)" fill="rgba(0,0,0,0)" />
            <path
                d="M80.373,118.994H0S27.309,35.707,27.9,4.667c.02-1.055,1.968-2.914,2.83-2.67,9.455,2.67,20.236-2,20.236-2C70.021,30.644,76.61,68.374,80.373,118.994Z"
                transform="translate(104.921 75.584)" fill="#e4e6ea" />
            <path
                d="M66.46,144.678H23.6c-35.47,0-26.491-72.2-2.421-144.678H33.636a5.654,5.654,0,0,1,5.157,3.525C55.378,35.514,73.266,98.936,66.46,144.678Z"
                transform="translate(127.863 74.416)" fill="#96b7df" />
            <g transform="translate(143.852 131.698) rotate(-163)">
                <path
                    d="M2.4,33.95l38.489-15a89.625,89.625,0,0,0,24.217-2.927c1.72-.889,4.074-2.993-1.777-4.088S51.372,9.425,51.105,7.258,54.934,3.681,54.042.614Q53.15-2.453,35.387,9.8L0,14.47Z"
                    transform="matrix(0.891, 0.454, -0.454, 0.891, 88.433, 10.882)" fill="#efc6a1" />
                <path
                    d="M.938,46.928c22.861.043,61.082-4.772,105.344,9.438L110.537,35.1C72.5,10.633,33.895-7.4,1.887,3.005-3.469,4.746,4.67,19.9.938,46.928Z"
                    transform="translate(-5.326 12.626) rotate(-11)" fill="#96b7df" />
            </g>
        </g>
        <g transform="translate(-26.975 212)">
            <g transform="translate(0 0)" clip-path="url(#a)">
                <path d="M92.577,61.068c0,33.055-2.55,59.852-36.788,59.852S19,94.123,19,61.068"
                    transform="translate(-2.512 14.175)" fill="#bfe2e2" />
                <path
                    d="M43.091,54.62A70.133,70.133,0,0,1,46.453,61.4a94.8,94.8,0,0,0-.919-14.33C44.34,38.791,42.517,30.557,40.8,22.34c-1.232-5.907-1.154-16.517-5.829-21.224-1.283-1.014-1.586.98-1.586,1.848-.016.184,0-3.535,1.248-2.888,7.393,3.906,9.792,16.189,12.16,22.338a120.45,120.45,0,0,1,7.6,27.487,62.854,62.854,0,0,1,.511,7.072c.246-.63.493-1.264.749-1.891A128.313,128.313,0,0,1,72.867,25.644C74.637,23.377,96.873,1.009,98.614,4.436a2.34,2.34,0,0,1-1.079,1.232c-.032.037-.033.017-.015-.039-1.306,2.157-5.02,5.489-6.175,7.379a144.037,144.037,0,0,0-7.472,14.757C79.016,38.229,74.508,48.8,70.142,59.392c-1.016,2.464-2.077,4.921-3.158,7.367C78.131,50.318,93,35.39,113.475,26.844c-6.992,3.638-11.582,10.483-16.3,15.723-5.695,6.321-11.694,12.471-17.4,18.786C73.047,68.8,65.128,76.645,58.655,84.887c-6.27,13.462-12.364,26.94-16.125,41.092,1.541-4.889.123-11.646.384-16.778A115.729,115.729,0,0,1,44.23,97.022a25.394,25.394,0,0,0-1.78,5.346c.282-2.847.606-5.676.955-8.492-.9-2.635-1.774-5.094-2.368-7.119A185.407,185.407,0,0,0,29.433,56.2,274.124,274.124,0,0,0,13.918,29.094c-2.663-4.109-5.362-8.2-8.046-12.3C4.117,14.107,2.445,9.809,0,7.238,15.8,22.009,33.065,36.891,43.091,54.62"
                    transform="translate(0 0)" fill="#bfe2e2" />
            </g>
        </g>
    </g>
</svg>