<svg xmlns="http://www.w3.org/2000/svg" xmlns:xlink="http://www.w3.org/1999/xlink" width="400" height="320" viewBox="0 0 400 320">
    <defs>
        <clipPath >
            <rect width="400" height="320" />
        </clipPath>
    </defs>
    <g clip-path="url(#b)">
        <rect width="400" height="320" fill="transparent" />
        <path d="M-3688.209-7179.777a1,1,0,0,1-1-1v-12.052a1,1,0,0,1,1-1,1,1,0,0,1,1,1v12.052A1,1,0,0,1-3688.209-7179.777Z" transform="translate(3804.693 7392.431)" fill="#5bb3b3" />
        <path d="M112.257,1H0A1,1,0,0,1-1,0,1,1,0,0,1,0-1H112.257a1,1,0,0,1,1,1A1,1,0,0,1,112.257,1Z" transform="translate(1.48 94.5)" fill="#5bb3b3" />
        <path d="M112.257,1H0A1,1,0,0,1-1,0,1,1,0,0,1,0-1H112.257a1,1,0,0,1,1,1A1,1,0,0,1,112.257,1Z" transform="translate(1.48 102.5)" fill="#5bb3b3" />
        <path d="M-3688.209-7076.536a1,1,0,0,1-1-1v-115.292a1,1,0,0,1,1-1,1,1,0,0,1,1,1v115.292A1,1,0,0,1-3688.209-7076.536Z" transform="translate(3817.547 7192.829)" fill="#5bb3b3" />
        <path d="M-3688.209-7077.5a1,1,0,0,1-1-1v-114.33a1,1,0,0,1,1-1,1,1,0,0,1,1,1v114.33A1,1,0,0,1-3688.209-7077.5Z" transform="translate(3804.693 7192.829)" fill="#5bb3b3" />
        <path d="M117.32,1H0A1,1,0,0,1-1,0,1,1,0,0,1,0-1H117.32a1,1,0,0,1,1,1A1,1,0,0,1,117.32,1Z" transform="translate(132.137 94.5)" fill="#5bb3b3" />
        <path d="M117.32,1H0A1,1,0,0,1-1,0,1,1,0,0,1,0-1H117.32a1,1,0,0,1,1,1A1,1,0,0,1,117.32,1Z" transform="translate(132.137 102.5)" fill="#5bb3b3" />
        <path d="M228.68,149.473H109.861a4.119,4.119,0,0,1-4.114-4.114V67.277a4.119,4.119,0,0,1,4.114-4.114H228.68a4.119,4.119,0,0,1,4.114,4.114v78.081A4.119,4.119,0,0,1,228.68,149.473ZM109.861,65.163a2.117,2.117,0,0,0-2.114,2.114v78.081a2.117,2.117,0,0,0,2.114,2.114H228.68a2.117,2.117,0,0,0,2.114-2.114V67.277a2.117,2.117,0,0,0-2.114-2.114Z" transform="translate(-90.875 51.129)" fill="#5bb3b3" />
        <path d="M0,0H111.631V63.486H0Z" transform="translate(22.52 121.579)" fill="#bfe2e2" />
        <path d="M0-1H111.631a1,1,0,0,1,1,1V63.486a1,1,0,0,1-1,1H0a1,1,0,0,1-1-1V0A1,1,0,0,1,0-1ZM110.631,1H1V62.486H110.631Z" transform="translate(22.52 121.579)" fill="#5bb3b3" />
        <path d="M197.97,180.1a3.928,3.928,0,1,1,3.927-3.929A3.933,3.933,0,0,1,197.97,180.1Zm0-5.857a1.928,1.928,0,1,0,1.927,1.928A1.931,1.931,0,0,0,197.97,174.242Z" transform="translate(-119.572 15.676)" fill="#5bb3b3" />
        <path d="M-4729.869-7029.275l-1.949-.449,3.6-15.632,1.949.449Z" transform="translate(4795.327 7244.734)" fill="#5bb3b3" />
        <path d="M-4728.217-7029.275l-3.6-15.632,1.949-.449,3.6,15.632Z" transform="translate(4816.363 7244.734)" fill="#5bb3b3" />
        <path d="M396.626,1H0A1,1,0,0,1-1,0,1,1,0,0,1,0-1H396.626a1,1,0,0,1,1,1A1,1,0,0,1,396.626,1Z" transform="translate(1.48 239.498)" fill="#5ab3b3" />
        <path d="M396.626,1H0A1,1,0,0,1-1,0,1,1,0,0,1,0-1H396.626a1,1,0,0,1,1,1A1,1,0,0,1,396.626,1Z" transform="translate(1.48 224.498)" fill="#5ab3b3" />
        <path d="M-3688.209-6968.458a1,1,0,0,1-1-1v-223.37a1,1,0,0,1,1-1,1,1,0,0,1,1,1v223.37A1,1,0,0,1-3688.209-6968.458Z" transform="translate(4080.885 7192.829)" fill="#5bb3b3" />
        <path d="M-3688.209-6968.458a1,1,0,0,1-1-1v-223.37a1,1,0,0,1,1-1,1,1,0,0,1,1,1v223.37A1,1,0,0,1-3688.209-6968.458Z" transform="translate(3953.226 7192.829)" fill="#5bb3b3" />
        <path d="M-3688.209-6968.458a1,1,0,0,1-1-1v-223.37a1,1,0,0,1,1-1,1,1,0,0,1,1,1v223.37A1,1,0,0,1-3688.209-6968.458Z" transform="translate(4069.885 7192.829)" fill="#5bb3b3" />
        <path d="M-3688.209-6968.458a1,1,0,0,1-1-1v-223.37a1,1,0,0,1,1-1,1,1,0,0,1,1,1v223.37A1,1,0,0,1-3688.209-6968.458Z" transform="translate(3941.06 7192.829)" fill="#5bb3b3" />
        <path d="M110.194,1H0A1,1,0,0,1-1,0,1,1,0,0,1,0-1H110.194a1,1,0,0,1,1,1A1,1,0,0,1,110.194,1Z" transform="translate(268.157 94.5)" fill="#5bb3b3" />
        <path d="M110.194,1H0A1,1,0,0,1-1,0,1,1,0,0,1,0-1H110.194a1,1,0,0,1,1,1A1,1,0,0,1,110.194,1Z" transform="translate(268.157 102.5)" fill="#5bb3b3" />
        <g transform="translate(4437.946 7524.063)">
            <path d="M56.114,16.659a16.134,16.134,0,1,1-11.409,4.726A16.029,16.029,0,0,1,56.114,16.659Zm0,30.27a14.134,14.134,0,1,0-9.994-4.14A14.042,14.042,0,0,0,56.114,46.929Z" transform="translate(-4149.533 -7520.102)" fill="#5bb3b3" />
            <path d="M0,7.856a1,1,0,0,1-1-1V0A1,1,0,0,1,0-1,1,1,0,0,1,1,0V6.856A1,1,0,0,1,0,7.856Z" transform="translate(-4093.419 -7467.645)" fill="#5bb3b3" />
            <path d="M4.847,5.847a1,1,0,0,1-.707-.293L-.707.707a1,1,0,0,1,0-1.414,1,1,0,0,1,1.414,0L5.554,4.14a1,1,0,0,1-.707,1.707Z" transform="translate(-4079.778 -7473.295)" fill="#5bb3b3" />
            <path d="M6.856,1.024h0L0,1A1,1,0,0,1-1,0,1,1,0,0,1,0-1l6.856.024a1,1,0,0,1,0,2Z" transform="translate(-4074.127 -7486.869)" fill="#5bb3b3" />
            <path d="M0,7.345a1,1,0,0,1-.378-.075,1,1,0,0,1-.547-1.3l2.6-6.345a1,1,0,0,1,1.3-.547,1,1,0,0,1,.547,1.3L.926,6.724A1,1,0,0,1,0,7.345Z" transform="translate(-4103.322 -7469.082)" fill="#5bb3b3" />
            <path d="M2.651,7.322a1,1,0,0,1-.923-.614L-.922.387A1,1,0,0,1-.387-.922,1,1,0,0,1,.922-.387L3.573,5.936a1,1,0,0,1-.922,1.387Z" transform="translate(-4085.96 -7469.145)" fill="#5bb3b3" />
            <path d="M6.336,3.619a1,1,0,0,1-.382-.076L-.382.924A1,1,0,0,1-.924-.382,1,1,0,0,1,.382-.924L6.718,1.695a1,1,0,0,1-.382,1.924Z" transform="translate(-4075.59 -7479.568)" fill="#5bb3b3" />
            <path d="M0,7.856a1,1,0,0,1-1-1V0A1,1,0,0,1,0-1,1,1,0,0,1,1,0V6.856A1,1,0,0,1,0,7.856Z" transform="translate(-4093.419 -7513.083)" fill="#5bb3b3" />
            <path d="M4.847,5.847a1,1,0,0,1-.707-.293L-.707.707a1,1,0,0,1,0-1.414,1,1,0,0,1,1.414,0L5.554,4.14a1,1,0,0,1-.707,1.707Z" transform="translate(-4111.907 -7505.425)" fill="#5bb3b3" />
            <path d="M6.856,1.024h0L0,1A1,1,0,0,1-1,0,1,1,0,0,1,0-1l6.856.024a1,1,0,0,1,0,2Z" transform="translate(-4119.566 -7487.026)" fill="#5bb3b3" />
            <path d="M0,5.831a1,1,0,0,1-.71-.3,1,1,0,0,1,0-1.414L4.16-.71a1,1,0,0,1,1.414,0,1,1,0,0,1,0,1.414L.7,5.54A1,1,0,0,1,0,5.831Z" transform="translate(-4079.73 -7505.361)" fill="#5bb3b3" />
            <path d="M0,5.831a1,1,0,0,1-.71-.3,1,1,0,0,1,0-1.414L4.16-.71a1,1,0,0,1,1.414,0,1,1,0,0,1,0,1.414L.7,5.54A1,1,0,0,1,0,5.831Z" transform="translate(-4111.971 -7473.342)" fill="#5bb3b3" />
            <path d="M0,7.345a1,1,0,0,1-.378-.075,1,1,0,0,1-.547-1.3l2.6-6.345a1,1,0,0,1,1.3-.547,1,1,0,0,1,.547,1.3L.926,6.724A1,1,0,0,1,0,7.345Z" transform="translate(-4086.112 -7511.135)" fill="#5bb3b3" />
            <path d="M2.651,7.322a1,1,0,0,1-.923-.614L-.922.387A1,1,0,0,1-.387-.922,1,1,0,0,1,.922-.387L3.573,5.936a1,1,0,0,1-.922,1.387Z" transform="translate(-4103.528 -7511.05)" fill="#5bb3b3" />
            <path d="M6.336,3.619a1,1,0,0,1-.382-.076L-.382.924A1,1,0,0,1-.924-.382,1,1,0,0,1,.382-.924L6.718,1.695a1,1,0,0,1-.382,1.924Z" transform="translate(-4117.583 -7496.923)" fill="#5bb3b3" />
            <path d="M0,3.629a1,1,0,0,1-.924-.617A1,1,0,0,1-.383,1.7L5.949-.924a1,1,0,0,1,1.307.54A1,1,0,0,1,6.715.924L.383,3.552A1,1,0,0,1,0,3.629Z" transform="translate(-4075.602 -7496.961)" fill="#5bb3b3" />
            <path d="M0,3.629a1,1,0,0,1-.924-.617A1,1,0,0,1-.383,1.7L5.949-.924a1,1,0,0,1,1.307.54A1,1,0,0,1,6.715.924L.383,3.552A1,1,0,0,1,0,3.629Z" transform="translate(-4117.567 -7479.539)" fill="#5bb3b3" />
        </g>
        <path d="M0,0A5.465,5.465,0,0,0,.646,2.586,14.112,14.112,0,0,1,0,0" transform="translate(334.502 113.192) rotate(-3)" fill="#bfe2e2" opacity="0.2" />
        <path d="M136.552,220.865a1,1,0,0,1-1-1v-3.346a1,1,0,0,1,1-1h84.484a1,1,0,0,1,1,1V219.8a1,1,0,0,1-1,1l-84.484.064Zm1-3.346v1.345l82.484-.063v-1.283Z" transform="translate(-100.562 0.411)" fill="#5bb3b3" />
        <path d="M42.159,15.154c2.716-3.873,7.757-13.71,11.58-15.094,2.462-.891,1.744,8.33,1.775,10.088a147.383,147.383,0,0,1-1.362,20.307c-1.473,12.165-6.291,23-12.9,33.352-3.4,5.328-7.389,10.72-12.912,14.044-2.543,1.531-3,1.939-5.509,3.258-2.924,1.535-2.593,5.684-3.911,8.731C17.091,94.072,1.014,228.782,2.646,249.863c.145,1.868-2.46,2.315-2.591.034C-.636,237.8,5.346,154.046,8.364,126.656S14.436,75.067,17.5,65.591c3.715-11.5,10.425-25.323,16.01-36.044A127.489,127.489,0,0,1,42.159,15.154Z" transform="translate(352.021 77.623)" fill="#bfe2e2" />
        <path d="M64.906,1.472c7.068-5.189,14.719,4.6,8.323,9.794-3.536,2.869-7.232,1.848-9.313-.542-1.351,1.647-2.615,3.369-3.83,4.823-3.7,4.432-7.2,8.969-10.544,13.612C42.6,38.805,36.643,49,30.419,59c-6.142,9.874-12.235,19.8-17.8,29.922C7.9,97.5,1.615,107.591,0,116.995,2.45,97.051,11.746,77.883,22.816,60.3,33.8,42.864,46.4,23.821,63.4,10.06A6.021,6.021,0,0,1,64.906,1.472Z" transform="translate(349.436 225.644)" fill="#bfe2e2" />
        <path d="M1.237.02C5.192.793,11.655,9.741,14.915,13.15a127.69,127.69,0,0,1,10.7,12.894A218.073,218.073,0,0,1,44.557,56.933,287.115,287.115,0,0,1,65.629,111.77a226.211,226.211,0,0,1,6.393,35.969c.228,2.277,2.616,19.836-.825,20.309-3.094.426-2.139-13.333-2.288-15.2-1.687-21.114-6.743-41.658-13.774-61.559-1.532-4.335-2.955-9.645-5.4-13.547-1.764-2.81-.013-1.83-3.113-2.894-2.662-.914-5.694-.69-8.42-1.809-5.921-2.428-10.662-7.142-14.819-11.884C15.3,51.937,8.9,41.968,5.567,30.16a149.218,149.218,0,0,1-4.5-19.882C.828,8.534-1.311-.478,1.237.02Z" transform="translate(278.98 178.458)" fill="#bfe2e2" />
        <path d="M9.089,8.866A358.435,358.435,0,0,1,44.137,91.835c4.79,17.418,8.14,35.291,11.468,53.036,5.153,27.475,10.027,54.947,11.414,82.91,1.395,28.125,4.153,60.564-5.056,87.652,4.6-27.5.22-56.776-.555-84.45-.371-13.211-1.444-26.292-2.853-39.426-1.367-12.74-3.6-25.42-5.68-38.06q-1.52-9.234-3.16-18.446c-.323-1.833-.46-7.272-1.623-8.524s-7.141-1.774-9.015-2.7a48.4,48.4,0,0,1-10.467-7.3,83.611,83.611,0,0,1-15.4-19.263C3.64,81.291-.186,61.8.007,43.3.044,39.712,5.82,1.041,3.5.508Q3.71.263,3.9,0,6.531,4.41,9.089,8.866Z" transform="translate(286.737 20.741)" fill="#bfe2e2" />
        <path d="M106.553,2.513c.23-.332,1.726-2.638.973-2.49,1.534-.3-2.11,2.543,1.712.8-1.815,1.714-.767,3.941-.743,6.247A55.946,55.946,0,0,1,107.2,18.193a76.287,76.287,0,0,1-5.185,16.814C96.764,46.75,87.844,58.054,77.254,65.4,72.026,69.02,66.9,70.254,60.94,71.923c-3.766,1.054-4.065,3-6.064,6.657-4.162,7.612-8.25,15.2-11.92,23.064-4.383,9.4-8.637,18.8-12.651,28.363C16.786,162.214,5.782,195.58,0,230.111c-.141-20.349,4.566-41.307,10.5-60.7A362.3,362.3,0,0,1,26.469,128.17c1.455-3.267,3.661-7.469,4.279-11.076.433-2.527-.89-4.957-1.5-7.619a79.729,79.729,0,0,1-.119-32.4c2.287-11.492,8.9-16.826,20.085-18.453,4.091-.6,9.291-.377,13.042-2.122,4.087-1.9,5.773-8.143,8.1-12.151A165.257,165.257,0,0,1,92.532,14.185a71.932,71.932,0,0,1,7.584-6.978C101.813,5.852,105.4,4.182,106.553,2.513Z" transform="translate(350.082 120.284)" fill="#bfe2e2" />
        <path d="M.835,6.37C.47,3.013,2.391,0,4.9,0H55.317c2.505,0,4.426,3.013,4.061,6.37l-3.9,35.787c-1.188,10.909-8.1,18.992-16.244,18.992H20.976c-8.143,0-15.056-8.082-16.244-18.992Z" transform="translate(325.146 289.426)" fill="#bfe2e2" />
        <path d="M-3691.979-6890.468s4.4-.68,4.4-1.007c-1.018-36.812-10.243-127.175-29.459-143.319-27.491-23.1-43.7-28.333-43.7-28.333s10.838,35.4,31.409,56.254,25.029,27.218,29.5,28.814C-3697.267-6969.927-3691.979-6890.468-3691.979-6890.468Z" transform="translate(4038.831 7196)" fill="#bfe2e2" />
        <g transform="translate(-23.697 9)">
            <path d="M0,0H117.528l-3.036,50.365H0Z" transform="translate(164.543 310.84)" fill="#6a7486" />
            <path d="M-2.428-.008,59.294,1.331,55.949,50.366H.151Z" transform="translate(164.013 310.838)" fill="#556076" />
            <g transform="translate(183.864 52.09)">
                <path d="M-4282.166,5960.1s-15.528-5.638-9.371,5.414,12.692,11.47,12.692,11.47Z" transform="translate(4292.98 -5917.834)" fill="#b28b67" />
                <path d="M-4289.657,5960.1s15.528-5.638,9.371,5.414-12.694,11.47-12.694,11.47Z" transform="translate(4352.578 -5917.834)" fill="#b28b67" />
                <path d="M0,0,15.261,60.54H26.268L36.322,0Z" transform="translate(57.821 112.267) rotate(180)" fill="#997659" />
                <path d="M4436.19,746.534s7.649,42.719,33.037,42.032,30.235-45.345,30.235-45.345-8.018-36.509-31.762-36.651C4439.659,707.376,4436.19,746.534,4436.19,746.534Z" transform="translate(-4431.328 -706.571)" fill="#b28b67" />
            </g>
            <path d="M86.351,43.72a17.118,17.118,0,0,1,9.6,2.491,1.5,1.5,0,0,1,.655,1.03c.6,4.038-.1,7.316-2.09,9.742a11.533,11.533,0,0,1-7.663,3.857,11.773,11.773,0,0,1-1.235.058c-2.116,0-6.076-.452-8.834-3.476-2.219-2.434-3.133-5.958-2.716-10.475a1.5,1.5,0,0,1,.985-1.273A37.239,37.239,0,0,1,86.351,43.72Zm7.376,4.643a14.864,14.864,0,0,0-7.376-1.643A34.368,34.368,0,0,0,76.989,48.2c-.141,3.159.535,5.578,2.013,7.2.85.933,2.841,2.5,6.618,2.5a8.7,8.7,0,0,0,.919-.042c.039,0,.062-.007.1-.009a8.6,8.6,0,0,0,5.574-2.785C93.523,53.446,94.032,51.194,93.727,48.362Z" transform="translate(150.197 49.233)" fill="#313e58" />
            <path d="M84.432,43.72h0a37.241,37.241,0,0,1,11.3,1.955,1.5,1.5,0,0,1,.985,1.273c.417,4.517-.5,8.041-2.716,10.474C91.241,60.446,87.28,60.9,85.164,60.9a11.772,11.772,0,0,1-1.235-.058,11.533,11.533,0,0,1-7.663-3.857c-1.985-2.426-2.689-5.7-2.09-9.742a1.5,1.5,0,0,1,.655-1.03A17.119,17.119,0,0,1,84.432,43.72ZM93.795,48.2a34.371,34.371,0,0,0-9.362-1.482,14.864,14.864,0,0,0-7.376,1.643c-.306,2.844.208,5.1,1.532,6.72a8.643,8.643,0,0,0,5.553,2.764q.054,0,.108.01h0a8.745,8.745,0,0,0,.914.041c3.776,0,5.767-1.565,6.618-2.5C93.26,53.779,93.936,51.361,93.795,48.2Z" transform="translate(120.828 49.233)" fill="#313e58" />
            <path d="M8.682,1.667H8.653L-.029,1.5A1.5,1.5,0,0,1-1.5-.029,1.5,1.5,0,0,1,.029-1.5l8.681.167a1.5,1.5,0,0,1-.028,3Z" transform="translate(216.141 96.185)" fill="#313e58" />
            <path d="M4045.58,7226.632a25.145,25.145,0,0,1-1.125-13.609c.993-5.317,3.5-10.191,8.651-16.023l4.753,10.37,3.255,7.314a31.781,31.781,0,0,1-11.439,13.8,7.229,7.229,0,0,1-2.7.984,5.79,5.79,0,0,0-.722-1.284C4046.231,7228.189,4046.1,7227.791,4045.58,7226.632Zm15.535-11.948C4061.2,7214.482,4061.187,7214.846,4061.115,7214.684Z" transform="translate(-3857.679 -7135.224)" fill="#313e58" />
            <path d="M4101.522,7240.31c-1.592-2.1-5.228-8.941-7.316-10.452a25.314,25.314,0,0,0-4.306-2.684,12.411,12.411,0,0,0-3.119-.933l-4.1.514a19.8,19.8,0,0,1-11.732,2.829c-4.661-.227-9.205-1.636-13.7-3.036a12.9,12.9,0,0,1-3.922-1.73,14.142,14.142,0,0,1-3.181-3.761c-3.81-5.8-6.115-12.7-4.705-19.736.979.239,4.232,1.394,5.238,1.52a7.6,7.6,0,0,0,2.744.008,9.589,9.589,0,0,0,2.863-1.527c7.461-4.918,20.144-5.537,28.161-1.9a30.645,30.645,0,0,1,13.175,9.048c4.912,5.863,6.99,17.851,4.98,31.452C4102.545,7240.32,4102.059,7239.976,4101.522,7240.31Z" transform="translate(-3850.148 -7146.966)" fill="#313e58" />
            <rect width="51.372" height="152.299" transform="translate(193.755 158.93)" fill="#e4e6ea" />
            <path d="M4055.255,7313.779l-.128.146v-.29l-7.087-4.636s-4.826-102.479-3.959-104.252,6.965-7.749,6.965-7.749h8.419s6.1,5.974,6.965,7.749S4062.47,7309,4062.47,7309l-7.087,4.636v.29Z" transform="translate(-3833.059 -7027.291)" fill="#cc7a29" />
            <path d="M-3947.915-7053.96h18.361l-4.939,14.047h-8.781Z" transform="translate(4160.529 7210.725)" fill="#e88a2d" />
            <g transform="translate(96.351 145.339)">
                <path d="M1.3,166.05,57.424,171l10.194-59.329s-2.586-69.6-3.269-90.851L58.607.853S53.062.509,50.353.373l-1.6.5C32.755,37.236,4.041,105.814,1.3,166.05Z" transform="translate(38.073 9.988) rotate(-8)" fill="#414d65" />
                <path d="M57.839,171.543.774,166.506l.022-.479a283.117,283.117,0,0,1,6.334-46.19A461.236,461.236,0,0,1,19.579,74.355C28.948,45.605,39.846,19.877,48.295.675l.091-.207,1.9-.6.09,0c2.681.135,8.205.478,8.261.481l.352.022,5.857,20.37,0,.062c.675,21.009,3.243,90.152,3.268,90.848l0,.052-.009.051ZM1.817,165.594l55.192,4.872,10.107-58.824c-.083-2.247-2.595-69.9-3.265-90.739L58.224,1.33c-1.248-.077-5.5-.337-7.807-.454l-1.3.409C40.693,20.444,29.851,46.06,20.53,74.665A460.238,460.238,0,0,0,8.108,120.048,283.032,283.032,0,0,0,1.817,165.594Z" transform="translate(38.073 9.988) rotate(-8)" fill="rgba(0,0,0,0)" />
                <path d="M10.721,53.082l33.864-27.7Q59,21.114,68.363,14.926c1.43-1.473,3.051-4.438-3.379-3.844S51.741,12,50.643,9.761s2.577-4.99.5-8.007Q49.057-1.264,35.452,17.232l-34.6,15.7Z" transform="matrix(-0.588, 0.809, -0.809, -0.588, 85.817, 160.812)" fill="#b28b67" />
                <path d="M8.986-.008s.207,76.432,8.777,100.832L-.1,101.949Z" transform="translate(65.302 72.111) rotate(1)" fill="#313e58" />
                <path d="M63.072,2.95C56.331,5.745,9.278,61.607.674,171.053l40,.221C34.048,79.066,72.993,8.582,72.993,8.582L82.158.307S69.814.155,63.072,2.95Z" transform="matrix(0.998, -0.07, 0.07, 0.998, 18.17, 5.692)" fill="#414d65" />
                <path d="M81.819-.194h.345l1.276.016L73.391,8.9c-.329.606-2.674,4.97-5.932,12.365A312.717,312.717,0,0,0,54.818,55.524a334.223,334.223,0,0,0-11.4,51.516,307.556,307.556,0,0,0-2.251,64.2l.039.539L.134,171.55l.042-.536a383.56,383.56,0,0,1,12.448-72.14,303.4,303.4,0,0,1,19.5-52.086A201.361,201.361,0,0,1,51.288,14.7a90.776,90.776,0,0,1,7.162-8.566,17.331,17.331,0,0,1,4.431-3.65C69.04-.065,79.737-.194,81.819-.194ZM40.133,170.77a308.728,308.728,0,0,1,2.3-63.886A335.234,335.234,0,0,1,53.87,55.2a313.666,313.666,0,0,1,12.683-34.37c3.516-7.977,5.977-12.45,6-12.494l.04-.073.062-.056,8.194-7.4c-3.343.049-12.263.391-17.588,2.6C61.675,4.07,57.5,8.073,52.089,15.3A200.35,200.35,0,0,0,33.021,47.227,302.4,302.4,0,0,0,13.587,99.141,382.3,382.3,0,0,0,1.215,170.555Z" transform="matrix(0.998, -0.07, 0.07, 0.998, 18.17, 5.692)" fill="rgba(0,0,0,0)" />
                <path d="M-3953.263-7066.3l-10.3,1.449-12.406,19.209,8.806,7.527-8.806,9.674,39.806,74.23-17.969-106.144Z" transform="translate(4056.748 7066.301)" fill="#313e58" />
            </g>
            <path d="M49.653,93.507s9.891,13.507,10.588,15.841-19.659,16.425-20.913,16.246,0-27.538,0-27.538" transform="translate(158.408 47.214)" fill="#e4e6ea" />
            <g transform="translate(219.266 145.339)">
                <path d="M-.035,4.54,56.093-.415,66.287,58.914s-2.586,69.6-3.269,90.851l-5.742,19.971s-5.545.344-8.255.481l-1.6-.5C31.424,133.354,2.71,64.776-.035,4.54Z" transform="translate(66.17 178.733) rotate(-172)" fill="#414d65" />
                <path d="M56.508-.954,66.789,58.881l0,.052c-.026.7-2.594,69.839-3.268,90.848l0,.062-.017.06-5.839,20.31-.352.022c-.055,0-5.579.346-8.26.481l-.09,0-1.9-.6-.091-.207c-8.448-19.2-19.347-44.93-28.716-73.68A461.238,461.238,0,0,1,5.8,50.752,283.116,283.116,0,0,1-.535,4.563l-.022-.479Zm9.278,59.9L55.678.124.486,5A283.033,283.033,0,0,0,6.777,50.542,460.238,460.238,0,0,0,19.2,95.925c9.321,28.6,20.163,54.221,28.589,73.379l1.3.409c2.3-.117,6.56-.377,7.807-.454l5.627-19.572C63.191,128.848,65.7,61.2,65.786,58.948Z" transform="translate(66.17 178.733) rotate(-172)" fill="rgba(0,0,0,0)" />
                <path d="M9.348-.247l33.864,27.7q14.411,4.265,23.779,10.453c1.43,1.473,3.051,4.438-3.379,3.844s-13.243-.922-14.341,1.321,2.577,4.99.5,8.007Q47.684,54.1,34.079,35.6L-.517,19.9Z" transform="matrix(0.588, 0.809, -0.809, 0.588, 87.037, 130.867)" fill="#b28b67" />
                <path d="M9.087,101.957S9.294,25.526,17.864,1.125L0,0Z" transform="matrix(-1, 0.017, -0.017, -1, 65.88, 174.043)" fill="#313e58" />
                <path d="M62.4,168.174C55.656,165.38,8.6,109.517,0,.072L40-.149C33.374,92.058,72.318,162.543,72.318,162.543l9.166,8.274S69.139,170.969,62.4,168.174Z" transform="matrix(-0.998, -0.07, 0.07, -0.998, 98.522, 176.352)" fill="#414d65" />
                <path d="M81.145,171.318c-2.082,0-12.78-.129-18.939-2.682a17.331,17.331,0,0,1-4.431-3.65,90.773,90.773,0,0,1-7.161-8.566,201.359,201.359,0,0,1-19.166-32.083,303.406,303.406,0,0,1-19.5-52.086A383.559,383.559,0,0,1-.5.111L-.541-.426,40.533-.652l-.039.539a307.555,307.555,0,0,0,2.251,64.2,334.227,334.227,0,0,0,11.4,51.516,312.715,312.715,0,0,0,12.641,34.264c3.258,7.395,5.6,11.759,5.932,12.365l10.05,9.073-1.276.016ZM.541.569A382.3,382.3,0,0,0,12.913,71.983,302.4,302.4,0,0,0,32.346,123.9,200.35,200.35,0,0,0,51.414,155.82c5.412,7.231,9.587,11.234,11.175,11.892,5.325,2.207,14.244,2.55,17.588,2.6l-8.256-7.453-.04-.073c-.024-.044-2.486-4.517-6-12.494A313.667,313.667,0,0,1,53.2,115.92,335.234,335.234,0,0,1,41.757,64.24,308.728,308.728,0,0,1,39.458.354Z" transform="matrix(-0.998, -0.07, 0.07, -0.998, 98.522, 176.352)" fill="rgba(0,0,0,0)" />
                <path d="M-3958.877-7066.3l10.3,1.449,12.407,19.209-8.806,7.527,8.806,9.674-39.806,74.23L-3958-7060.355Z" transform="translate(3984.694 7066.301)" fill="#313e58" />
            </g>
            <path d="M49.376,93.507s-9.891,13.507-10.588,15.841S58.447,125.773,59.7,125.594s0-27.538,0-27.538" transform="translate(187.482 47.214)" fill="#e4e6ea" />
        </g>
    </g>
</svg>