<svg xmlns="http://www.w3.org/2000/svg" xmlns:xlink="http://www.w3.org/1999/xlink" width="400" height="320" viewBox="0 0 400 320">
    <defs>
        <clipPath>
            <rect width="400" height="320" />
        </clipPath>
    </defs>
    <g clip-path="url(#b)">
        <rect width="400" height="320" fill="transparent" />
        <path d="M0,30.5A1.5,1.5,0,0,1-1.5,29V0A1.5,1.5,0,0,1,0-1.5,1.5,1.5,0,0,1,1.5,0V29A1.5,1.5,0,0,1,0,30.5Z" transform="translate(248.5 35.5)" fill="#313e58" />
        <path d="M-668.048-3433.5v15.845l18.3-7.532Z" transform="translate(917.764 3469)" fill="#e88a2d" />
        <path d="M-668.048-3434a.5.5,0,0,1,.207.045l18.3,8.313a.5.5,0,0,1,.293.464.5.5,0,0,1-.31.453l-18.3,7.532a.5.5,0,0,1-.469-.047.5.5,0,0,1-.222-.416V-3433.5a.5.5,0,0,1,.229-.42A.5.5,0,0,1-668.048-3434Zm17.044,8.79-16.544-7.514v14.322Z" transform="translate(917.764 3469)" fill="#e88a2d" />
        <path d="M209.075,174.256,0,172.923V126.89a19.5,19.5,0,0,1,9.136,3.565,14.02,14.02,0,0,1,5.728-8,22.7,22.7,0,0,1,12.526-4.188c.224-.008.45-.008.674-.008,10.388,0,18.725,5.914,22.77,9.441a97.261,97.261,0,0,1,11.019,11.961l.05.06c.94,1.144,1.918,2.327,2.9,3.492a9.7,9.7,0,0,1,1.728-3.614,11.538,11.538,0,0,1,6.014-4.093,12.618,12.618,0,0,1,3.467-.473,13.834,13.834,0,0,1,4.131.633,12.085,12.085,0,0,1,5.057,3.005,29.853,29.853,0,0,1,4.137-4.314,13.986,13.986,0,0,1,5.221-2.758,9.449,9.449,0,0,1,2.485-.322,11,11,0,0,1,2.382.266,9.657,9.657,0,0,1,4.2,2.019,5.689,5.689,0,0,1,1.544,2.067,35,35,0,0,1,12.512-6.982,39.171,39.171,0,0,1,12-1.888,37.384,37.384,0,0,1,5.149.354,36.409,36.409,0,0,1,15.7,6.127,30.159,30.159,0,0,1,9.426,10.336,12.694,12.694,0,0,1,6.585-3.219,22.751,22.751,0,0,1,4.624-.457,23.848,23.848,0,0,1,5.166.557A14.308,14.308,0,0,1,184,145.035a11.6,11.6,0,0,1,2.747,5.747,16.637,16.637,0,0,1,7.246-1.283c.814,0,1.624.022,2.407.043a10.47,10.47,0,0,1,7.763,3.519,17.235,17.235,0,0,1,3.492,6.549,35.656,35.656,0,0,1,1.356,7.267Z" transform="translate(0 14.244)" fill="#bfe2e2" />
        <path d="M0,174.256l209.075-1.333V126.89a19.5,19.5,0,0,0-9.136,3.565,14.02,14.02,0,0,0-5.728-8,22.7,22.7,0,0,0-12.526-4.188c-.224-.008-.45-.008-.674-.008-10.388,0-18.725,5.914-22.77,9.441a97.26,97.26,0,0,0-11.019,11.961l-.05.06c-.94,1.144-1.918,2.327-2.9,3.492a9.7,9.7,0,0,0-1.728-3.614,11.539,11.539,0,0,0-6.014-4.093,12.618,12.618,0,0,0-3.467-.473,13.834,13.834,0,0,0-4.131.633,12.085,12.085,0,0,0-5.057,3.005,29.853,29.853,0,0,0-4.137-4.314,13.986,13.986,0,0,0-5.221-2.758,9.449,9.449,0,0,0-2.485-.322,11,11,0,0,0-2.382.266,9.657,9.657,0,0,0-4.2,2.019,5.689,5.689,0,0,0-1.544,2.067A35,35,0,0,0,91.4,128.65a39.171,39.171,0,0,0-12-1.888,37.384,37.384,0,0,0-5.149.354,36.409,36.409,0,0,0-15.7,6.127,30.159,30.159,0,0,0-9.426,10.336,12.694,12.694,0,0,0-6.585-3.219,22.751,22.751,0,0,0-4.624-.457,23.848,23.848,0,0,0-5.166.557,14.308,14.308,0,0,0-7.671,4.574,11.6,11.6,0,0,0-2.747,5.747,16.637,16.637,0,0,0-7.246-1.283c-.814,0-1.624.022-2.407.043a10.47,10.47,0,0,0-7.763,3.519,17.235,17.235,0,0,0-3.492,6.549,35.656,35.656,0,0,0-1.356,7.267Z" transform="translate(276.5 146.744)" fill="#bfe2e2" />
        <path d="M-738.629-3351.163s55.943-56.272,67.8-56.751,68.885,56.751,68.885,56.751l-56.137,45.92-36.224-6Z" transform="translate(919 3469)" fill="#bfe2e2" />
        <path d="M309.836,161.278s3.239-16.777,6.943-23.174a39.334,39.334,0,0,1,11.485-12.672,37.8,37.8,0,0,1,10.753-5.222,28.576,28.576,0,0,1,4.5-.991,18.007,18.007,0,0,1,10.994-3.838h.222a17.735,17.735,0,0,1,10.3,3.526,14.327,14.327,0,0,1,4.981,6.429A14.391,14.391,0,0,1,373.9,122.7a19.374,19.374,0,0,1,6.785-1.728c.512-.037,1.03-.056,1.54-.056a17.507,17.507,0,0,1,10.321,3.1,12.031,12.031,0,0,1,4.829-6.641c.433-.316.893-.619,1.365-.9v44.8Z" transform="translate(1.26 60.027)" fill="#bfe2e2" />
        <path d="M-900.377-3302.118a1,1,0,0,1-.753-.342,1,1,0,0,1,.1-1.411c.209-.183,21.207-18.5,45-37.067,13.983-10.911,26.185-19.772,36.266-26.337a173.926,173.926,0,0,1,15.789-9.307c4.981-2.523,9.074-4.048,12.168-4.532a29.4,29.4,0,0,1,10.462.256,42.308,42.308,0,0,1,10.048,3.483c6.591,3.16,13.2,7.846,20.192,12.807,5.726,4.062,11.647,8.261,18.146,12.07a96.86,96.86,0,0,0,21.254,9.5,1,1,0,0,1,.671,1.245,1,1,0,0,1-1.245.671c-15.873-4.757-28.682-13.842-39.983-21.857-13.848-9.822-25.808-18.3-39.236-16.2-5.579.874-14.72,5.428-27.171,13.537-10.033,6.534-22.186,15.361-36.123,26.235-23.749,18.53-44.71,36.819-44.919,37A1,1,0,0,1-900.377-3302.118Z" transform="translate(1161 3467)" fill="#5bb3b3" />
        <path d="M167.235,168.111c108.241,1.49,88.55-48.61,67.4-67.01S202.894,78.8,205.261,64s77.4-17.418,88.49-36.354S223,0,223,0l3.866,5.25c26.109,4.61,52.843,15.876,40.872,21.273C248.642,35.131,188.771,40,167.235,49.289s-12.361,35.554,0,56.309-53.6,39.116-182.372,37.979l5.485,20.1Z" transform="translate(1.2 157.512)" fill="#313e58" />
        <path d="M-887.3-3124.18a.75.75,0,0,1-.74-.636.75.75,0,0,1,.627-.855c1.276-.2,2.608-.4,3.96-.615a.751.751,0,0,1,.857.625.75.75,0,0,1-.625.857c-1.353.212-2.687.419-3.964.615A.769.769,0,0,1-887.3-3124.18Zm9.885-1.55a.75.75,0,0,1-.74-.632.75.75,0,0,1,.622-.859c1.3-.208,2.63-.421,3.949-.634a.751.751,0,0,1,.86.621.75.75,0,0,1-.621.86c-1.32.213-2.65.426-3.952.634A.759.759,0,0,1-877.42-3125.73Zm9.873-1.6a.75.75,0,0,1-.739-.629.75.75,0,0,1,.619-.862c1.309-.215,2.637-.434,3.948-.652a.75.75,0,0,1,.863.617.75.75,0,0,1-.617.863c-1.312.218-2.641.437-3.951.652A.747.747,0,0,1-867.548-3127.328Zm9.861-1.642a.75.75,0,0,1-.739-.625.75.75,0,0,1,.615-.864c1.311-.221,2.638-.446,3.944-.669a.75.75,0,0,1,.865.613.75.75,0,0,1-.613.865c-1.307.223-2.635.448-3.947.67A.76.76,0,0,1-857.687-3128.969Zm9.858-1.686a.75.75,0,0,1-.738-.622.75.75,0,0,1,.611-.867c1.312-.228,2.638-.459,3.942-.687a.752.752,0,0,1,.868.609.75.75,0,0,1-.609.868c-1.3.229-2.631.46-3.944.688A.774.774,0,0,1-847.828-3130.656Zm9.85-1.732a.75.75,0,0,1-.737-.618.75.75,0,0,1,.607-.87c1.313-.234,2.638-.471,3.938-.706a.749.749,0,0,1,.871.6.75.75,0,0,1-.6.871c-1.3.235-2.627.472-3.941.707A.767.767,0,0,1-837.978-3132.387Zm9.844-1.78a.75.75,0,0,1-.737-.615.75.75,0,0,1,.6-.873c1.311-.24,2.633-.485,3.929-.725a.748.748,0,0,1,.874.6.75.75,0,0,1-.6.874c-1.3.241-2.62.485-3.932.726A.741.741,0,0,1-828.134-3134.168Zm9.829-1.831a.75.75,0,0,1-.736-.611.75.75,0,0,1,.6-.876c1.312-.248,2.634-.5,3.929-.748a.751.751,0,0,1,.878.6.75.75,0,0,1-.6.878c-1.3.248-2.619.5-3.932.749A.765.765,0,0,1-818.305-3136Zm9.822-1.888a.75.75,0,0,1-.735-.606.75.75,0,0,1,.592-.88c1.312-.256,2.632-.516,3.923-.772a.751.751,0,0,1,.881.59.75.75,0,0,1-.59.881c-1.293.256-2.614.516-3.927.772A.751.751,0,0,1-808.483-3137.886Zm9.809-1.95a.75.75,0,0,1-.734-.6.75.75,0,0,1,.586-.884c1.312-.265,2.63-.534,3.917-.8a.75.75,0,0,1,.886.584.75.75,0,0,1-.584.885c-1.289.265-2.609.534-3.922.8A.747.747,0,0,1-798.675-3139.836Zm9.795-2.02a.75.75,0,0,1-.733-.6.75.75,0,0,1,.58-.888c1.311-.276,2.626-.555,3.91-.83a.75.75,0,0,1,.89.577.75.75,0,0,1-.577.89c-1.286.275-2.6.554-3.915.83A.75.75,0,0,1-788.88-3141.856Zm9.777-2.1a.75.75,0,0,1-.732-.589.75.75,0,0,1,.572-.894c1.31-.288,2.623-.579,3.9-.865a.75.75,0,0,1,.9.568.75.75,0,0,1-.568.9c-1.281.287-2.6.578-3.909.866A.75.75,0,0,1-779.1-3143.957Zm9.757-2.2a.75.75,0,0,1-.73-.582.75.75,0,0,1,.562-.9c1.31-.3,2.619-.608,3.893-.908a.749.749,0,0,1,.9.558.75.75,0,0,1-.558.9c-1.276.3-2.588.607-3.9.909A.747.747,0,0,1-769.346-3146.152Zm9.731-2.308a.75.75,0,0,1-.728-.572.75.75,0,0,1,.551-.906c1.308-.319,2.613-.642,3.878-.959a.75.75,0,0,1,.91.545.75.75,0,0,1-.545.91c-1.268.318-2.576.641-3.887.961A.749.749,0,0,1-759.615-3148.46Zm9.7-2.447a.75.75,0,0,1-.725-.561.75.75,0,0,1,.536-.915c1.306-.341,2.6-.686,3.859-1.024a.749.749,0,0,1,.919.529.75.75,0,0,1-.529.919c-1.258.339-2.561.685-3.87,1.027A.752.752,0,0,1-749.917-3150.908Zm9.648-2.625a.75.75,0,0,1-.721-.545.75.75,0,0,1,.516-.926c1.3-.371,2.6-.744,3.835-1.111a.75.75,0,0,1,.932.507.75.75,0,0,1-.507.932c-1.245.368-2.541.743-3.851,1.115A.748.748,0,0,1-740.269-3153.533Zm9.583-2.868a.75.75,0,0,1-.715-.524.75.75,0,0,1,.489-.942c1.3-.411,2.574-.826,3.789-1.232a.751.751,0,0,1,.949.473.75.75,0,0,1-.474.949c-1.222.408-2.5.825-3.811,1.239A.747.747,0,0,1-730.687-3156.4Zm9.464-3.221a.75.75,0,0,1-.7-.49.75.75,0,0,1,.444-.963c1.294-.478,2.543-.958,3.713-1.427a.749.749,0,0,1,.975.417.75.75,0,0,1-.417.975c-1.183.474-2.445.959-3.752,1.442A.751.751,0,0,1-721.223-3159.622Zm9.242-3.827a.75.75,0,0,1-.678-.428.75.75,0,0,1,.356-1c1.275-.606,2.455-1.212,3.506-1.8a.751.751,0,0,1,1.021.287.75.75,0,0,1-.287,1.021c-1.08.606-2.29,1.227-3.6,1.847A.748.748,0,0,1-711.981-3163.448Zm8.494-5.207a.749.749,0,0,1-.57-.262.75.75,0,0,1,.082-1.058,26.665,26.665,0,0,0,2.768-2.727.75.75,0,0,1,1.058-.073.75.75,0,0,1,.073,1.058,28.189,28.189,0,0,1-2.924,2.882A.747.747,0,0,1-703.487-3168.655Zm6.093-7.824a.748.748,0,0,1-.3-.064.75.75,0,0,1-.382-.99,16.368,16.368,0,0,0,1.13-3.645.75.75,0,0,1,.874-.6.75.75,0,0,1,.6.874,17.868,17.868,0,0,1-1.234,3.979A.75.75,0,0,1-697.395-3176.479Zm1.285-9.785a.75.75,0,0,1-.742-.649,24.461,24.461,0,0,0-.841-3.784.75.75,0,0,1,.5-.935.75.75,0,0,1,.935.5,25.955,25.955,0,0,1,.892,4.017.75.75,0,0,1-.642.844A.76.76,0,0,1-696.11-3186.264Zm-3.11-9.457a.75.75,0,0,1-.672-.417c-.554-1.115-1.191-2.278-1.894-3.458a.75.75,0,0,1,.261-1.028.75.75,0,0,1,1.028.26c.722,1.213,1.378,2.41,1.948,3.559a.75.75,0,0,1-.338,1.005A.747.747,0,0,1-699.22-3195.721Zm-5.208-8.525a.749.749,0,0,1-.612-.316c-.726-1.023-1.52-2.1-2.362-3.194a.75.75,0,0,1,.139-1.052.75.75,0,0,1,1.052.139c.852,1.111,1.658,2.2,2.395,3.239a.75.75,0,0,1-.178,1.046A.748.748,0,0,1-704.428-3204.246Zm-6.128-7.9a.748.748,0,0,1-.578-.271c-.8-.958-1.637-1.955-2.574-3.047a.75.75,0,0,1,.081-1.058.751.751,0,0,1,1.058.081c.942,1.1,1.788,2.1,2.589,3.065a.75.75,0,0,1-.1,1.056A.747.747,0,0,1-710.556-3212.146Zm-6.52-7.583a.748.748,0,0,1-.564-.255l-1.139-1.3-1.5-1.709a.75.75,0,0,1,.069-1.059.75.75,0,0,1,1.058.069l1.5,1.708,1.14,1.3a.75.75,0,0,1-.069,1.058A.747.747,0,0,1-717.076-3219.729Zm-6.57-7.539a.748.748,0,0,1-.572-.264c-.953-1.121-1.794-2.13-2.57-3.086a.75.75,0,0,1,.109-1.055.75.75,0,0,1,1.055.109c.769.947,1.6,1.948,2.549,3.06a.75.75,0,0,1-.085,1.057A.746.746,0,0,1-723.646-3227.269Zm-6.208-7.835a.749.749,0,0,1-.612-.316c-.66-.929-1.262-1.829-1.79-2.674-.152-.243-.3-.489-.439-.729a.75.75,0,0,1,.273-1.025.749.749,0,0,1,1.025.273c.131.226.269.456.413.686.512.82,1.1,1.7,1.741,2.6a.75.75,0,0,1-.177,1.046A.747.747,0,0,1-729.854-3235.1Zm-4.248-8.942a.75.75,0,0,1-.743-.658,9.537,9.537,0,0,1,.411-4.28.749.749,0,0,1,.952-.469.75.75,0,0,1,.469.951,8.051,8.051,0,0,0-.342,3.613.75.75,0,0,1-.652.837A.754.754,0,0,1-734.1-3244.045Zm3.857-8.747a.748.748,0,0,1-.57-.262.75.75,0,0,1,.083-1.057,23.345,23.345,0,0,1,3.381-2.365.749.749,0,0,1,1.026.269.75.75,0,0,1-.269,1.026,21.872,21.872,0,0,0-3.163,2.21A.747.747,0,0,1-730.245-3252.792Zm8.674-4.889a.75.75,0,0,1-.7-.468.75.75,0,0,1,.413-.977c1.166-.473,2.441-.946,3.79-1.407a.75.75,0,0,1,.952.467.75.75,0,0,1-.467.952c-1.322.452-2.571.915-3.711,1.377A.744.744,0,0,1-721.571-3257.681Zm9.481-3.161a.751.751,0,0,1-.722-.547.75.75,0,0,1,.519-.925c1.22-.343,2.526-.693,3.883-1.04a.75.75,0,0,1,.912.541.75.75,0,0,1-.541.912c-1.345.344-2.639.69-3.847,1.03A.745.745,0,0,1-712.09-3260.843Zm9.7-2.44a.75.75,0,0,1-.731-.583.75.75,0,0,1,.564-.9c1.232-.281,2.549-.573,3.913-.868a.75.75,0,0,1,.891.575.75.75,0,0,1-.575.892c-1.359.293-2.669.584-3.9.865A.76.76,0,0,1-702.392-3263.282Zm9.776-2.1a.75.75,0,0,1-.734-.6.75.75,0,0,1,.585-.885c1.232-.251,2.516-.509,3.926-.788a.75.75,0,0,1,.882.59.75.75,0,0,1-.59.882c-1.407.279-2.689.536-3.918.787A.755.755,0,0,1-692.616-3265.378Zm9.81-1.941a.75.75,0,0,1-.735-.607.75.75,0,0,1,.593-.879l3.928-.76a.749.749,0,0,1,.879.594.75.75,0,0,1-.594.878l-3.927.76A.742.742,0,0,1-682.806-3267.319Zm9.819-1.9a.75.75,0,0,1-.735-.607.75.75,0,0,1,.593-.879c1.431-.278,2.715-.529,3.924-.766a.752.752,0,0,1,.88.592.75.75,0,0,1-.591.88c-1.211.238-2.5.489-3.928.767A.743.743,0,0,1-672.987-3269.218Zm9.811-1.947a.75.75,0,0,1-.733-.6.75.75,0,0,1,.579-.888c1.328-.28,2.638-.568,3.892-.858a.75.75,0,0,1,.9.562.75.75,0,0,1-.562.9c-1.263.292-2.582.583-3.92.865A.753.753,0,0,1-663.175-3271.165Zm9.727-2.313a.75.75,0,0,1-.724-.555.75.75,0,0,1,.529-.919c1.321-.356,2.607-.724,3.824-1.094a.75.75,0,0,1,.936.5.75.75,0,0,1-.5.936c-1.231.374-2.533.746-3.869,1.107A.754.754,0,0,1-653.448-3273.478Zm9.531-3.013a.75.75,0,0,1-.7-.487.75.75,0,0,1,.439-.966c1.3-.488,2.532-.991,3.659-1.5a.75.75,0,0,1,.991.378.75.75,0,0,1-.378.991c-1.156.518-2.416,1.033-3.746,1.531A.75.75,0,0,1-643.917-3276.491Zm8.989-4.339a.75.75,0,0,1-.628-.339.75.75,0,0,1,.217-1.038,17.952,17.952,0,0,0,2.99-2.393.75.75,0,0,1,1.061-.012.75.75,0,0,1,.012,1.061,19.44,19.44,0,0,1-3.24,2.6A.748.748,0,0,1-634.928-3280.831Zm5.435-7.817a.75.75,0,0,1-.745-.675,5.517,5.517,0,0,0-1.527-3.111.75.75,0,0,1,.055-1.059.75.75,0,0,1,1.059.055,6.973,6.973,0,0,1,1.906,3.965.75.75,0,0,1-.671.822C-629.443-3288.649-629.469-3288.648-629.494-3288.648Zm-6.625-6.918a.747.747,0,0,1-.311-.068c-.157-.072-.318-.143-.479-.211-1.215-.52-2.221-.949-3.178-1.345a.75.75,0,0,1-.406-.98.75.75,0,0,1,.98-.406c.964.4,1.973.83,3.193,1.352.172.074.344.15.512.226a.75.75,0,0,1,.371.994A.75.75,0,0,1-636.118-3295.566Zm-9.3-3.65a.748.748,0,0,1-.226-.035c-1.139-.359-2.385-.712-3.809-1.08a.75.75,0,0,1-.539-.914.75.75,0,0,1,.914-.539c1.449.375,2.72.735,3.885,1.1a.75.75,0,0,1,.49.941A.75.75,0,0,1-645.423-3299.216Zm-9.683-2.479a.75.75,0,0,1-.165-.019c-1.147-.257-2.423-.538-3.9-.857a.75.75,0,0,1-.575-.892.75.75,0,0,1,.891-.574c1.481.32,2.761.6,3.912.859a.75.75,0,0,1,.568.9A.751.751,0,0,1-655.106-3301.695Zm-9.774-2.11a.756.756,0,0,1-.156-.016l-3.914-.824a.75.75,0,0,1-.58-.888.751.751,0,0,1,.888-.58l3.916.824a.75.75,0,0,1,.579.889A.75.75,0,0,1-664.879-3303.8Zm-9.789-2.056a.762.762,0,0,1-.155-.016l-3.912-.82a.75.75,0,0,1-.58-.888.75.75,0,0,1,.888-.58l3.911.82a.75.75,0,0,1,.58.888A.75.75,0,0,1-674.668-3305.86Zm-9.785-2.054a.751.751,0,0,1-.155-.016l-3.916-.825a.75.75,0,0,1-.579-.889.75.75,0,0,1,.889-.579l3.916.824a.75.75,0,0,1,.58.888A.75.75,0,0,1-684.453-3307.914Z" transform="translate(912 3469)" fill="#fff" />
        <path d="M221,1H0A1,1,0,0,1-1,0,1,1,0,0,1,0-1H221a1,1,0,0,1,1,1A1,1,0,0,1,221,1Z" transform="translate(0.5 188.5)" fill="#5bb3b3" />
        <path d="M-864.815-3333.482a1,1,0,0,1-.941-.663,1,1,0,0,1,.6-1.279,89.781,89.781,0,0,0,21.236-11.362c6.5-4.558,12.42-9.584,18.146-14.444,6.995-5.937,13.6-11.544,20.2-15.328a37.963,37.963,0,0,1,10.077-4.179,24.813,24.813,0,0,1,10.528-.308c4.736.887,10.581,3.53,17.373,7.853a177.589,177.589,0,0,1,19.065,14.367,1,1,0,0,1,.115,1.41,1,1,0,0,1-1.41.115,175.579,175.579,0,0,0-18.844-14.2c-6.576-4.186-12.184-6.734-16.668-7.574-13.361-2.505-25.307,7.634-39.138,19.373-5.761,4.889-11.718,9.945-18.292,14.557a91.744,91.744,0,0,1-21.709,11.607A1,1,0,0,1-864.815-3333.482Z" transform="translate(819 3481.862)" fill="#5bb3b3" />
        <g transform="translate(21.093 -32.677)">
            <path d="M17.152-1A18.147,18.147,0,0,1,29.988,29.988,18.152,18.152,0,1,1,10.086.427,18.039,18.039,0,0,1,17.152-1Zm0,34.3A16.152,16.152,0,0,0,28.573,5.731,16.152,16.152,0,0,0,5.731,28.573,16.046,16.046,0,0,0,17.152,33.3Z" transform="matrix(0.257, -0.966, 0.966, 0.257, -0.438, 83.319)" fill="#5bb3b3" />
            <path d="M0,8.769a1,1,0,0,1-1-1V0A1,1,0,0,1,0-1,1,1,0,0,1,1,0V7.769A1,1,0,0,1,0,8.769Z" transform="translate(20.542 41.933)" fill="#5bb3b3" />
            <path d="M0,8.769a1,1,0,0,1-1-1V0A1,1,0,0,1,0-1,1,1,0,0,1,1,0V7.769A1,1,0,0,1,0,8.769Z" transform="translate(20.542 93.428)" fill="#5bb3b3" />
            <path d="M5.494,6.494A1,1,0,0,1,4.787,6.2L-.707.707a1,1,0,0,1,0-1.414,1,1,0,0,1,1.414,0L6.2,4.787a1,1,0,0,1-.707,1.707Z" transform="translate(-0.412 50.612)" fill="#5bb3b3" />
            <path d="M5.494,6.494A1,1,0,0,1,4.787,6.2L-.707.707a1,1,0,0,1,0-1.414,1,1,0,0,1,1.414,0L6.2,4.787a1,1,0,0,1-.707,1.707Z" transform="translate(36.001 87.024)" fill="#5bb3b3" />
            <path d="M7.769,1.027h0L0,1A1,1,0,0,1-1,0,1,1,0,0,1,0-1l7.769.027a1,1,0,0,1,0,2Z" transform="translate(42.405 71.641)" fill="#5bb3b3" />
            <path d="M0,6.475a1,1,0,0,1-.71-.3,1,1,0,0,1,0-1.414L4.809-.71a1,1,0,0,1,1.414,0,1,1,0,0,1,0,1.414L.7,6.184A1,1,0,0,1,0,6.475Z" transform="translate(36.054 50.684)" fill="#5bb3b3" />
            <path d="M0,6.475a1,1,0,0,1-.71-.3,1,1,0,0,1,0-1.414L4.809-.71a1,1,0,0,1,1.414,0,1,1,0,0,1,0,1.414L.7,6.184A1,1,0,0,1,0,6.475Z" transform="translate(-0.484 86.971)" fill="#5bb3b3" />
            <path d="M0,8.19a1,1,0,0,1-.378-.075,1,1,0,0,1-.547-1.3L2.017-.379a1,1,0,0,1,1.3-.547,1,1,0,0,1,.547,1.3L.926,7.569A1,1,0,0,1,0,8.19Z" transform="translate(28.823 44.14)" fill="#5bb3b3" />
            <path d="M0,8.19a1,1,0,0,1-.378-.075,1,1,0,0,1-.547-1.3L2.017-.379a1,1,0,0,1,1.3-.547,1,1,0,0,1,.547,1.3L.926,7.569A1,1,0,0,1,0,8.19Z" transform="translate(9.319 91.799)" fill="#5bb3b3" />
            <path d="M3,8.166a1,1,0,0,1-.923-.614l-3-7.166A1,1,0,0,1-.387-.922,1,1,0,0,1,.922-.387l3,7.166A1,1,0,0,1,3,8.166Z" transform="translate(9.085 44.237)" fill="#5bb3b3" />
            <path d="M3,8.166a1,1,0,0,1-.923-.614l-3-7.166A1,1,0,0,1-.387-.922,1,1,0,0,1,.922-.387l3,7.166A1,1,0,0,1,3,8.166Z" transform="translate(28.994 91.728)" fill="#5bb3b3" />
            <path d="M7.18,3.968A1,1,0,0,1,6.8,3.892L-.382.924A1,1,0,0,1-.924-.382,1,1,0,0,1,.382-.924L7.563,2.044A1,1,0,0,1,7.18,3.968Z" transform="translate(40.747 79.915)" fill="#5bb3b3" />
            <path d="M7.18,3.968A1,1,0,0,1,6.8,3.892L-.382.924A1,1,0,0,1-.924-.382,1,1,0,0,1,.382-.924L7.563,2.044A1,1,0,0,1,7.18,3.968Z" transform="translate(-6.844 60.247)" fill="#5bb3b3" />
            <path d="M0,3.979a1,1,0,0,1-.924-.617,1,1,0,0,1,.54-1.307L6.792-.924A1,1,0,0,1,8.1-.383,1,1,0,0,1,7.559.924L.383,3.9A1,1,0,0,1,0,3.979Z" transform="translate(40.734 60.203)" fill="#5bb3b3" />
            <path d="M0,3.979a1,1,0,0,1-.924-.617,1,1,0,0,1,.54-1.307L6.792-.924A1,1,0,0,1,8.1-.383,1,1,0,0,1,7.559.924L.383,3.9A1,1,0,0,1,0,3.979Z" transform="translate(-6.826 79.948)" fill="#5bb3b3" />
            <path d="M7.769,1.027h0L0,1A1,1,0,0,1-1,0,1,1,0,0,1,0-1l7.769.027a1,1,0,0,1,0,2Z" transform="translate(-9.09 71.463)" fill="#5bb3b3" />
        </g>
        <path d="M-691.334-3305.593a1,1,0,0,1-.788-.384c-.031-.039-3.1-3.954-4.844-5.644-6.26-6.06-22.746-21.76-40.584-36.627a325.555,325.555,0,0,0-26.6-20.287c-9.076-6.063-16.2-9.611-21.184-10.544-13.361-2.505-25.307,7.634-39.138,19.373-5.761,4.889-11.718,9.945-18.292,14.557a91.743,91.743,0,0,1-21.709,11.607,1,1,0,0,1-1.279-.6,1,1,0,0,1,.6-1.279,89.773,89.773,0,0,0,21.236-11.362c6.5-4.558,12.42-9.584,18.146-14.444,6.995-5.937,13.6-11.544,20.2-15.328a37.964,37.964,0,0,1,10.077-4.179,24.813,24.813,0,0,1,10.528-.308c9.581,1.8,25.966,12.313,48.7,31.26,17.889,14.91,34.419,30.651,40.695,36.727a76.975,76.975,0,0,1,5.029,5.848,1,1,0,0,1-.171,1.4A1,1,0,0,1-691.334-3305.593Z" transform="translate(919 3469)" fill="#5bb3b3" />
        <path d="M123.5,1H0A1,1,0,0,1-1,0,1,1,0,0,1,0-1H123.5a1,1,0,0,1,1,1A1,1,0,0,1,123.5,1Z" transform="translate(276.5 221.305)" fill="#5bb3b3" />
        <path d="M153.5,1H0A1,1,0,0,1-1,0,1,1,0,0,1,0-1H153.5a1,1,0,0,1,1,1A1,1,0,0,1,153.5,1Z" transform="translate(246.5 252.898)" fill="#5bb3b3" />
        <path d="M62.313,1H0A1,1,0,0,1-1,0,1,1,0,0,1,0-1H62.313a1,1,0,0,1,1,1A1,1,0,0,1,62.313,1Z" transform="translate(0.5 221.305)" fill="#5bb3b3" />
        <path d="M0,78.584S60.241,57.96,72.106,49.578s-47.829-7.441-54.74-13.356S41.836,0,41.836,0h2.57S12.313,31.161,27.231,33.355s63.355,3.426,54.609,15.65S8.271,86.3,8.271,86.3Z" transform="translate(205.308 61.082)" fill="#313e58" />
        <path d="M-702.925-3324.685a.5.5,0,0,1-.469-.326.5.5,0,0,1,.294-.643c.014-.005,1.4-.52,3.735-1.411a.5.5,0,0,1,.645.289.5.5,0,0,1-.289.645c-2.344.893-3.728,1.409-3.742,1.414A.5.5,0,0,1-702.925-3324.685Zm9.339-3.566a.5.5,0,0,1-.466-.319.5.5,0,0,1,.285-.647c1.235-.479,2.489-.969,3.727-1.454a.5.5,0,0,1,.648.283.5.5,0,0,1-.283.648c-1.239.486-2.495.976-3.731,1.456A.5.5,0,0,1-693.586-3328.252Zm9.308-3.662a.5.5,0,0,1-.465-.315.5.5,0,0,1,.279-.65c1.243-.5,2.491-1,3.709-1.489a.5.5,0,0,1,.651.277.5.5,0,0,1-.276.651c-1.22.492-2.469.994-3.713,1.49A.5.5,0,0,1-684.278-3331.914Zm9.269-3.754a.5.5,0,0,1-.463-.31.5.5,0,0,1,.272-.653c1.245-.512,2.488-1.027,3.693-1.53a.5.5,0,0,1,.654.269.5.5,0,0,1-.269.654c-1.207.5-2.451,1.018-3.7,1.531A.5.5,0,0,1-675.009-3335.668Zm9.224-3.863a.5.5,0,0,1-.46-.3.5.5,0,0,1,.264-.656c1.246-.532,2.481-1.063,3.671-1.581a.5.5,0,0,1,.658.259.5.5,0,0,1-.259.658c-1.192.518-2.429,1.051-3.677,1.583A.5.5,0,0,1-665.785-3339.531Zm9.164-4a.5.5,0,0,1-.457-.3.5.5,0,0,1,.252-.661c1.246-.558,2.47-1.114,3.639-1.65a.5.5,0,0,1,.663.246.5.5,0,0,1-.246.663c-1.172.538-2.4,1.095-3.647,1.654A.5.5,0,0,1-656.621-3343.534Zm9.074-4.2a.5.5,0,0,1-.451-.283.5.5,0,0,1,.234-.667c1.246-.6,2.452-1.192,3.583-1.759a.5.5,0,0,1,.671.223.5.5,0,0,1-.223.671c-1.136.57-2.346,1.164-3.6,1.766A.5.5,0,0,1-647.547-3347.738Zm8.909-4.54a.5.5,0,0,1-.439-.26.5.5,0,0,1,.2-.678c1.254-.687,2.417-1.351,3.455-1.974a.5.5,0,0,1,.686.171.5.5,0,0,1-.171.686c-1.05.63-2.224,1.3-3.49,1.994A.5.5,0,0,1-638.637-3352.278Zm8.43-5.36a.5.5,0,0,1-.387-.183.5.5,0,0,1,.07-.7c1.712-1.4,2.219-2.282,2.343-2.774a.5.5,0,0,1,.607-.363.5.5,0,0,1,.363.607c-.237.942-1.114,2.023-2.68,3.3A.5.5,0,0,1-630.208-3357.638Zm-1.675-6.773a.5.5,0,0,1-.2-.041,31.04,31.04,0,0,0-3.717-1.284.5.5,0,0,1-.345-.617.5.5,0,0,1,.617-.345,32.039,32.039,0,0,1,3.839,1.327.5.5,0,0,1,.263.656A.5.5,0,0,1-631.883-3364.411Zm-9.628-2.628a.493.493,0,0,1-.09-.008c-1.222-.222-2.545-.435-3.931-.633a.5.5,0,0,1-.424-.566.5.5,0,0,1,.566-.424c1.4.2,2.733.415,3.968.639a.5.5,0,0,1,.4.582A.5.5,0,0,1-641.511-3367.039Zm-9.9-1.365-.053,0c-1.26-.132-2.56-.257-3.974-.381a.5.5,0,0,1-.454-.542.5.5,0,0,1,.542-.454c1.419.125,2.724.25,3.99.383a.5.5,0,0,1,.445.549A.5.5,0,0,1-651.416-3368.4Zm-9.964-.857h-.037l-1.876-.136-2.115-.154a.5.5,0,0,1-.462-.536.5.5,0,0,1,.536-.462l2.113.154,1.877.136a.5.5,0,0,1,.462.535A.5.5,0,0,1-661.379-3369.261Zm-9.952-.914a.5.5,0,0,1-.095-.009c-.682-.131-1.477-.267-2.318-.412-.521-.089-1.059-.182-1.615-.28a.5.5,0,0,1-.405-.58.5.5,0,0,1,.58-.405c.552.1,1.09.19,1.609.279.847.145,1.646.282,2.338.415a.5.5,0,0,1,.4.585A.5.5,0,0,1-671.331-3370.174Zm-9.8-1.978a.5.5,0,0,1-.139-.02,15.663,15.663,0,0,1-3.817-1.56.5.5,0,0,1-.164-.688.5.5,0,0,1,.688-.164,14.935,14.935,0,0,0,3.571,1.451.5.5,0,0,1,.341.619A.5.5,0,0,1-681.13-3372.152Z" transform="translate(912 3469)" fill="#fff" />
        <g transform="translate(-33.483 1.163)">
            <g transform="translate(67.502 219.626)">
                <path d="M0,0,39.542,104.63l27.716,77.118h15.8L44.963,0Z" transform="translate(87.524)" fill="#acb1bc" />
                <path d="M63.42,0C62.99,35.9,63.3,84.236,62.3,86.473s-62.3,51-62.3,51L8.146,151.32s72.775-46.931,76.5-53.184S107.054,34.346,116.78,0Z" transform="translate(14.331)" fill="#7a8293" />
                <g transform="translate(13.23 135.689) rotate(50)">
                    <path d="M0,17.27.822,0h17.27C30.376,8.635,50.166,13.981,50.166,13.981v3.29H18.915L8.224,15.625V17.27Z" transform="translate(0 0)" fill="#7a8293" />
                </g>
                <g transform="translate(153.315 179.281)">
                    <path d="M0,17.27.822,0h17.27C30.376,8.635,50.166,13.981,50.166,13.981v3.29H18.915L8.224,15.625V17.27Z" transform="translate(0 0)" fill="#7a8293" />
                </g>
            </g>
            <path d="M2.3,0,39.124,14.351a85.754,85.754,0,0,1,23.171,2.8c1.646.851,3.9,2.863-1.7,3.911s-11.441,2.4-11.7,4.476,3.664,3.422,2.81,6.357q-.854,2.935-17.85-8.787L0,18.638Z" transform="matrix(0.978, 0.208, -0.208, 0.978, 208.22, 181.729)" fill="#efc6a1" />
            <path d="M.757,7.612C19.2,7.577,50.026,11.462,85.728,0l3.433,17.153C58.476,36.888,27.34,51.43,1.522,43.041-2.8,41.637,3.767,29.417.757,7.612Z" transform="translate(189.552 127.837) rotate(56)" fill="#629d62" />
            <g transform="translate(154.942 75.885)">
                <g transform="translate(3.368 5.852)">
                    <path d="M0,61.462,6.956,29.038C3.077,24.485.451,18.9.89,12.65,2.154-5.367,27.236-1.4,32.114,7.69s4.3,32.161-2.006,33.787c-2.515.648-7.872-.94-13.324-4.226l3.422,24.211Z" transform="translate(0 0)" fill="#efc6a1" />
                </g>
                <path d="M8.771,39C6.235,27.713-.99,20.022.114,14.979A8.584,8.584,0,0,1,6,8.707S8.467-1.291,21.937.2,43.629,7.289,40.079,19.6c-3.264,0-7.2-1.18-12.652.842-2.593.962-3.709,5.969-3.709,5.969H21.256s-3.584-5.942-7.068-4.367S12.6,29.694,12.6,29.694L11.391,39Z" transform="translate(0 -0.05)" fill="#313e58" />
            </g>
            <path d="M41.935,0S20.346,64.42,17.879,69.425C16.673,71.873,7.746,79.307,1.551,83.555c-2.487,1.7-1.457,3.887-.518,4.466,7.639,4.713,12.668-.86,19.28-3.936,7.244-3.37,6.632,6.146,12.374,3.576-1.763-3.952-5.886-11.3-3.937-16.133C30.047,68.309,60.371.069,60.371.069Z" transform="translate(77.574 189.926)" fill="#efc6a1" />
            <path d="M0,123.766Q15.033,43.778,63.461,0h1.432L64.9.013,86.776,5.022c0,37.618,11.983,61.618,18.129,89.275H45.837c-.832,9.556-1.343,19.38-1.609,29.468Z" transform="translate(97.981 127.243)" fill="#85cb85" />
            <path d="M12.005,55.064H0C1.8,34.354,4.983,16.342,9.72,0c-.648,10.908-.867,20.767-.65,29.3C9.345,40.17,10.333,48.836,12,55.063Z" transform="translate(143.818 166.478)" fill="rgba(0,0,0,0.1)" />
        </g>
    </g>
</svg>