<svg xmlns="http://www.w3.org/2000/svg" xmlns:xlink="http://www.w3.org/1999/xlink" width="400" height="320" viewBox="0 0 400 320">
    <defs>
        <clipPath>
            <rect width="191.556" height="43.82" fill="none" />
        </clipPath>
        <clipPath>
            <rect width="191.556" height="43.819" fill="none" />
        </clipPath>
        <clipPath>
            <rect width="400" height="320" />
        </clipPath>
    </defs>
    <g clip-path="url(#d)">
        <rect width="400" height="320" fill="transparent" />
        <path d="M74.815,1H0A1,1,0,0,1-1,0,1,1,0,0,1,0-1H74.815a1,1,0,0,1,1,1A1,1,0,0,1,74.815,1Z" transform="translate(269.185 111.514)" fill="#5bb3b3" />
        <path d="M112.523,1H0A1,1,0,0,1-1,0,1,1,0,0,1,0-1H112.523a1,1,0,0,1,1,1A1,1,0,0,1,112.523,1Z" transform="translate(19.977 111.514)" fill="#5bb3b3" />
        <path d="M99.1,1H0A1,1,0,0,1-1,0,1,1,0,0,1,0-1H99.1a1,1,0,0,1,1,1A1,1,0,0,1,99.1,1Z" transform="translate(151.185 111.514)" fill="#5bb3b3" />
        <path d="M73.843,1H0A1,1,0,0,1-1,0,1,1,0,0,1,0-1H73.843a1,1,0,0,1,1,1A1,1,0,0,1,73.843,1Z" transform="translate(269.576 130.635)" fill="#5bb3b3" />
        <path d="M111.551,1H0A1,1,0,0,1-1,0,1,1,0,0,1,0-1H111.551a1,1,0,0,1,1,1A1,1,0,0,1,111.551,1Z" transform="translate(20.368 130.635)" fill="#5bb3b3" />
        <path d="M96.153,1H0A1,1,0,0,1-1,0,1,1,0,0,1,0-1H96.153a1,1,0,0,1,1,1A1,1,0,0,1,96.153,1Z" transform="translate(151.576 130.635)" fill="#5bb3b3" />
        <path d="M68.368,1.232h0L0,1A1,1,0,0,1-1,0,1,1,0,0,1,0-1l68.368.232a1,1,0,0,1,0,2Z" transform="translate(269.05 143.654)" fill="#5bb3b3" />
        <path d="M111.659,1H0A1,1,0,0,1-1,0,1,1,0,0,1,0-1H111.659a1,1,0,0,1,1,1A1,1,0,0,1,111.659,1Z" transform="translate(19.841 143.654)" fill="#5bb3b3" />
        <path d="M96.474,1H0A1,1,0,0,1-1,0,1,1,0,0,1,0-1H96.474a1,1,0,0,1,1,1A1,1,0,0,1,96.474,1Z" transform="translate(151.05 143.654)" fill="#5bb3b3" />
        <path d="M371.278,191.243a1,1,0,0,1-1-1V152.5a38.645,38.645,0,0,0-1.4-10.44,30.132,30.132,0,0,0-3.786-8.49,19.085,19.085,0,0,0-5.5-5.637,11.959,11.959,0,0,0-6.533-2.018h-11.6a11.961,11.961,0,0,0-6.534,2.018,19.084,19.084,0,0,0-5.5,5.637,30.132,30.132,0,0,0-3.786,8.49,38.645,38.645,0,0,0-1.4,10.44v37.738a1,1,0,0,1-2,0V152.5a40.644,40.644,0,0,1,1.475-10.98,32.123,32.123,0,0,1,4.043-9.052,21.061,21.061,0,0,1,6.087-6.216,13.927,13.927,0,0,1,7.616-2.336h11.6a13.926,13.926,0,0,1,7.615,2.336,21.061,21.061,0,0,1,6.086,6.216,32.123,32.123,0,0,1,4.042,9.052,40.644,40.644,0,0,1,1.475,10.98v37.738A1,1,0,0,1,371.278,191.243Z" transform="translate(-50.905 28.241)" fill="#5bb3b3" />
        <path d="M371.278,191.243a1,1,0,0,1-1-1V152.5a38.645,38.645,0,0,0-1.4-10.44,30.132,30.132,0,0,0-3.786-8.49,19.085,19.085,0,0,0-5.5-5.637,11.959,11.959,0,0,0-6.533-2.018h-11.6a11.961,11.961,0,0,0-6.534,2.018,19.084,19.084,0,0,0-5.5,5.637,30.132,30.132,0,0,0-3.786,8.49,38.645,38.645,0,0,0-1.4,10.44v37.738a1,1,0,0,1-2,0V152.5a40.644,40.644,0,0,1,1.475-10.98,32.123,32.123,0,0,1,4.043-9.052,21.061,21.061,0,0,1,6.087-6.216,13.927,13.927,0,0,1,7.616-2.336h11.6a13.926,13.926,0,0,1,7.615,2.336,21.061,21.061,0,0,1,6.086,6.216,32.123,32.123,0,0,1,4.042,9.052,40.644,40.644,0,0,1,1.475,10.98v37.738A1,1,0,0,1,371.278,191.243Z" transform="translate(-300.113 28.241)" fill="#5bb3b3" />
        <path d="M413.641,191.243a1,1,0,0,1-1-1V152.5a21.751,21.751,0,0,0-2.589-10.243,27.193,27.193,0,0,0-7.108-8.459,34.744,34.744,0,0,0-10.6-5.759,40.062,40.062,0,0,0-12.989-2.123H357.523a40.067,40.067,0,0,0-12.99,2.123,34.745,34.745,0,0,0-10.6,5.759,27.192,27.192,0,0,0-7.108,8.459,21.751,21.751,0,0,0-2.589,10.243v37.738a1,1,0,0,1-2,0V152.5a23.731,23.731,0,0,1,2.821-11.177,29.178,29.178,0,0,1,7.623-9.083,36.738,36.738,0,0,1,11.205-6.094,42.062,42.062,0,0,1,13.637-2.23h21.834a42.058,42.058,0,0,1,13.636,2.23,36.737,36.737,0,0,1,11.2,6.094,29.178,29.178,0,0,1,7.623,9.083,23.731,23.731,0,0,1,2.821,11.177v37.738A1,1,0,0,1,413.641,191.243Z" transform="translate(-168.905 28.241)" fill="#5bb3b3" />
        <path d="M371.278,191.243a1,1,0,0,1-1-1V152.5a38.645,38.645,0,0,0-1.4-10.44,30.132,30.132,0,0,0-3.786-8.49,19.085,19.085,0,0,0-5.5-5.637,11.959,11.959,0,0,0-6.533-2.018h-11.6a11.961,11.961,0,0,0-6.534,2.018,19.084,19.084,0,0,0-5.5,5.637,30.132,30.132,0,0,0-3.786,8.49,38.645,38.645,0,0,0-1.4,10.44v37.738a1,1,0,0,1-2,0V152.5a40.644,40.644,0,0,1,1.475-10.98,32.123,32.123,0,0,1,4.043-9.052,21.061,21.061,0,0,1,6.087-6.216,13.927,13.927,0,0,1,7.616-2.336h11.6a13.926,13.926,0,0,1,7.615,2.336,21.061,21.061,0,0,1,6.086,6.216,32.123,32.123,0,0,1,4.042,9.052,40.644,40.644,0,0,1,1.475,10.98v37.738A1,1,0,0,1,371.278,191.243Z" transform="translate(5.263 28.241)" fill="#5bb3b3" />
        <path d="M371.278,191.243a1,1,0,0,1-1-1V152.5a38.645,38.645,0,0,0-1.4-10.44,30.132,30.132,0,0,0-3.786-8.49,19.085,19.085,0,0,0-5.5-5.637,11.959,11.959,0,0,0-6.533-2.018h-11.6a11.961,11.961,0,0,0-6.534,2.018,19.084,19.084,0,0,0-5.5,5.637,30.132,30.132,0,0,0-3.786,8.49,38.645,38.645,0,0,0-1.4,10.44v37.738a1,1,0,0,1-2,0V152.5a40.644,40.644,0,0,1,1.475-10.98,32.123,32.123,0,0,1,4.043-9.052,21.061,21.061,0,0,1,6.087-6.216,13.927,13.927,0,0,1,7.616-2.336h11.6a13.926,13.926,0,0,1,7.615,2.336,21.061,21.061,0,0,1,6.086,6.216,32.123,32.123,0,0,1,4.042,9.052,40.644,40.644,0,0,1,1.475,10.98v37.738A1,1,0,0,1,371.278,191.243Z" transform="translate(-243.945 28.241)" fill="#5bb3b3" />
        <path d="M0,151.53a1,1,0,0,1-1-1V0A1,1,0,0,1,0-1,1,1,0,0,1,1,0V150.53A1,1,0,0,1,0,151.53Z" transform="translate(263.333 67.954)" fill="#5bb3b3" />
        <path d="M0,151.53a1,1,0,0,1-1-1V0A1,1,0,0,1,0-1,1,1,0,0,1,1,0V150.53A1,1,0,0,1,0,151.53Z" transform="translate(145.333 67.954)" fill="#5bb3b3" />
        <path d="M0,151.53a1,1,0,0,1-1-1V0A1,1,0,0,1,0-1,1,1,0,0,1,1,0V150.53A1,1,0,0,1,0,151.53Z" transform="translate(13.703 67.954)" fill="#5bb3b3" />
        <path d="M0,151.53a1,1,0,0,1-1-1V0A1,1,0,0,1,0-1,1,1,0,0,1,1,0V150.53A1,1,0,0,1,0,151.53Z" transform="translate(254.333 67.954)" fill="#5bb3b3" />
        <path d="M0,151.53a1,1,0,0,1-1-1V0A1,1,0,0,1,0-1,1,1,0,0,1,1,0V150.53A1,1,0,0,1,0,151.53Z" transform="translate(136.333 67.954)" fill="#5bb3b3" />
        <path d="M0,159.546a1,1,0,0,1-1-1V0A1,1,0,0,1,0-1,1,1,0,0,1,1,0V158.546A1,1,0,0,1,0,159.546Z" transform="translate(4.703 67.954)" fill="#5bb3b3" />
        <path d="M374.619,1H0A1,1,0,0,1-1,0,1,1,0,0,1,0-1H374.619a1,1,0,0,1,1,1A1,1,0,0,1,374.619,1Z" transform="translate(1.881 68.064)" fill="#5bb3b3" />
        <g transform="translate(316 78.558)">
            <path d="M374.386,67.146a1,1,0,0,1-1-1,15.8,15.8,0,0,0-2.739-9.206,7.2,7.2,0,0,0-12.519,0,15.8,15.8,0,0,0-2.739,9.206,1,1,0,0,1-2,0,17.806,17.806,0,0,1,3.118-10.377,11.5,11.5,0,0,1,3.484-3.245,8.5,8.5,0,0,1,8.795,0,11.5,11.5,0,0,1,3.484,3.245,17.806,17.806,0,0,1,3.118,10.377A1,1,0,0,1,374.386,67.146Z" transform="translate(-354.388 -52.298)" fill="#5bb3b3" />
            <path d="M0-1H19.953a1,1,0,0,1,1,1V14.266a1,1,0,0,1-1,1H0a1,1,0,0,1-1-1V0A1,1,0,0,1,0-1ZM18.953,1H1V13.266H18.953Z" transform="translate(0 13.847)" fill="#5bb3b3" />
        </g>
        <g transform="translate(66.792 78.558)">
            <path d="M374.386,67.146a1,1,0,0,1-1-1,15.8,15.8,0,0,0-2.739-9.206,7.2,7.2,0,0,0-12.519,0,15.8,15.8,0,0,0-2.739,9.206,1,1,0,0,1-2,0,17.806,17.806,0,0,1,3.118-10.377,11.5,11.5,0,0,1,3.484-3.245,8.5,8.5,0,0,1,8.795,0,11.5,11.5,0,0,1,3.484,3.245,17.806,17.806,0,0,1,3.118,10.377A1,1,0,0,1,374.386,67.146Z" transform="translate(-354.388 -52.298)" fill="#5bb3b3" />
            <path d="M0-1H19.953a1,1,0,0,1,1,1V14.266a1,1,0,0,1-1,1H0a1,1,0,0,1-1-1V0A1,1,0,0,1,0-1ZM18.953,1H1V13.266H18.953Z" transform="translate(0 13.847)" fill="#5bb3b3" />
        </g>
        <g transform="translate(106.667 78.558)">
            <path d="M374.386,67.146a1,1,0,0,1-1-1,15.8,15.8,0,0,0-2.739-9.206,7.2,7.2,0,0,0-12.519,0,15.8,15.8,0,0,0-2.739,9.206,1,1,0,0,1-2,0,17.806,17.806,0,0,1,3.118-10.377,11.5,11.5,0,0,1,3.484-3.245,8.5,8.5,0,0,1,8.795,0,11.5,11.5,0,0,1,3.484,3.245,17.806,17.806,0,0,1,3.118,10.377A1,1,0,0,1,374.386,67.146Z" transform="translate(-354.388 -52.298)" fill="#5bb3b3" />
            <path d="M0-1H19.953a1,1,0,0,1,1,1V14.266a1,1,0,0,1-1,1H0a1,1,0,0,1-1-1V0A1,1,0,0,1,0-1ZM18.953,1H1V13.266H18.953Z" transform="translate(0 13.847)" fill="#5bb3b3" />
        </g>
        <g transform="translate(273 78.558)">
            <path d="M344.9,67.146a1,1,0,0,1-1-1,15.8,15.8,0,0,0-2.739-9.206,7.2,7.2,0,0,0-12.519,0,15.8,15.8,0,0,0-2.739,9.206,1,1,0,0,1-2,0,17.806,17.806,0,0,1,3.118-10.377,11.5,11.5,0,0,1,3.484-3.245,8.5,8.5,0,0,1,8.795,0,11.5,11.5,0,0,1,3.484,3.245A17.806,17.806,0,0,1,345.9,66.146,1,1,0,0,1,344.9,67.146Z" transform="translate(-324.901 -52.298)" fill="#5bb3b3" />
            <path d="M0-1H19.953a1,1,0,0,1,1,1V14.266a1,1,0,0,1-1,1H0a1,1,0,0,1-1-1V0A1,1,0,0,1,0-1ZM18.953,1H1V13.266H18.953Z" transform="translate(0 13.847)" fill="#5bb3b3" />
        </g>
        <g transform="translate(23.792 78.558)">
            <path d="M344.9,67.146a1,1,0,0,1-1-1,15.8,15.8,0,0,0-2.739-9.206,7.2,7.2,0,0,0-12.519,0,15.8,15.8,0,0,0-2.739,9.206,1,1,0,0,1-2,0,17.806,17.806,0,0,1,3.118-10.377,11.5,11.5,0,0,1,3.484-3.245,8.5,8.5,0,0,1,8.795,0,11.5,11.5,0,0,1,3.484,3.245A17.806,17.806,0,0,1,345.9,66.146,1,1,0,0,1,344.9,67.146Z" transform="translate(-324.901 -52.298)" fill="#5bb3b3" />
            <path d="M0-1H19.953a1,1,0,0,1,1,1V14.266a1,1,0,0,1-1,1H0a1,1,0,0,1-1-1V0A1,1,0,0,1,0-1ZM18.953,1H1V13.266H18.953Z" transform="translate(0 13.847)" fill="#5bb3b3" />
        </g>
        <path d="M396.382,1H0A1,1,0,0,1-1,0,1,1,0,0,1,0-1H396.382a1,1,0,0,1,1,1A1,1,0,0,1,396.382,1Z" transform="translate(0 50.118)" fill="#5bb3b3" />
        <path d="M251.464,24.621a1,1,0,0,1-1-1V2H140.471V23.061a1,1,0,1,1-2,0V1a1,1,0,0,1,1-1H251.464a1,1,0,0,1,1,1V23.621A1,1,0,0,1,251.464,24.621Z" transform="translate(5.071 24.861)" fill="#5bb3b3" />
        <path d="M101.194,24.36a1,1,0,0,1-1-1V12.1a1,1,0,0,1,1-1h35.356a1,1,0,0,1,0,2H102.194V23.36A1,1,0,0,1,101.194,24.36Z" transform="translate(6.433 25.164)" fill="#5bb3b3" />
        <path d="M291.453,24.36a1,1,0,0,1-1-1V13.1H256.1a1,1,0,0,1,0-2h35.356a1,1,0,0,1,1,1V23.36A1,1,0,0,1,291.453,24.36Z" transform="translate(0.92 25.164)" fill="#5bb3b3" />
        <path d="M438.061,141.99H398.109a20.919,20.919,0,0,1-20.755-20.96v-2.265a21.026,21.026,0,0,1,12.934-19.394A20.984,20.984,0,0,1,383.8,84.215V78.55a20.919,20.919,0,0,1,20.755-20.96h.094A24.684,24.684,0,0,1,427.84,41.143a43.767,43.767,0,0,1,10.222,2.006" transform="translate(-37.546 25.956)" fill="#bfe2e2" />
        <path d="M433.727,102.85a1,1,0,0,1-.785-1.618,50.767,50.767,0,0,1,4.906-5.274,1,1,0,1,1,1.356,1.47,49.668,49.668,0,0,0-4.69,5.042A1,1,0,0,1,433.727,102.85Z" transform="translate(-39.553 27.471)" fill="#5bb3b3" />
        <path d="M425.225,110.3a1,1,0,0,1-.528-.152h0c-.1-.064-10.4-6.434-18.408-7.09a1,1,0,1,1,.163-1.993c3.585.294,7.927,1.628,12.9,3.967a67.18,67.18,0,0,1,6.4,3.419,1,1,0,0,1-.53,1.848Z" transform="translate(-38.579 27.618)" fill="#5bb3b3" />
        <path d="M420.415,101.25h-.043a1,1,0,0,1-.957-1.039,19.013,19.013,0,0,0-.844-5.084,48.639,48.639,0,0,0-6.7-13.831,1,1,0,0,1,1.661-1.114,52.152,52.152,0,0,1,7,14.542,20.058,20.058,0,0,1,.878,5.569A1,1,0,0,1,420.415,101.25Z" transform="translate(-38.805 27.036)" fill="#5bb3b3" />
        <path d="M426.948,100.054a1,1,0,0,1-1-1h0a29.59,29.59,0,0,0-1.388-7.624,39.96,39.96,0,0,0-3.261-7.686,43.194,43.194,0,0,0-6.328-8.654,1,1,0,1,1,1.458-1.369,45.182,45.182,0,0,1,6.65,9.108,41.937,41.937,0,0,1,3.421,8.1,30.811,30.811,0,0,1,1.449,8.119A1,1,0,0,1,426.948,100.054Z" transform="translate(-38.911 26.863)" fill="#5bb3b3" />
        <path d="M422.274,204.73a1,1,0,0,1-1-1c0-.673-.012-67.438.074-77.415a13.272,13.272,0,0,0-2.4-7.995,17.083,17.083,0,0,0-5.889-4.969c-4.652-2.522-9.963-3.454-12.817-3.955a13.969,13.969,0,0,1-1.872-.391,1,1,0,0,1,.67-1.884c.185.066.878.187,1.548.305,2.754.484,8.486,1.49,13.424,4.167a19.052,19.052,0,0,1,6.565,5.567,15.23,15.23,0,0,1,2.771,9.173c-.086,9.968-.074,76.724-.074,77.4A1,1,0,0,1,422.274,204.73Z" transform="translate(-38.306 27.781)" fill="#5bb3b3" />
        <path d="M435.293,204.784a1,1,0,0,1-1-.994c0-.646-.359-64.776,0-78.56.037-1.409.055-2.682.072-3.913.1-6.843.154-10.974,3.449-15.777a1,1,0,1,1,1.649,1.131c-2.953,4.3-3,7.988-3.1,14.674-.017,1.237-.035,2.516-.072,3.938-.359,13.752,0,77.851,0,78.5a1,1,0,0,1-.994,1.006Z" transform="translate(-39.603 27.728)" fill="#5bb3b3" />
        <g transform="translate(0 205)">
            <g transform="translate(0 0)" clip-path="url(#a)">
                <path d="M191.556,43.82c-5.07-11.48-10.758-34.487-25.234-25.081C157.63-5.711,129.435-.743,117.1,17.851c-5.078-8.275-17.93-8.336-23.082-.106C86.927-1.232,70.558,4.389,65.11,20.916,54.425-14.6,18.943,1.814,0,21.015v22.8Z" transform="translate(0 0)" fill="#b3dbdb" />
            </g>
        </g>
        <g transform="translate(283.94 205)">
            <g transform="translate(0 0)" clip-path="url(#b)">
                <path d="M0,43.819C5.07,32.34,10.758,9.333,25.234,18.738,33.926-5.711,62.121-.743,74.458,17.851c5.078-8.275,17.93-8.336,23.082-.106C104.629-1.232,121,4.389,126.446,20.916c10.685-35.512,46.167-19.1,65.11.1v22.8Z" transform="translate(0 0)" fill="#b3dbdb" />
            </g>
        </g>
        <g transform="translate(9.65 -6.525)">
            <g transform="translate(166.097 69.86)">
                <g transform="translate(3.816 4.021)">
                    <path d="M0,0,9.137,42.586C4.042,48.567.592,55.9,1.168,64.111,2.83,87.777,35.773,82.57,42.18,70.626s5.647-42.242-2.634-44.377c-3.3-.851-10.339,1.234-17.5,5.55L26.541,0Z" transform="translate(46.445 80.727) rotate(180)" fill="#b28b67" />
                </g>
                <path d="M9.06,0C4.66,2.64,1.309,7.981.315,13.937A23.04,23.04,0,0,0,.832,23.86,25.472,25.472,0,0,0,3.255,29.7C7.32,46.429,24.14,44.927,36.726,43.423c6.129-.733,11.254-1.465,13.413-.092,1.44-9.029-3.206-16.31-19.546-14.9-3.553-1.992-6.117-5.725-9.243-10.742A6.636,6.636,0,0,1,14.288,6.767c-1.7-2.4-3.413-4.618-5.226-6.766h0Z" transform="translate(50.386 44.287) rotate(180)" fill="#313e58" />
            </g>
            <g transform="translate(63.809 231.163)">
                <path d="M120.528,0,57.464,105.432l-47.28,89.134H0L79.219,0Z" transform="translate(31.231 0)" fill="#efc6a1" />
                <g transform="translate(0 185.3)">
                    <path d="M45.269,4.322a1.7,1.7,0,0,1,2.177,1.144l1.62,5.707a54.523,54.523,0,0,1-.765,6.7H.432s-1.866-6.169,2.154-6.66,6.679-.888,6.679-.888L31.515.406a.849.849,0,0,1,1.13.452l1.43,3.469S37.8,6.063,40.123,6.063Z" transform="translate(0 -0.332)" fill="#acb1bc" />
                </g>
                <path d="M19.639,180.293,0,174.352s12.907-38.584,31.638-84.92S71.871,0,71.871,0h55.468S103.434,54.514,76.653,99.066A757.035,757.035,0,0,1,19.639,180.293Z" transform="translate(34.907 0)" fill="#cc7a29" />
                <path d="M41.488,0C47.44,37.05,58.92,84.385,60,85.846q1.083,1.461,78.005,26.139l-2.2,8.98Q44.079,107.73,39.142,100.428C34.2,93.127,9.549,35.445,0,0Z" transform="translate(114.416 0)" fill="#efc6a1" />
                <path d="M123.206,104.222l-3.875,14.463q-68.608,6.017-84.075-8.7T0,0H52.892Q65.43,78.018,66.911,81.293T123.206,104.222Z" transform="translate(111.192 0)" fill="#e88a2d" />
                <g transform="matrix(-0.174, 0.985, -0.985, -0.174, 262.362, 108.992)">
                    <path d="M3.8,13.551A1.7,1.7,0,0,1,1.62,12.407L0,6.7A54.522,54.522,0,0,1,.765,0H48.634S50.5,6.169,46.479,6.66s-6.679.888-6.679.888L17.551,17.467a.849.849,0,0,1-1.13-.452l-1.43-3.469S11.269,11.81,8.943,11.81Z" transform="translate(0 0)" fill="#acb1bc" />
                </g>
            </g>
            <g transform="translate(99.506 133.495)">
                <path d="M1.041,1.836c-.947.584-1.984,2.783.522,4.5,6.245,4.281,15.244,11.775,16.46,14.243C20.51,25.625,28.979,74.8,28.979,74.8l17.736-.07S30.289,21.705,28.979,18.46C27.015,13.593,31.172,6.181,32.948,2.2c-2.8-1.253-4.1.347-5.527,1.947C25.9,5.85,24.243,7.556,20.475,5.8,15.654,3.56,11.669,0,6.917,0A11.024,11.024,0,0,0,1.041,1.836ZM153.748,49.578,126.939,60.695l5.984,14.794L160,55.609a72.852,72.852,0,0,0,18.4-7.4c1.164-1.06,2.57-3.207-2.256-2.837s-9.919.545-10.585-1.1,2.255-3.614.908-5.836a.64.64,0,0,0-.587-.317Q163.5,38.123,153.748,49.578Z" transform="translate(179.529 156.731) rotate(180)" fill="#b28b67" />
                <path d="M0,94.767l7.2,1.894c29.176-21.06,44.256-65.1,79.592-86.04L79.658,0C21.351,2.1,2.25,55.755,0,94.767Z" transform="matrix(-0.996, 0.087, -0.087, -0.996, 108.407, 101.913)" fill="#edc95a" />
                <path d="M67.26,96.753H2.324c-2.967,0-2.408-4.285-1.979-6.447C5.3,65.354,24.62,38.456,24.62,2.937L43.35,0C58.843,24.917,64.2,55.594,67.26,96.753Z" transform="translate(64.88 2.982)" fill="#dde3e9" />
                <path d="M.086,0c-1.5,48.443,16.844,85.722,32.193,108.2a9.849,9.849,0,0,0-8.429,5.178c-6.846,12.353-4.374,19.154,2.943,21.39s13.841-2.369,25.5-2.369a9.085,9.085,0,0,0,1.39-.1l6.216-.355S85.131,46.42,73.816,17.823H22.489A162.866,162.866,0,0,0,14.012,0Z" transform="translate(161.93 135.38) rotate(180)" fill="#edc95a" />
                <path d="M19.183,0H0C3.518,8.45,7.4,18.885,11.534,31.017,13.257,16.066,15.829,5.631,19.183,0Z" transform="translate(139.441 117.557) rotate(180)" fill="rgba(0,0,0,0.1)" />
            </g>
        </g>
    </g>
</svg>