<svg xmlns="http://www.w3.org/2000/svg" xmlns:xlink="http://www.w3.org/1999/xlink" width="400" height="320" viewBox="0 0 400 320">
    <defs>
        <clipPath >
            <rect width="400" height="320" />
        </clipPath>
    </defs>
    <g clip-path="url(#b)">
        <rect width="400" height="320" fill="transparent" />
        <path d="M-764.763-3978.233H-910.677v-2h145.914Z" transform="translate(905.656 4249)" fill="#5bb3b3" />
        <path d="M-483.244-3920.146c-3.961-.83-270.425-68.869-281.766-71.765l-.753-.192v-256.571h2v255.018c16.075,4.1,277.112,70.754,280.929,71.553Z" transform="translate(885.812 4249)" fill="#5bb3b3" />
        <path d="M-552.7-4032.626l-164.412-29.021.348-1.97,164.412,29.021Z" transform="translate(905 4256)" fill="#5bb3b3" />
        <path d="M-722.937-4181.1h164.412a1,1,0,0,1,1,1v165.263a1,1,0,0,1-.364.771,1,1,0,0,1-.826.21l-164.412-31.774a1,1,0,0,1-.81-.982V-4180.1A1,1,0,0,1-722.937-4181.1Zm163.412,2H-721.937v131.663l162.412,31.388Z" transform="translate(911 4256)" fill="#5bb3b3" />
        <circle cx="4" cy="4" r="4" transform="translate(260 211)" fill="#fff" />
        <path d="M4,2A2,2,0,1,0,6,4,2,2,0,0,0,4,2M4,0A4,4,0,1,1,0,4,4,4,0,0,1,4,0Z" transform="translate(260 211)" fill="#5bb3b3" />
        <path d="M-543.36-4013.658l-1.632-1.156,3.147-4.446v-156.734l-3.077-3.443,1.491-1.333,3.586,4.012v158.134Z" transform="translate(896.65 4256)" fill="#5bb3b3" />
        <g transform="translate(1111 4521)">
            <path d="M76.056,8.767.186,7.793C.2,4.732.2,3.2.212.141H76.068c0,3.45-.007,5.176-.012,8.626" transform="translate(-912 -4434)" fill="#bfe2e2" />
            <path d="M76.036,25.254.145,22.715.17,15.063l75.878,1.565c0,3.45-.007,5.175-.012,8.626" transform="translate(-912 -4434)" fill="#bfe2e2" />
            <path d="M76.017,41.145.1,37.042c.01-3.061.015-4.591.026-7.652l75.9,3.128c0,3.451-.007,5.176-.012,8.627" transform="translate(-912 -4434)" fill="#bfe2e2" />
            <path d="M15.963,70.525c5.52,3.867,8.281,5.838,13.8,9.853-4.43,7.509-14.205,8.8-21.828,3.344-.5-.36-.929-.7-1.4-1.1,3.771-4.756,5.655-7.175,9.424-12.1" transform="translate(-912 -4434)" fill="#bfe2e2" />
            <path d="M16.011,54.1A14.331,14.331,0,0,0,3.08,59.715c-5.2,6.719-3.659,16.749,3.459,22.905,3.77-4.756,5.655-7.176,9.424-12.1,5.52,3.867,8.281,5.838,13.8,9.853a15.446,15.446,0,0,0,2.16-8.172c.023-9.307-7.1-17.413-15.915-18.1" transform="translate(-912 -4434)" fill="#5ab3b3" />
            <path d="M60,75.163C56.5,80.7,54.756,83.424,51.258,88.8c-7.38-6.18-9.443-16.915-4.615-24.46a14.051,14.051,0,0,1,12.575-6.824c.313,7.05.469,10.579.782,17.646" transform="translate(-912 -4434)" fill="#5ab3b3" />
            <path d="M74.2,84.848a17.931,17.931,0,0,0,1.742-8.924c-.435-9.993-7.923-18.209-16.726-18.406.313,7.049.469,10.579.782,17.646C56.5,80.7,54.756,83.425,51.258,88.8c.487.408.927.743,1.444,1.1,7.844,5.391,17.473,3.322,21.5-5.051" transform="translate(-912 -4434)" fill="#bfe2e2" />
            <path d="M142.557,93.522,87.182,86.533q.049-43.266.1-86.533h55.277Z" transform="translate(-912 -4434)" fill="#bfe2e2" />
            <path d="M142.557,108.874l-55.392-8.221c0-3.124,0-4.686.009-7.81l55.383,7.59Z" transform="translate(-912 -4434)" fill="#bfe2e2" />
            <path d="M142.557,122.951,87.15,113.678c0-3.124.006-4.686.009-7.809l55.4,8.642Z" transform="translate(-912 -4434)" fill="#bfe2e2" />
        </g>
        <g transform="translate(-52.226 48.257)">
            <path d="M10.016,11.3C7.99,8.413,4.231,1.077,1.38.045-.457-.62.078,6.257.056,7.569A109.92,109.92,0,0,0,1.071,22.714c1.1,9.073,4.692,17.153,9.62,24.875,2.536,3.973,5.51,7.995,9.63,10.474,1.9,1.142,2.236,1.446,4.109,2.43,2.181,1.145,1.934,4.239,2.917,6.512C28.712,70.16,40.7,170.629,39.486,186.351c-.108,1.394,1.835,1.727,1.932.026.516-9.02-3.946-71.487-6.2-91.915s-4.529-38.476-6.813-45.543c-2.771-8.574-7.775-18.886-11.941-26.882A95.083,95.083,0,0,0,10.016,11.3Z" transform="translate(38.566 43.319)" fill="#bfe2e2" />
            <path d="M8,1.1C2.724-2.772-2.982,4.532,1.788,8.4A4.778,4.778,0,0,0,8.734,8c1.008,1.228,1.951,2.512,2.857,3.6,2.761,3.305,5.37,6.689,7.864,10.152,5.18,7.194,9.62,14.795,14.262,22.256C38.3,51.367,42.841,58.769,46.993,66.32c3.517,6.4,8.206,13.923,9.41,20.936-1.827-14.874-8.76-29.17-17.016-42.283C31.2,31.969,21.8,17.766,9.12,7.5A4.491,4.491,0,0,0,8,1.1Z" transform="translate(25.55 153.715)" fill="#bfe2e2" />
            <path d="M53.553.015c-2.95.577-7.77,7.25-10.2,9.793a95.233,95.233,0,0,0-7.983,9.616A162.643,162.643,0,0,0,21.243,42.461,214.135,214.135,0,0,0,5.528,83.36,168.712,168.712,0,0,0,.76,110.186c-.17,1.7-1.951,14.794.615,15.147,2.308.318,1.6-9.944,1.706-11.339A181.283,181.283,0,0,1,13.354,68.082c1.142-3.233,2.2-7.194,4.03-10.1,1.316-2.1.009-1.365,2.321-2.158,1.985-.681,4.247-.515,6.28-1.349,4.416-1.811,7.952-5.327,11.052-8.863,6.024-6.873,10.8-14.308,13.285-23.114A111.288,111.288,0,0,0,53.675,7.666C53.858,6.365,55.453-.357,53.553.015Z" transform="translate(80.025 118.523)" fill="#bfe2e2" />
            <path d="M44.322,6.612a267.326,267.326,0,0,0-26.139,61.88C14.61,81.482,12.112,94.813,9.63,108.047c-3.843,20.491-7.479,40.981-8.513,61.836-1.04,20.976-3.1,45.169,3.771,65.372-3.431-20.512-.164-42.345.414-62.984.276-9.853,1.077-19.609,2.128-29.4,1.02-9.5,2.685-18.958,4.236-28.386q1.133-6.887,2.357-13.757c.241-1.367.343-5.423,1.21-6.357s5.326-1.323,6.724-2.013a36.1,36.1,0,0,0,7.807-5.447A62.359,62.359,0,0,0,41.249,72.54C48.386,60.628,51.239,46.092,51.1,32.3,51.067,29.618,46.76.776,48.49.379Q48.334.2,48.194,0,46.23,3.289,44.322,6.612Z" transform="translate(52.764 -9.414) rotate(-7)" fill="#bfe2e2" />
            <path d="M2,1.874C1.831,1.627.715-.093,1.277.017.133-.207,2.851,1.914,0,.612,1.354,1.891.572,3.551.554,5.272a41.725,41.725,0,0,0,.964,8.3,56.9,56.9,0,0,0,3.867,12.54A56.193,56.193,0,0,0,23.854,48.773c3.9,2.7,7.72,3.624,12.167,4.868,2.809.786,3.032,2.239,4.522,4.965,3.1,5.677,6.153,11.333,8.89,17.2,3.269,7.008,6.442,14.023,9.435,21.154,10.083,24.02,18.29,48.905,22.6,74.659.106-15.177-3.405-30.807-7.834-45.273a270.2,270.2,0,0,0-11.9-30.756c-1.085-2.436-2.73-5.57-3.191-8.26-.323-1.885.664-3.7,1.116-5.683a59.463,59.463,0,0,0,.089-24.166c-1.705-8.571-6.637-12.549-14.98-13.763-3.051-.444-6.929-.281-9.727-1.582-3.048-1.417-4.305-6.073-6.039-9.063a123.251,123.251,0,0,0-16.538-22.5A53.648,53.648,0,0,0,6.8,5.375C5.538,4.364,2.865,3.119,2,1.874Z" transform="translate(0 75.136)" fill="#bfe2e2" />
            <path d="M44.486,4.751C44.759,2.247,43.326,0,41.457,0H3.853C1.984,0,.551,2.247.824,4.751L3.73,31.441c.886,8.136,6.042,14.164,12.115,14.164h13.62c6.073,0,11.229-6.028,12.115-14.164Z" transform="translate(54.96 201.284)" fill="#bfe2e2" />
            <path d="M-3757.458-6934.356s-3.284-.507-3.279-.75c.759-27.455,7.639-94.849,21.971-106.89,20.5-17.225,32.59-21.131,32.59-21.131s-8.083,26.4-23.425,41.955-18.667,20.3-22,21.49C-3753.514-6993.617-3757.458-6934.356-3757.458-6934.356Z" transform="translate(3841.338 7147.652)" fill="#bfe2e2" />
        </g>
        <g transform="translate(4211 5793)">
            <g transform="translate(-4117.537 -5386.386)">
                <path d="M3.8,4.329A1.7,1.7,0,0,0,1.623,5.476L0,11.193a54.623,54.623,0,0,0,.766,6.712H48.723s1.869-6.18-2.158-6.673-6.692-.89-6.692-.89L17.584.406a.85.85,0,0,0-1.132.453L15.019,4.334s-3.728,1.74-6.06,1.74Z" transform="translate(0 -0.332)" fill="#acb1bc" />
            </g>
            <g transform="translate(-4037.611 -5386.386)">
                <path d="M3.8,4.329A1.7,1.7,0,0,0,1.623,5.476L0,11.193a54.623,54.623,0,0,0,.766,6.712H48.723s1.869-6.18-2.158-6.673-6.692-.89-6.692-.89L17.584.406a.85.85,0,0,0-1.132.453L15.019,4.334s-3.728,1.74-6.06,1.74Z" transform="translate(0 -0.332)" fill="#acb1bc" />
            </g>
            <g transform="translate(-4071.545 -5709.663)">
                <path d="M0,65.052,7.363,30.735C3.257,25.915.477,20.008.942,13.389,2.28-5.681,28.827-1.486,33.99,8.139s4.551,34.04-2.123,35.76c-2.662.686-8.332-.994-14.1-4.473l3.622,25.625Z" transform="translate(0 0)" fill="#efc6a1" />
            </g>
            <path d="M131.41,30.909c-2.819-.462-10.408-.78-11.808-.78-.894,0-1.864.2-2.394-.617-.434-.673-.275-1.81-.4-2.59-.15-.907-.364-1.8-.58-2.694A27.394,27.394,0,0,0,113.379,17,22.21,22.21,0,0,0,102.851,7.47a33.806,33.806,0,0,0-15.984-2.2c-5.737.465-10.929,2.359-16.346,4.141A34.257,34.257,0,0,1,54.557,10.95c-5.439-.835-9.549-3.783-14.136-6.581C35.724,1.5,30.357-.369,24.8.061a30.074,30.074,0,0,0-14.245,5.4c-4.01,2.675-7.318,5.892-9.186,10.421C-.635,20.755-.633,26.1,2.671,30.408c4.79,6.241,13.681,7.855,21.078,7.694A40.272,40.272,0,0,0,36.27,35.808C41.658,33.913,46.313,30.7,51.353,28.1a39.249,39.249,0,0,1,7.373-2.951c2.487-.7,4.936-1.024,7.188.478a33.943,33.943,0,0,0,7.241,4.145,23.353,23.353,0,0,0,8.168,1.467c5.419-.042,10.76-1.73,16.023-2.861,4.292-.922,8.884-1.841,13.259-.955,1.826.37,4.493,1.134,5.152,3.031-11.1,2.011-15.457,15.737-12.329,25.813,1.689,5.438,11.84,11.8,15.786,8.937,2.5-1.811.982-4.189,0-5.759-1.881-3.006-2.525-6.868.956-8.961,3-1.805,6.16,2.482,6.22,2.477.825-.065,7.957-4.1,12.87-9.984,4.847.287,5.583-2.909,4.425-5.523S135.3,31.548,131.41,30.909Z" transform="translate(-4181.155 -5743.526)" fill="#313e58" />
            <path d="M0,0,32,104.6l15.5,88.959H59.65L43.271,0Z" transform="translate(-4080.975 -5572.028)" fill="#e3ba95" />
            <path d="M23.786,0c2.173,57.433-.384,87.059-.871,92.277S15.768,131.329,0,195.315l12.95-4.448c24.92-58.685,33.412-89.184,36.27-96.89S59.669,54.945,71.993,0Z" transform="translate(-4116.207 -5572.028)" fill="#efc6a1" />
            <path d="M0,0,13.6,53.295H55.158L48.962,0Z" transform="translate(-4085.226 -5572.028)" fill="#708daf" />
            <path d="M4.2,0C-2.514,20.127,1.65,53.295,1.65,53.295h42.4L55.713,0Z" transform="translate(-4097.079 -5572.028)" fill="#96b7df" />
            <path d="M25.355,92.736c-1.088-1.829-2.324-3.657-6.079-2.725-6.7,1.665-12.385,5.936-18.635.175-.768-.708-1.331-2.922,1.289-4.057C8.457,83.3,18.1,78,19.663,75.947q3.2-4.207,19.826-48.031l16.345,3.243Q31.177,77.108,29.388,79.865C26.7,84,29.209,91.58,30.133,95.571A5.035,5.035,0,0,1,29,95.713C27.028,95.713,26.241,94.225,25.355,92.736ZM156.332,24.421l28.9-12.692A68.491,68.491,0,0,1,199.9.225c1.41-.449,3.818-.584,1.248,3.169s-5.1,7.817-4.077,9.132,4-.136,5.176,2q1.176,2.14-15.042,5.118l-21.645,16.6Z" transform="translate(-4161.386 -5623.075)" fill="#e3ba95" />
            <path d="M0,1.78,6.768,0C23,13.208,32.161,47.55,42.538,51.294c9.811,3.54,22.808-1.853,38.2-8.946l5.817,10.446c-13.07,16.881-42.67,32.767-55.8,26.325C9.774,68.818,1.409,26.206,0,1.78Z" transform="matrix(0.996, 0.087, -0.087, 0.996, -4060.975, -5658.083)" fill="#cc7a29" />
            <path d="M0,90.928H61.026c2.789,0,2.263-4.027,1.86-6.058C58.234,61.419,40.073,36.141,40.073,2.76L22.47,0C7.91,23.417,2.875,52.247,0,90.928Z" transform="translate(-4091.196 -5660.563)" fill="#e4e6ea" />
            <path d="M0,113.148Q12.359,36.5,71.584,0h6.97s23.7,80.8,13.07,107.677H36.69a200.538,200.538,0,0,1,7.473-40.493Q25.5,100.845,12.791,115.653Z" transform="translate(-4141.446 -5660.563)" fill="#e88a2d" />
        </g>
    </g>
</svg>