<svg xmlns="http://www.w3.org/2000/svg" xmlns:xlink="http://www.w3.org/1999/xlink" width="400" height="320" viewBox="0 0 400 320">
    <defs>
        <clipPath>
            <rect width="400" height="320" />
        </clipPath>
    </defs>
    <g clip-path="url(#b)">
        <rect width="400" height="320" fill="transparent" />
        <g transform="translate(-4.622 -32.313)">
            <path d="M1.814,264.88a1.674,1.674,0,0,1-1.741-1.656c-.42-5.828.978-28.242,3.74-59.957C6.362,174,9.378,144.963,11.319,131c3.669-26.4,8.007-54.832,12.363-65.514,4.058-9.956,11.348-22.967,21.667-38.67A53.249,53.249,0,0,1,53.1,18.026c2.922-2.774,6.463-5.785,10.239-8.708,3.25-2.514,6.566-4.88,9.34-6.662C75.306.968,77.147,0,77.73,0c.13,0,.2.048.2.144.106,4.838-1.484,12.244-2.887,18.777-.71,3.308-1.381,6.433-1.754,8.872a61.3,61.3,0,0,1-6.122,18.62A97.907,97.907,0,0,1,55.83,63.576C51.48,68.979,46,74.995,38.355,78.643A29.731,29.731,0,0,1,32.417,80.5a33.29,33.29,0,0,0-5.042,1.478c-.628.261-1.11.451-1.463.589-1.141.448-1.141.448-1.276.962a8.143,8.143,0,0,1-.847,2.033c-1.922,3.522-2.813,7.759-3.675,11.856-.249,1.182-.483,2.3-.74,3.383-2.52,10.647-6.92,43.976-10.7,81.05-1.894,18.577-3.38,35.711-4.3,49.549-1.048,15.775-1.315,26.47-.8,31.788a1.4,1.4,0,0,1-.357,1.11A1.916,1.916,0,0,1,1.814,264.88Z" transform="matrix(0.985, -0.174, 0.174, 0.985, 11.151, 88.683)" fill="#bfe2e2" />
            <path d="M1.814,265.38v0a2.17,2.17,0,0,1-2.239-2.121c-.422-5.853.976-28.3,3.741-60.036,2.549-29.271,5.567-58.322,7.508-72.289C14.5,104.5,18.842,76.033,23.218,65.3c4.07-9.986,11.376-23.026,21.712-38.756a53.728,53.728,0,0,1,7.824-8.881c2.934-2.785,6.488-5.808,10.278-8.74,3.261-2.523,6.59-4.9,9.375-6.687C75.234.42,77.024-.5,77.73-.5a.648.648,0,0,1,.7.633c.107,4.9-1.489,12.333-2.9,18.894-.709,3.3-1.378,6.419-1.749,8.842a61.791,61.791,0,0,1-6.171,18.77A98.4,98.4,0,0,1,56.22,63.889c-4.385,5.447-9.911,11.513-17.649,15.2a30.1,30.1,0,0,1-6.037,1.89,32.933,32.933,0,0,0-4.966,1.454c-.634.264-1.118.454-1.472.593a5.2,5.2,0,0,0-.909.4,1.766,1.766,0,0,0-.067.224,8.593,8.593,0,0,1-.892,2.145c-1.886,3.457-2.77,7.657-3.625,11.719-.249,1.185-.485,2.3-.743,3.4-2.516,10.628-6.911,43.931-10.688,80.985-1.893,18.572-3.379,35.7-4.3,49.532-1.046,15.747-1.314,26.415-.8,31.706a1.892,1.892,0,0,1-.484,1.494A2.423,2.423,0,0,1,1.814,265.38ZM77.434.57a26.209,26.209,0,0,0-4.485,2.507c-2.761,1.774-6.065,4.131-9.3,6.637-3.764,2.912-7.292,5.912-10.2,8.675a52.77,52.77,0,0,0-7.677,8.705C35.465,42.769,28.19,55.751,24.144,65.677c-4.335,10.631-8.666,39.023-12.33,65.394-1.939,13.953-4.954,42.983-7.5,72.238C1.552,235,.154,257.384.572,263.188a1.18,1.18,0,0,0,1.242,1.192,1.43,1.43,0,0,0,1.038-.419.9.9,0,0,0,.229-.725c-.522-5.346-.255-16.068.795-31.87.919-13.844,2.406-30.984,4.3-49.567,3.781-37.093,8.185-70.449,10.71-81.114.256-1.081.49-2.193.738-3.371.87-4.133,1.769-8.406,3.726-11.993a7.689,7.689,0,0,0,.8-1.921c.2-.759.41-.842,1.577-1.3.35-.137.829-.326,1.453-.586a33.662,33.662,0,0,1,5.119-1.5,29.361,29.361,0,0,0,5.838-1.819c7.557-3.6,12.987-9.57,17.3-14.929A97.418,97.418,0,0,0,66.719,46.188a60.81,60.81,0,0,0,6.074-18.47c.375-2.453,1.047-5.583,1.759-8.9C75.91,12.5,77.443,5.355,77.434.57Z" transform="matrix(0.985, -0.174, 0.174, 0.985, 11.151, 88.683)" fill="rgba(0,0,0,0)" />
            <path d="M93.272,1.613c10.157-5.685,21.152,5.045,11.96,10.731-5.081,3.143-10.393,2.025-13.384-.594-1.941,1.8-3.758,3.691-5.5,5.284C81.025,21.889,76,26.86,71.193,31.948c-9.982,10.568-18.536,21.734-27.479,32.7C34.887,75.461,26.131,86.334,18.131,97.427,11.354,106.824,2.32,117.88,0,128.183c3.521-21.85,16.879-42.852,32.787-62.115C48.566,46.963,66.674,26.1,91.1,11.022,88.618,8.234,88.549,4.255,93.272,1.613Z" transform="matrix(0.985, -0.174, 0.174, 0.985, 28.634, 245.27)" fill="#bfe2e2" />
            <path d="M89.391,140.464h-5.5c-2.57-8.868-5.689-18.07-9.271-27.35-.461-1.2-.908-2.43-1.38-3.736l-.009-.026c-1.649-4.563-3.352-9.276-5.925-13.025a10.657,10.657,0,0,1-1.227-2.2c-.233-.568-.233-.568-1.439-.919-.345-.1-.867-.252-1.544-.465a30.1,30.1,0,0,0-5.217-.968A27.012,27.012,0,0,1,51.7,90.5c-8.2-3.076-14.737-9.17-20.055-14.725a120.775,120.775,0,0,1-14.46-18A81.605,81.605,0,0,1,7.538,37.373,171.806,171.806,0,0,1,1.454,12.737c-.05-.323-.156-.844-.29-1.5l-.013-.065C.494,7.965-.728,2,.579.4A1.035,1.035,0,0,1,1.414,0a1.518,1.518,0,0,1,.264.025c4,.717,9.8,6.992,14.467,12.034,1.571,1.7,2.929,3.168,4.046,4.236A161.621,161.621,0,0,1,34.675,32.27,267.558,267.558,0,0,1,60.305,70.547a361.535,361.535,0,0,1,16.138,33.247,324.282,324.282,0,0,1,12.381,34.7c.181.615.371,1.276.567,1.967Z" transform="translate(-33.544 205.768)" fill="#bfe2e2" />
            <path d="M89.391,140.964H83.517l-.1-.361c-2.568-8.861-5.683-18.049-9.257-27.309-.448-1.162-.874-2.335-1.384-3.747l-.011-.033c-1.637-4.528-3.329-9.211-5.865-12.905a11.1,11.1,0,0,1-1.278-2.3c-.1-.255-.123-.284-.161-.309a5.629,5.629,0,0,0-.955-.319l-.054-.016c-.34-.1-.853-.248-1.5-.452a29.707,29.707,0,0,0-5.126-.948,27.417,27.417,0,0,1-6.3-1.3c-8.291-3.112-14.884-9.252-20.24-14.848A121.267,121.267,0,0,1,16.766,58.05,82.1,82.1,0,0,1,7.06,37.52,172.254,172.254,0,0,1,.96,12.813c-.048-.309-.152-.82-.284-1.468L.66,11.27C-.271,6.721-1.152,1.731.192.083A1.535,1.535,0,0,1,1.414-.5a2.025,2.025,0,0,1,.351.032C3.64-.132,6.006,1.346,9,4.049c2.552,2.3,5.188,5.156,7.513,7.671,1.564,1.692,2.915,3.153,4.024,4.214A162.118,162.118,0,0,1,35.065,31.958,268.065,268.065,0,0,1,60.744,70.307,362.038,362.038,0,0,1,76.9,103.6a324.779,324.779,0,0,1,12.4,34.756c.164.556.347,1.193.561,1.946l.263.661Zm-5.123-1h4.461c-.141-.492-.268-.93-.385-1.327a323.784,323.784,0,0,0-12.362-34.649,361.04,361.04,0,0,0-16.116-33.2A267.061,267.061,0,0,0,34.284,32.582a161.13,161.13,0,0,0-14.44-15.926c-1.132-1.083-2.492-2.554-4.067-4.258-2.311-2.5-4.931-5.333-7.449-7.607C5.479,2.217,3.274.819,1.59.517a.582.582,0,0,0-.624.2C.638,1.117.313,2.21.626,5.13c.222,2.068.68,4.305,1.014,5.939l.016.077c.135.661.241,1.183.292,1.516A171.36,171.36,0,0,0,8.016,37.225a81.115,81.115,0,0,0,9.59,20.283,120.283,120.283,0,0,0,14.4,17.921c5.278,5.515,11.766,11.562,19.869,14.6a26.649,26.649,0,0,0,6.066,1.246,30.469,30.469,0,0,1,5.305.987c.638.2,1.145.348,1.48.446l.054.016c1.245.362,1.437.418,1.762,1.209a10.2,10.2,0,0,0,1.177,2.109c2.608,3.8,4.322,8.543,5.981,13.131l.013.037c.507,1.4.931,2.571,1.375,3.722C78.624,122.095,81.712,131.187,84.268,139.964Z" transform="translate(-33.544 205.768)" fill="rgba(0,0,0,0)" />
            <path d="M91.313,292.959h-7.94c-.111-2.367-.2-4.635-.263-6.745-.452-14.705-1.679-30.229-3.862-48.853-1.58-13.488-4.055-27.129-6.45-40.32l-.006-.03c-.368-2.03-.8-4.426-1.232-6.809-1.188-6.612-2.507-13.662-4.276-22.858-.12-.616-.219-1.556-.335-2.643l0-.02c-.3-2.856-.718-6.769-1.86-7.9-.92-.907-4-1.5-6.969-2.066a29.337,29.337,0,0,1-5.233-1.279,65.656,65.656,0,0,1-14.164-9.05A105.5,105.5,0,0,1,17.878,120.52,106.365,106.365,0,0,1,3.989,88.263,134.745,134.745,0,0,1,.01,53.657c.015-1.3.7-6.372,1.568-12.791v-.008C3.721,25.024,6.958,1.1,4.736.63c.178-.189.355-.395.537-.63C7.848,3.946,10.382,7.943,12.3,10.985A448.374,448.374,0,0,1,39.567,61.039a398.432,398.432,0,0,1,20.168,52.756c6.464,21.523,11.049,43.9,15.483,65.532v.008l.036.178C82.334,214.064,88.843,247.92,90.7,282.247c.166,3.067.356,6.333.524,9.214l.086,1.5Z" transform="translate(-20.198 79.102)" fill="#bfe2e2" />
            <path d="M91.313,293.459H82.9l-.022-.477c-.11-2.359-.2-4.632-.263-6.753-.452-14.7-1.678-30.207-3.859-48.81-1.578-13.478-4.052-27.108-6.445-40.289l-.026-.14c-.371-2.043-.791-4.359-1.212-6.7-1.179-6.564-2.5-13.612-4.275-22.852-.12-.621-.219-1.539-.332-2.6l-.011-.106c-.261-2.462-.7-6.587-1.714-7.59-.811-.8-4.081-1.426-6.708-1.93a29.465,29.465,0,0,1-5.349-1.315A66.145,66.145,0,0,1,38.4,144.777,106.007,106.007,0,0,1,17.46,120.794,106.866,106.866,0,0,1,3.5,88.386,135.247,135.247,0,0,1-.49,53.651c.015-1.332.7-6.414,1.572-12.847l0-.019C2.127,33.083,3.423,23.5,4.229,15.6c.436-4.269.685-7.657.742-10.07.085-3.615-.289-4.309-.382-4.424L3.761.936,4.373.287c.176-.187.341-.38.5-.592l.43-.557.385.589c2.6,3.981,5.123,7.965,7.033,10.991a448.869,448.869,0,0,1,27.3,50.11,398.938,398.938,0,0,1,20.194,52.822C66.682,135.187,71.268,157.563,75.7,179.2l.043.21C82.829,213.986,89.341,247.865,91.2,282.22c.167,3.072.356,6.334.524,9.212l.087,1.525v.5Zm-7.463-1h6.933l-.056-.969c-.167-2.879-.357-6.142-.524-9.216-1.858-34.287-8.362-68.126-15.437-102.661l-.043-.21c-4.431-21.618-9.012-43.971-15.467-65.464A397.932,397.932,0,0,0,39.113,61.249a447.863,447.863,0,0,0-27.234-50C10.209,8.6,8.067,5.225,5.819,1.757v.006a19.214,19.214,0,0,1,.162,3.129c-.023,2.4-.249,5.713-.69,10.14-.8,8.035-2.141,17.937-3.217,25.894l0,.015C1.207,47.338.524,52.392.51,53.663A134.248,134.248,0,0,0,4.473,88.14,105.869,105.869,0,0,0,18.3,120.246,105,105,0,0,0,39.036,144a65.155,65.155,0,0,0,14.054,8.982,29.27,29.27,0,0,0,5.121,1.243h0c3.186.611,6.195,1.188,7.222,2.2,1.175,1.159,1.6,4.4,2.007,8.2l.011.1c.111,1.041.207,1.939.32,2.519,1.778,9.245,3.1,16.3,4.277,22.865.421,2.34.841,4.655,1.212,6.7l.025.135c2.4,13.2,4.873,26.847,6.455,40.356,2.184,18.632,3.412,34.169,3.865,48.9C83.669,288.171,83.75,290.275,83.85,292.459Z" transform="translate(-20.198 79.102)" fill="rgba(0,0,0,0)" />
            <path d="M.006,245.673H0a164.135,164.135,0,0,1,1.01-19c.666-6.087,1.68-12.493,3.012-19.041A315.191,315.191,0,0,1,14.22,170.467c2.74-8.2,5.995-16.652,9.949-25.85,3.258-7.579,6.962-15.6,11.655-25.249.381-.784.8-1.6,1.235-2.467l0-.005c1.818-3.585,3.878-7.648,4.553-11.251.405-2.17-.322-4.26-1.092-6.472-.335-.962-.681-1.956-.933-2.969-3.059-12.294-3.116-26.553-.161-40.15,1.531-7.045,4.5-12.284,9.075-16.016,4.374-3.568,10.3-5.809,18.108-6.85,5-.666,31.954-27.763,37.306-33.188V.761C99.393,9.594,76.7,53.86,74.27,57.921,68.861,66.977,63.159,76.644,58.138,86.5c-6.868,13.478-12.308,24.646-17.122,35.144a627.815,627.815,0,0,0-24.435,60.94c-3.565,10.547-6.742,21.071-9.443,31.28C4.309,224.56,1.909,235.262.006,245.673Z" transform="translate(1.357 149.333) rotate(-14)" fill="#bfe2e2" />
            <path d="M.416,246.21l-.909-.078,0-.456A164.648,164.648,0,0,1,.517,226.62c.668-6.1,1.684-12.524,3.019-19.086a315.687,315.687,0,0,1,10.209-37.225c2.745-8.21,6-16.678,9.964-25.889,3.261-7.586,6.968-15.616,11.664-25.271.385-.791.8-1.609,1.239-2.475l0-.006c1.8-3.555,3.846-7.584,4.507-11.116.381-2.039-.325-4.067-1.073-6.215-.339-.973-.689-1.978-.946-3.013-3.077-12.367-3.135-26.706-.164-40.376,1.556-7.16,4.581-12.491,9.247-16.3,4.448-3.629,10.453-5.9,18.358-6.958.727-.1,2.52-.973,6.934-4.595,2.971-2.437,6.776-5.83,11.31-10.084,8.133-7.63,16.424-15.986,18.772-18.365l.856-.868v2.1l-.055.107C99.838,9.823,77.138,54.095,74.7,58.177c-5.405,9.049-11.1,18.707-16.116,28.55-6.865,13.472-12.3,24.634-17.113,35.126a627.329,627.329,0,0,0-24.415,60.892c-3.562,10.537-6.735,21.05-9.433,31.247C4.8,224.676,2.4,235.365.5,245.763ZM102.807,1.834C99.145,5.523,92.332,12.31,85.475,18.743c-4.55,4.269-8.372,7.676-11.36,10.128-3.742,3.07-6.175,4.645-7.436,4.813-7.716,1.028-13.558,3.233-17.858,6.741-4.484,3.658-7.4,8.805-8.9,15.735-2.939,13.523-2.883,27.7.158,39.923.246.991.588,1.974.92,2.925.793,2.277,1.541,4.428,1.112,6.728-.688,3.673-2.766,7.77-4.6,11.385l0,.006c-.437.861-.85,1.676-1.231,2.459-4.69,9.64-8.39,17.656-11.645,25.228-3.948,9.185-7.2,17.627-9.934,25.811A314.7,314.7,0,0,0,4.516,207.733c-1.329,6.533-2.34,12.924-3.005,19-.5,4.527-.811,8.983-.942,13.308,1.712-8.66,3.753-17.482,6.085-26.3,2.7-10.219,5.883-20.754,9.452-31.312a628.308,628.308,0,0,1,24.454-60.989c4.816-10.5,10.259-21.678,17.131-35.163,5.029-9.87,10.735-19.545,16.149-28.609C76.161,53.779,97.073,13.023,102.807,1.834Z" transform="translate(1.357 149.333) rotate(-14)" fill="rgba(0,0,0,0)" />
            <path d="M.833,3.72C.486,1.76,2.31,0,4.69,0H52.576c2.379,0,4.2,1.76,3.857,3.72l-3.7,20.9C51.6,30.99,45.038,35.71,37.3,35.71H19.961c-7.733,0-14.3-4.72-15.427-11.091Z" transform="translate(32.393 336.35)" fill="#bfe2e2" />
        </g>
        <g transform="translate(53.855 -23)">
            <path d="M-2629.591-1204.387h-76.837a1,1,0,0,1-1-1v-43.945a1,1,0,0,1,1-1,1,1,0,0,1,1,1v42.945h75.837a1,1,0,0,1,1,1A1,1,0,0,1-2629.591-1204.387Z" transform="translate(2822.025 1315.856)" fill="#5bb3b3" />
            <path d="M0,19.506a1,1,0,0,1-1-1V0A1,1,0,0,1,0-1,1,1,0,0,1,1,0V18.506A1,1,0,0,1,0,19.506Z" transform="translate(124.227 83.758)" fill="#5bb3b3" />
            <path d="M0,30.391a1,1,0,0,1-1-1V0A1,1,0,0,1,0-1,1,1,0,0,1,1,0V29.391A1,1,0,0,1,0,30.391Z" transform="translate(132.936 72.873)" fill="#5bb3b3" />
            <path d="M0,12.974a1,1,0,0,1-1-1V0A1,1,0,0,1,0-1,1,1,0,0,1,1,0V11.974A1,1,0,0,1,0,12.974Z" transform="translate(142.733 90.29)" fill="#5bb3b3" />
            <path d="M0,19.506a1,1,0,0,1-1-1V0A1,1,0,0,1,0-1,1,1,0,0,1,1,0V18.506A1,1,0,0,1,0,19.506Z" transform="translate(151.441 83.758)" fill="#5bb3b3" />
            <path d="M0,30.391a1,1,0,0,1-1-1V0A1,1,0,0,1,0-1,1,1,0,0,1,1,0V29.391A1,1,0,0,1,0,30.391Z" transform="translate(160.15 72.873)" fill="#5bb3b3" />
            <path d="M0,19.506a1,1,0,0,1-1-1V0A1,1,0,0,1,0-1,1,1,0,0,1,1,0V18.506A1,1,0,0,1,0,19.506Z" transform="translate(169.947 83.758)" fill="#5bb3b3" />
            <path d="M0,26.037a1,1,0,0,1-1-1V0A1,1,0,0,1,0-1,1,1,0,0,1,1,0V25.037A1,1,0,0,1,0,26.037Z" transform="translate(178.655 77.227)" fill="#5bb3b3" />
            <path d="M0,8.62a1,1,0,0,1-1-1V0A1,1,0,0,1,0-1,1,1,0,0,1,1,0V7.62A1,1,0,0,1,0,8.62Z" transform="translate(188.453 94.644)" fill="#5bb3b3" />
            <g transform="translate(224.375 68.519)">
                <path d="M17.417,1H0A1,1,0,0,1-1,0,1,1,0,0,1,0-1H17.417a1,1,0,0,1,1,1A1,1,0,0,1,17.417,1Z" transform="translate(39.372 0)" fill="#5bb3b3" />
                <path d="M11.974,1H0A1,1,0,0,1-1,0,1,1,0,0,1,0-1H11.974a1,1,0,0,1,1,1A1,1,0,0,1,11.974,1Z" transform="translate(39.372 8.709)" fill="#5bb3b3" />
                <path d="M16.329,1H0A1,1,0,0,1-1,0,1,1,0,0,1,0-1H16.329a1,1,0,0,1,1,1A1,1,0,0,1,16.329,1Z" transform="translate(39.372 16.329)" fill="#5bb3b3" />
                <path d="M16.329,1H0A1,1,0,0,1-1,0,1,1,0,0,1,0-1H16.329a1,1,0,0,1,1,1A1,1,0,0,1,16.329,1Z" transform="translate(39.372 25.037)" fill="#5bb3b3" />
                <path d="M55.7,1H0A1,1,0,0,1-1,0,1,1,0,0,1,0-1H55.7a1,1,0,0,1,1,1A1,1,0,0,1,55.7,1Z" transform="translate(0 32.657)" fill="#5bb3b3" />
                <path d="M44.631,1H0A1,1,0,0,1-1,0,1,1,0,0,1,0-1H44.631a1,1,0,0,1,1,1A1,1,0,0,1,44.631,1Z" transform="translate(0 41.366)" fill="#5bb3b3" />
            </g>
            <circle cx="13" cy="13" r="13" transform="translate(226.145 67)" fill="#ffd964" />
            <path d="M0,14.069V0A13.063,13.063,0,0,1,13.063,13.063,13.03,13.03,0,0,1,8.72,22.789Z" transform="translate(239.071 66.885)" fill="#e88a2d" />
            <path d="M13,0A13,13,0,1,0,26,13,13,13,0,0,0,13,0m0-2A15,15,0,0,1,28,13,15,15,0,0,1,13,28,15,15,0,0,1-2,13,15,15,0,0,1,13-2Z" transform="translate(226.145 67)" fill="#5bb3b3" />
            <path d="M0,0V66H99V0H0M0-2H99a2,2,0,0,1,2,2V66a2,2,0,0,1-2,2H0a2,2,0,0,1-2-2V0A2,2,0,0,1,0-2Z" transform="translate(103.145 56)" fill="#5bb3b3" />
            <path d="M0,0V109H73V0H0M0-2H73a2,2,0,0,1,2,2V109a2,2,0,0,1-2,2H0a2,2,0,0,1-2-2V0A2,2,0,0,1,0-2Z" transform="translate(103.145 135)" fill="#5bb3b3" />
            <path d="M0,0V109H99V0H0M0-2H99a2,2,0,0,1,2,2V109a2,2,0,0,1-2,2H0a2,2,0,0,1-2-2V0A2,2,0,0,1,0-2Z" transform="translate(190.145 135)" fill="#5bb3b3" />
            <path d="M0,0V66H72V0H0M0-2H72a2,2,0,0,1,2,2V66a2,2,0,0,1-2,2H0a2,2,0,0,1-2-2V0A2,2,0,0,1,0-2Z" transform="translate(217.145 56)" fill="#5bb3b3" />
            <g transform="translate(109.531 141.997)">
                <path d="M-2706-1146.981a1,1,0,0,1-.7-.283,1,1,0,0,1-.02-1.414l14.953-15.376a1,1,0,0,1,1.082-.234l16.115,6.315,14.326-15.5a1,1,0,0,1,1.413-.056,1,1,0,0,1,.056,1.413l-14.789,16.005a1,1,0,0,1-1.1.252l-16.133-6.322-14.49,14.9A1,1,0,0,1-2706-1146.981Z" transform="translate(2712.531 1179.549)" fill="#5bb3b3" />
                <circle cx="6.5" cy="6.5" r="6.5" transform="translate(-0.386 25.003)" fill="#cc7a29" />
                <circle cx="6.5" cy="6.5" r="6.5" transform="translate(14.614 10.003)" fill="#e88a2d" />
                <circle cx="6.5" cy="6.5" r="6.5" transform="translate(31.614 16.003)" fill="#edc95a" />
                <circle cx="6.5" cy="6.5" r="6.5" transform="translate(46.614 0.003)" fill="#85cb85" />
            </g>
            <path d="M41.366,1H0A1,1,0,0,1-1,0,1,1,0,0,1,0-1H41.366a1,1,0,0,1,1,1A1,1,0,0,1,41.366,1Z" transform="translate(114.43 191.527)" fill="#5bb3b3" />
            <path d="M46.808,1H0A1,1,0,0,1-1,0,1,1,0,0,1,0-1H46.808a1,1,0,0,1,1,1A1,1,0,0,1,46.808,1Z" transform="translate(114.43 200.235)" fill="#5bb3b3" />
            <path d="M35.923,1H0A1,1,0,0,1-1,0,1,1,0,0,1,0-1H35.923a1,1,0,0,1,1,1A1,1,0,0,1,35.923,1Z" transform="translate(114.43 208.944)" fill="#5bb3b3" />
            <path d="M48.986,1H0A1,1,0,0,1-1,0,1,1,0,0,1,0-1H48.986a1,1,0,0,1,1,1A1,1,0,0,1,48.986,1Z" transform="translate(114.43 217.652)" fill="#5bb3b3" />
            <rect width="12" height="17" transform="translate(201.145 218)" fill="#85cb85" />
            <rect width="12" height="31" transform="translate(224.145 204)" fill="#629d62" />
            <rect width="12" height="31" transform="translate(269.145 204)" fill="#629d62" />
            <rect width="12" height="47" transform="translate(247.145 188)" fill="#85cb85" />
            <g transform="translate(213.49 146.572)">
                <path d="M0,11.886a1,1,0,0,1-1-1V0A1,1,0,0,1,0-1,1,1,0,0,1,1,0V10.886A1,1,0,0,1,0,11.886Z" transform="translate(0 19.918)" fill="#edc95a" />
                <path d="M0,16.24a1,1,0,0,1-1-1V0A1,1,0,0,1,0-1,1,1,0,0,1,1,0V15.24A1,1,0,0,1,0,16.24Z" transform="translate(10.886 15.563)" fill="#edc95a" />
                <path d="M0,19.506a1,1,0,0,1-1-1V0A1,1,0,0,1,0-1,1,1,0,0,1,1,0V18.506A1,1,0,0,1,0,19.506Z" transform="translate(22.86 12.298)" fill="#edc95a" />
                <path d="M0,26.037a1,1,0,0,1-1-1V0A1,1,0,0,1,0-1,1,1,0,0,1,1,0V25.037A1,1,0,0,1,0,26.037Z" transform="translate(33.746 5.766)" fill="#edc95a" />
                <path d="M0,29.3a1,1,0,0,1-1-1V0A1,1,0,0,1,0-1,1,1,0,0,1,1,0V28.3A1,1,0,0,1,0,29.3Z" transform="translate(43.543 2.501)" fill="#edc95a" />
                <path d="M0,28.538a1,1,0,0,1-1-1V0A1,1,0,0,1,0-1,1,1,0,0,1,1,0V27.538A1,1,0,0,1,0,28.538Z" transform="translate(54.428 3.266)" fill="#edc95a" />
                <path d="M0,31.8a1,1,0,0,1-1-1V0A1,1,0,0,1,0-1,1,1,0,0,1,1,0V30.8A1,1,0,0,1,0,31.8Z" transform="translate(65.314)" fill="#edc95a" />
            </g>
            <path d="M-2629.8-1144.352a1,1,0,0,1-.823-.431,1,1,0,0,1,.253-1.391L-2610.4-1160a1,1,0,0,1,.569-.178h6.674l9.122-2,6.813-6.736a1,1,0,0,1,.417-.247l12.834-3.824a1,1,0,0,1,.286-.042h10.979l13.4-4.357a1,1,0,0,1,1.26.642,1,1,0,0,1-.642,1.26l-13.555,4.406a1,1,0,0,1-.309.049h-10.991l-12.454,3.711-6.841,6.763a1,1,0,0,1-.489.266l-9.51,2.09a1,1,0,0,1-.215.023h-6.47l-19.706,13.644A1,1,0,0,1-2629.8-1144.352Z" transform="translate(2828.812 1321.224)" fill="#5bb3b3" />
        </g>
        <g transform="translate(60 0)">
            <path d="M2.327,0l37.32,14.543a86.9,86.9,0,0,1,23.481,2.838c1.668.862,3.951,2.9-1.723,3.964S49.811,23.78,49.552,25.881s3.713,3.468,2.848,6.442q-.865,2.974-18.088-8.9L0,18.888Z" transform="translate(93.948 234.902) rotate(47)" fill="#b28b67" />
            <path d="M21.673,16.2C75.53,38.836,73.332,41.929,112.541,60.5l-9.407,18.811C59.427,75.19,36.061,71.9,17.743,44.743c-4.6-6.816-20.168-11.221-25.092-23.4Z" transform="translate(77.53 145.903) rotate(47)" fill="#edc95a" />
            <path d="M55.413,0H0C1.531,9.447,3.291,18.591,5.229,27.178,7.1,35.47,9.2,43.515,11.471,51.09H67.027C63.9,36.831,59.991,19.642,55.413,0Z" transform="translate(94.583 319.999) rotate(180)" fill="#708daf" />
            <path d="M-.588-.5h56.4l.09.386c4.588,19.683,8.5,36.874,11.616,51.1l.133.607H11.1l-.107-.356C8.72,43.651,6.616,35.595,4.741,27.288,2.8,18.684,1.038,9.53-.494.08Zm55.6,1H.588C2.094,9.724,3.819,18.66,5.717,27.068c1.841,8.154,3.9,16.066,6.127,23.522H66.406C63.329,36.585,59.5,19.739,55.016.5Z" transform="translate(94.583 319.999) rotate(180)" fill="rgba(0,0,0,0)" />
            <path d="M68.438,0H10.711C6.793,16.443,3.19,33.632,0,51.091H68.515c-.667-17.473-.693-34.185-.077-51.09Z" transform="translate(80.077 320) rotate(180)" fill="#96b7df" />
            <path d="M10.316-.5h58.64l-.019.518c-.615,16.886-.59,33.586.077,51.053l.02.519H-.6L-.492,51C2.7,33.521,6.307,16.323,10.224-.115Zm57.6,1H11.106C7.272,16.62,3.738,33.469.6,50.591H68C67.354,33.465,67.329,17.069,67.92.5Z" transform="translate(80.077 320) rotate(180)" fill="rgba(0,0,0,0)" />
            <g transform="translate(10.058 69.376)">
                <path d="M22.592,75.66v-.026H21.5A21.5,21.5,0,0,1,0,54.134V21.5A21.5,21.5,0,0,1,21.5,0H31.679a21.5,21.5,0,0,1,21.5,21.5v1.173c4.029,15.48,8.977,47.815,3.684,52.987Z" transform="matrix(0.996, -0.087, 0.087, 0.996, 16.38, 5.157)" fill="#2e3e5a" />
                <g transform="matrix(-0.996, 0.087, -0.087, -0.996, 77.288, 91.172)">
                    <path d="M0,86.27l9.764-45.51c-5.445-6.392-9.131-14.226-8.515-23C3.024-7.534,38.229-1.97,45.076,10.794s6.035,45.142-2.815,47.424c-3.53.91-11.049-1.319-18.7-5.932l4.8,33.983Z" transform="translate(49.634 86.27) rotate(180)" fill="#b28b67" />
                </g>
                <path d="M34.412,73.905H.14A61.554,61.554,0,0,1,.333,63.184a29.477,29.477,0,0,1,1.722-7.3A27.613,27.613,0,0,1,8.1,46.953c4.222-4.656,8.589-9.471,8.589-24.614.3-.291.594-.584.881-.868.843-.833,1.636-1.618,2.432-2.328l-.038-.919a47.7,47.7,0,0,1,6.162-9.112,31.538,31.538,0,0,1,7.123-6.264A17.586,17.586,0,0,1,42.547,0c6.094,0,10.865,1.261,14.586,3.854,3.25,2.265,5.288,5.263,7.087,7.907l.008.012a13.878,13.878,0,0,1-5.4,7.484,49.791,49.791,0,0,1-8.872,4.8,77.669,77.669,0,0,0-8.636,4.434,6.5,6.5,0,1,0-4.1,11.547c.1,0,.2,0,.3-.007a130.857,130.857,0,0,1,.395,20.774c-.346,4.751-1.235,10.88-3.505,13.1Z" transform="matrix(0.996, -0.087, 0.087, 0.996, 0, 7.776)" fill="#2e3e5a" />
            </g>
            <path d="M0,115.378H77.931S51.452,34.622,50.878,4.526C50.858,3.5,48.969,1.7,48.133,1.936,38.965,4.526,28.512,0,28.512,0,10.037,29.713,3.648,66.3,0,115.378Z" transform="translate(17.153 153.652)" fill="#dee9f5" />
            <path d="M1.439,140.281H42.991c34.392,0,25.686-70.01,2.347-140.281H33.265a5.482,5.482,0,0,0-5,3.417C12.184,34.435-5.161,95.93,1.439,140.281Z" transform="translate(6.961 152.518)" fill="#ffd964" />
            <g transform="translate(0.781 0.44)">
                <path d="M2.327,0l37.32,14.543a86.9,86.9,0,0,1,23.481,2.838c1.668.862,3.951,2.9-1.723,3.964S49.811,23.78,49.552,25.881s3.713,3.468,2.848,6.442q-.865,2.974-18.088-8.9L0,18.888Z" transform="matrix(0.848, -0.53, 0.53, 0.848, 119.087, 163.117)" fill="#b28b67" />
                <path d="M.909,9.151C23.075,9.109,60.135,13.778,103.052,0l4.127,20.62C70.293,44.343,32.865,61.824,1.83,51.739-3.363,50.051,4.528,35.361.909,9.151Z" transform="translate(51.532 142.919) rotate(6)" fill="#ffd964" />
            </g>
        </g>
        <g transform="translate(-6.427 -6.171)">
            <path d="M63.889,98.678H59.161c-2.886-7.459-6.284-14.86-9.516-21.8-4.051-5.156-8.711-10.126-13.22-14.934-2.065-2.2-4.016-4.284-5.91-6.379-2.494-2.762-5.1-5.535-7.613-8.217l-.126-.133c-2.647-2.822-5.386-5.74-8.02-8.663-.941-1.044-1.857-2.138-2.826-3.3l-.066-.077C8.444,31.09,4.906,26.865,0,24.312A86.166,86.166,0,0,1,24.218,39.7,112.231,112.231,0,0,1,42.1,60.463c-1.091-2.466-2.024-4.649-2.86-6.672-4.658-11.3-8.609-20.4-12.436-28.643q-.3-.646-.6-1.3A116.826,116.826,0,0,0,20.04,11.785a24.876,24.876,0,0,0-2.618-3.112L17.4,8.648A27.026,27.026,0,0,1,14.448,5.1c.014.038.014.046.011.049h0c-.007,0-.012,0-.02-.015a2.135,2.135,0,0,1-.98-1.122.616.616,0,0,1,.6-.322c1.1,0,4.106,1.57,12.2,9.05,5.119,4.73,9.783,9.543,10.515,10.481A115.89,115.89,0,0,1,52.362,49.887c.136.329.267.664.382.959l.049.127c.082.207.164.419.249.626a56.728,56.728,0,0,1,.462-6.405c.945-7.3,3.068-14.976,6.886-24.9.432-1.123.87-2.488,1.335-3.934A63.706,63.706,0,0,1,65.258,7.1C67.02,3.622,69.029,1.323,71.4.07A.544.544,0,0,1,71.653,0c.441,0,.659.731.764,1.345a8.541,8.541,0,0,1,.116,1.344A2.985,2.985,0,0,0,72.052.925a.522.522,0,0,0-.378-.167.985.985,0,0,0-.582.254,13.986,13.986,0,0,0-3.218,6.475,64.6,64.6,0,0,0-1.342,7.938v.007c-.221,1.76-.43,3.423-.717,4.8q-.262,1.251-.524,2.5l-.15.712c-1.322,6.278-2.686,12.765-3.613,19.18a85.413,85.413,0,0,0-.833,12.976,63.087,63.087,0,0,1,3.047-6.141c8.024-14.192,21.231-26.421,34-38.246,1.557-1.441,3.321-3.075,5.022-4.666a25.707,25.707,0,0,0-3.607,5.625l-.009.016c-.585,1.1-1.138,2.147-1.7,3.012q-1.18,1.8-2.363,3.606l-.161.246c-1.567,2.388-3.185,4.858-4.762,7.291A248.709,248.709,0,0,0,76.11,50.9,166.483,166.483,0,0,0,65.6,78.57c-.4,1.363-.947,2.958-1.527,4.647l-.016.046-.054.16c-.179.522-.362,1.054-.545,1.595.349,2.818.631,5.334.863,7.69a22.264,22.264,0,0,0-1.612-4.842,104.319,104.319,0,0,1,1.181,10.811Z" transform="translate(298.361 227.493)" fill="#bfe2e2" />
            <path d="M63.889,99.178H58.819l-.124-.32c-2.87-7.417-6.255-14.795-9.478-21.719C45.175,72,40.542,67.061,36.061,62.284l-.035-.037c-2.055-2.192-4-4.262-5.882-6.349-2.466-2.731-5.04-5.475-7.53-8.129l-.3-.317c-2.618-2.791-5.325-5.676-7.93-8.568-.952-1.056-1.868-2.15-2.837-3.307l-.067-.079c-3.39-4.049-6.9-8.235-11.712-10.742l.423-.9A86.658,86.658,0,0,1,24.551,39.332a109.4,109.4,0,0,1,15.16,16.873c-.32-.754-.629-1.494-.931-2.223-4.656-11.294-8.6-20.389-12.428-28.623q-.3-.647-.6-1.3a116.435,116.435,0,0,0-6.138-12.016,24.583,24.583,0,0,0-2.547-3.022l-.042-.046a29.839,29.839,0,0,1-2.9-3.444,2.6,2.6,0,0,1-1.145-1.356l-.07-.2.1-.19a1.053,1.053,0,0,1,.3-.368l-1-2.807L13.881,3.2a1.524,1.524,0,0,1,.177-.01c.788,0,2.019.592,3.763,1.81A90.993,90.993,0,0,1,26.6,12.376c5.135,4.746,9.828,9.59,10.57,10.541A116.4,116.4,0,0,1,52.628,49.228c.078-1.382.206-2.754.381-4.1.95-7.341,3.083-15.055,6.915-25.011.426-1.107.862-2.463,1.323-3.9l0-.008a64.065,64.065,0,0,1,3.562-9.338C66.623,3.3,68.7.931,71.168-.372A1.034,1.034,0,0,1,71.653-.5c.634,0,1.057.592,1.257,1.76A9.844,9.844,0,0,1,73.032,2.6c0,.037,0,.067,0,.088h0a.653.653,0,0,1-.023.164L72.041,5.66l-.008-2.97A2.6,2.6,0,0,0,71.7,1.278a.1.1,0,0,0-.025-.02.519.519,0,0,0-.249.13,13.571,13.571,0,0,0-3.067,6.225,63.942,63.942,0,0,0-1.325,7.839l0,.043c-.223,1.773-.433,3.444-.724,4.841l-.027.128q-.248,1.188-.5,2.376l-.15.712c-1.317,6.254-2.678,12.72-3.607,19.149A82.545,82.545,0,0,0,61.2,53.265c.653-1.376,1.357-2.731,2.1-4.047C71.368,34.959,84.6,22.7,97.4,10.854l.1-.1c1.526-1.413,3.256-3.014,4.919-4.57l.7.71A25.353,25.353,0,0,0,99.6,12.411l-.01.019c-.589,1.112-1.146,2.163-1.724,3.048S96.7,17.255,96.12,18.143l-.778,1.187q-2.441,3.722-4.76,7.29a248.2,248.2,0,0,0-14.024,24.5A166,166,0,0,0,66.08,78.71c-.4,1.372-.95,2.969-1.531,4.661l-.073.213c-.166.484-.337.982-.508,1.486.341,2.761.619,5.245.85,7.589l-.928.13c.232,2.013.4,3.955.5,5.861v.527Zm-4.386-1H63.36c-.193-3.237-.568-6.591-1.146-10.233L61.6,84.05l1.57,3.617q.074.171.145.337c-.109-.942-.226-1.915-.351-2.925l-.014-.113.037-.108c.184-.543.368-1.079.546-1.6l.073-.214c.577-1.68,1.122-3.268,1.517-4.617A166.965,166.965,0,0,1,75.662,50.675a249.2,249.2,0,0,1,14.08-24.6q2.319-3.579,4.763-7.294l.778-1.188q.873-1.331,1.745-2.664c.554-.848,1.1-1.88,1.679-2.972l.01-.019c.332-.628.668-1.262,1.015-1.884l-1.55,1.436-.1.094c-12.745,11.8-25.921,24-33.907,38.125A62.579,62.579,0,0,0,61.154,55.8l-.941,2.19-.018-2.383a85.9,85.9,0,0,1,.838-13.051c.934-6.46,2.3-12.943,3.618-19.212l.15-.712q.25-1.188.5-2.375l.027-.127c.281-1.35.488-2.992.707-4.73v-.007l.008-.067a64.687,64.687,0,0,1,1.349-7.965,16.664,16.664,0,0,1,2.422-5.606A17.622,17.622,0,0,0,65.7,7.325a63.3,63.3,0,0,0-3.5,9.193l0,.008c-.466,1.449-.906,2.818-1.342,3.952C57.055,30.357,54.94,38,54,45.259a56.219,56.219,0,0,0-.458,6.349l-.039,2.46-.924-2.28c-.075-.186-.15-.375-.223-.562l-.077-.2c-.112-.287-.242-.621-.378-.95A115.385,115.385,0,0,0,36.38,23.532c-.724-.929-5.361-5.71-10.46-10.422C18.609,6.354,15.682,4.657,14.538,4.286l.338.557A26.711,26.711,0,0,0,17.759,8.3l.042.045a24.945,24.945,0,0,1,2.666,3.178A117.175,117.175,0,0,1,26.659,23.64c.2.436.4.867.6,1.3C31.089,33.185,35.043,42.293,39.7,53.6c.867,2.1,1.8,4.277,2.855,6.66l-.871.483a111.728,111.728,0,0,0-17.8-20.666A86.839,86.839,0,0,0,5.093,27.2a63.861,63.861,0,0,1,7.154,7.649l.066.078c.964,1.151,1.874,2.238,2.814,3.282,2.6,2.884,5.3,5.766,7.917,8.553l.3.317c2.493,2.658,5.071,5.406,7.543,8.143,1.88,2.08,3.818,4.147,5.87,6.336l.034.037c4.509,4.807,9.171,9.777,13.248,14.967l.036.045.024.052C53.29,83.52,56.642,90.822,59.5,98.178Z" transform="translate(298.361 227.493)" fill="rgba(0,0,0,0)" />
            <path d="M64.211,30.535H2.418C.41,22.176,0,12.283,0,0H66.632c0,12.283-.412,22.176-2.421,30.534Z" transform="translate(319.563 295.636)" fill="#bfe2e2" />
            <path d="M64.211,31.035H2.024l-.092-.383C-.086,22.248-.5,12.32-.5,0V-.5H67.132V0c0,12.29-.412,22.2-2.421,30.593v.441Zm-61.4-1h61C65.708,21.919,66.12,12.33,66.131.5H.5C.511,12.331.923,21.921,2.814,30.035Z" transform="translate(319.563 295.636)" fill="rgba(0,0,0,0)" />
        </g>
    </g>
</svg>