<svg xmlns="http://www.w3.org/2000/svg" xmlns:xlink="http://www.w3.org/1999/xlink" width="400" height="320" viewBox="0 0 400 320">
    <defs>
        <clipPath>
            <rect width="223.451" height="260.361" fill="#bfe2e2" />
        </clipPath>
        <clipPath>
            <rect width="400" height="320" />
        </clipPath>
    </defs>
    <g clip-path="url(#c)">
        <rect width="400" height="320" fill="transparent" />
        <path d="M170.281,1H0A1,1,0,0,1-1,0,1,1,0,0,1,0-1H170.281a1,1,0,0,1,1,1A1,1,0,0,1,170.281,1Z" transform="translate(115.508 147.631)" fill="#5bb3b3" />
        <path d="M168.3,1H0A1,1,0,0,1-1,0,1,1,0,0,1,0-1H168.3a1,1,0,0,1,1,1A1,1,0,0,1,168.3,1Z" transform="translate(116.259 135.193)" fill="#5bb3b3" />
        <path d="M46.278,1H0A1,1,0,0,1-1,0,1,1,0,0,1,0-1H46.278a1,1,0,0,1,1,1A1,1,0,0,1,46.278,1Z" transform="translate(239.572 284.981)" fill="#5bb3b3" />
        <path d="M44.476,1H0A1,1,0,0,1-1,0,1,1,0,0,1,0-1H44.476a1,1,0,0,1,1,1A1,1,0,0,1,44.476,1Z" transform="translate(116.991 284.981)" fill="#5bb3b3" />
        <path d="M44.639,1H0A1,1,0,0,1-1,0,1,1,0,0,1,0-1H44.639a1,1,0,0,1,1,1A1,1,0,0,1,44.639,1Z" transform="translate(116.828 272.543)" fill="#5bb3b3" />
        <path d="M46.278,1H0A1,1,0,0,1-1,0,1,1,0,0,1,0-1H46.278a1,1,0,0,1,1,1A1,1,0,0,1,46.278,1Z" transform="translate(239.572 272.543)" fill="#5bb3b3" />
        <path d="M0,319.525a1,1,0,0,1-1-1V0A1,1,0,0,1,0-1,1,1,0,0,1,1,0V318.525A1,1,0,0,1,0,319.525Z" transform="translate(105.599 1.475)" fill="#5bb3b3" />
        <path d="M0,319.525a1,1,0,0,1-1-1V0A1,1,0,0,1,0-1,1,1,0,0,1,1,0V318.525A1,1,0,0,1,0,319.525Z" transform="translate(115.583 1.475)" fill="#5bb3b3" />
        <path d="M104.3,1H0A1,1,0,0,1-1,0,1,1,0,0,1,0-1H104.3a1,1,0,0,1,1,1A1,1,0,0,1,104.3,1Z" transform="translate(1.2 126.491)" fill="#5bb3b3" />
        <path d="M103.945,1H0A1,1,0,0,1-1,0,1,1,0,0,1,0-1H103.945a1,1,0,0,1,1,1A1,1,0,0,1,103.945,1Z" transform="translate(1.2 111.473)" fill="#5bb3b3" />
        <path d="M104.5,1H0A1,1,0,0,1-1,0,1,1,0,0,1,0-1H104.5a1,1,0,0,1,1,1A1,1,0,0,1,104.5,1Z" transform="translate(1 265.85)" fill="#5bb3b3" />
        <path d="M104,1H0A1,1,0,0,1-1,0,1,1,0,0,1,0-1H104a1,1,0,0,1,1,1A1,1,0,0,1,104,1Z" transform="translate(1.14 250.832)" fill="#5bb3b3" />
        <path d="M0,319.9a1,1,0,0,1-1-1V0A1,1,0,0,1,0-1,1,1,0,0,1,1,0V318.9A1,1,0,0,1,0,319.9Z" transform="translate(295.773)" fill="#5bb3b3" />
        <path d="M0,319.9a1,1,0,0,1-1-1V0A1,1,0,0,1,0-1,1,1,0,0,1,1,0V318.9A1,1,0,0,1,0,319.9Z" transform="translate(285.789)" fill="#5bb3b3" />
        <path d="M102.994,1H0A1,1,0,0,1-1,0,1,1,0,0,1,0-1H102.994a1,1,0,0,1,1,1A1,1,0,0,1,102.994,1Z" transform="translate(295.876 119.46)" fill="#5bb3b3" />
        <path d="M102.648,1H0A1,1,0,0,1-1,0,1,1,0,0,1,0-1H102.648a1,1,0,0,1,1,1A1,1,0,0,1,102.648,1Z" transform="translate(296.223 105.349)" fill="#5bb3b3" />
        <path d="M102.72,1H0A1,1,0,0,1-1,0,1,1,0,0,1,0-1H102.72a1,1,0,0,1,1,1A1,1,0,0,1,102.72,1Z" transform="translate(295.876 266.002)" fill="#5bb3b3" />
        <path d="M102.236,1H0A1,1,0,0,1-1,0,1,1,0,0,1,0-1H102.236a1,1,0,0,1,1,1A1,1,0,0,1,102.236,1Z" transform="translate(296.223 251.89)" fill="#5bb3b3" />
        <path d="M95.946,103.37H79.683a1,1,0,0,1-1-1v-76.7a1,1,0,0,1,.652-.937,27.2,27.2,0,0,1,8.456-1.51,27.685,27.685,0,0,1,8.5,1.509,1,1,0,0,1,.656.939v76.7A1,1,0,0,1,95.946,103.37Zm-15.263-2H94.946V26.391a25.719,25.719,0,0,0-7.155-1.171,25.288,25.288,0,0,0-7.108,1.169Z" transform="translate(-0.564 3.968)" fill="#5bb3b3" />
        <path d="M75.969,103.37H59.706a1,1,0,0,1-1-1v-76.7a1,1,0,0,1,.652-.937,27.2,27.2,0,0,1,8.456-1.51,27.685,27.685,0,0,1,8.5,1.509,1,1,0,0,1,.656.939v76.7A1,1,0,0,1,75.969,103.37Zm-15.263-2H74.969V26.391a25.719,25.719,0,0,0-7.155-1.171,25.288,25.288,0,0,0-7.108,1.169Z" transform="translate(-3.437 3.968)" fill="#5bb3b3" />
        <path d="M56.2,99.666H43.069a1,1,0,0,1-1-1V38.952a1,1,0,0,1,.663-.941,22.86,22.86,0,0,1,6.883-1.186,23.26,23.26,0,0,1,6.917,1.184,1,1,0,0,1,.666.943V98.666A1,1,0,0,1,56.2,99.666Zm-12.129-2H55.2V39.687a21.162,21.162,0,0,0-5.583-.862,20.735,20.735,0,0,0-5.546.859Z" transform="translate(-7.163 7.672)" fill="#5bb3b3" />
        <path d="M21.5,104.772H2.147a1,1,0,0,1-1-1V20.639a1,1,0,0,1,.68-.947,34.829,34.829,0,0,1,9.967-1.621,35.467,35.467,0,0,1,10.019,1.62,1,1,0,0,1,.683.948v83.133A1,1,0,0,1,21.5,104.772Zm-18.349-2H20.5V21.381a33.721,33.721,0,0,0-8.7-1.311,33.144,33.144,0,0,0-8.647,1.309Z" transform="translate(7.335 2.566)" fill="#5bb3b3" />
        <path d="M61.5,204.9H41.99a1,1,0,0,1-1-1V110.649a1,1,0,0,1,.648-.936,32.037,32.037,0,0,1,10.079-1.825,32.621,32.621,0,0,1,10.134,1.823,1,1,0,0,1,.652.937V203.9A1,1,0,0,1,61.5,204.9Zm-18.512-2H60.5V111.367a30.788,30.788,0,0,0-8.785-1.479,30.255,30.255,0,0,0-8.727,1.476Z" transform="translate(-34.596 40.371)" fill="#5bb3b3" />
        <path d="M9.224,1H0A1,1,0,0,1-1,0,1,1,0,0,1,0-1H9.224a1,1,0,0,1,1,1A1,1,0,0,1,9.224,1Z" transform="translate(59.527 45.313)" fill="#5bb3b3" />
        <path d="M9.224,1H0A1,1,0,0,1-1,0,1,1,0,0,1,0-1H9.224a1,1,0,0,1,1,1A1,1,0,0,1,9.224,1Z" transform="translate(59.527 49.496)" fill="#5bb3b3" />
        <path d="M9.224,1H0A1,1,0,0,1-1,0,1,1,0,0,1,0-1H9.224a1,1,0,0,1,1,1A1,1,0,0,1,9.224,1Z" transform="translate(82.562 45.313)" fill="#5bb3b3" />
        <path d="M9.224,1H0A1,1,0,0,1-1,0,1,1,0,0,1,0-1H9.224a1,1,0,0,1,1,1A1,1,0,0,1,9.224,1Z" transform="translate(82.562 49.496)" fill="#5bb3b3" />
        <path d="M0,24.879a1,1,0,0,1-1-1V0A1,1,0,0,1,0-1,1,1,0,0,1,1,0V23.879A1,1,0,0,1,0,24.879Z" transform="translate(42.364 71.656)" fill="#5bb3b3" />
        <path d="M361.209,96.765H343.66a1,1,0,0,1-1-1V23.689a1,1,0,0,1,.7-.953,33.569,33.569,0,0,1,9.1-1.407,32.957,32.957,0,0,1,9.057,1.408,1,1,0,0,1,.692.952V95.765A1,1,0,0,1,361.209,96.765Zm-16.549-2h15.549V24.44a31.222,31.222,0,0,0-7.749-1.111,31.68,31.68,0,0,0-7.8,1.113Z" transform="translate(-37.536 3.453)" fill="#5bb3b3" />
        <path d="M382.766,96.765H365.217a1,1,0,0,1-1-1V23.689a1,1,0,0,1,.7-.953,33.571,33.571,0,0,1,9.105-1.407,32.955,32.955,0,0,1,9.056,1.408,1,1,0,0,1,.692.952V95.765A1,1,0,0,1,382.766,96.765Zm-16.549-2h15.549V24.44a31.218,31.218,0,0,0-7.748-1.111,31.685,31.685,0,0,0-7.8,1.113Z" transform="translate(-34.595 3.453)" fill="#5bb3b3" />
        <path d="M9.953,1H0A1,1,0,0,1-1,0,1,1,0,0,1,0-1H9.953a1,1,0,0,1,1,1A1,1,0,0,1,9.953,1Z" transform="translate(334.704 41.874)" fill="#5bb3b3" />
        <path d="M9.953,1H0A1,1,0,0,1-1,0,1,1,0,0,1,0-1H9.953a1,1,0,0,1,1,1A1,1,0,0,1,9.953,1Z" transform="translate(334.704 45.806)" fill="#5bb3b3" />
        <path d="M9.953,1H0A1,1,0,0,1-1,0,1,1,0,0,1,0-1H9.953a1,1,0,0,1,1,1A1,1,0,0,1,9.953,1Z" transform="translate(310.004 41.153)" fill="#5bb3b3" />
        <path d="M9.953,1H0A1,1,0,0,1-1,0,1,1,0,0,1,0-1H9.953a1,1,0,0,1,1,1A1,1,0,0,1,9.953,1Z" transform="translate(310.004 45.084)" fill="#5bb3b3" />
        <path d="M342.662,204.686a1,1,0,0,1-1-.993L341,115.157a1,1,0,0,1,.688-.958,41.624,41.624,0,0,1,11.177-1.832l.3,0a40.9,40.9,0,0,1,10.84,1.606,1,1,0,0,1,.7.948l.659,88.536a1,1,0,0,1-.99,1.007l-21.712.223Zm.347-88.794.646,86.783,19.712-.2-.646-86.787a39.2,39.2,0,0,0-9.832-1.319A40.045,40.045,0,0,0,343.009,115.892Z" transform="translate(-334.609 168.422)" fill="#5bb3b3" />
        <path d="M367.879,201.309a1,1,0,0,1-1-.993l-.551-74.076a1,1,0,0,1,.734-.971,48.789,48.789,0,0,1,11.134-1.545l.368,0a47.977,47.977,0,0,1,10.726,1.32,1,1,0,0,1,.75.961l.551,74.076a1,1,0,0,1-.99,1.007l-21.712.223Zm.455-74.3.538,72.288,19.713-.2-.538-72.291a46.449,46.449,0,0,0-9.83-1.082A47.323,47.323,0,0,0,368.334,127.011Z" transform="translate(-333.503 171.514)" fill="#5bb3b3" />
        <path d="M12.314,1H0A1,1,0,0,1-1,0,1,1,0,0,1,0-1H12.314a1,1,0,0,1,1,1A1,1,0,0,1,12.314,1Z" transform="translate(39.091 312.917)" fill="#5bb3b3" />
        <path d="M12.314,1H0A1,1,0,0,1-1,0,1,1,0,0,1,0-1H12.314a1,1,0,0,1,1,1A1,1,0,0,1,12.314,1Z" transform="translate(39.091 316.958)" fill="#5bb3b3" />
        <path d="M12.314,1H0A1,1,0,0,1-1,0,1,1,0,0,1,0-1H12.314a1,1,0,0,1,1,1A1,1,0,0,1,12.314,1Z" transform="translate(12.517 301.412)" fill="#5bb3b3" />
        <path d="M12.314,1H0A1,1,0,0,1-1,0,1,1,0,0,1,0-1H12.314a1,1,0,0,1,1,1A1,1,0,0,1,12.314,1Z" transform="translate(12.517 306.242)" fill="#5bb3b3" />
        <path d="M285.963,107.017h-8.69a1,1,0,0,1,0-2h7.69V47.958a29.9,29.9,0,0,0-6.754-.881,29.3,29.3,0,0,0-6.708.879V84.861a1,1,0,0,1-2,0V47.188a1,1,0,0,1,.713-.958,31.181,31.181,0,0,1,8-1.153,31.758,31.758,0,0,1,8.038,1.152,1,1,0,0,1,.716.959v58.83A1,1,0,0,1,285.963,107.017Z" transform="translate(-34.255 23.271)" fill="#5bb3b3" />
        <path d="M307.762,114.111a1,1,0,0,1-.262-.035l-9.162-2.492a1,1,0,0,1-.721-1.145l15.981-87.3a1,1,0,0,1,.6-.742,10.247,10.247,0,0,1,3.6-.693,7.323,7.323,0,0,1,1.92.244,11.158,11.158,0,0,1,4.791,3.214,1,1,0,0,1,.223.829l-15.981,87.3a1,1,0,0,1-.984.82Zm-8.013-4.216,7.226,1.965,15.694-85.732a8.657,8.657,0,0,0-3.481-2.249,5.327,5.327,0,0,0-1.395-.174,8.26,8.26,0,0,0-2.333.368Z" transform="translate(-42.504 16.909)" fill="#5bb3b3" />
        <path d="M155.606,114.563h-8.493a1,1,0,0,1-1-1V19.79a1,1,0,0,1,.6-.916,24.654,24.654,0,0,1,8.815-1.853,25.093,25.093,0,0,1,8.861,1.852,1,1,0,0,1,.6.918V99.726a1,1,0,1,1-2,0V20.473a23.042,23.042,0,0,0-7.464-1.453,22.644,22.644,0,0,0-7.414,1.45v92.093h7.493a1,1,0,0,1,0,2Z" transform="translate(6.38 15.633)" fill="#5bb3b3" />
        <path d="M9.571,1H0A1,1,0,0,1-1,0,1,1,0,0,1,0-1H9.571a1,1,0,0,1,1,1A1,1,0,0,1,9.571,1Z" transform="translate(157.067 54.589)" fill="#5bb3b3" />
        <path d="M9.571,1H0A1,1,0,0,1-1,0,1,1,0,0,1,0-1H9.571a1,1,0,0,1,1,1A1,1,0,0,1,9.571,1Z" transform="translate(157.067 59.705)" fill="#5bb3b3" />
        <path d="M142.62,106.519H117.682a1,1,0,0,1-1-1V46.689a1,1,0,0,1,.818-.983,77.378,77.378,0,0,1,12.615-1.126A78.888,78.888,0,0,1,142.8,45.706a1,1,0,0,1,.82.984v58.83A1,1,0,0,1,142.62,106.519Zm-23.938-2H141.62V47.536a78.343,78.343,0,0,0-11.506-.956,76.86,76.86,0,0,0-11.432.955Z" transform="translate(5.095 23.136)" fill="#5bb3b3" />
        <path d="M18.45,1H0A1,1,0,0,1-1,0,1,1,0,0,1,0-1H18.45a1,1,0,0,1,1,1A1,1,0,0,1,18.45,1Z" transform="translate(125.806 85.584)" fill="#5bb3b3" />
        <path d="M154.508,214.6H148.78a1,1,0,0,1-1-1V149.747a1,1,0,0,1,.766-.972,51.563,51.563,0,0,1,6.9-1.065,1,1,0,1,1,.173,1.992,52.457,52.457,0,0,0-5.835.85V212.6h4.728a1,1,0,1,1,0,2Z" transform="translate(10.453 53.672)" fill="#5bb3b3" />
        <path d="M147.646,215.225H134.9a1,1,0,0,1-1-1V116.341a1,1,0,0,1,.487-.859,15.2,15.2,0,0,1,6.9-1.988,14.953,14.953,0,0,1,6.87,1.991,1,1,0,0,1,.483.856v97.884A1,1,0,0,1,147.646,215.225Zm-11.742-2h10.742V116.936a12.647,12.647,0,0,0-5.353-1.442,12.8,12.8,0,0,0-5.39,1.444Z" transform="translate(7.847 53.045)" fill="#5bb3b3" />
        <path d="M115.767,224.038a1,1,0,0,1-1-.993l-.7-97.835a1,1,0,0,1,.529-.89,19.231,19.231,0,0,1,7.808-2.063h.172a18.851,18.851,0,0,1,7.627,1.857,1,1,0,0,1,.547.884l.7,97.835a1,1,0,0,1-.986,1.007l-14.683.2Zm.3-98.211.69,96.2,12.683-.171-.69-96.2a16.554,16.554,0,0,0-6.324-1.391A16.926,16.926,0,0,0,116.071,125.827Z" transform="translate(4.981 44.283)" fill="#5bb3b3" />
        <path d="M292.313,171.122h-9.132a1,1,0,0,1,0-2h8.132V118.586c-.856-.174-2.359-.447-4.127-.622a1,1,0,1,1,.2-1.99,40.968,40.968,0,0,1,5.167.835,1,1,0,0,1,.763.971v52.341A1,1,0,0,1,292.313,171.122Z" transform="translate(-43.177 97.382)" fill="#5bb3b3" />
        <path d="M322.405,217.422H297.467a1,1,0,0,1-1-1V149.493a1,1,0,0,1,.8-.979,69.738,69.738,0,0,1,12.711-1.284,68.412,68.412,0,0,1,12.639,1.285,1,1,0,0,1,.793.978v66.929A1,1,0,0,1,322.405,217.422Zm-23.938-2h22.938v-65.1a67.738,67.738,0,0,0-11.432-1.089,68.852,68.852,0,0,0-11.506,1.091Z" transform="translate(-42.553 51.082)" fill="#5bb3b3" />
        <path d="M18.45,1H0A1,1,0,0,1-1,0,1,1,0,0,1,0-1H18.45a1,1,0,0,1,1,1A1,1,0,0,1,18.45,1Z" transform="translate(258.373 211.113)" fill="#5bb3b3" />
        <path d="M18.45,1H0A1,1,0,0,1-1,0,1,1,0,0,1,0-1H18.45a1,1,0,0,1,1,1A1,1,0,0,1,18.45,1Z" transform="translate(258.373 216.924)" fill="#5bb3b3" />
        <path d="M418.758,98.941H405.985a1,1,0,0,1-1-1V15.885a1,1,0,0,1,.553-.895,17.249,17.249,0,0,1,6.852-1.654,16.964,16.964,0,0,1,6.82,1.656,1,1,0,0,1,.549.892V97.941A1,1,0,0,1,418.758,98.941Zm-11.773-2h10.773V16.531a14.731,14.731,0,0,0-5.368-1.194,14.98,14.98,0,0,0-5.4,1.2Z" transform="translate(-30.815 1.277)" fill="#5bb3b3" />
        <path d="M400.577,93.285H386.41a1,1,0,0,1-1-1V36.173a1,1,0,0,1,.706-.956,28.2,28.2,0,0,1,7.4-1.1,27.678,27.678,0,0,1,7.36,1.1,1,1,0,0,1,.7.955V92.285A1,1,0,0,1,400.577,93.285Zm-13.167-2h12.167V36.934a25.78,25.78,0,0,0-6.062-.82,26.149,26.149,0,0,0-6.1.822Z" transform="translate(-31.67 6.934)" fill="#5bb3b3" />
        <path d="M0,23.438a1,1,0,0,1-1-1V0A1,1,0,0,1,0-1,1,1,0,0,1,1,0V22.438A1,1,0,0,1,0,23.438Z" transform="translate(361.939 66.628)" fill="#5bb3b3" />
        <g transform="translate(244.19 104.051)">
            <g transform="translate(0)">
                <g clip-path="url(#a)">
                    <path d="M88.785,44.175C87.16,28.563,83.982,12.458,74.608,0c2.1,2.234-1.861,4.932-4.412,6.638-4.942,3.3-5.732,10.78-3.105,16.133s7.768,8.938,12.966,11.753c-2.943-2.01-7.294-.105-8.97,3.086s-1.3,7.078-.376,10.558A37.031,37.031,0,0,0,85.361,68.993C77.853,65.708,69.726,74.938,70.543,83.2s7,14.769,12.84,20.571c-4.9-2.352-10.7,2.9-11.16,8.4s2.538,10.589,5.421,15.247c-4.1-3.136-10.287,1.636-10.762,6.839s2.452,9.984,4.782,14.632c6.171,12.3,7.308,24.9,7.613,38.35C90.33,142.468,93.544,89.921,88.785,44.175" transform="translate(26.249)" fill="#bfe2e2" />
                    <path d="M30.365,99.272c6.5-15.051,13.41-30.666,25.941-41.24,18.673-15.756,48.586-16.117,67.633-.815a115.281,115.281,0,0,1-38.446-1.8c.653,6.064,1.045,11.447-5.779,14.549s-11.206,6.818-20.74,6c2.386,3.633,4,8.178,2.676,12.32s-6.544,7.07-10.255,4.808c2.3,5.324,2.6,12-1.042,16.514a9.755,9.755,0,0,1-14.709.347c-.841,7.2-2.094,18.513-16.413,23.284C4.341,149.99,3.956,165.066,0,166.118c2.133-12.207,25.346-55.228,30.365-66.847" transform="translate(99.513 28.494)" fill="#bfe2e2" />
                    <path d="M52.61,112.424h81.007l-3.16,16.852H55.372Z" transform="translate(4.616 69.678)" fill="#bfe2e2" />
                    <path d="M114.124,183.285H66.718L57.062,124.36h68.11Z" transform="translate(5.85 77.076)" fill="#bfe2e2" />
                    <path d="M175.887,104.76c.266-18.508-.441-38.324-11.178-53.4a12.627,12.627,0,0,0-3.643-3.709,13.965,13.965,0,0,0-5.054-1.489c-14.261-2.213-28.994-2.413-42.992,1.1S85.77,58.182,76.676,69.387c17.068-8.139,35.9-18.4,54.538-15.185.042,3.184,2.895,4.55,6,7.652s10.166,3.044,14.682-.207c-2.823,6.508-2.831,16.995,2.067,22.126s10.386,9.855,17.017,7.336c-7.09,3.186-11.722,12.461-7.741,19.136a48.138,48.138,0,0,0,3.852,4.816c5.12,6.52,5.687,15.482,5.1,23.749-.335,4.723-3.972,19.254.938,21.436,3.729-17.463,2.5-37.626,2.758-55.486" transform="translate(-76.676 27.612)" fill="#bfe2e2" />
                    <path d="M122.871,93.285C111.359,69.2,96.4,46.949,81.466,24.823c-1.3,8.423,5.378,15.762,11.53,21.661-3.717-.3-6.685,3.688-6.578,7.415s2.391,7.028,4.885,9.8a51.811,51.811,0,0,0,15.935,11.97c-3.345.949-12.6-2-10.723,10.6a79.442,79.442,0,0,0,19.794,15.759c-5.707.494-8.617,7.867-6.766,13.289s6.7,9.161,11.308,12.57q5.685,4.211,11.371,8.418c-2.235.368-6.434-3.393-6.708,1.1s6.61,9.832,10.608,14.3c2.865,3.2,6.006,22.129,7.73,25.964-.609-23.775-10.828-63.15-20.981-84.392" transform="translate(-52.093 15.385)" fill="#bfe2e2" />
                </g>
            </g>
            <g transform="translate(-244.19 -104.051)">
                <rect width="57.371" height="10.131" transform="translate(36.57 188.944)" fill="#bfe2e2" />
                <path d="M2.008,84.457l8.076,44.19H46.029l9.87-44.19Z" transform="translate(36.261 116.264)" fill="#bfe2e2" />
                <path d="M11.307,61.094S-.153,36.789,8.336,26.323s14.43,5.815,15.7,13.955.849,20.932.849,20.932Z" transform="translate(36.133 127.455)" fill="#bfe2e2" />
                <path d="M50.674,57.892S64.309,15.767,55.821,5.3,39.215,28.935,37.942,37.076,35.3,57.848,35.3,57.848Z" transform="translate(33.606 130.657)" fill="#bfe2e2" />
                <path d="M0,3.463a.749.749,0,0,1-.633-.346A.75.75,0,0,1-.4,2.081L3.84-.632A.75.75,0,0,1,4.876-.4.75.75,0,0,1,4.648.632L.4,3.345A.747.747,0,0,1,0,3.463Z" transform="translate(55.368 152.816)" fill="#bfe2e2" />
                <path d="M0,3.463a.75.75,0,0,1-.674-.419.75.75,0,0,1,.342-1L5.186-.673a.75.75,0,0,1,1,.342.75.75,0,0,1-.342,1L.331,3.386A.747.747,0,0,1,0,3.463Z" transform="translate(56.217 156.499)" fill="#bfe2e2" />
                <path d="M0,1.913A.75.75,0,0,1-.738,1.3a.75.75,0,0,1,.6-.873L6.232-.738a.75.75,0,0,1,.873.6.75.75,0,0,1-.6.873L.135,1.9A.755.755,0,0,1,0,1.913Z" transform="translate(57.066 160.763)" fill="#bfe2e2" />
                <path d="M5.517.75H0A.75.75,0,0,1-.75,0,.75.75,0,0,1,0-.75H5.517a.75.75,0,0,1,.75.75A.75.75,0,0,1,5.517.75Z" transform="translate(56.141 165.019)" fill="#bfe2e2" />
                <path d="M0,2.495a.75.75,0,0,1-.73-.583.75.75,0,0,1,.564-.9L7.473-.731a.75.75,0,0,1,.9.564.75.75,0,0,1-.564.9L.167,2.476A.753.753,0,0,1,0,2.495Z" transform="translate(56.353 167.927)" fill="#bfe2e2" />
                <path d="M0,.91A.75.75,0,0,1-.75.175.75.75,0,0,1-.015-.59L8.054-.75a.75.75,0,0,1,.765.735A.75.75,0,0,1,8.084.75L.015.91Z" transform="translate(56.26 174.247)" fill="#bfe2e2" />
                <path d="M0,2.032a.75.75,0,0,1-.72-.54A.75.75,0,0,1-.21.562L4.175-.72A.75.75,0,0,1,5.1-.21.75.75,0,0,1,4.6.72L.21,2A.75.75,0,0,1,0,2.032Z" transform="translate(58.379 170.562)" fill="#bfe2e2" />
                <path d="M0,5.075a.746.746,0,0,1-.425-.133A.75.75,0,0,1-.617,3.9L2.364-.426A.75.75,0,0,1,3.407-.617.75.75,0,0,1,3.6.426L.617,4.751A.749.749,0,0,1,0,5.075Z" transform="translate(52.24 148.454)" fill="#bfe2e2" />
                <path d="M.525,5.556A.75.75,0,0,1-.22,4.888L-.746.082A.75.75,0,0,1-.082-.746a.75.75,0,0,1,.827.664l.526,4.806a.75.75,0,0,1-.664.827A.759.759,0,0,1,.525,5.556Z" transform="translate(48.556 147.813)" fill="#bfe2e2" />
                <path d="M2.807,4.275a.749.749,0,0,1-.587-.283L-.587.467A.75.75,0,0,1-.467-.587a.75.75,0,0,1,1.054.12L3.393,3.057a.75.75,0,0,1-.586,1.217Z" transform="translate(44.171 150.056)" fill="#bfe2e2" />
                <path d="M4.912,2.352a.749.749,0,0,1-.233-.037L-.233.713a.75.75,0,0,1-.48-.946.75.75,0,0,1,.946-.48L5.144.889a.75.75,0,0,1-.232,1.463Z" transform="translate(39.26 155.022)" fill="#bfe2e2" />
                <path d="M7.017.91H7L-.017.75A.75.75,0,0,1-.75-.017.75.75,0,0,1,.017-.75l7.017.16A.75.75,0,0,1,7.017.91Z" transform="translate(38.207 158.227)" fill="#bfe2e2" />
                <path d="M4.736,2.032a.751.751,0,0,1-.2-.026L-.2.724A.75.75,0,0,1-.724-.2.75.75,0,0,1,.2-.724L4.932.558a.75.75,0,0,1-.2,1.474Z" transform="translate(37.681 160.95)" fill="#bfe2e2" />
                <path d="M4.386,1.23a.758.758,0,0,1-.083,0L-.082.746A.75.75,0,0,1-.746-.082.75.75,0,0,1,.082-.746l4.385.48a.75.75,0,0,1-.081,1.5Z" transform="translate(38.207 165.756)" fill="#bfe2e2" />
                <path d="M4.035,1.07l-.06,0L-.059.748A.75.75,0,0,1-.748-.059.75.75,0,0,1,.059-.748l4.034.32a.75.75,0,0,1-.059,1.5Z" transform="translate(38.558 169.44)" fill="#bfe2e2" />
                <path d="M6.315.75H0A.75.75,0,0,1-.75,0,.75.75,0,0,1,0-.75H6.315a.75.75,0,0,1,.75.75A.75.75,0,0,1,6.315.75Z" transform="translate(38.207 173.926)" fill="#bfe2e2" />
                <path d="M0,2.673a.75.75,0,0,1-.691-.459.75.75,0,0,1,.4-.982L4.27-.691a.75.75,0,0,1,.982.4.75.75,0,0,1-.4.982L.291,2.614A.748.748,0,0,1,0,2.673Z" transform="translate(40.663 176.489)" fill="#bfe2e2" />
                <path d="M0,1.711a.75.75,0,0,1-.727-.569A.75.75,0,0,1-.181.234L3.678-.728a.75.75,0,0,1,.909.546.75.75,0,0,1-.546.909L.181,1.689A.752.752,0,0,1,0,1.711Z" transform="translate(41.891 180.495)" fill="#bfe2e2" />
                <path d="M0,2.512a.75.75,0,0,1-.7-.489.75.75,0,0,1,.441-.964L4.474-.7a.75.75,0,0,1,.964.441A.75.75,0,0,1,5,.7L.262,2.465A.749.749,0,0,1,0,2.512Z" transform="translate(42.592 183.699)" fill="#bfe2e2" />
                <path d="M5.088,1.391a.757.757,0,0,1-.095-.006L-.094.744a.75.75,0,0,1-.65-.838.75.75,0,0,1,.838-.65L5.18-.1a.75.75,0,0,1-.093,1.494Z" transform="translate(58.029 178.252)" fill="#bfe2e2" />
                <path d="M5.789,1.07H5.747L-.041.749a.75.75,0,0,1-.707-.79.75.75,0,0,1,.79-.707l5.788.32a.75.75,0,0,1-.041,1.5Z" transform="translate(58.379 181.776)" fill="#bfe2e2" />
                <path d="M5.965,1.391a.758.758,0,0,1-.081,0L-.08.746A.75.75,0,0,1-.746-.08.75.75,0,0,1,.08-.746L6.044-.1a.75.75,0,0,1-.079,1.5Z" transform="translate(58.379 184.82)" fill="#bfe2e2" />
                <path d="M3.86,3.906a.747.747,0,0,1-.474-.169L-.475.581A.75.75,0,0,1-.581-.475.75.75,0,0,1,.475-.581l3.86,3.156A.75.75,0,0,1,3.86,3.906Z" transform="translate(76.956 135.471)" fill="#bfe2e2" />
                <path d="M5.124,4.045a.746.746,0,0,1-.4-.119L-.406.631A.75.75,0,0,1-.631-.406.75.75,0,0,1,.406-.631L5.53,2.664a.75.75,0,0,1-.406,1.381Z" transform="translate(74.368 138.896)" fill="#bfe2e2" />
                <path d="M6.17,2.6a.75.75,0,0,1-.215-.032L-.215.718a.75.75,0,0,1-.5-.934.75.75,0,0,1,.934-.5L6.385,1.129A.75.75,0,0,1,6.17,2.6Z" transform="translate(72.126 142.945)" fill="#bfe2e2" />
                <path d="M5.479,1.351a.758.758,0,0,1-.083,0L-.082.746A.75.75,0,0,1-.746-.082.75.75,0,0,1,.082-.746l5.478.6a.75.75,0,0,1-.081,1.5Z" transform="translate(73.332 147.365)" fill="#bfe2e2" />
                <path d="M7.358,3.314a.749.749,0,0,1-.247-.042L-.247.708A.75.75,0,0,1-.708-.247.75.75,0,0,1,.247-.708L7.6,1.855a.75.75,0,0,1-.247,1.458Z" transform="translate(70.635 149.997)" fill="#bfe2e2" />
                <path d="M7.991,1.787a.757.757,0,0,1-.1-.006L-.1.744A.75.75,0,0,1-.744-.1.75.75,0,0,1,.1-.744L8.087.294a.75.75,0,0,1-.1,1.494Z" transform="translate(69.476 156.235)" fill="#bfe2e2" />
                <path d="M4.187,2.5A.748.748,0,0,1,3.9,2.442L-.289.692a.75.75,0,0,1-.4-.981.75.75,0,0,1,.981-.4l4.187,1.75A.75.75,0,0,1,4.187,2.5Z" transform="translate(71.334 153.228)" fill="#bfe2e2" />
                <path d="M2.4,5.369a.75.75,0,0,1-.666-.4L-.666.345A.75.75,0,0,1-.345-.666a.75.75,0,0,1,1.011.32l2.4,4.619a.75.75,0,0,1-.665,1.1Z" transform="translate(81.884 131.618)" fill="#bfe2e2" />
                <path d="M0,5.465a.752.752,0,0,1-.178-.022.75.75,0,0,1-.551-.906L.421-.178a.75.75,0,0,1,.906-.551.75.75,0,0,1,.551.906L.729,4.892A.75.75,0,0,1,0,5.465Z" transform="translate(87.436 131.707)" fill="#bfe2e2" />
                <path d="M0,3.944A.748.748,0,0,1-.535,3.72.75.75,0,0,1-.526,2.66L2.72-.535a.75.75,0,0,1,1.061.009A.75.75,0,0,1,3.772.535L.526,3.729A.748.748,0,0,1,0,3.944Z" transform="translate(89.4 134.412)" fill="#bfe2e2" />
                <path d="M0,1.806a.75.75,0,0,1-.734-.6A.75.75,0,0,1-.152.321L4.933-.734a.75.75,0,0,1,.887.582.75.75,0,0,1-.582.887L.152,1.79A.753.753,0,0,1,0,1.806Z" transform="translate(91.789 139.877)" fill="#bfe2e2" />
                <path d="M0,1.507A.75.75,0,0,1-.741.872.75.75,0,0,1-.115.016l4.87-.757a.75.75,0,0,1,.856.626.75.75,0,0,1-.626.856L.115,1.5A.756.756,0,0,1,0,1.507Z" transform="translate(91.261 146.254)" fill="#bfe2e2" />
                <path d="M4.417.75H0A.75.75,0,0,1-.75,0,.75.75,0,0,1,0-.75H4.417a.75.75,0,0,1,.75.75A.75.75,0,0,1,4.417.75Z" transform="translate(92.102 150.649)" fill="#bfe2e2" />
                <path d="M4.048.871H4.025L-.022.75A.75.75,0,0,1-.75-.022.75.75,0,0,1,.022-.75L4.07-.628a.75.75,0,0,1-.022,1.5Z" transform="translate(91.642 154.147)" fill="#bfe2e2" />
                <path d="M6.27,1.438a.758.758,0,0,1-.083,0L-.082.746A.75.75,0,0,1-.746-.082.75.75,0,0,1,.082-.746l6.269.688a.75.75,0,0,1-.081,1.5Z" transform="translate(89.184 158.073)" fill="#bfe2e2" />
                <path d="M4.276,3.155a.746.746,0,0,1-.367-.1L-.368.654A.75.75,0,0,1-.654-.368.75.75,0,0,1,.368-.654L4.645,1.752a.75.75,0,0,1-.368,1.4Z" transform="translate(89.321 160.542)" fill="#bfe2e2" />
                <path d="M3.706,2.125a.748.748,0,0,1-.261-.047L-.261.7A.75.75,0,0,1-.7-.261.75.75,0,0,1,.261-.7L3.967.671a.75.75,0,0,1-.261,1.453Z" transform="translate(89.955 166.09)" fill="#bfe2e2" />
                <path d="M4.567,2.291a.749.749,0,0,1-.24-.04L-.24.711A.75.75,0,0,1-.711-.24.75.75,0,0,1,.24-.711L4.807.83a.75.75,0,0,1-.24,1.461Z" transform="translate(88.93 170.011)" fill="#bfe2e2" />
                <path d="M0,.833A.75.75,0,0,1-.75.095.75.75,0,0,1-.012-.667L5.122-.75a.75.75,0,0,1,.762.738A.75.75,0,0,1,5.146.75L.012.833Z" transform="translate(68.964 160.097)" fill="#bfe2e2" />
                <path d="M5.79,1.062H5.749L-.04.749A.75.75,0,0,1-.749-.04.75.75,0,0,1,.04-.749L5.83-.437a.75.75,0,0,1-.04,1.5Z" transform="translate(68.611 164.047)" fill="#bfe2e2" />
                <path d="M6,.763H6L0,.75A.75.75,0,0,1-.75,0,.75.75,0,0,1,0-.75l6,.013a.75.75,0,0,1,0,1.5Z" transform="translate(67.998 167.368)" fill="#bfe2e2" />
                <path d="M6.49.75H0A.75.75,0,0,1-.75,0,.75.75,0,0,1,0-.75H6.49A.75.75,0,0,1,7.24,0,.75.75,0,0,1,6.49.75Z" transform="translate(84.866 173.926)" fill="#bfe2e2" />
                <path d="M8.42,2.673a.752.752,0,0,1-.168-.019L-.167.731a.75.75,0,0,1-.564-.9.75.75,0,0,1,.9-.564L8.586,1.191A.75.75,0,0,1,8.42,2.673Z" transform="translate(82.572 176.009)" fill="#bfe2e2" />
                <path d="M5.438,2.352a.75.75,0,0,1-.212-.031L-.212.719A.75.75,0,0,1-.719-.212.75.75,0,0,1,.212-.719L5.65.883a.75.75,0,0,1-.212,1.47Z" transform="translate(84.852 179.533)" fill="#bfe2e2" />
                <path d="M4.385,2.833a.747.747,0,0,1-.321-.073L-.322.677a.75.75,0,0,1-.356-1,.75.75,0,0,1,1-.356L4.707,1.4a.75.75,0,0,1-.322,1.428Z" transform="translate(84.677 183.058)" fill="#bfe2e2" />
                <path d="M5.438,1.07H5.393L-.044.749a.75.75,0,0,1-.7-.793.75.75,0,0,1,.793-.7l5.438.32a.75.75,0,0,1-.043,1.5Z" transform="translate(67.325 171.123)" fill="#bfe2e2" />
                <path d="M0,.99A.75.75,0,0,1-.75.267.75.75,0,0,1-.027-.509L6.639-.75a.75.75,0,0,1,.777.723A.75.75,0,0,1,6.693.75L.027.99Z" transform="translate(67.062 175.448)" fill="#bfe2e2" />
                <path d="M7.368,2.272a.753.753,0,0,1-.152-.016L-.152.734A.75.75,0,0,1-.734-.152.75.75,0,0,1,.152-.734L7.519.787a.75.75,0,0,1-.151,1.485Z" transform="translate(66.273 178.732)" fill="#bfe2e2" />
                <path d="M7.455.75H0A.75.75,0,0,1-.75,0,.75.75,0,0,1,0-.75H7.455A.75.75,0,0,1,8.2,0,.75.75,0,0,1,7.455.75Z" transform="translate(65.133 183.859)" fill="#bfe2e2" />
            </g>
        </g>
        <g transform="translate(-24.834 -21.636)">
            <g transform="translate(158.902 50.809)">
                <path d="M0,0,15.49,64.928H26.661L36.866,0Z" transform="translate(86.522 172.825) rotate(180)" fill="#e6b88e" />
                <path d="M28.561,37.9c3.5-.986,9.017-.656,13-.723,1.337-.025,1.9-.761,2.943-.612a28.651,28.651,0,0,1-2.3-14.091c.454-4.609,2.4-8.49,4.193-12.564a16.183,16.183,0,0,1,3.2-5.155,10.65,10.65,0,0,1,5.324-2.776,14.335,14.335,0,0,1,6.218.17c.909.217,1.731.657,2.623.914.914.263,1.34-.3,1.985-.856A10.737,10.737,0,0,1,71.624.055a15.458,15.458,0,0,1,6.764,1.005A14.158,14.158,0,0,1,84.1,4.852,10.228,10.228,0,0,1,85.843,7.5c.173.4.206.635.6.791.365.144.788.16,1.164.3a15.754,15.754,0,0,1,8.565,7.9c1.033,2.136,1.59,5.86,1.568,10.017s-3.471,14.908-6.852,18.77a21.833,21.833,0,0,1-11.907,6.549,37.364,37.364,0,0,1,6.61,12.059c1.681,4.7,11.406,20.485,1.868,42.22S59.066,120.874,55.487,123c-1.639.976-33.876-8.981-35.1-10.407C19.878,112,.239,93.885,0,80.172S10.534,52.41,11.013,51.636C13.555,47.529,23.379,39.365,28.561,37.9Z" transform="matrix(0.966, -0.259, 0.259, 0.966, 0, 25.297)" fill="#2e3e5a" />
                <path d="M4436.191,743.351s11.577,45.3,33.531,45.079S4500.41,739.8,4500.41,739.8s-18.51-2.342-31.969-16.3C4454.318,738.1,4436.191,743.351,4436.191,743.351Z" transform="translate(-4403.419 -648.071)" fill="#efc6a1" />
            </g>
            <rect width="38.444" height="131.99" transform="translate(206.707 207.978)" fill="#ffd964" />
            <path d="M65.154,0S37.208,69.97,31.95,76.642c-2.57,3.261-18.213,11.5-28.78,15.868-4.241,1.751-3.4,5.325-2.185,6.485,9.881,9.434,19.132,2.728,29.948.241,11.85-2.725,7.928,11.248,17.29,9.24-1.374-6.441-5.185-18.693-.757-25.264C50.419,78.831,91.326,5.671,91.326,5.671Z" transform="matrix(0.978, -0.208, 0.208, 0.978, 75.412, 339.444)" fill="#efc6a1" />
            <path d="M65.154,108.674S37.208,38.7,31.95,32.032c-2.57-3.261-18.213-11.5-28.78-15.868-4.241-1.751-3.4-5.325-2.185-6.485C10.866.245,20.118,6.951,30.934,9.438,42.784,12.163,38.862-1.81,48.224.2c-1.374,6.441-5.185,18.693-.757,25.264C50.419,29.843,91.326,103,91.326,103Z" transform="matrix(-0.978, -0.208, 0.208, -0.978, 353.34, 445.743)" fill="#efc6a1" />
            <path d="M0,172.492H88.421S76.233,58.576,75.092,20.986L67.9.433S60.764.12,57.277,0H55.334C34.372,37.622,4.139,110.347,0,172.492Z" transform="translate(145.606 206.697)" fill="#9183d8" />
            <path d="M88.421,172.492H0S12.187,58.576,13.328,20.986L20.521.433S27.656.12,31.144,0h1.943C54.048,37.622,84.281,110.347,88.421,172.492Z" transform="translate(217.32 206.697)" fill="#9183d8" />
            <path d="M14.737,0s.336,75.781,14.737,99.954H0Z" transform="translate(157.97 279.74)" fill="rgba(0,0,0,0.1)" />
            <path d="M14.737,0S14.4,75.781,0,99.954H29.474Z" transform="translate(263.903 279.74)" fill="rgba(0,0,0,0.1)" />
            <path d="M-3113.846-6447.981c-.914,1.437-.543,4.724-.543,4.724s28.9,1.946,42.36,6.277c.724-2.068,1.194-3.937,1.194-3.937S-3073.671-6445.7-3113.846-6447.981Z" transform="translate(3323.002 6544.497)" fill="#ffd964" />
            <g transform="translate(199.787 145.349)">
                <path d="M51.6,58.224a16.943,16.943,0,0,1,9.816,2.657,1.5,1.5,0,0,1,.631,1.022c.62,4.365-.138,7.883-2.251,10.456a11.923,11.923,0,0,1-8.943,3.986,11.989,11.989,0,0,1-8.869-3.527c-2.355-2.573-3.33-6.354-2.9-11.238a1.5,1.5,0,0,1,.966-1.272A36.664,36.664,0,0,1,51.6,58.224Zm7.561,4.771A14.614,14.614,0,0,0,51.6,61.224a33.769,33.769,0,0,0-9.592,1.591c-.164,3.529.57,6.21,2.189,7.978a9.041,9.041,0,0,0,6.656,2.553,8.486,8.486,0,0,0,.936-.044c.041-.005.065-.008.1-.01a8.672,8.672,0,0,0,5.6-2.861C58.941,68.659,59.5,66.159,59.162,62.995Z" transform="translate(-40.487 -59.724)" fill="#313e58" />
                <path d="M74.22,58.677a16.94,16.94,0,0,1,9.815,2.657,1.5,1.5,0,0,1,.631,1.022c.62,4.365-.138,7.883-2.251,10.456A11.919,11.919,0,0,1,73.473,76.8a11.991,11.991,0,0,1-8.87-3.528c-2.355-2.573-3.33-6.354-2.9-11.237a1.5,1.5,0,0,1,.966-1.272A36.662,36.662,0,0,1,74.22,58.677Zm7.559,4.771a14.611,14.611,0,0,0-7.559-1.771,33.767,33.767,0,0,0-9.594,1.591c-.164,3.529.57,6.21,2.189,7.978A9.043,9.043,0,0,0,73.473,73.8a8.482,8.482,0,0,0,.935-.044c.041-.005.065-.008.1-.01a8.673,8.673,0,0,0,5.6-2.861C81.559,69.112,82.117,66.612,81.78,63.448Z" transform="translate(-36.008 -59.634)" fill="#313e58" />
                <path d="M7.114,1.643H7.084L-.03,1.5A1.5,1.5,0,0,1-1.5-.03,1.5,1.5,0,0,1,.03-1.5l7.114.143a1.5,1.5,0,0,1-.029,3Z" transform="translate(20.077 2.39)" fill="#313e58" />
            </g>
            <path d="M78.815,0S62.308,8.218,46.337,33.626C26.62,64.992,6.011,120.563,0,188.374H48.094C40.619,85.864,87.139,7.4,87.139,7.4Z" transform="translate(122.09 206.697)" fill="#9183d8" />
            <path d="M8.324,0S24.832,8.218,40.8,33.626c19.717,31.366,40.326,86.937,46.337,154.748H39.045C46.52,85.864,0,7.4,0,7.4Z" transform="translate(242.118 206.697)" fill="#9183d8" />
        </g>
    </g>
</svg>