<svg xmlns="http://www.w3.org/2000/svg" xmlns:xlink="http://www.w3.org/1999/xlink" width="400"
    height="320" viewBox="0 0 400 320">
    <defs>
        <clipPath>
            <path
                d="M35.89,27.119V108.2c0,1.739.913,3.149,2.038,3.149s2.037-1.41,2.037-3.149V27.119c0-1.739-.913-3.149-2.037-3.149s-2.038,1.41-2.038,3.149"
                transform="translate(-35.89 -23.97)" fill="none" />
        </clipPath>
        <clipPath>
            <rect width="38.586" height="74.235" fill="none" stroke="#5bb3b3" stroke-width="2" />
        </clipPath>
        <clipPath>
            <rect width="400" height="320" />
        </clipPath>
    </defs>
    <g clip-path="url(#e)">
        <g transform="translate(304.418 19)">
            <path
                d="M29.244-1A30.252,30.252,0,0,1,41.016,57.11,30.251,30.251,0,0,1,17.471,1.377,30.055,30.055,0,0,1,29.244-1Zm0,58.488A28.252,28.252,0,0,0,40.237,3.219,28.251,28.251,0,0,0,18.25,55.268,28.066,28.066,0,0,0,29.244,57.488Z"
                transform="translate(7.972 7.972)" fill="#5bb3b3" />
            <path
                d="M37.216-1A38.226,38.226,0,0,1,52.092,72.429,38.226,38.226,0,0,1,22.34,2,37.978,37.978,0,0,1,37.216-1Zm0,74.432a36.226,36.226,0,0,0,14.1-69.587A36.226,36.226,0,0,0,23.12,70.587,35.988,35.988,0,0,0,37.216,73.432Z"
                transform="translate(0)" fill="#5bb3b3" />
            <path
                d="M125.309,44.963a1,1,0,0,1-.7-1.718l12.671-12.286V8.66a1,1,0,0,1,2,0V31.382a1,1,0,0,1-.3.718L126,44.681A1,1,0,0,1,125.309,44.963Z"
                transform="translate(-101.265 6.031)" fill="#5bb3b3" />
        </g>
        <path
            d="M2411.853-2121.618a15,15,0,0,1-13.119,7.723,15,15,0,0,1-15-15,15.035,15.035,0,0,1,.439-3.619,15,15,0,0,1-14.842-15,15.026,15.026,0,0,1,.477-3.767,15,15,0,0,1-8.807-13.665,15,15,0,0,1,15-15,15.034,15.034,0,0,1,3.488.408,15.021,15.021,0,0,1-.488-3.809,15,15,0,0,1,15-15,14.936,14.936,0,0,1,7.028,1.745,15,15,0,0,1,14.916-13.4,15.006,15.006,0,0,1,14.307,10.48,14.956,14.956,0,0,1,10.693-4.48,15.006,15.006,0,0,1,14.526,11.248,14.931,14.931,0,0,1,7.9-2.248,15,15,0,0,1,15,15,15.005,15.005,0,0,1-9.067,13.781,14.938,14.938,0,0,1,3.29,9.374,15,15,0,0,1-12.262,14.751,15,15,0,0,1,.61,4.249,15,15,0,0,1-15,15,14.937,14.937,0,0,1-6.657-1.554,15.006,15.006,0,0,1-14.315,10.5A15,15,0,0,1,2411.853-2121.618Z"
            transform="translate(-2289.01 2230.945)" fill="#b1a8e3" />
        <g transform="translate(-35.854 18.217)">
            <path
                d="M95.844,1H0A1,1,0,0,1-1,0,1,1,0,0,1,0-1H95.844a1,1,0,0,1,1,1A1,1,0,0,1,95.844,1Z"
                transform="translate(0 65.531)" fill="#5ab3b3" />
            <path
                d="M2.744-1H13.806a3.748,3.748,0,0,1,3.744,3.744V55.289a3.748,3.748,0,0,1-3.744,3.744H2.744A3.748,3.748,0,0,1-1,55.289V2.744A3.748,3.748,0,0,1,2.744-1ZM13.806,57.032a1.746,1.746,0,0,0,1.744-1.744V2.744A1.746,1.746,0,0,0,13.806,1H2.744A1.746,1.746,0,0,0,1,2.744V55.289a1.746,1.746,0,0,0,1.744,1.744Z"
                transform="translate(71.047 0.783)" fill="#5ab3b3" />
            <g transform="translate(76.294 27.126)">
                <path
                    d="M6.055,1H0A1,1,0,0,1-1,0,1,1,0,0,1,0-1H6.055a1,1,0,0,1,1,1A1,1,0,0,1,6.055,1Z"
                    transform="translate(0)" fill="#5ab3b3" />
                <path
                    d="M6.055,1H0A1,1,0,0,1-1,0,1,1,0,0,1,0-1H6.055a1,1,0,0,1,1,1A1,1,0,0,1,6.055,1Z"
                    transform="translate(0 6.771)" fill="#5ab3b3" />
            </g>
            <path
                d="M2.744-1H13.806a3.748,3.748,0,0,1,3.744,3.744V55.289a3.748,3.748,0,0,1-3.744,3.744H2.744A3.748,3.748,0,0,1-1,55.289V2.744A3.748,3.748,0,0,1,2.744-1ZM13.806,57.032a1.746,1.746,0,0,0,1.744-1.744V2.744A1.746,1.746,0,0,0,13.806,1H2.744A1.746,1.746,0,0,0,1,2.744V55.289a1.746,1.746,0,0,0,1.744,1.744Z"
                transform="translate(48.193 0.783)" fill="#5ab3b3" />
            <g transform="translate(53.441 27.126)">
                <path
                    d="M6.055,1H0A1,1,0,0,1-1,0,1,1,0,0,1,0-1H6.055a1,1,0,0,1,1,1A1,1,0,0,1,6.055,1Z"
                    transform="translate(0)" fill="#5ab3b3" />
                <path
                    d="M6.055,1H0A1,1,0,0,1-1,0,1,1,0,0,1,0-1H6.055a1,1,0,0,1,1,1A1,1,0,0,1,6.055,1Z"
                    transform="translate(0 6.771)" fill="#5ab3b3" />
            </g>
            <path
                d="M2.744-1H13.806a3.748,3.748,0,0,1,3.744,3.744V55.289a3.748,3.748,0,0,1-3.744,3.744H2.744A3.748,3.748,0,0,1-1,55.289V2.744A3.748,3.748,0,0,1,2.744-1ZM13.806,57.032a1.746,1.746,0,0,0,1.744-1.744V2.744A1.746,1.746,0,0,0,13.806,1H2.744A1.746,1.746,0,0,0,1,2.744V55.289a1.746,1.746,0,0,0,1.744,1.744Z"
                transform="translate(1.324 0.783)" fill="#5ab3b3" />
            <path
                d="M2.744-1H13.806a3.748,3.748,0,0,1,3.744,3.744V55.289a3.748,3.748,0,0,1-3.744,3.744H2.744A3.748,3.748,0,0,1-1,55.289V2.744A3.748,3.748,0,0,1,2.744-1ZM13.806,57.032a1.746,1.746,0,0,0,1.744-1.744V2.744A1.746,1.746,0,0,0,13.806,1H2.744A1.746,1.746,0,0,0,1,2.744V55.289a1.746,1.746,0,0,0,1.744,1.744Z"
                transform="translate(25.34 0.783)" fill="#5ab3b3" />
            <g transform="translate(6.571 27.126)">
                <path
                    d="M6.055,1H0A1,1,0,0,1-1,0,1,1,0,0,1,0-1H6.055a1,1,0,0,1,1,1A1,1,0,0,1,6.055,1Z"
                    fill="#5ab3b3" />
                <path
                    d="M6.055,1H0A1,1,0,0,1-1,0,1,1,0,0,1,0-1H6.055a1,1,0,0,1,1,1A1,1,0,0,1,6.055,1Z"
                    transform="translate(0 6.771)" fill="#5ab3b3" />
            </g>
            <g transform="translate(30.588 27.126)">
                <path
                    d="M6.055,1H0A1,1,0,0,1-1,0,1,1,0,0,1,0-1H6.055a1,1,0,0,1,1,1A1,1,0,0,1,6.055,1Z"
                    fill="#5ab3b3" />
                <path
                    d="M6.055,1H0A1,1,0,0,1-1,0,1,1,0,0,1,0-1H6.055a1,1,0,0,1,1,1A1,1,0,0,1,6.055,1Z"
                    transform="translate(0 6.771)" fill="#5ab3b3" />
            </g>
        </g>
        <g transform="translate(-35.854 102.617)">
            <path
                d="M95.844,1H0A1,1,0,0,1-1,0,1,1,0,0,1,0-1H95.844a1,1,0,0,1,1,1A1,1,0,0,1,95.844,1Z"
                transform="translate(0 65.531)" fill="#5ab3b3" />
            <path
                d="M2.744-1H13.806a3.748,3.748,0,0,1,3.744,3.744V55.289a3.748,3.748,0,0,1-3.744,3.744H2.744A3.748,3.748,0,0,1-1,55.289V2.744A3.748,3.748,0,0,1,2.744-1ZM13.806,57.032a1.746,1.746,0,0,0,1.744-1.744V2.744A1.746,1.746,0,0,0,13.806,1H2.744A1.746,1.746,0,0,0,1,2.744V55.289a1.746,1.746,0,0,0,1.744,1.744Z"
                transform="translate(71.047 0.783)" fill="#5ab3b3" />
            <g transform="translate(76.294 27.126)">
                <path
                    d="M6.055,1H0A1,1,0,0,1-1,0,1,1,0,0,1,0-1H6.055a1,1,0,0,1,1,1A1,1,0,0,1,6.055,1Z"
                    transform="translate(0)" fill="#5ab3b3" />
                <path
                    d="M6.055,1H0A1,1,0,0,1-1,0,1,1,0,0,1,0-1H6.055a1,1,0,0,1,1,1A1,1,0,0,1,6.055,1Z"
                    transform="translate(0 6.771)" fill="#5ab3b3" />
            </g>
            <path
                d="M2.744-1H13.806a3.748,3.748,0,0,1,3.744,3.744V55.289a3.748,3.748,0,0,1-3.744,3.744H2.744A3.748,3.748,0,0,1-1,55.289V2.744A3.748,3.748,0,0,1,2.744-1ZM13.806,57.032a1.746,1.746,0,0,0,1.744-1.744V2.744A1.746,1.746,0,0,0,13.806,1H2.744A1.746,1.746,0,0,0,1,2.744V55.289a1.746,1.746,0,0,0,1.744,1.744Z"
                transform="translate(48.193 0.783)" fill="#5ab3b3" />
            <g transform="translate(53.441 27.126)">
                <path
                    d="M6.055,1H0A1,1,0,0,1-1,0,1,1,0,0,1,0-1H6.055a1,1,0,0,1,1,1A1,1,0,0,1,6.055,1Z"
                    transform="translate(0)" fill="#5ab3b3" />
                <path
                    d="M6.055,1H0A1,1,0,0,1-1,0,1,1,0,0,1,0-1H6.055a1,1,0,0,1,1,1A1,1,0,0,1,6.055,1Z"
                    transform="translate(0 6.771)" fill="#5ab3b3" />
            </g>
            <path
                d="M2.744-1H13.806a3.748,3.748,0,0,1,3.744,3.744V55.289a3.748,3.748,0,0,1-3.744,3.744H2.744A3.748,3.748,0,0,1-1,55.289V2.744A3.748,3.748,0,0,1,2.744-1ZM13.806,57.032a1.746,1.746,0,0,0,1.744-1.744V2.744A1.746,1.746,0,0,0,13.806,1H2.744A1.746,1.746,0,0,0,1,2.744V55.289a1.746,1.746,0,0,0,1.744,1.744Z"
                transform="translate(1.324 0.783)" fill="#5ab3b3" />
            <path
                d="M2.744-1H13.806a3.748,3.748,0,0,1,3.744,3.744V55.289a3.748,3.748,0,0,1-3.744,3.744H2.744A3.748,3.748,0,0,1-1,55.289V2.744A3.748,3.748,0,0,1,2.744-1ZM13.806,57.032a1.746,1.746,0,0,0,1.744-1.744V2.744A1.746,1.746,0,0,0,13.806,1H2.744A1.746,1.746,0,0,0,1,2.744V55.289a1.746,1.746,0,0,0,1.744,1.744Z"
                transform="translate(25.34 0.783)" fill="#5ab3b3" />
            <g transform="translate(6.571 27.126)">
                <path
                    d="M6.055,1H0A1,1,0,0,1-1,0,1,1,0,0,1,0-1H6.055a1,1,0,0,1,1,1A1,1,0,0,1,6.055,1Z"
                    fill="#5ab3b3" />
                <path
                    d="M6.055,1H0A1,1,0,0,1-1,0,1,1,0,0,1,0-1H6.055a1,1,0,0,1,1,1A1,1,0,0,1,6.055,1Z"
                    transform="translate(0 6.771)" fill="#5ab3b3" />
            </g>
            <g transform="translate(30.588 27.126)">
                <path
                    d="M6.055,1H0A1,1,0,0,1-1,0,1,1,0,0,1,0-1H6.055a1,1,0,0,1,1,1A1,1,0,0,1,6.055,1Z"
                    fill="#5ab3b3" />
                <path
                    d="M6.055,1H0A1,1,0,0,1-1,0,1,1,0,0,1,0-1H6.055a1,1,0,0,1,1,1A1,1,0,0,1,6.055,1Z"
                    transform="translate(0 6.771)" fill="#5ab3b3" />
            </g>
        </g>
        <path
            d="M2504.019-2010.711h0v-8.777a108.916,108.916,0,0,1,8.512-15.508c.273-.414,1.11-1.567,2.133-2.937a18.371,18.371,0,0,1-4.379-6.525,17.556,17.556,0,0,1-1.262-7.549,7.978,7.978,0,0,1,3.572-.972,5.459,5.459,0,0,1,1.179.128,10.507,10.507,0,0,1,1.46.479c.269.1.571.219.866.315a8.706,8.706,0,0,0,2.685.426h.024a3.412,3.412,0,0,0,1.729-.366,1.635,1.635,0,0,0,.877-1.475c-.094-1.056-1.357-1.517-2.4-1.717a24.541,24.541,0,0,0-4.569-.537,12.366,12.366,0,0,0-1.585.1,8.874,8.874,0,0,0-3.479,1.194,11.758,11.758,0,0,1,5.719-7.664,19,19,0,0,1,9.314-2.782,12.223,12.223,0,0,1,5.765,1.391,8.642,8.642,0,0,1,1.975,1.391l1.728-.647a51.382,51.382,0,0,1,10.226,4.155,25.919,25.919,0,0,1,6.985,5.316,11.043,11.043,0,0,1,3.08,7.583,9.312,9.312,0,0,1-3.76,7.175,37.819,37.819,0,0,1-7.708,4.511,32.743,32.743,0,0,0-6.259,3.581c-1.781,1.47-2.459,3-2.134,4.809a10.129,10.129,0,0,1,.36,2.666.035.035,0,0,1-.029.014c-.1,0-.324-.354-.7-.94l0,0a29.278,29.278,0,0,0-4.161-5.313,19.387,19.387,0,0,0-8.637-5.055,14.645,14.645,0,0,1-4.213-1.891,112.414,112.414,0,0,0-5.808,9.815A155.647,155.647,0,0,0,2504.019-2010.711Zm-7.54-15.647h-11.533l-.005-1.116a176.879,176.879,0,0,0-8.757-29.658c-3.052-7.594-6.832-15.053-10.488-22.268l-.009-.018c-3.084-6.084-6.273-12.375-9.009-18.725-1.312-3.043-2.473-6.009-3.453-8.816-1.177.307-2.407.577-3.656.8a21.692,21.692,0,0,0-.527-7.043,20.865,20.865,0,0,0-2.776-6.488,42.421,42.421,0,0,0-4.083-5.062l0-.005-3.958-4.422c-1.075-1.2-2.158-2.3-3.585-2.514a2.51,2.51,0,0,0-.375-.028,2.994,2.994,0,0,0-2.163.976,2.126,2.126,0,0,0-.576,1.654,4.427,4.427,0,0,0,1.148,2.135,76.39,76.39,0,0,1,6.946,10.27,11.384,11.384,0,0,1,1.826,5.29,12.187,12.187,0,0,1-.681,3.52c-.064.215-.136.458-.2.692-.166.584-.318,1.209-.478,1.967-.684.018-1.371.027-2.043.027a94.186,94.186,0,0,1-16.063-1.472,56.186,56.186,0,0,0,2.918-8.035,23.038,23.038,0,0,0,.447-11.09,1.74,1.74,0,0,0-.339-.789,1.8,1.8,0,0,0-1.008-.453l-2.409-.531a81.393,81.393,0,0,1-4.259,19.981,143.616,143.616,0,0,1-20.325-6.09c.315-.556.644-1.109.961-1.644a38.853,38.853,0,0,0,2.073-3.8,18.78,18.78,0,0,0,1.633-6.54c.068-1.049-.058-2.41-1.047-2.94a1.639,1.639,0,0,0-.783-.189,2.47,2.47,0,0,0-1.541.6,6.485,6.485,0,0,0-1.411,2.022l-.012.024a64.261,64.261,0,0,1-6.279,9.9,199.571,199.571,0,0,1-18.615-9.109,13.8,13.8,0,0,0-5.189-1.247,5.462,5.462,0,0,0-3.24.937,5.167,5.167,0,0,0-1.664,2.061,7.979,7.979,0,0,0-.7,3l0-.005a11.157,11.157,0,0,1,1.164-7.226,19.4,19.4,0,0,1,5.67-6.611,43.716,43.716,0,0,1,12.813-6.449c1.806-.608,5.563-1.519,10.306-2.5a55.725,55.725,0,0,1,9.33,2.1c.917.3,1.847.625,2.746.943l.028.01a30.93,30.93,0,0,0,9.06,2.218,2.268,2.268,0,0,0-.974-2.315,7.755,7.755,0,0,0-2.665-1.324c-3.721-1.084-7.633-2.023-11.627-2.792,4.775-.89,9.745-1.712,14.37-2.379a64.126,64.126,0,0,1,10.843,3.421l.674.285.073.031a22.01,22.01,0,0,0,4.479,1.537,9.085,9.085,0,0,0,1.669.159,6.232,6.232,0,0,0,3.66-1.063,48.773,48.773,0,0,0-7.612-6c3.791-.329,7.135-.494,9.939-.494,6.692,0,10.429.929,11.109,2.76a3.974,3.974,0,0,1-.268,3.967,8.568,8.568,0,0,1-1.4,1.861.13.13,0,0,1,.027,0,61.268,61.268,0,0,1,7.407-.438,43.707,43.707,0,0,1,10.686,1.168c4.061,1.036,7.035,2.745,8.841,5.08,2.158,2.791,2.655,6.5,1.478,11.033a19.427,19.427,0,0,1-4.814,8.527,41.21,41.21,0,0,0-3.106-7.688,12.908,12.908,0,0,0-3.86-4.839,15.117,15.117,0,0,0-4.5-1.809l-11.127-3.139a6,6,0,0,0-1.6-.254,1.762,1.762,0,0,0-1.668.782c-.6,1.056.391,2.315,1.427,3.072a23.2,23.2,0,0,0,6.917,3.465c.771.236,1.57.437,2.343.631a21.006,21.006,0,0,1,5.068,1.742,14.046,14.046,0,0,1,6.084,7.756,24.5,24.5,0,0,1,.857,3.053,32.6,32.6,0,0,1-9.138,4.579c8.539,18.878,16.811,38.157,24.589,57.3,1.438,3.539,2.968,7.343,4.406,11.172q-.012-2.12-.021-4.239l-.011-2.4,0-.75,0-.779,0-.749q-.018-3.712-.035-7.423l-.013-2.724q-.013-2.737-.026-5.475v-.018c-.064-13.474-.13-27.406,1.381-41.035.427-3.853.989-7.746,1.669-11.572a33.488,33.488,0,0,0-3.642,2.363,52.665,52.665,0,0,1-.6-5.66,100.2,100.2,0,0,1,.908-21.931c.971-5.539,2.586-9.907,4.8-12.984-.2-.466-.437-1-.736-1.681-.505-1.148-1-2.275-1.5-3.452a3.752,3.752,0,0,1-1.962,2.272c-1.349.787-4.072,1.2-7.873,1.2a92.592,92.592,0,0,1-15.836-1.635,32.836,32.836,0,0,1,1.616-4.479l0-.005c.474-1.137.964-2.313,1.339-3.5a3.067,3.067,0,0,0,.143-1.948,2.364,2.364,0,0,0-1.045-1.155,4.514,4.514,0,0,0-2.327-.605,6.132,6.132,0,0,0-2.027.359,12.379,12.379,0,0,0-3.775,2.413,3.486,3.486,0,0,0-1.122,1.39,3.6,3.6,0,0,0,.293,2.388c.4,1.085.807,2.184,1.206,3.247l.026.07.266.711a108.879,108.879,0,0,1-17.859-5.671c.027-4,.989-6.9,3.119-9.4,2.51-2.951,6.777-5.366,13.042-7.382.391-.126.562-.636.59-1.035.045-.639-.585-1.131-1.122-1.43a11.707,11.707,0,0,0-5.686-1.381,15.085,15.085,0,0,0-4.227.615,24.916,24.916,0,0,0-8.735,4.965,35.062,35.062,0,0,0-8.06,9.139c-5.573-3.8-9.209-8.028-10.809-12.561-.021-.06-.041-.115-.062-.172l-.011-.031-.025-.067a16.653,16.653,0,0,1,3.552-1.888c.4-.146.884-.328,1.446-.539,4.347-1.634,12.438-4.675,16.854-4.675a5.335,5.335,0,0,1,1.776.249,4.5,4.5,0,0,0-1.394-2.682,7.464,7.464,0,0,0-5.355-1.769,21.2,21.2,0,0,0-5.663.9,46.125,46.125,0,0,0-12.92,5.9c-5.368-13.308-9.344-14.744-10.8-14.744a1.458,1.458,0,0,0-.56.092s0,0,.01-.008a45.5,45.5,0,0,1,9.378-3.678,87.254,87.254,0,0,1,11.952-2.534,120.1,120.1,0,0,1,16.983-1.152c2.2,0,4.462.053,6.732.159a5.5,5.5,0,0,0-.856,1.246c-.4.827-.966,3.746-.358,5.26a1.294,1.294,0,0,0,.717.794,1.113,1.113,0,0,0,.384.074c1.281,0,1.758-2.606,2.013-4.006.035-.191.068-.371.1-.508l.045-.213a5.09,5.09,0,0,1,.921-2.369.369.369,0,0,1,.063-.055.456.456,0,0,0,.058-.047c3.9.258,7.9.664,11.872,1.208l.188.028.027,0,.161.024a11.076,11.076,0,0,0-1.258,2.905,18.963,18.963,0,0,0-.45,5.382v.006c.006.523.013,1.063.006,1.6a6.779,6.779,0,0,1-1.083,3.613c-.211.394-.451.839-.694,1.364,1.163-2.053,3.5-2.955,5.763-3.828.262-.1.587-.226.888-.347a1.22,1.22,0,0,0,.706-.514,1.229,1.229,0,0,0,.076-.584,23.645,23.645,0,0,1,.85-8.124,1.6,1.6,0,0,1,.381-.662c12.943,2.237,24.364,5.924,33.028,10.663,7.806,4.27,13.01,9.223,14.655,13.949a8.231,8.231,0,0,1-1.652,8.626,16.053,16.053,0,0,1-5.633,4.214c-3.163,1.419-7.176,2.109-12.27,2.109a71.4,71.4,0,0,1-7.254-.4,55.5,55.5,0,0,1,2.878,7.049c.316.938.626,1.922.923,2.926a11.457,11.457,0,0,1,5.971-1.606,14.586,14.586,0,0,1,2.216.175c.308.047.634.093.949.136,3.9.54,9.782,1.357,11.571,8.714v-.019a84.757,84.757,0,0,1,5.469-17.582,40.56,40.56,0,0,1,7.833-12.1c3.636-3.65,7.713-5.5,12.117-5.5.23,0,.466.005.7.015,6.152.267,12.683,4.081,17.919,10.462,4.3,5.237,9.781,14.729,11.51,30.217a31,31,0,0,0-13.014-2.874,28.867,28.867,0,0,0-11.67,2.423,5.832,5.832,0,0,0-2.706,1.993,2.323,2.323,0,0,0,.38,3.062,1.844,1.844,0,0,0,1.071.319,6.212,6.212,0,0,0,2.425-.766c.23-.107.468-.218.7-.315a7.737,7.737,0,0,1,3.042-.6c3.036,0,6.13,1.516,8.791,2.936l3.082,1.644,5.705,3.044c1.051.562,1.91,1.049,2.7,1.535a127.575,127.575,0,0,1-3.513,25.988,28.752,28.752,0,0,0-6.949-7.165,17.456,17.456,0,0,0-9.046-3.329c-.195-.011-.4-.017-.6-.017a8.663,8.663,0,0,0-3.478.673,4.571,4.571,0,0,0-2.426,2.263,4.482,4.482,0,0,0-.161,3.122,6.7,6.7,0,0,0,1.652,2.8,16.933,16.933,0,0,0,5.043,3.14l.106.05.371.175a46.756,46.756,0,0,1,12.767,8.383A223.66,223.66,0,0,1,2551.8-2066.2a13.018,13.018,0,0,0-6.576-4.128,24.967,24.967,0,0,0-7.1-.94,29.4,29.4,0,0,0-4.451.32,67.785,67.785,0,0,1-9.541-2.344,49.617,49.617,0,0,1-2.6-12.284,48.473,48.473,0,0,1,.59-12.539,97.775,97.775,0,0,1,4.715-15.76l0,0a30.036,30.036,0,0,0-10.32,11.6,30.039,30.039,0,0,0-3.306,15.172,50.673,50.673,0,0,0,1.9,10.36,63.078,63.078,0,0,1-15.887-10.154C2498.843-2068.941,2497.97-2049.7,2496.479-2026.357Zm-6.489-71.6h0c-.385,2.613-.73,5.238-1.025,7.8a217.722,217.722,0,0,0-.676,45.213c.449,4.777,1.035,9.2,1.792,13.527.536-7.3,1.154-14.63,1.834-21.8.312-3.288.646-6.635.969-9.871l.022-.222v-.021c.894-8.956,1.818-18.217,2.405-27.448a45.993,45.993,0,0,1-5.323-7.182Zm5.682-21.743h0c-.6.18-1.17.364-1.7.547-1.137,5.01-2.14,10.029-2.978,14.918a34.561,34.561,0,0,1,4.945-6.213c-.017-2.8-.089-5.563-.213-8.222-.016-.344-.033-.689-.052-1.031Zm21.542-3.259c-.653,0-1.308.056-1.977.118a121.589,121.589,0,0,0-16.074,2.219c.1,2.254.168,4.605.214,7.189a30.3,30.3,0,0,1,10.081-5.044c.823-.231,1.68-.437,2.508-.635l.016,0c2.856-.685,5.809-1.394,8.075-3.265A6.1,6.1,0,0,0,2517.213-2122.962Zm-41.4-47.717h0c.064.031,6.543,3.349,9.633,6.862a36.032,36.032,0,0,1-1.589-5.358C2481.346-2169.569,2478.639-2170.075,2475.811-2170.679Zm.744,144.322h-2.916c-.21-.557-.43-1.13-.656-1.7a101.872,101.872,0,0,0-8.023-16.22c-1.186-1.917-2.45-3.793-3.673-5.606l0-.008c-1.424-2.113-2.9-4.3-4.5-6.372a22.8,22.8,0,0,1-3.661,2.019,15.318,15.318,0,0,1-.432-2.493c-.01-.114-.019-.229-.027-.345l0-.054a5.042,5.042,0,0,0-.7-2.688c-.88-1.191-2.553-1.338-4.052-1.382-.422-.012-.745-.017-1.047-.017-1.806,0-3.839.18-5.232,1.517a.731.731,0,0,0-.284.522.711.711,0,0,0,.234.427,5.853,5.853,0,0,0,2.582,1.3,8.281,8.281,0,0,1,2.047.845,8.005,8.005,0,0,1,2.383,3l.2.357.212.38.113.2c-2.591.9-5.445,1.743-8.466,2.63l-.008,0c-1.467.431-2.984.876-4.523,1.345a6.244,6.244,0,0,0-1.616-3.52,4.281,4.281,0,0,0-2.986-1.178,4.127,4.127,0,0,0-1.964.484l.01,0a10.853,10.853,0,0,1,3.915,3.249,7.02,7.02,0,0,1,.7,1.563,72.579,72.579,0,0,0-14.232,5.878,29.878,29.878,0,0,0-10.908,9.913,34.169,34.169,0,0,1-1.472-14.322,50.662,50.662,0,0,1,3.931-15.091,51.917,51.917,0,0,1,8.315-13.391,36.963,36.963,0,0,1,11.678-9.221,15.408,15.408,0,0,1,6.463-1.819,5.544,5.544,0,0,1,4.523,2.031,9.514,9.514,0,0,1,1.782,4.225,22.918,22.918,0,0,1,.349,4.911,36.426,36.426,0,0,1-.617,5.763c5.992-1.834,10.006-2.895,12.786-2.895a4.438,4.438,0,0,1,3.687,1.354c1.211,1.5,1.271,4.376.194,9.313a7.519,7.519,0,0,1-2.182,3.8l.069.062.106.1a21.293,21.293,0,0,1,3.353,4.393,273.924,273.924,0,0,1,14.56,26.74Z"
            transform="translate(-2082.017 2278.358)" fill="#bfe2e2" />
        <path
            d="M2504.332-2010.143l-.815-.154v-9.3l.044-.1a109.433,109.433,0,0,1,8.551-15.579c.252-.383.979-1.386,1.887-2.608a18.952,18.952,0,0,1-4.181-6.394,18.06,18.06,0,0,1-1.3-7.766l.018-.286.257-.129a8.461,8.461,0,0,1,3.8-1.025,5.968,5.968,0,0,1,1.288.14,10.89,10.89,0,0,1,1.531.5c.261.1.556.214.841.307a8.208,8.208,0,0,0,2.531.4h.024a2.951,2.951,0,0,0,1.482-.3,1.15,1.15,0,0,0,.626-1c-.07-.785-1.281-1.133-2-1.27a24.1,24.1,0,0,0-4.475-.528,11.836,11.836,0,0,0-1.521.094,8.373,8.373,0,0,0-3.282,1.125l-1.031.633.283-1.176a12.247,12.247,0,0,1,5.958-7.981,19.488,19.488,0,0,1,9.562-2.847,12.724,12.724,0,0,1,6,1.45,10.02,10.02,0,0,1,1.853,1.256l1.589-.595.154.04a51.7,51.7,0,0,1,10.34,4.2,26.41,26.41,0,0,1,7.119,5.423,11.526,11.526,0,0,1,3.205,7.923,9.785,9.785,0,0,1-3.939,7.55,38.178,38.178,0,0,1-7.81,4.577,32.439,32.439,0,0,0-6.159,3.517c-1.649,1.361-2.254,2.7-1.96,4.335.448,2.5.49,2.787.253,3.073a.534.534,0,0,1-.414.2h0c-.372,0-.545-.272-1.119-1.172l0-.007a28.825,28.825,0,0,0-4.089-5.224,18.893,18.893,0,0,0-8.416-4.928,15.089,15.089,0,0,1-3.937-1.69c-1.9,2.885-3.754,6.034-5.512,9.365a155.157,155.157,0,0,0-7.08,15.564Zm.185-9.239v6.094c1.976-4.816,4-9.178,6.163-13.271a112.837,112.837,0,0,1,5.834-9.859l.274-.412.415.271a14.148,14.148,0,0,0,4.069,1.827,19.88,19.88,0,0,1,8.859,5.182,28.319,28.319,0,0,1,3.819,4.759c-.042-.237-.086-.485-.132-.736a4.7,4.7,0,0,1,.313-2.823,6.848,6.848,0,0,1,2-2.459,33.059,33.059,0,0,1,6.359-3.645,37.461,37.461,0,0,0,7.606-4.444,8.84,8.84,0,0,0,3.581-6.8,10.559,10.559,0,0,0-2.955-7.243,25.428,25.428,0,0,0-6.851-5.209,51.112,51.112,0,0,0-9.962-4.068l-1.877.7-.228-.228a8.2,8.2,0,0,0-1.857-1.3,11.722,11.722,0,0,0-5.53-1.332,18.513,18.513,0,0,0-9.067,2.717,11.19,11.19,0,0,0-5.165,6.251,9.738,9.738,0,0,1,2.613-.713,12.87,12.87,0,0,1,1.649-.1,24.969,24.969,0,0,1,4.663.546c2.2.422,2.739,1.41,2.805,2.164a2.141,2.141,0,0,1-1.127,1.954,3.881,3.881,0,0,1-1.977.431h-.024a9.205,9.205,0,0,1-2.839-.45c-.311-.1-.619-.22-.891-.324a10.126,10.126,0,0,0-1.389-.458,4.955,4.955,0,0,0-1.071-.116,7.239,7.239,0,0,0-3.088.793,17.138,17.138,0,0,0,1.243,7.043,17.866,17.866,0,0,0,4.258,6.347l.323.306-.266.356c-1.019,1.365-1.85,2.509-2.116,2.913A108.42,108.42,0,0,0,2504.517-2019.381Zm-20.069-6.476-.007-1.563a176.334,176.334,0,0,0-8.721-29.524c-3.044-7.573-6.819-15.023-10.469-22.227l-.01-.02c-3.087-6.091-6.28-12.389-9.022-18.752-1.249-2.9-2.363-5.728-3.314-8.417-1.048.262-2.138.5-3.247.7l-.646.117.058-.654a21.193,21.193,0,0,0-.515-6.881,20.367,20.367,0,0,0-2.709-6.333,42.058,42.058,0,0,0-4.034-5l-.005-.006-3.96-4.424c-1.012-1.131-2.024-2.162-3.287-2.354a2.436,2.436,0,0,0-2.09.787,1.633,1.633,0,0,0-.451,1.265,4.074,4.074,0,0,0,1.041,1.876,76.875,76.875,0,0,1,6.991,10.338,11.8,11.8,0,0,1,1.89,5.532,12.562,12.562,0,0,1-.7,3.666v.005c-.063.212-.135.452-.2.682-.163.574-.312,1.188-.469,1.934l-.082.386-.394.01c-.682.018-1.374.028-2.056.028a94.7,94.7,0,0,1-16.149-1.479l-.626-.109.253-.583a55.815,55.815,0,0,0,2.893-7.963,22.551,22.551,0,0,0,.443-10.849,1.36,1.36,0,0,0-.224-.569,1.455,1.455,0,0,0-.743-.3l-1.854-.409a81.923,81.923,0,0,1-4.235,19.535l-.146.417-.432-.093a144.141,144.141,0,0,1-20.4-6.111l-.545-.206.287-.508c.309-.546.63-1.086.94-1.609l.026-.044a38.523,38.523,0,0,0,2.048-3.755,18.286,18.286,0,0,0,1.589-6.366c.048-.739.01-2.041-.784-2.467a1.144,1.144,0,0,0-.546-.13,1.985,1.985,0,0,0-1.217.482,6.122,6.122,0,0,0-1.293,1.874l-.013.024a64.751,64.751,0,0,1-6.329,9.972l-.236.3-.352-.149a200.059,200.059,0,0,1-18.638-9.119,13.287,13.287,0,0,0-4.97-1.2,4.976,4.976,0,0,0-2.95.844,4.675,4.675,0,0,0-1.5,1.866,7.54,7.54,0,0,0-.653,2.788l-.01,1.735-.96-1.545-.019-.077a11.682,11.682,0,0,1,1.2-7.567,19.89,19.89,0,0,1,5.813-6.785,44.206,44.206,0,0,1,12.96-6.528c1.826-.614,5.6-1.531,10.364-2.514l.085-.018.086.012a56.218,56.218,0,0,1,9.413,2.124c.919.3,1.847.625,2.745.942l.045.016a32.3,32.3,0,0,0,8.442,2.164,2,2,0,0,0-.846-1.407,7.256,7.256,0,0,0-2.485-1.229c-3.707-1.08-7.6-2.015-11.582-2.781l0-.982c4.764-.888,9.74-1.711,14.391-2.382l.091-.013.089.02a64.625,64.625,0,0,1,10.928,3.448l.676.286.072.031a21.651,21.651,0,0,0,4.377,1.506,8.574,8.574,0,0,0,1.577.15,6.077,6.077,0,0,0,2.831-.639,45.306,45.306,0,0,0-7.038-5.492l-1.343-.794,1.554-.135c3.8-.329,7.156-.5,9.982-.5a34.717,34.717,0,0,1,7.93.708c2.029.5,3.219,1.271,3.636,2.345a4.458,4.458,0,0,1-.286,4.415,8.635,8.635,0,0,1-.632.981c1.371-.135,3.6-.3,6.226-.3a44.2,44.2,0,0,1,10.809,1.184c4.172,1.065,7.238,2.834,9.113,5.258,2.258,2.92,2.785,6.777,1.566,11.464a19.923,19.923,0,0,1-4.935,8.745l-.6.633-.243-.837a40.73,40.73,0,0,0-3.068-7.594,12.464,12.464,0,0,0-3.7-4.659,14.744,14.744,0,0,0-4.354-1.742l-11.127-3.139a5.519,5.519,0,0,0-1.46-.235,1.291,1.291,0,0,0-1.234.53c-.471.823.588,1.908,1.288,2.42a22.708,22.708,0,0,0,6.768,3.391c.755.231,1.544.43,2.308.622l.011,0a21.384,21.384,0,0,1,5.187,1.789,14.54,14.54,0,0,1,6.314,8.025,24.96,24.96,0,0,1,.875,3.115l.069.317-.261.192a32.737,32.737,0,0,1-8.751,4.473c8.455,18.711,16.653,37.824,24.369,56.815,1.117,2.748,2.288,5.655,3.428,8.608q0-.419,0-.839l-.025-5.326q-.018-3.712-.035-7.424l-.015-3.222q-.012-2.488-.024-4.977v-.02c-.064-13.486-.13-27.433,1.384-41.09.389-3.507.889-7.049,1.489-10.544-.926.559-1.82,1.159-2.666,1.791l-.661.494-.132-.814a53.225,53.225,0,0,1-.6-5.714,100.686,100.686,0,0,1,.915-22.043c.96-5.476,2.548-9.833,4.722-12.957-.181-.416-.382-.875-.623-1.421-.357-.811-.708-1.611-1.059-2.424a5.231,5.231,0,0,1-1.692,1.474c-.994.58-3.21,1.271-8.125,1.271a93.113,93.113,0,0,1-15.926-1.643l-.526-.1.131-.519a33.206,33.206,0,0,1,1.638-4.547l0-.01c.469-1.125.954-2.289,1.322-3.455a2.658,2.658,0,0,0,.15-1.626,1.879,1.879,0,0,0-.832-.9,4.015,4.015,0,0,0-2.07-.534,5.625,5.625,0,0,0-1.86.331,11.932,11.932,0,0,0-3.617,2.321,3.094,3.094,0,0,0-.977,1.177,3.232,3.232,0,0,0,.291,2.051c.4,1.1.829,2.241,1.2,3.243l.292.782.326.87-.906-.208a109.381,109.381,0,0,1-17.943-5.7l-.307-.13,0-.333c.028-4.126,1.027-7.125,3.238-9.724,2.573-3.024,6.913-5.489,13.27-7.534.1-.031.222-.283.244-.594.029-.412-.6-.808-.867-.959a11.207,11.207,0,0,0-5.442-1.318,14.589,14.589,0,0,0-4.087.6,24.445,24.445,0,0,0-8.558,4.873,34.558,34.558,0,0,0-7.946,9l-.271.461-.442-.3c-5.662-3.862-9.362-8.171-11-12.807-.021-.059-.04-.111-.059-.164l-.171-.468.324-.219a17.159,17.159,0,0,1,3.66-1.943c.367-.134.805-.3,1.313-.49l.129-.048c4.377-1.645,12.523-4.707,17.03-4.707a7.516,7.516,0,0,1,1.113.076,4.294,4.294,0,0,0-1.078-1.648,6.991,6.991,0,0,0-5.008-1.63,20.7,20.7,0,0,0-5.527.884,45.643,45.643,0,0,0-12.786,5.835l-.508.328-.226-.561c-5.4-13.391-9.281-14.431-10.341-14.431a1.091,1.091,0,0,0-.36.05l-.552.247-.136-.594a.5.5,0,0,1,.234-.545l.013-.008a46.114,46.114,0,0,1,9.488-3.724,87.73,87.73,0,0,1,12.021-2.549,120.585,120.585,0,0,1,17.054-1.157c2.2,0,4.475.053,6.755.159l1.047.049-.7.783a5.01,5.01,0,0,0-.78,1.133,8.564,8.564,0,0,0-.344,4.855.828.828,0,0,0,.427.511.616.616,0,0,0,.211.043c.425,0,.761-.723.923-1.154a14.81,14.81,0,0,0,.6-2.441c.036-.2.069-.379.1-.522l.044-.211a5.549,5.549,0,0,1,1.029-2.59.847.847,0,0,1,.145-.132l.005,0,.008-.006.149-.151.229.015c3.913.259,7.919.666,11.907,1.211.066.009.132.019.2.03l.025,0,.152.022.762.1-.4.655a10.586,10.586,0,0,0-1.2,2.774,18.585,18.585,0,0,0-.432,5.244v.008c.006.527.013,1.069.006,1.614a6.518,6.518,0,0,1-.445,2.417,20.632,20.632,0,0,1,3.751-1.74c.274-.105.59-.228.884-.345.135-.054.386-.154.441-.268a.949.949,0,0,0,.026-.35,24.094,24.094,0,0,1,.875-8.3,2.077,2.077,0,0,1,.509-.864l.182-.176.249.043c13,2.246,24.471,5.951,33.182,10.717,7.915,4.329,13.2,9.38,14.887,14.223a8.707,8.707,0,0,1-1.751,9.124,16.52,16.52,0,0,1-5.8,4.337c-3.228,1.448-7.309,2.152-12.474,2.152-1.976,0-4.129-.107-6.413-.319a58.18,58.18,0,0,1,2.511,6.3c.255.758.506,1.544.749,2.343a12.017,12.017,0,0,1,5.671-1.364,15.072,15.072,0,0,1,2.292.181c.3.046.615.09.941.135a19.228,19.228,0,0,1,6.746,1.857,9.952,9.952,0,0,1,3.137,2.657,11.062,11.062,0,0,1,1.514,2.7,85.139,85.139,0,0,1,5.119-15.812,41.051,41.051,0,0,1,7.936-12.25c3.734-3.747,7.929-5.647,12.471-5.647.237,0,.479.005.72.016,6.293.273,12.958,4.153,18.284,10.645,4.34,5.289,9.878,14.87,11.62,30.478l.1.885-.807-.376a30.493,30.493,0,0,0-12.8-2.827,28.361,28.361,0,0,0-11.467,2.38,5.405,5.405,0,0,0-2.487,1.8,1.837,1.837,0,0,0,.238,2.382,1.341,1.341,0,0,0,.79.232,5.9,5.9,0,0,0,2.213-.719l.013-.006c.23-.107.467-.217.7-.317a8.236,8.236,0,0,1,3.238-.638c3.151,0,6.312,1.546,9.027,2.995l3.082,1.644,5.465,2.916.24.128c1.061.566,1.927,1.059,2.729,1.55l.245.15-.007.288a128.089,128.089,0,0,1-3.526,26.091l-.257,1.095-.64-.925a28.256,28.256,0,0,0-6.825-7.04,16.962,16.962,0,0,0-8.788-3.239c-.187-.011-.378-.016-.567-.016a8.164,8.164,0,0,0-3.275.63,4.087,4.087,0,0,0-2.174,2.013,3.991,3.991,0,0,0-.135,2.777,6.189,6.189,0,0,0,1.528,2.589,16.564,16.564,0,0,0,4.9,3.038l.164.077.314.148a47.232,47.232,0,0,1,12.9,8.474l.22.212-.088.292a224.177,224.177,0,0,1-12.073,30.926l-.339.718-.5-.616a12.53,12.53,0,0,0-6.331-3.964,24.465,24.465,0,0,0-6.962-.92,29.107,29.107,0,0,0-4.367.313l-.077.013-.077-.011a68.675,68.675,0,0,1-9.621-2.363l-.239-.075-.083-.237a50.12,50.12,0,0,1-2.625-12.408,48.97,48.97,0,0,1,.6-12.668,89.756,89.756,0,0,1,4.209-14.378,29.747,29.747,0,0,0-8.874,10.533,29.537,29.537,0,0,0-3.253,14.919,50.236,50.236,0,0,0,1.888,10.257l.275,1.024-.965-.439a64.258,64.258,0,0,1-15.2-9.529c-.392,17.646-1.26,36.589-2.723,59.491l-.03.468Zm-30.9-81.7.152.435c.976,2.8,2.133,5.75,3.44,8.783,2.729,6.335,5.915,12.619,9,18.7l.01.02c3.66,7.224,7.445,14.693,10.505,22.307a177.389,177.389,0,0,1,8.782,29.741l.01.05,0,.669h10.566c1.473-23.14,2.336-42.233,2.714-60.049l.023-1.084.81.721a61.974,61.974,0,0,0,14.8,9.625,47.81,47.81,0,0,1-1.648-9.431,30.539,30.539,0,0,1,3.36-15.426,30.538,30.538,0,0,1,10.493-11.8l1.227-.8-.486,1.392a97.363,97.363,0,0,0-4.693,15.678,47.96,47.96,0,0,0-.584,12.409,49.131,49.131,0,0,0,2.49,11.924,68.027,68.027,0,0,0,9.149,2.24,30.7,30.7,0,0,1,4.453-.313,25.47,25.47,0,0,1,7.248.961,13.873,13.873,0,0,1,6.307,3.7,222.685,222.685,0,0,0,11.605-29.8,46.714,46.714,0,0,0-12.413-8.08l-.312-.147-.164-.077a17.309,17.309,0,0,1-5.187-3.242,7.2,7.2,0,0,1-1.776-3.017,4.972,4.972,0,0,1,.188-3.466,5.056,5.056,0,0,1,2.678-2.512,9.165,9.165,0,0,1,3.68-.716c.208,0,.418.006.625.018a17.949,17.949,0,0,1,9.3,3.418,28.675,28.675,0,0,1,6.424,6.385,126.4,126.4,0,0,0,3.244-24.522c-.716-.432-1.5-.872-2.431-1.371l-.24-.128-5.465-2.916-3.082-1.644c-2.608-1.392-5.636-2.877-8.556-2.877a7.241,7.241,0,0,0-2.847.558c-.218.093-.448.2-.671.3l-.012.005a6.549,6.549,0,0,1-2.635.813,2.329,2.329,0,0,1-1.352-.405,2.8,2.8,0,0,1-.522-3.742,6.258,6.258,0,0,1,2.925-2.183,29.371,29.371,0,0,1,11.874-2.467,31.546,31.546,0,0,1,12.415,2.557c-1.819-14.851-7.125-24-11.3-29.083-5.146-6.272-11.545-10.019-17.554-10.28-.227-.01-.455-.015-.677-.015-4.266,0-8.224,1.8-11.763,5.353a40.073,40.073,0,0,0-7.731,11.952,84.211,84.211,0,0,0-5.433,17.468l-.123-.022-.856.07a9.594,9.594,0,0,0-4.749-6.593,18.425,18.425,0,0,0-6.4-1.744c-.33-.046-.651-.091-.956-.137a14.09,14.09,0,0,0-2.14-.169,10.963,10.963,0,0,0-5.715,1.535l-.554.332-.183-.619c-.293-.994-.6-1.972-.917-2.907a54.957,54.957,0,0,0-2.852-6.985l-.407-.814.906.094a70.93,70.93,0,0,0,7.2.4c5.021,0,8.968-.675,12.065-2.065a15.582,15.582,0,0,0,5.465-4.092,7.756,7.756,0,0,0,1.552-8.128c-1.6-4.608-6.726-9.465-14.422-13.674-8.55-4.677-19.809-8.325-32.576-10.557a1.683,1.683,0,0,0-.118.277,23.21,23.21,0,0,0-.824,7.952,1.666,1.666,0,0,1-.127.818,1.653,1.653,0,0,1-.969.758c-.3.119-.618.243-.894.349-2.179.841-4.433,1.71-5.508,3.608l-.889-.457c.251-.541.493-.992.707-1.39a6.3,6.3,0,0,0,1.023-3.383c.007-.533,0-1.07-.006-1.589v-.011a19.328,19.328,0,0,1,.468-5.517,11.568,11.568,0,0,1,.941-2.383c-3.773-.508-7.558-.892-11.261-1.141a4.969,4.969,0,0,0-.741,2.06l-.045.213c-.028.131-.06.307-.094.494-.3,1.653-.807,4.416-2.505,4.416a1.608,1.608,0,0,1-.557-.1,1.768,1.768,0,0,1-1.008-1.077c-.67-1.668-.07-4.753.372-5.665a5.3,5.3,0,0,1,.323-.57c-1.941-.077-3.871-.117-5.75-.117a119.6,119.6,0,0,0-16.912,1.147,86.8,86.8,0,0,0-11.883,2.519,53.624,53.624,0,0,0-7.743,2.854,8.277,8.277,0,0,1,3.081,2.3c2.2,2.41,4.467,6.431,6.736,11.955a46.321,46.321,0,0,1,12.547-5.633,21.7,21.7,0,0,1,5.8-.921,7.937,7.937,0,0,1,5.7,1.909,5.018,5.018,0,0,1,1.546,3l.071.782-.739-.267a4.853,4.853,0,0,0-1.606-.219c-4.325,0-12.36,3.02-16.677,4.643l-.13.049c-.51.191-.95.357-1.321.492a15.571,15.571,0,0,0-3.12,1.618c1.537,4.275,4.95,8.282,10.149,11.917a36.011,36.011,0,0,1,7.9-8.812,25.4,25.4,0,0,1,8.911-5.058,15.59,15.59,0,0,1,4.367-.635,12.205,12.205,0,0,1,5.929,1.445c1.2.671,1.413,1.4,1.378,1.9a1.587,1.587,0,0,1-.935,1.476c-6.175,1.987-10.366,4.352-12.815,7.23a13.051,13.051,0,0,0-2.995,8.75,108.025,108.025,0,0,0,16.559,5.3c-.368-.981-.781-2.083-1.173-3.158a4.052,4.052,0,0,1-.3-2.723,3.9,3.9,0,0,1,1.269-1.606,12.828,12.828,0,0,1,3.934-2.5,6.641,6.641,0,0,1,2.195-.388,5.013,5.013,0,0,1,2.584.677,2.852,2.852,0,0,1,1.258,1.414,3.494,3.494,0,0,1-.137,2.268c-.382,1.208-.876,2.394-1.354,3.54l0,.008a37.082,37.082,0,0,0-1.451,3.889,91.071,91.071,0,0,0,15.211,1.531c3.66,0,6.367-.4,7.621-1.135a3.286,3.286,0,0,0,1.727-1.954l.348-1.5.6,1.416c.5,1.169.99,2.3,1.5,3.446.292.663.526,1.2.737,1.683l.113.26-.166.231c-2.17,3.015-3.756,7.314-4.714,12.779a99.725,99.725,0,0,0-.9,21.819c.084,1.626.241,3.236.467,4.8a34.281,34.281,0,0,1,3.028-1.912l.922-.517-.185,1.041c-.679,3.817-1.239,7.7-1.665,11.54-1.507,13.6-1.441,27.517-1.377,40.977v.021q.012,2.485.023,4.975l.015,3.222q.017,3.712.035,7.423l.025,5.326q.008,1.8.018,3.593l-.968.179c-1.434-3.82-2.963-7.621-4.4-11.16-7.78-19.15-16.051-38.423-24.581-57.283l-.229-.507.528-.174a32.375,32.375,0,0,0,8.735-4.316,23.367,23.367,0,0,0-.768-2.673,13.551,13.551,0,0,0-5.854-7.487,20.648,20.648,0,0,0-4.948-1.7l-.011,0c-.775-.195-1.577-.4-2.357-.635a23.7,23.7,0,0,1-7.065-3.54c-1.2-.879-2.333-2.381-1.565-3.724a2.217,2.217,0,0,1,2.1-1.033,6.492,6.492,0,0,1,1.732.272l11.127,3.139a15.491,15.491,0,0,1,4.644,1.877,13.355,13.355,0,0,1,4.021,5.02,41.69,41.69,0,0,1,2.887,6.933,18.755,18.755,0,0,0,4.107-7.664c1.136-4.372.669-7.939-1.389-10.6-1.735-2.244-4.618-3.893-8.569-4.9A43.216,43.216,0,0,0,2452-2140.4a60.725,60.725,0,0,0-7.343.434h-.008a.475.475,0,0,0,.175-.064l-.6-.788a8.015,8.015,0,0,0,1.31-1.741,3.5,3.5,0,0,0,.266-3.489l-.016-.031-.012-.032c-.273-.737-1.294-1.344-2.952-1.756a33.784,33.784,0,0,0-7.688-.678c-2.424,0-5.246.124-8.408.37a57.457,57.457,0,0,1,6.4,5.238l.475.429-.5.361a6.728,6.728,0,0,1-3.951,1.157,9.591,9.591,0,0,1-1.761-.167,22.372,22.372,0,0,1-4.583-1.568l-.072-.03-.672-.284a63.593,63.593,0,0,0-10.669-3.374c-3.785.547-7.784,1.195-11.706,1.9,3.123.664,6.181,1.43,9.122,2.287a8.258,8.258,0,0,1,2.844,1.42,2.727,2.727,0,0,1,1.141,2.812l-.093.4-.413-.015a31.311,31.311,0,0,1-9.207-2.246l-.043-.016c-.891-.315-1.812-.642-2.718-.933a55.141,55.141,0,0,0-9.161-2.073c-4.683.969-8.384,1.867-10.162,2.465a43.223,43.223,0,0,0-12.667,6.37,18.9,18.9,0,0,0-5.528,6.437,12.586,12.586,0,0,0-1.115,3.324,5.491,5.491,0,0,1,1.58-1.78,5.949,5.949,0,0,1,3.531-1.03,14.284,14.284,0,0,1,5.383,1.286l.025.01.024.013a199.377,199.377,0,0,0,18.215,8.936,64.533,64.533,0,0,0,5.995-9.518l.012-.023a6.858,6.858,0,0,1,1.531-2.171,2.981,2.981,0,0,1,1.864-.72,2.135,2.135,0,0,1,1.019.248c.968.52,1.421,1.7,1.31,3.414a19.279,19.279,0,0,1-1.676,6.713,39.182,39.182,0,0,1-2.1,3.854l-.026.044c-.211.355-.426.718-.639,1.083a143.075,143.075,0,0,0,19.271,5.768,80.874,80.874,0,0,0,4.088-19.439l.048-.569.558.123,2.41.531a2.231,2.231,0,0,1,1.271.605,2.19,2.19,0,0,1,.456,1.011,23.528,23.528,0,0,1-.45,11.33,54.171,54.171,0,0,1-2.691,7.523,93.086,93.086,0,0,0,15.353,1.357c.543,0,1.092-.006,1.637-.018.133-.6.262-1.12.4-1.614.067-.235.139-.479.2-.693v0a11.814,11.814,0,0,0,.66-3.374,10.968,10.968,0,0,0-1.762-5.048,75.882,75.882,0,0,0-6.9-10.2,4.873,4.873,0,0,1-1.255-2.392,2.619,2.619,0,0,1,.7-2.043,3.509,3.509,0,0,1,2.536-1.142,3,3,0,0,1,.449.034c1.591.242,2.744,1.4,3.882,2.675l3.966,4.43a42.779,42.779,0,0,1,4.127,5.12,21.367,21.367,0,0,1,2.843,6.643,22.216,22.216,0,0,1,.587,6.549c1.022-.2,2.022-.426,2.983-.676Zm23.01,81.7h-3.262l-.122-.324c-.21-.559-.43-1.13-.654-1.7a101.374,101.374,0,0,0-7.983-16.14c-1.183-1.912-2.443-3.782-3.662-5.59l-.011-.018c-1.332-1.976-2.706-4.015-4.187-5.964a24.441,24.441,0,0,1-3.345,1.8l-.541.244-.149-.575a15.8,15.8,0,0,1-.446-2.574c-.01-.117-.019-.234-.028-.351l0-.054a4.619,4.619,0,0,0-.608-2.429c-.747-1.011-2.283-1.139-3.664-1.179-.418-.012-.736-.017-1.032-.017-1.706,0-3.621.164-4.885,1.378a.763.763,0,0,0-.122.139.711.711,0,0,0,.086.1,5.494,5.494,0,0,0,2.369,1.169,8.663,8.663,0,0,1,2.17.9,8.386,8.386,0,0,1,2.548,3.176l.813,1.458-.562.2c-2.6.909-5.463,1.749-8.49,2.638l-.005,0c-1.461.429-2.969.872-4.521,1.345l-.538.164-.1-.553a5.783,5.783,0,0,0-1.474-3.252,3.777,3.777,0,0,0-2.635-1.035,3.816,3.816,0,0,0-.817.088,9.449,9.449,0,0,1,3.2,2.885,7.5,7.5,0,0,1,.751,1.672l.156.479-.481.152a72.12,72.12,0,0,0-14.136,5.836,29.393,29.393,0,0,0-10.732,9.746l-.556.881-.339-.985a34.66,34.66,0,0,1-1.5-14.53,51.169,51.169,0,0,1,3.969-15.242,52.424,52.424,0,0,1,8.4-13.521,37.458,37.458,0,0,1,11.838-9.344,15.884,15.884,0,0,1,6.681-1.869,6.022,6.022,0,0,1,4.911,2.215,10,10,0,0,1,1.885,4.445,23.412,23.412,0,0,1,.358,5.019,38.041,38.041,0,0,1-.48,5.034c5.607-1.7,9.43-2.678,12.149-2.678a4.894,4.894,0,0,1,4.076,1.54,5.9,5.9,0,0,1,1.065,3.672,26.962,26.962,0,0,1-.772,6.061,7.82,7.82,0,0,1-1.96,3.672,22.464,22.464,0,0,1,3.244,4.311,274.385,274.385,0,0,1,14.586,26.789l.015.037.251.675Zm-2.571-1h1.785a276.349,276.349,0,0,0-14.2-25.981,20.84,20.84,0,0,0-3.268-4.289l-.06-.056-.108-.1-.391-.354.375-.371a7.038,7.038,0,0,0,2.045-3.548c1.028-4.71,1-7.536-.095-8.892a3.986,3.986,0,0,0-3.3-1.167c-2.719,0-6.693,1.053-12.639,2.873l-.807.247.172-.827a36.122,36.122,0,0,0,.606-5.674,22.434,22.434,0,0,0-.34-4.8,9.03,9.03,0,0,0-1.679-4.005,5.066,5.066,0,0,0-4.135-1.847,14.93,14.93,0,0,0-6.244,1.769,36.465,36.465,0,0,0-11.519,9.1,51.41,51.41,0,0,0-8.233,13.26,50.159,50.159,0,0,0-3.893,14.94,34.311,34.311,0,0,0,1.13,13.133,30.988,30.988,0,0,1,10.5-9.205,71.771,71.771,0,0,1,13.835-5.763,5.777,5.777,0,0,0-.48-.979,10.4,10.4,0,0,0-3.713-3.064l-.957-.388.931-.505a4.627,4.627,0,0,1,2.2-.544,4.787,4.787,0,0,1,3.336,1.321,6.3,6.3,0,0,1,1.646,3.239c1.371-.415,2.706-.807,4-1.187l.005,0c2.8-.822,5.454-1.6,7.883-2.429l-.232-.417a7.635,7.635,0,0,0-2.218-2.823,7.912,7.912,0,0,0-1.925-.788,6.321,6.321,0,0,1-2.792-1.43,1.181,1.181,0,0,1-.374-.751,1.206,1.206,0,0,1,.438-.907c1.52-1.459,3.672-1.656,5.577-1.656.306,0,.633.005,1.061.018,1.617.047,3.426.212,4.44,1.584a5.491,5.491,0,0,1,.8,2.948l0,.053c.009.114.017.228.027.341a14.582,14.582,0,0,0,.279,1.825,21.115,21.115,0,0,0,3.031-1.719l.391-.272.291.377c1.612,2.089,3.088,4.28,4.516,6.4l.011.018c1.222,1.813,2.486,3.687,3.677,5.613a102.368,102.368,0,0,1,8.063,16.3C2473.63-2027.782,2473.81-2027.317,2473.984-2026.857Zm15.6-4.476c-.759-4.339-1.347-8.777-1.8-13.566a218.232,218.232,0,0,1,.677-45.318c.3-2.565.641-5.195,1.027-7.816l.5.073.429-.256a45.487,45.487,0,0,0,5.265,7.1l.141.156-.013.21c-.588,9.238-1.512,18.5-2.406,27.459l0,.028-.022.222c-.306,3.064-.653,6.536-.969,9.869-.683,7.191-1.3,14.521-1.833,21.786Zm.7-65.2c-.306,2.158-.583,4.314-.827,6.426a217.212,217.212,0,0,0-.675,45.109c.3,3.241.673,6.32,1.115,9.315.456-5.88.965-11.778,1.516-17.585.316-3.335.663-6.809.969-9.874l.024-.25c.886-8.882,1.8-18.063,2.39-27.213A46.763,46.763,0,0,1,2490.288-2096.529Zm1.128-7.444-.917-.349c.84-4.9,1.844-9.924,2.984-14.945l.062-.271.263-.091c.538-.185,1.116-.371,1.72-.553l.61-.184.033.636c.018.343.035.688.052,1.033.124,2.662.2,5.435.214,8.243v.21l-.148.148A34.057,34.057,0,0,0,2491.416-2103.973Zm2.98-14.8c-.932,4.121-1.771,8.245-2.5,12.294a35.017,35.017,0,0,1,3.541-4.177c-.02-2.723-.091-5.411-.211-7.993q-.009-.193-.019-.387C2494.927-2118.949,2494.656-2118.861,2494.4-2118.773Zm4.5,6.326-.018-.981c-.046-2.581-.116-4.928-.214-7.177l-.018-.416.406-.093a121.969,121.969,0,0,1,16.138-2.229c.684-.063,1.353-.12,2.025-.12a6.569,6.569,0,0,1,3.071.631l.679.346-.587.485c-2.355,1.945-5.365,2.667-8.276,3.365l-.027.007c-.82.2-1.669.4-2.48.628a29.8,29.8,0,0,0-9.915,4.962Zm.785-7.784c.077,1.845.136,3.762.178,5.822a30.615,30.615,0,0,1,9.465-4.554c.829-.232,1.687-.438,2.516-.638l.028-.007a21.5,21.5,0,0,0,7.173-2.639,6.76,6.76,0,0,0-1.826-.216c-.629,0-1.272.055-1.931.116A124.417,124.417,0,0,0,2499.679-2120.23Zm-14.611-43.255c-3.034-3.45-9.417-6.713-9.481-6.745l-.45-.227.4-.79.375.079c2.825.6,5.522,1.108,8.016,1.5l.345.054.068.343a35.576,35.576,0,0,0,1.568,5.282Zm-6.25-6.07a39.429,39.429,0,0,1,5.452,3.88,31.489,31.489,0,0,1-.836-3.059C2481.958-2168.971,2480.415-2169.245,2478.819-2169.555Z"
            transform="translate(-2082.017 2278.358)" fill="rgba(0,0,0,0)" />
        <path d="M6.05,0A6.05,6.05,0,1,1,0,6.05,6.05,6.05,0,0,1,6.05,0Z"
            transform="translate(201.455 76)" fill="#b1a8e3" />
        <path d="M8.74,0A8.74,8.74,0,1,1,0,8.74,8.74,8.74,0,0,1,8.74,0Z"
            transform="translate(187.585 59.618)" fill="#b1a8e3" />
        <path
            d="M-4721.32-6998.219h-94.161a1,1,0,0,1-1-1,1,1,0,0,1,1-1h94.161a1,1,0,0,1,1,1A1,1,0,0,1-4721.32-6998.219Z"
            transform="translate(4815.481 7251)" fill="#5bb3b3" />
        <path
            d="M-4548.229-6998.219h-267.253a1,1,0,0,1-1-1,1,1,0,0,1,1-1h267.253a1,1,0,0,1,1,1A1,1,0,0,1-4548.229-6998.219Z"
            transform="translate(4948.229 7251)" fill="#5bb3b3" />
        <g transform="translate(-9.184 2)">
            <g transform="translate(190.716 49.599)">
                <path d="M0,0,12.095,50.7h8.723L28.786,0Z"
                    transform="translate(67.559 134.948) rotate(180)" fill="#e6b88e" />
                <path
                    d="M22.3,29.6a38.033,38.033,0,0,1,12.453-1.043,22.371,22.371,0,0,1-1.8-11c.355-3.6,1.876-6.629,3.274-9.81a12.636,12.636,0,0,1,2.5-4.025,8.316,8.316,0,0,1,4.157-2.168,11.193,11.193,0,0,1,4.855.133c.71.17,1.351.513,2.048.714.714.205,1.046-.233,1.55-.669A8.384,8.384,0,0,1,55.926.043a12.07,12.07,0,0,1,5.282.785,11.055,11.055,0,0,1,4.456,2.96,7.986,7.986,0,0,1,1.365,2.07c.135.312.161.5.469.618.285.113.615.125.909.233A12.3,12.3,0,0,1,75.1,12.875,19.583,19.583,0,0,1,76.319,20.7c-.018,3.246-2.711,11.641-5.351,14.656a17.048,17.048,0,0,1-9.3,5.113,29.175,29.175,0,0,1,5.162,9.416c1.313,3.673,8.906,16,1.458,32.967s-22.171,11.533-24.965,13.2c-1.28.762-26.452-7.013-27.406-8.126C15.521,87.454.187,73.309,0,62.6S8.225,40.924,8.6,40.319C10.584,37.112,18.255,30.737,22.3,29.6Z"
                    transform="matrix(0.966, -0.259, 0.259, 0.966, 0, 19.753)" fill="#2e3e5a" />
                <path
                    d="M4436.19,739s9.041,35.372,26.183,35.2,23.962-37.973,23.962-37.973-14.453-1.829-24.962-12.724A63.931,63.931,0,0,1,4436.19,739Z"
                    transform="translate(-4410.601 -664.603)" fill="#efc6a1" />
            </g>
            <rect width="35.665" height="101.019" transform="translate(225.832 175.401)"
                fill="#b1a8e3" />
            <path
                d="M1970.6,4989.208h-65.91c2.6-9.633,5.685-19.6,9.156-29.623,3.192-9.216,6.733-18.543,10.527-27.725A444.058,444.058,0,0,1,1945.749,4887h1.8c3.182.109,9.795.4,9.855.4l6.673,19.067c.3,9.89,1.675,32.271,6.52,82.738Z"
                transform="translate(-1725.268 -4712.788)" fill="#e88a2d" />
            <path
                d="M1971.15,4989.707h-67.113l.17-.63c2.606-9.641,5.69-19.618,9.166-29.656,3.193-9.221,6.739-18.559,10.537-27.752a444.551,444.551,0,0,1,21.4-44.912l.143-.257h2.114c3.259.112,9.837.4,9.866.4l.333.019,6.809,19.456,0,.077c.3,9.881,1.674,32.251,6.518,82.705Zm-65.806-1h64.705c-4.792-49.969-6.163-72.247-6.467-82.146l-6.536-18.675c-1.382-.061-6.733-.292-9.5-.387h-1.5a444.555,444.555,0,0,0-21.208,44.55c-3.791,9.176-7.329,18.494-10.516,27.7C1910.926,4969.545,1907.908,4979.285,1905.344,4988.707Z"
                transform="translate(-1725.268 -4712.788)" fill="rgba(0,0,0,0)" />
            <path
                d="M2031.925,4989.207h-65.91c4.845-50.467,6.221-72.849,6.521-82.738l6.671-19.067c.008,0,.079,0,.205-.009,4.366-.19,7.793-.329,9.65-.393h1.8a443.974,443.974,0,0,1,21.376,44.859c3.793,9.18,7.335,18.508,10.527,27.725,3.473,10.031,6.553,20,9.156,29.622Z"
                transform="translate(-1724.493 -4712.788)" fill="#e88a2d" />
            <path
                d="M2031.925,4989.707h-66.46l.053-.548c4.845-50.463,6.219-72.829,6.519-82.705l0-.077.026-.073,6.773-19.358.306-.04c.015,0,.046-.006.252-.013,4.217-.184,7.736-.327,9.65-.393h2.114l.143.257a444.454,444.454,0,0,1,21.4,44.912c3.8,9.186,7.341,18.523,10.537,27.752,3.474,10.034,6.557,20.006,9.162,29.64l.217.645Zm-65.359-1h64.706c-2.564-9.421-5.582-19.16-8.975-28.959-3.189-9.21-6.728-18.529-10.516-27.7a444.455,444.455,0,0,0-21.208-44.55h-1.5c-1.893.065-5.35.206-9.5.386l-6.534,18.675C1972.73,4916.456,1971.358,4938.729,1966.566,4988.707Z"
                transform="translate(-1724.493 -4712.788)" fill="rgba(0,0,0,0)" />
            <path
                d="M1921.038,4989.207h-22.845c1.544-17.2,3.309-29.623,5.722-40.277,2.868-12.662,6.712-22.714,11.753-30.734a118.148,118.148,0,0,1,10.959-14.818,93.97,93.97,0,0,1,9.663-9.619A53.619,53.619,0,0,1,1945.8,4887l7.723,6.865a225.9,225.9,0,0,0-12.547,26.233c-4,9.689-7.6,19.814-10.7,30.094A328.649,328.649,0,0,0,1921.038,4989.207Z"
                transform="translate(-1724.166 -4712.788)" fill="#e88a2d" />
            <path
                d="M1897.646,4989.707l.049-.545c1.546-17.222,3.313-29.664,5.732-40.343,2.88-12.717,6.746-22.821,11.818-30.89a118.683,118.683,0,0,1,11.005-14.881,94.543,94.543,0,0,1,9.715-9.67,54.613,54.613,0,0,1,9.616-6.829l.3-.145,8.279,7.359-.21.359a227.325,227.325,0,0,0-12.513,26.166c-3.993,9.672-7.589,19.782-10.688,30.048a328.3,328.3,0,0,0-9.117,38.37h.042l-.142.577,0,.009-.072.415h-23.813Zm48.08-102.1a56.516,56.516,0,0,0-9.112,6.535,93.431,93.431,0,0,0-9.611,9.567,117.634,117.634,0,0,0-10.912,14.755c-5.011,7.971-8.834,17.974-11.689,30.578-2.383,10.521-4.132,22.773-5.662,39.667h21.877a329.237,329.237,0,0,1,9.175-38.659c3.109-10.3,6.716-20.438,10.721-30.141a235.661,235.661,0,0,1,12.372-25.939Z"
                transform="translate(-1724.166 -4712.788)" fill="rgba(0,0,0,0)" />
            <path
                d="M2039.641,4989.207h-24.2a328.757,328.757,0,0,0-9.232-39.015c-3.1-10.282-6.7-20.406-10.7-30.094a226.126,226.126,0,0,0-12.547-26.233l7.722-6.865a53.441,53.441,0,0,1,9.509,6.759,93.933,93.933,0,0,1,9.663,9.619,118.159,118.159,0,0,1,10.958,14.818c5.022,7.99,8.993,18.021,12.138,30.665,2.7,10.842,4.823,23.663,6.691,40.347Z"
                transform="translate(-1724.279 -4712.788)" fill="#e88a2d" />
            <path
                d="M2015.024,4989.707l-.072-.415a328.28,328.28,0,0,0-9.218-38.956c-3.1-10.263-6.694-20.373-10.688-30.048a223.987,223.987,0,0,0-12.514-26.168l-.211-.355,8.285-7.365.3.153a54.134,54.134,0,0,1,9.608,6.825,94.45,94.45,0,0,1,9.715,9.67,118.684,118.684,0,0,1,11.005,14.881c5.051,8.036,9.042,18.114,12.2,30.81,2.7,10.863,4.832,23.7,6.7,40.412l.062.556Zm-31.424-95.74a233.119,233.119,0,0,1,12.371,25.94c4.006,9.706,7.614,19.846,10.721,30.141a329.39,329.39,0,0,1,9.174,38.66h23.218c-1.851-16.392-3.956-29.027-6.617-39.725-3.132-12.592-7.082-22.575-12.076-30.519a117.635,117.635,0,0,0-10.912-14.755,93.4,93.4,0,0,0-9.611-9.567,56.381,56.381,0,0,0-9.111-6.535Z"
                transform="translate(-1724.279 -4712.788)" fill="rgba(0,0,0,0)" />
            <path
                d="M12.554,58.681H10.659L1.211,69.149a2.334,2.334,0,0,0,1.689,3.9H155.777a2.334,2.334,0,0,0,1.689-3.9L148.971,59.4h-1.842"
                transform="translate(165.205 225.046)" fill="#acb1bc" />
            <rect width="159.278" height="102.1" transform="translate(164.906 195.999)" fill="none" />
            <path
                d="M148.026,67.444H6.769a2.243,2.243,0,0,1,0-4.485H148.026a2.243,2.243,0,0,1,0,4.485"
                transform="translate(167.146 227.163)" fill="#7a8293" />
            <rect width="159.278" height="102.1" transform="translate(164.906 195.999)" fill="none" />
            <path
                d="M150.266,90.55H9.009a2.243,2.243,0,0,1-2.235-2.056L.01,7.879A7.446,7.446,0,0,1,7.442,0H151.831a7.446,7.446,0,0,1,7.438,7.8l-6.766,80.7a2.245,2.245,0,0,1-2.237,2.056M148.2,86.065Z"
                transform="translate(164.906 195.998)" fill="#acb1bc" />
            <path d="M29.875,1.5,63.268,87.565H8.3L1.648,8.319S-.137,1.5,6.731,1.5H29.875Z"
                transform="translate(168.802 196.741)" fill="#e4e6ea" />
            <path
                d="M57.948,44.115a9.129,9.129,0,1,1,9.128-9.13,9.14,9.14,0,0,1-9.128,9.13m0-13.774a4.644,4.644,0,1,0,4.643,4.643,4.649,4.649,0,0,0-4.643-4.643"
                transform="translate(189.071 208.797)" fill="#7a8293" />
        </g>
        <g transform="translate(99.704 33.457)">
            <path
                d="M11.959,42.342A2.638,2.638,0,0,1,9.321,39.7V33.14a17.6,17.6,0,1,1,16.43.072V39.7a2.639,2.639,0,0,1-2.639,2.639Z"
                transform="translate(13.71 13.548)" fill="#ffd964" />
            <path
                d="M23.112,42.842H11.959A3.142,3.142,0,0,1,8.821,39.7V33.437a18.1,18.1,0,1,1,17.43.075V39.7A3.142,3.142,0,0,1,23.112,42.842ZM17.6.5A17.105,17.105,0,0,0,9.556,32.7l.264.141V39.7a2.141,2.141,0,0,0,2.139,2.139H23.112A2.141,2.141,0,0,0,25.25,39.7V32.909l.268-.14A17.1,17.1,0,0,0,34.706,17.6,17.1,17.1,0,0,0,17.6.5Z"
                transform="translate(13.71 13.548)" fill="rgba(0,0,0,0)" />
            <path
                d="M0,9.275a1.5,1.5,0,0,1-1.5-1.5V0A1.5,1.5,0,0,1,0-1.5,1.5,1.5,0,0,1,1.5,0V7.775A1.5,1.5,0,0,1,0,9.275Z"
                transform="translate(30.972 1.319)" fill="#ffd964" />
            <path
                d="M5.5,7a1.5,1.5,0,0,1-1.061-.439l-5.5-5.5a1.5,1.5,0,0,1,0-2.121,1.5,1.5,0,0,1,2.121,0l5.5,5.5A1.5,1.5,0,0,1,5.5,7Z"
                transform="translate(10.004 10.004)" fill="#ffd964" />
            <path
                d="M5.5,7a1.5,1.5,0,0,1-1.061-.439l-5.5-5.5a1.5,1.5,0,0,1,0-2.121,1.5,1.5,0,0,1,2.121,0l5.5,5.5A1.5,1.5,0,0,1,5.5,7Z"
                transform="translate(46.442 46.442)" fill="#ffd964" />
            <path
                d="M7.775,1.528H7.769L-.005,1.5A1.5,1.5,0,0,1-1.5-.005,1.5,1.5,0,0,1,.005-1.5l7.775.028a1.5,1.5,0,0,1-.005,3Z"
                transform="translate(52.85 31.047)" fill="#ffd964" />
            <path
                d="M7.775,1.528H7.769L-.005,1.5A1.5,1.5,0,0,1-1.5-.005,1.5,1.5,0,0,1,.005-1.5l7.775.028a1.5,1.5,0,0,1-.005,3Z"
                transform="translate(1.319 30.868)" fill="#ffd964" />
            <path
                d="M0,6.979a1.5,1.5,0,0,1-1.064-.443,1.5,1.5,0,0,1,.007-2.121L4.46-1.064a1.5,1.5,0,0,1,2.121.007,1.5,1.5,0,0,1-.007,2.121L1.057,6.543A1.5,1.5,0,0,1,0,6.979Z"
                transform="translate(46.496 10.077)" fill="#ffd964" />
            <path
                d="M0,6.979a1.5,1.5,0,0,1-1.064-.443,1.5,1.5,0,0,1,.007-2.121L4.46-1.064a1.5,1.5,0,0,1,2.121.007,1.5,1.5,0,0,1-.007,2.121L1.057,6.543A1.5,1.5,0,0,1,0,6.979Z"
                transform="translate(9.932 46.389)" fill="#ffd964" />
            <path
                d="M40.382,65.819a1,1,0,0,1-1-.992l-.114-14.855A19.418,19.418,0,0,1,35.251,48.7c-1.5-.667-4.141-2.117-4.992-4.325-.467-1.213-.565-3.073,1.621-5.051,1.891-1.711,3.631-2.252,5.17-1.609,1.658.693,2.868,2.745,3.6,6.1a30.188,30.188,0,0,1,.6,4.432c.312.027.613.041.9.041a1,1,0,0,1,0,2c-.285,0-.579-.011-.88-.033l.112,14.562a1,1,0,0,1-.992,1.008ZM35.759,39.456A4.434,4.434,0,0,0,33.222,40.8c-1.627,1.472-1.228,2.508-1.1,2.849.432,1.122,1.868,2.295,3.939,3.217a17.476,17.476,0,0,0,3.158,1.046,28.443,28.443,0,0,0-.534-3.705c-.764-3.492-1.838-4.415-2.41-4.654A1.334,1.334,0,0,0,35.759,39.456Z"
                transform="translate(-10.547 -13.088)" fill="#313e58" />
            <path
                d="M49.922,65.819h-.008a1,1,0,0,1-.992-1.008l.112-14.562c-.3.022-.6.033-.88.033a1,1,0,0,1,0-2c.288,0,.589-.014.9-.041a30.188,30.188,0,0,1,.6-4.432c.73-3.353,1.94-5.405,3.6-6.1,1.539-.644,3.279-.1,5.17,1.609,2.186,1.978,2.088,3.838,1.621,5.051-.851,2.208-3.493,3.657-4.992,4.325a19.418,19.418,0,0,1-4.017,1.277l-.114,14.855A1,1,0,0,1,49.922,65.819Zm4.623-26.363a1.334,1.334,0,0,0-.519.1c-.572.239-1.646,1.161-2.41,4.654a28.445,28.445,0,0,0-.534,3.705,17.476,17.476,0,0,0,3.158-1.046c2.071-.922,3.506-2.094,3.939-3.217.131-.341.53-1.377-1.1-2.849A4.434,4.434,0,0,0,54.545,39.456Z"
                transform="translate(-16.389 -13.088)" fill="#313e58" />
            <path
                d="M45.38,95.058a1.979,1.979,0,0,1-1.984,0l-3.785-2.2a1.979,1.979,0,0,1,.989-3.694h7.576a1.979,1.979,0,0,1,.989,3.694Z"
                transform="translate(-13.144 -30.35)" fill="#313e58" />
            <path
                d="M34.914,78.5h16.43v8.656a1.319,1.319,0,0,1-1.319,1.319H36.233a1.319,1.319,0,0,1-1.319-1.319Z"
                transform="translate(-11.883 -26.719)" fill="#313e58" />
            <path
                d="M34.914,89.818V88.261l16.43-2.369v1.781L34.934,90.037a1.162,1.162,0,0,1-.02-.219"
                transform="translate(-11.883 -29.234)" fill="#7a8293" />
            <path d="M34.914,82.348l16.43-2.37v1.781l-16.43,2.367Z"
                transform="translate(-11.883 -27.221)" fill="#7a8293" />
            <rect width="61.944" height="64.975" transform="translate(0 0)" fill="none" />
        </g>
        <g transform="translate(7.033 163.331)">
            <rect width="53.705" height="10.321" transform="translate(-16.226 114.42)"
                fill="#c0e2e2" />
            <path d="M10.069,93.165l7.516,45.65H51.042l9.186-45.65Z"
                transform="translate(-24.564 33.188)" fill="#c0e2e2" />
            <g transform="translate(7.755 35.896)" clip-path="url(#a)">
                <rect width="20.506" height="112.768" transform="translate(-8.215 -12.693)"
                    fill="#c0e2e2" />
            </g>
            <path
                d="M32.7,50.527c0-.027.011-.051.012-.078A21.338,21.338,0,0,0,1.06,31.2,2.036,2.036,0,0,0,.007,32.932a21.338,21.338,0,0,0,31.651,19.25c.023-.013.041-.034.064-.047L15.3,43.432a2.038,2.038,0,0,1,2.117-3.482"
                transform="translate(-23.172 42.124)" fill="#c0e2e2" />
            <path
                d="M30.08,48.766c0-.025.01-.047.011-.071A19.629,19.629,0,0,0,.975,30.987,1.873,1.873,0,0,0,.006,32.58a19.617,19.617,0,0,0,9.422,17.3c6.079,3.7,15.583,4.726,21.7,1.352.021-.012-1.06-.929-1.04-.942L14.075,42.239a1.875,1.875,0,0,1,1.948-3.2"
                transform="translate(-21.862 1.581)" fill="#c0e2e2" />
            <path
                d="M25.768,17.329c0-.021.009-.04.01-.061A16.815,16.815,0,0,0,.835,2.1a1.6,1.6,0,0,0-.83,1.364A16.815,16.815,0,0,0,24.947,18.633c.018-.01.033-.026.05-.037L12.057,11.738a1.606,1.606,0,0,1,1.668-2.744"
                transform="matrix(0.174, 0.985, -0.985, 0.174, 23.657, 9.456)" fill="#c0e2e2" />
            <path
                d="M40.19,63.058c.023.018.038.042.061.06a23.382,23.382,0,0,0,37.307-16,2.233,2.233,0,0,0-.875-2.041,23.382,23.382,0,0,0-37.307,16c0,.029,0,.058,0,.087l18.21-9.118a2.233,2.233,0,1,1,1.76,4.1"
                transform="translate(-28.617 38.088)" fill="#c0e2e2" />
            <path
                d="M37.438,24.035c.023.013.041.033.064.045A21.338,21.338,0,0,0,68.733,4.154a2.04,2.04,0,0,0-1.09-1.709A21.339,21.339,0,0,0,36.412,22.371c0,.028.012.052.015.078l15.05-10.9a2.038,2.038,0,0,1,2.192,3.436"
                transform="translate(-28.204 46.07)" fill="#c0e2e2" />
        </g>
        <g transform="translate(94.16 207.664)">
            <g clip-path="url(#b)">
                <path
                    d="M38.348,58.548H1.25a1,1,0,0,1-.966-1.257l2.193-8.251a1,1,0,0,1,.966-.743H36.137a1,1,0,0,1,.966.741l2.211,8.251a1,1,0,0,1-.966,1.259Zm-35.8-2H37.045L35.37,50.3H4.212Z"
                    transform="translate(-0.506 -20.671)" fill="#5bb3b3" />
                <path
                    d="M31.61,101.237H8.5a1,1,0,0,1-.99-.859l-5.192-36.5a1,1,0,0,1,.99-1.141H37.956a1,1,0,0,1,.985,1.171l-6.346,36.5A1,1,0,0,1,31.61,101.237Zm-22.243-2h21.4l6-34.5H4.46Z"
                    transform="translate(-1.339 -26.727)" fill="#5bb3b3" />
            </g>
            <path
                d="M36.41,47.592a1,1,0,0,1-1-1V44.484H14.646V46.37a1,1,0,0,1-2,0V43.484a1,1,0,0,1,1-1H36.41a1,1,0,0,1,1,1v3.109A1,1,0,0,1,36.41,47.592Z"
                transform="translate(-5.735 -18.231)" fill="#5bb3b3" />
            <g clip-path="url(#b)">
                <path
                    d="M25.185,33.676a1,1,0,0,1-.765-1.644c.26-.31.368-.438-.9-1.766-.909-.95-2.039-2.132-1.909-3.744.1-1.249.952-2.461,2.6-3.7a1,1,0,0,1,1.2,1.6c-1.134.855-1.761,1.64-1.812,2.269-.058.718.663,1.472,1.361,2.2a7,7,0,0,1,1.385,1.792,2.362,2.362,0,0,1-.4,2.643A1,1,0,0,1,25.185,33.676Z"
                    transform="translate(-9.147 -9.902)" fill="#5bb3b3" />
                <path
                    d="M15.994,23.51a1,1,0,0,1-.552-.167,4.281,4.281,0,0,1-2.012-2.685c-.366-1.839.8-3.577,1.934-5.259.9-1.333,1.823-2.712,1.589-3.681a2.638,2.638,0,0,0-1.444-1.468A1,1,0,0,1,16.476,8.5,4.416,4.416,0,0,1,18.9,11.249c.441,1.824-.736,3.574-1.874,5.266-.9,1.342-1.835,2.73-1.632,3.753a2.369,2.369,0,0,0,1.157,1.409,1,1,0,0,1-.554,1.833Z"
                    transform="translate(-5.813 -3.931)" fill="#5bb3b3" />
                <path
                    d="M27.512,7.935a1,1,0,0,1-.98-1.2,4.982,4.982,0,0,0-1.676-4.713A1,1,0,0,1,26.133.481,6.938,6.938,0,0,1,28.49,7.137,1,1,0,0,1,27.512,7.935Z"
                    transform="translate(-10.319 -0.524)" fill="#5bb3b3" />
            </g>
        </g>
    </g>
</svg>