<svg xmlns="http://www.w3.org/2000/svg" xmlns:xlink="http://www.w3.org/1999/xlink" width="400" height="320" viewBox="0 0 400 320">
    <defs>
        <clipPath>
            <rect width="400" height="320" />
        </clipPath>
    </defs>
    <g clip-path="url(#b)">
        <rect width="400" height="320" fill="transparent" />
        <path d="M-185.574,15.814a11.607,11.607,0,0,1,11.263-2.993A11.607,11.607,0,0,1-177.3,24.083a11.607,11.607,0,0,1-11.263,2.993A11.607,11.607,0,0,1-185.574,15.814Z" transform="translate(451.39 23.149)" fill="#bfe2e2" />
        <path d="M9.978,30.272a2.277,2.277,0,1,1,2.277-2.277A2.279,2.279,0,0,1,9.978,30.272Zm0-2.554a.277.277,0,1,0,.277.277A.277.277,0,0,0,9.978,27.718Z" transform="translate(215 124.748)" fill="#5bb3b3" />
        <g transform="translate(7)">
            <path d="M10.081,34.107h7.525a1,1,0,0,1,1,1v9.7a1,1,0,0,1,.758.739c.808,3.3,7.9,32.261,8.026,33.809a3.029,3.029,0,0,1-1.869,3.059,1,1,0,0,1-.363.068H2.644a1,1,0,0,1-.217-.024,2.725,2.725,0,0,1-2.152-3.02c.2-1.582,7.323-30.59,8.135-33.892a1,1,0,0,1,.671-.715v-9.72A1,1,0,0,1,10.081,34.107Zm6.525,2H11.081v9.674a1,1,0,0,1-.915,1C6.993,59.695,2.4,78.593,2.259,79.686a.592.592,0,0,0,.2.6,1.179,1.179,0,0,0,.332.189H24.914a1.254,1.254,0,0,0,.241-.2.933.933,0,0,0,.243-.76c-.123-1.184-4.655-19.938-7.789-32.738h0a1,1,0,0,1-1-1Z" transform="translate(209 125.886)" fill="#5bb3b3" />
            <path d="M21.348,1H0A1,1,0,0,1-1,0,1,1,0,0,1,0-1H21.348a1,1,0,0,1,1,1A1,1,0,0,1,21.348,1Z" transform="translate(212.945 199.816)" fill="#5bb3b3" />
            <path d="M18.806,24.3a3.8,3.8,0,1,1,3.8-3.8A3.807,3.807,0,0,1,18.806,24.3Zm0-5.606a1.8,1.8,0,1,0,1.8,1.8A1.8,1.8,0,0,0,18.806,18.692Z" transform="translate(209 125.886)" fill="#5bb3b3" />
        </g>
        <path d="M49.512.25H69.294a1,1,0,0,1,1,1V6.229a1,1,0,0,1-1,1H68.037V13.7a1,1,0,0,1-1,1h-.819V36.882A23.491,23.491,0,0,1,82.9,59.385c0,7.067-1.7,12.643-5.066,16.573A18.227,18.227,0,0,1,70.5,81.066,30.634,30.634,0,0,1,59.378,82.9c-9.164,0-15.437-2.281-19.179-6.972a18.522,18.522,0,0,1-3.472-7.556,39.992,39.992,0,0,1-.868-8.991,23.535,23.535,0,0,1,16.678-22.5V14.7h-.819a1,1,0,0,1-1-1V7.229H49.512a1,1,0,0,1-1-1V1.25A1,1,0,0,1,49.512.25Zm18.782,2H50.512V5.229h1.206a1,1,0,0,1,1,1V12.7h.819a1,1,0,0,1,1,1V37.636a1,1,0,0,1-.741.966A21.492,21.492,0,0,0,37.859,59.385a38.057,38.057,0,0,0,.816,8.54,16.578,16.578,0,0,0,3.087,6.76C45.1,78.87,50.862,80.9,59.378,80.9A28.667,28.667,0,0,0,69.77,79.2a16.25,16.25,0,0,0,6.54-4.545c3.043-3.558,4.585-8.7,4.585-15.273A21.531,21.531,0,0,0,64.959,38.6a1,1,0,0,1-.741-.966V13.7a1,1,0,0,1,1-1h.819V6.229a1,1,0,0,1,1-1h1.257Z" transform="translate(212 125.886)" fill="#5bb3b3" />
        <path d="M42.894,1H0A1,1,0,0,1-1,0,1,1,0,0,1,0-1H42.894a1,1,0,0,1,1,1A1,1,0,0,1,42.894,1Z" transform="translate(249.679 187.838)" fill="#5bb3b3" />
        <path d="M.83-1A1.83,1.83,0,1,1-1,.83,1.832,1.832,0,0,1,.83-1Z" transform="translate(258.807 171.498)" fill="#5bb3b3" />
        <path d="M2.681-1A3.681,3.681,0,1,1-1,2.681,3.685,3.685,0,0,1,2.681-1Zm0,5.362A1.681,1.681,0,1,0,1,2.681,1.683,1.683,0,0,0,2.681,4.362Z" transform="translate(268.126 166.902)" fill="#5bb3b3" />
        <path d="M2.222-1A3.222,3.222,0,1,1-1,2.222,3.226,3.226,0,0,1,2.222-1Zm0,4.444A1.222,1.222,0,1,0,1,2.222,1.223,1.223,0,0,0,2.222,3.444Z" transform="translate(260.755 178.837)" fill="#5bb3b3" />
        <g transform="translate(-10 27)">
            <path d="M140.584,82.9a25.77,25.77,0,0,1-6.4-.645,7.707,7.707,0,0,1-3.711-1.968c-1.83-1.892-1.744-4.478-1.653-7.215.02-.616.042-1.254.042-1.895V51.458q0-.033,0-.067c.3-4.478,1.586-7.578,3.93-9.453V29.762a1,1,0,0,1,1-1h13.547a1,1,0,0,1,1,1V41.211c2.7,1.688,3.968,4.967,3.968,10.247V71.181c0,.545.012,1.074.023,1.587.058,2.622.109,4.886-1.481,6.707-1.618,1.853-4.755,2.909-10.17,3.425Q140.632,82.9,140.584,82.9ZM130.86,51.492V71.181c0,.674-.022,1.329-.043,1.961-.083,2.5-.149,4.476,1.092,5.758,1.3,1.343,4.122,2,8.627,2,4.772-.459,7.571-1.331,8.806-2.745,1.08-1.236,1.041-2.961.988-5.347-.012-.523-.024-1.064-.024-1.631V51.458c0-6.29-1.954-8.021-3.425-8.775a1,1,0,0,1-.543-.89V30.762H134.792V42.438a1,1,0,0,1-.426.819C132.284,44.716,131.137,47.41,130.86,51.492Z" transform="translate(209 98.886)" fill="#5bb3b3" />
            <path d="M17.617,1H0A1,1,0,0,1-1,0,1,1,0,0,1,0-1H17.617a1,1,0,0,1,1,1A1,1,0,0,1,17.617,1Z" transform="translate(340.757 125.743)" fill="#5bb3b3" />
            <path d="M170.314,82.9a25.771,25.771,0,0,1-6.4-.645,7.707,7.707,0,0,1-3.711-1.968c-1.83-1.892-1.744-4.478-1.653-7.215.021-.616.042-1.254.042-1.895V51.458q0-.033,0-.067c.3-4.478,1.586-7.578,3.93-9.453V29.762a1,1,0,0,1,1-1h13.547a1,1,0,0,1,1,1V41.211c2.7,1.688,3.968,4.967,3.968,10.247V71.181c0,.545.012,1.074.023,1.587.058,2.622.109,4.886-1.481,6.707-1.618,1.853-4.755,2.909-10.17,3.425Q170.362,82.9,170.314,82.9ZM160.59,51.492V71.181c0,.674-.022,1.329-.043,1.961-.083,2.5-.149,4.476,1.092,5.758,1.3,1.343,4.122,2,8.627,2,4.772-.459,7.571-1.331,8.806-2.745,1.08-1.236,1.041-2.961.988-5.347-.012-.523-.024-1.064-.024-1.631V51.458c0-6.29-1.954-8.021-3.425-8.775a1,1,0,0,1-.543-.89V30.762H164.522V42.438a1,1,0,0,1-.426.819C162.014,44.716,160.867,47.41,160.59,51.492Z" transform="translate(209 98.886)" fill="#5bb3b3" />
            <path d="M17.617,1H0A1,1,0,0,1-1,0,1,1,0,0,1,0-1H17.617a1,1,0,0,1,1,1A1,1,0,0,1,17.617,1Z" transform="translate(370.487 125.743)" fill="#5bb3b3" />
        </g>
        <path d="M140.584,82.9a25.77,25.77,0,0,1-6.4-.645,7.707,7.707,0,0,1-3.711-1.968c-1.83-1.892-1.744-4.478-1.653-7.215.02-.616.042-1.254.042-1.895V51.458q0-.033,0-.067c.3-4.478,1.586-7.578,3.93-9.453V29.762a1,1,0,0,1,1-1h13.547a1,1,0,0,1,1,1V41.211c2.7,1.688,3.968,4.967,3.968,10.247V71.181c0,.545.012,1.074.023,1.587.058,2.622.109,4.886-1.481,6.707-1.618,1.853-4.755,2.909-10.17,3.425Q140.632,82.9,140.584,82.9ZM130.86,51.492V71.181c0,.674-.022,1.329-.043,1.961-.083,2.5-.149,4.476,1.092,5.758,1.3,1.343,4.122,2,8.627,2,4.772-.459,7.571-1.331,8.806-2.745,1.08-1.236,1.041-2.961.988-5.347-.012-.523-.024-1.064-.024-1.631V51.458c0-6.29-1.954-8.021-3.425-8.775a1,1,0,0,1-.543-.89V30.762H134.792V42.438a1,1,0,0,1-.426.819C132.284,44.716,131.137,47.41,130.86,51.492Z" transform="translate(257.759 125.886)" fill="#5bb3b3" />
        <path d="M17.617,1H0A1,1,0,0,1-1,0,1,1,0,0,1,0-1H17.617a1,1,0,0,1,1,1A1,1,0,0,1,17.617,1Z" transform="translate(389.516 152.743)" fill="#5bb3b3" />
        <path d="M398.5,1H0V-1H398.5Z" transform="translate(0.5 237.976)" fill="#5bb3b3" />
        <path d="M398.5,1H0V-1H398.5Z" transform="translate(0.5 212.438)" fill="#5bb3b3" />
        <path d="M151.983,1H0A1,1,0,0,1-1,0,1,1,0,0,1,0-1H151.983a1,1,0,0,1,1,1A1,1,0,0,1,151.983,1Z" transform="translate(244.984 98.929)" fill="#5ab3b3" />
        <path d="M2.744-1h8.022a3.748,3.748,0,0,1,3.744,3.744v55.65a3.748,3.748,0,0,1-3.744,3.744H2.744A3.748,3.748,0,0,1-1,58.394V2.744A3.748,3.748,0,0,1,2.744-1Zm8.022,61.137a1.746,1.746,0,0,0,1.744-1.744V2.744A1.746,1.746,0,0,0,10.765,1H2.744A1.746,1.746,0,0,0,1,2.744v55.65a1.746,1.746,0,0,0,1.744,1.744Z" transform="translate(323.543 33.31)" fill="#5ab3b3" />
        <g transform="translate(327.827 61.069)">
            <path d="M4.942,1H0A1,1,0,0,1-1,0,1,1,0,0,1,0-1H4.942a1,1,0,0,1,1,1A1,1,0,0,1,4.942,1Z" fill="#5ab3b3" />
            <path d="M4.942,1H0A1,1,0,0,1-1,0,1,1,0,0,1,0-1H4.942a1,1,0,0,1,1,1A1,1,0,0,1,4.942,1Z" transform="translate(0 5.527)" fill="#5ab3b3" />
        </g>
        <path d="M2.744-1h8.022a3.748,3.748,0,0,1,3.744,3.744v55.65a3.748,3.748,0,0,1-3.744,3.744H2.744A3.748,3.748,0,0,1-1,58.394V2.744A3.748,3.748,0,0,1,2.744-1Zm8.022,61.137a1.746,1.746,0,0,0,1.744-1.744V2.744A1.746,1.746,0,0,0,10.765,1H2.744A1.746,1.746,0,0,0,1,2.744v55.65a1.746,1.746,0,0,0,1.744,1.744Z" transform="matrix(-0.956, -0.293, 0.293, -0.956, 303.113, 95.084)" fill="#5ab3b3" />
        <g transform="translate(302.446 60.468)">
            <path d="M4.726,2.447A1,1,0,0,1,4.433,2.4L-.293.956A1,1,0,0,1-.956-.293,1,1,0,0,1,.293-.956L5.019.491a1,1,0,0,1-.292,1.956Z" transform="translate(1.618)" fill="#5ab3b3" />
            <path d="M4.726,2.447A1,1,0,0,1,4.433,2.4L-.293.956A1,1,0,0,1-.956-.293,1,1,0,0,1,.293-.956L5.019.491a1,1,0,0,1-.292,1.956Z" transform="translate(0 5.285)" fill="#5ab3b3" />
        </g>
        <path d="M2.744-1h8.022a3.748,3.748,0,0,1,3.744,3.744v55.65a3.748,3.748,0,0,1-3.744,3.744H2.744A3.748,3.748,0,0,1-1,58.394V2.744A3.748,3.748,0,0,1,2.744-1Zm8.022,61.137a1.746,1.746,0,0,0,1.744-1.744V2.744A1.746,1.746,0,0,0,10.765,1H2.744A1.746,1.746,0,0,0,1,2.744v55.65a1.746,1.746,0,0,0,1.744,1.744Z" transform="translate(342.199 33.31)" fill="#5ab3b3" />
        <g transform="translate(346.482 61.069)">
            <path d="M4.942,1H0A1,1,0,0,1-1,0,1,1,0,0,1,0-1H4.942a1,1,0,0,1,1,1A1,1,0,0,1,4.942,1Z" fill="#5ab3b3" />
            <path d="M4.942,1H0A1,1,0,0,1-1,0,1,1,0,0,1,0-1H4.942a1,1,0,0,1,1,1A1,1,0,0,1,4.942,1Z" transform="translate(0 5.527)" fill="#5ab3b3" />
        </g>
        <path d="M2.744-1h8.022a3.748,3.748,0,0,1,3.744,3.744v55.65a3.748,3.748,0,0,1-3.744,3.744H2.744A3.748,3.748,0,0,1-1,58.394V2.744A3.748,3.748,0,0,1,2.744-1Zm8.022,61.137a1.746,1.746,0,0,0,1.744-1.744V2.744A1.746,1.746,0,0,0,10.765,1H2.744A1.746,1.746,0,0,0,1,2.744v55.65a1.746,1.746,0,0,0,1.744,1.744Z" transform="translate(380.458 33.31)" fill="#5ab3b3" />
        <path d="M2.744-1h8.022a3.748,3.748,0,0,1,3.744,3.744v55.65a3.748,3.748,0,0,1-3.744,3.744H2.744A3.748,3.748,0,0,1-1,58.394V2.744A3.748,3.748,0,0,1,2.744-1Zm8.022,61.137a1.746,1.746,0,0,0,1.744-1.744V2.744A1.746,1.746,0,0,0,10.765,1H2.744A1.746,1.746,0,0,0,1,2.744v55.65a1.746,1.746,0,0,0,1.744,1.744Z" transform="translate(360.854 33.31)" fill="#5ab3b3" />
        <g transform="translate(384.742 61.069)">
            <path d="M4.942,1H0A1,1,0,0,1-1,0,1,1,0,0,1,0-1H4.942a1,1,0,0,1,1,1A1,1,0,0,1,4.942,1Z" fill="#5ab3b3" />
            <path d="M4.942,1H0A1,1,0,0,1-1,0,1,1,0,0,1,0-1H4.942a1,1,0,0,1,1,1A1,1,0,0,1,4.942,1Z" transform="translate(0 5.527)" fill="#5ab3b3" />
        </g>
        <g transform="translate(365.137 61.069)">
            <path d="M4.942,1H0A1,1,0,0,1-1,0,1,1,0,0,1,0-1H4.942a1,1,0,0,1,1,1A1,1,0,0,1,4.942,1Z" fill="#5ab3b3" />
            <path d="M4.942,1H0A1,1,0,0,1-1,0,1,1,0,0,1,0-1H4.942a1,1,0,0,1,1,1A1,1,0,0,1,4.942,1Z" transform="translate(0 5.527)" fill="#5ab3b3" />
        </g>
        <path d="M0-1H34.866a1,1,0,0,1,1,1V7.4a1,1,0,0,1-1,1H0a1,1,0,0,1-1-1V0A1,1,0,0,1,0-1ZM33.866,1H1V6.4H33.866Z" transform="translate(244.984 67.515)" fill="#5ab3b3" />
        <path d="M0,21.664a1.008,1.008,0,0,1-.143-.01A1,1,0,0,1-.99,20.522L1.976-.142A1,1,0,0,1,3.107-.99,1,1,0,0,1,3.955.142L.99,20.806A1,1,0,0,1,0,21.664Z" transform="translate(273.905 74.915)" fill="#5ab3b3" />
        <path d="M2.964,21.664a1,1,0,0,1-.989-.858L-.99.142A1,1,0,0,1-.142-.99,1,1,0,0,1,.99-.142L3.955,20.522a1,1,0,0,1-.991,1.142Z" transform="translate(247.963 74.915)" fill="#5ab3b3" />
        <path d="M0,32.569a1,1,0,0,1-1-1V0A1,1,0,0,1,0-1,1,1,0,0,1,1,0V31.569A1,1,0,0,1,0,32.569Z" transform="translate(262.417 33.446)" fill="#5ab3b3" />
        <path d="M0,8.128a1,1,0,0,1-.707-.293,1,1,0,0,1,0-1.414L6.421-.707a1,1,0,0,1,1.414,0,1,1,0,0,1,0,1.414L.707,7.835A1,1,0,0,1,0,8.128Z" transform="translate(262.823 43.097)" fill="#5ab3b3" />
        <path d="M-163.339,24.975A11.608,11.608,0,0,0-174.6,21.982a11.609,11.609,0,0,0,2.992,11.263,11.61,11.61,0,0,0,11.263,2.993A11.607,11.607,0,0,0-163.339,24.975Z" transform="translate(414.249 -2.102) rotate(-9)" fill="#bfe2e2" />
        <path d="M-163.339,24.975A11.608,11.608,0,0,0-174.6,21.982a11.609,11.609,0,0,0,2.992,11.263,11.61,11.61,0,0,0,11.263,2.993A11.607,11.607,0,0,0-163.339,24.975Z" transform="translate(412.319 -32.618) rotate(-11)" fill="#bfe2e2" />
        <path d="M-163.339,24.975A11.608,11.608,0,0,0-174.6,21.982a11.609,11.609,0,0,0,2.992,11.263,11.61,11.61,0,0,0,11.263,2.993A11.607,11.607,0,0,0-163.339,24.975Z" transform="translate(323.815 185.684) rotate(81)" fill="#bfe2e2" />
        <path d="M7.128,8.128a1,1,0,0,1-.707-.293L-.707.707a1,1,0,0,1,0-1.414,1,1,0,0,1,1.414,0L7.835,6.421a1,1,0,0,1-.707,1.707Z" transform="translate(253.391 52.848) rotate(-9)" fill="#5ab3b3" />
        <path d="M7.128,8.128a1,1,0,0,1-.707-.293L-.707.707a1,1,0,0,1,0-1.414,1,1,0,0,1,1.414,0L7.835,6.421a1,1,0,0,1-.707,1.707Z" transform="translate(253.477 27.912) rotate(-11)" fill="#5ab3b3" />
        <path d="M7.128,8.128a1,1,0,0,1-.707-.293L-.707.707a1,1,0,0,1,0-1.414,1,1,0,0,1,1.414,0L7.835,6.421a1,1,0,0,1-.707,1.707Z" transform="translate(268.865 24.826) rotate(81)" fill="#5ab3b3" />
        <g transform="translate(6144.68 6102.535)">
            <path d="M109.493,82.937c-8.065,18.674-16.638,38.047-32.185,51.166C54.14,153.651,23.632,165.534,0,146.548c15.876-1.935,20.357-3.763,35.98-.353-.81-7.524,7.725-17.294,22.4-11.472-.537-9.645,3.785-23.886,15.614-22.873-2.96-4.508-4.96-10.147-3.32-15.286S78.8,87.792,83.4,90.6c-2.856-6.606-3.23-14.89,1.292-20.489,4.56-5.647,13.579-5.862,18.25-.43,1.043-8.927,2.6-22.968,20.364-28.889C141.78,20.01,142.258,1.306,147.166,0c-2.647,15.145-31.447,68.522-37.673,82.937" transform="translate(-5991.936 -5877.188) rotate(155)" fill="#bfe2e2" />
            <path d="M.052,74.7C-.278,51.74.6,27.154,13.92,8.448a15.666,15.666,0,0,1,4.52-4.6A17.327,17.327,0,0,1,24.71,2C42.4-.746,60.683-1,78.051,3.359s33.809,13.553,45.091,27.456C101.966,20.717,78.6,7.992,55.476,11.975c-.052,3.951-3.591,5.645-7.44,9.494s-12.613,3.776-18.216-.257c3.5,8.075,3.513,21.085-2.564,27.452S14.371,60.89,6.143,57.765c8.8,3.953,14.544,15.46,9.6,23.742-1.308,2.195-3.2,3.967-4.779,5.975-6.353,8.089-7.056,19.208-6.33,29.466.416,5.86,4.928,23.889-1.164,26.6C-1.152,121.877.369,96.861.052,74.7" transform="matrix(0.809, 0.588, -0.588, 0.809, -6051.515, -5947.95)" fill="#bfe2e2" />
            <path d="M-4.747,0c0,45.081-17.632,81.627,29.538,81.627S54.329,45.081,54.329,0" transform="translate(-6144.686 -5853.694)" fill="#bfe2e2" />
            <path d="M68.263,59.992C70.279,38.791,74.222,16.918,85.852,0c-2.607,3.033,2.96,28.747,2.96,28.747S85.54,43.063,79.091,46.886c3.652-2.73,4.639,11.137,2.994,22.84s-.75,17.346-9.574,23.971c9.315-4.461,8.561,6.99,7.548,18.213s2.148,21.141-5.095,29.021c6.083-3.194,13.278,3.942,13.847,11.4s-3.149,14.38-6.726,20.706c5.09-4.259,12.763,2.222,13.352,9.287S92.4,195.888,89.505,202.2c-7.657,16.707-9.068,33.811-9.445,52.082-13.714-60.8-17.7-132.163-11.8-194.289" transform="matrix(0.978, 0.208, -0.208, 0.978, -6155.945, -6099.971)" fill="#bfe2e2" />
            <path d="M116.1,66.127C108.032,47.453,99.459,28.08,83.912,14.961,60.744-4.587,23.632-5.036,0,13.95a143.029,143.029,0,0,0,47.7-2.233c-.81,7.524-1.3,14.2,7.17,18.051s13.9,8.459,25.732,7.446c-2.96,4.508-4.96,10.147-3.32,15.286s8.119,8.772,12.723,5.965c-2.856,6.606-3.23,14.89,1.292,20.489,4.56,5.647,13.579,5.862,18.25.43,1.043,8.927,2.6,22.968,20.364,28.889,18.473,20.782,18.951,39.486,23.859,40.792-2.647-15.145-31.447-68.522-37.673-82.937" transform="translate(-6208.44 -6031.803) rotate(25)" fill="#bfe2e2" />
            <path d="M115.474,78.036c14.283-29.884,24.7-25.761,43.23-53.213,1.614,10.45-6.672,19.556-14.3,26.875,4.612-.368,8.294,4.576,8.161,9.2s-2.966,8.72-6.061,12.159a64.282,64.282,0,0,1-19.771,14.851c4.15,1.178,15.633-2.486,13.3,13.157a98.564,98.564,0,0,1-24.558,19.552c7.08.613,10.691,9.761,8.394,16.487s-8.318,11.367-14.03,15.6q-7.054,5.224-14.108,10.444c2.773.456,7.982-4.21,8.322,1.367s-8.2,12.2-13.161,17.745c-3.555,3.975-7.452,27.456-9.59,32.213.756-29.5,10.155-87.049,22.751-113.4" transform="translate(-6192.418 -6051.486)" fill="#bfe2e2" />
            <path d="M132.877,109.764C118.594,79.88,100.035,52.275,81.505,24.823c-1.614,10.45,6.672,19.556,14.3,26.875-4.612-.368-8.294,4.576-8.161,9.2s2.966,8.72,6.061,12.159a64.282,64.282,0,0,0,19.771,14.851c-4.15,1.178-15.633-2.486-13.3,13.157a98.564,98.564,0,0,0,24.558,19.552c-7.08.613-10.691,9.761-8.394,16.487s8.318,11.367,14.03,15.6q7.054,5.224,14.108,10.444c-2.773.456-7.982-4.21-8.322,1.367s8.2,12.2,13.161,17.745c3.555,3.975,7.452,27.456,9.59,32.213-.756-29.5-13.435-78.351-26.031-104.706" transform="translate(-6294.797 -6051.486)" fill="#bfe2e2" />
        </g>
        <g transform="translate(28 7)">
            <g transform="translate(9.336 200.609)">
                <path d="M0,0,45.866,116.089l30.763,98.143H88.777L41.747,0Z" transform="translate(109.133)" fill="#997659" />
                <path d="M87.319,0c-.488,40.794-7.611,95.717-8.749,98.26S0,162.935,0,162.935l8.367,8.953s91.363-53.271,95.591-60.376S121.95,39.027,133,0Z" transform="translate(12.577)" fill="#b28b67" />
                <path d="M36.778,204.123l57.756-6.268L51.73,0H0Z" transform="translate(103.193)" fill="#708daf" />
                <path d="M0,148.491l37.884,44.842s59.854-65.371,69.79-85.31S125.538,0,125.538,0H67.3S62.97,77.493,61.462,81.1,0,148.491,0,148.491Z" transform="translate(24.524)" fill="#96b7df" />
                <g transform="translate(14.795 155.099) rotate(50)">
                    <path d="M4.18,4.393a1.869,1.869,0,0,0-2.4,1.26L0,11.937a60.033,60.033,0,0,0,.842,7.377H53.549s2.054-6.792-2.372-7.334S43.823,11,43.823,11L19.325.081a.934.934,0,0,0-1.244.5L16.506,4.4s-4.1,1.912-6.66,1.912Z" transform="translate(0 0)" fill="#acb1bc" />
                </g>
                <g transform="translate(179.219 204.029)">
                    <path d="M4.18,4.725a1.869,1.869,0,0,0-2.4,1.26L0,12.269a60.033,60.033,0,0,0,.842,7.377H53.549s2.054-6.792-2.372-7.334-7.354-.978-7.354-.978L19.325.413a.934.934,0,0,0-1.244.5L16.506,4.73s-4.1,1.912-6.66,1.912Z" transform="translate(0 -0.332)" fill="#acb1bc" />
                </g>
            </g>
            <g transform="translate(103.769 38)">
                <path d="M17.865,59.828c0-.086-.01-.173-.014-.259A21.032,21.032,0,0,1,0,38.781V21.026A21.029,21.029,0,0,1,39.775,11.5a14.509,14.509,0,0,1,1.343,3.163c3.248,10.121,8.456,40.663,3.847,45.166Z" transform="translate(13.084)" fill="#313e58" />
                <g transform="translate(15.888 3.738)">
                    <path d="M0,68.217,7.721,32.23C3.415,27.176.5,20.981.987,14.041c1.4-20,29.242-15.6,34.657-5.505s4.772,35.7-2.226,37.5c-2.791.719-8.737-1.043-14.788-4.69l3.8,26.872Z" transform="translate(0 0)" fill="#b28b67" />
                </g>
                <path d="M27.211,58.441H.111a48.673,48.673,0,0,1,.153-8.478,23.308,23.308,0,0,1,1.362-5.769A21.835,21.835,0,0,1,6.4,37.128c3.339-3.682,6.791-7.489,6.791-19.464.235-.23.47-.462.7-.687.666-.659,1.293-1.279,1.923-1.841l-.03-.727a37.72,37.72,0,0,1,4.872-7.205,24.939,24.939,0,0,1,5.633-4.954A13.906,13.906,0,0,1,33.645,0c4.819,0,8.591,1,11.534,3.048a22.425,22.425,0,0,1,5.6,6.253l.007.01a10.974,10.974,0,0,1-4.269,5.918,39.373,39.373,0,0,1-7.015,3.8,61.417,61.417,0,0,0-6.829,3.506,5.14,5.14,0,1,0-3.239,9.131c.078,0,.156,0,.234-.005a103.473,103.473,0,0,1,.312,16.427c-.274,3.757-.977,8.6-2.772,10.358Z" transform="translate(0 0.934)" fill="#313e58" />
            </g>
            <path d="M29.944,78.894c-1.389-2.08-2.944-4.16-7.294-2.834-7.742,2.36-14.13,7.709-21.8,1.348-.943-.782-1.737-3.339,1.259-4.828,7.465-3.712,18.426-10.5,20.129-13.008C25.726,54.452,45.886,0,45.886,0L62.438,2.4S35.788,60.224,33.864,63.562c-2.887,5.006.508,13.725,1.835,18.341a5.611,5.611,0,0,1-1.552.243C32.012,82.145,31.029,80.519,29.944,78.894ZM194.506,40.408,165.914,26.139l7.71-15.79,28.209,23.915A80.24,80.24,0,0,1,221.479,43.8c1.2,1.255,2.576,3.722-2.7,2.943s-10.853-1.36-11.711.4,2.2,4.144.549,6.48a.692.692,0,0,1-.6.3Q204.475,53.925,194.506,40.408Z" transform="translate(15.389 172.567)" fill="#b28b67" />
            <path d="M0,4.273,9.921,0C26.81,33.409,50.41,65.1,87.42,90.372l-7.251,15.481C48.254,90.63,18.308,79.255,4.3,53.447-.4,44.785.623,15.067,0,4.273Z" transform="matrix(0.996, 0.087, -0.087, 0.996, 130.826, 100.837)" fill="#e4e6ea" />
            <path d="M0,101.2s44.068,4.672,69.373,0c2.09-.386,2.42-3.885,1.451-6.26C55.73,57.959,45.379,25.688,45.379,0,41.225,2.094,30.838.628,30.838.628,12.229,27.1,3.675,57.474,0,101.2Z" transform="translate(95.228 101.702)" fill="#e88a2d" />
            <path d="M21.113,201.966c2.007-41.943,17.471-92.1,33.491-134.692C42.782,79.035,28.977,98.749,17.82,131.568L0,126.994C18.16,48.741,71.365,8.384,81.69,1.18l.3-.7H82.7c.48-.324.734-.484.734-.484L83.41.484h7.755c1.806,10.621,7.5,154.436,25.084,201.481Z" transform="translate(38.03 99.626)" fill="#e4e6ea" />
        </g>
    </g>
</svg>