<svg xmlns="http://www.w3.org/2000/svg" xmlns:xlink="http://www.w3.org/1999/xlink" width="400"
    height="320" viewBox="0 0 400 320">
    <defs>
        <clipPath>
            <rect width="90.065" height="107.224" fill="#bfe2e2" />
        </clipPath>
        <clipPath>
            <rect width="400" height="320" />
        </clipPath>
    </defs>
    <g  clip-path="url(#c)">
        <path d="M400,1H0A1,1,0,0,1-1,0,1,1,0,0,1,0-1H400a1,1,0,0,1,1,1A1,1,0,0,1,400,1Z"
            transform="translate(0.5 158.5)" fill="#5ab3b3" />
        <path
            d="M206.2,135.322v-79.4c0-4.687-3.2-8.487-7.142-8.487H77.907c-3.944,0-7.142,3.8-7.142,8.487v79.4"
            transform="translate(85.563 46.325)" fill="#313e58" />
        <path d="M197,126.71v-72.3a1.4,1.4,0,0,0-1.321-1.469H78.137a1.4,1.4,0,0,0-1.321,1.469v72.3"
            transform="translate(87.14 48.607)" fill="#9183d8" />
        <path
            d="M218.438,109.6H63.172a1.329,1.329,0,0,0-1.321,1.336,10.558,10.558,0,0,0,10.5,10.617H209.261a10.558,10.558,0,0,0,10.5-10.617,1.329,1.329,0,0,0-1.321-1.336"
            transform="translate(83.241 73.805)" fill="#7a8293" />
        <path d="M137.8,112.78a3.748,3.748,0,0,0,3.4,2.921h23.174a3.748,3.748,0,0,0,3.4-2.921"
            transform="translate(75.9 72.84)" fill="#313e58" />
        <path d="M-484.32,2712.341H-528v-72.3a1.4,1.4,0,0,1,1.322-1.469h81.334l-38.975,73.771Z"
            transform="translate(691.956 -2537.024)" fill="#7468b4" />
        <path
            d="M-484.018,2712.841H-528.5v-72.8a1.9,1.9,0,0,1,1.822-1.969h82.164l-.388.734Zm-43.482-1h42.879l38.447-72.771h-80.5a.906.906,0,0,0-.822.969Z"
            transform="translate(691.956 -2537.024)" fill="rgba(0,0,0,0)" />
        <g transform="translate(-31.302 88.172)">
            <g transform="translate(0 0)" clip-path="url(#a)">
                <path d="M77.4,61.068c0,26.236-2.024,47.5-29.2,47.5S19,87.3,19,61.068"
                    transform="translate(-5.913 -1.348)" fill="#bfe2e2" />
                <path
                    d="M34.2,43.351A55.664,55.664,0,0,1,36.87,48.73a75.243,75.243,0,0,0-.73-11.373c-.948-6.569-2.395-13.1-3.755-19.626-.978-4.688-.916-13.109-4.627-16.846C26.74.08,26.5,1.662,26.5,2.352c-.013.146,0-2.806.991-2.292,5.868,3.1,7.772,12.849,9.651,17.73a95.6,95.6,0,0,1,6.031,21.816,49.887,49.887,0,0,1,.406,5.613c.2-.5.391-1,.595-1.5A101.841,101.841,0,0,1,57.834,20.353C59.239,18.554,76.887.8,78.269,3.521a1.857,1.857,0,0,1-.857.978c-.025.029-.026.014-.012-.031-1.037,1.712-3.984,4.357-4.9,5.857a114.32,114.32,0,0,0-5.93,11.713c-3.855,8.305-7.432,16.7-10.9,25.1-.807,1.956-1.649,3.906-2.506,5.847,8.847-13.048,20.651-24.9,36.9-31.68-5.55,2.888-9.192,8.32-12.936,12.479-4.52,5.017-9.281,9.9-13.81,14.91-5.341,5.912-11.627,12.137-16.765,18.678-4.977,10.685-9.813,21.382-12.8,32.615,1.223-3.88.1-9.243.305-13.316a91.854,91.854,0,0,1,1.044-9.667,20.155,20.155,0,0,0-1.413,4.243c.224-2.26.481-4.505.758-6.74-.711-2.092-1.408-4.043-1.88-5.65a147.156,147.156,0,0,0-9.21-24.252A217.57,217.57,0,0,0,11.047,23.092c-2.113-3.261-4.256-6.51-6.386-9.765C3.267,11.2,1.94,7.785,0,5.744,12.541,17.469,26.244,29.28,34.2,43.351"
                    transform="translate(0 0)" fill="#bfe2e2" />
            </g>
        </g>
        <g transform="translate(48 41)">
            <g transform="translate(47 11)">
                <path
                    d="M0,73,8.262,34.49C3.655,29.081.536,22.452,1.057,15.026c1.5-21.4,31.292-16.692,37.086-5.891s5.107,38.2-2.382,40.129c-2.987.77-9.349-1.116-15.825-5.019L24,73Z"
                    fill="#efc6a1" />
            </g>
            <path
                d="M52.365,54c-3.681,0-7.095-2.353-9.612-6.625A30.486,30.486,0,0,1,39,32.33c0-.385.008-.78.023-1.175a61.054,61.054,0,0,0-7.56,6.587,59.255,59.255,0,0,1-8.18,7.038A17.508,17.508,0,0,1,13.46,48c-3.72,0-7.181-1.914-9.745-5.391A19.638,19.638,0,0,1,0,31.177,15.694,15.694,0,0,1,.761,26.23a11.907,11.907,0,0,1,2.39-4.209A11.24,11.24,0,0,1,7.33,19.1,16.134,16.134,0,0,1,13.46,18c14.135,0,21.047,2.042,27.075,5.108a19.449,19.449,0,0,1,5.188-8.089,8.045,8.045,0,0,1,2.385-1.693A11.179,11.179,0,0,1,50.1,12.47,50.288,50.288,0,0,1,64.791,10c.786-.027,1.573-.041,2.338-.041.291,0,.584,0,.871.006A10,10,0,1,1,78.542,19.985a50.3,50.3,0,0,1-11.186,1.9A20.941,20.941,0,0,1,68,27.252a30.273,30.273,0,0,1-.558,5.578A4.658,4.658,0,0,0,64,31a5.905,5.905,0,0,0-4.327,1.842A6.1,6.1,0,0,0,58,37a7.715,7.715,0,0,0,1.545,4.878,5.5,5.5,0,0,0,4.024,2.107,26.843,26.843,0,0,1-5.176,7.15C56.358,53.036,54.33,54,52.365,54Z"
                transform="translate(0)" fill="#313e58" />
        </g>
        <path
            d="M23.707,4.356S37.415-.32,41.452.017,65.641,6.707,65.641,6.707s-2.231,3.531-18.09,0c-1.33,1.03,4.626,5.753-1.335,8.867S42.8,22.346,23.707,17.615c-2.215-.548-23.4,2.97-23.4,2.97s-.7-8.557,0-10.939C4.375,7.95,23.707,4.356,23.707,4.356Z"
            transform="matrix(1, -0.017, 0.017, 1, 173.448, 176.777)" fill="#efc6a1" />
        <path
            d="M397.678,1H0A1,1,0,0,1-1,0,1,1,0,0,1,0-1H397.678a1,1,0,0,1,1,1A1,1,0,0,1,397.678,1Z"
            transform="translate(0 224.525)" fill="#5ab3b3" />
        <path
            d="M397.678,1H0A1,1,0,0,1-1,0,1,1,0,0,1,0-1H397.678a1,1,0,0,1,1,1A1,1,0,0,1,397.678,1Z"
            transform="translate(0 236.525)" fill="#5ab3b3" />
        <g transform="translate(298 11.334)">
            <path
                d="M22.262-1A23.255,23.255,0,0,1,38.71,38.71,23.262,23.262,0,1,1,13.207.828,23.117,23.117,0,0,1,22.262-1Zm0,44.523A21.268,21.268,0,0,0,30.537,2.67,21.267,21.267,0,0,0,13.986,41.853,21.128,21.128,0,0,0,22.262,43.523Z"
                transform="translate(6.069 6.069)" fill="#5bb3b3" />
            <path
                d="M28.331-1A29.338,29.338,0,0,1,39.748,55.356,29.338,29.338,0,0,1,16.913,1.305,29.148,29.148,0,0,1,28.331-1Zm0,56.661A27.338,27.338,0,0,0,38.969,3.147,27.338,27.338,0,0,0,17.693,53.514,27.159,27.159,0,0,0,28.331,55.661Z"
                transform="translate(0)" fill="#5bb3b3" />
            <path
                d="M125.309,36.534a1,1,0,0,1-.7-1.718l9.573-9.282V8.66a1,1,0,0,1,2,0v17.3a1,1,0,0,1-.3.718L126,36.252A1,1,0,0,1,125.309,36.534Z"
                transform="translate(-107.006 2.523)" fill="#5bb3b3" />
        </g>
        <path
            d="M0,2.118,8.056,0C27.384,15.723,38.286,56.605,50.639,61.062c11.68,4.214,27.152-2.206,45.472-10.65l6.925,12.435c-15.559,20.1-50.8,39.007-66.421,31.338C11.635,81.924,1.677,31.2,0,2.118Z"
            transform="translate(114.337 111.222) rotate(11)" fill="#cc7a29" />
        <path
            d="M57.131,141.549c-1-12.65-2.861-56.444-1-76.715.785-8.557,1.633-16.7,2.465-23.927-17.858,32.116-47.08,79.1-47.08,79.1L0,114.743S13.566,70.049,22.247,51.638c9.91-21.017,19.2-39.015,23.112-45.355,6.151-9.971,16.86-6.492,22.518-.456C76.114.882,89.933,7.236,89.923,14.309,89.895,35.474,70.58,135.223,69.572,141.528c-.534,3.337-3.812,5.375-6.872,5.375C59.977,146.9,57.427,145.292,57.131,141.549Z"
            transform="translate(151.634 230.525)" fill="#b28b67" />
        <path
            d="M0,111.841,5.118,10.331c3.688-17.553,34.907-9.406,34.894,0-.029,21.355-12.857,95.127-12.866,101.489Z"
            transform="translate(190.709 223.626) rotate(20)" fill="#708daf" />
        <path
            d="M170.77,36.433c0,26.567-12.617,88.537-12.625,94.387L131,130.841S136.96,47.9,135.227,47s-71.051,6.921-91.84,6.921C13.408,53.925,1.006,35.02,0,0H59.386c12.092,1.294,75.162,14.015,98.586,18.388C168,20.261,170.77,29.115,170.77,36.433Z"
            transform="translate(73.557 215.597)" fill="#96b7df" />
        <path
            d="M0,114H77S50.837,34.208,50.27,4.472c-.019-1.011-1.886-2.792-2.712-2.558C38.5,4.472,28.172,0,28.172,0,9.917,29.358,3.6,65.5,0,114Z"
            transform="translate(73.557 110.597)" fill="#f2f2f2" />
        <path
            d="M1.421,138.606H42.478C76.459,138.606,67.857,69.432,44.8,0H32.867a5.417,5.417,0,0,0-4.941,3.377C12.038,34.024-5.1,94.784,1.421,138.606Z"
            transform="translate(63.487 110.597)" fill="#e88a2d" />
        <path
            d="M23.707,4.356S37.415-.32,41.452.017,65.641,6.707,65.641,6.707s-2.231,3.531-18.09,0c-1.33,1.03,4.626,5.753-1.335,8.867S42.8,22.346,23.707,17.615c-2.215-.548-23.4,2.97-23.4,2.97s-.7-8.557,0-10.939C4.375,7.95,23.707,4.356,23.707,4.356Z"
            transform="translate(156.44 188.557) rotate(-7)" fill="#efc6a1" />
        <path
            d="M0,2.119,8.056,0C27.384,15.723,38.286,56.605,50.639,61.062c11.68,4.214,27.152-2.206,45.472-10.65l6.925,12.435c-15.559,20.1-50.8,39.007-66.421,31.338C11.635,81.924,1.677,31.2,0,2.119Z"
            transform="translate(100.161 111.222) rotate(20)" fill="#e88a2d" />
        <g transform="translate(279.408 40.202)">
            <path
                d="M1.776,0A1.582,1.582,0,0,0,.12,1.443c-.48,4.991.5,24.14,2.612,51.224,1.953,24.99,4.347,49.783,5.957,61.694,3.045,22.526,6.687,46.777,10.609,55.849,3.655,8.455,10.292,19.474,19.728,32.751a44.809,44.809,0,0,0,7.132,7.405c2.7,2.329,5.97,4.852,9.465,7.295,3.008,2.1,6.08,4.076,8.652,5.559,2.437,1.4,4.148,2.205,4.694,2.2.122,0,.185-.044.189-.126.171-4.14-1.208-10.45-2.426-16.017-.616-2.819-1.2-5.481-1.512-7.562a47.8,47.8,0,0,0-5.46-15.834A79.636,79.636,0,0,0,49.4,171.367c-4-4.557-9.039-9.62-16.151-12.626a29.073,29.073,0,0,0-5.536-1.5,32.682,32.682,0,0,1-4.7-1.189c-.585-.214-1.034-.369-1.362-.482-1.063-.367-1.063-.367-1.182-.8a6.391,6.391,0,0,0-.764-1.726c-1.748-2.984-2.521-6.594-3.267-10.086-.215-1.007-.419-1.958-.643-2.883-2.2-9.069-5.83-37.508-8.819-69.161C5.471,55.052,4.333,40.42,3.678,28.6,2.931,15.122,2.839,5.979,3.4,1.422A1.1,1.1,0,0,0,3.087.478,1.825,1.825,0,0,0,1.776,0Z"
                transform="translate(92.874 234.003) rotate(-170)" fill="#bfe2e2" />
            <path
                d="M1.81-.5A2.3,2.3,0,0,1,3.442.126,1.608,1.608,0,0,1,3.9,1.484c-.562,4.526-.469,13.64.276,27.086.655,11.816,1.792,26.441,3.29,42.3,2.987,31.631,6.609,60.042,8.807,69.09.226.932.43,1.886.646,2.9.739,3.453,1.5,7.023,3.21,9.938a6.842,6.842,0,0,1,.815,1.848c.015.054.033.12.045.153a6.6,6.6,0,0,0,.817.31c.333.115.784.27,1.371.485a32.314,32.314,0,0,0,4.629,1.169,29.445,29.445,0,0,1,5.633,1.528c7.2,3.046,12.3,8.158,16.332,12.757a80.124,80.124,0,0,1,10.43,14.6,48.285,48.285,0,0,1,5.515,16c.311,2.064.891,4.718,1.506,7.529,1.224,5.6,2.611,11.941,2.437,16.145a.641.641,0,0,1-.68.605h-.017c-.669,0-2.329-.762-4.934-2.263-2.584-1.49-5.67-3.472-8.689-5.582-3.509-2.453-6.8-4.986-9.506-7.326a45.284,45.284,0,0,1-7.213-7.494c-9.456-13.306-16.111-24.355-19.779-32.842-3.946-9.127-7.6-33.42-10.646-55.98C6.583,102.508,4.188,77.7,2.234,52.706.116,25.595-.861,6.413-.377,1.395A2.079,2.079,0,0,1,1.768-.5ZM68.672,224.855c.066-4.078-1.256-10.122-2.426-15.475-.618-2.827-1.2-5.5-1.518-7.594a47.3,47.3,0,0,0-5.405-15.671A79.146,79.146,0,0,0,49.02,171.7c-3.958-4.514-8.951-9.528-15.97-12.5a28.71,28.71,0,0,0-5.441-1.468,33.042,33.042,0,0,1-4.776-1.21c-.578-.212-1.024-.366-1.349-.478-1.09-.376-1.316-.454-1.5-1.147a5.94,5.94,0,0,0-.713-1.6c-1.789-3.053-2.57-6.7-3.325-10.234-.215-1-.417-1.951-.64-2.87-2.208-9.089-5.84-37.558-8.831-69.232-1.5-15.867-2.637-30.505-3.293-42.334C2.43,15.119,2.339,5.946,2.909,1.361A.6.6,0,0,0,2.732.83,1.335,1.335,0,0,0,1.81.5H1.784a1.1,1.1,0,0,0-1.166.99c-.478,4.964.5,24.081,2.613,51.137,1.952,24.982,4.345,49.763,5.954,61.666,3.041,22.493,6.675,46.7,10.573,55.717,3.641,8.423,10.261,19.411,19.676,32.66a44.334,44.334,0,0,0,7.051,7.316c2.684,2.318,5.943,4.83,9.425,7.264,3,2.094,6.056,4.06,8.616,5.535A24.686,24.686,0,0,0,68.672,224.855Z"
                transform="translate(92.874 234.003) rotate(-170)" fill="rgba(0,0,0,0)" />
            <path
                d="M85.517,106.864c5.235,2.615,60.591,40.827,63.237,37.733-25.8-37.521-48.075-44.986-51.87-47.089a11.4,11.4,0,0,0-12.55.707c-1.792-1.514-3.467-3.1-5.079-4.437-4.912-4.074-9.549-8.25-13.976-12.53-9.2-8.89-17.045-18.313-25.263-27.554C31.906,44.573,23.863,35.4,16.532,26.035,10.321,18.1,2.021,8.777,0,0,2.974,18.636,15.179,36.4,29.8,52.638c14.5,16.1,31.158,33.68,53.827,46.211C81.255,101.27,81.131,104.675,85.517,106.864Z"
                transform="matrix(-0.848, -0.53, 0.53, -0.848, 72.574, 263.117)" fill="#bfe2e2" />
            <path
                d="M84,0H78.832c-2.415,7.561-5.345,15.407-8.711,23.32-.433,1.02-.853,2.072-1.3,3.186l-.008.022c-1.55,3.89-3.15,7.909-5.568,11.106a8.858,8.858,0,0,0-1.153,1.877c-.219.484-.219.484-1.352.783-.324.086-.815.215-1.451.4a30.881,30.881,0,0,1-4.9.825A27.656,27.656,0,0,0,48.581,42.6c-7.7,2.623-13.848,7.819-18.845,12.556A105.447,105.447,0,0,0,16.149,70.5,66.908,66.908,0,0,0,7.083,87.9a135.433,135.433,0,0,0-5.717,21.006c-.047.275-.147.719-.273,1.281l-.013.056c-.617,2.732-1.764,7.817-.537,9.183a1.013,1.013,0,0,0,.784.34,1.569,1.569,0,0,0,.248-.021c3.76-.612,9.213-5.962,13.594-10.261,1.477-1.449,2.752-2.7,3.8-3.612a143.662,143.662,0,0,0,13.61-13.621A227.976,227.976,0,0,0,56.667,59.615,297.06,297.06,0,0,0,71.832,31.267,260.091,260.091,0,0,0,83.466,1.678C83.636,1.154,83.814.59,84,0Z"
                transform="translate(178.025 231.144) rotate(180)" fill="#bfe2e2" />
            <path
                d="M78.466-.5h6.3l-.3.679c-.2.64-.372,1.181-.525,1.654A260.591,260.591,0,0,1,72.285,31.478a297.562,297.562,0,0,1-15.19,28.4A228.481,228.481,0,0,1,32.958,92.582,144.155,144.155,0,0,1,19.3,106.25c-1.041.9-2.31,2.149-3.779,3.591-4.431,4.349-9.946,9.761-13.864,10.4a2.079,2.079,0,0,1-.328.027,1.514,1.514,0,0,1-1.155-.505c-.649-.723-.824-2.144-.549-4.473a51.792,51.792,0,0,1,.969-5.155l.015-.066c.124-.55.221-.985.265-1.245A135.875,135.875,0,0,1,6.61,87.74a67.4,67.4,0,0,1,9.132-17.528A105.937,105.937,0,0,1,29.393,54.795c5.035-4.774,11.234-10.012,19.028-12.666a28.045,28.045,0,0,1,5.911-1.11,30.514,30.514,0,0,0,4.823-.809c.606-.173,1.088-.3,1.407-.385l.053-.014a5.7,5.7,0,0,0,.9-.271c.023-.013.035-.027.129-.235a9.3,9.3,0,0,1,1.21-1.972c2.376-3.142,3.964-7.128,5.5-10.983l.011-.028c.479-1.2.88-2.2,1.3-3.2,3.357-7.892,6.283-15.724,8.7-23.276Zm4.851,1H79.2c-2.4,7.475-5.3,15.216-8.616,23.015-.417.982-.815,1.975-1.291,3.172l-.012.032c-1.56,3.917-3.174,7.967-5.631,11.216a8.4,8.4,0,0,0-1.1,1.781c-.318.7-.5.749-1.68,1.061l-.053.014c-.315.083-.791.209-1.388.38a31.229,31.229,0,0,1-4.98.841,27.313,27.313,0,0,0-5.706,1.063c-7.612,2.592-13.705,7.746-18.662,12.445A104.957,104.957,0,0,0,16.557,70.791a66.417,66.417,0,0,0-9,17.271,134.987,134.987,0,0,0-5.7,20.928c-.049.287-.149.733-.276,1.3l-.015.067a51,51,0,0,0-.951,5.052c-.3,2.579.056,3.417.3,3.686a.577.577,0,0,0,.581.16c3.6-.586,8.993-5.875,13.323-10.124,1.481-1.453,2.76-2.708,3.824-3.632A143.171,143.171,0,0,0,32.208,91.921,227.479,227.479,0,0,0,56.239,59.356a296.556,296.556,0,0,0,15.139-28.3A259.591,259.591,0,0,0,82.99,1.525C83.09,1.215,83.2.877,83.317.5Z"
                transform="translate(178.025 231.144) rotate(180)" fill="rgba(0,0,0,0)" />
            <path
                d="M85.8,0H78.343c-.1,2.018-.187,3.952-.247,5.751-.425,12.538-1.578,25.774-3.629,41.655-1.484,11.5-3.811,23.131-6.061,34.379l-.005.026c-.346,1.73-.755,3.773-1.157,5.805-1.116,5.638-2.356,11.649-4.018,19.49-.112.525-.206,1.326-.315,2.254l0,.017c-.284,2.436-.674,5.772-1.748,6.733-.864.773-3.754,1.275-6.549,1.762a29.9,29.9,0,0,0-4.918,1.091,62.851,62.851,0,0,0-13.309,7.717A93.321,93.321,0,0,0,16.8,147.03a86.571,86.571,0,0,0-13.052,27.5A104.784,104.784,0,0,0,.009,204.041c.014,1.11.658,5.433,1.474,10.907v.007c2.013,13.5,5.055,33.9,2.967,34.3a7.324,7.324,0,0,1,.5.537c2.419-3.364,4.8-6.773,6.605-9.366a372.782,372.782,0,0,0,25.62-42.678,321.034,321.034,0,0,0,18.952-44.982c6.074-18.351,10.382-37.428,14.549-55.876v-.007l.034-.152C77.367,67.27,83.483,38.4,85.231,9.133c.156-2.615.335-5.4.492-7.856L85.8,0Z"
                transform="translate(165.483 253.166) rotate(180)" fill="#bfe2e2" />
            <path
                d="M77.868-.5H86.3V.033l-.081,1.276c-.157,2.454-.336,5.236-.492,7.854-1.75,29.3-7.869,58.193-14.526,87.677l-.04.179c-4.168,18.453-8.478,37.535-14.558,55.9a321.531,321.531,0,0,1-18.981,45.053A373.273,373.273,0,0,1,11.971,240.71c-1.8,2.581-4.168,5.978-6.61,9.373l-.373.519-.414-.487a6.822,6.822,0,0,0-.47-.5l-.7-.67.9-.172c.086-.111.413-.736.328-3.774-.057-2.062-.294-4.948-.7-8.577-.757-6.713-1.97-14.848-2.945-21.386l0-.014c-.818-5.493-1.465-9.83-1.479-10.974A105.285,105.285,0,0,1,3.267,174.4a87.072,87.072,0,0,1,13.128-27.662,93.826,93.826,0,0,1,19.693-20.462A63.34,63.34,0,0,1,49.5,118.5a29.993,29.993,0,0,1,5.022-1.121c2.472-.43,5.544-.964,6.3-1.642.933-.835,1.341-4.33,1.585-6.418l.01-.086c.107-.91.2-1.7.314-2.231,1.67-7.876,2.908-13.885,4.016-19.482.4-2.014.8-4,1.148-5.76l.015-.073c2.248-11.237,4.572-22.856,6.055-34.343,2.049-15.858,3.2-29.079,3.625-41.608.06-1.809.144-3.747.247-5.76Zm7.4,1H78.818c-.092,1.837-.167,3.606-.222,5.268-.426,12.561-1.58,25.812-3.633,41.7C73.475,58.992,71.148,70.629,68.9,81.883l-.015.072c-.351,1.755-.749,3.745-1.148,5.758-1.109,5.6-2.348,11.615-4.019,19.5-.1.49-.195,1.255-.3,2.14l-.009.081c-.381,3.265-.788,6.046-1.912,7.052-.971.868-3.8,1.36-6.793,1.881a29.872,29.872,0,0,0-4.817,1.061,62.347,62.347,0,0,0-13.2,7.656,92.82,92.82,0,0,0-19.477,20.243A86.075,86.075,0,0,0,4.23,174.668,104.285,104.285,0,0,0,.509,204.034c.013,1.076.655,5.381,1.467,10.832l0,.014C2.99,221.665,4.249,230.11,5,236.963c.415,3.778.627,6.61.649,8.657a16.2,16.2,0,0,1-.125,2.516c2.087-2.922,4.071-5.765,5.623-8a372.268,372.268,0,0,0,25.585-42.621,320.533,320.533,0,0,0,18.922-44.912c6.064-18.321,10.369-37.379,14.531-55.808l.04-.179C76.876,67.178,82.987,38.33,84.732,9.1c.157-2.621.335-5.4.492-7.859Z"
                transform="translate(165.483 253.166) rotate(180)" fill="rgba(0,0,0,0)" />
            <path
                d="M.061,0h0A128.5,128.5,0,0,0,.615,16.276,164.1,164.1,0,0,0,3.041,32.547a243.947,243.947,0,0,0,8.767,31.671c2.394,6.974,5.262,14.161,8.77,21.969,2.89,6.434,6.188,13.241,10.377,21.419.34.664.711,1.357,1.1,2.091l0,0c1.626,3.038,3.468,6.481,4.026,9.557.335,1.853-.388,3.66-1.153,5.574-.333.832-.676,1.692-.932,2.566a71.449,71.449,0,0,0-.971,34.441c1.287,6.012,3.954,10.445,8.154,13.553,4.015,2.971,9.505,4.772,16.784,5.505,4.658.469,29.3,23.161,34.188,27.705l.016-.653c-4.049-7.484-24.357-44.989-26.541-48.422-4.871-7.658-10-15.833-14.493-24.184-6.143-11.421-11-20.888-15.284-29.795A488.691,488.691,0,0,1,14.263,53.775C11.146,44.8,8.392,35.839,6.077,27.138,3.651,18.021,1.627,8.891.061,0Z"
                transform="translate(89.434 266.522) rotate(-166)" fill="#bfe2e2" />
            <path
                d="M.47-.548l.083.461C2.117,8.79,4.138,17.906,6.56,27.009c2.312,8.689,5.062,17.639,8.175,26.6A488.191,488.191,0,0,0,36.3,105.33c4.28,8.9,9.134,18.361,15.273,29.775,4.484,8.337,9.609,16.5,14.475,24.153,2.2,3.456,22.51,40.968,26.559,48.453l.063.117-.045,1.9-.814-.756c-2.145-1.993-9.723-8.99-17.166-15.367-12.109-10.374-15.68-12.1-16.731-12.207-7.371-.742-12.942-2.574-17.031-5.6-4.3-3.184-7.032-7.714-8.345-13.85a71.957,71.957,0,0,1,.98-34.687c.262-.9.611-1.768.948-2.61.738-1.845,1.434-3.587,1.125-5.3-.543-3-2.366-6.4-3.974-9.41l0,0c-.394-.736-.765-1.43-1.109-2.1-4.193-8.187-7.494-15-10.388-21.443-3.514-7.823-6.388-15.023-8.787-22.012A244.433,244.433,0,0,1,2.551,32.644,164.589,164.589,0,0,1,.117,16.323,129,129,0,0,1-.441-.016L-.427-.45ZM91.018,206.867c-5.293-9.779-23.736-43.814-25.809-47.072C60.334,152.13,55.2,143.946,50.7,135.579c-6.147-11.428-11.007-20.9-15.294-29.815A489.175,489.175,0,0,1,13.791,53.939c-3.121-8.986-5.879-17.96-8.2-26.672C3.624,19.865,1.919,12.454.509,5.17c.043,3.6.245,7.3.6,11.058A163.6,163.6,0,0,0,3.532,32.449a243.455,243.455,0,0,0,8.75,31.606c2.389,6.96,5.252,14.132,8.753,21.927,2.887,6.426,6.18,13.225,10.365,21.4.339.662.709,1.352,1.1,2.083l0,0c1.644,3.072,3.506,6.552,4.077,9.705.36,1.994-.388,3.866-1.181,5.848-.328.821-.668,1.67-.917,2.521a70.941,70.941,0,0,0-.961,34.2c1.26,5.887,3.865,10.223,7.962,13.255,3.941,2.916,9.35,4.686,16.536,5.41,1.18.119,3.426,1.422,6.868,3.984,2.743,2.043,6.247,4.888,10.414,8.458C81.494,198.147,87.639,203.75,91.018,206.867Z"
                transform="translate(89.434 266.522) rotate(-166)" fill="rgba(0,0,0,0)" />
            <path
                d="M77.914,7.278C78.4,3.443,75.866,0,72.568,0H6.195C2.9,0,.368,3.443.849,7.278l5.13,40.89c1.564,12.465,10.664,21.7,21.383,21.7H51.4c10.719,0,19.819-9.235,21.383-21.7Z"
                transform="translate(51.916 222.718)" fill="#bfe2e2" />
        </g>
        <path
            d="M5023.7,7308.183l67.062-2a24.075,24.075,0,0,0,13.934-4.126c3.723-2.661,5.772-6.2,5.772-9.961v-81.007c0-3.763-2.049-7.3-5.772-9.961a24.084,24.084,0,0,0-13.934-4.125H5023.7a24.078,24.078,0,0,0-13.932,4.125c-3.723,2.661-5.771,6.2-5.771,9.961V7292.1c0,3.763,2.049,7.3,5.771,9.961S5018.438,7308.183,5023.7,7308.183Zm55.18-91.476c2.716,0,4.926,1.58,4.926,3.522v46.83c0,1.942-2.21,3.521-4.926,3.521h-43.3c-2.716,0-4.926-1.58-4.926-3.521v-46.83c0-1.942,2.21-3.522,4.926-3.522Z"
            transform="translate(-4953.747 -6927.892)" fill="#bfe2e2" />
        <path
            d="M5023.709,7308.683h-.007a17.126,17.126,0,0,1-7.771-2.12,51.171,51.171,0,0,1-6.452-4.1c-3.856-2.757-5.98-6.439-5.98-10.368v-81.007c0-3.93,2.124-7.612,5.981-10.368a24.576,24.576,0,0,1,14.222-4.219h67.062a24.581,24.581,0,0,1,14.224,4.219c3.857,2.757,5.981,6.439,5.981,10.368V7292.1c0,3.929-2.124,7.61-5.981,10.368a24.575,24.575,0,0,1-14.217,4.22ZM5023.7,7197.5a23.574,23.574,0,0,0-13.641,4.032c-3.587,2.563-5.562,5.957-5.562,9.555V7292.1c0,3.6,1.976,6.99,5.563,9.554a50.3,50.3,0,0,0,6.323,4.022,16.167,16.167,0,0,0,7.31,2.011l67.069-2a23.572,23.572,0,0,0,13.643-4.033c3.587-2.564,5.563-5.958,5.563-9.554v-81.007c0-3.6-1.976-6.991-5.562-9.555a23.583,23.583,0,0,0-13.643-4.032Zm55.18,73.579h-43.3a6.518,6.518,0,0,1-3.772-1.126,3.579,3.579,0,0,1-1.654-2.9v-46.83a3.58,3.58,0,0,1,1.654-2.9,6.516,6.516,0,0,1,3.772-1.126h43.3a6.516,6.516,0,0,1,3.772,1.126,3.58,3.58,0,0,1,1.654,2.9v46.83a3.579,3.579,0,0,1-1.654,2.9A6.518,6.518,0,0,1,5078.882,7271.08Zm-43.3-53.874a5.512,5.512,0,0,0-3.19.939,2.612,2.612,0,0,0-1.235,2.083v46.83a2.611,2.611,0,0,0,1.235,2.082,5.512,5.512,0,0,0,3.19.939h43.3a5.512,5.512,0,0,0,3.19-.939,2.611,2.611,0,0,0,1.235-2.082v-46.83a2.612,2.612,0,0,0-1.235-2.083,5.512,5.512,0,0,0-3.19-.939Z"
            transform="translate(-4953.747 -6927.892)" fill="rgba(0,0,0,0)" />
        <g transform="translate(164.191 9.554)">
            <path
                d="M102.846,1H0A1,1,0,0,1-1,0,1,1,0,0,1,0-1H102.846a1,1,0,0,1,1,1A1,1,0,0,1,102.846,1Z"
                transform="translate(0 62.221)" fill="#5ab3b3" />
            <path
                d="M2.744-1h7.01A3.748,3.748,0,0,1,13.5,2.744V53.815a3.748,3.748,0,0,1-3.744,3.744H2.744A3.748,3.748,0,0,1-1,53.815V2.744A3.748,3.748,0,0,1,2.744-1Zm7.01,56.559A1.746,1.746,0,0,0,11.5,53.815V2.744A1.746,1.746,0,0,0,9.754,1H2.744A1.746,1.746,0,0,0,1,2.744V53.815a1.746,1.746,0,0,0,1.744,1.744Z"
                transform="translate(53.653 0.591)" fill="#5ab3b3" />
            <g transform="translate(57.615 26.271)">
                <path
                    d="M4.572,1H0A1,1,0,0,1-1,0,1,1,0,0,1,0-1H4.572a1,1,0,0,1,1,1A1,1,0,0,1,4.572,1Z"
                    transform="translate(0)" fill="#5ab3b3" />
                <path
                    d="M4.572,1H0A1,1,0,0,1-1,0,1,1,0,0,1,0-1H4.572a1,1,0,0,1,1,1A1,1,0,0,1,4.572,1Z"
                    transform="translate(0 5.114)" fill="#5ab3b3" />
            </g>
            <path
                d="M2.744-1h7.01A3.748,3.748,0,0,1,13.5,2.744V53.815a3.748,3.748,0,0,1-3.744,3.744H2.744A3.748,3.748,0,0,1-1,53.815V2.744A3.748,3.748,0,0,1,2.744-1Zm7.01,56.559A1.746,1.746,0,0,0,11.5,53.815V2.744A1.746,1.746,0,0,0,9.754,1H2.744A1.746,1.746,0,0,0,1,2.744V53.815a1.746,1.746,0,0,0,1.744,1.744Z"
                transform="translate(71.265 3.659) rotate(-17.026)" fill="#5ab3b3" />
            <g transform="translate(82.574 25.715)">
                <path
                    d="M0,2.339a1,1,0,0,1-.956-.707A1,1,0,0,1-.293.383L4.079-.956a1,1,0,0,1,1.249.663A1,1,0,0,1,4.665.956L.293,2.295A1,1,0,0,1,0,2.339Z"
                    transform="translate(0)" fill="#5ab3b3" />
                <path
                    d="M0,2.339a1,1,0,0,1-.956-.707A1,1,0,0,1-.293.383L4.079-.956a1,1,0,0,1,1.249.663A1,1,0,0,1,4.665.956L.293,2.295A1,1,0,0,1,0,2.339Z"
                    transform="translate(1.497 4.889)" fill="#5ab3b3" />
            </g>
            <path
                d="M2.744-1h7.01A3.748,3.748,0,0,1,13.5,2.744V53.815a3.748,3.748,0,0,1-3.744,3.744H2.744A3.748,3.748,0,0,1-1,53.815V2.744A3.748,3.748,0,0,1,2.744-1Zm7.01,56.559A1.746,1.746,0,0,0,11.5,53.815V2.744A1.746,1.746,0,0,0,9.754,1H2.744A1.746,1.746,0,0,0,1,2.744V53.815a1.746,1.746,0,0,0,1.744,1.744Z"
                transform="translate(36.394 0.591)" fill="#5ab3b3" />
            <g transform="translate(40.357 26.271)">
                <path
                    d="M4.572,1H0A1,1,0,0,1-1,0,1,1,0,0,1,0-1H4.572a1,1,0,0,1,1,1A1,1,0,0,1,4.572,1Z"
                    transform="translate(0)" fill="#5ab3b3" />
                <path
                    d="M4.572,1H0A1,1,0,0,1-1,0,1,1,0,0,1,0-1H4.572a1,1,0,0,1,1,1A1,1,0,0,1,4.572,1Z"
                    transform="translate(0 5.114)" fill="#5ab3b3" />
            </g>
            <path
                d="M2.744-1h7.01A3.748,3.748,0,0,1,13.5,2.744V53.815a3.748,3.748,0,0,1-3.744,3.744H2.744A3.748,3.748,0,0,1-1,53.815V2.744A3.748,3.748,0,0,1,2.744-1Zm7.01,56.559A1.746,1.746,0,0,0,11.5,53.815V2.744A1.746,1.746,0,0,0,9.754,1H2.744A1.746,1.746,0,0,0,1,2.744V53.815a1.746,1.746,0,0,0,1.744,1.744Z"
                transform="translate(1 0.591)" fill="#5ab3b3" />
            <path
                d="M2.744-1h7.01A3.748,3.748,0,0,1,13.5,2.744V53.815a3.748,3.748,0,0,1-3.744,3.744H2.744A3.748,3.748,0,0,1-1,53.815V2.744A3.748,3.748,0,0,1,2.744-1Zm7.01,56.559A1.746,1.746,0,0,0,11.5,53.815V2.744A1.746,1.746,0,0,0,9.754,1H2.744A1.746,1.746,0,0,0,1,2.744V53.815a1.746,1.746,0,0,0,1.744,1.744Z"
                transform="translate(19.136 0.591)" fill="#5ab3b3" />
            <g transform="translate(4.962 26.271)">
                <path
                    d="M4.572,1H0A1,1,0,0,1-1,0,1,1,0,0,1,0-1H4.572a1,1,0,0,1,1,1A1,1,0,0,1,4.572,1Z"
                    fill="#5ab3b3" />
                <path
                    d="M4.572,1H0A1,1,0,0,1-1,0,1,1,0,0,1,0-1H4.572a1,1,0,0,1,1,1A1,1,0,0,1,4.572,1Z"
                    transform="translate(0 5.114)" fill="#5ab3b3" />
            </g>
            <g transform="translate(23.099 26.271)">
                <path
                    d="M4.572,1H0A1,1,0,0,1-1,0,1,1,0,0,1,0-1H4.572a1,1,0,0,1,1,1A1,1,0,0,1,4.572,1Z"
                    fill="#5ab3b3" />
                <path
                    d="M4.572,1H0A1,1,0,0,1-1,0,1,1,0,0,1,0-1H4.572a1,1,0,0,1,1,1A1,1,0,0,1,4.572,1Z"
                    transform="translate(0 5.114)" fill="#5ab3b3" />
            </g>
        </g>
        <path d="M2352-74V-90a6,6,0,0,1,6-6h46a6,6,0,0,1,6,6v16a6,6,0,0,1-6,6h-44.143L2352-57Z"
            transform="translate(-2179 203)" fill="#fff" />
        <path d="M2407.857-72H2364a6,6,0,0,1-6-6v-9a6,6,0,0,1,6-6h45a6,6,0,0,1,6,6v25Z"
            transform="translate(-2140 234)" fill="#fff" />
        <g transform="translate(-3 1)">
            <path d="M41,1H0A1,1,0,0,1-1,0,1,1,0,0,1,0-1H41a1,1,0,0,1,1,1A1,1,0,0,1,41,1Z"
                transform="translate(184.5 120.5)" fill="#313e58" />
            <path d="M41,1H0A1,1,0,0,1-1,0,1,1,0,0,1,0-1H41a1,1,0,0,1,1,1A1,1,0,0,1,41,1Z"
                transform="translate(184.5 113.5)" fill="#313e58" />
            <path d="M22,1H0A1,1,0,0,1-1,0,1,1,0,0,1,0-1H22a1,1,0,0,1,1,1A1,1,0,0,1,22,1Z"
                transform="translate(184.5 127.5)" fill="#313e58" />
        </g>
        <g transform="translate(4.774)">
            <path d="M41,1H0A1,1,0,0,1-1,0,1,1,0,0,1,0-1H41a1,1,0,0,1,1,1A1,1,0,0,1,41,1Z"
                transform="translate(221.057 154.5)" fill="#313e58" />
            <path d="M41,1H0A1,1,0,0,1-1,0,1,1,0,0,1,0-1H41a1,1,0,0,1,1,1A1,1,0,0,1,41,1Z"
                transform="translate(221.057 147.5)" fill="#313e58" />
        </g>
    </g>
</svg>