<svg xmlns="http://www.w3.org/2000/svg" xmlns:xlink="http://www.w3.org/1999/xlink" width="400" height="320" viewBox="0 0 400 320">
    <defs>
        <clipPath>
            <rect width="400" height="320" />
        </clipPath>
    </defs>
    <g clip-path="url(#b)">
        <rect width="400" height="320" fill="transparent" />
        <path d="M183.7,134.877H148.6a1,1,0,0,1-1-1v-8.869a1,1,0,0,1,1-1h27.808a1,1,0,0,1,0,2H149.6v6.869h34.1a1,1,0,0,1,0,2Z" transform="translate(17.84 28.142)" fill="#5bb3b3" />
        <path d="M397.041,190.564h0l-100.426-.116a1,1,0,0,1,0-2h0l99.425.115V53.3H260.992v68.6a1,1,0,1,1-2,0V52.3a1,1,0,0,1,1-1H397.041a1,1,0,0,1,1,1V189.564a1,1,0,0,1-1,1Z" transform="translate(-64.896 -0.863)" fill="#5bb3b3" />
        <path d="M425.884,138.327a1,1,0,0,1-1-1V59.689H376.809a1,1,0,0,1,0-2h49.075a1,1,0,0,1,1,1v78.638A1,1,0,0,1,425.884,138.327Z" transform="translate(-44.665 -0.134)" fill="#5bb3b3" />
        <path d="M0-1H37.83a1,1,0,0,1,1,1V36.492a1,1,0,0,1-1,1H0a1,1,0,0,1-1-1V0A1,1,0,0,1,0-1ZM36.83,1H1V35.492H36.83Z" transform="translate(225.273 74.322)" fill="#5bb3b3" />
        <path d="M0-1H79.82a1,1,0,0,1,1,1V36.492a1,1,0,0,1-1,1H0a1,1,0,0,1-1-1V0A1,1,0,0,1,0-1ZM78.82,1H1V35.492H78.82Z" transform="translate(225.273 116.467)" fill="#5bb3b3" />
        <path d="M0-1H37.83a1,1,0,0,1,1,1V36.492a1,1,0,0,1-1,1H0a1,1,0,0,1-1-1V0A1,1,0,0,1,0-1ZM36.83,1H1V35.492H36.83Z" transform="translate(268.197 74.322)" fill="#5bb3b3" />
        <path d="M415.224,144.194H377.248a1,1,0,0,1,0-2h36.976V90.981H376.961a1,1,0,0,1,0-2h38.263a1,1,0,0,1,1,1v53.214A1,1,0,0,1,415.224,144.194Z" transform="translate(-44.647 3.436)" fill="#5bb3b3" />
        <path d="M29.148,1H0A1,1,0,0,1-1,0,1,1,0,0,1,0-1H29.148a1,1,0,0,1,1,1A1,1,0,0,1,29.148,1Z" transform="translate(370.991 137.761)" fill="#5bb3b3" />
        <path d="M67.4,1H0A1,1,0,0,1-1,0,1,1,0,0,1,0-1H67.4a1,1,0,0,1,1,1A1,1,0,0,1,67.4,1Z" transform="translate(332.145 160.229)" fill="#5bb3b3" />
        <path d="M72.048,1H0A1,1,0,0,1-1,0,1,1,0,0,1,0-1H72.048a1,1,0,0,1,1,1A1,1,0,0,1,72.048,1Z" transform="translate(327.5 249.229)" fill="#5bb3b3" />
        <path d="M0,49.967a1,1,0,0,1-1-1V0A1,1,0,0,1,0-1,1,1,0,0,1,1,0V48.967A1,1,0,0,1,0,49.967Z" transform="translate(326.399 189.309)" fill="#5bb3b3" />
        <path d="M443.822,226.919H383.178a1,1,0,0,1-1-1V159.684a1,1,0,0,1,1-1h60.848a1,1,0,0,1,0,2H384.178v64.235h59.643a1,1,0,0,1,0,2Z" transform="translate(-43.938 11.388)" fill="#5bb3b3" />
        <path d="M0,20.58a1,1,0,0,1-1-1V0A1,1,0,0,1,0-1,1,1,0,0,1,1,0V19.58A1,1,0,0,1,0,20.58Z" transform="translate(242.617 189.27)" fill="#5bb3b3" />
        <path d="M0,17.979a1,1,0,0,1-1-1V0A1,1,0,0,1,0-1,1,1,0,0,1,1,0V16.979A1,1,0,0,1,0,17.979Z" transform="translate(253.089 188.664)" fill="#5bb3b3" />
        <path d="M0,21.065a1,1,0,0,1-1-1V0A1,1,0,0,1,0-1,1,1,0,0,1,1,0V20.065A1,1,0,0,1,0,21.065Z" transform="translate(263.563 188.664)" fill="#5bb3b3" />
        <path d="M0,24.631a1,1,0,0,1-1-1V0A1,1,0,0,1,0-1,1,1,0,0,1,1,0V23.631A1,1,0,0,1,0,24.631Z" transform="translate(274.035 188.664)" fill="#5bb3b3" />
        <path d="M0,21.777a1,1,0,0,1-1-1V0A1,1,0,0,1,0-1,1,1,0,0,1,1,0V20.777A1,1,0,0,1,0,21.777Z" transform="translate(284.508 188.664)" fill="#5bb3b3" />
        <path d="M0,32.664a1,1,0,0,1-1-1V0A1,1,0,0,1,0-1,1,1,0,0,1,1,0V31.664A1,1,0,0,1,0,32.664Z" transform="translate(294.98 188.664)" fill="#5bb3b3" />
        <path d="M0,31.579a1,1,0,0,1-1-1V0A1,1,0,0,1,0-1,1,1,0,0,1,1,0V30.579A1,1,0,0,1,0,31.579Z" transform="translate(305.453 188.664)" fill="#5bb3b3" />
        <path d="M0,38.18a1,1,0,0,1-1-1V0A1,1,0,0,1,0-1,1,1,0,0,1,1,0V37.18A1,1,0,0,1,0,38.18Z" transform="translate(315.926 188.664)" fill="#5bb3b3" />
        <path d="M37.223,1H0A1,1,0,0,1-1,0,1,1,0,0,1,0-1H37.223a1,1,0,0,1,1,1A1,1,0,0,1,37.223,1Z" transform="translate(332.375 120.354)" fill="#5bb3b3" />
        <path d="M0,26.218a1,1,0,0,1-1-1V0A1,1,0,0,1,0-1,1,1,0,0,1,1,0V25.218A1,1,0,0,1,0,26.218Z" transform="translate(352.475 93.628)" fill="#5bb3b3" />
        <path d="M59.18,1.165h0L0,1A1,1,0,0,1-1,0,1,1,0,0,1,0-1l59.18.165a1,1,0,0,1,0,2Z" transform="translate(340.163 178.492)" fill="#5bb3b3" />
        <path d="M59.18,1.165h0L0,1A1,1,0,0,1-1,0,1,1,0,0,1,0-1l59.18.165a1,1,0,0,1,0,2Z" transform="translate(340.163 186.96)" fill="#5bb3b3" />
        <path d="M59.18,1.165h0L0,1A1,1,0,0,1-1,0,1,1,0,0,1,0-1l59.18.165a1,1,0,0,1,0,2Z" transform="translate(340.163 195.428)" fill="#5bb3b3" />
        <path d="M59.18,1.165h0L0,1A1,1,0,0,1-1,0,1,1,0,0,1,0-1l59.18.165a1,1,0,0,1,0,2Z" transform="translate(340.163 203.896)" fill="#5bb3b3" />
        <path d="M59.18,1.165h0L0,1A1,1,0,0,1-1,0,1,1,0,0,1,0-1l59.18.165a1,1,0,0,1,0,2Z" transform="translate(340.163 212.364)" fill="#5bb3b3" />
        <path d="M59.18,1.165h0L0,1A1,1,0,0,1-1,0,1,1,0,0,1,0-1l59.18.165a1,1,0,0,1,0,2Z" transform="translate(340.163 220.832)" fill="#5bb3b3" />
        <path d="M59.18,1.165h0L0,1A1,1,0,0,1-1,0,1,1,0,0,1,0-1l59.18.165a1,1,0,0,1,0,2Z" transform="translate(340.163 229.3)" fill="#5bb3b3" />
        <path d="M-.066,46.291c4.2-6.872,13.288-12.5,21.354-12.5,12.906,0,23.368,11.565,23.368,25.832a28.652,28.652,0,0,1-.165,2.967c.239-.009.472-.04.712-.04,12.906,0,23.368,11.565,23.368,25.832a28.586,28.586,0,0,1-.2,3.242,22.2,22.2,0,0,1,10.295,19.084v2.349q0,.938-.072,1.856c-.047.612,0,3.65,0,3.65h-34.1v7.419h-6.3v13.271H-.066Z" transform="translate(0.066 17.735)" fill="#bfe2e2" />
        <path d="M131.982,1H0A1,1,0,0,1-1,0,1,1,0,0,1,0-1H131.982a1,1,0,0,1,1,1A1,1,0,0,1,131.982,1Z" transform="translate(45.675 137.186)" fill="#5bb3b3" />
        <path d="M0-1H48.483a1,1,0,0,1,1,1V8.869a1,1,0,0,1-1,1H0a1,1,0,0,1-1-1V0A1,1,0,0,1,0-1ZM47.483,1H1V7.869H47.483Z" transform="translate(58.017 153.148)" fill="#5bb3b3" />
        <path d="M0-1H48.483a1,1,0,0,1,1,1V8.869a1,1,0,0,1-1,1H0a1,1,0,0,1-1-1V0A1,1,0,0,1,0-1ZM47.483,1H1V7.869H47.483Z" transform="translate(111.822 153.148)" fill="#5bb3b3" />
        <path d="M169.778,150.566H36.744a1,1,0,0,1-1-.964l-1.183-32.519a1,1,0,0,1,1-1.036H179.83a1,1,0,1,1,0,2H36.6l1.11,30.519h132.07a1,1,0,0,1,0,2Z" transform="translate(2.943 27.233)" fill="#5bb3b3" />
        <path d="M162.668,161.943H38.215a1,1,0,0,1-1-1v-8.869a1,1,0,0,1,1-1H166.747a1,1,0,0,1,0,2H39.215v6.869H162.668a1,1,0,0,1,0,2Z" transform="translate(3.246 31.229)" fill="#5bb3b3" />
        <path d="M0,7.759a1,1,0,0,1-1-1V0A1,1,0,0,1,0-1,1,1,0,0,1,1,0V6.759A1,1,0,0,1,0,7.759Z" transform="translate(50.33 193.946)" fill="#5bb3b3" />
        <path d="M0,14.014a1,1,0,0,1-1-1V0A1,1,0,0,1,0-1,1,1,0,0,1,1,0V13.014A1,1,0,0,1,0,14.014Z" transform="translate(62.348 192.214)" fill="#5bb3b3" />
        <path d="M0,25.042a1,1,0,0,1-1-1V0A1,1,0,0,1,0-1,1,1,0,0,1,1,0V24.042A1,1,0,0,1,0,25.042Z" transform="translate(75.142 192.435)" fill="#5bb3b3" />
        <path d="M0,21.766a1,1,0,0,1-1-1V0A1,1,0,0,1,0-1,1,1,0,0,1,1,0V20.766A1,1,0,0,1,0,21.766Z" transform="translate(87.605 193.946)" fill="#5bb3b3" />
        <path d="M0,21.733a1,1,0,0,1-1-1V0A1,1,0,0,1,0-1,1,1,0,0,1,1,0V20.733A1,1,0,0,1,0,21.733Z" transform="translate(99.625 192.214)" fill="#5bb3b3" />
        <path d="M0,14.455a1,1,0,0,1-1-1V0A1,1,0,0,1,0-1,1,1,0,0,1,1,0V13.455A1,1,0,0,1,0,14.455Z" transform="translate(112.417 192.435)" fill="#5bb3b3" />
        <path d="M0,14.927a1,1,0,0,1-1-1V0A1,1,0,0,1,0-1,1,1,0,0,1,1,0V13.927A1,1,0,0,1,0,14.927Z" transform="translate(123.779 193.946)" fill="#5bb3b3" />
        <path d="M0,27.468a1,1,0,0,1-1-1V0A1,1,0,0,1,0-1,1,1,0,0,1,1,0V26.468A1,1,0,0,1,0,27.468Z" transform="translate(135.796 192.214)" fill="#5bb3b3" />
        <path d="M0,26.806a1,1,0,0,1-1-1V0A1,1,0,0,1,0-1,1,1,0,0,1,1,0V25.806A1,1,0,0,1,0,26.806Z" transform="translate(148.589 192.435)" fill="#5bb3b3" />
        <path d="M0,28.6a1,1,0,0,1-1-1V0A1,1,0,0,1,0-1,1,1,0,0,1,1,0V27.6A1,1,0,0,1,0,28.6Z" transform="translate(161.275 193.946)" fill="#5bb3b3" />
        <path d="M12.218,184.615h-.011a1,1,0,0,1-.989-1.011c.005-.5.542-49.83,0-64.527q0-.022,0-.043a50.637,50.637,0,0,0-1.991-14.186,24.659,24.659,0,0,0-3.282-6.99A12.3,12.3,0,0,0,.621,93.421a1,1,0,1,1,.758-1.851,14.265,14.265,0,0,1,6.2,5.131,26.635,26.635,0,0,1,3.562,7.556,46.657,46.657,0,0,1,1.673,8.054,53.432,53.432,0,0,1,.408,6.713c.541,14.771.005,64.1,0,64.6A1,1,0,0,1,12.218,184.615Z" transform="translate(-1 24.432)" fill="#5bb3b3" />
        <path d="M24.905,192.579a1,1,0,0,1-1-1V118.016a20.412,20.412,0,0,1,1.251-8c1.454-3.81,4.837-8.5,12.7-9.218a1,1,0,0,1,.181,1.992,13.318,13.318,0,0,0-7.461,2.823,12.118,12.118,0,0,0-3.528,5.057A18.618,18.618,0,0,0,25.9,117.9c0,.026,0,.052,0,.078v73.6A1,1,0,0,1,24.905,192.579Z" transform="translate(1.725 25.493)" fill="#5bb3b3" />
        <path d="M16.313,98.085a1,1,0,0,1-.954-.7C11.733,85.806,4.372,84.488,4.3,84.476A1,1,0,0,1,4.618,82.5a12.318,12.318,0,0,1,4.923,2.372A18.849,18.849,0,0,1,13.655,89.2a27.68,27.68,0,0,1,3.612,7.587,1,1,0,0,1-.955,1.3Z" transform="translate(-0.605 23.404)" fill="#5bb3b3" />
        <path d="M0,18.479a1,1,0,0,1-1-1V0A1,1,0,0,1,0-1,1,1,0,0,1,1,0V17.479A1,1,0,0,1,0,18.479Z" transform="translate(21.524 92.989)" fill="#5bb3b3" />
        <path d="M19.889,107.507a1,1,0,0,1-.988-1.164,16.593,16.593,0,0,1,2.488-5.894,15.376,15.376,0,0,1,4.324-4.336,16.634,16.634,0,0,1,7.4-2.577,1,1,0,1,1,.223,1.988,14.657,14.657,0,0,0-6.52,2.258,13.387,13.387,0,0,0-3.762,3.777,14.676,14.676,0,0,0-2.179,5.112A1,1,0,0,1,19.889,107.507Z" transform="translate(1.155 24.664)" fill="#5bb3b3" />
        <path d="M83.286,10.878a18.183,18.183,0,1,1-7.1,1.434A18.125,18.125,0,0,1,83.286,10.878Zm0,34.477A16.238,16.238,0,1,0,71.8,40.6,16.132,16.132,0,0,0,83.286,45.355Z" transform="translate(10.422 15.234)" fill="#5bb3b3" />
        <path d="M0,8.809a1,1,0,0,1-1-1V0A1,1,0,0,1,0-1,1,1,0,0,1,1,0V7.809A1,1,0,0,1,0,8.809Z" transform="translate(93.972 15.042)" fill="#5bb3b3" />
        <path d="M0,8.809a1,1,0,0,1-1-1V0A1,1,0,0,1,0-1,1,1,0,0,1,1,0V7.809A1,1,0,0,1,0,8.809Z" transform="translate(93.708 66.746)" fill="#5bb3b3" />
        <path d="M5.521,6.521a1,1,0,0,1-.707-.293L-.707.707a1,1,0,0,1,0-1.414,1,1,0,0,1,1.414,0L6.229,4.814a1,1,0,0,1-.707,1.707Z" transform="translate(72.915 23.765)" fill="#5bb3b3" />
        <path d="M5.521,6.521a1,1,0,0,1-.707-.293L-.707.707a1,1,0,0,1,0-1.414,1,1,0,0,1,1.414,0L6.229,4.814a1,1,0,0,1-.707,1.707Z" transform="translate(109.245 60.31)" fill="#5bb3b3" />
        <path d="M7.809,1.027h0L0,1A1,1,0,0,1-1,0,1,1,0,0,1,0-1l7.809.027a1,1,0,0,1,0,2Z" transform="translate(115.945 44.9)" fill="#5bb3b3" />
        <path d="M7.809,1.027h0L0,1A1,1,0,0,1-1,0,1,1,0,0,1,0-1l7.809.027a1,1,0,0,1,0,2Z" transform="translate(64.191 44.72)" fill="#5bb3b3" />
        <path d="M0,6.5a1,1,0,0,1-.71-.3,1,1,0,0,1,0-1.414l5.54-5.5A1,1,0,0,1,6.25-.7a1,1,0,0,1,0,1.414L.7,6.212A1,1,0,0,1,0,6.5Z" transform="translate(109.563 23.838)" fill="#5bb3b3" />
        <path d="M0,6.5a1,1,0,0,1-.71-.3,1,1,0,0,1,0-1.414l5.54-5.5A1,1,0,0,1,6.25-.7a1,1,0,0,1,0,1.414L.7,6.212A1,1,0,0,1,0,6.5Z" transform="translate(72.578 60.256)" fill="#5bb3b3" />
        <path d="M0,8.227a1,1,0,0,1-.378-.075,1,1,0,0,1-.547-1.3L2.032-.379a1,1,0,0,1,1.3-.547,1,1,0,0,1,.547,1.3L.925,7.606A1,1,0,0,1,0,8.227Z" transform="translate(102.294 17.261)" fill="#5bb3b3" />
        <path d="M0,8.227a1,1,0,0,1-.378-.075,1,1,0,0,1-.547-1.3L2.032-.379a1,1,0,0,1,1.3-.547,1,1,0,0,1,.547,1.3L.925,7.606A1,1,0,0,1,0,8.227Z" transform="translate(82.428 65.109)" fill="#5bb3b3" />
        <path d="M3.02,8.2A1,1,0,0,1,2.1,7.588L-.922.387A1,1,0,0,1-.387-.922,1,1,0,0,1,.922-.387l3.019,7.2A1,1,0,0,1,3.02,8.2Z" transform="translate(82.458 17.358)" fill="#5bb3b3" />
        <path d="M3.02,8.2A1,1,0,0,1,2.1,7.588L-.922.387A1,1,0,0,1-.387-.922,1,1,0,0,1,.922-.387l3.019,7.2A1,1,0,0,1,3.02,8.2Z" transform="translate(102.204 65.038)" fill="#5bb3b3" />
        <path d="M7.216,3.983a1,1,0,0,1-.382-.076L-.382.924A1,1,0,0,1-.924-.382,1,1,0,0,1,.382-.924L7.6,2.058a1,1,0,0,1-.382,1.924Z" transform="translate(114.016 53.166)" fill="#5bb3b3" />
        <path d="M7.216,3.983a1,1,0,0,1-.382-.076L-.382.924A1,1,0,0,1-.924-.382,1,1,0,0,1,.382-.924L7.6,2.058a1,1,0,0,1-.382,1.924Z" transform="translate(66.45 33.448)" fill="#5bb3b3" />
        <path d="M0,3.994a1,1,0,0,1-.924-.617A1,1,0,0,1-.383,2.07L6.828-.924a1,1,0,0,1,1.307.54A1,1,0,0,1,7.595.924L.383,3.917A1,1,0,0,1,0,3.994Z" transform="translate(114.266 33.405)" fill="#5bb3b3" />
        <path d="M0,3.994a1,1,0,0,1-.924-.617A1,1,0,0,1-.383,2.07L6.828-.924a1,1,0,0,1,1.307.54A1,1,0,0,1,7.595.924L.383,3.917A1,1,0,0,1,0,3.994Z" transform="translate(66.203 53.198)" fill="#5bb3b3" />
        <path d="M383.367,216c1.046-5.231-2.9-10.8-9.317-13.148s-14.811-1.3-19.82,2.48c.753-3.982.558-9.21-4.57-10.564a14.007,14.007,0,0,0-5.446-.05,47.613,47.613,0,0,0-12.7,3.6c1.928-1.7-.046-4.6-2.973-5.115a10.013,10.013,0,0,0-7.912,2.435c-1.058-3.763-7.52-5.57-12.494-4.439s-11.439,7.5-11.439,7.5-1.927-3.62-7.685-5.494-15.348-2-15.348-2l-28.03,56.99H383.367s3.731-16.629,0-19.574C387.188,220.647,383.367,216,383.367,216Z" transform="translate(-54.269 14.945)" fill="#bfe2e2" />
        <path d="M.007,173.123c2.188-1.727,7.4-4.338,10.452-4.3,5.436.07,10.478,3.682,11.266,8.071,3.734-4.891,13.6-5.457,18.134-1.04.1-4.5,5.661-8.032,11.179-8.162s10.679,2.4,14.537,5.627,6.035,2.18,9.353,5.779c-.319-2.467,2.131-1.414,5.013-2.2s6.578,1.613,8.15,3.736c1.61-1.961,3.422-4.051,6.177-4.769s6.482.9,6.1,3.237c4.595-4.57,12.271-6.933,19.42-5.977s14.119,1.98,16.686,7.509c1.707-2.749,8.043-2.32,11.694-1.532s5.906,4.735,5.725,7.812c1.742-1.412,9.192-5.126,11.521-4.488s-3.713,47.111-3.713,47.111H.007Z" transform="translate(-0.857 32.79)" fill="#bfe2e2" />
        <g transform="translate(29.699 28)">
            <path d="M0,0,37.7,95.425,62.989,176.1h9.985L34.316,0Z" transform="translate(150.7 166.818)" fill="#997659" />
            <path d="M71.777,0c-.4,33.533-6.256,78.68-7.192,80.77S0,133.933,0,133.933l6.877,7.36S81.978,97.5,85.453,91.664,100.243,32.08,109.327,0Z" transform="translate(71.331 166.818)" fill="#b28b67" />
            <path d="M30.231,167.79l47.475-5.152L42.522,0H0Z" transform="translate(145.818 166.818)" fill="#629d62" />
            <path d="M0,122.06l31.141,36.86s49.2-53.735,57.368-70.125S103.193,0,103.193,0H55.321s-3.56,63.7-4.8,66.664S0,122.06,0,122.06Z" transform="translate(81.151 166.818)" fill="#85cb85" />
            <g transform="translate(153.415 37.508)">
                <path d="M0,60.017,6.793,28.356C3,23.909.44,18.459.869,12.353,2.1-5.241,26.6-1.371,31.36,7.509S35.558,38.915,29.4,40.5c-2.456.633-7.687-.917-13.011-4.127l3.342,23.642Z" transform="translate(0 0)" fill="#b28b67" />
            </g>
            <path d="M43.052,44.4c-3.027,0-5.833-1.934-7.9-5.447a25.064,25.064,0,0,1-3.086-12.37c0-.316.006-.641.019-.966a50.2,50.2,0,0,0-6.215,5.415,48.718,48.718,0,0,1-6.725,5.786,14.4,14.4,0,0,1-8.076,2.648,9.978,9.978,0,0,1-8.012-4.432A16.146,16.146,0,0,1,0,25.632a12.9,12.9,0,0,1,.625-4.067,9.789,9.789,0,0,1,1.965-3.46,9.241,9.241,0,0,1,3.436-2.4,13.265,13.265,0,0,1,5.04-.9c11.621,0,17.3,1.679,22.26,4.2a15.99,15.99,0,0,1,4.266-6.651,6.614,6.614,0,0,1,1.961-1.392,9.191,9.191,0,0,1,1.64-.7A41.345,41.345,0,0,1,53.269,8.224c.646-.022,1.293-.034,1.923-.034.24,0,.48,0,.716,0a8.222,8.222,0,1,1,8.667,8.236,41.353,41.353,0,0,1-9.2,1.564,17.217,17.217,0,0,1,.53,4.411,24.889,24.889,0,0,1-.458,4.586,3.83,3.83,0,0,0-2.831-1.505A4.855,4.855,0,0,0,49.061,27a5.018,5.018,0,0,0-1.376,3.419,6.343,6.343,0,0,0,1.27,4.011,4.526,4.526,0,0,0,3.308,1.733,22.069,22.069,0,0,1-4.256,5.878A7.429,7.429,0,0,1,43.052,44.4Z" transform="translate(114.773 28.463)" fill="#313e58" />
            <path d="M24.177,63.095c-.952-1.809-2.053-3.618-5.7-2.913C11.943,61.446,6.261,65.27.539,59.411c-.7-.72-1.133-2.879,1.444-3.84,6.422-2.393,15.965-7,17.573-8.9C22.845,42.781,44,0,44,0L57.329,3.387S30.575,48.366,28.715,50.929c-2.79,3.844-.764,11.263-.075,15.151a5.115,5.115,0,0,1-.9.085C25.685,66.165,24.985,64.629,24.177,63.095ZM171.261,39.92l-23.5-11.73,6.337-12.979,23.188,19.658a65.957,65.957,0,0,1,16.15,7.839c.983,1.031,2.118,3.058-2.216,2.419s-8.922-1.118-9.627.326,1.808,3.406.452,5.326a.569.569,0,0,1-.492.251Q179.455,51.031,171.261,39.92Z" transform="matrix(0.998, -0.07, 0.07, 0.998, 60.968, 144.827)" fill="#b28b67" />
            <path d="M2.83,43.846C-.908,36.66.357,12.25,0,3.369L8.215,0C19.667,23.672,35.167,46.383,58.189,65.782a26.336,26.336,0,0,1,10.259,1.535,3.457,3.457,0,0,1,.036,6.539q1.054.769,2.129,1.531L64.432,88.006C38.42,75.036,13.971,65.258,2.83,43.846Z" transform="translate(163.269 85.426)" fill="#708daf" />
            <path d="M0,86.192s36.224,3.979,57.025,0c1.718-.329,1.643-7.735.846-9.757C45.463,44.936,37.3,21.878,37.3,0,33.887,1.784,25.349.535,25.349.535,10.052,23.081,3.021,48.95,0,86.192Z" transform="translate(134.41 85.165)" fill="#edc95a" />
            <path d="M46.689,91.224a3.454,3.454,0,0,1-1.038-3.12l.4-2.269A3.458,3.458,0,0,1,49.046,83q.386-1.727.664-3.433c1.453-8.995-.781-17.825-.966-26.505C38.456,62.228,26,78.208,15.494,105.906L.986,101.637q.832-3.089,1.742-6.082C1.048,94.63-.932,90.235.482,89.5a16.972,16.972,0,0,1,4.752-1.621C26.581,26.874,70.361,0,70.361,0H79.1c-2.571,34.015,32.955,108.275,20.619,171.7-9.656,2.156-21.061.558-33.407-1.04C49.5,168.481,30.945,166.3,12.678,173.6,13.857,148.062,37.474,118.058,46.689,91.224Z" transform="translate(83.234 83.857)" fill="#96b7df" />
            <path d="M7.084,0,3.121,12.187,11.1,21.323,3.889,28.5,21.338,58.38,0,28.562l7.084-7.239L0,13.249Z" transform="translate(149.684 84.626)" fill="rgba(0,0,0,0.1)" />
            <path d="M4.609,38.408A3.073,3.073,0,1,1,7.681,41.48,3.073,3.073,0,0,1,4.609,38.408ZM3.841,20.74a3.072,3.072,0,1,1,3.072,3.072A3.072,3.072,0,0,1,3.841,20.74ZM0,3.072A3.073,3.073,0,1,1,3.072,6.145,3.073,3.073,0,0,1,0,3.072Z" transform="translate(162.832 148.382)" fill="rgba(0,0,0,0.4)" />
            <g transform="translate(72.287 294.31) rotate(50)">
                <path d="M3.436,3.611a1.536,1.536,0,0,0-1.97,1.036L0,9.812a49.348,49.348,0,0,0,.692,6.064H44.018s1.689-5.583-1.95-6.028-6.045-.8-6.045-.8L15.885.067a.768.768,0,0,0-1.023.409l-1.294,3.14S10.2,5.187,8.094,5.187Z" transform="translate(0 0)" fill="#acb1bc" />
            </g>
            <g transform="translate(207.444 334.53)">
                <path d="M3.436,3.943a1.536,1.536,0,0,0-1.97,1.036L0,10.144a49.348,49.348,0,0,0,.692,6.064H44.018s1.689-5.583-1.95-6.028-6.045-.8-6.045-.8L15.885.4a.768.768,0,0,0-1.023.409l-1.294,3.14S10.2,5.519,8.094,5.519Z" transform="translate(0 -0.332)" fill="#acb1bc" />
            </g>
        </g>
    </g>
</svg>