<svg xmlns="http://www.w3.org/2000/svg" xmlns:xlink="http://www.w3.org/1999/xlink" width="400"
    height="320" viewBox="0 0 400 320">
    <defs>
        <clipPath>
            <rect width="98.385" height="62.517" fill="#ffd964" />
        </clipPath>
        <clipPath>
            <rect width="400" height="320" />
        </clipPath>
    </defs>
    <g clip-path="url(#c)">
        <path d="M87.5,1H0V-1H87.5Z" transform="translate(306.5 247.5)" fill="#5bb3b3" />
        <g transform="translate(6509.665 6099.524)">
            <path
                d="M98.345,74.493C91.1,91.266,83.4,108.667,69.437,120.45,48.628,138.008,21.226,148.681,0,131.628c14.26-1.738,18.284-3.38,32.317-.317-.727-6.758,6.939-15.533,20.123-10.3-.482-8.663,3.4-21.454,14.024-20.545-2.659-4.049-4.455-9.114-2.982-13.729s7.292-7.879,11.428-5.357c-2.565-5.933-2.9-13.374,1.161-18.4a10.871,10.871,0,0,1,16.392-.386c.937-8.018,2.334-20.63,18.291-25.948C127.345,17.973,127.775,1.173,132.183,0c-2.377,13.6-28.246,61.545-33.838,74.493"
                transform="translate(-6020.861 -5898.48) rotate(155)" fill="#bfe2e2" />
            <path
                d="M.046,67.1C-.25,46.472.537,24.389,12.5,7.588a14.071,14.071,0,0,1,4.06-4.134A15.563,15.563,0,0,1,22.195,1.8C38.086-.67,54.505-.894,70.1,3.017s30.367,12.173,40.5,24.661c-19.02-9.07-40.011-20.5-60.777-16.922-.047,3.549-3.226,5.07-6.682,8.527s-11.329,3.392-16.361-.231c3.146,7.253,3.155,18.939-2.3,24.657S12.907,54.691,5.518,51.884c7.9,3.551,13.063,13.886,8.626,21.325a53.642,53.642,0,0,1-4.292,5.366c-5.706,7.265-6.338,17.253-5.686,26.466C4.539,110.3,8.592,126.5,3.12,128.929-1.035,109.469.332,87,.046,67.1"
                transform="matrix(0.809, 0.588, -0.588, 0.809, -6074.375, -5962.038)" fill="#bfe2e2" />
            <path d="M-5.076,0c0,36.5-15.837,66.1,26.531,66.1S47.986,36.5,47.986,0"
                transform="translate(-6157.249 -5877.379)" fill="#bfe2e2" />
            <path
                d="M2.378,53.884C4.189,34.842,7.73,15.2,18.176,0c-2.341,2.725,2.659,25.821,2.659,25.821S17.9,38.679,12.1,42.113c3.28-2.452,4.167,10,2.69,20.515s-.673,15.58-8.6,21.531c8.366-4.007,7.69,6.278,6.78,16.359S14.9,119.505,8.4,126.583c5.464-2.869,11.926,3.541,12.437,10.243s-2.829,12.916-6.042,18.6c4.572-3.825,11.464,2,11.993,8.342s-2.733,12.179-5.329,17.848c-6.877,15.006-8.144,30.368-8.484,46.779C.656,173.783-2.925,109.685,2.378,53.884"
                transform="matrix(0.978, 0.208, -0.208, 0.978, -6110.525, -6086.329)" fill="#bfe2e2" />
            <path
                d="M104.277,59.394C97.033,42.622,89.333,25.221,75.369,13.437,54.56-4.12,21.226-4.523,0,12.53a128.467,128.467,0,0,0,42.843-2.005c-.727,6.758-1.164,12.756,6.44,16.213s12.487,7.6,23.112,6.688c-2.659,4.049-4.455,9.114-2.982,13.729s7.292,7.879,11.428,5.357c-2.565,5.933-2.9,13.374,1.161,18.4a10.871,10.871,0,0,0,16.392.386c.937,8.018,2.334,20.63,18.291,25.948,16.592,18.666,17.022,35.466,21.43,36.639-2.377-13.6-28.246-61.545-33.838-74.493"
                transform="translate(-6203.254 -6043.823) rotate(29)" fill="#bfe2e2" />
            <path
                d="M112,72.618c12.829-26.841,22.186-23.138,38.829-47.8,1.449,9.386-5.993,17.565-12.848,24.139,4.143-.33,7.449,4.11,7.33,8.264s-2.664,7.832-5.444,10.921A57.737,57.737,0,0,1,122.1,81.486c3.727,1.058,14.042-2.233,11.95,11.818A88.528,88.528,0,0,1,112,110.865c6.359.551,9.6,8.767,7.54,14.809s-7.471,10.209-12.6,14.007q-6.336,4.692-12.672,9.381c2.491.41,7.17-3.782,7.475,1.227s-7.366,10.957-11.821,15.939c-3.193,3.57-6.693,24.661-8.614,28.933.679-26.495,9.121-78.186,20.435-101.858"
                transform="translate(-6209.21 -6057.561)" fill="#bfe2e2" />
            <path
                d="M127.626,101.116C114.8,74.275,98.127,49.48,81.485,24.823c-1.449,9.386,5.993,17.565,12.848,24.139-4.143-.33-7.449,4.11-7.33,8.264s2.664,7.832,5.444,10.921a57.738,57.738,0,0,0,17.758,13.339c-3.727,1.058-14.042-2.233-11.95,11.818a88.529,88.529,0,0,0,22.058,17.561c-6.359.551-9.6,8.767-7.54,14.809s7.471,10.209,12.6,14.007q6.336,4.692,12.672,9.381c-2.491.41-7.17-3.782-7.475,1.227s7.366,10.957,11.821,15.939c3.193,3.57,6.693,24.661,8.614,28.933-.679-26.495-12.067-70.374-23.381-94.046"
                transform="translate(-6295.448 -6044.091)" fill="#bfe2e2" />
        </g>
        <g transform="translate(215.956 36.53)">
            <g transform="translate(0 0)">
                <path d="M0,7.28a1,1,0,0,1-1-1V0A1,1,0,0,1,0-1,1,1,0,0,1,1,0V6.28A1,1,0,0,1,0,7.28Z"
                    transform="translate(57.765 25.09)" fill="#5bb3b3" />
                <path d="M0,7.28a1,1,0,0,1-1-1V0A1,1,0,0,1,0-1,1,1,0,0,1,1,0V6.28A1,1,0,0,1,0,7.28Z"
                    transform="translate(65.093 26.137)" fill="#5bb3b3" />
                <path
                    d="M5.846,2.42,2.022,296.072l8.444,1.441L12.229,3.662,5.846,2.42M3.877,0,14.239,2.015,12.452,299.88,0,297.755Z"
                    transform="translate(67.912 3.318) rotate(-3)" fill="#5bb3b3" />
                <path
                    d="M8.247,2.389,2.029,3.521l4.662,273.5,6.218-1.132L8.247,2.389M10.206,0l4.731,277.551L4.731,279.408,0,1.858Z"
                    transform="translate(14.792 279.022) rotate(-172)" fill="#5bb3b3" />
                <path d="M-1045.313,180.476v111.49l-5.977,6.183-99.676-35.755V171.165l5.917-3.427Z"
                    transform="translate(1151.466 -142.399)" fill="#e4e6ea" />
                <path
                    d="M-1145.049,166.738a1,1,0,0,1,.127.008l99.736,12.738a1,1,0,0,1,.873.992v111.49a1,1,0,0,1-.281.7l-5.977,6.183a1,1,0,0,1-1.057.246l-99.676-35.755a1,1,0,0,1-.662-.941V171.165a1,1,0,0,1,.5-.865l5.917-3.427A1,1,0,0,1-1145.049,166.738Zm98.736,14.618-98.528-12.583-5.125,2.969V261.69l98.406,35.3,5.247-5.428Z"
                    transform="translate(1151.466 -142.399)" fill="#5ab3b3" />
                <path d="M-1051.027,179.726v113l-99.939-35.769V166.178Z"
                    transform="translate(1150.966 -136.539)" fill="#fff" />
                <path
                    d="M-1150.966,165.178a1,1,0,0,1,.134.009l99.939,13.548a1,1,0,0,1,.866.991v113a1,1,0,0,1-.424.818,1,1,0,0,1-.913.124L-1151.3,257.9a1,1,0,0,1-.663-.941V166.178a1,1,0,0,1,.342-.753A1,1,0,0,1-1150.966,165.178Zm98.939,15.422-97.939-13.277v88.93l97.939,35.053Z"
                    transform="translate(1150.966 -136.539)" fill="#5ab3b3" />
                <path
                    d="M0,5.187a1,1,0,0,1-.833-.445A1,1,0,0,1-.555,3.355L5.726-.832a1,1,0,0,1,1.387.277A1,1,0,0,1,6.835.832L.555,5.019A1,1,0,0,1,0,5.187Z"
                    transform="translate(99.928 39.744)" fill="#5ab3b3" />
                <path transform="translate(1162.417 -131.53)" fill="#707070" />
                <path
                    d="M27.237,4.14a1.01,1.01,0,0,1-.116-.007L-.115.993A1,1,0,0,1-.993-.115,1,1,0,0,1,.115-.993L27.35,2.147a1,1,0,0,1-.113,1.994Z"
                    transform="translate(46.231 22.996)" fill="#5ab3b3" />
                <path
                    d="M51.861,21.014a1,1,0,0,1-.36-.067L-.36.933A1,1,0,0,1-.933-.36,1,1,0,0,1,.36-.933L52.221,19.08a1,1,0,0,1-.36,1.933Z"
                    transform="translate(27.886 170.462)" fill="#5ab3b3" />
                <path
                    d="M26.19,3.14a1.01,1.01,0,0,1-.12-.007L-.119-.007A1,1,0,0,1-.993-1.119,1,1,0,0,1,.119-1.993l26.189,3.14A1,1,0,0,1,26.19,3.14Z"
                    transform="translate(47.278 17.716)" fill="#5ab3b3" />
                <path
                    d="M51.338,19.4a1,1,0,0,1-.353-.065L-.353-.065A1,1,0,0,1-.935-1.353,1,1,0,0,1,.353-1.935l51.338,19.4a1,1,0,0,1-.354,1.936Z"
                    transform="translate(27.886 164.134)" fill="#5ab3b3" />
                <path
                    d="M2.093,52.29a1,1,0,0,1-1-.959L-1,.041A1,1,0,0,1-.041-1,1,1,0,0,1,1-.041l2.093,51.29a1,1,0,0,1-.958,1.04Z"
                    transform="translate(62.999 184.194)" fill="#5bb3b3" />
                <path
                    d="M2.093,49.15a1,1,0,0,1-1-.957L-1,.043A1,1,0,0,1-.043-1,1,1,0,0,1,1-.043l2.093,48.15a1,1,0,0,1-.956,1.042Z"
                    transform="translate(70.326 187.335)" fill="#5bb3b3" />
                <path
                    d="M1.046,32.4a1,1,0,0,1-1-.967L-1,.033A1,1,0,0,1-.033-1,1,1,0,0,1,1-.033l1.047,31.4A1,1,0,0,1,1.08,32.4Z"
                    transform="translate(61.952 143.372)" fill="#5bb3b3" />
                <path
                    d="M1.046,32.4a1,1,0,0,1-1-.967L-1,.033A1,1,0,0,1-.033-1,1,1,0,0,1,1-.033l1.047,31.4A1,1,0,0,1,1.08,32.4Z"
                    transform="translate(69.28 146.512)" fill="#5bb3b3" />
                <path
                    d="M-1091.168,357.5h-7.332a1,1,0,0,1-1-1,1,1,0,0,1,1-1h7.332a1,1,0,0,1,1,1A1,1,0,0,1-1091.168,357.5Z"
                    transform="translate(1163.593 -121.015)" fill="#5bb3b3" />
                <g transform="translate(0.179 47.233)">
                    <g transform="translate(0 0)" clip-path="url(#a)">
                        <path
                            d="M34.812,11.138A11.138,11.138,0,1,1,23.673,0,11.138,11.138,0,0,1,34.812,11.138"
                            transform="translate(0.586 0)" fill="#ffd964" />
                        <path
                            d="M3.2,36.185a44.845,44.845,0,0,1,4.458-.911c1.559-.348,3.107-.745,4.68-1.02a65.8,65.8,0,0,1,9.4-.732,105.783,105.783,0,0,1,19.093.753C53.483,36.228,65.186,40.991,77.1,45.448c3.2,1.2,6.188,2.786,9.45,3.836a32.745,32.745,0,0,1,4.766,1.8,11.956,11.956,0,0,1,2.624,1.483,2.637,2.637,0,0,0,3.7,0,2.675,2.675,0,0,0,0-3.7,9.016,9.016,0,0,0-2.927-1.82,37.013,37.013,0,0,0-4.049-1.827C89.175,44.6,87.628,44.17,86.1,43.64c-1.409-.49-2.714-1.188-4.071-1.8-3.036-1.375-6.23-2.39-9.333-3.6s-6.194-2.414-9.325-3.526a118.549,118.549,0,0,0-19.184-5.151,107.033,107.033,0,0,0-20.158-1.312,98.331,98.331,0,0,0-11.2.688c-1.826.236-3.608.613-5.4,1.028-1.856.429-3.826.579-5.629,1.18C-1.372,32.2-.008,37.253,3.2,36.185"
                            transform="translate(0 1.319)" fill="#85cb85" />
                        <path
                            d="M92.638,55.114c-4.142-1.469-8.2-3.206-12.45-4.344s-8.589-1.887-12.908-2.7c-4.393-.821-8.721-1.91-13.1-2.794a54.306,54.306,0,0,0-6.529-.945C45.965,44.2,43.6,43.75,42,44.4a2.659,2.659,0,0,0-.625,4.783c5.083,3.413,11.065,4.8,16.93,6.209,3.2.772,6.378,1.657,9.584,2.415s6.487,1.148,9.691,1.912c3.271.78,4.662-4.2,1.391-5.046A68.047,68.047,0,0,0,67.08,52.919c-1.927-.144-3.858-.231-5.786-.366-1.674-.118-3.552-.7-5.175-.119A2.71,2.71,0,0,0,54.2,54.957a3.78,3.78,0,0,0,.759,2.38,4.83,4.83,0,0,0,.574.64c.079.074.491.574.313.271L58.1,54.31a29.455,29.455,0,0,1-4.363-.532c-1.824-.283-3.664-.5-5.5-.7-3.5-.382-7.018-.643-10.538-.831-3.366-.18-6.764-.188-10.122-.484-1.991-.175-4.668-.371-5.7,1.8a2.762,2.762,0,0,0,.409,3.172,10.521,10.521,0,0,0,2.021,1.853,13.116,13.116,0,0,1,1.581.959q.264-2.055.53-4.111,1.233-.218.483-.2l.145.019c-.306-.133-.7-.169-1.023-.27-.468-.145-.921-.339-1.388-.487a39.9,39.9,0,0,0-5.5-1.141c-2.028-.336-4.067-.633-6.111-.841-1-.1-2-.181-3-.283a25.454,25.454,0,0,0-3.362-.355c-3.36.1-3.375,5.339,0,5.234a25.727,25.727,0,0,1,3.362.355c1.167.118,2.336.208,3.5.334,2.065.224,4.126.558,6.166.946A32.906,32.906,0,0,1,24.216,59.9c1.592.546,3.289.891,4.846.059a2.641,2.641,0,0,0,.53-4.111c-1.128-1.113-2.566-1.567-3.6-2.812q.2,1.586.409,3.172a6.631,6.631,0,0,1-.891.647c0,.037.037-.012.3,0,.383.013.76.031,1.142.071,1.133.118,2.27.156,3.408.209,3.135.149,6.271.27,9.4.464,3.088.192,6.173.447,9.246.8,3.015.344,6.056,1.129,9.093,1.147a2.641,2.641,0,0,0,2.26-3.938,5.275,5.275,0,0,0-.826-1.061c-.1-.093-.2-.183-.307-.269q-.6-.62.2.681l-1.921,2.523a4.112,4.112,0,0,1,1.53.1c.908.114,1.819.183,2.731.242,1.77.114,3.541.2,5.309.335a59.885,59.885,0,0,1,10.5,1.57l1.391-5.046c-3.038-.724-6.148-1.094-9.194-1.8-3.228-.745-6.42-1.641-9.639-2.423C54.547,49.1,48.86,47.923,44.013,44.667l-.625,4.783a5.254,5.254,0,0,1,1.919,0c.94.05,1.879.076,2.817.159A48.983,48.983,0,0,1,54.3,50.646c4.188.916,8.353,1.875,12.57,2.658,4.155.771,8.331,1.508,12.406,2.642s7.986,2.8,11.973,4.214a2.642,2.642,0,0,0,3.219-1.828,2.67,2.67,0,0,0-1.828-3.219"
                            transform="translate(0.193 2.059)" fill="#f1b981" />
                    </g>
                </g>
            </g>
            <ellipse cx="2" cy="1.5" rx="2" ry="1.5" transform="translate(52.586 125.47)"
                fill="#9183d8" />
            <circle cx="4" cy="4" r="4" transform="translate(44.586 112.47)" fill="#e88a2d" />
            <circle cx="1.308" cy="1.308" r="1.308" transform="translate(55.149 118.773)"
                fill="#9183d8" />
            <circle cx="2.5" cy="2.5" r="2.5" transform="translate(63.586 113.47)" fill="#9183d8" />
            <circle cx="2" cy="2" r="2" transform="translate(15.586 95.47)" fill="#9183d8" />
        </g>
        <path
            d="M0,252.144a1,1,0,0,1-1-1V0A1,1,0,0,1,0-1,1,1,0,0,1,1,0V251.144A1,1,0,0,1,0,252.144Z"
            transform="translate(133.643 -4.644)" fill="#5bb3b3" />
        <path
            d="M0,253.144a1,1,0,0,1-1-1V0A1,1,0,0,1,0-1,1,1,0,0,1,1,0V252.144A1,1,0,0,1,0,253.144Z"
            transform="translate(116.792 -4.644)" fill="#5bb3b3" />
        <path d="M0,251.74a1,1,0,0,1-1-1V0A1,1,0,0,1,0-1,1,1,0,0,1,1,0V250.74A1,1,0,0,1,0,251.74Z"
            transform="translate(12.432 -4.24)" fill="#5bb3b3" />
        <path
            d="M101.259,1H0A1,1,0,0,1-1,0,1,1,0,0,1,0-1H101.259a1,1,0,0,1,1,1A1,1,0,0,1,101.259,1Z"
            transform="translate(14.882 225.821)" fill="#5bb3b3" />
        <path d="M101.91,1H0A1,1,0,0,1-1,0,1,1,0,0,1,0-1H101.91a1,1,0,0,1,1,1A1,1,0,0,1,101.91,1Z"
            transform="translate(14.882 218.605)" fill="#5bb3b3" />
        <path d="M97.806,1H0A1,1,0,0,1-1,0,1,1,0,0,1,0-1H97.806a1,1,0,0,1,1,1A1,1,0,0,1,97.806,1Z"
            transform="translate(15.841 133.988)" fill="#5bb3b3" />
        <path d="M97.806,1H0A1,1,0,0,1-1,0,1,1,0,0,1,0-1H97.806a1,1,0,0,1,1,1A1,1,0,0,1,97.806,1Z"
            transform="translate(15.841 56.996)" fill="#5bb3b3" />
        <path d="M97.806,1H0A1,1,0,0,1-1,0,1,1,0,0,1,0-1H97.806a1,1,0,0,1,1,1A1,1,0,0,1,97.806,1Z"
            transform="translate(15.84 140.928)" fill="#5bb3b3" />
        <path d="M97.806,1H0A1,1,0,0,1-1,0,1,1,0,0,1,0-1H97.806a1,1,0,0,1,1,1A1,1,0,0,1,97.806,1Z"
            transform="translate(15.84 63.935)" fill="#5bb3b3" />
        <path
            d="M331.2,137.9a27.727,27.727,0,0,1-9.494-1.485c-3.966-1.506-4.8-3.656-4.8-5.194a14.837,14.837,0,0,1,4.175-10.391,14.008,14.008,0,0,1,20.235,0,14.836,14.836,0,0,1,4.176,10.391c0,1.538-.833,3.688-4.8,5.194A27.727,27.727,0,0,1,331.2,137.9Zm0-19.391a12.013,12.013,0,0,0-8.681,3.712,12.847,12.847,0,0,0-3.611,9c0,.909.609,2.223,3.509,3.325a29.156,29.156,0,0,0,17.568,0c2.9-1.1,3.509-2.416,3.509-3.325a12.846,12.846,0,0,0-3.611-9A12.014,12.014,0,0,0,331.2,118.507Z"
            transform="translate(-298.45 -7.833)" fill="#5bb3b3" />
        <g transform="translate(18.832 17.222)">
            <path
                d="M330.359,41.468a33.692,33.692,0,0,1-4.947-.318,8.532,8.532,0,0,1-1.637-.391c-.962-.365-1.168-.934-1.172-1.348-.006-.616.4-1.087,1.213-1.4a9.545,9.545,0,0,1,1.763-.441,36.235,36.235,0,0,1,5.347-.419c.2,0,.412,0,.615,0a33.686,33.686,0,0,1,4.947.318,8.529,8.529,0,0,1,1.637.391c.962.365,1.168.934,1.172,1.348.006.616-.4,1.087-1.213,1.4a9.539,9.539,0,0,1-1.764.441,36.26,36.26,0,0,1-5.347.419C330.769,41.467,330.562,41.468,330.359,41.468Zm-3.052-2.113c.837.068,1.852.113,3.053.113.195,0,.393,0,.59,0,1.435-.018,2.657-.1,3.646-.2-.837-.068-1.853-.113-3.053-.113-.195,0-.393,0-.59,0C329.517,39.169,328.3,39.249,327.306,39.355Z"
                transform="translate(-317.889 -38.147)" fill="#5bb3b3" />
            <path
                d="M329.668,74.156a22.8,22.8,0,0,1-6.362-.841l-.065-.023a11.061,11.061,0,0,1-6.5-6.563,20.11,20.11,0,0,1-.939-8.875,45.509,45.509,0,0,1,1.828-9.01,68.1,68.1,0,0,1,3.837-9.908,1,1,0,0,1,1.789.895,67.4,67.4,0,0,0-3.72,9.618,43.442,43.442,0,0,0-1.744,8.6,18.147,18.147,0,0,0,.817,7.973,9.065,9.065,0,0,0,5.335,5.4,21.638,21.638,0,0,0,6.023.736,23.812,23.812,0,0,0,6.209-.9,9.156,9.156,0,0,0,5.236-5.564,18.245,18.245,0,0,0,.652-7.991,43.352,43.352,0,0,0-1.911-8.538,66.949,66.949,0,0,0-3.9-9.5,1,1,0,0,1,1.77-.931,67.657,67.657,0,0,1,4.022,9.792,45.419,45.419,0,0,1,2,8.951,20.21,20.21,0,0,1-.754,8.891,11.154,11.154,0,0,1-6.383,6.755q-.041.017-.084.031a25.336,25.336,0,0,1-6.837,1Z"
                transform="translate(-316.687 -38.128)" fill="#5bb3b3" />
        </g>
        <g transform="translate(51.259 17.222)">
            <path
                d="M290.706,41.468a33.692,33.692,0,0,1-4.947-.318,8.531,8.531,0,0,1-1.637-.391c-.962-.365-1.168-.934-1.172-1.348-.006-.616.4-1.087,1.213-1.4a9.544,9.544,0,0,1,1.763-.441,36.235,36.235,0,0,1,5.347-.419c.2,0,.412,0,.615,0a33.685,33.685,0,0,1,4.947.318,8.529,8.529,0,0,1,1.637.391c.962.365,1.168.934,1.172,1.348.006.616-.4,1.087-1.213,1.4a9.539,9.539,0,0,1-1.764.441,36.26,36.26,0,0,1-5.347.419C291.116,41.467,290.909,41.468,290.706,41.468Zm-3.052-2.113c.837.068,1.852.113,3.052.113.195,0,.393,0,.59,0,1.435-.018,2.657-.1,3.646-.2-.837-.068-1.853-.113-3.053-.113-.195,0-.393,0-.59,0C289.864,39.169,288.643,39.249,287.653,39.355Z"
                transform="translate(-278.236 -38.147)" fill="#5bb3b3" />
            <path
                d="M290.015,74.156a22.8,22.8,0,0,1-6.362-.841l-.065-.023a11.061,11.061,0,0,1-6.5-6.563,20.111,20.111,0,0,1-.939-8.875,45.51,45.51,0,0,1,1.828-9.01,68.1,68.1,0,0,1,3.837-9.908,1,1,0,0,1,1.789.895,67.4,67.4,0,0,0-3.72,9.618,43.442,43.442,0,0,0-1.744,8.6,18.147,18.147,0,0,0,.817,7.973,9.064,9.064,0,0,0,5.335,5.4,21.636,21.636,0,0,0,6.023.736,23.813,23.813,0,0,0,6.209-.9,9.156,9.156,0,0,0,5.237-5.566c3.407-9.566-5.072-25.869-5.158-26.032a1,1,0,0,1,1.77-.931,67.655,67.655,0,0,1,4.022,9.792,45.419,45.419,0,0,1,2,8.951,20.21,20.21,0,0,1-.754,8.891,11.154,11.154,0,0,1-6.383,6.755q-.041.017-.084.031a25.336,25.336,0,0,1-6.838,1Z"
                transform="translate(-277.034 -38.128)" fill="#5bb3b3" />
        </g>
        <g transform="translate(84.502 17.222)">
            <path
                d="M290.706,41.468a33.692,33.692,0,0,1-4.947-.318,8.531,8.531,0,0,1-1.637-.391c-.962-.365-1.168-.934-1.172-1.348-.006-.616.4-1.087,1.213-1.4a9.544,9.544,0,0,1,1.763-.441,36.235,36.235,0,0,1,5.347-.419c.2,0,.412,0,.615,0a33.685,33.685,0,0,1,4.947.318,8.529,8.529,0,0,1,1.637.391c.962.365,1.168.934,1.172,1.348.006.616-.4,1.087-1.213,1.4a9.539,9.539,0,0,1-1.764.441,36.26,36.26,0,0,1-5.347.419C291.116,41.467,290.909,41.468,290.706,41.468Zm-3.052-2.113c.837.068,1.852.113,3.052.113.195,0,.393,0,.59,0,1.435-.018,2.657-.1,3.646-.2-.837-.068-1.853-.113-3.053-.113-.195,0-.393,0-.59,0C289.864,39.169,288.643,39.249,287.653,39.355Z"
                transform="translate(-278.236 -38.147)" fill="#5bb3b3" />
            <path
                d="M290.015,74.156a22.8,22.8,0,0,1-6.362-.841l-.065-.023a11.061,11.061,0,0,1-6.5-6.563,20.111,20.111,0,0,1-.939-8.875,45.51,45.51,0,0,1,1.828-9.01,68.1,68.1,0,0,1,3.837-9.908,1,1,0,0,1,1.789.895,67.4,67.4,0,0,0-3.72,9.618,43.442,43.442,0,0,0-1.744,8.6,18.147,18.147,0,0,0,.817,7.973,9.064,9.064,0,0,0,5.335,5.4,21.636,21.636,0,0,0,6.023.736,23.813,23.813,0,0,0,6.209-.9,9.156,9.156,0,0,0,5.237-5.566c3.407-9.566-5.072-25.869-5.158-26.032a1,1,0,0,1,1.77-.931,67.655,67.655,0,0,1,4.022,9.792,45.419,45.419,0,0,1,2,8.951,20.21,20.21,0,0,1-.754,8.891,11.154,11.154,0,0,1-6.383,6.755q-.041.017-.084.031a25.336,25.336,0,0,1-6.838,1Z"
                transform="translate(-277.034 -38.128)" fill="#5bb3b3" />
        </g>
        <path
            d="M0-1H26.745a1,1,0,0,1,1,1V40.208a1,1,0,0,1-1,1H0a1,1,0,0,1-1-1V0A1,1,0,0,1,0-1ZM25.745,1H1V39.208H25.745Z"
            transform="translate(52.043 88.44)" fill="#5bb3b3" />
        <path
            d="M0-1H26.745a1,1,0,0,1,1,1V40.208a1,1,0,0,1-1,1H0a1,1,0,0,1-1-1V0A1,1,0,0,1,0-1ZM25.745,1H1V39.208H25.745Z"
            transform="translate(84.784 88.44)" fill="#5bb3b3" />
        <g transform="translate(87.028 169.391)">
            <path
                d="M327.931,159.234h0a26.135,26.135,0,0,1-5.073-.436,7.192,7.192,0,0,1-1.709-.542,1.649,1.649,0,0,1-1.091-1.453c-.012-1.3,1.662-1.823,2.922-2.1a27.625,27.625,0,0,1,5.395-.547c.17,0,.343,0,.512,0a26.086,26.086,0,0,1,5.068.436,7.177,7.177,0,0,1,1.707.542,1.647,1.647,0,0,1,1.089,1.453c.013,1.3-1.661,1.821-2.921,2.1a27.645,27.645,0,0,1-5.395.548C328.266,159.232,328.1,159.234,327.931,159.234Zm-5-2.466a22.059,22.059,0,0,0,4.993.466c.158,0,.318,0,.477,0a27.878,27.878,0,0,0,4.428-.387c.424-.077.765-.156,1.037-.231a22.025,22.025,0,0,0-4.985-.465c-.16,0-.323,0-.484,0a27.855,27.855,0,0,0-4.428.386C323.549,156.615,323.208,156.693,322.936,156.768Z"
                transform="translate(-317.631 -155.148)" fill="#5bb3b3" />
            <path
                d="M326.992,202.737a17.989,17.989,0,0,1-6.512-1.155q-.039-.017-.076-.036c-3.456-1.832-5.191-4.954-5.3-9.545-.1-3.89.935-8.3,2.026-12.963.43-1.839.875-3.742,1.237-5.583a51.3,51.3,0,0,0,.129-16.511,1,1,0,0,1,1.969-.353,48.57,48.57,0,0,1,.568,5.41,49.351,49.351,0,0,1-.7,11.839c-.369,1.877-.818,3.8-1.252,5.653-1.061,4.538-2.064,8.824-1.974,12.459.094,3.837,1.428,6.318,4.2,7.8a16.566,16.566,0,0,0,5.933.98,18.337,18.337,0,0,0,6.115-1.155c2.883-1.65,4.236-4.417,4.258-8.7.02-4.008-1.144-8.821-2.271-13.476-.354-1.463-.72-2.976-1.043-4.44a57.7,57.7,0,0,1-1.027-16.5,1,1,0,0,1,1.989.206h0a56.742,56.742,0,0,0,.99,15.866c.319,1.444.683,2.947,1.034,4.4,1.154,4.771,2.348,9.7,2.327,13.956-.026,5.034-1.768,8.457-5.328,10.465a1,1,0,0,1-.1.048,19.879,19.879,0,0,1-6.918,1.334Z"
                transform="translate(-316.094 -155.122)" fill="#5bb3b3" />
        </g>
        <g transform="translate(54.468 169.391)">
            <path
                d="M327.931,159.234h0a26.135,26.135,0,0,1-5.073-.436,7.192,7.192,0,0,1-1.709-.542,1.649,1.649,0,0,1-1.091-1.453c-.012-1.3,1.662-1.823,2.922-2.1a27.625,27.625,0,0,1,5.395-.547c.17,0,.343,0,.512,0a26.086,26.086,0,0,1,5.068.436,7.177,7.177,0,0,1,1.707.542,1.647,1.647,0,0,1,1.089,1.453c.013,1.3-1.661,1.821-2.921,2.1a27.645,27.645,0,0,1-5.395.548C328.266,159.232,328.1,159.234,327.931,159.234Zm-5-2.466a22.059,22.059,0,0,0,4.993.466c.158,0,.318,0,.477,0a27.878,27.878,0,0,0,4.428-.387c.424-.077.765-.156,1.037-.231a22.025,22.025,0,0,0-4.985-.465c-.16,0-.323,0-.484,0a27.855,27.855,0,0,0-4.428.386C323.549,156.615,323.208,156.693,322.936,156.768Z"
                transform="translate(-317.631 -155.148)" fill="#5bb3b3" />
            <path
                d="M326.992,202.737a17.989,17.989,0,0,1-6.512-1.155q-.039-.017-.076-.036c-3.456-1.832-5.191-4.954-5.3-9.545-.1-3.89.935-8.3,2.026-12.963.43-1.839.875-3.742,1.237-5.583a51.3,51.3,0,0,0,.129-16.511,1,1,0,0,1,1.969-.353,48.57,48.57,0,0,1,.568,5.41,49.351,49.351,0,0,1-.7,11.839c-.369,1.877-.818,3.8-1.252,5.653-1.061,4.538-2.064,8.824-1.974,12.459.094,3.837,1.428,6.318,4.2,7.8a16.566,16.566,0,0,0,5.933.98,18.337,18.337,0,0,0,6.115-1.155c2.883-1.65,4.236-4.417,4.258-8.7.02-4.008-1.144-8.821-2.271-13.476-.354-1.463-.72-2.976-1.043-4.44a57.7,57.7,0,0,1-1.027-16.5,1,1,0,0,1,1.989.206h0a56.742,56.742,0,0,0,.99,15.866c.319,1.444.683,2.947,1.034,4.4,1.154,4.771,2.348,9.7,2.327,13.956-.026,5.034-1.768,8.457-5.328,10.465a1,1,0,0,1-.1.048,19.879,19.879,0,0,1-6.918,1.334Z"
                transform="translate(-316.094 -155.122)" fill="#5bb3b3" />
        </g>
        <g transform="translate(20.503 169.391)">
            <path
                d="M327.931,159.234h0a26.135,26.135,0,0,1-5.073-.436,7.192,7.192,0,0,1-1.709-.542,1.649,1.649,0,0,1-1.091-1.453c-.012-1.3,1.662-1.823,2.922-2.1a27.625,27.625,0,0,1,5.395-.547c.17,0,.343,0,.512,0a26.086,26.086,0,0,1,5.068.436,7.177,7.177,0,0,1,1.707.542,1.647,1.647,0,0,1,1.089,1.453c.013,1.3-1.661,1.821-2.921,2.1a27.645,27.645,0,0,1-5.395.548C328.266,159.232,328.1,159.234,327.931,159.234Zm-5-2.466a22.059,22.059,0,0,0,4.993.466c.158,0,.318,0,.477,0a27.878,27.878,0,0,0,4.428-.387c.424-.077.765-.156,1.037-.231a22.025,22.025,0,0,0-4.985-.465c-.16,0-.323,0-.484,0a27.855,27.855,0,0,0-4.428.386C323.549,156.615,323.208,156.693,322.936,156.768Z"
                transform="translate(-317.631 -155.148)" fill="#5bb3b3" />
            <path
                d="M326.992,202.737a17.989,17.989,0,0,1-6.512-1.155q-.039-.017-.076-.036c-3.456-1.832-5.191-4.954-5.3-9.545-.1-3.89.935-8.3,2.026-12.963.43-1.839.875-3.742,1.237-5.583a51.3,51.3,0,0,0,.129-16.511,1,1,0,0,1,1.969-.353,48.57,48.57,0,0,1,.568,5.41,49.351,49.351,0,0,1-.7,11.839c-.369,1.877-.818,3.8-1.252,5.653-1.061,4.538-2.064,8.824-1.974,12.459.094,3.837,1.428,6.318,4.2,7.8a16.566,16.566,0,0,0,5.933.98,18.337,18.337,0,0,0,6.115-1.155c2.883-1.65,4.236-4.417,4.258-8.7.02-4.008-1.144-8.821-2.271-13.476-.354-1.463-.72-2.976-1.043-4.44a57.7,57.7,0,0,1-1.027-16.5,1,1,0,0,1,1.989.206h0a56.742,56.742,0,0,0,.99,15.866c.319,1.444.683,2.947,1.034,4.4,1.154,4.771,2.348,9.7,2.327,13.956-.026,5.034-1.768,8.457-5.328,10.465a1,1,0,0,1-.1.048,19.879,19.879,0,0,1-6.918,1.334Z"
                transform="translate(-316.094 -155.122)" fill="#5bb3b3" />
        </g>
        <path d="M229.5,1H0V-1H229.5Z" transform="translate(0 247.5)" fill="#5bb3b3" />
        <path d="M42,1H0V-1H42Z" transform="translate(237.5 247.5)" fill="#5bb3b3" />
        <path d="M9.5,1H0V-1H9.5Z" transform="translate(287.5 247.5)" fill="#5bb3b3" />
        <g transform="translate(-100.644 93.837)">
            <path
                d="M1.293,0A1.151,1.151,0,0,0,.088,1.05c-.35,3.633.361,17.571,1.9,37.285C3.41,56.525,5.153,74.571,6.325,83.241c2.217,16.4,4.867,34.048,7.722,40.651,2.66,6.154,7.491,14.175,14.36,23.839a32.617,32.617,0,0,0,5.191,5.39c1.963,1.7,4.345,3.532,6.89,5.31,2.189,1.53,4.426,2.967,6.3,4.046a12.173,12.173,0,0,0,3.416,1.6c.089,0,.135-.032.137-.092.125-3.013-.88-7.606-1.765-11.658-.449-2.052-.872-3.99-1.1-5.5A34.789,34.789,0,0,0,43.5,135.3a57.964,57.964,0,0,0-7.545-10.562c-2.908-3.317-6.579-7-11.756-9.19a21.162,21.162,0,0,0-4.03-1.09,23.788,23.788,0,0,1-3.423-.866c-.426-.156-.753-.269-.991-.351-.774-.267-.774-.267-.86-.585a4.652,4.652,0,0,0-.556-1.256,24.733,24.733,0,0,1-2.378-7.341c-.157-.733-.3-1.425-.468-2.1-1.6-6.6-4.243-27.3-6.419-50.341-1.09-11.544-1.919-22.195-2.4-30.8-.544-9.809-.61-16.464-.2-19.78A.8.8,0,0,0,2.247.348,1.329,1.329,0,0,0,1.293,0Z"
                transform="translate(106.598 170.326) rotate(-170)" fill="#bfe2e2" />
            <path
                d="M1.317-.5A1.808,1.808,0,0,1,2.6,0a1.3,1.3,0,0,1,.372,1.1c-.408,3.287-.34,9.912.2,19.691.477,8.6,1.3,19.243,2.394,30.78,2.174,23.018,4.809,43.689,6.407,50.27.165.68.314,1.376.471,2.112a24.372,24.372,0,0,0,2.321,7.193,5.1,5.1,0,0,1,.607,1.378l.014.052c.094.043.3.113.526.192s.571.2,1,.354a23.428,23.428,0,0,0,3.35.845,21.532,21.532,0,0,1,4.126,1.12c5.27,2.227,8.991,5.962,11.937,9.321a58.453,58.453,0,0,1,7.609,10.653,35.278,35.278,0,0,1,4.029,11.689c.226,1.5.648,3.428,1.094,5.471.892,4.082,1.9,8.708,1.777,11.786a.6.6,0,0,1-.629.571H50.2c-.19,0-.77,0-3.66-1.666-1.884-1.086-4.134-2.531-6.335-4.069-2.558-1.788-4.955-3.635-6.93-5.341A33.092,33.092,0,0,1,28,148.02c-6.888-9.693-11.737-17.744-14.411-23.93C10.71,117.431,8.051,99.738,5.83,83.307,4.656,74.63,2.913,56.572,1.491,38.374-.052,18.633-.763,4.662-.41,1A1.644,1.644,0,0,1,1.285-.5ZM49.85,163.477c.006-2.948-.932-7.237-1.765-11.045-.45-2.06-.876-4.005-1.106-5.536a34.3,34.3,0,0,0-3.919-11.362,57.474,57.474,0,0,0-7.481-10.47C32.708,121.79,29.087,118.153,24,116a20.8,20.8,0,0,0-3.934-1.061,24.158,24.158,0,0,1-3.5-.887c-.42-.154-.744-.266-.981-.347-.808-.279-1.025-.353-1.181-.927a4.2,4.2,0,0,0-.5-1.135,25.1,25.1,0,0,1-2.436-7.489c-.156-.73-.3-1.418-.465-2.085C9.4,95.452,6.753,74.722,4.575,51.662c-1.091-11.55-1.92-22.208-2.4-30.819C1.632,11,1.567,4.32,1.982.974A.3.3,0,0,0,1.892.7.833.833,0,0,0,1.317.5H1.3a.661.661,0,0,0-.715.6C.238,4.7.949,18.61,2.488,38.3,3.908,56.478,5.65,74.512,6.821,83.174c2.212,16.363,4.855,33.972,7.686,40.52,2.646,6.122,7.46,14.112,14.308,23.747a32.141,32.141,0,0,0,5.111,5.3c1.95,1.684,4.318,3.51,6.849,5.278,2.178,1.522,4.4,2.951,6.261,4.023A20.271,20.271,0,0,0,49.85,163.477Z"
                transform="translate(106.598 170.326) rotate(-170)" fill="rgba(0,0,0,0)" />
            <path
                d="M62.246,77.784c3.811,1.9,44.1,29.717,46.029,27.465C89.492,77.938,73.282,72.5,70.52,70.974a8.3,8.3,0,0,0-9.135.515c-1.3-1.1-2.523-2.257-3.7-3.23-3.576-2.965-6.951-6.005-10.173-9.12-6.694-6.471-12.407-13.329-18.388-20.056-5.9-6.639-11.757-13.313-17.094-20.132C7.512,13.173,1.471,6.389,0,0,2.165,13.565,11.049,26.494,21.69,38.314,32.245,50.036,44.37,62.829,60.87,71.95,59.144,73.712,59.053,76.19,62.246,77.784Z"
                transform="matrix(-0.848, -0.53, 0.53, -0.848, 91.823, 191.517)" fill="#bfe2e2" />
            <path
                d="M61.141,0H57.38c-1.758,5.5-3.891,11.215-6.341,16.974-.315.743-.621,1.508-.944,2.319l-.006.016a34.6,34.6,0,0,1-4.053,8.084,6.448,6.448,0,0,0-.839,1.367c-.16.352-.16.352-.984.57-.236.062-.593.156-1.056.288a22.478,22.478,0,0,1-3.568.6,20.131,20.131,0,0,0-4.227.791c-5.606,1.909-10.08,5.691-13.717,9.139a76.752,76.752,0,0,0-9.89,11.168,48.7,48.7,0,0,0-6.6,12.665A98.579,98.579,0,0,0,.994,79.27c-.034.2-.107.524-.2.933l-.009.04C.338,82.232-.5,85.934.4,86.928a.737.737,0,0,0,.571.248,1.142,1.142,0,0,0,.181-.015c2.737-.445,6.706-4.34,9.895-7.469,1.075-1.055,2-1.966,2.767-2.629a104.569,104.569,0,0,0,9.907-9.914A165.938,165.938,0,0,0,41.247,43.392,216.224,216.224,0,0,0,52.285,22.759,189.315,189.315,0,0,0,60.753,1.221C60.877.84,61.007.429,61.14,0Z"
                transform="translate(168.577 168.245) rotate(180)" fill="#bfe2e2" />
            <path
                d="M57.015-.5h4.9l-.306.679c-.144.462-.269.854-.38,1.2a189.81,189.81,0,0,1-8.49,21.593A216.724,216.724,0,0,1,41.675,43.651,166.441,166.441,0,0,1,24.091,67.479a105.065,105.065,0,0,1-9.954,9.961c-.755.655-1.677,1.56-2.745,2.608-3.239,3.179-7.271,7.135-10.165,7.606a1.65,1.65,0,0,1-.261.022,1.235,1.235,0,0,1-.942-.413c-.985-1.1-.4-4.123.274-7.129l.01-.046c.09-.4.16-.715.192-.9A99.025,99.025,0,0,1,4.682,63.82a49.192,49.192,0,0,1,6.665-12.793A77.243,77.243,0,0,1,21.3,39.785c3.676-3.485,8.2-7.309,13.9-9.249a20.515,20.515,0,0,1,4.331-.814,22.112,22.112,0,0,0,3.489-.585c.444-.127.8-.22,1.029-.281l.036-.01a6.069,6.069,0,0,0,.6-.175c.015-.028.037-.077.056-.118a6.892,6.892,0,0,1,.9-1.462,34.232,34.232,0,0,0,3.985-7.963l.008-.021c.349-.877.641-1.606.948-2.329C53.021,11.037,55.149,5.341,56.9-.152Zm3.444,1H57.745C56,5.915,53.9,11.522,51.5,17.17c-.3.713-.592,1.435-.938,2.305l-.007.019a34.973,34.973,0,0,1-4.118,8.2,5.989,5.989,0,0,0-.782,1.27c-.258.57-.46.623-1.312.848l-.036.01c-.229.06-.575.152-1.01.276a22.833,22.833,0,0,1-3.647.616,19.779,19.779,0,0,0-4.124.767c-5.516,1.878-9.937,5.618-13.534,9.029a76.261,76.261,0,0,0-9.827,11.1A48.209,48.209,0,0,0,5.629,64.142,98.136,98.136,0,0,0,1.488,79.353c-.036.213-.11.54-.2.953l-.011.047a37.015,37.015,0,0,0-.69,3.663C.361,85.91.638,86.45.768,86.594a.239.239,0,0,0,.2.082.648.648,0,0,0,.1-.009c2.58-.42,6.651-4.415,9.624-7.332,1.079-1.059,2.012-1.974,2.79-2.65a104.079,104.079,0,0,0,9.859-9.868A165.44,165.44,0,0,0,40.819,43.133,215.72,215.72,0,0,0,51.831,22.548a188.81,188.81,0,0,0,8.446-21.48C60.334.892,60.394.7,60.459.5Z"
                transform="translate(168.577 168.245) rotate(180)" fill="rgba(0,0,0,0)" />
            <path
                d="M62.455,0H57.024c-.076,1.469-.136,2.877-.18,4.186C56.535,13.312,55.7,22.947,54.2,34.506c-1.08,8.371-2.774,16.837-4.411,25.024l0,.019c-.252,1.26-.549,2.747-.842,4.226-.812,4.1-1.715,8.479-2.925,14.186-.082.382-.15.965-.229,1.64v.012c-.207,1.773-.491,4.2-1.272,4.9-.629.563-2.733.928-4.767,1.282a21.763,21.763,0,0,0-3.579.794,45.748,45.748,0,0,0-9.688,5.617A67.927,67.927,0,0,0,12.228,107.02a63.014,63.014,0,0,0-9.5,20.019A76.27,76.27,0,0,0,.007,148.517c.01.808.479,3.955,1.073,7.939v0c1.465,9.827,3.679,24.676,2.16,24.966a5.333,5.333,0,0,1,.367.391c1.761-2.449,3.495-4.93,4.808-6.818a271.342,271.342,0,0,0,18.648-31.065,233.673,233.673,0,0,0,13.795-32.741c4.421-13.357,7.557-27.243,10.59-40.671v0l.025-.111c4.841-21.443,9.293-42.455,10.565-63.76.114-1.9.244-3.93.358-5.718L62.455,0Z"
                transform="translate(159.449 184.274) rotate(180)" fill="#bfe2e2" />
            <path
                d="M56.549-.5h6.405V.033l-.061.951c-.114,1.781-.243,3.8-.357,5.694-1.274,21.338-5.73,42.374-10.576,63.84l-.029.132c-3.035,13.434-6.172,27.326-10.6,40.7a234.169,234.169,0,0,1-13.824,32.812A271.836,271.836,0,0,1,8.825,175.285c-1.308,1.88-3.037,4.355-4.813,6.824l-.373.519-.414-.487a4.847,4.847,0,0,0-.333-.355l-.7-.67.854-.163a7.43,7.43,0,0,0,.184-2.8c-.051-1.515-.228-3.612-.526-6.23-.552-4.848-1.423-10.686-2.122-15.378l0-.018c-.619-4.156-1.067-7.159-1.077-8A76.77,76.77,0,0,1,2.247,126.9a63.513,63.513,0,0,1,9.576-20.177A68.43,68.43,0,0,1,26.187,91.8a46.237,46.237,0,0,1,9.8-5.677,21.858,21.858,0,0,1,3.683-.824c1.782-.31,4-.7,4.519-1.162.641-.574.934-3.085,1.109-4.586l.007-.063c.078-.666.146-1.241.231-1.636,1.215-5.732,2.117-10.1,2.923-14.179.292-1.475.583-2.931.84-4.215l.007-.034c1.635-8.176,3.327-16.631,4.405-24.986C55.2,22.9,56.036,13.284,56.345,4.169c.044-1.317.1-2.728.18-4.195Zm5.373,1H57.5c-.064,1.291-.116,2.534-.155,3.7C57.034,13.35,56.193,23,54.7,34.57c-1.083,8.391-2.778,16.864-4.417,25.058l-.006.03c-.257,1.284-.548,2.739-.84,4.213-.807,4.078-1.71,8.456-2.926,14.193-.075.351-.14.9-.216,1.545l-.007.057c-.281,2.406-.582,4.455-1.436,5.22-.684.612-2.428.952-5.011,1.4a21.733,21.733,0,0,0-3.479.765,45.245,45.245,0,0,0-9.58,5.556,67.423,67.423,0,0,0-14.147,14.7A62.516,62.516,0,0,0,3.21,127.174a75.771,75.771,0,0,0-2.7,21.337c.01.774.5,4.059,1.066,7.864l0,.012c.737,4.94,1.653,11.088,2.2,16.079.3,2.755.457,4.82.473,6.315.005.513-.005.953-.034,1.328,1.406-1.974,2.735-3.878,3.789-5.394a270.83,270.83,0,0,0,18.613-31.007,233.17,233.17,0,0,0,13.765-32.671c4.412-13.329,7.544-27.2,10.573-40.608l.029-.132c4.837-21.424,9.284-42.416,10.554-63.679.113-1.9.243-3.916.357-5.7Z"
                transform="translate(159.449 184.274) rotate(180)" fill="rgba(0,0,0,0)" />
            <path
                d="M.044,0h0a93.529,93.529,0,0,0,.4,11.847A119.445,119.445,0,0,0,2.214,23.69,177.564,177.564,0,0,0,8.6,46.742c1.742,5.076,3.83,10.307,6.384,15.991,2.1,4.683,4.5,9.638,7.553,15.591.248.484.518.988.8,1.522l0,0a26.218,26.218,0,0,1,2.93,6.956,7.519,7.519,0,0,1-.839,4.057c-.242.606-.492,1.231-.679,1.867a52.006,52.006,0,0,0-.706,25.069,15.715,15.715,0,0,0,5.935,9.865c2.923,2.163,6.919,3.474,12.217,4.007,3.391.342,21.324,16.858,24.885,20.166l.011-.475c-2.947-5.447-17.729-32.746-19.319-35.246-3.545-5.574-7.28-11.524-10.549-17.6C32.751,90.2,29.216,83.309,26.1,76.825A355.708,355.708,0,0,1,10.382,39.142C8.113,32.61,6.108,26.086,4.423,19.753,2.658,13.117,1.184,6.471.044,0Z"
                transform="translate(104.094 193.996) rotate(-166)" fill="#bfe2e2" />
            <path
                d="M.454-.547l.083.46C1.674,6.37,3.144,13,4.906,19.625c1.682,6.321,3.683,12.832,5.948,19.353A355.219,355.219,0,0,0,26.548,76.609c3.115,6.476,6.646,13.361,11.114,21.667,3.262,6.064,6.991,12.006,10.531,17.572,1.6,2.52,16.389,29.827,19.336,35.276l.063.117-.041,1.719-.814-.756c-1.561-1.45-7.075-6.542-12.491-11.182-8.786-7.527-11.354-8.777-12.1-8.853-5.39-.543-9.467-1.885-12.464-4.1A16.193,16.193,0,0,1,23.554,117.9a52.514,52.514,0,0,1,.716-25.314c.193-.659.448-1.3.694-1.912a7.176,7.176,0,0,0,.812-3.782A25.89,25.89,0,0,0,22.9,80.085c-.289-.54-.56-1.046-.809-1.533-3.053-5.961-5.456-10.922-7.564-15.614C11.963,57.24,9.87,52,8.122,46.9a178.051,178.051,0,0,1-6.4-23.117A119.94,119.94,0,0,1-.05,11.894,94.029,94.029,0,0,1-.457-.016l.014-.435ZM65.742,149.921C61.451,142,48.809,118.678,47.35,116.384c-3.55-5.582-7.29-11.541-10.568-17.635-4.475-8.32-8.013-15.217-11.135-21.707A356.207,356.207,0,0,1,9.909,39.306C7.637,32.762,5.628,26.227,3.94,19.882,2.643,15.008,1.5,10.129.538,5.318.6,7.441.736,9.607.945,11.8A118.941,118.941,0,0,0,2.7,23.592,177.071,177.071,0,0,0,9.068,46.58c1.737,5.062,3.82,10.279,6.367,15.948,2.1,4.676,4.5,9.622,7.542,15.568.246.479.515.982.8,1.514a26.568,26.568,0,0,1,2.983,7.107,7.876,7.876,0,0,1-.867,4.332c-.238.595-.483,1.209-.663,1.822a51.5,51.5,0,0,0-.7,24.824,15.238,15.238,0,0,0,5.744,9.567c2.848,2.108,6.763,3.387,11.969,3.912.564.057,1.7.422,5.066,2.926,2,1.489,4.552,3.562,7.587,6.162C59.062,143.829,63.2,147.58,65.742,149.921Z"
                transform="translate(104.094 193.996) rotate(-166)" fill="rgba(0,0,0,0)" />
            <path
                d="M56.927,5.3c.35-2.792-1.49-5.3-3.891-5.3H4.724C2.324,0,.483,2.506.833,5.3L4.567,35.061c1.138,9.073,7.762,15.795,15.564,15.795h17.5c7.8,0,14.426-6.722,15.564-15.795Z"
                transform="translate(76.57 162.111)" fill="#bfe2e2" />
        </g>
        <g transform="translate(125.401 40.585)">
            <g transform="translate(20.649 15.018)">
                <path
                    d="M0,63.825l7.2-33.67C3.185,25.426.467,19.63.921,13.137,2.23-5.574,28.194-1.458,33.244,7.986s4.451,33.4-2.076,35.086c-2.6.673-8.149-.976-13.793-4.388l3.543,25.142Z"
                    transform="translate(0 0)" fill="#efc6a1" />
            </g>
            <path
                d="M64.034,9.82a4.568,4.568,0,0,0-3.2-3.244,4.213,4.213,0,0,0-1.177-.117c-.142.006-.182.047-.248-.053a1.3,1.3,0,0,1-.071-.34,6.408,6.408,0,0,0-.239-.793,6.471,6.471,0,0,0-1.561-2.32A7.857,7.857,0,0,0,52.821.721a6.88,6.88,0,0,0-2.837.387,11.234,11.234,0,0,0-1.377.589c-.134.067-.57.4-.705.376s-.448-.394-.569-.487A8.34,8.34,0,0,0,42.122,0c-2.1.016-4.131.121-5.887,1.4a11.772,11.772,0,0,0-1.062.882c-.177.165-.349.336-.513.514q-.148.161-.288.33c-.157.192-.132.254-.352.121a4.376,4.376,0,0,0-2.81-.632,6.287,6.287,0,0,0-1.7.479c-.184.079-.61.393-.807.4s-.615-.288-.816-.362a6.687,6.687,0,0,0-3.39-.314,8.753,8.753,0,0,0-3.324,1.307,4.468,4.468,0,0,0-1.232,1.12c-.145.2-.276.412-.44.6-.1.109-.286.22-.338.357a7.3,7.3,0,0,0-1.409-.622,3.47,3.47,0,0,0-1.982.075,7.882,7.882,0,0,0-3.126,2.221,8.874,8.874,0,0,0-1.157,1.554q-.236.4-.433.822a3.057,3.057,0,0,1-.19.428c-.108.158-.181.161-.377.229a6.1,6.1,0,0,0-2.6,1.739A5.986,5.986,0,0,0,6.553,15.5a1.452,1.452,0,0,1-.054.351c-.05.046-.25.026-.326.035a6.851,6.851,0,0,0-.78.138,6.442,6.442,0,0,0-1.372.493,7.169,7.169,0,0,0-3.514,4.2A8.514,8.514,0,0,0,.64,26.538a5.694,5.694,0,0,0,.433.854c.1.167.137.167.07.342-.075.194-.212.383-.3.573A8.229,8.229,0,0,0,.22,30.255a9.14,9.14,0,0,0-.107,3.369A4.864,4.864,0,0,0,.633,35.1a4.24,4.24,0,0,0,.456.661c.09.107.185.208.284.306a1.9,1.9,0,0,1,.18.167c.118.152.143.027.082.25a9.973,9.973,0,0,1-.4.922c-.122.312-.232.629-.333.949a14,14,0,0,0-.484,1.977A6.209,6.209,0,0,0,.86,44.174a3.842,3.842,0,0,0,1.087,1.294,4.034,4.034,0,0,0,.714.434c.129.061.295.088.354.213s-.031.4-.052.553a9.209,9.209,0,0,0,.108,3.968,5.482,5.482,0,0,0,2.173,2.916A6.76,6.76,0,0,0,12,53.743a7.094,7.094,0,0,0,1.508-1.037c1.157,1.558,3.539,1.509,5.23,1.065a7.513,7.513,0,0,0,4.772-3.943,3.179,3.179,0,0,0,5.051-.664,4.209,4.209,0,0,0,.426-1.385c.035-.253.013-.507.039-.758a3.915,3.915,0,0,1,.369-.938,5.179,5.179,0,0,0,.393-1.87,9.492,9.492,0,0,0-.072-1,3.45,3.45,0,0,1,.1-.882,4.034,4.034,0,0,1-1.708-.213,3.372,3.372,0,0,1-1.32-.929,7.7,7.7,0,0,1-1.661-3.105c-.751-2.46-.443-5.41,2.031-6.76,1.152-.629,4.6-.627,5.978-.316,1.443.327,3.079,3.511,3.16,3.811.05.185.025.415.195.538.374.271.991-.2,1.267-.432a5,5,0,0,0,1.11-1.476,18.262,18.262,0,0,0,1.522-3.733c.281-.995.461-2.021.829-2.99a4.574,4.574,0,0,1,1.839-2.374,16.2,16.2,0,0,1,3.165-1.281,7.855,7.855,0,0,0,2.928-1.609,4.046,4.046,0,0,0,.5-.56c.115-.161.229-.468.4-.57.272-.158.67.253.905.4a10.462,10.462,0,0,1,2.913,2.891,17.991,17.991,0,0,1,1.934,3.443,9.954,9.954,0,0,0,1.3,2.871,5.487,5.487,0,0,0,3.273.248,4.135,4.135,0,0,0,1.786-1.545,2.4,2.4,0,0,0,.2-1.573c-.063-.317-.191-.614-.261-.925a2.885,2.885,0,0,0-.24-.749,1.848,1.848,0,0,0-1.152-.918,5.409,5.409,0,0,0,1.244-1.687,7.241,7.241,0,0,0,.644-2.2,2.669,2.669,0,0,0-.356-1.712,4.508,4.508,0,0,0-1.462-1.213,9.509,9.509,0,0,0,2.035-2.216A6.919,6.919,0,0,0,64.034,9.82Z"
                transform="translate(0 0)" fill="#313e58" />
        </g>
        <g transform="translate(56.96 41.505)">
            <g transform="translate(49.174 151.082)">
                <path d="M0,0,29.676,97.018l14.376,82.507H55.323L40.133,0Z"
                    transform="translate(33.91 0)" fill="#e6b88e" />
                <path
                    d="M22.061,0c2.016,53.268-.356,80.745-.808,85.584S14.624,121.8,0,181.15l12.011-4.125C35.123,122.6,43,94.309,45.65,87.161S55.341,50.96,66.771,0Z"
                    transform="translate(1.233 0)" fill="#efc6a1" />
                <g transform="translate(0 172.178)">
                    <path
                        d="M3.528,4.039A1.577,1.577,0,0,0,1.5,5.1L0,10.405a50.662,50.662,0,0,0,.711,6.226H45.19s1.734-5.732-2-6.189-6.206-.825-6.206-.825L16.308.4a.789.789,0,0,0-1.05.42L13.929,4.044s-3.458,1.613-5.62,1.613Z"
                        transform="translate(0 -0.332)" fill="#acb1bc" />
                </g>
                <g transform="translate(74.129 172.178)">
                    <path
                        d="M3.528,4.039A1.577,1.577,0,0,0,1.5,5.1L0,10.405a50.662,50.662,0,0,0,.711,6.226H45.19s1.734-5.732-2-6.189-6.206-.825-6.206-.825L16.308.4a.789.789,0,0,0-1.05.42L13.929,4.044s-3.458,1.613-5.62,1.613Z"
                        transform="translate(0 -0.332)" fill="#acb1bc" />
                </g>
                <path d="M0,0,12.618,49.43H51.157L45.411,0Z" transform="translate(29.967 0)"
                    fill="#708daf" />
                <path d="M3.923,0C-2.3,18.667,1.557,49.43,1.557,49.43H40.885L51.7,0Z"
                    transform="translate(18.947)" fill="#96b7df" />
            </g>
            <g transform="matrix(0.799, 0.602, -0.602, 0.799, 215.333, 80.236)">
                <rect width="6.131" height="8.813" rx="2" transform="translate(0.153 0)"
                    fill="#ffe491" />
                <path d="M.5,9.024h-1V0h1Z" transform="translate(5.613 0.077)" fill="#edc95a" />
                <path d="M.5,9.024h-1V0h1Z" transform="translate(4.847 0.077)" fill="#edc95a" />
                <path d="M.5,9.024h-1V0h1Z" transform="translate(3.988 0.077)" fill="#edc95a" />
                <path d="M.5,9.024h-1V0h1Z" transform="translate(3.175 0.077)" fill="#edc95a" />
                <path d="M.5,9.024h-1V0h1Z" transform="translate(2.363 0.077)" fill="#edc95a" />
                <path d="M.5,9.024h-1V0h1Z" transform="translate(1.504 0.077)" fill="#edc95a" />
                <path d="M.5,9.024h-1V0h1Z" transform="translate(0.737 0.077)" fill="#edc95a" />
                <path d="M0,0,.169,2.457,1.205,14.675H4.779L6.15,2.457,6.375,0Z"
                    transform="translate(0 8.159)" fill="#7a8293" />
                <path
                    d="M.414,0,0,6.634.651,61.723a3.36,3.36,0,0,0,1.6.5,4.3,4.3,0,0,0,1.742-.5L4.646,6.668,4.231,0Z"
                    transform="translate(0.69 21.686)" fill="#629d62" />
                <path d="M0,0H5.834l-.3,2.676H.221Z" transform="translate(0.231 11.384)"
                    fill="#313e58" />
            </g>
            <path
                d="M0,24.145,28.575,11.6A67.713,67.713,0,0,1,43.076.222c1.394-.444,3.775-.578,1.235,3.133s-5.047,7.729-4.031,9.03,3.956-.135,5.118,1.98q1.162,2.115-14.872,5.06L9.124,35.834Z"
                transform="translate(153.98 99.544) rotate(2)" fill="#efc6a1" />
            <path
                d="M39.043,0,55.2,3.206Q30.825,48.636,29.056,51.362c-2.653,4.089-.178,11.582.737,15.528-5.737,1.335-3.475-7.3-10.735-5.5C12.432,63.04,6.813,67.263.634,61.567c-.76-.7-1.316-2.889,1.274-4.012,6.453-2.8,15.987-8.034,17.533-10.067Q22.6,43.329,39.043,0Z"
                transform="translate(0 127.188)" fill="#efc6a1" />
            <path
                d="M0,1.76,6.691,0C22.743,13.059,31.8,47.013,42.058,50.715c9.7,3.5,22.551-1.832,37.767-8.846L85.576,52.2c-12.922,16.691-42.188,32.4-55.166,26.028C9.663,68.042,1.393,25.91,0,1.76Z"
                transform="translate(99.932 64.076) rotate(7)" fill="#629d62" />
            <path
                d="M0,89.9H60.338c2.757,0,2.238-3.981,1.839-5.99-4.6-23.185-22.556-48.178-22.556-81.182L22.216,0C7.821,23.152,2.843,51.657,0,89.9Z"
                transform="translate(69.397 62.523)" fill="#e4e6ea" />
            <path
                d="M0,111.871Q12.22,36.084,70.776,0h6.891S101.1,79.891,90.589,106.462H36.276a198.274,198.274,0,0,1,7.389-40.036Q25.214,99.707,12.647,114.348Z"
                transform="translate(19.715 62.523)" fill="#85cb85" />
        </g>
    </g>
</svg>