<svg xmlns="http://www.w3.org/2000/svg" xmlns:xlink="http://www.w3.org/1999/xlink" width="400"
    height="320" viewBox="0 0 400 320">
    <defs>
        <clipPath>
            <rect width="60.348" height="69.832" fill="none" />
        </clipPath>
        <clipPath>
            <rect width="158.206" height="215.1" fill="#bfe2e2" />
        </clipPath>
        <clipPath>
            <rect width="400" height="320" />
        </clipPath>
    </defs>
    <g clip-path="url(#d)">
        <path
            d="M945.777,2673.986a23.2,23.2,0,0,1-8.848-3.784,18.585,18.585,0,0,1-7.6.036c-9.174-1.855-15.114-10.063-13.266-18.333s10.784-13.471,19.959-11.615q.879.178,1.718.432a22.985,22.985,0,0,1,16.023-2.453,22.667,22.667,0,0,1,11.5,6.008,13.169,13.169,0,0,1,9.343-1.494c6.526,1.32,10.793,6.979,9.528,12.639s-7.582,9.18-14.11,7.861q-.294-.059-.582-.131c-2.947,6.864-10.456,11.317-18.861,11.317A24.2,24.2,0,0,1,945.777,2673.986Z"
            transform="translate(-737.351 -2633.359)" fill="#c0e1e2" />
        <path
            d="M950.576,2674.969h0a24.75,24.75,0,0,1-4.9-.493,23.584,23.584,0,0,1-8.858-3.74,18.9,18.9,0,0,1-3.762.377,19.374,19.374,0,0,1-3.831-.385,18.606,18.606,0,0,1-6.734-2.789,16.947,16.947,0,0,1-4.8-4.847,14.6,14.6,0,0,1,.075-16.353,15.881,15.881,0,0,1,3.8-3.91,18.291,18.291,0,0,1,10.716-3.414,19.37,19.37,0,0,1,3.832.385c.526.106,1.048.235,1.556.382a22.939,22.939,0,0,1,11.287-2.9,24.772,24.772,0,0,1,4.9.493,23.144,23.144,0,0,1,11.477,5.876,13.374,13.374,0,0,1,6.512-1.649,14.421,14.421,0,0,1,2.853.287,13.136,13.136,0,0,1,8.449,5.542,10.041,10.041,0,0,1,1.468,7.7,10.412,10.412,0,0,1-4.235,6.189,13.274,13.274,0,0,1-7.61,2.339,14.429,14.429,0,0,1-2.852-.287l-.194-.041a18.429,18.429,0,0,1-7.417,8.081A22.842,22.842,0,0,1,950.576,2674.969Zm-13.536-5.3.18.127a22.563,22.563,0,0,0,8.657,3.7,23.767,23.767,0,0,0,4.7.473,21.84,21.84,0,0,0,11.221-3.014,17.364,17.364,0,0,0,7.181-8l.167-.39.412.1c.186.046.375.088.561.126a13.413,13.413,0,0,0,2.654.267,12.266,12.266,0,0,0,7.033-2.156,9.29,9.29,0,0,0,3.836-5.591,9.049,9.049,0,0,0-1.331-6.933,12.132,12.132,0,0,0-7.808-5.106,13.439,13.439,0,0,0-2.655-.267,12.32,12.32,0,0,0-6.333,1.7l-.333.2-.276-.273a22.093,22.093,0,0,0-11.245-5.874,23.772,23.772,0,0,0-4.7-.473,21.9,21.9,0,0,0-10.973,2.869l-.188.108-.208-.063c-.543-.164-1.106-.306-1.673-.42a18.386,18.386,0,0,0-3.634-.365,17.284,17.284,0,0,0-10.127,3.222,14.877,14.877,0,0,0-3.567,3.664,13.6,13.6,0,0,0-.064,15.247,15.955,15.955,0,0,0,4.522,4.562,17.619,17.619,0,0,0,6.375,2.639,18.392,18.392,0,0,0,3.633.365,17.887,17.887,0,0,0,3.767-.4Z"
            transform="translate(-737.351 -2633.359)" fill="rgba(0,0,0,0)" />
        <path
            d="M963.647,2684.511a24.568,24.568,0,0,1-9.857-4.7,18.634,18.634,0,0,1-8.472.045,19.379,19.379,0,0,1-11.994-8.391,13.611,13.611,0,0,1-6.946.225c-7.273-1.638-12.026-8.663-10.617-15.689a12.875,12.875,0,0,1,15.721-9.758,14.145,14.145,0,0,1,3.941,1.534,18.446,18.446,0,0,1,17.352-5.1,19.258,19.258,0,0,1,1.915.536,23.352,23.352,0,0,1,17.851-3.045,24.525,24.525,0,0,1,12.811,7.459,13.391,13.391,0,0,1,10.409-1.855c7.272,1.639,12.026,8.663,10.616,15.69a12.873,12.873,0,0,1-15.72,9.757q-.328-.073-.649-.162a22.319,22.319,0,0,1-21.015,14.049A24.314,24.314,0,0,1,963.647,2684.511Z"
            transform="translate(-577.722 -2583.305)" fill="#c0e1e2" />
        <path
            d="M968.993,2685.61h0a25.128,25.128,0,0,1-15.323-5.255,19,19,0,0,1-4.194.469,19.661,19.661,0,0,1-11.358-3.641,20.014,20.014,0,0,1-5.008-5.133,13.922,13.922,0,0,1-3.663.488,14.61,14.61,0,0,1-12.048-6.388,13.452,13.452,0,0,1-2.129-10.244,12.844,12.844,0,0,1,4.678-7.606,13.731,13.731,0,0,1,8.466-2.9,14.486,14.486,0,0,1,3.177.356,14.654,14.654,0,0,1,3.744,1.4,18.9,18.9,0,0,1,13.281-5.444,19.454,19.454,0,0,1,4.269.478c.582.131,1.165.291,1.736.475a23.518,23.518,0,0,1,12.573-3.6,25.1,25.1,0,0,1,18.239,7.911,13.7,13.7,0,0,1,7.258-2.051,14.606,14.606,0,0,1,12.046,6.388,13.453,13.453,0,0,1,2.128,10.244,12.84,12.84,0,0,1-4.677,7.605,13.729,13.729,0,0,1-8.465,2.9,14.484,14.484,0,0,1-3.178-.356l-.237-.055a22.06,22.06,0,0,1-8.252,10.041A23.474,23.474,0,0,1,968.993,2685.61Zm-15.084-6.34.191.151a24.127,24.127,0,0,0,14.893,5.189,22.477,22.477,0,0,0,12.51-3.746,21.057,21.057,0,0,0,8.038-9.983l.163-.422.436.12c.21.058.42.11.626.156a13.474,13.474,0,0,0,2.959.332,12.723,12.723,0,0,0,7.846-2.683,11.84,11.84,0,0,0,4.315-7.017c1.354-6.751-3.237-13.527-10.236-15.1a13.471,13.471,0,0,0-2.958-.332,12.684,12.684,0,0,0-7.064,2.115l-.359.239-.289-.319a24.1,24.1,0,0,0-17.786-7.894,22.51,22.51,0,0,0-12.234,3.565l-.2.131-.228-.077a18.85,18.85,0,0,0-1.865-.522,18.449,18.449,0,0,0-4.049-.454,17.9,17.9,0,0,0-12.835,5.414l-.271.278-.337-.193a13.638,13.638,0,0,0-3.8-1.479,13.49,13.49,0,0,0-2.957-.332,12.726,12.726,0,0,0-7.848,2.683,11.843,11.843,0,0,0-4.316,7.017c-1.354,6.751,3.238,13.526,10.237,15.1a13.487,13.487,0,0,0,2.959.332,12.892,12.892,0,0,0,3.732-.548l.359-.108.2.315a19.036,19.036,0,0,0,4.954,5.172,18.661,18.661,0,0,0,10.779,3.456,17.982,17.982,0,0,0,4.2-.5Z"
            transform="translate(-577.722 -2583.305)" fill="rgba(0,0,0,0)" />
        <path
            d="M397.678,1H0A1,1,0,0,1-1,0,1,1,0,0,1,0-1H397.678a1,1,0,0,1,1,1A1,1,0,0,1,397.678,1Z"
            transform="translate(1 256.5)" fill="#5ab3b3" />
        <path
            d="M397.678,1H0A1,1,0,0,1-1,0,1,1,0,0,1,0-1H397.678a1,1,0,0,1,1,1A1,1,0,0,1,397.678,1Z"
            transform="translate(1 126.255)" fill="#5ab3b3" />
        <path
            d="M397.678,1H0A1,1,0,0,1-1,0,1,1,0,0,1,0-1H397.678a1,1,0,0,1,1,1A1,1,0,0,1,397.678,1Z"
            transform="translate(1 120.011)" fill="#5ab3b3" />
        <path
            d="M128.809,1H0A1,1,0,0,1-1,0,1,1,0,0,1,0-1H128.809a1,1,0,0,1,1,1A1,1,0,0,1,128.809,1Z"
            transform="translate(114.961 256.5) rotate(-90)" fill="#5ab3b3" />
        <path
            d="M118.755,1H0A1,1,0,0,1-1,0,1,1,0,0,1,0-1H118.755a1,1,0,0,1,1,1A1,1,0,0,1,118.755,1Z"
            transform="translate(114.961 119.255) rotate(-90)" fill="#5ab3b3" />
        <path
            d="M128.809,1H0A1,1,0,0,1-1,0,1,1,0,0,1,0-1H128.809a1,1,0,0,1,1,1A1,1,0,0,1,128.809,1Z"
            transform="translate(108.717 256.5) rotate(-90)" fill="#5ab3b3" />
        <path
            d="M118.755,1H0A1,1,0,0,1-1,0,1,1,0,0,1,0-1H118.755a1,1,0,0,1,1,1A1,1,0,0,1,118.755,1Z"
            transform="translate(108.717 119.255) rotate(-90)" fill="#5ab3b3" />
        <g transform="translate(1843.515 -1452.463)">
            <path
                d="M0,38.447a2.988,2.988,0,0,1-1.921-.7,3,3,0,0,1-.38-4.226L27.3-1.923a3,3,0,0,1,4.226-.38,3,3,0,0,1,.38,4.226L2.3,37.37A2.994,2.994,0,0,1,0,38.447Z"
                transform="translate(-1732.803 1653.492) rotate(-8)" fill="#313e58" />
            <g transform="matrix(0.996, 0.087, -0.087, 0.996, -1719.093, 1486.853)">
                <g transform="translate(72.957 22.54)">
                    <path
                        d="M0,43.3,4.9,20.457C2.168,17.249.318,13.317.627,8.912c.891-12.693,18.561-9.9,22-3.494s3.029,22.657-1.413,23.8c-1.772.457-5.546-.662-9.387-2.977L14.236,43.3Z"
                        transform="translate(0 0)" fill="#b28b67" />
                </g>
                <path
                    d="M87.468,20.573c-1.876-.308-6.928-.519-7.86-.519-.6,0-1.241.136-1.593-.411-.289-.448-.183-1.2-.269-1.724-.1-.6-.242-1.2-.386-1.793a18.233,18.233,0,0,0-1.893-4.81,14.783,14.783,0,0,0-7.007-6.344A22.5,22.5,0,0,0,57.82,3.509c-3.818.309-7.275,1.57-10.88,2.756A22.8,22.8,0,0,1,36.314,7.288c-3.62-.556-6.356-2.518-9.409-4.381A17.528,17.528,0,0,0,16.51.041,20.017,20.017,0,0,0,7.029,3.636,15.468,15.468,0,0,0,.915,10.572c-1.337,3.243-1.336,6.8.863,9.668,3.188,4.154,9.106,5.228,14.03,5.121a26.806,26.806,0,0,0,8.334-1.527c3.586-1.261,6.685-3.4,10.039-5.134a26.124,26.124,0,0,1,4.907-1.964c1.655-.467,3.286-.682,4.784.318a22.594,22.594,0,0,0,4.82,2.759,15.544,15.544,0,0,0,5.437.976c3.607-.028,7.162-1.152,10.665-1.9,2.857-.614,5.913-1.225,8.825-.635,1.215.246,2.99.755,3.429,2.017C69.662,21.607,66.76,30.743,68.843,37.45c1.124,3.62,7.881,7.851,10.508,5.948,1.664-1.206.654-2.788,0-3.833-1.252-2-1.681-4.571.636-5.964,2-1.2,4.1,1.652,4.14,1.649.549-.043,5.3-2.728,8.567-6.645,3.226.191,3.716-1.936,2.945-3.676S90.06,21,87.468,20.573Z"
                    transform="translate(0 0)" fill="#313e58" />
            </g>
            <g transform="matrix(0.996, 0.087, -0.087, 0.996, -1735.832, 1605.066)">
                <path
                    d="M0,9.351s21.344,5.97,36.83,5.97S65.6,6.128,65.6,6.128,44.711,0,31.195,0,0,9.351,0,9.351Z"
                    transform="translate(58.51 51.38)" fill="#629d62" />
                <path
                    d="M35.747,69.887a3.355,3.355,0,0,1-.345-.674C33.5,64.184,3.035,9.921,0,0H34.3c2.308,7.543,12.694,54.878,14.156,64.322,4.612,14.9,14.107,63.143,15.32,66.485,1.275,3.516-5.9,7.179-7.812,2.856A367.771,367.771,0,0,1,42.444,96.134C39.418,85.24,36.954,75.439,35.747,69.887Z"
                    transform="translate(71.911 2.551)" fill="#997659" />
                <path
                    d="M72.857,54.383C58.929,57.9,7.983,64.268,4.486,65.266c-3.6,1.027-6.75-6.386-2.3-7.992A367.772,367.772,0,0,1,40.563,46.406c9.5-1.938,18.178-3.519,24-4.445C64.071,25.6,90.251,8.478,91.729,0l17.284,22.664c-1.417,8.13-28.769,22.658-31,28.6-.707,2.12-2.815,3.057-5.16,3.123Z"
                    transform="translate(0 73.756) rotate(-39)" fill="#b28b67" />
                <path
                    d="M13.856,2.551s20.06-5.739,37.961,0c4.152,18.944,14.241,26.462,16.015,55.506C47.665,68.077,22.753,50.91,1.993,60.682-3.939,47.014,4.365,14.1,13.856,2.551Z"
                    transform="translate(56.276 0)" fill="#85cb85" />
                <g transform="matrix(0.755, 0.656, -0.656, 0.755, 38.359, 111.786)">
                    <path
                        d="M2.653,2.788a1.186,1.186,0,0,0-1.521.8L0,7.577a38.1,38.1,0,0,0,.535,4.683H33.989s1.3-4.311-1.506-4.655-4.668-.621-4.668-.621L12.266.052a.593.593,0,0,0-.79.316l-1,2.425A13.444,13.444,0,0,1,6.25,4.005Z"
                        transform="translate(0 0)" fill="#629d62" />
                </g>
                <g transform="translate(124.701 132.054)">
                    <path
                        d="M2.653,2.788a1.186,1.186,0,0,0-1.521.8L0,7.577a38.1,38.1,0,0,0,.535,4.683H33.989s1.3-4.311-1.506-4.655-4.668-.621-4.668-.621L12.266.052a.593.593,0,0,0-.79.316l-1,2.425A13.444,13.444,0,0,1,6.25,4.005Z"
                        transform="translate(0 0)" fill="#629d62" />
                </g>
            </g>
            <g transform="matrix(0.996, 0.087, -0.087, 0.996, -1703.312, 1545.393)">
                <path
                    d="M3.848,78.892c-.662-.408-5.2-6.446-3.448-7.647,1.788-3.545,5.449-6.7,6.3-8.425,1.738-3.526,16.947-48.91,16.947-48.91l12.989.049S15.271,62.033,14.356,64.3c-1.263,3.129-.553,5.537.723,8.263.194.415-4.4,4.459-4.3,4.681-1.968.88-1.374-.627-.833-2.134.572-1.592,1.085-3.183-1.535-1.963-3.78,1.759-.887,6.634-2.539,6.633A4.771,4.771,0,0,1,3.848,78.892Zm93.366-70.4,23.419-3.194A51.064,51.064,0,0,1,133.562,0c1.107-.032,2.869.37.244,2.558s-5.287,4.608-4.819,5.775,2.908.733,3.312,2.529q.4,1.8-11.882.583l-19,7.534Z"
                    transform="translate(0 30.25)" fill="#997659" />
                <path
                    d="M0,.211,10.19,0C14.66,22.354,29.5,35.423,59.5,27.934l6.586,28.715c-28.118,6.164-54.055-3.04-61.864-33.421C2.2,15.364.432,7.151,0,.211Z"
                    transform="matrix(0.996, 0.087, -0.087, 0.996, 59.241, 2.755)" fill="#edc95a" />
                <path
                    d="M0,87.193Q10.591,30.841,44.708,0h1.009l.008.009L61.134,3.538c0,26.5,8.442,43.41,12.772,62.894H32.292c-.586,6.732-.946,13.653-1.134,20.76Z"
                    transform="translate(8.48 0)" fill="#ffd964" />
                <path
                    d="M8.458,38.792H0A201.2,201.2,0,0,1,6.847,0c-.457,7.685-.611,14.631-.458,20.644.195,7.655.89,13.761,2.068,18.147Z"
                    transform="translate(40.772 27.64)" fill="rgba(0,0,0,0.1)" />
            </g>
            <rect width="37.927" height="97.617" rx="12"
                transform="translate(-1745.854 1655.734) rotate(30)" fill="#9183d8" />
            <ellipse cx="4.234" cy="4.234" rx="4.234" ry="4.234"
                transform="translate(-1766.294 1754.348) rotate(-8)" fill="#313e58" />
            <ellipse cx="1.815" cy="1.815" rx="1.815" ry="1.815"
                transform="translate(-1763.562 1756.407) rotate(-8)" fill="#acb1bc" />
            <ellipse cx="4.234" cy="4.234" rx="4.234" ry="4.234"
                transform="translate(-1796.265 1739.921) rotate(-8)" fill="#313e58" />
            <ellipse cx="1.815" cy="1.815" rx="1.815" ry="1.815"
                transform="translate(-1793.532 1741.98) rotate(-8)" fill="#acb1bc" />
            <rect width="6.939" height="97.775" transform="translate(-1731.766 1663.839) rotate(30)"
                fill="#7468b4" />
        </g>
        <g transform="translate(-356.915 -21.383)">
            <g transform="translate(280.46 33.383)">
                <g transform="translate(15.241 2.199) rotate(3)">
                    <path
                        d="M.138,56.1S45.847,11.659,47.658,0C31.362,8.38,3.028,36.577.449,49.7-.326,54.25.138,56.1.138,56.1"
                        transform="translate(70.363 17.627)" fill="#c0e2e2" />
                    <path
                        d="M10.536,0s.207,63.752-6.861,73.2C-1.732,55.692-1.4,15.72,6.177,4.7,8.891.961,10.536,0,10.536,0"
                        transform="translate(68.005 0)" fill="#c0e2e2" />
                    <path
                        d="M25.828,67.435S13.884,6.381.323,0C-2.731,3.466,16.666,62.978,24.013,68.178"
                        transform="translate(46.477 5.398)" fill="#c0e2e2" />
                    <path
                        d="M35.162,10.976S11.555,1.072,0,.411C41.6-3.221,70.984,18.4,70.984,18.4s-9.08,4.457-35.822-7.429"
                        transform="translate(0 54.676)" fill="#c0e2e2" />
                    <path d="M50.845,61.739S22.463,9.8,0,0C6.617,6.879,38.656,60.536,50.845,61.739"
                        transform="translate(20.469 10.68)" fill="#c0e2e2" />
                    <path
                        d="M12.546,128.292a2.5,2.5,0,0,1-2.374-1.718c-2.31-7.007-4.411-18.044-6.245-32.8C2.469,82.045,1.17,67.924.065,51.8-1.816,24.374-2.492.309-2.5.069A2.5,2.5,0,0,1-.069-2.5,2.5,2.5,0,0,1,2.5-.069c.007.239.681,24.217,2.555,51.544C6.153,67.5,7.444,81.53,8.889,93.162c1.794,14.435,3.823,25.15,6.031,31.848a2.5,2.5,0,0,1-2.375,3.283Z"
                        transform="translate(70.55 69.167)" fill="#c0e1e2" />
                </g>
                <g transform="translate(6.837 46.442)">
                    <path
                        d="M179.109,128.577s-65.162,12.231-76.157,6.786c16.886-8.832,57.83-16.025,70.528-10.357,4.335,2.071,5.629,3.572,5.629,3.572"
                        transform="translate(-102.952 -48.276)" fill="#c0e2e2" />
                    <path
                        d="M104.291,86.021s54.069,38.37,66.333,38.022C158.983,108.958,124.8,85.3,110.9,85.132c-4.8.066-6.607.889-6.607.889"
                        transform="translate(-95.622 -43.055)" fill="#c0e2e2" />
                    <path
                        d="M145.254,120.7S100.51,73.967,103.21,58.616c4.776-.52,43.743,51.623,43.762,60.983"
                        transform="translate(-70.937 -39.398)" fill="#c0e2e2" />
                    <path
                        d="M126.352,116.535s-27.145-55.243-22.02-80.211c1.883,9.747,28.3,69.128,22.02,80.211"
                        transform="translate(-51.793 -36.324)" fill="#c0e2e2" />
                    <path
                        d="M87.486,83.221s5.723-26,12.085-36.22c-28.01,33.187-27.232,71.122-27.232,71.122s9.229-5.048,15.147-34.9"
                        transform="translate(1.519 -36.766)" fill="#c0e2e2" />
                    <path
                        d="M105.757,212.4a2.5,2.5,0,0,1-2.48-2.206,379.75,379.75,0,0,0-7.509-43.423A209.237,209.237,0,0,0,87.4,139.4a104.981,104.981,0,0,0-6.666-14.2,33.765,33.765,0,0,0-2.725-4.159l.006.008,3.818-3.228c.188.223,4.674,5.616,10.221,19.754a214.2,214.2,0,0,1,8.579,28.03,384.743,384.743,0,0,1,7.612,44,2.5,2.5,0,0,1-2.188,2.777A2.531,2.531,0,0,1,105.757,212.4Z"
                        transform="translate(-9.219 -46.465)" fill="#c0e1e2" />
                </g>
                <g transform="translate(63.305 86.547)">
                    <path
                        d="M0,130.2s54.871,6.978,63.76,1.9c-14.5-6.524-48.952-10.5-59.248-5.152C1,128.889,0,130.2,0,130.2"
                        transform="translate(25.483 -62.163)" fill="#c0e2e2" />
                    <path
                        d="M64.267,91.126S21.126,125.745,10.9,126.06c8.952-13.137,36.253-34.527,47.824-35.348,4.005-.181,5.547.415,5.547.415"
                        transform="translate(15.582 -57.504)" fill="#c0e2e2" />
                    <path
                        d="M36.334,123.379S71.3,82.256,68.291,69.6c-4-.2-33.889,45.149-33.444,52.944"
                        transform="translate(-9.269 -54.598)" fill="#c0e2e2" />
                    <path
                        d="M85,93.516S78.95,72.143,73.148,63.946c24.963,26.259,26.183,57.891,26.183,57.891S91.4,118.088,85,93.516"
                        transform="translate(-73.148 -53.817)" fill="#c0e2e2" />
                    <path
                        d="M55.7,120.083S75.59,72.738,70.092,52.2C69,60.407,49.928,111.162,55.7,120.083"
                        transform="translate(-28.895 -52.197)" fill="#c0e2e2" />
                </g>
                <rect width="164.911" height="215.951" transform="translate(0)" fill="none" />
                <path
                    d="M-3130.236-1552.541a116.639,116.639,0,0,1-5.056-25.651,85.486,85.486,0,0,1,.568-18.893c1.51-10.216,4.529-15.653,4.656-15.879l3.484,1.966,0,0a27.438,27.438,0,0,0-1.588,3.745,57.688,57.688,0,0,0-2.634,11,81.8,81.8,0,0,0-.487,17.94,112.791,112.791,0,0,0,4.874,24.585Z"
                    transform="translate(3223.788 1754.038)" fill="#bfe2e2" />
            </g>
            <g transform="translate(338.758 230.062)">
                <g transform="translate(0 0)" clip-path="url(#a)">
                    <path
                        d="M0,44.27C0,58.329,7.438,69.832,16.529,69.832h27.29c9.091,0,16.529-11.5,16.529-25.562V0H0Z"
                        transform="translate(0 0)" fill="#c0e2e2" />
                </g>
            </g>
        </g>
        <g transform="translate(287.122 154.95)">
            <g clip-path="url(#b)">
                <path
                    d="M118.382,53.13c-1.429-7.077-3.642-16.982-8.657-22.354-3.613,2.815,3.575,15.089,4.63,18.994a111.312,111.312,0,0,1,3.566,23.86c.774,16.535-1.318,33.05-2.882,49.53q-2.445,25.763-3.179,51.651l4.426.116c2.189-29.683,4.31-59.4,4.438-89.161.047-10.927-.182-21.926-2.342-32.637"
                    transform="translate(-15.977 -4.523)" fill="#bfe2e2" />
                <path
                    d="M111.171,162.5c-1.409-10.3-5.229-20.1-9.142-29.729Q92.2,108.584,81.342,84.836l-2.279-2.958c3.616,16.27,13.5,30.366,19.715,45.831,6.9,17.173,9.19,35.79,11.417,54.163a1.914,1.914,0,0,0,1.722-.288,131.587,131.587,0,0,0-.746-19.086"
                    transform="translate(-11.619 -12.032)" fill="#bfe2e2" />
                <path
                    d="M108.356,176.166A13.848,13.848,0,0,0,107,172.312a33.363,33.363,0,0,0-2.25-2.893,25.96,25.96,0,0,1-2.933-5.752,189.774,189.774,0,0,0-13.273-25.331c-1.417-2.324-3.33-4.906-6.051-4.908a59.15,59.15,0,0,1,5.515,7.335c.945,1.4,1.89,2.806,2.78,4.244a76.665,76.665,0,0,1,6.071,12.273,150.658,150.658,0,0,1,6.6,23.017,20.233,20.233,0,0,1,.764,5.3c-.051,1.109-.54,2.429-.294,3.53.287,1.28,1.03,1.654,2.22,2.071.6.211,6.085.886,6.127,1.06q-1.96-8.043-3.921-16.088"
                    transform="translate(-12.123 -19.608)" fill="#bfe2e2" />
                <path
                    d="M128.189,51.307c-3.741.113-7.133,2.5-9.315,5.537s-3.332,6.689-4.3,10.306A135.033,135.033,0,0,0,110.832,87.1c-1.142,10.3-1.094,20.7-1.045,31.063q.145,30.463.288,60.925l9.919,6.536c-1.292-5.814-.258-11.879-.717-17.818-.462-5.99-2.432-11.742-3.88-17.574a120.805,120.805,0,0,1-2.947-17.794c-2.141-22.778,1.079-45.835,7.276-67.859,1.468-5.216,3.568-10.946,8.464-13.268"
                    transform="translate(-16.131 -7.54)" fill="#bfe2e2" />
                <path
                    d="M172.114,60.1l-6.649-3.548c-2.782-1.484-6.053-3-8.954-1.769-1.04.442-2.238,1.212-3.172.578a1.746,1.746,0,0,1-.288-2.317,4.423,4.423,0,0,1,2.048-1.508,22.828,22.828,0,0,1,18.678.341c-2.267-20.31-13.535-30.4-22.269-30.782-15.028-.653-19.765,26.626-19.765,26.626-1.47-6.044-6.607-6.256-9.474-6.7-8.4-1.293-14.776,6.756-13.558,30.383a39.6,39.6,0,0,0,.451,4.283,25.863,25.863,0,0,1,5.594-3.162c5.645-2.324,11.829-2.912,17.907-3.474a6.657,6.657,0,0,1,3.648.347c-2.217,1.831-5.253,2.179-8.021,2.954a24.987,24.987,0,0,0-15.64,13.908c4.715,8.982,12.811,14.439,19.918,17.676a38.2,38.2,0,0,1-1.441-7.839,23.192,23.192,0,0,1,10.311-20.262,73.832,73.832,0,0,0-3.569,11.929,37.28,37.28,0,0,0,1.519,18.784,50.623,50.623,0,0,0,7.219,1.773s9.474-1.634,13.721,3.594a168.452,168.452,0,0,0,9.116-23.349,35.954,35.954,0,0,0-9.661-6.343,14.042,14.042,0,0,1-4.176-2.546,4.191,4.191,0,0,1-1.129-4.484c.8-1.739,3.01-2.319,4.919-2.209,5,.289,9.221,3.782,12.1,7.941a96.141,96.141,0,0,0,2.659-19.665c-.678-.415-1.37-.8-2.046-1.162"
                    transform="translate(-15.954 -3.098)" fill="#bfe2e2" />
                <path
                    d="M86.931,1.827a1.22,1.22,0,0,0-.288.5A17.756,17.756,0,0,0,86,8.476a.941.941,0,0,1-.058.442.929.929,0,0,1-.534.389c-1.88.75-4.036,1.4-5.034,3.159.7-1.512,1.324-2.091,1.344-3.766a20.382,20.382,0,0,1,.336-5.291,8.416,8.416,0,0,1,.952-2.2c-.1-.013-.189-.029-.285-.042C79.551.735,76.564.441,73.739.254c-.028.028-.066.047-.092.078a4.222,4.222,0,0,0-.73,1.953c-.183.861-.539,3.858-1.888,3.359-1.2-.445-.679-3.742-.272-4.581A4.193,4.193,0,0,1,71.4.12C48.18-.958,37.311,5.579,37.311,5.579s3.463-1.649,8.6,11.087A34.77,34.77,0,0,1,55.688,12.2c7.759-2.2,9.285,1.5,9.392,2.685-2.946-1.065-12.249,2.679-15.191,3.757A12.748,12.748,0,0,0,47.2,20.076c.025.07.049.134.074.2,1.3,3.673,4.27,6.838,8.179,9.5a26.426,26.426,0,0,1,6.1-6.916,19.138,19.138,0,0,1,6.609-3.757,9.924,9.924,0,0,1,7.5.579c.43.24.883.607.85,1.083-.021.3-.153.688-.446.783-10.049,3.233-12.193,7.428-12.229,12.7A82.035,82.035,0,0,0,77.352,38.55c-.38-1.015-.762-2.029-1.134-3.048A2.747,2.747,0,0,1,76,33.7a2.624,2.624,0,0,1,.849-1.053A9.265,9.265,0,0,1,79.7,30.817,3.927,3.927,0,0,1,83,31a1.768,1.768,0,0,1,.791.874,2.328,2.328,0,0,1-.108,1.474c-.646,2.041-1.719,3.991-2.238,6.041,8.443,1.54,15.7,1.635,17.941.327,5.881-3.43-7.024-9.964-7.024-9.964,21.4,4.574,26.626.327,29.4-2.777,6.609-7.387-6.675-20.285-34.831-25.15"
                    transform="translate(-5.483 0)" fill="#bfe2e2" />
                <path
                    d="M150.109,130.346l-1.308.49s-4.574-4.737-12.9,0a8.893,8.893,0,0,0-4.327,5.8,6.72,6.72,0,0,1,2.632-.9,14.782,14.782,0,0,1,4.657.333c.788.151,1.746.5,1.817,1.3a1.231,1.231,0,0,1-.663,1.117,2.658,2.658,0,0,1-1.327.277,6.628,6.628,0,0,1-2.032-.322c-.59-.192-1.154-.467-1.76-.6a5.369,5.369,0,0,0-3.595.639c-.357,5.559,3.29,11.862,9.172,13.437,9.148,2.45,11.107,12.9,9.964,6.533s14.864-6.371,15.029-15.191-15.355-12.9-15.355-12.9"
                    transform="translate(-19.292 -18.918)" fill="#bfe2e2" />
                <path
                    d="M63.234,60.568s2.408-2.287,1.264-4.41c-.832-2.24-7.6-2.436-15.927-1.715a36.5,36.5,0,0,1,5.76,4.538,5.278,5.278,0,0,1-4.032.684,19.991,19.991,0,0,1-3.955-1.4,48.354,48.354,0,0,0-8.2-2.588c-3.775.544-7.512,1.173-10.875,1.8q4.444.855,8.8,2.112c1.382.4,3.078,1.353,2.754,2.754-3.1-.113-6-1.448-8.954-2.4a42.4,42.4,0,0,0-7.06-1.592c-3.63.75-6.445,1.435-7.8,1.89C-2.475,66.123.138,75.6.138,75.6s0-7.024,8.168-3.594A150.315,150.315,0,0,0,22.392,78.9a48.989,48.989,0,0,0,4.751-7.488,4.966,4.966,0,0,1,1.077-1.548,1.628,1.628,0,0,1,1.759-.311c.734.394.845,1.393.792,2.225a14.3,14.3,0,0,1-1.235,4.949c-.646,1.43-1.524,2.756-2.3,4.123a108.4,108.4,0,0,0,15.38,4.608,61.623,61.623,0,0,0,3.223-15.119l1.823.4a1.382,1.382,0,0,1,.763.343,1.306,1.306,0,0,1,.257.6,17.539,17.539,0,0,1-.338,8.391,42.181,42.181,0,0,1-2.208,6.08,69.269,69.269,0,0,0,13.7,1.093c.106-.5.222-1,.362-1.489a11.486,11.486,0,0,0,.669-3.187,8.528,8.528,0,0,0-1.382-4,57.689,57.689,0,0,0-5.256-7.771,3.317,3.317,0,0,1-.868-1.616A2.029,2.029,0,0,1,55.72,67.2a4.972,4.972,0,0,1,2.713,1.9l3,3.346a32.1,32.1,0,0,1,3.093,3.834,16.279,16.279,0,0,1,2.5,10.238,28.065,28.065,0,0,0,11.7-4.667,18.565,18.565,0,0,0-.648-2.31,10.655,10.655,0,0,0-4.6-5.869c-1.724-.949-3.726-1.219-5.607-1.8a17.645,17.645,0,0,1-5.234-2.622c-.758-.554-1.545-1.51-1.079-2.325.449-.783,1.6-.644,2.47-.4l8.418,2.375a11.484,11.484,0,0,1,3.406,1.369,9.745,9.745,0,0,1,2.921,3.662,31.193,31.193,0,0,1,2.35,5.817,14.7,14.7,0,0,0,3.643-6.452C89,56.975,63.234,60.568,63.234,60.568"
                    transform="translate(0 -7.946)" fill="#bfe2e2" />
                <path
                    d="M68.839,122.673s3.678-17.8-9.459-11.434-21.544,26.136-16.989,39.367c4.054-6.421,11.615-9.6,19.023-11.949a5.368,5.368,0,0,0-.529-1.182,8.18,8.18,0,0,0-2.97-2.462,3.272,3.272,0,0,1,3.746.525,4.824,4.824,0,0,1,1.222,2.664c3.5-1.068,6.906-1.988,9.836-3.01l-.4-.711a6.058,6.058,0,0,0-1.8-2.27c-1.09-.7-2.6-.689-3.5-1.623a.531.531,0,0,1-.177-.323.551.551,0,0,1,.215-.395c1.208-1.16,3.077-1.182,4.751-1.135,1.119.032,2.4.145,3.066,1.045a4.475,4.475,0,0,1,.557,2.336A11.5,11.5,0,0,0,75.755,134c3.04-1.372,5.169-3.037,5.695-5.448,2.1-9.638-1.4-9.311-12.611-5.881"
                    transform="translate(-6.046 -16.145)" fill="#bfe2e2" />
                <path
                    d="M81.8,227.066a17.111,17.111,0,0,0,17.061,17.061h28.168a17.111,17.111,0,0,0,17.062-17.061V197.518H81.8Z"
                    transform="translate(-12.021 -29.027)" fill="#bfe2e2" />
                <path
                    d="M144.43,138.257c1.1.952.016,2.754-1.016,3.787-10.028,10.024-16.082,23.582-20.745,37.226a4.981,4.981,0,0,0-.392,2.227c.34,2.557,2.754,7.886.052,10.359-1.753,1.6-3,0-3.485-2.182-1.167-5.207,2.749-14.64,4.49-19.46a82.8,82.8,0,0,1,8.76-17.476c.885-1.339,11.336-15.346,12.335-14.48"
                    transform="translate(-17.434 -20.312)" fill="#bfe2e2" />
            </g>
        </g>
        <g transform="translate(663.122 -681.015)">
            <path
                d="M-409.694,928.965l-.16-.012c-.345-.025-8.516-.637-14.3-2.86-1.452-.558-2.271-1.353-2.433-2.365-.306-1.906,1.87-3.683,3.975-5.4a16.757,16.757,0,0,0,2.5-2.3,36.548,36.548,0,0,0-4.69-4.608c-2.273-2.02-4.487-3.857-4.509-3.875l-1.043-.864,6.489-4.252,14.111,6.95,70.206-31.075.049-.016a70.6,70.6,0,0,1,10.431-2.388c7.59-1.1,12.542-.173,14.716,2.742a6.082,6.082,0,0,1,1.051,5.043c-.559,2.764-2.674,5.891-6.286,9.294a50.071,50.071,0,0,1-8.19,6.233c-4.86,2.852-29.475,14.273-30.52,14.758a1,1,0,0,1-1.328-.487,1,1,0,0,1,.487-1.328c.255-.118,25.572-11.865,30.35-14.668a47.89,47.89,0,0,0,7.831-5.963c3.258-3.07,5.228-5.918,5.7-8.235a4.107,4.107,0,0,0-.694-3.45c-.894-1.2-2.588-1.955-5.034-2.247a30.616,30.616,0,0,0-7.77.286,70.04,70.04,0,0,0-10.078,2.3L-409.8,911.582l-13.924-6.858L-427,906.87c.969.819,2.485,2.115,3.971,3.448,1.449,1.3,2.59,2.38,3.391,3.215,1.275,1.328,1.865,2.148,1.548,2.946-.433,1.09-1.741,2.159-3.256,3.4a25.368,25.368,0,0,0-2.483,2.2c-.787.855-.8,1.236-.782,1.332.029.178.354.5,1.175.814,5.085,1.953,12.416,2.624,13.575,2.72l29.6-7.413a1,1,0,0,1,1.213.727,1,1,0,0,1-.727,1.213Z"
                transform="translate(17.259 -173.62)" fill="#5bb3b3" />
            <path
                d="M-392.771,964.933l6.42-45.808a1,1,0,0,1,1.129-.852,1,1,0,0,1,.852,1.129l-6.093,43.475a28.012,28.012,0,0,0,2.994-.35c2.644-.465,4.462-1.275,5.121-2.282.447-.683,2.338-5.069,9.989-26.777,4.365-12.385,8.537-24.55,8.579-24.671a1,1,0,0,1,1.27-.622,1,1,0,0,1,.622,1.27c-.042.122-4.217,12.294-8.584,24.686-8.874,25.178-9.873,26.706-10.2,27.208-.995,1.521-3.174,2.585-6.476,3.161a29.806,29.806,0,0,1-4.463.424Z"
                transform="translate(23.203 -175.801)" fill="#5bb3b3" />
            <path
                d="M-392.948,902.983a1,1,0,0,1-.57-.179L-422.5,882.667l.626-.83a24.288,24.288,0,0,1,2.36-2.63c1.938-1.853,3.641-2.722,5.061-2.583.5.049,1.821.179,21.813,8,9.822,3.843,19.438,7.7,19.534,7.741a1,1,0,0,1,.555,1.3,1,1,0,0,1-1.3.555c-.1-.038-9.693-3.891-19.5-7.728-17.8-6.964-20.824-7.83-21.3-7.879-.776-.075-2.039.661-3.466,2.021-.6.568-1.12,1.149-1.5,1.6l27.244,18.928a1,1,0,0,1,.251,1.392A1,1,0,0,1-392.948,902.983Z"
                transform="translate(18.952 -173.492)" fill="#5bb3b3" />
            <g transform="translate(-368.417 732.398) rotate(-24)">
                <path
                    d="M2,2V4.448H4.448V2H2M2,0H4.448a2,2,0,0,1,2,2V4.448a2,2,0,0,1-2,2H2a2,2,0,0,1-2-2V2A2,2,0,0,1,2,0Z"
                    fill="#5bb3b3" />
                <path
                    d="M2,2V4.448H4.448V2H2M2,0H4.448a2,2,0,0,1,2,2V4.448a2,2,0,0,1-2,2H2a2,2,0,0,1-2-2V2A2,2,0,0,1,2,0Z"
                    transform="translate(25.147)" fill="#5bb3b3" />
                <path
                    d="M2,2V4.448H4.448V2H2M2,0H4.448a2,2,0,0,1,2,2V4.448a2,2,0,0,1-2,2H2a2,2,0,0,1-2-2V2A2,2,0,0,1,2,0Z"
                    transform="translate(16.765)" fill="#5bb3b3" />
                <path
                    d="M2,2V4.448H4.448V2H2M2,0H4.448a2,2,0,0,1,2,2V4.448a2,2,0,0,1-2,2H2a2,2,0,0,1-2-2V2A2,2,0,0,1,2,0Z"
                    transform="translate(41.912)" fill="#5bb3b3" />
                <path
                    d="M2,2V4.448H4.448V2H2M2,0H4.448a2,2,0,0,1,2,2V4.448a2,2,0,0,1-2,2H2a2,2,0,0,1-2-2V2A2,2,0,0,1,2,0Z"
                    transform="translate(8.382)" fill="#5bb3b3" />
                <path
                    d="M2,2V4.448H4.448V2H2M2,0H4.448a2,2,0,0,1,2,2V4.448a2,2,0,0,1-2,2H2a2,2,0,0,1-2-2V2A2,2,0,0,1,2,0Z"
                    transform="translate(33.53)" fill="#5bb3b3" />
            </g>
            <path
                d="M-258.028,714.725a1,1,0,0,1-.88-.523l-2.358-4.345a1,1,0,0,1-.071-.788,1,1,0,0,1,.524-.593l12.773-6.023a1,1,0,0,1,1.331.478,1,1,0,0,1-.478,1.331L-259,709.833l1.393,2.567,14.765-7.343a1,1,0,0,1,1.341.45,1,1,0,0,1-.45,1.341l-15.629,7.773A1,1,0,0,1-258.028,714.725Z"
                transform="translate(-55.469 -0.187)" fill="#5bb3b3" />
        </g>
    </g>
</svg>