<svg xmlns="http://www.w3.org/2000/svg" xmlns:xlink="http://www.w3.org/1999/xlink" width="400" height="320" viewBox="0 0 400 320">
    <defs>
        <clipPath>
            <rect width="400" height="320" />
        </clipPath>
    </defs>
    <g clip-path="url(#b)">
        <rect width="400" height="320" fill="transparent" />
        <g transform="translate(0 -16)">
            <path d="M1907.162,5052.731h-5.639c.66-18.183,1.865-36.571,3.582-54.654.29-3.06.6-6.172.9-9.183v-.014c1.647-16.495,3.349-33.55,2.562-50.356a134.275,134.275,0,0,0-4.287-28.687,49.69,49.69,0,0,0-2.236-5.574c-2.745-6.243-6.5-14.792-3.331-17.263,2.688,2.878,4.919,7.022,6.822,12.668a117.65,117.65,0,0,1,3.587,14.208c2.7,13.371,2.868,27.266,2.817,39.24C1911.8,4986.671,1909.5,5020.726,1907.162,5052.731Z" transform="translate(-1869 -4812.731)" fill="#bfe2e2" />
            <path d="M1901.005,5053.231l.019-.518c.66-18.187,1.866-36.585,3.583-54.684.29-3.053.6-6.158.9-9.161l0-.041c1.644-16.473,3.345-33.509,2.56-50.279a133.784,133.784,0,0,0-4.27-28.58,49.6,49.6,0,0,0-2.211-5.5,78.6,78.6,0,0,1-3.909-10.117c-1.092-3.978-.854-6.51.728-7.743l.361-.281.312.334c2.737,2.931,5,7.134,6.93,12.85a118.092,118.092,0,0,1,3.6,14.269c2.707,13.417,2.878,27.342,2.827,39.341-.145,33.571-2.441,67.635-4.78,99.648l-.034.463Zm-2.313-165.514c-.894,1.084-.911,3.222-.047,6.367a77.88,77.88,0,0,0,3.859,9.976,49.832,49.832,0,0,1,2.262,5.646,134.766,134.766,0,0,1,4.3,28.794c.789,16.843-.916,33.917-2.564,50.429l0,.037c-.3,3-.609,6.106-.9,9.157-1.7,17.907-2.9,36.108-3.561,54.107h4.655c2.326-31.861,4.6-65.737,4.744-99.115.052-11.95-.119-25.814-2.807-39.14a117.2,117.2,0,0,0-3.571-14.147C1903.266,4894.494,1901.178,4890.524,1898.692,4887.717Z" transform="translate(-1869 -4812.731)" fill="rgba(0,0,0,0)" />
            <path d="M1911.537,5000.319h-2.95c-2.385-19.17-5.343-39.456-12.883-58.216-2.779-6.915-6.221-13.707-9.55-20.275-2.809-5.543-5.714-11.275-8.2-17.036A99.624,99.624,0,0,1,1872,4887l2.741,3.558c8.664,18.945,17.032,38.334,24.872,57.63,2.264,5.573,4.64,11.521,6.624,17.57a103.137,103.137,0,0,1,4.367,18.173,125.1,125.1,0,0,1,.933,16.387Z" transform="translate(-1873.91 -4760.319)" fill="#bfe2e2" />
            <path d="M1911.537,5000.819h-3.392l-.055-.438c-2.381-19.139-5.334-39.39-12.851-58.091-2.77-6.892-6.205-13.671-9.528-20.228l0-.008c-2.812-5.55-5.72-11.288-8.21-17.064a100.1,100.1,0,0,1-5.985-17.881l.884-.414,2.776,3.6.024.052c8.667,18.95,17.038,38.346,24.88,57.65,2.267,5.582,4.648,11.539,6.636,17.6a103.622,103.622,0,0,1,4.387,18.261,125.575,125.575,0,0,1,.938,16.454v.5Zm-2.509-1h2.007a122.451,122.451,0,0,0-.927-15.82,102.654,102.654,0,0,0-4.347-18.085c-1.978-6.033-4.351-11.972-6.612-17.538-7.83-19.273-16.187-38.638-24.839-57.559l-1.283-1.665a103.646,103.646,0,0,0,5.389,15.441c2.477,5.748,5.378,11.472,8.183,17.008l0,.008c3.332,6.576,6.778,13.375,9.563,20.307C1903.671,4960.585,1906.648,4980.745,1909.028,4999.819Z" transform="translate(-1873.91 -4760.319)" fill="rgba(0,0,0,0)" />
            <path d="M1905.3,4947.447h-7.282c-.139-1.1-.389-2.2-.63-3.273l-.013-.057q-.086-.382-.171-.765a182.742,182.742,0,0,0-7.935-27.674,92.736,92.736,0,0,0-7.3-14.756c-1.079-1.745-2.229-3.451-3.342-5.1l0-.006A71.464,71.464,0,0,0,1872,4887a6.089,6.089,0,0,1,4.226,1.9,19.392,19.392,0,0,1,3.05,4,226.08,226.08,0,0,1,15.958,30.456l.159.38.078.186a28.655,28.655,0,0,0,3.291,6.352c.333.442.705.881,1.034,1.268a12.468,12.468,0,0,1,3.3,6.844l2.209,9.061Z" transform="translate(-1870.392 -4707.447)" fill="#bfe2e2" />
            <path d="M1905.3,4947.947h-7.723l-.055-.437c-.136-1.075-.382-2.167-.621-3.222l-.014-.061q-.086-.384-.172-.768a182.3,182.3,0,0,0-7.912-27.6,92.226,92.226,0,0,0-7.26-14.676c-1.071-1.731-2.215-3.428-3.321-5.069l-.017-.026a71.061,71.061,0,0,0-6.576-8.748l-.781-.841H1872a6.563,6.563,0,0,1,4.568,2.039,19.853,19.853,0,0,1,3.135,4.1,226.527,226.527,0,0,1,15.992,30.523l.159.38.077.185a28.283,28.283,0,0,0,3.229,6.243c.323.429.688.86,1.011,1.24l0,.006a12.937,12.937,0,0,1,3.4,7.049l2.209,9.061.151.619Zm-6.847-1h6.21l-2.059-8.443a12,12,0,0,0-3.2-6.639l0-.006c-.331-.39-.707-.833-1.047-1.285a29.03,29.03,0,0,1-3.353-6.46l-.077-.185-.159-.38a225.571,225.571,0,0,0-15.924-30.389,18.93,18.93,0,0,0-2.966-3.892,6.446,6.446,0,0,0-2.6-1.586,81.915,81.915,0,0,1,5.761,7.853l.014.021c1.112,1.649,2.261,3.354,3.342,5.1a93.235,93.235,0,0,1,7.34,14.836,183.2,183.2,0,0,1,7.958,27.75q.084.381.17.762l.013.057C1898.093,4945.005,1898.311,4945.973,1898.458,4946.947Z" transform="translate(-1870.392 -4707.447)" fill="rgba(0,0,0,0)" />
            <path d="M1910.168,5031.674h-11.259l-.069-14.346-.007-1.526-.036-7.536-.019-4.023-.026-5.488q-.036-7.545-.072-15.091l0-.682,0-.708q-.035-7.448-.071-14.9v-.016c-.058-12.26-.117-24.938,1.257-37.333a162.875,162.875,0,0,1,4.5-23.981c1.068-4,2.437-8.587,5.168-12.391,2.9-4.044,7.088-6.534,11.2-6.658a15.049,15.049,0,0,0-6.634,6.672,44.086,44.086,0,0,0-3.543,9.281,260.385,260.385,0,0,0-8.133,40.455,198.05,198.05,0,0,0-.615,41.135,143.9,143.9,0,0,0,3.544,21.395c.443,1.782.934,3.589,1.41,5.336l.005.02.009.034,0,.007a85.688,85.688,0,0,1,3.239,15.731c.105,1.371.154,2.835.152,4.607Z" transform="translate(-1869 -4791.674)" fill="#bfe2e2" />
            <path d="M1910.168,5032.174h-11.756l-.159-33.417q-.036-7.545-.072-15.091l-.007-1.39q-.035-7.448-.071-14.9v-.018c-.058-12.272-.117-24.964,1.26-37.388a163.365,163.365,0,0,1,4.516-24.055c1.08-4.043,2.465-8.682,5.245-12.553,2.991-4.17,7.324-6.737,11.591-6.867l.229.952a14.572,14.572,0,0,0-6.411,6.463,43.639,43.639,0,0,0-3.5,9.173,259.889,259.889,0,0,0-8.118,40.376,197.558,197.558,0,0,0-.614,41.031,143.423,143.423,0,0,0,3.532,21.321c.442,1.781.933,3.583,1.407,5.326l.017.063a86.063,86.063,0,0,1,3.254,15.822c.106,1.385.155,2.861.154,4.646v.5Zm-10.761-1h10.26c-.008-1.539-.056-2.843-.15-4.07a85.312,85.312,0,0,0-3.223-15.638l-.016-.06c-.476-1.749-.968-3.556-1.413-5.348a144.389,144.389,0,0,1-3.557-21.468,198.552,198.552,0,0,1,.616-41.239,260.9,260.9,0,0,1,8.149-40.533,44.533,44.533,0,0,1,3.587-9.389,17.044,17.044,0,0,1,4.689-5.583,15.391,15.391,0,0,0-8.412,6.1c-2.682,3.735-4.034,8.27-5.091,12.228a162.378,162.378,0,0,0-4.488,23.908c-1.371,12.366-1.311,25.029-1.254,37.275v.018q.036,7.444.071,14.893l.007,1.39q.036,7.545.072,15.091Z" transform="translate(-1869 -4791.674)" fill="rgba(0,0,0,0)" />
            <path d="M184.972,67.989l-7.994-4.266c-3.345-1.785-7.278-3.608-10.766-2.127-1.25.531-2.691,1.457-3.814.694a2.1,2.1,0,0,1-.347-2.786,5.318,5.318,0,0,1,2.463-1.813,27.447,27.447,0,0,1,22.457.41C184.245,33.683,170.7,21.549,160.2,21.092c-18.069-.786-23.764,32.013-23.764,32.013-1.767-7.267-7.944-7.522-11.391-8.052-10.1-1.555-17.765,8.123-16.3,36.53a47.61,47.61,0,0,0,.543,5.15,31.1,31.1,0,0,1,6.726-3.8c6.787-2.794,14.222-3.5,21.53-4.177a8,8,0,0,1,4.387.417c-2.666,2.2-6.316,2.619-9.644,3.552-8.37,2.347-15.266,8.817-18.8,16.722,5.669,10.8,15.4,17.36,23.948,21.252a45.924,45.924,0,0,1-1.732-9.426,27.884,27.884,0,0,1,12.4-24.362,88.768,88.768,0,0,0-4.291,14.342,44.822,44.822,0,0,0,1.827,22.584,60.866,60.866,0,0,0,8.68,2.132S165.7,124,170.8,130.29a202.532,202.532,0,0,0,10.96-28.073,43.228,43.228,0,0,0-11.615-7.627,16.884,16.884,0,0,1-5.021-3.062c-1.381-1.406-2.176-3.6-1.357-5.391.956-2.091,3.618-2.788,5.914-2.655,6.007.348,11.087,4.547,14.552,9.548a115.593,115.593,0,0,0,3.2-23.644c-.815-.5-1.647-.963-2.459-1.4" transform="translate(-80.217 43.244)" fill="#bfe2e2" />
            <path d="M96.97,2.2a1.467,1.467,0,0,0-.347.6,21.348,21.348,0,0,0-.772,7.392,1.131,1.131,0,0,1-.07.531,1.117,1.117,0,0,1-.642.468c-2.26.9-4.852,1.681-6.052,3.8.843-1.817,1.592-2.514,1.616-4.528a24.507,24.507,0,0,1,.4-6.361,10.118,10.118,0,0,1,1.145-2.643c-.116-.015-.227-.035-.343-.05C88.1.883,84.506.53,81.109.306,81.075.339,81.03.362,81,.4a5.076,5.076,0,0,0-.878,2.349c-.221,1.035-.648,4.639-2.27,4.039-1.445-.535-.816-4.5-.327-5.508A5.042,5.042,0,0,1,78.3.145c-27.923-1.3-40.991,6.563-40.991,6.563s4.163-1.983,10.34,13.33a41.8,41.8,0,0,1,11.755-5.364C68.735,12.034,70.57,16.481,70.7,17.9c-3.543-1.281-14.727,3.222-18.265,4.517A15.328,15.328,0,0,0,49.2,24.137c.03.084.059.161.089.246C50.85,28.8,54.426,32.6,59.125,35.811A31.773,31.773,0,0,1,66.459,27.5a23.01,23.01,0,0,1,7.947-4.517,11.932,11.932,0,0,1,9.018.7c.517.288,1.062.73,1.022,1.3-.026.363-.184.828-.536.942-12.082,3.887-14.66,8.931-14.7,15.272a98.632,98.632,0,0,0,16.248,5.159c-.456-1.221-.916-2.44-1.363-3.665a3.3,3.3,0,0,1-.267-2.172,3.155,3.155,0,0,1,1.02-1.266,11.139,11.139,0,0,1,3.435-2.195,4.721,4.721,0,0,1,3.962.224,2.126,2.126,0,0,1,.951,1.05,2.8,2.8,0,0,1-.13,1.772c-.776,2.454-2.067,4.8-2.69,7.264,10.152,1.851,18.875,1.966,21.571.393,7.071-4.124-8.445-11.98-8.445-11.98,25.728,5.5,32.013.393,35.352-3.338C146.8,23.554,130.823,8.046,96.97,2.2" transform="translate(-82.043 42.704)" fill="#bfe2e2" />
            <path d="M153.92,130.673l-1.572.589s-5.5-5.7-15.516,0a10.692,10.692,0,0,0-5.2,6.972,8.079,8.079,0,0,1,3.165-1.087,17.773,17.773,0,0,1,5.6.4c.948.182,2.1.6,2.185,1.562a1.481,1.481,0,0,1-.8,1.343,3.2,3.2,0,0,1-1.6.333,7.97,7.97,0,0,1-2.443-.388c-.71-.231-1.388-.561-2.116-.723a6.456,6.456,0,0,0-4.322.768c-.429,6.684,3.956,14.261,11.028,16.156,11,2.946,13.355,15.515,11.98,7.855s17.872-7.659,18.07-18.265-18.461-15.516-18.461-15.516" transform="translate(-79.635 46.003)" fill="#bfe2e2" />
            <path d="M76.027,61.883s2.9-2.75,1.52-5.3c-1-2.693-9.143-2.929-19.15-2.062a43.886,43.886,0,0,1,6.925,5.456,6.345,6.345,0,0,1-4.848.823,24.035,24.035,0,0,1-4.755-1.685A58.136,58.136,0,0,0,45.855,56c-4.538.654-9.032,1.41-13.075,2.164q5.343,1.028,10.578,2.539c1.662.484,3.7,1.627,3.311,3.312-3.728-.136-7.216-1.742-10.766-2.885a50.974,50.974,0,0,0-8.488-1.914c-4.364.9-7.749,1.725-9.376,2.273C-2.975,68.561.166,79.952.166,79.952s0-8.445,9.82-4.321a180.721,180.721,0,0,0,16.935,8.287,58.9,58.9,0,0,0,5.713-9,5.971,5.971,0,0,1,1.3-1.862,1.958,1.958,0,0,1,2.115-.374c.883.474,1.016,1.675.952,2.675a17.2,17.2,0,0,1-1.485,5.95c-.776,1.719-1.832,3.314-2.761,4.957A130.324,130.324,0,0,0,51.242,91.8a74.092,74.092,0,0,0,3.875-18.178l2.192.483a1.662,1.662,0,0,1,.917.412,1.57,1.57,0,0,1,.309.718,21.087,21.087,0,0,1-.406,10.089,50.715,50.715,0,0,1-2.654,7.311A83.284,83.284,0,0,0,71.946,93.95c.127-.6.267-1.2.435-1.79a13.809,13.809,0,0,0,.8-3.832,10.253,10.253,0,0,0-1.662-4.813A69.36,69.36,0,0,0,65.2,74.171a3.988,3.988,0,0,1-1.044-1.943,2.44,2.44,0,0,1,2.833-2.367,5.978,5.978,0,0,1,3.262,2.288l3.6,4.023a38.59,38.59,0,0,1,3.719,4.61,19.573,19.573,0,0,1,3,12.31,33.744,33.744,0,0,0,14.066-5.611,22.322,22.322,0,0,0-.779-2.777,12.81,12.81,0,0,0-5.535-7.056c-2.073-1.141-4.48-1.466-6.742-2.159a21.215,21.215,0,0,1-6.293-3.153c-.912-.667-1.857-1.815-1.3-2.795.539-.942,1.926-.774,2.97-.48l10.121,2.855a13.808,13.808,0,0,1,4.1,1.646,11.716,11.716,0,0,1,3.512,4.4,37.5,37.5,0,0,1,2.826,6.994A17.674,17.674,0,0,0,101.9,77.2c5.106-19.64-25.874-15.319-25.874-15.319" transform="translate(-83 44.09)" fill="#bfe2e2" />
            <path d="M74.442,125.265s4.423-21.407-11.372-13.748-25.9,31.423-20.427,47.332c4.874-7.72,13.965-11.542,22.872-14.367a6.453,6.453,0,0,0-.636-1.422,9.835,9.835,0,0,0-3.571-2.96,3.934,3.934,0,0,1,4.5.631,5.8,5.8,0,0,1,1.47,3.2c4.21-1.284,8.3-2.39,11.826-3.619l-.476-.854a7.284,7.284,0,0,0-2.168-2.729c-1.311-.847-3.127-.829-4.211-1.952a.639.639,0,0,1-.212-.389.663.663,0,0,1,.258-.475c1.452-1.395,3.7-1.422,5.712-1.364,1.346.039,2.886.174,3.686,1.256a5.381,5.381,0,0,1,.67,2.809,13.831,13.831,0,0,0,.393,2.269c3.655-1.649,6.214-3.651,6.847-6.551,2.527-11.588-1.685-11.195-15.163-7.071" transform="translate(-81.945 45.52)" fill="#bfe2e2" />
            <path d="M1912.868,4942.535h-4.854c.821-4.98,2.947-10.69,4.5-14.86.295-.792.573-1.539.814-2.207a99.533,99.533,0,0,1,10.532-21.011c.533-.808,3.752-5.164,7.056-9.314,2.957-3.715,6.682-8.143,7.636-8.143a.2.2,0,0,1,.138.046,1.56,1.56,0,0,1,.553,1.167,5.432,5.432,0,0,1-1.774,3.386,84.667,84.667,0,0,0-14.89,20.747,165.2,165.2,0,0,0-10.053,24.011,6.05,6.05,0,0,0-.471,2.678,24.984,24.984,0,0,0,.6,2.656c.071.275.144.556.216.843Z" transform="translate(-1869 -4702.535)" fill="#bfe2e2" />
            <path d="M1912.868,4943.035h-5.443l.1-.582c.829-5.026,2.964-10.761,4.523-14.949.3-.793.573-1.539.814-2.206a100.033,100.033,0,0,1,10.585-21.117c.536-.812,3.769-5.187,7.082-9.35,1.817-2.283,3.361-4.129,4.589-5.488,2.258-2.5,2.987-2.843,3.438-2.843a.7.7,0,0,1,.466.169,2.067,2.067,0,0,1,.725,1.526,5.822,5.822,0,0,1-1.92,3.757,84.183,84.183,0,0,0-14.8,20.627A164.714,164.714,0,0,0,1913,4936.519a5.671,5.671,0,0,0-.448,2.451,24.667,24.667,0,0,0,.583,2.592l.02.079c.063.243.127.491.191.743l.245.65Zm-4.259-1h3.615l-.037-.144-.019-.075a25.267,25.267,0,0,1-.607-2.715,6.44,6.44,0,0,1,.493-2.906,165.7,165.7,0,0,1,10.084-24.082,85.164,85.164,0,0,1,14.979-20.867,4.98,4.98,0,0,0,1.628-3.014,1.063,1.063,0,0,0-.268-.695,12.728,12.728,0,0,0-2.725,2.593c-1.2,1.333-2.693,3.124-4.444,5.325-3.3,4.14-6.5,8.477-7.03,9.278a99.037,99.037,0,0,0-10.479,20.906c-.242.671-.521,1.419-.816,2.211A89.871,89.871,0,0,0,1908.609,4942.035Z" transform="translate(-1869 -4702.535)" fill="rgba(0,0,0,0)" />
        </g>
        <path d="M-4516.576-6998.219h-298.9a1,1,0,0,1-1-1,1,1,0,0,1,1-1h298.9a1,1,0,0,1,1,1A1,1,0,0,1-4516.576-6998.219Z" transform="translate(4815.48 7223)" fill="#5bb3b3" />
        <g transform="translate(16.633 -26.251)">
            <path d="M268.175,203.356H242.5a2.138,2.138,0,0,1-2.136-2.136V118.357a2.138,2.138,0,0,1,2.136-2.136h25.648a2.138,2.138,0,0,1,2.136,2.136c0,.816-.036,81.6,0,82.83a1.979,1.979,0,0,1-1.1,1.895,2.581,2.581,0,0,1-.993.273ZM242.5,118.221a.135.135,0,0,0-.136.136V201.22a.135.135,0,0,0,.136.136h25.6a.572.572,0,0,0,.182-.058.345.345,0,0,0,0-.044c-.037-1.086,0-79.557,0-82.9a.134.134,0,0,0-.136-.136Z" transform="translate(44 63.203)" fill="#5bb3b3" />
            <path d="M255.1,194.772a6.176,6.176,0,1,1,6.176-6.176A6.183,6.183,0,0,1,255.1,194.772Zm0-10.352a4.176,4.176,0,1,0,4.176,4.176A4.181,4.181,0,0,0,255.1,184.42Z" transform="translate(44.445 63.647)" fill="#5bb3b3" />
            <path d="M261.435,172.212H249.22c-.338,0-.653-.011-.889-.031a3.016,3.016,0,0,1-.367-.05,1.033,1.033,0,0,1-.023-2.039,2.732,2.732,0,0,1,.384-.058c.3-.027.651-.033.9-.033h12.215c.244,0,.6.006.9.033a2.732,2.732,0,0,1,.384.058,1.033,1.033,0,0,1-.023,2.039,3.015,3.015,0,0,1-.367.05C262.088,172.2,261.773,172.212,261.435,172.212Z" transform="translate(44 63.203)" fill="#5bb3b3" />
            <path d="M259.145,176.712h-7.636c-.328,0-.641-.01-.88-.029a3.425,3.425,0,0,1-.346-.041,1.024,1.024,0,0,1,0-2.036,3.429,3.429,0,0,1,.346-.041c.239-.018.552-.029.88-.029h7.636c.328,0,.641.01.88.029a3.421,3.421,0,0,1,.346.041,1.024,1.024,0,0,1,0,2.036,3.426,3.426,0,0,1-.346.041C259.786,176.7,259.473,176.712,259.145,176.712Z" transform="translate(44 63.203)" fill="#5bb3b3" />
        </g>
        <g transform="translate(49.633 -26.251)">
            <path d="M268.175,203.356H242.5a2.138,2.138,0,0,1-2.136-2.136V118.357a2.138,2.138,0,0,1,2.136-2.136h25.648a2.138,2.138,0,0,1,2.136,2.136c0,.816-.036,81.6,0,82.83a1.979,1.979,0,0,1-1.1,1.895,2.581,2.581,0,0,1-.993.273ZM242.5,118.221a.135.135,0,0,0-.136.136V201.22a.135.135,0,0,0,.136.136h25.6a.572.572,0,0,0,.182-.058.345.345,0,0,0,0-.044c-.037-1.086,0-79.557,0-82.9a.134.134,0,0,0-.136-.136Z" transform="translate(44 63.203)" fill="#5bb3b3" />
            <path d="M255.1,194.772a6.176,6.176,0,1,1,6.176-6.176A6.183,6.183,0,0,1,255.1,194.772Zm0-10.352a4.176,4.176,0,1,0,4.176,4.176A4.181,4.181,0,0,0,255.1,184.42Z" transform="translate(44.445 63.647)" fill="#5bb3b3" />
            <path d="M261.435,172.212H249.22c-.338,0-.653-.011-.889-.031a3.016,3.016,0,0,1-.367-.05,1.033,1.033,0,0,1-.023-2.039,2.732,2.732,0,0,1,.384-.058c.3-.027.651-.033.9-.033h12.215c.244,0,.6.006.9.033a2.732,2.732,0,0,1,.384.058,1.033,1.033,0,0,1-.023,2.039,3.015,3.015,0,0,1-.367.05C262.088,172.2,261.773,172.212,261.435,172.212Z" transform="translate(44 63.203)" fill="#5bb3b3" />
            <path d="M259.145,176.712h-7.636c-.328,0-.641-.01-.88-.029a3.425,3.425,0,0,1-.346-.041,1.024,1.024,0,0,1,0-2.036,3.429,3.429,0,0,1,.346-.041c.239-.018.552-.029.88-.029h7.636c.328,0,.641.01.88.029a3.421,3.421,0,0,1,.346.041,1.024,1.024,0,0,1,0,2.036,3.426,3.426,0,0,1-.346.041C259.786,176.7,259.473,176.712,259.145,176.712Z" transform="translate(44 63.203)" fill="#5bb3b3" />
        </g>
        <g transform="translate(82.633 -26.251)">
            <path d="M268.175,203.356H242.5a2.138,2.138,0,0,1-2.136-2.136V118.357a2.138,2.138,0,0,1,2.136-2.136h25.648a2.138,2.138,0,0,1,2.136,2.136c0,.816-.036,81.6,0,82.83a1.979,1.979,0,0,1-1.1,1.895,2.581,2.581,0,0,1-.993.273ZM242.5,118.221a.135.135,0,0,0-.136.136V201.22a.135.135,0,0,0,.136.136h25.6a.572.572,0,0,0,.182-.058.345.345,0,0,0,0-.044c-.037-1.086,0-79.557,0-82.9a.134.134,0,0,0-.136-.136Z" transform="translate(44 63.203)" fill="#5bb3b3" />
            <path d="M255.1,194.772a6.176,6.176,0,1,1,6.176-6.176A6.183,6.183,0,0,1,255.1,194.772Zm0-10.352a4.176,4.176,0,1,0,4.176,4.176A4.181,4.181,0,0,0,255.1,184.42Z" transform="translate(44.445 63.647)" fill="#5bb3b3" />
            <path d="M261.435,172.212H249.22c-.338,0-.653-.011-.889-.031a3.016,3.016,0,0,1-.367-.05,1.033,1.033,0,0,1-.023-2.039,2.732,2.732,0,0,1,.384-.058c.3-.027.651-.033.9-.033h12.215c.244,0,.6.006.9.033a2.732,2.732,0,0,1,.384.058,1.033,1.033,0,0,1-.023,2.039,3.015,3.015,0,0,1-.367.05C262.088,172.2,261.773,172.212,261.435,172.212Z" transform="translate(44 63.203)" fill="#5bb3b3" />
            <path d="M259.145,176.712h-7.636c-.328,0-.641-.01-.88-.029a3.425,3.425,0,0,1-.346-.041,1.024,1.024,0,0,1,0-2.036,3.429,3.429,0,0,1,.346-.041c.239-.018.552-.029.88-.029h7.636c.328,0,.641.01.88.029a3.421,3.421,0,0,1,.346.041,1.024,1.024,0,0,1,0,2.036,3.426,3.426,0,0,1-.346.041C259.786,176.7,259.473,176.712,259.145,176.712Z" transform="translate(44 63.203)" fill="#5bb3b3" />
        </g>
        <g transform="translate(-7.373 0.341)">
            <path d="M-1781.8-4621.533a1,1,0,0,1-.991-.878,1,1,0,0,1,.871-1.114,35.8,35.8,0,0,0,4.587-.9c1.581-.444,3.681-1.507,3.695-5.6a6.7,6.7,0,0,0-1.061-4.069,3.906,3.906,0,0,0-2.292-1.469,12.176,12.176,0,0,0-4.94,0,1,1,0,0,1-1.2-.746,1,1,0,0,1,.746-1.2,14.167,14.167,0,0,1,5.868,0c1.829.442,4.9,2,4.881,7.489a8.346,8.346,0,0,1-1.523,5.2,6.763,6.763,0,0,1-3.627,2.319,37.19,37.19,0,0,1-4.888.96A1.045,1.045,0,0,1-1781.8-4621.533Z" transform="translate(1873.015 4886)" fill="#5bb3b3" />
            <path d="M19.727,213.1h-7.88A12.861,12.861,0,0,1-1,200.25V180.9a2.4,2.4,0,0,1,2.4-2.4H30.175a2.4,2.4,0,0,1,2.4,2.4V200.25A12.862,12.862,0,0,1,19.727,213.1ZM1.4,180.5a.4.4,0,0,0-.4.4V200.25A10.859,10.859,0,0,0,11.848,211.1h7.88A10.86,10.86,0,0,0,30.575,200.25V180.9a.4.4,0,0,0-.4-.4Z" transform="translate(57 63.203)" fill="#5bb3b3" />
            <path d="M31,1H0A1,1,0,0,1-1,0,1,1,0,0,1,0-1H31a1,1,0,0,1,1,1A1,1,0,0,1,31,1Z" transform="translate(57.5 279.5)" fill="#5bb3b3" />
        </g>
        <g transform="translate(0 4)">
            <path d="M2,2V75H138V2H2M0,0H140V77H0Z" transform="translate(290 42)" fill="#5bb3b3" />
            <path d="M2,2V61H126V2H2M0,0H128V63H0Z" transform="translate(296 49)" fill="#5bb3b3" />
            <path d="M2,2V26H95V2H2M0,0H97V28H0Z" transform="translate(312 67)" fill="#5bb3b3" />
            <path d="M-1173.339-4800.81a1,1,0,0,1-.707-.293,1,1,0,0,1,0-1.414l21.551-21.551a1,1,0,0,1,.707-.293,1,1,0,0,1,.707.293l21.551,21.551a1,1,0,0,1,0,1.414,1,1,0,0,1-1.414,0l-20.844-20.844-20.844,20.844A1,1,0,0,1-1173.339-4800.81Z" transform="translate(1511.839 4841)" fill="#5bb3b3" />
        </g>
        <g transform="translate(-6.048 -9.345)">
            <g transform="translate(130.004 47.207)">
                <g transform="translate(15.901)">
                    <path d="M2352,4972.989c-.158-7.357,3.482-14.666,9.136-18.337,3.225-2.094,7.477-3.674,8.312-7.763.875-4.283-2.688-7.9-4.263-11.921-2.3-5.88-.213-12.75,2.58-18.354,3.322-6.667,8.413-13.195,15.164-13.891a5.375,5.375,0,0,0,2.427-.936c1.481-.962,1.79-1.767,2.173-3.646.957-4.683,3.619-8.153,7.676-9.617,3.822-1.378,9.115-2.575,12.381-.047,5.478-1.422,11.56-.08,16.946,2.1a33.663,33.663,0,0,1,10.653,6.449c6.616,6.254,9.424,16.333,8.478,25.73a10.815,10.815,0,0,0,.084,4.413c.813,2.493,3.4,3.641,5.521,4.986,4.721,3,8.2,8.894,7.141,14.663-.558,3.049-2.3,6.111-1.364,9.052,1.14,3.59,5.336,4.509,8.5,6.212a13.823,13.823,0,0,1,6.98,14.037c-1,5.589-12.615,9.242-12.615,9.242s-25.587,10.391-50.32,10.936-47.838-9.691-47.838-9.691C2355.13,4984.777,2352.128,4978.721,2352,4972.989Z" transform="translate(-2352 -4887)" fill="#313e58" />
                    <path d="M0,0,11.768,49.33h8.488L28.009,0Z" transform="translate(72.982 105.616) rotate(180)" fill="#9d6d41" />
                    <path d="M4436.38,746.268s8.8,34.417,25.476,34.249,23.315-36.948,23.315-36.948,8.753-34.935-23.315-35.2S4436.38,746.268,4436.38,746.268Z" transform="translate(-4404.235 -699.567)" fill="#b28b67" />
                    <path d="M-2149.279-4794.856s21.281.284,30.731-17.637,30.487,17.637,30.487,17.637,4.173-18.432,1.562-23.184-4.915-18.183-28.241-19.3C-2147.657-4838.992-2149.279-4794.856-2149.279-4794.856Z" transform="translate(2172.723 4843.68)" fill="#313e58" />
                </g>
                <rect width="37.825" height="107.136" transform="translate(56.197 99.918)" fill="#b1a8e3" />
                <path d="M1974.591,4995.4h-69.9c2.762-10.217,6.03-20.787,9.71-31.417,3.385-9.774,7.141-19.667,11.164-29.4A470.877,470.877,0,0,1,1948.235,4887h1.912c3.375.116,10.388.423,10.452.426l7.077,20.223c.318,10.488,1.776,34.226,6.915,87.748Z" transform="translate(-1897.713 -4788.343)" fill="#9183d8" />
                <path d="M1975.141,4995.9h-71.1l.17-.63c2.764-10.223,6.034-20.8,9.721-31.45,3.388-9.783,7.147-19.685,11.174-29.431a471.353,471.353,0,0,1,22.7-47.628l.143-.257h2.223c3.4.117,10.4.423,10.458.426l.338.015.112.319,7.1,20.3,0,.077c.318,10.481,1.776,34.207,6.913,87.715Zm-69.8-1h68.7c-5.084-53.019-6.54-76.657-6.862-87.156l-6.939-19.83c-1.441-.063-7.137-.309-10.1-.411h-1.609a471.379,471.379,0,0,0-22.5,47.267c-4.02,9.728-7.772,19.611-11.154,29.376C1911.27,4974.549,1908.065,4984.892,1905.344,4994.9Z" transform="translate(-1897.713 -4788.343)" fill="rgba(0,0,0,0)" />
                <path d="M2035.916,4995.4h-69.9c5.138-53.523,6.6-77.261,6.916-87.748l7.075-20.223c.008,0,.084,0,.218-.01,4.63-.2,8.265-.349,10.234-.416h1.912a470.9,470.9,0,0,1,22.671,47.576c4.023,9.735,7.779,19.629,11.164,29.4,3.683,10.639,6.95,21.209,9.71,31.415v0h0Z" transform="translate(-1893.177 -4788.343)" fill="#9183d8" />
                <path d="M2035.916,4995.9h-70.451l.053-.548c5.138-53.517,6.6-77.239,6.914-87.715l0-.077.026-.073,7.178-20.516.308-.038c.015,0,.043-.005.26-.013,4.6-.2,8.233-.348,10.236-.416h2.223l.143.257a471.4,471.4,0,0,1,22.7,47.628c4.025,9.74,7.784,19.642,11.174,29.431,3.687,10.647,6.957,21.229,9.72,31.448l0,.01.154.621Zm-69.351-1h68.7c-2.721-10-5.926-20.345-9.529-30.753-3.384-9.771-7.136-19.654-11.154-29.376a471.428,471.428,0,0,0-22.5-47.267h-1.609c-1.983.068-5.567.213-10.1.41l-6.938,19.831C1973.106,4918.235,1971.651,4941.869,1966.566,4994.9Z" transform="translate(-1893.177 -4788.343)" fill="rgba(0,0,0,0)" />
                <path d="M1922.421,4995.4h-24.228c1.637-18.243,3.509-31.417,6.068-42.717,3.041-13.429,7.119-24.09,12.465-32.595a125.3,125.3,0,0,1,11.622-15.716,99.653,99.653,0,0,1,10.248-10.2,56.866,56.866,0,0,1,10.085-7.168l8.191,7.28a239.485,239.485,0,0,0-13.307,27.821c-4.242,10.276-8.062,21.015-11.353,31.917A348.58,348.58,0,0,0,1922.421,4995.4Z" transform="translate(-1898.193 -4788.343)" fill="#9183d8" />
                <path d="M1897.647,4995.9l.049-.545c1.639-18.263,3.514-31.457,6.078-42.782,3.054-13.484,7.152-24.2,12.529-32.75a125.849,125.849,0,0,1,11.669-15.779,100.2,100.2,0,0,1,10.3-10.252,57.51,57.51,0,0,1,10.19-7.236l.3-.148,8.749,7.776-.208.354a239.712,239.712,0,0,0-13.276,27.759c-4.235,10.258-8.049,20.981-11.336,31.871a348.228,348.228,0,0,0-9.676,40.732h.044l-.144.578v.008l-.072.415h-25.2Zm50.963-108.292a60.017,60.017,0,0,0-9.688,6.944,99.088,99.088,0,0,0-10.2,10.15,124.764,124.764,0,0,0-11.576,15.653c-5.316,8.457-9.372,19.067-12.4,32.439-2.529,11.167-4.386,24.172-6.009,42.106H1922a349.189,349.189,0,0,1,9.734-41.021c3.3-10.92,7.122-21.674,11.369-31.963a248.233,248.233,0,0,1,13.132-27.528Z" transform="translate(-1898.193 -4788.343)" fill="rgba(0,0,0,0)" />
                <path d="M2043.074,4995.4h-25.662a348.642,348.642,0,0,0-9.791-41.378c-3.291-10.9-7.111-21.642-11.353-31.917a239.873,239.873,0,0,0-13.306-27.821l8.19-7.28a56.675,56.675,0,0,1,10.085,7.168,99.653,99.653,0,0,1,10.248,10.2,125.324,125.324,0,0,1,11.622,15.716c5.327,8.474,9.537,19.111,12.873,32.521,2.86,11.5,5.115,25.1,7.1,42.79Z" transform="translate(-1891.924 -4788.343)" fill="#9183d8" />
                <path d="M2016.991,4995.9l-.072-.415a348.144,348.144,0,0,0-9.777-41.318c-3.285-10.884-7.1-21.607-11.336-31.871a237.975,237.975,0,0,0-13.274-27.757l-.211-.354,8.752-7.781.3.153a57.247,57.247,0,0,1,10.185,7.234,100.194,100.194,0,0,1,10.3,10.252,125.823,125.823,0,0,1,11.669,15.779c5.355,8.52,9.586,19.205,12.935,32.667,2.866,11.521,5.124,25.138,7.108,42.855l.062.556ZM1983.6,4894.382a247.415,247.415,0,0,1,13.131,27.528c4.249,10.294,8.074,21.048,11.369,31.963a349.25,349.25,0,0,1,9.733,41.022h24.683c-1.964-17.4-4.2-30.812-7.022-42.168-3.322-13.357-7.513-23.947-12.811-32.376a124.822,124.822,0,0,0-11.575-15.653,99.132,99.132,0,0,0-10.2-10.15,59.6,59.6,0,0,0-9.687-6.944Z" transform="translate(-1891.924 -4788.343)" fill="rgba(0,0,0,0)" />
            </g>
            <g transform="translate(118.234 176.949)">
                <path d="M13.78,58.681H11.691L1.273,70.224a2.573,2.573,0,0,0,1.863,4.3H171.7a2.573,2.573,0,0,0,1.863-4.3L164.2,59.479H162.17" transform="translate(0.392 38.052)" fill="#acb1bc" />
                <rect width="175.627" height="112.58" transform="translate(0 0)" fill="none" />
                <path d="M162.755,67.9H7a2.473,2.473,0,0,1,0-4.945H162.755a2.473,2.473,0,0,1,0,4.945" transform="translate(2.935 40.826)" fill="#7a8293" />
                <rect width="175.627" height="112.58" transform="translate(0 0)" fill="none" />
                <path d="M165.69,99.844H9.933a2.473,2.473,0,0,1-2.464-2.267L.011,8.687A8.21,8.21,0,0,1,8.206,0h159.21a8.21,8.21,0,0,1,8.2,8.6l-7.461,88.979a2.475,2.475,0,0,1-2.466,2.267M163.417,94.9Z" transform="translate(0 0)" fill="#acb1bc" />
                <path d="M32.794,1.5l36.82,94.9H9L1.67,9.019S-.3,1.5,7.274,1.5h25.52Z" transform="translate(0.933 0.972)" fill="#e4e6ea" />
                <path d="M58.885,45.989A10.066,10.066,0,1,1,68.951,35.922,10.078,10.078,0,0,1,58.885,45.989m0-15.187a5.121,5.121,0,1,0,5.12,5.12,5.127,5.127,0,0,0-5.12-5.12" transform="translate(31.657 16.766)" fill="#7a8293" />
            </g>
        </g>
    </g>
</svg>