<svg xmlns="http://www.w3.org/2000/svg" xmlns:xlink="http://www.w3.org/1999/xlink" width="400"
    height="320" viewBox="0 0 400 320">
    <defs>
        <clipPath>
            <rect width="400" height="320" />
        </clipPath>
    </defs>
    <g clip-path="url(#b)">
        <path
            d="M-1626.973,238.516a1,1,0,0,1-.88-.523,1,1,0,0,1,.4-1.356c.045-.024,4.574-2.476,12.537-6.182,7.341-3.417,19.2-8.635,33.989-14.092a466.448,466.448,0,0,1,50.153-15.4,389.181,389.181,0,0,1,61.036-10.089,1,1,0,0,1,1.077.916,1,1,0,0,1-.916,1.077,387.153,387.153,0,0,0-60.7,10.032,464.4,464.4,0,0,0-49.924,15.323c-14.73,5.433-26.535,10.627-33.843,14.028-7.92,3.685-12.414,6.117-12.459,6.141A1,1,0,0,1-1626.973,238.516Z"
            transform="translate(1869 -95)" fill="#5bb3b3" />
        <path
            d="M-1469,401.252c-2.736-.687-63-10.395-173.561-9.769s-226.906-26.294-226.906-26.294v62.9H-1469V399.252"
            transform="translate(1869 -102.832)" fill="#bfe2e2" />
        <path
            d="M-1869,308.08a1,1,0,0,1-.88-.523,1,1,0,0,1,.4-1.356,111.643,111.643,0,0,1,11.4-5.037,271.186,271.186,0,0,1,34.29-10.609,419.032,419.032,0,0,1,57.644-9.6c17.365-1.724,35.562-2.589,54.345-2.589q13.371,0,27.111.585,16.205.691,32.687.69c17.829,0,35.814-.607,53.774-1.819,23.208-1.566,46.418-4.139,68.984-7.649,20.074-3.122,35.909-6.422,45.658-8.64,10.553-2.4,16.428-4.083,16.486-4.1a1,1,0,0,1,1.237.685,1,1,0,0,1-.685,1.237c-.059.017-5.988,1.715-16.595,4.128-9.78,2.225-25.664,5.535-45.795,8.666-22.623,3.518-45.89,6.1-69.156,7.668-18,1.215-36.038,1.823-53.909,1.823q-16.5,0-32.772-.692a577.208,577.208,0,0,0-81.173,2,417.034,417.034,0,0,0-57.368,9.55,269.159,269.159,0,0,0-34.035,10.528,111.865,111.865,0,0,0-11.172,4.933A1,1,0,0,1-1869,308.08Z"
            transform="translate(1869 -109)" fill="#5bb3b3" />
        <path
            d="M348.178,135.933h9.658c13.923,0,25.21-8.465,25.21-18.907,0-9.16-8.686-16.795-20.216-18.534-.5-10.027-9.3-18.021-20.12-18.021-11.138,0-20.168,8.465-20.168,18.908,0,.107.016.21.017.317-8.909,2.915-15.143,9.573-15.143,17.33,0,10.442,11.287,18.907,25.21,18.907H339.5"
            transform="translate(0 0.49)" fill="#bfe2e2" />
        <path
            d="M333.391,115.813h6.154c8.872,0,16.064-5.394,16.064-12.048,0-5.837-5.535-10.7-12.882-11.81-.317-6.389-5.926-11.483-12.821-11.483-7.1,0-12.852,5.394-12.852,12.049,0,.068.01.134.011.2-5.677,1.858-9.65,6.1-9.65,11.043,0,6.654,7.192,12.048,16.064,12.048h4.381"
            transform="translate(-232.244 -32.977)" fill="#bfe2e2" />
        <path
            d="M1869-58.445c0-7.757,6.233-14.415,15.142-17.33,0-.107-.017-.211-.017-.318,0-10.443,9.031-18.908,20.168-18.908a20.093,20.093,0,0,1,19.025,12.687,20.869,20.869,0,0,1,13.418-4.792c10.821,0,19.624,7.994,20.12,18.021,11.53,1.739,19.686,6.093,19.686,15.253C1896.815-56.226,1880.932-54.98,1869-58.445Z"
            transform="translate(-1894.816 152.022)" fill="#bfe2e2" />
        <path
            d="M1977.044-53.317l-.515-.015c-26.125-.784-45.655-1.183-59.915-1.474-29.672-.606-39.667-.81-47.753-3.158l-.361-.1v-.375a16.171,16.171,0,0,1,4.357-10.813,25.223,25.223,0,0,1,10.768-6.87,18.277,18.277,0,0,1,1.629-7.529,19.325,19.325,0,0,1,4.436-6.169,20.724,20.724,0,0,1,6.568-4.152,21.7,21.7,0,0,1,8.034-1.521,21.387,21.387,0,0,1,12.07,3.661,20.175,20.175,0,0,1,4.456,4.117,19.056,19.056,0,0,1,2.715,4.592,21.469,21.469,0,0,1,13.2-4.474A21.258,21.258,0,0,1,1951-82.227a18.861,18.861,0,0,1,6.329,12.709,47.752,47.752,0,0,1,7.624,1.787,24.527,24.527,0,0,1,6.356,3.08,12.645,12.645,0,0,1,5.732,10.818Zm-107.538-5.5c7.9,2.213,18.006,2.42,47.128,3.014,14.167.289,33.535.685,59.4,1.459a11.669,11.669,0,0,0-1.384-5.247,12.71,12.71,0,0,0-3.914-4.238c-3.182-2.241-7.877-3.841-13.954-4.758l-.4-.061-.02-.409a17.847,17.847,0,0,0-6.024-12.423,20.26,20.26,0,0,0-13.6-5.122,20.419,20.419,0,0,0-13.1,4.675l-.543.454-.246-.664a18,18,0,0,0-2.812-4.96,19.177,19.177,0,0,0-4.236-3.913,20.391,20.391,0,0,0-11.509-3.488,20.7,20.7,0,0,0-7.666,1.451,19.728,19.728,0,0,0-6.253,3.952,18.33,18.33,0,0,0-4.209,5.851,17.284,17.284,0,0,0-1.541,7.154c0,.035,0,.076.007.124s.01.12.01.19l0,.366-.348.114a24.367,24.367,0,0,0-10.694,6.706A15.264,15.264,0,0,0,1869.505-58.821Z"
            transform="translate(-1894.816 152.022)" fill="rgba(0,0,0,0)" />
        <path
            d="M19.783-1a20.777,20.777,0,0,1,14.7,35.479A20.783,20.783,0,1,1,11.693.634,20.654,20.654,0,0,1,19.783-1Zm0,39.566a18.788,18.788,0,0,0,7.311-36.09A18.788,18.788,0,0,0,12.472,37.09,18.664,18.664,0,0,0,19.783,38.566Z"
            transform="translate(247.743 53.649) rotate(-67.5)" fill="#5bb3b3" />
        <path d="M0,9.961a1,1,0,0,1-1-1V0A1,1,0,0,1,0-1,1,1,0,0,1,1,0V8.961A1,1,0,0,1,0,9.961Z"
            transform="translate(273.59 9.251)" fill="#5bb3b3" />
        <path d="M0,9.961a1,1,0,0,1-1-1V0A1,1,0,0,1,0-1,1,1,0,0,1,1,0V8.961A1,1,0,0,1,0,9.961Z"
            transform="translate(273.59 68.645)" fill="#5bb3b3" />
        <path
            d="M6.337,7.337a1,1,0,0,1-.707-.293L-.707.707a1,1,0,0,1,0-1.414,1,1,0,0,1,1.414,0L7.044,5.63a1,1,0,0,1-.707,1.707Z"
            transform="translate(249.423 19.262)" fill="#5bb3b3" />
        <path
            d="M6.337,7.337a1,1,0,0,1-.707-.293L-.707.707a1,1,0,0,1,0-1.414,1,1,0,0,1,1.414,0L7.044,5.63a1,1,0,0,1-.707,1.707Z"
            transform="translate(291.42 61.259)" fill="#5bb3b3" />
        <path d="M8.961,1.032h0L0,1A1,1,0,0,1-1,0,1,1,0,0,1,0-1l8.961.032a1,1,0,0,1,0,2Z"
            transform="translate(298.807 43.516)" fill="#5bb3b3" />
        <path d="M8.961,1.032h0L0,1A1,1,0,0,1-1,0,1,1,0,0,1,0-1l8.961.032a1,1,0,0,1,0,2Z"
            transform="translate(239.414 43.31)" fill="#5bb3b3" />
        <path
            d="M0,7.315a1,1,0,0,1-.71-.3,1,1,0,0,1,0-1.414L5.654-.71a1,1,0,0,1,1.414,0,1,1,0,0,1,0,1.414L.7,7.025A1,1,0,0,1,0,7.315Z"
            transform="translate(291.482 19.346)" fill="#5bb3b3" />
        <path
            d="M0,7.315a1,1,0,0,1-.71-.3,1,1,0,0,1,0-1.414L5.654-.71a1,1,0,0,1,1.414,0,1,1,0,0,1,0,1.414L.7,7.025A1,1,0,0,1,0,7.315Z"
            transform="translate(249.34 61.197)" fill="#5bb3b3" />
        <path
            d="M0,9.293a1,1,0,0,1-.378-.075,1,1,0,0,1-.547-1.3L2.469-.379a1,1,0,0,1,1.3-.547A1,1,0,0,1,4.32.379L.925,8.672A1,1,0,0,1,0,9.293Z"
            transform="translate(283.142 11.797)" fill="#5bb3b3" />
        <path
            d="M0,9.293a1,1,0,0,1-.378-.075,1,1,0,0,1-.547-1.3L2.469-.379a1,1,0,0,1,1.3-.547A1,1,0,0,1,4.32.379L.925,8.672A1,1,0,0,1,0,9.293Z"
            transform="translate(260.646 66.767)" fill="#5bb3b3" />
        <path
            d="M3.464,9.265a1,1,0,0,1-.923-.614L-.922.387A1,1,0,0,1-.387-.922,1,1,0,0,1,.922-.387L4.386,7.878a1,1,0,0,1-.922,1.387Z"
            transform="translate(260.377 11.909)" fill="#5bb3b3" />
        <path
            d="M3.464,9.265a1,1,0,0,1-.923-.614L-.922.387A1,1,0,0,1-.387-.922,1,1,0,0,1,.922-.387L4.386,7.878a1,1,0,0,1-.922,1.387Z"
            transform="translate(283.339 66.684)" fill="#5bb3b3" />
        <path
            d="M8.281,4.423A1,1,0,0,1,7.9,4.347L-.382.924A1,1,0,0,1-.924-.382,1,1,0,0,1,.382-.924L8.663,2.5a1,1,0,0,1-.382,1.924Z"
            transform="translate(296.896 53.06)" fill="#5bb3b3" />
        <path
            d="M8.281,4.423A1,1,0,0,1,7.9,4.347L-.382.924A1,1,0,0,1-.924-.382,1,1,0,0,1,.382-.924L8.663,2.5a1,1,0,0,1-.382,1.924Z"
            transform="translate(242.004 30.375)" fill="#5bb3b3" />
        <path
            d="M0,4.436a1,1,0,0,1-.924-.617,1,1,0,0,1,.54-1.307L7.893-.924A1,1,0,0,1,9.2-.383,1,1,0,0,1,8.659.924L.383,4.36A1,1,0,0,1,0,4.436Z"
            transform="translate(296.88 30.324)" fill="#5bb3b3" />
        <path
            d="M0,4.436a1,1,0,0,1-.924-.617,1,1,0,0,1,.54-1.307L7.893-.924A1,1,0,0,1,9.2-.383,1,1,0,0,1,8.659.924L.383,4.36A1,1,0,0,1,0,4.436Z"
            transform="translate(242.025 53.098)" fill="#5bb3b3" />
        <path
            d="M251.649,133.358a1,1,0,0,1-.38-.075c-.071-.029-7.249-2.971-19.876-7.228-11.653-3.929-30.463-9.812-53.9-15.534A699.9,699.9,0,0,0,98.186,95.9a619.472,619.472,0,0,0-76.262-4.84q-10.019,0-19.858.353a1,1,0,0,1-.072-2q9.871-.354,19.929-.354A621.42,621.42,0,0,1,98.46,93.922a701.922,701.922,0,0,1,79.553,14.667c23.5,5.739,42.365,11.642,54.053,15.583,12.674,4.274,19.891,7.232,19.963,7.261a1,1,0,0,1-.381,1.925Z"
            transform="translate(-1 5.49)" fill="#5ab3b3" />
        <path
            d="M340.079,161.724h-.012a1,1,0,0,1-.988-1.011c0-.1.111-9.8.111-22.259a13.946,13.946,0,0,0-1.831-7.174,13.806,13.806,0,0,0-4.044-4.3,17.66,17.66,0,0,0-5.925-2.675,1,1,0,1,1,.392-1.961,19.527,19.527,0,0,1,6.68,3,15.309,15.309,0,0,1,6.729,13.109c0,12.467-.11,22.185-.111,22.281A1,1,0,0,1,340.079,161.724Z"
            transform="translate(0 0.49)" fill="#5bb3b3" />
        <path
            d="M335.547,148.158h-.012a1,1,0,0,1-.988-1.011c0-.062.071-6.246.071-14.18a8.11,8.11,0,0,0-3.535-6.973,11,11,0,0,0-3.7-1.685,1,1,0,0,1,.395-1.961,12.846,12.846,0,0,1,4.393,1.969,10.137,10.137,0,0,1,4.443,8.651c0,7.946-.07,14.141-.071,14.2A1,1,0,0,1,335.547,148.158Z"
            transform="translate(-239.561 -48.524)" fill="#5bb3b3" />
        <path
            d="M347.885,159.412a1,1,0,0,1-1-1V138.554a15.309,15.309,0,0,1,6.729-13.109,19.526,19.526,0,0,1,6.68-3,1,1,0,0,1,.393,1.961,17.825,17.825,0,0,0-5.983,2.715,13.775,13.775,0,0,0-4.009,4.292,13.959,13.959,0,0,0-1.811,7.139v19.858A1,1,0,0,1,347.885,159.412Z"
            transform="translate(0 0.49)" fill="#5bb3b3" />
        <path
            d="M348.137,149.748a1,1,0,0,1-1-.967c0-.077-.253-7.758-.253-15.714a10.137,10.137,0,0,1,4.443-8.651,12.846,12.846,0,0,1,4.393-1.969,1,1,0,0,1,.394,1.961,11.01,11.01,0,0,0-3.7,1.685,8.11,8.11,0,0,0-3.535,6.973c0,7.923.249,15.572.252,15.649a1,1,0,0,1-.966,1.032Z"
            transform="translate(-246.925 -49.198)" fill="#5bb3b3" />
        <path
            d="M347.369,122.492a1,1,0,0,1-.707-1.707c2.606-2.606,7.611-5.123,7.823-5.229a1,1,0,1,1,.894,1.789c-.057.029-4.93,2.482-7.3,4.855A1,1,0,0,1,347.369,122.492Z"
            transform="translate(0 0.49)" fill="#5bb3b3" />
        <g transform="translate(-10.494 2.023)">
            <path
                d="M115.314,226.013h.128a36.772,36.772,0,0,1,7.61.752,9.9,9.9,0,0,1,4.791,2.074,2.294,2.294,0,0,1,.741,1.644c-.007,1.436-1.441,2.567-4.263,3.361a33.9,33.9,0,0,1-8.794,1.029H115.4a36.781,36.781,0,0,1-7.611-.752A9.9,9.9,0,0,1,103,232.047a2.293,2.293,0,0,1-.74-1.643c.008-1.436,1.442-2.567,4.264-3.361A33.886,33.886,0,0,1,115.314,226.013Zm.213,6.86a32.275,32.275,0,0,0,8.126-.92c2.339-.638,2.913-1.341,2.93-1.481-.016-.14-.591-.851-2.952-1.5a32.467,32.467,0,0,0-8.2-.955h-.122a32.257,32.257,0,0,0-8.128.92c-2.339.639-2.913,1.342-2.93,1.482.016.139.594.852,2.956,1.5a32.491,32.491,0,0,0,8.193.954Z"
                transform="translate(0 8.49)" fill="#5bb3b3" />
            <path
                d="M0,79.393H-.005A1,1,0,0,1-1,78.388L-.59-.005A1,1,0,0,1,.415-1,1,1,0,0,1,1.41.005L1,78.4A1,1,0,0,1,0,79.393Z"
                transform="translate(127.177 239.535)" fill="#5bb3b3" />
            <g transform="translate(148.373 60.755)">
                <g transform="translate(0.14 4.519)">
                    <path
                        d="M0,90.725,10.268,42.864C4.542,36.142.666,27.9,1.313,18.674,3.18-7.923,40.2-2.072,47.4,11.352s6.347,47.474-2.961,49.873c-3.712.957-11.62-1.387-19.668-6.238l5.052,35.738Z"
                        transform="translate(0 0)" fill="#b28b67" />
                </g>
                <path
                    d="M10.182,49.772C5.237,46.8,1.471,40.8.353,34.109A25.893,25.893,0,0,1,.935,22.957a28.627,28.627,0,0,1,2.724-6.563C8.227-2.408,27.13-.72,41.275.97c6.888.823,12.648,1.646,15.075.1,1.619,10.147-3.6,18.33-21.967,16.744-3.994,2.239-6.874,6.434-10.388,12.073a7.458,7.458,0,0,0-7.937,12.277c-1.915,2.7-3.835,5.19-5.873,7.6h0Z"
                    transform="translate(0)" fill="#313e58" />
            </g>
            <path
                d="M6105.221,7352.623v0h-49.234c-16.264-67.189-28.522-119.546-36.436-155.62h63.435c2.932,9.78,5.609,20.23,7.959,31.062,2.447,11.274,4.623,23.346,6.469,35.879,1.911,12.975,3.53,26.874,4.813,41.313,1.324,14.9,2.331,30.833,2.993,47.366Z"
                transform="translate(-5888.132 -6936.333)" fill="#708daf" />
            <path
                d="M6105.741,7353.121h-50.148l-.092-.382c-16.262-67.181-28.522-119.542-36.438-155.63l-.133-.607h64.429l.107.356c2.933,9.783,5.614,20.247,7.969,31.1,2.448,11.282,4.627,23.365,6.475,35.913,1.911,12.97,3.531,26.879,4.817,41.341,1.324,14.9,2.332,30.847,2.994,47.39Zm-49.361-1h48.32c-.662-16.341-1.661-32.091-2.97-46.821-1.284-14.443-2.9-28.333-4.81-41.285-1.845-12.525-4.02-24.586-6.463-35.846-2.321-10.7-4.959-21.011-7.843-30.667h-62.441C6028.076,7233.492,6040.256,7285.506,6056.38,7352.121Z"
                transform="translate(-5888.132 -6936.333)" fill="rgba(0,0,0,0)" />
            <path
                d="M6046.216,7352.621h-47.278a782.49,782.49,0,0,0,8.928-79.4c1.52-25.194,1.773-50.125.777-76.22h78.235c-5.175,28.329-11.03,54.821-17.9,80.992-6.678,25.443-14.124,49.854-22.762,74.627Z"
                transform="translate(-5895.489 -6936.333)" fill="#96b7df" />
            <path
                d="M6046.571,7353.121H5998.35l.094-.581a781.969,781.969,0,0,0,8.922-79.35c1.518-25.174,1.772-50.089.777-76.17l-.02-.519h79.354l-.108.59c-5.175,28.333-11.033,54.838-17.908,81.029-6.68,25.451-14.129,49.874-22.773,74.665Zm-47.045-1h46.335c8.586-24.651,15.991-48.944,22.634-74.254,6.82-25.984,12.639-52.279,17.784-80.365h-77.116c.974,25.925.712,50.71-.8,75.75A782.62,782.62,0,0,1,5999.525,7352.121Z"
                transform="translate(-5895.489 -6936.333)" fill="rgba(0,0,0,0)" />
            <path
                d="M9.192,0l35.4,28.962q14.765,4.826,24.5,11.368c1.507,1.525,3.266,4.545-3.27,3.7s-13.45-1.447-14.472.744,2.808,5.076.82,8q-1.989,2.924-16.5-16.053L0,19.691Z"
                transform="translate(214.03 242.357) rotate(17)" fill="#b28b67" />
            <path
                d="M58.759,0s-25.2,63.1-29.945,69.119C26.5,72.06,12.389,79.494,2.859,83.429c-3.825,1.58-3.066,4.8-1.97,5.849C9.8,97.786,18.143,91.739,27.9,89.5c10.687-2.457,7.15,10.144,15.593,8.333-1.239-5.809-4.676-16.858-.683-22.784,2.662-3.951,39.554-69.93,39.554-69.93Z"
                transform="matrix(0.978, -0.208, 0.208, 0.978, 36.88, 250.95)" fill="#b28b67" />
            <path
                d="M0,2.579,9.806,0Q41.135,61.975,109.79,108.859L92.165,134.543l-12.786-1.73C16.544,101.569,3.064,55.7,0,2.579Z"
                transform="translate(168.704 131.918) rotate(17)" fill="#7a8293" />
            <path
                d="M0,131.748H88.987S58.063,56.556,58.063,4L31.22,0C10.124,33.929,4.166,75.7,0,131.748Z"
                transform="translate(119.425 131.232)" fill="#e4e6ea" />
            <path
                d="M0,155.562H79.742S68.751,52.826,67.722,18.926L61.236.39S54.8.108,51.655,0H49.9C31,33.929,3.733,99.516,0,155.562Z"
                transform="translate(100.184 131.232)" fill="#7a8293" />
            <path
                d="M71.079,0S9.732,60.091,0,169.885H31.86c7.158-8.244,10.493-15.051,10.882-12.683C40.323,71.211,78.586,6.673,78.586,6.673Z"
                transform="translate(78.976 131.232)" fill="#629d62" />
            <path d="M13.29,0s.3,68.343,13.29,90.143H0Z" transform="translate(111.334 197.105)"
                fill="rgba(0,0,0,0.1)" />
            <path
                d="M71.079,0S9.732,60.091,0,169.885H31.25c3.979-5.235,6.709-6.851,11.465-13.735C40.643,70.671,78.586,6.673,78.586,6.673Z"
                transform="translate(78.976 131.231)" fill="#7a8293" />
        </g>
        <g transform="translate(2039.239 281.414)">
            <path
                d="M5.17,31.894a6.222,6.222,0,0,1-.658-.034,3.1,3.1,0,0,1-2.579-1.412c-.187-.36-.5-.964-1.763-15.841C-.447,7.346-.992.147-1,.075A1,1,0,0,1-.075-1,1,1,0,0,1,1-.075C1-.006,1.53,6.974,2.135,14.111c1.055,12.448,1.456,14.956,1.59,15.436a2.048,2.048,0,0,0,1.193.34,3.555,3.555,0,0,0,2.6-.759,16.69,16.69,0,0,0,.128-4.291c-.072-2.063-.249-4.765-.527-8.032C6.643,11.23,6.034,5.885,6.028,5.832A1,1,0,0,1,8.015,5.6c.006.056.649,5.7,1.131,11.456.283,3.39.456,6.16.514,8.231.109,3.915-.213,4.643-.552,5.054a4.252,4.252,0,0,1-2.152,1.3A6.606,6.606,0,0,1,5.17,31.894Z"
                transform="translate(-1749.336 -24.03) rotate(3)" fill="#5bb3b3" />
            <path
                d="M5.17,31.894a6.222,6.222,0,0,1-.658-.034,3.1,3.1,0,0,1-2.579-1.412c-.187-.36-.5-.964-1.763-15.841C-.447,7.346-.992.147-1,.075A1,1,0,0,1-.075-1,1,1,0,0,1,1-.075C1-.006,1.53,6.974,2.135,14.111c1.055,12.448,1.456,14.956,1.59,15.436a2.048,2.048,0,0,0,1.193.34,3.555,3.555,0,0,0,2.6-.759,16.69,16.69,0,0,0,.128-4.291c-.072-2.063-.249-4.765-.527-8.032C6.643,11.23,6.034,5.885,6.028,5.832A1,1,0,0,1,8.015,5.6c.006.056.649,5.7,1.131,11.456.283,3.39.456,6.16.514,8.231.109,3.915-.213,4.643-.552,5.054a4.252,4.252,0,0,1-2.152,1.3A6.606,6.606,0,0,1,5.17,31.894Z"
                transform="translate(-1737.857 -24.03) rotate(3)" fill="#5bb3b3" />
            <path
                d="M3.644,28.529c-.2,0-.39-.01-.576-.028a3.175,3.175,0,0,1-2.7-1.544C.2,26.59-.129,25.909-.609,13.9-.843,8.064-1,2.32-1,2.263A1,1,0,0,1-.027,1.236,1,1,0,0,1,1,2.209c0,.056.152,5.625.379,11.362.41,10.341.713,12.209.808,12.543a1.629,1.629,0,0,0,1.081.4A3.31,3.31,0,0,0,5.951,25.7c.064-.2.252-1.1.124-4.7-.08-2.256-.27-5.219-.565-8.809C5.008,6.061,4.368.167,4.361.108a1,1,0,0,1,.886-1.1,1,1,0,0,1,1.1.886c.007.062.677,6.235,1.187,12.531.3,3.707.486,6.733.554,9,.126,4.228-.179,5-.5,5.432A4.971,4.971,0,0,1,3.644,28.529Z"
                transform="translate(-1706.619 -18.66) rotate(3)" fill="#5bb3b3" />
            <path
                d="M.257,42.135l-.075,0a1,1,0,0,1-.924-1.071c.007-.1.726-9.839,1.514-19.613C2.384,1.485,2.694.873,2.879.507A3.088,3.088,0,0,1,5.467-.931,5.387,5.387,0,0,1,10.062.621c.346.428.654,1.17.625,5.489-.016,2.309-.131,5.407-.341,9.209-.358,6.46-.877,12.811-.882,12.874A1,1,0,1,1,7.47,28.03c0-.06.5-6.112.854-12.391.208-3.68.328-6.715.357-9.022A20.085,20.085,0,0,0,8.46,1.823a3.56,3.56,0,0,0-2.654-.777,1.9,1.9,0,0,0-1.123.341c-.142.585-.6,3.848-1.949,20.628-.775,9.627-1.473,19.1-1.48,19.193A1,1,0,0,1,.257,42.135Z"
                transform="matrix(-0.996, 0.087, -0.087, -0.996, -1685.425, 9.535)" fill="#5bb3b3" />
            <path
                d="M-1820.989-69.69a11.6,11.6,0,0,1-3.865-.632,9.278,9.278,0,0,1-5.869-6.268c-.631-2.019-.1-4.611,1.565-7.7a45.589,45.589,0,0,1,5.748-7.938,103.194,103.194,0,0,1,9.014-9.025,1,1,0,0,1,1.41.1,1,1,0,0,1-.1,1.41,101.018,101.018,0,0,0-8.827,8.841,43.577,43.577,0,0,0-5.487,7.567c-1.4,2.6-1.876,4.665-1.412,6.149a7.255,7.255,0,0,0,4.627,4.979,10.458,10.458,0,0,0,5.158.354,12.306,12.306,0,0,0,4.732-1.812c4.638-3.091,14.564-10.294,14.664-10.367a1,1,0,0,1,1.4.222,1,1,0,0,1-.222,1.4c-.1.073-10.058,7.3-14.729,10.412a14.345,14.345,0,0,1-5.516,2.121A14.068,14.068,0,0,1-1820.989-69.69Z"
                transform="translate(30.159 21.237)" fill="#5bb3b3" />
            <path
                d="M54.117,85.079a19.576,19.576,0,0,1-13.93,5.708c-10.569,0-19.137-8.129-19.137-18.157a17.333,17.333,0,0,1,.412-3.765A20.367,20.367,0,0,1,19.136,69C8.567,69,0,60.869,0,50.841A17.821,17.821,0,0,1,7.44,36.469a17.377,17.377,0,0,1-2.655-9.233c0-10.028,8.567-18.157,19.136-18.157a20.01,20.01,0,0,1,6.7,1.145A19.25,19.25,0,0,1,47.841,0,19.063,19.063,0,0,1,66.086,12.663,19.739,19.739,0,0,1,77.5,9.079c10.569,0,19.136,8.129,19.136,18.157a17.38,17.38,0,0,1-2.7,9.306c9.125,1.381,16.1,8.883,16.1,17.93,0,10.028-8.567,18.157-19.136,18.157a20.3,20.3,0,0,1-2.907-.208q.035.553.036,1.116c0,10.028-8.567,18.157-19.136,18.157A19.514,19.514,0,0,1,54.117,85.079Z"
                transform="translate(-1773.855 -102)" fill="#fff" />
            <path
                d="M68.891,89.7a17.551,17.551,0,0,0,12.155-4.769,15.6,15.6,0,0,0,4.981-11.388c0-.328-.011-.66-.032-.988l-.157-2.46,2.439.353a18.374,18.374,0,0,0,2.621.188,17.551,17.551,0,0,0,12.155-4.769,15.6,15.6,0,0,0,4.981-11.388,15.28,15.28,0,0,0-1.09-5.683,15.931,15.931,0,0,0-3.018-4.813A17.418,17.418,0,0,0,93.638,38.52l-3.023-.458,1.63-2.586a15.44,15.44,0,0,0,2.393-8.24,15.6,15.6,0,0,0-4.981-11.388A17.919,17.919,0,0,0,67.24,14.3l-2.2,1.553L64.189,13.3a15.731,15.731,0,0,0-2.382-4.5,16.728,16.728,0,0,0-3.71-3.58,18,18,0,0,0-19.5-.659A16.566,16.566,0,0,0,32.4,11.136l-.8,1.558-1.65-.585a17.989,17.989,0,0,0-6.034-1.03,17.551,17.551,0,0,0-12.155,4.769A15.6,15.6,0,0,0,6.784,27.236a15.441,15.441,0,0,0,2.352,8.175l.981,1.574-1.5,1.1a16.566,16.566,0,0,0-4.832,5.561A15.244,15.244,0,0,0,2,50.841,15.6,15.6,0,0,0,6.981,62.229,17.551,17.551,0,0,0,19.136,67a18.437,18.437,0,0,0,2.1-.12l2.79-.321L23.414,69.3a15.379,15.379,0,0,0-.364,3.331,15.6,15.6,0,0,0,4.982,11.388,17.552,17.552,0,0,0,12.155,4.769,17.887,17.887,0,0,0,6.944-1.381A17.105,17.105,0,0,0,52.7,83.67l1.517-1.528,1.412,1.625A17.508,17.508,0,0,0,68.891,89.7m0,2a19.514,19.514,0,0,1-14.774-6.616,19.576,19.576,0,0,1-13.93,5.708c-10.569,0-19.137-8.129-19.137-18.157a17.333,17.333,0,0,1,.412-3.765A20.365,20.365,0,0,1,19.136,69C8.567,69,0,60.869,0,50.841A17.821,17.821,0,0,1,7.44,36.469a17.377,17.377,0,0,1-2.655-9.233c0-10.028,8.567-18.157,19.136-18.157a20.01,20.01,0,0,1,6.7,1.145A19.25,19.25,0,0,1,47.841,0,19.063,19.063,0,0,1,66.086,12.663,19.739,19.739,0,0,1,77.5,9.079c10.569,0,19.136,8.129,19.136,18.157a17.38,17.38,0,0,1-2.7,9.306c9.125,1.381,16.1,8.883,16.1,17.93,0,10.028-8.567,18.157-19.136,18.157a20.305,20.305,0,0,1-2.907-.208q.035.553.036,1.116C88.027,83.566,79.46,91.7,68.891,91.7Z"
                transform="translate(-1773.855 -102)" fill="#5bb3b3" />
            <path
                d="M24.793,39.912a9.866,9.866,0,0,1-6,2.006,9.487,9.487,0,0,1-9.639-8.785C4.055,32.9,0,29.065,0,24.371a8.919,8.919,0,0,1,6.783-8.379,8.576,8.576,0,0,1-2.72-6.243A8.964,8.964,0,0,1,13.206.975a9.3,9.3,0,0,1,6.7,2.807A9.247,9.247,0,0,1,27.429,0a9.135,9.135,0,0,1,8.587,5.754,9.954,9.954,0,0,1,4.111-.88,9.461,9.461,0,0,1,9.65,9.26,9.028,9.028,0,0,1-2.536,6.258,8.323,8.323,0,0,1,2.536,5.928c0,4.846-4.32,8.773-9.65,8.773q-.414,0-.82-.031a9.168,9.168,0,0,1-8.831,6.855A9.032,9.032,0,0,1,24.793,39.912Z"
                transform="translate(-1790.884 -102)" fill="#fff" />
            <path
                d="M30.476,39.918a7.172,7.172,0,0,0,6.9-5.367l.426-1.609,1.66.127c.221.017.445.025.667.025,4.218,0,7.65-3.039,7.65-6.773a6.341,6.341,0,0,0-1.944-4.508L44.439,20.43,45.8,19.011a7.042,7.042,0,0,0,1.982-4.876,7.471,7.471,0,0,0-7.65-7.26,7.919,7.919,0,0,0-3.287.7l-1.935.875-.758-1.984A7.157,7.157,0,0,0,27.429,2a7.265,7.265,0,0,0-5.9,2.952l-1.4,1.936-1.66-1.717a7.347,7.347,0,0,0-5.265-2.2A6.973,6.973,0,0,0,6.063,9.748a6.558,6.558,0,0,0,2.1,4.791l2.554,2.42-3.386.957a7.754,7.754,0,0,0-3.864,2.476A6.214,6.214,0,0,0,2,24.371a6.349,6.349,0,0,0,2.045,4.606,8.046,8.046,0,0,0,5.2,2.158l1.81.083.1,1.809a7.479,7.479,0,0,0,7.641,6.89,7.821,7.821,0,0,0,4.786-1.6l1.246-.95,1.221.982a7,7,0,0,0,4.429,1.564m0,2a9.032,9.032,0,0,1-5.683-2.006,9.866,9.866,0,0,1-6,2.006,9.487,9.487,0,0,1-9.639-8.785C4.055,32.9,0,29.065,0,24.371a8.919,8.919,0,0,1,6.783-8.379,8.576,8.576,0,0,1-2.72-6.243A8.964,8.964,0,0,1,13.206.975a9.3,9.3,0,0,1,6.7,2.807A9.247,9.247,0,0,1,27.429,0a9.135,9.135,0,0,1,8.587,5.754,9.954,9.954,0,0,1,4.111-.88,9.461,9.461,0,0,1,9.65,9.26,9.028,9.028,0,0,1-2.536,6.258,8.323,8.323,0,0,1,2.536,5.928c0,4.846-4.32,8.773-9.65,8.773q-.414,0-.82-.031A9.168,9.168,0,0,1,30.476,41.918Z"
                transform="translate(-1790.884 -102)" fill="#5bb3b3" />
            <path d="M2,0A2,2,0,1,1,0,2,2,2,0,0,1,2,0Z" transform="translate(-1788.265 -66.632)"
                fill="#5bb3b3" />
            <path
                d="M-1787.192-84.769c-1.178,0-3.178-.612-6.162-3.41a21.639,21.639,0,0,1-4.434-5.612,1,1,0,0,1,.484-1.329,1,1,0,0,1,1.329.484,19.861,19.861,0,0,0,3.99,5c1.922,1.8,3.7,2.869,4.785,2.869h.052c.331-.011.674-.115.939-.8.79-2.034-.462-4.441-1.651-6.1a20.946,20.946,0,0,0-2.989-3.311,1,1,0,0,1-.109-1.41,1,1,0,0,1,1.41-.109,22.771,22.771,0,0,1,3.314,3.666,13.137,13.137,0,0,1,1.92,3.685,6.422,6.422,0,0,1-.031,4.306,2.966,2.966,0,0,1-2.738,2.072Z"
                transform="translate(27.995 21.411)" fill="#5bb3b3" />
            <path
                d="M11.926,9.445a1,1,0,0,1-.907-.578,19.858,19.858,0,0,0-3.99-5C5.077,2.037,3.269.965,2.193,1c-.331.011-.674.115-.939.8-.694,1.788.195,3.742.786,4.748A1,1,0,0,1,.316,7.56C-.459,6.242-1.61,3.648-.611,1.074A2.966,2.966,0,0,1,2.127-1C3.289-1.036,5.32-.476,8.4,2.41a21.637,21.637,0,0,1,4.434,5.612,1,1,0,0,1-.906,1.423Z"
                transform="translate(-1797.488 -74.924) rotate(-76)" fill="#5bb3b3" />
        </g>
        <g transform="translate(24.816 107.593)">
            <path
                d="M0,14.61l-.074,0A1,1,0,0,1-1,13.537c0-.032.236-3.2.5-6.4C.048.486.172.225.292-.027A1.852,1.852,0,0,1,1.857-.985a2.665,2.665,0,0,1,2.356.9c.26.345.374.817.322,2.563-.027.921-.1,2.149-.225,3.651-.206,2.542-.476,5.035-.479,5.059a1,1,0,0,1-1.988-.217c0-.022.247-2.273.446-4.662a37.507,37.507,0,0,0,.237-5.243A1.136,1.136,0,0,0,2.092,1C1.857,2.6,1.311,9.423,1,13.683A1,1,0,0,1,0,14.61Z"
                transform="matrix(-0.985, 0.174, -0.174, -0.985, 36.928, 42.425)" fill="#5bb3b3" />
            <path
                d="M0,14.61l-.074,0A1,1,0,0,1-1,13.537c0-.032.236-3.2.5-6.4C.048.486.172.225.292-.027A1.852,1.852,0,0,1,1.857-.985a2.665,2.665,0,0,1,2.356.9c.26.345.374.817.322,2.563-.027.921-.1,2.149-.225,3.651-.206,2.542-.476,5.035-.479,5.059a1,1,0,0,1-1.988-.217c0-.022.247-2.273.446-4.662a37.507,37.507,0,0,0,.237-5.243A1.136,1.136,0,0,0,2.092,1C1.857,2.6,1.311,9.423,1,13.683A1,1,0,0,1,0,14.61Z"
                transform="translate(30.508 42.734) rotate(177)" fill="#5bb3b3" />
            <path
                d="M2.156,12.079a1,1,0,0,1-1-1.108c0-.022.247-2.273.446-4.662a37.507,37.507,0,0,0,.237-5.243A1.136,1.136,0,0,0,1.416,1C1.277,2.214,1.1,6.416,1,10.206a1,1,0,0,1-1.026.973A1,1,0,0,1-1,10.152c0-.023.063-2.339.157-4.693C-.644.506-.515.235-.39-.027A1.852,1.852,0,0,1,1.175-.985a2.665,2.665,0,0,1,2.356.9c.26.345.374.817.322,2.563-.028.921-.1,2.149-.225,3.651-.206,2.542-.476,5.035-.479,5.059A1,1,0,0,1,2.156,12.079Z"
                transform="translate(17.804 42.77) rotate(177)" fill="#5bb3b3" />
            <path
                d="M2.132,15.328a3.247,3.247,0,0,1-.373-.021,1.717,1.717,0,0,1-1.4-.793C.2,14.239.088,14.041-.479,6.921-.751,3.508-1,.105-1,.071A1,1,0,0,1-.071-1,1,1,0,0,1,1-.071c.32,4.473.871,11.582,1.114,13.4a1.648,1.648,0,0,0,.477-.068,75.46,75.46,0,0,0-.345-8.671A1,1,0,0,1,4.237,4.43c0,.022.182,2.249.3,4.514.068,1.34.1,2.435.1,3.254-.009,1.615-.153,2.052-.453,2.374A2.851,2.851,0,0,1,2.132,15.328Z"
                transform="matrix(0.996, 0.087, -0.087, 0.996, 9.24, 28.404)" fill="#5bb3b3" />
            <path
                d="M-1821.145-87.5a6.5,6.5,0,0,1-3.48-1.031c-1.89-1.26-5.783-4.084-5.948-4.2a1,1,0,0,1-.222-1.4,1,1,0,0,1,1.4-.222c.04.029,4.025,2.921,5.882,4.158a4.228,4.228,0,0,0,3.449.521,2.351,2.351,0,0,0,1.491-1.619c.1-.327.214-1.65-2.649-4.94a40.044,40.044,0,0,0-3.5-3.508,1,1,0,0,1-.1-1.41,1,1,0,0,1,1.41-.1,41.342,41.342,0,0,1,3.687,3.692c2.58,2.961,3.582,5.207,3.063,6.866a4.311,4.311,0,0,1-2.733,2.907A5.23,5.23,0,0,1-1821.145-87.5Z"
                transform="translate(1872.268 109.65)" fill="#5bb3b3" />
            <path
                d="M22.5,34.24a7.878,7.878,0,0,0,5.606,2.3,7.512,7.512,0,0,0,7.7-7.307,6.976,6.976,0,0,0-.166-1.515,8.2,8.2,0,0,0,.936.053,7.512,7.512,0,0,0,7.7-7.307,7.172,7.172,0,0,0-2.994-5.784,6.993,6.993,0,0,0,1.069-3.716,7.512,7.512,0,0,0-7.7-7.307,8.053,8.053,0,0,0-2.7.461A7.863,7.863,0,0,0,17.687,5.1a7.944,7.944,0,0,0-4.595-1.442,7.512,7.512,0,0,0-7.7,7.307,6.994,6.994,0,0,0,1.087,3.745A7.437,7.437,0,0,0,0,21.922a7.512,7.512,0,0,0,7.7,7.307,8.171,8.171,0,0,0,1.17-.084q-.014.223-.014.449a7.512,7.512,0,0,0,7.7,7.307A7.853,7.853,0,0,0,22.5,34.24Z"
                transform="translate(0 0)" fill="#fff" />
            <path
                d="M16.558,34.9a5.852,5.852,0,0,0,4.436-1.974L22.406,31.3l1.517,1.528a5.843,5.843,0,0,0,4.187,1.706,5.521,5.521,0,0,0,5.7-5.307,4.991,4.991,0,0,0-.118-1.081l-.609-2.741,2.79.321a6.221,6.221,0,0,0,.707.04,5.521,5.521,0,0,0,5.7-5.307,5.159,5.159,0,0,0-2.177-4.171l-1.5-1.1.981-1.574a5.02,5.02,0,0,0,.766-2.658,5.521,5.521,0,0,0-5.7-5.307A6.048,6.048,0,0,0,32.627,6l-1.65.585-.8-1.558a5.473,5.473,0,0,0-2.047-2.173,6.049,6.049,0,0,0-6.541.22A5.382,5.382,0,0,0,19.584,5.73l-.853,2.552-2.2-1.553a5.925,5.925,0,0,0-3.441-1.076,5.521,5.521,0,0,0-5.7,5.307A5.02,5.02,0,0,0,8.17,13.64L9.8,16.226l-3.023.458A5.811,5.811,0,0,0,3.343,18.5,5.1,5.1,0,0,0,2,21.922,5.521,5.521,0,0,0,7.7,27.23a6.194,6.194,0,0,0,.884-.063l2.439-.353-.157,2.46c-.007.107-.01.215-.01.322a5.521,5.521,0,0,0,5.7,5.307m0,2a7.512,7.512,0,0,1-7.7-7.307q0-.226.014-.449a8.171,8.171,0,0,1-1.17.084A7.512,7.512,0,0,1,0,21.922a7.437,7.437,0,0,1,6.478-7.216,6.994,6.994,0,0,1-1.087-3.745,7.512,7.512,0,0,1,7.7-7.307A7.944,7.944,0,0,1,17.687,5.1a7.863,7.863,0,0,1,14.272-.982,8.053,8.053,0,0,1,2.7-.461,7.512,7.512,0,0,1,7.7,7.307,6.993,6.993,0,0,1-1.069,3.716,7.172,7.172,0,0,1,2.994,5.784,7.512,7.512,0,0,1-7.7,7.307,8.2,8.2,0,0,1-.936-.053,6.975,6.975,0,0,1,.166,1.515,7.512,7.512,0,0,1-7.7,7.307,7.878,7.878,0,0,1-5.606-2.3A7.853,7.853,0,0,1,16.558,36.9Z"
                transform="translate(0 0)" fill="#5bb3b3" />
            <path
                d="M10.055,16.062a3.971,3.971,0,0,0,2.414.807,3.818,3.818,0,0,0,3.879-3.535,3.7,3.7,0,0,0,3.685-3.526A3.589,3.589,0,0,0,17.3,6.436,3.451,3.451,0,0,0,18.4,3.923,3.608,3.608,0,0,0,14.718.392a3.742,3.742,0,0,0-2.7,1.13A3.721,3.721,0,0,0,8.994,0,3.676,3.676,0,0,0,5.538,2.316a4.006,4.006,0,0,0-1.655-.354A3.807,3.807,0,0,0,0,5.689,3.633,3.633,0,0,0,1.02,8.207,3.35,3.35,0,0,0,0,10.592a3.72,3.72,0,0,0,3.884,3.531q.167,0,.33-.013A3.689,3.689,0,0,0,7.768,16.87,3.635,3.635,0,0,0,10.055,16.062Z"
                transform="translate(31.103 0)" fill="#fff" />
            <path
                d="M12.469,14.87a1.817,1.817,0,0,0,1.882-1.641l.1-1.809,1.81-.083a1.733,1.733,0,0,0,1.776-1.528A1.618,1.618,0,0,0,16.759,8.36L13.373,7.4l2.554-2.42a1.455,1.455,0,0,0,.47-1.061,1.612,1.612,0,0,0-1.679-1.531,1.732,1.732,0,0,0-1.26.52L11.8,4.629,10.4,2.693A1.726,1.726,0,0,0,8.994,2,1.68,1.68,0,0,0,7.407,3.029L6.649,5.013,4.714,4.138a2,2,0,0,0-.83-.176A1.812,1.812,0,0,0,2,5.689a1.629,1.629,0,0,0,.467,1.137l1.356,1.42L2.429,9.627A1.361,1.361,0,0,0,2,10.592a1.737,1.737,0,0,0,1.884,1.531c.059,0,.119,0,.177-.007l1.66-.127L6.147,13.6A1.69,1.69,0,0,0,7.768,14.87,1.634,1.634,0,0,0,8.8,14.5l1.221-.982,1.246.95a1.959,1.959,0,0,0,1.2.4m0,2a3.971,3.971,0,0,1-2.414-.807,3.635,3.635,0,0,1-2.287.807,3.689,3.689,0,0,1-3.554-2.759q-.163.012-.33.013A3.72,3.72,0,0,1,0,10.592a3.35,3.35,0,0,1,1.02-2.386A3.633,3.633,0,0,1,0,5.689,3.807,3.807,0,0,1,3.884,1.962a4.006,4.006,0,0,1,1.655.354A3.676,3.676,0,0,1,8.994,0,3.721,3.721,0,0,1,12.02,1.522a3.742,3.742,0,0,1,2.7-1.13A3.608,3.608,0,0,1,18.4,3.923,3.451,3.451,0,0,1,17.3,6.436a3.589,3.589,0,0,1,2.73,3.372,3.7,3.7,0,0,1-3.685,3.526A3.818,3.818,0,0,1,12.469,16.87Z"
                transform="translate(31.103 0)" fill="#5bb3b3" />
        </g>
        <g transform="translate(-40.602 147.121)">
            <path
                d="M24.41,38.376a8.83,8.83,0,0,1-6.283,2.575,8.42,8.42,0,0,1-8.632-8.19,7.818,7.818,0,0,1,.186-1.7,9.187,9.187,0,0,1-1.049.06A8.419,8.419,0,0,1,0,22.932,8.038,8.038,0,0,1,3.356,16.45a7.838,7.838,0,0,1-1.2-4.165A8.419,8.419,0,0,1,10.79,4.1a9.026,9.026,0,0,1,3.023.516A8.683,8.683,0,0,1,21.579,0a8.6,8.6,0,0,1,8.229,5.712A8.9,8.9,0,0,1,34.958,4.1a8.419,8.419,0,0,1,8.632,8.19,7.839,7.839,0,0,1-1.218,4.2,8.336,8.336,0,0,1,7.261,8.088A8.419,8.419,0,0,1,41,32.761a9.158,9.158,0,0,1-1.311-.094q.016.25.016.5a8.419,8.419,0,0,1-8.632,8.19A8.8,8.8,0,0,1,24.41,38.376Z"
                transform="translate(14.786)" fill="#fff" />
            <path
                d="M31.074,39.36a6.43,6.43,0,0,0,6.632-6.19c0-.125,0-.251-.012-.376l-.157-2.46,2.439.353A7.186,7.186,0,0,0,41,30.761a6.43,6.43,0,0,0,6.632-6.19,5.951,5.951,0,0,0-1.568-4,6.756,6.756,0,0,0-3.992-2.113L39.049,18l1.63-2.586a5.868,5.868,0,0,0,.91-3.131A6.43,6.43,0,0,0,34.958,6.1a6.881,6.881,0,0,0-4,1.25L28.765,8.9l-.853-2.552a6.275,6.275,0,0,0-2.34-3.1,7.022,7.022,0,0,0-7.6-.255,6.375,6.375,0,0,0-2.384,2.531l-.8,1.558L13.144,6.5a7.019,7.019,0,0,0-2.354-.4,6.43,6.43,0,0,0-6.632,6.19,5.868,5.868,0,0,0,.895,3.106l.981,1.574-1.5,1.1A6.021,6.021,0,0,0,2,22.932a6.43,6.43,0,0,0,6.632,6.19,7.215,7.215,0,0,0,.821-.047l2.79-.321L11.633,31.5a5.837,5.837,0,0,0-.138,1.264,6.43,6.43,0,0,0,6.632,6.19,6.789,6.789,0,0,0,4.864-1.984l1.517-1.528,1.412,1.625a6.8,6.8,0,0,0,5.154,2.3m0,2a8.8,8.8,0,0,1-6.664-2.984,8.83,8.83,0,0,1-6.283,2.575,8.42,8.42,0,0,1-8.632-8.19,7.818,7.818,0,0,1,.186-1.7,9.187,9.187,0,0,1-1.049.06A8.419,8.419,0,0,1,0,22.932,8.038,8.038,0,0,1,3.356,16.45a7.838,7.838,0,0,1-1.2-4.165A8.419,8.419,0,0,1,10.79,4.1a9.026,9.026,0,0,1,3.023.516A8.683,8.683,0,0,1,21.579,0a8.6,8.6,0,0,1,8.229,5.712A8.9,8.9,0,0,1,34.958,4.1a8.419,8.419,0,0,1,8.632,8.19,7.839,7.839,0,0,1-1.218,4.2,8.336,8.336,0,0,1,7.261,8.088A8.419,8.419,0,0,1,41,32.761a9.159,9.159,0,0,1-1.311-.094q.016.25.016.5A8.419,8.419,0,0,1,31.074,41.36Z"
                transform="translate(14.786)" fill="#5bb3b3" />
            <path
                d="M-1792.513-91.341a5.056,5.056,0,0,1-3.153-1.687,10.179,10.179,0,0,1-2.122-2.7,1,1,0,0,1,.484-1.329,1,1,0,0,1,1.329.484,8.436,8.436,0,0,0,1.715,2.121,4.114,4.114,0,0,0,1.679,1.1v0c.434-1.118-1.119-2.929-1.938-3.63a1,1,0,0,1-.109-1.41,1,1,0,0,1,1.41-.109,10.885,10.885,0,0,1,1.585,1.751,4.482,4.482,0,0,1,.918,4.122,1.881,1.881,0,0,1-1.729,1.285Z"
                transform="translate(1813.909 109.319)" fill="#5bb3b3" />
        </g>
        <g transform="translate(383.046 160)">
            <path
                d="M25.222,2.984A8.83,8.83,0,0,1,31.505.409,8.42,8.42,0,0,1,40.137,8.6a7.818,7.818,0,0,1-.186,1.7A9.187,9.187,0,0,1,41,10.238a8.419,8.419,0,0,1,8.632,8.19,8.038,8.038,0,0,1-3.356,6.483,7.838,7.838,0,0,1,1.2,4.165,8.419,8.419,0,0,1-8.632,8.19,9.026,9.026,0,0,1-3.023-.516,8.813,8.813,0,0,1-16-1.1,8.9,8.9,0,0,1-5.15,1.617,8.419,8.419,0,0,1-8.632-8.19,7.84,7.84,0,0,1,1.218-4.2A8.336,8.336,0,0,1,0,16.79,8.419,8.419,0,0,1,8.632,8.6a9.158,9.158,0,0,1,1.311.094q-.016-.25-.016-.5A8.419,8.419,0,0,1,18.558,0,8.8,8.8,0,0,1,25.222,2.984Z"
                transform="translate(0)" fill="#fff" />
            <path
                d="M18.558,2a6.43,6.43,0,0,0-6.632,6.19c0,.125,0,.251.012.376l.157,2.46-2.439-.353A7.186,7.186,0,0,0,8.632,10.6,6.43,6.43,0,0,0,2,16.79a5.951,5.951,0,0,0,1.568,4A6.756,6.756,0,0,0,7.56,22.9l3.023.458-1.63,2.586a5.868,5.868,0,0,0-.91,3.131,6.43,6.43,0,0,0,6.632,6.19,6.881,6.881,0,0,0,4-1.25l2.2-1.553.853,2.552a6.275,6.275,0,0,0,2.34,3.1,7.022,7.022,0,0,0,7.6.255,6.375,6.375,0,0,0,2.384-2.531l.8-1.558,1.65.585a7.019,7.019,0,0,0,2.354.4,6.43,6.43,0,0,0,6.632-6.19,5.868,5.868,0,0,0-.895-3.106L43.6,24.4l1.5-1.1a6.021,6.021,0,0,0,2.539-4.87A6.43,6.43,0,0,0,41,12.238a7.215,7.215,0,0,0-.821.047l-2.79.321L38,9.864A5.836,5.836,0,0,0,38.137,8.6a6.43,6.43,0,0,0-6.632-6.19,6.789,6.789,0,0,0-4.864,1.984L25.124,5.921,23.712,4.3A6.8,6.8,0,0,0,18.558,2m0-2a8.8,8.8,0,0,1,6.664,2.984A8.83,8.83,0,0,1,31.505.409,8.42,8.42,0,0,1,40.137,8.6a7.818,7.818,0,0,1-.186,1.7A9.187,9.187,0,0,1,41,10.238a8.419,8.419,0,0,1,8.632,8.19,8.038,8.038,0,0,1-3.356,6.483,7.838,7.838,0,0,1,1.2,4.165,8.419,8.419,0,0,1-8.632,8.19,9.026,9.026,0,0,1-3.023-.516,8.813,8.813,0,0,1-16-1.1,8.9,8.9,0,0,1-5.15,1.617,8.419,8.419,0,0,1-8.632-8.19,7.839,7.839,0,0,1,1.218-4.2A8.336,8.336,0,0,1,0,16.79,8.419,8.419,0,0,1,8.632,8.6a9.159,9.159,0,0,1,1.311.094q-.016-.25-.016-.5A8.419,8.419,0,0,1,18.558,0Z"
                transform="translate(0)" fill="#5bb3b3" />
        </g>
        <g transform="translate(-4.686 19.453) rotate(-7)">
            <path
                d="M2.18-1.943C6.845-4.587,39,1.394,44.322,4.541s11.23,9.31,10.209,13.55-4.764,7.666-15.354,6.776S0,11,0,11s22.534,4.279,26.093,2.96S-2.484.7,2.18-1.943Z"
                transform="matrix(0.883, -0.469, 0.469, 0.883, 149.058, 72.682)" fill="#a0d1a0" />
            <path
                d="M.227,32.679C.073,28.438-1.1,10.142,3.923,6.662s35.313-6.849,43.87-.349C53.8,11.8,53.509,34.248,53.107,38.046S.38,36.92.227,32.679Z"
                transform="matrix(0.883, -0.469, 0.469, 0.883, 114.235, 63.59)" fill="#629d62" />
            <path
                d="M97.736,23.353a60.228,60.228,0,0,1-15.106.529c-25.564-2.446-75.7-8.9-75.7-8.9s-9.7-4.62-6.147-10.085S3.687-6.125,26.6-1.854s36.93,15.824,46.569,18.9S97.736,23.353,97.736,23.353Z"
                transform="matrix(0.883, -0.469, 0.469, 0.883, 101.904, 99.285)" fill="#85cb85" />
        </g>
    </g>
</svg>