<svg xmlns="http://www.w3.org/2000/svg" xmlns:xlink="http://www.w3.org/1999/xlink" width="400"
    height="320" viewBox="0 0 400 320">
    <defs>
        <clipPath>
            <rect width="60.348" height="69.832" fill="none" />
        </clipPath>
        <clipPath>
            <rect width="400" height="320" />
        </clipPath>
    </defs>
    <g clip-path="url(#c)">
        <g transform="translate(-36)">
            <g transform="translate(0.5 -6.61)">
                <path
                    d="M0-1H30.23a1,1,0,0,1,1,1V45.448a1,1,0,0,1-1,1H0a1,1,0,0,1-1-1V0A1,1,0,0,1,0-1ZM29.23,1H1V44.448H29.23Z"
                    transform="translate(147.5 109.776)" fill="#5bb3b3" />
                <path
                    d="M2,2V8.13H20.3V2H2M2,0H20.3a2,2,0,0,1,2,2V8.13a2,2,0,0,1-2,2H2a2,2,0,0,1-2-2V2A2,2,0,0,1,2,0Z"
                    transform="translate(151.596 114.719)" fill="#5ab3b3" />
            </g>
            <g transform="translate(7.5)">
                <path d="M9,1H0A1,1,0,0,1-1,0,1,1,0,0,1,0-1H9a1,1,0,0,1,1,1A1,1,0,0,1,9,1Z"
                    transform="translate(151.5 125.5)" fill="#5ab3b3" />
                <path d="M9,1H0A1,1,0,0,1-1,0,1,1,0,0,1,0-1H9a1,1,0,0,1,1,1A1,1,0,0,1,9,1Z"
                    transform="translate(151.5 130.5)" fill="#5ab3b3" />
            </g>
            <path d="M17,1H0A1,1,0,0,1-1,0,1,1,0,0,1,0-1H17a1,1,0,0,1,1,1A1,1,0,0,1,17,1Z"
                transform="translate(154.5 143.5)" fill="#5ab3b3" />
        </g>
        <g transform="translate(2)">
            <g transform="translate(0.5 -6.61)">
                <path
                    d="M0-1H30.23a1,1,0,0,1,1,1V45.448a1,1,0,0,1-1,1H0a1,1,0,0,1-1-1V0A1,1,0,0,1,0-1ZM29.23,1H1V44.448H29.23Z"
                    transform="translate(147.5 109.776)" fill="#5bb3b3" />
                <path
                    d="M2,2V8.13H20.3V2H2M2,0H20.3a2,2,0,0,1,2,2V8.13a2,2,0,0,1-2,2H2a2,2,0,0,1-2-2V2A2,2,0,0,1,2,0Z"
                    transform="translate(151.596 114.719)" fill="#5ab3b3" />
            </g>
            <g transform="translate(7.5)">
                <path d="M9,1H0A1,1,0,0,1-1,0,1,1,0,0,1,0-1H9a1,1,0,0,1,1,1A1,1,0,0,1,9,1Z"
                    transform="translate(151.5 125.5)" fill="#5ab3b3" />
                <path d="M9,1H0A1,1,0,0,1-1,0,1,1,0,0,1,0-1H9a1,1,0,0,1,1,1A1,1,0,0,1,9,1Z"
                    transform="translate(151.5 130.5)" fill="#5ab3b3" />
            </g>
            <path d="M17,1H0A1,1,0,0,1-1,0,1,1,0,0,1,0-1H17a1,1,0,0,1,1,1A1,1,0,0,1,17,1Z"
                transform="translate(154.5 143.5)" fill="#5ab3b3" />
        </g>
        <g transform="translate(39)">
            <g transform="translate(0.5 -6.61)">
                <path
                    d="M0-1H30.23a1,1,0,0,1,1,1V45.448a1,1,0,0,1-1,1H0a1,1,0,0,1-1-1V0A1,1,0,0,1,0-1ZM29.23,1H1V44.448H29.23Z"
                    transform="translate(147.5 109.776)" fill="#5bb3b3" />
                <path
                    d="M2,2V8.13H20.3V2H2M2,0H20.3a2,2,0,0,1,2,2V8.13a2,2,0,0,1-2,2H2a2,2,0,0,1-2-2V2A2,2,0,0,1,2,0Z"
                    transform="translate(151.596 114.719)" fill="#5ab3b3" />
            </g>
            <g transform="translate(7.5)">
                <path d="M9,1H0A1,1,0,0,1-1,0,1,1,0,0,1,0-1H9a1,1,0,0,1,1,1A1,1,0,0,1,9,1Z"
                    transform="translate(151.5 125.5)" fill="#5ab3b3" />
                <path d="M9,1H0A1,1,0,0,1-1,0,1,1,0,0,1,0-1H9a1,1,0,0,1,1,1A1,1,0,0,1,9,1Z"
                    transform="translate(151.5 130.5)" fill="#5ab3b3" />
            </g>
            <path d="M17,1H0A1,1,0,0,1-1,0,1,1,0,0,1,0-1H17a1,1,0,0,1,1,1A1,1,0,0,1,17,1Z"
                transform="translate(154.5 143.5)" fill="#5ab3b3" />
        </g>
        <g transform="translate(77)">
            <g transform="translate(0.5 -6.61)">
                <path
                    d="M0-1H30.23a1,1,0,0,1,1,1V45.448a1,1,0,0,1-1,1H0a1,1,0,0,1-1-1V0A1,1,0,0,1,0-1ZM29.23,1H1V44.448H29.23Z"
                    transform="translate(147.5 109.776)" fill="#5bb3b3" />
                <path
                    d="M2,2V8.13H20.3V2H2M2,0H20.3a2,2,0,0,1,2,2V8.13a2,2,0,0,1-2,2H2a2,2,0,0,1-2-2V2A2,2,0,0,1,2,0Z"
                    transform="translate(151.596 114.719)" fill="#5ab3b3" />
            </g>
            <g transform="translate(7.5)">
                <path d="M9,1H0A1,1,0,0,1-1,0,1,1,0,0,1,0-1H9a1,1,0,0,1,1,1A1,1,0,0,1,9,1Z"
                    transform="translate(151.5 125.5)" fill="#5ab3b3" />
                <path d="M9,1H0A1,1,0,0,1-1,0,1,1,0,0,1,0-1H9a1,1,0,0,1,1,1A1,1,0,0,1,9,1Z"
                    transform="translate(151.5 130.5)" fill="#5ab3b3" />
            </g>
            <path d="M17,1H0A1,1,0,0,1-1,0,1,1,0,0,1,0-1H17a1,1,0,0,1,1,1A1,1,0,0,1,17,1Z"
                transform="translate(154.5 143.5)" fill="#5ab3b3" />
        </g>
        <g transform="translate(115)">
            <g transform="translate(0.5 -6.61)">
                <path
                    d="M0-1H30.23a1,1,0,0,1,1,1V45.448a1,1,0,0,1-1,1H0a1,1,0,0,1-1-1V0A1,1,0,0,1,0-1ZM29.23,1H1V44.448H29.23Z"
                    transform="translate(147.5 109.776)" fill="#5bb3b3" />
                <path
                    d="M2,2V8.13H20.3V2H2M2,0H20.3a2,2,0,0,1,2,2V8.13a2,2,0,0,1-2,2H2a2,2,0,0,1-2-2V2A2,2,0,0,1,2,0Z"
                    transform="translate(151.596 114.719)" fill="#5ab3b3" />
            </g>
            <g transform="translate(7.5)">
                <path d="M9,1H0A1,1,0,0,1-1,0,1,1,0,0,1,0-1H9a1,1,0,0,1,1,1A1,1,0,0,1,9,1Z"
                    transform="translate(151.5 125.5)" fill="#5ab3b3" />
                <path d="M9,1H0A1,1,0,0,1-1,0,1,1,0,0,1,0-1H9a1,1,0,0,1,1,1A1,1,0,0,1,9,1Z"
                    transform="translate(151.5 130.5)" fill="#5ab3b3" />
            </g>
            <path d="M17,1H0A1,1,0,0,1-1,0,1,1,0,0,1,0-1H17a1,1,0,0,1,1,1A1,1,0,0,1,17,1Z"
                transform="translate(154.5 143.5)" fill="#5ab3b3" />
        </g>
        <path d="M0,320.5a1,1,0,0,1-1-1V0A1,1,0,0,1,0-1,1,1,0,0,1,1,0V319.5A1,1,0,0,1,0,320.5Z"
            transform="translate(105.328)" fill="#5bb3b3" />
        <path
            d="M.444,320.5a1,1,0,0,1-1-1L-1,0A1,1,0,0,1,0-1,1,1,0,0,1,1,0l.444,319.5a1,1,0,0,1-1,1Z"
            transform="translate(86.281)" fill="#5bb3b3" />
        <path d="M85.545,1H0A1,1,0,0,1-1,0,1,1,0,0,1,0-1H85.545a1,1,0,0,1,1,1A1,1,0,0,1,85.545,1Z"
            transform="translate(0 258.913)" fill="#5bb3b3" />
        <path
            d="M287.986,1H0A1,1,0,0,1-1,0,1,1,0,0,1,0-1H287.986a1,1,0,0,1,1,1A1,1,0,0,1,287.986,1Z"
            transform="translate(111.278 258.913)" fill="#5bb3b3" />
        <path d="M86.281,1H0A1,1,0,0,1-1,0,1,1,0,0,1,0-1H86.281a1,1,0,0,1,1,1A1,1,0,0,1,86.281,1Z"
            transform="translate(0 250.757)" fill="#5bb3b3" />
        <path
            d="M288.722,1H0A1,1,0,0,1-1,0,1,1,0,0,1,0-1H288.722a1,1,0,0,1,1,1A1,1,0,0,1,288.722,1Z"
            transform="translate(111.278 250.757)" fill="#5bb3b3" />
        <path d="M82.725,1H0A1,1,0,0,1-1,0,1,1,0,0,1,0-1H82.725a1,1,0,0,1,1,1A1,1,0,0,1,82.725,1Z"
            transform="translate(0 154.65)" fill="#5bb3b3" />
        <path
            d="M287.638,1H0A1,1,0,0,1-1,0,1,1,0,0,1,0-1H287.638a1,1,0,0,1,1,1A1,1,0,0,1,287.638,1Z"
            transform="translate(112.362 154.65)" fill="#5bb3b3" />
        <path d="M82.725,1H0A1,1,0,0,1-1,0,1,1,0,0,1,0-1H82.725a1,1,0,0,1,1,1A1,1,0,0,1,82.725,1Z"
            transform="translate(0 80.624)" fill="#5bb3b3" />
        <path
            d="M287.638,1H0A1,1,0,0,1-1,0,1,1,0,0,1,0-1H287.638a1,1,0,0,1,1,1A1,1,0,0,1,287.638,1Z"
            transform="translate(112.362 80.624)" fill="#5bb3b3" />
        <path d="M82.726,1H0A1,1,0,0,1-1,0,1,1,0,0,1,0-1H82.726a1,1,0,0,1,1,1A1,1,0,0,1,82.726,1Z"
            transform="translate(0 162.493)" fill="#5bb3b3" />
        <path
            d="M287.639,1H0A1,1,0,0,1-1,0,1,1,0,0,1,0-1H287.639a1,1,0,0,1,1,1A1,1,0,0,1,287.639,1Z"
            transform="translate(112.361 162.493)" fill="#5bb3b3" />
        <path d="M82.726,1H0A1,1,0,0,1-1,0,1,1,0,0,1,0-1H82.726a1,1,0,0,1,1,1A1,1,0,0,1,82.726,1Z"
            transform="translate(0 88.468)" fill="#5bb3b3" />
        <path
            d="M287.639,1H0A1,1,0,0,1-1,0,1,1,0,0,1,0-1H287.639a1,1,0,0,1,1,1A1,1,0,0,1,287.639,1Z"
            transform="translate(112.361 88.468)" fill="#5bb3b3" />
        <path
            d="M2-1H28.23a3,3,0,0,1,3,3V43.448a3,3,0,0,1-3,3H2a3,3,0,0,1-3-3V2A3,3,0,0,1,2-1ZM28.23,44.448a1,1,0,0,0,1-1V2a1,1,0,0,0-1-1H2A1,1,0,0,0,1,2V43.448a1,1,0,0,0,1,1Z"
            transform="translate(13.093 103.166)" fill="#5bb3b3" />
        <rect width="30.23" height="45.448" rx="2" transform="translate(264.981 27.02)"
            fill="#bfe2e2" />
        <path
            d="M2-1H28.23a3,3,0,0,1,3,3V43.448a3,3,0,0,1-3,3H2a3,3,0,0,1-3-3V2A3,3,0,0,1,2-1ZM28.23,44.448a1,1,0,0,0,1-1V2a1,1,0,0,0-1-1H2A1,1,0,0,0,1,2V43.448a1,1,0,0,0,1,1Z"
            transform="translate(154.281 27.02)" fill="#5bb3b3" />
        <path
            d="M2-1H39.392a3,3,0,0,1,3,3V60.229a3,3,0,0,1-3,3H2a3,3,0,0,1-3-3V2A3,3,0,0,1,2-1ZM39.392,61.229a1,1,0,0,0,1-1V2a1,1,0,0,0-1-1H2A1,1,0,0,0,1,2V60.229a1,1,0,0,0,1,1Z"
            transform="translate(-11.734 182.372)" fill="#5bb3b3" />
        <rect width="41.392" height="62.229" rx="2" transform="translate(138.232 182.372)"
            fill="#bfe2e2" />
        <path
            d="M0-1H30.23a1,1,0,0,1,1,1V45.448a1,1,0,0,1-1,1H0a1,1,0,0,1-1-1V0A1,1,0,0,1,0-1ZM29.23,1H1V44.448H29.23Z"
            transform="translate(-23.591 103.166)" fill="#5bb3b3" />
        <rect width="30.23" height="45.448" rx="2" transform="translate(228.297 27.02)"
            fill="#bfe2e2" />
        <path
            d="M2-1H28.23a3,3,0,0,1,3,3V43.448a3,3,0,0,1-3,3H2a3,3,0,0,1-3-3V2A3,3,0,0,1,2-1ZM28.23,44.448a1,1,0,0,0,1-1V2a1,1,0,0,0-1-1H2A1,1,0,0,0,1,2V43.448a1,1,0,0,0,1,1Z"
            transform="translate(113.597 27.02)" fill="#5bb3b3" />
        <path
            d="M2-1H28.23a3,3,0,0,1,3,3V43.448a3,3,0,0,1-3,3H2a3,3,0,0,1-3-3V2A3,3,0,0,1,2-1ZM28.23,44.448a1,1,0,0,0,1-1V2a1,1,0,0,0-1-1H2A1,1,0,0,0,1,2V43.448a1,1,0,0,0,1,1Z"
            transform="translate(50.101 103.166)" fill="#5bb3b3" />
        <rect width="30.23" height="45.448" rx="2" transform="translate(301.989 27.02)"
            fill="#bfe2e2" />
        <rect width="30.23" height="45.448" rx="2" transform="translate(338.997 27.02)"
            fill="#bfe2e2" />
        <rect width="30.23" height="45.448" rx="2" transform="translate(376.005 27.02)"
            fill="#bfe2e2" />
        <path
            d="M2-1H28.23a3,3,0,0,1,3,3V43.448a3,3,0,0,1-3,3H2a3,3,0,0,1-3-3V2A3,3,0,0,1,2-1ZM28.23,44.448a1,1,0,0,0,1-1V2a1,1,0,0,0-1-1H2A1,1,0,0,0,1,2V43.448a1,1,0,0,0,1,1Z"
            transform="translate(191.289 27.02)" fill="#5bb3b3" />
        <path
            d="M2-1H34.23a3,3,0,0,1,3,3V52.448a3,3,0,0,1-3,3H2a3,3,0,0,1-3-3V2A3,3,0,0,1,2-1ZM34.23,53.448a1,1,0,0,0,1-1V2a1,1,0,0,0-1-1H2A1,1,0,0,0,1,2V52.448a1,1,0,0,0,1,1Z"
            transform="translate(300 94.166)" fill="#5bb3b3" />
        <path
            d="M2-1H34.23a3,3,0,0,1,3,3V52.448a3,3,0,0,1-3,3H2a3,3,0,0,1-3-3V2A3,3,0,0,1,2-1ZM34.23,53.448a1,1,0,0,0,1-1V2a1,1,0,0,0-1-1H2A1,1,0,0,0,1,2V52.448a1,1,0,0,0,1,1Z"
            transform="translate(344 94.166)" fill="#5bb3b3" />
        <path
            d="M2-1H34.23a3,3,0,0,1,3,3V52.448a3,3,0,0,1-3,3H2a3,3,0,0,1-3-3V2A3,3,0,0,1,2-1ZM34.23,53.448a1,1,0,0,0,1-1V2a1,1,0,0,0-1-1H2A1,1,0,0,0,1,2V52.448a1,1,0,0,0,1,1Z"
            transform="translate(386.18 94.166)" fill="#5bb3b3" />
        <path
            d="M2-1H39.392a3,3,0,0,1,3,3V60.229a3,3,0,0,1-3,3H2a3,3,0,0,1-3-3V2A3,3,0,0,1,2-1ZM39.392,61.229a1,1,0,0,0,1-1V2a1,1,0,0,0-1-1H2A1,1,0,0,0,1,2V60.229a1,1,0,0,0,1,1Z"
            transform="translate(38.939 182.372)" fill="#5bb3b3" />
        <rect width="41.392" height="62.229" rx="2" transform="translate(186.905 182.372)"
            fill="#bfe2e2" />
        <rect width="41.392" height="62.229" rx="2" transform="translate(369.423 182.372)"
            fill="#bfe2e2" />
        <path
            d="M0-1H30.23a1,1,0,0,1,1,1V45.448a1,1,0,0,1-1,1H0a1,1,0,0,1-1-1V0A1,1,0,0,1,0-1ZM29.23,1H1V44.448H29.23Z"
            transform="translate(50.101 27.02)" fill="#5bb3b3" />
        <rect width="22" height="14" rx="2" transform="translate(59 36)" fill="#bfe2e2" />
        <path
            d="M2,2V12H20V2H2M2,0H20a2,2,0,0,1,2,2V12a2,2,0,0,1-2,2H2a2,2,0,0,1-2-2V2A2,2,0,0,1,2,0Z"
            transform="translate(59 36)" fill="#5ab3b3" />
        <g transform="translate(-36.18)">
            <path
                d="M0-1H30.23a1,1,0,0,1,1,1V45.448a1,1,0,0,1-1,1H0a1,1,0,0,1-1-1V0A1,1,0,0,1,0-1ZM29.23,1H1V44.448H29.23Z"
                transform="translate(50.101 27.02)" fill="#5bb3b3" />
            <rect width="22" height="14" rx="2" transform="translate(59 36)" fill="#bfe2e2" />
            <path
                d="M2,2V12H20V2H2M2,0H20a2,2,0,0,1,2,2V12a2,2,0,0,1-2,2H2a2,2,0,0,1-2-2V2A2,2,0,0,1,2,0Z"
                transform="translate(59 36)" fill="#5ab3b3" />
        </g>
        <g transform="translate(-71.18)">
            <path
                d="M0-1H30.23a1,1,0,0,1,1,1V45.448a1,1,0,0,1-1,1H0a1,1,0,0,1-1-1V0A1,1,0,0,1,0-1ZM29.23,1H1V44.448H29.23Z"
                transform="translate(50.101 27.02)" fill="#5bb3b3" />
            <rect width="22" height="14" rx="2" transform="translate(59 36)" fill="#bfe2e2" />
            <path
                d="M2,2V12H20V2H2M2,0H20a2,2,0,0,1,2,2V12a2,2,0,0,1-2,2H2a2,2,0,0,1-2-2V2A2,2,0,0,1,2,0Z"
                transform="translate(59 36)" fill="#5ab3b3" />
        </g>
        <g transform="translate(-358.645 5.391)">
            <g transform="translate(280.46 33.383)">
                <g transform="translate(15.241 2.199) rotate(3)">
                    <path
                        d="M.138,56.1S45.847,11.659,47.658,0C31.362,8.38,3.028,36.577.449,49.7-.326,54.25.138,56.1.138,56.1"
                        transform="translate(70.363 17.627)" fill="#c0e2e2" />
                    <path
                        d="M10.536,0s.207,63.752-6.861,73.2C-1.732,55.692-1.4,15.72,6.177,4.7,8.891.961,10.536,0,10.536,0"
                        transform="translate(68.005 0)" fill="#c0e2e2" />
                    <path
                        d="M25.828,67.435S13.884,6.381.323,0C-2.731,3.466,16.666,62.978,24.013,68.178"
                        transform="translate(46.477 5.398)" fill="#c0e2e2" />
                    <path
                        d="M35.162,10.976S11.555,1.072,0,.411C41.6-3.221,70.984,18.4,70.984,18.4s-9.08,4.457-35.822-7.429"
                        transform="translate(0 54.676)" fill="#c0e2e2" />
                    <path d="M50.845,61.739S22.463,9.8,0,0C6.617,6.879,38.656,60.536,50.845,61.739"
                        transform="translate(20.469 10.68)" fill="#c0e2e2" />
                    <path
                        d="M12.546,128.292a2.5,2.5,0,0,1-2.374-1.718c-2.31-7.007-4.411-18.044-6.245-32.8C2.469,82.045,1.17,67.924.065,51.8-1.816,24.374-2.492.309-2.5.069A2.5,2.5,0,0,1-.069-2.5,2.5,2.5,0,0,1,2.5-.069c.007.239.681,24.217,2.555,51.544C6.153,67.5,7.444,81.53,8.889,93.162c1.794,14.435,3.823,25.15,6.031,31.848a2.5,2.5,0,0,1-2.375,3.283Z"
                        transform="translate(70.55 69.167)" fill="#c0e1e2" />
                </g>
                <g transform="translate(6.837 46.442)">
                    <path
                        d="M179.109,128.577s-65.162,12.231-76.157,6.786c16.886-8.832,57.83-16.025,70.528-10.357,4.335,2.071,5.629,3.572,5.629,3.572"
                        transform="translate(-102.952 -48.276)" fill="#c0e2e2" />
                    <path
                        d="M104.291,86.021s54.069,38.37,66.333,38.022C158.983,108.958,124.8,85.3,110.9,85.132c-4.8.066-6.607.889-6.607.889"
                        transform="translate(-95.622 -43.055)" fill="#c0e2e2" />
                    <path
                        d="M145.254,120.7S100.51,73.967,103.21,58.616c4.776-.52,43.743,51.623,43.762,60.983"
                        transform="translate(-70.937 -39.398)" fill="#c0e2e2" />
                    <path
                        d="M126.352,116.535s-27.145-55.243-22.02-80.211c1.883,9.747,28.3,69.128,22.02,80.211"
                        transform="translate(-51.793 -36.324)" fill="#c0e2e2" />
                    <path
                        d="M87.486,83.221s5.723-26,12.085-36.22c-28.01,33.187-27.232,71.122-27.232,71.122s9.229-5.048,15.147-34.9"
                        transform="translate(1.519 -36.766)" fill="#c0e2e2" />
                    <path
                        d="M105.757,212.4a2.5,2.5,0,0,1-2.48-2.206,379.75,379.75,0,0,0-7.509-43.423A209.237,209.237,0,0,0,87.4,139.4a104.981,104.981,0,0,0-6.666-14.2,33.765,33.765,0,0,0-2.725-4.159l.006.008,3.818-3.228c.188.223,4.674,5.616,10.221,19.754a214.2,214.2,0,0,1,8.579,28.03,384.743,384.743,0,0,1,7.612,44,2.5,2.5,0,0,1-2.188,2.777A2.531,2.531,0,0,1,105.757,212.4Z"
                        transform="translate(-9.219 -46.465)" fill="#c0e1e2" />
                </g>
                <g transform="translate(63.305 86.547)">
                    <path
                        d="M0,130.2s54.871,6.978,63.76,1.9c-14.5-6.524-48.952-10.5-59.248-5.152C1,128.889,0,130.2,0,130.2"
                        transform="translate(25.483 -62.163)" fill="#c0e2e2" />
                    <path
                        d="M64.267,91.126S21.126,125.745,10.9,126.06c8.952-13.137,36.253-34.527,47.824-35.348,4.005-.181,5.547.415,5.547.415"
                        transform="translate(15.582 -57.504)" fill="#c0e2e2" />
                    <path
                        d="M36.334,123.379S71.3,82.256,68.291,69.6c-4-.2-33.889,45.149-33.444,52.944"
                        transform="translate(-9.269 -54.598)" fill="#c0e2e2" />
                    <path
                        d="M85,93.516S78.95,72.143,73.148,63.946c24.963,26.259,26.183,57.891,26.183,57.891S91.4,118.088,85,93.516"
                        transform="translate(-73.148 -53.817)" fill="#c0e2e2" />
                    <path
                        d="M55.7,120.083S75.59,72.738,70.092,52.2C69,60.407,49.928,111.162,55.7,120.083"
                        transform="translate(-28.895 -52.197)" fill="#c0e2e2" />
                </g>
                <rect width="164.911" height="215.951" transform="translate(0)" fill="none" />
                <path
                    d="M-3130.236-1552.541a116.639,116.639,0,0,1-5.056-25.651,85.486,85.486,0,0,1,.568-18.893c1.51-10.216,4.529-15.653,4.656-15.879l3.484,1.966,0,0a27.438,27.438,0,0,0-1.588,3.745,57.688,57.688,0,0,0-2.634,11,81.8,81.8,0,0,0-.487,17.94,112.791,112.791,0,0,0,4.874,24.585Z"
                    transform="translate(3223.788 1754.038)" fill="#bfe2e2" />
            </g>
            <g transform="translate(338.758 230.062)">
                <g transform="translate(0 0)" clip-path="url(#a)">
                    <path
                        d="M0,44.27C0,58.329,7.438,69.832,16.529,69.832h27.29c9.091,0,16.529-11.5,16.529-25.562V0H0Z"
                        transform="translate(0 0)" fill="#c0e2e2" />
                </g>
            </g>
        </g>
        <g transform="translate(16 -5)">
            <path
                d="M4.278,159.575a12.447,12.447,0,1,1,12.447,12.447A12.447,12.447,0,0,1,4.278,159.575"
                transform="translate(197.214 137.489)" fill="#313e58" />
            <path d="M10.216,159.575a6.509,6.509,0,1,1,6.509,6.509,6.509,6.509,0,0,1-6.509-6.509"
                transform="translate(197.214 137.489)" fill="#acb1bc" />
            <path
                d="M137.746,159.575a12.447,12.447,0,1,1,12.447,12.447,12.447,12.447,0,0,1-12.447-12.447"
                transform="translate(197.214 137.489)" fill="#313e58" />
            <path d="M143.684,159.575a6.508,6.508,0,1,1,6.509,6.509,6.509,6.509,0,0,1-6.509-6.509"
                transform="translate(197.214 137.489)" fill="#acb1bc" />
            <path
                d="M19.788,143.107l-.383,7.468s-5.936,9.575-3.638,10.532,11.681-3.83,12.064-6.7.574-11.107.574-11.107"
                transform="translate(197.214 137.489)" fill="#7a8293" />
            <path
                d="M18.671,18.749a1.5,1.5,0,0,1-1.424-1.029h0a47.825,47.825,0,0,0-2.811-6.5C11.621,5.928,9.455,4.9,8.415,4.752A1.5,1.5,0,0,1,8.827,1.78a8.311,8.311,0,0,1,4.88,3A25.619,25.619,0,0,1,17.1,9.85,50.034,50.034,0,0,1,20.1,16.778a1.5,1.5,0,0,1-1.424,1.971Z"
                transform="translate(197.214 137.489)" fill="#7a8293" />
            <path
                d="M131.553,1.5H0A1.5,1.5,0,0,1-1.5,0,1.5,1.5,0,0,1,0-1.5H131.553a1.5,1.5,0,0,1,1.5,1.5A1.5,1.5,0,0,1,131.553,1.5Z"
                transform="translate(215.854 280.213)" fill="#7a8293" />
            <path
                d="M122.042,1.5H0A1.5,1.5,0,0,1-1.5,0,1.5,1.5,0,0,1,0-1.5H122.042a1.5,1.5,0,0,1,1.5,1.5A1.5,1.5,0,0,1,122.042,1.5Z"
                transform="translate(222.492 274.851)" fill="#7a8293" />
            <path
                d="M52.341,144.224a1.5,1.5,0,0,1-1.5-1.5V129.2l.3-.4c.133-.176,13.289-17.637,16.047-21.649.243-.354.625-1.009.451-1.426-.241-.578-1.418-1.1-2.3-1.3-2.471.427-19.138,3.3-22.064,3.543a4.775,4.775,0,0,0-3.42,2.062L29.339,130.308l.246,10.85a1.5,1.5,0,1,1-3,.068l-.264-11.618,10.921-21.063.024-.04a7.849,7.849,0,0,1,5.758-3.531c2.963-.248,21.89-3.525,22.081-3.558l.257-.044.257.045c.382.066,3.766.72,4.786,3.144a4.5,4.5,0,0,1-.744,4.291C67.07,112.622,55.881,127.5,53.841,130.2v12.519A1.5,1.5,0,0,1,52.341,144.224Z"
                transform="translate(197.214 137.489)" fill="#7a8293" />
            <path
                d="M36.511,106.179a1.5,1.5,0,0,1-1.445-1.1l-24-87.319a1.5,1.5,0,0,1,1.66-1.882l135.064,19.4a1.5,1.5,0,0,1,1.287,1.478l.255,56.17a1.5,1.5,0,0,1-1.343,1.5L36.669,106.171A1.51,1.51,0,0,1,36.511,106.179ZM14.565,19.17l23.056,83.883,108.7-11.469-.243-53.52Z"
                transform="translate(197.214 137.489)" fill="#7a8293" />
            <path
                d="M23.778,84.287A1.5,1.5,0,0,1,22.337,83.2L-1.442.414A1.5,1.5,0,0,1-.414-1.442,1.5,1.5,0,0,1,1.442-.414L25.221,82.373a1.5,1.5,0,0,1-1.442,1.914Z"
                transform="translate(222.173 157.338)" fill="#7a8293" />
            <path
                d="M22.914,81.8a1.5,1.5,0,0,1-1.442-1.089L-1.442.412A1.5,1.5,0,0,1-.412-1.442,1.5,1.5,0,0,1,1.442-.412l22.915,80.3A1.5,1.5,0,0,1,22.914,81.8Z"
                transform="translate(236.736 159.062)" fill="#7a8293" />
            <path
                d="M20.68,77.585a1.5,1.5,0,0,1-1.447-1.107L-1.447.393A1.5,1.5,0,0,1-.393-1.447,1.5,1.5,0,0,1,1.447-.393L22.128,75.692a1.5,1.5,0,0,1-1.448,1.894Z"
                transform="translate(252.05 161.487)" fill="#7a8293" />
            <path
                d="M20.339,75.032a1.5,1.5,0,0,1-1.445-1.1L-1.446.4A1.5,1.5,0,0,1-.4-1.446,1.5,1.5,0,0,1,1.446-.4l20.34,73.532a1.5,1.5,0,0,1-1.447,1.9Z"
                transform="translate(265.923 162.764)" fill="#7a8293" />
            <path
                d="M18.637,70.947a1.5,1.5,0,0,1-1.448-1.112L-1.449.389A1.5,1.5,0,0,1-.389-1.449,1.5,1.5,0,0,1,1.449-.389L20.087,69.058a1.5,1.5,0,0,1-1.45,1.889Z"
                transform="translate(280.929 165.062)" fill="#7a8293" />
            <path
                d="M12,65.5a1.5,1.5,0,0,1-1.473-1.224l-12-64a1.5,1.5,0,0,1,1.2-1.751,1.5,1.5,0,0,1,1.751,1.2l12,64A1.5,1.5,0,0,1,12,65.5Z"
                transform="translate(298.5 168.5)" fill="#7a8293" />
            <path
                d="M9.841,64.181a1.5,1.5,0,0,1-1.48-1.268L-1.482.233A1.5,1.5,0,0,1-.233-1.482,1.5,1.5,0,0,1,1.482-.233l9.843,62.681a1.5,1.5,0,0,1-1.484,1.733Z"
                transform="translate(313.356 170.041)" fill="#7a8293" />
            <path
                d="M5.245,60.848A1.5,1.5,0,0,1,3.753,59.48L-1.494.132A1.5,1.5,0,0,1-.132-1.494,1.5,1.5,0,0,1,1.494-.132L6.741,59.216a1.5,1.5,0,0,1-1.362,1.626C5.334,60.846,5.289,60.848,5.245,60.848Z"
                transform="translate(329.47 172.041)" fill="#7a8293" />
            <path
                d="M126.256,9.67q-.049,0-.1,0L-.1,1.5A1.5,1.5,0,0,1-1.5-.1,1.5,1.5,0,0,1,.1-1.5l126.255,8.17a1.5,1.5,0,0,1-.1,3Z"
                transform="translate(218.534 184.466)" fill="#7a8293" />
            <path
                d="M0,6.841A1.5,1.5,0,0,1-1.5,5.409,1.5,1.5,0,0,1-.068,3.843L117.7-1.5a1.5,1.5,0,0,1,1.566,1.43,1.5,1.5,0,0,1-1.43,1.566L.068,6.839Z"
                transform="translate(226.769 210.593)" fill="#7a8293" />
            <path
                d="M148.943,143.107l.383,7.468s5.936,9.575,3.638,10.532-11.681-3.83-12.064-6.7-.574-11.107-.574-11.107"
                transform="translate(197.214 137.489)" fill="#7a8293" />
            <path
                d="M12.5,19.163a1.5,1.5,0,0,1-1.424-1.029,33.938,33.938,0,0,0-2-4.612c-2-3.766-3.47-4.346-4.007-4.42A1.5,1.5,0,1,1,5.48,6.13,6.373,6.373,0,0,1,9.243,8.423a18.822,18.822,0,0,1,2.5,3.726,36.425,36.425,0,0,1,2.178,5.043A1.5,1.5,0,0,1,12.5,19.163Z"
                transform="translate(197.214 137.489)" fill="#7a8293" />
            <path
                d="M1872.527-930.632a4.48,4.48,0,0,1-3.425-5.33,4.481,4.481,0,0,1,4.873-3.5,4.477,4.477,0,0,1,4.333-1.436,4.48,4.48,0,0,1,3.424,5.33c-.493,2.264-6.937,5.038-8.248,5.038A4.49,4.49,0,0,1,1872.527-930.632Z"
                transform="translate(-1672.126 1077.275)" fill="#313e58" />
            <path
                d="M1873.485-930.028h0a5,5,0,0,1-1.064-.115,4.987,4.987,0,0,1-3.807-5.924,4.99,4.99,0,0,1,1.762-2.835,5,5,0,0,1,3.1-1.086q.148,0,.3.009a4.975,4.975,0,0,1,3.577-1.52,5.007,5.007,0,0,1,1.065.115,4.986,4.986,0,0,1,3.806,5.924c-.313,1.438-2.387,2.807-4.071,3.7A14.509,14.509,0,0,1,1873.485-930.028Zm-.009-8.96a3.994,3.994,0,0,0-2.477.869,3.987,3.987,0,0,0-1.408,2.265,3.985,3.985,0,0,0,3.042,4.735,4,4,0,0,0,.851.092,14.11,14.11,0,0,0,4.2-1.612c2.056-1.093,3.388-2.227,3.564-3.033a3.985,3.985,0,0,0-3.042-4.735,4.008,4.008,0,0,0-.852-.092,3.978,3.978,0,0,0-3,1.368l-.172.2-.261-.029A3.983,3.983,0,0,0,1873.476-938.988Z"
                transform="translate(-1672.126 1077.275)" fill="rgba(0,0,0,0)" />
        </g>
        <g transform="translate(118.533 31.548)">
            <path
                d="M20.044,41.281c7.291,0,9.943-8.729,14.085-13.519,2.964-3.427,8.022-2.405,9.519-7.2C47.414,8.492,37.337,0,24.191,0S2.181,7.448.267,18.644A19.593,19.593,0,0,0,20.044,41.281Z"
                transform="translate(0)" fill="#313e58" />
            <g transform="translate(15.578 11.484)">
                <path
                    d="M0,46.571,5.271,22C2.332,18.553.342,14.324.674,9.586,1.632-4.067,20.637-1.064,24.334,5.827s3.258,24.369-1.52,25.6c-1.906.491-5.965-.712-10.1-3.2l2.593,18.345Z"
                    transform="translate(0 0)" fill="#b28b67" />
            </g>
            <path
                d="M8.362,27.754h0c-.847,0-2.212-.815-3.562-2.127a16.688,16.688,0,0,1-3.736-5.547,13.282,13.282,0,0,1-.847-7.553A16.052,16.052,0,0,1,5.092,4.065,14.384,14.384,0,0,1,9.822.924,13.189,13.189,0,0,1,14.723,0,18.758,18.758,0,0,1,24.935,3.4c2.617,1.788,4.534,4,4.663,5.386a.985.985,0,0,1-.923,1.14c-3.09.58-8.995,3.49-13.527,7.355a4.015,4.015,0,0,0-1.871-.461,3.883,3.883,0,0,0-3.928,3.827,3.732,3.732,0,0,0,.787,2.3,12.263,12.263,0,0,0-1.774,4.8Z"
                transform="translate(12.156 7.418)" fill="#313e58" />
        </g>
        <g transform="translate(55.147 152.037)">
            <path d="M0,0,31.312,79.252l21,67h8.293L28.5,0Z" transform="translate(74.503)"
                fill="#997659" />
            <path
                d="M59.612,0c-.333,27.85-5.2,65.345-5.973,67.081S0,111.234,0,111.234l5.712,6.112S68.084,80.979,70.97,76.129,83.253,26.643,90.8,0Z"
                transform="translate(8.586)" fill="#b28b67" />
            <g transform="translate(10.101 105.884) rotate(50)">
                <path
                    d="M2.854,3a1.276,1.276,0,0,0-1.636.86L0,8.149a40.984,40.984,0,0,0,.575,5.036H36.557s1.4-4.637-1.619-5.007-5.021-.668-5.021-.668L13.193.055a.638.638,0,0,0-.85.34L11.268,3A14.459,14.459,0,0,1,6.722,4.308Z"
                    transform="translate(0 0)" fill="#313e58" />
            </g>
            <g transform="translate(122.351 139.288)">
                <path
                    d="M2.854,3.331a1.276,1.276,0,0,0-1.636.86L0,8.481a40.984,40.984,0,0,0,.575,5.036H36.557s1.4-4.637-1.619-5.007-5.021-.668-5.021-.668L13.193.387a.638.638,0,0,0-.85.34L11.268,3.335A14.459,14.459,0,0,1,6.722,4.64Z"
                    transform="translate(0 -0.332)" fill="#313e58" />
            </g>
            <path d="M25.108,139.352l39.429-4.279L35.315,0H0Z" transform="translate(70.449 0)"
                fill="#708daf" />
            <path
                d="M0,101.373l25.863,30.613s40.862-44.628,47.645-58.24S85.7,0,85.7,0H45.945s-2.956,52.9-3.986,55.366S0,101.373,0,101.373Z"
                transform="translate(16.742)" fill="#96b7df" />
        </g>
        <path
            d="M1.467,0,24.991,9.167a54.778,54.778,0,0,1,14.8,1.789c1.051.544,2.49,1.829-1.086,2.5s-7.308,1.534-7.471,2.859,2.34,2.186,1.8,4.06q-.545,1.875-11.4-5.613L0,11.906Z"
            transform="matrix(0.788, -0.616, 0.616, 0.788, 181.548, 87.82)" fill="#b28b67" />
        <path
            d="M1.467,0,24.991,9.167a54.778,54.778,0,0,1,14.8,1.789c1.051.544,2.49,1.829-1.086,2.5s-7.308,1.534-7.471,2.859,2.34,2.186,1.8,4.06q-.545,1.875-11.4-5.613L0,11.906Z"
            transform="translate(182.413 121.003) rotate(-1)" fill="#b28b67" />
        <path
            d="M8.607,0C24.659,17.091,44.237,28.244,70.939,38.136L65.01,49.993c-27.55-2.6-42.279-4.672-53.826-21.79C8.286,23.907,3.1,9.125,0,1.449Z"
            transform="translate(133.797 91.156) rotate(-1)" fill="#cc7a29" />
        <path
            d="M0,72.728H49.123S32.432,21.824,32.071,2.853c-.012-.645-1.2-1.781-1.73-1.632C24.562,2.853,17.973,0,17.973,0,6.327,18.73,2.3,41.79,0,72.728Z"
            transform="translate(117.979 85.424)" fill="#f2f2f2" />
        <path
            d="M.907,94.167C-3.253,66.21,7.681,27.447,17.816,7.9a3.455,3.455,0,0,1,3.152-2.154H28.58l.01.03c2.563.021,5.417.123,8.531.226,13.984.46,33.192.921,54.742-6l2.6,13C74.55,25.8,54.387,35.725,36.719,34.316c7.671,32.909,7.318,59.851-9.619,59.851Z"
            transform="translate(111.554 79.682)" fill="#e88a2d" />
    </g>
</svg>