<svg xmlns="http://www.w3.org/2000/svg" xmlns:xlink="http://www.w3.org/1999/xlink" width="400" height="320" viewBox="0 0 400 320">
    <defs>
        <clipPath>
            <rect width="400" height="320" />
        </clipPath>
    </defs>
    <g clip-path="url(#b)">
        <rect width="400" height="320" fill="transparent" />
        <path d="M0,0H77V23l-44.295.069L27.227,14.5H0Z" transform="translate(270 83.131)" fill="#bfe2e2" />
        <path d="M2,2V130.737H188V2H2M0,0H190V132.737H0Z" transform="translate(109 107.131)" fill="#5bb3b3" />
        <path d="M86.242,1H0A1,1,0,0,1-1,0,1,1,0,0,1,0-1H86.242a1,1,0,0,1,1,1A1,1,0,0,1,86.242,1Z" transform="translate(301.5 124.239)" fill="#5bb3b3" />
        <path d="M1.761,188.933a1,1,0,0,1-1-1V88.707a1,1,0,0,1,1-1h96.6a1,1,0,0,1,0,2H2.761v98.226A1,1,0,0,1,1.761,188.933Z" transform="translate(9 48.131)" fill="#5bb3b3" />
        <path d="M96.556,1H0A1,1,0,0,1-1,0,1,1,0,0,1,0-1H96.556a1,1,0,0,1,1,1A1,1,0,0,1,96.556,1Z" transform="translate(10.944 145.756)" fill="#5bb3b3" />
        <path d="M339.593,64.03h-82.4a1,1,0,1,1,0-2h80.67l-4.888-8.467H269.49a1,1,0,0,1,0-2h64.06a1,1,0,0,1,.866.5l6.043,10.467a1,1,0,0,1-.866,1.5Z" transform="translate(-36 45.131)" fill="#5bb3b3" />
        <path d="M183.845,64.03H101.787a1,1,0,0,1-.636-1.772l12.716-10.467a1,1,0,0,1,.636-.228h84.509a1,1,0,0,1,0,2h-84.15L104.575,62.03h79.27a1,1,0,0,1,0,2Z" transform="translate(2 45.131)" fill="#5bb3b3" />
        <path d="M383.469,60.805a1,1,0,0,1-1-1V2.379l-75.5,24.665V51.877a1,1,0,0,1-2,0V26.318a1,1,0,0,1,.689-.951L383.159.049A1,1,0,0,1,384.469,1V59.805A1,1,0,0,1,383.469,60.805Z" transform="translate(-36 45.131)" fill="#5bb3b3" />
        <path d="M0,25.509a1,1,0,0,1-1-1V0A1,1,0,0,1,0-1,1,1,0,0,1,1,0V24.509A1,1,0,0,1,0,25.509Z" transform="translate(209.016 162.444)" fill="#5bb3b3" />
        <path d="M0,25.509a1,1,0,0,1-1-1V0A1,1,0,0,1,0-1,1,1,0,0,1,1,0V24.509A1,1,0,0,1,0,25.509Z" transform="translate(209.016 124.104)" fill="#5bb3b3" />
        <path d="M0,25.509a1,1,0,0,1-1-1V0A1,1,0,0,1,0-1,1,1,0,0,1,1,0V24.509A1,1,0,0,1,0,25.509Z" transform="translate(198.364 124.104)" fill="#5bb3b3" />
        <g transform="translate(2 4)">
            <path d="M0,25.509a1,1,0,0,1-1-1V0A1,1,0,0,1,0-1,1,1,0,0,1,1,0V24.509A1,1,0,0,1,0,25.509Z" transform="translate(119.5 124.104)" fill="#5bb3b3" />
            <path d="M0,25.509a1,1,0,0,1-1-1V0A1,1,0,0,1,0-1,1,1,0,0,1,1,0V24.509A1,1,0,0,1,0,25.509Z" transform="translate(161.5 124.104)" fill="#5bb3b3" />
            <path d="M0,25.509a1,1,0,0,1-1-1V0A1,1,0,0,1,0-1,1,1,0,0,1,1,0V24.509A1,1,0,0,1,0,25.509Z" transform="translate(119.5 162.444)" fill="#5bb3b3" />
            <path d="M0,25.509a1,1,0,0,1-1-1V0A1,1,0,0,1,0-1,1,1,0,0,1,1,0V24.509A1,1,0,0,1,0,25.509Z" transform="translate(175.5 124.104)" fill="#5bb3b3" />
            <path d="M0,25.509a1,1,0,0,1-1-1V0A1,1,0,0,1,0-1,1,1,0,0,1,1,0V24.509A1,1,0,0,1,0,25.509Z" transform="translate(133.5 124.104)" fill="#5bb3b3" />
            <path d="M0,25.509a1,1,0,0,1-1-1V0A1,1,0,0,1,0-1,1,1,0,0,1,1,0V24.509A1,1,0,0,1,0,25.509Z" transform="translate(133.5 162.444)" fill="#5bb3b3" />
            <path d="M0,25.509a1,1,0,0,1-1-1V0A1,1,0,0,1,0-1,1,1,0,0,1,1,0V24.509A1,1,0,0,1,0,25.509Z" transform="translate(147.5 124.104)" fill="#5bb3b3" />
            <path d="M0,25.509a1,1,0,0,1-1-1V0A1,1,0,0,1,0-1,1,1,0,0,1,1,0V24.509A1,1,0,0,1,0,25.509Z" transform="translate(147.5 162.444)" fill="#5bb3b3" />
            <path d="M0,25.509a1,1,0,0,1-1-1V0A1,1,0,0,1,0-1,1,1,0,0,1,1,0V24.509A1,1,0,0,1,0,25.509Z" transform="translate(161.5 162.444)" fill="#5bb3b3" />
            <path d="M0,25.509a1,1,0,0,1-1-1V0A1,1,0,0,1,0-1,1,1,0,0,1,1,0V24.509A1,1,0,0,1,0,25.509Z" transform="translate(175.5 162.444)" fill="#5bb3b3" />
        </g>
        <path d="M0,25.509a1,1,0,0,1-1-1V0A1,1,0,0,1,0-1,1,1,0,0,1,1,0V24.509A1,1,0,0,1,0,25.509Z" transform="translate(230.924 128.104)" fill="#5bb3b3" />
        <path d="M0,25.509a1,1,0,0,1-1-1V0A1,1,0,0,1,0-1,1,1,0,0,1,1,0V24.509A1,1,0,0,1,0,25.509Z" transform="translate(217.623 128.104)" fill="#5bb3b3" />
        <path d="M0,25.509a1,1,0,0,1-1-1V0A1,1,0,0,1,0-1,1,1,0,0,1,1,0V24.509A1,1,0,0,1,0,25.509Z" transform="translate(272.924 128.104)" fill="#5bb3b3" />
        <path d="M0,25.509a1,1,0,0,1-1-1V0A1,1,0,0,1,0-1,1,1,0,0,1,1,0V24.509A1,1,0,0,1,0,25.509Z" transform="translate(230.924 166.444)" fill="#5bb3b3" />
        <path d="M0,25.509a1,1,0,0,1-1-1V0A1,1,0,0,1,0-1,1,1,0,0,1,1,0V24.509A1,1,0,0,1,0,25.509Z" transform="translate(217.623 166.444)" fill="#5bb3b3" />
        <path d="M0,25.509a1,1,0,0,1-1-1V0A1,1,0,0,1,0-1,1,1,0,0,1,1,0V24.509A1,1,0,0,1,0,25.509Z" transform="translate(286.924 128.104)" fill="#5bb3b3" />
        <path d="M0,25.509a1,1,0,0,1-1-1V0A1,1,0,0,1,0-1,1,1,0,0,1,1,0V24.509A1,1,0,0,1,0,25.509Z" transform="translate(244.924 128.104)" fill="#5bb3b3" />
        <path d="M0,25.509a1,1,0,0,1-1-1V0A1,1,0,0,1,0-1,1,1,0,0,1,1,0V24.509A1,1,0,0,1,0,25.509Z" transform="translate(244.924 166.444)" fill="#5bb3b3" />
        <path d="M0,25.509a1,1,0,0,1-1-1V0A1,1,0,0,1,0-1,1,1,0,0,1,1,0V24.509A1,1,0,0,1,0,25.509Z" transform="translate(258.924 128.104)" fill="#5bb3b3" />
        <path d="M0,25.509a1,1,0,0,1-1-1V0A1,1,0,0,1,0-1,1,1,0,0,1,1,0V24.509A1,1,0,0,1,0,25.509Z" transform="translate(258.924 166.444)" fill="#5bb3b3" />
        <path d="M0,25.509a1,1,0,0,1-1-1V0A1,1,0,0,1,0-1,1,1,0,0,1,1,0V24.509A1,1,0,0,1,0,25.509Z" transform="translate(272.924 166.444)" fill="#5bb3b3" />
        <path d="M0,25.509a1,1,0,0,1-1-1V0A1,1,0,0,1,0-1,1,1,0,0,1,1,0V24.509A1,1,0,0,1,0,25.509Z" transform="translate(286.924 166.444)" fill="#5bb3b3" />
        <path d="M63.41,1H0A1,1,0,0,1-1,0,1,1,0,0,1,0-1H63.41a1,1,0,0,1,1,1A1,1,0,0,1,63.41,1Z" transform="translate(310.322 145.5)" fill="#5bb3b3" />
        <path transform="translate(310.322 163.434)" fill="#5bb3b3" />
        <path d="M63.41,1H0A1,1,0,0,1-1,0,1,1,0,0,1,0-1H63.41a1,1,0,0,1,1,1A1,1,0,0,1,63.41,1Z" transform="translate(310.322 170.5)" fill="#5bb3b3" />
        <path d="M63.41,1H0A1,1,0,0,1-1,0,1,1,0,0,1,0-1H63.41a1,1,0,0,1,1,1A1,1,0,0,1,63.41,1Z" transform="translate(310.322 194.5)" fill="#5bb3b3" />
        <path d="M63.41,1H0A1,1,0,0,1-1,0,1,1,0,0,1,0-1H63.41a1,1,0,0,1,1,1A1,1,0,0,1,63.41,1Z" transform="translate(310.322 219.5)" fill="#5bb3b3" />
        <path d="M433.08,186.762a1,1,0,0,1-1-1V61.509l-84.446.311h0a1,1,0,0,1,0-2l85.45-.315a1,1,0,0,1,1,1V185.762A1,1,0,0,1,433.08,186.762Z" transform="translate(-45 45.131)" fill="#5bb3b3" />
        <path d="M142.476,1H0A1,1,0,0,1-1,0,1,1,0,0,1,0-1H142.476a1,1,0,0,1,1,1A1,1,0,0,1,142.476,1Z" transform="translate(255.025 238.868)" fill="#5bb3b3" />
        <path d="M142.476,1H0A1,1,0,0,1-1,0,1,1,0,0,1,0-1H142.476a1,1,0,0,1,1,1A1,1,0,0,1,142.476,1Z" transform="translate(3 238.868)" fill="#5bb3b3" />
        <path d="M59.41,16.659a19.372,19.372,0,1,1-7.564,1.527A19.31,19.31,0,0,1,59.41,16.659Zm0,36.862a17.43,17.43,0,1,0-12.325-5.105A17.317,17.317,0,0,0,59.41,53.521Z" transform="translate(-9.35 14.216)" fill="#5bb3b3" />
        <path d="M0,9.349a1,1,0,0,1-1-1V0A1,1,0,0,1,0-1,1,1,0,0,1,1,0V8.349A1,1,0,0,1,0,9.349Z" transform="translate(50.061 74.251)" fill="#5bb3b3" />
        <path d="M5.9,6.9A1,1,0,0,1,5.2,6.61l-5.9-5.9a1,1,0,0,1,0-1.414,1,1,0,0,1,1.414,0l5.9,5.9A1,1,0,0,1,5.9,6.9Z" transform="translate(66.672 67.37)" fill="#5bb3b3" />
        <path d="M8.349,1.029h0L0,1A1,1,0,0,1-1,0,1,1,0,0,1,0-1l8.349.029a1,1,0,0,1,0,2Z" transform="translate(73.553 50.84)" fill="#5bb3b3" />
        <path d="M0,8.727a1,1,0,0,1-.378-.075,1,1,0,0,1-.547-1.3L2.236-.379a1,1,0,0,1,1.3-.547,1,1,0,0,1,.547,1.3L.926,8.106A1,1,0,0,1,0,8.727Z" transform="translate(38 72.5)" fill="#5bb3b3" />
        <path d="M3.228,8.7a1,1,0,0,1-.923-.614L-.922.387A1,1,0,0,1-.387-.922,1,1,0,0,1,.922-.387l3.228,7.7A1,1,0,0,1,3.228,8.7Z" transform="translate(59.143 72.424)" fill="#5bb3b3" />
        <path d="M7.716,4.189a1,1,0,0,1-.382-.076L-.382.924A1,1,0,0,1-.924-.382,1,1,0,0,1,.382-.924L8.1,2.265a1,1,0,0,1-.382,1.924Z" transform="translate(71.771 59.731)" fill="#5bb3b3" />
        <path d="M0-1H12.919a1,1,0,0,1,1,1V38.758a1,1,0,0,1-1,1H0a1,1,0,0,1-1-1V0A1,1,0,0,1,0-1ZM11.919,1H1V37.758H11.919Z" transform="translate(54.5 161.421)" fill="#5bb3b3" />
        <path d="M0-1H12.919a1,1,0,0,1,1,1V38.758a1,1,0,0,1-1,1H0a1,1,0,0,1-1-1V0A1,1,0,0,1,0-1ZM11.919,1H1V37.758H11.919Z" transform="translate(86.5 161.421)" fill="#5bb3b3" />
        <path d="M77.325,1H0A1,1,0,0,1-1,0,1,1,0,0,1,0-1H77.325a1,1,0,0,1,1,1A1,1,0,0,1,77.325,1Z" transform="translate(269.973 83.365)" fill="#5bb3b3" />
        <path d="M0,24.232a1,1,0,0,1-1-1V0A1,1,0,0,1,0-1,1,1,0,0,1,1,0V23.232A1,1,0,0,1,0,24.232Z" transform="translate(337.772 54.242)" fill="#5bb3b3" />
        <path d="M0,18.825a1,1,0,0,1-1-1V0A1,1,0,0,1,0-1,1,1,0,0,1,1,0V17.825A1,1,0,0,1,0,18.825Z" transform="translate(326.335 59.648)" fill="#5bb3b3" />
        <path d="M0,15.149a1,1,0,0,1-1-1V0A1,1,0,0,1,0-1,1,1,0,0,1,1,0V14.149A1,1,0,0,1,0,15.149Z" transform="translate(314.897 63.325)" fill="#5bb3b3" />
        <path d="M0,12.259a1,1,0,0,1-1-1V0A1,1,0,0,1,0-1,1,1,0,0,1,1,0V11.259A1,1,0,0,1,0,12.259Z" transform="translate(303.459 66.215)" fill="#5bb3b3" />
        <path d="M0,8.543a1,1,0,0,1-1-1V0A1,1,0,0,1,0-1,1,1,0,0,1,1,0V7.543A1,1,0,0,1,0,8.543Z" transform="translate(292.021 69.931)" fill="#5bb3b3" />
        <path d="M0,5.446a1,1,0,0,1-1-1V0A1,1,0,0,1,0-1,1,1,0,0,1,1,0V4.446A1,1,0,0,1,0,5.446Z" transform="translate(280.584 73.027)" fill="#5bb3b3" />
        <path d="M0,9.349a1,1,0,0,1-1-1V0A1,1,0,0,1,0-1,1,1,0,0,1,1,0V8.349A1,1,0,0,1,0,9.349Z" transform="translate(50.061 18.917)" fill="#5bb3b3" />
        <path d="M5.9,6.9A1,1,0,0,1,5.2,6.61l-5.9-5.9a1,1,0,0,1,0-1.414,1,1,0,0,1,1.414,0l5.9,5.9A1,1,0,0,1,5.9,6.9Z" transform="translate(27.545 28.243)" fill="#5bb3b3" />
        <path d="M8.349,1.029h0L0,1A1,1,0,0,1-1,0,1,1,0,0,1,0-1l8.349.029a1,1,0,0,1,0,2Z" transform="translate(18.219 50.648)" fill="#5bb3b3" />
        <path d="M0,6.883a1,1,0,0,1-.71-.3,1,1,0,0,1,0-1.414L5.219-.71a1,1,0,0,1,1.414,0,1,1,0,0,1,0,1.414L.7,6.593A1,1,0,0,1,0,6.883Z" transform="translate(66.729 28.321)" fill="#5bb3b3" />
        <path d="M0,6.883a1,1,0,0,1-.71-.3,1,1,0,0,1,0-1.414L5.219-.71a1,1,0,0,1,1.414,0,1,1,0,0,1,0,1.414L.7,6.593A1,1,0,0,1,0,6.883Z" transform="translate(27.467 67.313)" fill="#5bb3b3" />
        <path d="M0,8.727a1,1,0,0,1-.378-.075,1,1,0,0,1-.547-1.3L2.236-.379a1,1,0,0,1,1.3-.547,1,1,0,0,1,.547,1.3L.926,8.106A1,1,0,0,1,0,8.727Z" transform="translate(58.958 21.289)" fill="#5bb3b3" />
        <path d="M3.228,8.7a1,1,0,0,1-.923-.614L-.922.387A1,1,0,0,1-.387-.922,1,1,0,0,1,.922-.387l3.228,7.7A1,1,0,0,1,3.228,8.7Z" transform="translate(37.75 21.393)" fill="#5bb3b3" />
        <path d="M7.716,4.189a1,1,0,0,1-.382-.076L-.382.924A1,1,0,0,1-.924-.382,1,1,0,0,1,.382-.924L8.1,2.265a1,1,0,0,1-.382,1.924Z" transform="translate(20.633 38.596)" fill="#5bb3b3" />
        <path d="M0,4.2a1,1,0,0,1-.924-.617,1,1,0,0,1,.54-1.307l7.711-3.2a1,1,0,0,1,1.307.54A1,1,0,0,1,8.094.924L.383,4.125A1,1,0,0,1,0,4.2Z" transform="translate(71.757 38.55)" fill="#5bb3b3" />
        <path d="M0,4.2a1,1,0,0,1-.924-.617,1,1,0,0,1,.54-1.307l7.711-3.2a1,1,0,0,1,1.307.54A1,1,0,0,1,8.094.924L.383,4.125A1,1,0,0,1,0,4.2Z" transform="translate(20.652 59.766)" fill="#5bb3b3" />
        <path d="M0-1H12.919a1,1,0,0,1,1,1V38.758a1,1,0,0,1-1,1H0a1,1,0,0,1-1-1V0A1,1,0,0,1,0-1ZM11.919,1H1V37.758H11.919Z" transform="translate(22.5 161.421)" fill="#5bb3b3" />
        <rect width="400" height="29" transform="translate(0 291)" fill="#bfe2e2" />
        <rect width="400" height="4" transform="translate(0 282)" fill="#bfe2e2" />
        <path d="M126.7,62.477H0c.777-1.759,1.567-3.785,2.4-5.929C6.113,47.032,10.73,35.19,18.816,35.19A11.95,11.95,0,0,1,25.234,37.4,25.519,25.519,0,0,1,34.29,24.717a21.005,21.005,0,0,1,6.122-2.983,23.3,23.3,0,0,1,6.707-.959c10.267,0,21,6.176,27.34,15.734a12.846,12.846,0,0,1,5.055-4.681,14.255,14.255,0,0,1,6.527-1.562A13.388,13.388,0,0,1,97.54,36.4a21.982,21.982,0,0,1,5.8-9.092,10.813,10.813,0,0,1,7.206-2.837c6.531,0,12.919,6.068,15.9,15.1.074-.246.163-.536.253-.816V62.476Z" transform="translate(273.302 201.691)" fill="#bfe2e2" />
        <path d="M126.7,62.977H-.767l.31-.7c.773-1.749,1.56-3.77,2.394-5.909C5.7,46.709,10.389,34.69,18.816,34.69a12.012,12.012,0,0,1,6.161,1.954A25.735,25.735,0,0,1,34,24.309a21.5,21.5,0,0,1,6.267-3.054,23.8,23.8,0,0,1,6.85-.98c10.2,0,20.853,6,27.332,15.332a13.374,13.374,0,0,1,4.833-4.224,14.757,14.757,0,0,1,6.757-1.618,13.963,13.963,0,0,1,11.38,5.568,21.686,21.686,0,0,1,5.6-8.4,11.3,11.3,0,0,1,7.533-2.959c6.565,0,12.97,5.875,16.117,14.7l.533.083V62.976Zm-125.936-1H126.2V40.42l-.228-.691c-2.91-8.827-9.107-14.757-15.422-14.757a10.327,10.327,0,0,0-6.878,2.715,21.5,21.5,0,0,0-5.662,8.889l-.355.949-.538-.859a12.891,12.891,0,0,0-11.077-5.9,13.753,13.753,0,0,0-6.3,1.506,12.345,12.345,0,0,0-4.858,4.5l-.41.668-.433-.653c-6.252-9.422-16.819-15.51-26.923-15.51a22.8,22.8,0,0,0-6.563.938,20.506,20.506,0,0,0-5.977,2.912,25.031,25.031,0,0,0-8.874,12.439l-.212.6-.531-.345a11.467,11.467,0,0,0-6.146-2.125c-7.744,0-12.292,11.666-15.947,21.04C2.139,58.6,1.445,60.381.762,61.977Z" transform="translate(273.302 201.691)" fill="rgba(0,0,0,0)" />
        <path d="M199.9,65.386H113.5V33.179c.119,0,.24,0,.36,0a14.258,14.258,0,0,1,6.527,1.562,12.846,12.846,0,0,1,5.055,4.681c6.341-9.558,17.073-15.733,27.339-15.733a23.308,23.308,0,0,1,6.707.959,21,21,0,0,1,6.122,2.983,25.518,25.518,0,0,1,9.056,12.68,11.95,11.95,0,0,1,6.418-2.206c8.085,0,12.7,11.841,16.412,21.355.837,2.145,1.627,4.172,2.4,5.931Z" transform="translate(-114 218)" fill="#bfe2e2" />
        <path d="M199.9,65.886H113V32.691l.488-.012c.124,0,.249,0,.372,0a14.76,14.76,0,0,1,6.757,1.618,13.375,13.375,0,0,1,4.833,4.224c6.479-9.337,17.128-15.332,27.332-15.332a23.808,23.808,0,0,1,6.851.98,21.5,21.5,0,0,1,6.267,3.054,25.735,25.735,0,0,1,9.024,12.336,12.011,12.011,0,0,1,6.16-1.954c8.427,0,13.113,12.017,16.878,21.673.835,2.141,1.623,4.162,2.4,5.911l.31.7Zm-85.9-1h85.138c-.683-1.6-1.378-3.378-2.107-5.249-3.655-9.374-8.2-21.038-15.947-21.038a11.466,11.466,0,0,0-6.145,2.125l-.531.345-.212-.6a25.03,25.03,0,0,0-8.874-12.439,20.5,20.5,0,0,0-5.977-2.912,22.809,22.809,0,0,0-6.563-.937c-10.1,0-20.671,6.088-26.922,15.51l-.433.653-.41-.668a12.346,12.346,0,0,0-4.859-4.5A13.743,13.743,0,0,0,114,33.675Z" transform="translate(-114 218)" fill="rgba(0,0,0,0)" />
        <g transform="translate(12.052 -6.728)">
            <g transform="translate(150.465 70.1)">
                <path d="M0,0,15.22,63.8H26.2L36.225,0Z" transform="translate(57.731 120.934) rotate(180)" fill="#e6b88e" />
                <path d="M-4282.195,5960.176s-15.487-5.941-9.345,5.706,12.66,12.087,12.66,12.087Z" transform="translate(4293.045 -5913.014)" fill="#e6b88e" />
                <path d="M-4289.666,5960.176s15.486-5.941,9.345,5.706-12.66,12.087-12.66,12.087Z" transform="translate(4352.483 -5913.014)" fill="#e6b88e" />
                <path d="M4436.19,748.686s7.628,45.02,32.95,44.3,30.154-47.787,30.154-47.787-8-38.475-31.677-38.624C4439.65,707.419,4436.19,748.686,4436.19,748.686Z" transform="translate(-4431.277 -703.949)" fill="#efc6a1" />
                <g transform="translate(12.466 47.266)">
                    <path d="M75.562,47.186s12.272-4.677,19.509.4C96.75,59.552,86.69,60.106,86.69,60.106S74.289,61.748,75.562,47.186Z" transform="translate(-46.18 -45.219)" fill="#d6a980" />
                    <path d="M86.322,43.72a16.438,16.438,0,0,1,9.61,2.634,1.5,1.5,0,0,1,.624,1.02c.609,4.342-.145,7.836-2.24,10.384A11.338,11.338,0,0,1,86.832,61.6a11.218,11.218,0,0,1-1.24.062,11.693,11.693,0,0,1-8.649-3.451c-2.333-2.545-3.3-6.3-2.875-11.155a1.5,1.5,0,0,1,.96-1.271A35.472,35.472,0,0,1,86.322,43.72Zm7.345,4.737a14.091,14.091,0,0,0-7.345-1.737,32.54,32.54,0,0,0-9.33,1.564c-.16,3.5.566,6.157,2.163,7.9a8.743,8.743,0,0,0,6.437,2.478,8.241,8.241,0,0,0,.9-.043,1.008,1.008,0,0,1,.109-.01,8.393,8.393,0,0,0,5.415-2.782C93.445,54.077,94,51.6,93.667,48.457Z" transform="translate(-46.18 -45.219)" fill="#cc7a29" />
                    <path d="M95.168,47.186s-12.272-4.677-19.508.4c-1.679,11.971,8.381,12.524,8.381,12.524S96.441,61.748,95.168,47.186Z" transform="translate(-75.471 -45.22)" fill="#d6a980" />
                    <path d="M84.408,43.72h0A35.474,35.474,0,0,1,95.7,45.784a1.5,1.5,0,0,1,.96,1.271c.425,4.856-.543,8.609-2.875,11.155a11.693,11.693,0,0,1-8.649,3.451A11.218,11.218,0,0,1,83.9,61.6a11.338,11.338,0,0,1-7.484-3.843c-2.1-2.548-2.849-6.042-2.24-10.384a1.5,1.5,0,0,1,.624-1.02A16.439,16.439,0,0,1,84.408,43.72Zm9.33,4.564a32.542,32.542,0,0,0-9.33-1.564,14.091,14.091,0,0,0-7.345,1.737c-.33,3.143.223,5.62,1.648,7.37a8.393,8.393,0,0,0,5.415,2.782,1.008,1.008,0,0,1,.109.01,8.241,8.241,0,0,0,.9.043,8.743,8.743,0,0,0,6.437-2.478C93.172,54.44,93.9,51.786,93.739,48.283Z" transform="translate(-75.471 -45.22)" fill="#cc7a29" />
                    <path d="M8.659,1.676H8.628L-.03,1.5A1.5,1.5,0,0,1-1.5-.03,1.5,1.5,0,0,1,.03-1.5l8.658.176a1.5,1.5,0,0,1-.03,3Z" transform="translate(19.789 1.826)" fill="#cc7a29" />
                </g>
                <path d="M2.243,47.042l4.348,4.212L6.407,46s-.831-12.969,12.4-15.059a24.356,24.356,0,0,0,24.234,3.988s-7.711-2.782-7.765-5.382c7.661-3.422,22.619,0,30.321,16.7-.067-.148-.029-.065.009.018a11.251,11.251,0,0,1,.458,3.533l4.928-6.5S73.685-3.067,32.339.161,1.087,46.19,1.087,46.19Z" transform="matrix(0.999, 0.035, -0.035, 0.999, 1.789, 0)" fill="#313e58" />
            </g>
            <path d="M3.754,1.638A92.7,92.7,0,0,0,23.143,3.562c11.279,0,18.063-1.924,18.063-1.924l3.91,157.475H0Z" transform="translate(166.761 170.886)" fill="#e88a2d" />
            <path d="M0,157.819H80.9S69.746,53.6,68.7,19.207L62.122.4S60.416-.2,56.3.268C54.245.5,2.9,114.267,0,157.819Z" transform="translate(108.592 172.141)" fill="#ffd964" />
            <path d="M81.453,158.319H-.534l.036-.533c.668-10.029,3.95-24.521,9.753-43.074C14.008,99.518,20.315,81.99,28,62.614,36.08,42.255,43.115,26.332,46.59,18.653c2.491-5.507,4.7-10.2,6.375-13.558.808-1.618,1.469-2.878,1.965-3.746.752-1.315,1-1.542,1.318-1.578a26.274,26.274,0,0,1,2.962-.183,10.148,10.148,0,0,1,3.081.342l.226.08,6.685,19.1,0,.077c.3,9.8,1.664,32.007,6.486,82.169,2.884,30,5.677,56.145,5.705,56.406Zm-80.916-1h79.8c-.419-3.936-2.994-28.264-5.647-55.862C69.881,51.4,68.507,29.151,68.2,19.3L61.737.816A11.536,11.536,0,0,0,59.208.588,25.02,25.02,0,0,0,56.49.75c-.642.738-3.612,6.372-9.512,19.472-3.486,7.742-10.525,23.739-18.5,43.9-7.574,19.154-13.78,36.465-18.448,51.451C4.464,133.454,1.27,147.494.537,157.319Z" transform="translate(108.592 172.141)" fill="rgba(0,0,0,0)" />
            <path d="M80.9,157.82H0S11.15,53.6,12.194,19.207L18.774.4S20.48-.2,24.594.268C26.651.5,78,114.268,80.9,157.82Z" transform="translate(189.192 172.141)" fill="#ffd964" />
            <path d="M81.431,158.32H-.556l.059-.553c.028-.261,2.821-26.4,5.705-56.406C10.03,51.2,11.4,28.989,11.694,19.191l0-.077.025-.073L18.382.011l.226-.08a10.148,10.148,0,0,1,3.081-.342,26.275,26.275,0,0,1,2.963.183c.312.035.565.262,1.317,1.578.5.867,1.157,2.128,1.965,3.746,1.679,3.363,3.883,8.051,6.375,13.558,3.474,7.679,10.509,23.6,18.587,43.962,7.687,19.376,14,36.9,18.748,52.1,5.8,18.553,9.085,33.045,9.753,43.074Zm-80.875-1h79.8c-.734-9.825-3.928-23.866-9.5-41.748-4.667-14.986-10.874-32.3-18.448-51.451-7.971-20.16-15.01-36.157-18.5-43.9-5.9-13.1-8.87-18.734-9.512-19.472A25.02,25.02,0,0,0,21.688.588a11.532,11.532,0,0,0-2.529.227L12.692,19.3c-.3,9.852-1.676,32.1-6.488,82.159C3.55,129.055.975,153.384.556,157.32Z" transform="translate(189.192 172.141)" fill="rgba(0,0,0,0)" />
            <path d="M59.61,0S34.041,64.016,29.232,70.12C26.88,73.1,12.568,80.645,2.9,84.637c-3.88,1.6-3.11,4.872-2,5.933,9.04,8.631,17.5,2.5,27.4.221,10.842-2.493,7.254,10.291,15.819,8.454-1.257-5.893-4.744-17.1-.692-23.114,2.7-4.008,40.127-70.942,40.127-70.942Z" transform="matrix(0.978, -0.208, 0.208, 0.978, 44.372, 293.599)" fill="#efc6a1" />
            <path d="M59.61,99.426S34.041,35.41,29.232,29.306C26.88,26.323,12.568,18.781,2.9,14.789c-3.88-1.6-3.11-4.872-2-5.933,9.04-8.631,17.5-2.5,27.4-.221C39.144,11.128,35.555-1.656,44.12.181c-1.257,5.893-4.744,17.1-.692,23.114,2.7,4.008,40.127,70.942,40.127,70.942Z" transform="matrix(-0.978, -0.208, 0.208, -0.978, 314.426, 390.852)" fill="#efc6a1" />
            <path d="M13.483,0s.307,69.332,13.483,91.448H0Z" transform="translate(119.905 238.975)" fill="rgba(0,0,0,0.1)" />
            <path d="M13.483,0S13.175,69.332,0,91.448H26.965Z" transform="translate(231.81 238.975)" fill="rgba(0,0,0,0.1)" />
            <path d="M77.815.285S71.643.8,65.049,6.79C50.6,23.39,8.175,80.138,0,172.364H44C37.163,78.577,79.724,6.79,79.724,6.79Z" transform="translate(87.077 172.128)" fill="#ffd964" />
            <path d="M1.908.285S8.081.8,14.674,6.79c14.447,16.6,56.875,73.349,65.05,165.575h-44C42.561,78.577,0,6.79,0,6.79Z" transform="translate(211.879 172.128)" fill="#ffd964" />
        </g>
    </g>
</svg>