<svg xmlns="http://www.w3.org/2000/svg" xmlns:xlink="http://www.w3.org/1999/xlink" width="400" height="320" viewBox="0 0 400 320"><defs><clipPath id="b"><rect width="400" height="320"/></clipPath></defs><g id="a" clip-path="url(#b)"><path d="M103.945,1H0A1,1,0,0,1-1,0,1,1,0,0,1,0-1H103.945a1,1,0,0,1,1,1A1,1,0,0,1,103.945,1Z" transform="translate(-18.85 120.837)" fill="#5bb3b3"/><path d="M75.969,103.37H59.706a1,1,0,0,1-1-1v-76.7a1,1,0,0,1,.652-.937,27.2,27.2,0,0,1,8.456-1.51,27.685,27.685,0,0,1,8.5,1.509,1,1,0,0,1,.656.939v76.7A1,1,0,0,1,75.969,103.37Zm-15.263-2H74.969V26.391a25.719,25.719,0,0,0-7.155-1.171,25.288,25.288,0,0,0-7.108,1.169Z" transform="translate(-33.486 13.332)" fill="#5bb3b3"/><path d="M56.2,99.666H43.069a1,1,0,0,1-1-1V38.952a1,1,0,0,1,.663-.941,22.86,22.86,0,0,1,6.883-1.186,23.26,23.26,0,0,1,6.917,1.184,1,1,0,0,1,.666.943V98.666A1,1,0,0,1,56.2,99.666Zm-12.129-2H55.2V39.687a21.162,21.162,0,0,0-5.583-.862,20.735,20.735,0,0,0-5.546.859Z" transform="translate(-37.213 17.036)" fill="#5bb3b3"/><path d="M9.224,1H0A1,1,0,0,1-1,0,1,1,0,0,1,0-1H9.224a1,1,0,0,1,1,1A1,1,0,0,1,9.224,1Z" transform="translate(29.477 54.677)" fill="#5bb3b3"/><path d="M9.224,1H0A1,1,0,0,1-1,0,1,1,0,0,1,0-1H9.224a1,1,0,0,1,1,1A1,1,0,0,1,9.224,1Z" transform="translate(29.477 58.86)" fill="#5bb3b3"/><path d="M0,24.879a1,1,0,0,1-1-1V0A1,1,0,0,1,0-1,1,1,0,0,1,1,0V23.879A1,1,0,0,1,0,24.879Z" transform="translate(12.314 81.02)" fill="#5bb3b3"/><path d="M95.946,103.37H79.683a1,1,0,0,1-1-1v-76.7a1,1,0,0,1,.652-.937,27.2,27.2,0,0,1,8.456-1.51,27.685,27.685,0,0,1,8.5,1.509,1,1,0,0,1,.656.939v76.7A1,1,0,0,1,95.946,103.37Zm-15.263-2H94.946V26.391a25.719,25.719,0,0,0-7.155-1.171,25.288,25.288,0,0,0-7.108,1.169Z" transform="translate(-30.614 13.332)" fill="#5bb3b3"/><path d="M9.224,1H0A1,1,0,0,1-1,0,1,1,0,0,1,0-1H9.224a1,1,0,0,1,1,1A1,1,0,0,1,9.224,1Z" transform="translate(52.512 54.677)" fill="#5bb3b3"/><path d="M9.224,1H0A1,1,0,0,1-1,0,1,1,0,0,1,0-1H9.224a1,1,0,0,1,1,1A1,1,0,0,1,9.224,1Z" transform="translate(52.512 58.86)" fill="#5bb3b3"/><rect width="224" height="153" rx="2" transform="translate(99 26)" fill="#313e58"/><path d="M8,8V145H216V8H8M2,0H222a2,2,0,0,1,2,2V151a2,2,0,0,1-2,2H2a2,2,0,0,1-2-2V2A2,2,0,0,1,2,0Z" transform="translate(99 26)" fill="#f1b981"/><path d="M2960.411,109.4h-11.343a13.076,13.076,0,0,0,.227-1.635,24.807,24.807,0,0,0-.934-6.47,184.023,184.023,0,0,0-8.063-28.116,93.661,93.661,0,0,0-7.416-14.992c-1.087-1.757-2.241-3.471-3.4-5.184-1.343-1.995-2.691-3.995-4.159-5.9a21.2,21.2,0,0,1-3.385,1.866,13.928,13.928,0,0,1-.4-2.3,5.469,5.469,0,0,0-.68-2.853c-.813-1.1-2.378-1.237-3.746-1.277-2.044-.059-4.327-.031-5.8,1.385a.674.674,0,0,0-.262.483.641.641,0,0,0,.216.394c1.1,1.141,2.947,1.122,4.279,1.984a7.384,7.384,0,0,1,2.2,2.773l.485.868c-3.579,1.249-7.738,2.372-12.016,3.677a5.888,5.888,0,0,0-1.492-3.254,4,4,0,0,0-4.575-.641,10.006,10.006,0,0,1,3.628,3.008,6.519,6.519,0,0,1,.646,1.444c-9.049,2.869-18.286,6.754-23.238,14.6-5.564-16.162,4.707-40.307,20.753-48.09s11.554,13.968,11.554,13.968c13.695-4.189,17.973-4.589,15.405,7.183a6.994,6.994,0,0,1-2.016,3.512,18.945,18.945,0,0,1,3.26,4.21,231.569,231.569,0,0,1,16.214,30.944,31.833,31.833,0,0,0,3.583,7.026c.47.623.992,1.209,1.491,1.81l-.076-16.092a163.853,163.853,0,0,0-8.1-27.419c-5.848-14.549-14.352-28.106-19.971-42.649q-.815.176-1.657.329a21.289,21.289,0,0,0-.266-5.717q-.713-2.189-1.318-4.415a20.023,20.023,0,0,0-1.645-3.1,41.385,41.385,0,0,0-4-4.957q-1.935-2.161-3.871-4.324c-.972-1.087-2.064-2.241-3.505-2.461-1.511-.23-3.214,1.026-3.047,2.545a4.282,4.282,0,0,0,1.123,2.088,74.716,74.716,0,0,1,6.793,10.046,11.024,11.024,0,0,1,1.786,5.175,14.853,14.853,0,0,1-.865,4.119c-.18.635-.331,1.278-.467,1.923a89.484,89.484,0,0,1-17.709-1.412,54.886,54.886,0,0,0,2.854-7.86,22.679,22.679,0,0,0,.436-10.846,1.692,1.692,0,0,0-.332-.773,1.787,1.787,0,0,0-.985-.443l-2.357-.519A79.648,79.648,0,0,1,2890.09,2.6a140.187,140.187,0,0,1-19.88-5.955c1-1.768,2.133-3.481,2.968-5.33a18.486,18.486,0,0,0,1.6-6.4c.07-1.076-.073-2.366-1.022-2.876a2.107,2.107,0,0,0-2.274.4,6.438,6.438,0,0,0-1.392,2,63.279,63.279,0,0,1-6.142,9.68,194.415,194.415,0,0,1-18.207-8.91c-10.557-4.434-10.557,4.646-10.557,4.646s-3.38-12.247,19.214-19.848c1.75-.589,5.389-1.475,10.081-2.444a55.01,55.01,0,0,1,9.125,2.057c3.817,1.229,7.566,2.956,11.574,3.1.419-1.813-1.772-3.04-3.558-3.56q-5.618-1.635-11.374-2.731c4.347-.811,9.178-1.623,14.057-2.326a62.414,62.414,0,0,1,10.605,3.344,25.8,25.8,0,0,0,5.111,1.813,6.818,6.818,0,0,0,5.212-.885,47.257,47.257,0,0,0-7.444-5.866c10.758-.933,19.512-.68,20.587,2.216,1.479,2.745-1.634,5.7-1.634,5.7s33.305-4.646,27.815,16.468a18.98,18.98,0,0,1-4.707,8.34,40.308,40.308,0,0,0-3.039-7.519,12.574,12.574,0,0,0-3.775-4.734,14.864,14.864,0,0,0-4.4-1.77l-10.881-3.069c-1.123-.317-2.613-.5-3.193.515-.6,1.054.416,2.288,1.394,3.005a22.859,22.859,0,0,0,6.767,3.39c2.431.745,5.019,1.094,7.247,2.321a13.764,13.764,0,0,1,5.952,7.586,24.186,24.186,0,0,1,.839,2.985,33.1,33.1,0,0,1-10.7,5.018q11.036,24.565,21.173,49.518c1.39,3.422,2.771,6.862,4.073,10.329q-.054-11.343-.108-22.687c-.059-12.663-.119-25.36,1.276-37.947q.6-5.371,1.542-10.7a30.757,30.757,0,0,0-3.365,2.184,48.078,48.078,0,0,1-.551-5.234c-.851-16.51,1.331-26.791,5.276-32.273-.626-1.442-1.354-3.065-2.066-4.745a3.437,3.437,0,0,1-1.813,2.1c-2.74,1.6-11.6,1.481-21.917-.4.634-2.5,1.944-4.886,2.733-7.379a2.841,2.841,0,0,0,.132-1.8,2.166,2.166,0,0,0-.966-1.067,4.8,4.8,0,0,0-4.026-.227,11.337,11.337,0,0,0-3.489,2.23,3.209,3.209,0,0,0-1.038,1.286,3.361,3.361,0,0,0,.271,2.207c.455,1.244.922,2.483,1.385,3.723a100.224,100.224,0,0,1-16.508-5.243c.043-6.44,2.663-11.567,14.938-15.516.36-.115.519-.587.545-.956.041-.581-.513-1.03-1.039-1.323a12.13,12.13,0,0,0-9.162-.707,23.376,23.376,0,0,0-8.073,4.589,32.284,32.284,0,0,0-7.451,8.448c-4.774-3.257-8.408-7.123-9.991-11.611-.031-.086-.061-.164-.091-.25a15.558,15.558,0,0,1,3.283-1.745c3.595-1.316,14.958-5.89,18.557-4.589-.13-1.445-1.994-5.962-11.473-3.281a42.462,42.462,0,0,0-11.943,5.45c-6.277-15.557-10.5-13.543-10.5-13.543s13.276-7.987,41.646-6.668a5.143,5.143,0,0,0-.791,1.153c-.5,1.024-1.136,5.052.333,5.594,1.647.609,2.081-3.052,2.3-4.1a5.177,5.177,0,0,1,.893-2.386c.032-.037.077-.059.112-.094,3.451.229,7.1.587,10.975,1.117.118.016.23.036.348.052a10.232,10.232,0,0,0-1.163,2.685,24.9,24.9,0,0,0-.411,6.463c-.025,2.046-.786,2.754-1.643,4.6,1.219-2.151,3.854-2.942,6.15-3.857a1.136,1.136,0,0,0,.651-.475,1.15,1.15,0,0,0,.071-.54,21.678,21.678,0,0,1,.785-7.51,1.5,1.5,0,0,1,.352-.612c34.394,5.944,50.623,21.7,42.549,30.723-2.76,3.085-7.5,7.095-23.257,5.471a56.458,56.458,0,0,1,3.517,9.221,11.084,11.084,0,0,1,7.569-1.324c3.5.539,9.778.8,11.573,8.181,0,0,5.787-33.322,24.144-32.524,10.669.464,24.432,12.791,27.2,37.6a27.9,27.9,0,0,0-22.816-.416,5.4,5.4,0,0,0-2.5,1.842,2.132,2.132,0,0,0,.353,2.83c1.14.775,2.6-.166,3.875-.7,3.544-1.5,7.541.348,10.938,2.161q4.059,2.168,8.122,4.334c.826.441,1.671.912,2.5,1.418A117.428,117.428,0,0,1,3026.8.068c-3.521-5.081-8.682-9.347-14.784-9.7-2.332-.135-5.038.572-6.009,2.7-.833,1.822-.024,4.048,1.379,5.477a17.145,17.145,0,0,0,5.1,3.111,43.9,43.9,0,0,1,11.8,7.748,205.682,205.682,0,0,1-11.135,28.522c-5.188-6.386-16.761-4.39-16.761-4.39a61.793,61.793,0,0,1-8.819-2.167,45.539,45.539,0,0,1-1.856-22.945,90.326,90.326,0,0,1,4.36-14.574,28.333,28.333,0,0,0-12.6,24.754,46.557,46.557,0,0,0,1.76,9.575,58.589,58.589,0,0,1-14.684-9.384c-.5,23.881-1.921,47.739-3.587,71.578a71.815,71.815,0,0,1,1.562,7.952c1.213-3.883,2.677-7.6,3.62-10.208a101.221,101.221,0,0,1,10.7-21.349c.224-.339.951-1.344,1.974-2.715a16.984,16.984,0,0,1-5.214-13.009,6.562,6.562,0,0,1,4.391-.779c.741.164,1.429.5,2.15.733a8.076,8.076,0,0,0,2.482.4,3.251,3.251,0,0,0,1.622-.339,1.5,1.5,0,0,0,.809-1.363c-.086-.977-1.257-1.4-2.219-1.588a18.027,18.027,0,0,0-5.69-.406,8.2,8.2,0,0,0-3.216,1.1,10.857,10.857,0,0,1,5.287-7.083c10.177-5.787,15.764,0,15.764,0l1.6-.6s18.957,4.99,18.758,15.764-19.756,10.775-18.358,18.557-1-4.989-12.172-7.982a13.536,13.536,0,0,1-3.892-1.745c-6.758,10.135-11.59,21.775-15.586,33.467a6.069,6.069,0,0,0-.478,2.721c.241,1.81,1.326,4.755,1.559,7.5Zm-5.963-51.833c.394,4.184.934,8.357,1.656,12.5q.74-10.079,1.694-20.139c1.1-11.558,2.407-23.132,3.145-34.716a42.413,42.413,0,0,1-4.926-6.645A205,205,0,0,0,2954.448,57.566Zm2.493-54.8a31.971,31.971,0,0,1,4.578-5.753q-.025-3.8-.2-7.6-.022-.477-.048-.954-.794.239-1.578.508Q2958.136-4.166,2956.941,2.771Zm7.752-8.509a28.116,28.116,0,0,1,9.322-4.666c3.381-.948,7.09-1.373,9.8-3.608a8.113,8.113,0,0,0-4.456-.425,112.6,112.6,0,0,0-14.86,2.051Q2964.638-9.065,2964.693-5.738ZM2951.817-52.31a33.614,33.614,0,0,1-1.469-4.951c-2.283-.359-4.755-.819-7.435-1.392C2942.913-58.653,2948.905-55.619,2951.817-52.31Z" transform="translate(-2943.523 189.102)" fill="#bfe2e2"/><path d="M2966.963,109.9h-18.492l.114-.636a12.207,12.207,0,0,0,.211-1.523,20.519,20.519,0,0,0-.734-5.491q-.1-.423-.19-.848a185.023,185.023,0,0,0-8.04-28.04,93.6,93.6,0,0,0-7.376-14.912c-1.117-1.8-2.322-3.591-3.386-5.167-1.228-1.824-2.5-3.706-3.856-5.5a22.644,22.644,0,0,1-3.069,1.644l-.541.244-.149-.574a14.455,14.455,0,0,1-.413-2.388c-.011-.126-.021-.255-.031-.384a4.225,4.225,0,0,0-.553-2.214c-.682-.922-2.091-1.038-3.358-1.075-.386-.011-.682-.016-.958-.016-1.567,0-3.324.15-4.484,1.262a.828.828,0,0,0-.093.1.779.779,0,0,0,.058.066,4.962,4.962,0,0,0,2.177,1.074,8.028,8.028,0,0,1,2.015.839,7.9,7.9,0,0,1,2.366,2.949l.294.525.482.862-.562.2c-2.4.839-5.046,1.615-7.842,2.436-1.366.4-2.778.816-4.193,1.248l-.539.164-.1-.554a5.3,5.3,0,0,0-1.35-2.986,3.455,3.455,0,0,0-2.41-.945,3.5,3.5,0,0,0-.655.061,8.626,8.626,0,0,1,2.891,2.628,6.918,6.918,0,0,1,.7,1.554l.156.479-.481.152a66.6,66.6,0,0,0-13.059,5.391,27.13,27.13,0,0,0-9.907,9l-.556.881-.339-.985a32.072,32.072,0,0,1-1.386-13.447,47.324,47.324,0,0,1,3.672-14.1,48.49,48.49,0,0,1,7.768-12.508,34.664,34.664,0,0,1,10.954-8.647,14.723,14.723,0,0,1,6.192-1.732,5.6,5.6,0,0,1,4.569,2.062c1.482,1.819,2.182,4.771,2.081,8.773a34.932,34.932,0,0,1-.434,4.6c5.154-1.561,8.674-2.459,11.182-2.459a4.558,4.558,0,0,1,3.8,1.438,5.524,5.524,0,0,1,.994,3.463,25.147,25.147,0,0,1-.716,5.564,7.25,7.25,0,0,1-1.8,3.388,20.879,20.879,0,0,1,2.978,3.968,229.763,229.763,0,0,1,16.249,31.011l.238.57a28.857,28.857,0,0,0,3.283,6.349c.186.247.384.492.585.733l-.069-14.661a162.658,162.658,0,0,0-8.06-27.286c-2.815-7-6.307-13.894-9.684-20.558-3.562-7.028-7.242-14.291-10.135-21.7-.414.086-.835.167-1.256.244l-.646.117.058-.653a20.759,20.759,0,0,0-.254-5.55c-.48-1.474-.919-2.945-1.306-4.374a19.58,19.58,0,0,0-1.59-2.994,41.083,41.083,0,0,0-3.953-4.9l-.942-1.053q-1.464-1.635-2.929-3.271c-.988-1.105-1.977-2.112-3.208-2.3a1.939,1.939,0,0,0-.291-.022,2.415,2.415,0,0,0-1.745.789,1.583,1.583,0,0,0-.439,1.229,3.9,3.9,0,0,0,1.016,1.829,75.4,75.4,0,0,1,6.839,10.114,11.546,11.546,0,0,1,1.851,5.417,12.274,12.274,0,0,1-.687,3.588c-.066.221-.134.449-.2.672-.16.565-.31,1.183-.459,1.889l-.081.386-.394.011c-.664.018-1.344.027-2.021.027a92.52,92.52,0,0,1-15.788-1.446l-.625-.109.252-.582a55.025,55.025,0,0,0,2.829-7.788,22.058,22.058,0,0,0,.432-10.605,1.314,1.314,0,0,0-.217-.552,1.412,1.412,0,0,0-.72-.289l-1.8-.4a80.111,80.111,0,0,1-4.141,19.1l-.146.418-.432-.093a141.116,141.116,0,0,1-19.951-5.976l-.545-.206.287-.508c.308-.545.633-1.092.947-1.621a37.828,37.828,0,0,0,2-3.669,17.876,17.876,0,0,0,1.552-6.223c.058-.879-.028-2.01-.76-2.4a1.108,1.108,0,0,0-.529-.125,1.908,1.908,0,0,0-1.185.469,5.969,5.969,0,0,0-1.254,1.816l-.019.036a63.347,63.347,0,0,1-6.191,9.757l-.237.3-.352-.15a195.839,195.839,0,0,1-18.23-8.92,12.978,12.978,0,0,0-4.857-1.17,4.419,4.419,0,0,0-4.344,2.645,7.235,7.235,0,0,0-.638,2.721l-.982.133a11.167,11.167,0,0,1,1.168-7.428,19.458,19.458,0,0,1,5.688-6.64,43.244,43.244,0,0,1,12.681-6.386c1.781-.6,5.477-1.5,10.139-2.46l.085-.018.086.012a55.132,55.132,0,0,1,9.208,2.076c.914.294,1.836.621,2.727.937a31.648,31.648,0,0,0,8.241,2.117c-.078-1.2-1.729-2.114-3.245-2.556-3.641-1.059-7.452-1.974-11.329-2.72l0-.983c4.634-.864,9.5-1.67,14.078-2.329l.09-.013.089.02a63.071,63.071,0,0,1,10.69,3.371c.246.1.492.208.738.312a21.075,21.075,0,0,0,4.272,1.47,8.39,8.39,0,0,0,1.542.147,5.931,5.931,0,0,0,2.749-.616,44.272,44.272,0,0,0-6.869-5.36l-1.342-.794,1.553-.135c3.717-.322,7-.486,9.769-.486a35.239,35.239,0,0,1,7.5.632c2.142.491,3.391,1.263,3.817,2.36a4.432,4.432,0,0,1-.28,4.328,8.406,8.406,0,0,1-.6.942c1.3-.128,3.5-.295,6.068-.295,6.669,0,15.464,1.094,19.493,6.3,2.21,2.859,2.726,6.635,1.533,11.223a19.472,19.472,0,0,1-4.828,8.558l-.6.632-.244-.836a39.867,39.867,0,0,0-3-7.425,12.165,12.165,0,0,0-3.614-4.554,14.468,14.468,0,0,0-4.258-1.7l-5.383-1.518-5.5-1.551a5.384,5.384,0,0,0-1.427-.23c-.9,0-1.124.386-1.2.513-.456.8.575,1.854,1.256,2.353a22.253,22.253,0,0,0,6.618,3.316c.742.227,1.518.422,2.268.61a20.869,20.869,0,0,1,5.073,1.751,14.225,14.225,0,0,1,6.181,7.856,24.615,24.615,0,0,1,.856,3.047l.07.317-.262.193a33.218,33.218,0,0,1-10.3,4.936c7.24,16.132,14.286,32.618,20.945,49.009,1.011,2.488,2.069,5.114,3.1,7.77l-.024-5.1q-.035-7.416-.071-14.832c-.058-12.481-.119-25.387,1.28-38,.357-3.218.815-6.464,1.362-9.666-.828.5-1.628,1.042-2.388,1.61l-.661.494-.132-.814a48.757,48.757,0,0,1-.556-5.288,93.116,93.116,0,0,1,.846-20.384c.886-5.057,2.352-9.083,4.358-11.974-.181-.414-.368-.84-.564-1.287-.313-.712-.633-1.44-.956-2.187a4.944,4.944,0,0,1-1.537,1.318c-.923.538-2.978,1.18-7.528,1.18a86.089,86.089,0,0,1-14.73-1.52l-.526-.1.131-.519a30.846,30.846,0,0,1,1.52-4.216c.434-1.042.882-2.12,1.222-3.191a2.435,2.435,0,0,0,.139-1.48,1.712,1.712,0,0,0-.753-.809,3.679,3.679,0,0,0-1.894-.488,5.16,5.16,0,0,0-1.707.3,10.857,10.857,0,0,0-3.331,2.138,2.785,2.785,0,0,0-.892,1.072,2.968,2.968,0,0,0,.269,1.87c.358.979.73,1.973,1.09,2.934l.619,1.656-.905-.208a101.175,101.175,0,0,1-16.591-5.27l-.307-.13,0-.333a16.4,16.4,0,0,1,.648-4.729,11.847,11.847,0,0,1,2.353-4.284c2.383-2.8,6.4-5.083,12.284-6.976a.7.7,0,0,0,.2-.515c.018-.253-.268-.563-.784-.851a10.325,10.325,0,0,0-5.011-1.212,13.46,13.46,0,0,0-3.767.548,22.549,22.549,0,0,0-7.9,4.5,31.912,31.912,0,0,0-7.336,8.314l-.271.462-.442-.3c-5.241-3.576-8.667-7.565-10.18-11.858-.012-.034-.024-.067-.037-.1-.019-.05-.037-.1-.055-.153l-.125-.363.318-.215a15.9,15.9,0,0,1,3.391-1.8c.368-.135.817-.3,1.337-.5,4.047-1.521,11.58-4.351,15.75-4.351a7.118,7.118,0,0,1,.97.06,3.875,3.875,0,0,0-.963-1.448,6.429,6.429,0,0,0-4.6-1.5,19.11,19.11,0,0,0-5.1.815,42.127,42.127,0,0,0-11.808,5.389l-.508.328-.226-.561c-4.985-12.355-8.55-13.315-9.523-13.315a.95.95,0,0,0-.317.043l.014-.006-.473-.88a40.451,40.451,0,0,1,8.794-3.459,81.088,81.088,0,0,1,11.115-2.358,111.49,111.49,0,0,1,15.767-1.07c2.041,0,4.144.05,6.25.147l1.043.048-.692.782a4.642,4.642,0,0,0-.716,1.04,7.853,7.853,0,0,0-.317,4.456.732.732,0,0,0,.373.451.531.531,0,0,0,.182.037c.369,0,.671-.658.819-1.051a13.786,13.786,0,0,0,.55-2.24c.035-.19.065-.354.093-.486.014-.065.027-.13.041-.2a5.176,5.176,0,0,1,.962-2.413.861.861,0,0,1,.139-.125l0,0,.149-.153.23.015c3.629.24,7.333.617,11.01,1.12l.184.027.165.025.761.1-.4.653a9.663,9.663,0,0,0-1.106,2.553,17.123,17.123,0,0,0-.4,4.831c.006.49.012,1,.005,1.507a6.1,6.1,0,0,1-.373,2.139,19.768,19.768,0,0,1,3.377-1.549c.271-.1.55-.212.818-.319.1-.041.342-.138.386-.228a.9.9,0,0,0,.022-.308,22.246,22.246,0,0,1,.81-7.684,1.965,1.965,0,0,1,.48-.814l.182-.174.249.043c12.017,2.077,22.627,5.5,30.684,9.91a42.752,42.752,0,0,1,9.121,6.465,17.707,17.707,0,0,1,4.657,6.7,8.085,8.085,0,0,1-1.626,8.471,15.3,15.3,0,0,1-5.375,4.018c-2.99,1.341-6.767,1.993-11.547,1.993-1.807,0-3.776-.1-5.866-.289a57.132,57.132,0,0,1,2.976,7.9,11.149,11.149,0,0,1,5.22-1.244,14.026,14.026,0,0,1,2.124.167c.273.042.564.082.872.125a17.791,17.791,0,0,1,6.243,1.721,9.248,9.248,0,0,1,2.914,2.466,10.2,10.2,0,0,1,1.36,2.394,78.57,78.57,0,0,1,4.708-14.5,37.982,37.982,0,0,1,7.343-11.334c3.459-3.471,7.346-5.231,11.555-5.231.221,0,.446,0,.668.015,5.828.253,12,3.844,16.928,9.853,4.014,4.892,9.138,13.755,10.75,28.192l.1.885-.807-.376a28.161,28.161,0,0,0-11.819-2.609,26.176,26.176,0,0,0-10.583,2.2,4.968,4.968,0,0,0-2.283,1.652,1.658,1.658,0,0,0,.21,2.149,1.219,1.219,0,0,0,.708.208,5.429,5.429,0,0,0,2.029-.661c.218-.1.443-.206.661-.3a7.652,7.652,0,0,1,3.007-.592c2.783,0,5.664,1.332,8.362,2.772l4.362,2.328,3.76,2.006c.963.514,1.789.983,2.525,1.433l.246.15-.007.288A118.472,118.472,0,0,1,3027.285.182l-.257,1.095-.64-.924a26.093,26.093,0,0,0-6.3-6.5,15.642,15.642,0,0,0-8.1-2.987c-.173-.01-.349-.015-.523-.015-.914,0-3.976.175-5,2.421a3.651,3.651,0,0,0-.123,2.542,5.688,5.688,0,0,0,1.4,2.378,15.284,15.284,0,0,0,4.516,2.8l.443.209a43.689,43.689,0,0,1,11.934,7.84l.22.212-.088.292A207.234,207.234,0,0,1,3013.6,38.138l-.339.717-.5-.616a11.549,11.549,0,0,0-5.835-3.652,22.588,22.588,0,0,0-6.425-.848,26.584,26.584,0,0,0-4.029.288l-.078.013-.078-.011a63.008,63.008,0,0,1-8.9-2.185l-.239-.076-.083-.237a45.892,45.892,0,0,1-1.876-23.2,82.637,82.637,0,0,1,3.85-13.181,27.9,27.9,0,0,0-11.094,23.423,46.27,46.27,0,0,0,1.744,9.472l.275,1.025-.966-.44a59.513,59.513,0,0,1-14-8.76c-.558,25.149-2.109,49.7-3.56,70.455.534,2.163.938,4.062,1.237,5.826.732-2.175,1.5-4.246,2.153-5.992.3-.8.576-1.547.818-2.218a101.7,101.7,0,0,1,10.753-21.455c.226-.341.89-1.258,1.728-2.386a17.564,17.564,0,0,1-3.849-5.9,16.739,16.739,0,0,1-1.2-7.194l.018-.286.257-.129a7.855,7.855,0,0,1,3.524-.951,5.532,5.532,0,0,1,1.2.131,10,10,0,0,1,1.423.465c.266.1.516.2.773.281a7.546,7.546,0,0,0,2.328.371h.011a2.724,2.724,0,0,0,1.363-.274,1.011,1.011,0,0,0,.558-.885c-.062-.7-1.164-1.015-1.815-1.141a22.174,22.174,0,0,0-4.127-.488,10.969,10.969,0,0,0-1.4.087,7.689,7.689,0,0,0-3.018,1.034l-1.031.634.283-1.176a11.349,11.349,0,0,1,5.526-7.4,18.049,18.049,0,0,1,8.857-2.637,11.072,11.072,0,0,1,7.268,2.5l1.455-.547.154.041a47.842,47.842,0,0,1,9.567,3.887,24.446,24.446,0,0,1,6.591,5.021,10.688,10.688,0,0,1,2.972,7.349c-.112,6.007-5.834,8.788-10.883,11.242-4.333,2.106-8.075,3.925-7.483,7.217.411,2.291.464,2.586.224,2.873a.534.534,0,0,1-.41.193h0c-.365,0-.529-.257-1.07-1.105a26.626,26.626,0,0,0-3.776-4.825,17.429,17.429,0,0,0-7.762-4.546,13.988,13.988,0,0,1-3.615-1.546c-5.665,8.594-10.521,19.08-15.26,32.946a5.691,5.691,0,0,0-.456,2.493,25.357,25.357,0,0,0,.59,2.632,30.4,30.4,0,0,1,.972,4.893Zm-6.052-1h4.953a33.673,33.673,0,0,0-.887-4.186,25.919,25.919,0,0,1-.612-2.749,6.546,6.546,0,0,1,.5-2.948c4.843-14.168,9.814-24.839,15.643-33.582l.274-.412.415.27a13.048,13.048,0,0,0,3.748,1.681c6.377,1.708,9.98,6.531,11.64,9.053l-.089-.5c-.331-1.845.371-3.454,2.146-4.919a30.58,30.58,0,0,1,5.885-3.374,34.609,34.609,0,0,0,7.023-4.1,8.136,8.136,0,0,0,3.3-6.258,9.722,9.722,0,0,0-2.722-6.669A23.469,23.469,0,0,0,3005.8,45.4a46.952,46.952,0,0,0-9.188-3.755l-1.751.658-.228-.236a7.6,7.6,0,0,0-1.74-1.213,10.81,10.81,0,0,0-5.055-1.207,17.073,17.073,0,0,0-8.363,2.507,10.3,10.3,0,0,0-4.729,5.676,9.072,9.072,0,0,1,2.347-.628,11.965,11.965,0,0,1,1.532-.1,23.06,23.06,0,0,1,4.316.506c2.054.4,2.56,1.325,2.622,2.035a2,2,0,0,1-1.06,1.842,3.76,3.76,0,0,1-1.858.4h-.012a8.544,8.544,0,0,1-2.636-.42c-.281-.091-.556-.2-.822-.3a9.124,9.124,0,0,0-1.281-.422,4.533,4.533,0,0,0-.983-.107,6.634,6.634,0,0,0-2.816.719,15.821,15.821,0,0,0,1.147,6.472,16.48,16.48,0,0,0,3.926,5.854l.323.306-.266.356c-1.08,1.448-1.761,2.4-1.957,2.691a100.69,100.69,0,0,0-10.647,21.243c-.244.675-.524,1.428-.822,2.226-.844,2.268-1.895,5.092-2.792,7.961l-.973-.085a70.651,70.651,0,0,0-1.552-7.9l-.019-.076.005-.079c1.472-21.056,3.049-46.023,3.586-71.553l.023-1.084.81.721a57.237,57.237,0,0,0,13.6,8.854,43.892,43.892,0,0,1-1.5-8.646,28.272,28.272,0,0,1,3.11-14.279A28.275,28.275,0,0,1,2989.8-6.571l1.249-.812-.507,1.4a90.289,90.289,0,0,0-4.338,14.492,44.876,44.876,0,0,0,1.754,22.454,62.877,62.877,0,0,0,8.426,2.062,27.783,27.783,0,0,1,4.116-.289,23.581,23.581,0,0,1,6.711.89,12.887,12.887,0,0,1,5.81,3.392,205.8,205.8,0,0,0,10.695-27.469,43.173,43.173,0,0,0-11.448-7.446l-.44-.208a16.021,16.021,0,0,1-4.8-3c-1.439-1.466-2.453-3.9-1.477-6.036.859-1.882,3.069-3.005,5.911-3.005.193,0,.388.006.581.017a16.625,16.625,0,0,1,8.618,3.166,26.51,26.51,0,0,1,5.9,5.844,116.792,116.792,0,0,0,2.98-22.557c-.656-.395-1.388-.807-2.228-1.254l-3.759-2.006-4.363-2.328c-2.584-1.378-5.328-2.654-7.891-2.654a6.658,6.658,0,0,0-2.616.512c-.2.086-.41.183-.63.285a6.085,6.085,0,0,1-2.45.754,2.217,2.217,0,0,1-1.27-.381,2.626,2.626,0,0,1-.495-3.51,5.821,5.821,0,0,1,2.722-2.032,27.184,27.184,0,0,1,10.99-2.283,29.213,29.213,0,0,1,11.43,2.34c-1.689-13.679-6.579-22.108-10.427-26.8A29.171,29.171,0,0,0,3010.491-70a18.365,18.365,0,0,0-8.137-2.517c-.208-.009-.418-.014-.625-.014-3.933,0-7.582,1.661-10.846,4.937a37,37,0,0,0-7.139,11.037,77.4,77.4,0,0,0-5.02,16.15l-.979.033a8.831,8.831,0,0,0-4.375-6.069,16.988,16.988,0,0,0-5.9-1.608c-.312-.043-.606-.084-.886-.127a13.023,13.023,0,0,0-1.972-.156,10.1,10.1,0,0,0-5.264,1.414l-.554.332-.183-.619a55.29,55.29,0,0,0-3.484-9.139l-.408-.815.906.093a65.538,65.538,0,0,0,6.656.371,27.24,27.24,0,0,0,11.138-1.906,14.366,14.366,0,0,0,5.04-3.772,7.251,7.251,0,0,0,1.8-3.518,7.674,7.674,0,0,0-.372-3.957c-1.479-4.251-6.208-8.732-13.314-12.619-7.894-4.318-18.288-7.687-30.074-9.75a1.665,1.665,0,0,0-.094.227,21.373,21.373,0,0,0-.759,7.337,1.594,1.594,0,0,1-.121.772,1.606,1.606,0,0,1-.915.721c-.275.109-.557.218-.83.324-2.008.774-4.084,1.575-5.071,3.316l-.889-.457c.23-.5.455-.915.654-1.285a5.8,5.8,0,0,0,.942-3.111c.006-.5,0-1-.005-1.483a18.151,18.151,0,0,1,.434-5.1,10.671,10.671,0,0,1,.847-2.162c-3.451-.464-6.925-.816-10.333-1.047a4.644,4.644,0,0,0-.665,1.873l-.042.2c-.025.117-.054.275-.087.457-.281,1.537-.752,4.111-2.352,4.111a1.524,1.524,0,0,1-.529-.1,1.671,1.671,0,0,1-.954-1.016c-.624-1.551-.067-4.419.345-5.266a4.836,4.836,0,0,1,.266-.476c-1.771-.07-3.534-.106-5.252-.106a110.537,110.537,0,0,0-15.586,1.054,80.217,80.217,0,0,0-10.965,2.318,49.718,49.718,0,0,0-7.126,2.614,7.826,7.826,0,0,1,2.758,2.086c2.043,2.225,4.141,5.938,6.241,11.042a42.806,42.806,0,0,1,11.571-5.187,20.091,20.091,0,0,1,5.37-.853,7.376,7.376,0,0,1,5.3,1.775,4.679,4.679,0,0,1,1.44,2.795l.071.782-.739-.267a4.45,4.45,0,0,0-1.472-.2c-3.989,0-11.7,2.9-15.4,4.287-.522.2-.973.366-1.345.5a14.321,14.321,0,0,0-2.851,1.475c1.421,3.926,4.556,7.606,9.324,10.947a32.864,32.864,0,0,1,7.289-8.121,23.5,23.5,0,0,1,8.249-4.682,14.458,14.458,0,0,1,4.047-.588,11.326,11.326,0,0,1,5.5,1.339c1.129.631,1.327,1.324,1.294,1.795a1.5,1.5,0,0,1-.892,1.4c-11.836,3.808-14.456,8.641-14.586,14.71a99.806,99.806,0,0,0,15.208,4.873c-.35-.935-.711-1.9-1.059-2.852a3.851,3.851,0,0,1-.273-2.543,3.632,3.632,0,0,1,1.184-1.5,11.919,11.919,0,0,1,3.647-2.322,6.172,6.172,0,0,1,2.042-.361,4.676,4.676,0,0,1,2.409.63,2.64,2.64,0,0,1,1.179,1.327,3.269,3.269,0,0,1-.126,2.121c-.352,1.113-.81,2.211-1.251,3.273a34.755,34.755,0,0,0-1.332,3.559,84.057,84.057,0,0,0,14.014,1.407c3.376,0,5.871-.371,7.024-1.044a3,3,0,0,0,1.578-1.781l.348-1.5.6,1.415c.466,1.1.933,2.163,1.386,3.192.238.541.462,1.052.678,1.549l.113.261-.166.231c-2,2.782-3.466,6.751-4.35,11.8a92.143,92.143,0,0,0-.833,20.16c.077,1.488.218,2.955.422,4.373a31.585,31.585,0,0,1,2.75-1.734l.922-.517-.185,1.041c-.626,3.523-1.143,7.11-1.538,10.663-1.392,12.559-1.332,25.436-1.273,37.889q.036,7.416.07,14.832l.037,7.855-.968.178c-1.318-3.511-2.734-7.034-4.068-10.317-6.727-16.558-13.848-33.212-21.166-49.5l-.238-.529.558-.157a32.886,32.886,0,0,0,10.273-4.748,22.887,22.887,0,0,0-.749-2.605,13.236,13.236,0,0,0-5.722-7.317,19.821,19.821,0,0,0-4.834-1.657c-.762-.191-1.551-.389-2.318-.624a23.25,23.25,0,0,1-6.916-3.465,5.282,5.282,0,0,1-1.43-1.533,2.061,2.061,0,0,1-.1-2.124,2.178,2.178,0,0,1,2.064-1.015,6.367,6.367,0,0,1,1.7.268l5.5,1.551,5.384,1.518a15.213,15.213,0,0,1,4.548,1.838,13.056,13.056,0,0,1,3.937,4.914,40.843,40.843,0,0,1,2.819,6.764,18.308,18.308,0,0,0,4-7.478,15.09,15.09,0,0,0,.461-6.064,9.245,9.245,0,0,0-1.817-4.3c-1.7-2.193-4.513-3.8-8.375-4.79a42.252,42.252,0,0,0-10.328-1.127,58.517,58.517,0,0,0-7.2.429l-1.542.215,1.129-1.072c.028-.027,2.816-2.729,1.538-5.1l-.017-.031-.012-.033c-.279-.753-1.357-1.364-3.116-1.767a34.3,34.3,0,0,0-7.276-.607c-2.363,0-5.115.121-8.2.36a56.649,56.649,0,0,1,6.25,5.119l.46.416-.5.361a6.582,6.582,0,0,1-3.87,1.134,9.393,9.393,0,0,1-1.726-.164,21.825,21.825,0,0,1-4.48-1.533q-.366-.156-.732-.31a62.051,62.051,0,0,0-10.432-3.3c-3.7.534-7.593,1.164-11.393,1.843,3.027.645,6,1.39,8.869,2.225a8.086,8.086,0,0,1,2.786,1.391,2.712,2.712,0,0,1,1.119,2.762l-.093.4-.412-.015a30.631,30.631,0,0,1-9.009-2.2c-.885-.314-1.8-.638-2.7-.928a54.052,54.052,0,0,0-8.956-2.026c-4.584.949-8.2,1.826-9.937,2.411a42.379,42.379,0,0,0-12.334,6.188,18.585,18.585,0,0,0-5.42,6.26,12.306,12.306,0,0,0-1.109,3.25,5.383,5.383,0,0,1,4.971-2.691,13.978,13.978,0,0,1,5.269,1.259l.025.01.024.013a195.14,195.14,0,0,0,17.807,8.737,63.113,63.113,0,0,0,5.857-9.3l.019-.036a6.707,6.707,0,0,1,1.492-2.113,2.894,2.894,0,0,1,1.832-.707,2.1,2.1,0,0,1,1,.244c.951.511,1.4,1.669,1.285,3.35a18.87,18.87,0,0,1-1.639,6.57,38.586,38.586,0,0,1-2.052,3.768c-.214.359-.432.727-.646,1.1a140.072,140.072,0,0,0,18.827,5.633,79.077,79.077,0,0,0,3.994-19l.048-.569.745.164,2.171.478a2.249,2.249,0,0,1,1.248.6,2.146,2.146,0,0,1,.448.995,23.035,23.035,0,0,1-.439,11.085,53.353,53.353,0,0,1-2.627,7.348,90.913,90.913,0,0,0,14.992,1.325c.535,0,1.072-.006,1.6-.017.126-.571.255-1.088.392-1.569.065-.229.134-.46.2-.684a11.362,11.362,0,0,0,.645-3.3,10.552,10.552,0,0,0-1.722-4.934,74.394,74.394,0,0,0-6.748-9.978,4.691,4.691,0,0,1-1.23-2.346,2.573,2.573,0,0,1,.688-2.006,3.445,3.445,0,0,1,2.49-1.122,2.939,2.939,0,0,1,.441.033c1.56.238,2.689,1.376,3.8,2.622l2.929,3.271.942,1.053a41.8,41.8,0,0,1,4.046,5.018,20.572,20.572,0,0,1,1.686,3.18l.013.031.009.033c.387,1.434.828,2.911,1.311,4.391l.01.032.006.033a21.781,21.781,0,0,1,.321,5.2c.338-.066.675-.135,1-.206l.418-.09.154.4c2.9,7.5,6.635,14.873,10.248,22,3.387,6.683,6.889,13.594,9.72,20.638a163.717,163.717,0,0,1,8.121,27.5l.01.05.083,17.537-.891-1.072c-.146-.176-.3-.354-.444-.527-.355-.419-.722-.851-1.062-1.3a29.612,29.612,0,0,1-3.408-6.566l-.237-.568a228.817,228.817,0,0,0-16.18-30.877,18.6,18.6,0,0,0-3.168-4.1l-.393-.354.376-.373a6.466,6.466,0,0,0,1.88-3.263c.947-4.342.922-6.943-.08-8.187a3.6,3.6,0,0,0-3.018-1.065c-2.508,0-6.179.973-11.673,2.653l-.806.247.17-.826c.02-.094,1.9-9.433-1.3-13.356a4.588,4.588,0,0,0-3.793-1.693,13.769,13.769,0,0,0-5.756,1.631,33.671,33.671,0,0,0-10.635,8.4,47.472,47.472,0,0,0-7.6,12.248,46.312,46.312,0,0,0-3.6,13.8,31.724,31.724,0,0,0,1.021,12.05,28.725,28.725,0,0,1,9.677-8.455,66.246,66.246,0,0,1,12.758-5.318,5.165,5.165,0,0,0-.425-.86,9.656,9.656,0,0,0-3.458-2.842l-.761-.449.777-.421a4.317,4.317,0,0,1,2.054-.507,4.463,4.463,0,0,1,3.11,1.231,5.816,5.816,0,0,1,1.522,2.974c1.243-.376,2.478-.739,3.677-1.091,2.566-.754,5-1.469,7.23-2.227l-.193-.345a7.033,7.033,0,0,0-2.037-2.6,7.179,7.179,0,0,0-1.77-.724,5.771,5.771,0,0,1-2.6-1.332,1.11,1.11,0,0,1-.355-.718,1.164,1.164,0,0,1,.415-.867c1.415-1.358,3.411-1.541,5.176-1.541.287,0,.592.005.987.017,1.085.031,3.105.09,4.134,1.48a5.085,5.085,0,0,1,.747,2.733c.01.125.019.25.03.374a13.271,13.271,0,0,0,.246,1.638,19.369,19.369,0,0,0,2.754-1.566l.391-.272.291.377c1.489,1.929,2.856,3.96,4.178,5.923,1.068,1.583,2.28,3.379,3.407,5.2a94.627,94.627,0,0,1,7.456,15.072,185.954,185.954,0,0,1,8.086,28.192c.062.282.125.563.188.843a21.587,21.587,0,0,1,.757,5.757,9.666,9.666,0,0,1-.131,1.112Zm-5.3-38.749c-.694-3.981-1.253-8.2-1.662-12.537a192.048,192.048,0,0,1-.687-24.6,223.054,223.054,0,0,1,2.261-24.523l.2-1.388.72,1.2a42.08,42.08,0,0,0,4.868,6.567l.141.156-.013.21c-.54,8.477-1.4,17.083-2.23,25.4-.305,3.057-.621,6.219-.916,9.326-.632,6.659-1.2,13.431-1.694,20.129Zm.706-60.156a221.12,221.12,0,0,0-2.055,23.055,191.065,191.065,0,0,0,.684,24.471c.265,2.814.594,5.577.982,8.257.414-5.309.874-10.64,1.374-15.9.3-3.11.611-6.272.917-9.331.823-8.245,1.674-16.768,2.214-25.16A43.388,43.388,0,0,1,2956.317,9.993Zm1.048-6.958-.917-.349c.779-4.541,1.707-9.191,2.76-13.823l.062-.272.263-.09c.52-.178,1.056-.351,1.6-.514l.61-.184.034.636q.025.478.048.957c.115,2.462.182,5.025.2,7.618v.21l-.149.148A31.479,31.479,0,0,0,2957.365,3.035Zm2.756-13.677c-.846,3.74-1.61,7.491-2.279,11.185a32.4,32.4,0,0,1,3.176-3.73c-.019-2.508-.085-4.986-.2-7.369l-.015-.309Q2960.46-10.757,2960.121-10.643Zm4.089,5.895-.017-.982c-.041-2.352-.105-4.522-.2-6.635l-.018-.415.405-.093a112.606,112.606,0,0,1,14.926-2.062c.629-.059,1.246-.111,1.872-.111a6.106,6.106,0,0,1,2.857.589l.678.346-.587.485c-2.183,1.8-4.97,2.471-7.664,3.117-.767.184-1.56.374-2.317.587a27.517,27.517,0,0,0-9.156,4.584Zm.8-7.242c.07,1.7.123,3.437.161,5.281a28.326,28.326,0,0,1,8.705-4.177c.776-.217,1.578-.41,2.354-.6a20.1,20.1,0,0,0,6.549-2.387,6.347,6.347,0,0,0-1.6-.178c-.583,0-1.175.051-1.78.107A115.01,115.01,0,0,0,2965.013-11.99Zm-13.572-39.99c-2.814-3.2-8.7-6.2-8.755-6.227l.33-.935c2.6.555,5.089,1.022,7.408,1.387l.345.054.068.343a32.713,32.713,0,0,0,1.448,4.875Zm-5.519-5.551a35.416,35.416,0,0,1,4.729,3.376c-.31-.971-.549-1.855-.724-2.667C2948.64-57.028,2947.3-57.266,2945.923-57.531Z" transform="translate(-2943.523 189.102)" fill="rgba(0,0,0,0)"/><path d="M15.939,24.2a2.127,2.127,0,0,1-.414,1.036,1.776,1.776,0,0,1-.76.594,1.46,1.46,0,0,1-.912.041,1.716,1.716,0,0,1-.9-.649,1.738,1.738,0,0,1-.4-.981,8.216,8.216,0,0,0-.152-1.064,23.6,23.6,0,0,0-.8-3.122q-1.713.028-3.4.028t-3.37.028q-.249.718-.428,1.464t-.345,1.464q-.138.552-.249,1.146a2.136,2.136,0,0,1-.5,1.036,1.613,1.613,0,0,1-1.008.622,1.5,1.5,0,0,1-.967-.18,1.8,1.8,0,0,1-.691-.76,1.978,1.978,0,0,1-.18-1.174A8.8,8.8,0,0,1,.8,22.044q.249-.829.47-1.657a61.062,61.062,0,0,1,3.2-9.2q.166-.387.345-.746t.345-.718q.193-.387.387-.829a4.649,4.649,0,0,1,.456-.815,2.717,2.717,0,0,1,.622-.635,1.458,1.458,0,0,1,.884-.262,1.628,1.628,0,0,1,1.16.442,16.892,16.892,0,0,1,3.094,4.24,52.591,52.591,0,0,1,2.182,4.82q.58-.028,1.133,0a1.443,1.443,0,0,1,.994.5,1.5,1.5,0,0,1,.456.829,1.69,1.69,0,0,1-.083.856,1.747,1.747,0,0,1-.5.718A1.861,1.861,0,0,1,15.11,20q.276.967.483,1.975t.345,2.03ZM10.3,16.685q-.525-1.243-1.119-2.472a18.727,18.727,0,0,0-1.34-2.334Q7.293,13.094,6.809,14.3t-.9,2.445q1.3-.028,2.279-.028T10.3,16.685Zm19.641,7.1a1.686,1.686,0,0,1-.083,1.326,1.5,1.5,0,0,1-.843.7,1.785,1.785,0,0,1-1.174-.041,2.282,2.282,0,0,1-1.1-.884,5.179,5.179,0,0,1-1.506.815,6.057,6.057,0,0,1-1.671.262,6.976,6.976,0,0,1-2.514-.318,4.812,4.812,0,0,1-1.865-1.119,4.48,4.48,0,0,1-1.119-1.865,6.766,6.766,0,0,1-.249-2.583,7.282,7.282,0,0,1,.207-1.188q.152-.58.345-1.133a8.2,8.2,0,0,1,.622-1.3,8.581,8.581,0,0,1,.815-1.188,8.377,8.377,0,0,1,3.729-2.624,6.343,6.343,0,0,1,1.05-.249,7.234,7.234,0,0,1,1.34-.1,5.453,5.453,0,0,1,1.3.18,1.614,1.614,0,0,1,.925.58,3.128,3.128,0,0,1,.359.58,1.461,1.461,0,0,1,.124.525q.014.276,0,.594t-.014.787q0,.773-.014,1.506t.014,1.478v.649q0,.4.028.843t.069.843a3.126,3.126,0,0,0,.124.649Zm-5.856-1.243q.3-.193.691-.428a3.651,3.651,0,0,0,.691-.539,21.023,21.023,0,0,1-.29-2.928q-.041-1.464.014-2.956a4.617,4.617,0,0,0-2.238,1.077,4.52,4.52,0,0,0-1.381,2.017,8.334,8.334,0,0,0-.276.967,3.5,3.5,0,0,0-.083.967,1.943,1.943,0,0,0,.331,1.064,2.044,2.044,0,0,0,.732.649,2.245,2.245,0,0,0,.912.249A2.07,2.07,0,0,0,24.088,22.541ZM44.7,25.663q-1.188-.138-1.45-.787a2.037,2.037,0,0,1-.014-1.423V12.238A1.367,1.367,0,0,1,42.445,12a1.794,1.794,0,0,1-.552-.594,1.548,1.548,0,0,1-.207-.787,1.354,1.354,0,0,1,.249-.787,3.929,3.929,0,0,1,1.423-1.3,10.805,10.805,0,0,1,1.809-.773,10.932,10.932,0,0,1,2.942-.525,6.315,6.315,0,0,1,2.914.608A5.424,5.424,0,0,1,53.066,9.42a4.683,4.683,0,0,1,.939,2.058,4.469,4.469,0,0,1-.193,2.238,5.539,5.539,0,0,1-1.381,2.141,4.894,4.894,0,0,1,1.851,1.975,4.528,4.528,0,0,1,.456,2.362,5.367,5.367,0,0,1-.773,2.348A6.509,6.509,0,0,1,52.127,24.5a5.138,5.138,0,0,1-1.616.76,11.828,11.828,0,0,1-1.906.373,17.382,17.382,0,0,1-1.948.11q-.967,0-1.768-.055Zm5.884-7.017a4.393,4.393,0,0,0-.967-.5,4.334,4.334,0,0,0-.953-.221,5.792,5.792,0,0,0-.981-.028q-.5.028-1.077.055v4.42q.608,0,1.3-.041a6.234,6.234,0,0,0,1.326-.221,4.874,4.874,0,0,0,1.188-.511,2.472,2.472,0,0,0,.884-.912,3.332,3.332,0,0,0-.028-1.146A1.585,1.585,0,0,0,50.58,18.646ZM46.6,14.392H47.6a4.988,4.988,0,0,0,.981-.1,3.9,3.9,0,0,0,.939-.318,2.544,2.544,0,0,0,.815-.635,1.316,1.316,0,0,0,.373-1.229,1.623,1.623,0,0,0-.787-1.036,3,3,0,0,0-1.63-.483A5.792,5.792,0,0,0,46.6,10.8ZM62.735,25.718a6.957,6.957,0,0,1-1.533-.11,6.2,6.2,0,0,1-1.45-.47,1.479,1.479,0,0,1-.7.193,1.771,1.771,0,0,1-.635-.11,2.1,2.1,0,0,1-.5-.262,2.741,2.741,0,0,1-.29-.235,2.094,2.094,0,0,1-.359-.994,1.387,1.387,0,0,1,.359-1.05V8.481a1.421,1.421,0,0,1,.442-1.064,1.975,1.975,0,0,1,1.022-.539,1.6,1.6,0,0,1,1.119.193,1.622,1.622,0,0,1,.732,1.1q.11.5.18.981a9.456,9.456,0,0,1,.083,1.119q.014.635,0,1.464t-.069,2.044q.249-.138.511-.262t.539-.262a5.017,5.017,0,0,1,1.657-.442,5.689,5.689,0,0,1,1.727.1,4.56,4.56,0,0,1,1.575.663,3.924,3.924,0,0,1,1.2,1.257,7.151,7.151,0,0,1,.9,2.583,9.188,9.188,0,0,1,0,2.928,7.678,7.678,0,0,1-.967,2.693,4.514,4.514,0,0,1-2.058,1.851,8.776,8.776,0,0,1-3.481.829Zm-1.74-7.072v3.315a.433.433,0,0,0,.11.083.433.433,0,0,1,.11.083,3.821,3.821,0,0,0,4.309-1.133,5.717,5.717,0,0,0,.4-2.086,7.363,7.363,0,0,0-.373-2.113.7.7,0,0,0-.456-.428,2.907,2.907,0,0,1-.566-.235,1.52,1.52,0,0,0-.953.166,5.315,5.315,0,0,0-.981.622,6.533,6.533,0,0,0-.856.815q-.387.442-.608.746ZM92.21,20.138a1.691,1.691,0,0,1,1.008-.511,1.857,1.857,0,0,1,1.036.152,1.592,1.592,0,0,1,.732.7,1.639,1.639,0,0,1,.124,1.146,3.084,3.084,0,0,1-.635,1.229q-.47.566-.939,1.036a6.917,6.917,0,0,1-2.39,1.671,6.566,6.566,0,0,1-2.652.511,6.39,6.39,0,0,1-2.624-.635,6.833,6.833,0,0,1-2.307-1.823A8.135,8.135,0,0,1,82.541,22.1a7.742,7.742,0,0,1-.635-1.685,10.1,10.1,0,0,1-.3-2.707,9.763,9.763,0,0,1,.442-2.735,10.16,10.16,0,0,1,1.174-2.5,7.733,7.733,0,0,1,1.865-2A12.685,12.685,0,0,1,86.7,9.42q.815-.442,1.727-.829.525-.221,1.077-.428a6.893,6.893,0,0,1,1.133-.318,4.927,4.927,0,0,1,1.16-.083,3.476,3.476,0,0,1,1.133.249,3.772,3.772,0,0,1,.773.456,4.868,4.868,0,0,1,.718.663,5.249,5.249,0,0,1,.58.787,3.366,3.366,0,0,1,.359.8,2.168,2.168,0,0,1,.041.732,1.678,1.678,0,0,1-.221.677,1.616,1.616,0,0,1-1.174.773,1.459,1.459,0,0,1-.981-.138,1.758,1.758,0,0,1-.552-.552q-.207-.331-.4-.649a1.082,1.082,0,0,0-.552-.456,1.473,1.473,0,0,0-.331.028,12.3,12.3,0,0,0-1.892.677,9.369,9.369,0,0,0-1.768,1.036A7.114,7.114,0,0,0,86.1,14.254a5.279,5.279,0,0,0-.884,1.8,7.085,7.085,0,0,0-.249,2.4,5.584,5.584,0,0,0,.663,2.293,3.661,3.661,0,0,0,.884,1.1,3.849,3.849,0,0,0,1.215.7,3.087,3.087,0,0,0,1.354.166,2.942,2.942,0,0,0,1.326-.483,4.627,4.627,0,0,0,.994-.953A12.9,12.9,0,0,0,92.21,20.138Zm12.431,1.409a2.092,2.092,0,0,1,1.312-.387,1.668,1.668,0,0,1,1.022.428,1.432,1.432,0,0,1,.442.994,2.1,2.1,0,0,1-.428,1.312,3.087,3.087,0,0,1-.87.856,6.26,6.26,0,0,1-1.091.608,5.306,5.306,0,0,1-2.459.5,5.468,5.468,0,0,1-2.307-.608,5.627,5.627,0,0,1-1.837-1.533,5.457,5.457,0,0,1-1.05-2.279,8.747,8.747,0,0,1,.221-4.779,11.423,11.423,0,0,1,.732-1.6,6.779,6.779,0,0,1,1.036-1.409,7.543,7.543,0,0,1,1.354-1.119,4.488,4.488,0,0,1,1.63-.649,5.131,5.131,0,0,1,1.547.014,7.622,7.622,0,0,1,1.837.483,5.582,5.582,0,0,1,1.575.939,2.059,2.059,0,0,1,.76,1.381,1.509,1.509,0,0,1-.11.815,1.662,1.662,0,0,1-.47.622,1.741,1.741,0,0,1-.7.345,1.631,1.631,0,0,1-.815-.014,2.162,2.162,0,0,1-.787-.373q-.29-.235-.76-.622a1.381,1.381,0,0,1-.414-.18.606.606,0,0,0-.414-.1l-.746.083q-.193.11-.359.193l-.331.166a5.979,5.979,0,0,0-1.381,2.086,4.637,4.637,0,0,0-.221,2.472,3.248,3.248,0,0,0,.539,1.409,2.094,2.094,0,0,0,.939.76,1.92,1.92,0,0,0,1.188.041,3.053,3.053,0,0,0,1.285-.746Zm18.2,4.5a2.278,2.278,0,0,1-1.229-.663,1.788,1.788,0,0,1-.511-1.3V12.459a1.668,1.668,0,0,1-.967-.124,1.931,1.931,0,0,1-.746-.552,1.466,1.466,0,0,1-.318-.8,1.19,1.19,0,0,1,.29-.87,3.321,3.321,0,0,1,.856-.787,5.59,5.59,0,0,1,1.05-.525,9.189,9.189,0,0,1,1.146-.345q.594-.138,1.146-.249a12.912,12.912,0,0,1,3.094-.124,9.992,9.992,0,0,1,2.928.677,8.852,8.852,0,0,1,2.528,1.547,7.611,7.611,0,0,1,1.865,2.486,7.764,7.764,0,0,1,.635,1.892,11.9,11.9,0,0,1,.221,1.975,8.793,8.793,0,0,1-.3,2.514,8.559,8.559,0,0,1-2.6,4.171,9.008,9.008,0,0,1-2.1,1.381,9.464,9.464,0,0,1-2.169.691q-1.146.221-2.251.387-.552.083-1.174.18a7.818,7.818,0,0,1-1.2.1Zm2.983-14.669q-.359,0-.677.028t-.677.083V22.569a1.162,1.162,0,0,0,.276-.028.908.908,0,0,1,.221-.028.612.612,0,0,0,.193-.028q.387-.055.635-.083t.47-.069q.221-.041.456-.1t.539-.138a5.543,5.543,0,0,0,2.528-1.312,5.592,5.592,0,0,0,1.4-2.472,5.316,5.316,0,0,0,.276-1.851,5.6,5.6,0,0,0-.345-1.8,5.075,5.075,0,0,0-.925-1.561,4.42,4.42,0,0,0-1.492-1.119,5.384,5.384,0,0,0-1.423-.442Q126.575,11.436,125.829,11.381ZM148.867,22.79a1.949,1.949,0,0,1,.318,1.436,1.525,1.525,0,0,1-.622.953,1.68,1.68,0,0,1-1.146.249,2.191,2.191,0,0,1-1.312-.7,5.873,5.873,0,0,1-1.381.732,13.991,13.991,0,0,1-1.519.456,4.868,4.868,0,0,1-2.389-.041,5.516,5.516,0,0,1-2.03-1.036,5.575,5.575,0,0,1-1.436-1.782,5.468,5.468,0,0,1-.608-2.307,9.345,9.345,0,0,1,.207-2.652,7.8,7.8,0,0,1,.925-2.32,6.076,6.076,0,0,1,1.671-1.8,6.46,6.46,0,0,1,2.445-1.05,8.5,8.5,0,0,1,1.671-.166,10.149,10.149,0,0,1,1.671.138q-.028-.608-.041-1.4t-.014-1.533q0-.746.055-1.34a4.226,4.226,0,0,1,.138-.843,1.548,1.548,0,0,1,.594-.76,1.608,1.608,0,0,1,.843-.276,1.706,1.706,0,0,1,1.547.925,1.428,1.428,0,0,0,.138.262.465.465,0,0,1,.083.262q.028,3.619.014,7.155t-.014,7.155Q148.785,22.68,148.867,22.79Zm-3.84-1.519a.579.579,0,0,1,.207-.166.248.248,0,0,0,.152-.221V18.6q0-1.119-.028-2.279a8.333,8.333,0,0,0-1.381-.166,5.024,5.024,0,0,0-1.4.138,3.779,3.779,0,0,0-1.243.552,2.635,2.635,0,0,0-.9,1.1q-.166.525-.3,1.05a4.5,4.5,0,0,0-.152,1.022,3.224,3.224,0,0,0,.124.981,2.839,2.839,0,0,0,.47.925,2.2,2.2,0,0,0,.262.221q.152.11.594.387a5.264,5.264,0,0,0,1.948-.193A3.561,3.561,0,0,0,145.028,21.271ZM11.354,51.575a1.791,1.791,0,0,1,.87.262,2.112,2.112,0,0,1,.608.566,1.548,1.548,0,0,1,.276.76,1.657,1.657,0,0,1-.525,1.326,1.114,1.114,0,0,1-.483.318,16.6,16.6,0,0,1-3.633.649,21.4,21.4,0,0,1-3.688-.069q-.525-.055-1.146-.111a2.36,2.36,0,0,1-1.091-.359,1.767,1.767,0,0,1-.856-1.575V41.575a1.82,1.82,0,0,1-.732-1.257,1.468,1.468,0,0,1,.1-.718,1.38,1.38,0,0,1,.47-.594,3,3,0,0,1,1.271-.594q.718-.152,1.409-.262a18.868,18.868,0,0,1,2.873-.221q1.436,0,2.928-.028a8.77,8.77,0,0,0,1.022-.069,2.16,2.16,0,0,1,1.022.1,1.747,1.747,0,0,1,.829.608,1.843,1.843,0,0,1,.359.884,1.525,1.525,0,0,1-.18.912,1.579,1.579,0,0,1-.815.691,3.6,3.6,0,0,1-1.478.249q-.787-.028-1.506-.028-1.05,0-2.1.028a20.144,20.144,0,0,0-2.1.166v3.84a17.915,17.915,0,0,0,1.989,0q.994-.055,1.989-.138.442-.028.884-.083a3.773,3.773,0,0,1,.912,0,1.388,1.388,0,0,1,.939.5,1.855,1.855,0,0,1,.4.925,1.7,1.7,0,0,1-.18,1.008,1.467,1.467,0,0,1-.8.718,5.009,5.009,0,0,1-1.271.29q-.8.1-1.685.138t-1.74.041q-.856,0-1.436-.028v3.4a14.209,14.209,0,0,0,3.066.055,18.721,18.721,0,0,0,3.039-.525ZM25.442,51.3a2.212,2.212,0,0,1,1.174-.014,1.5,1.5,0,0,1,.787.511,1.29,1.29,0,0,1,.249.884,2.033,2.033,0,0,1-.47,1.1,2.931,2.931,0,0,1-.994.8A9.071,9.071,0,0,1,25,55.11a13.747,13.747,0,0,1-2.569.691,6.756,6.756,0,0,1-2.279,0,5.327,5.327,0,0,1-1.989-.8,6.748,6.748,0,0,1-1.727-1.713,5.1,5.1,0,0,1-.815-1.7,8.163,8.163,0,0,1-.29-1.948A8.733,8.733,0,0,1,15.5,47.68a7.717,7.717,0,0,1,.552-1.74,5.11,5.11,0,0,1,1.492-1.768A8.54,8.54,0,0,1,19.807,42.9a8.417,8.417,0,0,1,2.541-.539,4.711,4.711,0,0,1,2.293.4,3.983,3.983,0,0,1,1.423,1.119,4.149,4.149,0,0,1,.815,1.588A3.771,3.771,0,0,1,26.92,47.2a3.125,3.125,0,0,1-.9,1.588A6.106,6.106,0,0,1,24.5,49.9a14.159,14.159,0,0,1-1.713.746,17.067,17.067,0,0,1-1.809.539q-.925.221-1.782.5a2.542,2.542,0,0,0,1.326.843,4.2,4.2,0,0,0,1.561.069,6.56,6.56,0,0,0,1.644-.456,13.424,13.424,0,0,0,1.547-.76Zm-5.58-4.751a2.393,2.393,0,0,0-.939.9,4.379,4.379,0,0,0-.442,1.506q.718-.221,1.616-.47t1.7-.525a7.216,7.216,0,0,0,1.354-.608q.552-.331.552-.718a1.345,1.345,0,0,0-.069-.428.455.455,0,0,0-.29-.29,2.955,2.955,0,0,0-1.6-.11,4.845,4.845,0,0,0-1.381.47Zm23.094,7.818a2.073,2.073,0,0,1-.442,1.05,1.867,1.867,0,0,1-.829.608,1.451,1.451,0,0,1-.967,0,1.53,1.53,0,0,1-.829-.746,2.189,2.189,0,0,1-.221-.47,1.564,1.564,0,0,1-.083-.5V47.79a1.417,1.417,0,0,1-.539-.58,1.676,1.676,0,0,1-.18-.76,1.579,1.579,0,0,1,.193-.76,1.846,1.846,0,0,1,.525-.608q-.028-.525-.014-.884t.014-.691v-.677a7.1,7.1,0,0,0-.055-.815,2.469,2.469,0,0,0-.18-.76q-.152-.373-.262-.746a2.121,2.121,0,0,1-.083-.76,1.293,1.293,0,0,1,.331-.746,1.623,1.623,0,0,1,1.008-.594q.594-.1,1.2-.152,1.271-.083,2.528-.083t2.528-.055a4.721,4.721,0,0,0,.773-.069q.414-.069.829-.11a4.154,4.154,0,0,1,.829,0,1.821,1.821,0,0,1,.746.235,1.545,1.545,0,0,1,.608.635,1.644,1.644,0,0,1,.18.8,1.712,1.712,0,0,1-.235.8,1.556,1.556,0,0,1-.635.608,3.386,3.386,0,0,1-1.575.4q-.856.014-1.63.041-.912.028-1.823.014t-1.823.041q.055.525.083,1.243t.028,2.1q.884,0,1.8-.028a14.457,14.457,0,0,0,1.8-.166,6.19,6.19,0,0,0,.994-.207,2.507,2.507,0,0,1,.994-.1,1.7,1.7,0,0,1,.967.414,1.851,1.851,0,0,1,.566.815,1.43,1.43,0,0,1-.014.939,1.538,1.538,0,0,1-.746.815,5.52,5.52,0,0,1-1.478.566,11.585,11.585,0,0,1-1.616.249q-.829.069-1.657.055t-1.6-.014Zm15.055-.083a2.073,2.073,0,0,1-.442,1.05,1.867,1.867,0,0,1-.829.608,1.451,1.451,0,0,1-.967,0,1.53,1.53,0,0,1-.829-.746,2.189,2.189,0,0,1-.221-.47,1.564,1.564,0,0,1-.083-.5V46.961a1.662,1.662,0,0,1-.953-.29,1.82,1.82,0,0,1-.635-.718,1.627,1.627,0,0,1-.152-.912,1.565,1.565,0,0,1,.442-.9,1.337,1.337,0,0,1,.594-.4,3.148,3.148,0,0,1,.677-.124q-.028-.856-.041-1.685a9.136,9.136,0,0,1,.124-1.657,5.087,5.087,0,0,1,.773-2.21,4.306,4.306,0,0,1,1.506-1.409,4.826,4.826,0,0,1,2-.58,5.642,5.642,0,0,1,2.293.331,5.848,5.848,0,0,1,.953.414,3.192,3.192,0,0,1,.815.635,1.662,1.662,0,0,1,.359.649,1.579,1.579,0,0,1,.041.746,1.878,1.878,0,0,1-.276.691,1.3,1.3,0,0,1-.594.483,1.694,1.694,0,0,1-1.036.11,4.267,4.267,0,0,1-1.008-.359q-.3-.11-.58-.221a3,3,0,0,0-.58-.166.807.807,0,0,0-.552.083,1.378,1.378,0,0,0-.428.373,1.859,1.859,0,0,0-.373,1.091q-.028.635-.014,1.285t.014,1.285q.414-.028.884-.055t.925-.028q.456,0,.843.028a2.247,2.247,0,0,1,.608.11,1.633,1.633,0,0,1,.718.511,1.753,1.753,0,0,1,.359.746,1.465,1.465,0,0,1-.069.815,1.616,1.616,0,0,1-.539.718,2.148,2.148,0,0,1-.829.387,6.611,6.611,0,0,1-.994.152,9.6,9.6,0,0,1-1.022.028q-.5-.014-.884-.014Zm30.028-9.116a2.268,2.268,0,0,1,.939.539,1.807,1.807,0,0,1,.511.829,1.413,1.413,0,0,1-.055.912,1.76,1.76,0,0,1-.76.815,1.921,1.921,0,0,0-.028.677q.028.594.041,1.367t-.041,1.561a3.825,3.825,0,0,1-.249,1.229,2.707,2.707,0,0,1-.47.635q-.276.276-.58.525A7.858,7.858,0,0,1,82.79,56.1a7.4,7.4,0,0,1-2.445-.249,8.554,8.554,0,0,1-2.362-1.05,8.267,8.267,0,0,1-2.417-2.348,9.825,9.825,0,0,1-1.74-5.29,9.819,9.819,0,0,1,.18-2.265,8.749,8.749,0,0,1,.718-2.141A7.767,7.767,0,0,1,78,39.309a18.974,18.974,0,0,1,2.362-1.1,10.159,10.159,0,0,1,1.934-.58,8.2,8.2,0,0,1,2.017-.138,10.935,10.935,0,0,1,1.671.262,3.657,3.657,0,0,1,1.533.732,2.19,2.19,0,0,1,.511.608,1.871,1.871,0,0,1,.249.732,1.468,1.468,0,0,1-.1.718,1.636,1.636,0,0,1-1.257.939,2.454,2.454,0,0,1-.815-.055,5.747,5.747,0,0,1-.829-.262q-.414-.166-.773-.276a1.685,1.685,0,0,0-.649-.1,5.435,5.435,0,0,0-.677.069,18.838,18.838,0,0,0-1.948.677,9.225,9.225,0,0,0-1.809.981A6.143,6.143,0,0,0,78,43.9a4.212,4.212,0,0,0-.76,1.934,6.865,6.865,0,0,0,.138,2.8A5.621,5.621,0,0,0,78.7,51.077,5.181,5.181,0,0,0,80.18,52.2a4.8,4.8,0,0,0,1.754.511,4.575,4.575,0,0,0,1.8-.193,3.814,3.814,0,0,0,1.575-.967V48.564q-.552.028-1.146.1t-1.188.083a6.044,6.044,0,0,1-1.16-.083,3.327,3.327,0,0,1-1.064-.373,1.465,1.465,0,0,1-.649-.732,1.642,1.642,0,0,1-.1-.912,1.9,1.9,0,0,1,.387-.843,1.506,1.506,0,0,1,.829-.525,3.535,3.535,0,0,1,.622-.069q.373-.014.746-.014t.677.014q.3.014.47.014,1.077,0,2.141-.028T88.039,45.166Zm4.227,15.608a2.041,2.041,0,0,1-.5-1.2,1.693,1.693,0,0,1,.276-1.064,1.541,1.541,0,0,1,.87-.608,1.737,1.737,0,0,1,1.257.166,3.117,3.117,0,0,0,.552.331q.249.11.691.331a3.875,3.875,0,0,0,.939.29,3.329,3.329,0,0,0,.994.041,3.727,3.727,0,0,0,1.45-.318,1.621,1.621,0,0,0,.732-.691A2.664,2.664,0,0,0,99.793,57q.041-.622.041-1.4a11.346,11.346,0,0,1-1.768.456,6.34,6.34,0,0,1-1.823.041,5.234,5.234,0,0,1-3-1.3,6.379,6.379,0,0,1-1.713-2.569,7.966,7.966,0,0,1-.442-3.191,8.243,8.243,0,0,1,.787-3.135,5.745,5.745,0,0,1,1.133-1.533,6.491,6.491,0,0,1,1.616-1.16,5.96,5.96,0,0,1,1.878-.594,4.1,4.1,0,0,1,1.892.166q.525.193,1.022.387a5.342,5.342,0,0,1,.967.5,1.785,1.785,0,0,1,1.229-.47,1.466,1.466,0,0,1,1.2.663l.249.373a.725.725,0,0,1,.138.4q.028,2.956.014,5.9t-.014,5.9a7.41,7.41,0,0,1-.318,2.21,5.4,5.4,0,0,1-.953,1.809,5,5,0,0,1-1.575,1.285,6.054,6.054,0,0,1-2.182.635q-.635.055-1.243.055a5.842,5.842,0,0,1-1.243-.138,6.921,6.921,0,0,1-1.7-.552q-.815-.387-1.616-.856Zm3.26-8.425a3.531,3.531,0,0,0,2.238.373,5.7,5.7,0,0,0,2.072-.925V47.4a5.013,5.013,0,0,0-1.561-1.119,3.473,3.473,0,0,0-1.809-.18q-.193.11-.373.193t-.373.166a5.961,5.961,0,0,0-.884,1.285,3.563,3.563,0,0,0-.359,1.271,4.344,4.344,0,0,0,.1,1.326,11,11,0,0,0,.456,1.478,1.123,1.123,0,0,0,.249.276A1.567,1.567,0,0,1,95.525,52.348ZM128.84,45.58a1.7,1.7,0,0,1,.994.7,1.839,1.839,0,0,1,.318,1.064,1.884,1.884,0,0,1-.345,1.036,1.508,1.508,0,0,1-.967.622v4.807a2.228,2.228,0,0,1-.345,1.229,1.944,1.944,0,0,1-.843.76,1.636,1.636,0,0,1-1.05.1,1.723,1.723,0,0,1-.994-.732,1.63,1.63,0,0,1-.262-.635,3.528,3.528,0,0,1-.069-.663V49.088H118.84v4.7a3.624,3.624,0,0,1-.055.622,1.788,1.788,0,0,1-.193.566,1.7,1.7,0,0,1-.912.856,1.5,1.5,0,0,1-1.077-.014,2.029,2.029,0,0,1-.9-.718,2.075,2.075,0,0,1-.373-1.257V39.558a1.906,1.906,0,0,1,.428-1.243,2.315,2.315,0,0,1,.981-.732,1.667,1.667,0,0,1,1.119-.028,1.366,1.366,0,0,1,.843.87,2.041,2.041,0,0,1,.11.4,2.648,2.648,0,0,1,.028.4V45.47h6.436V39.558a2.317,2.317,0,0,1,.249-1.05,1.748,1.748,0,0,1,.87-.856,1.8,1.8,0,0,1,1.1-.138,1.745,1.745,0,0,1,.939.539,1.65,1.65,0,0,1,.4,1.174Zm6.436,8.674a1.973,1.973,0,0,1-.718,1.312,1.78,1.78,0,0,1-1.146.373,1.55,1.55,0,0,1-1.05-.483,1.7,1.7,0,0,1-.456-1.257V38.84a1.388,1.388,0,0,1,.5-1.077,2.248,2.248,0,0,1,1.1-.552,1.615,1.615,0,0,1,1.133.193,1.3,1.3,0,0,1,.58,1.133q.111,1.436.1,2.8t-.041,2.749a6.018,6.018,0,0,1,2.127-.925,4.734,4.734,0,0,1,2.127.014,4.639,4.639,0,0,1,1.906.994,5.329,5.329,0,0,1,1.436,2.072,7.1,7.1,0,0,1,.525,1.892,16.685,16.685,0,0,1,.152,2.044q.014,1.036-.028,2.058t-.041,1.934a1.947,1.947,0,0,1-1.064,1.74,1.584,1.584,0,0,1-.967.138,1.5,1.5,0,0,1-.925-.608,2.7,2.7,0,0,1-.511-1.3,8.942,8.942,0,0,1-.055-1.588q.041-.843.124-1.727a11.789,11.789,0,0,0,.041-1.7,4.664,4.664,0,0,0-.318-1.506,2.385,2.385,0,0,0-.967-1.133,2.08,2.08,0,0,0-.994.069,2.476,2.476,0,0,0-.8.456,5.347,5.347,0,0,0-.677.691q-.318.387-.649.773a1.75,1.75,0,0,1-.193.262q-.111.124-.249.262Z" transform="translate(132 54)" fill="#e4e6ea"/><g transform="translate(-12)"><path d="M2578.037-459.426h-93.274c.356-19.141,1.6-33.6,2.575-42.361,1.048-9.38,2.018-14.364,2.059-14.571l35.52,1.747L2569.577-518l0,.011c.144.551,1.458,5.65,3.09,14.917,1.584,8.993,3.8,23.865,5.367,43.645Z" transform="translate(-2294 745.428)" fill="#a0d1a0"/><g transform="translate(135 61.407)"><g transform="translate(0 0)"><g transform="translate(71.287)"><path d="M94.31,63.429a132.586,132.586,0,0,0-4.929-27.04c-2.261-7.764-5.3-15.259-9.636-21.454S69.7,3.9,63.31,2.166A18.7,18.7,0,0,0,44.79,7.309a33.6,33.6,0,0,0-5.82,8.959c-7.556,15.956-9.244,35.453-7.08,53.851,4.7,1.243,5.489,1.984,28.366,1.039S94.31,63.429,94.31,63.429Z" transform="translate(-31.019 -1.499)" fill="#7a8293"/><path d="M0,0,10.152,42.555h7.322L24.162,0Z" transform="translate(45.33 87.098) rotate(180)" fill="#e6b88e"/><path d="M.059,32.066S7.647,61.756,22.035,61.611,42.149,29.737,42.149,29.737,44.623-.6,22.035.009C-2.249-.558.059,32.066.059,32.066Z" transform="translate(7.149 5.356) rotate(-3)" fill="#efc6a1"/><path d="M39.372,43.813c-.939-9.648-.4-17.16,2.437-26.266a57.59,57.59,0,0,0,7.466.057c.955-.05.9-8.045.9-8.045s3.211,7.72,3.824,7.651A148.366,148.366,0,0,0,74.37,13.185c4.341,12.242,3.7,17.1,3.965,27.729,7.32-11.676,7.543-12.994,7.543-12.994S78.52,3.571,74.37-.286,65.836-10.74,54.414-9.918,39.973-1.622,36.9,4.932s-5.612,27.419-5.612,27.419Z" transform="translate(-28.235 11.092)" fill="#7a8293"/><path d="M2204.209-581.408a4.04,4.04,0,0,1-2.1-1.315,16.348,16.348,0,0,1-1.681-2.092,33.324,33.324,0,0,1-1.764-2.856.982.982,0,0,1-.028-.878.983.983,0,0,1,.685-.55,66.6,66.6,0,0,1,10.99-1.468,6.274,6.274,0,0,1,3.274.615.981.981,0,0,1,.356.4c.01.021.021.044.03.067a8.184,8.184,0,0,1,1.3-.444,8.045,8.045,0,0,1,4.321.115,1.51,1.51,0,0,1,.042-.208.984.984,0,0,1,.284-.459c.468-.426,1.463-1.031,4.688-1.367a59.021,59.021,0,0,1,5.945-.254h0c2.018,0,3.51.065,3.573.068a.983.983,0,0,1,.764.423.984.984,0,0,1,.126.864,33.058,33.058,0,0,1-1.225,3.11,16.02,16.02,0,0,1-1.281,2.345,3.984,3.984,0,0,1-1.843,1.653,13.659,13.659,0,0,1-3.728.409,25.276,25.276,0,0,1-3.3-.206,4.305,4.305,0,0,1-2.443-.8,5.958,5.958,0,0,1-1.311-2.951c-.025-.106-.061-.269-.1-.466a6.112,6.112,0,0,0-5.554.237c0,.3-.01.55-.017.7a5.908,5.908,0,0,1-.764,3.133c-.163.214-.66.862-3.673,1.587a22.119,22.119,0,0,1-4.652.657A5.6,5.6,0,0,1,2204.209-581.408Zm-3.146-6.038c.273.45.613.986.986,1.523,1.653,2.378,2.4,2.561,2.48,2.575a3.766,3.766,0,0,0,.588.037,19.876,19.876,0,0,0,4.013-.56,9.848,9.848,0,0,0,2.764-.934,5.332,5.332,0,0,0,.343-1.914,10.921,10.921,0,0,0-.028-1.7,7.367,7.367,0,0,0-1.9-.181A57.679,57.679,0,0,0,2201.063-587.446Zm20.751-.088a5.334,5.334,0,0,0,.684,1.826,5.493,5.493,0,0,0,1.552.34,23.872,23.872,0,0,0,2.884.167,11.676,11.676,0,0,0,3.086-.3c.031-.011.752-.285,1.97-2.943.273-.595.512-1.181.7-1.672-.584-.013-1.323-.025-2.144-.025-6.185,0-8.309.6-9.011.927.009.129.025.29.05.475a.989.989,0,0,1,.094.579C2221.717-587.964,2221.761-587.755,2221.814-587.535Z" transform="translate(-2186.954 626.139)" fill="#313e58"/></g><path d="M5536.542,6238.054H5484c3.032-40.73,25.182-88.4,40.54-113.053h1.424c2.554.079,30.84.079,33.395,0h1.424c15.357,24.657,37.507,72.323,40.54,113.053Z" transform="translate(-5438.888 -6052.281)" fill="#85cb85"/><path d="M5601.862,6238.554h-118.4l.04-.537a179.934,179.934,0,0,1,5.468-31.469,279.657,279.657,0,0,1,10.212-31.23,320.4,320.4,0,0,1,24.934-50.582l.146-.236h1.718c1.318.041,9.328.059,16.682.059s15.364-.018,16.682-.059h1.718l.146.236a320.443,320.443,0,0,1,24.933,50.582,279.657,279.657,0,0,1,10.212,31.23,179.934,179.934,0,0,1,5.468,31.469Zm-117.322-1h116.244a179.916,179.916,0,0,0-5.4-30.755,278.652,278.652,0,0,0-10.176-31.118,319.961,319.961,0,0,0-24.7-50.181h-1.139c-1.352.041-9.357.059-16.705.059s-15.354-.019-16.705-.059h-1.139a319.919,319.919,0,0,0-24.7,50.181,278.652,278.652,0,0,0-10.176,31.118A179.916,179.916,0,0,0,5484.54,6237.554Z" transform="translate(-5438.888 -6052.281)" fill="rgba(0,0,0,0)"/><path d="M44.465,0S25.632,45.75,22.035,50.09C20.277,52.212,9.476,57.5,2.17,60.277-.762,61.392-.147,63.748.706,64.521c6.945,6.283,13.317,1.953,20.812.41,8.211-1.691,5.6,7.459,12.092,6.217C32.6,66.9,29.85,58.82,32.872,54.538,34.887,51.684,62.7,3.946,62.7,3.946Z" transform="matrix(0.978, -0.208, 0.208, 0.978, 0, 160.091)" fill="#efc6a1"/><path d="M44.465,71.264s-18.832-45.75-22.43-50.09C20.277,19.052,9.476,13.766,2.17,10.987-.762,9.871-.147,7.516.706,6.743,7.651.46,14.023,4.79,21.518,6.334,29.73,8.025,27.122-1.125,33.61.116c-1.009,4.244-3.76,12.328-.738,16.61C34.887,19.58,62.7,67.318,62.7,67.318Z" transform="matrix(-0.978, -0.208, 0.208, -0.978, 192.732, 229.797)" fill="#efc6a1"/><path d="M10.266,0S10.5,49.668,20.533,65.511H0Z" transform="translate(61.486 120.263)" fill="rgba(0,0,0,0.1)"/><path d="M10.266,0S10.032,49.668,0,65.511H20.533Z" transform="translate(125.53 120.263)" fill="rgba(0,0,0,0.1)"/><path d="M54.906,0S43.406,5.386,32.28,22.039C18.545,42.6,4.187,79.019,0,123.463H33.5C28.3,56.276,60.705,4.85,60.705,4.85Z" transform="translate(31.613 72.72)" fill="#85cb85"/><path d="M5.8,0S17.3,5.386,28.425,22.039C42.16,42.6,56.518,79.019,60.705,123.463H27.2C32.408,56.276,0,4.85,0,4.85Z" transform="translate(115.231 72.72)" fill="#85cb85"/><path d="M5543.459,6133.81h-57.016c1.032-1.017,2.092-2,3.15-2.91h50.715c1.062.918,2.122,1.9,3.149,2.909Zm-6.4-5.531h-44.209c.616-.46,1.225-.893,1.809-1.289a28.661,28.661,0,0,1,3.3-1.988l.016.014,0,0a.034.034,0,0,1,0-.009h1.334c1.25.041,8.753.059,15.634.059s14.382-.018,15.633-.059h1.335l0,0a.019.019,0,0,0,0,.008l.016-.014a28.747,28.747,0,0,1,3.3,1.988c.588.4,1.2.832,1.807,1.288Z" transform="translate(-5411.137 -6052.32)" fill="#ffd964"/><path d="M5543.459,6134.31h-58.236l.869-.856c1.034-1.019,2.1-2.006,3.174-2.933l.141-.122h51.087l.141.122c1.062.918,2.118,1.894,3.139,2.9l1.325.889Zm-55.78-1h54.544c-.691-.656-1.395-1.3-2.1-1.91H5489.78C5489.074,6132.013,5488.371,6132.652,5487.679,6133.31Zm49.377-4.531h-45.714l1.206-.9c.609-.456,1.224-.894,1.827-1.3a30.559,30.559,0,0,1,3.272-1.976l.06-.1h.15l.2-.08.094.08h1.188c1.243.04,8.74.058,15.618.058s14.374-.018,15.617-.058h1.189l.11-.093.193.093h.136l.06.1a30.989,30.989,0,0,1,3.272,1.977c.6.4,1.21.842,1.825,1.3l1.206.9Zm-42.665-1h41.121c-.183-.128-.365-.253-.544-.375a31.934,31.934,0,0,0-2.955-1.806l-.114.1-.191-.192h-1.115c-1.278.041-8.771.059-15.641.059s-14.364-.018-15.643-.059h-1.088l-.181.217-.147-.123a32.238,32.238,0,0,0-2.957,1.807Q5494.665,6127.586,5494.391,6127.778Z" transform="translate(-5411.137 -6052.32)" fill="rgba(0,0,0,0)"/></g></g></g><path d="M2850.557,25.988l-7.221-43.857h48.19L2882.7,25.988Zm-8.885-45.405v-9.915h23.04V-48.288a20.485,20.485,0,0,1-19.865-.8,20.489,20.489,0,0,1-9.841-18.066,1.956,1.956,0,0,1,1.011-1.664,20.49,20.49,0,0,1,20.568.428,20.451,20.451,0,0,1,8.126,9.289V-73.2a1.951,1.951,0,0,1,.414-1.2A20.482,20.482,0,0,1,2874.6-91.78a20.489,20.489,0,0,1,20.554-.87,1.958,1.958,0,0,1,1.047,1.642,20.491,20.491,0,0,1-9.449,18.274,20.476,20.476,0,0,1-18.123,1.948v22.9a20.465,20.465,0,0,1,11.257-12.039,20.491,20.491,0,0,1,20.425,2.473,1.959,1.959,0,0,1,.767,1.789,20.491,20.491,0,0,1-12.286,16.5,20.486,20.486,0,0,1-20.163-2.279v12.108h24.642v9.915ZM2868.628-41.8l16.483-5.943a1.959,1.959,0,0,0,1.027-2.571,1.958,1.958,0,0,0-2.571-1.027l-14.938,7.479Zm-19.583-17.955a1.959,1.959,0,0,0,.655,2.69l15.013,7.956v-2.319l-12.978-8.983a1.948,1.948,0,0,0-1.016-.285A1.956,1.956,0,0,0,2849.045-59.755ZM2868.625-73.3l13.1-7.31a1.957,1.957,0,0,0,.6-2.7,1.956,1.956,0,0,0-2.7-.6l-12.256,8.88A1.959,1.959,0,0,1,2868.625-73.3Z" transform="translate(-2505.365 261.934)" fill="#bfe2e2"/><path d="M2883.109,26.487h-32.976l-.069-.419-7.317-44.438h49.39l-.12.6Zm-32.128-1h31.309l8.625-42.857h-46.991Zm42.788-44.405h-52.6V-29.833h23.04V-47.5a21.169,21.169,0,0,1-8.724,1.9,20.974,20.974,0,0,1-10.9-3.059,21,21,0,0,1-7.552-7.934,21.092,21.092,0,0,1-2.529-10.572,2.464,2.464,0,0,1,1.27-2.089,21.121,21.121,0,0,1,10.168-2.621,20.976,20.976,0,0,1,10.9,3.059,20.878,20.878,0,0,1,7.366,7.6V-73.2a2.432,2.432,0,0,1,.414-1.365,21.1,21.1,0,0,1,2.533-9.941,21.028,21.028,0,0,1,7.171-7.7,20.94,20.94,0,0,1,11.283-3.3,21.157,21.157,0,0,1,9.771,2.407,2.469,2.469,0,0,1,1.314,2.061,21.1,21.1,0,0,1-2.3,10.625,21,21,0,0,1-7.379,8.1,20.95,20.95,0,0,1-11.283,3.3,20.962,20.962,0,0,1-6.609-1.066v19.713a20.867,20.867,0,0,1,3.445-5,20.859,20.859,0,0,1,7.115-5.011,20.875,20.875,0,0,1,8.272-1.7,20.955,20.955,0,0,1,6.632,1.076,21.052,21.052,0,0,1,6.018,3.16,2.467,2.467,0,0,1,.962,2.246,21.091,21.091,0,0,1-3.992,10.111,21,21,0,0,1-8.593,6.792,20.869,20.869,0,0,1-8.272,1.7,20.955,20.955,0,0,1-6.478-1.025,21.033,21.033,0,0,1-5.11-2.461v10.653h24.642Zm-51.6-1h50.6v-8.915h-24.642V-44.171l15.241-7.63a2.441,2.441,0,0,1,.968-.2,2.458,2.458,0,0,1,2.26,1.489,2.462,2.462,0,0,1-1.289,3.228l-.028.011-15.918,5.74a20.042,20.042,0,0,0,5.184,2.558,19.957,19.957,0,0,0,6.169.977,19.875,19.875,0,0,0,7.878-1.622,20,20,0,0,0,8.184-6.468,20.094,20.094,0,0,0,3.8-9.631,1.463,1.463,0,0,0-.571-1.332,20.052,20.052,0,0,0-5.732-3.01,19.957,19.957,0,0,0-6.316-1.025,19.882,19.882,0,0,0-7.878,1.622,19.864,19.864,0,0,0-6.776,4.772,19.891,19.891,0,0,0-4.206,6.973l-.972-.166V-71.5l.673.248a19.978,19.978,0,0,0,6.936,1.239,19.95,19.95,0,0,0,10.745-3.14,20,20,0,0,0,7.027-7.709,20.091,20.091,0,0,0,2.191-10.12,1.464,1.464,0,0,0-.78-1.223,20.151,20.151,0,0,0-9.307-2.292,19.942,19.942,0,0,0-10.746,3.141,20.029,20.029,0,0,0-6.829,7.332,20.1,20.1,0,0,0-2.413,9.624v.173l-.106.136a1.444,1.444,0,0,0-.308.9v14.1l-.958.2a19.888,19.888,0,0,0-7.928-9.062,19.978,19.978,0,0,0-10.381-2.914,20.117,20.117,0,0,0-9.686,2.5,1.461,1.461,0,0,0-.753,1.239,20.09,20.09,0,0,0,2.409,10.07,20,20,0,0,0,7.192,7.555,19.975,19.975,0,0,0,10.381,2.913,20.159,20.159,0,0,0,8.928-2.1l-14.977-7.938a2.463,2.463,0,0,1-.822-3.377,2.442,2.442,0,0,1,2.1-1.181,2.454,2.454,0,0,1,1.275.358l.025.016,13.193,9.132v22.856h-23.04Zm26.955-23.636v1.042l15.8-5.7a1.461,1.461,0,0,0,.752-1.909,1.458,1.458,0,0,0-1.341-.883,1.449,1.449,0,0,0-.561.113ZM2849.948-57.5l14.265,7.559v-1.226l-12.75-8.824a1.453,1.453,0,0,0-.744-.206v0a1.449,1.449,0,0,0-1.247.7A1.461,1.461,0,0,0,2849.948-57.5Zm18.219-14.97-.041-.8a1.458,1.458,0,0,0-.938-1.288l-.865-.329,13.031-9.44a2.452,2.452,0,0,1,1.321-.386,2.444,2.444,0,0,1,2.073,1.137,2.437,2.437,0,0,1,.328,1.851A2.441,2.441,0,0,1,2882-80.186l-.025.015Zm.1-2.6a2.463,2.463,0,0,1,.7,1l12.5-6.974a1.448,1.448,0,0,0,.627-.907,1.445,1.445,0,0,0-.195-1.1,1.449,1.449,0,0,0-1.229-.675,1.453,1.453,0,0,0-.771.222Z" transform="translate(-2505.365 261.934)" fill="rgba(0,0,0,0)"/><path d="M77.914,7.278C78.4,3.443,75.866,0,72.568,0H6.195C2.9,0,.368,3.443.849,7.278l5.13,40.89c1.564,12.465,10.664,21.7,21.383,21.7H51.4c10.719,0,19.819-9.235,21.383-21.7Z" transform="translate(-39.382 298.501)" fill="#bfe2e2"/><path d="M3,2A1,1,0,0,0,2,3V17a1,1,0,0,0,1,1H349a1,1,0,0,0,1-1V3a1,1,0,0,0-1-1H3M3,0H349a3,3,0,0,1,3,3V17a3,3,0,0,1-3,3H3a3,3,0,0,1-3-3V3A3,3,0,0,1,3,0Z" transform="translate(58 286)" fill="#5bb3b3"/><path d="M-2279.61,837.6h-2V824h2Z" transform="translate(2352 -518)" fill="#5bb3b3"/><path d="M103.945,1H0A1,1,0,0,1-1,0,1,1,0,0,1,0-1H103.945a1,1,0,0,1,1,1A1,1,0,0,1,103.945,1Z" transform="translate(334.2 120.837)" fill="#5bb3b3"/><path d="M75.969,103.37H59.706a1,1,0,0,1-1-1v-76.7a1,1,0,0,1,.652-.937,27.2,27.2,0,0,1,8.456-1.51,27.685,27.685,0,0,1,8.5,1.509,1,1,0,0,1,.656.939v76.7A1,1,0,0,1,75.969,103.37Zm-15.263-2H74.969V26.391a25.719,25.719,0,0,0-7.155-1.171,25.288,25.288,0,0,0-7.108,1.169Z" transform="translate(329.563 13.332)" fill="#5bb3b3"/><path d="M56.2,99.666H43.069a1,1,0,0,1-1-1V38.952a1,1,0,0,1,.663-.941,22.86,22.86,0,0,1,6.883-1.186,23.26,23.26,0,0,1,6.917,1.184,1,1,0,0,1,.666.943V98.666A1,1,0,0,1,56.2,99.666Zm-12.129-2H55.2V39.687a21.162,21.162,0,0,0-5.583-.862,20.735,20.735,0,0,0-5.546.859Z" transform="translate(325.837 17.036)" fill="#5bb3b3"/><path d="M21.5,104.772H2.147a1,1,0,0,1-1-1V20.639a1,1,0,0,1,.68-.947,34.829,34.829,0,0,1,9.967-1.621,35.467,35.467,0,0,1,10.019,1.62,1,1,0,0,1,.683.948v83.133A1,1,0,0,1,21.5,104.772Zm-18.349-2H20.5V21.381a33.721,33.721,0,0,0-8.7-1.311,33.144,33.144,0,0,0-8.647,1.309Z" transform="translate(340.335 11.93)" fill="#5bb3b3"/><path d="M9.224,1H0A1,1,0,0,1-1,0,1,1,0,0,1,0-1H9.224a1,1,0,0,1,1,1A1,1,0,0,1,9.224,1Z" transform="translate(392.527 54.677)" fill="#5bb3b3"/><path d="M9.224,1H0A1,1,0,0,1-1,0,1,1,0,0,1,0-1H9.224a1,1,0,0,1,1,1A1,1,0,0,1,9.224,1Z" transform="translate(392.527 58.86)" fill="#5bb3b3"/><path d="M0,24.879a1,1,0,0,1-1-1V0A1,1,0,0,1,0-1,1,1,0,0,1,1,0V23.879A1,1,0,0,1,0,24.879Z" transform="translate(375.364 81.02)" fill="#5bb3b3"/><path d="M10.211,7.194a11.216,11.216,0,0,0-6,2.429A7.5,7.5,0,0,0,2,15.5C2,22.4,7.233,28,13.666,28S25.332,22.4,25.332,15.5A7.6,7.6,0,0,0,23.1,9.562a10.628,10.628,0,0,0-5.953-2.367,4.929,4.929,0,0,0-.79.426,5.12,5.12,0,0,1-2.695.964A5.579,5.579,0,0,1,10.7,7.49c-.145-.092-.344-.217-.486-.3m.124-2.029c.919,0,2.106,1.419,3.331,1.419,1.192,0,2.349-1.548,3.679-1.381,5.649.7,9.986,3.558,9.986,10.3,0,8.007-6.118,14.5-13.666,14.5S0,23.511,0,15.5C0,8.849,4.225,5.983,10.222,5.173A.833.833,0,0,1,10.335,5.165Z" transform="translate(97.334 256.481)" fill="#5ab3b3"/><path d="M-2243.488,770.47a1,1,0,0,1-.187-.018,1,1,0,0,1-.8-1.169c.465-2.458-1.646-4.46-1.667-4.48a1,1,0,0,1-.05-1.413,1,1,0,0,1,1.413-.049c.12.112,2.937,2.786,2.268,6.315A1,1,0,0,1-2243.488,770.47Z" transform="translate(2354.672 -505.642)" fill="#5bb3b3"/><path d="M-2245.564,763.035a1,1,0,0,1-.546-.162,1,1,0,0,1-.435-.643c-.7-3.536-.225-6.368,1.419-8.416a9.24,9.24,0,0,1,6.5-3.1h.022a1,1,0,0,1,.722.309,1,1,0,0,1,.275.757,18.177,18.177,0,0,1-1.156,4.925c-1.36,3.466-3.635,5.647-6.58,6.307A1,1,0,0,1-2245.564,763.035Zm5.792-10.152a6.676,6.676,0,0,0-3.8,2.2,7.344,7.344,0,0,0-1.187,5.657C-2241.32,759.3-2240.149,755.016-2239.772,752.884Z" transform="translate(2356.859 -501.157)" fill="#5bb3b3"/></g></svg>