<svg xmlns="http://www.w3.org/2000/svg" xmlns:xlink="http://www.w3.org/1999/xlink" width="400" height="320" viewBox="0 0 400 320">
    <defs>
        <clipPath>
            <rect width="90.065" height="107.224" fill="#bfe2e2" />
        </clipPath>
        <clipPath id="c">
            <rect width="400" height="320" />
        </clipPath>
    </defs>
    <g clip-path="url(#c)">
        <rect width="400" height="320" fill="transparent" />
        <path d="M24,1H0A1,1,0,0,1-1,0,1,1,0,0,1,0-1H24a1,1,0,0,1,1,1A1,1,0,0,1,24,1Z" transform="translate(349.5 158.5)" fill="#5ab3b3" />
        <g transform="translate(-291.535 -4)">
            <path d="M102.846,1H0A1,1,0,0,1-1,0,1,1,0,0,1,0-1H102.846a1,1,0,0,1,1,1A1,1,0,0,1,102.846,1Z" transform="translate(291.535 75.775)" fill="#5ab3b3" />
            <path d="M2.744-1h7.01A3.748,3.748,0,0,1,13.5,2.744V53.815a3.748,3.748,0,0,1-3.744,3.744H2.744A3.748,3.748,0,0,1-1,53.815V2.744A3.748,3.748,0,0,1,2.744-1Zm7.01,56.559A1.746,1.746,0,0,0,11.5,53.815V2.744A1.746,1.746,0,0,0,9.754,1H2.744A1.746,1.746,0,0,0,1,2.744V53.815a1.746,1.746,0,0,0,1.744,1.744Z" transform="translate(328.231 14.146)" fill="#5ab3b3" />
            <g transform="translate(332.194 39.826)">
                <path d="M4.572,1H0A1,1,0,0,1-1,0,1,1,0,0,1,0-1H4.572a1,1,0,0,1,1,1A1,1,0,0,1,4.572,1Z" fill="#5ab3b3" />
                <path d="M4.572,1H0A1,1,0,0,1-1,0,1,1,0,0,1,0-1H4.572a1,1,0,0,1,1,1A1,1,0,0,1,4.572,1Z" transform="translate(0 5.114)" fill="#5ab3b3" />
            </g>
            <path d="M2.744-1h7.01A3.748,3.748,0,0,1,13.5,2.744V53.815a3.748,3.748,0,0,1-3.744,3.744H2.744A3.748,3.748,0,0,1-1,53.815V2.744A3.748,3.748,0,0,1,2.744-1Zm7.01,56.559A1.746,1.746,0,0,0,11.5,53.815V2.744A1.746,1.746,0,0,0,9.754,1H2.744A1.746,1.746,0,0,0,1,2.744V53.815a1.746,1.746,0,0,0,1.744,1.744Z" transform="matrix(-0.956, -0.293, 0.293, -0.956, 306.555, 71.293)" fill="#5ab3b3" />
            <g transform="translate(305.938 39.27)">
                <path d="M4.372,2.339a1,1,0,0,1-.293-.044L-.293.956A1,1,0,0,1-.956-.293,1,1,0,0,1,.293-.956L4.665.383a1,1,0,0,1-.292,1.956Z" transform="translate(1.497)" fill="#5ab3b3" />
                <path d="M4.372,2.339a1,1,0,0,1-.293-.044L-.293.956A1,1,0,0,1-.956-.293,1,1,0,0,1,.293-.956L4.665.383a1,1,0,0,1-.292,1.956Z" transform="translate(0 4.889)" fill="#5ab3b3" />
            </g>
            <path d="M2.744-1h7.01A3.748,3.748,0,0,1,13.5,2.744V53.815a3.748,3.748,0,0,1-3.744,3.744H2.744A3.748,3.748,0,0,1-1,53.815V2.744A3.748,3.748,0,0,1,2.744-1Zm7.01,56.559A1.746,1.746,0,0,0,11.5,53.815V2.744A1.746,1.746,0,0,0,9.754,1H2.744A1.746,1.746,0,0,0,1,2.744V53.815a1.746,1.746,0,0,0,1.744,1.744Z" transform="translate(345.49 14.146)" fill="#5ab3b3" />
            <g transform="translate(349.452 39.826)">
                <path d="M4.572,1H0A1,1,0,0,1-1,0,1,1,0,0,1,0-1H4.572a1,1,0,0,1,1,1A1,1,0,0,1,4.572,1Z" fill="#5ab3b3" />
                <path d="M4.572,1H0A1,1,0,0,1-1,0,1,1,0,0,1,0-1H4.572a1,1,0,0,1,1,1A1,1,0,0,1,4.572,1Z" transform="translate(0 5.114)" fill="#5ab3b3" />
            </g>
            <path d="M2.744-1h7.01A3.748,3.748,0,0,1,13.5,2.744V53.815a3.748,3.748,0,0,1-3.744,3.744H2.744A3.748,3.748,0,0,1-1,53.815V2.744A3.748,3.748,0,0,1,2.744-1Zm7.01,56.559A1.746,1.746,0,0,0,11.5,53.815V2.744A1.746,1.746,0,0,0,9.754,1H2.744A1.746,1.746,0,0,0,1,2.744V53.815a1.746,1.746,0,0,0,1.744,1.744Z" transform="translate(380.883 14.146)" fill="#5ab3b3" />
            <path d="M2.744-1h7.01A3.748,3.748,0,0,1,13.5,2.744V53.815a3.748,3.748,0,0,1-3.744,3.744H2.744A3.748,3.748,0,0,1-1,53.815V2.744A3.748,3.748,0,0,1,2.744-1Zm7.01,56.559A1.746,1.746,0,0,0,11.5,53.815V2.744A1.746,1.746,0,0,0,9.754,1H2.744A1.746,1.746,0,0,0,1,2.744V53.815a1.746,1.746,0,0,0,1.744,1.744Z" transform="translate(362.748 14.146)" fill="#5ab3b3" />
            <g transform="translate(384.846 39.826)">
                <path d="M4.572,1H0A1,1,0,0,1-1,0,1,1,0,0,1,0-1H4.572a1,1,0,0,1,1,1A1,1,0,0,1,4.572,1Z" fill="#5ab3b3" />
                <path d="M4.572,1H0A1,1,0,0,1-1,0,1,1,0,0,1,0-1H4.572a1,1,0,0,1,1,1A1,1,0,0,1,4.572,1Z" transform="translate(0 5.114)" fill="#5ab3b3" />
            </g>
            <g transform="translate(366.71 39.826)">
                <path d="M4.572,1H0A1,1,0,0,1-1,0,1,1,0,0,1,0-1H4.572a1,1,0,0,1,1,1A1,1,0,0,1,4.572,1Z" fill="#5ab3b3" />
                <path d="M4.572,1H0A1,1,0,0,1-1,0,1,1,0,0,1,0-1H4.572a1,1,0,0,1,1,1A1,1,0,0,1,4.572,1Z" transform="translate(0 5.114)" fill="#5ab3b3" />
            </g>
        </g>
        <path d="M397.678,1H0A1,1,0,0,1-1,0,1,1,0,0,1,0-1H397.678a1,1,0,0,1,1,1A1,1,0,0,1,397.678,1Z" transform="translate(1 224.525)" fill="#5ab3b3" />
        <path d="M397.678,1H0A1,1,0,0,1-1,0,1,1,0,0,1,0-1H397.678a1,1,0,0,1,1,1A1,1,0,0,1,397.678,1Z" transform="translate(1 236.525)" fill="#5ab3b3" />
        <path d="M336,1H0A1,1,0,0,1-1,0,1,1,0,0,1,0-1H336a1,1,0,0,1,1,1A1,1,0,0,1,336,1Z" transform="translate(1.5 158.5)" fill="#5ab3b3" />
        <g transform="translate(-65.789 -4.944)">
            <path d="M22.262-1A23.255,23.255,0,0,1,38.71,38.71,23.262,23.262,0,1,1,13.207.828,23.117,23.117,0,0,1,22.262-1Zm0,44.523A21.268,21.268,0,0,0,30.537,2.67,21.267,21.267,0,0,0,13.986,41.853,21.128,21.128,0,0,0,22.262,43.523Z" transform="translate(202.862 22.347)" fill="#5bb3b3" />
            <path d="M28.331-1A29.338,29.338,0,0,1,39.748,55.356,29.338,29.338,0,0,1,16.913,1.305,29.148,29.148,0,0,1,28.331-1Zm0,56.661A27.338,27.338,0,0,0,38.969,3.147,27.338,27.338,0,0,0,17.693,53.514,27.159,27.159,0,0,0,28.331,55.661Z" transform="translate(196.792 16.278)" fill="#5bb3b3" />
            <path d="M135.186,36.534a1,1,0,0,1-.7-.282l-9.877-9.577a1,1,0,0,1-.3-.718V8.66a1,1,0,0,1,2,0V25.534l9.573,9.282a1,1,0,0,1-.7,1.718Z" transform="translate(99.965 18.801)" fill="#5bb3b3" />
        </g>
        <g transform="translate(297.156 10.761)">
            <g transform="translate(5 15)">
                <g transform="translate(0 9.568)">
                    <path d="M73.709,48.533a1,1,0,0,1-.346-.062L51.375,40.359a1,1,0,0,1-.443-1.552L72.76,10.725a1,1,0,0,1,1.287-.254L79.663,13.7a1,1,0,0,1,.489,1.031L74.7,47.7a1,1,0,0,1-.987.837ZM53.349,38.955l19.57,7.221,5.146-31.091-4.26-2.446Z" transform="translate(-51.721 -11.339)" fill="#5bb3b3" />
                    <path d="M16.088,6.573a1,1,0,0,1-.345-.062L-.345.6A1,1,0,0,1-.939-.679,1,1,0,0,1,.345-1.273L16.433,4.634a1,1,0,0,1-.345,1.939Z" transform="translate(7.918 18.63)" fill="#5bb3b3" />
                </g>
                <path d="M28.087,113.607q-.047,0-.095,0a1,1,0,0,1-.9-1.089c.595-6.314,2.466-22.476,6.99-36.151a104.007,104.007,0,0,1,6.2-13.858c3.311-6.558,6.734-13.337,8.488-21.052A44.658,44.658,0,0,0,49.88,29.243a48.2,48.2,0,0,0-2.843-13.877C44.64,8.661,41.057,4.434,36.386,2.8c-4.333-1.514-9.673-.891-15.874,1.854A59.5,59.5,0,0,0,8.568,11.962a1,1,0,1,1-1.232-1.575A61.549,61.549,0,0,1,19.7,2.827C26.382-.13,32.217-.774,37.045.914c5.269,1.841,9.265,6.477,11.875,13.779a47.381,47.381,0,0,1,1.8,27.2c-1.809,7.953-5.288,14.844-8.652,21.508a102.6,102.6,0,0,0-6.085,13.586c-4.46,13.481-6.31,29.465-6.9,35.711A1,1,0,0,1,28.087,113.607Z" transform="translate(15.166 -1)" fill="#5bb3b3" />
                <path d="M29.982,120.567l.061,0,6.912.421a1,1,0,0,1,.938.953c.018.388,1.752,38.873,1.849,42.17a1,1,0,0,1-.385.818,9.415,9.415,0,0,1-5.9,2.08A11.948,11.948,0,0,1,27,164.95a1,1,0,0,1-.409-.864l2.39-42.575a1,1,0,0,1,1-.944Zm5.953,2.365-5.011-.305-2.3,40.988a9.943,9.943,0,0,0,4.831,1.4,7.375,7.375,0,0,0,4.27-1.361C37.536,158.527,36.188,128.535,35.935,122.932Z" transform="translate(8.255 -9.999)" fill="#5bb3b3" />
                <path d="M31.183,176.562a96.823,96.823,0,0,1-21.576-2.15,26.618,26.618,0,0,1-6.729-2.406C.968,170.921,0,169.68,0,168.315c0-2.192,2.482-4.118,7.177-5.569a69.5,69.5,0,0,1,17.848-2.457,1,1,0,0,1,.056,2,68.537,68.537,0,0,0-17.313,2.369C3.511,165.972,2,167.45,2,168.315c0,.567.68,1.279,1.866,1.952a25.084,25.084,0,0,0,6.208,2.2,94.807,94.807,0,0,0,21.109,2.095,94.8,94.8,0,0,0,21.108-2.095,25.083,25.083,0,0,0,6.208-2.2c1.186-.673,1.866-1.384,1.866-1.952,0-.867-1.65-2.353-6.3-3.688a79.206,79.206,0,0,0-17.269-2.434,1,1,0,1,1,.091-2,81.2,81.2,0,0,1,17.73,2.51c5.142,1.476,7.75,3.363,7.75,5.61,0,1.365-.968,2.607-2.878,3.691a26.617,26.617,0,0,1-6.729,2.406A96.817,96.817,0,0,1,31.183,176.562Z" transform="translate(10.239 -12.956)" fill="#5bb3b3" />
                <path d="M31.183,187.707a96.807,96.807,0,0,1-21.576-2.151,26.617,26.617,0,0,1-6.729-2.407C.968,182.065,0,180.823,0,179.459v-10.57a1,1,0,0,1,2,0v10.57c0,.567.68,1.279,1.866,1.952a25.084,25.084,0,0,0,6.208,2.2,94.789,94.789,0,0,0,21.109,2.1,94.783,94.783,0,0,0,21.108-2.1,25.084,25.084,0,0,0,6.208-2.2c1.186-.673,1.866-1.385,1.866-1.952v-10.57a1,1,0,0,1,2,0v10.57c0,1.365-.968,2.607-2.878,3.691a26.618,26.618,0,0,1-6.729,2.407A96.8,96.8,0,0,1,31.183,187.707Z" transform="translate(10.239 -13.53)" fill="#5bb3b3" />
                <path d="M20.662,109.831q-.047,0-.1,0a1,1,0,0,1-.9-1.089c1.43-15.171,3.768-27.966,6.761-37a71.13,71.13,0,0,1,4.924-11.358c.444-.879.895-1.756,1.371-2.686,6.191-12.067,13.9-27.086,7.554-44.81a21.453,21.453,0,0,0-3.88-7.22,12.371,12.371,0,0,0-5.454-3.457L30.925,2.2a13.147,13.147,0,0,0-6.169-.559,26.449,26.449,0,0,0-6.636,1.821A46.657,46.657,0,0,0,7.612,9.549,1,1,0,0,1,6.38,7.973,48.784,48.784,0,0,1,17.368,1.608,28.433,28.433,0,0,1,24.513-.345a15.118,15.118,0,0,1,7.1.665,14.445,14.445,0,0,1,6.276,4.007,23.311,23.311,0,0,1,4.274,7.881,42.651,42.651,0,0,1,1,25.621C41.2,45.552,37.64,52.487,34.5,58.605c-.475.927-.924,1.8-1.366,2.675a69.572,69.572,0,0,0-4.811,11.085c-2.946,8.894-5.252,21.536-6.668,36.559A1,1,0,0,1,20.662,109.831Z" transform="translate(19.164 2.738)" fill="#5bb3b3" />
            </g>
        </g>
        <g transform="translate(9)">
            <path d="M54.7,29.071,20.3,13.962A81.528,81.528,0,0,0,2.836.268C1.158-.267-1.71-.428,1.349,4.04s16.6,19.349,16.6,19.349L43.714,43.145Z" transform="translate(142.297 162.793)" fill="#efc6a1" />
            <path d="M0,93.811,8.056,95.93C27.384,80.207,38.286,39.324,50.639,34.867c11.68-4.214,27.152,2.206,45.472,10.65l6.925-12.435C87.477,12.987,52.24-5.924,36.615,1.745,11.635,14.006,1.677,64.733,0,93.811Z" transform="matrix(-0.996, 0.087, -0.087, -0.996, 258.161, 208.53)" fill="#708daf" />
            <g transform="translate(-153.886 3455.308)">
                <path d="M24.342,0l61,48.134L53.255,60.68,0,22.826Z" transform="translate(316.705 -3256.134) rotate(-160)" fill="#fff" />
                <path d="M24.342-1a1,1,0,0,1,.619.215l61,48.134a1,1,0,0,1-.255,1.716L53.619,61.611a1,1,0,0,1-.944-.116L-.579,23.641A1,1,0,0,1-1,22.893a1,1,0,0,1,.314-.8L23.658-.729A1,1,0,0,1,24.342-1ZM83.348,47.838,24.4,1.318,1.576,22.719,53.394,59.552Z" transform="translate(316.705 -3256.134) rotate(-160)" fill="#5bb3b3" />
                <path d="M-2066.192-4705.034l-23.935,7.378-31.557-48.245,26.565-.967Z" transform="translate(2380.876 1418.884)" fill="#bfe2e2" />
                <ellipse cx="2.574" cy="2.574" rx="2.574" ry="2.574" transform="matrix(-0.839, 0.545, -0.545, -0.839, 310.579, -3277.095)" fill="#5bb3b3" />
            </g>
            <g transform="translate(221.851 59.597)">
                <path d="M0,0,8.262,38.51C3.655,43.919.536,50.548,1.057,57.974c1.5,21.4,31.292,16.692,37.086,5.891s5.107-38.2-2.382-40.129c-2.987-.77-9.349,1.116-15.825,5.019L24,0Z" transform="translate(42 73) rotate(180)" fill="#b28b67" />
            </g>
            <path d="M38.167,46.308c3.012-13.4,11.594-22.536,10.283-28.526a10.2,10.2,0,0,0-6.986-7.45S38.528-1.543,22.529.23-3.235,8.648.982,23.268c3.876,0,8.556-1.4,15.027,1,3.08,1.143,4.406,7.09,4.406,7.09h2.924s4.257-7.057,8.4-5.187,1.881,9.087,1.881,9.087l1.44,11.049Z" transform="translate(219.266 52.597)" fill="#313e58" />
            <path d="M57.131,5.354c-1,12.65-2.861,56.444-1,76.715.785,8.557,1.633,16.7,2.465,23.927C40.738,73.88,11.516,26.9,11.516,26.9L0,32.16S13.566,76.854,22.247,95.265c9.91,21.017,19.2,39.015,23.112,45.355,6.151,9.971,16.86,6.492,22.518.456,8.237,4.946,22.056-1.409,22.046-8.482C89.895,111.429,70.58,11.68,69.572,5.375,69.038,2.038,65.76,0,62.7,0,59.977,0,57.427,1.611,57.131,5.354Z" transform="translate(209.774 377.428) rotate(180)" fill="#b28b67" />
            <path d="M0,0,5.118,101.51c3.688,17.553,34.907,9.406,34.894,0C39.982,80.155,27.154,6.383,27.145.021Z" transform="translate(208.951 328.722) rotate(160)" fill="#313e58" />
            <path d="M0,36.433C0,63,12.617,124.97,12.625,130.82l27.146.021S33.81,47.9,35.544,47s71.051,6.921,91.84,6.921c29.979,0,42.38-18.9,43.386-53.925H111.384C99.292,1.294,36.222,14.015,12.8,18.388,2.77,20.261,0,29.115,0,36.433Z" transform="translate(117.081 215.597)" fill="#7a8293" />
            <path d="M77,114H0S26.163,34.208,26.73,4.472c.019-1.011,1.886-2.792,2.712-2.558C38.5,4.472,48.828,0,48.828,0,67.083,29.358,73.4,65.5,77,114Z" transform="translate(210.851 110.597)" fill="#f2f2f2" />
            <path d="M1.421,0H42.478C76.459,0,67.857,69.174,44.8,138.606H32.867a5.417,5.417,0,0,1-4.941-3.377C12.038,104.582-5.1,43.822,1.421,0Z" transform="translate(297.921 249.203) rotate(180)" fill="#96b7df" />
            <g transform="translate(127.004 111.374)">
                <path d="M23.707,16.229s13.708,4.676,17.745,4.338,24.189-6.689,24.189-6.689-2.231-3.531-18.09,0c-1.33-1.03,4.626-5.753-1.335-8.867S42.8-1.76,23.707,2.97C21.491,3.519.312,0,.312,0s-.7,8.557,0,10.939C4.375,12.636,23.707,16.229,23.707,16.229Z" transform="translate(60.861 79.22) rotate(-158)" fill="#b28b67" />
                <path d="M0,93.811,8.056,95.93C27.384,80.207,38.286,39.324,50.639,34.867c11.68-4.214,27.152,2.206,45.472,10.65l6.925-12.435C87.477,12.987,52.24-5.924,36.615,1.745,11.635,14.006,1.677,64.733,0,93.811Z" transform="matrix(-0.996, 0.087, -0.087, -0.996, 151.31, 95.564)" fill="#96b7df" />
            </g>
        </g>
        <g transform="translate(352.646 78.172)">
            <g transform="translate(0 0)" clip-path="url(#a)">
                <path d="M19,61.068c0,26.236,2.024,47.5,29.2,47.5S77.4,87.3,77.4,61.068" transform="translate(-0.419 -1.348)" fill="#bfe2e2" />
                <path d="M55.864,43.351A55.664,55.664,0,0,0,53.2,48.73a75.243,75.243,0,0,1,.73-11.373c.948-6.569,2.395-13.1,3.755-19.626.978-4.688.916-13.109,4.627-16.846,1.018-.8,1.259.777,1.259,1.467.013.146,0-2.806-.991-2.292-5.868,3.1-7.772,12.849-9.651,17.73a95.6,95.6,0,0,0-6.031,21.816,49.887,49.887,0,0,0-.406,5.613c-.2-.5-.391-1-.595-1.5A101.841,101.841,0,0,0,32.23,20.353C30.826,18.554,13.178.8,11.8,3.521a1.857,1.857,0,0,0,.857.978c.025.029.026.014.012-.031,1.037,1.712,3.984,4.357,4.9,5.857A114.321,114.321,0,0,1,23.5,22.036c3.855,8.305,7.432,16.7,10.9,25.1.807,1.956,1.649,3.906,2.506,5.847C28.053,39.937,16.249,28.089,0,21.306c5.55,2.888,9.192,8.32,12.936,12.479,4.52,5.017,9.281,9.9,13.81,14.91,5.341,5.912,11.627,12.137,16.765,18.678,4.977,10.685,9.813,21.382,12.8,32.615-1.223-3.88-.1-9.243-.305-13.316a91.855,91.855,0,0,0-1.044-9.667,20.155,20.155,0,0,1,1.413,4.243c-.224-2.26-.481-4.505-.758-6.74.711-2.092,1.408-4.043,1.88-5.65A147.156,147.156,0,0,1,66.7,44.606,217.57,217.57,0,0,1,79.018,23.092c2.113-3.261,4.256-6.51,6.386-9.765C86.8,11.2,88.124,7.785,90.065,5.744,77.524,17.469,63.821,29.28,55.864,43.351" transform="translate(0 0)" fill="#bfe2e2" />
            </g>
        </g>
        <g transform="translate(-72.303 43.092)">
            <path d="M1.526,0A1.408,1.408,0,0,0,.062,1.393C-.292,6.3.884,25.147,3.208,51.821,5.351,76.434,7.888,100.859,9.52,112.6c3.086,22.206,6.735,46.118,10.4,55.1,3.413,8.374,9.545,19.317,18.224,32.524a44.787,44.787,0,0,0,6.519,7.4c2.458,2.333,5.436,4.866,8.612,7.324,2.733,2.115,5.523,4.1,7.855,5.6,2.21,1.42,3.758,2.234,4.248,2.234.109,0,.166-.041.167-.121.089-4.069-1.248-10.3-2.428-15.793-.6-2.782-1.162-5.41-1.475-7.462a51.558,51.558,0,0,0-5.149-15.661,82.347,82.347,0,0,0-9.534-14.435c-3.659-4.545-8.266-9.6-14.7-12.672a25.005,25.005,0,0,0-4.994-1.56,28,28,0,0,1-4.241-1.243c-.528-.22-.934-.379-1.23-.5-.96-.377-.96-.377-1.073-.809a6.849,6.849,0,0,0-.713-1.71c-1.616-2.962-2.366-6.526-3.091-9.972-.209-.994-.407-1.933-.623-2.846-2.12-8.955-5.82-36.987-9-68.169C5.7,54.21,4.453,39.8,3.68,28.16,2.8,14.892,2.574,5.9,3.01,1.424a1.181,1.181,0,0,0-.3-.934A1.611,1.611,0,0,0,1.526,0Z" transform="matrix(-0.985, -0.174, 0.174, -0.985, 87.871, 230.781)" fill="#bfe2e2" />
            <path d="M1.526-.5v0A2.118,2.118,0,0,1,3.081.155a1.691,1.691,0,0,1,.427,1.318c-.434,4.446-.209,13.414.671,26.654C4.951,39.76,6.2,54.165,7.793,69.784c3.177,31.163,6.872,59.168,8.988,68.1.218.921.416,1.862.625,2.858.718,3.411,1.46,6.938,3.041,9.835A7.3,7.3,0,0,1,21.2,152.4c.015.057.033.127.045.16a6.115,6.115,0,0,0,.727.311c.3.117.707.278,1.239.5a27.629,27.629,0,0,0,4.164,1.219,25.38,25.38,0,0,1,5.094,1.6C39,159.3,43.653,164.41,47.347,169a82.838,82.838,0,0,1,9.59,14.523,52.05,52.05,0,0,1,5.2,15.811c.312,2.036.874,4.657,1.47,7.431,1.186,5.523,2.53,11.782,2.439,15.91a.628.628,0,0,1-.667.61c-.918,0-3.628-1.741-4.519-2.313-2.344-1.506-5.147-3.505-7.891-5.628-3.19-2.468-6.181-5.012-8.65-7.357a45.264,45.264,0,0,1-6.593-7.484c-8.7-13.235-14.844-24.206-18.269-32.61-3.684-9.036-7.34-32.986-10.43-55.222-1.633-11.749-4.171-36.184-6.315-60.8C.384,25.165-.792,6.284-.437,1.357A1.9,1.9,0,0,1,1.526-.5ZM65.048,222.188c-.016-4.014-1.291-9.951-2.421-15.213-.6-2.791-1.165-5.426-1.481-7.491a51.068,51.068,0,0,0-5.1-15.511,81.858,81.858,0,0,0-9.477-14.347c-3.623-4.5-8.182-9.51-14.524-12.535a24.635,24.635,0,0,0-4.894-1.525,28.365,28.365,0,0,1-4.318-1.269c-.524-.218-.927-.376-1.221-.492-.99-.389-1.2-.47-1.374-1.147a6.4,6.4,0,0,0-.668-1.6c-1.651-3.027-2.409-6.626-3.141-10.108-.208-.991-.405-1.926-.62-2.834-2.124-8.974-5.829-37.032-9.009-68.233C5.205,54.255,3.954,39.838,3.181,28.193,2.3,14.9,2.073,5.876,2.513,1.375A.685.685,0,0,0,2.34.826,1.121,1.121,0,0,0,1.526.5v0a.918.918,0,0,0-.965.929c-.352,4.877.824,23.7,3.145,50.349,2.143,24.605,4.679,49.02,6.31,60.754,3.082,22.175,6.723,46.049,10.366,54.983,3.4,8.344,9.517,19.258,18.179,32.438a44.309,44.309,0,0,0,6.445,7.308c2.446,2.322,5.41,4.843,8.574,7.291,2.722,2.106,5.5,4.087,7.82,5.578A22.95,22.95,0,0,0,65.048,222.188Z" transform="matrix(-0.985, -0.174, 0.174, -0.985, 87.871, 230.781)" fill="rgba(0,0,0,0)" />
            <path d="M78.449,106.455c8.543,4.782,17.79-4.243,10.06-9.026a9.452,9.452,0,0,0-11.257.5c-1.633-1.517-3.161-3.1-4.63-4.444-4.474-4.084-8.7-8.265-12.744-12.544-8.4-8.889-15.59-18.28-23.112-27.5-7.424-9.1-14.788-18.244-21.517-27.574C9.549,17.964,1.952,8.665,0,0,2.961,18.378,14.2,36.042,27.577,52.244c13.271,16.068,28.5,33.617,49.049,46.3C74.535,100.886,74.477,104.233,78.449,106.455Z" transform="matrix(-0.985, -0.174, 0.174, -0.985, 93.131, 249.257)" fill="#bfe2e2" />
            <path d="M75.185,0H70.56c-2.162,7.459-4.785,15.2-7.8,23C62.375,24.01,62,25.047,61.6,26.146l-.008.022c-1.387,3.838-2.82,7.8-4.984,10.955a8.963,8.963,0,0,0-1.032,1.852c-.2.478-.2.478-1.21.773-.29.084-.729.212-1.3.391a25.312,25.312,0,0,1-4.388.814,22.719,22.719,0,0,0-5.2,1.071c-6.894,2.587-12.4,7.713-16.867,12.385A101.58,101.58,0,0,0,14.455,69.544,68.636,68.636,0,0,0,6.34,86.707a144.5,144.5,0,0,0-5.117,20.72c-.042.272-.131.709-.244,1.264l-.011.055c-.552,2.695-1.579,7.711-.48,9.059a.87.87,0,0,0,.7.336,1.277,1.277,0,0,0,.222-.021c3.366-.6,8.246-5.881,12.168-10.122,1.322-1.429,2.464-2.664,3.4-3.563A135.934,135.934,0,0,0,29.164,91,225.037,225.037,0,0,0,50.721,58.805,304.077,304.077,0,0,0,64.294,30.842,272.745,272.745,0,0,0,74.708,1.655c.152-.517.312-1.073.477-1.654Z" transform="translate(164.149 228.001) rotate(180)" fill="#bfe2e2" />
            <path d="M70.184-.5h5.743l-.269.664c-.179.631-.333,1.165-.471,1.633a273.234,273.234,0,0,1-10.432,29.24,304.584,304.584,0,0,1-13.6,28.009A225.541,225.541,0,0,1,29.554,91.312,136.43,136.43,0,0,1,17.327,104.8c-.932.891-2.067,2.119-3.381,3.541-1.957,2.117-4.175,4.516-6.324,6.457-2.528,2.284-4.531,3.533-6.122,3.818a1.786,1.786,0,0,1-.31.029A1.368,1.368,0,0,1,.1,118.122c-1.153-1.414-.446-5.456.377-9.475l.013-.062c.111-.544.2-.974.238-1.233A144.945,144.945,0,0,1,5.862,86.56a69.128,69.128,0,0,1,8.172-17.287,102.073,102.073,0,0,1,12.221-15.21c4.511-4.713,10.064-9.885,17.053-12.507a23.1,23.1,0,0,1,5.31-1.1,24.947,24.947,0,0,0,4.3-.8c.544-.171.976-.3,1.262-.38l.046-.013A4.583,4.583,0,0,0,55.017,39a1.77,1.77,0,0,0,.1-.219A9.406,9.406,0,0,1,56.2,36.84c2.127-3.1,3.549-7.033,4.924-10.837l.01-.028c.429-1.187.787-2.174,1.164-3.153C65.3,15.037,67.92,7.312,70.08-.139Zm4.338,1H70.935c-2.147,7.367-4.739,15-7.706,22.683-.373.969-.729,1.949-1.156,3.13l-.011.031c-1.4,3.863-2.84,7.858-5.039,11.062a8.5,8.5,0,0,0-.982,1.758c-.288.7-.478.756-1.533,1.063l-.046.013c-.282.082-.707.206-1.242.374a25.665,25.665,0,0,1-4.473.833,22.367,22.367,0,0,0-5.087,1.044c-6.8,2.552-12.249,7.631-16.682,12.263a101.09,101.09,0,0,0-12.1,15.061A68.143,68.143,0,0,0,6.818,86.855a144.053,144.053,0,0,0-5.1,20.648c-.044.283-.133.723-.247,1.28l-.013.064c-.281,1.372-.666,3.252-.852,4.987-.274,2.557.051,3.387.269,3.655a.412.412,0,0,0,.449.139c1.4-.251,3.242-1.421,5.628-3.576,2.115-1.911,4.317-4.292,6.26-6.393,1.326-1.434,2.471-2.672,3.424-3.585A135.449,135.449,0,0,0,28.773,90.687,224.54,224.54,0,0,0,50.283,58.565,303.581,303.581,0,0,0,63.834,30.648,272.239,272.239,0,0,0,74.228,1.515C74.318,1.208,74.415.873,74.522.5Z" transform="translate(164.149 228.001) rotate(180)" fill="rgba(0,0,0,0)" />
            <path d="M76.8,0H70.122c-.093,1.99-.167,3.9-.221,5.673-.38,12.368-1.412,25.424-3.248,41.089-1.329,11.345-3.411,22.817-5.425,33.912l0,.025c-.31,1.707-.676,3.722-1.036,5.726-1,5.562-2.109,11.491-3.6,19.225-.1.518-.184,1.308-.282,2.223l0,.016c-.254,2.4-.6,5.694-1.565,6.642-.773.762-3.36,1.258-5.861,1.738a24.674,24.674,0,0,0-4.4,1.076,55.222,55.222,0,0,0-11.913,7.612A90.647,90.647,0,0,0,3.355,172.164,113.33,113.33,0,0,0,.008,201.27c.012,1.095.589,5.36,1.319,10.758v.007c1.8,13.317,4.524,33.442,2.656,33.835.15.159.3.332.451.53,2.166-3.319,4.3-6.681,5.912-9.239a377.116,377.116,0,0,0,22.932-42.1A335.111,335.111,0,0,0,50.242,150.69c5.437-18.1,9.293-36.92,13.022-55.117v-.007l.031-.15c5.953-29.06,11.428-57.536,12.992-86.407.14-2.579.3-5.326.441-7.75L76.8,0Z" transform="translate(152.923 249.724) rotate(180)" fill="#bfe2e2" />
            <path d="M69.645-.5H77.3V.03l-.074,1.281c-.14,2.416-.3,5.155-.439,7.726-1.566,28.9-7.043,57.4-13,86.481l-.036.177c-3.731,18.2-7.588,37.023-13.029,55.14a335.616,335.616,0,0,1-16.988,44.438A377.611,377.611,0,0,1,10.77,237.427c-1.607,2.546-3.731,5.9-5.916,9.246l-.385.589-.43-.557c-.136-.177-.273-.338-.419-.492l-.612-.649.8-.169c.1-.15.363-.836.286-3.772-.053-2.04-.266-4.888-.633-8.464C2.787,226.545,1.7,218.541.833,212.108l0-.012C.1,206.678-.479,202.4-.492,201.276A113.829,113.829,0,0,1,2.87,172.041,91.146,91.146,0,0,1,32.251,124.57a55.711,55.711,0,0,1,12.023-7.68,24.778,24.778,0,0,1,4.513-1.111c2.2-.422,4.939-.947,5.6-1.6.834-.823,1.2-4.275,1.419-6.338l.009-.085c.1-.9.179-1.671.281-2.2,1.495-7.77,2.6-13.7,3.6-19.218.361-2.006.72-3.983,1.036-5.727l.006-.03C62.748,69.5,64.829,58.037,66.156,46.7,67.99,31.06,69.022,18.017,69.4,5.658c.054-1.784.129-3.7.221-5.681Zm6.626,1H70.6c-.082,1.81-.149,3.553-.2,5.188C70.02,18.077,68.987,31.147,67.15,46.82c-1.331,11.365-3.414,22.843-5.429,33.943l-.006.03c-.316,1.739-.674,3.716-1.035,5.721-.992,5.525-2.1,11.457-3.6,19.231-.094.485-.175,1.24-.268,2.114l-.008.08c-.34,3.215-.7,5.955-1.711,6.948-.881.869-3.424,1.356-6.115,1.872a24.634,24.634,0,0,0-4.294,1.041,54.718,54.718,0,0,0-11.8,7.544A90.149,90.149,0,0,0,3.84,172.287,112.83,112.83,0,0,0,.508,201.265c.012,1.064.586,5.312,1.314,10.692l0,.012c.906,6.693,2.033,15.022,2.706,21.781.371,3.726.561,6.518.581,8.536a18.971,18.971,0,0,1-.088,2.293c1.819-2.811,3.545-5.535,4.9-7.685a376.6,376.6,0,0,0,22.9-42.043,334.608,334.608,0,0,0,16.938-44.3c5.428-18.074,9.281-36.873,13.007-55.053l.036-.177c5.95-29.044,11.42-57.5,12.982-86.334.139-2.572.3-5.312.439-7.729Z" transform="translate(152.923 249.724) rotate(180)" fill="rgba(0,0,0,0)" />
            <path d="M.005,0H0A138.05,138.05,0,0,0,.853,15.98C1.414,21.1,2.266,26.487,3.387,31.995A265.1,265.1,0,0,0,11.96,63.254C14.265,70.147,17,77.259,20.328,85c2.74,6.375,5.855,13.123,9.8,21.237.321.659.669,1.347,1.039,2.075l0,0c1.529,3.015,3.262,6.433,3.83,9.463.341,1.825-.271,3.583-.919,5.443-.282.809-.573,1.645-.784,2.5a75.994,75.994,0,0,0-.135,33.769c1.288,5.925,3.784,10.332,7.633,13.471,3.679,3,8.661,4.886,15.23,5.761,4.2.56,26.875,23.351,31.377,27.914v-.64c-3.806-7.429-22.9-44.66-24.936-48.075-4.55-7.617-9.345-15.747-13.569-24.037-5.776-11.336-10.352-20.729-14.4-29.559A528.039,528.039,0,0,1,13.946,53.062c-3-8.871-5.671-17.723-7.942-26.308C3.624,17.757,1.606,8.756.005,0Z" transform="translate(84.807 262.885) rotate(-166)" fill="#bfe2e2" />
            <path d="M.413-.537.5-.09c1.6,8.743,3.614,17.732,5.99,26.716C8.756,35.2,11.425,44.041,14.42,52.9a527.556,527.556,0,0,0,20.532,51.207c4.045,8.823,8.618,18.21,14.392,29.54,4.216,8.276,9.007,16.4,13.552,24.008,2.053,3.437,21.146,40.674,24.952,48.1l.055.107v1.98l-.856-.868c-1.974-2-8.947-9.029-15.786-15.444-11.119-10.431-14.359-12.2-15.3-12.325-6.664-.888-11.728-2.808-15.48-5.869-3.939-3.214-6.492-7.712-7.805-13.752a76.5,76.5,0,0,1,.139-34c.217-.874.512-1.721.8-2.541.625-1.8,1.216-3.493.9-5.187-.554-2.959-2.27-6.342-3.784-9.328h0c-.372-.734-.722-1.423-1.044-2.086-3.951-8.121-7.069-14.876-9.812-21.258-3.331-7.749-6.073-14.873-8.383-21.78A265.586,265.586,0,0,1,2.9,32.094C1.773,26.572.918,21.168.356,16.034A138.549,138.549,0,0,1-.5,0l0-.455ZM86.165,204.668c-5.13-10.009-22.206-43.282-24.127-46.5-4.554-7.624-9.354-15.763-13.585-24.067-5.78-11.343-10.359-20.741-14.41-29.577a528.523,528.523,0,0,1-20.57-51.3c-3-8.882-5.678-17.744-7.952-26.341C3.644,19.788,1.992,12.69.592,5.713c.125,3.329.379,6.746.758,10.213.559,5.1,1.409,10.477,2.526,15.97a264.6,264.6,0,0,0,8.558,31.2c2.3,6.881,5.033,13.98,8.353,21.7,2.737,6.367,5.849,13.108,9.793,21.215.319.656.667,1.341,1.035,2.068h0c1.546,3.049,3.3,6.5,3.877,9.6.365,1.956-.268,3.774-.938,5.7-.278.8-.565,1.624-.771,2.453a75.485,75.485,0,0,0-.132,33.542c1.263,5.81,3.7,10.125,7.46,13.19,3.605,2.941,8.505,4.79,14.98,5.653,1.434.191,4.279,2.412,6.295,4.065,2.514,2.063,5.73,4.93,9.559,8.522C77.5,196.014,83.011,201.5,86.165,204.668Z" transform="translate(84.807 262.885) rotate(-166)" fill="rgba(0,0,0,0)" />
            <path d="M54.081,7.18C54.414,3.4,52.667,0,50.388,0H4.525C2.246,0,.5,3.4.831,7.18L4.376,47.514C5.457,59.81,11.744,68.92,19.151,68.92H35.762c7.407,0,13.694-9.109,14.775-21.405Z" transform="translate(60.401 219.689)" fill="#bfe2e2" />
        </g>
        <path d="M5090.766,7308.183l-67.062-2a24.075,24.075,0,0,1-13.934-4.126c-3.723-2.661-5.772-6.2-5.772-9.961v-81.007c0-3.763,2.049-7.3,5.772-9.961A24.084,24.084,0,0,1,5023.7,7197h67.062a24.078,24.078,0,0,1,13.932,4.125c3.723,2.661,5.771,6.2,5.771,9.961V7292.1c0,3.763-2.049,7.3-5.771,9.961S5096.029,7308.183,5090.766,7308.183Zm-55.18-91.476c-2.716,0-4.926,1.58-4.926,3.522v46.83c0,1.942,2.21,3.521,4.926,3.521h43.3c2.716,0,4.926-1.58,4.926-3.521v-46.83c0-1.942-2.21-3.522-4.926-3.522Z" transform="translate(-4790.313 -6927.892)" fill="#bfe2e2" />
        <path d="M5090.766,7308.683h-.015l-67.054-2a24.575,24.575,0,0,1-14.217-4.22c-3.857-2.757-5.981-6.439-5.981-10.368v-81.007c0-3.929,2.124-7.611,5.981-10.368a24.581,24.581,0,0,1,14.224-4.219h67.062a24.578,24.578,0,0,1,14.223,4.219c3.856,2.756,5.98,6.438,5.98,10.368V7292.1c0,3.929-2.124,7.611-5.98,10.368a51.207,51.207,0,0,1-6.452,4.1A17.126,17.126,0,0,1,5090.766,7308.683ZM5023.7,7197.5a23.583,23.583,0,0,0-13.643,4.032c-3.587,2.564-5.562,5.957-5.562,9.555V7292.1c0,3.6,1.976,6.99,5.563,9.554a23.572,23.572,0,0,0,13.643,4.033h.015l67.054,2a16.167,16.167,0,0,0,7.31-2.011,50.3,50.3,0,0,0,6.323-4.022c3.587-2.564,5.563-5.957,5.563-9.554v-81.007c0-3.6-1.976-6.991-5.562-9.555a23.577,23.577,0,0,0-13.641-4.032Zm55.178,73.579h-43.3a6.518,6.518,0,0,1-3.772-1.126,3.579,3.579,0,0,1-1.654-2.9v-46.83a3.58,3.58,0,0,1,1.654-2.9,6.516,6.516,0,0,1,3.772-1.126h43.3a6.516,6.516,0,0,1,3.772,1.126,3.58,3.58,0,0,1,1.654,2.9v46.83a3.579,3.579,0,0,1-1.654,2.9A6.518,6.518,0,0,1,5078.883,7271.08Zm-43.3-53.874a5.512,5.512,0,0,0-3.19.939,2.612,2.612,0,0,0-1.235,2.083v46.83a2.611,2.611,0,0,0,1.235,2.082,5.512,5.512,0,0,0,3.19.939h43.3a5.512,5.512,0,0,0,3.19-.939,2.611,2.611,0,0,0,1.235-2.082v-46.83a2.612,2.612,0,0,0-1.235-2.083,5.512,5.512,0,0,0-3.19-.939Z" transform="translate(-4790.313 -6927.892)" fill="rgba(0,0,0,0)" />
    </g>
</svg>