<svg xmlns="http://www.w3.org/2000/svg" xmlns:xlink="http://www.w3.org/1999/xlink" width="400" height="320" viewBox="0 0 400 320">
    <defs>
        <clipPath>
            <rect width="67.609" height="80.49" fill="none" />
        </clipPath>
        <clipPath>
            <rect width="400" height="320" />
        </clipPath>
    </defs>
    <g clip-path="url(#c)">
        <rect width="400" height="320" fill="transparent" />
        <path d="M395.24,1H0A1,1,0,0,1-1,0,1,1,0,0,1,0-1H395.24a1,1,0,0,1,1,1A1,1,0,0,1,395.24,1Z" transform="translate(1.744 39.75)" fill="#5bb3b3" />
        <path d="M395.24,1H0A1,1,0,0,1-1,0,1,1,0,0,1,0-1H395.24a1,1,0,0,1,1,1A1,1,0,0,1,395.24,1Z" transform="translate(1.744 23.151)" fill="#5bb3b3" />
        <path d="M0,280.258a1,1,0,0,1-1-1V0A1,1,0,0,1,0-1,1,1,0,0,1,1,0V279.258A1,1,0,0,1,0,280.258Z" transform="translate(325.307 40.742)" fill="#5bb3b3" />
        <path d="M0,280.258a1,1,0,0,1-1-1V0A1,1,0,0,1,0-1,1,1,0,0,1,1,0V279.258A1,1,0,0,1,0,280.258Z" transform="translate(306.26 40.742)" fill="#5bb3b3" />
        <path d="M0,280.215a1,1,0,0,1-1-1V0A1,1,0,0,1,0-1,1,1,0,0,1,1,0V279.215A1,1,0,0,1,0,280.215Z" transform="translate(167.102 40.285)" fill="#5bb3b3" />
        <path d="M.444,280.215a1,1,0,0,1-1-1L-1,0A1,1,0,0,1,0-1,1,1,0,0,1,1,0l.444,279.215a1,1,0,0,1-1,1Z" transform="translate(148.056 40.285)" fill="#5bb3b3" />
        <path d="M0,279.758a1,1,0,0,1-1-1V0A1,1,0,0,1,0-1,1,1,0,0,1,1,0V278.758A1,1,0,0,1,0,279.758Z" transform="translate(30.096 40.742)" fill="#5bb3b3" />
        <path d="M0,279.758a1,1,0,0,1-1-1V0A1,1,0,0,1,0-1,1,1,0,0,1,1,0V278.758A1,1,0,0,1,0,279.758Z" transform="translate(11.049 40.742)" fill="#5bb3b3" />
        <path d="M222.211,294.507a1,1,0,0,1-1-1V30.77H103.043V293.507a1,1,0,0,1-2,0V29.77a1,1,0,0,1,1-1H222.211a1,1,0,0,1,1,1V293.507A1,1,0,0,1,222.211,294.507Z" transform="translate(74.746 26.492)" fill="#5bb3b3" />
        <path d="M0-1H38.92a1,1,0,0,1,1,1V16.955a1,1,0,0,1-1,1H0a1,1,0,0,1-1-1V0A1,1,0,0,1,0-1ZM37.92,1H1V15.955H37.92Z" transform="translate(245.87 166.176)" fill="#5bb3b3" />
        <path d="M144.464,128.59a1,1,0,0,1-.712-.3L127.1,111.417,111.11,127.61a1,1,0,1,1-1.423-1.405l16.705-16.914a1,1,0,0,1,.711-.3h0a1,1,0,0,1,.712.3l17.36,17.6a1,1,0,0,1-.712,1.7Z" transform="translate(138.109 35.333)" fill="#5bb3b3" />
        <path d="M4.642-1a5.751,5.751,0,0,1,5.642,5.842,5.751,5.751,0,0,1-5.642,5.842A5.751,5.751,0,0,1-1,4.842,5.751,5.751,0,0,1,4.642-1Zm0,9.684A3.75,3.75,0,0,0,8.284,4.842,3.75,3.75,0,0,0,4.642,1,3.75,3.75,0,0,0,1,4.842,3.75,3.75,0,0,0,4.642,8.684Z" transform="translate(260.45 140.807)" fill="#5bb3b3" />
        <path d="M114.455,1H0A1,1,0,0,1-1,0,1,1,0,0,1,0-1H114.455a1,1,0,0,1,1,1A1,1,0,0,1,114.455,1Z" transform="translate(32.864 300.783)" fill="#5bb3b3" />
        <path d="M6.968,1H0A1,1,0,0,1-1,0,1,1,0,0,1,0-1H6.968a1,1,0,0,1,1,1A1,1,0,0,1,6.968,1Z" transform="translate(1.631 300.783)" fill="#5bb3b3" />
        <path d="M6.774,1H0A1,1,0,0,1-1,0,1,1,0,0,1,0-1H6.774a1,1,0,0,1,1,1A1,1,0,0,1,6.774,1Z" transform="translate(1.631 292.627)" fill="#5bb3b3" />
        <path d="M115.191,1H0A1,1,0,0,1-1,0,1,1,0,0,1,0-1H115.191a1,1,0,0,1,1,1A1,1,0,0,1,115.191,1Z" transform="translate(32.865 292.627)" fill="#5bb3b3" />
        <path d="M110.552,1H0A1,1,0,0,1-1,0,1,1,0,0,1,0-1H110.552a1,1,0,0,1,1,1A1,1,0,0,1,110.552,1Z" transform="translate(33.948 196.983)" fill="#5bb3b3" />
        <path d="M110.552,1H0A1,1,0,0,1-1,0,1,1,0,0,1,0-1H110.552a1,1,0,0,1,1,1A1,1,0,0,1,110.552,1Z" transform="translate(33.948 109.958)" fill="#5bb3b3" />
        <path d="M6.3,1H0A1,1,0,0,1-1,0,1,1,0,0,1,0-1H6.3a1,1,0,0,1,1,1A1,1,0,0,1,6.3,1Z" transform="translate(1.631 204.983)" fill="#5bb3b3" />
        <path d="M6.332,1H0A1,1,0,0,1-1,0,1,1,0,0,1,0-1H6.332a1,1,0,0,1,1,1A1,1,0,0,1,6.332,1Z" transform="translate(1.631 196.827)" fill="#5bb3b3" />
        <path d="M110.552,1H0A1,1,0,0,1-1,0,1,1,0,0,1,0-1H110.552a1,1,0,0,1,1,1A1,1,0,0,1,110.552,1Z" transform="translate(33.948 204.827)" fill="#5bb3b3" />
        <path d="M110.552,1H0A1,1,0,0,1-1,0,1,1,0,0,1,0-1H110.552a1,1,0,0,1,1,1A1,1,0,0,1,110.552,1Z" transform="translate(33.948 117.801)" fill="#5bb3b3" />
        <path d="M5.89,1H0A1,1,0,0,1-1,0,1,1,0,0,1,0-1H5.89a1,1,0,0,1,1,1A1,1,0,0,1,5.89,1Z" transform="translate(1.631 117.881)" fill="#5bb3b3" />
        <path d="M5.633,1H0A1,1,0,0,1-1,0,1,1,0,0,1,0-1H5.633a1,1,0,0,1,1,1A1,1,0,0,1,5.633,1Z" transform="translate(1.631 109.725)" fill="#5bb3b3" />
        <path d="M68.276,1H0A1,1,0,0,1-1,0,1,1,0,0,1,0-1H68.276a1,1,0,0,1,1,1A1,1,0,0,1,68.276,1Z" transform="translate(329.373 300.783)" fill="#5bb3b3" />
        <path d="M68.053,1H0V-1H68.053Z" transform="translate(329.151 292.627)" fill="#5bb3b3" />
        <path d="M68.053,1H0A1,1,0,0,1-1,0,1,1,0,0,1,0-1H68.053a1,1,0,0,1,1,1A1,1,0,0,1,68.053,1Z" transform="translate(329.151 292.627)" fill="#5bb3b3" />
        <path d="M68.153,1H0A1,1,0,0,1-1,0,1,1,0,0,1,0-1H68.153a1,1,0,0,1,1,1A1,1,0,0,1,68.153,1Z" transform="translate(329.151 204.983)" fill="#5bb3b3" />
        <path d="M68.189,1H0A1,1,0,0,1-1,0,1,1,0,0,1,0-1H68.189a1,1,0,0,1,1,1A1,1,0,0,1,68.189,1Z" transform="translate(329.375 196.827)" fill="#5bb3b3" />
        <path d="M67.068,1H0A1,1,0,0,1-1,0,1,1,0,0,1,0-1H67.068a1,1,0,0,1,1,1A1,1,0,0,1,67.068,1Z" transform="translate(329.596 117.881)" fill="#5bb3b3" />
        <path d="M67.736,1H0A1,1,0,0,1-1,0,1,1,0,0,1,0-1H67.736a1,1,0,0,1,1,1A1,1,0,0,1,67.736,1Z" transform="translate(329.374 109.725)" fill="#5bb3b3" />
        <path d="M332.936,140.424a31.21,31.21,0,0,1-10.685-1.67c-4.414-1.676-5.34-4.052-5.34-5.749a16.641,16.641,0,0,1,4.683-11.655,15.953,15.953,0,0,1,5.094-3.542,15.652,15.652,0,0,1,12.5,0,15.954,15.954,0,0,1,5.094,3.542,16.64,16.64,0,0,1,4.683,11.655c0,1.7-.927,4.073-5.34,5.749A31.21,31.21,0,0,1,332.936,140.424Zm0-21.917a13.708,13.708,0,0,0-9.906,4.235,14.651,14.651,0,0,0-4.119,10.263c0,1.068.7,2.608,4.051,3.88a33.081,33.081,0,0,0,19.95,0c3.348-1.271,4.051-2.812,4.051-3.88a14.65,14.65,0,0,0-4.119-10.263A13.709,13.709,0,0,0,332.935,118.507Z" transform="translate(-279.871 51.993)" fill="#5bb3b3" />
        <g transform="translate(0 -0.903)">
            <path d="M331.239,41.771a37.95,37.95,0,0,1-5.571-.358,9.518,9.518,0,0,1-1.824-.435c-.818-.31-1.235-.782-1.241-1.4-.006-.636.427-1.127,1.287-1.46a10.664,10.664,0,0,1,1.968-.491,40.824,40.824,0,0,1,6.024-.472c.231,0,.465,0,.694,0a37.944,37.944,0,0,1,5.571.358,9.517,9.517,0,0,1,1.824.435c.818.31,1.235.782,1.241,1.4.006.636-.427,1.128-1.287,1.46a10.658,10.658,0,0,1-1.968.491,40.854,40.854,0,0,1-6.024.472C331.7,41.769,331.468,41.771,331.239,41.771Zm-4.605-2.244a38.183,38.183,0,0,0,4.605.244c.221,0,.445,0,.668,0a40.166,40.166,0,0,0,5.275-.376,38.174,38.174,0,0,0-4.606-.244c-.221,0-.446,0-.668,0A40.14,40.14,0,0,0,326.634,39.527Z" transform="translate(-279.815 27.756)" fill="#5bb3b3" />
            <path d="M331.359,78.582a25.628,25.628,0,0,1-7.151-.945l-.065-.023a12.377,12.377,0,0,1-7.277-7.344,22.6,22.6,0,0,1-1.053-9.974,51.313,51.313,0,0,1,2.061-10.158A76.826,76.826,0,0,1,322.2,38.961a1,1,0,0,1,1.789.895,76.308,76.308,0,0,0-4.211,10.889,49.246,49.246,0,0,0-1.977,9.743,20.641,20.641,0,0,0,.932,9.072,10.377,10.377,0,0,0,6.108,6.181,24.552,24.552,0,0,0,6.853.84,27.214,27.214,0,0,0,7.062-1.02,10.48,10.48,0,0,0,6-6.368A20.751,20.751,0,0,0,345.5,60.1a49.141,49.141,0,0,0-2.166-9.679,75.794,75.794,0,0,0-4.414-10.76,1,1,0,0,1,1.77-.931,76.328,76.328,0,0,1,4.537,11.048,51.21,51.21,0,0,1,2.259,10.091,22.717,22.717,0,0,1-.845,9.992,12.482,12.482,0,0,1-7.143,7.559q-.041.018-.084.031a28.493,28.493,0,0,1-7.69,1.129Z" transform="translate(-279.357 27.915)" fill="#5bb3b3" />
        </g>
        <g transform="translate(0 -0.903)">
            <path d="M291.586,41.771a37.95,37.95,0,0,1-5.571-.358,9.518,9.518,0,0,1-1.824-.435c-.818-.31-1.235-.782-1.241-1.4-.006-.636.427-1.127,1.287-1.459a10.665,10.665,0,0,1,1.968-.491,40.824,40.824,0,0,1,6.024-.472c.231,0,.465,0,.694,0a37.944,37.944,0,0,1,5.571.358,9.518,9.518,0,0,1,1.824.435c.817.31,1.235.782,1.241,1.4.006.636-.427,1.128-1.287,1.46a10.659,10.659,0,0,1-1.968.491,40.855,40.855,0,0,1-6.024.472C292.048,41.769,291.815,41.771,291.586,41.771Zm-4.605-2.244a38.183,38.183,0,0,0,4.605.244c.221,0,.445,0,.668,0a40.166,40.166,0,0,0,5.275-.376,38.174,38.174,0,0,0-4.606-.244c-.221,0-.446,0-.668,0A40.14,40.14,0,0,0,286.981,39.527Z" transform="translate(-203.509 27.756)" fill="#5bb3b3" />
            <path d="M291.706,78.582a25.628,25.628,0,0,1-7.151-.945l-.065-.023a12.377,12.377,0,0,1-7.277-7.344,22.6,22.6,0,0,1-1.053-9.974,51.313,51.313,0,0,1,2.062-10.158,76.825,76.825,0,0,1,4.329-11.178,1,1,0,0,1,1.789.895,76.309,76.309,0,0,0-4.211,10.889,49.244,49.244,0,0,0-1.977,9.743,20.641,20.641,0,0,0,.932,9.072,10.377,10.377,0,0,0,6.108,6.181,24.546,24.546,0,0,0,6.853.84,27.215,27.215,0,0,0,7.062-1.02,10.48,10.48,0,0,0,6-6.368,20.751,20.751,0,0,0,.743-9.092,49.141,49.141,0,0,0-2.166-9.679,75.794,75.794,0,0,0-4.414-10.76,1,1,0,0,1,1.77-.931,76.328,76.328,0,0,1,4.537,11.048,51.21,51.21,0,0,1,2.259,10.091,22.717,22.717,0,0,1-.845,9.992,12.482,12.482,0,0,1-7.143,7.559q-.041.018-.084.031a28.493,28.493,0,0,1-7.69,1.129Z" transform="translate(-203.051 27.915)" fill="#5bb3b3" />
        </g>
        <g transform="translate(0 -0.903)">
            <path d="M291.586,41.771a37.95,37.95,0,0,1-5.571-.358,9.518,9.518,0,0,1-1.824-.435c-.818-.31-1.235-.782-1.241-1.4-.006-.636.427-1.127,1.287-1.459a10.665,10.665,0,0,1,1.968-.491,40.824,40.824,0,0,1,6.024-.472c.231,0,.465,0,.694,0a37.944,37.944,0,0,1,5.571.358,9.518,9.518,0,0,1,1.824.435c.817.31,1.235.782,1.241,1.4.006.636-.427,1.128-1.287,1.46a10.659,10.659,0,0,1-1.968.491,40.855,40.855,0,0,1-6.024.472C292.048,41.769,291.815,41.771,291.586,41.771Zm-4.605-2.244a38.183,38.183,0,0,0,4.605.244c.221,0,.445,0,.668,0a40.166,40.166,0,0,0,5.275-.376,38.174,38.174,0,0,0-4.606-.244c-.221,0-.446,0-.668,0A40.14,40.14,0,0,0,286.981,39.527Z" transform="translate(-165.934 27.756)" fill="#5bb3b3" />
            <path d="M291.706,78.582a25.628,25.628,0,0,1-7.151-.945l-.065-.023a12.377,12.377,0,0,1-7.277-7.344,22.6,22.6,0,0,1-1.053-9.974,51.313,51.313,0,0,1,2.062-10.158,76.825,76.825,0,0,1,4.329-11.178,1,1,0,0,1,1.789.895,76.309,76.309,0,0,0-4.211,10.889,49.244,49.244,0,0,0-1.977,9.743,20.641,20.641,0,0,0,.932,9.072,10.377,10.377,0,0,0,6.108,6.181,24.546,24.546,0,0,0,6.853.84,27.215,27.215,0,0,0,7.062-1.02,10.48,10.48,0,0,0,6-6.368,20.751,20.751,0,0,0,.743-9.092,49.141,49.141,0,0,0-2.166-9.679,75.794,75.794,0,0,0-4.414-10.76,1,1,0,0,1,1.77-.931,76.328,76.328,0,0,1,4.537,11.048,51.21,51.21,0,0,1,2.259,10.091,22.717,22.717,0,0,1-.845,9.992,12.482,12.482,0,0,1-7.143,7.559q-.041.018-.084.031a28.493,28.493,0,0,1-7.69,1.129Z" transform="translate(-165.476 27.915)" fill="#5bb3b3" />
        </g>
        <path d="M27.5,1H0A1,1,0,0,1-1,0,1,1,0,0,1,0-1H27.5a1,1,0,0,1,1,1A1,1,0,0,1,27.5,1Z" transform="translate(251.63 173.902)" fill="#5bb3b3" />
        <path d="M30.994,80.133H2.794a1,1,0,0,1-1-1V25.556a1,1,0,0,1,1-1h28.29a1,1,0,1,1,0,2H3.794V78.133h27.2a1,1,0,0,1,0,2Z" transform="translate(366.121 24.943)" fill="#5bb3b3" />
        <path d="M0-1H30.23a1,1,0,0,1,1,1V45.448a1,1,0,0,1-1,1H0a1,1,0,0,1-1-1V0A1,1,0,0,1,0-1ZM29.23,1H1V44.448H29.23Z" transform="translate(335.059 145.5)" fill="#5bb3b3" />
        <path d="M18.933,139.134c-1.049,0-2.1-.032-3.149-.1a39.012,39.012,0,0,1-7.1-1.061,15.682,15.682,0,0,1-5.39-2.322,5.009,5.009,0,0,1-2.265-3.937,15.28,15.28,0,0,1,1.422-6.452,16.441,16.441,0,0,1,3.86-5.244,18.633,18.633,0,0,1,12.645-4.8,18.879,18.879,0,0,1,11.672,3.973,1,1,0,0,1-1.239,1.57,16.871,16.871,0,0,0-10.432-3.543,16.638,16.638,0,0,0-11.295,4.276,13.78,13.78,0,0,0-4.633,10.222,2.955,2.955,0,0,0,1.456,2.33c2.129,1.578,6.293,2.67,11.423,2.994a41.6,41.6,0,0,0,13.8-1.273,1,1,0,0,1,.582,1.914A40.848,40.848,0,0,1,18.933,139.134Z" transform="translate(367.958 53.283)" fill="#5bb3b3" />
        <g transform="translate(0 -0.397)">
            <path d="M49.777,41.331a37.949,37.949,0,0,1-5.571-.358,9.517,9.517,0,0,1-1.824-.435c-.817-.31-1.235-.782-1.241-1.4-.006-.636.427-1.127,1.287-1.46a10.665,10.665,0,0,1,1.968-.491,40.825,40.825,0,0,1,6.024-.472c.231,0,.465,0,.694,0a37.945,37.945,0,0,1,5.571.358,9.517,9.517,0,0,1,1.824.435c.818.31,1.235.782,1.241,1.4.006.636-.427,1.128-1.287,1.46a10.657,10.657,0,0,1-1.968.491,40.853,40.853,0,0,1-6.024.472C50.239,41.329,50.006,41.331,49.777,41.331Zm-4.605-2.244a38.181,38.181,0,0,0,4.605.244c.221,0,.445,0,.668,0a40.165,40.165,0,0,0,5.275-.376,38.174,38.174,0,0,0-4.606-.244c-.221,0-.446,0-.668,0A40.14,40.14,0,0,0,45.172,39.087Z" transform="translate(299.109 27.69)" fill="#5bb3b3" />
            <path d="M49.9,78.142a25.628,25.628,0,0,1-7.151-.945l-.065-.023A12.377,12.377,0,0,1,35.4,69.83a22.605,22.605,0,0,1-1.053-9.974A51.313,51.313,0,0,1,36.411,49.7a76.824,76.824,0,0,1,4.329-11.178,1,1,0,0,1,1.789.895A76.309,76.309,0,0,0,38.318,50.3a49.246,49.246,0,0,0-1.977,9.743,20.641,20.641,0,0,0,.932,9.072A10.377,10.377,0,0,0,43.381,75.3a24.556,24.556,0,0,0,6.853.84A27.044,27.044,0,0,0,57.3,75.12a10.48,10.48,0,0,0,6-6.368,20.752,20.752,0,0,0,.743-9.092,49.142,49.142,0,0,0-2.166-9.679,75.8,75.8,0,0,0-4.414-10.76,1,1,0,0,1,1.77-.931,76.325,76.325,0,0,1,4.537,11.048,51.209,51.209,0,0,1,2.259,10.091,22.717,22.717,0,0,1-.845,9.992,12.482,12.482,0,0,1-7.143,7.559q-.041.017-.084.031a28.493,28.493,0,0,1-7.69,1.129Z" transform="translate(299.567 27.848)" fill="#5bb3b3" />
        </g>
        <path d="M0-1H30.23a1,1,0,0,1,1,1V45.448a1,1,0,0,1-1,1H0a1,1,0,0,1-1-1V0A1,1,0,0,1,0-1ZM29.23,1H1V44.448H29.23Z" transform="translate(74.868 145.5)" fill="#5bb3b3" />
        <path d="M0-1H30.23a1,1,0,0,1,1,1V45.448a1,1,0,0,1-1,1H0a1,1,0,0,1-1-1V0A1,1,0,0,1,0-1ZM29.23,1H1V44.448H29.23Z" transform="translate(111.875 145.5)" fill="#5bb3b3" />
        <g transform="translate(5655 6126.58)">
            <path d="M328.825,159.636a29.411,29.411,0,0,1-5.708-.49c-1.307-.273-3.047-.79-3.061-2.129-.013-1.372,1.821-1.941,3.2-2.251a31.1,31.1,0,0,1,6.071-.615c.192,0,.386,0,.577,0a29.353,29.353,0,0,1,5.7.49c1.306.273,3.044.79,3.057,2.129.014,1.37-1.819,1.94-3.2,2.25a31.116,31.116,0,0,1-6.071.616C329.2,159.634,329.012,159.636,328.825,159.636Zm-6.112-2.651a11.069,11.069,0,0,0,1.381.31,30.9,30.9,0,0,0,5.271.337,31.452,31.452,0,0,0,5.079-.449,11.61,11.61,0,0,0,1.564-.385,11.053,11.053,0,0,0-1.379-.309,30.9,30.9,0,0,0-5.273-.337,31.428,31.428,0,0,0-5.08.448A11.616,11.616,0,0,0,322.713,156.985Z" transform="translate(-5873.72 -6044.727)" fill="#5bb3b3" />
            <path d="M328.412,208.624a20.192,20.192,0,0,1-7.309-1.295q-.039-.017-.076-.036c-3.861-2.046-5.8-5.539-5.925-10.677-.107-4.38,1.056-9.354,2.287-14.619.486-2.08.989-4.231,1.4-6.315a58,58,0,0,0,.146-18.71,1,1,0,1,1,1.969-.353,54.772,54.772,0,0,1,.64,6.1,55.655,55.655,0,0,1-.792,13.35c-.417,2.119-.924,4.288-1.414,6.385-1.2,5.138-2.336,9.991-2.235,14.115.108,4.392,1.639,7.233,4.819,8.936a18.8,18.8,0,0,0,6.763,1.12,20.685,20.685,0,0,0,6.966-1.317c3.309-1.89,4.862-5.055,4.887-9.955.023-4.546-1.3-9.995-2.57-15.263-.4-1.653-.814-3.363-1.179-5.016a62.575,62.575,0,0,1-1.368-12.863,56.8,56.8,0,0,1,.21-5.749,1,1,0,0,1,1.989.206h0a64.27,64.27,0,0,0,1.122,17.975c.361,1.634.772,3.333,1.17,4.977,1.3,5.385,2.65,10.954,2.626,15.744-.029,5.639-1.977,9.472-5.956,11.716a1,1,0,0,1-.1.048,22.325,22.325,0,0,1-7.77,1.5Z" transform="translate(-5872.63 -6044.514)" fill="#5bb3b3" />
        </g>
        <g transform="translate(-280.611 36)">
            <g transform="translate(229.093 41.678)">
                <path d="M11.486,12.96C9.163,9.648,4.852,1.235,1.582.052-.524-.711.09,7.175.064,8.679A126.047,126.047,0,0,0,1.228,26.046c1.26,10.4,5.38,19.669,11.032,28.524,2.908,4.556,6.319,9.168,11.043,12.011,2.175,1.309,2.564,1.658,4.711,2.786,2.5,1.313,2.218,4.861,3.345,7.467,1.565,3.618,15.315,118.828,13.919,136.857-.124,1.6,2.1,1.98,2.215.029.591-10.344-4.525-81.975-7.106-105.4S35.2,64.2,32.576,56.1C29.4,46.263,23.661,34.439,18.884,25.269A109.032,109.032,0,0,0,11.486,12.96Z" transform="translate(44.224 48.647)" fill="#bfe2e2" />
                <path d="M9.169,1.259C3.124-3.179-3.419,5.2,2.051,9.636a5.479,5.479,0,0,0,7.965-.464c1.155,1.408,2.237,2.881,3.276,4.125,3.166,3.79,6.158,7.671,9.017,11.642,5.94,8.25,11.031,16.965,16.354,25.521C43.916,58.9,49.127,67.391,53.888,76.05c4.033,7.336,9.409,15.966,10.79,24.008C62.583,83,54.633,66.608,45.165,51.572,35.775,36.659,25,20.372,10.459,8.6A5.15,5.15,0,0,0,9.169,1.259Z" transform="translate(29.299 175.24)" fill="#bfe2e2" />
                <path d="M61.409.017c-3.383.662-8.91,8.314-11.7,11.229a109.2,109.2,0,0,0-9.154,11.027,186.5,186.5,0,0,0-16.2,26.418A245.551,245.551,0,0,0,6.339,95.59,193.464,193.464,0,0,0,.871,126.352c-.2,1.948-2.237,16.964.705,17.369,2.646.364,1.829-11.4,1.957-13C4.976,112.661,9.3,95.091,15.314,78.071c1.31-3.708,2.527-8.249,4.622-11.585,1.509-2.4.011-1.565,2.662-2.475,2.276-.781,4.87-.59,7.2-1.547,5.064-2.077,9.119-6.108,12.673-10.164,6.907-7.881,12.381-16.407,15.234-26.506a127.616,127.616,0,0,0,3.844-17C61.759,7.3,63.588-.409,61.409.017Z" transform="translate(91.766 134.885)" fill="#bfe2e2" />
                <path d="M50.824,7.582A306.545,306.545,0,0,0,20.85,78.541c-4.1,14.9-6.961,30.182-9.808,45.358-4.407,23.5-8.576,46.993-9.762,70.908C.088,218.859-2.271,246.6,5.6,269.769c-3.934-23.521-.189-48.557.475-72.224.317-11.3,1.235-22.486,2.44-33.718,1.169-10.9,3.079-21.74,4.858-32.55q1.3-7.9,2.7-15.776c.277-1.568.393-6.219,1.388-7.29s6.107-1.517,7.71-2.308a41.393,41.393,0,0,0,8.952-6.246A71.507,71.507,0,0,0,47.3,83.182c8.184-13.659,11.456-30.328,11.291-46.147C58.56,33.963,53.62.89,55.6.435Q55.425.225,55.265,0,53.012,3.772,50.824,7.582Z" transform="translate(89.002 0)" fill="#bfe2e2" />
                <path d="M2.3,2.149C2.1,1.865.82-.107,1.464.019.152-.237,3.269,2.194,0,.7c1.552,1.466.656,3.37.636,5.343a47.847,47.847,0,0,0,1.105,9.514A65.244,65.244,0,0,0,6.176,29.94,64.438,64.438,0,0,0,27.354,55.928c4.471,3.1,8.853,4.155,13.952,5.582,3.221.9,3.476,2.568,5.186,5.693,3.559,6.51,7.055,13,10.194,19.726,3.748,8.036,7.387,16.08,10.819,24.257,11.563,27.544,20.974,56.08,25.916,85.612.121-17.4-3.9-35.327-8.983-51.915a309.846,309.846,0,0,0-13.651-35.268c-1.245-2.794-3.131-6.388-3.659-9.472-.37-2.161.761-4.24,1.279-6.516a68.187,68.187,0,0,0,.1-27.711c-1.956-9.828-7.611-14.39-17.178-15.782-3.5-.509-7.946-.323-11.154-1.814-3.5-1.625-4.937-6.964-6.925-10.392a141.334,141.334,0,0,0-18.965-25.8A61.52,61.52,0,0,0,7.8,6.164C6.35,5,3.285,3.577,2.3,2.149Z" transform="translate(0 85.132)" fill="#bfe2e2" />
                <path d="M50.9,5.448C51.209,2.577,49.567,0,47.424,0H4.3C2.159,0,.516,2.577.829,5.448L4.162,36.054C5.178,45.384,11.09,52.3,18.054,52.3H33.672c6.964,0,12.876-6.912,13.892-16.242Z" transform="translate(63.139 229.788)" fill="#bfe2e2" />
                <path d="M-3756.977-6915.463s-3.765-.582-3.76-.861c.871-31.483,8.76-108.765,25.195-122.571,23.511-19.752,37.371-24.231,37.371-24.231s-9.269,30.275-26.862,48.11-21.406,23.278-25.225,24.643C-3752.454-6983.419-3756.977-6915.463-3756.977-6915.463Z" transform="translate(3853.164 7159.025)" fill="#bfe2e2" />
            </g>
            <g transform="translate(611.002 173)">
                <g transform="translate(0 0)" clip-path="url(#a)">
                    <path d="M19,61.068c0,19.694,1.52,35.66,21.919,35.66s21.919-15.966,21.919-35.66" transform="translate(-5.052 -16.238)" fill="#b3dbdb" />
                    <path d="M41.935,32.542a41.785,41.785,0,0,0-2,4.038,56.483,56.483,0,0,1,.548-8.538c.711-4.931,1.8-9.837,2.819-14.733.734-3.519.688-9.841,3.473-12.646.764-.6.945.584.945,1.1.01.109,0-2.106-.744-1.721-4.4,2.327-5.834,9.645-7.245,13.309A71.764,71.764,0,0,0,35.2,29.731a37.449,37.449,0,0,0-.3,4.214c-.147-.375-.294-.753-.446-1.127A76.449,76.449,0,0,0,24.194,15.279C23.14,13.928,9.892.6,8.855,2.643a1.394,1.394,0,0,0,.643.734c.019.022.02.01.009-.023.778,1.285,2.991,3.27,3.679,4.4a85.817,85.817,0,0,1,4.452,8.792c2.894,6.235,5.579,12.532,8.181,18.844.606,1.468,1.238,2.932,1.881,4.389C21.058,29.98,12.2,21.085,0,15.994c4.166,2.168,6.9,6.246,9.711,9.368,3.393,3.766,6.967,7.431,10.367,11.193,4.01,4.438,8.728,9.111,12.585,14.021C36.4,58.6,40.029,66.626,42.269,75.058c-.918-2.913-.073-6.939-.229-10a68.953,68.953,0,0,0-.784-7.257,15.13,15.13,0,0,1,1.061,3.185c-.168-1.7-.361-3.382-.569-5.059.534-1.57,1.057-3.035,1.411-4.242a110.465,110.465,0,0,1,6.914-18.206,163.322,163.322,0,0,1,9.244-16.15C60.9,14.886,62.511,12.447,64.11,10c1.046-1.6,2.042-4.16,3.5-5.692-9.414,8.8-19.7,17.667-25.674,28.23" transform="translate(0 0)" fill="#b3dbdb" />
                </g>
            </g>
        </g>
        <g transform="translate(-9.779)">
            <g transform="translate(163.236 74.107)">
                <path d="M0,0,15.49,64.928H26.661L36.866,0Z" transform="translate(65.796 132.89) rotate(180)" fill="#e6b88e" />
                <path d="M127.586,77.572a134.746,134.746,0,0,0-7.52-33.214c-3.45-9.537-8.09-18.744-14.7-26.353S90.042,4.447,80.287,2.318,59.739,2.186,52.03,8.635a41.628,41.628,0,0,0-8.88,11c-11.528,19.6-14.1,43.549-10.8,66.148,7.171,1.527,8.374,2.437,43.28,1.277S127.586,77.572,127.586,77.572Z" transform="translate(-34.386 -1.499)" fill="#313e58" />
                <path d="M.09,48.924S11.667,94.225,33.621,94,64.309,45.372,64.309,45.372,68.084-.911,33.621.014C-3.432-.852.09,48.924.09,48.924Z" transform="translate(7.54 8.172) rotate(-3)" fill="#efc6a1" />
                <path d="M43.623,72.1c-1.433-14.721-.614-26.182,3.718-40.076a87.869,87.869,0,0,0,11.391.087c1.457-.077,1.367-12.275,1.367-12.275S65,31.614,65.934,31.509a226.369,226.369,0,0,0,31.088-6.14c6.624,18.678,5.64,26.095,6.05,42.308,11.168-17.815,11.509-19.826,11.509-19.826S103.354,10.7,97.022,4.814,84-11.136,66.573-9.881,44.54,2.776,39.848,12.776,31.286,54.61,31.286,54.61Z" transform="translate(-29.998 11.672)" fill="#313e58" />
                <path d="M61.7,42.994c2.4,0,3.986.3,4.995.938a1.5,1.5,0,0,1,.543.607c.517,1.056.442,3.576.407,4.323-.109,2.3-.5,3.911-1.166,4.78-.249.325-1.005,1.315-5.6,2.42a33.728,33.728,0,0,1-7.1,1,8.572,8.572,0,0,1-1.383-.1,6.165,6.165,0,0,1-3.211-2.006,24.972,24.972,0,0,1-2.564-3.193,50.881,50.881,0,0,1-2.691-4.358,1.5,1.5,0,0,1,1-2.178C45.351,45.143,55.34,42.994,61.7,42.994Zm2.9,3.277a11.218,11.218,0,0,0-2.9-.277,87.954,87.954,0,0,0-14.106,1.763c.417.686.935,1.5,1.5,2.323,2.522,3.628,3.661,3.909,3.783,3.929a5.676,5.676,0,0,0,.9.056,30.322,30.322,0,0,0,6.124-.855,15.009,15.009,0,0,0,4.217-1.426,8.135,8.135,0,0,0,.522-2.919A16.541,16.541,0,0,0,64.6,46.27Z" transform="translate(-29.433 11.279)" fill="#313e58" />
                <path d="M92.577,40.644h0c3.079,0,5.355.1,5.45.1a1.5,1.5,0,0,1,1.359,1.964,50.167,50.167,0,0,1-1.868,4.745,24.572,24.572,0,0,1-1.954,3.578,6.083,6.083,0,0,1-2.812,2.522,20.831,20.831,0,0,1-5.688.624,38.581,38.581,0,0,1-5.041-.314c-2.5-.342-3.306-.831-3.727-1.218-.808-.741-1.481-2.256-2-4.5-.169-.73-.7-3.2-.376-4.329a1.5,1.5,0,0,1,.433-.7c.714-.65,2.233-1.574,7.153-2.086A89.94,89.94,0,0,1,92.577,40.644Zm3.271,3.038c-.891-.02-2.018-.038-3.271-.038-9.437,0-12.678.91-13.749,1.415a16.644,16.644,0,0,0,.425,2.562A8.164,8.164,0,0,0,80.3,50.408a8.386,8.386,0,0,0,2.368.518,36.376,36.376,0,0,0,4.4.256,17.818,17.818,0,0,0,4.71-.46c.046-.016,1.147-.435,3.006-4.49C95.2,45.325,95.561,44.429,95.849,43.682Z" transform="translate(-29.433 11.279)" fill="#313e58" />
                <path d="M66.4,48.336a1.5,1.5,0,0,1-.9-2.7,11.239,11.239,0,0,1,3.766-1.672,12.522,12.522,0,0,1,9,1.164,1.5,1.5,0,1,1-1.39,2.658,9.3,9.3,0,0,0-9.578.254A1.493,1.493,0,0,1,66.4,48.336Z" transform="translate(-29.433 11.279)" fill="#313e58" />
            </g>
            <path d="M5564.167,6297.492H5484c4.626-62.145,38.422-134.87,61.854-172.492h2.173c3.9.12,47.055.12,50.952,0h2.173c23.432,37.622,57.227,110.347,61.854,172.492Z" transform="translate(-5364.068 -5939.939)" fill="#85cb85" />
            <path d="M5663.545,6297.992H5483.462l.04-.537a274.255,274.255,0,0,1,8.336-47.967,426.439,426.439,0,0,1,15.572-47.62c5.647-14.479,12.073-28.948,19.1-43.007,6.19-12.389,12.734-24.189,18.922-34.125l.146-.236h2.467c2.014.063,14.238.09,25.46.09s23.446-.028,25.46-.09h2.467l.146.236c6.188,9.936,12.732,21.736,18.922,34.125,7.025,14.059,13.451,28.528,19.1,43.007a426.54,426.54,0,0,1,15.572,47.62,274.3,274.3,0,0,1,8.336,47.967Zm-179.005-1h177.927a274.152,274.152,0,0,0-8.266-47.253,425.5,425.5,0,0,0-15.535-47.507c-5.637-14.451-12.05-28.892-19.061-42.924-6.128-12.263-12.6-23.947-18.73-33.808h-1.888c-2.046.062-14.268.09-25.483.09s-23.437-.028-25.484-.09h-1.888c-6.129,9.86-12.6,21.544-18.73,33.808-7.012,14.032-13.425,28.473-19.061,42.924a425.4,425.4,0,0,0-15.536,47.507A274.2,274.2,0,0,0,5484.54,6296.992Z" transform="translate(-5364.068 -5939.939)" fill="rgba(0,0,0,0)" />
            <path d="M68.2.253s-28.734,69.8-34.222,76.425C31.3,79.915,14.82,87.98,3.673,92.221-.8,93.923.137,97.517,1.44,98.7c10.6,9.586,20.318,2.981,31.754.625,12.529-2.581,8.549,11.38,18.449,9.486C50.1,102.331,45.906,90,50.517,83.464,53.591,79.109,96.024,6.274,96.024,6.274Z" transform="matrix(0.978, -0.208, 0.208, 0.978, 50.695, 318.195)" fill="#efc6a1" />
            <path d="M67.795,108.548s-28.734-69.8-34.222-76.425C30.889,28.885,14.41,20.82,3.263,16.58c-4.474-1.7-3.536-5.3-2.233-6.475C11.626.519,21.348,7.125,32.784,9.48,45.313,12.061,41.333-1.9,51.233-.006,49.694,6.47,45.5,18.8,50.107,25.336c3.074,4.355,45.507,77.191,45.507,77.191Z" transform="matrix(-0.978, -0.208, 0.208, -0.978, 345.155, 424.533)" fill="#efc6a1" />
            <path d="M15.664,0s.357,75.781,15.664,99.954H0Z" transform="translate(144.914 239.104)" fill="rgba(0,0,0,0.1)" />
            <path d="M15.664,0S15.307,75.781,0,99.954H31.328Z" transform="translate(242.63 239.104)" fill="rgba(0,0,0,0.1)" />
            <path d="M83.773,0S66.228,8.218,49.252,33.626C28.295,64.992,6.389,120.563,0,188.374H51.12C43.175,85.864,92.621,7.4,92.621,7.4Z" transform="translate(99.335 185.06)" fill="#85cb85" />
            <path d="M8.848,0S26.394,8.218,43.369,33.626c20.957,31.366,42.863,86.937,49.252,154.748H41.5C49.447,85.864,0,7.4,0,7.4Z" transform="translate(226.915 185.06)" fill="#85cb85" />
            <path d="M5569.557,6138.44h-83.114c1.5-1.551,3.05-3.044,4.593-4.439h73.929c1.549,1.4,3.093,2.895,4.59,4.438Zm-9.334-8.439h-64.444c.9-.7,1.784-1.363,2.636-1.967a41.529,41.529,0,0,1,4.817-3.033l.023.021,0,0a.037.037,0,0,1,.008-.014h1.944c1.822.062,12.759.089,22.79.089s20.966-.028,22.789-.089h1.946l0,.005a.047.047,0,0,0,.008.013l.023-.021a41.529,41.529,0,0,1,4.817,3.033c.857.608,1.744,1.27,2.634,1.965Z" transform="translate(-5318.564 -5940)" fill="#629d62" />
            <path d="M5569.557,6138.94h-84.3l.823-.848c1.507-1.553,3.06-3.055,4.616-4.462l.143-.129h74.313l.143.129c1.547,1.4,3.09,2.891,4.586,4.432l1.178.877Zm-81.922-1h80.73c-1.181-1.188-2.385-2.342-3.593-3.439h-73.543C5490.021,6135.6,5488.816,6136.75,5487.634,6137.94Zm72.588-7.439h-65.9l1.144-.894c.9-.7,1.788-1.366,2.654-1.981a43.357,43.357,0,0,1,4.85-3.055l.055-.067h.088l.205-.093.1.093h1.8c1.822.062,12.75.089,22.772.089s20.949-.027,22.772-.089h1.8l.115-.1.208.1h.138l.053.1a43.651,43.651,0,0,1,4.79,3.025c.866.615,1.759,1.28,2.653,1.979l0,0,1.113.891Zm-62.97-1h61.5q-.734-.55-1.451-1.06a45.229,45.229,0,0,0-4.449-2.834l-.138.126-.2-.23H5550.8c-1.86.062-12.783.089-22.8.089s-20.939-.028-22.8-.089H5503.5l-.2.228-.141-.126a46.028,46.028,0,0,0-4.454,2.836C5498.227,6128.78,5497.742,6129.134,5497.253,6129.5Z" transform="translate(-5318.564 -5940)" fill="rgba(0,0,0,0)" />
        </g>
    </g>
</svg>