<svg xmlns="http://www.w3.org/2000/svg" xmlns:xlink="http://www.w3.org/1999/xlink" width="400" height="320" viewBox="0 0 400 320">
    <defs>
        <clipPath >
            <rect width="400" height="320" />
        </clipPath>
    </defs>
    <g clip-path="url(#b)">
        <path d="M-921.347-870.361s16.069.4,23.928,14.872c10.148-18.3,29.828-6.322,27.471,0,6.413-4.682,23.843-3.088,22.3,12.6,15.185-7.756,20.539,7.382,20.539,7.382s14.037-13.365,22.195,0,0,8.921,0,8.921H-936.683v-36.332Z" transform="translate(912 1084)" fill="#bfe2e2" />
        <path d="M384.366,95.461h-.008a25.331,25.331,0,0,1-6.05-.786,73.977,73.977,0,0,1-11.839-4.439c-5.386-2.373-10.955-4.826-16.616-5.284a31.349,31.349,0,0,0-10.017.974,101.68,101.68,0,0,0-9.978,3.2c-6.142,2.2-12.494,4.479-19.164,4.407-6.529-.07-12.629-2.378-18.529-4.609a101.34,101.34,0,0,0-9.617-3.275,1,1,0,1,1,.515-1.933,102.841,102.841,0,0,1,9.81,3.337c6,2.27,11.668,4.414,17.843,4.48,6.314.069,12.492-2.147,18.468-4.29,6.674-2.393,13.575-4.867,20.831-4.281,6,.484,11.723,3.007,17.261,5.447,7.79,3.432,15.148,6.673,22.608,4.17a30.72,30.72,0,0,0,6.54-3.438,38.968,38.968,0,0,1,5.763-3.193c4.758-1.981,10.156-2.248,16.505-.814a80.374,80.374,0,0,1,15.941,5.922,1,1,0,1,1-.846,1.812,78.616,78.616,0,0,0-15.536-5.784c-5.93-1.339-10.934-1.107-15.3.71a36.9,36.9,0,0,0-5.465,3.038,32.7,32.7,0,0,1-6.971,3.643A19.041,19.041,0,0,1,384.366,95.461Z" transform="translate(-37.261 20)" fill="#5bb3b3" />
        <path d="M384.963,115.5h-.007a24.812,24.812,0,0,1-5.989-.786,72.673,72.673,0,0,1-11.712-4.44c-5.326-2.372-10.832-4.825-16.428-5.282a30.654,30.654,0,0,0-9.9.973,99.747,99.747,0,0,0-9.866,3.2c-6.076,2.2-12.36,4.48-18.962,4.408-6.458-.07-12.49-2.376-18.323-4.607l-1.069-.408a1,1,0,0,1,.712-1.869l1.071.409c5.93,2.268,11.531,4.409,17.631,4.475,6.241.068,12.35-2.147,18.259-4.289,6.6-2.393,13.43-4.868,20.61-4.282,5.935.484,11.6,3.008,17.079,5.448,7.7,3.43,14.974,6.67,22.346,4.169a30.245,30.245,0,0,0,6.467-3.437,38.46,38.46,0,0,1,5.7-3.193c4.71-1.983,10.053-2.249,16.336-.814a78.958,78.958,0,0,1,15.769,5.924,1,1,0,0,1-.854,1.809,77.2,77.2,0,0,0-15.361-5.783c-5.861-1.338-10.8-1.107-15.115.708a36.4,36.4,0,0,0-5.4,3.036,32.216,32.216,0,0,1-6.9,3.645A18.665,18.665,0,0,1,384.963,115.5Z" transform="translate(-22.261 23.997)" fill="#5bb3b3" />
        <g transform="translate(-4.072 4.88)">
            <path d="M82.665,166.2h-.013a1,1,0,0,1-.987-1.013c.018-1.407,1.8-139.72.05-159.556A24.086,24.086,0,0,0,71.615,2.2a35.2,35.2,0,0,0-10.209.418A46.473,46.473,0,0,0,51.224,5.693V145.954a1,1,0,0,1-2,0V5.052a1,1,0,0,1,.559-.9A46.392,46.392,0,0,1,61.054.649,37.188,37.188,0,0,1,71.845.212a25.945,25.945,0,0,1,11.368,4,1,1,0,0,1,.447.735c.772,7.6,1.008,36.875.7,87.019-.229,37.329-.69,72.888-.695,73.243A1,1,0,0,1,82.665,166.2Z" transform="translate(-11.033 22.976)" fill="#5bb3b3" />
            <path d="M59.217,16.066a1,1,0,0,1-.407-1.914,20.627,20.627,0,0,1,4.813-1.318,16.834,16.834,0,0,1,10.131,1.337,1,1,0,1,1-.894,1.789c-6.137-3.068-13.166-.012-13.237.019A1,1,0,0,1,59.217,16.066Z" transform="translate(-11.033 22.976)" fill="#5bb3b3" />
            <path d="M59.217,29.648a1,1,0,0,1-.407-1.914,20.626,20.626,0,0,1,4.813-1.318,16.834,16.834,0,0,1,10.131,1.337,1,1,0,1,1-.894,1.789c-6.137-3.068-13.166-.012-13.237.019A1,1,0,0,1,59.217,29.648Z" transform="translate(-11.033 22.976)" fill="#5bb3b3" />
            <path d="M73.305,64.967a1,1,0,0,1-.446-.106A15.025,15.025,0,0,0,63.983,63.7a19.027,19.027,0,0,0-4.362,1.178,1,1,0,0,1-.811-1.828,20.627,20.627,0,0,1,4.813-1.318,16.834,16.834,0,0,1,10.131,1.337,1,1,0,0,1-.448,1.895Z" transform="translate(-11.033 22.976)" fill="#5bb3b3" />
            <path d="M59.217,78.549a1,1,0,0,1-.407-1.914,20.627,20.627,0,0,1,4.813-1.318,16.833,16.833,0,0,1,10.131,1.337,1,1,0,1,1-.894,1.789c-6.137-3.068-13.166-.012-13.237.019A1,1,0,0,1,59.217,78.549Z" transform="translate(-11.033 22.976)" fill="#5bb3b3" />
            <path d="M59.217,109.521a1,1,0,0,1-.407-1.914,20.627,20.627,0,0,1,4.813-1.318,16.833,16.833,0,0,1,10.131,1.337,1,1,0,1,1-.894,1.789c-6.137-3.068-13.166-.012-13.237.019A1,1,0,0,1,59.217,109.521Z" transform="translate(-11.033 22.976)" fill="#5bb3b3" />
            <path d="M59.217,123.1a1,1,0,0,1-.407-1.914,20.627,20.627,0,0,1,4.813-1.318,16.833,16.833,0,0,1,10.131,1.337A1,1,0,1,1,72.859,123c-6.137-3.068-13.166-.012-13.237.019A1,1,0,0,1,59.217,123.1Z" transform="translate(-11.033 22.976)" fill="#5bb3b3" />
            <path d="M81.6,43.876a1,1,0,0,1-.31-.05,41.79,41.79,0,0,0-10.338-1.884,62.248,62.248,0,0,0-18.912,1.893,1,1,0,1,1-.557-1.921,64.212,64.212,0,0,1,19.593-1.968A43.785,43.785,0,0,1,81.9,41.925a1,1,0,0,1-.31,1.951Z" transform="translate(-11.033 22.976)" fill="#5bb3b3" />
            <path d="M81.6,51.86a1,1,0,0,1-.31-.05,41.79,41.79,0,0,0-10.338-1.884A62.248,62.248,0,0,0,52.035,51.82a1,1,0,1,1-.557-1.921,64.212,64.212,0,0,1,19.593-1.968A43.785,43.785,0,0,1,81.9,49.909a1,1,0,0,1-.31,1.951Z" transform="translate(-11.033 22.976)" fill="#5bb3b3" />
            <path d="M81.6,94.232a1,1,0,0,1-.31-.049A41.79,41.79,0,0,0,70.947,92.3a62.248,62.248,0,0,0-18.912,1.893,1,1,0,1,1-.557-1.921A64.211,64.211,0,0,1,71.071,90.3,43.786,43.786,0,0,1,81.9,92.281a1,1,0,0,1-.31,1.951Z" transform="translate(-11.033 22.976)" fill="#5bb3b3" />
            <path d="M2.162,163.983a1,1,0,0,1-1-1V112.258a1,1,0,0,1,1-1H34.2a1,1,0,0,1,1,1v33.091a1,1,0,0,1-2,0V113.258H3.162v49.725A1,1,0,0,1,2.162,163.983Z" transform="translate(-11.033 22.976)" fill="#5bb3b3" />
            <path d="M51.983,186.389a1,1,0,0,1-1-1V148.713H10.438V163.87a1,1,0,0,1-2,0V147.713a1,1,0,0,1,1-1H51.983a1,1,0,0,1,1,1v37.677A1,1,0,0,1,51.983,186.389Z" transform="translate(-11.033 22.976)" fill="#5bb3b3" />
            <path d="M41.428,144.433a1,1,0,0,1-1-1V80.307L24.021,83.4a1,1,0,0,1-.371,0L7.242,80.307v27.542a1,1,0,0,1-2,0V79.1a1,1,0,0,1,1.185-.983L23.835,81.4l17.408-3.282a1,1,0,0,1,1.185.983v64.332A1,1,0,0,1,41.428,144.433Z" transform="translate(-11.033 22.976)" fill="#5bb3b3" />
            <path d="M8.8,1H0A1,1,0,0,1-1,0,1,1,0,0,1,0-1H8.8a1,1,0,0,1,1,1A1,1,0,0,1,8.8,1Z" transform="translate(76.136 144.239)" fill="#5bb3b3" />
            <path d="M120.6,186.783a1,1,0,0,1-1-1V98.234H117.37a1,1,0,0,1-1-1V94.175h-10.9v3.059a1,1,0,0,1-1,1h-2.225v71.987a1,1,0,0,1-2,0V97.234a1,1,0,0,1,1-1h2.225V93.175a1,1,0,0,1,1-1h12.9a1,1,0,0,1,1,1v3.059H120.6a1,1,0,0,1,1,1v88.549A1,1,0,0,1,120.6,186.783Z" transform="translate(-11.033 22.976)" fill="#5bb3b3" />
            <path d="M20.091,1H0A1,1,0,0,1-1,0,1,1,0,0,1,0-1H20.091a1,1,0,0,1,1,1A1,1,0,0,1,20.091,1Z" transform="translate(-2.895 146.804)" fill="#5bb3b3" />
            <path d="M20.091,1H0A1,1,0,0,1-1,0,1,1,0,0,1,0-1H20.091a1,1,0,0,1,1,1A1,1,0,0,1,20.091,1Z" transform="translate(-2.895 159.502)" fill="#5bb3b3" />
            <path d="M146.561,167.087a1,1,0,0,1-1-1V115.838H125.873a1,1,0,0,1,0-2h20.688a1,1,0,0,1,1,1v51.249A1,1,0,0,1,146.561,167.087Z" transform="translate(-11.033 22.976)" fill="#5bb3b3" />
        </g>
        <g transform="translate(-23.553 -50.196)">
            <path d="M19.017-1A20.011,20.011,0,0,1,33.171,33.171,20.017,20.017,0,1,1,11.225.573,19.892,19.892,0,0,1,19.017-1Zm0,38.034A18.017,18.017,0,0,0,31.757,6.277a18.017,18.017,0,1,0-25.48,25.48A17.9,17.9,0,0,0,19.017,37.034Z" transform="translate(363.562 72.576)" fill="#5bb3b3" />
            <path d="M0,9.614a1,1,0,0,1-1-1V0A1,1,0,0,1,0-1,1,1,0,0,1,1,0V8.614A1,1,0,0,1,0,9.614Z" transform="translate(382.579 59.205)" fill="#5bb3b3" />
            <path d="M0,9.614a1,1,0,0,1-1-1V0A1,1,0,0,1,0-1,1,1,0,0,1,1,0V8.614A1,1,0,0,1,0,9.614Z" transform="translate(382.579 116.3)" fill="#5bb3b3" />
            <path d="M6.091,7.091A1,1,0,0,1,5.384,6.8L-.707.707a1,1,0,0,1,0-1.414,1,1,0,0,1,1.414,0L6.8,5.384a1,1,0,0,1-.707,1.707Z" transform="translate(359.347 68.828)" fill="#5bb3b3" />
            <path d="M6.091,7.091A1,1,0,0,1,5.384,6.8L-.707.707a1,1,0,0,1,0-1.414,1,1,0,0,1,1.414,0L6.8,5.384a1,1,0,0,1-.707,1.707Z" transform="translate(399.719 109.2)" fill="#5bb3b3" />
            <path d="M8.614,1.03h0L0,1A1,1,0,0,1-1,0,1,1,0,0,1,0-1l8.614.03a1,1,0,0,1,0,2Z" transform="translate(349.725 91.946)" fill="#5bb3b3" />
            <path d="M0,7.07a1,1,0,0,1-.71-.3A1,1,0,0,1-.7,5.36L5.407-.71a1,1,0,0,1,1.414,0,1,1,0,0,1,0,1.414L.7,6.78A1,1,0,0,1,0,7.07Z" transform="translate(399.778 68.909)" fill="#5bb3b3" />
            <path d="M0,7.07a1,1,0,0,1-.71-.3A1,1,0,0,1-.7,5.36L5.407-.71a1,1,0,0,1,1.414,0,1,1,0,0,1,0,1.414L.7,6.78A1,1,0,0,1,0,7.07Z" transform="translate(359.267 109.14)" fill="#5bb3b3" />
            <path d="M0,8.972A1,1,0,0,1-.379,8.9a1,1,0,0,1-.547-1.3L2.338-.379a1,1,0,0,1,1.3-.547,1,1,0,0,1,.547,1.3L.925,8.351A1,1,0,0,1,0,8.972Z" transform="translate(391.759 61.653)" fill="#5bb3b3" />
            <path d="M0,8.972A1,1,0,0,1-.379,8.9a1,1,0,0,1-.547-1.3L2.338-.379a1,1,0,0,1,1.3-.547,1,1,0,0,1,.547,1.3L.925,8.351A1,1,0,0,1,0,8.972Z" transform="translate(370.135 114.494)" fill="#5bb3b3" />
            <path d="M3.33,8.944a1,1,0,0,1-.923-.614L-.922.387A1,1,0,0,1-.387-.922,1,1,0,0,1,.922-.387l3.33,7.944A1,1,0,0,1,3.33,8.944Z" transform="translate(369.877 61.76)" fill="#5bb3b3" />
            <path d="M3.33,8.944a1,1,0,0,1-.923-.614L-.922.387A1,1,0,0,1-.387-.922,1,1,0,0,1,.922-.387l3.33,7.944A1,1,0,0,1,3.33,8.944Z" transform="translate(391.95 114.415)" fill="#5bb3b3" />
            <path d="M7.961,4.29a1,1,0,0,1-.382-.076L-.382.924A1,1,0,0,1-.924-.382,1,1,0,0,1,.382-.924l7.961,3.29A1,1,0,0,1,7.961,4.29Z" transform="translate(352.215 79.511)" fill="#5bb3b3" />
            <path d="M0,4.3a1,1,0,0,1-.924-.617,1,1,0,0,1,.54-1.307l7.956-3.3a1,1,0,0,1,1.307.54A1,1,0,0,1,8.339.924L.383,4.227A1,1,0,0,1,0,4.3Z" transform="translate(352.235 101.354)" fill="#5bb3b3" />
            <path d="M8.614,1.03h0L0,1A1,1,0,0,1-1,0,1,1,0,0,1,0-1l8.614.03a1,1,0,0,1,0,2Z" transform="translate(406.819 92.143)" fill="#5bb3b3" />
            <path d="M7.961,4.29a1,1,0,0,1-.382-.076L-.382.924A1,1,0,0,1-.924-.382,1,1,0,0,1,.382-.924l7.961,3.29A1,1,0,0,1,7.961,4.29Z" transform="translate(404.981 101.318)" fill="#5bb3b3" />
            <path d="M0,4.3a1,1,0,0,1-.924-.617,1,1,0,0,1,.54-1.307l7.956-3.3a1,1,0,0,1,1.307.54A1,1,0,0,1,8.339.924L.383,4.227A1,1,0,0,1,0,4.3Z" transform="translate(404.966 79.463)" fill="#5bb3b3" />
        </g>
        <g transform="translate(-15.01 16.791)">
            <path d="M413.715,246.1a1,1,0,0,1-.829-1.559c4.46-6.624,11.723-9.211,16.529-10.922,1.345-.479,2.507-.893,3.336-1.3.933-.455,1.06-.722,1.072-.752,0-.034-.074-.4-1.043-1.173a31.858,31.858,0,0,0-4.562-2.822,1,1,0,0,1,.948-1.761h0a1.28,1.28,0,0,0,1.245.043,4.027,4.027,0,0,0,1.459-1.388,13.618,13.618,0,0,0,2.028-5.58c.262-1.911.041-3.489-.561-4.019-.651-.574-2.275.159-4.26,1.914a31.013,31.013,0,0,1-6.6,10.285,16.36,16.36,0,0,1-10.575,4.795,1,1,0,1,1-.129-2,14.184,14.184,0,0,0,5.116-1.288,15.423,15.423,0,0,0,4.195-2.945,29.338,29.338,0,0,0,6.241-9.835,1,1,0,0,1,.251-.354,11.427,11.427,0,0,1,3.958-2.565,3.06,3.06,0,0,1,3.128.489c1.564,1.377,1.436,4.22,1.221,5.792a15.5,15.5,0,0,1-2.368,6.451,6.6,6.6,0,0,1-1.671,1.725,20.828,20.828,0,0,1,2.264,1.56c.779.636,1.8,1.62,1.712,2.827s-1.195,1.89-2.017,2.31a33.614,33.614,0,0,1-3.715,1.471,50.091,50.091,0,0,0-8.041,3.451,21.5,21.5,0,0,0-7.5,6.7A1,1,0,0,1,413.715,246.1Z" transform="translate(-14 51)" fill="#5bb3b3" />
            <path d="M394.7,245.633a1,1,0,0,1-.967-1.259,6.9,6.9,0,0,0-.185-4.179,6.974,6.974,0,0,1-3.268-1.991,5.772,5.772,0,0,1-1.445-3.291,6.048,6.048,0,0,1,.57-3.225,4.769,4.769,0,0,1,2.209-2.254,4.1,4.1,0,0,1,2.859-.213,5.893,5.893,0,0,1,1.915.962,9.016,9.016,0,0,0,.155-5.983A24.257,24.257,0,0,0,393,217.9c-1.988-2.856-4.044-5.81-4.418-9.461a1,1,0,0,1,.037-.389,10.667,10.667,0,0,1,1.777-3.744,3.116,3.116,0,0,1,2.654-1.294c1.253.082,2.5.962,3.806,2.691a28.811,28.811,0,0,1,3.024,5.322,57.207,57.207,0,0,1,3.071,8.481c3.85-6.656,4.562-14.973,5.252-23.042.114-1.331.232-2.706.361-4.039a1,1,0,0,1,.665-.847c2.393-.837,4.3-.646,5.683.567,2.028,1.785,2.678,5.589,2.043,11.971A163.288,163.288,0,0,1,414,220.774c-.769,3.623-1.5,7.044-1.821,9.486A1,1,0,0,1,410.2,230c.336-2.517,1.07-5.975,1.847-9.637a161.887,161.887,0,0,0,2.914-16.436,30.5,30.5,0,0,0,.075-6.619,5.815,5.815,0,0,0-1.45-3.652,3.189,3.189,0,0,0-3.1-.369c-.1,1.114-.2,2.251-.3,3.357a109.074,109.074,0,0,1-1.733,13.55,32.8,32.8,0,0,1-5.152,12.449,1,1,0,0,1-1.8-.423,48.749,48.749,0,0,0-3.451-10.356c-2.259-4.949-4.137-6.782-5.141-6.848-.789-.052-1.632,1.193-2.325,3.423.375,3.051,2.16,5.615,4.047,8.327a26.083,26.083,0,0,1,3.812,6.841,11.406,11.406,0,0,1-.777,8.678,1,1,0,0,1-1.618.266c-1.288-1.32-2.565-1.781-3.6-1.3a3.487,3.487,0,0,0-1.635,3.467c.182,1.813,1.534,3.154,3.71,3.677a1,1,0,0,1,.69.591,8.936,8.936,0,0,1,.44,5.91A1,1,0,0,1,394.7,245.633Z" transform="translate(-14 51)" fill="#5bb3b3" />
            <path d="M386.641,246.682a1,1,0,0,1-.9-.57c-.708-1.485-1.374-2.854-2.019-4.178-1.976-4.061-3.682-7.568-5.268-11.708a1,1,0,0,1-.065-.414,27.461,27.461,0,0,0-.79-9.474,6.345,6.345,0,0,0-2.416-3.645,2.316,2.316,0,0,0-2.529.132,3.5,3.5,0,0,0-1.347,3.424,1,1,0,0,1-.487,1.015,2.056,2.056,0,0,1-1.7.189c-1.744-.563-3.034-3.274-5-7.652a60.549,60.549,0,0,0-2.874-5.865c-1.031-1.738-1.966-2.755-2.779-3.023a1.327,1.327,0,0,0-1.141.147l-.039.021c-.321.162-1.174.594-.66,2.961a30.8,30.8,0,0,0,2.141,5.6c1.293,2.838,1.962,4.408,1.5,5.485-.782,2.676,2.082,4.276,6.206,6.24a24.3,24.3,0,0,1,3.817,2.08,1,1,0,0,1,.232.242c3.464,5.1,4.478,10.409,5.458,15.542.108.565.219,1.148.332,1.723a1,1,0,1,1-1.962.386c-.114-.58-.226-1.167-.335-1.734-.976-5.108-1.9-9.936-5.051-14.649a25.255,25.255,0,0,0-3.352-1.785,24.063,24.063,0,0,1-5.4-3.147c-1.863-1.621-2.483-3.488-1.843-5.55a1,1,0,0,1,.039-.1,3.751,3.751,0,0,0-.336-1.287c-.277-.742-.691-1.651-1.13-2.613a32.143,32.143,0,0,1-2.275-6,6.473,6.473,0,0,1-.079-2.9,3.36,3.36,0,0,1,1.771-2.264,3.3,3.3,0,0,1,2.729-.293c2.8.923,4.86,5.522,6.853,9.97.773,1.725,1.5,3.354,2.207,4.6a8.122,8.122,0,0,0,1.127,1.626,5.386,5.386,0,0,1,2.236-4.031,4.307,4.307,0,0,1,4.645-.232c1.823,1.022,4.784,4.3,4.236,14.761,1.533,3.974,3.2,7.4,5.122,11.349.646,1.328,1.314,2.7,2.025,4.192a1,1,0,0,1-.9,1.431Z" transform="translate(-14 51)" fill="#5bb3b3" />
        </g>
        <path d="M317.834,165.8c-1.168,0-2.073-1.187-2.652-2.08a28.529,28.529,0,0,1-2.077-4.087c-1.17-2.719-2.279-5.892-3.084-8.344-3.1,1.007-7.909,2.376-11.2,2.376-1.9,0-3.144-.453-3.793-1.386a2.08,2.08,0,0,1-.287-1.805c.372-1.322,1.954-2.76,4.98-4.525,1.916-1.118,4.1-2.176,5.866-2.981-1.2-1.688-2.913-4.2-4.355-6.714a31.412,31.412,0,0,1-2.2-4.5,6.242,6.242,0,0,1-.492-3.865,1.816,1.816,0,0,1,1.807-1.334c.843,0,2.424.4,6.41,3.859,1.87,1.623,3.763,3.474,5.228,4.963,1.154-1.724,2.885-4.208,4.668-6.391,3.773-4.621,5.536-5.156,6.534-5.156a2.256,2.256,0,0,1,.452.045,1.742,1.742,0,0,1,1.25.993c.382.813.554,2.378-1.52,7.306-1.052,2.5-2.417,5.234-3.538,7.375a52.457,52.457,0,0,1,6.392,2.016,17.61,17.61,0,0,1,3.432,1.761,4.451,4.451,0,0,1,2.009,2.521,2.058,2.058,0,0,1-.393,1.8c-.558.7-1.878,1.636-6.869,1.636h0c-2.165,0-4.473-.175-6.167-.34a81.007,81.007,0,0,1,1.655,8.043c.618,4.326.4,6.919-.694,8.16A1.772,1.772,0,0,1,317.834,165.8Zm-7.172-16.777a1,1,0,0,1,.952.694c.761,2.369,1.929,5.813,3.176,8.768,1.683,3.988,2.644,5,2.972,5.244.275-.424.8-1.876.142-6.457a84.691,84.691,0,0,0-1.972-9.215,1,1,0,0,1,1.08-1.251,69.913,69.913,0,0,0,7.385.48c4.382,0,5.187-.734,5.3-.881.021-.026.027-.034.01-.107-.267-1.154-3.465-3.186-11.6-5.111a1,1,0,0,1-.652-1.444c1.185-2.218,2.853-5.472,4.074-8.378,1.622-3.861,1.629-5.168,1.57-5.53-.38.055-1.75.548-4.907,4.414-2.127,2.605-4.19,5.667-5.23,7.26a1,1,0,0,1-1.557.148c-1.5-1.556-3.758-3.814-5.969-5.733-3.326-2.886-4.613-3.315-5.016-3.364-.121.558-.031,2.223,2.538,6.7a89.373,89.373,0,0,0,4.957,7.534,1,1,0,0,1-.406,1.5,71.039,71.039,0,0,0-6.789,3.381c-3.467,2.023-3.986,3.067-4.062,3.339-.023.082-.013.1,0,.122.086.124.5.528,2.151.528,3.5,0,9.223-1.811,11.522-2.589A1,1,0,0,1,310.662,149.023Z" transform="translate(47.041 23.721)" fill="#5bb3b3" />
        <path d="M335.955,240.289l-.076,0a1,1,0,0,1-.922-1.072c.233-3.1,1.241-9.882,1.823-12.677a81.816,81.816,0,0,1,4.792-15.962,40.053,40.053,0,0,1,4.038-7.272,24.7,24.7,0,0,1,5.567-5.719,18.726,18.726,0,0,0,4.431-4.115,2.867,2.867,0,0,0,.68-2.157c-.3-1.262-2.407-1.934-3.315-2.116a12.774,12.774,0,0,0-3.633.939,16.625,16.625,0,0,0-3.16,3.559,25.723,25.723,0,0,0-3.078,6.292,1,1,0,0,1-.874.678,3.871,3.871,0,0,1-3.121-.834c-1.064-1.088-.894-2.856-.678-5.094.266-2.767,1.547-5.195,2.787-7.543.34-.644.691-1.31,1.01-1.962a20.331,20.331,0,0,1,1.094-1.887c1.431-2.274,2.464-3.917-.056-6.511-.3-.306-.463-.269-.65-.19-.3.127-1.125.663-2.309,2.881a37.094,37.094,0,0,0-2.486,6.221,47.469,47.469,0,0,0-2.372,14.088q.016.494.032.992c.295,9.039.629,19.285-5.86,25.642a1,1,0,0,1-1.307.08,25.206,25.206,0,0,1-7.012-9.284,28.976,28.976,0,0,1-2.827-10.751c-.094-2.836,1.13-5.478,2.114-7.6.653-1.41,1.394-3.008,1.1-3.589-.114-.228-.509-.423-1.112-.549-1.375-.288-2.285-.249-2.781.12a3.981,3.981,0,0,0-.978,1.812,10.187,10.187,0,0,1-1.219,2.543,1,1,0,0,1-1.809-.7,44.713,44.713,0,0,0,.107-9.518c-.343-3.271-1.112-5.786-2.165-7.081a2.425,2.425,0,0,0-1.682-1.007,1.188,1.188,0,0,0-1,.44c-.693.7-1.946,2.8-2.549,9.029a68.363,68.363,0,0,0-.043,12.117,1,1,0,0,1-1.644.856,21.332,21.332,0,0,1-3.112-3.94c-.68-1-1.383-2.025-2.018-2.779a3.489,3.489,0,0,0-1.164-1.051,1.6,1.6,0,0,0-.263.469c-.345.844-.38,2.916,3.263,7.32a59.313,59.313,0,0,0,8.909,8.443c6.338,4.9,8.961,11.363,11.738,18.206.959,2.363,1.95,4.806,3.128,7.278a1,1,0,0,1-1.806.86c-1.2-2.525-2.205-5-3.175-7.385a75.314,75.314,0,0,0-4.4-9.562,26.035,26.035,0,0,0-6.713-7.814,61.423,61.423,0,0,1-9.227-8.75,21.672,21.672,0,0,1-3.148-4.8,5.781,5.781,0,0,1-.425-4.551,2.376,2.376,0,0,1,1.877-1.716c1.132-.12,2.087.795,2.793,1.605a35.125,35.125,0,0,1,2.277,3.1c.3.443.609.891.911,1.319a72.188,72.188,0,0,1,.246-9.417c.506-5.221,1.556-8.668,3.12-10.244a3.2,3.2,0,0,1,2.591-1.024,4.375,4.375,0,0,1,3.06,1.738c1.333,1.639,2.208,4.376,2.6,8.134a43.081,43.081,0,0,1,.211,4.93,3.3,3.3,0,0,1,.5-.465c1-.742,2.39-.892,4.386-.474a3.3,3.3,0,0,1,2.489,1.61c.724,1.443-.11,3.243-1.076,5.326-.941,2.031-2.008,4.333-1.93,6.694.181,5.467,3.4,13.665,8.365,17.95,2.236-2.486,3.646-5.827,4.3-10.178a75.068,75.068,0,0,0,.345-13.326q-.016-.5-.032-.994a49.551,49.551,0,0,1,2.462-14.746c1.051-3.372,3.217-9.2,5.923-10.349a2.46,2.46,0,0,1,2.865.638c1.6,1.649,2.276,3.288,2.061,5.013a9.917,9.917,0,0,1-1.746,3.957,18.562,18.562,0,0,0-.99,1.7c-.332.681-.691,1.361-1.039,2.019-1.2,2.276-2.337,4.426-2.565,6.8-.146,1.515-.3,3.081.117,3.5a1.4,1.4,0,0,0,.9.253,22.949,22.949,0,0,1,6.645-10.105c.908-.737,3.627-1.215,4.753-1.386a1,1,0,0,1,.312,0,10.071,10.071,0,0,1,2.175.663,4.6,4.6,0,0,1,2.911,2.995c.556,2.36-1.37,5.092-5.888,8.352a22.711,22.711,0,0,0-5.11,5.261,38.063,38.063,0,0,0-3.832,6.908,79.884,79.884,0,0,0-4.667,15.571c-.612,2.936-1.581,9.668-1.787,12.419A1,1,0,0,1,335.955,240.289Z" transform="translate(-26.165 62.272)" fill="#5bb3b3" />
        <path d="M263.525,1H0A1,1,0,0,1-1,0,1,1,0,0,1,0-1H263.525a1,1,0,0,1,1,1A1,1,0,0,1,263.525,1Z" transform="translate(0.5 266.711)" fill="#5bb3b3" />
        <path d="M54.354,1H0A1,1,0,0,1-1,0,1,1,0,0,1,0-1H54.354a1,1,0,0,1,1,1A1,1,0,0,1,54.354,1Z" transform="translate(0.5 276.415)" fill="#5bb3b3" />
        <path d="M45.985,1H0A1,1,0,0,1-1,0,1,1,0,0,1,0-1H45.985a1,1,0,0,1,1,1A1,1,0,0,1,45.985,1Z" transform="translate(27.288 295.561)" fill="#5bb3b3" />
        <path d="M193.437,1H0A1,1,0,0,1-1,0,1,1,0,0,1,0-1H193.437a1,1,0,0,1,1,1A1,1,0,0,1,193.437,1Z" transform="translate(139.724 308.852)" fill="#5bb3b3" />
        <path d="M66.4,1H0A1,1,0,0,1-1,0,1,1,0,0,1,0-1H66.4a1,1,0,0,1,1,1A1,1,0,0,1,66.4,1Z" transform="translate(163.102 287.913)" fill="#5bb3b3" />
        <path d="M37.372,1H0A1,1,0,0,1-1,0,1,1,0,0,1,0-1H37.372a1,1,0,0,1,1,1A1,1,0,0,1,37.372,1Z" transform="translate(245.5 279.766)" fill="#5bb3b3" />
        <path d="M19.084,1H0A1,1,0,0,1-1,0,1,1,0,0,1,0-1H19.084a1,1,0,0,1,1,1A1,1,0,0,1,19.084,1Z" transform="translate(144.416 275.559)" fill="#5bb3b3" />
        <path d="M175.832,214.372H1a1,1,0,0,1,0-2H173.648l-14.467-16.764a214.345,214.345,0,0,1-20.616-10.08,213.445,213.445,0,0,1-19.424-12.092A150.754,150.754,0,0,1,100.4,158.028c-3.813,5.295-9.99,10.766-18.383,16.28A199.719,199.719,0,0,1,56.2,188.3a333.522,333.522,0,0,1-32.547,12.9,1,1,0,0,1-.261.047c-.085,0-8.654.4-22.368.682a1,1,0,0,1-.041-2c12.75-.263,21.039-.623,22.181-.674a332.913,332.913,0,0,0,32.218-12.779,197.659,197.659,0,0,0,25.545-13.84c8.689-5.709,14.912-11.33,18.5-16.706a1,1,0,0,1,1.539-.152A146.945,146.945,0,0,0,120.292,171.8a211.438,211.438,0,0,0,19.241,11.978,207.9,207.9,0,0,0,20.621,10.067,1,1,0,0,1,.385.275l16.05,18.6a1,1,0,0,1-.757,1.653Z" transform="translate(-30 44.334)" fill="#5bb3b3" />
        <path d="M187.367,214.529H174.458a1,1,0,0,1,0-2h10.828l-12.973-16.217c-1.627-.666-11.1-4.611-22.907-10.971a233.072,233.072,0,0,1-21.017-12.711,144.009,144.009,0,0,1-20.031-16.245h-7.607a1,1,0,0,1,0-2h8.02a1,1,0,0,1,.707.293,141.208,141.208,0,0,0,20.04,16.3,231.072,231.072,0,0,0,20.835,12.6A251.08,251.08,0,0,0,173.3,194.555a1,1,0,0,1,.41.3L188.148,212.9a1,1,0,0,1-.781,1.625Z" transform="translate(-30 44.334)" fill="#5bb3b3" />
        <path d="M0,54.794a1,1,0,0,1-1-1V0A1,1,0,0,1,0-1,1,1,0,0,1,1,0V53.794A1,1,0,0,1,0,54.794Z" transform="translate(70.259 201.724)" fill="#5bb3b3" />
        <path d="M0,17.73a1,1,0,0,1-1-1V0A1,1,0,0,1,0-1,1,1,0,0,1,1,0V16.73A1,1,0,0,1,0,17.73Z" transform="translate(12.237 238.131)" fill="#5bb3b3" />
        <path d="M0,27.258a1,1,0,0,1-1-1V0A1,1,0,0,1,0-1,1,1,0,0,1,1,0V26.258A1,1,0,0,1,0,27.258Z" transform="translate(31.151 229.259)" fill="#5bb3b3" />
        <path d="M0,38.2a1,1,0,0,1-1-1V0A1,1,0,0,1,0-1,1,1,0,0,1,1,0V37.2A1,1,0,0,1,0,38.2Z" transform="translate(50.705 218.318)" fill="#5bb3b3" />
        <path d="M140.854,212.184a1,1,0,0,1-1-1V185.46a1,1,0,0,1,1-1h10.023a1,1,0,0,1,0,2h-9.023v24.724A1,1,0,0,1,140.854,212.184Z" transform="translate(-30 44.334)" fill="#5bb3b3" />
        <path d="M160.9,212.184a1,1,0,0,1-1-1l0-15.7a1,1,0,0,1,.969-1l10.217-.318a1,1,0,0,1,.062,2l-9.248.288,0,14.73A1,1,0,0,1,160.9,212.184Z" transform="translate(-30 44.334)" fill="#5bb3b3" />
        <path d="M120.8,212.184a1,1,0,0,1-1-1v-37.2a1,1,0,0,1,.945-1l10.023-.555a1,1,0,1,1,.111,2l-9.078.5v36.253A1,1,0,0,1,120.8,212.184Z" transform="translate(-30 44.334)" fill="#5bb3b3" />
        <path d="M0,11.456a1,1,0,0,1-1-1V0A1,1,0,0,1,0-1,1,1,0,0,1,1,0V10.456A1,1,0,0,1,0,11.456Z" transform="translate(-6.45 244.404)" fill="#5bb3b3" />
        <g transform="translate(9.168 15.349)">
            <path d="M378.1,136.55a36.816,36.816,0,0,1,14.99,3.277,74.949,74.949,0,0,1,10.937,6.206c2.8,1.822,5.234,3.409,6.948,3.731a33.252,33.252,0,0,1,13.483-3.112h0c6.788,0,10.606,2.6,10.766,2.712a1,1,0,0,1-.45,1.814,54.851,54.851,0,0,0-10.958,2.2,8.3,8.3,0,0,0-2.492,1.182c-.05.075-.035.055-.117.111a.4.4,0,0,0-.1.4c.1.4,1.138,2.532,11.357,5.088a1,1,0,0,1-.022,1.945,47.248,47.248,0,0,1-10.376,1.238c-6.66,0-10.591-1.719-11.9-2.41a106.173,106.173,0,0,1-21.544,6.459,71.951,71.951,0,0,1-12.784,1.237,39.882,39.882,0,0,1-17.443-3.539,27.671,27.671,0,0,1-13.117-13.357,1,1,0,0,1,.267-1.2,68.979,68.979,0,0,1,17.624-10.9A39.841,39.841,0,0,1,378.1,136.55ZM411.112,151.8a1,1,0,0,1-.116-.007c-2.189-.255-4.782-1.944-8.065-4.082-5.935-3.865-14.063-9.158-24.836-9.158a37.855,37.855,0,0,0-14.183,2.93,66.17,66.17,0,0,0-16.489,10.094,26.825,26.825,0,0,0,4.967,6.885,25.458,25.458,0,0,0,6.869,4.832,37.918,37.918,0,0,0,16.572,3.339,69.934,69.934,0,0,0,12.407-1.2,98.967,98.967,0,0,0,10.894-2.653,96.577,96.577,0,0,0,10.673-3.87,1,1,0,0,1,.958.072,13.039,13.039,0,0,0,2.8,1.181,28.38,28.38,0,0,0,8.5,1.185,41.519,41.519,0,0,0,5.72-.414,30.508,30.508,0,0,1-5.578-2.26c-1.811-1.012-2.812-2.056-3.061-3.191a2.422,2.422,0,0,1,.728-2.3c.5-.509,2.715-2.177,11.238-3.514a21.439,21.439,0,0,0-6.656-1.014h0a31.447,31.447,0,0,0-12.929,3.056A1,1,0,0,1,411.112,151.8Z" transform="translate(-54.704 45.811)" fill="#5bb3b3" />
            <path d="M363.937,145.408a4.561,4.561,0,0,1,.406,9.1c-.138.012-.277.019-.415.019a4.561,4.561,0,0,1-.406-9.1C363.66,145.415,363.8,145.408,363.937,145.408Zm-.008,7.122c.078,0,.157,0,.235-.011a2.555,2.555,0,1,0-.235.011Z" transform="translate(-54.704 45.811)" fill="#5bb3b3" />
            <path d="M375.831,163.924a1,1,0,0,1-.974-1.23,34.061,34.061,0,0,0,.012-14.269,35.241,35.241,0,0,0-1.878-6.382,1,1,0,0,1,1.833-.8,36.441,36.441,0,0,1,1.994,6.731,39.81,39.81,0,0,1,.8,6.977,32.443,32.443,0,0,1-.817,8.2A1,1,0,0,1,375.831,163.924Z" transform="translate(-54.704 48.811)" fill="#5bb3b3" />
            <path d="M384,163.186a1,1,0,0,1-.966-1.26,27.8,27.8,0,0,0,.134-12.823,29.1,29.1,0,0,0-1.811-5.731,1,1,0,0,1,1.807-.857,30.433,30.433,0,0,1,1.948,6.111,32.751,32.751,0,0,1,.746,6.343,27.039,27.039,0,0,1-.892,7.477A1,1,0,0,1,384,163.186Z" transform="translate(-54.704 48.811)" fill="#5bb3b3" />
            <path d="M355.921,124.9a4.644,4.644,0,1,1-4.644,4.644A4.649,4.649,0,0,1,355.921,124.9Zm0,7.288a2.644,2.644,0,1,0-2.644-2.644A2.647,2.647,0,0,0,355.921,132.185Z" transform="translate(-54.704 45.811)" fill="#5bb3b3" />
            <path d="M357.181,124.9a5.9,5.9,0,1,1-5.9,5.9A5.911,5.911,0,0,1,357.181,124.9Zm0,9.808a3.9,3.9,0,1,0-3.9-3.9A3.909,3.909,0,0,0,357.181,134.705Z" transform="translate(-49.224 27.29)" fill="#5bb3b3" />
        </g>
        <path d="M167.773,87.14A83.886,83.886,0,1,1,83.886,3.254,83.886,83.886,0,0,1,167.773,87.14" transform="translate(116.182 72.473)" fill="#ffd964" />
        <path d="M158.625,163.6c-1.065-1.326-.132-2.171-.514-2.8-.858-2.012-3.407-4.117-2.933-5.78-1.748.211.282-1.2.91-1.062-.748-3.494-2.02-6.961-.046-10.656-.86.678-1.76-2.122-3-2.433,1.121-3.31.624-3.193-2.916-4.709.576-2.25-8.334-11.463-8.914-10.948,1,.757-4.3-2.194-5.514-4.126-2.679.411-1.792-2.78-2.415-5.206a7.587,7.587,0,0,0-.825-5.947c-.292.779-4.926.159-4.886-.853-2.618-3.029-2.058,1.806-1,3.534-2.271-3.247-3.745-1.119-4.407-4.541-2.037-2.908.046-6.337-2.5-6.058-.244-.2.5-2.723-.673-2.122-.341-1.955-.242-2.545-1.815-3.081.64-.521-1.236-1.142-1.982-.567.822-1.2-.625-1.074-.947-1.914-.771-1.251-.229-1.783.63-2.347.622.241-3.668-2.775-4.8-3.439.89-.3-2.561-2-2.461-1.437-3.6-1.548-4.794-6.12-9.243-6.844-4.579,1.776-7.073-3.2-6.988-6.1-2.879-1.574-2.4-5.33-1.235-8.175-.328-2.173-3.151-4.895-1.823-6.947.324-.663-2.036,0-1.389.752-.679-1.911-4.186-4.5-3.392-7.3.609-3.006-2.466-5.9-1.275-8.1-.59-.437.809-.467.409-.963-1.6.9-.811-1.918.036-2.678-2.247-.787-3.852-3.216-6.233-3.609-1.553-5.413-1.1-2.418-4.188-2.783-.2-.054-1.772,2.906-2.822,2.136-4.6-4.459-3.987-15.013-4.593-17.476-2.183-1.8-4.933-3.955-1.724-6.017-4.585.18-3.679-4.358-4.093-7.435-.246-3.514-4.407-1.435-1.822-3.971C53.283.189,50.2,14.289,50.7,12.878c-1.992.553-.614,3.3-1.687,2.563-1.411,1.181,2.546,5.595.817,4.078-1.507,2.506-4.322,10.614-2.015,13.943-.442,8.484-1.9,36.77-15.663,32.283C27.916,61.155,14.9,57.284,14.9,57.284l-.715,86.625H42.182v27.986l75.047-.142s8.672-5.2,18.668-2.336c-.1,1.656,2.378.733,2.457,2.478-.228,2.384,1.971,1.361,2.286-.417,6.15.849,2.392-3.684,6.487-4.967C149.96,164.108,156.483,167.478,158.625,163.6Z" transform="translate(118.243 72.218)" fill="#b1a8e3" />
        <path d="M139.024,175.291a2.561,2.561,0,0,1-1.919-.844,3.083,3.083,0,0,1-.76-1.954,4.116,4.116,0,0,1-1.368-.676,2.851,2.851,0,0,1-.66-.744,20.719,20.719,0,0,0-4.638-.519,24.5,24.5,0,0,0-11.422,2.913,2,2,0,0,1-1.025.285l-75.047.142h0a2,2,0,0,1-2-2V145.908H14.188a2,2,0,0,1-2-2.016L12.9,57.267a2,2,0,0,1,2.57-1.9c.137.041,3.391,1.014,7.221,2.574,4.952,2.018,8.49,4.047,10.529,6.036a6.784,6.784,0,0,0,1.742.247c1.908,0,3.546-1.028,5.007-3.142a27,27,0,0,0,3.5-8.741,103.981,103.981,0,0,0,2.315-18.38c-1-1.932-1.119-4.688-.348-8.206a29.173,29.173,0,0,1,2.249-6.482,10.7,10.7,0,0,1-.65-1.4c-.754-2.051-.071-3.228.521-3.811a4.345,4.345,0,0,1,.253-1.011A3.421,3.421,0,0,1,48.874,11.6a42.746,42.746,0,0,1,1.734-5.533,19.226,19.226,0,0,1,2.126-4.1C53.913.329,55.242-.5,56.684-.5a3.665,3.665,0,0,1,1.232.215,2,2,0,0,1,1.29,2.276,4.116,4.116,0,0,1,.418.32,4.352,4.352,0,0,1,1.433,3.052c.087.67.119,1.367.15,2.041a9.541,9.541,0,0,0,.425,3.021c.125.274.268.585,1.269.585.059,0,.119,0,.181,0a2,2,0,0,1,1.16,3.681,2.417,2.417,0,0,0-.515.413,3.14,3.14,0,0,0,.57.743,20.268,20.268,0,0,0,1.713,1.515l.145.12a2,2,0,0,1,.671,1.066,22.574,22.574,0,0,1,.368,3.327c.244,3.448.634,8.966,2.8,12.144.105-.137.2-.261.258-.342.125-.168.232-.313.338-.442a2.154,2.154,0,0,1,1.7-.87,2.024,2.024,0,0,1,.262.017,2.452,2.452,0,0,0,.269.016,1.933,1.933,0,0,0,.85-.211A3.269,3.269,0,0,1,75,31.86a2.438,2.438,0,0,1,1.726.722,3.583,3.583,0,0,1,.726,1.1,15.384,15.384,0,0,1,.648,1.84,12.452,12.452,0,0,1,3.091,1.934,8.745,8.745,0,0,0,2.194,1.407,2,2,0,0,1,.807,3.246l.054.064a2.219,2.219,0,0,1,.475,1.846,2.178,2.178,0,0,1-.581,1.108,2.012,2.012,0,0,1-.1.216c-.171.315.26,1.4.575,2.195a9.275,9.275,0,0,1,.9,5.346q-.015.074-.036.147c-.25.882.763,2.2,1.657,3.366q.165.215.325.425a3.343,3.343,0,0,1,.622-.061A2.247,2.247,0,0,1,90.04,57.8a2.174,2.174,0,0,1,.088,2.119,2,2,0,0,1-.118.208.811.811,0,0,0,.028.5,10.618,10.618,0,0,0,.845,1.871,10.4,10.4,0,0,1,1.249,3.188,2,2,0,0,1-.127,1.056,8.756,8.756,0,0,0-.754,3.68,2.122,2.122,0,0,0,1.1,1.982,2,2,0,0,1,1.04,1.813,5.567,5.567,0,0,0,1.429,3.623,2.309,2.309,0,0,0,1.7.793,3.18,3.18,0,0,0,1.139-.238,2,2,0,0,1,1.044-.109c3.222.524,5.113,2.636,6.633,4.333A11.962,11.962,0,0,0,107.883,85a5.891,5.891,0,0,1,2.231.752,4.178,4.178,0,0,1,1.871,1.633c.642.423,1.427.964,2.092,1.433.413.292,1.005.714,1.478,1.072.224.17.4.306.526.416a3.558,3.558,0,0,1,.264.244,2.046,2.046,0,0,1,.527,1.968,2,2,0,0,1-.6.972,3.091,3.091,0,0,1,.66.618A3.041,3.041,0,0,1,119,95.453a3.521,3.521,0,0,1,1.177,1.178,4.835,4.835,0,0,1,.578,1.682,2.329,2.329,0,0,1,.232.219,2.837,2.837,0,0,1,.689,1.946,2.878,2.878,0,0,1,1.1,1.358,6.328,6.328,0,0,1,.342,2.191,5.168,5.168,0,0,0,.688,2.9,2,2,0,0,1,.264.528q.02-.039.041-.076a2.424,2.424,0,0,1,2.13-1.273,3.956,3.956,0,0,1,2.845,1.668,2,2,0,0,1,.158.209,6.8,6.8,0,0,0,1.935.3c.058,0,.109,0,.152,0a2,2,0,0,1,2.871.671,9.576,9.576,0,0,1,1.133,6.943,17.1,17.1,0,0,1,.229,2.048c.024.344.056.806.106,1.144a2,2,0,0,1,1.722.935,8.828,8.828,0,0,0,2.295,1.994c.73.511,1.416.934,1.863,1.193a3.914,3.914,0,0,1,1.941,1.02c.5.41,1.129.983,1.809,1.656a50.009,50.009,0,0,1,4.135,4.644,14.585,14.585,0,0,1,2.526,4.236c1.562.659,2.607,1.145,3.217,2.26a4.042,4.042,0,0,1,.189,3.078,11.806,11.806,0,0,1,.813,1.015l.153.206a2,2,0,0,1,1.471,2.921c-1.345,2.517-.769,4.967-.1,7.8.114.485.232.987.34,1.491a2,2,0,0,1-.863,2.093,11.979,11.979,0,0,0,1.113,1.711,14.469,14.469,0,0,1,1.612,2.571,3.1,3.1,0,0,1,.224,2.041c-.015.087-.034.2-.037.258a.8.8,0,0,0,.09.132,2,2,0,0,1,.192,2.219,5.486,5.486,0,0,1-3.1,2.584,10.5,10.5,0,0,1-3.435.471c-.524,0-1.047-.018-1.553-.036-.49-.017-.952-.033-1.4-.033a4.44,4.44,0,0,0-2.474.486,2,2,0,0,1-.7.383c-.691.216-.759.408-1.006,1.388a5.267,5.267,0,0,1-1.137,2.44A4.572,4.572,0,0,1,142,173.581h-.1A3.593,3.593,0,0,1,139.024,175.291ZM42.182,141.907a2,2,0,0,1,2,2v25.982l72.528-.137a28.818,28.818,0,0,1,12.97-3.2,24.546,24.546,0,0,1,6.769.939,2,2,0,0,1,1.336,1.26,4.345,4.345,0,0,1,1.343.654,3.164,3.164,0,0,1,.427.389,1.993,1.993,0,0,1,1.358-.3,8.133,8.133,0,0,0,1.086.086h0a2.3,2.3,0,0,0,.641-.067,5.789,5.789,0,0,0,.2-.685,5.227,5.227,0,0,1,3.322-4.1,7.907,7.907,0,0,1,4.733-1.178c.515,0,1.035.018,1.537.035s.96.033,1.415.033a5.446,5.446,0,0,0,2.384-.361,4.265,4.265,0,0,1-.056-1.884,13.914,13.914,0,0,0-1.11-1.674,10.453,10.453,0,0,1-1.8-3.181,2.14,2.14,0,0,1-.476-2.761,3.207,3.207,0,0,1,.972-1.007c-.611-2.605-1.245-5.491-.258-8.567-.2-.233-.375-.471-.535-.687a7.422,7.422,0,0,0-.6-.746,2,2,0,0,1-1.218-2.524c.217-.64.329-1.033.383-1.274-.334-.172-.889-.4-1.394-.617-.247-.1-.513-.216-.8-.338a2,2,0,0,1-1.2-2.066c-.137-.456-.922-1.971-3.352-4.751a36.669,36.669,0,0,0-3.863-3.887,4.941,4.941,0,0,1-1.428-.654c-.562-.327-1.2-.729-1.792-1.134a17.958,17.958,0,0,1-2.958-2.418,3.29,3.29,0,0,1-2.7-2.132,9.048,9.048,0,0,1-.472-2.737,11.007,11.007,0,0,0-.227-1.843,2,2,0,0,1,0-1,5.459,5.459,0,0,0-.032-3.093h-.137a11.692,11.692,0,0,1-2.728-.364,2,2,0,0,1-3.515,1.84,3.214,3.214,0,0,0-1.742-1.426,4.244,4.244,0,0,1-2.9-3.478,9.137,9.137,0,0,1-1.17-4.67c0-.078-.006-.164-.01-.251a2,2,0,0,1-.7-.365,2.217,2.217,0,0,1-.8-1.812c0-.132.007-.268.016-.4a2,2,0,0,1-.606-1.119c-.042-.239-.077-.458-.108-.652-.044-.273-.1-.6-.142-.789-.055-.024-.133-.054-.24-.091a2,2,0,0,1-.817-.529,2,2,0,0,1-2.52-1.966,2.986,2.986,0,0,1-.729-.962,3.452,3.452,0,0,1-.42-2.965c-1.073-.763-2.419-1.685-2.981-2.015a2,2,0,0,1-.849-.995c-.122-.065-.252-.128-.37-.18a2,2,0,0,1-1.02-.15,13.081,13.081,0,0,1-4.478-3.654c-1.393-1.556-2.369-2.575-3.844-2.959a6.9,6.9,0,0,1-1.993.3,6.276,6.276,0,0,1-4.568-2.006,9.629,9.629,0,0,1-2.5-5.375,5.765,5.765,0,0,1-1.382-1.667,6.858,6.858,0,0,1-.808-2.911,12.255,12.255,0,0,1,.8-4.815,14.081,14.081,0,0,0-.719-1.5,13.332,13.332,0,0,1-1.165-2.689l-.009-.033a1.994,1.994,0,0,1-.741-.54,2.482,2.482,0,0,1-.494-.893,14.319,14.319,0,0,0-.974-1.365c-1.306-1.7-3.088-4.024-2.358-6.8a6.261,6.261,0,0,0-.709-3.023,7.571,7.571,0,0,1-.765-4.571,2.451,2.451,0,0,1-.18-.373,3.761,3.761,0,0,1,.063-2.506c-.454-.31-.877-.638-1.277-.949a6.66,6.66,0,0,0-2.571-1.5,2,2,0,0,1-1.6-1.422q-.252-.879-.435-1.454a5.593,5.593,0,0,1-.9.137c-.754,1-1.835,2.245-3.367,2.246a2.629,2.629,0,0,1-1.564-.515,2,2,0,0,1-.21-.177c-1.827-1.77-3.1-4.366-3.9-7.936a53.545,53.545,0,0,1-.983-7.844c-.053-.75-.107-1.519-.17-2.065-1.646-1.369-3.461-3.052-3.332-5.253a3.729,3.729,0,0,1,.092-.635,4.848,4.848,0,0,1-1.8-2.11,12.24,12.24,0,0,1-.784-4.5c-.03-.637-.058-1.238-.127-1.753q-.009-.063-.013-.127a.95.95,0,0,0-.082-.388,2.289,2.289,0,0,0-.512-.2,4.792,4.792,0,0,1-.755-.29l-.071-.037a18.816,18.816,0,0,0-1.478,3.137A37.9,37.9,0,0,0,52.7,12.814a2,2,0,0,1-.116.737,2.089,2.089,0,0,1-1.076,1.234c0,.073-.006.147-.008.206a4.316,4.316,0,0,1-.088.842,2.32,2.32,0,0,1-.487.985c.231.491.577,1.07.724,1.318.12.2.224.375.308.531a2.118,2.118,0,0,1,.056,2.145,2.019,2.019,0,0,1-1.058.9,26.524,26.524,0,0,0-1.609,4.9c-.578,2.641-.536,4.776.113,5.712a2,2,0,0,1,.354,1.244l0,.029a110.076,110.076,0,0,1-2.455,19.7,30.825,30.825,0,0,1-4.1,10.061,12.3,12.3,0,0,1-3.5,3.477,8.88,8.88,0,0,1-4.8,1.391h0a11.093,11.093,0,0,1-3.429-.578,2,2,0,0,1-.85-.545c-2.568-2.782-9.445-5.569-13.8-7.075L16.2,141.908Z" transform="translate(118.243 72.218)" fill="#313e58" />
        <path d="M19.657-9.664a11.978,11.978,0,0,1-1.338,5.906,7.32,7.32,0,0,1-3.9,3.375l4.614,4.97H14.792L11.153.264h-.514a8.57,8.57,0,0,1-6.7-2.591Q1.6-4.917,1.6-9.69t2.353-7.33a8.671,8.671,0,0,1,6.717-2.558,8.5,8.5,0,0,1,6.645,2.6Q19.657-14.383,19.657-9.664Zm-14.713,0a8.643,8.643,0,0,0,1.437,5.4,5.074,5.074,0,0,0,4.258,1.839,5.064,5.064,0,0,0,4.239-1.819,8.658,8.658,0,0,0,1.43-5.418,8.677,8.677,0,0,0-1.417-5.379,5.011,5.011,0,0,0-4.225-1.833,5.115,5.115,0,0,0-4.278,1.833A8.559,8.559,0,0,0,4.944-9.664ZM24.849,0V-19.274H28V-2.7h8.161V0ZM56.238-9.822q0,4.772-2.65,7.3T45.955,0H40.563V-19.274h5.959A9.859,9.859,0,0,1,53.681-16.8,9.261,9.261,0,0,1,56.238-9.822Zm-3.322.105q0-6.921-6.473-6.921H43.714V-2.65h2.241Q52.916-2.65,52.916-9.716Z" transform="translate(154.378 191.228)" fill="#313e58" />
        <path d="M960.517,2638.347a26.943,26.943,0,0,1,10.274,4.394,21.58,21.58,0,0,1,8.83-.042c10.654,2.154,17.551,11.685,15.4,21.289s-12.523,15.643-23.177,13.488q-1.021-.207-2-.5a26.693,26.693,0,0,1-18.606,2.848,26.321,26.321,0,0,1-13.352-6.977,15.291,15.291,0,0,1-10.85,1.735c-7.579-1.532-12.534-8.1-11.064-14.677s8.805-10.66,16.385-9.128q.341.069.676.152c3.422-7.97,12.142-13.141,21.9-13.142A28.1,28.1,0,0,1,960.517,2638.347Z" transform="translate(-694.78 -2627.092)" fill="#c0e1e2" />
        <path d="M954.945,2637.286h0a28.669,28.669,0,0,1,5.671.571,27.3,27.3,0,0,1,10.285,4.35,21.88,21.88,0,0,1,4.387-.443,22.427,22.427,0,0,1,4.433.446,21.528,21.528,0,0,1,7.791,3.227,19.6,19.6,0,0,1,5.555,5.605,16.876,16.876,0,0,1-.086,18.9,18.354,18.354,0,0,1-4.4,4.521,21.162,21.162,0,0,1-12.4,3.949,22.408,22.408,0,0,1-4.435-.446c-.617-.125-1.233-.276-1.833-.451a26.554,26.554,0,0,1-13.1,3.369,28.68,28.68,0,0,1-5.672-.571,26.785,26.785,0,0,1-13.331-6.844,15.444,15.444,0,0,1-7.574,1.934,16.664,16.664,0,0,1-3.3-.332,15.173,15.173,0,0,1-9.76-6.4,11.58,11.58,0,0,1-1.693-8.875,11.387,11.387,0,0,1,1.777-4.032,12.65,12.65,0,0,1,3.109-3.107,15.331,15.331,0,0,1,8.79-2.7,16.646,16.646,0,0,1,3.3.332l.287.061a21.31,21.31,0,0,1,8.608-9.408A26.443,26.443,0,0,1,954.945,2637.286Zm15.737,5.99-.18-.127a26.283,26.283,0,0,0-10.084-4.312,27.669,27.669,0,0,0-5.473-.551,25.442,25.442,0,0,0-13.072,3.512,20.244,20.244,0,0,0-8.372,9.328l-.167.39-.412-.1c-.219-.054-.439-.1-.655-.147a15.649,15.649,0,0,0-3.1-.312,14.322,14.322,0,0,0-8.213,2.518,11.649,11.649,0,0,0-2.865,2.861,10.389,10.389,0,0,0-1.622,3.679,10.588,10.588,0,0,0,1.556,8.113,14.169,14.169,0,0,0,9.119,5.965,15.681,15.681,0,0,0,3.1.312,14.387,14.387,0,0,0,7.395-1.986l.333-.2.276.273a25.735,25.735,0,0,0,13.1,6.842,27.7,27.7,0,0,0,5.474.551,25.52,25.52,0,0,0,12.783-3.342l.188-.108.207.063c.636.192,1.292.357,1.95.49a21.425,21.425,0,0,0,4.236.426,20.153,20.153,0,0,0,11.808-3.757,17.357,17.357,0,0,0,4.161-4.275,15.877,15.877,0,0,0,.075-17.795,18.6,18.6,0,0,0-5.274-5.32,20.533,20.533,0,0,0-7.431-3.077,21.426,21.426,0,0,0-4.235-.426,20.84,20.84,0,0,0-4.391.466Z" transform="translate(-694.78 -2627.092)" fill="rgba(0,0,0,0)" />
        <path d="M457.134,54.535h0a51.184,51.184,0,0,0-.087-9.476,35.264,35.264,0,0,0-1.738-8.13A17.97,17.97,0,0,0,451,29.854a13.228,13.228,0,0,0-9.162-3.613c-1.087-.026-2.07-.047-3.061-.047-3.759,0-8,.295-10.966,2.479.375-5.774-5.224-11.454-12.742-12.931a34.226,34.226,0,0,0-6.5-.609,29.293,29.293,0,0,0-8.88,1.265,11.527,11.527,0,0,0-6.189,4.094A34.285,34.285,0,0,0,380.488,7.231,50.684,50.684,0,0,0,360.415.393,54.533,54.533,0,0,0,353.852,0a57.183,57.183,0,0,0-18.436,3.061A43.56,43.56,0,0,0,320.443,11.6a3.869,3.869,0,0,0-1.274-3.481,13.438,13.438,0,0,0-11.277-2.589,18.571,18.571,0,0,0-7.24,3.6,44.245,44.245,0,0,0-5.474,5.347,16.081,16.081,0,0,0-12.157-4.941,17.2,17.2,0,0,0-4.159.5,13.8,13.8,0,0,0-7.644,4.849v39.3Z" transform="translate(-271.218 278.415)" fill="#bfe2e2" />
    </g>
</svg>