<svg xmlns="http://www.w3.org/2000/svg" xmlns:xlink="http://www.w3.org/1999/xlink" width="400" height="320" viewBox="0 0 400 320">
    <defs>
        <clipPath >
            <rect width="400" height="320" />
        </clipPath>
    </defs>
    <g clip-path="url(#b)">
        <rect width="400" height="320" fill="transparent" />
        <path d="M152.719,175.643H2.1a1.008,1.008,0,0,1,0-2.015H152.719a1.008,1.008,0,1,1,0,2.015" transform="translate(-0.616 13.314)" fill="#5ab3b3" />
        <path d="M0,117.633v-3.181L13.99,101.5a21.562,21.562,0,0,1,29.843.5l11.021,10.877a1.168,1.168,0,0,1-1.641,1.662L42.192,103.666a19,19,0,0,0-26.615-.452L0,117.631Z" transform="translate(0 12.725)" fill="#5ab3b3" />
        <path d="M144.849,49.388a15.946,15.946,0,1,1,15.946-15.946,15.946,15.946,0,0,1-15.946,15.946m0-29.557A13.611,13.611,0,1,0,158.46,33.442a13.611,13.611,0,0,0-13.611-13.611" transform="translate(0.351 12.132)" fill="#5ab3b3" />
        <path d="M144.74,9.529a1.166,1.166,0,0,1-1.168-1.166v-7.2a1.168,1.168,0,0,1,2.336,0v7.2a1.166,1.166,0,0,1-1.167,1.167Z" transform="translate(0.462 12)" fill="#5ab3b3" />
        <path d="M132.256,12.881a1.168,1.168,0,0,1-1.008-.582l-3.613-6.238a1.168,1.168,0,0,1,2.021-1.17l3.606,6.237a1.17,1.17,0,0,1-1.007,1.753" transform="translate(0.34 12.033)" fill="#5ab3b3" />
        <path d="M123.122,22.015a1.165,1.165,0,0,1-.583-.157L116.3,18.252a1.168,1.168,0,0,1,1.117-2.051l.051.03,6.237,3.606a1.167,1.167,0,0,1-.585,2.177Z" transform="translate(0.251 12.122)" fill="#5ab3b3" />
        <path d="M119.771,34.5h-7.2a1.168,1.168,0,0,1,0-2.336h7.2a1.168,1.168,0,0,1,0,2.336" transform="translate(0.219 12.244)" fill="#5ab3b3" />
        <path d="M116.887,50.6a1.167,1.167,0,0,1-.586-2.177l6.237-3.606a1.167,1.167,0,1,1,1.169,2.015l-6.237,3.606a1.15,1.15,0,0,1-.582.162" transform="translate(0.251 12.338)" fill="#5ab3b3" />
        <path d="M128.649,62.383a1.167,1.167,0,0,1-1.014-1.75l3.606-6.223a1.168,1.168,0,0,1,2.021,1.172L129.656,61.8a1.165,1.165,0,0,1-1.008.579" transform="translate(0.34 12.407)" fill="#5ab3b3" />
        <path d="M144.74,66.7a1.166,1.166,0,0,1-1.168-1.166v-7.2a1.168,1.168,0,0,1,2.336,0v7.2a1.166,1.166,0,0,1-1.167,1.167Z" transform="translate(0.462 12.433)" fill="#5ab3b3" />
        <path d="M160.843,62.384a1.167,1.167,0,0,1-1.008-.581l-3.606-6.222a1.168,1.168,0,1,1,2.021-1.172l3.6,6.224a1.165,1.165,0,0,1-1.011,1.751" transform="translate(0.557 12.407)" fill="#5ab3b3" />
        <path d="M172.625,50.6a1.154,1.154,0,0,1-.583-.157l-6.223-3.6a1.168,1.168,0,0,1,1.039-2.092,1.15,1.15,0,0,1,.132.077l6.222,3.606a1.168,1.168,0,0,1-.587,2.177Z" transform="translate(0.625 12.338)" fill="#5ab3b3" />
        <path d="M176.945,34.5h-7.2a1.168,1.168,0,0,1,0-2.336h7.2a1.168,1.168,0,0,1,0,2.336" transform="translate(0.651 12.244)" fill="#5ab3b3" />
        <path d="M166.4,22.015a1.167,1.167,0,0,1-.586-2.177l6.222-3.606a1.168,1.168,0,0,1,1.171,2.021l-6.222,3.6a1.159,1.159,0,0,1-.584.161" transform="translate(0.626 12.122)" fill="#5ab3b3" />
        <path d="M157.236,12.881a1.168,1.168,0,0,1-1.01-1.751h0l3.606-6.237a1.168,1.168,0,0,1,2.021,1.17L158.248,12.3a1.165,1.165,0,0,1-1.013.582" transform="translate(0.557 12.033)" fill="#5ab3b3" />
        <path d="M284.829,99.7a1.163,1.163,0,0,1-.791-.309l-40.008-36.9a35.356,35.356,0,0,0-50-.438q-.206.2-.408.408l-36.782,36.56a1.168,1.168,0,1,1-1.69-1.612c.014-.015.028-.029.043-.043l36.782-36.56a37.654,37.654,0,0,1,53.249-.419c.141.139.28.278.419.419l39.978,36.868a1.167,1.167,0,0,1-.792,2.025Z" transform="translate(0.547 12.375)" fill="#5ab3b3" />
        <path d="M195.106,173.255h0l-2.07-.189a49.389,49.389,0,0,0-.061-7.731,33.39,33.39,0,0,0-1.156-6.509,14.789,14.789,0,0,0-2.853-5.606,7.542,7.542,0,0,0-5.742-2.685h-.006c-.7-.019-1.417-.039-2.135-.039-2.468,0-5.239.217-7.077,1.821l-1.851,1.612.134-2.472a8.753,8.753,0,0,0-2.166-6.019,11.2,11.2,0,0,0-6.037-3.717,19.551,19.551,0,0,0-4.355-.485,18.587,18.587,0,0,0-3.886.4c-1.988.427-4.631,1.394-5.885,3.572l-1.031,1.79-.818-1.9a25.98,25.98,0,0,0-8.841-10.668,31.24,31.24,0,0,0-13.741-5.542,31.783,31.783,0,0,0-4.515-.321,33.43,33.43,0,0,0-10.546,1.713,29.461,29.461,0,0,0-12.311,7.665L95.868,140.4l.51-3.34a2.788,2.788,0,0,0-1.052-2.469,7.364,7.364,0,0,0-4.766-1.668,6.5,6.5,0,0,0-1.755.229,11.465,11.465,0,0,0-4.7,2.775,33.6,33.6,0,0,0-3.748,4.34l-.865,1.136-.818-1.17a8.644,8.644,0,0,0-4.518-3.175,10.494,10.494,0,0,0-3.224-.512,9.316,9.316,0,0,0-2.654.374c-3.712,1.1-6.3,4.595-5.9,7.96l.41,3.42-2.226-2.6c-1.523-1.78-3-3.633-4.423-5.425l-.009-.011-.025-.032a91.174,91.174,0,0,0-10.048-11.28c-3.554-3.2-10.859-8.574-19.871-8.574-.19,0-.385,0-.574.007A18.608,18.608,0,0,0,15.112,124c-3.007,2.263-4.7,5.16-4.763,8.155l-.053,2.528-1.733-1.814A14.9,14.9,0,0,0,0,128.706v-2.125a17.858,17.858,0,0,1,8.526,3.438,13.512,13.512,0,0,1,5.345-7.71,20.733,20.733,0,0,1,11.689-4.038c.209-.008.42-.008.629-.008,9.694,0,17.474,5.7,21.249,9.1A92.705,92.705,0,0,1,57.721,138.9l.046.057c.878,1.1,1.789,2.244,2.705,3.367a9.492,9.492,0,0,1,1.612-3.485,10.764,10.764,0,0,1,5.612-3.947,11.42,11.42,0,0,1,3.235-.456,12.527,12.527,0,0,1,3.855.611,11.21,11.21,0,0,1,4.719,2.9,28.4,28.4,0,0,1,3.861-4.16,12.917,12.917,0,0,1,4.873-2.659,8.551,8.551,0,0,1,2.319-.31,9.945,9.945,0,0,1,2.223.257,8.894,8.894,0,0,1,3.915,1.947,5.475,5.475,0,0,1,1.441,1.993,32.383,32.383,0,0,1,11.676-6.733,35.476,35.476,0,0,1,11.2-1.821,33.78,33.78,0,0,1,4.805.342,33.346,33.346,0,0,1,14.651,5.908,28.759,28.759,0,0,1,8.8,9.967,11.7,11.7,0,0,1,6.145-3.1,20.57,20.57,0,0,1,4.315-.44,21.567,21.567,0,0,1,4.821.537,13.278,13.278,0,0,1,7.159,4.41,11.341,11.341,0,0,1,2.563,5.542,15.083,15.083,0,0,1,6.762-1.237c.76,0,1.515.021,2.246.041a9.638,9.638,0,0,1,7.244,3.393,16.805,16.805,0,0,1,3.258,6.315,35.406,35.406,0,0,1,1.266,7.008,50.9,50.9,0,0,1,.061,8.108Z" transform="translate(0 12.895)" fill="#5ab3b3" />
        <path d="M311.931,161.488h0l-2.095-.211c.907-8.979,3.239-16.777,6.943-23.174a39.334,39.334,0,0,1,11.485-12.672,37.8,37.8,0,0,1,10.753-5.222,28.576,28.576,0,0,1,4.5-.991,18.007,18.007,0,0,1,10.994-3.838h.222a17.735,17.735,0,0,1,10.3,3.526,14.327,14.327,0,0,1,4.981,6.429A14.391,14.391,0,0,1,373.9,122.7a19.374,19.374,0,0,1,6.785-1.728c.512-.037,1.03-.056,1.54-.056a17.507,17.507,0,0,1,10.321,3.1,12.031,12.031,0,0,1,4.829-6.641c.433-.316.893-.619,1.365-.9v2.509l-.125.091c-2.679,1.956-4.185,4.448-4.242,7.02l-.054,2.493-1.747-1.777a14.469,14.469,0,0,0-10.338-3.8c-.461,0-.93.017-1.395.051-4.489.327-8.406,2.217-10.479,5.054l-1.466,2.005-.421-2.448a11.532,11.532,0,0,0-4.7-7.091,15.607,15.607,0,0,0-9.068-3.1h-.193a15.822,15.822,0,0,0-9.9,3.557l-.254.209-.327.027a24.652,24.652,0,0,0-4.5.976,35.734,35.734,0,0,0-10.142,4.963,37.3,37.3,0,0,0-10.819,12c-3.526,6.13-5.762,13.622-6.633,22.267Z" transform="translate(1.26 12.873)" fill="#5ab3b3" />
        <path d="M182.4,131.809a1.163,1.163,0,0,1-.791-.309L141.6,94.6a35.356,35.356,0,0,0-50-.438q-.206.2-.408.408L54.411,131.13a1.168,1.168,0,1,1-1.69-1.612c.014-.015.028-.029.043-.043l36.782-36.56A37.654,37.654,0,0,1,142.8,92.5c.141.139.28.278.419.419l39.978,36.868a1.167,1.167,0,0,1-.792,2.025Z" transform="translate(-0.228 12.618)" fill="#5ab3b3" />
        <path d="M400.028,63.2c-1.626-.729-3.284-1.39-4.976-1.962a61.922,61.922,0,0,0-16.15-3.362l-.46-.036A65.3,65.3,0,0,0,361.6,61.188a55.707,55.707,0,0,0-14.955,7.735l-49.823,36.565a.967.967,0,0,0-.007,1.65,2,2,0,0,0,2.238.006l49.824-36.561a52.286,52.286,0,0,1,13.9-7.219,61.163,61.163,0,0,1,15.43-3.147v.03a61.151,61.151,0,0,1,15.665,3.167,52.1,52.1,0,0,1,6.157,2.557Z" transform="translate(-0.028 12.438)" fill="#5ab3b3" />
        <path d="M234.105,167.314c.094-4.7,1-9.033,2.585-11.8,2.063-3.6,5.362-5.431,9.807-5.431a19.552,19.552,0,0,1,3.046.254,49.165,49.165,0,0,0,7.582.708c5.07,0,6.839-1.34,8.48-2.961l.01-.01.159-.157.057-.059c1.414-1.4,2.75-2.733,6.8-2.733.719,0,1.526.043,2.4.129,6.287.625,11.138,1.25,14.535,1.741a60.234,60.234,0,0,0-8.6-10.656c-1.492-1.473-3.06-2.911-4.578-4.3l-.041-.038-1.34-1.232c-.267-.248-.606-.618-1-1.049a18.266,18.266,0,0,0-2.134-2.112c8.511,4.692,16.628,9.49,22.43,16.554-.662-2.544-1.417-5.2-2.249-7.883-2.27-7.33-4.553-13.778-6.979-19.712A145.119,145.119,0,0,0,275.9,97.8c1.887,3.167,3.881,6.354,5.81,9.438,5.835,9.329,11.869,18.975,15.837,29.381-.231-1.773-.456-3.375-.691-4.9-1.422-9.158-3.2-18.174-4.761-25.785-.79-3.867-1.681-8.014-2.8-13.055q-.231-1.035-.46-2.068l-.027-.119c-.351-1.578-.713-3.209-1.078-4.814-.081-.351-.152-.853-.235-1.437v-.029c-.05-.351-.1-.714-.162-1.085,4.9,16.077,9.993,33.258,13.715,50.993.032.154.064.308.1.462a14.04,14.04,0,0,1,1.391-1.347,11.721,11.721,0,0,1,2.256-1.5,106.339,106.339,0,0,1,4.1-10.4,54.246,54.246,0,0,1,4.383-7.957,12.654,12.654,0,0,1,1.478-1.7,32.8,32.8,0,0,0-3.446-2.631q2.137.889,4.283,1.8a14.54,14.54,0,0,0,2.194-2.5q-.754,1.385-1.422,2.834c1.9.819,3.785,1.665,5.64,2.545a27.669,27.669,0,0,0-1.345-2.447,29.145,29.145,0,0,0-3.376-4.169l-.017-.018-.043-.048-.053-.057-.083-.089c-.765-.821-1.922-2.062-1.055-2.915a.9.9,0,0,1,.629-.249c1.334,0,3.33,2.554,4.081,3.515l.02.027c.078.1.185.238.246.311-.173-.239-.369-.508-.6-.821a34.365,34.365,0,0,1,6.936,8.325c.331.623.654,1.253.969,1.88a55.824,55.824,0,0,1,10.489,7.387c-.852-2.47-1.778-4.9-2.757-7.29-4.968-12.1-11.239-24.648-19.8-35.587,4.492,5.687,9.343,11.287,13.888,17.008-1.123-1.613-2.273-3.211-3.4-4.78l-.007-.009-.046-.063-.085-.119c-1.417-1.972-2.883-4.009-4.273-6.051-.341-.5-.664-1-1.022-1.554l-.017-.025a27.531,27.531,0,0,0-3.483-4.618c-.754-.758-1.6-1.521-2.337-2.191l-.011-.012-.01-.006a28.8,28.8,0,0,1-4.127-4.265l.462.165.206.072.387.139.052.018.327.117a16.038,16.038,0,0,1,4.912,3.338c.228.2.527.472.836.74,1.081.94,2.266,1.836,3.411,2.7l.014.012c1.1.835,2.347,1.778,3.438,2.726,3.5,3.031,6.7,6.247,9.8,9.355l.076.076.1.1.049.049c.911.915,1.732,1.737,2.55,2.546l.353.351q-1.066-4.152-2.2-8.3c-1.094-4.035-2.249-8.053-3.435-12.071-.638-2.159-1.269-4.319-1.919-6.476-.158-.523-.294-1.435-.491-2.359,4.621,11.441,9.121,22.888,12.943,34.481q2.158,2.517,3.953,5.011a59.574,59.574,0,0,1,4.066,6.459c.926-2.182,1.967-4.342,3.1-6.463a162.987,162.987,0,0,0-13-28.887c4.879,8.185,10.276,16.2,14.912,24.586l.006-.053c-.089-.406-.189-.824-.3-1.276-2.758-10.825-10.074-19.975-16.869-27.5-1.113-1.235-2.3-2.524-3.347-3.662l-.035-.04-.007-.006-.229-.25-.018-.02-.011-.014-.007,0c-6.134-6.67-12.476-13.568-16.619-21.287a28.368,28.368,0,0,1-3.053-8.254.655.655,0,0,1,.182-.025.5.5,0,0,1,.38.172c6.074,8.116,14.269,15.185,22.194,22.021l.011.009h.006A199.492,199.492,0,0,1,355.935,79.58q-.607-2.808-1.234-5.613c-.52-2.334-1.035-4.669-1.566-7-.129-.566-.239-1.552-.4-2.552,1.724,5.659,3.428,11.32,5.068,17l1.04-19.455.116-.047.014-.006.034-.014.166-.067.039-.017.129-.052c3.214,4.824,3.511,10,3.354,14.87a112.06,112.06,0,0,0,.217,11.863c.011.018.024.035.035.053l.014.022.029.044.018.03.048.071q1.446,2.23,2.687,4.569a11.021,11.021,0,0,0,1.825-1.662q-.8,1.1-1.515,2.252a61.556,61.556,0,0,1,5.491,15.361q.759-2.009,1.6-3.979c2.791-13.567,5.632-27.922,5.87-30.009.144-1.266.34-2.567.512-3.716v-.069a52.425,52.425,0,0,0,.776-7.946v-.419c-.067-13.887.414-21.292,1.429-22.006.3,2.011,1.59,6.678,2.839,11.192l.008.032.011.038c1.264,4.578,2.457,8.9,2.688,10.62.6,4.471,1.841,12.607,3.277,22.03l.02.123.01.068c1.393,9.137,3.126,20.508,4.532,30.294,2.018-9.3,2.652-18.865,3.171-28.662.115-2.155.164-4.333.208-6.255V80.42c.069-2.885.138-5.87.383-8.807.011-.144.024-.39.038-.755v-.042a44.886,44.886,0,0,1,.629-6.389l.071,102.929m-70.193-29.2a95.149,95.149,0,0,0-3.227-12.167c-.287-.916-.625-2-.961-3.1l-.119-.4v-.007c-.412-1.36-.829-2.738-1.3-4.115q-.674-.527-1.365-1.043c-2.158-1.606-4.408-3.144-6.64-4.693a117.424,117.424,0,0,0-5.608,18.11,19.35,19.35,0,0,1,7.963,2.188,32.891,32.891,0,0,1,8.789-4.471,43.7,43.7,0,0,0-6.764,5.55,54.962,54.962,0,0,0,9.232,4.149Zm6.179-6.735.01.018.014.026.024.042c.716,1.271,1.527,2.713,2.292,4.133q.105-.645.2-1.291a61.083,61.083,0,0,0-4.3-6.122l-.07-.088C334.392,129.279,335.016,130.383,335.6,131.425Z" transform="translate(0.455 152.742)" fill="#bfe2e2" />
        <path d="M271.34,43.86h0a48.235,48.235,0,0,1,.06-7.621,32.63,32.63,0,0,1,1.192-6.539,15.074,15.074,0,0,1,2.959-5.69,8.411,8.411,0,0,1,6.285-2.906c.746-.021,1.42-.038,2.1-.038,2.579,0,5.49.237,7.523,1.994-.257-4.644,3.584-9.212,8.741-10.4a20.142,20.142,0,0,1,4.459-.49,17.369,17.369,0,0,1,6.092,1.017A7.958,7.958,0,0,1,315,16.48,26.067,26.067,0,0,1,323.92,5.816a31.506,31.506,0,0,1,13.77-5.5,31.985,31.985,0,0,1,4.5-.316,34.046,34.046,0,0,1,12.647,2.462,29.131,29.131,0,0,1,10.272,6.867,3.428,3.428,0,0,1,.874-2.8,7.8,7.8,0,0,1,5.757-2.341,7.352,7.352,0,0,1,1.979.259,12.128,12.128,0,0,1,4.967,2.894,33.312,33.312,0,0,1,3.755,4.3,10.281,10.281,0,0,1,8.34-3.974,10.161,10.161,0,0,1,2.853.4,9.45,9.45,0,0,1,5.244,3.9v31.6Z" transform="translate(1.12 152.742)" fill="#bfe2e2" />
        <path d="M0,166.8H0V123.823a18.575,18.575,0,0,1,3.18,1.027,13.85,13.85,0,0,1,5.885,4.544,13.848,13.848,0,0,1,5.5-8.527,17.67,17.67,0,0,1,10.414-3.644H25.2A17.9,17.9,0,0,1,36.563,121.4,62.806,62.806,0,0,1,52.5,125.406a34.413,34.413,0,0,1,11.4,7.243,20.484,20.484,0,0,1,6.109,12.72l2.069,21.579Z" transform="translate(0 153.195)" fill="#bfe2e2" />
        <path d="M10.087,255.3,89.1,221.013a35.54,35.54,0,0,0,5.8-2.367,17.327,17.327,0,0,0,4.062-2.817,5.9,5.9,0,0,0,2-3.783c.216-3.45-3.778-7.029-11.865-10.628-5.672-2.53-13.482-5.347-22.526-8.615-13.6-4.915-29.005-10.484-41.679-16.723C10.2,168.845,2.183,162.151.384,155.615a10.255,10.255,0,0,1-.147-4.975,13.382,13.382,0,0,1,2.478-5.115,22.31,22.31,0,0,1,6.6-5.539,56.683,56.683,0,0,1,10.14-4.513A167.413,167.413,0,0,1,47.538,129c21.249-3.362,45.863-5.024,67.578-6.489,20.289-1.369,37.808-2.552,44.493-4.769,2.533-.841,3.83-1.864,3.966-3.131.324-3.041-6.174-7.077-13.694-11.753a135.87,135.87,0,0,1-14.252-9.706c-4.781-3.946-7.325-7.475-7.777-10.784a8.755,8.755,0,0,1,2.506-7.113c3.716-4.2,10.755-8.31,20.922-12.211a235.043,235.043,0,0,1,30.962-9.057c21.337-4.9,28.126-5.951,32.736-5.951,0,0-.613,6.462-.894,10.724-.107,1.569,1.68,4.472-16.454,7.914a251.477,251.477,0,0,0-25.724,6.01c-7.959,2.444-12.346,4.791-13.036,6.974a2.287,2.287,0,0,0,.739,2.369c1.949,2.006,6.281,5.026,11.285,8.522,7.108,4.965,15.955,11.143,22.759,17.628a46.888,46.888,0,0,1,8.215,9.851c2.035,3.49,2.828,6.74,2.355,9.66-.523,3.232-2.613,6.169-6.212,8.727-3.944,2.8-9.819,5.239-17.464,7.238-26.311,6.881-57.047,8.854-79.491,10.29-8.786.567-16.367,1.048-21.7,1.717-5.752.72-8.5,1.62-8.64,2.834-.193,1.631,4.3,3.946,14.134,7.283,7.658,2.6,15.3,4.782,22.691,6.893,11.568,3.3,22.5,6.426,31.07,10.516a45.148,45.148,0,0,1,10.991,7.038,23.235,23.235,0,0,1,6.541,9.459,23.974,23.974,0,0,1,1.36,7.87,37.186,37.186,0,0,1-1.253,9.532,68.608,68.608,0,0,1-4.157,11.447,129.927,129.927,0,0,1-7.355,13.615c-2.856,4.664-5.175,9.26-7.564,13.161Z" transform="translate(75 64.695)" fill="#313e58" />
        <path d="M96.381,99.722a12.533,12.533,0,0,0-3.441,24.593l.655,2.508,1.207,4.613,1.213,4.644a.7.7,0,0,0,.676.52h.017a.7.7,0,0,0,.666-.555l1.02-4.883,1-4.8.427-2.049a12.533,12.533,0,0,0-3.44-24.591m2.968,17.071a5.481,5.481,0,0,1-3.392.91,8.263,8.263,0,0,1-3.276-.611v-2.038a7.529,7.529,0,0,0,1.452.542,6.1,6.1,0,0,0,1.568.209,3.06,3.06,0,0,0,1.755-.4,1.476,1.476,0,0,0,.566-1.293,1.166,1.166,0,0,0-.652-1.131,4.846,4.846,0,0,0-2.08-.333h-.861v-1.835h.877a4.072,4.072,0,0,0,1.929-.346,1.243,1.243,0,0,0,.61-1.18q0-1.287-1.615-1.287a3.726,3.726,0,0,0-1.137.187,5.552,5.552,0,0,0-1.284.643L92.7,107.18a6.18,6.18,0,0,1,3.7-1.116,4.783,4.783,0,0,1,2.782.713,2.28,2.28,0,0,1,1.02,1.981,2.651,2.651,0,0,1-.644,1.805,3.35,3.35,0,0,1-1.808,1.023v.046a3.62,3.62,0,0,1,2.08.833,2.331,2.331,0,0,1,.707,1.785,3.025,3.025,0,0,1-1.188,2.543Z" transform="translate(75 64.695)" fill="#e88a2d" />
        <path d="M97.379,255.305a.5.5,0,0,1-.326-.879c1.021-.877,2.035-1.759,3.016-2.62a.5.5,0,1,1,.66.752c-.983.863-2,1.747-3.024,2.627A.5.5,0,0,1,97.379,255.305Zm6.012-5.279a.5.5,0,0,1-.334-.872c1-.9,2-1.806,2.954-2.686a.5.5,0,1,1,.677.736c-.959.883-1.956,1.79-2.964,2.695A.5.5,0,0,1,103.391,250.026Zm5.883-5.421a.5.5,0,0,1-.344-.863c.984-.932,1.951-1.864,2.875-2.768a.5.5,0,1,1,.7.715c-.928.909-1.9,1.844-2.887,2.78A.5.5,0,0,1,109.274,244.6Zm5.714-5.6a.5.5,0,0,1-.356-.851c.956-.971,1.886-1.938,2.766-2.874a.5.5,0,1,1,.728.685c-.885.941-1.821,1.913-2.782,2.89A.5.5,0,0,1,114.988,239.006Zm5.476-5.83a.5.5,0,0,1-.373-.833c.914-1.025,1.789-2.04,2.6-3.016a.5.5,0,1,1,.768.64c-.82.984-1.7,2.008-2.624,3.041A.5.5,0,0,1,120.464,233.176Zm5.109-6.154a.5.5,0,0,1-.4-.8c.843-1.107,1.624-2.191,2.318-3.223a.5.5,0,1,1,.829.559c-.706,1.048-1.5,2.148-2.353,3.271A.5.5,0,0,1,125.573,227.021Zm4.436-6.65a.5.5,0,0,1-.437-.743,29.036,29.036,0,0,0,1.692-3.546.5.5,0,1,1,.932.362,30.037,30.037,0,0,1-1.75,3.669A.5.5,0,0,1,130.009,220.371Zm2.745-7.464a.5.5,0,0,1-.5-.56,9.439,9.439,0,0,0,.06-1.657,9.262,9.262,0,0,0-.372-2.1.5.5,0,1,1,.959-.283,10.261,10.261,0,0,1,.411,2.324,10.438,10.438,0,0,1-.066,1.833A.5.5,0,0,1,132.754,212.908Zm-2.052-7.549a.5.5,0,0,1-.418-.225,22.126,22.126,0,0,0-2.453-3.038.5.5,0,1,1,.724-.69,23.122,23.122,0,0,1,2.563,3.177.5.5,0,0,1-.417.775Zm-5.435-5.831a.5.5,0,0,1-.321-.117c-.951-.8-2.008-1.609-3.141-2.416a.5.5,0,1,1,.58-.814c1.154.822,2.231,1.651,3.2,2.464a.5.5,0,0,1-.321.883Zm-6.495-4.663a.5.5,0,0,1-.266-.077c-1.071-.675-2.219-1.363-3.412-2.045a.5.5,0,1,1,.5-.868c1.206.689,2.366,1.385,3.449,2.068a.5.5,0,0,1-.267.923Zm-6.939-3.979a.5.5,0,0,1-.233-.058c-1.134-.6-2.33-1.2-3.554-1.806a.5.5,0,0,1,.441-.9c1.233.605,2.437,1.217,3.579,1.818a.5.5,0,0,1-.233.943Zm-7.179-3.531a.5.5,0,0,1-.209-.046c-1.172-.541-2.4-1.091-3.64-1.635a.5.5,0,1,1,.4-.916c1.249.546,2.48,1.1,3.658,1.643a.5.5,0,0,1-.21.954Zm-7.328-3.209a.5.5,0,0,1-.192-.039c-1.2-.5-2.443-1.006-3.7-1.506a.5.5,0,0,1,.37-.929c1.26.5,2.509,1.01,3.712,1.512a.5.5,0,0,1-.192.962Zm-7.432-2.962a.5.5,0,0,1-.178-.033c-1.217-.465-2.476-.937-3.74-1.4a.5.5,0,1,1,.345-.938c1.268.467,2.53.94,3.752,1.407a.5.5,0,0,1-.179.967Zm-7.507-2.764a.5.5,0,0,1-.167-.029c-1.232-.438-2.5-.881-3.771-1.317a.5.5,0,1,1,.325-.946c1.274.437,2.546.882,3.781,1.32a.5.5,0,0,1-.167.971Zm-7.567-2.6a.5.5,0,0,1-.158-.026c-1.245-.414-2.523-.832-3.8-1.244a.5.5,0,1,1,.307-.952c1.278.412,2.558.831,3.806,1.246a.5.5,0,0,1-.158.975Zm-7.614-2.456a.5.5,0,0,1-.15-.023c-1.257-.393-2.541-.79-3.819-1.178a.5.5,0,1,1,.291-.957c1.28.389,2.567.786,3.826,1.181a.5.5,0,0,1-.149.977Zm-7.655-2.328a.5.5,0,0,1-.142-.021c-1.269-.375-2.559-.751-3.835-1.117a.5.5,0,1,1,.276-.961c1.278.367,2.571.744,3.842,1.119a.5.5,0,0,1-.141.98Zm-7.69-2.208a.5.5,0,0,1-.135-.018c-1.29-.36-2.586-.715-3.85-1.057a.5.5,0,0,1,.261-.965c1.267.342,2.565.7,3.858,1.059a.5.5,0,0,1-.134.982Zm-7.725-2.085a.5.5,0,0,1-.126-.016c-2.241-.583-3.54-.9-3.553-.9l-.035-.01s-.111-.036-.313-.1a.5.5,0,1,1,.324-.946c.146.05.242.081.278.093.166.041,1.444.354,3.55.9a.5.5,0,0,1-.126.984Zm-7.58-2.485a.5.5,0,0,1-.205-.044,33.561,33.561,0,0,1-3.6-1.874.5.5,0,0,1,.52-.854,32.565,32.565,0,0,0,3.492,1.817.5.5,0,0,1-.206.956Zm-6.709-4.277a.5.5,0,0,1-.36-.153,5.276,5.276,0,0,1-1.762-3.906.5.5,0,0,1,1,.056,4.34,4.34,0,0,0,1.485,3.156.5.5,0,0,1-.36.847Zm.351-6.887a.5.5,0,0,1-.329-.877,17.144,17.144,0,0,1,3.452-2.235.5.5,0,0,1,.454.891,16.164,16.164,0,0,0-3.249,2.1A.5.5,0,0,1,30.2,153.095Zm7.015-3.764a.5.5,0,0,1-.177-.968c1.157-.439,2.442-.876,3.817-1.3a.5.5,0,0,1,.294.956c-1.355.417-2.619.848-3.757,1.279A.5.5,0,0,1,37.213,149.331Zm7.634-2.38a.5.5,0,0,1-.126-.984c1.227-.322,2.539-.643,3.9-.955a.5.5,0,0,1,.224.975c-1.35.31-2.652.629-3.869.948A.5.5,0,0,1,44.847,146.951Zm7.79-1.8a.5.5,0,0,1-.1-.99c1.268-.261,2.592-.521,3.933-.774a.5.5,0,1,1,.185.983c-1.336.251-2.654.511-3.916.771A.5.5,0,0,1,52.637,145.152ZM60.5,143.67a.5.5,0,0,1-.085-.993c1.279-.221,2.609-.442,3.953-.658a.5.5,0,0,1,.158.987c-1.34.214-2.666.435-3.94.655A.5.5,0,0,1,60.5,143.67Zm7.9-1.266a.5.5,0,0,1-.073-.995c1.285-.191,2.619-.383,3.965-.57a.5.5,0,0,1,.138.99c-1.343.187-2.674.378-3.956.569A.5.5,0,0,1,68.4,142.4Zm7.925-1.1a.5.5,0,0,1-.064-1c1.287-.168,2.623-.337,3.971-.5a.5.5,0,0,1,.122.992c-1.346.166-2.68.335-3.964.5A.5.5,0,0,1,76.324,141.3Zm7.941-.979a.5.5,0,0,1-.057-1c1.286-.15,2.624-.3,3.976-.453a.5.5,0,0,1,.111.994c-1.351.15-2.686.3-3.971.452A.5.5,0,0,1,84.265,140.321Zm7.951-.885a.5.5,0,0,1-.052-1c1.281-.137,2.62-.276,3.98-.416a.5.5,0,0,1,.1.995c-1.359.139-2.7.279-3.976.415Zm7.959-.817a.5.5,0,0,1-.049-1c1.267-.126,2.607-.257,3.982-.39a.5.5,0,1,1,.1,1c-1.375.133-2.714.264-3.98.389Zm7.964-.77a.5.5,0,0,1-.046-1l3.983-.374a.5.5,0,1,1,.093,1l-3.981.374Zm7.966-.743a.5.5,0,0,1-.045-1l3.982-.368a.5.5,0,1,1,.092,1l-3.982.368Zm7.966-.737a.5.5,0,0,1-.046-1l3.982-.373a.5.5,0,0,1,.094,1l-3.984.373Zm7.963-.753a.5.5,0,0,1-.048-1c1.41-.136,2.712-.264,3.982-.39a.5.5,0,0,1,.1,1c-1.271.127-2.575.254-3.985.391ZM140,134.82a.5.5,0,0,1-.051-1c1.372-.142,2.709-.284,3.972-.422a.5.5,0,0,1,.108.994c-1.265.138-2.6.28-3.978.423Zm7.952-.869a.5.5,0,0,1-.057-1c1.368-.158,2.7-.319,3.969-.476a.5.5,0,1,1,.123.992c-1.268.158-2.607.318-3.978.477A.506.506,0,0,1,147.948,133.951Zm7.941-.99a.5.5,0,0,1-.066-1c1.366-.185,2.7-.373,3.954-.56a.5.5,0,0,1,.147.989c-1.262.188-2.6.377-3.968.562A.5.5,0,0,1,155.889,132.961Zm7.913-1.182a.5.5,0,0,1-.081-.993c1.368-.228,2.689-.462,3.926-.7a.5.5,0,1,1,.186.982c-1.245.236-2.573.472-3.948.7A.5.5,0,0,1,163.8,131.779Zm7.854-1.5a.5.5,0,0,1-.108-.988c1.374-.3,2.675-.622,3.867-.943a.5.5,0,1,1,.26.966c-1.206.324-2.522.645-3.91.953A.5.5,0,0,1,171.656,130.277Zm7.718-2.109a.5.5,0,0,1-.163-.973,32.8,32.8,0,0,0,3.642-1.478.5.5,0,0,1,.438.9,33.784,33.784,0,0,1-3.754,1.524A.5.5,0,0,1,179.374,128.168Zm7.05-3.661a.5.5,0,0,1-.339-.868,5.1,5.1,0,0,0,1.755-3.109.5.5,0,0,1,.992.124,6.066,6.066,0,0,1-2.07,3.721A.5.5,0,0,1,186.424,124.507Zm1.059-7.26a.5.5,0,0,1-.444-.27,15.867,15.867,0,0,0-2.249-3.145.5.5,0,0,1,.747-.665,16.854,16.854,0,0,1,2.389,3.349.5.5,0,0,1-.443.731Zm-5.171-6.049a.5.5,0,0,1-.33-.125c-.912-.8-1.946-1.646-3.073-2.5a.5.5,0,0,1,.606-.8c1.146.872,2.2,1.73,3.128,2.55a.5.5,0,0,1-.331.875Zm-6.343-4.868a.5.5,0,0,1-.283-.088c-1.031-.71-2.148-1.45-3.32-2.2a.5.5,0,1,1,.539-.842c1.182.756,2.308,1.5,3.348,2.219a.5.5,0,0,1-.284.912Zm-6.731-4.322a.5.5,0,0,1-.258-.072c-1.075-.651-2.23-1.335-3.434-2.034a.5.5,0,1,1,.5-.865c1.209.7,2.369,1.389,3.45,2.043a.5.5,0,0,1-.259.928Zm-6.916-4.022a.5.5,0,0,1-.245-.064c-1.054-.593-2.163-1.211-3.491-1.944a.5.5,0,0,1,.483-.875c1.33.735,2.442,1.354,3.5,1.948a.5.5,0,0,1-.246.936Zm-7-3.875a.5.5,0,0,1-.241-.062c-1.174-.646-2.41-1.328-3.5-1.946a.5.5,0,1,1,.492-.871c1.088.615,2.321,1.3,3.492,1.94a.5.5,0,0,1-.241.938Zm-6.936-3.986a.5.5,0,0,1-.272-.081,13.614,13.614,0,0,1-1.243-.889c-.251-.208-.505-.416-.775-.636-.385-.315-.784-.641-1.179-.973a.5.5,0,0,1,.644-.765c.39.328.785.651,1.168.964.271.221.526.43.78.641a12.862,12.862,0,0,0,1.149.82.5.5,0,0,1-.273.919Zm-6-5.255a.5.5,0,0,1-.39-.187,6.393,6.393,0,0,1-1.635-3.924.5.5,0,0,1,.494-.506h.006a.5.5,0,0,1,.5.494,5.45,5.45,0,0,0,1.414,3.31.5.5,0,0,1-.39.813Zm-.007-7.222a.5.5,0,0,1-.38-.825,15.869,15.869,0,0,1,3.123-2.688.5.5,0,1,1,.563.826,14.889,14.889,0,0,0-2.926,2.512A.5.5,0,0,1,142.38,77.648Zm6.47-4.63a.5.5,0,0,1-.231-.944c1.1-.569,2.322-1.15,3.644-1.726a.5.5,0,0,1,.4.917c-1.3.567-2.507,1.138-3.583,1.7A.5.5,0,0,1,148.851,73.019Zm7.317-3.221a.5.5,0,0,1-.179-.967c1.182-.453,2.452-.915,3.773-1.374a.5.5,0,1,1,.328.945c-1.311.455-2.571.913-3.743,1.363A.5.5,0,0,1,156.167,69.8Zm7.557-2.632a.5.5,0,0,1-.153-.976c1.27-.408,2.555-.812,3.82-1.2a.5.5,0,0,1,.294.956c-1.261.388-2.543.791-3.808,1.2A.5.5,0,0,1,163.725,67.165Zm7.646-2.353a.5.5,0,0,1-.141-.98c1.28-.376,2.576-.748,3.849-1.1a.5.5,0,1,1,.269.963c-1.27.355-2.561.726-3.837,1.1A.5.5,0,0,1,171.371,64.813Zm7.7-2.154a.5.5,0,0,1-.128-.983c1.293-.343,2.6-.68,3.88-1a.5.5,0,0,1,.243.97c-1.278.32-2.579.656-3.867,1A.5.5,0,0,1,179.073,62.658Zm7.76-1.944a.5.5,0,0,1-.114-.987c1.305-.307,2.62-.606,3.909-.889a.5.5,0,1,1,.214.977c-1.284.282-2.594.58-3.894.886A.5.5,0,0,1,186.833,60.714ZM194.648,59a.5.5,0,0,1-.1-.99c1.32-.268,2.644-.525,3.936-.764a.5.5,0,1,1,.182.983c-1.286.238-2.6.494-3.919.761A.5.5,0,0,1,194.648,59Zm7.864-1.455a.5.5,0,0,1-.081-.993c1.344-.223,2.677-.431,3.963-.618a.5.5,0,1,1,.143.99c-1.279.185-2.605.392-3.942.614A.5.5,0,0,1,202.512,57.544Zm7.921-1.142a.5.5,0,0,1-.059-1c1.845-.22,3.193-.344,4-.408a.5.5,0,0,1,.08,1c-.8.064-2.131.186-3.96.4A.505.505,0,0,1,210.432,56.4Z" transform="translate(75 64.695)" fill="#fff" />
        <path d="M49.253,161.76a9.405,9.405,0,1,1-9.4,9.4,9.405,9.405,0,0,1,9.4-9.4" transform="translate(72 56.576)" fill="#fff" />
        <path d="M61.213,159.707A14.111,14.111,0,1,0,47.96,183.8l3.46,13.237a.786.786,0,0,0,.76.586H52.2a.786.786,0,0,0,.749-.625l1.224-5.862,1.131-5.416.4-1.92a14.061,14.061,0,0,0,5.509-24.092Zm-4.648,16.372H47.158v-1.973l3.378-3.408q1.5-1.534,1.961-2.127a4.737,4.737,0,0,0,.663-1.1,2.805,2.805,0,0,0,.2-1.048,1.528,1.528,0,0,0-.446-1.2,1.745,1.745,0,0,0-1.192-.394,3.436,3.436,0,0,0-1.519.358,7.817,7.817,0,0,0-1.537,1.02L47.12,164.38a10,10,0,0,1,1.647-1.194,6.115,6.115,0,0,1,1.427-.537,7.314,7.314,0,0,1,1.732-.189,5.121,5.121,0,0,1,2.228.459,3.561,3.561,0,0,1,1.5,1.287,3.416,3.416,0,0,1,.534,1.892,4.632,4.632,0,0,1-.327,1.741,6.716,6.716,0,0,1-1.013,1.667,24.9,24.9,0,0,1-2.417,2.434l-1.73,1.626v.127h5.864Z" transform="translate(69 59.576)" fill="#e88a2d" />
        <path d="M152.715,210.736a10.462,10.462,0,1,1-10.972,10.45,10.721,10.721,0,0,1,10.972-10.45" transform="translate(80 37.695)" fill="#fff" />
        <path d="M153.617,202.6c-.316-.019-.63-.047-.951-.047a15.8,15.8,0,0,0-3.006.294c-.286.055-.566.129-.845.2a15.638,15.638,0,0,0-4.094,28.686c.275.16.556.308.84.451a15.564,15.564,0,0,0,2.8,1.111l.3,1.163L152.2,248a.874.874,0,0,0,.845.652h.02a.874.874,0,0,0,.833-.694l3.062-14.664a15.653,15.653,0,0,0-3.353-30.694Zm.512,23.088h-3.161v-8.634l.031-1.419.05-1.551q-.787.784-1.094,1.031l-1.719,1.378-1.524-1.9,4.817-3.826h2.6Z" transform="translate(80 37.695)" fill="#e88a2d" />
        <path d="M185.884,81.05l-2.063,3.111h2.707V82.255c0-.317.014-.778.039-1.383s.046-.955.061-1.053h-.061a8.646,8.646,0,0,1-.683,1.231" transform="translate(75 64.695)" fill="#e3731a" />
        <path d="M198.679,79.027a12.556,12.556,0,1,0-17.454,15.292c.027.014.052.028.079.041a12.325,12.325,0,0,0,2.057.792l.987,3.771.713,2.729.476,1.823.9,3.442a.7.7,0,0,0,.676.522h.017a.7.7,0,0,0,.666-.556l.853-4.085.4-1.929.638-3.059.556-2.657a12.583,12.583,0,0,0,5.681-3.45c.1-.1.2-.2.289-.308a12.59,12.59,0,0,0,2.01-3.078,12.4,12.4,0,0,0,1.12-4.605c.011-.2.027-.4.027-.611a12.473,12.473,0,0,0-.691-4.074M190.209,86h-1.354v2.327H186.53V86h-4.8V84.353l4.935-7.251h2.193v7.059h1.354Z" transform="translate(75 64.695)" fill="#e88a2d" />
        <path d="M214.8,9.875c8.08,0,14.63,6.082,14.63,13.585s-6.55,13.585-14.63,13.585-14.63-6.082-14.63-13.585S206.72,9.875,214.8,9.875" transform="translate(75 64.695)" fill="#fff" />
        <path d="M235.209,21.987C234.258,9.657,224.093,0,212.069,0a23.3,23.3,0,0,0-22.981,21.987,23.637,23.637,0,0,0,4.816,15.76l6.227,8.874,3.435,4.9,4.641,6.615,2.284,3.255a2.027,2.027,0,0,0,1.623.869h.074a1.939,1.939,0,0,0,1.618-.869l16.508-23.64a24.422,24.422,0,0,0,4.9-15.764m-13.427,1.5a9.783,9.783,0,0,1-9.791,9.693h-.08a9.772,9.772,0,0,1,.077-19.544h.08a9.755,9.755,0,0,1,9.714,9.776Z" transform="translate(75 64.695)" fill="#e88a2d" />
    </g>
</svg>