<svg xmlns="http://www.w3.org/2000/svg" xmlns:xlink="http://www.w3.org/1999/xlink" width="400" height="320" viewBox="0 0 400 320">
    <defs>
        <clipPath>
            <rect width="400" height="320" />
        </clipPath>
    </defs>
    <g clip-path="url(#b)">
        <path d="M292.032,183.5a1,1,0,0,1-.058-2,11.958,11.958,0,0,0,3.962-.83c.865-.383,1.146-.759,1.147-.881s-.24-.452-.987-.817a10.93,10.93,0,0,0-3.562-.886,1,1,0,0,1,.2-1.99,12.747,12.747,0,0,1,4.243,1.08c1.748.854,2.111,1.9,2.108,2.622,0,.763-.412,1.85-2.338,2.7a13.963,13.963,0,0,1-4.653,1Z" transform="translate(-12 52)" fill="#5bb3b3" />
        <path d="M0,65.388H0a1,1,0,0,1-1-1L-.753,0a1,1,0,0,1,1-1,1,1,0,0,1,1,1L1,64.392A1,1,0,0,1,0,65.388Z" transform="translate(285.837 232.216)" fill="#5bb3b3" />
        <path d="M371.127,116.594a1,1,0,0,1-.519-.146c-.109-.066-11.054-6.714-26.444-14.2-9.032-4.393-17.806-8.211-26.076-11.348a184.046,184.046,0,0,0-28.414-8.492,1,1,0,0,1,.4-1.961,186.055,186.055,0,0,1,28.74,8.587c8.329,3.159,17.161,7,26.25,11.425,15.471,7.526,26.481,14.215,26.59,14.281a1,1,0,0,1-.521,1.854Z" transform="translate(-15 34)" fill="#5bb3b3" />
        <path d="M297.1,134.7q-1.828,0-3.452-.114a1,1,0,0,1,.14-2c6.353.445,15.1-.46,26.748-2.767,10.227-2.025,21.416-4.883,31.288-7.4,9.63-2.459,18.725-4.782,25.49-5.981a48.327,48.327,0,0,1,16.9.459A98.959,98.959,0,0,1,410.6,121.53a135.491,135.491,0,0,1,17.388,7.857,1,1,0,0,1-.981,1.743,133.41,133.41,0,0,0-17.13-7.735,96.892,96.892,0,0,0-16.04-4.529,46.348,46.348,0,0,0-16.173-.455c-6.691,1.186-15.752,3.5-25.344,5.949-9.9,2.527-21.114,5.392-31.394,7.428C311.064,133.741,303.22,134.7,297.1,134.7Z" transform="translate(-15 33.698)" fill="#5bb3b3" />
        <path d="M293.717,187.371a1,1,0,0,1-.755-1.655,33.3,33.3,0,0,1,6.1-5.246,24.62,24.62,0,0,1,6.465-3.161,15.935,15.935,0,0,1,6.835-.627,17.375,17.375,0,0,1,3.809-7.823,14.2,14.2,0,0,1,6.01-3.983,17.985,17.985,0,0,1,7.051-.92,32.642,32.642,0,0,1,4.1-5.747,17.7,17.7,0,0,1,4.986-3.991,9.341,9.341,0,0,1,5.4-1.055,14.456,14.456,0,0,1,1.852-5.512,10.287,10.287,0,0,1,3.472-3.506,10.487,10.487,0,0,1,3.908-1.4,20.284,20.284,0,0,1,1.359-4.813c1.566-3.615,4.024-5.644,7.14-5.91a26.26,26.26,0,0,1,3.2-6.117,20.742,20.742,0,0,1,3.828-4.1,14.237,14.237,0,0,1,4.514-2.585,1,1,0,1,1,.554,1.922,12.693,12.693,0,0,0-3.9,2.29,18.826,18.826,0,0,0-3.415,3.7,24.676,24.676,0,0,0-3.118,6.188,1,1,0,0,1-.945.673c-2.633,0-4.658,1.593-6.019,4.736a18.333,18.333,0,0,0-1.309,5.027,1,1,0,0,1-1,.914A8.219,8.219,0,0,0,350,145.9a8.33,8.33,0,0,0-2.755,2.84,13.267,13.267,0,0,0-1.661,5.687,1,1,0,0,1-1.245.882c-7.447-1.91-13.6,10.038-13.658,10.159a1,1,0,0,1-1.044.537,15.872,15.872,0,0,0-6.871.781,12.209,12.209,0,0,0-5.137,3.434,15.969,15.969,0,0,0-3.506,7.791,1,1,0,0,1-1.189.8,13.641,13.641,0,0,0-6.83.411,22.632,22.632,0,0,0-5.935,2.91,31.711,31.711,0,0,0-5.7,4.895A1,1,0,0,1,293.717,187.371Z" transform="translate(-13.167 32.699)" fill="#5bb3b3" />
        <path d="M293.716,169.64a1,1,0,0,1-.914-1.4,18.442,18.442,0,0,1,2.751-4.258c2.215-2.513,4.664-3.51,7.129-2.918a15.994,15.994,0,0,1,3.466-3.642,24.18,24.18,0,0,1,4.536-2.749,30.106,30.106,0,0,1,4.946-1.829,21.252,21.252,0,0,1,4.28-5.183,19.314,19.314,0,0,1,4.65-3.009,17.14,17.14,0,0,1,4.7-1.418,20.916,20.916,0,0,1,3.829-3.866c3.186-2.449,6.583-3.392,9.876-2.753a28.946,28.946,0,0,1,3.986-5.86,32.44,32.44,0,0,1,4.788-4.459,28.52,28.52,0,0,1,5.521-3.369,1,1,0,0,1,.782,1.841,27.208,27.208,0,0,0-5.143,3.159,30.412,30.412,0,0,0-4.469,4.175,26.769,26.769,0,0,0-4.016,6.1,1,1,0,0,1-1.168.536,8.755,8.755,0,0,0-4.919.08,12.662,12.662,0,0,0-4.019,2.141,18.505,18.505,0,0,0-3.669,3.786,1,1,0,0,1-.768.438,14.363,14.363,0,0,0-4.56,1.33,17.328,17.328,0,0,0-4.132,2.7,19.4,19.4,0,0,0-4.028,5,1,1,0,0,1-.647.48,27.316,27.316,0,0,0-5,1.814c-2.432,1.155-5.71,3.176-7.517,6.25a1,1,0,0,1-1.216.429,3.926,3.926,0,0,0-3.079.073,7.681,7.681,0,0,0-2.607,2.021,16.647,16.647,0,0,0-2.448,3.773A1,1,0,0,1,293.716,169.64Z" transform="translate(-15.001 32.265)" fill="#5bb3b3" />
        <path d="M428.811,178.208a1,1,0,0,1-.972-.767h0a37.07,37.07,0,0,0-2.666-7,30.96,30.96,0,0,0-3.713-5.827,19.9,19.9,0,0,0-5.576-4.807,1,1,0,0,1-.505-.772,37.259,37.259,0,0,0-2.127-9.665,17.457,17.457,0,0,0-3.006-5.2,7.542,7.542,0,0,0-3.558-2.536,1,1,0,0,1-.786-1.189,24,24,0,0,0,.335-6.251c-.366-4.079-1.945-6.623-4.693-7.563a1,1,0,0,1-.674-1.01,5.243,5.243,0,0,0-2.011-4.777,5.648,5.648,0,0,1-1.6-2.171,1,1,0,0,1,1.895-.64,4.149,4.149,0,0,0,1.105,1.379,7.172,7.172,0,0,1,2.633,5.6c3.1,1.377,4.947,4.488,5.346,9.05a25.8,25.8,0,0,1-.222,5.926c2.249.971,7.817,4.721,9.3,18.344a22.193,22.193,0,0,1,5.709,5.042,33.019,33.019,0,0,1,3.96,6.225,38.325,38.325,0,0,1,2.8,7.386,1,1,0,0,1-.973,1.232Z" transform="translate(-24.203 32.698)" fill="#5bb3b3" />
        <path d="M435.1,153.838a1,1,0,0,1-.954-.7,25.242,25.242,0,0,0-3.2-6.846,13.613,13.613,0,0,0-3.362-3.469,7.582,7.582,0,0,0-3.73-1.48.978.978,0,0,1-.924-.629,24.764,24.764,0,0,0-2.431-4.409c-1.323-1.883-3.4-4.127-5.805-4.127a1,1,0,0,1-.97-.757c-1.7-6.807-8.573-10.312-8.642-10.346a1,1,0,0,1,.894-1.789,20.985,20.985,0,0,1,4.112,2.9,17.882,17.882,0,0,1,5.38,8.046,7.487,7.487,0,0,1,3.587,1.589,15.263,15.263,0,0,1,3.1,3.37,26.861,26.861,0,0,1,2.388,4.223,10.166,10.166,0,0,1,4.026,1.665,15.392,15.392,0,0,1,3.94,3.965,27.052,27.052,0,0,1,3.54,7.5,1,1,0,0,1-.955,1.3Z" transform="translate(-24.203 32.698)" fill="#5bb3b3" />
        <path d="M359.767,196.182a1,1,0,0,1-.987-1.168,87.807,87.807,0,0,1,2.755-11.067c2.336-7.211,5.07-11.607,8.137-13.088-.333-7.24.2-12.662,1.583-16.12a7.28,7.28,0,0,1,2.009-3.043,15.9,15.9,0,0,1,.148-5.245,18.058,18.058,0,0,1,2.184-5.77,22.441,22.441,0,0,1,5.029-5.827,25.373,25.373,0,0,1-.052-8.308A14.406,14.406,0,0,1,382.73,121a9.573,9.573,0,0,1,4.124-3.6l.7,1.874.007,0a7.838,7.838,0,0,0-3.25,2.961,12.577,12.577,0,0,0-1.789,4.771,24.1,24.1,0,0,0,.169,8.085,1,1,0,0,1-.361.949,20.738,20.738,0,0,0-5.008,5.649,16.064,16.064,0,0,0-1.945,5.132,12.816,12.816,0,0,0-.036,5.1,1,1,0,0,1-.63,1.194c-.172.089-3.858,2.215-3.006,18.342a1,1,0,0,1-.686,1c-1.433.472-2.862,1.908-4.248,4.266a40.135,40.135,0,0,0-3.326,7.811,87.477,87.477,0,0,0-2.693,10.806A1,1,0,0,1,359.767,196.182Z" transform="translate(-20.261 32.698)" fill="#5bb3b3" />
        <path d="M298.3,255.4a1,1,0,0,1-.789-1.614c.744-1.059,12.527-21.888,28.823-50.693,13.416-23.714,30.113-53.228,48.3-85.244a1,1,0,1,1,1.739.988c-18.184,32.014-34.88,61.527-48.3,85.241-20.233,35.765-28.466,50.3-29,50.957A1,1,0,0,1,298.3,255.4Z" transform="translate(-12.462 32.698)" fill="#5bb3b3" />
        <path d="M406.858,243.941a1,1,0,0,1-.994-.9l-12.323-124.6a1,1,0,0,1,1.99-.2l12.323,124.6a1,1,0,0,1-.9,1.094Q406.908,243.941,406.858,243.941Z" transform="translate(-24.203 32.698)" fill="#5bb3b3" />
        <path d="M364.829,244.32a1,1,0,0,1-.98-1.206c7.292-34.675,24.037-124.055,24.206-124.954a1,1,0,0,1,1.966.368c-.168.9-16.917,90.3-24.214,125A1,1,0,0,1,364.829,244.32Z" transform="translate(-20.51 32.698)" fill="#5bb3b3" />
        <path d="M295.549,146.84a1,1,0,0,1-.894-1.447c2.122-4.244,5.4-5.136,7.768-5.136h0a11.314,11.314,0,0,1,3.922.745,18.7,18.7,0,0,1,3.154-2.223,10.7,10.7,0,0,1,7.673-1.417,21.191,21.191,0,0,1,4.717-4.212,30.569,30.569,0,0,1,5.6-2.9,34.007,34.007,0,0,1,6.394-1.891,1,1,0,0,1,.329,1.973h0a32.681,32.681,0,0,0-6.023,1.792c-3,1.206-7.147,3.4-9.84,6.986a1,1,0,0,1-1.116.349c-4.857-1.619-9.924,3.375-9.975,3.425a1,1,0,0,1-1.154.187,9.3,9.3,0,0,0-3.741-.811c-2.6.022-4.59,1.378-5.916,4.03A1,1,0,0,1,295.549,146.84Z" transform="translate(-15 32.698)" fill="#5bb3b3" />
        <path d="M60.489,208.643a1,1,0,0,1-.9-1.431L83.453,157.22a1,1,0,0,1,.849-.568l29.289-1.562a1,1,0,0,1,.749,1.716L61.186,208.36A1,1,0,0,1,60.489,208.643ZM85,158.618l-21.21,44.429,47.24-45.818Z" transform="translate(-20.898 41)" fill="#5bb3b3" />
        <path d="M159.4,172.711H145.1a1,1,0,0,1-.445-.1L113.2,156.983a1,1,0,0,1,.445-1.9h35.7a1,1,0,0,1,0,2H117.907l27.432,13.623H159.4a1,1,0,0,1,0,2Z" transform="translate(-20.898 41)" fill="#5bb3b3" />
        <path d="M0,36.932a1,1,0,0,1-.921-.609,1,1,0,0,1,.53-1.311L84.223-.92a1,1,0,0,1,1.311.53A1,1,0,0,1,85,.92L.391,36.852A1,1,0,0,1,0,36.932Z" transform="translate(39.592 212.711)" fill="#5bb3b3" />
        <path d="M170.785,183.646H147.273a1,1,0,0,1-1-1V172.579a1,1,0,0,1,2,0v9.067h22.512a1,1,0,0,1,0,2Z" transform="translate(-20.898 41)" fill="#5bb3b3" />
        <path d="M0,25.221A1,1,0,0,1-.961,24.5,1,1,0,0,1-.277,23.26L83.877-.961a1,1,0,0,1,1.238.684A1,1,0,0,1,84.431.961L.277,25.182A1,1,0,0,1,0,25.221Z" transform="translate(42.221 223.646)" fill="#5bb3b3" />
        <path d="M0,23.828a1,1,0,0,1-1-1V0A1,1,0,0,1,0-1,1,1,0,0,1,1,0V22.828A1,1,0,0,1,0,23.828Z" transform="translate(126.375 226.771)" fill="#5bb3b3" />
        <path d="M0,21.586a1,1,0,0,1-1-1V0A1,1,0,0,1,0-1,1,1,0,0,1,1,0V20.586A1,1,0,0,1,0,21.586Z" transform="translate(155.705 229.014)" fill="#5bb3b3" />
        <path d="M128.716,153.1a1,1,0,0,1-1-1V117.058H100.387v8.165a1,1,0,1,1-2,0v-9.165a1,1,0,0,1,1-1h29.329a1,1,0,0,1,1,1V152.1A1,1,0,0,1,128.716,153.1Z" transform="translate(-17.898 39)" fill="#5bb3b3" />
        <path d="M73.723,124.391a1,1,0,0,1-1-1V86.729a1,1,0,0,1,1-1h36.662a1,1,0,0,1,1,1v23.83a1,1,0,0,1-2,0V87.729H74.723v35.662A1,1,0,0,1,73.723,124.391Z" transform="translate(-17.898 39)" fill="#5bb3b3" />
        <path d="M38.757,164.718a1,1,0,0,1-1-1v-33a1,1,0,0,1,1-1h64.158a1,1,0,0,1,1,1v20.934a1,1,0,0,1-2,0V131.722H39.757v32A1,1,0,0,1,38.757,164.718Z" transform="translate(-17.898 39)" fill="#5bb3b3" />
        <path d="M52.048,196.867h-.013L1.085,196.2a1,1,0,0,1,.026-2l49.169.642L22.5,147.923H1a1,1,0,0,1,0-2H23.067a1,1,0,0,1,.86.49l28.981,48.944a1,1,0,0,1-.86,1.51Z" transform="translate(-13.898 39)" fill="#5bb3b3" />
        <path d="M33.052,211.6H1.516a1,1,0,0,1,0-2H32.052V196.086a1,1,0,0,1,2,0V210.6A1,1,0,0,1,33.052,211.6Z" transform="translate(-13.898 39)" fill="#5bb3b3" />
        <path d="M0,8.292a1,1,0,0,1-1-1V0A1,1,0,0,1,0-1,1,1,0,0,1,1,0V7.292A1,1,0,0,1,0,8.292Z" transform="translate(52.467 244.789)" fill="#5bb3b3" />
        <path d="M22,1H0A1,1,0,0,1-1,0,1,1,0,0,1,0-1H22a1,1,0,0,1,1,1A1,1,0,0,1,22,1Z" transform="translate(63.158 134.894)" fill="#5bb3b3" />
        <path d="M12.832,1H0A1,1,0,0,1-1,0,1,1,0,0,1,0-1H12.832a1,1,0,0,1,1,1A1,1,0,0,1,12.832,1Z" transform="translate(33.691 180.721)" fill="#5bb3b3" />
        <path d="M12.832,1H0A1,1,0,0,1-1,0,1,1,0,0,1,0-1H12.832a1,1,0,0,1,1,1A1,1,0,0,1,12.832,1Z" transform="translate(59.354 180.721)" fill="#5bb3b3" />
        <path d="M12.832,1H0A1,1,0,0,1-1,0,1,1,0,0,1,0-1H12.832a1,1,0,0,1,1,1A1,1,0,0,1,12.832,1Z" transform="translate(33.691 194.775)" fill="#5bb3b3" />
        <path d="M3.666,1H0A1,1,0,0,1-1,0,1,1,0,0,1,0-1H3.666a1,1,0,0,1,1,1A1,1,0,0,1,3.666,1Z" transform="translate(59.354 194.775)" fill="#5bb3b3" />
        <path d="M12.832,1H0A1,1,0,0,1-1,0,1,1,0,0,1,0-1H12.832a1,1,0,0,1,1,1A1,1,0,0,1,12.832,1Z" transform="translate(33.691 208.828)" fill="#5bb3b3" />
        <path d="M12.832,1H0A1,1,0,0,1-1,0,1,1,0,0,1,0-1H12.832a1,1,0,0,1,1,1A1,1,0,0,1,12.832,1Z" transform="translate(33.691 222.882)" fill="#5bb3b3" />
        <path d="M22,1H0A1,1,0,0,1-1,0,1,1,0,0,1,0-1H22a1,1,0,0,1,1,1A1,1,0,0,1,22,1Z" transform="translate(63.158 147.726)" fill="#5bb3b3" />
        <path d="M11,1H0A1,1,0,0,1-1,0,1,1,0,0,1,0-1H11a1,1,0,0,1,1,1A1,1,0,0,1,11,1Z" transform="translate(63.158 160.557)" fill="#5bb3b3" />
        <g transform="translate(-14.403 -38.356)">
            <path d="M310.455,23.136a22,22,0,0,1-8.617-1.74,22.062,22.062,0,0,1-7.036-4.744A22.07,22.07,0,0,1,288.317,1a1,1,0,1,1,2,0A20.008,20.008,0,0,0,291.9,8.838a20.07,20.07,0,0,0,4.316,6.4,20.071,20.071,0,0,0,6.4,4.316,20.207,20.207,0,0,0,15.676,0,20.071,20.071,0,0,0,6.4-4.316,20.071,20.071,0,0,0,4.316-6.4A20.009,20.009,0,0,0,330.591,1a1,1,0,1,1,2,0,22.07,22.07,0,0,1-6.484,15.653,22.062,22.062,0,0,1-7.036,4.744A22,22,0,0,1,310.455,23.136Z" transform="translate(-11.967 40)" fill="#5bb3b3" />
            <path d="M0,10.574a1,1,0,0,1-1-1V0A1,1,0,0,1,0-1,1,1,0,0,1,1,0V9.574A1,1,0,0,1,0,10.574Z" transform="translate(298.487 68.461)" fill="#5bb3b3" />
            <path d="M6.77,7.77a1,1,0,0,1-.707-.293L-.707.707a1,1,0,0,1,0-1.414,1,1,0,0,1,1.414,0l6.77,6.77A1,1,0,0,1,6.77,7.77Z" transform="translate(317.538 60.569)" fill="#5bb3b3" />
            <path d="M9.574,1.034h0L0,1A1,1,0,0,1-1,0,1,1,0,0,1,0-1l9.574.034a1,1,0,0,1,0,2Z" transform="translate(325.429 41.612)" fill="#5bb3b3" />
            <path d="M9.574,1.034h0L0,1A1,1,0,0,1-1,0,1,1,0,0,1,0-1l9.574.034a1,1,0,0,1,0,2Z" transform="translate(261.971 41.392)" fill="#5bb3b3" />
            <path d="M0,7.746a1,1,0,0,1-.71-.3,1,1,0,0,1,0-1.414L6.089-.71A1,1,0,0,1,7.5-.7,1,1,0,0,1,7.5.71L.7,7.456A1,1,0,0,1,0,7.746Z" transform="translate(272.577 60.503)" fill="#5bb3b3" />
            <path d="M0,9.862a1,1,0,0,1-.378-.075,1,1,0,0,1-.547-1.3L2.7-.379A1,1,0,0,1,4-.926a1,1,0,0,1,.547,1.3L.926,9.24A1,1,0,0,1,0,9.862Z" transform="translate(284.657 66.453)" fill="#5bb3b3" />
            <path d="M3.7,9.831a1,1,0,0,1-.923-.614L-.922.387A1,1,0,0,1-.387-.922,1,1,0,0,1,.922-.387l3.7,8.83A1,1,0,0,1,3.7,9.831Z" transform="translate(308.903 66.366)" fill="#5bb3b3" />
            <path d="M8.848,4.658a1,1,0,0,1-.382-.076L-.382.924A1,1,0,0,1-.924-.382,1,1,0,0,1,.382-.924L9.23,2.733a1,1,0,0,1-.382,1.924Z" transform="translate(323.387 51.809)" fill="#5bb3b3" />
            <path d="M0,4.671a1,1,0,0,1-.924-.617,1,1,0,0,1,.54-1.307L8.46-.924a1,1,0,0,1,1.307.54A1,1,0,0,1,9.226.924L.383,4.595A1,1,0,0,1,0,4.671Z" transform="translate(264.761 51.849)" fill="#5bb3b3" />
        </g>
        <path d="M343.685,97.612a1,1,0,0,1-.376-1.927c6.313-2.561,14.48-7.088,23.127-11.882,10.479-5.809,22.355-12.392,33.042-16.6a43.63,43.63,0,0,1,14.228-2.975,48.951,48.951,0,0,1,12.009,1.029,45.794,45.794,0,0,1,11.459,3.9,1,1,0,0,1-.951,1.76h0a44.759,44.759,0,0,0-10.985-3.711,46.922,46.922,0,0,0-11.494-.972A41.631,41.631,0,0,0,400.21,69.07c-10.564,4.155-22.379,10.7-32.8,16.483-8.7,4.823-16.92,9.379-23.345,11.986A1,1,0,0,1,343.685,97.612Z" transform="translate(-15 34)" fill="#5bb3b3" />
        <g transform="translate(-5 12)">
            <path d="M356.787,176h.082a15.788,15.788,0,0,1,5.459.9,5.914,5.914,0,0,1,1.856,1.078,2.29,2.29,0,0,1,0,3.627,5.867,5.867,0,0,1-1.847,1.063,15.683,15.683,0,0,1-5.416.866h-.076a15.8,15.8,0,0,1-5.459-.9,5.915,5.915,0,0,1-1.856-1.079,2.29,2.29,0,0,1,0-3.626,5.862,5.862,0,0,1,1.846-1.062A15.667,15.667,0,0,1,356.787,176Zm.129,5.53a13.667,13.667,0,0,0,4.7-.734c1.087-.416,1.454-.866,1.455-1.008s-.368-.6-1.468-1.027a13.973,13.973,0,0,0-4.744-.762h-.074a13.65,13.65,0,0,0-4.7.734c-1.086.415-1.453.866-1.453,1.008s.368.6,1.468,1.027a13.981,13.981,0,0,0,4.744.762Z" transform="translate(-15 40)" fill="#5bb3b3" />
            <path d="M0,65.388H0a1,1,0,0,1-1-1L-.753,0a1,1,0,0,1,1-1,1,1,0,0,1,1,1L1,64.392A1,1,0,0,1,0,65.388Z" transform="translate(348.828 220.25)" fill="#5bb3b3" />
            <path d="M0,64.811H0a1,1,0,0,1-1-1L-.981,0a1,1,0,0,1,1-1,1,1,0,0,1,1,1L1,63.811A1,1,0,0,1,0,64.811Z" transform="translate(334.399 220.782)" fill="#5bb3b3" />
        </g>
        <path d="M276.8,1H0A1,1,0,0,1-1,0,1,1,0,0,1,0-1H276.8a1,1,0,0,1,1,1A1,1,0,0,1,276.8,1Z" transform="translate(-13.167 255.207)" fill="#5bb3b3" />
        <path d="M276.357,1H0A1,1,0,0,1-1,0,1,1,0,0,1,0-1H276.357a1,1,0,0,1,1,1A1,1,0,0,1,276.357,1Z" transform="translate(-13.167 264.415)" fill="#5bb3b3" />
        <path d="M69.657,1H0A1,1,0,0,1-1,0,1,1,0,0,1,0-1H69.657a1,1,0,0,1,1,1A1,1,0,0,1,69.657,1Z" transform="translate(200 287.099)" fill="#5bb3b3" />
        <path d="M33,1H0A1,1,0,0,1-1,0,1,1,0,0,1,0-1H33a1,1,0,0,1,1,1A1,1,0,0,1,33,1Z" transform="translate(156.952 275.099)" fill="#5bb3b3" />
        <path d="M25.663,1H0A1,1,0,0,1-1,0,1,1,0,0,1,0-1H25.663a1,1,0,0,1,1,1A1,1,0,0,1,25.663,1Z" transform="translate(129.814 281.387)" fill="#5bb3b3" />
        <path d="M67.824,1H0A1,1,0,0,1-1,0,1,1,0,0,1,0-1H67.824a1,1,0,0,1,1,1A1,1,0,0,1,67.824,1Z" transform="translate(9.538 282.074)" fill="#5bb3b3" />
        <g transform="translate(17.627 -37.394)">
            <path d="M44.044,38.844a1,1,0,0,1,.9.557l4.038,8.182L58.008,48.9a1,1,0,0,1,.554,1.706l-6.533,6.368,1.542,8.992a1,1,0,0,1-1.451,1.054L44.044,62.77l-8.075,4.245a1,1,0,0,1-1.451-1.054l1.542-8.992L29.526,50.6A1,1,0,0,1,30.08,48.9l9.029-1.312L43.147,39.4A1,1,0,0,1,44.044,38.844ZM55.715,50.583l-7.544-1.1a1,1,0,0,1-.753-.547L44.044,42.1,40.67,48.94a1,1,0,0,1-.753.547l-7.544,1.1L37.832,55.9a1,1,0,0,1,.288.885L36.831,64.3l6.747-3.547a1,1,0,0,1,.931,0L51.257,64.3l-1.288-7.513a1,1,0,0,1,.288-.885Z" transform="translate(-12.331 43.698)" fill="#5bb3b3" />
            <path d="M17.271,4.775a1,1,0,0,1,1,1.078l-.422,5.426L22.077,14.7a1,1,0,0,1-.395,1.75l-5.291,1.274-1.95,5.081a1,1,0,0,1-1.786.165L9.808,18.335l-5.435-.284A1,1,0,0,1,3.664,16.4L7.2,12.263,5.786,7.007A1,1,0,0,1,7.134,5.823L12.163,7.9l4.563-2.965A1,1,0,0,1,17.271,4.775Zm1.972,10.208L16.179,12.5a1,1,0,0,1-.368-.855l.306-3.93-3.3,2.148a1,1,0,0,1-.927.086L8.243,8.446l1.021,3.807a1,1,0,0,1-.2.908l-2.558,3,3.937.206a1,1,0,0,1,.8.475L13.3,20.2l1.412-3.68a1,1,0,0,1,.7-.614Z" transform="translate(-14.923 40.275)" fill="#5bb3b3" />
            <path d="M14.636,92.639a1,1,0,0,1,1,1.078l-.355,4.561,3.556,2.878a1,1,0,0,1-.395,1.749l-4.448,1.072-1.638,4.271a1,1,0,0,1-1.786.165l-2.394-3.9-4.568-.238a1,1,0,0,1-.709-1.647l2.968-3.481L4.68,94.729a1,1,0,0,1,1.348-1.183l4.229,1.747L14.091,92.8A1,1,0,0,1,14.636,92.639Zm1.365,8.8L13.611,99.5a1,1,0,0,1-.368-.855l.239-3.065L10.9,97.256a1,1,0,0,1-.927.086L7.136,96.168l.8,2.97a1,1,0,0,1-.2.908l-1.994,2.339,3.069.16a1,1,0,0,1,.8.475l1.609,2.62,1.1-2.87a1,1,0,0,1,.7-.614Z" transform="translate(-15 49.103)" fill="#5bb3b3" />
            <path d="M105.751,43.244a1,1,0,0,1,1,1.078l-.422,5.426,4.231,3.424a1,1,0,0,1-.395,1.75L104.871,56.2l-1.95,5.081a1,1,0,0,1-1.786.165L98.288,56.8l-5.435-.284a1,1,0,0,1-.709-1.648l3.531-4.14-1.41-5.256a1,1,0,0,1,1.348-1.183l5.03,2.078,4.563-2.965A1,1,0,0,1,105.751,43.244Zm1.972,10.208-3.064-2.48a1,1,0,0,1-.368-.855l.306-3.93-3.3,2.148a1,1,0,0,1-.927.086l-3.643-1.505,1.021,3.807a1,1,0,0,1-.205.908l-2.558,3,3.937.206a1,1,0,0,1,.8.475l2.062,3.359,1.412-3.68a1,1,0,0,1,.7-.614Z" transform="translate(-6.033 44.14)" fill="#5bb3b3" />
            <path d="M50.476,44.247a1,1,0,0,1-.918-1.4A25.172,25.172,0,0,1,54.492,35.4a30.606,30.606,0,0,1,7.953-5.87,49.8,49.8,0,0,1,11.23-4.108A90.8,90.8,0,0,1,88.5,23.2a1,1,0,0,1,.147,1.995,88.807,88.807,0,0,0-14.5,2.171A47.816,47.816,0,0,0,63.375,31.3a28.616,28.616,0,0,0-7.437,5.48,23.179,23.179,0,0,0-4.544,6.861A1,1,0,0,1,50.476,44.247Z" transform="translate(-10.296 42.126)" fill="#5bb3b3" />
            <path d="M43.293,38.091l-.075,0a1,1,0,0,1-.924-1.071,111.063,111.063,0,0,0,.073-16.959A133.373,133.373,0,0,0,39.879,3.237a1,1,0,0,1,1.96-.4,135.269,135.269,0,0,1,2.523,17.068,113.005,113.005,0,0,1-.072,17.258A1,1,0,0,1,43.293,38.091Z" transform="translate(-11.262 40)" fill="#5bb3b3" />
            <path d="M34.548,42.727a1,1,0,0,1-.893-.549,74.091,74.091,0,0,0-6.612-10.708,74.054,74.054,0,0,0-8.33-9.434,1,1,0,1,1,1.381-1.447,76.059,76.059,0,0,1,8.556,9.689,76.1,76.1,0,0,1,6.791,11,1,1,0,0,1-.892,1.451Z" transform="translate(-13.418 41.836)" fill="#5bb3b3" />
            <path d="M4.311,50.406a1,1,0,0,1-.26-1.966,82.1,82.1,0,0,1,13.791-2.049c2.45-.18,4.661-.254,6.394-.216,2.707.06,3.53.376,3.944.645A1,1,0,0,1,27.1,48.5a8.678,8.678,0,0,0-3.039-.329c-1.682-.031-3.824.046-6.194.223A79.849,79.849,0,0,0,4.573,50.371,1,1,0,0,1,4.311,50.406Z" transform="translate(-14.934 44.434)" fill="#5bb3b3" />
            <path d="M91.652,50.541a1,1,0,0,1-.352-.064,51.043,51.043,0,0,0-16.914-3.654,43.3,43.3,0,0,0-10.7,1.27c-.509.11-.989.213-1.469.311a1,1,0,0,1-.4-1.959c.469-.1.945-.2,1.449-.307C69.218,44.856,77.37,43.1,92,48.605a1,1,0,0,1-.352,1.936Z" transform="translate(-9.136 44.298)" fill="#5bb3b3" />
            <path d="M10.769,92.31a1,1,0,0,1-1-.917c-.421-5.055,1.254-11.768,4.481-17.958A44.882,44.882,0,0,1,20.9,63.9a40.477,40.477,0,0,1,9.789-7.876,1,1,0,0,1,.992,1.736,38.479,38.479,0,0,0-9.3,7.488,42.882,42.882,0,0,0-6.351,9.108,41.139,41.139,0,0,0-3.5,9.2,24.867,24.867,0,0,0-.765,7.672,1,1,0,0,1-.914,1.08Q10.811,92.31,10.769,92.31Z" transform="translate(-14.291 45.411)" fill="#5bb3b3" />
            <path d="M74.787,82.13a1,1,0,0,1-.994-.9,24.813,24.813,0,0,0-4.925-12.857,39.4,39.4,0,0,0-10.834-9.43,1,1,0,0,1,1.069-1.69,41.877,41.877,0,0,1,11.364,9.918,26.759,26.759,0,0,1,5.317,13.863,1,1,0,0,1-.9,1.093Q74.836,82.13,74.787,82.13Z" transform="translate(-9.483 45.532)" fill="#5bb3b3" />
            <path d="M47.347,109.661a1,1,0,0,1-.77-.361,33.828,33.828,0,0,1-5.765-9.986,38.831,38.831,0,0,1-2.2-10.551,57.246,57.246,0,0,1,.28-10.55c.331-2.98.862-6.173,1.669-10.046a1,1,0,1,1,1.958.408C40.306,79.2,40.335,84.868,40.609,88.617A36.835,36.835,0,0,0,42.69,98.625a31.833,31.833,0,0,0,5.426,9.4,1,1,0,0,1-.769,1.639Z" transform="translate(-11.4 46.564)" fill="#5bb3b3" />
            <path d="M6.35,7.35a1,1,0,0,1-.707-.293L-.707.707a1,1,0,0,1,0-1.414,1,1,0,0,1,1.414,0l6.35,6.35A1,1,0,0,1,6.35,7.35Z" transform="translate(4.196 76.906)" fill="#5bb3b3" />
            <path d="M0,5.374a1,1,0,0,1-.909-.583A1,1,0,0,1-.417,3.465L9.1-.909a1,1,0,0,1,1.326.491A1,1,0,0,1,9.939.909L.417,5.282A1,1,0,0,1,0,5.374Z" transform="translate(-8.503 103.824)" fill="#5bb3b3" />
            <path d="M4.234,11.584a1,1,0,0,1-.929-.629L-.928.371a1,1,0,0,1,.557-1.3,1,1,0,0,1,1.3.557L5.162,10.212a1,1,0,0,1-.928,1.372Z" transform="translate(42.297 117.124)" fill="#5bb3b3" />
            <path d="M0,9.467a1,1,0,0,1-.446-.106A1,1,0,0,1-.894,8.02L3.339-.447A1,1,0,0,1,4.681-.894,1,1,0,0,1,5.128.447L.894,8.914A1,1,0,0,1,0,9.467Z" transform="translate(40.18 64.205)" fill="#5bb3b3" />
        </g>
        <g transform="translate(409.009 1095)">
            <path d="M428.278,176h.082a15.788,15.788,0,0,1,5.459.9,5.914,5.914,0,0,1,1.856,1.078,2.29,2.29,0,0,1,0,3.627,5.867,5.867,0,0,1-1.847,1.063,15.683,15.683,0,0,1-5.416.866h-.076a15.8,15.8,0,0,1-5.459-.9,5.915,5.915,0,0,1-1.856-1.079,2.29,2.29,0,0,1,0-3.626,5.862,5.862,0,0,1,1.846-1.062A15.667,15.667,0,0,1,428.278,176Zm.129,5.53a13.668,13.668,0,0,0,4.7-.734c1.087-.416,1.454-.866,1.455-1.008s-.368-.6-1.468-1.027a13.973,13.973,0,0,0-4.744-.762h-.074a13.65,13.65,0,0,0-4.7.734c-1.086.415-1.453.866-1.453,1.007s.368.6,1.468,1.027a13.98,13.98,0,0,0,4.744.762Z" transform="translate(-447 -1043)" fill="#5bb3b3" />
            <path d="M0,64.811H0a1,1,0,0,1-1-1L-.981,0a1,1,0,0,1,1-1,1,1,0,0,1,1,1L1,63.811A1,1,0,0,1,0,64.811Z" transform="translate(-26.111 -862.183)" fill="#5bb3b3" />
            <path d="M0,64.811H0a1,1,0,0,1-1-1L-.981,0a1,1,0,0,1,1-1,1,1,0,0,1,1,1L1,63.811A1,1,0,0,1,0,64.811Z" transform="translate(-11.446 -862.183)" fill="#5bb3b3" />
        </g>
        <path d="M169.761,84.309c0,46.563-38,84.309-84.88,84.309S0,130.871,0,84.309,38,0,84.88,0s84.88,37.746,84.88,84.309" transform="translate(114.96 76.045)" fill="#ffd964" />
        <rect width="169.761" height="168.91" transform="translate(114.96 76.045)" fill="none" />
        <path d="M123.922,135.552c-1.3-2.3-8.907-2.586-10.258-2.948-3.581,1.569-15.373,2.1-7.079,6.033,3.091.1,6.284-1.912,8.9.34C119.488,134.185,123.959,138.26,123.922,135.552ZM5.909,9.246,6.1,81.562s14.144-3.486,26.875-1.779c5.6.749,9.869,5.37,14.321,6.887,6.316-1.195,7.792-.877,13.942,2.6,1.13-.756,3.151-1.487,3.67-.715,2.467,2.5,5.536,1.1,3.916,4.86,1.364.038,5.908,1.885,4.511,2.377,1.409,1.154-1.433,1.644-1.764,2.616.932.079,2.242,2.78,3.429,3.552.375-.694,1.7-.856,2.7-.159,1.706.779,5.664,3.33,3.954,5.272.038.5.025.433.533.7,3.3,1.715,5.685,4.88,5.348,6.727-.809,4.44,3.3,5.546,4.176,9.884a20.044,20.044,0,0,0,3.939-1.686c.035-.2,1.064-.3,1.056-1.03-.042.158,2-1.84,1.332-3.97.4-1.393,3.009-2.429,3.241-4.448,6.257-5.569,11.184-2.18,13.97-11.3.867-1.8,2.417-3.482,4.376-2.857.459-.9-.805-7.418.357-5.174,6.5,11.017-2.071,5.657.978,9.817,2.344,4.527-4.509,5.756-4.852,10.381-1.724,2.073,1.508,6.949-1.5,10.341-2.1-.764-5.079-1.205-5.825.975-3.216,7.566,5.346-1.062,9.626,1.916,2.6-3.744,2.553-9.35,4.913-13.073,5.467,4.938,9.107,12.82.564,18.755,2.175,1.632,11.425-.769,12.055-1.442-1.051-.483-1.658-1.2-.131-1.6,2.685-1.3,4.284,1.659,3.182,1.469-3.388,2.6,5.071,9.386,5.071,9.386s-.006,1.224,2.446,5.067c-.943,5.281-3.34,8.871,3.6,11.784,9.009,11.2,11.863,7.507,11.863,7.507V10.376Z" transform="translate(115.899 77.442)" fill="#a0d1a0" />
        <path d="M160.417,167.786h0a8.828,8.828,0,0,1-4.892-1.875,35.354,35.354,0,0,1-6.659-6.575c-2.971-1.335-4.651-2.98-5.269-5.151-.576-2.021-.092-4.056.42-6.21.129-.544.261-1.1.38-1.67a19.281,19.281,0,0,1-2.14-4.364,34.565,34.565,0,0,1-2.6-2.477c-2.065-2.2-3.19-4.093-3.421-5.764a21.181,21.181,0,0,1-3.388,1.025,30,30,0,0,1-6.316.863q-.317,0-.61-.013a2.942,2.942,0,0,1-.807,2.157,3.177,3.177,0,0,1-2.322.849c-.33,0-.661-.026-1.011-.054s-.735-.059-1.116-.059a4.348,4.348,0,0,0-3.643,1.79,2,2,0,0,1-2.839.235,2.42,2.42,0,0,0-1.735-.588,13.22,13.22,0,0,0-2.367.324,16.879,16.879,0,0,1-3.268.411c-.1,0-.2,0-.3,0a2,2,0,0,1-.792-.192,11.872,11.872,0,0,1-2.754-1.688,3.206,3.206,0,0,1-1.268-2.809,3.074,3.074,0,0,1,1.429-2.2,7.7,7.7,0,0,1,1.835-.882,38.96,38.96,0,0,1,4.173-1.088,25.611,25.611,0,0,0,3.719-1,2,2,0,0,1,1.319-.1c.2.05.931.14,1.522.213a34.648,34.648,0,0,1,6.41,1.22,2,2,0,0,1,.632-.718c2.648-1.84,4.066-3.946,4.214-6.26a8.826,8.826,0,0,0-1.25-4.8,16.042,16.042,0,0,0-1.8-2.589c-.354,1.023-.644,2.139-.943,3.289a22.73,22.73,0,0,1-2.913,7.458,2,2,0,0,1-2.785.5,1.964,1.964,0,0,0-1.149-.294,12.971,12.971,0,0,0-4.058,1.072,9.8,9.8,0,0,1-3.245.863,2.62,2.62,0,0,1-2.284-1.159c-.82-1.239-.442-2.8.387-4.764a4.513,4.513,0,0,1,4.585-2.877,9.876,9.876,0,0,1,2.214.275,8.666,8.666,0,0,0,.043-3.828c-.2-1.608-.432-3.4.418-4.881.4-2.483,2.084-4.116,3.459-5.447a8.577,8.577,0,0,0,1.68-1.93,1.257,1.257,0,0,0-.076-1.247,3.606,3.606,0,0,1-.849-3.17,2.451,2.451,0,0,1,.3-.633c-.416.087-1.051.673-1.581,1.721a12.978,12.978,0,0,1-3.68,6.231,14.318,14.318,0,0,1-4.813,2.5,17.019,17.019,0,0,0-5.538,2.908,7.439,7.439,0,0,1-2.316,3.128c-.19.174-.442.406-.623.6a6.106,6.106,0,0,1-1.269,4.2c-.125.17-.255.337-.393.494a2.76,2.76,0,0,1-.745.988,3.686,3.686,0,0,1-.815.514,7.343,7.343,0,0,1-1.912,1.009c-.815.342-1.829.729-2.646,1.011a2,2,0,0,1-2.613-1.5,8.294,8.294,0,0,0-1.917-3.524c-1.284-1.657-2.883-3.718-2.267-7.109a3.71,3.71,0,0,0-.982-1.909,10.757,10.757,0,0,0-3.32-2.689l-.009,0-.129-.067a2.542,2.542,0,0,1-1.086-.915,2.634,2.634,0,0,1-.379-1.313l0-.022a2,2,0,0,1,.338-1.275,4.707,4.707,0,0,0-1.063-1.064,11.357,11.357,0,0,0-2.066-1.267,2,2,0,0,1-.313-.179.516.516,0,0,0-.14-.069,2,2,0,0,1-2.507.263,9.418,9.418,0,0,1-2.153-2.292c-.255-.338-.621-.824-.839-1.046a2,2,0,0,1-1.24-2.533,3.335,3.335,0,0,1,1.336-1.635c-.165-.072-.35-.148-.557-.227a7.933,7.933,0,0,0-1.693-.49,2,2,0,0,1-1.777-2.79c.082-.189.14-.343.182-.467l-.26-.1a9.484,9.484,0,0,1-3.1-1.782,5.209,5.209,0,0,0-1.461.66,2,2,0,0,1-2.1.079c-3.942-2.226-5.635-2.967-7.892-2.967a26.564,26.564,0,0,0-4.7.595,2,2,0,0,1-1.017-.072,28.741,28.741,0,0,1-5.858-3.118c-2.553-1.619-5.193-3.292-8.083-3.679a55.242,55.242,0,0,0-7.291-.453A89.742,89.742,0,0,0,6.575,83.5,2,2,0,0,1,4.1,81.567L3.909,9.251A2,2,0,0,1,5.923,7.246l156.066,1.13a2,2,0,0,1,1.986,2V165.2a2,2,0,0,1-.418,1.223A3.962,3.962,0,0,1,160.417,167.786Zm-14.361-27.107a15.226,15.226,0,0,0,2.139,4.158,2,2,0,0,1,.283,1.427c-.169.944-.373,1.8-.571,2.636-.4,1.7-.754,3.173-.464,4.189.183.643.739,1.629,3.442,2.763a2,2,0,0,1,.784.59,32.589,32.589,0,0,0,6.146,6.189,6.666,6.666,0,0,0,2.159,1.093V12.362l-152.06-1.1L8.09,79.085a92.748,92.748,0,0,1,17.325-1.773,59.241,59.241,0,0,1,7.822.488c3.759.5,6.912,2.5,9.694,4.266A29.39,29.39,0,0,0,47.467,84.6a27.528,27.528,0,0,1,4.892-.563c2.928,0,5.138.873,8.876,2.935a6.978,6.978,0,0,1,2.856-.753,2.878,2.878,0,0,1,2.311,1,5.458,5.458,0,0,0,1.959,1.105,4.13,4.13,0,0,1,2.664,2.133,3.356,3.356,0,0,1,.243,1.485c.493.168.9.332,1.105.417,2.092.872,3.018,1.692,3.2,2.831a2.193,2.193,0,0,1,.025.417,2.477,2.477,0,0,1,.122.962,2.716,2.716,0,0,1-1.084,1.947c.105.137.21.276.316.416s.254.337.4.523a4.1,4.1,0,0,1,.941-.107,4.505,4.505,0,0,1,2.391.7c.911.437,4.712,2.414,5.311,5.221a3.552,3.552,0,0,1,.046,1.253c3.224,2,5.992,5.441,5.464,8.331-.285,1.566.283,2.385,1.492,3.945a15.778,15.778,0,0,1,1.947,2.985c.58-.232,1.076-.446,1.351-.581a2.632,2.632,0,0,1,.622-.429,2,2,0,0,1,.6-.721c.24-.285.815-1.113.611-1.759a2,2,0,0,1-.014-1.154,5.949,5.949,0,0,1,1.945-2.623c.555-.51,1.185-1.088,1.232-1.5a2,2,0,0,1,.657-1.266,20.421,20.421,0,0,1,7.308-4.085,10.794,10.794,0,0,0,3.556-1.765,9.421,9.421,0,0,0,2.523-4.535,2,2,0,0,1,.111-.283,6.875,6.875,0,0,1,4.228-3.982c-.025-.341-.052-.676-.074-.932-.184-2.212-.268-3.221.491-4.047a2.076,2.076,0,0,1,1.523-.67,2.445,2.445,0,0,1,2.116,1.5c2.458,4.175,3.189,6.619,2.522,8.429a3.279,3.279,0,0,1-1.392,1.694,5.215,5.215,0,0,1,.054,4.7,11.313,11.313,0,0,1-2.5,3.055c-1.193,1.154-2.222,2.15-2.318,3.438a2,2,0,0,1-.455,1.128,1.4,1.4,0,0,0-.08.587,14.844,14.844,0,0,0,.162,1.8c.252,1.982.584,4.6-.848,6.961a6.366,6.366,0,0,1,.664.106,28.308,28.308,0,0,0,1.549-4.816,23.68,23.68,0,0,1,2.541-6.822,2,2,0,0,1,3.03-.413,22.133,22.133,0,0,1,4.551,5.612,12.732,12.732,0,0,1,1.737,6.979,10.507,10.507,0,0,1-1.611,4.936,12.3,12.3,0,0,1-.8,1.135,32.956,32.956,0,0,0,4.354-.861c0-.056,0-.11.009-.161a2.687,2.687,0,0,1,2.217-2.322,5,5,0,0,1,2.038-.449c2.4,0,4.191,1.875,4.191,3.552a2.235,2.235,0,0,1-1.14,1.971c.059.362.391,1.386,2.175,3.333a30.233,30.233,0,0,0,2.936,2.77A2,2,0,0,1,146.057,140.679Zm-39.305-4.195q.137.073.294.152a15.61,15.61,0,0,0,2.275-.333,16.31,16.31,0,0,1,3.13-.4,6.75,6.75,0,0,1,2.735.536,8.2,8.2,0,0,1,2.1-1.313c-.745-.111-1.46-.2-2.066-.273-.58-.071-1.015-.126-1.36-.179a35.431,35.431,0,0,1-3.84,1c-1.074.24-2.185.488-3.094.758Z" transform="translate(115.899 77.442)" fill="#313e58" />
        <rect width="169.761" height="168.91" transform="translate(114.96 76.045)" fill="none" />
        <path d="M13.152-5.04a4.671,4.671,0,0,1-1.79,3.885A7.79,7.79,0,0,1,6.424.254,11.783,11.783,0,0,1,1.27-.724V-3.593a14.009,14.009,0,0,0,2.7.939,11.439,11.439,0,0,0,2.66.343A4.231,4.231,0,0,0,9.287-3a2.235,2.235,0,0,0,.857-1.841A2.307,2.307,0,0,0,9.356-6.6a11.85,11.85,0,0,0-3.25-1.714,8.6,8.6,0,0,1-3.58-2.349,4.969,4.969,0,0,1-1.041-3.174,4.445,4.445,0,0,1,1.65-3.656,6.846,6.846,0,0,1,4.431-1.333,13.018,13.018,0,0,1,5.307,1.168l-.965,2.476A11.594,11.594,0,0,0,7.49-16.225a3.39,3.39,0,0,0-2.234.641,2.106,2.106,0,0,0-.762,1.695,2.386,2.386,0,0,0,.3,1.238,3.112,3.112,0,0,0,1,.971,16.965,16.965,0,0,0,2.514,1.206,13.754,13.754,0,0,1,3,1.587,4.668,4.668,0,0,1,1.4,1.663A5,5,0,0,1,13.152-5.04ZM29.3,0,27.446-5.154h-7.1L18.534,0h-3.2l6.944-18.637h3.3L32.524,0ZM26.646-7.77l-1.739-5.053q-.19-.508-.527-1.6t-.463-1.6a28.452,28.452,0,0,1-1,3.415L21.238-7.77Z" transform="translate(181.31 131.934)" fill="#313e58" />
        <path d="M942.672,2639.952a15.525,15.525,0,0,1,6.229,2.969,11.777,11.777,0,0,1,5.354-.029,12.248,12.248,0,0,1,7.58,5.3,8.741,8.741,0,0,1,11.1,9.772,8.136,8.136,0,0,1-9.935,6.167,8.938,8.938,0,0,1-2.491-.969,11.656,11.656,0,0,1-10.966,3.222,12.154,12.154,0,0,1-1.21-.339,14.756,14.756,0,0,1-11.281,1.924,15.5,15.5,0,0,1-8.1-4.714,8.461,8.461,0,0,1-6.578,1.172,8.613,8.613,0,0,1-6.709-9.915,8.135,8.135,0,0,1,9.934-6.166q.207.046.41.1a14.105,14.105,0,0,1,13.28-8.878A15.38,15.38,0,0,1,942.672,2639.952Z" transform="translate(-621.134 -2574.073)" fill="#c0e1e2" />
        <path d="M939.294,2639.073h0a16.063,16.063,0,0,1,9.727,3.307,12.18,12.18,0,0,1,2.607-.282,12.5,12.5,0,0,1,2.737.306,12.689,12.689,0,0,1,7.684,5.211,8.991,8.991,0,0,1,2.236-.281,9.418,9.418,0,0,1,7.766,4.118,8.684,8.684,0,0,1,1.373,6.613,8.354,8.354,0,0,1-3.023,4.915,8.861,8.861,0,0,1-5.464,1.87,9.34,9.34,0,0,1-2.048-.229,9.457,9.457,0,0,1-2.293-.839,12.13,12.13,0,0,1-8.425,3.4,12.477,12.477,0,0,1-2.738-.307c-.344-.077-.69-.171-1.031-.278a15.051,15.051,0,0,1-7.971,2.255,16.05,16.05,0,0,1-11.558-4.948,8.847,8.847,0,0,1-4.555,1.246,9.414,9.414,0,0,1-7.765-4.118,8.683,8.683,0,0,1-1.373-6.613,8.352,8.352,0,0,1,3.022-4.915,8.859,8.859,0,0,1,5.463-1.87,9.338,9.338,0,0,1,2.048.229,14.126,14.126,0,0,1,5.223-6.284A15.019,15.019,0,0,1,939.294,2639.073Zm9.488,4.391-.191-.151a15.062,15.062,0,0,0-9.3-3.24,14.021,14.021,0,0,0-7.8,2.336,13.124,13.124,0,0,0-5.01,6.222l-.163.422-.436-.12c-.129-.035-.259-.068-.386-.1a8.343,8.343,0,0,0-1.831-.206,7.857,7.857,0,0,0-4.845,1.656,7.253,7.253,0,0,0-2.66,4.326,8.12,8.12,0,0,0,6.328,9.329,8.336,8.336,0,0,0,1.829.205,7.83,7.83,0,0,0,4.362-1.306l.359-.239.289.319a15.047,15.047,0,0,0,11.1,4.928,14.041,14.041,0,0,0,7.631-2.223l.2-.13.228.077a11.768,11.768,0,0,0,1.16.325,11.486,11.486,0,0,0,2.519.282,11.127,11.127,0,0,0,7.979-3.365l.271-.278.337.193a8.441,8.441,0,0,0,2.351.915,8.33,8.33,0,0,0,1.829.205,7.858,7.858,0,0,0,4.846-1.656,7.253,7.253,0,0,0,2.661-4.326,8.119,8.119,0,0,0-6.329-9.328,8.333,8.333,0,0,0-1.83-.206,7.969,7.969,0,0,0-2.305.339l-.359.108-.2-.315a11.707,11.707,0,0,0-7.27-5.087,11.488,11.488,0,0,0-2.517-.282,11.174,11.174,0,0,0-2.609.309Z" transform="translate(-621.134 -2574.073)" fill="rgba(0,0,0,0)" />
        <path d="M962.347,2681.541a28.042,28.042,0,0,0,10.694-4.573,22.463,22.463,0,0,0,9.191.044c11.089-2.242,18.268-12.163,16.034-22.159s-13.035-16.282-24.124-14.039q-1.063.215-2.077.522a27.783,27.783,0,0,0-19.366-2.964,27.4,27.4,0,0,0-13.9,7.262,15.916,15.916,0,0,0-11.293-1.806c-7.889,1.6-13.046,8.435-11.516,15.276s9.165,11.1,17.054,9.5q.355-.072.7-.158c3.562,8.3,12.638,13.678,22.8,13.679A29.255,29.255,0,0,0,962.347,2681.541Z" transform="translate(-566.895 -2616.625)" fill="#c0e1e2" />
        <path d="M956.547,2682.625h0a27.5,27.5,0,0,1-14.129-3.8,22.156,22.156,0,0,1-8.958-9.8c-.1.023-.21.046-.315.067a17.353,17.353,0,0,1-3.427.344,15.936,15.936,0,0,1-9.137-2.808,13.148,13.148,0,0,1-3.231-3.229,11.831,11.831,0,0,1-1.846-4.19,12.033,12.033,0,0,1,1.76-9.222,15.772,15.772,0,0,1,10.146-6.653,17.337,17.337,0,0,1,3.428-.345,16.049,16.049,0,0,1,7.887,2.018,27.855,27.855,0,0,1,13.876-7.129,29.836,29.836,0,0,1,5.9-.594,27.616,27.616,0,0,1,13.629,3.508c.625-.182,1.268-.341,1.915-.471a23.312,23.312,0,0,1,4.612-.464,22,22,0,0,1,12.891,4.107,19.084,19.084,0,0,1,4.574,4.7,17.546,17.546,0,0,1,.09,19.651,20.383,20.383,0,0,1-5.776,5.828,22.389,22.389,0,0,1-8.1,3.355,23.331,23.331,0,0,1-4.61.463,22.748,22.748,0,0,1-4.57-.463,28.392,28.392,0,0,1-10.7,4.529A29.817,29.817,0,0,1,956.547,2682.625Zm-22.505-14.766.167.39a21.093,21.093,0,0,0,8.722,9.719,26.5,26.5,0,0,0,13.616,3.658,28.836,28.836,0,0,0,5.7-.574,27.376,27.376,0,0,0,10.5-4.491l.18-.127.215.046a21.727,21.727,0,0,0,4.575.486,22.331,22.331,0,0,0,4.412-.443,21.394,21.394,0,0,0,7.742-3.206,19.385,19.385,0,0,0,5.5-5.543,16.546,16.546,0,0,0-.078-18.544,18.086,18.086,0,0,0-4.336-4.454,21,21,0,0,0-12.3-3.915,22.311,22.311,0,0,0-4.414.444c-.688.139-1.372.311-2.031.51l-.208.063-.188-.108a26.583,26.583,0,0,0-13.316-3.481,28.855,28.855,0,0,0-5.7.574,26.806,26.806,0,0,0-13.645,7.127l-.276.273-.333-.2a15,15,0,0,0-7.707-2.07,16.336,16.336,0,0,0-3.23.325,14.769,14.769,0,0,0-9.5,6.218,11.041,11.041,0,0,0-1.622,8.46,10.835,10.835,0,0,0,1.692,3.837,12.151,12.151,0,0,0,2.987,2.983,14.928,14.928,0,0,0,8.56,2.625,16.335,16.335,0,0,0,3.228-.325c.229-.046.459-.1.683-.153Z" transform="translate(-566.895 -2616.625)" fill="rgba(0,0,0,0)" />
        <rect width="400" height="20.574" transform="translate(0 299.426)" fill="#bfe2e2" />
    </g>
</svg>