<svg xmlns="http://www.w3.org/2000/svg" xmlns:xlink="http://www.w3.org/1999/xlink" width="400" height="320" viewBox="0 0 400 320">
    <defs>
        <clipPath>
            <rect width="399.746" height="200" fill="none" stroke="#5bb3b3" stroke-width="2" />
        </clipPath>
        <clipPath >
            <rect width="218.629" height="297.252" fill="#bfe2e2" />
        </clipPath>
        <clipPath >
            <rect width="400" height="320" />
        </clipPath>
    </defs>
    <g clip-path="url(#e)">
        <rect width="400" height="320" fill="transparent" />
        <g transform="translate(-0.54 48.222)">
            <g clip-path="url(#a)">
                <path d="M397.746,1H0A1,1,0,0,1-1,0,1,1,0,0,1,0-1H397.746a1,1,0,0,1,1,1A1,1,0,0,1,397.746,1Z" transform="translate(1 199)" fill="#5bb3b3" />
                <path d="M397.746,1H0A1,1,0,0,1-1,0,1,1,0,0,1,0-1H397.746a1,1,0,0,1,1,1A1,1,0,0,1,397.746,1Z" transform="translate(1 133)" fill="#5bb3b3" />
                <path d="M397.746,1H0A1,1,0,0,1-1,0,1,1,0,0,1,0-1H397.746a1,1,0,0,1,1,1A1,1,0,0,1,397.746,1Z" transform="translate(1 67)" fill="#5bb3b3" />
                <path d="M397.746,1H0A1,1,0,0,1-1,0,1,1,0,0,1,0-1H397.746a1,1,0,0,1,1,1A1,1,0,0,1,397.746,1Z" transform="translate(1 1)" fill="#5bb3b3" />
                <path d="M0,198.234a1,1,0,0,1-1-1V0A1,1,0,0,1,0-1,1,1,0,0,1,1,0V197.234A1,1,0,0,1,0,198.234Z" transform="translate(59.428 1)" fill="#5bb3b3" />
                <path d="M0,198.234a1,1,0,0,1-1-1V0A1,1,0,0,1,0-1,1,1,0,0,1,1,0V197.234A1,1,0,0,1,0,198.234Z" transform="translate(151.342 1)" fill="#5bb3b3" />
                <path d="M0,198.234a1,1,0,0,1-1-1V0A1,1,0,0,1,0-1,1,1,0,0,1,1,0V197.234A1,1,0,0,1,0,198.234Z" transform="translate(243.257 1)" fill="#5bb3b3" />
                <path d="M0,198.234a1,1,0,0,1-1-1V0A1,1,0,0,1,0-1,1,1,0,0,1,1,0V197.234A1,1,0,0,1,0,198.234Z" transform="translate(335.172 1)" fill="#5bb3b3" />
                <path d="M2-1H19.064a3,3,0,0,1,3,3V8.34a3,3,0,0,1-3,3H2a3,3,0,0,1-3-3V2A3,3,0,0,1,2-1ZM19.064,9.34a1,1,0,0,0,1-1V2a1,1,0,0,0-1-1H2A1,1,0,0,0,1,2V8.34a1,1,0,0,0,1,1Z" transform="translate(94.278 41.738)" fill="#5bb3b3" />
                <path d="M2-1H19.064a3,3,0,0,1,3,3V8.34a3,3,0,0,1-3,3H2a3,3,0,0,1-3-3V2A3,3,0,0,1,2-1ZM19.064,9.34a1,1,0,0,0,1-1V2a1,1,0,0,0-1-1H2A1,1,0,0,0,1,2V8.34a1,1,0,0,0,1,1Z" transform="translate(94.278 108.009)" fill="#5bb3b3" />
                <path d="M2-1H19.064a3,3,0,0,1,3,3V8.34a3,3,0,0,1-3,3H2a3,3,0,0,1-3-3V2A3,3,0,0,1,2-1ZM19.064,9.34a1,1,0,0,0,1-1V2a1,1,0,0,0-1-1H2A1,1,0,0,0,1,2V8.34a1,1,0,0,0,1,1Z" transform="translate(94.278 173)" fill="#5bb3b3" />
                <path d="M2-1H19.064a3,3,0,0,1,3,3V8.34a3,3,0,0,1-3,3H2a3,3,0,0,1-3-3V2A3,3,0,0,1,2-1ZM19.064,9.34a1,1,0,0,0,1-1V2a1,1,0,0,0-1-1H2A1,1,0,0,0,1,2V8.34a1,1,0,0,0,1,1Z" transform="translate(186.193 108.009)" fill="#5bb3b3" />
                <path d="M2-1H19.064a3,3,0,0,1,3,3V8.34a3,3,0,0,1-3,3H2a3,3,0,0,1-3-3V2A3,3,0,0,1,2-1ZM19.064,9.34a1,1,0,0,0,1-1V2a1,1,0,0,0-1-1H2A1,1,0,0,0,1,2V8.34a1,1,0,0,0,1,1Z" transform="translate(186.193 173)" fill="#5bb3b3" />
                <path d="M2-1H19.064a3,3,0,0,1,3,3V8.34a3,3,0,0,1-3,3H2a3,3,0,0,1-3-3V2A3,3,0,0,1,2-1ZM19.064,9.34a1,1,0,0,0,1-1V2a1,1,0,0,0-1-1H2A1,1,0,0,0,1,2V8.34a1,1,0,0,0,1,1Z" transform="translate(186.576 41.738)" fill="#5bb3b3" />
                <path d="M2-1H19.064a3,3,0,0,1,3,3V8.34a3,3,0,0,1-3,3H2a3,3,0,0,1-3-3V2A3,3,0,0,1,2-1ZM19.064,9.34a1,1,0,0,0,1-1V2a1,1,0,0,0-1-1H2A1,1,0,0,0,1,2V8.34a1,1,0,0,0,1,1Z" transform="translate(278.874 108.009)" fill="#5bb3b3" />
                <path d="M2-1H19.064a3,3,0,0,1,3,3V8.34a3,3,0,0,1-3,3H2a3,3,0,0,1-3-3V2A3,3,0,0,1,2-1ZM19.064,9.34a1,1,0,0,0,1-1V2a1,1,0,0,0-1-1H2A1,1,0,0,0,1,2V8.34a1,1,0,0,0,1,1Z" transform="translate(278.874 173)" fill="#5bb3b3" />
                <path d="M2-1H19.064a3,3,0,0,1,3,3V8.34a3,3,0,0,1-3,3H2a3,3,0,0,1-3-3V2A3,3,0,0,1,2-1ZM19.064,9.34a1,1,0,0,0,1-1V2a1,1,0,0,0-1-1H2A1,1,0,0,0,1,2V8.34a1,1,0,0,0,1,1Z" transform="translate(279.257 41.738)" fill="#5bb3b3" />
                <path d="M2-1H19.064a3,3,0,0,1,3,3V8.34a3,3,0,0,1-3,3H2a3,3,0,0,1-3-3V2A3,3,0,0,1,2-1ZM19.064,9.34a1,1,0,0,0,1-1V2a1,1,0,0,0-1-1H2A1,1,0,0,0,1,2V8.34a1,1,0,0,0,1,1Z" transform="translate(368.874 108.009)" fill="#5bb3b3" />
                <path d="M2-1H19.064a3,3,0,0,1,3,3V8.34a3,3,0,0,1-3,3H2a3,3,0,0,1-3-3V2A3,3,0,0,1,2-1ZM19.064,9.34a1,1,0,0,0,1-1V2a1,1,0,0,0-1-1H2A1,1,0,0,0,1,2V8.34a1,1,0,0,0,1,1Z" transform="translate(368.874 173)" fill="#5bb3b3" />
                <path d="M2-1H19.064a3,3,0,0,1,3,3V8.34a3,3,0,0,1-3,3H2a3,3,0,0,1-3-3V2A3,3,0,0,1,2-1ZM19.064,9.34a1,1,0,0,0,1-1V2a1,1,0,0,0-1-1H2A1,1,0,0,0,1,2V8.34a1,1,0,0,0,1,1Z" transform="translate(369.257 41.738)" fill="#5bb3b3" />
                <path d="M2-1H19.064a3,3,0,0,1,3,3V8.34a3,3,0,0,1-3,3H2a3,3,0,0,1-3-3V2A3,3,0,0,1,2-1ZM19.064,9.34a1,1,0,0,0,1-1V2a1,1,0,0,0-1-1H2A1,1,0,0,0,1,2V8.34a1,1,0,0,0,1,1Z" transform="translate(6.577 108.009)" fill="#5bb3b3" />
                <path d="M2-1H19.064a3,3,0,0,1,3,3V8.34a3,3,0,0,1-3,3H2a3,3,0,0,1-3-3V2A3,3,0,0,1,2-1ZM19.064,9.34a1,1,0,0,0,1-1V2a1,1,0,0,0-1-1H2A1,1,0,0,0,1,2V8.34a1,1,0,0,0,1,1Z" transform="translate(6.577 173)" fill="#5bb3b3" />
                <path d="M2-1H19.064a3,3,0,0,1,3,3V8.34a3,3,0,0,1-3,3H2a3,3,0,0,1-3-3V2A3,3,0,0,1,2-1ZM19.064,9.34a1,1,0,0,0,1-1V2a1,1,0,0,0-1-1H2A1,1,0,0,0,1,2V8.34a1,1,0,0,0,1,1Z" transform="translate(6.96 41.738)" fill="#5bb3b3" />
            </g>
        </g>
        <g transform="translate(251.271 56.625)">
            <g clip-path="url(#b)">
                <path d="M122.073,61.668c-1.975-9.78-5.032-23.468-11.963-30.892-4.992,3.89,4.941,20.851,6.4,26.248A153.825,153.825,0,0,1,121.436,90c1.069,22.851-1.821,45.673-3.983,68.447q-3.379,35.6-4.394,71.378l6.117.16c3.025-41.02,5.957-82.084,6.134-123.214.065-15.1-.251-30.3-3.237-45.1" transform="translate(19.443 5.504)" fill="#bfe2e2" />
                <path d="M123.433,193.288c-1.947-14.233-7.226-27.772-12.634-41.083Q97.221,118.783,82.213,85.966l-3.15-4.088c5,22.484,18.655,41.963,27.244,63.334,9.538,23.731,12.7,49.46,15.778,74.849a2.645,2.645,0,0,0,2.38-.4c.083-8.806.163-17.65-1.031-26.375" transform="translate(14.14 14.643)" fill="#bfe2e2" />
                <path d="M118.233,192.489a19.137,19.137,0,0,0-1.872-5.326,46.11,46.11,0,0,0-3.11-4,35.875,35.875,0,0,1-4.053-7.949,262.253,262.253,0,0,0-18.343-35.006c-1.958-3.211-4.6-6.78-8.363-6.782a81.74,81.74,0,0,1,7.621,10.137c1.306,1.938,2.612,3.877,3.842,5.865a105.945,105.945,0,0,1,8.39,16.96c4.048,10.282,6.757,21.031,9.121,31.808a27.961,27.961,0,0,1,1.056,7.318c-.071,1.533-.746,3.356-.407,4.878.4,1.769,1.424,2.286,3.069,2.862.829.291,8.409,1.225,8.468,1.465q-2.709-11.115-5.419-22.233" transform="translate(14.753 23.863)" fill="#bfe2e2" />
                <path d="M135.225,51.307c-5.17.156-9.857,3.449-12.873,7.652s-4.6,9.243-5.939,14.242a186.6,186.6,0,0,0-5.175,27.565c-1.578,14.238-1.512,28.6-1.444,42.926q.2,42.1.4,84.194l13.708,9.032c-1.786-8.035-.357-16.417-.991-24.624-.639-8.278-3.361-16.227-5.361-24.285a166.942,166.942,0,0,1-4.073-24.591c-2.959-31.477,1.491-63.34,10.054-93.776,2.029-7.207,4.931-15.127,11.7-18.336" transform="translate(19.631 9.176)" fill="#bfe2e2" />
                <path d="M196.386,75l-9.188-4.9c-3.844-2.051-8.365-4.147-12.374-2.445-1.437.611-3.093,1.675-4.384.8a2.413,2.413,0,0,1-.4-3.2,6.112,6.112,0,0,1,2.83-2.084,31.546,31.546,0,0,1,25.812.472c-3.133-28.067-18.7-42.014-30.774-42.539-20.768-.9-27.314,36.8-27.314,36.8-2.031-8.352-9.13-8.646-13.092-9.255-11.612-1.787-20.419,9.336-18.737,41.987a54.726,54.726,0,0,0,.624,5.919,35.74,35.74,0,0,1,7.731-4.37c7.8-3.211,16.347-4.025,24.746-4.8a9.2,9.2,0,0,1,5.042.48c-3.064,2.53-7.259,3.011-11.085,4.082-9.621,2.7-17.546,10.135-21.613,19.22,6.515,12.412,17.7,19.953,27.525,24.427a52.784,52.784,0,0,1-1.991-10.834,32.05,32.05,0,0,1,14.249-28,102.03,102.03,0,0,0-4.932,16.485,51.518,51.518,0,0,0,2.1,25.958,69.959,69.959,0,0,0,9.977,2.451s13.092-2.258,18.962,4.966a232.789,232.789,0,0,0,12.6-32.266,49.686,49.686,0,0,0-13.35-8.766,19.406,19.406,0,0,1-5.772-3.519c-1.587-1.616-2.5-4.135-1.56-6.2,1.1-2.4,4.159-3.2,6.8-3.052,6.9.4,12.743,5.226,16.725,10.974A132.858,132.858,0,0,0,199.213,76.6c-.937-.574-1.893-1.107-2.827-1.606" transform="translate(19.415 3.77)" fill="#bfe2e2" />
                <path d="M105.882,2.525a1.687,1.687,0,0,0-.4.692,24.537,24.537,0,0,0-.888,8.5,1.3,1.3,0,0,1-.08.611,1.284,1.284,0,0,1-.738.538c-2.6,1.036-5.577,1.932-6.956,4.365.969-2.089,1.83-2.889,1.858-5.2.031-2.5-.2-4.856.464-7.311a11.63,11.63,0,0,1,1.316-3.038c-.133-.018-.261-.04-.394-.058-4.382-.6-8.51-1.006-12.414-1.264-.039.039-.091.065-.127.107a5.835,5.835,0,0,0-1.009,2.7C86.261,4.348,85.77,8.49,83.906,7.8c-1.661-.615-.938-5.172-.376-6.33a5.8,5.8,0,0,1,.895-1.3C52.331-1.324,37.311,7.71,37.311,7.71S42.1,5.431,49.2,23.031a48.049,48.049,0,0,1,13.511-6.165c10.723-3.034,12.832,2.077,12.979,3.711-4.072-1.472-16.927,3.7-20.993,5.192a17.618,17.618,0,0,0-3.715,1.975c.034.1.068.185.1.283,1.792,5.076,5.9,9.45,11.3,13.135A36.519,36.519,0,0,1,70.813,31.6a26.448,26.448,0,0,1,9.134-5.192,13.715,13.715,0,0,1,10.366.8c.594.331,1.22.839,1.174,1.5-.029.417-.211.951-.617,1.082-13.887,4.468-16.85,10.265-16.9,17.553a113.366,113.366,0,0,0,18.675,5.93c-.525-1.4-1.053-2.8-1.567-4.212a3.8,3.8,0,0,1-.306-2.5,3.626,3.626,0,0,1,1.173-1.455,12.8,12.8,0,0,1,3.948-2.523,5.426,5.426,0,0,1,4.554.257,2.444,2.444,0,0,1,1.093,1.207,3.217,3.217,0,0,1-.15,2.037c-.892,2.821-2.375,5.515-3.092,8.349,11.668,2.128,21.694,2.26,24.793.451,8.127-4.74-9.707-13.77-9.707-13.77,29.571,6.321,36.8.451,40.632-3.837,9.134-10.209-9.224-28.033-48.134-34.756" transform="translate(6.673 0)" fill="#bfe2e2" />
                <path d="M157.3,130.963l-1.807.677s-6.321-6.546-17.834,0a12.289,12.289,0,0,0-5.98,8.014,9.286,9.286,0,0,1,3.638-1.25,20.427,20.427,0,0,1,6.435.46c1.089.209,2.413.691,2.511,1.8a1.7,1.7,0,0,1-.916,1.543,3.672,3.672,0,0,1-1.834.383,9.161,9.161,0,0,1-2.808-.446c-.816-.265-1.595-.645-2.432-.831a7.42,7.42,0,0,0-4.968.883c-.493,7.683,4.547,16.392,12.675,18.569,12.642,3.386,15.35,17.832,13.77,9.029s20.541-8.8,20.769-20.993S157.3,130.963,157.3,130.963" transform="translate(23.478 23.022)" fill="#bfe2e2" />
                <path d="M87.384,63.051s3.328-3.16,1.747-6.095c-1.149-3.1-10.508-3.367-22.01-2.369a50.442,50.442,0,0,1,7.96,6.271,7.293,7.293,0,0,1-5.572.945,27.626,27.626,0,0,1-5.465-1.937A66.822,66.822,0,0,0,52.7,56.29c-5.216.752-10.381,1.621-15.028,2.487q6.141,1.181,12.159,2.919c1.91.556,4.253,1.87,3.805,3.806-4.285-.157-8.294-2-12.374-3.316a58.589,58.589,0,0,0-9.756-2.2C26.495,61.023,22.6,61.97,20.734,62.6-3.42,70.726.191,83.818.191,83.818s0-9.707,11.287-4.966a207.723,207.723,0,0,0,19.465,9.525A67.7,67.7,0,0,0,37.51,78.029,6.863,6.863,0,0,1,39,75.889a2.25,2.25,0,0,1,2.431-.43c1.015.545,1.168,1.925,1.094,3.074a19.765,19.765,0,0,1-1.707,6.838c-.892,1.976-2.105,3.809-3.173,5.7A149.792,149.792,0,0,0,58.9,97.437,85.159,85.159,0,0,0,63.35,76.544l2.519.555a1.91,1.91,0,0,1,1.054.474,1.8,1.8,0,0,1,.355.825,24.237,24.237,0,0,1-.467,11.6,58.294,58.294,0,0,1-3.051,8.4,95.723,95.723,0,0,0,18.933,1.51c.146-.691.306-1.378.5-2.057a15.872,15.872,0,0,0,.924-4.4,11.785,11.785,0,0,0-1.91-5.532,79.724,79.724,0,0,0-7.263-10.739,4.584,4.584,0,0,1-1.2-2.233c-.179-1.624,1.641-2.967,3.256-2.721,1.542.235,2.709,1.469,3.749,2.63l4.139,4.623a44.355,44.355,0,0,1,4.274,5.3,22.5,22.5,0,0,1,3.453,14.148,38.784,38.784,0,0,0,16.167-6.449,25.652,25.652,0,0,0-.9-3.192,14.724,14.724,0,0,0-6.362-8.11c-2.382-1.311-5.149-1.685-7.749-2.481a24.384,24.384,0,0,1-7.233-3.624c-1.048-.766-2.135-2.087-1.491-3.212.62-1.082,2.214-.89,3.414-.552L100.1,74.582a15.872,15.872,0,0,1,4.707,1.892,13.466,13.466,0,0,1,4.036,5.061,43.105,43.105,0,0,1,3.248,8.039,20.314,20.314,0,0,0,5.034-8.916c5.868-22.574-29.739-17.607-29.739-17.607" transform="translate(0 9.67)" fill="#bfe2e2" />
                <path d="M79.417,127.566s5.083-24.6-13.071-15.8-29.772,36.117-23.478,54.4c5.6-8.873,16.051-13.267,26.288-16.513a7.418,7.418,0,0,0-.731-1.634,11.3,11.3,0,0,0-4.1-3.4,4.522,4.522,0,0,1,5.176.725,6.666,6.666,0,0,1,1.689,3.682c4.839-1.476,9.544-2.747,13.592-4.16l-.547-.982a8.372,8.372,0,0,0-2.492-3.137c-1.507-.974-3.594-.953-4.84-2.243a.734.734,0,0,1-.244-.447.762.762,0,0,1,.3-.546c1.669-1.6,4.252-1.634,6.565-1.568,1.547.045,3.317.2,4.237,1.444a6.185,6.185,0,0,1,.77,3.229,15.9,15.9,0,0,0,.451,2.608c4.2-1.9,7.143-4.2,7.87-7.529,2.9-13.319-1.937-12.867-17.428-8.127" transform="translate(7.358 19.648)" fill="#bfe2e2" />
                <path d="M81.8,238.351a23.646,23.646,0,0,0,23.577,23.577H144.3a23.646,23.646,0,0,0,23.578-23.577V197.518H81.8Z" transform="translate(14.629 35.325)" fill="#bfe2e2" />
                <path d="M154.283,138.272c1.522,1.316.022,3.806-1.4,5.233-13.857,13.853-22.224,32.589-28.668,51.444a6.883,6.883,0,0,0-.541,3.078c.47,3.534,3.806,10.9.072,14.315-2.423,2.216-4.141,0-4.816-3.016-1.613-7.2,3.8-20.231,6.205-26.892a114.417,114.417,0,0,1,12.106-24.151c1.222-1.851,15.666-21.207,17.046-20.011" transform="translate(21.216 24.719)" fill="#bfe2e2" />
            </g>
        </g>
        <g transform="translate(-133.729 56.625)">
            <g clip-path="url(#b)">
                <path d="M122.073,61.668c-1.975-9.78-5.032-23.468-11.963-30.892-4.992,3.89,4.941,20.851,6.4,26.248A153.825,153.825,0,0,1,121.436,90c1.069,22.851-1.821,45.673-3.983,68.447q-3.379,35.6-4.394,71.378l6.117.16c3.025-41.02,5.957-82.084,6.134-123.214.065-15.1-.251-30.3-3.237-45.1" transform="translate(19.443 5.504)" fill="#bfe2e2" />
                <path d="M123.433,193.288c-1.947-14.233-7.226-27.772-12.634-41.083Q97.221,118.783,82.213,85.966l-3.15-4.088c5,22.484,18.655,41.963,27.244,63.334,9.538,23.731,12.7,49.46,15.778,74.849a2.645,2.645,0,0,0,2.38-.4c.083-8.806.163-17.65-1.031-26.375" transform="translate(14.14 14.643)" fill="#bfe2e2" />
                <path d="M118.233,192.489a19.137,19.137,0,0,0-1.872-5.326,46.11,46.11,0,0,0-3.11-4,35.875,35.875,0,0,1-4.053-7.949,262.253,262.253,0,0,0-18.343-35.006c-1.958-3.211-4.6-6.78-8.363-6.782a81.74,81.74,0,0,1,7.621,10.137c1.306,1.938,2.612,3.877,3.842,5.865a105.945,105.945,0,0,1,8.39,16.96c4.048,10.282,6.757,21.031,9.121,31.808a27.961,27.961,0,0,1,1.056,7.318c-.071,1.533-.746,3.356-.407,4.878.4,1.769,1.424,2.286,3.069,2.862.829.291,8.409,1.225,8.468,1.465q-2.709-11.115-5.419-22.233" transform="translate(14.753 23.863)" fill="#bfe2e2" />
                <path d="M135.225,51.307c-5.17.156-9.857,3.449-12.873,7.652s-4.6,9.243-5.939,14.242a186.6,186.6,0,0,0-5.175,27.565c-1.578,14.238-1.512,28.6-1.444,42.926q.2,42.1.4,84.194l13.708,9.032c-1.786-8.035-.357-16.417-.991-24.624-.639-8.278-3.361-16.227-5.361-24.285a166.942,166.942,0,0,1-4.073-24.591c-2.959-31.477,1.491-63.34,10.054-93.776,2.029-7.207,4.931-15.127,11.7-18.336" transform="translate(19.631 9.176)" fill="#bfe2e2" />
                <path d="M196.386,75l-9.188-4.9c-3.844-2.051-8.365-4.147-12.374-2.445-1.437.611-3.093,1.675-4.384.8a2.413,2.413,0,0,1-.4-3.2,6.112,6.112,0,0,1,2.83-2.084,31.546,31.546,0,0,1,25.812.472c-3.133-28.067-18.7-42.014-30.774-42.539-20.768-.9-27.314,36.8-27.314,36.8-2.031-8.352-9.13-8.646-13.092-9.255-11.612-1.787-20.419,9.336-18.737,41.987a54.726,54.726,0,0,0,.624,5.919,35.74,35.74,0,0,1,7.731-4.37c7.8-3.211,16.347-4.025,24.746-4.8a9.2,9.2,0,0,1,5.042.48c-3.064,2.53-7.259,3.011-11.085,4.082-9.621,2.7-17.546,10.135-21.613,19.22,6.515,12.412,17.7,19.953,27.525,24.427a52.784,52.784,0,0,1-1.991-10.834,32.05,32.05,0,0,1,14.249-28,102.03,102.03,0,0,0-4.932,16.485,51.518,51.518,0,0,0,2.1,25.958,69.959,69.959,0,0,0,9.977,2.451s13.092-2.258,18.962,4.966a232.789,232.789,0,0,0,12.6-32.266,49.686,49.686,0,0,0-13.35-8.766,19.406,19.406,0,0,1-5.772-3.519c-1.587-1.616-2.5-4.135-1.56-6.2,1.1-2.4,4.159-3.2,6.8-3.052,6.9.4,12.743,5.226,16.725,10.974A132.858,132.858,0,0,0,199.213,76.6c-.937-.574-1.893-1.107-2.827-1.606" transform="translate(19.415 3.77)" fill="#bfe2e2" />
                <path d="M105.882,2.525a1.687,1.687,0,0,0-.4.692,24.537,24.537,0,0,0-.888,8.5,1.3,1.3,0,0,1-.08.611,1.284,1.284,0,0,1-.738.538c-2.6,1.036-5.577,1.932-6.956,4.365.969-2.089,1.83-2.889,1.858-5.2.031-2.5-.2-4.856.464-7.311a11.63,11.63,0,0,1,1.316-3.038c-.133-.018-.261-.04-.394-.058-4.382-.6-8.51-1.006-12.414-1.264-.039.039-.091.065-.127.107a5.835,5.835,0,0,0-1.009,2.7C86.261,4.348,85.77,8.49,83.906,7.8c-1.661-.615-.938-5.172-.376-6.33a5.8,5.8,0,0,1,.895-1.3C52.331-1.324,37.311,7.71,37.311,7.71S42.1,5.431,49.2,23.031a48.049,48.049,0,0,1,13.511-6.165c10.723-3.034,12.832,2.077,12.979,3.711-4.072-1.472-16.927,3.7-20.993,5.192a17.618,17.618,0,0,0-3.715,1.975c.034.1.068.185.1.283,1.792,5.076,5.9,9.45,11.3,13.135A36.519,36.519,0,0,1,70.813,31.6a26.448,26.448,0,0,1,9.134-5.192,13.715,13.715,0,0,1,10.366.8c.594.331,1.22.839,1.174,1.5-.029.417-.211.951-.617,1.082-13.887,4.468-16.85,10.265-16.9,17.553a113.366,113.366,0,0,0,18.675,5.93c-.525-1.4-1.053-2.8-1.567-4.212a3.8,3.8,0,0,1-.306-2.5,3.626,3.626,0,0,1,1.173-1.455,12.8,12.8,0,0,1,3.948-2.523,5.426,5.426,0,0,1,4.554.257,2.444,2.444,0,0,1,1.093,1.207,3.217,3.217,0,0,1-.15,2.037c-.892,2.821-2.375,5.515-3.092,8.349,11.668,2.128,21.694,2.26,24.793.451,8.127-4.74-9.707-13.77-9.707-13.77,29.571,6.321,36.8.451,40.632-3.837,9.134-10.209-9.224-28.033-48.134-34.756" transform="translate(6.673 0)" fill="#bfe2e2" />
                <path d="M157.3,130.963l-1.807.677s-6.321-6.546-17.834,0a12.289,12.289,0,0,0-5.98,8.014,9.286,9.286,0,0,1,3.638-1.25,20.427,20.427,0,0,1,6.435.46c1.089.209,2.413.691,2.511,1.8a1.7,1.7,0,0,1-.916,1.543,3.672,3.672,0,0,1-1.834.383,9.161,9.161,0,0,1-2.808-.446c-.816-.265-1.595-.645-2.432-.831a7.42,7.42,0,0,0-4.968.883c-.493,7.683,4.547,16.392,12.675,18.569,12.642,3.386,15.35,17.832,13.77,9.029s20.541-8.8,20.769-20.993S157.3,130.963,157.3,130.963" transform="translate(23.478 23.022)" fill="#bfe2e2" />
                <path d="M87.384,63.051s3.328-3.16,1.747-6.095c-1.149-3.1-10.508-3.367-22.01-2.369a50.442,50.442,0,0,1,7.96,6.271,7.293,7.293,0,0,1-5.572.945,27.626,27.626,0,0,1-5.465-1.937A66.822,66.822,0,0,0,52.7,56.29c-5.216.752-10.381,1.621-15.028,2.487q6.141,1.181,12.159,2.919c1.91.556,4.253,1.87,3.805,3.806-4.285-.157-8.294-2-12.374-3.316a58.589,58.589,0,0,0-9.756-2.2C26.495,61.023,22.6,61.97,20.734,62.6-3.42,70.726.191,83.818.191,83.818s0-9.707,11.287-4.966a207.723,207.723,0,0,0,19.465,9.525A67.7,67.7,0,0,0,37.51,78.029,6.863,6.863,0,0,1,39,75.889a2.25,2.25,0,0,1,2.431-.43c1.015.545,1.168,1.925,1.094,3.074a19.765,19.765,0,0,1-1.707,6.838c-.892,1.976-2.105,3.809-3.173,5.7A149.792,149.792,0,0,0,58.9,97.437,85.159,85.159,0,0,0,63.35,76.544l2.519.555a1.91,1.91,0,0,1,1.054.474,1.8,1.8,0,0,1,.355.825,24.237,24.237,0,0,1-.467,11.6,58.294,58.294,0,0,1-3.051,8.4,95.723,95.723,0,0,0,18.933,1.51c.146-.691.306-1.378.5-2.057a15.872,15.872,0,0,0,.924-4.4,11.785,11.785,0,0,0-1.91-5.532,79.724,79.724,0,0,0-7.263-10.739,4.584,4.584,0,0,1-1.2-2.233c-.179-1.624,1.641-2.967,3.256-2.721,1.542.235,2.709,1.469,3.749,2.63l4.139,4.623a44.355,44.355,0,0,1,4.274,5.3,22.5,22.5,0,0,1,3.453,14.148,38.784,38.784,0,0,0,16.167-6.449,25.652,25.652,0,0,0-.9-3.192,14.724,14.724,0,0,0-6.362-8.11c-2.382-1.311-5.149-1.685-7.749-2.481a24.384,24.384,0,0,1-7.233-3.624c-1.048-.766-2.135-2.087-1.491-3.212.62-1.082,2.214-.89,3.414-.552L100.1,74.582a15.872,15.872,0,0,1,4.707,1.892,13.466,13.466,0,0,1,4.036,5.061,43.105,43.105,0,0,1,3.248,8.039,20.314,20.314,0,0,0,5.034-8.916c5.868-22.574-29.739-17.607-29.739-17.607" transform="translate(0 9.67)" fill="#bfe2e2" />
                <path d="M79.417,127.566s5.083-24.6-13.071-15.8-29.772,36.117-23.478,54.4c5.6-8.873,16.051-13.267,26.288-16.513a7.418,7.418,0,0,0-.731-1.634,11.3,11.3,0,0,0-4.1-3.4,4.522,4.522,0,0,1,5.176.725,6.666,6.666,0,0,1,1.689,3.682c4.839-1.476,9.544-2.747,13.592-4.16l-.547-.982a8.372,8.372,0,0,0-2.492-3.137c-1.507-.974-3.594-.953-4.84-2.243a.734.734,0,0,1-.244-.447.762.762,0,0,1,.3-.546c1.669-1.6,4.252-1.634,6.565-1.568,1.547.045,3.317.2,4.237,1.444a6.185,6.185,0,0,1,.77,3.229,15.9,15.9,0,0,0,.451,2.608c4.2-1.9,7.143-4.2,7.87-7.529,2.9-13.319-1.937-12.867-17.428-8.127" transform="translate(7.358 19.648)" fill="#bfe2e2" />
                <path d="M81.8,238.351a23.646,23.646,0,0,0,23.577,23.577H144.3a23.646,23.646,0,0,0,23.578-23.577V197.518H81.8Z" transform="translate(14.629 35.325)" fill="#bfe2e2" />
                <path d="M154.283,138.272c1.522,1.316.022,3.806-1.4,5.233-13.857,13.853-22.224,32.589-28.668,51.444a6.883,6.883,0,0,0-.541,3.078c.47,3.534,3.806,10.9.072,14.315-2.423,2.216-4.141,0-4.816-3.016-1.613-7.2,3.8-20.231,6.205-26.892a114.417,114.417,0,0,1,12.106-24.151c1.222-1.851,15.666-21.207,17.046-20.011" transform="translate(21.216 24.719)" fill="#bfe2e2" />
            </g>
        </g>
        <path d="M83.7,187.133a1.888,1.888,0,0,1-.416-.045c-1.711-.376-42.219-9.913-68.256-70.419C.406,82.7.01,28.987,0,26.716a1.931,1.931,0,0,1,1.373-1.856L83.135.084a1.926,1.926,0,0,1,1.119,0l81.764,24.777a1.931,1.931,0,0,1,1.373,1.856c-.01,2.27-.406,55.984-15.023,89.953-26.038,60.505-66.546,70.043-68.258,70.419a1.885,1.885,0,0,1-.415.045" transform="translate(115.305 70.091)" fill="#acb1bc" />
        <path d="M81.734,174.831a1.776,1.776,0,0,1-.249-.015c-1.458-.189-36-5.277-59.727-61.56C8.478,81.759,6.875,33.191,6.813,31.138a1.931,1.931,0,0,1,1.351-1.9L81.154,6.263a1.914,1.914,0,0,1,1.159,0l72.992,22.975a1.932,1.932,0,0,1,1.351,1.9c-.062,2.053-1.668,50.622-14.945,82.118-23.729,56.283-58.271,61.371-59.73,61.56a1.757,1.757,0,0,1-.247.015" transform="translate(117.266 71.867)" fill="#7a8293" />
        <path d="M78.258,157.212a1.916,1.916,0,0,1-.57-.086c-1.211-.373-29.829-9.656-48.2-52.334C19.178,80.824,18.9,38.762,18.891,36.984a1.931,1.931,0,0,1,1.388-1.861L77.713,18.252a1.938,1.938,0,0,1,1.07-.006l59.668,16.871a1.932,1.932,0,0,1,1.4,1.966c-.1,1.777-2.537,43.787-12.83,67.709-18.366,42.678-46.986,51.961-48.2,52.334a1.915,1.915,0,0,1-.57.086" transform="translate(120.742 75.32)" fill="#ffd964" />
        <path d="M-740.533-1599.02l-12.3-15.432,86.277-86.03,12.572,3.71v13.724Z" transform="translate(912 1809)" fill="#acb1bc" />
        <path d="M41.6,27.937a188.292,188.292,0,0,0,5.231,50.481,209.559,209.559,0,0,0,6.888,22.113L39.23,116.155l12,16.283L62.039,120.8c-3.062,7.213,15.945,31.51,15.945,31.51s-14.625-3.28-29.365-21.814c-8.656-10.884-13.9-17.082-20.3-36.106-7.34-21.785-7.924-60.164-7.924-60.164Z" transform="translate(121.173 78.13)" fill="#313e58" opacity="0.174" />
        <rect width="167.39" height="187.133" transform="translate(115.305 70.09)" fill="none" />
        <path d="M78.258,157.212a1.916,1.916,0,0,1-.57-.086c-1.211-.373-29.829-9.656-48.2-52.334C19.178,80.824,18.9,38.762,18.891,36.984a1.931,1.931,0,0,1,1.388-1.861L77.713,18.252a1.938,1.938,0,0,1,1.07-.006l59.668,16.871a1.932,1.932,0,0,1,1.4,1.966c-.1,1.777-2.537,43.787-12.83,67.709-18.366,42.678-46.986,51.961-48.2,52.334a1.915,1.915,0,0,1-.57.086M22.775,38.416c.147,7.682,1.311,44.038,10.266,64.849,16.209,37.666,41.128,48.422,45.217,49.966,4.089-1.544,29.009-12.3,45.218-49.966,8.944-20.78,11.875-56.97,12.422-64.855L78.268,22.115Z" transform="translate(120.742 75.32)" fill="#313e58" />
        <rect width="120.265" height="3.863" transform="translate(159.038 192.92) rotate(-45)" fill="#313e58" />
        <rect width="120.71" height="3.862" transform="translate(170.391 208.846) rotate(-44.622)" fill="#313e58" />
        <rect width="167.39" height="187.133" transform="translate(115.305 70.09)" fill="none" />
    </g>
</svg>