<svg xmlns="http://www.w3.org/2000/svg" xmlns:xlink="http://www.w3.org/1999/xlink" width="400" height="320" viewBox="0 0 400 320">
    <defs>
        <clipPath >
            <rect width="200" height="31.754" fill="none" />
        </clipPath>
        <clipPath >
            <rect width="400" height="320" />
        </clipPath>
    </defs>
    <g clip-path="url(#c)">
        <rect width="400" height="320" fill="transparent" />
        <path d="M-1357.349-4619.759a1,1,0,0,1-1-1v-199.305l.685-.227,52.66-17.455v47.571a1,1,0,0,1-1,1,1,1,0,0,1-1-1v-44.8l-49.345,16.357v197.861A1,1,0,0,1-1357.349-4619.759Z" transform="translate(1664.523 4864.832)" fill="#5bb3b3" />
        <path d="M11.516,138.9H1.135A2.138,2.138,0,0,1-1,136.768V123.006a2.138,2.138,0,0,1,2.135-2.136H11.516a2.138,2.138,0,0,1,2.136,2.136v13.762A2.138,2.138,0,0,1,11.516,138.9ZM1.135,122.87a.134.134,0,0,0-.135.136v13.762a.134.134,0,0,0,.135.136H11.516a.135.135,0,0,0,.136-.136V123.006a.135.135,0,0,0-.136-.136Z" transform="translate(378.816 41.979)" fill="#5bb3b3" />
        <path d="M11.516,138.9H1.135A2.138,2.138,0,0,1-1,136.768V123.006a2.138,2.138,0,0,1,2.135-2.136H11.516a2.138,2.138,0,0,1,2.136,2.136v13.762A2.138,2.138,0,0,1,11.516,138.9ZM1.135,122.87a.134.134,0,0,0-.135.136v13.762a.134.134,0,0,0,.135.136H11.516a.135.135,0,0,0,.136-.136V123.006a.135.135,0,0,0-.136-.136Z" transform="translate(357.491 41.979)" fill="#5bb3b3" />
        <path d="M-1347.806-4798.823a1,1,0,0,1-1-1v-7.91a1,1,0,0,1,1-1,1,1,0,0,1,1,1v7.91A1,1,0,0,1-1347.806-4798.823Z" transform="translate(1665.55 4945.876)" fill="#5bb3b3" />
        <path d="M11.516,138.9H1.135A2.138,2.138,0,0,1-1,136.768V123.006a2.138,2.138,0,0,1,2.135-2.136H11.516a2.138,2.138,0,0,1,2.136,2.136v13.762A2.138,2.138,0,0,1,11.516,138.9ZM1.135,122.87a.134.134,0,0,0-.135.136v13.762a.134.134,0,0,0,.135.136H11.516a.135.135,0,0,0,.136-.136V123.006a.135.135,0,0,0-.136-.136Z" transform="translate(336.166 11.979)" fill="#5bb3b3" />
        <path d="M-1323.865-4674.068a1,1,0,0,1-1-1v-108.186a1,1,0,0,1,1-1,1,1,0,0,1,1,1v108.186A1,1,0,0,1-1323.865-4674.068Z" transform="translate(1649.357 4872.273)" fill="#5bb3b3" />
        <path d="M52.62,77.037H74.243c7.636,0,13.883-7.346,13.883-16.326V58.946c0-6.169-2.949-11.568-7.272-14.342A23.125,23.125,0,0,0,81,42.166C81,31.443,73.6,22.752,64.487,22.752c-.17,0-.335.022-.5.029.072-.733.117-1.475.117-2.23C64.1,9.828,56.708,1.137,47.59,1.137S31.08,9.828,31.08,20.551c0,.19.02.377.025.565-8.24,1.092-14.648,9.3-14.648,19.284,0,.752.045,1.491.116,2.22H15.02c-7.636,0-13.883,7.346-13.883,16.326v1.766c0,8.979,6.247,16.326,13.883,16.326H41.035" transform="translate(283.113 137.122)" fill="#bfe2e2" />
        <g transform="translate(-36.814 -17.509)">
            <path d="M35.116,90.961H35.1a1,1,0,0,1-.985-1.015c0-.274.4-27.483,0-37.345q0-.024,0-.047a30.912,30.912,0,0,0-1.441-9.4c-1.328-3.935-3.394-6.453-6.141-7.484a1,1,0,1,1,.7-1.873A10.6,10.6,0,0,1,31.9,37.332a17.622,17.622,0,0,1,2.668,5.179,32.444,32.444,0,0,1,1.546,10.033c.4,9.937,0,37.158,0,37.432A1,1,0,0,1,35.116,90.961Z" transform="translate(326.023 173.03)" fill="#5bb3b3" />
            <path d="M41.829,89.324a1,1,0,0,1-1-1V50.962a12.271,12.271,0,0,1,2.565-8.212,11.1,11.1,0,0,1,7.919-3.695,1,1,0,0,1,.166,1.993c-3.9.325-6.534,2.037-7.831,5.088a11.149,11.149,0,0,0-.823,4.7c0,.027,0,.057,0,.084v37.4A1,1,0,0,1,41.829,89.324Z" transform="translate(330.617 174.667)" fill="#5bb3b3" />
            <path d="M37.745,39.708a1,1,0,0,1-.946-.677,13.851,13.851,0,0,0-4.934-7.1,8.025,8.025,0,0,0-2.971-1.37H28.9l.293-1.978A9.716,9.716,0,0,1,32.9,30.219a13.526,13.526,0,0,1,3.087,2.97,18.313,18.313,0,0,1,2.7,5.2,1,1,0,0,1-.946,1.324Z" transform="translate(326.689 171.444)" fill="#5bb3b3" />
            <path d="M0,12.742a1,1,0,0,1-1-1V0A1,1,0,0,1,0-1,1,1,0,0,1,1,0V11.742A1,1,0,0,1,0,12.742Z" transform="translate(369.434 191.679)" fill="#5bb3b3" />
            <path d="M38.691,44.941a1,1,0,0,1-.985-1.181,11.015,11.015,0,0,1,1.888-4.106A11.9,11.9,0,0,1,48.373,34.9a1,1,0,1,1,.2,1.99,9.929,9.929,0,0,0-7.315,3.874,9.2,9.2,0,0,0-1.588,3.359A1,1,0,0,1,38.691,44.941Z" transform="translate(329.656 173.388)" fill="#5bb3b3" />
        </g>
        <path d="M8.7,134.979H.857A1.86,1.86,0,0,1-1,133.121V122.728A1.86,1.86,0,0,1,.857,120.87H8.7a1.86,1.86,0,0,1,1.858,1.858v10.393A1.86,1.86,0,0,1,8.7,134.979Zm-7.7-2H8.555V122.87H1Z" transform="translate(371.665 62.019)" fill="#5bb3b3" />
        <path d="M25.982,54.247H10.851c-5.343,0-9.714-5.141-9.714-11.424V41.588A11.869,11.869,0,0,1,6.226,31.553a16.181,16.181,0,0,1-.1-1.706c0-7.5,5.172-13.585,11.552-13.585.119,0,.234.015.353.02-.05-.513-.082-1.032-.082-1.56,0-7.5,5.172-13.585,11.552-13.585S41.054,7.218,41.054,14.722c0,.133-.014.264-.017.4,5.766.764,10.25,6.51,10.25,13.494,0,.526-.031,1.043-.081,1.553h1.087c5.343,0,9.714,5.141,9.714,11.424v1.236c0,6.283-4.371,11.424-9.714,11.424h-18.2" transform="translate(348.607 168.835)" fill="#bfe2e2" />
        <g transform="translate(367.964 195.1)">
            <path d="M27.01,74.378a1,1,0,0,1-1-.985c0-.192-.278-19.236,0-26.2a23.014,23.014,0,0,1,1.1-7.111,12.628,12.628,0,0,1,1.914-3.712,7.71,7.71,0,0,1,3.4-2.573,1,1,0,0,1,.7,1.873c-1.834.688-3.219,2.387-4.118,5.052A21.313,21.313,0,0,0,28.01,47.2q0,.024,0,.047c-.278,6.893,0,25.924,0,26.115a1,1,0,0,1-.985,1.015Z" transform="translate(-12.404 -23.478)" fill="#5bb3b3" />
            <path d="M48.506,74.829a1,1,0,0,1-1-1V47.659q0-.043,0-.087a7.5,7.5,0,0,0-.561-3.165c-.864-2.013-2.62-3.143-5.22-3.36a1,1,0,0,1,.166-1.993,8.058,8.058,0,0,1,5.746,2.691,8.908,8.908,0,0,1,1.866,5.95V73.829A1,1,0,0,1,48.506,74.829Z" transform="translate(-41.811 -23.929)" fill="#5bb3b3" />
            <path d="M29.047,36.966a1,1,0,0,1-.946-1.324c2.151-6.285,6.693-7.027,6.886-7.055l.293,1.978h.009a5.381,5.381,0,0,0-1.984.929,9.425,9.425,0,0,0-3.312,4.8A1,1,0,0,1,29.047,36.966Z" transform="translate(-16.746 -23.04)" fill="#5bb3b3" />
            <path d="M0,9.217a1,1,0,0,1-1-1V0A1,1,0,0,1,0-1,1,1,0,0,1,1,0V8.217A1,1,0,0,1,0,9.217Z" transform="translate(8.802 0)" fill="#5bb3b3" />
        </g>
        <path d="M-2305.864-3262.066a1,1,0,0,1-1-1v-125.582h-58.068a1,1,0,0,1-1-1,1,1,0,0,1,1-1h59.068a1,1,0,0,1,1,1v126.582A1,1,0,0,1-2305.864-3262.066Z" transform="translate(2367 3494.59)" fill="#5bb3b3" />
        <path d="M-2324.17-3319.085a1,1,0,0,1-1-1v-68.562h-39.761a1,1,0,0,1-1-1,1,1,0,0,1,1-1h40.761a1,1,0,0,1,1,1v69.562A1,1,0,0,1-2324.17-3319.085Z" transform="translate(2367 3545.59)" fill="#5bb3b3" />
        <path d="M42,1H0A1,1,0,0,1-1,0,1,1,0,0,1,0-1H42a1,1,0,0,1,1,1A1,1,0,0,1,42,1Z" transform="translate(2.5 129.217)" fill="#5bb3b3" />
        <path d="M42,1H0A1,1,0,0,1-1,0,1,1,0,0,1,0-1H42a1,1,0,0,1,1,1A1,1,0,0,1,42,1Z" transform="translate(2.5 117.365)" fill="#5bb3b3" />
        <path d="M42,1H0A1,1,0,0,1-1,0,1,1,0,0,1,0-1H42a1,1,0,0,1,1,1A1,1,0,0,1,42,1Z" transform="translate(2.5 142.482)" fill="#5bb3b3" />
        <path d="M42,1H0A1,1,0,0,1-1,0,1,1,0,0,1,0-1H42a1,1,0,0,1,1,1A1,1,0,0,1,42,1Z" transform="translate(80 245.482)" fill="#5bb3b3" />
        <path d="M213.968,1H0A1,1,0,0,1-1,0,1,1,0,0,1,0-1H213.968a1,1,0,0,1,1,1A1,1,0,0,1,213.968,1Z" transform="translate(92.5 268.482)" fill="#5bb3b3" />
        <path d="M-2214.537-3358.318a1,1,0,0,1-1-1v-57.3h-127.94v50.688a1,1,0,0,1-1,1,1,1,0,0,1-1-1v-51.688a1,1,0,0,1,1-1h129.94a1,1,0,0,1,1,1v58.3A1,1,0,0,1-2214.537-3358.318Z" transform="translate(2367 3469)" fill="#5bb3b3" />
        <path d="M377.933,133.928H357.38a2.752,2.752,0,0,1-2.712-2.785v-17.9a13,13,0,1,1,25.98,0v17.9A2.754,2.754,0,0,1,377.933,133.928Zm-10.275-32.179a11.265,11.265,0,0,0-10.99,11.5v17.9a.752.752,0,0,0,.712.785h20.553a.753.753,0,0,0,.715-.785v-17.9A11.265,11.265,0,0,0,367.658,101.749Z" transform="translate(-280.896 -35.006)" fill="#5bb3b3" />
        <path d="M377.933,133.928H357.38a2.752,2.752,0,0,1-2.712-2.785v-17.9a13,13,0,1,1,25.98,0v17.9A2.754,2.754,0,0,1,377.933,133.928Zm-10.275-32.179a11.265,11.265,0,0,0-10.99,11.5v17.9a.752.752,0,0,0,.712.785h20.553a.753.753,0,0,0,.715-.785v-17.9A11.265,11.265,0,0,0,367.658,101.749Z" transform="translate(-280.896 14.636)" fill="#5bb3b3" />
        <path d="M377.933,133.928H357.38a2.752,2.752,0,0,1-2.712-2.785v-17.9a13,13,0,1,1,25.98,0v17.9A2.754,2.754,0,0,1,377.933,133.928Zm-10.275-32.179a11.265,11.265,0,0,0-10.99,11.5v17.9a.752.752,0,0,0,.712.785h20.553a.753.753,0,0,0,.715-.785v-17.9A11.265,11.265,0,0,0,367.658,101.749Z" transform="translate(-280.896 64.278)" fill="#5bb3b3" />
        <path d="M377.933,133.928H357.38a2.752,2.752,0,0,1-2.712-2.785v-17.9a13,13,0,1,1,25.98,0v17.9A2.754,2.754,0,0,1,377.933,133.928Zm-10.275-32.179a11.265,11.265,0,0,0-10.99,11.5v17.9a.752.752,0,0,0,.712.785h20.553a.753.753,0,0,0,.715-.785v-17.9A11.265,11.265,0,0,0,367.658,101.749Z" transform="translate(-319.656 -35.006)" fill="#5bb3b3" />
        <path d="M377.933,133.928H357.38a2.752,2.752,0,0,1-2.712-2.785v-17.9a13,13,0,1,1,25.98,0v17.9A2.754,2.754,0,0,1,377.933,133.928Zm-10.275-32.179a11.265,11.265,0,0,0-10.99,11.5v17.9a.752.752,0,0,0,.712.785h20.553a.753.753,0,0,0,.715-.785v-17.9A11.265,11.265,0,0,0,367.658,101.749Z" transform="translate(-242.136 -35.006)" fill="#5bb3b3" />
        <path d="M16.857-1A17.852,17.852,0,0,1,29.484,29.484,17.857,17.857,0,1,1,9.906.4,17.746,17.746,0,0,1,16.857-1Zm0,33.714A15.857,15.857,0,0,0,28.069,5.644,15.857,15.857,0,0,0,5.644,28.069,15.753,15.753,0,0,0,16.857,32.714Z" transform="translate(219.765 48.595) rotate(-67.5)" fill="#5bb3b3" />
        <path d="M0,8.636a1,1,0,0,1-1-1V0A1,1,0,0,1,0-1,1,1,0,0,1,1,0V7.636A1,1,0,0,1,0,8.636Z" transform="translate(241.789 10.765)" fill="#5bb3b3" />
        <path d="M0,8.636a1,1,0,0,1-1-1V0A1,1,0,0,1,0-1,1,1,0,0,1,1,0V7.636A1,1,0,0,1,0,8.636Z" transform="translate(241.789 61.373)" fill="#5bb3b3" />
        <path d="M5.4,6.4a1,1,0,0,1-.707-.293l-5.4-5.4a1,1,0,0,1,0-1.414,1,1,0,0,1,1.414,0l5.4,5.4A1,1,0,0,1,5.4,6.4Z" transform="translate(221.197 19.295)" fill="#5bb3b3" />
        <path d="M5.4,6.4a1,1,0,0,1-.707-.293l-5.4-5.4a1,1,0,0,1,0-1.414,1,1,0,0,1,1.414,0l5.4,5.4A1,1,0,0,1,5.4,6.4Z" transform="translate(256.982 55.08)" fill="#5bb3b3" />
        <path d="M7.636,1.027h0L0,1A1,1,0,0,1-1,0,1,1,0,0,1,0-1l7.636.027a1,1,0,0,1,0,2Z" transform="translate(263.276 39.961)" fill="#5bb3b3" />
        <path d="M7.636,1.027h0L0,1A1,1,0,0,1-1,0,1,1,0,0,1,0-1l7.636.027a1,1,0,0,1,0,2Z" transform="translate(212.668 39.785)" fill="#5bb3b3" />
        <path d="M0,6.381a1,1,0,0,1-.71-.3,1,1,0,0,1,0-1.414L4.714-.71a1,1,0,0,1,1.414,0,1,1,0,0,1,0,1.414L.7,6.09A1,1,0,0,1,0,6.381Z" transform="translate(257.035 19.366)" fill="#5bb3b3" />
        <path d="M0,6.381a1,1,0,0,1-.71-.3,1,1,0,0,1,0-1.414L4.714-.71a1,1,0,0,1,1.414,0,1,1,0,0,1,0,1.414L.7,6.09A1,1,0,0,1,0,6.381Z" transform="translate(221.126 55.027)" fill="#5bb3b3" />
        <path d="M0,8.067a1,1,0,0,1-.378-.075,1,1,0,0,1-.547-1.3L1.966-.379a1,1,0,0,1,1.3-.547,1,1,0,0,1,.547,1.3L.925,7.445A1,1,0,0,1,0,8.067Z" transform="translate(249.928 12.935)" fill="#5bb3b3" />
        <path d="M0,8.067a1,1,0,0,1-.378-.075,1,1,0,0,1-.547-1.3L1.966-.379a1,1,0,0,1,1.3-.547,1,1,0,0,1,.547,1.3L.925,7.445A1,1,0,0,1,0,8.067Z" transform="translate(230.76 59.773)" fill="#5bb3b3" />
        <path d="M2.952,8.043a1,1,0,0,1-.923-.614L-.922.387A1,1,0,0,1-.387-.922,1,1,0,0,1,.922-.387L3.874,6.656a1,1,0,0,1-.922,1.387Z" transform="translate(230.531 13.029)" fill="#5bb3b3" />
        <path d="M2.952,8.043a1,1,0,0,1-.923-.614L-.922.387A1,1,0,0,1-.387-.922,1,1,0,0,1,.922-.387L3.874,6.656a1,1,0,0,1-.922,1.387Z" transform="translate(250.096 59.702)" fill="#5bb3b3" />
        <path d="M7.056,3.917a1,1,0,0,1-.382-.076L-.382.924A1,1,0,0,1-.924-.382,1,1,0,0,1,.382-.924L7.438,1.993a1,1,0,0,1-.382,1.924Z" transform="translate(261.647 48.093)" fill="#5bb3b3" />
        <path d="M7.056,3.917a1,1,0,0,1-.382-.076L-.382.924A1,1,0,0,1-.924-.382,1,1,0,0,1,.382-.924L7.438,1.993a1,1,0,0,1-.382,1.924Z" transform="translate(214.875 28.764)" fill="#5bb3b3" />
        <path d="M0,3.928a1,1,0,0,1-.924-.617A1,1,0,0,1-.383,2L6.668-.924a1,1,0,0,1,1.307.54A1,1,0,0,1,7.435.924L.383,3.851A1,1,0,0,1,0,3.928Z" transform="translate(261.635 28.721)" fill="#5bb3b3" />
        <path d="M0,3.928a1,1,0,0,1-.924-.617A1,1,0,0,1-.383,2L6.668-.924a1,1,0,0,1,1.307.54A1,1,0,0,1,7.435.924L.383,3.851A1,1,0,0,1,0,3.928Z" transform="translate(214.893 48.126)" fill="#5bb3b3" />
        <path d="M11.516,138.9H1.135A2.138,2.138,0,0,1-1,136.768V123.006a2.138,2.138,0,0,1,2.135-2.136H11.516a2.138,2.138,0,0,1,2.136,2.136v13.762A2.138,2.138,0,0,1,11.516,138.9ZM1.135,122.87a.134.134,0,0,0-.135.136v13.762a.134.134,0,0,0,.135.136H11.516a.135.135,0,0,0,.136-.136V123.006a.135.135,0,0,0-.136-.136Z" transform="translate(378.816 11.979)" fill="#5bb3b3" />
        <path d="M11.516,138.9H1.135A2.138,2.138,0,0,1-1,136.768V123.006a2.138,2.138,0,0,1,2.135-2.136H11.516a2.138,2.138,0,0,1,2.136,2.136v13.762A2.138,2.138,0,0,1,11.516,138.9ZM1.135,122.87a.134.134,0,0,0-.135.136v13.762a.134.134,0,0,0,.135.136H11.516a.135.135,0,0,0,.136-.136V123.006a.135.135,0,0,0-.136-.136Z" transform="translate(378.816 -18.021)" fill="#5bb3b3" />
        <path d="M11.516,138.9H1.135A2.138,2.138,0,0,1-1,136.768V123.006a2.138,2.138,0,0,1,2.135-2.136H11.516a2.138,2.138,0,0,1,2.136,2.136v13.762A2.138,2.138,0,0,1,11.516,138.9ZM1.135,122.87a.134.134,0,0,0-.135.136v13.762a.134.134,0,0,0,.135.136H11.516a.135.135,0,0,0,.136-.136V123.006a.135.135,0,0,0-.136-.136Z" transform="translate(357.491 11.979)" fill="#5bb3b3" />
        <path d="M11.516,138.9H1.135A2.138,2.138,0,0,1-1,136.768V123.006a2.138,2.138,0,0,1,2.135-2.136H11.516a2.138,2.138,0,0,1,2.136,2.136v13.762A2.138,2.138,0,0,1,11.516,138.9ZM1.135,122.87a.134.134,0,0,0-.135.136v13.762a.134.134,0,0,0,.135.136H11.516a.135.135,0,0,0,.136-.136V123.006a.135.135,0,0,0-.136-.136Z" transform="translate(357.491 -18.021)" fill="#5bb3b3" />
        <path d="M11.516,138.9H1.135A2.138,2.138,0,0,1-1,136.768V123.006a2.138,2.138,0,0,1,2.135-2.136H11.516a2.138,2.138,0,0,1,2.136,2.136v13.762A2.138,2.138,0,0,1,11.516,138.9ZM1.135,122.87a.134.134,0,0,0-.135.136v13.762a.134.134,0,0,0,.135.136H11.516a.135.135,0,0,0,.136-.136V123.006a.135.135,0,0,0-.136-.136Z" transform="translate(336.166 -18.021)" fill="#5bb3b3" />
        <path d="M-1314.57-4783.139h-75.93a1,1,0,0,1-.814-.419,1,1,0,0,1-.131-.907l3.9-11.315a1,1,0,0,1,.945-.674h72.026a1,1,0,0,1,1,1,1,1,0,0,1-1,1h-71.313l-3.214,9.315h74.527a1,1,0,0,1,1,1A1,1,0,0,1-1314.57-4783.139Z" transform="translate(1714.57 4872.883)" fill="#5bb3b3" />
        <path d="M-1306.376-4809.154h-50.973a1,1,0,0,1-1-1,1,1,0,0,1,1-1h50.973a1,1,0,0,1,1,1A1,1,0,0,1-1306.376-4809.154Z" transform="translate(1664.896 4863.832)" fill="#5bb3b3" />
        <path d="M-1347.806-4798.823a1,1,0,0,1-1-1v-7.91a1,1,0,0,1,1-1,1,1,0,0,1,1,1v7.91A1,1,0,0,1-1347.806-4798.823Z" transform="translate(1695.55 4869.832)" fill="#5bb3b3" />
        <path d="M-1347.806-4798.823a1,1,0,0,1-1-1v-7.91a1,1,0,0,1,1-1,1,1,0,0,1,1,1v7.91A1,1,0,0,1-1347.806-4798.823Z" transform="translate(1685.55 4869.832)" fill="#5bb3b3" />
        <path d="M-1347.806-4798.823a1,1,0,0,1-1-1v-7.91a1,1,0,0,1,1-1,1,1,0,0,1,1,1v7.91A1,1,0,0,1-1347.806-4798.823Z" transform="translate(1675.55 4869.832)" fill="#5bb3b3" />
        <path d="M-1347.806-4798.823a1,1,0,0,1-1-1v-7.91a1,1,0,0,1,1-1,1,1,0,0,1,1,1v7.91A1,1,0,0,1-1347.806-4798.823Z" transform="translate(1665.55 4869.832)" fill="#5bb3b3" />
        <path d="M-1347.806-4798.823a1,1,0,0,1-1-1v-7.91a1,1,0,0,1,1-1,1,1,0,0,1,1,1v7.91A1,1,0,0,1-1347.806-4798.823Z" transform="translate(1665.55 4888.843)" fill="#5bb3b3" />
        <path d="M-1347.806-4798.823a1,1,0,0,1-1-1v-7.91a1,1,0,0,1,1-1,1,1,0,0,1,1,1v7.91A1,1,0,0,1-1347.806-4798.823Z" transform="translate(1665.55 4907.854)" fill="#5bb3b3" />
        <path d="M-1347.806-4798.823a1,1,0,0,1-1-1v-7.91a1,1,0,0,1,1-1,1,1,0,0,1,1,1v7.91A1,1,0,0,1-1347.806-4798.823Z" transform="translate(1665.55 4926.865)" fill="#5bb3b3" />
        <rect width="400" height="30" transform="translate(0 290)" fill="#bfe2e2" />
        <rect width="400" height="8" transform="translate(0 246)" fill="#bfe2e2" />
        <path d="M383.256,43.86h0a54.893,54.893,0,0,0-.053-7.621,36.714,36.714,0,0,0-1.047-6.539,15.9,15.9,0,0,0-2.6-5.69,7.054,7.054,0,0,0-5.521-2.906c-.655-.021-1.247-.038-1.845-.038-2.266,0-4.823.237-6.609,1.994a10.578,10.578,0,0,0-7.679-10.4,15.639,15.639,0,0,0-3.917-.49,13.594,13.594,0,0,0-5.352,1.017,7.2,7.2,0,0,0-3.73,3.293,25.554,25.554,0,0,0-7.838-10.664,25.88,25.88,0,0,0-12.1-5.5A24.745,24.745,0,0,0,321.016,0a26.763,26.763,0,0,0-11.11,2.462,25.652,25.652,0,0,0-9.023,6.867,3.748,3.748,0,0,0-.768-2.8,6.455,6.455,0,0,0-5.057-2.341,5.723,5.723,0,0,0-1.738.259,10.447,10.447,0,0,0-4.363,2.894,32.44,32.44,0,0,0-3.3,4.3,8.665,8.665,0,0,0-7.326-3.974,7.919,7.919,0,0,0-2.506.4,8.487,8.487,0,0,0-4.607,3.9v31.6Z" transform="translate(-296.601 210.471)" fill="#bfe2e2" />
        <g transform="translate(0)">
            <rect width="179" height="127" transform="translate(111 135)" fill="#b2cae7" />
            <path d="M-2238.637-3325.615l48.445,126.188h109.829l-52.9-124.332Z" transform="translate(2359.564 3461.139)" fill="#fff" opacity="0.611" />
            <rect width="5" height="101" transform="translate(155 161)" fill="#7a8293" />
            <rect width="6" height="101" transform="translate(108 161)" fill="#7a8293" />
            <rect width="6" height="101" transform="translate(223 161)" fill="#7a8293" />
            <rect width="7" height="101" transform="translate(287 161)" fill="#7a8293" />
            <path d="M0,9.985a1.5,1.5,0,0,1-1.288-.73A1.5,1.5,0,0,1-.77,7.2L13.4-1.287a1.5,1.5,0,0,1,2.057.516,1.5,1.5,0,0,1-.516,2.057L.77,9.772A1.493,1.493,0,0,1,0,9.985Z" transform="translate(274.883 174.198)" fill="#313e58" />
            <path d="M9.853,8.873a1.493,1.493,0,0,1-.9-.3L-.9,1.2A1.5,1.5,0,0,1-1.2-.9,1.5,1.5,0,0,1,.9-1.2l9.854,7.373a1.5,1.5,0,0,1-.9,2.7Z" transform="translate(160.265 175.31)" fill="#313e58" />
            <path d="M8.553,6.009a1.493,1.493,0,0,1-.7-.173L-.7,1.327A1.5,1.5,0,0,1-1.327-.7,1.5,1.5,0,0,1,.7-1.327L9.254,3.182a1.5,1.5,0,0,1-.7,2.827Z" transform="translate(160.45 220.525)" fill="#313e58" />
            <path d="M0,9.3a1.5,1.5,0,0,1-1.3-.744,1.5,1.5,0,0,1,.54-2.051L12.618-1.3a1.5,1.5,0,0,1,2.051.54A1.5,1.5,0,0,1,14.13,1.3L.756,9.1A1.493,1.493,0,0,1,0,9.3Z" transform="translate(275.998 217.233)" fill="#313e58" />
            <path d="M44.019,103.322H41.795a1.5,1.5,0,0,1,0-3h.725V90.716H41.3a1.5,1.5,0,0,1,0-3h2.718a1.5,1.5,0,0,1,1.5,1.5v12.606A1.5,1.5,0,0,1,44.019,103.322Z" transform="translate(100.254 115.44)" fill="#313e58" />
            <g transform="translate(167.768 176.328)">
                <g transform="translate(0 0)">
                    <g transform="translate(0 0)">
                        <path d="M64.821,118.034V63.8s47.184,13.945,111.434.424v53.321C174.246,117.542,120.6,131.869,64.821,118.034Z" transform="translate(-64.821 -63.798)" fill="#ffe491" />
                    </g>
                    <g transform="translate(14.761 15.02)">
                        <path d="M105.8,104.753a2.679,2.679,0,0,1-1.081,2.184,4.245,4.245,0,0,1-2.743.745,8.535,8.535,0,0,1-3.118-.528l.019-.778a7.9,7.9,0,0,0,3.056.588,3.443,3.443,0,0,0,2.191-.573,1.994,1.994,0,0,0,.846-1.627,1.907,1.907,0,0,0-.241-1.054,2.421,2.421,0,0,0-.849-.78,10.577,10.577,0,0,0-1.748-.784,6.071,6.071,0,0,1-2.325-1.329,2.719,2.719,0,0,1,.425-3.846,3.9,3.9,0,0,1,2.538-.724,7.374,7.374,0,0,1,2.932.67l-.3.663a6.908,6.908,0,0,0-2.636-.648,3.117,3.117,0,0,0-1.979.522,1.865,1.865,0,0,0-.77,1.536,2.016,2.016,0,0,0,.2,1.018,2.073,2.073,0,0,0,.717.732,10.064,10.064,0,0,0,1.732.8,9.517,9.517,0,0,1,1.936.923,2.786,2.786,0,0,1,.932.984A2.61,2.61,0,0,1,105.8,104.753Z" transform="translate(-75.684 -75.103)" fill="#ffe491" />
                        <path d="M102.152,108.434l-.2,0a9.143,9.143,0,0,1-3.4-.592.75.75,0,0,1-.446-.7l.019-.778a.75.75,0,0,1,1.06-.664,7.217,7.217,0,0,0,2.764.521l.129,0a2.646,2.646,0,0,0,1.6-.427,1.253,1.253,0,0,0,.543-1.044,1.19,1.19,0,0,0-.131-.644,1.743,1.743,0,0,0-.6-.528,9.944,9.944,0,0,0-1.619-.722,6.689,6.689,0,0,1-2.621-1.528,3.467,3.467,0,0,1,.524-4.946,4.577,4.577,0,0,1,2.847-.881l.165,0a8.154,8.154,0,0,1,3.228.739.75.75,0,0,1,.37.989l-.3.663a.75.75,0,0,1-.99.377,6.2,6.2,0,0,0-2.35-.583h-.106a2.333,2.333,0,0,0-1.407.376,1.114,1.114,0,0,0-.466.951,1.329,1.329,0,0,0,.109.643l0,0a1.364,1.364,0,0,0,.467.458,9.1,9.1,0,0,0,1.584.726,10.105,10.105,0,0,1,2.092,1A3.534,3.534,0,0,1,106.2,103.1a3.359,3.359,0,0,1,.354,1.675,3.41,3.41,0,0,1-1.378,2.762A4.892,4.892,0,0,1,102.152,108.434Z" transform="translate(-75.684 -75.103)" fill="#313e58" />
                        <rect width="0.778" height="11.139" transform="translate(58.524 1.132) rotate(-3.948)" fill="#ffe491" />
                        <path d="M0-.75H.778a.75.75,0,0,1,.75.75V11.139a.75.75,0,0,1-.75.75H0a.75.75,0,0,1-.75-.75V0A.75.75,0,0,1,0-.75Z" transform="translate(58.524 1.132) rotate(-3.948)" fill="#313e58" />
                        <g transform="translate(0 0)">
                            <path d="M79.114,94.924l3.039.288a5.221,5.221,0,0,1,2.953.983,2.441,2.441,0,0,1,.765,2.2,2.306,2.306,0,0,1-.739,1.55,2.888,2.888,0,0,1-1.8.661l-.006.046a3.357,3.357,0,0,1,1.874,1.022,2.443,2.443,0,0,1,.458,1.845,2.874,2.874,0,0,1-1.238,2.264,4.463,4.463,0,0,1-2.96.554l-3.4-.32Zm.241,5.7L78.9,105.4l2.61.247q3.078.289,3.316-2.212.214-2.285-3.031-2.591Zm.066-.684,2.441.231a3.905,3.905,0,0,0,2.322-.3,1.89,1.89,0,0,0,.863-1.56,1.758,1.758,0,0,0-.649-1.683,4.578,4.578,0,0,0-2.338-.727l-2.238-.21Z" transform="translate(-78.065 -75.254)" fill="#ffe491" />
                            <path d="M79.114,94.174q.035,0,.071,0l3.039.288A5.859,5.859,0,0,1,85.6,95.631a3.174,3.174,0,0,1,1.016,2.832,3.044,3.044,0,0,1-.982,2.036,2.925,2.925,0,0,1-.312.245,2.908,2.908,0,0,1,.465.457,3.169,3.169,0,0,1,.621,2.387A3.6,3.6,0,0,1,84.84,106.4a4.732,4.732,0,0,1-2.675.715c-.247,0-.507-.013-.773-.038l-3.4-.32a.75.75,0,0,1-.676-.817l1.049-11.091a.75.75,0,0,1,.747-.679Zm3.472,5.278a2.38,2.38,0,0,0,1.212-.235,1.13,1.13,0,0,0,.5-.988,1,1,0,0,0-.356-1.015,3.8,3.8,0,0,0-1.955-.577L80.5,96.5l-.26,2.76,1.694.16C82.165,99.441,82.385,99.452,82.585,99.452Zm-.464,5.479a2.251,2.251,0,0,0,1.446-.388,1.641,1.641,0,0,0,.514-1.175c.043-.459.144-1.536-2.356-1.774l-1.7-.159-.311,3.292,1.864.177C81.772,104.922,81.953,104.931,82.122,104.931Z" transform="translate(-78.065 -75.254)" fill="#313e58" />
                            <path d="M96.935,96.243l-.41,7.2a3.994,3.994,0,0,1-1.283,2.933,4.259,4.259,0,0,1-3.157.9,3.765,3.765,0,0,1-3.864-4.341l.409-7.165.784.045-.411,7.2a3.106,3.106,0,0,0,3.214,3.588,3.05,3.05,0,0,0,3.529-3.126l.415-7.271Z" transform="translate(-76.903 -75.157)" fill="#ffe491" />
                            <path d="M88.628,95.019h.043l.784.045a.75.75,0,0,1,.706.792l-.411,7.2a2.369,2.369,0,0,0,2.509,2.8c.089.005.177.008.262.008a2.444,2.444,0,0,0,1.707-.555A2.578,2.578,0,0,0,95,103.427l.415-7.27a.75.75,0,0,1,.791-.706l.776.043a.75.75,0,0,1,.707.792l-.41,7.2a4.733,4.733,0,0,1-1.54,3.457,5,5,0,0,1-3.692,1.085,4.507,4.507,0,0,1-4.57-5.133l.409-7.165A.75.75,0,0,1,88.628,95.019Z" transform="translate(-76.903 -75.157)" fill="#313e58" />
                            <rect width="11.139" height="0.777" transform="translate(33.888 32.549) rotate(-89.736)" fill="#ffe491" />
                            <path d="M0-.75H11.139a.75.75,0,0,1,.75.75V.777a.75.75,0,0,1-.75.75H0A.75.75,0,0,1-.75.777V0A.75.75,0,0,1,0-.75Z" transform="translate(33.888 32.549) rotate(-89.736)" fill="#313e58" />
                            <path d="M121.466,107.494l-.785.016-6.791-9.759h-.061q.129,1.764.145,2.664l.14,7.221-.748.016-.216-11.137.778-.014,6.782,9.743h.046q-.1-1.369-.119-2.6l-.143-7.267.753-.016Z" transform="translate(-74.047 -75.09)" fill="#ffe491" />
                            <path d="M113.367,108.4a.75.75,0,0,1-.75-.735L112.4,96.53a.75.75,0,0,1,.736-.764l.778-.014a.75.75,0,0,1,.63.321l5.345,7.679q0-.049,0-.1l-.143-7.266a.75.75,0,0,1,.734-.765l.753-.016a.75.75,0,0,1,.765.735l.218,11.137a.75.75,0,0,1-.735.765l-.785.016a.75.75,0,0,1-.631-.321l-5.345-7.681q0,.075,0,.145l.14,7.22a.75.75,0,0,1-.734.764l-.748.016Z" transform="translate(-74.047 -75.09)" fill="#313e58" />
                            <path d="M130.9,107.06l-6.08.3-.554-11.124,6.08-.3.036.716-5.3.263.21,4.208,5.008-.25.035.717-5.006.249.237,4.771,5.3-.264Z" transform="translate(-72.774 -75.138)" fill="#ffe491" />
                            <path d="M124.824,108.112a.75.75,0,0,1-.748-.713l-.554-11.124a.75.75,0,0,1,.712-.786l6.08-.3a.75.75,0,0,1,.786.712l.036.716a.75.75,0,0,1-.712.786l-4.555.226.135,2.71,4.258-.212a.75.75,0,0,1,.786.713l.035.717a.75.75,0,0,1-.712.785l-4.257.211.163,3.273,4.555-.227a.75.75,0,0,1,.786.712l.036.716a.75.75,0,0,1-.712.786l-6.08.3Z" transform="translate(-72.774 -75.138)" fill="#313e58" />
                            <path d="M139.865,103.528a2.668,2.668,0,0,1-.853,2.281,4.252,4.252,0,0,1-2.654,1.022,8.5,8.5,0,0,1-3.156-.21l-.059-.775a7.9,7.9,0,0,0,3.1.274,3.429,3.429,0,0,0,2.12-.794,1.991,1.991,0,0,0,.677-1.705,1.91,1.91,0,0,0-.347-1.024,2.444,2.444,0,0,0-.924-.69,10.645,10.645,0,0,0-1.819-.6,6.068,6.068,0,0,1-2.449-1.086,2.719,2.719,0,0,1,.031-3.868,3.894,3.894,0,0,1,2.451-.979,7.368,7.368,0,0,1,2.985.367l-.23.69a6.889,6.889,0,0,0-2.687-.374,3.119,3.119,0,0,0-1.917.72,1.867,1.867,0,0,0-.61,1.606,2.043,2.043,0,0,0,.3.993,2.072,2.072,0,0,0,.788.654,10.114,10.114,0,0,0,1.806.622,9.517,9.517,0,0,1,2.02.719,2.822,2.822,0,0,1,1.026.884A2.616,2.616,0,0,1,139.865,103.528Z" transform="translate(-71.808 -75.205)" fill="#ffe491" />
                            <path d="M135.221,107.629a7.281,7.281,0,0,1-2.252-.294.75.75,0,0,1-.515-.656l-.059-.775a.75.75,0,0,1,.988-.768,6.165,6.165,0,0,0,1.949.272c.27,0,.557-.012.854-.035a2.729,2.729,0,0,0,1.671-.6,1.251,1.251,0,0,0,.435-1.094,1.2,1.2,0,0,0-.2-.629,1.761,1.761,0,0,0-.647-.465,10,10,0,0,0-1.684-.552A6.688,6.688,0,0,1,133,100.781a3.468,3.468,0,0,1,.019-4.973,4.639,4.639,0,0,1,2.907-1.18,8.148,8.148,0,0,1,3.286.4.75.75,0,0,1,.468.946l-.23.69a.75.75,0,0,1-.946.476,6.178,6.178,0,0,0-2.395-.339,2.418,2.418,0,0,0-1.47.527,1.116,1.116,0,0,0-.367.994,1.35,1.35,0,0,0,.176.633,1.376,1.376,0,0,0,.511.406,9.141,9.141,0,0,0,1.653.563,10.092,10.092,0,0,1,2.182.783,3.572,3.572,0,0,1,1.294,1.127,3.663,3.663,0,0,1-.568,4.522,5,5,0,0,1-3.105,1.219C135.993,107.612,135.59,107.629,135.221,107.629Z" transform="translate(-71.808 -75.205)" fill="#313e58" />
                            <path d="M148.748,102.632a2.669,2.669,0,0,1-.79,2.3,4.253,4.253,0,0,1-2.624,1.094,8.547,8.547,0,0,1-3.162-.123l-.081-.773a7.942,7.942,0,0,0,3.107.189,3.439,3.439,0,0,0,2.1-.851,1.991,1.991,0,0,0,.629-1.723,1.917,1.917,0,0,0-.373-1.014,2.44,2.44,0,0,0-.943-.663,10.688,10.688,0,0,0-1.834-.552A6.047,6.047,0,0,1,142.3,99.5a2.716,2.716,0,0,1-.075-3.867,3.886,3.886,0,0,1,2.423-1.047,7.4,7.4,0,0,1,2.995.286l-.212.7a6.853,6.853,0,0,0-2.7-.3,3.1,3.1,0,0,0-1.9.771,1.868,1.868,0,0,0-.566,1.622,1.794,1.794,0,0,0,1.133,1.616,10,10,0,0,0,1.822.573,9.451,9.451,0,0,1,2.037.665,2.791,2.791,0,0,1,1.05.855A2.615,2.615,0,0,1,148.748,102.632Z" transform="translate(-70.807 -75.297)" fill="#ffe491" />
                            <path d="M143.894,106.861a6.827,6.827,0,0,1-1.934-.235.75.75,0,0,1-.533-.641l-.081-.773a.75.75,0,0,1,.965-.8,5.9,5.9,0,0,0,1.71.221,10.773,10.773,0,0,0,1.1-.061,2.738,2.738,0,0,0,1.655-.645,1.251,1.251,0,0,0,.4-1.106,1.2,1.2,0,0,0-.214-.624,1.764,1.764,0,0,0-.657-.444,10.047,10.047,0,0,0-1.7-.507,6.667,6.667,0,0,1-2.8-1.179A3.465,3.465,0,0,1,141.7,95.1a4.632,4.632,0,0,1,2.873-1.26,8.8,8.8,0,0,1,.9-.047,8.041,8.041,0,0,1,2.4.363.75.75,0,0,1,.494.934l-.212.7a.75.75,0,0,1-.933.5,6.14,6.14,0,0,0-2.4-.272,2.408,2.408,0,0,0-1.455.566,1.117,1.117,0,0,0-.34,1,1.062,1.062,0,0,0,.714,1.018,9.019,9.019,0,0,0,1.67.519,10.044,10.044,0,0,1,2.2.726,3.541,3.541,0,0,1,1.324,1.092,3.36,3.36,0,0,1,.567,1.616,3.437,3.437,0,0,1-1.012,2.916,5,5,0,0,1-3.07,1.3A14.88,14.88,0,0,1,143.894,106.861Z" transform="translate(-70.807 -75.297)" fill="#313e58" />
                            <path d="M152.627,94.018l.172,6.717L153.533,94Z" transform="translate(-69.527 -75.359)" fill="#ffe491" />
                            <path d="M153.533,93.254a.75.75,0,0,1,.746.831l-.734,6.732a.75.75,0,0,1-1.5-.062l-.172-6.717a.75.75,0,0,1,.738-.769l.906-.014Z" transform="translate(-69.527 -75.359)" fill="#313e58" />
                            <path d="M153.559,103.38q-.094-.741-.713-.663t-.513.817q.094.741.7.664Q153.651,104.121,153.559,103.38Z" transform="translate(-69.562 -74.362)" fill="#ffe491" />
                            <path d="M152.959,101.959a1.349,1.349,0,0,1,1.344,1.327,1.578,1.578,0,0,1-.2,1.076,1.3,1.3,0,0,1-.98.581,1.606,1.606,0,0,1-.2.013,1.516,1.516,0,0,1-.169-2.983A1.647,1.647,0,0,1,152.959,101.959Z" transform="translate(-69.562 -74.362)" fill="#313e58" />
                            <path d="M87.729,78.131l3.048.207a5.212,5.212,0,0,1,2.977.907,2.441,2.441,0,0,1,.821,2.179,2.3,2.3,0,0,1-.7,1.567A2.882,2.882,0,0,1,92.1,83.7l0,.046a3.364,3.364,0,0,1,1.9.974,2.458,2.458,0,0,1,.5,1.832,2.882,2.882,0,0,1-1.18,2.295,4.473,4.473,0,0,1-2.945.631l-3.406-.233Zm.39,5.684-.328,4.8,2.615.178q3.086.211,3.258-2.3.155-2.289-3.1-2.51Zm.047-.683,2.447.166a3.911,3.911,0,0,0,2.313-.364,1.889,1.889,0,0,0,.821-1.581,1.76,1.76,0,0,0-.691-1.666,4.571,4.571,0,0,0-2.357-.664l-2.241-.154Z" transform="translate(-77.045 -77.177)" fill="#ffe491" />
                            <path d="M87.728,77.381l.052,0,3.048.207a5.845,5.845,0,0,1,3.406,1.08,3.175,3.175,0,0,1,1.089,2.806,3.036,3.036,0,0,1-.93,2.059,2.924,2.924,0,0,1-.3.253,2.916,2.916,0,0,1,.477.445,3.188,3.188,0,0,1,.682,2.37,3.609,3.609,0,0,1-1.5,2.856,4.854,4.854,0,0,1-2.853.787c-.186,0-.379-.007-.576-.02l-3.406-.233a.75.75,0,0,1-.7-.8l.76-11.112A.75.75,0,0,1,87.728,77.381Zm3.439,5.187a2.567,2.567,0,0,0,1.358-.269,1.126,1.126,0,0,0,.473-1,1.006,1.006,0,0,0-.383-1.008,3.8,3.8,0,0,0-1.967-.523l-1.494-.1-.189,2.767,1.7.115C90.841,82.562,91.01,82.568,91.168,82.568Zm-.3,5.488a2.407,2.407,0,0,0,1.54-.406,1.623,1.623,0,0,0,.508-1.209A1.209,1.209,0,0,0,92.5,85.3a3.646,3.646,0,0,0-1.979-.572l-1.7-.117-.225,3.3,1.866.127C90.6,88.052,90.737,88.057,90.867,88.057Z" transform="translate(-77.045 -77.177)" fill="#313e58" />
                            <path d="M102.7,86.1,98.18,85.95l-1.686,3.877-.86-.03,4.854-11.027.495.017,4.01,11.325-.876-.029Zm-4.217-.844,3.982.134-1.381-4.064q-.174-.48-.412-1.325a12.045,12.045,0,0,1-.494,1.31Z" transform="translate(-76.053 -77.104)" fill="#ffe491" />
                            <path d="M104.992,90.861h-.025l-.876-.029a.75.75,0,0,1-.682-.5l-1.242-3.5-3.5-.118-1.483,3.41a.75.75,0,0,1-.714.45l-.86-.03a.75.75,0,0,1-.66-1.052L99.8,78.468a.75.75,0,0,1,.712-.447l.495.017a.75.75,0,0,1,.682.5l4.01,11.325a.75.75,0,0,1-.707,1Zm-5.384-6.315,1.8.06-.807-2.374Z" transform="translate(-76.053 -77.104)" fill="#313e58" />
                            <path d="M111.6,79.542a4.2,4.2,0,0,0-3.3,1.336,5.293,5.293,0,0,0-1.209,3.67,5.506,5.506,0,0,0,1.13,3.7,4.05,4.05,0,0,0,3.244,1.322,8.8,8.8,0,0,0,2.576-.354v.685a8.4,8.4,0,0,1-2.758.386,4.7,4.7,0,0,1-3.694-1.521,6.16,6.16,0,0,1-1.343-4.237,6.671,6.671,0,0,1,.648-2.994,4.662,4.662,0,0,1,1.855-2,5.468,5.468,0,0,1,2.809-.7,6.757,6.757,0,0,1,2.917.614l-.313.7A5.645,5.645,0,0,0,111.6,79.542Z" transform="translate(-74.838 -77.096)" fill="#ffe491" />
                            <path d="M111.548,78.09h.008a7.528,7.528,0,0,1,3.237.687.75.75,0,0,1,.363.983l-.313.7a.75.75,0,0,1-1.021.364,4.929,4.929,0,0,0-2.223-.533h-.01a3.455,3.455,0,0,0-2.732,1.088,4.54,4.54,0,0,0-1.017,3.17,4.82,4.82,0,0,0,.95,3.216,3.31,3.31,0,0,0,2.675,1.06h.013a8.089,8.089,0,0,0,2.345-.322.75.75,0,0,1,.968.719v.685a.75.75,0,0,1-.5.706,9.147,9.147,0,0,1-2.993.428h-.015a5.434,5.434,0,0,1-4.254-1.773,6.9,6.9,0,0,1-1.532-4.736,7.44,7.44,0,0,1,.726-3.327,5.422,5.422,0,0,1,2.149-2.312A6.227,6.227,0,0,1,111.548,78.09Z" transform="translate(-74.838 -77.096)" fill="#313e58" />
                            <path d="M124.326,89.86l-.952.028-4.449-5.751-1.446,1.354.137,4.57-.777.023-.333-11.134.777-.023.173,5.788,1.2-1.271,4.227-4.684.99-.029-4.42,4.841Z" transform="translate(-73.663 -77.108)" fill="#ffe491" />
                            <path d="M116.84,90.834a.75.75,0,0,1-.75-.728l-.333-11.134a.75.75,0,0,1,.727-.772l.777-.023a.75.75,0,0,1,.772.727l.119,3.976,4.172-4.623a.75.75,0,0,1,.535-.247l.99-.029a.75.75,0,0,1,.576,1.255l-3.994,4.375,4.489,5.789a.75.75,0,0,1-.571,1.209l-.952.028a.75.75,0,0,1-.615-.291l-3.945-5.1-.6.559.127,4.231a.75.75,0,0,1-.727.772l-.777.023Z" transform="translate(-73.663 -77.108)" fill="#313e58" />
                            <path d="M144.287,88.362l-.781.075L136,79.221l-.061.006q.261,1.752.346,2.646l.688,7.19-.743.07-1.061-11.087.775-.074,7.5,9.2.046,0q-.2-1.359-.317-2.588l-.692-7.234.751-.071Z" transform="translate(-71.526 -77.275)" fill="#ffe491" />
                            <path d="M136.225,89.882a.75.75,0,0,1-.746-.679l-1.061-11.087a.75.75,0,0,1,.676-.818l.775-.074a.75.75,0,0,1,.652.273l5.91,7.251-.009-.1-.692-7.234a.75.75,0,0,1,.676-.818l.751-.071a.75.75,0,0,1,.818.675l1.06,11.087a.75.75,0,0,1-.675.818l-.781.075a.75.75,0,0,1-.653-.273l-5.911-7.255q.008.075.014.145l.688,7.189a.75.75,0,0,1-.676.818l-.743.07Q136.261,89.882,136.225,89.882Z" transform="translate(-71.526 -77.275)" fill="#313e58" />
                        </g>
                    </g>
                </g>
                <circle cx="1.5" cy="1.5" r="1.5" transform="translate(4.232 5.672)" fill="#313e58" />
                <ellipse cx="2" cy="1.5" rx="2" ry="1.5" transform="translate(103.232 5.672)" fill="#313e58" />
                <circle cx="1.5" cy="1.5" r="1.5" transform="translate(4.232 47.672)" fill="#313e58" />
                <ellipse cx="2" cy="1.5" rx="2" ry="1.5" transform="translate(103.232 47.672)" fill="#313e58" />
            </g>
            <g transform="translate(100 135.039)">
                <g transform="translate(0 0)" clip-path="url(#a)">
                    <path d="M14.5,18.559H0v6.816s.114,6.8,7.246,6.8A6.792,6.792,0,0,0,14.5,25.563Z" transform="translate(0 -0.417)" fill="#9183d8" />
                    <path d="M20.32,0H6.8C4.082,7.262,2.721,10.894,0,18.156H14.5C16.826,10.894,17.991,7.262,20.32,0" transform="translate(0 0)" fill="#7468b4" />
                    <path d="M30.063,18.559h-14.5v6.816s.114,6.8,7.245,6.8a6.791,6.791,0,0,0,7.252-6.609Z" transform="translate(-0.107 -0.417)" fill="#ffd964" />
                    <path d="M34.858,0H21.34L15.564,18.156h14.5L34.858,0" transform="translate(-0.107 0)" fill="#edc95a" />
                    <path d="M45.629,18.559h-14.5v6.816s.114,6.8,7.245,6.8a6.792,6.792,0,0,0,7.253-6.609Z" transform="translate(-0.213 -0.417)" fill="#9183d8" />
                    <path d="M49.4,0H35.878l-4.75,18.156h14.5C47.135,10.894,47.889,7.262,49.4,0" transform="translate(-0.213 0)" fill="#7468b4" />
                    <path d="M61.193,18.559h-14.5v6.816s.114,6.8,7.246,6.8a6.791,6.791,0,0,0,7.252-6.609Z" transform="translate(-0.32 -0.417)" fill="#ffd964" />
                    <path d="M63.936,0H50.417L46.693,18.156h14.5C62.289,10.894,62.839,7.262,63.936,0" transform="translate(-0.32 0)" fill="#edc95a" />
                    <path d="M76.758,18.559H62.26v6.816s.114,6.8,7.246,6.8a6.791,6.791,0,0,0,7.252-6.609Z" transform="translate(-0.426 -0.417)" fill="#9183d8" />
                    <path d="M78.476,0H64.957l-2.7,18.156h14.5C77.445,10.894,77.789,7.262,78.476,0" transform="translate(-0.426 0)" fill="#7468b4" />
                    <path d="M92.324,18.559h-14.5v6.816s.113,6.8,7.245,6.8a6.792,6.792,0,0,0,7.253-6.609Z" transform="translate(-0.533 -0.417)" fill="#ffd964" />
                    <path d="M93.016,0H79.5L77.824,18.156h14.5c.277-7.262.416-10.894.693-18.156" transform="translate(-0.533 0)" fill="#edc95a" />
                    <path d="M107.889,18.559h-14.5v6.816s.114,6.8,7.246,6.8a6.791,6.791,0,0,0,7.252-6.609Z" transform="translate(-0.64 -0.417)" fill="#9183d8" />
                    <path d="M107.556,0H94.037c-.258,7.262-.388,10.894-.647,18.156h14.5c-.134-7.262-.2-10.894-.333-18.156" transform="translate(-0.64 0)" fill="#7468b4" />
                    <path d="M123.454,18.559h-14.5v6.816s.114,6.8,7.246,6.8a6.791,6.791,0,0,0,7.252-6.609Z" transform="translate(-0.746 -0.417)" fill="#ffd964" />
                    <path d="M122.093,0H108.574c.151,7.262.227,10.894.378,18.156h14.5c-.543-7.262-.815-10.894-1.359-18.156" transform="translate(-0.743 0)" fill="#edc95a" />
                    <path d="M139.019,18.559h-14.5v6.816s.114,6.8,7.246,6.8a6.791,6.791,0,0,0,7.252-6.609Z" transform="translate(-0.853 -0.417)" fill="#9183d8" />
                    <path d="M136.626,0H123.107l1.405,18.156h14.5c-.953-7.262-1.431-10.894-2.385-18.156" transform="translate(-0.843 0)" fill="#7468b4" />
                    <path d="M154.584,18.559h-14.5v6.816s.114,6.8,7.246,6.8a6.791,6.791,0,0,0,7.252-6.609Z" transform="translate(-0.959 -0.417)" fill="#ffd964" />
                    <path d="M151.158,0H137.639c.972,7.262,1.459,10.894,2.431,18.156h14.5C153.2,10.894,152.522,7.262,151.158,0" transform="translate(-0.943 0)" fill="#edc95a" />
                    <path d="M170.149,18.559h-14.5v6.816s.114,6.8,7.246,6.8a6.791,6.791,0,0,0,7.252-6.609Z" transform="translate(-1.066 -0.417)" fill="#9183d8" />
                    <path d="M165.69,0H152.171c1.383,7.262,2.075,10.894,3.457,18.156h14.5C168.352,10.894,167.465,7.262,165.69,0" transform="translate(-1.042 0)" fill="#7468b4" />
                    <path d="M185.714,18.559h-14.5v6.816s.114,6.8,7.246,6.8a6.791,6.791,0,0,0,7.252-6.609Z" transform="translate(-1.172 -0.417)" fill="#ffd964" />
                    <path d="M180.221,0H166.7l4.482,18.156h14.5L180.221,0" transform="translate(-1.142 0)" fill="#edc95a" />
                    <path d="M201.137,18.559h-14.5v6.816s.114,6.8,7.246,6.8a6.791,6.791,0,0,0,7.252-6.609Z" transform="translate(-1.278 -0.417)" fill="#9183d8" />
                    <path d="M194.752,0H181.234c2.2,7.262,3.306,10.894,5.509,18.156h14.5L194.752,0" transform="translate(-1.241 0)" fill="#7468b4" />
                </g>
            </g>
            <path d="M2368.775,3495.322a1.725,1.725,0,0,1-1.775-1.671v-22.979a1.726,1.726,0,0,1,1.775-1.672h183.358a1.727,1.727,0,0,1,1.776,1.672v22.979a1.726,1.726,0,0,1-1.776,1.671Z" transform="translate(-2260.377 -3359.318)" fill="#b1a8e3" />
            <path d="M26.191,20.695V10.156h172.57V20.695" transform="translate(87.119 106.821)" fill="#313e58" opacity="0.304" />
        </g>
    </g>
</svg>