<svg xmlns="http://www.w3.org/2000/svg" xmlns:xlink="http://www.w3.org/1999/xlink" width="400" height="320" viewBox="0 0 400 320">
    <defs>
        <clipPath>
            <rect width="400" height="320" />
        </clipPath>
    </defs>
    <g clip-path="url(#b)">
        <rect width="400" height="320" fill="transparent" />
        <path d="M177,1H0A1,1,0,0,1-1,0,1,1,0,0,1,0-1H177a1,1,0,0,1,1,1A1,1,0,0,1,177,1Z" transform="translate(79.5 274.831)" fill="#5bb3b3" />
        <g transform="translate(913.737 2337.345)">
            <path d="M297.726,175.616a1,1,0,0,1-1-1V34.094L265.3,2.669,233.364,34.605V174.247a1,1,0,0,1-2,0V34.191a1,1,0,0,1,.293-.707L264.593.548a1,1,0,0,1,1.414,0l32.426,32.425a1,1,0,0,1,.293.707V174.616A1,1,0,0,1,297.726,175.616Z" transform="translate(-909.737 -2249)" fill="#70b1b1" />
            <path d="M51.95,1H0A1,1,0,0,1-1,0,1,1,0,0,1,0-1H51.95a1,1,0,0,1,1,1A1,1,0,0,1,51.95,1Z" transform="translate(-670.667 -2206.639)" fill="#70b1b1" />
            <path d="M51.95,1H0A1,1,0,0,1-1,0,1,1,0,0,1,0-1H51.95a1,1,0,0,1,1,1A1,1,0,0,1,51.95,1Z" transform="translate(-670.667 -2192.653)" fill="#70b1b1" />
            <path d="M51.95,1H0A1,1,0,0,1-1,0,1,1,0,0,1,0-1H51.95a1,1,0,0,1,1,1A1,1,0,0,1,51.95,1Z" transform="translate(-670.667 -2178.667)" fill="#70b1b1" />
            <path d="M51.95,1H0A1,1,0,0,1-1,0,1,1,0,0,1,0-1H51.95a1,1,0,0,1,1,1A1,1,0,0,1,51.95,1Z" transform="translate(-670.667 -2164.681)" fill="#70b1b1" />
            <path d="M51.95,1H0A1,1,0,0,1-1,0,1,1,0,0,1,0-1H51.95a1,1,0,0,1,1,1A1,1,0,0,1,51.95,1Z" transform="translate(-670.667 -2122.724)" fill="#70b1b1" />
            <path d="M51.95,1H0A1,1,0,0,1-1,0,1,1,0,0,1,0-1H51.95a1,1,0,0,1,1,1A1,1,0,0,1,51.95,1Z" transform="translate(-670.667 -2108.738)" fill="#70b1b1" />
            <path d="M51.95,1H0A1,1,0,0,1-1,0,1,1,0,0,1,0-1H51.95a1,1,0,0,1,1,1A1,1,0,0,1,51.95,1Z" transform="translate(-670.667 -2150.696)" fill="#70b1b1" />
            <path d="M51.95,1H0A1,1,0,0,1-1,0,1,1,0,0,1,0-1H51.95a1,1,0,0,1,1,1A1,1,0,0,1,51.95,1Z" transform="translate(-670.667 -2136.71)" fill="#70b1b1" />
            <path d="M51.95,1H0A1,1,0,0,1-1,0,1,1,0,0,1,0-1H51.95a1,1,0,0,1,1,1A1,1,0,0,1,51.95,1Z" transform="translate(-670.237 -2094.753)" fill="#70b1b1" />
            <path d="M51.95,1H0A1,1,0,0,1-1,0,1,1,0,0,1,0-1H51.95a1,1,0,0,1,1,1A1,1,0,0,1,51.95,1Z" transform="translate(-670.237 -2080.767)" fill="#70b1b1" />
            <path d="M312.658,69.956A8.445,8.445,0,0,1,319,72.891a10.391,10.391,0,0,1,2.572,6.943,1,1,0,0,1-.036.267v12a1,1,0,0,1-1,1H304.744a1,1,0,0,1-1-1V79.879c0-.015,0-.03,0-.045a10.39,10.39,0,0,1,2.572-6.943A8.445,8.445,0,0,1,312.658,69.956Zm6.911,9.624c-.118-4.227-3.173-7.624-6.911-7.624-3.8,0-6.895,3.511-6.915,7.836,0,.014,0,.028,0,.042V91.1h13.793V79.834A1,1,0,0,1,319.569,79.58Z" transform="translate(-907.737 -2249)" fill="#59b3b2" />
            <path d="M340.488,69.956a8.445,8.445,0,0,1,6.343,2.935,10.39,10.39,0,0,1,2.572,6.943,1,1,0,0,1-.036.267v12a1,1,0,0,1-1,1H332.574a1,1,0,0,1-1-1V79.879q0-.022,0-.045a10.39,10.39,0,0,1,2.572-6.943A8.445,8.445,0,0,1,340.488,69.956ZM347.4,79.58c-.118-4.227-3.173-7.624-6.911-7.624-3.8,0-6.895,3.511-6.915,7.835q0,.021,0,.043V91.1h13.793V79.834A1,1,0,0,1,347.4,79.58Z" transform="translate(-907.737 -2249)" fill="#59b3b2" />
            <path d="M368.828,69.956a8.444,8.444,0,0,1,6.343,2.935,10.39,10.39,0,0,1,2.572,6.943,1,1,0,0,1-.036.267v12a1,1,0,0,1-1,1H360.914a1,1,0,0,1-1-1V79.879q0-.022,0-.045a10.39,10.39,0,0,1,2.572-6.943A8.445,8.445,0,0,1,368.828,69.956Zm6.911,9.624c-.118-4.227-3.173-7.624-6.911-7.624-3.8,0-6.895,3.511-6.915,7.835q0,.021,0,.043V91.1h13.793V79.834A1,1,0,0,1,375.739,79.58Z" transform="translate(-907.737 -2249)" fill="#59b3b2" />
            <path d="M312.658,103.148A8.445,8.445,0,0,1,319,106.083a10.391,10.391,0,0,1,2.572,6.943,1,1,0,0,1-.036.267v12a1,1,0,0,1-1,1H304.744a1,1,0,0,1-1-1V113.071c0-.015,0-.03,0-.045a10.39,10.39,0,0,1,2.572-6.943A8.445,8.445,0,0,1,312.658,103.148Zm6.911,9.624c-.118-4.227-3.173-7.624-6.911-7.624-3.8,0-6.895,3.511-6.915,7.836,0,.014,0,.028,0,.042v11.267h13.793V113.026A1,1,0,0,1,319.569,112.772Z" transform="translate(-907.737 -2249)" fill="#59b3b2" />
            <path d="M334.378,175.573a1,1,0,0,1-1-1V152.379a1,1,0,0,1,.064-.354,15.61,15.61,0,0,0-4.08-10.324,13.074,13.074,0,0,0-19.534,0,15.637,15.637,0,0,0-4.084,10.634q0,.022,0,.044v22.194a1,1,0,0,1-2,0V152.424q0-.022,0-.045a17.635,17.635,0,0,1,4.616-12.036,15.79,15.79,0,0,1,5.039-3.673,14.869,14.869,0,0,1,12.393,0,15.79,15.79,0,0,1,5.039,3.673,17.635,17.635,0,0,1,4.616,12.036,1,1,0,0,1-.068.363v21.831A1,1,0,0,1,334.378,175.573Z" transform="translate(-907.737 -2249)" fill="#59b3b2" />
            <path d="M376.675,175.573a1,1,0,0,1-1-1V152.379a1,1,0,0,1,.064-.354,15.61,15.61,0,0,0-4.08-10.324,13.074,13.074,0,0,0-19.534,0,15.637,15.637,0,0,0-4.084,10.634q0,.022,0,.044v22.194a1,1,0,0,1-2,0V152.424q0-.022,0-.045a17.635,17.635,0,0,1,4.616-12.036,15.79,15.79,0,0,1,5.039-3.673,14.869,14.869,0,0,1,12.393,0,15.79,15.79,0,0,1,5.039,3.673,17.635,17.635,0,0,1,4.616,12.036,1,1,0,0,1-.068.363v21.831A1,1,0,0,1,376.675,175.573Z" transform="translate(-907.737 -2249)" fill="#59b3b2" />
            <path d="M340.488,103.148a8.445,8.445,0,0,1,6.343,2.935,10.39,10.39,0,0,1,2.572,6.943,1,1,0,0,1-.036.267v12a1,1,0,0,1-1,1H332.574a1,1,0,0,1-1-1V113.071q0-.022,0-.045a10.39,10.39,0,0,1,2.572-6.943A8.445,8.445,0,0,1,340.488,103.148Zm6.911,9.624c-.118-4.227-3.173-7.624-6.911-7.624-3.8,0-6.895,3.511-6.915,7.835q0,.021,0,.043v11.267h13.793V113.026A1,1,0,0,1,347.4,112.772Z" transform="translate(-907.737 -2249)" fill="#59b3b2" />
            <path d="M368.828,103.148a8.444,8.444,0,0,1,6.343,2.935,10.39,10.39,0,0,1,2.572,6.943,1,1,0,0,1-.036.267v12a1,1,0,0,1-1,1H360.914a1,1,0,0,1-1-1V113.071q0-.022,0-.045a10.39,10.39,0,0,1,2.572-6.943A8.445,8.445,0,0,1,368.828,103.148Zm6.911,9.624c-.118-4.227-3.173-7.624-6.911-7.624-3.8,0-6.895,3.511-6.915,7.835q0,.021,0,.043v11.267h13.793V113.026A1,1,0,0,1,375.739,112.772Z" transform="translate(-907.737 -2249)" fill="#59b3b2" />
            <path d="M0,112.319a1,1,0,0,1-1-1V0A1,1,0,0,1,0-1,1,1,0,0,1,1,0V111.319A1,1,0,0,1,0,112.319Z" transform="translate(-522.993 -2184.426)" fill="#59b3b2" />
            <path d="M396.116,64.3H301.488a1,1,0,0,1,0-2h92.958L388.68,51.531H301.368a1,1,0,0,1,0-2h87.911a1,1,0,0,1,.882.528L397,62.825a1,1,0,0,1-.882,1.472Z" transform="translate(-913.379 -2249)" fill="#59b3b2" />
        </g>
        <g transform="translate(907.737 2338.345)">
            <path d="M62.021,46.425a1,1,0,0,1-1-1V2.438l-55.7,20.7v13.6a1,1,0,0,1-2,0v-14.3a1,1,0,0,1,.652-.937L61.673.062A1,1,0,0,1,63.021,1V45.425A1,1,0,0,1,62.021,46.425Z" transform="translate(-907.737 -2246)" fill="#70b1b1" />
            <path d="M28.048,54.149H1.034a1,1,0,0,1,0-2H26.76l-2.508-9.793H1a1,1,0,0,1,0-2H25.028a1,1,0,0,1,.969.752L29.017,52.9a1,1,0,0,1-.969,1.248Z" transform="translate(-907.737 -2249)" fill="#59b3b2" />
            <path d="M72.025,1H0A1,1,0,0,1-1,0,1,1,0,0,1,0-1H72.025a1,1,0,0,1,1,1A1,1,0,0,1,72.025,1Z" transform="translate(-882.762 -2181.362)" fill="#59b3b2" />
            <path d="M51.682,1H0A1,1,0,0,1-1,0,1,1,0,0,1,0-1H51.682a1,1,0,0,1,1,1A1,1,0,0,1,51.682,1Z" transform="translate(-873.762 -2165.022)" fill="#59b3b2" />
            <path d="M51.682,1H0A1,1,0,0,1-1,0,1,1,0,0,1,0-1H51.682a1,1,0,0,1,1,1A1,1,0,0,1,51.682,1Z" transform="translate(-873.762 -2143.192)" fill="#59b3b2" />
            <path d="M51.682,1H0A1,1,0,0,1-1,0,1,1,0,0,1,0-1H51.682a1,1,0,0,1,1,1A1,1,0,0,1,51.682,1Z" transform="translate(-873.762 -2121.362)" fill="#59b3b2" />
            <path d="M51.682,1H0A1,1,0,0,1-1,0,1,1,0,0,1,0-1H51.682a1,1,0,0,1,1,1A1,1,0,0,1,51.682,1Z" transform="translate(-873.762 -2099.533)" fill="#59b3b2" />
            <path d="M51.682,1H0A1,1,0,0,1-1,0,1,1,0,0,1,0-1H51.682a1,1,0,0,1,1,1A1,1,0,0,1,51.682,1Z" transform="translate(-873.762 -2077.703)" fill="#59b3b2" />
            <g transform="translate(-4.262 45)">
                <path d="M97,175.872a1,1,0,0,1-1-1V51.021H27.809a1,1,0,0,1,0-2H97a1,1,0,0,1,1,1V174.872A1,1,0,0,1,97,175.872Z" transform="translate(-903.475 -2294)" fill="#59b3b2" />
                <path d="M0,119.471a1,1,0,0,1-1-1V0A1,1,0,0,1,0-1,1,1,0,0,1,1,0V118.471A1,1,0,0,1,0,119.471Z" transform="translate(-879.305 -2240.281)" fill="#59b3b2" />
            </g>
            <path d="M175.894,160.047a1,1,0,0,1-1-1V27.531H89.064v7.321a1,1,0,0,1-2,0V26.531a1,1,0,0,1,1-1h87.83a1,1,0,0,1,1,1V159.047A1,1,0,0,1,175.894,160.047Z" transform="translate(-908.737 -2234.175)" fill="#59b3b2" />
            <path d="M0,90.2H-.011A1,1,0,0,1-1,89.184L0-.011A1,1,0,0,1,1.011-1,1,1,0,0,1,2,.011l-1,89.2A1,1,0,0,1,0,90.2Z" transform="translate(-748.762 -2181.793)" fill="#5bb3b3" />
            <path d="M0,90.2H-.011A1,1,0,0,1-1,89.184L0-.011A1,1,0,0,1,1.011-1,1,1,0,0,1,2,.011l-1,89.2A1,1,0,0,1,0,90.2Z" transform="translate(-765.762 -2181.793)" fill="#5bb3b3" />
            <path d="M0,90.2H-.011A1,1,0,0,1-1,89.184L0-.011A1,1,0,0,1,1.011-1,1,1,0,0,1,2,.011l-1,89.2A1,1,0,0,1,0,90.2Z" transform="translate(-781.762 -2181.793)" fill="#5bb3b3" />
            <path d="M0,90.2H-.011A1,1,0,0,1-1,89.184L0-.011A1,1,0,0,1,1.011-1,1,1,0,0,1,2,.011l-1,89.2A1,1,0,0,1,0,90.2Z" transform="translate(-798.762 -2181.793)" fill="#5bb3b3" />
        </g>
        <g transform="translate(1192.916 2231.669)">
            <path d="M59.41,16.659a19.372,19.372,0,1,1-7.564,1.527A19.31,19.31,0,0,1,59.41,16.659Zm0,36.862a17.43,17.43,0,1,0-12.325-5.105A17.317,17.317,0,0,0,59.41,53.521Z" transform="translate(-924.35 -2229.784)" fill="#5bb3b3" />
            <path d="M0,9.349a1,1,0,0,1-1-1V0A1,1,0,0,1,0-1,1,1,0,0,1,1,0V8.349A1,1,0,0,1,0,9.349Z" transform="translate(-864.939 -2169.749)" fill="#5bb3b3" />
            <path d="M5.9,6.9A1,1,0,0,1,5.2,6.61l-5.9-5.9a1,1,0,0,1,0-1.414,1,1,0,0,1,1.414,0l5.9,5.9A1,1,0,0,1,5.9,6.9Z" transform="translate(-848.328 -2176.63)" fill="#5bb3b3" />
            <path d="M8.349,1.029h0L0,1A1,1,0,0,1-1,0,1,1,0,0,1,0-1l8.349.029a1,1,0,0,1,0,2Z" transform="translate(-841.447 -2193.16)" fill="#5bb3b3" />
            <path d="M0,8.727a1,1,0,0,1-.378-.075,1,1,0,0,1-.547-1.3L2.236-.379a1,1,0,0,1,1.3-.547,1,1,0,0,1,.547,1.3L.926,8.106A1,1,0,0,1,0,8.727Z" transform="translate(-877 -2171.5)" fill="#5bb3b3" />
            <path d="M3.228,8.7a1,1,0,0,1-.923-.614L-.922.387A1,1,0,0,1-.387-.922,1,1,0,0,1,.922-.387l3.228,7.7A1,1,0,0,1,3.228,8.7Z" transform="translate(-855.857 -2171.576)" fill="#5bb3b3" />
            <path d="M7.716,4.189a1,1,0,0,1-.382-.076L-.382.924A1,1,0,0,1-.924-.382,1,1,0,0,1,.382-.924L8.1,2.265a1,1,0,0,1-.382,1.924Z" transform="translate(-843.229 -2184.269)" fill="#5bb3b3" />
            <path d="M0,9.349a1,1,0,0,1-1-1V0A1,1,0,0,1,0-1,1,1,0,0,1,1,0V8.349A1,1,0,0,1,0,9.349Z" transform="translate(-864.939 -2225.083)" fill="#5bb3b3" />
            <path d="M5.9,6.9A1,1,0,0,1,5.2,6.61l-5.9-5.9a1,1,0,0,1,0-1.414,1,1,0,0,1,1.414,0l5.9,5.9A1,1,0,0,1,5.9,6.9Z" transform="translate(-887.455 -2215.757)" fill="#5bb3b3" />
            <path d="M8.349,1.029h0L0,1A1,1,0,0,1-1,0,1,1,0,0,1,0-1l8.349.029a1,1,0,0,1,0,2Z" transform="translate(-896.781 -2193.352)" fill="#5bb3b3" />
            <path d="M0,6.883a1,1,0,0,1-.71-.3,1,1,0,0,1,0-1.414L5.219-.71a1,1,0,0,1,1.414,0,1,1,0,0,1,0,1.414L.7,6.593A1,1,0,0,1,0,6.883Z" transform="translate(-848.271 -2215.679)" fill="#5bb3b3" />
            <path d="M0,6.883a1,1,0,0,1-.71-.3,1,1,0,0,1,0-1.414L5.219-.71a1,1,0,0,1,1.414,0,1,1,0,0,1,0,1.414L.7,6.593A1,1,0,0,1,0,6.883Z" transform="translate(-887.533 -2176.688)" fill="#5bb3b3" />
            <path d="M0,8.727a1,1,0,0,1-.378-.075,1,1,0,0,1-.547-1.3L2.236-.379a1,1,0,0,1,1.3-.547,1,1,0,0,1,.547,1.3L.926,8.106A1,1,0,0,1,0,8.727Z" transform="translate(-856.042 -2222.711)" fill="#5bb3b3" />
            <path d="M3.228,8.7a1,1,0,0,1-.923-.614L-.922.387A1,1,0,0,1-.387-.922,1,1,0,0,1,.922-.387l3.228,7.7A1,1,0,0,1,3.228,8.7Z" transform="translate(-877.25 -2222.607)" fill="#5bb3b3" />
            <path d="M7.716,4.189a1,1,0,0,1-.382-.076L-.382.924A1,1,0,0,1-.924-.382,1,1,0,0,1,.382-.924L8.1,2.265a1,1,0,0,1-.382,1.924Z" transform="translate(-894.367 -2205.404)" fill="#5bb3b3" />
            <path d="M0,4.2a1,1,0,0,1-.924-.617,1,1,0,0,1,.54-1.307l7.711-3.2a1,1,0,0,1,1.307.54A1,1,0,0,1,8.094.924L.383,4.125A1,1,0,0,1,0,4.2Z" transform="translate(-843.243 -2205.45)" fill="#5bb3b3" />
            <path d="M0,4.2a1,1,0,0,1-.924-.617,1,1,0,0,1,.54-1.307l7.711-3.2a1,1,0,0,1,1.307.54A1,1,0,0,1,8.094.924L.383,4.125A1,1,0,0,1,0,4.2Z" transform="translate(-894.348 -2184.234)" fill="#5bb3b3" />
        </g>
        <rect width="400" height="28" transform="translate(0 292)" fill="#bfe2e2" />
        <g transform="translate(255.952 233.531)">
            <path d="M144.048,68.188H0c.883-2,1.781-4.3,2.732-6.741C6.95,50.628,12.2,37.164,21.392,37.164a13.586,13.586,0,0,1,7.3,2.508c2.245-6.313,5.709-11.164,10.3-14.416a23.882,23.882,0,0,1,6.96-3.391,26.492,26.492,0,0,1,7.625-1.09c11.672,0,23.873,7.021,31.083,17.888A14.605,14.605,0,0,1,90.4,33.341a16.208,16.208,0,0,1,7.421-1.776A15.221,15.221,0,0,1,110.9,38.541c1.694-4.535,3.914-8.013,6.6-10.337a12.294,12.294,0,0,1,8.192-3.226c7.425,0,14.688,6.9,18.073,17.168.084-.28.186-.609.288-.928V68.186Z" transform="translate(0 -20.775)" fill="#bfe2e2" />
            <path d="M144.048,68.688H-.767l.31-.7c.879-1.991,1.775-4.288,2.723-6.721,4.274-10.96,9.592-24.6,19.126-24.6a13.646,13.646,0,0,1,7.04,2.255c2.284-6.127,5.735-10.859,10.264-14.07A24.38,24.38,0,0,1,45.8,21.386a26.991,26.991,0,0,1,7.769-1.111c11.609,0,23.726,6.84,31.075,17.484A15.132,15.132,0,0,1,90.171,32.9a16.71,16.71,0,0,1,7.65-1.832,15.8,15.8,0,0,1,12.955,6.4,24.689,24.689,0,0,1,6.391-9.64,12.78,12.78,0,0,1,8.52-3.348c7.429,0,14.68,6.651,18.251,16.645l.61.095V68.686Zm-143.285-1H143.548V43.1l-.262-.8c-3.317-10.063-10.389-16.825-17.6-16.825a11.808,11.808,0,0,0-7.865,3.1c-2.62,2.27-4.793,5.679-6.457,10.134l-.355.949-.538-.859a14.724,14.724,0,0,0-12.652-6.742,15.706,15.706,0,0,0-7.191,1.72,14.1,14.1,0,0,0-5.551,5.139l-.41.668-.433-.653C77.117,28.209,65.08,21.275,53.571,21.275a25.992,25.992,0,0,0-7.481,1.069,23.382,23.382,0,0,0-6.815,3.32c-4.5,3.192-7.9,7.961-10.114,14.175l-.212.6-.531-.345a13.1,13.1,0,0,0-7.025-2.428c-8.851,0-14.032,13.288-18.195,23.964C2.354,63.791,1.552,65.849.763,67.688Z" transform="translate(0 -20.775)" fill="rgba(0,0,0,0)" />
        </g>
        <path d="M199.9,65.386H113.5V33.179c.119,0,.24,0,.36,0a14.258,14.258,0,0,1,6.527,1.562,12.846,12.846,0,0,1,5.055,4.681c6.341-9.558,17.073-15.733,27.339-15.733a23.308,23.308,0,0,1,6.707.959,21,21,0,0,1,6.122,2.983,25.518,25.518,0,0,1,9.056,12.68,11.95,11.95,0,0,1,6.418-2.206c8.085,0,12.7,11.841,16.412,21.355.837,2.145,1.627,4.172,2.4,5.931Z" transform="translate(-113.5 220.384)" fill="#bfe2e2" />
        <path d="M199.9,65.886H113V32.691l.488-.012c.124,0,.249,0,.372,0a14.76,14.76,0,0,1,6.757,1.618,13.375,13.375,0,0,1,4.833,4.224c6.479-9.337,17.128-15.332,27.332-15.332a23.808,23.808,0,0,1,6.851.98,21.5,21.5,0,0,1,6.267,3.054,25.735,25.735,0,0,1,9.024,12.336,12.011,12.011,0,0,1,6.16-1.954c8.427,0,13.113,12.017,16.878,21.673.834,2.14,1.622,4.161,2.4,5.911l.31.7Zm-85.9-1h85.138c-.684-1.6-1.378-3.38-2.108-5.251-3.654-9.372-8.2-21.036-15.946-21.036a11.466,11.466,0,0,0-6.145,2.125l-.531.345-.212-.6a25.03,25.03,0,0,0-8.874-12.439,20.5,20.5,0,0,0-5.977-2.912,22.809,22.809,0,0,0-6.563-.937c-10.1,0-20.671,6.088-26.922,15.51l-.433.653-.41-.668a12.346,12.346,0,0,0-4.859-4.5A13.743,13.743,0,0,0,114,33.675Z" transform="translate(-113.5 220.384)" fill="rgba(0,0,0,0)" />
        <path d="M961.479,2692.9a35.323,35.323,0,0,1-13.47-5.761,28.288,28.288,0,0,1-11.577.055c-13.968-2.824-23.01-15.32-20.2-27.911s16.419-20.509,30.387-17.684q1.339.271,2.616.657a34.995,34.995,0,0,1,24.394-3.734,34.511,34.511,0,0,1,17.505,9.147,20.046,20.046,0,0,1,14.225-2.275c9.936,2.009,16.432,10.625,14.506,19.242s-11.544,13.976-21.481,11.968q-.448-.09-.886-.2c-4.486,10.449-15.919,17.229-28.716,17.23A36.846,36.846,0,0,1,961.479,2692.9Z" transform="translate(-954.807 -2599.359)" fill="#c0e1e2" />
        <path d="M968.785,2694.135h0a37.431,37.431,0,0,1-7.4-.746,36.965,36.965,0,0,1-7.3-2.277,34.868,34.868,0,0,1-6.178-3.439,28.517,28.517,0,0,1-5.785.592,29.239,29.239,0,0,1-5.781-.581,28.069,28.069,0,0,1-10.159-4.207,25.541,25.541,0,0,1-7.239-7.3,21.971,21.971,0,0,1,.111-24.608,23.917,23.917,0,0,1,5.73-5.889,26.49,26.49,0,0,1,7.51-3.8,28.193,28.193,0,0,1,8.651-1.348,29.238,29.238,0,0,1,5.783.582c.826.167,1.651.371,2.454.607a34.647,34.647,0,0,1,17.151-4.429,37.452,37.452,0,0,1,7.405.746,36.471,36.471,0,0,1,9.841,3.493,33.525,33.525,0,0,1,7.643,5.52,20.069,20.069,0,0,1,9.954-2.573,21.7,21.7,0,0,1,4.293.432,19.736,19.736,0,0,1,12.7,8.324,15.028,15.028,0,0,1,2.2,11.518,14.772,14.772,0,0,1-2.306,5.232,16.429,16.429,0,0,1-4.038,4.035,19.946,19.946,0,0,1-11.435,3.513,21.693,21.693,0,0,1-4.29-.432c-.164-.033-.331-.069-.5-.106a27.763,27.763,0,0,1-11.275,12.38A34.516,34.516,0,0,1,968.785,2694.135Zm-20.666-7.532.18.127a34.612,34.612,0,0,0,13.28,5.679,36.448,36.448,0,0,0,7.206.726A33.514,33.514,0,0,0,986,2688.509a26.7,26.7,0,0,0,11.039-12.3l.167-.39.412.1c.289.071.58.136.866.194a20.711,20.711,0,0,0,4.092.412,18.938,18.938,0,0,0,10.858-3.33,15.433,15.433,0,0,0,3.794-3.789,13.777,13.777,0,0,0,2.151-4.879,14.036,14.036,0,0,0-2.062-10.755,18.732,18.732,0,0,0-12.055-7.888,20.719,20.719,0,0,0-4.095-.412,19.015,19.015,0,0,0-9.774,2.626l-.333.2-.276-.273a32.457,32.457,0,0,0-7.682-5.615,35.472,35.472,0,0,0-9.571-3.4,36.451,36.451,0,0,0-7.207-.726,33.613,33.613,0,0,0-16.837,4.4l-.187.108-.207-.062c-.839-.253-1.7-.471-2.571-.646a28.238,28.238,0,0,0-5.585-.562,27.2,27.2,0,0,0-8.345,1.3,25.489,25.489,0,0,0-7.228,3.656,22.912,22.912,0,0,0-5.492,5.643,20.971,20.971,0,0,0-.1,23.5,24.551,24.551,0,0,0,6.958,7.019,27.078,27.078,0,0,0,9.8,4.057,28.256,28.256,0,0,0,5.583.561,27.488,27.488,0,0,0,5.789-.615Z" transform="translate(-954.807 -2599.359)" fill="rgba(0,0,0,0)" />
        <path d="M963.647,2684.511a24.568,24.568,0,0,1-9.857-4.7,18.634,18.634,0,0,1-8.472.045,19.379,19.379,0,0,1-11.994-8.391,13.611,13.611,0,0,1-6.946.225c-7.273-1.638-12.026-8.663-10.617-15.689a12.875,12.875,0,0,1,15.721-9.758,14.145,14.145,0,0,1,3.941,1.534,18.446,18.446,0,0,1,17.352-5.1,19.258,19.258,0,0,1,1.915.536,23.352,23.352,0,0,1,17.851-3.045,24.525,24.525,0,0,1,12.811,7.459,13.391,13.391,0,0,1,10.409-1.855c7.272,1.639,12.026,8.663,10.616,15.69a12.873,12.873,0,0,1-15.72,9.757q-.328-.073-.649-.162a22.319,22.319,0,0,1-21.015,14.049A24.314,24.314,0,0,1,963.647,2684.511Z" transform="translate(-838.623 -2632.01)" fill="#c0e1e2" />
        <path d="M968.993,2685.61h0a25.128,25.128,0,0,1-15.323-5.255,19,19,0,0,1-4.194.469,19.661,19.661,0,0,1-11.358-3.641,20.014,20.014,0,0,1-5.008-5.133,13.922,13.922,0,0,1-3.663.488,14.61,14.61,0,0,1-12.048-6.388,13.452,13.452,0,0,1-2.129-10.244,12.844,12.844,0,0,1,4.678-7.606,13.731,13.731,0,0,1,8.466-2.9,14.486,14.486,0,0,1,3.177.356,14.654,14.654,0,0,1,3.744,1.4,18.9,18.9,0,0,1,13.281-5.444,19.454,19.454,0,0,1,4.269.478c.582.131,1.165.291,1.736.475a23.518,23.518,0,0,1,12.573-3.6,25.1,25.1,0,0,1,18.239,7.911,13.7,13.7,0,0,1,7.258-2.051,14.606,14.606,0,0,1,12.046,6.388,13.453,13.453,0,0,1,2.128,10.244,12.84,12.84,0,0,1-4.677,7.605,13.729,13.729,0,0,1-8.465,2.9,14.484,14.484,0,0,1-3.178-.356l-.237-.055a22.06,22.06,0,0,1-8.252,10.041A23.474,23.474,0,0,1,968.993,2685.61Zm-15.084-6.34.191.151a24.127,24.127,0,0,0,14.893,5.189,22.477,22.477,0,0,0,12.51-3.746,21.057,21.057,0,0,0,8.038-9.983l.163-.422.436.12c.21.058.42.11.626.156a13.474,13.474,0,0,0,2.959.332,12.723,12.723,0,0,0,7.846-2.683,11.84,11.84,0,0,0,4.315-7.017c1.354-6.751-3.237-13.527-10.236-15.1a13.471,13.471,0,0,0-2.958-.332,12.684,12.684,0,0,0-7.064,2.115l-.359.239-.289-.319a24.1,24.1,0,0,0-17.786-7.894,22.51,22.51,0,0,0-12.234,3.565l-.2.131-.228-.077a18.85,18.85,0,0,0-1.865-.522,18.449,18.449,0,0,0-4.049-.454,17.9,17.9,0,0,0-12.835,5.414l-.271.278-.337-.193a13.638,13.638,0,0,0-3.8-1.479,13.49,13.49,0,0,0-2.957-.332,12.726,12.726,0,0,0-7.848,2.683,11.843,11.843,0,0,0-4.316,7.017c-1.354,6.751,3.238,13.526,10.237,15.1a13.487,13.487,0,0,0,2.959.332,12.892,12.892,0,0,0,3.732-.548l.359-.108.2.315a19.036,19.036,0,0,0,4.954,5.172,18.661,18.661,0,0,0,10.779,3.456,17.982,17.982,0,0,0,4.2-.5Z" transform="translate(-838.623 -2632.01)" fill="rgba(0,0,0,0)" />
        <g transform="translate(-2.921)">
            <rect width="12.921" height="234.483" transform="translate(198 85.517)" fill="#313e58" />
            <path d="M218.5,79.722H85.126a4.275,4.275,0,0,1-3.81-2.4,4.638,4.638,0,0,1,.395-4.868l9.306-12.627a1.621,1.621,0,0,0,0-1.885L81.71,45.315a4.638,4.638,0,0,1-.395-4.868,4.275,4.275,0,0,1,3.81-2.4H218.5a4.281,4.281,0,0,1,3.436,1.782l11.84,16.325a4.694,4.694,0,0,1,0,5.458l-11.84,16.325a4.278,4.278,0,0,1-3.436,1.784" transform="translate(45.194 73.224)" fill="#f1b981" />
            <path d="M218.5,112.1H85.126a4.279,4.279,0,0,1-3.82-2.4,4.589,4.589,0,0,1,.41-4.827l9.306-12.515a1.576,1.576,0,0,0,0-1.844l-9.3-12.515a4.584,4.584,0,0,1-.41-4.824,4.276,4.276,0,0,1,3.82-2.407H218.5a4.283,4.283,0,0,1,3.431,1.767l11.841,16.185a4.64,4.64,0,0,1,0,5.434l-11.84,16.183A4.288,4.288,0,0,1,218.5,112.1" transform="translate(45.194 96.629)" fill="#ffd964" />
            <path d="M174.38,67.067H153.544a4.79,4.79,0,0,1-4.791-4.778V59.35a4.79,4.79,0,0,1,4.791-4.778H174.38a4.791,4.791,0,0,1,4.792,4.778v2.94a4.791,4.791,0,0,1-4.792,4.778" transform="translate(40.247 15.697)" fill="#313e58" />
            <path d="M152.045,42.29a13.558,13.558,0,1,0,13.574,13.558A13.567,13.567,0,0,0,152.045,42.29m3.776,2.578a11.644,11.644,0,0,1,6.289,5.17l.376.645h-5.2l-.082-.322a21.515,21.515,0,0,0-1.892-4.884l-.521-.964Zm.165,10.98a20.956,20.956,0,0,1-.228,2.856l-.05.371h-7.3l-.05-.371a21.24,21.24,0,0,1-.228-2.856,20.4,20.4,0,0,1,.228-2.856l.051-.369h7.292l.051.369a20.4,20.4,0,0,1,.228,2.856M152.06,43.961l.352.509a20.111,20.111,0,0,1,2.729,5.661l.166.552h-6.5l.166-.552a20.113,20.113,0,0,1,2.729-5.661ZM142.01,50.04a11.61,11.61,0,0,1,6.289-5.172l1.038-.355-.521.964a21.5,21.5,0,0,0-1.894,4.884l-.082.322h-5.2Zm-1.192,8.711a11.394,11.394,0,0,1,0-5.8l.082-.324h5.544l-.058.48a19.711,19.711,0,0,0,0,5.491l.058.48H140.9Zm7.481,8.078a11.614,11.614,0,0,1-6.289-5.17l-.372-.643h5.2l.082.322a21.491,21.491,0,0,0,1.894,4.882l.521.964Zm3.762.907-.353-.509a20.08,20.08,0,0,1-2.729-5.659l-.166-.552h6.5l-.166.552a20.124,20.124,0,0,1-2.729,5.659Zm10.049-6.076a11.649,11.649,0,0,1-6.289,5.168l-1.038.355.523-.964a21.5,21.5,0,0,0,1.892-4.882l.082-.322h5.2Zm1.112-2.585h-5.546l.058-.48a19.714,19.714,0,0,0,0-5.491l-.058-.48h5.546l.081.324a11.343,11.343,0,0,1,0,5.8Z" transform="translate(86.468 76.259)" fill="#313e58" />
            <path d="M152.205,69.949a13.941,13.941,0,1,1,13.953-13.941,13.95,13.95,0,0,1-13.953,13.941m0-27.119a13.178,13.178,0,1,0,13.19,13.178,13.186,13.186,0,0,0-13.19-13.178m.014,25.738-.667-.966a20.484,20.484,0,0,1-2.781-5.765l-.316-1.045h7.525l-.314,1.045a20.53,20.53,0,0,1-2.781,5.765Zm-2.734-7.011.017.06a19.75,19.75,0,0,0,2.679,5.553l.038.053.038-.053a19.765,19.765,0,0,0,2.678-5.553l.017-.06Zm4.654,6.467.99-1.827a21.049,21.049,0,0,0,1.858-4.795l.156-.611h6.167l-.71,1.218a12.007,12.007,0,0,1-6.5,5.338Zm3.6-6.467-.009.036a21.867,21.867,0,0,1-1.925,4.968l-.057.1.111-.039a11.256,11.256,0,0,0,6.083-5l.041-.069ZM150.3,68.024l-1.964-.676a11.986,11.986,0,0,1-6.494-5.34l-.705-1.216H147.3l.154.612A21.059,21.059,0,0,0,149.31,66.2Zm-7.838-6.467.039.069a11.22,11.22,0,0,0,6.083,5l.113.041-.057-.106a21.878,21.878,0,0,1-1.928-4.968l-.009-.036Zm21.219-1.938H157.4l.111-.909a22.518,22.518,0,0,0,.189-2.7,23.137,23.137,0,0,0-.189-2.7L157.4,52.4h6.275l.154.614a11.776,11.776,0,0,1,0,5.987Zm-5.412-.765,4.825-.036a11,11,0,0,0,0-5.618l-.009-.036h-4.815l.005.051a20.05,20.05,0,0,1,0,5.587Zm-2.065.765h-7.963l-.094-.7a21.26,21.26,0,0,1-.232-2.908,20.588,20.588,0,0,1,.232-2.909l.1-.7H156.2l.1.7a20.95,20.95,0,0,1,.232,2.909,21.655,21.655,0,0,1-.232,2.908Zm-7.3-.765,6.632-.041a20.672,20.672,0,0,0,.225-2.8,20.145,20.145,0,0,0-.223-2.8l-.007-.043-6.633.043a20.294,20.294,0,0,0-.223,2.8,20.833,20.833,0,0,0,.223,2.8Zm-1.871.765H140.76L140.607,59a11.706,11.706,0,0,1,0-5.988l.153-.614h6.273l-.108.907a19.247,19.247,0,0,0,0,5.4Zm-5.678-.765h4.817l-.005-.051a19.865,19.865,0,0,1,0-5.585l.005-.053-4.825.036a10.98,10.98,0,0,0,0,5.618Zm21.954-7.628h-6.167l-.156-.611a21.067,21.067,0,0,0-1.858-4.795L154.142,44l1.961.672a12.031,12.031,0,0,1,6.5,5.338Zm-5.575-.765h4.246l-.041-.069a11.256,11.256,0,0,0-6.083-5l-.111-.039.057.1a21.863,21.863,0,0,1,1.925,4.971Zm-1.753.765h-7.525l.316-1.045a20.493,20.493,0,0,1,2.781-5.767l.667-.964.667.966a20.494,20.494,0,0,1,2.781,5.767Zm-6.5-.765h5.467l-.017-.06a19.7,19.7,0,0,0-2.678-5.553l-.038-.053-.038.053A19.772,19.772,0,0,0,149.5,50.4Zm-2.189.765h-6.163l.705-1.218a12,12,0,0,1,6.5-5.34L150.3,44l-.986,1.825a21.1,21.1,0,0,0-1.859,4.795Zm-4.837-.765,4.251-.034a21.871,21.871,0,0,1,1.928-4.971l.057-.1-.113.041a11.22,11.22,0,0,0-6.083,5Z" transform="translate(86.309 76.1)" fill="#313e58" />
            <path d="M158.173,90.59h-.01a4.064,4.064,0,0,0-2.619.973L148.082,87.8l0-.034,7.234-4.489a4.09,4.09,0,0,0,6.966-2.918v-.015a4.115,4.115,0,0,0-4.117-4.115h-.005a4.12,4.12,0,0,0-4.117,4.115c0,.041.009.079.01.118l-7.013,4.352a4.1,4.1,0,1,0-3.055,6.832h.005a4.079,4.079,0,0,0,2.751-1.1l7.342,3.707a4.171,4.171,0,0,0-.039.463,4.119,4.119,0,0,0,8.237.005v-.005a4.117,4.117,0,0,0-4.112-4.124" transform="translate(87.45 100.535)" fill="#313e58" />
            <path d="M154.359,81.261H95.131a1.528,1.528,0,1,1,0-3.057h59.227a1.528,1.528,0,1,1,0,3.057" transform="translate(54.349 101.952)" fill="#313e58" />
            <path d="M154.359,88.7H95.131a1.528,1.528,0,1,1,0-3.057h59.227a1.528,1.528,0,1,1,0,3.057" transform="translate(54.349 107.272)" fill="#313e58" />
            <path d="M154.359,48.939H95.131a1.528,1.528,0,1,1,0-3.057h59.227a1.528,1.528,0,1,1,0,3.057" transform="translate(54.349 78.829)" fill="#313e58" />
            <path d="M154.359,55.781H95.131a1.528,1.528,0,0,1,0-3.057h59.227a1.528,1.528,0,1,1,0,3.057" transform="translate(54.349 83.724)" fill="#313e58" />
        </g>
    </g>
</svg>