<svg xmlns="http://www.w3.org/2000/svg" xmlns:xlink="http://www.w3.org/1999/xlink" width="400" height="320" viewBox="0 0 400 320">
    <defs>
        <clipPath >
            <rect width="400" height="320" />
        </clipPath>
    </defs>
    <g clip-path="url(#b)">
        <rect width="400" height="320" fill="transparent" />
        <g transform="translate(4 9.131)">
            <path d="M180.22,181.206a1,1,0,0,1-1-1v-90.5H1.761a1,1,0,0,1,0-2H180.22a1,1,0,0,1,1,1v91.5A1,1,0,0,1,180.22,181.206Z" transform="translate(80.438 56.392)" fill="#5bb3b3" />
            <path d="M178.419,1H0A1,1,0,0,1-1,0,1,1,0,0,1,0-1H178.419a1,1,0,0,1,1,1A1,1,0,0,1,178.419,1Z" transform="translate(82.056 158.017)" fill="#5bb3b3" />
            <path d="M0-1H12.919a1,1,0,0,1,1,1V38.758a1,1,0,0,1-1,1H0a1,1,0,0,1-1-1V0A1,1,0,0,1,0-1ZM11.919,1H1V37.758H11.919Z" transform="translate(163.5 173.682)" fill="#5bb3b3" />
            <path d="M0-1H12.919a1,1,0,0,1,1,1V38.758a1,1,0,0,1-1,1H0a1,1,0,0,1-1-1V0A1,1,0,0,1,0-1ZM11.919,1H1V37.758H11.919Z" transform="translate(199.5 173.682)" fill="#5bb3b3" />
            <path d="M0-1H12.919a1,1,0,0,1,1,1V38.758a1,1,0,0,1-1,1H0a1,1,0,0,1-1-1V0A1,1,0,0,1,0-1ZM11.919,1H1V37.758H11.919Z" transform="translate(126.5 173.682)" fill="#5bb3b3" />
            <path d="M0-1H12.919a1,1,0,0,1,1,1V38.758a1,1,0,0,1-1,1H0a1,1,0,0,1-1-1V0A1,1,0,0,1,0-1ZM11.919,1H1V37.758H11.919Z" transform="translate(90.5 173.682)" fill="#5bb3b3" />
            <path d="M0-1H12.919a1,1,0,0,1,1,1V38.758a1,1,0,0,1-1,1H0a1,1,0,0,1-1-1V0A1,1,0,0,1,0-1ZM11.919,1H1V37.758H11.919Z" transform="translate(235.5 173.682)" fill="#5bb3b3" />
        </g>
        <rect width="400" height="24.623" transform="translate(0 295.377)" fill="#bfe2e2" />
        <path d="M410.412,51.162h0a60.133,60.133,0,0,0-.065-8.89,40.429,40.429,0,0,0-1.3-7.628,18.036,18.036,0,0,0-3.229-6.637,8.947,8.947,0,0,0-6.859-3.39c-.814-.024-1.55-.044-2.292-.044-2.815,0-5.992.276-8.21,2.326.281-5.417-3.911-10.746-9.54-12.131a20.628,20.628,0,0,0-4.866-.572,17.857,17.857,0,0,0-6.649,1.186,8.793,8.793,0,0,0-4.634,3.841,30.012,30.012,0,0,0-9.738-12.439A33.166,33.166,0,0,0,338,.369,32.7,32.7,0,0,0,333.086,0a35.077,35.077,0,0,0-13.8,2.872,31.746,31.746,0,0,0-11.211,8.01,4.181,4.181,0,0,0-.954-3.266,8.245,8.245,0,0,0-6.283-2.731,7.539,7.539,0,0,0-2.16.3,13.072,13.072,0,0,0-5.421,3.376,38.218,38.218,0,0,0-4.1,5.016,10.963,10.963,0,0,0-9.1-4.636,10.174,10.174,0,0,0-8.837,5.016V50.825Z" transform="translate(-271.218 258.526)" fill="#bfe2e2" />
        <path d="M86.242,1H0A1,1,0,0,1-1,0,1,1,0,0,1,0-1H86.242a1,1,0,0,1,1,1A1,1,0,0,1,86.242,1Z" transform="translate(272.365 133.581)" fill="#5bb3b3" />
        <path d="M305.973,91.907a1,1,0,0,1-1-1V26.318a1,1,0,0,1,.689-.951L383.159.049A1,1,0,0,1,384.469,1V57.224a1,1,0,1,1-2,0V2.379l-75.5,24.665V90.907A1,1,0,0,1,305.973,91.907Z" transform="translate(-54.266 56.473)" fill="#5bb3b3" />
        <path d="M0,25.509a1,1,0,0,1-1-1V0A1,1,0,0,1,0-1,1,1,0,0,1,1,0V24.509A1,1,0,0,1,0,25.509Z" transform="translate(264.658 175.787)" fill="#5bb3b3" />
        <path d="M63.41,1H0A1,1,0,0,1-1,0,1,1,0,0,1,0-1H63.41a1,1,0,0,1,1,1A1,1,0,0,1,63.41,1Z" transform="translate(281.187 154.843)" fill="#5bb3b3" />
        <path transform="translate(284.056 172.776)" fill="#5bb3b3" />
        <path d="M63.41,1H0A1,1,0,0,1-1,0,1,1,0,0,1,0-1H63.41a1,1,0,0,1,1,1A1,1,0,0,1,63.41,1Z" transform="translate(281.187 179.843)" fill="#5bb3b3" />
        <path d="M63.41,1H0A1,1,0,0,1-1,0,1,1,0,0,1,0-1H63.41a1,1,0,0,1,1,1A1,1,0,0,1,63.41,1Z" transform="translate(281.187 203.843)" fill="#5bb3b3" />
        <path d="M63.41,1H0A1,1,0,0,1-1,0,1,1,0,0,1,0-1H63.41a1,1,0,0,1,1,1A1,1,0,0,1,63.41,1Z" transform="translate(281.187 228.843)" fill="#5bb3b3" />
        <path d="M460.867,194.737a1,1,0,0,1-1-1V61.514l-111.237.939V91.032a1,1,0,0,1-2,0V61.461a1,1,0,0,1,.992-1l113.237-.956a1,1,0,0,1,1.008,1V193.737A1,1,0,0,1,460.867,194.737Z" transform="translate(-85.312 54.473)" fill="#5bb3b3" />
        <path d="M77.325,1H0A1,1,0,0,1-1,0,1,1,0,0,1,0-1H77.325a1,1,0,0,1,1,1A1,1,0,0,1,77.325,1Z" transform="translate(251.707 94.707)" fill="#5bb3b3" />
        <path d="M0,24.232a1,1,0,0,1-1-1V0A1,1,0,0,1,0-1,1,1,0,0,1,1,0V23.232A1,1,0,0,1,0,24.232Z" transform="translate(318.506 65.585)" fill="#5bb3b3" />
        <path d="M0,18.825a1,1,0,0,1-1-1V0A1,1,0,0,1,0-1,1,1,0,0,1,1,0V17.825A1,1,0,0,1,0,18.825Z" transform="translate(307.069 70.991)" fill="#5bb3b3" />
        <path d="M0,15.149a1,1,0,0,1-1-1V0A1,1,0,0,1,0-1,1,1,0,0,1,1,0V14.149A1,1,0,0,1,0,15.149Z" transform="translate(295.631 74.668)" fill="#5bb3b3" />
        <path d="M0,12.259a1,1,0,0,1-1-1V0A1,1,0,0,1,0-1,1,1,0,0,1,1,0V11.259A1,1,0,0,1,0,12.259Z" transform="translate(284.193 77.557)" fill="#5bb3b3" />
        <path d="M0,8.543a1,1,0,0,1-1-1V0A1,1,0,0,1,0-1,1,1,0,0,1,1,0V7.543A1,1,0,0,1,0,8.543Z" transform="translate(272.755 81.273)" fill="#5bb3b3" />
        <path d="M0,5.446a1,1,0,0,1-1-1V0A1,1,0,0,1,0-1,1,1,0,0,1,1,0V4.446A1,1,0,0,1,0,5.446Z" transform="translate(261.318 84.37)" fill="#5bb3b3" />
        <path d="M11.517,141.642H1.136A2.242,2.242,0,0,1-1,139.312V123.2a2.242,2.242,0,0,1,2.136-2.33H11.517a2.241,2.241,0,0,1,2.135,2.33v16.112A2.241,2.241,0,0,1,11.517,141.642Zm0-18.773H1.136A.38.38,0,0,0,1,123.2v16.112a.371.371,0,0,0,.14.331H11.514a.378.378,0,0,0,.138-.33V123.2A.373.373,0,0,0,11.513,122.869Z" transform="translate(8.532 75.071)" fill="#5bb3b3" />
        <path d="M11.517,141.642H1.136A2.242,2.242,0,0,1-1,139.312V123.2a2.242,2.242,0,0,1,2.136-2.33H11.517a2.241,2.241,0,0,1,2.135,2.33v16.112A2.241,2.241,0,0,1,11.517,141.642Zm0-18.773H1.136A.38.38,0,0,0,1,123.2v16.112a.371.371,0,0,0,.14.331H11.514a.378.378,0,0,0,.138-.33V123.2A.373.373,0,0,0,11.513,122.869Z" transform="translate(32.857 75.071)" fill="#5bb3b3" />
        <path d="M11.517,141.642H1.136A2.242,2.242,0,0,1-1,139.312V123.2a2.242,2.242,0,0,1,2.136-2.33H11.517a2.241,2.241,0,0,1,2.135,2.33v16.112A2.241,2.241,0,0,1,11.517,141.642Zm0-18.773H1.136A.38.38,0,0,0,1,123.2v16.112a.371.371,0,0,0,.14.331H11.514a.378.378,0,0,0,.138-.33V123.2A.373.373,0,0,0,11.513,122.869Z" transform="translate(56.182 39.948)" fill="#5bb3b3" />
        <path d="M11.517,141.642H1.136A2.242,2.242,0,0,1-1,139.312V123.2a2.242,2.242,0,0,1,2.136-2.33H11.517a2.241,2.241,0,0,1,2.135,2.33v16.112A2.241,2.241,0,0,1,11.517,141.642Zm0-18.773H1.136A.38.38,0,0,0,1,123.2v16.112a.371.371,0,0,0,.14.331H11.514a.378.378,0,0,0,.138-.33V123.2A.373.373,0,0,0,11.513,122.869Z" transform="translate(56.182 75.071)" fill="#5bb3b3" />
        <path d="M-1323.865-4674.068a1,1,0,0,1-1-1v-108.186a1,1,0,0,1,1-1,1,1,0,0,1,1,1v108.186A1,1,0,0,1-1323.865-4674.068Z" transform="translate(1405.372 4895.119)" fill="#5bb3b3" />
        <path d="M11.517,141.642H1.136A2.242,2.242,0,0,1-1,139.312V123.2a2.242,2.242,0,0,1,2.136-2.33H11.517a2.241,2.241,0,0,1,2.135,2.33v16.112A2.241,2.241,0,0,1,11.517,141.642Zm0-18.773H1.136A.38.38,0,0,0,1,123.2v16.112a.371.371,0,0,0,.14.331H11.514a.378.378,0,0,0,.138-.33V123.2A.373.373,0,0,0,11.513,122.869Z" transform="translate(8.532 39.948)" fill="#5bb3b3" />
        <path d="M11.517,141.642H1.136A2.242,2.242,0,0,1-1,139.312V123.2a2.242,2.242,0,0,1,2.136-2.33H11.517a2.241,2.241,0,0,1,2.135,2.33v16.112A2.241,2.241,0,0,1,11.517,141.642Zm0-18.773H1.136A.38.38,0,0,0,1,123.2v16.112a.371.371,0,0,0,.14.331H11.514a.378.378,0,0,0,.138-.33V123.2A.373.373,0,0,0,11.513,122.869Z" transform="translate(8.532 4.825)" fill="#5bb3b3" />
        <path d="M11.517,141.642H1.136A2.242,2.242,0,0,1-1,139.312V123.2a2.242,2.242,0,0,1,2.136-2.33H11.517a2.241,2.241,0,0,1,2.135,2.33v16.112A2.241,2.241,0,0,1,11.517,141.642Zm0-18.773H1.136A.38.38,0,0,0,1,123.2v16.112a.371.371,0,0,0,.14.331H11.514a.378.378,0,0,0,.138-.33V123.2A.373.373,0,0,0,11.513,122.869Z" transform="translate(32.857 39.948)" fill="#5bb3b3" />
        <path d="M11.517,141.642H1.136A2.242,2.242,0,0,1-1,139.312V123.2a2.242,2.242,0,0,1,2.136-2.33H11.517a2.241,2.241,0,0,1,2.135,2.33v16.112A2.241,2.241,0,0,1,11.517,141.642Zm0-18.773H1.136A.38.38,0,0,0,1,123.2v16.112a.371.371,0,0,0,.14.331H11.514a.378.378,0,0,0,.138-.33V123.2A.373.373,0,0,0,11.513,122.869Z" transform="translate(32.857 4.825)" fill="#5bb3b3" />
        <path d="M11.517,141.642H1.136A2.242,2.242,0,0,1-1,139.312V123.2a2.242,2.242,0,0,1,2.136-2.33H11.517a2.241,2.241,0,0,1,2.135,2.33v16.112A2.241,2.241,0,0,1,11.517,141.642Zm0-18.773H1.136A.38.38,0,0,0,1,123.2v16.112a.371.371,0,0,0,.14.331H11.514a.378.378,0,0,0,.138-.33V123.2A.373.373,0,0,0,11.513,122.869Z" transform="translate(56.182 4.825)" fill="#5bb3b3" />
        <path d="M-1307.57-4778.642h-82.93a1,1,0,0,1-1-1,1,1,0,0,1,1-1h81.625l-3.724-13.812h-77.9a1,1,0,0,1-1-1,1,1,0,0,1,1-1h78.666a1,1,0,0,1,.966.74l4.264,15.812a1,1,0,0,1-.172.868A1,1,0,0,1-1307.57-4778.642Z" transform="translate(1390.5 4891.231)" fill="#5bb3b3" />
        <g transform="translate(1125.154 1411)">
            <path d="M59.41,16.659a19.372,19.372,0,1,1-7.564,1.527A19.31,19.31,0,0,1,59.41,16.659Zm0,36.862a17.43,17.43,0,1,0-12.325-5.105A17.317,17.317,0,0,0,59.41,53.521Z" transform="translate(-1135.35 -1407.287)" fill="#5bb3b3" />
            <path d="M0,9.349a1,1,0,0,1-1-1V0A1,1,0,0,1,0-1,1,1,0,0,1,1,0V8.349A1,1,0,0,1,0,9.349Z" transform="translate(-1075.939 -1347.252)" fill="#5bb3b3" />
            <path d="M5.9,6.9A1,1,0,0,1,5.2,6.61l-5.9-5.9a1,1,0,0,1,0-1.414,1,1,0,0,1,1.414,0l5.9,5.9A1,1,0,0,1,5.9,6.9Z" transform="translate(-1059.328 -1354.133)" fill="#5bb3b3" />
            <path d="M8.349,1.029h0L0,1A1,1,0,0,1-1,0,1,1,0,0,1,0-1l8.349.029a1,1,0,0,1,0,2Z" transform="translate(-1052.447 -1370.663)" fill="#5bb3b3" />
            <path d="M0,8.727a1,1,0,0,1-.378-.075,1,1,0,0,1-.547-1.3L2.236-.379a1,1,0,0,1,1.3-.547,1,1,0,0,1,.547,1.3L.926,8.106A1,1,0,0,1,0,8.727Z" transform="translate(-1088 -1349.002)" fill="#5bb3b3" />
            <path d="M3.228,8.7a1,1,0,0,1-.923-.614L-.922.387A1,1,0,0,1-.387-.922,1,1,0,0,1,.922-.387l3.228,7.7A1,1,0,0,1,3.228,8.7Z" transform="translate(-1066.857 -1349.078)" fill="#5bb3b3" />
            <path d="M7.716,4.189a1,1,0,0,1-.382-.076L-.382.924A1,1,0,0,1-.924-.382,1,1,0,0,1,.382-.924L8.1,2.265a1,1,0,0,1-.382,1.924Z" transform="translate(-1054.229 -1361.772)" fill="#5bb3b3" />
            <path d="M0,9.349a1,1,0,0,1-1-1V0A1,1,0,0,1,0-1,1,1,0,0,1,1,0V8.349A1,1,0,0,1,0,9.349Z" transform="translate(-1075.939 -1402.586)" fill="#5bb3b3" />
            <path d="M5.9,6.9A1,1,0,0,1,5.2,6.61l-5.9-5.9a1,1,0,0,1,0-1.414,1,1,0,0,1,1.414,0l5.9,5.9A1,1,0,0,1,5.9,6.9Z" transform="translate(-1098.455 -1393.26)" fill="#5bb3b3" />
            <path d="M8.349,1.029h0L0,1A1,1,0,0,1-1,0,1,1,0,0,1,0-1l8.349.029a1,1,0,0,1,0,2Z" transform="translate(-1107.781 -1370.855)" fill="#5bb3b3" />
            <path d="M0,6.883a1,1,0,0,1-.71-.3,1,1,0,0,1,0-1.414L5.219-.71a1,1,0,0,1,1.414,0,1,1,0,0,1,0,1.414L.7,6.593A1,1,0,0,1,0,6.883Z" transform="translate(-1059.271 -1393.181)" fill="#5bb3b3" />
            <path d="M0,6.883a1,1,0,0,1-.71-.3,1,1,0,0,1,0-1.414L5.219-.71a1,1,0,0,1,1.414,0,1,1,0,0,1,0,1.414L.7,6.593A1,1,0,0,1,0,6.883Z" transform="translate(-1098.533 -1354.19)" fill="#5bb3b3" />
            <path d="M0,8.727a1,1,0,0,1-.378-.075,1,1,0,0,1-.547-1.3L2.236-.379a1,1,0,0,1,1.3-.547,1,1,0,0,1,.547,1.3L.926,8.106A1,1,0,0,1,0,8.727Z" transform="translate(-1067.042 -1400.214)" fill="#5bb3b3" />
            <path d="M3.228,8.7a1,1,0,0,1-.923-.614L-.922.387A1,1,0,0,1-.387-.922,1,1,0,0,1,.922-.387l3.228,7.7A1,1,0,0,1,3.228,8.7Z" transform="translate(-1088.25 -1400.11)" fill="#5bb3b3" />
            <path d="M7.716,4.189a1,1,0,0,1-.382-.076L-.382.924A1,1,0,0,1-.924-.382,1,1,0,0,1,.382-.924L8.1,2.265a1,1,0,0,1-.382,1.924Z" transform="translate(-1105.367 -1382.906)" fill="#5bb3b3" />
            <path d="M0,4.2a1,1,0,0,1-.924-.617,1,1,0,0,1,.54-1.307l7.711-3.2a1,1,0,0,1,1.307.54A1,1,0,0,1,8.094.924L.383,4.125A1,1,0,0,1,0,4.2Z" transform="translate(-1054.243 -1382.953)" fill="#5bb3b3" />
            <path d="M0,4.2a1,1,0,0,1-.924-.617,1,1,0,0,1,.54-1.307l7.711-3.2a1,1,0,0,1,1.307.54A1,1,0,0,1,8.094.924L.383,4.125A1,1,0,0,1,0,4.2Z" transform="translate(-1105.348 -1361.737)" fill="#5bb3b3" />
        </g>
        <g transform="translate(1810.434 929.606)">
            <path d="M62.635,93.546H88.464c9.121,0,16.583-8.944,16.583-19.877v-2.15c0-7.51-3.522-14.084-8.687-17.461a28.69,28.69,0,0,0,.171-2.968c0-13.056-8.83-23.637-19.721-23.637-.2,0-.4.027-.6.036.086-.892.14-1.8.14-2.715,0-13.056-8.83-23.637-19.721-23.637S36.9,11.718,36.9,24.774c0,.232.024.46.03.688-9.843,1.329-17.5,11.328-17.5,23.479,0,.916.054,1.815.138,2.7H17.72c-9.121,0-16.583,8.944-16.583,19.877v2.15C1.137,84.6,8.6,93.546,17.72,93.546H48.8" transform="translate(-1511.502 -810.878)" fill="#bfe2e2" />
            <g transform="translate(-1475.658 -773.424)">
                <path d="M38.431,105.847h-.017a1,1,0,0,1-.984-1.016c.006-.347.558-34.894,0-47.419q0-.026,0-.052a35.961,35.961,0,0,0-2.032-12,19.488,19.488,0,0,0-3.345-5.9,12.446,12.446,0,0,0-5.49-3.784,1,1,0,1,1,.643-1.894,14.419,14.419,0,0,1,6.366,4.378,21.469,21.469,0,0,1,3.7,6.5,34.213,34.213,0,0,1,1.735,6.923,38.159,38.159,0,0,1,.423,5.761c.558,12.606.005,47.167,0,47.515A1,1,0,0,1,38.431,105.847Z" transform="translate(-26.885 -14.315)" fill="#5bb3b3" />
                <path d="M41.836,102.334a1,1,0,0,1-1-1V53.9a14.434,14.434,0,0,1,3.129-9.823c2.49-2.957,6.264-4.646,11.216-5.019a1,1,0,1,1,.15,1.994c-4.386.331-7.69,1.776-9.822,4.3a11.488,11.488,0,0,0-2.5,5.547,12.2,12.2,0,0,0-.18,2.87c0,.03,0,.063,0,.093v47.48A1,1,0,0,1,41.836,102.334Z" transform="translate(-14.431 -10.802)" fill="#5bb3b3" />
                <path d="M41.247,42.169a1,1,0,0,1-.936-.647,20.386,20.386,0,0,0-3.363-5.891,15.985,15.985,0,0,0-3.729-3.288,12.285,12.285,0,0,0-4.31-1.777,1,1,0,1,1,.269-1.982,13.927,13.927,0,0,1,5.008,2,17.939,17.939,0,0,1,4.245,3.7,22.335,22.335,0,0,1,3.75,6.527,1,1,0,0,1-.935,1.354Z" transform="translate(-25.081 -17.718)" fill="#5bb3b3" />
                <path d="M0,15.907a1,1,0,0,1-1-1V0A1,1,0,0,1,0-1,1,1,0,0,1,1,0V14.907A1,1,0,0,1,0,15.907Z" transform="translate(23.18)" fill="#5bb3b3" />
                <path d="M38.691,47.11a1,1,0,0,1-.982-1.2,13.1,13.1,0,0,1,2.6-5.123,14.811,14.811,0,0,1,4.459-3.709,19.358,19.358,0,0,1,7.55-2.18,1,1,0,0,1,.185,1.991A17.424,17.424,0,0,0,45.791,38.8a12.845,12.845,0,0,0-3.858,3.165,11.355,11.355,0,0,0-2.263,4.342A1,1,0,0,1,38.691,47.11Z" transform="translate(-17.035 -13.546)" fill="#5bb3b3" />
            </g>
        </g>
        <path d="M271.326,37.861h0a40.624,40.624,0,0,1,.053-6.579,27.549,27.549,0,0,1,1.055-5.645,12.9,12.9,0,0,1,2.618-4.912,7.521,7.521,0,0,1,5.562-2.509c.66-.018,1.257-.033,1.858-.033,2.282,0,4.858.2,6.657,1.721-.227-4.009,3.171-7.952,7.735-8.978a18.252,18.252,0,0,1,3.946-.423,15.719,15.719,0,0,1,5.391.878,7.02,7.02,0,0,1,3.757,2.843,22.646,22.646,0,0,1,7.9-9.205A28.281,28.281,0,0,1,330.04.273,29,29,0,0,1,334.024,0c3.835.007,18.157,4.832,21.856,11.383,3.43,1.319,27.221-2.678,28.308,26.228Z" transform="translate(-235.361 209.912)" fill="#bfe2e2" />
        <path d="M400,1H0A1,1,0,0,1-1,0,1,1,0,0,1,0-1H400a1,1,0,0,1,1,1A1,1,0,0,1,400,1Z" transform="translate(0 248.21)" fill="#5bb3b3" />
        <g transform="translate(436.14 1512.565)">
            <rect width="14.553" height="248.429" transform="translate(-243 -1440.994)" fill="#1f3048" />
            <g transform="translate(-0.039 9.819)">
                <g transform="translate(0 7)">
                    <path d="M157.267,144.161H61.408a1.245,1.245,0,0,1-.99-.49L45.139,123.58a1.243,1.243,0,0,1,0-1.509L60.418,102.03a1.244,1.244,0,0,1,.99-.489h95.7a7.523,7.523,0,0,1,5.041,1.7,4.614,4.614,0,0,1,1.376,3.414v32.4a4.614,4.614,0,0,1-1.379,3.411,7.418,7.418,0,0,1-4.883,1.7" transform="translate(-377.844 -1534.5)" fill="#ffcf4c" />
                    <path d="M66.693,129.479a1.24,1.24,0,0,1-.88-.367l-5.522-5.522a1.244,1.244,0,0,1,0-1.759l0,0,5.522-5.523a1.246,1.246,0,0,1,1.762,1.762l-4.643,4.64,4.643,4.643a1.246,1.246,0,0,1-.881,2.126Z" transform="translate(-377.792 -1534.45)" fill="#1f3048" />
                    <path d="M147.181,117.238H81.344a1.251,1.251,0,0,1,0-2.491h65.837a1.251,1.251,0,0,1,0,2.491" transform="translate(-377.722 -1534.455)" fill="#1f3048" />
                    <path d="M147.069,131.73H81.534a1.245,1.245,0,0,1,0-2.491h65.534a1.245,1.245,0,1,1,.005,2.491Z" transform="translate(-377.722 -1534.404)" fill="#1f3048" />
                </g>
                <g transform="translate(0 13)">
                    <path d="M174.764,144.161a7.4,7.4,0,0,1-4.858-1.7,4.606,4.606,0,0,1-1.379-3.411V106.656a4.606,4.606,0,0,1,1.379-3.411,7.543,7.543,0,0,1,5.04-1.7h95.7a1.245,1.245,0,0,1,.99.49l15.28,20.041a1.246,1.246,0,0,1,0,1.509l-15.28,20.086a1.245,1.245,0,0,1-.99.49H174.764Z" transform="translate(-426.416 -1489.5)" fill="#ffcf4c" />
                    <path d="M264.98,129.477a1.246,1.246,0,0,1-.88-2.126l4.642-4.642-4.642-4.641a1.246,1.246,0,0,1,1.762-1.761l5.522,5.522a1.243,1.243,0,0,1,0,1.759l0,0-5.522,5.522a1.242,1.242,0,0,1-.882.364" transform="translate(-426.086 -1489.45)" fill="#1f3048" />
                    <path d="M250.46,117.238H184.7a1.251,1.251,0,0,1,0-2.491H250.46a1.251,1.251,0,0,1,0,2.491" transform="translate(-426.364 -1489.455)" fill="#1f3048" />
                    <path d="M250.343,131.73H184.814a1.245,1.245,0,0,1-.005-2.491h65.533a1.245,1.245,0,0,1,0,2.491" transform="translate(-426.364 -1489.404)" fill="#1f3048" />
                </g>
            </g>
            <path d="M177.618,68.689H154.15a5.4,5.4,0,0,1-5.4-5.4V59.97a5.4,5.4,0,0,1,5.4-5.4h23.468a5.405,5.405,0,0,1,5.4,5.4v3.321a5.4,5.4,0,0,1-5.4,5.4" transform="translate(-401.753 -1511.664)" fill="#1f3048" />
        </g>
    </g>
</svg>