<svg xmlns="http://www.w3.org/2000/svg" xmlns:xlink="http://www.w3.org/1999/xlink" width="400" height="320" viewBox="0 0 400 320">
    <defs>
        <clipPath>
            <rect width="400" height="320" />
        </clipPath>
    </defs>
    <g clip-path="url(#b)">
        <path d="M39.649,176.122s5.9-8.851,13.276-5.9c4.426-8.85,11.156-4.283,11.156-4.283s9.5-8.993,15.4-1.617c13.276-4.426,11.418,11.8,11.418,11.8" transform="translate(-30.459 45.724)" fill="#bfe2e2" />
        <path d="M132.888,233.685h44.664a11.868,11.868,0,0,0,12.028-11.632l.009-1.266a11.755,11.755,0,0,0-7.371-10.89,11.564,11.564,0,0,0,3.789-8.445l.022-3.166a11.869,11.869,0,0,0-11.869-11.8h-.053a14.289,14.289,0,0,0-26.7-.182h-.053a11.867,11.867,0,0,0-12.029,11.631l-.021,3.166a11.279,11.279,0,0,0,.2,2.21" transform="translate(-25.399 53.206)" fill="#bfe2e2" />
        <path d="M135.627,237.585l13.063.089a8.412,8.412,0,0,0,8.445-8.33l.007-.907a8.411,8.411,0,0,0-4.344-7.4,10.164,10.164,0,0,0,.1-1.25,9.975,9.975,0,0,0-9.907-10.043c-.1,0-.2.01-.3.012a10.089,10.089,0,0,0,.078-1.145,9.974,9.974,0,1,0-19.948-.136c0,.1.01.194.012.291a9.971,9.971,0,0,0-8.916,9.846,9.817,9.817,0,0,0,.062,1.141l-.939-.007a8.412,8.412,0,0,0-8.445,8.33l-.006.907a8.412,8.412,0,0,0,8.33,8.445l15.717.107" transform="translate(-33.948 55.884)" fill="#bfe2e2" />
        <path d="M79.105,122.3s4.516-9.688,11.739-7.917c4.333-8.853,10.111-3.541,10.111-3.541s8.667-14.165,17.335-1.771c5.778-5.311,10.111,3.541,10.111,3.541s10.112-7.082,13,8.853" transform="translate(-29.24 39)" fill="#bfe2e2" />
        <path d="M947.266,2640.016a18.152,18.152,0,0,1,7.283,3.471,13.768,13.768,0,0,1,6.259-.033,14.319,14.319,0,0,1,8.861,6.2,10.219,10.219,0,0,1,12.976,11.425,9.512,9.512,0,0,1-11.615,7.209,10.447,10.447,0,0,1-2.912-1.133,13.627,13.627,0,0,1-12.82,3.767,14.234,14.234,0,0,1-1.414-.4,17.252,17.252,0,0,1-13.189,2.25,18.119,18.119,0,0,1-9.465-5.511,9.892,9.892,0,0,1-7.691,1.371,10.069,10.069,0,0,1-7.843-11.592,9.511,9.511,0,0,1,11.614-7.208q.242.054.479.119a16.49,16.49,0,0,1,15.526-10.38A17.985,17.985,0,0,1,947.266,2640.016Z" transform="translate(-590.756 -2629.94)" fill="#c0e1e2" />
        <path d="M943.316,2639.073h0a18.691,18.691,0,0,1,11.352,3.873,14.145,14.145,0,0,1,3.068-.336,14.512,14.512,0,0,1,3.181.356,14.751,14.751,0,0,1,8.966,6.107,10.416,10.416,0,0,1,2.65-.341,10.924,10.924,0,0,1,9.009,4.777,10.068,10.068,0,0,1,1.593,7.667,9.681,9.681,0,0,1-3.5,5.7,10.276,10.276,0,0,1-6.336,2.168,10.834,10.834,0,0,1-2.376-.266,10.964,10.964,0,0,1-2.714-1,14.1,14.1,0,0,1-9.835,3.992,14.51,14.51,0,0,1-3.183-.357c-.412-.093-.827-.205-1.236-.335a17.51,17.51,0,0,1-9.307,2.644,18.681,18.681,0,0,1-13.5-5.808,10.255,10.255,0,0,1-5.34,1.479,10.922,10.922,0,0,1-9.008-4.777,10.068,10.068,0,0,1-1.592-7.667,9.679,9.679,0,0,1,3.5-5.7,10.275,10.275,0,0,1,6.335-2.168,10.827,10.827,0,0,1,2.377.267l.068.015a16.432,16.432,0,0,1,6.1-7.375A17.473,17.473,0,0,1,943.316,2639.073Zm11.113,4.957-.191-.151a17.691,17.691,0,0,0-10.922-3.806,16.475,16.475,0,0,0-9.171,2.746,15.428,15.428,0,0,0-5.889,7.314l-.163.423-.436-.12c-.153-.042-.306-.08-.455-.114a9.839,9.839,0,0,0-2.159-.242,9.27,9.27,0,0,0-5.716,1.954,8.563,8.563,0,0,0-3.141,5.107,9.578,9.578,0,0,0,7.463,11.006,9.817,9.817,0,0,0,2.157.242,9.239,9.239,0,0,0,5.146-1.541l.359-.239.289.319a17.678,17.678,0,0,0,13.044,5.79,16.5,16.5,0,0,0,8.968-2.613l.2-.13.228.077a13.822,13.822,0,0,0,1.365.382,13.507,13.507,0,0,0,2.964.332,13.1,13.1,0,0,0,9.389-3.96l.271-.278.337.193a9.95,9.95,0,0,0,2.773,1.079,9.824,9.824,0,0,0,2.156.242,9.271,9.271,0,0,0,5.717-1.954,8.564,8.564,0,0,0,3.141-5.108,9.577,9.577,0,0,0-7.464-11.005,9.814,9.814,0,0,0-2.158-.242,9.4,9.4,0,0,0-2.72.4l-.359.108-.2-.315a13.771,13.771,0,0,0-8.552-5.984,13.519,13.519,0,0,0-2.962-.332,13.151,13.151,0,0,0-3.071.363Z" transform="translate(-590.756 -2629.94)" fill="rgba(0,0,0,0)" />
        <path d="M171.538,83.955A83.955,83.955,0,1,1,87.583,0a83.954,83.954,0,0,1,83.955,83.955" transform="translate(112.417 76.045)" fill="#ffd964" />
        <path d="M11.187,15.984C10.1,1.243-3.055,18.538,3.161,24.15,2.576,37.42,16.33,23.5,11.187,15.984Z" transform="translate(112.106 77.533)" fill="#b2cae7" />
        <path d="M8.032,8.175a4.332,4.332,0,0,1,3.756,2.3,11.54,11.54,0,0,1,1.35,4.859,9.1,9.1,0,0,1,1.181,5.231,13.383,13.383,0,0,1-1.572,5.335,13.893,13.893,0,0,1-3.019,3.921A6.43,6.43,0,0,1,5.6,31.659,3.833,3.833,0,0,1,2.77,30.45c-1.1-1.145-1.631-2.957-1.627-5.524a7.392,7.392,0,0,1-1.62-4.267,12.388,12.388,0,0,1,.889-5.22C1.758,11.94,4.717,8.175,8.032,8.175ZM5.638,27.657a3.125,3.125,0,0,0,1.446-.843A10.008,10.008,0,0,0,9.21,24.028a9.369,9.369,0,0,0,1.117-3.719,4.972,4.972,0,0,0-.791-3.2,2,2,0,0,1-.344-.983c-.237-3.22-1.047-3.957-1.16-3.956-.706,0-2.717,1.659-3.888,4.7-1.449,3.765-.093,5.383.357,5.789a2,2,0,0,1,.658,1.573C5.05,26.716,5.513,27.5,5.638,27.657Z" transform="translate(112.106 77.533)" fill="#313e58" />
        <path d="M123.475,22.282c2.409,1.679,2.791,3.85,4.933,6.118-2.362,2.437,9.573-2.674,8.664-3.789-.34,1.151-12.355-19.512-16.059-11.109C117.787,14.93,121.058,22.7,123.475,22.282Z" transform="translate(129.382 77.725)" fill="#b2cae7" />
        <path d="M128.415,31.051a2.278,2.278,0,0,1-2.149-1.332,2.165,2.165,0,0,1-.168-.938,23.524,23.524,0,0,1-1.436-2.1,9.686,9.686,0,0,0-1.9-2.426,4.939,4.939,0,0,1-3.185-2.34,11.43,11.43,0,0,1-1.715-4.013,7.4,7.4,0,0,1-.024-3.32,4.293,4.293,0,0,1,1.644-2.5,5.439,5.439,0,0,1,1.417-1.707,4.249,4.249,0,0,1,2.618-.889c2.1,0,4.426,1.416,7.3,4.455a79.624,79.624,0,0,1,5.6,6.888c.555.74,1.168,1.559,1.521,1.983a2,2,0,0,1,.673.534,2.254,2.254,0,0,1,.266,2.414,5.18,5.18,0,0,1-2.134,2,27.769,27.769,0,0,1-2.8,1.482C132.784,29.785,129.9,31.051,128.415,31.051Zm-4.941-10.769a2,2,0,0,1,1.144.359,12.06,12.06,0,0,1,3.43,3.911,16.605,16.605,0,0,0,1.532,2.165c.643-.223,1.489-.555,2.458-1,.927-.423,1.666-.809,2.218-1.126-.3-.4-.65-.857-1.03-1.363a76.45,76.45,0,0,0-5.307-6.537c-2.889-3.051-4.172-3.206-4.4-3.206a.236.236,0,0,0-.175.056,1.954,1.954,0,0,0-.5.766,2,2,0,0,1-1.02,1.022l-.015.008a2.284,2.284,0,0,0-.071,1.515,7.473,7.473,0,0,0,.865,2.362,3.77,3.77,0,0,0,.837,1.067Z" transform="translate(129.382 77.725)" fill="#313e58" />
        <path d="M151.14,73.094c2.377-2.142-.54-10.8-.241-15.14,4.736-7.027-3.6-11.5-10.025-14.085-2.788-.6-2.316,9.018-8.78,4.2-6.39-3.5-6.755,5.041-12.465,5.41-3.624-4.61-12.129-1.237-14.93-.658S90.218,57.65,89.925,59.986C81.233,57.872,66,59.724,59.011,51.108c-6.043-2.184-12.777-4.165-16.378-5.509-1.6-.595-.822,1.488-8.058-2.181s-9.149-.355-12.4,2.956C16.245,54.172,20,60.257,24.626,69.5s14.183,19,15.353,28.16c-1.6,3.128,3.57,11.306,2.295,14.756,5.66,1.754,3.786,9.355,9.175,13.186,7.791.711,6.766,10.307,13.626,12.667,3.285-1.753,2.41,2.885,4.581,9.068,2.576-.292,2.54-.814,4.547-1.732,2.237,1.066,12.71,2.71,14.444-.044.671-1.967,3.664,5.689,9.959,4.314.634,2.006,7.141-8.46,8.27-10.027-.739-1.128,7.2-4.676,6.844-7.536s.946-13.216,5.405-9.815c1.757,2.774,2.987.268,3.075,4.3-5.2.41-1.676,2.778,1.79.74,1.608-1.723-3.428-10.989,3.569-5.564,2.523,1.419,7.3-1.826,11.729-5.3,1.075-3.059.384-14,.384-14s5.5-10.875,10.019-8.331C150.907,91.81,148.763,75.237,151.14,73.094Z" transform="translate(114.683 82.158)" fill="#b2cae7" />
        <path d="M29.165,39.811a14.231,14.231,0,0,1,6.314,1.823c3.479,1.764,4.8,2.028,5.284,2.028a1.416,1.416,0,0,0,.354-.054,4.02,4.02,0,0,1,.944-.124,3.587,3.587,0,0,1,1.27.242c1.649.615,3.972,1.368,6.662,2.239,3.027.981,6.458,2.092,9.7,3.262a2,2,0,0,1,.874.621c1.944,2.4,4.851,4.1,8.886,5.2a69.8,69.8,0,0,0,11.833,1.76c2.753.252,5.379.492,7.71.935A10.064,10.064,0,0,1,90.9,56.266a36.138,36.138,0,0,1,4.674-2.357,58.553,58.553,0,0,1,8.715-3.046c.374-.077.924-.228,1.56-.4a30.706,30.706,0,0,1,7.883-1.37,9.425,9.425,0,0,1,6.611,2.232,7.827,7.827,0,0,0,3.083-2.563,15.809,15.809,0,0,1,2.264-2.249,5.83,5.83,0,0,1,3.614-1.28,7.765,7.765,0,0,1,3.745,1.086,2,2,0,0,1,.235.151,3.74,3.74,0,0,0,1.952.96c.085,0,.227,0,.518-.345a9.647,9.647,0,0,0,1.043-1.8,12.24,12.24,0,0,1,1.107-1.937,3.346,3.346,0,0,1,2.72-1.5h0a3.178,3.178,0,0,1,.665.071,2,2,0,0,1,.326.1,38.685,38.685,0,0,1,7.2,3.65c2.735,1.846,4.464,3.9,5.139,6.1a8.123,8.123,0,0,1-1.086,6.812,37.968,37.968,0,0,0,.565,5.18c.674,4.457,1.312,8.669-.889,10.757-.093.178-.439,1.024-.556,3.939-.089,2.2-.028,4.809.031,7.335.122,5.211.153,8-.53,9.43a2,2,0,0,1-2.786.882.9.9,0,0,0-.464-.129c-.774,0-2.3.934-4.246,3.553a32.024,32.024,0,0,0-2.3,3.607c.053.971.153,3.06.182,5.383.081,6.588-.513,8.278-.708,8.834a2,2,0,0,1-.653.911c-4.019,3.151-8.2,6.066-11.541,6.066a4.837,4.837,0,0,1-2.4-.6,2,2,0,0,1-.245-.163q-.2-.156-.379-.288l.029.165c.358,2.026.728,4.12-.532,5.47a2,2,0,0,1-.448.359,7.756,7.756,0,0,1-3.859,1.093,5.04,5.04,0,0,1-1.894-.337,2.421,2.421,0,0,1-.051-4.6,5.552,5.552,0,0,1-1.524-1.5,1.146,1.146,0,0,0-.185-.092c-.255.2-.9,1.1-1.385,3.386a17.87,17.87,0,0,0-.4,4.847c.255,2.064-1.393,3.7-1.934,4.238a29.478,29.478,0,0,1-3.28,2.662c-.524.385-1.261.926-1.654,1.273a2,2,0,0,1-.339.777c-.177.246-.559.823-1,1.491-.98,1.48-2.461,3.717-3.835,5.568-2.276,3.068-3.434,4.053-4.765,4.053a2.288,2.288,0,0,1-.806-.145,8.814,8.814,0,0,1-.989.056,9.184,9.184,0,0,1-5.137-1.639,17.877,17.877,0,0,1-2.9-2.52,10.842,10.842,0,0,1-5.724,1.19,33.5,33.5,0,0,1-9.024-1.291c-.191.1-.362.2-.529.3a8.37,8.37,0,0,1-3.9,1.242A2,2,0,0,1,67.769,148a41.878,41.878,0,0,1-1.495-5.75c-.139-.683-.314-1.541-.481-2.114a2,2,0,0,1-1.369.025c-3.9-1.343-5.665-4.488-7.219-7.262a17.387,17.387,0,0,0-2.493-3.715,5.189,5.189,0,0,0-3.445-1.59,2,2,0,0,1-.977-.362c-3.067-2.18-4.175-5.359-5.066-7.914-.972-2.788-1.616-4.394-3.543-4.991a2,2,0,0,1-1.284-2.6,4.25,4.25,0,0,0-.109-2.132,40.064,40.064,0,0,0-1.125-3.866c-1.009-3.1-1.968-6.04-1.242-8.306-.858-5.211-4.772-10.956-8.561-16.517A95.219,95.219,0,0,1,22.837,70.4c-.3-.6-.594-1.182-.881-1.75-2.151-4.258-4.009-7.936-4.62-11.634-.7-4.248.331-8.014,3.252-11.852a2,2,0,0,1,.163-.189c.313-.32.622-.649.921-.967a18.975,18.975,0,0,1,3.005-2.775A7.688,7.688,0,0,1,29.165,39.811Zm11.6,7.851c-1.975,0-4.694-1.243-7.093-2.46a10.662,10.662,0,0,0-4.5-1.391c-1.739,0-2.765,1.007-4.577,2.935-.285.3-.58.617-.889.935-2.182,2.9-2.927,5.585-2.416,8.681s2.241,6.518,4.243,10.483c.289.572.587,1.163.889,1.765a92.4,92.4,0,0,0,6.253,10.044c4.175,6.127,8.492,12.464,9.3,18.757a2,2,0,0,1-.2,1.164c-.038.075-.216.52.061,1.926a37.339,37.339,0,0,0,1.147,3.989,22.55,22.55,0,0,1,1.511,6.715,7.721,7.721,0,0,1,2.648,2.554A19.315,19.315,0,0,1,49,118.006c.759,2.178,1.479,4.242,3.226,5.679a9.09,9.09,0,0,1,5.331,2.691,20.556,20.556,0,0,1,3.138,4.572c1.247,2.227,2.341,4.179,4.361,5.158a3.824,3.824,0,0,1,1.208-.207,3.272,3.272,0,0,1,3.084,2.307,18.4,18.4,0,0,1,.845,3.248c.212,1.039.46,2.258.828,3.567a5.969,5.969,0,0,0,.758-.4,17.2,17.2,0,0,1,1.591-.835,2,2,0,0,1,1.692.013,27.013,27.013,0,0,0,8.275,1.274c2.306,0,3.322-.382,3.594-.574a2.291,2.291,0,0,1,2.039-1.263h0c1.154,0,1.9.767,2.841,1.738,1.257,1.295,2.977,3.068,5.289,3.068a5.067,5.067,0,0,0,1.078-.12,2,2,0,0,1,.5-.045,27.361,27.361,0,0,0,2.169-2.722c1.2-1.65,2.421-3.5,3.317-4.853.28-.423.517-.781.711-1.068a2.658,2.658,0,0,1,.3-.8,4.419,4.419,0,0,1,.88-1.059,25.113,25.113,0,0,1,2.073-1.628,31.162,31.162,0,0,0,2.564-2.024,3.919,3.919,0,0,0,1.039-1.245,20.863,20.863,0,0,1,.319-5.315,12.074,12.074,0,0,1,2.339-5.861,4.023,4.023,0,0,1,3.068-1.481,4.755,4.755,0,0,1,2.887,1.087,2,2,0,0,1,.477.52c.372.588.54.647.875.764l.07.025a3.9,3.9,0,0,1,.668-2.99,2.621,2.621,0,0,1,2.047-.933c1.1,0,2.311.575,4.145,1.977a1.12,1.12,0,0,0,.362.049,8.229,8.229,0,0,0,3.753-1.457,47.088,47.088,0,0,0,4.8-3.355c.5-2.387.395-8.66.139-12.7a2,2,0,0,1,.211-1.029,35.556,35.556,0,0,1,2.9-4.65,18.946,18.946,0,0,1,3.09-3.35,7.109,7.109,0,0,1,4.174-1.811c.014-.289.026-.63.033-1.03.024-1.435-.017-3.2-.061-5.064-.065-2.777-.132-5.648-.007-8.076.175-3.412.689-5.206,1.771-6.187.028-.037.336-.49.278-2.255a46.586,46.586,0,0,0-.585-5.008,32.612,32.612,0,0,1-.584-6.535,2,2,0,0,1,.337-.98,4.49,4.49,0,0,0,.9-3.9c-.4-1.3-1.6-2.636-3.553-3.957a32.827,32.827,0,0,0-5.675-2.933c-.173.3-.372.7-.522,1.006a12.634,12.634,0,0,1-1.572,2.608,4.581,4.581,0,0,1-3.575,1.765,7.272,7.272,0,0,1-4.22-1.662,3.866,3.866,0,0,0-1.712-.534c-.921,0-1.692.824-2.873,2.169-1.513,1.722-3.4,3.865-6.678,4.077a2,2,0,0,1-1.7-.76c-.86-1.094-2.273-1.626-4.319-1.626a27.049,27.049,0,0,0-6.823,1.227c-.7.193-1.311.36-1.811.464A53.4,53.4,0,0,0,97.835,57.3c-3.941,1.645-5.592,2.794-5.988,3.241a2,2,0,0,1-2.4,1.392,63.109,63.109,0,0,0-8.533-1.14A73.876,73.876,0,0,1,68.4,58.905c-4.635-1.266-8.1-3.263-10.569-6.1C54.8,51.726,51.6,50.69,48.761,49.77c-2.69-.871-5.019-1.626-6.742-2.265l-.011,0A5.215,5.215,0,0,1,40.763,47.662Z" transform="translate(114.683 82.158)" fill="#313e58" />
        <path d="M142.335,33.537c-3.4-4.955-13.1-4.22-16.942.085,4.019,3.266,5.44,1.749,6.852,5.889C133.806,38.9,143.417,34.274,142.335,33.537Z" transform="translate(130.22 80.446)" fill="#b2cae7" />
        <path d="M134.466,28.1h0c4.088,0,7.5,1.508,9.4,4.145a2.176,2.176,0,0,1,.535,1.687c-.123,1.1-.983,1.866-2.331,2.744-.821.535-1.932,1.174-3.3,1.9-2.363,1.25-4.967,2.471-5.794,2.8a2,2,0,0,1-2.625-1.215,4.679,4.679,0,0,0-.895-1.742,4.572,4.572,0,0,0-1.274-.738,17.876,17.876,0,0,1-4.051-2.5,2,2,0,0,1-.232-2.883C126.2,29.706,130.253,28.1,134.466,28.1Zm5.1,5.428a6.334,6.334,0,0,0-1.351-.749,9.964,9.964,0,0,0-3.754-.68,12,12,0,0,0-5.707,1.4c.405.221.775.395,1.127.56a7.915,7.915,0,0,1,2.39,1.52,6.136,6.136,0,0,1,.981,1.285c.859-.407,1.933-.933,3.043-1.508C137.872,34.54,138.9,33.946,139.571,33.529Z" transform="translate(130.22 80.446)" fill="#313e58" />
        <path d="M9.2,0H6.051V-16.572H.382v-2.7H14.871v2.7H9.2ZM28.976,0,27.052-5.353h-7.37L17.8,0H14.475l7.211-19.354h3.428L32.325,0ZM26.221-8.068l-1.806-5.247q-.2-.527-.547-1.661t-.481-1.661a29.546,29.546,0,0,1-1.042,3.546L20.6-8.068ZM47.036-5.234A4.851,4.851,0,0,1,45.177-1.2,8.09,8.09,0,0,1,40.049.264,12.236,12.236,0,0,1,34.7-.751V-3.731a14.548,14.548,0,0,0,2.8.976A11.878,11.878,0,0,0,40.26-2.4a4.394,4.394,0,0,0,2.762-.712,2.321,2.321,0,0,0,.89-1.912,2.4,2.4,0,0,0-.817-1.833,12.305,12.305,0,0,0-3.375-1.78A8.928,8.928,0,0,1,36-11.074a5.161,5.161,0,0,1-1.081-3.3,4.616,4.616,0,0,1,1.714-3.8,7.109,7.109,0,0,1,4.6-1.384,13.519,13.519,0,0,1,5.511,1.213l-1,2.571a12.04,12.04,0,0,0-4.588-1.081,3.521,3.521,0,0,0-2.32.666,2.187,2.187,0,0,0-.791,1.76,2.478,2.478,0,0,0,.316,1.285A3.232,3.232,0,0,0,39.4-12.129a17.617,17.617,0,0,0,2.61,1.252,14.283,14.283,0,0,1,3.111,1.648A4.847,4.847,0,0,1,46.575-7.5,5.2,5.2,0,0,1,47.036-5.234Z" transform="translate(174.17 181.441)" fill="#313e58" />
        <path d="M289.313,190.887a1,1,0,0,1-1-1v-29.64a1,1,0,0,1,1-1h49.852a1,1,0,0,1,0,2H290.313v28.64A1,1,0,0,1,289.313,190.887Z" transform="translate(-17.424 48.679)" fill="#5bb3b3" />
        <path d="M370.244,206.712a1,1,0,0,1-1-1v-106a1,1,0,0,1,1-1h65.9a1,1,0,0,1,1,1V205.456a1,1,0,0,1-2,0V100.711h-63.9v105A1,1,0,0,1,370.244,206.712Z" transform="translate(-28.278 27.854)" fill="#5bb3b3" />
        <path d="M427.294,95.96a1,1,0,0,1-1-1V90.331H380.1V94.96a1,1,0,0,1-2,0V89.331a1,1,0,0,1,1-1h48.2a1,1,0,0,1,1,1V94.96A1,1,0,0,1,427.294,95.96Z" transform="translate(-28.278 27.854)" fill="#5bb3b3" />
        <path d="M348.707,206.712a1,1,0,0,1-1-1V80.357a1,1,0,0,1,1-1h37.387a1,1,0,0,1,1,1v5.532a1,1,0,0,1-2,0V81.357H349.707V205.712A1,1,0,0,1,348.707,206.712Z" transform="translate(-22.278 27.854)" fill="#5bb3b3" />
        <path d="M309.111,173.562a1,1,0,0,1-1-1V102a1,1,0,0,1,1-1h29.277a1,1,0,0,1,0,2H310.111v69.566A1,1,0,0,1,309.111,173.562Z" transform="translate(-16.909 27.854)" fill="#5bb3b3" />
        <path d="M20.034,1H0A1,1,0,0,1-1,0,1,1,0,0,1,0-1H20.034a1,1,0,0,1,1,1A1,1,0,0,1,20.034,1Z" transform="translate(299.795 142.698)" fill="#5bb3b3" />
        <path d="M20.034,1H0A1,1,0,0,1-1,0,1,1,0,0,1,0-1H20.034a1,1,0,0,1,1,1A1,1,0,0,1,20.034,1Z" transform="translate(299.795 158.468)" fill="#5bb3b3" />
        <path d="M20.034,1H0A1,1,0,0,1-1,0,1,1,0,0,1,0-1H20.034a1,1,0,0,1,1,1A1,1,0,0,1,20.034,1Z" transform="translate(299.795 174.238)" fill="#5bb3b3" />
        <path d="M20.034,1H0A1,1,0,0,1-1,0,1,1,0,0,1,0-1H20.034a1,1,0,0,1,1,1A1,1,0,0,1,20.034,1Z" transform="translate(299.795 190.009)" fill="#5bb3b3" />
        <path d="M8.953,1H0A1,1,0,0,1-1,0,1,1,0,0,1,0-1H8.953a1,1,0,0,1,1,1A1,1,0,0,1,8.953,1Z" transform="translate(350.125 139.884)" fill="#5bb3b3" />
        <path d="M8.953,1H0A1,1,0,0,1-1,0,1,1,0,0,1,0-1H8.953a1,1,0,0,1,1,1A1,1,0,0,1,8.953,1Z" transform="translate(350.125 156.587)" fill="#5bb3b3" />
        <path d="M8.953,1H0A1,1,0,0,1-1,0,1,1,0,0,1,0-1H8.953a1,1,0,0,1,1,1A1,1,0,0,1,8.953,1Z" transform="translate(350.125 173.291)" fill="#5bb3b3" />
        <path d="M8.953,1H0A1,1,0,0,1-1,0,1,1,0,0,1,0-1H8.953a1,1,0,0,1,1,1A1,1,0,0,1,8.953,1Z" transform="translate(350.125 189.995)" fill="#5bb3b3" />
        <path d="M8.953,1H0A1,1,0,0,1-1,0,1,1,0,0,1,0-1H8.953a1,1,0,0,1,1,1A1,1,0,0,1,8.953,1Z" transform="translate(350.125 206.699)" fill="#5bb3b3" />
        <path d="M8.953,1H0A1,1,0,0,1-1,0,1,1,0,0,1,0-1H8.953a1,1,0,0,1,1,1A1,1,0,0,1,8.953,1Z" transform="translate(350.125 220.866)" fill="#5bb3b3" />
        <path d="M8.953,1H0A1,1,0,0,1-1,0,1,1,0,0,1,0-1H8.953a1,1,0,0,1,1,1A1,1,0,0,1,8.953,1Z" transform="translate(369.832 139.884)" fill="#5bb3b3" />
        <path d="M8.953,1H0A1,1,0,0,1-1,0,1,1,0,0,1,0-1H8.953a1,1,0,0,1,1,1A1,1,0,0,1,8.953,1Z" transform="translate(369.832 156.587)" fill="#5bb3b3" />
        <path d="M8.953,1H0A1,1,0,0,1-1,0,1,1,0,0,1,0-1H8.953a1,1,0,0,1,1,1A1,1,0,0,1,8.953,1Z" transform="translate(369.832 173.291)" fill="#5bb3b3" />
        <path d="M8.953,1H0A1,1,0,0,1-1,0,1,1,0,0,1,0-1H8.953a1,1,0,0,1,1,1A1,1,0,0,1,8.953,1Z" transform="translate(369.832 189.995)" fill="#5bb3b3" />
        <path d="M8.953,1H0A1,1,0,0,1-1,0,1,1,0,0,1,0-1H8.953a1,1,0,0,1,1,1A1,1,0,0,1,8.953,1Z" transform="translate(369.832 206.699)" fill="#5bb3b3" />
        <path d="M8.953,1H0A1,1,0,0,1-1,0,1,1,0,0,1,0-1H8.953a1,1,0,0,1,1,1A1,1,0,0,1,8.953,1Z" transform="translate(369.832 220.866)" fill="#5bb3b3" />
        <path d="M8.953,1H0A1,1,0,0,1-1,0,1,1,0,0,1,0-1H8.953a1,1,0,0,1,1,1A1,1,0,0,1,8.953,1Z" transform="translate(389.54 139.884)" fill="#5bb3b3" />
        <path d="M8.953,1H0A1,1,0,0,1-1,0,1,1,0,0,1,0-1H8.953a1,1,0,0,1,1,1A1,1,0,0,1,8.953,1Z" transform="translate(389.54 156.587)" fill="#5bb3b3" />
        <path d="M8.953,1H0A1,1,0,0,1-1,0,1,1,0,0,1,0-1H8.953a1,1,0,0,1,1,1A1,1,0,0,1,8.953,1Z" transform="translate(389.54 173.291)" fill="#5bb3b3" />
        <path d="M8.953,1H0A1,1,0,0,1-1,0,1,1,0,0,1,0-1H8.953a1,1,0,0,1,1,1A1,1,0,0,1,8.953,1Z" transform="translate(389.54 189.995)" fill="#5bb3b3" />
        <path d="M8.953,1H0A1,1,0,0,1-1,0,1,1,0,0,1,0-1H8.953a1,1,0,0,1,1,1A1,1,0,0,1,8.953,1Z" transform="translate(389.54 206.699)" fill="#5bb3b3" />
        <path d="M8.953,1H0A1,1,0,0,1-1,0,1,1,0,0,1,0-1H8.953a1,1,0,0,1,1,1A1,1,0,0,1,8.953,1Z" transform="translate(389.54 220.866)" fill="#5bb3b3" />
        <path d="M160.016,245.777h-.043a1,1,0,0,1-.957-1.041c.009-.218.925-21.869.951-26.5.032-5.57,3.343-6.5,4.431-6.8a1,1,0,1,1,.539,1.926c-.956.267-2.946.824-2.97,4.886-.027,4.663-.915,25.676-.953,26.569A1,1,0,0,1,160.016,245.777Z" transform="translate(-21.998 58.812)" fill="#5bb3b3" />
        <path d="M155.3,247.7h-.016a1,1,0,0,1-.984-1.016c0-.207.327-20.77.159-27.193-.018-.67-.024-1.272-.031-1.854-.028-2.437-.044-3.907-.8-5.323-.779-1.461-2.433-3-5.712-5.319a1,1,0,1,1,1.154-1.633c3.6,2.544,5.373,4.23,6.322,6.012.984,1.846,1,3.689,1.033,6.241.007.574.013,1.169.03,1.824.17,6.465-.155,27.07-.158,27.278A1,1,0,0,1,155.3,247.7Z" transform="translate(-23.442 56.838)" fill="#5bb3b3" />
        <path d="M126.42,243.42h-.038a1,1,0,0,1-.962-1.036c0-.074.271-7.439.076-13.126q0-.023,0-.047c.037-2.9-.771-8.153-4.031-9.413a1,1,0,0,1,.721-1.866,6.529,6.529,0,0,1,2.854,2.208,10.664,10.664,0,0,1,1.58,3.132,19.357,19.357,0,0,1,.876,5.94c.2,5.756-.075,13.171-.077,13.245A1,1,0,0,1,126.42,243.42Z" transform="translate(-31.786 60.862)" fill="#5bb3b3" />
        <path d="M131.674,242.613h-.007a1,1,0,0,1-.993-1.007l.088-13.305a7.57,7.57,0,0,1,1.617-5.04,6.766,6.766,0,0,1,4.844-2.234,1,1,0,0,1,.151,1.994,4.491,4.491,0,0,0-4.147,2.627,6.067,6.067,0,0,0-.467,2.548c0,.029,0,.054,0,.083l-.088,13.34A1,1,0,0,1,131.674,242.613Z" transform="translate(-30.551 61.864)" fill="#5bb3b3" />
        <path d="M0,7.749H-.007A1,1,0,0,1-1,6.742L-.954-.007A1,1,0,0,1,.053-1,1,1,0,0,1,1.046.007L1,6.756A1,1,0,0,1,0,7.749Z" transform="translate(99.54 270.467)" fill="#5bb3b3" />
        <path d="M2.79,102.929a1,1,0,0,1-.323-1.947c7.437-2.538,19.646-5.337,32.572-8.3,13.252-3.038,26.955-6.179,34.877-8.977l.055-.018c2.443-.706,4.68-1.339,6.654-1.9,17.783-5.032,20.068-5.679,37.947-20.941a1,1,0,0,1,.489-.226c6.925-1.127,11.953-2.807,16.266-5.437.589-.777,3.343-4.382,6.389-7.927,6.381-7.427,8.572-8.307,9.769-8.243,1.708.092,3.268,0,3.283,0a1,1,0,0,1,.369.047,7.91,7.91,0,0,0,5.268-.053,13.707,13.707,0,0,0,4.82-3.192c3.146-3.015,5.973-7.477,8.467-11.414,2.83-4.467,5.275-8.325,7.819-9.743a1,1,0,0,1,.34-.116c9.3-1.38,16.095-1.609,22.735-.766,6.239.792,12.215,2.516,20.571,5.054,1.888-.345,3.752-.723,5.557-1.089,7.48-1.517,14.546-2.949,22.025-1.817a35.591,35.591,0,0,1,11.655,3.954,57.914,57.914,0,0,1,12.723,9.591,1,1,0,0,1,.118.136c.161.224,16.222,22.512,24.353,29.016a1,1,0,1,1-1.249,1.562c-3.516-2.812-8.749-8.622-15.556-17.269-4.735-6.015-8.621-11.379-9.118-12.067a55.851,55.851,0,0,0-12.216-9.206,33.625,33.625,0,0,0-11.008-3.739c-7.13-1.079-14.026.319-21.328,1.8-1.891.383-3.846.78-5.836,1.14a1,1,0,0,1-.469-.027c-8.632-2.623-14.317-4.272-20.473-5.053-6.4-.812-12.992-.594-22,.733-2.065,1.265-4.441,5.014-6.953,8.979-2.555,4.033-5.452,8.6-8.773,11.788a15.634,15.634,0,0,1-5.536,3.633,9.955,9.955,0,0,1-6.374.126c-.485.023-1.833.07-3.321-.009-.029,0-.751-.011-3.083,2.153a68.392,68.392,0,0,0-5.065,5.4c-3.378,3.932-6.389,7.934-6.419,7.974a1,1,0,0,1-.274.25c-4.524,2.794-9.738,4.575-16.877,5.761-8.592,7.329-13.939,11.578-19.182,14.388-5.184,2.778-10.2,4.2-19.306,6.775-1.964.556-4.188,1.185-6.615,1.886-8.033,2.833-21.777,5.984-35.068,9.031-12.308,2.821-25.034,5.739-32.373,8.243A1,1,0,0,1,2.79,102.929Z" transform="translate(-21 23.65)" fill="#5bb3b3" />
        <path d="M79,69.215a1,1,0,0,1-.835-.449c-4.767-7.217-8.4-11.617-11.116-13.45a4.51,4.51,0,0,0-4.694-.643,6.053,6.053,0,0,1-4.573.007c-1.865-.784-3.936-2.659-6.493-5.884a6.959,6.959,0,0,1-4.846-.925,20.03,20.03,0,0,1-4.187-4.217c-.526-.629-1.123-1.341-1.783-2.1l-.038-.047c-.206-.269-.311-.257-.351-.253-.332.037-1.048.579-1.973,1.984a19.013,19.013,0,0,0-1.22,2.176,1,1,0,0,1-.448.469A71.3,71.3,0,0,0,29.9,50.838c-4.237,3.391-9.51,7.612-14.722,11.086C8.87,66.125,4.232,68.158.994,68.14a1,1,0,1,1,.011-2c2.786.017,7.18-1.963,13.058-5.881,5.139-3.425,10.375-7.616,14.582-10.983a81.5,81.5,0,0,1,6.576-5,21.029,21.029,0,0,1,1.208-2.118c1.2-1.821,2.319-2.767,3.435-2.892a2.3,2.3,0,0,1,2.14,1c.664.765,1.261,1.478,1.788,2.107,3.1,3.7,4.143,4.948,7.773,4.369a1,1,0,0,1,.948.374c2.469,3.179,4.446,5.051,6.045,5.723a4.169,4.169,0,0,0,3.217-.077,6.466,6.466,0,0,1,6.4.9c2.975,2.011,6.682,6.461,11.665,14A1,1,0,0,1,79,69.215Z" transform="translate(-6.051 23.56)" fill="#5bb3b3" />
        <path d="M114.59,55.9a1,1,0,0,1-.746-.334c-5.99-6.7-10.637-10.832-14.2-12.629a9.949,9.949,0,0,0-6.99-.928,12.686,12.686,0,0,1-5.933-.177,23.55,23.55,0,0,1-8.107-4.8c-.227.754-.506,1.839-.764,2.84A79.389,79.389,0,0,1,75.359,48.2c-1.326,3.465-2.692,5.4-4.3,6.1a3.347,3.347,0,0,1-3.032-.2,1,1,0,1,1,.965-1.752,1.348,1.348,0,0,0,1.275.116c.722-.312,1.868-1.428,3.225-4.976a77.857,77.857,0,0,0,2.418-8.12c.312-1.211.581-2.257.819-3.022.315-1.014.618-1.8,1.406-1.907a1,1,0,0,1,.79.234c3.291,2.846,6.022,4.556,8.349,5.23a10.882,10.882,0,0,0,5.086.12,11.876,11.876,0,0,1,8.181,1.121c3.848,1.938,8.55,6.095,14.8,13.082a1,1,0,0,1-.745,1.666Z" transform="translate(-6.051 20.56)" fill="#5bb3b3" />
        <path d="M0-1H32.094a1,1,0,0,1,1,1V22.384a1,1,0,0,1-1,1H0a1,1,0,0,1-1-1V0A1,1,0,0,1,0-1ZM31.094,1H1V21.384H31.094Z" transform="translate(64.986 199.955)" fill="#5bb3b3" />
        <path d="M126.772,154.02a1,1,0,0,1-.585-.19l-14.949-10.813L96.29,153.83a1,1,0,0,1-1.172-1.62l15.534-11.237a1,1,0,0,1,1.172,0l15.535,11.237a1,1,0,0,1-.587,1.81Z" transform="translate(-30.459 44.724)" fill="#5bb3b3" />
        <path d="M140.759,1H0A1,1,0,0,1-1,0,1,1,0,0,1,0-1H140.759a1,1,0,0,1,1,1A1,1,0,0,1,140.759,1Z" transform="translate(-27.153 161.589)" fill="#5bb3b3" />
        <path d="M25.847,1H0A1,1,0,0,1-1,0,1,1,0,0,1,0-1H25.847a1,1,0,0,1,1,1A1,1,0,0,1,25.847,1Z" transform="translate(36.611 173.823)" fill="#5bb3b3" />
        <path d="M42.024,1H0A1,1,0,0,1-1,0,1,1,0,0,1,0-1H42.024a1,1,0,0,1,1,1A1,1,0,0,1,42.024,1Z" transform="translate(6.27 186.217)" fill="#5bb3b3" />
        <path d="M10.154,1H0A1,1,0,0,1-1,0,1,1,0,0,1,0-1H10.154a1,1,0,0,1,1,1A1,1,0,0,1,10.154,1Z" transform="translate(9.19 203.293)" fill="#5bb3b3" />
        <path d="M56.189,1H0A1,1,0,0,1-1,0,1,1,0,0,1,0-1H56.189a1,1,0,0,1,1,1A1,1,0,0,1,56.189,1Z" transform="translate(-12.061 255.274)" fill="#5bb3b3" />
        <path d="M33.171,1H0A1,1,0,0,1-1,0,1,1,0,0,1,0-1H33.171a1,1,0,0,1,1,1A1,1,0,0,1,33.171,1Z" transform="translate(33.917 237.566)" fill="#5bb3b3" />
        <path d="M361.354,1H0A1,1,0,0,1-1,0,1,1,0,0,1,0-1H361.354a1,1,0,0,1,1,1A1,1,0,0,1,361.354,1Z" transform="translate(38.646 304.986)" fill="#5bb3b3" />
        <path d="M57.53,1H0A1,1,0,0,1-1,0,1,1,0,0,1,0-1H57.53a1,1,0,0,1,1,1A1,1,0,0,1,57.53,1Z" transform="translate(9.19 222.338)" fill="#5bb3b3" />
        <path d="M0,23.059H-.02A1,1,0,0,1-1,22.039L-.563-.02A1,1,0,0,1,.457-1,1,1,0,0,1,1.437.02L1,22.079A1,1,0,0,1,0,23.059Z" transform="translate(80.814 200.114)" fill="#5bb3b3" />
        <path d="M111.682,164.706a1,1,0,0,1-.827-.438l-5.59-8.236a1,1,0,0,1,1.655-1.123l4.732,6.972,4.395-6.965a1,1,0,1,1,1.691,1.067l-5.21,8.257a1,1,0,0,1-.829.466Z" transform="translate(-30.459 44.724)" fill="#5bb3b3" />
        <path d="M150.186,154.721H129.633a1,1,0,0,1,0-2h17.705l-12.4-9.938h-23a1,1,0,0,1,0-2h23.354a1,1,0,0,1,.625.22l14.9,11.938a1,1,0,0,1-.625,1.78Z" transform="translate(-30.459 44.724)" fill="#5bb3b3" />
        <path d="M0,6.887a1,1,0,0,1-.692-.278,1,1,0,0,1-.03-1.414L4.923-.692a1,1,0,0,1,1.414-.03A1,1,0,0,1,6.367.692L.722,6.579A1,1,0,0,1,0,6.887Z" transform="translate(65.507 200.35)" fill="#5bb3b3" />
        <path d="M5.645,6.887a1,1,0,0,1-.722-.308L-.722.692A1,1,0,0,1-.692-.722a1,1,0,0,1,1.414.03L6.367,5.195a1,1,0,0,1-.722,1.692Z" transform="translate(90.584 200.35)" fill="#5bb3b3" />
        <path d="M282.33,242.354a1,1,0,0,1-1-1V198.118a1,1,0,0,1,1-1H429.661a1,1,0,0,1,0,2H283.33v42.236A1,1,0,0,1,282.33,242.354Z" transform="translate(-29.661 60)" fill="#5bb3b3" />
        <path d="M215.049,242.354a1,1,0,0,1-1-1V198.118a1,1,0,0,1,1-1H276.44a1,1,0,0,1,0,2H216.049v42.236A1,1,0,0,1,215.049,242.354Z" transform="translate(-28.477 60)" fill="#5bb3b3" />
        <path d="M347.5,195.577a1,1,0,0,1-1-1c0-4.124-4.949-7.938-12.315-9.489a1,1,0,0,1-.794-.979v-3.115H320.825v3.115a1,1,0,0,1-.794.979c-7.366,1.552-12.316,5.366-12.316,9.489a1,1,0,0,1-2,0c0-2.633,1.406-5.125,4.065-7.209a23.479,23.479,0,0,1,9.044-4.06v-3.314a1,1,0,0,1,1-1h14.565a1,1,0,0,1,1,1v3.314a23.475,23.475,0,0,1,9.044,4.06c2.659,2.084,4.065,4.577,4.065,7.209A1,1,0,0,1,347.5,195.577Z" transform="translate(-24.56 60)" fill="#5bb3b3" />
        <path d="M23.775,1H0A1,1,0,0,1-1,0,1,1,0,0,1,0-1H23.775a1,1,0,0,1,1,1A1,1,0,0,1,23.775,1Z" transform="translate(256.408 250.5)" fill="#5bb3b3" />
        <path d="M76.224,1H0A1,1,0,0,1-1,0,1,1,0,0,1,0-1H76.224a1,1,0,0,1,1,1A1,1,0,0,1,76.224,1Z" transform="translate(325.276 250.5)" fill="#5bb3b3" />
        <path d="M0-1H4A1,1,0,0,1,5,0V9.608a1,1,0,0,1-1,1H0a1,1,0,0,1-1-1V0A1,1,0,0,1,0-1ZM3,1H1V8.608H3Z" transform="translate(263.888 267.413)" fill="#5bb3b3" />
        <path d="M0-1H4A1,1,0,0,1,5,0V9.608a1,1,0,0,1-1,1H0a1,1,0,0,1-1-1V0A1,1,0,0,1,0-1ZM3,1H1V8.608H3Z" transform="translate(263.888 286.628)" fill="#5bb3b3" />
        <path d="M0-1H4A1,1,0,0,1,5,0V9.608a1,1,0,0,1-1,1H0a1,1,0,0,1-1-1V0A1,1,0,0,1,0-1ZM3,1H1V8.608H3Z" transform="translate(284.737 267.413)" fill="#5bb3b3" />
        <path d="M0-1H4A1,1,0,0,1,5,0V9.608a1,1,0,0,1-1,1H0a1,1,0,0,1-1-1V0A1,1,0,0,1,0-1ZM3,1H1V8.608H3Z" transform="translate(284.737 286.628)" fill="#5bb3b3" />
        <path d="M0-1H4A1,1,0,0,1,5,0V9.608a1,1,0,0,1-1,1H0a1,1,0,0,1-1-1V0A1,1,0,0,1,0-1ZM3,1H1V8.608H3Z" transform="translate(305.585 267.413)" fill="#5bb3b3" />
        <path d="M0-1H4A1,1,0,0,1,5,0V9.608a1,1,0,0,1-1,1H0a1,1,0,0,1-1-1V0A1,1,0,0,1,0-1ZM3,1H1V8.608H3Z" transform="translate(305.585 286.628)" fill="#5bb3b3" />
        <path d="M0-1H4A1,1,0,0,1,5,0V9.608a1,1,0,0,1-1,1H0a1,1,0,0,1-1-1V0A1,1,0,0,1,0-1ZM3,1H1V8.608H3Z" transform="translate(326.433 267.413)" fill="#5bb3b3" />
        <path d="M0-1H4A1,1,0,0,1,5,0V9.608a1,1,0,0,1-1,1H0a1,1,0,0,1-1-1V0A1,1,0,0,1,0-1ZM3,1H1V8.608H3Z" transform="translate(326.433 286.628)" fill="#5bb3b3" />
        <path d="M0-1H4A1,1,0,0,1,5,0V9.608a1,1,0,0,1-1,1H0a1,1,0,0,1-1-1V0A1,1,0,0,1,0-1ZM3,1H1V8.608H3Z" transform="translate(347.282 267.413)" fill="#5bb3b3" />
        <path d="M0-1H4A1,1,0,0,1,5,0V9.608a1,1,0,0,1-1,1H0a1,1,0,0,1-1-1V0A1,1,0,0,1,0-1ZM3,1H1V8.608H3Z" transform="translate(347.282 286.628)" fill="#5bb3b3" />
        <path d="M0-1H4A1,1,0,0,1,5,0V9.608a1,1,0,0,1-1,1H0a1,1,0,0,1-1-1V0A1,1,0,0,1,0-1ZM3,1H1V8.608H3Z" transform="translate(368.13 267.413)" fill="#5bb3b3" />
        <path d="M0-1H4A1,1,0,0,1,5,0V9.608a1,1,0,0,1-1,1H0a1,1,0,0,1-1-1V0A1,1,0,0,1,0-1ZM3,1H1V8.608H3Z" transform="translate(368.13 286.628)" fill="#5bb3b3" />
        <path d="M20.691,1H0A1,1,0,0,1-1,0,1,1,0,0,1,0-1H20.691a1,1,0,0,1,1,1A1,1,0,0,1,20.691,1Z" transform="translate(292.202 250.755)" fill="#5bb3b3" />
        <path d="M254.3,238.063a1,1,0,0,1-1-1V213H243.128v24.061a1,1,0,0,1-2,0V212a1,1,0,0,1,1-1H254.3a1,1,0,0,1,1,1v25.061A1,1,0,0,1,254.3,238.063Z" transform="translate(-28.953 62.492)" fill="#5bb3b3" />
        <path d="M0,11.442a1,1,0,0,1-1-1V0A1,1,0,0,1,0-1,1,1,0,0,1,1,0V10.442A1,1,0,0,1,0,11.442Z" transform="translate(195.781 266.141)" fill="#5bb3b3" />
        <path d="M0,11.442a1,1,0,0,1-1-1V0A1,1,0,0,1,0-1,1,1,0,0,1,1,0V10.442A1,1,0,0,1,0,11.442Z" transform="translate(204.478 266.141)" fill="#5bb3b3" />
        <path d="M0,11.442a1,1,0,0,1-1-1V0A1,1,0,0,1,0-1,1,1,0,0,1,1,0V10.442A1,1,0,0,1,0,11.442Z" transform="translate(195.781 287.025)" fill="#5bb3b3" />
        <path d="M0,11.442a1,1,0,0,1-1-1V0A1,1,0,0,1,0-1,1,1,0,0,1,1,0V10.442A1,1,0,0,1,0,11.442Z" transform="translate(204.478 287.025)" fill="#5bb3b3" />
        <path d="M0,11.442a1,1,0,0,1-1-1V0A1,1,0,0,1,0-1,1,1,0,0,1,1,0V10.442A1,1,0,0,1,0,11.442Z" transform="translate(234.048 266.141)" fill="#5bb3b3" />
        <path d="M0,11.442a1,1,0,0,1-1-1V0A1,1,0,0,1,0-1,1,1,0,0,1,1,0V10.442A1,1,0,0,1,0,11.442Z" transform="translate(242.745 266.141)" fill="#5bb3b3" />
        <path d="M0,11.442a1,1,0,0,1-1-1V0A1,1,0,0,1,0-1,1,1,0,0,1,1,0V10.442A1,1,0,0,1,0,11.442Z" transform="translate(234.048 287.025)" fill="#5bb3b3" />
        <path d="M0,11.442a1,1,0,0,1-1-1V0A1,1,0,0,1,0-1,1,1,0,0,1,1,0V10.442A1,1,0,0,1,0,11.442Z" transform="translate(242.745 287.025)" fill="#5bb3b3" />
        <path d="M0,19.085a1,1,0,0,1-1-1V0A1,1,0,0,1,0-1,1,1,0,0,1,1,0V18.085A1,1,0,0,1,0,19.085Z" transform="translate(119.726 198.445)" fill="#5bb3b3" />
        <path d="M292,68.645a1,1,0,0,1-.457-1.89c.154-.079,15.6-7.978,34.046-15.038a213.361,213.361,0,0,1,28.986-9.086c10.57-2.365,19.024-2.855,25.126-1.455a68.2,68.2,0,0,1,14.034,5.369c4.362,2.134,9.224,4.829,14.45,8.008,8.887,5.407,15.853,10.42,15.922,10.47a1,1,0,0,1-1.17,1.622c-.069-.05-6.982-5.024-15.8-10.392-5.172-3.146-9.978-5.81-14.284-7.916a66.263,66.263,0,0,0-13.6-5.213c-5.808-1.333-13.961-.843-24.234,1.455a211.313,211.313,0,0,0-28.7,9C307.977,60.6,292.61,68.456,292.456,68.535A1,1,0,0,1,292,68.645Z" transform="translate(-22 22.65)" fill="#5bb3b3" />
        <path d="M414.17,48.734a1,1,0,0,1-.418-1.909,67.862,67.862,0,0,0,9.822-5.784,47.719,47.719,0,0,1,6.555-3.948,12.441,12.441,0,0,1,6.9-1.212,1,1,0,1,1-.246,1.985,10.533,10.533,0,0,0-5.822,1.048,45.648,45.648,0,0,0-6.265,3.786,69.5,69.5,0,0,1-10.105,5.943A1,1,0,0,1,414.17,48.734Z" transform="translate(-34.131 20.65)" fill="#5bb3b3" />
        <path d="M0-1H4A1,1,0,0,1,5,0V9.608a1,1,0,0,1-1,1H0a1,1,0,0,1-1-1V0A1,1,0,0,1,0-1ZM3,1H1V8.608H3Z" transform="translate(388.978 267.413)" fill="#5bb3b3" />
        <path d="M0-1H4A1,1,0,0,1,5,0V9.608a1,1,0,0,1-1,1H0a1,1,0,0,1-1-1V0A1,1,0,0,1,0-1ZM3,1H1V8.608H3Z" transform="translate(388.978 286.628)" fill="#5bb3b3" />
        <path d="M79.105,137.362s9.974-17.654,25.926-14.427c9.57-16.133,22.331-6.453,22.331-6.453s19.142-25.813,38.286-3.227c12.761-9.678,22.331,6.453,22.331,6.453s22.333-10.905,28.714,18.133" transform="translate(-125.128 182.638)" fill="#bfe2e2" />
    </g>
</svg>