<svg xmlns="http://www.w3.org/2000/svg" xmlns:xlink="http://www.w3.org/1999/xlink" width="400"
    height="320" viewBox="0 0 400 320">
    <defs>
        <clipPath>
            <rect width="400" height="320" />
        </clipPath>
    </defs>
    <g clip-path="url(#b)">
        <g transform="translate(846.32 -299.316)">
            <path
                d="M1445.389-338.442H1427.1c-3.448-4.55-6.354-8.728-7-13.8a11.008,11.008,0,0,1,.49-4.745,11.5,11.5,0,0,1,2.261-4.031,6.592,6.592,0,0,1,4.826-2.5,5.131,5.131,0,0,1,2.42.623,64.99,64.99,0,0,1-6.174-7.8,22.356,22.356,0,0,1-3.6-9.131,13.29,13.29,0,0,1,3-10.1,7.254,7.254,0,0,1,5.374-2.734,6.143,6.143,0,0,1,1.661.233,15.8,15.8,0,0,1-5.609-7.216,48.6,48.6,0,0,1-2.378-9.144,77.264,77.264,0,0,0-1.909-8.185,82.438,82.438,0,0,1-2.564-9.7c-.563-3.266-.385-5.465.543-6.723a3.5,3.5,0,0,1,3-1.294,9.745,9.745,0,0,1,2.253.3,17.309,17.309,0,0,1-7.6-6.043c-1.593-2.373-2.542-5.2-3.744-8.774-.47-1.4-.956-2.846-1.542-4.456a70.424,70.424,0,0,1-3.268-12.395c-.644-4.041-.589-6.853.157-7.918a.993.993,0,0,1,.835-.474,1.278,1.278,0,0,1,.319.043,13.109,13.109,0,0,1-4.447-3.217,33.166,33.166,0,0,1-3.7-4.7,52.189,52.189,0,0,1-3.461-6.087c0-.054.016-5.74-.29-11.666-.515-9.958-1.528-13.089-2.287-13.962,6.131,5.867,11.385,13.249,16.066,22.567a176.905,176.905,0,0,1,10.4,26.674,559.337,559.337,0,0,1,15.436,61.738,597.183,597.183,0,0,1,8.821,64.618Z"
                transform="translate(-2236.759 835.04)" fill="#bfe2e2" />
            <path
                d="M1444.942-337.895l0-.048h-18.083l-.15-.2c-3.492-4.607-6.436-8.844-7.1-14.04a11.51,11.51,0,0,1,.511-4.962,12,12,0,0,1,2.361-4.207,7.08,7.08,0,0,1,5.2-2.671,5.376,5.376,0,0,1,.824.064,56.476,56.476,0,0,1-5-6.474,22.841,22.841,0,0,1-3.677-9.335,13.81,13.81,0,0,1,3.12-10.5,7.766,7.766,0,0,1,5.685-2.9,16.543,16.543,0,0,1-4.345-6.293,48.956,48.956,0,0,1-2.406-9.238,76.85,76.85,0,0,0-1.9-8.133,82.8,82.8,0,0,1-2.579-9.76c-.587-3.407-.38-5.731.633-7.105a3.835,3.835,0,0,1,3.051-1.488,16.1,16.1,0,0,1-5.413-4.969c-1.63-2.429-2.589-5.281-3.8-8.891-.469-1.4-.954-2.84-1.539-4.446a70.942,70.942,0,0,1-3.292-12.487c-.47-2.95-.81-6.782.241-8.284a1.893,1.893,0,0,1,.2-.244,15.626,15.626,0,0,1-3.444-2.769,33.658,33.658,0,0,1-3.754-4.771,52.794,52.794,0,0,1-3.5-6.154l-.047-.1v-.112c0-.056.016-5.729-.29-11.638a80.218,80.218,0,0,0-1.044-10.319c-.443-2.294-.893-3.077-1.121-3.34l.723-.689c6.172,5.906,11.46,13.332,16.167,22.7a177.393,177.393,0,0,1,10.43,26.749,559.827,559.827,0,0,1,15.45,61.794,597.7,597.7,0,0,1,8.829,64.672l.039.489Zm-17.261-25.125a6.106,6.106,0,0,0-4.45,2.332,11,11,0,0,0-2.16,3.854,10.506,10.506,0,0,0-.47,4.527c.62,4.878,3.413,8.95,6.751,13.364h17.5a596.928,596.928,0,0,0-8.77-64.023,558.866,558.866,0,0,0-15.422-61.683,176.433,176.433,0,0,0-10.369-26.6,82.626,82.626,0,0,0-14.2-20.674,66,66,0,0,1,1.367,11.819c.283,5.474.292,10.744.291,11.58a52.492,52.492,0,0,0,3.378,5.923,32.666,32.666,0,0,0,3.639,4.628,12.628,12.628,0,0,0,4.27,3.1l-.307.95a.778.778,0,0,0-.194-.027.491.491,0,0,0-.426.26c-.313.446-.946,2.076-.073,7.552a69.908,69.908,0,0,0,3.244,12.3c.589,1.618,1.075,3.067,1.546,4.467,1.19,3.542,2.13,6.337,3.685,8.655a16.84,16.84,0,0,0,7.4,5.868l-.328.94a9.253,9.253,0,0,0-2.135-.29,3.026,3.026,0,0,0-2.6,1.091c-.832,1.127-.984,3.261-.453,6.342a82.045,82.045,0,0,0,2.549,9.635,77.642,77.642,0,0,1,1.922,8.237,48.246,48.246,0,0,0,2.349,9.049,15.317,15.317,0,0,0,5.436,7l-.425.889a5.642,5.642,0,0,0-1.526-.215,6.766,6.766,0,0,0-5,2.564,12.768,12.768,0,0,0-2.882,9.709,21.87,21.87,0,0,0,3.528,8.928,64.487,64.487,0,0,0,6.128,7.743l-.609.773A4.636,4.636,0,0,0,1427.681-363.02Z"
                transform="translate(-2236.759 835.04)" fill="rgba(0,0,0,0)" />
            <path
                d="M1451.121-372.533h-4.547c-.388-7.16-.707-14.494-.988-20.964-.413-9.493-.769-17.691-1.195-22a241.662,241.662,0,0,1-1.61-27.519c.183-10.287,1.692-19.018,4.613-26.691a55.376,55.376,0,0,1,9.053-15.475,61.719,61.719,0,0,1,13.339-12.042,63.47,63.47,0,0,1,16.224-7.811,58.812,58.812,0,0,1,17.71-2.781,54.047,54.047,0,0,1,9.153.776,128.588,128.588,0,0,1-18.423,11.124,128.488,128.488,0,0,1-20.02,7.892c2.11,3,3.776,5.507,4.447,8.22a9.331,9.331,0,0,1,.082,4.331,12.478,12.478,0,0,1-2.3,4.753c-1.029,1.387-1.943,2.745-2.827,4.057a47.744,47.744,0,0,1-5.453,7.1,27.468,27.468,0,0,1-8.693,5.9c2.985,1.567,8.157,5.026,9.264,10.562a9.384,9.384,0,0,1-1.988,7.583,6.69,6.69,0,0,1-5.16,2.648c-.083,0-.167,0-.249-.005a22.468,22.468,0,0,1,6.291,7.421,14.678,14.678,0,0,1,1.616,9.237,10.653,10.653,0,0,1-3.817,6.406,10.973,10.973,0,0,1-6.882,2.493,9.909,9.909,0,0,1-3.451-.615l.045.11c1.559,3.795,3.5,8.517,3.666,13.906a22.238,22.238,0,0,1-1.379,8.483,27.937,27.937,0,0,1-5.749,9.064c-.286,1.275-.544,2.568-.769,3.841Z"
                transform="translate(-2261.873 869.817)" fill="#bfe2e2" />
            <path
                d="M1451.121-372.033H1446.1l-.026-.473c-.389-7.17-.708-14.5-.989-20.969-.412-9.485-.769-17.677-1.193-21.975a242.014,242.014,0,0,1-1.612-27.577c.184-10.346,1.7-19.132,4.646-26.86a55.876,55.876,0,0,1,9.134-15.615,62.219,62.219,0,0,1,13.446-12.14,63.972,63.972,0,0,1,16.352-7.872,59.311,59.311,0,0,1,17.86-2.8,54.549,54.549,0,0,1,9.238.783l1.168.2-.96.7a129.089,129.089,0,0,1-18.5,11.167,129.048,129.048,0,0,1-19.436,7.722c1.951,2.794,3.478,5.2,4.126,7.821a9.82,9.82,0,0,1,.085,4.558,12.963,12.963,0,0,1-2.388,4.943c-1.022,1.377-1.932,2.729-2.812,4.037a48.14,48.14,0,0,1-5.513,7.172,27.41,27.41,0,0,1-7.942,5.586c3.109,1.784,7.6,5.2,8.647,10.426a9.9,9.9,0,0,1-2.092,8,7.423,7.423,0,0,1-4.489,2.744,22.653,22.653,0,0,1,5.429,6.775,15.172,15.172,0,0,1,1.663,9.552,11.153,11.153,0,0,1-3.994,6.708,11.474,11.474,0,0,1-7.2,2.605,10.451,10.451,0,0,1-2.586-.322c1.5,3.675,3.189,8.137,3.345,13.208a22.738,22.738,0,0,1-1.41,8.672,28.356,28.356,0,0,1-5.759,9.128c-.272,1.223-.519,2.461-.734,3.682l-.062.42Zm-4.074-1h3.655c.208-1.147.443-2.306.7-3.451l.029-.13.09-.1a27.44,27.44,0,0,0,5.649-8.9,21.742,21.742,0,0,0,1.348-8.293c-.163-5.3-2.084-9.974-3.628-13.731l-.479-1.165,1.07.4a9.41,9.41,0,0,0,3.278.584,10.471,10.471,0,0,0,6.566-2.382,10.153,10.153,0,0,0,3.639-6.1,14.184,14.184,0,0,0-1.568-8.923,21.964,21.964,0,0,0-6.151-7.253l-1.246-.961,1.572.065a6.153,6.153,0,0,0,5-2.46,8.872,8.872,0,0,0,1.885-7.168c-.458-2.29-2.236-6.663-9.006-10.218l-.911-.479.94-.42a26.984,26.984,0,0,0,8.54-5.792,47.351,47.351,0,0,0,5.4-7.028c.888-1.319,1.8-2.68,2.84-4.076a11.992,11.992,0,0,0,2.214-4.562,8.84,8.84,0,0,0-.079-4.1c-.65-2.631-2.292-5.1-4.37-8.052l-.4-.568.665-.2a127.99,127.99,0,0,0,19.942-7.861,128.17,128.17,0,0,0,17.367-10.374,53.777,53.777,0,0,0-7.876-.577,58.312,58.312,0,0,0-17.559,2.758,62.971,62.971,0,0,0-16.1,7.749,61.219,61.219,0,0,0-13.231,11.944,54.878,54.878,0,0,0-8.972,15.335c-2.9,7.618-4.4,16.293-4.58,26.522a241.244,241.244,0,0,0,1.607,27.461c.427,4.325.784,12.53,1.2,22.03C1446.359-387.194,1446.67-380.046,1447.047-373.033Z"
                transform="translate(-2261.873 869.817)" fill="rgba(0,0,0,0)" />
            <path
                d="M1452.178-383.616h-11.925a28.679,28.679,0,0,1-3.622-4.554,7.63,7.63,0,0,1-1.361-4.363c.1-1.693.7-2.482,1.892-2.482a8.794,8.794,0,0,1,2.6.641,8.772,8.772,0,0,0,2.608.643,2.316,2.316,0,0,0,.372-.028q-3.48-2.575-6.96-5.152l-5.711-4.229a63.767,63.767,0,0,1-7.451-6.162,20.69,20.69,0,0,1-5.15-7.845,12.955,12.955,0,0,1,1.394-10.874,8.2,8.2,0,0,1,6.146-3.935,88.193,88.193,0,0,1-22.058-17.562c-.635-4.263-.194-7.234,1.347-9.082,1.881-2.256,5.08-2.362,7.65-2.447a13.434,13.434,0,0,0,2.952-.289,57.7,57.7,0,0,1-9.526-5.808,57.7,57.7,0,0,1-8.232-7.532,27.23,27.23,0,0,1-3.72-5.061,12.834,12.834,0,0,1-1.724-5.86,8.938,8.938,0,0,1,2.472-6.262,6.217,6.217,0,0,1,4.423-2.018c.144,0,.291.006.435.017a61.145,61.145,0,0,1-9.539-11.015c-2.882-4.59-3.965-8.883-3.31-13.125a104.314,104.314,0,0,0,10.1,12.847c3.088,3.319,5.92,5.872,8.658,8.341a87.162,87.162,0,0,1,9.924,10.012,80.9,80.9,0,0,1,10.146,16.594l10.258,20.686c3.414,7.144,6.717,17.094,9.816,29.576,2.735,11.017,5.188,23.579,7.092,36.327Z"
                transform="translate(-2286.126 881)" fill="#bfe2e2" />
            <path
                d="M1452.957-382.271l-.968-.846h-11.953l-.148-.159a29.152,29.152,0,0,1-3.684-4.636,8.1,8.1,0,0,1-1.433-4.653c.119-1.959.923-2.952,2.391-2.952a9.11,9.11,0,0,1,2.768.668c.31.109.624.218.931.315l-4.772-3.533-1.047-.775-5.266-3.9a64.176,64.176,0,0,1-7.509-6.211,21.175,21.175,0,0,1-5.269-8.036,13.473,13.473,0,0,1,1.449-11.308,8.973,8.973,0,0,1,5.122-3.911,88.685,88.685,0,0,1-20.985-16.975l-.1-.112-.022-.15c-.657-4.412-.18-7.512,1.458-9.476,2.024-2.428,5.348-2.538,8.018-2.626.469-.016.911-.03,1.319-.056a58.3,58.3,0,0,1-8.177-5.141,58.2,58.2,0,0,1-8.3-7.6,27.713,27.713,0,0,1-3.787-5.155,13.318,13.318,0,0,1-1.785-6.086,9.455,9.455,0,0,1,2.613-6.624,6.908,6.908,0,0,1,4.014-2.119,58.159,58.159,0,0,1-8.759-10.283c-2.949-4.7-4.055-9.1-3.38-13.467l.195-1.261.714,1.058a103.818,103.818,0,0,0,10.052,12.786c3.072,3.3,5.9,5.847,8.625,8.309a87.574,87.574,0,0,1,9.979,10.07,81.367,81.367,0,0,1,10.207,16.691l10.26,20.689c3.429,7.174,6.743,17.156,9.85,29.671,2.739,11.03,5.194,23.6,7.1,36.362Zm-12.486-1.846H1451.6c-1.889-12.535-4.306-24.869-7-35.706-3.09-12.447-6.381-22.364-9.78-29.477l-10.26-20.689a80.421,80.421,0,0,0-10.082-16.494,86.767,86.767,0,0,0-9.872-9.957c-2.748-2.478-5.587-5.038-8.689-8.372a103.076,103.076,0,0,1-9.386-11.79c-.244,3.692.87,7.456,3.385,11.461a60.659,60.659,0,0,0,9.461,10.92l1.012.97-1.4-.111c-.132-.01-.265-.016-.4-.016a5.723,5.723,0,0,0-4.064,1.867,8.422,8.422,0,0,0-2.331,5.9,12.349,12.349,0,0,0,1.663,5.634,26.747,26.747,0,0,0,3.653,4.966,57.2,57.2,0,0,0,8.16,7.467,57.2,57.2,0,0,0,9.443,5.757l1.184.572-1.265.359a13.711,13.711,0,0,1-3.071.308c-2.471.082-5.546.184-7.283,2.267-1.427,1.711-1.839,4.505-1.259,8.538a87.688,87.688,0,0,0,21.831,17.35l1.413.794-1.615.14a7.708,7.708,0,0,0-5.77,3.71,12.438,12.438,0,0,0-1.34,10.439,20.208,20.208,0,0,0,5.032,7.655,63.363,63.363,0,0,0,7.394,6.112l5.266,3.9,1.047.775,6.358,4.706.952.7-1.169.191a2.818,2.818,0,0,1-.452.035,9.089,9.089,0,0,1-2.773-.671,8.5,8.5,0,0,0-2.438-.613c-.66,0-1.286.244-1.393,2.012a7.164,7.164,0,0,0,1.289,4.073A27.6,27.6,0,0,0,1440.47-384.117Z"
                transform="translate(-2286.126 881)" fill="rgba(0,0,0,0)" />
            <path
                d="M1507.062-390.775h-13.125c-1.337-6.762.751-13.061,2.276-17.661l.037-.111a9.932,9.932,0,0,1-4.116.88,11.094,11.094,0,0,1-6.613-2.243,10.657,10.657,0,0,1-3.964-5.914,14.679,14.679,0,0,1,.968-9.327,22.471,22.471,0,0,1,5.758-7.842,6.008,6.008,0,0,1-.663.037,6.872,6.872,0,0,1-5.125-2.523,9.437,9.437,0,0,1-2.305-7.2c.718-5.6,5.637-9.411,8.505-11.183a10.362,10.362,0,0,1-6.393-6.259c-2.134-5.6-.35-13.221,2.364-18.288a19.65,19.65,0,0,1-8.943-2.5,12.953,12.953,0,0,1-4.908-5.061,11.5,11.5,0,0,1-1.337-5.419,9.535,9.535,0,0,1,1.306-4.865c-11.516-2.593-15.489-5.161-23.405-10.277-1.677-1.084-3.577-2.312-5.75-3.667a40.037,40.037,0,0,1,9.518-1.179,37.959,37.959,0,0,1,15.4,3.307,50.009,50.009,0,0,1,13.365,8.9c7.636,6.95,14.525,16.787,19.924,28.448,3.449,7.45,5.563,16.054,6.464,26.3a241.788,241.788,0,0,1,.314,27.563c-.124,4.332.092,12.536.342,22.036v.012l0,.1q.051,1.93.1,3.933Z"
                transform="translate(-2325.468 887.375)" fill="#bfe2e2" />
            <path
                d="M1507.062-390.275h-13.535l-.08-.4c-1.277-6.458.5-12.46,1.995-17.018a10.48,10.48,0,0,1-3.308.528,11.6,11.6,0,0,1-6.913-2.343,11.159,11.159,0,0,1-4.149-6.194,15.173,15.173,0,0,1,.993-9.644,22.657,22.657,0,0,1,4.944-7.138,7.518,7.518,0,0,1-4.889-2.664,9.95,9.95,0,0,1-2.426-7.593c.679-5.3,4.944-9.027,7.922-11.02a10.75,10.75,0,0,1-5.781-6.18,18.882,18.882,0,0,1-.663-9.6,29.872,29.872,0,0,1,2.7-8.42,19.687,19.687,0,0,1-8.406-2.512,13.453,13.453,0,0,1-5.1-5.259,12,12,0,0,1-1.395-5.655,10.229,10.229,0,0,1,1.047-4.521c-11.107-2.563-15.1-5.146-22.918-10.2-1.675-1.082-3.573-2.309-5.744-3.663l-1.006-.627,1.152-.282a40.538,40.538,0,0,1,9.637-1.193,38.456,38.456,0,0,1,15.6,3.35,50.507,50.507,0,0,1,13.5,8.987c7.685,6.995,14.615,16.887,20.041,28.608,3.474,7.5,5.6,16.162,6.508,26.47a242.179,242.179,0,0,1,.316,27.621c-.124,4.319.092,12.516.343,22.009l.009.339q.048,1.82.1,3.7v.513Zm-12.71-1h12.2q-.042-1.617-.084-3.19l-.009-.341c-.25-9.5-.467-17.715-.342-22.061a241.4,241.4,0,0,0-.313-27.5c-.9-10.191-2.995-18.74-6.419-26.138-5.371-11.6-12.22-21.383-19.807-28.288a49.512,49.512,0,0,0-13.23-8.812,37.463,37.463,0,0,0-15.2-3.265,39.173,39.173,0,0,0-8.23.9c1.757,1.106,3.325,2.12,4.734,3.031,7.866,5.084,11.814,7.636,23.244,10.209l.677.152-.359.594a9.036,9.036,0,0,0-1.234,4.61,11,11,0,0,0,1.28,5.182,12.453,12.453,0,0,0,4.721,4.864,19.157,19.157,0,0,0,8.718,2.429l.781.046-.369.689c-2.661,4.966-4.416,12.419-2.338,17.874a9.88,9.88,0,0,0,6.1,5.967l.967.354-.876.541c-2.792,1.725-7.58,5.424-8.272,10.821a8.923,8.923,0,0,0,2.185,6.8,6.381,6.381,0,0,0,4.749,2.353,5.5,5.5,0,0,0,.608-.034l1.563-.174-1.176,1.045a21.968,21.968,0,0,0-5.631,7.665,14.184,14.184,0,0,0-.942,9.01,10.156,10.156,0,0,0,3.779,5.635,10.591,10.591,0,0,0,6.312,2.143,9.434,9.434,0,0,0,3.911-.835l1.04-.47-.4,1.194C1495.211-403.823,1493.2-397.756,1494.352-391.275Z"
                transform="translate(-2325.468 887.375)" fill="rgba(0,0,0,0)" />
            <path
                d="M1438.565-397.086h-9.409c4.4-17.18,9.995-33.443,15.337-44.621a404.576,404.576,0,0,1,21.64-38.965c8.042-12.943,16.785-25.9,24.5-37.325.657,4.239-.427,8.532-3.308,13.122a61.1,61.1,0,0,1-9.538,11.015c.153-.012.3-.017.435-.017a6.218,6.218,0,0,1,4.423,2.018,8.938,8.938,0,0,1,2.472,6.262c-.128,4.509-3.168,8.392-5.444,10.921a57.7,57.7,0,0,1-8.232,7.532,57.7,57.7,0,0,1-9.527,5.808,13.438,13.438,0,0,0,2.952.289c2.571.085,5.771.191,7.651,2.447,1.541,1.848,1.982,4.819,1.347,9.082a88.207,88.207,0,0,1-22.058,17.562,8.2,8.2,0,0,1,6.146,3.935,12.953,12.953,0,0,1,1.393,10.873,20.684,20.684,0,0,1-5.15,7.845,63.741,63.741,0,0,1-7.451,6.162l-8.179,6.056Z"
                transform="translate(-2233.5 893.998)" fill="#bfe2e2" />
            <path
                d="M1438.565-396.586h-10.053l.16-.624c4.411-17.208,10.014-33.5,15.37-44.713a405.081,405.081,0,0,1,21.667-39.014c8.046-12.95,16.792-25.907,24.508-37.338l.713-1.057.2,1.257c.676,4.362-.43,8.767-3.379,13.464a58.158,58.158,0,0,1-8.759,10.283,6.908,6.908,0,0,1,4.014,2.119,9.455,9.455,0,0,1,2.613,6.625c-.133,4.673-3.244,8.654-5.572,11.241a58.208,58.208,0,0,1-8.3,7.6,58.284,58.284,0,0,1-8.177,5.141c.407.026.85.04,1.318.056,2.671.088,5.995.2,8.019,2.627,1.638,1.964,2.115,5.064,1.458,9.476l-.022.15-.1.112a88.7,88.7,0,0,1-20.985,16.975,8.974,8.974,0,0,1,5.122,3.912,13.47,13.47,0,0,1,1.447,11.308,21.169,21.169,0,0,1-5.268,8.035,64.14,64.14,0,0,1-7.509,6.212l-8.171,6.05-.13.1Zm-8.764-1h8.6l8.047-5.958a63.327,63.327,0,0,0,7.394-6.112,20.2,20.2,0,0,0,5.031-7.655,12.435,12.435,0,0,0-1.339-10.439,7.708,7.708,0,0,0-5.771-3.71l-1.615-.14,1.413-.794a87.7,87.7,0,0,0,21.831-17.35c.58-4.033.168-6.827-1.259-8.538-1.737-2.084-4.813-2.186-7.284-2.267a13.717,13.717,0,0,1-3.072-.307l-1.265-.359,1.184-.572a57.2,57.2,0,0,0,9.444-5.758,57.2,57.2,0,0,0,8.16-7.466c2.223-2.47,5.193-6.256,5.316-10.6a8.422,8.422,0,0,0-2.331-5.9,5.724,5.724,0,0,0-4.065-1.867c-.13,0-.263.005-.4.016l-1.4.11,1.011-.97a60.655,60.655,0,0,0,9.461-10.92c2.513-4,3.626-7.761,3.384-11.448-7.523,11.147-15.954,23.671-23.727,36.181a404.084,404.084,0,0,0-21.614,38.917C1439.679-430.476,1434.171-414.5,1429.8-397.586Z"
                transform="translate(-2233.5 893.998)" fill="rgba(0,0,0,0)" />
            <path
                d="M1421.4-347.086l-.8-.187.011-.407c0-.14.008-.281.012-.422l.014-.485h1.377l-.262.68c-.064.167-.125.313-.184.445Zm17.163-49.5h-10.053l.16-.624c4.411-17.208,10.014-33.5,15.37-44.713a405.068,405.068,0,0,1,21.667-39.014c8.047-12.95,16.792-25.908,24.509-37.34l.713-1.057.2,1.259c.676,4.362-.43,8.767-3.379,13.464a58.16,58.16,0,0,1-8.759,10.283,6.909,6.909,0,0,1,4.014,2.119,9.455,9.455,0,0,1,2.613,6.625c-.133,4.673-3.244,8.654-5.572,11.241a58.206,58.206,0,0,1-8.3,7.6,58.28,58.28,0,0,1-8.178,5.141c.407.026.85.04,1.318.056,2.671.088,5.995.2,8.019,2.626,1.638,1.964,2.115,5.064,1.458,9.476l-.022.15-.1.112a88.7,88.7,0,0,1-20.985,16.975,8.974,8.974,0,0,1,5.122,3.912,13.47,13.47,0,0,1,1.447,11.308,21.167,21.167,0,0,1-5.268,8.035,64.154,64.154,0,0,1-7.509,6.212l-8.179,6.056-.133.1Zm-8.764-1h8.6l8.047-5.958a63.334,63.334,0,0,0,7.394-6.112,20.2,20.2,0,0,0,5.031-7.655,12.435,12.435,0,0,0-1.339-10.439,7.708,7.708,0,0,0-5.771-3.71l-1.615-.14,1.413-.794a87.7,87.7,0,0,0,21.831-17.35c.58-4.033.168-6.827-1.259-8.538-1.737-2.084-4.813-2.186-7.284-2.267a13.715,13.715,0,0,1-3.072-.307l-1.265-.359,1.184-.572a57.2,57.2,0,0,0,9.444-5.758,57.2,57.2,0,0,0,8.16-7.466c2.223-2.47,5.193-6.256,5.316-10.6a8.422,8.422,0,0,0-2.331-5.9,5.724,5.724,0,0,0-4.065-1.867c-.13,0-.263.005-.4.016l-1.4.11,1.011-.97a60.655,60.655,0,0,0,9.461-10.92c2.513-4,3.626-7.761,3.384-11.448-7.523,11.146-15.954,23.67-23.727,36.181a404.078,404.078,0,0,0-21.614,38.917C1439.679-430.476,1434.171-414.5,1429.8-397.586Z"
                transform="translate(-2234 844.333)" fill="rgba(0,0,0,0)" />
            <path
                d="M1421.689-346.505l-1.6-.373.021-.815c0-.141.008-.282.012-.423l.029-.97h2.591l-.524,1.359c-.068.176-.131.33-.194.47Zm-.577-1.162h0c.055-.123.112-.261.173-.42h-.164C1421.12-347.947,1421.115-347.806,1421.112-347.667Zm17.453-48.419h-10.7l.32-1.248c4.419-17.237,10.034-33.568,15.4-44.8a405.569,405.569,0,0,1,21.693-39.062c8.053-12.961,16.8-25.921,24.519-37.356l1.426-2.113.392,2.518c.695,4.487-.433,9-3.449,13.807a56.4,56.4,0,0,1-8.165,9.72,7.624,7.624,0,0,1,3.355,2.068,9.971,9.971,0,0,1,2.754,6.987c-.137,4.838-3.319,8.915-5.7,11.561a58.713,58.713,0,0,1-8.375,7.662,58.936,58.936,0,0,1-6.631,4.315c2.676.1,5.839.347,7.875,2.789,1.734,2.08,2.247,5.309,1.568,9.87l-.045.3-.2.225a89.232,89.232,0,0,1-20.169,16.519,9.714,9.714,0,0,1,4.355,3.759,13.988,13.988,0,0,1,1.5,11.743,21.65,21.65,0,0,1-5.386,8.226,64.562,64.562,0,0,1-7.567,6.262l-8.179,6.056-.265.2Zm23-77.109c-6.725,11.224-12.343,21.586-17.075,31.487-5.3,11.093-10.846,27.189-15.234,44.218l.057-.222c4.376-16.936,9.907-32.972,15.176-44C1449.225-451.609,1454.842-461.97,1461.568-473.195Zm-11.845,67.8c-.971.76-1.968,1.506-2.979,2.254l-7.239,5.36,7.239-5.36C1447.754-403.89,1448.752-404.636,1449.723-405.4Zm-19.276,7.31h7.788l7.914-5.86a62.932,62.932,0,0,0,7.336-6.062,19.715,19.715,0,0,0,4.913-7.464,11.918,11.918,0,0,0-1.284-10,7.219,7.219,0,0,0-5.395-3.485l-3.23-.279,2.826-1.589a87.2,87.2,0,0,0,21.6-17.137c.528-3.8.145-6.419-1.169-7.995-1.594-1.912-4.545-2.009-6.916-2.088a14.012,14.012,0,0,1-3.192-.326l-2.531-.718,2.369-1.145a56.7,56.7,0,0,0,9.362-5.707,56.692,56.692,0,0,0,8.089-7.4c2.171-2.411,5.07-6.1,5.188-10.28a7.906,7.906,0,0,0-2.19-5.537,5.231,5.231,0,0,0-3.706-1.715c-.117,0-.237,0-.357.014l-2.793.221,2.022-1.939a60.213,60.213,0,0,0,9.384-10.825,19.54,19.54,0,0,0,3.328-9.576c-6.835,10.13-15.146,22.486-22.822,34.839a403.6,403.6,0,0,0-21.587,38.869C1440.217-430.443,1434.781-414.732,1430.447-398.086Zm29.4-24.719a12.488,12.488,0,0,1-.5,5.657,19.472,19.472,0,0,1-3.978,6.593,19.472,19.472,0,0,0,3.978-6.593A12.486,12.486,0,0,0,1459.846-422.806Zm-8.041-9.152a8.105,8.105,0,0,1,5.925,3.608,8.347,8.347,0,0,0-4.613-3.376l-1.153-.313.982-.572q-.568.33-1.141.653Zm17.144-28.681a6.36,6.36,0,0,1,3.567,2.038l.062.075-.062-.075A6.36,6.36,0,0,0,1468.949-460.639Zm-7.036-.7.031.009,1.322-.685q-.673.347-1.353.676Zm19.165-14.987c-.48.6-.958,1.149-1.407,1.648q-1.612,1.793-3.381,3.453,1.766-1.658,3.381-3.453C1480.12-475.175,1480.6-475.727,1481.079-476.325Zm3.182-13.178a9.236,9.236,0,0,1,.5,1.313A9.236,9.236,0,0,0,1484.261-489.5Zm-6.04-4.376a6.164,6.164,0,0,1,4.278,1.873,6.324,6.324,0,0,0-3.576-1.826l-1.021-.135.686-.668q-.4.393-.8.774C1477.932-493.872,1478.078-493.878,1478.221-493.878Zm7.08-8.107a68.764,68.764,0,0,1-6.471,7.114A68.618,68.618,0,0,0,1485.3-501.985Zm2.237-3.237q-.105.173-.214.346-.147.234-.3.467.152-.233.3-.467Q1487.433-505.049,1487.538-505.222Zm3.241-11.466,0,.066q.047.716.029,1.435Q1490.832-515.94,1490.78-516.688Z"
                transform="translate(-2234 844.333)" fill="rgba(0,0,0,0)" />
        </g>
        <path
            d="M398.953,1H0A1,1,0,0,1-1,0,1,1,0,0,1,0-1H398.953a1,1,0,0,1,1,1A1,1,0,0,1,398.953,1Z"
            transform="translate(1.047 198.069)" fill="#5bb3b3" />
        <g transform="translate(47)">
            <path
                d="M419.974,261.533a1,1,0,0,1-.706-.292L362.8,204.984l-85.1,56.286a1,1,0,0,1-1.1-1.668l85.777-56.736a1,1,0,0,1,1.257.126l57.043,56.834a1,1,0,0,1-.706,1.708Z"
                transform="translate(-270.551 58.628)" fill="#5ab3b3" />
            <path
                d="M45.111,42.5a1,1,0,0,1-.677-.264L-.677.736A1,1,0,0,1-.736-.677,1,1,0,0,1,.677-.736l45.111,41.5a1,1,0,0,1-.677,1.736Z"
                transform="translate(81.083 277.73)" fill="#5ab3b3" />
            <path
                d="M36.174,36.148a1,1,0,0,1-.7-.283L-.7.717A1,1,0,0,1-.717-.7,1,1,0,0,1,.7-.717L36.871,34.43a1,1,0,0,1-.7,1.717Z"
                transform="translate(72.307 283.545)" fill="#5ab3b3" />
            <path
                d="M19.592,20.857a1,1,0,0,1-.712-.3L-.712.7A1,1,0,0,1-.7-.712,1,1,0,0,1,.712-.7L20.3,19.154a1,1,0,0,1-.712,1.7Z"
                transform="translate(63.185 289.247)" fill="#5ab3b3" />
            <path
                d="M19.6,20.169a1,1,0,0,1-.7-.285L-.7.715A1,1,0,0,1-.715-.7,1,1,0,0,1,.7-.715l19.6,19.169a1,1,0,0,1-.7,1.715Z"
                transform="translate(48.206 300.183)" fill="#5ab3b3" />
            <path
                d="M14.429,15.116a1,1,0,0,1-.7-.285L-.7.715A1,1,0,0,1-.715-.7,1,1,0,0,1,.7-.715L15.128,13.4a1,1,0,0,1-.7,1.715Z"
                transform="translate(39.084 305.884)" fill="#5ab3b3" />
        </g>
        <g transform="translate(19 12)">
            <g transform="translate(-2.216)">
                <path d="M0,0H17.412V45.374H0Z" transform="translate(193.51 141.704)" fill="#313e58" />
                <path
                    d="M4,0H172.845a4,4,0,0,1,4,4V113.619a4,4,0,0,1-4,4H4a4,4,0,0,1-4-4V4A4,4,0,0,1,4,0Z"
                    transform="translate(113.793 54.707)" fill="#313e58" />
                <path
                    d="M4,0H152.131a4,4,0,0,1,4,4V93.914a4,4,0,0,1-4,4H4a4,4,0,0,1-4-4V4A4,4,0,0,1,4,0Z"
                    transform="translate(124.15 63.951)" fill="#acb1bc" />
                <path
                    d="M134.1,133.811c0,4.39-6.258,3.731-46.506,3.731-41.917,0-46.5.659-46.5-3.731s20.821-7.948,46.5-7.948,46.506,3.558,46.506,7.948"
                    transform="translate(114.147 55.793)" fill="#313e58" />
                <path d="M10.269,9.165v97.914H125.437L90,9.165Z"
                    transform="translate(113.881 54.786)" fill="#e4e6ea" />
                <path
                    d="M157.434,111.132a1.789,1.789,0,1,1-1.789-1.789,1.789,1.789,0,0,1,1.789,1.789"
                    transform="translate(52.149 55.65)" fill="#e4e6ea" />
                <path
                    d="M151.891,111.132a1.789,1.789,0,1,1-1.789-1.789,1.789,1.789,0,0,1,1.789,1.789"
                    transform="translate(52.101 55.65)" fill="#e4e6ea" />
            </g>
            <path d="M146.373,111.132a1.789,1.789,0,1,1-1.789-1.789,1.789,1.789,0,0,1,1.789,1.789"
                transform="translate(50.054 55.65)" fill="#e4e6ea" />
        </g>
        <g transform="translate(48.587 -68)">
            <path
                d="M3.894,0H118a3.894,3.894,0,0,1,3.894,3.894V81.029A3.894,3.894,0,0,1,118,84.923H3.894A3.894,3.894,0,0,1,0,81.029V3.894A3.894,3.894,0,0,1,3.894,0Z"
                transform="translate(29.426 227.409)" fill="#96b7df" />
            <path d="M7.223,34.438A8.461,8.461,0,1,1,15.684,42.9a8.461,8.461,0,0,1-8.461-8.461"
                transform="translate(30.172 194.853)" fill="#313e58" />
            <path
                d="M3.894,0H118a3.675,3.675,0,0,1,3.894,3.406V26.443c0,1.881-121.892,1.881-121.892,0V3.406A3.675,3.675,0,0,1,3.894,0Z"
                transform="translate(29.426 227.409)" fill="#708daf" />
            <rect width="93.186" height="16.581" transform="translate(41.167 237.288)" fill="#fff" />
            <path
                d="M16.022,28.509a2.057,2.057,0,0,0-1.311,2.561,2.059,2.059,0,0,0,2.753.836L84.146,3.6A2.057,2.057,0,0,0,85.457,1.04,2.057,2.057,0,0,0,82.7.205Z"
                transform="translate(30.932 192.171)" fill="#313e58" />
            <path
                d="M17.439,48.9a1.014,1.014,0,0,0-1.1.891v6.859h2.207V49.79a1.014,1.014,0,0,0-1.1-.891"
                transform="translate(31.113 197.22)" fill="#acb1bc" />
            <path
                d="M27.567,48.9a1.014,1.014,0,0,0-1.1.891v6.859h2.207V49.79a1.014,1.014,0,0,0-1.1-.891"
                transform="translate(32.159 197.22)" fill="#acb1bc" />
            <path
                d="M37.7,48.9a1.014,1.014,0,0,0-1.1.891v6.859H38.8V49.79a1.014,1.014,0,0,0-1.1-.891"
                transform="translate(33.204 197.22)" fill="#acb1bc" />
            <path
                d="M47.824,48.9a1.014,1.014,0,0,0-1.1.891v6.859h2.207V49.79a1.014,1.014,0,0,0-1.1-.891"
                transform="translate(34.25 197.22)" fill="#acb1bc" />
            <path
                d="M57.952,48.9a1.014,1.014,0,0,0-1.1.891v6.859h2.207V49.79a1.014,1.014,0,0,0-1.1-.891"
                transform="translate(35.296 197.22)" fill="#acb1bc" />
            <path
                d="M68.08,48.9a1.014,1.014,0,0,0-1.1.891v6.859h2.207V49.79a1.014,1.014,0,0,0-1.1-.891"
                transform="translate(36.342 197.22)" fill="#acb1bc" />
            <path
                d="M78.209,48.9a1.014,1.014,0,0,0-1.1.891v6.859h2.207V49.79a1.014,1.014,0,0,0-1.1-.891"
                transform="translate(37.388 197.22)" fill="#acb1bc" />
            <path
                d="M88.337,48.9a1.014,1.014,0,0,0-1.1.891v6.859h2.207V49.79a1.014,1.014,0,0,0-1.1-.891"
                transform="translate(38.433 197.22)" fill="#acb1bc" />
            <path
                d="M73.4,42.359a1.711,1.711,0,0,0-1.449,1.885v13.08h2.9V44.244A1.711,1.711,0,0,0,73.4,42.359"
                transform="translate(36.855 196.545)" fill="#cc7a29" />
            <path
                d="M53.106,83.233A22.563,22.563,0,1,1,30.544,60.67,22.562,22.562,0,0,1,53.106,83.233"
                transform="translate(30.25 198.435)" fill="#708daf" />
            <path d="M0,0H121.987" transform="translate(29.426 254.007)" fill="#708daf" />
            <path d="M121.987,1.42H0V-1.5H121.987Z" transform="translate(29.426 254.047)"
                fill="#313e58" />
            <path d="M28.748,68.937V64.162a18.56,18.56,0,0,0-5.457.982v3.793Z"
                transform="translate(31.831 198.796)" fill="#313e58" />
            <path d="M34.694,68.937V65.144a18.552,18.552,0,0,0-5.456-.982v4.775Z"
                transform="translate(32.445 198.796)" fill="#313e58" />
            <rect width="5.456" height="5.532" transform="translate(68.242 275.471)" fill="#313e58" />
            <rect width="5.456" height="5.531" transform="translate(48.563 268.836)" fill="#313e58" />
            <path d="M44.64,75.012a18.6,18.6,0,0,0-3.512-5.429v5.429Z"
                transform="translate(33.673 199.356)" fill="#313e58" />
            <path d="M40.522,68.807a18.62,18.62,0,0,0-5.34-3.389v3.389Z"
                transform="translate(33.059 198.926)" fill="#313e58" />
            <rect width="5.456" height="5.531" transform="translate(68.242 282.105)" fill="#313e58" />
            <rect width="5.456" height="5.531" transform="translate(61.683 268.836)" fill="#313e58" />
            <rect width="5.457" height="5.531" transform="translate(55.122 268.836)" fill="#313e58" />
            <path d="M13.163,87.53a18.6,18.6,0,0,0,3.512,5.429V87.53Z"
                transform="translate(30.785 201.209)" fill="#313e58" />
            <path d="M41.128,87.048h3.915a18.539,18.539,0,0,0,1.008-5.531H41.128Z"
                transform="translate(33.673 200.588)" fill="#313e58" />
            <rect width="5.456" height="5.532" transform="translate(68.242 288.739)" fill="#313e58" />
            <path d="M16.807,81.517H11.883a18.539,18.539,0,0,0,1.008,5.531h3.915Z"
                transform="translate(30.653 200.588)" fill="#313e58" />
            <path d="M16.675,69.583a18.626,18.626,0,0,0-3.512,5.429h3.512Z"
                transform="translate(30.785 199.356)" fill="#313e58" />
            <rect width="5.456" height="5.531" transform="translate(68.242 268.836)" fill="#313e58" />
            <path d="M16.807,75.5H12.891a18.539,18.539,0,0,0-1.008,5.532h4.924Z"
                transform="translate(30.653 199.967)" fill="#313e58" />
            <path d="M17.452,93.544a18.614,18.614,0,0,0,5.339,3.389V93.544Z"
                transform="translate(31.228 201.83)" fill="#313e58" />
            <path d="M41.128,92.96a18.594,18.594,0,0,0,3.512-5.43H41.128Z"
                transform="translate(33.673 201.209)" fill="#313e58" />
            <path d="M22.791,65.418a18.614,18.614,0,0,0-5.339,3.389h5.339Z"
                transform="translate(31.228 198.926)" fill="#313e58" />
            <rect width="5.456" height="5.532" transform="translate(48.563 288.739)" fill="#313e58" />
            <path d="M35.183,96.933a18.611,18.611,0,0,0,5.34-3.389h-5.34Z"
                transform="translate(33.059 201.83)" fill="#313e58" />
            <path d="M23.291,93.544v3.793a18.56,18.56,0,0,0,5.457.982V93.544Z"
                transform="translate(31.831 201.83)" fill="#313e58" />
            <path d="M29.237,93.544v4.774a18.517,18.517,0,0,0,5.456-.981V93.544Z"
                transform="translate(32.445 201.83)" fill="#313e58" />
            <path d="M41.128,81.035h4.924A18.546,18.546,0,0,0,45.043,75.5H41.128Z"
                transform="translate(33.673 199.967)" fill="#313e58" />
            <rect width="5.456" height="5.531" transform="translate(61.682 282.105)" fill="#313e58" />
            <rect width="5.457" height="5.532" transform="translate(55.122 288.739)" fill="#313e58" />
            <rect width="5.456" height="5.532" transform="translate(48.563 275.471)" fill="#313e58" />
            <rect width="5.457" height="5.531" transform="translate(55.122 282.105)" fill="#313e58" />
            <rect width="5.456" height="5.531" transform="translate(48.563 282.105)" fill="#313e58" />
            <rect width="5.457" height="5.532" transform="translate(55.122 275.471)" fill="#313e58" />
            <rect width="5.456" height="5.532" transform="translate(61.683 275.471)" fill="#313e58" />
            <rect width="5.456" height="5.532" transform="translate(61.682 288.739)" fill="#313e58" />
        </g>
        <g transform="translate(140.38 29.89)">
            <path
                d="M41.692,0C64.717,0,83.383,19.072,83.383,42.6S64.717,85.2,41.692,85.2,0,66.124,0,42.6,18.666,0,41.692,0Z"
                transform="translate(98.394 142.729)" fill="#ffd964" />
            <path
                d="M19.847,48.915l.637-3.749H7.823a33.793,33.793,0,0,1-1.108-4.371L3.61,41.6a1.213,1.213,0,0,0-.535.271c.064.332.144.658.217.986.026.021.045.043.074.064l3.368,2.4a1.373,1.373,0,0,1,.221,2.093L5.248,49.276c.13.332.252.666.391.994a44.891,44.891,0,0,0,3.337,6.382l2.583-2.816a49.046,49.046,0,0,1-2.611-4.921Z"
                transform="translate(93.334 150.777)" />
            <path
                d="M41.692,0c14.886,5.446,26.077,58.656,0,85.2C18.666,85.2,0,66.124,0,42.6S18.666,0,41.692,0Z"
                transform="translate(97.488 140.917)" fill="#ffe491" />
            <path
                d="M86.736,26.613A43.258,43.258,0,0,0,77.363,12.7,43.944,43.944,0,0,0,63.389,3.388,43.435,43.435,0,0,0,46.274,0,43.435,43.435,0,0,0,29.16,3.388,43.944,43.944,0,0,0,15.186,12.7,43.436,43.436,0,0,0,2.411,43.713a46.934,46.934,0,0,0,.419,6.24c.11-.039.2-.1.319-.126l3.344-.87a43.343,43.343,0,0,1-.333-5.244,41.441,41.441,0,0,1,.445-6.14A31.892,31.892,0,0,1,8,31.866H28.991q-.553,3.205-.768,6.1t-.216,5.751q0,2.746.2,5.741t.754,6.378H23.217l-.637,3.749h7.067A62.482,62.482,0,0,0,34.287,73,45.507,45.507,0,0,0,41.167,83.7a43.5,43.5,0,0,1-19.261-7.859,38.88,38.88,0,0,1-8.757-9.148L10.6,69.472a42.267,42.267,0,0,0,4.589,5.4A44.984,44.984,0,0,0,29.16,84.263a42.635,42.635,0,0,0,17.114,3.464,42.635,42.635,0,0,0,17.114-3.464,44.984,44.984,0,0,0,13.974-9.387,43.161,43.161,0,0,0,9.373-13.942,43.625,43.625,0,0,0,3.4-17.221,43.19,43.19,0,0,0-3.4-17.1M70.619,11.622A41.25,41.25,0,0,1,83.427,28.117H62.9a70.63,70.63,0,0,0-4.748-13.262A55.055,55.055,0,0,0,51.382,3.936a40.121,40.121,0,0,1,19.237,7.686M54.035,14.644a64.032,64.032,0,0,1,5.118,13.472H33.546a74.432,74.432,0,0,1,5.352-14.4A39.862,39.862,0,0,1,46.274,3.561a50.722,50.722,0,0,1,7.76,11.083M9.122,28.117A41.4,41.4,0,0,1,21.9,11.668a40.7,40.7,0,0,1,19.148-7.7A57.825,57.825,0,0,0,34.306,15a69.536,69.536,0,0,0-4.63,13.117Zm22.85,21.327q-.216-2.8-.216-5.731,0-2.812.216-5.535t.8-6.312H59.809q.581,3.589.8,6.312t.216,5.535q0,2.933-.216,5.731t-.8,6.388H32.768q-.581-3.591-.8-6.388m6.566,23.811a63.61,63.61,0,0,1-4.992-13.674H59.03A62.41,62.41,0,0,1,54.106,73a54.71,54.71,0,0,1-7.831,11.224,50.776,50.776,0,0,1-7.737-10.966m31.791,2.568A40.463,40.463,0,0,1,51.5,83.667a57.135,57.135,0,0,0,6.35-10.6,87.573,87.573,0,0,0,5.075-13.486h20.5a42.6,42.6,0,0,1-13.1,16.243M85.943,49.988a34.1,34.1,0,0,1-1.391,5.844H63.558q.553-3.563.782-6.454t.23-5.665q0-2.418-.216-5.235t-.675-6.613H84.552a31.892,31.892,0,0,1,1.391,5.708,41.44,41.44,0,0,1,.445,6.14,42.95,42.95,0,0,1-.445,6.274"
                transform="translate(93.16 140.11)" fill="#7a8293" />
            <path
                d="M21.536,37.941a1.46,1.46,0,0,0-.37.05L4.414,42.349c-.845.221-.955.815-.243,1.322l3.368,2.4a1.373,1.373,0,0,1,.221,2.093l-7.343,8a1.594,1.594,0,0,0,.1,2.245l3.355,3.078a1.595,1.595,0,0,0,2.245-.1l7.343-8a1.372,1.372,0,0,1,2.1.04l2.679,3.149a.968.968,0,0,0,.684.411c.293,0,.527-.264.613-.767l2.9-17.065c.124-.728-.267-1.216-.9-1.216"
                transform="translate(92.53 150.03)" fill="#313e58" />
        </g>
        <path
            d="M68.259,211.509A120.586,120.586,0,0,1,44,209.335a32.014,32.014,0,0,1-7.532-2.422c-2.135-1.09-3.218-2.352-3.218-3.75a3.319,3.319,0,0,1,1.264-2.459,10.771,10.771,0,0,1,2.931-1.748,44.977,44.977,0,0,1,9.847-2.591,1,1,0,0,1,.33,1.973c-9.786,1.637-12.372,3.873-12.372,4.826,0,.83,1.932,2.653,9.171,4.216a118.568,118.568,0,0,0,23.835,2.129,118.569,118.569,0,0,0,23.835-2.129c7.24-1.564,9.171-3.386,9.171-4.216,0-.767-.889-1.619-2.5-2.4a34.439,34.439,0,0,0-8.924-2.428,1,1,0,1,1,.324-1.974,36.294,36.294,0,0,1,9.469,2.6c2.412,1.164,3.634,2.577,3.634,4.2,0,1.4-1.083,2.659-3.217,3.75a32.013,32.013,0,0,1-7.531,2.422A120.586,120.586,0,0,1,68.259,211.509Z"
            transform="translate(-60.059 61.818)" fill="#5bb3b3" />
        <path
            d="M22.486-1A92.574,92.574,0,0,1,38.568.24c5.051.938,7.4,2.189,7.4,3.937s-2.352,3-7.4,3.937a92.574,92.574,0,0,1-16.082,1.24A92.574,92.574,0,0,1,6.4,8.114C1.352,7.176-1,5.925-1,4.177s2.352-3,7.4-3.937A92.574,92.574,0,0,1,22.486-1ZM43.941,4.177a3.928,3.928,0,0,0-1.628-.909A26.8,26.8,0,0,0,37.6,2.1,93.368,93.368,0,0,0,22.486,1,93.368,93.368,0,0,0,7.37,2.1,26.8,26.8,0,0,0,2.659,3.268a3.928,3.928,0,0,0-1.628.909,3.928,3.928,0,0,0,1.628.909A26.8,26.8,0,0,0,7.37,6.256a93.368,93.368,0,0,0,15.115,1.1A93.368,93.368,0,0,0,37.6,6.256a26.8,26.8,0,0,0,4.711-1.169A3.928,3.928,0,0,0,43.941,4.177Z"
            transform="translate(-14.286 231.783)" fill="#5bb3b3" />
        <path
            d="M82.013,199.526H58.534a11.51,11.51,0,0,1-8.357-3.617,12.425,12.425,0,0,1-3.454-8.65V171.487a12.834,12.834,0,0,1,.081-1.439,1,1,0,0,1,1.987.225,10.828,10.828,0,0,0-.068,1.214v15.771a10.435,10.435,0,0,0,2.9,7.265,9.528,9.528,0,0,0,6.914,3H82.013a9.528,9.528,0,0,0,6.914-3,10.435,10.435,0,0,0,2.9-7.265V171.487a10.716,10.716,0,0,0-.078-1.3,1,1,0,1,1,1.985-.243,12.723,12.723,0,0,1,.093,1.541v15.771a12.425,12.425,0,0,1-3.454,8.65A11.51,11.51,0,0,1,82.013,199.526Z"
            transform="translate(-62.074 65.892)" fill="#5bb3b3" />
        <path
            d="M103.922,192.054a6.767,6.767,0,0,1-3.945-1.3,1,1,0,0,1,1.163-1.627,4.78,4.78,0,0,0,2.782.929c3.079,0,5.583-3.09,5.583-6.888s-2.5-6.889-5.583-6.889a4.694,4.694,0,0,0-2.641.827,1,1,0,1,1-1.11-1.663,6.75,6.75,0,0,1,3.751-1.163,7.029,7.029,0,0,1,5.423,2.67,10.03,10.03,0,0,1,0,12.437A7.029,7.029,0,0,1,103.922,192.054Z"
            transform="translate(-69.976 65.113)" fill="#5bb3b3" />
        <g transform="translate(-15.902 -17)">
            <path
                d="M0-1H16.151a1,1,0,0,1,1,1V70.563a1,1,0,0,1-1,1H0a1,1,0,0,1-1-1V0A1,1,0,0,1,0-1ZM15.151,1H1V69.563H15.151Z"
                transform="translate(387.324 33.945)" fill="#5bb3b3" />
            <path d="M3.59,1H0A1,1,0,0,1-1,0,1,1,0,0,1,0-1H3.59a1,1,0,0,1,1,1A1,1,0,0,1,3.59,1Z"
                transform="translate(393.604 66.269)" fill="#5bb3b3" />
            <path d="M3.59,1H0A1,1,0,0,1-1,0,1,1,0,0,1,0-1H3.59a1,1,0,0,1,1,1A1,1,0,0,1,3.59,1Z"
                transform="translate(393.604 73.171)" fill="#5bb3b3" />
            <path
                d="M0-1H16.151a1,1,0,0,1,1,1V70.563a1,1,0,0,1-1,1H0a1,1,0,0,1-1-1V0A1,1,0,0,1,0-1ZM15.151,1H1V69.563H15.151Z"
                transform="translate(363.407 33.945)" fill="#5bb3b3" />
            <path d="M3.59,1H0A1,1,0,0,1-1,0,1,1,0,0,1,0-1H3.59a1,1,0,0,1,1,1A1,1,0,0,1,3.59,1Z"
                transform="translate(369.688 66.269)" fill="#5bb3b3" />
            <path d="M3.59,1H0A1,1,0,0,1-1,0,1,1,0,0,1,0-1H3.59a1,1,0,0,1,1,1A1,1,0,0,1,3.59,1Z"
                transform="translate(369.688 73.171)" fill="#5bb3b3" />
            <path
                d="M0-1H16.151a1,1,0,0,1,1,1V70.563a1,1,0,0,1-1,1H0a1,1,0,0,1-1-1V0A1,1,0,0,1,0-1ZM15.151,1H1V69.563H15.151Z"
                transform="translate(339.347 33.945)" fill="#5bb3b3" />
            <path d="M3.59,1H0A1,1,0,0,1-1,0,1,1,0,0,1,0-1H3.59a1,1,0,0,1,1,1A1,1,0,0,1,3.59,1Z"
                transform="translate(345.627 66.269)" fill="#5bb3b3" />
            <path d="M3.59,1H0A1,1,0,0,1-1,0,1,1,0,0,1,0-1H3.59a1,1,0,0,1,1,1A1,1,0,0,1,3.59,1Z"
                transform="translate(345.627 73.171)" fill="#5bb3b3" />
            <path
                d="M92.192,76.963H1a1,1,0,0,1-1-1V62.625a1,1,0,0,1,1-1H92.142a1,1,0,0,1,0,2H2V74.963H92.192a1,1,0,0,1,0,2Z"
                transform="translate(332.5 48.807)" fill="#5bb3b3" />
        </g>
        <g transform="translate(7)">
            <path
                d="M33.776,12.141C35.952,9.038,39.99,1.157,43.053.048c1.973-.714,1.4,6.673,1.422,8.082A118.076,118.076,0,0,1,43.384,24.4c-1.18,9.746-5.04,18.426-10.334,26.72-2.724,4.268-5.919,8.588-10.345,11.251-2.037,1.226-2.4,1.553-4.414,2.61-2.343,1.23-2.077,4.554-3.133,7C13.692,75.366.812,183.29,2.12,200.178c.116,1.5-1.971,1.855-2.075.027-.554-9.69,4.239-76.791,6.657-98.735s4.865-41.331,7.318-48.923C17,43.337,22.371,32.261,26.845,23.672A102.137,102.137,0,0,1,33.776,12.141Z"
                transform="matrix(0.978, -0.208, 0.208, 0.978, 351.394, 161.17)" fill="#bfe2e2" />
            <path
                d="M52,1.18c5.663-4.157,11.792,3.689,6.668,7.847a5.133,5.133,0,0,1-7.461-.435c-1.082,1.319-2.1,2.7-3.069,3.864-2.966,3.55-5.768,7.185-8.447,10.905-5.565,7.728-10.334,15.892-15.32,23.907-4.921,7.91-9.8,15.861-14.262,23.972C6.33,78.113,1.294,86.2,0,93.731,1.963,77.753,9.41,62.4,18.279,48.31c8.8-13.97,18.892-29.226,32.512-40.251A4.824,4.824,0,0,1,52,1.18Z"
                transform="matrix(0.978, -0.208, 0.208, 0.978, 374.023, 277.597)" fill="#bfe2e2" />
            <path
                d="M.991.016C4.16.636,9.337,7.8,11.95,10.535a102.3,102.3,0,0,1,8.575,10.33A174.71,174.71,0,0,1,35.7,45.612,230.024,230.024,0,0,1,52.579,89.545,181.23,181.23,0,0,1,57.7,118.362c.183,1.825,2.1,15.892-.661,16.271-2.479.341-1.713-10.681-1.833-12.181-1.352-16.916-5.4-33.374-11.035-49.318-1.227-3.473-2.367-7.727-4.329-10.853-1.413-2.251-.01-1.466-2.494-2.318-2.132-.732-4.562-.553-6.746-1.449-4.744-1.945-8.542-5.722-11.872-9.521C12.26,41.61,7.133,33.623,4.46,24.163A119.546,119.546,0,0,1,.859,8.235C.663,6.837-1.05-.383.991.016Z"
                transform="translate(330.463 234.623)" fill="#bfe2e2" />
            <path
                d="M7.282,7.1A287.161,287.161,0,0,1,35.36,73.574c3.837,13.954,6.521,28.274,9.187,42.49,4.128,22.012,8.033,44.021,9.144,66.424,1.118,22.532,3.327,48.521-4.051,70.223,3.685-22.034.177-45.487-.445-67.657-.3-10.584-1.157-21.064-2.286-31.586-1.1-10.207-2.884-20.365-4.551-30.492q-1.217-7.4-2.532-14.778c-.259-1.468-.369-5.826-1.3-6.829s-5.721-1.421-7.222-2.162a38.775,38.775,0,0,1-8.386-5.851A66.986,66.986,0,0,1,10.583,77.922C2.916,65.127-.149,49.512.006,34.693.035,31.816,4.662.834,2.8.407q.168-.2.318-.407Q5.232,3.533,7.282,7.1Z"
                transform="translate(336.677 108.268)" fill="#bfe2e2" />
            <path
                d="M85.365,2.013c.184-.266,1.383-2.113.779-2,1.229-.24-1.69,2.038,1.372.64-1.454,1.373-.615,3.157-.6,5.005a44.821,44.821,0,0,1-1.035,8.913,61.118,61.118,0,0,1-4.154,13.471A60.363,60.363,0,0,1,61.892,52.392c-4.188,2.9-8.293,3.893-13.07,5.229-3.017.845-3.256,2.405-4.858,5.333-3.334,6.1-6.609,12.174-9.55,18.478C30.9,88.96,27.5,96.5,24.28,104.156,13.448,129.958,4.632,156.689,0,184.354c-.113-16.3,3.658-33.093,8.415-48.632a290.252,290.252,0,0,1,12.788-33.038c1.166-2.617,2.933-5.984,3.428-8.873.347-2.025-.713-3.971-1.2-6.1a63.875,63.875,0,0,1-.1-25.959c1.832-9.207,7.13-13.48,16.091-14.784,3.278-.477,7.443-.3,10.449-1.7,3.274-1.522,4.625-6.524,6.487-9.735A132.4,132.4,0,0,1,74.133,11.364a57.63,57.63,0,0,1,6.076-5.59C81.568,4.688,84.439,3.351,85.365,2.013Z"
                transform="matrix(0.978, -0.208, 0.208, 0.978, 356.98, 194.924)" fill="#bfe2e2" />
            <path
                d="M-3705.652-6924.8s3.527-.544,3.523-.806c-.815-29.492-8.206-101.887-23.6-114.82-22.024-18.5-35.008-22.7-35.008-22.7s8.683,28.36,25.163,45.068,20.052,21.806,23.63,23.084C-3709.888-6988.459-3705.652-6924.8-3705.652-6924.8Z"
                transform="translate(4090.49 7261.229)" fill="#bfe2e2" />
        </g>
    </g>
</svg>