<svg xmlns="http://www.w3.org/2000/svg" xmlns:xlink="http://www.w3.org/1999/xlink" width="400" height="320" viewBox="0 0 400 320">
    <defs>
        <clipPath >
            <rect width="399.746" height="200" fill="none" stroke="#5bb3b3" stroke-width="2" />
        </clipPath>
        <clipPath >
            <rect width="73.021" height="54.638" transform="translate(0 0)" fill="none" />
        </clipPath>
        <clipPath >
            <rect width="400" height="320" />
        </clipPath>
    </defs>
    <g clip-path="url(#e)">
        <rect width="400" height="320" fill="transparent" />
        <g transform="translate(0.254 48.222)">
            <g clip-path="url(#a)">
                <path d="M397.746,1H0A1,1,0,0,1-1,0,1,1,0,0,1,0-1H397.746a1,1,0,0,1,1,1A1,1,0,0,1,397.746,1Z" transform="translate(1 199)" fill="#5bb3b3" />
                <path d="M397.746,1H0A1,1,0,0,1-1,0,1,1,0,0,1,0-1H397.746a1,1,0,0,1,1,1A1,1,0,0,1,397.746,1Z" transform="translate(1 133)" fill="#5bb3b3" />
                <path d="M397.746,1H0A1,1,0,0,1-1,0,1,1,0,0,1,0-1H397.746a1,1,0,0,1,1,1A1,1,0,0,1,397.746,1Z" transform="translate(1 67)" fill="#5bb3b3" />
                <path d="M397.746,1H0A1,1,0,0,1-1,0,1,1,0,0,1,0-1H397.746a1,1,0,0,1,1,1A1,1,0,0,1,397.746,1Z" transform="translate(1 1)" fill="#5bb3b3" />
                <path d="M0,198.234a1,1,0,0,1-1-1V0A1,1,0,0,1,0-1,1,1,0,0,1,1,0V197.234A1,1,0,0,1,0,198.234Z" transform="translate(59.428 1)" fill="#5bb3b3" />
                <path d="M0,198.234a1,1,0,0,1-1-1V0A1,1,0,0,1,0-1,1,1,0,0,1,1,0V197.234A1,1,0,0,1,0,198.234Z" transform="translate(151.342 1)" fill="#5bb3b3" />
                <path d="M0,198.234a1,1,0,0,1-1-1V0A1,1,0,0,1,0-1,1,1,0,0,1,1,0V197.234A1,1,0,0,1,0,198.234Z" transform="translate(243.257 1)" fill="#5bb3b3" />
                <path d="M0,198.234a1,1,0,0,1-1-1V0A1,1,0,0,1,0-1,1,1,0,0,1,1,0V197.234A1,1,0,0,1,0,198.234Z" transform="translate(335.172 1)" fill="#5bb3b3" />
                <path d="M2-1H19.064a3,3,0,0,1,3,3V8.34a3,3,0,0,1-3,3H2a3,3,0,0,1-3-3V2A3,3,0,0,1,2-1ZM19.064,9.34a1,1,0,0,0,1-1V2a1,1,0,0,0-1-1H2A1,1,0,0,0,1,2V8.34a1,1,0,0,0,1,1Z" transform="translate(94.278 41.738)" fill="#5bb3b3" />
                <path d="M2-1H19.064a3,3,0,0,1,3,3V8.34a3,3,0,0,1-3,3H2a3,3,0,0,1-3-3V2A3,3,0,0,1,2-1ZM19.064,9.34a1,1,0,0,0,1-1V2a1,1,0,0,0-1-1H2A1,1,0,0,0,1,2V8.34a1,1,0,0,0,1,1Z" transform="translate(94.278 108.009)" fill="#5bb3b3" />
                <path d="M2-1H19.064a3,3,0,0,1,3,3V8.34a3,3,0,0,1-3,3H2a3,3,0,0,1-3-3V2A3,3,0,0,1,2-1ZM19.064,9.34a1,1,0,0,0,1-1V2a1,1,0,0,0-1-1H2A1,1,0,0,0,1,2V8.34a1,1,0,0,0,1,1Z" transform="translate(94.278 173)" fill="#5bb3b3" />
                <path d="M2-1H19.064a3,3,0,0,1,3,3V8.34a3,3,0,0,1-3,3H2a3,3,0,0,1-3-3V2A3,3,0,0,1,2-1ZM19.064,9.34a1,1,0,0,0,1-1V2a1,1,0,0,0-1-1H2A1,1,0,0,0,1,2V8.34a1,1,0,0,0,1,1Z" transform="translate(186.193 108.009)" fill="#5bb3b3" />
                <path d="M2-1H19.064a3,3,0,0,1,3,3V8.34a3,3,0,0,1-3,3H2a3,3,0,0,1-3-3V2A3,3,0,0,1,2-1ZM19.064,9.34a1,1,0,0,0,1-1V2a1,1,0,0,0-1-1H2A1,1,0,0,0,1,2V8.34a1,1,0,0,0,1,1Z" transform="translate(186.193 173)" fill="#5bb3b3" />
                <path d="M2-1H19.064a3,3,0,0,1,3,3V8.34a3,3,0,0,1-3,3H2a3,3,0,0,1-3-3V2A3,3,0,0,1,2-1ZM19.064,9.34a1,1,0,0,0,1-1V2a1,1,0,0,0-1-1H2A1,1,0,0,0,1,2V8.34a1,1,0,0,0,1,1Z" transform="translate(186.576 41.738)" fill="#5bb3b3" />
                <path d="M2-1H19.064a3,3,0,0,1,3,3V8.34a3,3,0,0,1-3,3H2a3,3,0,0,1-3-3V2A3,3,0,0,1,2-1ZM19.064,9.34a1,1,0,0,0,1-1V2a1,1,0,0,0-1-1H2A1,1,0,0,0,1,2V8.34a1,1,0,0,0,1,1Z" transform="translate(278.874 108.009)" fill="#5bb3b3" />
                <path d="M2-1H19.064a3,3,0,0,1,3,3V8.34a3,3,0,0,1-3,3H2a3,3,0,0,1-3-3V2A3,3,0,0,1,2-1ZM19.064,9.34a1,1,0,0,0,1-1V2a1,1,0,0,0-1-1H2A1,1,0,0,0,1,2V8.34a1,1,0,0,0,1,1Z" transform="translate(278.874 173)" fill="#5bb3b3" />
                <path d="M2-1H19.064a3,3,0,0,1,3,3V8.34a3,3,0,0,1-3,3H2a3,3,0,0,1-3-3V2A3,3,0,0,1,2-1ZM19.064,9.34a1,1,0,0,0,1-1V2a1,1,0,0,0-1-1H2A1,1,0,0,0,1,2V8.34a1,1,0,0,0,1,1Z" transform="translate(279.257 41.738)" fill="#5bb3b3" />
                <path d="M2-1H19.064a3,3,0,0,1,3,3V8.34a3,3,0,0,1-3,3H2a3,3,0,0,1-3-3V2A3,3,0,0,1,2-1ZM19.064,9.34a1,1,0,0,0,1-1V2a1,1,0,0,0-1-1H2A1,1,0,0,0,1,2V8.34a1,1,0,0,0,1,1Z" transform="translate(368.874 108.009)" fill="#5bb3b3" />
                <path d="M2-1H19.064a3,3,0,0,1,3,3V8.34a3,3,0,0,1-3,3H2a3,3,0,0,1-3-3V2A3,3,0,0,1,2-1ZM19.064,9.34a1,1,0,0,0,1-1V2a1,1,0,0,0-1-1H2A1,1,0,0,0,1,2V8.34a1,1,0,0,0,1,1Z" transform="translate(368.874 173)" fill="#5bb3b3" />
                <path d="M2-1H19.064a3,3,0,0,1,3,3V8.34a3,3,0,0,1-3,3H2a3,3,0,0,1-3-3V2A3,3,0,0,1,2-1ZM19.064,9.34a1,1,0,0,0,1-1V2a1,1,0,0,0-1-1H2A1,1,0,0,0,1,2V8.34a1,1,0,0,0,1,1Z" transform="translate(369.257 41.738)" fill="#5bb3b3" />
                <path d="M2-1H19.064a3,3,0,0,1,3,3V8.34a3,3,0,0,1-3,3H2a3,3,0,0,1-3-3V2A3,3,0,0,1,2-1ZM19.064,9.34a1,1,0,0,0,1-1V2a1,1,0,0,0-1-1H2A1,1,0,0,0,1,2V8.34a1,1,0,0,0,1,1Z" transform="translate(6.577 108.009)" fill="#5bb3b3" />
                <path d="M2-1H19.064a3,3,0,0,1,3,3V8.34a3,3,0,0,1-3,3H2a3,3,0,0,1-3-3V2A3,3,0,0,1,2-1ZM19.064,9.34a1,1,0,0,0,1-1V2a1,1,0,0,0-1-1H2A1,1,0,0,0,1,2V8.34a1,1,0,0,0,1,1Z" transform="translate(6.577 173)" fill="#5bb3b3" />
                <path d="M2-1H19.064a3,3,0,0,1,3,3V8.34a3,3,0,0,1-3,3H2a3,3,0,0,1-3-3V2A3,3,0,0,1,2-1ZM19.064,9.34a1,1,0,0,0,1-1V2a1,1,0,0,0-1-1H2A1,1,0,0,0,1,2V8.34a1,1,0,0,0,1,1Z" transform="translate(6.96 41.738)" fill="#5bb3b3" />
            </g>
        </g>
        <path d="M-1256.7-1552.43v14.007h20.484l3.655-14.007Z" transform="translate(1392 1809)" fill="#313e58" />
        <path d="M-1232.562-1552.43v14.007h-20.484l-3.655-14.007Z" transform="translate(1497 1809)" fill="#313e58" />
        <rect width="150" height="169" rx="10" transform="translate(124 90)" fill="#7a8293" />
        <path d="M10,4a6.007,6.007,0,0,0-6,6V159a6.007,6.007,0,0,0,6,6H140a6.007,6.007,0,0,0,6-6V10a6.007,6.007,0,0,0-6-6H10m0-4H140a10,10,0,0,1,10,10V159a10,10,0,0,1-10,10H10A10,10,0,0,1,0,159V10A10,10,0,0,1,10,0Z" transform="translate(124 90)" fill="#313e58" />
        <rect width="127" height="147" rx="10" transform="translate(135 101)" fill="#e4e6ea" />
        <path d="M10,4a6.007,6.007,0,0,0-6,6V137a6.007,6.007,0,0,0,6,6H117a6.007,6.007,0,0,0,6-6V10a6.007,6.007,0,0,0-6-6H10m0-4H117a10,10,0,0,1,10,10V137a10,10,0,0,1-10,10H10A10,10,0,0,1,0,137V10A10,10,0,0,1,10,0Z" transform="translate(135 101)" fill="#313e58" />
        <ellipse cx="20" cy="20.5" rx="20" ry="20.5" transform="translate(179 118)" fill="#acb1bc" />
        <path d="M136.591,120.382a29.767,29.767,0,1,1,29.767-29.767,29.8,29.8,0,0,1-29.767,29.767" transform="translate(62.381 109.532)" fill="#7a8293" />
        <path d="M102.228,59.327H76.339a1.4,1.4,0,0,1-1.347-1.452V36.423a1.4,1.4,0,0,1,1.347-1.451h25.889a1.4,1.4,0,0,1,1.348,1.451V57.874a1.4,1.4,0,0,1-1.348,1.452" transform="translate(43.792 94.422)" fill="#acb1bc" />
        <path d="M102.228,60.827H76.339a2.9,2.9,0,0,1-2.847-2.952V36.423a2.9,2.9,0,0,1,2.847-2.951h25.889a2.9,2.9,0,0,1,2.848,2.951V57.874A2.905,2.905,0,0,1,102.228,60.827Zm-25.736-3h25.584V36.472H76.492Z" transform="translate(43.792 94.422)" fill="#313e58" />
        <path d="M102.228,100.224H76.339a1.4,1.4,0,0,1-1.347-1.451V77.323a1.4,1.4,0,0,1,1.347-1.452h25.889a1.4,1.4,0,0,1,1.348,1.452v21.45a1.4,1.4,0,0,1-1.348,1.451" transform="translate(43.792 118.306)" fill="#acb1bc" />
        <path d="M102.228,101.724H76.339a2.9,2.9,0,0,1-2.847-2.951V77.324a2.9,2.9,0,0,1,2.847-2.952h25.889a2.905,2.905,0,0,1,2.848,2.952v21.45A2.9,2.9,0,0,1,102.228,101.724Zm-25.736-3h25.584V77.371H76.492Z" transform="translate(43.792 118.306)" fill="#313e58" />
        <path d="M133.625,109.371a21.723,21.723,0,1,1,21.722-21.722,21.748,21.748,0,0,1-21.722,21.722" transform="translate(65.347 112.498)" fill="#acb1bc" />
        <path d="M128.7,91.1a8.37,8.37,0,1,1,8.37-8.37,8.378,8.378,0,0,1-8.37,8.37" transform="translate(70.27 117.421)" fill="#313e58" />
        <path d="M124.779,80.527a1.491,1.491,0,0,1-.873-.28c-.418-.3-2.159-2.18-5.17-5.576a1.451,1.451,0,1,1,2.172-1.926c2.029,2.287,4.357,4.852,4.744,5.183a1.442,1.442,0,0,1-.873,2.6" transform="translate(69.123 116.195)" fill="#313e58" />
        <path d="M134.325,90.075a1.483,1.483,0,0,1-.874-.282c-.418-.3-2.157-2.178-5.167-5.574a1.451,1.451,0,1,1,2.172-1.926c2.027,2.289,4.357,4.853,4.742,5.183a1.429,1.429,0,0,1,.3,2.012,1.447,1.447,0,0,1-1.175.588" transform="translate(74.699 121.77)" fill="#313e58" />
        <path d="M119.686,89.787a1.451,1.451,0,0,1-.963-2.538c2.287-2.029,4.853-4.357,5.184-4.742a1.427,1.427,0,0,1,2.01-.3,1.477,1.477,0,0,1,.307,2.05c-.3.418-2.181,2.157-5.577,5.167a1.444,1.444,0,0,1-.961.366" transform="translate(69.044 121.839)" fill="#313e58" />
        <path d="M129.234,80.239a1.451,1.451,0,0,1-.963-2.538c2.287-2.029,4.852-4.357,5.183-4.742a1.429,1.429,0,0,1,2.012-.3,1.478,1.478,0,0,1,.306,2.05c-.3.418-2.18,2.157-5.576,5.167a1.441,1.441,0,0,1-.961.366" transform="translate(74.62 116.263)" fill="#313e58" />
        <path d="M138.928,64.24" transform="translate(64.966 91.918)" fill="#313e58" />
        <path d="M128.161,50.238a6.922,6.922,0,1,1,6.922-6.922,6.93,6.93,0,0,1-6.922,6.922" transform="translate(70.799 95.253)" fill="#313e58" />
        <path d="M133.024,68.293A20.114,20.114,0,1,1,153.137,48.18a20.135,20.135,0,0,1-20.113,20.113m0-37.324A17.211,17.211,0,1,0,150.235,48.18a17.231,17.231,0,0,0-17.211-17.211" transform="translate(65.936 90.389)" fill="#313e58" />
        <path d="M120.893,42.75h-6.328a1.452,1.452,0,0,1,0-2.9h6.328a1.452,1.452,0,0,1,0,2.9" transform="translate(66.054 97.269)" fill="#313e58" />
        <path d="M140.056,42.75h-6.328a1.452,1.452,0,0,1,0-2.9h6.328a1.452,1.452,0,0,1,0,2.9" transform="translate(77.245 97.269)" fill="#313e58" />
        <path d="M126.144,56.662a1.451,1.451,0,0,1-1.451-1.451V48.883a1.451,1.451,0,1,1,2.9,0v6.328a1.451,1.451,0,0,1-1.451,1.451" transform="translate(72.816 101.698)" fill="#313e58" />
        <path d="M126.144,37.5a1.451,1.451,0,0,1-1.451-1.451V29.72a1.451,1.451,0,1,1,2.9,0v6.328a1.451,1.451,0,0,1-1.451,1.451" transform="translate(72.816 90.507)" fill="#313e58" />
        <path d="M116.284,48.879a1.451,1.451,0,0,1-.727-2.709l2.23-1.286a1.451,1.451,0,1,1,1.451,2.512l-2.229,1.289a1.437,1.437,0,0,1-.725.193" transform="translate(67.057 100.096)" fill="#313e58" />
        <path d="M134.463,38.384a1.452,1.452,0,0,1-.727-2.709l2.23-1.286a1.451,1.451,0,0,1,1.451,2.514l-2.229,1.286a1.439,1.439,0,0,1-.725.195" transform="translate(77.673 93.968)" fill="#313e58" />
        <path d="M132.206,53.365a1.449,1.449,0,0,1-1.258-.725l-1.288-2.229a1.452,1.452,0,0,1,2.514-1.452l1.288,2.23a1.451,1.451,0,0,1-1.256,2.176" transform="translate(75.603 102.166)" fill="#313e58" />
        <path d="M121.711,35.187a1.449,1.449,0,0,1-1.258-.725l-1.288-2.229a1.452,1.452,0,0,1,2.514-1.452l1.288,2.23a1.451,1.451,0,0,1-1.256,2.176" transform="translate(69.475 91.551)" fill="#313e58" />
        <path d="M120.422,53.365a1.451,1.451,0,0,1-1.256-2.176l1.288-2.23a1.452,1.452,0,0,1,2.514,1.452L121.68,52.64a1.449,1.449,0,0,1-1.258.725" transform="translate(69.474 102.166)" fill="#313e58" />
        <path d="M130.917,35.187a1.451,1.451,0,0,1-1.256-2.176l1.288-2.23a1.452,1.452,0,0,1,2.514,1.452l-1.288,2.229a1.449,1.449,0,0,1-1.258.725" transform="translate(75.603 91.551)" fill="#313e58" />
        <path d="M136.69,48.879a1.436,1.436,0,0,1-.725-.193L133.736,47.4a1.451,1.451,0,1,1,1.451-2.512l2.23,1.286a1.451,1.451,0,0,1-.727,2.709" transform="translate(77.673 100.096)" fill="#313e58" />
        <path d="M118.512,38.384a1.439,1.439,0,0,1-.725-.195L115.558,36.9a1.451,1.451,0,1,1,1.451-2.514l2.23,1.286a1.452,1.452,0,0,1-.727,2.709" transform="translate(67.057 93.968)" fill="#313e58" />
        <g transform="translate(277.934 22.486)">
            <g transform="translate(20.967 2.661) rotate(3)">
                <path d="M.167,67.879S55.475,14.107,57.665,0C37.947,10.139,3.664,44.257.543,60.132c-.938,5.511-.377,7.747-.377,7.747" transform="translate(85.139 21.329)" fill="#c0e2e2" />
                <path d="M12.748,0s.25,77.139-8.3,88.57C-2.1,67.387-1.689,19.021,7.474,5.688,10.758,1.163,12.748,0,12.748,0" transform="translate(82.285 0)" fill="#c0e2e2" />
                <path d="M31.252,81.6S16.8,7.721.391,0C-3.3,4.194,20.166,76.2,29.055,82.5" transform="translate(56.236 6.531)" fill="#c0e2e2" />
                <path d="M42.546,13.281S13.982,1.3,0,.5C50.336-3.9,85.89,22.269,85.89,22.269S74.9,27.662,42.546,13.281" transform="translate(0 66.157)" fill="#c0e2e2" />
                <path d="M61.522,74.7S27.18,11.861,0,0C8.007,8.323,46.773,73.248,61.522,74.7" transform="translate(24.768 12.923)" fill="#c0e2e2" />
                <path d="M15.18,154.707a2.5,2.5,0,0,1-2.374-1.718c-2.784-8.446-5.319-21.767-7.534-39.593C3.51,99.218,1.939,82.142.6,62.642-1.672,29.467-2.491.359-2.5.069A2.5,2.5,0,0,1-.069-2.5,2.5,2.5,0,0,1,2.5-.069c.008.289.825,29.31,3.092,62.386C6.922,81.722,8.484,98.7,10.235,112.788c2.175,17.5,4.638,30.5,7.32,38.636a2.5,2.5,0,0,1-2.375,3.283Z" transform="translate(85.365 83.692)" fill="#c0e1e2" />
            </g>
            <g transform="translate(10.797 56.194)">
                <path d="M195.1,129.75s-78.845,14.8-92.149,8.21c20.432-10.687,69.973-19.39,85.338-12.532,5.246,2.506,6.812,4.322,6.812,4.322" transform="translate(-102.952 -32.587)" fill="#c0e2e2" />
                <path d="M104.291,86.207s65.422,46.427,80.263,46.007c-14.086-18.254-55.445-46.884-72.268-47.082-5.813.08-7.994,1.075-7.994,1.075" transform="translate(-93.801 -34.219)" fill="#c0e2e2" />
                <path d="M154.107,133.735S99.968,77.191,103.235,58.617c5.779-.629,52.929,62.463,52.952,73.789" transform="translate(-64.185 -35.363)" fill="#c0e2e2" />
                <path d="M131.112,133.378S98.266,66.535,104.467,36.324c2.278,11.794,34.242,83.645,26.644,97.054" transform="translate(-40.895 -36.324)" fill="#c0e2e2" />
                <path d="M90.667,90.827S97.592,59.366,105.29,47C71.4,87.157,72.34,133.057,72.34,133.057s11.167-6.107,18.328-42.231" transform="translate(17.028 -34.616)" fill="#c0e2e2" />
                <path d="M111.183,231.392a2.5,2.5,0,0,1-2.48-2.206,460.021,460.021,0,0,0-9.1-52.6A253.694,253.694,0,0,0,89.456,143.4a127.347,127.347,0,0,0-8.124-17.3,40.951,40.951,0,0,0-3.324-5.063l.005.006,3.818-3.228c.226.267,5.6,6.729,12.279,23.755a258.666,258.666,0,0,1,10.359,33.847,465.006,465.006,0,0,1,9.2,53.179,2.5,2.5,0,0,1-2.486,2.794Z" transform="translate(5.628 -31.143)" fill="#c0e1e2" />
            </g>
            <g transform="translate(79.123 104.721)">
                <path d="M0,131.409s66.393,8.443,77.149,2.3c-17.542-7.894-59.231-12.7-71.689-6.234C1.214,129.82,0,131.409,0,131.409" transform="translate(30.834 -49.081)" fill="#c0e2e2" />
                <path d="M75.474,91.22S23.275,133.109,10.9,133.49c10.832-15.9,43.865-41.777,57.867-42.771,4.846-.219,6.711.5,6.711.5" transform="translate(21.142 -50.538)" fill="#c0e2e2" />
                <path d="M36.647,134.672s42.3-49.759,38.668-65.067c-4.844-.239-41.005,54.629-40.467,64.062" transform="translate(-3.899 -51.446)" fill="#c0e2e2" />
                <path d="M87.485,99.725S80.168,73.864,73.148,63.946c30.2,31.773,31.681,70.048,31.681,70.048s-9.6-4.537-17.344-34.269" transform="translate(-73.148 -51.69)" fill="#c0e2e2" />
                <path d="M55.931,134.338S79.994,77.051,73.342,52.2c-1.317,9.934-24.4,71.347-17.411,82.141" transform="translate(-23.493 -52.197)" fill="#c0e2e2" />
            </g>
            <rect width="199.54" height="261.298" transform="translate(2.525)" fill="none" />
            <path d="M-3129.136-1540.184a140.711,140.711,0,0,1-6.1-30.944,103,103,0,0,1,.684-22.767c1.816-12.286,5.432-18.8,5.585-19.068l1.744.984,1.742.978a33.406,33.406,0,0,0-1.936,4.555,70.133,70.133,0,0,0-3.214,13.384,99.327,99.327,0,0,0-.6,21.814,136.859,136.859,0,0,0,5.918,29.878Z" transform="translate(3245.259 1783.869)" fill="#bfe2e2" />
        </g>
        <g transform="translate(-86.069 0)">
            <g transform="translate(19.393 2.799) rotate(3)">
                <path d="M.175,71.382S58.338,14.835,60.642,0C39.906,10.662,3.853,46.542.571,63.235c-.986,5.8-.4,8.147-.4,8.147" transform="translate(89.533 22.429)" fill="#c0e2e2" />
                <path d="M13.406,0s.263,81.12-8.73,93.141C-2.2,70.864-1.777,20,7.86,5.982,11.313,1.223,13.406,0,13.406,0" transform="translate(86.532 0)" fill="#c0e2e2" />
                <path d="M32.865,85.807S17.667,8.12.412,0C-3.475,4.411,21.207,80.136,30.555,86.753" transform="translate(59.139 6.868)" fill="#c0e2e2" />
                <path d="M44.742,13.966S14.7,1.363,0,.523c52.934-4.621,90.323,22.9,90.323,22.9S78.77,29.09,44.742,13.966" transform="translate(0 69.571)" fill="#c0e2e2" />
                <path d="M64.7,78.56S28.582,12.473,0,0C8.42,8.753,49.188,77.028,64.7,78.56" transform="translate(26.046 13.59)" fill="#c0e2e2" />
                <path d="M15.964,162.563a2.5,2.5,0,0,1-2.374-1.718C10.664,151.971,8,137.971,5.672,119.233,3.819,104.325,2.167,86.37.762,65.866-1.63,30.982-2.491.374-2.5.069A2.5,2.5,0,0,1-.069-2.5,2.5,2.5,0,0,1,2.5-.069c.008.3.867,30.825,3.252,65.61,1.4,20.41,3.042,38.269,4.883,53.083,2.288,18.412,4.88,32.091,7.7,40.655a2.5,2.5,0,0,1-2.375,3.283Z" transform="translate(89.771 88.011)" fill="#c0e1e2" />
            </g>
            <g transform="translate(8.699 59.094)">
                <path d="M199.857,130.1s-82.915,15.564-96.905,8.634c21.486-11.238,73.585-20.39,89.742-13.179,5.517,2.635,7.163,4.545,7.163,4.545" transform="translate(-102.952 -27.921)" fill="#c0e2e2" />
                <path d="M104.291,86.263s68.8,48.823,84.405,48.381c-14.813-19.2-58.307-49.3-76-49.512-6.113.084-8.407,1.131-8.407,1.131" transform="translate(-93.26 -31.592)" fill="#c0e2e2" />
                <path d="M156.74,137.613s-56.933-59.463-53.5-79c6.077-.661,55.661,65.687,55.685,77.6" transform="translate(-62.177 -34.163)" fill="#c0e2e2" />
                <path d="M132.527,138.387S97.986,68.094,104.508,36.324c2.4,12.4,36.01,87.962,28.02,102.063" transform="translate(-37.655 -36.324)" fill="#c0e2e2" />
                <path d="M91.613,93.089S98.9,60,106.99,47C71.349,89.229,72.34,137.5,72.34,137.5s11.743-6.423,19.274-44.41" transform="translate(21.64 -33.977)" fill="#c0e2e2" />
                <path d="M112.8,237.041a2.5,2.5,0,0,1-2.48-2.206,483.9,483.9,0,0,0-9.569-55.331,266.918,266.918,0,0,0-10.681-34.916,134,134,0,0,0-8.558-18.217,43.089,43.089,0,0,0-3.5-5.332l0,.006,3.818-3.228c.237.28,5.875,7.059,12.891,24.945a271.887,271.887,0,0,1,10.888,35.577,488.881,488.881,0,0,1,9.672,55.908,2.5,2.5,0,0,1-2.188,2.777A2.531,2.531,0,0,1,112.8,237.041Z" transform="translate(10.044 -26.586)" fill="#c0e1e2" />
            </g>
            <g transform="translate(80.552 110.126)">
                <path d="M0,131.768s69.82,8.879,81.131,2.418c-18.448-8.3-62.288-13.358-75.389-6.555C1.277,130.1,0,131.768,0,131.768" transform="translate(32.425 -45.191)" fill="#c0e2e2" />
                <path d="M78.807,91.248S23.914,135.3,10.9,135.7C22.287,118.983,57.025,91.766,71.75,90.721c5.1-.23,7.058.528,7.058.528" transform="translate(22.796 -48.466)" fill="#c0e2e2" />
                <path d="M36.74,138.03S81.227,85.7,77.4,69.605c-5.094-.251-43.121,57.449-42.555,67.368" transform="translate(-2.302 -50.509)" fill="#c0e2e2" />
                <path d="M88.225,101.572s-7.694-27.2-15.077-37.626c31.763,33.413,33.316,73.663,33.316,73.663s-10.1-4.771-18.239-36.037" transform="translate(-73.148 -51.058)" fill="#c0e2e2" />
                <path d="M56,138.578S81.3,78.334,74.308,52.2C72.923,62.643,48.65,127.227,56,138.578" transform="translate(-21.887 -52.197)" fill="#c0e2e2" />
            </g>
            <rect width="209.839" height="274.784" transform="translate(0)" fill="none" />
            <path d="M-3128.809-1536.509a201.9,201.9,0,0,1-7.336-32.4,145.5,145.5,0,0,1-1.377-23.8c.379-12.833,2.633-19.626,2.729-19.909l3.789,1.283-1.894-.641,1.9.638a39.852,39.852,0,0,0-1.135,4.819,92.869,92.869,0,0,0-1.392,14.166,141.916,141.916,0,0,0,1.373,23.083,198.029,198.029,0,0,0,7.169,31.58Z" transform="translate(3251.368 1798.74)" fill="#bfe2e2" />
        </g>
        <g transform="translate(0 256.465)">
            <g clip-path="url(#b)">
                <path d="M0,34.638a20.059,20.059,0,0,0,20,20H53.021a20.059,20.059,0,0,0,20-20V0H0Z" fill="#c0e2e2" />
            </g>
        </g>
        <g transform="translate(352 256.465)">
            <g clip-path="url(#b)">
                <path d="M0,34.638a20.059,20.059,0,0,0,20,20H53.021a20.059,20.059,0,0,0,20-20V0H0Z" fill="#c0e2e2" />
            </g>
        </g>
    </g>
</svg>