<svg xmlns="http://www.w3.org/2000/svg" xmlns:xlink="http://www.w3.org/1999/xlink" width="400" height="320" viewBox="0 0 400 320">
    <defs>
        <clipPath>
            <rect width="400" height="320" />
        </clipPath>
    </defs>
    <g clip-path="url(#b)">
        <path d="M354.989,110.8a1,1,0,0,1-1-1V30.286H328.937V109.8a1,1,0,0,1-2,0V29.286a1,1,0,0,1,1-1h27.052a1,1,0,0,1,1,1V109.8A1,1,0,0,1,354.989,110.8Z" transform="translate(-39.082 13.44)" fill="#5bb3b3" />
        <path d="M315.566,111.474a1,1,0,0,1-1-1v-35.9H288.838v18.9a1,1,0,0,1-2,0v-19.9a1,1,0,0,1,1-1h27.728a1,1,0,0,1,1,1v36.9A1,1,0,0,1,315.566,111.474Z" transform="translate(-32.422 25.369)" fill="#5bb3b3" />
        <path d="M429.789,139.912a1,1,0,0,1-1-1V43.622H398.327v95.29a1,1,0,1,1-2,0V42.622a1,1,0,0,1,1-1h32.462a1,1,0,0,1,1,1v96.29A1,1,0,0,1,429.789,139.912Z" transform="translate(-39.082 13.44)" fill="#5bb3b3" />
        <path d="M348.226,25.482a1,1,0,0,1-1-1V18.773H335.7v5.709a1,1,0,0,1-2,0V17.773a1,1,0,0,1,1-1h13.526a1,1,0,0,1,1,1v6.709A1,1,0,0,1,348.226,25.482Z" transform="translate(-39.082 13.44)" fill="#5bb3b3" />
        <path d="M0,17.773a1,1,0,0,1-1-1V0A1,1,0,0,1,0-1,1,1,0,0,1,1,0V16.773A1,1,0,0,1,0,17.773Z" transform="translate(302.381 14.44)" fill="#5bb3b3" />
        <path d="M422.125,38.818a1,1,0,0,1-1-1V32.109H405.992v5.709a1,1,0,0,1-2,0V31.109a1,1,0,0,1,1-1h17.133a1,1,0,0,1,1,1v6.709A1,1,0,0,1,422.125,38.818Z" transform="translate(-39.082 13.44)" fill="#5bb3b3" />
        <path d="M0,17.773a1,1,0,0,1-1-1V0A1,1,0,0,1,0-1,1,1,0,0,1,1,0V16.773A1,1,0,0,1,0,17.773Z" transform="translate(374.477 24.421)" fill="#5bb3b3" />
        <path d="M388.537,139.912a1,1,0,0,1-1-1V72.447H355.568a1,1,0,0,1,0-2h32.969a1,1,0,0,1,1,1v67.465A1,1,0,0,1,388.537,139.912Z" transform="translate(-39.082 13.44)" fill="#5bb3b3" />
        <path d="M372.279,65.737a1,1,0,0,1-1-1V54.673a1,1,0,0,1,1-1h19.058a1,1,0,0,1,0,2H373.279v9.064A1,1,0,0,1,372.279,65.737Z" transform="translate(-39.082 13.44)" fill="#5bb3b3" />
        <path d="M13.526,1H0A1,1,0,0,1-1,0,1,1,0,0,1,0-1H13.526a1,1,0,0,1,1,1A1,1,0,0,1,13.526,1Z" transform="translate(295.618 58.05)" fill="#5bb3b3" />
        <path d="M13.526,1H0A1,1,0,0,1-1,0,1,1,0,0,1,0-1H13.526a1,1,0,0,1,1,1A1,1,0,0,1,13.526,1Z" transform="translate(295.618 75.941)" fill="#5bb3b3" />
        <path d="M13.526,1H0A1,1,0,0,1-1,0,1,1,0,0,1,0-1H13.526a1,1,0,0,1,1,1A1,1,0,0,1,13.526,1Z" transform="translate(295.618 93.833)" fill="#5bb3b3" />
        <path d="M13.526,1H0A1,1,0,0,1-1,0,1,1,0,0,1,0-1H13.526a1,1,0,0,1,1,1A1,1,0,0,1,13.526,1Z" transform="translate(295.618 111.724)" fill="#5bb3b3" />
        <path d="M18.163,1H0A1,1,0,0,1-1,0,1,1,0,0,1,0-1H18.163a1,1,0,0,1,1,1A1,1,0,0,1,18.163,1Z" transform="translate(365.395 69.48)" fill="#5bb3b3" />
        <path d="M18.163,1H0A1,1,0,0,1-1,0,1,1,0,0,1,0-1H18.163a1,1,0,0,1,1,1A1,1,0,0,1,18.163,1Z" transform="translate(365.395 87.372)" fill="#5bb3b3" />
        <path d="M18.163,1H0A1,1,0,0,1-1,0,1,1,0,0,1,0-1H18.163a1,1,0,0,1,1,1A1,1,0,0,1,18.163,1Z" transform="translate(365.395 105.263)" fill="#5bb3b3" />
        <path d="M18.163,1H0A1,1,0,0,1-1,0,1,1,0,0,1,0-1H18.163a1,1,0,0,1,1,1A1,1,0,0,1,18.163,1Z" transform="translate(365.395 123.155)" fill="#5bb3b3" />
        <path d="M18.163,1H0A1,1,0,0,1-1,0,1,1,0,0,1,0-1H18.163a1,1,0,0,1,1,1A1,1,0,0,1,18.163,1Z" transform="translate(365.395 143.282)" fill="#5bb3b3" />
        <path d="M200.066,241.65a6.113,6.113,0,0,1-2.694-1.124c-1.2-.715-2.845-1.821-4.895-3.286-3.434-2.455-8.054-5.958-13.734-10.41-5.127-4.019-10.081-8-13.335-10.635-1.965-1.59-3.455-2.806-4.36-3.546a18.442,18.442,0,0,1-1.815-1.525,83.42,83.42,0,0,1-7.3-10.319,50.835,50.835,0,0,1-4.758-12.172,17.433,17.433,0,0,0-4.7-7.55,71.124,71.124,0,0,0-7.755-6.482c-3.671-2.788-7.466-5.672-9.914-9.033a54.44,54.44,0,0,1-5.6-10.345c-2.618-5.881-4.686-10.526-11.078-12.324l-.3-.086a44.769,44.769,0,0,1-9.069-3.269,14.554,14.554,0,0,1-6.924-7.19,1,1,0,0,1,1.839-.786,12.634,12.634,0,0,0,6.027,6.212,43.281,43.281,0,0,0,8.668,3.108l.305.086a14.614,14.614,0,0,1,7.955,5.284,38.691,38.691,0,0,1,4.41,8.152,52.067,52.067,0,0,0,5.388,9.982c2.274,3.124,5.788,5.793,9.507,8.618,5.627,4.274,11.445,8.694,13.176,15.1,2.709,10.026,5.7,14.137,11.641,21.7.887.744,9.61,7.89,18.651,14.99,5.427,4.262,9.916,7.682,13.344,10.165,2.015,1.46,3.673,2.6,4.928,3.4a11.52,11.52,0,0,0,2.35,1.274,1,1,0,0,1,.685,1.851A1.244,1.244,0,0,1,200.066,241.65Z" transform="translate(-9.282 57.246)" fill="#5bb3b3" />
        <path d="M367.985,163.141a1,1,0,0,1-1-1V116.057H297.444a1,1,0,0,1,0-2h70.541a1,1,0,0,1,1,1v47.084A1,1,0,0,1,367.985,163.141Z" transform="translate(-27.775 33.44)" fill="#5bb3b3" />
        <path d="M152.747,1H0A1,1,0,0,1-1,0,1,1,0,0,1,0-1H152.747a1,1,0,0,1,1,1A1,1,0,0,1,152.747,1Z" transform="translate(245.742 222.483)" fill="#5bb3b3" />
        <path d="M276.911,204.395H265.865a1,1,0,0,1-1-1V181.237a1,1,0,0,1,2,0v21.158h9.046V169.709a1,1,0,1,1,2,0v33.686A1,1,0,0,1,276.911,204.395Z" transform="translate(-37.45 61)" fill="#5bb3b3" />
        <path d="M0-1H11.046a1,1,0,0,1,1,1V41.912a1,1,0,0,1-1,1H0a1,1,0,0,1-1-1V0A1,1,0,0,1,0-1ZM10.046,1H1V40.912h9.046Z" transform="translate(287.61 222.483)" fill="#5bb3b3" />
        <path d="M0-1H11.046a1,1,0,0,1,1,1V41.912a1,1,0,0,1-1,1H0a1,1,0,0,1-1-1V0A1,1,0,0,1,0-1ZM10.046,1H1V40.912h9.046Z" transform="translate(346.523 222.483)" fill="#5bb3b3" />
        <path d="M324.778,198.68a1,1,0,0,1-1-1A17.621,17.621,0,0,0,322,189.958a19.977,19.977,0,0,0-4.887-6.344,23.3,23.3,0,0,0-7.3-4.306,26.175,26.175,0,0,0-17.938,0,23.3,23.3,0,0,0-7.3,4.306,19.976,19.976,0,0,0-4.887,6.344,17.62,17.62,0,0,0-1.781,7.722,1,1,0,0,1-2,0,19.6,19.6,0,0,1,1.98-8.592,21.964,21.964,0,0,1,5.371-6.979,25.286,25.286,0,0,1,7.919-4.676,28.175,28.175,0,0,1,19.327,0,25.286,25.286,0,0,1,7.919,4.676,21.964,21.964,0,0,1,5.371,6.979,19.6,19.6,0,0,1,1.98,8.592A1,1,0,0,1,324.778,198.68Z" transform="translate(-37.45 61)" fill="#5bb3b3" />
        <path d="M383.973,198.68a1,1,0,0,1-1-1,17.621,17.621,0,0,0-1.781-7.722,19.977,19.977,0,0,0-4.887-6.344,23.294,23.294,0,0,0-7.3-4.306,26.175,26.175,0,0,0-17.938,0,23.3,23.3,0,0,0-7.3,4.306,19.976,19.976,0,0,0-4.887,6.344,17.621,17.621,0,0,0-1.781,7.722,1,1,0,1,1-2,0,19.6,19.6,0,0,1,1.98-8.592,21.965,21.965,0,0,1,5.371-6.978,25.287,25.287,0,0,1,7.919-4.676,28.175,28.175,0,0,1,19.327,0,25.286,25.286,0,0,1,7.919,4.676,21.965,21.965,0,0,1,5.371,6.979,19.6,19.6,0,0,1,1.98,8.592A1,1,0,0,1,383.973,198.68Z" transform="translate(-37.45 61)" fill="#5bb3b3" />
        <path d="M395.019,198.68a1,1,0,0,1-1-1,19.6,19.6,0,0,1,1.98-8.592,21.967,21.967,0,0,1,5.371-6.979,25.288,25.288,0,0,1,7.919-4.677,27.727,27.727,0,0,1,9.663-1.709,26.639,26.639,0,0,1,17.441,6.263,1,1,0,0,1-1.306,1.515,24.639,24.639,0,0,0-16.135-5.779,25.734,25.734,0,0,0-8.969,1.585,23.3,23.3,0,0,0-7.3,4.306,19.979,19.979,0,0,0-4.888,6.344,17.621,17.621,0,0,0-1.781,7.722A1,1,0,0,1,395.019,198.68Z" transform="translate(-37.45 61)" fill="#5bb3b3" />
        <path d="M0-1H18.41a1,1,0,0,1,1,1V28.576a1,1,0,0,1-1,1H0a1,1,0,0,1-1-1V0A1,1,0,0,1,0-1ZM17.41,1H1V27.576H17.41Z" transform="translate(224.733 264.396)" fill="#5bb3b3" />
        <path d="M0-1H18.41a1,1,0,0,1,1,1V28.576a1,1,0,0,1-1,1H0a1,1,0,0,1-1-1V0A1,1,0,0,1,0-1ZM17.41,1H1V27.576H17.41Z" transform="translate(283.928 264.396)" fill="#5bb3b3" />
        <path d="M0-1H18.41a1,1,0,0,1,1,1V28.576a1,1,0,0,1-1,1H0a1,1,0,0,1-1-1V0A1,1,0,0,1,0-1ZM17.41,1H1V27.576H17.41Z" transform="translate(342.841 264.396)" fill="#5bb3b3" />
        <path d="M15.8,1H0A1,1,0,0,1-1,0,1,1,0,0,1,0-1H15.8a1,1,0,0,1,1,1A1,1,0,0,1,15.8,1Z" transform="translate(205.473 273.921)" fill="#5bb3b3" />
        <path d="M34.692,1H0A1,1,0,0,1-1,0,1,1,0,0,1,0-1H34.692a1,1,0,0,1,1,1A1,1,0,0,1,34.692,1Z" transform="translate(245.662 273.921)" fill="#5bb3b3" />
        <path d="M34.284,1H0A1,1,0,0,1-1,0,1,1,0,0,1,0-1H34.284a1,1,0,0,1,1,1A1,1,0,0,1,34.284,1Z" transform="translate(305.926 273.921)" fill="#5bb3b3" />
        <path d="M34.984,1H0A1,1,0,0,1-1,0,1,1,0,0,1,0-1H34.984a1,1,0,0,1,1,1A1,1,0,0,1,34.984,1Z" transform="translate(364.836 273.921)" fill="#5bb3b3" />
        <path d="M23.933,1H0A1,1,0,0,1-1,0,1,1,0,0,1,0-1H23.933a1,1,0,0,1,1,1A1,1,0,0,1,23.933,1Z" transform="translate(178.989 283.446)" fill="#5bb3b3" />
        <path d="M9.2,1H0A1,1,0,0,1-1,0,1,1,0,0,1,0-1H9.2a1,1,0,0,1,1,1A1,1,0,0,1,9.2,1Z" transform="translate(256.312 279.636)" fill="#5bb3b3" />
        <path d="M11.046,1H0A1,1,0,0,1-1,0,1,1,0,0,1,0-1H11.046a1,1,0,0,1,1,1A1,1,0,0,1,11.046,1Z" transform="translate(311.543 281.541)" fill="#5bb3b3" />
        <path d="M33.051,1H0A1,1,0,0,1-1,0,1,1,0,0,1,0-1H33.051a1,1,0,0,1,1,1A1,1,0,0,1,33.051,1Z" transform="translate(366.769 281.541)" fill="#5bb3b3" />
        <path d="M0,48.052a1,1,0,0,1-1-1V0A1,1,0,0,1,0-1,1,1,0,0,1,1,0V47.052A1,1,0,0,1,0,48.052Z" transform="translate(325.942 160)" fill="#5bb3b3" />
        <path d="M0,48.052a1,1,0,0,1-1-1V0A1,1,0,0,1,0-1,1,1,0,0,1,1,0V47.052A1,1,0,0,1,0,48.052Z" transform="translate(308.579 160)" fill="#5bb3b3" />
        <path d="M0,52.5a1,1,0,0,1-1-1V0A1,1,0,0,1,0-1,1,1,0,0,1,1,0V51.5A1,1,0,0,1,0,52.5Z" transform="translate(291.217 160)" fill="#5bb3b3" />
        <path d="M0,25.766a1,1,0,0,1-1-1V0A1,1,0,0,1,0-1,1,1,0,0,1,1,0V24.766A1,1,0,0,1,0,25.766Z" transform="translate(265.601 182.286)" fill="#5bb3b3" />
        <path d="M229.178,164.718a1.111,1.111,0,0,1-.111-.006,1,1,0,0,1-.945-.988,1.022,1.022,0,0,1,.01-.171,1,1,0,0,1,1.356-.789l.061.024a1,1,0,0,1-.325,1.93Z" transform="translate(-19 61)" fill="#5bb3b3" />
        <path d="M11.046,1H0A1,1,0,0,1-1,0,1,1,0,0,1,0-1H11.046a1,1,0,0,1,1,1A1,1,0,0,1,11.046,1Z" transform="translate(385.184 291.067)" fill="#5bb3b3" />
        <path d="M169.729,264.277a1,1,0,0,1-.261-.035,43.131,43.131,0,0,1-13.677-6.316,44.305,44.305,0,0,1-9.713-9.458c-5.388-7.028-8.953-15.257-12.4-23.216-1.1-2.532-2.133-4.924-3.227-7.283a24.759,24.759,0,0,0-9.051-10,49.733,49.733,0,0,0-12.559-5.8,77.939,77.939,0,0,0-15.926-3.222,1,1,0,0,1-.928-.967c-.005-.163-.508-16.533-.758-33.223-.147-9.808-.179-17.808-.095-23.778.142-10.141.58-12.345.944-13.132a4.468,4.468,0,0,1,3.763-2.534,18.4,18.4,0,0,1,4.521.2c1.562.2,3.505.438,4.007-.1l2.019-2.177a1,1,0,0,1,.733-.32h26.254a1,1,0,0,1,0,2H107.56l-1.722,1.857c-1.2,1.292-3.4,1.018-5.721.727a17.024,17.024,0,0,0-4.015-.2,2.5,2.5,0,0,0-2.207,1.392,14.978,14.978,0,0,0-.489,3.886c-.13,2.072-.221,4.909-.27,8.431-.084,5.95-.052,13.93.095,23.719.216,14.459.623,28.679.73,32.308a80.519,80.519,0,0,1,15.486,3.23,51.715,51.715,0,0,1,13.064,6.042,26.717,26.717,0,0,1,9.756,10.822c1.1,2.383,2.194,4.9,3.248,7.33,3.4,7.847,6.914,15.961,12.152,22.794a42.338,42.338,0,0,0,9.278,9.04,40.576,40.576,0,0,0,13.046,6.02,1,1,0,0,1-.26,1.966Z" transform="translate(-9 56.723)" fill="#5bb3b3" />
        <path d="M41.336,10.747a18.329,18.329,0,1,1-7.156,1.445A18.27,18.27,0,0,1,41.336,10.747Zm0,34.769a16.385,16.385,0,1,0-11.585-4.8A16.276,16.276,0,0,0,41.336,45.516Z" transform="translate(0.322 10.573)" fill="#5bb3b3" />
        <path d="M0,8.875a1,1,0,0,1-1-1V0A1,1,0,0,1,0-1,1,1,0,0,1,1,0V7.875A1,1,0,0,1,0,8.875Z" transform="translate(41.659 10.098)" fill="#5bb3b3" />
        <path d="M0,8.875a1,1,0,0,1-1-1V0A1,1,0,0,1,0-1,1,1,0,0,1,1,0V7.875A1,1,0,0,1,0,8.875Z" transform="translate(41.659 62.29)" fill="#5bb3b3" />
        <path d="M5.568,6.568a1,1,0,0,1-.707-.293L-.707.707a1,1,0,0,1,0-1.414,1,1,0,0,1,1.414,0L6.275,4.861a1,1,0,0,1-.707,1.707Z" transform="translate(20.422 18.895)" fill="#5bb3b3" />
        <path d="M5.568,6.568a1,1,0,0,1-.707-.293L-.707.707a1,1,0,0,1,0-1.414,1,1,0,0,1,1.414,0L6.275,4.861a1,1,0,0,1-.707,1.707Z" transform="translate(57.327 55.8)" fill="#5bb3b3" />
        <path d="M7.875,1.028h0L0,1A1,1,0,0,1-1,0,1,1,0,0,1,0-1l7.875.028a1,1,0,0,1,0,2Z" transform="translate(63.817 40.207)" fill="#5bb3b3" />
        <path d="M7.875,1.028h0L0,1A1,1,0,0,1-1,0,1,1,0,0,1,0-1l7.875.028a1,1,0,0,1,0,2Z" transform="translate(11.626 40.027)" fill="#5bb3b3" />
        <path d="M0,6.548a1,1,0,0,1-.71-.3,1,1,0,0,1,0-1.414L4.883-.71A1,1,0,0,1,6.3-.7a1,1,0,0,1,0,1.414L.7,6.258A1,1,0,0,1,0,6.548Z" transform="translate(57.381 18.968)" fill="#5bb3b3" />
        <path d="M0,6.548a1,1,0,0,1-.71-.3,1,1,0,0,1,0-1.414L4.883-.71A1,1,0,0,1,6.3-.7a1,1,0,0,1,0,1.414L.7,6.258A1,1,0,0,1,0,6.548Z" transform="translate(20.348 55.745)" fill="#5bb3b3" />
        <path d="M0,8.288a1,1,0,0,1-.378-.075,1,1,0,0,1-.547-1.3L2.057-.379a1,1,0,0,1,1.3-.547,1,1,0,0,1,.547,1.3L.926,7.666A1,1,0,0,1,0,8.288Z" transform="translate(50.052 12.336)" fill="#5bb3b3" />
        <path d="M0,8.288a1,1,0,0,1-.378-.075,1,1,0,0,1-.547-1.3L2.057-.379a1,1,0,0,1,1.3-.547,1,1,0,0,1,.547,1.3L.926,7.666A1,1,0,0,1,0,8.288Z" transform="translate(30.284 60.639)" fill="#5bb3b3" />
        <path d="M3.045,8.262a1,1,0,0,1-.923-.614L-.922.387A1,1,0,0,1-.387-.922,1,1,0,0,1,.922-.387L3.967,6.875a1,1,0,0,1-.922,1.387Z" transform="translate(30.048 12.433)" fill="#5bb3b3" />
        <path d="M3.045,8.262a1,1,0,0,1-.923-.614L-.922.387A1,1,0,0,1-.387-.922,1,1,0,0,1,.922-.387L3.967,6.875a1,1,0,0,1-.922,1.387Z" transform="translate(50.226 60.567)" fill="#5bb3b3" />
        <path d="M7.277,4.008A1,1,0,0,1,6.9,3.932L-.382.924A1,1,0,0,1-.924-.382,1,1,0,0,1,.382-.924L7.659,2.083a1,1,0,0,1-.382,1.924Z" transform="translate(62.138 48.594)" fill="#5bb3b3" />
        <path d="M7.277,4.008A1,1,0,0,1,6.9,3.932L-.382.924A1,1,0,0,1-.924-.382,1,1,0,0,1,.382-.924L7.659,2.083a1,1,0,0,1-.382,1.924Z" transform="translate(13.903 28.66)" fill="#5bb3b3" />
        <path d="M0,4.02A1,1,0,0,1-.924,3.4,1,1,0,0,1-.383,2.1L6.889-.924A1,1,0,0,1,8.2-.383,1,1,0,0,1,7.656.924L.383,3.943A1,1,0,0,1,0,4.02Z" transform="translate(62.124 28.616)" fill="#5bb3b3" />
        <path d="M0,4.02A1,1,0,0,1-.924,3.4,1,1,0,0,1-.383,2.1L6.889-.924A1,1,0,0,1,8.2-.383,1,1,0,0,1,7.656.924L.383,3.943A1,1,0,0,1,0,4.02Z" transform="translate(13.921 48.627)" fill="#5bb3b3" />
        <path d="M50.594,229.2H25.9a1,1,0,0,1,0-2h2.517a3.138,3.138,0,0,0-.294-1.411,4.369,4.369,0,0,0-.758-.957c-.138-.146-.28-.3-.421-.459a9.573,9.573,0,0,1-1.767-8.421,13.8,13.8,0,0,1,1.212-2.91,17.853,17.853,0,0,1,5.416-6.5,9.667,9.667,0,0,1,3.8-1.565,7.435,7.435,0,0,1,4.078.419,6.981,6.981,0,0,1,3.235,2.651,14.609,14.609,0,0,1,1.652,4.292l.019.07c1.417,5.263,3.224,11.207,6.748,15.124a1,1,0,0,1-.743,1.669Zm-20.177-2h18.1c-2.946-4.109-4.561-9.468-5.854-14.273l-.019-.07a13.181,13.181,0,0,0-1.394-3.715,4.991,4.991,0,0,0-2.314-1.894,6.388,6.388,0,0,0-6,.946,15.918,15.918,0,0,0-4.777,5.792,11.745,11.745,0,0,0-1.044,2.482,7.6,7.6,0,0,0,1.347,6.6c.112.13.234.258.362.394a6.12,6.12,0,0,1,1.084,1.416A5.085,5.085,0,0,1,30.417,227.2Z" transform="translate(-2 47.383)" fill="#5bb3b3" />
        <path d="M7.841,168.391c-.152,0-.266,0-.346,0a1.021,1.021,0,0,1-1.069-.983,1.008,1.008,0,0,1,.95-1.032c.055-.006.125-.012.22-.019.122-.009.283-.019.487-.03a1.834,1.834,0,0,0,.287-1.045A21.045,21.045,0,0,0,8.2,162a19.036,19.036,0,0,1-.13-4,9.332,9.332,0,0,1,1.3-4.255c.125-.174.252-.327.375-.475a2.369,2.369,0,0,0,.475-.713,3.216,3.216,0,0,0,.054-.969v-.022a101.683,101.683,0,0,1,.8-13.746,11.225,11.225,0,0,1,.726-3.407,9.634,9.634,0,0,1,.873-1.494,8.021,8.021,0,0,0,.7-1.184c.067-.151.132-.321.2-.5a3.272,3.272,0,0,1,1.706-2.183,1.856,1.856,0,0,1,.629-.109,2.579,2.579,0,0,1,2.016,1.181,8.261,8.261,0,0,1,.6,1,7.513,7.513,0,0,0,.412.71,6.512,6.512,0,0,0,.725.826,9.818,9.818,0,0,1,.76.842c1.543,1.986,1.694,4.825,1.827,7.33q.018.342.037.68a66.025,66.025,0,0,0,2.772,14.73q.128.441.258.882a34.374,34.374,0,0,1,1.521,6.907,18.222,18.222,0,0,1,.023,2.663,1,1,0,0,1-.963.935c-.136,0-13.515.474-17.373.671A2.594,2.594,0,0,1,7.841,168.391Zm8.09-37.439a3.921,3.921,0,0,0-.49,1c-.075.194-.152.394-.239.589a9.667,9.667,0,0,1-.871,1.489,7.991,7.991,0,0,0-.7,1.189,9.6,9.6,0,0,0-.566,2.8,100.171,100.171,0,0,0-.787,13.473v.02a4.755,4.755,0,0,1-.146,1.639,4.057,4.057,0,0,1-.846,1.391c-.1.125-.2.244-.285.358a7.9,7.9,0,0,0-.941,3.352,17.9,17.9,0,0,0,.138,3.545,22.282,22.282,0,0,1,.169,3.626,5.848,5.848,0,0,1-.112.79c4.244-.183,11.983-.461,14.648-.555,0-.491-.014-.982-.054-1.468a32.862,32.862,0,0,0-1.446-6.506q-.131-.445-.261-.889a67.943,67.943,0,0,1-2.848-15.173q-.02-.342-.038-.689c-.123-2.32-.251-4.719-1.409-6.209a8.18,8.18,0,0,0-.611-.671,8.135,8.135,0,0,1-.942-1.089,9.106,9.106,0,0,1-.529-.9,6.687,6.687,0,0,0-.453-.768A1.091,1.091,0,0,0,15.931,130.952Z" transform="translate(-6 34.162)" fill="#5bb3b3" />
        <path d="M27.116,1H0A1,1,0,0,1-1,0,1,1,0,0,1,0-1H27.116a1,1,0,0,1,1,1A1,1,0,0,1,27.116,1Z" transform="translate(30.943 283.648)" fill="#5bb3b3" />
        <path d="M50.252,1H0A1,1,0,0,1-1,0,1,1,0,0,1,0-1H50.252a1,1,0,0,1,1,1A1,1,0,0,1,50.252,1Z" transform="translate(50.928 295.653)" fill="#5bb3b3" />
        <path d="M94.741,1H0A1,1,0,0,1-1,0,1,1,0,0,1,0-1H94.741a1,1,0,0,1,1,1A1,1,0,0,1,94.741,1Z" transform="translate(13.196 307.946)" fill="#5bb3b3" />
        <path d="M199.5,1H0A1,1,0,0,1-1,0,1,1,0,0,1,0-1H199.5a1,1,0,0,1,1,1A1,1,0,0,1,199.5,1Z" transform="translate(200 302.104)" fill="#5bb3b3" />
        <path d="M19.154,1H0A1,1,0,0,1-1,0,1,1,0,0,1,0-1H19.154a1,1,0,0,1,1,1A1,1,0,0,1,19.154,1Z" transform="translate(23.732 226.724)" fill="#5bb3b3" />
        <path d="M11.493,1H0A1,1,0,0,1-1,0,1,1,0,0,1,0-1H11.493a1,1,0,0,1,1,1A1,1,0,0,1,11.493,1Z" transform="translate(8.407 147.014)" fill="#5bb3b3" />
        <path d="M5.6,1H0A1,1,0,0,1-1,0,1,1,0,0,1,0-1H5.6a1,1,0,0,1,1,1A1,1,0,0,1,5.6,1Z" transform="translate(12.407 271.355)" fill="#5bb3b3" />
        <path d="M19,1H0A1,1,0,0,1-1,0,1,1,0,0,1,0-1H19a1,1,0,0,1,1,1A1,1,0,0,1,19,1Z" transform="translate(78.657 286.745)" fill="#5bb3b3" />
        <path d="M13.408,1H0A1,1,0,0,1-1,0,1,1,0,0,1,0-1H13.408a1,1,0,0,1,1,1A1,1,0,0,1,13.408,1Z" transform="translate(16.07 207.845)" fill="#5bb3b3" />
        <path d="M28.978,1H0A1,1,0,0,1-1,0,1,1,0,0,1,0-1H28.978a1,1,0,0,1,1,1A1,1,0,0,1,28.978,1Z" transform="translate(0.5 295.653)" fill="#5bb3b3" />
        <path d="M57.548,103.568H23.171a1,1,0,0,1-1-1c0-13.646,4.825-17.747,5.031-17.915a1,1,0,0,1,.868-.2c.371.09.723.213,1.063.331a3.593,3.593,0,0,0,1.7.33,5.189,5.189,0,0,0,1.535-.751c.244-.151.5-.308.76-.453,2.7-1.485,5.619-1.281,8.2-1.1,2.658.185,5.441.34,8.132.489s5.488.3,8.16.491a1,1,0,0,1-.139,2c-2.658-.185-5.441-.34-8.132-.489s-5.488-.3-8.16-.491c-2.413-.168-4.909-.342-7.092.859-.218.12-.438.256-.671.4a6.682,6.682,0,0,1-2.2,1.012,5.145,5.145,0,0,1-2.749-.4c-.117-.041-.232-.081-.344-.118a11.91,11.91,0,0,0-1.795,3.032,33.243,33.243,0,0,0-2.156,11.979H57.548a1,1,0,0,1,0,2Z" transform="translate(-8 23.763)" fill="#5bb3b3" />
        <path d="M113.716,184.545a1,1,0,0,1-1-.967,52.687,52.687,0,0,0-2.083-13.382,39.947,39.947,0,0,0-4.794-10.4,38.643,38.643,0,0,0-6.863-7.871,46.127,46.127,0,0,0-8.32-5.757c-11.845-6.466-25.745-8.193-34.944-9.336l-.733-.091a11.2,11.2,0,0,1-8.265-4.625c-2.22-3.218-2.968-8.029-2.284-14.71a135.686,135.686,0,0,1,3.446-17.445c.871-3.578,1.693-6.958,2.156-9.741,1-5.995-.795-11.164-5.475-15.8-4.078-4.042-9.6-6.939-14.034-9.268A7.5,7.5,0,0,1,27.007,61.1a16.514,16.514,0,0,1-.942-6c-.012-4.43.965-9.835,2-15.558,1.112-6.15,2.263-12.51,2.316-18.3a11.59,11.59,0,0,0-1.2-5.259,15.515,15.515,0,0,0-3.316-4.372A33.9,33.9,0,0,0,15.4,5.292,74.753,74.753,0,0,0-.142.99,1,1,0,0,1-.99-.142,1,1,0,0,1,.142-.99,75.36,75.36,0,0,1,16.128,3.428a35.913,35.913,0,0,1,11.1,6.72c3.456,3.269,5.189,7.008,5.151,11.113-.055,5.955-1.221,12.4-2.348,18.633-1.018,5.631-1.98,10.949-1.969,15.2.012,4.449,1.087,7.083,3.383,8.288C36.006,65.77,41.673,68.745,45.964,73a21.815,21.815,0,0,1,5.124,7.552,18.81,18.81,0,0,1,.916,10c-.475,2.855-1.306,6.27-2.185,9.886-2.618,10.758-5.876,24.146-1.459,30.547a9.168,9.168,0,0,0,6.867,3.776l.732.091a165.994,165.994,0,0,1,16.676,2.71,72.75,72.75,0,0,1,18.979,6.855,48.128,48.128,0,0,1,8.681,6.009,40.641,40.641,0,0,1,7.218,8.279,41.945,41.945,0,0,1,5.036,10.92,54.683,54.683,0,0,1,2.166,13.891,1,1,0,0,1-.966,1.033Z" transform="matrix(0.998, 0.07, -0.07, 0.998, 14.877, 126.256)" fill="#5bb3b3" />
        <path d="M78.058,138.282a1,1,0,0,1-.985-.837,18.169,18.169,0,0,0-4.137-8.688,30.441,30.441,0,0,0-7.054-6.049,44.235,44.235,0,0,0-9.626-4.6,1,1,0,0,1-.707-.972l.491-31.22a1,1,0,0,1,.484-.841c1.151-.7,2.856-2.165,2.856-3.108,0-2.774,1.534-4.885,9.168-6.833.223-.057.595-.152,7.287-.1,3.172.023,6.3.069,6.469.072h32.635a1,1,0,1,1,0,2H82.28c-4.693-.07-12.406-.138-13.268-.023-7.632,1.952-7.633,3.718-7.633,4.887a4.927,4.927,0,0,1-2,3.461,13.579,13.579,0,0,1-1.345,1.05l-.471,29.957a46.916,46.916,0,0,1,9.4,4.59,32.427,32.427,0,0,1,7.514,6.454,20.138,20.138,0,0,1,4.573,9.641,1,1,0,0,1-.988,1.163Z" transform="translate(-7 28.827)" fill="#5bb3b3" />
        <path d="M84.657,93.122a1,1,0,0,1-.926-.621,5.483,5.483,0,0,0-3.438-2.926,11.4,11.4,0,0,0-5.468-.545,3.272,3.272,0,0,1-2.632-.4,2.566,2.566,0,0,1-.789-1.392c-.012-.044-.024-.088-.037-.131-.507-1.72-2.485-3.231-5.038-3.849a9.268,9.268,0,0,1-2.966-1.4,4.343,4.343,0,0,0-2.917-1,1,1,0,1,1-.136-2,6.29,6.29,0,0,1,4.134,1.316A7.411,7.411,0,0,0,66.8,81.311c2.574.623,5.63,2.323,6.486,5.227.015.052.03.1.045.157a1.811,1.811,0,0,0,.136.388,2.814,2.814,0,0,0,1.068-.033c4.172-.613,9.463.823,11.047,4.692a1,1,0,0,1-.925,1.379Z" transform="translate(-6 29.123)" fill="#5bb3b3" />
        <path d="M0,39.472a1,1,0,0,1-1-1V0A1,1,0,0,1,0-1,1,1,0,0,1,1,0V38.472A1,1,0,0,1,0,39.472Z" transform="translate(65.871 117.081)" fill="#5bb3b3" />
        <path d="M90.286,192.628a1,1,0,0,1-.991-.875c-.884-7.034-1.992-13.568-3.291-19.42a123.423,123.423,0,0,0-3.461-12.655,43.6,43.6,0,0,0-3.844-8.943,1.007,1.007,0,0,1-.167-.553c0-.774-.078-3-.186-6.083-.216-6.177-.544-15.513-.632-24.028-.109-10.45.174-16.6.865-18.786,1.948-6.177,1.985-6.295,4.058-8.486,1.42-1.5,4.805-2.564,6.7-3.064a38.413,38.413,0,0,1,9.354-1.3h14.428a1,1,0,0,1,0,2H98.688c-5.854,0-13.039,2.09-14.6,3.737a7.9,7.9,0,0,0-1.738,2.271,52.462,52.462,0,0,0-1.866,5.442c-1.456,4.618-.534,30.914-.141,42.142.1,2.788.171,4.881.185,5.864a48.438,48.438,0,0,1,3.856,8.993,124.574,124.574,0,0,1,3.542,12.889c1.325,5.945,2.452,12.582,3.351,19.728a1,1,0,0,1-.993,1.125Z" transform="translate(-7 29.67)" fill="#5bb3b3" />
        <path d="M114.937,143.265a1,1,0,0,1-.405-.086,43.409,43.409,0,0,1-8.96-5.144,17.581,17.581,0,0,1-4.276-4.548c-1.692-2.769-1.25-4.671-1.194-4.879a.862.862,0,0,1,.1-.241,5.5,5.5,0,0,0,.485-2.545A11.989,11.989,0,0,0,97.8,118.9a12.283,12.283,0,0,1-2.862-5.921,3.5,3.5,0,0,0-.705-1.806,13.254,13.254,0,0,0-3.579-2.6,20.759,20.759,0,0,1-7.627-7.4,15.729,15.729,0,0,1-1.8-4.157,1,1,0,0,1,1.951-.441,14.176,14.176,0,0,0,1.609,3.648,18.772,18.772,0,0,0,6.854,6.609c4.434,2.522,4.87,3.771,5.259,5.761a10.406,10.406,0,0,0,2.475,5.073c4.807,6.151,3.1,10.583,2.648,11.522a5.427,5.427,0,0,0,1.125,3.482c2.461,3.784,7.99,6.805,12.195,8.674a1,1,0,0,1-.407,1.914Z" transform="translate(-7 30.091)" fill="#5bb3b3" />
        <path d="M14.485,1H0A1,1,0,0,1-1,0,1,1,0,0,1,0-1H14.485a1,1,0,0,1,1,1A1,1,0,0,1,14.485,1Z" transform="translate(0.5 126.331)" fill="#5bb3b3" />
        <path d="M0,53.441a1,1,0,0,1-1-1V0A1,1,0,0,1,0-1,1,1,0,0,1,1,0V52.441A1,1,0,0,1,0,53.441Z" transform="translate(101.18 201.613)" fill="#5bb3b3" />
        <path d="M0,49.245a1,1,0,0,1-1-1V0A1,1,0,0,1,0-1,1,1,0,0,1,1,0V48.245A1,1,0,0,1,0,49.245Z" transform="translate(110.757 212.101)" fill="#5bb3b3" />
        <path d="M0,61.831a1,1,0,0,1-1-1V0A1,1,0,0,1,0-1,1,1,0,0,1,1,0V60.831A1,1,0,0,1,0,61.831Z" transform="translate(133.743 237.273)" fill="#5bb3b3" />
        <path d="M0,37.852a1,1,0,0,1-1-1V0A1,1,0,0,1,0-1,1,1,0,0,1,1,0V36.852A1,1,0,0,1,0,37.852Z" transform="translate(170.22 283.648)" fill="#5bb3b3" />
        <path d="M0,47.339a1,1,0,0,1-1-1V0A1,1,0,0,1,0-1,1,1,0,0,1,1,0V46.339A1,1,0,0,1,0,47.339Z" transform="translate(151.982 269.161)" fill="#5bb3b3" />
        <path d="M12.89,226.093H2.916a1,1,0,0,1,0-2H12.1a53.839,53.839,0,0,0,1.32-10.653,54.124,54.124,0,0,0-.94-11.508,3.387,3.387,0,0,0-.312-1.042,2.491,2.491,0,0,0-.621-.583l-.09-.068c-3.151-2.417-5.426-6.053-7.627-9.569-.461-.737-.938-1.5-1.412-2.231-.538-.833-1.049-1.578-1.563-2.278a1,1,0,1,1,1.613-1.183c.537.732,1.07,1.509,1.63,2.375.482.744.963,1.513,1.428,2.256,2.106,3.366,4.284,6.846,7.149,9.043l.085.065a4.191,4.191,0,0,1,1.11,1.121,4.917,4.917,0,0,1,.575,1.716,56.127,56.127,0,0,1,.976,11.935,55.689,55.689,0,0,1-1.556,11.842A1,1,0,0,1,12.89,226.093Z" transform="translate(-2 39.453)" fill="#5bb3b3" />
        <path d="M11.493,1H0A1,1,0,0,1-1,0,1,1,0,0,1,0-1H11.493a1,1,0,0,1,1,1A1,1,0,0,1,11.493,1Z" transform="translate(0.746 153.307)" fill="#5bb3b3" />
        <path d="M5.746,1H0A1,1,0,0,1-1,0,1,1,0,0,1,0-1H5.746a1,1,0,0,1,1,1A1,1,0,0,1,5.746,1Z" transform="translate(-3.085 214.138)" fill="#5bb3b3" />
        <path d="M55,1H0A1,1,0,0,1-1,0,1,1,0,0,1,0-1H55a1,1,0,0,1,1,1A1,1,0,0,1,55,1Z" transform="translate(344.5 157.5)" fill="#5bb3b3" />
        <path d="M174.164,83.955A83.955,83.955,0,1,1,90.209,0a83.954,83.954,0,0,1,83.955,83.955" transform="translate(109.791 76.045)" fill="#ffd964" />
        <path d="M178.473,92.178c-10.538-3.966-22.389-9.66-32.968-12.895,3.109-2.7,1.067-5.235-1.11-7.536-.025-2.394-.674-5.563-1.947-7.26-4.784-3.819-6.685-.164-9.071-1.832a2.481,2.481,0,0,0-3.463,2.1c-.975-.046-3.489-.2-4.56-.28-1.829,1.529-.186,3.233,1.5,3.458-4.1,2.084-2.21-4.258-4.712-2.188-8-2.015-6.967-3.445-15.019-1.12-4.6-1.631-9.19-.761-12.949-4.275-3.952.995-11.594-2.036-12.851,3.26,2.564,2.446-1.656,1.372-3.357,2.633-8.14-3.687-12.632-13.315-22.452-15.035-3.905-1.777,2.257-1.989-4.917-4.238-2.981-2.029.8-8.2-2.5-7.774-1.438-2.368-6.076-2.456-8.129-2.365-.914-2.783-3.985-1.985-3.585.759-.045.987-2.273-.175-1.143,1.326-2.018,1.087-3.1-2.266-3.729-3.763-2.933-.95-.763-4.077-1.532-5.148-2.564.455-2.257-2.979-4.395-3.487-3.543-.452-9.1-2.754-12,1.035-1.8-1.14-4.373-1.152-6.226-2.642-1.943-.165-4.524.039-5.865-1.935.018,26.637.009,55.336.026,81.958,2.125,1.262,7.2,4.84,8.206,6.392s1.992-1.719,3.357,1.155c.5.322,2.449-.355,2.2-.962-2.253-3.16,4.232-2.386,5.93-2.086,4.148,3.7,8.171.859,11.7,2.516,4.442,3.39,10.153,3.716,14.35,7.141,4.028-.745,6.462,3.967,9.071-.4,3.067-.856,5.238-2.789,7.25-5.18a43.39,43.39,0,0,1,12.1-4.5c4.319-4.524.9,4.7,7.658,3.865-.448-.92,10.57,3.389,10.8,4.18,1.667,1.145,4.392.048,3.752-.038,7.134,10.717,2.752-1.254,9.936,5.632-.431,1.48,2.423,2.182,1.6,2.88-.6.739,1.339,1.539,1.914,1.077.561-2.09,1.953-.911.232-2.643,1.171-1.257-.671-3.044-.691-3.074-.3-.434,6.666-2.683,8.928-3.874C143.455,89.8,179.487,106.185,177.611,94c1.085.307,2.08-.355,1.213.815C181.119,94.723,180.556,92.934,178.473,92.178Z" transform="translate(109.096 79.405)" fill="#f1b981" />
        <path d="M110.857,128.749a3.75,3.75,0,0,1-3.3-1.869,2.437,2.437,0,0,1-.238-1.1,5.375,5.375,0,0,1-.863-.89,3.345,3.345,0,0,1-.61-1.344,7.933,7.933,0,0,0-1.41-1.051,3.016,3.016,0,0,1-2.319,1.227,4.11,4.11,0,0,1-2.877-1.571,24.6,24.6,0,0,1-2.088-2.665,7.228,7.228,0,0,1-1.124.1,5.292,5.292,0,0,1-3.017-.87,2,2,0,0,1-.382-.342,36.171,36.171,0,0,0-4.455-2.014,43.066,43.066,0,0,0-4.372-1.526,2,2,0,0,1-.211.038,8.818,8.818,0,0,1-1.079.069,5.5,5.5,0,0,1-4.425-1.968,7.6,7.6,0,0,1-1.235-2.325,2,2,0,0,1-.794.339,41.2,41.2,0,0,0-11.185,4.113,21.254,21.254,0,0,1-3.31,3.186,13.943,13.943,0,0,1-3.95,2.116,5.864,5.864,0,0,1-1.4,1.417,4.183,4.183,0,0,1-2.421.762,7.879,7.879,0,0,1-3.113-.841,6.689,6.689,0,0,0-2.519-.722,2.865,2.865,0,0,0-.527.048,2,2,0,0,1-1.628-.417,22.8,22.8,0,0,0-6.648-3.307A28.918,28.918,0,0,1,31.9,113.69a5.393,5.393,0,0,0-2.068-.313c-.427,0-.872.02-1.344.042-.512.023-1.041.047-1.592.047a9.9,9.9,0,0,1-6.545-2.141,18.775,18.775,0,0,0-2.5-.194c-.228,0-.424.007-.594.017a2.319,2.319,0,0,1-.358,1.8,4.476,4.476,0,0,1-3.427,1.617,2.668,2.668,0,0,1-1.464-.4,2,2,0,0,1-.6-.6,2.871,2.871,0,0,1-1.035.2,2.718,2.718,0,0,1-2.318-1.35,17.551,17.551,0,0,0-3.209-2.8c-1.7-1.277-3.442-2.433-4.341-2.967a2,2,0,0,1-.979-1.718c-.008-13.033-.011-26.8-.013-40.106,0-13.891,0-28.255-.014-41.852a2,2,0,0,1,3.654-1.125c.54.8,1.642.91,3.392,1,.325.017.661.035.988.063a2,2,0,0,1,1.084.434,8.278,8.278,0,0,0,2.81,1.2c.576.171,1.162.346,1.741.571a8.108,8.108,0,0,1,5.311-1.712,25.24,25.24,0,0,1,5.127.705c.817.172,1.589.334,2.236.416a2,2,0,0,1,.209.038A5.012,5.012,0,0,1,29.2,27.349a6.936,6.936,0,0,0,.431.69h0a2,2,0,0,1,1.974.8,4.109,4.109,0,0,1,.421,3.2,5.386,5.386,0,0,0-.1,1.133,1.178,1.178,0,0,0,.2.083,2,2,0,0,1,1.226,1.125c.069.164.139.339.214.524.182.452.385.958.615,1.411a2.408,2.408,0,0,1,.249-.1,3.985,3.985,0,0,1,.89-1.86A3.589,3.589,0,0,1,38.04,33.1a3.737,3.737,0,0,1,2.377.879,4.311,4.311,0,0,1,.764.833,17.933,17.933,0,0,1,4.246.491,7.652,7.652,0,0,1,3.672,1.94,2.891,2.891,0,0,1,1.6.891c1.047,1.148.9,2.727.76,4.255-.091.988-.213,2.306.14,2.8,2.747.891,3.93,1.621,4.459,2.72a2.58,2.58,0,0,1,.244,1.411,20.74,20.74,0,0,1,7.76,3.389,54.413,54.413,0,0,1,6.274,5.3,36.584,36.584,0,0,0,7.621,6,8.124,8.124,0,0,1,1.37-.357,2,2,0,0,1,.054-.506,5.694,5.694,0,0,1,3.153-3.988,10.188,10.188,0,0,1,4.422-.793c.9,0,1.805.054,2.683.107.823.049,1.6.1,2.316.1a7.366,7.366,0,0,0,1.734-.159,2,2,0,0,1,1.854.479c1.974,1.846,4.316,2.223,7.027,2.659a31.8,31.8,0,0,1,4.6.984,22.63,22.63,0,0,1,6.035-1.107,14.274,14.274,0,0,1,4.812,1.014c.991.328,2.191.724,3.794,1.153a2.751,2.751,0,0,1,1.168-.269,2.487,2.487,0,0,1,.606.074,5.1,5.1,0,0,1,.481-.457,2,2,0,0,1,1.43-.46c.677.05,1.906.129,2.962.191a4.124,4.124,0,0,1,.658-.858,4.686,4.686,0,0,1,3.3-1.334,4.593,4.593,0,0,1,1.68.312,2,2,0,0,1,.418.223.462.462,0,0,0,.32.1,5.592,5.592,0,0,0,.973-.158,10.432,10.432,0,0,1,2.267-.294,8.939,8.939,0,0,1,5.614,2.255,2,2,0,0,1,.352.363c1.519,2.024,2.182,5.216,2.32,7.645,1.458,1.6,2.829,3.476,2.72,5.689a4.967,4.967,0,0,1-.349,1.6c5.887,1.972,12.073,4.563,18.082,7.079,4.311,1.805,8.383,3.511,12.345,5,2.116.772,3.365,2.39,3.11,4.029a3.034,3.034,0,0,1-2.9,2.444,4.969,4.969,0,0,1-.855,1.514c-2.262,2.754-7.155,2.963-13.929,3.254-6.035.259-13.545.581-21.2,2.8a46.665,46.665,0,0,0-11.353,4.917,45.206,45.206,0,0,0-10.707,9.077,2,2,0,0,1-.578.458c-1.087.573-3,1.3-4.844,2.013-.653.25-1.472.564-2.183.849a3.8,3.8,0,0,1,.2,1.935,2.23,2.23,0,0,1-.494,3.243l-.056.044a1.124,1.124,0,0,0-.094.257,2,2,0,0,1-.68,1.041A2.747,2.747,0,0,1,110.857,128.749Zm-6.628-10.373c1.347,0,2.753.756,4.651,2.513a2.074,2.074,0,0,1,.093-.633c.311-1.01,1.192-1.449,2.5-2,.825-.35,1.882-.755,3-1.184,1.48-.567,3.136-1.2,4.1-1.66a49.124,49.124,0,0,1,11.392-9.574,51.315,51.315,0,0,1,12.312-5.337c8.117-2.35,15.893-2.683,22.141-2.951a73.712,73.712,0,0,0,7.683-.565c2.2-.351,3.023-.863,3.326-1.231.1-.121.363-.441.208-1.446a2,2,0,0,1,.113-1.029c-3.431-1.337-7-2.832-10.47-4.285-6.828-2.859-13.888-5.816-20.356-7.794a2,2,0,0,1-.726-3.423,2.172,2.172,0,0,0,.9-1.348c.048-.978-1.437-2.549-2.151-3.3a2,2,0,0,1-.547-1.353,12.605,12.605,0,0,0-1.413-5.888,4.67,4.67,0,0,0-2.9-1.211,6.875,6.875,0,0,0-1.429.205,8.4,8.4,0,0,1-1.81.246,4.39,4.39,0,0,1-2.313-.632.738.738,0,0,0-.1-.007.715.715,0,0,0-.474.161c-.023.024-.038.038-.038.112a2,2,0,0,1-2.094,2c-.327-.015-.834-.043-1.405-.077a2,2,0,0,1-.648,3.04,5.164,5.164,0,0,1-2.339.644h0a3.261,3.261,0,0,1-2.758-1.473,5.1,5.1,0,0,1-.568-1.142,2,2,0,0,1-.442-.06c-2.166-.546-3.677-1.045-4.892-1.447a10.924,10.924,0,0,0-3.557-.812,21.725,21.725,0,0,0-5.526,1.121,2,2,0,0,1-1.224-.037,25.283,25.283,0,0,0-4.523-1.013c-2.8-.451-5.686-.916-8.342-3.014a13.943,13.943,0,0,1-1.638.086c-.835,0-1.71-.052-2.556-.1-.819-.049-1.667-.1-2.444-.1-2.049,0-2.909.353-3.32.87a2.516,2.516,0,0,1-1.514,3.978,9.931,9.931,0,0,1-1.379.266,5.761,5.761,0,0,0-1.582.37,2,2,0,0,1-2.016.215c-3.723-1.687-6.681-4.456-9.542-7.134-3.767-3.527-7.326-6.859-12.43-7.752a2,2,0,0,1-.483-.15,4.259,4.259,0,0,1-2.3-1.868,2.59,2.59,0,0,1-.277-1.516A19.216,19.216,0,0,0,50,48.88a2,2,0,0,1-.527-.255,4.812,4.812,0,0,1-2.037-3.488,13.533,13.533,0,0,1,.038-3.116c.025-.267.056-.6.072-.9a2,2,0,0,1-1.157-.884c-.4-.657-2.058-1.425-5.42-1.425-.3,0-.611.007-.91.02A2,2,0,0,1,38.351,38a2.387,2.387,0,0,1-1.282,1.734,2,2,0,0,1-.876.941,3.6,3.6,0,0,1-1.717.452,3.976,3.976,0,0,1-3.361-2.14,14.213,14.213,0,0,1-1.148-2.336,3.828,3.828,0,0,1-1.907-2.473,6.252,6.252,0,0,1-.032-2.445,3.822,3.822,0,0,1-1.16-.8,7.2,7.2,0,0,1-1.138-1.6,4.355,4.355,0,0,0-.582-.865c-.75-.105-1.537-.271-2.366-.445a21.923,21.923,0,0,0-4.3-.62,3.767,3.767,0,0,0-3.3,1.356,2,2,0,0,1-2.66.473,9.434,9.434,0,0,0-2.231-.854A12.932,12.932,0,0,1,6.654,26.87l-.321-.018A15.37,15.37,0,0,1,3.5,26.516c.007,12.536.01,25.623.011,38.315,0,12.933,0,26.295.012,39a45.441,45.441,0,0,1,7.253,5.621,3.036,3.036,0,0,1,1.06-.2,2.762,2.762,0,0,1,1.119.236,2.9,2.9,0,0,1,.174-.411,3.462,3.462,0,0,1,2.389-1.7,9.613,9.613,0,0,1,2.333-.241,23.407,23.407,0,0,1,3.714.336,2,2,0,0,1,.984.477,5.893,5.893,0,0,0,4.35,1.521c.46,0,.921-.021,1.409-.043s1.008-.046,1.526-.046a9.043,9.043,0,0,1,3.935.766,2,2,0,0,1,.364.221,24.828,24.828,0,0,0,6.62,3.224,28.552,28.552,0,0,1,7.1,3.432q.154-.007.308-.007a10.157,10.157,0,0,1,4.089,1.043,5.6,5.6,0,0,0,1.543.52c.177,0,.5-.355.831-.9a2,2,0,0,1,1.179-.9c2.232-.623,4.1-1.981,6.257-4.541a2,2,0,0,1,.557-.46,46.16,46.16,0,0,1,12.083-4.6,4.152,4.152,0,0,1,2.788-1.414,2.675,2.675,0,0,1,2.363,1.48,7.912,7.912,0,0,1,.581,1.478c.565,1.771.869,2.216,2.083,2.216h.076a2.311,2.311,0,0,1,.924-.182,9.364,9.364,0,0,1,2.851.675c1.06.353,2.358.834,3.655,1.355,1.323.532,2.548,1.066,3.449,1.505a7.86,7.86,0,0,1,1.961,1.2,1.772,1.772,0,0,0,.6.09,3.025,3.025,0,0,0,.537-.05,2,2,0,0,1,1.6-.488,2.089,2.089,0,0,1,1.7,1.324,29.427,29.427,0,0,0,2.143,2.881A3.239,3.239,0,0,1,104.229,118.377Z" transform="translate(109.096 79.405)" fill="#313e58" />
        <path d="M13.526-19.274H16.8L10.046,0H6.724L0-19.274H3.243L7.264-7.291q.316.857.672,2.208T8.4-3.072q.171-1,.527-2.32t.58-1.951ZM20.393,0V-19.274h3.151V0ZM37.886-16.849a5.194,5.194,0,0,0-4.271,1.925,8.228,8.228,0,0,0-1.556,5.313,8.283,8.283,0,0,0,1.5,5.366,5.285,5.285,0,0,0,4.331,1.819,11.38,11.38,0,0,0,2.373-.244q1.147-.244,2.386-.626v2.7A14.467,14.467,0,0,1,37.5.264,8.218,8.218,0,0,1,31-2.3q-2.268-2.564-2.268-7.337a11.855,11.855,0,0,1,1.1-5.26,7.857,7.857,0,0,1,3.184-3.454,9.63,9.63,0,0,1,4.891-1.2,12.138,12.138,0,0,1,5.458,1.239l-1.134,2.624a16.928,16.928,0,0,0-2.063-.811A7.434,7.434,0,0,0,37.886-16.849Z" transform="translate(158.948 174.907)" fill="#313e58" />
        <g transform="translate(-4 3)">
            <path d="M947.266,2640.016a18.152,18.152,0,0,1,7.283,3.471,13.768,13.768,0,0,1,6.259-.033,14.319,14.319,0,0,1,8.861,6.2,10.219,10.219,0,0,1,12.976,11.425,9.512,9.512,0,0,1-11.615,7.209,10.447,10.447,0,0,1-2.912-1.133,13.627,13.627,0,0,1-12.82,3.767,14.234,14.234,0,0,1-1.414-.4,17.252,17.252,0,0,1-13.189,2.25,18.119,18.119,0,0,1-9.465-5.511,9.892,9.892,0,0,1-7.691,1.371,10.069,10.069,0,0,1-7.843-11.592,9.511,9.511,0,0,1,11.614-7.208q.242.054.479.119a16.49,16.49,0,0,1,15.526-10.38A17.985,17.985,0,0,1,947.266,2640.016Z" transform="translate(-809.1 -2618.445)" fill="#c0e1e2" />
            <path d="M943.316,2639.073h0a18.691,18.691,0,0,1,11.352,3.873,14.145,14.145,0,0,1,3.068-.336,14.512,14.512,0,0,1,3.181.356,14.751,14.751,0,0,1,8.966,6.107,10.416,10.416,0,0,1,2.65-.341,10.924,10.924,0,0,1,9.009,4.777,10.068,10.068,0,0,1,1.593,7.667,9.681,9.681,0,0,1-3.5,5.7,10.276,10.276,0,0,1-6.336,2.168,10.834,10.834,0,0,1-2.376-.266,10.964,10.964,0,0,1-2.714-1,14.1,14.1,0,0,1-9.835,3.992,14.51,14.51,0,0,1-3.183-.357c-.412-.093-.827-.205-1.236-.335a17.51,17.51,0,0,1-9.307,2.644,18.681,18.681,0,0,1-13.5-5.808,10.255,10.255,0,0,1-5.34,1.479,10.922,10.922,0,0,1-9.008-4.777,10.068,10.068,0,0,1-1.592-7.667,9.679,9.679,0,0,1,3.5-5.7,10.275,10.275,0,0,1,6.335-2.168,10.827,10.827,0,0,1,2.377.267l.068.015a16.432,16.432,0,0,1,6.1-7.375A17.473,17.473,0,0,1,943.316,2639.073Zm11.113,4.957-.191-.151a17.691,17.691,0,0,0-10.922-3.806,16.475,16.475,0,0,0-9.171,2.746,15.428,15.428,0,0,0-5.889,7.314l-.163.423-.436-.12c-.153-.042-.306-.08-.455-.114a9.839,9.839,0,0,0-2.159-.242,9.27,9.27,0,0,0-5.716,1.954,8.563,8.563,0,0,0-3.141,5.107,9.578,9.578,0,0,0,7.463,11.006,9.817,9.817,0,0,0,2.157.242,9.239,9.239,0,0,0,5.146-1.541l.359-.239.289.319a17.678,17.678,0,0,0,13.044,5.79,16.5,16.5,0,0,0,8.968-2.613l.2-.13.228.077a13.822,13.822,0,0,0,1.365.382,13.507,13.507,0,0,0,2.964.332,13.1,13.1,0,0,0,9.389-3.96l.271-.278.337.193a9.95,9.95,0,0,0,2.773,1.079,9.824,9.824,0,0,0,2.156.242,9.271,9.271,0,0,0,5.717-1.954,8.564,8.564,0,0,0,3.141-5.108,9.577,9.577,0,0,0-7.464-11.005,9.814,9.814,0,0,0-2.158-.242,9.4,9.4,0,0,0-2.72.4l-.359.108-.2-.315a13.771,13.771,0,0,0-8.552-5.984,13.519,13.519,0,0,0-2.962-.332,13.151,13.151,0,0,0-3.071.363Z" transform="translate(-809.1 -2618.445)" fill="rgba(0,0,0,0)" />
            <path d="M947.266,2640.016a18.152,18.152,0,0,1,7.283,3.471,13.768,13.768,0,0,1,6.259-.033,14.319,14.319,0,0,1,8.861,6.2,10.219,10.219,0,0,1,12.976,11.425,9.512,9.512,0,0,1-11.615,7.209,10.447,10.447,0,0,1-2.912-1.133,13.627,13.627,0,0,1-12.82,3.767,14.234,14.234,0,0,1-1.414-.4,17.252,17.252,0,0,1-13.189,2.25,18.119,18.119,0,0,1-9.465-5.511,9.892,9.892,0,0,1-7.691,1.371,10.069,10.069,0,0,1-7.843-11.592,9.511,9.511,0,0,1,11.614-7.208q.242.054.479.119a16.49,16.49,0,0,1,15.526-10.38A17.985,17.985,0,0,1,947.266,2640.016Z" transform="translate(-762.1 -2661.777)" fill="#c0e1e2" />
            <path d="M943.316,2639.073h0a18.691,18.691,0,0,1,11.352,3.873,14.145,14.145,0,0,1,3.068-.336,14.512,14.512,0,0,1,3.181.356,14.751,14.751,0,0,1,8.966,6.107,10.416,10.416,0,0,1,2.65-.341,10.924,10.924,0,0,1,9.009,4.777,10.068,10.068,0,0,1,1.593,7.667,9.681,9.681,0,0,1-3.5,5.7,10.276,10.276,0,0,1-6.336,2.168,10.834,10.834,0,0,1-2.376-.266,10.964,10.964,0,0,1-2.714-1,14.1,14.1,0,0,1-9.835,3.992,14.51,14.51,0,0,1-3.183-.357c-.412-.093-.827-.205-1.236-.335a17.51,17.51,0,0,1-9.307,2.644,18.681,18.681,0,0,1-13.5-5.808,10.255,10.255,0,0,1-5.34,1.479,10.922,10.922,0,0,1-9.008-4.777,10.068,10.068,0,0,1-1.592-7.667,9.679,9.679,0,0,1,3.5-5.7,10.275,10.275,0,0,1,6.335-2.168,10.827,10.827,0,0,1,2.377.267l.068.015a16.432,16.432,0,0,1,6.1-7.375A17.473,17.473,0,0,1,943.316,2639.073Zm11.113,4.957-.191-.151a17.691,17.691,0,0,0-10.922-3.806,16.475,16.475,0,0,0-9.171,2.746,15.428,15.428,0,0,0-5.889,7.314l-.163.423-.436-.12c-.153-.042-.306-.08-.455-.114a9.839,9.839,0,0,0-2.159-.242,9.27,9.27,0,0,0-5.716,1.954,8.563,8.563,0,0,0-3.141,5.107,9.578,9.578,0,0,0,7.463,11.006,9.817,9.817,0,0,0,2.157.242,9.239,9.239,0,0,0,5.146-1.541l.359-.239.289.319a17.678,17.678,0,0,0,13.044,5.79,16.5,16.5,0,0,0,8.968-2.613l.2-.13.228.077a13.822,13.822,0,0,0,1.365.382,13.507,13.507,0,0,0,2.964.332,13.1,13.1,0,0,0,9.389-3.96l.271-.278.337.193a9.95,9.95,0,0,0,2.773,1.079,9.824,9.824,0,0,0,2.156.242,9.271,9.271,0,0,0,5.717-1.954,8.564,8.564,0,0,0,3.141-5.108,9.577,9.577,0,0,0-7.464-11.005,9.814,9.814,0,0,0-2.158-.242,9.4,9.4,0,0,0-2.72.4l-.359.108-.2-.315a13.771,13.771,0,0,0-8.552-5.984,13.519,13.519,0,0,0-2.962-.332,13.151,13.151,0,0,0-3.071.363Z" transform="translate(-762.1 -2661.777)" fill="rgba(0,0,0,0)" />
            <path d="M501.151,179.394a71.848,71.848,0,0,0,.364-7.218c0-11.7-7.082-21.184-15.818-21.184a13.451,13.451,0,0,0-9.682,4.541c-.941-10.5-7.536-18.666-15.629-18.666-6.979,0-12.835,6.092-14.936,14.492-9.471,1.105-17.4,5.029-21.976,10.435-2.718-6.421-7.806-10.8-13.709-10.8-8.738,0-15.82,9.484-15.82,21.184-10.993-3.541-17.955,3.162-17.955,7.063" transform="translate(-83.395 33.373)" fill="#bfe2e2" />
        </g>
    </g>
</svg>