<svg xmlns="http://www.w3.org/2000/svg" xmlns:xlink="http://www.w3.org/1999/xlink" width="400" height="320" viewBox="0 0 400 320">
    <defs>
        <clipPath>
            <rect width="400" height="320" />
        </clipPath>
    </defs>
    <g clip-path="url(#b)">
        <path d="M297.111,134.843a1,1,0,0,1-.634-1.774c.03-.024,3.04-2.483,8.035-5.991A204.865,204.865,0,0,1,325,114.417a137.715,137.715,0,0,1,27.677-11.47c10.924-3.049,20.911-3.837,29.682-2.341l37.813,6.45a1,1,0,0,1-.336,1.972l-37.813-6.45c-8.478-1.446-18.17-.674-28.808,2.3a135.727,135.727,0,0,0-27.269,11.307,195.6,195.6,0,0,0-28.2,18.437A1,1,0,0,1,297.111,134.843Z" transform="translate(-20 38)" fill="#5bb3b3" />
        <path d="M17.9,158.582a1,1,0,0,1-1-1V43.287a1,1,0,0,1,1-1H70.865a1,1,0,0,1,1,1l.268,103.749a1,1,0,0,1-1,1h0a1,1,0,0,1-1-1L69.867,44.287H18.9v113.3A1,1,0,0,1,17.9,158.582Z" transform="translate(-13.903 25.313)" fill="#5bb3b3" />
        <path d="M18.428,40.336a1,1,0,0,1-.591-1.807L70.275.192A1,1,0,0,1,71.865,1v36.67a1,1,0,0,1-2,0V2.969L19.017,40.143A1,1,0,0,1,18.428,40.336Z" transform="translate(-13.903 25.313)" fill="#5bb3b3" />
        <path d="M0,15.843a1,1,0,0,1-1-1V0A1,1,0,0,1,0-1,1,1,0,0,1,1,0V14.843A1,1,0,0,1,0,15.843Z" transform="translate(26.555 48.972)" fill="#5bb3b3" />
        <path d="M0,20.168a1,1,0,0,1-1-1V0A1,1,0,0,1,0-1,1,1,0,0,1,1,0V19.168A1,1,0,0,1,0,20.168Z" transform="translate(33.365 44.647)" fill="#5bb3b3" />
        <path d="M14.918,1H0A1,1,0,0,1-1,0,1,1,0,0,1,0-1H14.918a1,1,0,0,1,1,1A1,1,0,0,1,14.918,1Z" transform="translate(36.715 60.011)" fill="#5bb3b3" />
        <path d="M14.918,1H0A1,1,0,0,1-1,0,1,1,0,0,1,0-1H14.918a1,1,0,0,1,1,1A1,1,0,0,1,14.918,1Z" transform="translate(36.715 51.507)" fill="#5bb3b3" />
        <path d="M12.712,1H0A1,1,0,0,1-1,0,1,1,0,0,1,0-1H12.712a1,1,0,0,1,1,1A1,1,0,0,1,12.712,1Z" transform="translate(38.921 43.952)" fill="#5bb3b3" />
        <path d="M5.768,1H0A1,1,0,0,1-1,0,1,1,0,0,1,0-1H5.768a1,1,0,0,1,1,1A1,1,0,0,1,5.768,1Z" transform="translate(17.123 60.011)" fill="#5bb3b3" />
        <path d="M0,108.26H-.007A1,1,0,0,1-1,107.253L-.234-.007A1,1,0,0,1,.773-1,1,1,0,0,1,1.766.007L1,107.268A1,1,0,0,1,0,108.26Z" transform="translate(25.789 70.253)" fill="#5bb3b3" />
        <path d="M0,108.486a1,1,0,0,1-1-1V0A1,1,0,0,1,0-1,1,1,0,0,1,1,0V107.486A1,1,0,0,1,0,108.486Z" transform="translate(33.365 70.253)" fill="#5bb3b3" />
        <path d="M19.887,1H0A1,1,0,0,1-1,0,1,1,0,0,1,0-1H19.887a1,1,0,0,1,1,1A1,1,0,0,1,19.887,1Z" transform="translate(6.098 82.596)" fill="#5bb3b3" />
        <path d="M19.926,1H0A1,1,0,0,1-1,0,1,1,0,0,1,0-1H19.926a1,1,0,0,1,1,1A1,1,0,0,1,19.926,1Z" transform="translate(34.938 82.596)" fill="#5bb3b3" />
        <path d="M19.887,1H0A1,1,0,0,1-1,0,1,1,0,0,1,0-1H19.887a1,1,0,0,1,1,1A1,1,0,0,1,19.887,1Z" transform="translate(6.098 101.612)" fill="#5bb3b3" />
        <path d="M19.926,1H0A1,1,0,0,1-1,0,1,1,0,0,1,0-1H19.926a1,1,0,0,1,1,1A1,1,0,0,1,19.926,1Z" transform="translate(34.938 101.612)" fill="#5bb3b3" />
        <path d="M19.887,1H0A1,1,0,0,1-1,0,1,1,0,0,1,0-1H19.887a1,1,0,0,1,1,1A1,1,0,0,1,19.887,1Z" transform="translate(6.098 120.629)" fill="#5bb3b3" />
        <path d="M19.926,1H0A1,1,0,0,1-1,0,1,1,0,0,1,0-1H19.926a1,1,0,0,1,1,1A1,1,0,0,1,19.926,1Z" transform="translate(34.938 120.629)" fill="#5bb3b3" />
        <path d="M19.887,1H0A1,1,0,0,1-1,0,1,1,0,0,1,0-1H19.887a1,1,0,0,1,1,1A1,1,0,0,1,19.887,1Z" transform="translate(6.098 139.645)" fill="#5bb3b3" />
        <path d="M19.926,1H0A1,1,0,0,1-1,0,1,1,0,0,1,0-1H19.926a1,1,0,0,1,1,1A1,1,0,0,1,19.926,1Z" transform="translate(34.938 139.645)" fill="#5bb3b3" />
        <path d="M19.887,1H0A1,1,0,0,1-1,0,1,1,0,0,1,0-1H19.887a1,1,0,0,1,1,1A1,1,0,0,1,19.887,1Z" transform="translate(5.098 158.508)" fill="#5bb3b3" />
        <path d="M19.926,1H0A1,1,0,0,1-1,0,1,1,0,0,1,0-1H19.926a1,1,0,0,1,1,1A1,1,0,0,1,19.926,1Z" transform="translate(33.938 158.508)" fill="#5bb3b3" />
        <path d="M90.788,136.879a1,1,0,0,1-1-1V99.151a1,1,0,0,1,1-1h12.834a1,1,0,0,1,0,2H91.788v35.728A1,1,0,0,1,90.788,136.879Z" transform="translate(-24 35)" fill="#5bb3b3" />
        <path d="M129.475,137.709a1,1,0,0,1-1-1V62.054H105.029l.425,73.819a1,1,0,0,1-.994,1.006h-.006a1,1,0,0,1-1-.994l-.43-74.825a1,1,0,0,1,1-1.006h25.451a1,1,0,0,1,1,1v75.655A1,1,0,0,1,129.475,137.709Z" transform="translate(-23.524 35)" fill="#5bb3b3" />
        <path d="M122.609,60.03a1,1,0,0,1-1-1V52.5h-8.817v6.377a1,1,0,0,1-2,0V51.5a1,1,0,0,1,1-1h10.817a1,1,0,0,1,1,1V59.03A1,1,0,0,1,122.609,60.03Z" transform="translate(-24.292 35)" fill="#5bb3b3" />
        <path d="M0,17.188a1,1,0,0,1-1-1V0A1,1,0,0,1,0-1,1,1,0,0,1,1,0V16.188A1,1,0,0,1,0,17.188Z" transform="translate(92.5 70.129)" fill="#5bb3b3" />
        <path d="M90.739,99.2a1,1,0,0,1-.711-1.7c.664-.67,12.085-12.462,12.2-12.581a1,1,0,1,1,1.437,1.391c-.274.283-4.13,4.264-7.443,7.681l5.562-3.11a1,1,0,0,1,.976,1.746L91.226,99.077A1,1,0,0,1,90.739,99.2Z" transform="translate(-24 35)" fill="#5bb3b3" />
        <path d="M0,66.748a1,1,0,0,1-1-1V0A1,1,0,0,1,0-1,1,1,0,0,1,1,0V65.748A1,1,0,0,1,0,66.748Z" transform="translate(92.5 104.656)" fill="#5bb3b3" />
        <path d="M63.593,248.4a1,1,0,0,1-1-1V153.733H2V247.4a1,1,0,1,1-2,0V152.733a1,1,0,0,1,1-1H63.593a1,1,0,0,1,1,1V247.4A1,1,0,0,1,63.593,248.4Z" transform="translate(-30 38.664)" fill="#5bb3b3" />
        <path d="M146.136,248.8a1,1,0,0,1-1-1V147.55c-3.417-.275-16.643-1.189-41.644-1.189-25.255,0-40.3.932-44.076,1.2.013.546.029,1.268.039,2a17.326,17.326,0,0,1-.1,3.712,1,1,0,0,1-1.942-.48c.084-.49.053-3.5-.027-6.133a1,1,0,0,1,.917-1.027c.154-.013,15.783-1.275,45.183-1.275s42.612,1.263,42.742,1.276a1,1,0,0,1,.9,1V247.8A1,1,0,0,1,146.136,248.8Z" transform="translate(-28 38.266)" fill="#5bb3b3" />
        <path d="M135.475,146.034a1,1,0,0,1-1-1v-2.415c-2.6-.311-11.257-1.174-27.127-1.174H107.3c-18.888,0-19.459,0-28.684,1.174.009.582.021,1.38.028,2.19a1,1,0,0,1-.991,1.009h-.009a1,1,0,0,1-1-.991c-.014-1.548-.043-3.052-.043-3.067a1,1,0,0,1,.873-1.011c10.223-1.3,10.223-1.3,29.826-1.3h.048c19.441,0,27.925,1.253,28.277,1.307a1,1,0,0,1,.85.989v3.294A1,1,0,0,1,135.475,146.034Z" transform="translate(-30 36)" fill="#5bb3b3" />
        <path d="M19.887,1H0A1,1,0,0,1-1,0,1,1,0,0,1,0-1H19.887a1,1,0,0,1,1,1A1,1,0,0,1,19.887,1Z" transform="translate(7.098 179.853)" fill="#5bb3b3" />
        <path d="M77.938,247.444a1,1,0,0,1-1-1V171.53H69.751a1,1,0,0,1,0-2h8.187a1,1,0,0,1,1,1v75.913A1,1,0,0,1,77.938,247.444Z" transform="translate(-30 39.626)" fill="#5bb3b3" />
        <path d="M136.27,247.346a1,1,0,0,1-1-1V173.34h-7.187a1,1,0,1,1,0-2h8.187a1,1,0,0,1,1,1v74.005A1,1,0,0,1,136.27,247.346Z" transform="translate(-30 39.724)" fill="#5bb3b3" />
        <path d="M92.521,247.9a1,1,0,0,1-1-1V163.084H84.334a1,1,0,0,1,0-2h8.187a1,1,0,0,1,1,1V246.9A1,1,0,0,1,92.521,247.9Z" transform="translate(-30 39.169)" fill="#5bb3b3" />
        <path d="M121.839,247.383a1,1,0,0,1-1-1l-.15-82.094H113.5a1,1,0,0,1,0-2h8.187a1,1,0,0,1,1,1l.152,83.092a1,1,0,0,1-1,1Z" transform="translate(-30 39.235)" fill="#5bb3b3" />
        <path d="M107.541,248.188a1,1,0,0,1-1-1l-.432-91.348H98.917a1,1,0,0,1,0-2H107.1a1,1,0,0,1,1,1l.437,92.343a1,1,0,0,1-1,1Z" transform="translate(-30 38.778)" fill="#5bb3b3" />
        <path d="M49.818,1H0A1,1,0,0,1-1,0,1,1,0,0,1,0-1H49.818a1,1,0,0,1,1,1A1,1,0,0,1,49.818,1Z" transform="translate(-23.26 204.218)" fill="#5bb3b3" />
        <path d="M49.818,1H0A1,1,0,0,1-1,0,1,1,0,0,1,0-1H49.818a1,1,0,0,1,1,1A1,1,0,0,1,49.818,1Z" transform="translate(-23.26 223.354)" fill="#5bb3b3" />
        <path d="M49.818,1H0A1,1,0,0,1-1,0,1,1,0,0,1,0-1H49.818a1,1,0,0,1,1,1A1,1,0,0,1,49.818,1Z" transform="translate(-23.26 242.491)" fill="#5bb3b3" />
        <path d="M49.818,1H0A1,1,0,0,1-1,0,1,1,0,0,1,0-1H49.818a1,1,0,0,1,1,1A1,1,0,0,1,49.818,1Z" transform="translate(-23.26 261.627)" fill="#5bb3b3" />
        <path d="M49.818,1H0A1,1,0,0,1-1,0,1,1,0,0,1,0-1H49.818a1,1,0,0,1,1,1A1,1,0,0,1,49.818,1Z" transform="translate(-23.26 280.764)" fill="#5bb3b3" />
        <g transform="translate(-9.326 2.203)">
            <path d="M377.368,230.485a1,1,0,0,1-.724-.31,77.276,77.276,0,0,1-7.41-9.313c-4.7-7.051-6.005-12.337-3.868-15.709a2.958,2.958,0,0,1,2.952-1.671c1.419.188,2.827,1.47,4.43,4.034a53.078,53.078,0,0,1,3.668,7.4c2.18,5.2,3.8,10.4,3.819,10.452a1,1,0,0,1-1.91.594c-.016-.051-1.615-5.168-3.759-10.285-3.849-9.185-5.956-10.138-6.51-10.211-.119-.016-.479-.063-1,.759-.881,1.39-.911,3.384-.092,5.926a31.974,31.974,0,0,0,3.921,7.583,76.708,76.708,0,0,0,7.208,9.064,1,1,0,0,1-.724,1.689Z" transform="translate(-18 38)" fill="#5bb3b3" />
            <path d="M385.745,220.493a1,1,0,0,1-.767-.357,110.327,110.327,0,0,1-8.128-11.3,46.177,46.177,0,0,1-4.659-9.432c-1.17-3.557-1.147-6.334.07-8.253a2.7,2.7,0,0,1,2.7-1.5c1.6.208,4.306,1.892,9.293,14.073,2.657,6.488,4.72,12.981,4.741,13.046a1,1,0,0,1-1.907.6c-.02-.064-2.063-6.489-4.689-12.9a72.337,72.337,0,0,0-4.239-8.92c-2.049-3.484-3.163-3.879-3.456-3.917-.1-.013-.356-.046-.755.583-.881,1.39-.833,3.6.141,6.558a44.241,44.241,0,0,0,4.461,9.006,108.018,108.018,0,0,0,7.959,11.067,1,1,0,0,1-.766,1.643Z" transform="translate(-18 38)" fill="#5bb3b3" />
            <path d="M412.327,226.759a54.571,54.571,0,0,1-5.75-.335,100.686,100.686,0,0,1-13.282-2.436,1,1,0,0,1,.514-1.933,98.493,98.493,0,0,0,13,2.382,39.011,39.011,0,0,0,9.61.05c2.909-.439,4.769-1.392,5.531-2.832.386-.73.193-1,.11-1.113-.377-.524-2.531-2.167-14.439-1.3-6.576.481-12.855,1.5-12.918,1.506a1,1,0,0,1-.321-1.974c.064-.01,6.43-1.04,13.093-1.527a67.11,67.11,0,0,1,9.744-.135c3.5.275,5.555.993,6.464,2.259a2.875,2.875,0,0,1,.034,3.215c-1.075,2.034-3.434,3.339-7.01,3.877A29.693,29.693,0,0,1,412.327,226.759Z" transform="translate(-18 38)" fill="#5bb3b3" />
            <path d="M394.307,202.8a1,1,0,0,1-.646-.238,91.727,91.727,0,0,1-8.418-8.293,39.275,39.275,0,0,1-5.259-7.242c-1.508-2.846-1.887-5.212-1.127-7.034a2.45,2.45,0,0,1,2.177-1.729c1.345-.054,2.912,1.037,4.935,3.435a63.132,63.132,0,0,1,4.972,7.063c3.149,5.045,5.8,10.179,5.829,10.23a1,1,0,0,1-1.777.917c-.026-.051-2.648-5.121-5.754-10.1a61.143,61.143,0,0,0-4.8-6.826c-2.22-2.63-3.156-2.73-3.323-2.723s-.318.276-.412.5c-.974,2.335,1.171,6.661,6.04,12.182a91.344,91.344,0,0,0,8.212,8.091,1,1,0,0,1-.647,1.763Z" transform="translate(-18 38)" fill="#5bb3b3" />
            <path d="M400.066,190.406a1,1,0,0,1-.767-.357,91.741,91.741,0,0,1-6.9-9.593,39.275,39.275,0,0,1-3.963-8.025c-1.006-3.059-.981-5.456.075-7.123a2.451,2.451,0,0,1,2.438-1.337c1.334.173,2.7,1.513,4.286,4.218a63.122,63.122,0,0,1,3.71,7.8c2.253,5.5,4,11.011,4.021,11.066a1,1,0,0,1-1.907.6c-.017-.054-1.746-5.494-3.97-10.923a61.133,61.133,0,0,0-3.582-7.538c-1.745-2.967-2.652-3.223-2.816-3.244s-.361.218-.491.424c-1.353,2.135.029,6.755,3.89,13.009a91.469,91.469,0,0,0,6.742,9.376,1,1,0,0,1-.766,1.642Z" transform="translate(-18 38)" fill="#5bb3b3" />
            <path d="M419.2,210.9a46.387,46.387,0,0,1-4.888-.284,83.741,83.741,0,0,1-11.278-2.068,1,1,0,0,1,.514-1.933,83.294,83.294,0,0,0,11,2.015c7,.745,11.5-.064,12.675-2.277.283-.535.158-.709.1-.783-.148-.205-.881-.9-4.122-1.15a55.1,55.1,0,0,0-7.978.115c-5.565.407-10.879,1.266-10.932,1.275a1,1,0,0,1-.321-1.974c.054-.009,5.456-.882,11.108-1.3a57.025,57.025,0,0,1,8.28-.114c3.014.236,4.79.865,5.589,1.977a2.579,2.579,0,0,1,.039,2.885c-.935,1.769-2.971,2.9-6.052,3.365A25.312,25.312,0,0,1,419.2,210.9Z" transform="translate(-18 38)" fill="#5bb3b3" />
            <path d="M424.418,196.417a46.386,46.386,0,0,1-4.888-.284,83.741,83.741,0,0,1-11.278-2.068,1,1,0,0,1,.514-1.933,83.294,83.294,0,0,0,11,2.015c7,.745,11.5-.064,12.674-2.277.283-.535.158-.709.1-.783-.147-.205-.88-.9-4.117-1.15a55.017,55.017,0,0,0-7.971.114c-5.566.406-10.891,1.267-10.945,1.276a1,1,0,0,1-.321-1.974c.054-.009,5.456-.882,11.108-1.3a57.022,57.022,0,0,1,8.28-.114c3.014.236,4.79.865,5.589,1.977a2.579,2.579,0,0,1,.039,2.885c-.935,1.769-2.971,2.9-6.052,3.365A25.312,25.312,0,0,1,424.418,196.417Z" transform="translate(-18 38)" fill="#5bb3b3" />
            <path d="M406.017,174.309a1,1,0,0,1-.762-.352,72.928,72.928,0,0,1-5.562-7.618,31.109,31.109,0,0,1-3.206-6.4c-.831-2.488-.8-4.447.083-5.824a2.16,2.16,0,0,1,2.151-1.147c1.133.148,2.272,1.241,3.583,3.439a49.907,49.907,0,0,1,2.994,6.2c1.813,4.363,3.222,8.728,3.236,8.772a1,1,0,0,1-1.9.612c-.014-.044-1.433-4.44-3.246-8.778-3.266-7.815-4.787-8.24-4.919-8.262a.786.786,0,0,0-.213.245c-.534.83-.488,2.251.132,4.109a29.178,29.178,0,0,0,3,5.969,72.15,72.15,0,0,0,5.391,7.384,1,1,0,0,1-.761,1.648Z" transform="translate(-18 38)" fill="#5bb3b3" />
            <path d="M427.094,179.58a38.012,38.012,0,0,1-3.947-.226,68.407,68.407,0,0,1-9.09-1.642,1,1,0,1,1,.507-1.935,67.644,67.644,0,0,0,8.812,1.59,26.64,26.64,0,0,0,6.462.034c1.875-.279,3.062-.862,3.529-1.733.027-.05.159-.306.1-.387-.1-.139-1.206-1.339-9.526-.743-4.471.32-8.756,1-8.8,1.009a1,1,0,0,1-.317-1.975c.044-.007,4.4-.7,8.96-1.029a46.476,46.476,0,0,1,6.686-.087c2.485.195,3.954.724,4.624,1.664a2.248,2.248,0,0,1,.032,2.493c-.783,1.46-2.468,2.39-5.007,2.767A20.827,20.827,0,0,1,427.094,179.58Z" transform="translate(-18 38)" fill="#5bb3b3" />
            <path d="M411.455,158.666a1,1,0,0,1-.762-.352,49.666,49.666,0,0,1-3.788-5.189c-2.54-4.051-3.23-6.868-2.109-8.611a1.769,1.769,0,0,1,1.768-.922c.884.116,1.7.881,2.658,2.48a34.057,34.057,0,0,1,2.045,4.234c1.231,2.962,2.158,5.835,2.2,5.956a4.665,4.665,0,0,0-1.362,2.165A1,1,0,0,1,411.455,158.666Zm-5.023-12.991c-.525,1,.277,3.373,2.167,6.388.891,1.421,1.861,2.736,2.572,3.654-.368-1.068-.967-2.739-1.663-4.431C407.8,147.12,406.8,145.979,406.432,145.675Z" transform="translate(-18 38)" fill="#5bb3b3" />
            <path d="M415.548,150.82a1,1,0,0,1-1-.942,46.111,46.111,0,0,1,.077-5.743c.352-4.3,1.373-6.675,3.121-7.257a1.7,1.7,0,0,1,1.8.361c.653.657,1.141,2.045-.185,7.367-.687,2.755-1.541,5.28-1.577,5.386a10.11,10.11,0,0,0-2.182.825Zm2.628-11.926c-.412.324-1.231,1.459-1.554,5.4-.092,1.126-.122,2.236-.125,3.158.265-.872.58-1.963.867-3.092C418.257,140.851,418.253,139.424,418.176,138.894Z" transform="translate(-18 38)" fill="#5bb3b3" />
            <path d="M362.658,241.972a6.726,6.726,0,0,1-.687-.028,1,1,0,0,1,.216-1.988h0a15.141,15.141,0,0,0,5.477-.87,28.25,28.25,0,0,0,6.027-2.79,42.209,42.209,0,0,0,7.5-5.9c6.259-6.094,12.044-14.784,17.2-25.829,6.459-13.845,11.926-31.436,16.25-52.282a1,1,0,1,1,1.958.406c-4.382,21.126-9.939,38.949-16.515,52.975-5.287,11.276-11.248,20.151-17.718,26.379a43.667,43.667,0,0,1-7.881,6.106,29.854,29.854,0,0,1-6.436,2.909A18.679,18.679,0,0,1,362.658,241.972Z" transform="translate(-18 38)" fill="#5bb3b3" />
            <path d="M13.977-1A21.528,21.528,0,0,1,24.35,1.431c2.969,1.67,4.6,3.954,4.6,6.431s-1.635,4.761-4.6,6.431a21.528,21.528,0,0,1-10.373,2.431A21.528,21.528,0,0,1,3.6,14.293C.635,12.623-1,10.339-1,7.862S.635,3.1,3.6,1.431A21.528,21.528,0,0,1,13.977-1Zm0,15.724A19.514,19.514,0,0,0,23.37,12.55c2.311-1.3,3.584-2.965,3.584-4.688S25.681,4.474,23.37,3.174A19.514,19.514,0,0,0,13.977,1,19.514,19.514,0,0,0,4.584,3.174C2.273,4.474,1,6.139,1,7.862S2.273,11.25,4.584,12.55A19.514,19.514,0,0,0,13.977,14.724Z" transform="translate(316.128 182.446)" fill="#5bb3b3" />
            <path d="M341.117,145.446a1,1,0,0,1-.768-.359c-.167-.2-4.088-4.982-3.095-10.489.61-3.381,2.918-6.238,6.861-8.491a1,1,0,0,1,1.445.552l1.747,5.241a1,1,0,0,1-1.9.632l-1.349-4.047c-2.761,1.818-4.386,3.986-4.836,6.455-.834,4.58,2.627,8.825,2.662,8.867a1,1,0,0,1-.77,1.639Z" transform="translate(-18 38)" fill="#5bb3b3" />
            <path d="M342.864,175.147a1,1,0,0,1-1-1v-5.241a1,1,0,0,1,2,0v3.933c3.257-.989,5.273-2.491,6-4.473,1.192-3.253-1.438-6.919-1.465-6.956a1,1,0,0,1,1.613-1.182c.135.184,3.288,4.55,1.734,8.814-1.054,2.894-3.963,4.938-8.646,6.076A1,1,0,0,1,342.864,175.147Z" transform="translate(-18 38)" fill="#5bb3b3" />
            <path d="M353.613,174.362a1,1,0,0,1-.952-.693l-1.521-4.711a1,1,0,1,1,1.9-.614l1.127,3.492c2.847-1.891,4.352-3.915,4.476-6.028.2-3.459-3.373-6.211-3.41-6.239a1,1,0,0,1,1.2-1.6c.182.137,4.461,3.408,4.2,7.94-.175,3.075-2.37,5.872-6.525,8.312A1,1,0,0,1,353.613,174.362Z" transform="translate(-18 38)" fill="#5bb3b3" />
            <path d="M363.388,172.936h0a1,1,0,0,1-.784-.386l-3.22-4.135a1,1,0,1,1,1.578-1.229l2.416,3.1c1.965-2.786,2.632-5.212,1.983-7.224a6.557,6.557,0,0,0-3.084-3.516,10.8,10.8,0,0,0-2.341-1.064,1,1,0,1,1,.544-1.924c.219.062,5.39,1.57,6.784,5.89.946,2.931-.093,6.331-3.088,10.106A1,1,0,0,1,363.388,172.936Z" transform="translate(-18 38)" fill="#5bb3b3" />
            <path d="M371.763,166.778a1,1,0,0,1-.461-.113l-4.651-2.416a1,1,0,1,1,.922-1.775l3.49,1.813c.624-3.346.221-5.828-1.2-7.386-2.337-2.558-6.8-1.914-6.849-1.907a1,1,0,0,1-.306-1.977c.225-.035,5.554-.82,8.622,2.525,2.082,2.27,2.555,5.794,1.407,10.474a1,1,0,0,1-.971.762Z" transform="translate(-18 38)" fill="#5bb3b3" />
            <path d="M370.817,157.676a1,1,0,0,1-.242-1.97l5.9-1.475a6.978,6.978,0,0,0-3.883-4.2c-3.31-1.2-7.112,1.129-7.15,1.153a1,1,0,0,1-1.06-1.7c.188-.118,4.645-2.862,8.877-1.342,2.515.9,4.363,3.08,5.494,6.472a1,1,0,0,1-.706,1.286l-6.989,1.747A1,1,0,0,1,370.817,157.676Z" transform="translate(-18 38)" fill="#5bb3b3" />
            <path d="M336.85,171.059a16.9,16.9,0,0,1-5.924-1.261,1,1,0,0,1-.521-1.415l2.846-5.2a1,1,0,0,1,1.754.96l-2.282,4.168c3.309,1.075,5.866.992,7.61-.251a6.557,6.557,0,0,0,2.42-4,10.8,10.8,0,0,0,.308-2.553,1,1,0,0,1,2-.062c.007.228.13,5.612-3.567,8.245A7.807,7.807,0,0,1,336.85,171.059Z" transform="translate(-18 38)" fill="#5bb3b3" />
            <path d="M329.45,164.9c-2.789,0-5.723-1.387-8.746-4.139a1,1,0,0,1,.174-1.606l5-2.877a1,1,0,1,1,1,1.733l-3.771,2.171c2.717,2.18,5.258,3.054,7.567,2.6,3.884-.766,5.977-5.1,6-5.14a1,1,0,0,1,1.81.851c-.1.215-2.527,5.276-7.405,6.248A8.28,8.28,0,0,1,329.45,164.9Z" transform="translate(-18 38)" fill="#5bb3b3" />
            <path d="M326.67,158.044a7.34,7.34,0,0,1-2.8-.533c-2.85-1.166-4.78-4.152-5.735-8.875a1,1,0,0,1,1.019-1.2l5.237.2a1,1,0,1,1-.077,2l-3.93-.152c.861,3.293,2.283,5.365,4.235,6.168,3.2,1.318,6.972-1.168,7.009-1.193a1,1,0,0,1,1.119,1.658A12.1,12.1,0,0,1,326.67,158.044Z" transform="translate(-18 38)" fill="#5bb3b3" />
            <path d="M335.047,148.872a1,1,0,0,1-.54-.159c-.22-.141-5.392-3.529-6.094-9.08-.431-3.409.916-6.826,4-10.157a1,1,0,0,1,1.544.094l3.237,4.478a1,1,0,1,1-1.621,1.172l-2.5-3.458c-2.093,2.567-2.994,5.126-2.678,7.621.586,4.635,5.146,7.619,5.192,7.649a1,1,0,0,1-.542,1.841Z" transform="translate(-18 38)" fill="#5bb3b3" />
            <path d="M330.109,151.331l-.073,0c-.212-.015-5.207-.417-7.412-4.217-1.568-2.7-1.283-6.325.847-10.767a1,1,0,0,1,1.5-.367l4.417,3.32a1,1,0,1,1-1.2,1.6l-3.417-2.568c-1.371,3.281-1.512,5.895-.418,7.78a6.372,6.372,0,0,0,3.52,2.692,9.913,9.913,0,0,0,2.306.535,1,1,0,0,1-.071,2Z" transform="translate(-18 38)" fill="#5bb3b3" />
            <path d="M347.979,145a1,1,0,0,1-.889-.542c-.12-.232-2.906-5.752-.739-10.91,1.331-3.168,4.205-5.454,8.543-6.8a1,1,0,0,1,1.29.853l.565,5.5a1,1,0,1,1-1.99.2l-.436-4.244c-3.091,1.174-5.148,2.937-6.124,5.249-1.81,4.289.644,9.185.669,9.233a1,1,0,0,1-.89,1.456Z" transform="translate(-18 38)" fill="#5bb3b3" />
            <path d="M354.519,145.582a1,1,0,0,1-.98-.809c-.05-.257-1.185-6.335,2.336-10.684,2.162-2.671,5.561-4.064,10.1-4.141a1,1,0,0,1,1,1.179l-.991,5.435a1,1,0,0,1-1.968-.359l.765-4.2c-3.3.265-5.772,1.387-7.354,3.341-2.94,3.631-1.938,8.988-1.927,9.042a1,1,0,0,1-.983,1.192Z" transform="translate(-18 38)" fill="#5bb3b3" />
            <path d="M359.573,147.141a1,1,0,0,1-.994-1.118c.031-.26.817-6.392,5.5-9.45,2.878-1.878,6.54-2.16,10.884-.84a1,1,0,0,1,.59,1.43l-2.612,4.868a1,1,0,1,1-1.762-.946l2.017-3.759c-3.218-.759-5.909-.453-8.014.915-3.9,2.538-4.614,7.967-4.621,8.022A1,1,0,0,1,359.573,147.141Z" transform="translate(-18 38)" fill="#5bb3b3" />
            <path d="M374.977,149.7a1,1,0,0,1-.652-1.759l3.237-2.778c-2.732-1.872-5.357-2.557-7.817-2.035-4.57.97-7.164,5.762-7.19,5.811A1,1,0,0,1,360.79,148c.123-.231,3.068-5.667,8.541-6.828,3.361-.713,6.879.344,10.455,3.143a1,1,0,0,1,.035,1.546l-4.192,3.6A1,1,0,0,1,374.977,149.7Z" transform="translate(-18 38)" fill="#5bb3b3" />
            <path d="M12.152-1a18.939,18.939,0,0,1,9.081,2.117C23.858,2.584,25.3,4.6,25.3,6.793S23.858,11,21.233,12.469a18.939,18.939,0,0,1-9.081,2.117,18.939,18.939,0,0,1-9.081-2.117C.446,11-1,8.986-1,6.793S.446,2.584,3.071,1.117A18.939,18.939,0,0,1,12.152-1Zm0,13.586a16.926,16.926,0,0,0,8.1-1.863c1.965-1.1,3.047-2.494,3.047-3.931s-1.082-2.832-3.047-3.931A16.926,16.926,0,0,0,12.152,1a16.926,16.926,0,0,0-8.1,1.863C2.082,3.961,1,5.357,1,6.793s1.082,2.832,3.047,3.931A16.926,16.926,0,0,0,12.152,12.586Z" transform="translate(285.772 225.601)" fill="#5bb3b3" />
            <path d="M307.963,213.62a1,1,0,0,1-.322-.053c-4.321-1.468-6.858-3.676-7.54-6.56-1.141-4.822,3.451-9.546,3.647-9.745a1,1,0,0,1,1.424,1.4c-.039.04-4.014,4.143-3.123,7.885.477,2.007,2.312,3.633,5.457,4.84l1.507-2.688a1,1,0,0,1,1.745.978l-1.921,3.428A1,1,0,0,1,307.963,213.62Z" transform="translate(-18 38)" fill="#5bb3b3" />
            <path d="M317.283,187.971a1,1,0,0,1-.7-1.713c.013-.013,1.616-1.643,1.092-3.326a4.444,4.444,0,0,0-2.184-2.3,20.659,20.659,0,0,0-5.973-2.06v3.312a1,1,0,0,1-2,0v-4.529a1,1,0,0,1,1.181-.983,24.689,24.689,0,0,1,7.815,2.542,6.3,6.3,0,0,1,3.077,3.441c.874,2.849-1.5,5.229-1.605,5.329A1,1,0,0,1,317.283,187.971Z" transform="translate(-18 38)" fill="#5bb3b3" />
            <path d="M324.611,189.8a1,1,0,0,1-.857-1.515c.023-.039,2.351-4,1.1-6.71a4.758,4.758,0,0,0-3.454-2.394l-1.415,3.556a1,1,0,0,1-1.858-.74l1.726-4.336a1,1,0,0,1,1.1-.616c2.9.5,4.827,1.746,5.723,3.7a7.916,7.916,0,0,1,.023,5.75,14.458,14.458,0,0,1-1.231,2.818A1,1,0,0,1,324.611,189.8Z" transform="translate(-18 38)" fill="#5bb3b3" />
            <path d="M328.306,192.72a1,1,0,0,1-.208-1.978,15.226,15.226,0,0,0,2.992-1.059c1.31-.631,2.963-1.708,3.4-3.259a3.758,3.758,0,0,0-.276-2.556,11.254,11.254,0,0,0-2.279-3.2l-2.97,2.887a1,1,0,0,1-1.394-1.434l3.676-3.573a1,1,0,0,1,1.387-.006c3.22,3.073,4.492,5.909,3.779,8.429-.517,1.83-2.03,3.355-4.5,4.533a17,17,0,0,1-3.4,1.192A1,1,0,0,1,328.306,192.72Z" transform="translate(-18 38)" fill="#5bb3b3" />
            <path d="M335.369,198.284a13.786,13.786,0,0,1-6.4-1.879,1,1,0,1,1,1.043-1.706c.039.024,4.08,2.442,7.3,1.263a5.559,5.559,0,0,0,3.083-3.136l-4.972-1.236a1,1,0,1,1,.482-1.941l6.076,1.51a1,1,0,0,1,.707,1.288c-.934,2.785-2.515,4.6-4.7,5.4A7.649,7.649,0,0,1,335.369,198.284Z" transform="translate(-18 38)" fill="#5bb3b3" />
            <path d="M309.884,189.3h-.042a1,1,0,0,1-.958-1.04,6.563,6.563,0,0,0-2.272-4.955,7.218,7.218,0,0,0-3.836-1.368,18.187,18.187,0,0,0-5.813.575l2.4,3.314A1,1,0,0,1,297.737,187l-3.248-4.493a1,1,0,0,1,.533-1.547c5.744-1.657,10.065-1.392,12.842.788a8.493,8.493,0,0,1,3.019,6.6A1,1,0,0,1,309.884,189.3Z" transform="translate(-18 38)" fill="#5bb3b3" />
            <path d="M290.719,196.907a1,1,0,0,1-.98-1.2c.719-3.533,2.4-6.057,4.987-7.5,5.035-2.81,11.632-.442,11.91-.34a1,1,0,0,1-.689,1.877c-.059-.021-6.027-2.152-10.254.213a8.01,8.01,0,0,0-3.679,4.9l3.22-.124a1,1,0,1,1,.077,2l-4.554.176Z" transform="translate(-18 38)" fill="#5bb3b3" />
            <path d="M295.291,205.378a1,1,0,0,1-.844-.463c-1.526-2.395-1.855-4.575-.977-6.48.81-1.756,2.6-3.155,5.315-4.159a19.755,19.755,0,0,1,3.7-.967,1,1,0,1,1,.278,1.981,18.045,18.045,0,0,0-3.325.876c-1.5.559-3.44,1.551-4.157,3.11a4.212,4.212,0,0,0,.376,3.744l2.977-1.683a1,1,0,1,1,.984,1.741l-3.84,2.171A1,1,0,0,1,295.291,205.378Z" transform="translate(-18 38)" fill="#5bb3b3" />
            <path d="M319.6,213.143a1,1,0,0,1-.181-.016c-5.674-1.043-9.053-3-10.046-5.831-1.157-3.295,1.429-6.335,1.54-6.462a1,1,0,1,1,1.512,1.309c-.017.02-1.94,2.306-1.161,4.5.681,1.92,3.275,3.4,7.525,4.319l.446-2.583a1,1,0,0,1,1.971.341l-.621,3.594a1,1,0,0,1-.985.83Z" transform="translate(-18 38)" fill="#5bb3b3" />
            <path d="M331.476,211.022h-.01c-6.3-.064-10.528-1.531-12.556-4.359a6.942,6.942,0,0,1-1-5.868l1.9.623,0-.006a4.9,4.9,0,0,0,.742,4.11c1.457,2.006,4.654,3.186,9.3,3.447l-2.473-5.071a1,1,0,1,1,1.8-.877l3.2,6.562a1,1,0,0,1-.9,1.438Z" transform="translate(-18 38)" fill="#5bb3b3" />
            <path d="M334.145,205.608q-.514,0-1.028-.047c-5.573-.506-9.141-4.957-9.29-5.146a1,1,0,1,1,1.571-1.238c.03.038,3.209,3.975,7.918,4.394a11.283,11.283,0,0,0,8.018-2.774l-2.729-2.554a1,1,0,0,1,1.367-1.46l3.556,3.328a1,1,0,0,1-.022,1.481C340.473,204.26,337.329,205.608,334.145,205.608Z" transform="translate(-18 38)" fill="#5bb3b3" />
            <path d="M353.924,241.1a1,1,0,0,1-.93-1.367c2.052-5.207,3.426-11.969,4.083-20.1a172.7,172.7,0,0,0,.2-22.072,248.632,248.632,0,0,0-2.508-25.086,1,1,0,0,1,1.973-.325,250.708,250.708,0,0,1,2.531,25.291,174.766,174.766,0,0,1-.2,22.341c-.673,8.331-2.092,15.29-4.217,20.682A1,1,0,0,1,353.924,241.1Z" transform="translate(-18 38)" fill="#5bb3b3" />
            <path d="M331.941,242.932a1,1,0,0,1-.256-.033,17.713,17.713,0,0,1-9.281-6.265,32.649,32.649,0,0,1-5.145-9.556,53.458,53.458,0,0,1-2.8-12.548,1,1,0,0,1,1.994-.155h0a52.424,52.424,0,0,0,2.707,12.068,30.608,30.608,0,0,0,4.816,8.95,15.751,15.751,0,0,0,8.224,5.573,1,1,0,0,1-.255,1.967Z" transform="translate(-18 38)" fill="#5bb3b3" />
            <path d="M320.949,242.932a1,1,0,0,1-.211-.022,92.456,92.456,0,0,1-13.444-4.171,49.687,49.687,0,0,1-10.11-5.264c-3.407-2.4-5.593-5-6.5-7.714a1,1,0,0,1,.674-1.278c3.115-.89,6.96-.642,11.43.735a58.06,58.06,0,0,1,11.594,5.266,104.423,104.423,0,0,1,12.77,8.751,1,1,0,0,1-1.274,1.542h0a102.271,102.271,0,0,0-12.518-8.573,56.012,56.012,0,0,0-11.174-5.079,19.97,19.97,0,0,0-9.184-.971c2.338,4.8,9.343,8.449,15.008,10.717a92.229,92.229,0,0,0,13.145,4.083,1,1,0,0,1-.209,1.978Z" transform="translate(-17 38)" fill="#5bb3b3" />
            <path d="M288.582,242.932a1,1,0,0,1-.211-.022,92.456,92.456,0,0,1-13.444-4.171,49.687,49.687,0,0,1-10.11-5.264c-3.407-2.4-5.593-5-6.5-7.714a1,1,0,0,1,.674-1.278c3.115-.89,6.96-.642,11.43.735a58.06,58.06,0,0,1,11.594,5.266,104.423,104.423,0,0,1,12.77,8.751,1,1,0,0,1-1.274,1.542h0A102.271,102.271,0,0,0,281,232.2a56.012,56.012,0,0,0-11.174-5.079,19.97,19.97,0,0,0-9.184-.971c2.338,4.8,9.343,8.449,15.008,10.717a92.229,92.229,0,0,0,13.145,4.083,1,1,0,0,1-.209,1.978Z" transform="translate(-18 38)" fill="#5bb3b3" />
            <path d="M349.218,241.1a1,1,0,0,1-.78-.374,103.926,103.926,0,0,1-7.589-11.053,37.165,37.165,0,0,1-3.974-8.83c-.871-3.331-.44-5.74,1.281-7.162a1,1,0,0,1,.821-.212c3.45.645,6.877,4.227,10.186,10.647a68.345,68.345,0,0,1,3.881,9.213,1,1,0,1,1-1.9.616,67.607,67.607,0,0,0-3.768-8.935c-2.791-5.409-5.64-8.66-8.274-9.455-.774.95-.872,2.555-.29,4.782a35.265,35.265,0,0,0,3.767,8.329A101.61,101.61,0,0,0,350,239.474a1,1,0,0,1-.779,1.626Z" transform="translate(-18 38)" fill="#5bb3b3" />
            <path d="M430.3,166.787a32.558,32.558,0,0,1-3.381-.194,58.5,58.5,0,0,1-7.773-1.4,1,1,0,0,1,.329-1.965,1,1,0,0,1,.342-1.853c.037-.006,3.761-.6,7.653-.878a39.772,39.772,0,0,1,5.724-.074c2.166.17,3.453.64,4.052,1.481a2.057,2.057,0,0,1,.037,2.281c-.691,1.288-2.164,2.107-4.378,2.435A17.91,17.91,0,0,1,430.3,166.787Zm-10.242-3.432a57.586,57.586,0,0,0,7.09,1.251c4.595.481,7.646-.019,8.372-1.372a.767.767,0,0,0,.079-.194c-.144-.144-1.313-1.026-7.922-.558-3.825.271-7.507.857-7.544.863Z" transform="translate(-18 38)" fill="#5bb3b3" />
            <path d="M419.665,157.352a1,1,0,0,1-.378-1.926,1,1,0,0,1-.591-1.779c.03-.024,3.029-2.427,6.318-4.637,6.258-4.206,8.228-4.177,9.245-3.681a2.019,2.019,0,0,1,1.09,2c-.019,1.459-.929,2.9-2.7,4.3a25.443,25.443,0,0,1-5.254,3,59.137,59.137,0,0,1-7.459,2.691A1,1,0,0,1,419.665,157.352ZM433.2,147.106a6.169,6.169,0,0,0-2.392.783,39.839,39.839,0,0,0-4.719,2.808c-3.2,2.156-6.112,4.486-6.141,4.509l-.047.036a58.235,58.235,0,0,0,6.694-2.453c4.272-1.907,6.734-3.906,6.754-5.485a.922.922,0,0,0-.014-.189A.811.811,0,0,0,433.2,147.106Z" transform="translate(-18 38)" fill="#5bb3b3" />
        </g>
        <path d="M155.722,1H0A1,1,0,0,1-1,0,1,1,0,0,1,0-1H155.722a1,1,0,0,1,1,1A1,1,0,0,1,155.722,1Z" transform="translate(137.598 283.204)" fill="#5bb3b3" />
        <path d="M84.9,1H0A1,1,0,0,1-1,0,1,1,0,0,1,0-1H84.9a1,1,0,0,1,1,1A1,1,0,0,1,84.9,1Z" transform="translate(137.598 266.385)" fill="#5bb3b3" />
        <g transform="translate(-5.989 -2.413)">
            <path d="M19.123-1A20.117,20.117,0,0,1,33.352,33.352,20.123,20.123,0,1,1,11.29.582,20,20,0,0,1,19.123-1Zm0,38.246A18.123,18.123,0,0,0,31.938,6.308a18.123,18.123,0,0,0-25.63,25.63A18,18,0,0,0,19.123,37.246Z" transform="translate(339.976 24.707)" fill="#5bb3b3" />
            <path d="M0,9.662a1,1,0,0,1-1-1V0A1,1,0,0,1,0-1,1,1,0,0,1,1,0V8.662A1,1,0,0,1,0,9.662Z" transform="translate(359.099 11.262)" fill="#5bb3b3" />
            <path d="M0,9.662a1,1,0,0,1-1-1V0A1,1,0,0,1,0-1,1,1,0,0,1,1,0V8.662A1,1,0,0,1,0,9.662Z" transform="translate(359.099 68.674)" fill="#5bb3b3" />
            <path d="M6.125,7.125a1,1,0,0,1-.707-.293L-.707.707a1,1,0,0,1,0-1.414,1,1,0,0,1,1.414,0L6.832,5.418a1,1,0,0,1-.707,1.707Z" transform="translate(335.739 20.938)" fill="#5bb3b3" />
            <path d="M6.125,7.125a1,1,0,0,1-.707-.293L-.707.707a1,1,0,0,1,0-1.414,1,1,0,0,1,1.414,0L6.832,5.418a1,1,0,0,1-.707,1.707Z" transform="translate(376.335 61.535)" fill="#5bb3b3" />
            <path d="M8.662,1.03h0L0,1A1,1,0,0,1-1,0,1,1,0,0,1,0-1l8.662.03a1,1,0,0,1,0,2Z" transform="translate(326.062 44.185)" fill="#5bb3b3" />
            <path d="M0,7.1a1,1,0,0,1-.71-.3,1,1,0,0,1,0-1.414L5.441-.71a1,1,0,0,1,1.414,0,1,1,0,0,1,0,1.414L.7,6.814A1,1,0,0,1,0,7.1Z" transform="translate(376.395 21.019)" fill="#5bb3b3" />
            <path d="M0,7.1a1,1,0,0,1-.71-.3,1,1,0,0,1,0-1.414L5.441-.71a1,1,0,0,1,1.414,0,1,1,0,0,1,0,1.414L.7,6.814A1,1,0,0,1,0,7.1Z" transform="translate(335.658 61.475)" fill="#5bb3b3" />
            <path d="M0,9.017a1,1,0,0,1-.378-.075,1,1,0,0,1-.547-1.3L2.356-.379a1,1,0,0,1,1.3-.547,1,1,0,0,1,.547,1.3L.925,8.4A1,1,0,0,1,0,9.017Z" transform="translate(368.331 13.723)" fill="#5bb3b3" />
            <path d="M0,9.017a1,1,0,0,1-.378-.075,1,1,0,0,1-.547-1.3L2.356-.379a1,1,0,0,1,1.3-.547,1,1,0,0,1,.547,1.3L.925,8.4A1,1,0,0,1,0,9.017Z" transform="translate(346.586 66.858)" fill="#5bb3b3" />
            <path d="M3.349,8.989a1,1,0,0,1-.923-.614L-.922.387A1,1,0,0,1-.387-.922,1,1,0,0,1,.922-.387L4.271,7.6a1,1,0,0,1-.922,1.387Z" transform="translate(346.327 13.831)" fill="#5bb3b3" />
            <path d="M3.349,8.989a1,1,0,0,1-.923-.614L-.922.387A1,1,0,0,1-.387-.922,1,1,0,0,1,.922-.387L4.271,7.6a1,1,0,0,1-.922,1.387Z" transform="translate(368.523 66.779)" fill="#5bb3b3" />
            <path d="M8,4.309a1,1,0,0,1-.382-.076L-.382.924A1,1,0,0,1-.924-.382,1,1,0,0,1,.382-.924L8.387,2.385A1,1,0,0,1,8,4.309Z" transform="translate(381.627 53.609)" fill="#5bb3b3" />
            <path d="M8.006,4.309a1,1,0,0,1-.382-.076L-.382.924A1,1,0,0,1-.924-.382,1,1,0,0,1,.382-.924L8.388,2.385a1,1,0,0,1-.382,1.924Z" transform="translate(328.566 31.68)" fill="#5bb3b3" />
            <path d="M0,4.321A1,1,0,0,1-.924,3.7,1,1,0,0,1-.383,2.4l8-3.321a1,1,0,0,1,1.307.54A1,1,0,0,1,8.383.924l-8,3.321A1,1,0,0,1,0,4.321Z" transform="translate(381.612 31.632)" fill="#5bb3b3" />
            <path d="M0,4.321A1,1,0,0,1-.924,3.7,1,1,0,0,1-.383,2.4l8-3.321a1,1,0,0,1,1.307.54A1,1,0,0,1,8.383.924l-8,3.321A1,1,0,0,1,0,4.321Z" transform="translate(328.587 53.645)" fill="#5bb3b3" />
            <path d="M8.662,1.03h0L0,1A1,1,0,0,1-1,0,1,1,0,0,1,0-1l8.662.03a1,1,0,0,1,0,2Z" transform="translate(383.475 44.384)" fill="#5bb3b3" />
        </g>
        <path d="M167.909,87.209A83.955,83.955,0,1,1,83.955,3.254a83.954,83.954,0,0,1,83.955,83.955" transform="translate(116.045 72.791)" fill="#ffd964" />
        <path d="M114.178,5.336c0-1.636-4.908,4.907-4.908,4.907a23.5,23.5,0,0,0-4.907,3.272c-1.636,1.636-1.636,8.178-1.636,8.178H97.82c-3.272,0,0,6.544,0,6.544s-1.636,3.271-3.272,0-1.636-3.272-3.271-3.272-4.907,4.908-4.907,4.908c-1.984,1.932-1.213,3.733-.768,4.937,3.874.691-3.348,3.9-3.93,4.949-.619,5.568-8.993,11.438-16.321,11.272-8.566-.253-3.812,2.166-11.125,3.1-3.317.183-7.037,4.885-10.287,2.143-4.494-.469-9.756,5.193-15.975,8.36-4.726.131-4.42,5.593-6.573,6.4-.854.917-2.112.389-1-.714-.235-.378-1.126-2.725.1-4.318-6.6,1.989-.746,11.08-4.628,14.595C12.511,84.969,14.65,91.446,17.1,95.448c1.75,2.859,5.339,3.824.567,6.4-2-1.084-2.582,1.852-1.636,3.272,3.272,4.907,6.514,11.511,7.712,17.263,3.539,8.923,7.608,20.413,9.384,28.728-.467.719.958,2.9-.627,2.392,1.289,2.208-1.026.3.342-.935-1.628,3.951,1.61,11.355-5.771,8.162-.665,4.5-.055,6.481,4.358,7.236,3,2.1,5.4,4.125,7.864,4.3-3.315.806,12.349,1.128,11.774,1.165-.481-.348-1.654-.186-.253-.668,3.3.442,4.643-2.987,7.831-4.1-1.029-.9,2.723.022,3.019.178.033-.886.511-.609.837-.221.218-.054.034-1.765.935-.731.807-6.946,21.153-3.7,24.474-3.717,2.946-1.456,6.044.886,9.074-.558,1.01-1.637,4.256-7.354,7.379-7.782,6.157-.844,6.859-2.533,11.451-4.908,11.451,1.637,22.9-4.907,22.9-4.907l1.636-121.046s-3.053-.838-1.527-4.508,1.71-9.144,1.633-10.766a25.2,25.2,0,0,0-4.729.011s-1.92.541-4.319-3.23a34.09,34.09,0,0,0-4.83-4.239C119.347-.869,114.178,6.972,114.178,5.336ZM32.51,150.3c.346.289,0-.9-.1-.567C32.408,149.9,32.5,150.123,32.51,150.3Z" transform="translate(118.112 72.535)" fill="#a0d1a0" />
        <path d="M123.119-.5h0a10.726,10.726,0,0,1,4.246.9,2,2,0,0,1,.313.169,31.792,31.792,0,0,1,3.135,2.53A13.02,13.02,0,0,1,133.1,5.4c1.127,1.772,2.03,2.267,2.334,2.324q.057-.008.114-.014c.061-.006,1.523-.138,3.018-.138a13.773,13.773,0,0,1,2.224.146A2,2,0,0,1,142.453,9.6c.081,1.709-.073,7.515-1.785,11.629a2.122,2.122,0,0,0-.216,1.437.881.881,0,0,0,.454.38,1.879,1.879,0,0,1,1.443,1.95l-1.636,121.046a2,2,0,0,1-1.007,1.709,43.712,43.712,0,0,1-6.082,2.726,41.9,41.9,0,0,1-14.008,2.708,29.378,29.378,0,0,1-3.43-.2c-1,.541-1.793,1.041-2.565,1.527a19.017,19.017,0,0,1-8.987,3.3c-.258.035-1.229.31-2.919,2.366a35.152,35.152,0,0,0-2.771,4.06c-.1.161-.184.3-.259.425a2,2,0,0,1-.842.755,7.287,7.287,0,0,1-3.2.687,17.036,17.036,0,0,1-2.515-.238,13.7,13.7,0,0,0-1.906-.194,3.073,3.073,0,0,0-1.423.292,2,2,0,0,1-.876.207h-.037c-.669,0-1.736-.093-3.212-.222-2.515-.22-5.959-.521-9.348-.521a26.788,26.788,0,0,0-7.387.8,5.589,5.589,0,0,0-1.977.965,1.368,1.368,0,0,0-.536.93,2,2,0,0,1-1.26,1.632,2.052,2.052,0,0,1-1.182.81,2,2,0,0,1-.4.057,2,2,0,0,1-1.7.064c-.227-.075-.75-.2-1.223-.3a2,2,0,0,1-.353.164,8.729,8.729,0,0,0-2.631,1.761,9.311,9.311,0,0,1-4.017,2.36,2.035,2.035,0,0,1-1.853.747c-.2-.009-.649-.025-1.116-.041-1.617-.057-4.324-.152-6.682-.3-1.351-.084-2.378-.171-3.138-.266a10.153,10.153,0,0,1-1.167-.2,3.231,3.231,0,0,1-.655-.231,2.255,2.255,0,0,1-.615-.442,21.312,21.312,0,0,1-5.8-3.366c-.326-.235-.66-.475-1-.716-1.73-.342-3.93-1.075-5.05-3.15-.978-1.814-.815-4.083-.493-6.265a2,2,0,0,1,2.773-1.544,5.856,5.856,0,0,0,2.123.614h.029a3.084,3.084,0,0,0,.151-.695c.072-.562.086-1.258.1-1.995a25.305,25.305,0,0,1,.162-2.781,3.2,3.2,0,0,1,.6-2.437q0-.01,0-.02a2.925,2.925,0,0,1-.45-2.607,229.854,229.854,0,0,0-8.7-25.855,2,2,0,0,1-.1-.33,41.287,41.287,0,0,0-2.938-8.522,59.358,59.358,0,0,0-4.48-8.039,5.033,5.033,0,0,1-.266-4.9,3.119,3.119,0,0,1,2.761-1.717,3.273,3.273,0,0,1,.579.052c.161-.1.287-.193.384-.268-.167-.191-.38-.414-.556-.6a13.632,13.632,0,0,1-1.875-2.3,22.866,22.866,0,0,1-3.064-8.019,11.593,11.593,0,0,1,1.949-9.094,2,2,0,0,1,.244-.265c.987-.894.852-2.968.709-5.163a16.626,16.626,0,0,1,.229-5.4,6.154,6.154,0,0,1,4.455-4.46,2,2,0,0,1,2.559,1.647,7.932,7.932,0,0,1,.869-1.118,6.2,6.2,0,0,1,4.073-1.955,58.076,58.076,0,0,0,5.769-3.668c3.527-2.442,6.859-4.749,10.217-4.749a7.174,7.174,0,0,1,.741.038,2,2,0,0,1,1.082.46,1.387,1.387,0,0,0,.964.385,8.489,8.489,0,0,0,3.235-1.282,11.642,11.642,0,0,1,4.609-1.71c2.67-.346,3.192-.815,3.744-1.31,1.184-1.063,2.337-1.815,6.4-1.815.381,0,.793.006,1.224.019l.253,0A17.019,17.019,0,0,0,75,45.822c2.707-1.911,4.457-4.26,4.682-6.284a2,2,0,0,1,.238-.748c.408-.736,1.142-1.232,2.632-2.2.346-.224.833-.539,1.28-.85a2,2,0,0,1-.107-.24l-.047-.126a7.6,7.6,0,0,1-.6-2.9,5.681,5.681,0,0,1,1.744-3.879c.272-.4.99-1.42,1.852-2.455,1.853-2.225,3.23-3.174,4.6-3.174a3.819,3.819,0,0,1,3.05,1l.076.078a4.428,4.428,0,0,1,.518-2.82,3.263,3.263,0,0,1,2.9-1.524H100.8c.032-.515.078-1.094.145-1.7.332-2.986.969-4.86,2-5.9a23.249,23.249,0,0,1,5-3.428c.373-.487,1.071-1.386,1.83-2.3,2.136-2.563,3.085-3.3,4.229-3.3a2.174,2.174,0,0,1,.4.036C116.091,1.79,119.119-.5,123.119-.5Zm2.5,4.5a6.7,6.7,0,0,0-2.5-.5h0c-2.729,0-5.016,1.793-6.382,2.865a3.923,3.923,0,0,1-2.419,1.2,2.17,2.17,0,0,1-.245-.014c-.346.365-.84.92-1.523,1.756-.9,1.105-1.673,2.128-1.681,2.138a2,2,0,0,1-.705.589,21.046,21.046,0,0,0-4.382,2.893c-.032.04-.564.739-.872,3.6-.18,1.674-.182,3.151-.182,3.165a2,2,0,0,1-2,2H98.384a8.43,8.43,0,0,0,.459,1.808,18.069,18.069,0,0,0,.765,1.841,2,2,0,0,1,0,1.789c-.214.427-1.386,2.559-3.485,2.559-.951,0-2.306-.444-3.364-2.559-.471-.942-.889-1.778-1.134-2.166H91.5a9.563,9.563,0,0,0-2.007,2.046c-.823,1.022-1.45,1.961-1.457,1.971a2,2,0,0,1-.269.324,1.674,1.674,0,0,0-.6,1.9q.139.065.266.139a2.563,2.563,0,0,1,1.26,1.7c.336,1.665-1.089,2.831-1.625,3.27a27.034,27.034,0,0,1-2.338,1.632c-.365.237-.864.559-1.19.793-.61,2.95-2.841,5.953-6.229,8.345a20.854,20.854,0,0,1-11.652,3.945c-.118,0-.233,0-.351,0h-.014c-.395-.012-.769-.018-1.113-.018a10.613,10.613,0,0,0-2.962.286,1.864,1.864,0,0,0-.766.506c-1.1.987-2.308,1.842-5.972,2.308q-.071.009-.142.013a8.981,8.981,0,0,0-3.007,1.24,11.161,11.161,0,0,1-5.137,1.763,5.283,5.283,0,0,1-2.943-.88c-2.091.093-4.859,2.009-7.784,4.034a57.6,57.6,0,0,1-6.593,4.132,2,2,0,0,1-.852.217c-1.54.043-2.075.859-3.012,2.852a6.4,6.4,0,0,1-2.487,3.231,3.25,3.25,0,0,1-2.068.789,2.609,2.609,0,0,1-1.259-.318q.014.245.031.506a22.121,22.121,0,0,1,.01,4.173,6.584,6.584,0,0,1-1.871,4.07c-2.48,3.408-.785,8.829,1.443,12.469a10.136,10.136,0,0,0,1.355,1.628c.944.988,2.12,2.217,1.848,3.939-.276,1.749-1.958,2.861-3.392,3.634a2,2,0,0,1-.987.239.551.551,0,0,0,.067.163A55.319,55.319,0,0,1,25.665,121.8c2.172,5.487,7.291,18.927,9.418,28.89a2,2,0,0,1-.034.97c.018.1.043.215.062.305a3.258,3.258,0,0,1-.207,2.528,2.06,2.06,0,0,1-.611,1.431c-.012.324-.019.652-.026.976a12.976,12.976,0,0,1-.447,3.845,3.863,3.863,0,0,1-3.834,2.761,6.268,6.268,0,0,1-1.143-.112,3.216,3.216,0,0,0,.261,1.408c.108.2.436.809,2.66,1.19a2,2,0,0,1,.81.333c.482.338.946.671,1.394.994,2.12,1.525,3.951,2.842,5.465,2.951a2,2,0,0,1,1.3.611c.65.069,1.673.154,3.27.244,1.78.1,3.7.173,5.093.223a2.711,2.711,0,0,1,.316-.181,6.6,6.6,0,0,1,.747-.3,2,2,0,0,1,.917-.091,2.331,2.331,0,0,0,.308.021c.847,0,1.54-.556,2.692-1.538a15.1,15.1,0,0,1,2.706-1.965,2.27,2.27,0,0,1,2.069-1.031,10.8,10.8,0,0,1,2,.278,2.216,2.216,0,0,1,.414-.186,2.213,2.213,0,0,1,.772-.6c.688-1.273,2.067-2.555,4.731-3.364a30.118,30.118,0,0,1,8.549-.968c3.563,0,7.108.31,9.7.536,1.015.089,1.919.168,2.495.2a7.223,7.223,0,0,1,2.705-.488,16.87,16.87,0,0,1,2.486.236,13.847,13.847,0,0,0,1.935.2,3.818,3.818,0,0,0,.992-.117,37.549,37.549,0,0,1,2.994-4.35c1.9-2.305,3.683-3.544,5.466-3.788a15.162,15.162,0,0,0,7.4-2.72c.932-.587,1.989-1.252,3.4-1.983a2,2,0,0,1,1.2-.2,24.972,24.972,0,0,0,3.52.243c7.55,0,14.582-3.126,17.113-4.387l1.6-118.639a4.618,4.618,0,0,1-1.468-1.722,5.588,5.588,0,0,1,.111-4.743,26.227,26.227,0,0,0,1.473-8.116c-1.068.005-2.128.087-2.445.113a3.328,3.328,0,0,1-.548.043,4.9,4.9,0,0,1-2.629-.843,10.57,10.57,0,0,1-3.056-3.261A37.257,37.257,0,0,0,125.623,4Z" transform="translate(118.112 72.535)" fill="#313e58" />
        <path d="M20.329,0H16.9l-3.27-11.5q-.211-.751-.527-2.169t-.382-1.971q-.132.844-.428,2.188t-.494,2L8.609,0H5.181L2.689-9.65.158-19.274H3.375L6.13-8.042A48.545,48.545,0,0,1,7.053-3.27q.145-1.121.435-2.5t.527-2.241l3.138-11.259h3.125L17.495-7.963A42.287,42.287,0,0,1,18.47-3.27a34.408,34.408,0,0,1,.949-4.8l2.742-11.206h3.19ZM40.038,0,38.113-5.353h-7.37L28.858,0H25.536l7.211-19.354h3.428L43.386,0ZM37.282-8.068l-1.806-5.247q-.2-.527-.547-1.661t-.481-1.661a29.546,29.546,0,0,1-1.042,3.546l-1.74,5.023Z" transform="translate(182.187 176.541)" fill="#313e58" />
        <rect width="400" height="29.148" transform="translate(0 290.852)" fill="#bfe2e2" />
        <path d="M956.591,2687.011a31.55,31.55,0,0,1-12.031-5.145,25.267,25.267,0,0,1-10.34.049c-12.475-2.522-20.552-13.683-18.039-24.929s14.665-18.318,27.14-15.794q1.2.241,2.337.587a31.255,31.255,0,0,1,21.787-3.335,30.827,30.827,0,0,1,15.635,8.17,17.9,17.9,0,0,1,12.705-2.032c8.875,1.794,14.677,9.49,12.956,17.186s-10.311,12.482-19.186,10.688q-.4-.08-.792-.177c-4.007,9.333-14.218,15.388-25.647,15.389A32.9,32.9,0,0,1,956.591,2687.011Z" transform="translate(-715.723 -2632.452)" fill="#c0e1e2" />
        <path d="M963.116,2688.168h0a33.479,33.479,0,0,1-6.624-.667,31.878,31.878,0,0,1-12.042-5.1,25.523,25.523,0,0,1-5.154.525,26.177,26.177,0,0,1-5.175-.52,25.126,25.126,0,0,1-9.093-3.766,22.867,22.867,0,0,1-6.481-6.539,19.677,19.677,0,0,1,.1-22.038,21.411,21.411,0,0,1,5.131-5.273,24.691,24.691,0,0,1,14.466-4.608,26.153,26.153,0,0,1,5.176.521c.733.148,1.464.328,2.175.537a31,31,0,0,1,15.325-3.952,33.51,33.51,0,0,1,6.624.667,32.631,32.631,0,0,1,8.8,3.125,30.006,30.006,0,0,1,6.81,4.911,17.986,17.986,0,0,1,8.882-2.285,19.446,19.446,0,0,1,3.845.387,17.68,17.68,0,0,1,11.374,7.457,13.476,13.476,0,0,1,1.971,10.328,13.248,13.248,0,0,1-2.068,4.691,14.731,14.731,0,0,1-3.619,3.617,17.866,17.866,0,0,1-10.244,3.147,19.44,19.44,0,0,1-3.843-.387c-.132-.026-.267-.055-.4-.085a24.857,24.857,0,0,1-10.074,11.041A30.878,30.878,0,0,1,963.116,2688.168Zm-18.446-6.837.18.127a30.862,30.862,0,0,0,11.841,5.063,32.5,32.5,0,0,0,6.426.647,29.879,29.879,0,0,0,15.35-4.124,23.792,23.792,0,0,0,9.838-10.962l.167-.39.412.1c.26.064.519.122.77.173a18.435,18.435,0,0,0,3.645.367,16.857,16.857,0,0,0,9.667-2.964,13.729,13.729,0,0,0,3.375-3.371,12.25,12.25,0,0,0,1.913-4.339,12.483,12.483,0,0,0-1.834-9.565,16.677,16.677,0,0,0-10.733-7.022,18.445,18.445,0,0,0-3.647-.367,16.931,16.931,0,0,0-8.7,2.338l-.333.2-.276-.273a28.935,28.935,0,0,0-6.848-5.006,31.633,31.633,0,0,0-8.534-3.029,32.51,32.51,0,0,0-6.426-.647,29.968,29.968,0,0,0-15.012,3.925l-.188.108-.208-.063c-.746-.225-1.517-.419-2.291-.575a25.155,25.155,0,0,0-4.978-.5,23.684,23.684,0,0,0-13.877,4.416,20.408,20.408,0,0,0-4.893,5.027,18.677,18.677,0,0,0-.089,20.932,21.872,21.872,0,0,0,6.2,6.254,24.131,24.131,0,0,0,8.733,3.616,25.2,25.2,0,0,0,4.976.5,24.506,24.506,0,0,0,5.159-.548Z" transform="translate(-715.723 -2632.452)" fill="rgba(0,0,0,0)" />
        <path d="M952.674,2640.036a18.965,18.965,0,0,0-7.61,3.626,14.382,14.382,0,0,0-6.54-.035,14.961,14.961,0,0,0-9.26,6.478,10.679,10.679,0,0,0-13.559,11.938,9.94,9.94,0,0,0,12.137,7.534,10.927,10.927,0,0,0,3.043-1.184,14.241,14.241,0,0,0,13.4,3.936,14.777,14.777,0,0,0,1.478-.414,18.028,18.028,0,0,0,13.781,2.351,18.935,18.935,0,0,0,9.89-5.759,10.339,10.339,0,0,0,8.036,1.432,10.522,10.522,0,0,0,8.2-12.113,9.938,9.938,0,0,0-12.136-7.533q-.253.056-.5.125a17.23,17.23,0,0,0-16.224-10.846A18.764,18.764,0,0,0,952.674,2640.036Z" transform="translate(-624.748 -2551.114)" fill="#c0e1e2" />
        <path d="M956.8,2639.073h0a18.235,18.235,0,0,1,10.15,3.04,17.146,17.146,0,0,1,6.375,7.714l.091-.021a11.288,11.288,0,0,1,2.478-.278,10.713,10.713,0,0,1,6.606,2.261,10.093,10.093,0,0,1,3.652,5.939,10.5,10.5,0,0,1-1.66,7.995,11.389,11.389,0,0,1-9.394,4.982,10.694,10.694,0,0,1-5.584-1.552,19.5,19.5,0,0,1-14.1,6.075,18.273,18.273,0,0,1-9.723-2.765c-.428.136-.864.255-1.3.353a15.132,15.132,0,0,1-3.32.372,14.708,14.708,0,0,1-10.273-4.176,11.447,11.447,0,0,1-2.845,1.052,11.3,11.3,0,0,1-2.478.278,10.715,10.715,0,0,1-6.607-2.261,10.093,10.093,0,0,1-3.653-5.939,10.5,10.5,0,0,1,1.661-7.994,11.392,11.392,0,0,1,9.4-4.982,10.86,10.86,0,0,1,2.779.36,15.393,15.393,0,0,1,9.364-6.385,15.157,15.157,0,0,1,3.321-.372,14.757,14.757,0,0,1,3.21.353,19.513,19.513,0,0,1,11.857-4.048Zm15.92,11.948-.163-.423a16.143,16.143,0,0,0-6.162-7.653,17.239,17.239,0,0,0-9.6-2.873,18.512,18.512,0,0,0-11.427,3.981l-.191.151-.236-.057a13.752,13.752,0,0,0-3.212-.38,14.15,14.15,0,0,0-3.1.347,14.411,14.411,0,0,0-8.95,6.262l-.2.315-.359-.108a9.847,9.847,0,0,0-2.849-.418,10.3,10.3,0,0,0-2.26.254,10.031,10.031,0,0,0-7.816,11.526,8.971,8.971,0,0,0,3.291,5.351,9.71,9.71,0,0,0,5.988,2.047,10.3,10.3,0,0,0,2.258-.253,10.428,10.428,0,0,0,2.9-1.13l.337-.193.271.278a13.708,13.708,0,0,0,9.827,4.145,14.129,14.129,0,0,0,3.1-.348,14.322,14.322,0,0,0,1.428-.4l.228-.077.2.131a17.264,17.264,0,0,0,9.383,2.734,18.494,18.494,0,0,0,13.647-6.057l.289-.319.359.239a9.68,9.68,0,0,0,5.391,1.614,10.291,10.291,0,0,0,2.258-.253,10.031,10.031,0,0,0,7.815-11.527,8.97,8.97,0,0,0-3.29-5.35,9.708,9.708,0,0,0-5.987-2.047,10.3,10.3,0,0,0-2.259.254c-.156.035-.317.075-.478.119Z" transform="translate(-624.748 -2551.114)" fill="rgba(0,0,0,0)" />
    </g>
</svg>