<svg xmlns="http://www.w3.org/2000/svg" xmlns:xlink="http://www.w3.org/1999/xlink" width="400" height="320" viewBox="0 0 400 320">
    <defs>
        <clipPath >
            <rect width="69.454" height="69.454" fill="none" stroke="#5bb3b3" stroke-width="2" />
        </clipPath>
        <clipPath >
            <rect width="44.483" height="24.831" fill="#313e58" />
        </clipPath>
        <clipPath>
            <rect width="400" height="320" />
        </clipPath>
    </defs>
    <g clip-path="url(#d)">
        <rect width="400" height="320" fill="transparent" />
        <path d="M0,319.9a1,1,0,0,1-1-1V0A1,1,0,0,1,0-1,1,1,0,0,1,1,0V318.9A1,1,0,0,1,0,319.9Z" transform="translate(310.785 1.104)" fill="#5bb3b3" />
        <path d="M0,319.9a1,1,0,0,1-1-1V0A1,1,0,0,1,0-1,1,1,0,0,1,1,0V318.9A1,1,0,0,1,0,319.9Z" transform="translate(43 1.104)" fill="#5bb3b3" />
        <path d="M0,319.9a1,1,0,0,1-1-1V0A1,1,0,0,1,0-1,1,1,0,0,1,1,0V318.9A1,1,0,0,1,0,319.9Z" transform="translate(299.919 1.104)" fill="#5bb3b3" />
        <path d="M0,319.9a1,1,0,0,1-1-1V0A1,1,0,0,1,0-1,1,1,0,0,1,1,0V318.9A1,1,0,0,1,0,319.9Z" transform="translate(32.133 1.104)" fill="#5bb3b3" />
        <path d="M88.1,1H0A1,1,0,0,1-1,0,1,1,0,0,1,0-1H88.1a1,1,0,0,1,1,1A1,1,0,0,1,88.1,1Z" transform="translate(311.898 115.564)" fill="#5bb3b3" />
        <path d="M87.806,1H0A1,1,0,0,1-1,0,1,1,0,0,1,0-1H87.806a1,1,0,0,1,1,1A1,1,0,0,1,87.806,1Z" transform="translate(312.194 101.453)" fill="#5bb3b3" />
        <path d="M87.867,1H0A1,1,0,0,1-1,0,1,1,0,0,1,0-1H87.867a1,1,0,0,1,1,1A1,1,0,0,1,87.867,1Z" transform="translate(311.898 227.301)" fill="#5bb3b3" />
        <path d="M87.454,1H0A1,1,0,0,1-1,0,1,1,0,0,1,0-1H87.454a1,1,0,0,1,1,1A1,1,0,0,1,87.454,1Z" transform="translate(312.194 213.189)" fill="#5bb3b3" />
        <path d="M362.761,96.765h-19.1a1,1,0,0,1-1-1V23.689a1,1,0,0,1,.719-.96,39.277,39.277,0,0,1,9.86-1.4,38.554,38.554,0,0,1,9.807,1.4,1,1,0,0,1,.715.959V95.765A1,1,0,0,1,362.761,96.765Zm-18.1-2h17.1V24.457a36.989,36.989,0,0,0-8.523-1.128,37.639,37.639,0,0,0-8.578,1.13Z" transform="translate(-22.609 -0.442)" fill="#5bb3b3" />
        <path d="M362.761,96.765h-19.1a1,1,0,0,1-1-1V23.689a1,1,0,0,1,.719-.96,39.277,39.277,0,0,1,9.86-1.4,38.554,38.554,0,0,1,9.807,1.4,1,1,0,0,1,.715.959V95.765A1,1,0,0,1,362.761,96.765Zm-18.1-2h17.1V24.457a36.989,36.989,0,0,0-8.523-1.128,37.639,37.639,0,0,0-8.578,1.13Z" transform="translate(-22.609 219.235)" fill="#5bb3b3" />
        <path d="M384.318,96.765h-19.1a1,1,0,0,1-1-1V23.689a1,1,0,0,1,.719-.96,39.28,39.28,0,0,1,9.861-1.4,38.551,38.551,0,0,1,9.806,1.4,1,1,0,0,1,.715.959V95.765A1,1,0,0,1,384.318,96.765Zm-18.1-2h17.1V24.457a36.984,36.984,0,0,0-8.522-1.128,37.553,37.553,0,0,0-8.58,1.129Z" transform="translate(-17.501 -0.442)" fill="#5bb3b3" />
        <path d="M384.318,96.765h-19.1a1,1,0,0,1-1-1V23.689a1,1,0,0,1,.719-.96,39.28,39.28,0,0,1,9.861-1.4,38.551,38.551,0,0,1,9.806,1.4,1,1,0,0,1,.715.959V95.765A1,1,0,0,1,384.318,96.765Zm-18.1-2h17.1V24.457a36.984,36.984,0,0,0-8.522-1.128,37.553,37.553,0,0,0-8.58,1.129Z" transform="translate(-17.501 219.235)" fill="#5bb3b3" />
        <path d="M384.318,96.765h-19.1a1,1,0,0,1-1-1V23.689a1,1,0,0,1,.719-.96,39.28,39.28,0,0,1,9.861-1.4,38.551,38.551,0,0,1,9.806,1.4,1,1,0,0,1,.715.959V95.765A1,1,0,0,1,384.318,96.765Zm-18.1-2h17.1V24.457a36.984,36.984,0,0,0-8.522-1.128,37.553,37.553,0,0,0-8.58,1.129Z" transform="translate(8.642 219.235)" fill="#5bb3b3" />
        <path d="M10.834,1H0A1,1,0,0,1-1,0,1,1,0,0,1,0-1H10.834a1,1,0,0,1,1,1A1,1,0,0,1,10.834,1Z" transform="translate(352.159 37.979)" fill="#5bb3b3" />
        <path d="M10.834,1H0A1,1,0,0,1-1,0,1,1,0,0,1,0-1H10.834a1,1,0,0,1,1,1A1,1,0,0,1,10.834,1Z" transform="translate(352.159 258.656)" fill="#5bb3b3" />
        <path d="M10.834,1H0A1,1,0,0,1-1,0,1,1,0,0,1,0-1H10.834a1,1,0,0,1,1,1A1,1,0,0,1,10.834,1Z" transform="translate(378.302 258.656)" fill="#5bb3b3" />
        <path d="M10.834,1H0A1,1,0,0,1-1,0,1,1,0,0,1,0-1H10.834a1,1,0,0,1,1,1A1,1,0,0,1,10.834,1Z" transform="translate(352.159 41.91)" fill="#5bb3b3" />
        <path d="M10.834,1H0A1,1,0,0,1-1,0,1,1,0,0,1,0-1H10.834a1,1,0,0,1,1,1A1,1,0,0,1,10.834,1Z" transform="translate(352.159 262.587)" fill="#5bb3b3" />
        <path d="M10.834,1H0A1,1,0,0,1-1,0,1,1,0,0,1,0-1H10.834a1,1,0,0,1,1,1A1,1,0,0,1,10.834,1Z" transform="translate(378.302 262.587)" fill="#5bb3b3" />
        <path d="M10.834,1H0A1,1,0,0,1-1,0,1,1,0,0,1,0-1H10.834a1,1,0,0,1,1,1A1,1,0,0,1,10.834,1Z" transform="translate(325.275 37.258)" fill="#5bb3b3" />
        <path d="M10.834,1H0A1,1,0,0,1-1,0,1,1,0,0,1,0-1H10.834a1,1,0,0,1,1,1A1,1,0,0,1,10.834,1Z" transform="translate(325.275 257.935)" fill="#5bb3b3" />
        <path d="M10.834,1H0A1,1,0,0,1-1,0,1,1,0,0,1,0-1H10.834a1,1,0,0,1,1,1A1,1,0,0,1,10.834,1Z" transform="translate(325.275 41.189)" fill="#5bb3b3" />
        <path d="M10.834,1H0A1,1,0,0,1-1,0,1,1,0,0,1,0-1H10.834a1,1,0,0,1,1,1A1,1,0,0,1,10.834,1Z" transform="translate(325.275 261.866)" fill="#5bb3b3" />
        <path d="M401.83,93.285H386.41a1,1,0,0,1-1-1V36.173a1,1,0,0,1,.728-.962,32.976,32.976,0,0,1,8-1.1,32.363,32.363,0,0,1,7.962,1.1,1,1,0,0,1,.725.961V92.285A1,1,0,0,1,401.83,93.285Zm-14.42-2h13.42V36.95a30.608,30.608,0,0,0-6.687-.836,31.061,31.061,0,0,0-6.732.837Z" transform="translate(-12.443 3.038)" fill="#5bb3b3" />
        <path d="M0,23.438a1,1,0,0,1-1-1V0A1,1,0,0,1,0-1,1,1,0,0,1,1,0V22.438A1,1,0,0,1,0,23.438Z" transform="translate(381.803 62.732)" fill="#5bb3b3" />
        <g transform="translate(60.867 13.671)">
            <g transform="translate(0 0)" clip-path="url(#a)">
                <path d="M25.854-1A26.861,26.861,0,0,1,36.307,50.6,26.861,26.861,0,0,1,15.4,1.111,26.687,26.687,0,0,1,25.854-1Zm0,51.708A24.861,24.861,0,0,0,35.528,2.953a24.861,24.861,0,0,0-19.348,45.8A24.7,24.7,0,0,0,25.854,50.708Z" transform="translate(8.873 8.873)" fill="#5bb3b3" />
                <path d="M32.9-1A33.911,33.911,0,0,1,46.1,64.14,33.911,33.911,0,0,1,19.706,1.665,33.691,33.691,0,0,1,32.9-1Zm0,65.8A31.911,31.911,0,0,0,45.32,3.507,31.911,31.911,0,0,0,20.485,62.3,31.7,31.7,0,0,0,32.9,64.8Z" transform="translate(1.825 1.825)" fill="#5bb3b3" />
                <path d="M30.6,40.33a1,1,0,0,1-.7-.282L18.433,28.925a1,1,0,0,1-.3-.718V8.119a1,1,0,0,1,2,0V27.784L31.3,38.612a1,1,0,0,1-.7,1.718Z" transform="translate(15.773 6.694)" fill="#5bb3b3" />
            </g>
        </g>
        <g transform="translate(2910.638 1525.694)">
            <path d="M24.615,65.88c0,9.582,4.635,17.423,10.3,17.423h17c5.663,0,10.3-7.841,10.3-17.423V35.706h-37.6Z" transform="translate(-2593.404 -1399.235)" fill="#c0e2e2" />
            <path d="M40.332,49.118a1,1,0,0,1-.967-.747,33.619,33.619,0,0,1,2.841-24.081c1.915-3.588,3.674-4.918,4.831-5.607,3.054-1.819,6.783-1.613,10.074-1.432l.264.015a50.025,50.025,0,0,0,13.1-.725,24.844,24.844,0,0,0,5.908-2.008,17.777,17.777,0,0,0,4.919-3.582,1,1,0,0,1,1.444,1.384,19.77,19.77,0,0,1-5.469,3.987A26.838,26.838,0,0,1,70.9,18.5a51.953,51.953,0,0,1-13.629.766L57,19.248c-3.152-.174-6.411-.354-8.941,1.153a11.732,11.732,0,0,0-4.09,4.831A31.6,31.6,0,0,0,41.3,47.865a1,1,0,0,1-.968,1.253Z" transform="translate(-2591.855 -1401.772)" fill="#c0e1e2" />
            <path d="M3.777,71.275a1,1,0,0,1-.084-2,9.384,9.384,0,0,0,5.329-2.412,14.611,14.611,0,0,0,3.673-5.074,39.9,39.9,0,0,0,2.487-10.351c.116-.783.236-1.592.365-2.387.691-4.275,1.824-9.137,4.977-12.789a22.993,22.993,0,0,1,4.927-4.084,17.069,17.069,0,0,1,4.059-2.065,11.756,11.756,0,0,1,6.744,0,16.365,16.365,0,0,1,5.954,3.186c3.408,2.835,5.785,6.772,7.883,10.245a1,1,0,1,1-1.712,1.034c-2.114-3.5-4.3-7.122-7.45-9.742a14.352,14.352,0,0,0-5.217-2.8,9.767,9.767,0,0,0-5.6-.021,15.03,15.03,0,0,0-3.572,1.835,21.14,21.14,0,0,0-4.5,3.715c-2.827,3.274-3.87,7.8-4.516,11.8-.126.782-.245,1.585-.361,2.362A41.393,41.393,0,0,1,14.523,62.6a16.621,16.621,0,0,1-4.186,5.77,11.364,11.364,0,0,1-6.474,2.9Q3.82,71.275,3.777,71.275Z" transform="translate(-2595.602 -1399.771)" fill="#c0e1e2" />
            <path d="M50.429,56.06a1,1,0,0,1-.936-.648,115.008,115.008,0,0,1-6.6-27.232,13.174,13.174,0,0,0-.8-3.5,2.9,2.9,0,0,0-1.816-1.85,5.4,5.4,0,0,0-1.305-.12c-.3,0-.6-.009-.918-.037a6.735,6.735,0,0,1-4.629-2.6,6.736,6.736,0,0,1-1.458-5.109,1,1,0,0,1,1.978.293,4.733,4.733,0,0,0,1.05,3.577,4.732,4.732,0,0,0,3.234,1.852c.244.022.5.026.774.03a7.068,7.068,0,0,1,1.807.192,4.819,4.819,0,0,1,3.12,2.986,15.011,15.011,0,0,1,.951,4.064,113.006,113.006,0,0,0,6.486,26.758,1,1,0,0,1-.936,1.353Z" transform="translate(-2592.531 -1401.407)" fill="#c0e1e2" />
            <path d="M41.57,4.374c3.474-.8,7.632,1.8,8.741,6.136s-4.3,11.26-4.3,11.26-8.062-3.481-9.171-7.82S38.1,5.171,41.57,4.374" transform="translate(-2592.144 -1402.554)" fill="#c0e2e2" />
            <path d="M27.137,6.812c2.046-1.342,5.343-.663,7.09,1.866s-.081,8.273-.081,8.273-6.02-.317-7.769-2.847-1.287-5.951.759-7.293" transform="translate(-2593.332 -1402.353)" fill="#c0e2e2" />
            <path d="M29.322,24.99c-.786-2.317.7-5.338,3.585-6.4S40.9,20.747,40.9,20.747s-1.818,5.748-4.7,6.807-6.083-.248-6.869-2.565" transform="translate(-2592.93 -1401.062)" fill="#c0e2e2" />
            <path d="M57.617,2.564c3.2.706,5.625,4.5,4.835,8.532s-8,7.65-8,7.65-5.318-6.062-4.529-10.1,4.5-6.79,7.692-6.083" transform="translate(-2590.744 -1402.741)" fill="#c0e2e2" />
            <path d="M67.612,2.542c3.05-.5,6.51,1.965,7.236,5.78s-4.323,9.515-4.323,9.515-6.792-3.446-7.518-7.261,1.555-7.53,4.605-8.034" transform="translate(-2589.37 -1402.739)" fill="#c0e2e2" />
            <path d="M81.147.07c2.617.509,4.673,3.545,4.113,6.847s-6.353,6.393-6.353,6.393-4.455-4.825-3.9-8.127S78.53-.438,81.147.07" transform="translate(-2588.095 -1403)" fill="#c0e2e2" />
            <path d="M16.969,18.664c2.829-2.169,7.69-1.537,10.5,1.951s.769,12.026.769,12.026-8.779.184-11.591-3.3-2.508-8.505.321-10.675" transform="translate(-2594.451 -1401.164)" fill="#c0e2e2" />
            <path d="M4.874,30.538c2.066-2.9,6.9-3.729,10.609-1.223s4.271,11.27,4.271,11.27-8.338,2.756-12.049.25-4.9-7.393-2.831-10.3" transform="translate(-2595.593 -1400.066)" fill="#c0e2e2" />
            <path d="M.948,47.055c.411-3.038,3.759-5.6,7.587-5.177s7.76,6.869,7.76,6.869-5.243,5.436-9.071,5.013S.537,50.093.948,47.055" transform="translate(-2595.904 -1398.589)" fill="#c0e2e2" />
            <path d="M.932,54.331c1.715-2.139,5.46-2.559,8.2-.472S11.913,62.7,11.913,62.7s-6.522,1.749-9.261-.338S-.783,56.47.932,54.331" transform="translate(-2596 -1397.465)" fill="#c0e2e2" />
        </g>
        <g transform="translate(-65.267 89.125)">
            <g transform="translate(15.808 -17.224) rotate(3)">
                <path d="M47.783,93.575s59.585-57.93,61.945-73.128C88.486,31.37,51.551,68.127,48.189,85.229c-1.01,5.937-.406,8.346-.406,8.346" transform="translate(51.746 22.25)" fill="#c0e2e2" />
                <path d="M107.134,0s.27,83.1-8.943,95.419C91.141,72.6,91.579,20.492,101.452,6.128,104.989,1.253,107.134,0,107.134,0" transform="translate(2.876 19.719)" fill="#c0e2e2" />
                <path d="M134.3,94.167s-15.57-79.588-33.247-87.906c-3.982,4.519,21.3,82.1,30.88,88.874" transform="translate(-32.421 20.494)" fill="#c0e2e2" />
                <path d="M148,77.73s-30.773-12.911-45.836-13.772C156.393,59.224,194.7,87.414,194.7,87.414s-11.836,5.81-46.7-9.684" transform="translate(-94.538 27.57)" fill="#c0e2e2" />
                <path d="M168.062,92.87s-37-67.7-66.28-80.481c8.626,8.967,50.391,78.912,66.28,80.481" transform="translate(-67.472 21.253)" fill="#c0e2e2" />
                <path d="M100.9,246.462a2.5,2.5,0,0,1-2.374-1.718c-3-9.087-5.724-23.426-8.109-42.619-1.9-15.271-3.59-33.664-5.03-54.669-2.45-35.736-3.332-67.091-3.34-67.4a2.5,2.5,0,0,1,5-.138c.009.312.888,31.58,3.332,67.217,1.434,20.91,3.117,39.208,5,54.385,2.345,18.866,5,32.883,7.895,41.662a2.5,2.5,0,0,1-2.375,3.283Z" transform="translate(15.045 29.899)" fill="#c0e1e2" />
            </g>
            <g transform="translate(11.437)">
                <path d="M202.227,130.273s-84.942,15.944-99.275,8.845c22.012-11.513,75.385-20.889,91.937-13.5,5.652,2.7,7.338,4.656,7.338,4.656" transform="translate(-102.952 34.943)" fill="#c0e2e2" />
                <path d="M104.291,86.291s70.481,50.017,86.47,49.565c-15.176-19.665-59.732-50.51-77.857-50.723-6.263.087-8.613,1.159-8.613,1.159" transform="translate(-92.99 30.257)" fill="#c0e2e2" />
                <path d="M158.052,139.545S99.726,78.628,103.246,58.618c6.226-.678,57.022,67.293,57.047,79.5" transform="translate(-61.176 26.974)" fill="#c0e2e2" />
                <path d="M133.232,140.883s-35.386-72.012-28.7-104.559c2.454,12.706,36.89,90.113,28.7,104.559" transform="translate(-36.04 24.216)" fill="#c0e2e2" />
                <path d="M92.085,94.216S99.545,60.322,107.838,47c-36.513,43.261-35.5,92.711-35.5,92.711s12.03-6.58,19.745-45.5" transform="translate(23.938 26.881)" fill="#c0e2e2" />
            </g>
            <path d="M113.6,239.857a2.5,2.5,0,0,1-2.48-2.206,495.787,495.787,0,0,0-9.8-56.692,273.509,273.509,0,0,0-10.944-35.778A137.316,137.316,0,0,0,81.6,126.506a44.154,44.154,0,0,0-3.591-5.466l0,.006,3.818-3.228c.242.286,6.012,7.224,13.2,25.538a278.477,278.477,0,0,1,11.152,36.439,500.775,500.775,0,0,1,9.907,57.269,2.5,2.5,0,0,1-2.486,2.794Z" transform="translate(23.681 36.224)" fill="#c0e1e2" />
            <g transform="translate(85.047 112.819)">
                <path d="M0,131.947s71.528,9.1,83.115,2.477c-18.9-8.5-63.812-13.684-77.233-6.716C1.308,130.234,0,131.947,0,131.947" transform="translate(33.218 -43.252)" fill="#c0e2e2" />
                <path d="M80.468,91.262S24.232,136.39,10.9,136.8c11.669-17.125,47.257-45.008,62.342-46.079,5.221-.236,7.23.541,7.23.541" transform="translate(23.62 -47.434)" fill="#c0e2e2" />
                <path d="M36.786,139.7S82.361,86.1,78.445,69.605c-5.219-.257-44.176,58.854-43.6,69.016" transform="translate(-1.506 -50.042)" fill="#c0e2e2" />
                <path d="M88.593,102.492S80.711,74.631,73.148,63.946c32.54,34.23,34.13,75.464,34.13,75.464s-10.343-4.887-18.685-36.919" transform="translate(-73.148 -50.743)" fill="#c0e2e2" />
                <path d="M56.033,140.69S81.956,78.973,74.79,52.2C73.371,62.9,48.5,129.062,56.033,140.69" transform="translate(-21.087 -52.197)" fill="#c0e2e2" />
            </g>
            <rect width="214.971" height="281.505" transform="translate(2.525)" fill="none" />
            <path d="M-3128.646-1534.677a151.429,151.429,0,0,1-6.566-33.3,110.817,110.817,0,0,1,.736-24.493c1.952-13.208,5.834-20.2,6-20.49l3.483,1.966-1.742-.983,1.744.979a36.063,36.063,0,0,0-2.091,4.916,75.674,75.674,0,0,0-3.472,14.444,107.141,107.141,0,0,0-.654,23.54,147.585,147.585,0,0,0,6.384,32.237Z" transform="translate(3253.701 1797.161)" fill="#bfe2e2" />
        </g>
        <g transform="translate(0 11.546)">
            <path d="M79.756,139.347c-.941,0-1.7-1.442-1.7-3.218V127.6c0-1.776.764-3.218,1.7-3.218s1.7,1.442,1.7,3.218v8.533c0,1.776-.764,3.218-1.7,3.218" transform="translate(118.796 88.839)" fill="#313e58" />
            <rect width="165" height="117" transform="translate(116 92.652)" fill="#ffd964" />
            <circle cx="25" cy="25" r="25" transform="translate(217 107.652)" fill="#e88a2d" />
            <rect width="81" height="85" transform="translate(126 107.652)" fill="#fff" />
            <path d="M174.983,122.771H5.8a5.8,5.8,0,0,1,0-11.606H174.983a5.8,5.8,0,0,1,0,11.606m-167.71-8.2Z" transform="translate(108.158 94.078)" fill="#7a8293" />
            <path d="M174.983,123.271H5.8a6.3,6.3,0,0,1,0-12.606H174.983a6.3,6.3,0,0,1,0,12.606ZM5.8,111.665a5.3,5.3,0,0,0,0,10.606H174.983a5.3,5.3,0,0,0,0-10.606Z" transform="translate(108.158 94.078)" fill="rgba(0,0,0,0)" />
            <path d="M.479,42.376a1.845,1.845,0,0,1,.46-2.842L53.515,5.427l-2.78-3.676L64.787,0,59.279,13.047,56.1,8.839,3.793,42.771a2.619,2.619,0,0,1-1.427.41A2.516,2.516,0,0,1,.479,42.376Z" transform="translate(131.604 113.807)" fill="#629d62" />
            <path d="M2.367,43.681A3,3,0,0,1,.1,42.707,2.305,2.305,0,0,1-.479,40.85,2.5,2.5,0,0,1,.667,39.115L52.792,5.3,49.814,1.363,65.585-.6,59.4,14.039,55.978,9.512,4.065,43.191A3.11,3.11,0,0,1,2.367,43.681ZM51.657,2.141l2.582,3.414L1.211,39.954a1.48,1.48,0,0,0-.7,1.031,1.32,1.32,0,0,0,.342,1.06,2.028,2.028,0,0,0,1.513.636,2.113,2.113,0,0,0,1.154-.33L56.215,8.167l2.941,3.888L63.99.6Z" transform="translate(131.604 113.807)" fill="rgba(0,0,0,0)" />
            <path d="M36.7,100.606H26.308a1.7,1.7,0,0,1-1.7-1.7V77.979a1.7,1.7,0,0,1,1.7-1.7H36.7a1.705,1.705,0,0,1,1.7,1.7V98.9a1.705,1.705,0,0,1-1.7,1.7" transform="translate(107.417 84.889)" fill="#a0d1a0" />
            <path d="M56.059,102.335H45.671a1.705,1.705,0,0,1-1.7-1.7V65.3a1.705,1.705,0,0,1,1.7-1.7H56.059a1.7,1.7,0,0,1,1.7,1.7V100.63a1.7,1.7,0,0,1-1.7,1.7" transform="translate(124.415 83.161)" fill="#85cb85" />
            <path d="M56.059,94.428H45.671a1.561,1.561,0,0,1-1.7-1.357V64.948a1.561,1.561,0,0,1,1.7-1.357H56.059a1.561,1.561,0,0,1,1.7,1.357V93.072" transform="translate(106.234 91.067)" fill="#a0d1a0" />
            <path d="M80.157,141.75a6.508,6.508,0,1,1,6.509-6.507,6.516,6.516,0,0,1-6.509,6.507m0-9.607a3.1,3.1,0,1,0,3.1,3.1,3.1,3.1,0,0,0-3.1-3.1" transform="translate(118.196 96.473)" fill="#313e58" />
            <path d="M172.766,14.326H8.02C3.6,14.326,0,11.113,0,7.163S3.6,0,8.02,0H172.766c4.422,0,8.02,3.213,8.02,7.164s-3.6,7.163-8.02,7.163" transform="translate(108.158 81.778)" fill="#7a8293" />
            <path d="M75.423,100.161H65.034a1.643,1.643,0,0,1-1.7-1.573V48.578A1.643,1.643,0,0,1,65.034,47H75.423a1.643,1.643,0,0,1,1.7,1.573v50.01a1.643,1.643,0,0,1-1.7,1.573" transform="translate(123.232 85.334)" fill="#629d62" />
            <g transform="translate(218.378 165.286)">
                <g transform="translate(0 0)" clip-path="url(#b)">
                    <path d="M10.17,11.567a13.528,13.528,0,0,0-1.917-.711,14.772,14.772,0,0,0-1.918-.435,3.86,3.86,0,0,1-1.552-.555A1.371,1.371,0,0,1,4.1,8.681a1.35,1.35,0,0,1,.569-1.148,2.239,2.239,0,0,1,1.362-.4,2.467,2.467,0,0,1,1.356.35,4.551,4.551,0,0,1,.4.308c.145.125.34.274.561.431a1.318,1.318,0,0,0,.8.235A1.758,1.758,0,0,0,10.529,7.5a3.093,3.093,0,0,0,.661-1.378c0-.167-.118-.475-.681-.994l-.1-.074-.277-.248a5.622,5.622,0,0,0-.9-.5,6.6,6.6,0,0,0-1.462-.487.169.169,0,0,1-.133-.164V2.008A7.818,7.818,0,0,0,7.576.916,1.044,1.044,0,0,0,7.177.3,1.648,1.648,0,0,0,6.1,0c-.766,0-1.237.2-1.4.6a4.093,4.093,0,0,0-.164,1.377V3.625A.169.169,0,0,1,4.4,3.79a4.972,4.972,0,0,0-2.99,1.762A4.836,4.836,0,0,0,.324,8.623a4.714,4.714,0,0,0,.792,2.812,4.344,4.344,0,0,0,1.925,1.559,16.679,16.679,0,0,0,2.328.744A12.424,12.424,0,0,1,7.4,14.38a1.265,1.265,0,0,1,.924,1.153c0,.894-.407,1.96-2.342,1.96A2.8,2.8,0,0,1,3.79,16.314C2.868,15.4,2.351,15.2,2.082,15.2a1.626,1.626,0,0,0-1.134.511C.165,16.474,0,16.914,0,17.149a2.252,2.252,0,0,0,.582,1.279l.383.5a5.785,5.785,0,0,0,1.31,1.05,6.57,6.57,0,0,0,2.121.858A.168.168,0,0,1,4.528,21v1.823a4.026,4.026,0,0,0,.193,1.437.722.722,0,0,0,.422.436,2.574,2.574,0,0,0,.924.134,2.565,2.565,0,0,0,.922-.134.87.87,0,0,0,.469-.475,3.665,3.665,0,0,0,.175-1.369V20.972a.168.168,0,0,1,.13-.164,6.208,6.208,0,0,0,3.121-1.776,4.948,4.948,0,0,0,1.277-3.559,4.981,4.981,0,0,0-.581-2.517,3.269,3.269,0,0,0-1.41-1.39" transform="translate(0 0)" fill="#313e58" />
                    <path d="M24.393,11.567a13.528,13.528,0,0,0-1.917-.711,14.771,14.771,0,0,0-1.918-.435,3.865,3.865,0,0,1-1.551-.555,1.369,1.369,0,0,1-.679-1.185A1.35,1.35,0,0,1,18.9,7.534a2.242,2.242,0,0,1,1.364-.4,2.463,2.463,0,0,1,1.354.35,4.551,4.551,0,0,1,.4.308c.147.125.341.274.561.431a1.33,1.33,0,0,0,.8.235A1.756,1.756,0,0,0,24.752,7.5a3.093,3.093,0,0,0,.661-1.378c0-.167-.118-.475-.681-.994l-.1-.074-.277-.248a5.622,5.622,0,0,0-.9-.5,6.6,6.6,0,0,0-1.462-.487.169.169,0,0,1-.133-.164V2.008A7.818,7.818,0,0,0,21.8.916,1.044,1.044,0,0,0,21.4.3,1.648,1.648,0,0,0,20.318,0c-.766,0-1.237.2-1.4.6a4.118,4.118,0,0,0-.164,1.377V3.625a.169.169,0,0,1-.133.165,4.979,4.979,0,0,0-2.99,1.762,4.836,4.836,0,0,0-1.082,3.071,4.722,4.722,0,0,0,.792,2.812,4.352,4.352,0,0,0,1.925,1.559,16.728,16.728,0,0,0,2.328.744,12.388,12.388,0,0,1,2.027.641,1.265,1.265,0,0,1,.924,1.153c0,.894-.406,1.96-2.342,1.96a2.8,2.8,0,0,1-2.188-1.179C17.092,15.4,16.574,15.2,16.3,15.2a1.626,1.626,0,0,0-1.134.511c-.783.761-.948,1.2-.948,1.436a2.252,2.252,0,0,0,.582,1.279l.384.5a5.747,5.747,0,0,0,1.309,1.05,6.57,6.57,0,0,0,2.121.858.168.168,0,0,1,.132.164v1.823a4.03,4.03,0,0,0,.193,1.437.722.722,0,0,0,.422.436,3.246,3.246,0,0,0,1.846,0,.871.871,0,0,0,.468-.475,3.665,3.665,0,0,0,.175-1.369V20.972a.168.168,0,0,1,.13-.164,6.216,6.216,0,0,0,3.123-1.776,4.953,4.953,0,0,0,1.276-3.559,4.981,4.981,0,0,0-.581-2.517,3.269,3.269,0,0,0-1.41-1.39" transform="translate(1.938 0)" fill="#313e58" />
                    <path d="M40.027,12.957h0a3.271,3.271,0,0,0-1.411-1.39,13.6,13.6,0,0,0-1.916-.711,14.772,14.772,0,0,0-1.918-.435,3.877,3.877,0,0,1-1.552-.555,1.371,1.371,0,0,1-.678-1.185,1.348,1.348,0,0,1,.569-1.148,2.238,2.238,0,0,1,1.362-.4,2.467,2.467,0,0,1,1.356.349,4.726,4.726,0,0,1,.4.308c.145.125.34.274.561.432a1.335,1.335,0,0,0,.8.234A1.752,1.752,0,0,0,38.975,7.5a3.088,3.088,0,0,0,.662-1.378c0-.167-.118-.475-.681-.994l-.1-.074-.277-.248a5.622,5.622,0,0,0-.9-.5,6.608,6.608,0,0,0-1.464-.487.168.168,0,0,1-.132-.164V2.008A7.817,7.817,0,0,0,36.023.916a1.047,1.047,0,0,0-.4-.618A1.655,1.655,0,0,0,34.542,0c-.766,0-1.237.2-1.4.6a4.073,4.073,0,0,0-.165,1.376V3.626a.167.167,0,0,1-.133.164,4.99,4.99,0,0,0-2.99,1.762,4.844,4.844,0,0,0-1.081,3.071,4.722,4.722,0,0,0,.791,2.812,4.353,4.353,0,0,0,1.926,1.559,16.632,16.632,0,0,0,2.328.744,12.424,12.424,0,0,1,2.027.641,1.265,1.265,0,0,1,.924,1.153c0,.894-.407,1.96-2.342,1.96a2.8,2.8,0,0,1-2.19-1.179C31.315,15.4,30.8,15.2,30.529,15.2a1.626,1.626,0,0,0-1.134.511c-.783.762-.948,1.2-.948,1.436a2.252,2.252,0,0,0,.582,1.279l.383.5a5.759,5.759,0,0,0,1.31,1.05,6.56,6.56,0,0,0,2.121.858.168.168,0,0,1,.131.164v1.823a4.025,4.025,0,0,0,.194,1.437.719.719,0,0,0,.422.436,3.242,3.242,0,0,0,1.845,0,.87.87,0,0,0,.469-.475,3.665,3.665,0,0,0,.175-1.369V20.972a.168.168,0,0,1,.13-.164,6.208,6.208,0,0,0,3.121-1.776,4.948,4.948,0,0,0,1.277-3.559,4.981,4.981,0,0,0-.581-2.517" transform="translate(3.877 0)" fill="#313e58" />
                </g>
            </g>
            <path d="M0,26.184V0A25,25,0,0,1,25,25a24.88,24.88,0,0,1-4.345,14.089Z" transform="translate(242.24 107.335)" fill="#b1a8e3" />
        </g>
    </g>
</svg>