<svg xmlns="http://www.w3.org/2000/svg" xmlns:xlink="http://www.w3.org/1999/xlink" width="400" height="320" viewBox="0 0 400 320">
    <defs>
        <clipPath>
            <rect width="400" height="320" />
        </clipPath>
    </defs>
    <g clip-path="url(#b)">
        <rect width="400" height="320" fill="transparent" />
        <path d="M358.965,150.61h12.214c17.607,0,31.881-10.705,31.881-23.91,0-11.584-10.985-21.239-25.566-23.439-.629-12.68-11.761-22.79-25.444-22.79-14.085,0-25.5,10.705-25.5,23.912,0,.135.02.266.022.4-11.267,3.686-19.15,12.106-19.15,21.916,0,13.205,14.274,23.91,31.881,23.91h8.694" transform="translate(-8.559 -71.503)" fill="#bfe2e2" />
        <path d="M339.185,201.927C335.538,182.2,318.5,180.4,318.5,180.4s5.712-14.545-10.917-17.62c.658-5.557-4.871-8.278-10.539-10.48s-12.133,1.672-12.133,1.672l100.9,164.041s29.006-37.6,3.872-55.445c6.8-19.694-17.394-34.078-27.644-36.834.587-12.63-2.547-17.641-22.858-23.808" transform="translate(-8.627 432.517) rotate(-59)" fill="#bfe2e2" />
        <path d="M151.064,171.947s-16.222,1.3-25.769,13.312c-8.144-2.866-14.952,6.74-14.952,6.74s-16.055-5.633-21.485,5.826c0,0-8.875-5.053-14.721,3.325a36.236,36.236,0,0,0-25.23,5.775s-20.155-4.963-26.389,8.441C11.3,208.709,2.706,212.395,0,213.918v34.1L165.771,174.8" transform="matrix(0.914, 0.407, -0.407, 0.914, 75.744, 24.481)" fill="#bfe2e2" />
        <path d="M-26.028-3188.067H-218.682s-33.273-15.806-45.008-13.076-25.653,7.726-41.949,11-23.236,2.081-23.236,2.081h-99.2l1,34.346H-26.028Z" transform="translate(426.528 3473.677)" fill="#bfe2e2" />
        <path d="M963.647,2640.172a24.568,24.568,0,0,0-9.857,4.7,18.634,18.634,0,0,0-8.472-.045,19.379,19.379,0,0,0-11.994,8.391,13.611,13.611,0,0,0-6.946-.225c-7.273,1.638-12.026,8.663-10.617,15.689a12.875,12.875,0,0,0,15.721,9.758,14.145,14.145,0,0,0,3.941-1.534,18.446,18.446,0,0,0,17.352,5.1,19.258,19.258,0,0,0,1.915-.536,23.352,23.352,0,0,0,17.851,3.045,24.525,24.525,0,0,0,12.811-7.459,13.391,13.391,0,0,0,10.409,1.855c7.272-1.639,12.026-8.663,10.616-15.69a12.873,12.873,0,0,0-15.72-9.757q-.328.073-.649.162a22.319,22.319,0,0,0-21.015-14.049A24.314,24.314,0,0,0,963.647,2640.172Z" transform="translate(-907.797 -2606.852)" fill="#c0e1e2" />
        <path d="M968.993,2639.073h0a23.474,23.474,0,0,1,13.065,3.914,22.06,22.06,0,0,1,8.252,10.041l.238-.055a14.483,14.483,0,0,1,3.177-.356,13.727,13.727,0,0,1,8.465,2.9,12.842,12.842,0,0,1,4.677,7.606,13.453,13.453,0,0,1-2.128,10.244,14.606,14.606,0,0,1-12.046,6.388,13.7,13.7,0,0,1-7.258-2.051,25.1,25.1,0,0,1-18.239,7.911,23.518,23.518,0,0,1-12.573-3.6c-.571.184-1.154.344-1.736.475a19.452,19.452,0,0,1-4.269.478,18.9,18.9,0,0,1-13.281-5.444,14.655,14.655,0,0,1-3.743,1.4,14.488,14.488,0,0,1-3.177.356,13.731,13.731,0,0,1-8.466-2.9,12.844,12.844,0,0,1-4.678-7.606,13.452,13.452,0,0,1,2.129-10.244,14.61,14.61,0,0,1,12.048-6.388,13.922,13.922,0,0,1,3.663.488,20.013,20.013,0,0,1,5.008-5.133,19.66,19.66,0,0,1,11.358-3.641,18.973,18.973,0,0,1,4.194.469,25.128,25.128,0,0,1,15.323-5.255Zm20.711,15.151-.163-.422a21.057,21.057,0,0,0-8.038-9.983,22.477,22.477,0,0,0-12.51-3.746,24.127,24.127,0,0,0-14.893,5.189l-.191.151-.236-.057a17.971,17.971,0,0,0-4.2-.5,18.66,18.66,0,0,0-10.779,3.456,19.037,19.037,0,0,0-4.954,5.172l-.2.315-.359-.108a12.892,12.892,0,0,0-3.732-.548,13.485,13.485,0,0,0-2.959.332c-7,1.576-11.591,8.352-10.237,15.1a11.843,11.843,0,0,0,4.316,7.017,12.726,12.726,0,0,0,7.848,2.683,13.493,13.493,0,0,0,2.957-.332,13.639,13.639,0,0,0,3.8-1.479l.337-.193.271.278a17.9,17.9,0,0,0,12.835,5.414,18.446,18.446,0,0,0,4.049-.454,18.839,18.839,0,0,0,1.865-.522l.228-.077.2.131a22.51,22.51,0,0,0,12.234,3.565,24.1,24.1,0,0,0,17.786-7.894l.289-.319.359.239a12.684,12.684,0,0,0,7.064,2.115,13.471,13.471,0,0,0,2.958-.332c7-1.577,11.59-8.353,10.236-15.1a11.84,11.84,0,0,0-4.315-7.017,12.722,12.722,0,0,0-7.846-2.683,13.487,13.487,0,0,0-2.958.332c-.206.046-.417.1-.626.156Z" transform="translate(-907.797 -2606.852)" fill="rgba(0,0,0,0)" />
        <path d="M946.214,2640a17.553,17.553,0,0,1,7.042,3.356,13.314,13.314,0,0,1,6.052-.032,13.844,13.844,0,0,1,8.568,5.994,9.881,9.881,0,0,1,12.546,11.047,9.2,9.2,0,0,1-11.23,6.971,10.108,10.108,0,0,1-2.815-1.1,13.177,13.177,0,0,1-12.4,3.642,13.756,13.756,0,0,1-1.368-.383,16.682,16.682,0,0,1-12.752,2.175,17.52,17.52,0,0,1-9.151-5.329,9.566,9.566,0,0,1-7.436,1.325,9.736,9.736,0,0,1-7.584-11.208,9.2,9.2,0,0,1,11.23-6.97c.156.035.311.074.463.115a15.944,15.944,0,0,1,15.012-10.036A17.382,17.382,0,0,1,946.214,2640Z" transform="translate(-948.056 -2552.939)" fill="#c0e1e2" />
        <path d="M942.395,2639.073h0a18.091,18.091,0,0,1,10.98,3.743,13.707,13.707,0,0,1,2.962-.324,14.053,14.053,0,0,1,3.08.344,14.279,14.279,0,0,1,8.672,5.9,10.085,10.085,0,0,1,2.555-.327,10.58,10.58,0,0,1,8.725,4.626,9.752,9.752,0,0,1,1.543,7.426,9.377,9.377,0,0,1-3.393,5.518,9.952,9.952,0,0,1-6.136,2.1,10.49,10.49,0,0,1-2.3-.258,10.621,10.621,0,0,1-2.618-.964,13.647,13.647,0,0,1-9.512,3.856,14.042,14.042,0,0,1-3.081-.345c-.4-.09-.8-.2-1.189-.322a16.945,16.945,0,0,1-9,2.555,18.075,18.075,0,0,1-13.054-5.612,9.932,9.932,0,0,1-5.161,1.426,10.576,10.576,0,0,1-8.723-4.626,9.751,9.751,0,0,1-1.542-7.426,9.377,9.377,0,0,1,3.393-5.517,9.95,9.95,0,0,1,6.135-2.1,10.486,10.486,0,0,1,2.3.258l.052.012a15.9,15.9,0,0,1,5.9-7.125A16.911,16.911,0,0,1,942.395,2639.073Zm10.741,4.827-.191-.151a17.09,17.09,0,0,0-10.55-3.676,15.913,15.913,0,0,0-8.858,2.652,14.9,14.9,0,0,0-5.688,7.064l-.163.422-.436-.119c-.149-.041-.3-.078-.441-.11a9.488,9.488,0,0,0-2.083-.234,8.946,8.946,0,0,0-5.517,1.886,8.263,8.263,0,0,0-3.031,4.928,9.244,9.244,0,0,0,7.2,10.622,9.488,9.488,0,0,0,2.082.234,8.918,8.918,0,0,0,4.967-1.487l.359-.239.289.319a17.073,17.073,0,0,0,12.6,5.593,15.937,15.937,0,0,0,8.662-2.524l.2-.131.228.077a13.324,13.324,0,0,0,1.318.369,13.037,13.037,0,0,0,2.861.321,12.647,12.647,0,0,0,9.066-3.824l.271-.278.337.193a9.6,9.6,0,0,0,2.676,1.042,9.495,9.495,0,0,0,2.081.233,8.948,8.948,0,0,0,5.518-1.886,8.264,8.264,0,0,0,3.031-4.929,9.244,9.244,0,0,0-7.2-10.621,9.488,9.488,0,0,0-2.083-.234,9.069,9.069,0,0,0-2.625.385l-.359.108-.2-.315a13.3,13.3,0,0,0-8.259-5.779,13.059,13.059,0,0,0-2.86-.32,12.7,12.7,0,0,0-2.965.351Z" transform="translate(-948.056 -2552.939)" fill="rgba(0,0,0,0)" />
        <g transform="translate(-100.702 -1.92)">
            <path d="M19.783-1a20.777,20.777,0,0,1,14.7,35.479A20.783,20.783,0,1,1,11.693.634,20.654,20.654,0,0,1,19.783-1Zm0,39.566a18.788,18.788,0,0,0,7.311-36.09A18.788,18.788,0,0,0,12.472,37.09,18.664,18.664,0,0,0,19.783,38.566Z" transform="translate(220.854 56.397) rotate(-67.5)" fill="#5bb3b3" />
            <path d="M0,9.961a1,1,0,0,1-1-1V0A1,1,0,0,1,0-1,1,1,0,0,1,1,0V8.961A1,1,0,0,1,0,9.961Z" transform="translate(246.701 12)" fill="#5bb3b3" />
            <path d="M0,9.961a1,1,0,0,1-1-1V0A1,1,0,0,1,0-1,1,1,0,0,1,1,0V8.961A1,1,0,0,1,0,9.961Z" transform="translate(246.701 71.393)" fill="#5bb3b3" />
            <path d="M6.337,7.337a1,1,0,0,1-.707-.293L-.707.707a1,1,0,0,1,0-1.414,1,1,0,0,1,1.414,0L7.044,5.63a1,1,0,0,1-.707,1.707Z" transform="translate(222.534 22.01)" fill="#5bb3b3" />
            <path d="M6.337,7.337a1,1,0,0,1-.707-.293L-.707.707a1,1,0,0,1,0-1.414,1,1,0,0,1,1.414,0L7.044,5.63a1,1,0,0,1-.707,1.707Z" transform="translate(264.531 64.008)" fill="#5bb3b3" />
            <path d="M8.961,1.032h0L0,1A1,1,0,0,1-1,0,1,1,0,0,1,0-1l8.961.032a1,1,0,0,1,0,2Z" transform="translate(271.917 46.264)" fill="#5bb3b3" />
            <path d="M8.961,1.032h0L0,1A1,1,0,0,1-1,0,1,1,0,0,1,0-1l8.961.032a1,1,0,0,1,0,2Z" transform="translate(212.524 46.058)" fill="#5bb3b3" />
            <path d="M0,7.315a1,1,0,0,1-.71-.3,1,1,0,0,1,0-1.414L5.654-.71a1,1,0,0,1,1.414,0,1,1,0,0,1,0,1.414L.7,7.025A1,1,0,0,1,0,7.315Z" transform="translate(264.593 22.094)" fill="#5bb3b3" />
            <path d="M0,7.315a1,1,0,0,1-.71-.3,1,1,0,0,1,0-1.414L5.654-.71a1,1,0,0,1,1.414,0,1,1,0,0,1,0,1.414L.7,7.025A1,1,0,0,1,0,7.315Z" transform="translate(222.451 63.946)" fill="#5bb3b3" />
            <path d="M0,9.293a1,1,0,0,1-.378-.075,1,1,0,0,1-.547-1.3L2.469-.379a1,1,0,0,1,1.3-.547A1,1,0,0,1,4.32.379L.925,8.672A1,1,0,0,1,0,9.293Z" transform="translate(256.252 14.546)" fill="#5bb3b3" />
            <path d="M0,9.293a1,1,0,0,1-.378-.075,1,1,0,0,1-.547-1.3L2.469-.379a1,1,0,0,1,1.3-.547A1,1,0,0,1,4.32.379L.925,8.672A1,1,0,0,1,0,9.293Z" transform="translate(233.757 69.515)" fill="#5bb3b3" />
            <path d="M3.464,9.265a1,1,0,0,1-.923-.614L-.922.387A1,1,0,0,1-.387-.922,1,1,0,0,1,.922-.387L4.386,7.878a1,1,0,0,1-.922,1.387Z" transform="translate(233.488 14.657)" fill="#5bb3b3" />
            <path d="M3.464,9.265a1,1,0,0,1-.923-.614L-.922.387A1,1,0,0,1-.387-.922,1,1,0,0,1,.922-.387L4.386,7.878a1,1,0,0,1-.922,1.387Z" transform="translate(256.45 69.432)" fill="#5bb3b3" />
            <path d="M8.281,4.423A1,1,0,0,1,7.9,4.347L-.382.924A1,1,0,0,1-.924-.382,1,1,0,0,1,.382-.924L8.663,2.5a1,1,0,0,1-.382,1.924Z" transform="translate(270.006 55.808)" fill="#5bb3b3" />
            <path d="M8.281,4.423A1,1,0,0,1,7.9,4.347L-.382.924A1,1,0,0,1-.924-.382,1,1,0,0,1,.382-.924L8.663,2.5a1,1,0,0,1-.382,1.924Z" transform="translate(215.115 33.123)" fill="#5bb3b3" />
            <path d="M0,4.436a1,1,0,0,1-.924-.617,1,1,0,0,1,.54-1.307L7.893-.924A1,1,0,0,1,9.2-.383,1,1,0,0,1,8.659.924L.383,4.36A1,1,0,0,1,0,4.436Z" transform="translate(269.991 33.073)" fill="#5bb3b3" />
            <path d="M0,4.436a1,1,0,0,1-.924-.617,1,1,0,0,1,.54-1.307L7.893-.924A1,1,0,0,1,9.2-.383,1,1,0,0,1,8.659.924L.383,4.36A1,1,0,0,1,0,4.436Z" transform="translate(215.136 55.846)" fill="#5bb3b3" />
        </g>
        <path d="M123.584,188.439q-1.8,0-3.486-.081a1,1,0,0,1-.489-.155,112.712,112.712,0,0,0-10.075-5.433,183.089,183.089,0,0,0-27.3-10.565,175.093,175.093,0,0,0-40.127-7.11q-4.5-.253-8.98-.252a152.9,152.9,0,0,0-39.6,5.153,1,1,0,0,1-1.225-.707,1,1,0,0,1,.707-1.225A156.138,156.138,0,0,1,42.263,163.1a177.124,177.124,0,0,1,40.609,7.207A185.059,185.059,0,0,1,110.463,181c5.643,2.743,9.094,4.821,9.991,5.375,10.047.443,23.589-1.358,41.387-5.5,15.9-3.7,33.08-8.752,49.693-13.635,23.161-6.807,45.038-13.237,60.422-15.115a124.222,124.222,0,0,1,30.04.569,242.254,242.254,0,0,1,29.334,5.708,304.4,304.4,0,0,1,31.17,9.7l.019.007c.057.023,5.8,2.378,13.306,4.862,9.893,3.276,18.338,5.291,24.423,5.828a1,1,0,0,1-.176,1.992c-6.329-.558-14.7-2.552-24.89-5.926-7.421-2.458-13.141-4.791-13.413-4.9a302.751,302.751,0,0,0-30.956-9.631,240.17,240.17,0,0,0-29.079-5.657A122.228,122.228,0,0,0,272.2,154.1c-15.221,1.857-37.021,8.265-60.1,15.048-16.64,4.891-33.846,9.948-49.8,13.664-8.641,2.012-16.086,3.442-22.76,4.371A116.5,116.5,0,0,1,123.584,188.439Z" transform="translate(0 -14.25)" fill="#5bb3b3" />
        <path d="M343.385,171.62h-.012a1,1,0,0,1-.988-1.011c0-.122.14-12.4.14-28.152a17.1,17.1,0,0,0-7.544-14.723,22.633,22.633,0,0,0-7.593-3.425,1,1,0,1,1,.392-1.961,24.4,24.4,0,0,1,8.348,3.748,19.1,19.1,0,0,1,8.4,16.361c0,15.764-.139,28.052-.14,28.175A1,1,0,0,1,343.385,171.62Z" transform="translate(-3.163 -59.965)" fill="#5bb3b3" />
        <path d="M348.385,174.678a1,1,0,0,1-1-.967c-.005-.152-.5-15.38-.5-31.154a19.1,19.1,0,0,1,8.4-16.361,24.4,24.4,0,0,1,8.348-3.748,1,1,0,0,1,.393,1.961,22.8,22.8,0,0,0-7.65,3.465,17.691,17.691,0,0,0-5.155,5.512,17.91,17.91,0,0,0-2.332,9.171c0,15.742.5,30.937.5,31.088a1,1,0,0,1-.966,1.032Z" transform="translate(2.209 -67.938)" fill="#5bb3b3" />
        <path d="M347.369,123.826a1,1,0,0,1-.707-1.707c3.265-3.265,9.558-6.43,9.824-6.564a1,1,0,0,1,.895,1.789h0c-.062.031-6.27,3.154-9.3,6.189A1,1,0,0,1,347.369,123.826Z" transform="translate(2.072 -65.785)" fill="#5bb3b3" />
        <path d="M-133.143-3330.449a1,1,0,0,1-.82-.427,1,1,0,0,1,.246-1.393c.042-.03,4.312-3.014,11.149-7.3,6.307-3.952,16.157-9.855,27.27-15.535a212.177,212.177,0,0,1,34.261-14.3,101.06,101.06,0,0,1,16.935-3.723,51.765,51.765,0,0,1,15.345.189,1,1,0,0,1,.805,1.163,1,1,0,0,1-1.163.805c-8.238-1.5-18.784-.326-31.343,3.48a210.2,210.2,0,0,0-33.931,14.171,363.1,363.1,0,0,0-38.182,22.69A1,1,0,0,1-133.143-3330.449Z" transform="translate(432 3469)" fill="#5bb3b3" />
        <path d="M-220.352-3273.185s7.245,2.192,17.473-10.317,24.749,0,24.749,0-9.022,15.844-24.749,14.647S-220.352-3273.185-220.352-3273.185Z" transform="translate(434 3473)" fill="#85cb85" />
        <g transform="translate(3.374 19.705)">
            <path d="M-195.993-3289.9s-1.677-16.935,19.832-27.164,23.052-9.095,29.324-21.549C-146.81-3274.669-195.993-3289.9-195.993-3289.9Z" transform="matrix(0.961, 0.276, -0.276, 0.961, -464.249, 3425.32)" fill="#85cb85" />
            <path d="M-196-3294.594s-1.515-15.3,17.921-24.546,16.768-4.834,22.435-16.087C-161.507-3284.678-196-3294.594-196-3294.594Z" transform="translate(456.022 3466.29)" fill="#85cb85" />
            <path d="M-223.653-3204.167H-247.17c-.01,0,36.787-37.16,43.572-70.771s-17.112-60.386-16.433-63.67l.378-1.827,1.814-1.323,2.148,6.755a2.616,2.616,0,0,0,1.516-2.148c.011.5-.9-.235,12.924,18.946C-174.7-3271.074-222.994-3204.63-223.653-3204.167Z" transform="translate(454.19 3466.238)" fill="#629d62" />
            <g transform="translate(164.606 50.037) rotate(-9)">
                <g transform="translate(0)">
                    <path d="M103.238,87.923a2.988,2.988,0,0,1-1.9-.683L-1.906,2.317a3,3,0,0,1-.411-4.223,3,3,0,0,1,4.223-.411l103.24,84.923a3,3,0,0,1-1.908,5.317Z" transform="translate(6.661 24.977)" fill="#edc95a" />
                    <path d="M0,116.231a2.987,2.987,0,0,1-1.82-.617,3,3,0,0,1-.561-4.205L84.205-1.822a3,3,0,0,1,4.205-.561,3,3,0,0,1,.561,4.205L2.383,115.054A3,3,0,0,1,0,116.231Z" transform="translate(14.986 9.991)" fill="#edc95a" />
                    <path d="M0,49.625a3,3,0,0,1-2.786-1.887,3,3,0,0,1,1.671-3.9L115.447-2.785a3,3,0,0,1,3.9,1.671,3,3,0,0,1-1.671,3.9L1.114,49.41A2.992,2.992,0,0,1,0,49.625Z" transform="translate(0 43.294)" fill="#edc95a" />
                    <path d="M99.914,16.322a3.026,3.026,0,0,1-.4-.027L-.4,2.974A3,3,0,0,1-2.974-.4,3,3,0,0,1,.4-2.974l99.91,13.321a3,3,0,0,1-.393,5.974Z" transform="translate(11.656 59.946)" fill="#edc95a" />
                    <path d="M44.961,101.245a3,3,0,0,1-2.73-1.752L-2.728,1.248a3,3,0,0,1,1.48-3.976,3,3,0,0,1,3.976,1.48L47.687,97a3,3,0,0,1-2.726,4.249Z" transform="translate(33.303 13.321)" fill="#edc95a" />
                    <path d="M0,114.566q-.09,0-.182-.005a3,3,0,0,1-2.816-3.173L3.666-.179A3,3,0,0,1,6.839-2.995,3,3,0,0,1,9.655.179L2.995,111.745A3,3,0,0,1,0,114.566Z" transform="translate(54.95)" fill="#edc95a" />
                </g>
                <g transform="translate(31.185 30.087) rotate(8)">
                    <circle cx="33.294" cy="33.294" r="33.294" transform="translate(0 0)" fill="#ffd964" />
                    <path d="M26.361,28.8a8.323,8.323,0,0,1-3.019,6.708q-3.019,2.534-8.454,3.033v5.383h-3.6V38.649A29.193,29.193,0,0,1,.053,36.391V29.459a30.251,30.251,0,0,0,5.5,2,29.43,29.43,0,0,0,5.737,1.024V24.339l-1.759-.683q-5.2-2.048-7.365-4.45A8.553,8.553,0,0,1,0,13.259,7.758,7.758,0,0,1,2.98,7a15.146,15.146,0,0,1,8.31-2.98V0h3.6V3.912a29.81,29.81,0,0,1,10.87,2.416l-2.468,6.144a28.382,28.382,0,0,0-8.4-2.048v7.746a40.382,40.382,0,0,1,7.286,3.413,9.967,9.967,0,0,1,3.177,3.177A7.879,7.879,0,0,1,26.361,28.8Zm-7.9.394a2.361,2.361,0,0,0-.893-1.864,11.708,11.708,0,0,0-2.678-1.575v6.538Q18.458,31.691,18.458,29.2ZM7.9,13.259a2.492,2.492,0,0,0,.8,1.9A9.508,9.508,0,0,0,11.29,16.7v-6.17Q7.9,11.028,7.9,13.259Z" transform="translate(19.565 11.395)" fill="#313e58" />
                </g>
            </g>
        </g>
        <g transform="translate(25.009 -20.629) rotate(11)">
            <path d="M50.6,37.565a2,2,0,0,1-1.986-1.784c-.178-1.639-.423-3.243-.727-4.767a2,2,0,0,1,3.922-.785c.328,1.64.591,3.363.782,5.12a2,2,0,0,1-1.773,2.2A2.023,2.023,0,0,1,50.6,37.565ZM47.621,24.949a2,2,0,0,1-1.862-1.268A35.613,35.613,0,0,0,43.745,19.4a2,2,0,1,1,3.494-1.947,39.626,39.626,0,0,1,2.242,4.76,2,2,0,0,1-1.861,2.733ZM40.814,13.964a2,2,0,0,1-1.466-.64,30.6,30.6,0,0,0-3.444-3.18,2,2,0,1,1,2.48-3.138,34.608,34.608,0,0,1,3.9,3.6,2,2,0,0,1-1.466,3.36ZM30.347,6.386a1.992,1.992,0,0,1-.853-.192,38.927,38.927,0,0,0-4.415-1.758,2,2,0,0,1,1.254-3.8,42.94,42.94,0,0,1,4.87,1.94,2,2,0,0,1-.856,3.809Zm-12.412-3.7a2.014,2.014,0,0,1-.31-.024c-1.553-.242-3.166-.419-4.795-.529A2,2,0,0,1,13.1-1.857c1.744.117,3.474.308,5.142.567a2,2,0,0,1-.3,3.977ZM0,2.647A2,2,0,0,1-1.968,1,2,2,0,0,1-.358-1.322a48.128,48.128,0,0,1,5.205-.56,2,2,0,1,1,.242,3.993,44.708,44.708,0,0,0-4.732.5A2.012,2.012,0,0,1,0,2.647Z" transform="translate(204.243 208.737) rotate(-7)" fill="#708daf" />
            <path d="M48.31,39.561A2,2,0,0,1,46.317,37.7c-.111-1.652-.284-3.271-.513-4.813a2,2,0,0,1,3.957-.588c.245,1.647.429,3.374.547,5.132a2,2,0,0,1-1.861,2.13C48.4,39.56,48.356,39.561,48.31,39.561ZM46,26.8A2,2,0,0,1,44.1,25.406a38.363,38.363,0,0,0-1.713-4.428A2,2,0,0,1,46.017,19.3a42.374,42.374,0,0,1,1.893,4.892A2,2,0,0,1,46,26.8ZM40.052,15.322a2,2,0,0,1-1.573-.763A29.584,29.584,0,0,0,35.3,11.125a2,2,0,1,1,2.712-2.94,33.6,33.6,0,0,1,3.606,3.9,2,2,0,0,1-1.57,3.238Zm-9.888-8.3a1.991,1.991,0,0,1-.956-.244,34.776,34.776,0,0,0-4.294-1.967,2,2,0,0,1,1.419-3.74,38.788,38.788,0,0,1,4.79,2.195,2,2,0,0,1-.959,3.756ZM17.92,2.828a2.012,2.012,0,0,1-.357-.032c-1.538-.277-3.142-.485-4.765-.618a2,2,0,1,1,.325-3.987c1.752.143,3.484.368,5.15.668a2,2,0,0,1-.353,3.969ZM0,2.639a2,2,0,0,1-1.964-1.63A2,2,0,0,1-.372-1.326,44.9,44.9,0,0,1,4.85-1.9,2,2,0,1,1,5.084,2.1,41.977,41.977,0,0,0,.37,2.6,2.012,2.012,0,0,1,0,2.639Z" transform="translate(207.067 210.985) rotate(10)" fill="#708daf" />
            <path d="M39.768,33.033a2,2,0,0,1-1.977-1.715c-.237-1.639-.536-3.234-.889-4.742a2,2,0,0,1,3.894-.914c.38,1.62.7,3.33.954,5.084a2,2,0,0,1-1.982,2.286Zm-3.4-12.507a2,2,0,0,1-1.835-1.2,33.234,33.234,0,0,0-2.174-4.18,2,2,0,1,1,3.4-2.1A37.245,37.245,0,0,1,38.2,17.728a2,2,0,0,1-1.833,2.8ZM29.017,9.917a1.993,1.993,0,0,1-1.359-.533A25.753,25.753,0,0,0,23.99,6.555,2,2,0,1,1,26.137,3.18a29.763,29.763,0,0,1,4.24,3.27,2,2,0,0,1-1.36,3.467ZM17.81,3.553a2,2,0,0,1-.587-.088,32.614,32.614,0,0,0-4.59-1.042,2,2,0,1,1,.607-3.954A36.626,36.626,0,0,1,18.4-.36a2,2,0,0,1-.585,3.913ZM0,2.633A2,2,0,0,1-1.953,1.069,2,2,0,0,1-.437-1.32a34.237,34.237,0,0,1,5.3-.628,2,2,0,1,1,.2,4,31.026,31.026,0,0,0-4.625.537A2.006,2.006,0,0,1,0,2.633Z" transform="translate(204.122 217.683) rotate(8)" fill="#708daf" />
            <g transform="matrix(0.899, 0.438, -0.438, 0.899, 112.731, 84.54)">
                <path d="M3.085,77.13,45.238,5.711,40.909,0,0,53.449Z" transform="translate(109.296 46.83) rotate(30)" fill="#9183d8" />
                <path d="M3.085,71.418,45.238,0,0,47.737Z" transform="translate(106.44 51.777) rotate(30)" fill="#7468b4" />
                <path d="M41.488,63C39.433,62.069-8.73,39.86,1.4,13.768,4.027,6.994,8.315,2.656,14.143.875,27.023-3.062,42.5,7.542,43.151,8l-3.785,5.454c-.134-.093-13.505-9.226-23.3-6.222-3.829,1.175-6.6,4.1-8.484,8.943C1.046,33.02,31.821,51.325,44.231,56.956Z" transform="translate(31.501 0) rotate(30)" fill="#7468b4" />
                <path d="M8.069,26.558.3,19.567a.921.921,0,0,1-.3-.761L1.459.848A.923.923,0,0,1,2.828.116,77.716,77.716,0,0,1,15.54,9.233,96.785,96.785,0,0,1,26.648,21.558a.923.923,0,0,1-.545,1.45L8.884,26.773a.92.92,0,0,1-.815-.216Z" transform="translate(143.815 53.166) rotate(30)" fill="#9183d8" />
                <path d="M9.9,0H58.61c1.682,0,4.567,1.363,4.567,3.045L68.505,78.4a3.045,3.045,0,0,1-3.045,3.045H3.045A3.045,3.045,0,0,1,0,78.4L4.567,3.045C4.567,1.363,8.214,0,9.9,0Z" transform="translate(56.506 11.377) rotate(30)" fill="#7468b4" />
            </g>
        </g>
    </g>
</svg>